<?xml version="1.0" encoding="utf-8" standalone="no"?>
<!DOCTYPE svg PUBLIC "-//W3C//DTD SVG 1.1//EN"
  "http://www.w3.org/Graphics/SVG/1.1/DTD/svg11.dtd">
<!-- Created with matplotlib (https://matplotlib.org/) -->
<svg height="345.6pt" version="1.1" viewBox="0 0 460.8 345.6" width="460.8pt" xmlns="http://www.w3.org/2000/svg" xmlns:xlink="http://www.w3.org/1999/xlink">
 <metadata>
  <rdf:RDF xmlns:cc="http://creativecommons.org/ns#" xmlns:dc="http://purl.org/dc/elements/1.1/" xmlns:rdf="http://www.w3.org/1999/02/22-rdf-syntax-ns#">
   <cc:Work>
    <dc:type rdf:resource="http://purl.org/dc/dcmitype/StillImage"/>
    <dc:date>2022-02-08T13:05:28.568398</dc:date>
    <dc:format>image/svg+xml</dc:format>
    <dc:creator>
     <cc:Agent>
      <dc:title>Matplotlib v3.3.3, https://matplotlib.org/</dc:title>
     </cc:Agent>
    </dc:creator>
   </cc:Work>
  </rdf:RDF>
 </metadata>
 <defs>
  <style type="text/css">*{stroke-linecap:butt;stroke-linejoin:round;}</style>
 </defs>
 <g id="figure_1">
  <g id="patch_1">
   <path d="M 0 345.6 
L 460.8 345.6 
L 460.8 0 
L 0 0 
z
" style="fill:#ffffff;"/>
  </g>
  <g id="axes_1">
   <g id="patch_2">
    <path d="M 46.94 291.28 
L 453.192 291.28 
L 453.192 27.72 
L 46.94 27.72 
z
" style="fill:#ffffff;"/>
   </g>
   <g id="line2d_1">
    <defs>
     <path d="M -15 0 
L 15 0 
M 0 15 
L 0 -15 
" id="m66c0999102" style="stroke:#0000ff;stroke-width:5;"/>
    </defs>
    <g clip-path="url(#p3d785c5252)">
     <use style="fill:#0000ff;stroke:#0000ff;stroke-width:5;" x="165.066612" xlink:href="#m66c0999102" y="121.024992"/>
    </g>
   </g>
   <g id="line2d_2">
    <g clip-path="url(#p3d785c5252)">
     <use style="fill:#0000ff;stroke:#0000ff;stroke-width:5;" x="81.83083" xlink:href="#m66c0999102" y="96.964455"/>
    </g>
   </g>
   <g id="line2d_3">
    <defs>
     <path d="M -15 0 
L 15 0 
M 0 15 
L 0 -15 
" id="mdf831cf66c" style="stroke:#00bfbf;stroke-width:5;"/>
    </defs>
    <g clip-path="url(#p3d785c5252)">
     <use style="fill:#00bfbf;stroke:#00bfbf;stroke-width:5;" x="322.614407" xlink:href="#mdf831cf66c" y="174.344828"/>
    </g>
   </g>
   <g id="matplotlib.axis_1">
    <g id="xtick_1">
     <g id="line2d_4">
      <defs>
       <path d="M 0 0 
L 0 3.5 
" id="m03e5f2306b" style="stroke:#000000;stroke-width:0.8;"/>
      </defs>
      <g>
       <use style="stroke:#000000;stroke-width:0.8;" x="81.83083" xlink:href="#m03e5f2306b" y="291.28"/>
      </g>
     </g>
     <g id="text_1">
      <!-- 1 -->
      <g transform="translate(75.46833 313.476875)scale(0.2 -0.2)">
       <defs>
        <path d="M 12.40625 8.296875 
L 28.515625 8.296875 
L 28.515625 63.921875 
L 10.984375 60.40625 
L 10.984375 69.390625 
L 28.421875 72.90625 
L 38.28125 72.90625 
L 38.28125 8.296875 
L 54.390625 8.296875 
L 54.390625 0 
L 12.40625 0 
z
" id="DejaVuSans-49"/>
       </defs>
       <use xlink:href="#DejaVuSans-49"/>
      </g>
     </g>
    </g>
    <g id="xtick_2">
     <g id="line2d_5">
      <g>
       <use style="stroke:#000000;stroke-width:0.8;" x="165.066612" xlink:href="#m03e5f2306b" y="291.28"/>
      </g>
     </g>
     <g id="text_2">
      <!-- 3 -->
      <g transform="translate(158.704112 313.476875)scale(0.2 -0.2)">
       <defs>
        <path d="M 40.578125 39.3125 
Q 47.65625 37.796875 51.625 33 
Q 55.609375 28.21875 55.609375 21.1875 
Q 55.609375 10.40625 48.1875 4.484375 
Q 40.765625 -1.421875 27.09375 -1.421875 
Q 22.515625 -1.421875 17.65625 -0.515625 
Q 12.796875 0.390625 7.625 2.203125 
L 7.625 11.71875 
Q 11.71875 9.328125 16.59375 8.109375 
Q 21.484375 6.890625 26.8125 6.890625 
Q 36.078125 6.890625 40.9375 10.546875 
Q 45.796875 14.203125 45.796875 21.1875 
Q 45.796875 27.640625 41.28125 31.265625 
Q 36.765625 34.90625 28.71875 34.90625 
L 20.21875 34.90625 
L 20.21875 43.015625 
L 29.109375 43.015625 
Q 36.375 43.015625 40.234375 45.921875 
Q 44.09375 48.828125 44.09375 54.296875 
Q 44.09375 59.90625 40.109375 62.90625 
Q 36.140625 65.921875 28.71875 65.921875 
Q 24.65625 65.921875 20.015625 65.03125 
Q 15.375 64.15625 9.8125 62.3125 
L 9.8125 71.09375 
Q 15.4375 72.65625 20.34375 73.4375 
Q 25.25 74.21875 29.59375 74.21875 
Q 40.828125 74.21875 47.359375 69.109375 
Q 53.90625 64.015625 53.90625 55.328125 
Q 53.90625 49.265625 50.4375 45.09375 
Q 46.96875 40.921875 40.578125 39.3125 
z
" id="DejaVuSans-51"/>
       </defs>
       <use xlink:href="#DejaVuSans-51"/>
      </g>
     </g>
    </g>
    <g id="xtick_3">
     <g id="line2d_6">
      <g>
       <use style="stroke:#000000;stroke-width:0.8;" x="256.284979" xlink:href="#m03e5f2306b" y="291.28"/>
      </g>
     </g>
     <g id="text_3">
      <!-- 10 -->
      <g transform="translate(243.559979 313.476875)scale(0.2 -0.2)">
       <defs>
        <path d="M 31.78125 66.40625 
Q 24.171875 66.40625 20.328125 58.90625 
Q 16.5 51.421875 16.5 36.375 
Q 16.5 21.390625 20.328125 13.890625 
Q 24.171875 6.390625 31.78125 6.390625 
Q 39.453125 6.390625 43.28125 13.890625 
Q 47.125 21.390625 47.125 36.375 
Q 47.125 51.421875 43.28125 58.90625 
Q 39.453125 66.40625 31.78125 66.40625 
z
M 31.78125 74.21875 
Q 44.046875 74.21875 50.515625 64.515625 
Q 56.984375 54.828125 56.984375 36.375 
Q 56.984375 17.96875 50.515625 8.265625 
Q 44.046875 -1.421875 31.78125 -1.421875 
Q 19.53125 -1.421875 13.0625 8.265625 
Q 6.59375 17.96875 6.59375 36.375 
Q 6.59375 54.828125 13.0625 64.515625 
Q 19.53125 74.21875 31.78125 74.21875 
z
" id="DejaVuSans-48"/>
       </defs>
       <use xlink:href="#DejaVuSans-49"/>
       <use x="63.623047" xlink:href="#DejaVuSans-48"/>
      </g>
     </g>
    </g>
    <g id="xtick_4">
     <g id="line2d_7">
      <g>
       <use style="stroke:#000000;stroke-width:0.8;" x="339.520761" xlink:href="#m03e5f2306b" y="291.28"/>
      </g>
     </g>
     <g id="text_4">
      <!-- 30 -->
      <g transform="translate(326.795761 313.476875)scale(0.2 -0.2)">
       <use xlink:href="#DejaVuSans-51"/>
       <use x="63.623047" xlink:href="#DejaVuSans-48"/>
      </g>
     </g>
    </g>
    <g id="xtick_5">
     <g id="line2d_8">
      <g>
       <use style="stroke:#000000;stroke-width:0.8;" x="430.739128" xlink:href="#m03e5f2306b" y="291.28"/>
      </g>
     </g>
     <g id="text_5">
      <!-- 100 -->
      <g transform="translate(411.651628 313.476875)scale(0.2 -0.2)">
       <use xlink:href="#DejaVuSans-49"/>
       <use x="63.623047" xlink:href="#DejaVuSans-48"/>
       <use x="127.246094" xlink:href="#DejaVuSans-48"/>
      </g>
     </g>
    </g>
    <g id="xtick_6">
     <g id="line2d_9">
      <defs>
       <path d="M 0 0 
L 0 2 
" id="m4d10c4ae1b" style="stroke:#000000;stroke-width:0.6;"/>
      </defs>
      <g>
       <use style="stroke:#000000;stroke-width:0.6;" x="54.80754" xlink:href="#m4d10c4ae1b" y="291.28"/>
      </g>
     </g>
    </g>
    <g id="xtick_7">
     <g id="line2d_10">
      <g>
       <use style="stroke:#000000;stroke-width:0.6;" x="64.924476" xlink:href="#m4d10c4ae1b" y="291.28"/>
      </g>
     </g>
    </g>
    <g id="xtick_8">
     <g id="line2d_11">
      <g>
       <use style="stroke:#000000;stroke-width:0.6;" x="73.848246" xlink:href="#m4d10c4ae1b" y="291.28"/>
      </g>
     </g>
    </g>
    <g id="xtick_9">
     <g id="line2d_12">
      <g>
       <use style="stroke:#000000;stroke-width:0.6;" x="134.346762" xlink:href="#m4d10c4ae1b" y="291.28"/>
      </g>
     </g>
    </g>
    <g id="xtick_10">
     <g id="line2d_13">
      <g>
       <use style="stroke:#000000;stroke-width:0.6;" x="186.862693" xlink:href="#m4d10c4ae1b" y="291.28"/>
      </g>
     </g>
    </g>
    <g id="xtick_11">
     <g id="line2d_14">
      <g>
       <use style="stroke:#000000;stroke-width:0.6;" x="203.769047" xlink:href="#m4d10c4ae1b" y="291.28"/>
      </g>
     </g>
    </g>
    <g id="xtick_12">
     <g id="line2d_15">
      <g>
       <use style="stroke:#000000;stroke-width:0.6;" x="217.582544" xlink:href="#m4d10c4ae1b" y="291.28"/>
      </g>
     </g>
    </g>
    <g id="xtick_13">
     <g id="line2d_16">
      <g>
       <use style="stroke:#000000;stroke-width:0.6;" x="229.261689" xlink:href="#m4d10c4ae1b" y="291.28"/>
      </g>
     </g>
    </g>
    <g id="xtick_14">
     <g id="line2d_17">
      <g>
       <use style="stroke:#000000;stroke-width:0.6;" x="239.378625" xlink:href="#m4d10c4ae1b" y="291.28"/>
      </g>
     </g>
    </g>
    <g id="xtick_15">
     <g id="line2d_18">
      <g>
       <use style="stroke:#000000;stroke-width:0.6;" x="248.302395" xlink:href="#m4d10c4ae1b" y="291.28"/>
      </g>
     </g>
    </g>
    <g id="xtick_16">
     <g id="line2d_19">
      <g>
       <use style="stroke:#000000;stroke-width:0.6;" x="308.800911" xlink:href="#m4d10c4ae1b" y="291.28"/>
      </g>
     </g>
    </g>
    <g id="xtick_17">
     <g id="line2d_20">
      <g>
       <use style="stroke:#000000;stroke-width:0.6;" x="361.316842" xlink:href="#m4d10c4ae1b" y="291.28"/>
      </g>
     </g>
    </g>
    <g id="xtick_18">
     <g id="line2d_21">
      <g>
       <use style="stroke:#000000;stroke-width:0.6;" x="378.223196" xlink:href="#m4d10c4ae1b" y="291.28"/>
      </g>
     </g>
    </g>
    <g id="xtick_19">
     <g id="line2d_22">
      <g>
       <use style="stroke:#000000;stroke-width:0.6;" x="392.036693" xlink:href="#m4d10c4ae1b" y="291.28"/>
      </g>
     </g>
    </g>
    <g id="xtick_20">
     <g id="line2d_23">
      <g>
       <use style="stroke:#000000;stroke-width:0.6;" x="403.715838" xlink:href="#m4d10c4ae1b" y="291.28"/>
      </g>
     </g>
    </g>
    <g id="xtick_21">
     <g id="line2d_24">
      <g>
       <use style="stroke:#000000;stroke-width:0.6;" x="413.832774" xlink:href="#m4d10c4ae1b" y="291.28"/>
      </g>
     </g>
    </g>
    <g id="xtick_22">
     <g id="line2d_25">
      <g>
       <use style="stroke:#000000;stroke-width:0.6;" x="422.756544" xlink:href="#m4d10c4ae1b" y="291.28"/>
      </g>
     </g>
    </g>
    <g id="text_6">
     <!-- Number of constraints -->
     <g transform="translate(138.330063 336.833125)scale(0.2 -0.2)">
      <defs>
       <path d="M 9.8125 72.90625 
L 23.09375 72.90625 
L 55.421875 11.921875 
L 55.421875 72.90625 
L 64.984375 72.90625 
L 64.984375 0 
L 51.703125 0 
L 19.390625 60.984375 
L 19.390625 0 
L 9.8125 0 
z
" id="DejaVuSans-78"/>
       <path d="M 8.5 21.578125 
L 8.5 54.6875 
L 17.484375 54.6875 
L 17.484375 21.921875 
Q 17.484375 14.15625 20.5 10.265625 
Q 23.53125 6.390625 29.59375 6.390625 
Q 36.859375 6.390625 41.078125 11.03125 
Q 45.3125 15.671875 45.3125 23.6875 
L 45.3125 54.6875 
L 54.296875 54.6875 
L 54.296875 0 
L 45.3125 0 
L 45.3125 8.40625 
Q 42.046875 3.421875 37.71875 1 
Q 33.40625 -1.421875 27.6875 -1.421875 
Q 18.265625 -1.421875 13.375 4.4375 
Q 8.5 10.296875 8.5 21.578125 
z
M 31.109375 56 
z
" id="DejaVuSans-117"/>
       <path d="M 52 44.1875 
Q 55.375 50.25 60.0625 53.125 
Q 64.75 56 71.09375 56 
Q 79.640625 56 84.28125 50.015625 
Q 88.921875 44.046875 88.921875 33.015625 
L 88.921875 0 
L 79.890625 0 
L 79.890625 32.71875 
Q 79.890625 40.578125 77.09375 44.375 
Q 74.3125 48.1875 68.609375 48.1875 
Q 61.625 48.1875 57.5625 43.546875 
Q 53.515625 38.921875 53.515625 30.90625 
L 53.515625 0 
L 44.484375 0 
L 44.484375 32.71875 
Q 44.484375 40.625 41.703125 44.40625 
Q 38.921875 48.1875 33.109375 48.1875 
Q 26.21875 48.1875 22.15625 43.53125 
Q 18.109375 38.875 18.109375 30.90625 
L 18.109375 0 
L 9.078125 0 
L 9.078125 54.6875 
L 18.109375 54.6875 
L 18.109375 46.1875 
Q 21.1875 51.21875 25.484375 53.609375 
Q 29.78125 56 35.6875 56 
Q 41.65625 56 45.828125 52.96875 
Q 50 49.953125 52 44.1875 
z
" id="DejaVuSans-109"/>
       <path d="M 48.6875 27.296875 
Q 48.6875 37.203125 44.609375 42.84375 
Q 40.53125 48.484375 33.40625 48.484375 
Q 26.265625 48.484375 22.1875 42.84375 
Q 18.109375 37.203125 18.109375 27.296875 
Q 18.109375 17.390625 22.1875 11.75 
Q 26.265625 6.109375 33.40625 6.109375 
Q 40.53125 6.109375 44.609375 11.75 
Q 48.6875 17.390625 48.6875 27.296875 
z
M 18.109375 46.390625 
Q 20.953125 51.265625 25.265625 53.625 
Q 29.59375 56 35.59375 56 
Q 45.5625 56 51.78125 48.09375 
Q 58.015625 40.1875 58.015625 27.296875 
Q 58.015625 14.40625 51.78125 6.484375 
Q 45.5625 -1.421875 35.59375 -1.421875 
Q 29.59375 -1.421875 25.265625 0.953125 
Q 20.953125 3.328125 18.109375 8.203125 
L 18.109375 0 
L 9.078125 0 
L 9.078125 75.984375 
L 18.109375 75.984375 
z
" id="DejaVuSans-98"/>
       <path d="M 56.203125 29.59375 
L 56.203125 25.203125 
L 14.890625 25.203125 
Q 15.484375 15.921875 20.484375 11.0625 
Q 25.484375 6.203125 34.421875 6.203125 
Q 39.59375 6.203125 44.453125 7.46875 
Q 49.3125 8.734375 54.109375 11.28125 
L 54.109375 2.78125 
Q 49.265625 0.734375 44.1875 -0.34375 
Q 39.109375 -1.421875 33.890625 -1.421875 
Q 20.796875 -1.421875 13.15625 6.1875 
Q 5.515625 13.8125 5.515625 26.8125 
Q 5.515625 40.234375 12.765625 48.109375 
Q 20.015625 56 32.328125 56 
Q 43.359375 56 49.78125 48.890625 
Q 56.203125 41.796875 56.203125 29.59375 
z
M 47.21875 32.234375 
Q 47.125 39.59375 43.09375 43.984375 
Q 39.0625 48.390625 32.421875 48.390625 
Q 24.90625 48.390625 20.390625 44.140625 
Q 15.875 39.890625 15.1875 32.171875 
z
" id="DejaVuSans-101"/>
       <path d="M 41.109375 46.296875 
Q 39.59375 47.171875 37.8125 47.578125 
Q 36.03125 48 33.890625 48 
Q 26.265625 48 22.1875 43.046875 
Q 18.109375 38.09375 18.109375 28.8125 
L 18.109375 0 
L 9.078125 0 
L 9.078125 54.6875 
L 18.109375 54.6875 
L 18.109375 46.1875 
Q 20.953125 51.171875 25.484375 53.578125 
Q 30.03125 56 36.53125 56 
Q 37.453125 56 38.578125 55.875 
Q 39.703125 55.765625 41.0625 55.515625 
z
" id="DejaVuSans-114"/>
       <path id="DejaVuSans-32"/>
       <path d="M 30.609375 48.390625 
Q 23.390625 48.390625 19.1875 42.75 
Q 14.984375 37.109375 14.984375 27.296875 
Q 14.984375 17.484375 19.15625 11.84375 
Q 23.34375 6.203125 30.609375 6.203125 
Q 37.796875 6.203125 41.984375 11.859375 
Q 46.1875 17.53125 46.1875 27.296875 
Q 46.1875 37.015625 41.984375 42.703125 
Q 37.796875 48.390625 30.609375 48.390625 
z
M 30.609375 56 
Q 42.328125 56 49.015625 48.375 
Q 55.71875 40.765625 55.71875 27.296875 
Q 55.71875 13.875 49.015625 6.21875 
Q 42.328125 -1.421875 30.609375 -1.421875 
Q 18.84375 -1.421875 12.171875 6.21875 
Q 5.515625 13.875 5.515625 27.296875 
Q 5.515625 40.765625 12.171875 48.375 
Q 18.84375 56 30.609375 56 
z
" id="DejaVuSans-111"/>
       <path d="M 37.109375 75.984375 
L 37.109375 68.5 
L 28.515625 68.5 
Q 23.6875 68.5 21.796875 66.546875 
Q 19.921875 64.59375 19.921875 59.515625 
L 19.921875 54.6875 
L 34.71875 54.6875 
L 34.71875 47.703125 
L 19.921875 47.703125 
L 19.921875 0 
L 10.890625 0 
L 10.890625 47.703125 
L 2.296875 47.703125 
L 2.296875 54.6875 
L 10.890625 54.6875 
L 10.890625 58.5 
Q 10.890625 67.625 15.140625 71.796875 
Q 19.390625 75.984375 28.609375 75.984375 
z
" id="DejaVuSans-102"/>
       <path d="M 48.78125 52.59375 
L 48.78125 44.1875 
Q 44.96875 46.296875 41.140625 47.34375 
Q 37.3125 48.390625 33.40625 48.390625 
Q 24.65625 48.390625 19.8125 42.84375 
Q 14.984375 37.3125 14.984375 27.296875 
Q 14.984375 17.28125 19.8125 11.734375 
Q 24.65625 6.203125 33.40625 6.203125 
Q 37.3125 6.203125 41.140625 7.25 
Q 44.96875 8.296875 48.78125 10.40625 
L 48.78125 2.09375 
Q 45.015625 0.34375 40.984375 -0.53125 
Q 36.96875 -1.421875 32.421875 -1.421875 
Q 20.0625 -1.421875 12.78125 6.34375 
Q 5.515625 14.109375 5.515625 27.296875 
Q 5.515625 40.671875 12.859375 48.328125 
Q 20.21875 56 33.015625 56 
Q 37.15625 56 41.109375 55.140625 
Q 45.0625 54.296875 48.78125 52.59375 
z
" id="DejaVuSans-99"/>
       <path d="M 54.890625 33.015625 
L 54.890625 0 
L 45.90625 0 
L 45.90625 32.71875 
Q 45.90625 40.484375 42.875 44.328125 
Q 39.84375 48.1875 33.796875 48.1875 
Q 26.515625 48.1875 22.3125 43.546875 
Q 18.109375 38.921875 18.109375 30.90625 
L 18.109375 0 
L 9.078125 0 
L 9.078125 54.6875 
L 18.109375 54.6875 
L 18.109375 46.1875 
Q 21.34375 51.125 25.703125 53.5625 
Q 30.078125 56 35.796875 56 
Q 45.21875 56 50.046875 50.171875 
Q 54.890625 44.34375 54.890625 33.015625 
z
" id="DejaVuSans-110"/>
       <path d="M 44.28125 53.078125 
L 44.28125 44.578125 
Q 40.484375 46.53125 36.375 47.5 
Q 32.28125 48.484375 27.875 48.484375 
Q 21.1875 48.484375 17.84375 46.4375 
Q 14.5 44.390625 14.5 40.28125 
Q 14.5 37.15625 16.890625 35.375 
Q 19.28125 33.59375 26.515625 31.984375 
L 29.59375 31.296875 
Q 39.15625 29.25 43.1875 25.515625 
Q 47.21875 21.78125 47.21875 15.09375 
Q 47.21875 7.46875 41.1875 3.015625 
Q 35.15625 -1.421875 24.609375 -1.421875 
Q 20.21875 -1.421875 15.453125 -0.5625 
Q 10.6875 0.296875 5.421875 2 
L 5.421875 11.28125 
Q 10.40625 8.6875 15.234375 7.390625 
Q 20.0625 6.109375 24.8125 6.109375 
Q 31.15625 6.109375 34.5625 8.28125 
Q 37.984375 10.453125 37.984375 14.40625 
Q 37.984375 18.0625 35.515625 20.015625 
Q 33.0625 21.96875 24.703125 23.78125 
L 21.578125 24.515625 
Q 13.234375 26.265625 9.515625 29.90625 
Q 5.8125 33.546875 5.8125 39.890625 
Q 5.8125 47.609375 11.28125 51.796875 
Q 16.75 56 26.8125 56 
Q 31.78125 56 36.171875 55.265625 
Q 40.578125 54.546875 44.28125 53.078125 
z
" id="DejaVuSans-115"/>
       <path d="M 18.3125 70.21875 
L 18.3125 54.6875 
L 36.8125 54.6875 
L 36.8125 47.703125 
L 18.3125 47.703125 
L 18.3125 18.015625 
Q 18.3125 11.328125 20.140625 9.421875 
Q 21.96875 7.515625 27.59375 7.515625 
L 36.8125 7.515625 
L 36.8125 0 
L 27.59375 0 
Q 17.1875 0 13.234375 3.875 
Q 9.28125 7.765625 9.28125 18.015625 
L 9.28125 47.703125 
L 2.6875 47.703125 
L 2.6875 54.6875 
L 9.28125 54.6875 
L 9.28125 70.21875 
z
" id="DejaVuSans-116"/>
       <path d="M 34.28125 27.484375 
Q 23.390625 27.484375 19.1875 25 
Q 14.984375 22.515625 14.984375 16.5 
Q 14.984375 11.71875 18.140625 8.90625 
Q 21.296875 6.109375 26.703125 6.109375 
Q 34.1875 6.109375 38.703125 11.40625 
Q 43.21875 16.703125 43.21875 25.484375 
L 43.21875 27.484375 
z
M 52.203125 31.203125 
L 52.203125 0 
L 43.21875 0 
L 43.21875 8.296875 
Q 40.140625 3.328125 35.546875 0.953125 
Q 30.953125 -1.421875 24.3125 -1.421875 
Q 15.921875 -1.421875 10.953125 3.296875 
Q 6 8.015625 6 15.921875 
Q 6 25.140625 12.171875 29.828125 
Q 18.359375 34.515625 30.609375 34.515625 
L 43.21875 34.515625 
L 43.21875 35.40625 
Q 43.21875 41.609375 39.140625 45 
Q 35.0625 48.390625 27.6875 48.390625 
Q 23 48.390625 18.546875 47.265625 
Q 14.109375 46.140625 10.015625 43.890625 
L 10.015625 52.203125 
Q 14.9375 54.109375 19.578125 55.046875 
Q 24.21875 56 28.609375 56 
Q 40.484375 56 46.34375 49.84375 
Q 52.203125 43.703125 52.203125 31.203125 
z
" id="DejaVuSans-97"/>
       <path d="M 9.421875 54.6875 
L 18.40625 54.6875 
L 18.40625 0 
L 9.421875 0 
z
M 9.421875 75.984375 
L 18.40625 75.984375 
L 18.40625 64.59375 
L 9.421875 64.59375 
z
" id="DejaVuSans-105"/>
      </defs>
      <use xlink:href="#DejaVuSans-78"/>
      <use x="74.804688" xlink:href="#DejaVuSans-117"/>
      <use x="138.183594" xlink:href="#DejaVuSans-109"/>
      <use x="235.595703" xlink:href="#DejaVuSans-98"/>
      <use x="299.072266" xlink:href="#DejaVuSans-101"/>
      <use x="360.595703" xlink:href="#DejaVuSans-114"/>
      <use x="401.708984" xlink:href="#DejaVuSans-32"/>
      <use x="433.496094" xlink:href="#DejaVuSans-111"/>
      <use x="494.677734" xlink:href="#DejaVuSans-102"/>
      <use x="529.882812" xlink:href="#DejaVuSans-32"/>
      <use x="561.669922" xlink:href="#DejaVuSans-99"/>
      <use x="616.650391" xlink:href="#DejaVuSans-111"/>
      <use x="677.832031" xlink:href="#DejaVuSans-110"/>
      <use x="741.210938" xlink:href="#DejaVuSans-115"/>
      <use x="793.310547" xlink:href="#DejaVuSans-116"/>
      <use x="832.519531" xlink:href="#DejaVuSans-114"/>
      <use x="873.632812" xlink:href="#DejaVuSans-97"/>
      <use x="934.912109" xlink:href="#DejaVuSans-105"/>
      <use x="962.695312" xlink:href="#DejaVuSans-110"/>
      <use x="1026.074219" xlink:href="#DejaVuSans-116"/>
      <use x="1065.283203" xlink:href="#DejaVuSans-115"/>
     </g>
    </g>
   </g>
   <g id="matplotlib.axis_2">
    <g id="ytick_1">
     <g id="line2d_26">
      <path clip-path="url(#p3d785c5252)" d="M 46.94 282.834449 
L 453.192 282.834449 
" style="fill:none;stroke:#b0b0b0;stroke-linecap:square;stroke-width:0.8;"/>
     </g>
     <g id="line2d_27">
      <defs>
       <path d="M 0 0 
L -3.5 0 
" id="m1f2e181db4" style="stroke:#000000;stroke-width:0.8;"/>
      </defs>
      <g>
       <use style="stroke:#000000;stroke-width:0.8;" x="46.94" xlink:href="#m1f2e181db4" y="282.834449"/>
      </g>
     </g>
     <g id="text_7">
      <!-- 0 -->
      <g transform="translate(27.215 290.432887)scale(0.2 -0.2)">
       <use xlink:href="#DejaVuSans-48"/>
      </g>
     </g>
    </g>
    <g id="ytick_2">
     <g id="line2d_28">
      <path clip-path="url(#p3d785c5252)" d="M 46.94 240.606694 
L 453.192 240.606694 
" style="fill:none;stroke:#b0b0b0;stroke-linecap:square;stroke-width:0.8;"/>
     </g>
     <g id="line2d_29">
      <g>
       <use style="stroke:#000000;stroke-width:0.8;" x="46.94" xlink:href="#m1f2e181db4" y="240.606694"/>
      </g>
     </g>
     <g id="text_8">
      <!-- 1 -->
      <g transform="translate(27.215 248.205132)scale(0.2 -0.2)">
       <use xlink:href="#DejaVuSans-49"/>
      </g>
     </g>
    </g>
    <g id="ytick_3">
     <g id="line2d_30">
      <path clip-path="url(#p3d785c5252)" d="M 46.94 198.378939 
L 453.192 198.378939 
" style="fill:none;stroke:#b0b0b0;stroke-linecap:square;stroke-width:0.8;"/>
     </g>
     <g id="line2d_31">
      <g>
       <use style="stroke:#000000;stroke-width:0.8;" x="46.94" xlink:href="#m1f2e181db4" y="198.378939"/>
      </g>
     </g>
     <g id="text_9">
      <!-- 2 -->
      <g transform="translate(27.215 205.977377)scale(0.2 -0.2)">
       <defs>
        <path d="M 19.1875 8.296875 
L 53.609375 8.296875 
L 53.609375 0 
L 7.328125 0 
L 7.328125 8.296875 
Q 12.9375 14.109375 22.625 23.890625 
Q 32.328125 33.6875 34.8125 36.53125 
Q 39.546875 41.84375 41.421875 45.53125 
Q 43.3125 49.21875 43.3125 52.78125 
Q 43.3125 58.59375 39.234375 62.25 
Q 35.15625 65.921875 28.609375 65.921875 
Q 23.96875 65.921875 18.8125 64.3125 
Q 13.671875 62.703125 7.8125 59.421875 
L 7.8125 69.390625 
Q 13.765625 71.78125 18.9375 73 
Q 24.125 74.21875 28.421875 74.21875 
Q 39.75 74.21875 46.484375 68.546875 
Q 53.21875 62.890625 53.21875 53.421875 
Q 53.21875 48.921875 51.53125 44.890625 
Q 49.859375 40.875 45.40625 35.40625 
Q 44.1875 33.984375 37.640625 27.21875 
Q 31.109375 20.453125 19.1875 8.296875 
z
" id="DejaVuSans-50"/>
       </defs>
       <use xlink:href="#DejaVuSans-50"/>
      </g>
     </g>
    </g>
    <g id="ytick_4">
     <g id="line2d_32">
      <path clip-path="url(#p3d785c5252)" d="M 46.94 156.151185 
L 453.192 156.151185 
" style="fill:none;stroke:#b0b0b0;stroke-linecap:square;stroke-width:0.8;"/>
     </g>
     <g id="line2d_33">
      <g>
       <use style="stroke:#000000;stroke-width:0.8;" x="46.94" xlink:href="#m1f2e181db4" y="156.151185"/>
      </g>
     </g>
     <g id="text_10">
      <!-- 3 -->
      <g transform="translate(27.215 163.749622)scale(0.2 -0.2)">
       <use xlink:href="#DejaVuSans-51"/>
      </g>
     </g>
    </g>
    <g id="ytick_5">
     <g id="line2d_34">
      <path clip-path="url(#p3d785c5252)" d="M 46.94 113.92343 
L 453.192 113.92343 
" style="fill:none;stroke:#b0b0b0;stroke-linecap:square;stroke-width:0.8;"/>
     </g>
     <g id="line2d_35">
      <g>
       <use style="stroke:#000000;stroke-width:0.8;" x="46.94" xlink:href="#m1f2e181db4" y="113.92343"/>
      </g>
     </g>
     <g id="text_11">
      <!-- 4 -->
      <g transform="translate(27.215 121.521867)scale(0.2 -0.2)">
       <defs>
        <path d="M 37.796875 64.3125 
L 12.890625 25.390625 
L 37.796875 25.390625 
z
M 35.203125 72.90625 
L 47.609375 72.90625 
L 47.609375 25.390625 
L 58.015625 25.390625 
L 58.015625 17.1875 
L 47.609375 17.1875 
L 47.609375 0 
L 37.796875 0 
L 37.796875 17.1875 
L 4.890625 17.1875 
L 4.890625 26.703125 
z
" id="DejaVuSans-52"/>
       </defs>
       <use xlink:href="#DejaVuSans-52"/>
      </g>
     </g>
    </g>
    <g id="text_12">
     <!-- Run Lengths / Dimension -->
     <g transform="translate(19.055625 284.432813)rotate(-90)scale(0.2 -0.2)">
      <defs>
       <path d="M 44.390625 34.1875 
Q 47.5625 33.109375 50.5625 29.59375 
Q 53.5625 26.078125 56.59375 19.921875 
L 66.609375 0 
L 56 0 
L 46.6875 18.703125 
Q 43.0625 26.03125 39.671875 28.421875 
Q 36.28125 30.8125 30.421875 30.8125 
L 19.671875 30.8125 
L 19.671875 0 
L 9.8125 0 
L 9.8125 72.90625 
L 32.078125 72.90625 
Q 44.578125 72.90625 50.734375 67.671875 
Q 56.890625 62.453125 56.890625 51.90625 
Q 56.890625 45.015625 53.6875 40.46875 
Q 50.484375 35.9375 44.390625 34.1875 
z
M 19.671875 64.796875 
L 19.671875 38.921875 
L 32.078125 38.921875 
Q 39.203125 38.921875 42.84375 42.21875 
Q 46.484375 45.515625 46.484375 51.90625 
Q 46.484375 58.296875 42.84375 61.546875 
Q 39.203125 64.796875 32.078125 64.796875 
z
" id="DejaVuSans-82"/>
       <path d="M 9.8125 72.90625 
L 19.671875 72.90625 
L 19.671875 8.296875 
L 55.171875 8.296875 
L 55.171875 0 
L 9.8125 0 
z
" id="DejaVuSans-76"/>
       <path d="M 45.40625 27.984375 
Q 45.40625 37.75 41.375 43.109375 
Q 37.359375 48.484375 30.078125 48.484375 
Q 22.859375 48.484375 18.828125 43.109375 
Q 14.796875 37.75 14.796875 27.984375 
Q 14.796875 18.265625 18.828125 12.890625 
Q 22.859375 7.515625 30.078125 7.515625 
Q 37.359375 7.515625 41.375 12.890625 
Q 45.40625 18.265625 45.40625 27.984375 
z
M 54.390625 6.78125 
Q 54.390625 -7.171875 48.1875 -13.984375 
Q 42 -20.796875 29.203125 -20.796875 
Q 24.46875 -20.796875 20.265625 -20.09375 
Q 16.0625 -19.390625 12.109375 -17.921875 
L 12.109375 -9.1875 
Q 16.0625 -11.328125 19.921875 -12.34375 
Q 23.78125 -13.375 27.78125 -13.375 
Q 36.625 -13.375 41.015625 -8.765625 
Q 45.40625 -4.15625 45.40625 5.171875 
L 45.40625 9.625 
Q 42.625 4.78125 38.28125 2.390625 
Q 33.9375 0 27.875 0 
Q 17.828125 0 11.671875 7.65625 
Q 5.515625 15.328125 5.515625 27.984375 
Q 5.515625 40.671875 11.671875 48.328125 
Q 17.828125 56 27.875 56 
Q 33.9375 56 38.28125 53.609375 
Q 42.625 51.21875 45.40625 46.390625 
L 45.40625 54.6875 
L 54.390625 54.6875 
z
" id="DejaVuSans-103"/>
       <path d="M 54.890625 33.015625 
L 54.890625 0 
L 45.90625 0 
L 45.90625 32.71875 
Q 45.90625 40.484375 42.875 44.328125 
Q 39.84375 48.1875 33.796875 48.1875 
Q 26.515625 48.1875 22.3125 43.546875 
Q 18.109375 38.921875 18.109375 30.90625 
L 18.109375 0 
L 9.078125 0 
L 9.078125 75.984375 
L 18.109375 75.984375 
L 18.109375 46.1875 
Q 21.34375 51.125 25.703125 53.5625 
Q 30.078125 56 35.796875 56 
Q 45.21875 56 50.046875 50.171875 
Q 54.890625 44.34375 54.890625 33.015625 
z
" id="DejaVuSans-104"/>
       <path d="M 25.390625 72.90625 
L 33.6875 72.90625 
L 8.296875 -9.28125 
L 0 -9.28125 
z
" id="DejaVuSans-47"/>
       <path d="M 19.671875 64.796875 
L 19.671875 8.109375 
L 31.59375 8.109375 
Q 46.6875 8.109375 53.6875 14.9375 
Q 60.6875 21.78125 60.6875 36.53125 
Q 60.6875 51.171875 53.6875 57.984375 
Q 46.6875 64.796875 31.59375 64.796875 
z
M 9.8125 72.90625 
L 30.078125 72.90625 
Q 51.265625 72.90625 61.171875 64.09375 
Q 71.09375 55.28125 71.09375 36.53125 
Q 71.09375 17.671875 61.125 8.828125 
Q 51.171875 0 30.078125 0 
L 9.8125 0 
z
" id="DejaVuSans-68"/>
      </defs>
      <use xlink:href="#DejaVuSans-82"/>
      <use x="64.982422" xlink:href="#DejaVuSans-117"/>
      <use x="128.361328" xlink:href="#DejaVuSans-110"/>
      <use x="191.740234" xlink:href="#DejaVuSans-32"/>
      <use x="223.527344" xlink:href="#DejaVuSans-76"/>
      <use x="277.490234" xlink:href="#DejaVuSans-101"/>
      <use x="339.013672" xlink:href="#DejaVuSans-110"/>
      <use x="402.392578" xlink:href="#DejaVuSans-103"/>
      <use x="465.869141" xlink:href="#DejaVuSans-116"/>
      <use x="505.078125" xlink:href="#DejaVuSans-104"/>
      <use x="568.457031" xlink:href="#DejaVuSans-115"/>
      <use x="620.556641" xlink:href="#DejaVuSans-32"/>
      <use x="652.34375" xlink:href="#DejaVuSans-47"/>
      <use x="686.035156" xlink:href="#DejaVuSans-32"/>
      <use x="717.822266" xlink:href="#DejaVuSans-68"/>
      <use x="794.824219" xlink:href="#DejaVuSans-105"/>
      <use x="822.607422" xlink:href="#DejaVuSans-109"/>
      <use x="920.019531" xlink:href="#DejaVuSans-101"/>
      <use x="981.542969" xlink:href="#DejaVuSans-110"/>
      <use x="1044.921875" xlink:href="#DejaVuSans-115"/>
      <use x="1097.021484" xlink:href="#DejaVuSans-105"/>
      <use x="1124.804688" xlink:href="#DejaVuSans-111"/>
      <use x="1185.986328" xlink:href="#DejaVuSans-110"/>
     </g>
    </g>
   </g>
   <g id="LineCollection_1">
    <path clip-path="url(#p3d785c5252)" d="M 308.800911 346.6 
L 308.800911 27.72 
" style="fill:none;stroke:#0000ff;stroke-dasharray:7.4,3.2;stroke-dashoffset:0;stroke-opacity:0.5;stroke-width:2;"/>
   </g>
   <g id="LineCollection_2">
    <path clip-path="url(#p3d785c5252)" d="M 339.520761 346.6 
L 339.520761 27.72 
" style="fill:none;stroke:#008000;stroke-dasharray:7.4,3.2;stroke-dashoffset:0;stroke-opacity:0.5;stroke-width:2;"/>
   </g>
   <g id="line2d_36">
    <path clip-path="url(#p3d785c5252)" d="M 80.025548 230.740999 
L 81.289245 228.453473 
L 80.025548 211.017549 
L 83.636111 211.017549 
L 82.372414 228.453473 
L 83.636111 230.740999 
L 80.025548 230.740999 
" style="fill:none;stroke:#000000;stroke-linecap:square;"/>
   </g>
   <g id="line2d_37">
    <path clip-path="url(#p3d785c5252)" d="M 80.025548 230.740999 
L 83.636111 230.740999 
L 83.636111 211.017549 
L 80.025548 211.017549 
L 80.025548 230.740999 
" style="fill:none;"/>
    <defs>
     <path d="M 0 3 
C 0.795609 3 1.55874 2.683901 2.12132 2.12132 
C 2.683901 1.55874 3 0.795609 3 0 
C 3 -0.795609 2.683901 -1.55874 2.12132 -2.12132 
C 1.55874 -2.683901 0.795609 -3 0 -3 
C -0.795609 -3 -1.55874 -2.683901 -2.12132 -2.12132 
C -2.683901 -1.55874 -3 -0.795609 -3 0 
C -3 0.795609 -2.683901 1.55874 -2.12132 2.12132 
C -1.55874 2.683901 -0.795609 3 0 3 
z
" id="m2ca55707c2" style="stroke:#000000;stroke-width:2;"/>
    </defs>
    <g clip-path="url(#p3d785c5252)">
     <use style="stroke:#000000;stroke-width:2;" x="80.025548" xlink:href="#m2ca55707c2" y="230.740999"/>
     <use style="stroke:#000000;stroke-width:2;" x="83.636111" xlink:href="#m2ca55707c2" y="230.740999"/>
     <use style="stroke:#000000;stroke-width:2;" x="83.636111" xlink:href="#m2ca55707c2" y="211.017549"/>
     <use style="stroke:#000000;stroke-width:2;" x="80.025548" xlink:href="#m2ca55707c2" y="211.017549"/>
     <use style="stroke:#000000;stroke-width:2;" x="80.025548" xlink:href="#m2ca55707c2" y="230.740999"/>
    </g>
   </g>
   <g id="line2d_38">
    <path clip-path="url(#p3d785c5252)" d="M 80.025548 228.453473 
L 83.636111 228.453473 
" style="fill:none;stroke:#000000;stroke-linecap:square;stroke-width:2;"/>
   </g>
   <g id="line2d_39">
    <path clip-path="url(#p3d785c5252)" d="M 163.261331 234.534546 
L 164.525028 196.52297 
L 163.261331 165.007714 
L 166.871894 165.007714 
L 165.608197 196.52297 
L 166.871894 234.534546 
L 163.261331 234.534546 
" style="fill:none;stroke:#000000;stroke-linecap:square;"/>
   </g>
   <g id="line2d_40">
    <path clip-path="url(#p3d785c5252)" d="M 163.261331 234.534546 
L 166.871894 234.534546 
L 166.871894 165.007714 
L 163.261331 165.007714 
L 163.261331 234.534546 
" style="fill:none;"/>
    <g clip-path="url(#p3d785c5252)">
     <use style="stroke:#000000;stroke-width:2;" x="163.261331" xlink:href="#m2ca55707c2" y="234.534546"/>
     <use style="stroke:#000000;stroke-width:2;" x="166.871894" xlink:href="#m2ca55707c2" y="234.534546"/>
     <use style="stroke:#000000;stroke-width:2;" x="166.871894" xlink:href="#m2ca55707c2" y="165.007714"/>
     <use style="stroke:#000000;stroke-width:2;" x="163.261331" xlink:href="#m2ca55707c2" y="165.007714"/>
     <use style="stroke:#000000;stroke-width:2;" x="163.261331" xlink:href="#m2ca55707c2" y="234.534546"/>
    </g>
   </g>
   <g id="line2d_41">
    <path clip-path="url(#p3d785c5252)" d="M 163.261331 196.52297 
L 166.871894 196.52297 
" style="fill:none;stroke:#000000;stroke-linecap:square;stroke-width:2;"/>
   </g>
   <g id="line2d_42">
    <path clip-path="url(#p3d785c5252)" d="M 246.497113 225.79605 
L 247.76081 195.134901 
L 246.497113 163.380711 
L 250.107676 163.380711 
L 248.843979 195.134901 
L 250.107676 225.79605 
L 246.497113 225.79605 
" style="fill:none;stroke:#000000;stroke-linecap:square;"/>
   </g>
   <g id="line2d_43">
    <path clip-path="url(#p3d785c5252)" d="M 246.497113 225.79605 
L 250.107676 225.79605 
L 250.107676 163.380711 
L 246.497113 163.380711 
L 246.497113 225.79605 
" style="fill:none;"/>
    <g clip-path="url(#p3d785c5252)">
     <use style="stroke:#000000;stroke-width:2;" x="246.497113" xlink:href="#m2ca55707c2" y="225.79605"/>
     <use style="stroke:#000000;stroke-width:2;" x="250.107676" xlink:href="#m2ca55707c2" y="225.79605"/>
     <use style="stroke:#000000;stroke-width:2;" x="250.107676" xlink:href="#m2ca55707c2" y="163.380711"/>
     <use style="stroke:#000000;stroke-width:2;" x="246.497113" xlink:href="#m2ca55707c2" y="163.380711"/>
     <use style="stroke:#000000;stroke-width:2;" x="246.497113" xlink:href="#m2ca55707c2" y="225.79605"/>
    </g>
   </g>
   <g id="line2d_44">
    <path clip-path="url(#p3d785c5252)" d="M 246.497113 195.134901 
L 250.107676 195.134901 
" style="fill:none;stroke:#000000;stroke-linecap:square;stroke-width:2;"/>
   </g>
   <g id="line2d_45">
    <path clip-path="url(#p3d785c5252)" d="M 320.809126 222.222144 
L 322.072823 195.058232 
L 320.809126 177.046874 
L 324.419689 177.046874 
L 323.155992 195.058232 
L 324.419689 222.222144 
L 320.809126 222.222144 
" style="fill:none;stroke:#000000;stroke-linecap:square;"/>
   </g>
   <g id="line2d_46">
    <path clip-path="url(#p3d785c5252)" d="M 320.809126 222.222144 
L 324.419689 222.222144 
L 324.419689 177.046874 
L 320.809126 177.046874 
L 320.809126 222.222144 
" style="fill:none;"/>
    <g clip-path="url(#p3d785c5252)">
     <use style="stroke:#000000;stroke-width:2;" x="320.809126" xlink:href="#m2ca55707c2" y="222.222144"/>
     <use style="stroke:#000000;stroke-width:2;" x="324.419689" xlink:href="#m2ca55707c2" y="222.222144"/>
     <use style="stroke:#000000;stroke-width:2;" x="324.419689" xlink:href="#m2ca55707c2" y="177.046874"/>
     <use style="stroke:#000000;stroke-width:2;" x="320.809126" xlink:href="#m2ca55707c2" y="177.046874"/>
     <use style="stroke:#000000;stroke-width:2;" x="320.809126" xlink:href="#m2ca55707c2" y="222.222144"/>
    </g>
   </g>
   <g id="line2d_47">
    <path clip-path="url(#p3d785c5252)" d="M 320.809126 195.058232 
L 324.419689 195.058232 
" style="fill:none;stroke:#000000;stroke-linecap:square;stroke-width:2;"/>
   </g>
   <g id="line2d_48">
    <path clip-path="url(#p3d785c5252)" d="M 357.59337 240.198634 
L 358.857067 238.043561 
L 357.59337 236.295641 
L 361.203933 236.295641 
L 359.940236 238.043561 
L 361.203933 240.198634 
L 357.59337 240.198634 
" style="fill:none;stroke:#000000;stroke-linecap:square;"/>
   </g>
   <g id="line2d_49">
    <path clip-path="url(#p3d785c5252)" d="M 357.59337 240.198634 
L 361.203933 240.198634 
L 361.203933 236.295641 
L 357.59337 236.295641 
L 357.59337 240.198634 
" style="fill:none;"/>
    <g clip-path="url(#p3d785c5252)">
     <use style="stroke:#000000;stroke-width:2;" x="357.59337" xlink:href="#m2ca55707c2" y="240.198634"/>
     <use style="stroke:#000000;stroke-width:2;" x="361.203933" xlink:href="#m2ca55707c2" y="240.198634"/>
     <use style="stroke:#000000;stroke-width:2;" x="361.203933" xlink:href="#m2ca55707c2" y="236.295641"/>
     <use style="stroke:#000000;stroke-width:2;" x="357.59337" xlink:href="#m2ca55707c2" y="236.295641"/>
     <use style="stroke:#000000;stroke-width:2;" x="357.59337" xlink:href="#m2ca55707c2" y="240.198634"/>
    </g>
   </g>
   <g id="line2d_50">
    <path clip-path="url(#p3d785c5252)" d="M 357.59337 238.043561 
L 361.203933 238.043561 
" style="fill:none;stroke:#000000;stroke-linecap:square;stroke-width:2;"/>
   </g>
   <g id="line2d_51">
    <path clip-path="url(#p3d785c5252)" d="M 428.172388 245.163297 
L 429.436085 239.538084 
L 428.172388 238.984243 
L 431.782951 238.984243 
L 430.519254 239.538084 
L 431.782951 245.163297 
L 428.172388 245.163297 
" style="fill:none;stroke:#000000;stroke-linecap:square;"/>
   </g>
   <g id="line2d_52">
    <path clip-path="url(#p3d785c5252)" d="M 428.172388 245.163297 
L 431.782951 245.163297 
L 431.782951 238.984243 
L 428.172388 238.984243 
L 428.172388 245.163297 
" style="fill:none;"/>
    <g clip-path="url(#p3d785c5252)">
     <use style="stroke:#000000;stroke-width:2;" x="428.172388" xlink:href="#m2ca55707c2" y="245.163297"/>
     <use style="stroke:#000000;stroke-width:2;" x="431.782951" xlink:href="#m2ca55707c2" y="245.163297"/>
     <use style="stroke:#000000;stroke-width:2;" x="431.782951" xlink:href="#m2ca55707c2" y="238.984243"/>
     <use style="stroke:#000000;stroke-width:2;" x="428.172388" xlink:href="#m2ca55707c2" y="238.984243"/>
     <use style="stroke:#000000;stroke-width:2;" x="428.172388" xlink:href="#m2ca55707c2" y="245.163297"/>
    </g>
   </g>
   <g id="line2d_53">
    <path clip-path="url(#p3d785c5252)" d="M 428.172388 239.538084 
L 431.782951 239.538084 
" style="fill:none;stroke:#000000;stroke-linecap:square;stroke-width:2;"/>
   </g>
   <g id="line2d_54">
    <path clip-path="url(#p3d785c5252)" d="M 81.83083 217.956145 
L 165.066612 164.425536 
" style="fill:none;stroke:#000000;stroke-linecap:square;stroke-width:4;"/>
   </g>
   <g id="line2d_55">
    <path clip-path="url(#p3d785c5252)" d="M 165.066612 164.425536 
L 248.302395 169.418329 
" style="fill:none;stroke:#000000;stroke-linecap:square;stroke-width:4;"/>
   </g>
   <g id="line2d_56">
    <path clip-path="url(#p3d785c5252)" d="M 248.302395 169.418329 
L 322.614407 167.886554 
" style="fill:none;stroke:#000000;stroke-linecap:square;stroke-width:4;"/>
   </g>
   <g id="line2d_57">
    <path clip-path="url(#p3d785c5252)" d="M 322.614407 167.886554 
L 359.398652 237.519546 
" style="fill:none;stroke:#000000;stroke-linecap:square;stroke-width:4;"/>
   </g>
   <g id="line2d_58">
    <path clip-path="url(#p3d785c5252)" d="M 359.398652 237.519546 
L 429.977669 241.47032 
" style="fill:none;stroke:#000000;stroke-linecap:square;stroke-width:4;"/>
   </g>
   <g id="line2d_59">
    <path clip-path="url(#p3d785c5252)" d="M 81.83083 217.956145 
L 165.066612 164.425536 
L 248.302395 169.418329 
L 322.614407 167.886554 
L 359.398652 237.519546 
L 429.977669 241.47032 
" style="fill:none;"/>
    <defs>
     <path d="M 0 10 
C 2.652031 10 5.195799 8.946337 7.071068 7.071068 
C 8.946337 5.195799 10 2.652031 10 0 
C 10 -2.652031 8.946337 -5.195799 7.071068 -7.071068 
C 5.195799 -8.946337 2.652031 -10 0 -10 
C -2.652031 -10 -5.195799 -8.946337 -7.071068 -7.071068 
C -8.946337 -5.195799 -10 -2.652031 -10 0 
C -10 2.652031 -8.946337 5.195799 -7.071068 7.071068 
C -5.195799 8.946337 -2.652031 10 0 10 
z
" id="mac4fe788d0" style="stroke:#000000;stroke-width:2;"/>
    </defs>
    <g clip-path="url(#p3d785c5252)">
     <use style="stroke:#000000;stroke-width:2;" x="81.83083" xlink:href="#mac4fe788d0" y="217.956145"/>
     <use style="stroke:#000000;stroke-width:2;" x="165.066612" xlink:href="#mac4fe788d0" y="164.425536"/>
     <use style="stroke:#000000;stroke-width:2;" x="248.302395" xlink:href="#mac4fe788d0" y="169.418329"/>
     <use style="stroke:#000000;stroke-width:2;" x="322.614407" xlink:href="#mac4fe788d0" y="167.886554"/>
     <use style="stroke:#000000;stroke-width:2;" x="359.398652" xlink:href="#mac4fe788d0" y="237.519546"/>
     <use style="stroke:#000000;stroke-width:2;" x="429.977669" xlink:href="#mac4fe788d0" y="241.47032"/>
    </g>
   </g>
   <g id="line2d_60">
    <path clip-path="url(#p3d785c5252)" d="M 79.423788 145.797548 
L 81.108717 119.918308 
L 79.423788 107.301444 
L 84.237872 107.301444 
L 82.552942 119.918308 
L 84.237872 145.797548 
L 79.423788 145.797548 
" style="fill:none;stroke:#0000ff;stroke-linecap:square;"/>
   </g>
   <g id="line2d_61">
    <path clip-path="url(#p3d785c5252)" d="M 79.423788 145.797548 
L 84.237872 145.797548 
L 84.237872 107.301444 
L 79.423788 107.301444 
L 79.423788 145.797548 
" style="fill:none;"/>
    <defs>
     <path d="M 0 1.5 
C 0.397805 1.5 0.77937 1.341951 1.06066 1.06066 
C 1.341951 0.77937 1.5 0.397805 1.5 0 
C 1.5 -0.397805 1.341951 -0.77937 1.06066 -1.06066 
C 0.77937 -1.341951 0.397805 -1.5 0 -1.5 
C -0.397805 -1.5 -0.77937 -1.341951 -1.06066 -1.06066 
C -1.341951 -0.77937 -1.5 -0.397805 -1.5 0 
C -1.5 0.397805 -1.341951 0.77937 -1.06066 1.06066 
C -0.77937 1.341951 -0.397805 1.5 0 1.5 
z
" id="m57efadd92f" style="stroke:#0000ff;"/>
    </defs>
    <g clip-path="url(#p3d785c5252)">
     <use style="fill:#0000ff;stroke:#0000ff;" x="79.423788" xlink:href="#m57efadd92f" y="145.797548"/>
     <use style="fill:#0000ff;stroke:#0000ff;" x="84.237872" xlink:href="#m57efadd92f" y="145.797548"/>
     <use style="fill:#0000ff;stroke:#0000ff;" x="84.237872" xlink:href="#m57efadd92f" y="107.301444"/>
     <use style="fill:#0000ff;stroke:#0000ff;" x="79.423788" xlink:href="#m57efadd92f" y="107.301444"/>
     <use style="fill:#0000ff;stroke:#0000ff;" x="79.423788" xlink:href="#m57efadd92f" y="145.797548"/>
    </g>
   </g>
   <g id="line2d_62">
    <path clip-path="url(#p3d785c5252)" d="M 79.423788 119.918308 
L 84.237872 119.918308 
" style="fill:none;stroke:#0000ff;stroke-linecap:square;stroke-width:2;"/>
   </g>
   <g id="line2d_63">
    <path clip-path="url(#p3d785c5252)" d="M 162.65957 120.446851 
L 164.3445 90.146685 
L 162.65957 81.54479 
L 167.473654 81.54479 
L 165.788725 90.146685 
L 167.473654 120.446851 
L 162.65957 120.446851 
" style="fill:none;stroke:#0000ff;stroke-linecap:square;"/>
   </g>
   <g id="line2d_64">
    <path clip-path="url(#p3d785c5252)" d="M 162.65957 120.446851 
L 167.473654 120.446851 
L 167.473654 81.54479 
L 162.65957 81.54479 
L 162.65957 120.446851 
" style="fill:none;"/>
    <g clip-path="url(#p3d785c5252)">
     <use style="fill:#0000ff;stroke:#0000ff;" x="162.65957" xlink:href="#m57efadd92f" y="120.446851"/>
     <use style="fill:#0000ff;stroke:#0000ff;" x="167.473654" xlink:href="#m57efadd92f" y="120.446851"/>
     <use style="fill:#0000ff;stroke:#0000ff;" x="167.473654" xlink:href="#m57efadd92f" y="81.54479"/>
     <use style="fill:#0000ff;stroke:#0000ff;" x="162.65957" xlink:href="#m57efadd92f" y="81.54479"/>
     <use style="fill:#0000ff;stroke:#0000ff;" x="162.65957" xlink:href="#m57efadd92f" y="120.446851"/>
    </g>
   </g>
   <g id="line2d_65">
    <path clip-path="url(#p3d785c5252)" d="M 162.65957 90.146685 
L 167.473654 90.146685 
" style="fill:none;stroke:#0000ff;stroke-linecap:square;stroke-width:2;"/>
   </g>
   <g id="line2d_66">
    <path clip-path="url(#p3d785c5252)" d="M 320.207366 189.029113 
L 321.892295 131.144655 
L 320.207366 118.868268 
L 325.021449 118.868268 
L 323.33652 131.144655 
L 325.021449 189.029113 
L 320.207366 189.029113 
" style="fill:none;stroke:#0000ff;stroke-linecap:square;"/>
   </g>
   <g id="line2d_67">
    <path clip-path="url(#p3d785c5252)" d="M 320.207366 189.029113 
L 325.021449 189.029113 
L 325.021449 118.868268 
L 320.207366 118.868268 
L 320.207366 189.029113 
" style="fill:none;"/>
    <g clip-path="url(#p3d785c5252)">
     <use style="fill:#0000ff;stroke:#0000ff;" x="320.207366" xlink:href="#m57efadd92f" y="189.029113"/>
     <use style="fill:#0000ff;stroke:#0000ff;" x="325.021449" xlink:href="#m57efadd92f" y="189.029113"/>
     <use style="fill:#0000ff;stroke:#0000ff;" x="325.021449" xlink:href="#m57efadd92f" y="118.868268"/>
     <use style="fill:#0000ff;stroke:#0000ff;" x="320.207366" xlink:href="#m57efadd92f" y="118.868268"/>
     <use style="fill:#0000ff;stroke:#0000ff;" x="320.207366" xlink:href="#m57efadd92f" y="189.029113"/>
    </g>
   </g>
   <g id="line2d_68">
    <path clip-path="url(#p3d785c5252)" d="M 320.207366 131.144655 
L 325.021449 131.144655 
" style="fill:none;stroke:#0000ff;stroke-linecap:square;stroke-width:2;"/>
   </g>
   <g id="line2d_69">
    <path clip-path="url(#p3d785c5252)" d="M 356.99161 236.551117 
L 358.676539 234.967646 
L 356.99161 232.42211 
L 361.805694 232.42211 
L 360.120764 234.967646 
L 361.805694 236.551117 
L 356.99161 236.551117 
" style="fill:none;stroke:#0000ff;stroke-linecap:square;"/>
   </g>
   <g id="line2d_70">
    <path clip-path="url(#p3d785c5252)" d="M 356.99161 236.551117 
L 361.805694 236.551117 
L 361.805694 232.42211 
L 356.99161 232.42211 
L 356.99161 236.551117 
" style="fill:none;"/>
    <g clip-path="url(#p3d785c5252)">
     <use style="fill:#0000ff;stroke:#0000ff;" x="356.99161" xlink:href="#m57efadd92f" y="236.551117"/>
     <use style="fill:#0000ff;stroke:#0000ff;" x="361.805694" xlink:href="#m57efadd92f" y="236.551117"/>
     <use style="fill:#0000ff;stroke:#0000ff;" x="361.805694" xlink:href="#m57efadd92f" y="232.42211"/>
     <use style="fill:#0000ff;stroke:#0000ff;" x="356.99161" xlink:href="#m57efadd92f" y="232.42211"/>
     <use style="fill:#0000ff;stroke:#0000ff;" x="356.99161" xlink:href="#m57efadd92f" y="236.551117"/>
    </g>
   </g>
   <g id="line2d_71">
    <path clip-path="url(#p3d785c5252)" d="M 356.99161 234.967646 
L 361.805694 234.967646 
" style="fill:none;stroke:#0000ff;stroke-linecap:square;stroke-width:2;"/>
   </g>
   <g id="line2d_72">
    <path clip-path="url(#p3d785c5252)" d="M 427.570628 238.446638 
L 429.255557 236.810203 
L 427.570628 235.515128 
L 432.384711 235.515128 
L 430.699782 236.810203 
L 432.384711 238.446638 
L 427.570628 238.446638 
" style="fill:none;stroke:#0000ff;stroke-linecap:square;"/>
   </g>
   <g id="line2d_73">
    <path clip-path="url(#p3d785c5252)" d="M 427.570628 238.446638 
L 432.384711 238.446638 
L 432.384711 235.515128 
L 427.570628 235.515128 
L 427.570628 238.446638 
" style="fill:none;"/>
    <g clip-path="url(#p3d785c5252)">
     <use style="fill:#0000ff;stroke:#0000ff;" x="427.570628" xlink:href="#m57efadd92f" y="238.446638"/>
     <use style="fill:#0000ff;stroke:#0000ff;" x="432.384711" xlink:href="#m57efadd92f" y="238.446638"/>
     <use style="fill:#0000ff;stroke:#0000ff;" x="432.384711" xlink:href="#m57efadd92f" y="235.515128"/>
     <use style="fill:#0000ff;stroke:#0000ff;" x="427.570628" xlink:href="#m57efadd92f" y="235.515128"/>
     <use style="fill:#0000ff;stroke:#0000ff;" x="427.570628" xlink:href="#m57efadd92f" y="238.446638"/>
    </g>
   </g>
   <g id="line2d_74">
    <path clip-path="url(#p3d785c5252)" d="M 427.570628 236.810203 
L 432.384711 236.810203 
" style="fill:none;stroke:#0000ff;stroke-linecap:square;stroke-width:2;"/>
   </g>
   <g id="line2d_75">
    <path clip-path="url(#p3d785c5252)" d="M 81.83083 114.091438 
L 165.066612 87.579791 
" style="fill:none;stroke:#0000ff;stroke-linecap:square;stroke-width:4;"/>
   </g>
   <g id="line2d_76">
    <path clip-path="url(#p3d785c5252)" d="M 322.614407 130.170914 
L 359.398652 234.833292 
" style="fill:none;stroke:#0000ff;stroke-linecap:square;stroke-width:4;"/>
   </g>
   <g id="line2d_77">
    <path clip-path="url(#p3d785c5252)" d="M 359.398652 234.833292 
L 429.977669 236.820146 
" style="fill:none;stroke:#0000ff;stroke-linecap:square;stroke-width:4;"/>
   </g>
   <g id="line2d_78">
    <path clip-path="url(#p3d785c5252)" d="M 81.83083 114.091438 
L 165.066612 87.579791 
L 322.614407 130.170914 
L 359.398652 234.833292 
L 429.977669 236.820146 
" style="fill:none;"/>
    <defs>
     <path d="M 0 5 
C 1.326016 5 2.597899 4.473168 3.535534 3.535534 
C 4.473168 2.597899 5 1.326016 5 0 
C 5 -1.326016 4.473168 -2.597899 3.535534 -3.535534 
C 2.597899 -4.473168 1.326016 -5 0 -5 
C -1.326016 -5 -2.597899 -4.473168 -3.535534 -3.535534 
C -4.473168 -2.597899 -5 -1.326016 -5 0 
C -5 1.326016 -4.473168 2.597899 -3.535534 3.535534 
C -2.597899 4.473168 -1.326016 5 0 5 
z
" id="mcf227dbc92" style="stroke:#0000ff;"/>
    </defs>
    <g clip-path="url(#p3d785c5252)">
     <use style="fill:#0000ff;stroke:#0000ff;" x="81.83083" xlink:href="#mcf227dbc92" y="114.091438"/>
     <use style="fill:#0000ff;stroke:#0000ff;" x="165.066612" xlink:href="#mcf227dbc92" y="87.579791"/>
     <use style="fill:#0000ff;stroke:#0000ff;" x="322.614407" xlink:href="#mcf227dbc92" y="130.170914"/>
     <use style="fill:#0000ff;stroke:#0000ff;" x="359.398652" xlink:href="#mcf227dbc92" y="234.833292"/>
     <use style="fill:#0000ff;stroke:#0000ff;" x="429.977669" xlink:href="#mcf227dbc92" y="236.820146"/>
    </g>
   </g>
   <g id="line2d_79">
    <path clip-path="url(#p3d785c5252)" d="M 319.605605 103.57459 
L 321.711767 84.965302 
L 319.605605 73.543822 
L 325.62321 73.543822 
L 323.517048 84.965302 
L 325.62321 103.57459 
L 319.605605 103.57459 
" style="fill:none;stroke:#00bfbf;stroke-linecap:square;"/>
   </g>
   <g id="line2d_80">
    <path clip-path="url(#p3d785c5252)" d="M 319.605605 103.57459 
L 325.62321 103.57459 
L 325.62321 73.543822 
L 319.605605 73.543822 
L 319.605605 103.57459 
" style="fill:none;"/>
    <defs>
     <path d="M -0 3 
L 3 -3 
L -3 -3 
z
" id="ma1890f7b10" style="stroke:#00bfbf;stroke-linejoin:miter;stroke-width:2;"/>
    </defs>
    <g clip-path="url(#p3d785c5252)">
     <use style="fill:#00bfbf;stroke:#00bfbf;stroke-linejoin:miter;stroke-width:2;" x="319.605605" xlink:href="#ma1890f7b10" y="103.57459"/>
     <use style="fill:#00bfbf;stroke:#00bfbf;stroke-linejoin:miter;stroke-width:2;" x="325.62321" xlink:href="#ma1890f7b10" y="103.57459"/>
     <use style="fill:#00bfbf;stroke:#00bfbf;stroke-linejoin:miter;stroke-width:2;" x="325.62321" xlink:href="#ma1890f7b10" y="73.543822"/>
     <use style="fill:#00bfbf;stroke:#00bfbf;stroke-linejoin:miter;stroke-width:2;" x="319.605605" xlink:href="#ma1890f7b10" y="73.543822"/>
     <use style="fill:#00bfbf;stroke:#00bfbf;stroke-linejoin:miter;stroke-width:2;" x="319.605605" xlink:href="#ma1890f7b10" y="103.57459"/>
    </g>
   </g>
   <g id="line2d_81">
    <path clip-path="url(#p3d785c5252)" d="M 319.605605 84.965302 
L 325.62321 84.965302 
" style="fill:none;stroke:#00bfbf;stroke-linecap:square;stroke-width:2;"/>
   </g>
   <g id="line2d_82">
    <path clip-path="url(#p3d785c5252)" d="M 356.38985 233.572475 
L 358.496011 230.98355 
L 356.38985 229.374265 
L 362.407454 229.374265 
L 360.301293 230.98355 
L 362.407454 233.572475 
L 356.38985 233.572475 
" style="fill:none;stroke:#00bfbf;stroke-linecap:square;"/>
   </g>
   <g id="line2d_83">
    <path clip-path="url(#p3d785c5252)" d="M 356.38985 233.572475 
L 362.407454 233.572475 
L 362.407454 229.374265 
L 356.38985 229.374265 
L 356.38985 233.572475 
" style="fill:none;"/>
    <g clip-path="url(#p3d785c5252)">
     <use style="fill:#00bfbf;stroke:#00bfbf;stroke-linejoin:miter;stroke-width:2;" x="356.38985" xlink:href="#ma1890f7b10" y="233.572475"/>
     <use style="fill:#00bfbf;stroke:#00bfbf;stroke-linejoin:miter;stroke-width:2;" x="362.407454" xlink:href="#ma1890f7b10" y="233.572475"/>
     <use style="fill:#00bfbf;stroke:#00bfbf;stroke-linejoin:miter;stroke-width:2;" x="362.407454" xlink:href="#ma1890f7b10" y="229.374265"/>
     <use style="fill:#00bfbf;stroke:#00bfbf;stroke-linejoin:miter;stroke-width:2;" x="356.38985" xlink:href="#ma1890f7b10" y="229.374265"/>
     <use style="fill:#00bfbf;stroke:#00bfbf;stroke-linejoin:miter;stroke-width:2;" x="356.38985" xlink:href="#ma1890f7b10" y="233.572475"/>
    </g>
   </g>
   <g id="line2d_84">
    <path clip-path="url(#p3d785c5252)" d="M 356.38985 230.98355 
L 362.407454 230.98355 
" style="fill:none;stroke:#00bfbf;stroke-linecap:square;stroke-width:2;"/>
   </g>
   <g id="line2d_85">
    <path clip-path="url(#p3d785c5252)" d="M 426.968867 234.633588 
L 429.075029 232.927848 
L 426.968867 232.131004 
L 432.986472 232.131004 
L 430.88031 232.927848 
L 432.986472 234.633588 
L 426.968867 234.633588 
" style="fill:none;stroke:#00bfbf;stroke-linecap:square;"/>
   </g>
   <g id="line2d_86">
    <path clip-path="url(#p3d785c5252)" d="M 426.968867 234.633588 
L 432.986472 234.633588 
L 432.986472 232.131004 
L 426.968867 232.131004 
L 426.968867 234.633588 
" style="fill:none;"/>
    <g clip-path="url(#p3d785c5252)">
     <use style="fill:#00bfbf;stroke:#00bfbf;stroke-linejoin:miter;stroke-width:2;" x="426.968867" xlink:href="#ma1890f7b10" y="234.633588"/>
     <use style="fill:#00bfbf;stroke:#00bfbf;stroke-linejoin:miter;stroke-width:2;" x="432.986472" xlink:href="#ma1890f7b10" y="234.633588"/>
     <use style="fill:#00bfbf;stroke:#00bfbf;stroke-linejoin:miter;stroke-width:2;" x="432.986472" xlink:href="#ma1890f7b10" y="232.131004"/>
     <use style="fill:#00bfbf;stroke:#00bfbf;stroke-linejoin:miter;stroke-width:2;" x="426.968867" xlink:href="#ma1890f7b10" y="232.131004"/>
     <use style="fill:#00bfbf;stroke:#00bfbf;stroke-linejoin:miter;stroke-width:2;" x="426.968867" xlink:href="#ma1890f7b10" y="234.633588"/>
    </g>
   </g>
   <g id="line2d_87">
    <path clip-path="url(#p3d785c5252)" d="M 426.968867 232.927848 
L 432.986472 232.927848 
" style="fill:none;stroke:#00bfbf;stroke-linecap:square;stroke-width:2;"/>
   </g>
   <g id="line2d_88">
    <path clip-path="url(#p3d785c5252)" d="M 322.614407 89.110123 
L 359.398652 231.430247 
" style="fill:none;stroke:#00bfbf;stroke-linecap:square;stroke-width:4;"/>
   </g>
   <g id="line2d_89">
    <path clip-path="url(#p3d785c5252)" d="M 359.398652 231.430247 
L 429.977669 233.195224 
" style="fill:none;stroke:#00bfbf;stroke-linecap:square;stroke-width:4;"/>
   </g>
   <g id="line2d_90">
    <path clip-path="url(#p3d785c5252)" d="M 322.614407 89.110123 
L 359.398652 231.430247 
L 429.977669 233.195224 
" style="fill:none;"/>
    <defs>
     <path d="M -0 10 
L 10 -10 
L -10 -10 
z
" id="m42bb734de1" style="stroke:#000000;stroke-linejoin:miter;stroke-width:2;"/>
    </defs>
    <g clip-path="url(#p3d785c5252)">
     <use style="fill:#00bfbf;stroke:#000000;stroke-linejoin:miter;stroke-width:2;" x="322.614407" xlink:href="#m42bb734de1" y="89.110123"/>
     <use style="fill:#00bfbf;stroke:#000000;stroke-linejoin:miter;stroke-width:2;" x="359.398652" xlink:href="#m42bb734de1" y="231.430247"/>
     <use style="fill:#00bfbf;stroke:#000000;stroke-linejoin:miter;stroke-width:2;" x="429.977669" xlink:href="#m42bb734de1" y="233.195224"/>
    </g>
   </g>
   <g id="line2d_91">
    <path clip-path="url(#p3d785c5252)" d="M 355.788089 229.776238 
L 358.315483 228.54825 
L 355.788089 227.352786 
L 363.009215 227.352786 
L 360.481821 228.54825 
L 363.009215 229.776238 
L 355.788089 229.776238 
" style="fill:none;stroke:#008000;stroke-linecap:square;"/>
   </g>
   <g id="line2d_92">
    <path clip-path="url(#p3d785c5252)" d="M 355.788089 229.776238 
L 363.009215 229.776238 
L 363.009215 227.352786 
L 355.788089 227.352786 
L 355.788089 229.776238 
" style="fill:none;"/>
    <defs>
     <path d="M 0 1.5 
C 0.397805 1.5 0.77937 1.341951 1.06066 1.06066 
C 1.341951 0.77937 1.5 0.397805 1.5 0 
C 1.5 -0.397805 1.341951 -0.77937 1.06066 -1.06066 
C 0.77937 -1.341951 0.397805 -1.5 0 -1.5 
C -0.397805 -1.5 -0.77937 -1.341951 -1.06066 -1.06066 
C -1.341951 -0.77937 -1.5 -0.397805 -1.5 0 
C -1.5 0.397805 -1.341951 0.77937 -1.06066 1.06066 
C -0.77937 1.341951 -0.397805 1.5 0 1.5 
z
" id="mb9fdb8c099" style="stroke:#008000;"/>
    </defs>
    <g clip-path="url(#p3d785c5252)">
     <use style="fill:#008000;stroke:#008000;" x="355.788089" xlink:href="#mb9fdb8c099" y="229.776238"/>
     <use style="fill:#008000;stroke:#008000;" x="363.009215" xlink:href="#mb9fdb8c099" y="229.776238"/>
     <use style="fill:#008000;stroke:#008000;" x="363.009215" xlink:href="#mb9fdb8c099" y="227.352786"/>
     <use style="fill:#008000;stroke:#008000;" x="355.788089" xlink:href="#mb9fdb8c099" y="227.352786"/>
     <use style="fill:#008000;stroke:#008000;" x="355.788089" xlink:href="#mb9fdb8c099" y="229.776238"/>
    </g>
   </g>
   <g id="line2d_93">
    <path clip-path="url(#p3d785c5252)" d="M 355.788089 228.54825 
L 363.009215 228.54825 
" style="fill:none;stroke:#008000;stroke-linecap:square;stroke-width:2;"/>
   </g>
   <g id="line2d_94">
    <path clip-path="url(#p3d785c5252)" d="M 426.367107 230.848404 
L 428.894501 230.03202 
L 426.367107 229.374265 
L 433.588232 229.374265 
L 431.060838 230.03202 
L 433.588232 230.848404 
L 426.367107 230.848404 
" style="fill:none;stroke:#008000;stroke-linecap:square;"/>
   </g>
   <g id="line2d_95">
    <path clip-path="url(#p3d785c5252)" d="M 426.367107 230.848404 
L 433.588232 230.848404 
L 433.588232 229.374265 
L 426.367107 229.374265 
L 426.367107 230.848404 
" style="fill:none;"/>
    <g clip-path="url(#p3d785c5252)">
     <use style="fill:#008000;stroke:#008000;" x="426.367107" xlink:href="#mb9fdb8c099" y="230.848404"/>
     <use style="fill:#008000;stroke:#008000;" x="433.588232" xlink:href="#mb9fdb8c099" y="230.848404"/>
     <use style="fill:#008000;stroke:#008000;" x="433.588232" xlink:href="#mb9fdb8c099" y="229.374265"/>
     <use style="fill:#008000;stroke:#008000;" x="426.367107" xlink:href="#mb9fdb8c099" y="229.374265"/>
     <use style="fill:#008000;stroke:#008000;" x="426.367107" xlink:href="#mb9fdb8c099" y="230.848404"/>
    </g>
   </g>
   <g id="line2d_96">
    <path clip-path="url(#p3d785c5252)" d="M 426.367107 230.03202 
L 433.588232 230.03202 
" style="fill:none;stroke:#008000;stroke-linecap:square;stroke-width:2;"/>
   </g>
   <g id="line2d_97">
    <path clip-path="url(#p3d785c5252)" d="M 359.398652 228.447172 
L 429.977669 230.03889 
" style="fill:none;stroke:#008000;stroke-linecap:square;stroke-width:4;"/>
   </g>
   <g id="line2d_98">
    <path clip-path="url(#p3d785c5252)" d="M 359.398652 228.447172 
L 429.977669 230.03889 
" style="fill:none;"/>
    <defs>
     <path d="M 0 5 
C 1.326016 5 2.597899 4.473168 3.535534 3.535534 
C 4.473168 2.597899 5 1.326016 5 0 
C 5 -1.326016 4.473168 -2.597899 3.535534 -3.535534 
C 2.597899 -4.473168 1.326016 -5 0 -5 
C -1.326016 -5 -2.597899 -4.473168 -3.535534 -3.535534 
C -4.473168 -2.597899 -5 -1.326016 -5 0 
C -5 1.326016 -4.473168 2.597899 -3.535534 3.535534 
C -2.597899 4.473168 -1.326016 5 0 5 
z
" id="m4349b6454f" style="stroke:#008000;"/>
    </defs>
    <g clip-path="url(#p3d785c5252)">
     <use style="fill:#008000;stroke:#008000;" x="359.398652" xlink:href="#m4349b6454f" y="228.447172"/>
     <use style="fill:#008000;stroke:#008000;" x="429.977669" xlink:href="#m4349b6454f" y="230.03889"/>
    </g>
   </g>
   <g id="line2d_99">
    <path clip-path="url(#p3d785c5252)" d="M 355.186329 227.153565 
L 358.134955 226.314436 
L 355.186329 225.59273 
L 363.610975 225.59273 
L 360.662349 226.314436 
L 363.610975 227.153565 
L 355.186329 227.153565 
" style="fill:none;stroke:#bfbf00;stroke-linecap:square;"/>
   </g>
   <g id="line2d_100">
    <path clip-path="url(#p3d785c5252)" d="M 355.186329 227.153565 
L 363.610975 227.153565 
L 363.610975 225.59273 
L 355.186329 225.59273 
L 355.186329 227.153565 
" style="fill:none;"/>
    <defs>
     <path d="M 0 -3 
L -3 3 
L 3 3 
z
" id="m683113a0c2" style="stroke:#bfbf00;stroke-linejoin:miter;stroke-width:2;"/>
    </defs>
    <g clip-path="url(#p3d785c5252)">
     <use style="fill:#bfbf00;stroke:#bfbf00;stroke-linejoin:miter;stroke-width:2;" x="355.186329" xlink:href="#m683113a0c2" y="227.153565"/>
     <use style="fill:#bfbf00;stroke:#bfbf00;stroke-linejoin:miter;stroke-width:2;" x="363.610975" xlink:href="#m683113a0c2" y="227.153565"/>
     <use style="fill:#bfbf00;stroke:#bfbf00;stroke-linejoin:miter;stroke-width:2;" x="363.610975" xlink:href="#m683113a0c2" y="225.59273"/>
     <use style="fill:#bfbf00;stroke:#bfbf00;stroke-linejoin:miter;stroke-width:2;" x="355.186329" xlink:href="#m683113a0c2" y="225.59273"/>
     <use style="fill:#bfbf00;stroke:#bfbf00;stroke-linejoin:miter;stroke-width:2;" x="355.186329" xlink:href="#m683113a0c2" y="227.153565"/>
    </g>
   </g>
   <g id="line2d_101">
    <path clip-path="url(#p3d785c5252)" d="M 355.186329 226.314436 
L 363.610975 226.314436 
" style="fill:none;stroke:#bfbf00;stroke-linecap:square;stroke-width:2;"/>
   </g>
   <g id="line2d_102">
    <path clip-path="url(#p3d785c5252)" d="M 425.765346 228.619656 
L 428.713972 228.172047 
L 425.765346 227.153565 
L 434.189993 227.153565 
L 431.241366 228.172047 
L 434.189993 228.619656 
L 425.765346 228.619656 
" style="fill:none;stroke:#bfbf00;stroke-linecap:square;"/>
   </g>
   <g id="line2d_103">
    <path clip-path="url(#p3d785c5252)" d="M 425.765346 228.619656 
L 434.189993 228.619656 
L 434.189993 227.153565 
L 425.765346 227.153565 
L 425.765346 228.619656 
" style="fill:none;"/>
    <g clip-path="url(#p3d785c5252)">
     <use style="fill:#bfbf00;stroke:#bfbf00;stroke-linejoin:miter;stroke-width:2;" x="425.765346" xlink:href="#m683113a0c2" y="228.619656"/>
     <use style="fill:#bfbf00;stroke:#bfbf00;stroke-linejoin:miter;stroke-width:2;" x="434.189993" xlink:href="#m683113a0c2" y="228.619656"/>
     <use style="fill:#bfbf00;stroke:#bfbf00;stroke-linejoin:miter;stroke-width:2;" x="434.189993" xlink:href="#m683113a0c2" y="227.153565"/>
     <use style="fill:#bfbf00;stroke:#bfbf00;stroke-linejoin:miter;stroke-width:2;" x="425.765346" xlink:href="#m683113a0c2" y="227.153565"/>
     <use style="fill:#bfbf00;stroke:#bfbf00;stroke-linejoin:miter;stroke-width:2;" x="425.765346" xlink:href="#m683113a0c2" y="228.619656"/>
    </g>
   </g>
   <g id="line2d_104">
    <path clip-path="url(#p3d785c5252)" d="M 425.765346 228.172047 
L 434.189993 228.172047 
" style="fill:none;stroke:#bfbf00;stroke-linecap:square;stroke-width:2;"/>
   </g>
   <g id="line2d_105">
    <path clip-path="url(#p3d785c5252)" d="M 359.398652 226.353737 
L 429.977669 227.858231 
" style="fill:none;stroke:#bfbf00;stroke-linecap:square;stroke-width:4;"/>
   </g>
   <g id="line2d_106">
    <path clip-path="url(#p3d785c5252)" d="M 359.398652 226.353737 
L 429.977669 227.858231 
" style="fill:none;"/>
    <defs>
     <path d="M 0 -10 
L -10 10 
L 10 10 
z
" id="m20b96f1709" style="stroke:#000000;stroke-linejoin:miter;stroke-width:2;"/>
    </defs>
    <g clip-path="url(#p3d785c5252)">
     <use style="fill:#bfbf00;stroke:#000000;stroke-linejoin:miter;stroke-width:2;" x="359.398652" xlink:href="#m20b96f1709" y="226.353737"/>
     <use style="fill:#bfbf00;stroke:#000000;stroke-linejoin:miter;stroke-width:2;" x="429.977669" xlink:href="#m20b96f1709" y="227.858231"/>
    </g>
   </g>
   <g id="line2d_107">
    <path clip-path="url(#p3d785c5252)" d="M 354.584568 222.977802 
L 357.954427 222.054661 
L 354.584568 221.27137 
L 364.212736 221.27137 
L 360.842877 222.054661 
L 364.212736 222.977802 
L 354.584568 222.977802 
" style="fill:none;stroke:#bf00bf;stroke-linecap:square;"/>
   </g>
   <g id="line2d_108">
    <path clip-path="url(#p3d785c5252)" d="M 354.584568 222.977802 
L 364.212736 222.977802 
L 364.212736 221.27137 
L 354.584568 221.27137 
L 354.584568 222.977802 
" style="fill:none;"/>
    <defs>
     <path d="M 0 1.5 
C 0.397805 1.5 0.77937 1.341951 1.06066 1.06066 
C 1.341951 0.77937 1.5 0.397805 1.5 0 
C 1.5 -0.397805 1.341951 -0.77937 1.06066 -1.06066 
C 0.77937 -1.341951 0.397805 -1.5 0 -1.5 
C -0.397805 -1.5 -0.77937 -1.341951 -1.06066 -1.06066 
C -1.341951 -0.77937 -1.5 -0.397805 -1.5 0 
C -1.5 0.397805 -1.341951 0.77937 -1.06066 1.06066 
C -0.77937 1.341951 -0.397805 1.5 0 1.5 
z
" id="md137c94936" style="stroke:#bf00bf;"/>
    </defs>
    <g clip-path="url(#p3d785c5252)">
     <use style="fill:#bf00bf;stroke:#bf00bf;" x="354.584568" xlink:href="#md137c94936" y="222.977802"/>
     <use style="fill:#bf00bf;stroke:#bf00bf;" x="364.212736" xlink:href="#md137c94936" y="222.977802"/>
     <use style="fill:#bf00bf;stroke:#bf00bf;" x="364.212736" xlink:href="#md137c94936" y="221.27137"/>
     <use style="fill:#bf00bf;stroke:#bf00bf;" x="354.584568" xlink:href="#md137c94936" y="221.27137"/>
     <use style="fill:#bf00bf;stroke:#bf00bf;" x="354.584568" xlink:href="#md137c94936" y="222.977802"/>
    </g>
   </g>
   <g id="line2d_109">
    <path clip-path="url(#p3d785c5252)" d="M 354.584568 222.054661 
L 364.212736 222.054661 
" style="fill:none;stroke:#bf00bf;stroke-linecap:square;stroke-width:2;"/>
   </g>
   <g id="line2d_110">
    <path clip-path="url(#p3d785c5252)" d="M 425.163586 223.949885 
L 428.533444 223.296139 
L 425.163586 222.838073 
L 434.791753 222.838073 
L 431.421895 223.296139 
L 434.791753 223.949885 
L 425.163586 223.949885 
" style="fill:none;stroke:#bf00bf;stroke-linecap:square;"/>
   </g>
   <g id="line2d_111">
    <path clip-path="url(#p3d785c5252)" d="M 425.163586 223.949885 
L 434.791753 223.949885 
L 434.791753 222.838073 
L 425.163586 222.838073 
L 425.163586 223.949885 
" style="fill:none;"/>
    <g clip-path="url(#p3d785c5252)">
     <use style="fill:#bf00bf;stroke:#bf00bf;" x="425.163586" xlink:href="#md137c94936" y="223.949885"/>
     <use style="fill:#bf00bf;stroke:#bf00bf;" x="434.791753" xlink:href="#md137c94936" y="223.949885"/>
     <use style="fill:#bf00bf;stroke:#bf00bf;" x="434.791753" xlink:href="#md137c94936" y="222.838073"/>
     <use style="fill:#bf00bf;stroke:#bf00bf;" x="425.163586" xlink:href="#md137c94936" y="222.838073"/>
     <use style="fill:#bf00bf;stroke:#bf00bf;" x="425.163586" xlink:href="#md137c94936" y="223.949885"/>
    </g>
   </g>
   <g id="line2d_112">
    <path clip-path="url(#p3d785c5252)" d="M 425.163586 223.296139 
L 434.791753 223.296139 
" style="fill:none;stroke:#bf00bf;stroke-linecap:square;stroke-width:2;"/>
   </g>
   <g id="line2d_113">
    <path clip-path="url(#p3d785c5252)" d="M 359.398652 222.130397 
L 429.977669 223.401099 
" style="fill:none;stroke:#bf00bf;stroke-linecap:square;stroke-width:4;"/>
   </g>
   <g id="line2d_114">
    <path clip-path="url(#p3d785c5252)" d="M 359.398652 222.130397 
L 429.977669 223.401099 
" style="fill:none;"/>
    <defs>
     <path d="M 0 5 
C 1.326016 5 2.597899 4.473168 3.535534 3.535534 
C 4.473168 2.597899 5 1.326016 5 0 
C 5 -1.326016 4.473168 -2.597899 3.535534 -3.535534 
C 2.597899 -4.473168 1.326016 -5 0 -5 
C -1.326016 -5 -2.597899 -4.473168 -3.535534 -3.535534 
C -4.473168 -2.597899 -5 -1.326016 -5 0 
C -5 1.326016 -4.473168 2.597899 -3.535534 3.535534 
C -2.597899 4.473168 -1.326016 5 0 5 
z
" id="m885538ea24" style="stroke:#bf00bf;"/>
    </defs>
    <g clip-path="url(#p3d785c5252)">
     <use style="fill:#bf00bf;stroke:#bf00bf;" x="359.398652" xlink:href="#m885538ea24" y="222.130397"/>
     <use style="fill:#bf00bf;stroke:#bf00bf;" x="429.977669" xlink:href="#m885538ea24" y="223.401099"/>
    </g>
   </g>
   <g id="line2d_115">
    <path clip-path="url(#p3d785c5252)" d="M 353.982808 221.80627 
L 357.773899 221.017535 
L 353.982808 219.578719 
L 364.814496 219.578719 
L 361.023405 221.017535 
L 364.814496 221.80627 
L 353.982808 221.80627 
" style="fill:none;stroke:#ff0000;stroke-linecap:square;"/>
   </g>
   <g id="line2d_116">
    <path clip-path="url(#p3d785c5252)" d="M 353.982808 221.80627 
L 364.814496 221.80627 
L 364.814496 219.578719 
L 353.982808 219.578719 
L 353.982808 221.80627 
" style="fill:none;"/>
    <defs>
     <path d="M 0 3 
C 0.795609 3 1.55874 2.683901 2.12132 2.12132 
C 2.683901 1.55874 3 0.795609 3 0 
C 3 -0.795609 2.683901 -1.55874 2.12132 -2.12132 
C 1.55874 -2.683901 0.795609 -3 0 -3 
C -0.795609 -3 -1.55874 -2.683901 -2.12132 -2.12132 
C -2.683901 -1.55874 -3 -0.795609 -3 0 
C -3 0.795609 -2.683901 1.55874 -2.12132 2.12132 
C -1.55874 2.683901 -0.795609 3 0 3 
z
" id="m79985ad442" style="stroke:#ff0000;stroke-width:2;"/>
    </defs>
    <g clip-path="url(#p3d785c5252)">
     <use style="fill:#ff0000;stroke:#ff0000;stroke-width:2;" x="353.982808" xlink:href="#m79985ad442" y="221.80627"/>
     <use style="fill:#ff0000;stroke:#ff0000;stroke-width:2;" x="364.814496" xlink:href="#m79985ad442" y="221.80627"/>
     <use style="fill:#ff0000;stroke:#ff0000;stroke-width:2;" x="364.814496" xlink:href="#m79985ad442" y="219.578719"/>
     <use style="fill:#ff0000;stroke:#ff0000;stroke-width:2;" x="353.982808" xlink:href="#m79985ad442" y="219.578719"/>
     <use style="fill:#ff0000;stroke:#ff0000;stroke-width:2;" x="353.982808" xlink:href="#m79985ad442" y="221.80627"/>
    </g>
   </g>
   <g id="line2d_117">
    <path clip-path="url(#p3d785c5252)" d="M 353.982808 221.017535 
L 364.814496 221.017535 
" style="fill:none;stroke:#ff0000;stroke-linecap:square;stroke-width:2;"/>
   </g>
   <g id="line2d_118">
    <path clip-path="url(#p3d785c5252)" d="M 424.561825 222.45922 
L 428.352916 221.855679 
L 424.561825 221.049073 
L 435.393514 221.049073 
L 431.602423 221.855679 
L 435.393514 222.45922 
L 424.561825 222.45922 
" style="fill:none;stroke:#ff0000;stroke-linecap:square;"/>
   </g>
   <g id="line2d_119">
    <path clip-path="url(#p3d785c5252)" d="M 424.561825 222.45922 
L 435.393514 222.45922 
L 435.393514 221.049073 
L 424.561825 221.049073 
L 424.561825 222.45922 
" style="fill:none;"/>
    <g clip-path="url(#p3d785c5252)">
     <use style="fill:#ff0000;stroke:#ff0000;stroke-width:2;" x="424.561825" xlink:href="#m79985ad442" y="222.45922"/>
     <use style="fill:#ff0000;stroke:#ff0000;stroke-width:2;" x="435.393514" xlink:href="#m79985ad442" y="222.45922"/>
     <use style="fill:#ff0000;stroke:#ff0000;stroke-width:2;" x="435.393514" xlink:href="#m79985ad442" y="221.049073"/>
     <use style="fill:#ff0000;stroke:#ff0000;stroke-width:2;" x="424.561825" xlink:href="#m79985ad442" y="221.049073"/>
     <use style="fill:#ff0000;stroke:#ff0000;stroke-width:2;" x="424.561825" xlink:href="#m79985ad442" y="222.45922"/>
    </g>
   </g>
   <g id="line2d_120">
    <path clip-path="url(#p3d785c5252)" d="M 424.561825 221.855679 
L 435.393514 221.855679 
" style="fill:none;stroke:#ff0000;stroke-linecap:square;stroke-width:2;"/>
   </g>
   <g id="line2d_121">
    <path clip-path="url(#p3d785c5252)" d="M 359.398652 220.659724 
L 429.977669 219.533134 
" style="fill:none;stroke:#ff0000;stroke-linecap:square;stroke-width:4;"/>
   </g>
   <g id="line2d_122">
    <path clip-path="url(#p3d785c5252)" d="M 359.398652 220.659724 
L 429.977669 219.533134 
" style="fill:none;"/>
    <defs>
     <path d="M 0 10 
C 2.652031 10 5.195799 8.946337 7.071068 7.071068 
C 8.946337 5.195799 10 2.652031 10 0 
C 10 -2.652031 8.946337 -5.195799 7.071068 -7.071068 
C 5.195799 -8.946337 2.652031 -10 0 -10 
C -2.652031 -10 -5.195799 -8.946337 -7.071068 -7.071068 
C -8.946337 -5.195799 -10 -2.652031 -10 0 
C -10 2.652031 -8.946337 5.195799 -7.071068 7.071068 
C -5.195799 8.946337 -2.652031 10 0 10 
z
" id="m9ebca6c2bd" style="stroke:#000000;stroke-width:2;"/>
    </defs>
    <g clip-path="url(#p3d785c5252)">
     <use style="fill:#ff0000;stroke:#000000;stroke-width:2;" x="359.398652" xlink:href="#m9ebca6c2bd" y="220.659724"/>
     <use style="fill:#ff0000;stroke:#000000;stroke-width:2;" x="429.977669" xlink:href="#m9ebca6c2bd" y="219.533134"/>
    </g>
   </g>
   <g id="line2d_123"/>
   <g id="line2d_124"/>
   <g id="line2d_125"/>
   <g id="line2d_126"/>
   <g id="line2d_127"/>
   <g id="line2d_128"/>
   <g id="line2d_129"/>
   <g id="line2d_130">
    <defs>
     <path d="M -10 10 
L 10 -10 
M -10 -10 
L 10 10 
" id="m80a9960c6e" style="stroke:#ff0000;"/>
    </defs>
    <g clip-path="url(#p3d785c5252)">
     <use style="fill:#ff0000;stroke:#ff0000;" x="81.83083" xlink:href="#m80a9960c6e" y="114.806675"/>
     <use style="fill:#ff0000;stroke:#ff0000;" x="165.066612" xlink:href="#m80a9960c6e" y="116.871791"/>
     <use style="fill:#ff0000;stroke:#ff0000;" x="248.302395" xlink:href="#m80a9960c6e" y="113.839536"/>
     <use style="fill:#ff0000;stroke:#ff0000;" x="322.614407" xlink:href="#m80a9960c6e" y="115.007135"/>
     <use style="fill:#ff0000;stroke:#ff0000;" x="359.398652" xlink:href="#m80a9960c6e" y="129.370978"/>
     <use style="fill:#ff0000;stroke:#ff0000;" x="429.977669" xlink:href="#m80a9960c6e" y="134.829867"/>
    </g>
   </g>
   <g id="line2d_131">
    <path clip-path="url(#p3d785c5252)" d="M 45.368365 346.6 
L 461.8 245.80003 
" style="fill:none;stroke:#000000;stroke-dasharray:0.5,0.825;stroke-dashoffset:0;stroke-width:0.5;"/>
   </g>
   <g id="line2d_132">
    <path clip-path="url(#p3d785c5252)" d="M -1 315.596008 
L 461.8 203.572275 
" style="fill:none;stroke:#000000;stroke-dasharray:0.5,0.825;stroke-dashoffset:0;stroke-width:0.5;"/>
   </g>
   <g id="line2d_133">
    <path clip-path="url(#p3d785c5252)" d="M -1 273.368253 
L 461.8 161.344521 
" style="fill:none;stroke:#000000;stroke-dasharray:0.5,0.825;stroke-dashoffset:0;stroke-width:0.5;"/>
   </g>
   <g id="line2d_134">
    <path clip-path="url(#p3d785c5252)" d="M -1 231.140498 
L 461.8 119.116766 
" style="fill:none;stroke:#000000;stroke-dasharray:0.5,0.825;stroke-dashoffset:0;stroke-width:0.5;"/>
   </g>
   <g id="line2d_135">
    <path clip-path="url(#p3d785c5252)" d="M -1 188.912743 
L 461.8 76.889011 
" style="fill:none;stroke:#000000;stroke-dasharray:0.5,0.825;stroke-dashoffset:0;stroke-width:0.5;"/>
   </g>
   <g id="line2d_136">
    <path clip-path="url(#p3d785c5252)" d="M -1 146.684989 
L 461.8 34.661256 
" style="fill:none;stroke:#000000;stroke-dasharray:0.5,0.825;stroke-dashoffset:0;stroke-width:0.5;"/>
   </g>
   <g id="line2d_137">
    <path clip-path="url(#p3d785c5252)" d="M -1 104.457234 
L 434.672037 -1 
" style="fill:none;stroke:#000000;stroke-dasharray:0.5,0.825;stroke-dashoffset:0;stroke-width:0.5;"/>
   </g>
   <g id="line2d_138">
    <path clip-path="url(#p3d785c5252)" d="M -1 62.229479 
L 260.217888 -1 
" style="fill:none;stroke:#000000;stroke-dasharray:0.5,0.825;stroke-dashoffset:0;stroke-width:0.5;"/>
   </g>
   <g id="line2d_139">
    <path clip-path="url(#p3d785c5252)" d="M -1 20.001724 
L 85.763739 -1 
" style="fill:none;stroke:#000000;stroke-dasharray:0.5,0.825;stroke-dashoffset:0;stroke-width:0.5;"/>
   </g>
   <g id="patch_3">
    <path d="M 46.94 291.28 
L 46.94 27.72 
" style="fill:none;stroke:#000000;stroke-linecap:square;stroke-linejoin:miter;stroke-width:0.8;"/>
   </g>
   <g id="patch_4">
    <path d="M 453.192 291.28 
L 453.192 27.72 
" style="fill:none;stroke:#000000;stroke-linecap:square;stroke-linejoin:miter;stroke-width:0.8;"/>
   </g>
   <g id="patch_5">
    <path d="M 46.94 291.28 
L 453.192 291.28 
" style="fill:none;stroke:#000000;stroke-linecap:square;stroke-linejoin:miter;stroke-width:0.8;"/>
   </g>
   <g id="patch_6">
    <path d="M 46.94 27.72 
L 453.192 27.72 
" style="fill:none;stroke:#000000;stroke-linecap:square;stroke-linejoin:miter;stroke-width:0.8;"/>
   </g>
   <g id="text_13">
    <!-- 2 -->
    <g transform="translate(159.658487 76.608383)scale(0.17 -0.17)">
     <use xlink:href="#DejaVuSans-50"/>
    </g>
   </g>
   <g id="text_14">
    <!-- 7 -->
    <g transform="translate(76.422705 103.120031)scale(0.17 -0.17)">
     <defs>
      <path d="M 8.203125 72.90625 
L 55.078125 72.90625 
L 55.078125 68.703125 
L 28.609375 0 
L 18.3125 0 
L 43.21875 64.59375 
L 8.203125 64.59375 
z
" id="DejaVuSans-55"/>
     </defs>
     <use xlink:href="#DejaVuSans-55"/>
    </g>
   </g>
   <g id="text_15">
    <!-- 2 -->
    <g transform="translate(317.206282 78.138716)scale(0.17 -0.17)">
     <use xlink:href="#DejaVuSans-50"/>
    </g>
   </g>
   <g id="text_16">
    <!-- 15 instances -->
    <g transform="translate(46.94 261.909625)scale(0.12 -0.12)">
     <defs>
      <path d="M 10.796875 72.90625 
L 49.515625 72.90625 
L 49.515625 64.59375 
L 19.828125 64.59375 
L 19.828125 46.734375 
Q 21.96875 47.46875 24.109375 47.828125 
Q 26.265625 48.1875 28.421875 48.1875 
Q 40.625 48.1875 47.75 41.5 
Q 54.890625 34.8125 54.890625 23.390625 
Q 54.890625 11.625 47.5625 5.09375 
Q 40.234375 -1.421875 26.90625 -1.421875 
Q 22.3125 -1.421875 17.546875 -0.640625 
Q 12.796875 0.140625 7.71875 1.703125 
L 7.71875 11.625 
Q 12.109375 9.234375 16.796875 8.0625 
Q 21.484375 6.890625 26.703125 6.890625 
Q 35.15625 6.890625 40.078125 11.328125 
Q 45.015625 15.765625 45.015625 23.390625 
Q 45.015625 31 40.078125 35.4375 
Q 35.15625 39.890625 26.703125 39.890625 
Q 22.75 39.890625 18.8125 39.015625 
Q 14.890625 38.140625 10.796875 36.28125 
z
" id="DejaVuSans-53"/>
     </defs>
     <use xlink:href="#DejaVuSans-49"/>
     <use x="63.623047" xlink:href="#DejaVuSans-53"/>
     <use x="127.246094" xlink:href="#DejaVuSans-32"/>
     <use x="159.033203" xlink:href="#DejaVuSans-105"/>
     <use x="186.816406" xlink:href="#DejaVuSans-110"/>
     <use x="250.195312" xlink:href="#DejaVuSans-115"/>
     <use x="302.294922" xlink:href="#DejaVuSans-116"/>
     <use x="341.503906" xlink:href="#DejaVuSans-97"/>
     <use x="402.783203" xlink:href="#DejaVuSans-110"/>
     <use x="466.162109" xlink:href="#DejaVuSans-99"/>
     <use x="521.142578" xlink:href="#DejaVuSans-101"/>
     <use x="582.666016" xlink:href="#DejaVuSans-115"/>
    </g>
    <!-- absolute targets -->
    <g transform="translate(46.94 275.347)scale(0.12 -0.12)">
     <defs>
      <path d="M 9.421875 75.984375 
L 18.40625 75.984375 
L 18.40625 0 
L 9.421875 0 
z
" id="DejaVuSans-108"/>
     </defs>
     <use xlink:href="#DejaVuSans-97"/>
     <use x="61.279297" xlink:href="#DejaVuSans-98"/>
     <use x="124.755859" xlink:href="#DejaVuSans-115"/>
     <use x="176.855469" xlink:href="#DejaVuSans-111"/>
     <use x="238.037109" xlink:href="#DejaVuSans-108"/>
     <use x="265.820312" xlink:href="#DejaVuSans-117"/>
     <use x="329.199219" xlink:href="#DejaVuSans-116"/>
     <use x="368.408203" xlink:href="#DejaVuSans-101"/>
     <use x="429.931641" xlink:href="#DejaVuSans-32"/>
     <use x="461.71875" xlink:href="#DejaVuSans-116"/>
     <use x="500.927734" xlink:href="#DejaVuSans-97"/>
     <use x="562.207031" xlink:href="#DejaVuSans-114"/>
     <use x="601.570312" xlink:href="#DejaVuSans-103"/>
     <use x="665.046875" xlink:href="#DejaVuSans-101"/>
     <use x="726.570312" xlink:href="#DejaVuSans-116"/>
     <use x="765.779297" xlink:href="#DejaVuSans-115"/>
    </g>
    <!-- evals = f-evals + g-evals -->
    <g transform="translate(46.94 288.784375)scale(0.12 -0.12)">
     <defs>
      <path d="M 2.984375 54.6875 
L 12.5 54.6875 
L 29.59375 8.796875 
L 46.6875 54.6875 
L 56.203125 54.6875 
L 35.6875 0 
L 23.484375 0 
z
" id="DejaVuSans-118"/>
      <path d="M 10.59375 45.40625 
L 73.1875 45.40625 
L 73.1875 37.203125 
L 10.59375 37.203125 
z
M 10.59375 25.484375 
L 73.1875 25.484375 
L 73.1875 17.1875 
L 10.59375 17.1875 
z
" id="DejaVuSans-61"/>
      <path d="M 4.890625 31.390625 
L 31.203125 31.390625 
L 31.203125 23.390625 
L 4.890625 23.390625 
z
" id="DejaVuSans-45"/>
      <path d="M 46 62.703125 
L 46 35.5 
L 73.1875 35.5 
L 73.1875 27.203125 
L 46 27.203125 
L 46 0 
L 37.796875 0 
L 37.796875 27.203125 
L 10.59375 27.203125 
L 10.59375 35.5 
L 37.796875 35.5 
L 37.796875 62.703125 
z
" id="DejaVuSans-43"/>
     </defs>
     <use xlink:href="#DejaVuSans-101"/>
     <use x="61.523438" xlink:href="#DejaVuSans-118"/>
     <use x="120.703125" xlink:href="#DejaVuSans-97"/>
     <use x="181.982422" xlink:href="#DejaVuSans-108"/>
     <use x="209.765625" xlink:href="#DejaVuSans-115"/>
     <use x="261.865234" xlink:href="#DejaVuSans-32"/>
     <use x="293.652344" xlink:href="#DejaVuSans-61"/>
     <use x="377.441406" xlink:href="#DejaVuSans-32"/>
     <use x="409.228516" xlink:href="#DejaVuSans-102"/>
     <use x="438.933594" xlink:href="#DejaVuSans-45"/>
     <use x="475.017578" xlink:href="#DejaVuSans-101"/>
     <use x="536.541016" xlink:href="#DejaVuSans-118"/>
     <use x="595.720703" xlink:href="#DejaVuSans-97"/>
     <use x="657" xlink:href="#DejaVuSans-108"/>
     <use x="684.783203" xlink:href="#DejaVuSans-115"/>
     <use x="736.882812" xlink:href="#DejaVuSans-32"/>
     <use x="768.669922" xlink:href="#DejaVuSans-43"/>
     <use x="852.458984" xlink:href="#DejaVuSans-32"/>
     <use x="884.246094" xlink:href="#DejaVuSans-103"/>
     <use x="947.722656" xlink:href="#DejaVuSans-45"/>
     <use x="983.806641" xlink:href="#DejaVuSans-101"/>
     <use x="1045.330078" xlink:href="#DejaVuSans-118"/>
     <use x="1104.509766" xlink:href="#DejaVuSans-97"/>
     <use x="1165.789062" xlink:href="#DejaVuSans-108"/>
     <use x="1193.572266" xlink:href="#DejaVuSans-115"/>
    </g>
   </g>
   <g id="text_17">
    <!-- v2.4.153 -->
    <g style="fill:#808080;" transform="translate(228.02225 286.564712)scale(0.1 -0.1)">
     <defs>
      <path d="M 10.6875 12.40625 
L 21 12.40625 
L 21 0 
L 10.6875 0 
z
" id="DejaVuSans-46"/>
     </defs>
     <use xlink:href="#DejaVuSans-118"/>
     <use x="59.179688" xlink:href="#DejaVuSans-50"/>
     <use x="122.802734" xlink:href="#DejaVuSans-46"/>
     <use x="154.589844" xlink:href="#DejaVuSans-52"/>
     <use x="218.212891" xlink:href="#DejaVuSans-46"/>
     <use x="250" xlink:href="#DejaVuSans-49"/>
     <use x="313.623047" xlink:href="#DejaVuSans-53"/>
     <use x="377.246094" xlink:href="#DejaVuSans-51"/>
    </g>
   </g>
   <g id="text_18">
    <!-- Separable Ellipsoid, 20-D -->
    <g transform="translate(99.441625 21.72)scale(0.24 -0.24)">
     <defs>
      <path d="M 53.515625 70.515625 
L 53.515625 60.890625 
Q 47.90625 63.578125 42.921875 64.890625 
Q 37.9375 66.21875 33.296875 66.21875 
Q 25.25 66.21875 20.875 63.09375 
Q 16.5 59.96875 16.5 54.203125 
Q 16.5 49.359375 19.40625 46.890625 
Q 22.3125 44.4375 30.421875 42.921875 
L 36.375 41.703125 
Q 47.40625 39.59375 52.65625 34.296875 
Q 57.90625 29 57.90625 20.125 
Q 57.90625 9.515625 50.796875 4.046875 
Q 43.703125 -1.421875 29.984375 -1.421875 
Q 24.8125 -1.421875 18.96875 -0.25 
Q 13.140625 0.921875 6.890625 3.21875 
L 6.890625 13.375 
Q 12.890625 10.015625 18.65625 8.296875 
Q 24.421875 6.59375 29.984375 6.59375 
Q 38.421875 6.59375 43.015625 9.90625 
Q 47.609375 13.234375 47.609375 19.390625 
Q 47.609375 24.75 44.3125 27.78125 
Q 41.015625 30.8125 33.5 32.328125 
L 27.484375 33.5 
Q 16.453125 35.6875 11.515625 40.375 
Q 6.59375 45.0625 6.59375 53.421875 
Q 6.59375 63.09375 13.40625 68.65625 
Q 20.21875 74.21875 32.171875 74.21875 
Q 37.3125 74.21875 42.625 73.28125 
Q 47.953125 72.359375 53.515625 70.515625 
z
" id="DejaVuSans-83"/>
      <path d="M 18.109375 8.203125 
L 18.109375 -20.796875 
L 9.078125 -20.796875 
L 9.078125 54.6875 
L 18.109375 54.6875 
L 18.109375 46.390625 
Q 20.953125 51.265625 25.265625 53.625 
Q 29.59375 56 35.59375 56 
Q 45.5625 56 51.78125 48.09375 
Q 58.015625 40.1875 58.015625 27.296875 
Q 58.015625 14.40625 51.78125 6.484375 
Q 45.5625 -1.421875 35.59375 -1.421875 
Q 29.59375 -1.421875 25.265625 0.953125 
Q 20.953125 3.328125 18.109375 8.203125 
z
M 48.6875 27.296875 
Q 48.6875 37.203125 44.609375 42.84375 
Q 40.53125 48.484375 33.40625 48.484375 
Q 26.265625 48.484375 22.1875 42.84375 
Q 18.109375 37.203125 18.109375 27.296875 
Q 18.109375 17.390625 22.1875 11.75 
Q 26.265625 6.109375 33.40625 6.109375 
Q 40.53125 6.109375 44.609375 11.75 
Q 48.6875 17.390625 48.6875 27.296875 
z
" id="DejaVuSans-112"/>
      <path d="M 9.8125 72.90625 
L 55.90625 72.90625 
L 55.90625 64.59375 
L 19.671875 64.59375 
L 19.671875 43.015625 
L 54.390625 43.015625 
L 54.390625 34.71875 
L 19.671875 34.71875 
L 19.671875 8.296875 
L 56.78125 8.296875 
L 56.78125 0 
L 9.8125 0 
z
" id="DejaVuSans-69"/>
      <path d="M 45.40625 46.390625 
L 45.40625 75.984375 
L 54.390625 75.984375 
L 54.390625 0 
L 45.40625 0 
L 45.40625 8.203125 
Q 42.578125 3.328125 38.25 0.953125 
Q 33.9375 -1.421875 27.875 -1.421875 
Q 17.96875 -1.421875 11.734375 6.484375 
Q 5.515625 14.40625 5.515625 27.296875 
Q 5.515625 40.1875 11.734375 48.09375 
Q 17.96875 56 27.875 56 
Q 33.9375 56 38.25 53.625 
Q 42.578125 51.265625 45.40625 46.390625 
z
M 14.796875 27.296875 
Q 14.796875 17.390625 18.875 11.75 
Q 22.953125 6.109375 30.078125 6.109375 
Q 37.203125 6.109375 41.296875 11.75 
Q 45.40625 17.390625 45.40625 27.296875 
Q 45.40625 37.203125 41.296875 42.84375 
Q 37.203125 48.484375 30.078125 48.484375 
Q 22.953125 48.484375 18.875 42.84375 
Q 14.796875 37.203125 14.796875 27.296875 
z
" id="DejaVuSans-100"/>
      <path d="M 11.71875 12.40625 
L 22.015625 12.40625 
L 22.015625 4 
L 14.015625 -11.625 
L 7.71875 -11.625 
L 11.71875 4 
z
" id="DejaVuSans-44"/>
     </defs>
     <use xlink:href="#DejaVuSans-83"/>
     <use x="63.476562" xlink:href="#DejaVuSans-101"/>
     <use x="125" xlink:href="#DejaVuSans-112"/>
     <use x="188.476562" xlink:href="#DejaVuSans-97"/>
     <use x="249.755859" xlink:href="#DejaVuSans-114"/>
     <use x="290.869141" xlink:href="#DejaVuSans-97"/>
     <use x="352.148438" xlink:href="#DejaVuSans-98"/>
     <use x="415.625" xlink:href="#DejaVuSans-108"/>
     <use x="443.408203" xlink:href="#DejaVuSans-101"/>
     <use x="504.931641" xlink:href="#DejaVuSans-32"/>
     <use x="536.71875" xlink:href="#DejaVuSans-69"/>
     <use x="599.902344" xlink:href="#DejaVuSans-108"/>
     <use x="627.685547" xlink:href="#DejaVuSans-108"/>
     <use x="655.46875" xlink:href="#DejaVuSans-105"/>
     <use x="683.251953" xlink:href="#DejaVuSans-112"/>
     <use x="746.728516" xlink:href="#DejaVuSans-115"/>
     <use x="798.828125" xlink:href="#DejaVuSans-111"/>
     <use x="860.009766" xlink:href="#DejaVuSans-105"/>
     <use x="887.792969" xlink:href="#DejaVuSans-100"/>
     <use x="951.269531" xlink:href="#DejaVuSans-44"/>
     <use x="983.056641" xlink:href="#DejaVuSans-32"/>
     <use x="1014.84375" xlink:href="#DejaVuSans-50"/>
     <use x="1078.466797" xlink:href="#DejaVuSans-48"/>
     <use x="1142.089844" xlink:href="#DejaVuSans-45"/>
     <use x="1178.173828" xlink:href="#DejaVuSans-68"/>
    </g>
   </g>
  </g>
 </g>
 <defs>
  <clipPath id="p3d785c5252">
   <rect height="263.56" width="406.252" x="46.94" y="27.72"/>
  </clipPath>
 </defs>
</svg>
