<?xml version="1.0" encoding="utf-8" standalone="no"?>
<!DOCTYPE svg PUBLIC "-//W3C//DTD SVG 1.1//EN"
  "http://www.w3.org/Graphics/SVG/1.1/DTD/svg11.dtd">
<!-- Created with matplotlib (https://matplotlib.org/) -->
<svg height="345.6pt" version="1.1" viewBox="0 0 460.8 345.6" width="460.8pt" xmlns="http://www.w3.org/2000/svg" xmlns:xlink="http://www.w3.org/1999/xlink">
 <metadata>
  <rdf:RDF xmlns:cc="http://creativecommons.org/ns#" xmlns:dc="http://purl.org/dc/elements/1.1/" xmlns:rdf="http://www.w3.org/1999/02/22-rdf-syntax-ns#">
   <cc:Work>
    <dc:type rdf:resource="http://purl.org/dc/dcmitype/StillImage"/>
    <dc:date>2022-02-09T10:44:03.981357</dc:date>
    <dc:format>image/svg+xml</dc:format>
    <dc:creator>
     <cc:Agent>
      <dc:title>Matplotlib v3.3.3, https://matplotlib.org/</dc:title>
     </cc:Agent>
    </dc:creator>
   </cc:Work>
  </rdf:RDF>
 </metadata>
 <defs>
  <style type="text/css">*{stroke-linecap:butt;stroke-linejoin:round;}</style>
 </defs>
 <g id="figure_1">
  <g id="patch_1">
   <path d="M 0 345.6 
L 460.8 345.6 
L 460.8 0 
L 0 0 
z
" style="fill:#ffffff;"/>
  </g>
  <g id="axes_1">
   <g id="patch_2">
    <path d="M 0 293.76 
L 460.8 293.76 
L 460.8 3.456 
L 0 3.456 
z
" style="fill:#ffffff;"/>
   </g>
   <g id="matplotlib.axis_1">
    <g id="xtick_1">
     <g id="line2d_1">
      <path clip-path="url(#pb2b318cb80)" d="M 103.741236 293.76 
L 103.741236 3.456 
" style="fill:none;stroke:#b0b0b0;stroke-linecap:square;stroke-width:0.8;"/>
     </g>
     <g id="line2d_2">
      <defs>
       <path d="M 0 0 
L 0 3.5 
" id="m3540b6bb1d" style="stroke:#000000;stroke-width:0.8;"/>
      </defs>
      <g>
       <use style="stroke:#000000;stroke-width:0.8;" x="103.741236" xlink:href="#m3540b6bb1d" y="293.76"/>
      </g>
     </g>
     <g id="text_1">
      <!-- -5 -->
      <g transform="translate(93.770924 315.956875)scale(0.2 -0.2)">
       <defs>
        <path d="M 4.890625 31.390625 
L 31.203125 31.390625 
L 31.203125 23.390625 
L 4.890625 23.390625 
z
" id="DejaVuSans-45"/>
        <path d="M 10.796875 72.90625 
L 49.515625 72.90625 
L 49.515625 64.59375 
L 19.828125 64.59375 
L 19.828125 46.734375 
Q 21.96875 47.46875 24.109375 47.828125 
Q 26.265625 48.1875 28.421875 48.1875 
Q 40.625 48.1875 47.75 41.5 
Q 54.890625 34.8125 54.890625 23.390625 
Q 54.890625 11.625 47.5625 5.09375 
Q 40.234375 -1.421875 26.90625 -1.421875 
Q 22.3125 -1.421875 17.546875 -0.640625 
Q 12.796875 0.140625 7.71875 1.703125 
L 7.71875 11.625 
Q 12.109375 9.234375 16.796875 8.0625 
Q 21.484375 6.890625 26.703125 6.890625 
Q 35.15625 6.890625 40.078125 11.328125 
Q 45.015625 15.765625 45.015625 23.390625 
Q 45.015625 31 40.078125 35.4375 
Q 35.15625 39.890625 26.703125 39.890625 
Q 22.75 39.890625 18.8125 39.015625 
Q 14.890625 38.140625 10.796875 36.28125 
z
" id="DejaVuSans-53"/>
       </defs>
       <use xlink:href="#DejaVuSans-45"/>
       <use x="36.083984" xlink:href="#DejaVuSans-53"/>
      </g>
     </g>
    </g>
    <g id="xtick_2">
     <g id="line2d_3">
      <path clip-path="url(#pb2b318cb80)" d="M 207.632123 293.76 
L 207.632123 3.456 
" style="fill:none;stroke:#b0b0b0;stroke-linecap:square;stroke-width:0.8;"/>
     </g>
     <g id="line2d_4">
      <g>
       <use style="stroke:#000000;stroke-width:0.8;" x="207.632123" xlink:href="#m3540b6bb1d" y="293.76"/>
      </g>
     </g>
     <g id="text_2">
      <!-- -2 -->
      <g transform="translate(197.66181 315.956875)scale(0.2 -0.2)">
       <defs>
        <path d="M 19.1875 8.296875 
L 53.609375 8.296875 
L 53.609375 0 
L 7.328125 0 
L 7.328125 8.296875 
Q 12.9375 14.109375 22.625 23.890625 
Q 32.328125 33.6875 34.8125 36.53125 
Q 39.546875 41.84375 41.421875 45.53125 
Q 43.3125 49.21875 43.3125 52.78125 
Q 43.3125 58.59375 39.234375 62.25 
Q 35.15625 65.921875 28.609375 65.921875 
Q 23.96875 65.921875 18.8125 64.3125 
Q 13.671875 62.703125 7.8125 59.421875 
L 7.8125 69.390625 
Q 13.765625 71.78125 18.9375 73 
Q 24.125 74.21875 28.421875 74.21875 
Q 39.75 74.21875 46.484375 68.546875 
Q 53.21875 62.890625 53.21875 53.421875 
Q 53.21875 48.921875 51.53125 44.890625 
Q 49.859375 40.875 45.40625 35.40625 
Q 44.1875 33.984375 37.640625 27.21875 
Q 31.109375 20.453125 19.1875 8.296875 
z
" id="DejaVuSans-50"/>
       </defs>
       <use xlink:href="#DejaVuSans-45"/>
       <use x="36.083984" xlink:href="#DejaVuSans-50"/>
      </g>
     </g>
    </g>
    <g id="xtick_3">
     <g id="line2d_5">
      <path clip-path="url(#pb2b318cb80)" d="M 311.523009 293.76 
L 311.523009 3.456 
" style="fill:none;stroke:#b0b0b0;stroke-linecap:square;stroke-width:0.8;"/>
     </g>
     <g id="line2d_6">
      <g>
       <use style="stroke:#000000;stroke-width:0.8;" x="311.523009" xlink:href="#m3540b6bb1d" y="293.76"/>
      </g>
     </g>
     <g id="text_3">
      <!-- 1 -->
      <g transform="translate(305.160509 315.956875)scale(0.2 -0.2)">
       <defs>
        <path d="M 12.40625 8.296875 
L 28.515625 8.296875 
L 28.515625 63.921875 
L 10.984375 60.40625 
L 10.984375 69.390625 
L 28.421875 72.90625 
L 38.28125 72.90625 
L 38.28125 8.296875 
L 54.390625 8.296875 
L 54.390625 0 
L 12.40625 0 
z
" id="DejaVuSans-49"/>
       </defs>
       <use xlink:href="#DejaVuSans-49"/>
      </g>
     </g>
    </g>
    <g id="xtick_4">
     <g id="line2d_7">
      <path clip-path="url(#pb2b318cb80)" d="M 415.413896 293.76 
L 415.413896 3.456 
" style="fill:none;stroke:#b0b0b0;stroke-linecap:square;stroke-width:0.8;"/>
     </g>
     <g id="line2d_8">
      <g>
       <use style="stroke:#000000;stroke-width:0.8;" x="415.413896" xlink:href="#m3540b6bb1d" y="293.76"/>
      </g>
     </g>
     <g id="text_4">
      <!-- 4 -->
      <g transform="translate(409.051396 315.956875)scale(0.2 -0.2)">
       <defs>
        <path d="M 37.796875 64.3125 
L 12.890625 25.390625 
L 37.796875 25.390625 
z
M 35.203125 72.90625 
L 47.609375 72.90625 
L 47.609375 25.390625 
L 58.015625 25.390625 
L 58.015625 17.1875 
L 47.609375 17.1875 
L 47.609375 0 
L 37.796875 0 
L 37.796875 17.1875 
L 4.890625 17.1875 
L 4.890625 26.703125 
z
" id="DejaVuSans-52"/>
       </defs>
       <use xlink:href="#DejaVuSans-52"/>
      </g>
     </g>
    </g>
    <g id="text_5">
     <!-- log10 of Df -->
     <g transform="translate(175.214063 339.313125)scale(0.2 -0.2)">
      <defs>
       <path d="M 9.421875 75.984375 
L 18.40625 75.984375 
L 18.40625 0 
L 9.421875 0 
z
" id="DejaVuSans-108"/>
       <path d="M 30.609375 48.390625 
Q 23.390625 48.390625 19.1875 42.75 
Q 14.984375 37.109375 14.984375 27.296875 
Q 14.984375 17.484375 19.15625 11.84375 
Q 23.34375 6.203125 30.609375 6.203125 
Q 37.796875 6.203125 41.984375 11.859375 
Q 46.1875 17.53125 46.1875 27.296875 
Q 46.1875 37.015625 41.984375 42.703125 
Q 37.796875 48.390625 30.609375 48.390625 
z
M 30.609375 56 
Q 42.328125 56 49.015625 48.375 
Q 55.71875 40.765625 55.71875 27.296875 
Q 55.71875 13.875 49.015625 6.21875 
Q 42.328125 -1.421875 30.609375 -1.421875 
Q 18.84375 -1.421875 12.171875 6.21875 
Q 5.515625 13.875 5.515625 27.296875 
Q 5.515625 40.765625 12.171875 48.375 
Q 18.84375 56 30.609375 56 
z
" id="DejaVuSans-111"/>
       <path d="M 45.40625 27.984375 
Q 45.40625 37.75 41.375 43.109375 
Q 37.359375 48.484375 30.078125 48.484375 
Q 22.859375 48.484375 18.828125 43.109375 
Q 14.796875 37.75 14.796875 27.984375 
Q 14.796875 18.265625 18.828125 12.890625 
Q 22.859375 7.515625 30.078125 7.515625 
Q 37.359375 7.515625 41.375 12.890625 
Q 45.40625 18.265625 45.40625 27.984375 
z
M 54.390625 6.78125 
Q 54.390625 -7.171875 48.1875 -13.984375 
Q 42 -20.796875 29.203125 -20.796875 
Q 24.46875 -20.796875 20.265625 -20.09375 
Q 16.0625 -19.390625 12.109375 -17.921875 
L 12.109375 -9.1875 
Q 16.0625 -11.328125 19.921875 -12.34375 
Q 23.78125 -13.375 27.78125 -13.375 
Q 36.625 -13.375 41.015625 -8.765625 
Q 45.40625 -4.15625 45.40625 5.171875 
L 45.40625 9.625 
Q 42.625 4.78125 38.28125 2.390625 
Q 33.9375 0 27.875 0 
Q 17.828125 0 11.671875 7.65625 
Q 5.515625 15.328125 5.515625 27.984375 
Q 5.515625 40.671875 11.671875 48.328125 
Q 17.828125 56 27.875 56 
Q 33.9375 56 38.28125 53.609375 
Q 42.625 51.21875 45.40625 46.390625 
L 45.40625 54.6875 
L 54.390625 54.6875 
z
" id="DejaVuSans-103"/>
       <path d="M 31.78125 66.40625 
Q 24.171875 66.40625 20.328125 58.90625 
Q 16.5 51.421875 16.5 36.375 
Q 16.5 21.390625 20.328125 13.890625 
Q 24.171875 6.390625 31.78125 6.390625 
Q 39.453125 6.390625 43.28125 13.890625 
Q 47.125 21.390625 47.125 36.375 
Q 47.125 51.421875 43.28125 58.90625 
Q 39.453125 66.40625 31.78125 66.40625 
z
M 31.78125 74.21875 
Q 44.046875 74.21875 50.515625 64.515625 
Q 56.984375 54.828125 56.984375 36.375 
Q 56.984375 17.96875 50.515625 8.265625 
Q 44.046875 -1.421875 31.78125 -1.421875 
Q 19.53125 -1.421875 13.0625 8.265625 
Q 6.59375 17.96875 6.59375 36.375 
Q 6.59375 54.828125 13.0625 64.515625 
Q 19.53125 74.21875 31.78125 74.21875 
z
" id="DejaVuSans-48"/>
       <path id="DejaVuSans-32"/>
       <path d="M 37.109375 75.984375 
L 37.109375 68.5 
L 28.515625 68.5 
Q 23.6875 68.5 21.796875 66.546875 
Q 19.921875 64.59375 19.921875 59.515625 
L 19.921875 54.6875 
L 34.71875 54.6875 
L 34.71875 47.703125 
L 19.921875 47.703125 
L 19.921875 0 
L 10.890625 0 
L 10.890625 47.703125 
L 2.296875 47.703125 
L 2.296875 54.6875 
L 10.890625 54.6875 
L 10.890625 58.5 
Q 10.890625 67.625 15.140625 71.796875 
Q 19.390625 75.984375 28.609375 75.984375 
z
" id="DejaVuSans-102"/>
       <path d="M 19.671875 64.796875 
L 19.671875 8.109375 
L 31.59375 8.109375 
Q 46.6875 8.109375 53.6875 14.9375 
Q 60.6875 21.78125 60.6875 36.53125 
Q 60.6875 51.171875 53.6875 57.984375 
Q 46.6875 64.796875 31.59375 64.796875 
z
M 9.8125 72.90625 
L 30.078125 72.90625 
Q 51.265625 72.90625 61.171875 64.09375 
Q 71.09375 55.28125 71.09375 36.53125 
Q 71.09375 17.671875 61.125 8.828125 
Q 51.171875 0 30.078125 0 
L 9.8125 0 
z
" id="DejaVuSans-68"/>
      </defs>
      <use xlink:href="#DejaVuSans-108"/>
      <use x="27.783203" xlink:href="#DejaVuSans-111"/>
      <use x="88.964844" xlink:href="#DejaVuSans-103"/>
      <use x="152.441406" xlink:href="#DejaVuSans-49"/>
      <use x="216.064453" xlink:href="#DejaVuSans-48"/>
      <use x="279.6875" xlink:href="#DejaVuSans-32"/>
      <use x="311.474609" xlink:href="#DejaVuSans-111"/>
      <use x="372.65625" xlink:href="#DejaVuSans-102"/>
      <use x="407.861328" xlink:href="#DejaVuSans-32"/>
      <use x="439.648438" xlink:href="#DejaVuSans-68"/>
      <use x="516.650391" xlink:href="#DejaVuSans-102"/>
     </g>
    </g>
   </g>
   <g id="matplotlib.axis_2">
    <g id="ytick_1">
     <g id="line2d_9">
      <path clip-path="url(#pb2b318cb80)" d="M 0 293.76 
L 460.8 293.76 
" style="fill:none;stroke:#b0b0b0;stroke-linecap:square;stroke-width:0.8;"/>
     </g>
     <g id="line2d_10">
      <defs>
       <path d="M 0 0 
L -3.5 0 
" id="m7fa71b6276" style="stroke:#000000;stroke-width:0.8;"/>
      </defs>
      <g>
       <use style="stroke:#000000;stroke-width:0.8;" x="0" xlink:href="#m7fa71b6276" y="293.76"/>
      </g>
     </g>
    </g>
    <g id="ytick_2">
     <g id="line2d_11">
      <path clip-path="url(#pb2b318cb80)" d="M 0 236.274059 
L 460.8 236.274059 
" style="fill:none;stroke:#b0b0b0;stroke-linecap:square;stroke-width:0.8;"/>
     </g>
     <g id="line2d_12">
      <g>
       <use style="stroke:#000000;stroke-width:0.8;" x="0" xlink:href="#m7fa71b6276" y="236.274059"/>
      </g>
     </g>
    </g>
    <g id="ytick_3">
     <g id="line2d_13">
      <path clip-path="url(#pb2b318cb80)" d="M 0 178.788119 
L 460.8 178.788119 
" style="fill:none;stroke:#b0b0b0;stroke-linecap:square;stroke-width:0.8;"/>
     </g>
     <g id="line2d_14">
      <g>
       <use style="stroke:#000000;stroke-width:0.8;" x="0" xlink:href="#m7fa71b6276" y="178.788119"/>
      </g>
     </g>
    </g>
    <g id="ytick_4">
     <g id="line2d_15">
      <path clip-path="url(#pb2b318cb80)" d="M 0 121.302178 
L 460.8 121.302178 
" style="fill:none;stroke:#b0b0b0;stroke-linecap:square;stroke-width:0.8;"/>
     </g>
     <g id="line2d_16">
      <g>
       <use style="stroke:#000000;stroke-width:0.8;" x="0" xlink:href="#m7fa71b6276" y="121.302178"/>
      </g>
     </g>
    </g>
    <g id="ytick_5">
     <g id="line2d_17">
      <path clip-path="url(#pb2b318cb80)" d="M 0 63.816238 
L 460.8 63.816238 
" style="fill:none;stroke:#b0b0b0;stroke-linecap:square;stroke-width:0.8;"/>
     </g>
     <g id="line2d_18">
      <g>
       <use style="stroke:#000000;stroke-width:0.8;" x="0" xlink:href="#m7fa71b6276" y="63.816238"/>
      </g>
     </g>
    </g>
    <g id="ytick_6">
     <g id="line2d_19">
      <path clip-path="url(#pb2b318cb80)" d="M 0 6.330297 
L 460.8 6.330297 
" style="fill:none;stroke:#b0b0b0;stroke-linecap:square;stroke-width:0.8;"/>
     </g>
     <g id="line2d_20">
      <g>
       <use style="stroke:#000000;stroke-width:0.8;" x="0" xlink:href="#m7fa71b6276" y="6.330297"/>
      </g>
     </g>
    </g>
   </g>
   <g id="line2d_21">
    <path clip-path="url(#pb2b318cb80)" d="M -1 193.691881 
L -0.43775 193.691881 
L -0.43775 191.562772 
L 2.087459 191.562772 
L 2.087459 189.433663 
L 2.619024 189.433663 
L 2.619024 187.304554 
L 3.268868 187.304554 
L 3.268868 185.175446 
L 4.47467 185.175446 
L 4.47467 183.046337 
L 4.949435 183.046337 
L 4.949435 180.917228 
L 7.45414 180.917228 
L 7.45414 178.788119 
L 9.337371 178.788119 
L 9.337371 176.65901 
L 9.923039 176.65901 
L 9.923039 174.529901 
L 10.721945 174.529901 
L 10.721945 172.400792 
L 14.176978 172.400792 
L 14.176978 170.271683 
L 15.484424 170.271683 
L 15.484424 168.142574 
L 17.946141 168.142574 
L 17.946141 166.013465 
L 19.445212 166.013465 
L 19.531805 159.626139 
L 19.854293 159.626139 
L 19.854293 157.49703 
L 37.932676 157.49703 
L 37.932676 155.367921 
L 40.113404 155.367921 
L 40.113404 153.238812 
L 51.276489 153.238812 
L 51.276489 151.109703 
L 69.110941 151.109703 
L 69.110941 55.299802 
L 271.320236 55.299802 
L 271.320236 53.170693 
L 274.729072 53.170693 
L 274.729072 51.041584 
L 361.209528 51.041584 
L 361.209528 48.912475 
L 363.326955 48.912475 
L 363.326955 46.783366 
L 363.644526 46.783366 
L 363.70016 42.525149 
L 364.696564 42.525149 
L 364.696564 40.39604 
L 365.062776 40.39604 
L 365.062776 38.266931 
L 365.641957 38.266931 
L 365.641957 36.137822 
L 366.26346 36.137822 
L 366.26346 34.008713 
L 367.276896 34.008713 
L 367.276896 31.879604 
L 368.236119 31.879604 
L 368.236119 29.750495 
L 368.43168 29.750495 
L 368.43168 27.621386 
L 368.97792 27.621386 
L 368.97792 25.492277 
L 369.48666 25.492277 
L 369.48666 23.363168 
L 369.778942 23.363168 
L 369.798762 19.10495 
L 372.04612 19.10495 
L 372.04612 16.975842 
L 373.149309 16.975842 
L 373.149309 14.846733 
L 374.22046 14.846733 
L 374.22046 12.717624 
L 374.596074 12.717624 
L 374.596074 10.588515 
L 376.153058 10.588515 
L 376.153058 8.459406 
L 377.293688 8.459406 
L 377.293688 6.330297 
L 377.293688 6.330297 
L 460.8 6.330297 
L 460.8 6.330297 
" style="fill:none;stroke:#ff0000;stroke-linecap:square;stroke-width:3;"/>
   </g>
   <g id="line2d_22">
    <path clip-path="url(#pb2b318cb80)" d="M 352.750389 293.76 
L 352.750389 291.630891 
L 356.872693 291.630891 
L 356.872693 289.501782 
L 357.126754 289.501782 
L 357.126754 287.372673 
L 357.767315 287.372673 
L 357.767315 285.243564 
L 357.999337 285.243564 
L 357.999337 283.114455 
L 358.546656 283.114455 
L 358.546656 280.985347 
L 362.074589 280.985347 
L 362.074589 278.856238 
L 363.791945 278.856238 
L 363.791945 276.727129 
L 365.728768 276.727129 
L 365.728768 274.59802 
L 367.363563 274.59802 
L 367.363563 272.468911 
L 369.054017 272.468911 
L 369.054017 270.339802 
L 369.196141 270.339802 
L 369.196141 268.210693 
L 369.868685 268.210693 
L 369.868685 266.081584 
L 373.819941 266.081584 
L 373.819941 263.952475 
L 374.912941 263.952475 
L 374.996809 259.694257 
L 375.077576 259.694257 
L 375.125966 255.43604 
L 376.11249 255.43604 
L 376.137502 251.177822 
L 376.825017 251.177822 
L 376.825017 249.048713 
L 377.230223 249.048713 
L 377.230223 246.919604 
L 378.441691 246.919604 
L 378.441691 244.790495 
L 379.75524 244.790495 
L 379.75524 242.661386 
L 379.889824 242.661386 
L 379.996786 236.274059 
L 380.28756 236.274059 
L 380.28756 234.14495 
L 381.576615 234.14495 
L 381.600079 229.886733 
L 382.504788 229.886733 
L 382.538015 225.628515 
L 382.618153 225.628515 
L 382.618153 223.499406 
L 382.953353 223.499406 
L 382.953353 221.370297 
L 383.587162 221.370297 
L 383.587162 219.241188 
L 383.73181 219.241188 
L 383.759961 214.98297 
L 384.268459 214.98297 
L 384.376591 210.724752 
L 384.745369 210.724752 
L 384.745369 208.595644 
L 385.765202 208.595644 
L 385.765202 206.466535 
L 386.122503 206.466535 
L 386.122503 204.337426 
L 386.895748 204.337426 
L 386.976965 200.079208 
L 387.670199 200.079208 
L 387.670199 197.950099 
L 387.968396 197.950099 
L 387.968396 195.82099 
L 388.585849 195.82099 
L 388.619408 191.562772 
L 388.810757 191.562772 
L 388.810757 189.433663 
L 389.179021 189.433663 
L 389.179021 187.304554 
L 389.589567 187.304554 
L 389.656924 183.046337 
L 389.746287 183.046337 
L 389.746287 180.917228 
L 390.014906 180.917228 
L 390.014906 178.788119 
L 390.385453 178.788119 
L 390.409018 174.529901 
L 392.705176 174.529901 
L 392.705176 172.400792 
L 392.962138 172.400792 
L 392.962138 170.271683 
L 393.167662 170.271683 
L 393.167662 168.142574 
L 393.638192 168.142574 
L 393.638192 166.013465 
L 393.914273 166.013465 
L 393.914273 163.884356 
L 394.075938 163.884356 
L 394.075938 161.755248 
L 394.340178 161.755248 
L 394.37238 157.49703 
L 394.505112 157.49703 
L 394.505112 155.367921 
L 394.758411 155.367921 
L 394.795546 151.109703 
L 395.266082 151.109703 
L 395.266082 148.980594 
L 395.518173 148.980594 
L 395.553799 144.722376 
L 395.709397 144.722376 
L 395.767293 140.464158 
L 396.119506 140.464158 
L 396.15342 136.205941 
L 396.427869 136.205941 
L 396.427869 134.076832 
L 396.895419 134.076832 
L 396.976059 129.818614 
L 397.063813 129.818614 
L 397.143981 125.560396 
L 397.179849 125.560396 
L 397.289436 121.302178 
L 397.671094 121.302178 
L 397.671094 119.173069 
L 397.791299 119.173069 
L 397.791299 117.04396 
L 397.902934 117.04396 
L 397.902934 114.914851 
L 398.030074 114.914851 
L 398.030074 112.785743 
L 398.14552 112.785743 
L 398.14552 110.656634 
L 398.303362 110.656634 
L 398.303362 108.527525 
L 398.42042 108.527525 
L 398.42042 106.398416 
L 398.779246 106.398416 
L 398.839667 102.140198 
L 399.159509 102.140198 
L 399.19595 95.752871 
L 399.343853 95.752871 
L 399.343853 93.623762 
L 399.528366 93.623762 
L 399.528366 91.494653 
L 399.658464 91.494653 
L 399.658464 89.365545 
L 399.829307 89.365545 
L 399.829307 87.236436 
L 400.332431 87.236436 
L 400.332431 85.107327 
L 400.822574 85.107327 
L 400.872155 78.72 
L 401.163807 78.72 
L 401.163807 76.590891 
L 401.704719 76.590891 
L 401.704719 74.461782 
L 402.439584 74.461782 
L 402.439584 72.332673 
L 402.587501 72.332673 
L 402.587501 70.203564 
L 402.920297 70.203564 
L 402.920297 68.074455 
L 403.102584 68.074455 
L 403.102584 65.945347 
L 403.881677 65.945347 
L 403.881677 63.816238 
L 404.610606 63.816238 
L 404.62223 59.55802 
L 405.676366 59.55802 
L 405.676366 57.428911 
L 406.271219 57.428911 
L 406.271219 55.299802 
L 407.071055 55.299802 
L 407.071055 53.170693 
L 409.903323 53.170693 
L 409.903323 51.041584 
L 411.465454 51.041584 
L 411.465454 48.912475 
L 411.696909 48.912475 
L 411.729216 44.654257 
L 411.933967 44.654257 
L 411.933967 42.525149 
L 412.739139 42.525149 
L 412.824133 38.266931 
L 412.98056 38.266931 
L 412.98056 36.137822 
L 413.190232 36.137822 
L 413.190232 34.008713 
L 413.560745 34.008713 
L 413.560745 31.879604 
L 413.843549 31.879604 
L 413.843549 29.750495 
L 414.833116 29.750495 
L 414.833116 27.621386 
L 415.129665 27.621386 
L 415.129665 25.492277 
L 415.433149 25.492277 
L 415.433149 23.363168 
L 417.014521 23.363168 
L 417.014521 21.234059 
L 418.546734 21.234059 
L 418.546734 19.10495 
L 419.033478 19.10495 
L 419.033478 16.975842 
L 419.43638 16.975842 
L 419.43638 14.846733 
L 423.654169 14.846733 
L 423.654169 12.717624 
L 425.333474 12.717624 
L 425.333474 10.588515 
L 425.816 10.588515 
L 425.816 8.459406 
L 430.696578 8.459406 
L 430.696578 6.330297 
L 430.696578 6.330297 
L 460.8 6.330297 
L 460.8 6.330297 
" style="fill:none;stroke:#00bfbf;stroke-linecap:square;stroke-width:1.5;"/>
   </g>
   <g id="line2d_23">
    <path clip-path="url(#pb2b318cb80)" d="M 352.750389 293.76 
L 352.750389 291.630891 
L 356.872693 291.630891 
L 356.872693 289.501782 
L 357.126754 289.501782 
L 357.126754 287.372673 
L 357.767315 287.372673 
L 357.767315 285.243564 
L 357.999337 285.243564 
L 357.999337 283.114455 
L 358.546656 283.114455 
L 358.546656 280.985347 
L 362.074589 280.985347 
L 362.074589 278.856238 
L 363.791945 278.856238 
L 363.791945 276.727129 
L 365.728768 276.727129 
L 365.728768 274.59802 
L 367.363563 274.59802 
L 367.363563 272.468911 
L 369.054017 272.468911 
L 369.054017 270.339802 
L 369.196141 270.339802 
L 369.196141 268.210693 
L 369.868685 268.210693 
L 369.868685 266.081584 
L 373.819941 266.081584 
L 373.819941 263.952475 
L 374.912941 263.952475 
L 374.996809 259.694257 
L 375.077576 259.694257 
L 375.125966 255.43604 
L 376.11249 255.43604 
L 376.137502 251.177822 
L 376.825017 251.177822 
L 376.825017 249.048713 
L 377.230223 249.048713 
L 377.230223 246.919604 
L 378.441691 246.919604 
L 378.441691 244.790495 
L 379.75524 244.790495 
L 379.75524 242.661386 
L 379.889824 242.661386 
L 379.996786 236.274059 
L 380.28756 236.274059 
L 380.28756 234.14495 
L 381.576615 234.14495 
L 381.600079 229.886733 
L 382.504788 229.886733 
L 382.538015 225.628515 
L 382.618153 225.628515 
L 382.618153 223.499406 
L 382.953353 223.499406 
L 382.953353 221.370297 
L 383.587162 221.370297 
L 383.587162 219.241188 
L 383.73181 219.241188 
L 383.759961 214.98297 
L 384.268459 214.98297 
L 384.376591 210.724752 
L 384.745369 210.724752 
L 384.745369 208.595644 
L 385.765202 208.595644 
L 385.765202 206.466535 
L 386.122503 206.466535 
L 386.122503 204.337426 
L 386.895748 204.337426 
L 386.976965 200.079208 
L 387.670199 200.079208 
L 387.670199 197.950099 
L 387.968396 197.950099 
L 387.968396 195.82099 
L 388.585849 195.82099 
L 388.619408 191.562772 
L 388.810757 191.562772 
L 388.810757 189.433663 
L 389.179021 189.433663 
L 389.179021 187.304554 
L 389.589567 187.304554 
L 389.656924 183.046337 
L 389.746287 183.046337 
L 389.746287 180.917228 
L 390.014906 180.917228 
L 390.014906 178.788119 
L 390.385453 178.788119 
L 390.409018 174.529901 
L 392.705176 174.529901 
L 392.705176 172.400792 
L 392.962138 172.400792 
L 392.962138 170.271683 
L 393.167662 170.271683 
L 393.167662 168.142574 
L 393.638192 168.142574 
L 393.638192 166.013465 
L 393.914273 166.013465 
L 393.914273 163.884356 
L 394.075938 163.884356 
L 394.075938 161.755248 
L 394.340178 161.755248 
L 394.37238 157.49703 
L 394.505112 157.49703 
L 394.505112 155.367921 
L 394.758411 155.367921 
L 394.795546 151.109703 
L 395.266082 151.109703 
L 395.266082 148.980594 
L 395.518173 148.980594 
L 395.553799 144.722376 
L 395.709397 144.722376 
L 395.767293 140.464158 
L 396.119506 140.464158 
L 396.15342 136.205941 
L 396.427869 136.205941 
L 396.427869 134.076832 
L 396.895419 134.076832 
L 396.976059 129.818614 
L 397.063813 129.818614 
L 397.143981 125.560396 
L 397.179849 125.560396 
L 397.289436 121.302178 
L 397.671094 121.302178 
L 397.671094 119.173069 
L 397.791299 119.173069 
L 397.791299 117.04396 
L 397.902934 117.04396 
L 397.902934 114.914851 
L 398.030074 114.914851 
L 398.030074 112.785743 
L 398.14552 112.785743 
L 398.14552 110.656634 
L 398.303362 110.656634 
L 398.303362 108.527525 
L 398.42042 108.527525 
L 398.42042 106.398416 
L 398.779246 106.398416 
L 398.839667 102.140198 
L 399.159509 102.140198 
L 399.19595 95.752871 
L 399.343853 95.752871 
L 399.343853 93.623762 
L 399.528366 93.623762 
L 399.528366 91.494653 
L 399.658464 91.494653 
L 399.658464 89.365545 
L 399.829307 89.365545 
L 399.829307 87.236436 
L 400.332431 87.236436 
L 400.332431 85.107327 
L 400.822574 85.107327 
L 400.872155 78.72 
L 401.163807 78.72 
L 401.163807 76.590891 
L 401.704719 76.590891 
L 401.704719 74.461782 
L 402.439584 74.461782 
L 402.439584 72.332673 
L 402.587501 72.332673 
L 402.587501 70.203564 
L 402.920297 70.203564 
L 402.920297 68.074455 
L 403.102584 68.074455 
L 403.102584 65.945347 
L 403.881677 65.945347 
L 403.881677 63.816238 
L 404.610606 63.816238 
L 404.62223 59.55802 
L 405.676366 59.55802 
L 405.676366 57.428911 
L 406.271219 57.428911 
L 406.271219 55.299802 
L 407.071055 55.299802 
L 407.071055 53.170693 
L 409.903323 53.170693 
L 409.903323 51.041584 
L 411.465454 51.041584 
L 411.465454 48.912475 
L 411.696909 48.912475 
L 411.729216 44.654257 
L 411.933967 44.654257 
L 411.933967 42.525149 
L 412.739139 42.525149 
L 412.824133 38.266931 
L 412.98056 38.266931 
L 412.98056 36.137822 
L 413.190232 36.137822 
L 413.190232 34.008713 
L 413.560745 34.008713 
L 413.560745 31.879604 
L 413.843549 31.879604 
L 413.843549 29.750495 
L 414.833116 29.750495 
L 414.833116 27.621386 
L 415.129665 27.621386 
L 415.129665 25.492277 
L 415.433149 25.492277 
L 415.433149 23.363168 
L 417.014521 23.363168 
L 417.014521 21.234059 
L 418.546734 21.234059 
L 418.546734 19.10495 
L 419.033478 19.10495 
L 419.033478 16.975842 
L 419.43638 16.975842 
L 419.43638 14.846733 
L 422.070125 14.846733 
L 422.070125 12.717624 
L 425.333474 12.717624 
L 425.333474 10.588515 
L 425.816 10.588515 
L 425.816 8.459406 
L 429.500589 8.459406 
L 429.500589 6.330297 
L 429.500589 6.330297 
L 460.8 6.330297 
L 460.8 6.330297 
" style="fill:none;stroke:#bf00bf;stroke-linecap:square;stroke-width:1.5;"/>
   </g>
   <g id="line2d_24">
    <path clip-path="url(#pb2b318cb80)" d="M -1 259.694257 
L 229.850408 259.694257 
L 229.850408 257.565149 
L 231.587645 257.565149 
L 231.587645 255.43604 
L 254.057504 255.43604 
L 254.057504 253.306931 
L 255.639164 253.306931 
L 255.639164 251.177822 
L 284.02423 251.177822 
L 284.02423 249.048713 
L 285.76169 249.048713 
L 285.76169 246.919604 
L 304.4422 246.919604 
L 304.4422 244.790495 
L 305.323401 244.790495 
L 305.323401 242.661386 
L 306.171077 242.661386 
L 306.171077 240.532277 
L 307.187115 240.532277 
L 307.187115 238.403168 
L 307.769732 238.403168 
L 307.769732 236.274059 
L 317.012197 236.274059 
L 317.012197 234.14495 
L 319.352348 234.14495 
L 319.352348 232.015842 
L 320.897674 232.015842 
L 320.897674 229.886733 
L 321.066816 229.886733 
L 321.066816 227.757624 
L 322.47762 227.757624 
L 322.47762 225.628515 
L 323.589826 225.628515 
L 323.589826 223.499406 
L 324.61046 223.499406 
L 324.61046 221.370297 
L 329.366309 221.370297 
L 329.366309 219.241188 
L 331.627797 219.241188 
L 331.627797 217.112079 
L 332.990782 217.112079 
L 332.990782 214.98297 
L 340.725068 214.98297 
L 340.725068 212.853861 
L 341.087068 212.853861 
L 341.087068 210.724752 
L 341.286252 210.724752 
L 341.286252 208.595644 
L 343.400012 208.595644 
L 343.400012 206.466535 
L 344.307539 206.466535 
L 344.307539 204.337426 
L 344.496409 204.337426 
L 344.496409 202.208317 
L 345.275328 202.208317 
L 345.275328 200.079208 
L 348.418974 200.079208 
L 348.445619 195.82099 
L 349.475956 195.82099 
L 349.475956 193.691881 
L 351.12813 193.691881 
L 351.20552 189.433663 
L 352.074357 189.433663 
L 352.074357 187.304554 
L 355.209722 187.304554 
L 355.209722 185.175446 
L 355.723211 185.175446 
L 355.723211 183.046337 
L 355.993476 183.046337 
L 355.993476 180.917228 
L 356.528253 180.917228 
L 356.528253 178.788119 
L 357.572388 178.788119 
L 357.572388 176.65901 
L 357.763298 176.65901 
L 357.763298 174.529901 
L 358.290609 174.529901 
L 358.290609 172.400792 
L 358.54222 172.400792 
L 358.54222 170.271683 
L 361.860464 170.271683 
L 361.860464 168.142574 
L 362.527141 168.142574 
L 362.527141 166.013465 
L 363.205636 166.013465 
L 363.205636 163.884356 
L 363.397867 163.884356 
L 363.397867 161.755248 
L 363.623631 161.755248 
L 363.692356 157.49703 
L 364.928875 157.49703 
L 364.928875 155.367921 
L 367.427165 155.367921 
L 367.427165 153.238812 
L 368.197141 153.238812 
L 368.197141 151.109703 
L 368.42487 151.109703 
L 368.42487 148.980594 
L 369.230675 148.980594 
L 369.230675 146.851485 
L 373.228855 146.851485 
L 373.273437 142.593267 
L 374.996809 142.593267 
L 374.996809 140.464158 
L 375.258731 140.464158 
L 375.307982 136.205941 
L 375.931995 136.205941 
L 375.931995 134.076832 
L 376.074475 134.076832 
L 376.074475 131.947723 
L 377.007138 131.947723 
L 377.007138 129.818614 
L 377.219062 129.818614 
L 377.219062 127.689505 
L 377.39353 127.689505 
L 377.39353 125.560396 
L 379.198412 125.560396 
L 379.198412 123.431287 
L 379.333599 123.431287 
L 379.333599 121.302178 
L 379.678089 121.302178 
L 379.678089 119.173069 
L 380.858015 119.173069 
L 380.870476 114.914851 
L 383.341192 114.914851 
L 383.341192 112.785743 
L 385.012902 112.785743 
L 385.012902 110.656634 
L 385.13357 110.656634 
L 385.208412 106.398416 
L 385.985982 106.398416 
L 385.985982 104.269307 
L 387.242747 104.269307 
L 387.242747 102.140198 
L 388.503045 102.140198 
L 388.503045 100.011089 
L 390.385453 100.011089 
L 390.407702 95.752871 
L 390.747697 95.752871 
L 390.747697 93.623762 
L 390.995173 93.623762 
L 390.995173 91.494653 
L 392.27734 91.494653 
L 392.341512 87.236436 
L 392.992495 87.236436 
L 392.992495 85.107327 
L 393.133785 85.107327 
L 393.167662 80.849109 
L 393.59501 80.849109 
L 393.638192 76.590891 
L 393.727585 76.590891 
L 393.727585 74.461782 
L 394.104437 74.461782 
L 394.128647 70.203564 
L 394.340178 70.203564 
L 394.340178 68.074455 
L 394.505112 68.074455 
L 394.505112 65.945347 
L 395.219533 65.945347 
L 395.266082 61.687129 
L 395.426414 61.687129 
L 395.46475 57.428911 
L 395.553799 57.428911 
L 395.553799 55.299802 
L 395.775519 55.299802 
L 395.852025 51.041584 
L 395.890009 51.041584 
L 395.956338 46.783366 
L 396.1074 46.783366 
L 396.1074 44.654257 
L 396.618273 44.654257 
L 396.618273 42.525149 
L 396.739552 42.525149 
L 396.739552 40.39604 
L 397.143981 40.39604 
L 397.231167 36.137822 
L 397.289436 36.137822 
L 397.289436 34.008713 
L 397.544733 34.008713 
L 397.544733 31.879604 
L 397.788852 31.879604 
L 397.791299 27.621386 
L 398.030074 27.621386 
L 398.030074 25.492277 
L 398.14552 25.492277 
L 398.17945 21.234059 
L 398.779246 21.234059 
L 398.779246 19.10495 
L 399.528366 19.10495 
L 399.528366 16.975842 
L 399.829307 16.975842 
L 399.829307 14.846733 
L 400.057925 14.846733 
L 400.057925 12.717624 
L 400.332431 12.717624 
L 400.332431 10.588515 
L 403.102584 10.588515 
L 403.102584 8.459406 
L 406.271219 8.459406 
L 406.271219 6.330297 
L 406.271219 6.330297 
L 460.8 6.330297 
L 460.8 6.330297 
" style="fill:none;stroke:#000000;stroke-linecap:square;stroke-width:1.5;"/>
   </g>
   <g id="line2d_25">
    <path clip-path="url(#pb2b318cb80)" d="M -1 227.757624 
L 106.777598 227.757624 
L 106.777598 225.628515 
L 120.781387 225.628515 
L 120.781387 223.499406 
L 125.219555 223.499406 
L 125.219555 221.370297 
L 131.564742 221.370297 
L 131.564742 219.241188 
L 151.417106 219.241188 
L 151.417106 217.112079 
L 152.277518 217.112079 
L 152.277518 214.98297 
L 152.393167 214.98297 
L 152.393167 212.853861 
L 154.881503 212.853861 
L 154.881503 210.724752 
L 155.527207 210.724752 
L 155.602865 206.466535 
L 156.482688 206.466535 
L 156.482688 204.337426 
L 157.691039 204.337426 
L 157.691039 202.208317 
L 162.869881 202.208317 
L 162.869881 200.079208 
L 163.303167 200.079208 
L 163.303167 197.950099 
L 165.619489 197.950099 
L 165.619489 195.82099 
L 166.715393 195.82099 
L 166.715393 193.691881 
L 172.243714 193.691881 
L 172.243714 191.562772 
L 172.999554 191.562772 
L 172.999554 189.433663 
L 173.170874 189.433663 
L 173.170874 187.304554 
L 173.878574 187.304554 
L 173.878574 185.175446 
L 174.782825 185.175446 
L 174.782825 183.046337 
L 180.236092 183.046337 
L 180.236092 180.917228 
L 181.502281 180.917228 
L 181.502281 178.788119 
L 182.665976 178.788119 
L 182.665976 176.65901 
L 185.139719 176.65901 
L 185.139719 174.529901 
L 190.337407 174.529901 
L 190.337407 172.400792 
L 190.628938 172.400792 
L 190.628938 170.271683 
L 191.714205 170.271683 
L 191.714205 168.142574 
L 192.026241 168.142574 
L 192.026241 166.013465 
L 195.482356 166.013465 
L 195.482356 163.884356 
L 198.43175 163.884356 
L 198.43175 161.755248 
L 203.755251 161.755248 
L 203.755251 159.626139 
L 204.167879 159.626139 
L 204.167879 157.49703 
L 206.193741 157.49703 
L 206.193741 155.367921 
L 207.226503 155.367921 
L 207.226503 153.238812 
L 209.654622 153.238812 
L 209.654622 151.109703 
L 211.775561 151.109703 
L 211.811937 146.851485 
L 212.062559 146.851485 
L 212.062559 144.722376 
L 212.760543 144.722376 
L 212.760543 142.593267 
L 214.2241 142.593267 
L 214.2241 140.464158 
L 214.854354 140.464158 
L 214.937 136.205941 
L 217.702237 136.205941 
L 217.702237 134.076832 
L 220.432759 134.076832 
L 220.432759 131.947723 
L 220.971591 131.947723 
L 220.971591 129.818614 
L 221.135933 129.818614 
L 221.135933 127.689505 
L 223.817044 127.689505 
L 223.817044 125.560396 
L 239.471221 125.560396 
L 239.471221 123.431287 
L 241.386252 123.431287 
L 241.386252 121.302178 
L 244.014559 121.302178 
L 244.014559 119.173069 
L 247.700941 119.173069 
L 247.700941 117.04396 
L 252.623281 117.04396 
L 252.623281 114.914851 
L 253.31182 114.914851 
L 253.31182 112.785743 
L 256.867084 112.785743 
L 256.867084 110.656634 
L 258.548787 110.656634 
L 258.548787 108.527525 
L 259.935771 108.527525 
L 259.935771 106.398416 
L 266.900269 106.398416 
L 266.900269 104.269307 
L 267.857144 104.269307 
L 267.857144 102.140198 
L 268.318232 102.140198 
L 268.318232 100.011089 
L 274.22071 100.011089 
L 274.22071 97.88198 
L 277.54611 97.88198 
L 277.54611 95.752871 
L 280.197785 95.752871 
L 280.197785 93.623762 
L 280.705368 93.623762 
L 280.705368 91.494653 
L 281.078481 91.494653 
L 281.078481 89.365545 
L 284.152524 89.365545 
L 284.152524 87.236436 
L 295.50035 87.236436 
L 295.50035 85.107327 
L 306.171077 85.107327 
L 306.171077 82.978218 
L 325.25635 82.978218 
L 325.25635 80.849109 
L 325.612212 80.849109 
L 325.612212 78.72 
L 326.158145 78.72 
L 326.158145 76.590891 
L 332.45782 76.590891 
L 332.45782 74.461782 
L 338.836326 74.461782 
L 338.836326 72.332673 
L 338.970092 72.332673 
L 338.970092 70.203564 
L 346.997483 70.203564 
L 346.997483 68.074455 
L 373.465874 68.074455 
L 373.465874 65.945347 
L 374.294203 65.945347 
L 374.294203 63.816238 
L 375.84312 63.816238 
L 375.84312 61.687129 
L 377.937005 61.687129 
L 377.937005 59.55802 
L 379.023094 59.55802 
L 379.039454 55.299802 
L 379.442471 55.299802 
L 379.442471 53.170693 
L 379.843263 53.170693 
L 379.843263 51.041584 
L 380.320223 51.041584 
L 380.320223 48.912475 
L 380.520577 48.912475 
L 380.520577 46.783366 
L 380.661019 46.783366 
L 380.771257 42.525149 
L 381.187747 42.525149 
L 381.187747 40.39604 
L 381.802009 40.39604 
L 381.879048 36.137822 
L 381.956765 36.137822 
L 381.956765 34.008713 
L 382.116639 34.008713 
L 382.116639 31.879604 
L 382.627265 31.879604 
L 382.676975 27.621386 
L 383.444855 27.621386 
L 383.444855 25.492277 
L 384.130164 25.492277 
L 384.130164 23.363168 
L 384.802311 23.363168 
L 384.899276 19.10495 
L 385.032174 19.10495 
L 385.032174 16.975842 
L 386.53398 16.975842 
L 386.53398 14.846733 
L 387.441773 14.846733 
L 387.441773 12.717624 
L 387.591711 12.717624 
L 387.591711 10.588515 
L 388.472283 10.588515 
L 388.472283 8.459406 
L 391.010441 8.459406 
L 391.010441 6.330297 
L 391.010441 6.330297 
L 460.8 6.330297 
L 460.8 6.330297 
" style="fill:none;stroke:#00bfbf;stroke-linecap:square;stroke-width:1.5;"/>
   </g>
   <g id="line2d_26">
    <path clip-path="url(#pb2b318cb80)" d="M -1 191.562772 
L 0.215805 191.562772 
L 0.215805 189.433663 
L 0.752874 189.433663 
L 0.752874 187.304554 
L 0.935409 187.304554 
L 0.935409 185.175446 
L 2.007383 185.175446 
L 2.007383 183.046337 
L 3.015698 183.046337 
L 3.015698 180.917228 
L 5.016301 180.917228 
L 5.016301 178.788119 
L 5.370573 178.788119 
L 5.370573 176.65901 
L 6.134411 176.65901 
L 6.134411 174.529901 
L 8.799764 174.529901 
L 8.799764 172.400792 
L 9.858137 172.400792 
L 9.858137 170.271683 
L 10.791247 170.271683 
L 10.791247 168.142574 
L 11.281375 168.142574 
L 11.281375 166.013465 
L 11.780612 166.013465 
L 11.780612 163.884356 
L 13.345122 163.884356 
L 13.345122 161.755248 
L 15.018576 161.755248 
L 15.018576 159.626139 
L 15.186155 159.626139 
L 15.186155 157.49703 
L 15.497332 157.49703 
L 15.497332 155.367921 
L 16.989893 155.367921 
L 16.989893 153.238812 
L 18.093669 153.238812 
L 18.093669 151.109703 
L 18.792796 151.109703 
L 18.792796 148.980594 
L 19.445212 148.980594 
L 19.445212 146.851485 
L 20.13336 146.851485 
L 20.13336 144.722376 
L 20.24904 144.722376 
L 20.24904 142.593267 
L 20.552541 142.593267 
L 20.619085 138.33505 
L 22.188227 138.33505 
L 22.188227 136.205941 
L 22.513023 136.205941 
L 22.513023 134.076832 
L 23.428162 134.076832 
L 23.428162 131.947723 
L 24.273112 131.947723 
L 24.273112 129.818614 
L 27.770792 129.818614 
L 27.770792 127.689505 
L 28.592765 127.689505 
L 28.592765 125.560396 
L 36.933149 125.560396 
L 36.933149 123.431287 
L 38.14128 123.431287 
L 38.14128 121.302178 
L 38.727381 121.302178 
L 38.727381 119.173069 
L 39.755914 119.173069 
L 39.755914 117.04396 
L 40.229816 117.04396 
L 40.229816 114.914851 
L 46.833114 114.914851 
L 46.833114 112.785743 
L 49.89174 112.785743 
L 49.89174 110.656634 
L 69.110941 110.656634 
L 69.110941 78.72 
L 275.153593 78.72 
L 275.153593 76.590891 
L 281.082668 76.590891 
L 281.082668 74.461782 
L 282.984347 74.461782 
L 282.984347 72.332673 
L 313.829834 72.332673 
L 313.829834 70.203564 
L 333.398096 70.203564 
L 333.398096 68.074455 
L 372.019091 68.074455 
L 372.023985 63.816238 
L 372.165631 63.816238 
L 372.165631 61.687129 
L 372.59413 61.687129 
L 372.59413 59.55802 
L 373.907824 59.55802 
L 373.907824 57.428911 
L 374.056265 57.428911 
L 374.056265 55.299802 
L 375.011418 55.299802 
L 375.011418 53.170693 
L 375.21476 53.170693 
L 375.21476 51.041584 
L 375.485584 51.041584 
L 375.485584 48.912475 
L 375.809918 48.912475 
L 375.809918 46.783366 
L 376.243988 46.783366 
L 376.243988 44.654257 
L 376.981331 44.654257 
L 376.981331 42.525149 
L 377.113494 42.525149 
L 377.113494 40.39604 
L 377.850348 40.39604 
L 377.850348 38.266931 
L 378.664552 38.266931 
L 378.664552 36.137822 
L 378.836913 36.137822 
L 378.842704 31.879604 
L 379.491185 31.879604 
L 379.57148 27.621386 
L 379.734702 27.621386 
L 379.734702 25.492277 
L 380.115575 25.492277 
L 380.168407 21.234059 
L 380.945273 21.234059 
L 380.945273 19.10495 
L 381.763792 19.10495 
L 381.763792 16.975842 
L 382.15925 16.975842 
L 382.15925 14.846733 
L 382.588152 14.846733 
L 382.588152 12.717624 
L 382.957308 12.717624 
L 382.957308 10.588515 
L 383.139839 10.588515 
L 383.139839 8.459406 
L 383.626488 8.459406 
L 383.626488 6.330297 
L 383.626488 6.330297 
L 460.8 6.330297 
L 460.8 6.330297 
" style="fill:none;stroke:#bf00bf;stroke-linecap:square;stroke-width:1.5;"/>
   </g>
   <g id="line2d_27">
    <path clip-path="url(#pb2b318cb80)" d="M -1 183.046337 
L -0.43775 183.046337 
L -0.43775 180.917228 
L 4.47467 180.917228 
L 4.47467 178.788119 
L 4.899407 178.788119 
L 4.899407 176.65901 
L 5.018711 176.65901 
L 5.018711 174.529901 
L 5.27718 174.529901 
L 5.370573 170.271683 
L 7.8004 170.271683 
L 7.8004 168.142574 
L 9.253815 168.142574 
L 9.253815 166.013465 
L 9.923039 166.013465 
L 9.923039 163.884356 
L 10.553379 163.884356 
L 10.553379 161.755248 
L 10.721945 161.755248 
L 10.721945 159.626139 
L 12.215944 159.626139 
L 12.223456 155.367921 
L 13.408109 155.367921 
L 13.408109 153.238812 
L 14.176978 153.238812 
L 14.176978 151.109703 
L 15.018576 151.109703 
L 15.018576 148.980594 
L 15.497332 148.980594 
L 15.497332 146.851485 
L 18.093669 146.851485 
L 18.093669 144.722376 
L 19.445212 144.722376 
L 19.455222 140.464158 
L 19.879594 140.464158 
L 19.879594 138.33505 
L 20.24904 138.33505 
L 20.24904 136.205941 
L 21.456197 136.205941 
L 21.456197 134.076832 
L 32.915147 134.076832 
L 32.915147 131.947723 
L 40.113404 131.947723 
L 40.113404 129.818614 
L 44.944451 129.818614 
L 44.944451 127.689505 
L 50.32409 127.689505 
L 50.32409 125.560396 
L 69.110941 125.560396 
L 69.110941 61.687129 
L 361.209528 61.687129 
L 361.209528 59.55802 
L 366.977544 59.55802 
L 366.977544 57.428911 
L 367.714219 57.428911 
L 367.714219 55.299802 
L 368.236119 55.299802 
L 368.236119 53.170693 
L 369.215641 53.170693 
L 369.215641 51.041584 
L 369.466427 51.041584 
L 369.48666 46.783366 
L 370.638372 46.783366 
L 370.638372 44.654257 
L 370.857407 44.654257 
L 370.86253 40.39604 
L 371.14974 40.39604 
L 371.14974 38.266931 
L 371.627295 38.266931 
L 371.627295 36.137822 
L 372.023985 36.137822 
L 372.023985 34.008713 
L 372.470386 34.008713 
L 372.548186 29.750495 
L 373.285485 29.750495 
L 373.285485 27.621386 
L 373.907824 27.621386 
L 373.907824 25.492277 
L 375.019772 25.492277 
L 375.019772 23.363168 
L 375.447022 23.363168 
L 375.485584 19.10495 
L 376.78797 19.10495 
L 376.78797 16.975842 
L 377.310229 16.975842 
L 377.39767 12.717624 
L 378.100853 12.717624 
L 378.138677 8.459406 
L 380.168407 8.459406 
L 380.168407 6.330297 
L 380.168407 6.330297 
L 460.8 6.330297 
L 460.8 6.330297 
" style="fill:none;stroke:#000000;stroke-linecap:square;stroke-width:1.5;"/>
   </g>
   <g id="patch_3">
    <path d="M 0 293.76 
L 0 3.456 
" style="fill:none;stroke:#000000;stroke-linecap:square;stroke-linejoin:miter;stroke-width:0.8;"/>
   </g>
   <g id="patch_4">
    <path d="M 460.8 293.76 
L 460.8 3.456 
" style="fill:none;stroke:#000000;stroke-linecap:square;stroke-linejoin:miter;stroke-width:0.8;"/>
   </g>
   <g id="patch_5">
    <path d="M 0 293.76 
L 460.8 293.76 
" style="fill:none;stroke:#000000;stroke-linecap:square;stroke-linejoin:miter;stroke-width:0.8;"/>
   </g>
   <g id="patch_6">
    <path d="M 0 3.456 
L 460.8 3.456 
" style="fill:none;stroke:#000000;stroke-linecap:square;stroke-linejoin:miter;stroke-width:0.8;"/>
   </g>
   <g id="text_6">
    <!-- {f5, f11, f17, f23, f29, f35, f41, f47, f53}, 20-D -->
    <g transform="translate(-16.03475 287.95392)scale(0.2 -0.2)">
     <defs>
      <path d="M 51.125 -9.28125 
L 51.125 -16.3125 
L 48.09375 -16.3125 
Q 35.9375 -16.3125 31.8125 -12.6875 
Q 27.6875 -9.078125 27.6875 1.703125 
L 27.6875 13.375 
Q 27.6875 20.75 25.046875 23.578125 
Q 22.40625 26.421875 15.484375 26.421875 
L 12.5 26.421875 
L 12.5 33.40625 
L 15.484375 33.40625 
Q 22.46875 33.40625 25.078125 36.203125 
Q 27.6875 39.015625 27.6875 46.296875 
L 27.6875 58.015625 
Q 27.6875 68.796875 31.8125 72.390625 
Q 35.9375 75.984375 48.09375 75.984375 
L 51.125 75.984375 
L 51.125 69 
L 47.796875 69 
Q 40.921875 69 38.8125 66.84375 
Q 36.71875 64.703125 36.71875 57.8125 
L 36.71875 45.703125 
Q 36.71875 38.03125 34.5 34.5625 
Q 32.28125 31.109375 26.90625 29.890625 
Q 32.328125 28.5625 34.515625 25.09375 
Q 36.71875 21.625 36.71875 14.015625 
L 36.71875 1.90625 
Q 36.71875 -4.984375 38.8125 -7.125 
Q 40.921875 -9.28125 47.796875 -9.28125 
z
" id="DejaVuSans-123"/>
      <path d="M 11.71875 12.40625 
L 22.015625 12.40625 
L 22.015625 4 
L 14.015625 -11.625 
L 7.71875 -11.625 
L 11.71875 4 
z
" id="DejaVuSans-44"/>
      <path d="M 8.203125 72.90625 
L 55.078125 72.90625 
L 55.078125 68.703125 
L 28.609375 0 
L 18.3125 0 
L 43.21875 64.59375 
L 8.203125 64.59375 
z
" id="DejaVuSans-55"/>
      <path d="M 40.578125 39.3125 
Q 47.65625 37.796875 51.625 33 
Q 55.609375 28.21875 55.609375 21.1875 
Q 55.609375 10.40625 48.1875 4.484375 
Q 40.765625 -1.421875 27.09375 -1.421875 
Q 22.515625 -1.421875 17.65625 -0.515625 
Q 12.796875 0.390625 7.625 2.203125 
L 7.625 11.71875 
Q 11.71875 9.328125 16.59375 8.109375 
Q 21.484375 6.890625 26.8125 6.890625 
Q 36.078125 6.890625 40.9375 10.546875 
Q 45.796875 14.203125 45.796875 21.1875 
Q 45.796875 27.640625 41.28125 31.265625 
Q 36.765625 34.90625 28.71875 34.90625 
L 20.21875 34.90625 
L 20.21875 43.015625 
L 29.109375 43.015625 
Q 36.375 43.015625 40.234375 45.921875 
Q 44.09375 48.828125 44.09375 54.296875 
Q 44.09375 59.90625 40.109375 62.90625 
Q 36.140625 65.921875 28.71875 65.921875 
Q 24.65625 65.921875 20.015625 65.03125 
Q 15.375 64.15625 9.8125 62.3125 
L 9.8125 71.09375 
Q 15.4375 72.65625 20.34375 73.4375 
Q 25.25 74.21875 29.59375 74.21875 
Q 40.828125 74.21875 47.359375 69.109375 
Q 53.90625 64.015625 53.90625 55.328125 
Q 53.90625 49.265625 50.4375 45.09375 
Q 46.96875 40.921875 40.578125 39.3125 
z
" id="DejaVuSans-51"/>
      <path d="M 10.984375 1.515625 
L 10.984375 10.5 
Q 14.703125 8.734375 18.5 7.8125 
Q 22.3125 6.890625 25.984375 6.890625 
Q 35.75 6.890625 40.890625 13.453125 
Q 46.046875 20.015625 46.78125 33.40625 
Q 43.953125 29.203125 39.59375 26.953125 
Q 35.25 24.703125 29.984375 24.703125 
Q 19.046875 24.703125 12.671875 31.3125 
Q 6.296875 37.9375 6.296875 49.421875 
Q 6.296875 60.640625 12.9375 67.421875 
Q 19.578125 74.21875 30.609375 74.21875 
Q 43.265625 74.21875 49.921875 64.515625 
Q 56.59375 54.828125 56.59375 36.375 
Q 56.59375 19.140625 48.40625 8.859375 
Q 40.234375 -1.421875 26.421875 -1.421875 
Q 22.703125 -1.421875 18.890625 -0.6875 
Q 15.09375 0.046875 10.984375 1.515625 
z
M 30.609375 32.421875 
Q 37.25 32.421875 41.125 36.953125 
Q 45.015625 41.5 45.015625 49.421875 
Q 45.015625 57.28125 41.125 61.84375 
Q 37.25 66.40625 30.609375 66.40625 
Q 23.96875 66.40625 20.09375 61.84375 
Q 16.21875 57.28125 16.21875 49.421875 
Q 16.21875 41.5 20.09375 36.953125 
Q 23.96875 32.421875 30.609375 32.421875 
z
" id="DejaVuSans-57"/>
      <path d="M 12.5 -9.28125 
L 15.921875 -9.28125 
Q 22.75 -9.28125 24.828125 -7.171875 
Q 26.90625 -5.078125 26.90625 1.90625 
L 26.90625 14.015625 
Q 26.90625 21.625 29.09375 25.09375 
Q 31.296875 28.5625 36.71875 29.890625 
Q 31.296875 31.109375 29.09375 34.5625 
Q 26.90625 38.03125 26.90625 45.703125 
L 26.90625 57.8125 
Q 26.90625 64.75 24.828125 66.875 
Q 22.75 69 15.921875 69 
L 12.5 69 
L 12.5 75.984375 
L 15.578125 75.984375 
Q 27.734375 75.984375 31.8125 72.390625 
Q 35.890625 68.796875 35.890625 58.015625 
L 35.890625 46.296875 
Q 35.890625 39.015625 38.515625 36.203125 
Q 41.15625 33.40625 48.09375 33.40625 
L 51.125 33.40625 
L 51.125 26.421875 
L 48.09375 26.421875 
Q 41.15625 26.421875 38.515625 23.578125 
Q 35.890625 20.75 35.890625 13.375 
L 35.890625 1.703125 
Q 35.890625 -9.078125 31.8125 -12.6875 
Q 27.734375 -16.3125 15.578125 -16.3125 
L 12.5 -16.3125 
z
" id="DejaVuSans-125"/>
     </defs>
     <use xlink:href="#DejaVuSans-123"/>
     <use x="63.623047" xlink:href="#DejaVuSans-102"/>
     <use x="98.828125" xlink:href="#DejaVuSans-53"/>
     <use x="162.451172" xlink:href="#DejaVuSans-44"/>
     <use x="194.238281" xlink:href="#DejaVuSans-32"/>
     <use x="226.025391" xlink:href="#DejaVuSans-102"/>
     <use x="261.230469" xlink:href="#DejaVuSans-49"/>
     <use x="324.853516" xlink:href="#DejaVuSans-49"/>
     <use x="388.476562" xlink:href="#DejaVuSans-44"/>
     <use x="420.263672" xlink:href="#DejaVuSans-32"/>
     <use x="452.050781" xlink:href="#DejaVuSans-102"/>
     <use x="487.255859" xlink:href="#DejaVuSans-49"/>
     <use x="550.878906" xlink:href="#DejaVuSans-55"/>
     <use x="614.501953" xlink:href="#DejaVuSans-44"/>
     <use x="646.289062" xlink:href="#DejaVuSans-32"/>
     <use x="678.076172" xlink:href="#DejaVuSans-102"/>
     <use x="713.28125" xlink:href="#DejaVuSans-50"/>
     <use x="776.904297" xlink:href="#DejaVuSans-51"/>
     <use x="840.527344" xlink:href="#DejaVuSans-44"/>
     <use x="872.314453" xlink:href="#DejaVuSans-32"/>
     <use x="904.101562" xlink:href="#DejaVuSans-102"/>
     <use x="939.306641" xlink:href="#DejaVuSans-50"/>
     <use x="1002.929688" xlink:href="#DejaVuSans-57"/>
     <use x="1066.552734" xlink:href="#DejaVuSans-44"/>
     <use x="1098.339844" xlink:href="#DejaVuSans-32"/>
     <use x="1130.126953" xlink:href="#DejaVuSans-102"/>
     <use x="1165.332031" xlink:href="#DejaVuSans-51"/>
     <use x="1228.955078" xlink:href="#DejaVuSans-53"/>
     <use x="1292.578125" xlink:href="#DejaVuSans-44"/>
     <use x="1324.365234" xlink:href="#DejaVuSans-32"/>
     <use x="1356.152344" xlink:href="#DejaVuSans-102"/>
     <use x="1391.357422" xlink:href="#DejaVuSans-52"/>
     <use x="1454.980469" xlink:href="#DejaVuSans-49"/>
     <use x="1518.603516" xlink:href="#DejaVuSans-44"/>
     <use x="1550.390625" xlink:href="#DejaVuSans-32"/>
     <use x="1582.177734" xlink:href="#DejaVuSans-102"/>
     <use x="1617.382812" xlink:href="#DejaVuSans-52"/>
     <use x="1681.005859" xlink:href="#DejaVuSans-55"/>
     <use x="1744.628906" xlink:href="#DejaVuSans-44"/>
     <use x="1776.416016" xlink:href="#DejaVuSans-32"/>
     <use x="1808.203125" xlink:href="#DejaVuSans-102"/>
     <use x="1843.408203" xlink:href="#DejaVuSans-53"/>
     <use x="1907.03125" xlink:href="#DejaVuSans-51"/>
     <use x="1970.654297" xlink:href="#DejaVuSans-125"/>
     <use x="2034.277344" xlink:href="#DejaVuSans-44"/>
     <use x="2066.064453" xlink:href="#DejaVuSans-32"/>
     <use x="2097.851562" xlink:href="#DejaVuSans-50"/>
     <use x="2161.474609" xlink:href="#DejaVuSans-48"/>
     <use x="2225.097656" xlink:href="#DejaVuSans-45"/>
     <use x="2261.181641" xlink:href="#DejaVuSans-68"/>
    </g>
   </g>
   <g id="text_7">
    <!-- v2.4.159 -->
    <g style="fill:#808080;" transform="translate(208.35625 288.777272)scale(0.1 -0.1)">
     <defs>
      <path d="M 2.984375 54.6875 
L 12.5 54.6875 
L 29.59375 8.796875 
L 46.6875 54.6875 
L 56.203125 54.6875 
L 35.6875 0 
L 23.484375 0 
z
" id="DejaVuSans-118"/>
      <path d="M 10.6875 12.40625 
L 21 12.40625 
L 21 0 
L 10.6875 0 
z
" id="DejaVuSans-46"/>
     </defs>
     <use xlink:href="#DejaVuSans-118"/>
     <use x="59.179688" xlink:href="#DejaVuSans-50"/>
     <use x="122.802734" xlink:href="#DejaVuSans-46"/>
     <use x="154.589844" xlink:href="#DejaVuSans-52"/>
     <use x="218.212891" xlink:href="#DejaVuSans-46"/>
     <use x="250" xlink:href="#DejaVuSans-49"/>
     <use x="313.623047" xlink:href="#DejaVuSans-53"/>
     <use x="377.246094" xlink:href="#DejaVuSans-57"/>
    </g>
   </g>
  </g>
 </g>
 <defs>
  <clipPath id="pb2b318cb80">
   <rect height="290.304" width="460.8" x="0" y="3.456"/>
  </clipPath>
 </defs>
</svg>
