<?xml version="1.0" encoding="utf-8" standalone="no"?>
<!DOCTYPE svg PUBLIC "-//W3C//DTD SVG 1.1//EN"
  "http://www.w3.org/Graphics/SVG/1.1/DTD/svg11.dtd">
<!-- Created with matplotlib (https://matplotlib.org/) -->
<svg height="345.6pt" version="1.1" viewBox="0 0 460.8 345.6" width="460.8pt" xmlns="http://www.w3.org/2000/svg" xmlns:xlink="http://www.w3.org/1999/xlink">
 <metadata>
  <rdf:RDF xmlns:cc="http://creativecommons.org/ns#" xmlns:dc="http://purl.org/dc/elements/1.1/" xmlns:rdf="http://www.w3.org/1999/02/22-rdf-syntax-ns#">
   <cc:Work>
    <dc:type rdf:resource="http://purl.org/dc/dcmitype/StillImage"/>
    <dc:date>2022-02-09T10:43:54.590353</dc:date>
    <dc:format>image/svg+xml</dc:format>
    <dc:creator>
     <cc:Agent>
      <dc:title>Matplotlib v3.3.3, https://matplotlib.org/</dc:title>
     </cc:Agent>
    </dc:creator>
   </cc:Work>
  </rdf:RDF>
 </metadata>
 <defs>
  <style type="text/css">*{stroke-linecap:butt;stroke-linejoin:round;}</style>
 </defs>
 <g id="figure_1">
  <g id="patch_1">
   <path d="M 0 345.6 
L 460.8 345.6 
L 460.8 0 
L 0 0 
z
" style="fill:#ffffff;"/>
  </g>
  <g id="axes_1">
   <g id="patch_2">
    <path d="M 0 293.76 
L 460.8 293.76 
L 460.8 3.456 
L 0 3.456 
z
" style="fill:#ffffff;"/>
   </g>
   <g id="matplotlib.axis_1">
    <g id="xtick_1">
     <g id="line2d_1">
      <path clip-path="url(#p0298cb8fd4)" d="M 101.580753 293.76 
L 101.580753 3.456 
" style="fill:none;stroke:#b0b0b0;stroke-linecap:square;stroke-width:0.8;"/>
     </g>
     <g id="line2d_2">
      <defs>
       <path d="M 0 0 
L 0 3.5 
" id="m88154a6590" style="stroke:#000000;stroke-width:0.8;"/>
      </defs>
      <g>
       <use style="stroke:#000000;stroke-width:0.8;" x="101.580753" xlink:href="#m88154a6590" y="293.76"/>
      </g>
     </g>
     <g id="text_1">
      <!-- -5 -->
      <g transform="translate(91.610441 315.956875)scale(0.2 -0.2)">
       <defs>
        <path d="M 4.890625 31.390625 
L 31.203125 31.390625 
L 31.203125 23.390625 
L 4.890625 23.390625 
z
" id="DejaVuSans-45"/>
        <path d="M 10.796875 72.90625 
L 49.515625 72.90625 
L 49.515625 64.59375 
L 19.828125 64.59375 
L 19.828125 46.734375 
Q 21.96875 47.46875 24.109375 47.828125 
Q 26.265625 48.1875 28.421875 48.1875 
Q 40.625 48.1875 47.75 41.5 
Q 54.890625 34.8125 54.890625 23.390625 
Q 54.890625 11.625 47.5625 5.09375 
Q 40.234375 -1.421875 26.90625 -1.421875 
Q 22.3125 -1.421875 17.546875 -0.640625 
Q 12.796875 0.140625 7.71875 1.703125 
L 7.71875 11.625 
Q 12.109375 9.234375 16.796875 8.0625 
Q 21.484375 6.890625 26.703125 6.890625 
Q 35.15625 6.890625 40.078125 11.328125 
Q 45.015625 15.765625 45.015625 23.390625 
Q 45.015625 31 40.078125 35.4375 
Q 35.15625 39.890625 26.703125 39.890625 
Q 22.75 39.890625 18.8125 39.015625 
Q 14.890625 38.140625 10.796875 36.28125 
z
" id="DejaVuSans-53"/>
       </defs>
       <use xlink:href="#DejaVuSans-45"/>
       <use x="36.083984" xlink:href="#DejaVuSans-53"/>
      </g>
     </g>
    </g>
    <g id="xtick_2">
     <g id="line2d_3">
      <path clip-path="url(#p0298cb8fd4)" d="M 203.30804 293.76 
L 203.30804 3.456 
" style="fill:none;stroke:#b0b0b0;stroke-linecap:square;stroke-width:0.8;"/>
     </g>
     <g id="line2d_4">
      <g>
       <use style="stroke:#000000;stroke-width:0.8;" x="203.30804" xlink:href="#m88154a6590" y="293.76"/>
      </g>
     </g>
     <g id="text_2">
      <!-- -2 -->
      <g transform="translate(193.337728 315.956875)scale(0.2 -0.2)">
       <defs>
        <path d="M 19.1875 8.296875 
L 53.609375 8.296875 
L 53.609375 0 
L 7.328125 0 
L 7.328125 8.296875 
Q 12.9375 14.109375 22.625 23.890625 
Q 32.328125 33.6875 34.8125 36.53125 
Q 39.546875 41.84375 41.421875 45.53125 
Q 43.3125 49.21875 43.3125 52.78125 
Q 43.3125 58.59375 39.234375 62.25 
Q 35.15625 65.921875 28.609375 65.921875 
Q 23.96875 65.921875 18.8125 64.3125 
Q 13.671875 62.703125 7.8125 59.421875 
L 7.8125 69.390625 
Q 13.765625 71.78125 18.9375 73 
Q 24.125 74.21875 28.421875 74.21875 
Q 39.75 74.21875 46.484375 68.546875 
Q 53.21875 62.890625 53.21875 53.421875 
Q 53.21875 48.921875 51.53125 44.890625 
Q 49.859375 40.875 45.40625 35.40625 
Q 44.1875 33.984375 37.640625 27.21875 
Q 31.109375 20.453125 19.1875 8.296875 
z
" id="DejaVuSans-50"/>
       </defs>
       <use xlink:href="#DejaVuSans-45"/>
       <use x="36.083984" xlink:href="#DejaVuSans-50"/>
      </g>
     </g>
    </g>
    <g id="xtick_3">
     <g id="line2d_5">
      <path clip-path="url(#p0298cb8fd4)" d="M 305.035327 293.76 
L 305.035327 3.456 
" style="fill:none;stroke:#b0b0b0;stroke-linecap:square;stroke-width:0.8;"/>
     </g>
     <g id="line2d_6">
      <g>
       <use style="stroke:#000000;stroke-width:0.8;" x="305.035327" xlink:href="#m88154a6590" y="293.76"/>
      </g>
     </g>
     <g id="text_3">
      <!-- 1 -->
      <g transform="translate(298.672827 315.956875)scale(0.2 -0.2)">
       <defs>
        <path d="M 12.40625 8.296875 
L 28.515625 8.296875 
L 28.515625 63.921875 
L 10.984375 60.40625 
L 10.984375 69.390625 
L 28.421875 72.90625 
L 38.28125 72.90625 
L 38.28125 8.296875 
L 54.390625 8.296875 
L 54.390625 0 
L 12.40625 0 
z
" id="DejaVuSans-49"/>
       </defs>
       <use xlink:href="#DejaVuSans-49"/>
      </g>
     </g>
    </g>
    <g id="xtick_4">
     <g id="line2d_7">
      <path clip-path="url(#p0298cb8fd4)" d="M 406.762614 293.76 
L 406.762614 3.456 
" style="fill:none;stroke:#b0b0b0;stroke-linecap:square;stroke-width:0.8;"/>
     </g>
     <g id="line2d_8">
      <g>
       <use style="stroke:#000000;stroke-width:0.8;" x="406.762614" xlink:href="#m88154a6590" y="293.76"/>
      </g>
     </g>
     <g id="text_4">
      <!-- 4 -->
      <g transform="translate(400.400114 315.956875)scale(0.2 -0.2)">
       <defs>
        <path d="M 37.796875 64.3125 
L 12.890625 25.390625 
L 37.796875 25.390625 
z
M 35.203125 72.90625 
L 47.609375 72.90625 
L 47.609375 25.390625 
L 58.015625 25.390625 
L 58.015625 17.1875 
L 47.609375 17.1875 
L 47.609375 0 
L 37.796875 0 
L 37.796875 17.1875 
L 4.890625 17.1875 
L 4.890625 26.703125 
z
" id="DejaVuSans-52"/>
       </defs>
       <use xlink:href="#DejaVuSans-52"/>
      </g>
     </g>
    </g>
    <g id="text_5">
     <!-- log10 of Df -->
     <g transform="translate(175.214063 339.313125)scale(0.2 -0.2)">
      <defs>
       <path d="M 9.421875 75.984375 
L 18.40625 75.984375 
L 18.40625 0 
L 9.421875 0 
z
" id="DejaVuSans-108"/>
       <path d="M 30.609375 48.390625 
Q 23.390625 48.390625 19.1875 42.75 
Q 14.984375 37.109375 14.984375 27.296875 
Q 14.984375 17.484375 19.15625 11.84375 
Q 23.34375 6.203125 30.609375 6.203125 
Q 37.796875 6.203125 41.984375 11.859375 
Q 46.1875 17.53125 46.1875 27.296875 
Q 46.1875 37.015625 41.984375 42.703125 
Q 37.796875 48.390625 30.609375 48.390625 
z
M 30.609375 56 
Q 42.328125 56 49.015625 48.375 
Q 55.71875 40.765625 55.71875 27.296875 
Q 55.71875 13.875 49.015625 6.21875 
Q 42.328125 -1.421875 30.609375 -1.421875 
Q 18.84375 -1.421875 12.171875 6.21875 
Q 5.515625 13.875 5.515625 27.296875 
Q 5.515625 40.765625 12.171875 48.375 
Q 18.84375 56 30.609375 56 
z
" id="DejaVuSans-111"/>
       <path d="M 45.40625 27.984375 
Q 45.40625 37.75 41.375 43.109375 
Q 37.359375 48.484375 30.078125 48.484375 
Q 22.859375 48.484375 18.828125 43.109375 
Q 14.796875 37.75 14.796875 27.984375 
Q 14.796875 18.265625 18.828125 12.890625 
Q 22.859375 7.515625 30.078125 7.515625 
Q 37.359375 7.515625 41.375 12.890625 
Q 45.40625 18.265625 45.40625 27.984375 
z
M 54.390625 6.78125 
Q 54.390625 -7.171875 48.1875 -13.984375 
Q 42 -20.796875 29.203125 -20.796875 
Q 24.46875 -20.796875 20.265625 -20.09375 
Q 16.0625 -19.390625 12.109375 -17.921875 
L 12.109375 -9.1875 
Q 16.0625 -11.328125 19.921875 -12.34375 
Q 23.78125 -13.375 27.78125 -13.375 
Q 36.625 -13.375 41.015625 -8.765625 
Q 45.40625 -4.15625 45.40625 5.171875 
L 45.40625 9.625 
Q 42.625 4.78125 38.28125 2.390625 
Q 33.9375 0 27.875 0 
Q 17.828125 0 11.671875 7.65625 
Q 5.515625 15.328125 5.515625 27.984375 
Q 5.515625 40.671875 11.671875 48.328125 
Q 17.828125 56 27.875 56 
Q 33.9375 56 38.28125 53.609375 
Q 42.625 51.21875 45.40625 46.390625 
L 45.40625 54.6875 
L 54.390625 54.6875 
z
" id="DejaVuSans-103"/>
       <path d="M 31.78125 66.40625 
Q 24.171875 66.40625 20.328125 58.90625 
Q 16.5 51.421875 16.5 36.375 
Q 16.5 21.390625 20.328125 13.890625 
Q 24.171875 6.390625 31.78125 6.390625 
Q 39.453125 6.390625 43.28125 13.890625 
Q 47.125 21.390625 47.125 36.375 
Q 47.125 51.421875 43.28125 58.90625 
Q 39.453125 66.40625 31.78125 66.40625 
z
M 31.78125 74.21875 
Q 44.046875 74.21875 50.515625 64.515625 
Q 56.984375 54.828125 56.984375 36.375 
Q 56.984375 17.96875 50.515625 8.265625 
Q 44.046875 -1.421875 31.78125 -1.421875 
Q 19.53125 -1.421875 13.0625 8.265625 
Q 6.59375 17.96875 6.59375 36.375 
Q 6.59375 54.828125 13.0625 64.515625 
Q 19.53125 74.21875 31.78125 74.21875 
z
" id="DejaVuSans-48"/>
       <path id="DejaVuSans-32"/>
       <path d="M 37.109375 75.984375 
L 37.109375 68.5 
L 28.515625 68.5 
Q 23.6875 68.5 21.796875 66.546875 
Q 19.921875 64.59375 19.921875 59.515625 
L 19.921875 54.6875 
L 34.71875 54.6875 
L 34.71875 47.703125 
L 19.921875 47.703125 
L 19.921875 0 
L 10.890625 0 
L 10.890625 47.703125 
L 2.296875 47.703125 
L 2.296875 54.6875 
L 10.890625 54.6875 
L 10.890625 58.5 
Q 10.890625 67.625 15.140625 71.796875 
Q 19.390625 75.984375 28.609375 75.984375 
z
" id="DejaVuSans-102"/>
       <path d="M 19.671875 64.796875 
L 19.671875 8.109375 
L 31.59375 8.109375 
Q 46.6875 8.109375 53.6875 14.9375 
Q 60.6875 21.78125 60.6875 36.53125 
Q 60.6875 51.171875 53.6875 57.984375 
Q 46.6875 64.796875 31.59375 64.796875 
z
M 9.8125 72.90625 
L 30.078125 72.90625 
Q 51.265625 72.90625 61.171875 64.09375 
Q 71.09375 55.28125 71.09375 36.53125 
Q 71.09375 17.671875 61.125 8.828125 
Q 51.171875 0 30.078125 0 
L 9.8125 0 
z
" id="DejaVuSans-68"/>
      </defs>
      <use xlink:href="#DejaVuSans-108"/>
      <use x="27.783203" xlink:href="#DejaVuSans-111"/>
      <use x="88.964844" xlink:href="#DejaVuSans-103"/>
      <use x="152.441406" xlink:href="#DejaVuSans-49"/>
      <use x="216.064453" xlink:href="#DejaVuSans-48"/>
      <use x="279.6875" xlink:href="#DejaVuSans-32"/>
      <use x="311.474609" xlink:href="#DejaVuSans-111"/>
      <use x="372.65625" xlink:href="#DejaVuSans-102"/>
      <use x="407.861328" xlink:href="#DejaVuSans-32"/>
      <use x="439.648438" xlink:href="#DejaVuSans-68"/>
      <use x="516.650391" xlink:href="#DejaVuSans-102"/>
     </g>
    </g>
   </g>
   <g id="matplotlib.axis_2">
    <g id="ytick_1">
     <g id="line2d_9">
      <path clip-path="url(#p0298cb8fd4)" d="M 0 293.76 
L 460.8 293.76 
" style="fill:none;stroke:#b0b0b0;stroke-linecap:square;stroke-width:0.8;"/>
     </g>
     <g id="line2d_10">
      <defs>
       <path d="M 0 0 
L -3.5 0 
" id="mf797bcaf05" style="stroke:#000000;stroke-width:0.8;"/>
      </defs>
      <g>
       <use style="stroke:#000000;stroke-width:0.8;" x="0" xlink:href="#mf797bcaf05" y="293.76"/>
      </g>
     </g>
    </g>
    <g id="ytick_2">
     <g id="line2d_11">
      <path clip-path="url(#p0298cb8fd4)" d="M 0 236.274059 
L 460.8 236.274059 
" style="fill:none;stroke:#b0b0b0;stroke-linecap:square;stroke-width:0.8;"/>
     </g>
     <g id="line2d_12">
      <g>
       <use style="stroke:#000000;stroke-width:0.8;" x="0" xlink:href="#mf797bcaf05" y="236.274059"/>
      </g>
     </g>
    </g>
    <g id="ytick_3">
     <g id="line2d_13">
      <path clip-path="url(#p0298cb8fd4)" d="M 0 178.788119 
L 460.8 178.788119 
" style="fill:none;stroke:#b0b0b0;stroke-linecap:square;stroke-width:0.8;"/>
     </g>
     <g id="line2d_14">
      <g>
       <use style="stroke:#000000;stroke-width:0.8;" x="0" xlink:href="#mf797bcaf05" y="178.788119"/>
      </g>
     </g>
    </g>
    <g id="ytick_4">
     <g id="line2d_15">
      <path clip-path="url(#p0298cb8fd4)" d="M 0 121.302178 
L 460.8 121.302178 
" style="fill:none;stroke:#b0b0b0;stroke-linecap:square;stroke-width:0.8;"/>
     </g>
     <g id="line2d_16">
      <g>
       <use style="stroke:#000000;stroke-width:0.8;" x="0" xlink:href="#mf797bcaf05" y="121.302178"/>
      </g>
     </g>
    </g>
    <g id="ytick_5">
     <g id="line2d_17">
      <path clip-path="url(#p0298cb8fd4)" d="M 0 63.816238 
L 460.8 63.816238 
" style="fill:none;stroke:#b0b0b0;stroke-linecap:square;stroke-width:0.8;"/>
     </g>
     <g id="line2d_18">
      <g>
       <use style="stroke:#000000;stroke-width:0.8;" x="0" xlink:href="#mf797bcaf05" y="63.816238"/>
      </g>
     </g>
    </g>
    <g id="ytick_6">
     <g id="line2d_19">
      <path clip-path="url(#p0298cb8fd4)" d="M 0 6.330297 
L 460.8 6.330297 
" style="fill:none;stroke:#b0b0b0;stroke-linecap:square;stroke-width:0.8;"/>
     </g>
     <g id="line2d_20">
      <g>
       <use style="stroke:#000000;stroke-width:0.8;" x="0" xlink:href="#mf797bcaf05" y="6.330297"/>
      </g>
     </g>
    </g>
   </g>
   <g id="line2d_21">
    <path clip-path="url(#p0298cb8fd4)" d="M -1 15.911287 
L 27.036784 15.911287 
L 27.036784 6.330297 
L 27.036784 6.330297 
L 27.036784 6.330297 
L 460.8 6.330297 
" style="fill:none;stroke:#ff0000;stroke-linecap:square;stroke-width:3;"/>
   </g>
   <g id="line2d_22">
    <path clip-path="url(#p0298cb8fd4)" d="M 366.321736 293.76 
L 366.321736 284.17901 
L 367.030027 284.17901 
L 367.030027 274.59802 
L 367.886218 274.59802 
L 367.886218 265.01703 
L 368.273966 265.01703 
L 368.273966 255.43604 
L 368.744339 255.43604 
L 368.744339 245.85505 
L 368.74536 245.85505 
L 368.74536 236.274059 
L 370.045087 236.274059 
L 370.045087 226.693069 
L 370.316995 226.693069 
L 370.316995 217.112079 
L 370.555204 217.112079 
L 370.555204 207.531089 
L 370.938574 207.531089 
L 370.938574 197.950099 
L 371.821132 197.950099 
L 371.821132 188.369109 
L 372.095619 188.369109 
L 372.095619 178.788119 
L 373.187286 178.788119 
L 373.187286 169.207129 
L 373.40603 169.207129 
L 373.40603 159.626139 
L 374.203418 159.626139 
L 374.203418 150.045149 
L 374.355405 150.045149 
L 374.355405 140.464158 
L 374.799018 140.464158 
L 374.799018 130.883168 
L 374.836021 130.883168 
L 374.836021 121.302178 
L 375.15511 121.302178 
L 375.15511 111.721188 
L 376.274739 111.721188 
L 376.274739 102.140198 
L 377.252302 102.140198 
L 377.252302 92.559208 
L 377.631258 92.559208 
L 377.631258 82.978218 
L 377.836659 82.978218 
L 377.836659 73.397228 
L 378.974752 73.397228 
L 378.974752 63.816238 
L 380.338203 63.816238 
L 380.338203 54.235248 
L 380.612956 54.235248 
L 380.612956 44.654257 
L 382.939888 44.654257 
L 382.939888 35.073267 
L 385.259138 35.073267 
L 385.259138 25.492277 
L 385.657346 25.492277 
L 385.657346 15.911287 
L 395.508075 15.911287 
L 395.508075 6.330297 
L 395.508075 6.330297 
L 395.508075 6.330297 
L 460.8 6.330297 
" style="fill:none;stroke:#00bfbf;stroke-linecap:square;stroke-width:1.5;"/>
   </g>
   <g id="line2d_23">
    <path clip-path="url(#p0298cb8fd4)" d="M 366.321736 293.76 
L 366.321736 284.17901 
L 367.030027 284.17901 
L 367.030027 274.59802 
L 367.886218 274.59802 
L 367.886218 265.01703 
L 368.273966 265.01703 
L 368.273966 255.43604 
L 368.744339 255.43604 
L 368.744339 245.85505 
L 368.74536 245.85505 
L 368.74536 236.274059 
L 370.045087 236.274059 
L 370.045087 226.693069 
L 370.316995 226.693069 
L 370.316995 217.112079 
L 370.555204 217.112079 
L 370.555204 207.531089 
L 370.938574 207.531089 
L 370.938574 197.950099 
L 371.821132 197.950099 
L 371.821132 188.369109 
L 372.095619 188.369109 
L 372.095619 178.788119 
L 372.628056 178.788119 
L 372.628056 169.207129 
L 372.918474 169.207129 
L 372.918474 159.626139 
L 373.187286 159.626139 
L 373.187286 150.045149 
L 373.40603 150.045149 
L 373.40603 140.464158 
L 374.203418 140.464158 
L 374.203418 130.883168 
L 374.355405 130.883168 
L 374.355405 121.302178 
L 374.836021 121.302178 
L 374.836021 111.721188 
L 375.15511 111.721188 
L 375.15511 102.140198 
L 376.183856 102.140198 
L 376.183856 92.559208 
L 376.274739 92.559208 
L 376.274739 82.978218 
L 377.188976 82.978218 
L 377.188976 73.397228 
L 377.252302 73.397228 
L 377.252302 63.816238 
L 377.836659 63.816238 
L 377.836659 54.235248 
L 379.390322 54.235248 
L 379.390322 44.654257 
L 380.338203 44.654257 
L 380.338203 35.073267 
L 382.939888 35.073267 
L 382.939888 25.492277 
L 385.657346 25.492277 
L 385.657346 15.911287 
L 395.508075 15.911287 
L 395.508075 6.330297 
L 395.508075 6.330297 
L 395.508075 6.330297 
L 460.8 6.330297 
" style="fill:none;stroke:#bf00bf;stroke-linecap:square;stroke-width:1.5;"/>
   </g>
   <g id="line2d_24">
    <path clip-path="url(#p0298cb8fd4)" d="M 303.544158 293.76 
L 303.544158 284.17901 
L 346.523613 284.17901 
L 346.523613 274.59802 
L 350.841458 274.59802 
L 350.841458 265.01703 
L 351.93266 265.01703 
L 351.93266 255.43604 
L 353.181293 255.43604 
L 353.181293 245.85505 
L 354.537036 245.85505 
L 354.537036 236.274059 
L 356.616745 236.274059 
L 356.616745 226.693069 
L 356.837797 226.693069 
L 356.837797 217.112079 
L 358.210525 217.112079 
L 358.210525 207.531089 
L 358.771136 207.531089 
L 358.771136 197.950099 
L 359.808227 197.950099 
L 359.808227 188.369109 
L 361.341491 188.369109 
L 361.341491 178.788119 
L 362.975909 178.788119 
L 362.975909 169.207129 
L 363.478034 169.207129 
L 363.478034 159.626139 
L 363.615018 159.626139 
L 363.615018 150.045149 
L 366.099162 150.045149 
L 366.099162 140.464158 
L 366.263785 140.464158 
L 366.263785 130.883168 
L 367.39442 130.883168 
L 367.39442 121.302178 
L 368.08324 121.302178 
L 368.08324 111.721188 
L 368.744339 111.721188 
L 368.744339 102.140198 
L 369.366591 102.140198 
L 369.366591 92.559208 
L 369.380376 92.559208 
L 369.380376 82.978218 
L 369.458123 82.978218 
L 369.458123 73.397228 
L 370.300809 73.397228 
L 370.300809 63.816238 
L 370.469577 63.816238 
L 370.469577 54.235248 
L 371.371062 54.235248 
L 371.371062 44.654257 
L 372.034271 44.654257 
L 372.034271 35.073267 
L 373.014052 35.073267 
L 373.014052 25.492277 
L 374.085599 25.492277 
L 374.085599 15.911287 
L 374.566571 15.911287 
L 374.566571 6.330297 
L 374.566571 6.330297 
L 374.566571 6.330297 
L 460.8 6.330297 
" style="fill:none;stroke:#000000;stroke-linecap:square;stroke-width:1.5;"/>
   </g>
   <g id="line2d_25">
    <path clip-path="url(#p0298cb8fd4)" d="M 180.759885 293.76 
L 180.759885 284.17901 
L 184.525343 284.17901 
L 184.525343 274.59802 
L 189.213361 274.59802 
L 189.213361 265.01703 
L 197.468143 265.01703 
L 197.468143 255.43604 
L 223.85643 255.43604 
L 223.85643 245.85505 
L 241.378634 245.85505 
L 241.378634 236.274059 
L 241.404044 236.274059 
L 241.404044 226.693069 
L 245.246398 226.693069 
L 245.246398 217.112079 
L 246.742519 217.112079 
L 246.742519 207.531089 
L 264.185116 207.531089 
L 264.185116 197.950099 
L 333.946383 197.950099 
L 333.946383 188.369109 
L 347.090677 188.369109 
L 347.090677 178.788119 
L 347.925736 178.788119 
L 347.925736 169.207129 
L 348.207665 169.207129 
L 348.207665 159.626139 
L 349.707935 159.626139 
L 349.707935 150.045149 
L 350.280261 150.045149 
L 350.280261 140.464158 
L 350.890223 140.464158 
L 350.890223 130.883168 
L 350.895222 130.883168 
L 350.895222 121.302178 
L 351.10907 121.302178 
L 351.10907 111.721188 
L 351.115795 111.721188 
L 351.115795 102.140198 
L 351.412038 102.140198 
L 351.412038 92.559208 
L 351.649257 92.559208 
L 351.649257 82.978218 
L 352.325503 82.978218 
L 352.325503 73.397228 
L 352.582486 73.397228 
L 352.582486 63.816238 
L 356.419812 63.816238 
L 356.419812 54.235248 
L 357.928507 54.235248 
L 357.928507 44.654257 
L 358.060467 44.654257 
L 358.060467 35.073267 
L 358.569079 35.073267 
L 358.569079 25.492277 
L 362.883302 25.492277 
L 362.883302 15.911287 
L 363.843634 15.911287 
L 363.843634 6.330297 
L 363.843634 6.330297 
L 363.843634 6.330297 
L 460.8 6.330297 
" style="fill:none;stroke:#00bfbf;stroke-linecap:square;stroke-width:1.5;"/>
   </g>
   <g id="line2d_26">
    <path clip-path="url(#p0298cb8fd4)" d="M -1 236.274059 
L 1.107902 236.274059 
L 1.107902 226.693069 
L 5.23737 226.693069 
L 5.23737 217.112079 
L 7.978678 217.112079 
L 7.978678 207.531089 
L 20.658857 207.531089 
L 20.658857 197.950099 
L 42.590379 197.950099 
L 42.590379 188.369109 
L 151.500539 188.369109 
L 151.500539 178.788119 
L 166.462891 178.788119 
L 166.462891 169.207129 
L 176.266607 169.207129 
L 176.266607 159.626139 
L 186.723782 159.626139 
L 186.723782 150.045149 
L 232.944916 150.045149 
L 232.944916 140.464158 
L 243.629299 140.464158 
L 243.629299 130.883168 
L 270.3884 130.883168 
L 270.3884 121.302178 
L 329.166941 121.302178 
L 329.166941 111.721188 
L 343.718822 111.721188 
L 343.718822 102.140198 
L 343.914901 102.140198 
L 343.914901 92.559208 
L 345.346651 92.559208 
L 345.346651 82.978218 
L 346.609371 82.978218 
L 346.609371 73.397228 
L 346.854504 73.397228 
L 346.854504 63.816238 
L 347.294317 63.816238 
L 347.294317 54.235248 
L 349.678171 54.235248 
L 349.678171 44.654257 
L 350.0088 44.654257 
L 350.0088 35.073267 
L 351.061418 35.073267 
L 351.061418 25.492277 
L 352.322673 25.492277 
L 352.322673 15.911287 
L 357.714219 15.911287 
L 357.714219 6.330297 
L 357.714219 6.330297 
L 357.714219 6.330297 
L 460.8 6.330297 
" style="fill:none;stroke:#bf00bf;stroke-linecap:square;stroke-width:1.5;"/>
   </g>
   <g id="line2d_27">
    <path clip-path="url(#p0298cb8fd4)" d="M -1 73.397228 
L 0.391418 73.397228 
L 0.391418 63.816238 
L 10.646855 63.816238 
L 10.646855 54.235248 
L 27.036784 54.235248 
L 27.036784 44.654257 
L 77.590818 44.654257 
L 77.590818 35.073267 
L 170.437928 35.073267 
L 170.437928 25.492277 
L 195.112176 25.492277 
L 195.112176 15.911287 
L 212.499149 15.911287 
L 212.499149 6.330297 
L 212.499149 6.330297 
L 212.499149 6.330297 
L 460.8 6.330297 
" style="fill:none;stroke:#000000;stroke-linecap:square;stroke-width:1.5;"/>
   </g>
   <g id="patch_3">
    <path d="M 0 293.76 
L 0 3.456 
" style="fill:none;stroke:#000000;stroke-linecap:square;stroke-linejoin:miter;stroke-width:0.8;"/>
   </g>
   <g id="patch_4">
    <path d="M 460.8 293.76 
L 460.8 3.456 
" style="fill:none;stroke:#000000;stroke-linecap:square;stroke-linejoin:miter;stroke-width:0.8;"/>
   </g>
   <g id="patch_5">
    <path d="M 0 293.76 
L 460.8 293.76 
" style="fill:none;stroke:#000000;stroke-linecap:square;stroke-linejoin:miter;stroke-width:0.8;"/>
   </g>
   <g id="patch_6">
    <path d="M 0 3.456 
L 460.8 3.456 
" style="fill:none;stroke:#000000;stroke-linecap:square;stroke-linejoin:miter;stroke-width:0.8;"/>
   </g>
   <g id="text_6">
    <!-- {f45, f51}, 5-D -->
    <g transform="translate(300.387125 287.95392)scale(0.2 -0.2)">
     <defs>
      <path d="M 51.125 -9.28125 
L 51.125 -16.3125 
L 48.09375 -16.3125 
Q 35.9375 -16.3125 31.8125 -12.6875 
Q 27.6875 -9.078125 27.6875 1.703125 
L 27.6875 13.375 
Q 27.6875 20.75 25.046875 23.578125 
Q 22.40625 26.421875 15.484375 26.421875 
L 12.5 26.421875 
L 12.5 33.40625 
L 15.484375 33.40625 
Q 22.46875 33.40625 25.078125 36.203125 
Q 27.6875 39.015625 27.6875 46.296875 
L 27.6875 58.015625 
Q 27.6875 68.796875 31.8125 72.390625 
Q 35.9375 75.984375 48.09375 75.984375 
L 51.125 75.984375 
L 51.125 69 
L 47.796875 69 
Q 40.921875 69 38.8125 66.84375 
Q 36.71875 64.703125 36.71875 57.8125 
L 36.71875 45.703125 
Q 36.71875 38.03125 34.5 34.5625 
Q 32.28125 31.109375 26.90625 29.890625 
Q 32.328125 28.5625 34.515625 25.09375 
Q 36.71875 21.625 36.71875 14.015625 
L 36.71875 1.90625 
Q 36.71875 -4.984375 38.8125 -7.125 
Q 40.921875 -9.28125 47.796875 -9.28125 
z
" id="DejaVuSans-123"/>
      <path d="M 11.71875 12.40625 
L 22.015625 12.40625 
L 22.015625 4 
L 14.015625 -11.625 
L 7.71875 -11.625 
L 11.71875 4 
z
" id="DejaVuSans-44"/>
      <path d="M 12.5 -9.28125 
L 15.921875 -9.28125 
Q 22.75 -9.28125 24.828125 -7.171875 
Q 26.90625 -5.078125 26.90625 1.90625 
L 26.90625 14.015625 
Q 26.90625 21.625 29.09375 25.09375 
Q 31.296875 28.5625 36.71875 29.890625 
Q 31.296875 31.109375 29.09375 34.5625 
Q 26.90625 38.03125 26.90625 45.703125 
L 26.90625 57.8125 
Q 26.90625 64.75 24.828125 66.875 
Q 22.75 69 15.921875 69 
L 12.5 69 
L 12.5 75.984375 
L 15.578125 75.984375 
Q 27.734375 75.984375 31.8125 72.390625 
Q 35.890625 68.796875 35.890625 58.015625 
L 35.890625 46.296875 
Q 35.890625 39.015625 38.515625 36.203125 
Q 41.15625 33.40625 48.09375 33.40625 
L 51.125 33.40625 
L 51.125 26.421875 
L 48.09375 26.421875 
Q 41.15625 26.421875 38.515625 23.578125 
Q 35.890625 20.75 35.890625 13.375 
L 35.890625 1.703125 
Q 35.890625 -9.078125 31.8125 -12.6875 
Q 27.734375 -16.3125 15.578125 -16.3125 
L 12.5 -16.3125 
z
" id="DejaVuSans-125"/>
     </defs>
     <use xlink:href="#DejaVuSans-123"/>
     <use x="63.623047" xlink:href="#DejaVuSans-102"/>
     <use x="98.828125" xlink:href="#DejaVuSans-52"/>
     <use x="162.451172" xlink:href="#DejaVuSans-53"/>
     <use x="226.074219" xlink:href="#DejaVuSans-44"/>
     <use x="257.861328" xlink:href="#DejaVuSans-32"/>
     <use x="289.648438" xlink:href="#DejaVuSans-102"/>
     <use x="324.853516" xlink:href="#DejaVuSans-53"/>
     <use x="388.476562" xlink:href="#DejaVuSans-49"/>
     <use x="452.099609" xlink:href="#DejaVuSans-125"/>
     <use x="515.722656" xlink:href="#DejaVuSans-44"/>
     <use x="547.509766" xlink:href="#DejaVuSans-32"/>
     <use x="579.296875" xlink:href="#DejaVuSans-53"/>
     <use x="642.919922" xlink:href="#DejaVuSans-45"/>
     <use x="679.003906" xlink:href="#DejaVuSans-68"/>
    </g>
   </g>
   <g id="text_7">
    <!-- v2.4.159 -->
    <g style="fill:#808080;" transform="translate(208.35625 288.777272)scale(0.1 -0.1)">
     <defs>
      <path d="M 2.984375 54.6875 
L 12.5 54.6875 
L 29.59375 8.796875 
L 46.6875 54.6875 
L 56.203125 54.6875 
L 35.6875 0 
L 23.484375 0 
z
" id="DejaVuSans-118"/>
      <path d="M 10.6875 12.40625 
L 21 12.40625 
L 21 0 
L 10.6875 0 
z
" id="DejaVuSans-46"/>
      <path d="M 10.984375 1.515625 
L 10.984375 10.5 
Q 14.703125 8.734375 18.5 7.8125 
Q 22.3125 6.890625 25.984375 6.890625 
Q 35.75 6.890625 40.890625 13.453125 
Q 46.046875 20.015625 46.78125 33.40625 
Q 43.953125 29.203125 39.59375 26.953125 
Q 35.25 24.703125 29.984375 24.703125 
Q 19.046875 24.703125 12.671875 31.3125 
Q 6.296875 37.9375 6.296875 49.421875 
Q 6.296875 60.640625 12.9375 67.421875 
Q 19.578125 74.21875 30.609375 74.21875 
Q 43.265625 74.21875 49.921875 64.515625 
Q 56.59375 54.828125 56.59375 36.375 
Q 56.59375 19.140625 48.40625 8.859375 
Q 40.234375 -1.421875 26.421875 -1.421875 
Q 22.703125 -1.421875 18.890625 -0.6875 
Q 15.09375 0.046875 10.984375 1.515625 
z
M 30.609375 32.421875 
Q 37.25 32.421875 41.125 36.953125 
Q 45.015625 41.5 45.015625 49.421875 
Q 45.015625 57.28125 41.125 61.84375 
Q 37.25 66.40625 30.609375 66.40625 
Q 23.96875 66.40625 20.09375 61.84375 
Q 16.21875 57.28125 16.21875 49.421875 
Q 16.21875 41.5 20.09375 36.953125 
Q 23.96875 32.421875 30.609375 32.421875 
z
" id="DejaVuSans-57"/>
     </defs>
     <use xlink:href="#DejaVuSans-118"/>
     <use x="59.179688" xlink:href="#DejaVuSans-50"/>
     <use x="122.802734" xlink:href="#DejaVuSans-46"/>
     <use x="154.589844" xlink:href="#DejaVuSans-52"/>
     <use x="218.212891" xlink:href="#DejaVuSans-46"/>
     <use x="250" xlink:href="#DejaVuSans-49"/>
     <use x="313.623047" xlink:href="#DejaVuSans-53"/>
     <use x="377.246094" xlink:href="#DejaVuSans-57"/>
    </g>
   </g>
  </g>
 </g>
 <defs>
  <clipPath id="p0298cb8fd4">
   <rect height="290.304" width="460.8" x="0" y="3.456"/>
  </clipPath>
 </defs>
</svg>
