<?xml version="1.0" encoding="utf-8" standalone="no"?>
<!DOCTYPE svg PUBLIC "-//W3C//DTD SVG 1.1//EN"
  "http://www.w3.org/Graphics/SVG/1.1/DTD/svg11.dtd">
<!-- Created with matplotlib (https://matplotlib.org/) -->
<svg height="345.6pt" version="1.1" viewBox="0 0 460.8 345.6" width="460.8pt" xmlns="http://www.w3.org/2000/svg" xmlns:xlink="http://www.w3.org/1999/xlink">
 <metadata>
  <rdf:RDF xmlns:cc="http://creativecommons.org/ns#" xmlns:dc="http://purl.org/dc/elements/1.1/" xmlns:rdf="http://www.w3.org/1999/02/22-rdf-syntax-ns#">
   <cc:Work>
    <dc:type rdf:resource="http://purl.org/dc/dcmitype/StillImage"/>
    <dc:date>2022-02-09T11:09:05.899335</dc:date>
    <dc:format>image/svg+xml</dc:format>
    <dc:creator>
     <cc:Agent>
      <dc:title>Matplotlib v3.3.3, https://matplotlib.org/</dc:title>
     </cc:Agent>
    </dc:creator>
   </cc:Work>
  </rdf:RDF>
 </metadata>
 <defs>
  <style type="text/css">*{stroke-linecap:butt;stroke-linejoin:round;}</style>
 </defs>
 <g id="figure_1">
  <g id="patch_1">
   <path d="M 0 345.6 
L 460.8 345.6 
L 460.8 0 
L 0 0 
z
" style="fill:#ffffff;"/>
  </g>
  <g id="axes_1">
   <g id="patch_2">
    <path d="M 62.208 293.76 
L 460.8 293.76 
L 460.8 3.456 
L 62.208 3.456 
z
" style="fill:#ffffff;"/>
   </g>
   <g id="line2d_1">
    <path clip-path="url(#pecdd7c0865)" d="M 285.014814 293.76 
L 285.014814 287.372673 
L 286.177429 287.372673 
L 286.177429 280.985347 
L 286.605452 280.985347 
L 286.605452 274.59802 
L 287.726495 274.59802 
L 287.726495 268.210693 
L 289.884745 268.210693 
L 289.884745 261.823366 
L 291.010197 261.823366 
L 291.010197 255.43604 
L 291.477646 255.43604 
L 291.477646 249.048713 
L 291.772495 249.048713 
L 291.772495 242.661386 
L 306.254167 242.661386 
L 306.254167 236.274059 
L 312.343316 236.274059 
L 312.343316 229.886733 
L 317.051908 229.886733 
L 317.051908 223.499406 
L 317.400799 223.499406 
L 317.400799 217.112079 
L 323.221133 217.112079 
L 323.221133 210.724752 
L 334.297755 210.724752 
L 334.297755 204.337426 
L 337.683406 204.337426 
L 337.683406 197.950099 
L 337.683406 197.950099 
L 337.683406 197.950099 
L 460.8 197.950099 
" style="fill:none;stroke:#f5deb3;stroke-linecap:square;stroke-width:1.5;"/>
   </g>
   <g id="line2d_2">
    <path clip-path="url(#pecdd7c0865)" style="fill:none;stroke:#f5deb3;stroke-linecap:square;stroke-width:1.5;"/>
   </g>
   <g id="line2d_3">
    <path clip-path="url(#pecdd7c0865)" d="M 397.559997 293.76 
L 397.559997 287.372673 
L 399.101803 287.372673 
L 399.101803 280.985347 
L 404.220539 280.985347 
L 404.220539 274.59802 
L 404.709377 274.59802 
L 404.709377 268.210693 
L 404.752155 268.210693 
L 404.752155 261.823366 
L 415.617109 261.823366 
L 415.617109 255.43604 
L 417.420831 255.43604 
L 417.420831 249.048713 
L 422.156775 249.048713 
L 422.156775 242.661386 
L 426.325544 242.661386 
L 426.325544 236.274059 
L 437.334899 236.274059 
L 437.334899 229.886733 
L 451.308859 229.886733 
L 451.308859 223.499406 
L 454.532392 223.499406 
L 454.532392 217.112079 
L 454.532392 217.112079 
L 454.532392 217.112079 
L 460.8 217.112079 
" style="fill:none;stroke:#f5deb3;stroke-linecap:square;stroke-width:1.5;"/>
   </g>
   <g id="line2d_4">
    <path clip-path="url(#pecdd7c0865)" d="M 301.232633 293.76 
L 301.232633 287.372673 
L 301.333635 287.372673 
L 301.333635 280.985347 
L 303.943269 280.985347 
L 303.943269 274.59802 
L 305.710743 274.59802 
L 305.710743 268.210693 
L 307.262311 268.210693 
L 307.262311 261.823366 
L 308.30467 261.823366 
L 308.30467 255.43604 
L 308.929479 255.43604 
L 308.929479 249.048713 
L 309.600917 249.048713 
L 309.600917 242.661386 
L 309.794799 242.661386 
L 309.794799 236.274059 
L 310.179967 236.274059 
L 310.179967 229.886733 
L 310.534568 229.886733 
L 310.534568 223.499406 
L 310.561724 223.499406 
L 310.561724 217.112079 
L 310.967033 217.112079 
L 310.967033 210.724752 
L 312.212874 210.724752 
L 312.212874 204.337426 
L 314.229087 204.337426 
L 314.229087 197.950099 
L 314.229087 197.950099 
L 314.229087 197.950099 
L 460.8 197.950099 
" style="fill:none;stroke:#f5deb3;stroke-linecap:square;stroke-width:1.5;"/>
   </g>
   <g id="line2d_5"/>
   <g id="line2d_6"/>
   <g id="line2d_7">
    <path clip-path="url(#pecdd7c0865)" d="M 323.724185 293.76 
L 323.724185 287.372673 
L 324.418739 287.372673 
L 324.418739 280.985347 
L 325.024708 280.985347 
L 325.024708 274.59802 
L 328.023641 274.59802 
L 328.023641 268.210693 
L 329.096555 268.210693 
L 329.096555 261.823366 
L 329.325542 261.823366 
L 329.325542 255.43604 
L 329.360663 255.43604 
L 329.360663 249.048713 
L 329.483362 249.048713 
L 329.483362 242.661386 
L 329.588255 242.661386 
L 329.588255 236.274059 
L 330.315446 236.274059 
L 330.315446 229.886733 
L 331.417223 229.886733 
L 331.417223 223.499406 
L 332.703231 223.499406 
L 332.703231 217.112079 
L 333.380128 217.112079 
L 333.380128 210.724752 
L 333.999299 210.724752 
L 333.999299 204.337426 
L 351.715113 204.337426 
L 351.715113 197.950099 
L 433.606822 197.950099 
L 433.606822 191.562772 
L 461.8 191.562772 
" style="fill:none;stroke:#f5deb3;stroke-linecap:square;stroke-width:1.5;"/>
   </g>
   <g id="line2d_8">
    <path clip-path="url(#pecdd7c0865)" d="M 457.245118 293.76 
L 457.245118 287.372673 
L 459.09557 287.372673 
L 459.09557 280.985347 
L 459.664113 280.985347 
L 459.664113 274.59802 
L 459.901006 274.59802 
L 459.901006 268.210693 
L 460.579722 268.210693 
L 460.579722 261.823366 
L 460.599794 261.823366 
L 460.599794 255.43604 
L 461.8 255.43604 
" style="fill:none;stroke:#f5deb3;stroke-linecap:square;stroke-width:1.5;"/>
   </g>
   <g id="line2d_9">
    <path clip-path="url(#pecdd7c0865)" d="M 301.701965 293.76 
L 301.701965 287.372673 
L 319.259712 287.372673 
L 319.259712 280.985347 
L 320.094712 280.985347 
L 320.094712 274.59802 
L 321.465471 274.59802 
L 321.465471 268.210693 
L 321.82237 268.210693 
L 321.82237 261.823366 
L 321.947632 261.823366 
L 321.947632 255.43604 
L 322.630143 255.43604 
L 322.630143 249.048713 
L 323.36258 249.048713 
L 323.36258 242.661386 
L 324.082781 242.661386 
L 324.082781 236.274059 
L 324.162066 236.274059 
L 324.162066 229.886733 
L 324.849657 229.886733 
L 324.849657 223.499406 
L 325.295604 223.499406 
L 325.295604 217.112079 
L 325.314888 217.112079 
L 325.314888 210.724752 
L 325.468857 210.724752 
L 325.468857 204.337426 
L 326.997576 204.337426 
L 326.997576 197.950099 
L 327.219512 197.950099 
L 327.219512 191.562772 
L 352.870034 191.562772 
L 352.870034 185.175446 
L 353.646467 185.175446 
L 353.646467 178.788119 
L 354.605079 178.788119 
L 354.605079 172.400792 
L 358.677555 172.400792 
L 358.677555 166.013465 
L 385.611209 166.013465 
L 385.611209 159.626139 
L 386.585644 159.626139 
L 386.585644 153.238812 
L 388.081451 153.238812 
L 388.081451 146.851485 
L 388.153325 146.851485 
L 388.153325 140.464158 
L 404.642068 140.464158 
L 404.642068 134.076832 
L 426.418025 134.076832 
L 426.418025 127.689505 
L 427.794481 127.689505 
L 427.794481 121.302178 
L 453.090803 121.302178 
L 453.090803 114.914851 
L 456.109588 114.914851 
L 456.109588 108.527525 
L 459.629065 108.527525 
L 459.629065 102.140198 
L 459.629065 102.140198 
L 459.629065 102.140198 
L 460.8 102.140198 
" style="fill:none;stroke:#f5deb3;stroke-linecap:square;stroke-width:1.5;"/>
   </g>
   <g id="line2d_10">
    <path clip-path="url(#pecdd7c0865)" style="fill:none;stroke:#f5deb3;stroke-linecap:square;stroke-width:1.5;"/>
   </g>
   <g id="line2d_11">
    <path clip-path="url(#pecdd7c0865)" style="fill:none;stroke:#f5deb3;stroke-linecap:square;stroke-width:1.5;"/>
   </g>
   <g id="line2d_12">
    <path clip-path="url(#pecdd7c0865)" d="M 433.188814 293.76 
L 433.188814 287.372673 
L 447.565251 287.372673 
L 447.565251 280.985347 
L 451.804897 280.985347 
L 451.804897 274.59802 
L 454.81444 274.59802 
L 454.81444 268.210693 
L 461.8 268.210693 
" style="fill:none;stroke:#f5deb3;stroke-linecap:square;stroke-width:1.5;"/>
   </g>
   <g id="line2d_13"/>
   <g id="line2d_14">
    <path clip-path="url(#pecdd7c0865)" d="M 329.553319 293.76 
L 329.553319 287.372673 
L 339.316326 287.372673 
L 339.316326 280.985347 
L 349.638361 280.985347 
L 349.638361 274.59802 
L 371.80073 274.59802 
L 371.80073 268.210693 
L 372.895158 268.210693 
L 372.895158 261.823366 
L 377.263722 261.823366 
L 377.263722 255.43604 
L 381.140365 255.43604 
L 381.140365 249.048713 
L 388.630928 249.048713 
L 388.630928 242.661386 
L 404.678795 242.661386 
L 404.678795 236.274059 
L 419.112727 236.274059 
L 419.112727 229.886733 
L 419.112727 229.886733 
L 419.112727 229.886733 
L 460.8 229.886733 
" style="fill:none;stroke:#f5deb3;stroke-linecap:square;stroke-width:1.5;"/>
   </g>
   <g id="line2d_15">
    <path clip-path="url(#pecdd7c0865)" style="fill:none;stroke:#f5deb3;stroke-linecap:square;stroke-width:1.5;"/>
   </g>
   <g id="line2d_16">
    <path clip-path="url(#pecdd7c0865)" d="M 332.163825 293.76 
L 332.163825 287.372673 
L 336.598979 287.372673 
L 336.598979 280.985347 
L 337.971871 280.985347 
L 337.971871 274.59802 
L 339.911352 274.59802 
L 339.911352 268.210693 
L 340.321676 268.210693 
L 340.321676 261.823366 
L 341.924998 261.823366 
L 341.924998 255.43604 
L 364.117385 255.43604 
L 364.117385 249.048713 
L 397.168504 249.048713 
L 397.168504 242.661386 
L 401.905446 242.661386 
L 401.905446 236.274059 
L 406.581853 236.274059 
L 406.581853 229.886733 
L 408.491342 229.886733 
L 408.491342 223.499406 
L 409.684421 223.499406 
L 409.684421 217.112079 
L 412.705782 217.112079 
L 412.705782 210.724752 
L 430.608668 210.724752 
L 430.608668 204.337426 
L 443.439245 204.337426 
L 443.439245 197.950099 
L 443.439245 197.950099 
L 443.439245 197.950099 
L 460.8 197.950099 
" style="fill:none;stroke:#f5deb3;stroke-linecap:square;stroke-width:1.5;"/>
   </g>
   <g id="line2d_17">
    <path clip-path="url(#pecdd7c0865)" d="M 389.331005 293.76 
L 389.331005 287.372673 
L 390.298377 287.372673 
L 390.298377 280.985347 
L 393.874079 280.985347 
L 393.874079 274.59802 
L 394.199092 274.59802 
L 394.199092 268.210693 
L 396.10307 268.210693 
L 396.10307 261.823366 
L 396.274427 261.823366 
L 396.274427 255.43604 
L 396.762397 255.43604 
L 396.762397 249.048713 
L 398.176238 249.048713 
L 398.176238 242.661386 
L 398.406845 242.661386 
L 398.406845 236.274059 
L 400.269637 236.274059 
L 400.269637 229.886733 
L 400.462361 229.886733 
L 400.462361 223.499406 
L 400.848588 223.499406 
L 400.848588 217.112079 
L 402.016229 217.112079 
L 402.016229 210.724752 
L 404.611439 210.724752 
L 404.611439 204.337426 
L 405.117092 204.337426 
L 405.117092 197.950099 
L 405.117092 197.950099 
L 405.117092 197.950099 
L 460.8 197.950099 
" style="fill:none;stroke:#f5deb3;stroke-linecap:square;stroke-width:1.5;"/>
   </g>
   <g id="line2d_18">
    <path clip-path="url(#pecdd7c0865)" d="M 396.41547 293.76 
L 396.41547 287.372673 
L 400.573546 287.372673 
L 400.573546 280.985347 
L 403.412193 280.985347 
L 403.412193 274.59802 
L 409.210593 274.59802 
L 409.210593 268.210693 
L 413.826263 268.210693 
L 413.826263 261.823366 
L 415.250002 261.823366 
L 415.250002 255.43604 
L 417.361603 255.43604 
L 417.361603 249.048713 
L 422.315571 249.048713 
L 422.315571 242.661386 
L 432.650148 242.661386 
L 432.650148 236.274059 
L 446.82125 236.274059 
L 446.82125 229.886733 
L 450.462531 229.886733 
L 450.462531 223.499406 
L 456.776219 223.499406 
L 456.776219 217.112079 
L 457.683035 217.112079 
L 457.683035 210.724752 
L 458.125404 210.724752 
L 458.125404 204.337426 
L 461.8 204.337426 
" style="fill:none;stroke:#f5deb3;stroke-linecap:square;stroke-width:1.5;"/>
   </g>
   <g id="line2d_19">
    <path clip-path="url(#pecdd7c0865)" style="fill:none;stroke:#f5deb3;stroke-linecap:square;stroke-width:1.5;"/>
   </g>
   <g id="line2d_20">
    <path clip-path="url(#pecdd7c0865)" d="M 260.568853 293.76 
L 260.568853 287.372673 
L 265.162963 287.372673 
L 265.162963 280.985347 
L 275.55415 280.985347 
L 275.55415 274.59802 
L 279.690857 274.59802 
L 279.690857 268.210693 
L 282.798338 268.210693 
L 282.798338 261.823366 
L 283.158671 261.823366 
L 283.158671 255.43604 
L 284.965685 255.43604 
L 284.965685 249.048713 
L 287.169617 249.048713 
L 287.169617 242.661386 
L 288.684051 242.661386 
L 288.684051 236.274059 
L 289.532457 236.274059 
L 289.532457 229.886733 
L 292.397605 229.886733 
L 292.397605 223.499406 
L 292.438959 223.499406 
L 292.438959 217.112079 
L 293.821884 217.112079 
L 293.821884 210.724752 
L 298.699022 210.724752 
L 298.699022 204.337426 
L 299.161248 204.337426 
L 299.161248 197.950099 
L 461.8 197.950099 
" style="fill:none;stroke:#f5deb3;stroke-linecap:square;stroke-width:1.5;"/>
   </g>
   <g id="line2d_21">
    <path clip-path="url(#pecdd7c0865)" d="M 312.082036 293.76 
L 312.082036 287.372673 
L 317.284815 287.372673 
L 317.284815 280.985347 
L 317.377627 280.985347 
L 317.377627 274.59802 
L 317.377627 274.59802 
L 317.377627 268.210693 
L 319.281894 268.210693 
L 319.281894 261.823366 
L 319.414748 261.823366 
L 319.414748 255.43604 
L 319.414748 255.43604 
L 319.414748 249.048713 
L 319.414748 249.048713 
L 319.414748 242.661386 
L 319.767036 242.661386 
L 319.767036 236.274059 
L 319.767036 236.274059 
L 319.767036 229.886733 
L 319.96394 229.886733 
L 319.96394 223.499406 
L 319.96394 223.499406 
L 319.96394 217.112079 
L 319.96394 217.112079 
L 319.96394 217.112079 
L 460.8 217.112079 
" style="fill:none;stroke:#f5deb3;stroke-linecap:square;stroke-width:1.5;"/>
   </g>
   <g id="line2d_22">
    <path clip-path="url(#pecdd7c0865)" d="M 269.455425 293.76 
L 269.455425 287.372673 
L 270.084795 287.372673 
L 270.084795 280.985347 
L 275.737212 280.985347 
L 275.737212 274.59802 
L 282.591073 274.59802 
L 282.591073 268.210693 
L 285.889701 268.210693 
L 285.889701 261.823366 
L 287.680362 261.823366 
L 287.680362 255.43604 
L 289.928579 255.43604 
L 289.928579 249.048713 
L 298.01442 249.048713 
L 298.01442 242.661386 
L 298.519915 242.661386 
L 298.519915 236.274059 
L 299.337716 236.274059 
L 299.337716 229.886733 
L 299.618571 229.886733 
L 299.618571 223.499406 
L 301.131394 223.499406 
L 301.131394 217.112079 
L 302.067174 217.112079 
L 302.067174 210.724752 
L 314.774176 210.724752 
L 314.774176 204.337426 
L 320.484664 204.337426 
L 320.484664 197.950099 
L 461.8 197.950099 
" style="fill:none;stroke:#f5deb3;stroke-linecap:square;stroke-width:1.5;"/>
   </g>
   <g id="line2d_23">
    <path clip-path="url(#pecdd7c0865)" d="M 416.246272 293.76 
L 416.246272 287.372673 
L 416.246272 287.372673 
L 416.246272 287.372673 
L 460.8 287.372673 
" style="fill:none;stroke:#f5deb3;stroke-linecap:square;stroke-width:1.5;"/>
   </g>
   <g id="line2d_24">
    <path clip-path="url(#pecdd7c0865)" d="M 316.298035 293.76 
L 316.298035 287.372673 
L 318.340274 287.372673 
L 318.340274 280.985347 
L 320.95653 280.985347 
L 320.95653 274.59802 
L 321.82237 274.59802 
L 321.82237 268.210693 
L 326.793126 268.210693 
L 326.793126 261.823366 
L 326.886178 261.823366 
L 326.886178 255.43604 
L 327.714731 255.43604 
L 327.714731 249.048713 
L 328.741876 249.048713 
L 328.741876 242.661386 
L 331.550901 242.661386 
L 331.550901 236.274059 
L 331.866734 236.274059 
L 331.866734 229.886733 
L 331.932931 229.886733 
L 331.932931 223.499406 
L 333.235971 223.499406 
L 333.235971 217.112079 
L 336.480093 217.112079 
L 336.480093 210.724752 
L 339.358107 210.724752 
L 339.358107 204.337426 
L 341.397155 204.337426 
L 341.397155 197.950099 
L 342.575841 197.950099 
L 342.575841 191.562772 
L 343.153315 191.562772 
L 343.153315 185.175446 
L 427.023476 185.175446 
L 427.023476 178.788119 
L 427.40077 178.788119 
L 427.40077 172.400792 
L 427.510795 172.400792 
L 427.510795 166.013465 
L 430.021265 166.013465 
L 430.021265 159.626139 
L 430.433959 159.626139 
L 430.433959 153.238812 
L 442.940889 153.238812 
L 442.940889 146.851485 
L 461.8 146.851485 
" style="fill:none;stroke:#f5deb3;stroke-linecap:square;stroke-width:1.5;"/>
   </g>
   <g id="line2d_25">
    <path clip-path="url(#pecdd7c0865)" style="fill:none;stroke:#f5deb3;stroke-linecap:square;stroke-width:1.5;"/>
   </g>
   <g id="line2d_26">
    <path clip-path="url(#pecdd7c0865)" d="M 356.935458 293.76 
L 356.935458 287.372673 
L 359.688257 287.372673 
L 359.688257 280.985347 
L 364.250431 280.985347 
L 364.250431 274.59802 
L 364.460901 274.59802 
L 364.460901 268.210693 
L 365.001824 268.210693 
L 365.001824 261.823366 
L 365.32315 261.823366 
L 365.32315 255.43604 
L 365.422125 255.43604 
L 365.422125 249.048713 
L 366.429297 249.048713 
L 366.429297 242.661386 
L 367.224264 242.661386 
L 367.224264 236.274059 
L 367.580166 236.274059 
L 367.580166 229.886733 
L 371.259525 229.886733 
L 371.259525 223.499406 
L 371.623278 223.499406 
L 371.623278 217.112079 
L 373.277125 217.112079 
L 373.277125 210.724752 
L 384.604493 210.724752 
L 384.604493 204.337426 
L 389.496649 204.337426 
L 389.496649 197.950099 
L 422.362284 197.950099 
L 422.362284 191.562772 
L 427.930275 191.562772 
L 427.930275 185.175446 
L 449.551746 185.175446 
L 449.551746 178.788119 
L 461.8 178.788119 
" style="fill:none;stroke:#f5deb3;stroke-linecap:square;stroke-width:1.5;"/>
   </g>
   <g id="line2d_27">
    <path clip-path="url(#pecdd7c0865)" d="M 454.235889 293.76 
L 454.235889 287.372673 
L 458.839393 287.372673 
L 458.839393 280.985347 
L 458.839393 280.985347 
L 458.839393 274.59802 
L 461.8 274.59802 
" style="fill:none;stroke:#f5deb3;stroke-linecap:square;stroke-width:1.5;"/>
   </g>
   <g id="line2d_28">
    <path clip-path="url(#pecdd7c0865)" d="M 304.758484 293.76 
L 304.758484 287.372673 
L 306.103902 287.372673 
L 306.103902 280.985347 
L 308.929479 280.985347 
L 308.929479 274.59802 
L 309.098321 274.59802 
L 309.098321 268.210693 
L 310.643092 268.210693 
L 310.643092 261.823366 
L 311.528139 261.823366 
L 311.528139 255.43604 
L 313.550555 255.43604 
L 313.550555 249.048713 
L 315.579101 249.048713 
L 315.579101 242.661386 
L 319.126379 242.661386 
L 319.126379 236.274059 
L 321.633792 236.274059 
L 321.633792 229.886733 
L 322.134846 229.886733 
L 322.134846 223.499406 
L 324.81066 223.499406 
L 324.81066 217.112079 
L 326.154988 217.112079 
L 326.154988 210.724752 
L 327.201061 210.724752 
L 327.201061 204.337426 
L 329.378213 204.337426 
L 329.378213 197.950099 
L 436.734059 197.950099 
L 436.734059 191.562772 
L 438.932856 191.562772 
L 438.932856 185.175446 
L 441.094654 185.175446 
L 441.094654 178.788119 
L 446.050125 178.788119 
L 446.050125 172.400792 
L 461.8 172.400792 
" style="fill:none;stroke:#f5deb3;stroke-linecap:square;stroke-width:1.5;"/>
   </g>
   <g id="line2d_29"/>
   <g id="line2d_30"/>
   <g id="matplotlib.axis_1">
    <g id="xtick_1">
     <g id="line2d_31">
      <path clip-path="url(#pecdd7c0865)" d="M 62.208 293.76 
L 62.208 3.456 
" style="fill:none;stroke:#b0b0b0;stroke-linecap:square;stroke-width:0.8;"/>
     </g>
     <g id="line2d_32">
      <defs>
       <path d="M 0 0 
L 0 3.5 
" id="m4734a914d3" style="stroke:#000000;stroke-width:0.8;"/>
      </defs>
      <g>
       <use style="stroke:#000000;stroke-width:0.8;" x="62.208" xlink:href="#m4734a914d3" y="293.76"/>
      </g>
     </g>
     <g id="text_1">
      <!-- 0 -->
      <g transform="translate(55.8455 315.956875)scale(0.2 -0.2)">
       <defs>
        <path d="M 31.78125 66.40625 
Q 24.171875 66.40625 20.328125 58.90625 
Q 16.5 51.421875 16.5 36.375 
Q 16.5 21.390625 20.328125 13.890625 
Q 24.171875 6.390625 31.78125 6.390625 
Q 39.453125 6.390625 43.28125 13.890625 
Q 47.125 21.390625 47.125 36.375 
Q 47.125 51.421875 43.28125 58.90625 
Q 39.453125 66.40625 31.78125 66.40625 
z
M 31.78125 74.21875 
Q 44.046875 74.21875 50.515625 64.515625 
Q 56.984375 54.828125 56.984375 36.375 
Q 56.984375 17.96875 50.515625 8.265625 
Q 44.046875 -1.421875 31.78125 -1.421875 
Q 19.53125 -1.421875 13.0625 8.265625 
Q 6.59375 17.96875 6.59375 36.375 
Q 6.59375 54.828125 13.0625 64.515625 
Q 19.53125 74.21875 31.78125 74.21875 
z
" id="DejaVuSans-48"/>
       </defs>
       <use xlink:href="#DejaVuSans-48"/>
      </g>
     </g>
    </g>
    <g id="xtick_2">
     <g id="line2d_33">
      <path clip-path="url(#pecdd7c0865)" d="M 260.741643 293.76 
L 260.741643 3.456 
" style="fill:none;stroke:#b0b0b0;stroke-linecap:square;stroke-width:0.8;"/>
     </g>
     <g id="line2d_34">
      <g>
       <use style="stroke:#000000;stroke-width:0.8;" x="260.741643" xlink:href="#m4734a914d3" y="293.76"/>
      </g>
     </g>
     <g id="text_2">
      <!-- 2 -->
      <g transform="translate(254.379143 315.956875)scale(0.2 -0.2)">
       <defs>
        <path d="M 19.1875 8.296875 
L 53.609375 8.296875 
L 53.609375 0 
L 7.328125 0 
L 7.328125 8.296875 
Q 12.9375 14.109375 22.625 23.890625 
Q 32.328125 33.6875 34.8125 36.53125 
Q 39.546875 41.84375 41.421875 45.53125 
Q 43.3125 49.21875 43.3125 52.78125 
Q 43.3125 58.59375 39.234375 62.25 
Q 35.15625 65.921875 28.609375 65.921875 
Q 23.96875 65.921875 18.8125 64.3125 
Q 13.671875 62.703125 7.8125 59.421875 
L 7.8125 69.390625 
Q 13.765625 71.78125 18.9375 73 
Q 24.125 74.21875 28.421875 74.21875 
Q 39.75 74.21875 46.484375 68.546875 
Q 53.21875 62.890625 53.21875 53.421875 
Q 53.21875 48.921875 51.53125 44.890625 
Q 49.859375 40.875 45.40625 35.40625 
Q 44.1875 33.984375 37.640625 27.21875 
Q 31.109375 20.453125 19.1875 8.296875 
z
" id="DejaVuSans-50"/>
       </defs>
       <use xlink:href="#DejaVuSans-50"/>
      </g>
     </g>
    </g>
    <g id="xtick_3">
     <g id="line2d_35">
      <path clip-path="url(#pecdd7c0865)" d="M 459.275286 293.76 
L 459.275286 3.456 
" style="fill:none;stroke:#b0b0b0;stroke-linecap:square;stroke-width:0.8;"/>
     </g>
     <g id="line2d_36">
      <g>
       <use style="stroke:#000000;stroke-width:0.8;" x="459.275286" xlink:href="#m4734a914d3" y="293.76"/>
      </g>
     </g>
     <g id="text_3">
      <!-- 4 -->
      <g transform="translate(452.912786 315.956875)scale(0.2 -0.2)">
       <defs>
        <path d="M 37.796875 64.3125 
L 12.890625 25.390625 
L 37.796875 25.390625 
z
M 35.203125 72.90625 
L 47.609375 72.90625 
L 47.609375 25.390625 
L 58.015625 25.390625 
L 58.015625 17.1875 
L 47.609375 17.1875 
L 47.609375 0 
L 37.796875 0 
L 37.796875 17.1875 
L 4.890625 17.1875 
L 4.890625 26.703125 
z
" id="DejaVuSans-52"/>
       </defs>
       <use xlink:href="#DejaVuSans-52"/>
      </g>
     </g>
    </g>
    <g id="xtick_4">
     <g id="line2d_37">
      <path clip-path="url(#pecdd7c0865)" d="M 92.090291 293.76 
L 92.090291 3.456 
" style="fill:none;stroke:#b0b0b0;stroke-linecap:square;stroke-width:0.8;"/>
     </g>
     <g id="line2d_38">
      <defs>
       <path d="M 0 0 
L 0 2 
" id="m42c8bf7c4a" style="stroke:#000000;stroke-width:0.6;"/>
      </defs>
      <g>
       <use style="stroke:#000000;stroke-width:0.6;" x="92.090291" xlink:href="#m42c8bf7c4a" y="293.76"/>
      </g>
     </g>
    </g>
    <g id="xtick_5">
     <g id="line2d_39">
      <path clip-path="url(#pecdd7c0865)" d="M 109.57031 293.76 
L 109.57031 3.456 
" style="fill:none;stroke:#b0b0b0;stroke-linecap:square;stroke-width:0.8;"/>
     </g>
     <g id="line2d_40">
      <g>
       <use style="stroke:#000000;stroke-width:0.6;" x="109.57031" xlink:href="#m42c8bf7c4a" y="293.76"/>
      </g>
     </g>
    </g>
    <g id="xtick_6">
     <g id="line2d_41">
      <path clip-path="url(#pecdd7c0865)" d="M 121.972582 293.76 
L 121.972582 3.456 
" style="fill:none;stroke:#b0b0b0;stroke-linecap:square;stroke-width:0.8;"/>
     </g>
     <g id="line2d_42">
      <g>
       <use style="stroke:#000000;stroke-width:0.6;" x="121.972582" xlink:href="#m42c8bf7c4a" y="293.76"/>
      </g>
     </g>
    </g>
    <g id="xtick_7">
     <g id="line2d_43">
      <path clip-path="url(#pecdd7c0865)" d="M 131.592531 293.76 
L 131.592531 3.456 
" style="fill:none;stroke:#b0b0b0;stroke-linecap:square;stroke-width:0.8;"/>
     </g>
     <g id="line2d_44">
      <g>
       <use style="stroke:#000000;stroke-width:0.6;" x="131.592531" xlink:href="#m42c8bf7c4a" y="293.76"/>
      </g>
     </g>
    </g>
    <g id="xtick_8">
     <g id="line2d_45">
      <path clip-path="url(#pecdd7c0865)" d="M 139.452601 293.76 
L 139.452601 3.456 
" style="fill:none;stroke:#b0b0b0;stroke-linecap:square;stroke-width:0.8;"/>
     </g>
     <g id="line2d_46">
      <g>
       <use style="stroke:#000000;stroke-width:0.6;" x="139.452601" xlink:href="#m42c8bf7c4a" y="293.76"/>
      </g>
     </g>
    </g>
    <g id="xtick_9">
     <g id="line2d_47">
      <path clip-path="url(#pecdd7c0865)" d="M 146.098196 293.76 
L 146.098196 3.456 
" style="fill:none;stroke:#b0b0b0;stroke-linecap:square;stroke-width:0.8;"/>
     </g>
     <g id="line2d_48">
      <g>
       <use style="stroke:#000000;stroke-width:0.6;" x="146.098196" xlink:href="#m42c8bf7c4a" y="293.76"/>
      </g>
     </g>
    </g>
    <g id="xtick_10">
     <g id="line2d_49">
      <path clip-path="url(#pecdd7c0865)" d="M 151.854873 293.76 
L 151.854873 3.456 
" style="fill:none;stroke:#b0b0b0;stroke-linecap:square;stroke-width:0.8;"/>
     </g>
     <g id="line2d_50">
      <g>
       <use style="stroke:#000000;stroke-width:0.6;" x="151.854873" xlink:href="#m42c8bf7c4a" y="293.76"/>
      </g>
     </g>
    </g>
    <g id="xtick_11">
     <g id="line2d_51">
      <path clip-path="url(#pecdd7c0865)" d="M 156.932621 293.76 
L 156.932621 3.456 
" style="fill:none;stroke:#b0b0b0;stroke-linecap:square;stroke-width:0.8;"/>
     </g>
     <g id="line2d_52">
      <g>
       <use style="stroke:#000000;stroke-width:0.6;" x="156.932621" xlink:href="#m42c8bf7c4a" y="293.76"/>
      </g>
     </g>
    </g>
    <g id="xtick_12">
     <g id="line2d_53">
      <path clip-path="url(#pecdd7c0865)" d="M 191.357112 293.76 
L 191.357112 3.456 
" style="fill:none;stroke:#b0b0b0;stroke-linecap:square;stroke-width:0.8;"/>
     </g>
     <g id="line2d_54">
      <g>
       <use style="stroke:#000000;stroke-width:0.6;" x="191.357112" xlink:href="#m42c8bf7c4a" y="293.76"/>
      </g>
     </g>
    </g>
    <g id="xtick_13">
     <g id="line2d_55">
      <path clip-path="url(#pecdd7c0865)" d="M 208.837132 293.76 
L 208.837132 3.456 
" style="fill:none;stroke:#b0b0b0;stroke-linecap:square;stroke-width:0.8;"/>
     </g>
     <g id="line2d_56">
      <g>
       <use style="stroke:#000000;stroke-width:0.6;" x="208.837132" xlink:href="#m42c8bf7c4a" y="293.76"/>
      </g>
     </g>
    </g>
    <g id="xtick_14">
     <g id="line2d_57">
      <path clip-path="url(#pecdd7c0865)" d="M 221.239403 293.76 
L 221.239403 3.456 
" style="fill:none;stroke:#b0b0b0;stroke-linecap:square;stroke-width:0.8;"/>
     </g>
     <g id="line2d_58">
      <g>
       <use style="stroke:#000000;stroke-width:0.6;" x="221.239403" xlink:href="#m42c8bf7c4a" y="293.76"/>
      </g>
     </g>
    </g>
    <g id="xtick_15">
     <g id="line2d_59">
      <path clip-path="url(#pecdd7c0865)" d="M 230.859352 293.76 
L 230.859352 3.456 
" style="fill:none;stroke:#b0b0b0;stroke-linecap:square;stroke-width:0.8;"/>
     </g>
     <g id="line2d_60">
      <g>
       <use style="stroke:#000000;stroke-width:0.6;" x="230.859352" xlink:href="#m42c8bf7c4a" y="293.76"/>
      </g>
     </g>
    </g>
    <g id="xtick_16">
     <g id="line2d_61">
      <path clip-path="url(#pecdd7c0865)" d="M 238.719423 293.76 
L 238.719423 3.456 
" style="fill:none;stroke:#b0b0b0;stroke-linecap:square;stroke-width:0.8;"/>
     </g>
     <g id="line2d_62">
      <g>
       <use style="stroke:#000000;stroke-width:0.6;" x="238.719423" xlink:href="#m42c8bf7c4a" y="293.76"/>
      </g>
     </g>
    </g>
    <g id="xtick_17">
     <g id="line2d_63">
      <path clip-path="url(#pecdd7c0865)" d="M 245.365018 293.76 
L 245.365018 3.456 
" style="fill:none;stroke:#b0b0b0;stroke-linecap:square;stroke-width:0.8;"/>
     </g>
     <g id="line2d_64">
      <g>
       <use style="stroke:#000000;stroke-width:0.6;" x="245.365018" xlink:href="#m42c8bf7c4a" y="293.76"/>
      </g>
     </g>
    </g>
    <g id="xtick_18">
     <g id="line2d_65">
      <path clip-path="url(#pecdd7c0865)" d="M 251.121694 293.76 
L 251.121694 3.456 
" style="fill:none;stroke:#b0b0b0;stroke-linecap:square;stroke-width:0.8;"/>
     </g>
     <g id="line2d_66">
      <g>
       <use style="stroke:#000000;stroke-width:0.6;" x="251.121694" xlink:href="#m42c8bf7c4a" y="293.76"/>
      </g>
     </g>
    </g>
    <g id="xtick_19">
     <g id="line2d_67">
      <path clip-path="url(#pecdd7c0865)" d="M 256.199442 293.76 
L 256.199442 3.456 
" style="fill:none;stroke:#b0b0b0;stroke-linecap:square;stroke-width:0.8;"/>
     </g>
     <g id="line2d_68">
      <g>
       <use style="stroke:#000000;stroke-width:0.6;" x="256.199442" xlink:href="#m42c8bf7c4a" y="293.76"/>
      </g>
     </g>
    </g>
    <g id="xtick_20">
     <g id="line2d_69">
      <path clip-path="url(#pecdd7c0865)" d="M 290.623934 293.76 
L 290.623934 3.456 
" style="fill:none;stroke:#b0b0b0;stroke-linecap:square;stroke-width:0.8;"/>
     </g>
     <g id="line2d_70">
      <g>
       <use style="stroke:#000000;stroke-width:0.6;" x="290.623934" xlink:href="#m42c8bf7c4a" y="293.76"/>
      </g>
     </g>
    </g>
    <g id="xtick_21">
     <g id="line2d_71">
      <path clip-path="url(#pecdd7c0865)" d="M 308.103953 293.76 
L 308.103953 3.456 
" style="fill:none;stroke:#b0b0b0;stroke-linecap:square;stroke-width:0.8;"/>
     </g>
     <g id="line2d_72">
      <g>
       <use style="stroke:#000000;stroke-width:0.6;" x="308.103953" xlink:href="#m42c8bf7c4a" y="293.76"/>
      </g>
     </g>
    </g>
    <g id="xtick_22">
     <g id="line2d_73">
      <path clip-path="url(#pecdd7c0865)" d="M 320.506225 293.76 
L 320.506225 3.456 
" style="fill:none;stroke:#b0b0b0;stroke-linecap:square;stroke-width:0.8;"/>
     </g>
     <g id="line2d_74">
      <g>
       <use style="stroke:#000000;stroke-width:0.6;" x="320.506225" xlink:href="#m42c8bf7c4a" y="293.76"/>
      </g>
     </g>
    </g>
    <g id="xtick_23">
     <g id="line2d_75">
      <path clip-path="url(#pecdd7c0865)" d="M 330.126174 293.76 
L 330.126174 3.456 
" style="fill:none;stroke:#b0b0b0;stroke-linecap:square;stroke-width:0.8;"/>
     </g>
     <g id="line2d_76">
      <g>
       <use style="stroke:#000000;stroke-width:0.6;" x="330.126174" xlink:href="#m42c8bf7c4a" y="293.76"/>
      </g>
     </g>
    </g>
    <g id="xtick_24">
     <g id="line2d_77">
      <path clip-path="url(#pecdd7c0865)" d="M 337.986244 293.76 
L 337.986244 3.456 
" style="fill:none;stroke:#b0b0b0;stroke-linecap:square;stroke-width:0.8;"/>
     </g>
     <g id="line2d_78">
      <g>
       <use style="stroke:#000000;stroke-width:0.6;" x="337.986244" xlink:href="#m42c8bf7c4a" y="293.76"/>
      </g>
     </g>
    </g>
    <g id="xtick_25">
     <g id="line2d_79">
      <path clip-path="url(#pecdd7c0865)" d="M 344.631839 293.76 
L 344.631839 3.456 
" style="fill:none;stroke:#b0b0b0;stroke-linecap:square;stroke-width:0.8;"/>
     </g>
     <g id="line2d_80">
      <g>
       <use style="stroke:#000000;stroke-width:0.6;" x="344.631839" xlink:href="#m42c8bf7c4a" y="293.76"/>
      </g>
     </g>
    </g>
    <g id="xtick_26">
     <g id="line2d_81">
      <path clip-path="url(#pecdd7c0865)" d="M 350.388515 293.76 
L 350.388515 3.456 
" style="fill:none;stroke:#b0b0b0;stroke-linecap:square;stroke-width:0.8;"/>
     </g>
     <g id="line2d_82">
      <g>
       <use style="stroke:#000000;stroke-width:0.6;" x="350.388515" xlink:href="#m42c8bf7c4a" y="293.76"/>
      </g>
     </g>
    </g>
    <g id="xtick_27">
     <g id="line2d_83">
      <path clip-path="url(#pecdd7c0865)" d="M 355.466264 293.76 
L 355.466264 3.456 
" style="fill:none;stroke:#b0b0b0;stroke-linecap:square;stroke-width:0.8;"/>
     </g>
     <g id="line2d_84">
      <g>
       <use style="stroke:#000000;stroke-width:0.6;" x="355.466264" xlink:href="#m42c8bf7c4a" y="293.76"/>
      </g>
     </g>
    </g>
    <g id="xtick_28">
     <g id="line2d_85">
      <path clip-path="url(#pecdd7c0865)" d="M 389.890755 293.76 
L 389.890755 3.456 
" style="fill:none;stroke:#b0b0b0;stroke-linecap:square;stroke-width:0.8;"/>
     </g>
     <g id="line2d_86">
      <g>
       <use style="stroke:#000000;stroke-width:0.6;" x="389.890755" xlink:href="#m42c8bf7c4a" y="293.76"/>
      </g>
     </g>
    </g>
    <g id="xtick_29">
     <g id="line2d_87">
      <path clip-path="url(#pecdd7c0865)" d="M 407.370775 293.76 
L 407.370775 3.456 
" style="fill:none;stroke:#b0b0b0;stroke-linecap:square;stroke-width:0.8;"/>
     </g>
     <g id="line2d_88">
      <g>
       <use style="stroke:#000000;stroke-width:0.6;" x="407.370775" xlink:href="#m42c8bf7c4a" y="293.76"/>
      </g>
     </g>
    </g>
    <g id="xtick_30">
     <g id="line2d_89">
      <path clip-path="url(#pecdd7c0865)" d="M 419.773046 293.76 
L 419.773046 3.456 
" style="fill:none;stroke:#b0b0b0;stroke-linecap:square;stroke-width:0.8;"/>
     </g>
     <g id="line2d_90">
      <g>
       <use style="stroke:#000000;stroke-width:0.6;" x="419.773046" xlink:href="#m42c8bf7c4a" y="293.76"/>
      </g>
     </g>
    </g>
    <g id="xtick_31">
     <g id="line2d_91">
      <path clip-path="url(#pecdd7c0865)" d="M 429.392995 293.76 
L 429.392995 3.456 
" style="fill:none;stroke:#b0b0b0;stroke-linecap:square;stroke-width:0.8;"/>
     </g>
     <g id="line2d_92">
      <g>
       <use style="stroke:#000000;stroke-width:0.6;" x="429.392995" xlink:href="#m42c8bf7c4a" y="293.76"/>
      </g>
     </g>
    </g>
    <g id="xtick_32">
     <g id="line2d_93">
      <path clip-path="url(#pecdd7c0865)" d="M 437.253066 293.76 
L 437.253066 3.456 
" style="fill:none;stroke:#b0b0b0;stroke-linecap:square;stroke-width:0.8;"/>
     </g>
     <g id="line2d_94">
      <g>
       <use style="stroke:#000000;stroke-width:0.6;" x="437.253066" xlink:href="#m42c8bf7c4a" y="293.76"/>
      </g>
     </g>
    </g>
    <g id="xtick_33">
     <g id="line2d_95">
      <path clip-path="url(#pecdd7c0865)" d="M 443.898661 293.76 
L 443.898661 3.456 
" style="fill:none;stroke:#b0b0b0;stroke-linecap:square;stroke-width:0.8;"/>
     </g>
     <g id="line2d_96">
      <g>
       <use style="stroke:#000000;stroke-width:0.6;" x="443.898661" xlink:href="#m42c8bf7c4a" y="293.76"/>
      </g>
     </g>
    </g>
    <g id="xtick_34">
     <g id="line2d_97">
      <path clip-path="url(#pecdd7c0865)" d="M 449.655337 293.76 
L 449.655337 3.456 
" style="fill:none;stroke:#b0b0b0;stroke-linecap:square;stroke-width:0.8;"/>
     </g>
     <g id="line2d_98">
      <g>
       <use style="stroke:#000000;stroke-width:0.6;" x="449.655337" xlink:href="#m42c8bf7c4a" y="293.76"/>
      </g>
     </g>
    </g>
    <g id="xtick_35">
     <g id="line2d_99">
      <path clip-path="url(#pecdd7c0865)" d="M 454.733085 293.76 
L 454.733085 3.456 
" style="fill:none;stroke:#b0b0b0;stroke-linecap:square;stroke-width:0.8;"/>
     </g>
     <g id="line2d_100">
      <g>
       <use style="stroke:#000000;stroke-width:0.6;" x="454.733085" xlink:href="#m42c8bf7c4a" y="293.76"/>
      </g>
     </g>
    </g>
    <g id="text_4">
     <!-- log10 of evals / DIM -->
     <g transform="translate(162.34775 339.313125)scale(0.2 -0.2)">
      <defs>
       <path d="M 9.421875 75.984375 
L 18.40625 75.984375 
L 18.40625 0 
L 9.421875 0 
z
" id="DejaVuSans-108"/>
       <path d="M 30.609375 48.390625 
Q 23.390625 48.390625 19.1875 42.75 
Q 14.984375 37.109375 14.984375 27.296875 
Q 14.984375 17.484375 19.15625 11.84375 
Q 23.34375 6.203125 30.609375 6.203125 
Q 37.796875 6.203125 41.984375 11.859375 
Q 46.1875 17.53125 46.1875 27.296875 
Q 46.1875 37.015625 41.984375 42.703125 
Q 37.796875 48.390625 30.609375 48.390625 
z
M 30.609375 56 
Q 42.328125 56 49.015625 48.375 
Q 55.71875 40.765625 55.71875 27.296875 
Q 55.71875 13.875 49.015625 6.21875 
Q 42.328125 -1.421875 30.609375 -1.421875 
Q 18.84375 -1.421875 12.171875 6.21875 
Q 5.515625 13.875 5.515625 27.296875 
Q 5.515625 40.765625 12.171875 48.375 
Q 18.84375 56 30.609375 56 
z
" id="DejaVuSans-111"/>
       <path d="M 45.40625 27.984375 
Q 45.40625 37.75 41.375 43.109375 
Q 37.359375 48.484375 30.078125 48.484375 
Q 22.859375 48.484375 18.828125 43.109375 
Q 14.796875 37.75 14.796875 27.984375 
Q 14.796875 18.265625 18.828125 12.890625 
Q 22.859375 7.515625 30.078125 7.515625 
Q 37.359375 7.515625 41.375 12.890625 
Q 45.40625 18.265625 45.40625 27.984375 
z
M 54.390625 6.78125 
Q 54.390625 -7.171875 48.1875 -13.984375 
Q 42 -20.796875 29.203125 -20.796875 
Q 24.46875 -20.796875 20.265625 -20.09375 
Q 16.0625 -19.390625 12.109375 -17.921875 
L 12.109375 -9.1875 
Q 16.0625 -11.328125 19.921875 -12.34375 
Q 23.78125 -13.375 27.78125 -13.375 
Q 36.625 -13.375 41.015625 -8.765625 
Q 45.40625 -4.15625 45.40625 5.171875 
L 45.40625 9.625 
Q 42.625 4.78125 38.28125 2.390625 
Q 33.9375 0 27.875 0 
Q 17.828125 0 11.671875 7.65625 
Q 5.515625 15.328125 5.515625 27.984375 
Q 5.515625 40.671875 11.671875 48.328125 
Q 17.828125 56 27.875 56 
Q 33.9375 56 38.28125 53.609375 
Q 42.625 51.21875 45.40625 46.390625 
L 45.40625 54.6875 
L 54.390625 54.6875 
z
" id="DejaVuSans-103"/>
       <path d="M 12.40625 8.296875 
L 28.515625 8.296875 
L 28.515625 63.921875 
L 10.984375 60.40625 
L 10.984375 69.390625 
L 28.421875 72.90625 
L 38.28125 72.90625 
L 38.28125 8.296875 
L 54.390625 8.296875 
L 54.390625 0 
L 12.40625 0 
z
" id="DejaVuSans-49"/>
       <path id="DejaVuSans-32"/>
       <path d="M 37.109375 75.984375 
L 37.109375 68.5 
L 28.515625 68.5 
Q 23.6875 68.5 21.796875 66.546875 
Q 19.921875 64.59375 19.921875 59.515625 
L 19.921875 54.6875 
L 34.71875 54.6875 
L 34.71875 47.703125 
L 19.921875 47.703125 
L 19.921875 0 
L 10.890625 0 
L 10.890625 47.703125 
L 2.296875 47.703125 
L 2.296875 54.6875 
L 10.890625 54.6875 
L 10.890625 58.5 
Q 10.890625 67.625 15.140625 71.796875 
Q 19.390625 75.984375 28.609375 75.984375 
z
" id="DejaVuSans-102"/>
       <path d="M 56.203125 29.59375 
L 56.203125 25.203125 
L 14.890625 25.203125 
Q 15.484375 15.921875 20.484375 11.0625 
Q 25.484375 6.203125 34.421875 6.203125 
Q 39.59375 6.203125 44.453125 7.46875 
Q 49.3125 8.734375 54.109375 11.28125 
L 54.109375 2.78125 
Q 49.265625 0.734375 44.1875 -0.34375 
Q 39.109375 -1.421875 33.890625 -1.421875 
Q 20.796875 -1.421875 13.15625 6.1875 
Q 5.515625 13.8125 5.515625 26.8125 
Q 5.515625 40.234375 12.765625 48.109375 
Q 20.015625 56 32.328125 56 
Q 43.359375 56 49.78125 48.890625 
Q 56.203125 41.796875 56.203125 29.59375 
z
M 47.21875 32.234375 
Q 47.125 39.59375 43.09375 43.984375 
Q 39.0625 48.390625 32.421875 48.390625 
Q 24.90625 48.390625 20.390625 44.140625 
Q 15.875 39.890625 15.1875 32.171875 
z
" id="DejaVuSans-101"/>
       <path d="M 2.984375 54.6875 
L 12.5 54.6875 
L 29.59375 8.796875 
L 46.6875 54.6875 
L 56.203125 54.6875 
L 35.6875 0 
L 23.484375 0 
z
" id="DejaVuSans-118"/>
       <path d="M 34.28125 27.484375 
Q 23.390625 27.484375 19.1875 25 
Q 14.984375 22.515625 14.984375 16.5 
Q 14.984375 11.71875 18.140625 8.90625 
Q 21.296875 6.109375 26.703125 6.109375 
Q 34.1875 6.109375 38.703125 11.40625 
Q 43.21875 16.703125 43.21875 25.484375 
L 43.21875 27.484375 
z
M 52.203125 31.203125 
L 52.203125 0 
L 43.21875 0 
L 43.21875 8.296875 
Q 40.140625 3.328125 35.546875 0.953125 
Q 30.953125 -1.421875 24.3125 -1.421875 
Q 15.921875 -1.421875 10.953125 3.296875 
Q 6 8.015625 6 15.921875 
Q 6 25.140625 12.171875 29.828125 
Q 18.359375 34.515625 30.609375 34.515625 
L 43.21875 34.515625 
L 43.21875 35.40625 
Q 43.21875 41.609375 39.140625 45 
Q 35.0625 48.390625 27.6875 48.390625 
Q 23 48.390625 18.546875 47.265625 
Q 14.109375 46.140625 10.015625 43.890625 
L 10.015625 52.203125 
Q 14.9375 54.109375 19.578125 55.046875 
Q 24.21875 56 28.609375 56 
Q 40.484375 56 46.34375 49.84375 
Q 52.203125 43.703125 52.203125 31.203125 
z
" id="DejaVuSans-97"/>
       <path d="M 44.28125 53.078125 
L 44.28125 44.578125 
Q 40.484375 46.53125 36.375 47.5 
Q 32.28125 48.484375 27.875 48.484375 
Q 21.1875 48.484375 17.84375 46.4375 
Q 14.5 44.390625 14.5 40.28125 
Q 14.5 37.15625 16.890625 35.375 
Q 19.28125 33.59375 26.515625 31.984375 
L 29.59375 31.296875 
Q 39.15625 29.25 43.1875 25.515625 
Q 47.21875 21.78125 47.21875 15.09375 
Q 47.21875 7.46875 41.1875 3.015625 
Q 35.15625 -1.421875 24.609375 -1.421875 
Q 20.21875 -1.421875 15.453125 -0.5625 
Q 10.6875 0.296875 5.421875 2 
L 5.421875 11.28125 
Q 10.40625 8.6875 15.234375 7.390625 
Q 20.0625 6.109375 24.8125 6.109375 
Q 31.15625 6.109375 34.5625 8.28125 
Q 37.984375 10.453125 37.984375 14.40625 
Q 37.984375 18.0625 35.515625 20.015625 
Q 33.0625 21.96875 24.703125 23.78125 
L 21.578125 24.515625 
Q 13.234375 26.265625 9.515625 29.90625 
Q 5.8125 33.546875 5.8125 39.890625 
Q 5.8125 47.609375 11.28125 51.796875 
Q 16.75 56 26.8125 56 
Q 31.78125 56 36.171875 55.265625 
Q 40.578125 54.546875 44.28125 53.078125 
z
" id="DejaVuSans-115"/>
       <path d="M 25.390625 72.90625 
L 33.6875 72.90625 
L 8.296875 -9.28125 
L 0 -9.28125 
z
" id="DejaVuSans-47"/>
       <path d="M 19.671875 64.796875 
L 19.671875 8.109375 
L 31.59375 8.109375 
Q 46.6875 8.109375 53.6875 14.9375 
Q 60.6875 21.78125 60.6875 36.53125 
Q 60.6875 51.171875 53.6875 57.984375 
Q 46.6875 64.796875 31.59375 64.796875 
z
M 9.8125 72.90625 
L 30.078125 72.90625 
Q 51.265625 72.90625 61.171875 64.09375 
Q 71.09375 55.28125 71.09375 36.53125 
Q 71.09375 17.671875 61.125 8.828125 
Q 51.171875 0 30.078125 0 
L 9.8125 0 
z
" id="DejaVuSans-68"/>
       <path d="M 9.8125 72.90625 
L 19.671875 72.90625 
L 19.671875 0 
L 9.8125 0 
z
" id="DejaVuSans-73"/>
       <path d="M 9.8125 72.90625 
L 24.515625 72.90625 
L 43.109375 23.296875 
L 61.8125 72.90625 
L 76.515625 72.90625 
L 76.515625 0 
L 66.890625 0 
L 66.890625 64.015625 
L 48.09375 14.015625 
L 38.1875 14.015625 
L 19.390625 64.015625 
L 19.390625 0 
L 9.8125 0 
z
" id="DejaVuSans-77"/>
      </defs>
      <use xlink:href="#DejaVuSans-108"/>
      <use x="27.783203" xlink:href="#DejaVuSans-111"/>
      <use x="88.964844" xlink:href="#DejaVuSans-103"/>
      <use x="152.441406" xlink:href="#DejaVuSans-49"/>
      <use x="216.064453" xlink:href="#DejaVuSans-48"/>
      <use x="279.6875" xlink:href="#DejaVuSans-32"/>
      <use x="311.474609" xlink:href="#DejaVuSans-111"/>
      <use x="372.65625" xlink:href="#DejaVuSans-102"/>
      <use x="407.861328" xlink:href="#DejaVuSans-32"/>
      <use x="439.648438" xlink:href="#DejaVuSans-101"/>
      <use x="501.171875" xlink:href="#DejaVuSans-118"/>
      <use x="560.351562" xlink:href="#DejaVuSans-97"/>
      <use x="621.630859" xlink:href="#DejaVuSans-108"/>
      <use x="649.414062" xlink:href="#DejaVuSans-115"/>
      <use x="701.513672" xlink:href="#DejaVuSans-32"/>
      <use x="733.300781" xlink:href="#DejaVuSans-47"/>
      <use x="766.992188" xlink:href="#DejaVuSans-32"/>
      <use x="798.779297" xlink:href="#DejaVuSans-68"/>
      <use x="875.78125" xlink:href="#DejaVuSans-73"/>
      <use x="905.273438" xlink:href="#DejaVuSans-77"/>
     </g>
    </g>
   </g>
   <g id="matplotlib.axis_2">
    <g id="ytick_1">
     <g id="line2d_101">
      <path clip-path="url(#pecdd7c0865)" d="M 62.208 293.76 
L 460.8 293.76 
" style="fill:none;stroke:#b0b0b0;stroke-linecap:square;stroke-width:0.8;"/>
     </g>
     <g id="line2d_102">
      <defs>
       <path d="M 0 0 
L -3.5 0 
" id="m1b1d887c2a" style="stroke:#000000;stroke-width:0.8;"/>
      </defs>
      <g>
       <use style="stroke:#000000;stroke-width:0.8;" x="62.208" xlink:href="#m1b1d887c2a" y="293.76"/>
      </g>
     </g>
     <g id="text_5">
      <!-- 0.0 -->
      <g transform="translate(29.763 299.83875)scale(0.16 -0.16)">
       <defs>
        <path d="M 10.6875 12.40625 
L 21 12.40625 
L 21 0 
L 10.6875 0 
z
" id="DejaVuSans-46"/>
       </defs>
       <use xlink:href="#DejaVuSans-48"/>
       <use x="63.623047" xlink:href="#DejaVuSans-46"/>
       <use x="95.410156" xlink:href="#DejaVuSans-48"/>
      </g>
     </g>
    </g>
    <g id="ytick_2">
     <g id="line2d_103">
      <path clip-path="url(#pecdd7c0865)" d="M 62.208 236.274059 
L 460.8 236.274059 
" style="fill:none;stroke:#b0b0b0;stroke-linecap:square;stroke-width:0.8;"/>
     </g>
     <g id="line2d_104">
      <g>
       <use style="stroke:#000000;stroke-width:0.8;" x="62.208" xlink:href="#m1b1d887c2a" y="236.274059"/>
      </g>
     </g>
     <g id="text_6">
      <!-- 0.2 -->
      <g transform="translate(29.763 242.352809)scale(0.16 -0.16)">
       <use xlink:href="#DejaVuSans-48"/>
       <use x="63.623047" xlink:href="#DejaVuSans-46"/>
       <use x="95.410156" xlink:href="#DejaVuSans-50"/>
      </g>
     </g>
    </g>
    <g id="ytick_3">
     <g id="line2d_105">
      <path clip-path="url(#pecdd7c0865)" d="M 62.208 178.788119 
L 460.8 178.788119 
" style="fill:none;stroke:#b0b0b0;stroke-linecap:square;stroke-width:0.8;"/>
     </g>
     <g id="line2d_106">
      <g>
       <use style="stroke:#000000;stroke-width:0.8;" x="62.208" xlink:href="#m1b1d887c2a" y="178.788119"/>
      </g>
     </g>
     <g id="text_7">
      <!-- 0.4 -->
      <g transform="translate(29.763 184.866869)scale(0.16 -0.16)">
       <use xlink:href="#DejaVuSans-48"/>
       <use x="63.623047" xlink:href="#DejaVuSans-46"/>
       <use x="95.410156" xlink:href="#DejaVuSans-52"/>
      </g>
     </g>
    </g>
    <g id="ytick_4">
     <g id="line2d_107">
      <path clip-path="url(#pecdd7c0865)" d="M 62.208 121.302178 
L 460.8 121.302178 
" style="fill:none;stroke:#b0b0b0;stroke-linecap:square;stroke-width:0.8;"/>
     </g>
     <g id="line2d_108">
      <g>
       <use style="stroke:#000000;stroke-width:0.8;" x="62.208" xlink:href="#m1b1d887c2a" y="121.302178"/>
      </g>
     </g>
     <g id="text_8">
      <!-- 0.6 -->
      <g transform="translate(29.763 127.380928)scale(0.16 -0.16)">
       <defs>
        <path d="M 33.015625 40.375 
Q 26.375 40.375 22.484375 35.828125 
Q 18.609375 31.296875 18.609375 23.390625 
Q 18.609375 15.53125 22.484375 10.953125 
Q 26.375 6.390625 33.015625 6.390625 
Q 39.65625 6.390625 43.53125 10.953125 
Q 47.40625 15.53125 47.40625 23.390625 
Q 47.40625 31.296875 43.53125 35.828125 
Q 39.65625 40.375 33.015625 40.375 
z
M 52.59375 71.296875 
L 52.59375 62.3125 
Q 48.875 64.0625 45.09375 64.984375 
Q 41.3125 65.921875 37.59375 65.921875 
Q 27.828125 65.921875 22.671875 59.328125 
Q 17.53125 52.734375 16.796875 39.40625 
Q 19.671875 43.65625 24.015625 45.921875 
Q 28.375 48.1875 33.59375 48.1875 
Q 44.578125 48.1875 50.953125 41.515625 
Q 57.328125 34.859375 57.328125 23.390625 
Q 57.328125 12.15625 50.6875 5.359375 
Q 44.046875 -1.421875 33.015625 -1.421875 
Q 20.359375 -1.421875 13.671875 8.265625 
Q 6.984375 17.96875 6.984375 36.375 
Q 6.984375 53.65625 15.1875 63.9375 
Q 23.390625 74.21875 37.203125 74.21875 
Q 40.921875 74.21875 44.703125 73.484375 
Q 48.484375 72.75 52.59375 71.296875 
z
" id="DejaVuSans-54"/>
       </defs>
       <use xlink:href="#DejaVuSans-48"/>
       <use x="63.623047" xlink:href="#DejaVuSans-46"/>
       <use x="95.410156" xlink:href="#DejaVuSans-54"/>
      </g>
     </g>
    </g>
    <g id="ytick_5">
     <g id="line2d_109">
      <path clip-path="url(#pecdd7c0865)" d="M 62.208 63.816238 
L 460.8 63.816238 
" style="fill:none;stroke:#b0b0b0;stroke-linecap:square;stroke-width:0.8;"/>
     </g>
     <g id="line2d_110">
      <g>
       <use style="stroke:#000000;stroke-width:0.8;" x="62.208" xlink:href="#m1b1d887c2a" y="63.816238"/>
      </g>
     </g>
     <g id="text_9">
      <!-- 0.8 -->
      <g transform="translate(29.763 69.894988)scale(0.16 -0.16)">
       <defs>
        <path d="M 31.78125 34.625 
Q 24.75 34.625 20.71875 30.859375 
Q 16.703125 27.09375 16.703125 20.515625 
Q 16.703125 13.921875 20.71875 10.15625 
Q 24.75 6.390625 31.78125 6.390625 
Q 38.8125 6.390625 42.859375 10.171875 
Q 46.921875 13.96875 46.921875 20.515625 
Q 46.921875 27.09375 42.890625 30.859375 
Q 38.875 34.625 31.78125 34.625 
z
M 21.921875 38.8125 
Q 15.578125 40.375 12.03125 44.71875 
Q 8.5 49.078125 8.5 55.328125 
Q 8.5 64.0625 14.71875 69.140625 
Q 20.953125 74.21875 31.78125 74.21875 
Q 42.671875 74.21875 48.875 69.140625 
Q 55.078125 64.0625 55.078125 55.328125 
Q 55.078125 49.078125 51.53125 44.71875 
Q 48 40.375 41.703125 38.8125 
Q 48.828125 37.15625 52.796875 32.3125 
Q 56.78125 27.484375 56.78125 20.515625 
Q 56.78125 9.90625 50.3125 4.234375 
Q 43.84375 -1.421875 31.78125 -1.421875 
Q 19.734375 -1.421875 13.25 4.234375 
Q 6.78125 9.90625 6.78125 20.515625 
Q 6.78125 27.484375 10.78125 32.3125 
Q 14.796875 37.15625 21.921875 38.8125 
z
M 18.3125 54.390625 
Q 18.3125 48.734375 21.84375 45.5625 
Q 25.390625 42.390625 31.78125 42.390625 
Q 38.140625 42.390625 41.71875 45.5625 
Q 45.3125 48.734375 45.3125 54.390625 
Q 45.3125 60.0625 41.71875 63.234375 
Q 38.140625 66.40625 31.78125 66.40625 
Q 25.390625 66.40625 21.84375 63.234375 
Q 18.3125 60.0625 18.3125 54.390625 
z
" id="DejaVuSans-56"/>
       </defs>
       <use xlink:href="#DejaVuSans-48"/>
       <use x="63.623047" xlink:href="#DejaVuSans-46"/>
       <use x="95.410156" xlink:href="#DejaVuSans-56"/>
      </g>
     </g>
    </g>
    <g id="ytick_6">
     <g id="line2d_111">
      <path clip-path="url(#pecdd7c0865)" d="M 62.208 6.330297 
L 460.8 6.330297 
" style="fill:none;stroke:#b0b0b0;stroke-linecap:square;stroke-width:0.8;"/>
     </g>
     <g id="line2d_112">
      <g>
       <use style="stroke:#000000;stroke-width:0.8;" x="62.208" xlink:href="#m1b1d887c2a" y="6.330297"/>
      </g>
     </g>
     <g id="text_10">
      <!-- 1.0 -->
      <g transform="translate(29.763 12.409047)scale(0.16 -0.16)">
       <use xlink:href="#DejaVuSans-49"/>
       <use x="63.623047" xlink:href="#DejaVuSans-46"/>
       <use x="95.410156" xlink:href="#DejaVuSans-48"/>
      </g>
     </g>
    </g>
    <g id="text_11">
     <!-- proportion of trials -->
     <g transform="translate(21.603625 241.61425)rotate(-90)scale(0.2 -0.2)">
      <defs>
       <path d="M 18.109375 8.203125 
L 18.109375 -20.796875 
L 9.078125 -20.796875 
L 9.078125 54.6875 
L 18.109375 54.6875 
L 18.109375 46.390625 
Q 20.953125 51.265625 25.265625 53.625 
Q 29.59375 56 35.59375 56 
Q 45.5625 56 51.78125 48.09375 
Q 58.015625 40.1875 58.015625 27.296875 
Q 58.015625 14.40625 51.78125 6.484375 
Q 45.5625 -1.421875 35.59375 -1.421875 
Q 29.59375 -1.421875 25.265625 0.953125 
Q 20.953125 3.328125 18.109375 8.203125 
z
M 48.6875 27.296875 
Q 48.6875 37.203125 44.609375 42.84375 
Q 40.53125 48.484375 33.40625 48.484375 
Q 26.265625 48.484375 22.1875 42.84375 
Q 18.109375 37.203125 18.109375 27.296875 
Q 18.109375 17.390625 22.1875 11.75 
Q 26.265625 6.109375 33.40625 6.109375 
Q 40.53125 6.109375 44.609375 11.75 
Q 48.6875 17.390625 48.6875 27.296875 
z
" id="DejaVuSans-112"/>
       <path d="M 41.109375 46.296875 
Q 39.59375 47.171875 37.8125 47.578125 
Q 36.03125 48 33.890625 48 
Q 26.265625 48 22.1875 43.046875 
Q 18.109375 38.09375 18.109375 28.8125 
L 18.109375 0 
L 9.078125 0 
L 9.078125 54.6875 
L 18.109375 54.6875 
L 18.109375 46.1875 
Q 20.953125 51.171875 25.484375 53.578125 
Q 30.03125 56 36.53125 56 
Q 37.453125 56 38.578125 55.875 
Q 39.703125 55.765625 41.0625 55.515625 
z
" id="DejaVuSans-114"/>
       <path d="M 18.3125 70.21875 
L 18.3125 54.6875 
L 36.8125 54.6875 
L 36.8125 47.703125 
L 18.3125 47.703125 
L 18.3125 18.015625 
Q 18.3125 11.328125 20.140625 9.421875 
Q 21.96875 7.515625 27.59375 7.515625 
L 36.8125 7.515625 
L 36.8125 0 
L 27.59375 0 
Q 17.1875 0 13.234375 3.875 
Q 9.28125 7.765625 9.28125 18.015625 
L 9.28125 47.703125 
L 2.6875 47.703125 
L 2.6875 54.6875 
L 9.28125 54.6875 
L 9.28125 70.21875 
z
" id="DejaVuSans-116"/>
       <path d="M 9.421875 54.6875 
L 18.40625 54.6875 
L 18.40625 0 
L 9.421875 0 
z
M 9.421875 75.984375 
L 18.40625 75.984375 
L 18.40625 64.59375 
L 9.421875 64.59375 
z
" id="DejaVuSans-105"/>
       <path d="M 54.890625 33.015625 
L 54.890625 0 
L 45.90625 0 
L 45.90625 32.71875 
Q 45.90625 40.484375 42.875 44.328125 
Q 39.84375 48.1875 33.796875 48.1875 
Q 26.515625 48.1875 22.3125 43.546875 
Q 18.109375 38.921875 18.109375 30.90625 
L 18.109375 0 
L 9.078125 0 
L 9.078125 54.6875 
L 18.109375 54.6875 
L 18.109375 46.1875 
Q 21.34375 51.125 25.703125 53.5625 
Q 30.078125 56 35.796875 56 
Q 45.21875 56 50.046875 50.171875 
Q 54.890625 44.34375 54.890625 33.015625 
z
" id="DejaVuSans-110"/>
      </defs>
      <use xlink:href="#DejaVuSans-112"/>
      <use x="63.476562" xlink:href="#DejaVuSans-114"/>
      <use x="102.339844" xlink:href="#DejaVuSans-111"/>
      <use x="163.521484" xlink:href="#DejaVuSans-112"/>
      <use x="226.998047" xlink:href="#DejaVuSans-111"/>
      <use x="288.179688" xlink:href="#DejaVuSans-114"/>
      <use x="329.292969" xlink:href="#DejaVuSans-116"/>
      <use x="368.501953" xlink:href="#DejaVuSans-105"/>
      <use x="396.285156" xlink:href="#DejaVuSans-111"/>
      <use x="457.466797" xlink:href="#DejaVuSans-110"/>
      <use x="520.845703" xlink:href="#DejaVuSans-32"/>
      <use x="552.632812" xlink:href="#DejaVuSans-111"/>
      <use x="613.814453" xlink:href="#DejaVuSans-102"/>
      <use x="649.019531" xlink:href="#DejaVuSans-32"/>
      <use x="680.806641" xlink:href="#DejaVuSans-116"/>
      <use x="720.015625" xlink:href="#DejaVuSans-114"/>
      <use x="761.128906" xlink:href="#DejaVuSans-105"/>
      <use x="788.912109" xlink:href="#DejaVuSans-97"/>
      <use x="850.191406" xlink:href="#DejaVuSans-108"/>
      <use x="877.974609" xlink:href="#DejaVuSans-115"/>
     </g>
    </g>
   </g>
   <g id="line2d_113">
    <path clip-path="url(#pecdd7c0865)" d="M 112.352633 293.76 
L 112.352633 287.372673 
L 112.352633 287.372673 
L 112.352633 280.985347 
L 112.352633 280.985347 
L 112.352633 274.59802 
L 112.352633 274.59802 
L 112.352633 268.210693 
L 112.352633 268.210693 
L 112.352633 261.823366 
L 117.430381 261.823366 
L 117.430381 255.43604 
L 117.430381 255.43604 
L 117.430381 249.048713 
L 117.430381 249.048713 
L 117.430381 242.661386 
L 117.430381 242.661386 
L 117.430381 236.274059 
L 117.430381 236.274059 
L 117.430381 229.886733 
L 117.430381 229.886733 
L 117.430381 223.499406 
L 121.972582 223.499406 
L 121.972582 217.112079 
L 121.972582 217.112079 
L 121.972582 210.724752 
L 121.972582 210.724752 
L 121.972582 204.337426 
L 121.972582 204.337426 
L 121.972582 197.950099 
L 121.972582 197.950099 
L 121.972582 191.562772 
L 121.972582 191.562772 
L 121.972582 185.175446 
L 121.972582 185.175446 
L 121.972582 178.788119 
L 121.972582 178.788119 
L 121.972582 172.400792 
L 126.081502 172.400792 
L 126.081502 166.013465 
L 129.832652 166.013465 
L 129.832652 159.626139 
L 129.832652 159.626139 
L 129.832652 153.238812 
L 129.832652 153.238812 
L 129.832652 146.851485 
L 133.283376 146.851485 
L 133.283376 140.464158 
L 133.283376 140.464158 
L 133.283376 134.076832 
L 133.283376 134.076832 
L 133.283376 127.689505 
L 136.478247 127.689505 
L 136.478247 121.302178 
L 136.478247 121.302178 
L 136.478247 114.914851 
L 139.452601 114.914851 
L 139.452601 108.527525 
L 139.452601 108.527525 
L 139.452601 102.140198 
L 142.234924 102.140198 
L 142.234924 95.752871 
L 147.312672 95.752871 
L 147.312672 89.365545 
L 149.643566 89.365545 
L 149.643566 82.978218 
L 151.854873 82.978218 
L 151.854873 76.590891 
L 151.854873 76.590891 
L 151.854873 70.203564 
L 153.958267 70.203564 
L 153.958267 63.816238 
L 161.474821 63.816238 
L 161.474821 57.428911 
L 163.165667 57.428911 
L 163.165667 51.041584 
L 164.792691 51.041584 
L 164.792691 44.654257 
L 166.360538 44.654257 
L 166.360538 38.266931 
L 167.873361 38.266931 
L 167.873361 31.879604 
L 169.334892 31.879604 
L 169.334892 25.492277 
L 169.334892 25.492277 
L 169.334892 19.10495 
L 178.376161 19.10495 
L 178.376161 12.717624 
L 183.840558 12.717624 
L 183.840558 6.330297 
L 183.840558 6.330297 
L 183.840558 6.330297 
L 460.8 6.330297 
" style="fill:none;stroke:#000000;stroke-linecap:square;stroke-width:1.5;"/>
   </g>
   <g id="line2d_114">
    <path clip-path="url(#pecdd7c0865)" style="fill:none;stroke:#000000;stroke-linecap:square;stroke-width:1.5;"/>
   </g>
   <g id="line2d_115">
    <path clip-path="url(#pecdd7c0865)" d="M 112.352633 293.76 
L 112.352633 287.372673 
L 112.352633 287.372673 
L 112.352633 280.985347 
L 112.352633 280.985347 
L 112.352633 274.59802 
L 112.352633 274.59802 
L 112.352633 268.210693 
L 112.352633 268.210693 
L 112.352633 261.823366 
L 117.430381 261.823366 
L 117.430381 255.43604 
L 117.430381 255.43604 
L 117.430381 249.048713 
L 117.430381 249.048713 
L 117.430381 242.661386 
L 117.430381 242.661386 
L 117.430381 236.274059 
L 117.430381 236.274059 
L 117.430381 229.886733 
L 117.430381 229.886733 
L 117.430381 223.499406 
L 121.972582 223.499406 
L 121.972582 217.112079 
L 121.972582 217.112079 
L 121.972582 210.724752 
L 121.972582 210.724752 
L 121.972582 204.337426 
L 121.972582 204.337426 
L 121.972582 197.950099 
L 121.972582 197.950099 
L 121.972582 191.562772 
L 121.972582 191.562772 
L 121.972582 185.175446 
L 129.832652 185.175446 
L 129.832652 178.788119 
L 129.832652 178.788119 
L 129.832652 172.400792 
L 129.832652 172.400792 
L 129.832652 166.013465 
L 133.283376 166.013465 
L 133.283376 159.626139 
L 133.283376 159.626139 
L 133.283376 153.238812 
L 136.478247 153.238812 
L 136.478247 146.851485 
L 139.452601 146.851485 
L 139.452601 140.464158 
L 139.452601 140.464158 
L 139.452601 134.076832 
L 139.452601 134.076832 
L 139.452601 127.689505 
L 151.854873 127.689505 
L 151.854873 121.302178 
L 169.334892 121.302178 
L 169.334892 114.914851 
L 172.117214 114.914851 
L 172.117214 108.527525 
L 173.443812 108.527525 
L 173.443812 102.140198 
L 173.443812 102.140198 
L 173.443812 95.752871 
L 174.730804 95.752871 
L 174.730804 89.365545 
L 174.730804 89.365545 
L 174.730804 82.978218 
L 175.980487 82.978218 
L 175.980487 76.590891 
L 180.645687 76.590891 
L 180.645687 70.203564 
L 181.737163 70.203564 
L 181.737163 63.816238 
L 181.737163 63.816238 
L 181.737163 57.428911 
L 182.801687 57.428911 
L 182.801687 51.041584 
L 182.801687 51.041584 
L 182.801687 44.654257 
L 188.6896 44.654257 
L 188.6896 38.266931 
L 196.242829 38.266931 
L 196.242829 31.879604 
L 200.630786 31.879604 
L 200.630786 25.492277 
L 201.999505 25.492277 
L 201.999505 19.10495 
L 255.81452 19.10495 
L 255.81452 12.717624 
L 321.759602 12.717624 
L 321.759602 6.330297 
L 321.759602 6.330297 
L 321.759602 6.330297 
L 460.8 6.330297 
" style="fill:none;stroke:#00bfbf;stroke-linecap:square;stroke-width:1.5;"/>
   </g>
   <g id="line2d_116">
    <path clip-path="url(#pecdd7c0865)" style="fill:none;stroke:#00bfbf;stroke-linecap:square;stroke-width:1.5;"/>
   </g>
   <g id="line2d_117">
    <path clip-path="url(#pecdd7c0865)" d="M 112.352633 293.76 
L 112.352633 287.372673 
L 112.352633 287.372673 
L 112.352633 280.985347 
L 112.352633 280.985347 
L 112.352633 274.59802 
L 112.352633 274.59802 
L 112.352633 268.210693 
L 112.352633 268.210693 
L 112.352633 261.823366 
L 117.430381 261.823366 
L 117.430381 255.43604 
L 117.430381 255.43604 
L 117.430381 249.048713 
L 117.430381 249.048713 
L 117.430381 242.661386 
L 117.430381 242.661386 
L 117.430381 236.274059 
L 117.430381 236.274059 
L 117.430381 229.886733 
L 117.430381 229.886733 
L 117.430381 223.499406 
L 121.972582 223.499406 
L 121.972582 217.112079 
L 121.972582 217.112079 
L 121.972582 210.724752 
L 121.972582 210.724752 
L 121.972582 204.337426 
L 121.972582 204.337426 
L 121.972582 197.950099 
L 121.972582 197.950099 
L 121.972582 191.562772 
L 121.972582 191.562772 
L 121.972582 185.175446 
L 129.832652 185.175446 
L 129.832652 178.788119 
L 129.832652 178.788119 
L 129.832652 172.400792 
L 133.283376 172.400792 
L 133.283376 166.013465 
L 133.283376 166.013465 
L 133.283376 159.626139 
L 136.478247 159.626139 
L 136.478247 153.238812 
L 139.452601 153.238812 
L 139.452601 146.851485 
L 139.452601 146.851485 
L 139.452601 140.464158 
L 139.452601 140.464158 
L 139.452601 134.076832 
L 151.854873 134.076832 
L 151.854873 127.689505 
L 163.165667 127.689505 
L 163.165667 121.302178 
L 172.117214 121.302178 
L 172.117214 114.914851 
L 174.730804 114.914851 
L 174.730804 108.527525 
L 179.525856 108.527525 
L 179.525856 102.140198 
L 193.047958 102.140198 
L 193.047958 95.752871 
L 194.674982 95.752871 
L 194.674982 89.365545 
L 199.217183 89.365545 
L 199.217183 82.978218 
L 203.974402 82.978218 
L 203.974402 76.590891 
L 203.974402 76.590891 
L 203.974402 70.203564 
L 206.474292 70.203564 
L 206.474292 63.816238 
L 208.837132 63.816238 
L 208.837132 57.428911 
L 210.527977 57.428911 
L 210.527977 51.041584 
L 211.07717 51.041584 
L 211.07717 44.654257 
L 216.21551 44.654257 
L 216.21551 38.266931 
L 220.368444 38.266931 
L 220.368444 31.879604 
L 223.751436 31.879604 
L 223.751436 25.492277 
L 347.892646 25.492277 
L 347.892646 19.10495 
L 389.527093 19.10495 
L 389.527093 12.717624 
L 398.551673 12.717624 
L 398.551673 6.330297 
L 398.551673 6.330297 
L 398.551673 6.330297 
L 460.8 6.330297 
" style="fill:none;stroke:#bf00bf;stroke-linecap:square;stroke-width:1.5;"/>
   </g>
   <g id="line2d_118">
    <path clip-path="url(#pecdd7c0865)" style="fill:none;stroke:#bf00bf;stroke-linecap:square;stroke-width:1.5;"/>
   </g>
   <g id="line2d_119">
    <path clip-path="url(#pecdd7c0865)" d="M 112.352633 293.76 
L 112.352633 287.372673 
L 112.352633 287.372673 
L 112.352633 280.985347 
L 112.352633 280.985347 
L 112.352633 274.59802 
L 112.352633 274.59802 
L 112.352633 268.210693 
L 112.352633 268.210693 
L 112.352633 261.823366 
L 117.430381 261.823366 
L 117.430381 255.43604 
L 117.430381 255.43604 
L 117.430381 249.048713 
L 117.430381 249.048713 
L 117.430381 242.661386 
L 117.430381 242.661386 
L 117.430381 236.274059 
L 117.430381 236.274059 
L 117.430381 229.886733 
L 117.430381 229.886733 
L 117.430381 223.499406 
L 121.972582 223.499406 
L 121.972582 217.112079 
L 121.972582 217.112079 
L 121.972582 210.724752 
L 121.972582 210.724752 
L 121.972582 204.337426 
L 121.972582 204.337426 
L 121.972582 197.950099 
L 121.972582 197.950099 
L 121.972582 191.562772 
L 121.972582 191.562772 
L 121.972582 185.175446 
L 129.832652 185.175446 
L 129.832652 178.788119 
L 129.832652 178.788119 
L 129.832652 172.400792 
L 133.283376 172.400792 
L 133.283376 166.013465 
L 133.283376 166.013465 
L 133.283376 159.626139 
L 136.478247 159.626139 
L 136.478247 153.238812 
L 139.452601 153.238812 
L 139.452601 146.851485 
L 139.452601 146.851485 
L 139.452601 140.464158 
L 139.452601 140.464158 
L 139.452601 134.076832 
L 151.854873 134.076832 
L 151.854873 127.689505 
L 163.165667 127.689505 
L 163.165667 121.302178 
L 172.117214 121.302178 
L 172.117214 114.914851 
L 174.730804 114.914851 
L 174.730804 108.527525 
L 179.525856 108.527525 
L 179.525856 102.140198 
L 207.671898 102.140198 
L 207.671898 95.752871 
L 208.837132 95.752871 
L 208.837132 89.365545 
L 210.527977 89.365545 
L 210.527977 82.978218 
L 214.737273 82.978218 
L 214.737273 76.590891 
L 215.235672 76.590891 
L 215.235672 70.203564 
L 215.235672 70.203564 
L 215.235672 63.816238 
L 216.697203 63.816238 
L 216.697203 57.428911 
L 218.110806 57.428911 
L 218.110806 51.041584 
L 220.806123 51.041584 
L 220.806123 44.654257 
L 226.508332 44.654257 
L 226.508332 38.266931 
L 226.888167 38.266931 
L 226.888167 31.879604 
L 326.699872 31.879604 
L 326.699872 25.492277 
L 349.769764 25.492277 
L 349.769764 19.10495 
L 390.638673 19.10495 
L 390.638673 12.717624 
L 415.813677 12.717624 
L 415.813677 6.330297 
L 415.813677 6.330297 
L 415.813677 6.330297 
L 460.8 6.330297 
" style="fill:none;stroke:#ff0000;stroke-linecap:square;stroke-width:3;"/>
   </g>
   <g id="line2d_120">
    <path clip-path="url(#pecdd7c0865)" style="fill:none;stroke:#ff0000;stroke-linecap:square;stroke-width:3;"/>
   </g>
   <g id="line2d_121">
    <path clip-path="url(#pecdd7c0865)" d="M 416.512131 293.76 
L 416.512131 3.456 
" style="fill:none;stroke:#000000;stroke-linecap:square;stroke-width:1.5;"/>
   </g>
   <g id="patch_3">
    <path d="M 62.208 293.76 
L 62.208 3.456 
" style="fill:none;stroke:#000000;stroke-linecap:square;stroke-linejoin:miter;stroke-width:0.8;"/>
   </g>
   <g id="patch_4">
    <path d="M 460.8 293.76 
L 460.8 3.456 
" style="fill:none;stroke:#000000;stroke-linecap:square;stroke-linejoin:miter;stroke-width:0.8;"/>
   </g>
   <g id="patch_5">
    <path d="M 62.208 293.76 
L 460.8 293.76 
" style="fill:none;stroke:#000000;stroke-linecap:square;stroke-linejoin:miter;stroke-width:0.8;"/>
   </g>
   <g id="patch_6">
    <path d="M 62.208 3.456 
L 460.8 3.456 
" style="fill:none;stroke:#000000;stroke-linecap:square;stroke-linejoin:miter;stroke-width:0.8;"/>
   </g>
   <g id="text_12">
    <!-- {f4, f10, f16}, 5-D -->
    <g transform="translate(169.6665 24.458955)scale(0.2 -0.2)">
     <defs>
      <path d="M 51.125 -9.28125 
L 51.125 -16.3125 
L 48.09375 -16.3125 
Q 35.9375 -16.3125 31.8125 -12.6875 
Q 27.6875 -9.078125 27.6875 1.703125 
L 27.6875 13.375 
Q 27.6875 20.75 25.046875 23.578125 
Q 22.40625 26.421875 15.484375 26.421875 
L 12.5 26.421875 
L 12.5 33.40625 
L 15.484375 33.40625 
Q 22.46875 33.40625 25.078125 36.203125 
Q 27.6875 39.015625 27.6875 46.296875 
L 27.6875 58.015625 
Q 27.6875 68.796875 31.8125 72.390625 
Q 35.9375 75.984375 48.09375 75.984375 
L 51.125 75.984375 
L 51.125 69 
L 47.796875 69 
Q 40.921875 69 38.8125 66.84375 
Q 36.71875 64.703125 36.71875 57.8125 
L 36.71875 45.703125 
Q 36.71875 38.03125 34.5 34.5625 
Q 32.28125 31.109375 26.90625 29.890625 
Q 32.328125 28.5625 34.515625 25.09375 
Q 36.71875 21.625 36.71875 14.015625 
L 36.71875 1.90625 
Q 36.71875 -4.984375 38.8125 -7.125 
Q 40.921875 -9.28125 47.796875 -9.28125 
z
" id="DejaVuSans-123"/>
      <path d="M 11.71875 12.40625 
L 22.015625 12.40625 
L 22.015625 4 
L 14.015625 -11.625 
L 7.71875 -11.625 
L 11.71875 4 
z
" id="DejaVuSans-44"/>
      <path d="M 12.5 -9.28125 
L 15.921875 -9.28125 
Q 22.75 -9.28125 24.828125 -7.171875 
Q 26.90625 -5.078125 26.90625 1.90625 
L 26.90625 14.015625 
Q 26.90625 21.625 29.09375 25.09375 
Q 31.296875 28.5625 36.71875 29.890625 
Q 31.296875 31.109375 29.09375 34.5625 
Q 26.90625 38.03125 26.90625 45.703125 
L 26.90625 57.8125 
Q 26.90625 64.75 24.828125 66.875 
Q 22.75 69 15.921875 69 
L 12.5 69 
L 12.5 75.984375 
L 15.578125 75.984375 
Q 27.734375 75.984375 31.8125 72.390625 
Q 35.890625 68.796875 35.890625 58.015625 
L 35.890625 46.296875 
Q 35.890625 39.015625 38.515625 36.203125 
Q 41.15625 33.40625 48.09375 33.40625 
L 51.125 33.40625 
L 51.125 26.421875 
L 48.09375 26.421875 
Q 41.15625 26.421875 38.515625 23.578125 
Q 35.890625 20.75 35.890625 13.375 
L 35.890625 1.703125 
Q 35.890625 -9.078125 31.8125 -12.6875 
Q 27.734375 -16.3125 15.578125 -16.3125 
L 12.5 -16.3125 
z
" id="DejaVuSans-125"/>
      <path d="M 10.796875 72.90625 
L 49.515625 72.90625 
L 49.515625 64.59375 
L 19.828125 64.59375 
L 19.828125 46.734375 
Q 21.96875 47.46875 24.109375 47.828125 
Q 26.265625 48.1875 28.421875 48.1875 
Q 40.625 48.1875 47.75 41.5 
Q 54.890625 34.8125 54.890625 23.390625 
Q 54.890625 11.625 47.5625 5.09375 
Q 40.234375 -1.421875 26.90625 -1.421875 
Q 22.3125 -1.421875 17.546875 -0.640625 
Q 12.796875 0.140625 7.71875 1.703125 
L 7.71875 11.625 
Q 12.109375 9.234375 16.796875 8.0625 
Q 21.484375 6.890625 26.703125 6.890625 
Q 35.15625 6.890625 40.078125 11.328125 
Q 45.015625 15.765625 45.015625 23.390625 
Q 45.015625 31 40.078125 35.4375 
Q 35.15625 39.890625 26.703125 39.890625 
Q 22.75 39.890625 18.8125 39.015625 
Q 14.890625 38.140625 10.796875 36.28125 
z
" id="DejaVuSans-53"/>
      <path d="M 4.890625 31.390625 
L 31.203125 31.390625 
L 31.203125 23.390625 
L 4.890625 23.390625 
z
" id="DejaVuSans-45"/>
     </defs>
     <use xlink:href="#DejaVuSans-123"/>
     <use x="63.623047" xlink:href="#DejaVuSans-102"/>
     <use x="98.828125" xlink:href="#DejaVuSans-52"/>
     <use x="162.451172" xlink:href="#DejaVuSans-44"/>
     <use x="194.238281" xlink:href="#DejaVuSans-32"/>
     <use x="226.025391" xlink:href="#DejaVuSans-102"/>
     <use x="261.230469" xlink:href="#DejaVuSans-49"/>
     <use x="324.853516" xlink:href="#DejaVuSans-48"/>
     <use x="388.476562" xlink:href="#DejaVuSans-44"/>
     <use x="420.263672" xlink:href="#DejaVuSans-32"/>
     <use x="452.050781" xlink:href="#DejaVuSans-102"/>
     <use x="487.255859" xlink:href="#DejaVuSans-49"/>
     <use x="550.878906" xlink:href="#DejaVuSans-54"/>
     <use x="614.501953" xlink:href="#DejaVuSans-125"/>
     <use x="678.125" xlink:href="#DejaVuSans-44"/>
     <use x="709.912109" xlink:href="#DejaVuSans-32"/>
     <use x="741.699219" xlink:href="#DejaVuSans-53"/>
     <use x="805.322266" xlink:href="#DejaVuSans-45"/>
     <use x="841.40625" xlink:href="#DejaVuSans-68"/>
    </g>
   </g>
   <g id="text_13">
    <!-- absolute targets -->
    <g transform="translate(62.208 609.932673)scale(0.14 -0.14)">
     <defs>
      <path d="M 48.6875 27.296875 
Q 48.6875 37.203125 44.609375 42.84375 
Q 40.53125 48.484375 33.40625 48.484375 
Q 26.265625 48.484375 22.1875 42.84375 
Q 18.109375 37.203125 18.109375 27.296875 
Q 18.109375 17.390625 22.1875 11.75 
Q 26.265625 6.109375 33.40625 6.109375 
Q 40.53125 6.109375 44.609375 11.75 
Q 48.6875 17.390625 48.6875 27.296875 
z
M 18.109375 46.390625 
Q 20.953125 51.265625 25.265625 53.625 
Q 29.59375 56 35.59375 56 
Q 45.5625 56 51.78125 48.09375 
Q 58.015625 40.1875 58.015625 27.296875 
Q 58.015625 14.40625 51.78125 6.484375 
Q 45.5625 -1.421875 35.59375 -1.421875 
Q 29.59375 -1.421875 25.265625 0.953125 
Q 20.953125 3.328125 18.109375 8.203125 
L 18.109375 0 
L 9.078125 0 
L 9.078125 75.984375 
L 18.109375 75.984375 
z
" id="DejaVuSans-98"/>
      <path d="M 8.5 21.578125 
L 8.5 54.6875 
L 17.484375 54.6875 
L 17.484375 21.921875 
Q 17.484375 14.15625 20.5 10.265625 
Q 23.53125 6.390625 29.59375 6.390625 
Q 36.859375 6.390625 41.078125 11.03125 
Q 45.3125 15.671875 45.3125 23.6875 
L 45.3125 54.6875 
L 54.296875 54.6875 
L 54.296875 0 
L 45.3125 0 
L 45.3125 8.40625 
Q 42.046875 3.421875 37.71875 1 
Q 33.40625 -1.421875 27.6875 -1.421875 
Q 18.265625 -1.421875 13.375 4.4375 
Q 8.5 10.296875 8.5 21.578125 
z
M 31.109375 56 
z
" id="DejaVuSans-117"/>
     </defs>
     <use xlink:href="#DejaVuSans-97"/>
     <use x="61.279297" xlink:href="#DejaVuSans-98"/>
     <use x="124.755859" xlink:href="#DejaVuSans-115"/>
     <use x="176.855469" xlink:href="#DejaVuSans-111"/>
     <use x="238.037109" xlink:href="#DejaVuSans-108"/>
     <use x="265.820312" xlink:href="#DejaVuSans-117"/>
     <use x="329.199219" xlink:href="#DejaVuSans-116"/>
     <use x="368.408203" xlink:href="#DejaVuSans-101"/>
     <use x="429.931641" xlink:href="#DejaVuSans-32"/>
     <use x="461.71875" xlink:href="#DejaVuSans-116"/>
     <use x="500.927734" xlink:href="#DejaVuSans-97"/>
     <use x="562.207031" xlink:href="#DejaVuSans-114"/>
     <use x="601.570312" xlink:href="#DejaVuSans-103"/>
     <use x="665.046875" xlink:href="#DejaVuSans-101"/>
     <use x="726.570312" xlink:href="#DejaVuSans-116"/>
     <use x="765.779297" xlink:href="#DejaVuSans-115"/>
    </g>
   </g>
   <g id="text_14">
    <!-- v2.4.161 -->
    <g style="fill:#808080;" transform="translate(239.46025 288.777272)scale(0.1 -0.1)">
     <use xlink:href="#DejaVuSans-118"/>
     <use x="59.179688" xlink:href="#DejaVuSans-50"/>
     <use x="122.802734" xlink:href="#DejaVuSans-46"/>
     <use x="154.589844" xlink:href="#DejaVuSans-52"/>
     <use x="218.212891" xlink:href="#DejaVuSans-46"/>
     <use x="250" xlink:href="#DejaVuSans-49"/>
     <use x="313.623047" xlink:href="#DejaVuSans-54"/>
     <use x="377.246094" xlink:href="#DejaVuSans-49"/>
    </g>
   </g>
   <g id="legend_1">
    <g id="patch_7">
     <path d="M 317.578125 136.881 
L 446.8 136.881 
Q 450.8 136.881 450.8 132.881 
L 450.8 17.456 
Q 450.8 13.456 446.8 13.456 
L 317.578125 13.456 
Q 313.578125 13.456 313.578125 17.456 
L 313.578125 132.881 
Q 313.578125 136.881 317.578125 136.881 
z
" style="fill:#ffffff;opacity:0.2;stroke:#cccccc;stroke-linejoin:miter;"/>
    </g>
    <g id="line2d_122">
     <path d="M 321.578125 29.652875 
L 361.578125 29.652875 
" style="fill:none;stroke:#000000;stroke-linecap:square;stroke-width:1.5;"/>
    </g>
    <g id="line2d_123"/>
    <g id="text_15">
     <!-- 1: 3/3 -->
     <g transform="translate(377.578125 36.652875)scale(0.2 -0.2)">
      <defs>
       <path d="M 11.71875 12.40625 
L 22.015625 12.40625 
L 22.015625 0 
L 11.71875 0 
z
M 11.71875 51.703125 
L 22.015625 51.703125 
L 22.015625 39.3125 
L 11.71875 39.3125 
z
" id="DejaVuSans-58"/>
       <path d="M 40.578125 39.3125 
Q 47.65625 37.796875 51.625 33 
Q 55.609375 28.21875 55.609375 21.1875 
Q 55.609375 10.40625 48.1875 4.484375 
Q 40.765625 -1.421875 27.09375 -1.421875 
Q 22.515625 -1.421875 17.65625 -0.515625 
Q 12.796875 0.390625 7.625 2.203125 
L 7.625 11.71875 
Q 11.71875 9.328125 16.59375 8.109375 
Q 21.484375 6.890625 26.8125 6.890625 
Q 36.078125 6.890625 40.9375 10.546875 
Q 45.796875 14.203125 45.796875 21.1875 
Q 45.796875 27.640625 41.28125 31.265625 
Q 36.765625 34.90625 28.71875 34.90625 
L 20.21875 34.90625 
L 20.21875 43.015625 
L 29.109375 43.015625 
Q 36.375 43.015625 40.234375 45.921875 
Q 44.09375 48.828125 44.09375 54.296875 
Q 44.09375 59.90625 40.109375 62.90625 
Q 36.140625 65.921875 28.71875 65.921875 
Q 24.65625 65.921875 20.015625 65.03125 
Q 15.375 64.15625 9.8125 62.3125 
L 9.8125 71.09375 
Q 15.4375 72.65625 20.34375 73.4375 
Q 25.25 74.21875 29.59375 74.21875 
Q 40.828125 74.21875 47.359375 69.109375 
Q 53.90625 64.015625 53.90625 55.328125 
Q 53.90625 49.265625 50.4375 45.09375 
Q 46.96875 40.921875 40.578125 39.3125 
z
" id="DejaVuSans-51"/>
      </defs>
      <use xlink:href="#DejaVuSans-49"/>
      <use x="63.623047" xlink:href="#DejaVuSans-58"/>
      <use x="97.314453" xlink:href="#DejaVuSans-32"/>
      <use x="129.101562" xlink:href="#DejaVuSans-51"/>
      <use x="192.724609" xlink:href="#DejaVuSans-47"/>
      <use x="226.416016" xlink:href="#DejaVuSans-51"/>
     </g>
    </g>
    <g id="line2d_124">
     <path d="M 321.578125 59.009125 
L 361.578125 59.009125 
" style="fill:none;stroke:#00bfbf;stroke-linecap:square;stroke-width:1.5;"/>
    </g>
    <g id="line2d_125"/>
    <g id="text_16">
     <!-- -1: 3/3 -->
     <g transform="translate(377.578125 66.009125)scale(0.2 -0.2)">
      <use xlink:href="#DejaVuSans-45"/>
      <use x="36.083984" xlink:href="#DejaVuSans-49"/>
      <use x="99.707031" xlink:href="#DejaVuSans-58"/>
      <use x="133.398438" xlink:href="#DejaVuSans-32"/>
      <use x="165.185547" xlink:href="#DejaVuSans-51"/>
      <use x="228.808594" xlink:href="#DejaVuSans-47"/>
      <use x="262.5" xlink:href="#DejaVuSans-51"/>
     </g>
    </g>
    <g id="line2d_126">
     <path d="M 321.578125 88.365375 
L 361.578125 88.365375 
" style="fill:none;stroke:#bf00bf;stroke-linecap:square;stroke-width:1.5;"/>
    </g>
    <g id="line2d_127"/>
    <g id="text_17">
     <!-- -4: 3/3 -->
     <g transform="translate(377.578125 95.365375)scale(0.2 -0.2)">
      <use xlink:href="#DejaVuSans-45"/>
      <use x="36.083984" xlink:href="#DejaVuSans-52"/>
      <use x="99.707031" xlink:href="#DejaVuSans-58"/>
      <use x="133.398438" xlink:href="#DejaVuSans-32"/>
      <use x="165.185547" xlink:href="#DejaVuSans-51"/>
      <use x="228.808594" xlink:href="#DejaVuSans-47"/>
      <use x="262.5" xlink:href="#DejaVuSans-51"/>
     </g>
    </g>
    <g id="line2d_128">
     <path d="M 321.578125 117.721625 
L 361.578125 117.721625 
" style="fill:none;stroke:#ff0000;stroke-linecap:square;stroke-width:3;"/>
    </g>
    <g id="line2d_129"/>
    <g id="text_18">
     <!-- -6: 3/3 -->
     <g transform="translate(377.578125 124.721625)scale(0.2 -0.2)">
      <use xlink:href="#DejaVuSans-45"/>
      <use x="36.083984" xlink:href="#DejaVuSans-54"/>
      <use x="99.707031" xlink:href="#DejaVuSans-58"/>
      <use x="133.398438" xlink:href="#DejaVuSans-32"/>
      <use x="165.185547" xlink:href="#DejaVuSans-51"/>
      <use x="228.808594" xlink:href="#DejaVuSans-47"/>
      <use x="262.5" xlink:href="#DejaVuSans-51"/>
     </g>
    </g>
   </g>
  </g>
 </g>
 <defs>
  <clipPath id="pecdd7c0865">
   <rect height="290.304" width="398.592" x="62.208" y="3.456"/>
  </clipPath>
 </defs>
</svg>
