<?xml version="1.0" encoding="utf-8" standalone="no"?>
<!DOCTYPE svg PUBLIC "-//W3C//DTD SVG 1.1//EN"
  "http://www.w3.org/Graphics/SVG/1.1/DTD/svg11.dtd">
<!-- Created with matplotlib (https://matplotlib.org/) -->
<svg height="345.6pt" version="1.1" viewBox="0 0 460.8 345.6" width="460.8pt" xmlns="http://www.w3.org/2000/svg" xmlns:xlink="http://www.w3.org/1999/xlink">
 <metadata>
  <rdf:RDF xmlns:cc="http://creativecommons.org/ns#" xmlns:dc="http://purl.org/dc/elements/1.1/" xmlns:rdf="http://www.w3.org/1999/02/22-rdf-syntax-ns#">
   <cc:Work>
    <dc:type rdf:resource="http://purl.org/dc/dcmitype/StillImage"/>
    <dc:date>2022-01-14T09:43:47.794644</dc:date>
    <dc:format>image/svg+xml</dc:format>
    <dc:creator>
     <cc:Agent>
      <dc:title>Matplotlib v3.3.3, https://matplotlib.org/</dc:title>
     </cc:Agent>
    </dc:creator>
   </cc:Work>
  </rdf:RDF>
 </metadata>
 <defs>
  <style type="text/css">*{stroke-linecap:butt;stroke-linejoin:round;}</style>
 </defs>
 <g id="figure_1">
  <g id="patch_1">
   <path d="M 0 345.6 
L 460.8 345.6 
L 460.8 0 
L 0 0 
z
" style="fill:#ffffff;"/>
  </g>
  <g id="axes_1">
   <g id="patch_2">
    <path d="M 57.6 298.944 
L 338.688 298.944 
L 338.688 3.456 
L 57.6 3.456 
z
" style="fill:#ffffff;"/>
   </g>
   <g id="matplotlib.axis_1">
    <g id="xtick_1">
     <g id="line2d_1">
      <path clip-path="url(#pd4ce081737)" d="M 57.6 298.944 
L 57.6 3.456 
" style="fill:none;stroke:#b0b0b0;stroke-linecap:square;stroke-width:0.8;"/>
     </g>
     <g id="line2d_2">
      <defs>
       <path d="M 0 0 
L 0 3.5 
" id="m0cb6b97781" style="stroke:#000000;stroke-width:0.8;"/>
      </defs>
      <g>
       <use style="stroke:#000000;stroke-width:0.8;" x="57.6" xlink:href="#m0cb6b97781" y="298.944"/>
      </g>
     </g>
     <g id="text_1">
      <!-- 0 -->
      <g transform="translate(51.2375 321.140875)scale(0.2 -0.2)">
       <defs>
        <path d="M 31.78125 66.40625 
Q 24.171875 66.40625 20.328125 58.90625 
Q 16.5 51.421875 16.5 36.375 
Q 16.5 21.390625 20.328125 13.890625 
Q 24.171875 6.390625 31.78125 6.390625 
Q 39.453125 6.390625 43.28125 13.890625 
Q 47.125 21.390625 47.125 36.375 
Q 47.125 51.421875 43.28125 58.90625 
Q 39.453125 66.40625 31.78125 66.40625 
z
M 31.78125 74.21875 
Q 44.046875 74.21875 50.515625 64.515625 
Q 56.984375 54.828125 56.984375 36.375 
Q 56.984375 17.96875 50.515625 8.265625 
Q 44.046875 -1.421875 31.78125 -1.421875 
Q 19.53125 -1.421875 13.0625 8.265625 
Q 6.59375 17.96875 6.59375 36.375 
Q 6.59375 54.828125 13.0625 64.515625 
Q 19.53125 74.21875 31.78125 74.21875 
z
" id="DejaVuSans-48"/>
       </defs>
       <use xlink:href="#DejaVuSans-48"/>
      </g>
     </g>
    </g>
    <g id="xtick_2">
     <g id="line2d_3">
      <path clip-path="url(#pd4ce081737)" d="M 137.910857 298.944 
L 137.910857 3.456 
" style="fill:none;stroke:#b0b0b0;stroke-linecap:square;stroke-width:0.8;"/>
     </g>
     <g id="line2d_4">
      <g>
       <use style="stroke:#000000;stroke-width:0.8;" x="137.910857" xlink:href="#m0cb6b97781" y="298.944"/>
      </g>
     </g>
     <g id="text_2">
      <!-- 2 -->
      <g transform="translate(131.548357 321.140875)scale(0.2 -0.2)">
       <defs>
        <path d="M 19.1875 8.296875 
L 53.609375 8.296875 
L 53.609375 0 
L 7.328125 0 
L 7.328125 8.296875 
Q 12.9375 14.109375 22.625 23.890625 
Q 32.328125 33.6875 34.8125 36.53125 
Q 39.546875 41.84375 41.421875 45.53125 
Q 43.3125 49.21875 43.3125 52.78125 
Q 43.3125 58.59375 39.234375 62.25 
Q 35.15625 65.921875 28.609375 65.921875 
Q 23.96875 65.921875 18.8125 64.3125 
Q 13.671875 62.703125 7.8125 59.421875 
L 7.8125 69.390625 
Q 13.765625 71.78125 18.9375 73 
Q 24.125 74.21875 28.421875 74.21875 
Q 39.75 74.21875 46.484375 68.546875 
Q 53.21875 62.890625 53.21875 53.421875 
Q 53.21875 48.921875 51.53125 44.890625 
Q 49.859375 40.875 45.40625 35.40625 
Q 44.1875 33.984375 37.640625 27.21875 
Q 31.109375 20.453125 19.1875 8.296875 
z
" id="DejaVuSans-50"/>
       </defs>
       <use xlink:href="#DejaVuSans-50"/>
      </g>
     </g>
    </g>
    <g id="xtick_3">
     <g id="line2d_5">
      <path clip-path="url(#pd4ce081737)" d="M 218.221714 298.944 
L 218.221714 3.456 
" style="fill:none;stroke:#b0b0b0;stroke-linecap:square;stroke-width:0.8;"/>
     </g>
     <g id="line2d_6">
      <g>
       <use style="stroke:#000000;stroke-width:0.8;" x="218.221714" xlink:href="#m0cb6b97781" y="298.944"/>
      </g>
     </g>
     <g id="text_3">
      <!-- 4 -->
      <g transform="translate(211.859214 321.140875)scale(0.2 -0.2)">
       <defs>
        <path d="M 37.796875 64.3125 
L 12.890625 25.390625 
L 37.796875 25.390625 
z
M 35.203125 72.90625 
L 47.609375 72.90625 
L 47.609375 25.390625 
L 58.015625 25.390625 
L 58.015625 17.1875 
L 47.609375 17.1875 
L 47.609375 0 
L 37.796875 0 
L 37.796875 17.1875 
L 4.890625 17.1875 
L 4.890625 26.703125 
z
" id="DejaVuSans-52"/>
       </defs>
       <use xlink:href="#DejaVuSans-52"/>
      </g>
     </g>
    </g>
    <g id="xtick_4">
     <g id="line2d_7">
      <path clip-path="url(#pd4ce081737)" d="M 298.532571 298.944 
L 298.532571 3.456 
" style="fill:none;stroke:#b0b0b0;stroke-linecap:square;stroke-width:0.8;"/>
     </g>
     <g id="line2d_8">
      <g>
       <use style="stroke:#000000;stroke-width:0.8;" x="298.532571" xlink:href="#m0cb6b97781" y="298.944"/>
      </g>
     </g>
     <g id="text_4">
      <!-- 6 -->
      <g transform="translate(292.170071 321.140875)scale(0.2 -0.2)">
       <defs>
        <path d="M 33.015625 40.375 
Q 26.375 40.375 22.484375 35.828125 
Q 18.609375 31.296875 18.609375 23.390625 
Q 18.609375 15.53125 22.484375 10.953125 
Q 26.375 6.390625 33.015625 6.390625 
Q 39.65625 6.390625 43.53125 10.953125 
Q 47.40625 15.53125 47.40625 23.390625 
Q 47.40625 31.296875 43.53125 35.828125 
Q 39.65625 40.375 33.015625 40.375 
z
M 52.59375 71.296875 
L 52.59375 62.3125 
Q 48.875 64.0625 45.09375 64.984375 
Q 41.3125 65.921875 37.59375 65.921875 
Q 27.828125 65.921875 22.671875 59.328125 
Q 17.53125 52.734375 16.796875 39.40625 
Q 19.671875 43.65625 24.015625 45.921875 
Q 28.375 48.1875 33.59375 48.1875 
Q 44.578125 48.1875 50.953125 41.515625 
Q 57.328125 34.859375 57.328125 23.390625 
Q 57.328125 12.15625 50.6875 5.359375 
Q 44.046875 -1.421875 33.015625 -1.421875 
Q 20.359375 -1.421875 13.671875 8.265625 
Q 6.984375 17.96875 6.984375 36.375 
Q 6.984375 53.65625 15.1875 63.9375 
Q 23.390625 74.21875 37.203125 74.21875 
Q 40.921875 74.21875 44.703125 73.484375 
Q 48.484375 72.75 52.59375 71.296875 
z
" id="DejaVuSans-54"/>
       </defs>
       <use xlink:href="#DejaVuSans-54"/>
      </g>
     </g>
    </g>
    <g id="xtick_5">
     <g id="line2d_9">
      <path clip-path="url(#pd4ce081737)" d="M 97.755429 298.944 
L 97.755429 3.456 
" style="fill:none;stroke:#b0b0b0;stroke-linecap:square;stroke-width:0.8;"/>
     </g>
     <g id="line2d_10">
      <defs>
       <path d="M 0 0 
L 0 2 
" id="mc9c47836be" style="stroke:#000000;stroke-width:0.6;"/>
      </defs>
      <g>
       <use style="stroke:#000000;stroke-width:0.6;" x="97.755429" xlink:href="#mc9c47836be" y="298.944"/>
      </g>
     </g>
    </g>
    <g id="xtick_6">
     <g id="line2d_11">
      <path clip-path="url(#pd4ce081737)" d="M 178.066286 298.944 
L 178.066286 3.456 
" style="fill:none;stroke:#b0b0b0;stroke-linecap:square;stroke-width:0.8;"/>
     </g>
     <g id="line2d_12">
      <g>
       <use style="stroke:#000000;stroke-width:0.6;" x="178.066286" xlink:href="#mc9c47836be" y="298.944"/>
      </g>
     </g>
    </g>
    <g id="xtick_7">
     <g id="line2d_13">
      <path clip-path="url(#pd4ce081737)" d="M 258.377143 298.944 
L 258.377143 3.456 
" style="fill:none;stroke:#b0b0b0;stroke-linecap:square;stroke-width:0.8;"/>
     </g>
     <g id="line2d_14">
      <g>
       <use style="stroke:#000000;stroke-width:0.6;" x="258.377143" xlink:href="#mc9c47836be" y="298.944"/>
      </g>
     </g>
    </g>
    <g id="xtick_8">
     <g id="line2d_15">
      <path clip-path="url(#pd4ce081737)" d="M 338.688 298.944 
L 338.688 3.456 
" style="fill:none;stroke:#b0b0b0;stroke-linecap:square;stroke-width:0.8;"/>
     </g>
     <g id="line2d_16">
      <g>
       <use style="stroke:#000000;stroke-width:0.6;" x="338.688" xlink:href="#mc9c47836be" y="298.944"/>
      </g>
     </g>
    </g>
    <g id="text_5">
     <!-- log10(# (f+g)-evals / dimension) -->
     <g transform="translate(58.145016 342.217594)scale(0.17 -0.17)">
      <defs>
       <path d="M 9.421875 75.984375 
L 18.40625 75.984375 
L 18.40625 0 
L 9.421875 0 
z
" id="DejaVuSans-108"/>
       <path d="M 30.609375 48.390625 
Q 23.390625 48.390625 19.1875 42.75 
Q 14.984375 37.109375 14.984375 27.296875 
Q 14.984375 17.484375 19.15625 11.84375 
Q 23.34375 6.203125 30.609375 6.203125 
Q 37.796875 6.203125 41.984375 11.859375 
Q 46.1875 17.53125 46.1875 27.296875 
Q 46.1875 37.015625 41.984375 42.703125 
Q 37.796875 48.390625 30.609375 48.390625 
z
M 30.609375 56 
Q 42.328125 56 49.015625 48.375 
Q 55.71875 40.765625 55.71875 27.296875 
Q 55.71875 13.875 49.015625 6.21875 
Q 42.328125 -1.421875 30.609375 -1.421875 
Q 18.84375 -1.421875 12.171875 6.21875 
Q 5.515625 13.875 5.515625 27.296875 
Q 5.515625 40.765625 12.171875 48.375 
Q 18.84375 56 30.609375 56 
z
" id="DejaVuSans-111"/>
       <path d="M 45.40625 27.984375 
Q 45.40625 37.75 41.375 43.109375 
Q 37.359375 48.484375 30.078125 48.484375 
Q 22.859375 48.484375 18.828125 43.109375 
Q 14.796875 37.75 14.796875 27.984375 
Q 14.796875 18.265625 18.828125 12.890625 
Q 22.859375 7.515625 30.078125 7.515625 
Q 37.359375 7.515625 41.375 12.890625 
Q 45.40625 18.265625 45.40625 27.984375 
z
M 54.390625 6.78125 
Q 54.390625 -7.171875 48.1875 -13.984375 
Q 42 -20.796875 29.203125 -20.796875 
Q 24.46875 -20.796875 20.265625 -20.09375 
Q 16.0625 -19.390625 12.109375 -17.921875 
L 12.109375 -9.1875 
Q 16.0625 -11.328125 19.921875 -12.34375 
Q 23.78125 -13.375 27.78125 -13.375 
Q 36.625 -13.375 41.015625 -8.765625 
Q 45.40625 -4.15625 45.40625 5.171875 
L 45.40625 9.625 
Q 42.625 4.78125 38.28125 2.390625 
Q 33.9375 0 27.875 0 
Q 17.828125 0 11.671875 7.65625 
Q 5.515625 15.328125 5.515625 27.984375 
Q 5.515625 40.671875 11.671875 48.328125 
Q 17.828125 56 27.875 56 
Q 33.9375 56 38.28125 53.609375 
Q 42.625 51.21875 45.40625 46.390625 
L 45.40625 54.6875 
L 54.390625 54.6875 
z
" id="DejaVuSans-103"/>
       <path d="M 12.40625 8.296875 
L 28.515625 8.296875 
L 28.515625 63.921875 
L 10.984375 60.40625 
L 10.984375 69.390625 
L 28.421875 72.90625 
L 38.28125 72.90625 
L 38.28125 8.296875 
L 54.390625 8.296875 
L 54.390625 0 
L 12.40625 0 
z
" id="DejaVuSans-49"/>
       <path d="M 31 75.875 
Q 24.46875 64.65625 21.28125 53.65625 
Q 18.109375 42.671875 18.109375 31.390625 
Q 18.109375 20.125 21.3125 9.0625 
Q 24.515625 -2 31 -13.1875 
L 23.1875 -13.1875 
Q 15.875 -1.703125 12.234375 9.375 
Q 8.59375 20.453125 8.59375 31.390625 
Q 8.59375 42.28125 12.203125 53.3125 
Q 15.828125 64.359375 23.1875 75.875 
z
" id="DejaVuSans-40"/>
       <path d="M 51.125 44 
L 36.921875 44 
L 32.8125 27.6875 
L 47.125 27.6875 
z
M 43.796875 71.78125 
L 38.71875 51.515625 
L 52.984375 51.515625 
L 58.109375 71.78125 
L 65.921875 71.78125 
L 60.890625 51.515625 
L 76.125 51.515625 
L 76.125 44 
L 58.984375 44 
L 54.984375 27.6875 
L 70.515625 27.6875 
L 70.515625 20.21875 
L 53.078125 20.21875 
L 48 0 
L 40.1875 0 
L 45.21875 20.21875 
L 30.90625 20.21875 
L 25.875 0 
L 18.015625 0 
L 23.09375 20.21875 
L 7.71875 20.21875 
L 7.71875 27.6875 
L 24.90625 27.6875 
L 29 44 
L 13.28125 44 
L 13.28125 51.515625 
L 30.90625 51.515625 
L 35.890625 71.78125 
z
" id="DejaVuSans-35"/>
       <path id="DejaVuSans-32"/>
       <path d="M 37.109375 75.984375 
L 37.109375 68.5 
L 28.515625 68.5 
Q 23.6875 68.5 21.796875 66.546875 
Q 19.921875 64.59375 19.921875 59.515625 
L 19.921875 54.6875 
L 34.71875 54.6875 
L 34.71875 47.703125 
L 19.921875 47.703125 
L 19.921875 0 
L 10.890625 0 
L 10.890625 47.703125 
L 2.296875 47.703125 
L 2.296875 54.6875 
L 10.890625 54.6875 
L 10.890625 58.5 
Q 10.890625 67.625 15.140625 71.796875 
Q 19.390625 75.984375 28.609375 75.984375 
z
" id="DejaVuSans-102"/>
       <path d="M 46 62.703125 
L 46 35.5 
L 73.1875 35.5 
L 73.1875 27.203125 
L 46 27.203125 
L 46 0 
L 37.796875 0 
L 37.796875 27.203125 
L 10.59375 27.203125 
L 10.59375 35.5 
L 37.796875 35.5 
L 37.796875 62.703125 
z
" id="DejaVuSans-43"/>
       <path d="M 8.015625 75.875 
L 15.828125 75.875 
Q 23.140625 64.359375 26.78125 53.3125 
Q 30.421875 42.28125 30.421875 31.390625 
Q 30.421875 20.453125 26.78125 9.375 
Q 23.140625 -1.703125 15.828125 -13.1875 
L 8.015625 -13.1875 
Q 14.5 -2 17.703125 9.0625 
Q 20.90625 20.125 20.90625 31.390625 
Q 20.90625 42.671875 17.703125 53.65625 
Q 14.5 64.65625 8.015625 75.875 
z
" id="DejaVuSans-41"/>
       <path d="M 4.890625 31.390625 
L 31.203125 31.390625 
L 31.203125 23.390625 
L 4.890625 23.390625 
z
" id="DejaVuSans-45"/>
       <path d="M 56.203125 29.59375 
L 56.203125 25.203125 
L 14.890625 25.203125 
Q 15.484375 15.921875 20.484375 11.0625 
Q 25.484375 6.203125 34.421875 6.203125 
Q 39.59375 6.203125 44.453125 7.46875 
Q 49.3125 8.734375 54.109375 11.28125 
L 54.109375 2.78125 
Q 49.265625 0.734375 44.1875 -0.34375 
Q 39.109375 -1.421875 33.890625 -1.421875 
Q 20.796875 -1.421875 13.15625 6.1875 
Q 5.515625 13.8125 5.515625 26.8125 
Q 5.515625 40.234375 12.765625 48.109375 
Q 20.015625 56 32.328125 56 
Q 43.359375 56 49.78125 48.890625 
Q 56.203125 41.796875 56.203125 29.59375 
z
M 47.21875 32.234375 
Q 47.125 39.59375 43.09375 43.984375 
Q 39.0625 48.390625 32.421875 48.390625 
Q 24.90625 48.390625 20.390625 44.140625 
Q 15.875 39.890625 15.1875 32.171875 
z
" id="DejaVuSans-101"/>
       <path d="M 2.984375 54.6875 
L 12.5 54.6875 
L 29.59375 8.796875 
L 46.6875 54.6875 
L 56.203125 54.6875 
L 35.6875 0 
L 23.484375 0 
z
" id="DejaVuSans-118"/>
       <path d="M 34.28125 27.484375 
Q 23.390625 27.484375 19.1875 25 
Q 14.984375 22.515625 14.984375 16.5 
Q 14.984375 11.71875 18.140625 8.90625 
Q 21.296875 6.109375 26.703125 6.109375 
Q 34.1875 6.109375 38.703125 11.40625 
Q 43.21875 16.703125 43.21875 25.484375 
L 43.21875 27.484375 
z
M 52.203125 31.203125 
L 52.203125 0 
L 43.21875 0 
L 43.21875 8.296875 
Q 40.140625 3.328125 35.546875 0.953125 
Q 30.953125 -1.421875 24.3125 -1.421875 
Q 15.921875 -1.421875 10.953125 3.296875 
Q 6 8.015625 6 15.921875 
Q 6 25.140625 12.171875 29.828125 
Q 18.359375 34.515625 30.609375 34.515625 
L 43.21875 34.515625 
L 43.21875 35.40625 
Q 43.21875 41.609375 39.140625 45 
Q 35.0625 48.390625 27.6875 48.390625 
Q 23 48.390625 18.546875 47.265625 
Q 14.109375 46.140625 10.015625 43.890625 
L 10.015625 52.203125 
Q 14.9375 54.109375 19.578125 55.046875 
Q 24.21875 56 28.609375 56 
Q 40.484375 56 46.34375 49.84375 
Q 52.203125 43.703125 52.203125 31.203125 
z
" id="DejaVuSans-97"/>
       <path d="M 44.28125 53.078125 
L 44.28125 44.578125 
Q 40.484375 46.53125 36.375 47.5 
Q 32.28125 48.484375 27.875 48.484375 
Q 21.1875 48.484375 17.84375 46.4375 
Q 14.5 44.390625 14.5 40.28125 
Q 14.5 37.15625 16.890625 35.375 
Q 19.28125 33.59375 26.515625 31.984375 
L 29.59375 31.296875 
Q 39.15625 29.25 43.1875 25.515625 
Q 47.21875 21.78125 47.21875 15.09375 
Q 47.21875 7.46875 41.1875 3.015625 
Q 35.15625 -1.421875 24.609375 -1.421875 
Q 20.21875 -1.421875 15.453125 -0.5625 
Q 10.6875 0.296875 5.421875 2 
L 5.421875 11.28125 
Q 10.40625 8.6875 15.234375 7.390625 
Q 20.0625 6.109375 24.8125 6.109375 
Q 31.15625 6.109375 34.5625 8.28125 
Q 37.984375 10.453125 37.984375 14.40625 
Q 37.984375 18.0625 35.515625 20.015625 
Q 33.0625 21.96875 24.703125 23.78125 
L 21.578125 24.515625 
Q 13.234375 26.265625 9.515625 29.90625 
Q 5.8125 33.546875 5.8125 39.890625 
Q 5.8125 47.609375 11.28125 51.796875 
Q 16.75 56 26.8125 56 
Q 31.78125 56 36.171875 55.265625 
Q 40.578125 54.546875 44.28125 53.078125 
z
" id="DejaVuSans-115"/>
       <path d="M 25.390625 72.90625 
L 33.6875 72.90625 
L 8.296875 -9.28125 
L 0 -9.28125 
z
" id="DejaVuSans-47"/>
       <path d="M 45.40625 46.390625 
L 45.40625 75.984375 
L 54.390625 75.984375 
L 54.390625 0 
L 45.40625 0 
L 45.40625 8.203125 
Q 42.578125 3.328125 38.25 0.953125 
Q 33.9375 -1.421875 27.875 -1.421875 
Q 17.96875 -1.421875 11.734375 6.484375 
Q 5.515625 14.40625 5.515625 27.296875 
Q 5.515625 40.1875 11.734375 48.09375 
Q 17.96875 56 27.875 56 
Q 33.9375 56 38.25 53.625 
Q 42.578125 51.265625 45.40625 46.390625 
z
M 14.796875 27.296875 
Q 14.796875 17.390625 18.875 11.75 
Q 22.953125 6.109375 30.078125 6.109375 
Q 37.203125 6.109375 41.296875 11.75 
Q 45.40625 17.390625 45.40625 27.296875 
Q 45.40625 37.203125 41.296875 42.84375 
Q 37.203125 48.484375 30.078125 48.484375 
Q 22.953125 48.484375 18.875 42.84375 
Q 14.796875 37.203125 14.796875 27.296875 
z
" id="DejaVuSans-100"/>
       <path d="M 9.421875 54.6875 
L 18.40625 54.6875 
L 18.40625 0 
L 9.421875 0 
z
M 9.421875 75.984375 
L 18.40625 75.984375 
L 18.40625 64.59375 
L 9.421875 64.59375 
z
" id="DejaVuSans-105"/>
       <path d="M 52 44.1875 
Q 55.375 50.25 60.0625 53.125 
Q 64.75 56 71.09375 56 
Q 79.640625 56 84.28125 50.015625 
Q 88.921875 44.046875 88.921875 33.015625 
L 88.921875 0 
L 79.890625 0 
L 79.890625 32.71875 
Q 79.890625 40.578125 77.09375 44.375 
Q 74.3125 48.1875 68.609375 48.1875 
Q 61.625 48.1875 57.5625 43.546875 
Q 53.515625 38.921875 53.515625 30.90625 
L 53.515625 0 
L 44.484375 0 
L 44.484375 32.71875 
Q 44.484375 40.625 41.703125 44.40625 
Q 38.921875 48.1875 33.109375 48.1875 
Q 26.21875 48.1875 22.15625 43.53125 
Q 18.109375 38.875 18.109375 30.90625 
L 18.109375 0 
L 9.078125 0 
L 9.078125 54.6875 
L 18.109375 54.6875 
L 18.109375 46.1875 
Q 21.1875 51.21875 25.484375 53.609375 
Q 29.78125 56 35.6875 56 
Q 41.65625 56 45.828125 52.96875 
Q 50 49.953125 52 44.1875 
z
" id="DejaVuSans-109"/>
       <path d="M 54.890625 33.015625 
L 54.890625 0 
L 45.90625 0 
L 45.90625 32.71875 
Q 45.90625 40.484375 42.875 44.328125 
Q 39.84375 48.1875 33.796875 48.1875 
Q 26.515625 48.1875 22.3125 43.546875 
Q 18.109375 38.921875 18.109375 30.90625 
L 18.109375 0 
L 9.078125 0 
L 9.078125 54.6875 
L 18.109375 54.6875 
L 18.109375 46.1875 
Q 21.34375 51.125 25.703125 53.5625 
Q 30.078125 56 35.796875 56 
Q 45.21875 56 50.046875 50.171875 
Q 54.890625 44.34375 54.890625 33.015625 
z
" id="DejaVuSans-110"/>
      </defs>
      <use xlink:href="#DejaVuSans-108"/>
      <use x="27.783203" xlink:href="#DejaVuSans-111"/>
      <use x="88.964844" xlink:href="#DejaVuSans-103"/>
      <use x="152.441406" xlink:href="#DejaVuSans-49"/>
      <use x="216.064453" xlink:href="#DejaVuSans-48"/>
      <use x="279.6875" xlink:href="#DejaVuSans-40"/>
      <use x="318.701172" xlink:href="#DejaVuSans-35"/>
      <use x="402.490234" xlink:href="#DejaVuSans-32"/>
      <use x="434.277344" xlink:href="#DejaVuSans-40"/>
      <use x="473.291016" xlink:href="#DejaVuSans-102"/>
      <use x="508.496094" xlink:href="#DejaVuSans-43"/>
      <use x="592.285156" xlink:href="#DejaVuSans-103"/>
      <use x="655.761719" xlink:href="#DejaVuSans-41"/>
      <use x="694.775391" xlink:href="#DejaVuSans-45"/>
      <use x="730.859375" xlink:href="#DejaVuSans-101"/>
      <use x="792.382812" xlink:href="#DejaVuSans-118"/>
      <use x="851.5625" xlink:href="#DejaVuSans-97"/>
      <use x="912.841797" xlink:href="#DejaVuSans-108"/>
      <use x="940.625" xlink:href="#DejaVuSans-115"/>
      <use x="992.724609" xlink:href="#DejaVuSans-32"/>
      <use x="1024.511719" xlink:href="#DejaVuSans-47"/>
      <use x="1058.203125" xlink:href="#DejaVuSans-32"/>
      <use x="1089.990234" xlink:href="#DejaVuSans-100"/>
      <use x="1153.466797" xlink:href="#DejaVuSans-105"/>
      <use x="1181.25" xlink:href="#DejaVuSans-109"/>
      <use x="1278.662109" xlink:href="#DejaVuSans-101"/>
      <use x="1340.185547" xlink:href="#DejaVuSans-110"/>
      <use x="1403.564453" xlink:href="#DejaVuSans-115"/>
      <use x="1455.664062" xlink:href="#DejaVuSans-105"/>
      <use x="1483.447266" xlink:href="#DejaVuSans-111"/>
      <use x="1544.628906" xlink:href="#DejaVuSans-110"/>
      <use x="1608.007812" xlink:href="#DejaVuSans-41"/>
     </g>
    </g>
   </g>
   <g id="matplotlib.axis_2">
    <g id="ytick_1">
     <g id="line2d_17">
      <path clip-path="url(#pd4ce081737)" d="M 57.6 298.944 
L 338.688 298.944 
" style="fill:none;stroke:#b0b0b0;stroke-linecap:square;stroke-width:0.8;"/>
     </g>
     <g id="line2d_18">
      <defs>
       <path d="M 0 0 
L -3.5 0 
" id="m125527cacf" style="stroke:#000000;stroke-width:0.8;"/>
      </defs>
      <g>
       <use style="stroke:#000000;stroke-width:0.8;" x="57.6" xlink:href="#m125527cacf" y="298.944"/>
      </g>
     </g>
     <g id="text_6">
      <!-- 0.0 -->
      <g transform="translate(25.155 305.02275)scale(0.16 -0.16)">
       <defs>
        <path d="M 10.6875 12.40625 
L 21 12.40625 
L 21 0 
L 10.6875 0 
z
" id="DejaVuSans-46"/>
       </defs>
       <use xlink:href="#DejaVuSans-48"/>
       <use x="63.623047" xlink:href="#DejaVuSans-46"/>
       <use x="95.410156" xlink:href="#DejaVuSans-48"/>
      </g>
     </g>
    </g>
    <g id="ytick_2">
     <g id="line2d_19">
      <path clip-path="url(#pd4ce081737)" d="M 57.6 240.431525 
L 338.688 240.431525 
" style="fill:none;stroke:#b0b0b0;stroke-linecap:square;stroke-width:0.8;"/>
     </g>
     <g id="line2d_20">
      <g>
       <use style="stroke:#000000;stroke-width:0.8;" x="57.6" xlink:href="#m125527cacf" y="240.431525"/>
      </g>
     </g>
     <g id="text_7">
      <!-- 0.2 -->
      <g transform="translate(25.155 246.510275)scale(0.16 -0.16)">
       <use xlink:href="#DejaVuSans-48"/>
       <use x="63.623047" xlink:href="#DejaVuSans-46"/>
       <use x="95.410156" xlink:href="#DejaVuSans-50"/>
      </g>
     </g>
    </g>
    <g id="ytick_3">
     <g id="line2d_21">
      <path clip-path="url(#pd4ce081737)" d="M 57.6 181.91905 
L 338.688 181.91905 
" style="fill:none;stroke:#b0b0b0;stroke-linecap:square;stroke-width:0.8;"/>
     </g>
     <g id="line2d_22">
      <g>
       <use style="stroke:#000000;stroke-width:0.8;" x="57.6" xlink:href="#m125527cacf" y="181.91905"/>
      </g>
     </g>
     <g id="text_8">
      <!-- 0.4 -->
      <g transform="translate(25.155 187.9978)scale(0.16 -0.16)">
       <use xlink:href="#DejaVuSans-48"/>
       <use x="63.623047" xlink:href="#DejaVuSans-46"/>
       <use x="95.410156" xlink:href="#DejaVuSans-52"/>
      </g>
     </g>
    </g>
    <g id="ytick_4">
     <g id="line2d_23">
      <path clip-path="url(#pd4ce081737)" d="M 57.6 123.406574 
L 338.688 123.406574 
" style="fill:none;stroke:#b0b0b0;stroke-linecap:square;stroke-width:0.8;"/>
     </g>
     <g id="line2d_24">
      <g>
       <use style="stroke:#000000;stroke-width:0.8;" x="57.6" xlink:href="#m125527cacf" y="123.406574"/>
      </g>
     </g>
     <g id="text_9">
      <!-- 0.6 -->
      <g transform="translate(25.155 129.485324)scale(0.16 -0.16)">
       <use xlink:href="#DejaVuSans-48"/>
       <use x="63.623047" xlink:href="#DejaVuSans-46"/>
       <use x="95.410156" xlink:href="#DejaVuSans-54"/>
      </g>
     </g>
    </g>
    <g id="ytick_5">
     <g id="line2d_25">
      <path clip-path="url(#pd4ce081737)" d="M 57.6 64.894099 
L 338.688 64.894099 
" style="fill:none;stroke:#b0b0b0;stroke-linecap:square;stroke-width:0.8;"/>
     </g>
     <g id="line2d_26">
      <g>
       <use style="stroke:#000000;stroke-width:0.8;" x="57.6" xlink:href="#m125527cacf" y="64.894099"/>
      </g>
     </g>
     <g id="text_10">
      <!-- 0.8 -->
      <g transform="translate(25.155 70.972849)scale(0.16 -0.16)">
       <defs>
        <path d="M 31.78125 34.625 
Q 24.75 34.625 20.71875 30.859375 
Q 16.703125 27.09375 16.703125 20.515625 
Q 16.703125 13.921875 20.71875 10.15625 
Q 24.75 6.390625 31.78125 6.390625 
Q 38.8125 6.390625 42.859375 10.171875 
Q 46.921875 13.96875 46.921875 20.515625 
Q 46.921875 27.09375 42.890625 30.859375 
Q 38.875 34.625 31.78125 34.625 
z
M 21.921875 38.8125 
Q 15.578125 40.375 12.03125 44.71875 
Q 8.5 49.078125 8.5 55.328125 
Q 8.5 64.0625 14.71875 69.140625 
Q 20.953125 74.21875 31.78125 74.21875 
Q 42.671875 74.21875 48.875 69.140625 
Q 55.078125 64.0625 55.078125 55.328125 
Q 55.078125 49.078125 51.53125 44.71875 
Q 48 40.375 41.703125 38.8125 
Q 48.828125 37.15625 52.796875 32.3125 
Q 56.78125 27.484375 56.78125 20.515625 
Q 56.78125 9.90625 50.3125 4.234375 
Q 43.84375 -1.421875 31.78125 -1.421875 
Q 19.734375 -1.421875 13.25 4.234375 
Q 6.78125 9.90625 6.78125 20.515625 
Q 6.78125 27.484375 10.78125 32.3125 
Q 14.796875 37.15625 21.921875 38.8125 
z
M 18.3125 54.390625 
Q 18.3125 48.734375 21.84375 45.5625 
Q 25.390625 42.390625 31.78125 42.390625 
Q 38.140625 42.390625 41.71875 45.5625 
Q 45.3125 48.734375 45.3125 54.390625 
Q 45.3125 60.0625 41.71875 63.234375 
Q 38.140625 66.40625 31.78125 66.40625 
Q 25.390625 66.40625 21.84375 63.234375 
Q 18.3125 60.0625 18.3125 54.390625 
z
" id="DejaVuSans-56"/>
       </defs>
       <use xlink:href="#DejaVuSans-48"/>
       <use x="63.623047" xlink:href="#DejaVuSans-46"/>
       <use x="95.410156" xlink:href="#DejaVuSans-56"/>
      </g>
     </g>
    </g>
    <g id="ytick_6">
     <g id="line2d_27">
      <path clip-path="url(#pd4ce081737)" d="M 57.6 6.381624 
L 338.688 6.381624 
" style="fill:none;stroke:#b0b0b0;stroke-linecap:square;stroke-width:0.8;"/>
     </g>
     <g id="line2d_28">
      <g>
       <use style="stroke:#000000;stroke-width:0.8;" x="57.6" xlink:href="#m125527cacf" y="6.381624"/>
      </g>
     </g>
     <g id="text_11">
      <!-- 1.0 -->
      <g transform="translate(25.155 12.460374)scale(0.16 -0.16)">
       <use xlink:href="#DejaVuSans-49"/>
       <use x="63.623047" xlink:href="#DejaVuSans-46"/>
       <use x="95.410156" xlink:href="#DejaVuSans-48"/>
      </g>
     </g>
    </g>
    <g id="text_12">
     <!-- Fraction of function,target pairs -->
     <g transform="translate(17.619531 285.585)rotate(-90)scale(0.17 -0.17)">
      <defs>
       <path d="M 9.8125 72.90625 
L 51.703125 72.90625 
L 51.703125 64.59375 
L 19.671875 64.59375 
L 19.671875 43.109375 
L 48.578125 43.109375 
L 48.578125 34.8125 
L 19.671875 34.8125 
L 19.671875 0 
L 9.8125 0 
z
" id="DejaVuSans-70"/>
       <path d="M 41.109375 46.296875 
Q 39.59375 47.171875 37.8125 47.578125 
Q 36.03125 48 33.890625 48 
Q 26.265625 48 22.1875 43.046875 
Q 18.109375 38.09375 18.109375 28.8125 
L 18.109375 0 
L 9.078125 0 
L 9.078125 54.6875 
L 18.109375 54.6875 
L 18.109375 46.1875 
Q 20.953125 51.171875 25.484375 53.578125 
Q 30.03125 56 36.53125 56 
Q 37.453125 56 38.578125 55.875 
Q 39.703125 55.765625 41.0625 55.515625 
z
" id="DejaVuSans-114"/>
       <path d="M 48.78125 52.59375 
L 48.78125 44.1875 
Q 44.96875 46.296875 41.140625 47.34375 
Q 37.3125 48.390625 33.40625 48.390625 
Q 24.65625 48.390625 19.8125 42.84375 
Q 14.984375 37.3125 14.984375 27.296875 
Q 14.984375 17.28125 19.8125 11.734375 
Q 24.65625 6.203125 33.40625 6.203125 
Q 37.3125 6.203125 41.140625 7.25 
Q 44.96875 8.296875 48.78125 10.40625 
L 48.78125 2.09375 
Q 45.015625 0.34375 40.984375 -0.53125 
Q 36.96875 -1.421875 32.421875 -1.421875 
Q 20.0625 -1.421875 12.78125 6.34375 
Q 5.515625 14.109375 5.515625 27.296875 
Q 5.515625 40.671875 12.859375 48.328125 
Q 20.21875 56 33.015625 56 
Q 37.15625 56 41.109375 55.140625 
Q 45.0625 54.296875 48.78125 52.59375 
z
" id="DejaVuSans-99"/>
       <path d="M 18.3125 70.21875 
L 18.3125 54.6875 
L 36.8125 54.6875 
L 36.8125 47.703125 
L 18.3125 47.703125 
L 18.3125 18.015625 
Q 18.3125 11.328125 20.140625 9.421875 
Q 21.96875 7.515625 27.59375 7.515625 
L 36.8125 7.515625 
L 36.8125 0 
L 27.59375 0 
Q 17.1875 0 13.234375 3.875 
Q 9.28125 7.765625 9.28125 18.015625 
L 9.28125 47.703125 
L 2.6875 47.703125 
L 2.6875 54.6875 
L 9.28125 54.6875 
L 9.28125 70.21875 
z
" id="DejaVuSans-116"/>
       <path d="M 8.5 21.578125 
L 8.5 54.6875 
L 17.484375 54.6875 
L 17.484375 21.921875 
Q 17.484375 14.15625 20.5 10.265625 
Q 23.53125 6.390625 29.59375 6.390625 
Q 36.859375 6.390625 41.078125 11.03125 
Q 45.3125 15.671875 45.3125 23.6875 
L 45.3125 54.6875 
L 54.296875 54.6875 
L 54.296875 0 
L 45.3125 0 
L 45.3125 8.40625 
Q 42.046875 3.421875 37.71875 1 
Q 33.40625 -1.421875 27.6875 -1.421875 
Q 18.265625 -1.421875 13.375 4.4375 
Q 8.5 10.296875 8.5 21.578125 
z
M 31.109375 56 
z
" id="DejaVuSans-117"/>
       <path d="M 11.71875 12.40625 
L 22.015625 12.40625 
L 22.015625 4 
L 14.015625 -11.625 
L 7.71875 -11.625 
L 11.71875 4 
z
" id="DejaVuSans-44"/>
       <path d="M 18.109375 8.203125 
L 18.109375 -20.796875 
L 9.078125 -20.796875 
L 9.078125 54.6875 
L 18.109375 54.6875 
L 18.109375 46.390625 
Q 20.953125 51.265625 25.265625 53.625 
Q 29.59375 56 35.59375 56 
Q 45.5625 56 51.78125 48.09375 
Q 58.015625 40.1875 58.015625 27.296875 
Q 58.015625 14.40625 51.78125 6.484375 
Q 45.5625 -1.421875 35.59375 -1.421875 
Q 29.59375 -1.421875 25.265625 0.953125 
Q 20.953125 3.328125 18.109375 8.203125 
z
M 48.6875 27.296875 
Q 48.6875 37.203125 44.609375 42.84375 
Q 40.53125 48.484375 33.40625 48.484375 
Q 26.265625 48.484375 22.1875 42.84375 
Q 18.109375 37.203125 18.109375 27.296875 
Q 18.109375 17.390625 22.1875 11.75 
Q 26.265625 6.109375 33.40625 6.109375 
Q 40.53125 6.109375 44.609375 11.75 
Q 48.6875 17.390625 48.6875 27.296875 
z
" id="DejaVuSans-112"/>
      </defs>
      <use xlink:href="#DejaVuSans-70"/>
      <use x="50.269531" xlink:href="#DejaVuSans-114"/>
      <use x="91.382812" xlink:href="#DejaVuSans-97"/>
      <use x="152.662109" xlink:href="#DejaVuSans-99"/>
      <use x="207.642578" xlink:href="#DejaVuSans-116"/>
      <use x="246.851562" xlink:href="#DejaVuSans-105"/>
      <use x="274.634766" xlink:href="#DejaVuSans-111"/>
      <use x="335.816406" xlink:href="#DejaVuSans-110"/>
      <use x="399.195312" xlink:href="#DejaVuSans-32"/>
      <use x="430.982422" xlink:href="#DejaVuSans-111"/>
      <use x="492.164062" xlink:href="#DejaVuSans-102"/>
      <use x="527.369141" xlink:href="#DejaVuSans-32"/>
      <use x="559.15625" xlink:href="#DejaVuSans-102"/>
      <use x="594.361328" xlink:href="#DejaVuSans-117"/>
      <use x="657.740234" xlink:href="#DejaVuSans-110"/>
      <use x="721.119141" xlink:href="#DejaVuSans-99"/>
      <use x="776.099609" xlink:href="#DejaVuSans-116"/>
      <use x="815.308594" xlink:href="#DejaVuSans-105"/>
      <use x="843.091797" xlink:href="#DejaVuSans-111"/>
      <use x="904.273438" xlink:href="#DejaVuSans-110"/>
      <use x="967.652344" xlink:href="#DejaVuSans-44"/>
      <use x="999.439453" xlink:href="#DejaVuSans-116"/>
      <use x="1038.648438" xlink:href="#DejaVuSans-97"/>
      <use x="1099.927734" xlink:href="#DejaVuSans-114"/>
      <use x="1139.291016" xlink:href="#DejaVuSans-103"/>
      <use x="1202.767578" xlink:href="#DejaVuSans-101"/>
      <use x="1264.291016" xlink:href="#DejaVuSans-116"/>
      <use x="1303.5" xlink:href="#DejaVuSans-32"/>
      <use x="1335.287109" xlink:href="#DejaVuSans-112"/>
      <use x="1398.763672" xlink:href="#DejaVuSans-97"/>
      <use x="1460.042969" xlink:href="#DejaVuSans-105"/>
      <use x="1487.826172" xlink:href="#DejaVuSans-114"/>
      <use x="1528.939453" xlink:href="#DejaVuSans-115"/>
     </g>
    </g>
   </g>
   <g id="line2d_29">
    <defs>
     <path d="M 0 1.5 
C 0.397805 1.5 0.77937 1.341951 1.06066 1.06066 
C 1.341951 0.77937 1.5 0.397805 1.5 0 
C 1.5 -0.397805 1.341951 -0.77937 1.06066 -1.06066 
C 0.77937 -1.341951 0.397805 -1.5 0 -1.5 
C -0.397805 -1.5 -0.77937 -1.341951 -1.06066 -1.06066 
C -1.341951 -0.77937 -1.5 -0.397805 -1.5 0 
C -1.5 0.397805 -1.341951 0.77937 -1.06066 1.06066 
C -0.77937 1.341951 -0.397805 1.5 0 1.5 
z
" id="m83ef0d049e" style="stroke:#000080;"/>
    </defs>
    <g>
     <use style="fill:#000080;stroke:#000080;" x="102.989037" xlink:href="#m83ef0d049e" y="6.381624"/>
     <use style="fill:#000080;stroke:#000080;" x="102.989037" xlink:href="#m83ef0d049e" y="6.381624"/>
    </g>
   </g>
   <g id="line2d_30">
    <path d="M 45.512012 298.944 
L 45.512012 297.516866 
L 87.329581 297.516866 
L 87.329581 64.418388 
L 90.242884 64.418388 
L 90.242884 62.991254 
L 95.918017 62.991254 
L 95.918017 11.614447 
L 101.646892 11.614447 
L 101.646892 10.663024 
L 102.989037 10.663024 
L 102.989037 6.381624 
L 338.688 6.381624 
" style="fill:none;stroke:#000080;stroke-linecap:square;stroke-width:1.5;"/>
   </g>
   <g id="line2d_31">
    <defs>
     <path d="M 0 6 
C 1.591219 6 3.117479 5.367802 4.242641 4.242641 
C 5.367802 3.117479 6 1.591219 6 0 
C 6 -1.591219 5.367802 -3.117479 4.242641 -4.242641 
C 3.117479 -5.367802 1.591219 -6 0 -6 
C -1.591219 -6 -3.117479 -5.367802 -4.242641 -4.242641 
C -5.367802 -3.117479 -6 -1.591219 -6 0 
C -6 1.591219 -5.367802 3.117479 -4.242641 4.242641 
C -3.117479 5.367802 -1.591219 6 0 6 
z
" id="mccd496a7e5" style="stroke:#000080;stroke-width:1.5;"/>
    </defs>
    <g>
     <use style="fill-opacity:0;stroke:#000080;stroke-width:1.5;" x="87.329581" xlink:href="#mccd496a7e5" y="297.516866"/>
     <use style="fill-opacity:0;stroke:#000080;stroke-width:1.5;" x="95.918017" xlink:href="#mccd496a7e5" y="62.991254"/>
     <use style="fill-opacity:0;stroke:#000080;stroke-width:1.5;" x="102.989037" xlink:href="#mccd496a7e5" y="10.663024"/>
     <use style="fill-opacity:0;stroke:#000080;stroke-width:1.5;" x="102.989037" xlink:href="#mccd496a7e5" y="6.381624"/>
     <use style="fill-opacity:0;stroke:#000080;stroke-width:1.5;" x="102.989037" xlink:href="#mccd496a7e5" y="6.381624"/>
     <use style="fill-opacity:0;stroke:#000080;stroke-width:1.5;" x="338.688" xlink:href="#mccd496a7e5" y="6.381624"/>
    </g>
   </g>
   <g id="line2d_32">
    <path style="fill:none;stroke:#000080;stroke-linecap:square;stroke-width:1.5;"/>
    <g/>
   </g>
   <g id="line2d_33">
    <defs>
     <path d="M 0 1.5 
C 0.397805 1.5 0.77937 1.341951 1.06066 1.06066 
C 1.341951 0.77937 1.5 0.397805 1.5 0 
C 1.5 -0.397805 1.341951 -0.77937 1.06066 -1.06066 
C 0.77937 -1.341951 0.397805 -1.5 0 -1.5 
C -0.397805 -1.5 -0.77937 -1.341951 -1.06066 -1.06066 
C -1.341951 -0.77937 -1.5 -0.397805 -1.5 0 
C -1.5 0.397805 -1.341951 0.77937 -1.06066 1.06066 
C -0.77937 1.341951 -0.397805 1.5 0 1.5 
z
" id="mc4fd1d4a39" style="stroke:#ff00ff;"/>
    </defs>
    <g>
     <use style="fill:#ff00ff;stroke:#ff00ff;" x="157.329512" xlink:href="#mc4fd1d4a39" y="6.381624"/>
     <use style="fill:#ff00ff;stroke:#ff00ff;" x="157.329512" xlink:href="#mc4fd1d4a39" y="6.381624"/>
    </g>
   </g>
   <g id="line2d_34">
    <path d="M 87.329581 298.944 
L 87.329581 288.954065 
L 95.918017 288.954065 
L 95.918017 274.68273 
L 101.646892 274.68273 
L 101.646892 251.372882 
L 102.989037 251.372882 
L 102.989037 250.42146 
L 105.951954 250.42146 
L 105.951954 229.490168 
L 107.009204 229.490168 
L 107.009204 223.781633 
L 109.401893 223.781633 
L 109.401893 203.326053 
L 110.274038 203.326053 
L 110.274038 196.666096 
L 111.104637 196.666096 
L 111.104637 190.481851 
L 112.280765 190.481851 
L 112.280765 178.11336 
L 113.022974 178.11336 
L 113.022974 177.161938 
L 113.73488 177.161938 
L 113.73488 171.929115 
L 114.751048 171.929115 
L 114.751048 166.696292 
L 115.397021 166.696292 
L 115.397021 161.93918 
L 116.019919 161.93918 
L 116.019919 158.609202 
L 116.621333 158.609202 
L 116.621333 157.182068 
L 116.914437 157.182068 
L 116.914437 155.279223 
L 117.486268 155.279223 
L 117.486268 146.716422 
L 118.039942 146.716422 
L 118.039942 132.445087 
L 118.576578 132.445087 
L 118.576578 127.212264 
L 118.838828 127.212264 
L 118.838828 123.882285 
L 119.097192 123.882285 
L 119.097192 121.50373 
L 119.351785 121.50373 
L 119.351785 115.319484 
L 119.850084 115.319484 
L 119.850084 105.329549 
L 120.33454 105.329549 
L 120.33454 102.475282 
L 121.036887 102.475282 
L 121.036887 100.572438 
L 121.489881 100.572438 
L 121.489881 92.485348 
L 121.931406 92.485348 
L 121.931406 91.058214 
L 122.148045 91.058214 
L 122.148045 89.63108 
L 122.573415 89.63108 
L 122.573415 80.116857 
L 122.782271 80.116857 
L 122.782271 77.738301 
L 122.988655 77.738301 
L 122.988655 74.884034 
L 123.394238 74.884034 
L 123.394238 70.126922 
L 123.985457 70.126922 
L 123.985457 67.748366 
L 124.178158 67.748366 
L 124.178158 67.272655 
L 124.557288 67.272655 
L 124.557288 66.321233 
L 124.743806 66.321233 
L 124.743806 56.331298 
L 125.291682 56.331298 
L 125.291682 54.904164 
L 125.470548 54.904164 
L 125.470548 53.952742 
L 125.822869 53.952742 
L 125.822869 52.049897 
L 125.996395 52.049897 
L 125.996395 51.098475 
L 127.325746 51.098475 
L 127.325746 50.622764 
L 127.799239 50.622764 
L 127.799239 48.719919 
L 127.954256 48.719919 
L 127.954256 45.389941 
L 128.411207 45.389941 
L 128.411207 43.011385 
L 128.856489 43.011385 
L 128.856489 41.10854 
L 129.433047 41.10854 
L 129.433047 38.254273 
L 129.714332 38.254273 
L 129.714332 36.351428 
L 130.398313 36.351428 
L 130.398313 34.924295 
L 130.664567 34.924295 
L 130.664567 34.448583 
L 130.926816 34.448583 
L 130.926816 33.972872 
L 131.814826 33.972872 
L 131.814826 30.167183 
L 132.060454 30.167183 
L 132.060454 27.312916 
L 132.422528 27.312916 
L 132.422528 24.93436 
L 133.124876 24.93436 
L 133.124876 23.507226 
L 133.239232 23.507226 
L 133.239232 20.652959 
L 133.689303 20.652959 
L 133.689303 17.798692 
L 134.019394 17.798692 
L 134.019394 17.322981 
L 134.450015 17.322981 
L 134.450015 16.84727 
L 135.381712 16.84727 
L 135.381712 16.371559 
L 140.944478 16.371559 
L 140.944478 15.420136 
L 143.527762 15.420136 
L 143.527762 14.944425 
L 144.330419 14.944425 
L 144.330419 13.517291 
L 146.270114 13.517291 
L 146.270114 11.138736 
L 146.696785 11.138736 
L 146.696785 10.663024 
L 149.512548 10.663024 
L 149.512548 8.76018 
L 151.660987 8.76018 
L 151.660987 7.808757 
L 157.329512 7.808757 
L 157.329512 6.381624 
L 338.688 6.381624 
L 338.688 6.381624 
" style="fill:none;stroke:#ff00ff;stroke-linecap:square;stroke-width:1.5;"/>
   </g>
   <g id="line2d_35">
    <defs>
     <path d="M -0 8.485281 
L 5.091169 0 
L 0 -8.485281 
L -5.091169 -0 
z
" id="m7c1a1941d5" style="stroke:#ff00ff;stroke-linejoin:miter;stroke-width:1.5;"/>
    </defs>
    <g>
     <use style="fill-opacity:0;stroke:#ff00ff;stroke-linejoin:miter;stroke-width:1.5;" x="116.621333" xlink:href="#m7c1a1941d5" y="157.182068"/>
     <use style="fill-opacity:0;stroke:#ff00ff;stroke-linejoin:miter;stroke-width:1.5;" x="151.660987" xlink:href="#m7c1a1941d5" y="7.808757"/>
     <use style="fill-opacity:0;stroke:#ff00ff;stroke-linejoin:miter;stroke-width:1.5;" x="157.329512" xlink:href="#m7c1a1941d5" y="6.381624"/>
     <use style="fill-opacity:0;stroke:#ff00ff;stroke-linejoin:miter;stroke-width:1.5;" x="157.329512" xlink:href="#m7c1a1941d5" y="6.381624"/>
     <use style="fill-opacity:0;stroke:#ff00ff;stroke-linejoin:miter;stroke-width:1.5;" x="338.688" xlink:href="#m7c1a1941d5" y="6.381624"/>
    </g>
   </g>
   <g id="line2d_36">
    <path style="fill:none;stroke:#ff00ff;stroke-linecap:square;stroke-width:1.5;"/>
    <g/>
   </g>
   <g id="line2d_37">
    <defs>
     <path d="M 0 1.5 
C 0.397805 1.5 0.77937 1.341951 1.06066 1.06066 
C 1.341951 0.77937 1.5 0.397805 1.5 0 
C 1.5 -0.397805 1.341951 -0.77937 1.06066 -1.06066 
C 0.77937 -1.341951 0.397805 -1.5 0 -1.5 
C -0.397805 -1.5 -0.77937 -1.341951 -1.06066 -1.06066 
C -1.341951 -0.77937 -1.5 -0.397805 -1.5 0 
C -1.5 0.397805 -1.341951 0.77937 -1.06066 1.06066 
C -0.77937 1.341951 -0.397805 1.5 0 1.5 
z
" id="m860602c2d6" style="stroke:#ff7500;"/>
    </defs>
    <g>
     <use style="fill:#ff7500;stroke:#ff7500;" x="141.521035" xlink:href="#m860602c2d6" y="6.381624"/>
     <use style="fill:#ff7500;stroke:#ff7500;" x="141.521035" xlink:href="#m860602c2d6" y="6.381624"/>
    </g>
   </g>
   <g id="line2d_38">
    <path d="M 45.512012 298.944 
L 45.512012 298.468289 
L 87.329581 298.468289 
L 87.329581 62.039832 
L 91.535274 62.039832 
L 91.535274 59.661276 
L 95.918017 59.661276 
L 95.918017 28.264338 
L 97.755429 28.264338 
L 97.755429 26.837205 
L 98.606294 26.837205 
L 98.606294 25.885782 
L 101.646892 25.885782 
L 101.646892 23.982937 
L 108.483824 23.982937 
L 108.483824 14.944425 
L 111.897469 14.944425 
L 111.897469 12.565869 
L 120.093994 12.565869 
L 120.093994 8.76018 
L 125.647598 8.76018 
L 125.647598 8.284468 
L 133.239232 8.284468 
L 133.239232 7.808757 
L 138.426341 7.808757 
L 138.426341 7.333046 
L 140.944478 7.333046 
L 140.944478 6.857335 
L 141.521035 6.857335 
L 141.521035 6.381624 
L 338.688 6.381624 
" style="fill:none;stroke:#ff7500;stroke-linecap:square;stroke-width:1.5;"/>
   </g>
   <g id="line2d_39">
    <defs>
     <path d="M 0 -6 
L -1.347084 -1.854102 
L -5.706339 -1.854102 
L -2.179628 0.708204 
L -3.526712 4.854102 
L -0 2.291796 
L 3.526712 4.854102 
L 2.179628 0.708204 
L 5.706339 -1.854102 
L 1.347084 -1.854102 
z
" id="mfc17ee3f81" style="stroke:#ff7500;stroke-linejoin:bevel;stroke-width:1.5;"/>
    </defs>
    <g>
     <use style="fill-opacity:0;stroke:#ff7500;stroke-linejoin:bevel;stroke-width:1.5;" x="87.329581" xlink:href="#mfc17ee3f81" y="298.468289"/>
     <use style="fill-opacity:0;stroke:#ff7500;stroke-linejoin:bevel;stroke-width:1.5;" x="125.647598" xlink:href="#mfc17ee3f81" y="8.76018"/>
     <use style="fill-opacity:0;stroke:#ff7500;stroke-linejoin:bevel;stroke-width:1.5;" x="141.521035" xlink:href="#mfc17ee3f81" y="6.857335"/>
     <use style="fill-opacity:0;stroke:#ff7500;stroke-linejoin:bevel;stroke-width:1.5;" x="141.521035" xlink:href="#mfc17ee3f81" y="6.381624"/>
     <use style="fill-opacity:0;stroke:#ff7500;stroke-linejoin:bevel;stroke-width:1.5;" x="141.521035" xlink:href="#mfc17ee3f81" y="6.381624"/>
     <use style="fill-opacity:0;stroke:#ff7500;stroke-linejoin:bevel;stroke-width:1.5;" x="338.688" xlink:href="#mfc17ee3f81" y="6.381624"/>
    </g>
   </g>
   <g id="line2d_40">
    <path style="fill:none;stroke:#ff7500;stroke-linecap:square;stroke-width:1.5;"/>
    <g/>
   </g>
   <g id="line2d_41">
    <defs>
     <path d="M 0 1.5 
C 0.397805 1.5 0.77937 1.341951 1.06066 1.06066 
C 1.341951 0.77937 1.5 0.397805 1.5 0 
C 1.5 -0.397805 1.341951 -0.77937 1.06066 -1.06066 
C 0.77937 -1.341951 0.397805 -1.5 0 -1.5 
C -0.397805 -1.5 -0.77937 -1.341951 -1.06066 -1.06066 
C -1.341951 -0.77937 -1.5 -0.397805 -1.5 0 
C -1.5 0.397805 -1.341951 0.77937 -1.06066 1.06066 
C -0.77937 1.341951 -0.397805 1.5 0 1.5 
z
" id="m6f7f0c38c9" style="stroke:#6495ed;"/>
    </defs>
    <g>
     <use style="fill:#6495ed;stroke:#6495ed;" x="223.60325" xlink:href="#m6f7f0c38c9" y="6.381624"/>
     <use style="fill:#6495ed;stroke:#6495ed;" x="223.60325" xlink:href="#m6f7f0c38c9" y="6.381624"/>
    </g>
   </g>
   <g id="line2d_42">
    <path d="M 87.329581 298.944 
L 87.329581 294.186888 
L 95.918017 294.186888 
L 95.918017 278.488419 
L 97.755429 278.488419 
L 97.755429 277.536997 
L 101.646892 277.536997 
L 101.646892 262.314239 
L 104.23523 262.314239 
L 104.23523 261.838528 
L 105.951954 261.838528 
L 105.951954 236.625835 
L 107.009204 236.625835 
L 107.009204 235.674413 
L 108.006005 235.674413 
L 108.006005 234.247279 
L 109.401893 234.247279 
L 109.401893 209.986009 
L 110.274038 209.986009 
L 110.274038 204.753186 
L 111.104637 204.753186 
L 111.104637 196.190385 
L 111.897469 196.190385 
L 111.897469 195.714674 
L 112.280765 195.714674 
L 112.280765 186.676161 
L 113.022974 186.676161 
L 113.022974 179.540494 
L 113.73488 179.540494 
L 113.73488 176.686227 
L 114.418861 176.686227 
L 114.418861 176.210515 
L 114.751048 176.210515 
L 114.751048 166.220581 
L 115.397021 166.220581 
L 115.397021 157.182068 
L 116.019919 157.182068 
L 116.019919 152.424956 
L 116.323218 152.424956 
L 116.323218 151.473534 
L 116.621333 151.473534 
L 116.621333 150.997823 
L 116.914437 150.997823 
L 116.914437 148.143556 
L 117.486268 148.143556 
L 117.486268 145.765 
L 118.039942 145.765 
L 118.039942 137.67791 
L 118.576578 137.67791 
L 118.576578 137.202199 
L 118.838828 137.202199 
L 118.838828 134.823643 
L 119.097192 134.823643 
L 119.097192 133.396509 
L 119.351785 133.396509 
L 119.351785 127.687975 
L 120.571812 127.687975 
L 120.571812 124.357997 
L 120.8059 124.357997 
L 120.8059 123.882285 
L 121.036887 123.882285 
L 121.036887 121.028018 
L 121.264855 121.028018 
L 121.264855 120.076596 
L 122.148045 120.076596 
L 122.148045 111.513795 
L 122.782271 111.513795 
L 122.782271 111.038084 
L 123.192626 111.038084 
L 123.192626 110.562372 
L 123.593547 110.562372 
L 123.593547 100.572438 
L 123.985457 100.572438 
L 123.985457 98.669593 
L 124.557288 98.669593 
L 124.557288 98.193882 
L 124.92835 98.193882 
L 124.92835 97.242459 
L 126.168212 97.242459 
L 126.168212 96.766748 
L 127.642832 96.766748 
L 127.642832 95.815326 
L 127.954256 95.815326 
L 127.954256 95.339615 
L 129.002426 95.339615 
L 129.002426 94.388192 
L 129.290685 94.388192 
L 129.290685 93.43677 
L 130.263646 93.43677 
L 130.263646 87.252525 
L 130.531948 87.252525 
L 130.531948 86.776813 
L 131.185181 86.776813 
L 131.185181 84.398257 
L 131.690703 84.398257 
L 131.690703 83.922546 
L 132.777237 83.922546 
L 132.777237 83.446835 
L 133.800029 83.446835 
L 133.800029 82.971124 
L 134.766144 82.971124 
L 134.766144 82.495413 
L 135.681535 82.495413 
L 135.681535 81.54399 
L 137.37967 81.54399 
L 137.37967 80.592568 
L 138.927025 80.592568 
L 138.927025 79.641146 
L 139.652088 79.641146 
L 139.652088 79.165434 
L 140.11924 79.165434 
L 140.11924 78.214012 
L 140.348205 78.214012 
L 140.348205 77.26259 
L 141.662245 77.26259 
L 141.662245 76.311167 
L 142.884173 76.311167 
L 142.884173 75.359745 
L 144.026061 75.359745 
L 144.026061 74.884034 
L 144.209312 74.884034 
L 144.209312 74.408323 
L 144.570138 74.408323 
L 144.570138 73.932611 
L 145.097753 73.932611 
L 145.097753 73.4569 
L 145.609873 73.4569 
L 145.609873 72.981189 
L 146.107383 72.981189 
L 146.107383 72.505478 
L 146.591092 72.505478 
L 146.591092 72.029767 
L 147.061745 72.029767 
L 147.061745 71.554056 
L 147.52003 71.554056 
L 147.52003 71.078344 
L 147.96658 71.078344 
L 147.96658 70.602633 
L 148.780082 70.602633 
L 148.826773 69.651211 
L 149.241465 69.651211 
L 149.241465 69.1755 
L 149.646525 69.1755 
L 149.646525 68.699788 
L 150.042389 68.699788 
L 150.042389 68.224077 
L 150.808139 68.224077 
L 150.808139 67.272655 
L 151.541675 67.272655 
L 151.541675 66.796944 
L 151.897188 66.796944 
L 151.897188 66.321233 
L 152.587184 66.321233 
L 152.587184 65.845521 
L 153.573542 65.845521 
L 153.573542 64.894099 
L 154.507086 64.894099 
L 154.507086 64.418388 
L 155.959855 64.418388 
L 155.959855 63.942677 
L 157.300853 63.942677 
L 157.300853 62.515543 
L 160.86807 62.515543 
L 160.86807 62.039832 
L 161.374928 62.039832 
L 161.374928 61.564121 
L 163.144084 61.564121 
L 163.144084 58.709854 
L 164.917777 58.709854 
L 164.917777 58.234142 
L 165.047026 58.234142 
L 165.047026 57.758431 
L 170.607318 57.758431 
L 170.607318 55.379875 
L 177.829252 55.379875 
L 177.829252 51.574186 
L 179.392276 51.574186 
L 179.464856 50.622764 
L 179.537135 50.622764 
L 179.609115 49.671341 
L 179.656938 49.671341 
L 179.656938 47.768496 
L 179.823292 47.768496 
L 179.823292 47.292785 
L 180.104829 47.292785 
L 180.104829 46.817074 
L 180.526366 46.817074 
L 180.526366 45.865652 
L 180.654624 45.865652 
L 180.654624 45.389941 
L 181.187615 45.389941 
L 181.187615 44.914229 
L 181.38336 44.914229 
L 181.38336 44.438518 
L 181.576933 44.438518 
L 181.576933 43.962807 
L 181.831732 43.962807 
L 181.831732 43.487096 
L 182.145083 43.487096 
L 182.145083 43.011385 
L 184.802771 43.011385 
L 184.802771 42.535674 
L 185.641499 42.535674 
L 185.641499 39.681406 
L 186.290039 39.681406 
L 186.290039 38.254273 
L 186.90482 38.254273 
L 186.941551 33.02145 
L 187.949706 33.02145 
L 187.949706 31.594316 
L 189.650035 31.594316 
L 189.650035 30.167183 
L 189.965787 30.167183 
L 189.965787 29.691472 
L 191.532713 29.691472 
L 191.532713 28.740049 
L 191.828302 28.740049 
L 191.828302 27.312916 
L 194.986061 27.312916 
L 195.009179 24.93436 
L 195.490921 24.93436 
L 195.599737 18.274403 
L 197.487804 18.274403 
L 197.487804 17.798692 
L 198.29895 17.798692 
L 198.29895 17.322981 
L 201.657057 17.322981 
L 201.657057 16.84727 
L 201.878816 16.84727 
L 201.878816 16.371559 
L 203.523749 16.371559 
L 203.523749 14.468714 
L 203.66094 14.468714 
L 203.74514 13.517291 
L 206.755553 13.517291 
L 206.755553 13.04158 
L 207.596559 13.04158 
L 207.596559 12.090158 
L 208.923849 12.090158 
L 208.923849 10.663024 
L 211.75063 10.663024 
L 211.75063 8.76018 
L 215.142666 8.76018 
L 215.142666 7.808757 
L 215.77102 7.808757 
L 215.77102 7.333046 
L 218.654888 7.333046 
L 218.654888 6.857335 
L 223.60325 6.857335 
L 223.60325 6.381624 
L 338.688 6.381624 
L 338.688 6.381624 
" style="fill:none;stroke:#6495ed;stroke-linecap:square;stroke-width:1.5;"/>
   </g>
   <g id="line2d_43">
    <defs>
     <path d="M -0 6 
L 6 -6 
L -6 -6 
z
" id="m22dde237cc" style="stroke:#6495ed;stroke-linejoin:miter;stroke-width:1.5;"/>
    </defs>
    <g>
     <use style="fill-opacity:0;stroke:#6495ed;stroke-linejoin:miter;stroke-width:1.5;" x="114.418861" xlink:href="#m22dde237cc" y="176.686227"/>
     <use style="fill-opacity:0;stroke:#6495ed;stroke-linejoin:miter;stroke-width:1.5;" x="157.300853" xlink:href="#m22dde237cc" y="63.942677"/>
     <use style="fill-opacity:0;stroke:#6495ed;stroke-linejoin:miter;stroke-width:1.5;" x="223.60325" xlink:href="#m22dde237cc" y="6.857335"/>
     <use style="fill-opacity:0;stroke:#6495ed;stroke-linejoin:miter;stroke-width:1.5;" x="223.60325" xlink:href="#m22dde237cc" y="6.381624"/>
     <use style="fill-opacity:0;stroke:#6495ed;stroke-linejoin:miter;stroke-width:1.5;" x="338.688" xlink:href="#m22dde237cc" y="6.381624"/>
    </g>
   </g>
   <g id="line2d_44">
    <path style="fill:none;stroke:#6495ed;stroke-linecap:square;stroke-width:1.5;"/>
    <g/>
   </g>
   <g id="line2d_45">
    <path clip-path="url(#pd4ce081737)" d="M 203.840873 13.517291 
" style="fill:none;stroke:#6495ed;stroke-linecap:square;stroke-width:1.5;"/>
    <defs>
     <path d="M -12 12 
L 12 -12 
M -12 -12 
L 12 12 
" id="m347bf36c78" style="stroke:#6495ed;"/>
    </defs>
    <g clip-path="url(#pd4ce081737)">
     <use style="fill:#6495ed;stroke:#6495ed;" x="203.840873" xlink:href="#m347bf36c78" y="13.517291"/>
    </g>
   </g>
   <g id="line2d_46">
    <defs>
     <path d="M 0 1.5 
C 0.397805 1.5 0.77937 1.341951 1.06066 1.06066 
C 1.341951 0.77937 1.5 0.397805 1.5 0 
C 1.5 -0.397805 1.341951 -0.77937 1.06066 -1.06066 
C 0.77937 -1.341951 0.397805 -1.5 0 -1.5 
C -0.397805 -1.5 -0.77937 -1.341951 -1.06066 -1.06066 
C -1.341951 -0.77937 -1.5 -0.397805 -1.5 0 
C -1.5 0.397805 -1.341951 0.77937 -1.06066 1.06066 
C -0.77937 1.341951 -0.397805 1.5 0 1.5 
z
" id="mdb08eefaab" style="stroke:#ff0000;"/>
    </defs>
    <g>
     <use style="fill:#ff0000;stroke:#ff0000;" x="220.046391" xlink:href="#mdb08eefaab" y="6.381624"/>
     <use style="fill:#ff0000;stroke:#ff0000;" x="220.046391" xlink:href="#mdb08eefaab" y="6.381624"/>
    </g>
   </g>
   <g id="line2d_47">
    <path d="M 87.329581 298.944 
L 87.329581 293.711177 
L 95.918017 293.711177 
L 95.918017 278.96413 
L 97.755429 278.96413 
L 97.755429 278.488419 
L 101.646892 278.488419 
L 101.646892 265.168506 
L 105.951954 265.168506 
L 105.951954 239.480102 
L 107.009204 239.480102 
L 107.009204 237.101546 
L 108.006005 237.101546 
L 108.006005 234.247279 
L 109.401893 234.247279 
L 109.401893 191.433273 
L 110.274038 191.433273 
L 110.274038 188.103295 
L 111.104637 188.103295 
L 111.104637 183.346183 
L 112.280765 183.346183 
L 112.280765 158.609202 
L 113.022974 158.609202 
L 113.022974 151.949245 
L 113.73488 151.949245 
L 113.73488 146.716422 
L 114.418861 146.716422 
L 114.418861 143.862155 
L 114.751048 143.862155 
L 114.751048 132.920798 
L 115.397021 132.920798 
L 115.397021 123.406574 
L 116.019919 123.406574 
L 116.019919 109.135239 
L 116.323218 109.135239 
L 116.323218 107.708105 
L 116.621333 107.708105 
L 116.621333 101.999571 
L 116.914437 101.999571 
L 116.914437 83.446835 
L 117.486268 83.446835 
L 117.486268 77.738301 
L 118.039942 77.738301 
L 118.039942 73.932611 
L 118.576578 73.932611 
L 118.576578 67.272655 
L 119.097192 67.272655 
L 119.097192 66.796944 
L 119.850084 66.796944 
L 119.850084 65.36981 
L 120.571812 65.36981 
L 120.571812 64.894099 
L 120.8059 64.894099 
L 120.8059 64.418388 
L 121.489881 64.418388 
L 121.489881 62.991254 
L 122.782271 62.991254 
L 122.782271 62.515543 
L 124.557288 62.515543 
L 124.557288 62.039832 
L 126.168212 62.039832 
L 126.168212 61.08841 
L 127.642832 61.08841 
L 127.642832 60.136987 
L 129.002426 60.136987 
L 129.002426 59.185565 
L 130.263646 59.185565 
L 130.263646 58.234142 
L 131.439773 58.234142 
L 131.439773 55.379875 
L 133.689303 55.379875 
L 133.689303 54.904164 
L 134.12805 54.904164 
L 134.12805 51.574186 
L 135.97629 51.574186 
L 135.97629 51.098475 
L 146.052799 51.098475 
L 146.052799 50.622764 
L 147.71991 50.622764 
L 147.71991 50.147052 
L 148.639252 50.147052 
L 148.639252 49.671341 
L 159.532469 49.671341 
L 159.532469 49.19563 
L 159.807898 49.19563 
L 159.807898 48.719919 
L 160.054568 48.719919 
L 160.054568 46.817074 
L 164.333587 46.817074 
L 164.429145 44.438518 
L 167.624577 44.438518 
L 167.719528 39.681406 
L 168.445948 39.681406 
L 168.445948 39.205695 
L 169.53167 39.205695 
L 169.53167 36.351428 
L 171.069226 36.351428 
L 171.108254 35.400006 
L 174.932012 35.400006 
L 174.932012 32.545739 
L 176.141459 32.545739 
L 176.141459 32.070028 
L 176.977944 32.070028 
L 176.977944 31.594316 
L 179.783827 31.594316 
L 179.783827 31.118605 
L 184.401161 31.118605 
L 184.425399 28.264338 
L 187.170676 28.264338 
L 187.170676 25.885782 
L 192.508017 25.885782 
L 192.508017 25.410071 
L 194.284754 25.410071 
L 194.284754 22.555804 
L 195.564606 22.555804 
L 195.564606 20.652959 
L 195.871984 20.652959 
L 195.871984 18.750114 
L 197.398821 18.750114 
L 197.398821 17.798692 
L 198.435067 17.798692 
L 198.435067 15.895847 
L 201.557584 15.895847 
L 201.557584 13.993003 
L 204.179663 13.993003 
L 204.179663 13.517291 
L 205.652807 13.517291 
L 205.656392 11.138736 
L 207.472641 11.138736 
L 207.472641 9.711602 
L 208.005459 9.711602 
L 208.005459 9.235891 
L 211.1411 9.235891 
L 211.1411 7.808757 
L 214.445405 7.808757 
L 214.445405 7.333046 
L 217.269275 7.333046 
L 217.269275 6.857335 
L 220.046391 6.857335 
L 220.046391 6.381624 
L 338.688 6.381624 
L 338.688 6.381624 
" style="fill:none;stroke:#ff0000;stroke-linecap:square;stroke-width:1.5;"/>
   </g>
   <g id="line2d_48">
    <defs>
     <path d="M 0 -6 
L -5.196152 -3 
L -5.196152 3 
L -0 6 
L 5.196152 3 
L 5.196152 -3 
z
" id="m6acad4347b" style="stroke:#ff0000;stroke-linejoin:miter;stroke-width:1.5;"/>
    </defs>
    <g>
     <use style="fill-opacity:0;stroke:#ff0000;stroke-linejoin:miter;stroke-width:1.5;" x="118.039942" xlink:href="#m6acad4347b" y="73.932611"/>
     <use style="fill-opacity:0;stroke:#ff0000;stroke-linejoin:miter;stroke-width:1.5;" x="198.435067" xlink:href="#m6acad4347b" y="17.798692"/>
     <use style="fill-opacity:0;stroke:#ff0000;stroke-linejoin:miter;stroke-width:1.5;" x="220.046391" xlink:href="#m6acad4347b" y="6.381624"/>
     <use style="fill-opacity:0;stroke:#ff0000;stroke-linejoin:miter;stroke-width:1.5;" x="220.046391" xlink:href="#m6acad4347b" y="6.381624"/>
     <use style="fill-opacity:0;stroke:#ff0000;stroke-linejoin:miter;stroke-width:1.5;" x="338.688" xlink:href="#m6acad4347b" y="6.381624"/>
    </g>
   </g>
   <g id="line2d_49">
    <path style="fill:none;stroke:#ff0000;stroke-linecap:square;stroke-width:1.5;"/>
    <g/>
   </g>
   <g id="line2d_50">
    <path clip-path="url(#pd4ce081737)" d="M 204.062226 13.993003 
" style="fill:none;stroke:#ff0000;stroke-linecap:square;stroke-width:1.5;"/>
    <defs>
     <path d="M -12 12 
L 12 -12 
M -12 -12 
L 12 12 
" id="m2689ccb2ba" style="stroke:#ff0000;"/>
    </defs>
    <g clip-path="url(#pd4ce081737)">
     <use style="fill:#ff0000;stroke:#ff0000;" x="204.062226" xlink:href="#m2689ccb2ba" y="13.993003"/>
    </g>
   </g>
   <g id="line2d_51">
    <defs>
     <path d="M 0 1.5 
C 0.397805 1.5 0.77937 1.341951 1.06066 1.06066 
C 1.341951 0.77937 1.5 0.397805 1.5 0 
C 1.5 -0.397805 1.341951 -0.77937 1.06066 -1.06066 
C 0.77937 -1.341951 0.397805 -1.5 0 -1.5 
C -0.397805 -1.5 -0.77937 -1.341951 -1.06066 -1.06066 
C -1.341951 -0.77937 -1.5 -0.397805 -1.5 0 
C -1.5 0.397805 -1.341951 0.77937 -1.06066 1.06066 
C -0.77937 1.341951 -0.397805 1.5 0 1.5 
z
" id="mbcac309f4c" style="stroke:#9acd32;"/>
    </defs>
    <g>
     <use style="fill:#9acd32;stroke:#9acd32;" x="209.557172" xlink:href="#mbcac309f4c" y="6.381624"/>
     <use style="fill:#9acd32;stroke:#9acd32;" x="209.557172" xlink:href="#mbcac309f4c" y="6.381624"/>
    </g>
   </g>
   <g id="line2d_52">
    <path d="M 87.329581 298.944 
L 87.329581 187.151872 
L 90.242884 187.151872 
L 90.242884 186.676161 
L 91.535274 186.676161 
L 91.535274 186.20045 
L 95.918017 186.20045 
L 95.918017 73.932611 
L 97.755429 73.932611 
L 97.755429 72.029767 
L 98.606294 72.029767 
L 98.606294 70.602633 
L 101.646892 70.602633 
L 101.646892 34.924295 
L 105.951954 34.924295 
L 105.951954 29.21576 
L 109.401893 29.21576 
L 109.401893 23.031515 
L 114.751048 23.031515 
L 114.751048 22.555804 
L 116.914437 22.555804 
L 116.914437 20.177248 
L 118.838828 20.177248 
L 118.838828 19.701537 
L 119.351785 19.701537 
L 119.351785 19.225826 
L 120.571812 19.225826 
L 120.571812 16.84727 
L 122.988655 16.84727 
L 122.988655 15.420136 
L 124.368753 15.420136 
L 124.368753 14.944425 
L 128.411207 14.944425 
L 128.411207 14.468714 
L 129.433047 14.468714 
L 129.433047 13.993003 
L 130.664567 13.993003 
L 130.664567 13.04158 
L 203.297461 13.04158 
L 203.297461 12.565869 
L 209.414716 12.565869 
L 209.414716 8.76018 
L 209.4508 8.76018 
L 209.4508 7.333046 
L 209.547138 7.333046 
L 209.547138 6.857335 
L 209.557172 6.857335 
L 209.557172 6.381624 
L 338.688 6.381624 
" style="fill:none;stroke:#9acd32;stroke-linecap:square;stroke-width:1.5;"/>
   </g>
   <g id="line2d_53">
    <defs>
     <path d="M 0 -6 
L -6 6 
L 6 6 
z
" id="m484df48d8a" style="stroke:#9acd32;stroke-linejoin:miter;stroke-width:1.5;"/>
    </defs>
    <g>
     <use style="fill-opacity:0;stroke:#9acd32;stroke-linejoin:miter;stroke-width:1.5;" x="95.918017" xlink:href="#m484df48d8a" y="73.932611"/>
     <use style="fill-opacity:0;stroke:#9acd32;stroke-linejoin:miter;stroke-width:1.5;" x="130.664567" xlink:href="#m484df48d8a" y="13.04158"/>
     <use style="fill-opacity:0;stroke:#9acd32;stroke-linejoin:miter;stroke-width:1.5;" x="209.557172" xlink:href="#m484df48d8a" y="6.381624"/>
     <use style="fill-opacity:0;stroke:#9acd32;stroke-linejoin:miter;stroke-width:1.5;" x="209.557172" xlink:href="#m484df48d8a" y="6.381624"/>
     <use style="fill-opacity:0;stroke:#9acd32;stroke-linejoin:miter;stroke-width:1.5;" x="338.688" xlink:href="#m484df48d8a" y="6.381624"/>
    </g>
   </g>
   <g id="line2d_54">
    <path style="fill:none;stroke:#9acd32;stroke-linecap:square;stroke-width:1.5;"/>
    <g/>
   </g>
   <g id="line2d_55">
    <path clip-path="url(#pd4ce081737)" d="M 209.424827 8.76018 
" style="fill:none;stroke:#9acd32;stroke-linecap:square;stroke-width:1.5;"/>
    <defs>
     <path d="M -12 12 
L 12 -12 
M -12 -12 
L 12 12 
" id="me3f3216ea5" style="stroke:#9acd32;"/>
    </defs>
    <g clip-path="url(#pd4ce081737)">
     <use style="fill:#9acd32;stroke:#9acd32;" x="209.424827" xlink:href="#me3f3216ea5" y="8.76018"/>
    </g>
   </g>
   <g id="line2d_56">
    <defs>
     <path d="M 0 1.5 
C 0.397805 1.5 0.77937 1.341951 1.06066 1.06066 
C 1.341951 0.77937 1.5 0.397805 1.5 0 
C 1.5 -0.397805 1.341951 -0.77937 1.06066 -1.06066 
C 0.77937 -1.341951 0.397805 -1.5 0 -1.5 
C -0.397805 -1.5 -0.77937 -1.341951 -1.06066 -1.06066 
C -1.341951 -0.77937 -1.5 -0.397805 -1.5 0 
C -1.5 0.397805 -1.341951 0.77937 -1.06066 1.06066 
C -0.77937 1.341951 -0.397805 1.5 0 1.5 
z
" id="m74fe1e5190" style="stroke:#00bfbf;"/>
    </defs>
    <g>
     <use style="fill:#00bfbf;stroke:#00bfbf;" x="133.124876" xlink:href="#m74fe1e5190" y="6.381624"/>
     <use style="fill:#00bfbf;stroke:#00bfbf;" x="133.124876" xlink:href="#m74fe1e5190" y="6.381624"/>
    </g>
   </g>
   <g id="line2d_57">
    <path d="M 87.329581 298.944 
L 87.329581 37.302851 
L 90.242884 37.302851 
L 90.242884 31.118605 
L 91.535274 31.118605 
L 91.535274 29.21576 
L 95.918017 29.21576 
L 95.918017 10.187313 
L 97.755429 10.187313 
L 97.755429 9.711602 
L 98.606294 9.711602 
L 98.606294 9.235891 
L 111.897469 9.235891 
L 111.897469 8.76018 
L 125.291682 8.76018 
L 125.291682 7.808757 
L 133.124876 7.808757 
L 133.124876 6.381624 
L 338.688 6.381624 
" style="fill:none;stroke:#00bfbf;stroke-linecap:square;stroke-width:1.5;"/>
   </g>
   <g id="line2d_58">
    <defs>
     <path d="M 0 -6 
L -5.706339 -1.854102 
L -3.526712 4.854102 
L 3.526712 4.854102 
L 5.706339 -1.854102 
z
" id="mb9fa4077fb" style="stroke:#00bfbf;stroke-linejoin:miter;stroke-width:1.5;"/>
    </defs>
    <g>
     <use style="fill-opacity:0;stroke:#00bfbf;stroke-linejoin:miter;stroke-width:1.5;" x="87.329581" xlink:href="#mb9fa4077fb" y="298.944"/>
     <use style="fill-opacity:0;stroke:#00bfbf;stroke-linejoin:miter;stroke-width:1.5;" x="133.124876" xlink:href="#mb9fa4077fb" y="7.808757"/>
     <use style="fill-opacity:0;stroke:#00bfbf;stroke-linejoin:miter;stroke-width:1.5;" x="133.124876" xlink:href="#mb9fa4077fb" y="6.381624"/>
     <use style="fill-opacity:0;stroke:#00bfbf;stroke-linejoin:miter;stroke-width:1.5;" x="133.124876" xlink:href="#mb9fa4077fb" y="6.381624"/>
     <use style="fill-opacity:0;stroke:#00bfbf;stroke-linejoin:miter;stroke-width:1.5;" x="338.688" xlink:href="#mb9fa4077fb" y="6.381624"/>
    </g>
   </g>
   <g id="line2d_59">
    <path style="fill:none;stroke:#00bfbf;stroke-linecap:square;stroke-width:1.5;"/>
    <g/>
   </g>
   <g id="line2d_60">
    <defs>
     <path d="M 0 1.5 
C 0.397805 1.5 0.77937 1.341951 1.06066 1.06066 
C 1.341951 0.77937 1.5 0.397805 1.5 0 
C 1.5 -0.397805 1.341951 -0.77937 1.06066 -1.06066 
C 0.77937 -1.341951 0.397805 -1.5 0 -1.5 
C -0.397805 -1.5 -0.77937 -1.341951 -1.06066 -1.06066 
C -1.341951 -0.77937 -1.5 -0.397805 -1.5 0 
C -1.5 0.397805 -1.341951 0.77937 -1.06066 1.06066 
C -0.77937 1.341951 -0.397805 1.5 0 1.5 
z
" id="m0d0463e26a" style="stroke:#228b22;"/>
    </defs>
    <g>
     <use style="fill:#228b22;stroke:#228b22;" x="207.414402" xlink:href="#m0d0463e26a" y="6.381624"/>
     <use style="fill:#228b22;stroke:#228b22;" x="207.414402" xlink:href="#m0d0463e26a" y="6.381624"/>
    </g>
   </g>
   <g id="line2d_61">
    <path d="M 114.418861 298.944 
L 114.418861 298.468289 
L 121.712041 298.468289 
L 121.712041 297.992578 
L 133.689303 297.992578 
L 133.689303 297.516866 
L 141.591783 297.516866 
L 141.591783 296.565444 
L 141.732423 296.565444 
L 141.732423 296.089733 
L 142.07914 296.089733 
L 142.07914 294.662599 
L 142.283909 294.662599 
L 142.283909 293.711177 
L 142.553247 293.711177 
L 142.553247 293.235466 
L 142.752555 293.235466 
L 142.752555 292.284043 
L 143.144465 292.284043 
L 143.144465 291.808332 
L 146.749392 291.808332 
L 146.749392 291.332621 
L 147.215849 291.332621 
L 147.215849 290.85691 
L 147.769524 290.85691 
L 147.769524 289.905488 
L 149.286939 289.905488 
L 149.286939 289.429776 
L 149.422654 289.429776 
L 149.422654 288.954065 
L 149.557321 288.954065 
L 149.557321 288.478354 
L 149.867558 288.478354 
L 149.867558 286.099798 
L 150.258492 286.099798 
L 150.258492 284.196953 
L 150.849711 284.196953 
L 150.849711 282.294109 
L 151.858043 282.294109 
L 151.858043 279.439842 
L 152.130233 279.439842 
L 152.130233 278.96413 
L 152.959038 278.96413 
L 152.959038 276.585574 
L 153.994632 276.585574 
L 153.994632 276.109863 
L 154.54072 276.109863 
L 154.54072 274.207019 
L 154.840544 274.207019 
L 154.840544 273.731307 
L 156.806295 273.731307 
L 156.806295 273.255596 
L 156.923929 273.255596 
L 156.923929 272.779885 
L 157.443681 272.779885 
L 157.443681 272.304174 
L 157.58535 272.304174 
L 157.58535 271.828463 
L 157.837488 271.828463 
L 157.837488 271.352752 
L 158.086033 271.352752 
L 158.086033 268.022773 
L 158.276927 268.022773 
L 158.385078 261.838528 
L 158.572743 261.838528 
L 158.572743 260.411394 
L 158.705563 260.411394 
L 158.705563 257.557127 
L 158.83738 257.557127 
L 158.942121 254.70286 
L 159.123917 254.70286 
L 159.123917 252.324304 
L 159.303838 252.324304 
L 159.303838 248.994326 
L 159.658204 248.994326 
L 159.708245 243.285792 
L 159.882266 243.285792 
L 159.882266 240.907236 
L 160.054568 240.907236 
L 160.152267 235.674413 
L 160.297798 235.674413 
L 160.297798 235.198702 
L 160.537682 235.198702 
L 160.537682 234.247279 
L 160.750792 234.247279 
L 160.750792 232.820146 
L 160.938061 232.820146 
L 160.938061 231.868723 
L 161.192316 231.868723 
L 161.192316 231.393012 
L 161.397621 231.393012 
L 161.397621 230.917301 
L 161.600536 230.917301 
L 161.600536 230.44159 
L 161.999419 230.44159 
L 161.999419 229.965879 
L 162.602318 229.965879 
L 162.602318 229.014456 
L 162.896128 229.014456 
L 162.896128 225.684478 
L 163.082425 225.684478 
L 163.123555 221.403078 
L 163.348054 221.403078 
L 163.348054 220.927366 
L 163.489428 220.927366 
L 163.489428 220.451655 
L 164.121498 220.451655 
L 164.179597 214.26741 
L 165.608172 214.26741 
L 165.608172 211.888854 
L 165.890882 211.888854 
L 165.890882 210.937432 
L 167.158215 210.937432 
L 167.158215 210.46172 
L 168.263336 210.46172 
L 168.263336 208.558876 
L 168.400474 208.558876 
L 168.400474 208.083164 
L 173.118935 208.083164 
L 173.199806 207.131742 
L 173.440194 207.131742 
L 173.440194 206.656031 
L 174.584164 206.656031 
L 174.584164 206.18032 
L 177.01503 206.18032 
L 177.079739 202.37463 
L 177.171768 202.37463 
L 177.272441 198.09323 
L 177.299796 198.09323 
L 177.36346 189.530428 
L 177.490094 189.530428 
L 177.562046 184.773317 
L 177.615816 184.773317 
L 177.687252 175.259093 
L 177.749519 175.259093 
L 177.811565 169.074848 
L 177.873391 169.074848 
L 177.92621 165.744869 
L 177.996389 165.744869 
L 178.083716 162.414891 
L 178.161939 162.414891 
L 178.25707 157.657779 
L 178.334521 157.657779 
L 178.334521 156.230646 
L 178.471368 156.230646 
L 178.471368 154.803512 
L 179.19724 154.803512 
L 179.19724 154.327801 
L 179.416503 154.327801 
L 179.416503 153.85209 
L 179.917643 153.85209 
L 179.956806 151.473534 
L 180.465681 151.473534 
L 180.526366 150.522112 
L 180.632059 150.522112 
L 180.632059 148.619267 
L 180.767015 148.619267 
L 180.819217 143.862155 
L 180.974893 143.862155 
L 181.026478 136.726487 
L 181.092577 136.726487 
L 181.143816 135.775065 
L 181.231304 135.775065 
L 181.296633 133.87222 
L 181.76838 133.87222 
L 181.76838 132.920798 
L 181.943792 132.920798 
L 182.041257 126.260841 
L 182.186441 126.260841 
L 182.186441 125.309419 
L 182.30993 125.309419 
L 182.30993 123.406574 
L 182.621596 123.406574 
L 182.708675 116.746618 
L 182.762047 116.746618 
L 182.855057 111.038084 
L 182.914588 111.038084 
L 183.019922 98.669593 
L 183.059259 98.669593 
L 183.11157 96.291037 
L 187.035648 96.291037 
L 187.072105 92.961059 
L 187.18102 92.961059 
L 187.22749 89.155369 
L 187.320061 89.155369 
L 187.320061 88.679658 
L 187.447822 88.679658 
L 187.513889 85.34968 
L 187.650312 85.34968 
L 187.650312 84.398257 
L 188.112208 84.398257 
L 188.112208 83.922546 
L 188.263494 83.922546 
L 188.341067 81.068279 
L 188.374897 81.068279 
L 188.475994 73.932611 
L 188.562185 73.932611 
L 188.657456 71.078344 
L 188.690678 71.078344 
L 188.747484 69.1755 
L 188.940185 69.1755 
L 188.940185 64.418388 
L 190.079999 64.418388 
L 190.079999 63.942677 
L 190.825674 63.942677 
L 190.825674 63.466965 
L 194.329422 63.466965 
L 194.438888 56.331298 
L 194.486564 56.331298 
L 194.547671 55.379875 
L 194.662515 55.379875 
L 194.769916 51.098475 
L 194.846705 51.098475 
L 194.926473 47.768496 
L 195.081637 47.768496 
L 195.166882 45.389941 
L 195.251713 45.389941 
L 195.342611 39.681406 
L 195.387883 39.681406 
L 195.497341 33.972872 
L 195.622056 33.972872 
L 195.622056 27.788627 
L 205.434531 27.788627 
L 205.459926 24.458649 
L 207.143312 24.458649 
L 207.236873 13.993003 
L 207.310384 13.993003 
L 207.414402 6.381624 
L 338.688 6.381624 
L 338.688 6.381624 
" style="fill:none;stroke:#228b22;stroke-linecap:square;stroke-width:1.5;"/>
   </g>
   <g id="line2d_62">
    <defs>
     <path d="M 0 0 
L 0 6 
M 0 0 
L 4.8 -3 
M 0 0 
L -4.8 -3 
" id="m4410106a45" style="stroke:#228b22;stroke-width:1.5;"/>
    </defs>
    <g>
     <use style="fill-opacity:0;stroke:#228b22;stroke-width:1.5;" x="177.336204" xlink:href="#m4410106a45" y="197.141807"/>
     <use style="fill-opacity:0;stroke:#228b22;stroke-width:1.5;" x="207.414402" xlink:href="#m4410106a45" y="9.711602"/>
     <use style="fill-opacity:0;stroke:#228b22;stroke-width:1.5;" x="207.414402" xlink:href="#m4410106a45" y="6.381624"/>
     <use style="fill-opacity:0;stroke:#228b22;stroke-width:1.5;" x="207.414402" xlink:href="#m4410106a45" y="6.381624"/>
     <use style="fill-opacity:0;stroke:#228b22;stroke-width:1.5;" x="338.688" xlink:href="#m4410106a45" y="6.381624"/>
    </g>
   </g>
   <g id="line2d_63">
    <path style="fill:none;stroke:#228b22;stroke-linecap:square;stroke-width:1.5;"/>
    <g/>
   </g>
   <g id="line2d_64">
    <defs>
     <path d="M 0 1.5 
C 0.397805 1.5 0.77937 1.341951 1.06066 1.06066 
C 1.341951 0.77937 1.5 0.397805 1.5 0 
C 1.5 -0.397805 1.341951 -0.77937 1.06066 -1.06066 
C 0.77937 -1.341951 0.397805 -1.5 0 -1.5 
C -0.397805 -1.5 -0.77937 -1.341951 -1.06066 -1.06066 
C -1.341951 -0.77937 -1.5 -0.397805 -1.5 0 
C -1.5 0.397805 -1.341951 0.77937 -1.06066 1.06066 
C -0.77937 1.341951 -0.397805 1.5 0 1.5 
z
" id="m4c00d2464d" style="stroke:#ffc0cb;"/>
    </defs>
    <g>
     <use style="fill:#ffc0cb;stroke:#ffc0cb;" x="217.040314" xlink:href="#m4c00d2464d" y="6.381624"/>
     <use style="fill:#ffc0cb;stroke:#ffc0cb;" x="217.040314" xlink:href="#m4c00d2464d" y="6.381624"/>
    </g>
   </g>
   <g id="line2d_65">
    <path d="M 100.934985 298.944 
L 100.934985 297.992578 
L 106.48859 297.992578 
L 106.48859 290.85691 
L 109.843417 290.85691 
L 109.843417 289.905488 
L 112.280765 289.905488 
L 112.280765 287.05122 
L 112.655818 287.05122 
L 112.655818 285.624087 
L 114.751048 285.624087 
L 114.751048 283.721242 
L 115.397021 283.721242 
L 115.397021 280.866975 
L 117.486268 280.866975 
L 117.486268 280.391264 
L 118.838828 280.391264 
L 118.838828 278.96413 
L 119.351785 278.96413 
L 119.351785 278.488419 
L 120.571812 278.488419 
L 120.571812 273.255596 
L 121.036887 273.255596 
L 121.036887 270.401329 
L 122.148045 270.401329 
L 122.148045 267.071351 
L 122.573415 267.071351 
L 122.573415 265.168506 
L 123.790603 265.168506 
L 123.790603 264.692795 
L 123.985457 264.692795 
L 123.985457 262.314239 
L 125.647598 262.314239 
L 125.647598 260.411394 
L 126.839037 260.411394 
L 126.839037 258.984261 
L 129.002426 258.984261 
L 129.002426 258.032838 
L 129.991152 258.032838 
L 129.991152 249.945748 
L 130.263646 249.945748 
L 130.263646 246.61577 
L 130.531948 246.61577 
L 130.531948 243.285792 
L 132.659801 243.285792 
L 132.659801 242.810081 
L 133.800029 242.810081 
L 133.800029 240.907236 
L 134.55603 240.907236 
L 134.661403 237.577258 
L 137.198951 237.577258 
L 137.198951 236.625835 
L 137.823442 236.625835 
L 137.823442 235.198702 
L 138.426341 235.198702 
L 138.426341 233.295857 
L 138.761723 233.295857 
L 138.761723 229.965879 
L 139.009092 229.965879 
L 139.009092 226.635901 
L 139.333553 226.635901 
L 139.333553 225.684478 
L 140.11924 225.684478 
L 140.11924 218.073099 
L 140.272217 218.073099 
L 140.272217 217.597388 
L 140.423864 217.597388 
L 140.423864 216.645966 
L 141.45 216.645966 
L 141.45 213.791699 
L 141.662245 213.791699 
L 141.662245 213.315987 
L 141.941279 213.315987 
L 141.941279 208.083164 
L 142.147664 208.083164 
L 142.147664 206.18032 
L 143.014805 206.18032 
L 143.014805 205.228897 
L 143.337167 205.228897 
L 143.337167 204.277475 
L 143.590833 204.277475 
L 143.590833 203.326053 
L 143.778691 203.326053 
L 143.778691 201.898919 
L 144.209312 201.898919 
L 144.209312 200.947497 
L 144.629556 200.947497 
L 144.688773 199.044652 
L 145.155404 199.044652 
L 145.155404 198.09323 
L 145.832743 198.09323 
L 145.943118 192.860407 
L 146.696785 192.860407 
L 146.696785 192.384695 
L 147.164632 192.384695 
L 147.164632 189.530428 
L 147.52003 189.530428 
L 147.52003 189.054717 
L 147.769524 189.054717 
L 147.769524 188.579006 
L 148.161434 188.579006 
L 148.161434 187.151872 
L 148.40198 187.151872 
L 148.40198 186.20045 
L 148.54473 186.20045 
L 148.54473 185.724739 
L 148.733265 185.724739 
L 148.733265 184.297605 
L 149.332295 184.297605 
L 149.332295 183.821894 
L 149.690956 183.821894 
L 149.690956 181.443338 
L 149.998846 181.443338 
L 149.998846 175.734804 
L 150.38688 175.734804 
L 150.38688 175.259093 
L 150.973835 175.259093 
L 150.973835 172.880537 
L 151.340991 172.880537 
L 151.340991 169.074848 
L 151.621307 169.074848 
L 151.700576 167.647714 
L 152.130233 167.647714 
L 152.130233 166.696292 
L 152.474064 166.696292 
L 152.511852 165.744869 
L 152.774102 165.744869 
L 152.774102 163.842025 
L 153.032466 163.842025 
L 153.032466 162.890602 
L 153.537988 162.890602 
L 153.537988 159.560624 
L 153.715038 159.560624 
L 153.785358 157.657779 
L 153.855395 157.657779 
L 153.855395 155.279223 
L 154.741174 155.279223 
L 154.741174 151.949245 
L 155.102793 151.949245 
L 155.167744 150.522112 
L 155.329071 150.522112 
L 155.329071 150.0464 
L 155.61575 150.0464 
L 155.61575 149.094978 
L 155.83551 149.094978 
L 155.897793 148.143556 
L 156.236431 148.143556 
L 156.236431 147.667844 
L 156.508689 147.667844 
L 156.508689 146.716422 
L 156.717545 146.716422 
L 156.776762 144.337866 
L 156.923929 144.337866 
L 156.923929 142.435021 
L 157.040776 142.435021 
L 157.1279 140.532177 
L 157.300853 140.532177 
L 157.38669 137.67791 
L 157.58535 137.67791 
L 157.58535 137.202199 
L 157.781772 137.202199 
L 157.781772 136.726487 
L 158.031107 136.726487 
L 158.031107 135.299354 
L 158.195371 135.299354 
L 158.276927 133.396509 
L 158.412011 133.396509 
L 158.51933 130.066531 
L 158.572743 130.066531 
L 158.652556 127.212264 
L 158.75841 127.212264 
L 158.75841 121.028018 
L 159.072168 121.028018 
L 159.175513 119.125174 
L 159.201253 119.125174 
L 159.252621 115.795195 
L 159.405822 115.795195 
L 159.456591 112.940928 
L 159.658204 112.940928 
L 159.708245 111.989506 
L 159.906985 111.989506 
L 159.906985 110.562372 
L 160.537682 110.562372 
L 160.537682 110.086661 
L 160.680044 110.086661 
L 160.774311 106.756683 
L 160.984566 106.756683 
L 160.984566 106.280972 
L 161.192316 106.280972 
L 161.192316 105.329549 
L 161.778945 105.329549 
L 161.778945 104.853838 
L 163.246367 104.853838 
L 163.246367 103.426705 
L 163.549667 103.426705 
L 163.589711 101.048149 
L 163.906798 101.048149 
L 163.906798 99.621015 
L 164.256762 99.621015 
L 164.256762 99.145304 
L 164.562052 99.145304 
L 164.562052 97.71817 
L 168.293904 97.71817 
L 168.400474 96.766748 
L 170.899085 96.766748 
L 170.899085 96.291037 
L 171.017051 96.291037 
L 171.108254 93.912481 
L 171.198983 93.912481 
L 171.198983 92.485348 
L 171.46837 92.485348 
L 171.46837 88.679658 
L 171.645677 88.679658 
L 171.645677 86.776813 
L 171.846131 86.776813 
L 171.846131 85.825391 
L 172.019658 85.825391 
L 172.105778 82.971124 
L 172.191475 82.971124 
L 172.191475 77.26259 
L 179.846927 77.26259 
L 179.917643 72.981189 
L 180.205388 72.981189 
L 180.205388 66.321233 
L 180.707163 66.321233 
L 180.722145 60.612698 
L 181.47683 60.612698 
L 181.55553 56.807009 
L 181.619658 56.807009 
L 181.619658 56.331298 
L 181.76838 56.331298 
L 181.76838 55.379875 
L 181.880847 55.379875 
L 181.943792 50.147052 
L 181.992593 50.147052 
L 182.103627 46.341363 
L 182.30993 46.341363 
L 182.30993 44.914229 
L 182.540827 44.914229 
L 182.540827 43.011385 
L 193.359245 43.011385 
L 193.384622 42.059962 
L 193.514551 42.059962 
L 193.514551 41.584251 
L 193.70409 41.584251 
L 193.70409 40.632829 
L 193.989842 40.632829 
L 194.049225 38.254273 
L 194.136187 38.254273 
L 194.136187 37.778562 
L 194.353426 37.778562 
L 194.438888 36.827139 
L 194.749829 36.827139 
L 194.779952 35.400006 
L 194.943046 35.400006 
L 194.943046 34.448583 
L 195.058614 34.448583 
L 195.058614 33.972872 
L 195.339373 33.972872 
L 195.339373 33.02145 
L 195.471648 33.02145 
L 195.580584 31.594316 
L 196.158596 31.594316 
L 196.214125 30.642894 
L 197.638893 30.642894 
L 197.723839 29.691472 
L 197.80275 29.691472 
L 197.80275 29.21576 
L 200.163397 29.21576 
L 200.168308 27.788627 
L 200.419378 27.788627 
L 200.518321 26.361493 
L 200.595157 26.361493 
L 200.595157 25.885782 
L 211.823772 25.885782 
L 211.896609 12.565869 
L 211.941665 12.565869 
L 212.042618 9.235891 
L 212.064973 9.235891 
L 212.131866 7.333046 
L 217.012299 7.333046 
L 217.040314 6.381624 
L 338.688 6.381624 
L 338.688 6.381624 
" style="fill:none;stroke:#ffc0cb;stroke-linecap:square;stroke-width:1.5;"/>
   </g>
   <g id="line2d_66">
    <defs>
     <path d="M -0 8.485281 
L 8.485281 0 
L 0 -8.485281 
L -8.485281 -0 
z
" id="m95a3d8e44e" style="stroke:#ffc0cb;stroke-linejoin:miter;stroke-width:1.5;"/>
    </defs>
    <g>
     <use style="fill-opacity:0;stroke:#ffc0cb;stroke-linejoin:miter;stroke-width:1.5;" x="121.036887" xlink:href="#m95a3d8e44e" y="270.401329"/>
     <use style="fill-opacity:0;stroke:#ffc0cb;stroke-linejoin:miter;stroke-width:1.5;" x="163.246367" xlink:href="#m95a3d8e44e" y="103.426705"/>
     <use style="fill-opacity:0;stroke:#ffc0cb;stroke-linejoin:miter;stroke-width:1.5;" x="217.040314" xlink:href="#m95a3d8e44e" y="6.857335"/>
     <use style="fill-opacity:0;stroke:#ffc0cb;stroke-linejoin:miter;stroke-width:1.5;" x="217.040314" xlink:href="#m95a3d8e44e" y="6.381624"/>
     <use style="fill-opacity:0;stroke:#ffc0cb;stroke-linejoin:miter;stroke-width:1.5;" x="338.688" xlink:href="#m95a3d8e44e" y="6.381624"/>
    </g>
   </g>
   <g id="line2d_67">
    <path style="fill:none;stroke:#ffc0cb;stroke-linecap:square;stroke-width:1.5;"/>
    <g/>
   </g>
   <g id="line2d_68">
    <path clip-path="url(#pd4ce081737)" d="M 193.239112 43.011385 
" style="fill:none;stroke:#ffc0cb;stroke-linecap:square;stroke-width:1.5;"/>
    <defs>
     <path d="M -12 12 
L 12 -12 
M -12 -12 
L 12 12 
" id="m2917d05f62" style="stroke:#ffc0cb;"/>
    </defs>
    <g clip-path="url(#pd4ce081737)">
     <use style="fill:#ffc0cb;stroke:#ffc0cb;" x="193.239112" xlink:href="#m2917d05f62" y="43.011385"/>
    </g>
   </g>
   <g id="line2d_69">
    <path d="M 338.688 6.381624 
L 369.60768 293.092752 
" style="fill:none;stroke:#6495ed;stroke-linecap:square;stroke-width:1.5;"/>
    <g>
     <use style="fill-opacity:0;stroke:#6495ed;stroke-linejoin:miter;stroke-width:1.5;" x="338.688" xlink:href="#m22dde237cc" y="6.381624"/>
     <use style="fill-opacity:0;stroke:#6495ed;stroke-linejoin:miter;stroke-width:1.5;" x="369.60768" xlink:href="#m22dde237cc" y="293.092752"/>
    </g>
   </g>
   <g id="line2d_70">
    <path d="M 338.688 6.381624 
L 369.60768 257.985267 
" style="fill:none;stroke:#ff0000;stroke-linecap:square;stroke-width:1.5;"/>
    <g>
     <use style="fill-opacity:0;stroke:#ff0000;stroke-linejoin:miter;stroke-width:1.5;" x="338.688" xlink:href="#m6acad4347b" y="6.381624"/>
     <use style="fill-opacity:0;stroke:#ff0000;stroke-linejoin:miter;stroke-width:1.5;" x="369.60768" xlink:href="#m6acad4347b" y="257.985267"/>
    </g>
   </g>
   <g id="line2d_71">
    <path d="M 338.688 6.381624 
L 369.60768 222.877782 
" style="fill:none;stroke:#ffc0cb;stroke-linecap:square;stroke-width:1.5;"/>
    <g>
     <use style="fill-opacity:0;stroke:#ffc0cb;stroke-linejoin:miter;stroke-width:1.5;" x="338.688" xlink:href="#m95a3d8e44e" y="6.381624"/>
     <use style="fill-opacity:0;stroke:#ffc0cb;stroke-linejoin:miter;stroke-width:1.5;" x="369.60768" xlink:href="#m95a3d8e44e" y="222.877782"/>
    </g>
   </g>
   <g id="line2d_72">
    <path d="M 338.688 6.381624 
L 369.60768 187.770297 
" style="fill:none;stroke:#9acd32;stroke-linecap:square;stroke-width:1.5;"/>
    <g>
     <use style="fill-opacity:0;stroke:#9acd32;stroke-linejoin:miter;stroke-width:1.5;" x="338.688" xlink:href="#m484df48d8a" y="6.381624"/>
     <use style="fill-opacity:0;stroke:#9acd32;stroke-linejoin:miter;stroke-width:1.5;" x="369.60768" xlink:href="#m484df48d8a" y="187.770297"/>
    </g>
   </g>
   <g id="line2d_73">
    <path d="M 338.688 6.381624 
L 369.60768 152.662812 
" style="fill:none;stroke:#228b22;stroke-linecap:square;stroke-width:1.5;"/>
    <g>
     <use style="fill-opacity:0;stroke:#228b22;stroke-width:1.5;" x="338.688" xlink:href="#m4410106a45" y="6.381624"/>
     <use style="fill-opacity:0;stroke:#228b22;stroke-width:1.5;" x="369.60768" xlink:href="#m4410106a45" y="152.662812"/>
    </g>
   </g>
   <g id="line2d_74">
    <path d="M 338.688 6.381624 
L 369.60768 117.555327 
" style="fill:none;stroke:#ff00ff;stroke-linecap:square;stroke-width:1.5;"/>
    <g>
     <use style="fill-opacity:0;stroke:#ff00ff;stroke-linejoin:miter;stroke-width:1.5;" x="338.688" xlink:href="#m7c1a1941d5" y="6.381624"/>
     <use style="fill-opacity:0;stroke:#ff00ff;stroke-linejoin:miter;stroke-width:1.5;" x="369.60768" xlink:href="#m7c1a1941d5" y="117.555327"/>
    </g>
   </g>
   <g id="line2d_75">
    <path d="M 338.688 6.381624 
L 369.60768 82.447842 
" style="fill:none;stroke:#ff7500;stroke-linecap:square;stroke-width:1.5;"/>
    <g>
     <use style="fill-opacity:0;stroke:#ff7500;stroke-linejoin:bevel;stroke-width:1.5;" x="338.688" xlink:href="#mfc17ee3f81" y="6.381624"/>
     <use style="fill-opacity:0;stroke:#ff7500;stroke-linejoin:bevel;stroke-width:1.5;" x="369.60768" xlink:href="#mfc17ee3f81" y="82.447842"/>
    </g>
   </g>
   <g id="line2d_76">
    <path d="M 338.688 6.381624 
L 369.60768 47.340356 
" style="fill:none;stroke:#00bfbf;stroke-linecap:square;stroke-width:1.5;"/>
    <g>
     <use style="fill-opacity:0;stroke:#00bfbf;stroke-linejoin:miter;stroke-width:1.5;" x="338.688" xlink:href="#mb9fa4077fb" y="6.381624"/>
     <use style="fill-opacity:0;stroke:#00bfbf;stroke-linejoin:miter;stroke-width:1.5;" x="369.60768" xlink:href="#mb9fa4077fb" y="47.340356"/>
    </g>
   </g>
   <g id="line2d_77">
    <path d="M 338.688 6.381624 
L 369.60768 12.232871 
" style="fill:none;stroke:#000080;stroke-linecap:square;stroke-width:1.5;"/>
    <g>
     <use style="fill-opacity:0;stroke:#000080;stroke-width:1.5;" x="338.688" xlink:href="#mccd496a7e5" y="6.381624"/>
     <use style="fill-opacity:0;stroke:#000080;stroke-width:1.5;" x="369.60768" xlink:href="#mccd496a7e5" y="12.232871"/>
    </g>
   </g>
   <g id="line2d_78">
    <path d="M 338.688 298.944 
L 338.688 6.381624 
" style="fill:none;stroke:#000000;stroke-linecap:square;stroke-width:1.5;"/>
   </g>
   <g id="patch_3">
    <path d="M 57.6 298.944 
L 57.6 3.456 
" style="fill:none;stroke:#000000;stroke-linecap:square;stroke-linejoin:miter;stroke-width:0.8;"/>
   </g>
   <g id="patch_4">
    <path d="M 338.688 298.944 
L 338.688 3.456 
" style="fill:none;stroke:#000000;stroke-linecap:square;stroke-linejoin:miter;stroke-width:0.8;"/>
   </g>
   <g id="patch_5">
    <path d="M 57.6 298.944 
L 338.688 298.944 
" style="fill:none;stroke:#000000;stroke-linecap:square;stroke-linejoin:miter;stroke-width:0.8;"/>
   </g>
   <g id="patch_6">
    <path d="M 57.6 3.456 
L 338.688 3.456 
" style="fill:none;stroke:#000000;stroke-linecap:square;stroke-linejoin:miter;stroke-width:0.8;"/>
   </g>
   <g id="text_13">
    <!-- f19 -->
    <g transform="translate(375.22944 297.78369)scale(0.17 -0.17)">
     <defs>
      <path d="M 10.984375 1.515625 
L 10.984375 10.5 
Q 14.703125 8.734375 18.5 7.8125 
Q 22.3125 6.890625 25.984375 6.890625 
Q 35.75 6.890625 40.890625 13.453125 
Q 46.046875 20.015625 46.78125 33.40625 
Q 43.953125 29.203125 39.59375 26.953125 
Q 35.25 24.703125 29.984375 24.703125 
Q 19.046875 24.703125 12.671875 31.3125 
Q 6.296875 37.9375 6.296875 49.421875 
Q 6.296875 60.640625 12.9375 67.421875 
Q 19.578125 74.21875 30.609375 74.21875 
Q 43.265625 74.21875 49.921875 64.515625 
Q 56.59375 54.828125 56.59375 36.375 
Q 56.59375 19.140625 48.40625 8.859375 
Q 40.234375 -1.421875 26.421875 -1.421875 
Q 22.703125 -1.421875 18.890625 -0.6875 
Q 15.09375 0.046875 10.984375 1.515625 
z
M 30.609375 32.421875 
Q 37.25 32.421875 41.125 36.953125 
Q 45.015625 41.5 45.015625 49.421875 
Q 45.015625 57.28125 41.125 61.84375 
Q 37.25 66.40625 30.609375 66.40625 
Q 23.96875 66.40625 20.09375 61.84375 
Q 16.21875 57.28125 16.21875 49.421875 
Q 16.21875 41.5 20.09375 36.953125 
Q 23.96875 32.421875 30.609375 32.421875 
z
" id="DejaVuSans-57"/>
     </defs>
     <use xlink:href="#DejaVuSans-102"/>
     <use x="35.205078" xlink:href="#DejaVuSans-49"/>
     <use x="98.828125" xlink:href="#DejaVuSans-57"/>
    </g>
   </g>
   <g id="text_14">
    <!-- f25 -->
    <g transform="translate(375.22944 262.676205)scale(0.17 -0.17)">
     <defs>
      <path d="M 10.796875 72.90625 
L 49.515625 72.90625 
L 49.515625 64.59375 
L 19.828125 64.59375 
L 19.828125 46.734375 
Q 21.96875 47.46875 24.109375 47.828125 
Q 26.265625 48.1875 28.421875 48.1875 
Q 40.625 48.1875 47.75 41.5 
Q 54.890625 34.8125 54.890625 23.390625 
Q 54.890625 11.625 47.5625 5.09375 
Q 40.234375 -1.421875 26.90625 -1.421875 
Q 22.3125 -1.421875 17.546875 -0.640625 
Q 12.796875 0.140625 7.71875 1.703125 
L 7.71875 11.625 
Q 12.109375 9.234375 16.796875 8.0625 
Q 21.484375 6.890625 26.703125 6.890625 
Q 35.15625 6.890625 40.078125 11.328125 
Q 45.015625 15.765625 45.015625 23.390625 
Q 45.015625 31 40.078125 35.4375 
Q 35.15625 39.890625 26.703125 39.890625 
Q 22.75 39.890625 18.8125 39.015625 
Q 14.890625 38.140625 10.796875 36.28125 
z
" id="DejaVuSans-53"/>
     </defs>
     <use xlink:href="#DejaVuSans-102"/>
     <use x="35.205078" xlink:href="#DejaVuSans-50"/>
     <use x="98.828125" xlink:href="#DejaVuSans-53"/>
    </g>
   </g>
   <g id="text_15">
    <!-- f49 -->
    <g transform="translate(375.22944 227.56872)scale(0.17 -0.17)">
     <use xlink:href="#DejaVuSans-102"/>
     <use x="35.205078" xlink:href="#DejaVuSans-52"/>
     <use x="98.828125" xlink:href="#DejaVuSans-57"/>
    </g>
   </g>
   <g id="text_16">
    <!-- f31 -->
    <g transform="translate(375.22944 192.461235)scale(0.17 -0.17)">
     <defs>
      <path d="M 40.578125 39.3125 
Q 47.65625 37.796875 51.625 33 
Q 55.609375 28.21875 55.609375 21.1875 
Q 55.609375 10.40625 48.1875 4.484375 
Q 40.765625 -1.421875 27.09375 -1.421875 
Q 22.515625 -1.421875 17.65625 -0.515625 
Q 12.796875 0.390625 7.625 2.203125 
L 7.625 11.71875 
Q 11.71875 9.328125 16.59375 8.109375 
Q 21.484375 6.890625 26.8125 6.890625 
Q 36.078125 6.890625 40.9375 10.546875 
Q 45.796875 14.203125 45.796875 21.1875 
Q 45.796875 27.640625 41.28125 31.265625 
Q 36.765625 34.90625 28.71875 34.90625 
L 20.21875 34.90625 
L 20.21875 43.015625 
L 29.109375 43.015625 
Q 36.375 43.015625 40.234375 45.921875 
Q 44.09375 48.828125 44.09375 54.296875 
Q 44.09375 59.90625 40.109375 62.90625 
Q 36.140625 65.921875 28.71875 65.921875 
Q 24.65625 65.921875 20.015625 65.03125 
Q 15.375 64.15625 9.8125 62.3125 
L 9.8125 71.09375 
Q 15.4375 72.65625 20.34375 73.4375 
Q 25.25 74.21875 29.59375 74.21875 
Q 40.828125 74.21875 47.359375 69.109375 
Q 53.90625 64.015625 53.90625 55.328125 
Q 53.90625 49.265625 50.4375 45.09375 
Q 46.96875 40.921875 40.578125 39.3125 
z
" id="DejaVuSans-51"/>
     </defs>
     <use xlink:href="#DejaVuSans-102"/>
     <use x="35.205078" xlink:href="#DejaVuSans-51"/>
     <use x="98.828125" xlink:href="#DejaVuSans-49"/>
    </g>
   </g>
   <g id="text_17">
    <!-- f43 -->
    <g transform="translate(375.22944 157.353749)scale(0.17 -0.17)">
     <use xlink:href="#DejaVuSans-102"/>
     <use x="35.205078" xlink:href="#DejaVuSans-52"/>
     <use x="98.828125" xlink:href="#DejaVuSans-51"/>
    </g>
   </g>
   <g id="text_18">
    <!-- f7 -->
    <g transform="translate(375.22944 122.246264)scale(0.17 -0.17)">
     <defs>
      <path d="M 8.203125 72.90625 
L 55.078125 72.90625 
L 55.078125 68.703125 
L 28.609375 0 
L 18.3125 0 
L 43.21875 64.59375 
L 8.203125 64.59375 
z
" id="DejaVuSans-55"/>
     </defs>
     <use xlink:href="#DejaVuSans-102"/>
     <use x="35.205078" xlink:href="#DejaVuSans-55"/>
    </g>
   </g>
   <g id="text_19">
    <!-- f13 -->
    <g transform="translate(375.22944 87.138779)scale(0.17 -0.17)">
     <use xlink:href="#DejaVuSans-102"/>
     <use x="35.205078" xlink:href="#DejaVuSans-49"/>
     <use x="98.828125" xlink:href="#DejaVuSans-51"/>
    </g>
   </g>
   <g id="text_20">
    <!-- f37 -->
    <g transform="translate(375.22944 52.031294)scale(0.17 -0.17)">
     <use xlink:href="#DejaVuSans-102"/>
     <use x="35.205078" xlink:href="#DejaVuSans-51"/>
     <use x="98.828125" xlink:href="#DejaVuSans-55"/>
    </g>
   </g>
   <g id="text_21">
    <!-- f1 -->
    <g transform="translate(375.22944 16.923809)scale(0.17 -0.17)">
     <use xlink:href="#DejaVuSans-102"/>
     <use x="35.205078" xlink:href="#DejaVuSans-49"/>
    </g>
   </g>
   <g id="text_22">
    <!-- bbob-constrained -->
    <g transform="translate(60.41088 14.161286)scale(0.102 -0.102)">
     <defs>
      <path d="M 48.6875 27.296875 
Q 48.6875 37.203125 44.609375 42.84375 
Q 40.53125 48.484375 33.40625 48.484375 
Q 26.265625 48.484375 22.1875 42.84375 
Q 18.109375 37.203125 18.109375 27.296875 
Q 18.109375 17.390625 22.1875 11.75 
Q 26.265625 6.109375 33.40625 6.109375 
Q 40.53125 6.109375 44.609375 11.75 
Q 48.6875 17.390625 48.6875 27.296875 
z
M 18.109375 46.390625 
Q 20.953125 51.265625 25.265625 53.625 
Q 29.59375 56 35.59375 56 
Q 45.5625 56 51.78125 48.09375 
Q 58.015625 40.1875 58.015625 27.296875 
Q 58.015625 14.40625 51.78125 6.484375 
Q 45.5625 -1.421875 35.59375 -1.421875 
Q 29.59375 -1.421875 25.265625 0.953125 
Q 20.953125 3.328125 18.109375 8.203125 
L 18.109375 0 
L 9.078125 0 
L 9.078125 75.984375 
L 18.109375 75.984375 
z
" id="DejaVuSans-98"/>
     </defs>
     <use xlink:href="#DejaVuSans-98"/>
     <use x="63.476562" xlink:href="#DejaVuSans-98"/>
     <use x="126.953125" xlink:href="#DejaVuSans-111"/>
     <use x="188.134766" xlink:href="#DejaVuSans-98"/>
     <use x="251.611328" xlink:href="#DejaVuSans-45"/>
     <use x="287.695312" xlink:href="#DejaVuSans-99"/>
     <use x="342.675781" xlink:href="#DejaVuSans-111"/>
     <use x="403.857422" xlink:href="#DejaVuSans-110"/>
     <use x="467.236328" xlink:href="#DejaVuSans-115"/>
     <use x="519.335938" xlink:href="#DejaVuSans-116"/>
     <use x="558.544922" xlink:href="#DejaVuSans-114"/>
     <use x="599.658203" xlink:href="#DejaVuSans-97"/>
     <use x="660.9375" xlink:href="#DejaVuSans-105"/>
     <use x="688.720703" xlink:href="#DejaVuSans-110"/>
     <use x="752.099609" xlink:href="#DejaVuSans-101"/>
     <use x="813.623047" xlink:href="#DejaVuSans-100"/>
    </g>
    <!-- Separable functions with0n+1constraints, 2-D -->
    <g transform="translate(60.41088 25.583055)scale(0.102 -0.102)">
     <defs>
      <path d="M 53.515625 70.515625 
L 53.515625 60.890625 
Q 47.90625 63.578125 42.921875 64.890625 
Q 37.9375 66.21875 33.296875 66.21875 
Q 25.25 66.21875 20.875 63.09375 
Q 16.5 59.96875 16.5 54.203125 
Q 16.5 49.359375 19.40625 46.890625 
Q 22.3125 44.4375 30.421875 42.921875 
L 36.375 41.703125 
Q 47.40625 39.59375 52.65625 34.296875 
Q 57.90625 29 57.90625 20.125 
Q 57.90625 9.515625 50.796875 4.046875 
Q 43.703125 -1.421875 29.984375 -1.421875 
Q 24.8125 -1.421875 18.96875 -0.25 
Q 13.140625 0.921875 6.890625 3.21875 
L 6.890625 13.375 
Q 12.890625 10.015625 18.65625 8.296875 
Q 24.421875 6.59375 29.984375 6.59375 
Q 38.421875 6.59375 43.015625 9.90625 
Q 47.609375 13.234375 47.609375 19.390625 
Q 47.609375 24.75 44.3125 27.78125 
Q 41.015625 30.8125 33.5 32.328125 
L 27.484375 33.5 
Q 16.453125 35.6875 11.515625 40.375 
Q 6.59375 45.0625 6.59375 53.421875 
Q 6.59375 63.09375 13.40625 68.65625 
Q 20.21875 74.21875 32.171875 74.21875 
Q 37.3125 74.21875 42.625 73.28125 
Q 47.953125 72.359375 53.515625 70.515625 
z
" id="DejaVuSans-83"/>
      <path d="M 4.203125 54.6875 
L 13.1875 54.6875 
L 24.421875 12.015625 
L 35.59375 54.6875 
L 46.1875 54.6875 
L 57.421875 12.015625 
L 68.609375 54.6875 
L 77.59375 54.6875 
L 63.28125 0 
L 52.6875 0 
L 40.921875 44.828125 
L 29.109375 0 
L 18.5 0 
z
" id="DejaVuSans-119"/>
      <path d="M 54.890625 33.015625 
L 54.890625 0 
L 45.90625 0 
L 45.90625 32.71875 
Q 45.90625 40.484375 42.875 44.328125 
Q 39.84375 48.1875 33.796875 48.1875 
Q 26.515625 48.1875 22.3125 43.546875 
Q 18.109375 38.921875 18.109375 30.90625 
L 18.109375 0 
L 9.078125 0 
L 9.078125 75.984375 
L 18.109375 75.984375 
L 18.109375 46.1875 
Q 21.34375 51.125 25.703125 53.5625 
Q 30.078125 56 35.796875 56 
Q 45.21875 56 50.046875 50.171875 
Q 54.890625 44.34375 54.890625 33.015625 
z
" id="DejaVuSans-104"/>
      <path d="M 19.671875 64.796875 
L 19.671875 8.109375 
L 31.59375 8.109375 
Q 46.6875 8.109375 53.6875 14.9375 
Q 60.6875 21.78125 60.6875 36.53125 
Q 60.6875 51.171875 53.6875 57.984375 
Q 46.6875 64.796875 31.59375 64.796875 
z
M 9.8125 72.90625 
L 30.078125 72.90625 
Q 51.265625 72.90625 61.171875 64.09375 
Q 71.09375 55.28125 71.09375 36.53125 
Q 71.09375 17.671875 61.125 8.828125 
Q 51.171875 0 30.078125 0 
L 9.8125 0 
z
" id="DejaVuSans-68"/>
     </defs>
     <use xlink:href="#DejaVuSans-83"/>
     <use x="63.476562" xlink:href="#DejaVuSans-101"/>
     <use x="125" xlink:href="#DejaVuSans-112"/>
     <use x="188.476562" xlink:href="#DejaVuSans-97"/>
     <use x="249.755859" xlink:href="#DejaVuSans-114"/>
     <use x="290.869141" xlink:href="#DejaVuSans-97"/>
     <use x="352.148438" xlink:href="#DejaVuSans-98"/>
     <use x="415.625" xlink:href="#DejaVuSans-108"/>
     <use x="443.408203" xlink:href="#DejaVuSans-101"/>
     <use x="504.931641" xlink:href="#DejaVuSans-32"/>
     <use x="536.71875" xlink:href="#DejaVuSans-102"/>
     <use x="571.923828" xlink:href="#DejaVuSans-117"/>
     <use x="635.302734" xlink:href="#DejaVuSans-110"/>
     <use x="698.681641" xlink:href="#DejaVuSans-99"/>
     <use x="753.662109" xlink:href="#DejaVuSans-116"/>
     <use x="792.871094" xlink:href="#DejaVuSans-105"/>
     <use x="820.654297" xlink:href="#DejaVuSans-111"/>
     <use x="881.835938" xlink:href="#DejaVuSans-110"/>
     <use x="945.214844" xlink:href="#DejaVuSans-115"/>
     <use x="997.314453" xlink:href="#DejaVuSans-32"/>
     <use x="1029.101562" xlink:href="#DejaVuSans-119"/>
     <use x="1110.888672" xlink:href="#DejaVuSans-105"/>
     <use x="1138.671875" xlink:href="#DejaVuSans-116"/>
     <use x="1177.880859" xlink:href="#DejaVuSans-104"/>
     <use x="1241.259766" xlink:href="#DejaVuSans-48"/>
     <use x="1304.882812" xlink:href="#DejaVuSans-110"/>
     <use x="1368.261719" xlink:href="#DejaVuSans-43"/>
     <use x="1452.050781" xlink:href="#DejaVuSans-49"/>
     <use x="1515.673828" xlink:href="#DejaVuSans-99"/>
     <use x="1570.654297" xlink:href="#DejaVuSans-111"/>
     <use x="1631.835938" xlink:href="#DejaVuSans-110"/>
     <use x="1695.214844" xlink:href="#DejaVuSans-115"/>
     <use x="1747.314453" xlink:href="#DejaVuSans-116"/>
     <use x="1786.523438" xlink:href="#DejaVuSans-114"/>
     <use x="1827.636719" xlink:href="#DejaVuSans-97"/>
     <use x="1888.916016" xlink:href="#DejaVuSans-105"/>
     <use x="1916.699219" xlink:href="#DejaVuSans-110"/>
     <use x="1980.078125" xlink:href="#DejaVuSans-116"/>
     <use x="2019.287109" xlink:href="#DejaVuSans-115"/>
     <use x="2071.386719" xlink:href="#DejaVuSans-44"/>
     <use x="2103.173828" xlink:href="#DejaVuSans-32"/>
     <use x="2134.960938" xlink:href="#DejaVuSans-50"/>
     <use x="2198.583984" xlink:href="#DejaVuSans-45"/>
     <use x="2234.667969" xlink:href="#DejaVuSans-68"/>
    </g>
    <!-- 41 targets: 100..1e-06 -->
    <g transform="translate(60.41088 37.004824)scale(0.102 -0.102)">
     <defs>
      <path d="M 11.71875 12.40625 
L 22.015625 12.40625 
L 22.015625 0 
L 11.71875 0 
z
M 11.71875 51.703125 
L 22.015625 51.703125 
L 22.015625 39.3125 
L 11.71875 39.3125 
z
" id="DejaVuSans-58"/>
     </defs>
     <use xlink:href="#DejaVuSans-52"/>
     <use x="63.623047" xlink:href="#DejaVuSans-49"/>
     <use x="127.246094" xlink:href="#DejaVuSans-32"/>
     <use x="159.033203" xlink:href="#DejaVuSans-116"/>
     <use x="198.242188" xlink:href="#DejaVuSans-97"/>
     <use x="259.521484" xlink:href="#DejaVuSans-114"/>
     <use x="298.884766" xlink:href="#DejaVuSans-103"/>
     <use x="362.361328" xlink:href="#DejaVuSans-101"/>
     <use x="423.884766" xlink:href="#DejaVuSans-116"/>
     <use x="463.09375" xlink:href="#DejaVuSans-115"/>
     <use x="515.193359" xlink:href="#DejaVuSans-58"/>
     <use x="548.884766" xlink:href="#DejaVuSans-32"/>
     <use x="580.671875" xlink:href="#DejaVuSans-49"/>
     <use x="644.294922" xlink:href="#DejaVuSans-48"/>
     <use x="707.917969" xlink:href="#DejaVuSans-48"/>
     <use x="771.541016" xlink:href="#DejaVuSans-46"/>
     <use x="803.328125" xlink:href="#DejaVuSans-46"/>
     <use x="835.115234" xlink:href="#DejaVuSans-49"/>
     <use x="898.738281" xlink:href="#DejaVuSans-101"/>
     <use x="960.261719" xlink:href="#DejaVuSans-45"/>
     <use x="996.345703" xlink:href="#DejaVuSans-48"/>
     <use x="1059.96875" xlink:href="#DejaVuSans-54"/>
    </g>
    <!-- 15 instances -->
    <g transform="translate(60.41088 48.426593)scale(0.102 -0.102)">
     <use xlink:href="#DejaVuSans-49"/>
     <use x="63.623047" xlink:href="#DejaVuSans-53"/>
     <use x="127.246094" xlink:href="#DejaVuSans-32"/>
     <use x="159.033203" xlink:href="#DejaVuSans-105"/>
     <use x="186.816406" xlink:href="#DejaVuSans-110"/>
     <use x="250.195312" xlink:href="#DejaVuSans-115"/>
     <use x="302.294922" xlink:href="#DejaVuSans-116"/>
     <use x="341.503906" xlink:href="#DejaVuSans-97"/>
     <use x="402.783203" xlink:href="#DejaVuSans-110"/>
     <use x="466.162109" xlink:href="#DejaVuSans-99"/>
     <use x="521.142578" xlink:href="#DejaVuSans-101"/>
     <use x="582.666016" xlink:href="#DejaVuSans-115"/>
    </g>
   </g>
   <g id="text_23">
    <!-- v2.4.82 -->
    <g style="fill:#808080;" transform="translate(179.2815 293.909432)scale(0.1 -0.1)">
     <use xlink:href="#DejaVuSans-118"/>
     <use x="59.179688" xlink:href="#DejaVuSans-50"/>
     <use x="122.802734" xlink:href="#DejaVuSans-46"/>
     <use x="154.589844" xlink:href="#DejaVuSans-52"/>
     <use x="218.212891" xlink:href="#DejaVuSans-46"/>
     <use x="250" xlink:href="#DejaVuSans-56"/>
     <use x="313.623047" xlink:href="#DejaVuSans-50"/>
    </g>
   </g>
  </g>
 </g>
 <defs>
  <clipPath id="pd4ce081737">
   <rect height="295.488" width="281.088" x="57.6" y="3.456"/>
  </clipPath>
 </defs>
</svg>
