<?xml version="1.0" encoding="utf-8" standalone="no"?>
<!DOCTYPE svg PUBLIC "-//W3C//DTD SVG 1.1//EN"
  "http://www.w3.org/Graphics/SVG/1.1/DTD/svg11.dtd">
<!-- Created with matplotlib (https://matplotlib.org/) -->
<svg height="345.6pt" version="1.1" viewBox="0 0 460.8 345.6" width="460.8pt" xmlns="http://www.w3.org/2000/svg" xmlns:xlink="http://www.w3.org/1999/xlink">
 <metadata>
  <rdf:RDF xmlns:cc="http://creativecommons.org/ns#" xmlns:dc="http://purl.org/dc/elements/1.1/" xmlns:rdf="http://www.w3.org/1999/02/22-rdf-syntax-ns#">
   <cc:Work>
    <dc:type rdf:resource="http://purl.org/dc/dcmitype/StillImage"/>
    <dc:date>2022-01-14T09:44:03.782133</dc:date>
    <dc:format>image/svg+xml</dc:format>
    <dc:creator>
     <cc:Agent>
      <dc:title>Matplotlib v3.3.3, https://matplotlib.org/</dc:title>
     </cc:Agent>
    </dc:creator>
   </cc:Work>
  </rdf:RDF>
 </metadata>
 <defs>
  <style type="text/css">*{stroke-linecap:butt;stroke-linejoin:round;}</style>
 </defs>
 <g id="figure_1">
  <g id="patch_1">
   <path d="M 0 345.6 
L 460.8 345.6 
L 460.8 0 
L 0 0 
z
" style="fill:#ffffff;"/>
  </g>
  <g id="axes_1">
   <g id="patch_2">
    <path d="M 57.6 298.944 
L 338.688 298.944 
L 338.688 3.456 
L 57.6 3.456 
z
" style="fill:#ffffff;"/>
   </g>
   <g id="matplotlib.axis_1">
    <g id="xtick_1">
     <g id="line2d_1">
      <path clip-path="url(#pa292ecd9e5)" d="M 57.6 298.944 
L 57.6 3.456 
" style="fill:none;stroke:#b0b0b0;stroke-linecap:square;stroke-width:0.8;"/>
     </g>
     <g id="line2d_2">
      <defs>
       <path d="M 0 0 
L 0 3.5 
" id="mb0094a9a58" style="stroke:#000000;stroke-width:0.8;"/>
      </defs>
      <g>
       <use style="stroke:#000000;stroke-width:0.8;" x="57.6" xlink:href="#mb0094a9a58" y="298.944"/>
      </g>
     </g>
     <g id="text_1">
      <!-- 0 -->
      <g transform="translate(51.2375 321.140875)scale(0.2 -0.2)">
       <defs>
        <path d="M 31.78125 66.40625 
Q 24.171875 66.40625 20.328125 58.90625 
Q 16.5 51.421875 16.5 36.375 
Q 16.5 21.390625 20.328125 13.890625 
Q 24.171875 6.390625 31.78125 6.390625 
Q 39.453125 6.390625 43.28125 13.890625 
Q 47.125 21.390625 47.125 36.375 
Q 47.125 51.421875 43.28125 58.90625 
Q 39.453125 66.40625 31.78125 66.40625 
z
M 31.78125 74.21875 
Q 44.046875 74.21875 50.515625 64.515625 
Q 56.984375 54.828125 56.984375 36.375 
Q 56.984375 17.96875 50.515625 8.265625 
Q 44.046875 -1.421875 31.78125 -1.421875 
Q 19.53125 -1.421875 13.0625 8.265625 
Q 6.59375 17.96875 6.59375 36.375 
Q 6.59375 54.828125 13.0625 64.515625 
Q 19.53125 74.21875 31.78125 74.21875 
z
" id="DejaVuSans-48"/>
       </defs>
       <use xlink:href="#DejaVuSans-48"/>
      </g>
     </g>
    </g>
    <g id="xtick_2">
     <g id="line2d_3">
      <path clip-path="url(#pa292ecd9e5)" d="M 137.910857 298.944 
L 137.910857 3.456 
" style="fill:none;stroke:#b0b0b0;stroke-linecap:square;stroke-width:0.8;"/>
     </g>
     <g id="line2d_4">
      <g>
       <use style="stroke:#000000;stroke-width:0.8;" x="137.910857" xlink:href="#mb0094a9a58" y="298.944"/>
      </g>
     </g>
     <g id="text_2">
      <!-- 2 -->
      <g transform="translate(131.548357 321.140875)scale(0.2 -0.2)">
       <defs>
        <path d="M 19.1875 8.296875 
L 53.609375 8.296875 
L 53.609375 0 
L 7.328125 0 
L 7.328125 8.296875 
Q 12.9375 14.109375 22.625 23.890625 
Q 32.328125 33.6875 34.8125 36.53125 
Q 39.546875 41.84375 41.421875 45.53125 
Q 43.3125 49.21875 43.3125 52.78125 
Q 43.3125 58.59375 39.234375 62.25 
Q 35.15625 65.921875 28.609375 65.921875 
Q 23.96875 65.921875 18.8125 64.3125 
Q 13.671875 62.703125 7.8125 59.421875 
L 7.8125 69.390625 
Q 13.765625 71.78125 18.9375 73 
Q 24.125 74.21875 28.421875 74.21875 
Q 39.75 74.21875 46.484375 68.546875 
Q 53.21875 62.890625 53.21875 53.421875 
Q 53.21875 48.921875 51.53125 44.890625 
Q 49.859375 40.875 45.40625 35.40625 
Q 44.1875 33.984375 37.640625 27.21875 
Q 31.109375 20.453125 19.1875 8.296875 
z
" id="DejaVuSans-50"/>
       </defs>
       <use xlink:href="#DejaVuSans-50"/>
      </g>
     </g>
    </g>
    <g id="xtick_3">
     <g id="line2d_5">
      <path clip-path="url(#pa292ecd9e5)" d="M 218.221714 298.944 
L 218.221714 3.456 
" style="fill:none;stroke:#b0b0b0;stroke-linecap:square;stroke-width:0.8;"/>
     </g>
     <g id="line2d_6">
      <g>
       <use style="stroke:#000000;stroke-width:0.8;" x="218.221714" xlink:href="#mb0094a9a58" y="298.944"/>
      </g>
     </g>
     <g id="text_3">
      <!-- 4 -->
      <g transform="translate(211.859214 321.140875)scale(0.2 -0.2)">
       <defs>
        <path d="M 37.796875 64.3125 
L 12.890625 25.390625 
L 37.796875 25.390625 
z
M 35.203125 72.90625 
L 47.609375 72.90625 
L 47.609375 25.390625 
L 58.015625 25.390625 
L 58.015625 17.1875 
L 47.609375 17.1875 
L 47.609375 0 
L 37.796875 0 
L 37.796875 17.1875 
L 4.890625 17.1875 
L 4.890625 26.703125 
z
" id="DejaVuSans-52"/>
       </defs>
       <use xlink:href="#DejaVuSans-52"/>
      </g>
     </g>
    </g>
    <g id="xtick_4">
     <g id="line2d_7">
      <path clip-path="url(#pa292ecd9e5)" d="M 298.532571 298.944 
L 298.532571 3.456 
" style="fill:none;stroke:#b0b0b0;stroke-linecap:square;stroke-width:0.8;"/>
     </g>
     <g id="line2d_8">
      <g>
       <use style="stroke:#000000;stroke-width:0.8;" x="298.532571" xlink:href="#mb0094a9a58" y="298.944"/>
      </g>
     </g>
     <g id="text_4">
      <!-- 6 -->
      <g transform="translate(292.170071 321.140875)scale(0.2 -0.2)">
       <defs>
        <path d="M 33.015625 40.375 
Q 26.375 40.375 22.484375 35.828125 
Q 18.609375 31.296875 18.609375 23.390625 
Q 18.609375 15.53125 22.484375 10.953125 
Q 26.375 6.390625 33.015625 6.390625 
Q 39.65625 6.390625 43.53125 10.953125 
Q 47.40625 15.53125 47.40625 23.390625 
Q 47.40625 31.296875 43.53125 35.828125 
Q 39.65625 40.375 33.015625 40.375 
z
M 52.59375 71.296875 
L 52.59375 62.3125 
Q 48.875 64.0625 45.09375 64.984375 
Q 41.3125 65.921875 37.59375 65.921875 
Q 27.828125 65.921875 22.671875 59.328125 
Q 17.53125 52.734375 16.796875 39.40625 
Q 19.671875 43.65625 24.015625 45.921875 
Q 28.375 48.1875 33.59375 48.1875 
Q 44.578125 48.1875 50.953125 41.515625 
Q 57.328125 34.859375 57.328125 23.390625 
Q 57.328125 12.15625 50.6875 5.359375 
Q 44.046875 -1.421875 33.015625 -1.421875 
Q 20.359375 -1.421875 13.671875 8.265625 
Q 6.984375 17.96875 6.984375 36.375 
Q 6.984375 53.65625 15.1875 63.9375 
Q 23.390625 74.21875 37.203125 74.21875 
Q 40.921875 74.21875 44.703125 73.484375 
Q 48.484375 72.75 52.59375 71.296875 
z
" id="DejaVuSans-54"/>
       </defs>
       <use xlink:href="#DejaVuSans-54"/>
      </g>
     </g>
    </g>
    <g id="xtick_5">
     <g id="line2d_9">
      <path clip-path="url(#pa292ecd9e5)" d="M 97.755429 298.944 
L 97.755429 3.456 
" style="fill:none;stroke:#b0b0b0;stroke-linecap:square;stroke-width:0.8;"/>
     </g>
     <g id="line2d_10">
      <defs>
       <path d="M 0 0 
L 0 2 
" id="m0f76e5d2e7" style="stroke:#000000;stroke-width:0.6;"/>
      </defs>
      <g>
       <use style="stroke:#000000;stroke-width:0.6;" x="97.755429" xlink:href="#m0f76e5d2e7" y="298.944"/>
      </g>
     </g>
    </g>
    <g id="xtick_6">
     <g id="line2d_11">
      <path clip-path="url(#pa292ecd9e5)" d="M 178.066286 298.944 
L 178.066286 3.456 
" style="fill:none;stroke:#b0b0b0;stroke-linecap:square;stroke-width:0.8;"/>
     </g>
     <g id="line2d_12">
      <g>
       <use style="stroke:#000000;stroke-width:0.6;" x="178.066286" xlink:href="#m0f76e5d2e7" y="298.944"/>
      </g>
     </g>
    </g>
    <g id="xtick_7">
     <g id="line2d_13">
      <path clip-path="url(#pa292ecd9e5)" d="M 258.377143 298.944 
L 258.377143 3.456 
" style="fill:none;stroke:#b0b0b0;stroke-linecap:square;stroke-width:0.8;"/>
     </g>
     <g id="line2d_14">
      <g>
       <use style="stroke:#000000;stroke-width:0.6;" x="258.377143" xlink:href="#m0f76e5d2e7" y="298.944"/>
      </g>
     </g>
    </g>
    <g id="xtick_8">
     <g id="line2d_15">
      <path clip-path="url(#pa292ecd9e5)" d="M 338.688 298.944 
L 338.688 3.456 
" style="fill:none;stroke:#b0b0b0;stroke-linecap:square;stroke-width:0.8;"/>
     </g>
     <g id="line2d_16">
      <g>
       <use style="stroke:#000000;stroke-width:0.6;" x="338.688" xlink:href="#m0f76e5d2e7" y="298.944"/>
      </g>
     </g>
    </g>
    <g id="text_5">
     <!-- log10(# (f+g)-evals / dimension) -->
     <g transform="translate(58.145016 342.217594)scale(0.17 -0.17)">
      <defs>
       <path d="M 9.421875 75.984375 
L 18.40625 75.984375 
L 18.40625 0 
L 9.421875 0 
z
" id="DejaVuSans-108"/>
       <path d="M 30.609375 48.390625 
Q 23.390625 48.390625 19.1875 42.75 
Q 14.984375 37.109375 14.984375 27.296875 
Q 14.984375 17.484375 19.15625 11.84375 
Q 23.34375 6.203125 30.609375 6.203125 
Q 37.796875 6.203125 41.984375 11.859375 
Q 46.1875 17.53125 46.1875 27.296875 
Q 46.1875 37.015625 41.984375 42.703125 
Q 37.796875 48.390625 30.609375 48.390625 
z
M 30.609375 56 
Q 42.328125 56 49.015625 48.375 
Q 55.71875 40.765625 55.71875 27.296875 
Q 55.71875 13.875 49.015625 6.21875 
Q 42.328125 -1.421875 30.609375 -1.421875 
Q 18.84375 -1.421875 12.171875 6.21875 
Q 5.515625 13.875 5.515625 27.296875 
Q 5.515625 40.765625 12.171875 48.375 
Q 18.84375 56 30.609375 56 
z
" id="DejaVuSans-111"/>
       <path d="M 45.40625 27.984375 
Q 45.40625 37.75 41.375 43.109375 
Q 37.359375 48.484375 30.078125 48.484375 
Q 22.859375 48.484375 18.828125 43.109375 
Q 14.796875 37.75 14.796875 27.984375 
Q 14.796875 18.265625 18.828125 12.890625 
Q 22.859375 7.515625 30.078125 7.515625 
Q 37.359375 7.515625 41.375 12.890625 
Q 45.40625 18.265625 45.40625 27.984375 
z
M 54.390625 6.78125 
Q 54.390625 -7.171875 48.1875 -13.984375 
Q 42 -20.796875 29.203125 -20.796875 
Q 24.46875 -20.796875 20.265625 -20.09375 
Q 16.0625 -19.390625 12.109375 -17.921875 
L 12.109375 -9.1875 
Q 16.0625 -11.328125 19.921875 -12.34375 
Q 23.78125 -13.375 27.78125 -13.375 
Q 36.625 -13.375 41.015625 -8.765625 
Q 45.40625 -4.15625 45.40625 5.171875 
L 45.40625 9.625 
Q 42.625 4.78125 38.28125 2.390625 
Q 33.9375 0 27.875 0 
Q 17.828125 0 11.671875 7.65625 
Q 5.515625 15.328125 5.515625 27.984375 
Q 5.515625 40.671875 11.671875 48.328125 
Q 17.828125 56 27.875 56 
Q 33.9375 56 38.28125 53.609375 
Q 42.625 51.21875 45.40625 46.390625 
L 45.40625 54.6875 
L 54.390625 54.6875 
z
" id="DejaVuSans-103"/>
       <path d="M 12.40625 8.296875 
L 28.515625 8.296875 
L 28.515625 63.921875 
L 10.984375 60.40625 
L 10.984375 69.390625 
L 28.421875 72.90625 
L 38.28125 72.90625 
L 38.28125 8.296875 
L 54.390625 8.296875 
L 54.390625 0 
L 12.40625 0 
z
" id="DejaVuSans-49"/>
       <path d="M 31 75.875 
Q 24.46875 64.65625 21.28125 53.65625 
Q 18.109375 42.671875 18.109375 31.390625 
Q 18.109375 20.125 21.3125 9.0625 
Q 24.515625 -2 31 -13.1875 
L 23.1875 -13.1875 
Q 15.875 -1.703125 12.234375 9.375 
Q 8.59375 20.453125 8.59375 31.390625 
Q 8.59375 42.28125 12.203125 53.3125 
Q 15.828125 64.359375 23.1875 75.875 
z
" id="DejaVuSans-40"/>
       <path d="M 51.125 44 
L 36.921875 44 
L 32.8125 27.6875 
L 47.125 27.6875 
z
M 43.796875 71.78125 
L 38.71875 51.515625 
L 52.984375 51.515625 
L 58.109375 71.78125 
L 65.921875 71.78125 
L 60.890625 51.515625 
L 76.125 51.515625 
L 76.125 44 
L 58.984375 44 
L 54.984375 27.6875 
L 70.515625 27.6875 
L 70.515625 20.21875 
L 53.078125 20.21875 
L 48 0 
L 40.1875 0 
L 45.21875 20.21875 
L 30.90625 20.21875 
L 25.875 0 
L 18.015625 0 
L 23.09375 20.21875 
L 7.71875 20.21875 
L 7.71875 27.6875 
L 24.90625 27.6875 
L 29 44 
L 13.28125 44 
L 13.28125 51.515625 
L 30.90625 51.515625 
L 35.890625 71.78125 
z
" id="DejaVuSans-35"/>
       <path id="DejaVuSans-32"/>
       <path d="M 37.109375 75.984375 
L 37.109375 68.5 
L 28.515625 68.5 
Q 23.6875 68.5 21.796875 66.546875 
Q 19.921875 64.59375 19.921875 59.515625 
L 19.921875 54.6875 
L 34.71875 54.6875 
L 34.71875 47.703125 
L 19.921875 47.703125 
L 19.921875 0 
L 10.890625 0 
L 10.890625 47.703125 
L 2.296875 47.703125 
L 2.296875 54.6875 
L 10.890625 54.6875 
L 10.890625 58.5 
Q 10.890625 67.625 15.140625 71.796875 
Q 19.390625 75.984375 28.609375 75.984375 
z
" id="DejaVuSans-102"/>
       <path d="M 46 62.703125 
L 46 35.5 
L 73.1875 35.5 
L 73.1875 27.203125 
L 46 27.203125 
L 46 0 
L 37.796875 0 
L 37.796875 27.203125 
L 10.59375 27.203125 
L 10.59375 35.5 
L 37.796875 35.5 
L 37.796875 62.703125 
z
" id="DejaVuSans-43"/>
       <path d="M 8.015625 75.875 
L 15.828125 75.875 
Q 23.140625 64.359375 26.78125 53.3125 
Q 30.421875 42.28125 30.421875 31.390625 
Q 30.421875 20.453125 26.78125 9.375 
Q 23.140625 -1.703125 15.828125 -13.1875 
L 8.015625 -13.1875 
Q 14.5 -2 17.703125 9.0625 
Q 20.90625 20.125 20.90625 31.390625 
Q 20.90625 42.671875 17.703125 53.65625 
Q 14.5 64.65625 8.015625 75.875 
z
" id="DejaVuSans-41"/>
       <path d="M 4.890625 31.390625 
L 31.203125 31.390625 
L 31.203125 23.390625 
L 4.890625 23.390625 
z
" id="DejaVuSans-45"/>
       <path d="M 56.203125 29.59375 
L 56.203125 25.203125 
L 14.890625 25.203125 
Q 15.484375 15.921875 20.484375 11.0625 
Q 25.484375 6.203125 34.421875 6.203125 
Q 39.59375 6.203125 44.453125 7.46875 
Q 49.3125 8.734375 54.109375 11.28125 
L 54.109375 2.78125 
Q 49.265625 0.734375 44.1875 -0.34375 
Q 39.109375 -1.421875 33.890625 -1.421875 
Q 20.796875 -1.421875 13.15625 6.1875 
Q 5.515625 13.8125 5.515625 26.8125 
Q 5.515625 40.234375 12.765625 48.109375 
Q 20.015625 56 32.328125 56 
Q 43.359375 56 49.78125 48.890625 
Q 56.203125 41.796875 56.203125 29.59375 
z
M 47.21875 32.234375 
Q 47.125 39.59375 43.09375 43.984375 
Q 39.0625 48.390625 32.421875 48.390625 
Q 24.90625 48.390625 20.390625 44.140625 
Q 15.875 39.890625 15.1875 32.171875 
z
" id="DejaVuSans-101"/>
       <path d="M 2.984375 54.6875 
L 12.5 54.6875 
L 29.59375 8.796875 
L 46.6875 54.6875 
L 56.203125 54.6875 
L 35.6875 0 
L 23.484375 0 
z
" id="DejaVuSans-118"/>
       <path d="M 34.28125 27.484375 
Q 23.390625 27.484375 19.1875 25 
Q 14.984375 22.515625 14.984375 16.5 
Q 14.984375 11.71875 18.140625 8.90625 
Q 21.296875 6.109375 26.703125 6.109375 
Q 34.1875 6.109375 38.703125 11.40625 
Q 43.21875 16.703125 43.21875 25.484375 
L 43.21875 27.484375 
z
M 52.203125 31.203125 
L 52.203125 0 
L 43.21875 0 
L 43.21875 8.296875 
Q 40.140625 3.328125 35.546875 0.953125 
Q 30.953125 -1.421875 24.3125 -1.421875 
Q 15.921875 -1.421875 10.953125 3.296875 
Q 6 8.015625 6 15.921875 
Q 6 25.140625 12.171875 29.828125 
Q 18.359375 34.515625 30.609375 34.515625 
L 43.21875 34.515625 
L 43.21875 35.40625 
Q 43.21875 41.609375 39.140625 45 
Q 35.0625 48.390625 27.6875 48.390625 
Q 23 48.390625 18.546875 47.265625 
Q 14.109375 46.140625 10.015625 43.890625 
L 10.015625 52.203125 
Q 14.9375 54.109375 19.578125 55.046875 
Q 24.21875 56 28.609375 56 
Q 40.484375 56 46.34375 49.84375 
Q 52.203125 43.703125 52.203125 31.203125 
z
" id="DejaVuSans-97"/>
       <path d="M 44.28125 53.078125 
L 44.28125 44.578125 
Q 40.484375 46.53125 36.375 47.5 
Q 32.28125 48.484375 27.875 48.484375 
Q 21.1875 48.484375 17.84375 46.4375 
Q 14.5 44.390625 14.5 40.28125 
Q 14.5 37.15625 16.890625 35.375 
Q 19.28125 33.59375 26.515625 31.984375 
L 29.59375 31.296875 
Q 39.15625 29.25 43.1875 25.515625 
Q 47.21875 21.78125 47.21875 15.09375 
Q 47.21875 7.46875 41.1875 3.015625 
Q 35.15625 -1.421875 24.609375 -1.421875 
Q 20.21875 -1.421875 15.453125 -0.5625 
Q 10.6875 0.296875 5.421875 2 
L 5.421875 11.28125 
Q 10.40625 8.6875 15.234375 7.390625 
Q 20.0625 6.109375 24.8125 6.109375 
Q 31.15625 6.109375 34.5625 8.28125 
Q 37.984375 10.453125 37.984375 14.40625 
Q 37.984375 18.0625 35.515625 20.015625 
Q 33.0625 21.96875 24.703125 23.78125 
L 21.578125 24.515625 
Q 13.234375 26.265625 9.515625 29.90625 
Q 5.8125 33.546875 5.8125 39.890625 
Q 5.8125 47.609375 11.28125 51.796875 
Q 16.75 56 26.8125 56 
Q 31.78125 56 36.171875 55.265625 
Q 40.578125 54.546875 44.28125 53.078125 
z
" id="DejaVuSans-115"/>
       <path d="M 25.390625 72.90625 
L 33.6875 72.90625 
L 8.296875 -9.28125 
L 0 -9.28125 
z
" id="DejaVuSans-47"/>
       <path d="M 45.40625 46.390625 
L 45.40625 75.984375 
L 54.390625 75.984375 
L 54.390625 0 
L 45.40625 0 
L 45.40625 8.203125 
Q 42.578125 3.328125 38.25 0.953125 
Q 33.9375 -1.421875 27.875 -1.421875 
Q 17.96875 -1.421875 11.734375 6.484375 
Q 5.515625 14.40625 5.515625 27.296875 
Q 5.515625 40.1875 11.734375 48.09375 
Q 17.96875 56 27.875 56 
Q 33.9375 56 38.25 53.625 
Q 42.578125 51.265625 45.40625 46.390625 
z
M 14.796875 27.296875 
Q 14.796875 17.390625 18.875 11.75 
Q 22.953125 6.109375 30.078125 6.109375 
Q 37.203125 6.109375 41.296875 11.75 
Q 45.40625 17.390625 45.40625 27.296875 
Q 45.40625 37.203125 41.296875 42.84375 
Q 37.203125 48.484375 30.078125 48.484375 
Q 22.953125 48.484375 18.875 42.84375 
Q 14.796875 37.203125 14.796875 27.296875 
z
" id="DejaVuSans-100"/>
       <path d="M 9.421875 54.6875 
L 18.40625 54.6875 
L 18.40625 0 
L 9.421875 0 
z
M 9.421875 75.984375 
L 18.40625 75.984375 
L 18.40625 64.59375 
L 9.421875 64.59375 
z
" id="DejaVuSans-105"/>
       <path d="M 52 44.1875 
Q 55.375 50.25 60.0625 53.125 
Q 64.75 56 71.09375 56 
Q 79.640625 56 84.28125 50.015625 
Q 88.921875 44.046875 88.921875 33.015625 
L 88.921875 0 
L 79.890625 0 
L 79.890625 32.71875 
Q 79.890625 40.578125 77.09375 44.375 
Q 74.3125 48.1875 68.609375 48.1875 
Q 61.625 48.1875 57.5625 43.546875 
Q 53.515625 38.921875 53.515625 30.90625 
L 53.515625 0 
L 44.484375 0 
L 44.484375 32.71875 
Q 44.484375 40.625 41.703125 44.40625 
Q 38.921875 48.1875 33.109375 48.1875 
Q 26.21875 48.1875 22.15625 43.53125 
Q 18.109375 38.875 18.109375 30.90625 
L 18.109375 0 
L 9.078125 0 
L 9.078125 54.6875 
L 18.109375 54.6875 
L 18.109375 46.1875 
Q 21.1875 51.21875 25.484375 53.609375 
Q 29.78125 56 35.6875 56 
Q 41.65625 56 45.828125 52.96875 
Q 50 49.953125 52 44.1875 
z
" id="DejaVuSans-109"/>
       <path d="M 54.890625 33.015625 
L 54.890625 0 
L 45.90625 0 
L 45.90625 32.71875 
Q 45.90625 40.484375 42.875 44.328125 
Q 39.84375 48.1875 33.796875 48.1875 
Q 26.515625 48.1875 22.3125 43.546875 
Q 18.109375 38.921875 18.109375 30.90625 
L 18.109375 0 
L 9.078125 0 
L 9.078125 54.6875 
L 18.109375 54.6875 
L 18.109375 46.1875 
Q 21.34375 51.125 25.703125 53.5625 
Q 30.078125 56 35.796875 56 
Q 45.21875 56 50.046875 50.171875 
Q 54.890625 44.34375 54.890625 33.015625 
z
" id="DejaVuSans-110"/>
      </defs>
      <use xlink:href="#DejaVuSans-108"/>
      <use x="27.783203" xlink:href="#DejaVuSans-111"/>
      <use x="88.964844" xlink:href="#DejaVuSans-103"/>
      <use x="152.441406" xlink:href="#DejaVuSans-49"/>
      <use x="216.064453" xlink:href="#DejaVuSans-48"/>
      <use x="279.6875" xlink:href="#DejaVuSans-40"/>
      <use x="318.701172" xlink:href="#DejaVuSans-35"/>
      <use x="402.490234" xlink:href="#DejaVuSans-32"/>
      <use x="434.277344" xlink:href="#DejaVuSans-40"/>
      <use x="473.291016" xlink:href="#DejaVuSans-102"/>
      <use x="508.496094" xlink:href="#DejaVuSans-43"/>
      <use x="592.285156" xlink:href="#DejaVuSans-103"/>
      <use x="655.761719" xlink:href="#DejaVuSans-41"/>
      <use x="694.775391" xlink:href="#DejaVuSans-45"/>
      <use x="730.859375" xlink:href="#DejaVuSans-101"/>
      <use x="792.382812" xlink:href="#DejaVuSans-118"/>
      <use x="851.5625" xlink:href="#DejaVuSans-97"/>
      <use x="912.841797" xlink:href="#DejaVuSans-108"/>
      <use x="940.625" xlink:href="#DejaVuSans-115"/>
      <use x="992.724609" xlink:href="#DejaVuSans-32"/>
      <use x="1024.511719" xlink:href="#DejaVuSans-47"/>
      <use x="1058.203125" xlink:href="#DejaVuSans-32"/>
      <use x="1089.990234" xlink:href="#DejaVuSans-100"/>
      <use x="1153.466797" xlink:href="#DejaVuSans-105"/>
      <use x="1181.25" xlink:href="#DejaVuSans-109"/>
      <use x="1278.662109" xlink:href="#DejaVuSans-101"/>
      <use x="1340.185547" xlink:href="#DejaVuSans-110"/>
      <use x="1403.564453" xlink:href="#DejaVuSans-115"/>
      <use x="1455.664062" xlink:href="#DejaVuSans-105"/>
      <use x="1483.447266" xlink:href="#DejaVuSans-111"/>
      <use x="1544.628906" xlink:href="#DejaVuSans-110"/>
      <use x="1608.007812" xlink:href="#DejaVuSans-41"/>
     </g>
    </g>
   </g>
   <g id="matplotlib.axis_2">
    <g id="ytick_1">
     <g id="line2d_17">
      <path clip-path="url(#pa292ecd9e5)" d="M 57.6 298.944 
L 338.688 298.944 
" style="fill:none;stroke:#b0b0b0;stroke-linecap:square;stroke-width:0.8;"/>
     </g>
     <g id="line2d_18">
      <defs>
       <path d="M 0 0 
L -3.5 0 
" id="m1e0f354119" style="stroke:#000000;stroke-width:0.8;"/>
      </defs>
      <g>
       <use style="stroke:#000000;stroke-width:0.8;" x="57.6" xlink:href="#m1e0f354119" y="298.944"/>
      </g>
     </g>
     <g id="text_6">
      <!-- 0.0 -->
      <g transform="translate(25.155 305.02275)scale(0.16 -0.16)">
       <defs>
        <path d="M 10.6875 12.40625 
L 21 12.40625 
L 21 0 
L 10.6875 0 
z
" id="DejaVuSans-46"/>
       </defs>
       <use xlink:href="#DejaVuSans-48"/>
       <use x="63.623047" xlink:href="#DejaVuSans-46"/>
       <use x="95.410156" xlink:href="#DejaVuSans-48"/>
      </g>
     </g>
    </g>
    <g id="ytick_2">
     <g id="line2d_19">
      <path clip-path="url(#pa292ecd9e5)" d="M 57.6 240.431525 
L 338.688 240.431525 
" style="fill:none;stroke:#b0b0b0;stroke-linecap:square;stroke-width:0.8;"/>
     </g>
     <g id="line2d_20">
      <g>
       <use style="stroke:#000000;stroke-width:0.8;" x="57.6" xlink:href="#m1e0f354119" y="240.431525"/>
      </g>
     </g>
     <g id="text_7">
      <!-- 0.2 -->
      <g transform="translate(25.155 246.510275)scale(0.16 -0.16)">
       <use xlink:href="#DejaVuSans-48"/>
       <use x="63.623047" xlink:href="#DejaVuSans-46"/>
       <use x="95.410156" xlink:href="#DejaVuSans-50"/>
      </g>
     </g>
    </g>
    <g id="ytick_3">
     <g id="line2d_21">
      <path clip-path="url(#pa292ecd9e5)" d="M 57.6 181.91905 
L 338.688 181.91905 
" style="fill:none;stroke:#b0b0b0;stroke-linecap:square;stroke-width:0.8;"/>
     </g>
     <g id="line2d_22">
      <g>
       <use style="stroke:#000000;stroke-width:0.8;" x="57.6" xlink:href="#m1e0f354119" y="181.91905"/>
      </g>
     </g>
     <g id="text_8">
      <!-- 0.4 -->
      <g transform="translate(25.155 187.9978)scale(0.16 -0.16)">
       <use xlink:href="#DejaVuSans-48"/>
       <use x="63.623047" xlink:href="#DejaVuSans-46"/>
       <use x="95.410156" xlink:href="#DejaVuSans-52"/>
      </g>
     </g>
    </g>
    <g id="ytick_4">
     <g id="line2d_23">
      <path clip-path="url(#pa292ecd9e5)" d="M 57.6 123.406574 
L 338.688 123.406574 
" style="fill:none;stroke:#b0b0b0;stroke-linecap:square;stroke-width:0.8;"/>
     </g>
     <g id="line2d_24">
      <g>
       <use style="stroke:#000000;stroke-width:0.8;" x="57.6" xlink:href="#m1e0f354119" y="123.406574"/>
      </g>
     </g>
     <g id="text_9">
      <!-- 0.6 -->
      <g transform="translate(25.155 129.485324)scale(0.16 -0.16)">
       <use xlink:href="#DejaVuSans-48"/>
       <use x="63.623047" xlink:href="#DejaVuSans-46"/>
       <use x="95.410156" xlink:href="#DejaVuSans-54"/>
      </g>
     </g>
    </g>
    <g id="ytick_5">
     <g id="line2d_25">
      <path clip-path="url(#pa292ecd9e5)" d="M 57.6 64.894099 
L 338.688 64.894099 
" style="fill:none;stroke:#b0b0b0;stroke-linecap:square;stroke-width:0.8;"/>
     </g>
     <g id="line2d_26">
      <g>
       <use style="stroke:#000000;stroke-width:0.8;" x="57.6" xlink:href="#m1e0f354119" y="64.894099"/>
      </g>
     </g>
     <g id="text_10">
      <!-- 0.8 -->
      <g transform="translate(25.155 70.972849)scale(0.16 -0.16)">
       <defs>
        <path d="M 31.78125 34.625 
Q 24.75 34.625 20.71875 30.859375 
Q 16.703125 27.09375 16.703125 20.515625 
Q 16.703125 13.921875 20.71875 10.15625 
Q 24.75 6.390625 31.78125 6.390625 
Q 38.8125 6.390625 42.859375 10.171875 
Q 46.921875 13.96875 46.921875 20.515625 
Q 46.921875 27.09375 42.890625 30.859375 
Q 38.875 34.625 31.78125 34.625 
z
M 21.921875 38.8125 
Q 15.578125 40.375 12.03125 44.71875 
Q 8.5 49.078125 8.5 55.328125 
Q 8.5 64.0625 14.71875 69.140625 
Q 20.953125 74.21875 31.78125 74.21875 
Q 42.671875 74.21875 48.875 69.140625 
Q 55.078125 64.0625 55.078125 55.328125 
Q 55.078125 49.078125 51.53125 44.71875 
Q 48 40.375 41.703125 38.8125 
Q 48.828125 37.15625 52.796875 32.3125 
Q 56.78125 27.484375 56.78125 20.515625 
Q 56.78125 9.90625 50.3125 4.234375 
Q 43.84375 -1.421875 31.78125 -1.421875 
Q 19.734375 -1.421875 13.25 4.234375 
Q 6.78125 9.90625 6.78125 20.515625 
Q 6.78125 27.484375 10.78125 32.3125 
Q 14.796875 37.15625 21.921875 38.8125 
z
M 18.3125 54.390625 
Q 18.3125 48.734375 21.84375 45.5625 
Q 25.390625 42.390625 31.78125 42.390625 
Q 38.140625 42.390625 41.71875 45.5625 
Q 45.3125 48.734375 45.3125 54.390625 
Q 45.3125 60.0625 41.71875 63.234375 
Q 38.140625 66.40625 31.78125 66.40625 
Q 25.390625 66.40625 21.84375 63.234375 
Q 18.3125 60.0625 18.3125 54.390625 
z
" id="DejaVuSans-56"/>
       </defs>
       <use xlink:href="#DejaVuSans-48"/>
       <use x="63.623047" xlink:href="#DejaVuSans-46"/>
       <use x="95.410156" xlink:href="#DejaVuSans-56"/>
      </g>
     </g>
    </g>
    <g id="ytick_6">
     <g id="line2d_27">
      <path clip-path="url(#pa292ecd9e5)" d="M 57.6 6.381624 
L 338.688 6.381624 
" style="fill:none;stroke:#b0b0b0;stroke-linecap:square;stroke-width:0.8;"/>
     </g>
     <g id="line2d_28">
      <g>
       <use style="stroke:#000000;stroke-width:0.8;" x="57.6" xlink:href="#m1e0f354119" y="6.381624"/>
      </g>
     </g>
     <g id="text_11">
      <!-- 1.0 -->
      <g transform="translate(25.155 12.460374)scale(0.16 -0.16)">
       <use xlink:href="#DejaVuSans-49"/>
       <use x="63.623047" xlink:href="#DejaVuSans-46"/>
       <use x="95.410156" xlink:href="#DejaVuSans-48"/>
      </g>
     </g>
    </g>
    <g id="text_12">
     <!-- Fraction of function,target pairs -->
     <g transform="translate(17.619531 285.585)rotate(-90)scale(0.17 -0.17)">
      <defs>
       <path d="M 9.8125 72.90625 
L 51.703125 72.90625 
L 51.703125 64.59375 
L 19.671875 64.59375 
L 19.671875 43.109375 
L 48.578125 43.109375 
L 48.578125 34.8125 
L 19.671875 34.8125 
L 19.671875 0 
L 9.8125 0 
z
" id="DejaVuSans-70"/>
       <path d="M 41.109375 46.296875 
Q 39.59375 47.171875 37.8125 47.578125 
Q 36.03125 48 33.890625 48 
Q 26.265625 48 22.1875 43.046875 
Q 18.109375 38.09375 18.109375 28.8125 
L 18.109375 0 
L 9.078125 0 
L 9.078125 54.6875 
L 18.109375 54.6875 
L 18.109375 46.1875 
Q 20.953125 51.171875 25.484375 53.578125 
Q 30.03125 56 36.53125 56 
Q 37.453125 56 38.578125 55.875 
Q 39.703125 55.765625 41.0625 55.515625 
z
" id="DejaVuSans-114"/>
       <path d="M 48.78125 52.59375 
L 48.78125 44.1875 
Q 44.96875 46.296875 41.140625 47.34375 
Q 37.3125 48.390625 33.40625 48.390625 
Q 24.65625 48.390625 19.8125 42.84375 
Q 14.984375 37.3125 14.984375 27.296875 
Q 14.984375 17.28125 19.8125 11.734375 
Q 24.65625 6.203125 33.40625 6.203125 
Q 37.3125 6.203125 41.140625 7.25 
Q 44.96875 8.296875 48.78125 10.40625 
L 48.78125 2.09375 
Q 45.015625 0.34375 40.984375 -0.53125 
Q 36.96875 -1.421875 32.421875 -1.421875 
Q 20.0625 -1.421875 12.78125 6.34375 
Q 5.515625 14.109375 5.515625 27.296875 
Q 5.515625 40.671875 12.859375 48.328125 
Q 20.21875 56 33.015625 56 
Q 37.15625 56 41.109375 55.140625 
Q 45.0625 54.296875 48.78125 52.59375 
z
" id="DejaVuSans-99"/>
       <path d="M 18.3125 70.21875 
L 18.3125 54.6875 
L 36.8125 54.6875 
L 36.8125 47.703125 
L 18.3125 47.703125 
L 18.3125 18.015625 
Q 18.3125 11.328125 20.140625 9.421875 
Q 21.96875 7.515625 27.59375 7.515625 
L 36.8125 7.515625 
L 36.8125 0 
L 27.59375 0 
Q 17.1875 0 13.234375 3.875 
Q 9.28125 7.765625 9.28125 18.015625 
L 9.28125 47.703125 
L 2.6875 47.703125 
L 2.6875 54.6875 
L 9.28125 54.6875 
L 9.28125 70.21875 
z
" id="DejaVuSans-116"/>
       <path d="M 8.5 21.578125 
L 8.5 54.6875 
L 17.484375 54.6875 
L 17.484375 21.921875 
Q 17.484375 14.15625 20.5 10.265625 
Q 23.53125 6.390625 29.59375 6.390625 
Q 36.859375 6.390625 41.078125 11.03125 
Q 45.3125 15.671875 45.3125 23.6875 
L 45.3125 54.6875 
L 54.296875 54.6875 
L 54.296875 0 
L 45.3125 0 
L 45.3125 8.40625 
Q 42.046875 3.421875 37.71875 1 
Q 33.40625 -1.421875 27.6875 -1.421875 
Q 18.265625 -1.421875 13.375 4.4375 
Q 8.5 10.296875 8.5 21.578125 
z
M 31.109375 56 
z
" id="DejaVuSans-117"/>
       <path d="M 11.71875 12.40625 
L 22.015625 12.40625 
L 22.015625 4 
L 14.015625 -11.625 
L 7.71875 -11.625 
L 11.71875 4 
z
" id="DejaVuSans-44"/>
       <path d="M 18.109375 8.203125 
L 18.109375 -20.796875 
L 9.078125 -20.796875 
L 9.078125 54.6875 
L 18.109375 54.6875 
L 18.109375 46.390625 
Q 20.953125 51.265625 25.265625 53.625 
Q 29.59375 56 35.59375 56 
Q 45.5625 56 51.78125 48.09375 
Q 58.015625 40.1875 58.015625 27.296875 
Q 58.015625 14.40625 51.78125 6.484375 
Q 45.5625 -1.421875 35.59375 -1.421875 
Q 29.59375 -1.421875 25.265625 0.953125 
Q 20.953125 3.328125 18.109375 8.203125 
z
M 48.6875 27.296875 
Q 48.6875 37.203125 44.609375 42.84375 
Q 40.53125 48.484375 33.40625 48.484375 
Q 26.265625 48.484375 22.1875 42.84375 
Q 18.109375 37.203125 18.109375 27.296875 
Q 18.109375 17.390625 22.1875 11.75 
Q 26.265625 6.109375 33.40625 6.109375 
Q 40.53125 6.109375 44.609375 11.75 
Q 48.6875 17.390625 48.6875 27.296875 
z
" id="DejaVuSans-112"/>
      </defs>
      <use xlink:href="#DejaVuSans-70"/>
      <use x="50.269531" xlink:href="#DejaVuSans-114"/>
      <use x="91.382812" xlink:href="#DejaVuSans-97"/>
      <use x="152.662109" xlink:href="#DejaVuSans-99"/>
      <use x="207.642578" xlink:href="#DejaVuSans-116"/>
      <use x="246.851562" xlink:href="#DejaVuSans-105"/>
      <use x="274.634766" xlink:href="#DejaVuSans-111"/>
      <use x="335.816406" xlink:href="#DejaVuSans-110"/>
      <use x="399.195312" xlink:href="#DejaVuSans-32"/>
      <use x="430.982422" xlink:href="#DejaVuSans-111"/>
      <use x="492.164062" xlink:href="#DejaVuSans-102"/>
      <use x="527.369141" xlink:href="#DejaVuSans-32"/>
      <use x="559.15625" xlink:href="#DejaVuSans-102"/>
      <use x="594.361328" xlink:href="#DejaVuSans-117"/>
      <use x="657.740234" xlink:href="#DejaVuSans-110"/>
      <use x="721.119141" xlink:href="#DejaVuSans-99"/>
      <use x="776.099609" xlink:href="#DejaVuSans-116"/>
      <use x="815.308594" xlink:href="#DejaVuSans-105"/>
      <use x="843.091797" xlink:href="#DejaVuSans-111"/>
      <use x="904.273438" xlink:href="#DejaVuSans-110"/>
      <use x="967.652344" xlink:href="#DejaVuSans-44"/>
      <use x="999.439453" xlink:href="#DejaVuSans-116"/>
      <use x="1038.648438" xlink:href="#DejaVuSans-97"/>
      <use x="1099.927734" xlink:href="#DejaVuSans-114"/>
      <use x="1139.291016" xlink:href="#DejaVuSans-103"/>
      <use x="1202.767578" xlink:href="#DejaVuSans-101"/>
      <use x="1264.291016" xlink:href="#DejaVuSans-116"/>
      <use x="1303.5" xlink:href="#DejaVuSans-32"/>
      <use x="1335.287109" xlink:href="#DejaVuSans-112"/>
      <use x="1398.763672" xlink:href="#DejaVuSans-97"/>
      <use x="1460.042969" xlink:href="#DejaVuSans-105"/>
      <use x="1487.826172" xlink:href="#DejaVuSans-114"/>
      <use x="1528.939453" xlink:href="#DejaVuSans-115"/>
     </g>
    </g>
   </g>
   <g id="line2d_29">
    <defs>
     <path d="M 0 1.5 
C 0.397805 1.5 0.77937 1.341951 1.06066 1.06066 
C 1.341951 0.77937 1.5 0.397805 1.5 0 
C 1.5 -0.397805 1.341951 -0.77937 1.06066 -1.06066 
C 0.77937 -1.341951 0.397805 -1.5 0 -1.5 
C -0.397805 -1.5 -0.77937 -1.341951 -1.06066 -1.06066 
C -1.341951 -0.77937 -1.5 -0.397805 -1.5 0 
C -1.5 0.397805 -1.341951 0.77937 -1.06066 1.06066 
C -0.77937 1.341951 -0.397805 1.5 0 1.5 
z
" id="mca7b98f7a4" style="stroke:#000080;"/>
    </defs>
    <g>
     <use style="fill:#000080;stroke:#000080;" x="280.778995" xlink:href="#mca7b98f7a4" y="6.381624"/>
     <use style="fill:#000080;stroke:#000080;" x="280.778995" xlink:href="#mca7b98f7a4" y="6.381624"/>
    </g>
   </g>
   <g id="line2d_30">
    <path d="M 78.941764 298.944 
L 78.941764 296.565444 
L 98.100772 296.565444 
L 98.100772 295.614022 
L 102.597126 295.614022 
L 102.597126 295.138311 
L 109.843417 295.138311 
L 109.843417 294.186888 
L 111.974805 294.186888 
L 111.974805 293.711177 
L 114.148479 293.711177 
L 114.148479 292.759755 
L 115.835374 292.759755 
L 115.835374 290.85691 
L 117.373392 290.85691 
L 117.373392 289.905488 
L 118.786692 289.905488 
L 118.786692 288.002643 
L 120.093994 288.002643 
L 120.093994 287.526932 
L 121.310093 287.526932 
L 121.310093 284.196953 
L 121.579085 284.196953 
L 121.579085 283.721242 
L 124.139788 283.721242 
L 124.139788 281.342686 
L 124.444412 281.342686 
L 124.444412 280.866975 
L 127.799239 280.866975 
L 127.799239 280.391264 
L 129.06046 280.391264 
L 129.06046 279.915553 
L 143.976867 279.915553 
L 143.976867 279.439842 
L 145.865929 279.439842 
L 145.865929 278.96413 
L 165.511714 278.96413 
L 165.511714 278.488419 
L 178.059309 278.488419 
L 178.111569 274.207019 
L 178.281203 274.207019 
L 178.281203 270.401329 
L 178.530902 270.401329 
L 178.530902 269.925618 
L 181.803604 269.925618 
L 181.803604 268.974196 
L 184.406012 268.974196 
L 184.406012 268.498484 
L 187.725644 268.498484 
L 187.807636 265.168506 
L 187.871363 265.168506 
L 187.871363 264.692795 
L 187.986278 264.692795 
L 188.096517 262.78995 
L 188.151376 262.78995 
L 188.25669 260.887106 
L 188.347838 260.887106 
L 188.430814 259.459972 
L 188.563141 259.459972 
L 188.563141 258.032838 
L 188.688782 258.032838 
L 188.688782 255.654283 
L 188.97474 255.654283 
L 188.97474 255.178571 
L 189.413278 255.178571 
L 189.462339 254.227149 
L 190.021229 254.227149 
L 190.021229 253.751438 
L 193.114466 253.751438 
L 193.114466 253.275727 
L 198.731371 253.275727 
L 198.731371 252.800015 
L 200.457091 252.800015 
L 200.457091 252.324304 
L 200.601385 252.324304 
L 200.65877 250.897171 
L 201.288903 250.897171 
L 201.288903 250.42146 
L 202.028195 250.42146 
L 202.115367 248.994326 
L 202.666928 248.994326 
L 202.7569 246.140059 
L 202.820281 246.140059 
L 202.88175 241.858658 
L 203.01072 241.858658 
L 203.09811 240.431525 
L 203.147851 240.431525 
L 203.147851 239.955814 
L 203.353593 239.955814 
L 203.353593 239.480102 
L 203.515646 239.480102 
L 203.515646 239.004391 
L 204.585336 239.004391 
L 204.596767 238.052969 
L 204.754514 238.052969 
L 204.754514 237.577258 
L 205.474784 237.577258 
L 205.474784 237.101546 
L 205.58959 237.101546 
L 205.58959 236.150124 
L 205.89846 236.150124 
L 205.964091 233.295857 
L 206.029477 233.295857 
L 206.11558 232.344435 
L 206.229032 232.344435 
L 206.229032 231.868723 
L 207.189334 231.868723 
L 207.189334 231.393012 
L 207.418291 231.393012 
L 207.418291 230.917301 
L 207.624439 230.917301 
L 207.624439 230.44159 
L 208.427941 230.44159 
L 208.427941 229.965879 
L 209.057382 229.965879 
L 209.057382 229.490168 
L 209.248638 229.490168 
L 209.280117 228.538745 
L 209.569493 228.538745 
L 209.609545 227.587323 
L 209.751275 227.587323 
L 209.820299 226.635901 
L 209.867102 226.635901 
L 209.970413 224.257345 
L 210.206173 224.257345 
L 210.206173 223.781633 
L 210.559897 223.781633 
L 210.559897 223.305922 
L 211.134294 223.305922 
L 211.136388 222.3545 
L 211.319213 222.3545 
L 211.371984 221.403078 
L 211.92716 221.403078 
L 211.996576 220.451655 
L 212.436556 220.451655 
L 212.458897 219.024522 
L 212.755827 219.024522 
L 212.755827 218.54881 
L 213.262317 218.54881 
L 213.345089 216.170255 
L 213.39346 216.170255 
L 213.420122 215.218832 
L 213.60517 215.218832 
L 213.60517 214.743121 
L 213.836779 214.743121 
L 213.934724 213.791699 
L 214.12545 213.791699 
L 214.12545 213.315987 
L 214.357261 213.315987 
L 214.357261 212.840276 
L 214.559374 212.840276 
L 214.559374 211.888854 
L 214.874072 211.888854 
L 214.874072 211.413143 
L 215.270988 211.413143 
L 215.28255 210.46172 
L 215.410465 210.46172 
L 215.520353 209.034587 
L 216.187097 209.034587 
L 216.28286 208.083164 
L 216.347447 208.083164 
L 216.347447 207.607453 
L 216.655018 207.607453 
L 216.749012 205.704609 
L 216.772527 205.704609 
L 216.864383 202.850341 
L 217.177125 202.850341 
L 217.213378 201.898919 
L 217.51671 201.898919 
L 217.51671 201.423208 
L 217.707419 201.423208 
L 217.707419 200.947497 
L 217.82913 200.947497 
L 217.859782 199.996074 
L 218.407668 199.996074 
L 218.407668 199.520363 
L 218.554059 199.520363 
L 218.554059 199.044652 
L 218.685991 199.044652 
L 218.776097 196.666096 
L 218.885226 196.666096 
L 218.937526 193.811829 
L 219.605148 193.811829 
L 219.605148 193.336118 
L 219.913635 193.336118 
L 219.913635 192.860407 
L 220.085927 192.860407 
L 220.180014 191.908984 
L 220.625364 191.908984 
L 220.625364 191.433273 
L 220.763385 191.433273 
L 220.858994 190.481851 
L 220.907799 190.481851 
L 220.916169 189.530428 
L 221.142421 189.530428 
L 221.142421 189.054717 
L 221.418702 189.054717 
L 221.418702 188.579006 
L 221.544555 188.579006 
L 221.58084 187.627584 
L 221.656622 187.627584 
L 221.656622 187.151872 
L 222.038517 187.151872 
L 222.075468 185.724739 
L 222.210287 185.724739 
L 222.210287 185.249028 
L 222.527594 185.249028 
L 222.527594 184.773317 
L 222.674114 184.773317 
L 222.674114 184.297605 
L 222.838963 184.297605 
L 222.838963 183.821894 
L 222.962714 183.821894 
L 222.962714 183.346183 
L 223.183487 183.346183 
L 223.223068 182.394761 
L 223.332948 182.394761 
L 223.441624 180.967627 
L 223.455064 180.967627 
L 223.547571 179.540494 
L 223.625012 179.540494 
L 223.677894 178.589071 
L 223.802692 178.589071 
L 223.884053 177.637649 
L 223.981088 177.637649 
L 224.073846 175.259093 
L 224.093534 175.259093 
L 224.093534 174.783382 
L 224.220102 174.783382 
L 224.326353 173.356248 
L 224.434159 173.356248 
L 224.504121 172.404826 
L 224.676481 172.404826 
L 224.676481 171.929115 
L 224.816117 171.929115 
L 224.921897 170.501981 
L 225.065479 170.501981 
L 225.154065 169.074848 
L 225.212562 169.074848 
L 225.212562 168.599136 
L 225.360499 168.599136 
L 225.4658 167.647714 
L 225.505125 167.647714 
L 225.60385 166.220581 
L 225.659038 166.220581 
L 225.73084 164.793447 
L 225.851734 164.793447 
L 225.851734 164.317736 
L 225.973809 164.317736 
L 225.973809 163.842025 
L 226.146921 163.842025 
L 226.171038 162.414891 
L 226.383545 162.414891 
L 226.383545 161.93918 
L 226.537075 161.93918 
L 226.590903 160.512046 
L 226.700637 160.512046 
L 226.700637 160.036335 
L 226.853539 160.036335 
L 226.853539 159.560624 
L 227.149737 159.560624 
L 227.25789 157.657779 
L 227.514428 157.657779 
L 227.514428 157.182068 
L 227.769667 157.182068 
L 227.867436 156.230646 
L 228.074236 156.230646 
L 228.120168 155.279223 
L 228.189825 155.279223 
L 228.189825 154.803512 
L 228.46512 154.803512 
L 228.567366 152.424956 
L 228.775029 152.424956 
L 228.775029 151.949245 
L 228.968011 151.949245 
L 229.068483 150.997823 
L 229.236205 150.997823 
L 229.291386 150.0464 
L 229.421425 150.0464 
L 229.421425 149.570689 
L 229.546858 149.570689 
L 229.644058 147.667844 
L 229.726841 147.667844 
L 229.726841 147.192133 
L 230.008734 147.192133 
L 230.008734 146.716422 
L 230.236829 146.716422 
L 230.345069 145.289289 
L 230.426156 145.289289 
L 230.426156 144.813577 
L 230.59373 144.813577 
L 230.627327 142.910733 
L 230.726708 142.910733 
L 230.726708 142.435021 
L 230.97825 142.435021 
L 230.993684 141.483599 
L 231.096673 141.483599 
L 231.199224 139.580754 
L 231.380406 139.580754 
L 231.469073 137.202199 
L 231.54511 137.202199 
L 231.54511 136.726487 
L 231.885066 136.726487 
L 231.885066 136.250776 
L 232.023925 136.250776 
L 232.081209 135.299354 
L 232.208045 135.299354 
L 232.316255 134.347931 
L 232.64271 134.347931 
L 232.738101 132.920798 
L 232.764178 132.920798 
L 232.764633 131.969376 
L 233.115126 131.969376 
L 233.115126 131.493664 
L 233.249279 131.493664 
L 233.249279 131.017953 
L 233.482864 131.017953 
L 233.482864 130.542242 
L 233.702741 130.542242 
L 233.73143 129.115108 
L 233.923142 129.115108 
L 234.006296 128.163686 
L 234.236149 128.163686 
L 234.236149 127.687975 
L 234.492124 127.687975 
L 234.589951 126.260841 
L 234.677461 126.260841 
L 234.743855 125.309419 
L 234.837997 125.309419 
L 234.837997 124.833708 
L 235.23128 124.833708 
L 235.23128 124.357997 
L 235.375737 124.357997 
L 235.446935 122.930863 
L 235.522242 122.930863 
L 235.522242 122.455152 
L 235.654824 122.455152 
L 235.654824 121.979441 
L 235.987916 121.979441 
L 235.987916 121.50373 
L 236.136007 121.50373 
L 236.210889 119.600885 
L 236.295722 119.600885 
L 236.295722 119.125174 
L 236.407213 119.125174 
L 236.517262 118.173751 
L 236.63184 118.173751 
L 236.708977 117.222329 
L 236.769768 117.222329 
L 236.784933 116.270907 
L 236.890479 116.270907 
L 236.890479 115.795195 
L 237.017722 115.795195 
L 237.081351 114.368062 
L 237.147578 114.368062 
L 237.184183 113.416639 
L 237.295995 113.416639 
L 237.295995 112.940928 
L 237.408719 112.940928 
L 237.408719 112.465217 
L 237.597018 112.465217 
L 237.686127 111.513795 
L 237.786373 111.513795 
L 237.874408 110.562372 
L 237.926206 110.562372 
L 237.926206 110.086661 
L 238.352743 110.086661 
L 238.449677 108.659528 
L 238.611635 108.659528 
L 238.682992 107.232394 
L 238.75019 107.232394 
L 238.75019 106.756683 
L 238.894902 106.756683 
L 238.943654 105.329549 
L 239.088463 105.329549 
L 239.088463 104.853838 
L 239.310735 104.853838 
L 239.372761 102.950993 
L 239.472042 102.950993 
L 239.545825 101.999571 
L 239.682784 101.999571 
L 239.780016 100.572438 
L 239.855436 100.572438 
L 239.940774 99.145304 
L 240.493592 99.145304 
L 240.592126 97.242459 
L 240.701738 97.242459 
L 240.701738 96.766748 
L 240.856923 96.766748 
L 240.918347 95.815326 
L 241.067202 95.815326 
L 241.119167 94.863903 
L 241.216011 94.863903 
L 241.304059 93.43677 
L 241.340414 93.43677 
L 241.451145 92.009636 
L 241.717728 92.009636 
L 241.717728 91.533925 
L 241.853465 91.533925 
L 241.858143 90.582503 
L 242.086074 90.582503 
L 242.178503 89.155369 
L 242.197653 89.155369 
L 242.274836 87.728236 
L 242.329282 87.728236 
L 242.408326 86.776813 
L 242.448888 86.776813 
L 242.534488 85.825391 
L 242.732688 85.825391 
L 242.843449 84.873969 
L 242.950638 84.873969 
L 242.950638 84.398257 
L 243.095501 84.398257 
L 243.095501 83.922546 
L 243.345449 83.922546 
L 243.345449 83.446835 
L 243.578424 83.446835 
L 243.578424 82.971124 
L 243.692541 82.971124 
L 243.692541 82.495413 
L 243.806961 82.495413 
L 243.806961 82.019702 
L 243.953207 82.019702 
L 243.953207 81.54399 
L 244.352171 81.54399 
L 244.45554 80.592568 
L 244.465301 80.592568 
L 244.556836 79.165434 
L 244.705432 79.165434 
L 244.705432 78.689723 
L 245.001132 78.689723 
L 245.001132 78.214012 
L 245.159258 78.214012 
L 245.216398 77.26259 
L 245.302165 77.26259 
L 245.335647 75.835456 
L 245.427794 75.835456 
L 245.536072 74.408323 
L 245.789151 74.408323 
L 245.834747 73.4569 
L 245.955544 73.4569 
L 246.050635 72.029767 
L 246.264583 72.029767 
L 246.264583 71.554056 
L 246.678826 71.554056 
L 246.758932 70.126922 
L 246.898995 70.126922 
L 246.935869 69.1755 
L 247.144802 69.1755 
L 247.144802 68.699788 
L 247.26843 68.699788 
L 247.26843 68.224077 
L 247.500793 68.224077 
L 247.500793 67.748366 
L 247.626972 67.748366 
L 247.668206 66.796944 
L 247.952627 66.796944 
L 248.047295 65.36981 
L 248.136246 65.36981 
L 248.226929 64.418388 
L 248.351699 64.418388 
L 248.351699 63.942677 
L 248.554417 63.942677 
L 248.633081 62.515543 
L 248.933749 62.515543 
L 248.976495 61.564121 
L 249.135006 61.564121 
L 249.160408 59.661276 
L 249.418006 59.661276 
L 249.418006 59.185565 
L 249.628246 59.185565 
L 249.628246 58.709854 
L 249.823114 58.709854 
L 249.893433 57.758431 
L 250.014814 57.758431 
L 250.014814 57.28272 
L 250.282056 57.28272 
L 250.310882 56.331298 
L 250.772976 56.331298 
L 250.808596 54.904164 
L 251.156728 54.904164 
L 251.265407 52.049897 
L 251.644489 52.049897 
L 251.644489 51.574186 
L 251.781213 51.574186 
L 251.781213 51.098475 
L 251.956635 51.098475 
L 251.956635 50.622764 
L 252.081037 50.622764 
L 252.081037 50.147052 
L 252.214791 50.147052 
L 252.216181 49.19563 
L 252.434004 49.19563 
L 252.454247 48.244208 
L 252.650303 48.244208 
L 252.755384 46.817074 
L 253.047101 46.817074 
L 253.105288 45.865652 
L 253.270656 45.865652 
L 253.270656 45.389941 
L 253.554409 45.389941 
L 253.554409 44.914229 
L 253.839818 44.914229 
L 253.860165 43.962807 
L 254.043306 43.962807 
L 254.043306 43.487096 
L 254.320403 43.487096 
L 254.320403 43.011385 
L 254.663609 43.011385 
L 254.754516 41.10854 
L 255.0224 41.10854 
L 255.062264 39.681406 
L 255.172427 39.681406 
L 255.243704 38.729984 
L 255.536609 38.729984 
L 255.569335 37.778562 
L 255.826937 37.778562 
L 255.846425 36.827139 
L 257.109612 36.827139 
L 257.109612 36.351428 
L 257.390892 36.351428 
L 257.390892 35.875717 
L 257.541598 35.875717 
L 257.541598 35.400006 
L 258.109606 35.400006 
L 258.141523 34.448583 
L 258.524647 34.448583 
L 258.60494 32.545739 
L 259.141161 32.545739 
L 259.141161 32.070028 
L 259.271635 32.070028 
L 259.343323 30.642894 
L 259.5402 30.642894 
L 259.5402 30.167183 
L 259.825858 30.167183 
L 259.825858 29.691472 
L 259.965534 29.691472 
L 259.965534 29.21576 
L 260.147326 29.21576 
L 260.147326 28.740049 
L 260.869028 28.740049 
L 260.912542 27.788627 
L 261.199663 27.788627 
L 261.199663 27.312916 
L 261.323761 27.312916 
L 261.323761 26.837205 
L 261.499871 26.837205 
L 261.499871 26.361493 
L 262.265871 26.361493 
L 262.265871 25.885782 
L 262.748376 25.885782 
L 262.748376 25.410071 
L 264.441724 25.410071 
L 264.514095 24.458649 
L 264.566906 24.458649 
L 264.651592 23.507226 
L 264.67832 23.507226 
L 264.67832 23.031515 
L 264.815763 23.031515 
L 264.901124 22.080093 
L 265.020012 22.080093 
L 265.05144 20.652959 
L 265.319218 20.652959 
L 265.319218 20.177248 
L 265.447442 20.177248 
L 265.466894 19.225826 
L 265.569443 19.225826 
L 265.601994 18.274403 
L 265.873362 18.274403 
L 265.965385 16.84727 
L 266.821348 16.84727 
L 266.842462 15.895847 
L 267.113791 15.895847 
L 267.113791 15.420136 
L 267.337014 15.420136 
L 267.337014 14.944425 
L 267.506451 14.944425 
L 267.513785 13.993003 
L 267.954625 13.993003 
L 267.954625 13.517291 
L 268.203815 13.517291 
L 268.203815 13.04158 
L 269.794486 13.04158 
L 269.794486 12.565869 
L 270.622852 12.565869 
L 270.622852 12.090158 
L 271.196854 12.090158 
L 271.196854 11.614447 
L 271.348967 11.614447 
L 271.348967 11.138736 
L 272.554846 11.138736 
L 272.554846 10.663024 
L 272.764941 10.663024 
L 272.764941 10.187313 
L 273.082056 10.187313 
L 273.128223 9.235891 
L 275.367326 9.235891 
L 275.367326 8.76018 
L 276.049313 8.76018 
L 276.049313 8.284468 
L 276.838276 8.284468 
L 276.838276 7.808757 
L 279.368742 7.808757 
L 279.368742 7.333046 
L 280.01373 7.333046 
L 280.01373 6.857335 
L 280.778995 6.857335 
L 280.778995 6.381624 
L 338.688 6.381624 
L 338.688 6.381624 
" style="fill:none;stroke:#000080;stroke-linecap:square;stroke-width:1.5;"/>
   </g>
   <g id="line2d_31">
    <defs>
     <path d="M 0 6 
C 1.591219 6 3.117479 5.367802 4.242641 4.242641 
C 5.367802 3.117479 6 1.591219 6 0 
C 6 -1.591219 5.367802 -3.117479 4.242641 -4.242641 
C 3.117479 -5.367802 1.591219 -6 0 -6 
C -1.591219 -6 -3.117479 -5.367802 -4.242641 -4.242641 
C -5.367802 -3.117479 -6 -1.591219 -6 0 
C -6 1.591219 -5.367802 3.117479 -4.242641 4.242641 
C -3.117479 5.367802 -1.591219 6 0 6 
z
" id="m51419b69f1" style="stroke:#000080;stroke-width:1.5;"/>
    </defs>
    <g>
     <use style="fill-opacity:0;stroke:#000080;stroke-width:1.5;" x="193.114466" xlink:href="#m51419b69f1" y="253.275727"/>
     <use style="fill-opacity:0;stroke:#000080;stroke-width:1.5;" x="232.764178" xlink:href="#m51419b69f1" y="132.445087"/>
     <use style="fill-opacity:0;stroke:#000080;stroke-width:1.5;" x="272.764941" xlink:href="#m51419b69f1" y="10.187313"/>
     <use style="fill-opacity:0;stroke:#000080;stroke-width:1.5;" x="280.778995" xlink:href="#m51419b69f1" y="6.381624"/>
     <use style="fill-opacity:0;stroke:#000080;stroke-width:1.5;" x="338.688" xlink:href="#m51419b69f1" y="6.381624"/>
    </g>
   </g>
   <g id="line2d_32">
    <path style="fill:none;stroke:#000080;stroke-linecap:square;stroke-width:1.5;"/>
    <g/>
   </g>
   <g id="line2d_33">
    <path clip-path="url(#pa292ecd9e5)" d="M 205.827611 236.150124 
" style="fill:none;stroke:#000080;stroke-linecap:square;stroke-width:1.5;"/>
    <defs>
     <path d="M -12 12 
L 12 -12 
M -12 -12 
L 12 12 
" id="ma141bdd8a5" style="stroke:#000080;"/>
    </defs>
    <g clip-path="url(#pa292ecd9e5)">
     <use style="fill:#000080;stroke:#000080;" x="205.827611" xlink:href="#ma141bdd8a5" y="236.150124"/>
    </g>
   </g>
   <g id="line2d_34">
    <defs>
     <path d="M 0 1.5 
C 0.397805 1.5 0.77937 1.341951 1.06066 1.06066 
C 1.341951 0.77937 1.5 0.397805 1.5 0 
C 1.5 -0.397805 1.341951 -0.77937 1.06066 -1.06066 
C 0.77937 -1.341951 0.397805 -1.5 0 -1.5 
C -0.397805 -1.5 -0.77937 -1.341951 -1.06066 -1.06066 
C -1.341951 -0.77937 -1.5 -0.397805 -1.5 0 
C -1.5 0.397805 -1.341951 0.77937 -1.06066 1.06066 
C -0.77937 1.341951 -0.397805 1.5 0 1.5 
z
" id="m61860df267" style="stroke:#ff00ff;"/>
    </defs>
    <g>
     <use style="fill:#ff00ff;stroke:#ff00ff;" x="269.869769" xlink:href="#m61860df267" y="56.331298"/>
     <use style="fill:#ff00ff;stroke:#ff00ff;" x="269.869769" xlink:href="#m61860df267" y="56.331298"/>
    </g>
   </g>
   <g id="line2d_35">
    <path d="M 147.809113 298.944 
L 147.809113 298.468289 
L 157.2549 298.468289 
L 157.2549 297.992578 
L 162.619242 297.992578 
L 162.619242 297.516866 
L 165.200871 297.516866 
L 165.200871 297.041155 
L 177.809795 297.041155 
L 177.809795 296.565444 
L 185.562255 296.565444 
L 185.562255 296.089733 
L 186.610292 296.089733 
L 186.655109 295.138311 
L 186.727427 295.138311 
L 186.799447 293.235466 
L 186.85432 293.235466 
L 186.858534 290.85691 
L 187.003294 290.85691 
L 187.034606 288.478354 
L 187.252224 288.478354 
L 187.252224 286.575509 
L 187.375368 286.575509 
L 187.406019 284.196953 
L 187.582739 284.196953 
L 187.582739 283.245531 
L 188.386481 283.245531 
L 188.386481 282.294109 
L 188.629881 282.294109 
L 188.629881 280.391264 
L 192.365729 280.391264 
L 192.365729 279.915553 
L 194.14035 279.915553 
L 194.14035 279.439842 
L 194.423877 279.439842 
L 194.423877 278.96413 
L 197.261298 278.96413 
L 197.261298 278.488419 
L 199.72521 278.488419 
L 199.72521 278.012708 
L 203.895682 278.012708 
L 203.895682 277.536997 
L 204.652293 277.536997 
L 204.694768 276.585574 
L 205.200247 276.585574 
L 205.200247 276.109863 
L 205.319062 276.109863 
L 205.41964 268.022773 
L 205.434168 268.022773 
L 205.542748 256.605705 
L 205.564383 256.605705 
L 205.623382 251.848593 
L 205.859529 251.848593 
L 205.859529 249.945748 
L 206.120467 249.945748 
L 206.147672 248.518615 
L 206.261609 248.518615 
L 206.346576 247.567192 
L 206.558221 247.567192 
L 206.606491 246.140059 
L 206.687771 246.140059 
L 206.687771 245.664348 
L 207.090565 245.664348 
L 207.151868 244.712925 
L 207.282323 244.712925 
L 207.282323 244.237214 
L 207.60201 244.237214 
L 207.60201 243.761503 
L 207.915942 243.761503 
L 208.022681 239.955814 
L 208.034571 239.955814 
L 208.111965 235.674413 
L 208.15364 235.674413 
L 208.210705 230.44159 
L 208.36115 230.44159 
L 208.374038 229.014456 
L 208.473139 229.014456 
L 208.473139 228.063034 
L 208.70281 228.063034 
L 208.743099 227.111612 
L 209.039676 227.111612 
L 209.105687 226.160189 
L 209.973772 226.160189 
L 209.973772 225.684478 
L 210.724724 225.684478 
L 210.784666 224.733056 
L 210.94104 224.733056 
L 210.976481 217.121677 
L 211.058196 217.121677 
L 211.066083 212.840276 
L 211.174047 212.840276 
L 211.207454 209.986009 
L 213.92 209.986009 
L 213.95389 208.558876 
L 214.052068 208.558876 
L 214.118831 206.18032 
L 214.290969 206.18032 
L 214.39292 204.753186 
L 214.40725 204.753186 
L 214.489527 201.898919 
L 214.915438 201.898919 
L 214.999973 199.520363 
L 215.294518 199.520363 
L 215.319252 197.141807 
L 215.611333 197.141807 
L 215.629553 196.190385 
L 215.948342 196.190385 
L 215.948342 195.714674 
L 216.059641 195.714674 
L 216.156498 194.763251 
L 216.209815 194.763251 
L 216.25321 193.811829 
L 216.468582 193.811829 
L 216.57777 189.530428 
L 216.817948 189.530428 
L 216.817948 189.054717 
L 217.049269 189.054717 
L 217.049269 188.579006 
L 217.385474 188.579006 
L 217.479263 187.151872 
L 217.547915 187.151872 
L 217.633262 185.249028 
L 217.685133 185.249028 
L 217.685133 184.773317 
L 217.849808 184.773317 
L 217.898553 180.967627 
L 218.035519 180.967627 
L 218.035519 180.491916 
L 218.335396 180.491916 
L 218.336089 179.540494 
L 218.470361 179.540494 
L 218.470361 179.064782 
L 218.622365 179.064782 
L 218.622365 178.589071 
L 218.895296 178.589071 
L 218.958604 177.161938 
L 219.02035 177.161938 
L 219.02035 176.686227 
L 219.314054 176.686227 
L 219.334353 175.734804 
L 219.516321 175.734804 
L 219.621572 174.307671 
L 219.655658 174.307671 
L 219.710186 173.356248 
L 219.776033 173.356248 
L 219.810774 172.404826 
L 219.906353 172.404826 
L 220.002986 169.550559 
L 220.030991 169.550559 
L 220.030991 169.074848 
L 220.34631 169.074848 
L 220.448525 167.647714 
L 220.572104 167.647714 
L 220.6824 164.317736 
L 220.816666 164.317736 
L 220.867687 162.414891 
L 220.929313 162.414891 
L 220.971667 161.463469 
L 221.067033 161.463469 
L 221.100185 160.512046 
L 221.585442 160.512046 
L 221.585442 160.036335 
L 221.839547 160.036335 
L 221.923245 157.657779 
L 221.963817 157.657779 
L 222.038797 156.706357 
L 222.335535 156.706357 
L 222.430048 155.754935 
L 222.506601 155.754935 
L 222.61484 153.85209 
L 222.700033 153.85209 
L 222.701922 152.900667 
L 222.857956 152.900667 
L 222.857956 152.424956 
L 222.978918 152.424956 
L 223.039615 151.473534 
L 223.133293 151.473534 
L 223.133293 150.997823 
L 223.298832 150.997823 
L 223.298832 150.522112 
L 223.441366 150.522112 
L 223.441366 150.0464 
L 223.820665 150.0464 
L 223.902446 146.716422 
L 223.981589 146.716422 
L 224.029404 143.862155 
L 224.114941 143.862155 
L 224.215651 142.435021 
L 224.25592 142.435021 
L 224.259374 141.483599 
L 224.41583 141.483599 
L 224.463933 140.532177 
L 224.69141 140.532177 
L 224.69141 140.056466 
L 224.939464 140.056466 
L 224.979993 138.153621 
L 225.064066 138.153621 
L 225.106186 137.202199 
L 225.176317 137.202199 
L 225.192461 136.250776 
L 225.394977 136.250776 
L 225.399831 135.299354 
L 225.855337 135.299354 
L 225.946282 133.87222 
L 225.980739 133.87222 
L 226.064584 131.017953 
L 226.161749 131.017953 
L 226.168606 130.066531 
L 226.341119 130.066531 
L 226.341119 129.59082 
L 226.566279 129.59082 
L 226.657686 128.163686 
L 226.696561 128.163686 
L 226.75546 126.736553 
L 226.818209 126.736553 
L 226.818209 126.260841 
L 226.948744 126.260841 
L 226.948744 125.78513 
L 227.16123 125.78513 
L 227.264329 124.833708 
L 227.579405 124.833708 
L 227.579405 124.357997 
L 227.79124 124.357997 
L 227.888287 123.406574 
L 227.95109 123.406574 
L 228.023412 121.50373 
L 228.325573 121.50373 
L 228.325573 121.028018 
L 228.460273 121.028018 
L 228.569293 118.649462 
L 228.582777 118.649462 
L 228.582777 118.173751 
L 228.980437 118.173751 
L 229.07934 117.222329 
L 229.130541 117.222329 
L 229.130541 116.746618 
L 229.343076 116.746618 
L 229.351737 115.795195 
L 229.594163 115.795195 
L 229.612142 114.843773 
L 229.861917 114.843773 
L 229.861917 114.368062 
L 230.073022 114.368062 
L 230.073022 113.892351 
L 230.317723 113.892351 
L 230.419399 111.989506 
L 230.644272 111.989506 
L 230.644272 111.513795 
L 230.765657 111.513795 
L 230.765657 111.038084 
L 231.090338 111.038084 
L 231.123658 110.086661 
L 231.209496 110.086661 
L 231.209496 109.61095 
L 231.429867 109.61095 
L 231.540723 108.659528 
L 231.542023 108.659528 
L 231.542023 108.183816 
L 231.869923 108.183816 
L 231.886819 107.232394 
L 232.275482 107.232394 
L 232.30957 106.280972 
L 232.483634 106.280972 
L 232.590152 103.902416 
L 232.744776 103.902416 
L 232.784164 102.950993 
L 233.048182 102.950993 
L 233.076181 101.999571 
L 233.370706 101.999571 
L 233.430157 101.048149 
L 233.505529 101.048149 
L 233.505529 100.572438 
L 233.808796 100.572438 
L 233.915202 99.145304 
L 233.924701 99.145304 
L 234.009682 97.71817 
L 234.082736 97.71817 
L 234.106177 96.291037 
L 234.408227 96.291037 
L 234.408227 95.815326 
L 234.549108 95.815326 
L 234.607543 94.863903 
L 234.666325 94.863903 
L 234.745342 93.912481 
L 234.892524 93.912481 
L 234.971058 92.961059 
L 235.345452 92.961059 
L 235.45291 91.533925 
L 235.895492 91.533925 
L 235.910424 90.582503 
L 236.020375 90.582503 
L 236.020375 90.106792 
L 236.139877 90.106792 
L 236.214369 88.679658 
L 236.776871 88.679658 
L 236.776871 88.203947 
L 237.11904 88.203947 
L 237.11904 87.728236 
L 237.239358 87.728236 
L 237.264657 86.776813 
L 237.447909 86.776813 
L 237.514952 85.825391 
L 237.568977 85.825391 
L 237.568977 85.34968 
L 237.832769 85.34968 
L 237.874634 84.398257 
L 237.958853 84.398257 
L 238.04748 82.971124 
L 238.114603 82.971124 
L 238.114603 82.495413 
L 238.39349 82.495413 
L 238.39349 82.019702 
L 238.726958 82.019702 
L 238.726958 81.54399 
L 238.985696 81.54399 
L 239.084668 80.116857 
L 239.617456 80.116857 
L 239.68146 78.689723 
L 240.186889 78.689723 
L 240.186889 78.214012 
L 240.476175 78.214012 
L 240.476175 77.738301 
L 240.863208 77.738301 
L 240.941396 76.311167 
L 241.034893 76.311167 
L 241.037155 75.359745 
L 241.212091 75.359745 
L 241.258229 73.932611 
L 241.487746 73.932611 
L 241.592709 72.981189 
L 241.751874 72.981189 
L 241.751874 72.505478 
L 241.864437 72.505478 
L 241.864437 72.029767 
L 242.382949 72.029767 
L 242.462966 71.078344 
L 242.568369 71.078344 
L 242.568369 70.602633 
L 242.884623 70.602633 
L 242.884623 70.126922 
L 243.051379 70.126922 
L 243.051379 69.651211 
L 243.647714 69.651211 
L 243.647714 69.1755 
L 243.961579 69.1755 
L 244.031192 68.224077 
L 244.717345 68.224077 
L 244.717345 67.748366 
L 245.286139 67.748366 
L 245.286139 67.272655 
L 245.443471 67.272655 
L 245.443471 66.796944 
L 245.65931 66.796944 
L 245.65931 66.321233 
L 246.021759 66.321233 
L 246.051838 65.36981 
L 246.252773 65.36981 
L 246.315363 64.418388 
L 246.520945 64.418388 
L 246.520945 63.942677 
L 246.71188 63.942677 
L 246.786886 62.991254 
L 246.885855 62.991254 
L 246.885855 62.515543 
L 247.211887 62.515543 
L 247.211887 62.039832 
L 250.535369 62.039832 
L 250.535369 61.564121 
L 251.071723 61.564121 
L 251.071723 61.08841 
L 251.216675 61.08841 
L 251.216675 60.612698 
L 251.747171 60.612698 
L 251.747171 60.136987 
L 253.429885 60.136987 
L 253.429885 59.661276 
L 254.618409 59.661276 
L 254.618409 59.185565 
L 255.201869 59.185565 
L 255.201869 58.709854 
L 256.268605 58.709854 
L 256.268605 58.234142 
L 257.836929 58.234142 
L 257.836929 57.758431 
L 266.704754 57.758431 
L 266.704754 57.28272 
L 267.900467 57.28272 
L 267.900467 56.807009 
L 269.869769 56.807009 
L 269.869769 56.331298 
L 338.688 56.331298 
L 338.688 56.331298 
" style="fill:none;stroke:#ff00ff;stroke-linecap:square;stroke-width:1.5;"/>
   </g>
   <g id="line2d_36">
    <defs>
     <path d="M -0 8.485281 
L 5.091169 0 
L 0 -8.485281 
L -5.091169 -0 
z
" id="mcf931e4668" style="stroke:#ff00ff;stroke-linejoin:miter;stroke-width:1.5;"/>
    </defs>
    <g>
     <use style="fill-opacity:0;stroke:#ff00ff;stroke-linejoin:miter;stroke-width:1.5;" x="213.92" xlink:href="#mcf931e4668" y="209.034587"/>
     <use style="fill-opacity:0;stroke:#ff00ff;stroke-linejoin:miter;stroke-width:1.5;" x="235.45291" xlink:href="#mcf931e4668" y="92.009636"/>
     <use style="fill-opacity:0;stroke:#ff00ff;stroke-linejoin:miter;stroke-width:1.5;" x="269.869769" xlink:href="#mcf931e4668" y="56.331298"/>
     <use style="fill-opacity:0;stroke:#ff00ff;stroke-linejoin:miter;stroke-width:1.5;" x="269.869769" xlink:href="#mcf931e4668" y="56.331298"/>
     <use style="fill-opacity:0;stroke:#ff00ff;stroke-linejoin:miter;stroke-width:1.5;" x="338.688" xlink:href="#mcf931e4668" y="56.331298"/>
    </g>
   </g>
   <g id="line2d_37">
    <path style="fill:none;stroke:#ff00ff;stroke-linecap:square;stroke-width:1.5;"/>
    <g/>
   </g>
   <g id="line2d_38">
    <path clip-path="url(#pa292ecd9e5)" d="M 203.326574 278.012708 
" style="fill:none;stroke:#ff00ff;stroke-linecap:square;stroke-width:1.5;"/>
    <defs>
     <path d="M -12 12 
L 12 -12 
M -12 -12 
L 12 12 
" id="m2e3a596d2c" style="stroke:#ff00ff;"/>
    </defs>
    <g clip-path="url(#pa292ecd9e5)">
     <use style="fill:#ff00ff;stroke:#ff00ff;" x="203.326574" xlink:href="#m2e3a596d2c" y="278.012708"/>
    </g>
   </g>
   <g id="line2d_39">
    <path d="M 338.688 56.331298 
L 369.60768 293.092752 
" style="fill:none;stroke:#ff00ff;stroke-linecap:square;stroke-width:1.5;"/>
    <g>
     <use style="fill-opacity:0;stroke:#ff00ff;stroke-linejoin:miter;stroke-width:1.5;" x="338.688" xlink:href="#mcf931e4668" y="56.331298"/>
     <use style="fill-opacity:0;stroke:#ff00ff;stroke-linejoin:miter;stroke-width:1.5;" x="369.60768" xlink:href="#mcf931e4668" y="293.092752"/>
    </g>
   </g>
   <g id="line2d_40">
    <path d="M 338.688 6.381624 
L 369.60768 12.232871 
" style="fill:none;stroke:#000080;stroke-linecap:square;stroke-width:1.5;"/>
    <g>
     <use style="fill-opacity:0;stroke:#000080;stroke-width:1.5;" x="338.688" xlink:href="#m51419b69f1" y="6.381624"/>
     <use style="fill-opacity:0;stroke:#000080;stroke-width:1.5;" x="369.60768" xlink:href="#m51419b69f1" y="12.232871"/>
    </g>
   </g>
   <g id="line2d_41">
    <path d="M 338.688 298.944 
L 338.688 6.381624 
" style="fill:none;stroke:#000000;stroke-linecap:square;stroke-width:1.5;"/>
   </g>
   <g id="patch_3">
    <path d="M 57.6 298.944 
L 57.6 3.456 
" style="fill:none;stroke:#000000;stroke-linecap:square;stroke-linejoin:miter;stroke-width:0.8;"/>
   </g>
   <g id="patch_4">
    <path d="M 338.688 298.944 
L 338.688 3.456 
" style="fill:none;stroke:#000000;stroke-linecap:square;stroke-linejoin:miter;stroke-width:0.8;"/>
   </g>
   <g id="patch_5">
    <path d="M 57.6 298.944 
L 338.688 298.944 
" style="fill:none;stroke:#000000;stroke-linecap:square;stroke-linejoin:miter;stroke-width:0.8;"/>
   </g>
   <g id="patch_6">
    <path d="M 57.6 3.456 
L 338.688 3.456 
" style="fill:none;stroke:#000000;stroke-linecap:square;stroke-linejoin:miter;stroke-width:0.8;"/>
   </g>
   <g id="text_13">
    <!-- f50 -->
    <g transform="translate(375.22944 297.78369)scale(0.17 -0.17)">
     <defs>
      <path d="M 10.796875 72.90625 
L 49.515625 72.90625 
L 49.515625 64.59375 
L 19.828125 64.59375 
L 19.828125 46.734375 
Q 21.96875 47.46875 24.109375 47.828125 
Q 26.265625 48.1875 28.421875 48.1875 
Q 40.625 48.1875 47.75 41.5 
Q 54.890625 34.8125 54.890625 23.390625 
Q 54.890625 11.625 47.5625 5.09375 
Q 40.234375 -1.421875 26.90625 -1.421875 
Q 22.3125 -1.421875 17.546875 -0.640625 
Q 12.796875 0.140625 7.71875 1.703125 
L 7.71875 11.625 
Q 12.109375 9.234375 16.796875 8.0625 
Q 21.484375 6.890625 26.703125 6.890625 
Q 35.15625 6.890625 40.078125 11.328125 
Q 45.015625 15.765625 45.015625 23.390625 
Q 45.015625 31 40.078125 35.4375 
Q 35.15625 39.890625 26.703125 39.890625 
Q 22.75 39.890625 18.8125 39.015625 
Q 14.890625 38.140625 10.796875 36.28125 
z
" id="DejaVuSans-53"/>
     </defs>
     <use xlink:href="#DejaVuSans-102"/>
     <use x="35.205078" xlink:href="#DejaVuSans-53"/>
     <use x="98.828125" xlink:href="#DejaVuSans-48"/>
    </g>
   </g>
   <g id="text_14">
    <!-- f44 -->
    <g transform="translate(375.22944 16.923809)scale(0.17 -0.17)">
     <use xlink:href="#DejaVuSans-102"/>
     <use x="35.205078" xlink:href="#DejaVuSans-52"/>
     <use x="98.828125" xlink:href="#DejaVuSans-52"/>
    </g>
   </g>
   <g id="text_15">
    <!-- bbob-constrained -->
    <g transform="translate(60.41088 14.161286)scale(0.102 -0.102)">
     <defs>
      <path d="M 48.6875 27.296875 
Q 48.6875 37.203125 44.609375 42.84375 
Q 40.53125 48.484375 33.40625 48.484375 
Q 26.265625 48.484375 22.1875 42.84375 
Q 18.109375 37.203125 18.109375 27.296875 
Q 18.109375 17.390625 22.1875 11.75 
Q 26.265625 6.109375 33.40625 6.109375 
Q 40.53125 6.109375 44.609375 11.75 
Q 48.6875 17.390625 48.6875 27.296875 
z
M 18.109375 46.390625 
Q 20.953125 51.265625 25.265625 53.625 
Q 29.59375 56 35.59375 56 
Q 45.5625 56 51.78125 48.09375 
Q 58.015625 40.1875 58.015625 27.296875 
Q 58.015625 14.40625 51.78125 6.484375 
Q 45.5625 -1.421875 35.59375 -1.421875 
Q 29.59375 -1.421875 25.265625 0.953125 
Q 20.953125 3.328125 18.109375 8.203125 
L 18.109375 0 
L 9.078125 0 
L 9.078125 75.984375 
L 18.109375 75.984375 
z
" id="DejaVuSans-98"/>
     </defs>
     <use xlink:href="#DejaVuSans-98"/>
     <use x="63.476562" xlink:href="#DejaVuSans-98"/>
     <use x="126.953125" xlink:href="#DejaVuSans-111"/>
     <use x="188.134766" xlink:href="#DejaVuSans-98"/>
     <use x="251.611328" xlink:href="#DejaVuSans-45"/>
     <use x="287.695312" xlink:href="#DejaVuSans-99"/>
     <use x="342.675781" xlink:href="#DejaVuSans-111"/>
     <use x="403.857422" xlink:href="#DejaVuSans-110"/>
     <use x="467.236328" xlink:href="#DejaVuSans-115"/>
     <use x="519.335938" xlink:href="#DejaVuSans-116"/>
     <use x="558.544922" xlink:href="#DejaVuSans-114"/>
     <use x="599.658203" xlink:href="#DejaVuSans-97"/>
     <use x="660.9375" xlink:href="#DejaVuSans-105"/>
     <use x="688.720703" xlink:href="#DejaVuSans-110"/>
     <use x="752.099609" xlink:href="#DejaVuSans-101"/>
     <use x="813.623047" xlink:href="#DejaVuSans-100"/>
    </g>
    <!-- Multi-modal functions with0n+3constraints, 5-D -->
    <g transform="translate(60.41088 25.583055)scale(0.102 -0.102)">
     <defs>
      <path d="M 9.8125 72.90625 
L 24.515625 72.90625 
L 43.109375 23.296875 
L 61.8125 72.90625 
L 76.515625 72.90625 
L 76.515625 0 
L 66.890625 0 
L 66.890625 64.015625 
L 48.09375 14.015625 
L 38.1875 14.015625 
L 19.390625 64.015625 
L 19.390625 0 
L 9.8125 0 
z
" id="DejaVuSans-77"/>
      <path d="M 4.203125 54.6875 
L 13.1875 54.6875 
L 24.421875 12.015625 
L 35.59375 54.6875 
L 46.1875 54.6875 
L 57.421875 12.015625 
L 68.609375 54.6875 
L 77.59375 54.6875 
L 63.28125 0 
L 52.6875 0 
L 40.921875 44.828125 
L 29.109375 0 
L 18.5 0 
z
" id="DejaVuSans-119"/>
      <path d="M 54.890625 33.015625 
L 54.890625 0 
L 45.90625 0 
L 45.90625 32.71875 
Q 45.90625 40.484375 42.875 44.328125 
Q 39.84375 48.1875 33.796875 48.1875 
Q 26.515625 48.1875 22.3125 43.546875 
Q 18.109375 38.921875 18.109375 30.90625 
L 18.109375 0 
L 9.078125 0 
L 9.078125 75.984375 
L 18.109375 75.984375 
L 18.109375 46.1875 
Q 21.34375 51.125 25.703125 53.5625 
Q 30.078125 56 35.796875 56 
Q 45.21875 56 50.046875 50.171875 
Q 54.890625 44.34375 54.890625 33.015625 
z
" id="DejaVuSans-104"/>
      <path d="M 40.578125 39.3125 
Q 47.65625 37.796875 51.625 33 
Q 55.609375 28.21875 55.609375 21.1875 
Q 55.609375 10.40625 48.1875 4.484375 
Q 40.765625 -1.421875 27.09375 -1.421875 
Q 22.515625 -1.421875 17.65625 -0.515625 
Q 12.796875 0.390625 7.625 2.203125 
L 7.625 11.71875 
Q 11.71875 9.328125 16.59375 8.109375 
Q 21.484375 6.890625 26.8125 6.890625 
Q 36.078125 6.890625 40.9375 10.546875 
Q 45.796875 14.203125 45.796875 21.1875 
Q 45.796875 27.640625 41.28125 31.265625 
Q 36.765625 34.90625 28.71875 34.90625 
L 20.21875 34.90625 
L 20.21875 43.015625 
L 29.109375 43.015625 
Q 36.375 43.015625 40.234375 45.921875 
Q 44.09375 48.828125 44.09375 54.296875 
Q 44.09375 59.90625 40.109375 62.90625 
Q 36.140625 65.921875 28.71875 65.921875 
Q 24.65625 65.921875 20.015625 65.03125 
Q 15.375 64.15625 9.8125 62.3125 
L 9.8125 71.09375 
Q 15.4375 72.65625 20.34375 73.4375 
Q 25.25 74.21875 29.59375 74.21875 
Q 40.828125 74.21875 47.359375 69.109375 
Q 53.90625 64.015625 53.90625 55.328125 
Q 53.90625 49.265625 50.4375 45.09375 
Q 46.96875 40.921875 40.578125 39.3125 
z
" id="DejaVuSans-51"/>
      <path d="M 19.671875 64.796875 
L 19.671875 8.109375 
L 31.59375 8.109375 
Q 46.6875 8.109375 53.6875 14.9375 
Q 60.6875 21.78125 60.6875 36.53125 
Q 60.6875 51.171875 53.6875 57.984375 
Q 46.6875 64.796875 31.59375 64.796875 
z
M 9.8125 72.90625 
L 30.078125 72.90625 
Q 51.265625 72.90625 61.171875 64.09375 
Q 71.09375 55.28125 71.09375 36.53125 
Q 71.09375 17.671875 61.125 8.828125 
Q 51.171875 0 30.078125 0 
L 9.8125 0 
z
" id="DejaVuSans-68"/>
     </defs>
     <use xlink:href="#DejaVuSans-77"/>
     <use x="86.279297" xlink:href="#DejaVuSans-117"/>
     <use x="149.658203" xlink:href="#DejaVuSans-108"/>
     <use x="177.441406" xlink:href="#DejaVuSans-116"/>
     <use x="216.650391" xlink:href="#DejaVuSans-105"/>
     <use x="244.433594" xlink:href="#DejaVuSans-45"/>
     <use x="280.517578" xlink:href="#DejaVuSans-109"/>
     <use x="377.929688" xlink:href="#DejaVuSans-111"/>
     <use x="439.111328" xlink:href="#DejaVuSans-100"/>
     <use x="502.587891" xlink:href="#DejaVuSans-97"/>
     <use x="563.867188" xlink:href="#DejaVuSans-108"/>
     <use x="591.650391" xlink:href="#DejaVuSans-32"/>
     <use x="623.4375" xlink:href="#DejaVuSans-102"/>
     <use x="658.642578" xlink:href="#DejaVuSans-117"/>
     <use x="722.021484" xlink:href="#DejaVuSans-110"/>
     <use x="785.400391" xlink:href="#DejaVuSans-99"/>
     <use x="840.380859" xlink:href="#DejaVuSans-116"/>
     <use x="879.589844" xlink:href="#DejaVuSans-105"/>
     <use x="907.373047" xlink:href="#DejaVuSans-111"/>
     <use x="968.554688" xlink:href="#DejaVuSans-110"/>
     <use x="1031.933594" xlink:href="#DejaVuSans-115"/>
     <use x="1084.033203" xlink:href="#DejaVuSans-32"/>
     <use x="1115.820312" xlink:href="#DejaVuSans-119"/>
     <use x="1197.607422" xlink:href="#DejaVuSans-105"/>
     <use x="1225.390625" xlink:href="#DejaVuSans-116"/>
     <use x="1264.599609" xlink:href="#DejaVuSans-104"/>
     <use x="1327.978516" xlink:href="#DejaVuSans-48"/>
     <use x="1391.601562" xlink:href="#DejaVuSans-110"/>
     <use x="1454.980469" xlink:href="#DejaVuSans-43"/>
     <use x="1538.769531" xlink:href="#DejaVuSans-51"/>
     <use x="1602.392578" xlink:href="#DejaVuSans-99"/>
     <use x="1657.373047" xlink:href="#DejaVuSans-111"/>
     <use x="1718.554688" xlink:href="#DejaVuSans-110"/>
     <use x="1781.933594" xlink:href="#DejaVuSans-115"/>
     <use x="1834.033203" xlink:href="#DejaVuSans-116"/>
     <use x="1873.242188" xlink:href="#DejaVuSans-114"/>
     <use x="1914.355469" xlink:href="#DejaVuSans-97"/>
     <use x="1975.634766" xlink:href="#DejaVuSans-105"/>
     <use x="2003.417969" xlink:href="#DejaVuSans-110"/>
     <use x="2066.796875" xlink:href="#DejaVuSans-116"/>
     <use x="2106.005859" xlink:href="#DejaVuSans-115"/>
     <use x="2158.105469" xlink:href="#DejaVuSans-44"/>
     <use x="2189.892578" xlink:href="#DejaVuSans-32"/>
     <use x="2221.679688" xlink:href="#DejaVuSans-53"/>
     <use x="2285.302734" xlink:href="#DejaVuSans-45"/>
     <use x="2321.386719" xlink:href="#DejaVuSans-68"/>
    </g>
    <!-- 41 targets: 100..1e-06 -->
    <g transform="translate(60.41088 37.004824)scale(0.102 -0.102)">
     <defs>
      <path d="M 11.71875 12.40625 
L 22.015625 12.40625 
L 22.015625 0 
L 11.71875 0 
z
M 11.71875 51.703125 
L 22.015625 51.703125 
L 22.015625 39.3125 
L 11.71875 39.3125 
z
" id="DejaVuSans-58"/>
     </defs>
     <use xlink:href="#DejaVuSans-52"/>
     <use x="63.623047" xlink:href="#DejaVuSans-49"/>
     <use x="127.246094" xlink:href="#DejaVuSans-32"/>
     <use x="159.033203" xlink:href="#DejaVuSans-116"/>
     <use x="198.242188" xlink:href="#DejaVuSans-97"/>
     <use x="259.521484" xlink:href="#DejaVuSans-114"/>
     <use x="298.884766" xlink:href="#DejaVuSans-103"/>
     <use x="362.361328" xlink:href="#DejaVuSans-101"/>
     <use x="423.884766" xlink:href="#DejaVuSans-116"/>
     <use x="463.09375" xlink:href="#DejaVuSans-115"/>
     <use x="515.193359" xlink:href="#DejaVuSans-58"/>
     <use x="548.884766" xlink:href="#DejaVuSans-32"/>
     <use x="580.671875" xlink:href="#DejaVuSans-49"/>
     <use x="644.294922" xlink:href="#DejaVuSans-48"/>
     <use x="707.917969" xlink:href="#DejaVuSans-48"/>
     <use x="771.541016" xlink:href="#DejaVuSans-46"/>
     <use x="803.328125" xlink:href="#DejaVuSans-46"/>
     <use x="835.115234" xlink:href="#DejaVuSans-49"/>
     <use x="898.738281" xlink:href="#DejaVuSans-101"/>
     <use x="960.261719" xlink:href="#DejaVuSans-45"/>
     <use x="996.345703" xlink:href="#DejaVuSans-48"/>
     <use x="1059.96875" xlink:href="#DejaVuSans-54"/>
    </g>
    <!-- 15 instances -->
    <g transform="translate(60.41088 48.426593)scale(0.102 -0.102)">
     <use xlink:href="#DejaVuSans-49"/>
     <use x="63.623047" xlink:href="#DejaVuSans-53"/>
     <use x="127.246094" xlink:href="#DejaVuSans-32"/>
     <use x="159.033203" xlink:href="#DejaVuSans-105"/>
     <use x="186.816406" xlink:href="#DejaVuSans-110"/>
     <use x="250.195312" xlink:href="#DejaVuSans-115"/>
     <use x="302.294922" xlink:href="#DejaVuSans-116"/>
     <use x="341.503906" xlink:href="#DejaVuSans-97"/>
     <use x="402.783203" xlink:href="#DejaVuSans-110"/>
     <use x="466.162109" xlink:href="#DejaVuSans-99"/>
     <use x="521.142578" xlink:href="#DejaVuSans-101"/>
     <use x="582.666016" xlink:href="#DejaVuSans-115"/>
    </g>
   </g>
   <g id="text_16">
    <!-- v2.4.82 -->
    <g style="fill:#808080;" transform="translate(179.2815 293.909432)scale(0.1 -0.1)">
     <use xlink:href="#DejaVuSans-118"/>
     <use x="59.179688" xlink:href="#DejaVuSans-50"/>
     <use x="122.802734" xlink:href="#DejaVuSans-46"/>
     <use x="154.589844" xlink:href="#DejaVuSans-52"/>
     <use x="218.212891" xlink:href="#DejaVuSans-46"/>
     <use x="250" xlink:href="#DejaVuSans-56"/>
     <use x="313.623047" xlink:href="#DejaVuSans-50"/>
    </g>
   </g>
  </g>
 </g>
 <defs>
  <clipPath id="pa292ecd9e5">
   <rect height="295.488" width="281.088" x="57.6" y="3.456"/>
  </clipPath>
 </defs>
</svg>
