<?xml version="1.0" encoding="utf-8" standalone="no"?>
<!DOCTYPE svg PUBLIC "-//W3C//DTD SVG 1.1//EN"
  "http://www.w3.org/Graphics/SVG/1.1/DTD/svg11.dtd">
<!-- Created with matplotlib (https://matplotlib.org/) -->
<svg height="345.6pt" version="1.1" viewBox="0 0 460.8 345.6" width="460.8pt" xmlns="http://www.w3.org/2000/svg" xmlns:xlink="http://www.w3.org/1999/xlink">
 <metadata>
  <rdf:RDF xmlns:cc="http://creativecommons.org/ns#" xmlns:dc="http://purl.org/dc/elements/1.1/" xmlns:rdf="http://www.w3.org/1999/02/22-rdf-syntax-ns#">
   <cc:Work>
    <dc:type rdf:resource="http://purl.org/dc/dcmitype/StillImage"/>
    <dc:date>2022-01-14T09:44:14.518947</dc:date>
    <dc:format>image/svg+xml</dc:format>
    <dc:creator>
     <cc:Agent>
      <dc:title>Matplotlib v3.3.3, https://matplotlib.org/</dc:title>
     </cc:Agent>
    </dc:creator>
   </cc:Work>
  </rdf:RDF>
 </metadata>
 <defs>
  <style type="text/css">*{stroke-linecap:butt;stroke-linejoin:round;}</style>
 </defs>
 <g id="figure_1">
  <g id="patch_1">
   <path d="M 0 345.6 
L 460.8 345.6 
L 460.8 0 
L 0 0 
z
" style="fill:#ffffff;"/>
  </g>
  <g id="axes_1">
   <g id="patch_2">
    <path d="M 57.6 298.944 
L 338.688 298.944 
L 338.688 3.456 
L 57.6 3.456 
z
" style="fill:#ffffff;"/>
   </g>
   <g id="matplotlib.axis_1">
    <g id="xtick_1">
     <g id="line2d_1">
      <path clip-path="url(#p92f95a6566)" d="M 57.6 298.944 
L 57.6 3.456 
" style="fill:none;stroke:#b0b0b0;stroke-linecap:square;stroke-width:0.8;"/>
     </g>
     <g id="line2d_2">
      <defs>
       <path d="M 0 0 
L 0 3.5 
" id="m61663f9fb6" style="stroke:#000000;stroke-width:0.8;"/>
      </defs>
      <g>
       <use style="stroke:#000000;stroke-width:0.8;" x="57.6" xlink:href="#m61663f9fb6" y="298.944"/>
      </g>
     </g>
     <g id="text_1">
      <!-- 0 -->
      <g transform="translate(51.2375 321.140875)scale(0.2 -0.2)">
       <defs>
        <path d="M 31.78125 66.40625 
Q 24.171875 66.40625 20.328125 58.90625 
Q 16.5 51.421875 16.5 36.375 
Q 16.5 21.390625 20.328125 13.890625 
Q 24.171875 6.390625 31.78125 6.390625 
Q 39.453125 6.390625 43.28125 13.890625 
Q 47.125 21.390625 47.125 36.375 
Q 47.125 51.421875 43.28125 58.90625 
Q 39.453125 66.40625 31.78125 66.40625 
z
M 31.78125 74.21875 
Q 44.046875 74.21875 50.515625 64.515625 
Q 56.984375 54.828125 56.984375 36.375 
Q 56.984375 17.96875 50.515625 8.265625 
Q 44.046875 -1.421875 31.78125 -1.421875 
Q 19.53125 -1.421875 13.0625 8.265625 
Q 6.59375 17.96875 6.59375 36.375 
Q 6.59375 54.828125 13.0625 64.515625 
Q 19.53125 74.21875 31.78125 74.21875 
z
" id="DejaVuSans-48"/>
       </defs>
       <use xlink:href="#DejaVuSans-48"/>
      </g>
     </g>
    </g>
    <g id="xtick_2">
     <g id="line2d_3">
      <path clip-path="url(#p92f95a6566)" d="M 137.910857 298.944 
L 137.910857 3.456 
" style="fill:none;stroke:#b0b0b0;stroke-linecap:square;stroke-width:0.8;"/>
     </g>
     <g id="line2d_4">
      <g>
       <use style="stroke:#000000;stroke-width:0.8;" x="137.910857" xlink:href="#m61663f9fb6" y="298.944"/>
      </g>
     </g>
     <g id="text_2">
      <!-- 2 -->
      <g transform="translate(131.548357 321.140875)scale(0.2 -0.2)">
       <defs>
        <path d="M 19.1875 8.296875 
L 53.609375 8.296875 
L 53.609375 0 
L 7.328125 0 
L 7.328125 8.296875 
Q 12.9375 14.109375 22.625 23.890625 
Q 32.328125 33.6875 34.8125 36.53125 
Q 39.546875 41.84375 41.421875 45.53125 
Q 43.3125 49.21875 43.3125 52.78125 
Q 43.3125 58.59375 39.234375 62.25 
Q 35.15625 65.921875 28.609375 65.921875 
Q 23.96875 65.921875 18.8125 64.3125 
Q 13.671875 62.703125 7.8125 59.421875 
L 7.8125 69.390625 
Q 13.765625 71.78125 18.9375 73 
Q 24.125 74.21875 28.421875 74.21875 
Q 39.75 74.21875 46.484375 68.546875 
Q 53.21875 62.890625 53.21875 53.421875 
Q 53.21875 48.921875 51.53125 44.890625 
Q 49.859375 40.875 45.40625 35.40625 
Q 44.1875 33.984375 37.640625 27.21875 
Q 31.109375 20.453125 19.1875 8.296875 
z
" id="DejaVuSans-50"/>
       </defs>
       <use xlink:href="#DejaVuSans-50"/>
      </g>
     </g>
    </g>
    <g id="xtick_3">
     <g id="line2d_5">
      <path clip-path="url(#p92f95a6566)" d="M 218.221714 298.944 
L 218.221714 3.456 
" style="fill:none;stroke:#b0b0b0;stroke-linecap:square;stroke-width:0.8;"/>
     </g>
     <g id="line2d_6">
      <g>
       <use style="stroke:#000000;stroke-width:0.8;" x="218.221714" xlink:href="#m61663f9fb6" y="298.944"/>
      </g>
     </g>
     <g id="text_3">
      <!-- 4 -->
      <g transform="translate(211.859214 321.140875)scale(0.2 -0.2)">
       <defs>
        <path d="M 37.796875 64.3125 
L 12.890625 25.390625 
L 37.796875 25.390625 
z
M 35.203125 72.90625 
L 47.609375 72.90625 
L 47.609375 25.390625 
L 58.015625 25.390625 
L 58.015625 17.1875 
L 47.609375 17.1875 
L 47.609375 0 
L 37.796875 0 
L 37.796875 17.1875 
L 4.890625 17.1875 
L 4.890625 26.703125 
z
" id="DejaVuSans-52"/>
       </defs>
       <use xlink:href="#DejaVuSans-52"/>
      </g>
     </g>
    </g>
    <g id="xtick_4">
     <g id="line2d_7">
      <path clip-path="url(#p92f95a6566)" d="M 298.532571 298.944 
L 298.532571 3.456 
" style="fill:none;stroke:#b0b0b0;stroke-linecap:square;stroke-width:0.8;"/>
     </g>
     <g id="line2d_8">
      <g>
       <use style="stroke:#000000;stroke-width:0.8;" x="298.532571" xlink:href="#m61663f9fb6" y="298.944"/>
      </g>
     </g>
     <g id="text_4">
      <!-- 6 -->
      <g transform="translate(292.170071 321.140875)scale(0.2 -0.2)">
       <defs>
        <path d="M 33.015625 40.375 
Q 26.375 40.375 22.484375 35.828125 
Q 18.609375 31.296875 18.609375 23.390625 
Q 18.609375 15.53125 22.484375 10.953125 
Q 26.375 6.390625 33.015625 6.390625 
Q 39.65625 6.390625 43.53125 10.953125 
Q 47.40625 15.53125 47.40625 23.390625 
Q 47.40625 31.296875 43.53125 35.828125 
Q 39.65625 40.375 33.015625 40.375 
z
M 52.59375 71.296875 
L 52.59375 62.3125 
Q 48.875 64.0625 45.09375 64.984375 
Q 41.3125 65.921875 37.59375 65.921875 
Q 27.828125 65.921875 22.671875 59.328125 
Q 17.53125 52.734375 16.796875 39.40625 
Q 19.671875 43.65625 24.015625 45.921875 
Q 28.375 48.1875 33.59375 48.1875 
Q 44.578125 48.1875 50.953125 41.515625 
Q 57.328125 34.859375 57.328125 23.390625 
Q 57.328125 12.15625 50.6875 5.359375 
Q 44.046875 -1.421875 33.015625 -1.421875 
Q 20.359375 -1.421875 13.671875 8.265625 
Q 6.984375 17.96875 6.984375 36.375 
Q 6.984375 53.65625 15.1875 63.9375 
Q 23.390625 74.21875 37.203125 74.21875 
Q 40.921875 74.21875 44.703125 73.484375 
Q 48.484375 72.75 52.59375 71.296875 
z
" id="DejaVuSans-54"/>
       </defs>
       <use xlink:href="#DejaVuSans-54"/>
      </g>
     </g>
    </g>
    <g id="xtick_5">
     <g id="line2d_9">
      <path clip-path="url(#p92f95a6566)" d="M 97.755429 298.944 
L 97.755429 3.456 
" style="fill:none;stroke:#b0b0b0;stroke-linecap:square;stroke-width:0.8;"/>
     </g>
     <g id="line2d_10">
      <defs>
       <path d="M 0 0 
L 0 2 
" id="m63c122afab" style="stroke:#000000;stroke-width:0.6;"/>
      </defs>
      <g>
       <use style="stroke:#000000;stroke-width:0.6;" x="97.755429" xlink:href="#m63c122afab" y="298.944"/>
      </g>
     </g>
    </g>
    <g id="xtick_6">
     <g id="line2d_11">
      <path clip-path="url(#p92f95a6566)" d="M 178.066286 298.944 
L 178.066286 3.456 
" style="fill:none;stroke:#b0b0b0;stroke-linecap:square;stroke-width:0.8;"/>
     </g>
     <g id="line2d_12">
      <g>
       <use style="stroke:#000000;stroke-width:0.6;" x="178.066286" xlink:href="#m63c122afab" y="298.944"/>
      </g>
     </g>
    </g>
    <g id="xtick_7">
     <g id="line2d_13">
      <path clip-path="url(#p92f95a6566)" d="M 258.377143 298.944 
L 258.377143 3.456 
" style="fill:none;stroke:#b0b0b0;stroke-linecap:square;stroke-width:0.8;"/>
     </g>
     <g id="line2d_14">
      <g>
       <use style="stroke:#000000;stroke-width:0.6;" x="258.377143" xlink:href="#m63c122afab" y="298.944"/>
      </g>
     </g>
    </g>
    <g id="xtick_8">
     <g id="line2d_15">
      <path clip-path="url(#p92f95a6566)" d="M 338.688 298.944 
L 338.688 3.456 
" style="fill:none;stroke:#b0b0b0;stroke-linecap:square;stroke-width:0.8;"/>
     </g>
     <g id="line2d_16">
      <g>
       <use style="stroke:#000000;stroke-width:0.6;" x="338.688" xlink:href="#m63c122afab" y="298.944"/>
      </g>
     </g>
    </g>
    <g id="text_5">
     <!-- log10(# (f+g)-evals / dimension) -->
     <g transform="translate(58.145016 342.217594)scale(0.17 -0.17)">
      <defs>
       <path d="M 9.421875 75.984375 
L 18.40625 75.984375 
L 18.40625 0 
L 9.421875 0 
z
" id="DejaVuSans-108"/>
       <path d="M 30.609375 48.390625 
Q 23.390625 48.390625 19.1875 42.75 
Q 14.984375 37.109375 14.984375 27.296875 
Q 14.984375 17.484375 19.15625 11.84375 
Q 23.34375 6.203125 30.609375 6.203125 
Q 37.796875 6.203125 41.984375 11.859375 
Q 46.1875 17.53125 46.1875 27.296875 
Q 46.1875 37.015625 41.984375 42.703125 
Q 37.796875 48.390625 30.609375 48.390625 
z
M 30.609375 56 
Q 42.328125 56 49.015625 48.375 
Q 55.71875 40.765625 55.71875 27.296875 
Q 55.71875 13.875 49.015625 6.21875 
Q 42.328125 -1.421875 30.609375 -1.421875 
Q 18.84375 -1.421875 12.171875 6.21875 
Q 5.515625 13.875 5.515625 27.296875 
Q 5.515625 40.765625 12.171875 48.375 
Q 18.84375 56 30.609375 56 
z
" id="DejaVuSans-111"/>
       <path d="M 45.40625 27.984375 
Q 45.40625 37.75 41.375 43.109375 
Q 37.359375 48.484375 30.078125 48.484375 
Q 22.859375 48.484375 18.828125 43.109375 
Q 14.796875 37.75 14.796875 27.984375 
Q 14.796875 18.265625 18.828125 12.890625 
Q 22.859375 7.515625 30.078125 7.515625 
Q 37.359375 7.515625 41.375 12.890625 
Q 45.40625 18.265625 45.40625 27.984375 
z
M 54.390625 6.78125 
Q 54.390625 -7.171875 48.1875 -13.984375 
Q 42 -20.796875 29.203125 -20.796875 
Q 24.46875 -20.796875 20.265625 -20.09375 
Q 16.0625 -19.390625 12.109375 -17.921875 
L 12.109375 -9.1875 
Q 16.0625 -11.328125 19.921875 -12.34375 
Q 23.78125 -13.375 27.78125 -13.375 
Q 36.625 -13.375 41.015625 -8.765625 
Q 45.40625 -4.15625 45.40625 5.171875 
L 45.40625 9.625 
Q 42.625 4.78125 38.28125 2.390625 
Q 33.9375 0 27.875 0 
Q 17.828125 0 11.671875 7.65625 
Q 5.515625 15.328125 5.515625 27.984375 
Q 5.515625 40.671875 11.671875 48.328125 
Q 17.828125 56 27.875 56 
Q 33.9375 56 38.28125 53.609375 
Q 42.625 51.21875 45.40625 46.390625 
L 45.40625 54.6875 
L 54.390625 54.6875 
z
" id="DejaVuSans-103"/>
       <path d="M 12.40625 8.296875 
L 28.515625 8.296875 
L 28.515625 63.921875 
L 10.984375 60.40625 
L 10.984375 69.390625 
L 28.421875 72.90625 
L 38.28125 72.90625 
L 38.28125 8.296875 
L 54.390625 8.296875 
L 54.390625 0 
L 12.40625 0 
z
" id="DejaVuSans-49"/>
       <path d="M 31 75.875 
Q 24.46875 64.65625 21.28125 53.65625 
Q 18.109375 42.671875 18.109375 31.390625 
Q 18.109375 20.125 21.3125 9.0625 
Q 24.515625 -2 31 -13.1875 
L 23.1875 -13.1875 
Q 15.875 -1.703125 12.234375 9.375 
Q 8.59375 20.453125 8.59375 31.390625 
Q 8.59375 42.28125 12.203125 53.3125 
Q 15.828125 64.359375 23.1875 75.875 
z
" id="DejaVuSans-40"/>
       <path d="M 51.125 44 
L 36.921875 44 
L 32.8125 27.6875 
L 47.125 27.6875 
z
M 43.796875 71.78125 
L 38.71875 51.515625 
L 52.984375 51.515625 
L 58.109375 71.78125 
L 65.921875 71.78125 
L 60.890625 51.515625 
L 76.125 51.515625 
L 76.125 44 
L 58.984375 44 
L 54.984375 27.6875 
L 70.515625 27.6875 
L 70.515625 20.21875 
L 53.078125 20.21875 
L 48 0 
L 40.1875 0 
L 45.21875 20.21875 
L 30.90625 20.21875 
L 25.875 0 
L 18.015625 0 
L 23.09375 20.21875 
L 7.71875 20.21875 
L 7.71875 27.6875 
L 24.90625 27.6875 
L 29 44 
L 13.28125 44 
L 13.28125 51.515625 
L 30.90625 51.515625 
L 35.890625 71.78125 
z
" id="DejaVuSans-35"/>
       <path id="DejaVuSans-32"/>
       <path d="M 37.109375 75.984375 
L 37.109375 68.5 
L 28.515625 68.5 
Q 23.6875 68.5 21.796875 66.546875 
Q 19.921875 64.59375 19.921875 59.515625 
L 19.921875 54.6875 
L 34.71875 54.6875 
L 34.71875 47.703125 
L 19.921875 47.703125 
L 19.921875 0 
L 10.890625 0 
L 10.890625 47.703125 
L 2.296875 47.703125 
L 2.296875 54.6875 
L 10.890625 54.6875 
L 10.890625 58.5 
Q 10.890625 67.625 15.140625 71.796875 
Q 19.390625 75.984375 28.609375 75.984375 
z
" id="DejaVuSans-102"/>
       <path d="M 46 62.703125 
L 46 35.5 
L 73.1875 35.5 
L 73.1875 27.203125 
L 46 27.203125 
L 46 0 
L 37.796875 0 
L 37.796875 27.203125 
L 10.59375 27.203125 
L 10.59375 35.5 
L 37.796875 35.5 
L 37.796875 62.703125 
z
" id="DejaVuSans-43"/>
       <path d="M 8.015625 75.875 
L 15.828125 75.875 
Q 23.140625 64.359375 26.78125 53.3125 
Q 30.421875 42.28125 30.421875 31.390625 
Q 30.421875 20.453125 26.78125 9.375 
Q 23.140625 -1.703125 15.828125 -13.1875 
L 8.015625 -13.1875 
Q 14.5 -2 17.703125 9.0625 
Q 20.90625 20.125 20.90625 31.390625 
Q 20.90625 42.671875 17.703125 53.65625 
Q 14.5 64.65625 8.015625 75.875 
z
" id="DejaVuSans-41"/>
       <path d="M 4.890625 31.390625 
L 31.203125 31.390625 
L 31.203125 23.390625 
L 4.890625 23.390625 
z
" id="DejaVuSans-45"/>
       <path d="M 56.203125 29.59375 
L 56.203125 25.203125 
L 14.890625 25.203125 
Q 15.484375 15.921875 20.484375 11.0625 
Q 25.484375 6.203125 34.421875 6.203125 
Q 39.59375 6.203125 44.453125 7.46875 
Q 49.3125 8.734375 54.109375 11.28125 
L 54.109375 2.78125 
Q 49.265625 0.734375 44.1875 -0.34375 
Q 39.109375 -1.421875 33.890625 -1.421875 
Q 20.796875 -1.421875 13.15625 6.1875 
Q 5.515625 13.8125 5.515625 26.8125 
Q 5.515625 40.234375 12.765625 48.109375 
Q 20.015625 56 32.328125 56 
Q 43.359375 56 49.78125 48.890625 
Q 56.203125 41.796875 56.203125 29.59375 
z
M 47.21875 32.234375 
Q 47.125 39.59375 43.09375 43.984375 
Q 39.0625 48.390625 32.421875 48.390625 
Q 24.90625 48.390625 20.390625 44.140625 
Q 15.875 39.890625 15.1875 32.171875 
z
" id="DejaVuSans-101"/>
       <path d="M 2.984375 54.6875 
L 12.5 54.6875 
L 29.59375 8.796875 
L 46.6875 54.6875 
L 56.203125 54.6875 
L 35.6875 0 
L 23.484375 0 
z
" id="DejaVuSans-118"/>
       <path d="M 34.28125 27.484375 
Q 23.390625 27.484375 19.1875 25 
Q 14.984375 22.515625 14.984375 16.5 
Q 14.984375 11.71875 18.140625 8.90625 
Q 21.296875 6.109375 26.703125 6.109375 
Q 34.1875 6.109375 38.703125 11.40625 
Q 43.21875 16.703125 43.21875 25.484375 
L 43.21875 27.484375 
z
M 52.203125 31.203125 
L 52.203125 0 
L 43.21875 0 
L 43.21875 8.296875 
Q 40.140625 3.328125 35.546875 0.953125 
Q 30.953125 -1.421875 24.3125 -1.421875 
Q 15.921875 -1.421875 10.953125 3.296875 
Q 6 8.015625 6 15.921875 
Q 6 25.140625 12.171875 29.828125 
Q 18.359375 34.515625 30.609375 34.515625 
L 43.21875 34.515625 
L 43.21875 35.40625 
Q 43.21875 41.609375 39.140625 45 
Q 35.0625 48.390625 27.6875 48.390625 
Q 23 48.390625 18.546875 47.265625 
Q 14.109375 46.140625 10.015625 43.890625 
L 10.015625 52.203125 
Q 14.9375 54.109375 19.578125 55.046875 
Q 24.21875 56 28.609375 56 
Q 40.484375 56 46.34375 49.84375 
Q 52.203125 43.703125 52.203125 31.203125 
z
" id="DejaVuSans-97"/>
       <path d="M 44.28125 53.078125 
L 44.28125 44.578125 
Q 40.484375 46.53125 36.375 47.5 
Q 32.28125 48.484375 27.875 48.484375 
Q 21.1875 48.484375 17.84375 46.4375 
Q 14.5 44.390625 14.5 40.28125 
Q 14.5 37.15625 16.890625 35.375 
Q 19.28125 33.59375 26.515625 31.984375 
L 29.59375 31.296875 
Q 39.15625 29.25 43.1875 25.515625 
Q 47.21875 21.78125 47.21875 15.09375 
Q 47.21875 7.46875 41.1875 3.015625 
Q 35.15625 -1.421875 24.609375 -1.421875 
Q 20.21875 -1.421875 15.453125 -0.5625 
Q 10.6875 0.296875 5.421875 2 
L 5.421875 11.28125 
Q 10.40625 8.6875 15.234375 7.390625 
Q 20.0625 6.109375 24.8125 6.109375 
Q 31.15625 6.109375 34.5625 8.28125 
Q 37.984375 10.453125 37.984375 14.40625 
Q 37.984375 18.0625 35.515625 20.015625 
Q 33.0625 21.96875 24.703125 23.78125 
L 21.578125 24.515625 
Q 13.234375 26.265625 9.515625 29.90625 
Q 5.8125 33.546875 5.8125 39.890625 
Q 5.8125 47.609375 11.28125 51.796875 
Q 16.75 56 26.8125 56 
Q 31.78125 56 36.171875 55.265625 
Q 40.578125 54.546875 44.28125 53.078125 
z
" id="DejaVuSans-115"/>
       <path d="M 25.390625 72.90625 
L 33.6875 72.90625 
L 8.296875 -9.28125 
L 0 -9.28125 
z
" id="DejaVuSans-47"/>
       <path d="M 45.40625 46.390625 
L 45.40625 75.984375 
L 54.390625 75.984375 
L 54.390625 0 
L 45.40625 0 
L 45.40625 8.203125 
Q 42.578125 3.328125 38.25 0.953125 
Q 33.9375 -1.421875 27.875 -1.421875 
Q 17.96875 -1.421875 11.734375 6.484375 
Q 5.515625 14.40625 5.515625 27.296875 
Q 5.515625 40.1875 11.734375 48.09375 
Q 17.96875 56 27.875 56 
Q 33.9375 56 38.25 53.625 
Q 42.578125 51.265625 45.40625 46.390625 
z
M 14.796875 27.296875 
Q 14.796875 17.390625 18.875 11.75 
Q 22.953125 6.109375 30.078125 6.109375 
Q 37.203125 6.109375 41.296875 11.75 
Q 45.40625 17.390625 45.40625 27.296875 
Q 45.40625 37.203125 41.296875 42.84375 
Q 37.203125 48.484375 30.078125 48.484375 
Q 22.953125 48.484375 18.875 42.84375 
Q 14.796875 37.203125 14.796875 27.296875 
z
" id="DejaVuSans-100"/>
       <path d="M 9.421875 54.6875 
L 18.40625 54.6875 
L 18.40625 0 
L 9.421875 0 
z
M 9.421875 75.984375 
L 18.40625 75.984375 
L 18.40625 64.59375 
L 9.421875 64.59375 
z
" id="DejaVuSans-105"/>
       <path d="M 52 44.1875 
Q 55.375 50.25 60.0625 53.125 
Q 64.75 56 71.09375 56 
Q 79.640625 56 84.28125 50.015625 
Q 88.921875 44.046875 88.921875 33.015625 
L 88.921875 0 
L 79.890625 0 
L 79.890625 32.71875 
Q 79.890625 40.578125 77.09375 44.375 
Q 74.3125 48.1875 68.609375 48.1875 
Q 61.625 48.1875 57.5625 43.546875 
Q 53.515625 38.921875 53.515625 30.90625 
L 53.515625 0 
L 44.484375 0 
L 44.484375 32.71875 
Q 44.484375 40.625 41.703125 44.40625 
Q 38.921875 48.1875 33.109375 48.1875 
Q 26.21875 48.1875 22.15625 43.53125 
Q 18.109375 38.875 18.109375 30.90625 
L 18.109375 0 
L 9.078125 0 
L 9.078125 54.6875 
L 18.109375 54.6875 
L 18.109375 46.1875 
Q 21.1875 51.21875 25.484375 53.609375 
Q 29.78125 56 35.6875 56 
Q 41.65625 56 45.828125 52.96875 
Q 50 49.953125 52 44.1875 
z
" id="DejaVuSans-109"/>
       <path d="M 54.890625 33.015625 
L 54.890625 0 
L 45.90625 0 
L 45.90625 32.71875 
Q 45.90625 40.484375 42.875 44.328125 
Q 39.84375 48.1875 33.796875 48.1875 
Q 26.515625 48.1875 22.3125 43.546875 
Q 18.109375 38.921875 18.109375 30.90625 
L 18.109375 0 
L 9.078125 0 
L 9.078125 54.6875 
L 18.109375 54.6875 
L 18.109375 46.1875 
Q 21.34375 51.125 25.703125 53.5625 
Q 30.078125 56 35.796875 56 
Q 45.21875 56 50.046875 50.171875 
Q 54.890625 44.34375 54.890625 33.015625 
z
" id="DejaVuSans-110"/>
      </defs>
      <use xlink:href="#DejaVuSans-108"/>
      <use x="27.783203" xlink:href="#DejaVuSans-111"/>
      <use x="88.964844" xlink:href="#DejaVuSans-103"/>
      <use x="152.441406" xlink:href="#DejaVuSans-49"/>
      <use x="216.064453" xlink:href="#DejaVuSans-48"/>
      <use x="279.6875" xlink:href="#DejaVuSans-40"/>
      <use x="318.701172" xlink:href="#DejaVuSans-35"/>
      <use x="402.490234" xlink:href="#DejaVuSans-32"/>
      <use x="434.277344" xlink:href="#DejaVuSans-40"/>
      <use x="473.291016" xlink:href="#DejaVuSans-102"/>
      <use x="508.496094" xlink:href="#DejaVuSans-43"/>
      <use x="592.285156" xlink:href="#DejaVuSans-103"/>
      <use x="655.761719" xlink:href="#DejaVuSans-41"/>
      <use x="694.775391" xlink:href="#DejaVuSans-45"/>
      <use x="730.859375" xlink:href="#DejaVuSans-101"/>
      <use x="792.382812" xlink:href="#DejaVuSans-118"/>
      <use x="851.5625" xlink:href="#DejaVuSans-97"/>
      <use x="912.841797" xlink:href="#DejaVuSans-108"/>
      <use x="940.625" xlink:href="#DejaVuSans-115"/>
      <use x="992.724609" xlink:href="#DejaVuSans-32"/>
      <use x="1024.511719" xlink:href="#DejaVuSans-47"/>
      <use x="1058.203125" xlink:href="#DejaVuSans-32"/>
      <use x="1089.990234" xlink:href="#DejaVuSans-100"/>
      <use x="1153.466797" xlink:href="#DejaVuSans-105"/>
      <use x="1181.25" xlink:href="#DejaVuSans-109"/>
      <use x="1278.662109" xlink:href="#DejaVuSans-101"/>
      <use x="1340.185547" xlink:href="#DejaVuSans-110"/>
      <use x="1403.564453" xlink:href="#DejaVuSans-115"/>
      <use x="1455.664062" xlink:href="#DejaVuSans-105"/>
      <use x="1483.447266" xlink:href="#DejaVuSans-111"/>
      <use x="1544.628906" xlink:href="#DejaVuSans-110"/>
      <use x="1608.007812" xlink:href="#DejaVuSans-41"/>
     </g>
    </g>
   </g>
   <g id="matplotlib.axis_2">
    <g id="ytick_1">
     <g id="line2d_17">
      <path clip-path="url(#p92f95a6566)" d="M 57.6 298.944 
L 338.688 298.944 
" style="fill:none;stroke:#b0b0b0;stroke-linecap:square;stroke-width:0.8;"/>
     </g>
     <g id="line2d_18">
      <defs>
       <path d="M 0 0 
L -3.5 0 
" id="m0d263633fb" style="stroke:#000000;stroke-width:0.8;"/>
      </defs>
      <g>
       <use style="stroke:#000000;stroke-width:0.8;" x="57.6" xlink:href="#m0d263633fb" y="298.944"/>
      </g>
     </g>
     <g id="text_6">
      <!-- 0.0 -->
      <g transform="translate(25.155 305.02275)scale(0.16 -0.16)">
       <defs>
        <path d="M 10.6875 12.40625 
L 21 12.40625 
L 21 0 
L 10.6875 0 
z
" id="DejaVuSans-46"/>
       </defs>
       <use xlink:href="#DejaVuSans-48"/>
       <use x="63.623047" xlink:href="#DejaVuSans-46"/>
       <use x="95.410156" xlink:href="#DejaVuSans-48"/>
      </g>
     </g>
    </g>
    <g id="ytick_2">
     <g id="line2d_19">
      <path clip-path="url(#p92f95a6566)" d="M 57.6 240.431525 
L 338.688 240.431525 
" style="fill:none;stroke:#b0b0b0;stroke-linecap:square;stroke-width:0.8;"/>
     </g>
     <g id="line2d_20">
      <g>
       <use style="stroke:#000000;stroke-width:0.8;" x="57.6" xlink:href="#m0d263633fb" y="240.431525"/>
      </g>
     </g>
     <g id="text_7">
      <!-- 0.2 -->
      <g transform="translate(25.155 246.510275)scale(0.16 -0.16)">
       <use xlink:href="#DejaVuSans-48"/>
       <use x="63.623047" xlink:href="#DejaVuSans-46"/>
       <use x="95.410156" xlink:href="#DejaVuSans-50"/>
      </g>
     </g>
    </g>
    <g id="ytick_3">
     <g id="line2d_21">
      <path clip-path="url(#p92f95a6566)" d="M 57.6 181.91905 
L 338.688 181.91905 
" style="fill:none;stroke:#b0b0b0;stroke-linecap:square;stroke-width:0.8;"/>
     </g>
     <g id="line2d_22">
      <g>
       <use style="stroke:#000000;stroke-width:0.8;" x="57.6" xlink:href="#m0d263633fb" y="181.91905"/>
      </g>
     </g>
     <g id="text_8">
      <!-- 0.4 -->
      <g transform="translate(25.155 187.9978)scale(0.16 -0.16)">
       <use xlink:href="#DejaVuSans-48"/>
       <use x="63.623047" xlink:href="#DejaVuSans-46"/>
       <use x="95.410156" xlink:href="#DejaVuSans-52"/>
      </g>
     </g>
    </g>
    <g id="ytick_4">
     <g id="line2d_23">
      <path clip-path="url(#p92f95a6566)" d="M 57.6 123.406574 
L 338.688 123.406574 
" style="fill:none;stroke:#b0b0b0;stroke-linecap:square;stroke-width:0.8;"/>
     </g>
     <g id="line2d_24">
      <g>
       <use style="stroke:#000000;stroke-width:0.8;" x="57.6" xlink:href="#m0d263633fb" y="123.406574"/>
      </g>
     </g>
     <g id="text_9">
      <!-- 0.6 -->
      <g transform="translate(25.155 129.485324)scale(0.16 -0.16)">
       <use xlink:href="#DejaVuSans-48"/>
       <use x="63.623047" xlink:href="#DejaVuSans-46"/>
       <use x="95.410156" xlink:href="#DejaVuSans-54"/>
      </g>
     </g>
    </g>
    <g id="ytick_5">
     <g id="line2d_25">
      <path clip-path="url(#p92f95a6566)" d="M 57.6 64.894099 
L 338.688 64.894099 
" style="fill:none;stroke:#b0b0b0;stroke-linecap:square;stroke-width:0.8;"/>
     </g>
     <g id="line2d_26">
      <g>
       <use style="stroke:#000000;stroke-width:0.8;" x="57.6" xlink:href="#m0d263633fb" y="64.894099"/>
      </g>
     </g>
     <g id="text_10">
      <!-- 0.8 -->
      <g transform="translate(25.155 70.972849)scale(0.16 -0.16)">
       <defs>
        <path d="M 31.78125 34.625 
Q 24.75 34.625 20.71875 30.859375 
Q 16.703125 27.09375 16.703125 20.515625 
Q 16.703125 13.921875 20.71875 10.15625 
Q 24.75 6.390625 31.78125 6.390625 
Q 38.8125 6.390625 42.859375 10.171875 
Q 46.921875 13.96875 46.921875 20.515625 
Q 46.921875 27.09375 42.890625 30.859375 
Q 38.875 34.625 31.78125 34.625 
z
M 21.921875 38.8125 
Q 15.578125 40.375 12.03125 44.71875 
Q 8.5 49.078125 8.5 55.328125 
Q 8.5 64.0625 14.71875 69.140625 
Q 20.953125 74.21875 31.78125 74.21875 
Q 42.671875 74.21875 48.875 69.140625 
Q 55.078125 64.0625 55.078125 55.328125 
Q 55.078125 49.078125 51.53125 44.71875 
Q 48 40.375 41.703125 38.8125 
Q 48.828125 37.15625 52.796875 32.3125 
Q 56.78125 27.484375 56.78125 20.515625 
Q 56.78125 9.90625 50.3125 4.234375 
Q 43.84375 -1.421875 31.78125 -1.421875 
Q 19.734375 -1.421875 13.25 4.234375 
Q 6.78125 9.90625 6.78125 20.515625 
Q 6.78125 27.484375 10.78125 32.3125 
Q 14.796875 37.15625 21.921875 38.8125 
z
M 18.3125 54.390625 
Q 18.3125 48.734375 21.84375 45.5625 
Q 25.390625 42.390625 31.78125 42.390625 
Q 38.140625 42.390625 41.71875 45.5625 
Q 45.3125 48.734375 45.3125 54.390625 
Q 45.3125 60.0625 41.71875 63.234375 
Q 38.140625 66.40625 31.78125 66.40625 
Q 25.390625 66.40625 21.84375 63.234375 
Q 18.3125 60.0625 18.3125 54.390625 
z
" id="DejaVuSans-56"/>
       </defs>
       <use xlink:href="#DejaVuSans-48"/>
       <use x="63.623047" xlink:href="#DejaVuSans-46"/>
       <use x="95.410156" xlink:href="#DejaVuSans-56"/>
      </g>
     </g>
    </g>
    <g id="ytick_6">
     <g id="line2d_27">
      <path clip-path="url(#p92f95a6566)" d="M 57.6 6.381624 
L 338.688 6.381624 
" style="fill:none;stroke:#b0b0b0;stroke-linecap:square;stroke-width:0.8;"/>
     </g>
     <g id="line2d_28">
      <g>
       <use style="stroke:#000000;stroke-width:0.8;" x="57.6" xlink:href="#m0d263633fb" y="6.381624"/>
      </g>
     </g>
     <g id="text_11">
      <!-- 1.0 -->
      <g transform="translate(25.155 12.460374)scale(0.16 -0.16)">
       <use xlink:href="#DejaVuSans-49"/>
       <use x="63.623047" xlink:href="#DejaVuSans-46"/>
       <use x="95.410156" xlink:href="#DejaVuSans-48"/>
      </g>
     </g>
    </g>
    <g id="text_12">
     <!-- Fraction of function,target pairs -->
     <g transform="translate(17.619531 285.585)rotate(-90)scale(0.17 -0.17)">
      <defs>
       <path d="M 9.8125 72.90625 
L 51.703125 72.90625 
L 51.703125 64.59375 
L 19.671875 64.59375 
L 19.671875 43.109375 
L 48.578125 43.109375 
L 48.578125 34.8125 
L 19.671875 34.8125 
L 19.671875 0 
L 9.8125 0 
z
" id="DejaVuSans-70"/>
       <path d="M 41.109375 46.296875 
Q 39.59375 47.171875 37.8125 47.578125 
Q 36.03125 48 33.890625 48 
Q 26.265625 48 22.1875 43.046875 
Q 18.109375 38.09375 18.109375 28.8125 
L 18.109375 0 
L 9.078125 0 
L 9.078125 54.6875 
L 18.109375 54.6875 
L 18.109375 46.1875 
Q 20.953125 51.171875 25.484375 53.578125 
Q 30.03125 56 36.53125 56 
Q 37.453125 56 38.578125 55.875 
Q 39.703125 55.765625 41.0625 55.515625 
z
" id="DejaVuSans-114"/>
       <path d="M 48.78125 52.59375 
L 48.78125 44.1875 
Q 44.96875 46.296875 41.140625 47.34375 
Q 37.3125 48.390625 33.40625 48.390625 
Q 24.65625 48.390625 19.8125 42.84375 
Q 14.984375 37.3125 14.984375 27.296875 
Q 14.984375 17.28125 19.8125 11.734375 
Q 24.65625 6.203125 33.40625 6.203125 
Q 37.3125 6.203125 41.140625 7.25 
Q 44.96875 8.296875 48.78125 10.40625 
L 48.78125 2.09375 
Q 45.015625 0.34375 40.984375 -0.53125 
Q 36.96875 -1.421875 32.421875 -1.421875 
Q 20.0625 -1.421875 12.78125 6.34375 
Q 5.515625 14.109375 5.515625 27.296875 
Q 5.515625 40.671875 12.859375 48.328125 
Q 20.21875 56 33.015625 56 
Q 37.15625 56 41.109375 55.140625 
Q 45.0625 54.296875 48.78125 52.59375 
z
" id="DejaVuSans-99"/>
       <path d="M 18.3125 70.21875 
L 18.3125 54.6875 
L 36.8125 54.6875 
L 36.8125 47.703125 
L 18.3125 47.703125 
L 18.3125 18.015625 
Q 18.3125 11.328125 20.140625 9.421875 
Q 21.96875 7.515625 27.59375 7.515625 
L 36.8125 7.515625 
L 36.8125 0 
L 27.59375 0 
Q 17.1875 0 13.234375 3.875 
Q 9.28125 7.765625 9.28125 18.015625 
L 9.28125 47.703125 
L 2.6875 47.703125 
L 2.6875 54.6875 
L 9.28125 54.6875 
L 9.28125 70.21875 
z
" id="DejaVuSans-116"/>
       <path d="M 8.5 21.578125 
L 8.5 54.6875 
L 17.484375 54.6875 
L 17.484375 21.921875 
Q 17.484375 14.15625 20.5 10.265625 
Q 23.53125 6.390625 29.59375 6.390625 
Q 36.859375 6.390625 41.078125 11.03125 
Q 45.3125 15.671875 45.3125 23.6875 
L 45.3125 54.6875 
L 54.296875 54.6875 
L 54.296875 0 
L 45.3125 0 
L 45.3125 8.40625 
Q 42.046875 3.421875 37.71875 1 
Q 33.40625 -1.421875 27.6875 -1.421875 
Q 18.265625 -1.421875 13.375 4.4375 
Q 8.5 10.296875 8.5 21.578125 
z
M 31.109375 56 
z
" id="DejaVuSans-117"/>
       <path d="M 11.71875 12.40625 
L 22.015625 12.40625 
L 22.015625 4 
L 14.015625 -11.625 
L 7.71875 -11.625 
L 11.71875 4 
z
" id="DejaVuSans-44"/>
       <path d="M 18.109375 8.203125 
L 18.109375 -20.796875 
L 9.078125 -20.796875 
L 9.078125 54.6875 
L 18.109375 54.6875 
L 18.109375 46.390625 
Q 20.953125 51.265625 25.265625 53.625 
Q 29.59375 56 35.59375 56 
Q 45.5625 56 51.78125 48.09375 
Q 58.015625 40.1875 58.015625 27.296875 
Q 58.015625 14.40625 51.78125 6.484375 
Q 45.5625 -1.421875 35.59375 -1.421875 
Q 29.59375 -1.421875 25.265625 0.953125 
Q 20.953125 3.328125 18.109375 8.203125 
z
M 48.6875 27.296875 
Q 48.6875 37.203125 44.609375 42.84375 
Q 40.53125 48.484375 33.40625 48.484375 
Q 26.265625 48.484375 22.1875 42.84375 
Q 18.109375 37.203125 18.109375 27.296875 
Q 18.109375 17.390625 22.1875 11.75 
Q 26.265625 6.109375 33.40625 6.109375 
Q 40.53125 6.109375 44.609375 11.75 
Q 48.6875 17.390625 48.6875 27.296875 
z
" id="DejaVuSans-112"/>
      </defs>
      <use xlink:href="#DejaVuSans-70"/>
      <use x="50.269531" xlink:href="#DejaVuSans-114"/>
      <use x="91.382812" xlink:href="#DejaVuSans-97"/>
      <use x="152.662109" xlink:href="#DejaVuSans-99"/>
      <use x="207.642578" xlink:href="#DejaVuSans-116"/>
      <use x="246.851562" xlink:href="#DejaVuSans-105"/>
      <use x="274.634766" xlink:href="#DejaVuSans-111"/>
      <use x="335.816406" xlink:href="#DejaVuSans-110"/>
      <use x="399.195312" xlink:href="#DejaVuSans-32"/>
      <use x="430.982422" xlink:href="#DejaVuSans-111"/>
      <use x="492.164062" xlink:href="#DejaVuSans-102"/>
      <use x="527.369141" xlink:href="#DejaVuSans-32"/>
      <use x="559.15625" xlink:href="#DejaVuSans-102"/>
      <use x="594.361328" xlink:href="#DejaVuSans-117"/>
      <use x="657.740234" xlink:href="#DejaVuSans-110"/>
      <use x="721.119141" xlink:href="#DejaVuSans-99"/>
      <use x="776.099609" xlink:href="#DejaVuSans-116"/>
      <use x="815.308594" xlink:href="#DejaVuSans-105"/>
      <use x="843.091797" xlink:href="#DejaVuSans-111"/>
      <use x="904.273438" xlink:href="#DejaVuSans-110"/>
      <use x="967.652344" xlink:href="#DejaVuSans-44"/>
      <use x="999.439453" xlink:href="#DejaVuSans-116"/>
      <use x="1038.648438" xlink:href="#DejaVuSans-97"/>
      <use x="1099.927734" xlink:href="#DejaVuSans-114"/>
      <use x="1139.291016" xlink:href="#DejaVuSans-103"/>
      <use x="1202.767578" xlink:href="#DejaVuSans-101"/>
      <use x="1264.291016" xlink:href="#DejaVuSans-116"/>
      <use x="1303.5" xlink:href="#DejaVuSans-32"/>
      <use x="1335.287109" xlink:href="#DejaVuSans-112"/>
      <use x="1398.763672" xlink:href="#DejaVuSans-97"/>
      <use x="1460.042969" xlink:href="#DejaVuSans-105"/>
      <use x="1487.826172" xlink:href="#DejaVuSans-114"/>
      <use x="1528.939453" xlink:href="#DejaVuSans-115"/>
     </g>
    </g>
   </g>
   <g id="line2d_29">
    <defs>
     <path d="M 0 1.5 
C 0.397805 1.5 0.77937 1.341951 1.06066 1.06066 
C 1.341951 0.77937 1.5 0.397805 1.5 0 
C 1.5 -0.397805 1.341951 -0.77937 1.06066 -1.06066 
C 0.77937 -1.341951 0.397805 -1.5 0 -1.5 
C -0.397805 -1.5 -0.77937 -1.341951 -1.06066 -1.06066 
C -1.341951 -0.77937 -1.5 -0.397805 -1.5 0 
C -1.5 0.397805 -1.341951 0.77937 -1.06066 1.06066 
C -0.77937 1.341951 -0.397805 1.5 0 1.5 
z
" id="m8aa17b8165" style="stroke:#000080;"/>
    </defs>
    <g>
     <use style="fill:#000080;stroke:#000080;" x="282.549523" xlink:href="#m8aa17b8165" y="177.637649"/>
     <use style="fill:#000080;stroke:#000080;" x="282.549523" xlink:href="#m8aa17b8165" y="177.637649"/>
    </g>
   </g>
   <g id="line2d_30">
    <path d="M 108.671345 298.944 
L 108.671345 297.992578 
L 110.569269 297.992578 
L 110.569269 297.041155 
L 110.818406 297.041155 
L 110.818406 296.565444 
L 115.397021 296.565444 
L 115.397021 296.089733 
L 115.897107 296.089733 
L 115.897107 295.614022 
L 118.417314 295.614022 
L 118.417314 295.138311 
L 119.726838 295.138311 
L 119.726838 294.186888 
L 120.069756 294.186888 
L 120.069756 293.711177 
L 120.382253 293.711177 
L 120.382253 292.759755 
L 120.712642 292.759755 
L 120.712642 292.284043 
L 121.332668 292.284043 
L 121.377731 290.381199 
L 121.734102 290.381199 
L 121.734102 289.905488 
L 122.489167 289.905488 
L 122.489167 289.429776 
L 123.293723 289.429776 
L 123.293723 288.954065 
L 123.613353 288.954065 
L 123.613353 288.478354 
L 123.927229 288.478354 
L 123.927229 287.05122 
L 124.178158 287.05122 
L 124.254646 284.672665 
L 124.482119 284.672665 
L 124.482119 284.196953 
L 124.594752 284.196953 
L 124.594752 283.721242 
L 124.743806 283.721242 
L 124.743806 282.294109 
L 124.909984 282.294109 
L 124.909984 281.818397 
L 125.309651 281.818397 
L 125.309651 281.342686 
L 125.927192 281.342686 
L 125.97912 279.915553 
L 126.304457 279.915553 
L 126.304457 279.439842 
L 126.490073 279.439842 
L 126.590491 278.012708 
L 126.657117 278.012708 
L 126.740043 276.585574 
L 127.469149 276.585574 
L 127.469149 276.109863 
L 127.799239 276.109863 
L 127.799239 274.207019 
L 129.262072 274.207019 
L 129.262072 272.779885 
L 129.433047 272.779885 
L 129.433047 272.304174 
L 129.728278 272.304174 
L 129.811719 271.352752 
L 130.69097 271.352752 
L 130.69097 269.449907 
L 130.835477 269.449907 
L 130.835477 267.071351 
L 131.133813 267.071351 
L 131.159516 265.644217 
L 131.249178 265.644217 
L 131.249178 265.168506 
L 131.665771 265.168506 
L 131.665771 264.692795 
L 131.99937 264.692795 
L 131.99937 263.265661 
L 132.181982 263.265661 
L 132.254495 262.314239 
L 132.338714 262.314239 
L 132.338714 261.362817 
L 132.742089 261.362817 
L 132.742089 260.887106 
L 133.409373 260.887106 
L 133.409373 260.411394 
L 133.733678 260.411394 
L 133.733678 258.984261 
L 134.225266 258.984261 
L 134.225266 258.50855 
L 134.343353 258.50855 
L 134.343353 258.032838 
L 134.932432 258.032838 
L 134.932432 257.557127 
L 135.621981 257.557127 
L 135.621981 257.081416 
L 136.58893 257.081416 
L 136.635898 255.654283 
L 138.00651 255.654283 
L 138.084384 254.70286 
L 138.611599 254.70286 
L 138.69516 253.751438 
L 138.728473 253.751438 
L 138.728473 253.275727 
L 139.477614 253.275727 
L 139.501509 252.324304 
L 139.832645 252.324304 
L 139.832645 251.848593 
L 140.272217 251.848593 
L 140.272217 250.42146 
L 140.46157 250.42146 
L 140.521732 248.994326 
L 140.856326 248.994326 
L 140.856326 248.518615 
L 141.177393 248.518615 
L 141.177393 248.042904 
L 143.008296 248.042904 
L 143.008296 247.567192 
L 143.42637 247.567192 
L 143.42637 247.091481 
L 144.55823 247.091481 
L 144.55823 246.140059 
L 144.958609 246.140059 
L 144.958609 245.664348 
L 146.00901 245.664348 
L 146.00901 243.285792 
L 146.564568 243.285792 
L 146.564568 242.810081 
L 146.723108 242.810081 
L 146.723108 242.334369 
L 146.937474 242.334369 
L 146.937474 240.907236 
L 147.459617 240.907236 
L 147.545141 239.480102 
L 147.946974 239.480102 
L 147.946974 239.004391 
L 148.887286 239.004391 
L 148.887286 238.52868 
L 149.218684 238.52868 
L 149.218684 238.052969 
L 149.490118 238.052969 
L 149.490118 237.577258 
L 149.664311 237.577258 
L 149.664311 237.101546 
L 149.946449 237.101546 
L 150.003205 235.674413 
L 150.527024 235.674413 
L 150.611414 234.722991 
L 150.994436 234.722991 
L 150.994436 233.771568 
L 151.264121 233.771568 
L 151.264121 233.295857 
L 151.497722 233.295857 
L 151.497722 232.820146 
L 151.810952 232.820146 
L 151.810952 232.344435 
L 152.021866 232.344435 
L 152.021866 231.868723 
L 152.141804 231.868723 
L 152.203386 230.917301 
L 152.5194 230.917301 
L 152.5194 230.44159 
L 160.015335 230.44159 
L 160.015335 229.965879 
L 160.461277 229.965879 
L 160.461277 229.490168 
L 160.905434 229.490168 
L 160.905434 229.014456 
L 161.694428 229.014456 
L 161.694428 228.538745 
L 166.873949 228.538745 
L 166.873949 228.063034 
L 167.280027 228.063034 
L 167.280027 227.587323 
L 168.22505 227.587323 
L 168.22505 227.111612 
L 168.356403 227.111612 
L 168.356403 226.635901 
L 169.753577 226.635901 
L 169.753577 226.160189 
L 170.510761 226.160189 
L 170.607318 225.208767 
L 175.615592 225.208767 
L 175.615592 224.733056 
L 176.057518 224.733056 
L 176.057518 224.257345 
L 176.36495 224.257345 
L 176.36495 223.781633 
L 176.859674 223.781633 
L 176.859674 223.305922 
L 178.927114 223.305922 
L 178.927114 221.878789 
L 180.934995 221.878789 
L 180.934995 221.403078 
L 182.333158 221.403078 
L 182.333158 220.927366 
L 182.734715 220.927366 
L 182.80795 219.975944 
L 183.547446 219.975944 
L 183.614816 219.024522 
L 184.026056 219.024522 
L 184.026056 218.54881 
L 188.610839 218.54881 
L 188.610839 218.073099 
L 189.31108 218.073099 
L 189.31108 217.597388 
L 189.684108 217.597388 
L 189.684108 217.121677 
L 190.601051 217.121677 
L 190.601051 216.170255 
L 192.511064 216.170255 
L 192.511064 215.694543 
L 192.779782 215.694543 
L 192.779782 215.218832 
L 194.351713 215.218832 
L 194.351713 214.743121 
L 194.638258 214.743121 
L 194.638258 214.26741 
L 198.871574 214.26741 
L 198.871574 213.791699 
L 199.017217 213.791699 
L 199.017217 213.315987 
L 200.075254 213.315987 
L 200.075254 212.840276 
L 200.229825 212.840276 
L 200.229825 212.364565 
L 201.440887 212.364565 
L 201.440887 211.888854 
L 202.146082 211.888854 
L 202.146082 211.413143 
L 202.454165 211.413143 
L 202.454165 210.937432 
L 202.924986 210.937432 
L 203.019062 209.986009 
L 204.891757 209.986009 
L 204.891757 209.510298 
L 205.52524 209.510298 
L 205.58797 208.083164 
L 205.660872 208.083164 
L 205.723118 207.131742 
L 206.479411 207.131742 
L 206.479411 206.656031 
L 207.126351 206.656031 
L 207.126351 206.18032 
L 207.906808 206.18032 
L 207.906808 205.704609 
L 208.546945 205.704609 
L 208.546945 205.228897 
L 209.08376 205.228897 
L 209.08376 204.753186 
L 209.366536 204.753186 
L 209.366536 204.277475 
L 211.224524 204.277475 
L 211.248732 203.326053 
L 212.96229 203.326053 
L 213.011616 202.37463 
L 213.085637 202.37463 
L 213.105291 201.423208 
L 213.453393 201.423208 
L 213.453393 200.947497 
L 213.92212 200.947497 
L 214.018811 199.996074 
L 215.425416 199.996074 
L 215.425416 199.520363 
L 215.998931 199.520363 
L 215.998931 199.044652 
L 216.551881 199.044652 
L 216.551881 198.568941 
L 216.702364 198.568941 
L 216.729361 197.617518 
L 217.281427 197.617518 
L 217.281427 197.141807 
L 217.84865 197.141807 
L 217.84865 196.666096 
L 220.756525 196.666096 
L 220.809526 195.714674 
L 221.78561 195.714674 
L 221.78561 195.238963 
L 222.051473 195.238963 
L 222.051473 194.763251 
L 223.651792 194.763251 
L 223.651792 194.28754 
L 224.497733 194.28754 
L 224.497733 193.811829 
L 225.11811 193.811829 
L 225.11811 193.336118 
L 227.276526 193.336118 
L 227.276526 192.860407 
L 229.607013 192.860407 
L 229.607013 192.384695 
L 232.015822 192.384695 
L 232.015822 191.908984 
L 232.64843 191.908984 
L 232.64843 191.433273 
L 233.153318 191.433273 
L 233.153318 190.957562 
L 234.676477 190.957562 
L 234.676477 190.481851 
L 234.966285 190.481851 
L 234.966285 190.00614 
L 235.423051 190.00614 
L 235.423051 189.530428 
L 236.201717 189.530428 
L 236.201717 189.054717 
L 236.369584 189.054717 
L 236.369584 188.579006 
L 236.7923 188.579006 
L 236.7923 188.103295 
L 239.970589 188.103295 
L 239.970589 187.627584 
L 242.538791 187.627584 
L 242.538791 187.151872 
L 243.676018 187.151872 
L 243.676018 186.676161 
L 244.889093 186.676161 
L 244.889093 186.20045 
L 248.550466 186.20045 
L 248.550466 185.724739 
L 249.260057 185.724739 
L 249.260057 185.249028 
L 251.188412 185.249028 
L 251.188412 184.773317 
L 252.903058 184.773317 
L 252.903058 184.297605 
L 253.110148 184.297605 
L 253.110148 183.821894 
L 253.661419 183.821894 
L 253.661419 183.346183 
L 255.405181 183.346183 
L 255.405181 182.870472 
L 256.771703 182.870472 
L 256.771703 182.394761 
L 258.384196 182.394761 
L 258.384196 181.91905 
L 259.092143 181.91905 
L 259.092143 181.443338 
L 260.996633 181.443338 
L 260.996633 180.967627 
L 264.334521 180.967627 
L 264.334521 180.491916 
L 264.556839 180.491916 
L 264.556839 180.016205 
L 264.704498 180.016205 
L 264.704498 179.540494 
L 269.609931 179.540494 
L 269.609931 179.064782 
L 278.222675 179.064782 
L 278.222675 178.589071 
L 280.721687 178.589071 
L 280.721687 178.11336 
L 282.549523 178.11336 
L 282.549523 177.637649 
L 338.688 177.637649 
L 338.688 177.637649 
" style="fill:none;stroke:#000080;stroke-linecap:square;stroke-width:1.5;"/>
   </g>
   <g id="line2d_31">
    <defs>
     <path d="M 0 6 
C 1.591219 6 3.117479 5.367802 4.242641 4.242641 
C 5.367802 3.117479 6 1.591219 6 0 
C 6 -1.591219 5.367802 -3.117479 4.242641 -4.242641 
C 3.117479 -5.367802 1.591219 -6 0 -6 
C -1.591219 -6 -3.117479 -5.367802 -4.242641 -4.242641 
C -5.367802 -3.117479 -6 -1.591219 -6 0 
C -6 1.591219 -5.367802 3.117479 -4.242641 4.242641 
C -3.117479 5.367802 -1.591219 6 0 6 
z
" id="m337d48b9b2" style="stroke:#000080;stroke-width:1.5;"/>
    </defs>
    <g>
     <use style="fill-opacity:0;stroke:#000080;stroke-width:1.5;" x="139.832645" xlink:href="#m337d48b9b2" y="251.848593"/>
     <use style="fill-opacity:0;stroke:#000080;stroke-width:1.5;" x="208.546945" xlink:href="#m337d48b9b2" y="205.704609"/>
     <use style="fill-opacity:0;stroke:#000080;stroke-width:1.5;" x="255.405181" xlink:href="#m337d48b9b2" y="182.870472"/>
     <use style="fill-opacity:0;stroke:#000080;stroke-width:1.5;" x="282.549523" xlink:href="#m337d48b9b2" y="177.637649"/>
     <use style="fill-opacity:0;stroke:#000080;stroke-width:1.5;" x="338.688" xlink:href="#m337d48b9b2" y="177.637649"/>
    </g>
   </g>
   <g id="line2d_32">
    <path style="fill:none;stroke:#000080;stroke-linecap:square;stroke-width:1.5;"/>
    <g/>
   </g>
   <g id="line2d_33">
    <path clip-path="url(#p92f95a6566)" d="M 207.935455 205.704609 
" style="fill:none;stroke:#000080;stroke-linecap:square;stroke-width:1.5;"/>
    <defs>
     <path d="M -12 12 
L 12 -12 
M -12 -12 
L 12 12 
" id="me457dbfbb9" style="stroke:#000080;"/>
    </defs>
    <g clip-path="url(#p92f95a6566)">
     <use style="fill:#000080;stroke:#000080;" x="207.935455" xlink:href="#me457dbfbb9" y="205.704609"/>
    </g>
   </g>
   <g id="line2d_34">
    <defs>
     <path d="M 0 1.5 
C 0.397805 1.5 0.77937 1.341951 1.06066 1.06066 
C 1.341951 0.77937 1.5 0.397805 1.5 0 
C 1.5 -0.397805 1.341951 -0.77937 1.06066 -1.06066 
C 0.77937 -1.341951 0.397805 -1.5 0 -1.5 
C -0.397805 -1.5 -0.77937 -1.341951 -1.06066 -1.06066 
C -1.341951 -0.77937 -1.5 -0.397805 -1.5 0 
C -1.5 0.397805 -1.341951 0.77937 -1.06066 1.06066 
C -0.77937 1.341951 -0.397805 1.5 0 1.5 
z
" id="mdd23202105" style="stroke:#ff00ff;"/>
    </defs>
    <g>
     <use style="fill:#ff00ff;stroke:#ff00ff;" x="281.157364" xlink:href="#mdd23202105" y="70.602633"/>
     <use style="fill:#ff00ff;stroke:#ff00ff;" x="281.157364" xlink:href="#mdd23202105" y="70.602633"/>
    </g>
   </g>
   <g id="line2d_35">
    <path d="M 83.830028 298.944 
L 83.830028 288.954065 
L 90.640756 288.954065 
L 90.640756 269.925618 
L 95.526106 269.925618 
L 95.526106 243.761503 
L 99.338119 243.761503 
L 99.338119 220.927366 
L 99.496659 220.927366 
L 99.496659 219.024522 
L 99.963811 219.024522 
L 99.963811 214.743121 
L 102.464508 214.743121 
L 102.464508 196.666096 
L 102.728744 196.666096 
L 102.728744 188.103295 
L 102.989037 188.103295 
L 102.989037 184.297605 
L 103.245502 184.297605 
L 103.245502 183.821894 
L 105.114708 183.821894 
L 105.114708 174.307671 
L 105.454445 174.307671 
L 105.454445 172.880537 
L 105.566235 172.880537 
L 105.566235 169.550559 
L 105.787689 169.550559 
L 105.787689 168.599136 
L 107.414787 168.599136 
L 107.414787 168.123425 
L 107.614095 168.123425 
L 107.614095 166.220581 
L 107.860069 166.220581 
L 107.860069 165.744869 
L 109.535528 165.744869 
L 109.624052 161.463469 
L 109.71213 161.463469 
L 109.71213 159.560624 
L 109.886961 159.560624 
L 109.886961 157.657779 
L 110.060057 157.657779 
L 110.060057 157.182068 
L 111.426108 157.182068 
L 111.426108 152.424956 
L 111.584648 152.424956 
L 111.663381 145.765 
L 113.059268 145.765 
L 113.059268 144.337866 
L 113.27546 144.337866 
L 113.27546 139.580754 
L 113.489005 139.580754 
L 113.489005 137.67791 
L 114.552496 137.67791 
L 114.552496 134.347931 
L 114.751048 134.347931 
L 114.751048 133.396509 
L 114.947365 133.396509 
L 114.947365 131.017953 
L 116.293125 131.017953 
L 116.293125 125.309419 
L 117.059162 125.309419 
L 117.059162 124.833708 
L 117.542433 124.833708 
L 117.542433 124.357997 
L 119.996839 124.357997 
L 119.996839 123.882285 
L 120.429836 123.882285 
L 120.429836 122.930863 
L 121.974949 122.930863 
L 121.974949 122.455152 
L 122.573415 122.455152 
L 122.573415 121.979441 
L 126.013653 121.979441 
L 126.013653 121.028018 
L 126.87191 121.028018 
L 126.937471 119.600885 
L 129.644435 119.600885 
L 129.644435 119.125174 
L 130.358022 119.125174 
L 130.358022 118.649462 
L 132.278599 118.649462 
L 132.278599 118.173751 
L 132.565279 118.173751 
L 132.565279 117.69804 
L 132.870621 117.69804 
L 132.870621 117.222329 
L 135.014985 117.222329 
L 135.014985 116.270907 
L 135.937276 116.270907 
L 135.937276 114.368062 
L 136.352172 114.368062 
L 136.352172 113.892351 
L 136.979586 113.892351 
L 136.979586 112.465217 
L 137.189866 112.465217 
L 137.189866 111.989506 
L 137.602968 111.989506 
L 137.602968 111.513795 
L 138.736791 111.513795 
L 138.736791 111.038084 
L 139.107066 111.038084 
L 139.107066 110.562372 
L 139.469642 110.562372 
L 139.469642 109.135239 
L 139.8092 109.135239 
L 139.8092 107.232394 
L 141.170161 107.232394 
L 141.170161 106.756683 
L 148.219468 106.756683 
L 148.219468 106.280972 
L 150.611414 106.280972 
L 150.611414 105.329549 
L 166.021841 105.329549 
L 166.021841 104.853838 
L 166.628709 104.853838 
L 166.628709 104.378127 
L 183.921659 104.378127 
L 183.921659 103.426705 
L 185.585499 103.426705 
L 185.585499 102.950993 
L 200.767995 102.950993 
L 200.767995 101.999571 
L 204.370563 101.999571 
L 204.370563 101.52386 
L 205.69077 101.52386 
L 205.772505 99.621015 
L 205.955989 99.621015 
L 205.955989 99.145304 
L 206.102307 99.145304 
L 206.123608 98.193882 
L 212.585481 98.193882 
L 212.585481 97.71817 
L 215.436365 97.71817 
L 215.501407 96.291037 
L 217.80932 96.291037 
L 217.854884 94.388192 
L 219.468328 94.388192 
L 219.514297 92.961059 
L 224.563319 92.961059 
L 224.563319 92.485348 
L 224.835343 92.485348 
L 224.941303 91.533925 
L 226.024496 91.533925 
L 226.046166 90.582503 
L 229.894184 90.582503 
L 229.949506 88.203947 
L 233.760071 88.203947 
L 233.794628 86.776813 
L 235.109999 86.776813 
L 235.109999 86.301102 
L 236.936694 86.301102 
L 236.947186 85.34968 
L 237.511664 85.34968 
L 237.511664 84.873969 
L 239.603593 84.873969 
L 239.603593 84.398257 
L 241.973307 84.398257 
L 241.973307 83.922546 
L 244.00515 83.922546 
L 244.007674 82.971124 
L 244.755985 82.971124 
L 244.755985 82.495413 
L 245.745252 82.495413 
L 245.745252 82.019702 
L 245.860718 82.019702 
L 245.860718 81.54399 
L 246.168178 81.54399 
L 246.20428 80.592568 
L 247.501558 80.592568 
L 247.512665 79.641146 
L 249.310094 79.641146 
L 249.310094 79.165434 
L 250.4164 79.165434 
L 250.4164 78.689723 
L 250.703943 78.689723 
L 250.703943 78.214012 
L 250.948147 78.214012 
L 250.948147 77.738301 
L 253.139114 77.738301 
L 253.139114 77.26259 
L 254.051543 77.26259 
L 254.051543 76.786879 
L 254.257284 76.786879 
L 254.257284 76.311167 
L 256.069057 76.311167 
L 256.069057 75.835456 
L 260.515289 75.835456 
L 260.515289 75.359745 
L 260.816083 75.359745 
L 260.816083 74.884034 
L 261.393249 74.884034 
L 261.393249 74.408323 
L 261.808957 74.408323 
L 261.808957 73.932611 
L 262.087345 73.932611 
L 262.087345 73.4569 
L 262.899208 73.4569 
L 262.899208 72.981189 
L 265.115459 72.981189 
L 265.115459 72.505478 
L 267.68347 72.505478 
L 267.68347 72.029767 
L 268.072725 72.029767 
L 268.072725 71.554056 
L 279.156057 71.554056 
L 279.156057 71.078344 
L 281.157364 71.078344 
L 281.157364 70.602633 
L 338.688 70.602633 
L 338.688 70.602633 
" style="fill:none;stroke:#ff00ff;stroke-linecap:square;stroke-width:1.5;"/>
   </g>
   <g id="line2d_36">
    <defs>
     <path d="M -0 8.485281 
L 5.091169 0 
L 0 -8.485281 
L -5.091169 -0 
z
" id="mf6427df778" style="stroke:#ff00ff;stroke-linejoin:miter;stroke-width:1.5;"/>
    </defs>
    <g>
     <use style="fill-opacity:0;stroke:#ff00ff;stroke-linejoin:miter;stroke-width:1.5;" x="132.870621" xlink:href="#mf6427df778" y="117.222329"/>
     <use style="fill-opacity:0;stroke:#ff00ff;stroke-linejoin:miter;stroke-width:1.5;" x="229.949506" xlink:href="#mf6427df778" y="88.679658"/>
     <use style="fill-opacity:0;stroke:#ff00ff;stroke-linejoin:miter;stroke-width:1.5;" x="281.157364" xlink:href="#mf6427df778" y="71.078344"/>
     <use style="fill-opacity:0;stroke:#ff00ff;stroke-linejoin:miter;stroke-width:1.5;" x="281.157364" xlink:href="#mf6427df778" y="70.602633"/>
     <use style="fill-opacity:0;stroke:#ff00ff;stroke-linejoin:miter;stroke-width:1.5;" x="338.688" xlink:href="#mf6427df778" y="70.602633"/>
    </g>
   </g>
   <g id="line2d_37">
    <path style="fill:none;stroke:#ff00ff;stroke-linecap:square;stroke-width:1.5;"/>
    <g/>
   </g>
   <g id="line2d_38">
    <path clip-path="url(#p92f95a6566)" d="M 205.676275 101.52386 
" style="fill:none;stroke:#ff00ff;stroke-linecap:square;stroke-width:1.5;"/>
    <defs>
     <path d="M -12 12 
L 12 -12 
M -12 -12 
L 12 12 
" id="me7cb6ec2fd" style="stroke:#ff00ff;"/>
    </defs>
    <g clip-path="url(#p92f95a6566)">
     <use style="fill:#ff00ff;stroke:#ff00ff;" x="205.676275" xlink:href="#me7cb6ec2fd" y="101.52386"/>
    </g>
   </g>
   <g id="line2d_39">
    <defs>
     <path d="M 0 1.5 
C 0.397805 1.5 0.77937 1.341951 1.06066 1.06066 
C 1.341951 0.77937 1.5 0.397805 1.5 0 
C 1.5 -0.397805 1.341951 -0.77937 1.06066 -1.06066 
C 0.77937 -1.341951 0.397805 -1.5 0 -1.5 
C -0.397805 -1.5 -0.77937 -1.341951 -1.06066 -1.06066 
C -1.341951 -0.77937 -1.5 -0.397805 -1.5 0 
C -1.5 0.397805 -1.341951 0.77937 -1.06066 1.06066 
C -0.77937 1.341951 -0.397805 1.5 0 1.5 
z
" id="m43a11b9f59" style="stroke:#ff7500;"/>
    </defs>
    <g>
     <use style="fill:#ff7500;stroke:#ff7500;" x="240.497774" xlink:href="#m43a11b9f59" y="6.381624"/>
     <use style="fill:#ff7500;stroke:#ff7500;" x="240.497774" xlink:href="#m43a11b9f59" y="6.381624"/>
    </g>
   </g>
   <g id="line2d_40">
    <path d="M 112.356423 298.944 
L 112.356423 298.468289 
L 113.977337 298.468289 
L 113.977337 297.992578 
L 114.250364 297.992578 
L 114.250364 297.516866 
L 115.460322 297.516866 
L 115.460322 296.089733 
L 115.711251 296.089733 
L 115.711251 295.614022 
L 116.943478 295.614022 
L 116.943478 293.711177 
L 117.116718 293.711177 
L 117.116718 293.235466 
L 118.148599 293.235466 
L 118.148599 292.759755 
L 118.310324 292.759755 
L 118.310324 290.381199 
L 119.326492 290.381199 
L 119.326492 289.905488 
L 119.527814 289.905488 
L 119.527814 288.478354 
L 120.47729 288.478354 
L 120.571812 287.05122 
L 120.665825 287.05122 
L 120.665825 286.575509 
L 120.8059 286.575509 
L 120.8059 286.099798 
L 121.512225 286.099798 
L 121.512225 285.624087 
L 121.645689 285.624087 
L 121.645689 284.196953 
L 121.77814 284.196953 
L 121.822068 279.915553 
L 122.573415 279.915553 
L 122.657258 278.488419 
L 122.699028 278.488419 
L 122.699028 278.012708 
L 123.494177 278.012708 
L 123.533993 273.731307 
L 123.692353 273.731307 
L 123.692353 272.779885 
L 123.888302 272.779885 
L 123.888302 272.304174 
L 124.292765 272.304174 
L 124.292765 271.828463 
L 124.444412 271.828463 
L 124.444412 271.352752 
L 124.557288 271.352752 
L 124.594752 266.119929 
L 125.165375 266.119929 
L 125.201556 264.217084 
L 125.345535 264.217084 
L 125.452744 262.78995 
L 125.559298 262.78995 
L 125.559298 262.314239 
L 126.030894 262.314239 
L 126.030894 261.838528 
L 126.236468 261.838528 
L 126.304457 258.50855 
L 126.372183 258.50855 
L 126.372183 258.032838 
L 126.921104 258.032838 
L 126.986481 255.178571 
L 127.051614 255.178571 
L 127.051614 254.70286 
L 127.579875 254.70286 
L 127.674226 253.275727 
L 127.76807 253.275727 
L 127.76807 252.800015 
L 127.985095 252.800015 
L 127.985095 250.897171 
L 128.214663 250.897171 
L 128.305651 247.567192 
L 128.396166 247.567192 
L 128.426234 243.761503 
L 128.545989 243.761503 
L 128.545989 240.431525 
L 128.973336 240.431525 
L 129.031467 229.965879 
L 129.31925 229.965879 
L 129.31925 228.063034 
L 129.532014 228.063034 
L 129.616397 221.878789 
L 129.672427 221.878789 
L 129.756136 220.451655 
L 129.811719 220.451655 
L 129.922357 219.500233 
L 130.236587 219.500233 
L 130.263646 210.937432 
L 130.398313 210.937432 
L 130.505303 206.18032 
L 130.756803 206.18032 
L 130.809292 202.850341 
L 130.887729 202.850341 
L 130.965816 196.666096 
L 131.06939 196.666096 
L 131.172353 191.908984 
L 131.363785 191.908984 
L 131.439773 187.151872 
L 131.515432 187.151872 
L 131.615802 176.686227 
L 131.640805 176.686227 
L 131.740458 175.259093 
L 131.99937 175.259093 
L 132.109167 167.172003 
L 132.133473 167.172003 
L 132.133473 166.696292 
L 132.290639 166.696292 
L 132.290639 166.220581 
L 132.565279 166.220581 
L 132.648014 160.512046 
L 132.730358 160.512046 
L 132.80063 159.560624 
L 132.998212 159.560624 
L 133.067415 156.230646 
L 133.205004 156.230646 
L 133.29613 154.803512 
L 133.555497 154.803512 
L 133.555497 152.900667 
L 133.844123 152.900667 
L 133.844123 152.424956 
L 134.03029 152.424956 
L 134.073807 145.289289 
L 134.225266 145.289289 
L 134.225266 144.813577 
L 134.492498 144.813577 
L 134.492498 144.337866 
L 134.703375 144.337866 
L 134.807865 141.95931 
L 134.818279 141.95931 
L 134.818279 141.007888 
L 134.942772 141.007888 
L 134.942772 140.532177 
L 135.148305 140.532177 
L 135.148305 140.056466 
L 135.381712 140.056466 
L 135.482227 136.250776 
L 135.621981 136.250776 
L 135.621981 135.775065 
L 135.927509 135.775065 
L 136.024936 132.445087 
L 136.063754 132.445087 
L 136.063754 131.969376 
L 136.58893 131.969376 
L 136.58893 131.493664 
L 136.896607 131.493664 
L 136.896607 131.017953 
L 137.198951 131.017953 
L 137.235245 125.309419 
L 137.460387 125.309419 
L 137.460387 123.406574 
L 137.638431 123.406574 
L 137.638431 122.930863 
L 137.814676 122.930863 
L 137.814676 122.455152 
L 138.032507 122.455152 
L 138.118883 121.028018 
L 138.69516 121.028018 
L 138.69516 120.552307 
L 138.959898 120.552307 
L 139.066311 119.600885 
L 139.228764 119.600885 
L 139.228764 119.125174 
L 139.604677 119.125174 
L 139.604677 118.649462 
L 140.034527 118.649462 
L 140.034527 118.173751 
L 140.287441 118.173751 
L 140.287441 117.69804 
L 140.641435 117.69804 
L 140.641435 117.222329 
L 140.812083 117.222329 
L 140.812083 116.270907 
L 140.973763 116.270907 
L 141.046761 115.319484 
L 141.285511 115.319484 
L 141.285511 114.843773 
L 141.591783 114.843773 
L 141.591783 113.416639 
L 141.89277 113.416639 
L 142.003452 111.989506 
L 142.092866 111.989506 
L 142.092866 111.513795 
L 142.215919 111.513795 
L 142.215919 110.086661 
L 142.479593 110.086661 
L 142.519806 108.659528 
L 142.910378 108.659528 
L 142.995272 107.708105 
L 143.099194 107.708105 
L 143.18962 105.329549 
L 143.464461 105.329549 
L 143.464461 103.902416 
L 143.735038 103.902416 
L 143.759996 101.52386 
L 143.86567 101.52386 
L 143.86567 101.048149 
L 144.038338 101.048149 
L 144.142344 99.145304 
L 144.342484 99.145304 
L 144.35454 98.193882 
L 146.442037 98.193882 
L 146.442037 97.71817 
L 147.660186 97.71817 
L 147.660186 95.339615 
L 148.122637 95.339615 
L 148.122637 94.863903 
L 148.817445 94.863903 
L 148.826773 89.63108 
L 150.301393 89.63108 
L 150.339914 88.679658 
L 153.362717 88.679658 
L 153.362717 87.728236 
L 153.523746 87.728236 
L 153.56999 86.776813 
L 153.683301 86.776813 
L 153.683301 85.825391 
L 155.235683 85.825391 
L 155.316219 81.068279 
L 155.460254 81.068279 
L 155.460254 80.116857 
L 155.596784 80.116857 
L 155.596784 78.689723 
L 157.904114 78.689723 
L 157.904114 77.738301 
L 160.191194 77.738301 
L 160.300213 74.884034 
L 160.403753 74.884034 
L 160.403753 73.4569 
L 160.724884 73.4569 
L 160.724884 72.981189 
L 160.935732 72.981189 
L 160.935732 72.505478 
L 161.226702 72.505478 
L 161.226702 72.029767 
L 161.451963 72.029767 
L 161.451963 71.078344 
L 167.754214 71.078344 
L 167.754214 70.126922 
L 172.154799 70.126922 
L 172.235384 65.36981 
L 172.61137 65.36981 
L 172.61137 64.894099 
L 173.374132 64.894099 
L 173.374132 64.418388 
L 174.205315 64.418388 
L 174.205315 63.466965 
L 174.387156 63.466965 
L 174.45486 62.515543 
L 176.101491 62.515543 
L 176.101491 62.039832 
L 178.203515 62.039832 
L 178.203515 60.136987 
L 179.436666 60.136987 
L 179.440696 58.709854 
L 184.066899 58.709854 
L 184.127984 57.28272 
L 185.473528 57.28272 
L 185.523635 54.904164 
L 185.647145 54.904164 
L 185.728815 50.147052 
L 187.318009 50.147052 
L 187.318009 49.671341 
L 189.722138 49.671341 
L 189.802398 47.768496 
L 189.844166 47.768496 
L 189.949914 43.962807 
L 191.564107 43.962807 
L 191.564107 43.011385 
L 193.203276 43.011385 
L 193.207302 41.10854 
L 195.376576 41.10854 
L 195.376576 40.632829 
L 197.062643 40.632829 
L 197.062643 38.254273 
L 197.604515 38.254273 
L 197.604515 37.778562 
L 199.730498 37.778562 
L 199.731505 36.827139 
L 199.875412 36.827139 
L 199.876411 33.972872 
L 200.166344 33.972872 
L 200.166344 33.497161 
L 200.381826 33.497161 
L 200.381826 32.545739 
L 200.691442 32.545739 
L 200.691442 32.070028 
L 202.754784 32.070028 
L 202.754784 31.118605 
L 205.629127 31.118605 
L 205.629127 30.167183 
L 206.014909 30.167183 
L 206.014909 29.691472 
L 206.379106 29.691472 
L 206.379106 29.21576 
L 206.506233 29.21576 
L 206.506233 28.264338 
L 207.575217 28.264338 
L 207.584046 26.837205 
L 208.570922 26.837205 
L 208.570922 26.361493 
L 209.545991 26.361493 
L 209.545991 25.885782 
L 210.35986 25.885782 
L 210.361092 22.555804 
L 212.152996 22.555804 
L 212.154354 20.177248 
L 215.19305 20.177248 
L 215.274395 15.420136 
L 216.374902 15.420136 
L 216.374902 14.944425 
L 216.536521 14.944425 
L 216.536521 14.468714 
L 217.486085 14.468714 
L 217.486085 13.993003 
L 217.870105 13.993003 
L 217.870105 13.517291 
L 218.106936 13.517291 
L 218.120623 12.565869 
L 220.207114 12.565869 
L 220.207114 12.090158 
L 221.353684 12.090158 
L 221.353684 11.614447 
L 221.645949 11.614447 
L 221.645949 11.138736 
L 222.261546 11.138736 
L 222.261546 10.663024 
L 224.217505 10.663024 
L 224.217505 10.187313 
L 225.078902 10.187313 
L 225.078902 9.711602 
L 227.921317 9.711602 
L 227.921317 9.235891 
L 228.470886 9.235891 
L 228.470886 8.76018 
L 229.413532 8.76018 
L 229.413532 8.284468 
L 231.0279 8.284468 
L 231.0279 7.808757 
L 232.555766 7.808757 
L 232.555766 7.333046 
L 237.422063 7.333046 
L 237.422063 6.857335 
L 240.497774 6.857335 
L 240.497774 6.381624 
L 338.688 6.381624 
L 338.688 6.381624 
" style="fill:none;stroke:#ff7500;stroke-linecap:square;stroke-width:1.5;"/>
   </g>
   <g id="line2d_41">
    <defs>
     <path d="M 0 -6 
L -1.347084 -1.854102 
L -5.706339 -1.854102 
L -2.179628 0.708204 
L -3.526712 4.854102 
L -0 2.291796 
L 3.526712 4.854102 
L 2.179628 0.708204 
L 5.706339 -1.854102 
L 1.347084 -1.854102 
z
" id="m2c3d2c6e66" style="stroke:#ff7500;stroke-linejoin:bevel;stroke-width:1.5;"/>
    </defs>
    <g>
     <use style="fill-opacity:0;stroke:#ff7500;stroke-linejoin:bevel;stroke-width:1.5;" x="135.621981" xlink:href="#m2c3d2c6e66" y="135.775065"/>
     <use style="fill-opacity:0;stroke:#ff7500;stroke-linejoin:bevel;stroke-width:1.5;" x="187.318009" xlink:href="#m2c3d2c6e66" y="50.147052"/>
     <use style="fill-opacity:0;stroke:#ff7500;stroke-linejoin:bevel;stroke-width:1.5;" x="240.497774" xlink:href="#m2c3d2c6e66" y="6.857335"/>
     <use style="fill-opacity:0;stroke:#ff7500;stroke-linejoin:bevel;stroke-width:1.5;" x="240.497774" xlink:href="#m2c3d2c6e66" y="6.381624"/>
     <use style="fill-opacity:0;stroke:#ff7500;stroke-linejoin:bevel;stroke-width:1.5;" x="338.688" xlink:href="#m2c3d2c6e66" y="6.381624"/>
    </g>
   </g>
   <g id="line2d_42">
    <path style="fill:none;stroke:#ff7500;stroke-linecap:square;stroke-width:1.5;"/>
    <g/>
   </g>
   <g id="line2d_43">
    <path clip-path="url(#p92f95a6566)" d="M 207.584046 26.837205 
" style="fill:none;stroke:#ff7500;stroke-linecap:square;stroke-width:1.5;"/>
    <defs>
     <path d="M -12 12 
L 12 -12 
M -12 -12 
L 12 12 
" id="mfb30afa1ee" style="stroke:#ff7500;"/>
    </defs>
    <g clip-path="url(#p92f95a6566)">
     <use style="fill:#ff7500;stroke:#ff7500;" x="207.584046" xlink:href="#mfb30afa1ee" y="26.837205"/>
    </g>
   </g>
   <g id="line2d_44">
    <defs>
     <path d="M 0 1.5 
C 0.397805 1.5 0.77937 1.341951 1.06066 1.06066 
C 1.341951 0.77937 1.5 0.397805 1.5 0 
C 1.5 -0.397805 1.341951 -0.77937 1.06066 -1.06066 
C 0.77937 -1.341951 0.397805 -1.5 0 -1.5 
C -0.397805 -1.5 -0.77937 -1.341951 -1.06066 -1.06066 
C -1.341951 -0.77937 -1.5 -0.397805 -1.5 0 
C -1.5 0.397805 -1.341951 0.77937 -1.06066 1.06066 
C -0.77937 1.341951 -0.397805 1.5 0 1.5 
z
" id="me547063677" style="stroke:#6495ed;"/>
    </defs>
    <g>
     <use style="fill:#6495ed;stroke:#6495ed;" x="150.969711" xlink:href="#me547063677" y="6.381624"/>
     <use style="fill:#6495ed;stroke:#6495ed;" x="150.969711" xlink:href="#me547063677" y="6.381624"/>
    </g>
   </g>
   <g id="line2d_45">
    <path d="M 84.213325 298.944 
L 84.213325 294.662599 
L 91.410261 294.662599 
L 91.410261 294.186888 
L 91.659398 294.186888 
L 91.659398 293.711177 
L 96.110718 293.711177 
L 96.110718 293.235466 
L 96.301313 293.235466 
L 96.301313 292.759755 
L 96.489848 292.759755 
L 96.489848 290.85691 
L 96.676366 290.85691 
L 96.676366 290.381199 
L 100.268435 290.381199 
L 100.268435 287.526932 
L 100.418775 287.526932 
L 100.418775 284.196953 
L 100.567829 284.196953 
L 100.567829 283.245531 
L 103.498249 283.245531 
L 103.498249 282.76982 
L 103.623262 282.76982 
L 103.623262 281.342686 
L 103.747386 281.342686 
L 103.747386 279.915553 
L 106.114686 279.915553 
L 106.222336 276.585574 
L 106.329326 276.585574 
L 106.329326 275.634152 
L 106.541356 275.634152 
L 106.541356 275.158441 
L 108.483824 275.158441 
L 108.577836 274.207019 
L 108.671345 274.207019 
L 108.764355 272.304174 
L 110.569269 272.304174 
L 110.652711 270.401329 
L 110.818406 270.401329 
L 110.900667 269.449907 
L 112.356423 269.449907 
L 112.431755 268.498484 
L 112.506763 268.498484 
L 112.58145 267.071351 
L 112.72987 267.071351 
L 112.72987 266.119929 
L 114.045996 266.119929 
L 114.114385 264.692795 
L 114.182507 264.692795 
L 114.250364 263.741373 
L 114.385292 263.741373 
L 114.385292 262.78995 
L 115.33349 262.78995 
L 115.33349 262.314239 
L 115.523393 262.314239 
L 115.586238 260.411394 
L 115.648856 260.411394 
L 115.648856 258.50855 
L 115.897107 258.50855 
L 115.897107 257.557127 
L 116.827022 257.557127 
L 116.885347 256.605705 
L 117.001416 256.605705 
L 117.059162 254.70286 
L 117.231262 254.70286 
L 117.288253 253.275727 
L 118.148599 253.275727 
L 118.256582 251.848593 
L 118.310324 251.848593 
L 118.363901 249.470037 
L 119.377041 249.470037 
L 119.377041 248.518615 
L 119.577783 248.518615 
L 119.677294 247.091481 
L 119.726838 247.091481 
L 119.726838 246.61577 
L 120.286695 246.61577 
L 120.286695 246.140059 
L 120.47729 246.140059 
L 120.571812 244.712925 
L 120.618882 244.712925 
L 120.712642 243.285792 
L 120.759333 243.285792 
L 120.8059 242.334369 
L 121.332668 242.334369 
L 121.332668 241.858658 
L 121.512225 241.858658 
L 121.601315 238.52868 
L 121.645689 238.52868 
L 121.689952 237.101546 
L 121.77814 237.101546 
L 121.822068 235.674413 
L 122.489167 235.674413 
L 122.573415 232.344435 
L 122.657258 232.344435 
L 122.740699 229.490168 
L 122.782271 229.490168 
L 122.782271 229.014456 
L 123.212892 229.014456 
L 123.212892 228.538745 
L 123.414272 228.538745 
L 123.494177 226.160189 
L 123.613353 226.160189 
L 123.613353 225.208767 
L 124.330801 225.208767 
L 124.368753 222.3545 
L 124.444412 222.3545 
L 124.519744 217.121677 
L 124.946698 217.121677 
L 124.946698 216.170255 
L 125.129119 216.170255 
L 125.201556 213.791699 
L 125.273694 213.791699 
L 125.381344 209.034587 
L 125.787955 209.034587 
L 125.787955 208.083164 
L 125.961828 208.083164 
L 126.065325 205.704609 
L 126.133984 205.704609 
L 126.168212 201.898919 
L 126.690335 201.898919 
L 126.756581 199.044652 
L 126.822577 199.044652 
L 126.921104 191.433273 
L 127.389626 191.433273 
L 127.453273 188.103295 
L 127.516689 188.103295 
L 127.611382 180.967627 
L 128.061954 180.967627 
L 128.15374 175.734804 
L 128.184228 175.734804 
L 128.275374 171.453404 
L 128.305651 171.453404 
L 128.335875 167.172003 
L 128.709321 167.172003 
L 128.768338 166.220581 
L 128.827155 166.220581 
L 128.91501 161.93918 
L 128.973336 161.93918 
L 128.973336 159.560624 
L 129.333516 159.560624 
L 129.39046 158.13349 
L 129.47553 158.13349 
L 129.532014 153.85209 
L 129.588315 153.85209 
L 129.672427 151.949245 
L 129.936138 151.949245 
L 129.991152 150.0464 
L 130.073348 150.0464 
L 130.155159 145.289289 
L 130.209487 145.289289 
L 130.290663 142.435021 
L 130.51863 142.435021 
L 130.571839 141.483599 
L 130.65135 141.483599 
L 130.756803 136.250776 
L 130.809292 136.250776 
L 130.887729 132.445087 
L 131.082294 132.445087 
L 131.133813 131.493664 
L 131.210808 131.493664 
L 131.312942 128.639397 
L 131.338382 128.639397 
L 131.389151 125.78513 
L 131.628308 125.78513 
L 131.678241 124.357997 
L 131.777682 124.357997 
L 131.851892 121.028018 
L 131.90119 121.028018 
L 131.950349 117.69804 
L 132.048254 117.69804 
L 132.157744 115.795195 
L 132.206187 115.795195 
L 132.30267 113.892351 
L 132.326708 113.892351 
L 132.422528 109.135239 
L 132.446401 109.135239 
L 132.494049 105.805261 
L 132.612604 105.805261 
L 132.67158 104.853838 
L 132.812315 104.853838 
L 132.905511 102.475282 
L 132.928732 102.475282 
L 133.02131 98.669593 
L 133.136345 98.669593 
L 133.170708 97.71817 
L 133.284766 97.71817 
L 133.352844 95.815326 
L 133.420657 95.815326 
L 133.443203 92.485348 
L 133.533096 92.485348 
L 133.622529 90.582503 
L 133.655948 90.582503 
L 133.766885 88.679658 
L 133.811063 88.679658 
L 133.921021 83.446835 
L 134.008491 83.446835 
L 134.095524 81.54399 
L 134.171324 81.54399 
L 134.279041 79.641146 
L 134.300504 79.641146 
L 134.386096 74.408323 
L 134.47127 74.408323 
L 134.55603 72.981189 
L 134.587709 72.981189 
L 134.692892 70.602633 
L 134.734788 70.602633 
L 134.83909 64.894099 
L 134.922085 64.894099 
L 134.922085 63.942677 
L 135.097149 63.942677 
L 135.199312 61.564121 
L 135.260324 61.564121 
L 135.361539 58.709854 
L 135.44209 58.709854 
L 135.44209 58.234142 
L 135.631921 58.234142 
L 135.731008 55.379875 
L 135.790191 55.379875 
L 135.868791 54.428453 
L 135.956794 54.428453 
L 136.054058 53.001319 
L 136.112156 53.001319 
L 136.150782 50.147052 
L 136.2853 50.147052 
L 136.2853 49.671341 
L 136.447261 49.671341 
L 136.541835 47.292785 
L 136.560688 47.292785 
L 136.560688 46.817074 
L 136.850337 46.817074 
L 136.96118 43.011385 
L 137.016339 43.011385 
L 137.089613 42.059962 
L 137.262416 42.059962 
L 137.352682 39.681406 
L 137.406618 39.681406 
L 137.478274 38.254273 
L 137.647286 38.254273 
L 137.735587 35.400006 
L 137.858461 35.400006 
L 137.858461 34.924295 
L 137.989158 34.924295 
L 138.093015 33.02145 
L 138.161911 33.02145 
L 138.161911 32.545739 
L 138.392446 32.545739 
L 138.477062 30.642894 
L 138.594838 30.642894 
L 138.594838 30.167183 
L 138.753416 30.167183 
L 138.803195 28.740049 
L 138.885846 28.740049 
L 138.951686 27.788627 
L 139.155847 27.788627 
L 139.236847 25.410071 
L 139.501509 25.410071 
L 139.580923 23.982937 
L 139.644195 23.982937 
L 139.659977 23.031515 
L 139.840453 23.031515 
L 139.856059 22.080093 
L 140.142272 22.080093 
L 140.203543 20.652959 
L 140.310252 20.652959 
L 140.310252 20.177248 
L 140.819464 20.177248 
L 140.863689 19.225826 
L 141.133958 19.225826 
L 141.20629 17.798692 
L 141.471341 17.798692 
L 141.570589 16.84727 
L 141.746425 16.84727 
L 141.746425 16.371559 
L 142.113436 16.371559 
L 142.113436 15.895847 
L 142.365148 15.895847 
L 142.365148 14.468714 
L 142.745948 14.468714 
L 142.745948 13.993003 
L 142.975718 13.993003 
L 142.975718 13.517291 
L 143.253924 13.517291 
L 143.305197 12.565869 
L 143.489809 12.565869 
L 143.489809 12.090158 
L 144.372608 12.090158 
L 144.372608 11.614447 
L 144.55823 11.614447 
L 144.59393 10.663024 
L 144.882773 10.663024 
L 144.964429 9.711602 
L 145.132366 9.711602 
L 145.132366 9.235891 
L 145.564956 9.235891 
L 145.564956 8.284468 
L 146.107383 8.284468 
L 146.107383 7.808757 
L 148.005725 7.808757 
L 148.005725 7.333046 
L 149.277854 7.333046 
L 149.277854 6.857335 
L 150.969711 6.857335 
L 150.969711 6.381624 
L 338.688 6.381624 
L 338.688 6.381624 
" style="fill:none;stroke:#6495ed;stroke-linecap:square;stroke-width:1.5;"/>
   </g>
   <g id="line2d_46">
    <defs>
     <path d="M -0 6 
L 6 -6 
L -6 -6 
z
" id="m0ab4d4a4c7" style="stroke:#6495ed;stroke-linejoin:miter;stroke-width:1.5;"/>
    </defs>
    <g>
     <use style="fill-opacity:0;stroke:#6495ed;stroke-linejoin:miter;stroke-width:1.5;" x="125.996395" xlink:href="#m0ab4d4a4c7" y="206.656031"/>
     <use style="fill-opacity:0;stroke:#6495ed;stroke-linejoin:miter;stroke-width:1.5;" x="150.969711" xlink:href="#m0ab4d4a4c7" y="6.857335"/>
     <use style="fill-opacity:0;stroke:#6495ed;stroke-linejoin:miter;stroke-width:1.5;" x="150.969711" xlink:href="#m0ab4d4a4c7" y="6.381624"/>
     <use style="fill-opacity:0;stroke:#6495ed;stroke-linejoin:miter;stroke-width:1.5;" x="150.969711" xlink:href="#m0ab4d4a4c7" y="6.381624"/>
     <use style="fill-opacity:0;stroke:#6495ed;stroke-linejoin:miter;stroke-width:1.5;" x="338.688" xlink:href="#m0ab4d4a4c7" y="6.381624"/>
    </g>
   </g>
   <g id="line2d_47">
    <path style="fill:none;stroke:#6495ed;stroke-linecap:square;stroke-width:1.5;"/>
    <g/>
   </g>
   <g id="line2d_48">
    <path d="M 338.688 177.637649 
L 369.60768 293.092752 
" style="fill:none;stroke:#000080;stroke-linecap:square;stroke-width:1.5;"/>
    <g>
     <use style="fill-opacity:0;stroke:#000080;stroke-width:1.5;" x="338.688" xlink:href="#m337d48b9b2" y="177.637649"/>
     <use style="fill-opacity:0;stroke:#000080;stroke-width:1.5;" x="369.60768" xlink:href="#m337d48b9b2" y="293.092752"/>
    </g>
   </g>
   <g id="line2d_49">
    <path d="M 338.688 70.602633 
L 369.60768 199.472792 
" style="fill:none;stroke:#ff00ff;stroke-linecap:square;stroke-width:1.5;"/>
    <g>
     <use style="fill-opacity:0;stroke:#ff00ff;stroke-linejoin:miter;stroke-width:1.5;" x="338.688" xlink:href="#mf6427df778" y="70.602633"/>
     <use style="fill-opacity:0;stroke:#ff00ff;stroke-linejoin:miter;stroke-width:1.5;" x="369.60768" xlink:href="#mf6427df778" y="199.472792"/>
    </g>
   </g>
   <g id="line2d_50">
    <path d="M 338.688 6.381624 
L 369.60768 105.852832 
" style="fill:none;stroke:#ff7500;stroke-linecap:square;stroke-width:1.5;"/>
    <g>
     <use style="fill-opacity:0;stroke:#ff7500;stroke-linejoin:bevel;stroke-width:1.5;" x="338.688" xlink:href="#m2c3d2c6e66" y="6.381624"/>
     <use style="fill-opacity:0;stroke:#ff7500;stroke-linejoin:bevel;stroke-width:1.5;" x="369.60768" xlink:href="#m2c3d2c6e66" y="105.852832"/>
    </g>
   </g>
   <g id="line2d_51">
    <path d="M 338.688 6.381624 
L 369.60768 12.232871 
" style="fill:none;stroke:#6495ed;stroke-linecap:square;stroke-width:1.5;"/>
    <g>
     <use style="fill-opacity:0;stroke:#6495ed;stroke-linejoin:miter;stroke-width:1.5;" x="338.688" xlink:href="#m0ab4d4a4c7" y="6.381624"/>
     <use style="fill-opacity:0;stroke:#6495ed;stroke-linejoin:miter;stroke-width:1.5;" x="369.60768" xlink:href="#m0ab4d4a4c7" y="12.232871"/>
    </g>
   </g>
   <g id="line2d_52">
    <path d="M 338.688 298.944 
L 338.688 6.381624 
" style="fill:none;stroke:#000000;stroke-linecap:square;stroke-width:1.5;"/>
   </g>
   <g id="patch_3">
    <path d="M 57.6 298.944 
L 57.6 3.456 
" style="fill:none;stroke:#000000;stroke-linecap:square;stroke-linejoin:miter;stroke-width:0.8;"/>
   </g>
   <g id="patch_4">
    <path d="M 338.688 298.944 
L 338.688 3.456 
" style="fill:none;stroke:#000000;stroke-linecap:square;stroke-linejoin:miter;stroke-width:0.8;"/>
   </g>
   <g id="patch_5">
    <path d="M 57.6 298.944 
L 338.688 298.944 
" style="fill:none;stroke:#000000;stroke-linecap:square;stroke-linejoin:miter;stroke-width:0.8;"/>
   </g>
   <g id="patch_6">
    <path d="M 57.6 3.456 
L 338.688 3.456 
" style="fill:none;stroke:#000000;stroke-linecap:square;stroke-linejoin:miter;stroke-width:0.8;"/>
   </g>
   <g id="text_13">
    <!-- f20 -->
    <g transform="translate(375.22944 297.78369)scale(0.17 -0.17)">
     <use xlink:href="#DejaVuSans-102"/>
     <use x="35.205078" xlink:href="#DejaVuSans-50"/>
     <use x="98.828125" xlink:href="#DejaVuSans-48"/>
    </g>
   </g>
   <g id="text_14">
    <!-- f26 -->
    <g transform="translate(375.22944 204.16373)scale(0.17 -0.17)">
     <use xlink:href="#DejaVuSans-102"/>
     <use x="35.205078" xlink:href="#DejaVuSans-50"/>
     <use x="98.828125" xlink:href="#DejaVuSans-54"/>
    </g>
   </g>
   <g id="text_15">
    <!-- f32 -->
    <g transform="translate(375.22944 110.543769)scale(0.17 -0.17)">
     <defs>
      <path d="M 40.578125 39.3125 
Q 47.65625 37.796875 51.625 33 
Q 55.609375 28.21875 55.609375 21.1875 
Q 55.609375 10.40625 48.1875 4.484375 
Q 40.765625 -1.421875 27.09375 -1.421875 
Q 22.515625 -1.421875 17.65625 -0.515625 
Q 12.796875 0.390625 7.625 2.203125 
L 7.625 11.71875 
Q 11.71875 9.328125 16.59375 8.109375 
Q 21.484375 6.890625 26.8125 6.890625 
Q 36.078125 6.890625 40.9375 10.546875 
Q 45.796875 14.203125 45.796875 21.1875 
Q 45.796875 27.640625 41.28125 31.265625 
Q 36.765625 34.90625 28.71875 34.90625 
L 20.21875 34.90625 
L 20.21875 43.015625 
L 29.109375 43.015625 
Q 36.375 43.015625 40.234375 45.921875 
Q 44.09375 48.828125 44.09375 54.296875 
Q 44.09375 59.90625 40.109375 62.90625 
Q 36.140625 65.921875 28.71875 65.921875 
Q 24.65625 65.921875 20.015625 65.03125 
Q 15.375 64.15625 9.8125 62.3125 
L 9.8125 71.09375 
Q 15.4375 72.65625 20.34375 73.4375 
Q 25.25 74.21875 29.59375 74.21875 
Q 40.828125 74.21875 47.359375 69.109375 
Q 53.90625 64.015625 53.90625 55.328125 
Q 53.90625 49.265625 50.4375 45.09375 
Q 46.96875 40.921875 40.578125 39.3125 
z
" id="DejaVuSans-51"/>
     </defs>
     <use xlink:href="#DejaVuSans-102"/>
     <use x="35.205078" xlink:href="#DejaVuSans-51"/>
     <use x="98.828125" xlink:href="#DejaVuSans-50"/>
    </g>
   </g>
   <g id="text_16">
    <!-- f38 -->
    <g transform="translate(375.22944 16.923809)scale(0.17 -0.17)">
     <use xlink:href="#DejaVuSans-102"/>
     <use x="35.205078" xlink:href="#DejaVuSans-51"/>
     <use x="98.828125" xlink:href="#DejaVuSans-56"/>
    </g>
   </g>
   <g id="text_17">
    <!-- bbob-constrained -->
    <g transform="translate(60.41088 14.161286)scale(0.102 -0.102)">
     <defs>
      <path d="M 48.6875 27.296875 
Q 48.6875 37.203125 44.609375 42.84375 
Q 40.53125 48.484375 33.40625 48.484375 
Q 26.265625 48.484375 22.1875 42.84375 
Q 18.109375 37.203125 18.109375 27.296875 
Q 18.109375 17.390625 22.1875 11.75 
Q 26.265625 6.109375 33.40625 6.109375 
Q 40.53125 6.109375 44.609375 11.75 
Q 48.6875 17.390625 48.6875 27.296875 
z
M 18.109375 46.390625 
Q 20.953125 51.265625 25.265625 53.625 
Q 29.59375 56 35.59375 56 
Q 45.5625 56 51.78125 48.09375 
Q 58.015625 40.1875 58.015625 27.296875 
Q 58.015625 14.40625 51.78125 6.484375 
Q 45.5625 -1.421875 35.59375 -1.421875 
Q 29.59375 -1.421875 25.265625 0.953125 
Q 20.953125 3.328125 18.109375 8.203125 
L 18.109375 0 
L 9.078125 0 
L 9.078125 75.984375 
L 18.109375 75.984375 
z
" id="DejaVuSans-98"/>
     </defs>
     <use xlink:href="#DejaVuSans-98"/>
     <use x="63.476562" xlink:href="#DejaVuSans-98"/>
     <use x="126.953125" xlink:href="#DejaVuSans-111"/>
     <use x="188.134766" xlink:href="#DejaVuSans-98"/>
     <use x="251.611328" xlink:href="#DejaVuSans-45"/>
     <use x="287.695312" xlink:href="#DejaVuSans-99"/>
     <use x="342.675781" xlink:href="#DejaVuSans-111"/>
     <use x="403.857422" xlink:href="#DejaVuSans-110"/>
     <use x="467.236328" xlink:href="#DejaVuSans-115"/>
     <use x="519.335938" xlink:href="#DejaVuSans-116"/>
     <use x="558.544922" xlink:href="#DejaVuSans-114"/>
     <use x="599.658203" xlink:href="#DejaVuSans-97"/>
     <use x="660.9375" xlink:href="#DejaVuSans-105"/>
     <use x="688.720703" xlink:href="#DejaVuSans-110"/>
     <use x="752.099609" xlink:href="#DejaVuSans-101"/>
     <use x="813.623047" xlink:href="#DejaVuSans-100"/>
    </g>
    <!-- Ill-conditioned functions with0n+3constraints, 20-D -->
    <g transform="translate(60.41088 25.583055)scale(0.102 -0.102)">
     <defs>
      <path d="M 9.8125 72.90625 
L 19.671875 72.90625 
L 19.671875 0 
L 9.8125 0 
z
" id="DejaVuSans-73"/>
      <path d="M 4.203125 54.6875 
L 13.1875 54.6875 
L 24.421875 12.015625 
L 35.59375 54.6875 
L 46.1875 54.6875 
L 57.421875 12.015625 
L 68.609375 54.6875 
L 77.59375 54.6875 
L 63.28125 0 
L 52.6875 0 
L 40.921875 44.828125 
L 29.109375 0 
L 18.5 0 
z
" id="DejaVuSans-119"/>
      <path d="M 54.890625 33.015625 
L 54.890625 0 
L 45.90625 0 
L 45.90625 32.71875 
Q 45.90625 40.484375 42.875 44.328125 
Q 39.84375 48.1875 33.796875 48.1875 
Q 26.515625 48.1875 22.3125 43.546875 
Q 18.109375 38.921875 18.109375 30.90625 
L 18.109375 0 
L 9.078125 0 
L 9.078125 75.984375 
L 18.109375 75.984375 
L 18.109375 46.1875 
Q 21.34375 51.125 25.703125 53.5625 
Q 30.078125 56 35.796875 56 
Q 45.21875 56 50.046875 50.171875 
Q 54.890625 44.34375 54.890625 33.015625 
z
" id="DejaVuSans-104"/>
      <path d="M 19.671875 64.796875 
L 19.671875 8.109375 
L 31.59375 8.109375 
Q 46.6875 8.109375 53.6875 14.9375 
Q 60.6875 21.78125 60.6875 36.53125 
Q 60.6875 51.171875 53.6875 57.984375 
Q 46.6875 64.796875 31.59375 64.796875 
z
M 9.8125 72.90625 
L 30.078125 72.90625 
Q 51.265625 72.90625 61.171875 64.09375 
Q 71.09375 55.28125 71.09375 36.53125 
Q 71.09375 17.671875 61.125 8.828125 
Q 51.171875 0 30.078125 0 
L 9.8125 0 
z
" id="DejaVuSans-68"/>
     </defs>
     <use xlink:href="#DejaVuSans-73"/>
     <use x="29.492188" xlink:href="#DejaVuSans-108"/>
     <use x="57.275391" xlink:href="#DejaVuSans-108"/>
     <use x="85.058594" xlink:href="#DejaVuSans-45"/>
     <use x="121.142578" xlink:href="#DejaVuSans-99"/>
     <use x="176.123047" xlink:href="#DejaVuSans-111"/>
     <use x="237.304688" xlink:href="#DejaVuSans-110"/>
     <use x="300.683594" xlink:href="#DejaVuSans-100"/>
     <use x="364.160156" xlink:href="#DejaVuSans-105"/>
     <use x="391.943359" xlink:href="#DejaVuSans-116"/>
     <use x="431.152344" xlink:href="#DejaVuSans-105"/>
     <use x="458.935547" xlink:href="#DejaVuSans-111"/>
     <use x="520.117188" xlink:href="#DejaVuSans-110"/>
     <use x="583.496094" xlink:href="#DejaVuSans-101"/>
     <use x="645.019531" xlink:href="#DejaVuSans-100"/>
     <use x="708.496094" xlink:href="#DejaVuSans-32"/>
     <use x="740.283203" xlink:href="#DejaVuSans-102"/>
     <use x="775.488281" xlink:href="#DejaVuSans-117"/>
     <use x="838.867188" xlink:href="#DejaVuSans-110"/>
     <use x="902.246094" xlink:href="#DejaVuSans-99"/>
     <use x="957.226562" xlink:href="#DejaVuSans-116"/>
     <use x="996.435547" xlink:href="#DejaVuSans-105"/>
     <use x="1024.21875" xlink:href="#DejaVuSans-111"/>
     <use x="1085.400391" xlink:href="#DejaVuSans-110"/>
     <use x="1148.779297" xlink:href="#DejaVuSans-115"/>
     <use x="1200.878906" xlink:href="#DejaVuSans-32"/>
     <use x="1232.666016" xlink:href="#DejaVuSans-119"/>
     <use x="1314.453125" xlink:href="#DejaVuSans-105"/>
     <use x="1342.236328" xlink:href="#DejaVuSans-116"/>
     <use x="1381.445312" xlink:href="#DejaVuSans-104"/>
     <use x="1444.824219" xlink:href="#DejaVuSans-48"/>
     <use x="1508.447266" xlink:href="#DejaVuSans-110"/>
     <use x="1571.826172" xlink:href="#DejaVuSans-43"/>
     <use x="1655.615234" xlink:href="#DejaVuSans-51"/>
     <use x="1719.238281" xlink:href="#DejaVuSans-99"/>
     <use x="1774.21875" xlink:href="#DejaVuSans-111"/>
     <use x="1835.400391" xlink:href="#DejaVuSans-110"/>
     <use x="1898.779297" xlink:href="#DejaVuSans-115"/>
     <use x="1950.878906" xlink:href="#DejaVuSans-116"/>
     <use x="1990.087891" xlink:href="#DejaVuSans-114"/>
     <use x="2031.201172" xlink:href="#DejaVuSans-97"/>
     <use x="2092.480469" xlink:href="#DejaVuSans-105"/>
     <use x="2120.263672" xlink:href="#DejaVuSans-110"/>
     <use x="2183.642578" xlink:href="#DejaVuSans-116"/>
     <use x="2222.851562" xlink:href="#DejaVuSans-115"/>
     <use x="2274.951172" xlink:href="#DejaVuSans-44"/>
     <use x="2306.738281" xlink:href="#DejaVuSans-32"/>
     <use x="2338.525391" xlink:href="#DejaVuSans-50"/>
     <use x="2402.148438" xlink:href="#DejaVuSans-48"/>
     <use x="2465.771484" xlink:href="#DejaVuSans-45"/>
     <use x="2501.855469" xlink:href="#DejaVuSans-68"/>
    </g>
    <!-- 41 targets: 100..1e-06 -->
    <g transform="translate(60.41088 37.004824)scale(0.102 -0.102)">
     <defs>
      <path d="M 11.71875 12.40625 
L 22.015625 12.40625 
L 22.015625 0 
L 11.71875 0 
z
M 11.71875 51.703125 
L 22.015625 51.703125 
L 22.015625 39.3125 
L 11.71875 39.3125 
z
" id="DejaVuSans-58"/>
     </defs>
     <use xlink:href="#DejaVuSans-52"/>
     <use x="63.623047" xlink:href="#DejaVuSans-49"/>
     <use x="127.246094" xlink:href="#DejaVuSans-32"/>
     <use x="159.033203" xlink:href="#DejaVuSans-116"/>
     <use x="198.242188" xlink:href="#DejaVuSans-97"/>
     <use x="259.521484" xlink:href="#DejaVuSans-114"/>
     <use x="298.884766" xlink:href="#DejaVuSans-103"/>
     <use x="362.361328" xlink:href="#DejaVuSans-101"/>
     <use x="423.884766" xlink:href="#DejaVuSans-116"/>
     <use x="463.09375" xlink:href="#DejaVuSans-115"/>
     <use x="515.193359" xlink:href="#DejaVuSans-58"/>
     <use x="548.884766" xlink:href="#DejaVuSans-32"/>
     <use x="580.671875" xlink:href="#DejaVuSans-49"/>
     <use x="644.294922" xlink:href="#DejaVuSans-48"/>
     <use x="707.917969" xlink:href="#DejaVuSans-48"/>
     <use x="771.541016" xlink:href="#DejaVuSans-46"/>
     <use x="803.328125" xlink:href="#DejaVuSans-46"/>
     <use x="835.115234" xlink:href="#DejaVuSans-49"/>
     <use x="898.738281" xlink:href="#DejaVuSans-101"/>
     <use x="960.261719" xlink:href="#DejaVuSans-45"/>
     <use x="996.345703" xlink:href="#DejaVuSans-48"/>
     <use x="1059.96875" xlink:href="#DejaVuSans-54"/>
    </g>
    <!-- 15 instances -->
    <g transform="translate(60.41088 48.426593)scale(0.102 -0.102)">
     <defs>
      <path d="M 10.796875 72.90625 
L 49.515625 72.90625 
L 49.515625 64.59375 
L 19.828125 64.59375 
L 19.828125 46.734375 
Q 21.96875 47.46875 24.109375 47.828125 
Q 26.265625 48.1875 28.421875 48.1875 
Q 40.625 48.1875 47.75 41.5 
Q 54.890625 34.8125 54.890625 23.390625 
Q 54.890625 11.625 47.5625 5.09375 
Q 40.234375 -1.421875 26.90625 -1.421875 
Q 22.3125 -1.421875 17.546875 -0.640625 
Q 12.796875 0.140625 7.71875 1.703125 
L 7.71875 11.625 
Q 12.109375 9.234375 16.796875 8.0625 
Q 21.484375 6.890625 26.703125 6.890625 
Q 35.15625 6.890625 40.078125 11.328125 
Q 45.015625 15.765625 45.015625 23.390625 
Q 45.015625 31 40.078125 35.4375 
Q 35.15625 39.890625 26.703125 39.890625 
Q 22.75 39.890625 18.8125 39.015625 
Q 14.890625 38.140625 10.796875 36.28125 
z
" id="DejaVuSans-53"/>
     </defs>
     <use xlink:href="#DejaVuSans-49"/>
     <use x="63.623047" xlink:href="#DejaVuSans-53"/>
     <use x="127.246094" xlink:href="#DejaVuSans-32"/>
     <use x="159.033203" xlink:href="#DejaVuSans-105"/>
     <use x="186.816406" xlink:href="#DejaVuSans-110"/>
     <use x="250.195312" xlink:href="#DejaVuSans-115"/>
     <use x="302.294922" xlink:href="#DejaVuSans-116"/>
     <use x="341.503906" xlink:href="#DejaVuSans-97"/>
     <use x="402.783203" xlink:href="#DejaVuSans-110"/>
     <use x="466.162109" xlink:href="#DejaVuSans-99"/>
     <use x="521.142578" xlink:href="#DejaVuSans-101"/>
     <use x="582.666016" xlink:href="#DejaVuSans-115"/>
    </g>
   </g>
   <g id="text_18">
    <!-- v2.4.82 -->
    <g style="fill:#808080;" transform="translate(179.2815 293.909432)scale(0.1 -0.1)">
     <use xlink:href="#DejaVuSans-118"/>
     <use x="59.179688" xlink:href="#DejaVuSans-50"/>
     <use x="122.802734" xlink:href="#DejaVuSans-46"/>
     <use x="154.589844" xlink:href="#DejaVuSans-52"/>
     <use x="218.212891" xlink:href="#DejaVuSans-46"/>
     <use x="250" xlink:href="#DejaVuSans-56"/>
     <use x="313.623047" xlink:href="#DejaVuSans-50"/>
    </g>
   </g>
  </g>
 </g>
 <defs>
  <clipPath id="p92f95a6566">
   <rect height="295.488" width="281.088" x="57.6" y="3.456"/>
  </clipPath>
 </defs>
</svg>
