<?xml version="1.0" encoding="utf-8" standalone="no"?>
<!DOCTYPE svg PUBLIC "-//W3C//DTD SVG 1.1//EN"
  "http://www.w3.org/Graphics/SVG/1.1/DTD/svg11.dtd">
<!-- Created with matplotlib (https://matplotlib.org/) -->
<svg height="345.6pt" version="1.1" viewBox="0 0 460.8 345.6" width="460.8pt" xmlns="http://www.w3.org/2000/svg" xmlns:xlink="http://www.w3.org/1999/xlink">
 <metadata>
  <rdf:RDF xmlns:cc="http://creativecommons.org/ns#" xmlns:dc="http://purl.org/dc/elements/1.1/" xmlns:rdf="http://www.w3.org/1999/02/22-rdf-syntax-ns#">
   <cc:Work>
    <dc:type rdf:resource="http://purl.org/dc/dcmitype/StillImage"/>
    <dc:date>2022-03-31T09:50:30.505444</dc:date>
    <dc:format>image/svg+xml</dc:format>
    <dc:creator>
     <cc:Agent>
      <dc:title>Matplotlib v3.3.3, https://matplotlib.org/</dc:title>
     </cc:Agent>
    </dc:creator>
   </cc:Work>
  </rdf:RDF>
 </metadata>
 <defs>
  <style type="text/css">*{stroke-linecap:butt;stroke-linejoin:round;}</style>
 </defs>
 <g id="figure_1">
  <g id="patch_1">
   <path d="M 0 345.6 
L 460.8 345.6 
L 460.8 0 
L 0 0 
z
" style="fill:#ffffff;"/>
  </g>
  <g id="axes_1">
   <g id="patch_2">
    <path d="M 0 293.76 
L 460.8 293.76 
L 460.8 3.456 
L 0 3.456 
z
" style="fill:#ffffff;"/>
   </g>
   <g id="matplotlib.axis_1">
    <g id="xtick_1">
     <g id="line2d_1">
      <path clip-path="url(#pa36689fe9b)" d="M 94.152159 293.76 
L 94.152159 3.456 
" style="fill:none;stroke:#b0b0b0;stroke-linecap:square;stroke-width:0.8;"/>
     </g>
     <g id="line2d_2">
      <defs>
       <path d="M 0 0 
L 0 3.5 
" id="m9c13f0e224" style="stroke:#000000;stroke-width:0.8;"/>
      </defs>
      <g>
       <use style="stroke:#000000;stroke-width:0.8;" x="94.152159" xlink:href="#m9c13f0e224" y="293.76"/>
      </g>
     </g>
     <g id="text_1">
      <!-- -5 -->
      <g transform="translate(84.181846 315.956875)scale(0.2 -0.2)">
       <defs>
        <path d="M 4.890625 31.390625 
L 31.203125 31.390625 
L 31.203125 23.390625 
L 4.890625 23.390625 
z
" id="DejaVuSans-45"/>
        <path d="M 10.796875 72.90625 
L 49.515625 72.90625 
L 49.515625 64.59375 
L 19.828125 64.59375 
L 19.828125 46.734375 
Q 21.96875 47.46875 24.109375 47.828125 
Q 26.265625 48.1875 28.421875 48.1875 
Q 40.625 48.1875 47.75 41.5 
Q 54.890625 34.8125 54.890625 23.390625 
Q 54.890625 11.625 47.5625 5.09375 
Q 40.234375 -1.421875 26.90625 -1.421875 
Q 22.3125 -1.421875 17.546875 -0.640625 
Q 12.796875 0.140625 7.71875 1.703125 
L 7.71875 11.625 
Q 12.109375 9.234375 16.796875 8.0625 
Q 21.484375 6.890625 26.703125 6.890625 
Q 35.15625 6.890625 40.078125 11.328125 
Q 45.015625 15.765625 45.015625 23.390625 
Q 45.015625 31 40.078125 35.4375 
Q 35.15625 39.890625 26.703125 39.890625 
Q 22.75 39.890625 18.8125 39.015625 
Q 14.890625 38.140625 10.796875 36.28125 
z
" id="DejaVuSans-53"/>
       </defs>
       <use xlink:href="#DejaVuSans-45"/>
       <use x="36.083984" xlink:href="#DejaVuSans-53"/>
      </g>
     </g>
    </g>
    <g id="xtick_2">
     <g id="line2d_3">
      <path clip-path="url(#pa36689fe9b)" d="M 188.440135 293.76 
L 188.440135 3.456 
" style="fill:none;stroke:#b0b0b0;stroke-linecap:square;stroke-width:0.8;"/>
     </g>
     <g id="line2d_4">
      <g>
       <use style="stroke:#000000;stroke-width:0.8;" x="188.440135" xlink:href="#m9c13f0e224" y="293.76"/>
      </g>
     </g>
     <g id="text_2">
      <!-- -2 -->
      <g transform="translate(178.469823 315.956875)scale(0.2 -0.2)">
       <defs>
        <path d="M 19.1875 8.296875 
L 53.609375 8.296875 
L 53.609375 0 
L 7.328125 0 
L 7.328125 8.296875 
Q 12.9375 14.109375 22.625 23.890625 
Q 32.328125 33.6875 34.8125 36.53125 
Q 39.546875 41.84375 41.421875 45.53125 
Q 43.3125 49.21875 43.3125 52.78125 
Q 43.3125 58.59375 39.234375 62.25 
Q 35.15625 65.921875 28.609375 65.921875 
Q 23.96875 65.921875 18.8125 64.3125 
Q 13.671875 62.703125 7.8125 59.421875 
L 7.8125 69.390625 
Q 13.765625 71.78125 18.9375 73 
Q 24.125 74.21875 28.421875 74.21875 
Q 39.75 74.21875 46.484375 68.546875 
Q 53.21875 62.890625 53.21875 53.421875 
Q 53.21875 48.921875 51.53125 44.890625 
Q 49.859375 40.875 45.40625 35.40625 
Q 44.1875 33.984375 37.640625 27.21875 
Q 31.109375 20.453125 19.1875 8.296875 
z
" id="DejaVuSans-50"/>
       </defs>
       <use xlink:href="#DejaVuSans-45"/>
       <use x="36.083984" xlink:href="#DejaVuSans-50"/>
      </g>
     </g>
    </g>
    <g id="xtick_3">
     <g id="line2d_5">
      <path clip-path="url(#pa36689fe9b)" d="M 282.728112 293.76 
L 282.728112 3.456 
" style="fill:none;stroke:#b0b0b0;stroke-linecap:square;stroke-width:0.8;"/>
     </g>
     <g id="line2d_6">
      <g>
       <use style="stroke:#000000;stroke-width:0.8;" x="282.728112" xlink:href="#m9c13f0e224" y="293.76"/>
      </g>
     </g>
     <g id="text_3">
      <!-- 1 -->
      <g transform="translate(276.365612 315.956875)scale(0.2 -0.2)">
       <defs>
        <path d="M 12.40625 8.296875 
L 28.515625 8.296875 
L 28.515625 63.921875 
L 10.984375 60.40625 
L 10.984375 69.390625 
L 28.421875 72.90625 
L 38.28125 72.90625 
L 38.28125 8.296875 
L 54.390625 8.296875 
L 54.390625 0 
L 12.40625 0 
z
" id="DejaVuSans-49"/>
       </defs>
       <use xlink:href="#DejaVuSans-49"/>
      </g>
     </g>
    </g>
    <g id="xtick_4">
     <g id="line2d_7">
      <path clip-path="url(#pa36689fe9b)" d="M 377.016088 293.76 
L 377.016088 3.456 
" style="fill:none;stroke:#b0b0b0;stroke-linecap:square;stroke-width:0.8;"/>
     </g>
     <g id="line2d_8">
      <g>
       <use style="stroke:#000000;stroke-width:0.8;" x="377.016088" xlink:href="#m9c13f0e224" y="293.76"/>
      </g>
     </g>
     <g id="text_4">
      <!-- 4 -->
      <g transform="translate(370.653588 315.956875)scale(0.2 -0.2)">
       <defs>
        <path d="M 37.796875 64.3125 
L 12.890625 25.390625 
L 37.796875 25.390625 
z
M 35.203125 72.90625 
L 47.609375 72.90625 
L 47.609375 25.390625 
L 58.015625 25.390625 
L 58.015625 17.1875 
L 47.609375 17.1875 
L 47.609375 0 
L 37.796875 0 
L 37.796875 17.1875 
L 4.890625 17.1875 
L 4.890625 26.703125 
z
" id="DejaVuSans-52"/>
       </defs>
       <use xlink:href="#DejaVuSans-52"/>
      </g>
     </g>
    </g>
    <g id="text_5">
     <!-- log10 of Df -->
     <g transform="translate(175.214063 339.313125)scale(0.2 -0.2)">
      <defs>
       <path d="M 9.421875 75.984375 
L 18.40625 75.984375 
L 18.40625 0 
L 9.421875 0 
z
" id="DejaVuSans-108"/>
       <path d="M 30.609375 48.390625 
Q 23.390625 48.390625 19.1875 42.75 
Q 14.984375 37.109375 14.984375 27.296875 
Q 14.984375 17.484375 19.15625 11.84375 
Q 23.34375 6.203125 30.609375 6.203125 
Q 37.796875 6.203125 41.984375 11.859375 
Q 46.1875 17.53125 46.1875 27.296875 
Q 46.1875 37.015625 41.984375 42.703125 
Q 37.796875 48.390625 30.609375 48.390625 
z
M 30.609375 56 
Q 42.328125 56 49.015625 48.375 
Q 55.71875 40.765625 55.71875 27.296875 
Q 55.71875 13.875 49.015625 6.21875 
Q 42.328125 -1.421875 30.609375 -1.421875 
Q 18.84375 -1.421875 12.171875 6.21875 
Q 5.515625 13.875 5.515625 27.296875 
Q 5.515625 40.765625 12.171875 48.375 
Q 18.84375 56 30.609375 56 
z
" id="DejaVuSans-111"/>
       <path d="M 45.40625 27.984375 
Q 45.40625 37.75 41.375 43.109375 
Q 37.359375 48.484375 30.078125 48.484375 
Q 22.859375 48.484375 18.828125 43.109375 
Q 14.796875 37.75 14.796875 27.984375 
Q 14.796875 18.265625 18.828125 12.890625 
Q 22.859375 7.515625 30.078125 7.515625 
Q 37.359375 7.515625 41.375 12.890625 
Q 45.40625 18.265625 45.40625 27.984375 
z
M 54.390625 6.78125 
Q 54.390625 -7.171875 48.1875 -13.984375 
Q 42 -20.796875 29.203125 -20.796875 
Q 24.46875 -20.796875 20.265625 -20.09375 
Q 16.0625 -19.390625 12.109375 -17.921875 
L 12.109375 -9.1875 
Q 16.0625 -11.328125 19.921875 -12.34375 
Q 23.78125 -13.375 27.78125 -13.375 
Q 36.625 -13.375 41.015625 -8.765625 
Q 45.40625 -4.15625 45.40625 5.171875 
L 45.40625 9.625 
Q 42.625 4.78125 38.28125 2.390625 
Q 33.9375 0 27.875 0 
Q 17.828125 0 11.671875 7.65625 
Q 5.515625 15.328125 5.515625 27.984375 
Q 5.515625 40.671875 11.671875 48.328125 
Q 17.828125 56 27.875 56 
Q 33.9375 56 38.28125 53.609375 
Q 42.625 51.21875 45.40625 46.390625 
L 45.40625 54.6875 
L 54.390625 54.6875 
z
" id="DejaVuSans-103"/>
       <path d="M 31.78125 66.40625 
Q 24.171875 66.40625 20.328125 58.90625 
Q 16.5 51.421875 16.5 36.375 
Q 16.5 21.390625 20.328125 13.890625 
Q 24.171875 6.390625 31.78125 6.390625 
Q 39.453125 6.390625 43.28125 13.890625 
Q 47.125 21.390625 47.125 36.375 
Q 47.125 51.421875 43.28125 58.90625 
Q 39.453125 66.40625 31.78125 66.40625 
z
M 31.78125 74.21875 
Q 44.046875 74.21875 50.515625 64.515625 
Q 56.984375 54.828125 56.984375 36.375 
Q 56.984375 17.96875 50.515625 8.265625 
Q 44.046875 -1.421875 31.78125 -1.421875 
Q 19.53125 -1.421875 13.0625 8.265625 
Q 6.59375 17.96875 6.59375 36.375 
Q 6.59375 54.828125 13.0625 64.515625 
Q 19.53125 74.21875 31.78125 74.21875 
z
" id="DejaVuSans-48"/>
       <path id="DejaVuSans-32"/>
       <path d="M 37.109375 75.984375 
L 37.109375 68.5 
L 28.515625 68.5 
Q 23.6875 68.5 21.796875 66.546875 
Q 19.921875 64.59375 19.921875 59.515625 
L 19.921875 54.6875 
L 34.71875 54.6875 
L 34.71875 47.703125 
L 19.921875 47.703125 
L 19.921875 0 
L 10.890625 0 
L 10.890625 47.703125 
L 2.296875 47.703125 
L 2.296875 54.6875 
L 10.890625 54.6875 
L 10.890625 58.5 
Q 10.890625 67.625 15.140625 71.796875 
Q 19.390625 75.984375 28.609375 75.984375 
z
" id="DejaVuSans-102"/>
       <path d="M 19.671875 64.796875 
L 19.671875 8.109375 
L 31.59375 8.109375 
Q 46.6875 8.109375 53.6875 14.9375 
Q 60.6875 21.78125 60.6875 36.53125 
Q 60.6875 51.171875 53.6875 57.984375 
Q 46.6875 64.796875 31.59375 64.796875 
z
M 9.8125 72.90625 
L 30.078125 72.90625 
Q 51.265625 72.90625 61.171875 64.09375 
Q 71.09375 55.28125 71.09375 36.53125 
Q 71.09375 17.671875 61.125 8.828125 
Q 51.171875 0 30.078125 0 
L 9.8125 0 
z
" id="DejaVuSans-68"/>
      </defs>
      <use xlink:href="#DejaVuSans-108"/>
      <use x="27.783203" xlink:href="#DejaVuSans-111"/>
      <use x="88.964844" xlink:href="#DejaVuSans-103"/>
      <use x="152.441406" xlink:href="#DejaVuSans-49"/>
      <use x="216.064453" xlink:href="#DejaVuSans-48"/>
      <use x="279.6875" xlink:href="#DejaVuSans-32"/>
      <use x="311.474609" xlink:href="#DejaVuSans-111"/>
      <use x="372.65625" xlink:href="#DejaVuSans-102"/>
      <use x="407.861328" xlink:href="#DejaVuSans-32"/>
      <use x="439.648438" xlink:href="#DejaVuSans-68"/>
      <use x="516.650391" xlink:href="#DejaVuSans-102"/>
     </g>
    </g>
   </g>
   <g id="matplotlib.axis_2">
    <g id="ytick_1">
     <g id="line2d_9">
      <path clip-path="url(#pa36689fe9b)" d="M 0 293.76 
L 460.8 293.76 
" style="fill:none;stroke:#b0b0b0;stroke-linecap:square;stroke-width:0.8;"/>
     </g>
     <g id="line2d_10">
      <defs>
       <path d="M 0 0 
L -3.5 0 
" id="mf2cbccbfc1" style="stroke:#000000;stroke-width:0.8;"/>
      </defs>
      <g>
       <use style="stroke:#000000;stroke-width:0.8;" x="0" xlink:href="#mf2cbccbfc1" y="293.76"/>
      </g>
     </g>
    </g>
    <g id="ytick_2">
     <g id="line2d_11">
      <path clip-path="url(#pa36689fe9b)" d="M 0 236.274059 
L 460.8 236.274059 
" style="fill:none;stroke:#b0b0b0;stroke-linecap:square;stroke-width:0.8;"/>
     </g>
     <g id="line2d_12">
      <g>
       <use style="stroke:#000000;stroke-width:0.8;" x="0" xlink:href="#mf2cbccbfc1" y="236.274059"/>
      </g>
     </g>
    </g>
    <g id="ytick_3">
     <g id="line2d_13">
      <path clip-path="url(#pa36689fe9b)" d="M 0 178.788119 
L 460.8 178.788119 
" style="fill:none;stroke:#b0b0b0;stroke-linecap:square;stroke-width:0.8;"/>
     </g>
     <g id="line2d_14">
      <g>
       <use style="stroke:#000000;stroke-width:0.8;" x="0" xlink:href="#mf2cbccbfc1" y="178.788119"/>
      </g>
     </g>
    </g>
    <g id="ytick_4">
     <g id="line2d_15">
      <path clip-path="url(#pa36689fe9b)" d="M 0 121.302178 
L 460.8 121.302178 
" style="fill:none;stroke:#b0b0b0;stroke-linecap:square;stroke-width:0.8;"/>
     </g>
     <g id="line2d_16">
      <g>
       <use style="stroke:#000000;stroke-width:0.8;" x="0" xlink:href="#mf2cbccbfc1" y="121.302178"/>
      </g>
     </g>
    </g>
    <g id="ytick_5">
     <g id="line2d_17">
      <path clip-path="url(#pa36689fe9b)" d="M 0 63.816238 
L 460.8 63.816238 
" style="fill:none;stroke:#b0b0b0;stroke-linecap:square;stroke-width:0.8;"/>
     </g>
     <g id="line2d_18">
      <g>
       <use style="stroke:#000000;stroke-width:0.8;" x="0" xlink:href="#mf2cbccbfc1" y="63.816238"/>
      </g>
     </g>
    </g>
    <g id="ytick_6">
     <g id="line2d_19">
      <path clip-path="url(#pa36689fe9b)" d="M 0 6.330297 
L 460.8 6.330297 
" style="fill:none;stroke:#b0b0b0;stroke-linecap:square;stroke-width:0.8;"/>
     </g>
     <g id="line2d_20">
      <g>
       <use style="stroke:#000000;stroke-width:0.8;" x="0" xlink:href="#mf2cbccbfc1" y="6.330297"/>
      </g>
     </g>
    </g>
   </g>
   <g id="line2d_21">
    <path clip-path="url(#pa36689fe9b)" d="M 310.721933 293.76 
L 310.721933 291.630891 
L 311.18461 291.630891 
L 311.18461 289.501782 
L 313.010167 289.501782 
L 313.010167 287.372673 
L 314.676832 287.372673 
L 314.676832 285.243564 
L 314.821537 285.243564 
L 314.821537 283.114455 
L 315.088773 283.114455 
L 315.088773 280.985347 
L 315.481949 280.985347 
L 315.523768 276.727129 
L 316.119123 276.727129 
L 316.208046 270.339802 
L 316.270593 270.339802 
L 316.270593 268.210693 
L 316.599386 268.210693 
L 316.599386 266.081584 
L 317.908099 266.081584 
L 317.908099 263.952475 
L 318.246227 263.952475 
L 318.246227 261.823366 
L 318.405095 261.823366 
L 318.405095 259.694257 
L 318.911557 259.694257 
L 318.911557 257.565149 
L 319.744205 257.565149 
L 319.744205 255.43604 
L 319.889556 255.43604 
L 319.889556 253.306931 
L 320.029089 253.306931 
L 320.107467 249.048713 
L 320.760744 249.048713 
L 320.760744 246.919604 
L 320.910339 246.919604 
L 320.910339 244.790495 
L 321.074675 244.790495 
L 321.074675 242.661386 
L 321.235906 242.661386 
L 321.235906 240.532277 
L 322.133138 240.532277 
L 322.19006 236.274059 
L 322.262613 236.274059 
L 322.358933 232.015842 
L 322.682224 232.015842 
L 322.717994 227.757624 
L 323.026379 227.757624 
L 323.046698 223.499406 
L 323.416413 223.499406 
L 323.416413 221.370297 
L 323.625015 221.370297 
L 323.625015 219.241188 
L 324.287218 219.241188 
L 324.287218 217.112079 
L 324.457316 217.112079 
L 324.470267 212.853861 
L 325.933287 212.853861 
L 325.933287 210.724752 
L 326.141042 210.724752 
L 326.185384 204.337426 
L 326.415659 204.337426 
L 326.415659 202.208317 
L 327.340468 202.208317 
L 327.381192 197.950099 
L 327.555416 197.950099 
L 327.555416 195.82099 
L 327.778644 195.82099 
L 327.846447 191.562772 
L 328.353455 191.562772 
L 328.353455 189.433663 
L 328.637677 189.433663 
L 328.637677 187.304554 
L 329.274296 187.304554 
L 329.274296 185.175446 
L 329.39674 185.175446 
L 329.39674 183.046337 
L 330.426295 183.046337 
L 330.426295 180.917228 
L 330.545995 180.917228 
L 330.545995 178.788119 
L 330.898854 178.788119 
L 330.898854 176.65901 
L 331.553169 176.65901 
L 331.553169 174.529901 
L 333.289144 174.529901 
L 333.289144 172.400792 
L 333.516755 172.400792 
L 333.575327 168.142574 
L 333.876942 168.142574 
L 333.876942 166.013465 
L 334.970461 166.013465 
L 334.970461 163.884356 
L 335.348518 163.884356 
L 335.426747 157.49703 
L 336.032562 157.49703 
L 336.100589 151.109703 
L 336.865985 151.109703 
L 336.865985 148.980594 
L 337.038639 148.980594 
L 337.12902 144.722376 
L 337.225784 144.722376 
L 337.225784 142.593267 
L 337.379024 142.593267 
L 337.437762 136.205941 
L 337.638737 136.205941 
L 337.638737 134.076832 
L 337.996816 134.076832 
L 337.996816 131.947723 
L 338.162894 131.947723 
L 338.169803 127.689505 
L 338.618814 127.689505 
L 338.658451 123.431287 
L 338.963174 123.431287 
L 338.963174 121.302178 
L 339.247707 121.302178 
L 339.283717 117.04396 
L 339.529131 117.04396 
L 339.637992 112.785743 
L 339.878723 112.785743 
L 339.878723 110.656634 
L 340.087781 110.656634 
L 340.197289 102.140198 
L 340.20353 102.140198 
L 340.20353 100.011089 
L 340.398945 100.011089 
L 340.427593 95.752871 
L 340.55507 95.752871 
L 340.55507 93.623762 
L 340.816581 93.623762 
L 340.921967 89.365545 
L 341.05744 89.365545 
L 341.145259 85.107327 
L 341.614478 85.107327 
L 341.677748 78.72 
L 341.995852 78.72 
L 341.995852 76.590891 
L 342.160283 76.590891 
L 342.160283 74.461782 
L 343.008038 74.461782 
L 343.008038 72.332673 
L 343.139579 72.332673 
L 343.227693 68.074455 
L 343.349377 68.074455 
L 343.349377 65.945347 
L 343.523189 65.945347 
L 343.523189 63.816238 
L 343.878484 63.816238 
L 343.878484 61.687129 
L 344.397771 61.687129 
L 344.397771 59.55802 
L 344.527629 59.55802 
L 344.527629 57.428911 
L 344.842217 57.428911 
L 344.907856 53.170693 
L 345.184866 53.170693 
L 345.184866 51.041584 
L 345.398885 51.041584 
L 345.398885 48.912475 
L 346.069035 48.912475 
L 346.069035 46.783366 
L 346.709993 46.783366 
L 346.709993 44.654257 
L 346.9143 44.654257 
L 346.9143 42.525149 
L 347.244569 42.525149 
L 347.244569 40.39604 
L 347.781502 40.39604 
L 347.781502 38.266931 
L 348.308558 38.266931 
L 348.308558 36.137822 
L 349.56056 36.137822 
L 349.599954 31.879604 
L 349.696731 31.879604 
L 349.788552 25.492277 
L 351.75071 25.492277 
L 351.75071 23.363168 
L 351.996934 23.363168 
L 351.996934 21.234059 
L 352.815052 21.234059 
L 352.815052 19.10495 
L 353.416571 19.10495 
L 353.416571 16.975842 
L 354.064495 16.975842 
L 354.092041 12.717624 
L 357.923053 12.717624 
L 357.923053 10.588515 
L 361.42252 10.588515 
L 361.42252 8.459406 
L 363.3456 8.459406 
L 363.3456 6.330297 
L 363.3456 6.330297 
L 460.8 6.330297 
L 460.8 6.330297 
" style="fill:none;stroke:#ff0000;stroke-linecap:square;stroke-width:3;"/>
   </g>
   <g id="line2d_22">
    <path clip-path="url(#pa36689fe9b)" d="M 370.644114 293.76 
L 370.644114 291.630891 
L 377.790791 291.630891 
L 377.790791 289.501782 
L 379.519612 289.501782 
L 379.588384 285.243564 
L 382.015704 285.243564 
L 382.015704 283.114455 
L 383.38256 283.114455 
L 383.38256 280.985347 
L 385.451289 280.985347 
L 385.451289 278.856238 
L 386.114796 278.856238 
L 386.114796 276.727129 
L 387.572878 276.727129 
L 387.572878 274.59802 
L 387.768774 274.59802 
L 387.768774 272.468911 
L 388.940691 272.468911 
L 388.940691 270.339802 
L 389.127265 270.339802 
L 389.14854 266.081584 
L 389.890456 266.081584 
L 389.890456 263.952475 
L 393.858365 263.952475 
L 393.858365 261.823366 
L 394.389424 261.823366 
L 394.389424 259.694257 
L 395.008235 259.694257 
L 395.008235 257.565149 
L 396.488067 257.565149 
L 396.495447 253.306931 
L 397.0981 253.306931 
L 397.0981 251.177822 
L 397.263419 251.177822 
L 397.263419 249.048713 
L 398.312197 249.048713 
L 398.397782 244.790495 
L 398.582384 244.790495 
L 398.582384 242.661386 
L 399.649266 242.661386 
L 399.649266 240.532277 
L 400.650719 240.532277 
L 400.650719 238.403168 
L 400.861408 238.403168 
L 400.861408 236.274059 
L 401.006726 236.274059 
L 401.006726 234.14495 
L 401.124517 234.14495 
L 401.124517 232.015842 
L 401.544742 232.015842 
L 401.544742 229.886733 
L 401.696442 229.886733 
L 401.696442 227.757624 
L 402.211803 227.757624 
L 402.211803 225.628515 
L 402.361693 225.628515 
L 402.361693 223.499406 
L 402.482437 223.499406 
L 402.516471 219.241188 
L 402.786149 219.241188 
L 402.803849 214.98297 
L 403.062779 214.98297 
L 403.062779 212.853861 
L 403.190216 212.853861 
L 403.190216 210.724752 
L 403.797199 210.724752 
L 403.849404 206.466535 
L 404.460206 206.466535 
L 404.460206 204.337426 
L 404.633804 204.337426 
L 404.736515 200.079208 
L 405.241784 200.079208 
L 405.241784 197.950099 
L 405.783872 197.950099 
L 405.783872 195.82099 
L 406.140645 195.82099 
L 406.176346 191.562772 
L 406.290876 191.562772 
L 406.290876 189.433663 
L 406.722952 189.433663 
L 406.722952 187.304554 
L 407.233737 187.304554 
L 407.240432 183.046337 
L 407.385555 183.046337 
L 407.385555 180.917228 
L 407.917153 180.917228 
L 407.917153 178.788119 
L 408.05527 178.788119 
L 408.05527 176.65901 
L 408.290344 176.65901 
L 408.401081 170.271683 
L 408.438048 170.271683 
L 408.535378 166.013465 
L 408.575451 166.013465 
L 408.60575 161.755248 
L 409.221975 161.755248 
L 409.221975 159.626139 
L 409.708209 159.626139 
L 409.734277 155.367921 
L 410.237792 155.367921 
L 410.272715 151.109703 
L 410.362042 151.109703 
L 410.362042 148.980594 
L 410.530473 148.980594 
L 410.530473 146.851485 
L 410.656305 146.851485 
L 410.728377 142.593267 
L 410.985913 142.593267 
L 410.985913 140.464158 
L 411.636375 140.464158 
L 411.636375 138.33505 
L 412.29539 138.33505 
L 412.375227 134.076832 
L 412.76524 134.076832 
L 412.76524 131.947723 
L 413.099357 131.947723 
L 413.099357 129.818614 
L 414.36109 129.818614 
L 414.365732 125.560396 
L 414.671162 125.560396 
L 414.696824 121.302178 
L 415.231201 121.302178 
L 415.231201 119.173069 
L 415.374002 119.173069 
L 415.374002 117.04396 
L 416.066103 117.04396 
L 416.093686 112.785743 
L 416.215409 112.785743 
L 416.284071 108.527525 
L 416.397961 108.527525 
L 416.397961 106.398416 
L 416.714222 106.398416 
L 416.714222 104.269307 
L 416.82827 104.269307 
L 416.82827 102.140198 
L 417.095719 102.140198 
L 417.095719 100.011089 
L 417.271972 100.011089 
L 417.271972 97.88198 
L 417.47645 97.88198 
L 417.545951 93.623762 
L 417.626586 93.623762 
L 417.626586 91.494653 
L 418.062118 91.494653 
L 418.062118 89.365545 
L 418.563611 89.365545 
L 418.563611 87.236436 
L 419.411528 87.236436 
L 419.411528 85.107327 
L 419.70178 85.107327 
L 419.70178 82.978218 
L 420.221985 82.978218 
L 420.321353 78.72 
L 420.969132 78.72 
L 420.969132 76.590891 
L 421.301652 76.590891 
L 421.301652 74.461782 
L 422.146736 74.461782 
L 422.257021 68.074455 
L 422.658331 68.074455 
L 422.658331 65.945347 
L 423.067445 65.945347 
L 423.067445 63.816238 
L 423.284054 63.816238 
L 423.284054 61.687129 
L 423.50378 61.687129 
L 423.50378 59.55802 
L 423.629237 59.55802 
L 423.629237 57.428911 
L 423.774101 57.428911 
L 423.774101 55.299802 
L 424.487401 55.299802 
L 424.487401 53.170693 
L 424.604522 53.170693 
L 424.604522 51.041584 
L 424.863074 51.041584 
L 424.863074 48.912475 
L 425.538954 48.912475 
L 425.602242 44.654257 
L 426.222817 44.654257 
L 426.222817 42.525149 
L 426.819108 42.525149 
L 426.819108 40.39604 
L 428.76437 40.39604 
L 428.76437 38.266931 
L 429.149076 38.266931 
L 429.149076 36.137822 
L 429.474552 36.137822 
L 429.474552 34.008713 
L 429.816078 34.008713 
L 429.816078 31.879604 
L 431.063596 31.879604 
L 431.063596 29.750495 
L 431.413746 29.750495 
L 431.446393 25.492277 
L 431.677884 25.492277 
L 431.677884 23.363168 
L 431.911902 23.363168 
L 431.911902 21.234059 
L 432.121161 21.234059 
L 432.121161 19.10495 
L 432.415101 19.10495 
L 432.415101 16.975842 
L 432.801536 16.975842 
L 432.801536 14.846733 
L 432.930499 14.846733 
L 432.930499 12.717624 
L 436.651731 12.717624 
L 436.651731 10.588515 
L 436.771136 10.588515 
L 436.771136 8.459406 
L 438.460405 8.459406 
L 438.460405 6.330297 
L 438.460405 6.330297 
L 460.8 6.330297 
L 460.8 6.330297 
" style="fill:none;stroke:#00bfbf;stroke-linecap:square;stroke-width:1.5;"/>
   </g>
   <g id="line2d_23">
    <path clip-path="url(#pa36689fe9b)" d="M 337.014169 293.76 
L 337.014169 291.630891 
L 357.339225 291.630891 
L 357.339225 289.501782 
L 362.928819 289.501782 
L 362.928819 287.372673 
L 364.780113 287.372673 
L 364.780113 285.243564 
L 366.539302 285.243564 
L 366.539302 283.114455 
L 374.91464 283.114455 
L 374.91464 280.985347 
L 377.790791 280.985347 
L 377.790791 278.856238 
L 379.519612 278.856238 
L 379.588384 274.59802 
L 380.104373 274.59802 
L 380.104373 272.468911 
L 380.36428 272.468911 
L 380.36428 270.339802 
L 381.644469 270.339802 
L 381.644469 268.210693 
L 382.236585 268.210693 
L 382.236585 266.081584 
L 382.933476 266.081584 
L 382.933476 263.952475 
L 383.38256 263.952475 
L 383.38256 261.823366 
L 384.155704 261.823366 
L 384.209062 257.565149 
L 384.501934 257.565149 
L 384.501934 255.43604 
L 385.451289 255.43604 
L 385.451289 253.306931 
L 387.159411 253.306931 
L 387.159411 251.177822 
L 387.572878 251.177822 
L 387.572878 249.048713 
L 387.767452 249.048713 
L 387.768774 244.790495 
L 388.415607 244.790495 
L 388.415607 242.661386 
L 389.109643 242.661386 
L 389.170411 234.14495 
L 392.616953 234.14495 
L 392.616953 232.015842 
L 392.807839 232.015842 
L 392.87268 227.757624 
L 393.228979 227.757624 
L 393.228979 225.628515 
L 393.844983 225.628515 
L 393.844983 223.499406 
L 394.086012 223.499406 
L 394.086012 221.370297 
L 394.389424 221.370297 
L 394.389424 219.241188 
L 394.765393 219.241188 
L 394.765393 217.112079 
L 395.008235 217.112079 
L 395.008235 214.98297 
L 395.50431 214.98297 
L 395.50431 212.853861 
L 396.158065 212.853861 
L 396.158065 210.724752 
L 396.381785 210.724752 
L 396.488067 206.466535 
L 396.495447 206.466535 
L 396.495447 204.337426 
L 396.643225 204.337426 
L 396.643225 202.208317 
L 397.0981 202.208317 
L 397.103763 197.950099 
L 397.263419 197.950099 
L 397.338696 191.562772 
L 397.486176 191.562772 
L 397.486176 189.433663 
L 397.636895 189.433663 
L 397.636895 187.304554 
L 398.312197 187.304554 
L 398.312197 185.175446 
L 398.582384 185.175446 
L 398.582384 183.046337 
L 398.808705 183.046337 
L 398.808705 180.917228 
L 399.174425 180.917228 
L 399.174425 178.788119 
L 399.396635 178.788119 
L 399.396635 176.65901 
L 400.109494 176.65901 
L 400.109494 174.529901 
L 400.241068 174.529901 
L 400.241068 172.400792 
L 401.091522 172.400792 
L 401.091522 170.271683 
L 401.544742 170.271683 
L 401.544742 168.142574 
L 402.203574 168.142574 
L 402.211803 163.884356 
L 402.361693 163.884356 
L 402.361693 161.755248 
L 402.482437 161.755248 
L 402.482437 159.626139 
L 402.786149 159.626139 
L 402.786149 157.49703 
L 403.062779 157.49703 
L 403.062779 155.367921 
L 403.455565 155.367921 
L 403.455565 153.238812 
L 403.797199 153.238812 
L 403.849404 146.851485 
L 404.414845 146.851485 
L 404.460206 142.593267 
L 405.229783 142.593267 
L 405.229783 140.464158 
L 405.783872 140.464158 
L 405.783872 138.33505 
L 406.006953 138.33505 
L 406.006953 136.205941 
L 406.140645 136.205941 
L 406.176346 131.947723 
L 406.722952 131.947723 
L 406.722952 129.818614 
L 406.901969 129.818614 
L 406.901969 127.689505 
L 407.233737 127.689505 
L 407.240432 123.431287 
L 407.385555 123.431287 
L 407.385555 121.302178 
L 408.314701 121.302178 
L 408.391047 117.04396 
L 408.438048 117.04396 
L 408.438048 114.914851 
L 408.575451 114.914851 
L 408.575451 112.785743 
L 409.604128 112.785743 
L 409.604128 110.656634 
L 410.272715 110.656634 
L 410.362042 106.398416 
L 410.656305 106.398416 
L 410.728377 102.140198 
L 411.317444 102.140198 
L 411.317444 100.011089 
L 411.636375 100.011089 
L 411.636375 97.88198 
L 412.375227 97.88198 
L 412.375227 95.752871 
L 412.593905 95.752871 
L 412.593905 93.623762 
L 413.101181 93.623762 
L 413.172051 89.365545 
L 413.547603 89.365545 
L 413.547603 87.236436 
L 413.830735 87.236436 
L 413.830735 85.107327 
L 414.696824 85.107327 
L 414.800298 80.849109 
L 415.231201 80.849109 
L 415.231201 78.72 
L 415.542568 78.72 
L 415.542568 76.590891 
L 416.066103 76.590891 
L 416.125798 72.332673 
L 416.215409 72.332673 
L 416.215409 70.203564 
L 416.714222 70.203564 
L 416.818604 65.945347 
L 418.943103 65.945347 
L 418.943103 63.816238 
L 419.411528 63.816238 
L 419.411528 61.687129 
L 419.70178 61.687129 
L 419.70178 59.55802 
L 420.034447 59.55802 
L 420.034447 57.428911 
L 420.221985 57.428911 
L 420.221985 55.299802 
L 421.301652 55.299802 
L 421.301652 53.170693 
L 421.552513 53.170693 
L 421.552513 51.041584 
L 422.212253 51.041584 
L 422.212253 48.912475 
L 422.741547 48.912475 
L 422.741547 46.783366 
L 423.284054 46.783366 
L 423.329594 42.525149 
L 423.83198 42.525149 
L 423.83198 40.39604 
L 424.604522 40.39604 
L 424.604522 38.266931 
L 425.108702 38.266931 
L 425.108702 36.137822 
L 425.602242 36.137822 
L 425.602242 34.008713 
L 426.345037 34.008713 
L 426.345037 31.879604 
L 426.819108 31.879604 
L 426.869235 25.492277 
L 427.102391 25.492277 
L 427.102391 23.363168 
L 428.76437 23.363168 
L 428.76437 21.234059 
L 429.149076 21.234059 
L 429.149076 19.10495 
L 429.474552 19.10495 
L 429.474552 16.975842 
L 431.063596 16.975842 
L 431.063596 14.846733 
L 431.413746 14.846733 
L 431.446393 10.588515 
L 432.801536 10.588515 
L 432.801536 8.459406 
L 435.401463 8.459406 
L 435.401463 6.330297 
L 435.401463 6.330297 
L 460.8 6.330297 
L 460.8 6.330297 
" style="fill:none;stroke:#bf00bf;stroke-linecap:square;stroke-width:1.5;"/>
   </g>
   <g id="line2d_24">
    <path clip-path="url(#pa36689fe9b)" d="M 337.014169 293.76 
L 337.014169 291.630891 
L 354.631282 291.630891 
L 354.631282 289.501782 
L 357.339225 289.501782 
L 357.339225 287.372673 
L 359.139656 287.372673 
L 359.139656 285.243564 
L 362.928819 285.243564 
L 362.928819 283.114455 
L 364.780113 283.114455 
L 364.780113 280.985347 
L 366.539302 280.985347 
L 366.539302 278.856238 
L 368.589176 278.856238 
L 368.589176 276.727129 
L 371.26535 276.727129 
L 371.26535 274.59802 
L 371.519544 274.59802 
L 371.519544 272.468911 
L 372.344129 272.468911 
L 372.344129 270.339802 
L 373.710227 270.339802 
L 373.710227 268.210693 
L 373.935404 268.210693 
L 373.935404 266.081584 
L 374.26712 266.081584 
L 374.26712 263.952475 
L 374.91464 263.952475 
L 374.91464 261.823366 
L 377.492745 261.823366 
L 377.492745 259.694257 
L 377.712793 259.694257 
L 377.790791 255.43604 
L 377.972731 255.43604 
L 377.972731 253.306931 
L 379.588384 253.306931 
L 379.588384 251.177822 
L 380.104373 251.177822 
L 380.104373 249.048713 
L 381.254478 249.048713 
L 381.254478 246.919604 
L 381.644469 246.919604 
L 381.739955 242.661386 
L 382.236585 242.661386 
L 382.341398 238.403168 
L 382.524451 238.403168 
L 382.524712 234.14495 
L 382.933476 234.14495 
L 382.933476 232.015842 
L 383.083715 232.015842 
L 383.083715 229.886733 
L 383.633288 229.886733 
L 383.633288 227.757624 
L 384.155704 227.757624 
L 384.212099 223.499406 
L 384.519826 223.499406 
L 384.519826 221.370297 
L 385.451289 221.370297 
L 385.451289 219.241188 
L 385.690862 219.241188 
L 385.690862 217.112079 
L 386.557721 217.112079 
L 386.557721 214.98297 
L 387.159411 214.98297 
L 387.159411 212.853861 
L 388.386848 212.853861 
L 388.415607 208.595644 
L 388.635235 208.595644 
L 388.635235 206.466535 
L 389.046758 206.466535 
L 389.109643 202.208317 
L 389.170411 202.208317 
L 389.170411 200.079208 
L 390.795164 200.079208 
L 390.795164 197.950099 
L 391.268912 197.950099 
L 391.348979 193.691881 
L 392.296666 193.691881 
L 392.296666 191.562772 
L 392.616953 191.562772 
L 392.616953 189.433663 
L 392.807839 189.433663 
L 392.87268 183.046337 
L 393.228979 183.046337 
L 393.228979 180.917228 
L 393.618541 180.917228 
L 393.618541 178.788119 
L 393.844983 178.788119 
L 393.844983 176.65901 
L 394.048342 176.65901 
L 394.086012 172.400792 
L 394.765393 172.400792 
L 394.765393 170.271683 
L 395.085103 170.271683 
L 395.113526 166.013465 
L 395.584428 166.013465 
L 395.584428 163.884356 
L 396.063243 163.884356 
L 396.158065 159.626139 
L 396.428566 159.626139 
L 396.428566 157.49703 
L 396.643225 157.49703 
L 396.693142 153.238812 
L 397.0981 153.238812 
L 397.0981 151.109703 
L 397.409651 151.109703 
L 397.409651 148.980594 
L 397.636895 148.980594 
L 397.636895 146.851485 
L 398.001142 146.851485 
L 398.001142 144.722376 
L 398.312197 144.722376 
L 398.312197 142.593267 
L 398.808705 142.593267 
L 398.808705 140.464158 
L 399.588123 140.464158 
L 399.588123 138.33505 
L 399.744991 138.33505 
L 399.744991 136.205941 
L 400.241068 136.205941 
L 400.262697 131.947723 
L 401.509172 131.947723 
L 401.532978 127.689505 
L 401.699448 127.689505 
L 401.699448 125.560396 
L 402.164093 125.560396 
L 402.211803 119.173069 
L 402.482437 119.173069 
L 402.482437 117.04396 
L 402.611495 117.04396 
L 402.611495 114.914851 
L 403.142304 114.914851 
L 403.142304 112.785743 
L 403.34347 112.785743 
L 403.34347 110.656634 
L 403.455565 110.656634 
L 403.455565 108.527525 
L 403.797199 108.527525 
L 403.797199 106.398416 
L 404.017887 106.398416 
L 404.017887 104.269307 
L 404.414845 104.269307 
L 404.414845 102.140198 
L 404.772651 102.140198 
L 404.772651 100.011089 
L 405.504797 100.011089 
L 405.504797 97.88198 
L 405.77097 97.88198 
L 405.77097 95.752871 
L 406.006953 95.752871 
L 406.006953 93.623762 
L 406.140645 93.623762 
L 406.176346 89.365545 
L 406.684527 89.365545 
L 406.684527 87.236436 
L 407.240432 87.236436 
L 407.240432 85.107327 
L 407.385555 85.107327 
L 407.385555 82.978218 
L 407.864117 82.978218 
L 407.864117 80.849109 
L 408.348733 80.849109 
L 408.391047 76.590891 
L 408.575451 76.590891 
L 408.575451 74.461782 
L 410.006657 74.461782 
L 410.006657 72.332673 
L 410.217816 72.332673 
L 410.217816 70.203564 
L 410.552561 70.203564 
L 410.552561 68.074455 
L 410.728377 68.074455 
L 410.781429 63.816238 
L 411.361999 63.816238 
L 411.361999 61.687129 
L 411.763612 61.687129 
L 411.763612 59.55802 
L 412.593905 59.55802 
L 412.593905 57.428911 
L 412.982478 57.428911 
L 412.982478 55.299802 
L 413.325074 55.299802 
L 413.325074 53.170693 
L 413.533489 53.170693 
L 413.533489 51.041584 
L 414.872575 51.041584 
L 414.872575 48.912475 
L 415.231201 48.912475 
L 415.231201 46.783366 
L 415.695574 46.783366 
L 415.695574 44.654257 
L 415.850098 44.654257 
L 415.850098 42.525149 
L 416.121826 42.525149 
L 416.121826 40.39604 
L 417.300109 40.39604 
L 417.300109 38.266931 
L 418.779185 38.266931 
L 418.779185 36.137822 
L 418.943103 36.137822 
L 418.943103 34.008713 
L 419.453424 34.008713 
L 419.453424 31.879604 
L 419.70178 31.879604 
L 419.70178 29.750495 
L 421.301652 29.750495 
L 421.311739 25.492277 
L 421.595111 25.492277 
L 421.595111 23.363168 
L 422.672284 23.363168 
L 422.672284 21.234059 
L 423.316379 21.234059 
L 423.316379 19.10495 
L 423.589121 19.10495 
L 423.589121 16.975842 
L 426.032188 16.975842 
L 426.032188 14.846733 
L 429.150409 14.846733 
L 429.150409 12.717624 
L 429.474552 12.717624 
L 429.474552 10.588515 
L 430.326878 10.588515 
L 430.326878 8.459406 
L 431.061826 8.459406 
L 431.061826 6.330297 
L 431.061826 6.330297 
L 460.8 6.330297 
L 460.8 6.330297 
" style="fill:none;stroke:#000000;stroke-linecap:square;stroke-width:1.5;"/>
   </g>
   <g id="line2d_25">
    <path clip-path="url(#pa36689fe9b)" d="M 337.014169 293.76 
L 337.014169 291.630891 
L 340.742364 291.630891 
L 340.742364 289.501782 
L 350.789705 289.501782 
L 350.789705 287.372673 
L 352.530658 287.372673 
L 352.530658 285.243564 
L 353.435141 285.243564 
L 353.435141 283.114455 
L 356.051862 283.114455 
L 356.051862 280.985347 
L 356.356713 280.985347 
L 356.356713 278.856238 
L 357.339225 278.856238 
L 357.339225 276.727129 
L 357.925931 276.727129 
L 358.021001 272.468911 
L 359.139656 272.468911 
L 359.139656 270.339802 
L 361.387311 270.339802 
L 361.387311 268.210693 
L 362.157621 268.210693 
L 362.246188 263.952475 
L 364.780113 263.952475 
L 364.780113 261.823366 
L 366.440461 261.823366 
L 366.539302 257.565149 
L 366.777978 257.565149 
L 366.777978 255.43604 
L 367.694729 255.43604 
L 367.694729 253.306931 
L 368.076094 253.306931 
L 368.076094 251.177822 
L 368.589176 251.177822 
L 368.589176 249.048713 
L 369.99924 249.048713 
L 369.99924 246.919604 
L 370.149105 246.919604 
L 370.221991 242.661386 
L 372.398763 242.661386 
L 372.398763 240.532277 
L 373.168253 240.532277 
L 373.222912 236.274059 
L 373.710227 236.274059 
L 373.710227 234.14495 
L 373.935404 234.14495 
L 373.935404 232.015842 
L 374.91464 232.015842 
L 374.959654 227.757624 
L 376.722225 227.757624 
L 376.722225 225.628515 
L 377.548483 225.628515 
L 377.548483 223.499406 
L 377.712793 223.499406 
L 377.777306 219.241188 
L 377.861549 219.241188 
L 377.861549 217.112079 
L 378.376324 217.112079 
L 378.376324 214.98297 
L 380.104373 214.98297 
L 380.104373 212.853861 
L 381.254478 212.853861 
L 381.289709 208.595644 
L 381.419592 208.595644 
L 381.419592 206.466535 
L 381.739955 206.466535 
L 381.739955 204.337426 
L 381.874208 204.337426 
L 381.874208 202.208317 
L 382.133479 202.208317 
L 382.236585 197.950099 
L 382.391315 197.950099 
L 382.391315 195.82099 
L 382.524712 195.82099 
L 382.524712 193.691881 
L 382.71383 193.691881 
L 382.71383 191.562772 
L 382.933476 191.562772 
L 382.933476 189.433663 
L 383.674608 189.433663 
L 383.674608 187.304554 
L 384.519826 187.304554 
L 384.617085 183.046337 
L 385.644765 183.046337 
L 385.690862 178.788119 
L 385.875161 178.788119 
L 385.875161 176.65901 
L 386.126595 176.65901 
L 386.126595 174.529901 
L 386.274121 174.529901 
L 386.274121 172.400792 
L 386.461164 172.400792 
L 386.557721 166.013465 
L 386.959756 166.013465 
L 386.959756 163.884356 
L 387.122937 163.884356 
L 387.190484 157.49703 
L 387.794663 157.49703 
L 387.794663 155.367921 
L 388.314903 155.367921 
L 388.415607 148.980594 
L 388.660893 148.980594 
L 388.660893 146.851485 
L 388.79303 146.851485 
L 388.79303 144.722376 
L 389.170411 144.722376 
L 389.170411 142.593267 
L 389.325635 142.593267 
L 389.325635 140.464158 
L 390.795164 140.464158 
L 390.795164 138.33505 
L 390.925752 138.33505 
L 390.925752 136.205941 
L 391.348979 136.205941 
L 391.348979 134.076832 
L 392.296666 134.076832 
L 392.296666 131.947723 
L 392.616953 131.947723 
L 392.616953 129.818614 
L 392.807839 129.818614 
L 392.87268 125.560396 
L 393.684318 125.560396 
L 393.777184 121.302178 
L 393.844983 121.302178 
L 393.844983 119.173069 
L 394.048342 119.173069 
L 394.052852 114.914851 
L 394.357705 114.914851 
L 394.357705 112.785743 
L 395.117428 112.785743 
L 395.117428 110.656634 
L 395.424716 110.656634 
L 395.424716 108.527525 
L 395.58238 108.527525 
L 395.58238 106.398416 
L 396.024928 106.398416 
L 396.063243 102.140198 
L 396.492212 102.140198 
L 396.492212 100.011089 
L 397.301918 100.011089 
L 397.409651 95.752871 
L 397.472111 95.752871 
L 397.482446 91.494653 
L 397.899747 91.494653 
L 397.899747 89.365545 
L 398.030961 89.365545 
L 398.030961 87.236436 
L 398.694773 87.236436 
L 398.737624 82.978218 
L 398.808705 82.978218 
L 398.808705 80.849109 
L 399.471789 80.849109 
L 399.471789 78.72 
L 400.241068 78.72 
L 400.253866 74.461782 
L 402.254716 74.461782 
L 402.254716 72.332673 
L 402.482437 72.332673 
L 402.58033 68.074455 
L 402.91475 68.074455 
L 402.91475 65.945347 
L 403.142304 65.945347 
L 403.142304 63.816238 
L 403.455565 63.816238 
L 403.455565 61.687129 
L 403.76973 61.687129 
L 403.76973 59.55802 
L 404.024088 59.55802 
L 404.024088 57.428911 
L 404.217921 57.428911 
L 404.217921 55.299802 
L 404.772651 55.299802 
L 404.772651 53.170693 
L 405.375387 53.170693 
L 405.375387 51.041584 
L 405.504797 51.041584 
L 405.504797 48.912475 
L 405.77097 48.912475 
L 405.77097 46.783366 
L 406.118814 46.783366 
L 406.118814 44.654257 
L 406.432059 44.654257 
L 406.432059 42.525149 
L 407.227554 42.525149 
L 407.227554 40.39604 
L 407.409807 40.39604 
L 407.409807 38.266931 
L 408.171926 38.266931 
L 408.171926 36.137822 
L 408.391047 36.137822 
L 408.391047 34.008713 
L 408.877661 34.008713 
L 408.877661 31.879604 
L 409.237861 31.879604 
L 409.237861 29.750495 
L 409.44598 29.750495 
L 409.44598 27.621386 
L 411.049854 27.621386 
L 411.049854 25.492277 
L 411.361375 25.492277 
L 411.361999 21.234059 
L 411.617666 21.234059 
L 411.617666 19.10495 
L 411.763612 19.10495 
L 411.763612 16.975842 
L 412.52508 16.975842 
L 412.52508 14.846733 
L 412.917945 14.846733 
L 412.917945 12.717624 
L 413.30942 12.717624 
L 413.30942 10.588515 
L 415.532569 10.588515 
L 415.532569 8.459406 
L 427.774278 8.459406 
L 427.774278 6.330297 
L 427.774278 6.330297 
L 460.8 6.330297 
L 460.8 6.330297 
" style="fill:none;stroke:#00bfbf;stroke-linecap:square;stroke-width:1.5;"/>
   </g>
   <g id="line2d_26">
    <path clip-path="url(#pa36689fe9b)" d="M 336.214561 293.76 
L 336.214561 291.630891 
L 336.344872 291.630891 
L 336.344872 289.501782 
L 336.481264 289.501782 
L 336.481264 287.372673 
L 340.742364 287.372673 
L 340.742364 285.243564 
L 341.226598 285.243564 
L 341.226598 283.114455 
L 342.230586 283.114455 
L 342.230586 280.985347 
L 342.496351 280.985347 
L 342.496351 278.856238 
L 344.461897 278.856238 
L 344.461897 276.727129 
L 344.740972 276.727129 
L 344.740972 274.59802 
L 344.983891 274.59802 
L 344.983891 272.468911 
L 346.251343 272.468911 
L 346.251343 270.339802 
L 347.317326 270.339802 
L 347.317326 268.210693 
L 347.46239 268.210693 
L 347.46239 266.081584 
L 347.777623 266.081584 
L 347.777623 263.952475 
L 348.385805 263.952475 
L 348.385805 261.823366 
L 349.612246 261.823366 
L 349.612246 259.694257 
L 349.829987 259.694257 
L 349.829987 257.565149 
L 350.455868 257.565149 
L 350.455868 255.43604 
L 351.777955 255.43604 
L 351.777955 253.306931 
L 352.318886 253.306931 
L 352.318886 251.177822 
L 353.380222 251.177822 
L 353.380222 249.048713 
L 353.945403 249.048713 
L 353.945403 246.919604 
L 354.857009 246.919604 
L 354.951189 242.661386 
L 355.146013 242.661386 
L 355.146013 240.532277 
L 355.706761 240.532277 
L 355.763874 236.274059 
L 357.866268 236.274059 
L 357.866268 234.14495 
L 358.021001 234.14495 
L 358.021001 232.015842 
L 358.490112 232.015842 
L 358.592934 227.757624 
L 358.741933 227.757624 
L 358.819358 223.499406 
L 358.859921 223.499406 
L 358.963895 219.241188 
L 359.544389 219.241188 
L 359.544389 217.112079 
L 360.011344 217.112079 
L 360.021371 212.853861 
L 361.387311 212.853861 
L 361.387311 210.724752 
L 361.516026 210.724752 
L 361.612088 206.466535 
L 361.794677 206.466535 
L 361.794677 204.337426 
L 362.2351 204.337426 
L 362.246188 197.950099 
L 362.69101 197.950099 
L 362.69101 195.82099 
L 362.829647 195.82099 
L 362.829647 193.691881 
L 363.598193 193.691881 
L 363.598193 191.562772 
L 364.32623 191.562772 
L 364.422732 187.304554 
L 364.648986 187.304554 
L 364.648986 185.175446 
L 364.780113 185.175446 
L 364.82707 180.917228 
L 364.918797 180.917228 
L 364.989228 176.65901 
L 365.41241 176.65901 
L 365.436873 172.400792 
L 366.083704 172.400792 
L 366.083704 170.271683 
L 366.364402 170.271683 
L 366.42855 166.013465 
L 366.539302 166.013465 
L 366.543341 161.755248 
L 366.802548 161.755248 
L 366.802548 159.626139 
L 367.23465 159.626139 
L 367.23465 157.49703 
L 367.429401 157.49703 
L 367.429401 155.367921 
L 368.076094 155.367921 
L 368.177547 151.109703 
L 368.263392 151.109703 
L 368.263392 148.980594 
L 368.57106 148.980594 
L 368.57106 146.851485 
L 369.083064 146.851485 
L 369.091693 142.593267 
L 369.39175 142.593267 
L 369.39175 140.464158 
L 369.803216 140.464158 
L 369.803216 138.33505 
L 370.260837 138.33505 
L 370.260837 136.205941 
L 370.810295 136.205941 
L 370.810295 134.076832 
L 371.09915 134.076832 
L 371.09915 131.947723 
L 372.398763 131.947723 
L 372.398763 129.818614 
L 372.605636 129.818614 
L 372.605636 127.689505 
L 373.105901 127.689505 
L 373.105901 125.560396 
L 373.674147 125.560396 
L 373.710227 121.302178 
L 373.935404 121.302178 
L 373.935404 119.173069 
L 374.675843 119.173069 
L 374.782674 114.914851 
L 374.91464 114.914851 
L 374.91464 112.785743 
L 375.181541 112.785743 
L 375.181541 110.656634 
L 375.432386 110.656634 
L 375.432386 108.527525 
L 375.944799 108.527525 
L 375.955968 104.269307 
L 376.214073 104.269307 
L 376.225421 100.011089 
L 376.479367 100.011089 
L 376.479367 97.88198 
L 376.819791 97.88198 
L 376.819791 95.752871 
L 378.704774 95.752871 
L 378.704774 93.623762 
L 379.271798 93.623762 
L 379.379861 89.365545 
L 380.095752 89.365545 
L 380.095752 87.236436 
L 381.027769 87.236436 
L 381.027769 85.107327 
L 381.195802 85.107327 
L 381.195802 82.978218 
L 382.200504 82.978218 
L 382.200504 80.849109 
L 382.391315 80.849109 
L 382.398806 76.590891 
L 383.086593 76.590891 
L 383.086593 74.461782 
L 383.211521 74.461782 
L 383.211521 72.332673 
L 384.029835 72.332673 
L 384.029835 70.203564 
L 384.332477 70.203564 
L 384.332477 68.074455 
L 384.750993 68.074455 
L 384.788534 63.816238 
L 385.773697 63.816238 
L 385.773697 61.687129 
L 386.093684 61.687129 
L 386.177703 57.428911 
L 386.851827 57.428911 
L 386.851827 55.299802 
L 388.314903 55.299802 
L 388.314903 53.170693 
L 389.170411 53.170693 
L 389.170411 51.041584 
L 390.849203 51.041584 
L 390.925752 46.783366 
L 392.606962 46.783366 
L 392.674499 42.525149 
L 393.1762 42.525149 
L 393.1762 40.39604 
L 393.37569 40.39604 
L 393.37569 38.266931 
L 393.875281 38.266931 
L 393.875281 36.137822 
L 394.052852 36.137822 
L 394.052852 34.008713 
L 394.54037 34.008713 
L 394.54037 31.879604 
L 394.861173 31.879604 
L 394.861173 29.750495 
L 395.025517 29.750495 
L 395.025517 27.621386 
L 395.950616 27.621386 
L 395.950616 25.492277 
L 397.89447 25.492277 
L 397.89447 23.363168 
L 398.187604 23.363168 
L 398.187604 21.234059 
L 398.776989 21.234059 
L 398.776989 19.10495 
L 399.124223 19.10495 
L 399.124223 16.975842 
L 400.577308 16.975842 
L 400.577308 14.846733 
L 403.565402 14.846733 
L 403.565402 12.717624 
L 403.873513 12.717624 
L 403.873513 10.588515 
L 404.226141 10.588515 
L 404.314667 6.330297 
L 404.314667 6.330297 
L 460.8 6.330297 
L 460.8 6.330297 
" style="fill:none;stroke:#bf00bf;stroke-linecap:square;stroke-width:1.5;"/>
   </g>
   <g id="line2d_27">
    <path clip-path="url(#pa36689fe9b)" d="M 325.792405 293.76 
L 325.792405 291.630891 
L 330.232823 291.630891 
L 330.232823 289.501782 
L 331.740363 289.501782 
L 331.740363 287.372673 
L 332.19446 287.372673 
L 332.19446 285.243564 
L 332.4099 285.243564 
L 332.4099 283.114455 
L 333.795925 283.114455 
L 333.795925 280.985347 
L 334.26413 280.985347 
L 334.26413 278.856238 
L 334.482913 278.856238 
L 334.482913 276.727129 
L 334.843607 276.727129 
L 334.843607 274.59802 
L 335.356401 274.59802 
L 335.437694 270.339802 
L 336.056201 270.339802 
L 336.056201 268.210693 
L 336.343909 268.210693 
L 336.343909 266.081584 
L 337.190283 266.081584 
L 337.190283 263.952475 
L 337.53081 263.952475 
L 337.638737 259.694257 
L 337.705696 259.694257 
L 337.705696 257.565149 
L 339.755331 257.565149 
L 339.755331 255.43604 
L 339.915501 255.43604 
L 339.915501 253.306931 
L 340.309258 253.306931 
L 340.309258 251.177822 
L 340.605286 251.177822 
L 340.605286 249.048713 
L 340.742364 249.048713 
L 340.742364 246.919604 
L 341.546861 246.919604 
L 341.582851 242.661386 
L 343.235289 242.661386 
L 343.235289 240.532277 
L 343.633259 240.532277 
L 343.633259 238.403168 
L 344.750788 238.403168 
L 344.750788 236.274059 
L 344.983891 236.274059 
L 344.983891 234.14495 
L 345.150786 234.14495 
L 345.150786 232.015842 
L 345.267195 232.015842 
L 345.289022 227.757624 
L 345.703665 227.757624 
L 345.703665 225.628515 
L 346.293379 225.628515 
L 346.293379 223.499406 
L 346.43645 223.499406 
L 346.43645 221.370297 
L 346.771875 221.370297 
L 346.861287 217.112079 
L 347.533375 217.112079 
L 347.547757 212.853861 
L 347.663014 212.853861 
L 347.663014 210.724752 
L 347.777623 210.724752 
L 347.777623 208.595644 
L 347.931881 208.595644 
L 347.931881 206.466535 
L 348.34202 206.466535 
L 348.34202 204.337426 
L 348.669565 204.337426 
L 348.780484 200.079208 
L 348.92086 200.079208 
L 348.92086 197.950099 
L 349.314402 197.950099 
L 349.314402 195.82099 
L 349.788552 195.82099 
L 349.788552 193.691881 
L 350.455868 193.691881 
L 350.532753 189.433663 
L 350.750744 189.433663 
L 350.844157 185.175446 
L 351.018968 185.175446 
L 351.018968 183.046337 
L 351.308448 183.046337 
L 351.308448 180.917228 
L 351.45268 180.917228 
L 351.45268 178.788119 
L 351.777955 178.788119 
L 351.777955 176.65901 
L 352.526544 176.65901 
L 352.537144 172.400792 
L 352.955709 172.400792 
L 352.955709 170.271683 
L 353.548166 170.271683 
L 353.548166 168.142574 
L 353.702153 168.142574 
L 353.702153 166.013465 
L 353.833791 166.013465 
L 353.924631 161.755248 
L 354.130861 161.755248 
L 354.130861 159.626139 
L 354.669305 159.626139 
L 354.699015 155.367921 
L 354.854357 155.367921 
L 354.854357 153.238812 
L 355.146013 153.238812 
L 355.146013 151.109703 
L 355.524294 151.109703 
L 355.524294 148.980594 
L 355.759386 148.980594 
L 355.759386 146.851485 
L 356.300728 146.851485 
L 356.300728 144.722376 
L 356.851975 144.722376 
L 356.851975 142.593267 
L 357.179068 142.593267 
L 357.179068 140.464158 
L 358.021001 140.464158 
L 358.021001 138.33505 
L 358.151396 138.33505 
L 358.231134 134.076832 
L 358.315669 134.076832 
L 358.382778 127.689505 
L 358.59288 127.689505 
L 358.592934 123.431287 
L 358.883583 123.431287 
L 358.883583 121.302178 
L 359.01049 121.302178 
L 359.01049 119.173069 
L 359.572665 119.173069 
L 359.572665 117.04396 
L 359.910342 117.04396 
L 360.021371 108.527525 
L 360.355022 108.527525 
L 360.355022 106.398416 
L 360.839996 106.398416 
L 360.839996 104.269307 
L 360.959942 104.269307 
L 361.028979 97.88198 
L 361.078264 97.88198 
L 361.078264 95.752871 
L 361.367977 95.752871 
L 361.367977 93.623762 
L 361.50004 93.623762 
L 361.58134 89.365545 
L 362.0065 89.365545 
L 362.00836 85.107327 
L 362.282222 85.107327 
L 362.282222 82.978218 
L 362.771414 82.978218 
L 362.771414 80.849109 
L 362.93305 80.849109 
L 362.93305 78.72 
L 363.04756 78.72 
L 363.04756 76.590891 
L 363.255876 76.590891 
L 363.255876 74.461782 
L 363.966075 74.461782 
L 363.966075 72.332673 
L 364.730759 72.332673 
L 364.730759 70.203564 
L 365.434324 70.203564 
L 365.434324 68.074455 
L 365.710162 68.074455 
L 365.775572 63.816238 
L 366.039745 63.816238 
L 366.039745 61.687129 
L 366.157956 61.687129 
L 366.157956 59.55802 
L 366.333677 59.55802 
L 366.333677 57.428911 
L 366.537819 57.428911 
L 366.537819 55.299802 
L 366.674634 55.299802 
L 366.674634 53.170693 
L 366.875747 53.170693 
L 366.875747 51.041584 
L 367.23465 51.041584 
L 367.23465 48.912475 
L 369.478958 48.912475 
L 369.478958 46.783366 
L 369.803216 46.783366 
L 369.803216 44.654257 
L 370.269452 44.654257 
L 370.269452 42.525149 
L 370.66432 42.525149 
L 370.66432 40.39604 
L 370.985802 40.39604 
L 370.985802 38.266931 
L 371.350169 38.266931 
L 371.350169 36.137822 
L 371.909798 36.137822 
L 371.909798 34.008713 
L 372.398763 34.008713 
L 372.398763 31.879604 
L 372.619803 31.879604 
L 372.619803 29.750495 
L 374.129163 29.750495 
L 374.129163 27.621386 
L 375.392773 27.621386 
L 375.392773 25.492277 
L 375.984885 25.492277 
L 375.984885 23.363168 
L 377.456187 23.363168 
L 377.456187 21.234059 
L 377.727537 21.234059 
L 377.727537 19.10495 
L 381.764264 19.10495 
L 381.764264 16.975842 
L 382.628579 16.975842 
L 382.628579 14.846733 
L 383.086593 14.846733 
L 383.086593 12.717624 
L 383.428182 12.717624 
L 383.428182 10.588515 
L 384.274748 10.588515 
L 384.274748 8.459406 
L 385.515122 8.459406 
L 385.515122 6.330297 
L 385.515122 6.330297 
L 460.8 6.330297 
L 460.8 6.330297 
" style="fill:none;stroke:#000000;stroke-linecap:square;stroke-width:1.5;"/>
   </g>
   <g id="line2d_28">
    <path clip-path="url(#pa36689fe9b)" d="M 313.010167 293.76 
L 313.010167 291.630891 
L 318.779999 291.630891 
L 318.779999 289.501782 
L 320.762728 289.501782 
L 320.762728 287.372673 
L 321.451116 287.372673 
L 321.451116 285.243564 
L 322.19006 285.243564 
L 322.19006 283.114455 
L 322.583502 283.114455 
L 322.583502 280.985347 
L 322.876443 280.985347 
L 322.876443 278.856238 
L 323.494537 278.856238 
L 323.498023 274.59802 
L 323.866256 274.59802 
L 323.866256 272.468911 
L 324.578728 272.468911 
L 324.578728 270.339802 
L 324.904412 270.339802 
L 324.904412 268.210693 
L 325.456729 268.210693 
L 325.456729 266.081584 
L 325.792405 266.081584 
L 325.792405 263.952475 
L 326.141042 263.952475 
L 326.141042 261.823366 
L 326.619257 261.823366 
L 326.619257 259.694257 
L 326.848092 259.694257 
L 326.855916 255.43604 
L 327.007956 255.43604 
L 327.007956 253.306931 
L 327.340468 253.306931 
L 327.340468 251.177822 
L 327.846447 251.177822 
L 327.846447 249.048713 
L 328.204187 249.048713 
L 328.204187 246.919604 
L 328.518452 246.919604 
L 328.518452 244.790495 
L 328.994696 244.790495 
L 328.994696 242.661386 
L 329.14654 242.661386 
L 329.216121 238.403168 
L 329.763805 238.403168 
L 329.763805 236.274059 
L 330.845772 236.274059 
L 330.845772 234.14495 
L 331.425548 234.14495 
L 331.425548 232.015842 
L 332.021713 232.015842 
L 332.021713 229.886733 
L 332.15183 229.886733 
L 332.228769 225.628515 
L 332.292028 225.628515 
L 332.292028 223.499406 
L 332.83528 223.499406 
L 332.83528 221.370297 
L 333.169755 221.370297 
L 333.169755 219.241188 
L 334.722788 219.241188 
L 334.805431 214.98297 
L 334.970461 214.98297 
L 334.970461 212.853861 
L 335.323628 212.853861 
L 335.420886 208.595644 
L 335.437694 208.595644 
L 335.437694 206.466535 
L 335.716263 206.466535 
L 335.716263 204.337426 
L 336.04382 204.337426 
L 336.04382 202.208317 
L 336.653043 202.208317 
L 336.684804 197.950099 
L 337.12902 197.950099 
L 337.12902 195.82099 
L 337.537837 195.82099 
L 337.638737 191.562772 
L 338.10621 191.562772 
L 338.10621 189.433663 
L 338.223324 189.433663 
L 338.223324 187.304554 
L 339.448532 187.304554 
L 339.448532 185.175446 
L 339.638587 185.175446 
L 339.638587 183.046337 
L 340.189729 183.046337 
L 340.189729 180.917228 
L 340.940493 180.917228 
L 340.940493 178.788119 
L 341.05744 178.788119 
L 341.05744 176.65901 
L 341.546861 176.65901 
L 341.614478 172.400792 
L 341.740782 172.400792 
L 341.740782 170.271683 
L 342.016193 170.271683 
L 342.016193 168.142574 
L 342.226569 168.142574 
L 342.226569 166.013465 
L 342.625814 166.013465 
L 342.625814 163.884356 
L 343.008038 163.884356 
L 343.058162 159.626139 
L 343.227693 159.626139 
L 343.227693 157.49703 
L 343.349377 157.49703 
L 343.349377 155.367921 
L 343.55398 155.367921 
L 343.55398 153.238812 
L 343.863413 153.238812 
L 343.945311 146.851485 
L 343.977632 146.851485 
L 344.023454 142.593267 
L 344.57868 142.593267 
L 344.57868 140.464158 
L 344.750788 140.464158 
L 344.787389 136.205941 
L 345.150786 136.205941 
L 345.150786 134.076832 
L 345.786943 134.076832 
L 345.786943 131.947723 
L 346.433124 131.947723 
L 346.504707 127.689505 
L 346.823416 127.689505 
L 346.823416 125.560396 
L 346.982619 125.560396 
L 347.090354 119.173069 
L 347.326728 119.173069 
L 347.326728 117.04396 
L 347.533375 117.04396 
L 347.533375 114.914851 
L 347.691349 114.914851 
L 347.691349 112.785743 
L 348.124556 112.785743 
L 348.172709 108.527525 
L 348.245667 108.527525 
L 348.250023 104.269307 
L 348.396172 104.269307 
L 348.396172 102.140198 
L 349.128761 102.140198 
L 349.128761 100.011089 
L 349.368229 100.011089 
L 349.368229 97.88198 
L 349.65059 97.88198 
L 349.666824 93.623762 
L 349.788552 93.623762 
L 349.788552 91.494653 
L 350.455868 91.494653 
L 350.455868 89.365545 
L 350.658729 89.365545 
L 350.743292 85.107327 
L 350.832324 85.107327 
L 350.832324 82.978218 
L 351.018968 82.978218 
L 351.018968 80.849109 
L 352.079177 80.849109 
L 352.174139 76.590891 
L 352.200316 76.590891 
L 352.200316 74.461782 
L 352.537144 74.461782 
L 352.618067 68.074455 
L 352.999929 68.074455 
L 353.072835 63.816238 
L 353.148772 63.816238 
L 353.148772 61.687129 
L 353.388021 61.687129 
L 353.422748 57.428911 
L 353.924631 57.428911 
L 353.924631 55.299802 
L 354.190079 55.299802 
L 354.190079 53.170693 
L 354.526776 53.170693 
L 354.526776 51.041584 
L 354.669305 51.041584 
L 354.669305 48.912475 
L 355.01586 48.912475 
L 355.01586 46.783366 
L 355.524294 46.783366 
L 355.524294 44.654257 
L 356.180986 44.654257 
L 356.180986 42.525149 
L 356.576639 42.525149 
L 356.576639 40.39604 
L 356.785956 40.39604 
L 356.785956 38.266931 
L 357.020892 38.266931 
L 357.020892 36.137822 
L 358.151396 36.137822 
L 358.164279 31.879604 
L 359.01049 31.879604 
L 359.045789 27.621386 
L 360.606987 27.621386 
L 360.611601 23.363168 
L 360.979933 23.363168 
L 360.979933 21.234059 
L 362.662988 21.234059 
L 362.662988 19.10495 
L 363.571647 19.10495 
L 363.571647 16.975842 
L 365.148561 16.975842 
L 365.148561 14.846733 
L 365.434324 14.846733 
L 365.434324 12.717624 
L 369.162352 12.717624 
L 369.162352 10.588515 
L 370.66432 10.588515 
L 370.66432 8.459406 
L 375.185745 8.459406 
L 375.185745 6.330297 
L 375.185745 6.330297 
L 460.8 6.330297 
L 460.8 6.330297 
" style="fill:none;stroke:#00bfbf;stroke-linecap:square;stroke-width:1.5;"/>
   </g>
   <g id="line2d_29">
    <path clip-path="url(#pa36689fe9b)" d="M 310.721933 293.76 
L 310.721933 291.630891 
L 313.010167 291.630891 
L 313.010167 289.501782 
L 314.676832 289.501782 
L 314.676832 287.372673 
L 315.088773 287.372673 
L 315.088773 285.243564 
L 315.481949 285.243564 
L 315.523768 280.985347 
L 315.806916 280.985347 
L 315.806916 278.856238 
L 316.139838 278.856238 
L 316.208046 274.59802 
L 316.270593 274.59802 
L 316.270593 272.468911 
L 316.599386 272.468911 
L 316.599386 270.339802 
L 317.908099 270.339802 
L 317.973985 266.081584 
L 318.246227 266.081584 
L 318.246227 263.952475 
L 318.911557 263.952475 
L 318.911557 261.823366 
L 319.744205 261.823366 
L 319.744205 259.694257 
L 319.889556 259.694257 
L 319.889556 257.565149 
L 320.029089 257.565149 
L 320.107467 253.306931 
L 320.865643 253.306931 
L 320.910339 249.048713 
L 321.074675 249.048713 
L 321.074675 246.919604 
L 321.235906 246.919604 
L 321.235906 244.790495 
L 322.133138 244.790495 
L 322.19006 240.532277 
L 322.262613 240.532277 
L 322.262613 238.403168 
L 322.682224 238.403168 
L 322.682224 236.274059 
L 323.026379 236.274059 
L 323.046698 232.015842 
L 323.416413 232.015842 
L 323.416413 229.886733 
L 323.625015 229.886733 
L 323.625015 227.757624 
L 323.866256 227.757624 
L 323.866256 225.628515 
L 324.287218 225.628515 
L 324.287218 223.499406 
L 324.457316 223.499406 
L 324.470267 219.241188 
L 325.059452 219.241188 
L 325.059452 217.112079 
L 325.906851 217.112079 
L 325.933287 212.853861 
L 326.141042 212.853861 
L 326.151232 208.595644 
L 326.415659 208.595644 
L 326.415659 206.466535 
L 327.340468 206.466535 
L 327.381192 202.208317 
L 327.555416 202.208317 
L 327.62402 197.950099 
L 327.778644 197.950099 
L 327.846447 193.691881 
L 328.353455 193.691881 
L 328.353455 191.562772 
L 328.637677 191.562772 
L 328.637677 189.433663 
L 329.274296 189.433663 
L 329.274296 187.304554 
L 329.39674 187.304554 
L 329.39674 185.175446 
L 330.426295 185.175446 
L 330.426295 183.046337 
L 330.545995 183.046337 
L 330.545995 180.917228 
L 330.898854 180.917228 
L 330.898854 178.788119 
L 331.553169 178.788119 
L 331.553169 176.65901 
L 333.289144 176.65901 
L 333.289144 174.529901 
L 333.498964 174.529901 
L 333.575327 168.142574 
L 334.970461 168.142574 
L 334.970461 166.013465 
L 335.348518 166.013465 
L 335.426747 159.626139 
L 336.032562 159.626139 
L 336.100589 153.238812 
L 337.038639 153.238812 
L 337.12902 148.980594 
L 337.379024 148.980594 
L 337.437762 144.722376 
L 337.638737 144.722376 
L 337.638737 142.593267 
L 338.073483 142.593267 
L 338.169803 136.205941 
L 338.250011 136.205941 
L 338.250011 134.076832 
L 338.618814 134.076832 
L 338.658451 129.818614 
L 338.963174 129.818614 
L 338.963174 127.689505 
L 339.283717 127.689505 
L 339.283717 125.560396 
L 339.439798 125.560396 
L 339.529131 121.302178 
L 339.637992 121.302178 
L 339.637992 119.173069 
L 339.878723 119.173069 
L 339.878723 117.04396 
L 340.087781 117.04396 
L 340.197289 106.398416 
L 340.20353 106.398416 
L 340.20353 104.269307 
L 340.398945 104.269307 
L 340.427593 100.011089 
L 340.55507 100.011089 
L 340.55507 97.88198 
L 340.921967 97.88198 
L 340.921967 95.752871 
L 341.05744 95.752871 
L 341.145259 91.494653 
L 341.614478 91.494653 
L 341.677748 85.107327 
L 341.995852 85.107327 
L 341.995852 82.978218 
L 342.160283 82.978218 
L 342.160283 80.849109 
L 343.008038 80.849109 
L 343.104229 76.590891 
L 343.139579 76.590891 
L 343.227693 72.332673 
L 343.349377 72.332673 
L 343.349377 70.203564 
L 343.523189 70.203564 
L 343.523189 68.074455 
L 343.878484 68.074455 
L 343.878484 65.945347 
L 344.397771 65.945347 
L 344.397771 63.816238 
L 344.527629 63.816238 
L 344.527629 61.687129 
L 344.842217 61.687129 
L 344.946683 53.170693 
L 345.184866 53.170693 
L 345.184866 51.041584 
L 345.398885 51.041584 
L 345.398885 48.912475 
L 346.069035 48.912475 
L 346.069035 46.783366 
L 346.709993 46.783366 
L 346.709993 44.654257 
L 346.9143 44.654257 
L 346.9143 42.525149 
L 347.244569 42.525149 
L 347.244569 40.39604 
L 347.781502 40.39604 
L 347.781502 38.266931 
L 348.308558 38.266931 
L 348.308558 36.137822 
L 349.56056 36.137822 
L 349.599954 31.879604 
L 349.696731 31.879604 
L 349.788552 25.492277 
L 351.75071 25.492277 
L 351.75071 23.363168 
L 351.996934 23.363168 
L 351.996934 21.234059 
L 352.815052 21.234059 
L 352.815052 19.10495 
L 353.416571 19.10495 
L 353.416571 16.975842 
L 354.064495 16.975842 
L 354.092041 12.717624 
L 357.923053 12.717624 
L 357.923053 10.588515 
L 361.42252 10.588515 
L 361.42252 8.459406 
L 363.3456 8.459406 
L 363.3456 6.330297 
L 363.3456 6.330297 
L 460.8 6.330297 
L 460.8 6.330297 
" style="fill:none;stroke:#bf00bf;stroke-linecap:square;stroke-width:1.5;"/>
   </g>
   <g id="patch_3">
    <path d="M 0 293.76 
L 0 3.456 
" style="fill:none;stroke:#000000;stroke-linecap:square;stroke-linejoin:miter;stroke-width:0.8;"/>
   </g>
   <g id="patch_4">
    <path d="M 460.8 293.76 
L 460.8 3.456 
" style="fill:none;stroke:#000000;stroke-linecap:square;stroke-linejoin:miter;stroke-width:0.8;"/>
   </g>
   <g id="patch_5">
    <path d="M 0 293.76 
L 460.8 293.76 
" style="fill:none;stroke:#000000;stroke-linecap:square;stroke-linejoin:miter;stroke-width:0.8;"/>
   </g>
   <g id="patch_6">
    <path d="M 0 3.456 
L 460.8 3.456 
" style="fill:none;stroke:#000000;stroke-linecap:square;stroke-linejoin:miter;stroke-width:0.8;"/>
   </g>
   <g id="text_6">
    <!-- {f6, f12, f18, f24, f30, f36, f42, f48, f54}, 5-D -->
    <g transform="translate(-3.30975 287.95392)scale(0.2 -0.2)">
     <defs>
      <path d="M 51.125 -9.28125 
L 51.125 -16.3125 
L 48.09375 -16.3125 
Q 35.9375 -16.3125 31.8125 -12.6875 
Q 27.6875 -9.078125 27.6875 1.703125 
L 27.6875 13.375 
Q 27.6875 20.75 25.046875 23.578125 
Q 22.40625 26.421875 15.484375 26.421875 
L 12.5 26.421875 
L 12.5 33.40625 
L 15.484375 33.40625 
Q 22.46875 33.40625 25.078125 36.203125 
Q 27.6875 39.015625 27.6875 46.296875 
L 27.6875 58.015625 
Q 27.6875 68.796875 31.8125 72.390625 
Q 35.9375 75.984375 48.09375 75.984375 
L 51.125 75.984375 
L 51.125 69 
L 47.796875 69 
Q 40.921875 69 38.8125 66.84375 
Q 36.71875 64.703125 36.71875 57.8125 
L 36.71875 45.703125 
Q 36.71875 38.03125 34.5 34.5625 
Q 32.28125 31.109375 26.90625 29.890625 
Q 32.328125 28.5625 34.515625 25.09375 
Q 36.71875 21.625 36.71875 14.015625 
L 36.71875 1.90625 
Q 36.71875 -4.984375 38.8125 -7.125 
Q 40.921875 -9.28125 47.796875 -9.28125 
z
" id="DejaVuSans-123"/>
      <path d="M 33.015625 40.375 
Q 26.375 40.375 22.484375 35.828125 
Q 18.609375 31.296875 18.609375 23.390625 
Q 18.609375 15.53125 22.484375 10.953125 
Q 26.375 6.390625 33.015625 6.390625 
Q 39.65625 6.390625 43.53125 10.953125 
Q 47.40625 15.53125 47.40625 23.390625 
Q 47.40625 31.296875 43.53125 35.828125 
Q 39.65625 40.375 33.015625 40.375 
z
M 52.59375 71.296875 
L 52.59375 62.3125 
Q 48.875 64.0625 45.09375 64.984375 
Q 41.3125 65.921875 37.59375 65.921875 
Q 27.828125 65.921875 22.671875 59.328125 
Q 17.53125 52.734375 16.796875 39.40625 
Q 19.671875 43.65625 24.015625 45.921875 
Q 28.375 48.1875 33.59375 48.1875 
Q 44.578125 48.1875 50.953125 41.515625 
Q 57.328125 34.859375 57.328125 23.390625 
Q 57.328125 12.15625 50.6875 5.359375 
Q 44.046875 -1.421875 33.015625 -1.421875 
Q 20.359375 -1.421875 13.671875 8.265625 
Q 6.984375 17.96875 6.984375 36.375 
Q 6.984375 53.65625 15.1875 63.9375 
Q 23.390625 74.21875 37.203125 74.21875 
Q 40.921875 74.21875 44.703125 73.484375 
Q 48.484375 72.75 52.59375 71.296875 
z
" id="DejaVuSans-54"/>
      <path d="M 11.71875 12.40625 
L 22.015625 12.40625 
L 22.015625 4 
L 14.015625 -11.625 
L 7.71875 -11.625 
L 11.71875 4 
z
" id="DejaVuSans-44"/>
      <path d="M 31.78125 34.625 
Q 24.75 34.625 20.71875 30.859375 
Q 16.703125 27.09375 16.703125 20.515625 
Q 16.703125 13.921875 20.71875 10.15625 
Q 24.75 6.390625 31.78125 6.390625 
Q 38.8125 6.390625 42.859375 10.171875 
Q 46.921875 13.96875 46.921875 20.515625 
Q 46.921875 27.09375 42.890625 30.859375 
Q 38.875 34.625 31.78125 34.625 
z
M 21.921875 38.8125 
Q 15.578125 40.375 12.03125 44.71875 
Q 8.5 49.078125 8.5 55.328125 
Q 8.5 64.0625 14.71875 69.140625 
Q 20.953125 74.21875 31.78125 74.21875 
Q 42.671875 74.21875 48.875 69.140625 
Q 55.078125 64.0625 55.078125 55.328125 
Q 55.078125 49.078125 51.53125 44.71875 
Q 48 40.375 41.703125 38.8125 
Q 48.828125 37.15625 52.796875 32.3125 
Q 56.78125 27.484375 56.78125 20.515625 
Q 56.78125 9.90625 50.3125 4.234375 
Q 43.84375 -1.421875 31.78125 -1.421875 
Q 19.734375 -1.421875 13.25 4.234375 
Q 6.78125 9.90625 6.78125 20.515625 
Q 6.78125 27.484375 10.78125 32.3125 
Q 14.796875 37.15625 21.921875 38.8125 
z
M 18.3125 54.390625 
Q 18.3125 48.734375 21.84375 45.5625 
Q 25.390625 42.390625 31.78125 42.390625 
Q 38.140625 42.390625 41.71875 45.5625 
Q 45.3125 48.734375 45.3125 54.390625 
Q 45.3125 60.0625 41.71875 63.234375 
Q 38.140625 66.40625 31.78125 66.40625 
Q 25.390625 66.40625 21.84375 63.234375 
Q 18.3125 60.0625 18.3125 54.390625 
z
" id="DejaVuSans-56"/>
      <path d="M 40.578125 39.3125 
Q 47.65625 37.796875 51.625 33 
Q 55.609375 28.21875 55.609375 21.1875 
Q 55.609375 10.40625 48.1875 4.484375 
Q 40.765625 -1.421875 27.09375 -1.421875 
Q 22.515625 -1.421875 17.65625 -0.515625 
Q 12.796875 0.390625 7.625 2.203125 
L 7.625 11.71875 
Q 11.71875 9.328125 16.59375 8.109375 
Q 21.484375 6.890625 26.8125 6.890625 
Q 36.078125 6.890625 40.9375 10.546875 
Q 45.796875 14.203125 45.796875 21.1875 
Q 45.796875 27.640625 41.28125 31.265625 
Q 36.765625 34.90625 28.71875 34.90625 
L 20.21875 34.90625 
L 20.21875 43.015625 
L 29.109375 43.015625 
Q 36.375 43.015625 40.234375 45.921875 
Q 44.09375 48.828125 44.09375 54.296875 
Q 44.09375 59.90625 40.109375 62.90625 
Q 36.140625 65.921875 28.71875 65.921875 
Q 24.65625 65.921875 20.015625 65.03125 
Q 15.375 64.15625 9.8125 62.3125 
L 9.8125 71.09375 
Q 15.4375 72.65625 20.34375 73.4375 
Q 25.25 74.21875 29.59375 74.21875 
Q 40.828125 74.21875 47.359375 69.109375 
Q 53.90625 64.015625 53.90625 55.328125 
Q 53.90625 49.265625 50.4375 45.09375 
Q 46.96875 40.921875 40.578125 39.3125 
z
" id="DejaVuSans-51"/>
      <path d="M 12.5 -9.28125 
L 15.921875 -9.28125 
Q 22.75 -9.28125 24.828125 -7.171875 
Q 26.90625 -5.078125 26.90625 1.90625 
L 26.90625 14.015625 
Q 26.90625 21.625 29.09375 25.09375 
Q 31.296875 28.5625 36.71875 29.890625 
Q 31.296875 31.109375 29.09375 34.5625 
Q 26.90625 38.03125 26.90625 45.703125 
L 26.90625 57.8125 
Q 26.90625 64.75 24.828125 66.875 
Q 22.75 69 15.921875 69 
L 12.5 69 
L 12.5 75.984375 
L 15.578125 75.984375 
Q 27.734375 75.984375 31.8125 72.390625 
Q 35.890625 68.796875 35.890625 58.015625 
L 35.890625 46.296875 
Q 35.890625 39.015625 38.515625 36.203125 
Q 41.15625 33.40625 48.09375 33.40625 
L 51.125 33.40625 
L 51.125 26.421875 
L 48.09375 26.421875 
Q 41.15625 26.421875 38.515625 23.578125 
Q 35.890625 20.75 35.890625 13.375 
L 35.890625 1.703125 
Q 35.890625 -9.078125 31.8125 -12.6875 
Q 27.734375 -16.3125 15.578125 -16.3125 
L 12.5 -16.3125 
z
" id="DejaVuSans-125"/>
     </defs>
     <use xlink:href="#DejaVuSans-123"/>
     <use x="63.623047" xlink:href="#DejaVuSans-102"/>
     <use x="98.828125" xlink:href="#DejaVuSans-54"/>
     <use x="162.451172" xlink:href="#DejaVuSans-44"/>
     <use x="194.238281" xlink:href="#DejaVuSans-32"/>
     <use x="226.025391" xlink:href="#DejaVuSans-102"/>
     <use x="261.230469" xlink:href="#DejaVuSans-49"/>
     <use x="324.853516" xlink:href="#DejaVuSans-50"/>
     <use x="388.476562" xlink:href="#DejaVuSans-44"/>
     <use x="420.263672" xlink:href="#DejaVuSans-32"/>
     <use x="452.050781" xlink:href="#DejaVuSans-102"/>
     <use x="487.255859" xlink:href="#DejaVuSans-49"/>
     <use x="550.878906" xlink:href="#DejaVuSans-56"/>
     <use x="614.501953" xlink:href="#DejaVuSans-44"/>
     <use x="646.289062" xlink:href="#DejaVuSans-32"/>
     <use x="678.076172" xlink:href="#DejaVuSans-102"/>
     <use x="713.28125" xlink:href="#DejaVuSans-50"/>
     <use x="776.904297" xlink:href="#DejaVuSans-52"/>
     <use x="840.527344" xlink:href="#DejaVuSans-44"/>
     <use x="872.314453" xlink:href="#DejaVuSans-32"/>
     <use x="904.101562" xlink:href="#DejaVuSans-102"/>
     <use x="939.306641" xlink:href="#DejaVuSans-51"/>
     <use x="1002.929688" xlink:href="#DejaVuSans-48"/>
     <use x="1066.552734" xlink:href="#DejaVuSans-44"/>
     <use x="1098.339844" xlink:href="#DejaVuSans-32"/>
     <use x="1130.126953" xlink:href="#DejaVuSans-102"/>
     <use x="1165.332031" xlink:href="#DejaVuSans-51"/>
     <use x="1228.955078" xlink:href="#DejaVuSans-54"/>
     <use x="1292.578125" xlink:href="#DejaVuSans-44"/>
     <use x="1324.365234" xlink:href="#DejaVuSans-32"/>
     <use x="1356.152344" xlink:href="#DejaVuSans-102"/>
     <use x="1391.357422" xlink:href="#DejaVuSans-52"/>
     <use x="1454.980469" xlink:href="#DejaVuSans-50"/>
     <use x="1518.603516" xlink:href="#DejaVuSans-44"/>
     <use x="1550.390625" xlink:href="#DejaVuSans-32"/>
     <use x="1582.177734" xlink:href="#DejaVuSans-102"/>
     <use x="1617.382812" xlink:href="#DejaVuSans-52"/>
     <use x="1681.005859" xlink:href="#DejaVuSans-56"/>
     <use x="1744.628906" xlink:href="#DejaVuSans-44"/>
     <use x="1776.416016" xlink:href="#DejaVuSans-32"/>
     <use x="1808.203125" xlink:href="#DejaVuSans-102"/>
     <use x="1843.408203" xlink:href="#DejaVuSans-53"/>
     <use x="1907.03125" xlink:href="#DejaVuSans-52"/>
     <use x="1970.654297" xlink:href="#DejaVuSans-125"/>
     <use x="2034.277344" xlink:href="#DejaVuSans-44"/>
     <use x="2066.064453" xlink:href="#DejaVuSans-32"/>
     <use x="2097.851562" xlink:href="#DejaVuSans-53"/>
     <use x="2161.474609" xlink:href="#DejaVuSans-45"/>
     <use x="2197.558594" xlink:href="#DejaVuSans-68"/>
    </g>
   </g>
   <g id="text_7">
    <!-- v2.99.1 -->
    <g style="fill:#808080;" transform="translate(211.5375 288.777272)scale(0.1 -0.1)">
     <defs>
      <path d="M 2.984375 54.6875 
L 12.5 54.6875 
L 29.59375 8.796875 
L 46.6875 54.6875 
L 56.203125 54.6875 
L 35.6875 0 
L 23.484375 0 
z
" id="DejaVuSans-118"/>
      <path d="M 10.6875 12.40625 
L 21 12.40625 
L 21 0 
L 10.6875 0 
z
" id="DejaVuSans-46"/>
      <path d="M 10.984375 1.515625 
L 10.984375 10.5 
Q 14.703125 8.734375 18.5 7.8125 
Q 22.3125 6.890625 25.984375 6.890625 
Q 35.75 6.890625 40.890625 13.453125 
Q 46.046875 20.015625 46.78125 33.40625 
Q 43.953125 29.203125 39.59375 26.953125 
Q 35.25 24.703125 29.984375 24.703125 
Q 19.046875 24.703125 12.671875 31.3125 
Q 6.296875 37.9375 6.296875 49.421875 
Q 6.296875 60.640625 12.9375 67.421875 
Q 19.578125 74.21875 30.609375 74.21875 
Q 43.265625 74.21875 49.921875 64.515625 
Q 56.59375 54.828125 56.59375 36.375 
Q 56.59375 19.140625 48.40625 8.859375 
Q 40.234375 -1.421875 26.421875 -1.421875 
Q 22.703125 -1.421875 18.890625 -0.6875 
Q 15.09375 0.046875 10.984375 1.515625 
z
M 30.609375 32.421875 
Q 37.25 32.421875 41.125 36.953125 
Q 45.015625 41.5 45.015625 49.421875 
Q 45.015625 57.28125 41.125 61.84375 
Q 37.25 66.40625 30.609375 66.40625 
Q 23.96875 66.40625 20.09375 61.84375 
Q 16.21875 57.28125 16.21875 49.421875 
Q 16.21875 41.5 20.09375 36.953125 
Q 23.96875 32.421875 30.609375 32.421875 
z
" id="DejaVuSans-57"/>
     </defs>
     <use xlink:href="#DejaVuSans-118"/>
     <use x="59.179688" xlink:href="#DejaVuSans-50"/>
     <use x="122.802734" xlink:href="#DejaVuSans-46"/>
     <use x="154.589844" xlink:href="#DejaVuSans-57"/>
     <use x="218.212891" xlink:href="#DejaVuSans-57"/>
     <use x="281.835938" xlink:href="#DejaVuSans-46"/>
     <use x="313.623047" xlink:href="#DejaVuSans-49"/>
    </g>
   </g>
  </g>
 </g>
 <defs>
  <clipPath id="pa36689fe9b">
   <rect height="290.304" width="460.8" x="0" y="3.456"/>
  </clipPath>
 </defs>
</svg>
