<?xml version="1.0" encoding="utf-8" standalone="no"?>
<!DOCTYPE svg PUBLIC "-//W3C//DTD SVG 1.1//EN"
  "http://www.w3.org/Graphics/SVG/1.1/DTD/svg11.dtd">
<!-- Created with matplotlib (https://matplotlib.org/) -->
<svg height="345.6pt" version="1.1" viewBox="0 0 460.8 345.6" width="460.8pt" xmlns="http://www.w3.org/2000/svg" xmlns:xlink="http://www.w3.org/1999/xlink">
 <metadata>
  <rdf:RDF xmlns:cc="http://creativecommons.org/ns#" xmlns:dc="http://purl.org/dc/elements/1.1/" xmlns:rdf="http://www.w3.org/1999/02/22-rdf-syntax-ns#">
   <cc:Work>
    <dc:type rdf:resource="http://purl.org/dc/dcmitype/StillImage"/>
    <dc:date>2022-03-31T09:50:35.604521</dc:date>
    <dc:format>image/svg+xml</dc:format>
    <dc:creator>
     <cc:Agent>
      <dc:title>Matplotlib v3.3.3, https://matplotlib.org/</dc:title>
     </cc:Agent>
    </dc:creator>
   </cc:Work>
  </rdf:RDF>
 </metadata>
 <defs>
  <style type="text/css">*{stroke-linecap:butt;stroke-linejoin:round;}</style>
 </defs>
 <g id="figure_1">
  <g id="patch_1">
   <path d="M 0 345.6 
L 460.8 345.6 
L 460.8 0 
L 0 0 
z
" style="fill:#ffffff;"/>
  </g>
  <g id="axes_1">
   <g id="patch_2">
    <path d="M 62.208 293.76 
L 460.8 293.76 
L 460.8 3.456 
L 62.208 3.456 
z
" style="fill:#ffffff;"/>
   </g>
   <g id="line2d_1">
    <path clip-path="url(#p52e08160c3)" d="M 222.14846 293.76 
L 222.14846 287.372673 
L 230.301011 287.372673 
L 230.301011 280.985347 
L 231.125873 280.985347 
L 231.125873 274.59802 
L 231.384019 274.59802 
L 231.384019 268.210693 
L 232.253912 268.210693 
L 232.253912 261.823366 
L 232.85636 261.823366 
L 232.85636 255.43604 
L 233.066363 255.43604 
L 233.066363 249.048713 
L 234.096584 249.048713 
L 234.096584 242.661386 
L 236.881577 242.661386 
L 236.881577 236.274059 
L 246.213782 236.274059 
L 246.213782 229.886733 
L 251.519721 229.886733 
L 251.519721 223.499406 
L 263.016016 223.499406 
L 263.016016 217.112079 
L 283.272735 217.112079 
L 283.272735 210.724752 
L 283.272735 210.724752 
L 283.272735 210.724752 
L 460.8 210.724752 
" style="fill:none;stroke:#f5deb3;stroke-linecap:square;stroke-width:1.5;"/>
   </g>
   <g id="line2d_2">
    <path clip-path="url(#p52e08160c3)" d="M 365.296628 293.76 
L 365.296628 274.59802 
L 369.826331 274.59802 
L 369.826331 255.43604 
L 370.373452 255.43604 
L 370.373452 236.274059 
L 370.373452 236.274059 
L 370.373452 236.274059 
L 460.8 236.274059 
" style="fill:none;stroke:#f5deb3;stroke-linecap:square;stroke-width:1.5;"/>
   </g>
   <g id="line2d_3">
    <path clip-path="url(#p52e08160c3)" d="M 188.894256 293.76 
L 188.894256 287.372673 
L 193.657094 287.372673 
L 193.657094 280.985347 
L 195.027448 280.985347 
L 195.027448 274.59802 
L 197.086009 274.59802 
L 197.086009 268.210693 
L 197.606838 268.210693 
L 197.606838 261.823366 
L 199.901131 261.823366 
L 199.901131 255.43604 
L 202.581571 255.43604 
L 202.581571 249.048713 
L 202.758565 249.048713 
L 202.758565 242.661386 
L 203.629425 242.661386 
L 203.629425 236.274059 
L 206.190318 236.274059 
L 206.190318 229.886733 
L 209.797325 229.886733 
L 209.797325 223.499406 
L 222.439594 223.499406 
L 222.439594 217.112079 
L 228.345018 217.112079 
L 228.345018 210.724752 
L 231.384019 210.724752 
L 231.384019 204.337426 
L 243.236406 204.337426 
L 243.236406 197.950099 
L 243.236406 197.950099 
L 243.236406 197.950099 
L 460.8 197.950099 
" style="fill:none;stroke:#f5deb3;stroke-linecap:square;stroke-width:1.5;"/>
   </g>
   <g id="line2d_4">
    <path clip-path="url(#p52e08160c3)" d="M 238.397881 293.76 
L 238.397881 287.372673 
L 239.733306 287.372673 
L 239.733306 280.985347 
L 239.761739 280.985347 
L 239.761739 274.59802 
L 241.423946 274.59802 
L 241.423946 268.210693 
L 243.91912 268.210693 
L 243.91912 261.823366 
L 246.607923 261.823366 
L 246.607923 255.43604 
L 246.745903 255.43604 
L 246.745903 249.048713 
L 247.628839 249.048713 
L 247.628839 242.661386 
L 248.314018 242.661386 
L 248.314018 236.274059 
L 249.347363 236.274059 
L 249.347363 229.886733 
L 251.140816 229.886733 
L 251.140816 223.499406 
L 252.764625 223.499406 
L 252.764625 217.112079 
L 256.799057 217.112079 
L 256.799057 210.724752 
L 262.524316 210.724752 
L 262.524316 204.337426 
L 293.594819 204.337426 
L 293.594819 197.950099 
L 293.594819 197.950099 
L 293.594819 197.950099 
L 460.8 197.950099 
" style="fill:none;stroke:#f5deb3;stroke-linecap:square;stroke-width:1.5;"/>
   </g>
   <g id="line2d_5"/>
   <g id="line2d_6"/>
   <g id="line2d_7">
    <path clip-path="url(#p52e08160c3)" d="M 257.697426 293.76 
L 257.697426 287.372673 
L 257.730229 287.372673 
L 257.730229 280.985347 
L 258.491761 280.985347 
L 258.491761 274.59802 
L 259.282869 274.59802 
L 259.282869 268.210693 
L 260.675271 268.210693 
L 260.675271 261.823366 
L 261.561895 261.823366 
L 261.561895 255.43604 
L 263.307521 255.43604 
L 263.307521 249.048713 
L 268.272189 249.048713 
L 268.272189 242.661386 
L 268.778665 242.661386 
L 268.778665 236.274059 
L 269.813968 236.274059 
L 269.813968 229.886733 
L 270.274939 229.886733 
L 270.274939 223.499406 
L 272.518245 223.499406 
L 272.518245 217.112079 
L 289.382344 217.112079 
L 289.382344 210.724752 
L 314.457945 210.724752 
L 314.457945 204.337426 
L 315.636781 204.337426 
L 315.636781 197.950099 
L 352.376545 197.950099 
L 352.376545 191.562772 
L 367.920132 191.562772 
L 367.920132 185.175446 
L 368.126604 185.175446 
L 368.126604 178.788119 
L 374.417937 178.788119 
L 374.417937 172.400792 
L 384.052457 172.400792 
L 384.052457 166.013465 
L 387.305151 166.013465 
L 387.305151 159.626139 
L 387.78586 159.626139 
L 387.78586 153.238812 
L 388.12654 153.238812 
L 388.12654 146.851485 
L 390.674967 146.851485 
L 390.674967 140.464158 
L 392.129714 140.464158 
L 392.129714 134.076832 
L 394.482534 134.076832 
L 394.482534 127.689505 
L 394.650576 127.689505 
L 394.650576 121.302178 
L 395.769788 121.302178 
L 395.769788 114.914851 
L 398.313785 114.914851 
L 398.313785 108.527525 
L 398.762595 108.527525 
L 398.762595 102.140198 
L 399.989802 102.140198 
L 399.989802 95.752871 
L 402.648031 95.752871 
L 402.648031 89.365545 
L 406.240641 89.365545 
L 406.240641 82.978218 
L 409.289089 82.978218 
L 409.289089 76.590891 
L 409.634678 76.590891 
L 409.634678 70.203564 
L 412.676872 70.203564 
L 412.676872 63.816238 
L 428.64805 63.816238 
L 428.64805 57.428911 
L 453.314868 57.428911 
L 453.314868 51.041584 
L 461.8 51.041584 
" style="fill:none;stroke:#f5deb3;stroke-linecap:square;stroke-width:1.5;"/>
   </g>
   <g id="line2d_8">
    <path clip-path="url(#p52e08160c3)" d="M 364.862487 293.76 
L 364.862487 287.372673 
L 365.290545 287.372673 
L 365.290545 280.985347 
L 365.880792 280.985347 
L 365.880792 274.59802 
L 366.436484 274.59802 
L 366.436484 268.210693 
L 366.617491 268.210693 
L 366.617491 261.823366 
L 366.814344 261.823366 
L 366.814344 255.43604 
L 366.928532 255.43604 
L 366.928532 249.048713 
L 367.623535 249.048713 
L 367.623535 242.661386 
L 367.697654 242.661386 
L 367.697654 236.274059 
L 368.172867 236.274059 
L 368.172867 229.886733 
L 368.175652 229.886733 
L 368.175652 223.499406 
L 402.896118 223.499406 
L 402.896118 217.112079 
L 403.06742 217.112079 
L 403.06742 210.724752 
L 403.281005 210.724752 
L 403.281005 204.337426 
L 420.475249 204.337426 
L 420.475249 197.950099 
L 420.912294 197.950099 
L 420.912294 191.562772 
L 420.912294 191.562772 
L 420.912294 191.562772 
L 460.8 191.562772 
" style="fill:none;stroke:#f5deb3;stroke-linecap:square;stroke-width:1.5;"/>
   </g>
   <g id="line2d_9">
    <path clip-path="url(#p52e08160c3)" d="M 241.773203 293.76 
L 241.773203 287.372673 
L 254.438669 287.372673 
L 254.438669 280.985347 
L 254.601448 280.985347 
L 254.601448 274.59802 
L 255.561445 274.59802 
L 255.561445 268.210693 
L 256.42585 268.210693 
L 256.42585 261.823366 
L 256.731518 261.823366 
L 256.731518 255.43604 
L 258.842212 255.43604 
L 258.842212 249.048713 
L 260.070526 249.048713 
L 260.070526 242.661386 
L 262.764066 242.661386 
L 262.764066 236.274059 
L 264.87247 236.274059 
L 264.87247 229.886733 
L 265.252263 229.886733 
L 265.252263 223.499406 
L 267.697383 223.499406 
L 267.697383 217.112079 
L 267.781842 217.112079 
L 267.781842 210.724752 
L 267.805933 210.724752 
L 267.805933 204.337426 
L 291.208422 204.337426 
L 291.208422 197.950099 
L 300.412564 197.950099 
L 300.412564 191.562772 
L 306.261911 191.562772 
L 306.261911 185.175446 
L 325.415031 185.175446 
L 325.415031 178.788119 
L 330.976543 178.788119 
L 330.976543 172.400792 
L 331.241676 172.400792 
L 331.241676 166.013465 
L 331.279623 166.013465 
L 331.279623 159.626139 
L 332.389676 159.626139 
L 332.389676 153.238812 
L 339.48733 153.238812 
L 339.48733 146.851485 
L 342.761906 146.851485 
L 342.761906 140.464158 
L 349.961044 140.464158 
L 349.961044 134.076832 
L 349.988273 134.076832 
L 349.988273 127.689505 
L 350.469762 127.689505 
L 350.469762 121.302178 
L 350.821303 121.302178 
L 350.821303 114.914851 
L 350.965017 114.914851 
L 350.965017 108.527525 
L 353.067589 108.527525 
L 353.067589 102.140198 
L 355.483753 102.140198 
L 355.483753 95.752871 
L 360.962265 95.752871 
L 360.962265 89.365545 
L 370.942273 89.365545 
L 370.942273 82.978218 
L 371.078613 82.978218 
L 371.078613 76.590891 
L 371.45303 76.590891 
L 371.45303 70.203564 
L 372.560935 70.203564 
L 372.560935 63.816238 
L 372.808827 63.816238 
L 372.808827 57.428911 
L 378.631363 57.428911 
L 378.631363 51.041584 
L 378.637832 51.041584 
L 378.637832 44.654257 
L 380.306927 44.654257 
L 380.306927 38.266931 
L 381.997498 38.266931 
L 381.997498 31.879604 
L 386.552791 31.879604 
L 386.552791 25.492277 
L 422.697291 25.492277 
L 422.697291 19.10495 
L 430.941684 19.10495 
L 430.941684 12.717624 
L 430.941684 12.717624 
L 430.941684 12.717624 
L 460.8 12.717624 
" style="fill:none;stroke:#f5deb3;stroke-linecap:square;stroke-width:1.5;"/>
   </g>
   <g id="line2d_10">
    <path clip-path="url(#p52e08160c3)" d="M 382.187705 293.76 
L 382.187705 287.372673 
L 388.478062 287.372673 
L 388.478062 280.985347 
L 393.356173 280.985347 
L 393.356173 274.59802 
L 393.500618 274.59802 
L 393.500618 268.210693 
L 393.949135 268.210693 
L 393.949135 261.823366 
L 394.00398 261.823366 
L 394.00398 255.43604 
L 396.116981 255.43604 
L 396.116981 249.048713 
L 396.415989 249.048713 
L 396.415989 242.661386 
L 397.007295 242.661386 
L 397.007295 236.274059 
L 397.565449 236.274059 
L 397.565449 229.886733 
L 399.807863 229.886733 
L 399.807863 223.499406 
L 400.029092 223.499406 
L 400.029092 217.112079 
L 400.23402 217.112079 
L 400.23402 210.724752 
L 410.259091 210.724752 
L 410.259091 204.337426 
L 437.803658 204.337426 
L 437.803658 197.950099 
L 437.803658 197.950099 
L 437.803658 197.950099 
L 460.8 197.950099 
" style="fill:none;stroke:#f5deb3;stroke-linecap:square;stroke-width:1.5;"/>
   </g>
   <g id="line2d_11">
    <path clip-path="url(#p52e08160c3)" d="M 367.647317 293.76 
L 367.647317 287.372673 
L 381.92008 287.372673 
L 381.92008 280.985347 
L 386.476243 280.985347 
L 386.476243 274.59802 
L 386.974229 274.59802 
L 386.974229 268.210693 
L 387.038057 268.210693 
L 387.038057 261.823366 
L 387.076481 261.823366 
L 387.076481 255.43604 
L 387.382875 255.43604 
L 387.382875 249.048713 
L 387.599894 249.048713 
L 387.599894 242.661386 
L 387.676001 242.661386 
L 387.676001 236.274059 
L 387.873725 236.274059 
L 387.873725 229.886733 
L 388.161893 229.886733 
L 388.161893 223.499406 
L 388.216811 223.499406 
L 388.216811 217.112079 
L 388.516323 217.112079 
L 388.516323 210.724752 
L 388.71379 210.724752 
L 388.71379 204.337426 
L 396.147029 204.337426 
L 396.147029 197.950099 
L 419.733776 197.950099 
L 419.733776 191.562772 
L 425.895975 191.562772 
L 425.895975 185.175446 
L 440.115386 185.175446 
L 440.115386 178.788119 
L 442.663794 178.788119 
L 442.663794 172.400792 
L 449.507225 172.400792 
L 449.507225 166.013465 
L 456.737632 166.013465 
L 456.737632 159.626139 
L 457.924708 159.626139 
L 457.924708 153.238812 
L 461.8 153.238812 
" style="fill:none;stroke:#f5deb3;stroke-linecap:square;stroke-width:1.5;"/>
   </g>
   <g id="line2d_12">
    <path clip-path="url(#p52e08160c3)" d="M 194.005111 293.76 
L 194.005111 287.372673 
L 197.915395 287.372673 
L 197.915395 280.985347 
L 199.121266 280.985347 
L 199.121266 274.59802 
L 199.707904 274.59802 
L 199.707904 268.210693 
L 199.707904 268.210693 
L 199.707904 261.823366 
L 205.058586 261.823366 
L 205.058586 255.43604 
L 206.506595 255.43604 
L 206.506595 249.048713 
L 206.506595 249.048713 
L 206.506595 242.661386 
L 211.326151 242.661386 
L 211.326151 236.274059 
L 213.301873 236.274059 
L 213.301873 229.886733 
L 215.52502 229.886733 
L 215.52502 223.499406 
L 225.083127 223.499406 
L 225.083127 217.112079 
L 227.154435 217.112079 
L 227.154435 210.724752 
L 229.571467 210.724752 
L 229.571467 204.337426 
L 232.891454 204.337426 
L 232.891454 197.950099 
L 232.891454 197.950099 
L 232.891454 197.950099 
L 460.8 197.950099 
" style="fill:none;stroke:#f5deb3;stroke-linecap:square;stroke-width:1.5;"/>
   </g>
   <g id="line2d_13"/>
   <g id="line2d_14">
    <path clip-path="url(#p52e08160c3)" d="M 239.704848 293.76 
L 239.704848 287.372673 
L 242.092313 287.372673 
L 242.092313 280.985347 
L 262.239984 280.985347 
L 262.239984 274.59802 
L 265.909645 274.59802 
L 265.909645 268.210693 
L 266.087812 268.210693 
L 266.087812 261.823366 
L 266.390996 261.823366 
L 266.390996 255.43604 
L 269.700542 255.43604 
L 269.700542 249.048713 
L 270.408635 249.048713 
L 270.408635 242.661386 
L 281.222646 242.661386 
L 281.222646 236.274059 
L 285.797028 236.274059 
L 285.797028 229.886733 
L 288.223986 229.886733 
L 288.223986 223.499406 
L 290.053262 223.499406 
L 290.053262 217.112079 
L 297.095473 217.112079 
L 297.095473 210.724752 
L 301.201484 210.724752 
L 301.201484 204.337426 
L 342.709713 204.337426 
L 342.709713 197.950099 
L 342.709713 197.950099 
L 342.709713 197.950099 
L 460.8 197.950099 
" style="fill:none;stroke:#f5deb3;stroke-linecap:square;stroke-width:1.5;"/>
   </g>
   <g id="line2d_15">
    <path clip-path="url(#p52e08160c3)" d="M 399.337918 293.76 
L 399.337918 287.372673 
L 401.102732 287.372673 
L 401.102732 280.985347 
L 401.602595 280.985347 
L 401.602595 274.59802 
L 402.884383 274.59802 
L 402.884383 268.210693 
L 403.609702 268.210693 
L 403.609702 261.823366 
L 404.407339 261.823366 
L 404.407339 255.43604 
L 404.460916 255.43604 
L 404.460916 249.048713 
L 405.632592 249.048713 
L 405.632592 242.661386 
L 405.685081 242.661386 
L 405.685081 236.274059 
L 406.182256 236.274059 
L 406.182256 229.886733 
L 406.273263 229.886733 
L 406.273263 223.499406 
L 406.273263 223.499406 
L 406.273263 223.499406 
L 460.8 223.499406 
" style="fill:none;stroke:#f5deb3;stroke-linecap:square;stroke-width:1.5;"/>
   </g>
   <g id="line2d_16">
    <path clip-path="url(#p52e08160c3)" d="M 261.953155 293.76 
L 261.953155 287.372673 
L 269.254377 287.372673 
L 269.254377 280.985347 
L 272.246116 280.985347 
L 272.246116 274.59802 
L 276.228705 274.59802 
L 276.228705 268.210693 
L 277.639816 268.210693 
L 277.639816 261.823366 
L 283.250232 261.823366 
L 283.250232 255.43604 
L 290.579046 255.43604 
L 290.579046 249.048713 
L 314.423301 249.048713 
L 314.423301 242.661386 
L 319.258047 242.661386 
L 319.258047 236.274059 
L 340.146975 236.274059 
L 340.146975 229.886733 
L 340.70197 229.886733 
L 340.70197 223.499406 
L 351.288884 223.499406 
L 351.288884 217.112079 
L 351.952775 217.112079 
L 351.952775 210.724752 
L 357.557323 210.724752 
L 357.557323 204.337426 
L 365.908265 204.337426 
L 365.908265 197.950099 
L 461.8 197.950099 
" style="fill:none;stroke:#f5deb3;stroke-linecap:square;stroke-width:1.5;"/>
   </g>
   <g id="line2d_17">
    <path clip-path="url(#p52e08160c3)" d="M 310.955429 293.76 
L 310.955429 287.372673 
L 319.693556 287.372673 
L 319.693556 280.985347 
L 321.732645 280.985347 
L 321.732645 274.59802 
L 324.522028 274.59802 
L 324.522028 268.210693 
L 326.406571 268.210693 
L 326.406571 261.823366 
L 326.651808 261.823366 
L 326.651808 255.43604 
L 326.675635 255.43604 
L 326.675635 249.048713 
L 328.207209 249.048713 
L 328.207209 242.661386 
L 329.197716 242.661386 
L 329.197716 236.274059 
L 329.673778 236.274059 
L 329.673778 229.886733 
L 329.69731 229.886733 
L 329.69731 223.499406 
L 330.228565 223.499406 
L 330.228565 217.112079 
L 332.531002 217.112079 
L 332.531002 210.724752 
L 333.316177 210.724752 
L 333.316177 204.337426 
L 333.801683 204.337426 
L 333.801683 197.950099 
L 333.801683 197.950099 
L 333.801683 197.950099 
L 460.8 197.950099 
" style="fill:none;stroke:#f5deb3;stroke-linecap:square;stroke-width:1.5;"/>
   </g>
   <g id="line2d_18">
    <path clip-path="url(#p52e08160c3)" d="M 197.710015 293.76 
L 197.710015 287.372673 
L 198.823947 287.372673 
L 198.823947 280.985347 
L 200.474046 280.985347 
L 200.474046 274.59802 
L 202.224679 274.59802 
L 202.224679 268.210693 
L 203.800844 268.210693 
L 203.800844 261.823366 
L 206.506595 261.823366 
L 206.506595 255.43604 
L 208.712332 255.43604 
L 208.712332 249.048713 
L 210.984922 249.048713 
L 210.984922 242.661386 
L 211.797959 242.661386 
L 211.797959 236.274059 
L 227.775671 236.274059 
L 227.775671 229.886733 
L 228.586018 229.886733 
L 228.586018 223.499406 
L 232.891454 223.499406 
L 232.891454 217.112079 
L 235.323997 217.112079 
L 235.323997 210.724752 
L 235.421525 210.724752 
L 235.421525 204.337426 
L 251.913876 204.337426 
L 251.913876 197.950099 
L 251.913876 197.950099 
L 251.913876 197.950099 
L 460.8 197.950099 
" style="fill:none;stroke:#f5deb3;stroke-linecap:square;stroke-width:1.5;"/>
   </g>
   <g id="line2d_19">
    <path clip-path="url(#p52e08160c3)" d="M 346.922903 293.76 
L 346.922903 287.372673 
L 348.250491 287.372673 
L 348.29352 274.59802 
L 349.872393 274.59802 
L 349.872393 268.210693 
L 361.057289 268.210693 
L 361.057289 261.823366 
L 361.506453 261.823366 
L 361.506453 255.43604 
L 366.379455 255.43604 
L 366.379455 249.048713 
L 366.753318 249.048713 
L 366.753318 242.661386 
L 368.89068 242.661386 
L 368.89068 236.274059 
L 369.924668 236.274059 
L 369.924668 229.886733 
L 370.226285 229.886733 
L 370.226285 223.499406 
L 370.903873 223.499406 
L 370.903873 217.112079 
L 374.921003 217.112079 
L 374.921003 210.724752 
L 378.082932 210.724752 
L 378.082932 204.337426 
L 385.763843 204.337426 
L 385.763843 197.950099 
L 389.028508 197.950099 
L 389.028508 191.562772 
L 391.705203 191.562772 
L 391.705203 185.175446 
L 396.407309 185.175446 
L 396.407309 178.788119 
L 399.55723 178.788119 
L 399.55723 172.400792 
L 400.417963 172.400792 
L 400.417963 166.013465 
L 401.653782 166.013465 
L 401.653782 159.626139 
L 403.099356 159.626139 
L 403.099356 153.238812 
L 403.437823 153.238812 
L 403.437823 146.851485 
L 404.968271 146.851485 
L 404.968271 140.464158 
L 405.220724 140.464158 
L 405.220724 134.076832 
L 410.578659 134.076832 
L 410.578659 127.689505 
L 412.320118 127.689505 
L 412.320118 121.302178 
L 413.542701 121.302178 
L 413.542701 114.914851 
L 414.618697 114.914851 
L 414.618697 108.527525 
L 414.769863 108.527525 
L 414.769863 102.140198 
L 416.465471 102.140198 
L 416.465471 95.752871 
L 425.651517 95.752871 
L 425.651517 89.365545 
L 428.528954 89.365545 
L 428.528954 82.978218 
L 430.752259 82.978218 
L 430.752259 76.590891 
L 432.84963 76.590891 
L 432.84963 70.203564 
L 433.020499 70.203564 
L 433.020499 63.816238 
L 434.259017 63.816238 
L 434.259017 57.428911 
L 437.018731 57.428911 
L 437.018731 51.041584 
L 437.446018 51.041584 
L 437.446018 44.654257 
L 447.375186 44.654257 
L 447.375186 38.266931 
L 450.734575 38.266931 
L 450.734575 31.879604 
L 461.306503 31.879604 
L 461.360669 19.10495 
L 461.8 19.10495 
L 461.8 19.10495 
" style="fill:none;stroke:#f5deb3;stroke-linecap:square;stroke-width:1.5;"/>
   </g>
   <g id="line2d_20">
    <path clip-path="url(#p52e08160c3)" d="M 211.053454 293.76 
L 211.053454 287.372673 
L 215.225153 287.372673 
L 215.225153 280.985347 
L 218.653681 280.985347 
L 218.653681 274.59802 
L 219.191672 274.59802 
L 219.191672 268.210693 
L 219.510263 268.210693 
L 219.510263 261.823366 
L 219.878066 261.823366 
L 219.878066 255.43604 
L 223.90378 255.43604 
L 223.90378 249.048713 
L 224.316853 249.048713 
L 224.316853 242.661386 
L 225.083127 242.661386 
L 225.083127 236.274059 
L 226.350181 236.274059 
L 226.350181 229.886733 
L 230.528047 229.886733 
L 230.528047 223.499406 
L 232.574239 223.499406 
L 232.574239 217.112079 
L 233.893123 217.112079 
L 233.893123 210.724752 
L 237.28264 210.724752 
L 237.28264 204.337426 
L 245.720242 204.337426 
L 245.720242 197.950099 
L 304.222802 197.950099 
L 304.222802 191.562772 
L 338.790809 191.562772 
L 338.790809 185.175446 
L 356.486047 185.175446 
L 356.486047 178.788119 
L 385.4152 178.788119 
L 385.4152 172.400792 
L 385.4152 172.400792 
L 385.4152 172.400792 
L 460.8 172.400792 
" style="fill:none;stroke:#f5deb3;stroke-linecap:square;stroke-width:1.5;"/>
   </g>
   <g id="line2d_21">
    <path clip-path="url(#p52e08160c3)" d="M 251.340788 293.76 
L 251.340788 287.372673 
L 251.420435 287.372673 
L 251.420435 280.985347 
L 251.420435 280.985347 
L 251.420435 274.59802 
L 251.460186 274.59802 
L 251.460186 268.210693 
L 251.519721 268.210693 
L 251.519721 261.823366 
L 251.559352 261.823366 
L 251.559352 255.43604 
L 251.618707 255.43604 
L 251.618707 249.048713 
L 251.658217 249.048713 
L 251.658217 242.661386 
L 251.796128 242.661386 
L 251.796128 236.274059 
L 251.894281 236.274059 
L 251.894281 229.886733 
L 251.894281 229.886733 
L 251.894281 223.499406 
L 251.894281 223.499406 
L 251.894281 217.112079 
L 252.070215 217.112079 
L 252.070215 210.724752 
L 252.12865 210.724752 
L 252.12865 204.337426 
L 252.167549 204.337426 
L 252.167549 197.950099 
L 252.167549 197.950099 
L 252.167549 197.950099 
L 460.8 197.950099 
" style="fill:none;stroke:#f5deb3;stroke-linecap:square;stroke-width:1.5;"/>
   </g>
   <g id="line2d_22">
    <path clip-path="url(#p52e08160c3)" d="M 204.727896 293.76 
L 204.727896 287.372673 
L 213.934747 287.372673 
L 213.934747 280.985347 
L 214.922507 280.985347 
L 214.922507 274.59802 
L 217.2686 274.59802 
L 217.2686 268.210693 
L 219.08478 268.210693 
L 219.08478 261.823366 
L 219.930272 261.823366 
L 219.930272 255.43604 
L 223.061619 255.43604 
L 223.061619 249.048713 
L 232.786058 249.048713 
L 232.786058 242.661386 
L 233.17086 242.661386 
L 233.17086 236.274059 
L 234.197841 236.274059 
L 234.197841 229.886733 
L 235.744527 229.886733 
L 235.744527 223.499406 
L 256.933718 223.499406 
L 256.933718 217.112079 
L 296.285076 217.112079 
L 296.285076 210.724752 
L 296.878689 210.724752 
L 296.878689 204.337426 
L 299.767411 204.337426 
L 299.767411 197.950099 
L 371.038332 197.950099 
L 371.038332 191.562772 
L 390.629636 191.562772 
L 390.629636 185.175446 
L 420.118877 185.175446 
L 420.118877 178.788119 
L 422.716479 178.788119 
L 422.716479 172.400792 
L 431.430166 172.400792 
L 431.430166 166.013465 
L 434.856109 166.013465 
L 434.856109 159.626139 
L 436.156596 159.626139 
L 436.156596 153.238812 
L 436.156596 153.238812 
L 436.156596 153.238812 
L 460.8 153.238812 
" style="fill:none;stroke:#f5deb3;stroke-linecap:square;stroke-width:1.5;"/>
   </g>
   <g id="line2d_23">
    <path clip-path="url(#p52e08160c3)" d="M 326.750974 293.76 
L 326.750974 287.372673 
L 327.113333 287.372673 
L 327.113333 280.985347 
L 329.116772 280.985347 
L 329.116772 274.59802 
L 329.928103 274.59802 
L 329.928103 268.210693 
L 330.950433 268.210693 
L 330.950433 261.823366 
L 336.803046 261.823366 
L 336.803046 255.43604 
L 337.001859 255.43604 
L 337.001859 249.048713 
L 345.199766 249.048713 
L 345.199766 242.661386 
L 388.359106 242.661386 
L 388.359106 236.274059 
L 394.385586 236.274059 
L 394.385586 229.886733 
L 395.996988 229.886733 
L 395.996988 223.499406 
L 396.745504 223.499406 
L 396.745504 217.112079 
L 435.447944 217.112079 
L 435.447944 210.724752 
L 435.822056 210.724752 
L 435.822056 204.337426 
L 435.822056 204.337426 
L 435.822056 204.337426 
L 460.8 204.337426 
" style="fill:none;stroke:#f5deb3;stroke-linecap:square;stroke-width:1.5;"/>
   </g>
   <g id="line2d_24">
    <path clip-path="url(#p52e08160c3)" d="M 274.568393 293.76 
L 274.568393 287.372673 
L 275.121639 287.372673 
L 275.121639 280.985347 
L 279.060783 280.985347 
L 279.060783 274.59802 
L 279.162991 274.59802 
L 279.162991 268.210693 
L 280.683276 268.210693 
L 280.683276 261.823366 
L 283.272735 261.823366 
L 283.272735 255.43604 
L 283.763913 255.43604 
L 283.763913 249.048713 
L 284.660032 249.048713 
L 284.660032 242.661386 
L 286.531348 242.661386 
L 286.531348 236.274059 
L 286.996272 236.274059 
L 286.996272 229.886733 
L 287.269429 229.886733 
L 287.269429 223.499406 
L 287.815506 223.499406 
L 287.815506 217.112079 
L 291.791256 217.112079 
L 291.791256 210.724752 
L 294.881049 210.724752 
L 294.881049 204.337426 
L 335.084657 204.337426 
L 335.084657 197.950099 
L 336.17699 197.950099 
L 336.17699 191.562772 
L 336.73456 191.562772 
L 336.73456 185.175446 
L 337.117397 185.175446 
L 337.117397 178.788119 
L 337.252633 178.788119 
L 337.252633 172.400792 
L 340.677417 172.400792 
L 340.677417 166.013465 
L 343.373472 166.013465 
L 343.373472 159.626139 
L 367.557194 159.626139 
L 367.557194 153.238812 
L 367.707826 153.238812 
L 367.707826 146.851485 
L 368.423109 146.851485 
L 368.423109 140.464158 
L 370.20588 140.464158 
L 370.20588 134.076832 
L 391.400597 134.076832 
L 391.400597 127.689505 
L 392.253574 127.689505 
L 392.253574 121.302178 
L 393.734177 121.302178 
L 393.734177 114.914851 
L 394.039315 114.914851 
L 394.039315 108.527525 
L 394.077131 108.527525 
L 394.077131 102.140198 
L 394.305367 102.140198 
L 394.305367 95.752871 
L 409.059461 95.752871 
L 409.059461 89.365545 
L 409.742932 89.365545 
L 409.742932 82.978218 
L 413.08979 82.978218 
L 413.08979 76.590891 
L 415.661018 76.590891 
L 415.661018 70.203564 
L 416.905503 70.203564 
L 416.905503 63.816238 
L 429.188132 63.816238 
L 429.188132 57.428911 
L 440.034625 57.428911 
L 440.034625 51.041584 
L 445.267605 51.041584 
L 445.267605 44.654257 
L 450.823124 44.654257 
L 450.823124 38.266931 
L 461.688402 38.266931 
L 461.688402 31.879604 
L 461.8 31.879604 
" style="fill:none;stroke:#f5deb3;stroke-linecap:square;stroke-width:1.5;"/>
   </g>
   <g id="line2d_25">
    <path clip-path="url(#p52e08160c3)" d="M 372.90052 293.76 
L 372.90052 287.372673 
L 374.250052 287.372673 
L 374.250052 280.985347 
L 374.416097 280.985347 
L 374.416097 274.59802 
L 374.607839 274.59802 
L 374.607839 268.210693 
L 375.57889 268.210693 
L 375.57889 261.823366 
L 377.074052 261.823366 
L 377.074052 255.43604 
L 377.29974 255.43604 
L 377.29974 249.048713 
L 377.656628 249.048713 
L 377.656628 242.661386 
L 378.014602 242.661386 
L 378.014602 236.274059 
L 378.605474 236.274059 
L 378.605474 229.886733 
L 378.63864 229.886733 
L 378.63864 223.499406 
L 381.488007 223.499406 
L 381.488007 217.112079 
L 407.15851 217.112079 
L 407.15851 210.724752 
L 407.55346 210.724752 
L 407.55346 204.337426 
L 408.497108 204.337426 
L 408.497108 197.950099 
L 437.079016 197.950099 
L 437.079016 191.562772 
L 437.639401 191.562772 
L 437.639401 185.175446 
L 437.639401 185.175446 
L 437.639401 185.175446 
L 460.8 185.175446 
" style="fill:none;stroke:#f5deb3;stroke-linecap:square;stroke-width:1.5;"/>
   </g>
   <g id="line2d_26">
    <path clip-path="url(#p52e08160c3)" d="M 257.084551 293.76 
L 257.084551 287.372673 
L 284.953356 287.372673 
L 284.953356 280.985347 
L 285.13801 280.985347 
L 285.13801 274.59802 
L 285.790086 274.59802 
L 285.790086 268.210693 
L 286.183404 268.210693 
L 286.183404 261.823366 
L 286.673549 261.823366 
L 286.673549 255.43604 
L 288.04307 255.43604 
L 288.04307 249.048713 
L 291.202541 249.048713 
L 291.202541 242.661386 
L 291.401909 242.661386 
L 291.401909 236.274059 
L 291.565186 236.274059 
L 291.565186 229.886733 
L 291.66972 229.886733 
L 291.66972 223.499406 
L 291.7797 223.499406 
L 291.7797 217.112079 
L 292.078817 217.112079 
L 292.078817 210.724752 
L 292.147457 210.724752 
L 292.147457 204.337426 
L 292.170305 204.337426 
L 292.170305 197.950099 
L 294.367283 197.950099 
L 294.367283 191.562772 
L 294.6966 191.562772 
L 294.6966 185.175446 
L 296.630585 185.175446 
L 296.630585 178.788119 
L 302.182582 178.788119 
L 302.182582 172.400792 
L 312.200221 172.400792 
L 312.200221 166.013465 
L 312.231127 166.013465 
L 312.231127 159.626139 
L 323.180315 159.626139 
L 323.180315 153.238812 
L 325.725068 153.238812 
L 325.725068 146.851485 
L 327.293016 146.851485 
L 327.293016 140.464158 
L 332.645277 140.464158 
L 332.645277 134.076832 
L 338.738721 134.076832 
L 338.738721 127.689505 
L 342.172029 127.689505 
L 342.172029 121.302178 
L 348.535273 121.302178 
L 348.535273 114.914851 
L 357.031171 114.914851 
L 357.031171 108.527525 
L 371.589265 108.527525 
L 371.589265 102.140198 
L 379.626515 102.140198 
L 379.626515 95.752871 
L 379.848536 95.752871 
L 379.848536 89.365545 
L 383.167543 89.365545 
L 383.167543 82.978218 
L 384.42231 82.978218 
L 384.42231 76.590891 
L 384.874971 76.590891 
L 384.874971 70.203564 
L 385.519169 70.203564 
L 385.519169 63.816238 
L 386.489597 63.816238 
L 386.489597 57.428911 
L 387.407918 57.428911 
L 387.407918 51.041584 
L 391.10444 51.041584 
L 391.10444 44.654257 
L 391.10444 44.654257 
L 391.10444 44.654257 
L 460.8 44.654257 
" style="fill:none;stroke:#f5deb3;stroke-linecap:square;stroke-width:1.5;"/>
   </g>
   <g id="line2d_27">
    <path clip-path="url(#p52e08160c3)" d="M 258.57174 293.76 
L 258.57174 287.372673 
L 260.207573 287.372673 
L 260.207573 280.985347 
L 261.313119 280.985347 
L 261.313119 274.59802 
L 267.026067 274.59802 
L 267.026067 268.210693 
L 267.854061 268.210693 
L 267.854061 261.823366 
L 269.529661 261.823366 
L 269.529661 255.43604 
L 270.163105 255.43604 
L 270.163105 249.048713 
L 270.652332 249.048713 
L 270.652332 242.661386 
L 272.808793 242.661386 
L 272.808793 236.274059 
L 273.513942 236.274059 
L 273.513942 229.886733 
L 281.366046 229.886733 
L 281.366046 223.499406 
L 283.638102 223.499406 
L 283.638102 217.112079 
L 290.740513 217.112079 
L 290.740513 210.724752 
L 291.739224 210.724752 
L 291.739224 204.337426 
L 307.013484 204.337426 
L 307.013484 197.950099 
L 307.013484 197.950099 
L 307.013484 197.950099 
L 460.8 197.950099 
" style="fill:none;stroke:#f5deb3;stroke-linecap:square;stroke-width:1.5;"/>
   </g>
   <g id="line2d_28">
    <path clip-path="url(#p52e08160c3)" d="M 255.456162 293.76 
L 255.456162 287.372673 
L 260.359177 287.372673 
L 260.359177 280.985347 
L 262.721885 280.985347 
L 262.721885 274.59802 
L 263.293699 274.59802 
L 263.293699 268.210693 
L 266.678931 268.210693 
L 266.678931 261.823366 
L 268.825382 261.823366 
L 268.825382 255.43604 
L 268.976753 255.43604 
L 268.976753 249.048713 
L 269.994634 249.048713 
L 269.994634 242.661386 
L 270.050888 242.661386 
L 270.050888 236.274059 
L 271.662875 236.274059 
L 271.662875 229.886733 
L 273.137713 229.886733 
L 273.137713 223.499406 
L 274.685647 223.499406 
L 274.685647 217.112079 
L 307.833086 217.112079 
L 307.833086 210.724752 
L 313.476704 210.724752 
L 313.476704 204.337426 
L 314.272749 204.337426 
L 314.272749 197.950099 
L 319.901826 197.950099 
L 319.901826 191.562772 
L 343.294816 191.562772 
L 343.294816 185.175446 
L 343.317478 185.175446 
L 343.317478 178.788119 
L 345.21327 178.788119 
L 345.21327 172.400792 
L 366.643184 172.400792 
L 366.643184 166.013465 
L 368.356159 166.013465 
L 368.356159 159.626139 
L 381.985094 159.626139 
L 381.985094 153.238812 
L 382.68362 153.238812 
L 382.68362 146.851485 
L 383.354223 146.851485 
L 383.354223 140.464158 
L 383.425875 140.464158 
L 383.425875 134.076832 
L 383.683564 134.076832 
L 383.683564 127.689505 
L 384.171089 127.689505 
L 384.171089 121.302178 
L 386.649411 121.302178 
L 386.649411 114.914851 
L 389.447245 114.914851 
L 389.447245 108.527525 
L 391.581145 108.527525 
L 391.581145 102.140198 
L 403.766451 102.140198 
L 403.766451 95.752871 
L 404.12646 95.752871 
L 404.12646 89.365545 
L 404.470815 89.365545 
L 404.470815 82.978218 
L 407.501053 82.978218 
L 407.501053 76.590891 
L 416.236182 76.590891 
L 416.236182 70.203564 
L 416.976186 70.203564 
L 416.976186 63.816238 
L 417.060056 63.816238 
L 417.060056 57.428911 
L 417.137122 57.428911 
L 417.137122 51.041584 
L 417.201473 51.041584 
L 417.201473 44.654257 
L 417.378961 44.654257 
L 417.378961 38.266931 
L 428.113728 38.266931 
L 428.113728 31.879604 
L 436.926467 31.879604 
L 436.926467 25.492277 
L 437.179401 25.492277 
L 437.179401 19.10495 
L 444.99878 19.10495 
L 444.99878 12.717624 
L 461.8 12.717624 
" style="fill:none;stroke:#f5deb3;stroke-linecap:square;stroke-width:1.5;"/>
   </g>
   <g id="line2d_29">
    <path clip-path="url(#p52e08160c3)" d="M 199.121266 293.76 
L 199.121266 287.372673 
L 199.121266 287.372673 
L 199.121266 280.985347 
L 199.121266 280.985347 
L 199.121266 274.59802 
L 200.284189 274.59802 
L 200.284189 268.210693 
L 200.284189 268.210693 
L 200.284189 261.823366 
L 200.284189 261.823366 
L 200.284189 255.43604 
L 202.403613 255.43604 
L 202.403613 249.048713 
L 202.403613 249.048713 
L 202.403613 242.661386 
L 202.403613 242.661386 
L 202.403613 236.274059 
L 205.629355 236.274059 
L 205.629355 229.886733 
L 205.629355 229.886733 
L 205.629355 223.499406 
L 205.629355 223.499406 
L 205.629355 217.112079 
L 206.897681 217.112079 
L 206.897681 210.724752 
L 206.897681 210.724752 
L 206.897681 204.337426 
L 206.897681 204.337426 
L 206.897681 197.950099 
L 328.896845 197.950099 
L 328.896845 191.562772 
L 350.261249 191.562772 
L 350.261249 185.175446 
L 350.261249 185.175446 
L 350.261249 185.175446 
L 460.8 185.175446 
" style="fill:none;stroke:#f5deb3;stroke-linecap:square;stroke-width:1.5;"/>
   </g>
   <g id="line2d_30"/>
   <g id="matplotlib.axis_1">
    <g id="xtick_1">
     <g id="line2d_31">
      <path clip-path="url(#p52e08160c3)" d="M 137.399622 293.76 
L 137.399622 3.456 
" style="fill:none;stroke:#b0b0b0;stroke-linecap:square;stroke-width:0.8;"/>
     </g>
     <g id="line2d_32">
      <defs>
       <path d="M 0 0 
L 0 3.5 
" id="m4a1414aaaf" style="stroke:#000000;stroke-width:0.8;"/>
      </defs>
      <g>
       <use style="stroke:#000000;stroke-width:0.8;" x="137.399622" xlink:href="#m4a1414aaaf" y="293.76"/>
      </g>
     </g>
     <g id="text_1">
      <!-- 1 -->
      <g transform="translate(131.037122 315.956875)scale(0.2 -0.2)">
       <defs>
        <path d="M 12.40625 8.296875 
L 28.515625 8.296875 
L 28.515625 63.921875 
L 10.984375 60.40625 
L 10.984375 69.390625 
L 28.421875 72.90625 
L 38.28125 72.90625 
L 38.28125 8.296875 
L 54.390625 8.296875 
L 54.390625 0 
L 12.40625 0 
z
" id="DejaVuSans-49"/>
       </defs>
       <use xlink:href="#DejaVuSans-49"/>
      </g>
     </g>
    </g>
    <g id="xtick_2">
     <g id="line2d_33">
      <path clip-path="url(#p52e08160c3)" d="M 287.782867 293.76 
L 287.782867 3.456 
" style="fill:none;stroke:#b0b0b0;stroke-linecap:square;stroke-width:0.8;"/>
     </g>
     <g id="line2d_34">
      <g>
       <use style="stroke:#000000;stroke-width:0.8;" x="287.782867" xlink:href="#m4a1414aaaf" y="293.76"/>
      </g>
     </g>
     <g id="text_2">
      <!-- 3 -->
      <g transform="translate(281.420367 315.956875)scale(0.2 -0.2)">
       <defs>
        <path d="M 40.578125 39.3125 
Q 47.65625 37.796875 51.625 33 
Q 55.609375 28.21875 55.609375 21.1875 
Q 55.609375 10.40625 48.1875 4.484375 
Q 40.765625 -1.421875 27.09375 -1.421875 
Q 22.515625 -1.421875 17.65625 -0.515625 
Q 12.796875 0.390625 7.625 2.203125 
L 7.625 11.71875 
Q 11.71875 9.328125 16.59375 8.109375 
Q 21.484375 6.890625 26.8125 6.890625 
Q 36.078125 6.890625 40.9375 10.546875 
Q 45.796875 14.203125 45.796875 21.1875 
Q 45.796875 27.640625 41.28125 31.265625 
Q 36.765625 34.90625 28.71875 34.90625 
L 20.21875 34.90625 
L 20.21875 43.015625 
L 29.109375 43.015625 
Q 36.375 43.015625 40.234375 45.921875 
Q 44.09375 48.828125 44.09375 54.296875 
Q 44.09375 59.90625 40.109375 62.90625 
Q 36.140625 65.921875 28.71875 65.921875 
Q 24.65625 65.921875 20.015625 65.03125 
Q 15.375 64.15625 9.8125 62.3125 
L 9.8125 71.09375 
Q 15.4375 72.65625 20.34375 73.4375 
Q 25.25 74.21875 29.59375 74.21875 
Q 40.828125 74.21875 47.359375 69.109375 
Q 53.90625 64.015625 53.90625 55.328125 
Q 53.90625 49.265625 50.4375 45.09375 
Q 46.96875 40.921875 40.578125 39.3125 
z
" id="DejaVuSans-51"/>
       </defs>
       <use xlink:href="#DejaVuSans-51"/>
      </g>
     </g>
    </g>
    <g id="xtick_3">
     <g id="line2d_35">
      <path clip-path="url(#p52e08160c3)" d="M 438.166111 293.76 
L 438.166111 3.456 
" style="fill:none;stroke:#b0b0b0;stroke-linecap:square;stroke-width:0.8;"/>
     </g>
     <g id="line2d_36">
      <g>
       <use style="stroke:#000000;stroke-width:0.8;" x="438.166111" xlink:href="#m4a1414aaaf" y="293.76"/>
      </g>
     </g>
     <g id="text_3">
      <!-- 5 -->
      <g transform="translate(431.803611 315.956875)scale(0.2 -0.2)">
       <defs>
        <path d="M 10.796875 72.90625 
L 49.515625 72.90625 
L 49.515625 64.59375 
L 19.828125 64.59375 
L 19.828125 46.734375 
Q 21.96875 47.46875 24.109375 47.828125 
Q 26.265625 48.1875 28.421875 48.1875 
Q 40.625 48.1875 47.75 41.5 
Q 54.890625 34.8125 54.890625 23.390625 
Q 54.890625 11.625 47.5625 5.09375 
Q 40.234375 -1.421875 26.90625 -1.421875 
Q 22.3125 -1.421875 17.546875 -0.640625 
Q 12.796875 0.140625 7.71875 1.703125 
L 7.71875 11.625 
Q 12.109375 9.234375 16.796875 8.0625 
Q 21.484375 6.890625 26.703125 6.890625 
Q 35.15625 6.890625 40.078125 11.328125 
Q 45.015625 15.765625 45.015625 23.390625 
Q 45.015625 31 40.078125 35.4375 
Q 35.15625 39.890625 26.703125 39.890625 
Q 22.75 39.890625 18.8125 39.015625 
Q 14.890625 38.140625 10.796875 36.28125 
z
" id="DejaVuSans-53"/>
       </defs>
       <use xlink:href="#DejaVuSans-53"/>
      </g>
     </g>
    </g>
    <g id="text_4">
     <!-- log10 of evals / DIM -->
     <g transform="translate(162.34775 339.313125)scale(0.2 -0.2)">
      <defs>
       <path d="M 9.421875 75.984375 
L 18.40625 75.984375 
L 18.40625 0 
L 9.421875 0 
z
" id="DejaVuSans-108"/>
       <path d="M 30.609375 48.390625 
Q 23.390625 48.390625 19.1875 42.75 
Q 14.984375 37.109375 14.984375 27.296875 
Q 14.984375 17.484375 19.15625 11.84375 
Q 23.34375 6.203125 30.609375 6.203125 
Q 37.796875 6.203125 41.984375 11.859375 
Q 46.1875 17.53125 46.1875 27.296875 
Q 46.1875 37.015625 41.984375 42.703125 
Q 37.796875 48.390625 30.609375 48.390625 
z
M 30.609375 56 
Q 42.328125 56 49.015625 48.375 
Q 55.71875 40.765625 55.71875 27.296875 
Q 55.71875 13.875 49.015625 6.21875 
Q 42.328125 -1.421875 30.609375 -1.421875 
Q 18.84375 -1.421875 12.171875 6.21875 
Q 5.515625 13.875 5.515625 27.296875 
Q 5.515625 40.765625 12.171875 48.375 
Q 18.84375 56 30.609375 56 
z
" id="DejaVuSans-111"/>
       <path d="M 45.40625 27.984375 
Q 45.40625 37.75 41.375 43.109375 
Q 37.359375 48.484375 30.078125 48.484375 
Q 22.859375 48.484375 18.828125 43.109375 
Q 14.796875 37.75 14.796875 27.984375 
Q 14.796875 18.265625 18.828125 12.890625 
Q 22.859375 7.515625 30.078125 7.515625 
Q 37.359375 7.515625 41.375 12.890625 
Q 45.40625 18.265625 45.40625 27.984375 
z
M 54.390625 6.78125 
Q 54.390625 -7.171875 48.1875 -13.984375 
Q 42 -20.796875 29.203125 -20.796875 
Q 24.46875 -20.796875 20.265625 -20.09375 
Q 16.0625 -19.390625 12.109375 -17.921875 
L 12.109375 -9.1875 
Q 16.0625 -11.328125 19.921875 -12.34375 
Q 23.78125 -13.375 27.78125 -13.375 
Q 36.625 -13.375 41.015625 -8.765625 
Q 45.40625 -4.15625 45.40625 5.171875 
L 45.40625 9.625 
Q 42.625 4.78125 38.28125 2.390625 
Q 33.9375 0 27.875 0 
Q 17.828125 0 11.671875 7.65625 
Q 5.515625 15.328125 5.515625 27.984375 
Q 5.515625 40.671875 11.671875 48.328125 
Q 17.828125 56 27.875 56 
Q 33.9375 56 38.28125 53.609375 
Q 42.625 51.21875 45.40625 46.390625 
L 45.40625 54.6875 
L 54.390625 54.6875 
z
" id="DejaVuSans-103"/>
       <path d="M 31.78125 66.40625 
Q 24.171875 66.40625 20.328125 58.90625 
Q 16.5 51.421875 16.5 36.375 
Q 16.5 21.390625 20.328125 13.890625 
Q 24.171875 6.390625 31.78125 6.390625 
Q 39.453125 6.390625 43.28125 13.890625 
Q 47.125 21.390625 47.125 36.375 
Q 47.125 51.421875 43.28125 58.90625 
Q 39.453125 66.40625 31.78125 66.40625 
z
M 31.78125 74.21875 
Q 44.046875 74.21875 50.515625 64.515625 
Q 56.984375 54.828125 56.984375 36.375 
Q 56.984375 17.96875 50.515625 8.265625 
Q 44.046875 -1.421875 31.78125 -1.421875 
Q 19.53125 -1.421875 13.0625 8.265625 
Q 6.59375 17.96875 6.59375 36.375 
Q 6.59375 54.828125 13.0625 64.515625 
Q 19.53125 74.21875 31.78125 74.21875 
z
" id="DejaVuSans-48"/>
       <path id="DejaVuSans-32"/>
       <path d="M 37.109375 75.984375 
L 37.109375 68.5 
L 28.515625 68.5 
Q 23.6875 68.5 21.796875 66.546875 
Q 19.921875 64.59375 19.921875 59.515625 
L 19.921875 54.6875 
L 34.71875 54.6875 
L 34.71875 47.703125 
L 19.921875 47.703125 
L 19.921875 0 
L 10.890625 0 
L 10.890625 47.703125 
L 2.296875 47.703125 
L 2.296875 54.6875 
L 10.890625 54.6875 
L 10.890625 58.5 
Q 10.890625 67.625 15.140625 71.796875 
Q 19.390625 75.984375 28.609375 75.984375 
z
" id="DejaVuSans-102"/>
       <path d="M 56.203125 29.59375 
L 56.203125 25.203125 
L 14.890625 25.203125 
Q 15.484375 15.921875 20.484375 11.0625 
Q 25.484375 6.203125 34.421875 6.203125 
Q 39.59375 6.203125 44.453125 7.46875 
Q 49.3125 8.734375 54.109375 11.28125 
L 54.109375 2.78125 
Q 49.265625 0.734375 44.1875 -0.34375 
Q 39.109375 -1.421875 33.890625 -1.421875 
Q 20.796875 -1.421875 13.15625 6.1875 
Q 5.515625 13.8125 5.515625 26.8125 
Q 5.515625 40.234375 12.765625 48.109375 
Q 20.015625 56 32.328125 56 
Q 43.359375 56 49.78125 48.890625 
Q 56.203125 41.796875 56.203125 29.59375 
z
M 47.21875 32.234375 
Q 47.125 39.59375 43.09375 43.984375 
Q 39.0625 48.390625 32.421875 48.390625 
Q 24.90625 48.390625 20.390625 44.140625 
Q 15.875 39.890625 15.1875 32.171875 
z
" id="DejaVuSans-101"/>
       <path d="M 2.984375 54.6875 
L 12.5 54.6875 
L 29.59375 8.796875 
L 46.6875 54.6875 
L 56.203125 54.6875 
L 35.6875 0 
L 23.484375 0 
z
" id="DejaVuSans-118"/>
       <path d="M 34.28125 27.484375 
Q 23.390625 27.484375 19.1875 25 
Q 14.984375 22.515625 14.984375 16.5 
Q 14.984375 11.71875 18.140625 8.90625 
Q 21.296875 6.109375 26.703125 6.109375 
Q 34.1875 6.109375 38.703125 11.40625 
Q 43.21875 16.703125 43.21875 25.484375 
L 43.21875 27.484375 
z
M 52.203125 31.203125 
L 52.203125 0 
L 43.21875 0 
L 43.21875 8.296875 
Q 40.140625 3.328125 35.546875 0.953125 
Q 30.953125 -1.421875 24.3125 -1.421875 
Q 15.921875 -1.421875 10.953125 3.296875 
Q 6 8.015625 6 15.921875 
Q 6 25.140625 12.171875 29.828125 
Q 18.359375 34.515625 30.609375 34.515625 
L 43.21875 34.515625 
L 43.21875 35.40625 
Q 43.21875 41.609375 39.140625 45 
Q 35.0625 48.390625 27.6875 48.390625 
Q 23 48.390625 18.546875 47.265625 
Q 14.109375 46.140625 10.015625 43.890625 
L 10.015625 52.203125 
Q 14.9375 54.109375 19.578125 55.046875 
Q 24.21875 56 28.609375 56 
Q 40.484375 56 46.34375 49.84375 
Q 52.203125 43.703125 52.203125 31.203125 
z
" id="DejaVuSans-97"/>
       <path d="M 44.28125 53.078125 
L 44.28125 44.578125 
Q 40.484375 46.53125 36.375 47.5 
Q 32.28125 48.484375 27.875 48.484375 
Q 21.1875 48.484375 17.84375 46.4375 
Q 14.5 44.390625 14.5 40.28125 
Q 14.5 37.15625 16.890625 35.375 
Q 19.28125 33.59375 26.515625 31.984375 
L 29.59375 31.296875 
Q 39.15625 29.25 43.1875 25.515625 
Q 47.21875 21.78125 47.21875 15.09375 
Q 47.21875 7.46875 41.1875 3.015625 
Q 35.15625 -1.421875 24.609375 -1.421875 
Q 20.21875 -1.421875 15.453125 -0.5625 
Q 10.6875 0.296875 5.421875 2 
L 5.421875 11.28125 
Q 10.40625 8.6875 15.234375 7.390625 
Q 20.0625 6.109375 24.8125 6.109375 
Q 31.15625 6.109375 34.5625 8.28125 
Q 37.984375 10.453125 37.984375 14.40625 
Q 37.984375 18.0625 35.515625 20.015625 
Q 33.0625 21.96875 24.703125 23.78125 
L 21.578125 24.515625 
Q 13.234375 26.265625 9.515625 29.90625 
Q 5.8125 33.546875 5.8125 39.890625 
Q 5.8125 47.609375 11.28125 51.796875 
Q 16.75 56 26.8125 56 
Q 31.78125 56 36.171875 55.265625 
Q 40.578125 54.546875 44.28125 53.078125 
z
" id="DejaVuSans-115"/>
       <path d="M 25.390625 72.90625 
L 33.6875 72.90625 
L 8.296875 -9.28125 
L 0 -9.28125 
z
" id="DejaVuSans-47"/>
       <path d="M 19.671875 64.796875 
L 19.671875 8.109375 
L 31.59375 8.109375 
Q 46.6875 8.109375 53.6875 14.9375 
Q 60.6875 21.78125 60.6875 36.53125 
Q 60.6875 51.171875 53.6875 57.984375 
Q 46.6875 64.796875 31.59375 64.796875 
z
M 9.8125 72.90625 
L 30.078125 72.90625 
Q 51.265625 72.90625 61.171875 64.09375 
Q 71.09375 55.28125 71.09375 36.53125 
Q 71.09375 17.671875 61.125 8.828125 
Q 51.171875 0 30.078125 0 
L 9.8125 0 
z
" id="DejaVuSans-68"/>
       <path d="M 9.8125 72.90625 
L 19.671875 72.90625 
L 19.671875 0 
L 9.8125 0 
z
" id="DejaVuSans-73"/>
       <path d="M 9.8125 72.90625 
L 24.515625 72.90625 
L 43.109375 23.296875 
L 61.8125 72.90625 
L 76.515625 72.90625 
L 76.515625 0 
L 66.890625 0 
L 66.890625 64.015625 
L 48.09375 14.015625 
L 38.1875 14.015625 
L 19.390625 64.015625 
L 19.390625 0 
L 9.8125 0 
z
" id="DejaVuSans-77"/>
      </defs>
      <use xlink:href="#DejaVuSans-108"/>
      <use x="27.783203" xlink:href="#DejaVuSans-111"/>
      <use x="88.964844" xlink:href="#DejaVuSans-103"/>
      <use x="152.441406" xlink:href="#DejaVuSans-49"/>
      <use x="216.064453" xlink:href="#DejaVuSans-48"/>
      <use x="279.6875" xlink:href="#DejaVuSans-32"/>
      <use x="311.474609" xlink:href="#DejaVuSans-111"/>
      <use x="372.65625" xlink:href="#DejaVuSans-102"/>
      <use x="407.861328" xlink:href="#DejaVuSans-32"/>
      <use x="439.648438" xlink:href="#DejaVuSans-101"/>
      <use x="501.171875" xlink:href="#DejaVuSans-118"/>
      <use x="560.351562" xlink:href="#DejaVuSans-97"/>
      <use x="621.630859" xlink:href="#DejaVuSans-108"/>
      <use x="649.414062" xlink:href="#DejaVuSans-115"/>
      <use x="701.513672" xlink:href="#DejaVuSans-32"/>
      <use x="733.300781" xlink:href="#DejaVuSans-47"/>
      <use x="766.992188" xlink:href="#DejaVuSans-32"/>
      <use x="798.779297" xlink:href="#DejaVuSans-68"/>
      <use x="875.78125" xlink:href="#DejaVuSans-73"/>
      <use x="905.273438" xlink:href="#DejaVuSans-77"/>
     </g>
    </g>
   </g>
   <g id="matplotlib.axis_2">
    <g id="ytick_1">
     <g id="line2d_37">
      <path clip-path="url(#p52e08160c3)" d="M 62.208 293.76 
L 460.8 293.76 
" style="fill:none;stroke:#b0b0b0;stroke-linecap:square;stroke-width:0.8;"/>
     </g>
     <g id="line2d_38">
      <defs>
       <path d="M 0 0 
L -3.5 0 
" id="m45cfc55e54" style="stroke:#000000;stroke-width:0.8;"/>
      </defs>
      <g>
       <use style="stroke:#000000;stroke-width:0.8;" x="62.208" xlink:href="#m45cfc55e54" y="293.76"/>
      </g>
     </g>
     <g id="text_5">
      <!-- 0.0 -->
      <g transform="translate(29.763 299.83875)scale(0.16 -0.16)">
       <defs>
        <path d="M 10.6875 12.40625 
L 21 12.40625 
L 21 0 
L 10.6875 0 
z
" id="DejaVuSans-46"/>
       </defs>
       <use xlink:href="#DejaVuSans-48"/>
       <use x="63.623047" xlink:href="#DejaVuSans-46"/>
       <use x="95.410156" xlink:href="#DejaVuSans-48"/>
      </g>
     </g>
    </g>
    <g id="ytick_2">
     <g id="line2d_39">
      <path clip-path="url(#p52e08160c3)" d="M 62.208 236.274059 
L 460.8 236.274059 
" style="fill:none;stroke:#b0b0b0;stroke-linecap:square;stroke-width:0.8;"/>
     </g>
     <g id="line2d_40">
      <g>
       <use style="stroke:#000000;stroke-width:0.8;" x="62.208" xlink:href="#m45cfc55e54" y="236.274059"/>
      </g>
     </g>
     <g id="text_6">
      <!-- 0.2 -->
      <g transform="translate(29.763 242.352809)scale(0.16 -0.16)">
       <defs>
        <path d="M 19.1875 8.296875 
L 53.609375 8.296875 
L 53.609375 0 
L 7.328125 0 
L 7.328125 8.296875 
Q 12.9375 14.109375 22.625 23.890625 
Q 32.328125 33.6875 34.8125 36.53125 
Q 39.546875 41.84375 41.421875 45.53125 
Q 43.3125 49.21875 43.3125 52.78125 
Q 43.3125 58.59375 39.234375 62.25 
Q 35.15625 65.921875 28.609375 65.921875 
Q 23.96875 65.921875 18.8125 64.3125 
Q 13.671875 62.703125 7.8125 59.421875 
L 7.8125 69.390625 
Q 13.765625 71.78125 18.9375 73 
Q 24.125 74.21875 28.421875 74.21875 
Q 39.75 74.21875 46.484375 68.546875 
Q 53.21875 62.890625 53.21875 53.421875 
Q 53.21875 48.921875 51.53125 44.890625 
Q 49.859375 40.875 45.40625 35.40625 
Q 44.1875 33.984375 37.640625 27.21875 
Q 31.109375 20.453125 19.1875 8.296875 
z
" id="DejaVuSans-50"/>
       </defs>
       <use xlink:href="#DejaVuSans-48"/>
       <use x="63.623047" xlink:href="#DejaVuSans-46"/>
       <use x="95.410156" xlink:href="#DejaVuSans-50"/>
      </g>
     </g>
    </g>
    <g id="ytick_3">
     <g id="line2d_41">
      <path clip-path="url(#p52e08160c3)" d="M 62.208 178.788119 
L 460.8 178.788119 
" style="fill:none;stroke:#b0b0b0;stroke-linecap:square;stroke-width:0.8;"/>
     </g>
     <g id="line2d_42">
      <g>
       <use style="stroke:#000000;stroke-width:0.8;" x="62.208" xlink:href="#m45cfc55e54" y="178.788119"/>
      </g>
     </g>
     <g id="text_7">
      <!-- 0.4 -->
      <g transform="translate(29.763 184.866869)scale(0.16 -0.16)">
       <defs>
        <path d="M 37.796875 64.3125 
L 12.890625 25.390625 
L 37.796875 25.390625 
z
M 35.203125 72.90625 
L 47.609375 72.90625 
L 47.609375 25.390625 
L 58.015625 25.390625 
L 58.015625 17.1875 
L 47.609375 17.1875 
L 47.609375 0 
L 37.796875 0 
L 37.796875 17.1875 
L 4.890625 17.1875 
L 4.890625 26.703125 
z
" id="DejaVuSans-52"/>
       </defs>
       <use xlink:href="#DejaVuSans-48"/>
       <use x="63.623047" xlink:href="#DejaVuSans-46"/>
       <use x="95.410156" xlink:href="#DejaVuSans-52"/>
      </g>
     </g>
    </g>
    <g id="ytick_4">
     <g id="line2d_43">
      <path clip-path="url(#p52e08160c3)" d="M 62.208 121.302178 
L 460.8 121.302178 
" style="fill:none;stroke:#b0b0b0;stroke-linecap:square;stroke-width:0.8;"/>
     </g>
     <g id="line2d_44">
      <g>
       <use style="stroke:#000000;stroke-width:0.8;" x="62.208" xlink:href="#m45cfc55e54" y="121.302178"/>
      </g>
     </g>
     <g id="text_8">
      <!-- 0.6 -->
      <g transform="translate(29.763 127.380928)scale(0.16 -0.16)">
       <defs>
        <path d="M 33.015625 40.375 
Q 26.375 40.375 22.484375 35.828125 
Q 18.609375 31.296875 18.609375 23.390625 
Q 18.609375 15.53125 22.484375 10.953125 
Q 26.375 6.390625 33.015625 6.390625 
Q 39.65625 6.390625 43.53125 10.953125 
Q 47.40625 15.53125 47.40625 23.390625 
Q 47.40625 31.296875 43.53125 35.828125 
Q 39.65625 40.375 33.015625 40.375 
z
M 52.59375 71.296875 
L 52.59375 62.3125 
Q 48.875 64.0625 45.09375 64.984375 
Q 41.3125 65.921875 37.59375 65.921875 
Q 27.828125 65.921875 22.671875 59.328125 
Q 17.53125 52.734375 16.796875 39.40625 
Q 19.671875 43.65625 24.015625 45.921875 
Q 28.375 48.1875 33.59375 48.1875 
Q 44.578125 48.1875 50.953125 41.515625 
Q 57.328125 34.859375 57.328125 23.390625 
Q 57.328125 12.15625 50.6875 5.359375 
Q 44.046875 -1.421875 33.015625 -1.421875 
Q 20.359375 -1.421875 13.671875 8.265625 
Q 6.984375 17.96875 6.984375 36.375 
Q 6.984375 53.65625 15.1875 63.9375 
Q 23.390625 74.21875 37.203125 74.21875 
Q 40.921875 74.21875 44.703125 73.484375 
Q 48.484375 72.75 52.59375 71.296875 
z
" id="DejaVuSans-54"/>
       </defs>
       <use xlink:href="#DejaVuSans-48"/>
       <use x="63.623047" xlink:href="#DejaVuSans-46"/>
       <use x="95.410156" xlink:href="#DejaVuSans-54"/>
      </g>
     </g>
    </g>
    <g id="ytick_5">
     <g id="line2d_45">
      <path clip-path="url(#p52e08160c3)" d="M 62.208 63.816238 
L 460.8 63.816238 
" style="fill:none;stroke:#b0b0b0;stroke-linecap:square;stroke-width:0.8;"/>
     </g>
     <g id="line2d_46">
      <g>
       <use style="stroke:#000000;stroke-width:0.8;" x="62.208" xlink:href="#m45cfc55e54" y="63.816238"/>
      </g>
     </g>
     <g id="text_9">
      <!-- 0.8 -->
      <g transform="translate(29.763 69.894988)scale(0.16 -0.16)">
       <defs>
        <path d="M 31.78125 34.625 
Q 24.75 34.625 20.71875 30.859375 
Q 16.703125 27.09375 16.703125 20.515625 
Q 16.703125 13.921875 20.71875 10.15625 
Q 24.75 6.390625 31.78125 6.390625 
Q 38.8125 6.390625 42.859375 10.171875 
Q 46.921875 13.96875 46.921875 20.515625 
Q 46.921875 27.09375 42.890625 30.859375 
Q 38.875 34.625 31.78125 34.625 
z
M 21.921875 38.8125 
Q 15.578125 40.375 12.03125 44.71875 
Q 8.5 49.078125 8.5 55.328125 
Q 8.5 64.0625 14.71875 69.140625 
Q 20.953125 74.21875 31.78125 74.21875 
Q 42.671875 74.21875 48.875 69.140625 
Q 55.078125 64.0625 55.078125 55.328125 
Q 55.078125 49.078125 51.53125 44.71875 
Q 48 40.375 41.703125 38.8125 
Q 48.828125 37.15625 52.796875 32.3125 
Q 56.78125 27.484375 56.78125 20.515625 
Q 56.78125 9.90625 50.3125 4.234375 
Q 43.84375 -1.421875 31.78125 -1.421875 
Q 19.734375 -1.421875 13.25 4.234375 
Q 6.78125 9.90625 6.78125 20.515625 
Q 6.78125 27.484375 10.78125 32.3125 
Q 14.796875 37.15625 21.921875 38.8125 
z
M 18.3125 54.390625 
Q 18.3125 48.734375 21.84375 45.5625 
Q 25.390625 42.390625 31.78125 42.390625 
Q 38.140625 42.390625 41.71875 45.5625 
Q 45.3125 48.734375 45.3125 54.390625 
Q 45.3125 60.0625 41.71875 63.234375 
Q 38.140625 66.40625 31.78125 66.40625 
Q 25.390625 66.40625 21.84375 63.234375 
Q 18.3125 60.0625 18.3125 54.390625 
z
" id="DejaVuSans-56"/>
       </defs>
       <use xlink:href="#DejaVuSans-48"/>
       <use x="63.623047" xlink:href="#DejaVuSans-46"/>
       <use x="95.410156" xlink:href="#DejaVuSans-56"/>
      </g>
     </g>
    </g>
    <g id="ytick_6">
     <g id="line2d_47">
      <path clip-path="url(#p52e08160c3)" d="M 62.208 6.330297 
L 460.8 6.330297 
" style="fill:none;stroke:#b0b0b0;stroke-linecap:square;stroke-width:0.8;"/>
     </g>
     <g id="line2d_48">
      <g>
       <use style="stroke:#000000;stroke-width:0.8;" x="62.208" xlink:href="#m45cfc55e54" y="6.330297"/>
      </g>
     </g>
     <g id="text_10">
      <!-- 1.0 -->
      <g transform="translate(29.763 12.409047)scale(0.16 -0.16)">
       <use xlink:href="#DejaVuSans-49"/>
       <use x="63.623047" xlink:href="#DejaVuSans-46"/>
       <use x="95.410156" xlink:href="#DejaVuSans-48"/>
      </g>
     </g>
    </g>
    <g id="text_11">
     <!-- proportion of trials -->
     <g transform="translate(21.603625 241.61425)rotate(-90)scale(0.2 -0.2)">
      <defs>
       <path d="M 18.109375 8.203125 
L 18.109375 -20.796875 
L 9.078125 -20.796875 
L 9.078125 54.6875 
L 18.109375 54.6875 
L 18.109375 46.390625 
Q 20.953125 51.265625 25.265625 53.625 
Q 29.59375 56 35.59375 56 
Q 45.5625 56 51.78125 48.09375 
Q 58.015625 40.1875 58.015625 27.296875 
Q 58.015625 14.40625 51.78125 6.484375 
Q 45.5625 -1.421875 35.59375 -1.421875 
Q 29.59375 -1.421875 25.265625 0.953125 
Q 20.953125 3.328125 18.109375 8.203125 
z
M 48.6875 27.296875 
Q 48.6875 37.203125 44.609375 42.84375 
Q 40.53125 48.484375 33.40625 48.484375 
Q 26.265625 48.484375 22.1875 42.84375 
Q 18.109375 37.203125 18.109375 27.296875 
Q 18.109375 17.390625 22.1875 11.75 
Q 26.265625 6.109375 33.40625 6.109375 
Q 40.53125 6.109375 44.609375 11.75 
Q 48.6875 17.390625 48.6875 27.296875 
z
" id="DejaVuSans-112"/>
       <path d="M 41.109375 46.296875 
Q 39.59375 47.171875 37.8125 47.578125 
Q 36.03125 48 33.890625 48 
Q 26.265625 48 22.1875 43.046875 
Q 18.109375 38.09375 18.109375 28.8125 
L 18.109375 0 
L 9.078125 0 
L 9.078125 54.6875 
L 18.109375 54.6875 
L 18.109375 46.1875 
Q 20.953125 51.171875 25.484375 53.578125 
Q 30.03125 56 36.53125 56 
Q 37.453125 56 38.578125 55.875 
Q 39.703125 55.765625 41.0625 55.515625 
z
" id="DejaVuSans-114"/>
       <path d="M 18.3125 70.21875 
L 18.3125 54.6875 
L 36.8125 54.6875 
L 36.8125 47.703125 
L 18.3125 47.703125 
L 18.3125 18.015625 
Q 18.3125 11.328125 20.140625 9.421875 
Q 21.96875 7.515625 27.59375 7.515625 
L 36.8125 7.515625 
L 36.8125 0 
L 27.59375 0 
Q 17.1875 0 13.234375 3.875 
Q 9.28125 7.765625 9.28125 18.015625 
L 9.28125 47.703125 
L 2.6875 47.703125 
L 2.6875 54.6875 
L 9.28125 54.6875 
L 9.28125 70.21875 
z
" id="DejaVuSans-116"/>
       <path d="M 9.421875 54.6875 
L 18.40625 54.6875 
L 18.40625 0 
L 9.421875 0 
z
M 9.421875 75.984375 
L 18.40625 75.984375 
L 18.40625 64.59375 
L 9.421875 64.59375 
z
" id="DejaVuSans-105"/>
       <path d="M 54.890625 33.015625 
L 54.890625 0 
L 45.90625 0 
L 45.90625 32.71875 
Q 45.90625 40.484375 42.875 44.328125 
Q 39.84375 48.1875 33.796875 48.1875 
Q 26.515625 48.1875 22.3125 43.546875 
Q 18.109375 38.921875 18.109375 30.90625 
L 18.109375 0 
L 9.078125 0 
L 9.078125 54.6875 
L 18.109375 54.6875 
L 18.109375 46.1875 
Q 21.34375 51.125 25.703125 53.5625 
Q 30.078125 56 35.796875 56 
Q 45.21875 56 50.046875 50.171875 
Q 54.890625 44.34375 54.890625 33.015625 
z
" id="DejaVuSans-110"/>
      </defs>
      <use xlink:href="#DejaVuSans-112"/>
      <use x="63.476562" xlink:href="#DejaVuSans-114"/>
      <use x="102.339844" xlink:href="#DejaVuSans-111"/>
      <use x="163.521484" xlink:href="#DejaVuSans-112"/>
      <use x="226.998047" xlink:href="#DejaVuSans-111"/>
      <use x="288.179688" xlink:href="#DejaVuSans-114"/>
      <use x="329.292969" xlink:href="#DejaVuSans-116"/>
      <use x="368.501953" xlink:href="#DejaVuSans-105"/>
      <use x="396.285156" xlink:href="#DejaVuSans-111"/>
      <use x="457.466797" xlink:href="#DejaVuSans-110"/>
      <use x="520.845703" xlink:href="#DejaVuSans-32"/>
      <use x="552.632812" xlink:href="#DejaVuSans-111"/>
      <use x="613.814453" xlink:href="#DejaVuSans-102"/>
      <use x="649.019531" xlink:href="#DejaVuSans-32"/>
      <use x="680.806641" xlink:href="#DejaVuSans-116"/>
      <use x="720.015625" xlink:href="#DejaVuSans-114"/>
      <use x="761.128906" xlink:href="#DejaVuSans-105"/>
      <use x="788.912109" xlink:href="#DejaVuSans-97"/>
      <use x="850.191406" xlink:href="#DejaVuSans-108"/>
      <use x="877.974609" xlink:href="#DejaVuSans-115"/>
     </g>
    </g>
   </g>
   <g id="line2d_49"/>
   <g id="line2d_50"/>
   <g id="line2d_51"/>
   <g id="line2d_52"/>
   <g id="line2d_53">
    <path clip-path="url(#p52e08160c3)" d="M 460.760004 293.76 
L 460.760004 3.456 
" style="fill:none;stroke:#000000;stroke-linecap:square;stroke-width:1.5;"/>
   </g>
   <g id="patch_3">
    <path d="M 62.208 293.76 
L 62.208 3.456 
" style="fill:none;stroke:#000000;stroke-linecap:square;stroke-linejoin:miter;stroke-width:0.8;"/>
   </g>
   <g id="patch_4">
    <path d="M 460.8 293.76 
L 460.8 3.456 
" style="fill:none;stroke:#000000;stroke-linecap:square;stroke-linejoin:miter;stroke-width:0.8;"/>
   </g>
   <g id="patch_5">
    <path d="M 62.208 293.76 
L 460.8 293.76 
" style="fill:none;stroke:#000000;stroke-linecap:square;stroke-linejoin:miter;stroke-width:0.8;"/>
   </g>
   <g id="patch_6">
    <path d="M 62.208 3.456 
L 460.8 3.456 
" style="fill:none;stroke:#000000;stroke-linecap:square;stroke-linejoin:miter;stroke-width:0.8;"/>
   </g>
   <g id="text_12">
    <!-- {f3, f9, f15}, 5-D -->
    <g transform="translate(176.029 24.458955)scale(0.2 -0.2)">
     <defs>
      <path d="M 51.125 -9.28125 
L 51.125 -16.3125 
L 48.09375 -16.3125 
Q 35.9375 -16.3125 31.8125 -12.6875 
Q 27.6875 -9.078125 27.6875 1.703125 
L 27.6875 13.375 
Q 27.6875 20.75 25.046875 23.578125 
Q 22.40625 26.421875 15.484375 26.421875 
L 12.5 26.421875 
L 12.5 33.40625 
L 15.484375 33.40625 
Q 22.46875 33.40625 25.078125 36.203125 
Q 27.6875 39.015625 27.6875 46.296875 
L 27.6875 58.015625 
Q 27.6875 68.796875 31.8125 72.390625 
Q 35.9375 75.984375 48.09375 75.984375 
L 51.125 75.984375 
L 51.125 69 
L 47.796875 69 
Q 40.921875 69 38.8125 66.84375 
Q 36.71875 64.703125 36.71875 57.8125 
L 36.71875 45.703125 
Q 36.71875 38.03125 34.5 34.5625 
Q 32.28125 31.109375 26.90625 29.890625 
Q 32.328125 28.5625 34.515625 25.09375 
Q 36.71875 21.625 36.71875 14.015625 
L 36.71875 1.90625 
Q 36.71875 -4.984375 38.8125 -7.125 
Q 40.921875 -9.28125 47.796875 -9.28125 
z
" id="DejaVuSans-123"/>
      <path d="M 11.71875 12.40625 
L 22.015625 12.40625 
L 22.015625 4 
L 14.015625 -11.625 
L 7.71875 -11.625 
L 11.71875 4 
z
" id="DejaVuSans-44"/>
      <path d="M 10.984375 1.515625 
L 10.984375 10.5 
Q 14.703125 8.734375 18.5 7.8125 
Q 22.3125 6.890625 25.984375 6.890625 
Q 35.75 6.890625 40.890625 13.453125 
Q 46.046875 20.015625 46.78125 33.40625 
Q 43.953125 29.203125 39.59375 26.953125 
Q 35.25 24.703125 29.984375 24.703125 
Q 19.046875 24.703125 12.671875 31.3125 
Q 6.296875 37.9375 6.296875 49.421875 
Q 6.296875 60.640625 12.9375 67.421875 
Q 19.578125 74.21875 30.609375 74.21875 
Q 43.265625 74.21875 49.921875 64.515625 
Q 56.59375 54.828125 56.59375 36.375 
Q 56.59375 19.140625 48.40625 8.859375 
Q 40.234375 -1.421875 26.421875 -1.421875 
Q 22.703125 -1.421875 18.890625 -0.6875 
Q 15.09375 0.046875 10.984375 1.515625 
z
M 30.609375 32.421875 
Q 37.25 32.421875 41.125 36.953125 
Q 45.015625 41.5 45.015625 49.421875 
Q 45.015625 57.28125 41.125 61.84375 
Q 37.25 66.40625 30.609375 66.40625 
Q 23.96875 66.40625 20.09375 61.84375 
Q 16.21875 57.28125 16.21875 49.421875 
Q 16.21875 41.5 20.09375 36.953125 
Q 23.96875 32.421875 30.609375 32.421875 
z
" id="DejaVuSans-57"/>
      <path d="M 12.5 -9.28125 
L 15.921875 -9.28125 
Q 22.75 -9.28125 24.828125 -7.171875 
Q 26.90625 -5.078125 26.90625 1.90625 
L 26.90625 14.015625 
Q 26.90625 21.625 29.09375 25.09375 
Q 31.296875 28.5625 36.71875 29.890625 
Q 31.296875 31.109375 29.09375 34.5625 
Q 26.90625 38.03125 26.90625 45.703125 
L 26.90625 57.8125 
Q 26.90625 64.75 24.828125 66.875 
Q 22.75 69 15.921875 69 
L 12.5 69 
L 12.5 75.984375 
L 15.578125 75.984375 
Q 27.734375 75.984375 31.8125 72.390625 
Q 35.890625 68.796875 35.890625 58.015625 
L 35.890625 46.296875 
Q 35.890625 39.015625 38.515625 36.203125 
Q 41.15625 33.40625 48.09375 33.40625 
L 51.125 33.40625 
L 51.125 26.421875 
L 48.09375 26.421875 
Q 41.15625 26.421875 38.515625 23.578125 
Q 35.890625 20.75 35.890625 13.375 
L 35.890625 1.703125 
Q 35.890625 -9.078125 31.8125 -12.6875 
Q 27.734375 -16.3125 15.578125 -16.3125 
L 12.5 -16.3125 
z
" id="DejaVuSans-125"/>
      <path d="M 4.890625 31.390625 
L 31.203125 31.390625 
L 31.203125 23.390625 
L 4.890625 23.390625 
z
" id="DejaVuSans-45"/>
     </defs>
     <use xlink:href="#DejaVuSans-123"/>
     <use x="63.623047" xlink:href="#DejaVuSans-102"/>
     <use x="98.828125" xlink:href="#DejaVuSans-51"/>
     <use x="162.451172" xlink:href="#DejaVuSans-44"/>
     <use x="194.238281" xlink:href="#DejaVuSans-32"/>
     <use x="226.025391" xlink:href="#DejaVuSans-102"/>
     <use x="261.230469" xlink:href="#DejaVuSans-57"/>
     <use x="324.853516" xlink:href="#DejaVuSans-44"/>
     <use x="356.640625" xlink:href="#DejaVuSans-32"/>
     <use x="388.427734" xlink:href="#DejaVuSans-102"/>
     <use x="423.632812" xlink:href="#DejaVuSans-49"/>
     <use x="487.255859" xlink:href="#DejaVuSans-53"/>
     <use x="550.878906" xlink:href="#DejaVuSans-125"/>
     <use x="614.501953" xlink:href="#DejaVuSans-44"/>
     <use x="646.289062" xlink:href="#DejaVuSans-32"/>
     <use x="678.076172" xlink:href="#DejaVuSans-53"/>
     <use x="741.699219" xlink:href="#DejaVuSans-45"/>
     <use x="777.783203" xlink:href="#DejaVuSans-68"/>
    </g>
   </g>
   <g id="text_13">
    <!-- absolute targets -->
    <g transform="translate(62.208 308.131485)scale(0.14 -0.14)">
     <defs>
      <path d="M 48.6875 27.296875 
Q 48.6875 37.203125 44.609375 42.84375 
Q 40.53125 48.484375 33.40625 48.484375 
Q 26.265625 48.484375 22.1875 42.84375 
Q 18.109375 37.203125 18.109375 27.296875 
Q 18.109375 17.390625 22.1875 11.75 
Q 26.265625 6.109375 33.40625 6.109375 
Q 40.53125 6.109375 44.609375 11.75 
Q 48.6875 17.390625 48.6875 27.296875 
z
M 18.109375 46.390625 
Q 20.953125 51.265625 25.265625 53.625 
Q 29.59375 56 35.59375 56 
Q 45.5625 56 51.78125 48.09375 
Q 58.015625 40.1875 58.015625 27.296875 
Q 58.015625 14.40625 51.78125 6.484375 
Q 45.5625 -1.421875 35.59375 -1.421875 
Q 29.59375 -1.421875 25.265625 0.953125 
Q 20.953125 3.328125 18.109375 8.203125 
L 18.109375 0 
L 9.078125 0 
L 9.078125 75.984375 
L 18.109375 75.984375 
z
" id="DejaVuSans-98"/>
      <path d="M 8.5 21.578125 
L 8.5 54.6875 
L 17.484375 54.6875 
L 17.484375 21.921875 
Q 17.484375 14.15625 20.5 10.265625 
Q 23.53125 6.390625 29.59375 6.390625 
Q 36.859375 6.390625 41.078125 11.03125 
Q 45.3125 15.671875 45.3125 23.6875 
L 45.3125 54.6875 
L 54.296875 54.6875 
L 54.296875 0 
L 45.3125 0 
L 45.3125 8.40625 
Q 42.046875 3.421875 37.71875 1 
Q 33.40625 -1.421875 27.6875 -1.421875 
Q 18.265625 -1.421875 13.375 4.4375 
Q 8.5 10.296875 8.5 21.578125 
z
M 31.109375 56 
z
" id="DejaVuSans-117"/>
     </defs>
     <use xlink:href="#DejaVuSans-97"/>
     <use x="61.279297" xlink:href="#DejaVuSans-98"/>
     <use x="124.755859" xlink:href="#DejaVuSans-115"/>
     <use x="176.855469" xlink:href="#DejaVuSans-111"/>
     <use x="238.037109" xlink:href="#DejaVuSans-108"/>
     <use x="265.820312" xlink:href="#DejaVuSans-117"/>
     <use x="329.199219" xlink:href="#DejaVuSans-116"/>
     <use x="368.408203" xlink:href="#DejaVuSans-101"/>
     <use x="429.931641" xlink:href="#DejaVuSans-32"/>
     <use x="461.71875" xlink:href="#DejaVuSans-116"/>
     <use x="500.927734" xlink:href="#DejaVuSans-97"/>
     <use x="562.207031" xlink:href="#DejaVuSans-114"/>
     <use x="601.570312" xlink:href="#DejaVuSans-103"/>
     <use x="665.046875" xlink:href="#DejaVuSans-101"/>
     <use x="726.570312" xlink:href="#DejaVuSans-116"/>
     <use x="765.779297" xlink:href="#DejaVuSans-115"/>
    </g>
   </g>
   <g id="text_14">
    <!-- v2.99.1 -->
    <g style="fill:#808080;" transform="translate(242.6415 288.777272)scale(0.1 -0.1)">
     <use xlink:href="#DejaVuSans-118"/>
     <use x="59.179688" xlink:href="#DejaVuSans-50"/>
     <use x="122.802734" xlink:href="#DejaVuSans-46"/>
     <use x="154.589844" xlink:href="#DejaVuSans-57"/>
     <use x="218.212891" xlink:href="#DejaVuSans-57"/>
     <use x="281.835938" xlink:href="#DejaVuSans-46"/>
     <use x="313.623047" xlink:href="#DejaVuSans-49"/>
    </g>
   </g>
   <g id="legend_1">
    <g id="patch_7">
     <path d="M 76.208 136.881 
L 205.429875 136.881 
Q 209.429875 136.881 209.429875 132.881 
L 209.429875 17.456 
Q 209.429875 13.456 205.429875 13.456 
L 76.208 13.456 
Q 72.208 13.456 72.208 17.456 
L 72.208 132.881 
Q 72.208 136.881 76.208 136.881 
z
" style="fill:#ffffff;opacity:0.2;stroke:#cccccc;stroke-linejoin:miter;"/>
    </g>
    <g id="line2d_54">
     <path d="M 80.208 29.652875 
L 120.208 29.652875 
" style="fill:none;stroke:#000000;stroke-linecap:square;stroke-width:1.5;"/>
    </g>
    <g id="line2d_55"/>
    <g id="text_15">
     <!-- 1: 0/3 -->
     <g transform="translate(136.208 36.652875)scale(0.2 -0.2)">
      <defs>
       <path d="M 11.71875 12.40625 
L 22.015625 12.40625 
L 22.015625 0 
L 11.71875 0 
z
M 11.71875 51.703125 
L 22.015625 51.703125 
L 22.015625 39.3125 
L 11.71875 39.3125 
z
" id="DejaVuSans-58"/>
      </defs>
      <use xlink:href="#DejaVuSans-49"/>
      <use x="63.623047" xlink:href="#DejaVuSans-58"/>
      <use x="97.314453" xlink:href="#DejaVuSans-32"/>
      <use x="129.101562" xlink:href="#DejaVuSans-48"/>
      <use x="192.724609" xlink:href="#DejaVuSans-47"/>
      <use x="226.416016" xlink:href="#DejaVuSans-51"/>
     </g>
    </g>
    <g id="line2d_56">
     <path d="M 80.208 59.009125 
L 120.208 59.009125 
" style="fill:none;stroke:#00bfbf;stroke-linecap:square;stroke-width:1.5;"/>
    </g>
    <g id="line2d_57"/>
    <g id="text_16">
     <!-- -1: 0/3 -->
     <g transform="translate(136.208 66.009125)scale(0.2 -0.2)">
      <use xlink:href="#DejaVuSans-45"/>
      <use x="36.083984" xlink:href="#DejaVuSans-49"/>
      <use x="99.707031" xlink:href="#DejaVuSans-58"/>
      <use x="133.398438" xlink:href="#DejaVuSans-32"/>
      <use x="165.185547" xlink:href="#DejaVuSans-48"/>
      <use x="228.808594" xlink:href="#DejaVuSans-47"/>
      <use x="262.5" xlink:href="#DejaVuSans-51"/>
     </g>
    </g>
    <g id="line2d_58">
     <path d="M 80.208 88.365375 
L 120.208 88.365375 
" style="fill:none;stroke:#bf00bf;stroke-linecap:square;stroke-width:1.5;"/>
    </g>
    <g id="line2d_59"/>
    <g id="text_17">
     <!-- -4: 0/3 -->
     <g transform="translate(136.208 95.365375)scale(0.2 -0.2)">
      <use xlink:href="#DejaVuSans-45"/>
      <use x="36.083984" xlink:href="#DejaVuSans-52"/>
      <use x="99.707031" xlink:href="#DejaVuSans-58"/>
      <use x="133.398438" xlink:href="#DejaVuSans-32"/>
      <use x="165.185547" xlink:href="#DejaVuSans-48"/>
      <use x="228.808594" xlink:href="#DejaVuSans-47"/>
      <use x="262.5" xlink:href="#DejaVuSans-51"/>
     </g>
    </g>
    <g id="line2d_60">
     <path d="M 80.208 117.721625 
L 120.208 117.721625 
" style="fill:none;stroke:#ff0000;stroke-linecap:square;stroke-width:3;"/>
    </g>
    <g id="line2d_61"/>
    <g id="text_18">
     <!-- -6: 0/3 -->
     <g transform="translate(136.208 124.721625)scale(0.2 -0.2)">
      <use xlink:href="#DejaVuSans-45"/>
      <use x="36.083984" xlink:href="#DejaVuSans-54"/>
      <use x="99.707031" xlink:href="#DejaVuSans-58"/>
      <use x="133.398438" xlink:href="#DejaVuSans-32"/>
      <use x="165.185547" xlink:href="#DejaVuSans-48"/>
      <use x="228.808594" xlink:href="#DejaVuSans-47"/>
      <use x="262.5" xlink:href="#DejaVuSans-51"/>
     </g>
    </g>
   </g>
  </g>
 </g>
 <defs>
  <clipPath id="p52e08160c3">
   <rect height="290.304" width="398.592" x="62.208" y="3.456"/>
  </clipPath>
 </defs>
</svg>
