<?xml version="1.0" encoding="utf-8" standalone="no"?>
<!DOCTYPE svg PUBLIC "-//W3C//DTD SVG 1.1//EN"
  "http://www.w3.org/Graphics/SVG/1.1/DTD/svg11.dtd">
<!-- Created with matplotlib (https://matplotlib.org/) -->
<svg height="345.6pt" version="1.1" viewBox="0 0 460.8 345.6" width="460.8pt" xmlns="http://www.w3.org/2000/svg" xmlns:xlink="http://www.w3.org/1999/xlink">
 <metadata>
  <rdf:RDF xmlns:cc="http://creativecommons.org/ns#" xmlns:dc="http://purl.org/dc/elements/1.1/" xmlns:rdf="http://www.w3.org/1999/02/22-rdf-syntax-ns#">
   <cc:Work>
    <dc:type rdf:resource="http://purl.org/dc/dcmitype/StillImage"/>
    <dc:date>2022-01-12T20:21:20.328778</dc:date>
    <dc:format>image/svg+xml</dc:format>
    <dc:creator>
     <cc:Agent>
      <dc:title>Matplotlib v3.3.3, https://matplotlib.org/</dc:title>
     </cc:Agent>
    </dc:creator>
   </cc:Work>
  </rdf:RDF>
 </metadata>
 <defs>
  <style type="text/css">*{stroke-linecap:butt;stroke-linejoin:round;}</style>
 </defs>
 <g id="figure_1">
  <g id="patch_1">
   <path d="M 0 345.6 
L 460.8 345.6 
L 460.8 0 
L 0 0 
z
" style="fill:#ffffff;"/>
  </g>
  <g id="axes_1">
   <g id="patch_2">
    <path d="M 57.6 298.944 
L 338.688 298.944 
L 338.688 3.456 
L 57.6 3.456 
z
" style="fill:#ffffff;"/>
   </g>
   <g id="matplotlib.axis_1">
    <g id="xtick_1">
     <g id="line2d_1">
      <path clip-path="url(#p77e428f1da)" d="M 57.6 298.944 
L 57.6 3.456 
" style="fill:none;stroke:#b0b0b0;stroke-linecap:square;stroke-width:0.8;"/>
     </g>
     <g id="line2d_2">
      <defs>
       <path d="M 0 0 
L 0 3.5 
" id="ma4f5454092" style="stroke:#000000;stroke-width:0.8;"/>
      </defs>
      <g>
       <use style="stroke:#000000;stroke-width:0.8;" x="57.6" xlink:href="#ma4f5454092" y="298.944"/>
      </g>
     </g>
     <g id="text_1">
      <!-- 0 -->
      <g transform="translate(51.2375 321.140875)scale(0.2 -0.2)">
       <defs>
        <path d="M 31.78125 66.40625 
Q 24.171875 66.40625 20.328125 58.90625 
Q 16.5 51.421875 16.5 36.375 
Q 16.5 21.390625 20.328125 13.890625 
Q 24.171875 6.390625 31.78125 6.390625 
Q 39.453125 6.390625 43.28125 13.890625 
Q 47.125 21.390625 47.125 36.375 
Q 47.125 51.421875 43.28125 58.90625 
Q 39.453125 66.40625 31.78125 66.40625 
z
M 31.78125 74.21875 
Q 44.046875 74.21875 50.515625 64.515625 
Q 56.984375 54.828125 56.984375 36.375 
Q 56.984375 17.96875 50.515625 8.265625 
Q 44.046875 -1.421875 31.78125 -1.421875 
Q 19.53125 -1.421875 13.0625 8.265625 
Q 6.59375 17.96875 6.59375 36.375 
Q 6.59375 54.828125 13.0625 64.515625 
Q 19.53125 74.21875 31.78125 74.21875 
z
" id="DejaVuSans-48"/>
       </defs>
       <use xlink:href="#DejaVuSans-48"/>
      </g>
     </g>
    </g>
    <g id="xtick_2">
     <g id="line2d_3">
      <path clip-path="url(#p77e428f1da)" d="M 137.910857 298.944 
L 137.910857 3.456 
" style="fill:none;stroke:#b0b0b0;stroke-linecap:square;stroke-width:0.8;"/>
     </g>
     <g id="line2d_4">
      <g>
       <use style="stroke:#000000;stroke-width:0.8;" x="137.910857" xlink:href="#ma4f5454092" y="298.944"/>
      </g>
     </g>
     <g id="text_2">
      <!-- 2 -->
      <g transform="translate(131.548357 321.140875)scale(0.2 -0.2)">
       <defs>
        <path d="M 19.1875 8.296875 
L 53.609375 8.296875 
L 53.609375 0 
L 7.328125 0 
L 7.328125 8.296875 
Q 12.9375 14.109375 22.625 23.890625 
Q 32.328125 33.6875 34.8125 36.53125 
Q 39.546875 41.84375 41.421875 45.53125 
Q 43.3125 49.21875 43.3125 52.78125 
Q 43.3125 58.59375 39.234375 62.25 
Q 35.15625 65.921875 28.609375 65.921875 
Q 23.96875 65.921875 18.8125 64.3125 
Q 13.671875 62.703125 7.8125 59.421875 
L 7.8125 69.390625 
Q 13.765625 71.78125 18.9375 73 
Q 24.125 74.21875 28.421875 74.21875 
Q 39.75 74.21875 46.484375 68.546875 
Q 53.21875 62.890625 53.21875 53.421875 
Q 53.21875 48.921875 51.53125 44.890625 
Q 49.859375 40.875 45.40625 35.40625 
Q 44.1875 33.984375 37.640625 27.21875 
Q 31.109375 20.453125 19.1875 8.296875 
z
" id="DejaVuSans-50"/>
       </defs>
       <use xlink:href="#DejaVuSans-50"/>
      </g>
     </g>
    </g>
    <g id="xtick_3">
     <g id="line2d_5">
      <path clip-path="url(#p77e428f1da)" d="M 218.221714 298.944 
L 218.221714 3.456 
" style="fill:none;stroke:#b0b0b0;stroke-linecap:square;stroke-width:0.8;"/>
     </g>
     <g id="line2d_6">
      <g>
       <use style="stroke:#000000;stroke-width:0.8;" x="218.221714" xlink:href="#ma4f5454092" y="298.944"/>
      </g>
     </g>
     <g id="text_3">
      <!-- 4 -->
      <g transform="translate(211.859214 321.140875)scale(0.2 -0.2)">
       <defs>
        <path d="M 37.796875 64.3125 
L 12.890625 25.390625 
L 37.796875 25.390625 
z
M 35.203125 72.90625 
L 47.609375 72.90625 
L 47.609375 25.390625 
L 58.015625 25.390625 
L 58.015625 17.1875 
L 47.609375 17.1875 
L 47.609375 0 
L 37.796875 0 
L 37.796875 17.1875 
L 4.890625 17.1875 
L 4.890625 26.703125 
z
" id="DejaVuSans-52"/>
       </defs>
       <use xlink:href="#DejaVuSans-52"/>
      </g>
     </g>
    </g>
    <g id="xtick_4">
     <g id="line2d_7">
      <path clip-path="url(#p77e428f1da)" d="M 298.532571 298.944 
L 298.532571 3.456 
" style="fill:none;stroke:#b0b0b0;stroke-linecap:square;stroke-width:0.8;"/>
     </g>
     <g id="line2d_8">
      <g>
       <use style="stroke:#000000;stroke-width:0.8;" x="298.532571" xlink:href="#ma4f5454092" y="298.944"/>
      </g>
     </g>
     <g id="text_4">
      <!-- 6 -->
      <g transform="translate(292.170071 321.140875)scale(0.2 -0.2)">
       <defs>
        <path d="M 33.015625 40.375 
Q 26.375 40.375 22.484375 35.828125 
Q 18.609375 31.296875 18.609375 23.390625 
Q 18.609375 15.53125 22.484375 10.953125 
Q 26.375 6.390625 33.015625 6.390625 
Q 39.65625 6.390625 43.53125 10.953125 
Q 47.40625 15.53125 47.40625 23.390625 
Q 47.40625 31.296875 43.53125 35.828125 
Q 39.65625 40.375 33.015625 40.375 
z
M 52.59375 71.296875 
L 52.59375 62.3125 
Q 48.875 64.0625 45.09375 64.984375 
Q 41.3125 65.921875 37.59375 65.921875 
Q 27.828125 65.921875 22.671875 59.328125 
Q 17.53125 52.734375 16.796875 39.40625 
Q 19.671875 43.65625 24.015625 45.921875 
Q 28.375 48.1875 33.59375 48.1875 
Q 44.578125 48.1875 50.953125 41.515625 
Q 57.328125 34.859375 57.328125 23.390625 
Q 57.328125 12.15625 50.6875 5.359375 
Q 44.046875 -1.421875 33.015625 -1.421875 
Q 20.359375 -1.421875 13.671875 8.265625 
Q 6.984375 17.96875 6.984375 36.375 
Q 6.984375 53.65625 15.1875 63.9375 
Q 23.390625 74.21875 37.203125 74.21875 
Q 40.921875 74.21875 44.703125 73.484375 
Q 48.484375 72.75 52.59375 71.296875 
z
" id="DejaVuSans-54"/>
       </defs>
       <use xlink:href="#DejaVuSans-54"/>
      </g>
     </g>
    </g>
    <g id="xtick_5">
     <g id="line2d_9">
      <path clip-path="url(#p77e428f1da)" d="M 97.755429 298.944 
L 97.755429 3.456 
" style="fill:none;stroke:#b0b0b0;stroke-linecap:square;stroke-width:0.8;"/>
     </g>
     <g id="line2d_10">
      <defs>
       <path d="M 0 0 
L 0 2 
" id="ma0c84e976c" style="stroke:#000000;stroke-width:0.6;"/>
      </defs>
      <g>
       <use style="stroke:#000000;stroke-width:0.6;" x="97.755429" xlink:href="#ma0c84e976c" y="298.944"/>
      </g>
     </g>
    </g>
    <g id="xtick_6">
     <g id="line2d_11">
      <path clip-path="url(#p77e428f1da)" d="M 178.066286 298.944 
L 178.066286 3.456 
" style="fill:none;stroke:#b0b0b0;stroke-linecap:square;stroke-width:0.8;"/>
     </g>
     <g id="line2d_12">
      <g>
       <use style="stroke:#000000;stroke-width:0.6;" x="178.066286" xlink:href="#ma0c84e976c" y="298.944"/>
      </g>
     </g>
    </g>
    <g id="xtick_7">
     <g id="line2d_13">
      <path clip-path="url(#p77e428f1da)" d="M 258.377143 298.944 
L 258.377143 3.456 
" style="fill:none;stroke:#b0b0b0;stroke-linecap:square;stroke-width:0.8;"/>
     </g>
     <g id="line2d_14">
      <g>
       <use style="stroke:#000000;stroke-width:0.6;" x="258.377143" xlink:href="#ma0c84e976c" y="298.944"/>
      </g>
     </g>
    </g>
    <g id="xtick_8">
     <g id="line2d_15">
      <path clip-path="url(#p77e428f1da)" d="M 338.688 298.944 
L 338.688 3.456 
" style="fill:none;stroke:#b0b0b0;stroke-linecap:square;stroke-width:0.8;"/>
     </g>
     <g id="line2d_16">
      <g>
       <use style="stroke:#000000;stroke-width:0.6;" x="338.688" xlink:href="#ma0c84e976c" y="298.944"/>
      </g>
     </g>
    </g>
    <g id="text_5">
     <!-- log10(# (f+g)-evals / dimension) -->
     <g transform="translate(58.145016 342.217594)scale(0.17 -0.17)">
      <defs>
       <path d="M 9.421875 75.984375 
L 18.40625 75.984375 
L 18.40625 0 
L 9.421875 0 
z
" id="DejaVuSans-108"/>
       <path d="M 30.609375 48.390625 
Q 23.390625 48.390625 19.1875 42.75 
Q 14.984375 37.109375 14.984375 27.296875 
Q 14.984375 17.484375 19.15625 11.84375 
Q 23.34375 6.203125 30.609375 6.203125 
Q 37.796875 6.203125 41.984375 11.859375 
Q 46.1875 17.53125 46.1875 27.296875 
Q 46.1875 37.015625 41.984375 42.703125 
Q 37.796875 48.390625 30.609375 48.390625 
z
M 30.609375 56 
Q 42.328125 56 49.015625 48.375 
Q 55.71875 40.765625 55.71875 27.296875 
Q 55.71875 13.875 49.015625 6.21875 
Q 42.328125 -1.421875 30.609375 -1.421875 
Q 18.84375 -1.421875 12.171875 6.21875 
Q 5.515625 13.875 5.515625 27.296875 
Q 5.515625 40.765625 12.171875 48.375 
Q 18.84375 56 30.609375 56 
z
" id="DejaVuSans-111"/>
       <path d="M 45.40625 27.984375 
Q 45.40625 37.75 41.375 43.109375 
Q 37.359375 48.484375 30.078125 48.484375 
Q 22.859375 48.484375 18.828125 43.109375 
Q 14.796875 37.75 14.796875 27.984375 
Q 14.796875 18.265625 18.828125 12.890625 
Q 22.859375 7.515625 30.078125 7.515625 
Q 37.359375 7.515625 41.375 12.890625 
Q 45.40625 18.265625 45.40625 27.984375 
z
M 54.390625 6.78125 
Q 54.390625 -7.171875 48.1875 -13.984375 
Q 42 -20.796875 29.203125 -20.796875 
Q 24.46875 -20.796875 20.265625 -20.09375 
Q 16.0625 -19.390625 12.109375 -17.921875 
L 12.109375 -9.1875 
Q 16.0625 -11.328125 19.921875 -12.34375 
Q 23.78125 -13.375 27.78125 -13.375 
Q 36.625 -13.375 41.015625 -8.765625 
Q 45.40625 -4.15625 45.40625 5.171875 
L 45.40625 9.625 
Q 42.625 4.78125 38.28125 2.390625 
Q 33.9375 0 27.875 0 
Q 17.828125 0 11.671875 7.65625 
Q 5.515625 15.328125 5.515625 27.984375 
Q 5.515625 40.671875 11.671875 48.328125 
Q 17.828125 56 27.875 56 
Q 33.9375 56 38.28125 53.609375 
Q 42.625 51.21875 45.40625 46.390625 
L 45.40625 54.6875 
L 54.390625 54.6875 
z
" id="DejaVuSans-103"/>
       <path d="M 12.40625 8.296875 
L 28.515625 8.296875 
L 28.515625 63.921875 
L 10.984375 60.40625 
L 10.984375 69.390625 
L 28.421875 72.90625 
L 38.28125 72.90625 
L 38.28125 8.296875 
L 54.390625 8.296875 
L 54.390625 0 
L 12.40625 0 
z
" id="DejaVuSans-49"/>
       <path d="M 31 75.875 
Q 24.46875 64.65625 21.28125 53.65625 
Q 18.109375 42.671875 18.109375 31.390625 
Q 18.109375 20.125 21.3125 9.0625 
Q 24.515625 -2 31 -13.1875 
L 23.1875 -13.1875 
Q 15.875 -1.703125 12.234375 9.375 
Q 8.59375 20.453125 8.59375 31.390625 
Q 8.59375 42.28125 12.203125 53.3125 
Q 15.828125 64.359375 23.1875 75.875 
z
" id="DejaVuSans-40"/>
       <path d="M 51.125 44 
L 36.921875 44 
L 32.8125 27.6875 
L 47.125 27.6875 
z
M 43.796875 71.78125 
L 38.71875 51.515625 
L 52.984375 51.515625 
L 58.109375 71.78125 
L 65.921875 71.78125 
L 60.890625 51.515625 
L 76.125 51.515625 
L 76.125 44 
L 58.984375 44 
L 54.984375 27.6875 
L 70.515625 27.6875 
L 70.515625 20.21875 
L 53.078125 20.21875 
L 48 0 
L 40.1875 0 
L 45.21875 20.21875 
L 30.90625 20.21875 
L 25.875 0 
L 18.015625 0 
L 23.09375 20.21875 
L 7.71875 20.21875 
L 7.71875 27.6875 
L 24.90625 27.6875 
L 29 44 
L 13.28125 44 
L 13.28125 51.515625 
L 30.90625 51.515625 
L 35.890625 71.78125 
z
" id="DejaVuSans-35"/>
       <path id="DejaVuSans-32"/>
       <path d="M 37.109375 75.984375 
L 37.109375 68.5 
L 28.515625 68.5 
Q 23.6875 68.5 21.796875 66.546875 
Q 19.921875 64.59375 19.921875 59.515625 
L 19.921875 54.6875 
L 34.71875 54.6875 
L 34.71875 47.703125 
L 19.921875 47.703125 
L 19.921875 0 
L 10.890625 0 
L 10.890625 47.703125 
L 2.296875 47.703125 
L 2.296875 54.6875 
L 10.890625 54.6875 
L 10.890625 58.5 
Q 10.890625 67.625 15.140625 71.796875 
Q 19.390625 75.984375 28.609375 75.984375 
z
" id="DejaVuSans-102"/>
       <path d="M 46 62.703125 
L 46 35.5 
L 73.1875 35.5 
L 73.1875 27.203125 
L 46 27.203125 
L 46 0 
L 37.796875 0 
L 37.796875 27.203125 
L 10.59375 27.203125 
L 10.59375 35.5 
L 37.796875 35.5 
L 37.796875 62.703125 
z
" id="DejaVuSans-43"/>
       <path d="M 8.015625 75.875 
L 15.828125 75.875 
Q 23.140625 64.359375 26.78125 53.3125 
Q 30.421875 42.28125 30.421875 31.390625 
Q 30.421875 20.453125 26.78125 9.375 
Q 23.140625 -1.703125 15.828125 -13.1875 
L 8.015625 -13.1875 
Q 14.5 -2 17.703125 9.0625 
Q 20.90625 20.125 20.90625 31.390625 
Q 20.90625 42.671875 17.703125 53.65625 
Q 14.5 64.65625 8.015625 75.875 
z
" id="DejaVuSans-41"/>
       <path d="M 4.890625 31.390625 
L 31.203125 31.390625 
L 31.203125 23.390625 
L 4.890625 23.390625 
z
" id="DejaVuSans-45"/>
       <path d="M 56.203125 29.59375 
L 56.203125 25.203125 
L 14.890625 25.203125 
Q 15.484375 15.921875 20.484375 11.0625 
Q 25.484375 6.203125 34.421875 6.203125 
Q 39.59375 6.203125 44.453125 7.46875 
Q 49.3125 8.734375 54.109375 11.28125 
L 54.109375 2.78125 
Q 49.265625 0.734375 44.1875 -0.34375 
Q 39.109375 -1.421875 33.890625 -1.421875 
Q 20.796875 -1.421875 13.15625 6.1875 
Q 5.515625 13.8125 5.515625 26.8125 
Q 5.515625 40.234375 12.765625 48.109375 
Q 20.015625 56 32.328125 56 
Q 43.359375 56 49.78125 48.890625 
Q 56.203125 41.796875 56.203125 29.59375 
z
M 47.21875 32.234375 
Q 47.125 39.59375 43.09375 43.984375 
Q 39.0625 48.390625 32.421875 48.390625 
Q 24.90625 48.390625 20.390625 44.140625 
Q 15.875 39.890625 15.1875 32.171875 
z
" id="DejaVuSans-101"/>
       <path d="M 2.984375 54.6875 
L 12.5 54.6875 
L 29.59375 8.796875 
L 46.6875 54.6875 
L 56.203125 54.6875 
L 35.6875 0 
L 23.484375 0 
z
" id="DejaVuSans-118"/>
       <path d="M 34.28125 27.484375 
Q 23.390625 27.484375 19.1875 25 
Q 14.984375 22.515625 14.984375 16.5 
Q 14.984375 11.71875 18.140625 8.90625 
Q 21.296875 6.109375 26.703125 6.109375 
Q 34.1875 6.109375 38.703125 11.40625 
Q 43.21875 16.703125 43.21875 25.484375 
L 43.21875 27.484375 
z
M 52.203125 31.203125 
L 52.203125 0 
L 43.21875 0 
L 43.21875 8.296875 
Q 40.140625 3.328125 35.546875 0.953125 
Q 30.953125 -1.421875 24.3125 -1.421875 
Q 15.921875 -1.421875 10.953125 3.296875 
Q 6 8.015625 6 15.921875 
Q 6 25.140625 12.171875 29.828125 
Q 18.359375 34.515625 30.609375 34.515625 
L 43.21875 34.515625 
L 43.21875 35.40625 
Q 43.21875 41.609375 39.140625 45 
Q 35.0625 48.390625 27.6875 48.390625 
Q 23 48.390625 18.546875 47.265625 
Q 14.109375 46.140625 10.015625 43.890625 
L 10.015625 52.203125 
Q 14.9375 54.109375 19.578125 55.046875 
Q 24.21875 56 28.609375 56 
Q 40.484375 56 46.34375 49.84375 
Q 52.203125 43.703125 52.203125 31.203125 
z
" id="DejaVuSans-97"/>
       <path d="M 44.28125 53.078125 
L 44.28125 44.578125 
Q 40.484375 46.53125 36.375 47.5 
Q 32.28125 48.484375 27.875 48.484375 
Q 21.1875 48.484375 17.84375 46.4375 
Q 14.5 44.390625 14.5 40.28125 
Q 14.5 37.15625 16.890625 35.375 
Q 19.28125 33.59375 26.515625 31.984375 
L 29.59375 31.296875 
Q 39.15625 29.25 43.1875 25.515625 
Q 47.21875 21.78125 47.21875 15.09375 
Q 47.21875 7.46875 41.1875 3.015625 
Q 35.15625 -1.421875 24.609375 -1.421875 
Q 20.21875 -1.421875 15.453125 -0.5625 
Q 10.6875 0.296875 5.421875 2 
L 5.421875 11.28125 
Q 10.40625 8.6875 15.234375 7.390625 
Q 20.0625 6.109375 24.8125 6.109375 
Q 31.15625 6.109375 34.5625 8.28125 
Q 37.984375 10.453125 37.984375 14.40625 
Q 37.984375 18.0625 35.515625 20.015625 
Q 33.0625 21.96875 24.703125 23.78125 
L 21.578125 24.515625 
Q 13.234375 26.265625 9.515625 29.90625 
Q 5.8125 33.546875 5.8125 39.890625 
Q 5.8125 47.609375 11.28125 51.796875 
Q 16.75 56 26.8125 56 
Q 31.78125 56 36.171875 55.265625 
Q 40.578125 54.546875 44.28125 53.078125 
z
" id="DejaVuSans-115"/>
       <path d="M 25.390625 72.90625 
L 33.6875 72.90625 
L 8.296875 -9.28125 
L 0 -9.28125 
z
" id="DejaVuSans-47"/>
       <path d="M 45.40625 46.390625 
L 45.40625 75.984375 
L 54.390625 75.984375 
L 54.390625 0 
L 45.40625 0 
L 45.40625 8.203125 
Q 42.578125 3.328125 38.25 0.953125 
Q 33.9375 -1.421875 27.875 -1.421875 
Q 17.96875 -1.421875 11.734375 6.484375 
Q 5.515625 14.40625 5.515625 27.296875 
Q 5.515625 40.1875 11.734375 48.09375 
Q 17.96875 56 27.875 56 
Q 33.9375 56 38.25 53.625 
Q 42.578125 51.265625 45.40625 46.390625 
z
M 14.796875 27.296875 
Q 14.796875 17.390625 18.875 11.75 
Q 22.953125 6.109375 30.078125 6.109375 
Q 37.203125 6.109375 41.296875 11.75 
Q 45.40625 17.390625 45.40625 27.296875 
Q 45.40625 37.203125 41.296875 42.84375 
Q 37.203125 48.484375 30.078125 48.484375 
Q 22.953125 48.484375 18.875 42.84375 
Q 14.796875 37.203125 14.796875 27.296875 
z
" id="DejaVuSans-100"/>
       <path d="M 9.421875 54.6875 
L 18.40625 54.6875 
L 18.40625 0 
L 9.421875 0 
z
M 9.421875 75.984375 
L 18.40625 75.984375 
L 18.40625 64.59375 
L 9.421875 64.59375 
z
" id="DejaVuSans-105"/>
       <path d="M 52 44.1875 
Q 55.375 50.25 60.0625 53.125 
Q 64.75 56 71.09375 56 
Q 79.640625 56 84.28125 50.015625 
Q 88.921875 44.046875 88.921875 33.015625 
L 88.921875 0 
L 79.890625 0 
L 79.890625 32.71875 
Q 79.890625 40.578125 77.09375 44.375 
Q 74.3125 48.1875 68.609375 48.1875 
Q 61.625 48.1875 57.5625 43.546875 
Q 53.515625 38.921875 53.515625 30.90625 
L 53.515625 0 
L 44.484375 0 
L 44.484375 32.71875 
Q 44.484375 40.625 41.703125 44.40625 
Q 38.921875 48.1875 33.109375 48.1875 
Q 26.21875 48.1875 22.15625 43.53125 
Q 18.109375 38.875 18.109375 30.90625 
L 18.109375 0 
L 9.078125 0 
L 9.078125 54.6875 
L 18.109375 54.6875 
L 18.109375 46.1875 
Q 21.1875 51.21875 25.484375 53.609375 
Q 29.78125 56 35.6875 56 
Q 41.65625 56 45.828125 52.96875 
Q 50 49.953125 52 44.1875 
z
" id="DejaVuSans-109"/>
       <path d="M 54.890625 33.015625 
L 54.890625 0 
L 45.90625 0 
L 45.90625 32.71875 
Q 45.90625 40.484375 42.875 44.328125 
Q 39.84375 48.1875 33.796875 48.1875 
Q 26.515625 48.1875 22.3125 43.546875 
Q 18.109375 38.921875 18.109375 30.90625 
L 18.109375 0 
L 9.078125 0 
L 9.078125 54.6875 
L 18.109375 54.6875 
L 18.109375 46.1875 
Q 21.34375 51.125 25.703125 53.5625 
Q 30.078125 56 35.796875 56 
Q 45.21875 56 50.046875 50.171875 
Q 54.890625 44.34375 54.890625 33.015625 
z
" id="DejaVuSans-110"/>
      </defs>
      <use xlink:href="#DejaVuSans-108"/>
      <use x="27.783203" xlink:href="#DejaVuSans-111"/>
      <use x="88.964844" xlink:href="#DejaVuSans-103"/>
      <use x="152.441406" xlink:href="#DejaVuSans-49"/>
      <use x="216.064453" xlink:href="#DejaVuSans-48"/>
      <use x="279.6875" xlink:href="#DejaVuSans-40"/>
      <use x="318.701172" xlink:href="#DejaVuSans-35"/>
      <use x="402.490234" xlink:href="#DejaVuSans-32"/>
      <use x="434.277344" xlink:href="#DejaVuSans-40"/>
      <use x="473.291016" xlink:href="#DejaVuSans-102"/>
      <use x="508.496094" xlink:href="#DejaVuSans-43"/>
      <use x="592.285156" xlink:href="#DejaVuSans-103"/>
      <use x="655.761719" xlink:href="#DejaVuSans-41"/>
      <use x="694.775391" xlink:href="#DejaVuSans-45"/>
      <use x="730.859375" xlink:href="#DejaVuSans-101"/>
      <use x="792.382812" xlink:href="#DejaVuSans-118"/>
      <use x="851.5625" xlink:href="#DejaVuSans-97"/>
      <use x="912.841797" xlink:href="#DejaVuSans-108"/>
      <use x="940.625" xlink:href="#DejaVuSans-115"/>
      <use x="992.724609" xlink:href="#DejaVuSans-32"/>
      <use x="1024.511719" xlink:href="#DejaVuSans-47"/>
      <use x="1058.203125" xlink:href="#DejaVuSans-32"/>
      <use x="1089.990234" xlink:href="#DejaVuSans-100"/>
      <use x="1153.466797" xlink:href="#DejaVuSans-105"/>
      <use x="1181.25" xlink:href="#DejaVuSans-109"/>
      <use x="1278.662109" xlink:href="#DejaVuSans-101"/>
      <use x="1340.185547" xlink:href="#DejaVuSans-110"/>
      <use x="1403.564453" xlink:href="#DejaVuSans-115"/>
      <use x="1455.664062" xlink:href="#DejaVuSans-105"/>
      <use x="1483.447266" xlink:href="#DejaVuSans-111"/>
      <use x="1544.628906" xlink:href="#DejaVuSans-110"/>
      <use x="1608.007812" xlink:href="#DejaVuSans-41"/>
     </g>
    </g>
   </g>
   <g id="matplotlib.axis_2">
    <g id="ytick_1">
     <g id="line2d_17">
      <path clip-path="url(#p77e428f1da)" d="M 57.6 298.944 
L 338.688 298.944 
" style="fill:none;stroke:#b0b0b0;stroke-linecap:square;stroke-width:0.8;"/>
     </g>
     <g id="line2d_18">
      <defs>
       <path d="M 0 0 
L -3.5 0 
" id="ma4458311b5" style="stroke:#000000;stroke-width:0.8;"/>
      </defs>
      <g>
       <use style="stroke:#000000;stroke-width:0.8;" x="57.6" xlink:href="#ma4458311b5" y="298.944"/>
      </g>
     </g>
     <g id="text_6">
      <!-- 0.0 -->
      <g transform="translate(25.155 305.02275)scale(0.16 -0.16)">
       <defs>
        <path d="M 10.6875 12.40625 
L 21 12.40625 
L 21 0 
L 10.6875 0 
z
" id="DejaVuSans-46"/>
       </defs>
       <use xlink:href="#DejaVuSans-48"/>
       <use x="63.623047" xlink:href="#DejaVuSans-46"/>
       <use x="95.410156" xlink:href="#DejaVuSans-48"/>
      </g>
     </g>
    </g>
    <g id="ytick_2">
     <g id="line2d_19">
      <path clip-path="url(#p77e428f1da)" d="M 57.6 240.431525 
L 338.688 240.431525 
" style="fill:none;stroke:#b0b0b0;stroke-linecap:square;stroke-width:0.8;"/>
     </g>
     <g id="line2d_20">
      <g>
       <use style="stroke:#000000;stroke-width:0.8;" x="57.6" xlink:href="#ma4458311b5" y="240.431525"/>
      </g>
     </g>
     <g id="text_7">
      <!-- 0.2 -->
      <g transform="translate(25.155 246.510275)scale(0.16 -0.16)">
       <use xlink:href="#DejaVuSans-48"/>
       <use x="63.623047" xlink:href="#DejaVuSans-46"/>
       <use x="95.410156" xlink:href="#DejaVuSans-50"/>
      </g>
     </g>
    </g>
    <g id="ytick_3">
     <g id="line2d_21">
      <path clip-path="url(#p77e428f1da)" d="M 57.6 181.91905 
L 338.688 181.91905 
" style="fill:none;stroke:#b0b0b0;stroke-linecap:square;stroke-width:0.8;"/>
     </g>
     <g id="line2d_22">
      <g>
       <use style="stroke:#000000;stroke-width:0.8;" x="57.6" xlink:href="#ma4458311b5" y="181.91905"/>
      </g>
     </g>
     <g id="text_8">
      <!-- 0.4 -->
      <g transform="translate(25.155 187.9978)scale(0.16 -0.16)">
       <use xlink:href="#DejaVuSans-48"/>
       <use x="63.623047" xlink:href="#DejaVuSans-46"/>
       <use x="95.410156" xlink:href="#DejaVuSans-52"/>
      </g>
     </g>
    </g>
    <g id="ytick_4">
     <g id="line2d_23">
      <path clip-path="url(#p77e428f1da)" d="M 57.6 123.406574 
L 338.688 123.406574 
" style="fill:none;stroke:#b0b0b0;stroke-linecap:square;stroke-width:0.8;"/>
     </g>
     <g id="line2d_24">
      <g>
       <use style="stroke:#000000;stroke-width:0.8;" x="57.6" xlink:href="#ma4458311b5" y="123.406574"/>
      </g>
     </g>
     <g id="text_9">
      <!-- 0.6 -->
      <g transform="translate(25.155 129.485324)scale(0.16 -0.16)">
       <use xlink:href="#DejaVuSans-48"/>
       <use x="63.623047" xlink:href="#DejaVuSans-46"/>
       <use x="95.410156" xlink:href="#DejaVuSans-54"/>
      </g>
     </g>
    </g>
    <g id="ytick_5">
     <g id="line2d_25">
      <path clip-path="url(#p77e428f1da)" d="M 57.6 64.894099 
L 338.688 64.894099 
" style="fill:none;stroke:#b0b0b0;stroke-linecap:square;stroke-width:0.8;"/>
     </g>
     <g id="line2d_26">
      <g>
       <use style="stroke:#000000;stroke-width:0.8;" x="57.6" xlink:href="#ma4458311b5" y="64.894099"/>
      </g>
     </g>
     <g id="text_10">
      <!-- 0.8 -->
      <g transform="translate(25.155 70.972849)scale(0.16 -0.16)">
       <defs>
        <path d="M 31.78125 34.625 
Q 24.75 34.625 20.71875 30.859375 
Q 16.703125 27.09375 16.703125 20.515625 
Q 16.703125 13.921875 20.71875 10.15625 
Q 24.75 6.390625 31.78125 6.390625 
Q 38.8125 6.390625 42.859375 10.171875 
Q 46.921875 13.96875 46.921875 20.515625 
Q 46.921875 27.09375 42.890625 30.859375 
Q 38.875 34.625 31.78125 34.625 
z
M 21.921875 38.8125 
Q 15.578125 40.375 12.03125 44.71875 
Q 8.5 49.078125 8.5 55.328125 
Q 8.5 64.0625 14.71875 69.140625 
Q 20.953125 74.21875 31.78125 74.21875 
Q 42.671875 74.21875 48.875 69.140625 
Q 55.078125 64.0625 55.078125 55.328125 
Q 55.078125 49.078125 51.53125 44.71875 
Q 48 40.375 41.703125 38.8125 
Q 48.828125 37.15625 52.796875 32.3125 
Q 56.78125 27.484375 56.78125 20.515625 
Q 56.78125 9.90625 50.3125 4.234375 
Q 43.84375 -1.421875 31.78125 -1.421875 
Q 19.734375 -1.421875 13.25 4.234375 
Q 6.78125 9.90625 6.78125 20.515625 
Q 6.78125 27.484375 10.78125 32.3125 
Q 14.796875 37.15625 21.921875 38.8125 
z
M 18.3125 54.390625 
Q 18.3125 48.734375 21.84375 45.5625 
Q 25.390625 42.390625 31.78125 42.390625 
Q 38.140625 42.390625 41.71875 45.5625 
Q 45.3125 48.734375 45.3125 54.390625 
Q 45.3125 60.0625 41.71875 63.234375 
Q 38.140625 66.40625 31.78125 66.40625 
Q 25.390625 66.40625 21.84375 63.234375 
Q 18.3125 60.0625 18.3125 54.390625 
z
" id="DejaVuSans-56"/>
       </defs>
       <use xlink:href="#DejaVuSans-48"/>
       <use x="63.623047" xlink:href="#DejaVuSans-46"/>
       <use x="95.410156" xlink:href="#DejaVuSans-56"/>
      </g>
     </g>
    </g>
    <g id="ytick_6">
     <g id="line2d_27">
      <path clip-path="url(#p77e428f1da)" d="M 57.6 6.381624 
L 338.688 6.381624 
" style="fill:none;stroke:#b0b0b0;stroke-linecap:square;stroke-width:0.8;"/>
     </g>
     <g id="line2d_28">
      <g>
       <use style="stroke:#000000;stroke-width:0.8;" x="57.6" xlink:href="#ma4458311b5" y="6.381624"/>
      </g>
     </g>
     <g id="text_11">
      <!-- 1.0 -->
      <g transform="translate(25.155 12.460374)scale(0.16 -0.16)">
       <use xlink:href="#DejaVuSans-49"/>
       <use x="63.623047" xlink:href="#DejaVuSans-46"/>
       <use x="95.410156" xlink:href="#DejaVuSans-48"/>
      </g>
     </g>
    </g>
    <g id="text_12">
     <!-- Fraction of function,target pairs -->
     <g transform="translate(17.619531 285.585)rotate(-90)scale(0.17 -0.17)">
      <defs>
       <path d="M 9.8125 72.90625 
L 51.703125 72.90625 
L 51.703125 64.59375 
L 19.671875 64.59375 
L 19.671875 43.109375 
L 48.578125 43.109375 
L 48.578125 34.8125 
L 19.671875 34.8125 
L 19.671875 0 
L 9.8125 0 
z
" id="DejaVuSans-70"/>
       <path d="M 41.109375 46.296875 
Q 39.59375 47.171875 37.8125 47.578125 
Q 36.03125 48 33.890625 48 
Q 26.265625 48 22.1875 43.046875 
Q 18.109375 38.09375 18.109375 28.8125 
L 18.109375 0 
L 9.078125 0 
L 9.078125 54.6875 
L 18.109375 54.6875 
L 18.109375 46.1875 
Q 20.953125 51.171875 25.484375 53.578125 
Q 30.03125 56 36.53125 56 
Q 37.453125 56 38.578125 55.875 
Q 39.703125 55.765625 41.0625 55.515625 
z
" id="DejaVuSans-114"/>
       <path d="M 48.78125 52.59375 
L 48.78125 44.1875 
Q 44.96875 46.296875 41.140625 47.34375 
Q 37.3125 48.390625 33.40625 48.390625 
Q 24.65625 48.390625 19.8125 42.84375 
Q 14.984375 37.3125 14.984375 27.296875 
Q 14.984375 17.28125 19.8125 11.734375 
Q 24.65625 6.203125 33.40625 6.203125 
Q 37.3125 6.203125 41.140625 7.25 
Q 44.96875 8.296875 48.78125 10.40625 
L 48.78125 2.09375 
Q 45.015625 0.34375 40.984375 -0.53125 
Q 36.96875 -1.421875 32.421875 -1.421875 
Q 20.0625 -1.421875 12.78125 6.34375 
Q 5.515625 14.109375 5.515625 27.296875 
Q 5.515625 40.671875 12.859375 48.328125 
Q 20.21875 56 33.015625 56 
Q 37.15625 56 41.109375 55.140625 
Q 45.0625 54.296875 48.78125 52.59375 
z
" id="DejaVuSans-99"/>
       <path d="M 18.3125 70.21875 
L 18.3125 54.6875 
L 36.8125 54.6875 
L 36.8125 47.703125 
L 18.3125 47.703125 
L 18.3125 18.015625 
Q 18.3125 11.328125 20.140625 9.421875 
Q 21.96875 7.515625 27.59375 7.515625 
L 36.8125 7.515625 
L 36.8125 0 
L 27.59375 0 
Q 17.1875 0 13.234375 3.875 
Q 9.28125 7.765625 9.28125 18.015625 
L 9.28125 47.703125 
L 2.6875 47.703125 
L 2.6875 54.6875 
L 9.28125 54.6875 
L 9.28125 70.21875 
z
" id="DejaVuSans-116"/>
       <path d="M 8.5 21.578125 
L 8.5 54.6875 
L 17.484375 54.6875 
L 17.484375 21.921875 
Q 17.484375 14.15625 20.5 10.265625 
Q 23.53125 6.390625 29.59375 6.390625 
Q 36.859375 6.390625 41.078125 11.03125 
Q 45.3125 15.671875 45.3125 23.6875 
L 45.3125 54.6875 
L 54.296875 54.6875 
L 54.296875 0 
L 45.3125 0 
L 45.3125 8.40625 
Q 42.046875 3.421875 37.71875 1 
Q 33.40625 -1.421875 27.6875 -1.421875 
Q 18.265625 -1.421875 13.375 4.4375 
Q 8.5 10.296875 8.5 21.578125 
z
M 31.109375 56 
z
" id="DejaVuSans-117"/>
       <path d="M 11.71875 12.40625 
L 22.015625 12.40625 
L 22.015625 4 
L 14.015625 -11.625 
L 7.71875 -11.625 
L 11.71875 4 
z
" id="DejaVuSans-44"/>
       <path d="M 18.109375 8.203125 
L 18.109375 -20.796875 
L 9.078125 -20.796875 
L 9.078125 54.6875 
L 18.109375 54.6875 
L 18.109375 46.390625 
Q 20.953125 51.265625 25.265625 53.625 
Q 29.59375 56 35.59375 56 
Q 45.5625 56 51.78125 48.09375 
Q 58.015625 40.1875 58.015625 27.296875 
Q 58.015625 14.40625 51.78125 6.484375 
Q 45.5625 -1.421875 35.59375 -1.421875 
Q 29.59375 -1.421875 25.265625 0.953125 
Q 20.953125 3.328125 18.109375 8.203125 
z
M 48.6875 27.296875 
Q 48.6875 37.203125 44.609375 42.84375 
Q 40.53125 48.484375 33.40625 48.484375 
Q 26.265625 48.484375 22.1875 42.84375 
Q 18.109375 37.203125 18.109375 27.296875 
Q 18.109375 17.390625 22.1875 11.75 
Q 26.265625 6.109375 33.40625 6.109375 
Q 40.53125 6.109375 44.609375 11.75 
Q 48.6875 17.390625 48.6875 27.296875 
z
" id="DejaVuSans-112"/>
      </defs>
      <use xlink:href="#DejaVuSans-70"/>
      <use x="50.269531" xlink:href="#DejaVuSans-114"/>
      <use x="91.382812" xlink:href="#DejaVuSans-97"/>
      <use x="152.662109" xlink:href="#DejaVuSans-99"/>
      <use x="207.642578" xlink:href="#DejaVuSans-116"/>
      <use x="246.851562" xlink:href="#DejaVuSans-105"/>
      <use x="274.634766" xlink:href="#DejaVuSans-111"/>
      <use x="335.816406" xlink:href="#DejaVuSans-110"/>
      <use x="399.195312" xlink:href="#DejaVuSans-32"/>
      <use x="430.982422" xlink:href="#DejaVuSans-111"/>
      <use x="492.164062" xlink:href="#DejaVuSans-102"/>
      <use x="527.369141" xlink:href="#DejaVuSans-32"/>
      <use x="559.15625" xlink:href="#DejaVuSans-102"/>
      <use x="594.361328" xlink:href="#DejaVuSans-117"/>
      <use x="657.740234" xlink:href="#DejaVuSans-110"/>
      <use x="721.119141" xlink:href="#DejaVuSans-99"/>
      <use x="776.099609" xlink:href="#DejaVuSans-116"/>
      <use x="815.308594" xlink:href="#DejaVuSans-105"/>
      <use x="843.091797" xlink:href="#DejaVuSans-111"/>
      <use x="904.273438" xlink:href="#DejaVuSans-110"/>
      <use x="967.652344" xlink:href="#DejaVuSans-44"/>
      <use x="999.439453" xlink:href="#DejaVuSans-116"/>
      <use x="1038.648438" xlink:href="#DejaVuSans-97"/>
      <use x="1099.927734" xlink:href="#DejaVuSans-114"/>
      <use x="1139.291016" xlink:href="#DejaVuSans-103"/>
      <use x="1202.767578" xlink:href="#DejaVuSans-101"/>
      <use x="1264.291016" xlink:href="#DejaVuSans-116"/>
      <use x="1303.5" xlink:href="#DejaVuSans-32"/>
      <use x="1335.287109" xlink:href="#DejaVuSans-112"/>
      <use x="1398.763672" xlink:href="#DejaVuSans-97"/>
      <use x="1460.042969" xlink:href="#DejaVuSans-105"/>
      <use x="1487.826172" xlink:href="#DejaVuSans-114"/>
      <use x="1528.939453" xlink:href="#DejaVuSans-115"/>
     </g>
    </g>
   </g>
   <g id="line2d_29">
    <defs>
     <path d="M 0 1.5 
C 0.397805 1.5 0.77937 1.341951 1.06066 1.06066 
C 1.341951 0.77937 1.5 0.397805 1.5 0 
C 1.5 -0.397805 1.341951 -0.77937 1.06066 -1.06066 
C 0.77937 -1.341951 0.397805 -1.5 0 -1.5 
C -0.397805 -1.5 -0.77937 -1.341951 -1.06066 -1.06066 
C -1.341951 -0.77937 -1.5 -0.397805 -1.5 0 
C -1.5 0.397805 -1.341951 0.77937 -1.06066 1.06066 
C -0.77937 1.341951 -0.397805 1.5 0 1.5 
z
" id="mf355b3c78b" style="stroke:#000080;"/>
    </defs>
    <g>
     <use style="fill:#000080;stroke:#000080;" x="164.295217" xlink:href="#mf355b3c78b" y="6.381624"/>
     <use style="fill:#000080;stroke:#000080;" x="164.295217" xlink:href="#mf355b3c78b" y="6.381624"/>
    </g>
   </g>
   <g id="line2d_30">
    <path d="M 85.66744 298.944 
L 85.66744 296.8033 
L 88.846997 296.8033 
L 88.846997 294.900455 
L 91.535274 294.900455 
L 91.535274 291.332621 
L 93.863965 291.332621 
L 93.863965 287.764787 
L 95.918017 287.764787 
L 95.918017 286.575509 
L 97.755429 286.575509 
L 97.755429 281.818397 
L 99.41757 281.818397 
L 99.41757 274.444874 
L 100.934985 274.444874 
L 100.934985 268.260629 
L 102.330873 268.260629 
L 102.330873 259.935683 
L 103.623262 259.935683 
L 103.623262 253.989293 
L 104.826449 253.989293 
L 104.826449 246.853626 
L 105.951954 246.853626 
L 105.951954 234.247279 
L 107.009204 234.247279 
L 107.009204 223.305922 
L 108.006005 223.305922 
L 108.006005 218.073099 
L 108.948899 218.073099 
L 108.948899 214.26741 
L 109.843417 214.26741 
L 109.843417 202.136775 
L 110.694282 202.136775 
L 110.694282 195.238963 
L 111.505558 195.238963 
L 111.505558 183.821894 
L 112.280765 183.821894 
L 112.280765 181.205483 
L 113.022974 181.205483 
L 113.022974 176.448371 
L 113.73488 176.448371 
L 113.73488 170.02627 
L 114.418861 170.02627 
L 114.418861 163.366313 
L 115.077025 163.366313 
L 115.077025 157.657779 
L 115.711251 157.657779 
L 115.711251 150.997823 
L 116.323218 150.997823 
L 116.323218 143.862155 
L 116.914437 143.862155 
L 116.914437 141.483599 
L 117.486268 141.483599 
L 117.486268 137.67791 
L 118.039942 137.67791 
L 118.039942 128.163686 
L 118.576578 128.163686 
L 118.576578 123.406574 
L 119.097192 123.406574 
L 119.097192 114.843773 
L 119.602714 114.843773 
L 119.602714 114.130206 
L 120.093994 114.130206 
L 120.093994 112.940928 
L 120.571812 112.940928 
L 120.571812 111.275939 
L 121.036887 111.275939 
L 121.036887 110.086661 
L 121.489881 110.086661 
L 121.489881 108.421672 
L 121.931406 108.421672 
L 121.931406 106.043116 
L 122.362027 106.043116 
L 122.362027 105.805261 
L 123.192626 105.805261 
L 123.192626 104.615983 
L 123.985457 104.615983 
L 123.985457 104.378127 
L 124.368753 104.378127 
L 124.368753 104.140271 
L 124.743806 104.140271 
L 124.743806 103.902416 
L 125.110962 103.902416 
L 125.110962 103.188849 
L 125.822869 103.188849 
L 125.822869 102.475282 
L 127.165014 102.475282 
L 127.165014 101.048149 
L 127.799239 101.048149 
L 127.799239 100.572438 
L 137.647286 100.572438 
L 137.647286 100.096726 
L 137.823442 100.096726 
L 137.823442 98.907448 
L 137.997836 98.907448 
L 137.997836 96.766748 
L 138.170504 96.766748 
L 138.170504 96.291037 
L 138.341479 96.291037 
L 138.341479 94.863903 
L 138.84457 94.863903 
L 138.84457 93.912481 
L 139.333553 93.912481 
L 139.333553 92.961059 
L 139.652088 92.961059 
L 139.652088 91.29607 
L 139.8092 91.29607 
L 139.8092 90.582503 
L 139.964909 90.582503 
L 139.964909 89.868936 
L 140.423864 89.868936 
L 140.423864 88.441802 
L 140.574203 88.441802 
L 140.574203 87.728236 
L 141.017599 87.728236 
L 141.017599 86.776813 
L 141.307054 86.776813 
L 141.307054 86.538958 
L 141.732423 86.538958 
L 141.732423 85.34968 
L 142.010346 85.34968 
L 142.010346 83.922546 
L 142.419098 83.922546 
L 142.419098 82.971124 
L 142.686372 82.971124 
L 142.686372 82.733268 
L 142.818488 82.733268 
L 142.818488 82.495413 
L 143.079756 82.495413 
L 143.079756 82.257557 
L 143.208936 82.257557 
L 143.208936 81.781846 
L 143.964547 81.781846 
L 143.964547 81.54399 
L 144.330419 81.54399 
L 144.330419 80.592568 
L 144.923649 80.592568 
L 144.923649 80.116857 
L 145.039911 80.116857 
L 145.039911 77.738301 
L 145.721664 77.738301 
L 145.721664 76.549023 
L 146.052799 76.549023 
L 146.052799 75.597601 
L 146.270114 75.597601 
L 146.270114 74.646178 
L 146.591092 74.646178 
L 146.591092 73.4569 
L 146.801841 73.4569 
L 146.801841 72.267622 
L 147.010073 72.267622 
L 147.010073 72.029767 
L 147.917524 72.029767 
L 147.917524 70.602633 
L 148.40198 70.602633 
L 148.497276 67.510511 
L 148.592055 67.510511 
L 148.592055 65.845521 
L 148.87334 65.845521 
L 148.966103 63.22911 
L 149.058374 63.22911 
L 149.058374 62.753399 
L 149.332295 62.753399 
L 149.422654 61.08841 
L 149.512548 61.08841 
L 149.60198 56.331298 
L 149.690956 56.331298 
L 149.779481 53.714886 
L 149.955193 53.714886 
L 150.042389 52.287753 
L 150.129152 52.287753 
L 150.129152 51.33633 
L 150.301393 51.33633 
L 150.301393 49.909197 
L 150.47195 49.909197 
L 150.556607 46.341363 
L 150.808139 46.341363 
L 150.891184 42.535674 
L 150.973835 42.535674 
L 151.056095 41.584251 
L 151.13797 41.584251 
L 151.219462 40.157118 
L 151.300575 40.157118 
L 151.381313 39.205695 
L 151.461678 39.205695 
L 151.461678 36.827139 
L 151.621307 36.827139 
L 151.700576 33.497161 
L 151.779487 33.497161 
L 151.858043 30.88075 
L 151.936246 30.88075 
L 151.936246 30.642894 
L 152.091608 30.642894 
L 152.091608 29.929327 
L 152.245598 29.929327 
L 152.245598 29.453616 
L 152.398241 29.453616 
L 152.474064 26.837205 
L 152.995791 26.837205 
L 152.995791 24.458649 
L 159.226956 24.458649 
L 159.226956 21.842237 
L 159.481921 21.842237 
L 159.481921 19.939392 
L 159.733212 19.939392 
L 159.832723 16.133703 
L 160.127894 16.133703 
L 160.127894 15.420136 
L 163.266752 15.420136 
L 163.266752 14.944425 
L 163.469301 14.944425 
L 163.549667 13.755147 
L 163.669525 13.755147 
L 163.709295 11.376591 
L 163.788565 11.376591 
L 163.788565 8.76018 
L 163.946031 8.76018 
L 163.946031 7.808757 
L 164.295217 7.808757 
L 164.295217 6.381624 
L 338.688 6.381624 
L 338.688 6.381624 
" style="fill:none;stroke:#000080;stroke-linecap:square;stroke-width:1.5;"/>
   </g>
   <g id="line2d_31">
    <defs>
     <path d="M 0 6 
C 1.591219 6 3.117479 5.367802 4.242641 4.242641 
C 5.367802 3.117479 6 1.591219 6 0 
C 6 -1.591219 5.367802 -3.117479 4.242641 -4.242641 
C 3.117479 -5.367802 1.591219 -6 0 -6 
C -1.591219 -6 -3.117479 -5.367802 -4.242641 -4.242641 
C -5.367802 -3.117479 -6 -1.591219 -6 0 
C -6 1.591219 -5.367802 3.117479 -4.242641 4.242641 
C -3.117479 5.367802 -1.591219 6 0 6 
z
" id="m8cc907849a" style="stroke:#000080;stroke-width:1.5;"/>
    </defs>
    <g>
     <use style="fill-opacity:0;stroke:#000080;stroke-width:1.5;" x="114.418861" xlink:href="#m8cc907849a" y="170.02627"/>
     <use style="fill-opacity:0;stroke:#000080;stroke-width:1.5;" x="151.219462" xlink:href="#m8cc907849a" y="41.10854"/>
     <use style="fill-opacity:0;stroke:#000080;stroke-width:1.5;" x="164.295217" xlink:href="#m8cc907849a" y="6.381624"/>
     <use style="fill-opacity:0;stroke:#000080;stroke-width:1.5;" x="164.295217" xlink:href="#m8cc907849a" y="6.381624"/>
     <use style="fill-opacity:0;stroke:#000080;stroke-width:1.5;" x="338.688" xlink:href="#m8cc907849a" y="6.381624"/>
    </g>
   </g>
   <g id="line2d_32">
    <path style="fill:none;stroke:#000080;stroke-linecap:square;stroke-width:1.5;"/>
    <g/>
   </g>
   <g id="line2d_33">
    <defs>
     <path d="M 0 1.5 
C 0.397805 1.5 0.77937 1.341951 1.06066 1.06066 
C 1.341951 0.77937 1.5 0.397805 1.5 0 
C 1.5 -0.397805 1.341951 -0.77937 1.06066 -1.06066 
C 0.77937 -1.341951 0.397805 -1.5 0 -1.5 
C -0.397805 -1.5 -0.77937 -1.341951 -1.06066 -1.06066 
C -1.341951 -0.77937 -1.5 -0.397805 -1.5 0 
C -1.5 0.397805 -1.341951 0.77937 -1.06066 1.06066 
C -0.77937 1.341951 -0.397805 1.5 0 1.5 
z
" id="maf72b1252d" style="stroke:#ff00ff;"/>
    </defs>
    <g>
     <use style="fill:#ff00ff;stroke:#ff00ff;" x="183.37723" xlink:href="#maf72b1252d" y="6.381624"/>
     <use style="fill:#ff00ff;stroke:#ff00ff;" x="183.37723" xlink:href="#maf72b1252d" y="6.381624"/>
    </g>
   </g>
   <g id="line2d_34">
    <path d="M 97.755429 298.944 
L 97.755429 298.706144 
L 103.623262 298.706144 
L 103.623262 298.468289 
L 112.280765 298.468289 
L 112.280765 297.041155 
L 114.418861 297.041155 
L 114.418861 296.327589 
L 116.323218 296.327589 
L 116.323218 296.089733 
L 117.486268 296.089733 
L 117.486268 295.851877 
L 118.576578 295.851877 
L 118.576578 295.614022 
L 122.362027 295.614022 
L 122.362027 295.376166 
L 130.664567 295.376166 
L 130.664567 293.473321 
L 131.185181 293.473321 
L 131.185181 293.235466 
L 132.181982 293.235466 
L 132.181982 292.521899 
L 132.422528 292.521899 
L 132.422528 291.570477 
L 132.659801 291.570477 
L 132.659801 289.905488 
L 132.893889 289.905488 
L 132.893889 289.191921 
L 133.352844 289.191921 
L 133.352844 287.289076 
L 133.57787 287.289076 
L 133.57787 287.05122 
L 134.019394 287.05122 
L 134.019394 285.861943 
L 134.236034 285.861943 
L 134.236034 284.91052 
L 134.450015 284.91052 
L 134.450015 283.245531 
L 134.661403 283.245531 
L 134.661403 283.007675 
L 134.870259 283.007675 
L 134.870259 281.818397 
L 135.076644 281.818397 
L 135.076644 280.866975 
L 135.280614 280.866975 
L 135.280614 279.915553 
L 135.482227 279.915553 
L 135.482227 278.96413 
L 135.681535 278.96413 
L 135.681535 278.726275 
L 135.878591 278.726275 
L 135.878591 278.488419 
L 136.073445 278.488419 
L 136.073445 278.250564 
L 136.266147 278.250564 
L 136.266147 277.536997 
L 136.645276 277.536997 
L 136.645276 276.82343 
L 136.831795 276.82343 
L 136.831795 275.396297 
L 137.016339 275.396297 
L 137.016339 273.255596 
L 137.198951 273.255596 
L 137.198951 272.066318 
L 137.37967 272.066318 
L 137.37967 270.87704 
L 137.558536 270.87704 
L 137.558536 269.449907 
L 137.735587 269.449907 
L 137.735587 268.73634 
L 137.910857 268.73634 
L 137.910857 267.547062 
L 138.084384 267.547062 
L 138.084384 265.882073 
L 138.256201 265.882073 
L 138.256201 264.454939 
L 138.426341 264.454939 
L 138.426341 263.979228 
L 138.594838 263.979228 
L 138.594838 263.503517 
L 138.761723 263.503517 
L 138.761723 261.362817 
L 138.927025 261.362817 
L 138.927025 258.270694 
L 139.090775 258.270694 
L 139.090775 257.557127 
L 139.253002 257.557127 
L 139.253002 255.654283 
L 139.413734 255.654283 
L 139.413734 253.513582 
L 139.572998 253.513582 
L 139.572998 249.945748 
L 139.730821 249.945748 
L 139.730821 247.805048 
L 139.887228 247.805048 
L 139.887228 246.61577 
L 140.042245 246.61577 
L 140.042245 245.902203 
L 140.195896 245.902203 
L 140.195896 245.188637 
L 140.348205 245.188637 
L 140.348205 244.237214 
L 140.64889 244.237214 
L 140.64889 242.334369 
L 140.79731 242.334369 
L 140.79731 240.431525 
L 140.944478 240.431525 
L 140.944478 238.52868 
L 141.090414 238.52868 
L 141.090414 237.101546 
L 141.235139 237.101546 
L 141.235139 236.863691 
L 141.378673 236.863691 
L 141.378673 236.38798 
L 141.521035 236.38798 
L 141.521035 234.485135 
L 141.662245 234.485135 
L 141.662245 233.533713 
L 141.941279 233.533713 
L 141.941279 232.820146 
L 142.07914 232.820146 
L 142.07914 231.393012 
L 142.215919 231.393012 
L 142.215919 230.679446 
L 142.351634 230.679446 
L 142.351634 227.825178 
L 142.486301 227.825178 
L 142.486301 226.160189 
L 142.619936 226.160189 
L 142.619936 224.970911 
L 142.752555 224.970911 
L 142.752555 224.019489 
L 142.884173 224.019489 
L 142.884173 221.878789 
L 143.014805 221.878789 
L 143.014805 221.165222 
L 143.144465 221.165222 
L 143.144465 217.597388 
L 143.273169 217.597388 
L 143.273169 213.791699 
L 143.40093 213.791699 
L 143.40093 210.699576 
L 143.778691 210.699576 
L 143.778691 208.558876 
L 143.902815 208.558876 
L 143.902815 207.369598 
L 144.026061 207.369598 
L 144.026061 206.893887 
L 144.148442 206.893887 
L 144.148442 206.18032 
L 144.269971 206.18032 
L 144.269971 203.801764 
L 144.390658 203.801764 
L 144.390658 203.088197 
L 144.510517 203.088197 
L 144.510517 200.23393 
L 144.629556 200.23393 
L 144.629556 198.331085 
L 144.865226 198.331085 
L 144.865226 198.09323 
L 144.981877 198.09323 
L 145.039911 194.763251 
L 145.212864 194.763251 
L 145.212864 193.811829 
L 145.327221 193.811829 
L 145.327221 192.860407 
L 145.440832 192.860407 
L 145.440832 192.14684 
L 145.553708 192.14684 
L 145.553708 190.243995 
L 145.665858 190.243995 
L 145.665858 189.054717 
L 145.888018 189.054717 
L 145.998045 188.579006 
L 146.052799 188.579006 
L 146.107383 185.724739 
L 146.216039 185.724739 
L 146.324022 183.821894 
L 146.377764 183.821894 
L 146.431341 182.394761 
L 146.538004 182.394761 
L 146.644018 177.637649 
L 146.749392 177.637649 
L 146.854132 176.924082 
L 146.958248 176.924082 
L 147.061745 173.356248 
L 147.164632 173.356248 
L 147.164632 173.118393 
L 147.368603 173.118393 
L 147.4697 171.215548 
L 147.570215 171.215548 
L 147.570215 170.02627 
L 147.769524 170.02627 
L 147.86833 168.123425 
L 147.96658 168.123425 
L 147.96658 166.934147 
L 148.161434 166.934147 
L 148.258051 165.744869 
L 148.354135 165.744869 
L 148.354135 164.793447 
L 148.54473 164.793447 
L 148.639252 164.07988 
L 148.733265 164.07988 
L 148.733265 160.036335 
L 148.919783 160.036335 
L 149.012299 155.279223 
L 149.104327 155.279223 
L 149.195872 153.85209 
L 149.286939 153.85209 
L 149.377533 150.0464 
L 149.467659 150.0464 
L 149.557321 148.381411 
L 149.646525 148.381411 
L 149.735275 146.240711 
L 149.823575 146.240711 
L 149.911431 144.813577 
L 149.998846 144.813577 
L 150.085825 143.862155 
L 150.172372 143.862155 
L 150.258492 142.672877 
L 150.344189 142.672877 
L 150.344189 141.483599 
L 150.51433 141.483599 
L 150.598782 139.105043 
L 150.640855 139.105043 
L 150.682827 138.153621 
L 150.766468 138.153621 
L 150.849711 134.585787 
L 150.932558 134.585787 
L 151.015013 132.920798 
L 151.097081 132.920798 
L 151.178764 131.255809 
L 151.260066 131.255809 
L 151.340991 129.115108 
L 151.421542 129.115108 
L 151.501723 125.547275 
L 151.660987 125.547275 
L 151.740076 124.595852 
L 151.818809 124.595852 
L 151.818809 123.64443 
L 151.975216 123.64443 
L 152.052897 120.314452 
L 152.130233 120.314452 
L 152.207228 116.033051 
L 152.283884 116.033051 
L 152.360205 114.605917 
L 152.398241 114.605917 
L 152.436193 113.892351 
L 152.511852 113.892351 
L 152.511852 113.178784 
L 152.662192 113.178784 
L 152.736878 111.75165 
L 152.811246 111.75165 
L 152.885298 111.038084 
L 152.959038 111.038084 
L 152.995791 109.848806 
L 153.178403 109.848806 
L 153.250915 107.708105 
L 153.323128 107.708105 
L 153.395042 105.805261 
L 153.466662 105.805261 
L 153.537988 103.66456 
L 153.679772 103.66456 
L 153.679772 103.426705 
L 153.890309 103.426705 
L 153.994632 100.810293 
L 154.098334 100.810293 
L 154.167129 99.145304 
L 154.371897 99.145304 
L 154.439623 97.71817 
L 154.507086 97.71817 
L 154.507086 95.339615 
L 154.641235 95.339615 
L 154.641235 94.626048 
L 154.906477 94.626048 
L 154.906477 92.009636 
L 155.0376 92.009636 
L 155.0376 91.533925 
L 155.167744 91.533925 
L 155.167744 91.29607 
L 155.488919 91.29607 
L 155.488919 91.058214 
L 155.741666 91.058214 
L 155.741666 90.820358 
L 155.86668 90.820358 
L 155.86668 90.344647 
L 156.175347 90.344647 
L 156.236431 87.728236 
L 156.297301 87.728236 
L 156.297301 85.587535 
L 156.418408 85.587535 
L 156.418408 84.636113 
L 156.598505 84.636113 
L 156.598505 84.398257 
L 156.776762 84.398257 
L 156.865211 82.733268 
L 157.011638 82.733268 
L 157.069866 80.592568 
L 157.185742 80.592568 
L 157.185742 80.354712 
L 157.38669 80.354712 
L 157.415209 79.879001 
L 157.528821 79.879001 
L 157.58535 79.165434 
L 157.641697 79.165434 
L 157.697862 78.214012 
L 157.753847 78.214012 
L 157.753847 77.976156 
L 158.031107 77.976156 
L 158.031107 77.738301 
L 158.358103 77.738301 
L 158.465753 75.835456 
L 158.572743 75.835456 
L 158.572743 75.359745 
L 158.732007 75.359745 
L 158.732007 75.121889 
L 158.889829 75.121889 
L 158.889829 74.646178 
L 159.098062 74.646178 
L 159.098062 73.932611 
L 159.608019 73.932611 
L 159.608019 72.981189 
L 159.758143 72.981189 
L 159.758143 72.743333 
L 160.054568 72.743333 
L 160.054568 72.505478 
L 160.86807 72.505478 
L 160.961329 70.602633 
L 161.169354 70.602633 
L 161.169354 70.364778 
L 161.420284 70.364778 
L 161.420284 70.126922 
L 162.173813 70.126922 
L 162.173813 69.889066 
L 162.346481 69.889066 
L 162.346481 69.413355 
L 162.770815 69.413355 
L 162.833584 68.937644 
L 162.896128 68.937644 
L 162.896128 68.699788 
L 163.020547 68.699788 
L 163.061823 67.510511 
L 163.144084 67.510511 
L 163.225959 66.321233 
L 163.50953 66.321233 
L 163.549667 65.607666 
L 163.629664 65.607666 
L 163.629664 64.894099 
L 163.748975 64.894099 
L 163.828065 64.180532 
L 163.867476 64.180532 
L 163.906798 62.753399 
L 164.024234 62.753399 
L 164.024234 62.039832 
L 164.140886 62.039832 
L 164.140886 61.801976 
L 164.295217 61.801976 
L 164.333587 60.136987 
L 164.824867 60.136987 
L 164.824867 59.42342 
L 164.973287 59.42342 
L 165.047026 57.996287 
L 165.157053 57.996287 
L 165.266391 56.331298 
L 165.284547 56.331298 
L 165.393091 55.617731 
L 165.483031 55.617731 
L 165.55465 54.666309 
L 165.697012 54.666309 
L 165.803027 53.477031 
L 165.9084 53.477031 
L 165.9084 53.001319 
L 166.255117 53.001319 
L 166.289413 51.33633 
L 166.391896 51.33633 
L 166.391896 50.622764 
L 166.527611 50.622764 
L 166.527611 48.719919 
L 166.7626 48.719919 
L 166.795913 47.768496 
L 167.384913 47.768496 
L 167.384913 47.530641 
L 168.293904 47.530641 
L 168.293904 47.292785 
L 168.415645 47.292785 
L 168.506396 45.389941 
L 168.551595 45.389941 
L 168.626667 44.676374 
L 169.53167 44.676374 
L 169.53167 43.962807 
L 169.645097 43.962807 
L 169.729685 42.297818 
L 169.78585 42.297818 
L 169.86976 41.584251 
L 169.953269 41.584251 
L 170.063995 39.205695 
L 170.119095 39.205695 
L 170.14658 38.254273 
L 170.256089 38.254273 
L 170.256089 37.302851 
L 170.446091 37.302851 
L 170.553741 36.351428 
L 170.660731 36.351428 
L 170.767069 34.686439 
L 171.082245 34.686439 
L 171.18605 33.735017 
L 171.289242 33.735017 
L 171.289242 33.259305 
L 171.404607 33.259305 
L 171.49381 32.783594 
L 171.531901 32.783594 
L 171.569909 32.307883 
L 171.696007 32.307883 
L 171.771231 30.88075 
L 173.643636 30.88075 
L 173.710926 28.740049 
L 174.261802 28.740049 
L 174.261802 28.026482 
L 174.391462 28.026482 
L 174.391462 27.788627 
L 174.743137 27.788627 
L 174.774759 26.361493 
L 178.013889 26.361493 
L 178.013889 23.745082 
L 178.25707 23.745082 
L 178.360262 22.555804 
L 178.411629 22.555804 
L 178.496907 21.12867 
L 179.148138 21.12867 
L 179.246204 20.415104 
L 179.295031 20.415104 
L 179.392276 19.225826 
L 179.521099 19.225826 
L 179.617095 16.84727 
L 179.633043 16.84727 
L 179.728427 15.657992 
L 182.547572 15.657992 
L 182.547572 13.755147 
L 182.8418 13.755147 
L 182.92119 11.376591 
L 182.96075 11.376591 
L 183.039601 10.187313 
L 183.144185 10.187313 
L 183.183243 9.235891 
L 183.299894 9.235891 
L 183.37723 6.381624 
L 338.688 6.381624 
L 338.688 6.381624 
" style="fill:none;stroke:#ff00ff;stroke-linecap:square;stroke-width:1.5;"/>
   </g>
   <g id="line2d_35">
    <defs>
     <path d="M -0 8.485281 
L 5.091169 0 
L 0 -8.485281 
L -5.091169 -0 
z
" id="m2589448109" style="stroke:#ff00ff;stroke-linejoin:miter;stroke-width:1.5;"/>
    </defs>
    <g>
     <use style="fill-opacity:0;stroke:#ff00ff;stroke-linejoin:miter;stroke-width:1.5;" x="137.016339" xlink:href="#m2589448109" y="273.255596"/>
     <use style="fill-opacity:0;stroke:#ff00ff;stroke-linejoin:miter;stroke-width:1.5;" x="163.828065" xlink:href="#m2589448109" y="64.180532"/>
     <use style="fill-opacity:0;stroke:#ff00ff;stroke-linejoin:miter;stroke-width:1.5;" x="183.37723" xlink:href="#m2589448109" y="6.619479"/>
     <use style="fill-opacity:0;stroke:#ff00ff;stroke-linejoin:miter;stroke-width:1.5;" x="183.37723" xlink:href="#m2589448109" y="6.381624"/>
     <use style="fill-opacity:0;stroke:#ff00ff;stroke-linejoin:miter;stroke-width:1.5;" x="338.688" xlink:href="#m2589448109" y="6.381624"/>
    </g>
   </g>
   <g id="line2d_36">
    <path style="fill:none;stroke:#ff00ff;stroke-linecap:square;stroke-width:1.5;"/>
    <g/>
   </g>
   <g id="line2d_37">
    <defs>
     <path d="M 0 1.5 
C 0.397805 1.5 0.77937 1.341951 1.06066 1.06066 
C 1.341951 0.77937 1.5 0.397805 1.5 0 
C 1.5 -0.397805 1.341951 -0.77937 1.06066 -1.06066 
C 0.77937 -1.341951 0.397805 -1.5 0 -1.5 
C -0.397805 -1.5 -0.77937 -1.341951 -1.06066 -1.06066 
C -1.341951 -0.77937 -1.5 -0.397805 -1.5 0 
C -1.5 0.397805 -1.341951 0.77937 -1.06066 1.06066 
C -0.77937 1.341951 -0.397805 1.5 0 1.5 
z
" id="m39bd44799e" style="stroke:#ff7500;"/>
    </defs>
    <g>
     <use style="fill:#ff7500;stroke:#ff7500;" x="210.391037" xlink:href="#m39bd44799e" y="6.381624"/>
     <use style="fill:#ff7500;stroke:#ff7500;" x="210.391037" xlink:href="#m39bd44799e" y="6.381624"/>
    </g>
   </g>
   <g id="line2d_38">
    <path d="M 87.329581 298.944 
L 87.329581 298.468289 
L 101.646892 298.468289 
L 101.646892 288.71621 
L 105.951954 288.71621 
L 105.951954 287.764787 
L 106.48859 287.764787 
L 106.48859 287.526932 
L 109.401893 287.526932 
L 109.401893 285.861943 
L 110.274038 285.861943 
L 110.274038 285.386231 
L 112.280765 285.386231 
L 112.280765 284.434809 
L 113.022974 284.434809 
L 113.022974 283.721242 
L 113.382559 283.721242 
L 113.382559 283.483387 
L 114.751048 283.483387 
L 114.751048 281.818397 
L 115.397021 281.818397 
L 115.397021 280.391264 
L 116.621333 280.391264 
L 116.621333 279.677697 
L 116.914437 279.677697 
L 116.914437 277.061286 
L 117.486268 277.061286 
L 117.486268 275.634152 
L 118.576578 275.634152 
L 118.576578 274.444874 
L 120.571812 274.444874 
L 120.571812 272.779885 
L 121.036887 272.779885 
L 121.036887 271.590607 
L 121.489881 271.590607 
L 121.489881 271.352752 
L 122.988655 271.352752 
L 122.988655 270.163474 
L 123.394238 270.163474 
L 123.394238 269.687762 
L 124.368753 269.687762 
L 124.368753 268.260629 
L 124.743806 268.260629 
L 124.743806 267.309206 
L 125.291682 267.309206 
L 125.291682 266.119929 
L 125.647598 266.119929 
L 125.647598 264.692795 
L 126.839037 264.692795 
L 126.839037 264.454939 
L 127.954256 264.454939 
L 127.954256 263.503517 
L 128.411207 263.503517 
L 128.411207 263.265661 
L 128.560901 263.265661 
L 128.560901 262.78995 
L 128.709321 262.78995 
L 128.709321 260.411394 
L 129.002426 260.411394 
L 129.002426 259.935683 
L 129.147151 259.935683 
L 129.147151 258.984261 
L 129.574256 258.984261 
L 129.574256 255.892138 
L 129.714332 255.892138 
L 129.714332 253.989293 
L 129.853291 253.989293 
L 129.853291 253.751438 
L 130.127931 253.751438 
L 130.127931 252.800015 
L 130.263646 252.800015 
L 130.263646 252.324304 
L 130.398313 252.324304 
L 130.398313 252.086449 
L 130.664567 252.086449 
L 130.664567 250.183604 
L 131.185181 250.183604 
L 131.185181 248.518615 
L 131.312942 248.518615 
L 131.312942 246.140059 
L 131.565689 246.140059 
L 131.565689 245.188637 
L 131.814826 245.188637 
L 131.814826 244.950781 
L 132.060454 244.950781 
L 132.060454 243.523647 
L 132.422528 243.523647 
L 132.422528 238.290824 
L 132.659801 238.290824 
L 132.659801 237.339402 
L 132.777237 237.339402 
L 132.777237 234.009424 
L 133.009765 234.009424 
L 133.009765 233.771568 
L 133.239232 233.771568 
L 133.239232 232.820146 
L 133.689303 232.820146 
L 133.800029 231.155157 
L 134.019394 231.155157 
L 134.019394 227.825178 
L 134.343353 227.825178 
L 134.450015 223.305922 
L 135.178927 223.305922 
L 135.178927 220.451655 
L 135.482227 220.451655 
L 135.482227 214.980977 
L 135.681535 214.980977 
L 135.681535 214.743121 
L 136.170062 214.743121 
L 136.170062 214.26741 
L 136.551264 214.26741 
L 136.551264 211.175287 
L 137.016339 211.175287 
L 137.107884 208.796731 
L 137.289545 208.796731 
L 137.37967 206.656031 
L 137.735587 206.656031 
L 137.823442 204.515331 
L 137.910857 204.515331 
L 137.910857 204.039619 
L 138.170504 204.039619 
L 138.170504 203.088197 
L 138.341479 203.088197 
L 138.341479 201.661064 
L 138.510793 201.661064 
L 138.594838 200.709641 
L 138.761723 200.709641 
L 138.761723 200.23393 
L 139.009092 200.23393 
L 139.090775 196.190385 
L 139.333553 196.190385 
L 139.333553 195.952529 
L 139.493548 195.952529 
L 139.572998 194.28754 
L 139.652088 194.28754 
L 139.730821 192.860407 
L 139.887228 192.860407 
L 139.887228 192.384695 
L 140.042245 192.384695 
L 140.11924 189.292573 
L 140.195896 189.292573 
L 140.195896 184.535461 
L 140.574203 184.535461 
L 140.64889 182.156905 
L 141.090414 182.156905 
L 141.162927 177.875504 
L 141.235139 177.875504 
L 141.307054 173.831959 
L 141.591783 173.831959 
L 141.662245 172.642681 
L 141.871938 172.642681 
L 141.871938 170.501981 
L 142.07914 170.501981 
L 142.147664 168.836992 
L 142.283909 168.836992 
L 142.283909 163.842025 
L 142.486301 163.842025 
L 142.486301 163.604169 
L 142.619936 163.604169 
L 142.686372 159.79848 
L 142.752555 159.79848 
L 142.752555 158.609202 
L 143.079756 158.609202 
L 143.144465 156.706357 
L 143.208936 156.706357 
L 143.208936 154.565657 
L 143.653678 154.565657 
L 143.653678 153.376379 
L 143.778691 153.376379 
L 143.840863 151.473534 
L 144.087359 151.473534 
L 144.148442 148.381411 
L 144.269971 148.381411 
L 144.269971 147.9057 
L 144.45069 147.9057 
L 144.510517 147.192133 
L 144.981877 147.192133 
L 145.039911 146.002855 
L 145.998045 146.002855 
L 145.998045 145.527144 
L 146.324022 145.527144 
L 146.324022 145.289289 
L 146.484754 145.289289 
L 146.484754 145.051433 
L 146.854132 145.051433 
L 146.854132 144.100011 
L 147.061745 144.100011 
L 147.061745 143.862155 
L 147.317833 143.862155 
L 147.317833 143.148588 
L 148.015498 143.148588 
L 148.015498 142.910733 
L 148.449693 142.910733 
L 148.449693 142.435021 
L 148.592055 142.435021 
L 148.639252 141.721455 
L 148.780082 141.721455 
L 148.780082 140.532177 
L 148.919783 140.532177 
L 148.919783 138.867188 
L 149.104327 138.867188 
L 149.104327 138.391476 
L 149.241465 138.391476 
L 149.332295 135.537209 
L 149.512548 135.537209 
L 149.557321 134.347931 
L 149.646525 134.347931 
L 149.735275 132.920798 
L 149.867558 132.920798 
L 149.867558 132.445087 
L 150.085825 132.445087 
L 150.172372 130.304386 
L 150.47195 130.304386 
L 150.47195 128.639397 
L 150.640855 128.639397 
L 150.682827 125.071563 
L 150.766468 125.071563 
L 150.849711 123.882285 
L 150.932558 123.882285 
L 150.973835 119.83874 
L 151.097081 119.83874 
L 151.097081 119.600885 
L 151.219462 119.600885 
L 151.260066 116.508762 
L 151.340991 116.508762 
L 151.340991 116.270907 
L 151.501723 116.270907 
L 151.501723 114.368062 
L 151.621307 114.368062 
L 151.621307 114.130206 
L 151.897188 114.130206 
L 151.897188 113.654495 
L 152.168773 113.654495 
L 152.168773 112.465217 
L 152.436193 112.465217 
L 152.436193 112.227362 
L 154.269814 112.227362 
L 154.269814 111.989506 
L 162.10862 111.989506 
L 162.10862 111.75165 
L 163.266752 111.75165 
L 163.266752 111.513795 
L 165.120455 111.513795 
L 165.120455 110.324517 
L 165.375047 110.324517 
L 165.411116 109.61095 
L 165.536773 109.61095 
L 165.536773 108.421672 
L 165.697012 108.421672 
L 165.697012 107.945961 
L 165.943384 107.945961 
L 165.943384 106.043116 
L 166.527611 106.043116 
L 166.527611 105.091694 
L 166.679039 105.091694 
L 166.679039 104.378127 
L 166.829163 104.378127 
L 166.829163 104.140271 
L 167.368818 104.140271 
L 167.368818 103.66456 
L 167.481174 103.66456 
L 167.481174 102.475282 
L 167.703739 102.475282 
L 167.703739 101.048149 
L 167.923499 101.048149 
L 168.032349 99.621015 
L 168.140524 99.621015 
L 168.248032 98.193882 
L 168.354881 98.193882 
L 168.354881 97.956026 
L 168.566635 97.956026 
L 168.566635 94.388192 
L 169.687442 94.388192 
L 169.687442 94.150337 
L 169.813865 94.150337 
L 169.813865 93.674625 
L 170.105336 93.674625 
L 170.105336 92.485348 
L 170.607318 92.485348 
L 170.700684 89.63108 
L 170.740545 89.63108 
L 170.819995 86.776813 
L 170.925369 86.776813 
L 171.017051 81.781846 
L 171.069226 81.781846 
L 171.108254 80.592568 
L 171.198983 80.592568 
L 171.198983 79.879001 
L 171.404607 79.879001 
L 171.404607 78.214012 
L 171.645677 78.214012 
L 171.696007 75.835456 
L 172.385786 75.835456 
L 172.385786 74.408323 
L 172.554051 74.408323 
L 172.554051 72.981189 
L 172.720707 72.981189 
L 172.803442 71.791911 
L 172.885786 71.791911 
L 172.967743 67.272655 
L 173.130511 67.272655 
L 173.130511 66.083377 
L 174.348349 66.083377 
L 174.423728 62.515543 
L 174.498781 62.515543 
L 174.573514 60.850554 
L 174.795808 60.850554 
L 174.890216 57.520576 
L 175.08786 57.520576 
L 175.19099 55.14202 
L 175.354741 55.14202 
L 175.425901 53.952742 
L 176.228874 53.952742 
L 176.296562 53.001319 
L 176.363988 53.001319 
L 176.363988 50.147052 
L 176.498063 50.147052 
L 176.498063 47.768496 
L 176.631116 47.768496 
L 176.716117 43.962807 
L 176.82881 43.962807 
L 176.82881 43.724951 
L 178.471368 43.724951 
L 178.547874 43.24924 
L 178.640929 43.24924 
L 178.699888 41.10854 
L 178.758649 41.10854 
L 178.817212 39.205695 
L 178.875579 39.205695 
L 178.875579 37.302851 
L 179.008261 37.302851 
L 179.008261 34.210728 
L 181.803604 34.210728 
L 181.866828 32.545739 
L 181.964723 32.545739 
L 182.062072 29.691472 
L 182.110543 29.691472 
L 182.207084 27.788627 
L 182.303092 27.788627 
L 182.412173 24.696504 
L 197.02358 24.696504 
L 197.085219 20.652959 
L 197.167066 20.652959 
L 197.236916 15.420136 
L 210.259388 15.420136 
L 210.367797 10.187313 
L 210.3719 10.187313 
L 210.391037 6.381624 
L 338.688 6.381624 
L 338.688 6.381624 
" style="fill:none;stroke:#ff7500;stroke-linecap:square;stroke-width:1.5;"/>
   </g>
   <g id="line2d_39">
    <defs>
     <path d="M 0 -6 
L -1.347084 -1.854102 
L -5.706339 -1.854102 
L -2.179628 0.708204 
L -3.526712 4.854102 
L -0 2.291796 
L 3.526712 4.854102 
L 2.179628 0.708204 
L 5.706339 -1.854102 
L 1.347084 -1.854102 
z
" id="m67fde6974d" style="stroke:#ff7500;stroke-linejoin:bevel;stroke-width:1.5;"/>
    </defs>
    <g>
     <use style="fill-opacity:0;stroke:#ff7500;stroke-linejoin:bevel;stroke-width:1.5;" x="151.621307" xlink:href="#m67fde6974d" y="114.368062"/>
     <use style="fill-opacity:0;stroke:#ff7500;stroke-linejoin:bevel;stroke-width:1.5;" x="210.391037" xlink:href="#m67fde6974d" y="8.284468"/>
     <use style="fill-opacity:0;stroke:#ff7500;stroke-linejoin:bevel;stroke-width:1.5;" x="210.391037" xlink:href="#m67fde6974d" y="6.381624"/>
     <use style="fill-opacity:0;stroke:#ff7500;stroke-linejoin:bevel;stroke-width:1.5;" x="210.391037" xlink:href="#m67fde6974d" y="6.381624"/>
     <use style="fill-opacity:0;stroke:#ff7500;stroke-linejoin:bevel;stroke-width:1.5;" x="338.688" xlink:href="#m67fde6974d" y="6.381624"/>
    </g>
   </g>
   <g id="line2d_40">
    <path style="fill:none;stroke:#ff7500;stroke-linecap:square;stroke-width:1.5;"/>
    <g/>
   </g>
   <g id="line2d_41">
    <path d="M 338.688 6.381624 
L 369.60768 293.092752 
" style="fill:none;stroke:#ff7500;stroke-linecap:square;stroke-width:1.5;"/>
    <g>
     <use style="fill-opacity:0;stroke:#ff7500;stroke-linejoin:bevel;stroke-width:1.5;" x="338.688" xlink:href="#m67fde6974d" y="6.381624"/>
     <use style="fill-opacity:0;stroke:#ff7500;stroke-linejoin:bevel;stroke-width:1.5;" x="369.60768" xlink:href="#m67fde6974d" y="293.092752"/>
    </g>
   </g>
   <g id="line2d_42">
    <path d="M 338.688 6.381624 
L 369.60768 152.662812 
" style="fill:none;stroke:#ff00ff;stroke-linecap:square;stroke-width:1.5;"/>
    <g>
     <use style="fill-opacity:0;stroke:#ff00ff;stroke-linejoin:miter;stroke-width:1.5;" x="338.688" xlink:href="#m2589448109" y="6.381624"/>
     <use style="fill-opacity:0;stroke:#ff00ff;stroke-linejoin:miter;stroke-width:1.5;" x="369.60768" xlink:href="#m2589448109" y="152.662812"/>
    </g>
   </g>
   <g id="line2d_43">
    <path d="M 338.688 6.381624 
L 369.60768 12.232871 
" style="fill:none;stroke:#000080;stroke-linecap:square;stroke-width:1.5;"/>
    <g>
     <use style="fill-opacity:0;stroke:#000080;stroke-width:1.5;" x="338.688" xlink:href="#m8cc907849a" y="6.381624"/>
     <use style="fill-opacity:0;stroke:#000080;stroke-width:1.5;" x="369.60768" xlink:href="#m8cc907849a" y="12.232871"/>
    </g>
   </g>
   <g id="line2d_44">
    <path d="M 338.688 298.944 
L 338.688 6.381624 
" style="fill:none;stroke:#000000;stroke-linecap:square;stroke-width:1.5;"/>
   </g>
   <g id="patch_3">
    <path d="M 57.6 298.944 
L 57.6 3.456 
" style="fill:none;stroke:#000000;stroke-linecap:square;stroke-linejoin:miter;stroke-width:0.8;"/>
   </g>
   <g id="patch_4">
    <path d="M 338.688 298.944 
L 338.688 3.456 
" style="fill:none;stroke:#000000;stroke-linecap:square;stroke-linejoin:miter;stroke-width:0.8;"/>
   </g>
   <g id="patch_5">
    <path d="M 57.6 298.944 
L 338.688 298.944 
" style="fill:none;stroke:#000000;stroke-linecap:square;stroke-linejoin:miter;stroke-width:0.8;"/>
   </g>
   <g id="patch_6">
    <path d="M 57.6 3.456 
L 338.688 3.456 
" style="fill:none;stroke:#000000;stroke-linecap:square;stroke-linejoin:miter;stroke-width:0.8;"/>
   </g>
   <g id="text_13">
    <!-- slsqp -->
    <g transform="translate(375.22944 297.78369)scale(0.17 -0.17)">
     <defs>
      <path d="M 14.796875 27.296875 
Q 14.796875 17.390625 18.875 11.75 
Q 22.953125 6.109375 30.078125 6.109375 
Q 37.203125 6.109375 41.296875 11.75 
Q 45.40625 17.390625 45.40625 27.296875 
Q 45.40625 37.203125 41.296875 42.84375 
Q 37.203125 48.484375 30.078125 48.484375 
Q 22.953125 48.484375 18.875 42.84375 
Q 14.796875 37.203125 14.796875 27.296875 
z
M 45.40625 8.203125 
Q 42.578125 3.328125 38.25 0.953125 
Q 33.9375 -1.421875 27.875 -1.421875 
Q 17.96875 -1.421875 11.734375 6.484375 
Q 5.515625 14.40625 5.515625 27.296875 
Q 5.515625 40.1875 11.734375 48.09375 
Q 17.96875 56 27.875 56 
Q 33.9375 56 38.25 53.625 
Q 42.578125 51.265625 45.40625 46.390625 
L 45.40625 54.6875 
L 54.390625 54.6875 
L 54.390625 -20.796875 
L 45.40625 -20.796875 
z
" id="DejaVuSans-113"/>
     </defs>
     <use xlink:href="#DejaVuSans-115"/>
     <use x="52.099609" xlink:href="#DejaVuSans-108"/>
     <use x="79.882812" xlink:href="#DejaVuSans-115"/>
     <use x="131.982422" xlink:href="#DejaVuSans-113"/>
     <use x="195.458984" xlink:href="#DejaVuSans-112"/>
    </g>
   </g>
   <g id="text_14">
    <!-- fmincon -->
    <g transform="translate(375.22944 157.353749)scale(0.17 -0.17)">
     <use xlink:href="#DejaVuSans-102"/>
     <use x="35.205078" xlink:href="#DejaVuSans-109"/>
     <use x="132.617188" xlink:href="#DejaVuSans-105"/>
     <use x="160.400391" xlink:href="#DejaVuSans-110"/>
     <use x="223.779297" xlink:href="#DejaVuSans-99"/>
     <use x="278.759766" xlink:href="#DejaVuSans-111"/>
     <use x="339.941406" xlink:href="#DejaVuSans-110"/>
    </g>
   </g>
   <g id="text_15">
    <!-- cobyla -->
    <g transform="translate(375.22944 16.923809)scale(0.17 -0.17)">
     <defs>
      <path d="M 48.6875 27.296875 
Q 48.6875 37.203125 44.609375 42.84375 
Q 40.53125 48.484375 33.40625 48.484375 
Q 26.265625 48.484375 22.1875 42.84375 
Q 18.109375 37.203125 18.109375 27.296875 
Q 18.109375 17.390625 22.1875 11.75 
Q 26.265625 6.109375 33.40625 6.109375 
Q 40.53125 6.109375 44.609375 11.75 
Q 48.6875 17.390625 48.6875 27.296875 
z
M 18.109375 46.390625 
Q 20.953125 51.265625 25.265625 53.625 
Q 29.59375 56 35.59375 56 
Q 45.5625 56 51.78125 48.09375 
Q 58.015625 40.1875 58.015625 27.296875 
Q 58.015625 14.40625 51.78125 6.484375 
Q 45.5625 -1.421875 35.59375 -1.421875 
Q 29.59375 -1.421875 25.265625 0.953125 
Q 20.953125 3.328125 18.109375 8.203125 
L 18.109375 0 
L 9.078125 0 
L 9.078125 75.984375 
L 18.109375 75.984375 
z
" id="DejaVuSans-98"/>
      <path d="M 32.171875 -5.078125 
Q 28.375 -14.84375 24.75 -17.8125 
Q 21.140625 -20.796875 15.09375 -20.796875 
L 7.90625 -20.796875 
L 7.90625 -13.28125 
L 13.1875 -13.28125 
Q 16.890625 -13.28125 18.9375 -11.515625 
Q 21 -9.765625 23.484375 -3.21875 
L 25.09375 0.875 
L 2.984375 54.6875 
L 12.5 54.6875 
L 29.59375 11.921875 
L 46.6875 54.6875 
L 56.203125 54.6875 
z
" id="DejaVuSans-121"/>
     </defs>
     <use xlink:href="#DejaVuSans-99"/>
     <use x="54.980469" xlink:href="#DejaVuSans-111"/>
     <use x="116.162109" xlink:href="#DejaVuSans-98"/>
     <use x="179.638672" xlink:href="#DejaVuSans-121"/>
     <use x="238.818359" xlink:href="#DejaVuSans-108"/>
     <use x="266.601562" xlink:href="#DejaVuSans-97"/>
    </g>
   </g>
   <g id="text_16">
    <!-- bbob-constrained f47, f53, 2-D -->
    <g transform="translate(60.41088 14.161286)scale(0.102 -0.102)">
     <defs>
      <path d="M 8.203125 72.90625 
L 55.078125 72.90625 
L 55.078125 68.703125 
L 28.609375 0 
L 18.3125 0 
L 43.21875 64.59375 
L 8.203125 64.59375 
z
" id="DejaVuSans-55"/>
      <path d="M 10.796875 72.90625 
L 49.515625 72.90625 
L 49.515625 64.59375 
L 19.828125 64.59375 
L 19.828125 46.734375 
Q 21.96875 47.46875 24.109375 47.828125 
Q 26.265625 48.1875 28.421875 48.1875 
Q 40.625 48.1875 47.75 41.5 
Q 54.890625 34.8125 54.890625 23.390625 
Q 54.890625 11.625 47.5625 5.09375 
Q 40.234375 -1.421875 26.90625 -1.421875 
Q 22.3125 -1.421875 17.546875 -0.640625 
Q 12.796875 0.140625 7.71875 1.703125 
L 7.71875 11.625 
Q 12.109375 9.234375 16.796875 8.0625 
Q 21.484375 6.890625 26.703125 6.890625 
Q 35.15625 6.890625 40.078125 11.328125 
Q 45.015625 15.765625 45.015625 23.390625 
Q 45.015625 31 40.078125 35.4375 
Q 35.15625 39.890625 26.703125 39.890625 
Q 22.75 39.890625 18.8125 39.015625 
Q 14.890625 38.140625 10.796875 36.28125 
z
" id="DejaVuSans-53"/>
      <path d="M 40.578125 39.3125 
Q 47.65625 37.796875 51.625 33 
Q 55.609375 28.21875 55.609375 21.1875 
Q 55.609375 10.40625 48.1875 4.484375 
Q 40.765625 -1.421875 27.09375 -1.421875 
Q 22.515625 -1.421875 17.65625 -0.515625 
Q 12.796875 0.390625 7.625 2.203125 
L 7.625 11.71875 
Q 11.71875 9.328125 16.59375 8.109375 
Q 21.484375 6.890625 26.8125 6.890625 
Q 36.078125 6.890625 40.9375 10.546875 
Q 45.796875 14.203125 45.796875 21.1875 
Q 45.796875 27.640625 41.28125 31.265625 
Q 36.765625 34.90625 28.71875 34.90625 
L 20.21875 34.90625 
L 20.21875 43.015625 
L 29.109375 43.015625 
Q 36.375 43.015625 40.234375 45.921875 
Q 44.09375 48.828125 44.09375 54.296875 
Q 44.09375 59.90625 40.109375 62.90625 
Q 36.140625 65.921875 28.71875 65.921875 
Q 24.65625 65.921875 20.015625 65.03125 
Q 15.375 64.15625 9.8125 62.3125 
L 9.8125 71.09375 
Q 15.4375 72.65625 20.34375 73.4375 
Q 25.25 74.21875 29.59375 74.21875 
Q 40.828125 74.21875 47.359375 69.109375 
Q 53.90625 64.015625 53.90625 55.328125 
Q 53.90625 49.265625 50.4375 45.09375 
Q 46.96875 40.921875 40.578125 39.3125 
z
" id="DejaVuSans-51"/>
      <path d="M 19.671875 64.796875 
L 19.671875 8.109375 
L 31.59375 8.109375 
Q 46.6875 8.109375 53.6875 14.9375 
Q 60.6875 21.78125 60.6875 36.53125 
Q 60.6875 51.171875 53.6875 57.984375 
Q 46.6875 64.796875 31.59375 64.796875 
z
M 9.8125 72.90625 
L 30.078125 72.90625 
Q 51.265625 72.90625 61.171875 64.09375 
Q 71.09375 55.28125 71.09375 36.53125 
Q 71.09375 17.671875 61.125 8.828125 
Q 51.171875 0 30.078125 0 
L 9.8125 0 
z
" id="DejaVuSans-68"/>
     </defs>
     <use xlink:href="#DejaVuSans-98"/>
     <use x="63.476562" xlink:href="#DejaVuSans-98"/>
     <use x="126.953125" xlink:href="#DejaVuSans-111"/>
     <use x="188.134766" xlink:href="#DejaVuSans-98"/>
     <use x="251.611328" xlink:href="#DejaVuSans-45"/>
     <use x="287.695312" xlink:href="#DejaVuSans-99"/>
     <use x="342.675781" xlink:href="#DejaVuSans-111"/>
     <use x="403.857422" xlink:href="#DejaVuSans-110"/>
     <use x="467.236328" xlink:href="#DejaVuSans-115"/>
     <use x="519.335938" xlink:href="#DejaVuSans-116"/>
     <use x="558.544922" xlink:href="#DejaVuSans-114"/>
     <use x="599.658203" xlink:href="#DejaVuSans-97"/>
     <use x="660.9375" xlink:href="#DejaVuSans-105"/>
     <use x="688.720703" xlink:href="#DejaVuSans-110"/>
     <use x="752.099609" xlink:href="#DejaVuSans-101"/>
     <use x="813.623047" xlink:href="#DejaVuSans-100"/>
     <use x="877.099609" xlink:href="#DejaVuSans-32"/>
     <use x="908.886719" xlink:href="#DejaVuSans-102"/>
     <use x="944.091797" xlink:href="#DejaVuSans-52"/>
     <use x="1007.714844" xlink:href="#DejaVuSans-55"/>
     <use x="1071.337891" xlink:href="#DejaVuSans-44"/>
     <use x="1103.125" xlink:href="#DejaVuSans-32"/>
     <use x="1134.912109" xlink:href="#DejaVuSans-102"/>
     <use x="1170.117188" xlink:href="#DejaVuSans-53"/>
     <use x="1233.740234" xlink:href="#DejaVuSans-51"/>
     <use x="1297.363281" xlink:href="#DejaVuSans-44"/>
     <use x="1329.150391" xlink:href="#DejaVuSans-32"/>
     <use x="1360.9375" xlink:href="#DejaVuSans-50"/>
     <use x="1424.560547" xlink:href="#DejaVuSans-45"/>
     <use x="1460.644531" xlink:href="#DejaVuSans-68"/>
    </g>
    <!-- 41 targets: 100..1e-06 -->
    <g transform="translate(60.41088 25.583055)scale(0.102 -0.102)">
     <defs>
      <path d="M 11.71875 12.40625 
L 22.015625 12.40625 
L 22.015625 0 
L 11.71875 0 
z
M 11.71875 51.703125 
L 22.015625 51.703125 
L 22.015625 39.3125 
L 11.71875 39.3125 
z
" id="DejaVuSans-58"/>
     </defs>
     <use xlink:href="#DejaVuSans-52"/>
     <use x="63.623047" xlink:href="#DejaVuSans-49"/>
     <use x="127.246094" xlink:href="#DejaVuSans-32"/>
     <use x="159.033203" xlink:href="#DejaVuSans-116"/>
     <use x="198.242188" xlink:href="#DejaVuSans-97"/>
     <use x="259.521484" xlink:href="#DejaVuSans-114"/>
     <use x="298.884766" xlink:href="#DejaVuSans-103"/>
     <use x="362.361328" xlink:href="#DejaVuSans-101"/>
     <use x="423.884766" xlink:href="#DejaVuSans-116"/>
     <use x="463.09375" xlink:href="#DejaVuSans-115"/>
     <use x="515.193359" xlink:href="#DejaVuSans-58"/>
     <use x="548.884766" xlink:href="#DejaVuSans-32"/>
     <use x="580.671875" xlink:href="#DejaVuSans-49"/>
     <use x="644.294922" xlink:href="#DejaVuSans-48"/>
     <use x="707.917969" xlink:href="#DejaVuSans-48"/>
     <use x="771.541016" xlink:href="#DejaVuSans-46"/>
     <use x="803.328125" xlink:href="#DejaVuSans-46"/>
     <use x="835.115234" xlink:href="#DejaVuSans-49"/>
     <use x="898.738281" xlink:href="#DejaVuSans-101"/>
     <use x="960.261719" xlink:href="#DejaVuSans-45"/>
     <use x="996.345703" xlink:href="#DejaVuSans-48"/>
     <use x="1059.96875" xlink:href="#DejaVuSans-54"/>
    </g>
    <!-- 15 instances -->
    <g transform="translate(60.41088 37.004824)scale(0.102 -0.102)">
     <use xlink:href="#DejaVuSans-49"/>
     <use x="63.623047" xlink:href="#DejaVuSans-53"/>
     <use x="127.246094" xlink:href="#DejaVuSans-32"/>
     <use x="159.033203" xlink:href="#DejaVuSans-105"/>
     <use x="186.816406" xlink:href="#DejaVuSans-110"/>
     <use x="250.195312" xlink:href="#DejaVuSans-115"/>
     <use x="302.294922" xlink:href="#DejaVuSans-116"/>
     <use x="341.503906" xlink:href="#DejaVuSans-97"/>
     <use x="402.783203" xlink:href="#DejaVuSans-110"/>
     <use x="466.162109" xlink:href="#DejaVuSans-99"/>
     <use x="521.142578" xlink:href="#DejaVuSans-101"/>
     <use x="582.666016" xlink:href="#DejaVuSans-115"/>
    </g>
   </g>
   <g id="text_17">
    <!-- v2.4.82 -->
    <g style="fill:#808080;" transform="translate(179.2815 293.909432)scale(0.1 -0.1)">
     <use xlink:href="#DejaVuSans-118"/>
     <use x="59.179688" xlink:href="#DejaVuSans-50"/>
     <use x="122.802734" xlink:href="#DejaVuSans-46"/>
     <use x="154.589844" xlink:href="#DejaVuSans-52"/>
     <use x="218.212891" xlink:href="#DejaVuSans-46"/>
     <use x="250" xlink:href="#DejaVuSans-56"/>
     <use x="313.623047" xlink:href="#DejaVuSans-50"/>
    </g>
   </g>
  </g>
 </g>
 <defs>
  <clipPath id="p77e428f1da">
   <rect height="295.488" width="281.088" x="57.6" y="3.456"/>
  </clipPath>
 </defs>
</svg>
