<?xml version="1.0" encoding="utf-8" standalone="no"?>
<!DOCTYPE svg PUBLIC "-//W3C//DTD SVG 1.1//EN"
  "http://www.w3.org/Graphics/SVG/1.1/DTD/svg11.dtd">
<!-- Created with matplotlib (https://matplotlib.org/) -->
<svg height="345.6pt" version="1.1" viewBox="0 0 460.8 345.6" width="460.8pt" xmlns="http://www.w3.org/2000/svg" xmlns:xlink="http://www.w3.org/1999/xlink">
 <metadata>
  <rdf:RDF xmlns:cc="http://creativecommons.org/ns#" xmlns:dc="http://purl.org/dc/elements/1.1/" xmlns:rdf="http://www.w3.org/1999/02/22-rdf-syntax-ns#">
   <cc:Work>
    <dc:type rdf:resource="http://purl.org/dc/dcmitype/StillImage"/>
    <dc:date>2022-01-12T20:20:57.417127</dc:date>
    <dc:format>image/svg+xml</dc:format>
    <dc:creator>
     <cc:Agent>
      <dc:title>Matplotlib v3.3.3, https://matplotlib.org/</dc:title>
     </cc:Agent>
    </dc:creator>
   </cc:Work>
  </rdf:RDF>
 </metadata>
 <defs>
  <style type="text/css">*{stroke-linecap:butt;stroke-linejoin:round;}</style>
 </defs>
 <g id="figure_1">
  <g id="patch_1">
   <path d="M 0 345.6 
L 460.8 345.6 
L 460.8 0 
L 0 0 
z
" style="fill:#ffffff;"/>
  </g>
  <g id="axes_1">
   <g id="patch_2">
    <path d="M 57.6 298.944 
L 338.688 298.944 
L 338.688 3.456 
L 57.6 3.456 
z
" style="fill:#ffffff;"/>
   </g>
   <g id="matplotlib.axis_1">
    <g id="xtick_1">
     <g id="line2d_1">
      <path clip-path="url(#pfcc2f0f3dd)" d="M 57.6 298.944 
L 57.6 3.456 
" style="fill:none;stroke:#b0b0b0;stroke-linecap:square;stroke-width:0.8;"/>
     </g>
     <g id="line2d_2">
      <defs>
       <path d="M 0 0 
L 0 3.5 
" id="mebf4406438" style="stroke:#000000;stroke-width:0.8;"/>
      </defs>
      <g>
       <use style="stroke:#000000;stroke-width:0.8;" x="57.6" xlink:href="#mebf4406438" y="298.944"/>
      </g>
     </g>
     <g id="text_1">
      <!-- 0 -->
      <g transform="translate(51.2375 321.140875)scale(0.2 -0.2)">
       <defs>
        <path d="M 31.78125 66.40625 
Q 24.171875 66.40625 20.328125 58.90625 
Q 16.5 51.421875 16.5 36.375 
Q 16.5 21.390625 20.328125 13.890625 
Q 24.171875 6.390625 31.78125 6.390625 
Q 39.453125 6.390625 43.28125 13.890625 
Q 47.125 21.390625 47.125 36.375 
Q 47.125 51.421875 43.28125 58.90625 
Q 39.453125 66.40625 31.78125 66.40625 
z
M 31.78125 74.21875 
Q 44.046875 74.21875 50.515625 64.515625 
Q 56.984375 54.828125 56.984375 36.375 
Q 56.984375 17.96875 50.515625 8.265625 
Q 44.046875 -1.421875 31.78125 -1.421875 
Q 19.53125 -1.421875 13.0625 8.265625 
Q 6.59375 17.96875 6.59375 36.375 
Q 6.59375 54.828125 13.0625 64.515625 
Q 19.53125 74.21875 31.78125 74.21875 
z
" id="DejaVuSans-48"/>
       </defs>
       <use xlink:href="#DejaVuSans-48"/>
      </g>
     </g>
    </g>
    <g id="xtick_2">
     <g id="line2d_3">
      <path clip-path="url(#pfcc2f0f3dd)" d="M 137.910857 298.944 
L 137.910857 3.456 
" style="fill:none;stroke:#b0b0b0;stroke-linecap:square;stroke-width:0.8;"/>
     </g>
     <g id="line2d_4">
      <g>
       <use style="stroke:#000000;stroke-width:0.8;" x="137.910857" xlink:href="#mebf4406438" y="298.944"/>
      </g>
     </g>
     <g id="text_2">
      <!-- 2 -->
      <g transform="translate(131.548357 321.140875)scale(0.2 -0.2)">
       <defs>
        <path d="M 19.1875 8.296875 
L 53.609375 8.296875 
L 53.609375 0 
L 7.328125 0 
L 7.328125 8.296875 
Q 12.9375 14.109375 22.625 23.890625 
Q 32.328125 33.6875 34.8125 36.53125 
Q 39.546875 41.84375 41.421875 45.53125 
Q 43.3125 49.21875 43.3125 52.78125 
Q 43.3125 58.59375 39.234375 62.25 
Q 35.15625 65.921875 28.609375 65.921875 
Q 23.96875 65.921875 18.8125 64.3125 
Q 13.671875 62.703125 7.8125 59.421875 
L 7.8125 69.390625 
Q 13.765625 71.78125 18.9375 73 
Q 24.125 74.21875 28.421875 74.21875 
Q 39.75 74.21875 46.484375 68.546875 
Q 53.21875 62.890625 53.21875 53.421875 
Q 53.21875 48.921875 51.53125 44.890625 
Q 49.859375 40.875 45.40625 35.40625 
Q 44.1875 33.984375 37.640625 27.21875 
Q 31.109375 20.453125 19.1875 8.296875 
z
" id="DejaVuSans-50"/>
       </defs>
       <use xlink:href="#DejaVuSans-50"/>
      </g>
     </g>
    </g>
    <g id="xtick_3">
     <g id="line2d_5">
      <path clip-path="url(#pfcc2f0f3dd)" d="M 218.221714 298.944 
L 218.221714 3.456 
" style="fill:none;stroke:#b0b0b0;stroke-linecap:square;stroke-width:0.8;"/>
     </g>
     <g id="line2d_6">
      <g>
       <use style="stroke:#000000;stroke-width:0.8;" x="218.221714" xlink:href="#mebf4406438" y="298.944"/>
      </g>
     </g>
     <g id="text_3">
      <!-- 4 -->
      <g transform="translate(211.859214 321.140875)scale(0.2 -0.2)">
       <defs>
        <path d="M 37.796875 64.3125 
L 12.890625 25.390625 
L 37.796875 25.390625 
z
M 35.203125 72.90625 
L 47.609375 72.90625 
L 47.609375 25.390625 
L 58.015625 25.390625 
L 58.015625 17.1875 
L 47.609375 17.1875 
L 47.609375 0 
L 37.796875 0 
L 37.796875 17.1875 
L 4.890625 17.1875 
L 4.890625 26.703125 
z
" id="DejaVuSans-52"/>
       </defs>
       <use xlink:href="#DejaVuSans-52"/>
      </g>
     </g>
    </g>
    <g id="xtick_4">
     <g id="line2d_7">
      <path clip-path="url(#pfcc2f0f3dd)" d="M 298.532571 298.944 
L 298.532571 3.456 
" style="fill:none;stroke:#b0b0b0;stroke-linecap:square;stroke-width:0.8;"/>
     </g>
     <g id="line2d_8">
      <g>
       <use style="stroke:#000000;stroke-width:0.8;" x="298.532571" xlink:href="#mebf4406438" y="298.944"/>
      </g>
     </g>
     <g id="text_4">
      <!-- 6 -->
      <g transform="translate(292.170071 321.140875)scale(0.2 -0.2)">
       <defs>
        <path d="M 33.015625 40.375 
Q 26.375 40.375 22.484375 35.828125 
Q 18.609375 31.296875 18.609375 23.390625 
Q 18.609375 15.53125 22.484375 10.953125 
Q 26.375 6.390625 33.015625 6.390625 
Q 39.65625 6.390625 43.53125 10.953125 
Q 47.40625 15.53125 47.40625 23.390625 
Q 47.40625 31.296875 43.53125 35.828125 
Q 39.65625 40.375 33.015625 40.375 
z
M 52.59375 71.296875 
L 52.59375 62.3125 
Q 48.875 64.0625 45.09375 64.984375 
Q 41.3125 65.921875 37.59375 65.921875 
Q 27.828125 65.921875 22.671875 59.328125 
Q 17.53125 52.734375 16.796875 39.40625 
Q 19.671875 43.65625 24.015625 45.921875 
Q 28.375 48.1875 33.59375 48.1875 
Q 44.578125 48.1875 50.953125 41.515625 
Q 57.328125 34.859375 57.328125 23.390625 
Q 57.328125 12.15625 50.6875 5.359375 
Q 44.046875 -1.421875 33.015625 -1.421875 
Q 20.359375 -1.421875 13.671875 8.265625 
Q 6.984375 17.96875 6.984375 36.375 
Q 6.984375 53.65625 15.1875 63.9375 
Q 23.390625 74.21875 37.203125 74.21875 
Q 40.921875 74.21875 44.703125 73.484375 
Q 48.484375 72.75 52.59375 71.296875 
z
" id="DejaVuSans-54"/>
       </defs>
       <use xlink:href="#DejaVuSans-54"/>
      </g>
     </g>
    </g>
    <g id="xtick_5">
     <g id="line2d_9">
      <path clip-path="url(#pfcc2f0f3dd)" d="M 97.755429 298.944 
L 97.755429 3.456 
" style="fill:none;stroke:#b0b0b0;stroke-linecap:square;stroke-width:0.8;"/>
     </g>
     <g id="line2d_10">
      <defs>
       <path d="M 0 0 
L 0 2 
" id="m9f3a7c0b9a" style="stroke:#000000;stroke-width:0.6;"/>
      </defs>
      <g>
       <use style="stroke:#000000;stroke-width:0.6;" x="97.755429" xlink:href="#m9f3a7c0b9a" y="298.944"/>
      </g>
     </g>
    </g>
    <g id="xtick_6">
     <g id="line2d_11">
      <path clip-path="url(#pfcc2f0f3dd)" d="M 178.066286 298.944 
L 178.066286 3.456 
" style="fill:none;stroke:#b0b0b0;stroke-linecap:square;stroke-width:0.8;"/>
     </g>
     <g id="line2d_12">
      <g>
       <use style="stroke:#000000;stroke-width:0.6;" x="178.066286" xlink:href="#m9f3a7c0b9a" y="298.944"/>
      </g>
     </g>
    </g>
    <g id="xtick_7">
     <g id="line2d_13">
      <path clip-path="url(#pfcc2f0f3dd)" d="M 258.377143 298.944 
L 258.377143 3.456 
" style="fill:none;stroke:#b0b0b0;stroke-linecap:square;stroke-width:0.8;"/>
     </g>
     <g id="line2d_14">
      <g>
       <use style="stroke:#000000;stroke-width:0.6;" x="258.377143" xlink:href="#m9f3a7c0b9a" y="298.944"/>
      </g>
     </g>
    </g>
    <g id="xtick_8">
     <g id="line2d_15">
      <path clip-path="url(#pfcc2f0f3dd)" d="M 338.688 298.944 
L 338.688 3.456 
" style="fill:none;stroke:#b0b0b0;stroke-linecap:square;stroke-width:0.8;"/>
     </g>
     <g id="line2d_16">
      <g>
       <use style="stroke:#000000;stroke-width:0.6;" x="338.688" xlink:href="#m9f3a7c0b9a" y="298.944"/>
      </g>
     </g>
    </g>
    <g id="text_5">
     <!-- log10(# (f+g)-evals / dimension) -->
     <g transform="translate(58.145016 342.217594)scale(0.17 -0.17)">
      <defs>
       <path d="M 9.421875 75.984375 
L 18.40625 75.984375 
L 18.40625 0 
L 9.421875 0 
z
" id="DejaVuSans-108"/>
       <path d="M 30.609375 48.390625 
Q 23.390625 48.390625 19.1875 42.75 
Q 14.984375 37.109375 14.984375 27.296875 
Q 14.984375 17.484375 19.15625 11.84375 
Q 23.34375 6.203125 30.609375 6.203125 
Q 37.796875 6.203125 41.984375 11.859375 
Q 46.1875 17.53125 46.1875 27.296875 
Q 46.1875 37.015625 41.984375 42.703125 
Q 37.796875 48.390625 30.609375 48.390625 
z
M 30.609375 56 
Q 42.328125 56 49.015625 48.375 
Q 55.71875 40.765625 55.71875 27.296875 
Q 55.71875 13.875 49.015625 6.21875 
Q 42.328125 -1.421875 30.609375 -1.421875 
Q 18.84375 -1.421875 12.171875 6.21875 
Q 5.515625 13.875 5.515625 27.296875 
Q 5.515625 40.765625 12.171875 48.375 
Q 18.84375 56 30.609375 56 
z
" id="DejaVuSans-111"/>
       <path d="M 45.40625 27.984375 
Q 45.40625 37.75 41.375 43.109375 
Q 37.359375 48.484375 30.078125 48.484375 
Q 22.859375 48.484375 18.828125 43.109375 
Q 14.796875 37.75 14.796875 27.984375 
Q 14.796875 18.265625 18.828125 12.890625 
Q 22.859375 7.515625 30.078125 7.515625 
Q 37.359375 7.515625 41.375 12.890625 
Q 45.40625 18.265625 45.40625 27.984375 
z
M 54.390625 6.78125 
Q 54.390625 -7.171875 48.1875 -13.984375 
Q 42 -20.796875 29.203125 -20.796875 
Q 24.46875 -20.796875 20.265625 -20.09375 
Q 16.0625 -19.390625 12.109375 -17.921875 
L 12.109375 -9.1875 
Q 16.0625 -11.328125 19.921875 -12.34375 
Q 23.78125 -13.375 27.78125 -13.375 
Q 36.625 -13.375 41.015625 -8.765625 
Q 45.40625 -4.15625 45.40625 5.171875 
L 45.40625 9.625 
Q 42.625 4.78125 38.28125 2.390625 
Q 33.9375 0 27.875 0 
Q 17.828125 0 11.671875 7.65625 
Q 5.515625 15.328125 5.515625 27.984375 
Q 5.515625 40.671875 11.671875 48.328125 
Q 17.828125 56 27.875 56 
Q 33.9375 56 38.28125 53.609375 
Q 42.625 51.21875 45.40625 46.390625 
L 45.40625 54.6875 
L 54.390625 54.6875 
z
" id="DejaVuSans-103"/>
       <path d="M 12.40625 8.296875 
L 28.515625 8.296875 
L 28.515625 63.921875 
L 10.984375 60.40625 
L 10.984375 69.390625 
L 28.421875 72.90625 
L 38.28125 72.90625 
L 38.28125 8.296875 
L 54.390625 8.296875 
L 54.390625 0 
L 12.40625 0 
z
" id="DejaVuSans-49"/>
       <path d="M 31 75.875 
Q 24.46875 64.65625 21.28125 53.65625 
Q 18.109375 42.671875 18.109375 31.390625 
Q 18.109375 20.125 21.3125 9.0625 
Q 24.515625 -2 31 -13.1875 
L 23.1875 -13.1875 
Q 15.875 -1.703125 12.234375 9.375 
Q 8.59375 20.453125 8.59375 31.390625 
Q 8.59375 42.28125 12.203125 53.3125 
Q 15.828125 64.359375 23.1875 75.875 
z
" id="DejaVuSans-40"/>
       <path d="M 51.125 44 
L 36.921875 44 
L 32.8125 27.6875 
L 47.125 27.6875 
z
M 43.796875 71.78125 
L 38.71875 51.515625 
L 52.984375 51.515625 
L 58.109375 71.78125 
L 65.921875 71.78125 
L 60.890625 51.515625 
L 76.125 51.515625 
L 76.125 44 
L 58.984375 44 
L 54.984375 27.6875 
L 70.515625 27.6875 
L 70.515625 20.21875 
L 53.078125 20.21875 
L 48 0 
L 40.1875 0 
L 45.21875 20.21875 
L 30.90625 20.21875 
L 25.875 0 
L 18.015625 0 
L 23.09375 20.21875 
L 7.71875 20.21875 
L 7.71875 27.6875 
L 24.90625 27.6875 
L 29 44 
L 13.28125 44 
L 13.28125 51.515625 
L 30.90625 51.515625 
L 35.890625 71.78125 
z
" id="DejaVuSans-35"/>
       <path id="DejaVuSans-32"/>
       <path d="M 37.109375 75.984375 
L 37.109375 68.5 
L 28.515625 68.5 
Q 23.6875 68.5 21.796875 66.546875 
Q 19.921875 64.59375 19.921875 59.515625 
L 19.921875 54.6875 
L 34.71875 54.6875 
L 34.71875 47.703125 
L 19.921875 47.703125 
L 19.921875 0 
L 10.890625 0 
L 10.890625 47.703125 
L 2.296875 47.703125 
L 2.296875 54.6875 
L 10.890625 54.6875 
L 10.890625 58.5 
Q 10.890625 67.625 15.140625 71.796875 
Q 19.390625 75.984375 28.609375 75.984375 
z
" id="DejaVuSans-102"/>
       <path d="M 46 62.703125 
L 46 35.5 
L 73.1875 35.5 
L 73.1875 27.203125 
L 46 27.203125 
L 46 0 
L 37.796875 0 
L 37.796875 27.203125 
L 10.59375 27.203125 
L 10.59375 35.5 
L 37.796875 35.5 
L 37.796875 62.703125 
z
" id="DejaVuSans-43"/>
       <path d="M 8.015625 75.875 
L 15.828125 75.875 
Q 23.140625 64.359375 26.78125 53.3125 
Q 30.421875 42.28125 30.421875 31.390625 
Q 30.421875 20.453125 26.78125 9.375 
Q 23.140625 -1.703125 15.828125 -13.1875 
L 8.015625 -13.1875 
Q 14.5 -2 17.703125 9.0625 
Q 20.90625 20.125 20.90625 31.390625 
Q 20.90625 42.671875 17.703125 53.65625 
Q 14.5 64.65625 8.015625 75.875 
z
" id="DejaVuSans-41"/>
       <path d="M 4.890625 31.390625 
L 31.203125 31.390625 
L 31.203125 23.390625 
L 4.890625 23.390625 
z
" id="DejaVuSans-45"/>
       <path d="M 56.203125 29.59375 
L 56.203125 25.203125 
L 14.890625 25.203125 
Q 15.484375 15.921875 20.484375 11.0625 
Q 25.484375 6.203125 34.421875 6.203125 
Q 39.59375 6.203125 44.453125 7.46875 
Q 49.3125 8.734375 54.109375 11.28125 
L 54.109375 2.78125 
Q 49.265625 0.734375 44.1875 -0.34375 
Q 39.109375 -1.421875 33.890625 -1.421875 
Q 20.796875 -1.421875 13.15625 6.1875 
Q 5.515625 13.8125 5.515625 26.8125 
Q 5.515625 40.234375 12.765625 48.109375 
Q 20.015625 56 32.328125 56 
Q 43.359375 56 49.78125 48.890625 
Q 56.203125 41.796875 56.203125 29.59375 
z
M 47.21875 32.234375 
Q 47.125 39.59375 43.09375 43.984375 
Q 39.0625 48.390625 32.421875 48.390625 
Q 24.90625 48.390625 20.390625 44.140625 
Q 15.875 39.890625 15.1875 32.171875 
z
" id="DejaVuSans-101"/>
       <path d="M 2.984375 54.6875 
L 12.5 54.6875 
L 29.59375 8.796875 
L 46.6875 54.6875 
L 56.203125 54.6875 
L 35.6875 0 
L 23.484375 0 
z
" id="DejaVuSans-118"/>
       <path d="M 34.28125 27.484375 
Q 23.390625 27.484375 19.1875 25 
Q 14.984375 22.515625 14.984375 16.5 
Q 14.984375 11.71875 18.140625 8.90625 
Q 21.296875 6.109375 26.703125 6.109375 
Q 34.1875 6.109375 38.703125 11.40625 
Q 43.21875 16.703125 43.21875 25.484375 
L 43.21875 27.484375 
z
M 52.203125 31.203125 
L 52.203125 0 
L 43.21875 0 
L 43.21875 8.296875 
Q 40.140625 3.328125 35.546875 0.953125 
Q 30.953125 -1.421875 24.3125 -1.421875 
Q 15.921875 -1.421875 10.953125 3.296875 
Q 6 8.015625 6 15.921875 
Q 6 25.140625 12.171875 29.828125 
Q 18.359375 34.515625 30.609375 34.515625 
L 43.21875 34.515625 
L 43.21875 35.40625 
Q 43.21875 41.609375 39.140625 45 
Q 35.0625 48.390625 27.6875 48.390625 
Q 23 48.390625 18.546875 47.265625 
Q 14.109375 46.140625 10.015625 43.890625 
L 10.015625 52.203125 
Q 14.9375 54.109375 19.578125 55.046875 
Q 24.21875 56 28.609375 56 
Q 40.484375 56 46.34375 49.84375 
Q 52.203125 43.703125 52.203125 31.203125 
z
" id="DejaVuSans-97"/>
       <path d="M 44.28125 53.078125 
L 44.28125 44.578125 
Q 40.484375 46.53125 36.375 47.5 
Q 32.28125 48.484375 27.875 48.484375 
Q 21.1875 48.484375 17.84375 46.4375 
Q 14.5 44.390625 14.5 40.28125 
Q 14.5 37.15625 16.890625 35.375 
Q 19.28125 33.59375 26.515625 31.984375 
L 29.59375 31.296875 
Q 39.15625 29.25 43.1875 25.515625 
Q 47.21875 21.78125 47.21875 15.09375 
Q 47.21875 7.46875 41.1875 3.015625 
Q 35.15625 -1.421875 24.609375 -1.421875 
Q 20.21875 -1.421875 15.453125 -0.5625 
Q 10.6875 0.296875 5.421875 2 
L 5.421875 11.28125 
Q 10.40625 8.6875 15.234375 7.390625 
Q 20.0625 6.109375 24.8125 6.109375 
Q 31.15625 6.109375 34.5625 8.28125 
Q 37.984375 10.453125 37.984375 14.40625 
Q 37.984375 18.0625 35.515625 20.015625 
Q 33.0625 21.96875 24.703125 23.78125 
L 21.578125 24.515625 
Q 13.234375 26.265625 9.515625 29.90625 
Q 5.8125 33.546875 5.8125 39.890625 
Q 5.8125 47.609375 11.28125 51.796875 
Q 16.75 56 26.8125 56 
Q 31.78125 56 36.171875 55.265625 
Q 40.578125 54.546875 44.28125 53.078125 
z
" id="DejaVuSans-115"/>
       <path d="M 25.390625 72.90625 
L 33.6875 72.90625 
L 8.296875 -9.28125 
L 0 -9.28125 
z
" id="DejaVuSans-47"/>
       <path d="M 45.40625 46.390625 
L 45.40625 75.984375 
L 54.390625 75.984375 
L 54.390625 0 
L 45.40625 0 
L 45.40625 8.203125 
Q 42.578125 3.328125 38.25 0.953125 
Q 33.9375 -1.421875 27.875 -1.421875 
Q 17.96875 -1.421875 11.734375 6.484375 
Q 5.515625 14.40625 5.515625 27.296875 
Q 5.515625 40.1875 11.734375 48.09375 
Q 17.96875 56 27.875 56 
Q 33.9375 56 38.25 53.625 
Q 42.578125 51.265625 45.40625 46.390625 
z
M 14.796875 27.296875 
Q 14.796875 17.390625 18.875 11.75 
Q 22.953125 6.109375 30.078125 6.109375 
Q 37.203125 6.109375 41.296875 11.75 
Q 45.40625 17.390625 45.40625 27.296875 
Q 45.40625 37.203125 41.296875 42.84375 
Q 37.203125 48.484375 30.078125 48.484375 
Q 22.953125 48.484375 18.875 42.84375 
Q 14.796875 37.203125 14.796875 27.296875 
z
" id="DejaVuSans-100"/>
       <path d="M 9.421875 54.6875 
L 18.40625 54.6875 
L 18.40625 0 
L 9.421875 0 
z
M 9.421875 75.984375 
L 18.40625 75.984375 
L 18.40625 64.59375 
L 9.421875 64.59375 
z
" id="DejaVuSans-105"/>
       <path d="M 52 44.1875 
Q 55.375 50.25 60.0625 53.125 
Q 64.75 56 71.09375 56 
Q 79.640625 56 84.28125 50.015625 
Q 88.921875 44.046875 88.921875 33.015625 
L 88.921875 0 
L 79.890625 0 
L 79.890625 32.71875 
Q 79.890625 40.578125 77.09375 44.375 
Q 74.3125 48.1875 68.609375 48.1875 
Q 61.625 48.1875 57.5625 43.546875 
Q 53.515625 38.921875 53.515625 30.90625 
L 53.515625 0 
L 44.484375 0 
L 44.484375 32.71875 
Q 44.484375 40.625 41.703125 44.40625 
Q 38.921875 48.1875 33.109375 48.1875 
Q 26.21875 48.1875 22.15625 43.53125 
Q 18.109375 38.875 18.109375 30.90625 
L 18.109375 0 
L 9.078125 0 
L 9.078125 54.6875 
L 18.109375 54.6875 
L 18.109375 46.1875 
Q 21.1875 51.21875 25.484375 53.609375 
Q 29.78125 56 35.6875 56 
Q 41.65625 56 45.828125 52.96875 
Q 50 49.953125 52 44.1875 
z
" id="DejaVuSans-109"/>
       <path d="M 54.890625 33.015625 
L 54.890625 0 
L 45.90625 0 
L 45.90625 32.71875 
Q 45.90625 40.484375 42.875 44.328125 
Q 39.84375 48.1875 33.796875 48.1875 
Q 26.515625 48.1875 22.3125 43.546875 
Q 18.109375 38.921875 18.109375 30.90625 
L 18.109375 0 
L 9.078125 0 
L 9.078125 54.6875 
L 18.109375 54.6875 
L 18.109375 46.1875 
Q 21.34375 51.125 25.703125 53.5625 
Q 30.078125 56 35.796875 56 
Q 45.21875 56 50.046875 50.171875 
Q 54.890625 44.34375 54.890625 33.015625 
z
" id="DejaVuSans-110"/>
      </defs>
      <use xlink:href="#DejaVuSans-108"/>
      <use x="27.783203" xlink:href="#DejaVuSans-111"/>
      <use x="88.964844" xlink:href="#DejaVuSans-103"/>
      <use x="152.441406" xlink:href="#DejaVuSans-49"/>
      <use x="216.064453" xlink:href="#DejaVuSans-48"/>
      <use x="279.6875" xlink:href="#DejaVuSans-40"/>
      <use x="318.701172" xlink:href="#DejaVuSans-35"/>
      <use x="402.490234" xlink:href="#DejaVuSans-32"/>
      <use x="434.277344" xlink:href="#DejaVuSans-40"/>
      <use x="473.291016" xlink:href="#DejaVuSans-102"/>
      <use x="508.496094" xlink:href="#DejaVuSans-43"/>
      <use x="592.285156" xlink:href="#DejaVuSans-103"/>
      <use x="655.761719" xlink:href="#DejaVuSans-41"/>
      <use x="694.775391" xlink:href="#DejaVuSans-45"/>
      <use x="730.859375" xlink:href="#DejaVuSans-101"/>
      <use x="792.382812" xlink:href="#DejaVuSans-118"/>
      <use x="851.5625" xlink:href="#DejaVuSans-97"/>
      <use x="912.841797" xlink:href="#DejaVuSans-108"/>
      <use x="940.625" xlink:href="#DejaVuSans-115"/>
      <use x="992.724609" xlink:href="#DejaVuSans-32"/>
      <use x="1024.511719" xlink:href="#DejaVuSans-47"/>
      <use x="1058.203125" xlink:href="#DejaVuSans-32"/>
      <use x="1089.990234" xlink:href="#DejaVuSans-100"/>
      <use x="1153.466797" xlink:href="#DejaVuSans-105"/>
      <use x="1181.25" xlink:href="#DejaVuSans-109"/>
      <use x="1278.662109" xlink:href="#DejaVuSans-101"/>
      <use x="1340.185547" xlink:href="#DejaVuSans-110"/>
      <use x="1403.564453" xlink:href="#DejaVuSans-115"/>
      <use x="1455.664062" xlink:href="#DejaVuSans-105"/>
      <use x="1483.447266" xlink:href="#DejaVuSans-111"/>
      <use x="1544.628906" xlink:href="#DejaVuSans-110"/>
      <use x="1608.007812" xlink:href="#DejaVuSans-41"/>
     </g>
    </g>
   </g>
   <g id="matplotlib.axis_2">
    <g id="ytick_1">
     <g id="line2d_17">
      <path clip-path="url(#pfcc2f0f3dd)" d="M 57.6 298.944 
L 338.688 298.944 
" style="fill:none;stroke:#b0b0b0;stroke-linecap:square;stroke-width:0.8;"/>
     </g>
     <g id="line2d_18">
      <defs>
       <path d="M 0 0 
L -3.5 0 
" id="mecdc9c14d9" style="stroke:#000000;stroke-width:0.8;"/>
      </defs>
      <g>
       <use style="stroke:#000000;stroke-width:0.8;" x="57.6" xlink:href="#mecdc9c14d9" y="298.944"/>
      </g>
     </g>
     <g id="text_6">
      <!-- 0.0 -->
      <g transform="translate(25.155 305.02275)scale(0.16 -0.16)">
       <defs>
        <path d="M 10.6875 12.40625 
L 21 12.40625 
L 21 0 
L 10.6875 0 
z
" id="DejaVuSans-46"/>
       </defs>
       <use xlink:href="#DejaVuSans-48"/>
       <use x="63.623047" xlink:href="#DejaVuSans-46"/>
       <use x="95.410156" xlink:href="#DejaVuSans-48"/>
      </g>
     </g>
    </g>
    <g id="ytick_2">
     <g id="line2d_19">
      <path clip-path="url(#pfcc2f0f3dd)" d="M 57.6 240.431525 
L 338.688 240.431525 
" style="fill:none;stroke:#b0b0b0;stroke-linecap:square;stroke-width:0.8;"/>
     </g>
     <g id="line2d_20">
      <g>
       <use style="stroke:#000000;stroke-width:0.8;" x="57.6" xlink:href="#mecdc9c14d9" y="240.431525"/>
      </g>
     </g>
     <g id="text_7">
      <!-- 0.2 -->
      <g transform="translate(25.155 246.510275)scale(0.16 -0.16)">
       <use xlink:href="#DejaVuSans-48"/>
       <use x="63.623047" xlink:href="#DejaVuSans-46"/>
       <use x="95.410156" xlink:href="#DejaVuSans-50"/>
      </g>
     </g>
    </g>
    <g id="ytick_3">
     <g id="line2d_21">
      <path clip-path="url(#pfcc2f0f3dd)" d="M 57.6 181.91905 
L 338.688 181.91905 
" style="fill:none;stroke:#b0b0b0;stroke-linecap:square;stroke-width:0.8;"/>
     </g>
     <g id="line2d_22">
      <g>
       <use style="stroke:#000000;stroke-width:0.8;" x="57.6" xlink:href="#mecdc9c14d9" y="181.91905"/>
      </g>
     </g>
     <g id="text_8">
      <!-- 0.4 -->
      <g transform="translate(25.155 187.9978)scale(0.16 -0.16)">
       <use xlink:href="#DejaVuSans-48"/>
       <use x="63.623047" xlink:href="#DejaVuSans-46"/>
       <use x="95.410156" xlink:href="#DejaVuSans-52"/>
      </g>
     </g>
    </g>
    <g id="ytick_4">
     <g id="line2d_23">
      <path clip-path="url(#pfcc2f0f3dd)" d="M 57.6 123.406574 
L 338.688 123.406574 
" style="fill:none;stroke:#b0b0b0;stroke-linecap:square;stroke-width:0.8;"/>
     </g>
     <g id="line2d_24">
      <g>
       <use style="stroke:#000000;stroke-width:0.8;" x="57.6" xlink:href="#mecdc9c14d9" y="123.406574"/>
      </g>
     </g>
     <g id="text_9">
      <!-- 0.6 -->
      <g transform="translate(25.155 129.485324)scale(0.16 -0.16)">
       <use xlink:href="#DejaVuSans-48"/>
       <use x="63.623047" xlink:href="#DejaVuSans-46"/>
       <use x="95.410156" xlink:href="#DejaVuSans-54"/>
      </g>
     </g>
    </g>
    <g id="ytick_5">
     <g id="line2d_25">
      <path clip-path="url(#pfcc2f0f3dd)" d="M 57.6 64.894099 
L 338.688 64.894099 
" style="fill:none;stroke:#b0b0b0;stroke-linecap:square;stroke-width:0.8;"/>
     </g>
     <g id="line2d_26">
      <g>
       <use style="stroke:#000000;stroke-width:0.8;" x="57.6" xlink:href="#mecdc9c14d9" y="64.894099"/>
      </g>
     </g>
     <g id="text_10">
      <!-- 0.8 -->
      <g transform="translate(25.155 70.972849)scale(0.16 -0.16)">
       <defs>
        <path d="M 31.78125 34.625 
Q 24.75 34.625 20.71875 30.859375 
Q 16.703125 27.09375 16.703125 20.515625 
Q 16.703125 13.921875 20.71875 10.15625 
Q 24.75 6.390625 31.78125 6.390625 
Q 38.8125 6.390625 42.859375 10.171875 
Q 46.921875 13.96875 46.921875 20.515625 
Q 46.921875 27.09375 42.890625 30.859375 
Q 38.875 34.625 31.78125 34.625 
z
M 21.921875 38.8125 
Q 15.578125 40.375 12.03125 44.71875 
Q 8.5 49.078125 8.5 55.328125 
Q 8.5 64.0625 14.71875 69.140625 
Q 20.953125 74.21875 31.78125 74.21875 
Q 42.671875 74.21875 48.875 69.140625 
Q 55.078125 64.0625 55.078125 55.328125 
Q 55.078125 49.078125 51.53125 44.71875 
Q 48 40.375 41.703125 38.8125 
Q 48.828125 37.15625 52.796875 32.3125 
Q 56.78125 27.484375 56.78125 20.515625 
Q 56.78125 9.90625 50.3125 4.234375 
Q 43.84375 -1.421875 31.78125 -1.421875 
Q 19.734375 -1.421875 13.25 4.234375 
Q 6.78125 9.90625 6.78125 20.515625 
Q 6.78125 27.484375 10.78125 32.3125 
Q 14.796875 37.15625 21.921875 38.8125 
z
M 18.3125 54.390625 
Q 18.3125 48.734375 21.84375 45.5625 
Q 25.390625 42.390625 31.78125 42.390625 
Q 38.140625 42.390625 41.71875 45.5625 
Q 45.3125 48.734375 45.3125 54.390625 
Q 45.3125 60.0625 41.71875 63.234375 
Q 38.140625 66.40625 31.78125 66.40625 
Q 25.390625 66.40625 21.84375 63.234375 
Q 18.3125 60.0625 18.3125 54.390625 
z
" id="DejaVuSans-56"/>
       </defs>
       <use xlink:href="#DejaVuSans-48"/>
       <use x="63.623047" xlink:href="#DejaVuSans-46"/>
       <use x="95.410156" xlink:href="#DejaVuSans-56"/>
      </g>
     </g>
    </g>
    <g id="ytick_6">
     <g id="line2d_27">
      <path clip-path="url(#pfcc2f0f3dd)" d="M 57.6 6.381624 
L 338.688 6.381624 
" style="fill:none;stroke:#b0b0b0;stroke-linecap:square;stroke-width:0.8;"/>
     </g>
     <g id="line2d_28">
      <g>
       <use style="stroke:#000000;stroke-width:0.8;" x="57.6" xlink:href="#mecdc9c14d9" y="6.381624"/>
      </g>
     </g>
     <g id="text_11">
      <!-- 1.0 -->
      <g transform="translate(25.155 12.460374)scale(0.16 -0.16)">
       <use xlink:href="#DejaVuSans-49"/>
       <use x="63.623047" xlink:href="#DejaVuSans-46"/>
       <use x="95.410156" xlink:href="#DejaVuSans-48"/>
      </g>
     </g>
    </g>
    <g id="text_12">
     <!-- Fraction of function,target pairs -->
     <g transform="translate(17.619531 285.585)rotate(-90)scale(0.17 -0.17)">
      <defs>
       <path d="M 9.8125 72.90625 
L 51.703125 72.90625 
L 51.703125 64.59375 
L 19.671875 64.59375 
L 19.671875 43.109375 
L 48.578125 43.109375 
L 48.578125 34.8125 
L 19.671875 34.8125 
L 19.671875 0 
L 9.8125 0 
z
" id="DejaVuSans-70"/>
       <path d="M 41.109375 46.296875 
Q 39.59375 47.171875 37.8125 47.578125 
Q 36.03125 48 33.890625 48 
Q 26.265625 48 22.1875 43.046875 
Q 18.109375 38.09375 18.109375 28.8125 
L 18.109375 0 
L 9.078125 0 
L 9.078125 54.6875 
L 18.109375 54.6875 
L 18.109375 46.1875 
Q 20.953125 51.171875 25.484375 53.578125 
Q 30.03125 56 36.53125 56 
Q 37.453125 56 38.578125 55.875 
Q 39.703125 55.765625 41.0625 55.515625 
z
" id="DejaVuSans-114"/>
       <path d="M 48.78125 52.59375 
L 48.78125 44.1875 
Q 44.96875 46.296875 41.140625 47.34375 
Q 37.3125 48.390625 33.40625 48.390625 
Q 24.65625 48.390625 19.8125 42.84375 
Q 14.984375 37.3125 14.984375 27.296875 
Q 14.984375 17.28125 19.8125 11.734375 
Q 24.65625 6.203125 33.40625 6.203125 
Q 37.3125 6.203125 41.140625 7.25 
Q 44.96875 8.296875 48.78125 10.40625 
L 48.78125 2.09375 
Q 45.015625 0.34375 40.984375 -0.53125 
Q 36.96875 -1.421875 32.421875 -1.421875 
Q 20.0625 -1.421875 12.78125 6.34375 
Q 5.515625 14.109375 5.515625 27.296875 
Q 5.515625 40.671875 12.859375 48.328125 
Q 20.21875 56 33.015625 56 
Q 37.15625 56 41.109375 55.140625 
Q 45.0625 54.296875 48.78125 52.59375 
z
" id="DejaVuSans-99"/>
       <path d="M 18.3125 70.21875 
L 18.3125 54.6875 
L 36.8125 54.6875 
L 36.8125 47.703125 
L 18.3125 47.703125 
L 18.3125 18.015625 
Q 18.3125 11.328125 20.140625 9.421875 
Q 21.96875 7.515625 27.59375 7.515625 
L 36.8125 7.515625 
L 36.8125 0 
L 27.59375 0 
Q 17.1875 0 13.234375 3.875 
Q 9.28125 7.765625 9.28125 18.015625 
L 9.28125 47.703125 
L 2.6875 47.703125 
L 2.6875 54.6875 
L 9.28125 54.6875 
L 9.28125 70.21875 
z
" id="DejaVuSans-116"/>
       <path d="M 8.5 21.578125 
L 8.5 54.6875 
L 17.484375 54.6875 
L 17.484375 21.921875 
Q 17.484375 14.15625 20.5 10.265625 
Q 23.53125 6.390625 29.59375 6.390625 
Q 36.859375 6.390625 41.078125 11.03125 
Q 45.3125 15.671875 45.3125 23.6875 
L 45.3125 54.6875 
L 54.296875 54.6875 
L 54.296875 0 
L 45.3125 0 
L 45.3125 8.40625 
Q 42.046875 3.421875 37.71875 1 
Q 33.40625 -1.421875 27.6875 -1.421875 
Q 18.265625 -1.421875 13.375 4.4375 
Q 8.5 10.296875 8.5 21.578125 
z
M 31.109375 56 
z
" id="DejaVuSans-117"/>
       <path d="M 11.71875 12.40625 
L 22.015625 12.40625 
L 22.015625 4 
L 14.015625 -11.625 
L 7.71875 -11.625 
L 11.71875 4 
z
" id="DejaVuSans-44"/>
       <path d="M 18.109375 8.203125 
L 18.109375 -20.796875 
L 9.078125 -20.796875 
L 9.078125 54.6875 
L 18.109375 54.6875 
L 18.109375 46.390625 
Q 20.953125 51.265625 25.265625 53.625 
Q 29.59375 56 35.59375 56 
Q 45.5625 56 51.78125 48.09375 
Q 58.015625 40.1875 58.015625 27.296875 
Q 58.015625 14.40625 51.78125 6.484375 
Q 45.5625 -1.421875 35.59375 -1.421875 
Q 29.59375 -1.421875 25.265625 0.953125 
Q 20.953125 3.328125 18.109375 8.203125 
z
M 48.6875 27.296875 
Q 48.6875 37.203125 44.609375 42.84375 
Q 40.53125 48.484375 33.40625 48.484375 
Q 26.265625 48.484375 22.1875 42.84375 
Q 18.109375 37.203125 18.109375 27.296875 
Q 18.109375 17.390625 22.1875 11.75 
Q 26.265625 6.109375 33.40625 6.109375 
Q 40.53125 6.109375 44.609375 11.75 
Q 48.6875 17.390625 48.6875 27.296875 
z
" id="DejaVuSans-112"/>
      </defs>
      <use xlink:href="#DejaVuSans-70"/>
      <use x="50.269531" xlink:href="#DejaVuSans-114"/>
      <use x="91.382812" xlink:href="#DejaVuSans-97"/>
      <use x="152.662109" xlink:href="#DejaVuSans-99"/>
      <use x="207.642578" xlink:href="#DejaVuSans-116"/>
      <use x="246.851562" xlink:href="#DejaVuSans-105"/>
      <use x="274.634766" xlink:href="#DejaVuSans-111"/>
      <use x="335.816406" xlink:href="#DejaVuSans-110"/>
      <use x="399.195312" xlink:href="#DejaVuSans-32"/>
      <use x="430.982422" xlink:href="#DejaVuSans-111"/>
      <use x="492.164062" xlink:href="#DejaVuSans-102"/>
      <use x="527.369141" xlink:href="#DejaVuSans-32"/>
      <use x="559.15625" xlink:href="#DejaVuSans-102"/>
      <use x="594.361328" xlink:href="#DejaVuSans-117"/>
      <use x="657.740234" xlink:href="#DejaVuSans-110"/>
      <use x="721.119141" xlink:href="#DejaVuSans-99"/>
      <use x="776.099609" xlink:href="#DejaVuSans-116"/>
      <use x="815.308594" xlink:href="#DejaVuSans-105"/>
      <use x="843.091797" xlink:href="#DejaVuSans-111"/>
      <use x="904.273438" xlink:href="#DejaVuSans-110"/>
      <use x="967.652344" xlink:href="#DejaVuSans-44"/>
      <use x="999.439453" xlink:href="#DejaVuSans-116"/>
      <use x="1038.648438" xlink:href="#DejaVuSans-97"/>
      <use x="1099.927734" xlink:href="#DejaVuSans-114"/>
      <use x="1139.291016" xlink:href="#DejaVuSans-103"/>
      <use x="1202.767578" xlink:href="#DejaVuSans-101"/>
      <use x="1264.291016" xlink:href="#DejaVuSans-116"/>
      <use x="1303.5" xlink:href="#DejaVuSans-32"/>
      <use x="1335.287109" xlink:href="#DejaVuSans-112"/>
      <use x="1398.763672" xlink:href="#DejaVuSans-97"/>
      <use x="1460.042969" xlink:href="#DejaVuSans-105"/>
      <use x="1487.826172" xlink:href="#DejaVuSans-114"/>
      <use x="1528.939453" xlink:href="#DejaVuSans-115"/>
     </g>
    </g>
   </g>
   <g id="line2d_29">
    <defs>
     <path d="M 0 1.5 
C 0.397805 1.5 0.77937 1.341951 1.06066 1.06066 
C 1.341951 0.77937 1.5 0.397805 1.5 0 
C 1.5 -0.397805 1.341951 -0.77937 1.06066 -1.06066 
C 0.77937 -1.341951 0.397805 -1.5 0 -1.5 
C -0.397805 -1.5 -0.77937 -1.341951 -1.06066 -1.06066 
C -1.341951 -0.77937 -1.5 -0.397805 -1.5 0 
C -1.5 0.397805 -1.341951 0.77937 -1.06066 1.06066 
C -0.77937 1.341951 -0.397805 1.5 0 1.5 
z
" id="me600a32949" style="stroke:#000080;"/>
    </defs>
    <g>
     <use style="fill:#000080;stroke:#000080;" x="165.838222" xlink:href="#me600a32949" y="6.381624"/>
     <use style="fill:#000080;stroke:#000080;" x="165.838222" xlink:href="#me600a32949" y="6.381624"/>
    </g>
   </g>
   <g id="line2d_30">
    <path d="M 38.440992 298.944 
L 38.440992 298.838286 
L 81.775977 298.838286 
L 81.775977 267.864203 
L 84.464254 267.864203 
L 84.464254 257.028559 
L 86.792945 257.028559 
L 86.792945 245.400064 
L 88.846997 245.400064 
L 88.846997 239.110105 
L 90.684409 239.110105 
L 90.684409 228.010177 
L 92.34655 228.010177 
L 92.34655 222.935925 
L 93.863965 222.935925 
L 93.863965 220.134514 
L 95.259853 220.134514 
L 95.259853 211.518856 
L 96.552242 211.518856 
L 96.552242 204.700329 
L 97.755429 204.700329 
L 97.755429 195.344676 
L 98.880934 195.344676 
L 98.880934 190.798992 
L 99.938184 190.798992 
L 99.938184 185.936166 
L 100.934985 185.936166 
L 100.934985 179.011926 
L 101.877879 179.011926 
L 101.877879 174.941952 
L 102.772397 174.941952 
L 102.772397 168.017712 
L 103.623262 168.017712 
L 103.623262 163.207743 
L 104.434538 163.207743 
L 104.434538 157.552066 
L 105.209745 157.552066 
L 105.209745 150.680682 
L 105.951954 150.680682 
L 105.951954 142.170738 
L 106.66386 142.170738 
L 106.66386 137.360769 
L 107.347841 137.360769 
L 107.347841 133.502223 
L 108.006005 133.502223 
L 108.006005 129.009395 
L 108.640231 129.009395 
L 108.640231 123.829429 
L 109.252198 123.829429 
L 109.252198 119.389458 
L 109.843417 119.389458 
L 109.843417 114.420919 
L 110.415248 114.420919 
L 110.415248 110.033804 
L 110.968922 110.033804 
L 110.968922 104.695268 
L 111.505558 104.695268 
L 111.505558 102.475282 
L 112.026172 102.475282 
L 112.026172 99.356731 
L 112.531694 99.356731 
L 112.531694 94.75819 
L 113.022974 94.75819 
L 113.022974 92.379634 
L 113.500792 92.379634 
L 113.500792 89.208226 
L 113.965867 89.208226 
L 113.965867 84.18683 
L 114.418861 84.18683 
L 114.418861 80.592568 
L 114.860386 80.592568 
L 114.860386 77.685444 
L 115.291007 77.685444 
L 115.291007 71.81834 
L 115.711251 71.81834 
L 115.711251 68.276934 
L 116.121606 68.276934 
L 116.121606 64.788385 
L 116.522527 64.788385 
L 116.522527 60.242701 
L 116.914437 60.242701 
L 116.914437 56.172727 
L 117.297733 56.172727 
L 117.297733 52.789892 
L 117.672786 52.789892 
L 117.672786 49.03706 
L 118.039942 49.03706 
L 118.039942 45.918509 
L 118.399528 45.918509 
L 118.399528 43.222812 
L 118.751849 43.222812 
L 118.751849 41.478538 
L 119.097192 41.478538 
L 119.097192 38.729984 
L 119.43583 38.729984 
L 119.43583 35.928574 
L 119.768017 35.928574 
L 119.768017 34.607154 
L 120.093994 34.607154 
L 120.093994 33.444304 
L 120.41399 33.444304 
L 120.41399 33.02145 
L 120.728219 33.02145 
L 120.728219 32.228598 
L 121.036887 32.228598 
L 121.036887 31.8586 
L 121.340187 31.8586 
L 121.340187 29.585758 
L 121.638301 29.585758 
L 121.638301 29.110047 
L 121.931406 29.110047 
L 121.931406 28.528622 
L 122.219665 28.528622 
L 122.219665 27.89434 
L 122.503236 27.89434 
L 122.503236 26.995775 
L 122.782271 26.995775 
L 122.782271 26.520064 
L 123.056911 26.520064 
L 123.056911 26.097209 
L 123.327293 26.097209 
L 123.327293 25.621498 
L 123.593547 25.621498 
L 123.593547 25.304357 
L 123.855796 25.304357 
L 123.855796 25.040073 
L 124.114161 25.040073 
L 124.114161 24.775789 
L 124.368753 24.775789 
L 124.368753 24.511505 
L 124.619683 24.511505 
L 124.619683 24.247221 
L 125.110962 24.194365 
L 125.110962 23.824367 
L 125.351508 23.824367 
L 125.351508 23.242942 
L 125.822869 23.190085 
L 125.822869 22.978658 
L 126.50685 22.872945 
L 126.50685 22.608661 
L 126.948374 22.555804 
L 126.948374 22.344377 
L 127.165014 22.344377 
L 127.165014 22.027236 
L 128.209594 21.921522 
L 128.209594 21.868666 
L 130.664567 21.762952 
L 130.664567 21.710095 
L 131.185181 21.657238 
L 131.185181 21.551525 
L 132.816208 21.445811 
L 132.816208 21.287241 
L 133.72629 21.234384 
L 133.72629 21.12867 
L 135.00812 21.075814 
L 135.076644 20.705816 
L 135.144899 20.705816 
L 135.144899 20.494389 
L 135.747468 20.441532 
L 135.747468 20.124391 
L 135.943785 20.124391 
L 135.943785 19.965821 
L 136.769843 19.912964 
L 136.769843 19.542966 
L 137.499118 19.49011 
L 137.499118 19.278682 
L 137.617753 19.278682 
L 137.617753 19.014398 
L 138.084384 18.961542 
L 138.084384 18.010119 
L 138.199116 18.010119 
L 138.199116 17.481551 
L 138.650644 17.375838 
L 138.761723 16.160131 
L 139.090775 16.054418 
L 139.090775 15.842991 
L 139.520072 15.790134 
L 139.625765 15.367279 
L 139.730821 15.367279 
L 139.835248 15.050139 
L 140.042245 15.050139 
L 140.144829 14.098716 
L 140.348205 14.098716 
L 140.348205 13.834432 
L 140.549236 13.834432 
L 140.64889 12.935867 
L 140.846504 12.935867 
L 140.944478 12.195872 
L 141.235139 12.143015 
L 141.33096 11.350163 
L 141.521035 11.350163 
L 141.615302 11.033022 
L 141.987354 10.980165 
L 142.07914 10.504454 
L 142.170445 10.504454 
L 142.261275 10.24017 
L 142.53096 10.24017 
L 142.53096 10.028743 
L 143.230373 9.975886 
L 143.230373 9.658745 
L 150.682827 9.553032 
L 150.682827 9.500175 
L 153.323128 9.394461 
L 153.323128 9.341604 
L 154.484627 9.235891 
L 154.484627 9.183034 
L 157.79107 9.07732 
L 157.79107 9.024464 
L 159.98913 8.91875 
L 159.98913 8.865893 
L 163.696049 8.76018 
L 163.696049 8.707323 
L 164.410075 8.654466 
L 164.486229 8.178755 
L 164.624987 8.073041 
L 164.687696 7.755901 
L 164.787563 7.703044 
L 164.86209 7.544473 
L 164.985598 7.491617 
L 165.083779 6.751621 
L 165.18141 6.645908 
L 165.18141 6.487337 
L 338.688 6.381624 
L 338.688 6.381624 
" style="fill:none;stroke:#000080;stroke-linecap:square;stroke-width:1.5;"/>
   </g>
   <g id="line2d_31">
    <defs>
     <path d="M 0 6 
C 1.591219 6 3.117479 5.367802 4.242641 4.242641 
C 5.367802 3.117479 6 1.591219 6 0 
C 6 -1.591219 5.367802 -3.117479 4.242641 -4.242641 
C 3.117479 -5.367802 1.591219 -6 0 -6 
C -1.591219 -6 -3.117479 -5.367802 -4.242641 -4.242641 
C -5.367802 -3.117479 -6 -1.591219 -6 0 
C -6 1.591219 -5.367802 3.117479 -4.242641 4.242641 
C -3.117479 5.367802 -1.591219 6 0 6 
z
" id="m3882f917ce" style="stroke:#000080;stroke-width:1.5;"/>
    </defs>
    <g>
     <use style="fill-opacity:0;stroke:#000080;stroke-width:1.5;" x="81.775977" xlink:href="#m3882f917ce" y="298.838286"/>
     <use style="fill-opacity:0;stroke:#000080;stroke-width:1.5;" x="110.415248" xlink:href="#m3882f917ce" y="114.420919"/>
     <use style="fill-opacity:0;stroke:#000080;stroke-width:1.5;" x="139.625765" xlink:href="#m3882f917ce" y="15.631563"/>
     <use style="fill-opacity:0;stroke:#000080;stroke-width:1.5;" x="165.838222" xlink:href="#m3882f917ce" y="6.434481"/>
     <use style="fill-opacity:0;stroke:#000080;stroke-width:1.5;" x="165.838222" xlink:href="#m3882f917ce" y="6.381624"/>
     <use style="fill-opacity:0;stroke:#000080;stroke-width:1.5;" x="338.688" xlink:href="#m3882f917ce" y="6.381624"/>
    </g>
   </g>
   <g id="line2d_32">
    <path style="fill:none;stroke:#000080;stroke-linecap:square;stroke-width:1.5;"/>
    <g/>
   </g>
   <g id="line2d_33">
    <defs>
     <path d="M 0 1.5 
C 0.397805 1.5 0.77937 1.341951 1.06066 1.06066 
C 1.341951 0.77937 1.5 0.397805 1.5 0 
C 1.5 -0.397805 1.341951 -0.77937 1.06066 -1.06066 
C 0.77937 -1.341951 0.397805 -1.5 0 -1.5 
C -0.397805 -1.5 -0.77937 -1.341951 -1.06066 -1.06066 
C -1.341951 -0.77937 -1.5 -0.397805 -1.5 0 
C -1.5 0.397805 -1.341951 0.77937 -1.06066 1.06066 
C -0.77937 1.341951 -0.397805 1.5 0 1.5 
z
" id="m848da0d26b" style="stroke:#ff00ff;"/>
    </defs>
    <g>
     <use style="fill:#ff00ff;stroke:#ff00ff;" x="217.919149" xlink:href="#m848da0d26b" y="6.381624"/>
     <use style="fill:#ff00ff;stroke:#ff00ff;" x="217.919149" xlink:href="#m848da0d26b" y="6.381624"/>
    </g>
   </g>
   <g id="line2d_34">
    <path d="M 38.440992 298.944 
L 38.440992 298.838286 
L 88.846997 298.838286 
L 88.846997 297.992578 
L 95.259853 297.992578 
L 95.259853 294.292602 
L 99.938184 294.239745 
L 99.938184 285.782657 
L 101.877879 285.676944 
L 101.877879 285.465517 
L 103.623262 285.465517 
L 103.623262 272.092747 
L 104.434538 272.092747 
L 104.434538 271.828463 
L 105.209745 271.828463 
L 105.209745 271.458465 
L 105.951954 271.458465 
L 105.951954 271.299895 
L 106.66386 271.299895 
L 106.66386 252.377161 
L 107.347841 252.377161 
L 107.347841 252.06002 
L 108.006005 252.007163 
L 108.006005 251.478596 
L 108.640231 251.478596 
L 108.640231 250.844314 
L 109.252198 250.844314 
L 109.252198 231.445869 
L 109.843417 231.445869 
L 109.843417 231.128728 
L 110.415248 231.075872 
L 110.415248 230.335876 
L 110.968922 230.28302 
L 110.968922 229.595881 
L 111.505558 229.595881 
L 111.505558 210.30315 
L 112.026172 210.30315 
L 112.026172 208.98173 
L 112.531694 208.876016 
L 112.531694 208.453162 
L 113.022974 208.453162 
L 113.022974 207.131742 
L 113.500792 207.131742 
L 113.500792 191.961841 
L 113.965867 191.961841 
L 113.965867 190.00614 
L 114.418861 190.00614 
L 114.418861 189.530428 
L 114.860386 189.477572 
L 114.860386 189.054717 
L 115.291007 189.054717 
L 115.291007 180.174775 
L 115.711251 180.174775 
L 115.711251 178.641928 
L 116.121606 178.641928 
L 116.121606 177.690506 
L 116.522527 177.637649 
L 116.522527 177.373365 
L 116.914437 177.373365 
L 116.914437 170.924836 
L 117.297733 170.819122 
L 117.297733 168.440566 
L 117.672786 168.440566 
L 117.672786 167.594857 
L 118.039942 167.594857 
L 118.039942 167.172003 
L 118.399528 167.172003 
L 118.399528 163.842025 
L 118.751849 163.842025 
L 118.751849 162.150607 
L 119.097192 162.150607 
L 119.097192 160.564903 
L 119.43583 160.564903 
L 119.43583 159.45491 
L 119.768017 159.45491 
L 119.768017 157.499209 
L 120.093994 157.499209 
L 120.093994 154.909226 
L 120.41399 154.856369 
L 120.41399 154.169231 
L 120.728219 154.169231 
L 120.728219 153.746376 
L 121.036887 153.746376 
L 121.036887 150.786396 
L 121.340187 150.786396 
L 121.340187 150.099257 
L 121.638301 150.099257 
L 121.638301 148.513553 
L 121.931406 148.513553 
L 121.931406 147.826415 
L 122.219665 147.826415 
L 122.219665 146.663565 
L 122.503236 146.663565 
L 122.503236 145.447859 
L 122.782271 145.447859 
L 122.782271 144.390723 
L 123.056911 144.390723 
L 123.056911 142.752162 
L 123.327293 142.752162 
L 123.327293 141.589313 
L 123.460928 141.589313 
L 123.460928 141.430742 
L 123.593547 141.430742 
L 123.593547 140.690747 
L 123.855796 140.690747 
L 123.855796 139.845038 
L 124.114161 139.845038 
L 124.114161 139.105043 
L 124.368753 139.105043 
L 124.368753 138.312191 
L 124.619683 138.259334 
L 124.619683 136.885058 
L 124.867052 136.885058 
L 124.867052 136.092206 
L 125.110962 136.092206 
L 125.110962 135.510781 
L 125.351508 135.457924 
L 125.351508 135.299354 
L 125.588781 135.299354 
L 125.588781 133.555079 
L 125.822869 133.555079 
L 125.822869 132.973655 
L 126.053856 132.920798 
L 126.053856 132.23366 
L 126.281824 132.23366 
L 126.281824 131.493664 
L 126.50685 131.493664 
L 126.50685 131.22938 
L 126.618283 131.22938 
L 126.729009 130.542242 
L 126.948374 130.542242 
L 126.948374 129.115108 
L 127.165014 129.115108 
L 127.272333 128.745111 
L 127.378995 128.745111 
L 127.48501 128.480827 
L 127.590383 128.480827 
L 127.590383 127.582261 
L 127.799239 127.582261 
L 127.799239 126.94798 
L 128.005624 126.94798 
L 128.005624 126.313698 
L 128.209594 126.313698 
L 128.310692 125.256562 
L 128.411207 125.256562 
L 128.411207 124.939421 
L 128.610515 124.939421 
L 128.709321 124.146569 
L 128.807571 124.146569 
L 128.807571 123.248004 
L 129.002426 123.248004 
L 129.099042 122.455152 
L 129.195127 122.455152 
L 129.195127 121.609443 
L 129.385722 121.609443 
L 129.385722 121.080875 
L 129.574256 121.080875 
L 129.574256 120.869448 
L 129.760775 120.869448 
L 129.760775 120.605164 
L 129.945319 120.605164 
L 129.945319 120.235166 
L 130.127931 120.235166 
L 130.127931 119.442314 
L 130.30865 119.442314 
L 130.30865 118.86089 
L 130.487516 118.86089 
L 130.487516 118.173751 
L 130.664567 118.173751 
L 130.664567 116.905188 
L 130.839837 116.905188 
L 130.839837 116.482334 
L 131.013364 116.482334 
L 131.013364 116.323763 
L 131.185181 116.323763 
L 131.185181 115.900909 
L 131.355321 115.900909 
L 131.355321 115.530911 
L 131.523818 115.530911 
L 131.523818 115.002343 
L 131.690703 115.002343 
L 131.690703 114.156635 
L 131.856005 114.156635 
L 131.856005 113.998064 
L 132.019755 113.998064 
L 132.019755 113.046642 
L 132.181982 113.046642 
L 132.181982 112.676644 
L 132.501978 112.623787 
L 132.501978 112.200933 
L 132.659801 112.200933 
L 132.659801 111.619508 
L 132.816208 111.619508 
L 132.816208 111.196654 
L 133.124876 111.09094 
L 133.124876 110.456659 
L 133.277185 110.456659 
L 133.277185 110.033804 
L 133.428175 110.033804 
L 133.428175 109.875234 
L 133.57787 109.875234 
L 133.652238 109.240952 
L 133.873458 109.240952 
L 133.873458 108.923812 
L 134.019394 108.923812 
L 134.019394 108.553814 
L 134.164119 108.553814 
L 134.236034 108.342387 
L 134.307653 108.342387 
L 134.307653 108.025246 
L 134.450015 108.025246 
L 134.450015 107.708105 
L 134.591225 107.708105 
L 134.591225 107.496678 
L 134.7313 107.496678 
L 134.7313 107.338108 
L 134.870259 107.338108 
L 134.870259 107.126681 
L 135.00812 107.126681 
L 135.00812 106.756683 
L 135.144899 106.756683 
L 135.212889 106.439542 
L 135.280614 106.439542 
L 135.280614 106.016688 
L 135.415281 106.016688 
L 135.415281 105.382406 
L 135.548916 105.382406 
L 135.548916 105.170979 
L 135.681535 105.170979 
L 135.681535 104.378127 
L 135.813153 104.378127 
L 135.813153 103.955273 
L 136.202149 103.902416 
L 136.266147 103.426705 
L 136.32991 103.426705 
L 136.32991 102.792423 
L 136.456742 102.792423 
L 136.456742 102.369569 
L 136.707671 102.369569 
L 136.707671 101.36529 
L 136.831795 101.36529 
L 136.831795 101.206719 
L 136.955041 101.206719 
L 136.955041 100.308154 
L 137.077422 100.308154 
L 137.077422 100.04387 
L 137.198951 100.04387 
L 137.259399 99.515302 
L 137.319638 99.515302 
L 137.319638 99.145304 
L 137.558536 99.092447 
L 137.558536 98.775306 
L 137.676769 98.775306 
L 137.676769 98.035311 
L 137.794206 98.035311 
L 137.794206 97.295316 
L 138.026733 97.189603 
L 138.026733 97.083889 
L 138.141844 97.083889 
L 138.141844 96.608178 
L 138.256201 96.608178 
L 138.313099 95.973896 
L 138.369812 95.973896 
L 138.426341 95.128187 
L 138.482688 95.128187 
L 138.482688 94.75819 
L 138.706272 94.75819 
L 138.816998 93.43677 
L 138.927025 93.43677 
L 138.927025 93.119629 
L 139.145019 93.119629 
L 139.253002 92.749631 
L 139.360321 92.749631 
L 139.466984 92.326777 
L 139.678372 92.221064 
L 139.783113 91.586782 
L 139.887228 91.586782 
L 139.990725 90.9525 
L 140.195896 90.846787 
L 140.297583 90.212505 
L 140.39868 90.212505 
L 140.499195 89.948221 
L 140.599134 89.948221 
L 140.599134 89.789651 
L 140.79731 89.789651 
L 140.79731 89.47251 
L 141.090414 89.366796 
L 141.187031 89.102512 
L 141.378673 89.049656 
L 141.47371 88.838228 
L 141.568232 88.838228 
L 141.568232 88.203947 
L 141.755753 88.203947 
L 141.848763 87.411095 
L 141.941279 87.411095 
L 142.033307 86.988241 
L 142.124852 86.988241 
L 142.215919 86.089675 
L 142.396639 85.983961 
L 142.486301 85.50825 
L 142.575505 85.455393 
L 142.664255 85.191109 
L 142.752555 85.191109 
L 142.840411 84.979682 
L 142.927826 84.926825 
L 143.014805 84.398257 
L 143.273169 84.398257 
L 143.273169 83.869689 
L 143.527762 83.869689 
L 143.611807 82.86541 
L 143.778691 82.86541 
L 143.861538 82.54827 
L 143.943994 82.54827 
L 144.026061 82.178272 
L 144.189046 82.072558 
L 144.269971 81.702561 
L 144.350522 81.649704 
L 144.430703 81.279706 
L 144.510517 81.279706 
L 144.589967 80.011143 
L 144.826168 79.958286 
L 144.904196 78.58401 
L 144.981877 78.478296 
L 145.059213 78.055442 
L 145.212864 77.949728 
L 145.289185 77.526874 
L 145.440832 77.42116 
L 145.516164 76.681165 
L 145.665858 76.628308 
L 145.740226 75.729743 
L 145.814278 75.729743 
L 145.888018 75.042604 
L 146.034567 74.989747 
L 146.107383 73.668327 
L 146.395642 73.615471 
L 146.466968 72.611191 
L 146.538004 72.611191 
L 146.608752 72.399764 
L 146.819289 72.399764 
L 146.888907 71.924053 
L 146.958248 71.924053 
L 146.958248 71.659769 
L 147.164632 71.659769 
L 147.232888 70.919774 
L 147.300877 70.919774 
L 147.368603 70.602633 
L 147.436066 70.602633 
L 147.50327 70.021208 
L 147.570215 70.021208 
L 147.570215 69.545497 
L 147.769524 69.49264 
L 147.835457 68.224077 
L 147.901141 68.224077 
L 147.96658 67.642652 
L 148.161434 67.589796 
L 148.161434 66.849801 
L 148.290138 66.849801 
L 148.290138 66.585517 
L 148.513109 66.53266 
L 148.54473 66.056949 
L 148.670646 66.056949 
L 148.733265 65.158383 
L 148.857832 65.105526 
L 148.857832 64.999813 
L 149.104327 64.894099 
L 149.165411 63.995533 
L 149.347388 63.88982 
L 149.407627 63.678393 
L 149.467659 63.678393 
L 149.467659 63.519822 
L 149.764758 63.466965 
L 149.823575 62.885541 
L 149.882194 62.885541 
L 149.940618 62.304116 
L 150.114722 62.304116 
L 150.172372 61.775548 
L 150.401087 61.669834 
L 150.401087 61.564121 
L 150.626842 61.511264 
L 150.626842 61.299837 
L 150.79426 61.24698 
L 150.904986 60.559842 
L 150.960087 60.559842 
L 151.069768 59.714133 
L 151.124351 59.714133 
L 151.233007 59.132708 
L 151.287083 59.132708 
L 151.394733 58.551283 
L 151.528368 58.44557 
L 151.60806 57.335577 
L 151.660987 57.335577 
L 151.76636 56.859866 
L 151.871101 56.807009 
L 151.975216 56.542725 
L 152.027042 56.542725 
L 152.078714 55.749873 
L 152.334802 55.644159 
L 152.436193 55.379875 
L 152.486669 55.379875 
L 152.587184 55.115591 
L 152.736878 55.009878 
L 152.736878 54.957021 
L 152.934492 54.851307 
L 153.032466 54.692737 
L 153.129893 54.692737 
L 153.129893 54.48131 
L 153.250915 54.48131 
L 153.323128 53.688458 
L 153.371104 53.688458 
L 153.418948 53.31846 
L 153.561699 53.31846 
L 153.609024 53.054176 
L 153.843742 52.948463 
L 153.936752 52.419895 
L 154.121296 52.314181 
L 154.212841 51.785613 
L 154.394502 51.785613 
L 154.484627 50.992761 
L 154.663493 50.887048 
L 154.752243 50.569907 
L 154.928399 50.51705 
L 154.972161 50.252766 
L 155.102793 50.252766 
L 155.146121 49.882768 
L 155.531298 49.777055 
L 155.531298 49.618484 
L 155.699795 49.618484 
L 155.741666 49.301344 
L 155.86668 49.301344 
L 155.949527 48.614205 
L 156.031982 48.561348 
L 156.114049 48.191351 
L 156.154939 48.191351 
L 156.195732 47.87421 
L 156.398281 47.821353 
L 156.43851 47.398499 
L 156.598505 47.398499 
L 156.598505 47.028501 
L 156.757045 46.922788 
L 156.835778 46.499933 
L 156.914157 46.39422 
L 156.992185 46.182793 
L 157.031069 46.182793 
L 157.108577 45.548511 
L 157.185742 45.548511 
L 157.224197 45.019943 
L 157.339055 45.019943 
L 157.339055 44.755659 
L 157.716543 44.755659 
L 157.716543 44.385661 
L 157.902267 44.279948 
L 157.902267 44.068521 
L 158.304027 43.962807 
L 158.39406 43.539953 
L 158.447857 43.539953 
L 158.554957 42.905671 
L 158.732007 42.799957 
L 158.83738 42.42996 
L 158.907277 42.377103 
L 159.0116 41.425681 
L 159.046236 41.425681 
L 159.080804 40.791399 
L 159.252621 40.738542 
L 159.320876 40.474258 
L 159.388866 40.474258 
L 159.490356 39.839977 
L 159.524055 39.839977 
L 159.524055 39.62855 
L 159.791329 39.575693 
L 159.791329 39.311409 
L 159.956318 39.258552 
L 160.054568 38.888554 
L 160.152267 38.835698 
L 160.184713 38.518557 
L 160.313893 38.412843 
L 160.410154 38.148559 
L 160.789972 38.042846 
L 160.86807 37.672848 
L 160.914762 37.672848 
L 161.007772 37.302851 
L 161.161694 37.197137 
L 161.161694 37.14428 
L 161.405178 37.091423 
L 161.495615 36.668569 
L 161.615474 36.615712 
L 161.64531 36.404285 
L 161.79373 36.404285 
L 161.88218 36.140001 
L 161.911563 36.140001 
L 161.999419 35.558576 
L 162.086834 35.505719 
L 162.173813 34.818581 
L 162.20271 34.818581 
L 162.20271 34.554297 
L 162.317821 34.554297 
L 162.332157 34.025729 
L 162.432178 34.025729 
L 162.531628 33.232877 
L 162.574077 33.232877 
L 162.630514 32.757166 
L 162.68677 32.757166 
L 162.742845 32.017171 
L 162.882249 31.911457 
L 162.909996 31.330032 
L 163.020547 31.330032 
L 163.020547 31.065748 
L 163.157756 31.065748 
L 163.157756 30.907178 
L 163.348054 30.801464 
L 163.428979 30.642894 
L 163.482721 30.642894 
L 163.50953 30.431467 
L 163.616356 30.431467 
L 163.722532 29.427188 
L 163.828065 29.321474 
L 163.880593 29.110047 
L 163.985177 29.110047 
L 164.011225 28.89862 
L 164.269589 28.845763 
L 164.320806 28.581479 
L 164.549438 28.475765 
L 164.549438 28.370052 
L 164.824867 28.317195 
L 164.824867 28.211481 
L 164.997901 28.211481 
L 165.096013 27.260059 
L 165.266391 27.260059 
L 165.266391 26.995775 
L 165.411116 26.995775 
L 165.506937 26.467207 
L 165.578458 26.467207 
L 165.625977 26.202923 
L 165.920069 26.097209 
L 166.02474 25.938639 
L 166.140309 25.938639 
L 166.140309 25.780069 
L 166.994465 25.727212 
L 166.994465 25.145787 
L 167.341959 25.145787 
L 167.427761 24.93436 
L 168.476198 24.881503 
L 168.586669 24.194365 
L 169.804532 24.088651 
L 169.804532 24.035794 
L 170.100748 24.035794 
L 170.100748 23.824367 
L 170.607318 23.77151 
L 170.607318 23.665797 
L 170.802371 23.61294 
L 170.872762 23.190085 
L 171.374771 23.084372 
L 171.459882 22.397234 
L 171.54458 22.397234 
L 171.628868 21.974379 
L 171.945501 21.868666 
L 171.962007 21.762952 
L 172.673253 21.657238 
L 172.673253 21.392954 
L 172.924861 21.392954 
L 172.9872 21.075814 
L 173.310873 20.9701 
L 173.310873 20.282962 
L 173.881719 20.177248 
L 173.896491 19.965821 
L 174.203864 19.912964 
L 174.276256 19.384396 
L 174.319548 19.384396 
L 174.319548 19.225826 
L 174.520166 19.225826 
L 174.520166 19.014398 
L 175.046437 18.908685 
L 175.122305 18.802971 
L 175.490035 18.697258 
L 175.503506 18.062976 
L 175.704345 17.957262 
L 175.797284 17.481551 
L 176.241787 17.375838 
L 176.241787 17.322981 
L 176.504422 17.217267 
L 176.504422 17.164411 
L 176.769424 17.058697 
L 176.838169 16.635843 
L 176.93768 16.530129 
L 176.93768 16.054418 
L 177.098184 16.054418 
L 177.098184 15.895847 
L 177.232851 15.895847 
L 177.293721 15.472993 
L 177.48709 15.367279 
L 177.559054 15.102995 
L 177.678338 14.997282 
L 177.785001 14.680141 
L 177.879268 14.627284 
L 177.973027 14.415857 
L 179.812776 14.310143 
L 179.917643 14.151573 
L 180.402242 14.098716 
L 180.453011 13.887289 
L 180.654624 13.887289 
L 180.694668 13.675862 
L 181.011755 13.570148 
L 181.080356 13.464435 
L 181.284554 13.411578 
L 181.390568 13.094437 
L 181.751918 12.988723 
L 181.751918 12.935867 
L 181.976341 12.88301 
L 182.078244 12.671583 
L 182.344078 12.618726 
L 182.344078 12.513012 
L 182.470975 12.513012 
L 182.561055 12.195872 
L 182.596956 12.195872 
L 182.632784 11.931588 
L 184.393075 11.825874 
L 184.48987 11.72016 
L 184.903218 11.614447 
L 184.973775 11.085879 
L 185.214642 11.033022 
L 185.214642 10.927308 
L 185.368293 10.927308 
L 185.372117 10.293027 
L 185.490246 10.293027 
L 185.490246 10.134456 
L 186.834642 10.028743 
L 186.834642 9.975886 
L 192.203158 9.870172 
L 192.306227 9.024464 
L 202.655862 8.971607 
L 202.655862 8.76018 
L 214.102054 8.654466 
L 214.118243 8.443039 
L 217.752742 8.443039 
L 217.840898 7.333046 
L 217.896658 7.333046 
L 217.919149 6.381624 
L 338.688 6.381624 
L 338.688 6.381624 
" style="fill:none;stroke:#ff00ff;stroke-linecap:square;stroke-width:1.5;"/>
   </g>
   <g id="line2d_35">
    <defs>
     <path d="M -0 8.485281 
L 5.091169 0 
L 0 -8.485281 
L -5.091169 -0 
z
" id="me2c13c45cd" style="stroke:#ff00ff;stroke-linejoin:miter;stroke-width:1.5;"/>
    </defs>
    <g>
     <use style="fill-opacity:0;stroke:#ff00ff;stroke-linejoin:miter;stroke-width:1.5;" x="108.640231" xlink:href="#me2c13c45cd" y="250.844314"/>
     <use style="fill-opacity:0;stroke:#ff00ff;stroke-linejoin:miter;stroke-width:1.5;" x="123.056911" xlink:href="#me2c13c45cd" y="144.390723"/>
     <use style="fill-opacity:0;stroke:#ff00ff;stroke-linejoin:miter;stroke-width:1.5;" x="185.490246" xlink:href="#me2c13c45cd" y="10.134456"/>
     <use style="fill-opacity:0;stroke:#ff00ff;stroke-linejoin:miter;stroke-width:1.5;" x="217.919149" xlink:href="#me2c13c45cd" y="6.381624"/>
     <use style="fill-opacity:0;stroke:#ff00ff;stroke-linejoin:miter;stroke-width:1.5;" x="217.919149" xlink:href="#me2c13c45cd" y="6.381624"/>
     <use style="fill-opacity:0;stroke:#ff00ff;stroke-linejoin:miter;stroke-width:1.5;" x="338.688" xlink:href="#me2c13c45cd" y="6.381624"/>
    </g>
   </g>
   <g id="line2d_36">
    <path style="fill:none;stroke:#ff00ff;stroke-linecap:square;stroke-width:1.5;"/>
    <g/>
   </g>
   <g id="line2d_37">
    <defs>
     <path d="M 0 1.5 
C 0.397805 1.5 0.77937 1.341951 1.06066 1.06066 
C 1.341951 0.77937 1.5 0.397805 1.5 0 
C 1.5 -0.397805 1.341951 -0.77937 1.06066 -1.06066 
C 0.77937 -1.341951 0.397805 -1.5 0 -1.5 
C -0.397805 -1.5 -0.77937 -1.341951 -1.06066 -1.06066 
C -1.341951 -0.77937 -1.5 -0.397805 -1.5 0 
C -1.5 0.397805 -1.341951 0.77937 -1.06066 1.06066 
C -0.77937 1.341951 -0.397805 1.5 0 1.5 
z
" id="m92272d1c70" style="stroke:#ff7500;"/>
    </defs>
    <g>
     <use style="fill:#ff7500;stroke:#ff7500;" x="196.872973" xlink:href="#m92272d1c70" y="6.381624"/>
     <use style="fill:#ff7500;stroke:#ff7500;" x="196.872973" xlink:href="#m92272d1c70" y="6.381624"/>
    </g>
   </g>
   <g id="line2d_38">
    <path d="M 38.440992 298.944 
L 38.440992 298.838286 
L 83.171864 298.838286 
L 83.171864 214.161696 
L 85.66744 214.161696 
L 85.66744 212.523135 
L 87.850195 212.417422 
L 87.850195 212.047424 
L 92.34655 212.047424 
L 92.34655 195.291819 
L 93.863965 195.291819 
L 93.863965 194.657538 
L 95.259853 194.604681 
L 95.259853 194.234683 
L 98.32726 194.181827 
L 98.32726 182.659045 
L 99.41757 182.659045 
L 99.41757 181.971906 
L 100.443706 181.91905 
L 100.443706 181.654766 
L 102.330873 181.549052 
L 102.330873 181.443338 
L 102.772397 181.443338 
L 102.772397 165.480585 
L 103.623262 165.480585 
L 103.623262 163.842025 
L 104.434538 163.842025 
L 104.434538 163.577741 
L 106.311539 163.577741 
L 106.311539 157.023498 
L 107.009204 157.023498 
L 107.009204 153.376379 
L 107.347841 153.376379 
L 107.347841 153.217808 
L 107.680028 153.217808 
L 107.680028 152.636383 
L 108.006005 152.636383 
L 108.006005 151.949245 
L 108.948899 151.949245 
L 108.948899 151.632104 
L 109.252198 151.632104 
L 109.252198 147.879272 
L 109.843417 147.879272 
L 109.843417 146.082141 
L 110.415248 146.082141 
L 110.415248 145.342145 
L 110.694282 145.342145 
L 110.694282 144.972148 
L 110.968922 144.972148 
L 110.968922 144.760721 
L 111.767808 144.760721 
L 111.767808 141.95931 
L 112.280765 141.95931 
L 112.280765 138.893616 
L 112.779064 138.893616 
L 112.779064 137.202199 
L 113.26352 137.149342 
L 113.26352 137.043628 
L 113.965867 137.043628 
L 113.965867 135.457924 
L 114.418861 135.457924 
L 114.418861 131.757948 
L 114.860386 131.757948 
L 114.860386 130.119388 
L 115.291007 130.066531 
L 115.291007 129.802247 
L 115.711251 129.802247 
L 115.711251 129.326536 
L 115.917635 129.326536 
L 115.917635 126.525125 
L 116.323218 126.525125 
L 116.323218 123.512288 
L 116.522527 123.512288 
L 116.522527 123.14229 
L 116.719583 123.14229 
L 116.719583 121.50373 
L 117.107138 121.50373 
L 117.107138 121.133732 
L 117.672786 121.028018 
L 117.672786 119.812312 
L 118.039942 119.812312 
L 118.039942 115.0552 
L 118.399528 115.0552 
L 118.399528 112.940928 
L 118.751849 112.835215 
L 118.751849 111.09094 
L 119.097192 111.09094 
L 119.097192 109.716664 
L 119.267333 109.716664 
L 119.267333 107.866676 
L 119.43583 107.866676 
L 119.43583 107.496678 
L 119.602714 107.496678 
L 119.602714 106.492399 
L 119.768017 106.492399 
L 119.768017 106.122401 
L 119.931767 106.122401 
L 119.931767 102.528139 
L 120.254726 102.528139 
L 120.254726 101.36529 
L 120.571812 101.36529 
L 120.571812 101.153862 
L 120.728219 101.153862 
L 120.728219 100.466724 
L 121.036887 100.466724 
L 121.036887 98.88102 
L 121.340187 98.88102 
L 121.340187 97.136746 
L 121.489881 97.136746 
L 121.489881 96.872462 
L 121.638301 96.872462 
L 121.638301 95.973896 
L 121.931406 95.921039 
L 121.931406 95.022474 
L 122.076131 95.022474 
L 122.076131 94.652476 
L 122.219665 94.652476 
L 122.219665 94.441049 
L 122.362027 94.441049 
L 122.362027 94.018195 
L 122.503236 94.018195 
L 122.503236 93.806767 
L 122.920132 93.753911 
L 122.920132 93.066772 
L 123.192626 93.066772 
L 123.192626 91.745352 
L 123.327293 91.745352 
L 123.327293 91.586782 
L 123.460928 91.586782 
L 123.460928 91.428212 
L 123.593547 91.428212 
L 123.593547 90.529646 
L 123.855796 90.529646 
L 123.855796 90.265362 
L 124.114161 90.265362 
L 124.114161 89.049656 
L 124.619683 88.996799 
L 124.619683 88.732515 
L 124.867052 88.626801 
L 124.867052 87.939663 
L 124.989434 87.939663 
L 124.989434 87.569665 
L 125.110962 87.569665 
L 125.110962 87.358238 
L 125.23165 87.358238 
L 125.23165 86.618243 
L 125.351508 86.618243 
L 125.351508 86.459673 
L 125.706218 86.353959 
L 125.706218 85.455393 
L 125.822869 85.455393 
L 125.822869 85.032539 
L 126.053856 85.032539 
L 126.053856 84.873969 
L 126.168212 84.873969 
L 126.168212 84.715398 
L 126.3947 84.715398 
L 126.3947 84.503971 
L 126.50685 84.503971 
L 126.50685 84.081117 
L 126.618283 84.081117 
L 126.729009 83.182551 
L 127.165014 83.129694 
L 127.165014 82.653983 
L 127.590383 82.653983 
L 127.695124 81.966845 
L 127.799239 81.966845 
L 127.799239 81.38542 
L 128.107907 81.332563 
L 128.107907 81.22685 
L 128.310692 81.22685 
L 128.411207 80.909709 
L 128.511146 80.909709 
L 128.511146 80.645425 
L 128.709321 80.645425 
L 128.807571 80.275427 
L 129.002426 80.275427 
L 129.099042 79.852573 
L 129.195127 79.852573 
L 129.290685 79.112578 
L 129.574256 79.006864 
L 129.574256 78.954007 
L 129.853291 78.848294 
L 129.945319 78.478296 
L 130.036864 78.478296 
L 130.036864 78.161155 
L 130.398313 78.161155 
L 130.487516 77.57973 
L 130.576266 77.57973 
L 130.664567 77.104019 
L 130.839837 77.104019 
L 130.839837 76.945449 
L 131.270459 76.945449 
L 131.270459 76.681165 
L 131.60746 76.575451 
L 131.60746 75.94117 
L 132.019755 75.835456 
L 132.019755 75.782599 
L 132.422528 75.676886 
L 132.422528 75.571172 
L 133.04822 75.518315 
L 133.124876 74.884034 
L 133.352844 74.884034 
L 133.428175 74.196895 
L 133.72629 74.144039 
L 133.72629 73.932611 
L 134.091907 73.879755 
L 134.091907 73.4569 
L 134.236034 73.4569 
L 134.307653 72.928332 
L 134.37898 72.928332 
L 134.37898 72.716905 
L 134.7313 72.716905 
L 134.7313 71.871196 
L 134.870259 71.871196 
L 134.870259 71.659769 
L 135.00812 71.659769 
L 135.076644 71.448342 
L 135.681535 71.342628 
L 135.681535 71.025488 
L 135.878591 70.919774 
L 135.878591 70.65549 
L 136.073445 70.65549 
L 136.073445 70.179779 
L 136.393441 70.179779 
L 136.456742 69.704068 
L 136.645276 69.651211 
L 136.645276 69.386927 
L 136.893527 69.386927 
L 136.893527 69.228356 
L 137.016339 69.228356 
L 137.077422 68.435504 
L 137.198951 68.435504 
L 137.198951 68.276934 
L 137.558536 68.224077 
L 137.558536 67.85408 
L 137.735587 67.85408 
L 137.735587 67.431225 
L 137.852629 67.431225 
L 137.852629 67.166941 
L 138.199116 67.061228 
L 138.256201 66.849801 
L 138.369812 66.849801 
L 138.369812 66.638373 
L 138.482688 66.638373 
L 138.482688 66.479803 
L 138.706272 66.426946 
L 138.816998 65.845521 
L 138.872098 65.845521 
L 138.981779 65.528381 
L 139.145019 65.528381 
L 139.253002 64.471245 
L 139.360321 64.471245 
L 139.360321 63.942677 
L 139.835248 63.836963 
L 139.939053 63.466965 
L 140.144829 63.466965 
L 140.144829 62.938397 
L 140.599134 62.885541 
L 140.64889 62.40983 
L 140.747977 62.40983 
L 140.846504 61.722691 
L 141.041904 61.722691 
L 141.138789 61.141266 
L 141.187031 61.141266 
L 141.283115 60.665555 
L 141.568232 60.612698 
L 141.662245 59.132708 
L 141.80232 59.079851 
L 141.895083 58.656997 
L 141.987354 58.656997 
L 142.07914 57.758431 
L 142.215919 57.652718 
L 142.215919 57.388434 
L 142.396639 57.388434 
L 142.441528 56.489868 
L 142.575505 56.384155 
L 142.664255 55.168448 
L 142.840411 55.168448 
L 142.840411 54.904164 
L 142.971369 54.904164 
L 143.058132 54.322739 
L 143.273169 54.322739 
L 143.358447 54.058455 
L 143.737119 54.058455 
L 143.737119 53.741315 
L 143.861538 53.741315 
L 143.861538 53.582744 
L 144.229555 53.477031 
L 144.310293 53.371317 
L 144.904196 53.265603 
L 144.904196 53.212747 
L 145.251067 53.212747 
L 145.251067 53.001319 
L 145.591172 53.001319 
L 145.591172 52.472752 
L 145.814278 52.472752 
L 145.924771 51.732756 
L 146.252108 51.732756 
L 146.252108 51.045618 
L 146.644018 50.939904 
L 146.714338 50.35848 
L 147.570215 50.252766 
L 147.636905 49.671341 
L 147.86833 49.671341 
L 147.86833 49.407057 
L 148.064279 49.407057 
L 148.161434 48.825632 
L 148.449693 48.772776 
L 148.449693 48.349921 
L 148.639252 48.244208 
L 148.733265 47.87421 
L 148.857832 47.768496 
L 148.857832 47.609926 
L 149.012299 47.609926 
L 149.104327 46.658504 
L 149.286939 46.55279 
L 149.347388 46.235649 
L 150.027887 46.129936 
L 150.027887 45.654225 
L 150.229833 45.654225 
L 150.31567 44.861373 
L 150.457801 44.861373 
L 150.457801 44.597089 
L 150.626842 44.544232 
L 150.710752 44.174234 
L 150.822008 44.174234 
L 150.849711 43.592809 
L 151.097081 43.539953 
L 151.205907 42.958528 
L 151.314058 42.958528 
L 151.314058 42.799957 
L 151.44831 42.799957 
L 151.528368 42.27139 
L 151.660987 42.27139 
L 151.68739 41.742822 
L 152.181601 41.689965 
L 152.181601 41.319967 
L 152.309362 41.319967 
L 152.410901 41.055683 
L 152.536999 41.002826 
L 152.637225 40.421402 
L 152.983548 40.315688 
L 152.983548 40.262831 
L 153.202607 40.262831 
L 153.226778 39.998547 
L 153.418948 39.998547 
L 153.418948 39.839977 
L 153.679772 39.734263 
L 153.679772 39.681406 
L 153.890309 39.681406 
L 153.890309 39.522836 
L 154.075343 39.469979 
L 154.144227 38.835698 
L 154.57429 38.782841 
L 154.641235 38.518557 
L 154.707925 38.518557 
L 154.81851 38.254273 
L 154.884527 38.254273 
L 154.972161 37.725705 
L 155.425155 37.725705 
L 155.425155 37.461421 
L 155.6368 37.355707 
L 155.741666 36.774283 
L 155.804285 36.721426 
L 155.825108 36.404285 
L 156.175347 36.404285 
L 156.175347 36.140001 
L 156.357959 36.140001 
L 156.418408 35.347149 
L 156.538679 35.347149 
L 156.558644 34.924295 
L 156.658127 34.924295 
L 156.717545 34.34287 
L 156.776762 34.34287 
L 156.835778 33.920015 
L 157.011638 33.814302 
L 157.108577 33.444304 
L 157.566527 33.338591 
L 157.641697 32.651452 
L 157.957601 32.545739 
L 158.031107 32.070028 
L 158.140788 32.070028 
L 158.177196 31.54146 
L 158.267884 31.54146 
L 158.340096 30.854321 
L 158.465753 30.854321 
L 158.554957 29.532901 
L 158.661402 29.532901 
L 158.67908 29.21576 
L 159.0116 29.162904 
L 159.098062 28.528622 
L 159.166924 28.528622 
L 159.166924 28.264338 
L 159.320876 28.264338 
L 159.320876 27.947197 
L 159.473482 27.947197 
L 159.557689 27.471486 
L 159.741526 27.471486 
L 159.791329 26.572921 
L 159.93989 26.572921 
L 160.005512 26.308637 
L 160.168498 26.308637 
L 160.168498 26.150066 
L 160.489968 26.097209 
L 160.505887 25.515785 
L 160.774311 25.462928 
L 160.836873 25.040073 
L 160.914762 25.040073 
L 160.961329 24.458649 
L 161.268637 24.458649 
L 161.374928 24.088651 
L 161.405178 24.088651 
L 161.495615 23.61294 
L 161.675095 23.560083 
L 161.675095 23.242942 
L 161.808503 23.242942 
L 161.808503 22.978658 
L 164.448194 22.978658 
L 164.448194 22.820088 
L 164.899235 22.820088 
L 165.010195 22.185806 
L 165.230021 22.080093 
L 165.338904 20.758673 
L 165.483031 20.705816 
L 165.483031 20.547246 
L 166.140309 20.441532 
L 166.140309 20.177248 
L 166.516342 20.071534 
L 166.595075 19.860107 
L 166.917519 19.754394 
L 166.950537 19.384396 
L 167.212459 19.384396 
L 167.212459 18.538687 
L 167.470505 18.538687 
L 167.566296 18.32726 
L 167.661564 18.32726 
L 167.661564 18.010119 
L 168.202038 18.010119 
L 168.293904 17.745835 
L 169.321786 17.640122 
L 169.407953 17.058697 
L 169.86976 16.952983 
L 169.953269 16.530129 
L 170.036379 16.530129 
L 170.036379 16.160131 
L 170.319654 16.054418 
L 170.319654 15.68442 
L 171.586775 15.68442 
L 171.586775 15.367279 
L 172.027878 15.314423 
L 172.109868 14.997282 
L 172.183331 14.997282 
L 172.183331 14.838711 
L 172.345483 14.732998 
L 172.417962 14.415857 
L 172.562023 14.415857 
L 172.562023 13.993003 
L 173.341388 13.993003 
L 173.356625 13.305864 
L 173.523365 13.200151 
L 173.613646 12.143015 
L 173.844732 12.143015 
L 173.933369 11.667304 
L 174.058171 11.667304 
L 174.123884 10.927308 
L 174.384284 10.821595 
L 174.384284 10.715881 
L 175.218389 10.663024 
L 175.279879 10.293027 
L 175.46306 10.187313 
L 175.537141 9.923029 
L 175.684365 9.817316 
L 175.757513 9.235891 
L 175.863367 9.235891 
L 175.922628 8.601609 
L 176.267585 8.548752 
L 176.267585 8.390182 
L 178.83947 8.337325 
L 178.950337 7.59733 
L 182.207084 7.544473 
L 182.207084 7.43876 
L 185.260879 7.385903 
L 185.260879 7.174476 
L 190.960793 7.068762 
L 190.960793 6.963049 
L 195.785916 6.910192 
L 195.785916 6.804478 
L 196.779795 6.751621 
L 196.872973 6.381624 
L 338.688 6.381624 
L 338.688 6.381624 
" style="fill:none;stroke:#ff7500;stroke-linecap:square;stroke-width:1.5;"/>
   </g>
   <g id="line2d_39">
    <defs>
     <path d="M 0 -6 
L -1.347084 -1.854102 
L -5.706339 -1.854102 
L -2.179628 0.708204 
L -3.526712 4.854102 
L -0 2.291796 
L 3.526712 4.854102 
L 2.179628 0.708204 
L 5.706339 -1.854102 
L 1.347084 -1.854102 
z
" id="m4571d52039" style="stroke:#ff7500;stroke-linejoin:bevel;stroke-width:1.5;"/>
    </defs>
    <g>
     <use style="fill-opacity:0;stroke:#ff7500;stroke-linejoin:bevel;stroke-width:1.5;" x="111.767808" xlink:href="#m4571d52039" y="141.95931"/>
     <use style="fill-opacity:0;stroke:#ff7500;stroke-linejoin:bevel;stroke-width:1.5;" x="161.540659" xlink:href="#m4571d52039" y="23.560083"/>
     <use style="fill-opacity:0;stroke:#ff7500;stroke-linejoin:bevel;stroke-width:1.5;" x="196.872973" xlink:href="#m4571d52039" y="6.434481"/>
     <use style="fill-opacity:0;stroke:#ff7500;stroke-linejoin:bevel;stroke-width:1.5;" x="196.872973" xlink:href="#m4571d52039" y="6.381624"/>
     <use style="fill-opacity:0;stroke:#ff7500;stroke-linejoin:bevel;stroke-width:1.5;" x="196.872973" xlink:href="#m4571d52039" y="6.381624"/>
     <use style="fill-opacity:0;stroke:#ff7500;stroke-linejoin:bevel;stroke-width:1.5;" x="338.688" xlink:href="#m4571d52039" y="6.381624"/>
    </g>
   </g>
   <g id="line2d_40">
    <path style="fill:none;stroke:#ff7500;stroke-linecap:square;stroke-width:1.5;"/>
    <g/>
   </g>
   <g id="line2d_41">
    <path d="M 338.688 6.381624 
L 369.60768 293.092752 
" style="fill:none;stroke:#ff00ff;stroke-linecap:square;stroke-width:1.5;"/>
    <g>
     <use style="fill-opacity:0;stroke:#ff00ff;stroke-linejoin:miter;stroke-width:1.5;" x="338.688" xlink:href="#me2c13c45cd" y="6.381624"/>
     <use style="fill-opacity:0;stroke:#ff00ff;stroke-linejoin:miter;stroke-width:1.5;" x="369.60768" xlink:href="#me2c13c45cd" y="293.092752"/>
    </g>
   </g>
   <g id="line2d_42">
    <path d="M 338.688 6.381624 
L 369.60768 152.662812 
" style="fill:none;stroke:#ff7500;stroke-linecap:square;stroke-width:1.5;"/>
    <g>
     <use style="fill-opacity:0;stroke:#ff7500;stroke-linejoin:bevel;stroke-width:1.5;" x="338.688" xlink:href="#m4571d52039" y="6.381624"/>
     <use style="fill-opacity:0;stroke:#ff7500;stroke-linejoin:bevel;stroke-width:1.5;" x="369.60768" xlink:href="#m4571d52039" y="152.662812"/>
    </g>
   </g>
   <g id="line2d_43">
    <path d="M 338.688 6.381624 
L 369.60768 12.232871 
" style="fill:none;stroke:#000080;stroke-linecap:square;stroke-width:1.5;"/>
    <g>
     <use style="fill-opacity:0;stroke:#000080;stroke-width:1.5;" x="338.688" xlink:href="#m3882f917ce" y="6.381624"/>
     <use style="fill-opacity:0;stroke:#000080;stroke-width:1.5;" x="369.60768" xlink:href="#m3882f917ce" y="12.232871"/>
    </g>
   </g>
   <g id="line2d_44">
    <path d="M 338.688 298.944 
L 338.688 6.381624 
" style="fill:none;stroke:#000000;stroke-linecap:square;stroke-width:1.5;"/>
   </g>
   <g id="patch_3">
    <path d="M 57.6 298.944 
L 57.6 3.456 
" style="fill:none;stroke:#000000;stroke-linecap:square;stroke-linejoin:miter;stroke-width:0.8;"/>
   </g>
   <g id="patch_4">
    <path d="M 338.688 298.944 
L 338.688 3.456 
" style="fill:none;stroke:#000000;stroke-linecap:square;stroke-linejoin:miter;stroke-width:0.8;"/>
   </g>
   <g id="patch_5">
    <path d="M 57.6 298.944 
L 338.688 298.944 
" style="fill:none;stroke:#000000;stroke-linecap:square;stroke-linejoin:miter;stroke-width:0.8;"/>
   </g>
   <g id="patch_6">
    <path d="M 57.6 3.456 
L 338.688 3.456 
" style="fill:none;stroke:#000000;stroke-linecap:square;stroke-linejoin:miter;stroke-width:0.8;"/>
   </g>
   <g id="text_13">
    <!-- fmincon -->
    <g transform="translate(375.22944 297.78369)scale(0.17 -0.17)">
     <use xlink:href="#DejaVuSans-102"/>
     <use x="35.205078" xlink:href="#DejaVuSans-109"/>
     <use x="132.617188" xlink:href="#DejaVuSans-105"/>
     <use x="160.400391" xlink:href="#DejaVuSans-110"/>
     <use x="223.779297" xlink:href="#DejaVuSans-99"/>
     <use x="278.759766" xlink:href="#DejaVuSans-111"/>
     <use x="339.941406" xlink:href="#DejaVuSans-110"/>
    </g>
   </g>
   <g id="text_14">
    <!-- slsqp -->
    <g transform="translate(375.22944 157.353749)scale(0.17 -0.17)">
     <defs>
      <path d="M 14.796875 27.296875 
Q 14.796875 17.390625 18.875 11.75 
Q 22.953125 6.109375 30.078125 6.109375 
Q 37.203125 6.109375 41.296875 11.75 
Q 45.40625 17.390625 45.40625 27.296875 
Q 45.40625 37.203125 41.296875 42.84375 
Q 37.203125 48.484375 30.078125 48.484375 
Q 22.953125 48.484375 18.875 42.84375 
Q 14.796875 37.203125 14.796875 27.296875 
z
M 45.40625 8.203125 
Q 42.578125 3.328125 38.25 0.953125 
Q 33.9375 -1.421875 27.875 -1.421875 
Q 17.96875 -1.421875 11.734375 6.484375 
Q 5.515625 14.40625 5.515625 27.296875 
Q 5.515625 40.1875 11.734375 48.09375 
Q 17.96875 56 27.875 56 
Q 33.9375 56 38.25 53.625 
Q 42.578125 51.265625 45.40625 46.390625 
L 45.40625 54.6875 
L 54.390625 54.6875 
L 54.390625 -20.796875 
L 45.40625 -20.796875 
z
" id="DejaVuSans-113"/>
     </defs>
     <use xlink:href="#DejaVuSans-115"/>
     <use x="52.099609" xlink:href="#DejaVuSans-108"/>
     <use x="79.882812" xlink:href="#DejaVuSans-115"/>
     <use x="131.982422" xlink:href="#DejaVuSans-113"/>
     <use x="195.458984" xlink:href="#DejaVuSans-112"/>
    </g>
   </g>
   <g id="text_15">
    <!-- cobyla -->
    <g transform="translate(375.22944 16.923809)scale(0.17 -0.17)">
     <defs>
      <path d="M 48.6875 27.296875 
Q 48.6875 37.203125 44.609375 42.84375 
Q 40.53125 48.484375 33.40625 48.484375 
Q 26.265625 48.484375 22.1875 42.84375 
Q 18.109375 37.203125 18.109375 27.296875 
Q 18.109375 17.390625 22.1875 11.75 
Q 26.265625 6.109375 33.40625 6.109375 
Q 40.53125 6.109375 44.609375 11.75 
Q 48.6875 17.390625 48.6875 27.296875 
z
M 18.109375 46.390625 
Q 20.953125 51.265625 25.265625 53.625 
Q 29.59375 56 35.59375 56 
Q 45.5625 56 51.78125 48.09375 
Q 58.015625 40.1875 58.015625 27.296875 
Q 58.015625 14.40625 51.78125 6.484375 
Q 45.5625 -1.421875 35.59375 -1.421875 
Q 29.59375 -1.421875 25.265625 0.953125 
Q 20.953125 3.328125 18.109375 8.203125 
L 18.109375 0 
L 9.078125 0 
L 9.078125 75.984375 
L 18.109375 75.984375 
z
" id="DejaVuSans-98"/>
      <path d="M 32.171875 -5.078125 
Q 28.375 -14.84375 24.75 -17.8125 
Q 21.140625 -20.796875 15.09375 -20.796875 
L 7.90625 -20.796875 
L 7.90625 -13.28125 
L 13.1875 -13.28125 
Q 16.890625 -13.28125 18.9375 -11.515625 
Q 21 -9.765625 23.484375 -3.21875 
L 25.09375 0.875 
L 2.984375 54.6875 
L 12.5 54.6875 
L 29.59375 11.921875 
L 46.6875 54.6875 
L 56.203125 54.6875 
z
" id="DejaVuSans-121"/>
     </defs>
     <use xlink:href="#DejaVuSans-99"/>
     <use x="54.980469" xlink:href="#DejaVuSans-111"/>
     <use x="116.162109" xlink:href="#DejaVuSans-98"/>
     <use x="179.638672" xlink:href="#DejaVuSans-121"/>
     <use x="238.818359" xlink:href="#DejaVuSans-108"/>
     <use x="266.601562" xlink:href="#DejaVuSans-97"/>
    </g>
   </g>
   <g id="text_16">
    <!-- bbob-constrained f6, f12, f18, f24, f30, f36, f42, f48, f54, 3-D -->
    <g transform="translate(60.41088 14.161286)scale(0.102 -0.102)">
     <defs>
      <path d="M 40.578125 39.3125 
Q 47.65625 37.796875 51.625 33 
Q 55.609375 28.21875 55.609375 21.1875 
Q 55.609375 10.40625 48.1875 4.484375 
Q 40.765625 -1.421875 27.09375 -1.421875 
Q 22.515625 -1.421875 17.65625 -0.515625 
Q 12.796875 0.390625 7.625 2.203125 
L 7.625 11.71875 
Q 11.71875 9.328125 16.59375 8.109375 
Q 21.484375 6.890625 26.8125 6.890625 
Q 36.078125 6.890625 40.9375 10.546875 
Q 45.796875 14.203125 45.796875 21.1875 
Q 45.796875 27.640625 41.28125 31.265625 
Q 36.765625 34.90625 28.71875 34.90625 
L 20.21875 34.90625 
L 20.21875 43.015625 
L 29.109375 43.015625 
Q 36.375 43.015625 40.234375 45.921875 
Q 44.09375 48.828125 44.09375 54.296875 
Q 44.09375 59.90625 40.109375 62.90625 
Q 36.140625 65.921875 28.71875 65.921875 
Q 24.65625 65.921875 20.015625 65.03125 
Q 15.375 64.15625 9.8125 62.3125 
L 9.8125 71.09375 
Q 15.4375 72.65625 20.34375 73.4375 
Q 25.25 74.21875 29.59375 74.21875 
Q 40.828125 74.21875 47.359375 69.109375 
Q 53.90625 64.015625 53.90625 55.328125 
Q 53.90625 49.265625 50.4375 45.09375 
Q 46.96875 40.921875 40.578125 39.3125 
z
" id="DejaVuSans-51"/>
      <path d="M 10.796875 72.90625 
L 49.515625 72.90625 
L 49.515625 64.59375 
L 19.828125 64.59375 
L 19.828125 46.734375 
Q 21.96875 47.46875 24.109375 47.828125 
Q 26.265625 48.1875 28.421875 48.1875 
Q 40.625 48.1875 47.75 41.5 
Q 54.890625 34.8125 54.890625 23.390625 
Q 54.890625 11.625 47.5625 5.09375 
Q 40.234375 -1.421875 26.90625 -1.421875 
Q 22.3125 -1.421875 17.546875 -0.640625 
Q 12.796875 0.140625 7.71875 1.703125 
L 7.71875 11.625 
Q 12.109375 9.234375 16.796875 8.0625 
Q 21.484375 6.890625 26.703125 6.890625 
Q 35.15625 6.890625 40.078125 11.328125 
Q 45.015625 15.765625 45.015625 23.390625 
Q 45.015625 31 40.078125 35.4375 
Q 35.15625 39.890625 26.703125 39.890625 
Q 22.75 39.890625 18.8125 39.015625 
Q 14.890625 38.140625 10.796875 36.28125 
z
" id="DejaVuSans-53"/>
      <path d="M 19.671875 64.796875 
L 19.671875 8.109375 
L 31.59375 8.109375 
Q 46.6875 8.109375 53.6875 14.9375 
Q 60.6875 21.78125 60.6875 36.53125 
Q 60.6875 51.171875 53.6875 57.984375 
Q 46.6875 64.796875 31.59375 64.796875 
z
M 9.8125 72.90625 
L 30.078125 72.90625 
Q 51.265625 72.90625 61.171875 64.09375 
Q 71.09375 55.28125 71.09375 36.53125 
Q 71.09375 17.671875 61.125 8.828125 
Q 51.171875 0 30.078125 0 
L 9.8125 0 
z
" id="DejaVuSans-68"/>
     </defs>
     <use xlink:href="#DejaVuSans-98"/>
     <use x="63.476562" xlink:href="#DejaVuSans-98"/>
     <use x="126.953125" xlink:href="#DejaVuSans-111"/>
     <use x="188.134766" xlink:href="#DejaVuSans-98"/>
     <use x="251.611328" xlink:href="#DejaVuSans-45"/>
     <use x="287.695312" xlink:href="#DejaVuSans-99"/>
     <use x="342.675781" xlink:href="#DejaVuSans-111"/>
     <use x="403.857422" xlink:href="#DejaVuSans-110"/>
     <use x="467.236328" xlink:href="#DejaVuSans-115"/>
     <use x="519.335938" xlink:href="#DejaVuSans-116"/>
     <use x="558.544922" xlink:href="#DejaVuSans-114"/>
     <use x="599.658203" xlink:href="#DejaVuSans-97"/>
     <use x="660.9375" xlink:href="#DejaVuSans-105"/>
     <use x="688.720703" xlink:href="#DejaVuSans-110"/>
     <use x="752.099609" xlink:href="#DejaVuSans-101"/>
     <use x="813.623047" xlink:href="#DejaVuSans-100"/>
     <use x="877.099609" xlink:href="#DejaVuSans-32"/>
     <use x="908.886719" xlink:href="#DejaVuSans-102"/>
     <use x="944.091797" xlink:href="#DejaVuSans-54"/>
     <use x="1007.714844" xlink:href="#DejaVuSans-44"/>
     <use x="1039.501953" xlink:href="#DejaVuSans-32"/>
     <use x="1071.289062" xlink:href="#DejaVuSans-102"/>
     <use x="1106.494141" xlink:href="#DejaVuSans-49"/>
     <use x="1170.117188" xlink:href="#DejaVuSans-50"/>
     <use x="1233.740234" xlink:href="#DejaVuSans-44"/>
     <use x="1265.527344" xlink:href="#DejaVuSans-32"/>
     <use x="1297.314453" xlink:href="#DejaVuSans-102"/>
     <use x="1332.519531" xlink:href="#DejaVuSans-49"/>
     <use x="1396.142578" xlink:href="#DejaVuSans-56"/>
     <use x="1459.765625" xlink:href="#DejaVuSans-44"/>
     <use x="1491.552734" xlink:href="#DejaVuSans-32"/>
     <use x="1523.339844" xlink:href="#DejaVuSans-102"/>
     <use x="1558.544922" xlink:href="#DejaVuSans-50"/>
     <use x="1622.167969" xlink:href="#DejaVuSans-52"/>
     <use x="1685.791016" xlink:href="#DejaVuSans-44"/>
     <use x="1717.578125" xlink:href="#DejaVuSans-32"/>
     <use x="1749.365234" xlink:href="#DejaVuSans-102"/>
     <use x="1784.570312" xlink:href="#DejaVuSans-51"/>
     <use x="1848.193359" xlink:href="#DejaVuSans-48"/>
     <use x="1911.816406" xlink:href="#DejaVuSans-44"/>
     <use x="1943.603516" xlink:href="#DejaVuSans-32"/>
     <use x="1975.390625" xlink:href="#DejaVuSans-102"/>
     <use x="2010.595703" xlink:href="#DejaVuSans-51"/>
     <use x="2074.21875" xlink:href="#DejaVuSans-54"/>
     <use x="2137.841797" xlink:href="#DejaVuSans-44"/>
     <use x="2169.628906" xlink:href="#DejaVuSans-32"/>
     <use x="2201.416016" xlink:href="#DejaVuSans-102"/>
     <use x="2236.621094" xlink:href="#DejaVuSans-52"/>
     <use x="2300.244141" xlink:href="#DejaVuSans-50"/>
     <use x="2363.867188" xlink:href="#DejaVuSans-44"/>
     <use x="2395.654297" xlink:href="#DejaVuSans-32"/>
     <use x="2427.441406" xlink:href="#DejaVuSans-102"/>
     <use x="2462.646484" xlink:href="#DejaVuSans-52"/>
     <use x="2526.269531" xlink:href="#DejaVuSans-56"/>
     <use x="2589.892578" xlink:href="#DejaVuSans-44"/>
     <use x="2621.679688" xlink:href="#DejaVuSans-32"/>
     <use x="2653.466797" xlink:href="#DejaVuSans-102"/>
     <use x="2688.671875" xlink:href="#DejaVuSans-53"/>
     <use x="2752.294922" xlink:href="#DejaVuSans-52"/>
     <use x="2815.917969" xlink:href="#DejaVuSans-44"/>
     <use x="2847.705078" xlink:href="#DejaVuSans-32"/>
     <use x="2879.492188" xlink:href="#DejaVuSans-51"/>
     <use x="2943.115234" xlink:href="#DejaVuSans-45"/>
     <use x="2979.199219" xlink:href="#DejaVuSans-68"/>
    </g>
    <!-- 41 targets: 100..1e-06 -->
    <g transform="translate(60.41088 25.583055)scale(0.102 -0.102)">
     <defs>
      <path d="M 11.71875 12.40625 
L 22.015625 12.40625 
L 22.015625 0 
L 11.71875 0 
z
M 11.71875 51.703125 
L 22.015625 51.703125 
L 22.015625 39.3125 
L 11.71875 39.3125 
z
" id="DejaVuSans-58"/>
     </defs>
     <use xlink:href="#DejaVuSans-52"/>
     <use x="63.623047" xlink:href="#DejaVuSans-49"/>
     <use x="127.246094" xlink:href="#DejaVuSans-32"/>
     <use x="159.033203" xlink:href="#DejaVuSans-116"/>
     <use x="198.242188" xlink:href="#DejaVuSans-97"/>
     <use x="259.521484" xlink:href="#DejaVuSans-114"/>
     <use x="298.884766" xlink:href="#DejaVuSans-103"/>
     <use x="362.361328" xlink:href="#DejaVuSans-101"/>
     <use x="423.884766" xlink:href="#DejaVuSans-116"/>
     <use x="463.09375" xlink:href="#DejaVuSans-115"/>
     <use x="515.193359" xlink:href="#DejaVuSans-58"/>
     <use x="548.884766" xlink:href="#DejaVuSans-32"/>
     <use x="580.671875" xlink:href="#DejaVuSans-49"/>
     <use x="644.294922" xlink:href="#DejaVuSans-48"/>
     <use x="707.917969" xlink:href="#DejaVuSans-48"/>
     <use x="771.541016" xlink:href="#DejaVuSans-46"/>
     <use x="803.328125" xlink:href="#DejaVuSans-46"/>
     <use x="835.115234" xlink:href="#DejaVuSans-49"/>
     <use x="898.738281" xlink:href="#DejaVuSans-101"/>
     <use x="960.261719" xlink:href="#DejaVuSans-45"/>
     <use x="996.345703" xlink:href="#DejaVuSans-48"/>
     <use x="1059.96875" xlink:href="#DejaVuSans-54"/>
    </g>
    <!-- 15 instances -->
    <g transform="translate(60.41088 37.004824)scale(0.102 -0.102)">
     <use xlink:href="#DejaVuSans-49"/>
     <use x="63.623047" xlink:href="#DejaVuSans-53"/>
     <use x="127.246094" xlink:href="#DejaVuSans-32"/>
     <use x="159.033203" xlink:href="#DejaVuSans-105"/>
     <use x="186.816406" xlink:href="#DejaVuSans-110"/>
     <use x="250.195312" xlink:href="#DejaVuSans-115"/>
     <use x="302.294922" xlink:href="#DejaVuSans-116"/>
     <use x="341.503906" xlink:href="#DejaVuSans-97"/>
     <use x="402.783203" xlink:href="#DejaVuSans-110"/>
     <use x="466.162109" xlink:href="#DejaVuSans-99"/>
     <use x="521.142578" xlink:href="#DejaVuSans-101"/>
     <use x="582.666016" xlink:href="#DejaVuSans-115"/>
    </g>
   </g>
   <g id="text_17">
    <!-- v2.4.82 -->
    <g style="fill:#808080;" transform="translate(179.2815 293.909432)scale(0.1 -0.1)">
     <use xlink:href="#DejaVuSans-118"/>
     <use x="59.179688" xlink:href="#DejaVuSans-50"/>
     <use x="122.802734" xlink:href="#DejaVuSans-46"/>
     <use x="154.589844" xlink:href="#DejaVuSans-52"/>
     <use x="218.212891" xlink:href="#DejaVuSans-46"/>
     <use x="250" xlink:href="#DejaVuSans-56"/>
     <use x="313.623047" xlink:href="#DejaVuSans-50"/>
    </g>
   </g>
  </g>
 </g>
 <defs>
  <clipPath id="pfcc2f0f3dd">
   <rect height="295.488" width="281.088" x="57.6" y="3.456"/>
  </clipPath>
 </defs>
</svg>
