<?xml version="1.0" encoding="utf-8" standalone="no"?>
<!DOCTYPE svg PUBLIC "-//W3C//DTD SVG 1.1//EN"
  "http://www.w3.org/Graphics/SVG/1.1/DTD/svg11.dtd">
<!-- Created with matplotlib (https://matplotlib.org/) -->
<svg height="345.6pt" version="1.1" viewBox="0 0 460.8 345.6" width="460.8pt" xmlns="http://www.w3.org/2000/svg" xmlns:xlink="http://www.w3.org/1999/xlink">
 <metadata>
  <rdf:RDF xmlns:cc="http://creativecommons.org/ns#" xmlns:dc="http://purl.org/dc/elements/1.1/" xmlns:rdf="http://www.w3.org/1999/02/22-rdf-syntax-ns#">
   <cc:Work>
    <dc:type rdf:resource="http://purl.org/dc/dcmitype/StillImage"/>
    <dc:date>2022-01-12T20:21:00.395538</dc:date>
    <dc:format>image/svg+xml</dc:format>
    <dc:creator>
     <cc:Agent>
      <dc:title>Matplotlib v3.3.3, https://matplotlib.org/</dc:title>
     </cc:Agent>
    </dc:creator>
   </cc:Work>
  </rdf:RDF>
 </metadata>
 <defs>
  <style type="text/css">*{stroke-linecap:butt;stroke-linejoin:round;}</style>
 </defs>
 <g id="figure_1">
  <g id="patch_1">
   <path d="M 0 345.6 
L 460.8 345.6 
L 460.8 0 
L 0 0 
z
" style="fill:#ffffff;"/>
  </g>
  <g id="axes_1">
   <g id="patch_2">
    <path d="M 57.6 298.944 
L 338.688 298.944 
L 338.688 3.456 
L 57.6 3.456 
z
" style="fill:#ffffff;"/>
   </g>
   <g id="matplotlib.axis_1">
    <g id="xtick_1">
     <g id="line2d_1">
      <path clip-path="url(#pd323aa04f5)" d="M 57.6 298.944 
L 57.6 3.456 
" style="fill:none;stroke:#b0b0b0;stroke-linecap:square;stroke-width:0.8;"/>
     </g>
     <g id="line2d_2">
      <defs>
       <path d="M 0 0 
L 0 3.5 
" id="m9998f47c44" style="stroke:#000000;stroke-width:0.8;"/>
      </defs>
      <g>
       <use style="stroke:#000000;stroke-width:0.8;" x="57.6" xlink:href="#m9998f47c44" y="298.944"/>
      </g>
     </g>
     <g id="text_1">
      <!-- 0 -->
      <g transform="translate(51.2375 321.140875)scale(0.2 -0.2)">
       <defs>
        <path d="M 31.78125 66.40625 
Q 24.171875 66.40625 20.328125 58.90625 
Q 16.5 51.421875 16.5 36.375 
Q 16.5 21.390625 20.328125 13.890625 
Q 24.171875 6.390625 31.78125 6.390625 
Q 39.453125 6.390625 43.28125 13.890625 
Q 47.125 21.390625 47.125 36.375 
Q 47.125 51.421875 43.28125 58.90625 
Q 39.453125 66.40625 31.78125 66.40625 
z
M 31.78125 74.21875 
Q 44.046875 74.21875 50.515625 64.515625 
Q 56.984375 54.828125 56.984375 36.375 
Q 56.984375 17.96875 50.515625 8.265625 
Q 44.046875 -1.421875 31.78125 -1.421875 
Q 19.53125 -1.421875 13.0625 8.265625 
Q 6.59375 17.96875 6.59375 36.375 
Q 6.59375 54.828125 13.0625 64.515625 
Q 19.53125 74.21875 31.78125 74.21875 
z
" id="DejaVuSans-48"/>
       </defs>
       <use xlink:href="#DejaVuSans-48"/>
      </g>
     </g>
    </g>
    <g id="xtick_2">
     <g id="line2d_3">
      <path clip-path="url(#pd323aa04f5)" d="M 137.910857 298.944 
L 137.910857 3.456 
" style="fill:none;stroke:#b0b0b0;stroke-linecap:square;stroke-width:0.8;"/>
     </g>
     <g id="line2d_4">
      <g>
       <use style="stroke:#000000;stroke-width:0.8;" x="137.910857" xlink:href="#m9998f47c44" y="298.944"/>
      </g>
     </g>
     <g id="text_2">
      <!-- 2 -->
      <g transform="translate(131.548357 321.140875)scale(0.2 -0.2)">
       <defs>
        <path d="M 19.1875 8.296875 
L 53.609375 8.296875 
L 53.609375 0 
L 7.328125 0 
L 7.328125 8.296875 
Q 12.9375 14.109375 22.625 23.890625 
Q 32.328125 33.6875 34.8125 36.53125 
Q 39.546875 41.84375 41.421875 45.53125 
Q 43.3125 49.21875 43.3125 52.78125 
Q 43.3125 58.59375 39.234375 62.25 
Q 35.15625 65.921875 28.609375 65.921875 
Q 23.96875 65.921875 18.8125 64.3125 
Q 13.671875 62.703125 7.8125 59.421875 
L 7.8125 69.390625 
Q 13.765625 71.78125 18.9375 73 
Q 24.125 74.21875 28.421875 74.21875 
Q 39.75 74.21875 46.484375 68.546875 
Q 53.21875 62.890625 53.21875 53.421875 
Q 53.21875 48.921875 51.53125 44.890625 
Q 49.859375 40.875 45.40625 35.40625 
Q 44.1875 33.984375 37.640625 27.21875 
Q 31.109375 20.453125 19.1875 8.296875 
z
" id="DejaVuSans-50"/>
       </defs>
       <use xlink:href="#DejaVuSans-50"/>
      </g>
     </g>
    </g>
    <g id="xtick_3">
     <g id="line2d_5">
      <path clip-path="url(#pd323aa04f5)" d="M 218.221714 298.944 
L 218.221714 3.456 
" style="fill:none;stroke:#b0b0b0;stroke-linecap:square;stroke-width:0.8;"/>
     </g>
     <g id="line2d_6">
      <g>
       <use style="stroke:#000000;stroke-width:0.8;" x="218.221714" xlink:href="#m9998f47c44" y="298.944"/>
      </g>
     </g>
     <g id="text_3">
      <!-- 4 -->
      <g transform="translate(211.859214 321.140875)scale(0.2 -0.2)">
       <defs>
        <path d="M 37.796875 64.3125 
L 12.890625 25.390625 
L 37.796875 25.390625 
z
M 35.203125 72.90625 
L 47.609375 72.90625 
L 47.609375 25.390625 
L 58.015625 25.390625 
L 58.015625 17.1875 
L 47.609375 17.1875 
L 47.609375 0 
L 37.796875 0 
L 37.796875 17.1875 
L 4.890625 17.1875 
L 4.890625 26.703125 
z
" id="DejaVuSans-52"/>
       </defs>
       <use xlink:href="#DejaVuSans-52"/>
      </g>
     </g>
    </g>
    <g id="xtick_4">
     <g id="line2d_7">
      <path clip-path="url(#pd323aa04f5)" d="M 298.532571 298.944 
L 298.532571 3.456 
" style="fill:none;stroke:#b0b0b0;stroke-linecap:square;stroke-width:0.8;"/>
     </g>
     <g id="line2d_8">
      <g>
       <use style="stroke:#000000;stroke-width:0.8;" x="298.532571" xlink:href="#m9998f47c44" y="298.944"/>
      </g>
     </g>
     <g id="text_4">
      <!-- 6 -->
      <g transform="translate(292.170071 321.140875)scale(0.2 -0.2)">
       <defs>
        <path d="M 33.015625 40.375 
Q 26.375 40.375 22.484375 35.828125 
Q 18.609375 31.296875 18.609375 23.390625 
Q 18.609375 15.53125 22.484375 10.953125 
Q 26.375 6.390625 33.015625 6.390625 
Q 39.65625 6.390625 43.53125 10.953125 
Q 47.40625 15.53125 47.40625 23.390625 
Q 47.40625 31.296875 43.53125 35.828125 
Q 39.65625 40.375 33.015625 40.375 
z
M 52.59375 71.296875 
L 52.59375 62.3125 
Q 48.875 64.0625 45.09375 64.984375 
Q 41.3125 65.921875 37.59375 65.921875 
Q 27.828125 65.921875 22.671875 59.328125 
Q 17.53125 52.734375 16.796875 39.40625 
Q 19.671875 43.65625 24.015625 45.921875 
Q 28.375 48.1875 33.59375 48.1875 
Q 44.578125 48.1875 50.953125 41.515625 
Q 57.328125 34.859375 57.328125 23.390625 
Q 57.328125 12.15625 50.6875 5.359375 
Q 44.046875 -1.421875 33.015625 -1.421875 
Q 20.359375 -1.421875 13.671875 8.265625 
Q 6.984375 17.96875 6.984375 36.375 
Q 6.984375 53.65625 15.1875 63.9375 
Q 23.390625 74.21875 37.203125 74.21875 
Q 40.921875 74.21875 44.703125 73.484375 
Q 48.484375 72.75 52.59375 71.296875 
z
" id="DejaVuSans-54"/>
       </defs>
       <use xlink:href="#DejaVuSans-54"/>
      </g>
     </g>
    </g>
    <g id="xtick_5">
     <g id="line2d_9">
      <path clip-path="url(#pd323aa04f5)" d="M 97.755429 298.944 
L 97.755429 3.456 
" style="fill:none;stroke:#b0b0b0;stroke-linecap:square;stroke-width:0.8;"/>
     </g>
     <g id="line2d_10">
      <defs>
       <path d="M 0 0 
L 0 2 
" id="mbd2e3f9ab7" style="stroke:#000000;stroke-width:0.6;"/>
      </defs>
      <g>
       <use style="stroke:#000000;stroke-width:0.6;" x="97.755429" xlink:href="#mbd2e3f9ab7" y="298.944"/>
      </g>
     </g>
    </g>
    <g id="xtick_6">
     <g id="line2d_11">
      <path clip-path="url(#pd323aa04f5)" d="M 178.066286 298.944 
L 178.066286 3.456 
" style="fill:none;stroke:#b0b0b0;stroke-linecap:square;stroke-width:0.8;"/>
     </g>
     <g id="line2d_12">
      <g>
       <use style="stroke:#000000;stroke-width:0.6;" x="178.066286" xlink:href="#mbd2e3f9ab7" y="298.944"/>
      </g>
     </g>
    </g>
    <g id="xtick_7">
     <g id="line2d_13">
      <path clip-path="url(#pd323aa04f5)" d="M 258.377143 298.944 
L 258.377143 3.456 
" style="fill:none;stroke:#b0b0b0;stroke-linecap:square;stroke-width:0.8;"/>
     </g>
     <g id="line2d_14">
      <g>
       <use style="stroke:#000000;stroke-width:0.6;" x="258.377143" xlink:href="#mbd2e3f9ab7" y="298.944"/>
      </g>
     </g>
    </g>
    <g id="xtick_8">
     <g id="line2d_15">
      <path clip-path="url(#pd323aa04f5)" d="M 338.688 298.944 
L 338.688 3.456 
" style="fill:none;stroke:#b0b0b0;stroke-linecap:square;stroke-width:0.8;"/>
     </g>
     <g id="line2d_16">
      <g>
       <use style="stroke:#000000;stroke-width:0.6;" x="338.688" xlink:href="#mbd2e3f9ab7" y="298.944"/>
      </g>
     </g>
    </g>
    <g id="text_5">
     <!-- log10(# (f+g)-evals / dimension) -->
     <g transform="translate(58.145016 342.217594)scale(0.17 -0.17)">
      <defs>
       <path d="M 9.421875 75.984375 
L 18.40625 75.984375 
L 18.40625 0 
L 9.421875 0 
z
" id="DejaVuSans-108"/>
       <path d="M 30.609375 48.390625 
Q 23.390625 48.390625 19.1875 42.75 
Q 14.984375 37.109375 14.984375 27.296875 
Q 14.984375 17.484375 19.15625 11.84375 
Q 23.34375 6.203125 30.609375 6.203125 
Q 37.796875 6.203125 41.984375 11.859375 
Q 46.1875 17.53125 46.1875 27.296875 
Q 46.1875 37.015625 41.984375 42.703125 
Q 37.796875 48.390625 30.609375 48.390625 
z
M 30.609375 56 
Q 42.328125 56 49.015625 48.375 
Q 55.71875 40.765625 55.71875 27.296875 
Q 55.71875 13.875 49.015625 6.21875 
Q 42.328125 -1.421875 30.609375 -1.421875 
Q 18.84375 -1.421875 12.171875 6.21875 
Q 5.515625 13.875 5.515625 27.296875 
Q 5.515625 40.765625 12.171875 48.375 
Q 18.84375 56 30.609375 56 
z
" id="DejaVuSans-111"/>
       <path d="M 45.40625 27.984375 
Q 45.40625 37.75 41.375 43.109375 
Q 37.359375 48.484375 30.078125 48.484375 
Q 22.859375 48.484375 18.828125 43.109375 
Q 14.796875 37.75 14.796875 27.984375 
Q 14.796875 18.265625 18.828125 12.890625 
Q 22.859375 7.515625 30.078125 7.515625 
Q 37.359375 7.515625 41.375 12.890625 
Q 45.40625 18.265625 45.40625 27.984375 
z
M 54.390625 6.78125 
Q 54.390625 -7.171875 48.1875 -13.984375 
Q 42 -20.796875 29.203125 -20.796875 
Q 24.46875 -20.796875 20.265625 -20.09375 
Q 16.0625 -19.390625 12.109375 -17.921875 
L 12.109375 -9.1875 
Q 16.0625 -11.328125 19.921875 -12.34375 
Q 23.78125 -13.375 27.78125 -13.375 
Q 36.625 -13.375 41.015625 -8.765625 
Q 45.40625 -4.15625 45.40625 5.171875 
L 45.40625 9.625 
Q 42.625 4.78125 38.28125 2.390625 
Q 33.9375 0 27.875 0 
Q 17.828125 0 11.671875 7.65625 
Q 5.515625 15.328125 5.515625 27.984375 
Q 5.515625 40.671875 11.671875 48.328125 
Q 17.828125 56 27.875 56 
Q 33.9375 56 38.28125 53.609375 
Q 42.625 51.21875 45.40625 46.390625 
L 45.40625 54.6875 
L 54.390625 54.6875 
z
" id="DejaVuSans-103"/>
       <path d="M 12.40625 8.296875 
L 28.515625 8.296875 
L 28.515625 63.921875 
L 10.984375 60.40625 
L 10.984375 69.390625 
L 28.421875 72.90625 
L 38.28125 72.90625 
L 38.28125 8.296875 
L 54.390625 8.296875 
L 54.390625 0 
L 12.40625 0 
z
" id="DejaVuSans-49"/>
       <path d="M 31 75.875 
Q 24.46875 64.65625 21.28125 53.65625 
Q 18.109375 42.671875 18.109375 31.390625 
Q 18.109375 20.125 21.3125 9.0625 
Q 24.515625 -2 31 -13.1875 
L 23.1875 -13.1875 
Q 15.875 -1.703125 12.234375 9.375 
Q 8.59375 20.453125 8.59375 31.390625 
Q 8.59375 42.28125 12.203125 53.3125 
Q 15.828125 64.359375 23.1875 75.875 
z
" id="DejaVuSans-40"/>
       <path d="M 51.125 44 
L 36.921875 44 
L 32.8125 27.6875 
L 47.125 27.6875 
z
M 43.796875 71.78125 
L 38.71875 51.515625 
L 52.984375 51.515625 
L 58.109375 71.78125 
L 65.921875 71.78125 
L 60.890625 51.515625 
L 76.125 51.515625 
L 76.125 44 
L 58.984375 44 
L 54.984375 27.6875 
L 70.515625 27.6875 
L 70.515625 20.21875 
L 53.078125 20.21875 
L 48 0 
L 40.1875 0 
L 45.21875 20.21875 
L 30.90625 20.21875 
L 25.875 0 
L 18.015625 0 
L 23.09375 20.21875 
L 7.71875 20.21875 
L 7.71875 27.6875 
L 24.90625 27.6875 
L 29 44 
L 13.28125 44 
L 13.28125 51.515625 
L 30.90625 51.515625 
L 35.890625 71.78125 
z
" id="DejaVuSans-35"/>
       <path id="DejaVuSans-32"/>
       <path d="M 37.109375 75.984375 
L 37.109375 68.5 
L 28.515625 68.5 
Q 23.6875 68.5 21.796875 66.546875 
Q 19.921875 64.59375 19.921875 59.515625 
L 19.921875 54.6875 
L 34.71875 54.6875 
L 34.71875 47.703125 
L 19.921875 47.703125 
L 19.921875 0 
L 10.890625 0 
L 10.890625 47.703125 
L 2.296875 47.703125 
L 2.296875 54.6875 
L 10.890625 54.6875 
L 10.890625 58.5 
Q 10.890625 67.625 15.140625 71.796875 
Q 19.390625 75.984375 28.609375 75.984375 
z
" id="DejaVuSans-102"/>
       <path d="M 46 62.703125 
L 46 35.5 
L 73.1875 35.5 
L 73.1875 27.203125 
L 46 27.203125 
L 46 0 
L 37.796875 0 
L 37.796875 27.203125 
L 10.59375 27.203125 
L 10.59375 35.5 
L 37.796875 35.5 
L 37.796875 62.703125 
z
" id="DejaVuSans-43"/>
       <path d="M 8.015625 75.875 
L 15.828125 75.875 
Q 23.140625 64.359375 26.78125 53.3125 
Q 30.421875 42.28125 30.421875 31.390625 
Q 30.421875 20.453125 26.78125 9.375 
Q 23.140625 -1.703125 15.828125 -13.1875 
L 8.015625 -13.1875 
Q 14.5 -2 17.703125 9.0625 
Q 20.90625 20.125 20.90625 31.390625 
Q 20.90625 42.671875 17.703125 53.65625 
Q 14.5 64.65625 8.015625 75.875 
z
" id="DejaVuSans-41"/>
       <path d="M 4.890625 31.390625 
L 31.203125 31.390625 
L 31.203125 23.390625 
L 4.890625 23.390625 
z
" id="DejaVuSans-45"/>
       <path d="M 56.203125 29.59375 
L 56.203125 25.203125 
L 14.890625 25.203125 
Q 15.484375 15.921875 20.484375 11.0625 
Q 25.484375 6.203125 34.421875 6.203125 
Q 39.59375 6.203125 44.453125 7.46875 
Q 49.3125 8.734375 54.109375 11.28125 
L 54.109375 2.78125 
Q 49.265625 0.734375 44.1875 -0.34375 
Q 39.109375 -1.421875 33.890625 -1.421875 
Q 20.796875 -1.421875 13.15625 6.1875 
Q 5.515625 13.8125 5.515625 26.8125 
Q 5.515625 40.234375 12.765625 48.109375 
Q 20.015625 56 32.328125 56 
Q 43.359375 56 49.78125 48.890625 
Q 56.203125 41.796875 56.203125 29.59375 
z
M 47.21875 32.234375 
Q 47.125 39.59375 43.09375 43.984375 
Q 39.0625 48.390625 32.421875 48.390625 
Q 24.90625 48.390625 20.390625 44.140625 
Q 15.875 39.890625 15.1875 32.171875 
z
" id="DejaVuSans-101"/>
       <path d="M 2.984375 54.6875 
L 12.5 54.6875 
L 29.59375 8.796875 
L 46.6875 54.6875 
L 56.203125 54.6875 
L 35.6875 0 
L 23.484375 0 
z
" id="DejaVuSans-118"/>
       <path d="M 34.28125 27.484375 
Q 23.390625 27.484375 19.1875 25 
Q 14.984375 22.515625 14.984375 16.5 
Q 14.984375 11.71875 18.140625 8.90625 
Q 21.296875 6.109375 26.703125 6.109375 
Q 34.1875 6.109375 38.703125 11.40625 
Q 43.21875 16.703125 43.21875 25.484375 
L 43.21875 27.484375 
z
M 52.203125 31.203125 
L 52.203125 0 
L 43.21875 0 
L 43.21875 8.296875 
Q 40.140625 3.328125 35.546875 0.953125 
Q 30.953125 -1.421875 24.3125 -1.421875 
Q 15.921875 -1.421875 10.953125 3.296875 
Q 6 8.015625 6 15.921875 
Q 6 25.140625 12.171875 29.828125 
Q 18.359375 34.515625 30.609375 34.515625 
L 43.21875 34.515625 
L 43.21875 35.40625 
Q 43.21875 41.609375 39.140625 45 
Q 35.0625 48.390625 27.6875 48.390625 
Q 23 48.390625 18.546875 47.265625 
Q 14.109375 46.140625 10.015625 43.890625 
L 10.015625 52.203125 
Q 14.9375 54.109375 19.578125 55.046875 
Q 24.21875 56 28.609375 56 
Q 40.484375 56 46.34375 49.84375 
Q 52.203125 43.703125 52.203125 31.203125 
z
" id="DejaVuSans-97"/>
       <path d="M 44.28125 53.078125 
L 44.28125 44.578125 
Q 40.484375 46.53125 36.375 47.5 
Q 32.28125 48.484375 27.875 48.484375 
Q 21.1875 48.484375 17.84375 46.4375 
Q 14.5 44.390625 14.5 40.28125 
Q 14.5 37.15625 16.890625 35.375 
Q 19.28125 33.59375 26.515625 31.984375 
L 29.59375 31.296875 
Q 39.15625 29.25 43.1875 25.515625 
Q 47.21875 21.78125 47.21875 15.09375 
Q 47.21875 7.46875 41.1875 3.015625 
Q 35.15625 -1.421875 24.609375 -1.421875 
Q 20.21875 -1.421875 15.453125 -0.5625 
Q 10.6875 0.296875 5.421875 2 
L 5.421875 11.28125 
Q 10.40625 8.6875 15.234375 7.390625 
Q 20.0625 6.109375 24.8125 6.109375 
Q 31.15625 6.109375 34.5625 8.28125 
Q 37.984375 10.453125 37.984375 14.40625 
Q 37.984375 18.0625 35.515625 20.015625 
Q 33.0625 21.96875 24.703125 23.78125 
L 21.578125 24.515625 
Q 13.234375 26.265625 9.515625 29.90625 
Q 5.8125 33.546875 5.8125 39.890625 
Q 5.8125 47.609375 11.28125 51.796875 
Q 16.75 56 26.8125 56 
Q 31.78125 56 36.171875 55.265625 
Q 40.578125 54.546875 44.28125 53.078125 
z
" id="DejaVuSans-115"/>
       <path d="M 25.390625 72.90625 
L 33.6875 72.90625 
L 8.296875 -9.28125 
L 0 -9.28125 
z
" id="DejaVuSans-47"/>
       <path d="M 45.40625 46.390625 
L 45.40625 75.984375 
L 54.390625 75.984375 
L 54.390625 0 
L 45.40625 0 
L 45.40625 8.203125 
Q 42.578125 3.328125 38.25 0.953125 
Q 33.9375 -1.421875 27.875 -1.421875 
Q 17.96875 -1.421875 11.734375 6.484375 
Q 5.515625 14.40625 5.515625 27.296875 
Q 5.515625 40.1875 11.734375 48.09375 
Q 17.96875 56 27.875 56 
Q 33.9375 56 38.25 53.625 
Q 42.578125 51.265625 45.40625 46.390625 
z
M 14.796875 27.296875 
Q 14.796875 17.390625 18.875 11.75 
Q 22.953125 6.109375 30.078125 6.109375 
Q 37.203125 6.109375 41.296875 11.75 
Q 45.40625 17.390625 45.40625 27.296875 
Q 45.40625 37.203125 41.296875 42.84375 
Q 37.203125 48.484375 30.078125 48.484375 
Q 22.953125 48.484375 18.875 42.84375 
Q 14.796875 37.203125 14.796875 27.296875 
z
" id="DejaVuSans-100"/>
       <path d="M 9.421875 54.6875 
L 18.40625 54.6875 
L 18.40625 0 
L 9.421875 0 
z
M 9.421875 75.984375 
L 18.40625 75.984375 
L 18.40625 64.59375 
L 9.421875 64.59375 
z
" id="DejaVuSans-105"/>
       <path d="M 52 44.1875 
Q 55.375 50.25 60.0625 53.125 
Q 64.75 56 71.09375 56 
Q 79.640625 56 84.28125 50.015625 
Q 88.921875 44.046875 88.921875 33.015625 
L 88.921875 0 
L 79.890625 0 
L 79.890625 32.71875 
Q 79.890625 40.578125 77.09375 44.375 
Q 74.3125 48.1875 68.609375 48.1875 
Q 61.625 48.1875 57.5625 43.546875 
Q 53.515625 38.921875 53.515625 30.90625 
L 53.515625 0 
L 44.484375 0 
L 44.484375 32.71875 
Q 44.484375 40.625 41.703125 44.40625 
Q 38.921875 48.1875 33.109375 48.1875 
Q 26.21875 48.1875 22.15625 43.53125 
Q 18.109375 38.875 18.109375 30.90625 
L 18.109375 0 
L 9.078125 0 
L 9.078125 54.6875 
L 18.109375 54.6875 
L 18.109375 46.1875 
Q 21.1875 51.21875 25.484375 53.609375 
Q 29.78125 56 35.6875 56 
Q 41.65625 56 45.828125 52.96875 
Q 50 49.953125 52 44.1875 
z
" id="DejaVuSans-109"/>
       <path d="M 54.890625 33.015625 
L 54.890625 0 
L 45.90625 0 
L 45.90625 32.71875 
Q 45.90625 40.484375 42.875 44.328125 
Q 39.84375 48.1875 33.796875 48.1875 
Q 26.515625 48.1875 22.3125 43.546875 
Q 18.109375 38.921875 18.109375 30.90625 
L 18.109375 0 
L 9.078125 0 
L 9.078125 54.6875 
L 18.109375 54.6875 
L 18.109375 46.1875 
Q 21.34375 51.125 25.703125 53.5625 
Q 30.078125 56 35.796875 56 
Q 45.21875 56 50.046875 50.171875 
Q 54.890625 44.34375 54.890625 33.015625 
z
" id="DejaVuSans-110"/>
      </defs>
      <use xlink:href="#DejaVuSans-108"/>
      <use x="27.783203" xlink:href="#DejaVuSans-111"/>
      <use x="88.964844" xlink:href="#DejaVuSans-103"/>
      <use x="152.441406" xlink:href="#DejaVuSans-49"/>
      <use x="216.064453" xlink:href="#DejaVuSans-48"/>
      <use x="279.6875" xlink:href="#DejaVuSans-40"/>
      <use x="318.701172" xlink:href="#DejaVuSans-35"/>
      <use x="402.490234" xlink:href="#DejaVuSans-32"/>
      <use x="434.277344" xlink:href="#DejaVuSans-40"/>
      <use x="473.291016" xlink:href="#DejaVuSans-102"/>
      <use x="508.496094" xlink:href="#DejaVuSans-43"/>
      <use x="592.285156" xlink:href="#DejaVuSans-103"/>
      <use x="655.761719" xlink:href="#DejaVuSans-41"/>
      <use x="694.775391" xlink:href="#DejaVuSans-45"/>
      <use x="730.859375" xlink:href="#DejaVuSans-101"/>
      <use x="792.382812" xlink:href="#DejaVuSans-118"/>
      <use x="851.5625" xlink:href="#DejaVuSans-97"/>
      <use x="912.841797" xlink:href="#DejaVuSans-108"/>
      <use x="940.625" xlink:href="#DejaVuSans-115"/>
      <use x="992.724609" xlink:href="#DejaVuSans-32"/>
      <use x="1024.511719" xlink:href="#DejaVuSans-47"/>
      <use x="1058.203125" xlink:href="#DejaVuSans-32"/>
      <use x="1089.990234" xlink:href="#DejaVuSans-100"/>
      <use x="1153.466797" xlink:href="#DejaVuSans-105"/>
      <use x="1181.25" xlink:href="#DejaVuSans-109"/>
      <use x="1278.662109" xlink:href="#DejaVuSans-101"/>
      <use x="1340.185547" xlink:href="#DejaVuSans-110"/>
      <use x="1403.564453" xlink:href="#DejaVuSans-115"/>
      <use x="1455.664062" xlink:href="#DejaVuSans-105"/>
      <use x="1483.447266" xlink:href="#DejaVuSans-111"/>
      <use x="1544.628906" xlink:href="#DejaVuSans-110"/>
      <use x="1608.007812" xlink:href="#DejaVuSans-41"/>
     </g>
    </g>
   </g>
   <g id="matplotlib.axis_2">
    <g id="ytick_1">
     <g id="line2d_17">
      <path clip-path="url(#pd323aa04f5)" d="M 57.6 298.944 
L 338.688 298.944 
" style="fill:none;stroke:#b0b0b0;stroke-linecap:square;stroke-width:0.8;"/>
     </g>
     <g id="line2d_18">
      <defs>
       <path d="M 0 0 
L -3.5 0 
" id="m27fa76bcfa" style="stroke:#000000;stroke-width:0.8;"/>
      </defs>
      <g>
       <use style="stroke:#000000;stroke-width:0.8;" x="57.6" xlink:href="#m27fa76bcfa" y="298.944"/>
      </g>
     </g>
     <g id="text_6">
      <!-- 0.0 -->
      <g transform="translate(25.155 305.02275)scale(0.16 -0.16)">
       <defs>
        <path d="M 10.6875 12.40625 
L 21 12.40625 
L 21 0 
L 10.6875 0 
z
" id="DejaVuSans-46"/>
       </defs>
       <use xlink:href="#DejaVuSans-48"/>
       <use x="63.623047" xlink:href="#DejaVuSans-46"/>
       <use x="95.410156" xlink:href="#DejaVuSans-48"/>
      </g>
     </g>
    </g>
    <g id="ytick_2">
     <g id="line2d_19">
      <path clip-path="url(#pd323aa04f5)" d="M 57.6 240.431525 
L 338.688 240.431525 
" style="fill:none;stroke:#b0b0b0;stroke-linecap:square;stroke-width:0.8;"/>
     </g>
     <g id="line2d_20">
      <g>
       <use style="stroke:#000000;stroke-width:0.8;" x="57.6" xlink:href="#m27fa76bcfa" y="240.431525"/>
      </g>
     </g>
     <g id="text_7">
      <!-- 0.2 -->
      <g transform="translate(25.155 246.510275)scale(0.16 -0.16)">
       <use xlink:href="#DejaVuSans-48"/>
       <use x="63.623047" xlink:href="#DejaVuSans-46"/>
       <use x="95.410156" xlink:href="#DejaVuSans-50"/>
      </g>
     </g>
    </g>
    <g id="ytick_3">
     <g id="line2d_21">
      <path clip-path="url(#pd323aa04f5)" d="M 57.6 181.91905 
L 338.688 181.91905 
" style="fill:none;stroke:#b0b0b0;stroke-linecap:square;stroke-width:0.8;"/>
     </g>
     <g id="line2d_22">
      <g>
       <use style="stroke:#000000;stroke-width:0.8;" x="57.6" xlink:href="#m27fa76bcfa" y="181.91905"/>
      </g>
     </g>
     <g id="text_8">
      <!-- 0.4 -->
      <g transform="translate(25.155 187.9978)scale(0.16 -0.16)">
       <use xlink:href="#DejaVuSans-48"/>
       <use x="63.623047" xlink:href="#DejaVuSans-46"/>
       <use x="95.410156" xlink:href="#DejaVuSans-52"/>
      </g>
     </g>
    </g>
    <g id="ytick_4">
     <g id="line2d_23">
      <path clip-path="url(#pd323aa04f5)" d="M 57.6 123.406574 
L 338.688 123.406574 
" style="fill:none;stroke:#b0b0b0;stroke-linecap:square;stroke-width:0.8;"/>
     </g>
     <g id="line2d_24">
      <g>
       <use style="stroke:#000000;stroke-width:0.8;" x="57.6" xlink:href="#m27fa76bcfa" y="123.406574"/>
      </g>
     </g>
     <g id="text_9">
      <!-- 0.6 -->
      <g transform="translate(25.155 129.485324)scale(0.16 -0.16)">
       <use xlink:href="#DejaVuSans-48"/>
       <use x="63.623047" xlink:href="#DejaVuSans-46"/>
       <use x="95.410156" xlink:href="#DejaVuSans-54"/>
      </g>
     </g>
    </g>
    <g id="ytick_5">
     <g id="line2d_25">
      <path clip-path="url(#pd323aa04f5)" d="M 57.6 64.894099 
L 338.688 64.894099 
" style="fill:none;stroke:#b0b0b0;stroke-linecap:square;stroke-width:0.8;"/>
     </g>
     <g id="line2d_26">
      <g>
       <use style="stroke:#000000;stroke-width:0.8;" x="57.6" xlink:href="#m27fa76bcfa" y="64.894099"/>
      </g>
     </g>
     <g id="text_10">
      <!-- 0.8 -->
      <g transform="translate(25.155 70.972849)scale(0.16 -0.16)">
       <defs>
        <path d="M 31.78125 34.625 
Q 24.75 34.625 20.71875 30.859375 
Q 16.703125 27.09375 16.703125 20.515625 
Q 16.703125 13.921875 20.71875 10.15625 
Q 24.75 6.390625 31.78125 6.390625 
Q 38.8125 6.390625 42.859375 10.171875 
Q 46.921875 13.96875 46.921875 20.515625 
Q 46.921875 27.09375 42.890625 30.859375 
Q 38.875 34.625 31.78125 34.625 
z
M 21.921875 38.8125 
Q 15.578125 40.375 12.03125 44.71875 
Q 8.5 49.078125 8.5 55.328125 
Q 8.5 64.0625 14.71875 69.140625 
Q 20.953125 74.21875 31.78125 74.21875 
Q 42.671875 74.21875 48.875 69.140625 
Q 55.078125 64.0625 55.078125 55.328125 
Q 55.078125 49.078125 51.53125 44.71875 
Q 48 40.375 41.703125 38.8125 
Q 48.828125 37.15625 52.796875 32.3125 
Q 56.78125 27.484375 56.78125 20.515625 
Q 56.78125 9.90625 50.3125 4.234375 
Q 43.84375 -1.421875 31.78125 -1.421875 
Q 19.734375 -1.421875 13.25 4.234375 
Q 6.78125 9.90625 6.78125 20.515625 
Q 6.78125 27.484375 10.78125 32.3125 
Q 14.796875 37.15625 21.921875 38.8125 
z
M 18.3125 54.390625 
Q 18.3125 48.734375 21.84375 45.5625 
Q 25.390625 42.390625 31.78125 42.390625 
Q 38.140625 42.390625 41.71875 45.5625 
Q 45.3125 48.734375 45.3125 54.390625 
Q 45.3125 60.0625 41.71875 63.234375 
Q 38.140625 66.40625 31.78125 66.40625 
Q 25.390625 66.40625 21.84375 63.234375 
Q 18.3125 60.0625 18.3125 54.390625 
z
" id="DejaVuSans-56"/>
       </defs>
       <use xlink:href="#DejaVuSans-48"/>
       <use x="63.623047" xlink:href="#DejaVuSans-46"/>
       <use x="95.410156" xlink:href="#DejaVuSans-56"/>
      </g>
     </g>
    </g>
    <g id="ytick_6">
     <g id="line2d_27">
      <path clip-path="url(#pd323aa04f5)" d="M 57.6 6.381624 
L 338.688 6.381624 
" style="fill:none;stroke:#b0b0b0;stroke-linecap:square;stroke-width:0.8;"/>
     </g>
     <g id="line2d_28">
      <g>
       <use style="stroke:#000000;stroke-width:0.8;" x="57.6" xlink:href="#m27fa76bcfa" y="6.381624"/>
      </g>
     </g>
     <g id="text_11">
      <!-- 1.0 -->
      <g transform="translate(25.155 12.460374)scale(0.16 -0.16)">
       <use xlink:href="#DejaVuSans-49"/>
       <use x="63.623047" xlink:href="#DejaVuSans-46"/>
       <use x="95.410156" xlink:href="#DejaVuSans-48"/>
      </g>
     </g>
    </g>
    <g id="text_12">
     <!-- Fraction of function,target pairs -->
     <g transform="translate(17.619531 285.585)rotate(-90)scale(0.17 -0.17)">
      <defs>
       <path d="M 9.8125 72.90625 
L 51.703125 72.90625 
L 51.703125 64.59375 
L 19.671875 64.59375 
L 19.671875 43.109375 
L 48.578125 43.109375 
L 48.578125 34.8125 
L 19.671875 34.8125 
L 19.671875 0 
L 9.8125 0 
z
" id="DejaVuSans-70"/>
       <path d="M 41.109375 46.296875 
Q 39.59375 47.171875 37.8125 47.578125 
Q 36.03125 48 33.890625 48 
Q 26.265625 48 22.1875 43.046875 
Q 18.109375 38.09375 18.109375 28.8125 
L 18.109375 0 
L 9.078125 0 
L 9.078125 54.6875 
L 18.109375 54.6875 
L 18.109375 46.1875 
Q 20.953125 51.171875 25.484375 53.578125 
Q 30.03125 56 36.53125 56 
Q 37.453125 56 38.578125 55.875 
Q 39.703125 55.765625 41.0625 55.515625 
z
" id="DejaVuSans-114"/>
       <path d="M 48.78125 52.59375 
L 48.78125 44.1875 
Q 44.96875 46.296875 41.140625 47.34375 
Q 37.3125 48.390625 33.40625 48.390625 
Q 24.65625 48.390625 19.8125 42.84375 
Q 14.984375 37.3125 14.984375 27.296875 
Q 14.984375 17.28125 19.8125 11.734375 
Q 24.65625 6.203125 33.40625 6.203125 
Q 37.3125 6.203125 41.140625 7.25 
Q 44.96875 8.296875 48.78125 10.40625 
L 48.78125 2.09375 
Q 45.015625 0.34375 40.984375 -0.53125 
Q 36.96875 -1.421875 32.421875 -1.421875 
Q 20.0625 -1.421875 12.78125 6.34375 
Q 5.515625 14.109375 5.515625 27.296875 
Q 5.515625 40.671875 12.859375 48.328125 
Q 20.21875 56 33.015625 56 
Q 37.15625 56 41.109375 55.140625 
Q 45.0625 54.296875 48.78125 52.59375 
z
" id="DejaVuSans-99"/>
       <path d="M 18.3125 70.21875 
L 18.3125 54.6875 
L 36.8125 54.6875 
L 36.8125 47.703125 
L 18.3125 47.703125 
L 18.3125 18.015625 
Q 18.3125 11.328125 20.140625 9.421875 
Q 21.96875 7.515625 27.59375 7.515625 
L 36.8125 7.515625 
L 36.8125 0 
L 27.59375 0 
Q 17.1875 0 13.234375 3.875 
Q 9.28125 7.765625 9.28125 18.015625 
L 9.28125 47.703125 
L 2.6875 47.703125 
L 2.6875 54.6875 
L 9.28125 54.6875 
L 9.28125 70.21875 
z
" id="DejaVuSans-116"/>
       <path d="M 8.5 21.578125 
L 8.5 54.6875 
L 17.484375 54.6875 
L 17.484375 21.921875 
Q 17.484375 14.15625 20.5 10.265625 
Q 23.53125 6.390625 29.59375 6.390625 
Q 36.859375 6.390625 41.078125 11.03125 
Q 45.3125 15.671875 45.3125 23.6875 
L 45.3125 54.6875 
L 54.296875 54.6875 
L 54.296875 0 
L 45.3125 0 
L 45.3125 8.40625 
Q 42.046875 3.421875 37.71875 1 
Q 33.40625 -1.421875 27.6875 -1.421875 
Q 18.265625 -1.421875 13.375 4.4375 
Q 8.5 10.296875 8.5 21.578125 
z
M 31.109375 56 
z
" id="DejaVuSans-117"/>
       <path d="M 11.71875 12.40625 
L 22.015625 12.40625 
L 22.015625 4 
L 14.015625 -11.625 
L 7.71875 -11.625 
L 11.71875 4 
z
" id="DejaVuSans-44"/>
       <path d="M 18.109375 8.203125 
L 18.109375 -20.796875 
L 9.078125 -20.796875 
L 9.078125 54.6875 
L 18.109375 54.6875 
L 18.109375 46.390625 
Q 20.953125 51.265625 25.265625 53.625 
Q 29.59375 56 35.59375 56 
Q 45.5625 56 51.78125 48.09375 
Q 58.015625 40.1875 58.015625 27.296875 
Q 58.015625 14.40625 51.78125 6.484375 
Q 45.5625 -1.421875 35.59375 -1.421875 
Q 29.59375 -1.421875 25.265625 0.953125 
Q 20.953125 3.328125 18.109375 8.203125 
z
M 48.6875 27.296875 
Q 48.6875 37.203125 44.609375 42.84375 
Q 40.53125 48.484375 33.40625 48.484375 
Q 26.265625 48.484375 22.1875 42.84375 
Q 18.109375 37.203125 18.109375 27.296875 
Q 18.109375 17.390625 22.1875 11.75 
Q 26.265625 6.109375 33.40625 6.109375 
Q 40.53125 6.109375 44.609375 11.75 
Q 48.6875 17.390625 48.6875 27.296875 
z
" id="DejaVuSans-112"/>
      </defs>
      <use xlink:href="#DejaVuSans-70"/>
      <use x="50.269531" xlink:href="#DejaVuSans-114"/>
      <use x="91.382812" xlink:href="#DejaVuSans-97"/>
      <use x="152.662109" xlink:href="#DejaVuSans-99"/>
      <use x="207.642578" xlink:href="#DejaVuSans-116"/>
      <use x="246.851562" xlink:href="#DejaVuSans-105"/>
      <use x="274.634766" xlink:href="#DejaVuSans-111"/>
      <use x="335.816406" xlink:href="#DejaVuSans-110"/>
      <use x="399.195312" xlink:href="#DejaVuSans-32"/>
      <use x="430.982422" xlink:href="#DejaVuSans-111"/>
      <use x="492.164062" xlink:href="#DejaVuSans-102"/>
      <use x="527.369141" xlink:href="#DejaVuSans-32"/>
      <use x="559.15625" xlink:href="#DejaVuSans-102"/>
      <use x="594.361328" xlink:href="#DejaVuSans-117"/>
      <use x="657.740234" xlink:href="#DejaVuSans-110"/>
      <use x="721.119141" xlink:href="#DejaVuSans-99"/>
      <use x="776.099609" xlink:href="#DejaVuSans-116"/>
      <use x="815.308594" xlink:href="#DejaVuSans-105"/>
      <use x="843.091797" xlink:href="#DejaVuSans-111"/>
      <use x="904.273438" xlink:href="#DejaVuSans-110"/>
      <use x="967.652344" xlink:href="#DejaVuSans-44"/>
      <use x="999.439453" xlink:href="#DejaVuSans-116"/>
      <use x="1038.648438" xlink:href="#DejaVuSans-97"/>
      <use x="1099.927734" xlink:href="#DejaVuSans-114"/>
      <use x="1139.291016" xlink:href="#DejaVuSans-103"/>
      <use x="1202.767578" xlink:href="#DejaVuSans-101"/>
      <use x="1264.291016" xlink:href="#DejaVuSans-116"/>
      <use x="1303.5" xlink:href="#DejaVuSans-32"/>
      <use x="1335.287109" xlink:href="#DejaVuSans-112"/>
      <use x="1398.763672" xlink:href="#DejaVuSans-97"/>
      <use x="1460.042969" xlink:href="#DejaVuSans-105"/>
      <use x="1487.826172" xlink:href="#DejaVuSans-114"/>
      <use x="1528.939453" xlink:href="#DejaVuSans-115"/>
     </g>
    </g>
   </g>
   <g id="line2d_29">
    <defs>
     <path d="M 0 1.5 
C 0.397805 1.5 0.77937 1.341951 1.06066 1.06066 
C 1.341951 0.77937 1.5 0.397805 1.5 0 
C 1.5 -0.397805 1.341951 -0.77937 1.06066 -1.06066 
C 0.77937 -1.341951 0.397805 -1.5 0 -1.5 
C -0.397805 -1.5 -0.77937 -1.341951 -1.06066 -1.06066 
C -1.341951 -0.77937 -1.5 -0.397805 -1.5 0 
C -1.5 0.397805 -1.341951 0.77937 -1.06066 1.06066 
C -0.77937 1.341951 -0.397805 1.5 0 1.5 
z
" id="m7303d24ed1" style="stroke:#000080;"/>
    </defs>
    <g>
     <use style="fill:#000080;stroke:#000080;" x="154.607795" xlink:href="#m7303d24ed1" y="6.381624"/>
     <use style="fill:#000080;stroke:#000080;" x="154.607795" xlink:href="#m7303d24ed1" y="6.381624"/>
    </g>
   </g>
   <g id="line2d_30">
    <path d="M 85.66744 298.944 
L 85.66744 295.614022 
L 88.846997 295.614022 
L 88.846997 292.521899 
L 91.535274 292.521899 
L 91.535274 287.764787 
L 93.863965 287.764787 
L 93.863965 280.866975 
L 95.918017 280.866975 
L 95.918017 276.109863 
L 97.755429 276.109863 
L 97.755429 272.542029 
L 99.41757 272.542029 
L 99.41757 267.309206 
L 100.934985 267.309206 
L 100.934985 265.406362 
L 102.330873 265.406362 
L 102.330873 258.746405 
L 103.623262 258.746405 
L 103.623262 247.091481 
L 104.826449 247.091481 
L 104.826449 236.150124 
L 105.951954 236.150124 
L 105.951954 226.398045 
L 107.009204 226.398045 
L 107.009204 217.597388 
L 108.006005 217.597388 
L 108.006005 204.991042 
L 108.948899 204.991042 
L 108.948899 198.09323 
L 109.843417 198.09323 
L 109.843417 185.962595 
L 110.694282 185.962595 
L 110.694282 178.826927 
L 111.505558 178.826927 
L 111.505558 171.453404 
L 112.280765 171.453404 
L 112.280765 164.555591 
L 113.022974 164.555591 
L 113.022974 149.808545 
L 113.73488 149.808545 
L 113.73488 141.95931 
L 114.418861 141.95931 
L 114.418861 132.920798 
L 115.077025 132.920798 
L 115.077025 126.498697 
L 115.711251 126.498697 
L 115.711251 119.125174 
L 116.323218 119.125174 
L 116.323218 113.416639 
L 116.914437 113.416639 
L 116.914437 103.426705 
L 117.486268 103.426705 
L 117.486268 97.242459 
L 118.039942 97.242459 
L 118.039942 85.825391 
L 118.576578 85.825391 
L 118.576578 77.024734 
L 119.097192 77.024734 
L 119.097192 75.597601 
L 119.602714 75.597601 
L 119.602714 72.029767 
L 120.093994 72.029767 
L 120.093994 71.3162 
L 120.571812 71.3162 
L 120.571812 67.034799 
L 121.036887 67.034799 
L 121.036887 62.753399 
L 121.489881 62.753399 
L 121.489881 60.612698 
L 121.931406 60.612698 
L 121.931406 56.807009 
L 122.782271 56.807009 
L 122.782271 56.331298 
L 123.192626 56.331298 
L 123.192626 55.617731 
L 123.593547 55.617731 
L 123.593547 54.904164 
L 123.985457 54.904164 
L 123.985457 53.239175 
L 124.368753 53.239175 
L 124.368753 52.525608 
L 125.110962 52.525608 
L 125.110962 52.287753 
L 137.289545 52.287753 
L 137.289545 51.098475 
L 138.170504 51.098475 
L 138.170504 50.860619 
L 138.510793 50.860619 
L 138.510793 49.909197 
L 138.67848 49.909197 
L 138.67848 47.292785 
L 138.84457 47.292785 
L 138.84457 44.200663 
L 139.009092 44.200663 
L 139.009092 41.822107 
L 139.333553 41.822107 
L 139.333553 40.870684 
L 139.652088 40.870684 
L 139.652088 38.254273 
L 139.8092 38.254273 
L 139.8092 35.637861 
L 140.11924 35.637861 
L 140.11924 32.070028 
L 140.574203 32.070028 
L 140.574203 30.88075 
L 141.017599 30.88075 
L 141.017599 30.642894 
L 141.162927 30.642894 
L 141.162927 30.167183 
L 141.307054 30.167183 
L 141.307054 29.21576 
L 141.45 29.21576 
L 141.45 28.026482 
L 141.591783 28.026482 
L 141.591783 22.080093 
L 142.010346 22.080093 
L 142.010346 20.890815 
L 142.283909 20.890815 
L 142.283909 20.177248 
L 142.419098 20.177248 
L 142.419098 19.463681 
L 142.553247 19.463681 
L 142.553247 15.895847 
L 143.464461 15.895847 
L 143.464461 15.657992 
L 152.168773 15.657992 
L 152.245598 13.755147 
L 152.922207 13.755147 
L 152.995791 11.614447 
L 153.287059 11.614447 
L 153.287059 11.138736 
L 153.430889 11.138736 
L 153.430889 10.187313 
L 153.785358 10.187313 
L 153.855395 9.235891 
L 153.994632 9.235891 
L 153.994632 8.284468 
L 154.201424 8.284468 
L 154.269814 6.619479 
L 154.607795 6.619479 
L 154.607795 6.381624 
L 338.688 6.381624 
L 338.688 6.381624 
" style="fill:none;stroke:#000080;stroke-linecap:square;stroke-width:1.5;"/>
   </g>
   <g id="line2d_31">
    <defs>
     <path d="M 0 6 
C 1.591219 6 3.117479 5.367802 4.242641 4.242641 
C 5.367802 3.117479 6 1.591219 6 0 
C 6 -1.591219 5.367802 -3.117479 4.242641 -4.242641 
C 3.117479 -5.367802 1.591219 -6 0 -6 
C -1.591219 -6 -3.117479 -5.367802 -4.242641 -4.242641 
C -5.367802 -3.117479 -6 -1.591219 -6 0 
C -6 1.591219 -5.367802 3.117479 -4.242641 4.242641 
C -3.117479 5.367802 -1.591219 6 0 6 
z
" id="m6061a64a34" style="stroke:#000080;stroke-width:1.5;"/>
    </defs>
    <g>
     <use style="fill-opacity:0;stroke:#000080;stroke-width:1.5;" x="112.280765" xlink:href="#m6061a64a34" y="164.555591"/>
     <use style="fill-opacity:0;stroke:#000080;stroke-width:1.5;" x="141.307054" xlink:href="#m6061a64a34" y="30.167183"/>
     <use style="fill-opacity:0;stroke:#000080;stroke-width:1.5;" x="154.607795" xlink:href="#m6061a64a34" y="6.381624"/>
     <use style="fill-opacity:0;stroke:#000080;stroke-width:1.5;" x="154.607795" xlink:href="#m6061a64a34" y="6.381624"/>
     <use style="fill-opacity:0;stroke:#000080;stroke-width:1.5;" x="338.688" xlink:href="#m6061a64a34" y="6.381624"/>
    </g>
   </g>
   <g id="line2d_32">
    <path style="fill:none;stroke:#000080;stroke-linecap:square;stroke-width:1.5;"/>
    <g/>
   </g>
   <g id="line2d_33">
    <defs>
     <path d="M 0 1.5 
C 0.397805 1.5 0.77937 1.341951 1.06066 1.06066 
C 1.341951 0.77937 1.5 0.397805 1.5 0 
C 1.5 -0.397805 1.341951 -0.77937 1.06066 -1.06066 
C 0.77937 -1.341951 0.397805 -1.5 0 -1.5 
C -0.397805 -1.5 -0.77937 -1.341951 -1.06066 -1.06066 
C -1.341951 -0.77937 -1.5 -0.397805 -1.5 0 
C -1.5 0.397805 -1.341951 0.77937 -1.06066 1.06066 
C -0.77937 1.341951 -0.397805 1.5 0 1.5 
z
" id="m231aafbe4c" style="stroke:#ff00ff;"/>
    </defs>
    <g>
     <use style="fill:#ff00ff;stroke:#ff00ff;" x="194.595051" xlink:href="#m231aafbe4c" y="6.381624"/>
     <use style="fill:#ff00ff;stroke:#ff00ff;" x="194.595051" xlink:href="#m231aafbe4c" y="6.381624"/>
    </g>
   </g>
   <g id="line2d_34">
    <path d="M 93.863965 298.944 
L 93.863965 298.706144 
L 95.918017 298.706144 
L 95.918017 298.468289 
L 102.330873 298.468289 
L 102.330873 298.230433 
L 111.505558 298.230433 
L 111.505558 297.992578 
L 129.002426 297.992578 
L 129.002426 296.565444 
L 130.664567 296.565444 
L 130.664567 295.614022 
L 131.439773 295.614022 
L 131.439773 294.900455 
L 131.690703 294.900455 
L 131.690703 292.521899 
L 132.181982 292.521899 
L 132.181982 290.381199 
L 132.893889 290.381199 
L 132.893889 290.143343 
L 133.124876 290.143343 
L 133.124876 288.002643 
L 133.352844 288.002643 
L 133.352844 287.526932 
L 133.57787 287.526932 
L 133.57787 287.289076 
L 133.800029 287.289076 
L 133.800029 285.861943 
L 134.019394 285.861943 
L 134.019394 283.959098 
L 134.661403 283.959098 
L 134.661403 283.007675 
L 134.870259 283.007675 
L 134.870259 281.818397 
L 135.280614 281.818397 
L 135.280614 281.580542 
L 135.482227 281.580542 
L 135.482227 280.391264 
L 135.878591 280.391264 
L 135.878591 279.201986 
L 136.073445 279.201986 
L 136.073445 278.488419 
L 136.266147 278.488419 
L 136.266147 278.250564 
L 136.456742 278.250564 
L 136.456742 277.061286 
L 136.831795 277.061286 
L 136.831795 276.347719 
L 137.016339 276.347719 
L 137.016339 275.634152 
L 137.198951 275.634152 
L 137.198951 273.969163 
L 137.37967 273.969163 
L 137.37967 273.255596 
L 137.558536 273.255596 
L 137.558536 270.401329 
L 137.735587 270.401329 
L 137.735587 266.357784 
L 137.910857 266.357784 
L 137.910857 262.78995 
L 138.084384 262.78995 
L 138.084384 261.838528 
L 138.256201 261.838528 
L 138.256201 260.887106 
L 138.426341 260.887106 
L 138.426341 259.935683 
L 138.594838 259.935683 
L 138.594838 259.459972 
L 138.761723 259.459972 
L 138.761723 257.794983 
L 138.927025 257.794983 
L 138.927025 255.178571 
L 139.090775 255.178571 
L 139.090775 254.465005 
L 139.253002 254.465005 
L 139.253002 252.324304 
L 139.413734 252.324304 
L 139.413734 251.135026 
L 139.572998 251.135026 
L 139.572998 247.091481 
L 139.730821 247.091481 
L 139.730821 246.377915 
L 139.887228 246.377915 
L 139.887228 245.188637 
L 140.042245 245.188637 
L 140.042245 244.950781 
L 140.195896 244.950781 
L 140.195896 244.237214 
L 140.348205 244.237214 
L 140.348205 243.761503 
L 140.499195 243.761503 
L 140.499195 242.810081 
L 140.79731 242.810081 
L 140.79731 241.382947 
L 140.944478 241.382947 
L 140.944478 240.66938 
L 141.235139 240.66938 
L 141.235139 239.717958 
L 141.378673 239.717958 
L 141.378673 238.052969 
L 141.521035 238.052969 
L 141.521035 237.339402 
L 141.662245 237.339402 
L 141.662245 236.150124 
L 141.80232 236.150124 
L 141.80232 235.674413 
L 141.941279 235.674413 
L 141.941279 234.485135 
L 142.07914 234.485135 
L 142.07914 233.533713 
L 142.215919 233.533713 
L 142.215919 232.820146 
L 142.486301 232.820146 
L 142.486301 231.630868 
L 142.619936 231.630868 
L 142.619936 230.44159 
L 142.752555 230.44159 
L 142.818488 227.587323 
L 143.014805 227.587323 
L 143.014805 227.111612 
L 143.144465 227.111612 
L 143.144465 226.160189 
L 143.273169 226.160189 
L 143.273169 225.446623 
L 143.40093 225.446623 
L 143.40093 224.733056 
L 143.527762 224.733056 
L 143.527762 223.781633 
L 143.778691 223.781633 
L 143.778691 222.3545 
L 143.902815 222.3545 
L 143.902815 220.689511 
L 144.026061 220.689511 
L 144.026061 219.975944 
L 144.269971 219.975944 
L 144.269971 219.024522 
L 144.390658 219.024522 
L 144.390658 218.54881 
L 144.510517 218.54881 
L 144.510517 217.835244 
L 144.629556 217.835244 
L 144.629556 216.170255 
L 144.865226 216.170255 
L 144.865226 214.980977 
L 145.097753 214.980977 
L 145.097753 213.315987 
L 145.440832 213.315987 
L 145.440832 213.078132 
L 145.553708 213.078132 
L 145.553708 212.126709 
L 145.665858 212.126709 
L 145.665858 211.175287 
L 145.888018 211.175287 
L 145.998045 208.558876 
L 146.216039 208.558876 
L 146.324022 206.656031 
L 146.644018 206.656031 
L 146.749392 204.753186 
L 146.854132 204.753186 
L 146.958248 203.326053 
L 147.061745 203.326053 
L 147.164632 201.661064 
L 147.266916 201.661064 
L 147.266916 200.471786 
L 147.4697 200.471786 
L 147.570215 199.520363 
L 147.670154 199.520363 
L 147.769524 197.141807 
L 147.96658 197.141807 
L 147.96658 195.952529 
L 148.354135 195.952529 
L 148.354135 195.476818 
L 148.639252 195.476818 
L 148.639252 193.098262 
L 148.966103 193.098262 
L 149.012299 190.481851 
L 149.104327 190.481851 
L 149.195872 189.054717 
L 149.286939 189.054717 
L 149.286939 186.914017 
L 149.467659 186.914017 
L 149.467659 185.486883 
L 149.646525 185.486883 
L 149.735275 184.05975 
L 149.823575 184.05975 
L 149.823575 182.632616 
L 149.998846 182.632616 
L 150.085825 181.681194 
L 150.172372 181.681194 
L 150.172372 179.540494 
L 150.429467 179.540494 
L 150.429467 178.826927 
L 150.682827 178.826927 
L 150.766468 177.875504 
L 150.849711 177.875504 
L 150.932558 176.448371 
L 151.178764 176.448371 
L 151.260066 172.880537 
L 151.421542 172.880537 
L 151.501723 171.453404 
L 151.581536 171.453404 
L 151.660987 170.264126 
L 151.740076 170.264126 
L 151.740076 166.696292 
L 151.975216 166.696292 
L 151.975216 164.317736 
L 152.283884 164.317736 
L 152.360205 163.842025 
L 152.436193 163.842025 
L 152.474064 162.890602 
L 152.662192 162.890602 
L 152.662192 162.414891 
L 152.811246 162.414891 
L 152.885298 161.463469 
L 153.105587 161.463469 
L 153.178403 160.512046 
L 153.323128 160.512046 
L 153.395042 159.084913 
L 153.466662 159.084913 
L 153.537988 157.895635 
L 153.609024 157.895635 
L 153.609024 157.657779 
L 153.750233 157.657779 
L 153.750233 157.182068 
L 153.959927 157.182068 
L 153.959927 156.468501 
L 154.098334 156.468501 
L 154.098334 156.230646 
L 154.235652 156.230646 
L 154.303908 155.517079 
L 154.371897 155.517079 
L 154.371897 155.279223 
L 154.57429 155.279223 
L 154.57429 155.041368 
L 154.707925 155.041368 
L 154.77436 153.614234 
L 154.840544 153.614234 
L 154.906477 151.71139 
L 154.972161 151.71139 
L 155.004911 149.808545 
L 155.102793 149.808545 
L 155.167744 149.332834 
L 155.232454 149.332834 
L 155.232454 149.094978 
L 155.361158 149.094978 
L 155.361158 148.619267 
L 155.55245 148.619267 
L 155.55245 146.716422 
L 155.678822 146.716422 
L 155.678822 146.478567 
L 155.804285 146.478567 
L 155.804285 146.002855 
L 155.990803 146.002855 
L 156.052535 144.575722 
L 156.114049 144.575722 
L 156.175347 140.532177 
L 156.297301 140.532177 
L 156.357959 139.81861 
L 156.478647 139.81861 
L 156.538679 136.964343 
L 156.598505 136.964343 
L 156.598505 136.726487 
L 156.717545 136.726487 
L 156.776762 134.585787 
L 156.894595 134.585787 
L 156.953214 132.682942 
L 157.011638 132.682942 
L 157.011638 131.969376 
L 157.185742 131.969376 
L 157.243392 131.255809 
L 157.300853 131.255809 
L 157.300853 129.828675 
L 157.415209 129.828675 
L 157.415209 128.163686 
L 157.528821 128.163686 
L 157.58535 126.498697 
L 157.641697 126.498697 
L 157.697862 125.547275 
L 157.753847 125.547275 
L 157.809652 124.833708 
L 157.86528 124.833708 
L 157.86528 124.120141 
L 158.412011 124.120141 
L 158.412011 123.882285 
L 158.942121 123.882285 
L 158.994256 121.979441 
L 159.149734 121.979441 
L 159.201253 121.50373 
L 159.354904 121.50373 
L 159.456591 120.314452 
L 159.507213 120.314452 
L 159.507213 120.076596 
L 159.658204 120.076596 
L 159.658204 119.600885 
L 159.857512 119.600885 
L 159.956318 117.935896 
L 160.005512 117.935896 
L 160.103486 114.843773 
L 160.200913 114.843773 
L 160.297798 113.892351 
L 160.442124 113.892351 
L 160.537682 111.75165 
L 160.585265 111.75165 
L 160.680044 110.086661 
L 160.821253 110.086661 
L 160.821253 109.61095 
L 160.961329 109.61095 
L 161.054091 108.421672 
L 161.100288 108.421672 
L 161.100288 105.567405 
L 161.238149 105.567405 
L 161.238149 105.329549 
L 161.374928 105.329549 
L 161.465522 104.140271 
L 161.867469 104.140271 
L 161.911563 102.950993 
L 161.999419 102.950993 
L 162.086834 98.907448 
L 162.130378 98.907448 
L 162.173813 97.480315 
L 162.303474 97.480315 
L 162.303474 97.242459 
L 162.474869 97.242459 
L 162.581141 94.863903 
L 162.728843 94.863903 
L 162.770815 93.674625 
L 162.854457 93.674625 
L 162.9377 92.247492 
L 162.979172 92.247492 
L 163.061823 90.582503 
L 163.348054 90.582503 
L 163.348054 90.344647 
L 163.629664 90.344647 
L 163.669525 87.252525 
L 163.788565 87.252525 
L 163.828065 85.587535 
L 163.906798 85.587535 
L 163.985177 84.636113 
L 164.063205 84.636113 
L 164.102088 83.208979 
L 164.218222 83.208979 
L 164.256762 81.781846 
L 164.371873 81.781846 
L 164.410075 79.641146 
L 164.637547 79.641146 
L 164.637547 78.214012 
L 164.86209 78.214012 
L 164.86209 77.024734 
L 165.083779 77.024734 
L 165.083779 75.359745 
L 165.230021 75.359745 
L 165.338904 73.694756 
L 165.447111 73.694756 
L 165.447111 73.219045 
L 165.661531 73.219045 
L 165.76776 70.602633 
L 165.838222 70.602633 
L 165.943384 68.461933 
L 165.978297 68.461933 
L 165.978297 66.796944 
L 166.151824 66.796944 
L 166.186323 65.607666 
L 166.289413 65.607666 
L 166.289413 63.466965 
L 166.425924 63.466965 
L 166.493781 62.991254 
L 166.595075 62.991254 
L 166.695783 61.564121 
L 166.729224 61.564121 
L 166.829163 60.612698 
L 166.862349 60.612698 
L 166.96153 59.42342 
L 166.994465 59.42342 
L 167.027338 58.709854 
L 167.255733 58.709854 
L 167.352708 58.234142 
L 167.513144 58.234142 
L 167.513144 57.996287 
L 167.735303 57.996287 
L 167.829655 57.28272 
L 167.860992 57.28272 
L 167.860992 57.044865 
L 167.985782 57.044865 
L 168.078792 55.617731 
L 168.109685 55.617731 
L 168.202038 54.428453 
L 168.293904 54.428453 
L 168.324419 53.477031 
L 168.415645 53.477031 
L 168.415645 53.239175 
L 168.656606 53.239175 
L 168.656606 52.525608 
L 168.77585 52.525608 
L 168.86475 51.33633 
L 168.923766 51.33633 
L 169.011918 50.147052 
L 169.041203 50.147052 
L 169.041203 49.909197 
L 169.27373 49.909197 
L 169.27373 49.671341 
L 169.53167 49.671341 
L 169.616809 48.719919 
L 169.78585 48.719919 
L 169.78585 48.244208 
L 169.897641 48.244208 
L 170.008719 47.05493 
L 170.119095 47.05493 
L 170.201421 46.341363 
L 170.28336 46.341363 
L 170.28336 46.103507 
L 170.446091 46.103507 
L 170.553741 45.389941 
L 170.740545 45.389941 
L 170.740545 45.152085 
L 170.872762 45.152085 
L 170.872762 44.676374 
L 171.211906 44.676374 
L 171.314944 43.724951 
L 171.46837 43.724951 
L 171.569909 41.584251 
L 171.595202 41.584251 
L 171.620458 40.632829 
L 171.721118 40.632829 
L 171.721118 40.157118 
L 172.068921 40.157118 
L 172.093501 39.205695 
L 172.264595 39.205695 
L 172.264595 38.96784 
L 172.409924 38.96784 
L 172.434028 38.254273 
L 172.815229 38.254273 
L 172.909242 37.540706 
L 173.072554 37.540706 
L 173.09576 36.827139 
L 173.188276 36.827139 
L 173.280304 36.113573 
L 173.349008 36.113573 
L 173.440194 35.16215 
L 173.508272 35.16215 
L 173.508272 33.972872 
L 173.710926 33.972872 
L 173.777957 33.02145 
L 174.305129 33.02145 
L 174.391462 32.545739 
L 174.562857 32.545739 
L 174.584164 32.070028 
L 174.795808 32.070028 
L 174.879752 31.356461 
L 174.984116 31.356461 
L 174.984116 30.88075 
L 175.252577 30.88075 
L 175.252577 30.405038 
L 176.34475 30.405038 
L 176.34475 30.167183 
L 176.687829 30.167183 
L 176.744358 29.691472 
L 176.85687 29.691472 
L 176.85687 29.453616 
L 177.135015 29.453616 
L 177.135015 28.977905 
L 177.354379 28.977905 
L 177.354379 28.740049 
L 177.642639 28.740049 
L 177.749519 28.026482 
L 178.066286 28.026482 
L 178.170609 26.361493 
L 178.394524 26.361493 
L 178.44579 25.647927 
L 178.649364 25.647927 
L 178.649364 25.410071 
L 179.065994 25.410071 
L 179.065994 23.982937 
L 179.553156 23.982937 
L 179.625071 23.031515 
L 179.775924 23.031515 
L 179.839052 22.080093 
L 179.948981 22.080093 
L 180.011487 19.225826 
L 180.120337 19.225826 
L 180.120337 18.98797 
L 180.669651 18.98797 
L 180.669651 18.512259 
L 180.952739 18.512259 
L 180.952739 18.274403 
L 181.462482 18.274403 
L 181.462482 18.036548 
L 182.220831 18.036548 
L 182.220831 17.560837 
L 183.299894 17.560837 
L 183.299894 17.322981 
L 184.461693 17.322981 
L 184.461693 17.085125 
L 185.044047 17.085125 
L 185.044047 16.609414 
L 185.356816 16.609414 
L 185.368293 16.133703 
L 185.607581 16.133703 
L 185.607581 15.657992 
L 193.877511 15.657992 
L 193.877511 12.803725 
L 194.087541 12.803725 
L 194.136187 11.614447 
L 194.212356 11.614447 
L 194.288194 10.425169 
L 194.363704 10.425169 
L 194.452523 7.570902 
L 194.567993 7.570902 
L 194.595051 6.381624 
L 338.688 6.381624 
L 338.688 6.381624 
" style="fill:none;stroke:#ff00ff;stroke-linecap:square;stroke-width:1.5;"/>
   </g>
   <g id="line2d_35">
    <defs>
     <path d="M -0 8.485281 
L 5.091169 0 
L 0 -8.485281 
L -5.091169 -0 
z
" id="macbdf6ae5d" style="stroke:#ff00ff;stroke-linejoin:miter;stroke-width:1.5;"/>
    </defs>
    <g>
     <use style="fill-opacity:0;stroke:#ff00ff;stroke-linejoin:miter;stroke-width:1.5;" x="140.348205" xlink:href="#macbdf6ae5d" y="244.237214"/>
     <use style="fill-opacity:0;stroke:#ff00ff;stroke-linejoin:miter;stroke-width:1.5;" x="164.637547" xlink:href="#macbdf6ae5d" y="79.641146"/>
     <use style="fill-opacity:0;stroke:#ff00ff;stroke-linejoin:miter;stroke-width:1.5;" x="194.595051" xlink:href="#macbdf6ae5d" y="6.619479"/>
     <use style="fill-opacity:0;stroke:#ff00ff;stroke-linejoin:miter;stroke-width:1.5;" x="194.595051" xlink:href="#macbdf6ae5d" y="6.381624"/>
     <use style="fill-opacity:0;stroke:#ff00ff;stroke-linejoin:miter;stroke-width:1.5;" x="338.688" xlink:href="#macbdf6ae5d" y="6.381624"/>
    </g>
   </g>
   <g id="line2d_36">
    <path style="fill:none;stroke:#ff00ff;stroke-linecap:square;stroke-width:1.5;"/>
    <g/>
   </g>
   <g id="line2d_37">
    <defs>
     <path d="M 0 1.5 
C 0.397805 1.5 0.77937 1.341951 1.06066 1.06066 
C 1.341951 0.77937 1.5 0.397805 1.5 0 
C 1.5 -0.397805 1.341951 -0.77937 1.06066 -1.06066 
C 0.77937 -1.341951 0.397805 -1.5 0 -1.5 
C -0.397805 -1.5 -0.77937 -1.341951 -1.06066 -1.06066 
C -1.341951 -0.77937 -1.5 -0.397805 -1.5 0 
C -1.5 0.397805 -1.341951 0.77937 -1.06066 1.06066 
C -0.77937 1.341951 -0.397805 1.5 0 1.5 
z
" id="mf3e309c250" style="stroke:#ff7500;"/>
    </defs>
    <g>
     <use style="fill:#ff7500;stroke:#ff7500;" x="201.562118" xlink:href="#mf3e309c250" y="6.381624"/>
     <use style="fill:#ff7500;stroke:#ff7500;" x="201.562118" xlink:href="#mf3e309c250" y="6.381624"/>
    </g>
   </g>
   <g id="line2d_38">
    <path d="M 90.242884 298.944 
L 90.242884 298.706144 
L 95.918017 298.706144 
L 95.918017 297.041155 
L 97.755429 297.041155 
L 97.755429 296.565444 
L 100.934985 296.565444 
L 100.934985 296.089733 
L 101.646892 296.089733 
L 101.646892 292.046188 
L 102.989037 292.046188 
L 102.989037 290.85691 
L 105.951954 290.85691 
L 105.951954 290.619054 
L 107.009204 290.619054 
L 107.009204 288.71621 
L 108.948899 288.71621 
L 108.948899 288.478354 
L 109.401893 288.478354 
L 109.401893 285.148376 
L 110.274038 285.148376 
L 110.274038 283.245531 
L 111.897469 283.245531 
L 111.897469 282.531964 
L 112.280765 282.531964 
L 112.280765 282.056253 
L 113.022974 282.056253 
L 113.022974 275.158441 
L 115.397021 275.158441 
L 115.397021 271.114896 
L 116.019919 271.114896 
L 116.019919 270.163474 
L 116.621333 270.163474 
L 116.621333 268.498484 
L 117.486268 268.498484 
L 117.486268 267.784918 
L 118.576578 267.784918 
L 118.576578 266.119929 
L 119.097192 266.119929 
L 119.097192 265.882073 
L 119.351785 265.882073 
L 119.351785 260.887106 
L 120.33454 260.887106 
L 120.33454 258.032838 
L 121.931406 258.032838 
L 121.931406 255.416427 
L 122.573415 255.416427 
L 122.573415 249.945748 
L 122.988655 249.945748 
L 122.988655 249.470037 
L 123.790603 249.470037 
L 123.790603 248.994326 
L 123.985457 248.994326 
L 123.985457 248.042904 
L 124.368753 248.042904 
L 124.368753 246.377915 
L 125.110962 246.377915 
L 125.110962 244.950781 
L 125.291682 244.950781 
L 125.291682 243.523647 
L 125.647598 243.523647 
L 125.647598 243.047936 
L 125.996395 243.047936 
L 125.996395 242.572225 
L 126.338353 242.572225 
L 126.338353 236.625835 
L 126.50685 236.625835 
L 126.50685 235.912269 
L 126.839037 235.912269 
L 126.839037 235.674413 
L 127.002787 235.674413 
L 127.002787 233.771568 
L 127.165014 233.771568 
L 127.165014 232.344435 
L 127.48501 232.344435 
L 127.48501 232.106579 
L 127.642832 232.106579 
L 127.642832 231.393012 
L 127.799239 231.393012 
L 127.799239 229.014456 
L 127.954256 229.014456 
L 127.954256 227.587323 
L 128.107907 227.587323 
L 128.107907 224.257345 
L 128.260216 224.257345 
L 128.260216 223.781633 
L 128.560901 223.781633 
L 128.560901 222.592355 
L 128.709321 222.592355 
L 128.709321 219.024522 
L 128.856489 219.024522 
L 128.856489 217.359532 
L 129.002426 217.359532 
L 129.002426 213.791699 
L 129.290685 213.791699 
L 129.290685 212.364565 
L 129.433047 212.364565 
L 129.433047 211.888854 
L 129.853291 211.888854 
L 129.853291 207.369598 
L 130.263646 207.369598 
L 130.263646 205.942464 
L 130.398313 205.942464 
L 130.398313 205.228897 
L 130.531948 205.228897 
L 130.531948 204.991042 
L 130.664567 204.991042 
L 130.664567 203.563908 
L 130.796184 203.563908 
L 130.796184 200.947497 
L 130.926816 200.947497 
L 130.926816 199.996074 
L 131.185181 199.996074 
L 131.185181 199.044652 
L 131.439773 199.044652 
L 131.439773 198.568941 
L 131.565689 198.568941 
L 131.565689 197.141807 
L 131.690703 197.141807 
L 131.690703 196.428241 
L 131.814826 196.428241 
L 131.814826 195.952529 
L 131.938072 195.952529 
L 131.938072 194.763251 
L 132.060454 194.763251 
L 132.060454 188.816862 
L 132.181982 188.816862 
L 132.181982 188.103295 
L 132.422528 188.103295 
L 132.422528 184.773317 
L 132.541568 184.773317 
L 132.541568 183.346183 
L 132.659801 183.346183 
L 132.659801 181.443338 
L 132.777237 181.443338 
L 132.777237 181.205483 
L 132.893889 181.205483 
L 132.893889 179.778349 
L 133.009765 179.778349 
L 133.009765 178.826927 
L 133.239232 178.826927 
L 133.239232 177.637649 
L 133.352844 177.637649 
L 133.352844 176.448371 
L 133.46572 176.448371 
L 133.46572 175.97266 
L 133.57787 175.97266 
L 133.57787 175.021237 
L 133.689303 175.021237 
L 133.800029 169.074848 
L 133.910056 169.074848 
L 134.019394 166.220581 
L 134.12805 166.220581 
L 134.236034 163.842025 
L 134.450015 163.842025 
L 134.55603 161.463469 
L 134.766144 161.463469 
L 134.870259 158.609202 
L 134.973757 158.609202 
L 135.076644 153.614234 
L 135.280614 153.614234 
L 135.381712 151.235678 
L 135.482227 151.235678 
L 135.582166 148.381411 
L 135.681535 148.381411 
L 135.681535 143.624299 
L 135.97629 143.624299 
L 136.073445 142.435021 
L 136.266147 142.435021 
L 136.361705 138.153621 
L 136.738785 138.153621 
L 136.738785 137.440054 
L 137.016339 137.440054 
L 137.016339 133.158653 
L 137.198951 133.158653 
L 137.198951 131.73152 
L 137.37967 131.73152 
L 137.469333 128.639397 
L 137.558536 128.639397 
L 137.647286 124.120141 
L 137.823442 124.120141 
L 137.823442 121.979441 
L 137.997836 121.979441 
L 138.084384 117.935896 
L 138.170504 117.935896 
L 138.256201 115.319484 
L 138.594838 115.319484 
L 138.594838 115.081629 
L 138.84457 115.081629 
L 138.927025 110.800228 
L 139.413734 110.800228 
L 139.493548 109.373094 
L 139.730821 109.373094 
L 139.730821 107.232394 
L 139.887228 107.232394 
L 139.964909 106.280972 
L 140.499195 106.280972 
L 140.499195 106.043116 
L 140.79731 106.043116 
L 140.79731 104.853838 
L 141.017599 104.853838 
L 141.017599 103.902416 
L 141.235139 103.902416 
L 141.235139 103.66456 
L 141.591783 103.66456 
L 141.662245 100.572438 
L 142.147664 100.572438 
L 142.147664 97.956026 
L 142.419098 97.956026 
L 142.419098 97.71817 
L 142.619936 97.71817 
L 142.619936 96.291037 
L 142.884173 96.291037 
L 142.884173 95.339615 
L 143.014805 95.339615 
L 143.079756 92.247492 
L 143.144465 92.247492 
L 143.144465 91.058214 
L 143.273169 91.058214 
L 143.337167 89.155369 
L 143.527762 89.155369 
L 143.527762 88.441802 
L 143.653678 88.441802 
L 143.716296 86.063247 
L 143.964547 86.063247 
L 143.964547 85.825391 
L 144.330419 85.825391 
L 144.330419 84.398257 
L 144.981877 84.398257 
L 144.981877 82.733268 
L 145.097753 82.733268 
L 145.097753 82.495413 
L 145.270136 82.495413 
L 145.270136 81.54399 
L 145.384119 81.54399 
L 145.384119 78.214012 
L 145.665858 78.214012 
L 145.665858 77.976156 
L 145.777292 77.976156 
L 145.777292 77.738301 
L 146.052799 77.738301 
L 146.052799 75.359745 
L 146.538004 75.359745 
L 146.538004 74.408323 
L 147.061745 74.408323 
L 147.061745 72.029767 
L 148.209809 72.029767 
L 148.209809 70.126922 
L 148.54473 70.126922 
L 148.54473 69.1755 
L 149.823575 69.1755 
L 149.823575 66.559088 
L 150.598782 66.559088 
L 150.598782 64.656243 
L 152.885298 64.656243 
L 152.885298 64.418388 
L 153.142033 64.418388 
L 153.142033 63.466965 
L 153.715038 63.466965 
L 153.715038 60.612698 
L 154.741174 60.612698 
L 154.741174 59.661276 
L 155.488919 59.661276 
L 155.488919 59.185565 
L 155.710272 59.185565 
L 155.710272 57.758431 
L 155.990803 57.758431 
L 155.990803 54.904164 
L 159.633129 54.904164 
L 159.633129 54.190597 
L 160.37011 54.190597 
L 160.37011 51.574186 
L 161.283861 51.574186 
L 161.283861 50.622764 
L 161.442917 50.622764 
L 161.510643 49.19563 
L 161.600536 49.19563 
L 161.667653 48.006352 
L 161.756743 48.006352 
L 161.756743 46.103507 
L 161.955547 46.103507 
L 161.955547 45.627796 
L 162.152109 45.627796 
L 162.152109 45.389941 
L 162.916926 45.389941 
L 162.916926 45.152085 
L 168.923766 45.152085 
L 169.026567 43.724951 
L 169.128764 43.724951 
L 169.128764 40.870684 
L 169.588476 40.870684 
L 169.687442 38.96784 
L 169.911564 38.96784 
L 169.911564 38.254273 
L 170.063995 38.254273 
L 170.132843 36.589284 
L 170.256089 36.589284 
L 170.256089 35.875717 
L 170.473066 35.875717 
L 170.473066 35.400006 
L 171.746192 35.400006 
L 171.83367 33.735017 
L 171.920711 33.735017 
L 171.920711 33.497161 
L 172.031987 33.497161 
L 172.142557 32.545739 
L 172.228073 32.545739 
L 172.337411 29.453616 
L 172.373705 29.453616 
L 172.42198 28.740049 
L 172.506141 28.740049 
L 172.589897 24.93436 
L 172.756213 24.93436 
L 172.83878 23.982937 
L 172.920958 23.982937 
L 173.00275 22.080093 
L 173.084161 22.080093 
L 173.084161 21.842237 
L 174.054514 21.842237 
L 174.054514 21.604382 
L 174.423728 21.604382 
L 174.423728 20.652959 
L 174.711458 20.652959 
L 174.711458 20.415104 
L 174.994519 20.415104 
L 174.994519 20.177248 
L 176.421575 20.177248 
L 176.488521 18.750114 
L 176.621646 18.750114 
L 176.621646 16.84727 
L 176.819447 16.84727 
L 176.884885 15.895847 
L 176.950079 15.895847 
L 176.950079 12.328014 
L 177.116609 12.328014 
L 177.180944 8.284468 
L 177.290683 8.284468 
L 177.290683 7.808757 
L 178.808858 7.808757 
L 178.867253 6.619479 
L 201.562118 6.619479 
L 201.562118 6.381624 
L 338.688 6.381624 
L 338.688 6.381624 
" style="fill:none;stroke:#ff7500;stroke-linecap:square;stroke-width:1.5;"/>
   </g>
   <g id="line2d_39">
    <defs>
     <path d="M 0 -6 
L -1.347084 -1.854102 
L -5.706339 -1.854102 
L -2.179628 0.708204 
L -3.526712 4.854102 
L -0 2.291796 
L 3.526712 4.854102 
L 2.179628 0.708204 
L 5.706339 -1.854102 
L 1.347084 -1.854102 
z
" id="m4a92fda882" style="stroke:#ff7500;stroke-linejoin:bevel;stroke-width:1.5;"/>
    </defs>
    <g>
     <use style="fill-opacity:0;stroke:#ff7500;stroke-linejoin:bevel;stroke-width:1.5;" x="122.573415" xlink:href="#m4a92fda882" y="255.416427"/>
     <use style="fill-opacity:0;stroke:#ff7500;stroke-linejoin:bevel;stroke-width:1.5;" x="150.598782" xlink:href="#m4a92fda882" y="66.559088"/>
     <use style="fill-opacity:0;stroke:#ff7500;stroke-linejoin:bevel;stroke-width:1.5;" x="201.562118" xlink:href="#m4a92fda882" y="6.619479"/>
     <use style="fill-opacity:0;stroke:#ff7500;stroke-linejoin:bevel;stroke-width:1.5;" x="201.562118" xlink:href="#m4a92fda882" y="6.381624"/>
     <use style="fill-opacity:0;stroke:#ff7500;stroke-linejoin:bevel;stroke-width:1.5;" x="338.688" xlink:href="#m4a92fda882" y="6.381624"/>
    </g>
   </g>
   <g id="line2d_40">
    <path style="fill:none;stroke:#ff7500;stroke-linecap:square;stroke-width:1.5;"/>
    <g/>
   </g>
   <g id="line2d_41">
    <path d="M 338.688 6.381624 
L 369.60768 293.092752 
" style="fill:none;stroke:#ff7500;stroke-linecap:square;stroke-width:1.5;"/>
    <g>
     <use style="fill-opacity:0;stroke:#ff7500;stroke-linejoin:bevel;stroke-width:1.5;" x="338.688" xlink:href="#m4a92fda882" y="6.381624"/>
     <use style="fill-opacity:0;stroke:#ff7500;stroke-linejoin:bevel;stroke-width:1.5;" x="369.60768" xlink:href="#m4a92fda882" y="293.092752"/>
    </g>
   </g>
   <g id="line2d_42">
    <path d="M 338.688 6.381624 
L 369.60768 152.662812 
" style="fill:none;stroke:#ff00ff;stroke-linecap:square;stroke-width:1.5;"/>
    <g>
     <use style="fill-opacity:0;stroke:#ff00ff;stroke-linejoin:miter;stroke-width:1.5;" x="338.688" xlink:href="#macbdf6ae5d" y="6.381624"/>
     <use style="fill-opacity:0;stroke:#ff00ff;stroke-linejoin:miter;stroke-width:1.5;" x="369.60768" xlink:href="#macbdf6ae5d" y="152.662812"/>
    </g>
   </g>
   <g id="line2d_43">
    <path d="M 338.688 6.381624 
L 369.60768 12.232871 
" style="fill:none;stroke:#000080;stroke-linecap:square;stroke-width:1.5;"/>
    <g>
     <use style="fill-opacity:0;stroke:#000080;stroke-width:1.5;" x="338.688" xlink:href="#m6061a64a34" y="6.381624"/>
     <use style="fill-opacity:0;stroke:#000080;stroke-width:1.5;" x="369.60768" xlink:href="#m6061a64a34" y="12.232871"/>
    </g>
   </g>
   <g id="line2d_44">
    <path d="M 338.688 298.944 
L 338.688 6.381624 
" style="fill:none;stroke:#000000;stroke-linecap:square;stroke-width:1.5;"/>
   </g>
   <g id="patch_3">
    <path d="M 57.6 298.944 
L 57.6 3.456 
" style="fill:none;stroke:#000000;stroke-linecap:square;stroke-linejoin:miter;stroke-width:0.8;"/>
   </g>
   <g id="patch_4">
    <path d="M 338.688 298.944 
L 338.688 3.456 
" style="fill:none;stroke:#000000;stroke-linecap:square;stroke-linejoin:miter;stroke-width:0.8;"/>
   </g>
   <g id="patch_5">
    <path d="M 57.6 298.944 
L 338.688 298.944 
" style="fill:none;stroke:#000000;stroke-linecap:square;stroke-linejoin:miter;stroke-width:0.8;"/>
   </g>
   <g id="patch_6">
    <path d="M 57.6 3.456 
L 338.688 3.456 
" style="fill:none;stroke:#000000;stroke-linecap:square;stroke-linejoin:miter;stroke-width:0.8;"/>
   </g>
   <g id="text_13">
    <!-- slsqp -->
    <g transform="translate(375.22944 297.78369)scale(0.17 -0.17)">
     <defs>
      <path d="M 14.796875 27.296875 
Q 14.796875 17.390625 18.875 11.75 
Q 22.953125 6.109375 30.078125 6.109375 
Q 37.203125 6.109375 41.296875 11.75 
Q 45.40625 17.390625 45.40625 27.296875 
Q 45.40625 37.203125 41.296875 42.84375 
Q 37.203125 48.484375 30.078125 48.484375 
Q 22.953125 48.484375 18.875 42.84375 
Q 14.796875 37.203125 14.796875 27.296875 
z
M 45.40625 8.203125 
Q 42.578125 3.328125 38.25 0.953125 
Q 33.9375 -1.421875 27.875 -1.421875 
Q 17.96875 -1.421875 11.734375 6.484375 
Q 5.515625 14.40625 5.515625 27.296875 
Q 5.515625 40.1875 11.734375 48.09375 
Q 17.96875 56 27.875 56 
Q 33.9375 56 38.25 53.625 
Q 42.578125 51.265625 45.40625 46.390625 
L 45.40625 54.6875 
L 54.390625 54.6875 
L 54.390625 -20.796875 
L 45.40625 -20.796875 
z
" id="DejaVuSans-113"/>
     </defs>
     <use xlink:href="#DejaVuSans-115"/>
     <use x="52.099609" xlink:href="#DejaVuSans-108"/>
     <use x="79.882812" xlink:href="#DejaVuSans-115"/>
     <use x="131.982422" xlink:href="#DejaVuSans-113"/>
     <use x="195.458984" xlink:href="#DejaVuSans-112"/>
    </g>
   </g>
   <g id="text_14">
    <!-- fmincon -->
    <g transform="translate(375.22944 157.353749)scale(0.17 -0.17)">
     <use xlink:href="#DejaVuSans-102"/>
     <use x="35.205078" xlink:href="#DejaVuSans-109"/>
     <use x="132.617188" xlink:href="#DejaVuSans-105"/>
     <use x="160.400391" xlink:href="#DejaVuSans-110"/>
     <use x="223.779297" xlink:href="#DejaVuSans-99"/>
     <use x="278.759766" xlink:href="#DejaVuSans-111"/>
     <use x="339.941406" xlink:href="#DejaVuSans-110"/>
    </g>
   </g>
   <g id="text_15">
    <!-- cobyla -->
    <g transform="translate(375.22944 16.923809)scale(0.17 -0.17)">
     <defs>
      <path d="M 48.6875 27.296875 
Q 48.6875 37.203125 44.609375 42.84375 
Q 40.53125 48.484375 33.40625 48.484375 
Q 26.265625 48.484375 22.1875 42.84375 
Q 18.109375 37.203125 18.109375 27.296875 
Q 18.109375 17.390625 22.1875 11.75 
Q 26.265625 6.109375 33.40625 6.109375 
Q 40.53125 6.109375 44.609375 11.75 
Q 48.6875 17.390625 48.6875 27.296875 
z
M 18.109375 46.390625 
Q 20.953125 51.265625 25.265625 53.625 
Q 29.59375 56 35.59375 56 
Q 45.5625 56 51.78125 48.09375 
Q 58.015625 40.1875 58.015625 27.296875 
Q 58.015625 14.40625 51.78125 6.484375 
Q 45.5625 -1.421875 35.59375 -1.421875 
Q 29.59375 -1.421875 25.265625 0.953125 
Q 20.953125 3.328125 18.109375 8.203125 
L 18.109375 0 
L 9.078125 0 
L 9.078125 75.984375 
L 18.109375 75.984375 
z
" id="DejaVuSans-98"/>
      <path d="M 32.171875 -5.078125 
Q 28.375 -14.84375 24.75 -17.8125 
Q 21.140625 -20.796875 15.09375 -20.796875 
L 7.90625 -20.796875 
L 7.90625 -13.28125 
L 13.1875 -13.28125 
Q 16.890625 -13.28125 18.9375 -11.515625 
Q 21 -9.765625 23.484375 -3.21875 
L 25.09375 0.875 
L 2.984375 54.6875 
L 12.5 54.6875 
L 29.59375 11.921875 
L 46.6875 54.6875 
L 56.203125 54.6875 
z
" id="DejaVuSans-121"/>
     </defs>
     <use xlink:href="#DejaVuSans-99"/>
     <use x="54.980469" xlink:href="#DejaVuSans-111"/>
     <use x="116.162109" xlink:href="#DejaVuSans-98"/>
     <use x="179.638672" xlink:href="#DejaVuSans-121"/>
     <use x="238.818359" xlink:href="#DejaVuSans-108"/>
     <use x="266.601562" xlink:href="#DejaVuSans-97"/>
    </g>
   </g>
   <g id="text_16">
    <!-- bbob-constrained f48, f54, 2-D -->
    <g transform="translate(60.41088 14.161286)scale(0.102 -0.102)">
     <defs>
      <path d="M 10.796875 72.90625 
L 49.515625 72.90625 
L 49.515625 64.59375 
L 19.828125 64.59375 
L 19.828125 46.734375 
Q 21.96875 47.46875 24.109375 47.828125 
Q 26.265625 48.1875 28.421875 48.1875 
Q 40.625 48.1875 47.75 41.5 
Q 54.890625 34.8125 54.890625 23.390625 
Q 54.890625 11.625 47.5625 5.09375 
Q 40.234375 -1.421875 26.90625 -1.421875 
Q 22.3125 -1.421875 17.546875 -0.640625 
Q 12.796875 0.140625 7.71875 1.703125 
L 7.71875 11.625 
Q 12.109375 9.234375 16.796875 8.0625 
Q 21.484375 6.890625 26.703125 6.890625 
Q 35.15625 6.890625 40.078125 11.328125 
Q 45.015625 15.765625 45.015625 23.390625 
Q 45.015625 31 40.078125 35.4375 
Q 35.15625 39.890625 26.703125 39.890625 
Q 22.75 39.890625 18.8125 39.015625 
Q 14.890625 38.140625 10.796875 36.28125 
z
" id="DejaVuSans-53"/>
      <path d="M 19.671875 64.796875 
L 19.671875 8.109375 
L 31.59375 8.109375 
Q 46.6875 8.109375 53.6875 14.9375 
Q 60.6875 21.78125 60.6875 36.53125 
Q 60.6875 51.171875 53.6875 57.984375 
Q 46.6875 64.796875 31.59375 64.796875 
z
M 9.8125 72.90625 
L 30.078125 72.90625 
Q 51.265625 72.90625 61.171875 64.09375 
Q 71.09375 55.28125 71.09375 36.53125 
Q 71.09375 17.671875 61.125 8.828125 
Q 51.171875 0 30.078125 0 
L 9.8125 0 
z
" id="DejaVuSans-68"/>
     </defs>
     <use xlink:href="#DejaVuSans-98"/>
     <use x="63.476562" xlink:href="#DejaVuSans-98"/>
     <use x="126.953125" xlink:href="#DejaVuSans-111"/>
     <use x="188.134766" xlink:href="#DejaVuSans-98"/>
     <use x="251.611328" xlink:href="#DejaVuSans-45"/>
     <use x="287.695312" xlink:href="#DejaVuSans-99"/>
     <use x="342.675781" xlink:href="#DejaVuSans-111"/>
     <use x="403.857422" xlink:href="#DejaVuSans-110"/>
     <use x="467.236328" xlink:href="#DejaVuSans-115"/>
     <use x="519.335938" xlink:href="#DejaVuSans-116"/>
     <use x="558.544922" xlink:href="#DejaVuSans-114"/>
     <use x="599.658203" xlink:href="#DejaVuSans-97"/>
     <use x="660.9375" xlink:href="#DejaVuSans-105"/>
     <use x="688.720703" xlink:href="#DejaVuSans-110"/>
     <use x="752.099609" xlink:href="#DejaVuSans-101"/>
     <use x="813.623047" xlink:href="#DejaVuSans-100"/>
     <use x="877.099609" xlink:href="#DejaVuSans-32"/>
     <use x="908.886719" xlink:href="#DejaVuSans-102"/>
     <use x="944.091797" xlink:href="#DejaVuSans-52"/>
     <use x="1007.714844" xlink:href="#DejaVuSans-56"/>
     <use x="1071.337891" xlink:href="#DejaVuSans-44"/>
     <use x="1103.125" xlink:href="#DejaVuSans-32"/>
     <use x="1134.912109" xlink:href="#DejaVuSans-102"/>
     <use x="1170.117188" xlink:href="#DejaVuSans-53"/>
     <use x="1233.740234" xlink:href="#DejaVuSans-52"/>
     <use x="1297.363281" xlink:href="#DejaVuSans-44"/>
     <use x="1329.150391" xlink:href="#DejaVuSans-32"/>
     <use x="1360.9375" xlink:href="#DejaVuSans-50"/>
     <use x="1424.560547" xlink:href="#DejaVuSans-45"/>
     <use x="1460.644531" xlink:href="#DejaVuSans-68"/>
    </g>
    <!-- 41 targets: 100..1e-06 -->
    <g transform="translate(60.41088 25.583055)scale(0.102 -0.102)">
     <defs>
      <path d="M 11.71875 12.40625 
L 22.015625 12.40625 
L 22.015625 0 
L 11.71875 0 
z
M 11.71875 51.703125 
L 22.015625 51.703125 
L 22.015625 39.3125 
L 11.71875 39.3125 
z
" id="DejaVuSans-58"/>
     </defs>
     <use xlink:href="#DejaVuSans-52"/>
     <use x="63.623047" xlink:href="#DejaVuSans-49"/>
     <use x="127.246094" xlink:href="#DejaVuSans-32"/>
     <use x="159.033203" xlink:href="#DejaVuSans-116"/>
     <use x="198.242188" xlink:href="#DejaVuSans-97"/>
     <use x="259.521484" xlink:href="#DejaVuSans-114"/>
     <use x="298.884766" xlink:href="#DejaVuSans-103"/>
     <use x="362.361328" xlink:href="#DejaVuSans-101"/>
     <use x="423.884766" xlink:href="#DejaVuSans-116"/>
     <use x="463.09375" xlink:href="#DejaVuSans-115"/>
     <use x="515.193359" xlink:href="#DejaVuSans-58"/>
     <use x="548.884766" xlink:href="#DejaVuSans-32"/>
     <use x="580.671875" xlink:href="#DejaVuSans-49"/>
     <use x="644.294922" xlink:href="#DejaVuSans-48"/>
     <use x="707.917969" xlink:href="#DejaVuSans-48"/>
     <use x="771.541016" xlink:href="#DejaVuSans-46"/>
     <use x="803.328125" xlink:href="#DejaVuSans-46"/>
     <use x="835.115234" xlink:href="#DejaVuSans-49"/>
     <use x="898.738281" xlink:href="#DejaVuSans-101"/>
     <use x="960.261719" xlink:href="#DejaVuSans-45"/>
     <use x="996.345703" xlink:href="#DejaVuSans-48"/>
     <use x="1059.96875" xlink:href="#DejaVuSans-54"/>
    </g>
    <!-- 15 instances -->
    <g transform="translate(60.41088 37.004824)scale(0.102 -0.102)">
     <use xlink:href="#DejaVuSans-49"/>
     <use x="63.623047" xlink:href="#DejaVuSans-53"/>
     <use x="127.246094" xlink:href="#DejaVuSans-32"/>
     <use x="159.033203" xlink:href="#DejaVuSans-105"/>
     <use x="186.816406" xlink:href="#DejaVuSans-110"/>
     <use x="250.195312" xlink:href="#DejaVuSans-115"/>
     <use x="302.294922" xlink:href="#DejaVuSans-116"/>
     <use x="341.503906" xlink:href="#DejaVuSans-97"/>
     <use x="402.783203" xlink:href="#DejaVuSans-110"/>
     <use x="466.162109" xlink:href="#DejaVuSans-99"/>
     <use x="521.142578" xlink:href="#DejaVuSans-101"/>
     <use x="582.666016" xlink:href="#DejaVuSans-115"/>
    </g>
   </g>
   <g id="text_17">
    <!-- v2.4.82 -->
    <g style="fill:#808080;" transform="translate(179.2815 293.909432)scale(0.1 -0.1)">
     <use xlink:href="#DejaVuSans-118"/>
     <use x="59.179688" xlink:href="#DejaVuSans-50"/>
     <use x="122.802734" xlink:href="#DejaVuSans-46"/>
     <use x="154.589844" xlink:href="#DejaVuSans-52"/>
     <use x="218.212891" xlink:href="#DejaVuSans-46"/>
     <use x="250" xlink:href="#DejaVuSans-56"/>
     <use x="313.623047" xlink:href="#DejaVuSans-50"/>
    </g>
   </g>
  </g>
 </g>
 <defs>
  <clipPath id="pd323aa04f5">
   <rect height="295.488" width="281.088" x="57.6" y="3.456"/>
  </clipPath>
 </defs>
</svg>
