<?xml version="1.0" encoding="utf-8" standalone="no"?>
<!DOCTYPE svg PUBLIC "-//W3C//DTD SVG 1.1//EN"
  "http://www.w3.org/Graphics/SVG/1.1/DTD/svg11.dtd">
<!-- Created with matplotlib (https://matplotlib.org/) -->
<svg height="345.6pt" version="1.1" viewBox="0 0 460.8 345.6" width="460.8pt" xmlns="http://www.w3.org/2000/svg" xmlns:xlink="http://www.w3.org/1999/xlink">
 <metadata>
  <rdf:RDF xmlns:cc="http://creativecommons.org/ns#" xmlns:dc="http://purl.org/dc/elements/1.1/" xmlns:rdf="http://www.w3.org/1999/02/22-rdf-syntax-ns#">
   <cc:Work>
    <dc:type rdf:resource="http://purl.org/dc/dcmitype/StillImage"/>
    <dc:date>2022-03-31T09:50:33.913635</dc:date>
    <dc:format>image/svg+xml</dc:format>
    <dc:creator>
     <cc:Agent>
      <dc:title>Matplotlib v3.3.3, https://matplotlib.org/</dc:title>
     </cc:Agent>
    </dc:creator>
   </cc:Work>
  </rdf:RDF>
 </metadata>
 <defs>
  <style type="text/css">*{stroke-linecap:butt;stroke-linejoin:round;}</style>
 </defs>
 <g id="figure_1">
  <g id="patch_1">
   <path d="M 0 345.6 
L 460.8 345.6 
L 460.8 0 
L 0 0 
z
" style="fill:#ffffff;"/>
  </g>
  <g id="axes_1">
   <g id="patch_2">
    <path d="M 0 293.76 
L 460.8 293.76 
L 460.8 3.456 
L 0 3.456 
z
" style="fill:#ffffff;"/>
   </g>
   <g id="matplotlib.axis_1">
    <g id="xtick_1">
     <g id="line2d_1">
      <path clip-path="url(#p8a10d698e1)" d="M 94.152159 293.76 
L 94.152159 3.456 
" style="fill:none;stroke:#b0b0b0;stroke-linecap:square;stroke-width:0.8;"/>
     </g>
     <g id="line2d_2">
      <defs>
       <path d="M 0 0 
L 0 3.5 
" id="m39a68719c4" style="stroke:#000000;stroke-width:0.8;"/>
      </defs>
      <g>
       <use style="stroke:#000000;stroke-width:0.8;" x="94.152159" xlink:href="#m39a68719c4" y="293.76"/>
      </g>
     </g>
     <g id="text_1">
      <!-- -5 -->
      <g transform="translate(84.181846 315.956875)scale(0.2 -0.2)">
       <defs>
        <path d="M 4.890625 31.390625 
L 31.203125 31.390625 
L 31.203125 23.390625 
L 4.890625 23.390625 
z
" id="DejaVuSans-45"/>
        <path d="M 10.796875 72.90625 
L 49.515625 72.90625 
L 49.515625 64.59375 
L 19.828125 64.59375 
L 19.828125 46.734375 
Q 21.96875 47.46875 24.109375 47.828125 
Q 26.265625 48.1875 28.421875 48.1875 
Q 40.625 48.1875 47.75 41.5 
Q 54.890625 34.8125 54.890625 23.390625 
Q 54.890625 11.625 47.5625 5.09375 
Q 40.234375 -1.421875 26.90625 -1.421875 
Q 22.3125 -1.421875 17.546875 -0.640625 
Q 12.796875 0.140625 7.71875 1.703125 
L 7.71875 11.625 
Q 12.109375 9.234375 16.796875 8.0625 
Q 21.484375 6.890625 26.703125 6.890625 
Q 35.15625 6.890625 40.078125 11.328125 
Q 45.015625 15.765625 45.015625 23.390625 
Q 45.015625 31 40.078125 35.4375 
Q 35.15625 39.890625 26.703125 39.890625 
Q 22.75 39.890625 18.8125 39.015625 
Q 14.890625 38.140625 10.796875 36.28125 
z
" id="DejaVuSans-53"/>
       </defs>
       <use xlink:href="#DejaVuSans-45"/>
       <use x="36.083984" xlink:href="#DejaVuSans-53"/>
      </g>
     </g>
    </g>
    <g id="xtick_2">
     <g id="line2d_3">
      <path clip-path="url(#p8a10d698e1)" d="M 188.440135 293.76 
L 188.440135 3.456 
" style="fill:none;stroke:#b0b0b0;stroke-linecap:square;stroke-width:0.8;"/>
     </g>
     <g id="line2d_4">
      <g>
       <use style="stroke:#000000;stroke-width:0.8;" x="188.440135" xlink:href="#m39a68719c4" y="293.76"/>
      </g>
     </g>
     <g id="text_2">
      <!-- -2 -->
      <g transform="translate(178.469823 315.956875)scale(0.2 -0.2)">
       <defs>
        <path d="M 19.1875 8.296875 
L 53.609375 8.296875 
L 53.609375 0 
L 7.328125 0 
L 7.328125 8.296875 
Q 12.9375 14.109375 22.625 23.890625 
Q 32.328125 33.6875 34.8125 36.53125 
Q 39.546875 41.84375 41.421875 45.53125 
Q 43.3125 49.21875 43.3125 52.78125 
Q 43.3125 58.59375 39.234375 62.25 
Q 35.15625 65.921875 28.609375 65.921875 
Q 23.96875 65.921875 18.8125 64.3125 
Q 13.671875 62.703125 7.8125 59.421875 
L 7.8125 69.390625 
Q 13.765625 71.78125 18.9375 73 
Q 24.125 74.21875 28.421875 74.21875 
Q 39.75 74.21875 46.484375 68.546875 
Q 53.21875 62.890625 53.21875 53.421875 
Q 53.21875 48.921875 51.53125 44.890625 
Q 49.859375 40.875 45.40625 35.40625 
Q 44.1875 33.984375 37.640625 27.21875 
Q 31.109375 20.453125 19.1875 8.296875 
z
" id="DejaVuSans-50"/>
       </defs>
       <use xlink:href="#DejaVuSans-45"/>
       <use x="36.083984" xlink:href="#DejaVuSans-50"/>
      </g>
     </g>
    </g>
    <g id="xtick_3">
     <g id="line2d_5">
      <path clip-path="url(#p8a10d698e1)" d="M 282.728112 293.76 
L 282.728112 3.456 
" style="fill:none;stroke:#b0b0b0;stroke-linecap:square;stroke-width:0.8;"/>
     </g>
     <g id="line2d_6">
      <g>
       <use style="stroke:#000000;stroke-width:0.8;" x="282.728112" xlink:href="#m39a68719c4" y="293.76"/>
      </g>
     </g>
     <g id="text_3">
      <!-- 1 -->
      <g transform="translate(276.365612 315.956875)scale(0.2 -0.2)">
       <defs>
        <path d="M 12.40625 8.296875 
L 28.515625 8.296875 
L 28.515625 63.921875 
L 10.984375 60.40625 
L 10.984375 69.390625 
L 28.421875 72.90625 
L 38.28125 72.90625 
L 38.28125 8.296875 
L 54.390625 8.296875 
L 54.390625 0 
L 12.40625 0 
z
" id="DejaVuSans-49"/>
       </defs>
       <use xlink:href="#DejaVuSans-49"/>
      </g>
     </g>
    </g>
    <g id="xtick_4">
     <g id="line2d_7">
      <path clip-path="url(#p8a10d698e1)" d="M 377.016088 293.76 
L 377.016088 3.456 
" style="fill:none;stroke:#b0b0b0;stroke-linecap:square;stroke-width:0.8;"/>
     </g>
     <g id="line2d_8">
      <g>
       <use style="stroke:#000000;stroke-width:0.8;" x="377.016088" xlink:href="#m39a68719c4" y="293.76"/>
      </g>
     </g>
     <g id="text_4">
      <!-- 4 -->
      <g transform="translate(370.653588 315.956875)scale(0.2 -0.2)">
       <defs>
        <path d="M 37.796875 64.3125 
L 12.890625 25.390625 
L 37.796875 25.390625 
z
M 35.203125 72.90625 
L 47.609375 72.90625 
L 47.609375 25.390625 
L 58.015625 25.390625 
L 58.015625 17.1875 
L 47.609375 17.1875 
L 47.609375 0 
L 37.796875 0 
L 37.796875 17.1875 
L 4.890625 17.1875 
L 4.890625 26.703125 
z
" id="DejaVuSans-52"/>
       </defs>
       <use xlink:href="#DejaVuSans-52"/>
      </g>
     </g>
    </g>
    <g id="text_5">
     <!-- log10 of Df -->
     <g transform="translate(175.214063 339.313125)scale(0.2 -0.2)">
      <defs>
       <path d="M 9.421875 75.984375 
L 18.40625 75.984375 
L 18.40625 0 
L 9.421875 0 
z
" id="DejaVuSans-108"/>
       <path d="M 30.609375 48.390625 
Q 23.390625 48.390625 19.1875 42.75 
Q 14.984375 37.109375 14.984375 27.296875 
Q 14.984375 17.484375 19.15625 11.84375 
Q 23.34375 6.203125 30.609375 6.203125 
Q 37.796875 6.203125 41.984375 11.859375 
Q 46.1875 17.53125 46.1875 27.296875 
Q 46.1875 37.015625 41.984375 42.703125 
Q 37.796875 48.390625 30.609375 48.390625 
z
M 30.609375 56 
Q 42.328125 56 49.015625 48.375 
Q 55.71875 40.765625 55.71875 27.296875 
Q 55.71875 13.875 49.015625 6.21875 
Q 42.328125 -1.421875 30.609375 -1.421875 
Q 18.84375 -1.421875 12.171875 6.21875 
Q 5.515625 13.875 5.515625 27.296875 
Q 5.515625 40.765625 12.171875 48.375 
Q 18.84375 56 30.609375 56 
z
" id="DejaVuSans-111"/>
       <path d="M 45.40625 27.984375 
Q 45.40625 37.75 41.375 43.109375 
Q 37.359375 48.484375 30.078125 48.484375 
Q 22.859375 48.484375 18.828125 43.109375 
Q 14.796875 37.75 14.796875 27.984375 
Q 14.796875 18.265625 18.828125 12.890625 
Q 22.859375 7.515625 30.078125 7.515625 
Q 37.359375 7.515625 41.375 12.890625 
Q 45.40625 18.265625 45.40625 27.984375 
z
M 54.390625 6.78125 
Q 54.390625 -7.171875 48.1875 -13.984375 
Q 42 -20.796875 29.203125 -20.796875 
Q 24.46875 -20.796875 20.265625 -20.09375 
Q 16.0625 -19.390625 12.109375 -17.921875 
L 12.109375 -9.1875 
Q 16.0625 -11.328125 19.921875 -12.34375 
Q 23.78125 -13.375 27.78125 -13.375 
Q 36.625 -13.375 41.015625 -8.765625 
Q 45.40625 -4.15625 45.40625 5.171875 
L 45.40625 9.625 
Q 42.625 4.78125 38.28125 2.390625 
Q 33.9375 0 27.875 0 
Q 17.828125 0 11.671875 7.65625 
Q 5.515625 15.328125 5.515625 27.984375 
Q 5.515625 40.671875 11.671875 48.328125 
Q 17.828125 56 27.875 56 
Q 33.9375 56 38.28125 53.609375 
Q 42.625 51.21875 45.40625 46.390625 
L 45.40625 54.6875 
L 54.390625 54.6875 
z
" id="DejaVuSans-103"/>
       <path d="M 31.78125 66.40625 
Q 24.171875 66.40625 20.328125 58.90625 
Q 16.5 51.421875 16.5 36.375 
Q 16.5 21.390625 20.328125 13.890625 
Q 24.171875 6.390625 31.78125 6.390625 
Q 39.453125 6.390625 43.28125 13.890625 
Q 47.125 21.390625 47.125 36.375 
Q 47.125 51.421875 43.28125 58.90625 
Q 39.453125 66.40625 31.78125 66.40625 
z
M 31.78125 74.21875 
Q 44.046875 74.21875 50.515625 64.515625 
Q 56.984375 54.828125 56.984375 36.375 
Q 56.984375 17.96875 50.515625 8.265625 
Q 44.046875 -1.421875 31.78125 -1.421875 
Q 19.53125 -1.421875 13.0625 8.265625 
Q 6.59375 17.96875 6.59375 36.375 
Q 6.59375 54.828125 13.0625 64.515625 
Q 19.53125 74.21875 31.78125 74.21875 
z
" id="DejaVuSans-48"/>
       <path id="DejaVuSans-32"/>
       <path d="M 37.109375 75.984375 
L 37.109375 68.5 
L 28.515625 68.5 
Q 23.6875 68.5 21.796875 66.546875 
Q 19.921875 64.59375 19.921875 59.515625 
L 19.921875 54.6875 
L 34.71875 54.6875 
L 34.71875 47.703125 
L 19.921875 47.703125 
L 19.921875 0 
L 10.890625 0 
L 10.890625 47.703125 
L 2.296875 47.703125 
L 2.296875 54.6875 
L 10.890625 54.6875 
L 10.890625 58.5 
Q 10.890625 67.625 15.140625 71.796875 
Q 19.390625 75.984375 28.609375 75.984375 
z
" id="DejaVuSans-102"/>
       <path d="M 19.671875 64.796875 
L 19.671875 8.109375 
L 31.59375 8.109375 
Q 46.6875 8.109375 53.6875 14.9375 
Q 60.6875 21.78125 60.6875 36.53125 
Q 60.6875 51.171875 53.6875 57.984375 
Q 46.6875 64.796875 31.59375 64.796875 
z
M 9.8125 72.90625 
L 30.078125 72.90625 
Q 51.265625 72.90625 61.171875 64.09375 
Q 71.09375 55.28125 71.09375 36.53125 
Q 71.09375 17.671875 61.125 8.828125 
Q 51.171875 0 30.078125 0 
L 9.8125 0 
z
" id="DejaVuSans-68"/>
      </defs>
      <use xlink:href="#DejaVuSans-108"/>
      <use x="27.783203" xlink:href="#DejaVuSans-111"/>
      <use x="88.964844" xlink:href="#DejaVuSans-103"/>
      <use x="152.441406" xlink:href="#DejaVuSans-49"/>
      <use x="216.064453" xlink:href="#DejaVuSans-48"/>
      <use x="279.6875" xlink:href="#DejaVuSans-32"/>
      <use x="311.474609" xlink:href="#DejaVuSans-111"/>
      <use x="372.65625" xlink:href="#DejaVuSans-102"/>
      <use x="407.861328" xlink:href="#DejaVuSans-32"/>
      <use x="439.648438" xlink:href="#DejaVuSans-68"/>
      <use x="516.650391" xlink:href="#DejaVuSans-102"/>
     </g>
    </g>
   </g>
   <g id="matplotlib.axis_2">
    <g id="ytick_1">
     <g id="line2d_9">
      <path clip-path="url(#p8a10d698e1)" d="M 0 293.76 
L 460.8 293.76 
" style="fill:none;stroke:#b0b0b0;stroke-linecap:square;stroke-width:0.8;"/>
     </g>
     <g id="line2d_10">
      <defs>
       <path d="M 0 0 
L -3.5 0 
" id="ma8a46b1847" style="stroke:#000000;stroke-width:0.8;"/>
      </defs>
      <g>
       <use style="stroke:#000000;stroke-width:0.8;" x="0" xlink:href="#ma8a46b1847" y="293.76"/>
      </g>
     </g>
    </g>
    <g id="ytick_2">
     <g id="line2d_11">
      <path clip-path="url(#p8a10d698e1)" d="M 0 236.274059 
L 460.8 236.274059 
" style="fill:none;stroke:#b0b0b0;stroke-linecap:square;stroke-width:0.8;"/>
     </g>
     <g id="line2d_12">
      <g>
       <use style="stroke:#000000;stroke-width:0.8;" x="0" xlink:href="#ma8a46b1847" y="236.274059"/>
      </g>
     </g>
    </g>
    <g id="ytick_3">
     <g id="line2d_13">
      <path clip-path="url(#p8a10d698e1)" d="M 0 178.788119 
L 460.8 178.788119 
" style="fill:none;stroke:#b0b0b0;stroke-linecap:square;stroke-width:0.8;"/>
     </g>
     <g id="line2d_14">
      <g>
       <use style="stroke:#000000;stroke-width:0.8;" x="0" xlink:href="#ma8a46b1847" y="178.788119"/>
      </g>
     </g>
    </g>
    <g id="ytick_4">
     <g id="line2d_15">
      <path clip-path="url(#p8a10d698e1)" d="M 0 121.302178 
L 460.8 121.302178 
" style="fill:none;stroke:#b0b0b0;stroke-linecap:square;stroke-width:0.8;"/>
     </g>
     <g id="line2d_16">
      <g>
       <use style="stroke:#000000;stroke-width:0.8;" x="0" xlink:href="#ma8a46b1847" y="121.302178"/>
      </g>
     </g>
    </g>
    <g id="ytick_5">
     <g id="line2d_17">
      <path clip-path="url(#p8a10d698e1)" d="M 0 63.816238 
L 460.8 63.816238 
" style="fill:none;stroke:#b0b0b0;stroke-linecap:square;stroke-width:0.8;"/>
     </g>
     <g id="line2d_18">
      <g>
       <use style="stroke:#000000;stroke-width:0.8;" x="0" xlink:href="#ma8a46b1847" y="63.816238"/>
      </g>
     </g>
    </g>
    <g id="ytick_6">
     <g id="line2d_19">
      <path clip-path="url(#p8a10d698e1)" d="M 0 6.330297 
L 460.8 6.330297 
" style="fill:none;stroke:#b0b0b0;stroke-linecap:square;stroke-width:0.8;"/>
     </g>
     <g id="line2d_20">
      <g>
       <use style="stroke:#000000;stroke-width:0.8;" x="0" xlink:href="#ma8a46b1847" y="6.330297"/>
      </g>
     </g>
    </g>
   </g>
   <g id="line2d_21">
    <path clip-path="url(#p8a10d698e1)" d="M 325.306287 293.76 
L 325.306287 284.17901 
L 328.21988 284.17901 
L 328.21988 274.59802 
L 328.247391 274.59802 
L 328.247391 265.01703 
L 329.256081 265.01703 
L 329.256081 255.43604 
L 329.324186 255.43604 
L 329.324186 245.85505 
L 330.364868 245.85505 
L 330.364868 236.274059 
L 331.853043 236.274059 
L 331.853043 226.693069 
L 332.029431 226.693069 
L 332.029431 217.112079 
L 332.110106 217.112079 
L 332.110106 207.531089 
L 332.165844 207.531089 
L 332.165844 197.950099 
L 332.343676 197.950099 
L 332.343676 188.369109 
L 332.479699 188.369109 
L 332.479699 178.788119 
L 333.240204 178.788119 
L 333.240204 169.207129 
L 333.270987 169.207129 
L 333.270987 159.626139 
L 333.477712 159.626139 
L 333.477712 150.045149 
L 334.3592 150.045149 
L 334.3592 140.464158 
L 334.538695 140.464158 
L 334.538695 130.883168 
L 335.361448 130.883168 
L 335.361448 121.302178 
L 335.443306 121.302178 
L 335.443306 111.721188 
L 335.475514 111.721188 
L 335.475514 102.140198 
L 335.606249 102.140198 
L 335.606249 92.559208 
L 336.305038 92.559208 
L 336.305038 82.978218 
L 336.308755 82.978218 
L 336.308755 73.397228 
L 336.382479 73.397228 
L 336.382479 63.816238 
L 336.630903 63.816238 
L 336.630903 54.235248 
L 336.800239 54.235248 
L 336.800239 44.654257 
L 337.120295 44.654257 
L 337.120295 35.073267 
L 337.807211 35.073267 
L 337.807211 25.492277 
L 339.860615 25.492277 
L 339.860615 15.911287 
L 341.335191 15.911287 
L 341.335191 6.330297 
L 341.335191 6.330297 
L 341.335191 6.330297 
L 460.8 6.330297 
" style="fill:none;stroke:#ff0000;stroke-linecap:square;stroke-width:3;"/>
   </g>
   <g id="line2d_22">
    <path clip-path="url(#p8a10d698e1)" d="M 361.950447 293.76 
L 361.950447 284.17901 
L 365.598411 284.17901 
L 365.598411 274.59802 
L 366.256708 274.59802 
L 366.256708 265.01703 
L 367.753603 265.01703 
L 367.753603 255.43604 
L 375.283726 255.43604 
L 375.283726 245.85505 
L 377.1431 245.85505 
L 377.1431 236.274059 
L 377.712047 236.274059 
L 377.712047 226.693069 
L 384.724603 226.693069 
L 384.724603 217.112079 
L 385.314759 217.112079 
L 385.314759 207.531089 
L 385.713595 207.531089 
L 385.713595 197.950099 
L 388.188797 197.950099 
L 388.188797 188.369109 
L 395.472838 188.369109 
L 395.472838 178.788119 
L 397.122418 178.788119 
L 397.122418 169.207129 
L 397.161308 169.207129 
L 397.161308 159.626139 
L 398.827151 159.626139 
L 398.827151 150.045149 
L 400.159114 150.045149 
L 400.159114 140.464158 
L 401.241249 140.464158 
L 401.241249 130.883168 
L 401.504049 130.883168 
L 401.504049 121.302178 
L 403.799997 121.302178 
L 403.799997 111.721188 
L 406.692728 111.721188 
L 406.692728 102.140198 
L 407.654745 102.140198 
L 407.654745 92.559208 
L 410.041254 92.559208 
L 410.041254 82.978218 
L 410.116177 82.978218 
L 410.116177 73.397228 
L 411.697211 73.397228 
L 411.697211 63.816238 
L 412.836838 63.816238 
L 412.836838 54.235248 
L 413.316318 54.235248 
L 413.316318 44.654257 
L 418.411861 44.654257 
L 418.411861 35.073267 
L 419.108272 35.073267 
L 419.108272 25.492277 
L 423.49417 25.492277 
L 423.49417 15.911287 
L 428.245883 15.911287 
L 428.245883 6.330297 
L 428.245883 6.330297 
L 428.245883 6.330297 
L 460.8 6.330297 
" style="fill:none;stroke:#00bfbf;stroke-linecap:square;stroke-width:1.5;"/>
   </g>
   <g id="line2d_23">
    <path clip-path="url(#p8a10d698e1)" d="M 348.657249 293.76 
L 348.657249 284.17901 
L 361.950447 284.17901 
L 361.950447 274.59802 
L 365.598411 274.59802 
L 365.598411 265.01703 
L 366.256708 265.01703 
L 366.256708 255.43604 
L 367.753603 255.43604 
L 367.753603 245.85505 
L 367.943121 245.85505 
L 367.943121 236.274059 
L 371.735668 236.274059 
L 371.735668 226.693069 
L 373.999777 226.693069 
L 373.999777 217.112079 
L 374.011422 217.112079 
L 374.011422 207.531089 
L 375.703947 207.531089 
L 375.703947 197.950099 
L 375.873333 197.950099 
L 375.873333 188.369109 
L 376.147297 188.369109 
L 376.147297 178.788119 
L 377.1431 178.788119 
L 377.1431 169.207129 
L 380.40745 169.207129 
L 380.40745 159.626139 
L 384.724603 159.626139 
L 384.724603 150.045149 
L 385.314759 150.045149 
L 385.314759 140.464158 
L 385.713595 140.464158 
L 385.713595 130.883168 
L 388.210848 130.883168 
L 388.210848 121.302178 
L 391.038501 121.302178 
L 391.038501 111.721188 
L 397.161308 111.721188 
L 397.161308 102.140198 
L 400.159114 102.140198 
L 400.159114 92.559208 
L 402.555159 92.559208 
L 402.555159 82.978218 
L 403.294543 82.978218 
L 403.294543 73.397228 
L 404.191216 73.397228 
L 404.191216 63.816238 
L 405.992233 63.816238 
L 405.992233 54.235248 
L 406.692728 54.235248 
L 406.692728 44.654257 
L 407.231562 44.654257 
L 407.231562 35.073267 
L 411.552455 35.073267 
L 411.552455 25.492277 
L 411.697211 25.492277 
L 411.697211 15.911287 
L 416.897555 15.911287 
L 416.897555 6.330297 
L 416.897555 6.330297 
L 416.897555 6.330297 
L 460.8 6.330297 
" style="fill:none;stroke:#bf00bf;stroke-linecap:square;stroke-width:1.5;"/>
   </g>
   <g id="line2d_24">
    <path clip-path="url(#p8a10d698e1)" d="M 348.657249 293.76 
L 348.657249 284.17901 
L 361.950447 284.17901 
L 361.950447 274.59802 
L 364.089307 274.59802 
L 364.089307 265.01703 
L 365.2681 265.01703 
L 365.2681 255.43604 
L 365.598411 255.43604 
L 365.598411 245.85505 
L 366.256708 245.85505 
L 366.256708 236.274059 
L 366.285057 236.274059 
L 366.285057 226.693069 
L 366.995806 226.693069 
L 366.995806 217.112079 
L 367.753603 217.112079 
L 367.753603 207.531089 
L 367.943121 207.531089 
L 367.943121 197.950099 
L 370.414583 197.950099 
L 370.414583 188.369109 
L 371.735668 188.369109 
L 371.735668 178.788119 
L 373.414558 178.788119 
L 373.414558 169.207129 
L 374.011422 169.207129 
L 374.011422 159.626139 
L 375.170523 159.626139 
L 375.170523 150.045149 
L 377.1431 150.045149 
L 377.1431 140.464158 
L 377.343144 140.464158 
L 377.343144 130.883168 
L 379.602272 130.883168 
L 379.602272 121.302178 
L 385.314759 121.302178 
L 385.314759 111.721188 
L 387.523688 111.721188 
L 387.523688 102.140198 
L 391.038501 102.140198 
L 391.038501 92.559208 
L 395.185163 92.559208 
L 395.185163 82.978218 
L 397.161308 82.978218 
L 397.161308 73.397228 
L 397.724322 73.397228 
L 397.724322 63.816238 
L 403.294543 63.816238 
L 403.294543 54.235248 
L 404.005804 54.235248 
L 404.005804 44.654257 
L 404.191216 44.654257 
L 404.191216 35.073267 
L 405.992233 35.073267 
L 405.992233 25.492277 
L 407.114514 25.492277 
L 407.114514 15.911287 
L 411.552455 15.911287 
L 411.552455 6.330297 
L 411.552455 6.330297 
L 411.552455 6.330297 
L 460.8 6.330297 
" style="fill:none;stroke:#000000;stroke-linecap:square;stroke-width:1.5;"/>
   </g>
   <g id="line2d_25">
    <path clip-path="url(#p8a10d698e1)" d="M 343.262862 293.76 
L 343.262862 284.17901 
L 348.657249 284.17901 
L 348.657249 274.59802 
L 350.222244 274.59802 
L 350.222244 265.01703 
L 350.715126 265.01703 
L 350.715126 255.43604 
L 351.570655 255.43604 
L 351.570655 245.85505 
L 353.655899 245.85505 
L 353.655899 236.274059 
L 354.209525 236.274059 
L 354.209525 226.693069 
L 355.631741 226.693069 
L 355.631741 217.112079 
L 356.499543 217.112079 
L 356.499543 207.531089 
L 360.11265 207.531089 
L 360.11265 197.950099 
L 360.318298 197.950099 
L 360.318298 188.369109 
L 361.432018 188.369109 
L 361.432018 178.788119 
L 363.377456 178.788119 
L 363.377456 169.207129 
L 364.274477 169.207129 
L 364.274477 159.626139 
L 365.598411 159.626139 
L 365.598411 150.045149 
L 367.943121 150.045149 
L 367.943121 140.464158 
L 369.659828 140.464158 
L 369.659828 130.883168 
L 371.502083 130.883168 
L 371.502083 121.302178 
L 372.509046 121.302178 
L 372.509046 111.721188 
L 375.170523 111.721188 
L 375.170523 102.140198 
L 379.602272 102.140198 
L 379.602272 92.559208 
L 385.322506 92.559208 
L 385.322506 82.978218 
L 391.038501 82.978218 
L 391.038501 73.397228 
L 394.807773 73.397228 
L 394.807773 63.816238 
L 396.029157 63.816238 
L 396.029157 54.235248 
L 397.161308 54.235248 
L 397.161308 44.654257 
L 402.147259 44.654257 
L 402.147259 35.073267 
L 403.294543 35.073267 
L 403.294543 25.492277 
L 403.435801 25.492277 
L 403.435801 15.911287 
L 405.639632 15.911287 
L 405.639632 6.330297 
L 405.639632 6.330297 
L 405.639632 6.330297 
L 460.8 6.330297 
" style="fill:none;stroke:#00bfbf;stroke-linecap:square;stroke-width:1.5;"/>
   </g>
   <g id="line2d_26">
    <path clip-path="url(#p8a10d698e1)" d="M 337.439167 293.76 
L 337.439167 284.17901 
L 343.027065 284.17901 
L 343.027065 274.59802 
L 343.262862 274.59802 
L 343.262862 265.01703 
L 343.999167 265.01703 
L 343.999167 255.43604 
L 347.872444 255.43604 
L 347.872444 245.85505 
L 348.657249 245.85505 
L 348.657249 236.274059 
L 348.693564 236.274059 
L 348.693564 226.693069 
L 348.744332 226.693069 
L 348.744332 217.112079 
L 350.628315 217.112079 
L 350.628315 207.531089 
L 350.629554 207.531089 
L 350.629554 197.950099 
L 350.816175 197.950099 
L 350.816175 188.369109 
L 351.420454 188.369109 
L 351.420454 178.788119 
L 351.570655 178.788119 
L 351.570655 169.207129 
L 352.066875 169.207129 
L 352.066875 159.626139 
L 353.194703 159.626139 
L 353.194703 150.045149 
L 353.298633 150.045149 
L 353.298633 140.464158 
L 353.467899 140.464158 
L 353.467899 130.883168 
L 353.655899 130.883168 
L 353.655899 121.302178 
L 353.848707 121.302178 
L 353.848707 111.721188 
L 354.01426 111.721188 
L 354.01426 102.140198 
L 354.971107 102.140198 
L 354.971107 92.559208 
L 355.69872 92.559208 
L 355.69872 82.978218 
L 355.791874 82.978218 
L 355.791874 73.397228 
L 361.432018 73.397228 
L 361.432018 63.816238 
L 362.383883 63.816238 
L 362.383883 54.235248 
L 363.640459 54.235248 
L 363.640459 44.654257 
L 369.429965 44.654257 
L 369.429965 35.073267 
L 380.449589 35.073267 
L 380.449589 25.492277 
L 384.363895 25.492277 
L 384.363895 15.911287 
L 396.243871 15.911287 
L 396.243871 6.330297 
L 396.243871 6.330297 
L 396.243871 6.330297 
L 460.8 6.330297 
" style="fill:none;stroke:#bf00bf;stroke-linecap:square;stroke-width:1.5;"/>
   </g>
   <g id="line2d_27">
    <path clip-path="url(#p8a10d698e1)" d="M 335.560221 293.76 
L 335.560221 284.17901 
L 335.788225 284.17901 
L 335.788225 274.59802 
L 337.439167 274.59802 
L 337.439167 265.01703 
L 338.959846 265.01703 
L 338.959846 255.43604 
L 340.004715 255.43604 
L 340.004715 245.85505 
L 341.155462 245.85505 
L 341.155462 236.274059 
L 341.157424 236.274059 
L 341.157424 226.693069 
L 341.173025 226.693069 
L 341.173025 217.112079 
L 341.174322 217.112079 
L 341.174322 207.531089 
L 341.279893 207.531089 
L 341.279893 197.950099 
L 341.811915 197.950099 
L 341.811915 188.369109 
L 342.100554 188.369109 
L 342.100554 178.788119 
L 342.301472 178.788119 
L 342.301472 169.207129 
L 342.331946 169.207129 
L 342.331946 159.626139 
L 342.385463 159.626139 
L 342.385463 150.045149 
L 342.642742 150.045149 
L 342.642742 140.464158 
L 342.842038 140.464158 
L 342.842038 130.883168 
L 343.273699 130.883168 
L 343.273699 121.302178 
L 343.863016 121.302178 
L 343.863016 111.721188 
L 344.098533 111.721188 
L 344.098533 102.140198 
L 344.477254 102.140198 
L 344.477254 92.559208 
L 345.742756 92.559208 
L 345.742756 82.978218 
L 346.270758 82.978218 
L 346.270758 73.397228 
L 346.826789 73.397228 
L 346.826789 63.816238 
L 347.729519 63.816238 
L 347.729519 54.235248 
L 351.464132 54.235248 
L 351.464132 44.654257 
L 351.803495 44.654257 
L 351.803495 35.073267 
L 353.296496 35.073267 
L 353.296496 25.492277 
L 355.625456 25.492277 
L 355.625456 15.911287 
L 366.870556 15.911287 
L 366.870556 6.330297 
L 366.870556 6.330297 
L 366.870556 6.330297 
L 460.8 6.330297 
" style="fill:none;stroke:#000000;stroke-linecap:square;stroke-width:1.5;"/>
   </g>
   <g id="line2d_28">
    <path clip-path="url(#p8a10d698e1)" d="M 333.434718 293.76 
L 333.434718 284.17901 
L 334.883485 284.17901 
L 334.883485 274.59802 
L 335.16156 274.59802 
L 335.16156 265.01703 
L 335.443306 265.01703 
L 335.443306 255.43604 
L 335.560221 255.43604 
L 335.560221 245.85505 
L 335.788225 245.85505 
L 335.788225 236.274059 
L 336.239395 236.274059 
L 336.239395 226.693069 
L 336.700416 226.693069 
L 336.700416 217.112079 
L 336.846276 217.112079 
L 336.846276 207.531089 
L 336.890095 207.531089 
L 336.890095 197.950099 
L 336.936195 197.950099 
L 336.936195 188.369109 
L 336.938836 188.369109 
L 336.938836 178.788119 
L 337.224923 178.788119 
L 337.224923 169.207129 
L 337.811343 169.207129 
L 337.811343 159.626139 
L 338.264613 159.626139 
L 338.264613 150.045149 
L 338.51183 150.045149 
L 338.51183 140.464158 
L 338.652511 140.464158 
L 338.652511 130.883168 
L 338.959846 130.883168 
L 338.959846 121.302178 
L 339.290274 121.302178 
L 339.290274 111.721188 
L 339.337832 111.721188 
L 339.337832 102.140198 
L 339.563709 102.140198 
L 339.563709 92.559208 
L 339.77116 92.559208 
L 339.77116 82.978218 
L 340.055612 82.978218 
L 340.055612 73.397228 
L 341.76751 73.397228 
L 341.76751 63.816238 
L 342.12066 63.816238 
L 342.12066 54.235248 
L 342.301472 54.235248 
L 342.301472 44.654257 
L 342.530481 44.654257 
L 342.530481 35.073267 
L 343.814186 35.073267 
L 343.814186 25.492277 
L 344.199487 25.492277 
L 344.199487 15.911287 
L 353.296496 15.911287 
L 353.296496 6.330297 
L 353.296496 6.330297 
L 353.296496 6.330297 
L 460.8 6.330297 
" style="fill:none;stroke:#00bfbf;stroke-linecap:square;stroke-width:1.5;"/>
   </g>
   <g id="line2d_29">
    <path clip-path="url(#p8a10d698e1)" d="M 328.21988 293.76 
L 328.21988 284.17901 
L 328.247391 284.17901 
L 328.247391 274.59802 
L 329.256081 274.59802 
L 329.256081 265.01703 
L 329.324186 265.01703 
L 329.324186 255.43604 
L 329.954902 255.43604 
L 329.954902 245.85505 
L 330.364868 245.85505 
L 330.364868 236.274059 
L 331.853043 236.274059 
L 331.853043 226.693069 
L 332.029431 226.693069 
L 332.029431 217.112079 
L 332.110106 217.112079 
L 332.110106 207.531089 
L 332.165844 207.531089 
L 332.165844 197.950099 
L 332.343676 197.950099 
L 332.343676 188.369109 
L 333.240204 188.369109 
L 333.240204 178.788119 
L 333.270987 178.788119 
L 333.270987 169.207129 
L 333.477712 169.207129 
L 333.477712 159.626139 
L 333.634391 159.626139 
L 333.634391 150.045149 
L 334.538695 150.045149 
L 334.538695 140.464158 
L 335.361448 140.464158 
L 335.361448 130.883168 
L 335.443306 130.883168 
L 335.443306 121.302178 
L 335.62501 121.302178 
L 335.62501 111.721188 
L 336.275128 111.721188 
L 336.275128 102.140198 
L 336.305038 102.140198 
L 336.305038 92.559208 
L 336.308755 92.559208 
L 336.308755 82.978218 
L 336.382479 82.978218 
L 336.382479 73.397228 
L 336.630903 73.397228 
L 336.630903 63.816238 
L 336.800239 63.816238 
L 336.800239 54.235248 
L 337.120295 54.235248 
L 337.120295 44.654257 
L 339.245769 44.654257 
L 339.245769 35.073267 
L 339.797907 35.073267 
L 339.797907 25.492277 
L 341.179677 25.492277 
L 341.179677 15.911287 
L 341.335191 15.911287 
L 341.335191 6.330297 
L 341.335191 6.330297 
L 341.335191 6.330297 
L 460.8 6.330297 
" style="fill:none;stroke:#bf00bf;stroke-linecap:square;stroke-width:1.5;"/>
   </g>
   <g id="patch_3">
    <path d="M 0 293.76 
L 0 3.456 
" style="fill:none;stroke:#000000;stroke-linecap:square;stroke-linejoin:miter;stroke-width:0.8;"/>
   </g>
   <g id="patch_4">
    <path d="M 460.8 293.76 
L 460.8 3.456 
" style="fill:none;stroke:#000000;stroke-linecap:square;stroke-linejoin:miter;stroke-width:0.8;"/>
   </g>
   <g id="patch_5">
    <path d="M 0 293.76 
L 460.8 293.76 
" style="fill:none;stroke:#000000;stroke-linecap:square;stroke-linejoin:miter;stroke-width:0.8;"/>
   </g>
   <g id="patch_6">
    <path d="M 0 3.456 
L 460.8 3.456 
" style="fill:none;stroke:#000000;stroke-linecap:square;stroke-linejoin:miter;stroke-width:0.8;"/>
   </g>
   <g id="text_6">
    <!-- {f46, f52}, 5-D -->
    <g transform="translate(300.387125 287.95392)scale(0.2 -0.2)">
     <defs>
      <path d="M 51.125 -9.28125 
L 51.125 -16.3125 
L 48.09375 -16.3125 
Q 35.9375 -16.3125 31.8125 -12.6875 
Q 27.6875 -9.078125 27.6875 1.703125 
L 27.6875 13.375 
Q 27.6875 20.75 25.046875 23.578125 
Q 22.40625 26.421875 15.484375 26.421875 
L 12.5 26.421875 
L 12.5 33.40625 
L 15.484375 33.40625 
Q 22.46875 33.40625 25.078125 36.203125 
Q 27.6875 39.015625 27.6875 46.296875 
L 27.6875 58.015625 
Q 27.6875 68.796875 31.8125 72.390625 
Q 35.9375 75.984375 48.09375 75.984375 
L 51.125 75.984375 
L 51.125 69 
L 47.796875 69 
Q 40.921875 69 38.8125 66.84375 
Q 36.71875 64.703125 36.71875 57.8125 
L 36.71875 45.703125 
Q 36.71875 38.03125 34.5 34.5625 
Q 32.28125 31.109375 26.90625 29.890625 
Q 32.328125 28.5625 34.515625 25.09375 
Q 36.71875 21.625 36.71875 14.015625 
L 36.71875 1.90625 
Q 36.71875 -4.984375 38.8125 -7.125 
Q 40.921875 -9.28125 47.796875 -9.28125 
z
" id="DejaVuSans-123"/>
      <path d="M 33.015625 40.375 
Q 26.375 40.375 22.484375 35.828125 
Q 18.609375 31.296875 18.609375 23.390625 
Q 18.609375 15.53125 22.484375 10.953125 
Q 26.375 6.390625 33.015625 6.390625 
Q 39.65625 6.390625 43.53125 10.953125 
Q 47.40625 15.53125 47.40625 23.390625 
Q 47.40625 31.296875 43.53125 35.828125 
Q 39.65625 40.375 33.015625 40.375 
z
M 52.59375 71.296875 
L 52.59375 62.3125 
Q 48.875 64.0625 45.09375 64.984375 
Q 41.3125 65.921875 37.59375 65.921875 
Q 27.828125 65.921875 22.671875 59.328125 
Q 17.53125 52.734375 16.796875 39.40625 
Q 19.671875 43.65625 24.015625 45.921875 
Q 28.375 48.1875 33.59375 48.1875 
Q 44.578125 48.1875 50.953125 41.515625 
Q 57.328125 34.859375 57.328125 23.390625 
Q 57.328125 12.15625 50.6875 5.359375 
Q 44.046875 -1.421875 33.015625 -1.421875 
Q 20.359375 -1.421875 13.671875 8.265625 
Q 6.984375 17.96875 6.984375 36.375 
Q 6.984375 53.65625 15.1875 63.9375 
Q 23.390625 74.21875 37.203125 74.21875 
Q 40.921875 74.21875 44.703125 73.484375 
Q 48.484375 72.75 52.59375 71.296875 
z
" id="DejaVuSans-54"/>
      <path d="M 11.71875 12.40625 
L 22.015625 12.40625 
L 22.015625 4 
L 14.015625 -11.625 
L 7.71875 -11.625 
L 11.71875 4 
z
" id="DejaVuSans-44"/>
      <path d="M 12.5 -9.28125 
L 15.921875 -9.28125 
Q 22.75 -9.28125 24.828125 -7.171875 
Q 26.90625 -5.078125 26.90625 1.90625 
L 26.90625 14.015625 
Q 26.90625 21.625 29.09375 25.09375 
Q 31.296875 28.5625 36.71875 29.890625 
Q 31.296875 31.109375 29.09375 34.5625 
Q 26.90625 38.03125 26.90625 45.703125 
L 26.90625 57.8125 
Q 26.90625 64.75 24.828125 66.875 
Q 22.75 69 15.921875 69 
L 12.5 69 
L 12.5 75.984375 
L 15.578125 75.984375 
Q 27.734375 75.984375 31.8125 72.390625 
Q 35.890625 68.796875 35.890625 58.015625 
L 35.890625 46.296875 
Q 35.890625 39.015625 38.515625 36.203125 
Q 41.15625 33.40625 48.09375 33.40625 
L 51.125 33.40625 
L 51.125 26.421875 
L 48.09375 26.421875 
Q 41.15625 26.421875 38.515625 23.578125 
Q 35.890625 20.75 35.890625 13.375 
L 35.890625 1.703125 
Q 35.890625 -9.078125 31.8125 -12.6875 
Q 27.734375 -16.3125 15.578125 -16.3125 
L 12.5 -16.3125 
z
" id="DejaVuSans-125"/>
     </defs>
     <use xlink:href="#DejaVuSans-123"/>
     <use x="63.623047" xlink:href="#DejaVuSans-102"/>
     <use x="98.828125" xlink:href="#DejaVuSans-52"/>
     <use x="162.451172" xlink:href="#DejaVuSans-54"/>
     <use x="226.074219" xlink:href="#DejaVuSans-44"/>
     <use x="257.861328" xlink:href="#DejaVuSans-32"/>
     <use x="289.648438" xlink:href="#DejaVuSans-102"/>
     <use x="324.853516" xlink:href="#DejaVuSans-53"/>
     <use x="388.476562" xlink:href="#DejaVuSans-50"/>
     <use x="452.099609" xlink:href="#DejaVuSans-125"/>
     <use x="515.722656" xlink:href="#DejaVuSans-44"/>
     <use x="547.509766" xlink:href="#DejaVuSans-32"/>
     <use x="579.296875" xlink:href="#DejaVuSans-53"/>
     <use x="642.919922" xlink:href="#DejaVuSans-45"/>
     <use x="679.003906" xlink:href="#DejaVuSans-68"/>
    </g>
   </g>
   <g id="text_7">
    <!-- v2.99.1 -->
    <g style="fill:#808080;" transform="translate(211.5375 288.777272)scale(0.1 -0.1)">
     <defs>
      <path d="M 2.984375 54.6875 
L 12.5 54.6875 
L 29.59375 8.796875 
L 46.6875 54.6875 
L 56.203125 54.6875 
L 35.6875 0 
L 23.484375 0 
z
" id="DejaVuSans-118"/>
      <path d="M 10.6875 12.40625 
L 21 12.40625 
L 21 0 
L 10.6875 0 
z
" id="DejaVuSans-46"/>
      <path d="M 10.984375 1.515625 
L 10.984375 10.5 
Q 14.703125 8.734375 18.5 7.8125 
Q 22.3125 6.890625 25.984375 6.890625 
Q 35.75 6.890625 40.890625 13.453125 
Q 46.046875 20.015625 46.78125 33.40625 
Q 43.953125 29.203125 39.59375 26.953125 
Q 35.25 24.703125 29.984375 24.703125 
Q 19.046875 24.703125 12.671875 31.3125 
Q 6.296875 37.9375 6.296875 49.421875 
Q 6.296875 60.640625 12.9375 67.421875 
Q 19.578125 74.21875 30.609375 74.21875 
Q 43.265625 74.21875 49.921875 64.515625 
Q 56.59375 54.828125 56.59375 36.375 
Q 56.59375 19.140625 48.40625 8.859375 
Q 40.234375 -1.421875 26.421875 -1.421875 
Q 22.703125 -1.421875 18.890625 -0.6875 
Q 15.09375 0.046875 10.984375 1.515625 
z
M 30.609375 32.421875 
Q 37.25 32.421875 41.125 36.953125 
Q 45.015625 41.5 45.015625 49.421875 
Q 45.015625 57.28125 41.125 61.84375 
Q 37.25 66.40625 30.609375 66.40625 
Q 23.96875 66.40625 20.09375 61.84375 
Q 16.21875 57.28125 16.21875 49.421875 
Q 16.21875 41.5 20.09375 36.953125 
Q 23.96875 32.421875 30.609375 32.421875 
z
" id="DejaVuSans-57"/>
     </defs>
     <use xlink:href="#DejaVuSans-118"/>
     <use x="59.179688" xlink:href="#DejaVuSans-50"/>
     <use x="122.802734" xlink:href="#DejaVuSans-46"/>
     <use x="154.589844" xlink:href="#DejaVuSans-57"/>
     <use x="218.212891" xlink:href="#DejaVuSans-57"/>
     <use x="281.835938" xlink:href="#DejaVuSans-46"/>
     <use x="313.623047" xlink:href="#DejaVuSans-49"/>
    </g>
   </g>
  </g>
 </g>
 <defs>
  <clipPath id="p8a10d698e1">
   <rect height="290.304" width="460.8" x="0" y="3.456"/>
  </clipPath>
 </defs>
</svg>
