<?xml version="1.0" encoding="utf-8" standalone="no"?>
<!DOCTYPE svg PUBLIC "-//W3C//DTD SVG 1.1//EN"
  "http://www.w3.org/Graphics/SVG/1.1/DTD/svg11.dtd">
<!-- Created with matplotlib (https://matplotlib.org/) -->
<svg height="345.6pt" version="1.1" viewBox="0 0 460.8 345.6" width="460.8pt" xmlns="http://www.w3.org/2000/svg" xmlns:xlink="http://www.w3.org/1999/xlink">
 <metadata>
  <rdf:RDF xmlns:cc="http://creativecommons.org/ns#" xmlns:dc="http://purl.org/dc/elements/1.1/" xmlns:rdf="http://www.w3.org/1999/02/22-rdf-syntax-ns#">
   <cc:Work>
    <dc:type rdf:resource="http://purl.org/dc/dcmitype/StillImage"/>
    <dc:date>2022-03-31T09:51:16.821862</dc:date>
    <dc:format>image/svg+xml</dc:format>
    <dc:creator>
     <cc:Agent>
      <dc:title>Matplotlib v3.3.3, https://matplotlib.org/</dc:title>
     </cc:Agent>
    </dc:creator>
   </cc:Work>
  </rdf:RDF>
 </metadata>
 <defs>
  <style type="text/css">*{stroke-linecap:butt;stroke-linejoin:round;}</style>
 </defs>
 <g id="figure_1">
  <g id="patch_1">
   <path d="M 0 345.6 
L 460.8 345.6 
L 460.8 0 
L 0 0 
z
" style="fill:#ffffff;"/>
  </g>
  <g id="axes_1">
   <g id="patch_2">
    <path d="M 57.6 298.944 
L 360.8064 298.944 
L 360.8064 6.912 
L 57.6 6.912 
z
" style="fill:#ffffff;"/>
   </g>
   <g id="matplotlib.axis_1">
    <g id="xtick_1">
     <g id="line2d_1">
      <path clip-path="url(#p790bf8f898)" d="M 57.6 298.944 
L 57.6 6.912 
" style="fill:none;stroke:#b0b0b0;stroke-linecap:square;stroke-width:0.8;"/>
     </g>
     <g id="line2d_2">
      <defs>
       <path d="M 0 0 
L 0 3.5 
" id="mbc87e4570d" style="stroke:#000000;stroke-width:0.8;"/>
      </defs>
      <g>
       <use style="stroke:#000000;stroke-width:0.8;" x="57.6" xlink:href="#mbc87e4570d" y="298.944"/>
      </g>
     </g>
     <g id="text_1">
      <!-- 0 -->
      <g transform="translate(52.191875 318.861344)scale(0.17 -0.17)">
       <defs>
        <path d="M 31.78125 66.40625 
Q 24.171875 66.40625 20.328125 58.90625 
Q 16.5 51.421875 16.5 36.375 
Q 16.5 21.390625 20.328125 13.890625 
Q 24.171875 6.390625 31.78125 6.390625 
Q 39.453125 6.390625 43.28125 13.890625 
Q 47.125 21.390625 47.125 36.375 
Q 47.125 51.421875 43.28125 58.90625 
Q 39.453125 66.40625 31.78125 66.40625 
z
M 31.78125 74.21875 
Q 44.046875 74.21875 50.515625 64.515625 
Q 56.984375 54.828125 56.984375 36.375 
Q 56.984375 17.96875 50.515625 8.265625 
Q 44.046875 -1.421875 31.78125 -1.421875 
Q 19.53125 -1.421875 13.0625 8.265625 
Q 6.59375 17.96875 6.59375 36.375 
Q 6.59375 54.828125 13.0625 64.515625 
Q 19.53125 74.21875 31.78125 74.21875 
z
" id="DejaVuSans-48"/>
       </defs>
       <use xlink:href="#DejaVuSans-48"/>
      </g>
     </g>
    </g>
    <g id="xtick_2">
     <g id="line2d_3">
      <path clip-path="url(#p790bf8f898)" d="M 144.2304 298.944 
L 144.2304 6.912 
" style="fill:none;stroke:#b0b0b0;stroke-linecap:square;stroke-width:0.8;"/>
     </g>
     <g id="line2d_4">
      <g>
       <use style="stroke:#000000;stroke-width:0.8;" x="144.2304" xlink:href="#mbc87e4570d" y="298.944"/>
      </g>
     </g>
     <g id="text_2">
      <!-- 2 -->
      <g transform="translate(138.822275 318.861344)scale(0.17 -0.17)">
       <defs>
        <path d="M 19.1875 8.296875 
L 53.609375 8.296875 
L 53.609375 0 
L 7.328125 0 
L 7.328125 8.296875 
Q 12.9375 14.109375 22.625 23.890625 
Q 32.328125 33.6875 34.8125 36.53125 
Q 39.546875 41.84375 41.421875 45.53125 
Q 43.3125 49.21875 43.3125 52.78125 
Q 43.3125 58.59375 39.234375 62.25 
Q 35.15625 65.921875 28.609375 65.921875 
Q 23.96875 65.921875 18.8125 64.3125 
Q 13.671875 62.703125 7.8125 59.421875 
L 7.8125 69.390625 
Q 13.765625 71.78125 18.9375 73 
Q 24.125 74.21875 28.421875 74.21875 
Q 39.75 74.21875 46.484375 68.546875 
Q 53.21875 62.890625 53.21875 53.421875 
Q 53.21875 48.921875 51.53125 44.890625 
Q 49.859375 40.875 45.40625 35.40625 
Q 44.1875 33.984375 37.640625 27.21875 
Q 31.109375 20.453125 19.1875 8.296875 
z
" id="DejaVuSans-50"/>
       </defs>
       <use xlink:href="#DejaVuSans-50"/>
      </g>
     </g>
    </g>
    <g id="xtick_3">
     <g id="line2d_5">
      <path clip-path="url(#p790bf8f898)" d="M 230.8608 298.944 
L 230.8608 6.912 
" style="fill:none;stroke:#b0b0b0;stroke-linecap:square;stroke-width:0.8;"/>
     </g>
     <g id="line2d_6">
      <g>
       <use style="stroke:#000000;stroke-width:0.8;" x="230.8608" xlink:href="#mbc87e4570d" y="298.944"/>
      </g>
     </g>
     <g id="text_3">
      <!-- 4 -->
      <g transform="translate(225.452675 318.861344)scale(0.17 -0.17)">
       <defs>
        <path d="M 37.796875 64.3125 
L 12.890625 25.390625 
L 37.796875 25.390625 
z
M 35.203125 72.90625 
L 47.609375 72.90625 
L 47.609375 25.390625 
L 58.015625 25.390625 
L 58.015625 17.1875 
L 47.609375 17.1875 
L 47.609375 0 
L 37.796875 0 
L 37.796875 17.1875 
L 4.890625 17.1875 
L 4.890625 26.703125 
z
" id="DejaVuSans-52"/>
       </defs>
       <use xlink:href="#DejaVuSans-52"/>
      </g>
     </g>
    </g>
    <g id="xtick_4">
     <g id="line2d_7">
      <path clip-path="url(#p790bf8f898)" d="M 317.4912 298.944 
L 317.4912 6.912 
" style="fill:none;stroke:#b0b0b0;stroke-linecap:square;stroke-width:0.8;"/>
     </g>
     <g id="line2d_8">
      <g>
       <use style="stroke:#000000;stroke-width:0.8;" x="317.4912" xlink:href="#mbc87e4570d" y="298.944"/>
      </g>
     </g>
     <g id="text_4">
      <!-- 6 -->
      <g transform="translate(312.083075 318.861344)scale(0.17 -0.17)">
       <defs>
        <path d="M 33.015625 40.375 
Q 26.375 40.375 22.484375 35.828125 
Q 18.609375 31.296875 18.609375 23.390625 
Q 18.609375 15.53125 22.484375 10.953125 
Q 26.375 6.390625 33.015625 6.390625 
Q 39.65625 6.390625 43.53125 10.953125 
Q 47.40625 15.53125 47.40625 23.390625 
Q 47.40625 31.296875 43.53125 35.828125 
Q 39.65625 40.375 33.015625 40.375 
z
M 52.59375 71.296875 
L 52.59375 62.3125 
Q 48.875 64.0625 45.09375 64.984375 
Q 41.3125 65.921875 37.59375 65.921875 
Q 27.828125 65.921875 22.671875 59.328125 
Q 17.53125 52.734375 16.796875 39.40625 
Q 19.671875 43.65625 24.015625 45.921875 
Q 28.375 48.1875 33.59375 48.1875 
Q 44.578125 48.1875 50.953125 41.515625 
Q 57.328125 34.859375 57.328125 23.390625 
Q 57.328125 12.15625 50.6875 5.359375 
Q 44.046875 -1.421875 33.015625 -1.421875 
Q 20.359375 -1.421875 13.671875 8.265625 
Q 6.984375 17.96875 6.984375 36.375 
Q 6.984375 53.65625 15.1875 63.9375 
Q 23.390625 74.21875 37.203125 74.21875 
Q 40.921875 74.21875 44.703125 73.484375 
Q 48.484375 72.75 52.59375 71.296875 
z
" id="DejaVuSans-54"/>
       </defs>
       <use xlink:href="#DejaVuSans-54"/>
      </g>
     </g>
    </g>
    <g id="xtick_5">
     <g id="line2d_9">
      <path clip-path="url(#p790bf8f898)" d="M 100.9152 298.944 
L 100.9152 6.912 
" style="fill:none;stroke:#b0b0b0;stroke-linecap:square;stroke-width:0.8;"/>
     </g>
     <g id="line2d_10">
      <defs>
       <path d="M 0 0 
L 0 2 
" id="mdfa0366b23" style="stroke:#000000;stroke-width:0.6;"/>
      </defs>
      <g>
       <use style="stroke:#000000;stroke-width:0.6;" x="100.9152" xlink:href="#mdfa0366b23" y="298.944"/>
      </g>
     </g>
    </g>
    <g id="xtick_6">
     <g id="line2d_11">
      <path clip-path="url(#p790bf8f898)" d="M 187.5456 298.944 
L 187.5456 6.912 
" style="fill:none;stroke:#b0b0b0;stroke-linecap:square;stroke-width:0.8;"/>
     </g>
     <g id="line2d_12">
      <g>
       <use style="stroke:#000000;stroke-width:0.6;" x="187.5456" xlink:href="#mdfa0366b23" y="298.944"/>
      </g>
     </g>
    </g>
    <g id="xtick_7">
     <g id="line2d_13">
      <path clip-path="url(#p790bf8f898)" d="M 274.176 298.944 
L 274.176 6.912 
" style="fill:none;stroke:#b0b0b0;stroke-linecap:square;stroke-width:0.8;"/>
     </g>
     <g id="line2d_14">
      <g>
       <use style="stroke:#000000;stroke-width:0.6;" x="274.176" xlink:href="#mdfa0366b23" y="298.944"/>
      </g>
     </g>
    </g>
    <g id="xtick_8">
     <g id="line2d_15">
      <path clip-path="url(#p790bf8f898)" d="M 360.8064 298.944 
L 360.8064 6.912 
" style="fill:none;stroke:#b0b0b0;stroke-linecap:square;stroke-width:0.8;"/>
     </g>
     <g id="line2d_16">
      <g>
       <use style="stroke:#000000;stroke-width:0.6;" x="360.8064" xlink:href="#mdfa0366b23" y="298.944"/>
      </g>
     </g>
    </g>
    <g id="text_5">
     <!-- log10(evals / dimension) -->
     <g transform="translate(104.238825 339.314156)scale(0.17 -0.17)">
      <defs>
       <path d="M 9.421875 75.984375 
L 18.40625 75.984375 
L 18.40625 0 
L 9.421875 0 
z
" id="DejaVuSans-108"/>
       <path d="M 30.609375 48.390625 
Q 23.390625 48.390625 19.1875 42.75 
Q 14.984375 37.109375 14.984375 27.296875 
Q 14.984375 17.484375 19.15625 11.84375 
Q 23.34375 6.203125 30.609375 6.203125 
Q 37.796875 6.203125 41.984375 11.859375 
Q 46.1875 17.53125 46.1875 27.296875 
Q 46.1875 37.015625 41.984375 42.703125 
Q 37.796875 48.390625 30.609375 48.390625 
z
M 30.609375 56 
Q 42.328125 56 49.015625 48.375 
Q 55.71875 40.765625 55.71875 27.296875 
Q 55.71875 13.875 49.015625 6.21875 
Q 42.328125 -1.421875 30.609375 -1.421875 
Q 18.84375 -1.421875 12.171875 6.21875 
Q 5.515625 13.875 5.515625 27.296875 
Q 5.515625 40.765625 12.171875 48.375 
Q 18.84375 56 30.609375 56 
z
" id="DejaVuSans-111"/>
       <path d="M 45.40625 27.984375 
Q 45.40625 37.75 41.375 43.109375 
Q 37.359375 48.484375 30.078125 48.484375 
Q 22.859375 48.484375 18.828125 43.109375 
Q 14.796875 37.75 14.796875 27.984375 
Q 14.796875 18.265625 18.828125 12.890625 
Q 22.859375 7.515625 30.078125 7.515625 
Q 37.359375 7.515625 41.375 12.890625 
Q 45.40625 18.265625 45.40625 27.984375 
z
M 54.390625 6.78125 
Q 54.390625 -7.171875 48.1875 -13.984375 
Q 42 -20.796875 29.203125 -20.796875 
Q 24.46875 -20.796875 20.265625 -20.09375 
Q 16.0625 -19.390625 12.109375 -17.921875 
L 12.109375 -9.1875 
Q 16.0625 -11.328125 19.921875 -12.34375 
Q 23.78125 -13.375 27.78125 -13.375 
Q 36.625 -13.375 41.015625 -8.765625 
Q 45.40625 -4.15625 45.40625 5.171875 
L 45.40625 9.625 
Q 42.625 4.78125 38.28125 2.390625 
Q 33.9375 0 27.875 0 
Q 17.828125 0 11.671875 7.65625 
Q 5.515625 15.328125 5.515625 27.984375 
Q 5.515625 40.671875 11.671875 48.328125 
Q 17.828125 56 27.875 56 
Q 33.9375 56 38.28125 53.609375 
Q 42.625 51.21875 45.40625 46.390625 
L 45.40625 54.6875 
L 54.390625 54.6875 
z
" id="DejaVuSans-103"/>
       <path d="M 12.40625 8.296875 
L 28.515625 8.296875 
L 28.515625 63.921875 
L 10.984375 60.40625 
L 10.984375 69.390625 
L 28.421875 72.90625 
L 38.28125 72.90625 
L 38.28125 8.296875 
L 54.390625 8.296875 
L 54.390625 0 
L 12.40625 0 
z
" id="DejaVuSans-49"/>
       <path d="M 31 75.875 
Q 24.46875 64.65625 21.28125 53.65625 
Q 18.109375 42.671875 18.109375 31.390625 
Q 18.109375 20.125 21.3125 9.0625 
Q 24.515625 -2 31 -13.1875 
L 23.1875 -13.1875 
Q 15.875 -1.703125 12.234375 9.375 
Q 8.59375 20.453125 8.59375 31.390625 
Q 8.59375 42.28125 12.203125 53.3125 
Q 15.828125 64.359375 23.1875 75.875 
z
" id="DejaVuSans-40"/>
       <path d="M 56.203125 29.59375 
L 56.203125 25.203125 
L 14.890625 25.203125 
Q 15.484375 15.921875 20.484375 11.0625 
Q 25.484375 6.203125 34.421875 6.203125 
Q 39.59375 6.203125 44.453125 7.46875 
Q 49.3125 8.734375 54.109375 11.28125 
L 54.109375 2.78125 
Q 49.265625 0.734375 44.1875 -0.34375 
Q 39.109375 -1.421875 33.890625 -1.421875 
Q 20.796875 -1.421875 13.15625 6.1875 
Q 5.515625 13.8125 5.515625 26.8125 
Q 5.515625 40.234375 12.765625 48.109375 
Q 20.015625 56 32.328125 56 
Q 43.359375 56 49.78125 48.890625 
Q 56.203125 41.796875 56.203125 29.59375 
z
M 47.21875 32.234375 
Q 47.125 39.59375 43.09375 43.984375 
Q 39.0625 48.390625 32.421875 48.390625 
Q 24.90625 48.390625 20.390625 44.140625 
Q 15.875 39.890625 15.1875 32.171875 
z
" id="DejaVuSans-101"/>
       <path d="M 2.984375 54.6875 
L 12.5 54.6875 
L 29.59375 8.796875 
L 46.6875 54.6875 
L 56.203125 54.6875 
L 35.6875 0 
L 23.484375 0 
z
" id="DejaVuSans-118"/>
       <path d="M 34.28125 27.484375 
Q 23.390625 27.484375 19.1875 25 
Q 14.984375 22.515625 14.984375 16.5 
Q 14.984375 11.71875 18.140625 8.90625 
Q 21.296875 6.109375 26.703125 6.109375 
Q 34.1875 6.109375 38.703125 11.40625 
Q 43.21875 16.703125 43.21875 25.484375 
L 43.21875 27.484375 
z
M 52.203125 31.203125 
L 52.203125 0 
L 43.21875 0 
L 43.21875 8.296875 
Q 40.140625 3.328125 35.546875 0.953125 
Q 30.953125 -1.421875 24.3125 -1.421875 
Q 15.921875 -1.421875 10.953125 3.296875 
Q 6 8.015625 6 15.921875 
Q 6 25.140625 12.171875 29.828125 
Q 18.359375 34.515625 30.609375 34.515625 
L 43.21875 34.515625 
L 43.21875 35.40625 
Q 43.21875 41.609375 39.140625 45 
Q 35.0625 48.390625 27.6875 48.390625 
Q 23 48.390625 18.546875 47.265625 
Q 14.109375 46.140625 10.015625 43.890625 
L 10.015625 52.203125 
Q 14.9375 54.109375 19.578125 55.046875 
Q 24.21875 56 28.609375 56 
Q 40.484375 56 46.34375 49.84375 
Q 52.203125 43.703125 52.203125 31.203125 
z
" id="DejaVuSans-97"/>
       <path d="M 44.28125 53.078125 
L 44.28125 44.578125 
Q 40.484375 46.53125 36.375 47.5 
Q 32.28125 48.484375 27.875 48.484375 
Q 21.1875 48.484375 17.84375 46.4375 
Q 14.5 44.390625 14.5 40.28125 
Q 14.5 37.15625 16.890625 35.375 
Q 19.28125 33.59375 26.515625 31.984375 
L 29.59375 31.296875 
Q 39.15625 29.25 43.1875 25.515625 
Q 47.21875 21.78125 47.21875 15.09375 
Q 47.21875 7.46875 41.1875 3.015625 
Q 35.15625 -1.421875 24.609375 -1.421875 
Q 20.21875 -1.421875 15.453125 -0.5625 
Q 10.6875 0.296875 5.421875 2 
L 5.421875 11.28125 
Q 10.40625 8.6875 15.234375 7.390625 
Q 20.0625 6.109375 24.8125 6.109375 
Q 31.15625 6.109375 34.5625 8.28125 
Q 37.984375 10.453125 37.984375 14.40625 
Q 37.984375 18.0625 35.515625 20.015625 
Q 33.0625 21.96875 24.703125 23.78125 
L 21.578125 24.515625 
Q 13.234375 26.265625 9.515625 29.90625 
Q 5.8125 33.546875 5.8125 39.890625 
Q 5.8125 47.609375 11.28125 51.796875 
Q 16.75 56 26.8125 56 
Q 31.78125 56 36.171875 55.265625 
Q 40.578125 54.546875 44.28125 53.078125 
z
" id="DejaVuSans-115"/>
       <path id="DejaVuSans-32"/>
       <path d="M 25.390625 72.90625 
L 33.6875 72.90625 
L 8.296875 -9.28125 
L 0 -9.28125 
z
" id="DejaVuSans-47"/>
       <path d="M 45.40625 46.390625 
L 45.40625 75.984375 
L 54.390625 75.984375 
L 54.390625 0 
L 45.40625 0 
L 45.40625 8.203125 
Q 42.578125 3.328125 38.25 0.953125 
Q 33.9375 -1.421875 27.875 -1.421875 
Q 17.96875 -1.421875 11.734375 6.484375 
Q 5.515625 14.40625 5.515625 27.296875 
Q 5.515625 40.1875 11.734375 48.09375 
Q 17.96875 56 27.875 56 
Q 33.9375 56 38.25 53.625 
Q 42.578125 51.265625 45.40625 46.390625 
z
M 14.796875 27.296875 
Q 14.796875 17.390625 18.875 11.75 
Q 22.953125 6.109375 30.078125 6.109375 
Q 37.203125 6.109375 41.296875 11.75 
Q 45.40625 17.390625 45.40625 27.296875 
Q 45.40625 37.203125 41.296875 42.84375 
Q 37.203125 48.484375 30.078125 48.484375 
Q 22.953125 48.484375 18.875 42.84375 
Q 14.796875 37.203125 14.796875 27.296875 
z
" id="DejaVuSans-100"/>
       <path d="M 9.421875 54.6875 
L 18.40625 54.6875 
L 18.40625 0 
L 9.421875 0 
z
M 9.421875 75.984375 
L 18.40625 75.984375 
L 18.40625 64.59375 
L 9.421875 64.59375 
z
" id="DejaVuSans-105"/>
       <path d="M 52 44.1875 
Q 55.375 50.25 60.0625 53.125 
Q 64.75 56 71.09375 56 
Q 79.640625 56 84.28125 50.015625 
Q 88.921875 44.046875 88.921875 33.015625 
L 88.921875 0 
L 79.890625 0 
L 79.890625 32.71875 
Q 79.890625 40.578125 77.09375 44.375 
Q 74.3125 48.1875 68.609375 48.1875 
Q 61.625 48.1875 57.5625 43.546875 
Q 53.515625 38.921875 53.515625 30.90625 
L 53.515625 0 
L 44.484375 0 
L 44.484375 32.71875 
Q 44.484375 40.625 41.703125 44.40625 
Q 38.921875 48.1875 33.109375 48.1875 
Q 26.21875 48.1875 22.15625 43.53125 
Q 18.109375 38.875 18.109375 30.90625 
L 18.109375 0 
L 9.078125 0 
L 9.078125 54.6875 
L 18.109375 54.6875 
L 18.109375 46.1875 
Q 21.1875 51.21875 25.484375 53.609375 
Q 29.78125 56 35.6875 56 
Q 41.65625 56 45.828125 52.96875 
Q 50 49.953125 52 44.1875 
z
" id="DejaVuSans-109"/>
       <path d="M 54.890625 33.015625 
L 54.890625 0 
L 45.90625 0 
L 45.90625 32.71875 
Q 45.90625 40.484375 42.875 44.328125 
Q 39.84375 48.1875 33.796875 48.1875 
Q 26.515625 48.1875 22.3125 43.546875 
Q 18.109375 38.921875 18.109375 30.90625 
L 18.109375 0 
L 9.078125 0 
L 9.078125 54.6875 
L 18.109375 54.6875 
L 18.109375 46.1875 
Q 21.34375 51.125 25.703125 53.5625 
Q 30.078125 56 35.796875 56 
Q 45.21875 56 50.046875 50.171875 
Q 54.890625 44.34375 54.890625 33.015625 
z
" id="DejaVuSans-110"/>
       <path d="M 8.015625 75.875 
L 15.828125 75.875 
Q 23.140625 64.359375 26.78125 53.3125 
Q 30.421875 42.28125 30.421875 31.390625 
Q 30.421875 20.453125 26.78125 9.375 
Q 23.140625 -1.703125 15.828125 -13.1875 
L 8.015625 -13.1875 
Q 14.5 -2 17.703125 9.0625 
Q 20.90625 20.125 20.90625 31.390625 
Q 20.90625 42.671875 17.703125 53.65625 
Q 14.5 64.65625 8.015625 75.875 
z
" id="DejaVuSans-41"/>
      </defs>
      <use xlink:href="#DejaVuSans-108"/>
      <use x="27.783203" xlink:href="#DejaVuSans-111"/>
      <use x="88.964844" xlink:href="#DejaVuSans-103"/>
      <use x="152.441406" xlink:href="#DejaVuSans-49"/>
      <use x="216.064453" xlink:href="#DejaVuSans-48"/>
      <use x="279.6875" xlink:href="#DejaVuSans-40"/>
      <use x="318.701172" xlink:href="#DejaVuSans-101"/>
      <use x="380.224609" xlink:href="#DejaVuSans-118"/>
      <use x="439.404297" xlink:href="#DejaVuSans-97"/>
      <use x="500.683594" xlink:href="#DejaVuSans-108"/>
      <use x="528.466797" xlink:href="#DejaVuSans-115"/>
      <use x="580.566406" xlink:href="#DejaVuSans-32"/>
      <use x="612.353516" xlink:href="#DejaVuSans-47"/>
      <use x="646.044922" xlink:href="#DejaVuSans-32"/>
      <use x="677.832031" xlink:href="#DejaVuSans-100"/>
      <use x="741.308594" xlink:href="#DejaVuSans-105"/>
      <use x="769.091797" xlink:href="#DejaVuSans-109"/>
      <use x="866.503906" xlink:href="#DejaVuSans-101"/>
      <use x="928.027344" xlink:href="#DejaVuSans-110"/>
      <use x="991.40625" xlink:href="#DejaVuSans-115"/>
      <use x="1043.505859" xlink:href="#DejaVuSans-105"/>
      <use x="1071.289062" xlink:href="#DejaVuSans-111"/>
      <use x="1132.470703" xlink:href="#DejaVuSans-110"/>
      <use x="1195.849609" xlink:href="#DejaVuSans-41"/>
     </g>
    </g>
   </g>
   <g id="matplotlib.axis_2">
    <g id="ytick_1">
     <g id="line2d_17">
      <path clip-path="url(#p790bf8f898)" d="M 57.6 298.944 
L 360.8064 298.944 
" style="fill:none;stroke:#b0b0b0;stroke-linecap:square;stroke-width:0.8;"/>
     </g>
     <g id="line2d_18">
      <defs>
       <path d="M 0 0 
L -3.5 0 
" id="m460afaf858" style="stroke:#000000;stroke-width:0.8;"/>
      </defs>
      <g>
       <use style="stroke:#000000;stroke-width:0.8;" x="57.6" xlink:href="#m460afaf858" y="298.944"/>
      </g>
     </g>
     <g id="text_6">
      <!-- 0.0 -->
      <g transform="translate(25.155 305.02275)scale(0.16 -0.16)">
       <defs>
        <path d="M 10.6875 12.40625 
L 21 12.40625 
L 21 0 
L 10.6875 0 
z
" id="DejaVuSans-46"/>
       </defs>
       <use xlink:href="#DejaVuSans-48"/>
       <use x="63.623047" xlink:href="#DejaVuSans-46"/>
       <use x="95.410156" xlink:href="#DejaVuSans-48"/>
      </g>
     </g>
    </g>
    <g id="ytick_2">
     <g id="line2d_19">
      <path clip-path="url(#p790bf8f898)" d="M 57.6 240.5376 
L 360.8064 240.5376 
" style="fill:none;stroke:#b0b0b0;stroke-linecap:square;stroke-width:0.8;"/>
     </g>
     <g id="line2d_20">
      <g>
       <use style="stroke:#000000;stroke-width:0.8;" x="57.6" xlink:href="#m460afaf858" y="240.5376"/>
      </g>
     </g>
     <g id="text_7">
      <!-- 0.2 -->
      <g transform="translate(25.155 246.61635)scale(0.16 -0.16)">
       <use xlink:href="#DejaVuSans-48"/>
       <use x="63.623047" xlink:href="#DejaVuSans-46"/>
       <use x="95.410156" xlink:href="#DejaVuSans-50"/>
      </g>
     </g>
    </g>
    <g id="ytick_3">
     <g id="line2d_21">
      <path clip-path="url(#p790bf8f898)" d="M 57.6 182.1312 
L 360.8064 182.1312 
" style="fill:none;stroke:#b0b0b0;stroke-linecap:square;stroke-width:0.8;"/>
     </g>
     <g id="line2d_22">
      <g>
       <use style="stroke:#000000;stroke-width:0.8;" x="57.6" xlink:href="#m460afaf858" y="182.1312"/>
      </g>
     </g>
     <g id="text_8">
      <!-- 0.4 -->
      <g transform="translate(25.155 188.20995)scale(0.16 -0.16)">
       <use xlink:href="#DejaVuSans-48"/>
       <use x="63.623047" xlink:href="#DejaVuSans-46"/>
       <use x="95.410156" xlink:href="#DejaVuSans-52"/>
      </g>
     </g>
    </g>
    <g id="ytick_4">
     <g id="line2d_23">
      <path clip-path="url(#p790bf8f898)" d="M 57.6 123.7248 
L 360.8064 123.7248 
" style="fill:none;stroke:#b0b0b0;stroke-linecap:square;stroke-width:0.8;"/>
     </g>
     <g id="line2d_24">
      <g>
       <use style="stroke:#000000;stroke-width:0.8;" x="57.6" xlink:href="#m460afaf858" y="123.7248"/>
      </g>
     </g>
     <g id="text_9">
      <!-- 0.6 -->
      <g transform="translate(25.155 129.80355)scale(0.16 -0.16)">
       <use xlink:href="#DejaVuSans-48"/>
       <use x="63.623047" xlink:href="#DejaVuSans-46"/>
       <use x="95.410156" xlink:href="#DejaVuSans-54"/>
      </g>
     </g>
    </g>
    <g id="ytick_5">
     <g id="line2d_25">
      <path clip-path="url(#p790bf8f898)" d="M 57.6 65.3184 
L 360.8064 65.3184 
" style="fill:none;stroke:#b0b0b0;stroke-linecap:square;stroke-width:0.8;"/>
     </g>
     <g id="line2d_26">
      <g>
       <use style="stroke:#000000;stroke-width:0.8;" x="57.6" xlink:href="#m460afaf858" y="65.3184"/>
      </g>
     </g>
     <g id="text_10">
      <!-- 0.8 -->
      <g transform="translate(25.155 71.39715)scale(0.16 -0.16)">
       <defs>
        <path d="M 31.78125 34.625 
Q 24.75 34.625 20.71875 30.859375 
Q 16.703125 27.09375 16.703125 20.515625 
Q 16.703125 13.921875 20.71875 10.15625 
Q 24.75 6.390625 31.78125 6.390625 
Q 38.8125 6.390625 42.859375 10.171875 
Q 46.921875 13.96875 46.921875 20.515625 
Q 46.921875 27.09375 42.890625 30.859375 
Q 38.875 34.625 31.78125 34.625 
z
M 21.921875 38.8125 
Q 15.578125 40.375 12.03125 44.71875 
Q 8.5 49.078125 8.5 55.328125 
Q 8.5 64.0625 14.71875 69.140625 
Q 20.953125 74.21875 31.78125 74.21875 
Q 42.671875 74.21875 48.875 69.140625 
Q 55.078125 64.0625 55.078125 55.328125 
Q 55.078125 49.078125 51.53125 44.71875 
Q 48 40.375 41.703125 38.8125 
Q 48.828125 37.15625 52.796875 32.3125 
Q 56.78125 27.484375 56.78125 20.515625 
Q 56.78125 9.90625 50.3125 4.234375 
Q 43.84375 -1.421875 31.78125 -1.421875 
Q 19.734375 -1.421875 13.25 4.234375 
Q 6.78125 9.90625 6.78125 20.515625 
Q 6.78125 27.484375 10.78125 32.3125 
Q 14.796875 37.15625 21.921875 38.8125 
z
M 18.3125 54.390625 
Q 18.3125 48.734375 21.84375 45.5625 
Q 25.390625 42.390625 31.78125 42.390625 
Q 38.140625 42.390625 41.71875 45.5625 
Q 45.3125 48.734375 45.3125 54.390625 
Q 45.3125 60.0625 41.71875 63.234375 
Q 38.140625 66.40625 31.78125 66.40625 
Q 25.390625 66.40625 21.84375 63.234375 
Q 18.3125 60.0625 18.3125 54.390625 
z
" id="DejaVuSans-56"/>
       </defs>
       <use xlink:href="#DejaVuSans-48"/>
       <use x="63.623047" xlink:href="#DejaVuSans-46"/>
       <use x="95.410156" xlink:href="#DejaVuSans-56"/>
      </g>
     </g>
    </g>
    <g id="ytick_6">
     <g id="line2d_27">
      <path clip-path="url(#p790bf8f898)" d="M 57.6 6.912 
L 360.8064 6.912 
" style="fill:none;stroke:#b0b0b0;stroke-linecap:square;stroke-width:0.8;"/>
     </g>
     <g id="line2d_28">
      <g>
       <use style="stroke:#000000;stroke-width:0.8;" x="57.6" xlink:href="#m460afaf858" y="6.912"/>
      </g>
     </g>
     <g id="text_11">
      <!-- 1.0 -->
      <g transform="translate(25.155 12.99075)scale(0.16 -0.16)">
       <use xlink:href="#DejaVuSans-49"/>
       <use x="63.623047" xlink:href="#DejaVuSans-46"/>
       <use x="95.410156" xlink:href="#DejaVuSans-48"/>
      </g>
     </g>
    </g>
    <g id="text_12">
     <!-- Fraction of function,target pairs -->
     <g transform="translate(17.619531 287.313)rotate(-90)scale(0.17 -0.17)">
      <defs>
       <path d="M 9.8125 72.90625 
L 51.703125 72.90625 
L 51.703125 64.59375 
L 19.671875 64.59375 
L 19.671875 43.109375 
L 48.578125 43.109375 
L 48.578125 34.8125 
L 19.671875 34.8125 
L 19.671875 0 
L 9.8125 0 
z
" id="DejaVuSans-70"/>
       <path d="M 41.109375 46.296875 
Q 39.59375 47.171875 37.8125 47.578125 
Q 36.03125 48 33.890625 48 
Q 26.265625 48 22.1875 43.046875 
Q 18.109375 38.09375 18.109375 28.8125 
L 18.109375 0 
L 9.078125 0 
L 9.078125 54.6875 
L 18.109375 54.6875 
L 18.109375 46.1875 
Q 20.953125 51.171875 25.484375 53.578125 
Q 30.03125 56 36.53125 56 
Q 37.453125 56 38.578125 55.875 
Q 39.703125 55.765625 41.0625 55.515625 
z
" id="DejaVuSans-114"/>
       <path d="M 48.78125 52.59375 
L 48.78125 44.1875 
Q 44.96875 46.296875 41.140625 47.34375 
Q 37.3125 48.390625 33.40625 48.390625 
Q 24.65625 48.390625 19.8125 42.84375 
Q 14.984375 37.3125 14.984375 27.296875 
Q 14.984375 17.28125 19.8125 11.734375 
Q 24.65625 6.203125 33.40625 6.203125 
Q 37.3125 6.203125 41.140625 7.25 
Q 44.96875 8.296875 48.78125 10.40625 
L 48.78125 2.09375 
Q 45.015625 0.34375 40.984375 -0.53125 
Q 36.96875 -1.421875 32.421875 -1.421875 
Q 20.0625 -1.421875 12.78125 6.34375 
Q 5.515625 14.109375 5.515625 27.296875 
Q 5.515625 40.671875 12.859375 48.328125 
Q 20.21875 56 33.015625 56 
Q 37.15625 56 41.109375 55.140625 
Q 45.0625 54.296875 48.78125 52.59375 
z
" id="DejaVuSans-99"/>
       <path d="M 18.3125 70.21875 
L 18.3125 54.6875 
L 36.8125 54.6875 
L 36.8125 47.703125 
L 18.3125 47.703125 
L 18.3125 18.015625 
Q 18.3125 11.328125 20.140625 9.421875 
Q 21.96875 7.515625 27.59375 7.515625 
L 36.8125 7.515625 
L 36.8125 0 
L 27.59375 0 
Q 17.1875 0 13.234375 3.875 
Q 9.28125 7.765625 9.28125 18.015625 
L 9.28125 47.703125 
L 2.6875 47.703125 
L 2.6875 54.6875 
L 9.28125 54.6875 
L 9.28125 70.21875 
z
" id="DejaVuSans-116"/>
       <path d="M 37.109375 75.984375 
L 37.109375 68.5 
L 28.515625 68.5 
Q 23.6875 68.5 21.796875 66.546875 
Q 19.921875 64.59375 19.921875 59.515625 
L 19.921875 54.6875 
L 34.71875 54.6875 
L 34.71875 47.703125 
L 19.921875 47.703125 
L 19.921875 0 
L 10.890625 0 
L 10.890625 47.703125 
L 2.296875 47.703125 
L 2.296875 54.6875 
L 10.890625 54.6875 
L 10.890625 58.5 
Q 10.890625 67.625 15.140625 71.796875 
Q 19.390625 75.984375 28.609375 75.984375 
z
" id="DejaVuSans-102"/>
       <path d="M 8.5 21.578125 
L 8.5 54.6875 
L 17.484375 54.6875 
L 17.484375 21.921875 
Q 17.484375 14.15625 20.5 10.265625 
Q 23.53125 6.390625 29.59375 6.390625 
Q 36.859375 6.390625 41.078125 11.03125 
Q 45.3125 15.671875 45.3125 23.6875 
L 45.3125 54.6875 
L 54.296875 54.6875 
L 54.296875 0 
L 45.3125 0 
L 45.3125 8.40625 
Q 42.046875 3.421875 37.71875 1 
Q 33.40625 -1.421875 27.6875 -1.421875 
Q 18.265625 -1.421875 13.375 4.4375 
Q 8.5 10.296875 8.5 21.578125 
z
M 31.109375 56 
z
" id="DejaVuSans-117"/>
       <path d="M 11.71875 12.40625 
L 22.015625 12.40625 
L 22.015625 4 
L 14.015625 -11.625 
L 7.71875 -11.625 
L 11.71875 4 
z
" id="DejaVuSans-44"/>
       <path d="M 18.109375 8.203125 
L 18.109375 -20.796875 
L 9.078125 -20.796875 
L 9.078125 54.6875 
L 18.109375 54.6875 
L 18.109375 46.390625 
Q 20.953125 51.265625 25.265625 53.625 
Q 29.59375 56 35.59375 56 
Q 45.5625 56 51.78125 48.09375 
Q 58.015625 40.1875 58.015625 27.296875 
Q 58.015625 14.40625 51.78125 6.484375 
Q 45.5625 -1.421875 35.59375 -1.421875 
Q 29.59375 -1.421875 25.265625 0.953125 
Q 20.953125 3.328125 18.109375 8.203125 
z
M 48.6875 27.296875 
Q 48.6875 37.203125 44.609375 42.84375 
Q 40.53125 48.484375 33.40625 48.484375 
Q 26.265625 48.484375 22.1875 42.84375 
Q 18.109375 37.203125 18.109375 27.296875 
Q 18.109375 17.390625 22.1875 11.75 
Q 26.265625 6.109375 33.40625 6.109375 
Q 40.53125 6.109375 44.609375 11.75 
Q 48.6875 17.390625 48.6875 27.296875 
z
" id="DejaVuSans-112"/>
      </defs>
      <use xlink:href="#DejaVuSans-70"/>
      <use x="50.269531" xlink:href="#DejaVuSans-114"/>
      <use x="91.382812" xlink:href="#DejaVuSans-97"/>
      <use x="152.662109" xlink:href="#DejaVuSans-99"/>
      <use x="207.642578" xlink:href="#DejaVuSans-116"/>
      <use x="246.851562" xlink:href="#DejaVuSans-105"/>
      <use x="274.634766" xlink:href="#DejaVuSans-111"/>
      <use x="335.816406" xlink:href="#DejaVuSans-110"/>
      <use x="399.195312" xlink:href="#DejaVuSans-32"/>
      <use x="430.982422" xlink:href="#DejaVuSans-111"/>
      <use x="492.164062" xlink:href="#DejaVuSans-102"/>
      <use x="527.369141" xlink:href="#DejaVuSans-32"/>
      <use x="559.15625" xlink:href="#DejaVuSans-102"/>
      <use x="594.361328" xlink:href="#DejaVuSans-117"/>
      <use x="657.740234" xlink:href="#DejaVuSans-110"/>
      <use x="721.119141" xlink:href="#DejaVuSans-99"/>
      <use x="776.099609" xlink:href="#DejaVuSans-116"/>
      <use x="815.308594" xlink:href="#DejaVuSans-105"/>
      <use x="843.091797" xlink:href="#DejaVuSans-111"/>
      <use x="904.273438" xlink:href="#DejaVuSans-110"/>
      <use x="967.652344" xlink:href="#DejaVuSans-44"/>
      <use x="999.439453" xlink:href="#DejaVuSans-116"/>
      <use x="1038.648438" xlink:href="#DejaVuSans-97"/>
      <use x="1099.927734" xlink:href="#DejaVuSans-114"/>
      <use x="1139.291016" xlink:href="#DejaVuSans-103"/>
      <use x="1202.767578" xlink:href="#DejaVuSans-101"/>
      <use x="1264.291016" xlink:href="#DejaVuSans-116"/>
      <use x="1303.5" xlink:href="#DejaVuSans-32"/>
      <use x="1335.287109" xlink:href="#DejaVuSans-112"/>
      <use x="1398.763672" xlink:href="#DejaVuSans-97"/>
      <use x="1460.042969" xlink:href="#DejaVuSans-105"/>
      <use x="1487.826172" xlink:href="#DejaVuSans-114"/>
      <use x="1528.939453" xlink:href="#DejaVuSans-115"/>
     </g>
    </g>
   </g>
   <g id="line2d_29">
    <defs>
     <path d="M 0 1.5 
C 0.397805 1.5 0.77937 1.341951 1.06066 1.06066 
C 1.341951 0.77937 1.5 0.397805 1.5 0 
C 1.5 -0.397805 1.341951 -0.77937 1.06066 -1.06066 
C 0.77937 -1.341951 0.397805 -1.5 0 -1.5 
C -0.397805 -1.5 -0.77937 -1.341951 -1.06066 -1.06066 
C -1.341951 -0.77937 -1.5 -0.397805 -1.5 0 
C -1.5 0.397805 -1.341951 0.77937 -1.06066 1.06066 
C -0.77937 1.341951 -0.397805 1.5 0 1.5 
z
" id="m6704bb91ac" style="stroke:#000080;"/>
    </defs>
    <g>
     <use style="fill:#000080;stroke:#000080;" x="367.087249" xlink:href="#m6704bb91ac" y="213.47122"/>
     <use style="fill:#000080;stroke:#000080;" x="367.087249" xlink:href="#m6704bb91ac" y="213.47122"/>
    </g>
   </g>
   <g id="line2d_30">
    <path d="M 102.708132 298.944 
L 102.708132 298.469151 
L 133.323114 298.469151 
L 133.323114 297.044605 
L 141.825656 297.044605 
L 141.825656 296.569756 
L 164.063646 296.569756 
L 164.063646 295.620059 
L 171.929885 295.620059 
L 171.929885 294.195512 
L 185.458805 294.195512 
L 185.458805 293.720663 
L 190.531213 293.720663 
L 190.531213 293.245815 
L 194.405103 293.245815 
L 194.405103 292.296117 
L 194.895082 292.296117 
L 194.895082 291.821268 
L 196.387098 291.821268 
L 196.387098 291.34642 
L 196.736549 291.34642 
L 196.736549 290.871571 
L 197.405424 290.871571 
L 197.405424 290.396722 
L 198.800305 290.396722 
L 198.800305 289.447024 
L 200.743997 289.447024 
L 200.743997 288.497327 
L 212.086057 288.497327 
L 212.086057 288.022478 
L 213.647449 288.022478 
L 213.647449 287.547629 
L 215.599829 287.547629 
L 215.599829 287.07278 
L 217.139723 287.07278 
L 217.139723 286.597932 
L 218.678432 286.597932 
L 218.678432 285.648234 
L 222.471325 285.648234 
L 222.471325 283.27399 
L 223.058555 283.27399 
L 223.169304 282.324293 
L 224.064998 282.324293 
L 224.064998 281.849444 
L 226.138559 281.849444 
L 226.138559 280.899746 
L 226.266276 280.899746 
L 226.266276 280.424898 
L 226.731192 280.424898 
L 226.731192 279.950049 
L 230.357502 279.950049 
L 230.357502 279.000351 
L 232.114215 279.000351 
L 232.114215 278.525502 
L 233.264491 278.525502 
L 233.264491 277.575805 
L 233.649567 277.575805 
L 233.649567 276.151259 
L 238.974745 276.151259 
L 238.974745 275.201561 
L 239.877835 275.201561 
L 239.877835 274.726712 
L 243.071205 274.726712 
L 243.071205 274.251863 
L 245.576256 274.251863 
L 245.576256 273.777015 
L 247.207052 273.777015 
L 247.207052 273.302166 
L 247.520011 273.302166 
L 247.520011 272.827317 
L 252.252539 272.827317 
L 252.252539 271.402771 
L 252.50306 271.402771 
L 252.50306 269.978224 
L 260.338699 269.978224 
L 260.338699 269.028527 
L 262.884899 269.028527 
L 262.910595 267.60398 
L 263.013369 267.60398 
L 263.013369 267.129132 
L 265.601083 267.129132 
L 265.601083 266.654283 
L 267.218059 266.654283 
L 267.218059 265.704585 
L 269.448923 265.704585 
L 269.448923 265.229737 
L 269.652428 265.229737 
L 269.653625 263.80519 
L 270.378946 263.80519 
L 270.378946 263.330341 
L 270.646585 263.330341 
L 270.646585 261.905795 
L 271.026475 261.905795 
L 271.026475 261.430946 
L 272.113991 261.430946 
L 272.113991 260.956098 
L 273.156361 260.956098 
L 273.156361 260.0064 
L 276.207179 260.0064 
L 276.207179 259.531551 
L 279.410794 259.531551 
L 279.410794 259.056702 
L 282.830573 259.056702 
L 282.830573 258.581854 
L 283.458016 258.581854 
L 283.458016 258.107005 
L 284.072209 258.107005 
L 284.072209 256.682459 
L 287.9556 256.682459 
L 287.9556 256.20761 
L 288.10933 256.20761 
L 288.10933 254.308215 
L 288.254695 254.308215 
L 288.275598 252.40882 
L 288.609993 252.40882 
L 288.609993 251.933971 
L 289.940497 251.933971 
L 289.97448 250.509424 
L 291.781238 250.509424 
L 291.781238 250.034576 
L 293.394996 250.034576 
L 293.452201 248.13518 
L 294.180066 248.13518 
L 294.180066 247.660332 
L 294.508826 247.660332 
L 294.508826 247.185483 
L 298.748429 247.185483 
L 298.748429 245.760937 
L 300.553044 245.760937 
L 300.553044 244.33639 
L 300.706739 244.33639 
L 300.792032 242.911844 
L 301.343555 242.911844 
L 301.343555 242.436995 
L 301.684549 242.436995 
L 301.684549 241.962146 
L 303.596895 241.962146 
L 303.596895 241.012449 
L 306.530696 241.012449 
L 306.530696 240.062751 
L 306.891342 240.062751 
L 306.891342 238.638205 
L 308.098983 238.638205 
L 308.098983 238.163356 
L 308.241935 238.163356 
L 308.241935 237.213659 
L 308.626934 237.213659 
L 308.626934 236.73881 
L 308.847221 236.73881 
L 308.847221 235.789112 
L 310.198241 235.789112 
L 310.198241 235.314263 
L 310.639268 235.314263 
L 310.639268 234.839415 
L 312.289418 234.839415 
L 312.289418 234.364566 
L 312.555629 234.364566 
L 312.555629 232.465171 
L 313.48138 232.465171 
L 313.564286 231.040624 
L 315.057061 231.040624 
L 315.057061 230.090927 
L 316.797415 230.090927 
L 316.797415 229.616078 
L 318.915009 229.616078 
L 318.915009 228.66638 
L 320.432252 228.66638 
L 320.432252 227.716683 
L 322.350178 227.716683 
L 322.350178 227.241834 
L 323.975963 227.241834 
L 323.975963 226.766985 
L 324.848648 226.766985 
L 324.848648 226.292137 
L 325.052345 226.292137 
L 325.052345 225.817288 
L 325.837344 225.817288 
L 325.90209 224.86759 
L 325.967368 224.86759 
L 325.967368 223.917893 
L 328.166106 223.917893 
L 328.223994 222.493346 
L 331.964348 222.493346 
L 332.058318 221.0688 
L 333.674152 221.0688 
L 333.717363 220.119102 
L 335.202032 220.119102 
L 335.202032 219.644254 
L 336.026297 219.644254 
L 336.026297 219.169405 
L 337.963843 219.169405 
L 337.963843 218.694556 
L 338.644478 218.694556 
L 338.644478 218.219707 
L 341.993986 218.219707 
L 341.993986 217.744859 
L 342.424534 217.744859 
L 342.424534 217.27001 
L 344.324487 217.27001 
L 344.324487 216.795161 
L 345.183858 216.795161 
L 345.183858 216.320312 
L 347.6305 216.320312 
L 347.6305 215.370615 
L 349.777086 215.370615 
L 349.777086 214.895766 
L 351.70362 214.895766 
L 351.70362 214.420917 
L 354.531886 214.420917 
L 354.531886 213.946068 
L 360.8064 213.946068 
L 360.8064 213.946068 
" style="fill:none;stroke:#000080;stroke-linecap:square;stroke-width:1.5;"/>
   </g>
   <g id="line2d_31">
    <defs>
     <path d="M 0 6 
C 1.591219 6 3.117479 5.367802 4.242641 4.242641 
C 5.367802 3.117479 6 1.591219 6 0 
C 6 -1.591219 5.367802 -3.117479 4.242641 -4.242641 
C 3.117479 -5.367802 1.591219 -6 0 -6 
C -1.591219 -6 -3.117479 -5.367802 -4.242641 -4.242641 
C -5.367802 -3.117479 -6 -1.591219 -6 0 
C -6 1.591219 -5.367802 3.117479 -4.242641 4.242641 
C -3.117479 5.367802 -1.591219 6 0 6 
z
" id="m211f350428" style="stroke:#000080;stroke-width:1.5;"/>
    </defs>
    <g>
     <use style="fill-opacity:0;stroke:#000080;stroke-width:1.5;" x="217.139723" xlink:href="#m211f350428" y="287.07278"/>
     <use style="fill-opacity:0;stroke:#000080;stroke-width:1.5;" x="273.156361" xlink:href="#m211f350428" y="260.0064"/>
     <use style="fill-opacity:0;stroke:#000080;stroke-width:1.5;" x="310.198241" xlink:href="#m211f350428" y="235.314263"/>
     <use style="fill-opacity:0;stroke:#000080;stroke-width:1.5;" x="354.531886" xlink:href="#m211f350428" y="213.946068"/>
     <use style="fill-opacity:0;stroke:#000080;stroke-width:1.5;" x="360.8064" xlink:href="#m211f350428" y="213.946068"/>
    </g>
   </g>
   <g id="line2d_32">
    <path style="fill:none;stroke:#000080;stroke-linecap:square;stroke-width:1.5;"/>
    <g/>
   </g>
   <g id="line2d_33">
    <path clip-path="url(#p790bf8f898)" d="M 287.215174 256.682459 
" style="fill:none;stroke:#000080;stroke-linecap:square;stroke-width:1.5;"/>
    <defs>
     <path d="M -12 12 
L 12 -12 
M -12 -12 
L 12 12 
" id="m9404740417" style="stroke:#000080;"/>
    </defs>
    <g clip-path="url(#p790bf8f898)">
     <use style="fill:#000080;stroke:#000080;" x="287.215174" xlink:href="#m9404740417" y="256.682459"/>
    </g>
   </g>
   <g id="line2d_34">
    <defs>
     <path d="M 0 1.5 
C 0.397805 1.5 0.77937 1.341951 1.06066 1.06066 
C 1.341951 0.77937 1.5 0.397805 1.5 0 
C 1.5 -0.397805 1.341951 -0.77937 1.06066 -1.06066 
C 0.77937 -1.341951 0.397805 -1.5 0 -1.5 
C -0.397805 -1.5 -0.77937 -1.341951 -1.06066 -1.06066 
C -1.341951 -0.77937 -1.5 -0.397805 -1.5 0 
C -1.5 0.397805 -1.341951 0.77937 -1.06066 1.06066 
C -0.77937 1.341951 -0.397805 1.5 0 1.5 
z
" id="mb5c1fbe141" style="stroke:#ff00ff;"/>
    </defs>
    <g>
     <use style="fill:#ff00ff;stroke:#ff00ff;" x="358.518892" xlink:href="#mb5c1fbe141" y="220.593951"/>
     <use style="fill:#ff00ff;stroke:#ff00ff;" x="358.518892" xlink:href="#mb5c1fbe141" y="220.593951"/>
    </g>
   </g>
   <g id="line2d_35">
    <path d="M 136.413909 298.944 
L 136.413909 298.469151 
L 170.449309 298.469151 
L 170.449309 297.044605 
L 181.728198 297.044605 
L 181.728198 296.569756 
L 185.416721 296.569756 
L 185.416721 295.620059 
L 186.301408 295.620059 
L 186.301408 295.14521 
L 187.507939 295.14521 
L 187.507939 294.195512 
L 187.991745 294.195512 
L 187.991745 293.245815 
L 189.14947 293.245815 
L 189.14947 292.770966 
L 191.193549 292.770966 
L 191.193549 292.296117 
L 194.780182 292.296117 
L 194.780182 291.34642 
L 206.595894 291.34642 
L 206.595894 290.871571 
L 207.748794 290.871571 
L 207.748794 290.396722 
L 209.919433 290.396722 
L 209.919433 289.921873 
L 213.036413 289.921873 
L 213.036413 288.972176 
L 218.910654 288.972176 
L 218.910654 288.022478 
L 222.406569 288.022478 
L 222.406569 287.547629 
L 223.414033 287.547629 
L 223.506035 286.123083 
L 224.76455 286.123083 
L 224.76455 285.648234 
L 226.700709 285.648234 
L 226.700709 285.173385 
L 229.37591 285.173385 
L 229.37591 284.698537 
L 231.157551 284.698537 
L 231.157551 284.223688 
L 234.755058 284.223688 
L 234.755058 283.27399 
L 238.458106 283.27399 
L 238.458106 282.324293 
L 238.655532 282.324293 
L 238.655532 281.849444 
L 238.898823 281.849444 
L 238.90005 280.424898 
L 239.887151 280.424898 
L 239.887151 278.525502 
L 241.681353 278.525502 
L 241.681353 278.050654 
L 245.584858 278.050654 
L 245.584858 277.575805 
L 248.002601 277.575805 
L 248.002601 277.100956 
L 249.036241 277.100956 
L 249.036241 276.151259 
L 250.49505 276.151259 
L 250.49505 274.726712 
L 251.171657 274.726712 
L 251.171657 274.251863 
L 253.29809 274.251863 
L 253.29809 273.777015 
L 256.055254 273.777015 
L 256.055254 273.302166 
L 257.328719 273.302166 
L 257.328719 271.402771 
L 258.022851 271.402771 
L 258.022851 270.453073 
L 258.734219 270.453073 
L 258.734219 269.978224 
L 260.709501 269.978224 
L 260.709501 269.028527 
L 262.934546 269.028527 
L 262.934546 267.129132 
L 263.80355 267.129132 
L 263.80355 265.229737 
L 265.072942 265.229737 
L 265.072942 263.80519 
L 268.047729 263.80519 
L 268.047729 263.330341 
L 268.897468 263.330341 
L 268.897468 262.855493 
L 269.188831 262.855493 
L 269.249548 261.905795 
L 269.910952 261.905795 
L 269.910952 261.430946 
L 274.595856 261.430946 
L 274.595856 260.481249 
L 274.954637 260.481249 
L 274.954637 260.0064 
L 277.626903 260.0064 
L 277.626903 258.581854 
L 282.779205 258.581854 
L 282.779205 258.107005 
L 284.031591 258.107005 
L 284.031591 257.632156 
L 285.986551 257.632156 
L 285.986551 256.20761 
L 286.402617 256.20761 
L 286.402617 255.732761 
L 287.576347 255.732761 
L 287.576347 254.308215 
L 288.147231 254.308215 
L 288.147231 253.833366 
L 288.573538 253.833366 
L 288.676686 251.933971 
L 289.537487 251.933971 
L 289.537487 251.459122 
L 291.786402 251.459122 
L 291.786402 248.610029 
L 291.977297 248.610029 
L 291.977297 248.13518 
L 292.268723 248.13518 
L 292.268723 247.185483 
L 293.013059 247.185483 
L 293.013059 246.710634 
L 296.064607 246.710634 
L 296.064607 246.235785 
L 299.650066 246.235785 
L 299.650066 245.286088 
L 302.678474 245.286088 
L 302.678474 244.811239 
L 303.375782 244.811239 
L 303.375782 244.33639 
L 305.194711 244.33639 
L 305.194711 242.911844 
L 306.879276 242.911844 
L 306.879276 242.436995 
L 307.481086 242.436995 
L 307.481086 241.962146 
L 309.532057 241.962146 
L 309.606608 241.012449 
L 310.019179 241.012449 
L 310.019179 240.062751 
L 311.315055 240.062751 
L 311.315055 239.113054 
L 312.2787 239.113054 
L 312.2787 238.638205 
L 313.669684 238.638205 
L 313.669684 238.163356 
L 314.544607 238.163356 
L 314.544607 237.213659 
L 314.918909 237.213659 
L 314.918909 236.73881 
L 315.925423 236.73881 
L 315.925423 235.789112 
L 317.251811 235.789112 
L 317.251811 235.314263 
L 318.498635 235.314263 
L 318.498635 234.364566 
L 319.625356 234.364566 
L 319.625356 233.414868 
L 321.764183 233.414868 
L 321.764183 232.94002 
L 322.715808 232.94002 
L 322.715808 231.515473 
L 324.036634 231.515473 
L 324.036634 231.040624 
L 328.415762 231.040624 
L 328.415762 230.565776 
L 329.114712 230.565776 
L 329.114712 230.090927 
L 331.040835 230.090927 
L 331.040835 229.141229 
L 334.386466 229.141229 
L 334.386466 228.66638 
L 337.225962 228.66638 
L 337.225962 228.191532 
L 338.499644 228.191532 
L 338.499644 227.716683 
L 340.814261 227.716683 
L 340.814261 227.241834 
L 342.205064 227.241834 
L 342.205064 226.292137 
L 344.126212 226.292137 
L 344.126212 225.817288 
L 345.017893 225.817288 
L 345.017893 224.86759 
L 345.596227 224.86759 
L 345.596227 223.917893 
L 347.213678 223.917893 
L 347.213678 223.443044 
L 347.973075 223.443044 
L 347.973075 222.968195 
L 350.083016 222.968195 
L 350.083016 222.493346 
L 350.298404 222.493346 
L 350.298404 222.018498 
L 353.146062 222.018498 
L 353.146062 221.543649 
L 353.703069 221.543649 
L 353.703069 221.0688 
L 358.518892 221.0688 
L 358.518892 220.593951 
L 360.8064 220.593951 
L 360.8064 220.593951 
" style="fill:none;stroke:#ff00ff;stroke-linecap:square;stroke-width:1.5;"/>
   </g>
   <g id="line2d_36">
    <defs>
     <path d="M -0 8.485281 
L 5.091169 0 
L 0 -8.485281 
L -5.091169 -0 
z
" id="mb12460a8f4" style="stroke:#ff00ff;stroke-linejoin:miter;stroke-width:1.5;"/>
    </defs>
    <g>
     <use style="fill-opacity:0;stroke:#ff00ff;stroke-linejoin:miter;stroke-width:1.5;" x="194.780182" xlink:href="#mb12460a8f4" y="292.296117"/>
     <use style="fill-opacity:0;stroke:#ff00ff;stroke-linejoin:miter;stroke-width:1.5;" x="263.80355" xlink:href="#mb12460a8f4" y="267.129132"/>
     <use style="fill-opacity:0;stroke:#ff00ff;stroke-linejoin:miter;stroke-width:1.5;" x="314.918909" xlink:href="#mb12460a8f4" y="236.73881"/>
     <use style="fill-opacity:0;stroke:#ff00ff;stroke-linejoin:miter;stroke-width:1.5;" x="358.518892" xlink:href="#mb12460a8f4" y="220.593951"/>
     <use style="fill-opacity:0;stroke:#ff00ff;stroke-linejoin:miter;stroke-width:1.5;" x="360.8064" xlink:href="#mb12460a8f4" y="220.593951"/>
    </g>
   </g>
   <g id="line2d_37">
    <path style="fill:none;stroke:#ff00ff;stroke-linecap:square;stroke-width:1.5;"/>
    <g/>
   </g>
   <g id="line2d_38">
    <path clip-path="url(#p790bf8f898)" d="M 287.215174 255.732761 
" style="fill:none;stroke:#ff00ff;stroke-linecap:square;stroke-width:1.5;"/>
    <defs>
     <path d="M -12 12 
L 12 -12 
M -12 -12 
L 12 12 
" id="m8aab35548e" style="stroke:#ff00ff;"/>
    </defs>
    <g clip-path="url(#p790bf8f898)">
     <use style="fill:#ff00ff;stroke:#ff00ff;" x="287.215174" xlink:href="#m8aab35548e" y="255.732761"/>
    </g>
   </g>
   <g id="line2d_39">
    <defs>
     <path d="M 0 1.5 
C 0.397805 1.5 0.77937 1.341951 1.06066 1.06066 
C 1.341951 0.77937 1.5 0.397805 1.5 0 
C 1.5 -0.397805 1.341951 -0.77937 1.06066 -1.06066 
C 0.77937 -1.341951 0.397805 -1.5 0 -1.5 
C -0.397805 -1.5 -0.77937 -1.341951 -1.06066 -1.06066 
C -1.341951 -0.77937 -1.5 -0.397805 -1.5 0 
C -1.5 0.397805 -1.341951 0.77937 -1.06066 1.06066 
C -0.77937 1.341951 -0.397805 1.5 0 1.5 
z
" id="m2e3a7ef5a8" style="stroke:#ff7500;"/>
    </defs>
    <g>
     <use style="fill:#ff7500;stroke:#ff7500;" x="366.549581" xlink:href="#m2e3a7ef5a8" y="213.47122"/>
     <use style="fill:#ff7500;stroke:#ff7500;" x="366.549581" xlink:href="#m2e3a7ef5a8" y="213.47122"/>
    </g>
   </g>
   <g id="line2d_40">
    <path d="M 130.811181 298.944 
L 130.811181 298.469151 
L 148.276979 298.469151 
L 148.276979 297.519454 
L 155.701037 297.519454 
L 155.701037 297.044605 
L 155.904407 297.044605 
L 155.904407 296.569756 
L 165.45305 296.569756 
L 165.45305 296.094907 
L 166.40273 296.094907 
L 166.40273 295.620059 
L 168.482867 295.620059 
L 168.482867 294.670361 
L 180.943179 294.670361 
L 180.943179 292.296117 
L 187.954967 292.296117 
L 187.954967 291.821268 
L 191.728221 291.821268 
L 191.728221 291.34642 
L 201.003343 291.34642 
L 201.104259 288.497327 
L 202.249007 288.497327 
L 202.249007 288.022478 
L 202.369154 288.022478 
L 202.369154 287.547629 
L 204.162864 287.547629 
L 204.162864 287.07278 
L 205.998872 287.07278 
L 205.998872 286.597932 
L 206.698112 286.597932 
L 206.698112 286.123083 
L 217.464602 286.123083 
L 217.464602 285.173385 
L 220.027272 285.173385 
L 220.027272 283.27399 
L 223.058555 283.27399 
L 223.058555 281.849444 
L 223.754686 281.849444 
L 223.754686 279.950049 
L 224.544774 279.950049 
L 224.544774 279.4752 
L 225.206711 279.4752 
L 225.206711 279.000351 
L 225.449054 279.000351 
L 225.449054 277.575805 
L 225.799428 277.575805 
L 225.799428 277.100956 
L 230.633696 277.100956 
L 230.633696 276.151259 
L 231.817992 276.151259 
L 231.92318 275.201561 
L 238.319423 275.201561 
L 238.42416 274.251863 
L 239.420374 274.251863 
L 239.420374 273.302166 
L 242.057502 273.302166 
L 242.106195 271.402771 
L 244.330498 271.402771 
L 244.330498 270.927922 
L 245.96793 270.927922 
L 245.96793 270.453073 
L 250.477156 270.453073 
L 250.477156 269.978224 
L 250.93372 269.978224 
L 250.93372 269.028527 
L 256.003921 269.028527 
L 256.003921 268.078829 
L 256.804637 268.078829 
L 256.804637 267.60398 
L 259.132243 267.60398 
L 259.132243 266.179434 
L 259.895045 266.179434 
L 259.989656 264.754888 
L 260.057514 264.754888 
L 260.057514 263.330341 
L 260.894483 263.330341 
L 260.894483 260.956098 
L 264.38543 260.956098 
L 264.38543 259.531551 
L 265.323362 259.531551 
L 265.323362 259.056702 
L 266.436877 259.056702 
L 266.436877 258.581854 
L 269.062856 258.581854 
L 269.062856 258.107005 
L 270.619105 258.107005 
L 270.619105 257.632156 
L 276.214439 257.632156 
L 276.214439 256.682459 
L 276.496899 256.682459 
L 276.496899 256.20761 
L 277.072803 256.20761 
L 277.072803 255.732761 
L 277.655849 255.732761 
L 277.655849 255.257912 
L 280.425311 255.257912 
L 280.425311 254.783063 
L 283.894402 254.783063 
L 283.894402 254.308215 
L 284.194533 254.308215 
L 284.194533 252.883668 
L 287.849046 252.883668 
L 287.849046 252.40882 
L 288.851923 252.40882 
L 288.851923 251.933971 
L 291.02866 251.933971 
L 291.02866 251.459122 
L 291.201886 251.459122 
L 291.201886 250.509424 
L 291.364632 250.509424 
L 291.364632 250.034576 
L 293.730058 250.034576 
L 293.730058 249.559727 
L 297.164111 249.559727 
L 297.164111 249.084878 
L 298.667144 249.084878 
L 298.667144 248.13518 
L 298.804593 248.13518 
L 298.804593 247.660332 
L 300.350278 247.660332 
L 300.384077 246.710634 
L 301.090519 246.710634 
L 301.090519 246.235785 
L 302.257561 246.235785 
L 302.257561 245.286088 
L 302.443257 245.286088 
L 302.443257 244.33639 
L 305.201401 244.33639 
L 305.201401 243.861541 
L 305.879008 243.861541 
L 305.879008 243.386693 
L 306.927791 243.386693 
L 306.927791 241.962146 
L 308.512647 241.962146 
L 308.512647 241.487298 
L 309.240666 241.487298 
L 309.240666 240.062751 
L 312.582608 240.062751 
L 312.582608 237.688507 
L 313.716254 237.688507 
L 313.716254 237.213659 
L 314.321782 237.213659 
L 314.363146 236.263961 
L 315.005048 236.263961 
L 315.005048 235.789112 
L 315.929205 235.789112 
L 315.929205 235.314263 
L 316.924633 235.314263 
L 316.924633 233.414868 
L 318.318254 233.414868 
L 318.318254 232.465171 
L 320.450005 232.465171 
L 320.450005 231.515473 
L 321.612664 231.515473 
L 321.612664 231.040624 
L 322.718444 231.040624 
L 322.718444 230.565776 
L 323.417823 230.565776 
L 323.417823 229.616078 
L 324.415205 229.616078 
L 324.415205 229.141229 
L 326.853852 229.141229 
L 326.853852 228.191532 
L 327.207918 228.191532 
L 327.207918 227.716683 
L 328.235729 227.716683 
L 328.235729 226.766985 
L 330.965549 226.766985 
L 330.965549 226.292137 
L 331.233778 226.292137 
L 331.233778 225.817288 
L 332.06789 225.817288 
L 332.06789 225.342439 
L 332.703754 225.342439 
L 332.703754 224.86759 
L 332.963841 224.86759 
L 332.963841 224.392741 
L 333.726127 224.392741 
L 333.726127 223.917893 
L 336.659547 223.917893 
L 336.659547 222.493346 
L 336.996918 222.493346 
L 336.996918 222.018498 
L 337.171802 222.018498 
L 337.171802 221.543649 
L 337.36504 221.543649 
L 337.36504 221.0688 
L 341.431878 221.0688 
L 341.431878 220.593951 
L 342.457192 220.593951 
L 342.457192 219.644254 
L 343.779746 219.644254 
L 343.779746 219.169405 
L 344.35401 219.169405 
L 344.35401 218.694556 
L 345.235206 218.694556 
L 345.235206 217.744859 
L 348.39739 217.744859 
L 348.39739 217.27001 
L 349.111342 217.27001 
L 349.111342 216.795161 
L 349.799185 216.795161 
L 349.799185 216.320312 
L 351.955286 216.320312 
L 352.043595 215.370615 
L 352.323638 215.370615 
L 352.323638 214.895766 
L 353.469234 214.895766 
L 353.469234 214.420917 
L 355.570236 214.420917 
L 355.570236 213.946068 
L 360.8064 213.946068 
L 360.8064 213.946068 
" style="fill:none;stroke:#ff7500;stroke-linecap:square;stroke-width:1.5;"/>
   </g>
   <g id="line2d_41">
    <defs>
     <path d="M 0 -6 
L -1.347084 -1.854102 
L -5.706339 -1.854102 
L -2.179628 0.708204 
L -3.526712 4.854102 
L -0 2.291796 
L 3.526712 4.854102 
L 2.179628 0.708204 
L 5.706339 -1.854102 
L 1.347084 -1.854102 
z
" id="m28f8112d57" style="stroke:#ff7500;stroke-linejoin:bevel;stroke-width:1.5;"/>
    </defs>
    <g>
     <use style="fill-opacity:0;stroke:#ff7500;stroke-linejoin:bevel;stroke-width:1.5;" x="206.698112" xlink:href="#m28f8112d57" y="286.597932"/>
     <use style="fill-opacity:0;stroke:#ff7500;stroke-linejoin:bevel;stroke-width:1.5;" x="288.851923" xlink:href="#m28f8112d57" y="252.40882"/>
     <use style="fill-opacity:0;stroke:#ff7500;stroke-linejoin:bevel;stroke-width:1.5;" x="353.469234" xlink:href="#m28f8112d57" y="214.895766"/>
     <use style="fill-opacity:0;stroke:#ff7500;stroke-linejoin:bevel;stroke-width:1.5;" x="355.570236" xlink:href="#m28f8112d57" y="213.946068"/>
     <use style="fill-opacity:0;stroke:#ff7500;stroke-linejoin:bevel;stroke-width:1.5;" x="360.8064" xlink:href="#m28f8112d57" y="213.946068"/>
    </g>
   </g>
   <g id="line2d_42">
    <path style="fill:none;stroke:#ff7500;stroke-linecap:square;stroke-width:1.5;"/>
    <g/>
   </g>
   <g id="line2d_43">
    <path clip-path="url(#p790bf8f898)" d="M 287.215174 252.883668 
" style="fill:none;stroke:#ff7500;stroke-linecap:square;stroke-width:1.5;"/>
    <defs>
     <path d="M -12 12 
L 12 -12 
M -12 -12 
L 12 12 
" id="m2883dd4396" style="stroke:#ff7500;"/>
    </defs>
    <g clip-path="url(#p790bf8f898)">
     <use style="fill:#ff7500;stroke:#ff7500;" x="287.215174" xlink:href="#m2883dd4396" y="252.883668"/>
    </g>
   </g>
   <g id="line2d_44">
    <defs>
     <path d="M 0 1.5 
C 0.397805 1.5 0.77937 1.341951 1.06066 1.06066 
C 1.341951 0.77937 1.5 0.397805 1.5 0 
C 1.5 -0.397805 1.341951 -0.77937 1.06066 -1.06066 
C 0.77937 -1.341951 0.397805 -1.5 0 -1.5 
C -0.397805 -1.5 -0.77937 -1.341951 -1.06066 -1.06066 
C -1.341951 -0.77937 -1.5 -0.397805 -1.5 0 
C -1.5 0.397805 -1.341951 0.77937 -1.06066 1.06066 
C -0.77937 1.341951 -0.397805 1.5 0 1.5 
z
" id="m108627e394" style="stroke:#6495ed;"/>
    </defs>
    <g>
     <use style="fill:#6495ed;stroke:#6495ed;" x="352.389954" xlink:href="#m108627e394" y="199.225756"/>
     <use style="fill:#6495ed;stroke:#6495ed;" x="352.389954" xlink:href="#m108627e394" y="199.225756"/>
    </g>
   </g>
   <g id="line2d_45">
    <path d="M 94.205591 298.944 
L 94.205591 298.469151 
L 122.795872 298.469151 
L 122.795872 297.519454 
L 123.936316 297.519454 
L 123.936316 297.044605 
L 130.811181 297.044605 
L 130.811181 295.14521 
L 131.563744 295.14521 
L 131.563744 294.670361 
L 137.520791 294.670361 
L 137.520791 294.195512 
L 144.786447 294.195512 
L 144.786447 291.821268 
L 149.453084 291.821268 
L 149.453084 291.34642 
L 167.140533 291.34642 
L 167.140533 290.871571 
L 168.010586 290.871571 
L 168.010586 289.921873 
L 169.687218 289.921873 
L 169.687218 289.447024 
L 171.88669 289.447024 
L 171.88669 288.972176 
L 172.271923 288.972176 
L 172.271923 288.497327 
L 173.18167 288.497327 
L 173.18167 286.597932 
L 174.431028 286.597932 
L 174.431028 286.123083 
L 175.602554 286.123083 
L 175.602554 285.648234 
L 177.747115 285.648234 
L 177.747115 285.173385 
L 178.794182 285.173385 
L 178.794182 284.698537 
L 184.288124 284.698537 
L 184.288124 284.223688 
L 185.055154 284.223688 
L 185.055154 283.27399 
L 187.107881 283.27399 
L 187.107881 281.849444 
L 187.507939 281.849444 
L 187.507939 281.374595 
L 188.606202 281.374595 
L 188.606202 280.899746 
L 191.037952 280.899746 
L 191.037952 279.4752 
L 196.198035 279.4752 
L 196.198035 279.000351 
L 197.20387 279.000351 
L 197.282509 278.050654 
L 197.769423 278.050654 
L 197.769423 277.575805 
L 202.076026 277.575805 
L 202.076026 276.151259 
L 202.257615 276.151259 
L 202.257615 275.67641 
L 203.880803 275.67641 
L 203.880803 275.201561 
L 204.123941 275.201561 
L 204.123941 274.726712 
L 204.279153 274.726712 
L 204.279153 274.251863 
L 205.279963 274.251863 
L 205.279963 273.777015 
L 205.963572 273.777015 
L 205.963572 272.827317 
L 206.670908 272.827317 
L 206.670908 271.87762 
L 209.862081 271.87762 
L 209.862081 271.402771 
L 213.987243 271.402771 
L 213.987243 270.927922 
L 214.496925 270.927922 
L 214.496925 269.978224 
L 215.13691 269.978224 
L 215.13691 269.503376 
L 216.92787 269.503376 
L 216.92787 269.028527 
L 223.135297 269.028527 
L 223.135297 267.60398 
L 226.721818 267.60398 
L 226.789675 266.179434 
L 229.794633 266.179434 
L 229.794633 263.80519 
L 230.045787 263.80519 
L 230.045787 263.330341 
L 230.576489 263.330341 
L 230.576489 262.855493 
L 231.216712 262.855493 
L 231.216712 261.905795 
L 233.828749 261.905795 
L 233.828749 260.956098 
L 236.918327 260.956098 
L 236.918327 260.0064 
L 238.004242 260.0064 
L 238.004242 259.531551 
L 238.723773 259.531551 
L 238.723773 258.581854 
L 240.86707 258.581854 
L 240.86707 256.682459 
L 247.657621 256.682459 
L 247.657621 256.20761 
L 247.803406 256.20761 
L 247.803406 255.732761 
L 248.857147 255.732761 
L 248.857147 254.783063 
L 250.273829 254.783063 
L 250.273829 253.833366 
L 250.896796 253.833366 
L 250.896796 253.358517 
L 251.204857 253.358517 
L 251.204857 252.883668 
L 253.205979 252.883668 
L 253.205979 252.40882 
L 258.304862 252.40882 
L 258.304862 251.933971 
L 261.573783 251.933971 
L 261.584072 250.034576 
L 262.463661 250.034576 
L 262.463661 249.559727 
L 262.619734 249.559727 
L 262.619734 248.13518 
L 265.585645 248.13518 
L 265.585645 247.185483 
L 271.767835 247.185483 
L 271.767835 246.235785 
L 274.59696 246.235785 
L 274.59696 244.33639 
L 275.730921 244.33639 
L 275.730921 243.861541 
L 276.271069 243.861541 
L 276.311583 242.911844 
L 280.645859 242.911844 
L 280.645859 242.436995 
L 285.230253 242.436995 
L 285.230253 241.487298 
L 285.652566 241.487298 
L 285.652566 241.012449 
L 286.30573 241.012449 
L 286.30573 240.5376 
L 286.5282 240.5376 
L 286.5282 236.73881 
L 289.516775 236.73881 
L 289.516775 236.263961 
L 291.685811 236.263961 
L 291.718932 234.364566 
L 294.983972 234.364566 
L 294.983972 232.94002 
L 299.913997 232.94002 
L 299.913997 229.141229 
L 302.622164 229.141229 
L 302.64069 227.716683 
L 303.019583 227.716683 
L 303.019583 227.241834 
L 307.243128 227.241834 
L 307.243128 226.766985 
L 307.375194 226.766985 
L 307.375194 226.292137 
L 307.655562 226.292137 
L 307.655562 223.917893 
L 309.505818 223.917893 
L 309.505818 222.968195 
L 310.842308 222.968195 
L 310.842308 222.018498 
L 313.124117 222.018498 
L 313.124117 220.119102 
L 314.524509 220.119102 
L 314.524509 219.644254 
L 315.556446 219.644254 
L 315.556446 218.219707 
L 317.110618 218.219707 
L 317.110618 217.744859 
L 317.355797 217.744859 
L 317.355797 217.27001 
L 319.322793 217.27001 
L 319.322793 216.795161 
L 320.808184 216.795161 
L 320.808184 215.845463 
L 322.459397 215.845463 
L 322.459397 214.895766 
L 323.724149 214.895766 
L 323.724149 214.420917 
L 326.248186 214.420917 
L 326.248186 213.47122 
L 327.498166 213.47122 
L 327.498166 212.996371 
L 328.473276 212.996371 
L 328.473276 212.521522 
L 330.462795 212.521522 
L 330.462795 212.046673 
L 331.032476 212.046673 
L 331.032476 211.571824 
L 331.468454 211.571824 
L 331.468454 211.096976 
L 332.261881 211.096976 
L 332.261881 209.19758 
L 333.903827 209.19758 
L 333.903827 207.773034 
L 336.811693 207.773034 
L 336.811693 207.298185 
L 337.219945 207.298185 
L 337.219945 206.823337 
L 338.112777 206.823337 
L 338.112777 206.348488 
L 338.494021 206.348488 
L 338.494021 205.873639 
L 339.329664 205.873639 
L 339.329664 205.39879 
L 340.472592 205.39879 
L 340.472592 204.923941 
L 341.55004 204.923941 
L 341.55004 203.974244 
L 342.569105 203.974244 
L 342.569105 203.024546 
L 345.331794 203.024546 
L 345.331794 202.549698 
L 345.592372 202.549698 
L 345.592372 202.074849 
L 346.169335 202.074849 
L 346.169335 201.6 
L 346.971172 201.6 
L 346.971172 201.125151 
L 351.174478 201.125151 
L 351.174478 200.175454 
L 352.389954 200.175454 
L 352.389954 199.225756 
L 360.8064 199.225756 
L 360.8064 199.225756 
" style="fill:none;stroke:#6495ed;stroke-linecap:square;stroke-width:1.5;"/>
   </g>
   <g id="line2d_46">
    <defs>
     <path d="M -0 6 
L 6 -6 
L -6 -6 
z
" id="m72ec848739" style="stroke:#6495ed;stroke-linejoin:miter;stroke-width:1.5;"/>
    </defs>
    <g>
     <use style="fill-opacity:0;stroke:#6495ed;stroke-linejoin:miter;stroke-width:1.5;" x="197.769423" xlink:href="#m72ec848739" y="277.575805"/>
     <use style="fill-opacity:0;stroke:#6495ed;stroke-linejoin:miter;stroke-width:1.5;" x="276.311583" xlink:href="#m72ec848739" y="242.911844"/>
     <use style="fill-opacity:0;stroke:#6495ed;stroke-linejoin:miter;stroke-width:1.5;" x="339.329664" xlink:href="#m72ec848739" y="205.39879"/>
     <use style="fill-opacity:0;stroke:#6495ed;stroke-linejoin:miter;stroke-width:1.5;" x="352.389954" xlink:href="#m72ec848739" y="199.225756"/>
     <use style="fill-opacity:0;stroke:#6495ed;stroke-linejoin:miter;stroke-width:1.5;" x="360.8064" xlink:href="#m72ec848739" y="199.225756"/>
    </g>
   </g>
   <g id="line2d_47">
    <path style="fill:none;stroke:#6495ed;stroke-linecap:square;stroke-width:1.5;"/>
    <g/>
   </g>
   <g id="line2d_48">
    <path clip-path="url(#p790bf8f898)" d="M 287.215174 236.73881 
" style="fill:none;stroke:#6495ed;stroke-linecap:square;stroke-width:1.5;"/>
    <defs>
     <path d="M -12 12 
L 12 -12 
M -12 -12 
L 12 12 
" id="ma9d4d7fb1c" style="stroke:#6495ed;"/>
    </defs>
    <g clip-path="url(#p790bf8f898)">
     <use style="fill:#6495ed;stroke:#6495ed;" x="287.215174" xlink:href="#ma9d4d7fb1c" y="236.73881"/>
    </g>
   </g>
   <g id="line2d_49">
    <path d="M 360.8064 220.593951 
L 380.514816 293.10336 
" style="fill:none;stroke:#ff00ff;stroke-linecap:square;stroke-width:1.5;"/>
    <g>
     <use style="fill-opacity:0;stroke:#ff00ff;stroke-linejoin:miter;stroke-width:1.5;" x="360.8064" xlink:href="#mb12460a8f4" y="220.593951"/>
     <use style="fill-opacity:0;stroke:#ff00ff;stroke-linejoin:miter;stroke-width:1.5;" x="380.514816" xlink:href="#mb12460a8f4" y="293.10336"/>
    </g>
   </g>
   <g id="line2d_50">
    <path d="M 360.8064 213.946068 
L 380.514816 199.65312 
" style="fill:none;stroke:#ff7500;stroke-linecap:square;stroke-width:1.5;"/>
    <g>
     <use style="fill-opacity:0;stroke:#ff7500;stroke-linejoin:bevel;stroke-width:1.5;" x="360.8064" xlink:href="#m28f8112d57" y="213.946068"/>
     <use style="fill-opacity:0;stroke:#ff7500;stroke-linejoin:bevel;stroke-width:1.5;" x="380.514816" xlink:href="#m28f8112d57" y="199.65312"/>
    </g>
   </g>
   <g id="line2d_51">
    <path d="M 360.8064 213.946068 
L 380.514816 106.20288 
" style="fill:none;stroke:#000080;stroke-linecap:square;stroke-width:1.5;"/>
    <g>
     <use style="fill-opacity:0;stroke:#000080;stroke-width:1.5;" x="360.8064" xlink:href="#m211f350428" y="213.946068"/>
     <use style="fill-opacity:0;stroke:#000080;stroke-width:1.5;" x="380.514816" xlink:href="#m211f350428" y="106.20288"/>
    </g>
   </g>
   <g id="line2d_52">
    <path d="M 360.8064 199.225756 
L 380.514816 12.75264 
" style="fill:none;stroke:#6495ed;stroke-linecap:square;stroke-width:1.5;"/>
    <g>
     <use style="fill-opacity:0;stroke:#6495ed;stroke-linejoin:miter;stroke-width:1.5;" x="360.8064" xlink:href="#m72ec848739" y="199.225756"/>
     <use style="fill-opacity:0;stroke:#6495ed;stroke-linejoin:miter;stroke-width:1.5;" x="380.514816" xlink:href="#m72ec848739" y="12.75264"/>
    </g>
   </g>
   <g id="line2d_53">
    <path d="M 360.8064 298.944 
L 360.8064 6.912 
" style="fill:none;stroke:#000000;stroke-linecap:square;stroke-width:1.5;"/>
   </g>
   <g id="patch_3">
    <path d="M 57.6 298.944 
L 360.8064 298.944 
" style="fill:none;stroke:#000000;stroke-linecap:square;stroke-linejoin:miter;stroke-width:0.8;"/>
   </g>
   <g id="patch_4">
    <path d="M 57.6 6.912 
L 360.8064 6.912 
" style="fill:none;stroke:#000000;stroke-linecap:square;stroke-linejoin:miter;stroke-width:0.8;"/>
   </g>
   <g id="text_13">
    <!-- f30 -->
    <g transform="translate(386.578944 296.966485)scale(0.14 -0.14)">
     <defs>
      <path d="M 40.578125 39.3125 
Q 47.65625 37.796875 51.625 33 
Q 55.609375 28.21875 55.609375 21.1875 
Q 55.609375 10.40625 48.1875 4.484375 
Q 40.765625 -1.421875 27.09375 -1.421875 
Q 22.515625 -1.421875 17.65625 -0.515625 
Q 12.796875 0.390625 7.625 2.203125 
L 7.625 11.71875 
Q 11.71875 9.328125 16.59375 8.109375 
Q 21.484375 6.890625 26.8125 6.890625 
Q 36.078125 6.890625 40.9375 10.546875 
Q 45.796875 14.203125 45.796875 21.1875 
Q 45.796875 27.640625 41.28125 31.265625 
Q 36.765625 34.90625 28.71875 34.90625 
L 20.21875 34.90625 
L 20.21875 43.015625 
L 29.109375 43.015625 
Q 36.375 43.015625 40.234375 45.921875 
Q 44.09375 48.828125 44.09375 54.296875 
Q 44.09375 59.90625 40.109375 62.90625 
Q 36.140625 65.921875 28.71875 65.921875 
Q 24.65625 65.921875 20.015625 65.03125 
Q 15.375 64.15625 9.8125 62.3125 
L 9.8125 71.09375 
Q 15.4375 72.65625 20.34375 73.4375 
Q 25.25 74.21875 29.59375 74.21875 
Q 40.828125 74.21875 47.359375 69.109375 
Q 53.90625 64.015625 53.90625 55.328125 
Q 53.90625 49.265625 50.4375 45.09375 
Q 46.96875 40.921875 40.578125 39.3125 
z
" id="DejaVuSans-51"/>
     </defs>
     <use xlink:href="#DejaVuSans-102"/>
     <use x="35.205078" xlink:href="#DejaVuSans-51"/>
     <use x="98.828125" xlink:href="#DejaVuSans-48"/>
    </g>
   </g>
   <g id="text_14">
    <!-- f36 -->
    <g transform="translate(386.578944 203.516245)scale(0.14 -0.14)">
     <use xlink:href="#DejaVuSans-102"/>
     <use x="35.205078" xlink:href="#DejaVuSans-51"/>
     <use x="98.828125" xlink:href="#DejaVuSans-54"/>
    </g>
   </g>
   <g id="text_15">
    <!-- f24 -->
    <g transform="translate(386.578944 110.066005)scale(0.14 -0.14)">
     <use xlink:href="#DejaVuSans-102"/>
     <use x="35.205078" xlink:href="#DejaVuSans-50"/>
     <use x="98.828125" xlink:href="#DejaVuSans-52"/>
    </g>
   </g>
   <g id="text_16">
    <!-- f42 -->
    <g transform="translate(386.578944 16.615765)scale(0.14 -0.14)">
     <use xlink:href="#DejaVuSans-102"/>
     <use x="35.205078" xlink:href="#DejaVuSans-52"/>
     <use x="98.828125" xlink:href="#DejaVuSans-50"/>
    </g>
   </g>
   <g id="text_17">
    <!-- bbob-constrained -->
    <g transform="translate(60.632064 17.582726)scale(0.102 -0.102)">
     <defs>
      <path d="M 48.6875 27.296875 
Q 48.6875 37.203125 44.609375 42.84375 
Q 40.53125 48.484375 33.40625 48.484375 
Q 26.265625 48.484375 22.1875 42.84375 
Q 18.109375 37.203125 18.109375 27.296875 
Q 18.109375 17.390625 22.1875 11.75 
Q 26.265625 6.109375 33.40625 6.109375 
Q 40.53125 6.109375 44.609375 11.75 
Q 48.6875 17.390625 48.6875 27.296875 
z
M 18.109375 46.390625 
Q 20.953125 51.265625 25.265625 53.625 
Q 29.59375 56 35.59375 56 
Q 45.5625 56 51.78125 48.09375 
Q 58.015625 40.1875 58.015625 27.296875 
Q 58.015625 14.40625 51.78125 6.484375 
Q 45.5625 -1.421875 35.59375 -1.421875 
Q 29.59375 -1.421875 25.265625 0.953125 
Q 20.953125 3.328125 18.109375 8.203125 
L 18.109375 0 
L 9.078125 0 
L 9.078125 75.984375 
L 18.109375 75.984375 
z
" id="DejaVuSans-98"/>
      <path d="M 4.890625 31.390625 
L 31.203125 31.390625 
L 31.203125 23.390625 
L 4.890625 23.390625 
z
" id="DejaVuSans-45"/>
     </defs>
     <use xlink:href="#DejaVuSans-98"/>
     <use x="63.476562" xlink:href="#DejaVuSans-98"/>
     <use x="126.953125" xlink:href="#DejaVuSans-111"/>
     <use x="188.134766" xlink:href="#DejaVuSans-98"/>
     <use x="251.611328" xlink:href="#DejaVuSans-45"/>
     <use x="287.695312" xlink:href="#DejaVuSans-99"/>
     <use x="342.675781" xlink:href="#DejaVuSans-111"/>
     <use x="403.857422" xlink:href="#DejaVuSans-110"/>
     <use x="467.236328" xlink:href="#DejaVuSans-115"/>
     <use x="519.335938" xlink:href="#DejaVuSans-116"/>
     <use x="558.544922" xlink:href="#DejaVuSans-114"/>
     <use x="599.658203" xlink:href="#DejaVuSans-97"/>
     <use x="660.9375" xlink:href="#DejaVuSans-105"/>
     <use x="688.720703" xlink:href="#DejaVuSans-110"/>
     <use x="752.099609" xlink:href="#DejaVuSans-101"/>
     <use x="813.623047" xlink:href="#DejaVuSans-100"/>
    </g>
    <!-- Ill-conditioned functions with 9ndiv2+9 constraints, 2-D -->
    <g transform="translate(60.632064 29.004495)scale(0.102 -0.102)">
     <defs>
      <path d="M 9.8125 72.90625 
L 19.671875 72.90625 
L 19.671875 0 
L 9.8125 0 
z
" id="DejaVuSans-73"/>
      <path d="M 4.203125 54.6875 
L 13.1875 54.6875 
L 24.421875 12.015625 
L 35.59375 54.6875 
L 46.1875 54.6875 
L 57.421875 12.015625 
L 68.609375 54.6875 
L 77.59375 54.6875 
L 63.28125 0 
L 52.6875 0 
L 40.921875 44.828125 
L 29.109375 0 
L 18.5 0 
z
" id="DejaVuSans-119"/>
      <path d="M 54.890625 33.015625 
L 54.890625 0 
L 45.90625 0 
L 45.90625 32.71875 
Q 45.90625 40.484375 42.875 44.328125 
Q 39.84375 48.1875 33.796875 48.1875 
Q 26.515625 48.1875 22.3125 43.546875 
Q 18.109375 38.921875 18.109375 30.90625 
L 18.109375 0 
L 9.078125 0 
L 9.078125 75.984375 
L 18.109375 75.984375 
L 18.109375 46.1875 
Q 21.34375 51.125 25.703125 53.5625 
Q 30.078125 56 35.796875 56 
Q 45.21875 56 50.046875 50.171875 
Q 54.890625 44.34375 54.890625 33.015625 
z
" id="DejaVuSans-104"/>
      <path d="M 10.984375 1.515625 
L 10.984375 10.5 
Q 14.703125 8.734375 18.5 7.8125 
Q 22.3125 6.890625 25.984375 6.890625 
Q 35.75 6.890625 40.890625 13.453125 
Q 46.046875 20.015625 46.78125 33.40625 
Q 43.953125 29.203125 39.59375 26.953125 
Q 35.25 24.703125 29.984375 24.703125 
Q 19.046875 24.703125 12.671875 31.3125 
Q 6.296875 37.9375 6.296875 49.421875 
Q 6.296875 60.640625 12.9375 67.421875 
Q 19.578125 74.21875 30.609375 74.21875 
Q 43.265625 74.21875 49.921875 64.515625 
Q 56.59375 54.828125 56.59375 36.375 
Q 56.59375 19.140625 48.40625 8.859375 
Q 40.234375 -1.421875 26.421875 -1.421875 
Q 22.703125 -1.421875 18.890625 -0.6875 
Q 15.09375 0.046875 10.984375 1.515625 
z
M 30.609375 32.421875 
Q 37.25 32.421875 41.125 36.953125 
Q 45.015625 41.5 45.015625 49.421875 
Q 45.015625 57.28125 41.125 61.84375 
Q 37.25 66.40625 30.609375 66.40625 
Q 23.96875 66.40625 20.09375 61.84375 
Q 16.21875 57.28125 16.21875 49.421875 
Q 16.21875 41.5 20.09375 36.953125 
Q 23.96875 32.421875 30.609375 32.421875 
z
" id="DejaVuSans-57"/>
      <path d="M 46 62.703125 
L 46 35.5 
L 73.1875 35.5 
L 73.1875 27.203125 
L 46 27.203125 
L 46 0 
L 37.796875 0 
L 37.796875 27.203125 
L 10.59375 27.203125 
L 10.59375 35.5 
L 37.796875 35.5 
L 37.796875 62.703125 
z
" id="DejaVuSans-43"/>
      <path d="M 19.671875 64.796875 
L 19.671875 8.109375 
L 31.59375 8.109375 
Q 46.6875 8.109375 53.6875 14.9375 
Q 60.6875 21.78125 60.6875 36.53125 
Q 60.6875 51.171875 53.6875 57.984375 
Q 46.6875 64.796875 31.59375 64.796875 
z
M 9.8125 72.90625 
L 30.078125 72.90625 
Q 51.265625 72.90625 61.171875 64.09375 
Q 71.09375 55.28125 71.09375 36.53125 
Q 71.09375 17.671875 61.125 8.828125 
Q 51.171875 0 30.078125 0 
L 9.8125 0 
z
" id="DejaVuSans-68"/>
     </defs>
     <use xlink:href="#DejaVuSans-73"/>
     <use x="29.492188" xlink:href="#DejaVuSans-108"/>
     <use x="57.275391" xlink:href="#DejaVuSans-108"/>
     <use x="85.058594" xlink:href="#DejaVuSans-45"/>
     <use x="121.142578" xlink:href="#DejaVuSans-99"/>
     <use x="176.123047" xlink:href="#DejaVuSans-111"/>
     <use x="237.304688" xlink:href="#DejaVuSans-110"/>
     <use x="300.683594" xlink:href="#DejaVuSans-100"/>
     <use x="364.160156" xlink:href="#DejaVuSans-105"/>
     <use x="391.943359" xlink:href="#DejaVuSans-116"/>
     <use x="431.152344" xlink:href="#DejaVuSans-105"/>
     <use x="458.935547" xlink:href="#DejaVuSans-111"/>
     <use x="520.117188" xlink:href="#DejaVuSans-110"/>
     <use x="583.496094" xlink:href="#DejaVuSans-101"/>
     <use x="645.019531" xlink:href="#DejaVuSans-100"/>
     <use x="708.496094" xlink:href="#DejaVuSans-32"/>
     <use x="740.283203" xlink:href="#DejaVuSans-102"/>
     <use x="775.488281" xlink:href="#DejaVuSans-117"/>
     <use x="838.867188" xlink:href="#DejaVuSans-110"/>
     <use x="902.246094" xlink:href="#DejaVuSans-99"/>
     <use x="957.226562" xlink:href="#DejaVuSans-116"/>
     <use x="996.435547" xlink:href="#DejaVuSans-105"/>
     <use x="1024.21875" xlink:href="#DejaVuSans-111"/>
     <use x="1085.400391" xlink:href="#DejaVuSans-110"/>
     <use x="1148.779297" xlink:href="#DejaVuSans-115"/>
     <use x="1200.878906" xlink:href="#DejaVuSans-32"/>
     <use x="1232.666016" xlink:href="#DejaVuSans-119"/>
     <use x="1314.453125" xlink:href="#DejaVuSans-105"/>
     <use x="1342.236328" xlink:href="#DejaVuSans-116"/>
     <use x="1381.445312" xlink:href="#DejaVuSans-104"/>
     <use x="1444.824219" xlink:href="#DejaVuSans-32"/>
     <use x="1476.611328" xlink:href="#DejaVuSans-57"/>
     <use x="1540.234375" xlink:href="#DejaVuSans-110"/>
     <use x="1603.613281" xlink:href="#DejaVuSans-100"/>
     <use x="1667.089844" xlink:href="#DejaVuSans-105"/>
     <use x="1694.873047" xlink:href="#DejaVuSans-118"/>
     <use x="1754.052734" xlink:href="#DejaVuSans-50"/>
     <use x="1817.675781" xlink:href="#DejaVuSans-43"/>
     <use x="1901.464844" xlink:href="#DejaVuSans-57"/>
     <use x="1965.087891" xlink:href="#DejaVuSans-32"/>
     <use x="1996.875" xlink:href="#DejaVuSans-99"/>
     <use x="2051.855469" xlink:href="#DejaVuSans-111"/>
     <use x="2113.037109" xlink:href="#DejaVuSans-110"/>
     <use x="2176.416016" xlink:href="#DejaVuSans-115"/>
     <use x="2228.515625" xlink:href="#DejaVuSans-116"/>
     <use x="2267.724609" xlink:href="#DejaVuSans-114"/>
     <use x="2308.837891" xlink:href="#DejaVuSans-97"/>
     <use x="2370.117188" xlink:href="#DejaVuSans-105"/>
     <use x="2397.900391" xlink:href="#DejaVuSans-110"/>
     <use x="2461.279297" xlink:href="#DejaVuSans-116"/>
     <use x="2500.488281" xlink:href="#DejaVuSans-115"/>
     <use x="2552.587891" xlink:href="#DejaVuSans-44"/>
     <use x="2584.375" xlink:href="#DejaVuSans-32"/>
     <use x="2616.162109" xlink:href="#DejaVuSans-50"/>
     <use x="2679.785156" xlink:href="#DejaVuSans-45"/>
     <use x="2715.869141" xlink:href="#DejaVuSans-68"/>
    </g>
    <!-- 41 targets: 100..1e-06 -->
    <g transform="translate(60.632064 40.426264)scale(0.102 -0.102)">
     <defs>
      <path d="M 11.71875 12.40625 
L 22.015625 12.40625 
L 22.015625 0 
L 11.71875 0 
z
M 11.71875 51.703125 
L 22.015625 51.703125 
L 22.015625 39.3125 
L 11.71875 39.3125 
z
" id="DejaVuSans-58"/>
     </defs>
     <use xlink:href="#DejaVuSans-52"/>
     <use x="63.623047" xlink:href="#DejaVuSans-49"/>
     <use x="127.246094" xlink:href="#DejaVuSans-32"/>
     <use x="159.033203" xlink:href="#DejaVuSans-116"/>
     <use x="198.242188" xlink:href="#DejaVuSans-97"/>
     <use x="259.521484" xlink:href="#DejaVuSans-114"/>
     <use x="298.884766" xlink:href="#DejaVuSans-103"/>
     <use x="362.361328" xlink:href="#DejaVuSans-101"/>
     <use x="423.884766" xlink:href="#DejaVuSans-116"/>
     <use x="463.09375" xlink:href="#DejaVuSans-115"/>
     <use x="515.193359" xlink:href="#DejaVuSans-58"/>
     <use x="548.884766" xlink:href="#DejaVuSans-32"/>
     <use x="580.671875" xlink:href="#DejaVuSans-49"/>
     <use x="644.294922" xlink:href="#DejaVuSans-48"/>
     <use x="707.917969" xlink:href="#DejaVuSans-48"/>
     <use x="771.541016" xlink:href="#DejaVuSans-46"/>
     <use x="803.328125" xlink:href="#DejaVuSans-46"/>
     <use x="835.115234" xlink:href="#DejaVuSans-49"/>
     <use x="898.738281" xlink:href="#DejaVuSans-101"/>
     <use x="960.261719" xlink:href="#DejaVuSans-45"/>
     <use x="996.345703" xlink:href="#DejaVuSans-48"/>
     <use x="1059.96875" xlink:href="#DejaVuSans-54"/>
    </g>
    <!-- evals = f-evals + g-evals -->
    <g transform="translate(60.632064 51.848032)scale(0.102 -0.102)">
     <defs>
      <path d="M 10.59375 45.40625 
L 73.1875 45.40625 
L 73.1875 37.203125 
L 10.59375 37.203125 
z
M 10.59375 25.484375 
L 73.1875 25.484375 
L 73.1875 17.1875 
L 10.59375 17.1875 
z
" id="DejaVuSans-61"/>
     </defs>
     <use xlink:href="#DejaVuSans-101"/>
     <use x="61.523438" xlink:href="#DejaVuSans-118"/>
     <use x="120.703125" xlink:href="#DejaVuSans-97"/>
     <use x="181.982422" xlink:href="#DejaVuSans-108"/>
     <use x="209.765625" xlink:href="#DejaVuSans-115"/>
     <use x="261.865234" xlink:href="#DejaVuSans-32"/>
     <use x="293.652344" xlink:href="#DejaVuSans-61"/>
     <use x="377.441406" xlink:href="#DejaVuSans-32"/>
     <use x="409.228516" xlink:href="#DejaVuSans-102"/>
     <use x="438.933594" xlink:href="#DejaVuSans-45"/>
     <use x="475.017578" xlink:href="#DejaVuSans-101"/>
     <use x="536.541016" xlink:href="#DejaVuSans-118"/>
     <use x="595.720703" xlink:href="#DejaVuSans-97"/>
     <use x="657" xlink:href="#DejaVuSans-108"/>
     <use x="684.783203" xlink:href="#DejaVuSans-115"/>
     <use x="736.882812" xlink:href="#DejaVuSans-32"/>
     <use x="768.669922" xlink:href="#DejaVuSans-43"/>
     <use x="852.458984" xlink:href="#DejaVuSans-32"/>
     <use x="884.246094" xlink:href="#DejaVuSans-103"/>
     <use x="947.722656" xlink:href="#DejaVuSans-45"/>
     <use x="983.806641" xlink:href="#DejaVuSans-101"/>
     <use x="1045.330078" xlink:href="#DejaVuSans-118"/>
     <use x="1104.509766" xlink:href="#DejaVuSans-97"/>
     <use x="1165.789062" xlink:href="#DejaVuSans-108"/>
     <use x="1193.572266" xlink:href="#DejaVuSans-115"/>
    </g>
    <!-- 15 instances -->
    <g transform="translate(60.632064 63.269801)scale(0.102 -0.102)">
     <defs>
      <path d="M 10.796875 72.90625 
L 49.515625 72.90625 
L 49.515625 64.59375 
L 19.828125 64.59375 
L 19.828125 46.734375 
Q 21.96875 47.46875 24.109375 47.828125 
Q 26.265625 48.1875 28.421875 48.1875 
Q 40.625 48.1875 47.75 41.5 
Q 54.890625 34.8125 54.890625 23.390625 
Q 54.890625 11.625 47.5625 5.09375 
Q 40.234375 -1.421875 26.90625 -1.421875 
Q 22.3125 -1.421875 17.546875 -0.640625 
Q 12.796875 0.140625 7.71875 1.703125 
L 7.71875 11.625 
Q 12.109375 9.234375 16.796875 8.0625 
Q 21.484375 6.890625 26.703125 6.890625 
Q 35.15625 6.890625 40.078125 11.328125 
Q 45.015625 15.765625 45.015625 23.390625 
Q 45.015625 31 40.078125 35.4375 
Q 35.15625 39.890625 26.703125 39.890625 
Q 22.75 39.890625 18.8125 39.015625 
Q 14.890625 38.140625 10.796875 36.28125 
z
" id="DejaVuSans-53"/>
     </defs>
     <use xlink:href="#DejaVuSans-49"/>
     <use x="63.623047" xlink:href="#DejaVuSans-53"/>
     <use x="127.246094" xlink:href="#DejaVuSans-32"/>
     <use x="159.033203" xlink:href="#DejaVuSans-105"/>
     <use x="186.816406" xlink:href="#DejaVuSans-110"/>
     <use x="250.195312" xlink:href="#DejaVuSans-115"/>
     <use x="302.294922" xlink:href="#DejaVuSans-116"/>
     <use x="341.503906" xlink:href="#DejaVuSans-97"/>
     <use x="402.783203" xlink:href="#DejaVuSans-110"/>
     <use x="466.162109" xlink:href="#DejaVuSans-99"/>
     <use x="521.142578" xlink:href="#DejaVuSans-101"/>
     <use x="582.666016" xlink:href="#DejaVuSans-115"/>
    </g>
   </g>
   <g id="text_18">
    <!-- v2.99.1 -->
    <g style="fill:#808080;" transform="translate(190.3407 293.943992)scale(0.1 -0.1)">
     <use xlink:href="#DejaVuSans-118"/>
     <use x="59.179688" xlink:href="#DejaVuSans-50"/>
     <use x="122.802734" xlink:href="#DejaVuSans-46"/>
     <use x="154.589844" xlink:href="#DejaVuSans-57"/>
     <use x="218.212891" xlink:href="#DejaVuSans-57"/>
     <use x="281.835938" xlink:href="#DejaVuSans-46"/>
     <use x="313.623047" xlink:href="#DejaVuSans-49"/>
    </g>
   </g>
  </g>
 </g>
 <defs>
  <clipPath id="p790bf8f898">
   <rect height="292.032" width="303.2064" x="57.6" y="6.912"/>
  </clipPath>
 </defs>
</svg>
