<?xml version="1.0" encoding="utf-8" standalone="no"?>
<!DOCTYPE svg PUBLIC "-//W3C//DTD SVG 1.1//EN"
  "http://www.w3.org/Graphics/SVG/1.1/DTD/svg11.dtd">
<!-- Created with matplotlib (https://matplotlib.org/) -->
<svg height="345.6pt" version="1.1" viewBox="0 0 460.8 345.6" width="460.8pt" xmlns="http://www.w3.org/2000/svg" xmlns:xlink="http://www.w3.org/1999/xlink">
 <metadata>
  <rdf:RDF xmlns:cc="http://creativecommons.org/ns#" xmlns:dc="http://purl.org/dc/elements/1.1/" xmlns:rdf="http://www.w3.org/1999/02/22-rdf-syntax-ns#">
   <cc:Work>
    <dc:type rdf:resource="http://purl.org/dc/dcmitype/StillImage"/>
    <dc:date>2022-03-31T09:50:52.178003</dc:date>
    <dc:format>image/svg+xml</dc:format>
    <dc:creator>
     <cc:Agent>
      <dc:title>Matplotlib v3.3.3, https://matplotlib.org/</dc:title>
     </cc:Agent>
    </dc:creator>
   </cc:Work>
  </rdf:RDF>
 </metadata>
 <defs>
  <style type="text/css">*{stroke-linecap:butt;stroke-linejoin:round;}</style>
 </defs>
 <g id="figure_1">
  <g id="patch_1">
   <path d="M 0 345.6 
L 460.8 345.6 
L 460.8 0 
L 0 0 
z
" style="fill:#ffffff;"/>
  </g>
  <g id="axes_1">
   <g id="patch_2">
    <path d="M 57.6 298.944 
L 360.8064 298.944 
L 360.8064 6.912 
L 57.6 6.912 
z
" style="fill:#ffffff;"/>
   </g>
   <g id="matplotlib.axis_1">
    <g id="xtick_1">
     <g id="line2d_1">
      <path clip-path="url(#p0f954f18db)" d="M 57.6 298.944 
L 57.6 6.912 
" style="fill:none;stroke:#b0b0b0;stroke-linecap:square;stroke-width:0.8;"/>
     </g>
     <g id="line2d_2">
      <defs>
       <path d="M 0 0 
L 0 3.5 
" id="m5e144e32e5" style="stroke:#000000;stroke-width:0.8;"/>
      </defs>
      <g>
       <use style="stroke:#000000;stroke-width:0.8;" x="57.6" xlink:href="#m5e144e32e5" y="298.944"/>
      </g>
     </g>
     <g id="text_1">
      <!-- 0 -->
      <g transform="translate(52.191875 318.861344)scale(0.17 -0.17)">
       <defs>
        <path d="M 31.78125 66.40625 
Q 24.171875 66.40625 20.328125 58.90625 
Q 16.5 51.421875 16.5 36.375 
Q 16.5 21.390625 20.328125 13.890625 
Q 24.171875 6.390625 31.78125 6.390625 
Q 39.453125 6.390625 43.28125 13.890625 
Q 47.125 21.390625 47.125 36.375 
Q 47.125 51.421875 43.28125 58.90625 
Q 39.453125 66.40625 31.78125 66.40625 
z
M 31.78125 74.21875 
Q 44.046875 74.21875 50.515625 64.515625 
Q 56.984375 54.828125 56.984375 36.375 
Q 56.984375 17.96875 50.515625 8.265625 
Q 44.046875 -1.421875 31.78125 -1.421875 
Q 19.53125 -1.421875 13.0625 8.265625 
Q 6.59375 17.96875 6.59375 36.375 
Q 6.59375 54.828125 13.0625 64.515625 
Q 19.53125 74.21875 31.78125 74.21875 
z
" id="DejaVuSans-48"/>
       </defs>
       <use xlink:href="#DejaVuSans-48"/>
      </g>
     </g>
    </g>
    <g id="xtick_2">
     <g id="line2d_3">
      <path clip-path="url(#p0f954f18db)" d="M 144.2304 298.944 
L 144.2304 6.912 
" style="fill:none;stroke:#b0b0b0;stroke-linecap:square;stroke-width:0.8;"/>
     </g>
     <g id="line2d_4">
      <g>
       <use style="stroke:#000000;stroke-width:0.8;" x="144.2304" xlink:href="#m5e144e32e5" y="298.944"/>
      </g>
     </g>
     <g id="text_2">
      <!-- 2 -->
      <g transform="translate(138.822275 318.861344)scale(0.17 -0.17)">
       <defs>
        <path d="M 19.1875 8.296875 
L 53.609375 8.296875 
L 53.609375 0 
L 7.328125 0 
L 7.328125 8.296875 
Q 12.9375 14.109375 22.625 23.890625 
Q 32.328125 33.6875 34.8125 36.53125 
Q 39.546875 41.84375 41.421875 45.53125 
Q 43.3125 49.21875 43.3125 52.78125 
Q 43.3125 58.59375 39.234375 62.25 
Q 35.15625 65.921875 28.609375 65.921875 
Q 23.96875 65.921875 18.8125 64.3125 
Q 13.671875 62.703125 7.8125 59.421875 
L 7.8125 69.390625 
Q 13.765625 71.78125 18.9375 73 
Q 24.125 74.21875 28.421875 74.21875 
Q 39.75 74.21875 46.484375 68.546875 
Q 53.21875 62.890625 53.21875 53.421875 
Q 53.21875 48.921875 51.53125 44.890625 
Q 49.859375 40.875 45.40625 35.40625 
Q 44.1875 33.984375 37.640625 27.21875 
Q 31.109375 20.453125 19.1875 8.296875 
z
" id="DejaVuSans-50"/>
       </defs>
       <use xlink:href="#DejaVuSans-50"/>
      </g>
     </g>
    </g>
    <g id="xtick_3">
     <g id="line2d_5">
      <path clip-path="url(#p0f954f18db)" d="M 230.8608 298.944 
L 230.8608 6.912 
" style="fill:none;stroke:#b0b0b0;stroke-linecap:square;stroke-width:0.8;"/>
     </g>
     <g id="line2d_6">
      <g>
       <use style="stroke:#000000;stroke-width:0.8;" x="230.8608" xlink:href="#m5e144e32e5" y="298.944"/>
      </g>
     </g>
     <g id="text_3">
      <!-- 4 -->
      <g transform="translate(225.452675 318.861344)scale(0.17 -0.17)">
       <defs>
        <path d="M 37.796875 64.3125 
L 12.890625 25.390625 
L 37.796875 25.390625 
z
M 35.203125 72.90625 
L 47.609375 72.90625 
L 47.609375 25.390625 
L 58.015625 25.390625 
L 58.015625 17.1875 
L 47.609375 17.1875 
L 47.609375 0 
L 37.796875 0 
L 37.796875 17.1875 
L 4.890625 17.1875 
L 4.890625 26.703125 
z
" id="DejaVuSans-52"/>
       </defs>
       <use xlink:href="#DejaVuSans-52"/>
      </g>
     </g>
    </g>
    <g id="xtick_4">
     <g id="line2d_7">
      <path clip-path="url(#p0f954f18db)" d="M 317.4912 298.944 
L 317.4912 6.912 
" style="fill:none;stroke:#b0b0b0;stroke-linecap:square;stroke-width:0.8;"/>
     </g>
     <g id="line2d_8">
      <g>
       <use style="stroke:#000000;stroke-width:0.8;" x="317.4912" xlink:href="#m5e144e32e5" y="298.944"/>
      </g>
     </g>
     <g id="text_4">
      <!-- 6 -->
      <g transform="translate(312.083075 318.861344)scale(0.17 -0.17)">
       <defs>
        <path d="M 33.015625 40.375 
Q 26.375 40.375 22.484375 35.828125 
Q 18.609375 31.296875 18.609375 23.390625 
Q 18.609375 15.53125 22.484375 10.953125 
Q 26.375 6.390625 33.015625 6.390625 
Q 39.65625 6.390625 43.53125 10.953125 
Q 47.40625 15.53125 47.40625 23.390625 
Q 47.40625 31.296875 43.53125 35.828125 
Q 39.65625 40.375 33.015625 40.375 
z
M 52.59375 71.296875 
L 52.59375 62.3125 
Q 48.875 64.0625 45.09375 64.984375 
Q 41.3125 65.921875 37.59375 65.921875 
Q 27.828125 65.921875 22.671875 59.328125 
Q 17.53125 52.734375 16.796875 39.40625 
Q 19.671875 43.65625 24.015625 45.921875 
Q 28.375 48.1875 33.59375 48.1875 
Q 44.578125 48.1875 50.953125 41.515625 
Q 57.328125 34.859375 57.328125 23.390625 
Q 57.328125 12.15625 50.6875 5.359375 
Q 44.046875 -1.421875 33.015625 -1.421875 
Q 20.359375 -1.421875 13.671875 8.265625 
Q 6.984375 17.96875 6.984375 36.375 
Q 6.984375 53.65625 15.1875 63.9375 
Q 23.390625 74.21875 37.203125 74.21875 
Q 40.921875 74.21875 44.703125 73.484375 
Q 48.484375 72.75 52.59375 71.296875 
z
" id="DejaVuSans-54"/>
       </defs>
       <use xlink:href="#DejaVuSans-54"/>
      </g>
     </g>
    </g>
    <g id="xtick_5">
     <g id="line2d_9">
      <path clip-path="url(#p0f954f18db)" d="M 100.9152 298.944 
L 100.9152 6.912 
" style="fill:none;stroke:#b0b0b0;stroke-linecap:square;stroke-width:0.8;"/>
     </g>
     <g id="line2d_10">
      <defs>
       <path d="M 0 0 
L 0 2 
" id="m2913324f7b" style="stroke:#000000;stroke-width:0.6;"/>
      </defs>
      <g>
       <use style="stroke:#000000;stroke-width:0.6;" x="100.9152" xlink:href="#m2913324f7b" y="298.944"/>
      </g>
     </g>
    </g>
    <g id="xtick_6">
     <g id="line2d_11">
      <path clip-path="url(#p0f954f18db)" d="M 187.5456 298.944 
L 187.5456 6.912 
" style="fill:none;stroke:#b0b0b0;stroke-linecap:square;stroke-width:0.8;"/>
     </g>
     <g id="line2d_12">
      <g>
       <use style="stroke:#000000;stroke-width:0.6;" x="187.5456" xlink:href="#m2913324f7b" y="298.944"/>
      </g>
     </g>
    </g>
    <g id="xtick_7">
     <g id="line2d_13">
      <path clip-path="url(#p0f954f18db)" d="M 274.176 298.944 
L 274.176 6.912 
" style="fill:none;stroke:#b0b0b0;stroke-linecap:square;stroke-width:0.8;"/>
     </g>
     <g id="line2d_14">
      <g>
       <use style="stroke:#000000;stroke-width:0.6;" x="274.176" xlink:href="#m2913324f7b" y="298.944"/>
      </g>
     </g>
    </g>
    <g id="xtick_8">
     <g id="line2d_15">
      <path clip-path="url(#p0f954f18db)" d="M 360.8064 298.944 
L 360.8064 6.912 
" style="fill:none;stroke:#b0b0b0;stroke-linecap:square;stroke-width:0.8;"/>
     </g>
     <g id="line2d_16">
      <g>
       <use style="stroke:#000000;stroke-width:0.6;" x="360.8064" xlink:href="#m2913324f7b" y="298.944"/>
      </g>
     </g>
    </g>
    <g id="text_5">
     <!-- log10(evals / dimension) -->
     <g transform="translate(104.238825 339.314156)scale(0.17 -0.17)">
      <defs>
       <path d="M 9.421875 75.984375 
L 18.40625 75.984375 
L 18.40625 0 
L 9.421875 0 
z
" id="DejaVuSans-108"/>
       <path d="M 30.609375 48.390625 
Q 23.390625 48.390625 19.1875 42.75 
Q 14.984375 37.109375 14.984375 27.296875 
Q 14.984375 17.484375 19.15625 11.84375 
Q 23.34375 6.203125 30.609375 6.203125 
Q 37.796875 6.203125 41.984375 11.859375 
Q 46.1875 17.53125 46.1875 27.296875 
Q 46.1875 37.015625 41.984375 42.703125 
Q 37.796875 48.390625 30.609375 48.390625 
z
M 30.609375 56 
Q 42.328125 56 49.015625 48.375 
Q 55.71875 40.765625 55.71875 27.296875 
Q 55.71875 13.875 49.015625 6.21875 
Q 42.328125 -1.421875 30.609375 -1.421875 
Q 18.84375 -1.421875 12.171875 6.21875 
Q 5.515625 13.875 5.515625 27.296875 
Q 5.515625 40.765625 12.171875 48.375 
Q 18.84375 56 30.609375 56 
z
" id="DejaVuSans-111"/>
       <path d="M 45.40625 27.984375 
Q 45.40625 37.75 41.375 43.109375 
Q 37.359375 48.484375 30.078125 48.484375 
Q 22.859375 48.484375 18.828125 43.109375 
Q 14.796875 37.75 14.796875 27.984375 
Q 14.796875 18.265625 18.828125 12.890625 
Q 22.859375 7.515625 30.078125 7.515625 
Q 37.359375 7.515625 41.375 12.890625 
Q 45.40625 18.265625 45.40625 27.984375 
z
M 54.390625 6.78125 
Q 54.390625 -7.171875 48.1875 -13.984375 
Q 42 -20.796875 29.203125 -20.796875 
Q 24.46875 -20.796875 20.265625 -20.09375 
Q 16.0625 -19.390625 12.109375 -17.921875 
L 12.109375 -9.1875 
Q 16.0625 -11.328125 19.921875 -12.34375 
Q 23.78125 -13.375 27.78125 -13.375 
Q 36.625 -13.375 41.015625 -8.765625 
Q 45.40625 -4.15625 45.40625 5.171875 
L 45.40625 9.625 
Q 42.625 4.78125 38.28125 2.390625 
Q 33.9375 0 27.875 0 
Q 17.828125 0 11.671875 7.65625 
Q 5.515625 15.328125 5.515625 27.984375 
Q 5.515625 40.671875 11.671875 48.328125 
Q 17.828125 56 27.875 56 
Q 33.9375 56 38.28125 53.609375 
Q 42.625 51.21875 45.40625 46.390625 
L 45.40625 54.6875 
L 54.390625 54.6875 
z
" id="DejaVuSans-103"/>
       <path d="M 12.40625 8.296875 
L 28.515625 8.296875 
L 28.515625 63.921875 
L 10.984375 60.40625 
L 10.984375 69.390625 
L 28.421875 72.90625 
L 38.28125 72.90625 
L 38.28125 8.296875 
L 54.390625 8.296875 
L 54.390625 0 
L 12.40625 0 
z
" id="DejaVuSans-49"/>
       <path d="M 31 75.875 
Q 24.46875 64.65625 21.28125 53.65625 
Q 18.109375 42.671875 18.109375 31.390625 
Q 18.109375 20.125 21.3125 9.0625 
Q 24.515625 -2 31 -13.1875 
L 23.1875 -13.1875 
Q 15.875 -1.703125 12.234375 9.375 
Q 8.59375 20.453125 8.59375 31.390625 
Q 8.59375 42.28125 12.203125 53.3125 
Q 15.828125 64.359375 23.1875 75.875 
z
" id="DejaVuSans-40"/>
       <path d="M 56.203125 29.59375 
L 56.203125 25.203125 
L 14.890625 25.203125 
Q 15.484375 15.921875 20.484375 11.0625 
Q 25.484375 6.203125 34.421875 6.203125 
Q 39.59375 6.203125 44.453125 7.46875 
Q 49.3125 8.734375 54.109375 11.28125 
L 54.109375 2.78125 
Q 49.265625 0.734375 44.1875 -0.34375 
Q 39.109375 -1.421875 33.890625 -1.421875 
Q 20.796875 -1.421875 13.15625 6.1875 
Q 5.515625 13.8125 5.515625 26.8125 
Q 5.515625 40.234375 12.765625 48.109375 
Q 20.015625 56 32.328125 56 
Q 43.359375 56 49.78125 48.890625 
Q 56.203125 41.796875 56.203125 29.59375 
z
M 47.21875 32.234375 
Q 47.125 39.59375 43.09375 43.984375 
Q 39.0625 48.390625 32.421875 48.390625 
Q 24.90625 48.390625 20.390625 44.140625 
Q 15.875 39.890625 15.1875 32.171875 
z
" id="DejaVuSans-101"/>
       <path d="M 2.984375 54.6875 
L 12.5 54.6875 
L 29.59375 8.796875 
L 46.6875 54.6875 
L 56.203125 54.6875 
L 35.6875 0 
L 23.484375 0 
z
" id="DejaVuSans-118"/>
       <path d="M 34.28125 27.484375 
Q 23.390625 27.484375 19.1875 25 
Q 14.984375 22.515625 14.984375 16.5 
Q 14.984375 11.71875 18.140625 8.90625 
Q 21.296875 6.109375 26.703125 6.109375 
Q 34.1875 6.109375 38.703125 11.40625 
Q 43.21875 16.703125 43.21875 25.484375 
L 43.21875 27.484375 
z
M 52.203125 31.203125 
L 52.203125 0 
L 43.21875 0 
L 43.21875 8.296875 
Q 40.140625 3.328125 35.546875 0.953125 
Q 30.953125 -1.421875 24.3125 -1.421875 
Q 15.921875 -1.421875 10.953125 3.296875 
Q 6 8.015625 6 15.921875 
Q 6 25.140625 12.171875 29.828125 
Q 18.359375 34.515625 30.609375 34.515625 
L 43.21875 34.515625 
L 43.21875 35.40625 
Q 43.21875 41.609375 39.140625 45 
Q 35.0625 48.390625 27.6875 48.390625 
Q 23 48.390625 18.546875 47.265625 
Q 14.109375 46.140625 10.015625 43.890625 
L 10.015625 52.203125 
Q 14.9375 54.109375 19.578125 55.046875 
Q 24.21875 56 28.609375 56 
Q 40.484375 56 46.34375 49.84375 
Q 52.203125 43.703125 52.203125 31.203125 
z
" id="DejaVuSans-97"/>
       <path d="M 44.28125 53.078125 
L 44.28125 44.578125 
Q 40.484375 46.53125 36.375 47.5 
Q 32.28125 48.484375 27.875 48.484375 
Q 21.1875 48.484375 17.84375 46.4375 
Q 14.5 44.390625 14.5 40.28125 
Q 14.5 37.15625 16.890625 35.375 
Q 19.28125 33.59375 26.515625 31.984375 
L 29.59375 31.296875 
Q 39.15625 29.25 43.1875 25.515625 
Q 47.21875 21.78125 47.21875 15.09375 
Q 47.21875 7.46875 41.1875 3.015625 
Q 35.15625 -1.421875 24.609375 -1.421875 
Q 20.21875 -1.421875 15.453125 -0.5625 
Q 10.6875 0.296875 5.421875 2 
L 5.421875 11.28125 
Q 10.40625 8.6875 15.234375 7.390625 
Q 20.0625 6.109375 24.8125 6.109375 
Q 31.15625 6.109375 34.5625 8.28125 
Q 37.984375 10.453125 37.984375 14.40625 
Q 37.984375 18.0625 35.515625 20.015625 
Q 33.0625 21.96875 24.703125 23.78125 
L 21.578125 24.515625 
Q 13.234375 26.265625 9.515625 29.90625 
Q 5.8125 33.546875 5.8125 39.890625 
Q 5.8125 47.609375 11.28125 51.796875 
Q 16.75 56 26.8125 56 
Q 31.78125 56 36.171875 55.265625 
Q 40.578125 54.546875 44.28125 53.078125 
z
" id="DejaVuSans-115"/>
       <path id="DejaVuSans-32"/>
       <path d="M 25.390625 72.90625 
L 33.6875 72.90625 
L 8.296875 -9.28125 
L 0 -9.28125 
z
" id="DejaVuSans-47"/>
       <path d="M 45.40625 46.390625 
L 45.40625 75.984375 
L 54.390625 75.984375 
L 54.390625 0 
L 45.40625 0 
L 45.40625 8.203125 
Q 42.578125 3.328125 38.25 0.953125 
Q 33.9375 -1.421875 27.875 -1.421875 
Q 17.96875 -1.421875 11.734375 6.484375 
Q 5.515625 14.40625 5.515625 27.296875 
Q 5.515625 40.1875 11.734375 48.09375 
Q 17.96875 56 27.875 56 
Q 33.9375 56 38.25 53.625 
Q 42.578125 51.265625 45.40625 46.390625 
z
M 14.796875 27.296875 
Q 14.796875 17.390625 18.875 11.75 
Q 22.953125 6.109375 30.078125 6.109375 
Q 37.203125 6.109375 41.296875 11.75 
Q 45.40625 17.390625 45.40625 27.296875 
Q 45.40625 37.203125 41.296875 42.84375 
Q 37.203125 48.484375 30.078125 48.484375 
Q 22.953125 48.484375 18.875 42.84375 
Q 14.796875 37.203125 14.796875 27.296875 
z
" id="DejaVuSans-100"/>
       <path d="M 9.421875 54.6875 
L 18.40625 54.6875 
L 18.40625 0 
L 9.421875 0 
z
M 9.421875 75.984375 
L 18.40625 75.984375 
L 18.40625 64.59375 
L 9.421875 64.59375 
z
" id="DejaVuSans-105"/>
       <path d="M 52 44.1875 
Q 55.375 50.25 60.0625 53.125 
Q 64.75 56 71.09375 56 
Q 79.640625 56 84.28125 50.015625 
Q 88.921875 44.046875 88.921875 33.015625 
L 88.921875 0 
L 79.890625 0 
L 79.890625 32.71875 
Q 79.890625 40.578125 77.09375 44.375 
Q 74.3125 48.1875 68.609375 48.1875 
Q 61.625 48.1875 57.5625 43.546875 
Q 53.515625 38.921875 53.515625 30.90625 
L 53.515625 0 
L 44.484375 0 
L 44.484375 32.71875 
Q 44.484375 40.625 41.703125 44.40625 
Q 38.921875 48.1875 33.109375 48.1875 
Q 26.21875 48.1875 22.15625 43.53125 
Q 18.109375 38.875 18.109375 30.90625 
L 18.109375 0 
L 9.078125 0 
L 9.078125 54.6875 
L 18.109375 54.6875 
L 18.109375 46.1875 
Q 21.1875 51.21875 25.484375 53.609375 
Q 29.78125 56 35.6875 56 
Q 41.65625 56 45.828125 52.96875 
Q 50 49.953125 52 44.1875 
z
" id="DejaVuSans-109"/>
       <path d="M 54.890625 33.015625 
L 54.890625 0 
L 45.90625 0 
L 45.90625 32.71875 
Q 45.90625 40.484375 42.875 44.328125 
Q 39.84375 48.1875 33.796875 48.1875 
Q 26.515625 48.1875 22.3125 43.546875 
Q 18.109375 38.921875 18.109375 30.90625 
L 18.109375 0 
L 9.078125 0 
L 9.078125 54.6875 
L 18.109375 54.6875 
L 18.109375 46.1875 
Q 21.34375 51.125 25.703125 53.5625 
Q 30.078125 56 35.796875 56 
Q 45.21875 56 50.046875 50.171875 
Q 54.890625 44.34375 54.890625 33.015625 
z
" id="DejaVuSans-110"/>
       <path d="M 8.015625 75.875 
L 15.828125 75.875 
Q 23.140625 64.359375 26.78125 53.3125 
Q 30.421875 42.28125 30.421875 31.390625 
Q 30.421875 20.453125 26.78125 9.375 
Q 23.140625 -1.703125 15.828125 -13.1875 
L 8.015625 -13.1875 
Q 14.5 -2 17.703125 9.0625 
Q 20.90625 20.125 20.90625 31.390625 
Q 20.90625 42.671875 17.703125 53.65625 
Q 14.5 64.65625 8.015625 75.875 
z
" id="DejaVuSans-41"/>
      </defs>
      <use xlink:href="#DejaVuSans-108"/>
      <use x="27.783203" xlink:href="#DejaVuSans-111"/>
      <use x="88.964844" xlink:href="#DejaVuSans-103"/>
      <use x="152.441406" xlink:href="#DejaVuSans-49"/>
      <use x="216.064453" xlink:href="#DejaVuSans-48"/>
      <use x="279.6875" xlink:href="#DejaVuSans-40"/>
      <use x="318.701172" xlink:href="#DejaVuSans-101"/>
      <use x="380.224609" xlink:href="#DejaVuSans-118"/>
      <use x="439.404297" xlink:href="#DejaVuSans-97"/>
      <use x="500.683594" xlink:href="#DejaVuSans-108"/>
      <use x="528.466797" xlink:href="#DejaVuSans-115"/>
      <use x="580.566406" xlink:href="#DejaVuSans-32"/>
      <use x="612.353516" xlink:href="#DejaVuSans-47"/>
      <use x="646.044922" xlink:href="#DejaVuSans-32"/>
      <use x="677.832031" xlink:href="#DejaVuSans-100"/>
      <use x="741.308594" xlink:href="#DejaVuSans-105"/>
      <use x="769.091797" xlink:href="#DejaVuSans-109"/>
      <use x="866.503906" xlink:href="#DejaVuSans-101"/>
      <use x="928.027344" xlink:href="#DejaVuSans-110"/>
      <use x="991.40625" xlink:href="#DejaVuSans-115"/>
      <use x="1043.505859" xlink:href="#DejaVuSans-105"/>
      <use x="1071.289062" xlink:href="#DejaVuSans-111"/>
      <use x="1132.470703" xlink:href="#DejaVuSans-110"/>
      <use x="1195.849609" xlink:href="#DejaVuSans-41"/>
     </g>
    </g>
   </g>
   <g id="matplotlib.axis_2">
    <g id="ytick_1">
     <g id="line2d_17">
      <path clip-path="url(#p0f954f18db)" d="M 57.6 298.944 
L 360.8064 298.944 
" style="fill:none;stroke:#b0b0b0;stroke-linecap:square;stroke-width:0.8;"/>
     </g>
     <g id="line2d_18">
      <defs>
       <path d="M 0 0 
L -3.5 0 
" id="me83b5772c6" style="stroke:#000000;stroke-width:0.8;"/>
      </defs>
      <g>
       <use style="stroke:#000000;stroke-width:0.8;" x="57.6" xlink:href="#me83b5772c6" y="298.944"/>
      </g>
     </g>
     <g id="text_6">
      <!-- 0.0 -->
      <g transform="translate(25.155 305.02275)scale(0.16 -0.16)">
       <defs>
        <path d="M 10.6875 12.40625 
L 21 12.40625 
L 21 0 
L 10.6875 0 
z
" id="DejaVuSans-46"/>
       </defs>
       <use xlink:href="#DejaVuSans-48"/>
       <use x="63.623047" xlink:href="#DejaVuSans-46"/>
       <use x="95.410156" xlink:href="#DejaVuSans-48"/>
      </g>
     </g>
    </g>
    <g id="ytick_2">
     <g id="line2d_19">
      <path clip-path="url(#p0f954f18db)" d="M 57.6 240.5376 
L 360.8064 240.5376 
" style="fill:none;stroke:#b0b0b0;stroke-linecap:square;stroke-width:0.8;"/>
     </g>
     <g id="line2d_20">
      <g>
       <use style="stroke:#000000;stroke-width:0.8;" x="57.6" xlink:href="#me83b5772c6" y="240.5376"/>
      </g>
     </g>
     <g id="text_7">
      <!-- 0.2 -->
      <g transform="translate(25.155 246.61635)scale(0.16 -0.16)">
       <use xlink:href="#DejaVuSans-48"/>
       <use x="63.623047" xlink:href="#DejaVuSans-46"/>
       <use x="95.410156" xlink:href="#DejaVuSans-50"/>
      </g>
     </g>
    </g>
    <g id="ytick_3">
     <g id="line2d_21">
      <path clip-path="url(#p0f954f18db)" d="M 57.6 182.1312 
L 360.8064 182.1312 
" style="fill:none;stroke:#b0b0b0;stroke-linecap:square;stroke-width:0.8;"/>
     </g>
     <g id="line2d_22">
      <g>
       <use style="stroke:#000000;stroke-width:0.8;" x="57.6" xlink:href="#me83b5772c6" y="182.1312"/>
      </g>
     </g>
     <g id="text_8">
      <!-- 0.4 -->
      <g transform="translate(25.155 188.20995)scale(0.16 -0.16)">
       <use xlink:href="#DejaVuSans-48"/>
       <use x="63.623047" xlink:href="#DejaVuSans-46"/>
       <use x="95.410156" xlink:href="#DejaVuSans-52"/>
      </g>
     </g>
    </g>
    <g id="ytick_4">
     <g id="line2d_23">
      <path clip-path="url(#p0f954f18db)" d="M 57.6 123.7248 
L 360.8064 123.7248 
" style="fill:none;stroke:#b0b0b0;stroke-linecap:square;stroke-width:0.8;"/>
     </g>
     <g id="line2d_24">
      <g>
       <use style="stroke:#000000;stroke-width:0.8;" x="57.6" xlink:href="#me83b5772c6" y="123.7248"/>
      </g>
     </g>
     <g id="text_9">
      <!-- 0.6 -->
      <g transform="translate(25.155 129.80355)scale(0.16 -0.16)">
       <use xlink:href="#DejaVuSans-48"/>
       <use x="63.623047" xlink:href="#DejaVuSans-46"/>
       <use x="95.410156" xlink:href="#DejaVuSans-54"/>
      </g>
     </g>
    </g>
    <g id="ytick_5">
     <g id="line2d_25">
      <path clip-path="url(#p0f954f18db)" d="M 57.6 65.3184 
L 360.8064 65.3184 
" style="fill:none;stroke:#b0b0b0;stroke-linecap:square;stroke-width:0.8;"/>
     </g>
     <g id="line2d_26">
      <g>
       <use style="stroke:#000000;stroke-width:0.8;" x="57.6" xlink:href="#me83b5772c6" y="65.3184"/>
      </g>
     </g>
     <g id="text_10">
      <!-- 0.8 -->
      <g transform="translate(25.155 71.39715)scale(0.16 -0.16)">
       <defs>
        <path d="M 31.78125 34.625 
Q 24.75 34.625 20.71875 30.859375 
Q 16.703125 27.09375 16.703125 20.515625 
Q 16.703125 13.921875 20.71875 10.15625 
Q 24.75 6.390625 31.78125 6.390625 
Q 38.8125 6.390625 42.859375 10.171875 
Q 46.921875 13.96875 46.921875 20.515625 
Q 46.921875 27.09375 42.890625 30.859375 
Q 38.875 34.625 31.78125 34.625 
z
M 21.921875 38.8125 
Q 15.578125 40.375 12.03125 44.71875 
Q 8.5 49.078125 8.5 55.328125 
Q 8.5 64.0625 14.71875 69.140625 
Q 20.953125 74.21875 31.78125 74.21875 
Q 42.671875 74.21875 48.875 69.140625 
Q 55.078125 64.0625 55.078125 55.328125 
Q 55.078125 49.078125 51.53125 44.71875 
Q 48 40.375 41.703125 38.8125 
Q 48.828125 37.15625 52.796875 32.3125 
Q 56.78125 27.484375 56.78125 20.515625 
Q 56.78125 9.90625 50.3125 4.234375 
Q 43.84375 -1.421875 31.78125 -1.421875 
Q 19.734375 -1.421875 13.25 4.234375 
Q 6.78125 9.90625 6.78125 20.515625 
Q 6.78125 27.484375 10.78125 32.3125 
Q 14.796875 37.15625 21.921875 38.8125 
z
M 18.3125 54.390625 
Q 18.3125 48.734375 21.84375 45.5625 
Q 25.390625 42.390625 31.78125 42.390625 
Q 38.140625 42.390625 41.71875 45.5625 
Q 45.3125 48.734375 45.3125 54.390625 
Q 45.3125 60.0625 41.71875 63.234375 
Q 38.140625 66.40625 31.78125 66.40625 
Q 25.390625 66.40625 21.84375 63.234375 
Q 18.3125 60.0625 18.3125 54.390625 
z
" id="DejaVuSans-56"/>
       </defs>
       <use xlink:href="#DejaVuSans-48"/>
       <use x="63.623047" xlink:href="#DejaVuSans-46"/>
       <use x="95.410156" xlink:href="#DejaVuSans-56"/>
      </g>
     </g>
    </g>
    <g id="ytick_6">
     <g id="line2d_27">
      <path clip-path="url(#p0f954f18db)" d="M 57.6 6.912 
L 360.8064 6.912 
" style="fill:none;stroke:#b0b0b0;stroke-linecap:square;stroke-width:0.8;"/>
     </g>
     <g id="line2d_28">
      <g>
       <use style="stroke:#000000;stroke-width:0.8;" x="57.6" xlink:href="#me83b5772c6" y="6.912"/>
      </g>
     </g>
     <g id="text_11">
      <!-- 1.0 -->
      <g transform="translate(25.155 12.99075)scale(0.16 -0.16)">
       <use xlink:href="#DejaVuSans-49"/>
       <use x="63.623047" xlink:href="#DejaVuSans-46"/>
       <use x="95.410156" xlink:href="#DejaVuSans-48"/>
      </g>
     </g>
    </g>
    <g id="text_12">
     <!-- Fraction of function,target pairs -->
     <g transform="translate(17.619531 287.313)rotate(-90)scale(0.17 -0.17)">
      <defs>
       <path d="M 9.8125 72.90625 
L 51.703125 72.90625 
L 51.703125 64.59375 
L 19.671875 64.59375 
L 19.671875 43.109375 
L 48.578125 43.109375 
L 48.578125 34.8125 
L 19.671875 34.8125 
L 19.671875 0 
L 9.8125 0 
z
" id="DejaVuSans-70"/>
       <path d="M 41.109375 46.296875 
Q 39.59375 47.171875 37.8125 47.578125 
Q 36.03125 48 33.890625 48 
Q 26.265625 48 22.1875 43.046875 
Q 18.109375 38.09375 18.109375 28.8125 
L 18.109375 0 
L 9.078125 0 
L 9.078125 54.6875 
L 18.109375 54.6875 
L 18.109375 46.1875 
Q 20.953125 51.171875 25.484375 53.578125 
Q 30.03125 56 36.53125 56 
Q 37.453125 56 38.578125 55.875 
Q 39.703125 55.765625 41.0625 55.515625 
z
" id="DejaVuSans-114"/>
       <path d="M 48.78125 52.59375 
L 48.78125 44.1875 
Q 44.96875 46.296875 41.140625 47.34375 
Q 37.3125 48.390625 33.40625 48.390625 
Q 24.65625 48.390625 19.8125 42.84375 
Q 14.984375 37.3125 14.984375 27.296875 
Q 14.984375 17.28125 19.8125 11.734375 
Q 24.65625 6.203125 33.40625 6.203125 
Q 37.3125 6.203125 41.140625 7.25 
Q 44.96875 8.296875 48.78125 10.40625 
L 48.78125 2.09375 
Q 45.015625 0.34375 40.984375 -0.53125 
Q 36.96875 -1.421875 32.421875 -1.421875 
Q 20.0625 -1.421875 12.78125 6.34375 
Q 5.515625 14.109375 5.515625 27.296875 
Q 5.515625 40.671875 12.859375 48.328125 
Q 20.21875 56 33.015625 56 
Q 37.15625 56 41.109375 55.140625 
Q 45.0625 54.296875 48.78125 52.59375 
z
" id="DejaVuSans-99"/>
       <path d="M 18.3125 70.21875 
L 18.3125 54.6875 
L 36.8125 54.6875 
L 36.8125 47.703125 
L 18.3125 47.703125 
L 18.3125 18.015625 
Q 18.3125 11.328125 20.140625 9.421875 
Q 21.96875 7.515625 27.59375 7.515625 
L 36.8125 7.515625 
L 36.8125 0 
L 27.59375 0 
Q 17.1875 0 13.234375 3.875 
Q 9.28125 7.765625 9.28125 18.015625 
L 9.28125 47.703125 
L 2.6875 47.703125 
L 2.6875 54.6875 
L 9.28125 54.6875 
L 9.28125 70.21875 
z
" id="DejaVuSans-116"/>
       <path d="M 37.109375 75.984375 
L 37.109375 68.5 
L 28.515625 68.5 
Q 23.6875 68.5 21.796875 66.546875 
Q 19.921875 64.59375 19.921875 59.515625 
L 19.921875 54.6875 
L 34.71875 54.6875 
L 34.71875 47.703125 
L 19.921875 47.703125 
L 19.921875 0 
L 10.890625 0 
L 10.890625 47.703125 
L 2.296875 47.703125 
L 2.296875 54.6875 
L 10.890625 54.6875 
L 10.890625 58.5 
Q 10.890625 67.625 15.140625 71.796875 
Q 19.390625 75.984375 28.609375 75.984375 
z
" id="DejaVuSans-102"/>
       <path d="M 8.5 21.578125 
L 8.5 54.6875 
L 17.484375 54.6875 
L 17.484375 21.921875 
Q 17.484375 14.15625 20.5 10.265625 
Q 23.53125 6.390625 29.59375 6.390625 
Q 36.859375 6.390625 41.078125 11.03125 
Q 45.3125 15.671875 45.3125 23.6875 
L 45.3125 54.6875 
L 54.296875 54.6875 
L 54.296875 0 
L 45.3125 0 
L 45.3125 8.40625 
Q 42.046875 3.421875 37.71875 1 
Q 33.40625 -1.421875 27.6875 -1.421875 
Q 18.265625 -1.421875 13.375 4.4375 
Q 8.5 10.296875 8.5 21.578125 
z
M 31.109375 56 
z
" id="DejaVuSans-117"/>
       <path d="M 11.71875 12.40625 
L 22.015625 12.40625 
L 22.015625 4 
L 14.015625 -11.625 
L 7.71875 -11.625 
L 11.71875 4 
z
" id="DejaVuSans-44"/>
       <path d="M 18.109375 8.203125 
L 18.109375 -20.796875 
L 9.078125 -20.796875 
L 9.078125 54.6875 
L 18.109375 54.6875 
L 18.109375 46.390625 
Q 20.953125 51.265625 25.265625 53.625 
Q 29.59375 56 35.59375 56 
Q 45.5625 56 51.78125 48.09375 
Q 58.015625 40.1875 58.015625 27.296875 
Q 58.015625 14.40625 51.78125 6.484375 
Q 45.5625 -1.421875 35.59375 -1.421875 
Q 29.59375 -1.421875 25.265625 0.953125 
Q 20.953125 3.328125 18.109375 8.203125 
z
M 48.6875 27.296875 
Q 48.6875 37.203125 44.609375 42.84375 
Q 40.53125 48.484375 33.40625 48.484375 
Q 26.265625 48.484375 22.1875 42.84375 
Q 18.109375 37.203125 18.109375 27.296875 
Q 18.109375 17.390625 22.1875 11.75 
Q 26.265625 6.109375 33.40625 6.109375 
Q 40.53125 6.109375 44.609375 11.75 
Q 48.6875 17.390625 48.6875 27.296875 
z
" id="DejaVuSans-112"/>
      </defs>
      <use xlink:href="#DejaVuSans-70"/>
      <use x="50.269531" xlink:href="#DejaVuSans-114"/>
      <use x="91.382812" xlink:href="#DejaVuSans-97"/>
      <use x="152.662109" xlink:href="#DejaVuSans-99"/>
      <use x="207.642578" xlink:href="#DejaVuSans-116"/>
      <use x="246.851562" xlink:href="#DejaVuSans-105"/>
      <use x="274.634766" xlink:href="#DejaVuSans-111"/>
      <use x="335.816406" xlink:href="#DejaVuSans-110"/>
      <use x="399.195312" xlink:href="#DejaVuSans-32"/>
      <use x="430.982422" xlink:href="#DejaVuSans-111"/>
      <use x="492.164062" xlink:href="#DejaVuSans-102"/>
      <use x="527.369141" xlink:href="#DejaVuSans-32"/>
      <use x="559.15625" xlink:href="#DejaVuSans-102"/>
      <use x="594.361328" xlink:href="#DejaVuSans-117"/>
      <use x="657.740234" xlink:href="#DejaVuSans-110"/>
      <use x="721.119141" xlink:href="#DejaVuSans-99"/>
      <use x="776.099609" xlink:href="#DejaVuSans-116"/>
      <use x="815.308594" xlink:href="#DejaVuSans-105"/>
      <use x="843.091797" xlink:href="#DejaVuSans-111"/>
      <use x="904.273438" xlink:href="#DejaVuSans-110"/>
      <use x="967.652344" xlink:href="#DejaVuSans-44"/>
      <use x="999.439453" xlink:href="#DejaVuSans-116"/>
      <use x="1038.648438" xlink:href="#DejaVuSans-97"/>
      <use x="1099.927734" xlink:href="#DejaVuSans-114"/>
      <use x="1139.291016" xlink:href="#DejaVuSans-103"/>
      <use x="1202.767578" xlink:href="#DejaVuSans-101"/>
      <use x="1264.291016" xlink:href="#DejaVuSans-116"/>
      <use x="1303.5" xlink:href="#DejaVuSans-32"/>
      <use x="1335.287109" xlink:href="#DejaVuSans-112"/>
      <use x="1398.763672" xlink:href="#DejaVuSans-97"/>
      <use x="1460.042969" xlink:href="#DejaVuSans-105"/>
      <use x="1487.826172" xlink:href="#DejaVuSans-114"/>
      <use x="1528.939453" xlink:href="#DejaVuSans-115"/>
     </g>
    </g>
   </g>
   <g id="line2d_29">
    <defs>
     <path d="M 0 1.5 
C 0.397805 1.5 0.77937 1.341951 1.06066 1.06066 
C 1.341951 0.77937 1.5 0.397805 1.5 0 
C 1.5 -0.397805 1.341951 -0.77937 1.06066 -1.06066 
C 0.77937 -1.341951 0.397805 -1.5 0 -1.5 
C -0.397805 -1.5 -0.77937 -1.341951 -1.06066 -1.06066 
C -1.341951 -0.77937 -1.5 -0.397805 -1.5 0 
C -1.5 0.397805 -1.341951 0.77937 -1.06066 1.06066 
C -0.77937 1.341951 -0.397805 1.5 0 1.5 
z
" id="m99f20e9dba" style="stroke:#00bfbf;"/>
    </defs>
    <g>
     <use style="fill:#00bfbf;stroke:#00bfbf;" x="359.94861" xlink:href="#m99f20e9dba" y="224.155317"/>
     <use style="fill:#00bfbf;stroke:#00bfbf;" x="359.94861" xlink:href="#m99f20e9dba" y="224.155317"/>
    </g>
   </g>
   <g id="line2d_30">
    <path d="M 98.933205 298.944 
L 98.933205 298.587863 
L 100.9152 298.587863 
L 100.9152 298.469151 
L 117.384126 298.469151 
L 117.384126 298.350439 
L 120.944062 298.350439 
L 120.944062 298.113015 
L 122.795872 298.113015 
L 122.795872 297.87559 
L 123.374735 297.87559 
L 123.374735 297.519454 
L 124.481616 297.519454 
L 124.481616 297.400741 
L 125.011554 297.400741 
L 125.011554 297.044605 
L 132.638982 297.044605 
L 132.638982 296.688468 
L 132.984158 296.688468 
L 132.984158 296.332332 
L 133.983236 296.332332 
L 133.983236 296.094907 
L 135.835047 296.094907 
L 135.835047 295.857483 
L 136.97549 295.857483 
L 136.97549 295.738771 
L 141.610664 295.738771 
L 141.610664 295.620059 
L 143.066428 295.620059 
L 143.066428 295.382634 
L 144.2304 295.382634 
L 144.2304 295.14521 
L 150.152479 295.14521 
L 150.152479 295.026498 
L 151.60532 295.026498 
L 151.60532 294.907785 
L 157.825621 294.907785 
L 157.825621 294.551649 
L 158.542339 294.551649 
L 158.542339 294.314224 
L 159.14782 294.314224 
L 159.14782 293.601951 
L 161.316153 293.601951 
L 161.316153 293.364527 
L 162.56338 293.364527 
L 162.56338 293.00839 
L 163.59914 293.00839 
L 163.59914 292.652254 
L 167.850487 292.652254 
L 167.850487 292.414829 
L 169.144777 292.414829 
L 169.144777 292.296117 
L 169.540824 292.296117 
L 169.540824 292.177405 
L 172.440637 292.177405 
L 172.440637 292.058693 
L 173.342453 292.058693 
L 173.342453 291.93998 
L 173.501874 291.93998 
L 173.581081 291.583844 
L 175.954182 291.583844 
L 175.954182 291.465132 
L 177.715419 291.465132 
L 177.715419 291.227707 
L 178.09229 291.227707 
L 178.09229 290.871571 
L 178.308695 290.871571 
L 178.308695 290.634146 
L 180.70114 290.634146 
L 180.70114 290.515434 
L 182.457127 290.515434 
L 182.457127 290.396722 
L 183.46513 290.396722 
L 183.46513 290.040585 
L 183.926786 290.040585 
L 183.926786 289.921873 
L 184.510485 289.921873 
L 184.510485 289.803161 
L 186.160194 289.803161 
L 186.160194 289.684449 
L 188.156358 289.684449 
L 188.156358 289.090888 
L 188.283402 289.090888 
L 188.391619 288.616039 
L 188.730254 288.616039 
L 188.730254 288.497327 
L 188.97593 288.497327 
L 188.97593 288.022478 
L 189.861343 288.022478 
L 189.861343 287.785054 
L 192.73976 287.785054 
L 192.73976 287.666341 
L 193.90202 287.666341 
L 193.94223 287.191493 
L 194.062346 287.191493 
L 194.062346 287.07278 
L 195.322922 287.07278 
L 195.322922 286.597932 
L 195.85044 286.597932 
L 195.85044 286.47922 
L 197.327298 286.47922 
L 197.327298 286.360507 
L 197.472131 286.360507 
L 197.472131 286.241795 
L 197.637873 286.241795 
L 197.637873 286.123083 
L 197.758496 286.123083 
L 197.769423 285.648234 
L 198.147938 285.648234 
L 198.147938 285.529522 
L 198.727774 285.529522 
L 198.727774 285.173385 
L 199.310411 285.173385 
L 199.310411 285.054673 
L 199.550434 285.054673 
L 199.550434 284.935961 
L 199.787433 284.935961 
L 199.787433 284.817249 
L 200.06988 284.817249 
L 200.175915 284.461112 
L 200.734668 284.461112 
L 200.734668 284.223688 
L 201.484669 284.223688 
L 201.583042 283.986263 
L 201.698641 283.986263 
L 201.698641 283.748839 
L 203.31994 283.748839 
L 203.31994 283.630127 
L 204.255953 283.630127 
L 204.255953 283.511415 
L 204.394727 283.511415 
L 204.394727 283.392702 
L 204.797494 283.392702 
L 204.797494 283.036566 
L 205.736067 283.036566 
L 205.736067 282.561717 
L 207.476908 282.561717 
L 207.476908 282.443005 
L 207.645681 282.443005 
L 207.645681 282.324293 
L 208.212203 282.324293 
L 208.212203 282.20558 
L 208.682826 282.20558 
L 208.682826 281.968156 
L 209.438026 281.968156 
L 209.438026 281.61202 
L 210.433457 281.61202 
L 210.461297 281.255883 
L 211.400035 281.255883 
L 211.452892 280.781034 
L 211.537154 280.781034 
L 211.537154 280.662322 
L 211.803249 280.662322 
L 211.834308 280.424898 
L 211.963173 280.424898 
L 211.963173 280.306185 
L 212.314325 280.306185 
L 212.314325 280.187473 
L 212.644185 280.187473 
L 212.728221 279.593912 
L 214.024111 279.593912 
L 214.024111 279.4752 
L 214.138858 279.4752 
L 214.138858 279.356488 
L 214.262003 279.356488 
L 214.262003 279.119063 
L 214.505902 279.119063 
L 214.505902 278.881639 
L 214.821846 278.881639 
L 214.835079 278.644215 
L 215.097815 278.644215 
L 215.097815 278.525502 
L 215.348351 278.525502 
L 215.348351 278.288078 
L 216.37131 278.288078 
L 216.37131 278.050654 
L 217.116301 278.050654 
L 217.116301 277.813229 
L 217.422376 277.813229 
L 217.422376 277.694517 
L 217.72355 277.694517 
L 217.72355 277.33838 
L 217.844186 277.33838 
L 217.870472 276.982244 
L 218.363056 276.982244 
L 218.363056 276.74482 
L 219.453114 276.74482 
L 219.453114 276.626107 
L 220.784754 276.626107 
L 220.797606 276.388683 
L 221.040133 276.388683 
L 221.040133 276.269971 
L 221.285833 276.269971 
L 221.285833 276.151259 
L 221.410599 276.151259 
L 221.410599 276.032546 
L 221.577732 276.032546 
L 221.577732 275.913834 
L 221.92274 275.913834 
L 221.92274 275.795122 
L 222.12136 275.795122 
L 222.12136 275.557698 
L 222.702036 275.557698 
L 222.702036 275.201561 
L 223.146639 275.201561 
L 223.146639 274.489288 
L 223.464272 274.489288 
L 223.464272 274.370576 
L 224.086583 274.370576 
L 224.180728 273.420878 
L 225.774792 273.420878 
L 225.774792 273.302166 
L 226.627819 273.302166 
L 226.627819 273.183454 
L 227.849985 273.183454 
L 227.849985 272.946029 
L 229.592475 272.946029 
L 229.666785 272.589893 
L 230.155476 272.589893 
L 230.155476 272.233756 
L 231.605836 272.233756 
L 231.605836 271.996332 
L 232.166938 271.996332 
L 232.166938 271.87762 
L 232.869676 271.87762 
L 232.869676 271.758907 
L 233.17488 271.758907 
L 233.17488 271.521483 
L 234.015787 271.521483 
L 234.123645 271.284059 
L 234.304655 271.284059 
L 234.304655 271.046634 
L 234.559815 271.046634 
L 234.559815 270.80921 
L 235.402941 270.80921 
L 235.404419 269.978224 
L 236.640914 269.978224 
L 236.640914 269.7408 
L 236.830876 269.7408 
L 236.830876 269.503376 
L 237.337593 269.503376 
L 237.337593 269.384663 
L 238.367447 269.384663 
L 238.367447 269.147239 
L 239.69289 269.147239 
L 239.69289 268.909815 
L 240.883639 268.909815 
L 240.883639 268.791102 
L 241.129359 268.791102 
L 241.129359 268.67239 
L 241.801616 268.67239 
L 241.801616 268.553678 
L 242.07202 268.553678 
L 242.095846 268.197541 
L 242.812892 268.197541 
L 242.812892 268.078829 
L 243.12519 268.078829 
L 243.12519 267.841405 
L 243.585082 267.841405 
L 243.585082 267.722693 
L 243.870794 267.722693 
L 243.908438 267.247844 
L 244.842859 267.247844 
L 244.842859 267.01042 
L 245.066956 267.01042 
L 245.066956 266.891707 
L 245.249061 266.891707 
L 245.34686 266.535571 
L 246.08972 266.535571 
L 246.08972 266.416859 
L 246.583833 266.416859 
L 246.583833 266.298146 
L 247.115311 266.298146 
L 247.115311 266.060722 
L 247.595899 266.060722 
L 247.595899 265.94201 
L 247.754426 265.94201 
L 247.754426 265.585873 
L 249.490985 265.585873 
L 249.580907 265.348449 
L 249.70912 265.348449 
L 249.70912 265.229737 
L 249.925438 265.229737 
L 250.03369 264.754888 
L 251.176129 264.754888 
L 251.176129 264.636176 
L 252.206629 264.636176 
L 252.206629 264.517463 
L 253.020971 264.517463 
L 253.020971 264.398751 
L 253.215726 264.398751 
L 253.236351 264.042615 
L 253.424365 264.042615 
L 253.424365 263.567766 
L 253.618937 263.567766 
L 253.618937 263.449054 
L 254.874935 263.449054 
L 254.874935 263.211629 
L 255.101863 263.211629 
L 255.101863 262.974205 
L 255.224357 262.974205 
L 255.224357 262.855493 
L 256.192766 262.855493 
L 256.192766 262.73678 
L 256.465293 262.73678 
L 256.465293 262.618068 
L 256.797531 262.618068 
L 256.797531 262.14322 
L 257.105365 262.14322 
L 257.164938 261.668371 
L 257.560375 261.668371 
L 257.56447 261.193522 
L 257.797303 261.193522 
L 257.797303 260.956098 
L 258.725667 260.956098 
L 258.725667 260.837385 
L 258.967035 260.837385 
L 258.967035 260.718673 
L 259.146886 260.718673 
L 259.146886 260.599961 
L 259.548239 260.599961 
L 259.554379 260.243824 
L 259.946819 260.243824 
L 259.946819 260.0064 
L 260.412352 260.0064 
L 260.412352 259.887688 
L 260.931415 259.887688 
L 260.931415 259.768976 
L 261.576723 259.768976 
L 261.576723 259.531551 
L 262.101883 259.531551 
L 262.101883 259.294127 
L 263.60893 259.294127 
L 263.60893 259.056702 
L 263.811058 259.056702 
L 263.811058 258.93799 
L 264.452421 258.93799 
L 264.452421 258.819278 
L 264.828421 258.819278 
L 264.828421 258.700566 
L 265.354056 258.700566 
L 265.354056 258.463141 
L 266.467508 258.463141 
L 266.467508 258.225717 
L 266.608391 258.225717 
L 266.608391 258.107005 
L 266.89673 258.107005 
L 266.89673 257.750868 
L 267.358047 257.750868 
L 267.358047 257.394732 
L 267.945049 257.394732 
L 267.945049 257.27602 
L 268.75748 257.27602 
L 268.75748 257.157307 
L 269.246126 257.157307 
L 269.246126 256.919883 
L 270.10721 256.919883 
L 270.10721 256.682459 
L 270.792393 256.682459 
L 270.890991 256.20761 
L 272.135179 256.20761 
L 272.135179 255.970185 
L 272.390083 255.970185 
L 272.390083 255.732761 
L 272.534323 255.732761 
L 272.534323 255.614049 
L 273.233654 255.614049 
L 273.233654 255.257912 
L 274.880491 255.257912 
L 274.880491 255.1392 
L 276.655525 255.1392 
L 276.655525 254.901776 
L 276.832437 254.901776 
L 276.832437 254.545639 
L 276.965416 254.545639 
L 277.006891 254.07079 
L 277.632852 254.07079 
L 277.632852 253.952078 
L 277.74709 253.952078 
L 277.74709 253.833366 
L 278.089824 253.833366 
L 278.089824 253.595941 
L 278.205277 253.595941 
L 278.205277 253.477229 
L 278.727891 253.477229 
L 278.727891 253.358517 
L 279.051331 253.358517 
L 279.051331 253.239805 
L 279.491798 253.239805 
L 279.491798 253.121093 
L 280.060693 253.121093 
L 280.060693 252.764956 
L 280.710166 252.764956 
L 280.734607 252.171395 
L 280.926499 252.171395 
L 280.926499 252.052683 
L 281.396747 252.052683 
L 281.396747 251.933971 
L 282.056428 251.933971 
L 282.056428 251.815259 
L 282.311807 251.815259 
L 282.328889 251.577834 
L 282.624972 251.577834 
L 282.624972 251.459122 
L 283.063999 251.459122 
L 283.063999 251.34041 
L 283.233177 251.34041 
L 283.233177 251.221698 
L 283.77146 251.221698 
L 283.77146 251.102985 
L 283.949979 251.102985 
L 283.949979 250.746849 
L 284.971666 250.746849 
L 284.971666 250.628137 
L 286.193748 250.628137 
L 286.193748 250.390712 
L 286.506041 250.390712 
L 286.506041 250.153288 
L 287.23595 250.153288 
L 287.31639 249.797151 
L 287.376355 249.797151 
L 287.376355 249.678439 
L 287.547167 249.678439 
L 287.556499 249.441015 
L 287.862228 249.441015 
L 287.862228 249.322302 
L 288.376144 249.322302 
L 288.376144 249.20359 
L 289.218048 249.20359 
L 289.218048 248.966166 
L 289.393028 248.966166 
L 289.393028 248.847454 
L 289.642937 248.847454 
L 289.642937 248.728741 
L 290.102864 248.728741 
L 290.102864 248.610029 
L 290.316239 248.610029 
L 290.316239 248.491317 
L 290.621397 248.491317 
L 290.682746 248.016468 
L 290.749899 248.016468 
L 290.790698 247.779044 
L 291.106832 247.779044 
L 291.180796 246.710634 
L 292.211404 246.710634 
L 292.211404 246.591922 
L 292.335327 246.591922 
L 292.335327 246.47321 
L 292.606688 246.47321 
L 292.714566 246.235785 
L 293.338432 246.235785 
L 293.338432 245.879649 
L 294.265932 245.879649 
L 294.265932 245.4048 
L 295.834328 245.4048 
L 295.834328 244.811239 
L 296.283739 244.811239 
L 296.283739 244.692527 
L 297.015205 244.692527 
L 297.015205 244.455102 
L 297.851261 244.455102 
L 297.851261 244.33639 
L 297.969413 244.33639 
L 297.969413 244.217678 
L 298.611184 244.217678 
L 298.692507 243.742829 
L 299.750568 243.742829 
L 299.750568 243.624117 
L 300.264739 243.624117 
L 300.336798 243.26798 
L 300.810807 243.26798 
L 300.810807 243.030556 
L 301.121802 243.030556 
L 301.121802 242.911844 
L 301.282429 242.911844 
L 301.374775 242.555707 
L 301.590517 242.555707 
L 301.590517 242.436995 
L 301.737648 242.436995 
L 301.768525 242.199571 
L 302.004693 242.199571 
L 302.104612 241.962146 
L 302.300635 241.962146 
L 302.300635 241.843434 
L 302.447318 241.843434 
L 302.447318 241.724722 
L 303.56403 241.724722 
L 303.56403 241.487298 
L 303.828433 241.487298 
L 303.828433 241.368585 
L 304.108149 241.368585 
L 304.108149 241.249873 
L 305.053312 241.249873 
L 305.053312 241.131161 
L 305.642154 241.131161 
L 305.642154 241.012449 
L 305.959432 241.012449 
L 305.959432 240.893737 
L 306.389727 240.893737 
L 306.389727 240.775024 
L 308.147053 240.775024 
L 308.254572 240.5376 
L 308.629887 240.5376 
L 308.629887 240.418888 
L 308.904647 240.418888 
L 308.904647 240.300176 
L 309.087027 240.300176 
L 309.087027 240.181463 
L 309.269957 240.181463 
L 309.371783 239.706615 
L 309.607266 239.706615 
L 309.698665 239.113054 
L 310.151614 239.113054 
L 310.151614 238.875629 
L 310.338287 238.875629 
L 310.338287 238.756917 
L 310.536608 238.756917 
L 310.536608 238.638205 
L 311.206308 238.638205 
L 311.206308 238.519493 
L 312.182235 238.519493 
L 312.182235 238.40078 
L 312.374229 238.40078 
L 312.374229 238.163356 
L 312.528807 238.163356 
L 312.528807 237.925932 
L 313.857376 237.925932 
L 313.862077 237.569795 
L 314.058055 237.569795 
L 314.058055 237.451083 
L 314.204623 237.451083 
L 314.204623 237.213659 
L 314.366012 237.213659 
L 314.421946 236.73881 
L 314.60225 236.73881 
L 314.71001 236.382673 
L 314.86277 236.382673 
L 314.86277 236.263961 
L 315.16532 236.263961 
L 315.16532 236.026537 
L 315.318939 236.026537 
L 315.318939 235.907824 
L 315.82358 235.907824 
L 315.845623 235.6704 
L 317.524223 235.6704 
L 317.524223 235.551688 
L 317.943626 235.551688 
L 317.947409 234.958127 
L 318.632794 234.958127 
L 318.632794 234.720702 
L 319.555514 234.720702 
L 319.555514 234.60199 
L 319.688245 234.60199 
L 319.688245 234.364566 
L 320.153533 234.364566 
L 320.189716 234.127141 
L 320.313107 234.127141 
L 320.41461 233.889717 
L 321.108272 233.889717 
L 321.108272 233.652293 
L 321.247738 233.652293 
L 321.30189 233.296156 
L 321.533227 233.296156 
L 321.533227 233.177444 
L 321.877026 233.177444 
L 321.877026 233.058732 
L 322.189276 233.058732 
L 322.189276 232.94002 
L 323.02083 232.94002 
L 323.02083 232.821307 
L 323.195748 232.821307 
L 323.195748 232.702595 
L 324.147754 232.702595 
L 324.147754 232.583883 
L 324.643197 232.583883 
L 324.733439 232.346459 
L 324.827262 232.346459 
L 324.827262 232.227746 
L 325.0047 232.227746 
L 325.0047 232.109034 
L 325.415823 232.109034 
L 325.415823 231.990322 
L 325.786953 231.990322 
L 325.878666 231.752898 
L 325.954225 231.752898 
L 325.954225 231.634185 
L 326.382787 231.634185 
L 326.473363 231.159337 
L 326.619122 231.159337 
L 326.619122 231.040624 
L 326.793763 231.040624 
L 326.793763 230.921912 
L 326.99844 230.921912 
L 327.034754 230.684488 
L 327.649188 230.684488 
L 327.649188 230.565776 
L 328.064061 230.565776 
L 328.064061 230.447063 
L 328.80107 230.447063 
L 328.803194 230.209639 
L 329.723061 230.209639 
L 329.723061 229.972215 
L 330.228208 229.972215 
L 330.228208 229.73479 
L 330.759862 229.73479 
L 330.759862 229.497366 
L 331.366886 229.497366 
L 331.366886 229.378654 
L 332.048811 229.378654 
L 332.048811 229.259941 
L 332.425713 229.259941 
L 332.532047 228.903805 
L 332.836477 228.903805 
L 332.836477 228.785093 
L 332.970005 228.785093 
L 332.970005 228.66638 
L 333.353868 228.66638 
L 333.353868 228.547668 
L 333.598061 228.547668 
L 333.598061 228.428956 
L 334.274791 228.428956 
L 334.274791 228.310244 
L 334.847942 228.310244 
L 334.847942 228.191532 
L 335.64263 228.191532 
L 335.750921 227.954107 
L 335.913164 227.954107 
L 335.913164 227.835395 
L 336.061876 227.835395 
L 336.061876 227.716683 
L 336.286844 227.716683 
L 336.286844 227.597971 
L 337.024144 227.597971 
L 337.024144 227.479259 
L 337.172655 227.479259 
L 337.172655 227.360546 
L 338.311105 227.360546 
L 338.311105 227.241834 
L 339.100979 227.241834 
L 339.100979 227.123122 
L 339.51563 227.123122 
L 339.51563 227.00441 
L 339.645781 227.00441 
L 339.645781 226.885698 
L 340.041631 226.885698 
L 340.041631 226.766985 
L 341.14333 226.766985 
L 341.14333 226.529561 
L 341.346953 226.529561 
L 341.346953 226.410849 
L 341.715393 226.410849 
L 341.715393 226.292137 
L 341.831225 226.292137 
L 341.831225 226.173424 
L 342.184062 226.173424 
L 342.184062 226.054712 
L 342.446213 226.054712 
L 342.446213 225.936 
L 342.725774 225.936 
L 342.725774 225.817288 
L 343.625941 225.817288 
L 343.625941 225.698576 
L 344.99981 225.698576 
L 344.99981 225.579863 
L 346.298809 225.579863 
L 346.298809 225.461151 
L 347.095261 225.461151 
L 347.095261 225.342439 
L 348.338787 225.342439 
L 348.338787 225.105015 
L 352.162463 225.105015 
L 352.162463 224.986302 
L 353.619277 224.986302 
L 353.619277 224.86759 
L 354.251051 224.86759 
L 354.251051 224.748878 
L 356.879495 224.748878 
L 356.967979 224.511454 
L 357.581436 224.511454 
L 357.581436 224.392741 
L 357.868845 224.392741 
L 357.868845 224.274029 
L 359.94861 224.274029 
L 359.94861 224.155317 
L 360.8064 224.155317 
L 360.8064 224.155317 
" style="fill:none;stroke:#00bfbf;stroke-linecap:square;stroke-width:1.5;"/>
   </g>
   <g id="line2d_31">
    <defs>
     <path d="M -6 0 
L 6 0 
M 0 6 
L 0 -6 
" id="m87bdd337e4" style="stroke:#00bfbf;stroke-width:1.5;"/>
    </defs>
    <g>
     <use style="fill-opacity:0;stroke:#00bfbf;stroke-width:1.5;" x="159.14782" xlink:href="#m87bdd337e4" y="293.601951"/>
     <use style="fill-opacity:0;stroke:#00bfbf;stroke-width:1.5;" x="249.70912" xlink:href="#m87bdd337e4" y="265.348449"/>
     <use style="fill-opacity:0;stroke:#00bfbf;stroke-width:1.5;" x="294.265932" xlink:href="#m87bdd337e4" y="245.879649"/>
     <use style="fill-opacity:0;stroke:#00bfbf;stroke-width:1.5;" x="359.94861" xlink:href="#m87bdd337e4" y="224.155317"/>
     <use style="fill-opacity:0;stroke:#00bfbf;stroke-width:1.5;" x="360.8064" xlink:href="#m87bdd337e4" y="224.155317"/>
    </g>
   </g>
   <g id="line2d_32">
    <path style="fill:none;stroke:#00bfbf;stroke-linecap:square;stroke-width:1.5;"/>
    <g/>
   </g>
   <g id="line2d_33">
    <path clip-path="url(#p0f954f18db)" d="M 287.215174 250.153288 
" style="fill:none;stroke:#00bfbf;stroke-linecap:square;stroke-width:1.5;"/>
    <defs>
     <path d="M -12 12 
L 12 -12 
M -12 -12 
L 12 12 
" id="m599c31aac7" style="stroke:#00bfbf;"/>
    </defs>
    <g clip-path="url(#p0f954f18db)">
     <use style="fill:#00bfbf;stroke:#00bfbf;" x="287.215174" xlink:href="#m599c31aac7" y="250.153288"/>
    </g>
   </g>
   <g id="line2d_34">
    <defs>
     <path d="M 0 1.5 
C 0.397805 1.5 0.77937 1.341951 1.06066 1.06066 
C 1.341951 0.77937 1.5 0.397805 1.5 0 
C 1.5 -0.397805 1.341951 -0.77937 1.06066 -1.06066 
C 0.77937 -1.341951 0.397805 -1.5 0 -1.5 
C -0.397805 -1.5 -0.77937 -1.341951 -1.06066 -1.06066 
C -1.341951 -0.77937 -1.5 -0.397805 -1.5 0 
C -1.5 0.397805 -1.341951 0.77937 -1.06066 1.06066 
C -0.77937 1.341951 -0.397805 1.5 0 1.5 
z
" id="mdc860d5a3d" style="stroke:#008000;"/>
    </defs>
    <g>
     <use style="fill:#008000;stroke:#008000;" x="365.067195" xlink:href="#mdc860d5a3d" y="259.768976"/>
     <use style="fill:#008000;stroke:#008000;" x="365.067195" xlink:href="#mdc860d5a3d" y="259.768976"/>
    </g>
   </g>
   <g id="line2d_35">
    <path d="M 151.00261 298.944 
L 151.00261 298.825288 
L 155.357123 298.825288 
L 155.357123 298.706576 
L 167.652941 298.706576 
L 167.652941 298.587863 
L 171.315934 298.587863 
L 171.315934 298.469151 
L 181.365929 298.469151 
L 181.365929 298.350439 
L 182.100381 298.350439 
L 182.100381 297.994302 
L 184.954672 297.994302 
L 184.954672 297.756878 
L 188.186685 297.756878 
L 188.186685 297.638166 
L 190.445414 297.638166 
L 190.445414 297.519454 
L 192.287144 297.519454 
L 192.287144 297.400741 
L 195.231462 297.400741 
L 195.231462 297.282029 
L 195.700643 297.282029 
L 195.700643 297.163317 
L 195.934933 297.163317 
L 195.934933 297.044605 
L 196.371415 297.044605 
L 196.371415 296.925893 
L 196.651725 296.925893 
L 196.651725 296.688468 
L 197.46103 296.688468 
L 197.46103 296.569756 
L 200.703539 296.569756 
L 200.703539 296.451044 
L 202.553597 296.451044 
L 202.553597 296.21362 
L 205.987113 296.21362 
L 205.987113 296.094907 
L 207.844951 296.094907 
L 207.844951 295.976195 
L 210.750244 295.976195 
L 210.750244 295.857483 
L 211.176403 295.857483 
L 211.176403 295.738771 
L 211.624528 295.738771 
L 211.624528 295.620059 
L 212.359648 295.620059 
L 212.359648 295.501346 
L 212.969984 295.501346 
L 212.969984 295.382634 
L 214.268064 295.382634 
L 214.268064 295.263922 
L 214.914286 295.263922 
L 214.914286 295.14521 
L 215.204773 295.14521 
L 215.204773 295.026498 
L 215.822902 295.026498 
L 215.822902 294.907785 
L 218.428741 294.907785 
L 218.528049 294.670361 
L 218.573893 294.670361 
L 218.573893 294.551649 
L 220.147346 294.551649 
L 220.147346 294.432937 
L 221.709765 294.432937 
L 221.719961 294.195512 
L 223.108804 294.195512 
L 223.108804 294.0768 
L 223.869608 294.0768 
L 223.869608 293.839376 
L 224.054196 293.839376 
L 224.054196 293.720663 
L 226.717911 293.720663 
L 226.717911 293.483239 
L 227.420511 293.483239 
L 227.420511 293.364527 
L 229.392867 293.364527 
L 229.392867 293.245815 
L 230.229545 293.245815 
L 230.229545 293.00839 
L 231.193933 293.00839 
L 231.193933 292.889678 
L 232.126531 292.889678 
L 232.126531 292.770966 
L 232.315523 292.770966 
L 232.315523 292.652254 
L 233.010596 292.652254 
L 233.030721 292.296117 
L 233.228587 292.296117 
L 233.228587 292.058693 
L 234.330223 292.058693 
L 234.330223 291.821268 
L 234.712186 291.821268 
L 234.778494 291.583844 
L 236.181088 291.583844 
L 236.181088 291.465132 
L 237.583072 291.465132 
L 237.583072 291.34642 
L 237.920414 291.34642 
L 237.920414 291.227707 
L 238.355663 291.227707 
L 238.397715 290.871571 
L 240.653679 290.871571 
L 240.653679 290.752859 
L 241.154409 290.752859 
L 241.154409 290.515434 
L 241.455285 290.515434 
L 241.455285 290.27801 
L 247.475472 290.27801 
L 247.475472 290.159298 
L 248.011674 290.159298 
L 248.011674 290.040585 
L 248.140242 290.040585 
L 248.140242 289.921873 
L 248.679007 289.921873 
L 248.679007 289.803161 
L 252.401775 289.803161 
L 252.401775 289.684449 
L 252.677089 289.684449 
L 252.677089 289.328312 
L 254.490531 289.328312 
L 254.490531 288.972176 
L 254.987785 288.972176 
L 254.987785 288.853463 
L 255.643637 288.853463 
L 255.643637 288.497327 
L 257.003 288.497327 
L 257.024235 288.259902 
L 258.237681 288.259902 
L 258.237681 287.903766 
L 258.780473 287.903766 
L 258.879147 287.666341 
L 259.193251 287.666341 
L 259.193251 287.547629 
L 261.111224 287.547629 
L 261.111224 287.428917 
L 262.824347 287.428917 
L 262.855277 287.191493 
L 262.983039 287.191493 
L 262.983039 287.07278 
L 263.138825 287.07278 
L 263.138825 286.954068 
L 264.18504 286.954068 
L 264.18504 286.716644 
L 264.708589 286.716644 
L 264.708589 286.597932 
L 265.357964 286.597932 
L 265.405401 286.123083 
L 265.755744 286.123083 
L 265.766141 285.885659 
L 268.084605 285.885659 
L 268.084605 285.766946 
L 268.95011 285.766946 
L 268.95011 285.529522 
L 269.696718 285.529522 
L 269.696718 285.41081 
L 272.084861 285.41081 
L 272.084861 285.173385 
L 273.932896 285.173385 
L 273.932896 285.054673 
L 274.436422 285.054673 
L 274.436422 284.817249 
L 274.998024 284.817249 
L 274.998024 284.698537 
L 275.255439 284.698537 
L 275.255439 284.579824 
L 275.383132 284.579824 
L 275.383132 284.461112 
L 276.592489 284.461112 
L 276.592489 284.3424 
L 276.756657 284.3424 
L 276.83456 283.867551 
L 277.286289 283.867551 
L 277.286289 283.630127 
L 279.200118 283.630127 
L 279.200118 283.511415 
L 280.170895 283.511415 
L 280.170895 283.392702 
L 280.77399 283.392702 
L 280.77399 282.917854 
L 280.888443 282.917854 
L 280.972169 282.561717 
L 281.196539 282.561717 
L 281.196539 282.443005 
L 282.496399 282.443005 
L 282.586437 282.20558 
L 283.625904 282.20558 
L 283.625904 282.086868 
L 284.347386 282.086868 
L 284.347386 281.968156 
L 285.643706 281.968156 
L 285.643706 281.849444 
L 285.87386 281.849444 
L 285.87386 281.730732 
L 287.066605 281.730732 
L 287.066605 281.61202 
L 287.367183 281.61202 
L 287.367183 281.493307 
L 287.489877 281.493307 
L 287.563702 281.255883 
L 287.852865 281.255883 
L 287.852865 281.137171 
L 288.103409 281.137171 
L 288.148991 280.662322 
L 288.252766 280.662322 
L 288.335423 280.424898 
L 288.56642 280.424898 
L 288.569338 280.068761 
L 289.421323 280.068761 
L 289.496346 279.712624 
L 289.998318 279.712624 
L 289.998318 279.4752 
L 290.435109 279.4752 
L 290.435109 279.356488 
L 290.655583 279.356488 
L 290.655583 279.237776 
L 290.867669 279.237776 
L 290.867669 279.000351 
L 291.407734 279.000351 
L 291.407734 278.881639 
L 292.347575 278.881639 
L 292.347575 278.762927 
L 293.256654 278.762927 
L 293.256654 278.525502 
L 294.171057 278.525502 
L 294.171057 278.40679 
L 294.929811 278.40679 
L 294.929811 278.050654 
L 295.120621 278.050654 
L 295.209341 277.694517 
L 295.683065 277.694517 
L 295.742736 277.33838 
L 297.060031 277.33838 
L 297.060031 277.219668 
L 297.308108 277.219668 
L 297.308108 276.863532 
L 298.08199 276.863532 
L 298.08199 276.74482 
L 300.330507 276.74482 
L 300.330507 276.626107 
L 300.518574 276.626107 
L 300.518574 276.507395 
L 300.727051 276.507395 
L 300.822811 276.032546 
L 300.943613 276.032546 
L 300.943613 275.913834 
L 301.062683 275.913834 
L 301.062683 275.67641 
L 301.358758 275.67641 
L 301.358758 275.557698 
L 301.677152 275.557698 
L 301.697344 275.201561 
L 301.878016 275.201561 
L 301.933126 274.608 
L 302.169104 274.608 
L 302.169104 274.370576 
L 302.98862 274.370576 
L 302.995044 274.014439 
L 303.381425 274.014439 
L 303.381425 273.895727 
L 304.504399 273.895727 
L 304.504399 273.658302 
L 304.672926 273.658302 
L 304.672926 273.53959 
L 305.116586 273.53959 
L 305.116586 273.420878 
L 305.969742 273.420878 
L 306.021869 272.589893 
L 306.081375 272.589893 
L 306.081375 272.47118 
L 306.461758 272.47118 
L 306.461758 272.233756 
L 308.096751 272.233756 
L 308.096751 271.996332 
L 308.234038 271.996332 
L 308.234038 271.87762 
L 309.017439 271.87762 
L 309.017439 271.640195 
L 309.179685 271.640195 
L 309.179685 271.521483 
L 309.5493 271.521483 
L 309.5493 271.402771 
L 309.752531 271.402771 
L 309.752531 271.046634 
L 310.203378 271.046634 
L 310.203378 270.80921 
L 310.496716 270.80921 
L 310.496716 270.690498 
L 310.819015 270.690498 
L 310.819015 270.571785 
L 311.146396 270.571785 
L 311.172648 270.215649 
L 311.916114 270.215649 
L 311.916114 270.096937 
L 312.220105 270.096937 
L 312.220105 269.978224 
L 313.256491 269.978224 
L 313.256491 269.859512 
L 313.558336 269.859512 
L 313.641312 269.622088 
L 314.028854 269.622088 
L 314.028854 269.503376 
L 314.151633 269.503376 
L 314.151633 269.384663 
L 314.713739 269.384663 
L 314.713739 269.147239 
L 315.53832 269.147239 
L 315.53832 269.028527 
L 315.793552 269.028527 
L 315.8813 268.316254 
L 316.367449 268.316254 
L 316.367449 267.960117 
L 316.637421 267.960117 
L 316.637421 267.841405 
L 316.951555 267.841405 
L 316.951555 267.722693 
L 317.46158 267.722693 
L 317.46158 267.60398 
L 317.620479 267.60398 
L 317.703347 267.366556 
L 317.769943 267.366556 
L 317.769943 267.01042 
L 318.18079 267.01042 
L 318.280639 266.654283 
L 319.307957 266.654283 
L 319.307957 266.535571 
L 319.517099 266.535571 
L 319.533926 266.179434 
L 319.989216 266.179434 
L 319.989216 266.060722 
L 320.224338 266.060722 
L 320.224338 265.94201 
L 321.46357 265.94201 
L 321.497351 265.704585 
L 321.581097 265.704585 
L 321.581097 265.585873 
L 321.879574 265.585873 
L 321.879574 265.467161 
L 322.44684 265.467161 
L 322.44684 265.348449 
L 322.638258 265.348449 
L 322.638258 265.229737 
L 324.315896 265.229737 
L 324.315896 265.111024 
L 325.136102 265.111024 
L 325.136102 264.992312 
L 325.638259 264.992312 
L 325.638259 264.8736 
L 325.812671 264.8736 
L 325.812671 264.754888 
L 326.766645 264.754888 
L 326.766645 264.636176 
L 327.932378 264.636176 
L 327.932378 264.042615 
L 329.710489 264.042615 
L 329.710489 263.923902 
L 329.976889 263.923902 
L 329.976889 263.686478 
L 330.878329 263.686478 
L 330.878329 263.567766 
L 331.11139 263.567766 
L 331.11139 263.449054 
L 331.579451 263.449054 
L 331.579451 263.330341 
L 331.946537 263.330341 
L 331.946537 262.974205 
L 332.309849 262.974205 
L 332.309849 262.855493 
L 334.0141 262.855493 
L 334.0141 262.73678 
L 335.041549 262.73678 
L 335.041549 262.618068 
L 336.466262 262.618068 
L 336.564544 262.380644 
L 338.863647 262.380644 
L 338.863647 262.261932 
L 339.113656 262.261932 
L 339.113656 262.14322 
L 339.590097 262.14322 
L 339.590097 262.024507 
L 340.188712 262.024507 
L 340.188712 261.905795 
L 341.781656 261.905795 
L 341.781656 261.787083 
L 342.315365 261.787083 
L 342.315365 261.668371 
L 343.159283 261.668371 
L 343.159283 261.549659 
L 344.290954 261.549659 
L 344.290954 261.430946 
L 344.653863 261.430946 
L 344.653863 261.193522 
L 346.770657 261.193522 
L 346.827551 260.956098 
L 347.547782 260.956098 
L 347.547782 260.837385 
L 348.294072 260.837385 
L 348.346545 260.599961 
L 350.370213 260.599961 
L 350.370213 260.481249 
L 351.014285 260.481249 
L 351.014285 260.362537 
L 351.680974 260.362537 
L 351.680974 260.243824 
L 359.118917 260.243824 
L 359.118917 260.125112 
L 360.696998 260.125112 
L 360.696998 260.0064 
L 360.8064 260.0064 
" style="fill:none;stroke:#008000;stroke-linecap:square;stroke-width:1.5;"/>
   </g>
   <g id="line2d_36">
    <defs>
     <path d="M -0 6 
L 6 -6 
L -6 -6 
z
" id="ma7e6b637ad" style="stroke:#008000;stroke-linejoin:miter;stroke-width:1.5;"/>
    </defs>
    <g>
     <use style="fill-opacity:0;stroke:#008000;stroke-linejoin:miter;stroke-width:1.5;" x="233.030721" xlink:href="#ma7e6b637ad" y="292.296117"/>
     <use style="fill-opacity:0;stroke:#008000;stroke-linejoin:miter;stroke-width:1.5;" x="291.407734" xlink:href="#ma7e6b637ad" y="279.000351"/>
     <use style="fill-opacity:0;stroke:#008000;stroke-linejoin:miter;stroke-width:1.5;" x="344.653863" xlink:href="#ma7e6b637ad" y="261.193522"/>
     <use style="fill-opacity:0;stroke:#008000;stroke-linejoin:miter;stroke-width:1.5;" x="360.696998" xlink:href="#ma7e6b637ad" y="260.0064"/>
     <use style="fill-opacity:0;stroke:#008000;stroke-linejoin:miter;stroke-width:1.5;" x="360.8064" xlink:href="#ma7e6b637ad" y="260.0064"/>
    </g>
   </g>
   <g id="line2d_37">
    <path style="fill:none;stroke:#008000;stroke-linecap:square;stroke-width:1.5;"/>
    <g/>
   </g>
   <g id="line2d_38">
    <path clip-path="url(#p0f954f18db)" d="M 287.215174 281.61202 
" style="fill:none;stroke:#008000;stroke-linecap:square;stroke-width:1.5;"/>
    <defs>
     <path d="M -12 12 
L 12 -12 
M -12 -12 
L 12 12 
" id="m03cfbf5bfe" style="stroke:#008000;"/>
    </defs>
    <g clip-path="url(#p0f954f18db)">
     <use style="fill:#008000;stroke:#008000;" x="287.215174" xlink:href="#m03cfbf5bfe" y="281.61202"/>
    </g>
   </g>
   <g id="line2d_39">
    <defs>
     <path d="M 0 1.5 
C 0.397805 1.5 0.77937 1.341951 1.06066 1.06066 
C 1.341951 0.77937 1.5 0.397805 1.5 0 
C 1.5 -0.397805 1.341951 -0.77937 1.06066 -1.06066 
C 0.77937 -1.341951 0.397805 -1.5 0 -1.5 
C -0.397805 -1.5 -0.77937 -1.341951 -1.06066 -1.06066 
C -1.341951 -0.77937 -1.5 -0.397805 -1.5 0 
C -1.5 0.397805 -1.341951 0.77937 -1.06066 1.06066 
C -0.77937 1.341951 -0.397805 1.5 0 1.5 
z
" id="mefd3016cdf" style="stroke:#0000ff;"/>
    </defs>
    <g>
     <use style="fill:#0000ff;stroke:#0000ff;" x="353.605608" xlink:href="#mefd3016cdf" y="288.259902"/>
     <use style="fill:#0000ff;stroke:#0000ff;" x="353.605608" xlink:href="#mefd3016cdf" y="288.259902"/>
    </g>
   </g>
   <g id="line2d_40">
    <path d="M 203.781074 298.944 
L 203.781074 298.825288 
L 209.122854 298.825288 
L 209.122854 298.706576 
L 218.803831 298.706576 
L 218.803831 298.469151 
L 237.706189 298.469151 
L 237.706189 298.350439 
L 243.511098 298.350439 
L 243.511098 297.994302 
L 250.482857 297.994302 
L 250.482857 297.87559 
L 252.61217 297.87559 
L 252.61217 297.638166 
L 254.127948 297.638166 
L 254.127948 297.400741 
L 257.546629 297.400741 
L 257.546629 297.282029 
L 260.402731 297.282029 
L 260.402731 297.163317 
L 260.91962 297.163317 
L 260.91962 297.044605 
L 262.372281 297.044605 
L 262.372281 296.925893 
L 265.213964 296.925893 
L 265.213964 296.80718 
L 268.021185 296.80718 
L 268.127654 296.569756 
L 272.386566 296.569756 
L 272.386566 296.451044 
L 273.606428 296.451044 
L 273.606428 296.332332 
L 277.935804 296.332332 
L 277.935804 296.21362 
L 278.825523 296.21362 
L 278.825523 296.094907 
L 280.094673 296.094907 
L 280.094673 295.976195 
L 280.342164 295.976195 
L 280.342164 295.857483 
L 280.586174 295.857483 
L 280.586174 295.738771 
L 282.038725 295.738771 
L 282.038725 295.620059 
L 282.159119 295.620059 
L 282.159119 295.501346 
L 285.50201 295.501346 
L 285.50201 295.382634 
L 286.3271 295.382634 
L 286.3271 295.263922 
L 287.704257 295.263922 
L 287.704257 295.026498 
L 289.711313 295.026498 
L 289.711313 294.789073 
L 290.204607 294.789073 
L 290.204607 294.670361 
L 290.747545 294.670361 
L 290.747545 294.432937 
L 291.268306 294.432937 
L 291.36961 294.195512 
L 292.30204 294.195512 
L 292.30204 293.958088 
L 293.006022 293.958088 
L 293.034291 293.483239 
L 296.181121 293.483239 
L 296.181121 293.364527 
L 296.523404 293.364527 
L 296.523404 293.245815 
L 297.02901 293.245815 
L 297.02901 293.127102 
L 299.815552 293.127102 
L 299.815552 292.889678 
L 300.50048 292.889678 
L 300.50048 292.770966 
L 301.153831 292.770966 
L 301.153831 292.652254 
L 301.54379 292.652254 
L 301.54379 292.533541 
L 301.808386 292.533541 
L 301.808386 292.414829 
L 302.103325 292.414829 
L 302.103325 292.296117 
L 303.371726 292.296117 
L 303.371726 292.177405 
L 305.266509 292.177405 
L 305.266509 292.058693 
L 308.486185 292.058693 
L 308.486185 291.93998 
L 311.366941 291.93998 
L 311.366941 291.821268 
L 312.151132 291.821268 
L 312.151132 291.702556 
L 313.62887 291.702556 
L 313.62887 291.583844 
L 313.94929 291.583844 
L 313.94929 291.465132 
L 321.145179 291.465132 
L 321.145179 291.227707 
L 322.744129 291.227707 
L 322.744129 291.108995 
L 323.852589 291.108995 
L 323.852589 290.990283 
L 324.013123 290.990283 
L 324.082178 290.752859 
L 326.501119 290.752859 
L 326.501119 290.634146 
L 330.665232 290.634146 
L 330.665232 290.515434 
L 334.072574 290.515434 
L 334.072574 290.396722 
L 335.569675 290.396722 
L 335.569675 290.159298 
L 336.9911 290.159298 
L 336.9911 290.040585 
L 338.280248 290.040585 
L 338.280248 289.921873 
L 340.620397 289.921873 
L 340.620397 289.684449 
L 341.662594 289.684449 
L 341.662594 289.565737 
L 342.701376 289.565737 
L 342.701376 289.447024 
L 344.57491 289.447024 
L 344.57491 289.328312 
L 346.25744 289.328312 
L 346.278634 289.090888 
L 347.821284 289.090888 
L 347.840788 288.853463 
L 348.575767 288.853463 
L 348.575767 288.616039 
L 349.947388 288.616039 
L 349.947388 288.497327 
L 351.857413 288.497327 
L 351.857413 288.378615 
L 353.605608 288.378615 
L 353.605608 288.259902 
L 360.8064 288.259902 
L 360.8064 288.259902 
" style="fill:none;stroke:#0000ff;stroke-linecap:square;stroke-width:1.5;"/>
   </g>
   <g id="line2d_41">
    <defs>
     <path d="M 0 -6 
L -1.347084 -1.854102 
L -5.706339 -1.854102 
L -2.179628 0.708204 
L -3.526712 4.854102 
L -0 2.291796 
L 3.526712 4.854102 
L 2.179628 0.708204 
L 5.706339 -1.854102 
L 1.347084 -1.854102 
z
" id="ma9b1a11bfa" style="stroke:#0000ff;stroke-linejoin:bevel;stroke-width:1.5;"/>
    </defs>
    <g>
     <use style="fill-opacity:0;stroke:#0000ff;stroke-linejoin:bevel;stroke-width:1.5;" x="252.61217" xlink:href="#ma9b1a11bfa" y="297.87559"/>
     <use style="fill-opacity:0;stroke:#0000ff;stroke-linejoin:bevel;stroke-width:1.5;" x="313.94929" xlink:href="#ma9b1a11bfa" y="291.583844"/>
     <use style="fill-opacity:0;stroke:#0000ff;stroke-linejoin:bevel;stroke-width:1.5;" x="353.605608" xlink:href="#ma9b1a11bfa" y="288.259902"/>
     <use style="fill-opacity:0;stroke:#0000ff;stroke-linejoin:bevel;stroke-width:1.5;" x="360.8064" xlink:href="#ma9b1a11bfa" y="288.259902"/>
    </g>
   </g>
   <g id="line2d_42">
    <path style="fill:none;stroke:#0000ff;stroke-linecap:square;stroke-width:1.5;"/>
    <g/>
   </g>
   <g id="line2d_43">
    <path clip-path="url(#p0f954f18db)" d="M 287.215174 295.263922 
" style="fill:none;stroke:#0000ff;stroke-linecap:square;stroke-width:1.5;"/>
    <defs>
     <path d="M -12 12 
L 12 -12 
M -12 -12 
L 12 12 
" id="mcc77264e57" style="stroke:#0000ff;"/>
    </defs>
    <g clip-path="url(#p0f954f18db)">
     <use style="fill:#0000ff;stroke:#0000ff;" x="287.215174" xlink:href="#mcc77264e57" y="295.263922"/>
    </g>
   </g>
   <g id="line2d_44">
    <defs>
     <path d="M 0 1.5 
C 0.397805 1.5 0.77937 1.341951 1.06066 1.06066 
C 1.341951 0.77937 1.5 0.397805 1.5 0 
C 1.5 -0.397805 1.341951 -0.77937 1.06066 -1.06066 
C 0.77937 -1.341951 0.397805 -1.5 0 -1.5 
C -0.397805 -1.5 -0.77937 -1.341951 -1.06066 -1.06066 
C -1.341951 -0.77937 -1.5 -0.397805 -1.5 0 
C -1.5 0.397805 -1.341951 0.77937 -1.06066 1.06066 
C -0.77937 1.341951 -0.397805 1.5 0 1.5 
z
" id="m7a31d253f6" style="stroke:#000000;"/>
    </defs>
    <g>
     <use style="stroke:#000000;" x="363.655351" xlink:href="#m7a31d253f6" y="295.382634"/>
     <use style="stroke:#000000;" x="363.655351" xlink:href="#m7a31d253f6" y="295.382634"/>
    </g>
   </g>
   <g id="line2d_45">
    <path d="M 254.515691 298.944 
L 254.515691 298.825288 
L 285.998616 298.825288 
L 285.998616 298.706576 
L 301.839424 298.706576 
L 301.839424 298.469151 
L 307.484936 298.469151 
L 307.484936 298.231727 
L 312.99668 298.231727 
L 312.99668 298.113015 
L 314.102751 298.113015 
L 314.102751 297.87559 
L 317.254101 297.87559 
L 317.254101 297.638166 
L 320.723577 297.638166 
L 320.723577 297.519454 
L 326.741663 297.519454 
L 326.741663 297.282029 
L 332.215905 297.282029 
L 332.215905 297.163317 
L 334.233755 297.163317 
L 334.233755 297.044605 
L 335.375015 297.044605 
L 335.375015 296.80718 
L 337.094721 296.80718 
L 337.094721 296.688468 
L 340.705878 296.688468 
L 340.705878 296.569756 
L 341.770415 296.569756 
L 341.770415 296.451044 
L 342.777923 296.451044 
L 342.777923 296.332332 
L 344.431186 296.332332 
L 344.431186 296.21362 
L 345.308857 296.21362 
L 345.308857 296.094907 
L 351.306907 296.094907 
L 351.306907 295.976195 
L 353.089872 295.976195 
L 353.089872 295.857483 
L 353.516809 295.857483 
L 353.516809 295.738771 
L 355.110279 295.738771 
L 355.110279 295.620059 
L 356.579249 295.620059 
L 356.579249 295.501346 
L 360.8064 295.501346 
" style="fill:none;stroke:#000000;stroke-linecap:square;stroke-width:1.5;"/>
   </g>
   <g id="line2d_46">
    <defs>
     <path d="M 0 6 
C 1.591219 6 3.117479 5.367802 4.242641 4.242641 
C 5.367802 3.117479 6 1.591219 6 0 
C 6 -1.591219 5.367802 -3.117479 4.242641 -4.242641 
C 3.117479 -5.367802 1.591219 -6 0 -6 
C -1.591219 -6 -3.117479 -5.367802 -4.242641 -4.242641 
C -5.367802 -3.117479 -6 -1.591219 -6 0 
C -6 1.591219 -5.367802 3.117479 -4.242641 4.242641 
C -3.117479 5.367802 -1.591219 6 0 6 
z
" id="m786dd3aa55" style="stroke:#000000;stroke-width:1.5;"/>
    </defs>
    <g>
     <use style="fill-opacity:0;stroke:#000000;stroke-width:1.5;" x="254.515691" xlink:href="#m786dd3aa55" y="298.825288"/>
     <use style="fill-opacity:0;stroke:#000000;stroke-width:1.5;" x="320.723577" xlink:href="#m786dd3aa55" y="297.638166"/>
     <use style="fill-opacity:0;stroke:#000000;stroke-width:1.5;" x="356.579249" xlink:href="#m786dd3aa55" y="295.501346"/>
     <use style="fill-opacity:0;stroke:#000000;stroke-width:1.5;" x="360.8064" xlink:href="#m786dd3aa55" y="295.501346"/>
    </g>
   </g>
   <g id="line2d_47">
    <path style="fill:none;stroke:#000000;stroke-linecap:square;stroke-width:1.5;"/>
    <g/>
   </g>
   <g id="line2d_48">
    <path clip-path="url(#p0f954f18db)" d="M 287.215174 298.706576 
" style="fill:none;stroke:#000000;stroke-linecap:square;stroke-width:1.5;"/>
    <defs>
     <path d="M -12 12 
L 12 -12 
M -12 -12 
L 12 12 
" id="m0c33cf146b" style="stroke:#000000;"/>
    </defs>
    <g clip-path="url(#p0f954f18db)">
     <use style="stroke:#000000;" x="287.215174" xlink:href="#m0c33cf146b" y="298.706576"/>
    </g>
   </g>
   <g id="line2d_49">
    <defs>
     <path d="M 0 1.5 
C 0.397805 1.5 0.77937 1.341951 1.06066 1.06066 
C 1.341951 0.77937 1.5 0.397805 1.5 0 
C 1.5 -0.397805 1.341951 -0.77937 1.06066 -1.06066 
C 0.77937 -1.341951 0.397805 -1.5 0 -1.5 
C -0.397805 -1.5 -0.77937 -1.341951 -1.06066 -1.06066 
C -1.341951 -0.77937 -1.5 -0.397805 -1.5 0 
C -1.5 0.397805 -1.341951 0.77937 -1.06066 1.06066 
C -0.77937 1.341951 -0.397805 1.5 0 1.5 
z
" id="m41c6fd0ceb" style="stroke:#ff0000;"/>
    </defs>
    <g>
     <use style="fill:#ff0000;stroke:#ff0000;" x="359.274428" xlink:href="#m41c6fd0ceb" y="295.382634"/>
     <use style="fill:#ff0000;stroke:#ff0000;" x="359.274428" xlink:href="#m41c6fd0ceb" y="295.382634"/>
    </g>
   </g>
   <g id="line2d_50">
    <path d="M 235.962244 298.944 
L 235.962244 298.825288 
L 241.813285 298.825288 
L 241.813285 298.587863 
L 250.318415 298.587863 
L 250.318415 298.469151 
L 288.41 298.469151 
L 288.41 298.350439 
L 288.827688 298.350439 
L 288.827688 297.994302 
L 289.690957 297.994302 
L 289.690957 297.87559 
L 300.861246 297.87559 
L 300.861246 297.638166 
L 301.077878 297.638166 
L 301.077878 297.400741 
L 308.288543 297.400741 
L 308.288543 297.163317 
L 308.434783 297.163317 
L 308.434783 297.044605 
L 308.743753 297.044605 
L 308.743753 296.80718 
L 313.709794 296.80718 
L 313.709794 296.688468 
L 317.82495 296.688468 
L 317.82495 296.451044 
L 321.199486 296.451044 
L 321.199486 296.332332 
L 321.356876 296.332332 
L 321.356876 296.21362 
L 328.734527 296.21362 
L 328.734527 295.976195 
L 330.69799 295.976195 
L 330.69799 295.738771 
L 340.611094 295.738771 
L 340.611094 295.620059 
L 358.008301 295.620059 
L 358.008301 295.501346 
L 359.274428 295.501346 
L 359.274428 295.382634 
L 360.8064 295.382634 
" style="fill:none;stroke:#ff0000;stroke-linecap:square;stroke-width:1.5;"/>
   </g>
   <g id="line2d_51">
    <defs>
     <path d="M -6 6 
L 6 6 
L 6 -6 
L -6 -6 
z
" id="mba21dca24c" style="stroke:#ff0000;stroke-linejoin:miter;stroke-width:1.5;"/>
    </defs>
    <g>
     <use style="fill-opacity:0;stroke:#ff0000;stroke-linejoin:miter;stroke-width:1.5;" x="308.288543" xlink:href="#mba21dca24c" y="297.400741"/>
     <use style="fill-opacity:0;stroke:#ff0000;stroke-linejoin:miter;stroke-width:1.5;" x="340.611094" xlink:href="#mba21dca24c" y="295.620059"/>
     <use style="fill-opacity:0;stroke:#ff0000;stroke-linejoin:miter;stroke-width:1.5;" x="359.274428" xlink:href="#mba21dca24c" y="295.382634"/>
     <use style="fill-opacity:0;stroke:#ff0000;stroke-linejoin:miter;stroke-width:1.5;" x="360.8064" xlink:href="#mba21dca24c" y="295.382634"/>
    </g>
   </g>
   <g id="line2d_52">
    <path style="fill:none;stroke:#ff0000;stroke-linecap:square;stroke-width:1.5;"/>
    <g/>
   </g>
   <g id="line2d_53">
    <path clip-path="url(#p0f954f18db)" d="M 287.215174 298.469151 
" style="fill:none;stroke:#ff0000;stroke-linecap:square;stroke-width:1.5;"/>
    <defs>
     <path d="M -12 12 
L 12 -12 
M -12 -12 
L 12 12 
" id="m4480298743" style="stroke:#ff0000;"/>
    </defs>
    <g clip-path="url(#p0f954f18db)">
     <use style="fill:#ff0000;stroke:#ff0000;" x="287.215174" xlink:href="#m4480298743" y="298.469151"/>
    </g>
   </g>
   <g id="line2d_54">
    <defs>
     <path d="M 0 1.5 
C 0.397805 1.5 0.77937 1.341951 1.06066 1.06066 
C 1.341951 0.77937 1.5 0.397805 1.5 0 
C 1.5 -0.397805 1.341951 -0.77937 1.06066 -1.06066 
C 0.77937 -1.341951 0.397805 -1.5 0 -1.5 
C -0.397805 -1.5 -0.77937 -1.341951 -1.06066 -1.06066 
C -1.341951 -0.77937 -1.5 -0.397805 -1.5 0 
C -1.5 0.397805 -1.341951 0.77937 -1.06066 1.06066 
C -0.77937 1.341951 -0.397805 1.5 0 1.5 
z
" id="ma424ab80ce" style="stroke:#bf00bf;"/>
    </defs>
    <g>
     <use style="fill:#bf00bf;stroke:#bf00bf;" x="362.268221" xlink:href="#ma424ab80ce" y="295.382634"/>
     <use style="fill:#bf00bf;stroke:#bf00bf;" x="362.268221" xlink:href="#ma424ab80ce" y="295.382634"/>
    </g>
   </g>
   <g id="line2d_55">
    <path d="M 226.844017 298.944 
L 226.844017 298.706576 
L 254.684139 298.706576 
L 254.684139 298.587863 
L 287.959967 298.587863 
L 287.959967 298.350439 
L 290.287367 298.350439 
L 290.287367 298.231727 
L 308.133332 298.231727 
L 308.133332 297.994302 
L 308.962557 297.994302 
L 308.962557 297.87559 
L 317.642536 297.87559 
L 317.642536 297.638166 
L 321.047149 297.638166 
L 321.047149 297.519454 
L 321.469102 297.519454 
L 321.469102 297.400741 
L 323.928986 297.400741 
L 323.928986 297.282029 
L 326.427426 297.282029 
L 326.427426 297.163317 
L 326.745301 297.163317 
L 326.745301 297.044605 
L 328.632606 297.044605 
L 328.632606 296.80718 
L 334.023331 296.80718 
L 334.023331 296.688468 
L 335.524204 296.688468 
L 335.524204 296.569756 
L 338.208383 296.569756 
L 338.208383 296.332332 
L 340.556953 296.332332 
L 340.556953 296.21362 
L 341.629714 296.21362 
L 341.629714 296.094907 
L 342.644586 296.094907 
L 342.644586 295.976195 
L 345.513568 295.976195 
L 345.513568 295.857483 
L 353.573822 295.857483 
L 353.573822 295.738771 
L 354.118485 295.738771 
L 354.118485 295.620059 
L 354.719203 295.620059 
L 354.719203 295.501346 
L 360.8064 295.501346 
" style="fill:none;stroke:#bf00bf;stroke-linecap:square;stroke-width:1.5;"/>
   </g>
   <g id="line2d_56">
    <defs>
     <path d="M -0 8.485281 
L 8.485281 0 
L 0 -8.485281 
L -8.485281 -0 
z
" id="m6044477c85" style="stroke:#bf00bf;stroke-linejoin:miter;stroke-width:1.5;"/>
    </defs>
    <g>
     <use style="fill-opacity:0;stroke:#bf00bf;stroke-linejoin:miter;stroke-width:1.5;" x="254.684139" xlink:href="#m6044477c85" y="298.587863"/>
     <use style="fill-opacity:0;stroke:#bf00bf;stroke-linejoin:miter;stroke-width:1.5;" x="335.524204" xlink:href="#m6044477c85" y="296.688468"/>
     <use style="fill-opacity:0;stroke:#bf00bf;stroke-linejoin:miter;stroke-width:1.5;" x="354.719203" xlink:href="#m6044477c85" y="295.501346"/>
     <use style="fill-opacity:0;stroke:#bf00bf;stroke-linejoin:miter;stroke-width:1.5;" x="360.8064" xlink:href="#m6044477c85" y="295.501346"/>
    </g>
   </g>
   <g id="line2d_57">
    <path style="fill:none;stroke:#bf00bf;stroke-linecap:square;stroke-width:1.5;"/>
    <g/>
   </g>
   <g id="line2d_58">
    <path clip-path="url(#p0f954f18db)" d="M 287.215174 298.587863 
" style="fill:none;stroke:#bf00bf;stroke-linecap:square;stroke-width:1.5;"/>
    <defs>
     <path d="M -12 12 
L 12 -12 
M -12 -12 
L 12 12 
" id="mfea8e08d35" style="stroke:#bf00bf;"/>
    </defs>
    <g clip-path="url(#p0f954f18db)">
     <use style="fill:#bf00bf;stroke:#bf00bf;" x="287.215174" xlink:href="#mfea8e08d35" y="298.587863"/>
    </g>
   </g>
   <g id="line2d_59">
    <path d="M 360.8064 295.501346 
L 380.514816 293.10336 
" style="fill:none;stroke:#000000;stroke-linecap:square;stroke-width:1.5;"/>
    <g>
     <use style="fill-opacity:0;stroke:#000000;stroke-width:1.5;" x="360.8064" xlink:href="#m786dd3aa55" y="295.501346"/>
     <use style="fill-opacity:0;stroke:#000000;stroke-width:1.5;" x="380.514816" xlink:href="#m786dd3aa55" y="293.10336"/>
    </g>
   </g>
   <g id="line2d_60">
    <path d="M 360.8064 295.501346 
L 380.514816 237.033216 
" style="fill:none;stroke:#bf00bf;stroke-linecap:square;stroke-width:1.5;"/>
    <g>
     <use style="fill-opacity:0;stroke:#bf00bf;stroke-linejoin:miter;stroke-width:1.5;" x="360.8064" xlink:href="#m6044477c85" y="295.501346"/>
     <use style="fill-opacity:0;stroke:#bf00bf;stroke-linejoin:miter;stroke-width:1.5;" x="380.514816" xlink:href="#m6044477c85" y="237.033216"/>
    </g>
   </g>
   <g id="line2d_61">
    <path d="M 360.8064 295.382634 
L 380.514816 180.963072 
" style="fill:none;stroke:#ff0000;stroke-linecap:square;stroke-width:1.5;"/>
    <g>
     <use style="fill-opacity:0;stroke:#ff0000;stroke-linejoin:miter;stroke-width:1.5;" x="360.8064" xlink:href="#mba21dca24c" y="295.382634"/>
     <use style="fill-opacity:0;stroke:#ff0000;stroke-linejoin:miter;stroke-width:1.5;" x="380.514816" xlink:href="#mba21dca24c" y="180.963072"/>
    </g>
   </g>
   <g id="line2d_62">
    <path d="M 360.8064 288.259902 
L 380.514816 124.892928 
" style="fill:none;stroke:#0000ff;stroke-linecap:square;stroke-width:1.5;"/>
    <g>
     <use style="fill-opacity:0;stroke:#0000ff;stroke-linejoin:bevel;stroke-width:1.5;" x="360.8064" xlink:href="#ma9b1a11bfa" y="288.259902"/>
     <use style="fill-opacity:0;stroke:#0000ff;stroke-linejoin:bevel;stroke-width:1.5;" x="380.514816" xlink:href="#ma9b1a11bfa" y="124.892928"/>
    </g>
   </g>
   <g id="line2d_63">
    <path d="M 360.8064 260.0064 
L 380.514816 68.822784 
" style="fill:none;stroke:#008000;stroke-linecap:square;stroke-width:1.5;"/>
    <g>
     <use style="fill-opacity:0;stroke:#008000;stroke-linejoin:miter;stroke-width:1.5;" x="360.8064" xlink:href="#ma7e6b637ad" y="260.0064"/>
     <use style="fill-opacity:0;stroke:#008000;stroke-linejoin:miter;stroke-width:1.5;" x="380.514816" xlink:href="#ma7e6b637ad" y="68.822784"/>
    </g>
   </g>
   <g id="line2d_64">
    <path d="M 360.8064 224.155317 
L 380.514816 12.75264 
" style="fill:none;stroke:#00bfbf;stroke-linecap:square;stroke-width:1.5;"/>
    <g>
     <use style="fill-opacity:0;stroke:#00bfbf;stroke-width:1.5;" x="360.8064" xlink:href="#m87bdd337e4" y="224.155317"/>
     <use style="fill-opacity:0;stroke:#00bfbf;stroke-width:1.5;" x="380.514816" xlink:href="#m87bdd337e4" y="12.75264"/>
    </g>
   </g>
   <g id="line2d_65">
    <path d="M 360.8064 298.944 
L 360.8064 6.912 
" style="fill:none;stroke:#000000;stroke-linecap:square;stroke-width:1.5;"/>
   </g>
   <g id="patch_3">
    <path d="M 57.6 298.944 
L 360.8064 298.944 
" style="fill:none;stroke:#000000;stroke-linecap:square;stroke-linejoin:miter;stroke-width:0.8;"/>
   </g>
   <g id="patch_4">
    <path d="M 57.6 6.912 
L 360.8064 6.912 
" style="fill:none;stroke:#000000;stroke-linecap:square;stroke-linejoin:miter;stroke-width:0.8;"/>
   </g>
   <g id="text_13">
    <!-- 10-D -->
    <g transform="translate(386.578944 296.966485)scale(0.14 -0.14)">
     <defs>
      <path d="M 4.890625 31.390625 
L 31.203125 31.390625 
L 31.203125 23.390625 
L 4.890625 23.390625 
z
" id="DejaVuSans-45"/>
      <path d="M 19.671875 64.796875 
L 19.671875 8.109375 
L 31.59375 8.109375 
Q 46.6875 8.109375 53.6875 14.9375 
Q 60.6875 21.78125 60.6875 36.53125 
Q 60.6875 51.171875 53.6875 57.984375 
Q 46.6875 64.796875 31.59375 64.796875 
z
M 9.8125 72.90625 
L 30.078125 72.90625 
Q 51.265625 72.90625 61.171875 64.09375 
Q 71.09375 55.28125 71.09375 36.53125 
Q 71.09375 17.671875 61.125 8.828125 
Q 51.171875 0 30.078125 0 
L 9.8125 0 
z
" id="DejaVuSans-68"/>
     </defs>
     <use xlink:href="#DejaVuSans-49"/>
     <use x="63.623047" xlink:href="#DejaVuSans-48"/>
     <use x="127.246094" xlink:href="#DejaVuSans-45"/>
     <use x="163.330078" xlink:href="#DejaVuSans-68"/>
    </g>
   </g>
   <g id="text_14">
    <!-- 40-D -->
    <g transform="translate(386.578944 240.896341)scale(0.14 -0.14)">
     <use xlink:href="#DejaVuSans-52"/>
     <use x="63.623047" xlink:href="#DejaVuSans-48"/>
     <use x="127.246094" xlink:href="#DejaVuSans-45"/>
     <use x="163.330078" xlink:href="#DejaVuSans-68"/>
    </g>
   </g>
   <g id="text_15">
    <!-- 20-D -->
    <g transform="translate(386.578944 184.826197)scale(0.14 -0.14)">
     <use xlink:href="#DejaVuSans-50"/>
     <use x="63.623047" xlink:href="#DejaVuSans-48"/>
     <use x="127.246094" xlink:href="#DejaVuSans-45"/>
     <use x="163.330078" xlink:href="#DejaVuSans-68"/>
    </g>
   </g>
   <g id="text_16">
    <!-- 5-D -->
    <g transform="translate(386.578944 128.756053)scale(0.14 -0.14)">
     <defs>
      <path d="M 10.796875 72.90625 
L 49.515625 72.90625 
L 49.515625 64.59375 
L 19.828125 64.59375 
L 19.828125 46.734375 
Q 21.96875 47.46875 24.109375 47.828125 
Q 26.265625 48.1875 28.421875 48.1875 
Q 40.625 48.1875 47.75 41.5 
Q 54.890625 34.8125 54.890625 23.390625 
Q 54.890625 11.625 47.5625 5.09375 
Q 40.234375 -1.421875 26.90625 -1.421875 
Q 22.3125 -1.421875 17.546875 -0.640625 
Q 12.796875 0.140625 7.71875 1.703125 
L 7.71875 11.625 
Q 12.109375 9.234375 16.796875 8.0625 
Q 21.484375 6.890625 26.703125 6.890625 
Q 35.15625 6.890625 40.078125 11.328125 
Q 45.015625 15.765625 45.015625 23.390625 
Q 45.015625 31 40.078125 35.4375 
Q 35.15625 39.890625 26.703125 39.890625 
Q 22.75 39.890625 18.8125 39.015625 
Q 14.890625 38.140625 10.796875 36.28125 
z
" id="DejaVuSans-53"/>
     </defs>
     <use xlink:href="#DejaVuSans-53"/>
     <use x="63.623047" xlink:href="#DejaVuSans-45"/>
     <use x="99.707031" xlink:href="#DejaVuSans-68"/>
    </g>
   </g>
   <g id="text_17">
    <!-- 3-D -->
    <g transform="translate(386.578944 72.685909)scale(0.14 -0.14)">
     <defs>
      <path d="M 40.578125 39.3125 
Q 47.65625 37.796875 51.625 33 
Q 55.609375 28.21875 55.609375 21.1875 
Q 55.609375 10.40625 48.1875 4.484375 
Q 40.765625 -1.421875 27.09375 -1.421875 
Q 22.515625 -1.421875 17.65625 -0.515625 
Q 12.796875 0.390625 7.625 2.203125 
L 7.625 11.71875 
Q 11.71875 9.328125 16.59375 8.109375 
Q 21.484375 6.890625 26.8125 6.890625 
Q 36.078125 6.890625 40.9375 10.546875 
Q 45.796875 14.203125 45.796875 21.1875 
Q 45.796875 27.640625 41.28125 31.265625 
Q 36.765625 34.90625 28.71875 34.90625 
L 20.21875 34.90625 
L 20.21875 43.015625 
L 29.109375 43.015625 
Q 36.375 43.015625 40.234375 45.921875 
Q 44.09375 48.828125 44.09375 54.296875 
Q 44.09375 59.90625 40.109375 62.90625 
Q 36.140625 65.921875 28.71875 65.921875 
Q 24.65625 65.921875 20.015625 65.03125 
Q 15.375 64.15625 9.8125 62.3125 
L 9.8125 71.09375 
Q 15.4375 72.65625 20.34375 73.4375 
Q 25.25 74.21875 29.59375 74.21875 
Q 40.828125 74.21875 47.359375 69.109375 
Q 53.90625 64.015625 53.90625 55.328125 
Q 53.90625 49.265625 50.4375 45.09375 
Q 46.96875 40.921875 40.578125 39.3125 
z
" id="DejaVuSans-51"/>
     </defs>
     <use xlink:href="#DejaVuSans-51"/>
     <use x="63.623047" xlink:href="#DejaVuSans-45"/>
     <use x="99.707031" xlink:href="#DejaVuSans-68"/>
    </g>
   </g>
   <g id="text_18">
    <!-- 2-D -->
    <g transform="translate(386.578944 16.615765)scale(0.14 -0.14)">
     <use xlink:href="#DejaVuSans-50"/>
     <use x="63.623047" xlink:href="#DejaVuSans-45"/>
     <use x="99.707031" xlink:href="#DejaVuSans-68"/>
    </g>
   </g>
   <g id="text_19">
    <!-- bbob-constrained f21, f27, f33, f39 -->
    <g transform="translate(60.632064 17.582726)scale(0.102 -0.102)">
     <defs>
      <path d="M 48.6875 27.296875 
Q 48.6875 37.203125 44.609375 42.84375 
Q 40.53125 48.484375 33.40625 48.484375 
Q 26.265625 48.484375 22.1875 42.84375 
Q 18.109375 37.203125 18.109375 27.296875 
Q 18.109375 17.390625 22.1875 11.75 
Q 26.265625 6.109375 33.40625 6.109375 
Q 40.53125 6.109375 44.609375 11.75 
Q 48.6875 17.390625 48.6875 27.296875 
z
M 18.109375 46.390625 
Q 20.953125 51.265625 25.265625 53.625 
Q 29.59375 56 35.59375 56 
Q 45.5625 56 51.78125 48.09375 
Q 58.015625 40.1875 58.015625 27.296875 
Q 58.015625 14.40625 51.78125 6.484375 
Q 45.5625 -1.421875 35.59375 -1.421875 
Q 29.59375 -1.421875 25.265625 0.953125 
Q 20.953125 3.328125 18.109375 8.203125 
L 18.109375 0 
L 9.078125 0 
L 9.078125 75.984375 
L 18.109375 75.984375 
z
" id="DejaVuSans-98"/>
      <path d="M 8.203125 72.90625 
L 55.078125 72.90625 
L 55.078125 68.703125 
L 28.609375 0 
L 18.3125 0 
L 43.21875 64.59375 
L 8.203125 64.59375 
z
" id="DejaVuSans-55"/>
      <path d="M 10.984375 1.515625 
L 10.984375 10.5 
Q 14.703125 8.734375 18.5 7.8125 
Q 22.3125 6.890625 25.984375 6.890625 
Q 35.75 6.890625 40.890625 13.453125 
Q 46.046875 20.015625 46.78125 33.40625 
Q 43.953125 29.203125 39.59375 26.953125 
Q 35.25 24.703125 29.984375 24.703125 
Q 19.046875 24.703125 12.671875 31.3125 
Q 6.296875 37.9375 6.296875 49.421875 
Q 6.296875 60.640625 12.9375 67.421875 
Q 19.578125 74.21875 30.609375 74.21875 
Q 43.265625 74.21875 49.921875 64.515625 
Q 56.59375 54.828125 56.59375 36.375 
Q 56.59375 19.140625 48.40625 8.859375 
Q 40.234375 -1.421875 26.421875 -1.421875 
Q 22.703125 -1.421875 18.890625 -0.6875 
Q 15.09375 0.046875 10.984375 1.515625 
z
M 30.609375 32.421875 
Q 37.25 32.421875 41.125 36.953125 
Q 45.015625 41.5 45.015625 49.421875 
Q 45.015625 57.28125 41.125 61.84375 
Q 37.25 66.40625 30.609375 66.40625 
Q 23.96875 66.40625 20.09375 61.84375 
Q 16.21875 57.28125 16.21875 49.421875 
Q 16.21875 41.5 20.09375 36.953125 
Q 23.96875 32.421875 30.609375 32.421875 
z
" id="DejaVuSans-57"/>
     </defs>
     <use xlink:href="#DejaVuSans-98"/>
     <use x="63.476562" xlink:href="#DejaVuSans-98"/>
     <use x="126.953125" xlink:href="#DejaVuSans-111"/>
     <use x="188.134766" xlink:href="#DejaVuSans-98"/>
     <use x="251.611328" xlink:href="#DejaVuSans-45"/>
     <use x="287.695312" xlink:href="#DejaVuSans-99"/>
     <use x="342.675781" xlink:href="#DejaVuSans-111"/>
     <use x="403.857422" xlink:href="#DejaVuSans-110"/>
     <use x="467.236328" xlink:href="#DejaVuSans-115"/>
     <use x="519.335938" xlink:href="#DejaVuSans-116"/>
     <use x="558.544922" xlink:href="#DejaVuSans-114"/>
     <use x="599.658203" xlink:href="#DejaVuSans-97"/>
     <use x="660.9375" xlink:href="#DejaVuSans-105"/>
     <use x="688.720703" xlink:href="#DejaVuSans-110"/>
     <use x="752.099609" xlink:href="#DejaVuSans-101"/>
     <use x="813.623047" xlink:href="#DejaVuSans-100"/>
     <use x="877.099609" xlink:href="#DejaVuSans-32"/>
     <use x="908.886719" xlink:href="#DejaVuSans-102"/>
     <use x="944.091797" xlink:href="#DejaVuSans-50"/>
     <use x="1007.714844" xlink:href="#DejaVuSans-49"/>
     <use x="1071.337891" xlink:href="#DejaVuSans-44"/>
     <use x="1103.125" xlink:href="#DejaVuSans-32"/>
     <use x="1134.912109" xlink:href="#DejaVuSans-102"/>
     <use x="1170.117188" xlink:href="#DejaVuSans-50"/>
     <use x="1233.740234" xlink:href="#DejaVuSans-55"/>
     <use x="1297.363281" xlink:href="#DejaVuSans-44"/>
     <use x="1329.150391" xlink:href="#DejaVuSans-32"/>
     <use x="1360.9375" xlink:href="#DejaVuSans-102"/>
     <use x="1396.142578" xlink:href="#DejaVuSans-51"/>
     <use x="1459.765625" xlink:href="#DejaVuSans-51"/>
     <use x="1523.388672" xlink:href="#DejaVuSans-44"/>
     <use x="1555.175781" xlink:href="#DejaVuSans-32"/>
     <use x="1586.962891" xlink:href="#DejaVuSans-102"/>
     <use x="1622.167969" xlink:href="#DejaVuSans-51"/>
     <use x="1685.791016" xlink:href="#DejaVuSans-57"/>
    </g>
    <!-- 41 targets: 100..1e-06 -->
    <g transform="translate(60.632064 29.004495)scale(0.102 -0.102)">
     <defs>
      <path d="M 11.71875 12.40625 
L 22.015625 12.40625 
L 22.015625 0 
L 11.71875 0 
z
M 11.71875 51.703125 
L 22.015625 51.703125 
L 22.015625 39.3125 
L 11.71875 39.3125 
z
" id="DejaVuSans-58"/>
     </defs>
     <use xlink:href="#DejaVuSans-52"/>
     <use x="63.623047" xlink:href="#DejaVuSans-49"/>
     <use x="127.246094" xlink:href="#DejaVuSans-32"/>
     <use x="159.033203" xlink:href="#DejaVuSans-116"/>
     <use x="198.242188" xlink:href="#DejaVuSans-97"/>
     <use x="259.521484" xlink:href="#DejaVuSans-114"/>
     <use x="298.884766" xlink:href="#DejaVuSans-103"/>
     <use x="362.361328" xlink:href="#DejaVuSans-101"/>
     <use x="423.884766" xlink:href="#DejaVuSans-116"/>
     <use x="463.09375" xlink:href="#DejaVuSans-115"/>
     <use x="515.193359" xlink:href="#DejaVuSans-58"/>
     <use x="548.884766" xlink:href="#DejaVuSans-32"/>
     <use x="580.671875" xlink:href="#DejaVuSans-49"/>
     <use x="644.294922" xlink:href="#DejaVuSans-48"/>
     <use x="707.917969" xlink:href="#DejaVuSans-48"/>
     <use x="771.541016" xlink:href="#DejaVuSans-46"/>
     <use x="803.328125" xlink:href="#DejaVuSans-46"/>
     <use x="835.115234" xlink:href="#DejaVuSans-49"/>
     <use x="898.738281" xlink:href="#DejaVuSans-101"/>
     <use x="960.261719" xlink:href="#DejaVuSans-45"/>
     <use x="996.345703" xlink:href="#DejaVuSans-48"/>
     <use x="1059.96875" xlink:href="#DejaVuSans-54"/>
    </g>
    <!-- evals = f-evals + g-evals -->
    <g transform="translate(60.632064 40.426264)scale(0.102 -0.102)">
     <defs>
      <path d="M 10.59375 45.40625 
L 73.1875 45.40625 
L 73.1875 37.203125 
L 10.59375 37.203125 
z
M 10.59375 25.484375 
L 73.1875 25.484375 
L 73.1875 17.1875 
L 10.59375 17.1875 
z
" id="DejaVuSans-61"/>
      <path d="M 46 62.703125 
L 46 35.5 
L 73.1875 35.5 
L 73.1875 27.203125 
L 46 27.203125 
L 46 0 
L 37.796875 0 
L 37.796875 27.203125 
L 10.59375 27.203125 
L 10.59375 35.5 
L 37.796875 35.5 
L 37.796875 62.703125 
z
" id="DejaVuSans-43"/>
     </defs>
     <use xlink:href="#DejaVuSans-101"/>
     <use x="61.523438" xlink:href="#DejaVuSans-118"/>
     <use x="120.703125" xlink:href="#DejaVuSans-97"/>
     <use x="181.982422" xlink:href="#DejaVuSans-108"/>
     <use x="209.765625" xlink:href="#DejaVuSans-115"/>
     <use x="261.865234" xlink:href="#DejaVuSans-32"/>
     <use x="293.652344" xlink:href="#DejaVuSans-61"/>
     <use x="377.441406" xlink:href="#DejaVuSans-32"/>
     <use x="409.228516" xlink:href="#DejaVuSans-102"/>
     <use x="438.933594" xlink:href="#DejaVuSans-45"/>
     <use x="475.017578" xlink:href="#DejaVuSans-101"/>
     <use x="536.541016" xlink:href="#DejaVuSans-118"/>
     <use x="595.720703" xlink:href="#DejaVuSans-97"/>
     <use x="657" xlink:href="#DejaVuSans-108"/>
     <use x="684.783203" xlink:href="#DejaVuSans-115"/>
     <use x="736.882812" xlink:href="#DejaVuSans-32"/>
     <use x="768.669922" xlink:href="#DejaVuSans-43"/>
     <use x="852.458984" xlink:href="#DejaVuSans-32"/>
     <use x="884.246094" xlink:href="#DejaVuSans-103"/>
     <use x="947.722656" xlink:href="#DejaVuSans-45"/>
     <use x="983.806641" xlink:href="#DejaVuSans-101"/>
     <use x="1045.330078" xlink:href="#DejaVuSans-118"/>
     <use x="1104.509766" xlink:href="#DejaVuSans-97"/>
     <use x="1165.789062" xlink:href="#DejaVuSans-108"/>
     <use x="1193.572266" xlink:href="#DejaVuSans-115"/>
    </g>
    <!-- 15 instances -->
    <g transform="translate(60.632064 51.848032)scale(0.102 -0.102)">
     <use xlink:href="#DejaVuSans-49"/>
     <use x="63.623047" xlink:href="#DejaVuSans-53"/>
     <use x="127.246094" xlink:href="#DejaVuSans-32"/>
     <use x="159.033203" xlink:href="#DejaVuSans-105"/>
     <use x="186.816406" xlink:href="#DejaVuSans-110"/>
     <use x="250.195312" xlink:href="#DejaVuSans-115"/>
     <use x="302.294922" xlink:href="#DejaVuSans-116"/>
     <use x="341.503906" xlink:href="#DejaVuSans-97"/>
     <use x="402.783203" xlink:href="#DejaVuSans-110"/>
     <use x="466.162109" xlink:href="#DejaVuSans-99"/>
     <use x="521.142578" xlink:href="#DejaVuSans-101"/>
     <use x="582.666016" xlink:href="#DejaVuSans-115"/>
    </g>
   </g>
   <g id="text_20">
    <!-- v2.99.1 -->
    <g style="fill:#808080;" transform="translate(190.3407 293.943992)scale(0.1 -0.1)">
     <use xlink:href="#DejaVuSans-118"/>
     <use x="59.179688" xlink:href="#DejaVuSans-50"/>
     <use x="122.802734" xlink:href="#DejaVuSans-46"/>
     <use x="154.589844" xlink:href="#DejaVuSans-57"/>
     <use x="218.212891" xlink:href="#DejaVuSans-57"/>
     <use x="281.835938" xlink:href="#DejaVuSans-46"/>
     <use x="313.623047" xlink:href="#DejaVuSans-49"/>
    </g>
   </g>
  </g>
 </g>
 <defs>
  <clipPath id="p0f954f18db">
   <rect height="292.032" width="303.2064" x="57.6" y="6.912"/>
  </clipPath>
 </defs>
</svg>
