<?xml version="1.0" encoding="utf-8" standalone="no"?>
<!DOCTYPE svg PUBLIC "-//W3C//DTD SVG 1.1//EN"
  "http://www.w3.org/Graphics/SVG/1.1/DTD/svg11.dtd">
<!-- Created with matplotlib (https://matplotlib.org/) -->
<svg height="345.6pt" version="1.1" viewBox="0 0 460.8 345.6" width="460.8pt" xmlns="http://www.w3.org/2000/svg" xmlns:xlink="http://www.w3.org/1999/xlink">
 <metadata>
  <rdf:RDF xmlns:cc="http://creativecommons.org/ns#" xmlns:dc="http://purl.org/dc/elements/1.1/" xmlns:rdf="http://www.w3.org/1999/02/22-rdf-syntax-ns#">
   <cc:Work>
    <dc:type rdf:resource="http://purl.org/dc/dcmitype/StillImage"/>
    <dc:date>2022-01-14T09:43:22.750009</dc:date>
    <dc:format>image/svg+xml</dc:format>
    <dc:creator>
     <cc:Agent>
      <dc:title>Matplotlib v3.3.3, https://matplotlib.org/</dc:title>
     </cc:Agent>
    </dc:creator>
   </cc:Work>
  </rdf:RDF>
 </metadata>
 <defs>
  <style type="text/css">*{stroke-linecap:butt;stroke-linejoin:round;}</style>
 </defs>
 <g id="figure_1">
  <g id="patch_1">
   <path d="M 0 345.6 
L 460.8 345.6 
L 460.8 0 
L 0 0 
z
" style="fill:#ffffff;"/>
  </g>
  <g id="axes_1">
   <g id="patch_2">
    <path d="M 0 293.76 
L 460.8 293.76 
L 460.8 3.456 
L 0 3.456 
z
" style="fill:#ffffff;"/>
   </g>
   <g id="matplotlib.axis_1">
    <g id="xtick_1">
     <g id="line2d_1">
      <path clip-path="url(#p6b5cf9643d)" d="M 104.055243 293.76 
L 104.055243 3.456 
" style="fill:none;stroke:#b0b0b0;stroke-linecap:square;stroke-width:0.8;"/>
     </g>
     <g id="line2d_2">
      <defs>
       <path d="M 0 0 
L 0 3.5 
" id="mc67c32a064" style="stroke:#000000;stroke-width:0.8;"/>
      </defs>
      <g>
       <use style="stroke:#000000;stroke-width:0.8;" x="104.055243" xlink:href="#mc67c32a064" y="293.76"/>
      </g>
     </g>
     <g id="text_1">
      <!-- -5 -->
      <g transform="translate(94.08493 315.956875)scale(0.2 -0.2)">
       <defs>
        <path d="M 4.890625 31.390625 
L 31.203125 31.390625 
L 31.203125 23.390625 
L 4.890625 23.390625 
z
" id="DejaVuSans-45"/>
        <path d="M 10.796875 72.90625 
L 49.515625 72.90625 
L 49.515625 64.59375 
L 19.828125 64.59375 
L 19.828125 46.734375 
Q 21.96875 47.46875 24.109375 47.828125 
Q 26.265625 48.1875 28.421875 48.1875 
Q 40.625 48.1875 47.75 41.5 
Q 54.890625 34.8125 54.890625 23.390625 
Q 54.890625 11.625 47.5625 5.09375 
Q 40.234375 -1.421875 26.90625 -1.421875 
Q 22.3125 -1.421875 17.546875 -0.640625 
Q 12.796875 0.140625 7.71875 1.703125 
L 7.71875 11.625 
Q 12.109375 9.234375 16.796875 8.0625 
Q 21.484375 6.890625 26.703125 6.890625 
Q 35.15625 6.890625 40.078125 11.328125 
Q 45.015625 15.765625 45.015625 23.390625 
Q 45.015625 31 40.078125 35.4375 
Q 35.15625 39.890625 26.703125 39.890625 
Q 22.75 39.890625 18.8125 39.015625 
Q 14.890625 38.140625 10.796875 36.28125 
z
" id="DejaVuSans-53"/>
       </defs>
       <use xlink:href="#DejaVuSans-45"/>
       <use x="36.083984" xlink:href="#DejaVuSans-53"/>
      </g>
     </g>
    </g>
    <g id="xtick_2">
     <g id="line2d_3">
      <path clip-path="url(#p6b5cf9643d)" d="M 208.260589 293.76 
L 208.260589 3.456 
" style="fill:none;stroke:#b0b0b0;stroke-linecap:square;stroke-width:0.8;"/>
     </g>
     <g id="line2d_4">
      <g>
       <use style="stroke:#000000;stroke-width:0.8;" x="208.260589" xlink:href="#mc67c32a064" y="293.76"/>
      </g>
     </g>
     <g id="text_2">
      <!-- -2 -->
      <g transform="translate(198.290276 315.956875)scale(0.2 -0.2)">
       <defs>
        <path d="M 19.1875 8.296875 
L 53.609375 8.296875 
L 53.609375 0 
L 7.328125 0 
L 7.328125 8.296875 
Q 12.9375 14.109375 22.625 23.890625 
Q 32.328125 33.6875 34.8125 36.53125 
Q 39.546875 41.84375 41.421875 45.53125 
Q 43.3125 49.21875 43.3125 52.78125 
Q 43.3125 58.59375 39.234375 62.25 
Q 35.15625 65.921875 28.609375 65.921875 
Q 23.96875 65.921875 18.8125 64.3125 
Q 13.671875 62.703125 7.8125 59.421875 
L 7.8125 69.390625 
Q 13.765625 71.78125 18.9375 73 
Q 24.125 74.21875 28.421875 74.21875 
Q 39.75 74.21875 46.484375 68.546875 
Q 53.21875 62.890625 53.21875 53.421875 
Q 53.21875 48.921875 51.53125 44.890625 
Q 49.859375 40.875 45.40625 35.40625 
Q 44.1875 33.984375 37.640625 27.21875 
Q 31.109375 20.453125 19.1875 8.296875 
z
" id="DejaVuSans-50"/>
       </defs>
       <use xlink:href="#DejaVuSans-45"/>
       <use x="36.083984" xlink:href="#DejaVuSans-50"/>
      </g>
     </g>
    </g>
    <g id="xtick_3">
     <g id="line2d_5">
      <path clip-path="url(#p6b5cf9643d)" d="M 312.465935 293.76 
L 312.465935 3.456 
" style="fill:none;stroke:#b0b0b0;stroke-linecap:square;stroke-width:0.8;"/>
     </g>
     <g id="line2d_6">
      <g>
       <use style="stroke:#000000;stroke-width:0.8;" x="312.465935" xlink:href="#mc67c32a064" y="293.76"/>
      </g>
     </g>
     <g id="text_3">
      <!-- 1 -->
      <g transform="translate(306.103435 315.956875)scale(0.2 -0.2)">
       <defs>
        <path d="M 12.40625 8.296875 
L 28.515625 8.296875 
L 28.515625 63.921875 
L 10.984375 60.40625 
L 10.984375 69.390625 
L 28.421875 72.90625 
L 38.28125 72.90625 
L 38.28125 8.296875 
L 54.390625 8.296875 
L 54.390625 0 
L 12.40625 0 
z
" id="DejaVuSans-49"/>
       </defs>
       <use xlink:href="#DejaVuSans-49"/>
      </g>
     </g>
    </g>
    <g id="xtick_4">
     <g id="line2d_7">
      <path clip-path="url(#p6b5cf9643d)" d="M 416.671281 293.76 
L 416.671281 3.456 
" style="fill:none;stroke:#b0b0b0;stroke-linecap:square;stroke-width:0.8;"/>
     </g>
     <g id="line2d_8">
      <g>
       <use style="stroke:#000000;stroke-width:0.8;" x="416.671281" xlink:href="#mc67c32a064" y="293.76"/>
      </g>
     </g>
     <g id="text_4">
      <!-- 4 -->
      <g transform="translate(410.308781 315.956875)scale(0.2 -0.2)">
       <defs>
        <path d="M 37.796875 64.3125 
L 12.890625 25.390625 
L 37.796875 25.390625 
z
M 35.203125 72.90625 
L 47.609375 72.90625 
L 47.609375 25.390625 
L 58.015625 25.390625 
L 58.015625 17.1875 
L 47.609375 17.1875 
L 47.609375 0 
L 37.796875 0 
L 37.796875 17.1875 
L 4.890625 17.1875 
L 4.890625 26.703125 
z
" id="DejaVuSans-52"/>
       </defs>
       <use xlink:href="#DejaVuSans-52"/>
      </g>
     </g>
    </g>
    <g id="text_5">
     <!-- log10 of Df -->
     <g transform="translate(175.214063 339.313125)scale(0.2 -0.2)">
      <defs>
       <path d="M 9.421875 75.984375 
L 18.40625 75.984375 
L 18.40625 0 
L 9.421875 0 
z
" id="DejaVuSans-108"/>
       <path d="M 30.609375 48.390625 
Q 23.390625 48.390625 19.1875 42.75 
Q 14.984375 37.109375 14.984375 27.296875 
Q 14.984375 17.484375 19.15625 11.84375 
Q 23.34375 6.203125 30.609375 6.203125 
Q 37.796875 6.203125 41.984375 11.859375 
Q 46.1875 17.53125 46.1875 27.296875 
Q 46.1875 37.015625 41.984375 42.703125 
Q 37.796875 48.390625 30.609375 48.390625 
z
M 30.609375 56 
Q 42.328125 56 49.015625 48.375 
Q 55.71875 40.765625 55.71875 27.296875 
Q 55.71875 13.875 49.015625 6.21875 
Q 42.328125 -1.421875 30.609375 -1.421875 
Q 18.84375 -1.421875 12.171875 6.21875 
Q 5.515625 13.875 5.515625 27.296875 
Q 5.515625 40.765625 12.171875 48.375 
Q 18.84375 56 30.609375 56 
z
" id="DejaVuSans-111"/>
       <path d="M 45.40625 27.984375 
Q 45.40625 37.75 41.375 43.109375 
Q 37.359375 48.484375 30.078125 48.484375 
Q 22.859375 48.484375 18.828125 43.109375 
Q 14.796875 37.75 14.796875 27.984375 
Q 14.796875 18.265625 18.828125 12.890625 
Q 22.859375 7.515625 30.078125 7.515625 
Q 37.359375 7.515625 41.375 12.890625 
Q 45.40625 18.265625 45.40625 27.984375 
z
M 54.390625 6.78125 
Q 54.390625 -7.171875 48.1875 -13.984375 
Q 42 -20.796875 29.203125 -20.796875 
Q 24.46875 -20.796875 20.265625 -20.09375 
Q 16.0625 -19.390625 12.109375 -17.921875 
L 12.109375 -9.1875 
Q 16.0625 -11.328125 19.921875 -12.34375 
Q 23.78125 -13.375 27.78125 -13.375 
Q 36.625 -13.375 41.015625 -8.765625 
Q 45.40625 -4.15625 45.40625 5.171875 
L 45.40625 9.625 
Q 42.625 4.78125 38.28125 2.390625 
Q 33.9375 0 27.875 0 
Q 17.828125 0 11.671875 7.65625 
Q 5.515625 15.328125 5.515625 27.984375 
Q 5.515625 40.671875 11.671875 48.328125 
Q 17.828125 56 27.875 56 
Q 33.9375 56 38.28125 53.609375 
Q 42.625 51.21875 45.40625 46.390625 
L 45.40625 54.6875 
L 54.390625 54.6875 
z
" id="DejaVuSans-103"/>
       <path d="M 31.78125 66.40625 
Q 24.171875 66.40625 20.328125 58.90625 
Q 16.5 51.421875 16.5 36.375 
Q 16.5 21.390625 20.328125 13.890625 
Q 24.171875 6.390625 31.78125 6.390625 
Q 39.453125 6.390625 43.28125 13.890625 
Q 47.125 21.390625 47.125 36.375 
Q 47.125 51.421875 43.28125 58.90625 
Q 39.453125 66.40625 31.78125 66.40625 
z
M 31.78125 74.21875 
Q 44.046875 74.21875 50.515625 64.515625 
Q 56.984375 54.828125 56.984375 36.375 
Q 56.984375 17.96875 50.515625 8.265625 
Q 44.046875 -1.421875 31.78125 -1.421875 
Q 19.53125 -1.421875 13.0625 8.265625 
Q 6.59375 17.96875 6.59375 36.375 
Q 6.59375 54.828125 13.0625 64.515625 
Q 19.53125 74.21875 31.78125 74.21875 
z
" id="DejaVuSans-48"/>
       <path id="DejaVuSans-32"/>
       <path d="M 37.109375 75.984375 
L 37.109375 68.5 
L 28.515625 68.5 
Q 23.6875 68.5 21.796875 66.546875 
Q 19.921875 64.59375 19.921875 59.515625 
L 19.921875 54.6875 
L 34.71875 54.6875 
L 34.71875 47.703125 
L 19.921875 47.703125 
L 19.921875 0 
L 10.890625 0 
L 10.890625 47.703125 
L 2.296875 47.703125 
L 2.296875 54.6875 
L 10.890625 54.6875 
L 10.890625 58.5 
Q 10.890625 67.625 15.140625 71.796875 
Q 19.390625 75.984375 28.609375 75.984375 
z
" id="DejaVuSans-102"/>
       <path d="M 19.671875 64.796875 
L 19.671875 8.109375 
L 31.59375 8.109375 
Q 46.6875 8.109375 53.6875 14.9375 
Q 60.6875 21.78125 60.6875 36.53125 
Q 60.6875 51.171875 53.6875 57.984375 
Q 46.6875 64.796875 31.59375 64.796875 
z
M 9.8125 72.90625 
L 30.078125 72.90625 
Q 51.265625 72.90625 61.171875 64.09375 
Q 71.09375 55.28125 71.09375 36.53125 
Q 71.09375 17.671875 61.125 8.828125 
Q 51.171875 0 30.078125 0 
L 9.8125 0 
z
" id="DejaVuSans-68"/>
      </defs>
      <use xlink:href="#DejaVuSans-108"/>
      <use x="27.783203" xlink:href="#DejaVuSans-111"/>
      <use x="88.964844" xlink:href="#DejaVuSans-103"/>
      <use x="152.441406" xlink:href="#DejaVuSans-49"/>
      <use x="216.064453" xlink:href="#DejaVuSans-48"/>
      <use x="279.6875" xlink:href="#DejaVuSans-32"/>
      <use x="311.474609" xlink:href="#DejaVuSans-111"/>
      <use x="372.65625" xlink:href="#DejaVuSans-102"/>
      <use x="407.861328" xlink:href="#DejaVuSans-32"/>
      <use x="439.648438" xlink:href="#DejaVuSans-68"/>
      <use x="516.650391" xlink:href="#DejaVuSans-102"/>
     </g>
    </g>
   </g>
   <g id="matplotlib.axis_2">
    <g id="ytick_1">
     <g id="line2d_9">
      <path clip-path="url(#p6b5cf9643d)" d="M 0 293.76 
L 460.8 293.76 
" style="fill:none;stroke:#b0b0b0;stroke-linecap:square;stroke-width:0.8;"/>
     </g>
     <g id="line2d_10">
      <defs>
       <path d="M 0 0 
L -3.5 0 
" id="m79290328ca" style="stroke:#000000;stroke-width:0.8;"/>
      </defs>
      <g>
       <use style="stroke:#000000;stroke-width:0.8;" x="0" xlink:href="#m79290328ca" y="293.76"/>
      </g>
     </g>
    </g>
    <g id="ytick_2">
     <g id="line2d_11">
      <path clip-path="url(#p6b5cf9643d)" d="M 0 236.274059 
L 460.8 236.274059 
" style="fill:none;stroke:#b0b0b0;stroke-linecap:square;stroke-width:0.8;"/>
     </g>
     <g id="line2d_12">
      <g>
       <use style="stroke:#000000;stroke-width:0.8;" x="0" xlink:href="#m79290328ca" y="236.274059"/>
      </g>
     </g>
    </g>
    <g id="ytick_3">
     <g id="line2d_13">
      <path clip-path="url(#p6b5cf9643d)" d="M 0 178.788119 
L 460.8 178.788119 
" style="fill:none;stroke:#b0b0b0;stroke-linecap:square;stroke-width:0.8;"/>
     </g>
     <g id="line2d_14">
      <g>
       <use style="stroke:#000000;stroke-width:0.8;" x="0" xlink:href="#m79290328ca" y="178.788119"/>
      </g>
     </g>
    </g>
    <g id="ytick_4">
     <g id="line2d_15">
      <path clip-path="url(#p6b5cf9643d)" d="M 0 121.302178 
L 460.8 121.302178 
" style="fill:none;stroke:#b0b0b0;stroke-linecap:square;stroke-width:0.8;"/>
     </g>
     <g id="line2d_16">
      <g>
       <use style="stroke:#000000;stroke-width:0.8;" x="0" xlink:href="#m79290328ca" y="121.302178"/>
      </g>
     </g>
    </g>
    <g id="ytick_5">
     <g id="line2d_17">
      <path clip-path="url(#p6b5cf9643d)" d="M 0 63.816238 
L 460.8 63.816238 
" style="fill:none;stroke:#b0b0b0;stroke-linecap:square;stroke-width:0.8;"/>
     </g>
     <g id="line2d_18">
      <g>
       <use style="stroke:#000000;stroke-width:0.8;" x="0" xlink:href="#m79290328ca" y="63.816238"/>
      </g>
     </g>
    </g>
    <g id="ytick_6">
     <g id="line2d_19">
      <path clip-path="url(#p6b5cf9643d)" d="M 0 6.330297 
L 460.8 6.330297 
" style="fill:none;stroke:#b0b0b0;stroke-linecap:square;stroke-width:0.8;"/>
     </g>
     <g id="line2d_20">
      <g>
       <use style="stroke:#000000;stroke-width:0.8;" x="0" xlink:href="#m79290328ca" y="6.330297"/>
      </g>
     </g>
    </g>
   </g>
   <g id="line2d_21">
    <path clip-path="url(#p6b5cf9643d)" d="M -1 140.464158 
L 1.036609 140.464158 
L 1.036609 134.076832 
L 1.08662 134.076832 
L 1.08662 127.689505 
L 1.412351 127.689505 
L 1.412351 121.302178 
L 4.281826 121.302178 
L 4.281826 114.914851 
L 10.788737 114.914851 
L 10.788737 108.527525 
L 12.661412 108.527525 
L 12.661412 102.140198 
L 13.921376 102.140198 
L 13.921376 95.752871 
L 17.025919 95.752871 
L 17.025919 89.365545 
L 25.284579 89.365545 
L 25.284579 82.978218 
L 40.878548 82.978218 
L 40.878548 76.590891 
L 43.242598 76.590891 
L 43.242598 70.203564 
L 43.6276 70.203564 
L 43.6276 63.816238 
L 58.205065 63.816238 
L 58.205065 57.428911 
L 61.928503 57.428911 
L 61.928503 51.041584 
L 67.364123 51.041584 
L 67.364123 44.654257 
L 73.241815 44.654257 
L 73.241815 38.266931 
L 74.406388 38.266931 
L 74.406388 31.879604 
L 86.795421 31.879604 
L 86.795421 25.492277 
L 96.745706 25.492277 
L 96.745706 19.10495 
L 105.631167 19.10495 
L 105.631167 12.717624 
L 111.069241 12.717624 
L 111.069241 6.330297 
L 111.069241 6.330297 
L 111.069241 6.330297 
L 460.8 6.330297 
" style="fill:none;stroke:#ff0000;stroke-linecap:square;stroke-width:3;"/>
   </g>
   <g id="line2d_22">
    <path clip-path="url(#p6b5cf9643d)" d="M 370.171079 293.76 
L 370.171079 287.372673 
L 370.988212 287.372673 
L 370.988212 280.985347 
L 376.047736 280.985347 
L 376.047736 274.59802 
L 376.212869 274.59802 
L 376.212869 268.210693 
L 376.261406 268.210693 
L 376.261406 261.823366 
L 377.250917 261.823366 
L 377.250917 255.43604 
L 377.276004 255.43604 
L 377.276004 249.048713 
L 377.965601 249.048713 
L 377.965601 242.661386 
L 378.372033 242.661386 
L 378.372033 236.274059 
L 379.587168 236.274059 
L 379.587168 229.886733 
L 380.904693 229.886733 
L 380.904693 223.499406 
L 381.039683 223.499406 
L 381.039683 217.112079 
L 381.045679 217.112079 
L 381.045679 210.724752 
L 381.146969 210.724752 
L 381.146969 204.337426 
L 383.662563 204.337426 
L 383.662563 197.950099 
L 383.69589 197.950099 
L 383.69589 191.562772 
L 383.776271 191.562772 
L 383.776271 185.175446 
L 384.112486 185.175446 
L 384.112486 178.788119 
L 384.893299 178.788119 
L 384.893299 172.400792 
L 384.921535 172.400792 
L 384.921535 166.013465 
L 385.431572 166.013465 
L 385.431572 159.626139 
L 385.540031 159.626139 
L 385.540031 153.238812 
L 386.932845 153.238812 
L 386.932845 146.851485 
L 387.291228 146.851485 
L 387.291228 140.464158 
L 388.066813 140.464158 
L 388.066813 134.076832 
L 388.148276 134.076832 
L 388.148276 127.689505 
L 389.142708 127.689505 
L 389.142708 121.302178 
L 389.795691 121.302178 
L 389.795691 114.914851 
L 390.356998 114.914851 
L 390.356998 108.527525 
L 390.836347 108.527525 
L 390.836347 102.140198 
L 390.925981 102.140198 
L 390.925981 95.752871 
L 391.567081 95.752871 
L 391.567081 89.365545 
L 395.990522 89.365545 
L 395.990522 82.978218 
L 396.965211 82.978218 
L 396.965211 76.590891 
L 397.352506 76.590891 
L 397.352506 70.203564 
L 398.382042 70.203564 
L 398.382042 63.816238 
L 400.046884 63.816238 
L 400.046884 57.428911 
L 400.552596 57.428911 
L 400.552596 51.041584 
L 402.37806 51.041584 
L 402.37806 44.654257 
L 405.835292 44.654257 
L 405.835292 38.266931 
L 406.904277 38.266931 
L 406.904277 31.879604 
L 414.073679 31.879604 
L 414.073679 25.492277 
L 414.230579 25.492277 
L 414.230579 19.10495 
L 414.440886 19.10495 
L 414.440886 12.717624 
L 415.09618 12.717624 
L 415.09618 6.330297 
L 415.09618 6.330297 
L 415.09618 6.330297 
L 460.8 6.330297 
" style="fill:none;stroke:#00bfbf;stroke-linecap:square;stroke-width:1.5;"/>
   </g>
   <g id="line2d_23">
    <path clip-path="url(#p6b5cf9643d)" d="M 146.156263 293.76 
L 146.156263 287.372673 
L 147.2756 287.372673 
L 147.2756 280.985347 
L 149.008929 280.985347 
L 149.008929 274.59802 
L 155.634061 274.59802 
L 155.634061 268.210693 
L 156.330269 268.210693 
L 156.330269 261.823366 
L 156.62188 261.823366 
L 156.62188 255.43604 
L 164.77267 255.43604 
L 164.77267 249.048713 
L 168.50723 249.048713 
L 168.50723 242.661386 
L 169.345871 242.661386 
L 169.345871 236.274059 
L 172.004275 236.274059 
L 172.004275 229.886733 
L 172.321431 229.886733 
L 172.321431 223.499406 
L 172.612652 223.499406 
L 172.612652 217.112079 
L 174.927475 217.112079 
L 174.927475 210.724752 
L 176.96629 210.724752 
L 176.96629 204.337426 
L 177.83662 204.337426 
L 177.83662 197.950099 
L 179.781177 197.950099 
L 179.781177 191.562772 
L 181.253735 191.562772 
L 181.253735 185.175446 
L 181.341268 185.175446 
L 181.341268 178.788119 
L 182.689349 178.788119 
L 182.689349 172.400792 
L 186.009094 172.400792 
L 186.009094 166.013465 
L 186.055679 166.013465 
L 186.055679 159.626139 
L 186.779973 159.626139 
L 186.779973 153.238812 
L 188.687666 153.238812 
L 188.687666 146.851485 
L 189.636887 146.851485 
L 189.636887 140.464158 
L 190.116156 140.464158 
L 190.116156 134.076832 
L 194.952923 134.076832 
L 194.952923 127.689505 
L 196.092215 127.689505 
L 196.092215 121.302178 
L 211.90351 121.302178 
L 211.90351 114.914851 
L 211.983329 114.914851 
L 211.983329 108.527525 
L 215.885523 108.527525 
L 215.885523 102.140198 
L 383.776271 102.140198 
L 383.776271 95.752871 
L 385.431572 95.752871 
L 385.431572 89.365545 
L 387.157614 89.365545 
L 387.157614 82.978218 
L 391.567081 82.978218 
L 391.567081 76.590891 
L 395.990522 76.590891 
L 395.990522 70.203564 
L 396.965211 70.203564 
L 396.965211 63.816238 
L 398.382042 63.816238 
L 398.382042 57.428911 
L 400.552596 57.428911 
L 400.552596 51.041584 
L 402.37806 51.041584 
L 402.37806 44.654257 
L 405.835292 44.654257 
L 405.835292 38.266931 
L 406.904277 38.266931 
L 406.904277 31.879604 
L 411.545206 31.879604 
L 411.545206 25.492277 
L 412.773862 25.492277 
L 412.773862 19.10495 
L 413.191157 19.10495 
L 413.191157 12.717624 
L 414.073679 12.717624 
L 414.073679 6.330297 
L 414.073679 6.330297 
L 414.073679 6.330297 
L 460.8 6.330297 
" style="fill:none;stroke:#bf00bf;stroke-linecap:square;stroke-width:1.5;"/>
   </g>
   <g id="line2d_24">
    <path clip-path="url(#p6b5cf9643d)" d="M -1 242.661386 
L 6.573369 242.661386 
L 6.573369 236.274059 
L 7.249446 236.274059 
L 7.249446 229.886733 
L 16.533324 229.886733 
L 16.533324 223.499406 
L 24.721647 223.499406 
L 24.721647 217.112079 
L 27.87477 217.112079 
L 27.87477 210.724752 
L 34.837583 210.724752 
L 34.837583 204.337426 
L 41.775193 204.337426 
L 41.775193 197.950099 
L 48.135865 197.950099 
L 48.135865 191.562772 
L 80.84546 191.562772 
L 80.84546 185.175446 
L 97.036937 185.175446 
L 97.036937 178.788119 
L 109.237845 178.788119 
L 109.237845 172.400792 
L 134.698312 172.400792 
L 134.698312 166.013465 
L 137.365117 166.013465 
L 137.365117 159.626139 
L 137.553459 159.626139 
L 137.553459 153.238812 
L 153.385528 153.238812 
L 153.385528 146.851485 
L 162.91485 146.851485 
L 162.91485 140.464158 
L 163.37043 140.464158 
L 163.37043 134.076832 
L 165.662415 134.076832 
L 165.662415 127.689505 
L 171.450131 127.689505 
L 171.450131 121.302178 
L 173.345586 121.302178 
L 173.345586 114.914851 
L 174.817811 114.914851 
L 174.817811 108.527525 
L 175.95507 108.527525 
L 175.95507 102.140198 
L 325.151509 102.140198 
L 325.151509 95.752871 
L 367.609195 95.752871 
L 367.609195 89.365545 
L 381.292381 89.365545 
L 381.292381 82.978218 
L 383.776271 82.978218 
L 383.776271 76.590891 
L 385.431572 76.590891 
L 385.431572 70.203564 
L 391.567081 70.203564 
L 391.567081 63.816238 
L 395.990522 63.816238 
L 395.990522 57.428911 
L 396.965211 57.428911 
L 396.965211 51.041584 
L 398.382042 51.041584 
L 398.382042 44.654257 
L 399.029852 44.654257 
L 399.029852 38.266931 
L 400.552596 38.266931 
L 400.552596 31.879604 
L 406.904277 31.879604 
L 406.904277 25.492277 
L 411.545206 25.492277 
L 411.545206 19.10495 
L 412.773862 19.10495 
L 412.773862 12.717624 
L 414.073679 12.717624 
L 414.073679 6.330297 
L 414.073679 6.330297 
L 414.073679 6.330297 
L 460.8 6.330297 
" style="fill:none;stroke:#000000;stroke-linecap:square;stroke-width:1.5;"/>
   </g>
   <g id="line2d_25">
    <path clip-path="url(#p6b5cf9643d)" d="M -1 242.661386 
L 6.573369 242.661386 
L 6.573369 236.274059 
L 7.249446 236.274059 
L 7.249446 229.886733 
L 16.533324 229.886733 
L 16.533324 223.499406 
L 24.721647 223.499406 
L 24.721647 217.112079 
L 25.396675 217.112079 
L 25.396675 210.724752 
L 27.87477 210.724752 
L 27.87477 204.337426 
L 32.056993 204.337426 
L 32.056993 197.950099 
L 34.204017 197.950099 
L 34.204017 191.562772 
L 34.837583 191.562772 
L 34.837583 185.175446 
L 41.775193 185.175446 
L 41.775193 178.788119 
L 42.825032 178.788119 
L 42.825032 172.400792 
L 45.129741 172.400792 
L 45.129741 166.013465 
L 47.167157 166.013465 
L 47.167157 159.626139 
L 59.558046 159.626139 
L 59.558046 153.238812 
L 80.84546 153.238812 
L 80.84546 146.851485 
L 82.946476 146.851485 
L 82.946476 140.464158 
L 102.578293 140.464158 
L 102.578293 134.076832 
L 116.071462 134.076832 
L 116.071462 127.689505 
L 116.784001 127.689505 
L 116.784001 121.302178 
L 118.815769 121.302178 
L 118.815769 114.914851 
L 132.898252 114.914851 
L 132.898252 108.527525 
L 139.815339 108.527525 
L 139.815339 102.140198 
L 242.085062 102.140198 
L 242.085062 95.752871 
L 245.483909 95.752871 
L 245.483909 89.365545 
L 292.877662 89.365545 
L 292.877662 82.978218 
L 322.864932 82.978218 
L 322.864932 76.590891 
L 324.847143 76.590891 
L 324.847143 70.203564 
L 333.931122 70.203564 
L 333.931122 63.816238 
L 337.291712 63.816238 
L 337.291712 57.428911 
L 341.613658 57.428911 
L 341.613658 51.041584 
L 346.555849 51.041584 
L 346.555849 44.654257 
L 378.611472 44.654257 
L 378.611472 38.266931 
L 387.305766 38.266931 
L 387.305766 31.879604 
L 389.810544 31.879604 
L 389.810544 25.492277 
L 391.567081 25.492277 
L 391.567081 19.10495 
L 399.029852 19.10495 
L 399.029852 12.717624 
L 411.545206 12.717624 
L 411.545206 6.330297 
L 411.545206 6.330297 
L 411.545206 6.330297 
L 460.8 6.330297 
" style="fill:none;stroke:#00bfbf;stroke-linecap:square;stroke-width:1.5;"/>
   </g>
   <g id="line2d_26">
    <path clip-path="url(#p6b5cf9643d)" d="M -1 223.499406 
L 3.466548 223.499406 
L 3.466548 217.112079 
L 6.573369 217.112079 
L 6.573369 210.724752 
L 7.097785 210.724752 
L 7.097785 204.337426 
L 7.249446 204.337426 
L 7.249446 197.950099 
L 7.725128 197.950099 
L 7.725128 191.562772 
L 18.290124 191.562772 
L 18.290124 185.175446 
L 21.457484 185.175446 
L 21.457484 178.788119 
L 23.658939 178.788119 
L 23.658939 172.400792 
L 24.938274 172.400792 
L 24.938274 166.013465 
L 25.396675 166.013465 
L 25.396675 159.626139 
L 25.634145 159.626139 
L 25.634145 153.238812 
L 25.739814 153.238812 
L 25.739814 146.851485 
L 26.685595 146.851485 
L 26.685595 140.464158 
L 30.336555 140.464158 
L 30.336555 134.076832 
L 31.648281 134.076832 
L 31.648281 127.689505 
L 33.189867 127.689505 
L 33.189867 121.302178 
L 36.058511 121.302178 
L 36.058511 114.914851 
L 45.129741 114.914851 
L 45.129741 108.527525 
L 51.772043 108.527525 
L 51.772043 102.140198 
L 57.347995 102.140198 
L 57.347995 95.752871 
L 59.899361 95.752871 
L 59.899361 89.365545 
L 94.004185 89.365545 
L 94.004185 82.978218 
L 101.427152 82.978218 
L 101.427152 76.590891 
L 102.942671 76.590891 
L 102.942671 70.203564 
L 109.234786 70.203564 
L 109.234786 63.816238 
L 110.593886 63.816238 
L 110.593886 57.428911 
L 119.412336 57.428911 
L 119.412336 51.041584 
L 119.687236 51.041584 
L 119.687236 44.654257 
L 125.13266 44.654257 
L 125.13266 38.266931 
L 135.637936 38.266931 
L 135.637936 31.879604 
L 138.51888 31.879604 
L 138.51888 25.492277 
L 143.656581 25.492277 
L 143.656581 19.10495 
L 145.088606 19.10495 
L 145.088606 12.717624 
L 189.265908 12.717624 
L 189.265908 6.330297 
L 189.265908 6.330297 
L 189.265908 6.330297 
L 460.8 6.330297 
" style="fill:none;stroke:#bf00bf;stroke-linecap:square;stroke-width:1.5;"/>
   </g>
   <g id="line2d_27">
    <path clip-path="url(#p6b5cf9643d)" d="M -1 140.464158 
L 1.036609 140.464158 
L 1.036609 134.076832 
L 1.08662 134.076832 
L 1.08662 127.689505 
L 1.412351 127.689505 
L 1.412351 121.302178 
L 4.281826 121.302178 
L 4.281826 114.914851 
L 10.788737 114.914851 
L 10.788737 108.527525 
L 12.661412 108.527525 
L 12.661412 102.140198 
L 17.025919 102.140198 
L 17.025919 95.752871 
L 40.878548 95.752871 
L 40.878548 89.365545 
L 43.242598 89.365545 
L 43.242598 82.978218 
L 43.6276 82.978218 
L 43.6276 76.590891 
L 50.978079 76.590891 
L 50.978079 70.203564 
L 67.601421 70.203564 
L 67.601421 63.816238 
L 83.062124 63.816238 
L 83.062124 57.428911 
L 83.319446 57.428911 
L 83.319446 51.041584 
L 85.298706 51.041584 
L 85.298706 44.654257 
L 85.724557 44.654257 
L 85.724557 38.266931 
L 89.791774 38.266931 
L 89.791774 31.879604 
L 91.012597 31.879604 
L 91.012597 25.492277 
L 98.971766 25.492277 
L 98.971766 19.10495 
L 111.069241 19.10495 
L 111.069241 12.717624 
L 115.27727 12.717624 
L 115.27727 6.330297 
L 115.27727 6.330297 
L 115.27727 6.330297 
L 460.8 6.330297 
" style="fill:none;stroke:#000000;stroke-linecap:square;stroke-width:1.5;"/>
   </g>
   <g id="patch_3">
    <path d="M 0 293.76 
L 0 3.456 
" style="fill:none;stroke:#000000;stroke-linecap:square;stroke-linejoin:miter;stroke-width:0.8;"/>
   </g>
   <g id="patch_4">
    <path d="M 460.8 293.76 
L 460.8 3.456 
" style="fill:none;stroke:#000000;stroke-linecap:square;stroke-linejoin:miter;stroke-width:0.8;"/>
   </g>
   <g id="patch_5">
    <path d="M 0 293.76 
L 460.8 293.76 
" style="fill:none;stroke:#000000;stroke-linecap:square;stroke-linejoin:miter;stroke-width:0.8;"/>
   </g>
   <g id="patch_6">
    <path d="M 0 3.456 
L 460.8 3.456 
" style="fill:none;stroke:#000000;stroke-linecap:square;stroke-linejoin:miter;stroke-width:0.8;"/>
   </g>
   <g id="text_6">
    <!-- {f5, f11, f17}, 20-D -->
    <g transform="translate(255.184 287.95392)scale(0.2 -0.2)">
     <defs>
      <path d="M 51.125 -9.28125 
L 51.125 -16.3125 
L 48.09375 -16.3125 
Q 35.9375 -16.3125 31.8125 -12.6875 
Q 27.6875 -9.078125 27.6875 1.703125 
L 27.6875 13.375 
Q 27.6875 20.75 25.046875 23.578125 
Q 22.40625 26.421875 15.484375 26.421875 
L 12.5 26.421875 
L 12.5 33.40625 
L 15.484375 33.40625 
Q 22.46875 33.40625 25.078125 36.203125 
Q 27.6875 39.015625 27.6875 46.296875 
L 27.6875 58.015625 
Q 27.6875 68.796875 31.8125 72.390625 
Q 35.9375 75.984375 48.09375 75.984375 
L 51.125 75.984375 
L 51.125 69 
L 47.796875 69 
Q 40.921875 69 38.8125 66.84375 
Q 36.71875 64.703125 36.71875 57.8125 
L 36.71875 45.703125 
Q 36.71875 38.03125 34.5 34.5625 
Q 32.28125 31.109375 26.90625 29.890625 
Q 32.328125 28.5625 34.515625 25.09375 
Q 36.71875 21.625 36.71875 14.015625 
L 36.71875 1.90625 
Q 36.71875 -4.984375 38.8125 -7.125 
Q 40.921875 -9.28125 47.796875 -9.28125 
z
" id="DejaVuSans-123"/>
      <path d="M 11.71875 12.40625 
L 22.015625 12.40625 
L 22.015625 4 
L 14.015625 -11.625 
L 7.71875 -11.625 
L 11.71875 4 
z
" id="DejaVuSans-44"/>
      <path d="M 8.203125 72.90625 
L 55.078125 72.90625 
L 55.078125 68.703125 
L 28.609375 0 
L 18.3125 0 
L 43.21875 64.59375 
L 8.203125 64.59375 
z
" id="DejaVuSans-55"/>
      <path d="M 12.5 -9.28125 
L 15.921875 -9.28125 
Q 22.75 -9.28125 24.828125 -7.171875 
Q 26.90625 -5.078125 26.90625 1.90625 
L 26.90625 14.015625 
Q 26.90625 21.625 29.09375 25.09375 
Q 31.296875 28.5625 36.71875 29.890625 
Q 31.296875 31.109375 29.09375 34.5625 
Q 26.90625 38.03125 26.90625 45.703125 
L 26.90625 57.8125 
Q 26.90625 64.75 24.828125 66.875 
Q 22.75 69 15.921875 69 
L 12.5 69 
L 12.5 75.984375 
L 15.578125 75.984375 
Q 27.734375 75.984375 31.8125 72.390625 
Q 35.890625 68.796875 35.890625 58.015625 
L 35.890625 46.296875 
Q 35.890625 39.015625 38.515625 36.203125 
Q 41.15625 33.40625 48.09375 33.40625 
L 51.125 33.40625 
L 51.125 26.421875 
L 48.09375 26.421875 
Q 41.15625 26.421875 38.515625 23.578125 
Q 35.890625 20.75 35.890625 13.375 
L 35.890625 1.703125 
Q 35.890625 -9.078125 31.8125 -12.6875 
Q 27.734375 -16.3125 15.578125 -16.3125 
L 12.5 -16.3125 
z
" id="DejaVuSans-125"/>
     </defs>
     <use xlink:href="#DejaVuSans-123"/>
     <use x="63.623047" xlink:href="#DejaVuSans-102"/>
     <use x="98.828125" xlink:href="#DejaVuSans-53"/>
     <use x="162.451172" xlink:href="#DejaVuSans-44"/>
     <use x="194.238281" xlink:href="#DejaVuSans-32"/>
     <use x="226.025391" xlink:href="#DejaVuSans-102"/>
     <use x="261.230469" xlink:href="#DejaVuSans-49"/>
     <use x="324.853516" xlink:href="#DejaVuSans-49"/>
     <use x="388.476562" xlink:href="#DejaVuSans-44"/>
     <use x="420.263672" xlink:href="#DejaVuSans-32"/>
     <use x="452.050781" xlink:href="#DejaVuSans-102"/>
     <use x="487.255859" xlink:href="#DejaVuSans-49"/>
     <use x="550.878906" xlink:href="#DejaVuSans-55"/>
     <use x="614.501953" xlink:href="#DejaVuSans-125"/>
     <use x="678.125" xlink:href="#DejaVuSans-44"/>
     <use x="709.912109" xlink:href="#DejaVuSans-32"/>
     <use x="741.699219" xlink:href="#DejaVuSans-50"/>
     <use x="805.322266" xlink:href="#DejaVuSans-48"/>
     <use x="868.945312" xlink:href="#DejaVuSans-45"/>
     <use x="905.029297" xlink:href="#DejaVuSans-68"/>
    </g>
   </g>
   <g id="text_7">
    <!-- v2.4.82 -->
    <g style="fill:#808080;" transform="translate(211.5375 288.777272)scale(0.1 -0.1)">
     <defs>
      <path d="M 2.984375 54.6875 
L 12.5 54.6875 
L 29.59375 8.796875 
L 46.6875 54.6875 
L 56.203125 54.6875 
L 35.6875 0 
L 23.484375 0 
z
" id="DejaVuSans-118"/>
      <path d="M 10.6875 12.40625 
L 21 12.40625 
L 21 0 
L 10.6875 0 
z
" id="DejaVuSans-46"/>
      <path d="M 31.78125 34.625 
Q 24.75 34.625 20.71875 30.859375 
Q 16.703125 27.09375 16.703125 20.515625 
Q 16.703125 13.921875 20.71875 10.15625 
Q 24.75 6.390625 31.78125 6.390625 
Q 38.8125 6.390625 42.859375 10.171875 
Q 46.921875 13.96875 46.921875 20.515625 
Q 46.921875 27.09375 42.890625 30.859375 
Q 38.875 34.625 31.78125 34.625 
z
M 21.921875 38.8125 
Q 15.578125 40.375 12.03125 44.71875 
Q 8.5 49.078125 8.5 55.328125 
Q 8.5 64.0625 14.71875 69.140625 
Q 20.953125 74.21875 31.78125 74.21875 
Q 42.671875 74.21875 48.875 69.140625 
Q 55.078125 64.0625 55.078125 55.328125 
Q 55.078125 49.078125 51.53125 44.71875 
Q 48 40.375 41.703125 38.8125 
Q 48.828125 37.15625 52.796875 32.3125 
Q 56.78125 27.484375 56.78125 20.515625 
Q 56.78125 9.90625 50.3125 4.234375 
Q 43.84375 -1.421875 31.78125 -1.421875 
Q 19.734375 -1.421875 13.25 4.234375 
Q 6.78125 9.90625 6.78125 20.515625 
Q 6.78125 27.484375 10.78125 32.3125 
Q 14.796875 37.15625 21.921875 38.8125 
z
M 18.3125 54.390625 
Q 18.3125 48.734375 21.84375 45.5625 
Q 25.390625 42.390625 31.78125 42.390625 
Q 38.140625 42.390625 41.71875 45.5625 
Q 45.3125 48.734375 45.3125 54.390625 
Q 45.3125 60.0625 41.71875 63.234375 
Q 38.140625 66.40625 31.78125 66.40625 
Q 25.390625 66.40625 21.84375 63.234375 
Q 18.3125 60.0625 18.3125 54.390625 
z
" id="DejaVuSans-56"/>
     </defs>
     <use xlink:href="#DejaVuSans-118"/>
     <use x="59.179688" xlink:href="#DejaVuSans-50"/>
     <use x="122.802734" xlink:href="#DejaVuSans-46"/>
     <use x="154.589844" xlink:href="#DejaVuSans-52"/>
     <use x="218.212891" xlink:href="#DejaVuSans-46"/>
     <use x="250" xlink:href="#DejaVuSans-56"/>
     <use x="313.623047" xlink:href="#DejaVuSans-50"/>
    </g>
   </g>
  </g>
 </g>
 <defs>
  <clipPath id="p6b5cf9643d">
   <rect height="290.304" width="460.8" x="0" y="3.456"/>
  </clipPath>
 </defs>
</svg>
