<?xml version="1.0" encoding="utf-8" standalone="no"?>
<!DOCTYPE svg PUBLIC "-//W3C//DTD SVG 1.1//EN"
  "http://www.w3.org/Graphics/SVG/1.1/DTD/svg11.dtd">
<!-- Created with matplotlib (https://matplotlib.org/) -->
<svg height="345.6pt" version="1.1" viewBox="0 0 460.8 345.6" width="460.8pt" xmlns="http://www.w3.org/2000/svg" xmlns:xlink="http://www.w3.org/1999/xlink">
 <metadata>
  <rdf:RDF xmlns:cc="http://creativecommons.org/ns#" xmlns:dc="http://purl.org/dc/elements/1.1/" xmlns:rdf="http://www.w3.org/1999/02/22-rdf-syntax-ns#">
   <cc:Work>
    <dc:type rdf:resource="http://purl.org/dc/dcmitype/StillImage"/>
    <dc:date>2022-01-14T09:43:11.888663</dc:date>
    <dc:format>image/svg+xml</dc:format>
    <dc:creator>
     <cc:Agent>
      <dc:title>Matplotlib v3.3.3, https://matplotlib.org/</dc:title>
     </cc:Agent>
    </dc:creator>
   </cc:Work>
  </rdf:RDF>
 </metadata>
 <defs>
  <style type="text/css">*{stroke-linecap:butt;stroke-linejoin:round;}</style>
 </defs>
 <g id="figure_1">
  <g id="patch_1">
   <path d="M 0 345.6 
L 460.8 345.6 
L 460.8 0 
L 0 0 
z
" style="fill:#ffffff;"/>
  </g>
  <g id="axes_1">
   <g id="patch_2">
    <path d="M 0 293.76 
L 460.8 293.76 
L 460.8 3.456 
L 0 3.456 
z
" style="fill:#ffffff;"/>
   </g>
   <g id="matplotlib.axis_1">
    <g id="xtick_1">
     <g id="line2d_1">
      <path clip-path="url(#pa3c53f4801)" d="M 104.055243 293.76 
L 104.055243 3.456 
" style="fill:none;stroke:#b0b0b0;stroke-linecap:square;stroke-width:0.8;"/>
     </g>
     <g id="line2d_2">
      <defs>
       <path d="M 0 0 
L 0 3.5 
" id="m47a8c68a08" style="stroke:#000000;stroke-width:0.8;"/>
      </defs>
      <g>
       <use style="stroke:#000000;stroke-width:0.8;" x="104.055243" xlink:href="#m47a8c68a08" y="293.76"/>
      </g>
     </g>
     <g id="text_1">
      <!-- -5 -->
      <g transform="translate(94.08493 315.956875)scale(0.2 -0.2)">
       <defs>
        <path d="M 4.890625 31.390625 
L 31.203125 31.390625 
L 31.203125 23.390625 
L 4.890625 23.390625 
z
" id="DejaVuSans-45"/>
        <path d="M 10.796875 72.90625 
L 49.515625 72.90625 
L 49.515625 64.59375 
L 19.828125 64.59375 
L 19.828125 46.734375 
Q 21.96875 47.46875 24.109375 47.828125 
Q 26.265625 48.1875 28.421875 48.1875 
Q 40.625 48.1875 47.75 41.5 
Q 54.890625 34.8125 54.890625 23.390625 
Q 54.890625 11.625 47.5625 5.09375 
Q 40.234375 -1.421875 26.90625 -1.421875 
Q 22.3125 -1.421875 17.546875 -0.640625 
Q 12.796875 0.140625 7.71875 1.703125 
L 7.71875 11.625 
Q 12.109375 9.234375 16.796875 8.0625 
Q 21.484375 6.890625 26.703125 6.890625 
Q 35.15625 6.890625 40.078125 11.328125 
Q 45.015625 15.765625 45.015625 23.390625 
Q 45.015625 31 40.078125 35.4375 
Q 35.15625 39.890625 26.703125 39.890625 
Q 22.75 39.890625 18.8125 39.015625 
Q 14.890625 38.140625 10.796875 36.28125 
z
" id="DejaVuSans-53"/>
       </defs>
       <use xlink:href="#DejaVuSans-45"/>
       <use x="36.083984" xlink:href="#DejaVuSans-53"/>
      </g>
     </g>
    </g>
    <g id="xtick_2">
     <g id="line2d_3">
      <path clip-path="url(#pa3c53f4801)" d="M 208.260589 293.76 
L 208.260589 3.456 
" style="fill:none;stroke:#b0b0b0;stroke-linecap:square;stroke-width:0.8;"/>
     </g>
     <g id="line2d_4">
      <g>
       <use style="stroke:#000000;stroke-width:0.8;" x="208.260589" xlink:href="#m47a8c68a08" y="293.76"/>
      </g>
     </g>
     <g id="text_2">
      <!-- -2 -->
      <g transform="translate(198.290276 315.956875)scale(0.2 -0.2)">
       <defs>
        <path d="M 19.1875 8.296875 
L 53.609375 8.296875 
L 53.609375 0 
L 7.328125 0 
L 7.328125 8.296875 
Q 12.9375 14.109375 22.625 23.890625 
Q 32.328125 33.6875 34.8125 36.53125 
Q 39.546875 41.84375 41.421875 45.53125 
Q 43.3125 49.21875 43.3125 52.78125 
Q 43.3125 58.59375 39.234375 62.25 
Q 35.15625 65.921875 28.609375 65.921875 
Q 23.96875 65.921875 18.8125 64.3125 
Q 13.671875 62.703125 7.8125 59.421875 
L 7.8125 69.390625 
Q 13.765625 71.78125 18.9375 73 
Q 24.125 74.21875 28.421875 74.21875 
Q 39.75 74.21875 46.484375 68.546875 
Q 53.21875 62.890625 53.21875 53.421875 
Q 53.21875 48.921875 51.53125 44.890625 
Q 49.859375 40.875 45.40625 35.40625 
Q 44.1875 33.984375 37.640625 27.21875 
Q 31.109375 20.453125 19.1875 8.296875 
z
" id="DejaVuSans-50"/>
       </defs>
       <use xlink:href="#DejaVuSans-45"/>
       <use x="36.083984" xlink:href="#DejaVuSans-50"/>
      </g>
     </g>
    </g>
    <g id="xtick_3">
     <g id="line2d_5">
      <path clip-path="url(#pa3c53f4801)" d="M 312.465935 293.76 
L 312.465935 3.456 
" style="fill:none;stroke:#b0b0b0;stroke-linecap:square;stroke-width:0.8;"/>
     </g>
     <g id="line2d_6">
      <g>
       <use style="stroke:#000000;stroke-width:0.8;" x="312.465935" xlink:href="#m47a8c68a08" y="293.76"/>
      </g>
     </g>
     <g id="text_3">
      <!-- 1 -->
      <g transform="translate(306.103435 315.956875)scale(0.2 -0.2)">
       <defs>
        <path d="M 12.40625 8.296875 
L 28.515625 8.296875 
L 28.515625 63.921875 
L 10.984375 60.40625 
L 10.984375 69.390625 
L 28.421875 72.90625 
L 38.28125 72.90625 
L 38.28125 8.296875 
L 54.390625 8.296875 
L 54.390625 0 
L 12.40625 0 
z
" id="DejaVuSans-49"/>
       </defs>
       <use xlink:href="#DejaVuSans-49"/>
      </g>
     </g>
    </g>
    <g id="xtick_4">
     <g id="line2d_7">
      <path clip-path="url(#pa3c53f4801)" d="M 416.671281 293.76 
L 416.671281 3.456 
" style="fill:none;stroke:#b0b0b0;stroke-linecap:square;stroke-width:0.8;"/>
     </g>
     <g id="line2d_8">
      <g>
       <use style="stroke:#000000;stroke-width:0.8;" x="416.671281" xlink:href="#m47a8c68a08" y="293.76"/>
      </g>
     </g>
     <g id="text_4">
      <!-- 4 -->
      <g transform="translate(410.308781 315.956875)scale(0.2 -0.2)">
       <defs>
        <path d="M 37.796875 64.3125 
L 12.890625 25.390625 
L 37.796875 25.390625 
z
M 35.203125 72.90625 
L 47.609375 72.90625 
L 47.609375 25.390625 
L 58.015625 25.390625 
L 58.015625 17.1875 
L 47.609375 17.1875 
L 47.609375 0 
L 37.796875 0 
L 37.796875 17.1875 
L 4.890625 17.1875 
L 4.890625 26.703125 
z
" id="DejaVuSans-52"/>
       </defs>
       <use xlink:href="#DejaVuSans-52"/>
      </g>
     </g>
    </g>
    <g id="text_5">
     <!-- log10 of Df -->
     <g transform="translate(175.214063 339.313125)scale(0.2 -0.2)">
      <defs>
       <path d="M 9.421875 75.984375 
L 18.40625 75.984375 
L 18.40625 0 
L 9.421875 0 
z
" id="DejaVuSans-108"/>
       <path d="M 30.609375 48.390625 
Q 23.390625 48.390625 19.1875 42.75 
Q 14.984375 37.109375 14.984375 27.296875 
Q 14.984375 17.484375 19.15625 11.84375 
Q 23.34375 6.203125 30.609375 6.203125 
Q 37.796875 6.203125 41.984375 11.859375 
Q 46.1875 17.53125 46.1875 27.296875 
Q 46.1875 37.015625 41.984375 42.703125 
Q 37.796875 48.390625 30.609375 48.390625 
z
M 30.609375 56 
Q 42.328125 56 49.015625 48.375 
Q 55.71875 40.765625 55.71875 27.296875 
Q 55.71875 13.875 49.015625 6.21875 
Q 42.328125 -1.421875 30.609375 -1.421875 
Q 18.84375 -1.421875 12.171875 6.21875 
Q 5.515625 13.875 5.515625 27.296875 
Q 5.515625 40.765625 12.171875 48.375 
Q 18.84375 56 30.609375 56 
z
" id="DejaVuSans-111"/>
       <path d="M 45.40625 27.984375 
Q 45.40625 37.75 41.375 43.109375 
Q 37.359375 48.484375 30.078125 48.484375 
Q 22.859375 48.484375 18.828125 43.109375 
Q 14.796875 37.75 14.796875 27.984375 
Q 14.796875 18.265625 18.828125 12.890625 
Q 22.859375 7.515625 30.078125 7.515625 
Q 37.359375 7.515625 41.375 12.890625 
Q 45.40625 18.265625 45.40625 27.984375 
z
M 54.390625 6.78125 
Q 54.390625 -7.171875 48.1875 -13.984375 
Q 42 -20.796875 29.203125 -20.796875 
Q 24.46875 -20.796875 20.265625 -20.09375 
Q 16.0625 -19.390625 12.109375 -17.921875 
L 12.109375 -9.1875 
Q 16.0625 -11.328125 19.921875 -12.34375 
Q 23.78125 -13.375 27.78125 -13.375 
Q 36.625 -13.375 41.015625 -8.765625 
Q 45.40625 -4.15625 45.40625 5.171875 
L 45.40625 9.625 
Q 42.625 4.78125 38.28125 2.390625 
Q 33.9375 0 27.875 0 
Q 17.828125 0 11.671875 7.65625 
Q 5.515625 15.328125 5.515625 27.984375 
Q 5.515625 40.671875 11.671875 48.328125 
Q 17.828125 56 27.875 56 
Q 33.9375 56 38.28125 53.609375 
Q 42.625 51.21875 45.40625 46.390625 
L 45.40625 54.6875 
L 54.390625 54.6875 
z
" id="DejaVuSans-103"/>
       <path d="M 31.78125 66.40625 
Q 24.171875 66.40625 20.328125 58.90625 
Q 16.5 51.421875 16.5 36.375 
Q 16.5 21.390625 20.328125 13.890625 
Q 24.171875 6.390625 31.78125 6.390625 
Q 39.453125 6.390625 43.28125 13.890625 
Q 47.125 21.390625 47.125 36.375 
Q 47.125 51.421875 43.28125 58.90625 
Q 39.453125 66.40625 31.78125 66.40625 
z
M 31.78125 74.21875 
Q 44.046875 74.21875 50.515625 64.515625 
Q 56.984375 54.828125 56.984375 36.375 
Q 56.984375 17.96875 50.515625 8.265625 
Q 44.046875 -1.421875 31.78125 -1.421875 
Q 19.53125 -1.421875 13.0625 8.265625 
Q 6.59375 17.96875 6.59375 36.375 
Q 6.59375 54.828125 13.0625 64.515625 
Q 19.53125 74.21875 31.78125 74.21875 
z
" id="DejaVuSans-48"/>
       <path id="DejaVuSans-32"/>
       <path d="M 37.109375 75.984375 
L 37.109375 68.5 
L 28.515625 68.5 
Q 23.6875 68.5 21.796875 66.546875 
Q 19.921875 64.59375 19.921875 59.515625 
L 19.921875 54.6875 
L 34.71875 54.6875 
L 34.71875 47.703125 
L 19.921875 47.703125 
L 19.921875 0 
L 10.890625 0 
L 10.890625 47.703125 
L 2.296875 47.703125 
L 2.296875 54.6875 
L 10.890625 54.6875 
L 10.890625 58.5 
Q 10.890625 67.625 15.140625 71.796875 
Q 19.390625 75.984375 28.609375 75.984375 
z
" id="DejaVuSans-102"/>
       <path d="M 19.671875 64.796875 
L 19.671875 8.109375 
L 31.59375 8.109375 
Q 46.6875 8.109375 53.6875 14.9375 
Q 60.6875 21.78125 60.6875 36.53125 
Q 60.6875 51.171875 53.6875 57.984375 
Q 46.6875 64.796875 31.59375 64.796875 
z
M 9.8125 72.90625 
L 30.078125 72.90625 
Q 51.265625 72.90625 61.171875 64.09375 
Q 71.09375 55.28125 71.09375 36.53125 
Q 71.09375 17.671875 61.125 8.828125 
Q 51.171875 0 30.078125 0 
L 9.8125 0 
z
" id="DejaVuSans-68"/>
      </defs>
      <use xlink:href="#DejaVuSans-108"/>
      <use x="27.783203" xlink:href="#DejaVuSans-111"/>
      <use x="88.964844" xlink:href="#DejaVuSans-103"/>
      <use x="152.441406" xlink:href="#DejaVuSans-49"/>
      <use x="216.064453" xlink:href="#DejaVuSans-48"/>
      <use x="279.6875" xlink:href="#DejaVuSans-32"/>
      <use x="311.474609" xlink:href="#DejaVuSans-111"/>
      <use x="372.65625" xlink:href="#DejaVuSans-102"/>
      <use x="407.861328" xlink:href="#DejaVuSans-32"/>
      <use x="439.648438" xlink:href="#DejaVuSans-68"/>
      <use x="516.650391" xlink:href="#DejaVuSans-102"/>
     </g>
    </g>
   </g>
   <g id="matplotlib.axis_2">
    <g id="ytick_1">
     <g id="line2d_9">
      <path clip-path="url(#pa3c53f4801)" d="M 0 293.76 
L 460.8 293.76 
" style="fill:none;stroke:#b0b0b0;stroke-linecap:square;stroke-width:0.8;"/>
     </g>
     <g id="line2d_10">
      <defs>
       <path d="M 0 0 
L -3.5 0 
" id="m9873ef6ccb" style="stroke:#000000;stroke-width:0.8;"/>
      </defs>
      <g>
       <use style="stroke:#000000;stroke-width:0.8;" x="0" xlink:href="#m9873ef6ccb" y="293.76"/>
      </g>
     </g>
    </g>
    <g id="ytick_2">
     <g id="line2d_11">
      <path clip-path="url(#pa3c53f4801)" d="M 0 236.274059 
L 460.8 236.274059 
" style="fill:none;stroke:#b0b0b0;stroke-linecap:square;stroke-width:0.8;"/>
     </g>
     <g id="line2d_12">
      <g>
       <use style="stroke:#000000;stroke-width:0.8;" x="0" xlink:href="#m9873ef6ccb" y="236.274059"/>
      </g>
     </g>
    </g>
    <g id="ytick_3">
     <g id="line2d_13">
      <path clip-path="url(#pa3c53f4801)" d="M 0 178.788119 
L 460.8 178.788119 
" style="fill:none;stroke:#b0b0b0;stroke-linecap:square;stroke-width:0.8;"/>
     </g>
     <g id="line2d_14">
      <g>
       <use style="stroke:#000000;stroke-width:0.8;" x="0" xlink:href="#m9873ef6ccb" y="178.788119"/>
      </g>
     </g>
    </g>
    <g id="ytick_4">
     <g id="line2d_15">
      <path clip-path="url(#pa3c53f4801)" d="M 0 121.302178 
L 460.8 121.302178 
" style="fill:none;stroke:#b0b0b0;stroke-linecap:square;stroke-width:0.8;"/>
     </g>
     <g id="line2d_16">
      <g>
       <use style="stroke:#000000;stroke-width:0.8;" x="0" xlink:href="#m9873ef6ccb" y="121.302178"/>
      </g>
     </g>
    </g>
    <g id="ytick_5">
     <g id="line2d_17">
      <path clip-path="url(#pa3c53f4801)" d="M 0 63.816238 
L 460.8 63.816238 
" style="fill:none;stroke:#b0b0b0;stroke-linecap:square;stroke-width:0.8;"/>
     </g>
     <g id="line2d_18">
      <g>
       <use style="stroke:#000000;stroke-width:0.8;" x="0" xlink:href="#m9873ef6ccb" y="63.816238"/>
      </g>
     </g>
    </g>
    <g id="ytick_6">
     <g id="line2d_19">
      <path clip-path="url(#pa3c53f4801)" d="M 0 6.330297 
L 460.8 6.330297 
" style="fill:none;stroke:#b0b0b0;stroke-linecap:square;stroke-width:0.8;"/>
     </g>
     <g id="line2d_20">
      <g>
       <use style="stroke:#000000;stroke-width:0.8;" x="0" xlink:href="#m9873ef6ccb" y="6.330297"/>
      </g>
     </g>
    </g>
   </g>
   <g id="line2d_21">
    <path clip-path="url(#pa3c53f4801)" d="M -1 232.015842 
L -0.582404 232.015842 
L -0.582404 229.886733 
L 12.320449 229.886733 
L 12.320449 227.757624 
L 13.382578 227.757624 
L 13.382578 225.628515 
L 17.993869 225.628515 
L 17.993869 223.499406 
L 20.782241 223.499406 
L 20.782241 221.370297 
L 22.588005 221.370297 
L 22.588005 219.241188 
L 23.639677 219.241188 
L 23.639677 217.112079 
L 24.845529 217.112079 
L 24.845529 214.98297 
L 25.389042 214.98297 
L 25.389042 212.853861 
L 28.455537 212.853861 
L 28.455537 210.724752 
L 28.668245 210.724752 
L 28.730264 206.466535 
L 36.259247 206.466535 
L 36.259247 204.337426 
L 39.61017 204.337426 
L 39.61017 202.208317 
L 44.545851 202.208317 
L 44.545851 200.079208 
L 48.80825 200.079208 
L 48.80825 197.950099 
L 49.995123 197.950099 
L 49.995123 195.82099 
L 50.468743 195.82099 
L 50.468743 193.691881 
L 52.390762 193.691881 
L 52.390762 191.562772 
L 54.911291 191.562772 
L 54.911291 189.433663 
L 61.491835 189.433663 
L 61.491835 187.304554 
L 69.292915 187.304554 
L 69.292915 185.175446 
L 70.948075 185.175446 
L 70.948075 183.046337 
L 71.417728 183.046337 
L 71.417728 180.917228 
L 75.426856 180.917228 
L 75.426856 178.788119 
L 75.892137 178.788119 
L 75.892137 176.65901 
L 80.129694 176.65901 
L 80.129694 174.529901 
L 85.508589 174.529901 
L 85.508589 172.400792 
L 88.85497 172.400792 
L 88.85497 170.271683 
L 89.763523 170.271683 
L 89.763523 168.142574 
L 103.869296 168.142574 
L 103.869296 166.013465 
L 130.683092 166.013465 
L 130.683092 163.884356 
L 140.998416 163.884356 
L 140.998416 161.755248 
L 147.859446 161.755248 
L 147.859446 159.626139 
L 149.26012 159.626139 
L 149.26012 157.49703 
L 150.125274 157.49703 
L 150.125274 155.367921 
L 158.973791 155.367921 
L 158.973791 153.238812 
L 160.918854 153.238812 
L 160.918854 151.109703 
L 162.1476 151.109703 
L 162.1476 148.980594 
L 162.640741 148.980594 
L 162.640741 146.851485 
L 164.528364 146.851485 
L 164.528364 144.722376 
L 167.216668 144.722376 
L 167.216668 142.593267 
L 167.720214 142.593267 
L 167.720214 140.464158 
L 169.690597 140.464158 
L 169.690597 138.33505 
L 170.08329 138.33505 
L 170.08329 136.205941 
L 171.60706 136.205941 
L 171.60706 134.076832 
L 203.656075 134.076832 
L 203.656075 131.947723 
L 224.852286 131.947723 
L 224.852286 129.818614 
L 227.020125 129.818614 
L 227.020125 127.689505 
L 229.711675 127.689505 
L 229.711675 125.560396 
L 236.350636 125.560396 
L 236.350636 123.431287 
L 242.558831 123.431287 
L 242.558831 121.302178 
L 245.527182 121.302178 
L 245.527182 119.173069 
L 247.409938 119.173069 
L 247.409938 117.04396 
L 248.482258 117.04396 
L 248.482258 114.914851 
L 248.931257 114.914851 
L 248.931257 112.785743 
L 249.797181 112.785743 
L 249.797181 110.656634 
L 251.343811 110.656634 
L 251.343811 108.527525 
L 253.652682 108.527525 
L 253.652682 106.398416 
L 255.010679 106.398416 
L 255.010679 104.269307 
L 255.320558 104.269307 
L 255.320558 102.140198 
L 263.471765 102.140198 
L 263.471765 100.011089 
L 265.113967 100.011089 
L 265.113967 97.88198 
L 268.095639 97.88198 
L 268.167178 93.623762 
L 268.270364 93.623762 
L 268.270364 91.494653 
L 269.877636 91.494653 
L 269.877636 89.365545 
L 270.204205 89.365545 
L 270.204205 87.236436 
L 275.411543 87.236436 
L 275.411543 85.107327 
L 276.595606 85.107327 
L 276.595606 82.978218 
L 277.756597 82.978218 
L 277.756597 80.849109 
L 278.023681 80.849109 
L 278.023681 78.72 
L 294.076862 78.72 
L 294.076862 76.590891 
L 298.347314 76.590891 
L 298.347314 74.461782 
L 303.29123 74.461782 
L 303.29123 72.332673 
L 317.754386 72.332673 
L 317.754386 70.203564 
L 351.540794 70.203564 
L 351.540794 68.074455 
L 362.43394 68.074455 
L 362.43394 65.945347 
L 362.903881 65.945347 
L 362.903881 63.816238 
L 363.874422 63.816238 
L 363.874422 61.687129 
L 366.663116 61.687129 
L 366.663116 59.55802 
L 366.877527 59.55802 
L 366.877527 57.428911 
L 367.105043 57.428911 
L 367.105043 55.299802 
L 368.273007 55.299802 
L 368.273007 53.170693 
L 370.199711 53.170693 
L 370.199711 51.041584 
L 370.51987 51.041584 
L 370.51987 48.912475 
L 371.396355 48.912475 
L 371.396355 46.783366 
L 372.94996 46.783366 
L 372.94996 44.654257 
L 373.397128 44.654257 
L 373.397128 42.525149 
L 374.47847 42.525149 
L 374.47847 40.39604 
L 375.691214 40.39604 
L 375.715242 36.137822 
L 376.689518 36.137822 
L 376.689518 34.008713 
L 378.189054 34.008713 
L 378.204728 29.750495 
L 379.635296 29.750495 
L 379.635296 27.621386 
L 380.494144 27.621386 
L 380.537766 23.363168 
L 380.701805 23.363168 
L 380.701805 21.234059 
L 382.353925 21.234059 
L 382.353925 19.10495 
L 382.502897 19.10495 
L 382.502897 16.975842 
L 385.64934 16.975842 
L 385.64934 14.846733 
L 386.516953 14.846733 
L 386.516953 12.717624 
L 390.004762 12.717624 
L 390.034255 8.459406 
L 394.180005 8.459406 
L 394.180005 6.330297 
L 394.180005 6.330297 
L 460.8 6.330297 
L 460.8 6.330297 
" style="fill:none;stroke:#ff0000;stroke-linecap:square;stroke-width:3;"/>
   </g>
   <g id="line2d_22">
    <path clip-path="url(#pa3c53f4801)" d="M 361.5726 293.76 
L 361.5726 291.630891 
L 363.491843 291.630891 
L 363.491843 289.501782 
L 364.003546 289.501782 
L 364.003546 287.372673 
L 365.280261 287.372673 
L 365.280261 285.243564 
L 365.871352 285.243564 
L 365.871352 283.114455 
L 366.12251 283.114455 
L 366.12251 280.985347 
L 367.842825 280.985347 
L 367.842825 278.856238 
L 368.842412 278.856238 
L 368.842412 276.727129 
L 369.298185 276.727129 
L 369.298185 274.59802 
L 370.910579 274.59802 
L 370.910579 272.468911 
L 371.187273 272.468911 
L 371.187273 270.339802 
L 371.659577 270.339802 
L 371.659577 268.210693 
L 372.664223 268.210693 
L 372.664223 266.081584 
L 373.314672 266.081584 
L 373.314672 263.952475 
L 374.148161 263.952475 
L 374.148161 261.823366 
L 374.993362 261.823366 
L 374.998363 255.43604 
L 375.957354 255.43604 
L 375.957354 253.306931 
L 376.162381 253.306931 
L 376.162381 251.177822 
L 377.355206 251.177822 
L 377.355206 249.048713 
L 377.734685 249.048713 
L 377.734685 246.919604 
L 377.883729 246.919604 
L 377.883729 244.790495 
L 379.748979 244.790495 
L 379.767487 240.532277 
L 380.448447 240.532277 
L 380.448447 238.403168 
L 380.638314 238.403168 
L 380.698942 234.14495 
L 381.418164 234.14495 
L 381.441127 229.886733 
L 382.022307 229.886733 
L 382.022307 227.757624 
L 382.984772 227.757624 
L 383.076789 221.370297 
L 383.572438 221.370297 
L 383.572438 219.241188 
L 384.311846 219.241188 
L 384.372499 214.98297 
L 384.610814 214.98297 
L 384.610814 212.853861 
L 384.890381 212.853861 
L 384.890381 210.724752 
L 386.188685 210.724752 
L 386.188685 208.595644 
L 387.132025 208.595644 
L 387.132025 206.466535 
L 387.745115 206.466535 
L 387.745115 204.337426 
L 388.01013 204.337426 
L 388.01013 202.208317 
L 388.171109 202.208317 
L 388.171109 200.079208 
L 388.344886 200.079208 
L 388.344886 197.950099 
L 388.70095 197.950099 
L 388.70095 195.82099 
L 389.44534 195.82099 
L 389.44534 193.691881 
L 392.052715 193.691881 
L 392.137067 189.433663 
L 392.606024 189.433663 
L 392.606024 187.304554 
L 393.03793 187.304554 
L 393.03793 185.175446 
L 393.715886 185.175446 
L 393.715886 183.046337 
L 394.09595 183.046337 
L 394.187597 176.65901 
L 395.009567 176.65901 
L 395.009567 174.529901 
L 395.243884 174.529901 
L 395.243884 172.400792 
L 395.633356 172.400792 
L 395.633356 170.271683 
L 395.757971 170.271683 
L 395.757971 168.142574 
L 396.191473 168.142574 
L 396.191473 166.013465 
L 396.399108 166.013465 
L 396.399108 163.884356 
L 396.543197 163.884356 
L 396.543197 161.755248 
L 396.781837 161.755248 
L 396.883434 157.49703 
L 396.919332 157.49703 
L 396.919332 155.367921 
L 397.422029 155.367921 
L 397.422029 153.238812 
L 397.776483 153.238812 
L 397.776483 151.109703 
L 398.04237 151.109703 
L 398.04237 148.980594 
L 398.323468 148.980594 
L 398.323468 146.851485 
L 398.482486 146.851485 
L 398.495963 142.593267 
L 398.831318 142.593267 
L 398.831318 140.464158 
L 398.997402 140.464158 
L 398.997402 138.33505 
L 399.603759 138.33505 
L 399.701236 134.076832 
L 399.882189 134.076832 
L 399.882189 131.947723 
L 400.18405 131.947723 
L 400.291001 125.560396 
L 400.448093 125.560396 
L 400.448093 123.431287 
L 400.69967 123.431287 
L 400.801447 117.04396 
L 400.83109 117.04396 
L 400.83109 114.914851 
L 400.999316 114.914851 
L 400.999316 112.785743 
L 401.207264 112.785743 
L 401.207264 110.656634 
L 401.334821 110.656634 
L 401.360223 106.398416 
L 401.496274 106.398416 
L 401.496274 104.269307 
L 402.518702 104.269307 
L 402.616544 95.752871 
L 402.666041 95.752871 
L 402.666041 93.623762 
L 403.001597 93.623762 
L 403.034139 89.365545 
L 403.873215 89.365545 
L 403.873215 87.236436 
L 403.995536 87.236436 
L 404.061461 80.849109 
L 405.242776 80.849109 
L 405.242776 78.72 
L 405.457182 78.72 
L 405.457182 76.590891 
L 406.120406 76.590891 
L 406.223596 72.332673 
L 406.469378 72.332673 
L 406.469378 70.203564 
L 406.590339 70.203564 
L 406.590339 68.074455 
L 407.382619 68.074455 
L 407.382619 65.945347 
L 407.953362 65.945347 
L 407.953362 63.816238 
L 408.966218 63.816238 
L 408.966218 61.687129 
L 409.571041 61.687129 
L 409.571041 59.55802 
L 410.150004 59.55802 
L 410.150004 57.428911 
L 410.819961 57.428911 
L 410.819961 55.299802 
L 411.260284 55.299802 
L 411.260284 53.170693 
L 411.375218 53.170693 
L 411.375218 51.041584 
L 412.067314 51.041584 
L 412.067314 48.912475 
L 413.020521 48.912475 
L 413.020521 46.783366 
L 414.084582 46.783366 
L 414.084582 44.654257 
L 414.215592 44.654257 
L 414.215592 42.525149 
L 416.877034 42.525149 
L 416.877034 40.39604 
L 417.069278 40.39604 
L 417.069278 38.266931 
L 417.646862 38.266931 
L 417.646862 36.137822 
L 417.801866 36.137822 
L 417.801866 34.008713 
L 418.029747 34.008713 
L 418.029747 31.879604 
L 418.25752 31.879604 
L 418.25752 29.750495 
L 418.426128 29.750495 
L 418.426128 27.621386 
L 418.59986 27.621386 
L 418.59986 25.492277 
L 419.426545 25.492277 
L 419.426545 23.363168 
L 420.908566 23.363168 
L 420.908566 21.234059 
L 421.623731 21.234059 
L 421.623731 19.10495 
L 423.587862 19.10495 
L 423.587862 16.975842 
L 424.428414 16.975842 
L 424.428414 14.846733 
L 425.378739 14.846733 
L 425.378739 12.717624 
L 426.177765 12.717624 
L 426.177765 10.588515 
L 430.331132 10.588515 
L 430.331132 8.459406 
L 434.317609 8.459406 
L 434.317609 6.330297 
L 434.317609 6.330297 
L 460.8 6.330297 
L 460.8 6.330297 
" style="fill:none;stroke:#00bfbf;stroke-linecap:square;stroke-width:1.5;"/>
   </g>
   <g id="line2d_23">
    <path clip-path="url(#pa3c53f4801)" d="M 94.42512 293.76 
L 94.42512 291.630891 
L 94.560953 291.630891 
L 94.560953 289.501782 
L 100.688642 289.501782 
L 100.688642 287.372673 
L 100.87221 287.372673 
L 100.87221 285.243564 
L 101.534248 285.243564 
L 101.534248 283.114455 
L 112.41259 283.114455 
L 112.41259 280.985347 
L 114.200086 280.985347 
L 114.200086 278.856238 
L 114.943228 278.856238 
L 114.943228 276.727129 
L 115.957772 276.727129 
L 115.957772 274.59802 
L 116.493538 274.59802 
L 116.493538 272.468911 
L 116.645542 272.468911 
L 116.645542 270.339802 
L 121.954181 270.339802 
L 121.954181 268.210693 
L 125.150643 268.210693 
L 125.150643 266.081584 
L 127.359711 266.081584 
L 127.359711 263.952475 
L 127.776758 263.952475 
L 127.776758 261.823366 
L 128.264432 261.823366 
L 128.264432 259.694257 
L 130.807825 259.694257 
L 130.807825 257.565149 
L 132.739223 257.565149 
L 132.739223 255.43604 
L 133.448882 255.43604 
L 133.552436 251.177822 
L 133.722374 251.177822 
L 133.766753 246.919604 
L 136.463844 246.919604 
L 136.463844 244.790495 
L 145.72428 244.790495 
L 145.72428 242.661386 
L 146.7218 242.661386 
L 146.7218 240.532277 
L 149.556376 240.532277 
L 149.556376 238.403168 
L 151.223079 238.403168 
L 151.223079 236.274059 
L 156.92507 236.274059 
L 156.92507 234.14495 
L 161.879232 234.14495 
L 161.879232 232.015842 
L 187.42604 232.015842 
L 187.42604 229.886733 
L 352.834501 229.886733 
L 352.834501 227.757624 
L 357.347753 227.757624 
L 357.347753 225.628515 
L 357.469005 225.628515 
L 357.469005 223.499406 
L 360.069424 223.499406 
L 360.069424 221.370297 
L 360.721001 221.370297 
L 360.721001 219.241188 
L 361.094158 219.241188 
L 361.094158 217.112079 
L 361.485881 217.112079 
L 361.485881 214.98297 
L 361.805213 214.98297 
L 361.805213 212.853861 
L 361.925849 212.853861 
L 361.985737 208.595644 
L 363.411649 208.595644 
L 363.411649 206.466535 
L 363.690124 206.466535 
L 363.690124 204.337426 
L 364.207582 204.337426 
L 364.207582 202.208317 
L 364.812248 202.208317 
L 364.812248 200.079208 
L 365.1942 200.079208 
L 365.1942 197.950099 
L 366.12251 197.950099 
L 366.12251 195.82099 
L 366.363112 195.82099 
L 366.363112 193.691881 
L 372.527539 193.691881 
L 372.527539 191.562772 
L 373.732429 191.562772 
L 373.746808 187.304554 
L 374.413887 187.304554 
L 374.413887 185.175446 
L 375.272168 185.175446 
L 375.272168 183.046337 
L 376.21532 183.046337 
L 376.21532 180.917228 
L 379.091164 180.917228 
L 379.091164 178.788119 
L 380.216961 178.788119 
L 380.216961 176.65901 
L 380.698942 176.65901 
L 380.760539 172.400792 
L 380.999626 172.400792 
L 380.999626 170.271683 
L 384.372499 170.271683 
L 384.43125 166.013465 
L 384.890381 166.013465 
L 384.890381 163.884356 
L 387.993626 163.884356 
L 387.993626 161.755248 
L 389.44534 161.755248 
L 389.44534 159.626139 
L 392.052715 159.626139 
L 392.052715 157.49703 
L 392.606024 157.49703 
L 392.606024 155.367921 
L 393.03793 155.367921 
L 393.05397 151.109703 
L 394.187597 151.109703 
L 394.187597 148.980594 
L 395.009567 148.980594 
L 395.009567 146.851485 
L 395.243884 146.851485 
L 395.243884 144.722376 
L 395.633356 144.722376 
L 395.633356 142.593267 
L 395.757971 142.593267 
L 395.757971 140.464158 
L 396.191473 140.464158 
L 396.191473 138.33505 
L 396.399108 138.33505 
L 396.399108 136.205941 
L 396.543197 136.205941 
L 396.543197 134.076832 
L 396.883434 134.076832 
L 396.883434 131.947723 
L 397.422029 131.947723 
L 397.422029 129.818614 
L 397.776483 129.818614 
L 397.776483 127.689505 
L 398.04237 127.689505 
L 398.04237 125.560396 
L 398.323468 125.560396 
L 398.323468 123.431287 
L 398.495963 123.431287 
L 398.495963 121.302178 
L 398.831318 121.302178 
L 398.831318 119.173069 
L 398.997402 119.173069 
L 398.997402 117.04396 
L 399.701236 117.04396 
L 399.701236 114.914851 
L 399.882189 114.914851 
L 399.882189 112.785743 
L 400.18405 112.785743 
L 400.291001 106.398416 
L 400.448093 106.398416 
L 400.448093 104.269307 
L 400.69967 104.269307 
L 400.801447 97.88198 
L 400.83109 97.88198 
L 400.83109 95.752871 
L 401.207264 95.752871 
L 401.207264 93.623762 
L 401.334821 93.623762 
L 401.360223 89.365545 
L 401.496274 89.365545 
L 401.496274 87.236436 
L 402.518702 87.236436 
L 402.548175 80.849109 
L 402.666041 80.849109 
L 402.666041 78.72 
L 403.034139 78.72 
L 403.034139 76.590891 
L 403.873215 76.590891 
L 403.873215 74.461782 
L 403.995536 74.461782 
L 404.061461 68.074455 
L 405.242776 68.074455 
L 405.242776 65.945347 
L 405.457182 65.945347 
L 405.457182 63.816238 
L 406.223596 63.816238 
L 406.223596 61.687129 
L 406.469378 61.687129 
L 406.469378 59.55802 
L 406.590339 59.55802 
L 406.590339 57.428911 
L 407.382619 57.428911 
L 407.382619 55.299802 
L 408.966218 55.299802 
L 408.966218 53.170693 
L 409.571041 53.170693 
L 409.678879 48.912475 
L 410.150004 48.912475 
L 410.150004 46.783366 
L 410.414054 46.783366 
L 410.414054 44.654257 
L 411.375218 44.654257 
L 411.375218 42.525149 
L 413.238607 42.525149 
L 413.238607 40.39604 
L 413.755423 40.39604 
L 413.755423 38.266931 
L 416.121639 38.266931 
L 416.121639 36.137822 
L 416.968834 36.137822 
L 416.968834 34.008713 
L 417.563799 34.008713 
L 417.563799 31.879604 
L 418.029747 31.879604 
L 418.029747 29.750495 
L 418.25752 29.750495 
L 418.25752 27.621386 
L 418.426128 27.621386 
L 418.426128 25.492277 
L 418.59986 25.492277 
L 418.59986 23.363168 
L 420.908566 23.363168 
L 420.908566 21.234059 
L 421.623731 21.234059 
L 421.623731 19.10495 
L 423.587862 19.10495 
L 423.587862 16.975842 
L 424.428414 16.975842 
L 424.428414 14.846733 
L 425.378739 14.846733 
L 425.378739 12.717624 
L 426.177765 12.717624 
L 426.177765 10.588515 
L 430.331132 10.588515 
L 430.331132 8.459406 
L 434.317609 8.459406 
L 434.317609 6.330297 
L 434.317609 6.330297 
L 460.8 6.330297 
L 460.8 6.330297 
" style="fill:none;stroke:#bf00bf;stroke-linecap:square;stroke-width:1.5;"/>
   </g>
   <g id="line2d_24">
    <path clip-path="url(#pa3c53f4801)" d="M 46.923048 293.76 
L 46.923048 291.630891 
L 71.140184 291.630891 
L 71.140184 289.501782 
L 72.409711 289.501782 
L 72.409711 287.372673 
L 80.40992 287.372673 
L 80.40992 285.243564 
L 82.152133 285.243564 
L 82.152133 283.114455 
L 84.761245 283.114455 
L 84.761245 280.985347 
L 85.959505 280.985347 
L 85.959505 278.856238 
L 88.535237 278.856238 
L 88.535237 276.727129 
L 89.359588 276.727129 
L 89.359588 274.59802 
L 92.730206 274.59802 
L 92.730206 272.468911 
L 96.161728 272.468911 
L 96.161728 270.339802 
L 96.631124 270.339802 
L 96.631124 268.210693 
L 97.569093 268.210693 
L 97.569093 266.081584 
L 97.877308 266.081584 
L 97.877308 263.952475 
L 98.134736 263.952475 
L 98.134736 261.823366 
L 98.40112 261.823366 
L 98.40112 259.694257 
L 106.406972 259.694257 
L 106.406972 257.565149 
L 107.123003 257.565149 
L 107.123003 255.43604 
L 110.178397 255.43604 
L 110.178397 253.306931 
L 112.124025 253.306931 
L 112.124025 251.177822 
L 112.781488 251.177822 
L 112.781488 249.048713 
L 113.547912 249.048713 
L 113.547912 246.919604 
L 117.460247 246.919604 
L 117.460247 244.790495 
L 119.304498 244.790495 
L 119.304498 242.661386 
L 119.471242 242.661386 
L 119.471242 240.532277 
L 122.865569 240.532277 
L 122.865569 238.403168 
L 125.067684 238.403168 
L 125.067684 236.274059 
L 125.382211 236.274059 
L 125.382211 234.14495 
L 129.884134 234.14495 
L 129.884134 232.015842 
L 131.107341 232.015842 
L 131.107341 229.886733 
L 309.2328 229.886733 
L 309.2328 227.757624 
L 320.917846 227.757624 
L 320.917846 225.628515 
L 322.991493 225.628515 
L 322.991493 223.499406 
L 325.494306 223.499406 
L 325.494306 221.370297 
L 331.296424 221.370297 
L 331.296424 219.241188 
L 336.248266 219.241188 
L 336.248266 217.112079 
L 339.230369 217.112079 
L 339.230369 214.98297 
L 340.175734 214.98297 
L 340.175734 212.853861 
L 341.44746 212.853861 
L 341.44746 210.724752 
L 342.848173 210.724752 
L 342.848173 208.595644 
L 344.761426 208.595644 
L 344.761426 206.466535 
L 348.92805 206.466535 
L 348.92805 204.337426 
L 350.129486 204.337426 
L 350.129486 202.208317 
L 350.438414 202.208317 
L 350.438414 200.079208 
L 351.384746 200.079208 
L 351.384746 197.950099 
L 352.523802 197.950099 
L 352.523802 195.82099 
L 352.834501 195.82099 
L 352.834501 193.691881 
L 353.160535 193.691881 
L 353.160535 191.562772 
L 353.493364 191.562772 
L 353.493364 189.433663 
L 354.256876 189.433663 
L 354.256876 187.304554 
L 355.713657 187.304554 
L 355.713657 185.175446 
L 357.356427 185.175446 
L 357.356427 183.046337 
L 358.552392 183.046337 
L 358.552392 180.917228 
L 361.013072 180.917228 
L 361.013072 178.788119 
L 363.006482 178.788119 
L 363.006482 176.65901 
L 363.492436 176.65901 
L 363.492436 174.529901 
L 368.243393 174.529901 
L 368.243393 172.400792 
L 370.637731 172.400792 
L 370.734695 168.142574 
L 370.84921 168.142574 
L 370.84921 166.013465 
L 377.186028 166.013465 
L 377.186028 163.884356 
L 377.747665 163.884356 
L 377.747665 161.755248 
L 378.86508 161.755248 
L 378.86508 159.626139 
L 379.284876 159.626139 
L 379.284876 157.49703 
L 380.357573 157.49703 
L 380.357573 155.367921 
L 380.953597 155.367921 
L 380.953597 153.238812 
L 381.975295 153.238812 
L 381.975295 151.109703 
L 382.607615 151.109703 
L 382.607615 148.980594 
L 384.139572 148.980594 
L 384.139572 146.851485 
L 384.716121 146.851485 
L 384.716121 144.722376 
L 386.552389 144.722376 
L 386.552389 142.593267 
L 386.845985 142.593267 
L 386.845985 140.464158 
L 387.283972 140.464158 
L 387.283972 138.33505 
L 388.572967 138.33505 
L 388.572967 136.205941 
L 388.976447 136.205941 
L 389.004892 131.947723 
L 389.126792 131.947723 
L 389.126792 129.818614 
L 390.412159 129.818614 
L 390.412159 127.689505 
L 390.910711 127.689505 
L 390.910711 125.560396 
L 391.583327 125.560396 
L 391.610929 121.302178 
L 391.936725 121.302178 
L 391.936725 119.173069 
L 392.067069 119.173069 
L 392.167201 112.785743 
L 392.290441 112.785743 
L 392.290441 110.656634 
L 392.632105 110.656634 
L 392.657781 106.398416 
L 393.406094 106.398416 
L 393.448175 102.140198 
L 393.770219 102.140198 
L 393.770219 100.011089 
L 394.787184 100.011089 
L 394.787184 97.88198 
L 395.543931 97.88198 
L 395.625919 93.623762 
L 395.75218 93.623762 
L 395.75218 91.494653 
L 395.927645 91.494653 
L 395.999581 87.236436 
L 396.087118 87.236436 
L 396.087118 85.107327 
L 396.590097 85.107327 
L 396.621218 80.849109 
L 396.932052 80.849109 
L 396.932052 78.72 
L 397.135227 78.72 
L 397.204147 74.461782 
L 397.286361 74.461782 
L 397.290217 70.203564 
L 397.492079 70.203564 
L 397.492079 68.074455 
L 398.198748 68.074455 
L 398.198748 65.945347 
L 398.739677 65.945347 
L 398.739677 63.816238 
L 399.345576 63.816238 
L 399.345576 61.687129 
L 399.841205 61.687129 
L 399.896921 57.428911 
L 400.117468 57.428911 
L 400.117468 55.299802 
L 400.416324 55.299802 
L 400.457621 51.041584 
L 400.740966 51.041584 
L 400.740966 48.912475 
L 401.684871 48.912475 
L 401.684871 46.783366 
L 403.036322 46.783366 
L 403.045693 42.525149 
L 403.634011 42.525149 
L 403.634011 40.39604 
L 403.851581 40.39604 
L 403.851581 38.266931 
L 405.002792 38.266931 
L 405.002792 36.137822 
L 406.782562 36.137822 
L 406.813273 31.879604 
L 407.456137 31.879604 
L 407.456137 29.750495 
L 409.719034 29.750495 
L 409.719034 27.621386 
L 410.77317 27.621386 
L 410.77317 25.492277 
L 413.374228 25.492277 
L 413.374228 23.363168 
L 413.736137 23.363168 
L 413.736137 21.234059 
L 414.197175 21.234059 
L 414.197175 19.10495 
L 416.35183 19.10495 
L 416.35183 16.975842 
L 416.546652 16.975842 
L 416.546652 14.846733 
L 418.85719 14.846733 
L 418.85719 12.717624 
L 421.602678 12.717624 
L 421.602678 10.588515 
L 421.764028 10.588515 
L 421.764028 8.459406 
L 434.037434 8.459406 
L 434.037434 6.330297 
L 434.037434 6.330297 
L 460.8 6.330297 
L 460.8 6.330297 
" style="fill:none;stroke:#000000;stroke-linecap:square;stroke-width:1.5;"/>
   </g>
   <g id="line2d_25">
    <path clip-path="url(#pa3c53f4801)" d="M -1 268.210693 
L 3.687041 268.210693 
L 3.687041 266.081584 
L 4.982245 266.081584 
L 4.982245 263.952475 
L 14.092001 263.952475 
L 14.092001 261.823366 
L 26.147922 261.823366 
L 26.147922 259.694257 
L 28.584339 259.694257 
L 28.584339 257.565149 
L 29.413089 257.565149 
L 29.413089 255.43604 
L 37.931648 255.43604 
L 37.931648 253.306931 
L 46.923048 253.306931 
L 46.923048 251.177822 
L 50.632526 251.177822 
L 50.632526 249.048713 
L 59.88942 249.048713 
L 59.88942 246.919604 
L 61.417236 246.919604 
L 61.417236 244.790495 
L 61.846429 244.790495 
L 61.846429 242.661386 
L 70.894162 242.661386 
L 70.894162 240.532277 
L 72.455593 240.532277 
L 72.455593 238.403168 
L 81.922267 238.403168 
L 81.922267 236.274059 
L 85.163353 236.274059 
L 85.163353 234.14495 
L 92.730206 234.14495 
L 92.730206 232.015842 
L 102.987267 232.015842 
L 102.987267 229.886733 
L 162.1476 229.886733 
L 162.1476 227.757624 
L 164.528364 227.757624 
L 164.528364 225.628515 
L 164.906644 225.628515 
L 164.906644 223.499406 
L 167.05862 223.499406 
L 167.05862 221.370297 
L 168.746406 221.370297 
L 168.746406 219.241188 
L 171.020293 219.241188 
L 171.020293 217.112079 
L 173.730257 217.112079 
L 173.730257 214.98297 
L 183.037437 214.98297 
L 183.037437 212.853861 
L 194.738674 212.853861 
L 194.738674 210.724752 
L 215.228699 210.724752 
L 215.228699 208.595644 
L 231.46529 208.595644 
L 231.46529 206.466535 
L 248.021565 206.466535 
L 248.021565 204.337426 
L 282.021336 204.337426 
L 282.021336 202.208317 
L 307.996293 202.208317 
L 307.996293 200.079208 
L 310.220035 200.079208 
L 310.220035 197.950099 
L 311.553695 197.950099 
L 311.553695 195.82099 
L 312.101824 195.82099 
L 312.101824 193.691881 
L 316.794627 193.691881 
L 316.794627 191.562772 
L 323.775297 191.562772 
L 323.775297 189.433663 
L 325.132592 189.433663 
L 325.132592 187.304554 
L 326.173604 187.304554 
L 326.173604 185.175446 
L 326.586794 185.175446 
L 326.586794 183.046337 
L 327.720357 183.046337 
L 327.720357 180.917228 
L 330.948616 180.917228 
L 330.948616 178.788119 
L 334.364268 178.788119 
L 334.364268 176.65901 
L 334.771683 176.65901 
L 334.771683 174.529901 
L 335.602373 174.529901 
L 335.602373 172.400792 
L 342.265495 172.400792 
L 342.265495 170.271683 
L 348.565236 170.271683 
L 348.565236 168.142574 
L 351.863151 168.142574 
L 351.863151 166.013465 
L 352.188579 166.013465 
L 352.188579 163.884356 
L 356.081338 163.884356 
L 356.081338 161.755248 
L 357.292466 161.755248 
L 357.292466 159.626139 
L 361.672443 159.626139 
L 361.745361 155.367921 
L 361.912949 155.367921 
L 361.912949 153.238812 
L 362.15023 153.238812 
L 362.15023 151.109703 
L 364.552635 151.109703 
L 364.552635 148.980594 
L 365.136294 148.980594 
L 365.136294 146.851485 
L 366.487508 146.851485 
L 366.487508 144.722376 
L 367.599346 144.722376 
L 367.599346 142.593267 
L 368.000511 142.593267 
L 368.000511 140.464158 
L 368.615935 140.464158 
L 368.615935 138.33505 
L 370.253201 138.33505 
L 370.253201 136.205941 
L 372.114356 136.205941 
L 372.114356 134.076832 
L 372.265537 134.076832 
L 372.324594 129.818614 
L 374.392091 129.818614 
L 374.392091 127.689505 
L 374.701739 127.689505 
L 374.791653 123.431287 
L 376.005939 123.431287 
L 376.005939 121.302178 
L 379.276853 121.302178 
L 379.276853 119.173069 
L 379.68002 119.173069 
L 379.68002 117.04396 
L 380.142643 117.04396 
L 380.142643 114.914851 
L 380.949532 114.914851 
L 380.949532 112.785743 
L 381.438931 112.785743 
L 381.438931 110.656634 
L 382.462118 110.656634 
L 382.462118 108.527525 
L 382.829773 108.527525 
L 382.829773 106.398416 
L 383.194193 106.398416 
L 383.194193 104.269307 
L 383.855285 104.269307 
L 383.960117 100.011089 
L 385.130909 100.011089 
L 385.130909 97.88198 
L 385.96173 97.88198 
L 385.96173 95.752871 
L 386.465441 95.752871 
L 386.465441 93.623762 
L 388.322898 93.623762 
L 388.322898 91.494653 
L 388.528212 91.494653 
L 388.528212 89.365545 
L 389.332028 89.365545 
L 389.332028 87.236436 
L 389.445897 87.236436 
L 389.445897 85.107327 
L 390.205642 85.107327 
L 390.205642 82.978218 
L 390.617 82.978218 
L 390.617 80.849109 
L 390.731169 80.849109 
L 390.80472 76.590891 
L 391.077306 76.590891 
L 391.077306 74.461782 
L 391.532102 74.461782 
L 391.538384 70.203564 
L 392.352008 70.203564 
L 392.352008 68.074455 
L 392.921631 68.074455 
L 392.921631 65.945347 
L 393.603261 65.945347 
L 393.603261 63.816238 
L 393.770528 63.816238 
L 393.860377 57.428911 
L 395.592142 57.428911 
L 395.592142 55.299802 
L 395.992708 55.299802 
L 396.080885 44.654257 
L 396.151372 44.654257 
L 396.18668 40.39604 
L 396.752363 40.39604 
L 396.813502 36.137822 
L 397.113517 36.137822 
L 397.113517 34.008713 
L 397.563128 34.008713 
L 397.563128 31.879604 
L 397.685556 31.879604 
L 397.685556 29.750495 
L 397.963318 29.750495 
L 397.963318 27.621386 
L 398.426384 27.621386 
L 398.516544 21.234059 
L 399.138309 21.234059 
L 399.138309 19.10495 
L 399.666574 19.10495 
L 399.666574 16.975842 
L 401.038761 16.975842 
L 401.038761 14.846733 
L 401.843136 14.846733 
L 401.843136 12.717624 
L 405.412619 12.717624 
L 405.412619 10.588515 
L 406.196355 10.588515 
L 406.196355 8.459406 
L 416.271104 8.459406 
L 416.271104 6.330297 
L 416.271104 6.330297 
L 460.8 6.330297 
L 460.8 6.330297 
" style="fill:none;stroke:#00bfbf;stroke-linecap:square;stroke-width:1.5;"/>
   </g>
   <g id="line2d_26">
    <path clip-path="url(#pa3c53f4801)" d="M -1 249.048713 
L 2.772901 249.048713 
L 2.801697 244.790495 
L 3.612654 244.790495 
L 3.612654 242.661386 
L 8.166319 242.661386 
L 8.166319 240.532277 
L 9.430476 240.532277 
L 9.430476 238.403168 
L 16.374617 238.403168 
L 16.374617 236.274059 
L 18.288306 236.274059 
L 18.288306 234.14495 
L 20.782241 234.14495 
L 20.782241 232.015842 
L 21.30969 232.015842 
L 21.30969 229.886733 
L 26.817158 229.886733 
L 26.817158 227.757624 
L 28.730264 227.757624 
L 28.730264 225.628515 
L 34.480701 225.628515 
L 34.480701 223.499406 
L 36.614671 223.499406 
L 36.614671 221.370297 
L 40.159821 221.370297 
L 40.267615 217.112079 
L 40.409094 217.112079 
L 40.409094 214.98297 
L 43.949329 214.98297 
L 43.949329 212.853861 
L 44.419778 212.853861 
L 44.419778 210.724752 
L 48.885249 210.724752 
L 48.885249 208.595644 
L 50.23209 208.595644 
L 50.23209 206.466535 
L 50.468743 206.466535 
L 50.468743 204.337426 
L 55.960485 204.337426 
L 55.960485 202.208317 
L 58.960974 202.208317 
L 58.960974 200.079208 
L 61.141593 200.079208 
L 61.141593 197.950099 
L 73.575134 197.950099 
L 73.575134 195.82099 
L 88.85497 195.82099 
L 88.85497 193.691881 
L 95.126754 193.691881 
L 95.126754 191.562772 
L 105.420908 191.562772 
L 105.420908 189.433663 
L 109.165192 189.433663 
L 109.165192 187.304554 
L 128.823876 187.304554 
L 128.823876 185.175446 
L 130.683092 185.175446 
L 130.683092 183.046337 
L 136.325259 183.046337 
L 136.325259 180.917228 
L 139.266481 180.917228 
L 139.266481 178.788119 
L 140.115148 178.788119 
L 140.115148 176.65901 
L 140.998416 176.65901 
L 140.998416 174.529901 
L 147.861265 174.529901 
L 147.861265 172.400792 
L 149.262857 172.400792 
L 149.262857 170.271683 
L 156.594719 170.271683 
L 156.594719 168.142574 
L 158.973791 168.142574 
L 158.973791 166.013465 
L 160.918854 166.013465 
L 160.918854 163.884356 
L 162.1476 163.884356 
L 162.1476 161.755248 
L 162.641226 161.755248 
L 162.641226 159.626139 
L 164.528364 159.626139 
L 164.528364 157.49703 
L 167.720214 157.49703 
L 167.720214 155.367921 
L 169.690597 155.367921 
L 169.690597 153.238812 
L 170.08329 153.238812 
L 170.08329 151.109703 
L 174.521303 151.109703 
L 174.521303 148.980594 
L 175.407723 148.980594 
L 175.407723 146.851485 
L 176.684631 146.851485 
L 176.684631 144.722376 
L 187.854294 144.722376 
L 187.854294 142.593267 
L 188.741178 142.593267 
L 188.741178 140.464158 
L 189.1046 140.464158 
L 189.1046 138.33505 
L 202.327289 138.33505 
L 202.327289 136.205941 
L 240.696129 136.205941 
L 240.696129 134.076832 
L 257.732897 134.076832 
L 257.732897 131.947723 
L 269.489407 131.947723 
L 269.489407 129.818614 
L 273.926306 129.818614 
L 273.926306 127.689505 
L 276.985406 127.689505 
L 276.985406 125.560396 
L 277.321525 125.560396 
L 277.321525 123.431287 
L 277.700544 123.431287 
L 277.700544 121.302178 
L 281.293712 121.302178 
L 281.293712 119.173069 
L 282.217162 119.173069 
L 282.217162 117.04396 
L 284.588325 117.04396 
L 284.588325 114.914851 
L 287.262509 114.914851 
L 287.262509 112.785743 
L 287.373996 112.785743 
L 287.373996 110.656634 
L 289.531892 110.656634 
L 289.532201 106.398416 
L 289.960857 106.398416 
L 289.960857 104.269307 
L 291.793307 104.269307 
L 291.793307 102.140198 
L 292.253478 102.140198 
L 292.253478 100.011089 
L 295.012494 100.011089 
L 295.012494 97.88198 
L 301.253001 97.88198 
L 301.253001 95.752871 
L 307.815182 95.752871 
L 307.815182 93.623762 
L 308.977994 93.623762 
L 308.977994 91.494653 
L 312.944734 91.494653 
L 312.944734 89.365545 
L 314.094946 89.365545 
L 314.094946 87.236436 
L 315.101872 87.236436 
L 315.101872 85.107327 
L 319.512934 85.107327 
L 319.512934 82.978218 
L 324.021185 82.978218 
L 324.021185 80.849109 
L 330.858879 80.849109 
L 330.858879 78.72 
L 331.786714 78.72 
L 331.786714 76.590891 
L 343.873357 76.590891 
L 343.873357 74.461782 
L 350.863032 74.461782 
L 350.863032 72.332673 
L 354.462043 72.332673 
L 354.462043 70.203564 
L 374.254402 70.203564 
L 374.254402 68.074455 
L 375.030316 68.074455 
L 375.030316 65.945347 
L 376.069392 65.945347 
L 376.069392 63.816238 
L 378.760277 63.816238 
L 378.760277 61.687129 
L 379.490873 61.687129 
L 379.490873 59.55802 
L 381.770114 59.55802 
L 381.874336 55.299802 
L 383.518992 55.299802 
L 383.518992 53.170693 
L 383.72588 53.170693 
L 383.72588 51.041584 
L 385.001341 51.041584 
L 385.001341 48.912475 
L 385.988606 48.912475 
L 385.988606 46.783366 
L 386.109781 46.783366 
L 386.109781 44.654257 
L 387.297582 44.654257 
L 387.297582 42.525149 
L 388.792983 42.525149 
L 388.792983 40.39604 
L 388.973779 40.39604 
L 388.973779 38.266931 
L 389.354538 38.266931 
L 389.44464 34.008713 
L 389.801229 34.008713 
L 389.801229 31.879604 
L 389.995301 31.879604 
L 389.995301 29.750495 
L 390.586032 29.750495 
L 390.586032 27.621386 
L 391.023186 27.621386 
L 391.023186 25.492277 
L 391.567946 25.492277 
L 391.567946 23.363168 
L 391.890469 23.363168 
L 391.890469 21.234059 
L 392.641027 21.234059 
L 392.641027 19.10495 
L 393.011789 19.10495 
L 393.094249 14.846733 
L 393.305448 14.846733 
L 393.305448 12.717624 
L 395.159859 12.717624 
L 395.159859 10.588515 
L 395.70904 10.588515 
L 395.70904 8.459406 
L 401.730317 8.459406 
L 401.730317 6.330297 
L 401.730317 6.330297 
L 460.8 6.330297 
L 460.8 6.330297 
" style="fill:none;stroke:#bf00bf;stroke-linecap:square;stroke-width:1.5;"/>
   </g>
   <g id="line2d_27">
    <path clip-path="url(#pa3c53f4801)" d="M -1 232.015842 
L -0.582404 232.015842 
L -0.582404 229.886733 
L 12.663319 229.886733 
L 12.663319 227.757624 
L 13.382578 227.757624 
L 13.382578 225.628515 
L 17.993869 225.628515 
L 17.993869 223.499406 
L 20.782241 223.499406 
L 20.782241 221.370297 
L 28.455537 221.370297 
L 28.455537 219.241188 
L 28.730264 219.241188 
L 28.730264 217.112079 
L 34.465842 217.112079 
L 34.465842 214.98297 
L 36.384339 214.98297 
L 36.384339 212.853861 
L 36.903081 212.853861 
L 36.903081 210.724752 
L 39.61017 210.724752 
L 39.687161 206.466535 
L 39.765125 206.466535 
L 39.765125 204.337426 
L 40.796412 204.337426 
L 40.796412 202.208317 
L 50.468743 202.208317 
L 50.468743 200.079208 
L 54.907725 200.079208 
L 54.907725 197.950099 
L 61.141593 197.950099 
L 61.141593 195.82099 
L 69.292915 195.82099 
L 69.292915 193.691881 
L 70.948075 193.691881 
L 70.948075 191.562772 
L 88.85497 191.562772 
L 88.85497 189.433663 
L 89.763523 189.433663 
L 89.763523 187.304554 
L 93.822252 187.304554 
L 93.822252 185.175446 
L 94.950593 185.175446 
L 94.950593 183.046337 
L 96.441621 183.046337 
L 96.441621 180.917228 
L 105.420908 180.917228 
L 105.420908 178.788119 
L 119.966174 178.788119 
L 119.966174 176.65901 
L 122.725652 176.65901 
L 122.725652 174.529901 
L 123.119482 174.529901 
L 123.119482 172.400792 
L 130.683092 172.400792 
L 130.683092 170.271683 
L 131.076635 170.271683 
L 131.076635 168.142574 
L 131.987903 168.142574 
L 131.987903 166.013465 
L 140.998416 166.013465 
L 140.998416 163.884356 
L 141.574013 163.884356 
L 141.574013 161.755248 
L 147.859446 161.755248 
L 147.859446 159.626139 
L 149.26012 159.626139 
L 149.26012 157.49703 
L 158.973791 157.49703 
L 158.973791 155.367921 
L 160.918854 155.367921 
L 160.918854 153.238812 
L 161.937033 153.238812 
L 161.937033 151.109703 
L 162.1476 151.109703 
L 162.1476 148.980594 
L 162.640741 148.980594 
L 162.640741 146.851485 
L 164.528364 146.851485 
L 164.528364 144.722376 
L 167.720214 144.722376 
L 167.720214 142.593267 
L 169.690597 142.593267 
L 169.690597 140.464158 
L 170.08329 140.464158 
L 170.08329 138.33505 
L 171.354398 138.33505 
L 171.354398 136.205941 
L 175.407723 136.205941 
L 175.407723 134.076832 
L 216.638397 134.076832 
L 216.638397 131.947723 
L 238.683048 131.947723 
L 238.683048 129.818614 
L 247.409938 129.818614 
L 247.409938 127.689505 
L 248.931257 127.689505 
L 248.931257 125.560396 
L 255.749356 125.560396 
L 255.749356 123.431287 
L 256.038898 123.431287 
L 256.038898 121.302178 
L 256.703621 121.302178 
L 256.703621 119.173069 
L 257.549542 119.173069 
L 257.549542 117.04396 
L 261.479011 117.04396 
L 261.479011 114.914851 
L 264.75744 114.914851 
L 264.75744 112.785743 
L 265.113967 112.785743 
L 265.113967 110.656634 
L 268.017995 110.656634 
L 268.095639 106.398416 
L 268.270364 106.398416 
L 268.270364 104.269307 
L 268.698251 104.269307 
L 268.698251 102.140198 
L 269.217891 102.140198 
L 269.217891 100.011089 
L 269.659788 100.011089 
L 269.659788 97.88198 
L 270.172137 97.88198 
L 270.172137 95.752871 
L 276.331089 95.752871 
L 276.331089 93.623762 
L 278.023681 93.623762 
L 278.023681 91.494653 
L 282.261139 91.494653 
L 282.261139 89.365545 
L 283.438129 89.365545 
L 283.438129 87.236436 
L 286.245421 87.236436 
L 286.245421 85.107327 
L 295.847476 85.107327 
L 295.847476 82.978218 
L 296.346596 82.978218 
L 296.346596 80.849109 
L 298.289241 80.849109 
L 298.289241 78.72 
L 298.93154 78.72 
L 298.93154 76.590891 
L 319.611608 76.590891 
L 319.611608 74.461782 
L 321.37632 74.461782 
L 321.37632 72.332673 
L 325.217451 72.332673 
L 325.217451 70.203564 
L 363.874422 70.203564 
L 363.874422 68.074455 
L 368.273007 68.074455 
L 368.273007 65.945347 
L 368.886641 65.945347 
L 368.886641 63.816238 
L 371.28833 63.816238 
L 371.28833 61.687129 
L 371.756693 61.687129 
L 371.756693 59.55802 
L 372.286136 59.55802 
L 372.286136 57.428911 
L 374.195886 57.428911 
L 374.195886 55.299802 
L 374.515576 55.299802 
L 374.515576 53.170693 
L 375.715242 53.170693 
L 375.715242 51.041584 
L 376.192206 51.041584 
L 376.192206 48.912475 
L 380.183322 48.912475 
L 380.183322 46.783366 
L 381.87414 46.783366 
L 381.87414 44.654257 
L 382.253944 44.654257 
L 382.253944 42.525149 
L 382.488102 42.525149 
L 382.488102 40.39604 
L 383.076673 40.39604 
L 383.076673 38.266931 
L 383.201869 38.266931 
L 383.207432 34.008713 
L 383.608326 34.008713 
L 383.608326 31.879604 
L 384.900235 31.879604 
L 384.900235 29.750495 
L 385.135487 29.750495 
L 385.135487 27.621386 
L 385.372218 27.621386 
L 385.384853 23.363168 
L 385.80045 23.363168 
L 385.80045 21.234059 
L 386.516953 21.234059 
L 386.516953 19.10495 
L 389.170341 19.10495 
L 389.170341 16.975842 
L 390.679773 16.975842 
L 390.679773 14.846733 
L 390.994806 14.846733 
L 390.994806 12.717624 
L 391.187931 12.717624 
L 391.187931 10.588515 
L 394.453427 10.588515 
L 394.453427 8.459406 
L 401.485823 8.459406 
L 401.485823 6.330297 
L 401.485823 6.330297 
L 460.8 6.330297 
L 460.8 6.330297 
" style="fill:none;stroke:#000000;stroke-linecap:square;stroke-width:1.5;"/>
   </g>
   <g id="patch_3">
    <path d="M 0 293.76 
L 0 3.456 
" style="fill:none;stroke:#000000;stroke-linecap:square;stroke-linejoin:miter;stroke-width:0.8;"/>
   </g>
   <g id="patch_4">
    <path d="M 460.8 293.76 
L 460.8 3.456 
" style="fill:none;stroke:#000000;stroke-linecap:square;stroke-linejoin:miter;stroke-width:0.8;"/>
   </g>
   <g id="patch_5">
    <path d="M 0 293.76 
L 460.8 293.76 
" style="fill:none;stroke:#000000;stroke-linecap:square;stroke-linejoin:miter;stroke-width:0.8;"/>
   </g>
   <g id="patch_6">
    <path d="M 0 3.456 
L 460.8 3.456 
" style="fill:none;stroke:#000000;stroke-linecap:square;stroke-linejoin:miter;stroke-width:0.8;"/>
   </g>
   <g id="text_6">
    <!-- {f2, f8, f14, f20, f26, f32, f38, f44, f50}, 20-D -->
    <g transform="translate(-3.30975 287.95392)scale(0.2 -0.2)">
     <defs>
      <path d="M 51.125 -9.28125 
L 51.125 -16.3125 
L 48.09375 -16.3125 
Q 35.9375 -16.3125 31.8125 -12.6875 
Q 27.6875 -9.078125 27.6875 1.703125 
L 27.6875 13.375 
Q 27.6875 20.75 25.046875 23.578125 
Q 22.40625 26.421875 15.484375 26.421875 
L 12.5 26.421875 
L 12.5 33.40625 
L 15.484375 33.40625 
Q 22.46875 33.40625 25.078125 36.203125 
Q 27.6875 39.015625 27.6875 46.296875 
L 27.6875 58.015625 
Q 27.6875 68.796875 31.8125 72.390625 
Q 35.9375 75.984375 48.09375 75.984375 
L 51.125 75.984375 
L 51.125 69 
L 47.796875 69 
Q 40.921875 69 38.8125 66.84375 
Q 36.71875 64.703125 36.71875 57.8125 
L 36.71875 45.703125 
Q 36.71875 38.03125 34.5 34.5625 
Q 32.28125 31.109375 26.90625 29.890625 
Q 32.328125 28.5625 34.515625 25.09375 
Q 36.71875 21.625 36.71875 14.015625 
L 36.71875 1.90625 
Q 36.71875 -4.984375 38.8125 -7.125 
Q 40.921875 -9.28125 47.796875 -9.28125 
z
" id="DejaVuSans-123"/>
      <path d="M 11.71875 12.40625 
L 22.015625 12.40625 
L 22.015625 4 
L 14.015625 -11.625 
L 7.71875 -11.625 
L 11.71875 4 
z
" id="DejaVuSans-44"/>
      <path d="M 31.78125 34.625 
Q 24.75 34.625 20.71875 30.859375 
Q 16.703125 27.09375 16.703125 20.515625 
Q 16.703125 13.921875 20.71875 10.15625 
Q 24.75 6.390625 31.78125 6.390625 
Q 38.8125 6.390625 42.859375 10.171875 
Q 46.921875 13.96875 46.921875 20.515625 
Q 46.921875 27.09375 42.890625 30.859375 
Q 38.875 34.625 31.78125 34.625 
z
M 21.921875 38.8125 
Q 15.578125 40.375 12.03125 44.71875 
Q 8.5 49.078125 8.5 55.328125 
Q 8.5 64.0625 14.71875 69.140625 
Q 20.953125 74.21875 31.78125 74.21875 
Q 42.671875 74.21875 48.875 69.140625 
Q 55.078125 64.0625 55.078125 55.328125 
Q 55.078125 49.078125 51.53125 44.71875 
Q 48 40.375 41.703125 38.8125 
Q 48.828125 37.15625 52.796875 32.3125 
Q 56.78125 27.484375 56.78125 20.515625 
Q 56.78125 9.90625 50.3125 4.234375 
Q 43.84375 -1.421875 31.78125 -1.421875 
Q 19.734375 -1.421875 13.25 4.234375 
Q 6.78125 9.90625 6.78125 20.515625 
Q 6.78125 27.484375 10.78125 32.3125 
Q 14.796875 37.15625 21.921875 38.8125 
z
M 18.3125 54.390625 
Q 18.3125 48.734375 21.84375 45.5625 
Q 25.390625 42.390625 31.78125 42.390625 
Q 38.140625 42.390625 41.71875 45.5625 
Q 45.3125 48.734375 45.3125 54.390625 
Q 45.3125 60.0625 41.71875 63.234375 
Q 38.140625 66.40625 31.78125 66.40625 
Q 25.390625 66.40625 21.84375 63.234375 
Q 18.3125 60.0625 18.3125 54.390625 
z
" id="DejaVuSans-56"/>
      <path d="M 33.015625 40.375 
Q 26.375 40.375 22.484375 35.828125 
Q 18.609375 31.296875 18.609375 23.390625 
Q 18.609375 15.53125 22.484375 10.953125 
Q 26.375 6.390625 33.015625 6.390625 
Q 39.65625 6.390625 43.53125 10.953125 
Q 47.40625 15.53125 47.40625 23.390625 
Q 47.40625 31.296875 43.53125 35.828125 
Q 39.65625 40.375 33.015625 40.375 
z
M 52.59375 71.296875 
L 52.59375 62.3125 
Q 48.875 64.0625 45.09375 64.984375 
Q 41.3125 65.921875 37.59375 65.921875 
Q 27.828125 65.921875 22.671875 59.328125 
Q 17.53125 52.734375 16.796875 39.40625 
Q 19.671875 43.65625 24.015625 45.921875 
Q 28.375 48.1875 33.59375 48.1875 
Q 44.578125 48.1875 50.953125 41.515625 
Q 57.328125 34.859375 57.328125 23.390625 
Q 57.328125 12.15625 50.6875 5.359375 
Q 44.046875 -1.421875 33.015625 -1.421875 
Q 20.359375 -1.421875 13.671875 8.265625 
Q 6.984375 17.96875 6.984375 36.375 
Q 6.984375 53.65625 15.1875 63.9375 
Q 23.390625 74.21875 37.203125 74.21875 
Q 40.921875 74.21875 44.703125 73.484375 
Q 48.484375 72.75 52.59375 71.296875 
z
" id="DejaVuSans-54"/>
      <path d="M 40.578125 39.3125 
Q 47.65625 37.796875 51.625 33 
Q 55.609375 28.21875 55.609375 21.1875 
Q 55.609375 10.40625 48.1875 4.484375 
Q 40.765625 -1.421875 27.09375 -1.421875 
Q 22.515625 -1.421875 17.65625 -0.515625 
Q 12.796875 0.390625 7.625 2.203125 
L 7.625 11.71875 
Q 11.71875 9.328125 16.59375 8.109375 
Q 21.484375 6.890625 26.8125 6.890625 
Q 36.078125 6.890625 40.9375 10.546875 
Q 45.796875 14.203125 45.796875 21.1875 
Q 45.796875 27.640625 41.28125 31.265625 
Q 36.765625 34.90625 28.71875 34.90625 
L 20.21875 34.90625 
L 20.21875 43.015625 
L 29.109375 43.015625 
Q 36.375 43.015625 40.234375 45.921875 
Q 44.09375 48.828125 44.09375 54.296875 
Q 44.09375 59.90625 40.109375 62.90625 
Q 36.140625 65.921875 28.71875 65.921875 
Q 24.65625 65.921875 20.015625 65.03125 
Q 15.375 64.15625 9.8125 62.3125 
L 9.8125 71.09375 
Q 15.4375 72.65625 20.34375 73.4375 
Q 25.25 74.21875 29.59375 74.21875 
Q 40.828125 74.21875 47.359375 69.109375 
Q 53.90625 64.015625 53.90625 55.328125 
Q 53.90625 49.265625 50.4375 45.09375 
Q 46.96875 40.921875 40.578125 39.3125 
z
" id="DejaVuSans-51"/>
      <path d="M 12.5 -9.28125 
L 15.921875 -9.28125 
Q 22.75 -9.28125 24.828125 -7.171875 
Q 26.90625 -5.078125 26.90625 1.90625 
L 26.90625 14.015625 
Q 26.90625 21.625 29.09375 25.09375 
Q 31.296875 28.5625 36.71875 29.890625 
Q 31.296875 31.109375 29.09375 34.5625 
Q 26.90625 38.03125 26.90625 45.703125 
L 26.90625 57.8125 
Q 26.90625 64.75 24.828125 66.875 
Q 22.75 69 15.921875 69 
L 12.5 69 
L 12.5 75.984375 
L 15.578125 75.984375 
Q 27.734375 75.984375 31.8125 72.390625 
Q 35.890625 68.796875 35.890625 58.015625 
L 35.890625 46.296875 
Q 35.890625 39.015625 38.515625 36.203125 
Q 41.15625 33.40625 48.09375 33.40625 
L 51.125 33.40625 
L 51.125 26.421875 
L 48.09375 26.421875 
Q 41.15625 26.421875 38.515625 23.578125 
Q 35.890625 20.75 35.890625 13.375 
L 35.890625 1.703125 
Q 35.890625 -9.078125 31.8125 -12.6875 
Q 27.734375 -16.3125 15.578125 -16.3125 
L 12.5 -16.3125 
z
" id="DejaVuSans-125"/>
     </defs>
     <use xlink:href="#DejaVuSans-123"/>
     <use x="63.623047" xlink:href="#DejaVuSans-102"/>
     <use x="98.828125" xlink:href="#DejaVuSans-50"/>
     <use x="162.451172" xlink:href="#DejaVuSans-44"/>
     <use x="194.238281" xlink:href="#DejaVuSans-32"/>
     <use x="226.025391" xlink:href="#DejaVuSans-102"/>
     <use x="261.230469" xlink:href="#DejaVuSans-56"/>
     <use x="324.853516" xlink:href="#DejaVuSans-44"/>
     <use x="356.640625" xlink:href="#DejaVuSans-32"/>
     <use x="388.427734" xlink:href="#DejaVuSans-102"/>
     <use x="423.632812" xlink:href="#DejaVuSans-49"/>
     <use x="487.255859" xlink:href="#DejaVuSans-52"/>
     <use x="550.878906" xlink:href="#DejaVuSans-44"/>
     <use x="582.666016" xlink:href="#DejaVuSans-32"/>
     <use x="614.453125" xlink:href="#DejaVuSans-102"/>
     <use x="649.658203" xlink:href="#DejaVuSans-50"/>
     <use x="713.28125" xlink:href="#DejaVuSans-48"/>
     <use x="776.904297" xlink:href="#DejaVuSans-44"/>
     <use x="808.691406" xlink:href="#DejaVuSans-32"/>
     <use x="840.478516" xlink:href="#DejaVuSans-102"/>
     <use x="875.683594" xlink:href="#DejaVuSans-50"/>
     <use x="939.306641" xlink:href="#DejaVuSans-54"/>
     <use x="1002.929688" xlink:href="#DejaVuSans-44"/>
     <use x="1034.716797" xlink:href="#DejaVuSans-32"/>
     <use x="1066.503906" xlink:href="#DejaVuSans-102"/>
     <use x="1101.708984" xlink:href="#DejaVuSans-51"/>
     <use x="1165.332031" xlink:href="#DejaVuSans-50"/>
     <use x="1228.955078" xlink:href="#DejaVuSans-44"/>
     <use x="1260.742188" xlink:href="#DejaVuSans-32"/>
     <use x="1292.529297" xlink:href="#DejaVuSans-102"/>
     <use x="1327.734375" xlink:href="#DejaVuSans-51"/>
     <use x="1391.357422" xlink:href="#DejaVuSans-56"/>
     <use x="1454.980469" xlink:href="#DejaVuSans-44"/>
     <use x="1486.767578" xlink:href="#DejaVuSans-32"/>
     <use x="1518.554688" xlink:href="#DejaVuSans-102"/>
     <use x="1553.759766" xlink:href="#DejaVuSans-52"/>
     <use x="1617.382812" xlink:href="#DejaVuSans-52"/>
     <use x="1681.005859" xlink:href="#DejaVuSans-44"/>
     <use x="1712.792969" xlink:href="#DejaVuSans-32"/>
     <use x="1744.580078" xlink:href="#DejaVuSans-102"/>
     <use x="1779.785156" xlink:href="#DejaVuSans-53"/>
     <use x="1843.408203" xlink:href="#DejaVuSans-48"/>
     <use x="1907.03125" xlink:href="#DejaVuSans-125"/>
     <use x="1970.654297" xlink:href="#DejaVuSans-44"/>
     <use x="2002.441406" xlink:href="#DejaVuSans-32"/>
     <use x="2034.228516" xlink:href="#DejaVuSans-50"/>
     <use x="2097.851562" xlink:href="#DejaVuSans-48"/>
     <use x="2161.474609" xlink:href="#DejaVuSans-45"/>
     <use x="2197.558594" xlink:href="#DejaVuSans-68"/>
    </g>
   </g>
   <g id="text_7">
    <!-- v2.4.82 -->
    <g style="fill:#808080;" transform="translate(211.5375 288.777272)scale(0.1 -0.1)">
     <defs>
      <path d="M 2.984375 54.6875 
L 12.5 54.6875 
L 29.59375 8.796875 
L 46.6875 54.6875 
L 56.203125 54.6875 
L 35.6875 0 
L 23.484375 0 
z
" id="DejaVuSans-118"/>
      <path d="M 10.6875 12.40625 
L 21 12.40625 
L 21 0 
L 10.6875 0 
z
" id="DejaVuSans-46"/>
     </defs>
     <use xlink:href="#DejaVuSans-118"/>
     <use x="59.179688" xlink:href="#DejaVuSans-50"/>
     <use x="122.802734" xlink:href="#DejaVuSans-46"/>
     <use x="154.589844" xlink:href="#DejaVuSans-52"/>
     <use x="218.212891" xlink:href="#DejaVuSans-46"/>
     <use x="250" xlink:href="#DejaVuSans-56"/>
     <use x="313.623047" xlink:href="#DejaVuSans-50"/>
    </g>
   </g>
  </g>
 </g>
 <defs>
  <clipPath id="pa3c53f4801">
   <rect height="290.304" width="460.8" x="0" y="3.456"/>
  </clipPath>
 </defs>
</svg>
