<?xml version="1.0" encoding="utf-8" standalone="no"?>
<!DOCTYPE svg PUBLIC "-//W3C//DTD SVG 1.1//EN"
  "http://www.w3.org/Graphics/SVG/1.1/DTD/svg11.dtd">
<!-- Created with matplotlib (https://matplotlib.org/) -->
<svg height="345.6pt" version="1.1" viewBox="0 0 460.8 345.6" width="460.8pt" xmlns="http://www.w3.org/2000/svg" xmlns:xlink="http://www.w3.org/1999/xlink">
 <metadata>
  <rdf:RDF xmlns:cc="http://creativecommons.org/ns#" xmlns:dc="http://purl.org/dc/elements/1.1/" xmlns:rdf="http://www.w3.org/1999/02/22-rdf-syntax-ns#">
   <cc:Work>
    <dc:type rdf:resource="http://purl.org/dc/dcmitype/StillImage"/>
    <dc:date>2022-01-14T09:43:06.152750</dc:date>
    <dc:format>image/svg+xml</dc:format>
    <dc:creator>
     <cc:Agent>
      <dc:title>Matplotlib v3.3.3, https://matplotlib.org/</dc:title>
     </cc:Agent>
    </dc:creator>
   </cc:Work>
  </rdf:RDF>
 </metadata>
 <defs>
  <style type="text/css">*{stroke-linecap:butt;stroke-linejoin:round;}</style>
 </defs>
 <g id="figure_1">
  <g id="patch_1">
   <path d="M 0 345.6 
L 460.8 345.6 
L 460.8 0 
L 0 0 
z
" style="fill:#ffffff;"/>
  </g>
  <g id="axes_1">
   <g id="patch_2">
    <path d="M 0 293.76 
L 460.8 293.76 
L 460.8 3.456 
L 0 3.456 
z
" style="fill:#ffffff;"/>
   </g>
   <g id="matplotlib.axis_1">
    <g id="xtick_1">
     <g id="line2d_1">
      <path clip-path="url(#pa10e3a72fa)" d="M 101.784508 293.76 
L 101.784508 3.456 
" style="fill:none;stroke:#b0b0b0;stroke-linecap:square;stroke-width:0.8;"/>
     </g>
     <g id="line2d_2">
      <defs>
       <path d="M 0 0 
L 0 3.5 
" id="mcee94d3a72" style="stroke:#000000;stroke-width:0.8;"/>
      </defs>
      <g>
       <use style="stroke:#000000;stroke-width:0.8;" x="101.784508" xlink:href="#mcee94d3a72" y="293.76"/>
      </g>
     </g>
     <g id="text_1">
      <!-- -5 -->
      <g transform="translate(91.814196 315.956875)scale(0.2 -0.2)">
       <defs>
        <path d="M 4.890625 31.390625 
L 31.203125 31.390625 
L 31.203125 23.390625 
L 4.890625 23.390625 
z
" id="DejaVuSans-45"/>
        <path d="M 10.796875 72.90625 
L 49.515625 72.90625 
L 49.515625 64.59375 
L 19.828125 64.59375 
L 19.828125 46.734375 
Q 21.96875 47.46875 24.109375 47.828125 
Q 26.265625 48.1875 28.421875 48.1875 
Q 40.625 48.1875 47.75 41.5 
Q 54.890625 34.8125 54.890625 23.390625 
Q 54.890625 11.625 47.5625 5.09375 
Q 40.234375 -1.421875 26.90625 -1.421875 
Q 22.3125 -1.421875 17.546875 -0.640625 
Q 12.796875 0.140625 7.71875 1.703125 
L 7.71875 11.625 
Q 12.109375 9.234375 16.796875 8.0625 
Q 21.484375 6.890625 26.703125 6.890625 
Q 35.15625 6.890625 40.078125 11.328125 
Q 45.015625 15.765625 45.015625 23.390625 
Q 45.015625 31 40.078125 35.4375 
Q 35.15625 39.890625 26.703125 39.890625 
Q 22.75 39.890625 18.8125 39.015625 
Q 14.890625 38.140625 10.796875 36.28125 
z
" id="DejaVuSans-53"/>
       </defs>
       <use xlink:href="#DejaVuSans-45"/>
       <use x="36.083984" xlink:href="#DejaVuSans-53"/>
      </g>
     </g>
    </g>
    <g id="xtick_2">
     <g id="line2d_3">
      <path clip-path="url(#pa10e3a72fa)" d="M 203.715844 293.76 
L 203.715844 3.456 
" style="fill:none;stroke:#b0b0b0;stroke-linecap:square;stroke-width:0.8;"/>
     </g>
     <g id="line2d_4">
      <g>
       <use style="stroke:#000000;stroke-width:0.8;" x="203.715844" xlink:href="#mcee94d3a72" y="293.76"/>
      </g>
     </g>
     <g id="text_2">
      <!-- -2 -->
      <g transform="translate(193.745532 315.956875)scale(0.2 -0.2)">
       <defs>
        <path d="M 19.1875 8.296875 
L 53.609375 8.296875 
L 53.609375 0 
L 7.328125 0 
L 7.328125 8.296875 
Q 12.9375 14.109375 22.625 23.890625 
Q 32.328125 33.6875 34.8125 36.53125 
Q 39.546875 41.84375 41.421875 45.53125 
Q 43.3125 49.21875 43.3125 52.78125 
Q 43.3125 58.59375 39.234375 62.25 
Q 35.15625 65.921875 28.609375 65.921875 
Q 23.96875 65.921875 18.8125 64.3125 
Q 13.671875 62.703125 7.8125 59.421875 
L 7.8125 69.390625 
Q 13.765625 71.78125 18.9375 73 
Q 24.125 74.21875 28.421875 74.21875 
Q 39.75 74.21875 46.484375 68.546875 
Q 53.21875 62.890625 53.21875 53.421875 
Q 53.21875 48.921875 51.53125 44.890625 
Q 49.859375 40.875 45.40625 35.40625 
Q 44.1875 33.984375 37.640625 27.21875 
Q 31.109375 20.453125 19.1875 8.296875 
z
" id="DejaVuSans-50"/>
       </defs>
       <use xlink:href="#DejaVuSans-45"/>
       <use x="36.083984" xlink:href="#DejaVuSans-50"/>
      </g>
     </g>
    </g>
    <g id="xtick_3">
     <g id="line2d_5">
      <path clip-path="url(#pa10e3a72fa)" d="M 305.64718 293.76 
L 305.64718 3.456 
" style="fill:none;stroke:#b0b0b0;stroke-linecap:square;stroke-width:0.8;"/>
     </g>
     <g id="line2d_6">
      <g>
       <use style="stroke:#000000;stroke-width:0.8;" x="305.64718" xlink:href="#mcee94d3a72" y="293.76"/>
      </g>
     </g>
     <g id="text_3">
      <!-- 1 -->
      <g transform="translate(299.28468 315.956875)scale(0.2 -0.2)">
       <defs>
        <path d="M 12.40625 8.296875 
L 28.515625 8.296875 
L 28.515625 63.921875 
L 10.984375 60.40625 
L 10.984375 69.390625 
L 28.421875 72.90625 
L 38.28125 72.90625 
L 38.28125 8.296875 
L 54.390625 8.296875 
L 54.390625 0 
L 12.40625 0 
z
" id="DejaVuSans-49"/>
       </defs>
       <use xlink:href="#DejaVuSans-49"/>
      </g>
     </g>
    </g>
    <g id="xtick_4">
     <g id="line2d_7">
      <path clip-path="url(#pa10e3a72fa)" d="M 407.578516 293.76 
L 407.578516 3.456 
" style="fill:none;stroke:#b0b0b0;stroke-linecap:square;stroke-width:0.8;"/>
     </g>
     <g id="line2d_8">
      <g>
       <use style="stroke:#000000;stroke-width:0.8;" x="407.578516" xlink:href="#mcee94d3a72" y="293.76"/>
      </g>
     </g>
     <g id="text_4">
      <!-- 4 -->
      <g transform="translate(401.216016 315.956875)scale(0.2 -0.2)">
       <defs>
        <path d="M 37.796875 64.3125 
L 12.890625 25.390625 
L 37.796875 25.390625 
z
M 35.203125 72.90625 
L 47.609375 72.90625 
L 47.609375 25.390625 
L 58.015625 25.390625 
L 58.015625 17.1875 
L 47.609375 17.1875 
L 47.609375 0 
L 37.796875 0 
L 37.796875 17.1875 
L 4.890625 17.1875 
L 4.890625 26.703125 
z
" id="DejaVuSans-52"/>
       </defs>
       <use xlink:href="#DejaVuSans-52"/>
      </g>
     </g>
    </g>
    <g id="text_5">
     <!-- log10 of Df -->
     <g transform="translate(175.214063 339.313125)scale(0.2 -0.2)">
      <defs>
       <path d="M 9.421875 75.984375 
L 18.40625 75.984375 
L 18.40625 0 
L 9.421875 0 
z
" id="DejaVuSans-108"/>
       <path d="M 30.609375 48.390625 
Q 23.390625 48.390625 19.1875 42.75 
Q 14.984375 37.109375 14.984375 27.296875 
Q 14.984375 17.484375 19.15625 11.84375 
Q 23.34375 6.203125 30.609375 6.203125 
Q 37.796875 6.203125 41.984375 11.859375 
Q 46.1875 17.53125 46.1875 27.296875 
Q 46.1875 37.015625 41.984375 42.703125 
Q 37.796875 48.390625 30.609375 48.390625 
z
M 30.609375 56 
Q 42.328125 56 49.015625 48.375 
Q 55.71875 40.765625 55.71875 27.296875 
Q 55.71875 13.875 49.015625 6.21875 
Q 42.328125 -1.421875 30.609375 -1.421875 
Q 18.84375 -1.421875 12.171875 6.21875 
Q 5.515625 13.875 5.515625 27.296875 
Q 5.515625 40.765625 12.171875 48.375 
Q 18.84375 56 30.609375 56 
z
" id="DejaVuSans-111"/>
       <path d="M 45.40625 27.984375 
Q 45.40625 37.75 41.375 43.109375 
Q 37.359375 48.484375 30.078125 48.484375 
Q 22.859375 48.484375 18.828125 43.109375 
Q 14.796875 37.75 14.796875 27.984375 
Q 14.796875 18.265625 18.828125 12.890625 
Q 22.859375 7.515625 30.078125 7.515625 
Q 37.359375 7.515625 41.375 12.890625 
Q 45.40625 18.265625 45.40625 27.984375 
z
M 54.390625 6.78125 
Q 54.390625 -7.171875 48.1875 -13.984375 
Q 42 -20.796875 29.203125 -20.796875 
Q 24.46875 -20.796875 20.265625 -20.09375 
Q 16.0625 -19.390625 12.109375 -17.921875 
L 12.109375 -9.1875 
Q 16.0625 -11.328125 19.921875 -12.34375 
Q 23.78125 -13.375 27.78125 -13.375 
Q 36.625 -13.375 41.015625 -8.765625 
Q 45.40625 -4.15625 45.40625 5.171875 
L 45.40625 9.625 
Q 42.625 4.78125 38.28125 2.390625 
Q 33.9375 0 27.875 0 
Q 17.828125 0 11.671875 7.65625 
Q 5.515625 15.328125 5.515625 27.984375 
Q 5.515625 40.671875 11.671875 48.328125 
Q 17.828125 56 27.875 56 
Q 33.9375 56 38.28125 53.609375 
Q 42.625 51.21875 45.40625 46.390625 
L 45.40625 54.6875 
L 54.390625 54.6875 
z
" id="DejaVuSans-103"/>
       <path d="M 31.78125 66.40625 
Q 24.171875 66.40625 20.328125 58.90625 
Q 16.5 51.421875 16.5 36.375 
Q 16.5 21.390625 20.328125 13.890625 
Q 24.171875 6.390625 31.78125 6.390625 
Q 39.453125 6.390625 43.28125 13.890625 
Q 47.125 21.390625 47.125 36.375 
Q 47.125 51.421875 43.28125 58.90625 
Q 39.453125 66.40625 31.78125 66.40625 
z
M 31.78125 74.21875 
Q 44.046875 74.21875 50.515625 64.515625 
Q 56.984375 54.828125 56.984375 36.375 
Q 56.984375 17.96875 50.515625 8.265625 
Q 44.046875 -1.421875 31.78125 -1.421875 
Q 19.53125 -1.421875 13.0625 8.265625 
Q 6.59375 17.96875 6.59375 36.375 
Q 6.59375 54.828125 13.0625 64.515625 
Q 19.53125 74.21875 31.78125 74.21875 
z
" id="DejaVuSans-48"/>
       <path id="DejaVuSans-32"/>
       <path d="M 37.109375 75.984375 
L 37.109375 68.5 
L 28.515625 68.5 
Q 23.6875 68.5 21.796875 66.546875 
Q 19.921875 64.59375 19.921875 59.515625 
L 19.921875 54.6875 
L 34.71875 54.6875 
L 34.71875 47.703125 
L 19.921875 47.703125 
L 19.921875 0 
L 10.890625 0 
L 10.890625 47.703125 
L 2.296875 47.703125 
L 2.296875 54.6875 
L 10.890625 54.6875 
L 10.890625 58.5 
Q 10.890625 67.625 15.140625 71.796875 
Q 19.390625 75.984375 28.609375 75.984375 
z
" id="DejaVuSans-102"/>
       <path d="M 19.671875 64.796875 
L 19.671875 8.109375 
L 31.59375 8.109375 
Q 46.6875 8.109375 53.6875 14.9375 
Q 60.6875 21.78125 60.6875 36.53125 
Q 60.6875 51.171875 53.6875 57.984375 
Q 46.6875 64.796875 31.59375 64.796875 
z
M 9.8125 72.90625 
L 30.078125 72.90625 
Q 51.265625 72.90625 61.171875 64.09375 
Q 71.09375 55.28125 71.09375 36.53125 
Q 71.09375 17.671875 61.125 8.828125 
Q 51.171875 0 30.078125 0 
L 9.8125 0 
z
" id="DejaVuSans-68"/>
      </defs>
      <use xlink:href="#DejaVuSans-108"/>
      <use x="27.783203" xlink:href="#DejaVuSans-111"/>
      <use x="88.964844" xlink:href="#DejaVuSans-103"/>
      <use x="152.441406" xlink:href="#DejaVuSans-49"/>
      <use x="216.064453" xlink:href="#DejaVuSans-48"/>
      <use x="279.6875" xlink:href="#DejaVuSans-32"/>
      <use x="311.474609" xlink:href="#DejaVuSans-111"/>
      <use x="372.65625" xlink:href="#DejaVuSans-102"/>
      <use x="407.861328" xlink:href="#DejaVuSans-32"/>
      <use x="439.648438" xlink:href="#DejaVuSans-68"/>
      <use x="516.650391" xlink:href="#DejaVuSans-102"/>
     </g>
    </g>
   </g>
   <g id="matplotlib.axis_2">
    <g id="ytick_1">
     <g id="line2d_9">
      <path clip-path="url(#pa10e3a72fa)" d="M 0 293.76 
L 460.8 293.76 
" style="fill:none;stroke:#b0b0b0;stroke-linecap:square;stroke-width:0.8;"/>
     </g>
     <g id="line2d_10">
      <defs>
       <path d="M 0 0 
L -3.5 0 
" id="ma937e96046" style="stroke:#000000;stroke-width:0.8;"/>
      </defs>
      <g>
       <use style="stroke:#000000;stroke-width:0.8;" x="0" xlink:href="#ma937e96046" y="293.76"/>
      </g>
     </g>
    </g>
    <g id="ytick_2">
     <g id="line2d_11">
      <path clip-path="url(#pa10e3a72fa)" d="M 0 236.274059 
L 460.8 236.274059 
" style="fill:none;stroke:#b0b0b0;stroke-linecap:square;stroke-width:0.8;"/>
     </g>
     <g id="line2d_12">
      <g>
       <use style="stroke:#000000;stroke-width:0.8;" x="0" xlink:href="#ma937e96046" y="236.274059"/>
      </g>
     </g>
    </g>
    <g id="ytick_3">
     <g id="line2d_13">
      <path clip-path="url(#pa10e3a72fa)" d="M 0 178.788119 
L 460.8 178.788119 
" style="fill:none;stroke:#b0b0b0;stroke-linecap:square;stroke-width:0.8;"/>
     </g>
     <g id="line2d_14">
      <g>
       <use style="stroke:#000000;stroke-width:0.8;" x="0" xlink:href="#ma937e96046" y="178.788119"/>
      </g>
     </g>
    </g>
    <g id="ytick_4">
     <g id="line2d_15">
      <path clip-path="url(#pa10e3a72fa)" d="M 0 121.302178 
L 460.8 121.302178 
" style="fill:none;stroke:#b0b0b0;stroke-linecap:square;stroke-width:0.8;"/>
     </g>
     <g id="line2d_16">
      <g>
       <use style="stroke:#000000;stroke-width:0.8;" x="0" xlink:href="#ma937e96046" y="121.302178"/>
      </g>
     </g>
    </g>
    <g id="ytick_5">
     <g id="line2d_17">
      <path clip-path="url(#pa10e3a72fa)" d="M 0 63.816238 
L 460.8 63.816238 
" style="fill:none;stroke:#b0b0b0;stroke-linecap:square;stroke-width:0.8;"/>
     </g>
     <g id="line2d_18">
      <g>
       <use style="stroke:#000000;stroke-width:0.8;" x="0" xlink:href="#ma937e96046" y="63.816238"/>
      </g>
     </g>
    </g>
    <g id="ytick_6">
     <g id="line2d_19">
      <path clip-path="url(#pa10e3a72fa)" d="M 0 6.330297 
L 460.8 6.330297 
" style="fill:none;stroke:#b0b0b0;stroke-linecap:square;stroke-width:0.8;"/>
     </g>
     <g id="line2d_20">
      <g>
       <use style="stroke:#000000;stroke-width:0.8;" x="0" xlink:href="#ma937e96046" y="6.330297"/>
      </g>
     </g>
    </g>
   </g>
   <g id="line2d_21">
    <path clip-path="url(#pa10e3a72fa)" d="M -1 121.302178 
L -0.470933 121.302178 
L -0.470933 111.721188 
L -0.084041 111.721188 
L -0.084041 102.140198 
L 9.251502 102.140198 
L 9.251502 92.559208 
L 18.104536 92.559208 
L 18.104536 82.978218 
L 31.598917 82.978218 
L 31.598917 73.397228 
L 35.125885 73.397228 
L 35.125885 63.816238 
L 38.583618 63.816238 
L 38.583618 54.235248 
L 46.9561 54.235248 
L 46.9561 44.654257 
L 47.12353 44.654257 
L 47.12353 35.073267 
L 84.105536 35.073267 
L 84.105536 25.492277 
L 344.388862 25.492277 
L 344.388862 15.911287 
L 346.6252 15.911287 
L 346.6252 6.330297 
L 346.6252 6.330297 
L 346.6252 6.330297 
L 460.8 6.330297 
" style="fill:none;stroke:#ff0000;stroke-linecap:square;stroke-width:3;"/>
   </g>
   <g id="line2d_22">
    <path clip-path="url(#pa10e3a72fa)" d="M 361.879413 293.76 
L 361.879413 284.17901 
L 362.281495 284.17901 
L 362.281495 274.59802 
L 363.814722 274.59802 
L 363.814722 265.01703 
L 364.287676 265.01703 
L 364.287676 255.43604 
L 364.401311 255.43604 
L 364.401311 245.85505 
L 364.682924 245.85505 
L 364.682924 236.274059 
L 366.564645 236.274059 
L 366.564645 226.693069 
L 367.171191 226.693069 
L 367.171191 217.112079 
L 367.50593 217.112079 
L 367.50593 207.531089 
L 368.066977 207.531089 
L 368.066977 197.950099 
L 369.974191 197.950099 
L 369.974191 188.369109 
L 371.353003 188.369109 
L 371.353003 178.788119 
L 371.467476 178.788119 
L 371.467476 169.207129 
L 372.361014 169.207129 
L 372.361014 159.626139 
L 372.687583 159.626139 
L 372.687583 150.045149 
L 373.462519 150.045149 
L 373.462519 140.464158 
L 373.935582 140.464158 
L 373.935582 130.883168 
L 374.50485 130.883168 
L 374.50485 121.302178 
L 375.221598 121.302178 
L 375.221598 111.721188 
L 375.513219 111.721188 
L 375.513219 102.140198 
L 376.48707 102.140198 
L 376.48707 92.559208 
L 377.081886 92.559208 
L 377.081886 82.978218 
L 377.93001 82.978218 
L 377.93001 73.397228 
L 380.693422 73.397228 
L 380.693422 63.816238 
L 380.907661 63.816238 
L 380.907661 54.235248 
L 381.565355 54.235248 
L 381.565355 44.654257 
L 384.675498 44.654257 
L 384.675498 35.073267 
L 388.745515 35.073267 
L 388.745515 25.492277 
L 389.278696 25.492277 
L 389.278696 15.911287 
L 392.084793 15.911287 
L 392.084793 6.330297 
L 392.084793 6.330297 
L 392.084793 6.330297 
L 460.8 6.330297 
" style="fill:none;stroke:#00bfbf;stroke-linecap:square;stroke-width:1.5;"/>
   </g>
   <g id="line2d_23">
    <path clip-path="url(#pa10e3a72fa)" d="M 361.879412 293.76 
L 361.879412 284.17901 
L 362.281495 284.17901 
L 362.281495 274.59802 
L 363.814722 274.59802 
L 363.814722 265.01703 
L 364.287676 265.01703 
L 364.287676 255.43604 
L 364.401311 255.43604 
L 364.401311 245.85505 
L 364.682924 245.85505 
L 364.682924 236.274059 
L 366.564645 236.274059 
L 366.564645 226.693069 
L 367.171191 226.693069 
L 367.171191 217.112079 
L 367.50593 217.112079 
L 367.50593 207.531089 
L 368.066977 207.531089 
L 368.066977 197.950099 
L 369.974191 197.950099 
L 369.974191 188.369109 
L 371.353003 188.369109 
L 371.353003 178.788119 
L 371.467476 178.788119 
L 371.467476 169.207129 
L 372.361014 169.207129 
L 372.361014 159.626139 
L 372.687583 159.626139 
L 372.687583 150.045149 
L 373.462519 150.045149 
L 373.462519 140.464158 
L 373.935582 140.464158 
L 373.935582 130.883168 
L 374.504849 130.883168 
L 374.504849 121.302178 
L 375.221598 121.302178 
L 375.221598 111.721188 
L 375.513219 111.721188 
L 375.513219 102.140198 
L 376.48707 102.140198 
L 376.48707 92.559208 
L 377.081886 92.559208 
L 377.081886 82.978218 
L 377.93001 82.978218 
L 377.93001 73.397228 
L 380.693422 73.397228 
L 380.693422 63.816238 
L 380.907661 63.816238 
L 380.907661 54.235248 
L 381.565355 54.235248 
L 381.565355 44.654257 
L 384.675498 44.654257 
L 384.675498 35.073267 
L 388.745515 35.073267 
L 388.745515 25.492277 
L 389.278696 25.492277 
L 389.278696 15.911287 
L 392.084793 15.911287 
L 392.084793 6.330297 
L 392.084793 6.330297 
L 392.084793 6.330297 
L 460.8 6.330297 
" style="fill:none;stroke:#bf00bf;stroke-linecap:square;stroke-width:1.5;"/>
   </g>
   <g id="line2d_24">
    <path clip-path="url(#pa10e3a72fa)" d="M 353.735348 293.76 
L 353.735348 284.17901 
L 353.801137 284.17901 
L 353.801137 274.59802 
L 358.121302 274.59802 
L 358.121302 265.01703 
L 360.697811 265.01703 
L 360.697811 255.43604 
L 361.461974 255.43604 
L 361.461974 245.85505 
L 361.662576 245.85505 
L 361.662576 236.274059 
L 362.281495 236.274059 
L 362.281495 226.693069 
L 363.814722 226.693069 
L 363.814722 217.112079 
L 366.3821 217.112079 
L 366.3821 207.531089 
L 366.754382 207.531089 
L 366.754382 197.950099 
L 369.256459 197.950099 
L 369.256459 188.369109 
L 369.658671 188.369109 
L 369.658671 178.788119 
L 369.948202 178.788119 
L 369.948202 169.207129 
L 370.033779 169.207129 
L 370.033779 159.626139 
L 371.247805 159.626139 
L 371.247805 150.045149 
L 371.404599 150.045149 
L 371.404599 140.464158 
L 372.361014 140.464158 
L 372.361014 130.883168 
L 372.563757 130.883168 
L 372.563757 121.302178 
L 373.386283 121.302178 
L 373.386283 111.721188 
L 374.353103 111.721188 
L 374.353103 102.140198 
L 375.023136 102.140198 
L 375.023136 92.559208 
L 375.491494 92.559208 
L 375.491494 82.978218 
L 375.836674 82.978218 
L 375.836674 73.397228 
L 376.48707 73.397228 
L 376.48707 63.816238 
L 379.060595 63.816238 
L 379.060595 54.235248 
L 379.601326 54.235248 
L 379.601326 44.654257 
L 379.912436 44.654257 
L 379.912436 35.073267 
L 388.368515 35.073267 
L 388.368515 25.492277 
L 388.710873 25.492277 
L 388.710873 15.911287 
L 391.23521 15.911287 
L 391.23521 6.330297 
L 391.23521 6.330297 
L 391.23521 6.330297 
L 460.8 6.330297 
" style="fill:none;stroke:#000000;stroke-linecap:square;stroke-width:1.5;"/>
   </g>
   <g id="line2d_25">
    <path clip-path="url(#pa10e3a72fa)" d="M 285.111996 293.76 
L 285.111996 284.17901 
L 347.397726 284.17901 
L 347.397726 274.59802 
L 348.921828 274.59802 
L 348.921828 265.01703 
L 350.148073 265.01703 
L 350.148073 255.43604 
L 354.478402 255.43604 
L 354.478402 245.85505 
L 355.149789 245.85505 
L 355.149789 236.274059 
L 355.888816 236.274059 
L 355.888816 226.693069 
L 358.076789 226.693069 
L 358.076789 217.112079 
L 362.008206 217.112079 
L 362.008206 207.531089 
L 362.223346 207.531089 
L 362.223346 197.950099 
L 363.814722 197.950099 
L 363.814722 188.369109 
L 364.480214 188.369109 
L 364.480214 178.788119 
L 365.306206 178.788119 
L 365.306206 169.207129 
L 365.919794 169.207129 
L 365.919794 159.626139 
L 367.069843 159.626139 
L 367.069843 150.045149 
L 368.179001 150.045149 
L 368.179001 140.464158 
L 368.200527 140.464158 
L 368.200527 130.883168 
L 368.239751 130.883168 
L 368.239751 121.302178 
L 369.220572 121.302178 
L 369.220572 111.721188 
L 369.53835 111.721188 
L 369.53835 102.140198 
L 369.883335 102.140198 
L 369.883335 92.559208 
L 370.832723 92.559208 
L 370.832723 82.978218 
L 371.247805 82.978218 
L 371.247805 73.397228 
L 371.492341 73.397228 
L 371.492341 63.816238 
L 377.57876 63.816238 
L 377.57876 54.235248 
L 377.869315 54.235248 
L 377.869315 44.654257 
L 378.17406 44.654257 
L 378.17406 35.073267 
L 379.410745 35.073267 
L 379.410745 25.492277 
L 382.434171 25.492277 
L 382.434171 15.911287 
L 390.847061 15.911287 
L 390.847061 6.330297 
L 390.847061 6.330297 
L 390.847061 6.330297 
L 460.8 6.330297 
" style="fill:none;stroke:#00bfbf;stroke-linecap:square;stroke-width:1.5;"/>
   </g>
   <g id="line2d_26">
    <path clip-path="url(#pa10e3a72fa)" d="M 45.143768 293.76 
L 45.143768 284.17901 
L 52.532943 284.17901 
L 52.532943 274.59802 
L 79.361899 274.59802 
L 79.361899 265.01703 
L 267.990338 265.01703 
L 267.990338 255.43604 
L 343.642048 255.43604 
L 343.642048 245.85505 
L 344.3505 245.85505 
L 344.3505 236.274059 
L 344.388862 236.274059 
L 344.388862 226.693069 
L 344.418077 226.693069 
L 344.418077 217.112079 
L 345.472771 217.112079 
L 345.472771 207.531089 
L 347.886423 207.531089 
L 347.886423 197.950099 
L 350.023926 197.950099 
L 350.023926 188.369109 
L 351.530597 188.369109 
L 351.530597 178.788119 
L 351.696111 178.788119 
L 351.696111 169.207129 
L 352.941183 169.207129 
L 352.941183 159.626139 
L 353.20357 159.626139 
L 353.20357 150.045149 
L 353.833778 150.045149 
L 353.833778 140.464158 
L 353.837321 140.464158 
L 353.837321 130.883168 
L 354.796908 130.883168 
L 354.796908 121.302178 
L 356.187195 121.302178 
L 356.187195 111.721188 
L 358.812018 111.721188 
L 358.812018 102.140198 
L 359.572128 102.140198 
L 359.572128 92.559208 
L 359.943774 92.559208 
L 359.943774 82.978218 
L 360.287727 82.978218 
L 360.287727 73.397228 
L 360.624482 73.397228 
L 360.624482 63.816238 
L 362.624358 63.816238 
L 362.624358 54.235248 
L 363.236934 54.235248 
L 363.236934 44.654257 
L 364.657137 44.654257 
L 364.657137 35.073267 
L 366.146243 35.073267 
L 366.146243 25.492277 
L 367.688601 25.492277 
L 367.688601 15.911287 
L 374.582647 15.911287 
L 374.582647 6.330297 
L 374.582647 6.330297 
L 374.582647 6.330297 
L 460.8 6.330297 
" style="fill:none;stroke:#bf00bf;stroke-linecap:square;stroke-width:1.5;"/>
   </g>
   <g id="line2d_27">
    <path clip-path="url(#pa10e3a72fa)" d="M -1 255.43604 
L -0.470933 255.43604 
L -0.470933 245.85505 
L -0.084041 245.85505 
L -0.084041 236.274059 
L 6.545704 236.274059 
L 6.545704 226.693069 
L 18.231022 226.693069 
L 18.231022 217.112079 
L 19.886048 217.112079 
L 19.886048 207.531089 
L 26.237171 207.531089 
L 26.237171 197.950099 
L 31.311898 197.950099 
L 31.311898 188.369109 
L 34.600799 188.369109 
L 34.600799 178.788119 
L 38.649283 178.788119 
L 38.649283 169.207129 
L 46.9561 169.207129 
L 46.9561 159.626139 
L 59.52687 159.626139 
L 59.52687 150.045149 
L 62.278954 150.045149 
L 62.278954 140.464158 
L 63.747031 140.464158 
L 63.747031 130.883168 
L 63.989357 130.883168 
L 63.989357 121.302178 
L 67.80224 121.302178 
L 67.80224 111.721188 
L 68.018632 111.721188 
L 68.018632 102.140198 
L 75.110769 102.140198 
L 75.110769 92.559208 
L 77.255519 92.559208 
L 77.255519 82.978218 
L 84.935445 82.978218 
L 84.935445 73.397228 
L 122.266881 73.397228 
L 122.266881 63.816238 
L 344.388862 63.816238 
L 344.388862 54.235248 
L 346.320313 54.235248 
L 346.320313 44.654257 
L 346.391114 44.654257 
L 346.391114 35.073267 
L 348.730623 35.073267 
L 348.730623 25.492277 
L 355.695668 25.492277 
L 355.695668 15.911287 
L 357.455499 15.911287 
L 357.455499 6.330297 
L 357.455499 6.330297 
L 357.455499 6.330297 
L 460.8 6.330297 
" style="fill:none;stroke:#000000;stroke-linecap:square;stroke-width:1.5;"/>
   </g>
   <g id="patch_3">
    <path d="M 0 293.76 
L 0 3.456 
" style="fill:none;stroke:#000000;stroke-linecap:square;stroke-linejoin:miter;stroke-width:0.8;"/>
   </g>
   <g id="patch_4">
    <path d="M 460.8 293.76 
L 460.8 3.456 
" style="fill:none;stroke:#000000;stroke-linecap:square;stroke-linejoin:miter;stroke-width:0.8;"/>
   </g>
   <g id="patch_5">
    <path d="M -0 293.76 
L 460.8 293.76 
" style="fill:none;stroke:#000000;stroke-linecap:square;stroke-linejoin:miter;stroke-width:0.8;"/>
   </g>
   <g id="patch_6">
    <path d="M -0 3.456 
L 460.8 3.456 
" style="fill:none;stroke:#000000;stroke-linecap:square;stroke-linejoin:miter;stroke-width:0.8;"/>
   </g>
   <g id="text_6">
    <!-- {f47, f53}, 5-D -->
    <g transform="translate(300.387125 287.95392)scale(0.2 -0.2)">
     <defs>
      <path d="M 51.125 -9.28125 
L 51.125 -16.3125 
L 48.09375 -16.3125 
Q 35.9375 -16.3125 31.8125 -12.6875 
Q 27.6875 -9.078125 27.6875 1.703125 
L 27.6875 13.375 
Q 27.6875 20.75 25.046875 23.578125 
Q 22.40625 26.421875 15.484375 26.421875 
L 12.5 26.421875 
L 12.5 33.40625 
L 15.484375 33.40625 
Q 22.46875 33.40625 25.078125 36.203125 
Q 27.6875 39.015625 27.6875 46.296875 
L 27.6875 58.015625 
Q 27.6875 68.796875 31.8125 72.390625 
Q 35.9375 75.984375 48.09375 75.984375 
L 51.125 75.984375 
L 51.125 69 
L 47.796875 69 
Q 40.921875 69 38.8125 66.84375 
Q 36.71875 64.703125 36.71875 57.8125 
L 36.71875 45.703125 
Q 36.71875 38.03125 34.5 34.5625 
Q 32.28125 31.109375 26.90625 29.890625 
Q 32.328125 28.5625 34.515625 25.09375 
Q 36.71875 21.625 36.71875 14.015625 
L 36.71875 1.90625 
Q 36.71875 -4.984375 38.8125 -7.125 
Q 40.921875 -9.28125 47.796875 -9.28125 
z
" id="DejaVuSans-123"/>
      <path d="M 8.203125 72.90625 
L 55.078125 72.90625 
L 55.078125 68.703125 
L 28.609375 0 
L 18.3125 0 
L 43.21875 64.59375 
L 8.203125 64.59375 
z
" id="DejaVuSans-55"/>
      <path d="M 11.71875 12.40625 
L 22.015625 12.40625 
L 22.015625 4 
L 14.015625 -11.625 
L 7.71875 -11.625 
L 11.71875 4 
z
" id="DejaVuSans-44"/>
      <path d="M 40.578125 39.3125 
Q 47.65625 37.796875 51.625 33 
Q 55.609375 28.21875 55.609375 21.1875 
Q 55.609375 10.40625 48.1875 4.484375 
Q 40.765625 -1.421875 27.09375 -1.421875 
Q 22.515625 -1.421875 17.65625 -0.515625 
Q 12.796875 0.390625 7.625 2.203125 
L 7.625 11.71875 
Q 11.71875 9.328125 16.59375 8.109375 
Q 21.484375 6.890625 26.8125 6.890625 
Q 36.078125 6.890625 40.9375 10.546875 
Q 45.796875 14.203125 45.796875 21.1875 
Q 45.796875 27.640625 41.28125 31.265625 
Q 36.765625 34.90625 28.71875 34.90625 
L 20.21875 34.90625 
L 20.21875 43.015625 
L 29.109375 43.015625 
Q 36.375 43.015625 40.234375 45.921875 
Q 44.09375 48.828125 44.09375 54.296875 
Q 44.09375 59.90625 40.109375 62.90625 
Q 36.140625 65.921875 28.71875 65.921875 
Q 24.65625 65.921875 20.015625 65.03125 
Q 15.375 64.15625 9.8125 62.3125 
L 9.8125 71.09375 
Q 15.4375 72.65625 20.34375 73.4375 
Q 25.25 74.21875 29.59375 74.21875 
Q 40.828125 74.21875 47.359375 69.109375 
Q 53.90625 64.015625 53.90625 55.328125 
Q 53.90625 49.265625 50.4375 45.09375 
Q 46.96875 40.921875 40.578125 39.3125 
z
" id="DejaVuSans-51"/>
      <path d="M 12.5 -9.28125 
L 15.921875 -9.28125 
Q 22.75 -9.28125 24.828125 -7.171875 
Q 26.90625 -5.078125 26.90625 1.90625 
L 26.90625 14.015625 
Q 26.90625 21.625 29.09375 25.09375 
Q 31.296875 28.5625 36.71875 29.890625 
Q 31.296875 31.109375 29.09375 34.5625 
Q 26.90625 38.03125 26.90625 45.703125 
L 26.90625 57.8125 
Q 26.90625 64.75 24.828125 66.875 
Q 22.75 69 15.921875 69 
L 12.5 69 
L 12.5 75.984375 
L 15.578125 75.984375 
Q 27.734375 75.984375 31.8125 72.390625 
Q 35.890625 68.796875 35.890625 58.015625 
L 35.890625 46.296875 
Q 35.890625 39.015625 38.515625 36.203125 
Q 41.15625 33.40625 48.09375 33.40625 
L 51.125 33.40625 
L 51.125 26.421875 
L 48.09375 26.421875 
Q 41.15625 26.421875 38.515625 23.578125 
Q 35.890625 20.75 35.890625 13.375 
L 35.890625 1.703125 
Q 35.890625 -9.078125 31.8125 -12.6875 
Q 27.734375 -16.3125 15.578125 -16.3125 
L 12.5 -16.3125 
z
" id="DejaVuSans-125"/>
     </defs>
     <use xlink:href="#DejaVuSans-123"/>
     <use x="63.623047" xlink:href="#DejaVuSans-102"/>
     <use x="98.828125" xlink:href="#DejaVuSans-52"/>
     <use x="162.451172" xlink:href="#DejaVuSans-55"/>
     <use x="226.074219" xlink:href="#DejaVuSans-44"/>
     <use x="257.861328" xlink:href="#DejaVuSans-32"/>
     <use x="289.648438" xlink:href="#DejaVuSans-102"/>
     <use x="324.853516" xlink:href="#DejaVuSans-53"/>
     <use x="388.476562" xlink:href="#DejaVuSans-51"/>
     <use x="452.099609" xlink:href="#DejaVuSans-125"/>
     <use x="515.722656" xlink:href="#DejaVuSans-44"/>
     <use x="547.509766" xlink:href="#DejaVuSans-32"/>
     <use x="579.296875" xlink:href="#DejaVuSans-53"/>
     <use x="642.919922" xlink:href="#DejaVuSans-45"/>
     <use x="679.003906" xlink:href="#DejaVuSans-68"/>
    </g>
   </g>
   <g id="text_7">
    <!-- v2.4.82 -->
    <g style="fill:#808080;" transform="translate(211.5375 288.777272)scale(0.1 -0.1)">
     <defs>
      <path d="M 2.984375 54.6875 
L 12.5 54.6875 
L 29.59375 8.796875 
L 46.6875 54.6875 
L 56.203125 54.6875 
L 35.6875 0 
L 23.484375 0 
z
" id="DejaVuSans-118"/>
      <path d="M 10.6875 12.40625 
L 21 12.40625 
L 21 0 
L 10.6875 0 
z
" id="DejaVuSans-46"/>
      <path d="M 31.78125 34.625 
Q 24.75 34.625 20.71875 30.859375 
Q 16.703125 27.09375 16.703125 20.515625 
Q 16.703125 13.921875 20.71875 10.15625 
Q 24.75 6.390625 31.78125 6.390625 
Q 38.8125 6.390625 42.859375 10.171875 
Q 46.921875 13.96875 46.921875 20.515625 
Q 46.921875 27.09375 42.890625 30.859375 
Q 38.875 34.625 31.78125 34.625 
z
M 21.921875 38.8125 
Q 15.578125 40.375 12.03125 44.71875 
Q 8.5 49.078125 8.5 55.328125 
Q 8.5 64.0625 14.71875 69.140625 
Q 20.953125 74.21875 31.78125 74.21875 
Q 42.671875 74.21875 48.875 69.140625 
Q 55.078125 64.0625 55.078125 55.328125 
Q 55.078125 49.078125 51.53125 44.71875 
Q 48 40.375 41.703125 38.8125 
Q 48.828125 37.15625 52.796875 32.3125 
Q 56.78125 27.484375 56.78125 20.515625 
Q 56.78125 9.90625 50.3125 4.234375 
Q 43.84375 -1.421875 31.78125 -1.421875 
Q 19.734375 -1.421875 13.25 4.234375 
Q 6.78125 9.90625 6.78125 20.515625 
Q 6.78125 27.484375 10.78125 32.3125 
Q 14.796875 37.15625 21.921875 38.8125 
z
M 18.3125 54.390625 
Q 18.3125 48.734375 21.84375 45.5625 
Q 25.390625 42.390625 31.78125 42.390625 
Q 38.140625 42.390625 41.71875 45.5625 
Q 45.3125 48.734375 45.3125 54.390625 
Q 45.3125 60.0625 41.71875 63.234375 
Q 38.140625 66.40625 31.78125 66.40625 
Q 25.390625 66.40625 21.84375 63.234375 
Q 18.3125 60.0625 18.3125 54.390625 
z
" id="DejaVuSans-56"/>
     </defs>
     <use xlink:href="#DejaVuSans-118"/>
     <use x="59.179688" xlink:href="#DejaVuSans-50"/>
     <use x="122.802734" xlink:href="#DejaVuSans-46"/>
     <use x="154.589844" xlink:href="#DejaVuSans-52"/>
     <use x="218.212891" xlink:href="#DejaVuSans-46"/>
     <use x="250" xlink:href="#DejaVuSans-56"/>
     <use x="313.623047" xlink:href="#DejaVuSans-50"/>
    </g>
   </g>
  </g>
 </g>
 <defs>
  <clipPath id="pa10e3a72fa">
   <rect height="290.304" width="460.8" x="0" y="3.456"/>
  </clipPath>
 </defs>
</svg>
