<?xml version="1.0" encoding="utf-8" standalone="no"?>
<!DOCTYPE svg PUBLIC "-//W3C//DTD SVG 1.1//EN"
  "http://www.w3.org/Graphics/SVG/1.1/DTD/svg11.dtd">
<!-- Created with matplotlib (https://matplotlib.org/) -->
<svg height="345.6pt" version="1.1" viewBox="0 0 460.8 345.6" width="460.8pt" xmlns="http://www.w3.org/2000/svg" xmlns:xlink="http://www.w3.org/1999/xlink">
 <metadata>
  <rdf:RDF xmlns:cc="http://creativecommons.org/ns#" xmlns:dc="http://purl.org/dc/elements/1.1/" xmlns:rdf="http://www.w3.org/1999/02/22-rdf-syntax-ns#">
   <cc:Work>
    <dc:type rdf:resource="http://purl.org/dc/dcmitype/StillImage"/>
    <dc:date>2022-01-14T09:43:00.736933</dc:date>
    <dc:format>image/svg+xml</dc:format>
    <dc:creator>
     <cc:Agent>
      <dc:title>Matplotlib v3.3.3, https://matplotlib.org/</dc:title>
     </cc:Agent>
    </dc:creator>
   </cc:Work>
  </rdf:RDF>
 </metadata>
 <defs>
  <style type="text/css">*{stroke-linecap:butt;stroke-linejoin:round;}</style>
 </defs>
 <g id="figure_1">
  <g id="patch_1">
   <path d="M 0 345.6 
L 460.8 345.6 
L 460.8 0 
L 0 0 
z
" style="fill:#ffffff;"/>
  </g>
  <g id="axes_1">
   <g id="patch_2">
    <path d="M 0 293.76 
L 460.8 293.76 
L 460.8 3.456 
L 0 3.456 
z
" style="fill:#ffffff;"/>
   </g>
   <g id="matplotlib.axis_1">
    <g id="xtick_1">
     <g id="line2d_1">
      <path clip-path="url(#pdec4bf29bd)" d="M 101.784508 293.76 
L 101.784508 3.456 
" style="fill:none;stroke:#b0b0b0;stroke-linecap:square;stroke-width:0.8;"/>
     </g>
     <g id="line2d_2">
      <defs>
       <path d="M 0 0 
L 0 3.5 
" id="m842df60bd3" style="stroke:#000000;stroke-width:0.8;"/>
      </defs>
      <g>
       <use style="stroke:#000000;stroke-width:0.8;" x="101.784508" xlink:href="#m842df60bd3" y="293.76"/>
      </g>
     </g>
     <g id="text_1">
      <!-- -5 -->
      <g transform="translate(91.814196 315.956875)scale(0.2 -0.2)">
       <defs>
        <path d="M 4.890625 31.390625 
L 31.203125 31.390625 
L 31.203125 23.390625 
L 4.890625 23.390625 
z
" id="DejaVuSans-45"/>
        <path d="M 10.796875 72.90625 
L 49.515625 72.90625 
L 49.515625 64.59375 
L 19.828125 64.59375 
L 19.828125 46.734375 
Q 21.96875 47.46875 24.109375 47.828125 
Q 26.265625 48.1875 28.421875 48.1875 
Q 40.625 48.1875 47.75 41.5 
Q 54.890625 34.8125 54.890625 23.390625 
Q 54.890625 11.625 47.5625 5.09375 
Q 40.234375 -1.421875 26.90625 -1.421875 
Q 22.3125 -1.421875 17.546875 -0.640625 
Q 12.796875 0.140625 7.71875 1.703125 
L 7.71875 11.625 
Q 12.109375 9.234375 16.796875 8.0625 
Q 21.484375 6.890625 26.703125 6.890625 
Q 35.15625 6.890625 40.078125 11.328125 
Q 45.015625 15.765625 45.015625 23.390625 
Q 45.015625 31 40.078125 35.4375 
Q 35.15625 39.890625 26.703125 39.890625 
Q 22.75 39.890625 18.8125 39.015625 
Q 14.890625 38.140625 10.796875 36.28125 
z
" id="DejaVuSans-53"/>
       </defs>
       <use xlink:href="#DejaVuSans-45"/>
       <use x="36.083984" xlink:href="#DejaVuSans-53"/>
      </g>
     </g>
    </g>
    <g id="xtick_2">
     <g id="line2d_3">
      <path clip-path="url(#pdec4bf29bd)" d="M 203.715844 293.76 
L 203.715844 3.456 
" style="fill:none;stroke:#b0b0b0;stroke-linecap:square;stroke-width:0.8;"/>
     </g>
     <g id="line2d_4">
      <g>
       <use style="stroke:#000000;stroke-width:0.8;" x="203.715844" xlink:href="#m842df60bd3" y="293.76"/>
      </g>
     </g>
     <g id="text_2">
      <!-- -2 -->
      <g transform="translate(193.745532 315.956875)scale(0.2 -0.2)">
       <defs>
        <path d="M 19.1875 8.296875 
L 53.609375 8.296875 
L 53.609375 0 
L 7.328125 0 
L 7.328125 8.296875 
Q 12.9375 14.109375 22.625 23.890625 
Q 32.328125 33.6875 34.8125 36.53125 
Q 39.546875 41.84375 41.421875 45.53125 
Q 43.3125 49.21875 43.3125 52.78125 
Q 43.3125 58.59375 39.234375 62.25 
Q 35.15625 65.921875 28.609375 65.921875 
Q 23.96875 65.921875 18.8125 64.3125 
Q 13.671875 62.703125 7.8125 59.421875 
L 7.8125 69.390625 
Q 13.765625 71.78125 18.9375 73 
Q 24.125 74.21875 28.421875 74.21875 
Q 39.75 74.21875 46.484375 68.546875 
Q 53.21875 62.890625 53.21875 53.421875 
Q 53.21875 48.921875 51.53125 44.890625 
Q 49.859375 40.875 45.40625 35.40625 
Q 44.1875 33.984375 37.640625 27.21875 
Q 31.109375 20.453125 19.1875 8.296875 
z
" id="DejaVuSans-50"/>
       </defs>
       <use xlink:href="#DejaVuSans-45"/>
       <use x="36.083984" xlink:href="#DejaVuSans-50"/>
      </g>
     </g>
    </g>
    <g id="xtick_3">
     <g id="line2d_5">
      <path clip-path="url(#pdec4bf29bd)" d="M 305.64718 293.76 
L 305.64718 3.456 
" style="fill:none;stroke:#b0b0b0;stroke-linecap:square;stroke-width:0.8;"/>
     </g>
     <g id="line2d_6">
      <g>
       <use style="stroke:#000000;stroke-width:0.8;" x="305.64718" xlink:href="#m842df60bd3" y="293.76"/>
      </g>
     </g>
     <g id="text_3">
      <!-- 1 -->
      <g transform="translate(299.28468 315.956875)scale(0.2 -0.2)">
       <defs>
        <path d="M 12.40625 8.296875 
L 28.515625 8.296875 
L 28.515625 63.921875 
L 10.984375 60.40625 
L 10.984375 69.390625 
L 28.421875 72.90625 
L 38.28125 72.90625 
L 38.28125 8.296875 
L 54.390625 8.296875 
L 54.390625 0 
L 12.40625 0 
z
" id="DejaVuSans-49"/>
       </defs>
       <use xlink:href="#DejaVuSans-49"/>
      </g>
     </g>
    </g>
    <g id="xtick_4">
     <g id="line2d_7">
      <path clip-path="url(#pdec4bf29bd)" d="M 407.578516 293.76 
L 407.578516 3.456 
" style="fill:none;stroke:#b0b0b0;stroke-linecap:square;stroke-width:0.8;"/>
     </g>
     <g id="line2d_8">
      <g>
       <use style="stroke:#000000;stroke-width:0.8;" x="407.578516" xlink:href="#m842df60bd3" y="293.76"/>
      </g>
     </g>
     <g id="text_4">
      <!-- 4 -->
      <g transform="translate(401.216016 315.956875)scale(0.2 -0.2)">
       <defs>
        <path d="M 37.796875 64.3125 
L 12.890625 25.390625 
L 37.796875 25.390625 
z
M 35.203125 72.90625 
L 47.609375 72.90625 
L 47.609375 25.390625 
L 58.015625 25.390625 
L 58.015625 17.1875 
L 47.609375 17.1875 
L 47.609375 0 
L 37.796875 0 
L 37.796875 17.1875 
L 4.890625 17.1875 
L 4.890625 26.703125 
z
" id="DejaVuSans-52"/>
       </defs>
       <use xlink:href="#DejaVuSans-52"/>
      </g>
     </g>
    </g>
    <g id="text_5">
     <!-- log10 of Df -->
     <g transform="translate(175.214063 339.313125)scale(0.2 -0.2)">
      <defs>
       <path d="M 9.421875 75.984375 
L 18.40625 75.984375 
L 18.40625 0 
L 9.421875 0 
z
" id="DejaVuSans-108"/>
       <path d="M 30.609375 48.390625 
Q 23.390625 48.390625 19.1875 42.75 
Q 14.984375 37.109375 14.984375 27.296875 
Q 14.984375 17.484375 19.15625 11.84375 
Q 23.34375 6.203125 30.609375 6.203125 
Q 37.796875 6.203125 41.984375 11.859375 
Q 46.1875 17.53125 46.1875 27.296875 
Q 46.1875 37.015625 41.984375 42.703125 
Q 37.796875 48.390625 30.609375 48.390625 
z
M 30.609375 56 
Q 42.328125 56 49.015625 48.375 
Q 55.71875 40.765625 55.71875 27.296875 
Q 55.71875 13.875 49.015625 6.21875 
Q 42.328125 -1.421875 30.609375 -1.421875 
Q 18.84375 -1.421875 12.171875 6.21875 
Q 5.515625 13.875 5.515625 27.296875 
Q 5.515625 40.765625 12.171875 48.375 
Q 18.84375 56 30.609375 56 
z
" id="DejaVuSans-111"/>
       <path d="M 45.40625 27.984375 
Q 45.40625 37.75 41.375 43.109375 
Q 37.359375 48.484375 30.078125 48.484375 
Q 22.859375 48.484375 18.828125 43.109375 
Q 14.796875 37.75 14.796875 27.984375 
Q 14.796875 18.265625 18.828125 12.890625 
Q 22.859375 7.515625 30.078125 7.515625 
Q 37.359375 7.515625 41.375 12.890625 
Q 45.40625 18.265625 45.40625 27.984375 
z
M 54.390625 6.78125 
Q 54.390625 -7.171875 48.1875 -13.984375 
Q 42 -20.796875 29.203125 -20.796875 
Q 24.46875 -20.796875 20.265625 -20.09375 
Q 16.0625 -19.390625 12.109375 -17.921875 
L 12.109375 -9.1875 
Q 16.0625 -11.328125 19.921875 -12.34375 
Q 23.78125 -13.375 27.78125 -13.375 
Q 36.625 -13.375 41.015625 -8.765625 
Q 45.40625 -4.15625 45.40625 5.171875 
L 45.40625 9.625 
Q 42.625 4.78125 38.28125 2.390625 
Q 33.9375 0 27.875 0 
Q 17.828125 0 11.671875 7.65625 
Q 5.515625 15.328125 5.515625 27.984375 
Q 5.515625 40.671875 11.671875 48.328125 
Q 17.828125 56 27.875 56 
Q 33.9375 56 38.28125 53.609375 
Q 42.625 51.21875 45.40625 46.390625 
L 45.40625 54.6875 
L 54.390625 54.6875 
z
" id="DejaVuSans-103"/>
       <path d="M 31.78125 66.40625 
Q 24.171875 66.40625 20.328125 58.90625 
Q 16.5 51.421875 16.5 36.375 
Q 16.5 21.390625 20.328125 13.890625 
Q 24.171875 6.390625 31.78125 6.390625 
Q 39.453125 6.390625 43.28125 13.890625 
Q 47.125 21.390625 47.125 36.375 
Q 47.125 51.421875 43.28125 58.90625 
Q 39.453125 66.40625 31.78125 66.40625 
z
M 31.78125 74.21875 
Q 44.046875 74.21875 50.515625 64.515625 
Q 56.984375 54.828125 56.984375 36.375 
Q 56.984375 17.96875 50.515625 8.265625 
Q 44.046875 -1.421875 31.78125 -1.421875 
Q 19.53125 -1.421875 13.0625 8.265625 
Q 6.59375 17.96875 6.59375 36.375 
Q 6.59375 54.828125 13.0625 64.515625 
Q 19.53125 74.21875 31.78125 74.21875 
z
" id="DejaVuSans-48"/>
       <path id="DejaVuSans-32"/>
       <path d="M 37.109375 75.984375 
L 37.109375 68.5 
L 28.515625 68.5 
Q 23.6875 68.5 21.796875 66.546875 
Q 19.921875 64.59375 19.921875 59.515625 
L 19.921875 54.6875 
L 34.71875 54.6875 
L 34.71875 47.703125 
L 19.921875 47.703125 
L 19.921875 0 
L 10.890625 0 
L 10.890625 47.703125 
L 2.296875 47.703125 
L 2.296875 54.6875 
L 10.890625 54.6875 
L 10.890625 58.5 
Q 10.890625 67.625 15.140625 71.796875 
Q 19.390625 75.984375 28.609375 75.984375 
z
" id="DejaVuSans-102"/>
       <path d="M 19.671875 64.796875 
L 19.671875 8.109375 
L 31.59375 8.109375 
Q 46.6875 8.109375 53.6875 14.9375 
Q 60.6875 21.78125 60.6875 36.53125 
Q 60.6875 51.171875 53.6875 57.984375 
Q 46.6875 64.796875 31.59375 64.796875 
z
M 9.8125 72.90625 
L 30.078125 72.90625 
Q 51.265625 72.90625 61.171875 64.09375 
Q 71.09375 55.28125 71.09375 36.53125 
Q 71.09375 17.671875 61.125 8.828125 
Q 51.171875 0 30.078125 0 
L 9.8125 0 
z
" id="DejaVuSans-68"/>
      </defs>
      <use xlink:href="#DejaVuSans-108"/>
      <use x="27.783203" xlink:href="#DejaVuSans-111"/>
      <use x="88.964844" xlink:href="#DejaVuSans-103"/>
      <use x="152.441406" xlink:href="#DejaVuSans-49"/>
      <use x="216.064453" xlink:href="#DejaVuSans-48"/>
      <use x="279.6875" xlink:href="#DejaVuSans-32"/>
      <use x="311.474609" xlink:href="#DejaVuSans-111"/>
      <use x="372.65625" xlink:href="#DejaVuSans-102"/>
      <use x="407.861328" xlink:href="#DejaVuSans-32"/>
      <use x="439.648438" xlink:href="#DejaVuSans-68"/>
      <use x="516.650391" xlink:href="#DejaVuSans-102"/>
     </g>
    </g>
   </g>
   <g id="matplotlib.axis_2">
    <g id="ytick_1">
     <g id="line2d_9">
      <path clip-path="url(#pdec4bf29bd)" d="M 0 293.76 
L 460.8 293.76 
" style="fill:none;stroke:#b0b0b0;stroke-linecap:square;stroke-width:0.8;"/>
     </g>
     <g id="line2d_10">
      <defs>
       <path d="M 0 0 
L -3.5 0 
" id="me1481d8647" style="stroke:#000000;stroke-width:0.8;"/>
      </defs>
      <g>
       <use style="stroke:#000000;stroke-width:0.8;" x="0" xlink:href="#me1481d8647" y="293.76"/>
      </g>
     </g>
    </g>
    <g id="ytick_2">
     <g id="line2d_11">
      <path clip-path="url(#pdec4bf29bd)" d="M 0 236.274059 
L 460.8 236.274059 
" style="fill:none;stroke:#b0b0b0;stroke-linecap:square;stroke-width:0.8;"/>
     </g>
     <g id="line2d_12">
      <g>
       <use style="stroke:#000000;stroke-width:0.8;" x="0" xlink:href="#me1481d8647" y="236.274059"/>
      </g>
     </g>
    </g>
    <g id="ytick_3">
     <g id="line2d_13">
      <path clip-path="url(#pdec4bf29bd)" d="M 0 178.788119 
L 460.8 178.788119 
" style="fill:none;stroke:#b0b0b0;stroke-linecap:square;stroke-width:0.8;"/>
     </g>
     <g id="line2d_14">
      <g>
       <use style="stroke:#000000;stroke-width:0.8;" x="0" xlink:href="#me1481d8647" y="178.788119"/>
      </g>
     </g>
    </g>
    <g id="ytick_4">
     <g id="line2d_15">
      <path clip-path="url(#pdec4bf29bd)" d="M 0 121.302178 
L 460.8 121.302178 
" style="fill:none;stroke:#b0b0b0;stroke-linecap:square;stroke-width:0.8;"/>
     </g>
     <g id="line2d_16">
      <g>
       <use style="stroke:#000000;stroke-width:0.8;" x="0" xlink:href="#me1481d8647" y="121.302178"/>
      </g>
     </g>
    </g>
    <g id="ytick_5">
     <g id="line2d_17">
      <path clip-path="url(#pdec4bf29bd)" d="M 0 63.816238 
L 460.8 63.816238 
" style="fill:none;stroke:#b0b0b0;stroke-linecap:square;stroke-width:0.8;"/>
     </g>
     <g id="line2d_18">
      <g>
       <use style="stroke:#000000;stroke-width:0.8;" x="0" xlink:href="#me1481d8647" y="63.816238"/>
      </g>
     </g>
    </g>
    <g id="ytick_6">
     <g id="line2d_19">
      <path clip-path="url(#pdec4bf29bd)" d="M 0 6.330297 
L 460.8 6.330297 
" style="fill:none;stroke:#b0b0b0;stroke-linecap:square;stroke-width:0.8;"/>
     </g>
     <g id="line2d_20">
      <g>
       <use style="stroke:#000000;stroke-width:0.8;" x="0" xlink:href="#me1481d8647" y="6.330297"/>
      </g>
     </g>
    </g>
   </g>
   <g id="line2d_21">
    <path clip-path="url(#pdec4bf29bd)" d="M -1 63.816238 
L -0.942506 63.816238 
L -0.942506 61.687129 
L -0.666687 61.687129 
L -0.666687 59.55802 
L -0.351806 59.55802 
L -0.351806 57.428911 
L 1.428645 57.428911 
L 1.428645 55.299802 
L 3.881594 55.299802 
L 3.881594 53.170693 
L 4.472502 53.170693 
L 4.472502 51.041584 
L 8.052925 51.041584 
L 8.052925 48.912475 
L 9.335909 48.912475 
L 9.335909 46.783366 
L 9.688788 46.783366 
L 9.688788 44.654257 
L 9.837062 44.654257 
L 9.837062 42.525149 
L 10.329013 42.525149 
L 10.329013 40.39604 
L 14.011597 40.39604 
L 14.011597 38.266931 
L 17.648589 38.266931 
L 17.648589 36.137822 
L 21.463267 36.137822 
L 21.463267 34.008713 
L 23.748162 34.008713 
L 23.748162 31.879604 
L 24.420787 31.879604 
L 24.420787 29.750495 
L 26.765235 29.750495 
L 26.765235 27.621386 
L 27.351374 27.621386 
L 27.351374 25.492277 
L 32.869828 25.492277 
L 32.869828 23.363168 
L 42.905403 23.363168 
L 42.905403 21.234059 
L 48.692321 21.234059 
L 48.692321 19.10495 
L 54.036871 19.10495 
L 54.036871 16.975842 
L 58.806671 16.975842 
L 58.806671 14.846733 
L 61.502444 14.846733 
L 61.502444 12.717624 
L 63.718185 12.717624 
L 63.718185 10.588515 
L 64.790075 10.588515 
L 64.790075 8.459406 
L 86.261404 8.459406 
L 86.261404 6.330297 
L 86.261404 6.330297 
L 460.8 6.330297 
L 460.8 6.330297 
" style="fill:none;stroke:#ff0000;stroke-linecap:square;stroke-width:3;"/>
   </g>
   <g id="line2d_22">
    <path clip-path="url(#pdec4bf29bd)" d="M 334.564076 293.76 
L 334.564076 291.630891 
L 345.706008 291.630891 
L 345.706008 289.501782 
L 346.707118 289.501782 
L 346.765625 285.243564 
L 348.202516 285.243564 
L 348.202516 283.114455 
L 349.969787 283.114455 
L 349.969787 280.985347 
L 351.730579 280.985347 
L 351.730579 278.856238 
L 353.156974 278.856238 
L 353.156974 276.727129 
L 353.283684 276.727129 
L 353.283684 274.59802 
L 353.959532 274.59802 
L 354.052718 270.339802 
L 354.098057 270.339802 
L 354.098057 268.210693 
L 354.326074 268.210693 
L 354.326074 266.081584 
L 355.137355 266.081584 
L 355.137355 263.952475 
L 355.838988 263.952475 
L 355.838988 261.823366 
L 356.790248 261.823366 
L 356.790248 259.694257 
L 356.9707 259.694257 
L 356.9707 257.565149 
L 358.262138 257.565149 
L 358.262138 255.43604 
L 359.669444 255.43604 
L 359.669444 253.306931 
L 360.694657 253.306931 
L 360.694657 251.177822 
L 360.907073 251.177822 
L 360.907073 249.048713 
L 361.936453 249.048713 
L 361.936453 246.919604 
L 362.12894 246.919604 
L 362.12894 244.790495 
L 362.459533 244.790495 
L 362.459533 242.661386 
L 362.70582 242.661386 
L 362.70582 240.532277 
L 363.549595 240.532277 
L 363.549595 238.403168 
L 364.801682 238.403168 
L 364.801682 236.274059 
L 364.987625 236.274059 
L 364.987625 234.14495 
L 365.516195 234.14495 
L 365.516195 232.015842 
L 365.914706 232.015842 
L 365.914706 229.886733 
L 366.038518 229.886733 
L 366.038518 227.757624 
L 366.187759 227.757624 
L 366.187759 225.628515 
L 366.323223 225.628515 
L 366.323223 223.499406 
L 366.460862 223.499406 
L 366.460862 221.370297 
L 366.677445 221.370297 
L 366.677445 219.241188 
L 366.883212 219.241188 
L 366.883212 217.112079 
L 367.173835 217.112079 
L 367.173835 214.98297 
L 367.414714 214.98297 
L 367.414714 212.853861 
L 367.543741 212.853861 
L 367.543741 210.724752 
L 368.199504 210.724752 
L 368.199504 208.595644 
L 368.484892 208.595644 
L 368.484892 206.466535 
L 368.69869 206.466535 
L 368.69869 204.337426 
L 369.110697 204.337426 
L 369.110697 202.208317 
L 369.429901 202.208317 
L 369.429901 200.079208 
L 369.612499 200.079208 
L 369.708329 195.82099 
L 369.793148 195.82099 
L 369.894071 191.562772 
L 370.083914 191.562772 
L 370.083914 189.433663 
L 370.314059 189.433663 
L 370.314059 187.304554 
L 370.49048 187.304554 
L 370.52773 178.788119 
L 370.621667 178.788119 
L 370.621667 176.65901 
L 370.805139 176.65901 
L 370.812482 172.400792 
L 371.16344 172.400792 
L 371.176757 168.142574 
L 371.314578 168.142574 
L 371.314578 166.013465 
L 371.898826 166.013465 
L 371.898826 163.884356 
L 372.138417 163.884356 
L 372.138417 161.755248 
L 372.623826 161.755248 
L 372.701775 157.49703 
L 372.937741 157.49703 
L 372.937741 155.367921 
L 373.356144 155.367921 
L 373.442422 148.980594 
L 373.53617 148.980594 
L 373.53617 146.851485 
L 373.918609 146.851485 
L 373.952952 140.464158 
L 374.65627 140.464158 
L 374.734608 136.205941 
L 374.769383 136.205941 
L 374.869698 131.947723 
L 375.810573 131.947723 
L 375.810573 129.818614 
L 376.292694 129.818614 
L 376.292694 127.689505 
L 377.044962 127.689505 
L 377.044962 125.560396 
L 377.641781 125.560396 
L 377.650065 121.302178 
L 378.080207 121.302178 
L 378.080207 119.173069 
L 378.290428 119.173069 
L 378.290428 117.04396 
L 378.46539 117.04396 
L 378.46539 114.914851 
L 379.006385 114.914851 
L 379.099838 110.656634 
L 379.203981 110.656634 
L 379.203981 108.527525 
L 379.485654 108.527525 
L 379.485654 106.398416 
L 379.940607 106.398416 
L 379.940607 104.269307 
L 382.752212 104.269307 
L 382.752212 102.140198 
L 383.796547 102.140198 
L 383.796547 100.011089 
L 383.968361 100.011089 
L 383.968361 97.88198 
L 384.921655 97.88198 
L 384.921655 95.752871 
L 385.143024 95.752871 
L 385.143024 93.623762 
L 385.876705 93.623762 
L 385.876705 91.494653 
L 386.109202 91.494653 
L 386.109202 89.365545 
L 387.087573 89.365545 
L 387.087573 87.236436 
L 387.299543 87.236436 
L 387.299543 85.107327 
L 388.434092 85.107327 
L 388.434092 82.978218 
L 388.968875 82.978218 
L 388.983332 78.72 
L 389.925033 78.72 
L 389.942275 74.461782 
L 390.215084 74.461782 
L 390.215084 72.332673 
L 390.51237 72.332673 
L 390.51237 70.203564 
L 390.85308 70.203564 
L 390.85308 68.074455 
L 390.970325 68.074455 
L 390.992324 63.816238 
L 391.571245 63.816238 
L 391.64105 59.55802 
L 391.865739 59.55802 
L 391.865739 57.428911 
L 392.586984 57.428911 
L 392.586984 55.299802 
L 392.967814 55.299802 
L 393.049392 51.041584 
L 394.326554 51.041584 
L 394.433597 46.783366 
L 395.069662 46.783366 
L 395.069662 44.654257 
L 396.158515 44.654257 
L 396.158515 42.525149 
L 396.334199 42.525149 
L 396.334199 40.39604 
L 397.147547 40.39604 
L 397.147547 38.266931 
L 398.874722 38.266931 
L 398.874722 36.137822 
L 399.811567 36.137822 
L 399.811567 34.008713 
L 400.334921 34.008713 
L 400.334921 31.879604 
L 401.285531 31.879604 
L 401.285531 29.750495 
L 402.516776 29.750495 
L 402.516776 27.621386 
L 402.872824 27.621386 
L 402.872824 25.492277 
L 403.038924 25.492277 
L 403.038924 23.363168 
L 403.248505 23.363168 
L 403.248505 21.234059 
L 404.845625 21.234059 
L 404.845625 19.10495 
L 405.387822 19.10495 
L 405.387822 16.975842 
L 406.632216 16.975842 
L 406.632216 14.846733 
L 408.818576 14.846733 
L 408.818576 12.717624 
L 409.730538 12.717624 
L 409.730538 10.588515 
L 411.797584 10.588515 
L 411.797584 8.459406 
L 414.169265 8.459406 
L 414.169265 6.330297 
L 414.169265 6.330297 
L 460.8 6.330297 
L 460.8 6.330297 
" style="fill:none;stroke:#00bfbf;stroke-linecap:square;stroke-width:1.5;"/>
   </g>
   <g id="line2d_23">
    <path clip-path="url(#pdec4bf29bd)" d="M 334.564076 293.76 
L 334.564076 291.630891 
L 345.706008 291.630891 
L 345.706008 289.501782 
L 346.707118 289.501782 
L 346.765625 285.243564 
L 348.202516 285.243564 
L 348.202516 283.114455 
L 349.969787 283.114455 
L 349.969787 280.985347 
L 351.730579 280.985347 
L 351.730579 278.856238 
L 353.156974 278.856238 
L 353.156974 276.727129 
L 353.283684 276.727129 
L 353.283684 274.59802 
L 353.959532 274.59802 
L 354.052718 270.339802 
L 354.098057 270.339802 
L 354.098057 268.210693 
L 354.326074 268.210693 
L 354.326074 266.081584 
L 355.137355 266.081584 
L 355.137355 263.952475 
L 355.838988 263.952475 
L 355.838988 261.823366 
L 356.790248 261.823366 
L 356.790248 259.694257 
L 356.9707 259.694257 
L 356.9707 257.565149 
L 358.262138 257.565149 
L 358.262138 255.43604 
L 359.669444 255.43604 
L 359.669444 253.306931 
L 360.694657 253.306931 
L 360.694657 251.177822 
L 360.907073 251.177822 
L 360.907073 249.048713 
L 361.936453 249.048713 
L 361.936453 246.919604 
L 362.12894 246.919604 
L 362.12894 244.790495 
L 362.459533 244.790495 
L 362.459533 242.661386 
L 362.70582 242.661386 
L 362.70582 240.532277 
L 363.549595 240.532277 
L 363.549595 238.403168 
L 364.801682 238.403168 
L 364.801682 236.274059 
L 364.987625 236.274059 
L 364.987625 234.14495 
L 365.516195 234.14495 
L 365.516195 232.015842 
L 365.914706 232.015842 
L 365.914706 229.886733 
L 366.038518 229.886733 
L 366.038518 227.757624 
L 366.187759 227.757624 
L 366.187759 225.628515 
L 366.323223 225.628515 
L 366.323223 223.499406 
L 366.460862 223.499406 
L 366.460862 221.370297 
L 366.677445 221.370297 
L 366.677445 219.241188 
L 366.883212 219.241188 
L 366.883212 217.112079 
L 367.173835 217.112079 
L 367.173835 214.98297 
L 367.414714 214.98297 
L 367.414714 212.853861 
L 367.543741 212.853861 
L 367.543741 210.724752 
L 368.199504 210.724752 
L 368.199504 208.595644 
L 368.484892 208.595644 
L 368.484892 206.466535 
L 368.69869 206.466535 
L 368.69869 204.337426 
L 369.110697 204.337426 
L 369.110697 202.208317 
L 369.429901 202.208317 
L 369.429901 200.079208 
L 369.612499 200.079208 
L 369.708329 195.82099 
L 369.793148 195.82099 
L 369.894071 191.562772 
L 370.083914 191.562772 
L 370.083914 189.433663 
L 370.314059 189.433663 
L 370.314059 187.304554 
L 370.49048 187.304554 
L 370.52773 178.788119 
L 370.621667 178.788119 
L 370.621667 176.65901 
L 370.805139 176.65901 
L 370.812482 172.400792 
L 371.16344 172.400792 
L 371.176757 168.142574 
L 371.314578 168.142574 
L 371.314578 166.013465 
L 371.898826 166.013465 
L 371.898826 163.884356 
L 372.138417 163.884356 
L 372.138417 161.755248 
L 372.623825 161.755248 
L 372.701774 157.49703 
L 372.93774 157.49703 
L 372.93774 155.367921 
L 373.356144 155.367921 
L 373.442422 148.980594 
L 373.53617 148.980594 
L 373.53617 146.851485 
L 373.918609 146.851485 
L 373.952952 140.464158 
L 374.65627 140.464158 
L 374.734608 136.205941 
L 374.769383 136.205941 
L 374.869698 131.947723 
L 375.810573 131.947723 
L 375.810573 129.818614 
L 376.292694 129.818614 
L 376.292694 127.689505 
L 377.044962 127.689505 
L 377.044962 125.560396 
L 377.641781 125.560396 
L 377.650065 121.302178 
L 378.080207 121.302178 
L 378.080207 119.173069 
L 378.290428 119.173069 
L 378.290428 117.04396 
L 378.46539 117.04396 
L 378.46539 114.914851 
L 379.006385 114.914851 
L 379.099838 110.656634 
L 379.203981 110.656634 
L 379.203981 108.527525 
L 379.485654 108.527525 
L 379.485654 106.398416 
L 379.940607 106.398416 
L 379.940607 104.269307 
L 382.752212 104.269307 
L 382.752212 102.140198 
L 383.796547 102.140198 
L 383.796547 100.011089 
L 383.968361 100.011089 
L 383.968361 97.88198 
L 384.921655 97.88198 
L 384.921655 95.752871 
L 385.143024 95.752871 
L 385.143024 93.623762 
L 385.876705 93.623762 
L 385.876705 91.494653 
L 386.109202 91.494653 
L 386.109202 89.365545 
L 387.087573 89.365545 
L 387.087573 87.236436 
L 387.299543 87.236436 
L 387.299543 85.107327 
L 388.434092 85.107327 
L 388.434092 82.978218 
L 388.968875 82.978218 
L 388.983332 78.72 
L 389.925033 78.72 
L 389.942275 74.461782 
L 390.215084 74.461782 
L 390.215084 72.332673 
L 390.51237 72.332673 
L 390.51237 70.203564 
L 390.85308 70.203564 
L 390.85308 68.074455 
L 390.970325 68.074455 
L 390.992323 63.816238 
L 391.571245 63.816238 
L 391.64105 59.55802 
L 391.865739 59.55802 
L 391.865739 57.428911 
L 392.586984 57.428911 
L 392.586984 55.299802 
L 392.967814 55.299802 
L 393.049392 51.041584 
L 394.326553 51.041584 
L 394.433597 46.783366 
L 395.069662 46.783366 
L 395.069662 44.654257 
L 396.158515 44.654257 
L 396.158515 42.525149 
L 396.334199 42.525149 
L 396.334199 40.39604 
L 397.147547 40.39604 
L 397.147547 38.266931 
L 398.874722 38.266931 
L 398.874722 36.137822 
L 399.811567 36.137822 
L 399.811567 34.008713 
L 400.334921 34.008713 
L 400.334921 31.879604 
L 401.285531 31.879604 
L 401.285531 29.750495 
L 402.516776 29.750495 
L 402.516776 27.621386 
L 402.872824 27.621386 
L 402.872824 25.492277 
L 403.038924 25.492277 
L 403.038924 23.363168 
L 403.248505 23.363168 
L 403.248505 21.234059 
L 404.845625 21.234059 
L 404.845625 19.10495 
L 405.387822 19.10495 
L 405.387822 16.975842 
L 406.632216 16.975842 
L 406.632216 14.846733 
L 408.818576 14.846733 
L 408.818576 12.717624 
L 409.730538 12.717624 
L 409.730538 10.588515 
L 411.797584 10.588515 
L 411.797584 8.459406 
L 414.169265 8.459406 
L 414.169265 6.330297 
L 414.169265 6.330297 
L 460.8 6.330297 
L 460.8 6.330297 
" style="fill:none;stroke:#bf00bf;stroke-linecap:square;stroke-width:1.5;"/>
   </g>
   <g id="line2d_24">
    <path clip-path="url(#pdec4bf29bd)" d="M -1 261.823366 
L 23.748162 261.823366 
L 23.748162 259.694257 
L 26.576134 259.694257 
L 26.576134 257.565149 
L 30.991353 257.565149 
L 30.991353 255.43604 
L 33.013078 255.43604 
L 33.013078 253.306931 
L 34.098503 253.306931 
L 34.098503 251.177822 
L 37.901239 251.177822 
L 37.901239 249.048713 
L 38.099135 249.048713 
L 38.099135 246.919604 
L 47.157153 246.919604 
L 47.157153 244.790495 
L 51.630362 244.790495 
L 51.630362 242.661386 
L 56.740086 242.661386 
L 56.740086 240.532277 
L 57.418452 240.532277 
L 57.418452 238.403168 
L 61.816171 238.403168 
L 61.816171 236.274059 
L 68.207184 236.274059 
L 68.207184 234.14495 
L 73.696013 234.14495 
L 73.696013 232.015842 
L 80.870552 232.015842 
L 80.870552 229.886733 
L 82.255903 229.886733 
L 82.255903 227.757624 
L 83.101511 227.757624 
L 83.101511 225.628515 
L 96.450132 225.628515 
L 96.450132 223.499406 
L 97.346642 223.499406 
L 97.346642 221.370297 
L 98.035531 221.370297 
L 98.035531 219.241188 
L 101.375518 219.241188 
L 101.375518 217.112079 
L 101.790655 217.112079 
L 101.790655 214.98297 
L 113.90736 214.98297 
L 113.90736 212.853861 
L 121.383993 212.853861 
L 121.383993 210.724752 
L 122.021955 210.724752 
L 122.021955 208.595644 
L 122.299563 208.595644 
L 122.299563 206.466535 
L 124.268366 206.466535 
L 124.268366 204.337426 
L 124.539169 204.337426 
L 124.539169 202.208317 
L 125.520067 202.208317 
L 125.520067 200.079208 
L 139.586067 200.079208 
L 139.586067 197.950099 
L 156.717878 197.950099 
L 156.717878 195.82099 
L 290.279239 195.82099 
L 290.279239 193.691881 
L 292.338858 193.691881 
L 292.338858 191.562772 
L 297.892659 191.562772 
L 297.892659 189.433663 
L 305.256077 189.433663 
L 305.3151 185.175446 
L 308.15699 185.175446 
L 308.231067 180.917228 
L 316.655733 180.917228 
L 316.655733 178.788119 
L 320.993442 178.788119 
L 320.993442 176.65901 
L 324.652861 176.65901 
L 324.652861 174.529901 
L 332.126906 174.529901 
L 332.126906 172.400792 
L 333.778992 172.400792 
L 333.778992 170.271683 
L 337.487302 170.271683 
L 337.487302 168.142574 
L 338.783829 168.142574 
L 338.783829 166.013465 
L 339.022368 166.013465 
L 339.022368 163.884356 
L 340.306864 163.884356 
L 340.306864 161.755248 
L 343.520265 161.755248 
L 343.520265 159.626139 
L 344.793286 159.626139 
L 344.793286 157.49703 
L 348.996799 157.49703 
L 348.996799 155.367921 
L 352.455574 155.367921 
L 352.455574 153.238812 
L 354.235954 153.238812 
L 354.235954 151.109703 
L 354.924373 151.109703 
L 354.924373 148.980594 
L 358.282303 148.980594 
L 358.282303 146.851485 
L 360.887032 146.851485 
L 360.887032 144.722376 
L 361.299924 144.722376 
L 361.299924 142.593267 
L 361.758432 142.593267 
L 361.758432 140.464158 
L 362.053584 140.464158 
L 362.053584 138.33505 
L 362.398381 138.33505 
L 362.408388 134.076832 
L 363.04023 134.076832 
L 363.04023 131.947723 
L 363.549595 131.947723 
L 363.549595 129.818614 
L 364.066954 129.818614 
L 364.066954 127.689505 
L 365.13876 127.689505 
L 365.13876 125.560396 
L 365.325566 125.560396 
L 365.325566 123.431287 
L 365.521531 123.431287 
L 365.521531 121.302178 
L 366.323223 121.302178 
L 366.323223 119.173069 
L 366.58846 119.173069 
L 366.58846 117.04396 
L 367.195614 117.04396 
L 367.195614 114.914851 
L 368.128753 114.914851 
L 368.199504 110.656634 
L 368.637402 110.656634 
L 368.637402 108.527525 
L 368.97148 108.527525 
L 368.97148 106.398416 
L 369.612499 106.398416 
L 369.612499 104.269307 
L 369.808313 104.269307 
L 369.86662 97.88198 
L 370.083914 97.88198 
L 370.092972 93.623762 
L 370.774426 93.623762 
L 370.786298 89.365545 
L 371.104753 89.365545 
L 371.159773 85.107327 
L 372.131298 85.107327 
L 372.131298 82.978218 
L 372.386078 82.978218 
L 372.386078 80.849109 
L 372.701774 80.849109 
L 372.701774 78.72 
L 373.373764 78.72 
L 373.373764 76.590891 
L 373.512113 76.590891 
L 373.53617 72.332673 
L 373.639632 72.332673 
L 373.639632 70.203564 
L 373.942911 70.203564 
L 373.942911 68.074455 
L 374.158686 68.074455 
L 374.158686 65.945347 
L 375.339531 65.945347 
L 375.339531 63.816238 
L 376.292694 63.816238 
L 376.292694 61.687129 
L 377.278005 61.687129 
L 377.278005 59.55802 
L 377.727406 59.55802 
L 377.727406 57.428911 
L 378.080207 57.428911 
L 378.080207 55.299802 
L 379.006385 55.299802 
L 379.006385 53.170693 
L 379.203981 53.170693 
L 379.203981 51.041584 
L 379.485654 51.041584 
L 379.540462 46.783366 
L 381.045492 46.783366 
L 381.045492 44.654257 
L 385.296271 44.654257 
L 385.296271 42.525149 
L 385.844545 42.525149 
L 385.844545 40.39604 
L 386.022852 40.39604 
L 386.109202 36.137822 
L 387.087573 36.137822 
L 387.087573 34.008713 
L 387.299543 34.008713 
L 387.299543 31.879604 
L 387.844473 31.879604 
L 387.844473 29.750495 
L 388.983332 29.750495 
L 388.983332 27.621386 
L 390.082795 27.621386 
L 390.082795 25.492277 
L 392.967814 25.492277 
L 392.967814 23.363168 
L 396.158515 23.363168 
L 396.158515 21.234059 
L 396.334199 21.234059 
L 396.334199 19.10495 
L 398.535786 19.10495 
L 398.535786 16.975842 
L 399.811567 16.975842 
L 399.811567 14.846733 
L 401.285531 14.846733 
L 401.285531 12.717624 
L 403.014147 12.717624 
L 403.014147 10.588515 
L 405.387822 10.588515 
L 405.387822 8.459406 
L 409.730538 8.459406 
L 409.730538 6.330297 
L 409.730538 6.330297 
L 460.8 6.330297 
L 460.8 6.330297 
" style="fill:none;stroke:#000000;stroke-linecap:square;stroke-width:1.5;"/>
   </g>
   <g id="line2d_25">
    <path clip-path="url(#pdec4bf29bd)" d="M -1 251.177822 
L -0.666687 251.177822 
L -0.666687 249.048713 
L 0.545141 249.048713 
L 0.545141 246.919604 
L 3.380865 246.919604 
L 3.380865 244.790495 
L 6.895401 244.790495 
L 6.895401 242.661386 
L 14.86167 242.661386 
L 14.86167 240.532277 
L 15.449445 240.532277 
L 15.449445 238.403168 
L 20.982019 238.403168 
L 20.982019 236.274059 
L 22.101619 236.274059 
L 22.101619 234.14495 
L 22.634929 234.14495 
L 22.634929 232.015842 
L 23.529112 232.015842 
L 23.529112 229.886733 
L 23.748162 229.886733 
L 23.748162 227.757624 
L 25.074473 227.757624 
L 25.074473 225.628515 
L 34.098503 225.628515 
L 34.098503 223.499406 
L 41.358524 223.499406 
L 41.358524 221.370297 
L 42.027881 221.370297 
L 42.027881 219.241188 
L 56.740086 219.241188 
L 56.740086 217.112079 
L 61.542933 217.112079 
L 61.542933 214.98297 
L 65.009467 214.98297 
L 65.009467 212.853861 
L 68.207184 212.853861 
L 68.207184 210.724752 
L 68.619375 210.724752 
L 68.619375 208.595644 
L 73.787731 208.595644 
L 73.787731 206.466535 
L 74.805708 206.466535 
L 74.805708 204.337426 
L 80.776251 204.337426 
L 80.776251 202.208317 
L 82.255903 202.208317 
L 82.255903 200.079208 
L 93.428569 200.079208 
L 93.428569 197.950099 
L 96.450132 197.950099 
L 96.450132 195.82099 
L 97.346642 195.82099 
L 97.346642 193.691881 
L 98.035531 193.691881 
L 98.035531 191.562772 
L 99.098604 191.562772 
L 99.098604 189.433663 
L 105.475128 189.433663 
L 105.475128 187.304554 
L 107.981709 187.304554 
L 107.981709 185.175446 
L 116.693942 185.175446 
L 116.693942 183.046337 
L 117.052841 183.046337 
L 117.052841 180.917228 
L 122.047655 180.917228 
L 122.047655 178.788119 
L 125.520067 178.788119 
L 125.520067 176.65901 
L 132.836203 176.65901 
L 132.836203 174.529901 
L 134.978252 174.529901 
L 134.978252 172.400792 
L 142.37016 172.400792 
L 142.37016 170.271683 
L 149.472238 170.271683 
L 149.472238 168.142574 
L 162.217604 168.142574 
L 162.217604 166.013465 
L 172.935369 166.013465 
L 172.935369 163.884356 
L 199.248792 163.884356 
L 199.248792 161.755248 
L 216.167031 161.755248 
L 216.167031 159.626139 
L 228.166568 159.626139 
L 228.166568 157.49703 
L 229.373095 157.49703 
L 229.373095 155.367921 
L 243.310463 155.367921 
L 243.310463 153.238812 
L 243.640307 153.238812 
L 243.640307 151.109703 
L 245.102607 151.109703 
L 245.102607 148.980594 
L 245.262061 148.980594 
L 245.262061 146.851485 
L 259.156541 146.851485 
L 259.156541 144.722376 
L 261.185118 144.722376 
L 261.185118 142.593267 
L 261.720112 142.593267 
L 261.720112 140.464158 
L 263.007789 140.464158 
L 263.007789 138.33505 
L 263.242319 138.33505 
L 263.242319 136.205941 
L 266.324605 136.205941 
L 266.324605 134.076832 
L 267.659513 134.076832 
L 267.659513 131.947723 
L 268.84867 131.947723 
L 268.84867 129.818614 
L 270.32427 129.818614 
L 270.32427 127.689505 
L 273.156209 127.689505 
L 273.156209 125.560396 
L 274.01181 125.560396 
L 274.01181 123.431287 
L 278.837518 123.431287 
L 278.843935 119.173069 
L 286.286626 119.173069 
L 286.286626 117.04396 
L 287.737785 117.04396 
L 287.737785 114.914851 
L 289.56924 114.914851 
L 289.56924 112.785743 
L 290.317315 112.785743 
L 290.317315 110.656634 
L 297.896197 110.656634 
L 297.896197 108.527525 
L 303.822885 108.527525 
L 303.822885 106.398416 
L 305.222214 106.398416 
L 305.222214 104.269307 
L 308.853264 104.269307 
L 308.853264 102.140198 
L 308.967919 102.140198 
L 308.967919 100.011089 
L 312.89324 100.011089 
L 312.89324 97.88198 
L 313.67616 97.88198 
L 313.67616 95.752871 
L 315.915053 95.752871 
L 315.915053 93.623762 
L 316.666947 93.623762 
L 316.666947 91.494653 
L 317.070476 91.494653 
L 317.070476 89.365545 
L 317.660086 89.365545 
L 317.660086 87.236436 
L 319.821366 87.236436 
L 319.821366 85.107327 
L 320.295106 85.107327 
L 320.295106 82.978218 
L 320.890971 82.978218 
L 320.890971 80.849109 
L 321.067624 80.849109 
L 321.067624 78.72 
L 321.612897 78.72 
L 321.612897 76.590891 
L 328.256566 76.590891 
L 328.256566 74.461782 
L 330.282987 74.461782 
L 330.282987 72.332673 
L 331.845365 72.332673 
L 331.845365 70.203564 
L 335.611114 70.203564 
L 335.611114 68.074455 
L 337.307137 68.074455 
L 337.307137 65.945347 
L 339.837749 65.945347 
L 339.837749 63.816238 
L 352.142168 63.816238 
L 352.142168 61.687129 
L 352.264708 61.687129 
L 352.264708 59.55802 
L 352.615243 59.55802 
L 352.615243 57.428911 
L 355.993419 57.428911 
L 355.993419 55.299802 
L 359.597361 55.299802 
L 359.597361 53.170693 
L 359.867913 53.170693 
L 359.88763 48.912475 
L 360.199704 48.912475 
L 360.254514 44.654257 
L 360.853773 44.654257 
L 360.853773 42.525149 
L 361.742528 42.525149 
L 361.742528 40.39604 
L 363.186634 40.39604 
L 363.210536 36.137822 
L 364.066924 36.137822 
L 364.066924 34.008713 
L 364.793993 34.008713 
L 364.793993 31.879604 
L 365.210783 31.879604 
L 365.210783 29.750495 
L 365.694929 29.750495 
L 365.694929 27.621386 
L 366.173708 27.621386 
L 366.283992 23.363168 
L 366.343393 23.363168 
L 366.343393 21.234059 
L 366.707851 21.234059 
L 366.707851 19.10495 
L 367.384362 19.10495 
L 367.441777 14.846733 
L 373.512113 14.846733 
L 373.512113 12.717624 
L 374.223147 12.717624 
L 374.223147 10.588515 
L 375.19848 10.588515 
L 375.19848 8.459406 
L 376.74598 8.459406 
L 376.74598 6.330297 
L 376.74598 6.330297 
L 460.8 6.330297 
L 460.8 6.330297 
" style="fill:none;stroke:#00bfbf;stroke-linecap:square;stroke-width:1.5;"/>
   </g>
   <g id="line2d_26">
    <path clip-path="url(#pdec4bf29bd)" d="M -1 206.466535 
L -0.666687 206.466535 
L -0.666687 204.337426 
L 4.112661 204.337426 
L 4.112661 202.208317 
L 5.50585 202.208317 
L 5.50585 200.079208 
L 6.775489 200.079208 
L 6.775489 197.950099 
L 8.269975 197.950099 
L 8.269975 195.82099 
L 8.482289 195.82099 
L 8.482289 193.691881 
L 10.753824 193.691881 
L 10.753824 191.562772 
L 11.044565 191.562772 
L 11.044565 189.433663 
L 14.86167 189.433663 
L 14.86167 187.304554 
L 15.449445 187.304554 
L 15.449445 185.175446 
L 16.445977 185.175446 
L 16.445977 183.046337 
L 17.648589 183.046337 
L 17.648589 180.917228 
L 23.529112 180.917228 
L 23.529112 178.788119 
L 23.748162 178.788119 
L 23.748162 176.65901 
L 29.622993 176.65901 
L 29.622993 174.529901 
L 32.833918 174.529901 
L 32.833918 172.400792 
L 33.037114 172.400792 
L 33.037114 170.271683 
L 35.737079 170.271683 
L 35.737079 168.142574 
L 36.420926 168.142574 
L 36.420926 166.013465 
L 38.821571 166.013465 
L 38.821571 163.884356 
L 38.984344 163.884356 
L 38.984344 161.755248 
L 40.953109 161.755248 
L 40.953109 159.626139 
L 41.51354 159.626139 
L 41.51354 157.49703 
L 45.949396 157.49703 
L 45.949396 155.367921 
L 50.809896 155.367921 
L 50.809896 153.238812 
L 52.103843 153.238812 
L 52.103843 151.109703 
L 53.423666 151.109703 
L 53.423666 148.980594 
L 53.690969 148.980594 
L 53.690969 146.851485 
L 54.778157 146.851485 
L 54.778157 144.722376 
L 56.102936 144.722376 
L 56.102936 142.593267 
L 56.712751 142.593267 
L 56.712751 140.464158 
L 56.838439 140.464158 
L 56.838439 138.33505 
L 61.542933 138.33505 
L 61.542933 136.205941 
L 62.501918 136.205941 
L 62.501918 134.076832 
L 63.812474 134.076832 
L 63.812474 131.947723 
L 67.202251 131.947723 
L 67.202251 129.818614 
L 70.318032 129.818614 
L 70.318032 127.689505 
L 72.433829 127.689505 
L 72.433829 125.560396 
L 73.286032 125.560396 
L 73.286032 123.431287 
L 73.782148 123.431287 
L 73.782148 121.302178 
L 74.84236 121.302178 
L 74.84236 119.173069 
L 77.837222 119.173069 
L 77.837222 117.04396 
L 78.217493 117.04396 
L 78.231887 112.785743 
L 79.119944 112.785743 
L 79.119944 110.656634 
L 79.238768 110.656634 
L 79.238768 108.527525 
L 80.776251 108.527525 
L 80.838267 104.269307 
L 82.220919 104.269307 
L 82.220919 102.140198 
L 83.363715 102.140198 
L 83.363715 100.011089 
L 85.039826 100.011089 
L 85.039826 97.88198 
L 86.047641 97.88198 
L 86.047641 95.752871 
L 87.434359 95.752871 
L 87.434359 93.623762 
L 89.658549 93.623762 
L 89.658549 91.494653 
L 90.959462 91.494653 
L 90.959462 89.365545 
L 96.282876 89.365545 
L 96.282876 87.236436 
L 96.441743 87.236436 
L 96.454658 82.978218 
L 97.421943 82.978218 
L 97.421943 80.849109 
L 98.738941 80.849109 
L 98.738941 78.72 
L 99.697252 78.72 
L 99.697252 76.590891 
L 102.795475 76.590891 
L 102.795475 74.461782 
L 102.92378 74.461782 
L 102.92378 72.332673 
L 105.171372 72.332673 
L 105.171372 70.203564 
L 111.979784 70.203564 
L 111.979784 68.074455 
L 112.393999 68.074455 
L 112.393999 65.945347 
L 113.614866 65.945347 
L 113.614866 63.816238 
L 121.596354 63.816238 
L 121.596354 61.687129 
L 121.885101 61.687129 
L 121.885101 59.55802 
L 122.349837 59.55802 
L 122.349837 57.428911 
L 129.563432 57.428911 
L 129.563432 55.299802 
L 134.978252 55.299802 
L 134.978252 53.170693 
L 143.048205 53.170693 
L 143.136418 48.912475 
L 151.961447 48.912475 
L 151.961447 46.783366 
L 194.838702 46.783366 
L 194.838702 44.654257 
L 199.554963 44.654257 
L 199.554963 42.525149 
L 221.092848 42.525149 
L 221.092848 40.39604 
L 239.121444 40.39604 
L 239.121444 38.266931 
L 260.41881 38.266931 
L 260.41881 36.137822 
L 319.601264 36.137822 
L 319.601264 34.008713 
L 348.173301 34.008713 
L 348.173301 31.879604 
L 350.486048 31.879604 
L 350.486048 29.750495 
L 351.766078 29.750495 
L 351.766078 27.621386 
L 354.631523 27.621386 
L 354.631523 25.492277 
L 356.159946 25.492277 
L 356.159946 23.363168 
L 358.345427 23.363168 
L 358.345427 21.234059 
L 358.786433 21.234059 
L 358.786433 19.10495 
L 359.970027 19.10495 
L 359.98718 14.846733 
L 361.71884 14.846733 
L 361.71884 12.717624 
L 361.999931 12.717624 
L 361.999931 10.588515 
L 363.301701 10.588515 
L 363.301701 8.459406 
L 370.394718 8.459406 
L 370.394718 6.330297 
L 370.394718 6.330297 
L 460.8 6.330297 
L 460.8 6.330297 
" style="fill:none;stroke:#bf00bf;stroke-linecap:square;stroke-width:1.5;"/>
   </g>
   <g id="line2d_27">
    <path clip-path="url(#pdec4bf29bd)" d="M -1 117.04396 
L -0.942506 117.04396 
L -0.942506 114.914851 
L -0.666687 114.914851 
L -0.666687 112.785743 
L 3.554392 112.785743 
L 3.554392 110.656634 
L 3.881594 110.656634 
L 3.881594 108.527525 
L 5.373965 108.527525 
L 5.373965 106.398416 
L 6.123385 106.398416 
L 6.123385 104.269307 
L 6.615885 104.269307 
L 6.615885 102.140198 
L 7.306875 102.140198 
L 7.306875 100.011089 
L 9.217568 100.011089 
L 9.217568 97.88198 
L 9.335909 97.88198 
L 9.335909 95.752871 
L 10.329013 95.752871 
L 10.329013 93.623762 
L 10.998486 93.623762 
L 10.998486 91.494653 
L 17.648589 91.494653 
L 17.648589 89.365545 
L 20.508036 89.365545 
L 20.508036 87.236436 
L 23.712672 87.236436 
L 23.748162 82.978218 
L 24.652522 82.978218 
L 24.652522 80.849109 
L 25.52975 80.849109 
L 25.52975 78.72 
L 27.790177 78.72 
L 27.790177 76.590891 
L 28.180999 76.590891 
L 28.274821 72.332673 
L 29.381943 72.332673 
L 29.381943 70.203564 
L 30.13027 70.203564 
L 30.13027 68.074455 
L 33.710198 68.074455 
L 33.710198 65.945347 
L 36.420926 65.945347 
L 36.420926 63.816238 
L 42.969386 63.816238 
L 42.969386 61.687129 
L 43.916359 61.687129 
L 43.916359 59.55802 
L 44.096023 59.55802 
L 44.096023 57.428911 
L 44.616833 57.428911 
L 44.648688 53.170693 
L 45.560582 53.170693 
L 45.560582 51.041584 
L 45.758423 51.041584 
L 45.758423 48.912475 
L 46.44687 48.912475 
L 46.44687 46.783366 
L 52.354667 46.783366 
L 52.354667 44.654257 
L 56.305888 44.654257 
L 56.305888 42.525149 
L 56.504052 42.525149 
L 56.504052 40.39604 
L 58.346087 40.39604 
L 58.346087 38.266931 
L 58.806671 38.266931 
L 58.806671 36.137822 
L 61.502444 36.137822 
L 61.502444 34.008713 
L 62.411344 34.008713 
L 62.411344 31.879604 
L 63.718185 31.879604 
L 63.816915 27.621386 
L 71.780809 27.621386 
L 71.780809 25.492277 
L 79.238768 25.492277 
L 79.348771 21.234059 
L 82.545473 21.234059 
L 82.545473 19.10495 
L 85.113155 19.10495 
L 85.113155 16.975842 
L 88.785685 16.975842 
L 88.785685 14.846733 
L 90.742733 14.846733 
L 90.742733 12.717624 
L 94.5272 12.717624 
L 94.5272 10.588515 
L 122.426904 10.588515 
L 122.426904 8.459406 
L 344.129936 8.459406 
L 344.129936 6.330297 
L 344.129936 6.330297 
L 460.8 6.330297 
L 460.8 6.330297 
" style="fill:none;stroke:#000000;stroke-linecap:square;stroke-width:1.5;"/>
   </g>
   <g id="patch_3">
    <path d="M 0 293.76 
L 0 3.456 
" style="fill:none;stroke:#000000;stroke-linecap:square;stroke-linejoin:miter;stroke-width:0.8;"/>
   </g>
   <g id="patch_4">
    <path d="M 460.8 293.76 
L 460.8 3.456 
" style="fill:none;stroke:#000000;stroke-linecap:square;stroke-linejoin:miter;stroke-width:0.8;"/>
   </g>
   <g id="patch_5">
    <path d="M -0 293.76 
L 460.8 293.76 
" style="fill:none;stroke:#000000;stroke-linecap:square;stroke-linejoin:miter;stroke-width:0.8;"/>
   </g>
   <g id="patch_6">
    <path d="M -0 3.456 
L 460.8 3.456 
" style="fill:none;stroke:#000000;stroke-linecap:square;stroke-linejoin:miter;stroke-width:0.8;"/>
   </g>
   <g id="text_6">
    <!-- {f6, f12, f18, f24, f30, f36, f42, f48, f54}, 5-D -->
    <g transform="translate(-3.30975 287.95392)scale(0.2 -0.2)">
     <defs>
      <path d="M 51.125 -9.28125 
L 51.125 -16.3125 
L 48.09375 -16.3125 
Q 35.9375 -16.3125 31.8125 -12.6875 
Q 27.6875 -9.078125 27.6875 1.703125 
L 27.6875 13.375 
Q 27.6875 20.75 25.046875 23.578125 
Q 22.40625 26.421875 15.484375 26.421875 
L 12.5 26.421875 
L 12.5 33.40625 
L 15.484375 33.40625 
Q 22.46875 33.40625 25.078125 36.203125 
Q 27.6875 39.015625 27.6875 46.296875 
L 27.6875 58.015625 
Q 27.6875 68.796875 31.8125 72.390625 
Q 35.9375 75.984375 48.09375 75.984375 
L 51.125 75.984375 
L 51.125 69 
L 47.796875 69 
Q 40.921875 69 38.8125 66.84375 
Q 36.71875 64.703125 36.71875 57.8125 
L 36.71875 45.703125 
Q 36.71875 38.03125 34.5 34.5625 
Q 32.28125 31.109375 26.90625 29.890625 
Q 32.328125 28.5625 34.515625 25.09375 
Q 36.71875 21.625 36.71875 14.015625 
L 36.71875 1.90625 
Q 36.71875 -4.984375 38.8125 -7.125 
Q 40.921875 -9.28125 47.796875 -9.28125 
z
" id="DejaVuSans-123"/>
      <path d="M 33.015625 40.375 
Q 26.375 40.375 22.484375 35.828125 
Q 18.609375 31.296875 18.609375 23.390625 
Q 18.609375 15.53125 22.484375 10.953125 
Q 26.375 6.390625 33.015625 6.390625 
Q 39.65625 6.390625 43.53125 10.953125 
Q 47.40625 15.53125 47.40625 23.390625 
Q 47.40625 31.296875 43.53125 35.828125 
Q 39.65625 40.375 33.015625 40.375 
z
M 52.59375 71.296875 
L 52.59375 62.3125 
Q 48.875 64.0625 45.09375 64.984375 
Q 41.3125 65.921875 37.59375 65.921875 
Q 27.828125 65.921875 22.671875 59.328125 
Q 17.53125 52.734375 16.796875 39.40625 
Q 19.671875 43.65625 24.015625 45.921875 
Q 28.375 48.1875 33.59375 48.1875 
Q 44.578125 48.1875 50.953125 41.515625 
Q 57.328125 34.859375 57.328125 23.390625 
Q 57.328125 12.15625 50.6875 5.359375 
Q 44.046875 -1.421875 33.015625 -1.421875 
Q 20.359375 -1.421875 13.671875 8.265625 
Q 6.984375 17.96875 6.984375 36.375 
Q 6.984375 53.65625 15.1875 63.9375 
Q 23.390625 74.21875 37.203125 74.21875 
Q 40.921875 74.21875 44.703125 73.484375 
Q 48.484375 72.75 52.59375 71.296875 
z
" id="DejaVuSans-54"/>
      <path d="M 11.71875 12.40625 
L 22.015625 12.40625 
L 22.015625 4 
L 14.015625 -11.625 
L 7.71875 -11.625 
L 11.71875 4 
z
" id="DejaVuSans-44"/>
      <path d="M 31.78125 34.625 
Q 24.75 34.625 20.71875 30.859375 
Q 16.703125 27.09375 16.703125 20.515625 
Q 16.703125 13.921875 20.71875 10.15625 
Q 24.75 6.390625 31.78125 6.390625 
Q 38.8125 6.390625 42.859375 10.171875 
Q 46.921875 13.96875 46.921875 20.515625 
Q 46.921875 27.09375 42.890625 30.859375 
Q 38.875 34.625 31.78125 34.625 
z
M 21.921875 38.8125 
Q 15.578125 40.375 12.03125 44.71875 
Q 8.5 49.078125 8.5 55.328125 
Q 8.5 64.0625 14.71875 69.140625 
Q 20.953125 74.21875 31.78125 74.21875 
Q 42.671875 74.21875 48.875 69.140625 
Q 55.078125 64.0625 55.078125 55.328125 
Q 55.078125 49.078125 51.53125 44.71875 
Q 48 40.375 41.703125 38.8125 
Q 48.828125 37.15625 52.796875 32.3125 
Q 56.78125 27.484375 56.78125 20.515625 
Q 56.78125 9.90625 50.3125 4.234375 
Q 43.84375 -1.421875 31.78125 -1.421875 
Q 19.734375 -1.421875 13.25 4.234375 
Q 6.78125 9.90625 6.78125 20.515625 
Q 6.78125 27.484375 10.78125 32.3125 
Q 14.796875 37.15625 21.921875 38.8125 
z
M 18.3125 54.390625 
Q 18.3125 48.734375 21.84375 45.5625 
Q 25.390625 42.390625 31.78125 42.390625 
Q 38.140625 42.390625 41.71875 45.5625 
Q 45.3125 48.734375 45.3125 54.390625 
Q 45.3125 60.0625 41.71875 63.234375 
Q 38.140625 66.40625 31.78125 66.40625 
Q 25.390625 66.40625 21.84375 63.234375 
Q 18.3125 60.0625 18.3125 54.390625 
z
" id="DejaVuSans-56"/>
      <path d="M 40.578125 39.3125 
Q 47.65625 37.796875 51.625 33 
Q 55.609375 28.21875 55.609375 21.1875 
Q 55.609375 10.40625 48.1875 4.484375 
Q 40.765625 -1.421875 27.09375 -1.421875 
Q 22.515625 -1.421875 17.65625 -0.515625 
Q 12.796875 0.390625 7.625 2.203125 
L 7.625 11.71875 
Q 11.71875 9.328125 16.59375 8.109375 
Q 21.484375 6.890625 26.8125 6.890625 
Q 36.078125 6.890625 40.9375 10.546875 
Q 45.796875 14.203125 45.796875 21.1875 
Q 45.796875 27.640625 41.28125 31.265625 
Q 36.765625 34.90625 28.71875 34.90625 
L 20.21875 34.90625 
L 20.21875 43.015625 
L 29.109375 43.015625 
Q 36.375 43.015625 40.234375 45.921875 
Q 44.09375 48.828125 44.09375 54.296875 
Q 44.09375 59.90625 40.109375 62.90625 
Q 36.140625 65.921875 28.71875 65.921875 
Q 24.65625 65.921875 20.015625 65.03125 
Q 15.375 64.15625 9.8125 62.3125 
L 9.8125 71.09375 
Q 15.4375 72.65625 20.34375 73.4375 
Q 25.25 74.21875 29.59375 74.21875 
Q 40.828125 74.21875 47.359375 69.109375 
Q 53.90625 64.015625 53.90625 55.328125 
Q 53.90625 49.265625 50.4375 45.09375 
Q 46.96875 40.921875 40.578125 39.3125 
z
" id="DejaVuSans-51"/>
      <path d="M 12.5 -9.28125 
L 15.921875 -9.28125 
Q 22.75 -9.28125 24.828125 -7.171875 
Q 26.90625 -5.078125 26.90625 1.90625 
L 26.90625 14.015625 
Q 26.90625 21.625 29.09375 25.09375 
Q 31.296875 28.5625 36.71875 29.890625 
Q 31.296875 31.109375 29.09375 34.5625 
Q 26.90625 38.03125 26.90625 45.703125 
L 26.90625 57.8125 
Q 26.90625 64.75 24.828125 66.875 
Q 22.75 69 15.921875 69 
L 12.5 69 
L 12.5 75.984375 
L 15.578125 75.984375 
Q 27.734375 75.984375 31.8125 72.390625 
Q 35.890625 68.796875 35.890625 58.015625 
L 35.890625 46.296875 
Q 35.890625 39.015625 38.515625 36.203125 
Q 41.15625 33.40625 48.09375 33.40625 
L 51.125 33.40625 
L 51.125 26.421875 
L 48.09375 26.421875 
Q 41.15625 26.421875 38.515625 23.578125 
Q 35.890625 20.75 35.890625 13.375 
L 35.890625 1.703125 
Q 35.890625 -9.078125 31.8125 -12.6875 
Q 27.734375 -16.3125 15.578125 -16.3125 
L 12.5 -16.3125 
z
" id="DejaVuSans-125"/>
     </defs>
     <use xlink:href="#DejaVuSans-123"/>
     <use x="63.623047" xlink:href="#DejaVuSans-102"/>
     <use x="98.828125" xlink:href="#DejaVuSans-54"/>
     <use x="162.451172" xlink:href="#DejaVuSans-44"/>
     <use x="194.238281" xlink:href="#DejaVuSans-32"/>
     <use x="226.025391" xlink:href="#DejaVuSans-102"/>
     <use x="261.230469" xlink:href="#DejaVuSans-49"/>
     <use x="324.853516" xlink:href="#DejaVuSans-50"/>
     <use x="388.476562" xlink:href="#DejaVuSans-44"/>
     <use x="420.263672" xlink:href="#DejaVuSans-32"/>
     <use x="452.050781" xlink:href="#DejaVuSans-102"/>
     <use x="487.255859" xlink:href="#DejaVuSans-49"/>
     <use x="550.878906" xlink:href="#DejaVuSans-56"/>
     <use x="614.501953" xlink:href="#DejaVuSans-44"/>
     <use x="646.289062" xlink:href="#DejaVuSans-32"/>
     <use x="678.076172" xlink:href="#DejaVuSans-102"/>
     <use x="713.28125" xlink:href="#DejaVuSans-50"/>
     <use x="776.904297" xlink:href="#DejaVuSans-52"/>
     <use x="840.527344" xlink:href="#DejaVuSans-44"/>
     <use x="872.314453" xlink:href="#DejaVuSans-32"/>
     <use x="904.101562" xlink:href="#DejaVuSans-102"/>
     <use x="939.306641" xlink:href="#DejaVuSans-51"/>
     <use x="1002.929688" xlink:href="#DejaVuSans-48"/>
     <use x="1066.552734" xlink:href="#DejaVuSans-44"/>
     <use x="1098.339844" xlink:href="#DejaVuSans-32"/>
     <use x="1130.126953" xlink:href="#DejaVuSans-102"/>
     <use x="1165.332031" xlink:href="#DejaVuSans-51"/>
     <use x="1228.955078" xlink:href="#DejaVuSans-54"/>
     <use x="1292.578125" xlink:href="#DejaVuSans-44"/>
     <use x="1324.365234" xlink:href="#DejaVuSans-32"/>
     <use x="1356.152344" xlink:href="#DejaVuSans-102"/>
     <use x="1391.357422" xlink:href="#DejaVuSans-52"/>
     <use x="1454.980469" xlink:href="#DejaVuSans-50"/>
     <use x="1518.603516" xlink:href="#DejaVuSans-44"/>
     <use x="1550.390625" xlink:href="#DejaVuSans-32"/>
     <use x="1582.177734" xlink:href="#DejaVuSans-102"/>
     <use x="1617.382812" xlink:href="#DejaVuSans-52"/>
     <use x="1681.005859" xlink:href="#DejaVuSans-56"/>
     <use x="1744.628906" xlink:href="#DejaVuSans-44"/>
     <use x="1776.416016" xlink:href="#DejaVuSans-32"/>
     <use x="1808.203125" xlink:href="#DejaVuSans-102"/>
     <use x="1843.408203" xlink:href="#DejaVuSans-53"/>
     <use x="1907.03125" xlink:href="#DejaVuSans-52"/>
     <use x="1970.654297" xlink:href="#DejaVuSans-125"/>
     <use x="2034.277344" xlink:href="#DejaVuSans-44"/>
     <use x="2066.064453" xlink:href="#DejaVuSans-32"/>
     <use x="2097.851562" xlink:href="#DejaVuSans-53"/>
     <use x="2161.474609" xlink:href="#DejaVuSans-45"/>
     <use x="2197.558594" xlink:href="#DejaVuSans-68"/>
    </g>
   </g>
   <g id="text_7">
    <!-- v2.4.82 -->
    <g style="fill:#808080;" transform="translate(211.5375 288.777272)scale(0.1 -0.1)">
     <defs>
      <path d="M 2.984375 54.6875 
L 12.5 54.6875 
L 29.59375 8.796875 
L 46.6875 54.6875 
L 56.203125 54.6875 
L 35.6875 0 
L 23.484375 0 
z
" id="DejaVuSans-118"/>
      <path d="M 10.6875 12.40625 
L 21 12.40625 
L 21 0 
L 10.6875 0 
z
" id="DejaVuSans-46"/>
     </defs>
     <use xlink:href="#DejaVuSans-118"/>
     <use x="59.179688" xlink:href="#DejaVuSans-50"/>
     <use x="122.802734" xlink:href="#DejaVuSans-46"/>
     <use x="154.589844" xlink:href="#DejaVuSans-52"/>
     <use x="218.212891" xlink:href="#DejaVuSans-46"/>
     <use x="250" xlink:href="#DejaVuSans-56"/>
     <use x="313.623047" xlink:href="#DejaVuSans-50"/>
    </g>
   </g>
  </g>
 </g>
 <defs>
  <clipPath id="pdec4bf29bd">
   <rect height="290.304" width="460.8" x="0" y="3.456"/>
  </clipPath>
 </defs>
</svg>
