<?xml version="1.0" encoding="utf-8" standalone="no"?>
<!DOCTYPE svg PUBLIC "-//W3C//DTD SVG 1.1//EN"
  "http://www.w3.org/Graphics/SVG/1.1/DTD/svg11.dtd">
<!-- Created with matplotlib (https://matplotlib.org/) -->
<svg height="345.6pt" version="1.1" viewBox="0 0 460.8 345.6" width="460.8pt" xmlns="http://www.w3.org/2000/svg" xmlns:xlink="http://www.w3.org/1999/xlink">
 <metadata>
  <rdf:RDF xmlns:cc="http://creativecommons.org/ns#" xmlns:dc="http://purl.org/dc/elements/1.1/" xmlns:rdf="http://www.w3.org/1999/02/22-rdf-syntax-ns#">
   <cc:Work>
    <dc:type rdf:resource="http://purl.org/dc/dcmitype/StillImage"/>
    <dc:date>2022-02-09T10:44:47.379575</dc:date>
    <dc:format>image/svg+xml</dc:format>
    <dc:creator>
     <cc:Agent>
      <dc:title>Matplotlib v3.3.3, https://matplotlib.org/</dc:title>
     </cc:Agent>
    </dc:creator>
   </cc:Work>
  </rdf:RDF>
 </metadata>
 <defs>
  <style type="text/css">*{stroke-linecap:butt;stroke-linejoin:round;}</style>
 </defs>
 <g id="figure_1">
  <g id="patch_1">
   <path d="M 0 345.6 
L 460.8 345.6 
L 460.8 0 
L 0 0 
z
" style="fill:#ffffff;"/>
  </g>
  <g id="axes_1">
   <g id="patch_2">
    <path d="M 57.6 298.944 
L 360.8064 298.944 
L 360.8064 27.648 
L 57.6 27.648 
z
" style="fill:#ffffff;"/>
   </g>
   <g id="matplotlib.axis_1">
    <g id="xtick_1">
     <g id="line2d_1">
      <path clip-path="url(#p6a40ae988b)" d="M 57.6 298.944 
L 57.6 27.648 
" style="fill:none;stroke:#b0b0b0;stroke-linecap:square;stroke-width:0.8;"/>
     </g>
     <g id="line2d_2">
      <defs>
       <path d="M 0 0 
L 0 3.5 
" id="mfb063238b5" style="stroke:#000000;stroke-width:0.8;"/>
      </defs>
      <g>
       <use style="stroke:#000000;stroke-width:0.8;" x="57.6" xlink:href="#mfb063238b5" y="298.944"/>
      </g>
     </g>
     <g id="text_1">
      <!-- 0 -->
      <g transform="translate(52.191875 318.861344)scale(0.17 -0.17)">
       <defs>
        <path d="M 31.78125 66.40625 
Q 24.171875 66.40625 20.328125 58.90625 
Q 16.5 51.421875 16.5 36.375 
Q 16.5 21.390625 20.328125 13.890625 
Q 24.171875 6.390625 31.78125 6.390625 
Q 39.453125 6.390625 43.28125 13.890625 
Q 47.125 21.390625 47.125 36.375 
Q 47.125 51.421875 43.28125 58.90625 
Q 39.453125 66.40625 31.78125 66.40625 
z
M 31.78125 74.21875 
Q 44.046875 74.21875 50.515625 64.515625 
Q 56.984375 54.828125 56.984375 36.375 
Q 56.984375 17.96875 50.515625 8.265625 
Q 44.046875 -1.421875 31.78125 -1.421875 
Q 19.53125 -1.421875 13.0625 8.265625 
Q 6.59375 17.96875 6.59375 36.375 
Q 6.59375 54.828125 13.0625 64.515625 
Q 19.53125 74.21875 31.78125 74.21875 
z
" id="DejaVuSans-48"/>
       </defs>
       <use xlink:href="#DejaVuSans-48"/>
      </g>
     </g>
    </g>
    <g id="xtick_2">
     <g id="line2d_3">
      <path clip-path="url(#p6a40ae988b)" d="M 144.2304 298.944 
L 144.2304 27.648 
" style="fill:none;stroke:#b0b0b0;stroke-linecap:square;stroke-width:0.8;"/>
     </g>
     <g id="line2d_4">
      <g>
       <use style="stroke:#000000;stroke-width:0.8;" x="144.2304" xlink:href="#mfb063238b5" y="298.944"/>
      </g>
     </g>
     <g id="text_2">
      <!-- 2 -->
      <g transform="translate(138.822275 318.861344)scale(0.17 -0.17)">
       <defs>
        <path d="M 19.1875 8.296875 
L 53.609375 8.296875 
L 53.609375 0 
L 7.328125 0 
L 7.328125 8.296875 
Q 12.9375 14.109375 22.625 23.890625 
Q 32.328125 33.6875 34.8125 36.53125 
Q 39.546875 41.84375 41.421875 45.53125 
Q 43.3125 49.21875 43.3125 52.78125 
Q 43.3125 58.59375 39.234375 62.25 
Q 35.15625 65.921875 28.609375 65.921875 
Q 23.96875 65.921875 18.8125 64.3125 
Q 13.671875 62.703125 7.8125 59.421875 
L 7.8125 69.390625 
Q 13.765625 71.78125 18.9375 73 
Q 24.125 74.21875 28.421875 74.21875 
Q 39.75 74.21875 46.484375 68.546875 
Q 53.21875 62.890625 53.21875 53.421875 
Q 53.21875 48.921875 51.53125 44.890625 
Q 49.859375 40.875 45.40625 35.40625 
Q 44.1875 33.984375 37.640625 27.21875 
Q 31.109375 20.453125 19.1875 8.296875 
z
" id="DejaVuSans-50"/>
       </defs>
       <use xlink:href="#DejaVuSans-50"/>
      </g>
     </g>
    </g>
    <g id="xtick_3">
     <g id="line2d_5">
      <path clip-path="url(#p6a40ae988b)" d="M 230.8608 298.944 
L 230.8608 27.648 
" style="fill:none;stroke:#b0b0b0;stroke-linecap:square;stroke-width:0.8;"/>
     </g>
     <g id="line2d_6">
      <g>
       <use style="stroke:#000000;stroke-width:0.8;" x="230.8608" xlink:href="#mfb063238b5" y="298.944"/>
      </g>
     </g>
     <g id="text_3">
      <!-- 4 -->
      <g transform="translate(225.452675 318.861344)scale(0.17 -0.17)">
       <defs>
        <path d="M 37.796875 64.3125 
L 12.890625 25.390625 
L 37.796875 25.390625 
z
M 35.203125 72.90625 
L 47.609375 72.90625 
L 47.609375 25.390625 
L 58.015625 25.390625 
L 58.015625 17.1875 
L 47.609375 17.1875 
L 47.609375 0 
L 37.796875 0 
L 37.796875 17.1875 
L 4.890625 17.1875 
L 4.890625 26.703125 
z
" id="DejaVuSans-52"/>
       </defs>
       <use xlink:href="#DejaVuSans-52"/>
      </g>
     </g>
    </g>
    <g id="xtick_4">
     <g id="line2d_7">
      <path clip-path="url(#p6a40ae988b)" d="M 317.4912 298.944 
L 317.4912 27.648 
" style="fill:none;stroke:#b0b0b0;stroke-linecap:square;stroke-width:0.8;"/>
     </g>
     <g id="line2d_8">
      <g>
       <use style="stroke:#000000;stroke-width:0.8;" x="317.4912" xlink:href="#mfb063238b5" y="298.944"/>
      </g>
     </g>
     <g id="text_4">
      <!-- 6 -->
      <g transform="translate(312.083075 318.861344)scale(0.17 -0.17)">
       <defs>
        <path d="M 33.015625 40.375 
Q 26.375 40.375 22.484375 35.828125 
Q 18.609375 31.296875 18.609375 23.390625 
Q 18.609375 15.53125 22.484375 10.953125 
Q 26.375 6.390625 33.015625 6.390625 
Q 39.65625 6.390625 43.53125 10.953125 
Q 47.40625 15.53125 47.40625 23.390625 
Q 47.40625 31.296875 43.53125 35.828125 
Q 39.65625 40.375 33.015625 40.375 
z
M 52.59375 71.296875 
L 52.59375 62.3125 
Q 48.875 64.0625 45.09375 64.984375 
Q 41.3125 65.921875 37.59375 65.921875 
Q 27.828125 65.921875 22.671875 59.328125 
Q 17.53125 52.734375 16.796875 39.40625 
Q 19.671875 43.65625 24.015625 45.921875 
Q 28.375 48.1875 33.59375 48.1875 
Q 44.578125 48.1875 50.953125 41.515625 
Q 57.328125 34.859375 57.328125 23.390625 
Q 57.328125 12.15625 50.6875 5.359375 
Q 44.046875 -1.421875 33.015625 -1.421875 
Q 20.359375 -1.421875 13.671875 8.265625 
Q 6.984375 17.96875 6.984375 36.375 
Q 6.984375 53.65625 15.1875 63.9375 
Q 23.390625 74.21875 37.203125 74.21875 
Q 40.921875 74.21875 44.703125 73.484375 
Q 48.484375 72.75 52.59375 71.296875 
z
" id="DejaVuSans-54"/>
       </defs>
       <use xlink:href="#DejaVuSans-54"/>
      </g>
     </g>
    </g>
    <g id="xtick_5">
     <g id="line2d_9">
      <path clip-path="url(#p6a40ae988b)" d="M 100.9152 298.944 
L 100.9152 27.648 
" style="fill:none;stroke:#b0b0b0;stroke-linecap:square;stroke-width:0.8;"/>
     </g>
     <g id="line2d_10">
      <defs>
       <path d="M 0 0 
L 0 2 
" id="m856bf7698f" style="stroke:#000000;stroke-width:0.6;"/>
      </defs>
      <g>
       <use style="stroke:#000000;stroke-width:0.6;" x="100.9152" xlink:href="#m856bf7698f" y="298.944"/>
      </g>
     </g>
    </g>
    <g id="xtick_6">
     <g id="line2d_11">
      <path clip-path="url(#p6a40ae988b)" d="M 187.5456 298.944 
L 187.5456 27.648 
" style="fill:none;stroke:#b0b0b0;stroke-linecap:square;stroke-width:0.8;"/>
     </g>
     <g id="line2d_12">
      <g>
       <use style="stroke:#000000;stroke-width:0.6;" x="187.5456" xlink:href="#m856bf7698f" y="298.944"/>
      </g>
     </g>
    </g>
    <g id="xtick_7">
     <g id="line2d_13">
      <path clip-path="url(#p6a40ae988b)" d="M 274.176 298.944 
L 274.176 27.648 
" style="fill:none;stroke:#b0b0b0;stroke-linecap:square;stroke-width:0.8;"/>
     </g>
     <g id="line2d_14">
      <g>
       <use style="stroke:#000000;stroke-width:0.6;" x="274.176" xlink:href="#m856bf7698f" y="298.944"/>
      </g>
     </g>
    </g>
    <g id="xtick_8">
     <g id="line2d_15">
      <path clip-path="url(#p6a40ae988b)" d="M 360.8064 298.944 
L 360.8064 27.648 
" style="fill:none;stroke:#b0b0b0;stroke-linecap:square;stroke-width:0.8;"/>
     </g>
     <g id="line2d_16">
      <g>
       <use style="stroke:#000000;stroke-width:0.6;" x="360.8064" xlink:href="#m856bf7698f" y="298.944"/>
      </g>
     </g>
    </g>
    <g id="text_5">
     <!-- log10(evals / dimension) -->
     <g transform="translate(104.238825 339.314156)scale(0.17 -0.17)">
      <defs>
       <path d="M 9.421875 75.984375 
L 18.40625 75.984375 
L 18.40625 0 
L 9.421875 0 
z
" id="DejaVuSans-108"/>
       <path d="M 30.609375 48.390625 
Q 23.390625 48.390625 19.1875 42.75 
Q 14.984375 37.109375 14.984375 27.296875 
Q 14.984375 17.484375 19.15625 11.84375 
Q 23.34375 6.203125 30.609375 6.203125 
Q 37.796875 6.203125 41.984375 11.859375 
Q 46.1875 17.53125 46.1875 27.296875 
Q 46.1875 37.015625 41.984375 42.703125 
Q 37.796875 48.390625 30.609375 48.390625 
z
M 30.609375 56 
Q 42.328125 56 49.015625 48.375 
Q 55.71875 40.765625 55.71875 27.296875 
Q 55.71875 13.875 49.015625 6.21875 
Q 42.328125 -1.421875 30.609375 -1.421875 
Q 18.84375 -1.421875 12.171875 6.21875 
Q 5.515625 13.875 5.515625 27.296875 
Q 5.515625 40.765625 12.171875 48.375 
Q 18.84375 56 30.609375 56 
z
" id="DejaVuSans-111"/>
       <path d="M 45.40625 27.984375 
Q 45.40625 37.75 41.375 43.109375 
Q 37.359375 48.484375 30.078125 48.484375 
Q 22.859375 48.484375 18.828125 43.109375 
Q 14.796875 37.75 14.796875 27.984375 
Q 14.796875 18.265625 18.828125 12.890625 
Q 22.859375 7.515625 30.078125 7.515625 
Q 37.359375 7.515625 41.375 12.890625 
Q 45.40625 18.265625 45.40625 27.984375 
z
M 54.390625 6.78125 
Q 54.390625 -7.171875 48.1875 -13.984375 
Q 42 -20.796875 29.203125 -20.796875 
Q 24.46875 -20.796875 20.265625 -20.09375 
Q 16.0625 -19.390625 12.109375 -17.921875 
L 12.109375 -9.1875 
Q 16.0625 -11.328125 19.921875 -12.34375 
Q 23.78125 -13.375 27.78125 -13.375 
Q 36.625 -13.375 41.015625 -8.765625 
Q 45.40625 -4.15625 45.40625 5.171875 
L 45.40625 9.625 
Q 42.625 4.78125 38.28125 2.390625 
Q 33.9375 0 27.875 0 
Q 17.828125 0 11.671875 7.65625 
Q 5.515625 15.328125 5.515625 27.984375 
Q 5.515625 40.671875 11.671875 48.328125 
Q 17.828125 56 27.875 56 
Q 33.9375 56 38.28125 53.609375 
Q 42.625 51.21875 45.40625 46.390625 
L 45.40625 54.6875 
L 54.390625 54.6875 
z
" id="DejaVuSans-103"/>
       <path d="M 12.40625 8.296875 
L 28.515625 8.296875 
L 28.515625 63.921875 
L 10.984375 60.40625 
L 10.984375 69.390625 
L 28.421875 72.90625 
L 38.28125 72.90625 
L 38.28125 8.296875 
L 54.390625 8.296875 
L 54.390625 0 
L 12.40625 0 
z
" id="DejaVuSans-49"/>
       <path d="M 31 75.875 
Q 24.46875 64.65625 21.28125 53.65625 
Q 18.109375 42.671875 18.109375 31.390625 
Q 18.109375 20.125 21.3125 9.0625 
Q 24.515625 -2 31 -13.1875 
L 23.1875 -13.1875 
Q 15.875 -1.703125 12.234375 9.375 
Q 8.59375 20.453125 8.59375 31.390625 
Q 8.59375 42.28125 12.203125 53.3125 
Q 15.828125 64.359375 23.1875 75.875 
z
" id="DejaVuSans-40"/>
       <path d="M 56.203125 29.59375 
L 56.203125 25.203125 
L 14.890625 25.203125 
Q 15.484375 15.921875 20.484375 11.0625 
Q 25.484375 6.203125 34.421875 6.203125 
Q 39.59375 6.203125 44.453125 7.46875 
Q 49.3125 8.734375 54.109375 11.28125 
L 54.109375 2.78125 
Q 49.265625 0.734375 44.1875 -0.34375 
Q 39.109375 -1.421875 33.890625 -1.421875 
Q 20.796875 -1.421875 13.15625 6.1875 
Q 5.515625 13.8125 5.515625 26.8125 
Q 5.515625 40.234375 12.765625 48.109375 
Q 20.015625 56 32.328125 56 
Q 43.359375 56 49.78125 48.890625 
Q 56.203125 41.796875 56.203125 29.59375 
z
M 47.21875 32.234375 
Q 47.125 39.59375 43.09375 43.984375 
Q 39.0625 48.390625 32.421875 48.390625 
Q 24.90625 48.390625 20.390625 44.140625 
Q 15.875 39.890625 15.1875 32.171875 
z
" id="DejaVuSans-101"/>
       <path d="M 2.984375 54.6875 
L 12.5 54.6875 
L 29.59375 8.796875 
L 46.6875 54.6875 
L 56.203125 54.6875 
L 35.6875 0 
L 23.484375 0 
z
" id="DejaVuSans-118"/>
       <path d="M 34.28125 27.484375 
Q 23.390625 27.484375 19.1875 25 
Q 14.984375 22.515625 14.984375 16.5 
Q 14.984375 11.71875 18.140625 8.90625 
Q 21.296875 6.109375 26.703125 6.109375 
Q 34.1875 6.109375 38.703125 11.40625 
Q 43.21875 16.703125 43.21875 25.484375 
L 43.21875 27.484375 
z
M 52.203125 31.203125 
L 52.203125 0 
L 43.21875 0 
L 43.21875 8.296875 
Q 40.140625 3.328125 35.546875 0.953125 
Q 30.953125 -1.421875 24.3125 -1.421875 
Q 15.921875 -1.421875 10.953125 3.296875 
Q 6 8.015625 6 15.921875 
Q 6 25.140625 12.171875 29.828125 
Q 18.359375 34.515625 30.609375 34.515625 
L 43.21875 34.515625 
L 43.21875 35.40625 
Q 43.21875 41.609375 39.140625 45 
Q 35.0625 48.390625 27.6875 48.390625 
Q 23 48.390625 18.546875 47.265625 
Q 14.109375 46.140625 10.015625 43.890625 
L 10.015625 52.203125 
Q 14.9375 54.109375 19.578125 55.046875 
Q 24.21875 56 28.609375 56 
Q 40.484375 56 46.34375 49.84375 
Q 52.203125 43.703125 52.203125 31.203125 
z
" id="DejaVuSans-97"/>
       <path d="M 44.28125 53.078125 
L 44.28125 44.578125 
Q 40.484375 46.53125 36.375 47.5 
Q 32.28125 48.484375 27.875 48.484375 
Q 21.1875 48.484375 17.84375 46.4375 
Q 14.5 44.390625 14.5 40.28125 
Q 14.5 37.15625 16.890625 35.375 
Q 19.28125 33.59375 26.515625 31.984375 
L 29.59375 31.296875 
Q 39.15625 29.25 43.1875 25.515625 
Q 47.21875 21.78125 47.21875 15.09375 
Q 47.21875 7.46875 41.1875 3.015625 
Q 35.15625 -1.421875 24.609375 -1.421875 
Q 20.21875 -1.421875 15.453125 -0.5625 
Q 10.6875 0.296875 5.421875 2 
L 5.421875 11.28125 
Q 10.40625 8.6875 15.234375 7.390625 
Q 20.0625 6.109375 24.8125 6.109375 
Q 31.15625 6.109375 34.5625 8.28125 
Q 37.984375 10.453125 37.984375 14.40625 
Q 37.984375 18.0625 35.515625 20.015625 
Q 33.0625 21.96875 24.703125 23.78125 
L 21.578125 24.515625 
Q 13.234375 26.265625 9.515625 29.90625 
Q 5.8125 33.546875 5.8125 39.890625 
Q 5.8125 47.609375 11.28125 51.796875 
Q 16.75 56 26.8125 56 
Q 31.78125 56 36.171875 55.265625 
Q 40.578125 54.546875 44.28125 53.078125 
z
" id="DejaVuSans-115"/>
       <path id="DejaVuSans-32"/>
       <path d="M 25.390625 72.90625 
L 33.6875 72.90625 
L 8.296875 -9.28125 
L 0 -9.28125 
z
" id="DejaVuSans-47"/>
       <path d="M 45.40625 46.390625 
L 45.40625 75.984375 
L 54.390625 75.984375 
L 54.390625 0 
L 45.40625 0 
L 45.40625 8.203125 
Q 42.578125 3.328125 38.25 0.953125 
Q 33.9375 -1.421875 27.875 -1.421875 
Q 17.96875 -1.421875 11.734375 6.484375 
Q 5.515625 14.40625 5.515625 27.296875 
Q 5.515625 40.1875 11.734375 48.09375 
Q 17.96875 56 27.875 56 
Q 33.9375 56 38.25 53.625 
Q 42.578125 51.265625 45.40625 46.390625 
z
M 14.796875 27.296875 
Q 14.796875 17.390625 18.875 11.75 
Q 22.953125 6.109375 30.078125 6.109375 
Q 37.203125 6.109375 41.296875 11.75 
Q 45.40625 17.390625 45.40625 27.296875 
Q 45.40625 37.203125 41.296875 42.84375 
Q 37.203125 48.484375 30.078125 48.484375 
Q 22.953125 48.484375 18.875 42.84375 
Q 14.796875 37.203125 14.796875 27.296875 
z
" id="DejaVuSans-100"/>
       <path d="M 9.421875 54.6875 
L 18.40625 54.6875 
L 18.40625 0 
L 9.421875 0 
z
M 9.421875 75.984375 
L 18.40625 75.984375 
L 18.40625 64.59375 
L 9.421875 64.59375 
z
" id="DejaVuSans-105"/>
       <path d="M 52 44.1875 
Q 55.375 50.25 60.0625 53.125 
Q 64.75 56 71.09375 56 
Q 79.640625 56 84.28125 50.015625 
Q 88.921875 44.046875 88.921875 33.015625 
L 88.921875 0 
L 79.890625 0 
L 79.890625 32.71875 
Q 79.890625 40.578125 77.09375 44.375 
Q 74.3125 48.1875 68.609375 48.1875 
Q 61.625 48.1875 57.5625 43.546875 
Q 53.515625 38.921875 53.515625 30.90625 
L 53.515625 0 
L 44.484375 0 
L 44.484375 32.71875 
Q 44.484375 40.625 41.703125 44.40625 
Q 38.921875 48.1875 33.109375 48.1875 
Q 26.21875 48.1875 22.15625 43.53125 
Q 18.109375 38.875 18.109375 30.90625 
L 18.109375 0 
L 9.078125 0 
L 9.078125 54.6875 
L 18.109375 54.6875 
L 18.109375 46.1875 
Q 21.1875 51.21875 25.484375 53.609375 
Q 29.78125 56 35.6875 56 
Q 41.65625 56 45.828125 52.96875 
Q 50 49.953125 52 44.1875 
z
" id="DejaVuSans-109"/>
       <path d="M 54.890625 33.015625 
L 54.890625 0 
L 45.90625 0 
L 45.90625 32.71875 
Q 45.90625 40.484375 42.875 44.328125 
Q 39.84375 48.1875 33.796875 48.1875 
Q 26.515625 48.1875 22.3125 43.546875 
Q 18.109375 38.921875 18.109375 30.90625 
L 18.109375 0 
L 9.078125 0 
L 9.078125 54.6875 
L 18.109375 54.6875 
L 18.109375 46.1875 
Q 21.34375 51.125 25.703125 53.5625 
Q 30.078125 56 35.796875 56 
Q 45.21875 56 50.046875 50.171875 
Q 54.890625 44.34375 54.890625 33.015625 
z
" id="DejaVuSans-110"/>
       <path d="M 8.015625 75.875 
L 15.828125 75.875 
Q 23.140625 64.359375 26.78125 53.3125 
Q 30.421875 42.28125 30.421875 31.390625 
Q 30.421875 20.453125 26.78125 9.375 
Q 23.140625 -1.703125 15.828125 -13.1875 
L 8.015625 -13.1875 
Q 14.5 -2 17.703125 9.0625 
Q 20.90625 20.125 20.90625 31.390625 
Q 20.90625 42.671875 17.703125 53.65625 
Q 14.5 64.65625 8.015625 75.875 
z
" id="DejaVuSans-41"/>
      </defs>
      <use xlink:href="#DejaVuSans-108"/>
      <use x="27.783203" xlink:href="#DejaVuSans-111"/>
      <use x="88.964844" xlink:href="#DejaVuSans-103"/>
      <use x="152.441406" xlink:href="#DejaVuSans-49"/>
      <use x="216.064453" xlink:href="#DejaVuSans-48"/>
      <use x="279.6875" xlink:href="#DejaVuSans-40"/>
      <use x="318.701172" xlink:href="#DejaVuSans-101"/>
      <use x="380.224609" xlink:href="#DejaVuSans-118"/>
      <use x="439.404297" xlink:href="#DejaVuSans-97"/>
      <use x="500.683594" xlink:href="#DejaVuSans-108"/>
      <use x="528.466797" xlink:href="#DejaVuSans-115"/>
      <use x="580.566406" xlink:href="#DejaVuSans-32"/>
      <use x="612.353516" xlink:href="#DejaVuSans-47"/>
      <use x="646.044922" xlink:href="#DejaVuSans-32"/>
      <use x="677.832031" xlink:href="#DejaVuSans-100"/>
      <use x="741.308594" xlink:href="#DejaVuSans-105"/>
      <use x="769.091797" xlink:href="#DejaVuSans-109"/>
      <use x="866.503906" xlink:href="#DejaVuSans-101"/>
      <use x="928.027344" xlink:href="#DejaVuSans-110"/>
      <use x="991.40625" xlink:href="#DejaVuSans-115"/>
      <use x="1043.505859" xlink:href="#DejaVuSans-105"/>
      <use x="1071.289062" xlink:href="#DejaVuSans-111"/>
      <use x="1132.470703" xlink:href="#DejaVuSans-110"/>
      <use x="1195.849609" xlink:href="#DejaVuSans-41"/>
     </g>
    </g>
   </g>
   <g id="matplotlib.axis_2">
    <g id="ytick_1">
     <g id="line2d_17">
      <path clip-path="url(#p6a40ae988b)" d="M 57.6 298.944 
L 360.8064 298.944 
" style="fill:none;stroke:#b0b0b0;stroke-linecap:square;stroke-width:0.8;"/>
     </g>
     <g id="line2d_18">
      <defs>
       <path d="M 0 0 
L -3.5 0 
" id="m0b74c0eee2" style="stroke:#000000;stroke-width:0.8;"/>
      </defs>
      <g>
       <use style="stroke:#000000;stroke-width:0.8;" x="57.6" xlink:href="#m0b74c0eee2" y="298.944"/>
      </g>
     </g>
     <g id="text_6">
      <!-- 0.0 -->
      <g transform="translate(25.155 305.02275)scale(0.16 -0.16)">
       <defs>
        <path d="M 10.6875 12.40625 
L 21 12.40625 
L 21 0 
L 10.6875 0 
z
" id="DejaVuSans-46"/>
       </defs>
       <use xlink:href="#DejaVuSans-48"/>
       <use x="63.623047" xlink:href="#DejaVuSans-46"/>
       <use x="95.410156" xlink:href="#DejaVuSans-48"/>
      </g>
     </g>
    </g>
    <g id="ytick_2">
     <g id="line2d_19">
      <path clip-path="url(#p6a40ae988b)" d="M 57.6 244.6848 
L 360.8064 244.6848 
" style="fill:none;stroke:#b0b0b0;stroke-linecap:square;stroke-width:0.8;"/>
     </g>
     <g id="line2d_20">
      <g>
       <use style="stroke:#000000;stroke-width:0.8;" x="57.6" xlink:href="#m0b74c0eee2" y="244.6848"/>
      </g>
     </g>
     <g id="text_7">
      <!-- 0.2 -->
      <g transform="translate(25.155 250.76355)scale(0.16 -0.16)">
       <use xlink:href="#DejaVuSans-48"/>
       <use x="63.623047" xlink:href="#DejaVuSans-46"/>
       <use x="95.410156" xlink:href="#DejaVuSans-50"/>
      </g>
     </g>
    </g>
    <g id="ytick_3">
     <g id="line2d_21">
      <path clip-path="url(#p6a40ae988b)" d="M 57.6 190.4256 
L 360.8064 190.4256 
" style="fill:none;stroke:#b0b0b0;stroke-linecap:square;stroke-width:0.8;"/>
     </g>
     <g id="line2d_22">
      <g>
       <use style="stroke:#000000;stroke-width:0.8;" x="57.6" xlink:href="#m0b74c0eee2" y="190.4256"/>
      </g>
     </g>
     <g id="text_8">
      <!-- 0.4 -->
      <g transform="translate(25.155 196.50435)scale(0.16 -0.16)">
       <use xlink:href="#DejaVuSans-48"/>
       <use x="63.623047" xlink:href="#DejaVuSans-46"/>
       <use x="95.410156" xlink:href="#DejaVuSans-52"/>
      </g>
     </g>
    </g>
    <g id="ytick_4">
     <g id="line2d_23">
      <path clip-path="url(#p6a40ae988b)" d="M 57.6 136.1664 
L 360.8064 136.1664 
" style="fill:none;stroke:#b0b0b0;stroke-linecap:square;stroke-width:0.8;"/>
     </g>
     <g id="line2d_24">
      <g>
       <use style="stroke:#000000;stroke-width:0.8;" x="57.6" xlink:href="#m0b74c0eee2" y="136.1664"/>
      </g>
     </g>
     <g id="text_9">
      <!-- 0.6 -->
      <g transform="translate(25.155 142.24515)scale(0.16 -0.16)">
       <use xlink:href="#DejaVuSans-48"/>
       <use x="63.623047" xlink:href="#DejaVuSans-46"/>
       <use x="95.410156" xlink:href="#DejaVuSans-54"/>
      </g>
     </g>
    </g>
    <g id="ytick_5">
     <g id="line2d_25">
      <path clip-path="url(#p6a40ae988b)" d="M 57.6 81.9072 
L 360.8064 81.9072 
" style="fill:none;stroke:#b0b0b0;stroke-linecap:square;stroke-width:0.8;"/>
     </g>
     <g id="line2d_26">
      <g>
       <use style="stroke:#000000;stroke-width:0.8;" x="57.6" xlink:href="#m0b74c0eee2" y="81.9072"/>
      </g>
     </g>
     <g id="text_10">
      <!-- 0.8 -->
      <g transform="translate(25.155 87.98595)scale(0.16 -0.16)">
       <defs>
        <path d="M 31.78125 34.625 
Q 24.75 34.625 20.71875 30.859375 
Q 16.703125 27.09375 16.703125 20.515625 
Q 16.703125 13.921875 20.71875 10.15625 
Q 24.75 6.390625 31.78125 6.390625 
Q 38.8125 6.390625 42.859375 10.171875 
Q 46.921875 13.96875 46.921875 20.515625 
Q 46.921875 27.09375 42.890625 30.859375 
Q 38.875 34.625 31.78125 34.625 
z
M 21.921875 38.8125 
Q 15.578125 40.375 12.03125 44.71875 
Q 8.5 49.078125 8.5 55.328125 
Q 8.5 64.0625 14.71875 69.140625 
Q 20.953125 74.21875 31.78125 74.21875 
Q 42.671875 74.21875 48.875 69.140625 
Q 55.078125 64.0625 55.078125 55.328125 
Q 55.078125 49.078125 51.53125 44.71875 
Q 48 40.375 41.703125 38.8125 
Q 48.828125 37.15625 52.796875 32.3125 
Q 56.78125 27.484375 56.78125 20.515625 
Q 56.78125 9.90625 50.3125 4.234375 
Q 43.84375 -1.421875 31.78125 -1.421875 
Q 19.734375 -1.421875 13.25 4.234375 
Q 6.78125 9.90625 6.78125 20.515625 
Q 6.78125 27.484375 10.78125 32.3125 
Q 14.796875 37.15625 21.921875 38.8125 
z
M 18.3125 54.390625 
Q 18.3125 48.734375 21.84375 45.5625 
Q 25.390625 42.390625 31.78125 42.390625 
Q 38.140625 42.390625 41.71875 45.5625 
Q 45.3125 48.734375 45.3125 54.390625 
Q 45.3125 60.0625 41.71875 63.234375 
Q 38.140625 66.40625 31.78125 66.40625 
Q 25.390625 66.40625 21.84375 63.234375 
Q 18.3125 60.0625 18.3125 54.390625 
z
" id="DejaVuSans-56"/>
       </defs>
       <use xlink:href="#DejaVuSans-48"/>
       <use x="63.623047" xlink:href="#DejaVuSans-46"/>
       <use x="95.410156" xlink:href="#DejaVuSans-56"/>
      </g>
     </g>
    </g>
    <g id="ytick_6">
     <g id="line2d_27">
      <path clip-path="url(#p6a40ae988b)" d="M 57.6 27.648 
L 360.8064 27.648 
" style="fill:none;stroke:#b0b0b0;stroke-linecap:square;stroke-width:0.8;"/>
     </g>
     <g id="line2d_28">
      <g>
       <use style="stroke:#000000;stroke-width:0.8;" x="57.6" xlink:href="#m0b74c0eee2" y="27.648"/>
      </g>
     </g>
     <g id="text_11">
      <!-- 1.0 -->
      <g transform="translate(25.155 33.72675)scale(0.16 -0.16)">
       <use xlink:href="#DejaVuSans-49"/>
       <use x="63.623047" xlink:href="#DejaVuSans-46"/>
       <use x="95.410156" xlink:href="#DejaVuSans-48"/>
      </g>
     </g>
    </g>
    <g id="text_12">
     <!-- Fraction of function,target pairs -->
     <g transform="translate(17.619531 297.681)rotate(-90)scale(0.17 -0.17)">
      <defs>
       <path d="M 9.8125 72.90625 
L 51.703125 72.90625 
L 51.703125 64.59375 
L 19.671875 64.59375 
L 19.671875 43.109375 
L 48.578125 43.109375 
L 48.578125 34.8125 
L 19.671875 34.8125 
L 19.671875 0 
L 9.8125 0 
z
" id="DejaVuSans-70"/>
       <path d="M 41.109375 46.296875 
Q 39.59375 47.171875 37.8125 47.578125 
Q 36.03125 48 33.890625 48 
Q 26.265625 48 22.1875 43.046875 
Q 18.109375 38.09375 18.109375 28.8125 
L 18.109375 0 
L 9.078125 0 
L 9.078125 54.6875 
L 18.109375 54.6875 
L 18.109375 46.1875 
Q 20.953125 51.171875 25.484375 53.578125 
Q 30.03125 56 36.53125 56 
Q 37.453125 56 38.578125 55.875 
Q 39.703125 55.765625 41.0625 55.515625 
z
" id="DejaVuSans-114"/>
       <path d="M 48.78125 52.59375 
L 48.78125 44.1875 
Q 44.96875 46.296875 41.140625 47.34375 
Q 37.3125 48.390625 33.40625 48.390625 
Q 24.65625 48.390625 19.8125 42.84375 
Q 14.984375 37.3125 14.984375 27.296875 
Q 14.984375 17.28125 19.8125 11.734375 
Q 24.65625 6.203125 33.40625 6.203125 
Q 37.3125 6.203125 41.140625 7.25 
Q 44.96875 8.296875 48.78125 10.40625 
L 48.78125 2.09375 
Q 45.015625 0.34375 40.984375 -0.53125 
Q 36.96875 -1.421875 32.421875 -1.421875 
Q 20.0625 -1.421875 12.78125 6.34375 
Q 5.515625 14.109375 5.515625 27.296875 
Q 5.515625 40.671875 12.859375 48.328125 
Q 20.21875 56 33.015625 56 
Q 37.15625 56 41.109375 55.140625 
Q 45.0625 54.296875 48.78125 52.59375 
z
" id="DejaVuSans-99"/>
       <path d="M 18.3125 70.21875 
L 18.3125 54.6875 
L 36.8125 54.6875 
L 36.8125 47.703125 
L 18.3125 47.703125 
L 18.3125 18.015625 
Q 18.3125 11.328125 20.140625 9.421875 
Q 21.96875 7.515625 27.59375 7.515625 
L 36.8125 7.515625 
L 36.8125 0 
L 27.59375 0 
Q 17.1875 0 13.234375 3.875 
Q 9.28125 7.765625 9.28125 18.015625 
L 9.28125 47.703125 
L 2.6875 47.703125 
L 2.6875 54.6875 
L 9.28125 54.6875 
L 9.28125 70.21875 
z
" id="DejaVuSans-116"/>
       <path d="M 37.109375 75.984375 
L 37.109375 68.5 
L 28.515625 68.5 
Q 23.6875 68.5 21.796875 66.546875 
Q 19.921875 64.59375 19.921875 59.515625 
L 19.921875 54.6875 
L 34.71875 54.6875 
L 34.71875 47.703125 
L 19.921875 47.703125 
L 19.921875 0 
L 10.890625 0 
L 10.890625 47.703125 
L 2.296875 47.703125 
L 2.296875 54.6875 
L 10.890625 54.6875 
L 10.890625 58.5 
Q 10.890625 67.625 15.140625 71.796875 
Q 19.390625 75.984375 28.609375 75.984375 
z
" id="DejaVuSans-102"/>
       <path d="M 8.5 21.578125 
L 8.5 54.6875 
L 17.484375 54.6875 
L 17.484375 21.921875 
Q 17.484375 14.15625 20.5 10.265625 
Q 23.53125 6.390625 29.59375 6.390625 
Q 36.859375 6.390625 41.078125 11.03125 
Q 45.3125 15.671875 45.3125 23.6875 
L 45.3125 54.6875 
L 54.296875 54.6875 
L 54.296875 0 
L 45.3125 0 
L 45.3125 8.40625 
Q 42.046875 3.421875 37.71875 1 
Q 33.40625 -1.421875 27.6875 -1.421875 
Q 18.265625 -1.421875 13.375 4.4375 
Q 8.5 10.296875 8.5 21.578125 
z
M 31.109375 56 
z
" id="DejaVuSans-117"/>
       <path d="M 11.71875 12.40625 
L 22.015625 12.40625 
L 22.015625 4 
L 14.015625 -11.625 
L 7.71875 -11.625 
L 11.71875 4 
z
" id="DejaVuSans-44"/>
       <path d="M 18.109375 8.203125 
L 18.109375 -20.796875 
L 9.078125 -20.796875 
L 9.078125 54.6875 
L 18.109375 54.6875 
L 18.109375 46.390625 
Q 20.953125 51.265625 25.265625 53.625 
Q 29.59375 56 35.59375 56 
Q 45.5625 56 51.78125 48.09375 
Q 58.015625 40.1875 58.015625 27.296875 
Q 58.015625 14.40625 51.78125 6.484375 
Q 45.5625 -1.421875 35.59375 -1.421875 
Q 29.59375 -1.421875 25.265625 0.953125 
Q 20.953125 3.328125 18.109375 8.203125 
z
M 48.6875 27.296875 
Q 48.6875 37.203125 44.609375 42.84375 
Q 40.53125 48.484375 33.40625 48.484375 
Q 26.265625 48.484375 22.1875 42.84375 
Q 18.109375 37.203125 18.109375 27.296875 
Q 18.109375 17.390625 22.1875 11.75 
Q 26.265625 6.109375 33.40625 6.109375 
Q 40.53125 6.109375 44.609375 11.75 
Q 48.6875 17.390625 48.6875 27.296875 
z
" id="DejaVuSans-112"/>
      </defs>
      <use xlink:href="#DejaVuSans-70"/>
      <use x="50.269531" xlink:href="#DejaVuSans-114"/>
      <use x="91.382812" xlink:href="#DejaVuSans-97"/>
      <use x="152.662109" xlink:href="#DejaVuSans-99"/>
      <use x="207.642578" xlink:href="#DejaVuSans-116"/>
      <use x="246.851562" xlink:href="#DejaVuSans-105"/>
      <use x="274.634766" xlink:href="#DejaVuSans-111"/>
      <use x="335.816406" xlink:href="#DejaVuSans-110"/>
      <use x="399.195312" xlink:href="#DejaVuSans-32"/>
      <use x="430.982422" xlink:href="#DejaVuSans-111"/>
      <use x="492.164062" xlink:href="#DejaVuSans-102"/>
      <use x="527.369141" xlink:href="#DejaVuSans-32"/>
      <use x="559.15625" xlink:href="#DejaVuSans-102"/>
      <use x="594.361328" xlink:href="#DejaVuSans-117"/>
      <use x="657.740234" xlink:href="#DejaVuSans-110"/>
      <use x="721.119141" xlink:href="#DejaVuSans-99"/>
      <use x="776.099609" xlink:href="#DejaVuSans-116"/>
      <use x="815.308594" xlink:href="#DejaVuSans-105"/>
      <use x="843.091797" xlink:href="#DejaVuSans-111"/>
      <use x="904.273438" xlink:href="#DejaVuSans-110"/>
      <use x="967.652344" xlink:href="#DejaVuSans-44"/>
      <use x="999.439453" xlink:href="#DejaVuSans-116"/>
      <use x="1038.648438" xlink:href="#DejaVuSans-97"/>
      <use x="1099.927734" xlink:href="#DejaVuSans-114"/>
      <use x="1139.291016" xlink:href="#DejaVuSans-103"/>
      <use x="1202.767578" xlink:href="#DejaVuSans-101"/>
      <use x="1264.291016" xlink:href="#DejaVuSans-116"/>
      <use x="1303.5" xlink:href="#DejaVuSans-32"/>
      <use x="1335.287109" xlink:href="#DejaVuSans-112"/>
      <use x="1398.763672" xlink:href="#DejaVuSans-97"/>
      <use x="1460.042969" xlink:href="#DejaVuSans-105"/>
      <use x="1487.826172" xlink:href="#DejaVuSans-114"/>
      <use x="1528.939453" xlink:href="#DejaVuSans-115"/>
     </g>
    </g>
   </g>
   <g id="line2d_29">
    <defs>
     <path d="M 0 1.5 
C 0.397805 1.5 0.77937 1.341951 1.06066 1.06066 
C 1.341951 0.77937 1.5 0.397805 1.5 0 
C 1.5 -0.397805 1.341951 -0.77937 1.06066 -1.06066 
C 0.77937 -1.341951 0.397805 -1.5 0 -1.5 
C -0.397805 -1.5 -0.77937 -1.341951 -1.06066 -1.06066 
C -1.341951 -0.77937 -1.5 -0.397805 -1.5 0 
C -1.5 0.397805 -1.341951 0.77937 -1.06066 1.06066 
C -0.77937 1.341951 -0.397805 1.5 0 1.5 
z
" id="m596763efa4" style="stroke:#00bfbf;"/>
    </defs>
    <g>
     <use style="fill:#00bfbf;stroke:#00bfbf;" x="186.865648" xlink:href="#m596763efa4" y="27.648"/>
     <use style="fill:#00bfbf;stroke:#00bfbf;" x="186.865648" xlink:href="#m596763efa4" y="27.648"/>
    </g>
   </g>
   <g id="line2d_30">
    <path d="M 87.876026 298.944 
L 87.876026 298.061737 
L 91.305777 298.061737 
L 91.305777 295.856078 
L 98.933205 295.856078 
L 98.933205 293.65042 
L 100.9152 293.65042 
L 100.9152 289.239102 
L 102.708132 289.239102 
L 102.708132 280.8576 
L 104.344952 280.8576 
L 104.344952 277.769678 
L 105.850679 277.769678 
L 105.850679 268.947044 
L 107.244765 268.947044 
L 107.244765 268.505912 
L 108.542628 268.505912 
L 108.542628 264.535727 
L 109.756698 264.535727 
L 109.756698 249.096117 
L 110.897141 249.096117 
L 110.897141 240.714615 
L 111.97238 240.714615 
L 111.97238 238.508956 
L 112.989468 238.508956 
L 112.989468 233.215376 
L 113.954374 233.215376 
L 113.954374 222.628215 
L 114.872193 222.628215 
L 114.872193 217.775766 
L 115.747307 217.775766 
L 115.747307 204.982946 
L 116.583514 204.982946 
L 116.583514 203.21842 
L 117.384126 203.21842 
L 117.384126 198.807102 
L 118.152051 198.807102 
L 118.152051 191.307863 
L 118.889854 191.307863 
L 118.889854 187.337678 
L 119.599808 187.337678 
L 119.599808 183.808624 
L 120.28394 183.808624 
L 120.28394 178.515044 
L 120.944062 178.515044 
L 120.944062 173.221463 
L 121.581803 173.221463 
L 121.581803 172.780332 
L 122.19863 172.780332 
L 122.19863 171.015805 
L 122.795872 171.015805 
L 122.795872 165.722224 
L 123.374735 165.722224 
L 123.374735 164.398829 
L 123.936316 164.398829 
L 123.936316 157.781854 
L 124.481616 157.781854 
L 124.481616 156.89959 
L 125.011554 156.89959 
L 125.011554 154.693932 
L 125.526971 154.693932 
L 125.526971 152.929405 
L 127.458055 152.929405 
L 127.458055 152.488273 
L 128.354013 152.488273 
L 128.354013 151.60601 
L 129.209231 151.60601 
L 129.209231 151.164878 
L 142.559347 151.164878 
L 142.559347 149.841483 
L 143.946089 149.841483 
L 143.946089 148.076956 
L 144.136106 148.076956 
L 144.136106 147.194693 
L 144.324223 147.194693 
L 144.324223 145.871298 
L 144.510478 145.871298 
L 144.510478 144.547902 
L 144.877544 144.547902 
L 144.877544 141.018849 
L 145.058426 141.018849 
L 145.058426 135.725268 
L 145.415054 135.725268 
L 145.415054 130.431688 
L 145.590864 130.431688 
L 145.590864 126.461502 
L 145.765046 126.461502 
L 145.765046 125.138107 
L 145.93763 125.138107 
L 145.93763 124.696976 
L 146.108646 124.696976 
L 146.108646 123.37358 
L 146.27812 123.37358 
L 146.27812 122.491317 
L 146.446082 122.491317 
L 146.446082 120.72679 
L 146.612557 120.72679 
L 146.612557 112.345288 
L 146.777571 112.345288 
L 146.777571 109.257366 
L 146.941151 109.257366 
L 146.941151 107.051707 
L 147.103321 107.051707 
L 147.103321 102.199259 
L 147.264104 102.199259 
L 147.264104 97.34681 
L 147.423525 97.34681 
L 147.423525 94.70002 
L 147.73837 94.70002 
L 147.73837 94.258888 
L 147.893838 94.258888 
L 147.893838 91.170966 
L 148.200973 91.170966 
L 148.200973 90.288702 
L 148.503173 90.288702 
L 148.503173 87.641912 
L 149.238092 87.641912 
L 149.238092 85.877385 
L 149.524205 85.877385 
L 149.524205 83.230595 
L 150.083698 83.230595 
L 150.083698 81.9072 
L 151.155108 81.9072 
L 151.155108 80.583805 
L 155.339761 80.583805 
L 155.339761 80.142673 
L 155.649849 80.142673 
L 155.649849 77.937015 
L 156.155566 77.937015 
L 156.155566 73.084566 
L 156.354107 73.084566 
L 156.354107 70.878907 
L 156.745011 70.878907 
L 156.745011 69.996644 
L 157.032948 69.996644 
L 157.032948 68.673249 
L 157.410135 68.673249 
L 157.410135 65.144195 
L 157.871225 65.144195 
L 157.962102 62.497405 
L 173.0195 62.497405 
L 173.0195 60.732878 
L 173.221995 60.732878 
L 173.221995 57.644956 
L 173.382435 57.644956 
L 173.422332 54.557034 
L 173.541519 54.557034 
L 173.541519 49.704585 
L 173.816719 49.704585 
L 173.816719 47.498927 
L 173.972187 47.498927 
L 174.010854 44.411005 
L 186.311454 44.411005 
L 186.311454 42.646478 
L 186.471468 42.646478 
L 186.531124 34.706107 
L 186.689288 34.706107 
L 186.78747 28.089132 
L 186.865648 28.089132 
L 186.865648 27.648 
L 360.8064 27.648 
L 360.8064 27.648 
" style="fill:none;stroke:#00bfbf;stroke-linecap:square;stroke-width:1.5;"/>
   </g>
   <g id="line2d_31">
    <defs>
     <path d="M -6 0 
L 6 0 
M 0 6 
L 0 -6 
" id="m4c104c57ff" style="stroke:#00bfbf;stroke-width:1.5;"/>
    </defs>
    <g>
     <use style="fill-opacity:0;stroke:#00bfbf;stroke-width:1.5;" x="115.747307" xlink:href="#m4c104c57ff" y="217.775766"/>
     <use style="fill-opacity:0;stroke:#00bfbf;stroke-width:1.5;" x="157.962102" xlink:href="#m4c104c57ff" y="62.497405"/>
     <use style="fill-opacity:0;stroke:#00bfbf;stroke-width:1.5;" x="186.865648" xlink:href="#m4c104c57ff" y="27.648"/>
     <use style="fill-opacity:0;stroke:#00bfbf;stroke-width:1.5;" x="186.865648" xlink:href="#m4c104c57ff" y="27.648"/>
     <use style="fill-opacity:0;stroke:#00bfbf;stroke-width:1.5;" x="360.8064" xlink:href="#m4c104c57ff" y="27.648"/>
    </g>
   </g>
   <g id="line2d_32">
    <path style="fill:none;stroke:#00bfbf;stroke-linecap:square;stroke-width:1.5;"/>
    <g/>
   </g>
   <g id="line2d_33">
    <defs>
     <path d="M 0 1.5 
C 0.397805 1.5 0.77937 1.341951 1.06066 1.06066 
C 1.341951 0.77937 1.5 0.397805 1.5 0 
C 1.5 -0.397805 1.341951 -0.77937 1.06066 -1.06066 
C 0.77937 -1.341951 0.397805 -1.5 0 -1.5 
C -0.397805 -1.5 -0.77937 -1.341951 -1.06066 -1.06066 
C -1.341951 -0.77937 -1.5 -0.397805 -1.5 0 
C -1.5 0.397805 -1.341951 0.77937 -1.06066 1.06066 
C -0.77937 1.341951 -0.397805 1.5 0 1.5 
z
" id="mdffd5d5a4b" style="stroke:#008000;"/>
    </defs>
    <g>
     <use style="fill:#008000;stroke:#008000;" x="206.274282" xlink:href="#mdffd5d5a4b" y="27.648"/>
     <use style="fill:#008000;stroke:#008000;" x="206.274282" xlink:href="#mdffd5d5a4b" y="27.648"/>
    </g>
   </g>
   <g id="line2d_34">
    <path d="M 96.717523 298.944 
L 96.717523 298.502868 
L 98.223251 298.502868 
L 98.223251 295.856078 
L 99.617337 295.856078 
L 99.617337 291.444761 
L 100.9152 291.444761 
L 100.9152 286.592312 
L 102.12927 286.592312 
L 102.12927 283.50439 
L 103.269713 283.50439 
L 103.269713 280.8576 
L 104.344952 280.8576 
L 104.344952 278.651941 
L 105.36204 278.651941 
L 105.36204 276.005151 
L 106.326946 276.005151 
L 106.326946 262.7712 
L 107.244765 262.7712 
L 107.244765 259.242146 
L 108.119879 259.242146 
L 108.119879 257.036488 
L 108.956085 257.036488 
L 108.956085 254.830829 
L 109.756698 254.830829 
L 109.756698 251.301776 
L 110.524623 251.301776 
L 110.524623 244.6848 
L 111.262425 244.6848 
L 111.262425 235.421034 
L 112.656511 235.421034 
L 112.656511 232.774244 
L 113.316634 232.774244 
L 113.316634 227.921795 
L 113.954374 227.921795 
L 113.954374 219.540293 
L 115.168444 219.540293 
L 115.168444 214.687844 
L 115.747307 214.687844 
L 115.747307 213.364449 
L 116.308887 213.364449 
L 116.308887 212.041054 
L 116.854188 212.041054 
L 116.854188 209.835395 
L 117.384126 209.835395 
L 117.384126 208.512 
L 117.899543 208.512 
L 117.899543 197.924839 
L 118.401214 197.924839 
L 118.401214 192.190127 
L 118.889854 192.190127 
L 118.889854 188.661073 
L 119.366121 188.661073 
L 119.366121 186.896546 
L 119.830627 186.896546 
L 119.830627 184.249756 
L 120.28394 184.249756 
L 120.28394 178.073912 
L 121.159053 178.073912 
L 121.159053 176.309385 
L 121.581803 176.309385 
L 121.581803 168.810146 
L 121.99526 168.810146 
L 121.99526 167.486751 
L 122.399825 167.486751 
L 122.399825 166.163356 
L 122.795872 166.163356 
L 122.795872 163.075434 
L 123.563797 163.075434 
L 123.563797 162.634302 
L 123.936316 162.634302 
L 123.936316 159.105249 
L 124.3016 159.105249 
L 124.3016 158.664117 
L 124.659926 158.664117 
L 124.659926 155.576195 
L 125.011554 155.576195 
L 125.011554 153.370537 
L 125.35673 153.370537 
L 125.35673 151.164878 
L 126.028642 151.164878 
L 126.028642 150.723746 
L 126.355808 150.723746 
L 126.355808 149.400351 
L 126.993549 149.400351 
L 126.993549 148.95922 
L 127.304491 148.95922 
L 127.304491 146.312429 
L 127.610376 146.312429 
L 127.610376 145.430166 
L 127.911368 145.430166 
L 127.911368 143.665639 
L 129.069367 143.665639 
L 129.069367 142.783376 
L 129.893363 142.783376 
L 129.893363 141.018849 
L 130.160198 141.018849 
L 130.160198 139.695454 
L 130.4233 139.695454 
L 130.4233 138.372059 
L 131.929028 138.372059 
L 131.929028 137.489795 
L 132.405295 137.489795 
L 132.405295 136.1664 
L 133.545739 136.1664 
L 133.545739 135.284137 
L 139.796097 135.284137 
L 139.796097 134.843005 
L 140.725251 134.843005 
L 140.725251 132.196215 
L 140.875745 132.196215 
L 140.875745 127.343766 
L 142.038218 127.343766 
L 142.038218 126.461502 
L 142.178603 126.461502 
L 142.178603 123.37358 
L 142.593581 123.37358 
L 142.593581 122.932449 
L 142.729897 122.932449 
L 142.729897 122.050185 
L 142.999601 122.050185 
L 142.999601 119.403395 
L 143.133017 119.403395 
L 143.133017 116.756605 
L 143.397043 116.756605 
L 143.397043 114.992078 
L 143.52768 114.992078 
L 143.52768 114.550946 
L 143.657415 114.550946 
L 143.657415 113.227551 
L 143.786262 113.227551 
L 143.786262 112.78642 
L 143.914232 112.78642 
L 143.914232 111.904156 
L 144.041338 111.904156 
L 144.041338 111.021893 
L 144.16759 111.021893 
L 144.16759 110.580761 
L 144.417581 110.580761 
L 144.417581 108.375102 
L 144.541342 108.375102 
L 144.541342 104.404917 
L 144.786447 104.404917 
L 144.786447 101.758127 
L 144.907812 101.758127 
L 144.907812 101.316995 
L 145.0284 101.316995 
L 145.0284 97.787941 
L 145.148219 97.787941 
L 145.148219 97.34681 
L 145.26728 97.34681 
L 145.26728 92.494361 
L 145.385592 92.494361 
L 145.385592 91.170966 
L 145.503164 91.170966 
L 145.503164 85.877385 
L 145.736128 85.877385 
L 145.736128 85.436254 
L 145.966241 85.436254 
L 145.966241 83.671727 
L 146.529503 83.671727 
L 146.64016 77.495883 
L 147.290768 77.495883 
L 147.290768 73.084566 
L 147.816265 73.084566 
L 147.816265 69.555512 
L 149.31003 69.555512 
L 149.31003 69.11438 
L 149.689117 69.11438 
L 149.689117 67.790985 
L 151.731998 67.790985 
L 151.731998 67.349854 
L 154.027004 67.349854 
L 154.101358 65.144195 
L 154.24919 65.144195 
L 154.24919 62.056273 
L 154.613767 62.056273 
L 154.613767 59.850615 
L 154.829169 59.850615 
L 154.829169 57.644956 
L 155.112587 57.644956 
L 155.112587 55.880429 
L 155.391799 55.880429 
L 155.391799 53.674771 
L 155.598521 53.674771 
L 155.598521 51.910244 
L 155.938089 51.910244 
L 155.938089 50.145717 
L 156.271636 50.145717 
L 156.271636 49.704585 
L 161.864343 49.704585 
L 161.96232 46.616663 
L 162.108336 46.616663 
L 162.108336 43.969873 
L 162.444694 43.969873 
L 162.444694 42.205346 
L 162.868502 42.205346 
L 162.915008 39.117424 
L 163.237368 39.117424 
L 163.237368 38.235161 
L 163.373849 38.235161 
L 163.373849 35.588371 
L 163.865975 35.588371 
L 163.954085 33.823844 
L 164.215967 33.823844 
L 164.215967 31.618185 
L 167.850487 31.618185 
L 167.850487 31.177054 
L 174.915793 31.177054 
L 174.915793 30.735922 
L 178.583321 30.735922 
L 178.583321 30.29479 
L 180.628823 30.29479 
L 180.628823 29.853659 
L 206.269647 29.853659 
L 206.274282 27.648 
L 360.8064 27.648 
L 360.8064 27.648 
" style="fill:none;stroke:#008000;stroke-linecap:square;stroke-width:1.5;"/>
   </g>
   <g id="line2d_35">
    <defs>
     <path d="M -0 6 
L 6 -6 
L -6 -6 
z
" id="m99ad5a2b82" style="stroke:#008000;stroke-linejoin:miter;stroke-width:1.5;"/>
    </defs>
    <g>
     <use style="fill-opacity:0;stroke:#008000;stroke-linejoin:miter;stroke-width:1.5;" x="147.816265" xlink:href="#m99ad5a2b82" y="69.555512"/>
     <use style="fill-opacity:0;stroke:#008000;stroke-linejoin:miter;stroke-width:1.5;" x="206.274282" xlink:href="#m99ad5a2b82" y="28.089132"/>
     <use style="fill-opacity:0;stroke:#008000;stroke-linejoin:miter;stroke-width:1.5;" x="206.274282" xlink:href="#m99ad5a2b82" y="27.648"/>
     <use style="fill-opacity:0;stroke:#008000;stroke-linejoin:miter;stroke-width:1.5;" x="206.274282" xlink:href="#m99ad5a2b82" y="27.648"/>
     <use style="fill-opacity:0;stroke:#008000;stroke-linejoin:miter;stroke-width:1.5;" x="360.8064" xlink:href="#m99ad5a2b82" y="27.648"/>
    </g>
   </g>
   <g id="line2d_36">
    <path style="fill:none;stroke:#008000;stroke-linecap:square;stroke-width:1.5;"/>
    <g/>
   </g>
   <g id="line2d_37">
    <defs>
     <path d="M 0 1.5 
C 0.397805 1.5 0.77937 1.341951 1.06066 1.06066 
C 1.341951 0.77937 1.5 0.397805 1.5 0 
C 1.5 -0.397805 1.341951 -0.77937 1.06066 -1.06066 
C 0.77937 -1.341951 0.397805 -1.5 0 -1.5 
C -0.397805 -1.5 -0.77937 -1.341951 -1.06066 -1.06066 
C -1.341951 -0.77937 -1.5 -0.397805 -1.5 0 
C -1.5 0.397805 -1.341951 0.77937 -1.06066 1.06066 
C -0.77937 1.341951 -0.397805 1.5 0 1.5 
z
" id="mc65d048489" style="stroke:#0000ff;"/>
    </defs>
    <g>
     <use style="fill:#0000ff;stroke:#0000ff;" x="222.179942" xlink:href="#mc65d048489" y="27.648"/>
     <use style="fill:#0000ff;stroke:#0000ff;" x="222.179942" xlink:href="#mc65d048489" y="27.648"/>
    </g>
   </g>
   <g id="line2d_38">
    <path d="M 93.66029 298.944 
L 93.66029 298.502868 
L 95.752617 298.502868 
L 95.752617 298.061737 
L 96.717523 298.061737 
L 96.717523 295.856078 
L 97.635342 295.856078 
L 97.635342 291.885893 
L 98.510456 291.885893 
L 98.510456 290.562498 
L 99.346662 290.562498 
L 99.346662 287.915707 
L 100.147275 287.915707 
L 100.147275 287.474576 
L 100.9152 287.474576 
L 100.9152 286.15118 
L 101.653002 286.15118 
L 101.653002 284.827785 
L 102.362957 284.827785 
L 102.362957 282.180995 
L 103.047088 282.180995 
L 103.047088 276.446283 
L 103.707211 276.446283 
L 103.707211 265.41799 
L 104.961779 265.41799 
L 104.961779 263.653463 
L 105.559021 263.653463 
L 105.559021 261.888937 
L 106.137884 261.888937 
L 106.137884 259.242146 
L 106.699465 259.242146 
L 106.699465 257.47762 
L 107.244765 257.47762 
L 107.244765 254.830829 
L 107.774703 254.830829 
L 107.774703 249.537249 
L 108.29012 249.537249 
L 108.29012 239.832351 
L 108.791791 239.832351 
L 108.791791 238.508956 
L 109.756698 238.508956 
L 109.756698 237.185561 
L 110.221204 237.185561 
L 110.221204 232.774244 
L 110.674517 232.774244 
L 110.674517 230.568585 
L 111.117162 230.568585 
L 111.117162 225.716137 
L 111.97238 225.716137 
L 111.97238 221.30482 
L 112.385837 221.30482 
L 112.385837 219.099161 
L 112.790402 219.099161 
L 112.790402 218.216898 
L 113.57433 218.216898 
L 113.57433 215.128976 
L 113.954374 215.128976 
L 113.954374 213.80558 
L 114.326893 213.80558 
L 114.326893 211.15879 
L 114.692177 211.15879 
L 114.692177 207.188605 
L 115.402131 207.188605 
L 115.402131 204.541815 
L 115.747307 204.541815 
L 115.747307 203.21842 
L 116.419219 203.21842 
L 116.419219 202.777288 
L 116.746385 202.777288 
L 116.746385 194.836917 
L 117.384126 194.836917 
L 117.384126 186.896546 
L 117.695068 186.896546 
L 117.695068 184.690888 
L 118.000953 184.690888 
L 118.000953 178.956176 
L 118.301945 178.956176 
L 118.301945 178.515044 
L 118.598196 178.515044 
L 118.598196 174.544859 
L 119.177058 174.544859 
L 119.177058 169.251278 
L 119.459944 169.251278 
L 119.459944 167.04562 
L 119.738639 167.04562 
L 119.738639 166.604488 
L 120.013265 166.604488 
L 120.013265 163.075434 
L 120.550775 163.075434 
L 120.550775 162.634302 
L 120.813877 162.634302 
L 120.813877 156.89959 
L 121.329295 156.89959 
L 121.329295 155.135063 
L 121.581803 155.135063 
L 121.581803 154.693932 
L 121.830966 154.693932 
L 121.830966 153.370537 
L 122.319605 153.370537 
L 122.319605 151.164878 
L 122.559246 151.164878 
L 122.559246 150.282615 
L 122.795872 150.282615 
L 122.795872 149.841483 
L 123.029559 149.841483 
L 123.029559 144.989034 
L 123.4884 144.989034 
L 123.4884 143.665639 
L 124.156336 143.665639 
L 124.156336 141.018849 
L 124.373813 141.018849 
L 124.373813 140.577717 
L 126.028642 140.577717 
L 126.028642 140.136585 
L 127.911368 140.136585 
L 127.911368 139.254322 
L 128.266313 139.254322 
L 128.266313 138.372059 
L 130.265881 138.372059 
L 130.265881 137.048663 
L 130.887807 137.048663 
L 130.887807 136.607532 
L 132.073179 136.607532 
L 132.073179 136.1664 
L 142.865233 136.1664 
L 142.865233 135.725268 
L 143.18612 135.725268 
L 143.18612 135.284137 
L 143.423243 135.284137 
L 143.423243 133.51961 
L 143.657415 133.51961 
L 143.657415 132.637346 
L 143.888708 132.637346 
L 143.888708 131.755083 
L 144.71325 131.755083 
L 144.71325 129.108293 
L 144.931992 129.108293 
L 145.004344 126.020371 
L 145.361989 126.020371 
L 145.361989 124.696976 
L 145.573357 124.696976 
L 145.573357 124.255844 
L 145.782376 124.255844 
L 145.851536 120.285659 
L 145.920443 120.285659 
L 145.920443 118.08 
L 146.193574 118.08 
L 146.193574 117.197737 
L 146.328666 117.197737 
L 146.328666 114.550946 
L 146.924857 114.550946 
L 146.924857 109.257366 
L 147.248088 109.257366 
L 147.248088 108.816234 
L 147.375841 108.816234 
L 147.375841 105.728312 
L 147.502732 105.728312 
L 147.502732 104.846049 
L 147.878349 104.846049 
L 147.878349 103.522654 
L 148.185734 103.522654 
L 148.185734 103.081522 
L 148.367783 103.081522 
L 148.428077 101.316995 
L 148.726679 101.316995 
L 148.726679 99.9936 
L 171.546318 99.9936 
L 171.546318 99.552468 
L 171.756506 99.552468 
L 171.773916 97.787941 
L 171.912619 97.787941 
L 171.981589 94.70002 
L 172.084572 94.70002 
L 172.084572 93.817756 
L 172.221012 93.817756 
L 172.221012 90.729834 
L 172.33959 90.729834 
L 172.407015 89.406439 
L 172.624492 89.406439 
L 172.724025 84.995122 
L 172.905144 84.995122 
L 173.003206 81.9072 
L 177.829275 81.9072 
L 177.929905 77.495883 
L 178.141974 77.495883 
L 178.141974 77.054751 
L 178.327129 77.054751 
L 178.376197 73.084566 
L 178.740186 73.084566 
L 178.740186 72.643434 
L 179.331607 72.643434 
L 179.331607 72.202302 
L 179.574564 72.202302 
L 179.574564 71.761171 
L 179.723408 71.761171 
L 179.723408 71.320039 
L 179.904999 71.320039 
L 179.904999 70.878907 
L 180.096038 70.878907 
L 180.096038 70.437776 
L 182.083622 70.437776 
L 182.173942 66.46759 
L 182.213946 66.46759 
L 182.323518 62.938537 
L 182.392915 62.938537 
L 182.491612 57.203824 
L 182.530946 57.203824 
L 182.599583 52.351376 
L 183.437067 52.351376 
L 183.437067 51.910244 
L 186.47346 51.910244 
L 186.47346 51.469112 
L 187.884892 51.469112 
L 187.995418 46.175532 
L 188.002764 46.175532 
L 188.002764 45.7344 
L 222.122557 45.7344 
L 222.179942 27.648 
L 360.8064 27.648 
L 360.8064 27.648 
" style="fill:none;stroke:#0000ff;stroke-linecap:square;stroke-width:1.5;"/>
   </g>
   <g id="line2d_39">
    <defs>
     <path d="M 0 -6 
L -1.347084 -1.854102 
L -5.706339 -1.854102 
L -2.179628 0.708204 
L -3.526712 4.854102 
L -0 2.291796 
L 3.526712 4.854102 
L 2.179628 0.708204 
L 5.706339 -1.854102 
L 1.347084 -1.854102 
z
" id="mfca929f4da" style="stroke:#0000ff;stroke-linejoin:bevel;stroke-width:1.5;"/>
    </defs>
    <g>
     <use style="fill-opacity:0;stroke:#0000ff;stroke-linejoin:bevel;stroke-width:1.5;" x="148.726679" xlink:href="#mfca929f4da" y="99.9936"/>
     <use style="fill-opacity:0;stroke:#0000ff;stroke-linejoin:bevel;stroke-width:1.5;" x="222.122557" xlink:href="#mfca929f4da" y="45.7344"/>
     <use style="fill-opacity:0;stroke:#0000ff;stroke-linejoin:bevel;stroke-width:1.5;" x="222.179942" xlink:href="#mfca929f4da" y="27.648"/>
     <use style="fill-opacity:0;stroke:#0000ff;stroke-linejoin:bevel;stroke-width:1.5;" x="222.179942" xlink:href="#mfca929f4da" y="27.648"/>
     <use style="fill-opacity:0;stroke:#0000ff;stroke-linejoin:bevel;stroke-width:1.5;" x="360.8064" xlink:href="#mfca929f4da" y="27.648"/>
    </g>
   </g>
   <g id="line2d_40">
    <path style="fill:none;stroke:#0000ff;stroke-linecap:square;stroke-width:1.5;"/>
    <g/>
   </g>
   <g id="line2d_41">
    <defs>
     <path d="M 0 1.5 
C 0.397805 1.5 0.77937 1.341951 1.06066 1.06066 
C 1.341951 0.77937 1.5 0.397805 1.5 0 
C 1.5 -0.397805 1.341951 -0.77937 1.06066 -1.06066 
C 0.77937 -1.341951 0.397805 -1.5 0 -1.5 
C -0.397805 -1.5 -0.77937 -1.341951 -1.06066 -1.06066 
C -1.341951 -0.77937 -1.5 -0.397805 -1.5 0 
C -1.5 0.397805 -1.341951 0.77937 -1.06066 1.06066 
C -0.77937 1.341951 -0.397805 1.5 0 1.5 
z
" id="m971c1a5329" style="stroke:#000000;"/>
    </defs>
    <g>
     <use style="stroke:#000000;" x="240.19878" xlink:href="#m971c1a5329" y="27.648"/>
     <use style="stroke:#000000;" x="240.19878" xlink:href="#m971c1a5329" y="27.648"/>
    </g>
   </g>
   <g id="line2d_42">
    <path d="M 95.752617 298.944 
L 95.752617 298.061737 
L 100.9152 298.061737 
L 100.9152 297.179473 
L 102.708132 297.179473 
L 102.708132 296.29721 
L 104.961779 296.29721 
L 104.961779 294.091551 
L 105.559021 294.091551 
L 105.559021 293.209288 
L 107.244765 293.209288 
L 107.244765 290.121366 
L 108.29012 290.121366 
L 108.29012 287.915707 
L 109.990385 287.915707 
L 109.990385 287.033444 
L 110.449226 287.033444 
L 110.449226 286.15118 
L 112.589207 286.15118 
L 112.589207 283.063259 
L 112.790402 283.063259 
L 112.790402 282.622127 
L 112.989468 282.622127 
L 112.989468 281.298732 
L 113.765312 281.298732 
L 113.765312 280.416468 
L 114.510421 280.416468 
L 114.510421 279.975337 
L 114.692177 279.975337 
L 114.692177 278.21081 
L 114.872193 278.21081 
L 114.872193 274.681756 
L 115.402131 274.681756 
L 115.402131 270.711571 
L 116.907859 270.711571 
L 116.907859 270.270439 
L 118.152051 270.270439 
L 118.152051 269.829307 
L 118.301945 269.829307 
L 118.301945 267.623649 
L 118.598196 267.623649 
L 118.598196 263.653463 
L 119.876453 263.653463 
L 119.876453 262.330068 
L 120.149089 262.330068 
L 120.149089 260.565541 
L 120.28394 260.565541 
L 120.28394 260.12441 
L 120.41783 260.12441 
L 120.41783 258.359883 
L 121.073351 258.359883 
L 121.073351 256.154224 
L 121.581803 256.154224 
L 121.581803 252.184039 
L 122.319605 252.184039 
L 122.319605 250.419512 
L 123.4884 250.419512 
L 123.4884 249.537249 
L 123.713691 249.537249 
L 123.713691 248.654985 
L 124.481616 248.654985 
L 124.481616 246.890459 
L 125.115773 246.890459 
L 125.115773 245.567063 
L 126.225624 245.567063 
L 126.225624 244.6848 
L 156.667477 244.6848 
L 156.667477 244.243668 
L 157.032948 244.243668 
L 157.032948 243.802537 
L 157.241336 243.802537 
L 157.241336 243.361405 
L 157.484673 243.361405 
L 157.484673 242.920273 
L 158.088598 242.920273 
L 158.088598 242.479141 
L 158.214248 242.479141 
L 158.321284 239.832351 
L 158.427714 239.832351 
L 158.427714 239.39122 
L 158.691186 239.39122 
L 158.74344 236.744429 
L 158.91658 236.744429 
L 158.933807 233.656507 
L 159.122267 233.656507 
L 159.122267 233.215376 
L 159.275069 233.215376 
L 159.291971 229.686322 
L 159.626854 229.686322 
L 159.693121 226.5984 
L 159.792086 226.5984 
L 159.808529 224.392741 
L 159.988467 224.392741 
L 159.988467 223.510478 
L 160.18282 223.510478 
L 160.18282 223.069346 
L 160.597153 223.069346 
L 160.597153 222.628215 
L 161.817625 222.628215 
L 161.817625 222.187083 
L 163.713007 222.187083 
L 163.713007 221.745951 
L 181.630555 221.745951 
L 181.702552 216.893502 
L 181.758927 216.893502 
L 181.850816 213.364449 
L 181.871175 213.364449 
L 181.942258 208.953132 
L 182.008023 208.953132 
L 182.008023 208.512 
L 182.706939 208.512 
L 182.808846 204.982946 
L 182.948674 204.982946 
L 183.039725 200.130498 
L 183.092238 200.130498 
L 183.158861 195.278049 
L 183.225249 195.278049 
L 183.291404 190.4256 
L 184.614094 190.4256 
L 184.701824 187.337678 
L 184.732433 187.337678 
L 184.841347 181.161834 
L 184.880402 181.161834 
L 184.936672 177.63278 
L 185.001391 177.63278 
L 185.044414 174.98599 
L 185.113046 174.98599 
L 185.151541 172.3392 
L 190.236797 172.3392 
L 190.331123 167.927883 
L 190.382963 167.927883 
L 190.492652 159.54638 
L 190.528003 159.54638 
L 190.592108 154.2528 
L 195.703489 154.2528 
L 195.766782 148.95922 
L 195.829863 148.95922 
L 195.9265 139.695454 
L 195.952989 139.695454 
L 195.991451 136.1664 
L 197.448811 136.1664 
L 197.535285 126.461502 
L 197.59051 126.461502 
L 197.700474 118.08 
L 200.972962 118.08 
L 201.079539 108.375102 
L 201.105174 108.375102 
L 201.189158 99.9936 
L 207.695374 99.9936 
L 207.789239 89.406439 
L 207.813594 89.406439 
L 207.873703 81.9072 
L 208.723755 81.9072 
L 208.833277 67.790985 
L 208.847832 67.790985 
L 208.861164 63.8208 
L 222.25232 63.8208 
L 222.319978 45.7344 
L 231.069574 45.7344 
L 231.11714 39.117424 
L 231.430905 39.117424 
L 231.430905 38.676293 
L 231.563298 38.676293 
L 231.563298 38.235161 
L 232.363517 38.235161 
L 232.466052 36.470634 
L 232.475722 36.470634 
L 232.58503 35.588371 
L 232.593611 35.588371 
L 232.596698 34.264976 
L 233.101213 34.264976 
L 233.117571 33.382712 
L 233.737111 33.382712 
L 233.755184 32.500449 
L 233.964656 32.500449 
L 233.992389 31.618185 
L 234.519748 31.618185 
L 234.540798 28.971395 
L 235.827076 28.971395 
L 235.849599 28.089132 
L 240.19878 28.089132 
L 240.19878 27.648 
L 360.8064 27.648 
L 360.8064 27.648 
" style="fill:none;stroke:#000000;stroke-linecap:square;stroke-width:1.5;"/>
   </g>
   <g id="line2d_43">
    <defs>
     <path d="M 0 6 
C 1.591219 6 3.117479 5.367802 4.242641 4.242641 
C 5.367802 3.117479 6 1.591219 6 0 
C 6 -1.591219 5.367802 -3.117479 4.242641 -4.242641 
C 3.117479 -5.367802 1.591219 -6 0 -6 
C -1.591219 -6 -3.117479 -5.367802 -4.242641 -4.242641 
C -5.367802 -3.117479 -6 -1.591219 -6 0 
C -6 1.591219 -5.367802 3.117479 -4.242641 4.242641 
C -3.117479 5.367802 -1.591219 6 0 6 
z
" id="mee4d374b03" style="stroke:#000000;stroke-width:1.5;"/>
    </defs>
    <g>
     <use style="fill-opacity:0;stroke:#000000;stroke-width:1.5;" x="126.225624" xlink:href="#mee4d374b03" y="244.6848"/>
     <use style="fill-opacity:0;stroke:#000000;stroke-width:1.5;" x="208.765205" xlink:href="#mee4d374b03" y="77.495883"/>
     <use style="fill-opacity:0;stroke:#000000;stroke-width:1.5;" x="240.19878" xlink:href="#mee4d374b03" y="28.089132"/>
     <use style="fill-opacity:0;stroke:#000000;stroke-width:1.5;" x="240.19878" xlink:href="#mee4d374b03" y="27.648"/>
     <use style="fill-opacity:0;stroke:#000000;stroke-width:1.5;" x="360.8064" xlink:href="#mee4d374b03" y="27.648"/>
    </g>
   </g>
   <g id="line2d_44">
    <path style="fill:none;stroke:#000000;stroke-linecap:square;stroke-width:1.5;"/>
    <g/>
   </g>
   <g id="line2d_45">
    <path clip-path="url(#p6a40ae988b)" d="M 231.045746 45.7344 
" style="fill:none;stroke:#000000;stroke-linecap:square;stroke-width:1.5;"/>
    <defs>
     <path d="M -12 12 
L 12 -12 
M -12 -12 
L 12 12 
" id="m922f3d2136" style="stroke:#000000;"/>
    </defs>
    <g clip-path="url(#p6a40ae988b)">
     <use style="stroke:#000000;" x="231.045746" xlink:href="#m922f3d2136" y="45.7344"/>
    </g>
   </g>
   <g id="line2d_46">
    <defs>
     <path d="M 0 1.5 
C 0.397805 1.5 0.77937 1.341951 1.06066 1.06066 
C 1.341951 0.77937 1.5 0.397805 1.5 0 
C 1.5 -0.397805 1.341951 -0.77937 1.06066 -1.06066 
C 0.77937 -1.341951 0.397805 -1.5 0 -1.5 
C -0.397805 -1.5 -0.77937 -1.341951 -1.06066 -1.06066 
C -1.341951 -0.77937 -1.5 -0.397805 -1.5 0 
C -1.5 0.397805 -1.341951 0.77937 -1.06066 1.06066 
C -0.77937 1.341951 -0.397805 1.5 0 1.5 
z
" id="md961dcb846" style="stroke:#ff0000;"/>
    </defs>
    <g>
     <use style="fill:#ff0000;stroke:#ff0000;" x="302.15581" xlink:href="#md961dcb846" y="27.648"/>
     <use style="fill:#ff0000;stroke:#ff0000;" x="302.15581" xlink:href="#md961dcb846" y="27.648"/>
    </g>
   </g>
   <g id="line2d_47">
    <path d="M 105.411479 298.944 
L 105.411479 298.502868 
L 105.705415 298.502868 
L 105.705415 297.620605 
L 107.904887 297.620605 
L 107.904887 296.29721 
L 111.334639 296.29721 
L 111.334639 294.532683 
L 114.418881 294.532683 
L 114.418881 292.768156 
L 116.583514 292.768156 
L 116.583514 291.444761 
L 118.301945 291.444761 
L 118.301945 288.797971 
L 119.807672 288.797971 
L 119.876453 287.915707 
L 119.944983 287.915707 
L 119.944983 285.710049 
L 122.319605 285.710049 
L 122.319605 284.386654 
L 123.08753 284.386654 
L 123.08753 281.298732 
L 124.801367 281.298732 
L 124.801367 280.8576 
L 178.399154 280.8576 
L 178.457186 278.651941 
L 178.51808 278.651941 
L 178.615101 276.446283 
L 178.687541 276.446283 
L 178.774701 270.711571 
L 178.879359 270.711571 
L 178.962669 265.859122 
L 179.007148 265.859122 
L 179.116414 262.7712 
L 230.991742 262.7712 
L 231.034473 245.567063 
L 232.084449 245.567063 
L 232.126531 234.097639 
L 244.01905 234.097639 
L 244.037547 218.658029 
L 244.573681 218.658029 
L 244.595358 204.541815 
L 251.642646 204.541815 
L 251.654857 193.954654 
L 252.014164 193.954654 
L 252.028762 178.073912 
L 257.05313 178.073912 
L 257.062991 167.927883 
L 257.331736 167.927883 
L 257.341267 159.54638 
L 261.248778 159.54638 
L 261.256182 146.753561 
L 261.472681 146.753561 
L 261.481512 137.930927 
L 264.677738 137.930927 
L 264.683908 134.843005 
L 264.864516 134.843005 
L 264.87189 126.461502 
L 267.577039 126.461502 
L 267.582275 120.285659 
L 267.737199 120.285659 
L 267.742152 116.315473 
L 270.088495 116.315473 
L 270.093123 111.021893 
L 270.2292 111.021893 
L 270.234304 105.728312 
L 272.303846 105.728312 
L 272.30796 99.552468 
L 272.42858 99.552468 
L 272.433513 94.258888 
L 274.285914 94.258888 
L 274.28928 91.170966 
L 274.398601 91.170966 
L 274.402319 85.877385 
L 276.079093 85.877385 
L 276.183912 78.378146 
L 277.716149 78.378146 
L 277.811774 71.320039 
L 279.220537 71.320039 
L 279.310376 66.908722 
L 280.614704 66.908722 
L 280.697927 59.850615 
L 281.9128 59.850615 
L 281.988697 56.321561 
L 283.126734 56.321561 
L 283.197897 54.115902 
L 284.266738 54.115902 
L 284.334733 50.586849 
L 285.34219 50.586849 
L 285.406319 47.057795 
L 286.35872 47.057795 
L 286.419943 42.646478 
L 287.323583 42.646478 
L 287.381731 39.117424 
L 288.242644 39.117424 
L 288.243366 37.794029 
L 289.117647 37.794029 
L 289.169546 36.470634 
L 289.954053 36.470634 
L 290.002976 35.147239 
L 290.754271 35.147239 
L 290.80123 34.264976 
L 291.521587 34.264976 
L 291.567551 32.500449 
L 293.011656 32.500449 
L 293.011656 32.059317 
L 294.31416 32.059317 
L 294.31416 31.618185 
L 294.989096 31.618185 
L 294.989096 31.177054 
L 297.305583 31.177054 
L 297.30583 30.29479 
L 297.851088 30.29479 
L 297.851088 29.853659 
L 299.915348 29.853659 
L 299.915348 29.412527 
L 300.854815 29.412527 
L 300.854815 28.971395 
L 301.749784 28.971395 
L 301.749784 28.530263 
L 302.155648 28.530263 
L 302.15581 27.648 
L 360.8064 27.648 
L 360.8064 27.648 
" style="fill:none;stroke:#ff0000;stroke-linecap:square;stroke-width:1.5;"/>
   </g>
   <g id="line2d_48">
    <defs>
     <path d="M -6 6 
L 6 6 
L 6 -6 
L -6 -6 
z
" id="m2ddf63cfaa" style="stroke:#ff0000;stroke-linejoin:miter;stroke-width:1.5;"/>
    </defs>
    <g>
     <use style="fill-opacity:0;stroke:#ff0000;stroke-linejoin:miter;stroke-width:1.5;" x="232.126531" xlink:href="#m2ddf63cfaa" y="234.538771"/>
     <use style="fill-opacity:0;stroke:#ff0000;stroke-linejoin:miter;stroke-width:1.5;" x="272.303888" xlink:href="#m2ddf63cfaa" y="103.963785"/>
     <use style="fill-opacity:0;stroke:#ff0000;stroke-linejoin:miter;stroke-width:1.5;" x="302.15581" xlink:href="#m2ddf63cfaa" y="27.648"/>
     <use style="fill-opacity:0;stroke:#ff0000;stroke-linejoin:miter;stroke-width:1.5;" x="302.15581" xlink:href="#m2ddf63cfaa" y="27.648"/>
     <use style="fill-opacity:0;stroke:#ff0000;stroke-linejoin:miter;stroke-width:1.5;" x="360.8064" xlink:href="#m2ddf63cfaa" y="27.648"/>
    </g>
   </g>
   <g id="line2d_49">
    <path style="fill:none;stroke:#ff0000;stroke-linecap:square;stroke-width:1.5;"/>
    <g/>
   </g>
   <g id="line2d_50">
    <path clip-path="url(#p6a40ae988b)" d="M 230.968002 262.7712 
" style="fill:none;stroke:#ff0000;stroke-linecap:square;stroke-width:1.5;"/>
    <defs>
     <path d="M -12 12 
L 12 -12 
M -12 -12 
L 12 12 
" id="m5c996d7056" style="stroke:#ff0000;"/>
    </defs>
    <g clip-path="url(#p6a40ae988b)">
     <use style="fill:#ff0000;stroke:#ff0000;" x="230.968002" xlink:href="#m5c996d7056" y="262.7712"/>
    </g>
   </g>
   <g id="line2d_51">
    <path clip-path="url(#p6a40ae988b)" d="M 57.6 298.944 
L 57.6 298.944 
L 57.6 298.944 
L 57.6 298.944 
L 360.8064 298.944 
" style="fill:none;stroke:#bf00bf;stroke-linecap:square;stroke-width:1.5;"/>
   </g>
   <g id="line2d_52">
    <defs>
     <path d="M -0 8.485281 
L 8.485281 0 
L 0 -8.485281 
L -8.485281 -0 
z
" id="m05dc95e041" style="stroke:#bf00bf;stroke-linejoin:miter;stroke-width:1.5;"/>
    </defs>
    <g clip-path="url(#p6a40ae988b)">
     <use style="fill-opacity:0;stroke:#bf00bf;stroke-linejoin:miter;stroke-width:1.5;" x="57.6" xlink:href="#m05dc95e041" y="298.944"/>
    </g>
   </g>
   <g id="line2d_53">
    <path clip-path="url(#p6a40ae988b)" style="fill:none;stroke:#bf00bf;stroke-linecap:square;stroke-width:1.5;"/>
    <g clip-path="url(#p6a40ae988b)">
     <use style="fill-opacity:0;stroke:#bf00bf;stroke-linejoin:miter;stroke-width:1.5;" x="-1" xlink:href="#m05dc95e041" y="570.24"/>
     <use style="fill-opacity:0;stroke:#bf00bf;stroke-linejoin:miter;stroke-width:1.5;" x="360.8064" xlink:href="#m05dc95e041" y="570.24"/>
    </g>
   </g>
   <g id="line2d_54">
    <path clip-path="url(#p6a40ae988b)" d="M 218.318039 298.944 
" style="fill:none;stroke:#bf00bf;stroke-linecap:square;stroke-width:1.5;"/>
    <defs>
     <path d="M -12 12 
L 12 -12 
M -12 -12 
L 12 12 
" id="maa7def9604" style="stroke:#bf00bf;"/>
    </defs>
    <g clip-path="url(#p6a40ae988b)">
     <use style="fill:#bf00bf;stroke:#bf00bf;" x="218.318039" xlink:href="#maa7def9604" y="298.944"/>
    </g>
   </g>
   <g id="line2d_55">
    <path d="M 360.8064 298.944 
L 380.514816 293.51808 
" style="fill:none;stroke:#bf00bf;stroke-linecap:square;stroke-width:1.5;"/>
    <g>
     <use style="fill-opacity:0;stroke:#bf00bf;stroke-linejoin:miter;stroke-width:1.5;" x="360.8064" xlink:href="#m05dc95e041" y="298.944"/>
     <use style="fill-opacity:0;stroke:#bf00bf;stroke-linejoin:miter;stroke-width:1.5;" x="380.514816" xlink:href="#m05dc95e041" y="293.51808"/>
    </g>
   </g>
   <g id="line2d_56">
    <path d="M 360.8064 27.648 
L 380.514816 241.429248 
" style="fill:none;stroke:#ff0000;stroke-linecap:square;stroke-width:1.5;"/>
    <g>
     <use style="fill-opacity:0;stroke:#ff0000;stroke-linejoin:miter;stroke-width:1.5;" x="360.8064" xlink:href="#m2ddf63cfaa" y="27.648"/>
     <use style="fill-opacity:0;stroke:#ff0000;stroke-linejoin:miter;stroke-width:1.5;" x="380.514816" xlink:href="#m2ddf63cfaa" y="241.429248"/>
    </g>
   </g>
   <g id="line2d_57">
    <path d="M 360.8064 27.648 
L 380.514816 189.340416 
" style="fill:none;stroke:#000000;stroke-linecap:square;stroke-width:1.5;"/>
    <g>
     <use style="fill-opacity:0;stroke:#000000;stroke-width:1.5;" x="360.8064" xlink:href="#mee4d374b03" y="27.648"/>
     <use style="fill-opacity:0;stroke:#000000;stroke-width:1.5;" x="380.514816" xlink:href="#mee4d374b03" y="189.340416"/>
    </g>
   </g>
   <g id="line2d_58">
    <path d="M 360.8064 27.648 
L 380.514816 137.251584 
" style="fill:none;stroke:#0000ff;stroke-linecap:square;stroke-width:1.5;"/>
    <g>
     <use style="fill-opacity:0;stroke:#0000ff;stroke-linejoin:bevel;stroke-width:1.5;" x="360.8064" xlink:href="#mfca929f4da" y="27.648"/>
     <use style="fill-opacity:0;stroke:#0000ff;stroke-linejoin:bevel;stroke-width:1.5;" x="380.514816" xlink:href="#mfca929f4da" y="137.251584"/>
    </g>
   </g>
   <g id="line2d_59">
    <path d="M 360.8064 27.648 
L 380.514816 85.162752 
" style="fill:none;stroke:#008000;stroke-linecap:square;stroke-width:1.5;"/>
    <g>
     <use style="fill-opacity:0;stroke:#008000;stroke-linejoin:miter;stroke-width:1.5;" x="360.8064" xlink:href="#m99ad5a2b82" y="27.648"/>
     <use style="fill-opacity:0;stroke:#008000;stroke-linejoin:miter;stroke-width:1.5;" x="380.514816" xlink:href="#m99ad5a2b82" y="85.162752"/>
    </g>
   </g>
   <g id="line2d_60">
    <path d="M 360.8064 27.648 
L 380.514816 33.07392 
" style="fill:none;stroke:#00bfbf;stroke-linecap:square;stroke-width:1.5;"/>
    <g>
     <use style="fill-opacity:0;stroke:#00bfbf;stroke-width:1.5;" x="360.8064" xlink:href="#m4c104c57ff" y="27.648"/>
     <use style="fill-opacity:0;stroke:#00bfbf;stroke-width:1.5;" x="380.514816" xlink:href="#m4c104c57ff" y="33.07392"/>
    </g>
   </g>
   <g id="line2d_61">
    <path d="M 360.8064 298.944 
L 360.8064 27.648 
" style="fill:none;stroke:#000000;stroke-linecap:square;stroke-width:1.5;"/>
   </g>
   <g id="patch_3">
    <path d="M 57.6 298.944 
L 360.8064 298.944 
" style="fill:none;stroke:#000000;stroke-linecap:square;stroke-linejoin:miter;stroke-width:0.8;"/>
   </g>
   <g id="patch_4">
    <path d="M 57.6 27.648 
L 360.8064 27.648 
" style="fill:none;stroke:#000000;stroke-linecap:square;stroke-linejoin:miter;stroke-width:0.8;"/>
   </g>
   <g id="text_13">
    <!-- 40-D -->
    <g transform="translate(386.578944 297.381205)scale(0.14 -0.14)">
     <defs>
      <path d="M 4.890625 31.390625 
L 31.203125 31.390625 
L 31.203125 23.390625 
L 4.890625 23.390625 
z
" id="DejaVuSans-45"/>
      <path d="M 19.671875 64.796875 
L 19.671875 8.109375 
L 31.59375 8.109375 
Q 46.6875 8.109375 53.6875 14.9375 
Q 60.6875 21.78125 60.6875 36.53125 
Q 60.6875 51.171875 53.6875 57.984375 
Q 46.6875 64.796875 31.59375 64.796875 
z
M 9.8125 72.90625 
L 30.078125 72.90625 
Q 51.265625 72.90625 61.171875 64.09375 
Q 71.09375 55.28125 71.09375 36.53125 
Q 71.09375 17.671875 61.125 8.828125 
Q 51.171875 0 30.078125 0 
L 9.8125 0 
z
" id="DejaVuSans-68"/>
     </defs>
     <use xlink:href="#DejaVuSans-52"/>
     <use x="63.623047" xlink:href="#DejaVuSans-48"/>
     <use x="127.246094" xlink:href="#DejaVuSans-45"/>
     <use x="163.330078" xlink:href="#DejaVuSans-68"/>
    </g>
   </g>
   <g id="text_14">
    <!-- 20-D -->
    <g transform="translate(386.578944 245.292373)scale(0.14 -0.14)">
     <use xlink:href="#DejaVuSans-50"/>
     <use x="63.623047" xlink:href="#DejaVuSans-48"/>
     <use x="127.246094" xlink:href="#DejaVuSans-45"/>
     <use x="163.330078" xlink:href="#DejaVuSans-68"/>
    </g>
   </g>
   <g id="text_15">
    <!-- 10-D -->
    <g transform="translate(386.578944 193.203541)scale(0.14 -0.14)">
     <use xlink:href="#DejaVuSans-49"/>
     <use x="63.623047" xlink:href="#DejaVuSans-48"/>
     <use x="127.246094" xlink:href="#DejaVuSans-45"/>
     <use x="163.330078" xlink:href="#DejaVuSans-68"/>
    </g>
   </g>
   <g id="text_16">
    <!-- 5-D -->
    <g transform="translate(386.578944 141.114709)scale(0.14 -0.14)">
     <defs>
      <path d="M 10.796875 72.90625 
L 49.515625 72.90625 
L 49.515625 64.59375 
L 19.828125 64.59375 
L 19.828125 46.734375 
Q 21.96875 47.46875 24.109375 47.828125 
Q 26.265625 48.1875 28.421875 48.1875 
Q 40.625 48.1875 47.75 41.5 
Q 54.890625 34.8125 54.890625 23.390625 
Q 54.890625 11.625 47.5625 5.09375 
Q 40.234375 -1.421875 26.90625 -1.421875 
Q 22.3125 -1.421875 17.546875 -0.640625 
Q 12.796875 0.140625 7.71875 1.703125 
L 7.71875 11.625 
Q 12.109375 9.234375 16.796875 8.0625 
Q 21.484375 6.890625 26.703125 6.890625 
Q 35.15625 6.890625 40.078125 11.328125 
Q 45.015625 15.765625 45.015625 23.390625 
Q 45.015625 31 40.078125 35.4375 
Q 35.15625 39.890625 26.703125 39.890625 
Q 22.75 39.890625 18.8125 39.015625 
Q 14.890625 38.140625 10.796875 36.28125 
z
" id="DejaVuSans-53"/>
     </defs>
     <use xlink:href="#DejaVuSans-53"/>
     <use x="63.623047" xlink:href="#DejaVuSans-45"/>
     <use x="99.707031" xlink:href="#DejaVuSans-68"/>
    </g>
   </g>
   <g id="text_17">
    <!-- 3-D -->
    <g transform="translate(386.578944 89.025877)scale(0.14 -0.14)">
     <defs>
      <path d="M 40.578125 39.3125 
Q 47.65625 37.796875 51.625 33 
Q 55.609375 28.21875 55.609375 21.1875 
Q 55.609375 10.40625 48.1875 4.484375 
Q 40.765625 -1.421875 27.09375 -1.421875 
Q 22.515625 -1.421875 17.65625 -0.515625 
Q 12.796875 0.390625 7.625 2.203125 
L 7.625 11.71875 
Q 11.71875 9.328125 16.59375 8.109375 
Q 21.484375 6.890625 26.8125 6.890625 
Q 36.078125 6.890625 40.9375 10.546875 
Q 45.796875 14.203125 45.796875 21.1875 
Q 45.796875 27.640625 41.28125 31.265625 
Q 36.765625 34.90625 28.71875 34.90625 
L 20.21875 34.90625 
L 20.21875 43.015625 
L 29.109375 43.015625 
Q 36.375 43.015625 40.234375 45.921875 
Q 44.09375 48.828125 44.09375 54.296875 
Q 44.09375 59.90625 40.109375 62.90625 
Q 36.140625 65.921875 28.71875 65.921875 
Q 24.65625 65.921875 20.015625 65.03125 
Q 15.375 64.15625 9.8125 62.3125 
L 9.8125 71.09375 
Q 15.4375 72.65625 20.34375 73.4375 
Q 25.25 74.21875 29.59375 74.21875 
Q 40.828125 74.21875 47.359375 69.109375 
Q 53.90625 64.015625 53.90625 55.328125 
Q 53.90625 49.265625 50.4375 45.09375 
Q 46.96875 40.921875 40.578125 39.3125 
z
" id="DejaVuSans-51"/>
     </defs>
     <use xlink:href="#DejaVuSans-51"/>
     <use x="63.623047" xlink:href="#DejaVuSans-45"/>
     <use x="99.707031" xlink:href="#DejaVuSans-68"/>
    </g>
   </g>
   <g id="text_18">
    <!-- 2-D -->
    <g transform="translate(386.578944 36.937045)scale(0.14 -0.14)">
     <use xlink:href="#DejaVuSans-50"/>
     <use x="63.623047" xlink:href="#DejaVuSans-45"/>
     <use x="99.707031" xlink:href="#DejaVuSans-68"/>
    </g>
   </g>
   <g id="text_19">
    <!-- bbob-constrained f53 -->
    <g transform="translate(60.632064 38.111366)scale(0.102 -0.102)">
     <defs>
      <path d="M 48.6875 27.296875 
Q 48.6875 37.203125 44.609375 42.84375 
Q 40.53125 48.484375 33.40625 48.484375 
Q 26.265625 48.484375 22.1875 42.84375 
Q 18.109375 37.203125 18.109375 27.296875 
Q 18.109375 17.390625 22.1875 11.75 
Q 26.265625 6.109375 33.40625 6.109375 
Q 40.53125 6.109375 44.609375 11.75 
Q 48.6875 17.390625 48.6875 27.296875 
z
M 18.109375 46.390625 
Q 20.953125 51.265625 25.265625 53.625 
Q 29.59375 56 35.59375 56 
Q 45.5625 56 51.78125 48.09375 
Q 58.015625 40.1875 58.015625 27.296875 
Q 58.015625 14.40625 51.78125 6.484375 
Q 45.5625 -1.421875 35.59375 -1.421875 
Q 29.59375 -1.421875 25.265625 0.953125 
Q 20.953125 3.328125 18.109375 8.203125 
L 18.109375 0 
L 9.078125 0 
L 9.078125 75.984375 
L 18.109375 75.984375 
z
" id="DejaVuSans-98"/>
     </defs>
     <use xlink:href="#DejaVuSans-98"/>
     <use x="63.476562" xlink:href="#DejaVuSans-98"/>
     <use x="126.953125" xlink:href="#DejaVuSans-111"/>
     <use x="188.134766" xlink:href="#DejaVuSans-98"/>
     <use x="251.611328" xlink:href="#DejaVuSans-45"/>
     <use x="287.695312" xlink:href="#DejaVuSans-99"/>
     <use x="342.675781" xlink:href="#DejaVuSans-111"/>
     <use x="403.857422" xlink:href="#DejaVuSans-110"/>
     <use x="467.236328" xlink:href="#DejaVuSans-115"/>
     <use x="519.335938" xlink:href="#DejaVuSans-116"/>
     <use x="558.544922" xlink:href="#DejaVuSans-114"/>
     <use x="599.658203" xlink:href="#DejaVuSans-97"/>
     <use x="660.9375" xlink:href="#DejaVuSans-105"/>
     <use x="688.720703" xlink:href="#DejaVuSans-110"/>
     <use x="752.099609" xlink:href="#DejaVuSans-101"/>
     <use x="813.623047" xlink:href="#DejaVuSans-100"/>
     <use x="877.099609" xlink:href="#DejaVuSans-32"/>
     <use x="908.886719" xlink:href="#DejaVuSans-102"/>
     <use x="944.091797" xlink:href="#DejaVuSans-53"/>
     <use x="1007.714844" xlink:href="#DejaVuSans-51"/>
    </g>
    <!-- 41 targets: 100..1e-06 -->
    <g transform="translate(60.632064 49.533135)scale(0.102 -0.102)">
     <defs>
      <path d="M 11.71875 12.40625 
L 22.015625 12.40625 
L 22.015625 0 
L 11.71875 0 
z
M 11.71875 51.703125 
L 22.015625 51.703125 
L 22.015625 39.3125 
L 11.71875 39.3125 
z
" id="DejaVuSans-58"/>
     </defs>
     <use xlink:href="#DejaVuSans-52"/>
     <use x="63.623047" xlink:href="#DejaVuSans-49"/>
     <use x="127.246094" xlink:href="#DejaVuSans-32"/>
     <use x="159.033203" xlink:href="#DejaVuSans-116"/>
     <use x="198.242188" xlink:href="#DejaVuSans-97"/>
     <use x="259.521484" xlink:href="#DejaVuSans-114"/>
     <use x="298.884766" xlink:href="#DejaVuSans-103"/>
     <use x="362.361328" xlink:href="#DejaVuSans-101"/>
     <use x="423.884766" xlink:href="#DejaVuSans-116"/>
     <use x="463.09375" xlink:href="#DejaVuSans-115"/>
     <use x="515.193359" xlink:href="#DejaVuSans-58"/>
     <use x="548.884766" xlink:href="#DejaVuSans-32"/>
     <use x="580.671875" xlink:href="#DejaVuSans-49"/>
     <use x="644.294922" xlink:href="#DejaVuSans-48"/>
     <use x="707.917969" xlink:href="#DejaVuSans-48"/>
     <use x="771.541016" xlink:href="#DejaVuSans-46"/>
     <use x="803.328125" xlink:href="#DejaVuSans-46"/>
     <use x="835.115234" xlink:href="#DejaVuSans-49"/>
     <use x="898.738281" xlink:href="#DejaVuSans-101"/>
     <use x="960.261719" xlink:href="#DejaVuSans-45"/>
     <use x="996.345703" xlink:href="#DejaVuSans-48"/>
     <use x="1059.96875" xlink:href="#DejaVuSans-54"/>
    </g>
    <!-- evals = f-evals + g-evals -->
    <g transform="translate(60.632064 60.954904)scale(0.102 -0.102)">
     <defs>
      <path d="M 10.59375 45.40625 
L 73.1875 45.40625 
L 73.1875 37.203125 
L 10.59375 37.203125 
z
M 10.59375 25.484375 
L 73.1875 25.484375 
L 73.1875 17.1875 
L 10.59375 17.1875 
z
" id="DejaVuSans-61"/>
      <path d="M 46 62.703125 
L 46 35.5 
L 73.1875 35.5 
L 73.1875 27.203125 
L 46 27.203125 
L 46 0 
L 37.796875 0 
L 37.796875 27.203125 
L 10.59375 27.203125 
L 10.59375 35.5 
L 37.796875 35.5 
L 37.796875 62.703125 
z
" id="DejaVuSans-43"/>
     </defs>
     <use xlink:href="#DejaVuSans-101"/>
     <use x="61.523438" xlink:href="#DejaVuSans-118"/>
     <use x="120.703125" xlink:href="#DejaVuSans-97"/>
     <use x="181.982422" xlink:href="#DejaVuSans-108"/>
     <use x="209.765625" xlink:href="#DejaVuSans-115"/>
     <use x="261.865234" xlink:href="#DejaVuSans-32"/>
     <use x="293.652344" xlink:href="#DejaVuSans-61"/>
     <use x="377.441406" xlink:href="#DejaVuSans-32"/>
     <use x="409.228516" xlink:href="#DejaVuSans-102"/>
     <use x="438.933594" xlink:href="#DejaVuSans-45"/>
     <use x="475.017578" xlink:href="#DejaVuSans-101"/>
     <use x="536.541016" xlink:href="#DejaVuSans-118"/>
     <use x="595.720703" xlink:href="#DejaVuSans-97"/>
     <use x="657" xlink:href="#DejaVuSans-108"/>
     <use x="684.783203" xlink:href="#DejaVuSans-115"/>
     <use x="736.882812" xlink:href="#DejaVuSans-32"/>
     <use x="768.669922" xlink:href="#DejaVuSans-43"/>
     <use x="852.458984" xlink:href="#DejaVuSans-32"/>
     <use x="884.246094" xlink:href="#DejaVuSans-103"/>
     <use x="947.722656" xlink:href="#DejaVuSans-45"/>
     <use x="983.806641" xlink:href="#DejaVuSans-101"/>
     <use x="1045.330078" xlink:href="#DejaVuSans-118"/>
     <use x="1104.509766" xlink:href="#DejaVuSans-97"/>
     <use x="1165.789062" xlink:href="#DejaVuSans-108"/>
     <use x="1193.572266" xlink:href="#DejaVuSans-115"/>
    </g>
    <!-- 15 instances -->
    <g transform="translate(60.632064 72.376672)scale(0.102 -0.102)">
     <use xlink:href="#DejaVuSans-49"/>
     <use x="63.623047" xlink:href="#DejaVuSans-53"/>
     <use x="127.246094" xlink:href="#DejaVuSans-32"/>
     <use x="159.033203" xlink:href="#DejaVuSans-105"/>
     <use x="186.816406" xlink:href="#DejaVuSans-110"/>
     <use x="250.195312" xlink:href="#DejaVuSans-115"/>
     <use x="302.294922" xlink:href="#DejaVuSans-116"/>
     <use x="341.503906" xlink:href="#DejaVuSans-97"/>
     <use x="402.783203" xlink:href="#DejaVuSans-110"/>
     <use x="466.162109" xlink:href="#DejaVuSans-99"/>
     <use x="521.142578" xlink:href="#DejaVuSans-101"/>
     <use x="582.666016" xlink:href="#DejaVuSans-115"/>
    </g>
   </g>
   <g id="text_20">
    <!-- v2.4.159 -->
    <g style="fill:#808080;" transform="translate(187.15945 294.151352)scale(0.1 -0.1)">
     <defs>
      <path d="M 10.984375 1.515625 
L 10.984375 10.5 
Q 14.703125 8.734375 18.5 7.8125 
Q 22.3125 6.890625 25.984375 6.890625 
Q 35.75 6.890625 40.890625 13.453125 
Q 46.046875 20.015625 46.78125 33.40625 
Q 43.953125 29.203125 39.59375 26.953125 
Q 35.25 24.703125 29.984375 24.703125 
Q 19.046875 24.703125 12.671875 31.3125 
Q 6.296875 37.9375 6.296875 49.421875 
Q 6.296875 60.640625 12.9375 67.421875 
Q 19.578125 74.21875 30.609375 74.21875 
Q 43.265625 74.21875 49.921875 64.515625 
Q 56.59375 54.828125 56.59375 36.375 
Q 56.59375 19.140625 48.40625 8.859375 
Q 40.234375 -1.421875 26.421875 -1.421875 
Q 22.703125 -1.421875 18.890625 -0.6875 
Q 15.09375 0.046875 10.984375 1.515625 
z
M 30.609375 32.421875 
Q 37.25 32.421875 41.125 36.953125 
Q 45.015625 41.5 45.015625 49.421875 
Q 45.015625 57.28125 41.125 61.84375 
Q 37.25 66.40625 30.609375 66.40625 
Q 23.96875 66.40625 20.09375 61.84375 
Q 16.21875 57.28125 16.21875 49.421875 
Q 16.21875 41.5 20.09375 36.953125 
Q 23.96875 32.421875 30.609375 32.421875 
z
" id="DejaVuSans-57"/>
     </defs>
     <use xlink:href="#DejaVuSans-118"/>
     <use x="59.179688" xlink:href="#DejaVuSans-50"/>
     <use x="122.802734" xlink:href="#DejaVuSans-46"/>
     <use x="154.589844" xlink:href="#DejaVuSans-52"/>
     <use x="218.212891" xlink:href="#DejaVuSans-46"/>
     <use x="250" xlink:href="#DejaVuSans-49"/>
     <use x="313.623047" xlink:href="#DejaVuSans-53"/>
     <use x="377.246094" xlink:href="#DejaVuSans-57"/>
    </g>
   </g>
   <g id="text_21">
    <!-- 53 Rot. Rastrigin, m=9+int(3n/2) -->
    <g transform="translate(43.582887 21.648)scale(0.2 -0.2)">
     <defs>
      <path d="M 44.390625 34.1875 
Q 47.5625 33.109375 50.5625 29.59375 
Q 53.5625 26.078125 56.59375 19.921875 
L 66.609375 0 
L 56 0 
L 46.6875 18.703125 
Q 43.0625 26.03125 39.671875 28.421875 
Q 36.28125 30.8125 30.421875 30.8125 
L 19.671875 30.8125 
L 19.671875 0 
L 9.8125 0 
L 9.8125 72.90625 
L 32.078125 72.90625 
Q 44.578125 72.90625 50.734375 67.671875 
Q 56.890625 62.453125 56.890625 51.90625 
Q 56.890625 45.015625 53.6875 40.46875 
Q 50.484375 35.9375 44.390625 34.1875 
z
M 19.671875 64.796875 
L 19.671875 38.921875 
L 32.078125 38.921875 
Q 39.203125 38.921875 42.84375 42.21875 
Q 46.484375 45.515625 46.484375 51.90625 
Q 46.484375 58.296875 42.84375 61.546875 
Q 39.203125 64.796875 32.078125 64.796875 
z
" id="DejaVuSans-82"/>
     </defs>
     <use xlink:href="#DejaVuSans-53"/>
     <use x="63.623047" xlink:href="#DejaVuSans-51"/>
     <use x="127.246094" xlink:href="#DejaVuSans-32"/>
     <use x="159.033203" xlink:href="#DejaVuSans-82"/>
     <use x="224.015625" xlink:href="#DejaVuSans-111"/>
     <use x="285.197266" xlink:href="#DejaVuSans-116"/>
     <use x="324.40625" xlink:href="#DejaVuSans-46"/>
     <use x="356.193359" xlink:href="#DejaVuSans-32"/>
     <use x="387.980469" xlink:href="#DejaVuSans-82"/>
     <use x="455.212891" xlink:href="#DejaVuSans-97"/>
     <use x="516.492188" xlink:href="#DejaVuSans-115"/>
     <use x="568.591797" xlink:href="#DejaVuSans-116"/>
     <use x="607.800781" xlink:href="#DejaVuSans-114"/>
     <use x="648.914062" xlink:href="#DejaVuSans-105"/>
     <use x="676.697266" xlink:href="#DejaVuSans-103"/>
     <use x="740.173828" xlink:href="#DejaVuSans-105"/>
     <use x="767.957031" xlink:href="#DejaVuSans-110"/>
     <use x="831.335938" xlink:href="#DejaVuSans-44"/>
     <use x="863.123047" xlink:href="#DejaVuSans-32"/>
     <use x="894.910156" xlink:href="#DejaVuSans-109"/>
     <use x="992.322266" xlink:href="#DejaVuSans-61"/>
     <use x="1076.111328" xlink:href="#DejaVuSans-57"/>
     <use x="1139.734375" xlink:href="#DejaVuSans-43"/>
     <use x="1223.523438" xlink:href="#DejaVuSans-105"/>
     <use x="1251.306641" xlink:href="#DejaVuSans-110"/>
     <use x="1314.685547" xlink:href="#DejaVuSans-116"/>
     <use x="1353.894531" xlink:href="#DejaVuSans-40"/>
     <use x="1392.908203" xlink:href="#DejaVuSans-51"/>
     <use x="1456.53125" xlink:href="#DejaVuSans-110"/>
     <use x="1519.910156" xlink:href="#DejaVuSans-47"/>
     <use x="1553.601562" xlink:href="#DejaVuSans-50"/>
     <use x="1617.224609" xlink:href="#DejaVuSans-41"/>
    </g>
   </g>
  </g>
 </g>
 <defs>
  <clipPath id="p6a40ae988b">
   <rect height="271.296" width="303.2064" x="57.6" y="27.648"/>
  </clipPath>
 </defs>
</svg>
