<?xml version="1.0" encoding="utf-8" standalone="no"?>
<!DOCTYPE svg PUBLIC "-//W3C//DTD SVG 1.1//EN"
  "http://www.w3.org/Graphics/SVG/1.1/DTD/svg11.dtd">
<!-- Created with matplotlib (https://matplotlib.org/) -->
<svg height="345.6pt" version="1.1" viewBox="0 0 460.8 345.6" width="460.8pt" xmlns="http://www.w3.org/2000/svg" xmlns:xlink="http://www.w3.org/1999/xlink">
 <metadata>
  <rdf:RDF xmlns:cc="http://creativecommons.org/ns#" xmlns:dc="http://purl.org/dc/elements/1.1/" xmlns:rdf="http://www.w3.org/1999/02/22-rdf-syntax-ns#">
   <cc:Work>
    <dc:type rdf:resource="http://purl.org/dc/dcmitype/StillImage"/>
    <dc:date>2022-02-09T11:10:25.260311</dc:date>
    <dc:format>image/svg+xml</dc:format>
    <dc:creator>
     <cc:Agent>
      <dc:title>Matplotlib v3.3.3, https://matplotlib.org/</dc:title>
     </cc:Agent>
    </dc:creator>
   </cc:Work>
  </rdf:RDF>
 </metadata>
 <defs>
  <style type="text/css">*{stroke-linecap:butt;stroke-linejoin:round;}</style>
 </defs>
 <g id="figure_1">
  <g id="patch_1">
   <path d="M 0 345.6 
L 460.8 345.6 
L 460.8 0 
L 0 0 
z
" style="fill:#ffffff;"/>
  </g>
  <g id="axes_1">
   <g id="patch_2">
    <path d="M 57.6 298.944 
L 360.8064 298.944 
L 360.8064 6.912 
L 57.6 6.912 
z
" style="fill:#ffffff;"/>
   </g>
   <g id="matplotlib.axis_1">
    <g id="xtick_1">
     <g id="line2d_1">
      <path clip-path="url(#p79d66d959f)" d="M 57.6 298.944 
L 57.6 6.912 
" style="fill:none;stroke:#b0b0b0;stroke-linecap:square;stroke-width:0.8;"/>
     </g>
     <g id="line2d_2">
      <defs>
       <path d="M 0 0 
L 0 3.5 
" id="md9823fb957" style="stroke:#000000;stroke-width:0.8;"/>
      </defs>
      <g>
       <use style="stroke:#000000;stroke-width:0.8;" x="57.6" xlink:href="#md9823fb957" y="298.944"/>
      </g>
     </g>
     <g id="text_1">
      <!-- 0 -->
      <g transform="translate(52.191875 318.861344)scale(0.17 -0.17)">
       <defs>
        <path d="M 31.78125 66.40625 
Q 24.171875 66.40625 20.328125 58.90625 
Q 16.5 51.421875 16.5 36.375 
Q 16.5 21.390625 20.328125 13.890625 
Q 24.171875 6.390625 31.78125 6.390625 
Q 39.453125 6.390625 43.28125 13.890625 
Q 47.125 21.390625 47.125 36.375 
Q 47.125 51.421875 43.28125 58.90625 
Q 39.453125 66.40625 31.78125 66.40625 
z
M 31.78125 74.21875 
Q 44.046875 74.21875 50.515625 64.515625 
Q 56.984375 54.828125 56.984375 36.375 
Q 56.984375 17.96875 50.515625 8.265625 
Q 44.046875 -1.421875 31.78125 -1.421875 
Q 19.53125 -1.421875 13.0625 8.265625 
Q 6.59375 17.96875 6.59375 36.375 
Q 6.59375 54.828125 13.0625 64.515625 
Q 19.53125 74.21875 31.78125 74.21875 
z
" id="DejaVuSans-48"/>
       </defs>
       <use xlink:href="#DejaVuSans-48"/>
      </g>
     </g>
    </g>
    <g id="xtick_2">
     <g id="line2d_3">
      <path clip-path="url(#p79d66d959f)" d="M 144.2304 298.944 
L 144.2304 6.912 
" style="fill:none;stroke:#b0b0b0;stroke-linecap:square;stroke-width:0.8;"/>
     </g>
     <g id="line2d_4">
      <g>
       <use style="stroke:#000000;stroke-width:0.8;" x="144.2304" xlink:href="#md9823fb957" y="298.944"/>
      </g>
     </g>
     <g id="text_2">
      <!-- 2 -->
      <g transform="translate(138.822275 318.861344)scale(0.17 -0.17)">
       <defs>
        <path d="M 19.1875 8.296875 
L 53.609375 8.296875 
L 53.609375 0 
L 7.328125 0 
L 7.328125 8.296875 
Q 12.9375 14.109375 22.625 23.890625 
Q 32.328125 33.6875 34.8125 36.53125 
Q 39.546875 41.84375 41.421875 45.53125 
Q 43.3125 49.21875 43.3125 52.78125 
Q 43.3125 58.59375 39.234375 62.25 
Q 35.15625 65.921875 28.609375 65.921875 
Q 23.96875 65.921875 18.8125 64.3125 
Q 13.671875 62.703125 7.8125 59.421875 
L 7.8125 69.390625 
Q 13.765625 71.78125 18.9375 73 
Q 24.125 74.21875 28.421875 74.21875 
Q 39.75 74.21875 46.484375 68.546875 
Q 53.21875 62.890625 53.21875 53.421875 
Q 53.21875 48.921875 51.53125 44.890625 
Q 49.859375 40.875 45.40625 35.40625 
Q 44.1875 33.984375 37.640625 27.21875 
Q 31.109375 20.453125 19.1875 8.296875 
z
" id="DejaVuSans-50"/>
       </defs>
       <use xlink:href="#DejaVuSans-50"/>
      </g>
     </g>
    </g>
    <g id="xtick_3">
     <g id="line2d_5">
      <path clip-path="url(#p79d66d959f)" d="M 230.8608 298.944 
L 230.8608 6.912 
" style="fill:none;stroke:#b0b0b0;stroke-linecap:square;stroke-width:0.8;"/>
     </g>
     <g id="line2d_6">
      <g>
       <use style="stroke:#000000;stroke-width:0.8;" x="230.8608" xlink:href="#md9823fb957" y="298.944"/>
      </g>
     </g>
     <g id="text_3">
      <!-- 4 -->
      <g transform="translate(225.452675 318.861344)scale(0.17 -0.17)">
       <defs>
        <path d="M 37.796875 64.3125 
L 12.890625 25.390625 
L 37.796875 25.390625 
z
M 35.203125 72.90625 
L 47.609375 72.90625 
L 47.609375 25.390625 
L 58.015625 25.390625 
L 58.015625 17.1875 
L 47.609375 17.1875 
L 47.609375 0 
L 37.796875 0 
L 37.796875 17.1875 
L 4.890625 17.1875 
L 4.890625 26.703125 
z
" id="DejaVuSans-52"/>
       </defs>
       <use xlink:href="#DejaVuSans-52"/>
      </g>
     </g>
    </g>
    <g id="xtick_4">
     <g id="line2d_7">
      <path clip-path="url(#p79d66d959f)" d="M 317.4912 298.944 
L 317.4912 6.912 
" style="fill:none;stroke:#b0b0b0;stroke-linecap:square;stroke-width:0.8;"/>
     </g>
     <g id="line2d_8">
      <g>
       <use style="stroke:#000000;stroke-width:0.8;" x="317.4912" xlink:href="#md9823fb957" y="298.944"/>
      </g>
     </g>
     <g id="text_4">
      <!-- 6 -->
      <g transform="translate(312.083075 318.861344)scale(0.17 -0.17)">
       <defs>
        <path d="M 33.015625 40.375 
Q 26.375 40.375 22.484375 35.828125 
Q 18.609375 31.296875 18.609375 23.390625 
Q 18.609375 15.53125 22.484375 10.953125 
Q 26.375 6.390625 33.015625 6.390625 
Q 39.65625 6.390625 43.53125 10.953125 
Q 47.40625 15.53125 47.40625 23.390625 
Q 47.40625 31.296875 43.53125 35.828125 
Q 39.65625 40.375 33.015625 40.375 
z
M 52.59375 71.296875 
L 52.59375 62.3125 
Q 48.875 64.0625 45.09375 64.984375 
Q 41.3125 65.921875 37.59375 65.921875 
Q 27.828125 65.921875 22.671875 59.328125 
Q 17.53125 52.734375 16.796875 39.40625 
Q 19.671875 43.65625 24.015625 45.921875 
Q 28.375 48.1875 33.59375 48.1875 
Q 44.578125 48.1875 50.953125 41.515625 
Q 57.328125 34.859375 57.328125 23.390625 
Q 57.328125 12.15625 50.6875 5.359375 
Q 44.046875 -1.421875 33.015625 -1.421875 
Q 20.359375 -1.421875 13.671875 8.265625 
Q 6.984375 17.96875 6.984375 36.375 
Q 6.984375 53.65625 15.1875 63.9375 
Q 23.390625 74.21875 37.203125 74.21875 
Q 40.921875 74.21875 44.703125 73.484375 
Q 48.484375 72.75 52.59375 71.296875 
z
" id="DejaVuSans-54"/>
       </defs>
       <use xlink:href="#DejaVuSans-54"/>
      </g>
     </g>
    </g>
    <g id="xtick_5">
     <g id="line2d_9">
      <path clip-path="url(#p79d66d959f)" d="M 100.9152 298.944 
L 100.9152 6.912 
" style="fill:none;stroke:#b0b0b0;stroke-linecap:square;stroke-width:0.8;"/>
     </g>
     <g id="line2d_10">
      <defs>
       <path d="M 0 0 
L 0 2 
" id="m730a16faef" style="stroke:#000000;stroke-width:0.6;"/>
      </defs>
      <g>
       <use style="stroke:#000000;stroke-width:0.6;" x="100.9152" xlink:href="#m730a16faef" y="298.944"/>
      </g>
     </g>
    </g>
    <g id="xtick_6">
     <g id="line2d_11">
      <path clip-path="url(#p79d66d959f)" d="M 187.5456 298.944 
L 187.5456 6.912 
" style="fill:none;stroke:#b0b0b0;stroke-linecap:square;stroke-width:0.8;"/>
     </g>
     <g id="line2d_12">
      <g>
       <use style="stroke:#000000;stroke-width:0.6;" x="187.5456" xlink:href="#m730a16faef" y="298.944"/>
      </g>
     </g>
    </g>
    <g id="xtick_7">
     <g id="line2d_13">
      <path clip-path="url(#p79d66d959f)" d="M 274.176 298.944 
L 274.176 6.912 
" style="fill:none;stroke:#b0b0b0;stroke-linecap:square;stroke-width:0.8;"/>
     </g>
     <g id="line2d_14">
      <g>
       <use style="stroke:#000000;stroke-width:0.6;" x="274.176" xlink:href="#m730a16faef" y="298.944"/>
      </g>
     </g>
    </g>
    <g id="xtick_8">
     <g id="line2d_15">
      <path clip-path="url(#p79d66d959f)" d="M 360.8064 298.944 
L 360.8064 6.912 
" style="fill:none;stroke:#b0b0b0;stroke-linecap:square;stroke-width:0.8;"/>
     </g>
     <g id="line2d_16">
      <g>
       <use style="stroke:#000000;stroke-width:0.6;" x="360.8064" xlink:href="#m730a16faef" y="298.944"/>
      </g>
     </g>
    </g>
    <g id="text_5">
     <!-- log10(evals / dimension) -->
     <g transform="translate(104.238825 339.314156)scale(0.17 -0.17)">
      <defs>
       <path d="M 9.421875 75.984375 
L 18.40625 75.984375 
L 18.40625 0 
L 9.421875 0 
z
" id="DejaVuSans-108"/>
       <path d="M 30.609375 48.390625 
Q 23.390625 48.390625 19.1875 42.75 
Q 14.984375 37.109375 14.984375 27.296875 
Q 14.984375 17.484375 19.15625 11.84375 
Q 23.34375 6.203125 30.609375 6.203125 
Q 37.796875 6.203125 41.984375 11.859375 
Q 46.1875 17.53125 46.1875 27.296875 
Q 46.1875 37.015625 41.984375 42.703125 
Q 37.796875 48.390625 30.609375 48.390625 
z
M 30.609375 56 
Q 42.328125 56 49.015625 48.375 
Q 55.71875 40.765625 55.71875 27.296875 
Q 55.71875 13.875 49.015625 6.21875 
Q 42.328125 -1.421875 30.609375 -1.421875 
Q 18.84375 -1.421875 12.171875 6.21875 
Q 5.515625 13.875 5.515625 27.296875 
Q 5.515625 40.765625 12.171875 48.375 
Q 18.84375 56 30.609375 56 
z
" id="DejaVuSans-111"/>
       <path d="M 45.40625 27.984375 
Q 45.40625 37.75 41.375 43.109375 
Q 37.359375 48.484375 30.078125 48.484375 
Q 22.859375 48.484375 18.828125 43.109375 
Q 14.796875 37.75 14.796875 27.984375 
Q 14.796875 18.265625 18.828125 12.890625 
Q 22.859375 7.515625 30.078125 7.515625 
Q 37.359375 7.515625 41.375 12.890625 
Q 45.40625 18.265625 45.40625 27.984375 
z
M 54.390625 6.78125 
Q 54.390625 -7.171875 48.1875 -13.984375 
Q 42 -20.796875 29.203125 -20.796875 
Q 24.46875 -20.796875 20.265625 -20.09375 
Q 16.0625 -19.390625 12.109375 -17.921875 
L 12.109375 -9.1875 
Q 16.0625 -11.328125 19.921875 -12.34375 
Q 23.78125 -13.375 27.78125 -13.375 
Q 36.625 -13.375 41.015625 -8.765625 
Q 45.40625 -4.15625 45.40625 5.171875 
L 45.40625 9.625 
Q 42.625 4.78125 38.28125 2.390625 
Q 33.9375 0 27.875 0 
Q 17.828125 0 11.671875 7.65625 
Q 5.515625 15.328125 5.515625 27.984375 
Q 5.515625 40.671875 11.671875 48.328125 
Q 17.828125 56 27.875 56 
Q 33.9375 56 38.28125 53.609375 
Q 42.625 51.21875 45.40625 46.390625 
L 45.40625 54.6875 
L 54.390625 54.6875 
z
" id="DejaVuSans-103"/>
       <path d="M 12.40625 8.296875 
L 28.515625 8.296875 
L 28.515625 63.921875 
L 10.984375 60.40625 
L 10.984375 69.390625 
L 28.421875 72.90625 
L 38.28125 72.90625 
L 38.28125 8.296875 
L 54.390625 8.296875 
L 54.390625 0 
L 12.40625 0 
z
" id="DejaVuSans-49"/>
       <path d="M 31 75.875 
Q 24.46875 64.65625 21.28125 53.65625 
Q 18.109375 42.671875 18.109375 31.390625 
Q 18.109375 20.125 21.3125 9.0625 
Q 24.515625 -2 31 -13.1875 
L 23.1875 -13.1875 
Q 15.875 -1.703125 12.234375 9.375 
Q 8.59375 20.453125 8.59375 31.390625 
Q 8.59375 42.28125 12.203125 53.3125 
Q 15.828125 64.359375 23.1875 75.875 
z
" id="DejaVuSans-40"/>
       <path d="M 56.203125 29.59375 
L 56.203125 25.203125 
L 14.890625 25.203125 
Q 15.484375 15.921875 20.484375 11.0625 
Q 25.484375 6.203125 34.421875 6.203125 
Q 39.59375 6.203125 44.453125 7.46875 
Q 49.3125 8.734375 54.109375 11.28125 
L 54.109375 2.78125 
Q 49.265625 0.734375 44.1875 -0.34375 
Q 39.109375 -1.421875 33.890625 -1.421875 
Q 20.796875 -1.421875 13.15625 6.1875 
Q 5.515625 13.8125 5.515625 26.8125 
Q 5.515625 40.234375 12.765625 48.109375 
Q 20.015625 56 32.328125 56 
Q 43.359375 56 49.78125 48.890625 
Q 56.203125 41.796875 56.203125 29.59375 
z
M 47.21875 32.234375 
Q 47.125 39.59375 43.09375 43.984375 
Q 39.0625 48.390625 32.421875 48.390625 
Q 24.90625 48.390625 20.390625 44.140625 
Q 15.875 39.890625 15.1875 32.171875 
z
" id="DejaVuSans-101"/>
       <path d="M 2.984375 54.6875 
L 12.5 54.6875 
L 29.59375 8.796875 
L 46.6875 54.6875 
L 56.203125 54.6875 
L 35.6875 0 
L 23.484375 0 
z
" id="DejaVuSans-118"/>
       <path d="M 34.28125 27.484375 
Q 23.390625 27.484375 19.1875 25 
Q 14.984375 22.515625 14.984375 16.5 
Q 14.984375 11.71875 18.140625 8.90625 
Q 21.296875 6.109375 26.703125 6.109375 
Q 34.1875 6.109375 38.703125 11.40625 
Q 43.21875 16.703125 43.21875 25.484375 
L 43.21875 27.484375 
z
M 52.203125 31.203125 
L 52.203125 0 
L 43.21875 0 
L 43.21875 8.296875 
Q 40.140625 3.328125 35.546875 0.953125 
Q 30.953125 -1.421875 24.3125 -1.421875 
Q 15.921875 -1.421875 10.953125 3.296875 
Q 6 8.015625 6 15.921875 
Q 6 25.140625 12.171875 29.828125 
Q 18.359375 34.515625 30.609375 34.515625 
L 43.21875 34.515625 
L 43.21875 35.40625 
Q 43.21875 41.609375 39.140625 45 
Q 35.0625 48.390625 27.6875 48.390625 
Q 23 48.390625 18.546875 47.265625 
Q 14.109375 46.140625 10.015625 43.890625 
L 10.015625 52.203125 
Q 14.9375 54.109375 19.578125 55.046875 
Q 24.21875 56 28.609375 56 
Q 40.484375 56 46.34375 49.84375 
Q 52.203125 43.703125 52.203125 31.203125 
z
" id="DejaVuSans-97"/>
       <path d="M 44.28125 53.078125 
L 44.28125 44.578125 
Q 40.484375 46.53125 36.375 47.5 
Q 32.28125 48.484375 27.875 48.484375 
Q 21.1875 48.484375 17.84375 46.4375 
Q 14.5 44.390625 14.5 40.28125 
Q 14.5 37.15625 16.890625 35.375 
Q 19.28125 33.59375 26.515625 31.984375 
L 29.59375 31.296875 
Q 39.15625 29.25 43.1875 25.515625 
Q 47.21875 21.78125 47.21875 15.09375 
Q 47.21875 7.46875 41.1875 3.015625 
Q 35.15625 -1.421875 24.609375 -1.421875 
Q 20.21875 -1.421875 15.453125 -0.5625 
Q 10.6875 0.296875 5.421875 2 
L 5.421875 11.28125 
Q 10.40625 8.6875 15.234375 7.390625 
Q 20.0625 6.109375 24.8125 6.109375 
Q 31.15625 6.109375 34.5625 8.28125 
Q 37.984375 10.453125 37.984375 14.40625 
Q 37.984375 18.0625 35.515625 20.015625 
Q 33.0625 21.96875 24.703125 23.78125 
L 21.578125 24.515625 
Q 13.234375 26.265625 9.515625 29.90625 
Q 5.8125 33.546875 5.8125 39.890625 
Q 5.8125 47.609375 11.28125 51.796875 
Q 16.75 56 26.8125 56 
Q 31.78125 56 36.171875 55.265625 
Q 40.578125 54.546875 44.28125 53.078125 
z
" id="DejaVuSans-115"/>
       <path id="DejaVuSans-32"/>
       <path d="M 25.390625 72.90625 
L 33.6875 72.90625 
L 8.296875 -9.28125 
L 0 -9.28125 
z
" id="DejaVuSans-47"/>
       <path d="M 45.40625 46.390625 
L 45.40625 75.984375 
L 54.390625 75.984375 
L 54.390625 0 
L 45.40625 0 
L 45.40625 8.203125 
Q 42.578125 3.328125 38.25 0.953125 
Q 33.9375 -1.421875 27.875 -1.421875 
Q 17.96875 -1.421875 11.734375 6.484375 
Q 5.515625 14.40625 5.515625 27.296875 
Q 5.515625 40.1875 11.734375 48.09375 
Q 17.96875 56 27.875 56 
Q 33.9375 56 38.25 53.625 
Q 42.578125 51.265625 45.40625 46.390625 
z
M 14.796875 27.296875 
Q 14.796875 17.390625 18.875 11.75 
Q 22.953125 6.109375 30.078125 6.109375 
Q 37.203125 6.109375 41.296875 11.75 
Q 45.40625 17.390625 45.40625 27.296875 
Q 45.40625 37.203125 41.296875 42.84375 
Q 37.203125 48.484375 30.078125 48.484375 
Q 22.953125 48.484375 18.875 42.84375 
Q 14.796875 37.203125 14.796875 27.296875 
z
" id="DejaVuSans-100"/>
       <path d="M 9.421875 54.6875 
L 18.40625 54.6875 
L 18.40625 0 
L 9.421875 0 
z
M 9.421875 75.984375 
L 18.40625 75.984375 
L 18.40625 64.59375 
L 9.421875 64.59375 
z
" id="DejaVuSans-105"/>
       <path d="M 52 44.1875 
Q 55.375 50.25 60.0625 53.125 
Q 64.75 56 71.09375 56 
Q 79.640625 56 84.28125 50.015625 
Q 88.921875 44.046875 88.921875 33.015625 
L 88.921875 0 
L 79.890625 0 
L 79.890625 32.71875 
Q 79.890625 40.578125 77.09375 44.375 
Q 74.3125 48.1875 68.609375 48.1875 
Q 61.625 48.1875 57.5625 43.546875 
Q 53.515625 38.921875 53.515625 30.90625 
L 53.515625 0 
L 44.484375 0 
L 44.484375 32.71875 
Q 44.484375 40.625 41.703125 44.40625 
Q 38.921875 48.1875 33.109375 48.1875 
Q 26.21875 48.1875 22.15625 43.53125 
Q 18.109375 38.875 18.109375 30.90625 
L 18.109375 0 
L 9.078125 0 
L 9.078125 54.6875 
L 18.109375 54.6875 
L 18.109375 46.1875 
Q 21.1875 51.21875 25.484375 53.609375 
Q 29.78125 56 35.6875 56 
Q 41.65625 56 45.828125 52.96875 
Q 50 49.953125 52 44.1875 
z
" id="DejaVuSans-109"/>
       <path d="M 54.890625 33.015625 
L 54.890625 0 
L 45.90625 0 
L 45.90625 32.71875 
Q 45.90625 40.484375 42.875 44.328125 
Q 39.84375 48.1875 33.796875 48.1875 
Q 26.515625 48.1875 22.3125 43.546875 
Q 18.109375 38.921875 18.109375 30.90625 
L 18.109375 0 
L 9.078125 0 
L 9.078125 54.6875 
L 18.109375 54.6875 
L 18.109375 46.1875 
Q 21.34375 51.125 25.703125 53.5625 
Q 30.078125 56 35.796875 56 
Q 45.21875 56 50.046875 50.171875 
Q 54.890625 44.34375 54.890625 33.015625 
z
" id="DejaVuSans-110"/>
       <path d="M 8.015625 75.875 
L 15.828125 75.875 
Q 23.140625 64.359375 26.78125 53.3125 
Q 30.421875 42.28125 30.421875 31.390625 
Q 30.421875 20.453125 26.78125 9.375 
Q 23.140625 -1.703125 15.828125 -13.1875 
L 8.015625 -13.1875 
Q 14.5 -2 17.703125 9.0625 
Q 20.90625 20.125 20.90625 31.390625 
Q 20.90625 42.671875 17.703125 53.65625 
Q 14.5 64.65625 8.015625 75.875 
z
" id="DejaVuSans-41"/>
      </defs>
      <use xlink:href="#DejaVuSans-108"/>
      <use x="27.783203" xlink:href="#DejaVuSans-111"/>
      <use x="88.964844" xlink:href="#DejaVuSans-103"/>
      <use x="152.441406" xlink:href="#DejaVuSans-49"/>
      <use x="216.064453" xlink:href="#DejaVuSans-48"/>
      <use x="279.6875" xlink:href="#DejaVuSans-40"/>
      <use x="318.701172" xlink:href="#DejaVuSans-101"/>
      <use x="380.224609" xlink:href="#DejaVuSans-118"/>
      <use x="439.404297" xlink:href="#DejaVuSans-97"/>
      <use x="500.683594" xlink:href="#DejaVuSans-108"/>
      <use x="528.466797" xlink:href="#DejaVuSans-115"/>
      <use x="580.566406" xlink:href="#DejaVuSans-32"/>
      <use x="612.353516" xlink:href="#DejaVuSans-47"/>
      <use x="646.044922" xlink:href="#DejaVuSans-32"/>
      <use x="677.832031" xlink:href="#DejaVuSans-100"/>
      <use x="741.308594" xlink:href="#DejaVuSans-105"/>
      <use x="769.091797" xlink:href="#DejaVuSans-109"/>
      <use x="866.503906" xlink:href="#DejaVuSans-101"/>
      <use x="928.027344" xlink:href="#DejaVuSans-110"/>
      <use x="991.40625" xlink:href="#DejaVuSans-115"/>
      <use x="1043.505859" xlink:href="#DejaVuSans-105"/>
      <use x="1071.289062" xlink:href="#DejaVuSans-111"/>
      <use x="1132.470703" xlink:href="#DejaVuSans-110"/>
      <use x="1195.849609" xlink:href="#DejaVuSans-41"/>
     </g>
    </g>
   </g>
   <g id="matplotlib.axis_2">
    <g id="ytick_1">
     <g id="line2d_17">
      <path clip-path="url(#p79d66d959f)" d="M 57.6 298.944 
L 360.8064 298.944 
" style="fill:none;stroke:#b0b0b0;stroke-linecap:square;stroke-width:0.8;"/>
     </g>
     <g id="line2d_18">
      <defs>
       <path d="M 0 0 
L -3.5 0 
" id="m70860379be" style="stroke:#000000;stroke-width:0.8;"/>
      </defs>
      <g>
       <use style="stroke:#000000;stroke-width:0.8;" x="57.6" xlink:href="#m70860379be" y="298.944"/>
      </g>
     </g>
     <g id="text_6">
      <!-- 0.0 -->
      <g transform="translate(25.155 305.02275)scale(0.16 -0.16)">
       <defs>
        <path d="M 10.6875 12.40625 
L 21 12.40625 
L 21 0 
L 10.6875 0 
z
" id="DejaVuSans-46"/>
       </defs>
       <use xlink:href="#DejaVuSans-48"/>
       <use x="63.623047" xlink:href="#DejaVuSans-46"/>
       <use x="95.410156" xlink:href="#DejaVuSans-48"/>
      </g>
     </g>
    </g>
    <g id="ytick_2">
     <g id="line2d_19">
      <path clip-path="url(#p79d66d959f)" d="M 57.6 240.5376 
L 360.8064 240.5376 
" style="fill:none;stroke:#b0b0b0;stroke-linecap:square;stroke-width:0.8;"/>
     </g>
     <g id="line2d_20">
      <g>
       <use style="stroke:#000000;stroke-width:0.8;" x="57.6" xlink:href="#m70860379be" y="240.5376"/>
      </g>
     </g>
     <g id="text_7">
      <!-- 0.2 -->
      <g transform="translate(25.155 246.61635)scale(0.16 -0.16)">
       <use xlink:href="#DejaVuSans-48"/>
       <use x="63.623047" xlink:href="#DejaVuSans-46"/>
       <use x="95.410156" xlink:href="#DejaVuSans-50"/>
      </g>
     </g>
    </g>
    <g id="ytick_3">
     <g id="line2d_21">
      <path clip-path="url(#p79d66d959f)" d="M 57.6 182.1312 
L 360.8064 182.1312 
" style="fill:none;stroke:#b0b0b0;stroke-linecap:square;stroke-width:0.8;"/>
     </g>
     <g id="line2d_22">
      <g>
       <use style="stroke:#000000;stroke-width:0.8;" x="57.6" xlink:href="#m70860379be" y="182.1312"/>
      </g>
     </g>
     <g id="text_8">
      <!-- 0.4 -->
      <g transform="translate(25.155 188.20995)scale(0.16 -0.16)">
       <use xlink:href="#DejaVuSans-48"/>
       <use x="63.623047" xlink:href="#DejaVuSans-46"/>
       <use x="95.410156" xlink:href="#DejaVuSans-52"/>
      </g>
     </g>
    </g>
    <g id="ytick_4">
     <g id="line2d_23">
      <path clip-path="url(#p79d66d959f)" d="M 57.6 123.7248 
L 360.8064 123.7248 
" style="fill:none;stroke:#b0b0b0;stroke-linecap:square;stroke-width:0.8;"/>
     </g>
     <g id="line2d_24">
      <g>
       <use style="stroke:#000000;stroke-width:0.8;" x="57.6" xlink:href="#m70860379be" y="123.7248"/>
      </g>
     </g>
     <g id="text_9">
      <!-- 0.6 -->
      <g transform="translate(25.155 129.80355)scale(0.16 -0.16)">
       <use xlink:href="#DejaVuSans-48"/>
       <use x="63.623047" xlink:href="#DejaVuSans-46"/>
       <use x="95.410156" xlink:href="#DejaVuSans-54"/>
      </g>
     </g>
    </g>
    <g id="ytick_5">
     <g id="line2d_25">
      <path clip-path="url(#p79d66d959f)" d="M 57.6 65.3184 
L 360.8064 65.3184 
" style="fill:none;stroke:#b0b0b0;stroke-linecap:square;stroke-width:0.8;"/>
     </g>
     <g id="line2d_26">
      <g>
       <use style="stroke:#000000;stroke-width:0.8;" x="57.6" xlink:href="#m70860379be" y="65.3184"/>
      </g>
     </g>
     <g id="text_10">
      <!-- 0.8 -->
      <g transform="translate(25.155 71.39715)scale(0.16 -0.16)">
       <defs>
        <path d="M 31.78125 34.625 
Q 24.75 34.625 20.71875 30.859375 
Q 16.703125 27.09375 16.703125 20.515625 
Q 16.703125 13.921875 20.71875 10.15625 
Q 24.75 6.390625 31.78125 6.390625 
Q 38.8125 6.390625 42.859375 10.171875 
Q 46.921875 13.96875 46.921875 20.515625 
Q 46.921875 27.09375 42.890625 30.859375 
Q 38.875 34.625 31.78125 34.625 
z
M 21.921875 38.8125 
Q 15.578125 40.375 12.03125 44.71875 
Q 8.5 49.078125 8.5 55.328125 
Q 8.5 64.0625 14.71875 69.140625 
Q 20.953125 74.21875 31.78125 74.21875 
Q 42.671875 74.21875 48.875 69.140625 
Q 55.078125 64.0625 55.078125 55.328125 
Q 55.078125 49.078125 51.53125 44.71875 
Q 48 40.375 41.703125 38.8125 
Q 48.828125 37.15625 52.796875 32.3125 
Q 56.78125 27.484375 56.78125 20.515625 
Q 56.78125 9.90625 50.3125 4.234375 
Q 43.84375 -1.421875 31.78125 -1.421875 
Q 19.734375 -1.421875 13.25 4.234375 
Q 6.78125 9.90625 6.78125 20.515625 
Q 6.78125 27.484375 10.78125 32.3125 
Q 14.796875 37.15625 21.921875 38.8125 
z
M 18.3125 54.390625 
Q 18.3125 48.734375 21.84375 45.5625 
Q 25.390625 42.390625 31.78125 42.390625 
Q 38.140625 42.390625 41.71875 45.5625 
Q 45.3125 48.734375 45.3125 54.390625 
Q 45.3125 60.0625 41.71875 63.234375 
Q 38.140625 66.40625 31.78125 66.40625 
Q 25.390625 66.40625 21.84375 63.234375 
Q 18.3125 60.0625 18.3125 54.390625 
z
" id="DejaVuSans-56"/>
       </defs>
       <use xlink:href="#DejaVuSans-48"/>
       <use x="63.623047" xlink:href="#DejaVuSans-46"/>
       <use x="95.410156" xlink:href="#DejaVuSans-56"/>
      </g>
     </g>
    </g>
    <g id="ytick_6">
     <g id="line2d_27">
      <path clip-path="url(#p79d66d959f)" d="M 57.6 6.912 
L 360.8064 6.912 
" style="fill:none;stroke:#b0b0b0;stroke-linecap:square;stroke-width:0.8;"/>
     </g>
     <g id="line2d_28">
      <g>
       <use style="stroke:#000000;stroke-width:0.8;" x="57.6" xlink:href="#m70860379be" y="6.912"/>
      </g>
     </g>
     <g id="text_11">
      <!-- 1.0 -->
      <g transform="translate(25.155 12.99075)scale(0.16 -0.16)">
       <use xlink:href="#DejaVuSans-49"/>
       <use x="63.623047" xlink:href="#DejaVuSans-46"/>
       <use x="95.410156" xlink:href="#DejaVuSans-48"/>
      </g>
     </g>
    </g>
    <g id="text_12">
     <!-- Fraction of function,target pairs -->
     <g transform="translate(17.619531 287.313)rotate(-90)scale(0.17 -0.17)">
      <defs>
       <path d="M 9.8125 72.90625 
L 51.703125 72.90625 
L 51.703125 64.59375 
L 19.671875 64.59375 
L 19.671875 43.109375 
L 48.578125 43.109375 
L 48.578125 34.8125 
L 19.671875 34.8125 
L 19.671875 0 
L 9.8125 0 
z
" id="DejaVuSans-70"/>
       <path d="M 41.109375 46.296875 
Q 39.59375 47.171875 37.8125 47.578125 
Q 36.03125 48 33.890625 48 
Q 26.265625 48 22.1875 43.046875 
Q 18.109375 38.09375 18.109375 28.8125 
L 18.109375 0 
L 9.078125 0 
L 9.078125 54.6875 
L 18.109375 54.6875 
L 18.109375 46.1875 
Q 20.953125 51.171875 25.484375 53.578125 
Q 30.03125 56 36.53125 56 
Q 37.453125 56 38.578125 55.875 
Q 39.703125 55.765625 41.0625 55.515625 
z
" id="DejaVuSans-114"/>
       <path d="M 48.78125 52.59375 
L 48.78125 44.1875 
Q 44.96875 46.296875 41.140625 47.34375 
Q 37.3125 48.390625 33.40625 48.390625 
Q 24.65625 48.390625 19.8125 42.84375 
Q 14.984375 37.3125 14.984375 27.296875 
Q 14.984375 17.28125 19.8125 11.734375 
Q 24.65625 6.203125 33.40625 6.203125 
Q 37.3125 6.203125 41.140625 7.25 
Q 44.96875 8.296875 48.78125 10.40625 
L 48.78125 2.09375 
Q 45.015625 0.34375 40.984375 -0.53125 
Q 36.96875 -1.421875 32.421875 -1.421875 
Q 20.0625 -1.421875 12.78125 6.34375 
Q 5.515625 14.109375 5.515625 27.296875 
Q 5.515625 40.671875 12.859375 48.328125 
Q 20.21875 56 33.015625 56 
Q 37.15625 56 41.109375 55.140625 
Q 45.0625 54.296875 48.78125 52.59375 
z
" id="DejaVuSans-99"/>
       <path d="M 18.3125 70.21875 
L 18.3125 54.6875 
L 36.8125 54.6875 
L 36.8125 47.703125 
L 18.3125 47.703125 
L 18.3125 18.015625 
Q 18.3125 11.328125 20.140625 9.421875 
Q 21.96875 7.515625 27.59375 7.515625 
L 36.8125 7.515625 
L 36.8125 0 
L 27.59375 0 
Q 17.1875 0 13.234375 3.875 
Q 9.28125 7.765625 9.28125 18.015625 
L 9.28125 47.703125 
L 2.6875 47.703125 
L 2.6875 54.6875 
L 9.28125 54.6875 
L 9.28125 70.21875 
z
" id="DejaVuSans-116"/>
       <path d="M 37.109375 75.984375 
L 37.109375 68.5 
L 28.515625 68.5 
Q 23.6875 68.5 21.796875 66.546875 
Q 19.921875 64.59375 19.921875 59.515625 
L 19.921875 54.6875 
L 34.71875 54.6875 
L 34.71875 47.703125 
L 19.921875 47.703125 
L 19.921875 0 
L 10.890625 0 
L 10.890625 47.703125 
L 2.296875 47.703125 
L 2.296875 54.6875 
L 10.890625 54.6875 
L 10.890625 58.5 
Q 10.890625 67.625 15.140625 71.796875 
Q 19.390625 75.984375 28.609375 75.984375 
z
" id="DejaVuSans-102"/>
       <path d="M 8.5 21.578125 
L 8.5 54.6875 
L 17.484375 54.6875 
L 17.484375 21.921875 
Q 17.484375 14.15625 20.5 10.265625 
Q 23.53125 6.390625 29.59375 6.390625 
Q 36.859375 6.390625 41.078125 11.03125 
Q 45.3125 15.671875 45.3125 23.6875 
L 45.3125 54.6875 
L 54.296875 54.6875 
L 54.296875 0 
L 45.3125 0 
L 45.3125 8.40625 
Q 42.046875 3.421875 37.71875 1 
Q 33.40625 -1.421875 27.6875 -1.421875 
Q 18.265625 -1.421875 13.375 4.4375 
Q 8.5 10.296875 8.5 21.578125 
z
M 31.109375 56 
z
" id="DejaVuSans-117"/>
       <path d="M 11.71875 12.40625 
L 22.015625 12.40625 
L 22.015625 4 
L 14.015625 -11.625 
L 7.71875 -11.625 
L 11.71875 4 
z
" id="DejaVuSans-44"/>
       <path d="M 18.109375 8.203125 
L 18.109375 -20.796875 
L 9.078125 -20.796875 
L 9.078125 54.6875 
L 18.109375 54.6875 
L 18.109375 46.390625 
Q 20.953125 51.265625 25.265625 53.625 
Q 29.59375 56 35.59375 56 
Q 45.5625 56 51.78125 48.09375 
Q 58.015625 40.1875 58.015625 27.296875 
Q 58.015625 14.40625 51.78125 6.484375 
Q 45.5625 -1.421875 35.59375 -1.421875 
Q 29.59375 -1.421875 25.265625 0.953125 
Q 20.953125 3.328125 18.109375 8.203125 
z
M 48.6875 27.296875 
Q 48.6875 37.203125 44.609375 42.84375 
Q 40.53125 48.484375 33.40625 48.484375 
Q 26.265625 48.484375 22.1875 42.84375 
Q 18.109375 37.203125 18.109375 27.296875 
Q 18.109375 17.390625 22.1875 11.75 
Q 26.265625 6.109375 33.40625 6.109375 
Q 40.53125 6.109375 44.609375 11.75 
Q 48.6875 17.390625 48.6875 27.296875 
z
" id="DejaVuSans-112"/>
      </defs>
      <use xlink:href="#DejaVuSans-70"/>
      <use x="50.269531" xlink:href="#DejaVuSans-114"/>
      <use x="91.382812" xlink:href="#DejaVuSans-97"/>
      <use x="152.662109" xlink:href="#DejaVuSans-99"/>
      <use x="207.642578" xlink:href="#DejaVuSans-116"/>
      <use x="246.851562" xlink:href="#DejaVuSans-105"/>
      <use x="274.634766" xlink:href="#DejaVuSans-111"/>
      <use x="335.816406" xlink:href="#DejaVuSans-110"/>
      <use x="399.195312" xlink:href="#DejaVuSans-32"/>
      <use x="430.982422" xlink:href="#DejaVuSans-111"/>
      <use x="492.164062" xlink:href="#DejaVuSans-102"/>
      <use x="527.369141" xlink:href="#DejaVuSans-32"/>
      <use x="559.15625" xlink:href="#DejaVuSans-102"/>
      <use x="594.361328" xlink:href="#DejaVuSans-117"/>
      <use x="657.740234" xlink:href="#DejaVuSans-110"/>
      <use x="721.119141" xlink:href="#DejaVuSans-99"/>
      <use x="776.099609" xlink:href="#DejaVuSans-116"/>
      <use x="815.308594" xlink:href="#DejaVuSans-105"/>
      <use x="843.091797" xlink:href="#DejaVuSans-111"/>
      <use x="904.273438" xlink:href="#DejaVuSans-110"/>
      <use x="967.652344" xlink:href="#DejaVuSans-44"/>
      <use x="999.439453" xlink:href="#DejaVuSans-116"/>
      <use x="1038.648438" xlink:href="#DejaVuSans-97"/>
      <use x="1099.927734" xlink:href="#DejaVuSans-114"/>
      <use x="1139.291016" xlink:href="#DejaVuSans-103"/>
      <use x="1202.767578" xlink:href="#DejaVuSans-101"/>
      <use x="1264.291016" xlink:href="#DejaVuSans-116"/>
      <use x="1303.5" xlink:href="#DejaVuSans-32"/>
      <use x="1335.287109" xlink:href="#DejaVuSans-112"/>
      <use x="1398.763672" xlink:href="#DejaVuSans-97"/>
      <use x="1460.042969" xlink:href="#DejaVuSans-105"/>
      <use x="1487.826172" xlink:href="#DejaVuSans-114"/>
      <use x="1528.939453" xlink:href="#DejaVuSans-115"/>
     </g>
    </g>
   </g>
   <g id="line2d_29">
    <defs>
     <path d="M 0 1.5 
C 0.397805 1.5 0.77937 1.341951 1.06066 1.06066 
C 1.341951 0.77937 1.5 0.397805 1.5 0 
C 1.5 -0.397805 1.341951 -0.77937 1.06066 -1.06066 
C 0.77937 -1.341951 0.397805 -1.5 0 -1.5 
C -0.397805 -1.5 -0.77937 -1.341951 -1.06066 -1.06066 
C -1.341951 -0.77937 -1.5 -0.397805 -1.5 0 
C -1.5 0.397805 -1.341951 0.77937 -1.06066 1.06066 
C -0.77937 1.341951 -0.397805 1.5 0 1.5 
z
" id="m4c6f112142" style="stroke:#000080;"/>
    </defs>
    <g>
     <use style="fill:#000080;stroke:#000080;" x="304.109912" xlink:href="#m4c6f112142" y="35.402927"/>
     <use style="fill:#000080;stroke:#000080;" x="304.109912" xlink:href="#m4c6f112142" y="35.402927"/>
    </g>
   </g>
   <g id="line2d_30">
    <path d="M 100.9152 298.944 
L 100.9152 298.469151 
L 103.047088 298.469151 
L 103.047088 297.994302 
L 104.961779 297.994302 
L 104.961779 297.519454 
L 106.699465 297.519454 
L 106.699465 296.569756 
L 108.29012 296.569756 
L 108.29012 296.094907 
L 109.280431 296.094907 
L 109.280431 295.620059 
L 114.326893 295.620059 
L 114.326893 295.14521 
L 116.746385 295.14521 
L 116.746385 294.670361 
L 120.013265 294.670361 
L 120.013265 294.195512 
L 122.559246 294.195512 
L 122.559246 293.720663 
L 144.041338 293.720663 
L 144.041338 293.245815 
L 144.565997 293.245815 
L 144.565997 292.770966 
L 144.786447 292.770966 
L 144.85936 291.821268 
L 149.538397 291.821268 
L 149.538397 291.34642 
L 150.042308 291.34642 
L 150.042308 290.871571 
L 150.262008 290.871571 
L 150.316534 289.447024 
L 150.533072 289.447024 
L 150.533072 288.497327 
L 150.747146 288.497327 
L 150.747146 288.022478 
L 150.958812 288.022478 
L 150.958812 287.07278 
L 151.116012 287.07278 
L 151.116012 286.597932 
L 151.375128 286.597932 
L 151.477784 284.698537 
L 151.932924 284.698537 
L 152.032588 282.799141 
L 152.082223 282.799141 
L 152.082223 281.849444 
L 152.619733 281.849444 
L 152.619733 281.374595 
L 153.235783 281.374595 
L 153.235783 278.525502 
L 154.056781 278.525502 
L 154.056781 278.050654 
L 154.190197 278.050654 
L 154.190197 276.626107 
L 154.843441 276.626107 
L 154.843441 276.151259 
L 155.140696 276.151259 
L 155.140696 275.67641 
L 157.438121 275.67641 
L 157.438121 275.201561 
L 160.714996 275.201561 
L 160.714996 274.726712 
L 165.755007 274.726712 
L 165.755007 274.251863 
L 165.957604 274.251863 
L 165.957604 273.777015 
L 167.229371 273.777015 
L 167.229371 273.302166 
L 169.745458 273.302166 
L 169.745458 272.827317 
L 171.511058 272.827317 
L 171.511058 272.352468 
L 175.431409 272.352468 
L 175.431409 271.87762 
L 177.213919 271.87762 
L 177.213919 271.402771 
L 180.760594 271.402771 
L 180.857477 269.978224 
L 183.789475 269.978224 
L 183.862832 269.028527 
L 184.090247 269.028527 
L 184.090247 268.553678 
L 184.211918 268.553678 
L 184.211918 268.078829 
L 187.203908 268.078829 
L 187.203908 267.60398 
L 188.470584 267.60398 
L 188.470584 267.129132 
L 190.899954 267.129132 
L 190.899954 266.654283 
L 196.643995 266.654283 
L 196.750392 260.956098 
L 196.842426 260.956098 
L 196.906582 256.682459 
L 196.97052 256.682459 
L 197.038785 254.308215 
L 197.210623 254.308215 
L 197.210623 253.833366 
L 197.55408 253.833366 
L 197.55408 253.358517 
L 198.003919 253.358517 
L 198.003919 252.883668 
L 199.154768 252.883668 
L 199.154768 252.40882 
L 201.980204 252.40882 
L 202.001152 250.984273 
L 202.112484 250.984273 
L 202.112484 250.509424 
L 202.476635 250.509424 
L 202.476635 250.034576 
L 203.341074 250.034576 
L 203.448004 241.012449 
L 203.467381 241.012449 
L 203.531826 237.213659 
L 203.583224 237.213659 
L 203.62168 236.263961 
L 203.711107 236.263961 
L 203.819129 233.889717 
L 203.822296 233.889717 
L 203.910777 228.191532 
L 203.94857 228.191532 
L 204.030196 223.917893 
L 204.155086 223.917893 
L 204.18618 222.493346 
L 204.276061 222.493346 
L 204.276061 222.018498 
L 204.457609 222.018498 
L 204.558393 221.0688 
L 204.908442 221.0688 
L 204.908442 220.593951 
L 205.540501 220.593951 
L 205.624153 219.644254 
L 206.065058 219.644254 
L 206.065058 219.169405 
L 206.177182 219.169405 
L 206.177182 218.694556 
L 210.824977 218.694556 
L 210.824977 218.219707 
L 211.731617 218.219707 
L 211.731617 217.744859 
L 214.131535 217.744859 
L 214.131535 217.27001 
L 214.751995 217.27001 
L 214.828022 216.320312 
L 216.838493 216.320312 
L 216.94128 211.096976 
L 216.950739 211.096976 
L 217.060753 203.024546 
L 217.524323 203.024546 
L 217.524323 202.549698 
L 222.817782 202.549698 
L 222.921348 192.103024 
L 222.956889 192.103024 
L 223.04602 190.678478 
L 223.112023 190.678478 
L 223.217375 189.72878 
L 223.359736 189.72878 
L 223.389983 188.779083 
L 224.729141 188.779083 
L 224.729141 188.304234 
L 229.020403 188.304234 
L 229.020403 187.829385 
L 231.196397 187.829385 
L 231.305475 184.030595 
L 231.312455 184.030595 
L 231.423056 181.656351 
L 231.555504 181.656351 
L 231.58304 180.706654 
L 231.688826 180.706654 
L 231.688826 180.231805 
L 231.860851 180.231805 
L 231.928868 178.33241 
L 233.7547 178.33241 
L 233.864382 172.634224 
L 233.874962 172.634224 
L 233.961626 171.209678 
L 234.005922 171.209678 
L 234.111621 170.25998 
L 234.340023 170.25998 
L 234.378135 167.410888 
L 234.587611 167.410888 
L 234.611051 166.46119 
L 234.842032 166.46119 
L 234.949203 162.187551 
L 234.962217 162.187551 
L 235.02745 160.288156 
L 235.096963 160.288156 
L 235.17041 157.439063 
L 235.213744 157.439063 
L 235.270078 154.115122 
L 235.359745 154.115122 
L 235.417416 152.215727 
L 235.479915 152.215727 
L 235.515787 149.841483 
L 235.910825 149.841483 
L 235.910825 149.366634 
L 238.276857 149.366634 
L 238.383344 147.942088 
L 238.391918 147.942088 
L 238.502018 145.092995 
L 238.616212 145.092995 
L 238.714854 143.1936 
L 238.734668 143.1936 
L 238.734668 142.243902 
L 240.406155 142.243902 
L 240.494061 139.869659 
L 240.562474 139.869659 
L 240.581783 138.919961 
L 240.766455 138.919961 
L 240.872374 137.020566 
L 240.913428 137.020566 
L 240.913428 136.545717 
L 244.130874 136.545717 
L 244.197096 134.171473 
L 244.25681 134.171473 
L 244.35824 132.746927 
L 244.404997 132.746927 
L 244.497617 130.847532 
L 244.555296 130.847532 
L 244.555296 130.372683 
L 244.696471 130.372683 
L 244.77726 129.422985 
L 245.44606 129.422985 
L 245.44606 128.948137 
L 245.616651 128.948137 
L 245.717517 126.099044 
L 245.75369 126.099044 
L 245.804079 124.199649 
L 245.906822 124.199649 
L 245.906822 123.7248 
L 246.100266 123.7248 
L 246.16592 120.400859 
L 246.218545 120.400859 
L 246.329473 118.501463 
L 246.331953 118.501463 
L 246.422321 115.652371 
L 246.489814 115.652371 
L 246.594758 112.328429 
L 248.048979 112.328429 
L 248.094039 110.903883 
L 248.271417 110.903883 
L 248.340328 108.529639 
L 248.423932 108.529639 
L 248.423932 108.05479 
L 249.388128 108.05479 
L 249.492522 105.680546 
L 249.547358 105.680546 
L 249.55878 104.730849 
L 249.660571 104.730849 
L 249.72003 103.781151 
L 249.779989 103.781151 
L 249.779989 103.306302 
L 251.792648 103.306302 
L 251.890697 102.356605 
L 251.932229 102.356605 
L 252.008541 101.406907 
L 252.067005 101.406907 
L 252.067005 100.932059 
L 252.18775 100.932059 
L 252.211588 99.507512 
L 252.345825 99.507512 
L 252.345825 99.032663 
L 252.673629 99.032663 
L 252.673629 98.557815 
L 252.78551 98.557815 
L 252.854472 97.608117 
L 252.954711 97.608117 
L 252.954711 97.133268 
L 253.160731 97.133268 
L 253.270104 95.233873 
L 253.284045 95.233873 
L 253.344831 93.809327 
L 253.413818 93.809327 
L 253.468645 92.38478 
L 254.491067 92.38478 
L 254.597893 90.485385 
L 254.826168 90.485385 
L 254.826168 90.010537 
L 255.359157 90.010537 
L 255.459653 87.636293 
L 255.490358 87.636293 
L 255.592279 85.736898 
L 255.631138 85.736898 
L 255.723273 84.312351 
L 257.19818 84.312351 
L 257.240528 83.362654 
L 257.336088 83.362654 
L 257.336088 82.887805 
L 257.451678 82.887805 
L 257.451678 82.412956 
L 257.570019 82.412956 
L 257.570019 81.938107 
L 257.992904 81.938107 
L 257.992904 81.463259 
L 258.185875 81.463259 
L 258.185875 80.98841 
L 258.299175 80.98841 
L 258.353259 78.139317 
L 258.560026 78.139317 
L 258.564513 77.18962 
L 259.587499 77.18962 
L 259.587499 76.714771 
L 260.112976 76.714771 
L 260.198355 75.765073 
L 260.250328 75.765073 
L 260.311202 74.815376 
L 261.39888 74.815376 
L 261.495174 73.390829 
L 261.611827 73.390829 
L 261.611827 72.91598 
L 262.097665 72.91598 
L 262.199703 71.966283 
L 262.279677 71.966283 
L 262.374888 68.167493 
L 262.445421 68.167493 
L 262.445421 67.692644 
L 262.641835 67.692644 
L 262.641835 67.217795 
L 262.941794 67.217795 
L 262.941794 66.742946 
L 263.700879 66.742946 
L 263.733155 65.793249 
L 263.815235 65.793249 
L 263.815235 65.3184 
L 264.007873 65.3184 
L 264.007873 64.843551 
L 264.833615 64.843551 
L 264.939034 62.469307 
L 265.157232 62.469307 
L 265.262489 61.51961 
L 265.559194 61.51961 
L 265.614432 60.569912 
L 265.777648 60.569912 
L 265.777648 60.095063 
L 266.297843 60.095063 
L 266.341316 59.145366 
L 266.759337 59.145366 
L 266.836136 57.72082 
L 266.953153 57.72082 
L 266.953153 57.245971 
L 267.673942 57.245971 
L 267.712972 56.296273 
L 267.798238 56.296273 
L 267.798238 55.821424 
L 268.264047 55.821424 
L 268.311536 54.871727 
L 268.453543 54.871727 
L 268.453543 54.396878 
L 270.302275 54.396878 
L 270.371808 52.972332 
L 270.78122 52.972332 
L 270.78122 52.497483 
L 271.050523 52.497483 
L 271.050523 52.022634 
L 271.504516 52.022634 
L 271.504516 51.547785 
L 272.55529 51.547785 
L 272.608199 50.598088 
L 272.821146 50.598088 
L 272.821146 50.123239 
L 272.982707 50.123239 
L 273.093581 48.223844 
L 273.476534 48.223844 
L 273.476534 47.748995 
L 274.821545 47.748995 
L 274.821545 47.274146 
L 275.436559 47.274146 
L 275.436559 46.799298 
L 276.647246 46.799298 
L 276.713015 45.8496 
L 276.77328 45.8496 
L 276.77328 45.374751 
L 277.040458 45.374751 
L 277.040458 44.899902 
L 278.229071 44.899902 
L 278.317851 43.950205 
L 279.516117 43.950205 
L 279.516117 43.475356 
L 281.067482 43.475356 
L 281.067482 43.000507 
L 282.244232 43.000507 
L 282.244232 42.525659 
L 284.83109 42.525659 
L 284.83109 42.05081 
L 285.52279 42.05081 
L 285.52279 41.575961 
L 286.841272 41.575961 
L 286.841272 41.101112 
L 287.798925 41.101112 
L 287.798925 40.626263 
L 288.632966 40.626263 
L 288.632966 40.151415 
L 291.153595 40.151415 
L 291.153595 39.676566 
L 292.703694 39.676566 
L 292.703694 39.201717 
L 293.339886 39.201717 
L 293.339886 38.726868 
L 293.994178 38.726868 
L 293.994178 38.25202 
L 295.892047 38.25202 
L 295.892047 37.777171 
L 297.647885 37.777171 
L 297.647885 37.302322 
L 298.141368 37.302322 
L 298.141368 36.827473 
L 300.563447 36.827473 
L 300.563447 36.352624 
L 301.125709 36.352624 
L 301.125709 35.877776 
L 304.109912 35.877776 
L 304.109912 35.402927 
L 360.8064 35.402927 
L 360.8064 35.402927 
" style="fill:none;stroke:#000080;stroke-linecap:square;stroke-width:1.5;"/>
   </g>
   <g id="line2d_31">
    <defs>
     <path d="M 0 6 
C 1.591219 6 3.117479 5.367802 4.242641 4.242641 
C 5.367802 3.117479 6 1.591219 6 0 
C 6 -1.591219 5.367802 -3.117479 4.242641 -4.242641 
C 3.117479 -5.367802 1.591219 -6 0 -6 
C -1.591219 -6 -3.117479 -5.367802 -4.242641 -4.242641 
C -5.367802 -3.117479 -6 -1.591219 -6 0 
C -6 1.591219 -5.367802 3.117479 -4.242641 4.242641 
C -3.117479 5.367802 -1.591219 6 0 6 
z
" id="ma5b26f6941" style="stroke:#000080;stroke-width:1.5;"/>
    </defs>
    <g>
     <use style="fill-opacity:0;stroke:#000080;stroke-width:1.5;" x="229.020403" xlink:href="#ma5b26f6941" y="188.304234"/>
     <use style="fill-opacity:0;stroke:#000080;stroke-width:1.5;" x="260.311202" xlink:href="#ma5b26f6941" y="74.815376"/>
     <use style="fill-opacity:0;stroke:#000080;stroke-width:1.5;" x="304.109912" xlink:href="#ma5b26f6941" y="35.402927"/>
     <use style="fill-opacity:0;stroke:#000080;stroke-width:1.5;" x="304.109912" xlink:href="#ma5b26f6941" y="35.402927"/>
     <use style="fill-opacity:0;stroke:#000080;stroke-width:1.5;" x="360.8064" xlink:href="#ma5b26f6941" y="35.402927"/>
    </g>
   </g>
   <g id="line2d_32">
    <path style="fill:none;stroke:#000080;stroke-linecap:square;stroke-width:1.5;"/>
    <g/>
   </g>
   <g id="line2d_33">
    <path clip-path="url(#p79d66d959f)" d="M 231.031584 187.829385 
" style="fill:none;stroke:#000080;stroke-linecap:square;stroke-width:1.5;"/>
    <defs>
     <path d="M -12 12 
L 12 -12 
M -12 -12 
L 12 12 
" id="m15f11a46d4" style="stroke:#000080;"/>
    </defs>
    <g clip-path="url(#p79d66d959f)">
     <use style="fill:#000080;stroke:#000080;" x="231.031584" xlink:href="#m15f11a46d4" y="187.829385"/>
    </g>
   </g>
   <g id="line2d_34">
    <defs>
     <path d="M 0 1.5 
C 0.397805 1.5 0.77937 1.341951 1.06066 1.06066 
C 1.341951 0.77937 1.5 0.397805 1.5 0 
C 1.5 -0.397805 1.341951 -0.77937 1.06066 -1.06066 
C 0.77937 -1.341951 0.397805 -1.5 0 -1.5 
C -0.397805 -1.5 -0.77937 -1.341951 -1.06066 -1.06066 
C -1.341951 -0.77937 -1.5 -0.397805 -1.5 0 
C -1.5 0.397805 -1.341951 0.77937 -1.06066 1.06066 
C -0.77937 1.341951 -0.397805 1.5 0 1.5 
z
" id="maf4eee35d9" style="stroke:#ff00ff;"/>
    </defs>
    <g>
     <use style="fill:#ff00ff;stroke:#ff00ff;" x="309.242918" xlink:href="#maf4eee35d9" y="21.157463"/>
     <use style="fill:#ff00ff;stroke:#ff00ff;" x="309.242918" xlink:href="#maf4eee35d9" y="21.157463"/>
    </g>
   </g>
   <g id="line2d_35">
    <path d="M 104.961779 298.944 
L 104.961779 298.469151 
L 108.29012 298.469151 
L 108.29012 297.994302 
L 108.791791 297.994302 
L 108.791791 297.519454 
L 110.674517 297.519454 
L 110.674517 296.569756 
L 111.54963 296.569756 
L 111.54963 296.094907 
L 113.186449 296.094907 
L 113.186449 295.620059 
L 153.328795 295.620059 
L 153.328795 295.14521 
L 156.482044 295.14521 
L 156.482044 294.670361 
L 157.586683 294.670361 
L 157.586683 294.195512 
L 163.971658 294.195512 
L 163.997986 293.245815 
L 164.897003 293.245815 
L 164.9471 292.296117 
L 165.610672 292.296117 
L 165.610672 291.821268 
L 167.295726 291.821268 
L 167.295726 291.34642 
L 174.663783 291.34642 
L 174.663783 290.871571 
L 174.782796 290.871571 
L 174.782796 290.396722 
L 177.427726 290.396722 
L 177.453477 288.497327 
L 177.607251 288.497327 
L 177.607251 288.022478 
L 177.86078 288.022478 
L 177.86078 287.547629 
L 178.228607 287.547629 
L 178.228607 287.07278 
L 178.443458 287.07278 
L 178.443458 286.597932 
L 180.548951 286.597932 
L 180.548951 286.123083 
L 180.792944 286.123083 
L 180.857477 285.173385 
L 180.943179 285.173385 
L 180.943179 284.698537 
L 182.213946 284.698537 
L 182.213946 283.748839 
L 182.442328 283.748839 
L 182.442328 283.27399 
L 182.765239 283.27399 
L 182.765239 282.324293 
L 183.120819 282.324293 
L 183.120819 281.849444 
L 183.79866 281.849444 
L 183.871982 280.899746 
L 183.935905 280.899746 
L 183.935905 280.424898 
L 192.003328 280.424898 
L 192.003328 279.950049 
L 192.859271 279.950049 
L 192.961108 279.000351 
L 196.105174 279.000351 
L 196.105174 278.525502 
L 196.398851 278.525502 
L 196.455166 277.575805 
L 201.4757 277.575805 
L 201.4757 277.100956 
L 201.593742 277.100956 
L 201.593742 276.626107 
L 206.145015 276.626107 
L 206.145015 276.151259 
L 207.534201 276.151259 
L 207.64051 268.078829 
L 207.653434 268.078829 
L 207.733363 265.704585 
L 207.771916 265.704585 
L 207.876894 264.754888 
L 207.938074 264.754888 
L 208.009201 263.80519 
L 208.069952 263.80519 
L 208.168258 262.855493 
L 208.283551 262.855493 
L 208.283551 262.380644 
L 208.425441 262.380644 
L 208.425441 261.905795 
L 208.684049 261.905795 
L 208.684049 261.430946 
L 208.963265 261.430946 
L 208.963265 260.956098 
L 209.516586 260.956098 
L 209.516586 260.481249 
L 217.675837 260.481249 
L 217.675837 260.0064 
L 218.588347 260.0064 
L 218.6302 258.107005 
L 223.190244 258.107005 
L 223.190244 257.632156 
L 224.354861 257.632156 
L 224.437622 248.13518 
L 224.478866 248.13518 
L 224.549511 247.185483 
L 224.591561 247.185483 
L 224.65132 245.760937 
L 224.785868 245.760937 
L 224.785868 245.286088 
L 224.968927 245.286088 
L 224.968927 244.811239 
L 225.192987 244.811239 
L 225.192987 244.33639 
L 227.769454 244.33639 
L 227.788954 243.386693 
L 230.997999 243.386693 
L 231.102289 241.487298 
L 231.146808 241.487298 
L 231.233318 240.5376 
L 231.369301 240.5376 
L 231.369301 240.062751 
L 231.491943 240.062751 
L 231.491943 239.587902 
L 232.065226 239.587902 
L 232.14657 238.638205 
L 232.213213 238.638205 
L 232.315871 237.688507 
L 232.410351 237.688507 
L 232.410351 237.213659 
L 234.526715 237.213659 
L 234.526715 236.73881 
L 235.667924 236.73881 
L 235.758908 232.94002 
L 235.815081 232.94002 
L 235.92434 230.090927 
L 235.940717 230.090927 
L 236.041539 227.241834 
L 236.064948 227.241834 
L 236.164257 225.342439 
L 236.188365 225.342439 
L 236.195733 224.392741 
L 236.344738 224.392741 
L 236.344738 223.917893 
L 238.773742 223.917893 
L 238.812734 222.018498 
L 240.941629 222.018498 
L 241.036057 214.895766 
L 241.062106 214.895766 
L 241.165724 211.571824 
L 241.189856 211.571824 
L 241.252758 210.622127 
L 241.321492 210.622127 
L 241.390836 209.672429 
L 241.479833 209.672429 
L 241.479833 209.19758 
L 242.455754 209.19758 
L 242.455754 208.722732 
L 244.116933 208.722732 
L 244.116933 208.247883 
L 244.256441 208.247883 
L 244.276918 207.298185 
L 244.716476 207.298185 
L 244.811701 206.348488 
L 246.45618 206.348488 
L 246.552981 202.074849 
L 246.580081 202.074849 
L 246.689066 198.750907 
L 246.691336 198.750907 
L 246.783065 197.326361 
L 248.278275 197.326361 
L 248.278275 196.851512 
L 249.637151 196.851512 
L 249.743623 192.577873 
L 249.748862 192.577873 
L 249.854705 187.829385 
L 249.91492 187.829385 
L 249.9906 186.879688 
L 250.577671 186.879688 
L 250.628912 185.455141 
L 251.695576 185.455141 
L 251.797099 183.555746 
L 251.821808 183.555746 
L 251.898691 182.606049 
L 253.304253 182.606049 
L 253.413932 175.958166 
L 253.42017 175.958166 
L 253.488656 171.684527 
L 253.572198 171.684527 
L 253.600076 170.734829 
L 254.750349 170.734829 
L 254.750349 170.25998 
L 255.546958 170.25998 
L 255.65643 165.511493 
L 255.65945 165.511493 
L 255.752749 160.288156 
L 255.805471 160.288156 
L 255.812962 158.86361 
L 257.070184 158.86361 
L 257.135361 156.964215 
L 257.193448 156.964215 
L 257.304473 156.014517 
L 258.319551 156.014517 
L 258.403359 154.115122 
L 258.431617 154.115122 
L 258.506016 150.316332 
L 258.551827 150.316332 
L 258.555021 149.366634 
L 260.128146 149.366634 
L 260.184904 146.517541 
L 260.248435 146.517541 
L 260.349452 145.567844 
L 261.299778 145.567844 
L 261.410749 142.718751 
L 261.467765 142.718751 
L 261.467765 142.243902 
L 262.311939 142.243902 
L 262.388833 139.39481 
L 262.462679 139.39481 
L 262.545036 137.970263 
L 263.536145 137.970263 
L 263.536145 137.495415 
L 263.696019 137.495415 
L 263.790028 134.646322 
L 263.810079 134.646322 
L 263.847446 131.32238 
L 264.721198 131.32238 
L 264.809923 129.897834 
L 264.848199 129.897834 
L 264.848199 129.422985 
L 265.519955 129.422985 
L 265.610932 124.674498 
L 265.636363 124.674498 
L 265.717109 121.825405 
L 266.76659 121.825405 
L 266.87256 113.278127 
L 266.882154 113.278127 
L 266.915003 112.328429 
L 267.19697 112.328429 
L 267.19697 111.85358 
L 267.563048 111.85358 
L 267.630143 110.429034 
L 267.71939 110.429034 
L 267.71939 109.954185 
L 268.321245 109.954185 
L 268.41924 105.205698 
L 268.466034 105.205698 
L 268.466034 104.730849 
L 268.919869 104.730849 
L 268.919869 104.256 
L 269.363499 104.256 
L 269.471305 99.032663 
L 269.597991 99.032663 
L 269.597991 98.557815 
L 270.268777 98.557815 
L 270.321864 97.608117 
L 270.734702 97.608117 
L 270.822409 93.809327 
L 270.861668 93.809327 
L 270.903038 92.859629 
L 271.676447 92.859629 
L 271.78694 89.060839 
L 271.788819 89.060839 
L 271.812681 88.111141 
L 272.360687 88.111141 
L 272.373859 87.161444 
L 272.958117 87.161444 
L 273.027951 84.7872 
L 273.746751 84.7872 
L 273.85066 82.412956 
L 274.329626 82.412956 
L 274.329626 81.938107 
L 274.820745 81.938107 
L 274.931773 80.98841 
L 274.937953 80.98841 
L 274.955684 79.563863 
L 275.567028 79.563863 
L 275.60239 78.614166 
L 275.693023 78.614166 
L 275.693023 78.139317 
L 276.134055 78.139317 
L 276.18731 77.18962 
L 276.59422 77.18962 
L 276.662515 74.340527 
L 277.261537 74.340527 
L 277.271177 73.390829 
L 277.74877 73.390829 
L 277.796564 70.541737 
L 278.182851 70.541737 
L 278.273937 68.167493 
L 278.814912 68.167493 
L 278.915078 64.843551 
L 279.298718 64.843551 
L 279.35071 63.893854 
L 279.697034 63.893854 
L 279.752583 61.044761 
L 280.270027 61.044761 
L 280.360616 57.72082 
L 280.680556 57.72082 
L 280.710778 56.296273 
L 281.040675 56.296273 
L 281.040675 55.821424 
L 281.616291 55.821424 
L 281.724253 54.396878 
L 281.968395 54.396878 
L 281.986809 53.44718 
L 282.307364 53.44718 
L 282.396137 50.598088 
L 282.803884 50.598088 
L 282.869529 49.173541 
L 283.174948 49.173541 
L 283.262399 48.223844 
L 283.962193 48.223844 
L 283.984185 47.274146 
L 284.2996 47.274146 
L 284.344969 44.899902 
L 284.600541 44.899902 
L 284.63598 43.475356 
L 285.015382 43.475356 
L 285.098341 42.05081 
L 285.152766 42.05081 
L 285.152766 41.575961 
L 285.354519 41.575961 
L 285.354519 41.101112 
L 285.705474 41.101112 
L 285.705474 40.626263 
L 286.09945 40.626263 
L 286.13931 39.676566 
L 286.666493 39.676566 
L 286.666493 39.201717 
L 288.270744 39.201717 
L 288.293726 37.777171 
L 288.543465 37.777171 
L 288.543465 37.302322 
L 289.428699 37.302322 
L 289.428699 36.827473 
L 289.990263 36.827473 
L 290.052149 35.877776 
L 290.214763 35.877776 
L 290.285905 34.453229 
L 290.830027 34.453229 
L 290.830027 33.97838 
L 291.055505 33.97838 
L 291.055505 33.503532 
L 291.370108 33.503532 
L 291.397088 32.553834 
L 291.566522 32.553834 
L 291.567537 31.604137 
L 291.779127 31.604137 
L 291.873055 30.17959 
L 292.335857 30.17959 
L 292.335857 29.704741 
L 292.522945 29.704741 
L 292.522945 29.229893 
L 293.757885 29.229893 
L 293.757885 28.755044 
L 294.37697 28.755044 
L 294.37697 28.280195 
L 294.841511 28.280195 
L 294.841511 27.805346 
L 295.464794 27.805346 
L 295.464794 27.330498 
L 295.623261 27.330498 
L 295.623261 26.855649 
L 295.751115 26.855649 
L 295.751115 26.3808 
L 296.826554 26.3808 
L 296.826554 25.905951 
L 297.195367 25.905951 
L 297.195367 25.431102 
L 297.362438 25.431102 
L 297.362438 24.956254 
L 299.119112 24.956254 
L 299.119112 24.481405 
L 299.957142 24.481405 
L 299.957142 24.006556 
L 300.407583 24.006556 
L 300.407583 23.531707 
L 300.891312 23.531707 
L 300.891312 23.056859 
L 302.629717 23.056859 
L 302.629717 22.58201 
L 305.020458 22.58201 
L 305.020458 22.107161 
L 308.660685 22.107161 
L 308.660685 21.632312 
L 309.242918 21.632312 
L 309.242918 21.157463 
L 360.8064 21.157463 
L 360.8064 21.157463 
" style="fill:none;stroke:#ff00ff;stroke-linecap:square;stroke-width:1.5;"/>
   </g>
   <g id="line2d_36">
    <defs>
     <path d="M -0 8.485281 
L 5.091169 0 
L 0 -8.485281 
L -5.091169 -0 
z
" id="me1b3463811" style="stroke:#ff00ff;stroke-linejoin:miter;stroke-width:1.5;"/>
    </defs>
    <g>
     <use style="fill-opacity:0;stroke:#ff00ff;stroke-linejoin:miter;stroke-width:1.5;" x="196.455166" xlink:href="#me1b3463811" y="277.575805"/>
     <use style="fill-opacity:0;stroke:#ff00ff;stroke-linejoin:miter;stroke-width:1.5;" x="262.311939" xlink:href="#me1b3463811" y="142.243902"/>
     <use style="fill-opacity:0;stroke:#ff00ff;stroke-linejoin:miter;stroke-width:1.5;" x="309.242918" xlink:href="#me1b3463811" y="21.157463"/>
     <use style="fill-opacity:0;stroke:#ff00ff;stroke-linejoin:miter;stroke-width:1.5;" x="309.242918" xlink:href="#me1b3463811" y="21.157463"/>
     <use style="fill-opacity:0;stroke:#ff00ff;stroke-linejoin:miter;stroke-width:1.5;" x="360.8064" xlink:href="#me1b3463811" y="21.157463"/>
    </g>
   </g>
   <g id="line2d_37">
    <path style="fill:none;stroke:#ff00ff;stroke-linecap:square;stroke-width:1.5;"/>
    <g/>
   </g>
   <g id="line2d_38">
    <path clip-path="url(#p79d66d959f)" d="M 230.984548 243.386693 
" style="fill:none;stroke:#ff00ff;stroke-linecap:square;stroke-width:1.5;"/>
    <defs>
     <path d="M -12 12 
L 12 -12 
M -12 -12 
L 12 12 
" id="md17f4c2f02" style="stroke:#ff00ff;"/>
    </defs>
    <g clip-path="url(#p79d66d959f)">
     <use style="fill:#ff00ff;stroke:#ff00ff;" x="230.984548" xlink:href="#md17f4c2f02" y="243.386693"/>
    </g>
   </g>
   <g id="line2d_39">
    <path d="M 360.8064 35.402927 
L 380.514816 293.10336 
" style="fill:none;stroke:#000080;stroke-linecap:square;stroke-width:1.5;"/>
    <g>
     <use style="fill-opacity:0;stroke:#000080;stroke-width:1.5;" x="360.8064" xlink:href="#ma5b26f6941" y="35.402927"/>
     <use style="fill-opacity:0;stroke:#000080;stroke-width:1.5;" x="380.514816" xlink:href="#ma5b26f6941" y="293.10336"/>
    </g>
   </g>
   <g id="line2d_40">
    <path d="M 360.8064 21.157463 
L 380.514816 12.75264 
" style="fill:none;stroke:#ff00ff;stroke-linecap:square;stroke-width:1.5;"/>
    <g>
     <use style="fill-opacity:0;stroke:#ff00ff;stroke-linejoin:miter;stroke-width:1.5;" x="360.8064" xlink:href="#me1b3463811" y="21.157463"/>
     <use style="fill-opacity:0;stroke:#ff00ff;stroke-linejoin:miter;stroke-width:1.5;" x="380.514816" xlink:href="#me1b3463811" y="12.75264"/>
    </g>
   </g>
   <g id="line2d_41">
    <path d="M 360.8064 298.944 
L 360.8064 6.912 
" style="fill:none;stroke:#000000;stroke-linecap:square;stroke-width:1.5;"/>
   </g>
   <g id="patch_3">
    <path d="M 57.6 298.944 
L 360.8064 298.944 
" style="fill:none;stroke:#000000;stroke-linecap:square;stroke-linejoin:miter;stroke-width:0.8;"/>
   </g>
   <g id="patch_4">
    <path d="M 57.6 6.912 
L 360.8064 6.912 
" style="fill:none;stroke:#000000;stroke-linecap:square;stroke-linejoin:miter;stroke-width:0.8;"/>
   </g>
   <g id="text_13">
    <!-- f43 -->
    <g transform="translate(386.578944 296.966485)scale(0.14 -0.14)">
     <defs>
      <path d="M 40.578125 39.3125 
Q 47.65625 37.796875 51.625 33 
Q 55.609375 28.21875 55.609375 21.1875 
Q 55.609375 10.40625 48.1875 4.484375 
Q 40.765625 -1.421875 27.09375 -1.421875 
Q 22.515625 -1.421875 17.65625 -0.515625 
Q 12.796875 0.390625 7.625 2.203125 
L 7.625 11.71875 
Q 11.71875 9.328125 16.59375 8.109375 
Q 21.484375 6.890625 26.8125 6.890625 
Q 36.078125 6.890625 40.9375 10.546875 
Q 45.796875 14.203125 45.796875 21.1875 
Q 45.796875 27.640625 41.28125 31.265625 
Q 36.765625 34.90625 28.71875 34.90625 
L 20.21875 34.90625 
L 20.21875 43.015625 
L 29.109375 43.015625 
Q 36.375 43.015625 40.234375 45.921875 
Q 44.09375 48.828125 44.09375 54.296875 
Q 44.09375 59.90625 40.109375 62.90625 
Q 36.140625 65.921875 28.71875 65.921875 
Q 24.65625 65.921875 20.015625 65.03125 
Q 15.375 64.15625 9.8125 62.3125 
L 9.8125 71.09375 
Q 15.4375 72.65625 20.34375 73.4375 
Q 25.25 74.21875 29.59375 74.21875 
Q 40.828125 74.21875 47.359375 69.109375 
Q 53.90625 64.015625 53.90625 55.328125 
Q 53.90625 49.265625 50.4375 45.09375 
Q 46.96875 40.921875 40.578125 39.3125 
z
" id="DejaVuSans-51"/>
     </defs>
     <use xlink:href="#DejaVuSans-102"/>
     <use x="35.205078" xlink:href="#DejaVuSans-52"/>
     <use x="98.828125" xlink:href="#DejaVuSans-51"/>
    </g>
   </g>
   <g id="text_14">
    <!-- f49 -->
    <g transform="translate(386.578944 16.615765)scale(0.14 -0.14)">
     <defs>
      <path d="M 10.984375 1.515625 
L 10.984375 10.5 
Q 14.703125 8.734375 18.5 7.8125 
Q 22.3125 6.890625 25.984375 6.890625 
Q 35.75 6.890625 40.890625 13.453125 
Q 46.046875 20.015625 46.78125 33.40625 
Q 43.953125 29.203125 39.59375 26.953125 
Q 35.25 24.703125 29.984375 24.703125 
Q 19.046875 24.703125 12.671875 31.3125 
Q 6.296875 37.9375 6.296875 49.421875 
Q 6.296875 60.640625 12.9375 67.421875 
Q 19.578125 74.21875 30.609375 74.21875 
Q 43.265625 74.21875 49.921875 64.515625 
Q 56.59375 54.828125 56.59375 36.375 
Q 56.59375 19.140625 48.40625 8.859375 
Q 40.234375 -1.421875 26.421875 -1.421875 
Q 22.703125 -1.421875 18.890625 -0.6875 
Q 15.09375 0.046875 10.984375 1.515625 
z
M 30.609375 32.421875 
Q 37.25 32.421875 41.125 36.953125 
Q 45.015625 41.5 45.015625 49.421875 
Q 45.015625 57.28125 41.125 61.84375 
Q 37.25 66.40625 30.609375 66.40625 
Q 23.96875 66.40625 20.09375 61.84375 
Q 16.21875 57.28125 16.21875 49.421875 
Q 16.21875 41.5 20.09375 36.953125 
Q 23.96875 32.421875 30.609375 32.421875 
z
" id="DejaVuSans-57"/>
     </defs>
     <use xlink:href="#DejaVuSans-102"/>
     <use x="35.205078" xlink:href="#DejaVuSans-52"/>
     <use x="98.828125" xlink:href="#DejaVuSans-57"/>
    </g>
   </g>
   <g id="text_15">
    <!-- bbob-constrained -->
    <g transform="translate(60.632064 17.582726)scale(0.102 -0.102)">
     <defs>
      <path d="M 48.6875 27.296875 
Q 48.6875 37.203125 44.609375 42.84375 
Q 40.53125 48.484375 33.40625 48.484375 
Q 26.265625 48.484375 22.1875 42.84375 
Q 18.109375 37.203125 18.109375 27.296875 
Q 18.109375 17.390625 22.1875 11.75 
Q 26.265625 6.109375 33.40625 6.109375 
Q 40.53125 6.109375 44.609375 11.75 
Q 48.6875 17.390625 48.6875 27.296875 
z
M 18.109375 46.390625 
Q 20.953125 51.265625 25.265625 53.625 
Q 29.59375 56 35.59375 56 
Q 45.5625 56 51.78125 48.09375 
Q 58.015625 40.1875 58.015625 27.296875 
Q 58.015625 14.40625 51.78125 6.484375 
Q 45.5625 -1.421875 35.59375 -1.421875 
Q 29.59375 -1.421875 25.265625 0.953125 
Q 20.953125 3.328125 18.109375 8.203125 
L 18.109375 0 
L 9.078125 0 
L 9.078125 75.984375 
L 18.109375 75.984375 
z
" id="DejaVuSans-98"/>
      <path d="M 4.890625 31.390625 
L 31.203125 31.390625 
L 31.203125 23.390625 
L 4.890625 23.390625 
z
" id="DejaVuSans-45"/>
     </defs>
     <use xlink:href="#DejaVuSans-98"/>
     <use x="63.476562" xlink:href="#DejaVuSans-98"/>
     <use x="126.953125" xlink:href="#DejaVuSans-111"/>
     <use x="188.134766" xlink:href="#DejaVuSans-98"/>
     <use x="251.611328" xlink:href="#DejaVuSans-45"/>
     <use x="287.695312" xlink:href="#DejaVuSans-99"/>
     <use x="342.675781" xlink:href="#DejaVuSans-111"/>
     <use x="403.857422" xlink:href="#DejaVuSans-110"/>
     <use x="467.236328" xlink:href="#DejaVuSans-115"/>
     <use x="519.335938" xlink:href="#DejaVuSans-116"/>
     <use x="558.544922" xlink:href="#DejaVuSans-114"/>
     <use x="599.658203" xlink:href="#DejaVuSans-97"/>
     <use x="660.9375" xlink:href="#DejaVuSans-105"/>
     <use x="688.720703" xlink:href="#DejaVuSans-110"/>
     <use x="752.099609" xlink:href="#DejaVuSans-101"/>
     <use x="813.623047" xlink:href="#DejaVuSans-100"/>
    </g>
    <!-- Multi-modal functions with 0n+1 constraints, 5-D -->
    <g transform="translate(60.632064 29.004495)scale(0.102 -0.102)">
     <defs>
      <path d="M 9.8125 72.90625 
L 24.515625 72.90625 
L 43.109375 23.296875 
L 61.8125 72.90625 
L 76.515625 72.90625 
L 76.515625 0 
L 66.890625 0 
L 66.890625 64.015625 
L 48.09375 14.015625 
L 38.1875 14.015625 
L 19.390625 64.015625 
L 19.390625 0 
L 9.8125 0 
z
" id="DejaVuSans-77"/>
      <path d="M 4.203125 54.6875 
L 13.1875 54.6875 
L 24.421875 12.015625 
L 35.59375 54.6875 
L 46.1875 54.6875 
L 57.421875 12.015625 
L 68.609375 54.6875 
L 77.59375 54.6875 
L 63.28125 0 
L 52.6875 0 
L 40.921875 44.828125 
L 29.109375 0 
L 18.5 0 
z
" id="DejaVuSans-119"/>
      <path d="M 54.890625 33.015625 
L 54.890625 0 
L 45.90625 0 
L 45.90625 32.71875 
Q 45.90625 40.484375 42.875 44.328125 
Q 39.84375 48.1875 33.796875 48.1875 
Q 26.515625 48.1875 22.3125 43.546875 
Q 18.109375 38.921875 18.109375 30.90625 
L 18.109375 0 
L 9.078125 0 
L 9.078125 75.984375 
L 18.109375 75.984375 
L 18.109375 46.1875 
Q 21.34375 51.125 25.703125 53.5625 
Q 30.078125 56 35.796875 56 
Q 45.21875 56 50.046875 50.171875 
Q 54.890625 44.34375 54.890625 33.015625 
z
" id="DejaVuSans-104"/>
      <path d="M 46 62.703125 
L 46 35.5 
L 73.1875 35.5 
L 73.1875 27.203125 
L 46 27.203125 
L 46 0 
L 37.796875 0 
L 37.796875 27.203125 
L 10.59375 27.203125 
L 10.59375 35.5 
L 37.796875 35.5 
L 37.796875 62.703125 
z
" id="DejaVuSans-43"/>
      <path d="M 10.796875 72.90625 
L 49.515625 72.90625 
L 49.515625 64.59375 
L 19.828125 64.59375 
L 19.828125 46.734375 
Q 21.96875 47.46875 24.109375 47.828125 
Q 26.265625 48.1875 28.421875 48.1875 
Q 40.625 48.1875 47.75 41.5 
Q 54.890625 34.8125 54.890625 23.390625 
Q 54.890625 11.625 47.5625 5.09375 
Q 40.234375 -1.421875 26.90625 -1.421875 
Q 22.3125 -1.421875 17.546875 -0.640625 
Q 12.796875 0.140625 7.71875 1.703125 
L 7.71875 11.625 
Q 12.109375 9.234375 16.796875 8.0625 
Q 21.484375 6.890625 26.703125 6.890625 
Q 35.15625 6.890625 40.078125 11.328125 
Q 45.015625 15.765625 45.015625 23.390625 
Q 45.015625 31 40.078125 35.4375 
Q 35.15625 39.890625 26.703125 39.890625 
Q 22.75 39.890625 18.8125 39.015625 
Q 14.890625 38.140625 10.796875 36.28125 
z
" id="DejaVuSans-53"/>
      <path d="M 19.671875 64.796875 
L 19.671875 8.109375 
L 31.59375 8.109375 
Q 46.6875 8.109375 53.6875 14.9375 
Q 60.6875 21.78125 60.6875 36.53125 
Q 60.6875 51.171875 53.6875 57.984375 
Q 46.6875 64.796875 31.59375 64.796875 
z
M 9.8125 72.90625 
L 30.078125 72.90625 
Q 51.265625 72.90625 61.171875 64.09375 
Q 71.09375 55.28125 71.09375 36.53125 
Q 71.09375 17.671875 61.125 8.828125 
Q 51.171875 0 30.078125 0 
L 9.8125 0 
z
" id="DejaVuSans-68"/>
     </defs>
     <use xlink:href="#DejaVuSans-77"/>
     <use x="86.279297" xlink:href="#DejaVuSans-117"/>
     <use x="149.658203" xlink:href="#DejaVuSans-108"/>
     <use x="177.441406" xlink:href="#DejaVuSans-116"/>
     <use x="216.650391" xlink:href="#DejaVuSans-105"/>
     <use x="244.433594" xlink:href="#DejaVuSans-45"/>
     <use x="280.517578" xlink:href="#DejaVuSans-109"/>
     <use x="377.929688" xlink:href="#DejaVuSans-111"/>
     <use x="439.111328" xlink:href="#DejaVuSans-100"/>
     <use x="502.587891" xlink:href="#DejaVuSans-97"/>
     <use x="563.867188" xlink:href="#DejaVuSans-108"/>
     <use x="591.650391" xlink:href="#DejaVuSans-32"/>
     <use x="623.4375" xlink:href="#DejaVuSans-102"/>
     <use x="658.642578" xlink:href="#DejaVuSans-117"/>
     <use x="722.021484" xlink:href="#DejaVuSans-110"/>
     <use x="785.400391" xlink:href="#DejaVuSans-99"/>
     <use x="840.380859" xlink:href="#DejaVuSans-116"/>
     <use x="879.589844" xlink:href="#DejaVuSans-105"/>
     <use x="907.373047" xlink:href="#DejaVuSans-111"/>
     <use x="968.554688" xlink:href="#DejaVuSans-110"/>
     <use x="1031.933594" xlink:href="#DejaVuSans-115"/>
     <use x="1084.033203" xlink:href="#DejaVuSans-32"/>
     <use x="1115.820312" xlink:href="#DejaVuSans-119"/>
     <use x="1197.607422" xlink:href="#DejaVuSans-105"/>
     <use x="1225.390625" xlink:href="#DejaVuSans-116"/>
     <use x="1264.599609" xlink:href="#DejaVuSans-104"/>
     <use x="1327.978516" xlink:href="#DejaVuSans-32"/>
     <use x="1359.765625" xlink:href="#DejaVuSans-48"/>
     <use x="1423.388672" xlink:href="#DejaVuSans-110"/>
     <use x="1486.767578" xlink:href="#DejaVuSans-43"/>
     <use x="1570.556641" xlink:href="#DejaVuSans-49"/>
     <use x="1634.179688" xlink:href="#DejaVuSans-32"/>
     <use x="1665.966797" xlink:href="#DejaVuSans-99"/>
     <use x="1720.947266" xlink:href="#DejaVuSans-111"/>
     <use x="1782.128906" xlink:href="#DejaVuSans-110"/>
     <use x="1845.507812" xlink:href="#DejaVuSans-115"/>
     <use x="1897.607422" xlink:href="#DejaVuSans-116"/>
     <use x="1936.816406" xlink:href="#DejaVuSans-114"/>
     <use x="1977.929688" xlink:href="#DejaVuSans-97"/>
     <use x="2039.208984" xlink:href="#DejaVuSans-105"/>
     <use x="2066.992188" xlink:href="#DejaVuSans-110"/>
     <use x="2130.371094" xlink:href="#DejaVuSans-116"/>
     <use x="2169.580078" xlink:href="#DejaVuSans-115"/>
     <use x="2221.679688" xlink:href="#DejaVuSans-44"/>
     <use x="2253.466797" xlink:href="#DejaVuSans-32"/>
     <use x="2285.253906" xlink:href="#DejaVuSans-53"/>
     <use x="2348.876953" xlink:href="#DejaVuSans-45"/>
     <use x="2384.960938" xlink:href="#DejaVuSans-68"/>
    </g>
    <!-- 41 targets: 100..1e-06 -->
    <g transform="translate(60.632064 40.426264)scale(0.102 -0.102)">
     <defs>
      <path d="M 11.71875 12.40625 
L 22.015625 12.40625 
L 22.015625 0 
L 11.71875 0 
z
M 11.71875 51.703125 
L 22.015625 51.703125 
L 22.015625 39.3125 
L 11.71875 39.3125 
z
" id="DejaVuSans-58"/>
     </defs>
     <use xlink:href="#DejaVuSans-52"/>
     <use x="63.623047" xlink:href="#DejaVuSans-49"/>
     <use x="127.246094" xlink:href="#DejaVuSans-32"/>
     <use x="159.033203" xlink:href="#DejaVuSans-116"/>
     <use x="198.242188" xlink:href="#DejaVuSans-97"/>
     <use x="259.521484" xlink:href="#DejaVuSans-114"/>
     <use x="298.884766" xlink:href="#DejaVuSans-103"/>
     <use x="362.361328" xlink:href="#DejaVuSans-101"/>
     <use x="423.884766" xlink:href="#DejaVuSans-116"/>
     <use x="463.09375" xlink:href="#DejaVuSans-115"/>
     <use x="515.193359" xlink:href="#DejaVuSans-58"/>
     <use x="548.884766" xlink:href="#DejaVuSans-32"/>
     <use x="580.671875" xlink:href="#DejaVuSans-49"/>
     <use x="644.294922" xlink:href="#DejaVuSans-48"/>
     <use x="707.917969" xlink:href="#DejaVuSans-48"/>
     <use x="771.541016" xlink:href="#DejaVuSans-46"/>
     <use x="803.328125" xlink:href="#DejaVuSans-46"/>
     <use x="835.115234" xlink:href="#DejaVuSans-49"/>
     <use x="898.738281" xlink:href="#DejaVuSans-101"/>
     <use x="960.261719" xlink:href="#DejaVuSans-45"/>
     <use x="996.345703" xlink:href="#DejaVuSans-48"/>
     <use x="1059.96875" xlink:href="#DejaVuSans-54"/>
    </g>
    <!-- evals = f-evals + g-evals -->
    <g transform="translate(60.632064 51.848032)scale(0.102 -0.102)">
     <defs>
      <path d="M 10.59375 45.40625 
L 73.1875 45.40625 
L 73.1875 37.203125 
L 10.59375 37.203125 
z
M 10.59375 25.484375 
L 73.1875 25.484375 
L 73.1875 17.1875 
L 10.59375 17.1875 
z
" id="DejaVuSans-61"/>
     </defs>
     <use xlink:href="#DejaVuSans-101"/>
     <use x="61.523438" xlink:href="#DejaVuSans-118"/>
     <use x="120.703125" xlink:href="#DejaVuSans-97"/>
     <use x="181.982422" xlink:href="#DejaVuSans-108"/>
     <use x="209.765625" xlink:href="#DejaVuSans-115"/>
     <use x="261.865234" xlink:href="#DejaVuSans-32"/>
     <use x="293.652344" xlink:href="#DejaVuSans-61"/>
     <use x="377.441406" xlink:href="#DejaVuSans-32"/>
     <use x="409.228516" xlink:href="#DejaVuSans-102"/>
     <use x="438.933594" xlink:href="#DejaVuSans-45"/>
     <use x="475.017578" xlink:href="#DejaVuSans-101"/>
     <use x="536.541016" xlink:href="#DejaVuSans-118"/>
     <use x="595.720703" xlink:href="#DejaVuSans-97"/>
     <use x="657" xlink:href="#DejaVuSans-108"/>
     <use x="684.783203" xlink:href="#DejaVuSans-115"/>
     <use x="736.882812" xlink:href="#DejaVuSans-32"/>
     <use x="768.669922" xlink:href="#DejaVuSans-43"/>
     <use x="852.458984" xlink:href="#DejaVuSans-32"/>
     <use x="884.246094" xlink:href="#DejaVuSans-103"/>
     <use x="947.722656" xlink:href="#DejaVuSans-45"/>
     <use x="983.806641" xlink:href="#DejaVuSans-101"/>
     <use x="1045.330078" xlink:href="#DejaVuSans-118"/>
     <use x="1104.509766" xlink:href="#DejaVuSans-97"/>
     <use x="1165.789062" xlink:href="#DejaVuSans-108"/>
     <use x="1193.572266" xlink:href="#DejaVuSans-115"/>
    </g>
    <!-- 15 instances -->
    <g transform="translate(60.632064 63.269801)scale(0.102 -0.102)">
     <use xlink:href="#DejaVuSans-49"/>
     <use x="63.623047" xlink:href="#DejaVuSans-53"/>
     <use x="127.246094" xlink:href="#DejaVuSans-32"/>
     <use x="159.033203" xlink:href="#DejaVuSans-105"/>
     <use x="186.816406" xlink:href="#DejaVuSans-110"/>
     <use x="250.195312" xlink:href="#DejaVuSans-115"/>
     <use x="302.294922" xlink:href="#DejaVuSans-116"/>
     <use x="341.503906" xlink:href="#DejaVuSans-97"/>
     <use x="402.783203" xlink:href="#DejaVuSans-110"/>
     <use x="466.162109" xlink:href="#DejaVuSans-99"/>
     <use x="521.142578" xlink:href="#DejaVuSans-101"/>
     <use x="582.666016" xlink:href="#DejaVuSans-115"/>
    </g>
   </g>
   <g id="text_16">
    <!-- v2.4.161 -->
    <g style="fill:#808080;" transform="translate(187.15945 293.943992)scale(0.1 -0.1)">
     <use xlink:href="#DejaVuSans-118"/>
     <use x="59.179688" xlink:href="#DejaVuSans-50"/>
     <use x="122.802734" xlink:href="#DejaVuSans-46"/>
     <use x="154.589844" xlink:href="#DejaVuSans-52"/>
     <use x="218.212891" xlink:href="#DejaVuSans-46"/>
     <use x="250" xlink:href="#DejaVuSans-49"/>
     <use x="313.623047" xlink:href="#DejaVuSans-54"/>
     <use x="377.246094" xlink:href="#DejaVuSans-49"/>
    </g>
   </g>
  </g>
 </g>
 <defs>
  <clipPath id="p79d66d959f">
   <rect height="292.032" width="303.2064" x="57.6" y="6.912"/>
  </clipPath>
 </defs>
</svg>
