<?xml version="1.0" encoding="utf-8" standalone="no"?>
<!DOCTYPE svg PUBLIC "-//W3C//DTD SVG 1.1//EN"
  "http://www.w3.org/Graphics/SVG/1.1/DTD/svg11.dtd">
<!-- Created with matplotlib (https://matplotlib.org/) -->
<svg height="345.6pt" version="1.1" viewBox="0 0 460.8 345.6" width="460.8pt" xmlns="http://www.w3.org/2000/svg" xmlns:xlink="http://www.w3.org/1999/xlink">
 <metadata>
  <rdf:RDF xmlns:cc="http://creativecommons.org/ns#" xmlns:dc="http://purl.org/dc/elements/1.1/" xmlns:rdf="http://www.w3.org/1999/02/22-rdf-syntax-ns#">
   <cc:Work>
    <dc:type rdf:resource="http://purl.org/dc/dcmitype/StillImage"/>
    <dc:date>2022-04-26T20:52:57.053425</dc:date>
    <dc:format>image/svg+xml</dc:format>
    <dc:creator>
     <cc:Agent>
      <dc:title>Matplotlib v3.3.3, https://matplotlib.org/</dc:title>
     </cc:Agent>
    </dc:creator>
   </cc:Work>
  </rdf:RDF>
 </metadata>
 <defs>
  <style type="text/css">*{stroke-linecap:butt;stroke-linejoin:round;}</style>
 </defs>
 <g id="figure_1">
  <g id="patch_1">
   <path d="M 0 345.6 
L 460.8 345.6 
L 460.8 0 
L 0 0 
z
" style="fill:#ffffff;"/>
  </g>
  <g id="axes_1">
   <g id="patch_2">
    <path d="M 57.6 298.944 
L 360.8064 298.944 
L 360.8064 27.648 
L 57.6 27.648 
z
" style="fill:#ffffff;"/>
   </g>
   <g id="matplotlib.axis_1">
    <g id="xtick_1">
     <g id="line2d_1">
      <path clip-path="url(#p06d81709ad)" d="M 57.6 298.944 
L 57.6 27.648 
" style="fill:none;stroke:#b0b0b0;stroke-linecap:square;stroke-width:0.8;"/>
     </g>
     <g id="line2d_2">
      <defs>
       <path d="M 0 0 
L 0 3.5 
" id="m87f8641a8b" style="stroke:#000000;stroke-width:0.8;"/>
      </defs>
      <g>
       <use style="stroke:#000000;stroke-width:0.8;" x="57.6" xlink:href="#m87f8641a8b" y="298.944"/>
      </g>
     </g>
     <g id="text_1">
      <!-- 0 -->
      <g transform="translate(52.191875 318.861344)scale(0.17 -0.17)">
       <defs>
        <path d="M 31.78125 66.40625 
Q 24.171875 66.40625 20.328125 58.90625 
Q 16.5 51.421875 16.5 36.375 
Q 16.5 21.390625 20.328125 13.890625 
Q 24.171875 6.390625 31.78125 6.390625 
Q 39.453125 6.390625 43.28125 13.890625 
Q 47.125 21.390625 47.125 36.375 
Q 47.125 51.421875 43.28125 58.90625 
Q 39.453125 66.40625 31.78125 66.40625 
z
M 31.78125 74.21875 
Q 44.046875 74.21875 50.515625 64.515625 
Q 56.984375 54.828125 56.984375 36.375 
Q 56.984375 17.96875 50.515625 8.265625 
Q 44.046875 -1.421875 31.78125 -1.421875 
Q 19.53125 -1.421875 13.0625 8.265625 
Q 6.59375 17.96875 6.59375 36.375 
Q 6.59375 54.828125 13.0625 64.515625 
Q 19.53125 74.21875 31.78125 74.21875 
z
" id="DejaVuSans-48"/>
       </defs>
       <use xlink:href="#DejaVuSans-48"/>
      </g>
     </g>
    </g>
    <g id="xtick_2">
     <g id="line2d_3">
      <path clip-path="url(#p06d81709ad)" d="M 144.2304 298.944 
L 144.2304 27.648 
" style="fill:none;stroke:#b0b0b0;stroke-linecap:square;stroke-width:0.8;"/>
     </g>
     <g id="line2d_4">
      <g>
       <use style="stroke:#000000;stroke-width:0.8;" x="144.2304" xlink:href="#m87f8641a8b" y="298.944"/>
      </g>
     </g>
     <g id="text_2">
      <!-- 2 -->
      <g transform="translate(138.822275 318.861344)scale(0.17 -0.17)">
       <defs>
        <path d="M 19.1875 8.296875 
L 53.609375 8.296875 
L 53.609375 0 
L 7.328125 0 
L 7.328125 8.296875 
Q 12.9375 14.109375 22.625 23.890625 
Q 32.328125 33.6875 34.8125 36.53125 
Q 39.546875 41.84375 41.421875 45.53125 
Q 43.3125 49.21875 43.3125 52.78125 
Q 43.3125 58.59375 39.234375 62.25 
Q 35.15625 65.921875 28.609375 65.921875 
Q 23.96875 65.921875 18.8125 64.3125 
Q 13.671875 62.703125 7.8125 59.421875 
L 7.8125 69.390625 
Q 13.765625 71.78125 18.9375 73 
Q 24.125 74.21875 28.421875 74.21875 
Q 39.75 74.21875 46.484375 68.546875 
Q 53.21875 62.890625 53.21875 53.421875 
Q 53.21875 48.921875 51.53125 44.890625 
Q 49.859375 40.875 45.40625 35.40625 
Q 44.1875 33.984375 37.640625 27.21875 
Q 31.109375 20.453125 19.1875 8.296875 
z
" id="DejaVuSans-50"/>
       </defs>
       <use xlink:href="#DejaVuSans-50"/>
      </g>
     </g>
    </g>
    <g id="xtick_3">
     <g id="line2d_5">
      <path clip-path="url(#p06d81709ad)" d="M 230.8608 298.944 
L 230.8608 27.648 
" style="fill:none;stroke:#b0b0b0;stroke-linecap:square;stroke-width:0.8;"/>
     </g>
     <g id="line2d_6">
      <g>
       <use style="stroke:#000000;stroke-width:0.8;" x="230.8608" xlink:href="#m87f8641a8b" y="298.944"/>
      </g>
     </g>
     <g id="text_3">
      <!-- 4 -->
      <g transform="translate(225.452675 318.861344)scale(0.17 -0.17)">
       <defs>
        <path d="M 37.796875 64.3125 
L 12.890625 25.390625 
L 37.796875 25.390625 
z
M 35.203125 72.90625 
L 47.609375 72.90625 
L 47.609375 25.390625 
L 58.015625 25.390625 
L 58.015625 17.1875 
L 47.609375 17.1875 
L 47.609375 0 
L 37.796875 0 
L 37.796875 17.1875 
L 4.890625 17.1875 
L 4.890625 26.703125 
z
" id="DejaVuSans-52"/>
       </defs>
       <use xlink:href="#DejaVuSans-52"/>
      </g>
     </g>
    </g>
    <g id="xtick_4">
     <g id="line2d_7">
      <path clip-path="url(#p06d81709ad)" d="M 317.4912 298.944 
L 317.4912 27.648 
" style="fill:none;stroke:#b0b0b0;stroke-linecap:square;stroke-width:0.8;"/>
     </g>
     <g id="line2d_8">
      <g>
       <use style="stroke:#000000;stroke-width:0.8;" x="317.4912" xlink:href="#m87f8641a8b" y="298.944"/>
      </g>
     </g>
     <g id="text_4">
      <!-- 6 -->
      <g transform="translate(312.083075 318.861344)scale(0.17 -0.17)">
       <defs>
        <path d="M 33.015625 40.375 
Q 26.375 40.375 22.484375 35.828125 
Q 18.609375 31.296875 18.609375 23.390625 
Q 18.609375 15.53125 22.484375 10.953125 
Q 26.375 6.390625 33.015625 6.390625 
Q 39.65625 6.390625 43.53125 10.953125 
Q 47.40625 15.53125 47.40625 23.390625 
Q 47.40625 31.296875 43.53125 35.828125 
Q 39.65625 40.375 33.015625 40.375 
z
M 52.59375 71.296875 
L 52.59375 62.3125 
Q 48.875 64.0625 45.09375 64.984375 
Q 41.3125 65.921875 37.59375 65.921875 
Q 27.828125 65.921875 22.671875 59.328125 
Q 17.53125 52.734375 16.796875 39.40625 
Q 19.671875 43.65625 24.015625 45.921875 
Q 28.375 48.1875 33.59375 48.1875 
Q 44.578125 48.1875 50.953125 41.515625 
Q 57.328125 34.859375 57.328125 23.390625 
Q 57.328125 12.15625 50.6875 5.359375 
Q 44.046875 -1.421875 33.015625 -1.421875 
Q 20.359375 -1.421875 13.671875 8.265625 
Q 6.984375 17.96875 6.984375 36.375 
Q 6.984375 53.65625 15.1875 63.9375 
Q 23.390625 74.21875 37.203125 74.21875 
Q 40.921875 74.21875 44.703125 73.484375 
Q 48.484375 72.75 52.59375 71.296875 
z
" id="DejaVuSans-54"/>
       </defs>
       <use xlink:href="#DejaVuSans-54"/>
      </g>
     </g>
    </g>
    <g id="xtick_5">
     <g id="line2d_9">
      <path clip-path="url(#p06d81709ad)" d="M 100.9152 298.944 
L 100.9152 27.648 
" style="fill:none;stroke:#b0b0b0;stroke-linecap:square;stroke-width:0.8;"/>
     </g>
     <g id="line2d_10">
      <defs>
       <path d="M 0 0 
L 0 2 
" id="m49b934ec62" style="stroke:#000000;stroke-width:0.6;"/>
      </defs>
      <g>
       <use style="stroke:#000000;stroke-width:0.6;" x="100.9152" xlink:href="#m49b934ec62" y="298.944"/>
      </g>
     </g>
    </g>
    <g id="xtick_6">
     <g id="line2d_11">
      <path clip-path="url(#p06d81709ad)" d="M 187.5456 298.944 
L 187.5456 27.648 
" style="fill:none;stroke:#b0b0b0;stroke-linecap:square;stroke-width:0.8;"/>
     </g>
     <g id="line2d_12">
      <g>
       <use style="stroke:#000000;stroke-width:0.6;" x="187.5456" xlink:href="#m49b934ec62" y="298.944"/>
      </g>
     </g>
    </g>
    <g id="xtick_7">
     <g id="line2d_13">
      <path clip-path="url(#p06d81709ad)" d="M 274.176 298.944 
L 274.176 27.648 
" style="fill:none;stroke:#b0b0b0;stroke-linecap:square;stroke-width:0.8;"/>
     </g>
     <g id="line2d_14">
      <g>
       <use style="stroke:#000000;stroke-width:0.6;" x="274.176" xlink:href="#m49b934ec62" y="298.944"/>
      </g>
     </g>
    </g>
    <g id="xtick_8">
     <g id="line2d_15">
      <path clip-path="url(#p06d81709ad)" d="M 360.8064 298.944 
L 360.8064 27.648 
" style="fill:none;stroke:#b0b0b0;stroke-linecap:square;stroke-width:0.8;"/>
     </g>
     <g id="line2d_16">
      <g>
       <use style="stroke:#000000;stroke-width:0.6;" x="360.8064" xlink:href="#m49b934ec62" y="298.944"/>
      </g>
     </g>
    </g>
    <g id="text_5">
     <!-- log10(evals / dimension) -->
     <g transform="translate(104.238825 339.314156)scale(0.17 -0.17)">
      <defs>
       <path d="M 9.421875 75.984375 
L 18.40625 75.984375 
L 18.40625 0 
L 9.421875 0 
z
" id="DejaVuSans-108"/>
       <path d="M 30.609375 48.390625 
Q 23.390625 48.390625 19.1875 42.75 
Q 14.984375 37.109375 14.984375 27.296875 
Q 14.984375 17.484375 19.15625 11.84375 
Q 23.34375 6.203125 30.609375 6.203125 
Q 37.796875 6.203125 41.984375 11.859375 
Q 46.1875 17.53125 46.1875 27.296875 
Q 46.1875 37.015625 41.984375 42.703125 
Q 37.796875 48.390625 30.609375 48.390625 
z
M 30.609375 56 
Q 42.328125 56 49.015625 48.375 
Q 55.71875 40.765625 55.71875 27.296875 
Q 55.71875 13.875 49.015625 6.21875 
Q 42.328125 -1.421875 30.609375 -1.421875 
Q 18.84375 -1.421875 12.171875 6.21875 
Q 5.515625 13.875 5.515625 27.296875 
Q 5.515625 40.765625 12.171875 48.375 
Q 18.84375 56 30.609375 56 
z
" id="DejaVuSans-111"/>
       <path d="M 45.40625 27.984375 
Q 45.40625 37.75 41.375 43.109375 
Q 37.359375 48.484375 30.078125 48.484375 
Q 22.859375 48.484375 18.828125 43.109375 
Q 14.796875 37.75 14.796875 27.984375 
Q 14.796875 18.265625 18.828125 12.890625 
Q 22.859375 7.515625 30.078125 7.515625 
Q 37.359375 7.515625 41.375 12.890625 
Q 45.40625 18.265625 45.40625 27.984375 
z
M 54.390625 6.78125 
Q 54.390625 -7.171875 48.1875 -13.984375 
Q 42 -20.796875 29.203125 -20.796875 
Q 24.46875 -20.796875 20.265625 -20.09375 
Q 16.0625 -19.390625 12.109375 -17.921875 
L 12.109375 -9.1875 
Q 16.0625 -11.328125 19.921875 -12.34375 
Q 23.78125 -13.375 27.78125 -13.375 
Q 36.625 -13.375 41.015625 -8.765625 
Q 45.40625 -4.15625 45.40625 5.171875 
L 45.40625 9.625 
Q 42.625 4.78125 38.28125 2.390625 
Q 33.9375 0 27.875 0 
Q 17.828125 0 11.671875 7.65625 
Q 5.515625 15.328125 5.515625 27.984375 
Q 5.515625 40.671875 11.671875 48.328125 
Q 17.828125 56 27.875 56 
Q 33.9375 56 38.28125 53.609375 
Q 42.625 51.21875 45.40625 46.390625 
L 45.40625 54.6875 
L 54.390625 54.6875 
z
" id="DejaVuSans-103"/>
       <path d="M 12.40625 8.296875 
L 28.515625 8.296875 
L 28.515625 63.921875 
L 10.984375 60.40625 
L 10.984375 69.390625 
L 28.421875 72.90625 
L 38.28125 72.90625 
L 38.28125 8.296875 
L 54.390625 8.296875 
L 54.390625 0 
L 12.40625 0 
z
" id="DejaVuSans-49"/>
       <path d="M 31 75.875 
Q 24.46875 64.65625 21.28125 53.65625 
Q 18.109375 42.671875 18.109375 31.390625 
Q 18.109375 20.125 21.3125 9.0625 
Q 24.515625 -2 31 -13.1875 
L 23.1875 -13.1875 
Q 15.875 -1.703125 12.234375 9.375 
Q 8.59375 20.453125 8.59375 31.390625 
Q 8.59375 42.28125 12.203125 53.3125 
Q 15.828125 64.359375 23.1875 75.875 
z
" id="DejaVuSans-40"/>
       <path d="M 56.203125 29.59375 
L 56.203125 25.203125 
L 14.890625 25.203125 
Q 15.484375 15.921875 20.484375 11.0625 
Q 25.484375 6.203125 34.421875 6.203125 
Q 39.59375 6.203125 44.453125 7.46875 
Q 49.3125 8.734375 54.109375 11.28125 
L 54.109375 2.78125 
Q 49.265625 0.734375 44.1875 -0.34375 
Q 39.109375 -1.421875 33.890625 -1.421875 
Q 20.796875 -1.421875 13.15625 6.1875 
Q 5.515625 13.8125 5.515625 26.8125 
Q 5.515625 40.234375 12.765625 48.109375 
Q 20.015625 56 32.328125 56 
Q 43.359375 56 49.78125 48.890625 
Q 56.203125 41.796875 56.203125 29.59375 
z
M 47.21875 32.234375 
Q 47.125 39.59375 43.09375 43.984375 
Q 39.0625 48.390625 32.421875 48.390625 
Q 24.90625 48.390625 20.390625 44.140625 
Q 15.875 39.890625 15.1875 32.171875 
z
" id="DejaVuSans-101"/>
       <path d="M 2.984375 54.6875 
L 12.5 54.6875 
L 29.59375 8.796875 
L 46.6875 54.6875 
L 56.203125 54.6875 
L 35.6875 0 
L 23.484375 0 
z
" id="DejaVuSans-118"/>
       <path d="M 34.28125 27.484375 
Q 23.390625 27.484375 19.1875 25 
Q 14.984375 22.515625 14.984375 16.5 
Q 14.984375 11.71875 18.140625 8.90625 
Q 21.296875 6.109375 26.703125 6.109375 
Q 34.1875 6.109375 38.703125 11.40625 
Q 43.21875 16.703125 43.21875 25.484375 
L 43.21875 27.484375 
z
M 52.203125 31.203125 
L 52.203125 0 
L 43.21875 0 
L 43.21875 8.296875 
Q 40.140625 3.328125 35.546875 0.953125 
Q 30.953125 -1.421875 24.3125 -1.421875 
Q 15.921875 -1.421875 10.953125 3.296875 
Q 6 8.015625 6 15.921875 
Q 6 25.140625 12.171875 29.828125 
Q 18.359375 34.515625 30.609375 34.515625 
L 43.21875 34.515625 
L 43.21875 35.40625 
Q 43.21875 41.609375 39.140625 45 
Q 35.0625 48.390625 27.6875 48.390625 
Q 23 48.390625 18.546875 47.265625 
Q 14.109375 46.140625 10.015625 43.890625 
L 10.015625 52.203125 
Q 14.9375 54.109375 19.578125 55.046875 
Q 24.21875 56 28.609375 56 
Q 40.484375 56 46.34375 49.84375 
Q 52.203125 43.703125 52.203125 31.203125 
z
" id="DejaVuSans-97"/>
       <path d="M 44.28125 53.078125 
L 44.28125 44.578125 
Q 40.484375 46.53125 36.375 47.5 
Q 32.28125 48.484375 27.875 48.484375 
Q 21.1875 48.484375 17.84375 46.4375 
Q 14.5 44.390625 14.5 40.28125 
Q 14.5 37.15625 16.890625 35.375 
Q 19.28125 33.59375 26.515625 31.984375 
L 29.59375 31.296875 
Q 39.15625 29.25 43.1875 25.515625 
Q 47.21875 21.78125 47.21875 15.09375 
Q 47.21875 7.46875 41.1875 3.015625 
Q 35.15625 -1.421875 24.609375 -1.421875 
Q 20.21875 -1.421875 15.453125 -0.5625 
Q 10.6875 0.296875 5.421875 2 
L 5.421875 11.28125 
Q 10.40625 8.6875 15.234375 7.390625 
Q 20.0625 6.109375 24.8125 6.109375 
Q 31.15625 6.109375 34.5625 8.28125 
Q 37.984375 10.453125 37.984375 14.40625 
Q 37.984375 18.0625 35.515625 20.015625 
Q 33.0625 21.96875 24.703125 23.78125 
L 21.578125 24.515625 
Q 13.234375 26.265625 9.515625 29.90625 
Q 5.8125 33.546875 5.8125 39.890625 
Q 5.8125 47.609375 11.28125 51.796875 
Q 16.75 56 26.8125 56 
Q 31.78125 56 36.171875 55.265625 
Q 40.578125 54.546875 44.28125 53.078125 
z
" id="DejaVuSans-115"/>
       <path id="DejaVuSans-32"/>
       <path d="M 25.390625 72.90625 
L 33.6875 72.90625 
L 8.296875 -9.28125 
L 0 -9.28125 
z
" id="DejaVuSans-47"/>
       <path d="M 45.40625 46.390625 
L 45.40625 75.984375 
L 54.390625 75.984375 
L 54.390625 0 
L 45.40625 0 
L 45.40625 8.203125 
Q 42.578125 3.328125 38.25 0.953125 
Q 33.9375 -1.421875 27.875 -1.421875 
Q 17.96875 -1.421875 11.734375 6.484375 
Q 5.515625 14.40625 5.515625 27.296875 
Q 5.515625 40.1875 11.734375 48.09375 
Q 17.96875 56 27.875 56 
Q 33.9375 56 38.25 53.625 
Q 42.578125 51.265625 45.40625 46.390625 
z
M 14.796875 27.296875 
Q 14.796875 17.390625 18.875 11.75 
Q 22.953125 6.109375 30.078125 6.109375 
Q 37.203125 6.109375 41.296875 11.75 
Q 45.40625 17.390625 45.40625 27.296875 
Q 45.40625 37.203125 41.296875 42.84375 
Q 37.203125 48.484375 30.078125 48.484375 
Q 22.953125 48.484375 18.875 42.84375 
Q 14.796875 37.203125 14.796875 27.296875 
z
" id="DejaVuSans-100"/>
       <path d="M 9.421875 54.6875 
L 18.40625 54.6875 
L 18.40625 0 
L 9.421875 0 
z
M 9.421875 75.984375 
L 18.40625 75.984375 
L 18.40625 64.59375 
L 9.421875 64.59375 
z
" id="DejaVuSans-105"/>
       <path d="M 52 44.1875 
Q 55.375 50.25 60.0625 53.125 
Q 64.75 56 71.09375 56 
Q 79.640625 56 84.28125 50.015625 
Q 88.921875 44.046875 88.921875 33.015625 
L 88.921875 0 
L 79.890625 0 
L 79.890625 32.71875 
Q 79.890625 40.578125 77.09375 44.375 
Q 74.3125 48.1875 68.609375 48.1875 
Q 61.625 48.1875 57.5625 43.546875 
Q 53.515625 38.921875 53.515625 30.90625 
L 53.515625 0 
L 44.484375 0 
L 44.484375 32.71875 
Q 44.484375 40.625 41.703125 44.40625 
Q 38.921875 48.1875 33.109375 48.1875 
Q 26.21875 48.1875 22.15625 43.53125 
Q 18.109375 38.875 18.109375 30.90625 
L 18.109375 0 
L 9.078125 0 
L 9.078125 54.6875 
L 18.109375 54.6875 
L 18.109375 46.1875 
Q 21.1875 51.21875 25.484375 53.609375 
Q 29.78125 56 35.6875 56 
Q 41.65625 56 45.828125 52.96875 
Q 50 49.953125 52 44.1875 
z
" id="DejaVuSans-109"/>
       <path d="M 54.890625 33.015625 
L 54.890625 0 
L 45.90625 0 
L 45.90625 32.71875 
Q 45.90625 40.484375 42.875 44.328125 
Q 39.84375 48.1875 33.796875 48.1875 
Q 26.515625 48.1875 22.3125 43.546875 
Q 18.109375 38.921875 18.109375 30.90625 
L 18.109375 0 
L 9.078125 0 
L 9.078125 54.6875 
L 18.109375 54.6875 
L 18.109375 46.1875 
Q 21.34375 51.125 25.703125 53.5625 
Q 30.078125 56 35.796875 56 
Q 45.21875 56 50.046875 50.171875 
Q 54.890625 44.34375 54.890625 33.015625 
z
" id="DejaVuSans-110"/>
       <path d="M 8.015625 75.875 
L 15.828125 75.875 
Q 23.140625 64.359375 26.78125 53.3125 
Q 30.421875 42.28125 30.421875 31.390625 
Q 30.421875 20.453125 26.78125 9.375 
Q 23.140625 -1.703125 15.828125 -13.1875 
L 8.015625 -13.1875 
Q 14.5 -2 17.703125 9.0625 
Q 20.90625 20.125 20.90625 31.390625 
Q 20.90625 42.671875 17.703125 53.65625 
Q 14.5 64.65625 8.015625 75.875 
z
" id="DejaVuSans-41"/>
      </defs>
      <use xlink:href="#DejaVuSans-108"/>
      <use x="27.783203" xlink:href="#DejaVuSans-111"/>
      <use x="88.964844" xlink:href="#DejaVuSans-103"/>
      <use x="152.441406" xlink:href="#DejaVuSans-49"/>
      <use x="216.064453" xlink:href="#DejaVuSans-48"/>
      <use x="279.6875" xlink:href="#DejaVuSans-40"/>
      <use x="318.701172" xlink:href="#DejaVuSans-101"/>
      <use x="380.224609" xlink:href="#DejaVuSans-118"/>
      <use x="439.404297" xlink:href="#DejaVuSans-97"/>
      <use x="500.683594" xlink:href="#DejaVuSans-108"/>
      <use x="528.466797" xlink:href="#DejaVuSans-115"/>
      <use x="580.566406" xlink:href="#DejaVuSans-32"/>
      <use x="612.353516" xlink:href="#DejaVuSans-47"/>
      <use x="646.044922" xlink:href="#DejaVuSans-32"/>
      <use x="677.832031" xlink:href="#DejaVuSans-100"/>
      <use x="741.308594" xlink:href="#DejaVuSans-105"/>
      <use x="769.091797" xlink:href="#DejaVuSans-109"/>
      <use x="866.503906" xlink:href="#DejaVuSans-101"/>
      <use x="928.027344" xlink:href="#DejaVuSans-110"/>
      <use x="991.40625" xlink:href="#DejaVuSans-115"/>
      <use x="1043.505859" xlink:href="#DejaVuSans-105"/>
      <use x="1071.289062" xlink:href="#DejaVuSans-111"/>
      <use x="1132.470703" xlink:href="#DejaVuSans-110"/>
      <use x="1195.849609" xlink:href="#DejaVuSans-41"/>
     </g>
    </g>
   </g>
   <g id="matplotlib.axis_2">
    <g id="ytick_1">
     <g id="line2d_17">
      <path clip-path="url(#p06d81709ad)" d="M 57.6 298.944 
L 360.8064 298.944 
" style="fill:none;stroke:#b0b0b0;stroke-linecap:square;stroke-width:0.8;"/>
     </g>
     <g id="line2d_18">
      <defs>
       <path d="M 0 0 
L -3.5 0 
" id="m7fb5188840" style="stroke:#000000;stroke-width:0.8;"/>
      </defs>
      <g>
       <use style="stroke:#000000;stroke-width:0.8;" x="57.6" xlink:href="#m7fb5188840" y="298.944"/>
      </g>
     </g>
     <g id="text_6">
      <!-- 0.0 -->
      <g transform="translate(25.155 305.02275)scale(0.16 -0.16)">
       <defs>
        <path d="M 10.6875 12.40625 
L 21 12.40625 
L 21 0 
L 10.6875 0 
z
" id="DejaVuSans-46"/>
       </defs>
       <use xlink:href="#DejaVuSans-48"/>
       <use x="63.623047" xlink:href="#DejaVuSans-46"/>
       <use x="95.410156" xlink:href="#DejaVuSans-48"/>
      </g>
     </g>
    </g>
    <g id="ytick_2">
     <g id="line2d_19">
      <path clip-path="url(#p06d81709ad)" d="M 57.6 244.6848 
L 360.8064 244.6848 
" style="fill:none;stroke:#b0b0b0;stroke-linecap:square;stroke-width:0.8;"/>
     </g>
     <g id="line2d_20">
      <g>
       <use style="stroke:#000000;stroke-width:0.8;" x="57.6" xlink:href="#m7fb5188840" y="244.6848"/>
      </g>
     </g>
     <g id="text_7">
      <!-- 0.2 -->
      <g transform="translate(25.155 250.76355)scale(0.16 -0.16)">
       <use xlink:href="#DejaVuSans-48"/>
       <use x="63.623047" xlink:href="#DejaVuSans-46"/>
       <use x="95.410156" xlink:href="#DejaVuSans-50"/>
      </g>
     </g>
    </g>
    <g id="ytick_3">
     <g id="line2d_21">
      <path clip-path="url(#p06d81709ad)" d="M 57.6 190.4256 
L 360.8064 190.4256 
" style="fill:none;stroke:#b0b0b0;stroke-linecap:square;stroke-width:0.8;"/>
     </g>
     <g id="line2d_22">
      <g>
       <use style="stroke:#000000;stroke-width:0.8;" x="57.6" xlink:href="#m7fb5188840" y="190.4256"/>
      </g>
     </g>
     <g id="text_8">
      <!-- 0.4 -->
      <g transform="translate(25.155 196.50435)scale(0.16 -0.16)">
       <use xlink:href="#DejaVuSans-48"/>
       <use x="63.623047" xlink:href="#DejaVuSans-46"/>
       <use x="95.410156" xlink:href="#DejaVuSans-52"/>
      </g>
     </g>
    </g>
    <g id="ytick_4">
     <g id="line2d_23">
      <path clip-path="url(#p06d81709ad)" d="M 57.6 136.1664 
L 360.8064 136.1664 
" style="fill:none;stroke:#b0b0b0;stroke-linecap:square;stroke-width:0.8;"/>
     </g>
     <g id="line2d_24">
      <g>
       <use style="stroke:#000000;stroke-width:0.8;" x="57.6" xlink:href="#m7fb5188840" y="136.1664"/>
      </g>
     </g>
     <g id="text_9">
      <!-- 0.6 -->
      <g transform="translate(25.155 142.24515)scale(0.16 -0.16)">
       <use xlink:href="#DejaVuSans-48"/>
       <use x="63.623047" xlink:href="#DejaVuSans-46"/>
       <use x="95.410156" xlink:href="#DejaVuSans-54"/>
      </g>
     </g>
    </g>
    <g id="ytick_5">
     <g id="line2d_25">
      <path clip-path="url(#p06d81709ad)" d="M 57.6 81.9072 
L 360.8064 81.9072 
" style="fill:none;stroke:#b0b0b0;stroke-linecap:square;stroke-width:0.8;"/>
     </g>
     <g id="line2d_26">
      <g>
       <use style="stroke:#000000;stroke-width:0.8;" x="57.6" xlink:href="#m7fb5188840" y="81.9072"/>
      </g>
     </g>
     <g id="text_10">
      <!-- 0.8 -->
      <g transform="translate(25.155 87.98595)scale(0.16 -0.16)">
       <defs>
        <path d="M 31.78125 34.625 
Q 24.75 34.625 20.71875 30.859375 
Q 16.703125 27.09375 16.703125 20.515625 
Q 16.703125 13.921875 20.71875 10.15625 
Q 24.75 6.390625 31.78125 6.390625 
Q 38.8125 6.390625 42.859375 10.171875 
Q 46.921875 13.96875 46.921875 20.515625 
Q 46.921875 27.09375 42.890625 30.859375 
Q 38.875 34.625 31.78125 34.625 
z
M 21.921875 38.8125 
Q 15.578125 40.375 12.03125 44.71875 
Q 8.5 49.078125 8.5 55.328125 
Q 8.5 64.0625 14.71875 69.140625 
Q 20.953125 74.21875 31.78125 74.21875 
Q 42.671875 74.21875 48.875 69.140625 
Q 55.078125 64.0625 55.078125 55.328125 
Q 55.078125 49.078125 51.53125 44.71875 
Q 48 40.375 41.703125 38.8125 
Q 48.828125 37.15625 52.796875 32.3125 
Q 56.78125 27.484375 56.78125 20.515625 
Q 56.78125 9.90625 50.3125 4.234375 
Q 43.84375 -1.421875 31.78125 -1.421875 
Q 19.734375 -1.421875 13.25 4.234375 
Q 6.78125 9.90625 6.78125 20.515625 
Q 6.78125 27.484375 10.78125 32.3125 
Q 14.796875 37.15625 21.921875 38.8125 
z
M 18.3125 54.390625 
Q 18.3125 48.734375 21.84375 45.5625 
Q 25.390625 42.390625 31.78125 42.390625 
Q 38.140625 42.390625 41.71875 45.5625 
Q 45.3125 48.734375 45.3125 54.390625 
Q 45.3125 60.0625 41.71875 63.234375 
Q 38.140625 66.40625 31.78125 66.40625 
Q 25.390625 66.40625 21.84375 63.234375 
Q 18.3125 60.0625 18.3125 54.390625 
z
" id="DejaVuSans-56"/>
       </defs>
       <use xlink:href="#DejaVuSans-48"/>
       <use x="63.623047" xlink:href="#DejaVuSans-46"/>
       <use x="95.410156" xlink:href="#DejaVuSans-56"/>
      </g>
     </g>
    </g>
    <g id="ytick_6">
     <g id="line2d_27">
      <path clip-path="url(#p06d81709ad)" d="M 57.6 27.648 
L 360.8064 27.648 
" style="fill:none;stroke:#b0b0b0;stroke-linecap:square;stroke-width:0.8;"/>
     </g>
     <g id="line2d_28">
      <g>
       <use style="stroke:#000000;stroke-width:0.8;" x="57.6" xlink:href="#m7fb5188840" y="27.648"/>
      </g>
     </g>
     <g id="text_11">
      <!-- 1.0 -->
      <g transform="translate(25.155 33.72675)scale(0.16 -0.16)">
       <use xlink:href="#DejaVuSans-49"/>
       <use x="63.623047" xlink:href="#DejaVuSans-46"/>
       <use x="95.410156" xlink:href="#DejaVuSans-48"/>
      </g>
     </g>
    </g>
    <g id="text_12">
     <!-- Fraction of function,target pairs -->
     <g transform="translate(17.619531 297.681)rotate(-90)scale(0.17 -0.17)">
      <defs>
       <path d="M 9.8125 72.90625 
L 51.703125 72.90625 
L 51.703125 64.59375 
L 19.671875 64.59375 
L 19.671875 43.109375 
L 48.578125 43.109375 
L 48.578125 34.8125 
L 19.671875 34.8125 
L 19.671875 0 
L 9.8125 0 
z
" id="DejaVuSans-70"/>
       <path d="M 41.109375 46.296875 
Q 39.59375 47.171875 37.8125 47.578125 
Q 36.03125 48 33.890625 48 
Q 26.265625 48 22.1875 43.046875 
Q 18.109375 38.09375 18.109375 28.8125 
L 18.109375 0 
L 9.078125 0 
L 9.078125 54.6875 
L 18.109375 54.6875 
L 18.109375 46.1875 
Q 20.953125 51.171875 25.484375 53.578125 
Q 30.03125 56 36.53125 56 
Q 37.453125 56 38.578125 55.875 
Q 39.703125 55.765625 41.0625 55.515625 
z
" id="DejaVuSans-114"/>
       <path d="M 48.78125 52.59375 
L 48.78125 44.1875 
Q 44.96875 46.296875 41.140625 47.34375 
Q 37.3125 48.390625 33.40625 48.390625 
Q 24.65625 48.390625 19.8125 42.84375 
Q 14.984375 37.3125 14.984375 27.296875 
Q 14.984375 17.28125 19.8125 11.734375 
Q 24.65625 6.203125 33.40625 6.203125 
Q 37.3125 6.203125 41.140625 7.25 
Q 44.96875 8.296875 48.78125 10.40625 
L 48.78125 2.09375 
Q 45.015625 0.34375 40.984375 -0.53125 
Q 36.96875 -1.421875 32.421875 -1.421875 
Q 20.0625 -1.421875 12.78125 6.34375 
Q 5.515625 14.109375 5.515625 27.296875 
Q 5.515625 40.671875 12.859375 48.328125 
Q 20.21875 56 33.015625 56 
Q 37.15625 56 41.109375 55.140625 
Q 45.0625 54.296875 48.78125 52.59375 
z
" id="DejaVuSans-99"/>
       <path d="M 18.3125 70.21875 
L 18.3125 54.6875 
L 36.8125 54.6875 
L 36.8125 47.703125 
L 18.3125 47.703125 
L 18.3125 18.015625 
Q 18.3125 11.328125 20.140625 9.421875 
Q 21.96875 7.515625 27.59375 7.515625 
L 36.8125 7.515625 
L 36.8125 0 
L 27.59375 0 
Q 17.1875 0 13.234375 3.875 
Q 9.28125 7.765625 9.28125 18.015625 
L 9.28125 47.703125 
L 2.6875 47.703125 
L 2.6875 54.6875 
L 9.28125 54.6875 
L 9.28125 70.21875 
z
" id="DejaVuSans-116"/>
       <path d="M 37.109375 75.984375 
L 37.109375 68.5 
L 28.515625 68.5 
Q 23.6875 68.5 21.796875 66.546875 
Q 19.921875 64.59375 19.921875 59.515625 
L 19.921875 54.6875 
L 34.71875 54.6875 
L 34.71875 47.703125 
L 19.921875 47.703125 
L 19.921875 0 
L 10.890625 0 
L 10.890625 47.703125 
L 2.296875 47.703125 
L 2.296875 54.6875 
L 10.890625 54.6875 
L 10.890625 58.5 
Q 10.890625 67.625 15.140625 71.796875 
Q 19.390625 75.984375 28.609375 75.984375 
z
" id="DejaVuSans-102"/>
       <path d="M 8.5 21.578125 
L 8.5 54.6875 
L 17.484375 54.6875 
L 17.484375 21.921875 
Q 17.484375 14.15625 20.5 10.265625 
Q 23.53125 6.390625 29.59375 6.390625 
Q 36.859375 6.390625 41.078125 11.03125 
Q 45.3125 15.671875 45.3125 23.6875 
L 45.3125 54.6875 
L 54.296875 54.6875 
L 54.296875 0 
L 45.3125 0 
L 45.3125 8.40625 
Q 42.046875 3.421875 37.71875 1 
Q 33.40625 -1.421875 27.6875 -1.421875 
Q 18.265625 -1.421875 13.375 4.4375 
Q 8.5 10.296875 8.5 21.578125 
z
M 31.109375 56 
z
" id="DejaVuSans-117"/>
       <path d="M 11.71875 12.40625 
L 22.015625 12.40625 
L 22.015625 4 
L 14.015625 -11.625 
L 7.71875 -11.625 
L 11.71875 4 
z
" id="DejaVuSans-44"/>
       <path d="M 18.109375 8.203125 
L 18.109375 -20.796875 
L 9.078125 -20.796875 
L 9.078125 54.6875 
L 18.109375 54.6875 
L 18.109375 46.390625 
Q 20.953125 51.265625 25.265625 53.625 
Q 29.59375 56 35.59375 56 
Q 45.5625 56 51.78125 48.09375 
Q 58.015625 40.1875 58.015625 27.296875 
Q 58.015625 14.40625 51.78125 6.484375 
Q 45.5625 -1.421875 35.59375 -1.421875 
Q 29.59375 -1.421875 25.265625 0.953125 
Q 20.953125 3.328125 18.109375 8.203125 
z
M 48.6875 27.296875 
Q 48.6875 37.203125 44.609375 42.84375 
Q 40.53125 48.484375 33.40625 48.484375 
Q 26.265625 48.484375 22.1875 42.84375 
Q 18.109375 37.203125 18.109375 27.296875 
Q 18.109375 17.390625 22.1875 11.75 
Q 26.265625 6.109375 33.40625 6.109375 
Q 40.53125 6.109375 44.609375 11.75 
Q 48.6875 17.390625 48.6875 27.296875 
z
" id="DejaVuSans-112"/>
      </defs>
      <use xlink:href="#DejaVuSans-70"/>
      <use x="50.269531" xlink:href="#DejaVuSans-114"/>
      <use x="91.382812" xlink:href="#DejaVuSans-97"/>
      <use x="152.662109" xlink:href="#DejaVuSans-99"/>
      <use x="207.642578" xlink:href="#DejaVuSans-116"/>
      <use x="246.851562" xlink:href="#DejaVuSans-105"/>
      <use x="274.634766" xlink:href="#DejaVuSans-111"/>
      <use x="335.816406" xlink:href="#DejaVuSans-110"/>
      <use x="399.195312" xlink:href="#DejaVuSans-32"/>
      <use x="430.982422" xlink:href="#DejaVuSans-111"/>
      <use x="492.164062" xlink:href="#DejaVuSans-102"/>
      <use x="527.369141" xlink:href="#DejaVuSans-32"/>
      <use x="559.15625" xlink:href="#DejaVuSans-102"/>
      <use x="594.361328" xlink:href="#DejaVuSans-117"/>
      <use x="657.740234" xlink:href="#DejaVuSans-110"/>
      <use x="721.119141" xlink:href="#DejaVuSans-99"/>
      <use x="776.099609" xlink:href="#DejaVuSans-116"/>
      <use x="815.308594" xlink:href="#DejaVuSans-105"/>
      <use x="843.091797" xlink:href="#DejaVuSans-111"/>
      <use x="904.273438" xlink:href="#DejaVuSans-110"/>
      <use x="967.652344" xlink:href="#DejaVuSans-44"/>
      <use x="999.439453" xlink:href="#DejaVuSans-116"/>
      <use x="1038.648438" xlink:href="#DejaVuSans-97"/>
      <use x="1099.927734" xlink:href="#DejaVuSans-114"/>
      <use x="1139.291016" xlink:href="#DejaVuSans-103"/>
      <use x="1202.767578" xlink:href="#DejaVuSans-101"/>
      <use x="1264.291016" xlink:href="#DejaVuSans-116"/>
      <use x="1303.5" xlink:href="#DejaVuSans-32"/>
      <use x="1335.287109" xlink:href="#DejaVuSans-112"/>
      <use x="1398.763672" xlink:href="#DejaVuSans-97"/>
      <use x="1460.042969" xlink:href="#DejaVuSans-105"/>
      <use x="1487.826172" xlink:href="#DejaVuSans-114"/>
      <use x="1528.939453" xlink:href="#DejaVuSans-115"/>
     </g>
    </g>
   </g>
   <g id="line2d_29">
    <defs>
     <path d="M 0 1.5 
C 0.397805 1.5 0.77937 1.341951 1.06066 1.06066 
C 1.341951 0.77937 1.5 0.397805 1.5 0 
C 1.5 -0.397805 1.341951 -0.77937 1.06066 -1.06066 
C 0.77937 -1.341951 0.397805 -1.5 0 -1.5 
C -0.397805 -1.5 -0.77937 -1.341951 -1.06066 -1.06066 
C -1.341951 -0.77937 -1.5 -0.397805 -1.5 0 
C -1.5 0.397805 -1.341951 0.77937 -1.06066 1.06066 
C -0.77937 1.341951 -0.397805 1.5 0 1.5 
z
" id="m636ff66cb1" style="stroke:#000080;"/>
    </defs>
    <g>
     <use style="fill:#000080;stroke:#000080;" x="232.773658" xlink:href="#m636ff66cb1" y="27.648"/>
     <use style="fill:#000080;stroke:#000080;" x="232.773658" xlink:href="#m636ff66cb1" y="27.648"/>
    </g>
   </g>
   <g id="line2d_30">
    <path d="M 107.31183 298.944 
L 107.31183 298.502868 
L 108.09849 298.502868 
L 108.09849 297.620605 
L 118.264583 297.620605 
L 118.264583 297.179473 
L 118.487648 297.179473 
L 118.487648 296.738341 
L 118.634901 296.738341 
L 118.634901 296.29721 
L 122.707486 296.29721 
L 122.707486 295.856078 
L 126.053378 295.856078 
L 126.102752 294.973815 
L 126.493149 294.973815 
L 126.493149 294.091551 
L 127.110755 294.091551 
L 127.110755 293.65042 
L 127.480982 293.65042 
L 127.480982 293.209288 
L 129.188317 293.209288 
L 129.188317 292.768156 
L 132.656392 292.768156 
L 132.656392 292.327024 
L 133.672565 292.327024 
L 133.672565 291.885893 
L 133.999446 291.885893 
L 133.999446 291.003629 
L 135.131309 291.003629 
L 135.131309 290.562498 
L 136.28521 290.562498 
L 136.28521 290.121366 
L 139.568511 290.121366 
L 139.568511 289.680234 
L 140.485756 289.680234 
L 140.485756 289.239102 
L 140.622984 289.239102 
L 140.691224 288.356839 
L 141.006446 288.356839 
L 141.006446 287.915707 
L 141.964094 287.915707 
L 141.964094 287.474576 
L 142.59016 287.474576 
L 142.692509 286.592312 
L 142.773988 286.592312 
L 142.773988 286.15118 
L 143.452675 286.15118 
L 143.452675 285.710049 
L 144.722415 285.710049 
L 144.722415 285.268917 
L 145.317653 285.268917 
L 145.317653 284.827785 
L 145.547065 284.827785 
L 145.617094 283.945522 
L 145.773713 283.945522 
L 145.773713 283.50439 
L 146.521178 283.50439 
L 146.521178 283.063259 
L 146.752911 283.063259 
L 146.752911 282.622127 
L 147.240074 282.622127 
L 147.336011 281.298732 
L 147.699301 281.298732 
L 147.777358 280.416468 
L 148.162854 280.416468 
L 148.162854 279.975337 
L 149.20202 279.975337 
L 149.20202 279.534205 
L 150.39125 279.534205 
L 150.39125 279.093073 
L 150.767091 279.093073 
L 150.767091 278.651941 
L 150.88632 278.651941 
L 150.88632 278.21081 
L 151.458579 278.21081 
L 151.560781 276.887415 
L 151.662431 276.887415 
L 151.662431 276.446283 
L 151.801309 276.446283 
L 151.801309 276.005151 
L 151.914178 276.005151 
L 151.914178 275.56402 
L 152.61371 275.56402 
L 152.673849 274.681756 
L 153.542139 274.681756 
L 153.542139 274.240624 
L 153.724721 274.240624 
L 153.724721 273.799493 
L 154.051201 273.799493 
L 154.140277 272.917229 
L 154.295151 272.917229 
L 154.383081 271.593834 
L 154.698427 271.593834 
L 154.698427 271.152702 
L 155.230012 271.152702 
L 155.230012 270.711571 
L 155.500611 270.711571 
L 155.593381 268.947044 
L 155.848699 268.947044 
L 155.848699 268.505912 
L 156.447685 268.505912 
L 156.526128 267.623649 
L 156.759513 267.623649 
L 156.817409 266.741385 
L 156.875128 266.741385 
L 156.875128 266.300254 
L 156.999582 266.300254 
L 156.999582 265.859122 
L 157.628256 265.859122 
L 157.628256 265.41799 
L 158.236597 265.41799 
L 158.236597 264.976859 
L 158.361266 264.976859 
L 158.361266 264.535727 
L 158.485114 264.535727 
L 158.511547 263.653463 
L 158.660637 263.653463 
L 158.712976 262.7712 
L 158.895025 262.7712 
L 158.895025 262.330068 
L 159.083872 262.330068 
L 159.083872 261.888937 
L 159.380456 261.888937 
L 159.380456 261.447805 
L 159.497793 261.447805 
L 159.564516 260.12441 
L 160.033184 260.12441 
L 160.033184 259.683278 
L 160.267222 259.683278 
L 160.32328 258.801015 
L 160.45079 258.801015 
L 160.45079 258.359883 
L 160.593212 258.359883 
L 160.593212 257.47762 
L 160.718911 257.47762 
L 160.718911 257.036488 
L 161.175299 257.036488 
L 161.175299 256.595356 
L 161.486053 256.595356 
L 161.486053 256.154224 
L 162.012337 256.154224 
L 162.012337 255.713093 
L 162.266453 255.713093 
L 162.266453 255.271961 
L 162.402977 255.271961 
L 162.510064 253.948566 
L 162.673089 253.948566 
L 162.757588 253.066302 
L 162.848702 253.066302 
L 162.848702 252.625171 
L 163.393104 252.625171 
L 163.481198 251.301776 
L 163.729694 251.301776 
L 163.729694 250.860644 
L 163.922193 250.860644 
L 163.922193 250.419512 
L 164.742744 250.419512 
L 164.742744 249.97838 
L 164.962728 249.97838 
L 164.962728 249.537249 
L 165.118299 249.537249 
L 165.118299 249.096117 
L 165.241836 249.096117 
L 165.241836 248.654985 
L 165.510796 248.654985 
L 165.510796 248.213854 
L 165.716026 248.213854 
L 165.716026 247.772722 
L 165.966492 247.772722 
L 165.966492 247.33159 
L 166.125763 247.33159 
L 166.143377 246.449327 
L 166.566974 246.449327 
L 166.566974 246.008195 
L 166.692785 246.008195 
L 166.749695 245.125932 
L 166.812098 245.125932 
L 166.902497 244.243668 
L 167.009285 244.243668 
L 167.009285 243.802537 
L 167.583307 243.802537 
L 167.583307 243.361405 
L 167.707923 243.361405 
L 167.761848 242.479141 
L 167.997296 242.479141 
L 167.997296 242.03801 
L 168.235086 242.03801 
L 168.303225 241.155746 
L 168.516522 241.155746 
L 168.516522 240.714615 
L 168.834543 240.714615 
L 168.834543 240.273483 
L 168.966324 240.273483 
L 168.966324 239.832351 
L 169.187255 239.832351 
L 169.252036 238.950088 
L 169.301717 238.950088 
L 169.410555 237.185561 
L 169.709079 237.185561 
L 169.77693 236.303298 
L 169.863808 236.303298 
L 169.940698 235.421034 
L 170.074504 235.421034 
L 170.074504 234.979902 
L 170.343988 234.979902 
L 170.343988 234.538771 
L 170.474965 234.538771 
L 170.544758 233.215376 
L 170.605037 233.215376 
L 170.678962 232.333112 
L 170.839667 232.333112 
L 170.935435 231.450849 
L 171.030718 231.450849 
L 171.075922 230.568585 
L 171.26907 230.568585 
L 171.349337 229.686322 
L 171.384902 229.686322 
L 171.384902 229.24519 
L 171.544117 229.24519 
L 171.627606 227.921795 
L 171.81954 227.921795 
L 171.81954 227.480663 
L 172.078152 227.480663 
L 172.176352 226.157268 
L 172.193378 226.157268 
L 172.278277 224.833873 
L 172.362795 224.833873 
L 172.446935 223.95161 
L 172.927662 223.95161 
L 173.017464 222.628215 
L 173.054078 222.628215 
L 173.110892 221.30482 
L 173.240113 221.30482 
L 173.240113 220.863688 
L 173.396409 220.863688 
L 173.396409 220.422556 
L 173.515759 220.422556 
L 173.527653 219.540293 
L 173.838172 219.540293 
L 173.838172 219.099161 
L 173.98573 219.099161 
L 174.08218 217.775766 
L 174.285033 217.775766 
L 174.285033 217.334634 
L 174.512068 217.334634 
L 174.583395 216.452371 
L 174.673108 216.452371 
L 174.710362 215.128976 
L 174.939706 215.128976 
L 174.998441 213.80558 
L 175.224321 213.80558 
L 175.285785 212.482185 
L 175.339851 212.482185 
L 175.339851 212.041054 
L 175.678711 212.041054 
L 175.780948 210.717659 
L 175.847631 210.717659 
L 175.935013 209.394263 
L 176.063597 209.394263 
L 176.063597 208.953132 
L 176.287383 208.953132 
L 176.352298 208.070868 
L 176.565952 208.070868 
L 176.656781 207.188605 
L 176.972921 207.188605 
L 177.081506 205.86521 
L 177.160085 205.86521 
L 177.2546 204.541815 
L 177.393873 204.541815 
L 177.490434 202.336156 
L 177.666184 202.336156 
L 177.767688 201.453893 
L 177.802454 201.453893 
L 177.802454 201.012761 
L 178.267153 201.012761 
L 178.267153 200.571629 
L 178.426665 200.571629 
L 178.435827 198.807102 
L 178.798674 198.807102 
L 178.882341 197.924839 
L 178.995297 197.924839 
L 178.995297 197.483707 
L 179.148777 197.483707 
L 179.148777 197.042576 
L 179.271834 197.042576 
L 179.271834 196.601444 
L 179.475157 196.601444 
L 179.515559 194.836917 
L 179.849856 194.836917 
L 179.892288 193.954654 
L 180.172749 193.954654 
L 180.253306 193.07239 
L 180.289307 193.07239 
L 180.394145 191.748995 
L 180.479241 191.748995 
L 180.528475 190.866732 
L 180.86687 190.866732 
L 180.96054 189.984468 
L 181.01918 189.984468 
L 181.01918 189.543337 
L 181.167627 189.543337 
L 181.167627 189.102205 
L 181.317531 189.102205 
L 181.317531 188.661073 
L 181.649867 188.661073 
L 181.698702 187.77881 
L 181.946058 187.77881 
L 182.03956 186.896546 
L 182.08488 186.896546 
L 182.190204 186.014283 
L 182.197704 186.014283 
L 182.242645 184.690888 
L 182.309856 184.690888 
L 182.309856 184.249756 
L 182.495303 184.249756 
L 182.571423 182.926361 
L 182.630145 182.926361 
L 182.630145 182.485229 
L 182.756748 182.485229 
L 182.780998 181.602966 
L 183.122009 181.602966 
L 183.195641 180.720702 
L 183.283147 180.720702 
L 183.386682 178.956176 
L 183.610618 178.956176 
L 183.684675 178.073912 
L 183.79292 178.073912 
L 183.841084 177.191649 
L 184.177074 177.191649 
L 184.260143 175.868254 
L 184.52043 175.868254 
L 184.590996 174.98599 
L 184.761902 174.98599 
L 184.829397 173.221463 
L 184.965823 173.221463 
L 184.998161 172.3392 
L 185.436723 172.3392 
L 185.480862 171.015805 
L 185.550014 171.015805 
L 185.550014 170.574673 
L 185.745612 170.574673 
L 185.760097 169.69241 
L 185.922799 169.69241 
L 186.014852 167.927883 
L 186.088172 167.927883 
L 186.088172 167.486751 
L 186.296383 167.486751 
L 186.370618 166.163356 
L 186.426601 166.163356 
L 186.426601 165.722224 
L 186.609384 165.722224 
L 186.688304 164.398829 
L 186.743352 164.398829 
L 186.806067 162.634302 
L 187.027805 162.634302 
L 187.08187 161.310907 
L 187.158836 161.310907 
L 187.262244 159.54638 
L 187.48625 159.54638 
L 187.587878 157.340722 
L 187.649715 157.340722 
L 187.655327 156.458459 
L 187.813627 156.458459 
L 187.920884 154.693932 
L 188.078804 154.693932 
L 188.13905 153.811668 
L 188.202738 153.811668 
L 188.22271 152.929405 
L 188.412289 152.929405 
L 188.458939 151.60601 
L 188.761139 151.60601 
L 188.787572 150.723746 
L 188.889432 150.723746 
L 188.926177 149.841483 
L 189.001193 149.841483 
L 189.067238 148.518088 
L 189.174501 148.518088 
L 189.282871 146.312429 
L 189.306868 146.312429 
L 189.380384 144.989034 
L 189.548558 144.989034 
L 189.644708 143.665639 
L 189.678328 143.665639 
L 189.715242 141.901112 
L 189.800536 141.901112 
L 189.855521 140.136585 
L 190.00962 140.136585 
L 190.108373 138.81319 
L 190.123141 138.81319 
L 190.218038 135.725268 
L 190.258794 135.725268 
L 190.348149 133.51961 
L 190.374063 133.51961 
L 190.445145 131.755083 
L 190.53683 131.755083 
L 190.62328 129.990556 
L 190.718871 129.990556 
L 190.799744 129.108293 
L 190.847154 129.108293 
L 190.847154 128.667161 
L 190.973 128.667161 
L 191.01059 125.138107 
L 191.112021 125.138107 
L 191.222194 123.37358 
L 191.233021 123.37358 
L 191.317876 122.491317 
L 191.348638 122.491317 
L 191.439093 121.609054 
L 191.471184 121.609054 
L 191.571688 118.962263 
L 191.583833 118.962263 
L 191.694303 117.638868 
L 191.805628 117.638868 
L 191.886451 114.109815 
L 191.925242 114.109815 
L 191.974362 112.345288 
L 192.181336 112.345288 
L 192.278126 109.698498 
L 192.307358 109.698498 
L 192.418027 106.169444 
L 192.425285 106.169444 
L 192.513609 104.846049 
L 192.549688 104.846049 
L 192.643171 102.199259 
L 192.753314 102.199259 
L 192.825913 100.875863 
L 192.884074 100.875863 
L 192.884074 100.434732 
L 193.025181 100.434732 
L 193.086934 99.552468 
L 193.165237 99.552468 
L 193.262659 94.70002 
L 193.290402 94.70002 
L 193.315335 93.376624 
L 193.476602 93.376624 
L 193.587443 90.288702 
L 193.599719 90.288702 
L 193.599719 89.847571 
L 193.716616 89.847571 
L 193.805838 88.083044 
L 193.962971 88.083044 
L 194.007054 85.436254 
L 194.18104 85.436254 
L 194.274669 81.9072 
L 194.311466 81.9072 
L 194.390074 79.701541 
L 194.456634 79.701541 
L 194.463146 76.61362 
L 194.579993 76.61362 
L 194.68325 74.407961 
L 194.711547 74.407961 
L 194.802579 69.11438 
L 194.877892 69.11438 
L 194.947828 68.232117 
L 194.99473 68.232117 
L 195.090704 65.585327 
L 195.122168 65.585327 
L 195.223751 62.497405 
L 195.271219 62.497405 
L 195.345924 59.409483 
L 195.402999 59.409483 
L 195.510472 55.880429 
L 195.54862 55.880429 
L 195.575645 54.998166 
L 195.690682 54.998166 
L 195.734553 54.115902 
L 195.844996 54.115902 
L 195.940351 51.910244 
L 195.987248 51.910244 
L 196.037622 51.02798 
L 196.166538 51.02798 
L 196.273297 50.145717 
L 196.352382 50.145717 
L 196.352382 48.38119 
L 206.560328 48.38119 
L 206.560328 47.057795 
L 206.75308 47.057795 
L 206.75308 46.175532 
L 207.511435 46.175532 
L 207.511435 45.7344 
L 207.641157 45.7344 
L 207.653434 44.411005 
L 207.826399 44.411005 
L 207.930438 43.08761 
L 207.959059 43.08761 
L 208.033905 42.205346 
L 208.371425 42.205346 
L 208.371425 41.764215 
L 208.550263 41.764215 
L 208.619116 39.999688 
L 208.692608 39.999688 
L 208.795017 38.235161 
L 208.819318 38.235161 
L 208.819318 37.794029 
L 208.998779 37.794029 
L 209.10851 36.911766 
L 209.414511 36.911766 
L 209.414511 34.706107 
L 215.434616 34.706107 
L 215.434616 34.264976 
L 215.578011 34.264976 
L 215.688744 33.382712 
L 216.356878 33.382712 
L 216.440067 32.500449 
L 216.541424 32.500449 
L 216.608559 31.618185 
L 216.681453 31.618185 
L 216.762823 30.29479 
L 217.049585 30.29479 
L 217.049585 29.412527 
L 221.657676 29.412527 
L 221.657676 28.971395 
L 225.713186 28.971395 
L 225.713186 28.530263 
L 229.412313 28.530263 
L 229.412313 28.089132 
L 232.773658 28.089132 
L 232.773658 27.648 
L 360.8064 27.648 
L 360.8064 27.648 
" style="fill:none;stroke:#000080;stroke-linecap:square;stroke-width:1.5;"/>
   </g>
   <g id="line2d_31">
    <defs>
     <path d="M 0 6 
C 1.591219 6 3.117479 5.367802 4.242641 4.242641 
C 5.367802 3.117479 6 1.591219 6 0 
C 6 -1.591219 5.367802 -3.117479 4.242641 -4.242641 
C 3.117479 -5.367802 1.591219 -6 0 -6 
C -1.591219 -6 -3.117479 -5.367802 -4.242641 -4.242641 
C -5.367802 -3.117479 -6 -1.591219 -6 0 
C -6 1.591219 -5.367802 3.117479 -4.242641 4.242641 
C -3.117479 5.367802 -1.591219 6 0 6 
z
" id="m79e0683c12" style="stroke:#000080;stroke-width:1.5;"/>
    </defs>
    <g>
     <use style="fill-opacity:0;stroke:#000080;stroke-width:1.5;" x="170.605037" xlink:href="#m79e0683c12" y="232.774244"/>
     <use style="fill-opacity:0;stroke:#000080;stroke-width:1.5;" x="195.402999" xlink:href="#m79e0683c12" y="58.968351"/>
     <use style="fill-opacity:0;stroke:#000080;stroke-width:1.5;" x="232.773658" xlink:href="#m79e0683c12" y="28.089132"/>
     <use style="fill-opacity:0;stroke:#000080;stroke-width:1.5;" x="232.773658" xlink:href="#m79e0683c12" y="27.648"/>
     <use style="fill-opacity:0;stroke:#000080;stroke-width:1.5;" x="360.8064" xlink:href="#m79e0683c12" y="27.648"/>
    </g>
   </g>
   <g id="line2d_32">
    <path style="fill:none;stroke:#000080;stroke-linecap:square;stroke-width:1.5;"/>
    <g/>
   </g>
   <g id="line2d_33">
    <path clip-path="url(#p06d81709ad)" d="M 196.398264 48.38119 
" style="fill:none;stroke:#000080;stroke-linecap:square;stroke-width:1.5;"/>
    <defs>
     <path d="M -12 12 
L 12 -12 
M -12 -12 
L 12 12 
" id="m5a33655ae3" style="stroke:#000080;"/>
    </defs>
    <g clip-path="url(#p06d81709ad)">
     <use style="fill:#000080;stroke:#000080;" x="196.398264" xlink:href="#m5a33655ae3" y="48.38119"/>
    </g>
   </g>
   <g id="line2d_34">
    <defs>
     <path d="M 0 1.5 
C 0.397805 1.5 0.77937 1.341951 1.06066 1.06066 
C 1.341951 0.77937 1.5 0.397805 1.5 0 
C 1.5 -0.397805 1.341951 -0.77937 1.06066 -1.06066 
C 0.77937 -1.341951 0.397805 -1.5 0 -1.5 
C -0.397805 -1.5 -0.77937 -1.341951 -1.06066 -1.06066 
C -1.341951 -0.77937 -1.5 -0.397805 -1.5 0 
C -1.5 0.397805 -1.341951 0.77937 -1.06066 1.06066 
C -0.77937 1.341951 -0.397805 1.5 0 1.5 
z
" id="m0f9fdb6de5" style="stroke:#ff00ff;"/>
    </defs>
    <g>
     <use style="fill:#ff00ff;stroke:#ff00ff;" x="261.861745" xlink:href="#m0f9fdb6de5" y="27.648"/>
     <use style="fill:#ff00ff;stroke:#ff00ff;" x="261.861745" xlink:href="#m0f9fdb6de5" y="27.648"/>
    </g>
   </g>
   <g id="line2d_35">
    <path d="M 154.459684 298.944 
L 154.459684 298.502868 
L 156.66262 298.502868 
L 156.66262 298.061737 
L 159.688986 298.061737 
L 159.688986 297.620605 
L 160.522136 297.620605 
L 160.522136 297.179473 
L 161.266784 297.179473 
L 161.266784 296.738341 
L 161.799151 296.738341 
L 161.799151 296.29721 
L 162.02695 296.29721 
L 162.02695 295.856078 
L 162.186957 295.856078 
L 162.186957 295.414946 
L 162.637769 295.414946 
L 162.637769 294.973815 
L 163.022691 294.973815 
L 163.022691 294.532683 
L 163.676243 294.532683 
L 163.676243 294.091551 
L 163.90898 294.091551 
L 163.90898 293.65042 
L 164.047252 293.65042 
L 164.047252 293.209288 
L 164.294905 293.209288 
L 164.294905 292.768156 
L 164.423951 292.768156 
L 164.423951 292.327024 
L 165.130689 292.327024 
L 165.130689 291.444761 
L 165.480425 291.444761 
L 165.504725 290.562498 
L 165.841676 290.562498 
L 165.841676 290.121366 
L 166.066931 290.121366 
L 166.066931 289.680234 
L 166.376665 289.680234 
L 166.376665 289.239102 
L 166.60137 289.239102 
L 166.60137 288.797971 
L 166.919399 288.797971 
L 166.964396 287.915707 
L 167.512505 287.915707 
L 167.512505 287.474576 
L 167.729512 287.474576 
L 167.729512 287.033444 
L 167.976013 287.033444 
L 167.976013 286.592312 
L 168.203554 286.592312 
L 168.271807 285.710049 
L 168.469907 285.710049 
L 168.469907 285.268917 
L 168.645404 285.268917 
L 168.645404 284.827785 
L 169.162279 284.827785 
L 169.162279 284.386654 
L 169.286826 284.386654 
L 169.301717 283.50439 
L 169.504047 283.50439 
L 169.504047 283.063259 
L 169.863808 283.063259 
L 169.916704 282.180995 
L 170.041141 282.180995 
L 170.041141 281.739863 
L 170.642035 281.739863 
L 170.67435 280.416468 
L 171.035243 280.416468 
L 171.102992 279.534205 
L 171.242237 279.534205 
L 171.327075 278.651941 
L 171.433694 278.651941 
L 171.433694 278.21081 
L 171.7369 278.21081 
L 171.7369 277.769678 
L 172.176352 277.769678 
L 172.257088 276.887415 
L 172.417529 276.887415 
L 172.417529 276.446283 
L 172.701262 276.446283 
L 172.701262 276.005151 
L 172.812744 276.005151 
L 172.903095 274.681756 
L 172.960367 274.681756 
L 173.033746 273.799493 
L 173.650114 273.799493 
L 173.650114 273.358361 
L 173.923741 273.358361 
L 173.923741 272.917229 
L 174.05137 272.917229 
L 174.062929 272.034966 
L 174.243111 272.034966 
L 174.243111 271.593834 
L 174.448019 271.593834 
L 174.46688 270.711571 
L 174.665648 270.711571 
L 174.695469 269.829307 
L 175.042372 269.829307 
L 175.133566 268.947044 
L 175.217076 268.947044 
L 175.217076 268.505912 
L 175.347048 268.505912 
L 175.350646 267.623649 
L 175.868639 267.623649 
L 175.868639 267.182517 
L 175.997677 267.182517 
L 176.063597 266.300254 
L 176.369343 266.300254 
L 176.369343 265.859122 
L 176.59291 265.859122 
L 176.59291 265.41799 
L 177.005892 265.41799 
L 177.074943 264.094595 
L 177.189468 264.094595 
L 177.244844 262.7712 
L 177.432557 262.7712 
L 177.525715 261.447805 
L 177.576916 261.447805 
L 177.576916 261.006673 
L 177.830852 261.006673 
L 177.830852 260.565541 
L 177.959677 260.565541 
L 177.959677 260.12441 
L 178.096954 260.12441 
L 178.205441 259.242146 
L 178.365474 259.242146 
L 178.365474 258.801015 
L 178.484613 258.801015 
L 178.581807 257.47762 
L 178.636258 257.47762 
L 178.636258 257.036488 
L 178.786691 257.036488 
L 178.849516 256.154224 
L 178.935931 256.154224 
L 178.935931 255.713093 
L 179.125246 255.713093 
L 179.125246 255.271961 
L 179.260149 255.271961 
L 179.344702 254.389698 
L 179.541487 254.389698 
L 179.541487 253.948566 
L 179.687736 253.948566 
L 179.687736 253.507434 
L 179.920523 253.507434 
L 179.920523 253.066302 
L 180.119782 253.066302 
L 180.222791 251.301776 
L 180.30037 251.301776 
L 180.402397 250.419512 
L 180.514812 250.419512 
L 180.514812 249.97838 
L 180.713316 249.97838 
L 180.770035 248.213854 
L 180.837334 248.213854 
L 180.837334 247.772722 
L 181.021841 247.772722 
L 181.021841 247.33159 
L 181.275573 247.33159 
L 181.275573 246.890459 
L 181.49222 246.890459 
L 181.515563 246.008195 
L 181.629267 246.008195 
L 181.680725 244.6848 
L 181.744849 244.6848 
L 181.841902 243.802537 
L 181.90548 243.802537 
L 181.90548 243.361405 
L 182.024429 243.361405 
L 182.024429 242.920273 
L 182.1827 242.920273 
L 182.284991 241.155746 
L 182.394152 241.155746 
L 182.394152 240.714615 
L 182.688683 240.714615 
L 182.720315 239.39122 
L 182.889735 239.39122 
L 182.96188 238.508956 
L 183.076738 238.508956 
L 183.076738 238.067824 
L 183.285507 238.067824 
L 183.393721 236.303298 
L 183.60598 236.303298 
L 183.673123 235.421034 
L 183.786029 235.421034 
L 183.786029 234.979902 
L 183.898262 234.979902 
L 184.000747 234.097639 
L 184.186072 234.097639 
L 184.257902 232.774244 
L 184.320529 232.774244 
L 184.380723 231.89198 
L 184.445161 231.89198 
L 184.544717 230.568585 
L 184.610796 230.568585 
L 184.610796 230.127454 
L 184.948554 230.127454 
L 184.948554 229.686322 
L 185.062668 229.686322 
L 185.062668 229.24519 
L 185.297323 229.24519 
L 185.37982 228.362927 
L 185.464059 228.362927 
L 185.524897 227.039532 
L 185.581363 227.039532 
L 185.591801 226.157268 
L 185.807611 226.157268 
L 185.850889 225.275005 
L 185.920748 225.275005 
L 185.920748 224.833873 
L 186.051548 224.833873 
L 186.155131 223.510478 
L 186.169304 223.510478 
L 186.231942 222.187083 
L 186.44855 222.187083 
L 186.502314 220.422556 
L 186.579703 220.422556 
L 186.579703 219.981424 
L 186.72764 219.981424 
L 186.790408 218.658029 
L 186.905589 218.658029 
L 186.960005 216.893502 
L 187.062579 216.893502 
L 187.110769 215.128976 
L 187.273699 215.128976 
L 187.370783 213.364449 
L 187.471147 213.364449 
L 187.555944 212.041054 
L 187.642231 212.041054 
L 187.733712 210.717659 
L 187.861784 210.717659 
L 187.959569 208.953132 
L 188.055017 208.953132 
L 188.14634 207.629737 
L 188.199105 207.629737 
L 188.268021 206.306341 
L 188.324057 206.306341 
L 188.405102 205.424078 
L 188.478641 205.424078 
L 188.569717 204.541815 
L 188.67276 204.541815 
L 188.739966 203.21842 
L 188.831545 203.21842 
L 188.905189 201.895024 
L 188.943649 201.895024 
L 189.001193 200.130498 
L 189.13651 200.130498 
L 189.193468 198.807102 
L 189.281155 198.807102 
L 189.349645 197.924839 
L 189.39403 197.924839 
L 189.455314 196.601444 
L 189.514705 196.601444 
L 189.560392 195.71918 
L 189.626191 195.71918 
L 189.726972 193.954654 
L 189.795529 193.954654 
L 189.89873 192.631259 
L 190.08702 192.631259 
L 190.177193 191.748995 
L 190.253908 191.748995 
L 190.253908 191.307863 
L 190.382154 191.307863 
L 190.383772 190.4256 
L 190.525595 190.4256 
L 190.588108 189.543337 
L 190.639245 189.543337 
L 190.639245 189.102205 
L 190.889721 189.102205 
L 190.925906 188.219941 
L 191.005895 188.219941 
L 191.091779 186.896546 
L 191.127578 186.896546 
L 191.127578 186.455415 
L 191.282438 186.455415 
L 191.282438 186.014283 
L 191.413074 186.014283 
L 191.518457 183.367493 
L 191.638393 183.367493 
L 191.668635 181.602966 
L 191.763582 181.602966 
L 191.843089 179.838439 
L 191.959491 179.838439 
L 192.060385 178.515044 
L 192.076656 178.515044 
L 192.181336 176.750517 
L 192.197503 176.750517 
L 192.288362 174.103727 
L 192.415123 174.103727 
L 192.50205 171.456937 
L 192.530936 171.456937 
L 192.630255 169.251278 
L 192.691885 169.251278 
L 192.798899 167.927883 
L 192.851469 167.927883 
L 192.891154 167.04562 
L 192.99282 167.04562 
L 193.072917 165.281093 
L 193.110739 165.281093 
L 193.188943 163.516566 
L 193.255717 163.516566 
L 193.265435 162.634302 
L 193.391317 162.634302 
L 193.493064 160.869776 
L 193.677278 160.869776 
L 193.753167 159.105249 
L 193.86374 159.105249 
L 193.958958 156.017327 
L 194.040382 156.017327 
L 194.140013 155.135063 
L 194.154581 155.135063 
L 194.177073 154.2528 
L 194.270723 154.2528 
L 194.314091 150.723746 
L 194.383536 150.723746 
L 194.477467 148.518088 
L 194.511271 148.518088 
L 194.617489 144.989034 
L 194.670374 144.989034 
L 194.742368 141.018849 
L 194.782103 141.018849 
L 194.863873 139.254322 
L 194.922427 139.254322 
L 195.008652 137.048663 
L 195.033937 137.048663 
L 195.120911 131.755083 
L 195.1586 131.755083 
L 195.218747 129.549424 
L 195.282443 129.549424 
L 195.393085 127.784898 
L 195.446309 127.784898 
L 195.512936 124.696976 
L 195.57319 124.696976 
L 195.661378 122.050185 
L 195.687022 122.050185 
L 195.746722 119.844527 
L 195.825624 119.844527 
L 195.905403 116.756605 
L 195.943963 116.756605 
L 196.042412 113.668683 
L 196.089055 113.668683 
L 196.172485 106.610576 
L 196.301664 106.610576 
L 196.391212 105.728312 
L 196.439345 105.728312 
L 196.50372 103.081522 
L 196.552731 103.081522 
L 196.632973 100.875863 
L 196.693221 100.875863 
L 196.803942 96.023415 
L 196.829224 96.023415 
L 196.930013 95.141151 
L 196.968811 95.141151 
L 197.055246 93.817756 
L 197.08699 93.817756 
L 197.163862 92.053229 
L 197.198803 92.053229 
L 197.285311 90.729834 
L 197.375886 90.729834 
L 197.449366 88.524176 
L 197.560156 88.524176 
L 197.637323 86.759649 
L 197.800531 86.759649 
L 197.821242 83.671727 
L 197.914699 83.671727 
L 197.960173 82.348332 
L 198.060476 82.348332 
L 198.108818 81.024937 
L 198.329606 81.024937 
L 198.431127 80.142673 
L 198.453262 80.142673 
L 198.52371 79.26041 
L 198.565642 79.26041 
L 198.576111 77.937015 
L 198.741784 77.937015 
L 198.821494 77.054751 
L 198.88749 77.054751 
L 198.88749 76.61362 
L 199.031055 76.61362 
L 199.041268 75.731356 
L 199.145124 75.731356 
L 199.196837 73.966829 
L 199.459286 73.966829 
L 199.480245 72.202302 
L 199.622343 72.202302 
L 199.725017 69.996644 
L 199.828113 69.996644 
L 199.933569 68.232117 
L 200.013244 68.232117 
L 200.077128 64.261932 
L 200.202331 64.261932 
L 200.229188 61.615141 
L 200.379078 61.615141 
L 200.392386 60.732878 
L 200.493789 60.732878 
L 200.600288 59.409483 
L 200.644407 59.409483 
L 200.691228 58.086088 
L 200.775215 58.086088 
L 200.775215 57.644956 
L 200.921757 57.644956 
L 200.922681 54.998166 
L 201.09648 54.998166 
L 201.09648 54.115902 
L 201.247815 54.115902 
L 201.247815 53.674771 
L 201.37541 53.674771 
L 201.37541 53.233639 
L 201.631591 53.233639 
L 201.735395 50.586849 
L 202.335333 50.586849 
L 202.433631 49.704585 
L 202.786656 49.704585 
L 202.786656 49.263454 
L 203.064053 49.263454 
L 203.064053 48.822322 
L 205.443767 48.822322 
L 205.443767 48.38119 
L 205.866863 48.38119 
L 205.866863 47.940059 
L 206.026008 47.940059 
L 206.026008 47.498927 
L 206.143965 47.498927 
L 206.143965 47.057795 
L 206.276483 47.057795 
L 206.35624 46.175532 
L 206.720187 46.175532 
L 206.720187 45.7344 
L 206.865568 45.7344 
L 206.865568 45.293268 
L 207.157645 45.293268 
L 207.157645 44.852137 
L 207.882958 44.852137 
L 207.882958 44.411005 
L 208.224426 44.411005 
L 208.224426 43.969873 
L 209.194705 43.969873 
L 209.194705 43.528741 
L 209.957476 43.528741 
L 209.957476 43.08761 
L 210.346051 43.08761 
L 210.44599 42.205346 
L 210.784275 42.205346 
L 210.784275 41.764215 
L 210.999618 41.764215 
L 210.999618 40.881951 
L 211.366925 40.881951 
L 211.366925 40.44082 
L 211.480582 40.44082 
L 211.480582 39.999688 
L 213.882469 39.999688 
L 213.882469 39.558556 
L 214.041828 39.558556 
L 214.041828 39.117424 
L 217.463643 39.117424 
L 217.463643 38.676293 
L 218.497647 38.676293 
L 218.497647 38.235161 
L 220.039481 38.235161 
L 220.039481 37.794029 
L 222.869781 37.794029 
L 222.869781 37.352898 
L 226.450175 37.352898 
L 226.450175 36.911766 
L 234.785697 36.911766 
L 234.785697 36.470634 
L 241.713551 36.470634 
L 241.713551 36.029502 
L 257.683123 36.029502 
L 257.683123 35.588371 
L 258.777111 35.588371 
L 258.777111 35.147239 
L 259.572847 35.147239 
L 259.572847 34.706107 
L 261.669078 34.706107 
L 261.776189 30.735922 
L 261.810451 30.735922 
L 261.861745 27.648 
L 360.8064 27.648 
L 360.8064 27.648 
" style="fill:none;stroke:#ff00ff;stroke-linecap:square;stroke-width:1.5;"/>
   </g>
   <g id="line2d_36">
    <defs>
     <path d="M -0 8.485281 
L 5.091169 0 
L 0 -8.485281 
L -5.091169 -0 
z
" id="md872a2ecb0" style="stroke:#ff00ff;stroke-linejoin:miter;stroke-width:1.5;"/>
    </defs>
    <g>
     <use style="fill-opacity:0;stroke:#ff00ff;stroke-linejoin:miter;stroke-width:1.5;" x="194.314091" xlink:href="#md872a2ecb0" y="150.723746"/>
     <use style="fill-opacity:0;stroke:#ff00ff;stroke-linejoin:miter;stroke-width:1.5;" x="208.224426" xlink:href="#md872a2ecb0" y="44.411005"/>
     <use style="fill-opacity:0;stroke:#ff00ff;stroke-linejoin:miter;stroke-width:1.5;" x="261.861745" xlink:href="#md872a2ecb0" y="28.089132"/>
     <use style="fill-opacity:0;stroke:#ff00ff;stroke-linejoin:miter;stroke-width:1.5;" x="261.861745" xlink:href="#md872a2ecb0" y="27.648"/>
     <use style="fill-opacity:0;stroke:#ff00ff;stroke-linejoin:miter;stroke-width:1.5;" x="360.8064" xlink:href="#md872a2ecb0" y="27.648"/>
    </g>
   </g>
   <g id="line2d_37">
    <path style="fill:none;stroke:#ff00ff;stroke-linecap:square;stroke-width:1.5;"/>
    <g/>
   </g>
   <g id="line2d_38">
    <path clip-path="url(#p06d81709ad)" d="M 261.137522 34.706107 
" style="fill:none;stroke:#ff00ff;stroke-linecap:square;stroke-width:1.5;"/>
    <defs>
     <path d="M -12 12 
L 12 -12 
M -12 -12 
L 12 12 
" id="m74739c7428" style="stroke:#ff00ff;"/>
    </defs>
    <g clip-path="url(#p06d81709ad)">
     <use style="fill:#ff00ff;stroke:#ff00ff;" x="261.137522" xlink:href="#m74739c7428" y="34.706107"/>
    </g>
   </g>
   <g id="line2d_39">
    <path d="M 360.8064 27.648 
L 380.514816 293.51808 
" style="fill:none;stroke:#ff00ff;stroke-linecap:square;stroke-width:1.5;"/>
    <g>
     <use style="fill-opacity:0;stroke:#ff00ff;stroke-linejoin:miter;stroke-width:1.5;" x="360.8064" xlink:href="#md872a2ecb0" y="27.648"/>
     <use style="fill-opacity:0;stroke:#ff00ff;stroke-linejoin:miter;stroke-width:1.5;" x="380.514816" xlink:href="#md872a2ecb0" y="293.51808"/>
    </g>
   </g>
   <g id="line2d_40">
    <path d="M 360.8064 27.648 
L 380.514816 33.07392 
" style="fill:none;stroke:#000080;stroke-linecap:square;stroke-width:1.5;"/>
    <g>
     <use style="fill-opacity:0;stroke:#000080;stroke-width:1.5;" x="360.8064" xlink:href="#m79e0683c12" y="27.648"/>
     <use style="fill-opacity:0;stroke:#000080;stroke-width:1.5;" x="380.514816" xlink:href="#m79e0683c12" y="33.07392"/>
    </g>
   </g>
   <g id="line2d_41">
    <path d="M 360.8064 298.944 
L 360.8064 27.648 
" style="fill:none;stroke:#000000;stroke-linecap:square;stroke-width:1.5;"/>
   </g>
   <g id="patch_3">
    <path d="M 57.6 298.944 
L 360.8064 298.944 
" style="fill:none;stroke:#000000;stroke-linecap:square;stroke-linejoin:miter;stroke-width:0.8;"/>
   </g>
   <g id="patch_4">
    <path d="M 57.6 27.648 
L 360.8064 27.648 
" style="fill:none;stroke:#000000;stroke-linecap:square;stroke-linejoin:miter;stroke-width:0.8;"/>
   </g>
   <g id="text_13">
    <!-- al3 -->
    <g transform="translate(386.578944 297.381205)scale(0.14 -0.14)">
     <defs>
      <path d="M 40.578125 39.3125 
Q 47.65625 37.796875 51.625 33 
Q 55.609375 28.21875 55.609375 21.1875 
Q 55.609375 10.40625 48.1875 4.484375 
Q 40.765625 -1.421875 27.09375 -1.421875 
Q 22.515625 -1.421875 17.65625 -0.515625 
Q 12.796875 0.390625 7.625 2.203125 
L 7.625 11.71875 
Q 11.71875 9.328125 16.59375 8.109375 
Q 21.484375 6.890625 26.8125 6.890625 
Q 36.078125 6.890625 40.9375 10.546875 
Q 45.796875 14.203125 45.796875 21.1875 
Q 45.796875 27.640625 41.28125 31.265625 
Q 36.765625 34.90625 28.71875 34.90625 
L 20.21875 34.90625 
L 20.21875 43.015625 
L 29.109375 43.015625 
Q 36.375 43.015625 40.234375 45.921875 
Q 44.09375 48.828125 44.09375 54.296875 
Q 44.09375 59.90625 40.109375 62.90625 
Q 36.140625 65.921875 28.71875 65.921875 
Q 24.65625 65.921875 20.015625 65.03125 
Q 15.375 64.15625 9.8125 62.3125 
L 9.8125 71.09375 
Q 15.4375 72.65625 20.34375 73.4375 
Q 25.25 74.21875 29.59375 74.21875 
Q 40.828125 74.21875 47.359375 69.109375 
Q 53.90625 64.015625 53.90625 55.328125 
Q 53.90625 49.265625 50.4375 45.09375 
Q 46.96875 40.921875 40.578125 39.3125 
z
" id="DejaVuSans-51"/>
     </defs>
     <use xlink:href="#DejaVuSans-97"/>
     <use x="61.279297" xlink:href="#DejaVuSans-108"/>
     <use x="89.0625" xlink:href="#DejaVuSans-51"/>
    </g>
   </g>
   <g id="text_14">
    <!-- al-defaul -->
    <g transform="translate(386.578944 36.937045)scale(0.14 -0.14)">
     <defs>
      <path d="M 4.890625 31.390625 
L 31.203125 31.390625 
L 31.203125 23.390625 
L 4.890625 23.390625 
z
" id="DejaVuSans-45"/>
     </defs>
     <use xlink:href="#DejaVuSans-97"/>
     <use x="61.279297" xlink:href="#DejaVuSans-108"/>
     <use x="89.0625" xlink:href="#DejaVuSans-45"/>
     <use x="125.146484" xlink:href="#DejaVuSans-100"/>
     <use x="188.623047" xlink:href="#DejaVuSans-101"/>
     <use x="250.146484" xlink:href="#DejaVuSans-102"/>
     <use x="285.351562" xlink:href="#DejaVuSans-97"/>
     <use x="346.630859" xlink:href="#DejaVuSans-117"/>
     <use x="410.009766" xlink:href="#DejaVuSans-108"/>
    </g>
   </g>
   <g id="text_15">
    <!-- bbob-constrained f7, 20-D -->
    <g transform="translate(60.632064 38.111366)scale(0.102 -0.102)">
     <defs>
      <path d="M 48.6875 27.296875 
Q 48.6875 37.203125 44.609375 42.84375 
Q 40.53125 48.484375 33.40625 48.484375 
Q 26.265625 48.484375 22.1875 42.84375 
Q 18.109375 37.203125 18.109375 27.296875 
Q 18.109375 17.390625 22.1875 11.75 
Q 26.265625 6.109375 33.40625 6.109375 
Q 40.53125 6.109375 44.609375 11.75 
Q 48.6875 17.390625 48.6875 27.296875 
z
M 18.109375 46.390625 
Q 20.953125 51.265625 25.265625 53.625 
Q 29.59375 56 35.59375 56 
Q 45.5625 56 51.78125 48.09375 
Q 58.015625 40.1875 58.015625 27.296875 
Q 58.015625 14.40625 51.78125 6.484375 
Q 45.5625 -1.421875 35.59375 -1.421875 
Q 29.59375 -1.421875 25.265625 0.953125 
Q 20.953125 3.328125 18.109375 8.203125 
L 18.109375 0 
L 9.078125 0 
L 9.078125 75.984375 
L 18.109375 75.984375 
z
" id="DejaVuSans-98"/>
      <path d="M 8.203125 72.90625 
L 55.078125 72.90625 
L 55.078125 68.703125 
L 28.609375 0 
L 18.3125 0 
L 43.21875 64.59375 
L 8.203125 64.59375 
z
" id="DejaVuSans-55"/>
      <path d="M 19.671875 64.796875 
L 19.671875 8.109375 
L 31.59375 8.109375 
Q 46.6875 8.109375 53.6875 14.9375 
Q 60.6875 21.78125 60.6875 36.53125 
Q 60.6875 51.171875 53.6875 57.984375 
Q 46.6875 64.796875 31.59375 64.796875 
z
M 9.8125 72.90625 
L 30.078125 72.90625 
Q 51.265625 72.90625 61.171875 64.09375 
Q 71.09375 55.28125 71.09375 36.53125 
Q 71.09375 17.671875 61.125 8.828125 
Q 51.171875 0 30.078125 0 
L 9.8125 0 
z
" id="DejaVuSans-68"/>
     </defs>
     <use xlink:href="#DejaVuSans-98"/>
     <use x="63.476562" xlink:href="#DejaVuSans-98"/>
     <use x="126.953125" xlink:href="#DejaVuSans-111"/>
     <use x="188.134766" xlink:href="#DejaVuSans-98"/>
     <use x="251.611328" xlink:href="#DejaVuSans-45"/>
     <use x="287.695312" xlink:href="#DejaVuSans-99"/>
     <use x="342.675781" xlink:href="#DejaVuSans-111"/>
     <use x="403.857422" xlink:href="#DejaVuSans-110"/>
     <use x="467.236328" xlink:href="#DejaVuSans-115"/>
     <use x="519.335938" xlink:href="#DejaVuSans-116"/>
     <use x="558.544922" xlink:href="#DejaVuSans-114"/>
     <use x="599.658203" xlink:href="#DejaVuSans-97"/>
     <use x="660.9375" xlink:href="#DejaVuSans-105"/>
     <use x="688.720703" xlink:href="#DejaVuSans-110"/>
     <use x="752.099609" xlink:href="#DejaVuSans-101"/>
     <use x="813.623047" xlink:href="#DejaVuSans-100"/>
     <use x="877.099609" xlink:href="#DejaVuSans-32"/>
     <use x="908.886719" xlink:href="#DejaVuSans-102"/>
     <use x="944.091797" xlink:href="#DejaVuSans-55"/>
     <use x="1007.714844" xlink:href="#DejaVuSans-44"/>
     <use x="1039.501953" xlink:href="#DejaVuSans-32"/>
     <use x="1071.289062" xlink:href="#DejaVuSans-50"/>
     <use x="1134.912109" xlink:href="#DejaVuSans-48"/>
     <use x="1198.535156" xlink:href="#DejaVuSans-45"/>
     <use x="1234.619141" xlink:href="#DejaVuSans-68"/>
    </g>
    <!-- 41 targets: 100..1e-06 -->
    <g transform="translate(60.632064 49.533135)scale(0.102 -0.102)">
     <defs>
      <path d="M 11.71875 12.40625 
L 22.015625 12.40625 
L 22.015625 0 
L 11.71875 0 
z
M 11.71875 51.703125 
L 22.015625 51.703125 
L 22.015625 39.3125 
L 11.71875 39.3125 
z
" id="DejaVuSans-58"/>
     </defs>
     <use xlink:href="#DejaVuSans-52"/>
     <use x="63.623047" xlink:href="#DejaVuSans-49"/>
     <use x="127.246094" xlink:href="#DejaVuSans-32"/>
     <use x="159.033203" xlink:href="#DejaVuSans-116"/>
     <use x="198.242188" xlink:href="#DejaVuSans-97"/>
     <use x="259.521484" xlink:href="#DejaVuSans-114"/>
     <use x="298.884766" xlink:href="#DejaVuSans-103"/>
     <use x="362.361328" xlink:href="#DejaVuSans-101"/>
     <use x="423.884766" xlink:href="#DejaVuSans-116"/>
     <use x="463.09375" xlink:href="#DejaVuSans-115"/>
     <use x="515.193359" xlink:href="#DejaVuSans-58"/>
     <use x="548.884766" xlink:href="#DejaVuSans-32"/>
     <use x="580.671875" xlink:href="#DejaVuSans-49"/>
     <use x="644.294922" xlink:href="#DejaVuSans-48"/>
     <use x="707.917969" xlink:href="#DejaVuSans-48"/>
     <use x="771.541016" xlink:href="#DejaVuSans-46"/>
     <use x="803.328125" xlink:href="#DejaVuSans-46"/>
     <use x="835.115234" xlink:href="#DejaVuSans-49"/>
     <use x="898.738281" xlink:href="#DejaVuSans-101"/>
     <use x="960.261719" xlink:href="#DejaVuSans-45"/>
     <use x="996.345703" xlink:href="#DejaVuSans-48"/>
     <use x="1059.96875" xlink:href="#DejaVuSans-54"/>
    </g>
    <!-- evals = f-evals + g-evals -->
    <g transform="translate(60.632064 60.954904)scale(0.102 -0.102)">
     <defs>
      <path d="M 10.59375 45.40625 
L 73.1875 45.40625 
L 73.1875 37.203125 
L 10.59375 37.203125 
z
M 10.59375 25.484375 
L 73.1875 25.484375 
L 73.1875 17.1875 
L 10.59375 17.1875 
z
" id="DejaVuSans-61"/>
      <path d="M 46 62.703125 
L 46 35.5 
L 73.1875 35.5 
L 73.1875 27.203125 
L 46 27.203125 
L 46 0 
L 37.796875 0 
L 37.796875 27.203125 
L 10.59375 27.203125 
L 10.59375 35.5 
L 37.796875 35.5 
L 37.796875 62.703125 
z
" id="DejaVuSans-43"/>
     </defs>
     <use xlink:href="#DejaVuSans-101"/>
     <use x="61.523438" xlink:href="#DejaVuSans-118"/>
     <use x="120.703125" xlink:href="#DejaVuSans-97"/>
     <use x="181.982422" xlink:href="#DejaVuSans-108"/>
     <use x="209.765625" xlink:href="#DejaVuSans-115"/>
     <use x="261.865234" xlink:href="#DejaVuSans-32"/>
     <use x="293.652344" xlink:href="#DejaVuSans-61"/>
     <use x="377.441406" xlink:href="#DejaVuSans-32"/>
     <use x="409.228516" xlink:href="#DejaVuSans-102"/>
     <use x="438.933594" xlink:href="#DejaVuSans-45"/>
     <use x="475.017578" xlink:href="#DejaVuSans-101"/>
     <use x="536.541016" xlink:href="#DejaVuSans-118"/>
     <use x="595.720703" xlink:href="#DejaVuSans-97"/>
     <use x="657" xlink:href="#DejaVuSans-108"/>
     <use x="684.783203" xlink:href="#DejaVuSans-115"/>
     <use x="736.882812" xlink:href="#DejaVuSans-32"/>
     <use x="768.669922" xlink:href="#DejaVuSans-43"/>
     <use x="852.458984" xlink:href="#DejaVuSans-32"/>
     <use x="884.246094" xlink:href="#DejaVuSans-103"/>
     <use x="947.722656" xlink:href="#DejaVuSans-45"/>
     <use x="983.806641" xlink:href="#DejaVuSans-101"/>
     <use x="1045.330078" xlink:href="#DejaVuSans-118"/>
     <use x="1104.509766" xlink:href="#DejaVuSans-97"/>
     <use x="1165.789062" xlink:href="#DejaVuSans-108"/>
     <use x="1193.572266" xlink:href="#DejaVuSans-115"/>
    </g>
    <!-- 15 instances -->
    <g transform="translate(60.632064 72.376672)scale(0.102 -0.102)">
     <defs>
      <path d="M 10.796875 72.90625 
L 49.515625 72.90625 
L 49.515625 64.59375 
L 19.828125 64.59375 
L 19.828125 46.734375 
Q 21.96875 47.46875 24.109375 47.828125 
Q 26.265625 48.1875 28.421875 48.1875 
Q 40.625 48.1875 47.75 41.5 
Q 54.890625 34.8125 54.890625 23.390625 
Q 54.890625 11.625 47.5625 5.09375 
Q 40.234375 -1.421875 26.90625 -1.421875 
Q 22.3125 -1.421875 17.546875 -0.640625 
Q 12.796875 0.140625 7.71875 1.703125 
L 7.71875 11.625 
Q 12.109375 9.234375 16.796875 8.0625 
Q 21.484375 6.890625 26.703125 6.890625 
Q 35.15625 6.890625 40.078125 11.328125 
Q 45.015625 15.765625 45.015625 23.390625 
Q 45.015625 31 40.078125 35.4375 
Q 35.15625 39.890625 26.703125 39.890625 
Q 22.75 39.890625 18.8125 39.015625 
Q 14.890625 38.140625 10.796875 36.28125 
z
" id="DejaVuSans-53"/>
     </defs>
     <use xlink:href="#DejaVuSans-49"/>
     <use x="63.623047" xlink:href="#DejaVuSans-53"/>
     <use x="127.246094" xlink:href="#DejaVuSans-32"/>
     <use x="159.033203" xlink:href="#DejaVuSans-105"/>
     <use x="186.816406" xlink:href="#DejaVuSans-110"/>
     <use x="250.195312" xlink:href="#DejaVuSans-115"/>
     <use x="302.294922" xlink:href="#DejaVuSans-116"/>
     <use x="341.503906" xlink:href="#DejaVuSans-97"/>
     <use x="402.783203" xlink:href="#DejaVuSans-110"/>
     <use x="466.162109" xlink:href="#DejaVuSans-99"/>
     <use x="521.142578" xlink:href="#DejaVuSans-101"/>
     <use x="582.666016" xlink:href="#DejaVuSans-115"/>
    </g>
   </g>
   <g id="text_16">
    <!-- v2.6.1.9 -->
    <g style="fill:#808080;" transform="translate(188.751637 294.151352)scale(0.1 -0.1)">
     <defs>
      <path d="M 10.984375 1.515625 
L 10.984375 10.5 
Q 14.703125 8.734375 18.5 7.8125 
Q 22.3125 6.890625 25.984375 6.890625 
Q 35.75 6.890625 40.890625 13.453125 
Q 46.046875 20.015625 46.78125 33.40625 
Q 43.953125 29.203125 39.59375 26.953125 
Q 35.25 24.703125 29.984375 24.703125 
Q 19.046875 24.703125 12.671875 31.3125 
Q 6.296875 37.9375 6.296875 49.421875 
Q 6.296875 60.640625 12.9375 67.421875 
Q 19.578125 74.21875 30.609375 74.21875 
Q 43.265625 74.21875 49.921875 64.515625 
Q 56.59375 54.828125 56.59375 36.375 
Q 56.59375 19.140625 48.40625 8.859375 
Q 40.234375 -1.421875 26.421875 -1.421875 
Q 22.703125 -1.421875 18.890625 -0.6875 
Q 15.09375 0.046875 10.984375 1.515625 
z
M 30.609375 32.421875 
Q 37.25 32.421875 41.125 36.953125 
Q 45.015625 41.5 45.015625 49.421875 
Q 45.015625 57.28125 41.125 61.84375 
Q 37.25 66.40625 30.609375 66.40625 
Q 23.96875 66.40625 20.09375 61.84375 
Q 16.21875 57.28125 16.21875 49.421875 
Q 16.21875 41.5 20.09375 36.953125 
Q 23.96875 32.421875 30.609375 32.421875 
z
" id="DejaVuSans-57"/>
     </defs>
     <use xlink:href="#DejaVuSans-118"/>
     <use x="59.179688" xlink:href="#DejaVuSans-50"/>
     <use x="122.802734" xlink:href="#DejaVuSans-46"/>
     <use x="154.589844" xlink:href="#DejaVuSans-54"/>
     <use x="218.212891" xlink:href="#DejaVuSans-46"/>
     <use x="250" xlink:href="#DejaVuSans-49"/>
     <use x="313.623047" xlink:href="#DejaVuSans-46"/>
     <use x="345.410156" xlink:href="#DejaVuSans-57"/>
    </g>
   </g>
   <g id="text_17">
    <!-- 7 Sep. Ellipsoid, m=1 -->
    <g transform="translate(102.161012 21.648)scale(0.2 -0.2)">
     <defs>
      <path d="M 53.515625 70.515625 
L 53.515625 60.890625 
Q 47.90625 63.578125 42.921875 64.890625 
Q 37.9375 66.21875 33.296875 66.21875 
Q 25.25 66.21875 20.875 63.09375 
Q 16.5 59.96875 16.5 54.203125 
Q 16.5 49.359375 19.40625 46.890625 
Q 22.3125 44.4375 30.421875 42.921875 
L 36.375 41.703125 
Q 47.40625 39.59375 52.65625 34.296875 
Q 57.90625 29 57.90625 20.125 
Q 57.90625 9.515625 50.796875 4.046875 
Q 43.703125 -1.421875 29.984375 -1.421875 
Q 24.8125 -1.421875 18.96875 -0.25 
Q 13.140625 0.921875 6.890625 3.21875 
L 6.890625 13.375 
Q 12.890625 10.015625 18.65625 8.296875 
Q 24.421875 6.59375 29.984375 6.59375 
Q 38.421875 6.59375 43.015625 9.90625 
Q 47.609375 13.234375 47.609375 19.390625 
Q 47.609375 24.75 44.3125 27.78125 
Q 41.015625 30.8125 33.5 32.328125 
L 27.484375 33.5 
Q 16.453125 35.6875 11.515625 40.375 
Q 6.59375 45.0625 6.59375 53.421875 
Q 6.59375 63.09375 13.40625 68.65625 
Q 20.21875 74.21875 32.171875 74.21875 
Q 37.3125 74.21875 42.625 73.28125 
Q 47.953125 72.359375 53.515625 70.515625 
z
" id="DejaVuSans-83"/>
      <path d="M 9.8125 72.90625 
L 55.90625 72.90625 
L 55.90625 64.59375 
L 19.671875 64.59375 
L 19.671875 43.015625 
L 54.390625 43.015625 
L 54.390625 34.71875 
L 19.671875 34.71875 
L 19.671875 8.296875 
L 56.78125 8.296875 
L 56.78125 0 
L 9.8125 0 
z
" id="DejaVuSans-69"/>
     </defs>
     <use xlink:href="#DejaVuSans-55"/>
     <use x="63.623047" xlink:href="#DejaVuSans-32"/>
     <use x="95.410156" xlink:href="#DejaVuSans-83"/>
     <use x="158.886719" xlink:href="#DejaVuSans-101"/>
     <use x="220.410156" xlink:href="#DejaVuSans-112"/>
     <use x="283.886719" xlink:href="#DejaVuSans-46"/>
     <use x="315.673828" xlink:href="#DejaVuSans-32"/>
     <use x="347.460938" xlink:href="#DejaVuSans-69"/>
     <use x="410.644531" xlink:href="#DejaVuSans-108"/>
     <use x="438.427734" xlink:href="#DejaVuSans-108"/>
     <use x="466.210938" xlink:href="#DejaVuSans-105"/>
     <use x="493.994141" xlink:href="#DejaVuSans-112"/>
     <use x="557.470703" xlink:href="#DejaVuSans-115"/>
     <use x="609.570312" xlink:href="#DejaVuSans-111"/>
     <use x="670.751953" xlink:href="#DejaVuSans-105"/>
     <use x="698.535156" xlink:href="#DejaVuSans-100"/>
     <use x="762.011719" xlink:href="#DejaVuSans-44"/>
     <use x="793.798828" xlink:href="#DejaVuSans-32"/>
     <use x="825.585938" xlink:href="#DejaVuSans-109"/>
     <use x="922.998047" xlink:href="#DejaVuSans-61"/>
     <use x="1006.787109" xlink:href="#DejaVuSans-49"/>
    </g>
   </g>
  </g>
 </g>
 <defs>
  <clipPath id="p06d81709ad">
   <rect height="271.296" width="303.2064" x="57.6" y="27.648"/>
  </clipPath>
 </defs>
</svg>
