<?xml version="1.0" encoding="utf-8" standalone="no"?>
<!DOCTYPE svg PUBLIC "-//W3C//DTD SVG 1.1//EN"
  "http://www.w3.org/Graphics/SVG/1.1/DTD/svg11.dtd">
<!-- Created with matplotlib (https://matplotlib.org/) -->
<svg height="345.6pt" version="1.1" viewBox="0 0 460.8 345.6" width="460.8pt" xmlns="http://www.w3.org/2000/svg" xmlns:xlink="http://www.w3.org/1999/xlink">
 <metadata>
  <rdf:RDF xmlns:cc="http://creativecommons.org/ns#" xmlns:dc="http://purl.org/dc/elements/1.1/" xmlns:rdf="http://www.w3.org/1999/02/22-rdf-syntax-ns#">
   <cc:Work>
    <dc:type rdf:resource="http://purl.org/dc/dcmitype/StillImage"/>
    <dc:date>2022-04-26T20:54:08.781231</dc:date>
    <dc:format>image/svg+xml</dc:format>
    <dc:creator>
     <cc:Agent>
      <dc:title>Matplotlib v3.3.3, https://matplotlib.org/</dc:title>
     </cc:Agent>
    </dc:creator>
   </cc:Work>
  </rdf:RDF>
 </metadata>
 <defs>
  <style type="text/css">*{stroke-linecap:butt;stroke-linejoin:round;}</style>
 </defs>
 <g id="figure_1">
  <g id="patch_1">
   <path d="M 0 345.6 
L 460.8 345.6 
L 460.8 0 
L 0 0 
z
" style="fill:#ffffff;"/>
  </g>
  <g id="axes_1">
   <g id="patch_2">
    <path d="M 57.6 298.944 
L 360.8064 298.944 
L 360.8064 27.648 
L 57.6 27.648 
z
" style="fill:#ffffff;"/>
   </g>
   <g id="matplotlib.axis_1">
    <g id="xtick_1">
     <g id="line2d_1">
      <path clip-path="url(#p01584711e3)" d="M 57.6 298.944 
L 57.6 27.648 
" style="fill:none;stroke:#b0b0b0;stroke-linecap:square;stroke-width:0.8;"/>
     </g>
     <g id="line2d_2">
      <defs>
       <path d="M 0 0 
L 0 3.5 
" id="m4ee7decea7" style="stroke:#000000;stroke-width:0.8;"/>
      </defs>
      <g>
       <use style="stroke:#000000;stroke-width:0.8;" x="57.6" xlink:href="#m4ee7decea7" y="298.944"/>
      </g>
     </g>
     <g id="text_1">
      <!-- 0 -->
      <g transform="translate(52.191875 318.861344)scale(0.17 -0.17)">
       <defs>
        <path d="M 31.78125 66.40625 
Q 24.171875 66.40625 20.328125 58.90625 
Q 16.5 51.421875 16.5 36.375 
Q 16.5 21.390625 20.328125 13.890625 
Q 24.171875 6.390625 31.78125 6.390625 
Q 39.453125 6.390625 43.28125 13.890625 
Q 47.125 21.390625 47.125 36.375 
Q 47.125 51.421875 43.28125 58.90625 
Q 39.453125 66.40625 31.78125 66.40625 
z
M 31.78125 74.21875 
Q 44.046875 74.21875 50.515625 64.515625 
Q 56.984375 54.828125 56.984375 36.375 
Q 56.984375 17.96875 50.515625 8.265625 
Q 44.046875 -1.421875 31.78125 -1.421875 
Q 19.53125 -1.421875 13.0625 8.265625 
Q 6.59375 17.96875 6.59375 36.375 
Q 6.59375 54.828125 13.0625 64.515625 
Q 19.53125 74.21875 31.78125 74.21875 
z
" id="DejaVuSans-48"/>
       </defs>
       <use xlink:href="#DejaVuSans-48"/>
      </g>
     </g>
    </g>
    <g id="xtick_2">
     <g id="line2d_3">
      <path clip-path="url(#p01584711e3)" d="M 144.2304 298.944 
L 144.2304 27.648 
" style="fill:none;stroke:#b0b0b0;stroke-linecap:square;stroke-width:0.8;"/>
     </g>
     <g id="line2d_4">
      <g>
       <use style="stroke:#000000;stroke-width:0.8;" x="144.2304" xlink:href="#m4ee7decea7" y="298.944"/>
      </g>
     </g>
     <g id="text_2">
      <!-- 2 -->
      <g transform="translate(138.822275 318.861344)scale(0.17 -0.17)">
       <defs>
        <path d="M 19.1875 8.296875 
L 53.609375 8.296875 
L 53.609375 0 
L 7.328125 0 
L 7.328125 8.296875 
Q 12.9375 14.109375 22.625 23.890625 
Q 32.328125 33.6875 34.8125 36.53125 
Q 39.546875 41.84375 41.421875 45.53125 
Q 43.3125 49.21875 43.3125 52.78125 
Q 43.3125 58.59375 39.234375 62.25 
Q 35.15625 65.921875 28.609375 65.921875 
Q 23.96875 65.921875 18.8125 64.3125 
Q 13.671875 62.703125 7.8125 59.421875 
L 7.8125 69.390625 
Q 13.765625 71.78125 18.9375 73 
Q 24.125 74.21875 28.421875 74.21875 
Q 39.75 74.21875 46.484375 68.546875 
Q 53.21875 62.890625 53.21875 53.421875 
Q 53.21875 48.921875 51.53125 44.890625 
Q 49.859375 40.875 45.40625 35.40625 
Q 44.1875 33.984375 37.640625 27.21875 
Q 31.109375 20.453125 19.1875 8.296875 
z
" id="DejaVuSans-50"/>
       </defs>
       <use xlink:href="#DejaVuSans-50"/>
      </g>
     </g>
    </g>
    <g id="xtick_3">
     <g id="line2d_5">
      <path clip-path="url(#p01584711e3)" d="M 230.8608 298.944 
L 230.8608 27.648 
" style="fill:none;stroke:#b0b0b0;stroke-linecap:square;stroke-width:0.8;"/>
     </g>
     <g id="line2d_6">
      <g>
       <use style="stroke:#000000;stroke-width:0.8;" x="230.8608" xlink:href="#m4ee7decea7" y="298.944"/>
      </g>
     </g>
     <g id="text_3">
      <!-- 4 -->
      <g transform="translate(225.452675 318.861344)scale(0.17 -0.17)">
       <defs>
        <path d="M 37.796875 64.3125 
L 12.890625 25.390625 
L 37.796875 25.390625 
z
M 35.203125 72.90625 
L 47.609375 72.90625 
L 47.609375 25.390625 
L 58.015625 25.390625 
L 58.015625 17.1875 
L 47.609375 17.1875 
L 47.609375 0 
L 37.796875 0 
L 37.796875 17.1875 
L 4.890625 17.1875 
L 4.890625 26.703125 
z
" id="DejaVuSans-52"/>
       </defs>
       <use xlink:href="#DejaVuSans-52"/>
      </g>
     </g>
    </g>
    <g id="xtick_4">
     <g id="line2d_7">
      <path clip-path="url(#p01584711e3)" d="M 317.4912 298.944 
L 317.4912 27.648 
" style="fill:none;stroke:#b0b0b0;stroke-linecap:square;stroke-width:0.8;"/>
     </g>
     <g id="line2d_8">
      <g>
       <use style="stroke:#000000;stroke-width:0.8;" x="317.4912" xlink:href="#m4ee7decea7" y="298.944"/>
      </g>
     </g>
     <g id="text_4">
      <!-- 6 -->
      <g transform="translate(312.083075 318.861344)scale(0.17 -0.17)">
       <defs>
        <path d="M 33.015625 40.375 
Q 26.375 40.375 22.484375 35.828125 
Q 18.609375 31.296875 18.609375 23.390625 
Q 18.609375 15.53125 22.484375 10.953125 
Q 26.375 6.390625 33.015625 6.390625 
Q 39.65625 6.390625 43.53125 10.953125 
Q 47.40625 15.53125 47.40625 23.390625 
Q 47.40625 31.296875 43.53125 35.828125 
Q 39.65625 40.375 33.015625 40.375 
z
M 52.59375 71.296875 
L 52.59375 62.3125 
Q 48.875 64.0625 45.09375 64.984375 
Q 41.3125 65.921875 37.59375 65.921875 
Q 27.828125 65.921875 22.671875 59.328125 
Q 17.53125 52.734375 16.796875 39.40625 
Q 19.671875 43.65625 24.015625 45.921875 
Q 28.375 48.1875 33.59375 48.1875 
Q 44.578125 48.1875 50.953125 41.515625 
Q 57.328125 34.859375 57.328125 23.390625 
Q 57.328125 12.15625 50.6875 5.359375 
Q 44.046875 -1.421875 33.015625 -1.421875 
Q 20.359375 -1.421875 13.671875 8.265625 
Q 6.984375 17.96875 6.984375 36.375 
Q 6.984375 53.65625 15.1875 63.9375 
Q 23.390625 74.21875 37.203125 74.21875 
Q 40.921875 74.21875 44.703125 73.484375 
Q 48.484375 72.75 52.59375 71.296875 
z
" id="DejaVuSans-54"/>
       </defs>
       <use xlink:href="#DejaVuSans-54"/>
      </g>
     </g>
    </g>
    <g id="xtick_5">
     <g id="line2d_9">
      <path clip-path="url(#p01584711e3)" d="M 100.9152 298.944 
L 100.9152 27.648 
" style="fill:none;stroke:#b0b0b0;stroke-linecap:square;stroke-width:0.8;"/>
     </g>
     <g id="line2d_10">
      <defs>
       <path d="M 0 0 
L 0 2 
" id="mc21240bac2" style="stroke:#000000;stroke-width:0.6;"/>
      </defs>
      <g>
       <use style="stroke:#000000;stroke-width:0.6;" x="100.9152" xlink:href="#mc21240bac2" y="298.944"/>
      </g>
     </g>
    </g>
    <g id="xtick_6">
     <g id="line2d_11">
      <path clip-path="url(#p01584711e3)" d="M 187.5456 298.944 
L 187.5456 27.648 
" style="fill:none;stroke:#b0b0b0;stroke-linecap:square;stroke-width:0.8;"/>
     </g>
     <g id="line2d_12">
      <g>
       <use style="stroke:#000000;stroke-width:0.6;" x="187.5456" xlink:href="#mc21240bac2" y="298.944"/>
      </g>
     </g>
    </g>
    <g id="xtick_7">
     <g id="line2d_13">
      <path clip-path="url(#p01584711e3)" d="M 274.176 298.944 
L 274.176 27.648 
" style="fill:none;stroke:#b0b0b0;stroke-linecap:square;stroke-width:0.8;"/>
     </g>
     <g id="line2d_14">
      <g>
       <use style="stroke:#000000;stroke-width:0.6;" x="274.176" xlink:href="#mc21240bac2" y="298.944"/>
      </g>
     </g>
    </g>
    <g id="xtick_8">
     <g id="line2d_15">
      <path clip-path="url(#p01584711e3)" d="M 360.8064 298.944 
L 360.8064 27.648 
" style="fill:none;stroke:#b0b0b0;stroke-linecap:square;stroke-width:0.8;"/>
     </g>
     <g id="line2d_16">
      <g>
       <use style="stroke:#000000;stroke-width:0.6;" x="360.8064" xlink:href="#mc21240bac2" y="298.944"/>
      </g>
     </g>
    </g>
    <g id="text_5">
     <!-- log10(evals / dimension) -->
     <g transform="translate(104.238825 339.314156)scale(0.17 -0.17)">
      <defs>
       <path d="M 9.421875 75.984375 
L 18.40625 75.984375 
L 18.40625 0 
L 9.421875 0 
z
" id="DejaVuSans-108"/>
       <path d="M 30.609375 48.390625 
Q 23.390625 48.390625 19.1875 42.75 
Q 14.984375 37.109375 14.984375 27.296875 
Q 14.984375 17.484375 19.15625 11.84375 
Q 23.34375 6.203125 30.609375 6.203125 
Q 37.796875 6.203125 41.984375 11.859375 
Q 46.1875 17.53125 46.1875 27.296875 
Q 46.1875 37.015625 41.984375 42.703125 
Q 37.796875 48.390625 30.609375 48.390625 
z
M 30.609375 56 
Q 42.328125 56 49.015625 48.375 
Q 55.71875 40.765625 55.71875 27.296875 
Q 55.71875 13.875 49.015625 6.21875 
Q 42.328125 -1.421875 30.609375 -1.421875 
Q 18.84375 -1.421875 12.171875 6.21875 
Q 5.515625 13.875 5.515625 27.296875 
Q 5.515625 40.765625 12.171875 48.375 
Q 18.84375 56 30.609375 56 
z
" id="DejaVuSans-111"/>
       <path d="M 45.40625 27.984375 
Q 45.40625 37.75 41.375 43.109375 
Q 37.359375 48.484375 30.078125 48.484375 
Q 22.859375 48.484375 18.828125 43.109375 
Q 14.796875 37.75 14.796875 27.984375 
Q 14.796875 18.265625 18.828125 12.890625 
Q 22.859375 7.515625 30.078125 7.515625 
Q 37.359375 7.515625 41.375 12.890625 
Q 45.40625 18.265625 45.40625 27.984375 
z
M 54.390625 6.78125 
Q 54.390625 -7.171875 48.1875 -13.984375 
Q 42 -20.796875 29.203125 -20.796875 
Q 24.46875 -20.796875 20.265625 -20.09375 
Q 16.0625 -19.390625 12.109375 -17.921875 
L 12.109375 -9.1875 
Q 16.0625 -11.328125 19.921875 -12.34375 
Q 23.78125 -13.375 27.78125 -13.375 
Q 36.625 -13.375 41.015625 -8.765625 
Q 45.40625 -4.15625 45.40625 5.171875 
L 45.40625 9.625 
Q 42.625 4.78125 38.28125 2.390625 
Q 33.9375 0 27.875 0 
Q 17.828125 0 11.671875 7.65625 
Q 5.515625 15.328125 5.515625 27.984375 
Q 5.515625 40.671875 11.671875 48.328125 
Q 17.828125 56 27.875 56 
Q 33.9375 56 38.28125 53.609375 
Q 42.625 51.21875 45.40625 46.390625 
L 45.40625 54.6875 
L 54.390625 54.6875 
z
" id="DejaVuSans-103"/>
       <path d="M 12.40625 8.296875 
L 28.515625 8.296875 
L 28.515625 63.921875 
L 10.984375 60.40625 
L 10.984375 69.390625 
L 28.421875 72.90625 
L 38.28125 72.90625 
L 38.28125 8.296875 
L 54.390625 8.296875 
L 54.390625 0 
L 12.40625 0 
z
" id="DejaVuSans-49"/>
       <path d="M 31 75.875 
Q 24.46875 64.65625 21.28125 53.65625 
Q 18.109375 42.671875 18.109375 31.390625 
Q 18.109375 20.125 21.3125 9.0625 
Q 24.515625 -2 31 -13.1875 
L 23.1875 -13.1875 
Q 15.875 -1.703125 12.234375 9.375 
Q 8.59375 20.453125 8.59375 31.390625 
Q 8.59375 42.28125 12.203125 53.3125 
Q 15.828125 64.359375 23.1875 75.875 
z
" id="DejaVuSans-40"/>
       <path d="M 56.203125 29.59375 
L 56.203125 25.203125 
L 14.890625 25.203125 
Q 15.484375 15.921875 20.484375 11.0625 
Q 25.484375 6.203125 34.421875 6.203125 
Q 39.59375 6.203125 44.453125 7.46875 
Q 49.3125 8.734375 54.109375 11.28125 
L 54.109375 2.78125 
Q 49.265625 0.734375 44.1875 -0.34375 
Q 39.109375 -1.421875 33.890625 -1.421875 
Q 20.796875 -1.421875 13.15625 6.1875 
Q 5.515625 13.8125 5.515625 26.8125 
Q 5.515625 40.234375 12.765625 48.109375 
Q 20.015625 56 32.328125 56 
Q 43.359375 56 49.78125 48.890625 
Q 56.203125 41.796875 56.203125 29.59375 
z
M 47.21875 32.234375 
Q 47.125 39.59375 43.09375 43.984375 
Q 39.0625 48.390625 32.421875 48.390625 
Q 24.90625 48.390625 20.390625 44.140625 
Q 15.875 39.890625 15.1875 32.171875 
z
" id="DejaVuSans-101"/>
       <path d="M 2.984375 54.6875 
L 12.5 54.6875 
L 29.59375 8.796875 
L 46.6875 54.6875 
L 56.203125 54.6875 
L 35.6875 0 
L 23.484375 0 
z
" id="DejaVuSans-118"/>
       <path d="M 34.28125 27.484375 
Q 23.390625 27.484375 19.1875 25 
Q 14.984375 22.515625 14.984375 16.5 
Q 14.984375 11.71875 18.140625 8.90625 
Q 21.296875 6.109375 26.703125 6.109375 
Q 34.1875 6.109375 38.703125 11.40625 
Q 43.21875 16.703125 43.21875 25.484375 
L 43.21875 27.484375 
z
M 52.203125 31.203125 
L 52.203125 0 
L 43.21875 0 
L 43.21875 8.296875 
Q 40.140625 3.328125 35.546875 0.953125 
Q 30.953125 -1.421875 24.3125 -1.421875 
Q 15.921875 -1.421875 10.953125 3.296875 
Q 6 8.015625 6 15.921875 
Q 6 25.140625 12.171875 29.828125 
Q 18.359375 34.515625 30.609375 34.515625 
L 43.21875 34.515625 
L 43.21875 35.40625 
Q 43.21875 41.609375 39.140625 45 
Q 35.0625 48.390625 27.6875 48.390625 
Q 23 48.390625 18.546875 47.265625 
Q 14.109375 46.140625 10.015625 43.890625 
L 10.015625 52.203125 
Q 14.9375 54.109375 19.578125 55.046875 
Q 24.21875 56 28.609375 56 
Q 40.484375 56 46.34375 49.84375 
Q 52.203125 43.703125 52.203125 31.203125 
z
" id="DejaVuSans-97"/>
       <path d="M 44.28125 53.078125 
L 44.28125 44.578125 
Q 40.484375 46.53125 36.375 47.5 
Q 32.28125 48.484375 27.875 48.484375 
Q 21.1875 48.484375 17.84375 46.4375 
Q 14.5 44.390625 14.5 40.28125 
Q 14.5 37.15625 16.890625 35.375 
Q 19.28125 33.59375 26.515625 31.984375 
L 29.59375 31.296875 
Q 39.15625 29.25 43.1875 25.515625 
Q 47.21875 21.78125 47.21875 15.09375 
Q 47.21875 7.46875 41.1875 3.015625 
Q 35.15625 -1.421875 24.609375 -1.421875 
Q 20.21875 -1.421875 15.453125 -0.5625 
Q 10.6875 0.296875 5.421875 2 
L 5.421875 11.28125 
Q 10.40625 8.6875 15.234375 7.390625 
Q 20.0625 6.109375 24.8125 6.109375 
Q 31.15625 6.109375 34.5625 8.28125 
Q 37.984375 10.453125 37.984375 14.40625 
Q 37.984375 18.0625 35.515625 20.015625 
Q 33.0625 21.96875 24.703125 23.78125 
L 21.578125 24.515625 
Q 13.234375 26.265625 9.515625 29.90625 
Q 5.8125 33.546875 5.8125 39.890625 
Q 5.8125 47.609375 11.28125 51.796875 
Q 16.75 56 26.8125 56 
Q 31.78125 56 36.171875 55.265625 
Q 40.578125 54.546875 44.28125 53.078125 
z
" id="DejaVuSans-115"/>
       <path id="DejaVuSans-32"/>
       <path d="M 25.390625 72.90625 
L 33.6875 72.90625 
L 8.296875 -9.28125 
L 0 -9.28125 
z
" id="DejaVuSans-47"/>
       <path d="M 45.40625 46.390625 
L 45.40625 75.984375 
L 54.390625 75.984375 
L 54.390625 0 
L 45.40625 0 
L 45.40625 8.203125 
Q 42.578125 3.328125 38.25 0.953125 
Q 33.9375 -1.421875 27.875 -1.421875 
Q 17.96875 -1.421875 11.734375 6.484375 
Q 5.515625 14.40625 5.515625 27.296875 
Q 5.515625 40.1875 11.734375 48.09375 
Q 17.96875 56 27.875 56 
Q 33.9375 56 38.25 53.625 
Q 42.578125 51.265625 45.40625 46.390625 
z
M 14.796875 27.296875 
Q 14.796875 17.390625 18.875 11.75 
Q 22.953125 6.109375 30.078125 6.109375 
Q 37.203125 6.109375 41.296875 11.75 
Q 45.40625 17.390625 45.40625 27.296875 
Q 45.40625 37.203125 41.296875 42.84375 
Q 37.203125 48.484375 30.078125 48.484375 
Q 22.953125 48.484375 18.875 42.84375 
Q 14.796875 37.203125 14.796875 27.296875 
z
" id="DejaVuSans-100"/>
       <path d="M 9.421875 54.6875 
L 18.40625 54.6875 
L 18.40625 0 
L 9.421875 0 
z
M 9.421875 75.984375 
L 18.40625 75.984375 
L 18.40625 64.59375 
L 9.421875 64.59375 
z
" id="DejaVuSans-105"/>
       <path d="M 52 44.1875 
Q 55.375 50.25 60.0625 53.125 
Q 64.75 56 71.09375 56 
Q 79.640625 56 84.28125 50.015625 
Q 88.921875 44.046875 88.921875 33.015625 
L 88.921875 0 
L 79.890625 0 
L 79.890625 32.71875 
Q 79.890625 40.578125 77.09375 44.375 
Q 74.3125 48.1875 68.609375 48.1875 
Q 61.625 48.1875 57.5625 43.546875 
Q 53.515625 38.921875 53.515625 30.90625 
L 53.515625 0 
L 44.484375 0 
L 44.484375 32.71875 
Q 44.484375 40.625 41.703125 44.40625 
Q 38.921875 48.1875 33.109375 48.1875 
Q 26.21875 48.1875 22.15625 43.53125 
Q 18.109375 38.875 18.109375 30.90625 
L 18.109375 0 
L 9.078125 0 
L 9.078125 54.6875 
L 18.109375 54.6875 
L 18.109375 46.1875 
Q 21.1875 51.21875 25.484375 53.609375 
Q 29.78125 56 35.6875 56 
Q 41.65625 56 45.828125 52.96875 
Q 50 49.953125 52 44.1875 
z
" id="DejaVuSans-109"/>
       <path d="M 54.890625 33.015625 
L 54.890625 0 
L 45.90625 0 
L 45.90625 32.71875 
Q 45.90625 40.484375 42.875 44.328125 
Q 39.84375 48.1875 33.796875 48.1875 
Q 26.515625 48.1875 22.3125 43.546875 
Q 18.109375 38.921875 18.109375 30.90625 
L 18.109375 0 
L 9.078125 0 
L 9.078125 54.6875 
L 18.109375 54.6875 
L 18.109375 46.1875 
Q 21.34375 51.125 25.703125 53.5625 
Q 30.078125 56 35.796875 56 
Q 45.21875 56 50.046875 50.171875 
Q 54.890625 44.34375 54.890625 33.015625 
z
" id="DejaVuSans-110"/>
       <path d="M 8.015625 75.875 
L 15.828125 75.875 
Q 23.140625 64.359375 26.78125 53.3125 
Q 30.421875 42.28125 30.421875 31.390625 
Q 30.421875 20.453125 26.78125 9.375 
Q 23.140625 -1.703125 15.828125 -13.1875 
L 8.015625 -13.1875 
Q 14.5 -2 17.703125 9.0625 
Q 20.90625 20.125 20.90625 31.390625 
Q 20.90625 42.671875 17.703125 53.65625 
Q 14.5 64.65625 8.015625 75.875 
z
" id="DejaVuSans-41"/>
      </defs>
      <use xlink:href="#DejaVuSans-108"/>
      <use x="27.783203" xlink:href="#DejaVuSans-111"/>
      <use x="88.964844" xlink:href="#DejaVuSans-103"/>
      <use x="152.441406" xlink:href="#DejaVuSans-49"/>
      <use x="216.064453" xlink:href="#DejaVuSans-48"/>
      <use x="279.6875" xlink:href="#DejaVuSans-40"/>
      <use x="318.701172" xlink:href="#DejaVuSans-101"/>
      <use x="380.224609" xlink:href="#DejaVuSans-118"/>
      <use x="439.404297" xlink:href="#DejaVuSans-97"/>
      <use x="500.683594" xlink:href="#DejaVuSans-108"/>
      <use x="528.466797" xlink:href="#DejaVuSans-115"/>
      <use x="580.566406" xlink:href="#DejaVuSans-32"/>
      <use x="612.353516" xlink:href="#DejaVuSans-47"/>
      <use x="646.044922" xlink:href="#DejaVuSans-32"/>
      <use x="677.832031" xlink:href="#DejaVuSans-100"/>
      <use x="741.308594" xlink:href="#DejaVuSans-105"/>
      <use x="769.091797" xlink:href="#DejaVuSans-109"/>
      <use x="866.503906" xlink:href="#DejaVuSans-101"/>
      <use x="928.027344" xlink:href="#DejaVuSans-110"/>
      <use x="991.40625" xlink:href="#DejaVuSans-115"/>
      <use x="1043.505859" xlink:href="#DejaVuSans-105"/>
      <use x="1071.289062" xlink:href="#DejaVuSans-111"/>
      <use x="1132.470703" xlink:href="#DejaVuSans-110"/>
      <use x="1195.849609" xlink:href="#DejaVuSans-41"/>
     </g>
    </g>
   </g>
   <g id="matplotlib.axis_2">
    <g id="ytick_1">
     <g id="line2d_17">
      <path clip-path="url(#p01584711e3)" d="M 57.6 298.944 
L 360.8064 298.944 
" style="fill:none;stroke:#b0b0b0;stroke-linecap:square;stroke-width:0.8;"/>
     </g>
     <g id="line2d_18">
      <defs>
       <path d="M 0 0 
L -3.5 0 
" id="m329250c32c" style="stroke:#000000;stroke-width:0.8;"/>
      </defs>
      <g>
       <use style="stroke:#000000;stroke-width:0.8;" x="57.6" xlink:href="#m329250c32c" y="298.944"/>
      </g>
     </g>
     <g id="text_6">
      <!-- 0.0 -->
      <g transform="translate(25.155 305.02275)scale(0.16 -0.16)">
       <defs>
        <path d="M 10.6875 12.40625 
L 21 12.40625 
L 21 0 
L 10.6875 0 
z
" id="DejaVuSans-46"/>
       </defs>
       <use xlink:href="#DejaVuSans-48"/>
       <use x="63.623047" xlink:href="#DejaVuSans-46"/>
       <use x="95.410156" xlink:href="#DejaVuSans-48"/>
      </g>
     </g>
    </g>
    <g id="ytick_2">
     <g id="line2d_19">
      <path clip-path="url(#p01584711e3)" d="M 57.6 244.6848 
L 360.8064 244.6848 
" style="fill:none;stroke:#b0b0b0;stroke-linecap:square;stroke-width:0.8;"/>
     </g>
     <g id="line2d_20">
      <g>
       <use style="stroke:#000000;stroke-width:0.8;" x="57.6" xlink:href="#m329250c32c" y="244.6848"/>
      </g>
     </g>
     <g id="text_7">
      <!-- 0.2 -->
      <g transform="translate(25.155 250.76355)scale(0.16 -0.16)">
       <use xlink:href="#DejaVuSans-48"/>
       <use x="63.623047" xlink:href="#DejaVuSans-46"/>
       <use x="95.410156" xlink:href="#DejaVuSans-50"/>
      </g>
     </g>
    </g>
    <g id="ytick_3">
     <g id="line2d_21">
      <path clip-path="url(#p01584711e3)" d="M 57.6 190.4256 
L 360.8064 190.4256 
" style="fill:none;stroke:#b0b0b0;stroke-linecap:square;stroke-width:0.8;"/>
     </g>
     <g id="line2d_22">
      <g>
       <use style="stroke:#000000;stroke-width:0.8;" x="57.6" xlink:href="#m329250c32c" y="190.4256"/>
      </g>
     </g>
     <g id="text_8">
      <!-- 0.4 -->
      <g transform="translate(25.155 196.50435)scale(0.16 -0.16)">
       <use xlink:href="#DejaVuSans-48"/>
       <use x="63.623047" xlink:href="#DejaVuSans-46"/>
       <use x="95.410156" xlink:href="#DejaVuSans-52"/>
      </g>
     </g>
    </g>
    <g id="ytick_4">
     <g id="line2d_23">
      <path clip-path="url(#p01584711e3)" d="M 57.6 136.1664 
L 360.8064 136.1664 
" style="fill:none;stroke:#b0b0b0;stroke-linecap:square;stroke-width:0.8;"/>
     </g>
     <g id="line2d_24">
      <g>
       <use style="stroke:#000000;stroke-width:0.8;" x="57.6" xlink:href="#m329250c32c" y="136.1664"/>
      </g>
     </g>
     <g id="text_9">
      <!-- 0.6 -->
      <g transform="translate(25.155 142.24515)scale(0.16 -0.16)">
       <use xlink:href="#DejaVuSans-48"/>
       <use x="63.623047" xlink:href="#DejaVuSans-46"/>
       <use x="95.410156" xlink:href="#DejaVuSans-54"/>
      </g>
     </g>
    </g>
    <g id="ytick_5">
     <g id="line2d_25">
      <path clip-path="url(#p01584711e3)" d="M 57.6 81.9072 
L 360.8064 81.9072 
" style="fill:none;stroke:#b0b0b0;stroke-linecap:square;stroke-width:0.8;"/>
     </g>
     <g id="line2d_26">
      <g>
       <use style="stroke:#000000;stroke-width:0.8;" x="57.6" xlink:href="#m329250c32c" y="81.9072"/>
      </g>
     </g>
     <g id="text_10">
      <!-- 0.8 -->
      <g transform="translate(25.155 87.98595)scale(0.16 -0.16)">
       <defs>
        <path d="M 31.78125 34.625 
Q 24.75 34.625 20.71875 30.859375 
Q 16.703125 27.09375 16.703125 20.515625 
Q 16.703125 13.921875 20.71875 10.15625 
Q 24.75 6.390625 31.78125 6.390625 
Q 38.8125 6.390625 42.859375 10.171875 
Q 46.921875 13.96875 46.921875 20.515625 
Q 46.921875 27.09375 42.890625 30.859375 
Q 38.875 34.625 31.78125 34.625 
z
M 21.921875 38.8125 
Q 15.578125 40.375 12.03125 44.71875 
Q 8.5 49.078125 8.5 55.328125 
Q 8.5 64.0625 14.71875 69.140625 
Q 20.953125 74.21875 31.78125 74.21875 
Q 42.671875 74.21875 48.875 69.140625 
Q 55.078125 64.0625 55.078125 55.328125 
Q 55.078125 49.078125 51.53125 44.71875 
Q 48 40.375 41.703125 38.8125 
Q 48.828125 37.15625 52.796875 32.3125 
Q 56.78125 27.484375 56.78125 20.515625 
Q 56.78125 9.90625 50.3125 4.234375 
Q 43.84375 -1.421875 31.78125 -1.421875 
Q 19.734375 -1.421875 13.25 4.234375 
Q 6.78125 9.90625 6.78125 20.515625 
Q 6.78125 27.484375 10.78125 32.3125 
Q 14.796875 37.15625 21.921875 38.8125 
z
M 18.3125 54.390625 
Q 18.3125 48.734375 21.84375 45.5625 
Q 25.390625 42.390625 31.78125 42.390625 
Q 38.140625 42.390625 41.71875 45.5625 
Q 45.3125 48.734375 45.3125 54.390625 
Q 45.3125 60.0625 41.71875 63.234375 
Q 38.140625 66.40625 31.78125 66.40625 
Q 25.390625 66.40625 21.84375 63.234375 
Q 18.3125 60.0625 18.3125 54.390625 
z
" id="DejaVuSans-56"/>
       </defs>
       <use xlink:href="#DejaVuSans-48"/>
       <use x="63.623047" xlink:href="#DejaVuSans-46"/>
       <use x="95.410156" xlink:href="#DejaVuSans-56"/>
      </g>
     </g>
    </g>
    <g id="ytick_6">
     <g id="line2d_27">
      <path clip-path="url(#p01584711e3)" d="M 57.6 27.648 
L 360.8064 27.648 
" style="fill:none;stroke:#b0b0b0;stroke-linecap:square;stroke-width:0.8;"/>
     </g>
     <g id="line2d_28">
      <g>
       <use style="stroke:#000000;stroke-width:0.8;" x="57.6" xlink:href="#m329250c32c" y="27.648"/>
      </g>
     </g>
     <g id="text_11">
      <!-- 1.0 -->
      <g transform="translate(25.155 33.72675)scale(0.16 -0.16)">
       <use xlink:href="#DejaVuSans-49"/>
       <use x="63.623047" xlink:href="#DejaVuSans-46"/>
       <use x="95.410156" xlink:href="#DejaVuSans-48"/>
      </g>
     </g>
    </g>
    <g id="text_12">
     <!-- Fraction of function,target pairs -->
     <g transform="translate(17.619531 297.681)rotate(-90)scale(0.17 -0.17)">
      <defs>
       <path d="M 9.8125 72.90625 
L 51.703125 72.90625 
L 51.703125 64.59375 
L 19.671875 64.59375 
L 19.671875 43.109375 
L 48.578125 43.109375 
L 48.578125 34.8125 
L 19.671875 34.8125 
L 19.671875 0 
L 9.8125 0 
z
" id="DejaVuSans-70"/>
       <path d="M 41.109375 46.296875 
Q 39.59375 47.171875 37.8125 47.578125 
Q 36.03125 48 33.890625 48 
Q 26.265625 48 22.1875 43.046875 
Q 18.109375 38.09375 18.109375 28.8125 
L 18.109375 0 
L 9.078125 0 
L 9.078125 54.6875 
L 18.109375 54.6875 
L 18.109375 46.1875 
Q 20.953125 51.171875 25.484375 53.578125 
Q 30.03125 56 36.53125 56 
Q 37.453125 56 38.578125 55.875 
Q 39.703125 55.765625 41.0625 55.515625 
z
" id="DejaVuSans-114"/>
       <path d="M 48.78125 52.59375 
L 48.78125 44.1875 
Q 44.96875 46.296875 41.140625 47.34375 
Q 37.3125 48.390625 33.40625 48.390625 
Q 24.65625 48.390625 19.8125 42.84375 
Q 14.984375 37.3125 14.984375 27.296875 
Q 14.984375 17.28125 19.8125 11.734375 
Q 24.65625 6.203125 33.40625 6.203125 
Q 37.3125 6.203125 41.140625 7.25 
Q 44.96875 8.296875 48.78125 10.40625 
L 48.78125 2.09375 
Q 45.015625 0.34375 40.984375 -0.53125 
Q 36.96875 -1.421875 32.421875 -1.421875 
Q 20.0625 -1.421875 12.78125 6.34375 
Q 5.515625 14.109375 5.515625 27.296875 
Q 5.515625 40.671875 12.859375 48.328125 
Q 20.21875 56 33.015625 56 
Q 37.15625 56 41.109375 55.140625 
Q 45.0625 54.296875 48.78125 52.59375 
z
" id="DejaVuSans-99"/>
       <path d="M 18.3125 70.21875 
L 18.3125 54.6875 
L 36.8125 54.6875 
L 36.8125 47.703125 
L 18.3125 47.703125 
L 18.3125 18.015625 
Q 18.3125 11.328125 20.140625 9.421875 
Q 21.96875 7.515625 27.59375 7.515625 
L 36.8125 7.515625 
L 36.8125 0 
L 27.59375 0 
Q 17.1875 0 13.234375 3.875 
Q 9.28125 7.765625 9.28125 18.015625 
L 9.28125 47.703125 
L 2.6875 47.703125 
L 2.6875 54.6875 
L 9.28125 54.6875 
L 9.28125 70.21875 
z
" id="DejaVuSans-116"/>
       <path d="M 37.109375 75.984375 
L 37.109375 68.5 
L 28.515625 68.5 
Q 23.6875 68.5 21.796875 66.546875 
Q 19.921875 64.59375 19.921875 59.515625 
L 19.921875 54.6875 
L 34.71875 54.6875 
L 34.71875 47.703125 
L 19.921875 47.703125 
L 19.921875 0 
L 10.890625 0 
L 10.890625 47.703125 
L 2.296875 47.703125 
L 2.296875 54.6875 
L 10.890625 54.6875 
L 10.890625 58.5 
Q 10.890625 67.625 15.140625 71.796875 
Q 19.390625 75.984375 28.609375 75.984375 
z
" id="DejaVuSans-102"/>
       <path d="M 8.5 21.578125 
L 8.5 54.6875 
L 17.484375 54.6875 
L 17.484375 21.921875 
Q 17.484375 14.15625 20.5 10.265625 
Q 23.53125 6.390625 29.59375 6.390625 
Q 36.859375 6.390625 41.078125 11.03125 
Q 45.3125 15.671875 45.3125 23.6875 
L 45.3125 54.6875 
L 54.296875 54.6875 
L 54.296875 0 
L 45.3125 0 
L 45.3125 8.40625 
Q 42.046875 3.421875 37.71875 1 
Q 33.40625 -1.421875 27.6875 -1.421875 
Q 18.265625 -1.421875 13.375 4.4375 
Q 8.5 10.296875 8.5 21.578125 
z
M 31.109375 56 
z
" id="DejaVuSans-117"/>
       <path d="M 11.71875 12.40625 
L 22.015625 12.40625 
L 22.015625 4 
L 14.015625 -11.625 
L 7.71875 -11.625 
L 11.71875 4 
z
" id="DejaVuSans-44"/>
       <path d="M 18.109375 8.203125 
L 18.109375 -20.796875 
L 9.078125 -20.796875 
L 9.078125 54.6875 
L 18.109375 54.6875 
L 18.109375 46.390625 
Q 20.953125 51.265625 25.265625 53.625 
Q 29.59375 56 35.59375 56 
Q 45.5625 56 51.78125 48.09375 
Q 58.015625 40.1875 58.015625 27.296875 
Q 58.015625 14.40625 51.78125 6.484375 
Q 45.5625 -1.421875 35.59375 -1.421875 
Q 29.59375 -1.421875 25.265625 0.953125 
Q 20.953125 3.328125 18.109375 8.203125 
z
M 48.6875 27.296875 
Q 48.6875 37.203125 44.609375 42.84375 
Q 40.53125 48.484375 33.40625 48.484375 
Q 26.265625 48.484375 22.1875 42.84375 
Q 18.109375 37.203125 18.109375 27.296875 
Q 18.109375 17.390625 22.1875 11.75 
Q 26.265625 6.109375 33.40625 6.109375 
Q 40.53125 6.109375 44.609375 11.75 
Q 48.6875 17.390625 48.6875 27.296875 
z
" id="DejaVuSans-112"/>
      </defs>
      <use xlink:href="#DejaVuSans-70"/>
      <use x="50.269531" xlink:href="#DejaVuSans-114"/>
      <use x="91.382812" xlink:href="#DejaVuSans-97"/>
      <use x="152.662109" xlink:href="#DejaVuSans-99"/>
      <use x="207.642578" xlink:href="#DejaVuSans-116"/>
      <use x="246.851562" xlink:href="#DejaVuSans-105"/>
      <use x="274.634766" xlink:href="#DejaVuSans-111"/>
      <use x="335.816406" xlink:href="#DejaVuSans-110"/>
      <use x="399.195312" xlink:href="#DejaVuSans-32"/>
      <use x="430.982422" xlink:href="#DejaVuSans-111"/>
      <use x="492.164062" xlink:href="#DejaVuSans-102"/>
      <use x="527.369141" xlink:href="#DejaVuSans-32"/>
      <use x="559.15625" xlink:href="#DejaVuSans-102"/>
      <use x="594.361328" xlink:href="#DejaVuSans-117"/>
      <use x="657.740234" xlink:href="#DejaVuSans-110"/>
      <use x="721.119141" xlink:href="#DejaVuSans-99"/>
      <use x="776.099609" xlink:href="#DejaVuSans-116"/>
      <use x="815.308594" xlink:href="#DejaVuSans-105"/>
      <use x="843.091797" xlink:href="#DejaVuSans-111"/>
      <use x="904.273438" xlink:href="#DejaVuSans-110"/>
      <use x="967.652344" xlink:href="#DejaVuSans-44"/>
      <use x="999.439453" xlink:href="#DejaVuSans-116"/>
      <use x="1038.648438" xlink:href="#DejaVuSans-97"/>
      <use x="1099.927734" xlink:href="#DejaVuSans-114"/>
      <use x="1139.291016" xlink:href="#DejaVuSans-103"/>
      <use x="1202.767578" xlink:href="#DejaVuSans-101"/>
      <use x="1264.291016" xlink:href="#DejaVuSans-116"/>
      <use x="1303.5" xlink:href="#DejaVuSans-32"/>
      <use x="1335.287109" xlink:href="#DejaVuSans-112"/>
      <use x="1398.763672" xlink:href="#DejaVuSans-97"/>
      <use x="1460.042969" xlink:href="#DejaVuSans-105"/>
      <use x="1487.826172" xlink:href="#DejaVuSans-114"/>
      <use x="1528.939453" xlink:href="#DejaVuSans-115"/>
     </g>
    </g>
   </g>
   <g id="line2d_29">
    <defs>
     <path d="M 0 1.5 
C 0.397805 1.5 0.77937 1.341951 1.06066 1.06066 
C 1.341951 0.77937 1.5 0.397805 1.5 0 
C 1.5 -0.397805 1.341951 -0.77937 1.06066 -1.06066 
C 0.77937 -1.341951 0.397805 -1.5 0 -1.5 
C -0.397805 -1.5 -0.77937 -1.341951 -1.06066 -1.06066 
C -1.341951 -0.77937 -1.5 -0.397805 -1.5 0 
C -1.5 0.397805 -1.341951 0.77937 -1.06066 1.06066 
C -0.77937 1.341951 -0.397805 1.5 0 1.5 
z
" id="mbf0c476127" style="stroke:#000080;"/>
    </defs>
    <g>
     <use style="fill:#000080;stroke:#000080;" x="278.095209" xlink:href="#mbf0c476127" y="80.583805"/>
     <use style="fill:#000080;stroke:#000080;" x="278.095209" xlink:href="#mbf0c476127" y="80.583805"/>
    </g>
   </g>
   <g id="line2d_30">
    <path d="M 170.605037 298.944 
L 170.605037 298.502868 
L 171.653895 298.502868 
L 171.653895 298.061737 
L 172.082432 298.061737 
L 172.082432 297.620605 
L 172.467911 297.620605 
L 172.467911 297.179473 
L 172.767405 297.179473 
L 172.767405 296.738341 
L 173.312411 296.738341 
L 173.416353 295.856078 
L 173.511793 295.856078 
L 173.511793 295.414946 
L 173.744378 295.414946 
L 173.744378 294.973815 
L 173.89267 294.973815 
L 173.89267 294.532683 
L 174.319263 294.532683 
L 174.42914 293.209288 
L 174.866029 293.209288 
L 174.924994 292.327024 
L 175.100787 292.327024 
L 175.140843 291.444761 
L 175.418869 291.444761 
L 175.418869 291.003629 
L 175.639785 291.003629 
L 175.639785 290.562498 
L 176.112023 290.562498 
L 176.191309 289.680234 
L 176.599643 289.680234 
L 176.613103 288.797971 
L 176.810522 288.797971 
L 176.857065 287.915707 
L 177.117562 287.915707 
L 177.120837 287.033444 
L 177.448652 287.033444 
L 177.557732 285.268917 
L 177.621603 285.268917 
L 177.621603 284.827785 
L 177.78666 284.827785 
L 177.78666 284.386654 
L 178.009712 284.386654 
L 178.037798 283.50439 
L 178.208531 283.50439 
L 178.316378 281.739863 
L 178.545418 281.739863 
L 178.654374 279.975337 
L 178.660409 279.975337 
L 178.765703 278.21081 
L 178.792684 278.21081 
L 178.792684 277.769678 
L 178.909155 277.769678 
L 178.909155 277.328546 
L 179.060384 277.328546 
L 179.060384 276.887415 
L 179.239683 276.887415 
L 179.306846 276.005151 
L 179.480934 276.005151 
L 179.555875 274.240624 
L 179.679164 274.240624 
L 179.787449 273.358361 
L 179.810166 273.358361 
L 179.810166 272.917229 
L 179.982491 272.917229 
L 180.083456 272.034966 
L 180.16161 272.034966 
L 180.2727 270.711571 
L 180.283773 270.711571 
L 180.380384 268.505912 
L 180.451833 268.505912 
L 180.460059 267.623649 
L 180.710611 267.623649 
L 180.710611 267.182517 
L 180.864187 267.182517 
L 180.971215 265.41799 
L 181.191376 265.41799 
L 181.246673 263.653463 
L 181.343707 263.653463 
L 181.416808 261.888937 
L 181.458452 261.888937 
L 181.562162 261.006673 
L 181.872446 261.006673 
L 181.973904 259.242146 
L 181.989076 259.242146 
L 182.037039 257.918751 
L 182.145137 257.918751 
L 182.227677 255.271961 
L 182.3024 255.271961 
L 182.3024 254.389698 
L 182.534629 254.389698 
L 182.534629 253.948566 
L 182.691118 253.948566 
L 182.761601 253.066302 
L 182.868038 253.066302 
L 182.945071 252.184039 
L 183.007428 252.184039 
L 183.057643 250.860644 
L 183.176667 250.860644 
L 183.176667 249.97838 
L 183.342044 249.97838 
L 183.410134 248.654985 
L 183.524625 248.654985 
L 183.568833 246.449327 
L 183.670811 246.449327 
L 183.712371 245.567063 
L 183.898262 245.567063 
L 183.946158 244.6848 
L 184.06197 244.6848 
L 184.150054 243.361405 
L 184.219777 243.361405 
L 184.219777 242.920273 
L 184.371817 242.920273 
L 184.414081 240.714615 
L 184.716042 240.714615 
L 184.716042 240.273483 
L 184.846776 240.273483 
L 184.887987 239.39122 
L 185.062668 239.39122 
L 185.062668 238.950088 
L 185.176094 238.950088 
L 185.176094 238.508956 
L 185.341789 238.508956 
L 185.451447 237.185561 
L 185.482961 237.185561 
L 185.591801 235.421034 
L 185.635578 235.421034 
L 185.741471 231.89198 
L 185.850889 231.89198 
L 185.850889 231.450849 
L 186.004646 231.450849 
L 186.063764 229.686322 
L 186.136893 229.686322 
L 186.171328 228.804059 
L 186.260162 228.804059 
L 186.318483 227.921795 
L 186.492369 227.921795 
L 186.561873 226.5984 
L 186.615314 226.5984 
L 186.692241 224.392741 
L 186.821713 224.392741 
L 186.856869 222.628215 
L 187.062579 222.628215 
L 187.091508 221.30482 
L 187.416297 221.30482 
L 187.416297 220.422556 
L 187.580369 220.422556 
L 187.685227 218.658029 
L 187.71135 218.658029 
L 187.763488 217.334634 
L 187.950365 217.334634 
L 188.003682 215.570107 
L 188.091599 215.570107 
L 188.1882 214.687844 
L 188.235408 214.687844 
L 188.327666 213.364449 
L 188.401508 213.364449 
L 188.446391 211.599922 
L 188.651487 211.599922 
L 188.734669 210.276527 
L 188.838571 210.276527 
L 188.913937 208.953132 
L 188.990744 208.953132 
L 189.072443 207.188605 
L 189.126135 207.188605 
L 189.205527 204.982946 
L 189.267427 204.982946 
L 189.298301 203.659551 
L 189.39403 203.659551 
L 189.399145 202.777288 
L 189.693438 202.777288 
L 189.797198 201.895024 
L 189.843871 201.895024 
L 189.92527 200.571629 
L 189.958394 200.571629 
L 190.062353 197.483707 
L 190.131341 197.483707 
L 190.152643 196.601444 
L 190.305961 196.601444 
L 190.343286 195.71918 
L 190.467705 195.71918 
L 190.543248 193.07239 
L 190.624877 193.07239 
L 190.634457 192.190127 
L 190.761729 192.190127 
L 190.872391 189.102205 
L 190.877119 189.102205 
L 190.977703 187.77881 
L 191.055912 187.77881 
L 191.071515 186.896546 
L 191.177272 186.896546 
L 191.263922 185.573151 
L 191.294772 185.573151 
L 191.377815 184.249756 
L 191.422262 184.249756 
L 191.474238 183.367493 
L 191.570169 183.367493 
L 191.650495 181.602966 
L 191.78762 181.602966 
L 191.82212 179.838439 
L 192.036694 179.838439 
L 192.100297 177.63278 
L 192.21659 177.63278 
L 192.262029 175.868254 
L 192.346749 175.868254 
L 192.448492 173.221463 
L 192.509275 173.221463 
L 192.529493 171.898068 
L 192.623076 171.898068 
L 192.709048 169.69241 
L 192.804589 169.69241 
L 192.804589 169.251278 
L 192.995636 169.251278 
L 193.081328 167.486751 
L 193.127524 167.486751 
L 193.223751 164.839961 
L 193.264047 164.839961 
L 193.29456 162.634302 
L 193.384422 162.634302 
L 193.384422 162.193171 
L 193.547834 162.193171 
L 193.651461 160.869776 
L 193.693566 160.869776 
L 193.773443 159.54638 
L 193.805838 159.54638 
L 193.873149 157.781854 
L 193.962971 157.781854 
L 194.070992 155.576195 
L 194.245707 155.576195 
L 194.34819 151.164878 
L 194.367835 151.164878 
L 194.47226 147.635824 
L 194.485273 147.635824 
L 194.570931 146.753561 
L 194.634274 146.753561 
L 194.706405 145.430166 
L 194.797462 145.430166 
L 194.900809 144.106771 
L 194.924968 144.106771 
L 195.025091 141.45998 
L 195.046567 141.45998 
L 195.152324 138.81319 
L 195.171147 138.81319 
L 195.274961 136.607532 
L 195.33971 136.607532 
L 195.350894 135.725268 
L 195.52771 135.725268 
L 195.585463 134.401873 
L 195.645486 134.401873 
L 195.751587 130.87282 
L 195.813507 130.87282 
L 195.835312 129.990556 
L 195.927103 129.990556 
L 196.036424 128.226029 
L 196.042412 128.226029 
L 196.135583 126.461502 
L 196.166538 126.461502 
L 196.249625 124.255844 
L 196.281575 124.255844 
L 196.38651 122.932449 
L 207.388675 122.932449 
L 207.388675 122.491317 
L 207.885191 122.491317 
L 207.885191 122.050185 
L 208.217218 122.050185 
L 208.291046 121.167922 
L 208.435358 121.167922 
L 208.499075 119.403395 
L 208.610523 119.403395 
L 208.703607 118.521132 
L 208.763379 118.521132 
L 208.833884 115.874341 
L 209.116878 115.874341 
L 209.116878 115.43321 
L 209.260354 115.43321 
L 209.363266 114.109815 
L 209.379185 114.109815 
L 209.425684 113.227551 
L 216.260243 113.227551 
L 216.260243 112.78642 
L 216.402373 112.78642 
L 216.44452 111.904156 
L 216.586475 111.904156 
L 216.658654 109.698498 
L 216.87196 109.698498 
L 216.87196 109.257366 
L 217.060949 109.257366 
L 217.060949 108.816234 
L 221.912148 108.816234 
L 222.013281 107.492839 
L 222.124952 107.492839 
L 222.220187 104.404917 
L 226.27984 104.404917 
L 226.304542 103.522654 
L 226.393488 103.522654 
L 226.469429 102.199259 
L 226.644656 102.199259 
L 226.644656 101.758127 
L 229.735611 101.758127 
L 229.796425 100.875863 
L 229.882027 100.875863 
L 229.902031 99.9936 
L 230.007835 99.9936 
L 230.079349 98.670205 
L 232.818465 98.670205 
L 232.818465 98.229073 
L 232.966553 98.229073 
L 232.966553 97.787941 
L 235.139567 97.787941 
L 235.139567 97.34681 
L 235.340778 97.34681 
L 235.443679 95.141151 
L 235.483152 95.141151 
L 235.483152 94.70002 
L 237.513352 94.70002 
L 237.513352 94.258888 
L 237.660311 94.258888 
L 237.702463 93.376624 
L 239.574534 93.376624 
L 239.574534 92.935493 
L 239.68736 92.935493 
L 239.698653 91.612098 
L 241.388633 91.612098 
L 241.388633 91.170966 
L 241.505328 91.170966 
L 241.505328 90.729834 
L 243.035294 90.729834 
L 243.121465 89.847571 
L 244.507591 89.847571 
L 244.549345 88.965307 
L 245.950563 88.965307 
L 246.024387 87.641912 
L 248.518942 87.641912 
L 248.518942 87.20078 
L 249.657767 87.20078 
L 249.680054 86.318517 
L 250.756146 86.318517 
L 250.756146 85.877385 
L 251.719643 85.877385 
L 251.719643 85.436254 
L 255.370433 85.436254 
L 255.370433 84.995122 
L 256.89859 84.995122 
L 256.89859 84.55399 
L 257.678082 84.55399 
L 257.678082 83.671727 
L 258.388408 83.671727 
L 258.388408 83.230595 
L 261.553738 83.230595 
L 261.553738 82.348332 
L 262.726906 82.348332 
L 262.726906 81.9072 
L 269.963645 81.9072 
L 269.963645 81.466068 
L 274.629234 81.466068 
L 274.629234 81.024937 
L 278.095209 81.024937 
L 278.095209 80.583805 
L 360.8064 80.583805 
L 360.8064 80.583805 
" style="fill:none;stroke:#000080;stroke-linecap:square;stroke-width:1.5;"/>
   </g>
   <g id="line2d_31">
    <defs>
     <path d="M 0 6 
C 1.591219 6 3.117479 5.367802 4.242641 4.242641 
C 5.367802 3.117479 6 1.591219 6 0 
C 6 -1.591219 5.367802 -3.117479 4.242641 -4.242641 
C 3.117479 -5.367802 1.591219 -6 0 -6 
C -1.591219 -6 -3.117479 -5.367802 -4.242641 -4.242641 
C -5.367802 -3.117479 -6 -1.591219 -6 0 
C -6 1.591219 -5.367802 3.117479 -4.242641 4.242641 
C -3.117479 5.367802 -1.591219 6 0 6 
z
" id="mb1dff1a347" style="stroke:#000080;stroke-width:1.5;"/>
    </defs>
    <g>
     <use style="fill-opacity:0;stroke:#000080;stroke-width:1.5;" x="187.761628" xlink:href="#mb1dff1a347" y="217.775766"/>
     <use style="fill-opacity:0;stroke:#000080;stroke-width:1.5;" x="216.87196" xlink:href="#mb1dff1a347" y="109.698498"/>
     <use style="fill-opacity:0;stroke:#000080;stroke-width:1.5;" x="278.095209" xlink:href="#mb1dff1a347" y="80.583805"/>
     <use style="fill-opacity:0;stroke:#000080;stroke-width:1.5;" x="360.8064" xlink:href="#mb1dff1a347" y="80.583805"/>
    </g>
   </g>
   <g id="line2d_32">
    <path style="fill:none;stroke:#000080;stroke-linecap:square;stroke-width:1.5;"/>
    <g/>
   </g>
   <g id="line2d_33">
    <path clip-path="url(#p01584711e3)" d="M 196.398264 122.932449 
" style="fill:none;stroke:#000080;stroke-linecap:square;stroke-width:1.5;"/>
    <defs>
     <path d="M -12 12 
L 12 -12 
M -12 -12 
L 12 12 
" id="m1e7c721ea2" style="stroke:#000080;"/>
    </defs>
    <g clip-path="url(#p01584711e3)">
     <use style="fill:#000080;stroke:#000080;" x="196.398264" xlink:href="#m1e7c721ea2" y="122.932449"/>
    </g>
   </g>
   <g id="line2d_34">
    <defs>
     <path d="M 0 1.5 
C 0.397805 1.5 0.77937 1.341951 1.06066 1.06066 
C 1.341951 0.77937 1.5 0.397805 1.5 0 
C 1.5 -0.397805 1.341951 -0.77937 1.06066 -1.06066 
C 0.77937 -1.341951 0.397805 -1.5 0 -1.5 
C -0.397805 -1.5 -0.77937 -1.341951 -1.06066 -1.06066 
C -1.341951 -0.77937 -1.5 -0.397805 -1.5 0 
C -1.5 0.397805 -1.341951 0.77937 -1.06066 1.06066 
C -0.77937 1.341951 -0.397805 1.5 0 1.5 
z
" id="m4becf086eb" style="stroke:#ff00ff;"/>
    </defs>
    <g>
     <use style="fill:#ff00ff;stroke:#ff00ff;" x="336.562897" xlink:href="#m4becf086eb" y="27.648"/>
     <use style="fill:#ff00ff;stroke:#ff00ff;" x="336.562897" xlink:href="#m4becf086eb" y="27.648"/>
    </g>
   </g>
   <g id="line2d_35">
    <path d="M 195.386887 298.944 
L 195.386887 298.502868 
L 195.704098 298.502868 
L 195.704098 298.061737 
L 196.296939 298.061737 
L 196.296939 297.620605 
L 196.584171 297.620605 
L 196.584171 297.179473 
L 196.886557 297.179473 
L 196.886557 296.738341 
L 197.097183 296.738341 
L 197.097183 296.29721 
L 197.211186 296.29721 
L 197.211186 295.856078 
L 197.417115 295.856078 
L 197.417115 295.414946 
L 197.659313 295.414946 
L 197.732791 294.532683 
L 197.980709 294.532683 
L 197.980709 294.091551 
L 198.162386 294.091551 
L 198.162386 293.65042 
L 198.277576 293.65042 
L 198.277576 293.209288 
L 198.445887 293.209288 
L 198.445887 292.768156 
L 198.783234 292.768156 
L 198.839047 291.444761 
L 198.977859 291.444761 
L 199.059637 290.562498 
L 199.191774 290.562498 
L 199.191774 290.121366 
L 199.379231 290.121366 
L 199.379231 289.680234 
L 199.61145 289.680234 
L 199.692499 288.797971 
L 199.724033 288.797971 
L 199.767306 287.915707 
L 199.973449 287.915707 
L 200.070363 287.033444 
L 200.197531 287.033444 
L 200.252179 285.710049 
L 200.448368 285.710049 
L 200.534386 284.386654 
L 200.769627 284.386654 
L 200.867169 282.180995 
L 201.069916 282.180995 
L 201.180503 280.416468 
L 201.235099 280.416468 
L 201.270502 279.534205 
L 201.440233 279.534205 
L 201.449218 278.651941 
L 201.58438 278.651941 
L 201.602209 277.769678 
L 201.735395 277.769678 
L 201.830709 275.56402 
L 201.889596 275.56402 
L 201.984134 274.681756 
L 202.081673 274.681756 
L 202.128521 273.799493 
L 202.254602 273.799493 
L 202.304456 272.034966 
L 202.441302 272.034966 
L 202.493214 270.711571 
L 202.609282 270.711571 
L 202.67673 269.829307 
L 202.847635 269.829307 
L 202.954911 268.947044 
L 203.062404 268.947044 
L 203.062404 268.505912 
L 203.274748 268.505912 
L 203.274748 268.06478 
L 203.412833 268.06478 
L 203.444369 266.741385 
L 203.541072 266.741385 
L 203.625282 265.41799 
L 203.678021 265.41799 
L 203.740159 264.535727 
L 203.876461 264.535727 
L 203.876461 264.094595 
L 204.153919 264.094595 
L 204.261755 262.330068 
L 204.280312 262.330068 
L 204.378974 260.565541 
L 204.643865 260.565541 
L 204.643865 260.12441 
L 204.810647 260.12441 
L 204.810647 258.801015 
L 205.061417 258.801015 
L 205.145746 257.918751 
L 205.338133 257.918751 
L 205.442314 256.595356 
L 205.543753 256.595356 
L 205.587781 255.713093 
L 205.676965 255.713093 
L 205.782146 254.389698 
L 205.788566 254.389698 
L 205.876095 253.066302 
L 206.083675 253.066302 
L 206.189405 250.860644 
L 206.211038 250.860644 
L 206.211038 250.419512 
L 206.350703 250.419512 
L 206.356932 249.537249 
L 206.541492 249.537249 
L 206.644006 248.213854 
L 206.667846 248.213854 
L 206.752064 246.890459 
L 206.801468 246.890459 
L 206.812279 246.008195 
L 206.962985 246.008195 
L 207.047897 244.243668 
L 207.150349 244.243668 
L 207.242345 241.596878 
L 207.372618 241.596878 
L 207.471365 239.832351 
L 207.593588 239.832351 
L 207.702141 238.508956 
L 207.791484 238.508956 
L 207.858054 236.744429 
L 207.931393 236.744429 
L 207.931393 236.303298 
L 208.106247 236.303298 
L 208.176112 234.097639 
L 208.376088 234.097639 
L 208.44558 232.333112 
L 208.493207 232.333112 
L 208.577035 230.568585 
L 208.692302 230.568585 
L 208.776466 229.686322 
L 208.85056 229.686322 
L 208.885078 228.804059 
L 208.997877 228.804059 
L 209.060919 227.921795 
L 209.163732 227.921795 
L 209.217307 226.5984 
L 209.299752 226.5984 
L 209.398328 223.069346 
L 209.531499 223.069346 
L 209.637593 221.745951 
L 209.675919 221.745951 
L 209.675919 221.30482 
L 209.80196 221.30482 
L 209.904252 219.981424 
L 209.925445 219.981424 
L 209.925445 219.540293 
L 210.083921 219.540293 
L 210.083921 218.658029 
L 210.273134 218.658029 
L 210.31131 217.334634 
L 210.477704 217.334634 
L 210.504923 216.011239 
L 210.607338 216.011239 
L 210.705903 215.128976 
L 210.767313 215.128976 
L 210.783728 214.246712 
L 210.909648 214.246712 
L 210.909648 213.80558 
L 211.104759 213.80558 
L 211.104759 212.923317 
L 211.263243 212.923317 
L 211.274969 212.041054 
L 211.537942 212.041054 
L 211.550549 211.15879 
L 211.808688 211.15879 
L 211.852661 209.835395 
L 211.98807 209.835395 
L 212.08274 208.070868 
L 212.125568 208.070868 
L 212.23424 207.188605 
L 212.327681 207.188605 
L 212.431688 205.424078 
L 212.449217 205.424078 
L 212.526151 204.100683 
L 212.56848 204.100683 
L 212.56848 203.659551 
L 212.68798 203.659551 
L 212.68798 203.21842 
L 212.816547 203.21842 
L 212.889062 201.012761 
L 212.962273 201.012761 
L 212.962273 200.571629 
L 213.174915 200.571629 
L 213.25326 198.365971 
L 213.363734 198.365971 
L 213.384227 197.483707 
L 213.521382 197.483707 
L 213.619951 195.278049 
L 213.6613 195.278049 
L 213.692252 194.395785 
L 213.828583 194.395785 
L 213.849506 193.513522 
L 213.942676 193.513522 
L 213.971784 192.190127 
L 214.059298 192.190127 
L 214.059298 191.748995 
L 214.215348 191.748995 
L 214.294026 189.984468 
L 214.365595 189.984468 
L 214.365595 189.543337 
L 214.531239 189.543337 
L 214.531239 189.102205 
L 214.693661 189.102205 
L 214.742913 187.337678 
L 214.852489 187.337678 
L 214.946533 185.573151 
L 214.976755 185.573151 
L 215.062341 183.808624 
L 215.097597 183.808624 
L 215.171377 182.485229 
L 215.23667 182.485229 
L 215.318935 180.279571 
L 215.374293 180.279571 
L 215.473445 178.515044 
L 215.510492 178.515044 
L 215.609776 176.309385 
L 215.633459 176.309385 
L 215.636417 175.427122 
L 215.747648 175.427122 
L 215.845273 173.662595 
L 215.901607 173.662595 
L 215.991805 172.3392 
L 216.01584 172.3392 
L 216.077033 171.015805 
L 216.164342 171.015805 
L 216.266783 169.251278 
L 216.304749 169.251278 
L 216.406024 166.604488 
L 216.459088 166.604488 
L 216.549074 163.957698 
L 216.577634 163.957698 
L 216.661055 161.752039 
L 216.701828 161.752039 
L 216.791061 159.987512 
L 216.832347 159.987512 
L 216.889759 159.105249 
L 216.95724 159.105249 
L 217.047625 156.89959 
L 217.136017 156.89959 
L 217.18395 154.693932 
L 217.275191 154.693932 
L 217.372928 152.929405 
L 217.401805 152.929405 
L 217.506159 149.841483 
L 217.565368 149.841483 
L 217.637693 148.076956 
L 217.723361 148.076956 
L 217.775858 146.753561 
L 217.834601 146.753561 
L 217.914513 145.871298 
L 217.990731 145.871298 
L 218.061814 143.665639 
L 218.103371 143.665639 
L 218.168491 141.901112 
L 218.238906 141.901112 
L 218.332141 139.254322 
L 218.399029 139.254322 
L 218.458043 137.489795 
L 218.515785 137.489795 
L 218.576242 135.725268 
L 218.654151 135.725268 
L 218.760036 132.637346 
L 218.772202 132.637346 
L 218.881694 129.990556 
L 218.926803 129.990556 
L 219.027287 126.461502 
L 219.052677 126.461502 
L 219.099839 123.814712 
L 219.175614 123.814712 
L 219.265724 120.72679 
L 219.354711 120.72679 
L 219.382087 119.403395 
L 219.47673 119.403395 
L 219.568156 114.550946 
L 219.606861 114.550946 
L 219.702425 111.904156 
L 219.719779 111.904156 
L 219.793102 109.698498 
L 219.86749 109.698498 
L 219.932171 107.933971 
L 220.03045 107.933971 
L 220.085904 104.846049 
L 220.15549 104.846049 
L 220.243353 103.081522 
L 220.269466 103.081522 
L 220.367647 99.9936 
L 220.384398 99.9936 
L 220.467279 97.34681 
L 220.53254 97.34681 
L 220.588159 95.141151 
L 220.644585 95.141151 
L 220.746308 91.170966 
L 220.765299 91.170966 
L 220.864133 88.524176 
L 220.894833 88.524176 
L 220.984087 86.318517 
L 221.032998 86.318517 
L 221.139272 82.789463 
L 221.236165 82.789463 
L 221.328503 80.583805 
L 221.365935 80.583805 
L 221.456399 78.378146 
L 221.53408 78.378146 
L 221.635726 76.61362 
L 221.686956 76.61362 
L 221.784733 75.731356 
L 221.800269 75.731356 
L 221.800269 75.290224 
L 221.913813 75.290224 
L 222.018851 72.202302 
L 222.071451 72.202302 
L 222.171435 70.878907 
L 222.188744 70.878907 
L 222.25663 69.11438 
L 222.330491 69.11438 
L 222.440593 66.46759 
L 222.508458 66.46759 
L 222.605278 65.144195 
L 222.706825 65.144195 
L 222.806384 60.732878 
L 222.872945 60.732878 
L 222.917475 59.850615 
L 223.083744 59.850615 
L 223.165764 58.52722 
L 223.331827 58.52722 
L 223.338844 57.644956 
L 223.526743 57.644956 
L 223.55589 56.762693 
L 223.714984 56.762693 
L 223.714984 56.321561 
L 225.416796 56.321561 
L 225.416796 55.880429 
L 225.796842 55.880429 
L 225.796842 55.439298 
L 227.310154 55.439298 
L 227.310154 54.998166 
L 229.113421 54.998166 
L 229.113421 54.557034 
L 229.443677 54.557034 
L 229.443677 54.115902 
L 232.146482 54.115902 
L 232.146482 53.674771 
L 235.765069 53.674771 
L 235.765069 53.233639 
L 236.376264 53.233639 
L 236.376264 52.792507 
L 236.90926 52.792507 
L 236.90926 52.351376 
L 237.677864 52.351376 
L 237.677864 51.910244 
L 240.614013 51.910244 
L 240.614013 51.469112 
L 244.396342 51.469112 
L 244.396342 51.02798 
L 245.070448 51.02798 
L 245.070448 50.586849 
L 246.007451 50.586849 
L 246.007451 49.704585 
L 246.142266 49.704585 
L 246.142266 49.263454 
L 246.862099 49.263454 
L 246.862099 48.822322 
L 251.522919 48.822322 
L 251.526807 47.498927 
L 251.889498 47.498927 
L 251.889498 47.057795 
L 252.099788 47.057795 
L 252.179605 44.852137 
L 262.752128 44.852137 
L 262.797442 43.969873 
L 263.107726 43.969873 
L 263.132341 42.205346 
L 263.248649 42.205346 
L 263.251742 41.323083 
L 263.762366 41.323083 
L 263.762366 40.881951 
L 265.478513 40.881951 
L 265.478513 40.44082 
L 268.093479 40.44082 
L 268.093479 39.999688 
L 270.115359 39.999688 
L 270.225986 38.235161 
L 275.18758 38.235161 
L 275.286915 34.706107 
L 282.509079 34.706107 
L 282.509079 34.264976 
L 285.23366 34.264976 
L 285.23366 33.823844 
L 287.737573 33.823844 
L 287.745237 32.94158 
L 288.398782 32.94158 
L 288.398782 32.500449 
L 291.8376 32.500449 
L 291.8376 32.059317 
L 293.587842 32.059317 
L 293.587842 31.618185 
L 298.048196 31.618185 
L 298.048196 31.177054 
L 302.708647 31.177054 
L 302.708647 30.735922 
L 304.66739 30.735922 
L 304.66739 30.29479 
L 306.442255 30.29479 
L 306.442255 29.853659 
L 312.223101 29.853659 
L 312.223101 29.412527 
L 321.777338 29.412527 
L 321.777338 28.971395 
L 323.899701 28.971395 
L 323.899701 28.530263 
L 336.217652 28.530263 
L 336.217652 28.089132 
L 336.562897 28.089132 
L 336.562897 27.648 
L 360.8064 27.648 
L 360.8064 27.648 
" style="fill:none;stroke:#ff00ff;stroke-linecap:square;stroke-width:1.5;"/>
   </g>
   <g id="line2d_36">
    <defs>
     <path d="M -0 8.485281 
L 5.091169 0 
L 0 -8.485281 
L -5.091169 -0 
z
" id="m981a837ac4" style="stroke:#ff00ff;stroke-linejoin:miter;stroke-width:1.5;"/>
    </defs>
    <g>
     <use style="fill-opacity:0;stroke:#ff00ff;stroke-linejoin:miter;stroke-width:1.5;" x="216.643038" xlink:href="#m981a837ac4" y="162.193171"/>
     <use style="fill-opacity:0;stroke:#ff00ff;stroke-linejoin:miter;stroke-width:1.5;" x="246.142266" xlink:href="#m981a837ac4" y="49.704585"/>
     <use style="fill-opacity:0;stroke:#ff00ff;stroke-linejoin:miter;stroke-width:1.5;" x="336.562897" xlink:href="#m981a837ac4" y="27.648"/>
     <use style="fill-opacity:0;stroke:#ff00ff;stroke-linejoin:miter;stroke-width:1.5;" x="360.8064" xlink:href="#m981a837ac4" y="27.648"/>
    </g>
   </g>
   <g id="line2d_37">
    <path style="fill:none;stroke:#ff00ff;stroke-linecap:square;stroke-width:1.5;"/>
    <g/>
   </g>
   <g id="line2d_38">
    <path clip-path="url(#p01584711e3)" d="M 261.137522 44.852137 
" style="fill:none;stroke:#ff00ff;stroke-linecap:square;stroke-width:1.5;"/>
    <defs>
     <path d="M -12 12 
L 12 -12 
M -12 -12 
L 12 12 
" id="m7e8ca659d0" style="stroke:#ff00ff;"/>
    </defs>
    <g clip-path="url(#p01584711e3)">
     <use style="fill:#ff00ff;stroke:#ff00ff;" x="261.137522" xlink:href="#m7e8ca659d0" y="44.852137"/>
    </g>
   </g>
   <g id="line2d_39">
    <path d="M 360.8064 80.583805 
L 380.514816 293.51808 
" style="fill:none;stroke:#000080;stroke-linecap:square;stroke-width:1.5;"/>
    <g>
     <use style="fill-opacity:0;stroke:#000080;stroke-width:1.5;" x="360.8064" xlink:href="#mb1dff1a347" y="80.583805"/>
     <use style="fill-opacity:0;stroke:#000080;stroke-width:1.5;" x="380.514816" xlink:href="#mb1dff1a347" y="293.51808"/>
    </g>
   </g>
   <g id="line2d_40">
    <path d="M 360.8064 27.648 
L 380.514816 33.07392 
" style="fill:none;stroke:#ff00ff;stroke-linecap:square;stroke-width:1.5;"/>
    <g>
     <use style="fill-opacity:0;stroke:#ff00ff;stroke-linejoin:miter;stroke-width:1.5;" x="360.8064" xlink:href="#m981a837ac4" y="27.648"/>
     <use style="fill-opacity:0;stroke:#ff00ff;stroke-linejoin:miter;stroke-width:1.5;" x="380.514816" xlink:href="#m981a837ac4" y="33.07392"/>
    </g>
   </g>
   <g id="line2d_41">
    <path d="M 360.8064 298.944 
L 360.8064 27.648 
" style="fill:none;stroke:#000000;stroke-linecap:square;stroke-width:1.5;"/>
   </g>
   <g id="patch_3">
    <path d="M 57.6 298.944 
L 360.8064 298.944 
" style="fill:none;stroke:#000000;stroke-linecap:square;stroke-linejoin:miter;stroke-width:0.8;"/>
   </g>
   <g id="patch_4">
    <path d="M 57.6 27.648 
L 360.8064 27.648 
" style="fill:none;stroke:#000000;stroke-linecap:square;stroke-linejoin:miter;stroke-width:0.8;"/>
   </g>
   <g id="text_13">
    <!-- al-defaul -->
    <g transform="translate(386.578944 297.381205)scale(0.14 -0.14)">
     <defs>
      <path d="M 4.890625 31.390625 
L 31.203125 31.390625 
L 31.203125 23.390625 
L 4.890625 23.390625 
z
" id="DejaVuSans-45"/>
     </defs>
     <use xlink:href="#DejaVuSans-97"/>
     <use x="61.279297" xlink:href="#DejaVuSans-108"/>
     <use x="89.0625" xlink:href="#DejaVuSans-45"/>
     <use x="125.146484" xlink:href="#DejaVuSans-100"/>
     <use x="188.623047" xlink:href="#DejaVuSans-101"/>
     <use x="250.146484" xlink:href="#DejaVuSans-102"/>
     <use x="285.351562" xlink:href="#DejaVuSans-97"/>
     <use x="346.630859" xlink:href="#DejaVuSans-117"/>
     <use x="410.009766" xlink:href="#DejaVuSans-108"/>
    </g>
   </g>
   <g id="text_14">
    <!-- al3 -->
    <g transform="translate(386.578944 36.937045)scale(0.14 -0.14)">
     <defs>
      <path d="M 40.578125 39.3125 
Q 47.65625 37.796875 51.625 33 
Q 55.609375 28.21875 55.609375 21.1875 
Q 55.609375 10.40625 48.1875 4.484375 
Q 40.765625 -1.421875 27.09375 -1.421875 
Q 22.515625 -1.421875 17.65625 -0.515625 
Q 12.796875 0.390625 7.625 2.203125 
L 7.625 11.71875 
Q 11.71875 9.328125 16.59375 8.109375 
Q 21.484375 6.890625 26.8125 6.890625 
Q 36.078125 6.890625 40.9375 10.546875 
Q 45.796875 14.203125 45.796875 21.1875 
Q 45.796875 27.640625 41.28125 31.265625 
Q 36.765625 34.90625 28.71875 34.90625 
L 20.21875 34.90625 
L 20.21875 43.015625 
L 29.109375 43.015625 
Q 36.375 43.015625 40.234375 45.921875 
Q 44.09375 48.828125 44.09375 54.296875 
Q 44.09375 59.90625 40.109375 62.90625 
Q 36.140625 65.921875 28.71875 65.921875 
Q 24.65625 65.921875 20.015625 65.03125 
Q 15.375 64.15625 9.8125 62.3125 
L 9.8125 71.09375 
Q 15.4375 72.65625 20.34375 73.4375 
Q 25.25 74.21875 29.59375 74.21875 
Q 40.828125 74.21875 47.359375 69.109375 
Q 53.90625 64.015625 53.90625 55.328125 
Q 53.90625 49.265625 50.4375 45.09375 
Q 46.96875 40.921875 40.578125 39.3125 
z
" id="DejaVuSans-51"/>
     </defs>
     <use xlink:href="#DejaVuSans-97"/>
     <use x="61.279297" xlink:href="#DejaVuSans-108"/>
     <use x="89.0625" xlink:href="#DejaVuSans-51"/>
    </g>
   </g>
   <g id="text_15">
    <!-- bbob-constrained f36, 20-D -->
    <g transform="translate(60.632064 38.111366)scale(0.102 -0.102)">
     <defs>
      <path d="M 48.6875 27.296875 
Q 48.6875 37.203125 44.609375 42.84375 
Q 40.53125 48.484375 33.40625 48.484375 
Q 26.265625 48.484375 22.1875 42.84375 
Q 18.109375 37.203125 18.109375 27.296875 
Q 18.109375 17.390625 22.1875 11.75 
Q 26.265625 6.109375 33.40625 6.109375 
Q 40.53125 6.109375 44.609375 11.75 
Q 48.6875 17.390625 48.6875 27.296875 
z
M 18.109375 46.390625 
Q 20.953125 51.265625 25.265625 53.625 
Q 29.59375 56 35.59375 56 
Q 45.5625 56 51.78125 48.09375 
Q 58.015625 40.1875 58.015625 27.296875 
Q 58.015625 14.40625 51.78125 6.484375 
Q 45.5625 -1.421875 35.59375 -1.421875 
Q 29.59375 -1.421875 25.265625 0.953125 
Q 20.953125 3.328125 18.109375 8.203125 
L 18.109375 0 
L 9.078125 0 
L 9.078125 75.984375 
L 18.109375 75.984375 
z
" id="DejaVuSans-98"/>
      <path d="M 19.671875 64.796875 
L 19.671875 8.109375 
L 31.59375 8.109375 
Q 46.6875 8.109375 53.6875 14.9375 
Q 60.6875 21.78125 60.6875 36.53125 
Q 60.6875 51.171875 53.6875 57.984375 
Q 46.6875 64.796875 31.59375 64.796875 
z
M 9.8125 72.90625 
L 30.078125 72.90625 
Q 51.265625 72.90625 61.171875 64.09375 
Q 71.09375 55.28125 71.09375 36.53125 
Q 71.09375 17.671875 61.125 8.828125 
Q 51.171875 0 30.078125 0 
L 9.8125 0 
z
" id="DejaVuSans-68"/>
     </defs>
     <use xlink:href="#DejaVuSans-98"/>
     <use x="63.476562" xlink:href="#DejaVuSans-98"/>
     <use x="126.953125" xlink:href="#DejaVuSans-111"/>
     <use x="188.134766" xlink:href="#DejaVuSans-98"/>
     <use x="251.611328" xlink:href="#DejaVuSans-45"/>
     <use x="287.695312" xlink:href="#DejaVuSans-99"/>
     <use x="342.675781" xlink:href="#DejaVuSans-111"/>
     <use x="403.857422" xlink:href="#DejaVuSans-110"/>
     <use x="467.236328" xlink:href="#DejaVuSans-115"/>
     <use x="519.335938" xlink:href="#DejaVuSans-116"/>
     <use x="558.544922" xlink:href="#DejaVuSans-114"/>
     <use x="599.658203" xlink:href="#DejaVuSans-97"/>
     <use x="660.9375" xlink:href="#DejaVuSans-105"/>
     <use x="688.720703" xlink:href="#DejaVuSans-110"/>
     <use x="752.099609" xlink:href="#DejaVuSans-101"/>
     <use x="813.623047" xlink:href="#DejaVuSans-100"/>
     <use x="877.099609" xlink:href="#DejaVuSans-32"/>
     <use x="908.886719" xlink:href="#DejaVuSans-102"/>
     <use x="944.091797" xlink:href="#DejaVuSans-51"/>
     <use x="1007.714844" xlink:href="#DejaVuSans-54"/>
     <use x="1071.337891" xlink:href="#DejaVuSans-44"/>
     <use x="1103.125" xlink:href="#DejaVuSans-32"/>
     <use x="1134.912109" xlink:href="#DejaVuSans-50"/>
     <use x="1198.535156" xlink:href="#DejaVuSans-48"/>
     <use x="1262.158203" xlink:href="#DejaVuSans-45"/>
     <use x="1298.242188" xlink:href="#DejaVuSans-68"/>
    </g>
    <!-- 41 targets: 100..1e-06 -->
    <g transform="translate(60.632064 49.533135)scale(0.102 -0.102)">
     <defs>
      <path d="M 11.71875 12.40625 
L 22.015625 12.40625 
L 22.015625 0 
L 11.71875 0 
z
M 11.71875 51.703125 
L 22.015625 51.703125 
L 22.015625 39.3125 
L 11.71875 39.3125 
z
" id="DejaVuSans-58"/>
     </defs>
     <use xlink:href="#DejaVuSans-52"/>
     <use x="63.623047" xlink:href="#DejaVuSans-49"/>
     <use x="127.246094" xlink:href="#DejaVuSans-32"/>
     <use x="159.033203" xlink:href="#DejaVuSans-116"/>
     <use x="198.242188" xlink:href="#DejaVuSans-97"/>
     <use x="259.521484" xlink:href="#DejaVuSans-114"/>
     <use x="298.884766" xlink:href="#DejaVuSans-103"/>
     <use x="362.361328" xlink:href="#DejaVuSans-101"/>
     <use x="423.884766" xlink:href="#DejaVuSans-116"/>
     <use x="463.09375" xlink:href="#DejaVuSans-115"/>
     <use x="515.193359" xlink:href="#DejaVuSans-58"/>
     <use x="548.884766" xlink:href="#DejaVuSans-32"/>
     <use x="580.671875" xlink:href="#DejaVuSans-49"/>
     <use x="644.294922" xlink:href="#DejaVuSans-48"/>
     <use x="707.917969" xlink:href="#DejaVuSans-48"/>
     <use x="771.541016" xlink:href="#DejaVuSans-46"/>
     <use x="803.328125" xlink:href="#DejaVuSans-46"/>
     <use x="835.115234" xlink:href="#DejaVuSans-49"/>
     <use x="898.738281" xlink:href="#DejaVuSans-101"/>
     <use x="960.261719" xlink:href="#DejaVuSans-45"/>
     <use x="996.345703" xlink:href="#DejaVuSans-48"/>
     <use x="1059.96875" xlink:href="#DejaVuSans-54"/>
    </g>
    <!-- evals = f-evals + g-evals -->
    <g transform="translate(60.632064 60.954904)scale(0.102 -0.102)">
     <defs>
      <path d="M 10.59375 45.40625 
L 73.1875 45.40625 
L 73.1875 37.203125 
L 10.59375 37.203125 
z
M 10.59375 25.484375 
L 73.1875 25.484375 
L 73.1875 17.1875 
L 10.59375 17.1875 
z
" id="DejaVuSans-61"/>
      <path d="M 46 62.703125 
L 46 35.5 
L 73.1875 35.5 
L 73.1875 27.203125 
L 46 27.203125 
L 46 0 
L 37.796875 0 
L 37.796875 27.203125 
L 10.59375 27.203125 
L 10.59375 35.5 
L 37.796875 35.5 
L 37.796875 62.703125 
z
" id="DejaVuSans-43"/>
     </defs>
     <use xlink:href="#DejaVuSans-101"/>
     <use x="61.523438" xlink:href="#DejaVuSans-118"/>
     <use x="120.703125" xlink:href="#DejaVuSans-97"/>
     <use x="181.982422" xlink:href="#DejaVuSans-108"/>
     <use x="209.765625" xlink:href="#DejaVuSans-115"/>
     <use x="261.865234" xlink:href="#DejaVuSans-32"/>
     <use x="293.652344" xlink:href="#DejaVuSans-61"/>
     <use x="377.441406" xlink:href="#DejaVuSans-32"/>
     <use x="409.228516" xlink:href="#DejaVuSans-102"/>
     <use x="438.933594" xlink:href="#DejaVuSans-45"/>
     <use x="475.017578" xlink:href="#DejaVuSans-101"/>
     <use x="536.541016" xlink:href="#DejaVuSans-118"/>
     <use x="595.720703" xlink:href="#DejaVuSans-97"/>
     <use x="657" xlink:href="#DejaVuSans-108"/>
     <use x="684.783203" xlink:href="#DejaVuSans-115"/>
     <use x="736.882812" xlink:href="#DejaVuSans-32"/>
     <use x="768.669922" xlink:href="#DejaVuSans-43"/>
     <use x="852.458984" xlink:href="#DejaVuSans-32"/>
     <use x="884.246094" xlink:href="#DejaVuSans-103"/>
     <use x="947.722656" xlink:href="#DejaVuSans-45"/>
     <use x="983.806641" xlink:href="#DejaVuSans-101"/>
     <use x="1045.330078" xlink:href="#DejaVuSans-118"/>
     <use x="1104.509766" xlink:href="#DejaVuSans-97"/>
     <use x="1165.789062" xlink:href="#DejaVuSans-108"/>
     <use x="1193.572266" xlink:href="#DejaVuSans-115"/>
    </g>
    <!-- 15 instances -->
    <g transform="translate(60.632064 72.376672)scale(0.102 -0.102)">
     <defs>
      <path d="M 10.796875 72.90625 
L 49.515625 72.90625 
L 49.515625 64.59375 
L 19.828125 64.59375 
L 19.828125 46.734375 
Q 21.96875 47.46875 24.109375 47.828125 
Q 26.265625 48.1875 28.421875 48.1875 
Q 40.625 48.1875 47.75 41.5 
Q 54.890625 34.8125 54.890625 23.390625 
Q 54.890625 11.625 47.5625 5.09375 
Q 40.234375 -1.421875 26.90625 -1.421875 
Q 22.3125 -1.421875 17.546875 -0.640625 
Q 12.796875 0.140625 7.71875 1.703125 
L 7.71875 11.625 
Q 12.109375 9.234375 16.796875 8.0625 
Q 21.484375 6.890625 26.703125 6.890625 
Q 35.15625 6.890625 40.078125 11.328125 
Q 45.015625 15.765625 45.015625 23.390625 
Q 45.015625 31 40.078125 35.4375 
Q 35.15625 39.890625 26.703125 39.890625 
Q 22.75 39.890625 18.8125 39.015625 
Q 14.890625 38.140625 10.796875 36.28125 
z
" id="DejaVuSans-53"/>
     </defs>
     <use xlink:href="#DejaVuSans-49"/>
     <use x="63.623047" xlink:href="#DejaVuSans-53"/>
     <use x="127.246094" xlink:href="#DejaVuSans-32"/>
     <use x="159.033203" xlink:href="#DejaVuSans-105"/>
     <use x="186.816406" xlink:href="#DejaVuSans-110"/>
     <use x="250.195312" xlink:href="#DejaVuSans-115"/>
     <use x="302.294922" xlink:href="#DejaVuSans-116"/>
     <use x="341.503906" xlink:href="#DejaVuSans-97"/>
     <use x="402.783203" xlink:href="#DejaVuSans-110"/>
     <use x="466.162109" xlink:href="#DejaVuSans-99"/>
     <use x="521.142578" xlink:href="#DejaVuSans-101"/>
     <use x="582.666016" xlink:href="#DejaVuSans-115"/>
    </g>
   </g>
   <g id="text_16">
    <!-- v2.6.1.9 -->
    <g style="fill:#808080;" transform="translate(188.751637 294.151352)scale(0.1 -0.1)">
     <defs>
      <path d="M 10.984375 1.515625 
L 10.984375 10.5 
Q 14.703125 8.734375 18.5 7.8125 
Q 22.3125 6.890625 25.984375 6.890625 
Q 35.75 6.890625 40.890625 13.453125 
Q 46.046875 20.015625 46.78125 33.40625 
Q 43.953125 29.203125 39.59375 26.953125 
Q 35.25 24.703125 29.984375 24.703125 
Q 19.046875 24.703125 12.671875 31.3125 
Q 6.296875 37.9375 6.296875 49.421875 
Q 6.296875 60.640625 12.9375 67.421875 
Q 19.578125 74.21875 30.609375 74.21875 
Q 43.265625 74.21875 49.921875 64.515625 
Q 56.59375 54.828125 56.59375 36.375 
Q 56.59375 19.140625 48.40625 8.859375 
Q 40.234375 -1.421875 26.421875 -1.421875 
Q 22.703125 -1.421875 18.890625 -0.6875 
Q 15.09375 0.046875 10.984375 1.515625 
z
M 30.609375 32.421875 
Q 37.25 32.421875 41.125 36.953125 
Q 45.015625 41.5 45.015625 49.421875 
Q 45.015625 57.28125 41.125 61.84375 
Q 37.25 66.40625 30.609375 66.40625 
Q 23.96875 66.40625 20.09375 61.84375 
Q 16.21875 57.28125 16.21875 49.421875 
Q 16.21875 41.5 20.09375 36.953125 
Q 23.96875 32.421875 30.609375 32.421875 
z
" id="DejaVuSans-57"/>
     </defs>
     <use xlink:href="#DejaVuSans-118"/>
     <use x="59.179688" xlink:href="#DejaVuSans-50"/>
     <use x="122.802734" xlink:href="#DejaVuSans-46"/>
     <use x="154.589844" xlink:href="#DejaVuSans-54"/>
     <use x="218.212891" xlink:href="#DejaVuSans-46"/>
     <use x="250" xlink:href="#DejaVuSans-49"/>
     <use x="313.623047" xlink:href="#DejaVuSans-46"/>
     <use x="345.410156" xlink:href="#DejaVuSans-57"/>
    </g>
   </g>
   <g id="text_17">
    <!-- 36 Bent Cigar, m=9+int(9n/2) -->
    <g transform="translate(58.012575 21.648)scale(0.2 -0.2)">
     <defs>
      <path d="M 19.671875 34.8125 
L 19.671875 8.109375 
L 35.5 8.109375 
Q 43.453125 8.109375 47.28125 11.40625 
Q 51.125 14.703125 51.125 21.484375 
Q 51.125 28.328125 47.28125 31.5625 
Q 43.453125 34.8125 35.5 34.8125 
z
M 19.671875 64.796875 
L 19.671875 42.828125 
L 34.28125 42.828125 
Q 41.5 42.828125 45.03125 45.53125 
Q 48.578125 48.25 48.578125 53.8125 
Q 48.578125 59.328125 45.03125 62.0625 
Q 41.5 64.796875 34.28125 64.796875 
z
M 9.8125 72.90625 
L 35.015625 72.90625 
Q 46.296875 72.90625 52.390625 68.21875 
Q 58.5 63.53125 58.5 54.890625 
Q 58.5 48.1875 55.375 44.234375 
Q 52.25 40.28125 46.1875 39.3125 
Q 53.46875 37.75 57.5 32.78125 
Q 61.53125 27.828125 61.53125 20.40625 
Q 61.53125 10.640625 54.890625 5.3125 
Q 48.25 0 35.984375 0 
L 9.8125 0 
z
" id="DejaVuSans-66"/>
      <path d="M 64.40625 67.28125 
L 64.40625 56.890625 
Q 59.421875 61.53125 53.78125 63.8125 
Q 48.140625 66.109375 41.796875 66.109375 
Q 29.296875 66.109375 22.65625 58.46875 
Q 16.015625 50.828125 16.015625 36.375 
Q 16.015625 21.96875 22.65625 14.328125 
Q 29.296875 6.6875 41.796875 6.6875 
Q 48.140625 6.6875 53.78125 8.984375 
Q 59.421875 11.28125 64.40625 15.921875 
L 64.40625 5.609375 
Q 59.234375 2.09375 53.4375 0.328125 
Q 47.65625 -1.421875 41.21875 -1.421875 
Q 24.65625 -1.421875 15.125 8.703125 
Q 5.609375 18.84375 5.609375 36.375 
Q 5.609375 53.953125 15.125 64.078125 
Q 24.65625 74.21875 41.21875 74.21875 
Q 47.75 74.21875 53.53125 72.484375 
Q 59.328125 70.75 64.40625 67.28125 
z
" id="DejaVuSans-67"/>
     </defs>
     <use xlink:href="#DejaVuSans-51"/>
     <use x="63.623047" xlink:href="#DejaVuSans-54"/>
     <use x="127.246094" xlink:href="#DejaVuSans-32"/>
     <use x="159.033203" xlink:href="#DejaVuSans-66"/>
     <use x="227.636719" xlink:href="#DejaVuSans-101"/>
     <use x="289.160156" xlink:href="#DejaVuSans-110"/>
     <use x="352.539062" xlink:href="#DejaVuSans-116"/>
     <use x="391.748047" xlink:href="#DejaVuSans-32"/>
     <use x="423.535156" xlink:href="#DejaVuSans-67"/>
     <use x="493.359375" xlink:href="#DejaVuSans-105"/>
     <use x="521.142578" xlink:href="#DejaVuSans-103"/>
     <use x="584.619141" xlink:href="#DejaVuSans-97"/>
     <use x="645.898438" xlink:href="#DejaVuSans-114"/>
     <use x="687.011719" xlink:href="#DejaVuSans-44"/>
     <use x="718.798828" xlink:href="#DejaVuSans-32"/>
     <use x="750.585938" xlink:href="#DejaVuSans-109"/>
     <use x="847.998047" xlink:href="#DejaVuSans-61"/>
     <use x="931.787109" xlink:href="#DejaVuSans-57"/>
     <use x="995.410156" xlink:href="#DejaVuSans-43"/>
     <use x="1079.199219" xlink:href="#DejaVuSans-105"/>
     <use x="1106.982422" xlink:href="#DejaVuSans-110"/>
     <use x="1170.361328" xlink:href="#DejaVuSans-116"/>
     <use x="1209.570312" xlink:href="#DejaVuSans-40"/>
     <use x="1248.583984" xlink:href="#DejaVuSans-57"/>
     <use x="1312.207031" xlink:href="#DejaVuSans-110"/>
     <use x="1375.585938" xlink:href="#DejaVuSans-47"/>
     <use x="1409.277344" xlink:href="#DejaVuSans-50"/>
     <use x="1472.900391" xlink:href="#DejaVuSans-41"/>
    </g>
   </g>
  </g>
 </g>
 <defs>
  <clipPath id="p01584711e3">
   <rect height="271.296" width="303.2064" x="57.6" y="27.648"/>
  </clipPath>
 </defs>
</svg>
