<?xml version="1.0" encoding="utf-8" standalone="no"?>
<!DOCTYPE svg PUBLIC "-//W3C//DTD SVG 1.1//EN"
  "http://www.w3.org/Graphics/SVG/1.1/DTD/svg11.dtd">
<!-- Created with matplotlib (https://matplotlib.org/) -->
<svg height="345.6pt" version="1.1" viewBox="0 0 460.8 345.6" width="460.8pt" xmlns="http://www.w3.org/2000/svg" xmlns:xlink="http://www.w3.org/1999/xlink">
 <metadata>
  <rdf:RDF xmlns:cc="http://creativecommons.org/ns#" xmlns:dc="http://purl.org/dc/elements/1.1/" xmlns:rdf="http://www.w3.org/1999/02/22-rdf-syntax-ns#">
   <cc:Work>
    <dc:type rdf:resource="http://purl.org/dc/dcmitype/StillImage"/>
    <dc:date>2022-04-26T20:53:26.625888</dc:date>
    <dc:format>image/svg+xml</dc:format>
    <dc:creator>
     <cc:Agent>
      <dc:title>Matplotlib v3.3.3, https://matplotlib.org/</dc:title>
     </cc:Agent>
    </dc:creator>
   </cc:Work>
  </rdf:RDF>
 </metadata>
 <defs>
  <style type="text/css">*{stroke-linecap:butt;stroke-linejoin:round;}</style>
 </defs>
 <g id="figure_1">
  <g id="patch_1">
   <path d="M 0 345.6 
L 460.8 345.6 
L 460.8 0 
L 0 0 
z
" style="fill:#ffffff;"/>
  </g>
  <g id="axes_1">
   <g id="patch_2">
    <path d="M 57.6 298.944 
L 360.8064 298.944 
L 360.8064 27.648 
L 57.6 27.648 
z
" style="fill:#ffffff;"/>
   </g>
   <g id="matplotlib.axis_1">
    <g id="xtick_1">
     <g id="line2d_1">
      <path clip-path="url(#p86abbd0f3d)" d="M 57.6 298.944 
L 57.6 27.648 
" style="fill:none;stroke:#b0b0b0;stroke-linecap:square;stroke-width:0.8;"/>
     </g>
     <g id="line2d_2">
      <defs>
       <path d="M 0 0 
L 0 3.5 
" id="m2e67f9937e" style="stroke:#000000;stroke-width:0.8;"/>
      </defs>
      <g>
       <use style="stroke:#000000;stroke-width:0.8;" x="57.6" xlink:href="#m2e67f9937e" y="298.944"/>
      </g>
     </g>
     <g id="text_1">
      <!-- 0 -->
      <g transform="translate(52.191875 318.861344)scale(0.17 -0.17)">
       <defs>
        <path d="M 31.78125 66.40625 
Q 24.171875 66.40625 20.328125 58.90625 
Q 16.5 51.421875 16.5 36.375 
Q 16.5 21.390625 20.328125 13.890625 
Q 24.171875 6.390625 31.78125 6.390625 
Q 39.453125 6.390625 43.28125 13.890625 
Q 47.125 21.390625 47.125 36.375 
Q 47.125 51.421875 43.28125 58.90625 
Q 39.453125 66.40625 31.78125 66.40625 
z
M 31.78125 74.21875 
Q 44.046875 74.21875 50.515625 64.515625 
Q 56.984375 54.828125 56.984375 36.375 
Q 56.984375 17.96875 50.515625 8.265625 
Q 44.046875 -1.421875 31.78125 -1.421875 
Q 19.53125 -1.421875 13.0625 8.265625 
Q 6.59375 17.96875 6.59375 36.375 
Q 6.59375 54.828125 13.0625 64.515625 
Q 19.53125 74.21875 31.78125 74.21875 
z
" id="DejaVuSans-48"/>
       </defs>
       <use xlink:href="#DejaVuSans-48"/>
      </g>
     </g>
    </g>
    <g id="xtick_2">
     <g id="line2d_3">
      <path clip-path="url(#p86abbd0f3d)" d="M 144.2304 298.944 
L 144.2304 27.648 
" style="fill:none;stroke:#b0b0b0;stroke-linecap:square;stroke-width:0.8;"/>
     </g>
     <g id="line2d_4">
      <g>
       <use style="stroke:#000000;stroke-width:0.8;" x="144.2304" xlink:href="#m2e67f9937e" y="298.944"/>
      </g>
     </g>
     <g id="text_2">
      <!-- 2 -->
      <g transform="translate(138.822275 318.861344)scale(0.17 -0.17)">
       <defs>
        <path d="M 19.1875 8.296875 
L 53.609375 8.296875 
L 53.609375 0 
L 7.328125 0 
L 7.328125 8.296875 
Q 12.9375 14.109375 22.625 23.890625 
Q 32.328125 33.6875 34.8125 36.53125 
Q 39.546875 41.84375 41.421875 45.53125 
Q 43.3125 49.21875 43.3125 52.78125 
Q 43.3125 58.59375 39.234375 62.25 
Q 35.15625 65.921875 28.609375 65.921875 
Q 23.96875 65.921875 18.8125 64.3125 
Q 13.671875 62.703125 7.8125 59.421875 
L 7.8125 69.390625 
Q 13.765625 71.78125 18.9375 73 
Q 24.125 74.21875 28.421875 74.21875 
Q 39.75 74.21875 46.484375 68.546875 
Q 53.21875 62.890625 53.21875 53.421875 
Q 53.21875 48.921875 51.53125 44.890625 
Q 49.859375 40.875 45.40625 35.40625 
Q 44.1875 33.984375 37.640625 27.21875 
Q 31.109375 20.453125 19.1875 8.296875 
z
" id="DejaVuSans-50"/>
       </defs>
       <use xlink:href="#DejaVuSans-50"/>
      </g>
     </g>
    </g>
    <g id="xtick_3">
     <g id="line2d_5">
      <path clip-path="url(#p86abbd0f3d)" d="M 230.8608 298.944 
L 230.8608 27.648 
" style="fill:none;stroke:#b0b0b0;stroke-linecap:square;stroke-width:0.8;"/>
     </g>
     <g id="line2d_6">
      <g>
       <use style="stroke:#000000;stroke-width:0.8;" x="230.8608" xlink:href="#m2e67f9937e" y="298.944"/>
      </g>
     </g>
     <g id="text_3">
      <!-- 4 -->
      <g transform="translate(225.452675 318.861344)scale(0.17 -0.17)">
       <defs>
        <path d="M 37.796875 64.3125 
L 12.890625 25.390625 
L 37.796875 25.390625 
z
M 35.203125 72.90625 
L 47.609375 72.90625 
L 47.609375 25.390625 
L 58.015625 25.390625 
L 58.015625 17.1875 
L 47.609375 17.1875 
L 47.609375 0 
L 37.796875 0 
L 37.796875 17.1875 
L 4.890625 17.1875 
L 4.890625 26.703125 
z
" id="DejaVuSans-52"/>
       </defs>
       <use xlink:href="#DejaVuSans-52"/>
      </g>
     </g>
    </g>
    <g id="xtick_4">
     <g id="line2d_7">
      <path clip-path="url(#p86abbd0f3d)" d="M 317.4912 298.944 
L 317.4912 27.648 
" style="fill:none;stroke:#b0b0b0;stroke-linecap:square;stroke-width:0.8;"/>
     </g>
     <g id="line2d_8">
      <g>
       <use style="stroke:#000000;stroke-width:0.8;" x="317.4912" xlink:href="#m2e67f9937e" y="298.944"/>
      </g>
     </g>
     <g id="text_4">
      <!-- 6 -->
      <g transform="translate(312.083075 318.861344)scale(0.17 -0.17)">
       <defs>
        <path d="M 33.015625 40.375 
Q 26.375 40.375 22.484375 35.828125 
Q 18.609375 31.296875 18.609375 23.390625 
Q 18.609375 15.53125 22.484375 10.953125 
Q 26.375 6.390625 33.015625 6.390625 
Q 39.65625 6.390625 43.53125 10.953125 
Q 47.40625 15.53125 47.40625 23.390625 
Q 47.40625 31.296875 43.53125 35.828125 
Q 39.65625 40.375 33.015625 40.375 
z
M 52.59375 71.296875 
L 52.59375 62.3125 
Q 48.875 64.0625 45.09375 64.984375 
Q 41.3125 65.921875 37.59375 65.921875 
Q 27.828125 65.921875 22.671875 59.328125 
Q 17.53125 52.734375 16.796875 39.40625 
Q 19.671875 43.65625 24.015625 45.921875 
Q 28.375 48.1875 33.59375 48.1875 
Q 44.578125 48.1875 50.953125 41.515625 
Q 57.328125 34.859375 57.328125 23.390625 
Q 57.328125 12.15625 50.6875 5.359375 
Q 44.046875 -1.421875 33.015625 -1.421875 
Q 20.359375 -1.421875 13.671875 8.265625 
Q 6.984375 17.96875 6.984375 36.375 
Q 6.984375 53.65625 15.1875 63.9375 
Q 23.390625 74.21875 37.203125 74.21875 
Q 40.921875 74.21875 44.703125 73.484375 
Q 48.484375 72.75 52.59375 71.296875 
z
" id="DejaVuSans-54"/>
       </defs>
       <use xlink:href="#DejaVuSans-54"/>
      </g>
     </g>
    </g>
    <g id="xtick_5">
     <g id="line2d_9">
      <path clip-path="url(#p86abbd0f3d)" d="M 100.9152 298.944 
L 100.9152 27.648 
" style="fill:none;stroke:#b0b0b0;stroke-linecap:square;stroke-width:0.8;"/>
     </g>
     <g id="line2d_10">
      <defs>
       <path d="M 0 0 
L 0 2 
" id="m0b80be01e6" style="stroke:#000000;stroke-width:0.6;"/>
      </defs>
      <g>
       <use style="stroke:#000000;stroke-width:0.6;" x="100.9152" xlink:href="#m0b80be01e6" y="298.944"/>
      </g>
     </g>
    </g>
    <g id="xtick_6">
     <g id="line2d_11">
      <path clip-path="url(#p86abbd0f3d)" d="M 187.5456 298.944 
L 187.5456 27.648 
" style="fill:none;stroke:#b0b0b0;stroke-linecap:square;stroke-width:0.8;"/>
     </g>
     <g id="line2d_12">
      <g>
       <use style="stroke:#000000;stroke-width:0.6;" x="187.5456" xlink:href="#m0b80be01e6" y="298.944"/>
      </g>
     </g>
    </g>
    <g id="xtick_7">
     <g id="line2d_13">
      <path clip-path="url(#p86abbd0f3d)" d="M 274.176 298.944 
L 274.176 27.648 
" style="fill:none;stroke:#b0b0b0;stroke-linecap:square;stroke-width:0.8;"/>
     </g>
     <g id="line2d_14">
      <g>
       <use style="stroke:#000000;stroke-width:0.6;" x="274.176" xlink:href="#m0b80be01e6" y="298.944"/>
      </g>
     </g>
    </g>
    <g id="xtick_8">
     <g id="line2d_15">
      <path clip-path="url(#p86abbd0f3d)" d="M 360.8064 298.944 
L 360.8064 27.648 
" style="fill:none;stroke:#b0b0b0;stroke-linecap:square;stroke-width:0.8;"/>
     </g>
     <g id="line2d_16">
      <g>
       <use style="stroke:#000000;stroke-width:0.6;" x="360.8064" xlink:href="#m0b80be01e6" y="298.944"/>
      </g>
     </g>
    </g>
    <g id="text_5">
     <!-- log10(evals / dimension) -->
     <g transform="translate(104.238825 339.314156)scale(0.17 -0.17)">
      <defs>
       <path d="M 9.421875 75.984375 
L 18.40625 75.984375 
L 18.40625 0 
L 9.421875 0 
z
" id="DejaVuSans-108"/>
       <path d="M 30.609375 48.390625 
Q 23.390625 48.390625 19.1875 42.75 
Q 14.984375 37.109375 14.984375 27.296875 
Q 14.984375 17.484375 19.15625 11.84375 
Q 23.34375 6.203125 30.609375 6.203125 
Q 37.796875 6.203125 41.984375 11.859375 
Q 46.1875 17.53125 46.1875 27.296875 
Q 46.1875 37.015625 41.984375 42.703125 
Q 37.796875 48.390625 30.609375 48.390625 
z
M 30.609375 56 
Q 42.328125 56 49.015625 48.375 
Q 55.71875 40.765625 55.71875 27.296875 
Q 55.71875 13.875 49.015625 6.21875 
Q 42.328125 -1.421875 30.609375 -1.421875 
Q 18.84375 -1.421875 12.171875 6.21875 
Q 5.515625 13.875 5.515625 27.296875 
Q 5.515625 40.765625 12.171875 48.375 
Q 18.84375 56 30.609375 56 
z
" id="DejaVuSans-111"/>
       <path d="M 45.40625 27.984375 
Q 45.40625 37.75 41.375 43.109375 
Q 37.359375 48.484375 30.078125 48.484375 
Q 22.859375 48.484375 18.828125 43.109375 
Q 14.796875 37.75 14.796875 27.984375 
Q 14.796875 18.265625 18.828125 12.890625 
Q 22.859375 7.515625 30.078125 7.515625 
Q 37.359375 7.515625 41.375 12.890625 
Q 45.40625 18.265625 45.40625 27.984375 
z
M 54.390625 6.78125 
Q 54.390625 -7.171875 48.1875 -13.984375 
Q 42 -20.796875 29.203125 -20.796875 
Q 24.46875 -20.796875 20.265625 -20.09375 
Q 16.0625 -19.390625 12.109375 -17.921875 
L 12.109375 -9.1875 
Q 16.0625 -11.328125 19.921875 -12.34375 
Q 23.78125 -13.375 27.78125 -13.375 
Q 36.625 -13.375 41.015625 -8.765625 
Q 45.40625 -4.15625 45.40625 5.171875 
L 45.40625 9.625 
Q 42.625 4.78125 38.28125 2.390625 
Q 33.9375 0 27.875 0 
Q 17.828125 0 11.671875 7.65625 
Q 5.515625 15.328125 5.515625 27.984375 
Q 5.515625 40.671875 11.671875 48.328125 
Q 17.828125 56 27.875 56 
Q 33.9375 56 38.28125 53.609375 
Q 42.625 51.21875 45.40625 46.390625 
L 45.40625 54.6875 
L 54.390625 54.6875 
z
" id="DejaVuSans-103"/>
       <path d="M 12.40625 8.296875 
L 28.515625 8.296875 
L 28.515625 63.921875 
L 10.984375 60.40625 
L 10.984375 69.390625 
L 28.421875 72.90625 
L 38.28125 72.90625 
L 38.28125 8.296875 
L 54.390625 8.296875 
L 54.390625 0 
L 12.40625 0 
z
" id="DejaVuSans-49"/>
       <path d="M 31 75.875 
Q 24.46875 64.65625 21.28125 53.65625 
Q 18.109375 42.671875 18.109375 31.390625 
Q 18.109375 20.125 21.3125 9.0625 
Q 24.515625 -2 31 -13.1875 
L 23.1875 -13.1875 
Q 15.875 -1.703125 12.234375 9.375 
Q 8.59375 20.453125 8.59375 31.390625 
Q 8.59375 42.28125 12.203125 53.3125 
Q 15.828125 64.359375 23.1875 75.875 
z
" id="DejaVuSans-40"/>
       <path d="M 56.203125 29.59375 
L 56.203125 25.203125 
L 14.890625 25.203125 
Q 15.484375 15.921875 20.484375 11.0625 
Q 25.484375 6.203125 34.421875 6.203125 
Q 39.59375 6.203125 44.453125 7.46875 
Q 49.3125 8.734375 54.109375 11.28125 
L 54.109375 2.78125 
Q 49.265625 0.734375 44.1875 -0.34375 
Q 39.109375 -1.421875 33.890625 -1.421875 
Q 20.796875 -1.421875 13.15625 6.1875 
Q 5.515625 13.8125 5.515625 26.8125 
Q 5.515625 40.234375 12.765625 48.109375 
Q 20.015625 56 32.328125 56 
Q 43.359375 56 49.78125 48.890625 
Q 56.203125 41.796875 56.203125 29.59375 
z
M 47.21875 32.234375 
Q 47.125 39.59375 43.09375 43.984375 
Q 39.0625 48.390625 32.421875 48.390625 
Q 24.90625 48.390625 20.390625 44.140625 
Q 15.875 39.890625 15.1875 32.171875 
z
" id="DejaVuSans-101"/>
       <path d="M 2.984375 54.6875 
L 12.5 54.6875 
L 29.59375 8.796875 
L 46.6875 54.6875 
L 56.203125 54.6875 
L 35.6875 0 
L 23.484375 0 
z
" id="DejaVuSans-118"/>
       <path d="M 34.28125 27.484375 
Q 23.390625 27.484375 19.1875 25 
Q 14.984375 22.515625 14.984375 16.5 
Q 14.984375 11.71875 18.140625 8.90625 
Q 21.296875 6.109375 26.703125 6.109375 
Q 34.1875 6.109375 38.703125 11.40625 
Q 43.21875 16.703125 43.21875 25.484375 
L 43.21875 27.484375 
z
M 52.203125 31.203125 
L 52.203125 0 
L 43.21875 0 
L 43.21875 8.296875 
Q 40.140625 3.328125 35.546875 0.953125 
Q 30.953125 -1.421875 24.3125 -1.421875 
Q 15.921875 -1.421875 10.953125 3.296875 
Q 6 8.015625 6 15.921875 
Q 6 25.140625 12.171875 29.828125 
Q 18.359375 34.515625 30.609375 34.515625 
L 43.21875 34.515625 
L 43.21875 35.40625 
Q 43.21875 41.609375 39.140625 45 
Q 35.0625 48.390625 27.6875 48.390625 
Q 23 48.390625 18.546875 47.265625 
Q 14.109375 46.140625 10.015625 43.890625 
L 10.015625 52.203125 
Q 14.9375 54.109375 19.578125 55.046875 
Q 24.21875 56 28.609375 56 
Q 40.484375 56 46.34375 49.84375 
Q 52.203125 43.703125 52.203125 31.203125 
z
" id="DejaVuSans-97"/>
       <path d="M 44.28125 53.078125 
L 44.28125 44.578125 
Q 40.484375 46.53125 36.375 47.5 
Q 32.28125 48.484375 27.875 48.484375 
Q 21.1875 48.484375 17.84375 46.4375 
Q 14.5 44.390625 14.5 40.28125 
Q 14.5 37.15625 16.890625 35.375 
Q 19.28125 33.59375 26.515625 31.984375 
L 29.59375 31.296875 
Q 39.15625 29.25 43.1875 25.515625 
Q 47.21875 21.78125 47.21875 15.09375 
Q 47.21875 7.46875 41.1875 3.015625 
Q 35.15625 -1.421875 24.609375 -1.421875 
Q 20.21875 -1.421875 15.453125 -0.5625 
Q 10.6875 0.296875 5.421875 2 
L 5.421875 11.28125 
Q 10.40625 8.6875 15.234375 7.390625 
Q 20.0625 6.109375 24.8125 6.109375 
Q 31.15625 6.109375 34.5625 8.28125 
Q 37.984375 10.453125 37.984375 14.40625 
Q 37.984375 18.0625 35.515625 20.015625 
Q 33.0625 21.96875 24.703125 23.78125 
L 21.578125 24.515625 
Q 13.234375 26.265625 9.515625 29.90625 
Q 5.8125 33.546875 5.8125 39.890625 
Q 5.8125 47.609375 11.28125 51.796875 
Q 16.75 56 26.8125 56 
Q 31.78125 56 36.171875 55.265625 
Q 40.578125 54.546875 44.28125 53.078125 
z
" id="DejaVuSans-115"/>
       <path id="DejaVuSans-32"/>
       <path d="M 25.390625 72.90625 
L 33.6875 72.90625 
L 8.296875 -9.28125 
L 0 -9.28125 
z
" id="DejaVuSans-47"/>
       <path d="M 45.40625 46.390625 
L 45.40625 75.984375 
L 54.390625 75.984375 
L 54.390625 0 
L 45.40625 0 
L 45.40625 8.203125 
Q 42.578125 3.328125 38.25 0.953125 
Q 33.9375 -1.421875 27.875 -1.421875 
Q 17.96875 -1.421875 11.734375 6.484375 
Q 5.515625 14.40625 5.515625 27.296875 
Q 5.515625 40.1875 11.734375 48.09375 
Q 17.96875 56 27.875 56 
Q 33.9375 56 38.25 53.625 
Q 42.578125 51.265625 45.40625 46.390625 
z
M 14.796875 27.296875 
Q 14.796875 17.390625 18.875 11.75 
Q 22.953125 6.109375 30.078125 6.109375 
Q 37.203125 6.109375 41.296875 11.75 
Q 45.40625 17.390625 45.40625 27.296875 
Q 45.40625 37.203125 41.296875 42.84375 
Q 37.203125 48.484375 30.078125 48.484375 
Q 22.953125 48.484375 18.875 42.84375 
Q 14.796875 37.203125 14.796875 27.296875 
z
" id="DejaVuSans-100"/>
       <path d="M 9.421875 54.6875 
L 18.40625 54.6875 
L 18.40625 0 
L 9.421875 0 
z
M 9.421875 75.984375 
L 18.40625 75.984375 
L 18.40625 64.59375 
L 9.421875 64.59375 
z
" id="DejaVuSans-105"/>
       <path d="M 52 44.1875 
Q 55.375 50.25 60.0625 53.125 
Q 64.75 56 71.09375 56 
Q 79.640625 56 84.28125 50.015625 
Q 88.921875 44.046875 88.921875 33.015625 
L 88.921875 0 
L 79.890625 0 
L 79.890625 32.71875 
Q 79.890625 40.578125 77.09375 44.375 
Q 74.3125 48.1875 68.609375 48.1875 
Q 61.625 48.1875 57.5625 43.546875 
Q 53.515625 38.921875 53.515625 30.90625 
L 53.515625 0 
L 44.484375 0 
L 44.484375 32.71875 
Q 44.484375 40.625 41.703125 44.40625 
Q 38.921875 48.1875 33.109375 48.1875 
Q 26.21875 48.1875 22.15625 43.53125 
Q 18.109375 38.875 18.109375 30.90625 
L 18.109375 0 
L 9.078125 0 
L 9.078125 54.6875 
L 18.109375 54.6875 
L 18.109375 46.1875 
Q 21.1875 51.21875 25.484375 53.609375 
Q 29.78125 56 35.6875 56 
Q 41.65625 56 45.828125 52.96875 
Q 50 49.953125 52 44.1875 
z
" id="DejaVuSans-109"/>
       <path d="M 54.890625 33.015625 
L 54.890625 0 
L 45.90625 0 
L 45.90625 32.71875 
Q 45.90625 40.484375 42.875 44.328125 
Q 39.84375 48.1875 33.796875 48.1875 
Q 26.515625 48.1875 22.3125 43.546875 
Q 18.109375 38.921875 18.109375 30.90625 
L 18.109375 0 
L 9.078125 0 
L 9.078125 54.6875 
L 18.109375 54.6875 
L 18.109375 46.1875 
Q 21.34375 51.125 25.703125 53.5625 
Q 30.078125 56 35.796875 56 
Q 45.21875 56 50.046875 50.171875 
Q 54.890625 44.34375 54.890625 33.015625 
z
" id="DejaVuSans-110"/>
       <path d="M 8.015625 75.875 
L 15.828125 75.875 
Q 23.140625 64.359375 26.78125 53.3125 
Q 30.421875 42.28125 30.421875 31.390625 
Q 30.421875 20.453125 26.78125 9.375 
Q 23.140625 -1.703125 15.828125 -13.1875 
L 8.015625 -13.1875 
Q 14.5 -2 17.703125 9.0625 
Q 20.90625 20.125 20.90625 31.390625 
Q 20.90625 42.671875 17.703125 53.65625 
Q 14.5 64.65625 8.015625 75.875 
z
" id="DejaVuSans-41"/>
      </defs>
      <use xlink:href="#DejaVuSans-108"/>
      <use x="27.783203" xlink:href="#DejaVuSans-111"/>
      <use x="88.964844" xlink:href="#DejaVuSans-103"/>
      <use x="152.441406" xlink:href="#DejaVuSans-49"/>
      <use x="216.064453" xlink:href="#DejaVuSans-48"/>
      <use x="279.6875" xlink:href="#DejaVuSans-40"/>
      <use x="318.701172" xlink:href="#DejaVuSans-101"/>
      <use x="380.224609" xlink:href="#DejaVuSans-118"/>
      <use x="439.404297" xlink:href="#DejaVuSans-97"/>
      <use x="500.683594" xlink:href="#DejaVuSans-108"/>
      <use x="528.466797" xlink:href="#DejaVuSans-115"/>
      <use x="580.566406" xlink:href="#DejaVuSans-32"/>
      <use x="612.353516" xlink:href="#DejaVuSans-47"/>
      <use x="646.044922" xlink:href="#DejaVuSans-32"/>
      <use x="677.832031" xlink:href="#DejaVuSans-100"/>
      <use x="741.308594" xlink:href="#DejaVuSans-105"/>
      <use x="769.091797" xlink:href="#DejaVuSans-109"/>
      <use x="866.503906" xlink:href="#DejaVuSans-101"/>
      <use x="928.027344" xlink:href="#DejaVuSans-110"/>
      <use x="991.40625" xlink:href="#DejaVuSans-115"/>
      <use x="1043.505859" xlink:href="#DejaVuSans-105"/>
      <use x="1071.289062" xlink:href="#DejaVuSans-111"/>
      <use x="1132.470703" xlink:href="#DejaVuSans-110"/>
      <use x="1195.849609" xlink:href="#DejaVuSans-41"/>
     </g>
    </g>
   </g>
   <g id="matplotlib.axis_2">
    <g id="ytick_1">
     <g id="line2d_17">
      <path clip-path="url(#p86abbd0f3d)" d="M 57.6 298.944 
L 360.8064 298.944 
" style="fill:none;stroke:#b0b0b0;stroke-linecap:square;stroke-width:0.8;"/>
     </g>
     <g id="line2d_18">
      <defs>
       <path d="M 0 0 
L -3.5 0 
" id="mdc4b7c340f" style="stroke:#000000;stroke-width:0.8;"/>
      </defs>
      <g>
       <use style="stroke:#000000;stroke-width:0.8;" x="57.6" xlink:href="#mdc4b7c340f" y="298.944"/>
      </g>
     </g>
     <g id="text_6">
      <!-- 0.0 -->
      <g transform="translate(25.155 305.02275)scale(0.16 -0.16)">
       <defs>
        <path d="M 10.6875 12.40625 
L 21 12.40625 
L 21 0 
L 10.6875 0 
z
" id="DejaVuSans-46"/>
       </defs>
       <use xlink:href="#DejaVuSans-48"/>
       <use x="63.623047" xlink:href="#DejaVuSans-46"/>
       <use x="95.410156" xlink:href="#DejaVuSans-48"/>
      </g>
     </g>
    </g>
    <g id="ytick_2">
     <g id="line2d_19">
      <path clip-path="url(#p86abbd0f3d)" d="M 57.6 244.6848 
L 360.8064 244.6848 
" style="fill:none;stroke:#b0b0b0;stroke-linecap:square;stroke-width:0.8;"/>
     </g>
     <g id="line2d_20">
      <g>
       <use style="stroke:#000000;stroke-width:0.8;" x="57.6" xlink:href="#mdc4b7c340f" y="244.6848"/>
      </g>
     </g>
     <g id="text_7">
      <!-- 0.2 -->
      <g transform="translate(25.155 250.76355)scale(0.16 -0.16)">
       <use xlink:href="#DejaVuSans-48"/>
       <use x="63.623047" xlink:href="#DejaVuSans-46"/>
       <use x="95.410156" xlink:href="#DejaVuSans-50"/>
      </g>
     </g>
    </g>
    <g id="ytick_3">
     <g id="line2d_21">
      <path clip-path="url(#p86abbd0f3d)" d="M 57.6 190.4256 
L 360.8064 190.4256 
" style="fill:none;stroke:#b0b0b0;stroke-linecap:square;stroke-width:0.8;"/>
     </g>
     <g id="line2d_22">
      <g>
       <use style="stroke:#000000;stroke-width:0.8;" x="57.6" xlink:href="#mdc4b7c340f" y="190.4256"/>
      </g>
     </g>
     <g id="text_8">
      <!-- 0.4 -->
      <g transform="translate(25.155 196.50435)scale(0.16 -0.16)">
       <use xlink:href="#DejaVuSans-48"/>
       <use x="63.623047" xlink:href="#DejaVuSans-46"/>
       <use x="95.410156" xlink:href="#DejaVuSans-52"/>
      </g>
     </g>
    </g>
    <g id="ytick_4">
     <g id="line2d_23">
      <path clip-path="url(#p86abbd0f3d)" d="M 57.6 136.1664 
L 360.8064 136.1664 
" style="fill:none;stroke:#b0b0b0;stroke-linecap:square;stroke-width:0.8;"/>
     </g>
     <g id="line2d_24">
      <g>
       <use style="stroke:#000000;stroke-width:0.8;" x="57.6" xlink:href="#mdc4b7c340f" y="136.1664"/>
      </g>
     </g>
     <g id="text_9">
      <!-- 0.6 -->
      <g transform="translate(25.155 142.24515)scale(0.16 -0.16)">
       <use xlink:href="#DejaVuSans-48"/>
       <use x="63.623047" xlink:href="#DejaVuSans-46"/>
       <use x="95.410156" xlink:href="#DejaVuSans-54"/>
      </g>
     </g>
    </g>
    <g id="ytick_5">
     <g id="line2d_25">
      <path clip-path="url(#p86abbd0f3d)" d="M 57.6 81.9072 
L 360.8064 81.9072 
" style="fill:none;stroke:#b0b0b0;stroke-linecap:square;stroke-width:0.8;"/>
     </g>
     <g id="line2d_26">
      <g>
       <use style="stroke:#000000;stroke-width:0.8;" x="57.6" xlink:href="#mdc4b7c340f" y="81.9072"/>
      </g>
     </g>
     <g id="text_10">
      <!-- 0.8 -->
      <g transform="translate(25.155 87.98595)scale(0.16 -0.16)">
       <defs>
        <path d="M 31.78125 34.625 
Q 24.75 34.625 20.71875 30.859375 
Q 16.703125 27.09375 16.703125 20.515625 
Q 16.703125 13.921875 20.71875 10.15625 
Q 24.75 6.390625 31.78125 6.390625 
Q 38.8125 6.390625 42.859375 10.171875 
Q 46.921875 13.96875 46.921875 20.515625 
Q 46.921875 27.09375 42.890625 30.859375 
Q 38.875 34.625 31.78125 34.625 
z
M 21.921875 38.8125 
Q 15.578125 40.375 12.03125 44.71875 
Q 8.5 49.078125 8.5 55.328125 
Q 8.5 64.0625 14.71875 69.140625 
Q 20.953125 74.21875 31.78125 74.21875 
Q 42.671875 74.21875 48.875 69.140625 
Q 55.078125 64.0625 55.078125 55.328125 
Q 55.078125 49.078125 51.53125 44.71875 
Q 48 40.375 41.703125 38.8125 
Q 48.828125 37.15625 52.796875 32.3125 
Q 56.78125 27.484375 56.78125 20.515625 
Q 56.78125 9.90625 50.3125 4.234375 
Q 43.84375 -1.421875 31.78125 -1.421875 
Q 19.734375 -1.421875 13.25 4.234375 
Q 6.78125 9.90625 6.78125 20.515625 
Q 6.78125 27.484375 10.78125 32.3125 
Q 14.796875 37.15625 21.921875 38.8125 
z
M 18.3125 54.390625 
Q 18.3125 48.734375 21.84375 45.5625 
Q 25.390625 42.390625 31.78125 42.390625 
Q 38.140625 42.390625 41.71875 45.5625 
Q 45.3125 48.734375 45.3125 54.390625 
Q 45.3125 60.0625 41.71875 63.234375 
Q 38.140625 66.40625 31.78125 66.40625 
Q 25.390625 66.40625 21.84375 63.234375 
Q 18.3125 60.0625 18.3125 54.390625 
z
" id="DejaVuSans-56"/>
       </defs>
       <use xlink:href="#DejaVuSans-48"/>
       <use x="63.623047" xlink:href="#DejaVuSans-46"/>
       <use x="95.410156" xlink:href="#DejaVuSans-56"/>
      </g>
     </g>
    </g>
    <g id="ytick_6">
     <g id="line2d_27">
      <path clip-path="url(#p86abbd0f3d)" d="M 57.6 27.648 
L 360.8064 27.648 
" style="fill:none;stroke:#b0b0b0;stroke-linecap:square;stroke-width:0.8;"/>
     </g>
     <g id="line2d_28">
      <g>
       <use style="stroke:#000000;stroke-width:0.8;" x="57.6" xlink:href="#mdc4b7c340f" y="27.648"/>
      </g>
     </g>
     <g id="text_11">
      <!-- 1.0 -->
      <g transform="translate(25.155 33.72675)scale(0.16 -0.16)">
       <use xlink:href="#DejaVuSans-49"/>
       <use x="63.623047" xlink:href="#DejaVuSans-46"/>
       <use x="95.410156" xlink:href="#DejaVuSans-48"/>
      </g>
     </g>
    </g>
    <g id="text_12">
     <!-- Fraction of function,target pairs -->
     <g transform="translate(17.619531 297.681)rotate(-90)scale(0.17 -0.17)">
      <defs>
       <path d="M 9.8125 72.90625 
L 51.703125 72.90625 
L 51.703125 64.59375 
L 19.671875 64.59375 
L 19.671875 43.109375 
L 48.578125 43.109375 
L 48.578125 34.8125 
L 19.671875 34.8125 
L 19.671875 0 
L 9.8125 0 
z
" id="DejaVuSans-70"/>
       <path d="M 41.109375 46.296875 
Q 39.59375 47.171875 37.8125 47.578125 
Q 36.03125 48 33.890625 48 
Q 26.265625 48 22.1875 43.046875 
Q 18.109375 38.09375 18.109375 28.8125 
L 18.109375 0 
L 9.078125 0 
L 9.078125 54.6875 
L 18.109375 54.6875 
L 18.109375 46.1875 
Q 20.953125 51.171875 25.484375 53.578125 
Q 30.03125 56 36.53125 56 
Q 37.453125 56 38.578125 55.875 
Q 39.703125 55.765625 41.0625 55.515625 
z
" id="DejaVuSans-114"/>
       <path d="M 48.78125 52.59375 
L 48.78125 44.1875 
Q 44.96875 46.296875 41.140625 47.34375 
Q 37.3125 48.390625 33.40625 48.390625 
Q 24.65625 48.390625 19.8125 42.84375 
Q 14.984375 37.3125 14.984375 27.296875 
Q 14.984375 17.28125 19.8125 11.734375 
Q 24.65625 6.203125 33.40625 6.203125 
Q 37.3125 6.203125 41.140625 7.25 
Q 44.96875 8.296875 48.78125 10.40625 
L 48.78125 2.09375 
Q 45.015625 0.34375 40.984375 -0.53125 
Q 36.96875 -1.421875 32.421875 -1.421875 
Q 20.0625 -1.421875 12.78125 6.34375 
Q 5.515625 14.109375 5.515625 27.296875 
Q 5.515625 40.671875 12.859375 48.328125 
Q 20.21875 56 33.015625 56 
Q 37.15625 56 41.109375 55.140625 
Q 45.0625 54.296875 48.78125 52.59375 
z
" id="DejaVuSans-99"/>
       <path d="M 18.3125 70.21875 
L 18.3125 54.6875 
L 36.8125 54.6875 
L 36.8125 47.703125 
L 18.3125 47.703125 
L 18.3125 18.015625 
Q 18.3125 11.328125 20.140625 9.421875 
Q 21.96875 7.515625 27.59375 7.515625 
L 36.8125 7.515625 
L 36.8125 0 
L 27.59375 0 
Q 17.1875 0 13.234375 3.875 
Q 9.28125 7.765625 9.28125 18.015625 
L 9.28125 47.703125 
L 2.6875 47.703125 
L 2.6875 54.6875 
L 9.28125 54.6875 
L 9.28125 70.21875 
z
" id="DejaVuSans-116"/>
       <path d="M 37.109375 75.984375 
L 37.109375 68.5 
L 28.515625 68.5 
Q 23.6875 68.5 21.796875 66.546875 
Q 19.921875 64.59375 19.921875 59.515625 
L 19.921875 54.6875 
L 34.71875 54.6875 
L 34.71875 47.703125 
L 19.921875 47.703125 
L 19.921875 0 
L 10.890625 0 
L 10.890625 47.703125 
L 2.296875 47.703125 
L 2.296875 54.6875 
L 10.890625 54.6875 
L 10.890625 58.5 
Q 10.890625 67.625 15.140625 71.796875 
Q 19.390625 75.984375 28.609375 75.984375 
z
" id="DejaVuSans-102"/>
       <path d="M 8.5 21.578125 
L 8.5 54.6875 
L 17.484375 54.6875 
L 17.484375 21.921875 
Q 17.484375 14.15625 20.5 10.265625 
Q 23.53125 6.390625 29.59375 6.390625 
Q 36.859375 6.390625 41.078125 11.03125 
Q 45.3125 15.671875 45.3125 23.6875 
L 45.3125 54.6875 
L 54.296875 54.6875 
L 54.296875 0 
L 45.3125 0 
L 45.3125 8.40625 
Q 42.046875 3.421875 37.71875 1 
Q 33.40625 -1.421875 27.6875 -1.421875 
Q 18.265625 -1.421875 13.375 4.4375 
Q 8.5 10.296875 8.5 21.578125 
z
M 31.109375 56 
z
" id="DejaVuSans-117"/>
       <path d="M 11.71875 12.40625 
L 22.015625 12.40625 
L 22.015625 4 
L 14.015625 -11.625 
L 7.71875 -11.625 
L 11.71875 4 
z
" id="DejaVuSans-44"/>
       <path d="M 18.109375 8.203125 
L 18.109375 -20.796875 
L 9.078125 -20.796875 
L 9.078125 54.6875 
L 18.109375 54.6875 
L 18.109375 46.390625 
Q 20.953125 51.265625 25.265625 53.625 
Q 29.59375 56 35.59375 56 
Q 45.5625 56 51.78125 48.09375 
Q 58.015625 40.1875 58.015625 27.296875 
Q 58.015625 14.40625 51.78125 6.484375 
Q 45.5625 -1.421875 35.59375 -1.421875 
Q 29.59375 -1.421875 25.265625 0.953125 
Q 20.953125 3.328125 18.109375 8.203125 
z
M 48.6875 27.296875 
Q 48.6875 37.203125 44.609375 42.84375 
Q 40.53125 48.484375 33.40625 48.484375 
Q 26.265625 48.484375 22.1875 42.84375 
Q 18.109375 37.203125 18.109375 27.296875 
Q 18.109375 17.390625 22.1875 11.75 
Q 26.265625 6.109375 33.40625 6.109375 
Q 40.53125 6.109375 44.609375 11.75 
Q 48.6875 17.390625 48.6875 27.296875 
z
" id="DejaVuSans-112"/>
      </defs>
      <use xlink:href="#DejaVuSans-70"/>
      <use x="50.269531" xlink:href="#DejaVuSans-114"/>
      <use x="91.382812" xlink:href="#DejaVuSans-97"/>
      <use x="152.662109" xlink:href="#DejaVuSans-99"/>
      <use x="207.642578" xlink:href="#DejaVuSans-116"/>
      <use x="246.851562" xlink:href="#DejaVuSans-105"/>
      <use x="274.634766" xlink:href="#DejaVuSans-111"/>
      <use x="335.816406" xlink:href="#DejaVuSans-110"/>
      <use x="399.195312" xlink:href="#DejaVuSans-32"/>
      <use x="430.982422" xlink:href="#DejaVuSans-111"/>
      <use x="492.164062" xlink:href="#DejaVuSans-102"/>
      <use x="527.369141" xlink:href="#DejaVuSans-32"/>
      <use x="559.15625" xlink:href="#DejaVuSans-102"/>
      <use x="594.361328" xlink:href="#DejaVuSans-117"/>
      <use x="657.740234" xlink:href="#DejaVuSans-110"/>
      <use x="721.119141" xlink:href="#DejaVuSans-99"/>
      <use x="776.099609" xlink:href="#DejaVuSans-116"/>
      <use x="815.308594" xlink:href="#DejaVuSans-105"/>
      <use x="843.091797" xlink:href="#DejaVuSans-111"/>
      <use x="904.273438" xlink:href="#DejaVuSans-110"/>
      <use x="967.652344" xlink:href="#DejaVuSans-44"/>
      <use x="999.439453" xlink:href="#DejaVuSans-116"/>
      <use x="1038.648438" xlink:href="#DejaVuSans-97"/>
      <use x="1099.927734" xlink:href="#DejaVuSans-114"/>
      <use x="1139.291016" xlink:href="#DejaVuSans-103"/>
      <use x="1202.767578" xlink:href="#DejaVuSans-101"/>
      <use x="1264.291016" xlink:href="#DejaVuSans-116"/>
      <use x="1303.5" xlink:href="#DejaVuSans-32"/>
      <use x="1335.287109" xlink:href="#DejaVuSans-112"/>
      <use x="1398.763672" xlink:href="#DejaVuSans-97"/>
      <use x="1460.042969" xlink:href="#DejaVuSans-105"/>
      <use x="1487.826172" xlink:href="#DejaVuSans-114"/>
      <use x="1528.939453" xlink:href="#DejaVuSans-115"/>
     </g>
    </g>
   </g>
   <g id="line2d_29">
    <defs>
     <path d="M 0 1.5 
C 0.397805 1.5 0.77937 1.341951 1.06066 1.06066 
C 1.341951 0.77937 1.5 0.397805 1.5 0 
C 1.5 -0.397805 1.341951 -0.77937 1.06066 -1.06066 
C 0.77937 -1.341951 0.397805 -1.5 0 -1.5 
C -0.397805 -1.5 -0.77937 -1.341951 -1.06066 -1.06066 
C -1.341951 -0.77937 -1.5 -0.397805 -1.5 0 
C -1.5 0.397805 -1.341951 0.77937 -1.06066 1.06066 
C -0.77937 1.341951 -0.397805 1.5 0 1.5 
z
" id="me41190bdf6" style="stroke:#000080;"/>
    </defs>
    <g>
     <use style="fill:#000080;stroke:#000080;" x="245.746955" xlink:href="#me41190bdf6" y="206.306341"/>
     <use style="fill:#000080;stroke:#000080;" x="245.746955" xlink:href="#me41190bdf6" y="206.306341"/>
    </g>
   </g>
   <g id="line2d_30">
    <path d="M 108.09849 298.944 
L 108.09849 298.502868 
L 111.280505 298.502868 
L 111.280505 298.061737 
L 111.709277 298.061737 
L 111.709277 297.620605 
L 113.717748 297.620605 
L 113.717748 297.179473 
L 125.954239 297.179473 
L 125.954239 296.738341 
L 129.520173 296.738341 
L 129.520173 296.29721 
L 129.68393 296.29721 
L 129.68393 295.414946 
L 131.397023 295.414946 
L 131.397023 294.973815 
L 133.035392 294.973815 
L 133.035392 294.532683 
L 133.44032 294.532683 
L 133.44032 294.091551 
L 135.039546 294.091551 
L 135.039546 293.65042 
L 137.209177 293.65042 
L 137.263743 292.327024 
L 137.372402 292.327024 
L 137.372402 291.885893 
L 137.534223 291.885893 
L 137.534223 291.444761 
L 138.83119 291.444761 
L 138.83119 291.003629 
L 139.688636 291.003629 
L 139.688636 290.562498 
L 139.92661 290.562498 
L 139.92661 290.121366 
L 140.462787 290.121366 
L 140.462787 289.680234 
L 140.691224 289.680234 
L 140.691224 289.239102 
L 142.814596 289.239102 
L 142.814596 288.797971 
L 143.01633 288.797971 
L 143.01633 288.356839 
L 143.25559 288.356839 
L 143.25559 287.915707 
L 144.648968 287.915707 
L 144.648968 287.474576 
L 144.868454 287.474576 
L 144.868454 287.033444 
L 145.860163 287.033444 
L 145.911844 285.710049 
L 146.235895 285.710049 
L 146.235895 285.268917 
L 147.159751 285.268917 
L 147.224037 283.945522 
L 147.94795 283.945522 
L 147.978801 283.063259 
L 148.450637 283.063259 
L 148.465662 282.180995 
L 148.570504 282.180995 
L 148.570504 281.739863 
L 148.793216 281.739863 
L 148.793216 281.298732 
L 148.998729 281.298732 
L 148.998729 280.8576 
L 149.158642 280.8576 
L 149.158642 280.416468 
L 150.200476 280.416468 
L 150.200476 279.975337 
L 151.031025 279.975337 
L 151.031025 279.534205 
L 151.738309 279.534205 
L 151.738309 279.093073 
L 151.87663 279.093073 
L 151.87663 278.651941 
L 152.601659 278.651941 
L 152.61371 277.769678 
L 152.888773 277.769678 
L 152.971695 276.887415 
L 153.229954 276.887415 
L 153.229954 276.446283 
L 153.894298 276.446283 
L 153.894298 276.005151 
L 154.317172 276.005151 
L 154.317172 275.56402 
L 154.676847 275.56402 
L 154.709207 274.681756 
L 155.12489 274.681756 
L 155.12489 274.240624 
L 155.355388 274.240624 
L 155.42814 272.917229 
L 155.685695 272.917229 
L 155.685695 272.476098 
L 156.260061 272.476098 
L 156.260061 272.034966 
L 157.151633 272.034966 
L 157.151633 271.593834 
L 157.86667 271.593834 
L 157.86667 271.152702 
L 158.002854 271.152702 
L 158.002854 270.711571 
L 158.236597 270.711571 
L 158.236597 270.270439 
L 158.97251 270.270439 
L 159.049676 269.388176 
L 159.245455 269.388176 
L 159.338372 268.505912 
L 159.688986 268.505912 
L 159.688986 268.06478 
L 161.083367 268.06478 
L 161.083367 267.623649 
L 161.31236 267.623649 
L 161.31236 267.182517 
L 161.710225 267.182517 
L 161.710225 266.741385 
L 163.304595 266.741385 
L 163.304595 266.300254 
L 163.467672 266.300254 
L 163.467672 265.859122 
L 163.642759 265.859122 
L 163.7497 264.976859 
L 164.034127 264.976859 
L 164.034127 264.535727 
L 164.443231 264.535727 
L 164.468908 263.653463 
L 165.948712 263.653463 
L 165.948712 263.212332 
L 166.248715 263.212332 
L 166.248715 262.7712 
L 166.370868 262.7712 
L 166.370868 262.330068 
L 167.19888 262.330068 
L 167.19888 261.447805 
L 167.788752 261.447805 
L 167.810248 260.565541 
L 167.981336 260.565541 
L 167.981336 260.12441 
L 168.552698 260.12441 
L 168.604258 258.801015 
L 168.676205 258.801015 
L 168.676205 258.359883 
L 169.261983 258.359883 
L 169.261983 257.918751 
L 169.88787 257.918751 
L 169.892679 257.036488 
L 170.688182 257.036488 
L 170.743408 256.154224 
L 171.053333 256.154224 
L 171.139025 255.271961 
L 171.841228 255.271961 
L 171.841228 254.830829 
L 172.668103 254.830829 
L 172.668103 254.389698 
L 172.849758 254.389698 
L 172.911288 253.507434 
L 173.264243 253.507434 
L 173.264243 253.066302 
L 174.132139 253.066302 
L 174.132139 252.625171 
L 175.607877 252.625171 
L 175.646869 251.301776 
L 175.924548 251.301776 
L 175.924548 250.860644 
L 176.149984 250.860644 
L 176.149984 250.419512 
L 176.454341 250.419512 
L 176.454341 249.97838 
L 176.876977 249.97838 
L 176.876977 249.537249 
L 177.1372 249.537249 
L 177.1372 249.096117 
L 177.332461 249.096117 
L 177.332461 248.654985 
L 179.075145 248.654985 
L 179.137015 247.772722 
L 179.219194 247.772722 
L 179.22505 246.890459 
L 179.376675 246.890459 
L 179.376675 246.449327 
L 180.275469 246.449327 
L 180.275469 246.008195 
L 180.413394 246.008195 
L 180.413394 245.567063 
L 180.807752 245.567063 
L 180.807752 245.125932 
L 180.981885 245.125932 
L 180.981885 244.6848 
L 181.606065 244.6848 
L 181.606065 244.243668 
L 181.788329 244.243668 
L 181.880075 243.361405 
L 182.275036 243.361405 
L 182.275036 242.920273 
L 182.846316 242.920273 
L 182.933055 242.03801 
L 183.264261 242.03801 
L 183.264261 241.596878 
L 183.624526 241.596878 
L 183.624526 241.155746 
L 183.808988 241.155746 
L 183.808988 240.714615 
L 184.540303 240.714615 
L 184.540303 240.273483 
L 185.203812 240.273483 
L 185.203812 239.832351 
L 185.575098 239.832351 
L 185.575098 239.39122 
L 186.025052 239.39122 
L 186.053584 238.508956 
L 186.258148 238.508956 
L 186.258148 238.067824 
L 186.794324 238.067824 
L 186.794324 237.626693 
L 186.958064 237.626693 
L 186.958064 237.185561 
L 188.011024 237.185561 
L 188.011024 236.744429 
L 188.365524 236.744429 
L 188.365524 236.303298 
L 189.318856 236.303298 
L 189.349645 235.421034 
L 189.518093 235.421034 
L 189.518093 234.979902 
L 190.114938 234.979902 
L 190.114938 234.538771 
L 190.552869 234.538771 
L 190.658386 233.656507 
L 190.682285 233.656507 
L 190.742693 232.774244 
L 191.118246 232.774244 
L 191.118246 232.333112 
L 191.403883 232.333112 
L 191.501697 231.450849 
L 191.757568 231.450849 
L 191.757568 231.009717 
L 192.372964 231.009717 
L 192.372964 230.568585 
L 192.516498 230.568585 
L 192.516498 230.127454 
L 193.464246 230.127454 
L 193.509512 229.24519 
L 194.468355 229.24519 
L 194.483972 227.921795 
L 194.840911 227.921795 
L 194.840911 227.480663 
L 195.261235 227.480663 
L 195.261235 227.039532 
L 195.517862 227.039532 
L 195.517862 226.5984 
L 196.299302 226.5984 
L 196.299302 226.157268 
L 201.784436 226.157268 
L 201.784436 225.275005 
L 202.746033 225.275005 
L 202.746033 224.833873 
L 203.266186 224.833873 
L 203.266186 224.392741 
L 204.660913 224.392741 
L 204.660913 223.95161 
L 204.793735 223.95161 
L 204.793735 223.510478 
L 204.956963 223.510478 
L 204.956963 223.069346 
L 205.707435 223.069346 
L 205.707435 222.628215 
L 206.228814 222.628215 
L 206.228814 222.187083 
L 206.556905 222.187083 
L 206.556905 221.30482 
L 206.785578 221.30482 
L 206.785578 220.863688 
L 207.259833 220.863688 
L 207.259833 220.422556 
L 208.50031 220.422556 
L 208.504632 219.540293 
L 215.361863 219.540293 
L 215.361863 219.099161 
L 215.816415 219.099161 
L 215.816415 218.658029 
L 216.448163 218.658029 
L 216.448163 217.775766 
L 216.693441 217.775766 
L 216.693441 216.893502 
L 219.426877 216.893502 
L 219.426877 216.452371 
L 221.091428 216.452371 
L 221.091428 216.011239 
L 222.015991 216.011239 
L 222.099194 214.687844 
L 222.198734 214.687844 
L 222.198734 214.246712 
L 225.657952 214.246712 
L 225.661672 213.364449 
L 226.122957 213.364449 
L 226.122957 212.923317 
L 226.306699 212.923317 
L 226.306699 212.041054 
L 229.645727 212.041054 
L 229.645727 211.599922 
L 229.798216 211.599922 
L 229.798216 210.717659 
L 232.292787 210.717659 
L 232.292787 210.276527 
L 232.611702 210.276527 
L 232.611702 209.835395 
L 232.742025 209.835395 
L 232.742025 209.394263 
L 235.286886 209.394263 
L 235.286886 208.953132 
L 238.552204 208.953132 
L 238.552204 208.512 
L 239.439818 208.512 
L 239.439818 208.070868 
L 241.12876 208.070868 
L 241.12876 207.629737 
L 242.990234 207.629737 
L 242.990234 207.188605 
L 244.3299 207.188605 
L 244.3299 206.747473 
L 245.746955 206.747473 
L 245.746955 206.306341 
L 360.8064 206.306341 
L 360.8064 206.306341 
" style="fill:none;stroke:#000080;stroke-linecap:square;stroke-width:1.5;"/>
   </g>
   <g id="line2d_31">
    <defs>
     <path d="M 0 6 
C 1.591219 6 3.117479 5.367802 4.242641 4.242641 
C 5.367802 3.117479 6 1.591219 6 0 
C 6 -1.591219 5.367802 -3.117479 4.242641 -4.242641 
C 3.117479 -5.367802 1.591219 -6 0 -6 
C -1.591219 -6 -3.117479 -5.367802 -4.242641 -4.242641 
C -5.367802 -3.117479 -6 -1.591219 -6 0 
C -6 1.591219 -5.367802 3.117479 -4.242641 4.242641 
C -3.117479 5.367802 -1.591219 6 0 6 
z
" id="m6e06e29d75" style="stroke:#000080;stroke-width:1.5;"/>
    </defs>
    <g>
     <use style="fill-opacity:0;stroke:#000080;stroke-width:1.5;" x="139.688636" xlink:href="#m6e06e29d75" y="291.003629"/>
     <use style="fill-opacity:0;stroke:#000080;stroke-width:1.5;" x="183.624526" xlink:href="#m6e06e29d75" y="241.155746"/>
     <use style="fill-opacity:0;stroke:#000080;stroke-width:1.5;" x="229.798216" xlink:href="#m6e06e29d75" y="211.599922"/>
     <use style="fill-opacity:0;stroke:#000080;stroke-width:1.5;" x="245.746955" xlink:href="#m6e06e29d75" y="206.306341"/>
     <use style="fill-opacity:0;stroke:#000080;stroke-width:1.5;" x="360.8064" xlink:href="#m6e06e29d75" y="206.306341"/>
    </g>
   </g>
   <g id="line2d_32">
    <path style="fill:none;stroke:#000080;stroke-linecap:square;stroke-width:1.5;"/>
    <g/>
   </g>
   <g id="line2d_33">
    <path clip-path="url(#p86abbd0f3d)" d="M 196.398264 226.157268 
" style="fill:none;stroke:#000080;stroke-linecap:square;stroke-width:1.5;"/>
    <defs>
     <path d="M -12 12 
L 12 -12 
M -12 -12 
L 12 12 
" id="m349495f01e" style="stroke:#000080;"/>
    </defs>
    <g clip-path="url(#p86abbd0f3d)">
     <use style="fill:#000080;stroke:#000080;" x="196.398264" xlink:href="#m349495f01e" y="226.157268"/>
    </g>
   </g>
   <g id="line2d_34">
    <defs>
     <path d="M 0 1.5 
C 0.397805 1.5 0.77937 1.341951 1.06066 1.06066 
C 1.341951 0.77937 1.5 0.397805 1.5 0 
C 1.5 -0.397805 1.341951 -0.77937 1.06066 -1.06066 
C 0.77937 -1.341951 0.397805 -1.5 0 -1.5 
C -0.397805 -1.5 -0.77937 -1.341951 -1.06066 -1.06066 
C -1.341951 -0.77937 -1.5 -0.397805 -1.5 0 
C -1.5 0.397805 -1.341951 0.77937 -1.06066 1.06066 
C -0.77937 1.341951 -0.397805 1.5 0 1.5 
z
" id="m937e5a933f" style="stroke:#ff00ff;"/>
    </defs>
    <g>
     <use style="fill:#ff00ff;stroke:#ff00ff;" x="315.911666" xlink:href="#m937e5a933f" y="159.987512"/>
     <use style="fill:#ff00ff;stroke:#ff00ff;" x="315.911666" xlink:href="#m937e5a933f" y="159.987512"/>
    </g>
   </g>
   <g id="line2d_35">
    <path d="M 159.397263 298.944 
L 159.397263 298.502868 
L 162.331246 298.502868 
L 162.331246 298.061737 
L 163.548684 298.061737 
L 163.548684 297.620605 
L 164.6286 297.620605 
L 164.6286 297.179473 
L 164.8562 297.179473 
L 164.8562 296.738341 
L 166.953157 296.738341 
L 166.953157 296.29721 
L 169.415487 296.29721 
L 169.415487 295.856078 
L 170.358065 295.856078 
L 170.358065 295.414946 
L 170.711213 295.414946 
L 170.711213 294.973815 
L 171.745616 294.973815 
L 171.745616 294.532683 
L 172.358578 294.532683 
L 172.358578 294.091551 
L 174.174309 294.091551 
L 174.174309 293.65042 
L 174.620827 293.65042 
L 174.620827 293.209288 
L 176.903493 293.209288 
L 176.903493 292.768156 
L 177.332461 292.768156 
L 177.332461 292.327024 
L 177.707486 292.327024 
L 177.707486 291.885893 
L 178.645318 291.885893 
L 178.645318 291.444761 
L 178.828598 291.444761 
L 178.828598 291.003629 
L 180.292073 291.003629 
L 180.292073 290.562498 
L 182.725177 290.562498 
L 182.766452 289.680234 
L 182.836653 289.680234 
L 182.836653 289.239102 
L 183.363202 289.239102 
L 183.372597 288.356839 
L 185.840594 288.356839 
L 185.840594 287.915707 
L 186.75905 287.915707 
L 186.75905 287.474576 
L 186.965826 287.474576 
L 186.965826 287.033444 
L 187.512651 287.033444 
L 187.512651 286.592312 
L 187.850682 286.592312 
L 187.850682 286.15118 
L 188.863142 286.15118 
L 188.863142 285.710049 
L 189.198637 285.710049 
L 189.198637 285.268917 
L 189.792191 285.268917 
L 189.792191 284.827785 
L 190.714103 284.827785 
L 190.714103 284.386654 
L 191.03092 284.386654 
L 191.03092 283.945522 
L 191.203619 283.945522 
L 191.203619 283.50439 
L 193.110739 283.50439 
L 193.110739 283.063259 
L 193.495806 283.063259 
L 193.495806 282.622127 
L 193.701705 282.622127 
L 193.731516 281.739863 
L 194.81153 281.739863 
L 194.81153 281.298732 
L 195.480886 281.298732 
L 195.480886 280.8576 
L 196.928871 280.8576 
L 196.928871 280.416468 
L 197.323383 280.416468 
L 197.34686 279.534205 
L 197.909278 279.534205 
L 197.909278 279.093073 
L 198.981956 279.093073 
L 199.029012 278.21081 
L 200.060694 278.21081 
L 200.060694 277.769678 
L 200.592768 277.769678 
L 200.607805 276.887415 
L 200.875506 276.887415 
L 200.875506 276.446283 
L 202.460892 276.446283 
L 202.460892 276.005151 
L 202.751482 276.005151 
L 202.751482 275.56402 
L 203.353662 275.56402 
L 203.353662 275.122888 
L 204.215283 275.122888 
L 204.215283 274.681756 
L 205.163451 274.681756 
L 205.211319 273.799493 
L 207.001142 273.799493 
L 207.001142 273.358361 
L 207.177531 273.358361 
L 207.20732 272.476098 
L 207.687316 272.476098 
L 207.687316 272.034966 
L 207.882958 272.034966 
L 207.882958 271.593834 
L 208.547491 271.593834 
L 208.547491 271.152702 
L 209.119568 271.152702 
L 209.119568 270.711571 
L 209.803113 270.711571 
L 209.803113 270.270439 
L 209.9243 270.270439 
L 209.9243 269.829307 
L 210.220233 269.829307 
L 210.220233 269.388176 
L 210.761838 269.388176 
L 210.761838 268.947044 
L 211.950583 268.947044 
L 211.950583 268.505912 
L 212.196225 268.505912 
L 212.196225 268.06478 
L 212.816056 268.06478 
L 212.816056 267.623649 
L 213.46313 267.623649 
L 213.46313 267.182517 
L 214.187072 267.182517 
L 214.187072 266.741385 
L 214.362882 266.741385 
L 214.362882 266.300254 
L 215.629232 266.300254 
L 215.629232 265.859122 
L 216.017497 265.859122 
L 216.017497 265.41799 
L 216.172147 265.41799 
L 216.172147 264.976859 
L 216.287204 264.976859 
L 216.287204 264.535727 
L 217.514574 264.535727 
L 217.514574 264.094595 
L 218.328113 264.094595 
L 218.328113 263.653463 
L 218.611269 263.653463 
L 218.611269 263.212332 
L 218.760752 263.212332 
L 218.860345 262.330068 
L 219.526623 262.330068 
L 219.526623 261.888937 
L 220.160142 261.888937 
L 220.160142 261.447805 
L 220.433908 261.447805 
L 220.433908 261.006673 
L 221.166691 261.006673 
L 221.166691 260.565541 
L 221.290996 260.565541 
L 221.290996 260.12441 
L 221.537786 260.12441 
L 221.537786 259.683278 
L 222.33789 259.683278 
L 222.33789 259.242146 
L 222.801476 259.242146 
L 222.801476 258.801015 
L 223.39348 258.801015 
L 223.498942 257.918751 
L 223.568091 257.918751 
L 223.568091 257.47762 
L 223.991829 257.47762 
L 223.991829 257.036488 
L 224.744641 257.036488 
L 224.744641 256.595356 
L 224.878266 256.595356 
L 224.878266 256.154224 
L 225.026604 256.154224 
L 225.026604 255.713093 
L 225.691904 255.713093 
L 225.691904 255.271961 
L 225.914172 255.271961 
L 225.914172 254.830829 
L 226.529914 254.830829 
L 226.529914 254.389698 
L 226.948645 254.389698 
L 226.948645 253.948566 
L 227.136689 253.948566 
L 227.136689 253.507434 
L 227.445077 253.507434 
L 227.445077 253.066302 
L 227.652581 253.066302 
L 227.652581 252.625171 
L 227.902124 252.625171 
L 227.902124 252.184039 
L 228.675275 252.184039 
L 228.675275 251.742907 
L 228.852974 251.742907 
L 228.852974 251.301776 
L 229.037302 251.301776 
L 229.037302 250.860644 
L 230.019347 250.860644 
L 230.019347 250.419512 
L 230.314268 250.419512 
L 230.314268 249.97838 
L 230.677342 249.97838 
L 230.727235 249.096117 
L 231.036896 249.096117 
L 231.036896 248.654985 
L 231.912954 248.654985 
L 231.912954 248.213854 
L 232.16176 248.213854 
L 232.16176 247.772722 
L 232.422214 247.772722 
L 232.422214 247.33159 
L 232.967225 247.33159 
L 232.967225 246.890459 
L 233.34453 246.890459 
L 233.451377 246.008195 
L 233.955642 246.008195 
L 233.955642 245.567063 
L 234.600799 245.567063 
L 234.600799 245.125932 
L 234.903207 245.125932 
L 234.903207 244.6848 
L 235.103946 244.6848 
L 235.103946 244.243668 
L 235.4635 244.243668 
L 235.4635 243.802537 
L 235.665228 243.802537 
L 235.665228 243.361405 
L 236.432445 243.361405 
L 236.432445 242.920273 
L 237.133104 242.920273 
L 237.133104 242.479141 
L 237.333259 242.479141 
L 237.333259 242.03801 
L 237.605451 242.03801 
L 237.716449 240.714615 
L 237.876092 240.714615 
L 237.876092 240.273483 
L 238.057504 240.273483 
L 238.057504 239.832351 
L 239.389736 239.832351 
L 239.389736 239.39122 
L 239.524692 239.39122 
L 239.524692 238.950088 
L 239.724799 238.950088 
L 239.724799 238.508956 
L 240.422287 238.508956 
L 240.422287 238.067824 
L 241.028881 238.067824 
L 241.028881 237.626693 
L 241.141507 237.626693 
L 241.155334 236.744429 
L 241.73583 236.744429 
L 241.73583 236.303298 
L 242.177402 236.303298 
L 242.177402 235.862166 
L 242.651913 235.862166 
L 242.651913 235.421034 
L 242.990283 235.421034 
L 242.990283 234.979902 
L 243.355137 234.979902 
L 243.355137 234.538771 
L 243.755845 234.538771 
L 243.755845 234.097639 
L 244.071457 234.097639 
L 244.071457 233.656507 
L 244.489916 233.656507 
L 244.489916 233.215376 
L 244.65807 233.215376 
L 244.65807 232.774244 
L 245.341155 232.774244 
L 245.341155 232.333112 
L 245.69466 232.333112 
L 245.780391 231.450849 
L 245.882924 231.450849 
L 245.882924 231.009717 
L 246.310162 231.009717 
L 246.310162 230.568585 
L 246.603436 230.568585 
L 246.644369 229.686322 
L 246.844171 229.686322 
L 246.91057 228.804059 
L 247.265776 228.804059 
L 247.367272 227.921795 
L 247.587666 227.921795 
L 247.587666 227.480663 
L 247.799928 227.480663 
L 247.799928 227.039532 
L 248.713762 227.039532 
L 248.713762 226.5984 
L 248.895951 226.5984 
L 248.895951 226.157268 
L 249.085462 226.157268 
L 249.085462 225.716137 
L 252.058869 225.716137 
L 252.058869 225.275005 
L 252.311123 225.275005 
L 252.311123 224.833873 
L 252.459996 224.833873 
L 252.459996 224.392741 
L 253.462055 224.392741 
L 253.462055 223.95161 
L 254.085277 223.95161 
L 254.085277 223.510478 
L 256.015163 223.510478 
L 256.015163 223.069346 
L 256.605812 223.069346 
L 256.605812 222.628215 
L 256.801581 222.628215 
L 256.80556 221.745951 
L 257.580363 221.745951 
L 257.580363 221.30482 
L 257.740491 221.30482 
L 257.740491 220.863688 
L 258.023494 220.863688 
L 258.023494 220.422556 
L 258.184357 220.422556 
L 258.184357 219.981424 
L 258.492965 219.981424 
L 258.492965 219.540293 
L 259.083903 219.540293 
L 259.186512 218.658029 
L 259.220327 218.658029 
L 259.329446 217.775766 
L 259.401993 217.775766 
L 259.401993 217.334634 
L 259.900409 217.334634 
L 259.996033 216.011239 
L 260.08063 216.011239 
L 260.099206 215.128976 
L 260.208655 215.128976 
L 260.208655 214.687844 
L 260.752961 214.687844 
L 260.784805 213.80558 
L 261.108267 213.80558 
L 261.126081 212.923317 
L 262.573362 212.923317 
L 262.573362 212.482185 
L 264.03924 212.482185 
L 264.069042 211.599922 
L 264.429507 211.599922 
L 264.477167 210.717659 
L 264.544963 210.717659 
L 264.544963 210.276527 
L 264.836551 210.276527 
L 264.836551 209.835395 
L 265.004545 209.835395 
L 265.004545 209.394263 
L 265.11961 209.394263 
L 265.11961 208.953132 
L 265.344161 208.953132 
L 265.416762 208.070868 
L 265.76868 208.070868 
L 265.76868 207.629737 
L 265.93334 207.629737 
L 265.93334 207.188605 
L 266.690318 207.188605 
L 266.719169 205.86521 
L 266.990619 205.86521 
L 266.990619 204.982946 
L 267.21144 204.982946 
L 267.312828 204.100683 
L 267.425821 204.100683 
L 267.425821 203.659551 
L 267.637334 203.659551 
L 267.686616 202.336156 
L 267.890031 202.336156 
L 267.890031 201.895024 
L 268.055075 201.895024 
L 268.055075 201.453893 
L 268.292668 201.453893 
L 268.292668 201.012761 
L 269.099776 201.012761 
L 269.099776 200.130498 
L 272.482071 200.130498 
L 272.482071 199.689366 
L 273.242512 199.689366 
L 273.294373 198.365971 
L 273.568308 198.365971 
L 273.655672 197.042576 
L 273.985398 197.042576 
L 273.985398 196.601444 
L 275.920533 196.601444 
L 275.985642 195.278049 
L 276.116985 195.278049 
L 276.116985 194.836917 
L 276.437735 194.836917 
L 276.437735 194.395785 
L 276.550009 194.395785 
L 276.634433 193.513522 
L 276.727024 193.513522 
L 276.727024 193.07239 
L 277.157239 193.07239 
L 277.157239 192.631259 
L 277.329977 192.631259 
L 277.403993 191.748995 
L 277.705946 191.748995 
L 277.705946 191.307863 
L 277.854319 191.307863 
L 277.95167 190.4256 
L 278.092429 190.4256 
L 278.092429 189.984468 
L 278.315066 189.984468 
L 278.315066 188.661073 
L 278.536622 188.661073 
L 278.536622 188.219941 
L 280.963247 188.219941 
L 280.963247 187.77881 
L 281.176005 187.77881 
L 281.243219 186.896546 
L 281.464347 186.896546 
L 281.464347 186.455415 
L 281.676809 186.455415 
L 281.676809 186.014283 
L 281.794378 186.014283 
L 281.794378 185.13202 
L 283.558243 185.13202 
L 283.558243 184.690888 
L 283.712825 184.690888 
L 283.712825 184.249756 
L 283.916507 184.249756 
L 283.916507 183.808624 
L 284.053791 183.808624 
L 284.095272 182.485229 
L 284.228926 182.485229 
L 284.333944 181.602966 
L 284.40298 181.602966 
L 284.40298 181.161834 
L 284.538778 181.161834 
L 284.538778 180.720702 
L 286.519896 180.720702 
L 286.588763 179.838439 
L 286.796767 179.838439 
L 286.796767 179.397307 
L 287.120465 179.397307 
L 287.208561 178.515044 
L 288.09443 178.515044 
L 288.197688 177.63278 
L 288.650477 177.63278 
L 288.717862 176.750517 
L 289.37549 176.750517 
L 289.37549 176.309385 
L 289.521863 176.309385 
L 289.521863 175.868254 
L 290.913544 175.868254 
L 290.913544 175.427122 
L 291.188287 175.427122 
L 291.190723 174.544859 
L 291.4077 174.544859 
L 291.4077 174.103727 
L 292.203057 174.103727 
L 292.203057 173.662595 
L 292.350818 173.662595 
L 292.435485 172.3392 
L 292.795358 172.3392 
L 292.795358 171.898068 
L 293.015519 171.898068 
L 293.015519 171.456937 
L 293.14118 171.456937 
L 293.14118 171.015805 
L 293.280403 171.015805 
L 293.280403 170.133541 
L 294.657796 170.133541 
L 294.657796 169.69241 
L 294.78497 169.69241 
L 294.78497 169.251278 
L 297.293793 169.251278 
L 297.293793 168.810146 
L 297.584222 168.810146 
L 297.584222 168.369015 
L 298.277944 168.369015 
L 298.277944 167.927883 
L 300.251391 167.927883 
L 300.251391 167.486751 
L 300.932151 167.486751 
L 300.932151 167.04562 
L 301.147242 167.04562 
L 301.147242 166.604488 
L 302.19459 166.604488 
L 302.19459 166.163356 
L 303.377495 166.163356 
L 303.46128 165.281093 
L 305.169832 165.281093 
L 305.169832 164.839961 
L 306.242996 164.839961 
L 306.242996 164.398829 
L 306.805806 164.398829 
L 306.823884 163.516566 
L 308.481947 163.516566 
L 308.481947 163.075434 
L 309.942234 163.075434 
L 309.942234 162.634302 
L 310.079486 162.634302 
L 310.079486 162.193171 
L 312.078201 162.193171 
L 312.078201 161.310907 
L 313.857809 161.310907 
L 313.857809 160.869776 
L 314.3694 160.869776 
L 314.3694 160.428644 
L 315.911666 160.428644 
L 315.911666 159.987512 
L 360.8064 159.987512 
L 360.8064 159.987512 
" style="fill:none;stroke:#ff00ff;stroke-linecap:square;stroke-width:1.5;"/>
   </g>
   <g id="line2d_36">
    <defs>
     <path d="M -0 8.485281 
L 5.091169 0 
L 0 -8.485281 
L -5.091169 -0 
z
" id="m1c78ae8463" style="stroke:#ff00ff;stroke-linejoin:miter;stroke-width:1.5;"/>
    </defs>
    <g>
     <use style="fill-opacity:0;stroke:#ff00ff;stroke-linejoin:miter;stroke-width:1.5;" x="258.492965" xlink:href="#m1c78ae8463" y="219.540293"/>
     <use style="fill-opacity:0;stroke:#ff00ff;stroke-linejoin:miter;stroke-width:1.5;" x="315.911666" xlink:href="#m1c78ae8463" y="159.987512"/>
     <use style="fill-opacity:0;stroke:#ff00ff;stroke-linejoin:miter;stroke-width:1.5;" x="315.911666" xlink:href="#m1c78ae8463" y="159.987512"/>
     <use style="fill-opacity:0;stroke:#ff00ff;stroke-linejoin:miter;stroke-width:1.5;" x="360.8064" xlink:href="#m1c78ae8463" y="159.987512"/>
    </g>
   </g>
   <g id="line2d_37">
    <path style="fill:none;stroke:#ff00ff;stroke-linecap:square;stroke-width:1.5;"/>
    <g/>
   </g>
   <g id="line2d_38">
    <path clip-path="url(#p86abbd0f3d)" d="M 261.137522 212.923317 
" style="fill:none;stroke:#ff00ff;stroke-linecap:square;stroke-width:1.5;"/>
    <defs>
     <path d="M -12 12 
L 12 -12 
M -12 -12 
L 12 12 
" id="m5f27bcac0f" style="stroke:#ff00ff;"/>
    </defs>
    <g clip-path="url(#p86abbd0f3d)">
     <use style="fill:#ff00ff;stroke:#ff00ff;" x="261.137522" xlink:href="#m5f27bcac0f" y="212.923317"/>
    </g>
   </g>
   <g id="line2d_39">
    <path d="M 360.8064 206.306341 
L 380.514816 293.51808 
" style="fill:none;stroke:#000080;stroke-linecap:square;stroke-width:1.5;"/>
    <g>
     <use style="fill-opacity:0;stroke:#000080;stroke-width:1.5;" x="360.8064" xlink:href="#m6e06e29d75" y="206.306341"/>
     <use style="fill-opacity:0;stroke:#000080;stroke-width:1.5;" x="380.514816" xlink:href="#m6e06e29d75" y="293.51808"/>
    </g>
   </g>
   <g id="line2d_40">
    <path d="M 360.8064 159.987512 
L 380.514816 33.07392 
" style="fill:none;stroke:#ff00ff;stroke-linecap:square;stroke-width:1.5;"/>
    <g>
     <use style="fill-opacity:0;stroke:#ff00ff;stroke-linejoin:miter;stroke-width:1.5;" x="360.8064" xlink:href="#m1c78ae8463" y="159.987512"/>
     <use style="fill-opacity:0;stroke:#ff00ff;stroke-linejoin:miter;stroke-width:1.5;" x="380.514816" xlink:href="#m1c78ae8463" y="33.07392"/>
    </g>
   </g>
   <g id="line2d_41">
    <path d="M 360.8064 298.944 
L 360.8064 27.648 
" style="fill:none;stroke:#000000;stroke-linecap:square;stroke-width:1.5;"/>
   </g>
   <g id="patch_3">
    <path d="M 57.6 298.944 
L 360.8064 298.944 
" style="fill:none;stroke:#000000;stroke-linecap:square;stroke-linejoin:miter;stroke-width:0.8;"/>
   </g>
   <g id="patch_4">
    <path d="M 57.6 27.648 
L 360.8064 27.648 
" style="fill:none;stroke:#000000;stroke-linecap:square;stroke-linejoin:miter;stroke-width:0.8;"/>
   </g>
   <g id="text_13">
    <!-- al-defaul -->
    <g transform="translate(386.578944 297.381205)scale(0.14 -0.14)">
     <defs>
      <path d="M 4.890625 31.390625 
L 31.203125 31.390625 
L 31.203125 23.390625 
L 4.890625 23.390625 
z
" id="DejaVuSans-45"/>
     </defs>
     <use xlink:href="#DejaVuSans-97"/>
     <use x="61.279297" xlink:href="#DejaVuSans-108"/>
     <use x="89.0625" xlink:href="#DejaVuSans-45"/>
     <use x="125.146484" xlink:href="#DejaVuSans-100"/>
     <use x="188.623047" xlink:href="#DejaVuSans-101"/>
     <use x="250.146484" xlink:href="#DejaVuSans-102"/>
     <use x="285.351562" xlink:href="#DejaVuSans-97"/>
     <use x="346.630859" xlink:href="#DejaVuSans-117"/>
     <use x="410.009766" xlink:href="#DejaVuSans-108"/>
    </g>
   </g>
   <g id="text_14">
    <!-- al3 -->
    <g transform="translate(386.578944 36.937045)scale(0.14 -0.14)">
     <defs>
      <path d="M 40.578125 39.3125 
Q 47.65625 37.796875 51.625 33 
Q 55.609375 28.21875 55.609375 21.1875 
Q 55.609375 10.40625 48.1875 4.484375 
Q 40.765625 -1.421875 27.09375 -1.421875 
Q 22.515625 -1.421875 17.65625 -0.515625 
Q 12.796875 0.390625 7.625 2.203125 
L 7.625 11.71875 
Q 11.71875 9.328125 16.59375 8.109375 
Q 21.484375 6.890625 26.8125 6.890625 
Q 36.078125 6.890625 40.9375 10.546875 
Q 45.796875 14.203125 45.796875 21.1875 
Q 45.796875 27.640625 41.28125 31.265625 
Q 36.765625 34.90625 28.71875 34.90625 
L 20.21875 34.90625 
L 20.21875 43.015625 
L 29.109375 43.015625 
Q 36.375 43.015625 40.234375 45.921875 
Q 44.09375 48.828125 44.09375 54.296875 
Q 44.09375 59.90625 40.109375 62.90625 
Q 36.140625 65.921875 28.71875 65.921875 
Q 24.65625 65.921875 20.015625 65.03125 
Q 15.375 64.15625 9.8125 62.3125 
L 9.8125 71.09375 
Q 15.4375 72.65625 20.34375 73.4375 
Q 25.25 74.21875 29.59375 74.21875 
Q 40.828125 74.21875 47.359375 69.109375 
Q 53.90625 64.015625 53.90625 55.328125 
Q 53.90625 49.265625 50.4375 45.09375 
Q 46.96875 40.921875 40.578125 39.3125 
z
" id="DejaVuSans-51"/>
     </defs>
     <use xlink:href="#DejaVuSans-97"/>
     <use x="61.279297" xlink:href="#DejaVuSans-108"/>
     <use x="89.0625" xlink:href="#DejaVuSans-51"/>
    </g>
   </g>
   <g id="text_15">
    <!-- bbob-constrained f19, 20-D -->
    <g transform="translate(60.632064 38.111366)scale(0.102 -0.102)">
     <defs>
      <path d="M 48.6875 27.296875 
Q 48.6875 37.203125 44.609375 42.84375 
Q 40.53125 48.484375 33.40625 48.484375 
Q 26.265625 48.484375 22.1875 42.84375 
Q 18.109375 37.203125 18.109375 27.296875 
Q 18.109375 17.390625 22.1875 11.75 
Q 26.265625 6.109375 33.40625 6.109375 
Q 40.53125 6.109375 44.609375 11.75 
Q 48.6875 17.390625 48.6875 27.296875 
z
M 18.109375 46.390625 
Q 20.953125 51.265625 25.265625 53.625 
Q 29.59375 56 35.59375 56 
Q 45.5625 56 51.78125 48.09375 
Q 58.015625 40.1875 58.015625 27.296875 
Q 58.015625 14.40625 51.78125 6.484375 
Q 45.5625 -1.421875 35.59375 -1.421875 
Q 29.59375 -1.421875 25.265625 0.953125 
Q 20.953125 3.328125 18.109375 8.203125 
L 18.109375 0 
L 9.078125 0 
L 9.078125 75.984375 
L 18.109375 75.984375 
z
" id="DejaVuSans-98"/>
      <path d="M 10.984375 1.515625 
L 10.984375 10.5 
Q 14.703125 8.734375 18.5 7.8125 
Q 22.3125 6.890625 25.984375 6.890625 
Q 35.75 6.890625 40.890625 13.453125 
Q 46.046875 20.015625 46.78125 33.40625 
Q 43.953125 29.203125 39.59375 26.953125 
Q 35.25 24.703125 29.984375 24.703125 
Q 19.046875 24.703125 12.671875 31.3125 
Q 6.296875 37.9375 6.296875 49.421875 
Q 6.296875 60.640625 12.9375 67.421875 
Q 19.578125 74.21875 30.609375 74.21875 
Q 43.265625 74.21875 49.921875 64.515625 
Q 56.59375 54.828125 56.59375 36.375 
Q 56.59375 19.140625 48.40625 8.859375 
Q 40.234375 -1.421875 26.421875 -1.421875 
Q 22.703125 -1.421875 18.890625 -0.6875 
Q 15.09375 0.046875 10.984375 1.515625 
z
M 30.609375 32.421875 
Q 37.25 32.421875 41.125 36.953125 
Q 45.015625 41.5 45.015625 49.421875 
Q 45.015625 57.28125 41.125 61.84375 
Q 37.25 66.40625 30.609375 66.40625 
Q 23.96875 66.40625 20.09375 61.84375 
Q 16.21875 57.28125 16.21875 49.421875 
Q 16.21875 41.5 20.09375 36.953125 
Q 23.96875 32.421875 30.609375 32.421875 
z
" id="DejaVuSans-57"/>
      <path d="M 19.671875 64.796875 
L 19.671875 8.109375 
L 31.59375 8.109375 
Q 46.6875 8.109375 53.6875 14.9375 
Q 60.6875 21.78125 60.6875 36.53125 
Q 60.6875 51.171875 53.6875 57.984375 
Q 46.6875 64.796875 31.59375 64.796875 
z
M 9.8125 72.90625 
L 30.078125 72.90625 
Q 51.265625 72.90625 61.171875 64.09375 
Q 71.09375 55.28125 71.09375 36.53125 
Q 71.09375 17.671875 61.125 8.828125 
Q 51.171875 0 30.078125 0 
L 9.8125 0 
z
" id="DejaVuSans-68"/>
     </defs>
     <use xlink:href="#DejaVuSans-98"/>
     <use x="63.476562" xlink:href="#DejaVuSans-98"/>
     <use x="126.953125" xlink:href="#DejaVuSans-111"/>
     <use x="188.134766" xlink:href="#DejaVuSans-98"/>
     <use x="251.611328" xlink:href="#DejaVuSans-45"/>
     <use x="287.695312" xlink:href="#DejaVuSans-99"/>
     <use x="342.675781" xlink:href="#DejaVuSans-111"/>
     <use x="403.857422" xlink:href="#DejaVuSans-110"/>
     <use x="467.236328" xlink:href="#DejaVuSans-115"/>
     <use x="519.335938" xlink:href="#DejaVuSans-116"/>
     <use x="558.544922" xlink:href="#DejaVuSans-114"/>
     <use x="599.658203" xlink:href="#DejaVuSans-97"/>
     <use x="660.9375" xlink:href="#DejaVuSans-105"/>
     <use x="688.720703" xlink:href="#DejaVuSans-110"/>
     <use x="752.099609" xlink:href="#DejaVuSans-101"/>
     <use x="813.623047" xlink:href="#DejaVuSans-100"/>
     <use x="877.099609" xlink:href="#DejaVuSans-32"/>
     <use x="908.886719" xlink:href="#DejaVuSans-102"/>
     <use x="944.091797" xlink:href="#DejaVuSans-49"/>
     <use x="1007.714844" xlink:href="#DejaVuSans-57"/>
     <use x="1071.337891" xlink:href="#DejaVuSans-44"/>
     <use x="1103.125" xlink:href="#DejaVuSans-32"/>
     <use x="1134.912109" xlink:href="#DejaVuSans-50"/>
     <use x="1198.535156" xlink:href="#DejaVuSans-48"/>
     <use x="1262.158203" xlink:href="#DejaVuSans-45"/>
     <use x="1298.242188" xlink:href="#DejaVuSans-68"/>
    </g>
    <!-- 41 targets: 100..1e-06 -->
    <g transform="translate(60.632064 49.533135)scale(0.102 -0.102)">
     <defs>
      <path d="M 11.71875 12.40625 
L 22.015625 12.40625 
L 22.015625 0 
L 11.71875 0 
z
M 11.71875 51.703125 
L 22.015625 51.703125 
L 22.015625 39.3125 
L 11.71875 39.3125 
z
" id="DejaVuSans-58"/>
     </defs>
     <use xlink:href="#DejaVuSans-52"/>
     <use x="63.623047" xlink:href="#DejaVuSans-49"/>
     <use x="127.246094" xlink:href="#DejaVuSans-32"/>
     <use x="159.033203" xlink:href="#DejaVuSans-116"/>
     <use x="198.242188" xlink:href="#DejaVuSans-97"/>
     <use x="259.521484" xlink:href="#DejaVuSans-114"/>
     <use x="298.884766" xlink:href="#DejaVuSans-103"/>
     <use x="362.361328" xlink:href="#DejaVuSans-101"/>
     <use x="423.884766" xlink:href="#DejaVuSans-116"/>
     <use x="463.09375" xlink:href="#DejaVuSans-115"/>
     <use x="515.193359" xlink:href="#DejaVuSans-58"/>
     <use x="548.884766" xlink:href="#DejaVuSans-32"/>
     <use x="580.671875" xlink:href="#DejaVuSans-49"/>
     <use x="644.294922" xlink:href="#DejaVuSans-48"/>
     <use x="707.917969" xlink:href="#DejaVuSans-48"/>
     <use x="771.541016" xlink:href="#DejaVuSans-46"/>
     <use x="803.328125" xlink:href="#DejaVuSans-46"/>
     <use x="835.115234" xlink:href="#DejaVuSans-49"/>
     <use x="898.738281" xlink:href="#DejaVuSans-101"/>
     <use x="960.261719" xlink:href="#DejaVuSans-45"/>
     <use x="996.345703" xlink:href="#DejaVuSans-48"/>
     <use x="1059.96875" xlink:href="#DejaVuSans-54"/>
    </g>
    <!-- evals = f-evals + g-evals -->
    <g transform="translate(60.632064 60.954904)scale(0.102 -0.102)">
     <defs>
      <path d="M 10.59375 45.40625 
L 73.1875 45.40625 
L 73.1875 37.203125 
L 10.59375 37.203125 
z
M 10.59375 25.484375 
L 73.1875 25.484375 
L 73.1875 17.1875 
L 10.59375 17.1875 
z
" id="DejaVuSans-61"/>
      <path d="M 46 62.703125 
L 46 35.5 
L 73.1875 35.5 
L 73.1875 27.203125 
L 46 27.203125 
L 46 0 
L 37.796875 0 
L 37.796875 27.203125 
L 10.59375 27.203125 
L 10.59375 35.5 
L 37.796875 35.5 
L 37.796875 62.703125 
z
" id="DejaVuSans-43"/>
     </defs>
     <use xlink:href="#DejaVuSans-101"/>
     <use x="61.523438" xlink:href="#DejaVuSans-118"/>
     <use x="120.703125" xlink:href="#DejaVuSans-97"/>
     <use x="181.982422" xlink:href="#DejaVuSans-108"/>
     <use x="209.765625" xlink:href="#DejaVuSans-115"/>
     <use x="261.865234" xlink:href="#DejaVuSans-32"/>
     <use x="293.652344" xlink:href="#DejaVuSans-61"/>
     <use x="377.441406" xlink:href="#DejaVuSans-32"/>
     <use x="409.228516" xlink:href="#DejaVuSans-102"/>
     <use x="438.933594" xlink:href="#DejaVuSans-45"/>
     <use x="475.017578" xlink:href="#DejaVuSans-101"/>
     <use x="536.541016" xlink:href="#DejaVuSans-118"/>
     <use x="595.720703" xlink:href="#DejaVuSans-97"/>
     <use x="657" xlink:href="#DejaVuSans-108"/>
     <use x="684.783203" xlink:href="#DejaVuSans-115"/>
     <use x="736.882812" xlink:href="#DejaVuSans-32"/>
     <use x="768.669922" xlink:href="#DejaVuSans-43"/>
     <use x="852.458984" xlink:href="#DejaVuSans-32"/>
     <use x="884.246094" xlink:href="#DejaVuSans-103"/>
     <use x="947.722656" xlink:href="#DejaVuSans-45"/>
     <use x="983.806641" xlink:href="#DejaVuSans-101"/>
     <use x="1045.330078" xlink:href="#DejaVuSans-118"/>
     <use x="1104.509766" xlink:href="#DejaVuSans-97"/>
     <use x="1165.789062" xlink:href="#DejaVuSans-108"/>
     <use x="1193.572266" xlink:href="#DejaVuSans-115"/>
    </g>
    <!-- 15 instances -->
    <g transform="translate(60.632064 72.376672)scale(0.102 -0.102)">
     <defs>
      <path d="M 10.796875 72.90625 
L 49.515625 72.90625 
L 49.515625 64.59375 
L 19.828125 64.59375 
L 19.828125 46.734375 
Q 21.96875 47.46875 24.109375 47.828125 
Q 26.265625 48.1875 28.421875 48.1875 
Q 40.625 48.1875 47.75 41.5 
Q 54.890625 34.8125 54.890625 23.390625 
Q 54.890625 11.625 47.5625 5.09375 
Q 40.234375 -1.421875 26.90625 -1.421875 
Q 22.3125 -1.421875 17.546875 -0.640625 
Q 12.796875 0.140625 7.71875 1.703125 
L 7.71875 11.625 
Q 12.109375 9.234375 16.796875 8.0625 
Q 21.484375 6.890625 26.703125 6.890625 
Q 35.15625 6.890625 40.078125 11.328125 
Q 45.015625 15.765625 45.015625 23.390625 
Q 45.015625 31 40.078125 35.4375 
Q 35.15625 39.890625 26.703125 39.890625 
Q 22.75 39.890625 18.8125 39.015625 
Q 14.890625 38.140625 10.796875 36.28125 
z
" id="DejaVuSans-53"/>
     </defs>
     <use xlink:href="#DejaVuSans-49"/>
     <use x="63.623047" xlink:href="#DejaVuSans-53"/>
     <use x="127.246094" xlink:href="#DejaVuSans-32"/>
     <use x="159.033203" xlink:href="#DejaVuSans-105"/>
     <use x="186.816406" xlink:href="#DejaVuSans-110"/>
     <use x="250.195312" xlink:href="#DejaVuSans-115"/>
     <use x="302.294922" xlink:href="#DejaVuSans-116"/>
     <use x="341.503906" xlink:href="#DejaVuSans-97"/>
     <use x="402.783203" xlink:href="#DejaVuSans-110"/>
     <use x="466.162109" xlink:href="#DejaVuSans-99"/>
     <use x="521.142578" xlink:href="#DejaVuSans-101"/>
     <use x="582.666016" xlink:href="#DejaVuSans-115"/>
    </g>
   </g>
   <g id="text_16">
    <!-- v2.6.1.9 -->
    <g style="fill:#808080;" transform="translate(188.751637 294.151352)scale(0.1 -0.1)">
     <use xlink:href="#DejaVuSans-118"/>
     <use x="59.179688" xlink:href="#DejaVuSans-50"/>
     <use x="122.802734" xlink:href="#DejaVuSans-46"/>
     <use x="154.589844" xlink:href="#DejaVuSans-54"/>
     <use x="218.212891" xlink:href="#DejaVuSans-46"/>
     <use x="250" xlink:href="#DejaVuSans-49"/>
     <use x="313.623047" xlink:href="#DejaVuSans-46"/>
     <use x="345.410156" xlink:href="#DejaVuSans-57"/>
    </g>
   </g>
   <g id="text_17">
    <!-- 19 Rot. Ellipsoid, m=1 -->
    <g transform="translate(98.111012 21.648)scale(0.2 -0.2)">
     <defs>
      <path d="M 44.390625 34.1875 
Q 47.5625 33.109375 50.5625 29.59375 
Q 53.5625 26.078125 56.59375 19.921875 
L 66.609375 0 
L 56 0 
L 46.6875 18.703125 
Q 43.0625 26.03125 39.671875 28.421875 
Q 36.28125 30.8125 30.421875 30.8125 
L 19.671875 30.8125 
L 19.671875 0 
L 9.8125 0 
L 9.8125 72.90625 
L 32.078125 72.90625 
Q 44.578125 72.90625 50.734375 67.671875 
Q 56.890625 62.453125 56.890625 51.90625 
Q 56.890625 45.015625 53.6875 40.46875 
Q 50.484375 35.9375 44.390625 34.1875 
z
M 19.671875 64.796875 
L 19.671875 38.921875 
L 32.078125 38.921875 
Q 39.203125 38.921875 42.84375 42.21875 
Q 46.484375 45.515625 46.484375 51.90625 
Q 46.484375 58.296875 42.84375 61.546875 
Q 39.203125 64.796875 32.078125 64.796875 
z
" id="DejaVuSans-82"/>
      <path d="M 9.8125 72.90625 
L 55.90625 72.90625 
L 55.90625 64.59375 
L 19.671875 64.59375 
L 19.671875 43.015625 
L 54.390625 43.015625 
L 54.390625 34.71875 
L 19.671875 34.71875 
L 19.671875 8.296875 
L 56.78125 8.296875 
L 56.78125 0 
L 9.8125 0 
z
" id="DejaVuSans-69"/>
     </defs>
     <use xlink:href="#DejaVuSans-49"/>
     <use x="63.623047" xlink:href="#DejaVuSans-57"/>
     <use x="127.246094" xlink:href="#DejaVuSans-32"/>
     <use x="159.033203" xlink:href="#DejaVuSans-82"/>
     <use x="224.015625" xlink:href="#DejaVuSans-111"/>
     <use x="285.197266" xlink:href="#DejaVuSans-116"/>
     <use x="324.40625" xlink:href="#DejaVuSans-46"/>
     <use x="356.193359" xlink:href="#DejaVuSans-32"/>
     <use x="387.980469" xlink:href="#DejaVuSans-69"/>
     <use x="451.164062" xlink:href="#DejaVuSans-108"/>
     <use x="478.947266" xlink:href="#DejaVuSans-108"/>
     <use x="506.730469" xlink:href="#DejaVuSans-105"/>
     <use x="534.513672" xlink:href="#DejaVuSans-112"/>
     <use x="597.990234" xlink:href="#DejaVuSans-115"/>
     <use x="650.089844" xlink:href="#DejaVuSans-111"/>
     <use x="711.271484" xlink:href="#DejaVuSans-105"/>
     <use x="739.054688" xlink:href="#DejaVuSans-100"/>
     <use x="802.53125" xlink:href="#DejaVuSans-44"/>
     <use x="834.318359" xlink:href="#DejaVuSans-32"/>
     <use x="866.105469" xlink:href="#DejaVuSans-109"/>
     <use x="963.517578" xlink:href="#DejaVuSans-61"/>
     <use x="1047.306641" xlink:href="#DejaVuSans-49"/>
    </g>
   </g>
  </g>
 </g>
 <defs>
  <clipPath id="p86abbd0f3d">
   <rect height="271.296" width="303.2064" x="57.6" y="27.648"/>
  </clipPath>
 </defs>
</svg>
