<?xml version="1.0" encoding="utf-8" standalone="no"?>
<!DOCTYPE svg PUBLIC "-//W3C//DTD SVG 1.1//EN"
  "http://www.w3.org/Graphics/SVG/1.1/DTD/svg11.dtd">
<!-- Created with matplotlib (https://matplotlib.org/) -->
<svg height="345.6pt" version="1.1" viewBox="0 0 460.8 345.6" width="460.8pt" xmlns="http://www.w3.org/2000/svg" xmlns:xlink="http://www.w3.org/1999/xlink">
 <metadata>
  <rdf:RDF xmlns:cc="http://creativecommons.org/ns#" xmlns:dc="http://purl.org/dc/elements/1.1/" xmlns:rdf="http://www.w3.org/1999/02/22-rdf-syntax-ns#">
   <cc:Work>
    <dc:type rdf:resource="http://purl.org/dc/dcmitype/StillImage"/>
    <dc:date>2022-04-26T20:54:13.170146</dc:date>
    <dc:format>image/svg+xml</dc:format>
    <dc:creator>
     <cc:Agent>
      <dc:title>Matplotlib v3.3.3, https://matplotlib.org/</dc:title>
     </cc:Agent>
    </dc:creator>
   </cc:Work>
  </rdf:RDF>
 </metadata>
 <defs>
  <style type="text/css">*{stroke-linecap:butt;stroke-linejoin:round;}</style>
 </defs>
 <g id="figure_1">
  <g id="patch_1">
   <path d="M 0 345.6 
L 460.8 345.6 
L 460.8 0 
L 0 0 
z
" style="fill:#ffffff;"/>
  </g>
  <g id="axes_1">
   <g id="patch_2">
    <path d="M 57.6 298.944 
L 360.8064 298.944 
L 360.8064 27.648 
L 57.6 27.648 
z
" style="fill:#ffffff;"/>
   </g>
   <g id="matplotlib.axis_1">
    <g id="xtick_1">
     <g id="line2d_1">
      <path clip-path="url(#pe4da2ca0f9)" d="M 57.6 298.944 
L 57.6 27.648 
" style="fill:none;stroke:#b0b0b0;stroke-linecap:square;stroke-width:0.8;"/>
     </g>
     <g id="line2d_2">
      <defs>
       <path d="M 0 0 
L 0 3.5 
" id="m6d76e7adea" style="stroke:#000000;stroke-width:0.8;"/>
      </defs>
      <g>
       <use style="stroke:#000000;stroke-width:0.8;" x="57.6" xlink:href="#m6d76e7adea" y="298.944"/>
      </g>
     </g>
     <g id="text_1">
      <!-- 0 -->
      <g transform="translate(52.191875 318.861344)scale(0.17 -0.17)">
       <defs>
        <path d="M 31.78125 66.40625 
Q 24.171875 66.40625 20.328125 58.90625 
Q 16.5 51.421875 16.5 36.375 
Q 16.5 21.390625 20.328125 13.890625 
Q 24.171875 6.390625 31.78125 6.390625 
Q 39.453125 6.390625 43.28125 13.890625 
Q 47.125 21.390625 47.125 36.375 
Q 47.125 51.421875 43.28125 58.90625 
Q 39.453125 66.40625 31.78125 66.40625 
z
M 31.78125 74.21875 
Q 44.046875 74.21875 50.515625 64.515625 
Q 56.984375 54.828125 56.984375 36.375 
Q 56.984375 17.96875 50.515625 8.265625 
Q 44.046875 -1.421875 31.78125 -1.421875 
Q 19.53125 -1.421875 13.0625 8.265625 
Q 6.59375 17.96875 6.59375 36.375 
Q 6.59375 54.828125 13.0625 64.515625 
Q 19.53125 74.21875 31.78125 74.21875 
z
" id="DejaVuSans-48"/>
       </defs>
       <use xlink:href="#DejaVuSans-48"/>
      </g>
     </g>
    </g>
    <g id="xtick_2">
     <g id="line2d_3">
      <path clip-path="url(#pe4da2ca0f9)" d="M 144.2304 298.944 
L 144.2304 27.648 
" style="fill:none;stroke:#b0b0b0;stroke-linecap:square;stroke-width:0.8;"/>
     </g>
     <g id="line2d_4">
      <g>
       <use style="stroke:#000000;stroke-width:0.8;" x="144.2304" xlink:href="#m6d76e7adea" y="298.944"/>
      </g>
     </g>
     <g id="text_2">
      <!-- 2 -->
      <g transform="translate(138.822275 318.861344)scale(0.17 -0.17)">
       <defs>
        <path d="M 19.1875 8.296875 
L 53.609375 8.296875 
L 53.609375 0 
L 7.328125 0 
L 7.328125 8.296875 
Q 12.9375 14.109375 22.625 23.890625 
Q 32.328125 33.6875 34.8125 36.53125 
Q 39.546875 41.84375 41.421875 45.53125 
Q 43.3125 49.21875 43.3125 52.78125 
Q 43.3125 58.59375 39.234375 62.25 
Q 35.15625 65.921875 28.609375 65.921875 
Q 23.96875 65.921875 18.8125 64.3125 
Q 13.671875 62.703125 7.8125 59.421875 
L 7.8125 69.390625 
Q 13.765625 71.78125 18.9375 73 
Q 24.125 74.21875 28.421875 74.21875 
Q 39.75 74.21875 46.484375 68.546875 
Q 53.21875 62.890625 53.21875 53.421875 
Q 53.21875 48.921875 51.53125 44.890625 
Q 49.859375 40.875 45.40625 35.40625 
Q 44.1875 33.984375 37.640625 27.21875 
Q 31.109375 20.453125 19.1875 8.296875 
z
" id="DejaVuSans-50"/>
       </defs>
       <use xlink:href="#DejaVuSans-50"/>
      </g>
     </g>
    </g>
    <g id="xtick_3">
     <g id="line2d_5">
      <path clip-path="url(#pe4da2ca0f9)" d="M 230.8608 298.944 
L 230.8608 27.648 
" style="fill:none;stroke:#b0b0b0;stroke-linecap:square;stroke-width:0.8;"/>
     </g>
     <g id="line2d_6">
      <g>
       <use style="stroke:#000000;stroke-width:0.8;" x="230.8608" xlink:href="#m6d76e7adea" y="298.944"/>
      </g>
     </g>
     <g id="text_3">
      <!-- 4 -->
      <g transform="translate(225.452675 318.861344)scale(0.17 -0.17)">
       <defs>
        <path d="M 37.796875 64.3125 
L 12.890625 25.390625 
L 37.796875 25.390625 
z
M 35.203125 72.90625 
L 47.609375 72.90625 
L 47.609375 25.390625 
L 58.015625 25.390625 
L 58.015625 17.1875 
L 47.609375 17.1875 
L 47.609375 0 
L 37.796875 0 
L 37.796875 17.1875 
L 4.890625 17.1875 
L 4.890625 26.703125 
z
" id="DejaVuSans-52"/>
       </defs>
       <use xlink:href="#DejaVuSans-52"/>
      </g>
     </g>
    </g>
    <g id="xtick_4">
     <g id="line2d_7">
      <path clip-path="url(#pe4da2ca0f9)" d="M 317.4912 298.944 
L 317.4912 27.648 
" style="fill:none;stroke:#b0b0b0;stroke-linecap:square;stroke-width:0.8;"/>
     </g>
     <g id="line2d_8">
      <g>
       <use style="stroke:#000000;stroke-width:0.8;" x="317.4912" xlink:href="#m6d76e7adea" y="298.944"/>
      </g>
     </g>
     <g id="text_4">
      <!-- 6 -->
      <g transform="translate(312.083075 318.861344)scale(0.17 -0.17)">
       <defs>
        <path d="M 33.015625 40.375 
Q 26.375 40.375 22.484375 35.828125 
Q 18.609375 31.296875 18.609375 23.390625 
Q 18.609375 15.53125 22.484375 10.953125 
Q 26.375 6.390625 33.015625 6.390625 
Q 39.65625 6.390625 43.53125 10.953125 
Q 47.40625 15.53125 47.40625 23.390625 
Q 47.40625 31.296875 43.53125 35.828125 
Q 39.65625 40.375 33.015625 40.375 
z
M 52.59375 71.296875 
L 52.59375 62.3125 
Q 48.875 64.0625 45.09375 64.984375 
Q 41.3125 65.921875 37.59375 65.921875 
Q 27.828125 65.921875 22.671875 59.328125 
Q 17.53125 52.734375 16.796875 39.40625 
Q 19.671875 43.65625 24.015625 45.921875 
Q 28.375 48.1875 33.59375 48.1875 
Q 44.578125 48.1875 50.953125 41.515625 
Q 57.328125 34.859375 57.328125 23.390625 
Q 57.328125 12.15625 50.6875 5.359375 
Q 44.046875 -1.421875 33.015625 -1.421875 
Q 20.359375 -1.421875 13.671875 8.265625 
Q 6.984375 17.96875 6.984375 36.375 
Q 6.984375 53.65625 15.1875 63.9375 
Q 23.390625 74.21875 37.203125 74.21875 
Q 40.921875 74.21875 44.703125 73.484375 
Q 48.484375 72.75 52.59375 71.296875 
z
" id="DejaVuSans-54"/>
       </defs>
       <use xlink:href="#DejaVuSans-54"/>
      </g>
     </g>
    </g>
    <g id="xtick_5">
     <g id="line2d_9">
      <path clip-path="url(#pe4da2ca0f9)" d="M 100.9152 298.944 
L 100.9152 27.648 
" style="fill:none;stroke:#b0b0b0;stroke-linecap:square;stroke-width:0.8;"/>
     </g>
     <g id="line2d_10">
      <defs>
       <path d="M 0 0 
L 0 2 
" id="mcbe3bf842b" style="stroke:#000000;stroke-width:0.6;"/>
      </defs>
      <g>
       <use style="stroke:#000000;stroke-width:0.6;" x="100.9152" xlink:href="#mcbe3bf842b" y="298.944"/>
      </g>
     </g>
    </g>
    <g id="xtick_6">
     <g id="line2d_11">
      <path clip-path="url(#pe4da2ca0f9)" d="M 187.5456 298.944 
L 187.5456 27.648 
" style="fill:none;stroke:#b0b0b0;stroke-linecap:square;stroke-width:0.8;"/>
     </g>
     <g id="line2d_12">
      <g>
       <use style="stroke:#000000;stroke-width:0.6;" x="187.5456" xlink:href="#mcbe3bf842b" y="298.944"/>
      </g>
     </g>
    </g>
    <g id="xtick_7">
     <g id="line2d_13">
      <path clip-path="url(#pe4da2ca0f9)" d="M 274.176 298.944 
L 274.176 27.648 
" style="fill:none;stroke:#b0b0b0;stroke-linecap:square;stroke-width:0.8;"/>
     </g>
     <g id="line2d_14">
      <g>
       <use style="stroke:#000000;stroke-width:0.6;" x="274.176" xlink:href="#mcbe3bf842b" y="298.944"/>
      </g>
     </g>
    </g>
    <g id="xtick_8">
     <g id="line2d_15">
      <path clip-path="url(#pe4da2ca0f9)" d="M 360.8064 298.944 
L 360.8064 27.648 
" style="fill:none;stroke:#b0b0b0;stroke-linecap:square;stroke-width:0.8;"/>
     </g>
     <g id="line2d_16">
      <g>
       <use style="stroke:#000000;stroke-width:0.6;" x="360.8064" xlink:href="#mcbe3bf842b" y="298.944"/>
      </g>
     </g>
    </g>
    <g id="text_5">
     <!-- log10(evals / dimension) -->
     <g transform="translate(104.238825 339.314156)scale(0.17 -0.17)">
      <defs>
       <path d="M 9.421875 75.984375 
L 18.40625 75.984375 
L 18.40625 0 
L 9.421875 0 
z
" id="DejaVuSans-108"/>
       <path d="M 30.609375 48.390625 
Q 23.390625 48.390625 19.1875 42.75 
Q 14.984375 37.109375 14.984375 27.296875 
Q 14.984375 17.484375 19.15625 11.84375 
Q 23.34375 6.203125 30.609375 6.203125 
Q 37.796875 6.203125 41.984375 11.859375 
Q 46.1875 17.53125 46.1875 27.296875 
Q 46.1875 37.015625 41.984375 42.703125 
Q 37.796875 48.390625 30.609375 48.390625 
z
M 30.609375 56 
Q 42.328125 56 49.015625 48.375 
Q 55.71875 40.765625 55.71875 27.296875 
Q 55.71875 13.875 49.015625 6.21875 
Q 42.328125 -1.421875 30.609375 -1.421875 
Q 18.84375 -1.421875 12.171875 6.21875 
Q 5.515625 13.875 5.515625 27.296875 
Q 5.515625 40.765625 12.171875 48.375 
Q 18.84375 56 30.609375 56 
z
" id="DejaVuSans-111"/>
       <path d="M 45.40625 27.984375 
Q 45.40625 37.75 41.375 43.109375 
Q 37.359375 48.484375 30.078125 48.484375 
Q 22.859375 48.484375 18.828125 43.109375 
Q 14.796875 37.75 14.796875 27.984375 
Q 14.796875 18.265625 18.828125 12.890625 
Q 22.859375 7.515625 30.078125 7.515625 
Q 37.359375 7.515625 41.375 12.890625 
Q 45.40625 18.265625 45.40625 27.984375 
z
M 54.390625 6.78125 
Q 54.390625 -7.171875 48.1875 -13.984375 
Q 42 -20.796875 29.203125 -20.796875 
Q 24.46875 -20.796875 20.265625 -20.09375 
Q 16.0625 -19.390625 12.109375 -17.921875 
L 12.109375 -9.1875 
Q 16.0625 -11.328125 19.921875 -12.34375 
Q 23.78125 -13.375 27.78125 -13.375 
Q 36.625 -13.375 41.015625 -8.765625 
Q 45.40625 -4.15625 45.40625 5.171875 
L 45.40625 9.625 
Q 42.625 4.78125 38.28125 2.390625 
Q 33.9375 0 27.875 0 
Q 17.828125 0 11.671875 7.65625 
Q 5.515625 15.328125 5.515625 27.984375 
Q 5.515625 40.671875 11.671875 48.328125 
Q 17.828125 56 27.875 56 
Q 33.9375 56 38.28125 53.609375 
Q 42.625 51.21875 45.40625 46.390625 
L 45.40625 54.6875 
L 54.390625 54.6875 
z
" id="DejaVuSans-103"/>
       <path d="M 12.40625 8.296875 
L 28.515625 8.296875 
L 28.515625 63.921875 
L 10.984375 60.40625 
L 10.984375 69.390625 
L 28.421875 72.90625 
L 38.28125 72.90625 
L 38.28125 8.296875 
L 54.390625 8.296875 
L 54.390625 0 
L 12.40625 0 
z
" id="DejaVuSans-49"/>
       <path d="M 31 75.875 
Q 24.46875 64.65625 21.28125 53.65625 
Q 18.109375 42.671875 18.109375 31.390625 
Q 18.109375 20.125 21.3125 9.0625 
Q 24.515625 -2 31 -13.1875 
L 23.1875 -13.1875 
Q 15.875 -1.703125 12.234375 9.375 
Q 8.59375 20.453125 8.59375 31.390625 
Q 8.59375 42.28125 12.203125 53.3125 
Q 15.828125 64.359375 23.1875 75.875 
z
" id="DejaVuSans-40"/>
       <path d="M 56.203125 29.59375 
L 56.203125 25.203125 
L 14.890625 25.203125 
Q 15.484375 15.921875 20.484375 11.0625 
Q 25.484375 6.203125 34.421875 6.203125 
Q 39.59375 6.203125 44.453125 7.46875 
Q 49.3125 8.734375 54.109375 11.28125 
L 54.109375 2.78125 
Q 49.265625 0.734375 44.1875 -0.34375 
Q 39.109375 -1.421875 33.890625 -1.421875 
Q 20.796875 -1.421875 13.15625 6.1875 
Q 5.515625 13.8125 5.515625 26.8125 
Q 5.515625 40.234375 12.765625 48.109375 
Q 20.015625 56 32.328125 56 
Q 43.359375 56 49.78125 48.890625 
Q 56.203125 41.796875 56.203125 29.59375 
z
M 47.21875 32.234375 
Q 47.125 39.59375 43.09375 43.984375 
Q 39.0625 48.390625 32.421875 48.390625 
Q 24.90625 48.390625 20.390625 44.140625 
Q 15.875 39.890625 15.1875 32.171875 
z
" id="DejaVuSans-101"/>
       <path d="M 2.984375 54.6875 
L 12.5 54.6875 
L 29.59375 8.796875 
L 46.6875 54.6875 
L 56.203125 54.6875 
L 35.6875 0 
L 23.484375 0 
z
" id="DejaVuSans-118"/>
       <path d="M 34.28125 27.484375 
Q 23.390625 27.484375 19.1875 25 
Q 14.984375 22.515625 14.984375 16.5 
Q 14.984375 11.71875 18.140625 8.90625 
Q 21.296875 6.109375 26.703125 6.109375 
Q 34.1875 6.109375 38.703125 11.40625 
Q 43.21875 16.703125 43.21875 25.484375 
L 43.21875 27.484375 
z
M 52.203125 31.203125 
L 52.203125 0 
L 43.21875 0 
L 43.21875 8.296875 
Q 40.140625 3.328125 35.546875 0.953125 
Q 30.953125 -1.421875 24.3125 -1.421875 
Q 15.921875 -1.421875 10.953125 3.296875 
Q 6 8.015625 6 15.921875 
Q 6 25.140625 12.171875 29.828125 
Q 18.359375 34.515625 30.609375 34.515625 
L 43.21875 34.515625 
L 43.21875 35.40625 
Q 43.21875 41.609375 39.140625 45 
Q 35.0625 48.390625 27.6875 48.390625 
Q 23 48.390625 18.546875 47.265625 
Q 14.109375 46.140625 10.015625 43.890625 
L 10.015625 52.203125 
Q 14.9375 54.109375 19.578125 55.046875 
Q 24.21875 56 28.609375 56 
Q 40.484375 56 46.34375 49.84375 
Q 52.203125 43.703125 52.203125 31.203125 
z
" id="DejaVuSans-97"/>
       <path d="M 44.28125 53.078125 
L 44.28125 44.578125 
Q 40.484375 46.53125 36.375 47.5 
Q 32.28125 48.484375 27.875 48.484375 
Q 21.1875 48.484375 17.84375 46.4375 
Q 14.5 44.390625 14.5 40.28125 
Q 14.5 37.15625 16.890625 35.375 
Q 19.28125 33.59375 26.515625 31.984375 
L 29.59375 31.296875 
Q 39.15625 29.25 43.1875 25.515625 
Q 47.21875 21.78125 47.21875 15.09375 
Q 47.21875 7.46875 41.1875 3.015625 
Q 35.15625 -1.421875 24.609375 -1.421875 
Q 20.21875 -1.421875 15.453125 -0.5625 
Q 10.6875 0.296875 5.421875 2 
L 5.421875 11.28125 
Q 10.40625 8.6875 15.234375 7.390625 
Q 20.0625 6.109375 24.8125 6.109375 
Q 31.15625 6.109375 34.5625 8.28125 
Q 37.984375 10.453125 37.984375 14.40625 
Q 37.984375 18.0625 35.515625 20.015625 
Q 33.0625 21.96875 24.703125 23.78125 
L 21.578125 24.515625 
Q 13.234375 26.265625 9.515625 29.90625 
Q 5.8125 33.546875 5.8125 39.890625 
Q 5.8125 47.609375 11.28125 51.796875 
Q 16.75 56 26.8125 56 
Q 31.78125 56 36.171875 55.265625 
Q 40.578125 54.546875 44.28125 53.078125 
z
" id="DejaVuSans-115"/>
       <path id="DejaVuSans-32"/>
       <path d="M 25.390625 72.90625 
L 33.6875 72.90625 
L 8.296875 -9.28125 
L 0 -9.28125 
z
" id="DejaVuSans-47"/>
       <path d="M 45.40625 46.390625 
L 45.40625 75.984375 
L 54.390625 75.984375 
L 54.390625 0 
L 45.40625 0 
L 45.40625 8.203125 
Q 42.578125 3.328125 38.25 0.953125 
Q 33.9375 -1.421875 27.875 -1.421875 
Q 17.96875 -1.421875 11.734375 6.484375 
Q 5.515625 14.40625 5.515625 27.296875 
Q 5.515625 40.1875 11.734375 48.09375 
Q 17.96875 56 27.875 56 
Q 33.9375 56 38.25 53.625 
Q 42.578125 51.265625 45.40625 46.390625 
z
M 14.796875 27.296875 
Q 14.796875 17.390625 18.875 11.75 
Q 22.953125 6.109375 30.078125 6.109375 
Q 37.203125 6.109375 41.296875 11.75 
Q 45.40625 17.390625 45.40625 27.296875 
Q 45.40625 37.203125 41.296875 42.84375 
Q 37.203125 48.484375 30.078125 48.484375 
Q 22.953125 48.484375 18.875 42.84375 
Q 14.796875 37.203125 14.796875 27.296875 
z
" id="DejaVuSans-100"/>
       <path d="M 9.421875 54.6875 
L 18.40625 54.6875 
L 18.40625 0 
L 9.421875 0 
z
M 9.421875 75.984375 
L 18.40625 75.984375 
L 18.40625 64.59375 
L 9.421875 64.59375 
z
" id="DejaVuSans-105"/>
       <path d="M 52 44.1875 
Q 55.375 50.25 60.0625 53.125 
Q 64.75 56 71.09375 56 
Q 79.640625 56 84.28125 50.015625 
Q 88.921875 44.046875 88.921875 33.015625 
L 88.921875 0 
L 79.890625 0 
L 79.890625 32.71875 
Q 79.890625 40.578125 77.09375 44.375 
Q 74.3125 48.1875 68.609375 48.1875 
Q 61.625 48.1875 57.5625 43.546875 
Q 53.515625 38.921875 53.515625 30.90625 
L 53.515625 0 
L 44.484375 0 
L 44.484375 32.71875 
Q 44.484375 40.625 41.703125 44.40625 
Q 38.921875 48.1875 33.109375 48.1875 
Q 26.21875 48.1875 22.15625 43.53125 
Q 18.109375 38.875 18.109375 30.90625 
L 18.109375 0 
L 9.078125 0 
L 9.078125 54.6875 
L 18.109375 54.6875 
L 18.109375 46.1875 
Q 21.1875 51.21875 25.484375 53.609375 
Q 29.78125 56 35.6875 56 
Q 41.65625 56 45.828125 52.96875 
Q 50 49.953125 52 44.1875 
z
" id="DejaVuSans-109"/>
       <path d="M 54.890625 33.015625 
L 54.890625 0 
L 45.90625 0 
L 45.90625 32.71875 
Q 45.90625 40.484375 42.875 44.328125 
Q 39.84375 48.1875 33.796875 48.1875 
Q 26.515625 48.1875 22.3125 43.546875 
Q 18.109375 38.921875 18.109375 30.90625 
L 18.109375 0 
L 9.078125 0 
L 9.078125 54.6875 
L 18.109375 54.6875 
L 18.109375 46.1875 
Q 21.34375 51.125 25.703125 53.5625 
Q 30.078125 56 35.796875 56 
Q 45.21875 56 50.046875 50.171875 
Q 54.890625 44.34375 54.890625 33.015625 
z
" id="DejaVuSans-110"/>
       <path d="M 8.015625 75.875 
L 15.828125 75.875 
Q 23.140625 64.359375 26.78125 53.3125 
Q 30.421875 42.28125 30.421875 31.390625 
Q 30.421875 20.453125 26.78125 9.375 
Q 23.140625 -1.703125 15.828125 -13.1875 
L 8.015625 -13.1875 
Q 14.5 -2 17.703125 9.0625 
Q 20.90625 20.125 20.90625 31.390625 
Q 20.90625 42.671875 17.703125 53.65625 
Q 14.5 64.65625 8.015625 75.875 
z
" id="DejaVuSans-41"/>
      </defs>
      <use xlink:href="#DejaVuSans-108"/>
      <use x="27.783203" xlink:href="#DejaVuSans-111"/>
      <use x="88.964844" xlink:href="#DejaVuSans-103"/>
      <use x="152.441406" xlink:href="#DejaVuSans-49"/>
      <use x="216.064453" xlink:href="#DejaVuSans-48"/>
      <use x="279.6875" xlink:href="#DejaVuSans-40"/>
      <use x="318.701172" xlink:href="#DejaVuSans-101"/>
      <use x="380.224609" xlink:href="#DejaVuSans-118"/>
      <use x="439.404297" xlink:href="#DejaVuSans-97"/>
      <use x="500.683594" xlink:href="#DejaVuSans-108"/>
      <use x="528.466797" xlink:href="#DejaVuSans-115"/>
      <use x="580.566406" xlink:href="#DejaVuSans-32"/>
      <use x="612.353516" xlink:href="#DejaVuSans-47"/>
      <use x="646.044922" xlink:href="#DejaVuSans-32"/>
      <use x="677.832031" xlink:href="#DejaVuSans-100"/>
      <use x="741.308594" xlink:href="#DejaVuSans-105"/>
      <use x="769.091797" xlink:href="#DejaVuSans-109"/>
      <use x="866.503906" xlink:href="#DejaVuSans-101"/>
      <use x="928.027344" xlink:href="#DejaVuSans-110"/>
      <use x="991.40625" xlink:href="#DejaVuSans-115"/>
      <use x="1043.505859" xlink:href="#DejaVuSans-105"/>
      <use x="1071.289062" xlink:href="#DejaVuSans-111"/>
      <use x="1132.470703" xlink:href="#DejaVuSans-110"/>
      <use x="1195.849609" xlink:href="#DejaVuSans-41"/>
     </g>
    </g>
   </g>
   <g id="matplotlib.axis_2">
    <g id="ytick_1">
     <g id="line2d_17">
      <path clip-path="url(#pe4da2ca0f9)" d="M 57.6 298.944 
L 360.8064 298.944 
" style="fill:none;stroke:#b0b0b0;stroke-linecap:square;stroke-width:0.8;"/>
     </g>
     <g id="line2d_18">
      <defs>
       <path d="M 0 0 
L -3.5 0 
" id="mbc920e9cb7" style="stroke:#000000;stroke-width:0.8;"/>
      </defs>
      <g>
       <use style="stroke:#000000;stroke-width:0.8;" x="57.6" xlink:href="#mbc920e9cb7" y="298.944"/>
      </g>
     </g>
     <g id="text_6">
      <!-- 0.0 -->
      <g transform="translate(25.155 305.02275)scale(0.16 -0.16)">
       <defs>
        <path d="M 10.6875 12.40625 
L 21 12.40625 
L 21 0 
L 10.6875 0 
z
" id="DejaVuSans-46"/>
       </defs>
       <use xlink:href="#DejaVuSans-48"/>
       <use x="63.623047" xlink:href="#DejaVuSans-46"/>
       <use x="95.410156" xlink:href="#DejaVuSans-48"/>
      </g>
     </g>
    </g>
    <g id="ytick_2">
     <g id="line2d_19">
      <path clip-path="url(#pe4da2ca0f9)" d="M 57.6 244.6848 
L 360.8064 244.6848 
" style="fill:none;stroke:#b0b0b0;stroke-linecap:square;stroke-width:0.8;"/>
     </g>
     <g id="line2d_20">
      <g>
       <use style="stroke:#000000;stroke-width:0.8;" x="57.6" xlink:href="#mbc920e9cb7" y="244.6848"/>
      </g>
     </g>
     <g id="text_7">
      <!-- 0.2 -->
      <g transform="translate(25.155 250.76355)scale(0.16 -0.16)">
       <use xlink:href="#DejaVuSans-48"/>
       <use x="63.623047" xlink:href="#DejaVuSans-46"/>
       <use x="95.410156" xlink:href="#DejaVuSans-50"/>
      </g>
     </g>
    </g>
    <g id="ytick_3">
     <g id="line2d_21">
      <path clip-path="url(#pe4da2ca0f9)" d="M 57.6 190.4256 
L 360.8064 190.4256 
" style="fill:none;stroke:#b0b0b0;stroke-linecap:square;stroke-width:0.8;"/>
     </g>
     <g id="line2d_22">
      <g>
       <use style="stroke:#000000;stroke-width:0.8;" x="57.6" xlink:href="#mbc920e9cb7" y="190.4256"/>
      </g>
     </g>
     <g id="text_8">
      <!-- 0.4 -->
      <g transform="translate(25.155 196.50435)scale(0.16 -0.16)">
       <use xlink:href="#DejaVuSans-48"/>
       <use x="63.623047" xlink:href="#DejaVuSans-46"/>
       <use x="95.410156" xlink:href="#DejaVuSans-52"/>
      </g>
     </g>
    </g>
    <g id="ytick_4">
     <g id="line2d_23">
      <path clip-path="url(#pe4da2ca0f9)" d="M 57.6 136.1664 
L 360.8064 136.1664 
" style="fill:none;stroke:#b0b0b0;stroke-linecap:square;stroke-width:0.8;"/>
     </g>
     <g id="line2d_24">
      <g>
       <use style="stroke:#000000;stroke-width:0.8;" x="57.6" xlink:href="#mbc920e9cb7" y="136.1664"/>
      </g>
     </g>
     <g id="text_9">
      <!-- 0.6 -->
      <g transform="translate(25.155 142.24515)scale(0.16 -0.16)">
       <use xlink:href="#DejaVuSans-48"/>
       <use x="63.623047" xlink:href="#DejaVuSans-46"/>
       <use x="95.410156" xlink:href="#DejaVuSans-54"/>
      </g>
     </g>
    </g>
    <g id="ytick_5">
     <g id="line2d_25">
      <path clip-path="url(#pe4da2ca0f9)" d="M 57.6 81.9072 
L 360.8064 81.9072 
" style="fill:none;stroke:#b0b0b0;stroke-linecap:square;stroke-width:0.8;"/>
     </g>
     <g id="line2d_26">
      <g>
       <use style="stroke:#000000;stroke-width:0.8;" x="57.6" xlink:href="#mbc920e9cb7" y="81.9072"/>
      </g>
     </g>
     <g id="text_10">
      <!-- 0.8 -->
      <g transform="translate(25.155 87.98595)scale(0.16 -0.16)">
       <defs>
        <path d="M 31.78125 34.625 
Q 24.75 34.625 20.71875 30.859375 
Q 16.703125 27.09375 16.703125 20.515625 
Q 16.703125 13.921875 20.71875 10.15625 
Q 24.75 6.390625 31.78125 6.390625 
Q 38.8125 6.390625 42.859375 10.171875 
Q 46.921875 13.96875 46.921875 20.515625 
Q 46.921875 27.09375 42.890625 30.859375 
Q 38.875 34.625 31.78125 34.625 
z
M 21.921875 38.8125 
Q 15.578125 40.375 12.03125 44.71875 
Q 8.5 49.078125 8.5 55.328125 
Q 8.5 64.0625 14.71875 69.140625 
Q 20.953125 74.21875 31.78125 74.21875 
Q 42.671875 74.21875 48.875 69.140625 
Q 55.078125 64.0625 55.078125 55.328125 
Q 55.078125 49.078125 51.53125 44.71875 
Q 48 40.375 41.703125 38.8125 
Q 48.828125 37.15625 52.796875 32.3125 
Q 56.78125 27.484375 56.78125 20.515625 
Q 56.78125 9.90625 50.3125 4.234375 
Q 43.84375 -1.421875 31.78125 -1.421875 
Q 19.734375 -1.421875 13.25 4.234375 
Q 6.78125 9.90625 6.78125 20.515625 
Q 6.78125 27.484375 10.78125 32.3125 
Q 14.796875 37.15625 21.921875 38.8125 
z
M 18.3125 54.390625 
Q 18.3125 48.734375 21.84375 45.5625 
Q 25.390625 42.390625 31.78125 42.390625 
Q 38.140625 42.390625 41.71875 45.5625 
Q 45.3125 48.734375 45.3125 54.390625 
Q 45.3125 60.0625 41.71875 63.234375 
Q 38.140625 66.40625 31.78125 66.40625 
Q 25.390625 66.40625 21.84375 63.234375 
Q 18.3125 60.0625 18.3125 54.390625 
z
" id="DejaVuSans-56"/>
       </defs>
       <use xlink:href="#DejaVuSans-48"/>
       <use x="63.623047" xlink:href="#DejaVuSans-46"/>
       <use x="95.410156" xlink:href="#DejaVuSans-56"/>
      </g>
     </g>
    </g>
    <g id="ytick_6">
     <g id="line2d_27">
      <path clip-path="url(#pe4da2ca0f9)" d="M 57.6 27.648 
L 360.8064 27.648 
" style="fill:none;stroke:#b0b0b0;stroke-linecap:square;stroke-width:0.8;"/>
     </g>
     <g id="line2d_28">
      <g>
       <use style="stroke:#000000;stroke-width:0.8;" x="57.6" xlink:href="#mbc920e9cb7" y="27.648"/>
      </g>
     </g>
     <g id="text_11">
      <!-- 1.0 -->
      <g transform="translate(25.155 33.72675)scale(0.16 -0.16)">
       <use xlink:href="#DejaVuSans-49"/>
       <use x="63.623047" xlink:href="#DejaVuSans-46"/>
       <use x="95.410156" xlink:href="#DejaVuSans-48"/>
      </g>
     </g>
    </g>
    <g id="text_12">
     <!-- Fraction of function,target pairs -->
     <g transform="translate(17.619531 297.681)rotate(-90)scale(0.17 -0.17)">
      <defs>
       <path d="M 9.8125 72.90625 
L 51.703125 72.90625 
L 51.703125 64.59375 
L 19.671875 64.59375 
L 19.671875 43.109375 
L 48.578125 43.109375 
L 48.578125 34.8125 
L 19.671875 34.8125 
L 19.671875 0 
L 9.8125 0 
z
" id="DejaVuSans-70"/>
       <path d="M 41.109375 46.296875 
Q 39.59375 47.171875 37.8125 47.578125 
Q 36.03125 48 33.890625 48 
Q 26.265625 48 22.1875 43.046875 
Q 18.109375 38.09375 18.109375 28.8125 
L 18.109375 0 
L 9.078125 0 
L 9.078125 54.6875 
L 18.109375 54.6875 
L 18.109375 46.1875 
Q 20.953125 51.171875 25.484375 53.578125 
Q 30.03125 56 36.53125 56 
Q 37.453125 56 38.578125 55.875 
Q 39.703125 55.765625 41.0625 55.515625 
z
" id="DejaVuSans-114"/>
       <path d="M 48.78125 52.59375 
L 48.78125 44.1875 
Q 44.96875 46.296875 41.140625 47.34375 
Q 37.3125 48.390625 33.40625 48.390625 
Q 24.65625 48.390625 19.8125 42.84375 
Q 14.984375 37.3125 14.984375 27.296875 
Q 14.984375 17.28125 19.8125 11.734375 
Q 24.65625 6.203125 33.40625 6.203125 
Q 37.3125 6.203125 41.140625 7.25 
Q 44.96875 8.296875 48.78125 10.40625 
L 48.78125 2.09375 
Q 45.015625 0.34375 40.984375 -0.53125 
Q 36.96875 -1.421875 32.421875 -1.421875 
Q 20.0625 -1.421875 12.78125 6.34375 
Q 5.515625 14.109375 5.515625 27.296875 
Q 5.515625 40.671875 12.859375 48.328125 
Q 20.21875 56 33.015625 56 
Q 37.15625 56 41.109375 55.140625 
Q 45.0625 54.296875 48.78125 52.59375 
z
" id="DejaVuSans-99"/>
       <path d="M 18.3125 70.21875 
L 18.3125 54.6875 
L 36.8125 54.6875 
L 36.8125 47.703125 
L 18.3125 47.703125 
L 18.3125 18.015625 
Q 18.3125 11.328125 20.140625 9.421875 
Q 21.96875 7.515625 27.59375 7.515625 
L 36.8125 7.515625 
L 36.8125 0 
L 27.59375 0 
Q 17.1875 0 13.234375 3.875 
Q 9.28125 7.765625 9.28125 18.015625 
L 9.28125 47.703125 
L 2.6875 47.703125 
L 2.6875 54.6875 
L 9.28125 54.6875 
L 9.28125 70.21875 
z
" id="DejaVuSans-116"/>
       <path d="M 37.109375 75.984375 
L 37.109375 68.5 
L 28.515625 68.5 
Q 23.6875 68.5 21.796875 66.546875 
Q 19.921875 64.59375 19.921875 59.515625 
L 19.921875 54.6875 
L 34.71875 54.6875 
L 34.71875 47.703125 
L 19.921875 47.703125 
L 19.921875 0 
L 10.890625 0 
L 10.890625 47.703125 
L 2.296875 47.703125 
L 2.296875 54.6875 
L 10.890625 54.6875 
L 10.890625 58.5 
Q 10.890625 67.625 15.140625 71.796875 
Q 19.390625 75.984375 28.609375 75.984375 
z
" id="DejaVuSans-102"/>
       <path d="M 8.5 21.578125 
L 8.5 54.6875 
L 17.484375 54.6875 
L 17.484375 21.921875 
Q 17.484375 14.15625 20.5 10.265625 
Q 23.53125 6.390625 29.59375 6.390625 
Q 36.859375 6.390625 41.078125 11.03125 
Q 45.3125 15.671875 45.3125 23.6875 
L 45.3125 54.6875 
L 54.296875 54.6875 
L 54.296875 0 
L 45.3125 0 
L 45.3125 8.40625 
Q 42.046875 3.421875 37.71875 1 
Q 33.40625 -1.421875 27.6875 -1.421875 
Q 18.265625 -1.421875 13.375 4.4375 
Q 8.5 10.296875 8.5 21.578125 
z
M 31.109375 56 
z
" id="DejaVuSans-117"/>
       <path d="M 11.71875 12.40625 
L 22.015625 12.40625 
L 22.015625 4 
L 14.015625 -11.625 
L 7.71875 -11.625 
L 11.71875 4 
z
" id="DejaVuSans-44"/>
       <path d="M 18.109375 8.203125 
L 18.109375 -20.796875 
L 9.078125 -20.796875 
L 9.078125 54.6875 
L 18.109375 54.6875 
L 18.109375 46.390625 
Q 20.953125 51.265625 25.265625 53.625 
Q 29.59375 56 35.59375 56 
Q 45.5625 56 51.78125 48.09375 
Q 58.015625 40.1875 58.015625 27.296875 
Q 58.015625 14.40625 51.78125 6.484375 
Q 45.5625 -1.421875 35.59375 -1.421875 
Q 29.59375 -1.421875 25.265625 0.953125 
Q 20.953125 3.328125 18.109375 8.203125 
z
M 48.6875 27.296875 
Q 48.6875 37.203125 44.609375 42.84375 
Q 40.53125 48.484375 33.40625 48.484375 
Q 26.265625 48.484375 22.1875 42.84375 
Q 18.109375 37.203125 18.109375 27.296875 
Q 18.109375 17.390625 22.1875 11.75 
Q 26.265625 6.109375 33.40625 6.109375 
Q 40.53125 6.109375 44.609375 11.75 
Q 48.6875 17.390625 48.6875 27.296875 
z
" id="DejaVuSans-112"/>
      </defs>
      <use xlink:href="#DejaVuSans-70"/>
      <use x="50.269531" xlink:href="#DejaVuSans-114"/>
      <use x="91.382812" xlink:href="#DejaVuSans-97"/>
      <use x="152.662109" xlink:href="#DejaVuSans-99"/>
      <use x="207.642578" xlink:href="#DejaVuSans-116"/>
      <use x="246.851562" xlink:href="#DejaVuSans-105"/>
      <use x="274.634766" xlink:href="#DejaVuSans-111"/>
      <use x="335.816406" xlink:href="#DejaVuSans-110"/>
      <use x="399.195312" xlink:href="#DejaVuSans-32"/>
      <use x="430.982422" xlink:href="#DejaVuSans-111"/>
      <use x="492.164062" xlink:href="#DejaVuSans-102"/>
      <use x="527.369141" xlink:href="#DejaVuSans-32"/>
      <use x="559.15625" xlink:href="#DejaVuSans-102"/>
      <use x="594.361328" xlink:href="#DejaVuSans-117"/>
      <use x="657.740234" xlink:href="#DejaVuSans-110"/>
      <use x="721.119141" xlink:href="#DejaVuSans-99"/>
      <use x="776.099609" xlink:href="#DejaVuSans-116"/>
      <use x="815.308594" xlink:href="#DejaVuSans-105"/>
      <use x="843.091797" xlink:href="#DejaVuSans-111"/>
      <use x="904.273438" xlink:href="#DejaVuSans-110"/>
      <use x="967.652344" xlink:href="#DejaVuSans-44"/>
      <use x="999.439453" xlink:href="#DejaVuSans-116"/>
      <use x="1038.648438" xlink:href="#DejaVuSans-97"/>
      <use x="1099.927734" xlink:href="#DejaVuSans-114"/>
      <use x="1139.291016" xlink:href="#DejaVuSans-103"/>
      <use x="1202.767578" xlink:href="#DejaVuSans-101"/>
      <use x="1264.291016" xlink:href="#DejaVuSans-116"/>
      <use x="1303.5" xlink:href="#DejaVuSans-32"/>
      <use x="1335.287109" xlink:href="#DejaVuSans-112"/>
      <use x="1398.763672" xlink:href="#DejaVuSans-97"/>
      <use x="1460.042969" xlink:href="#DejaVuSans-105"/>
      <use x="1487.826172" xlink:href="#DejaVuSans-114"/>
      <use x="1528.939453" xlink:href="#DejaVuSans-115"/>
     </g>
    </g>
   </g>
   <g id="line2d_29">
    <defs>
     <path d="M 0 1.5 
C 0.397805 1.5 0.77937 1.341951 1.06066 1.06066 
C 1.341951 0.77937 1.5 0.397805 1.5 0 
C 1.5 -0.397805 1.341951 -0.77937 1.06066 -1.06066 
C 0.77937 -1.341951 0.397805 -1.5 0 -1.5 
C -0.397805 -1.5 -0.77937 -1.341951 -1.06066 -1.06066 
C -1.341951 -0.77937 -1.5 -0.397805 -1.5 0 
C -1.5 0.397805 -1.341951 0.77937 -1.06066 1.06066 
C -0.77937 1.341951 -0.397805 1.5 0 1.5 
z
" id="mf1e00b3826" style="stroke:#000080;"/>
    </defs>
    <g>
     <use style="fill:#000080;stroke:#000080;" x="190.254722" xlink:href="#mf1e00b3826" y="27.648"/>
     <use style="fill:#000080;stroke:#000080;" x="190.254722" xlink:href="#mf1e00b3826" y="27.648"/>
    </g>
   </g>
   <g id="line2d_30">
    <path d="M 138.232735 298.944 
L 138.232735 298.502868 
L 141.062184 298.502868 
L 141.062184 298.061737 
L 141.195285 298.061737 
L 141.195285 297.620605 
L 142.269295 297.620605 
L 142.269295 297.179473 
L 143.364242 297.179473 
L 143.364242 296.738341 
L 143.946089 296.738341 
L 143.946089 295.856078 
L 144.768174 295.856078 
L 144.841158 294.973815 
L 145.166126 294.973815 
L 145.273213 294.091551 
L 145.379694 294.091551 
L 145.379694 293.65042 
L 146.074567 293.65042 
L 146.142663 292.327024 
L 146.27812 292.327024 
L 146.27812 291.885893 
L 146.941151 291.885893 
L 146.941151 291.444761 
L 147.455248 291.444761 
L 147.455248 291.003629 
L 147.581606 291.003629 
L 147.581606 290.121366 
L 147.707122 290.121366 
L 147.73837 288.797971 
L 148.048032 288.797971 
L 148.048032 287.915707 
L 148.44312 287.915707 
L 148.533127 287.033444 
L 148.592894 287.033444 
L 148.592894 286.592312 
L 149.006027 286.592312 
L 149.006027 286.15118 
L 149.381693 286.15118 
L 149.381693 285.710049 
L 149.609197 285.710049 
L 149.609197 285.268917 
L 149.721926 285.268917 
L 149.721926 284.827785 
L 149.945377 284.827785 
L 149.973123 283.945522 
L 150.166205 283.945522 
L 150.275654 283.063259 
L 150.357325 283.063259 
L 150.357325 282.622127 
L 150.492661 282.622127 
L 150.546523 281.298732 
L 151.076835 281.298732 
L 151.181127 279.975337 
L 151.233056 279.975337 
L 151.310683 278.651941 
L 151.387991 278.651941 
L 151.464982 277.328546 
L 151.56715 277.328546 
L 151.668766 276.005151 
L 151.694084 276.005151 
L 151.694084 275.56402 
L 152.045009 275.56402 
L 152.119363 274.681756 
L 152.218047 274.681756 
L 152.218047 274.240624 
L 152.389508 274.240624 
L 152.389508 273.799493 
L 152.51103 273.799493 
L 152.51103 273.358361 
L 152.775647 273.358361 
L 152.775647 272.917229 
L 152.894708 272.917229 
L 152.942122 272.034966 
L 153.177416 272.034966 
L 153.177416 271.593834 
L 153.317193 271.593834 
L 153.317193 271.152702 
L 153.75309 271.152702 
L 153.75309 270.711571 
L 154.112486 270.711571 
L 154.201272 269.388176 
L 154.289641 269.388176 
L 154.289641 268.947044 
L 154.508765 268.947044 
L 154.508765 268.505912 
L 154.682245 268.505912 
L 154.768388 267.182517 
L 154.960781 267.182517 
L 155.066821 265.859122 
L 155.087958 265.859122 
L 155.087958 265.41799 
L 155.339761 265.41799 
L 155.422953 264.535727 
L 155.464411 264.535727 
L 155.526427 263.653463 
L 155.954908 263.653463 
L 155.954908 263.212332 
L 156.155566 263.212332 
L 156.155566 262.7712 
L 156.334347 262.7712 
L 156.393565 261.888937 
L 156.511445 261.888937 
L 156.531019 260.565541 
L 156.648044 260.565541 
L 156.725657 259.242146 
L 156.783658 259.242146 
L 156.783658 258.801015 
L 157.108993 258.801015 
L 157.108993 258.359883 
L 157.484673 258.359883 
L 157.484673 257.918751 
L 157.651312 257.918751 
L 157.743255 256.154224 
L 157.852997 256.154224 
L 157.889436 254.830829 
L 158.178433 254.830829 
L 158.249994 253.507434 
L 158.392304 253.507434 
L 158.392304 253.066302 
L 158.533546 253.066302 
L 158.638786 252.184039 
L 158.74344 252.184039 
L 158.830209 250.860644 
L 158.933807 250.860644 
L 158.985393 249.97838 
L 159.053954 249.97838 
L 159.053954 249.537249 
L 159.173339 249.537249 
L 159.24122 248.213854 
L 159.291971 248.213854 
L 159.291971 247.772722 
L 159.510322 247.772722 
L 159.510322 247.33159 
L 159.923234 247.33159 
L 159.988467 246.449327 
L 160.279249 246.449327 
L 160.311282 245.567063 
L 160.470635 245.567063 
L 160.565603 244.6848 
L 160.597153 244.6848 
L 160.707162 242.920273 
L 160.738476 242.920273 
L 160.738476 242.479141 
L 160.878745 242.479141 
L 160.956223 241.596878 
L 161.002557 241.596878 
L 161.048777 240.273483 
L 161.247762 240.273483 
L 161.308567 238.508956 
L 161.369176 238.508956 
L 161.369176 238.067824 
L 161.489811 238.067824 
L 161.489811 237.626693 
L 161.639526 237.626693 
L 161.743622 236.744429 
L 162.139824 236.744429 
L 162.241195 234.979902 
L 162.284473 234.979902 
L 162.284473 234.538771 
L 162.584664 234.538771 
L 162.655437 233.215376 
L 162.697774 233.215376 
L 162.725945 232.333112 
L 162.935898 232.333112 
L 163.019227 231.009717 
L 163.074576 231.009717 
L 163.074576 230.568585 
L 163.33528 230.568585 
L 163.443978 228.804059 
L 163.565517 228.804059 
L 163.632702 227.921795 
L 163.726358 227.921795 
L 163.806266 227.039532 
L 164.030845 227.039532 
L 164.070199 226.157268 
L 164.278712 226.157268 
L 164.356312 224.833873 
L 164.446443 224.833873 
L 164.536144 221.745951 
L 164.625419 221.745951 
L 164.625419 221.30482 
L 164.802709 221.30482 
L 164.802709 220.863688 
L 165.090391 220.863688 
L 165.164721 219.099161 
L 165.238758 219.099161 
L 165.312505 217.775766 
L 165.422585 217.775766 
L 165.459136 216.893502 
L 165.55626 216.893502 
L 165.652884 216.011239 
L 165.713024 216.011239 
L 165.808848 214.687844 
L 165.916071 214.687844 
L 165.96353 212.482185 
L 166.152178 212.482185 
L 166.152178 212.041054 
L 166.350564 212.041054 
L 166.443204 211.15879 
L 166.477826 211.15879 
L 166.512385 210.276527 
L 166.672826 210.276527 
L 166.741169 208.512 
L 166.922214 208.512 
L 167.000877 207.629737 
L 167.056864 207.629737 
L 167.146097 205.424078 
L 167.16834 205.424078 
L 167.16834 204.982946 
L 167.422255 204.982946 
L 167.466067 202.777288 
L 167.629457 202.777288 
L 167.737601 201.012761 
L 167.834402 201.012761 
L 167.930707 198.365971 
L 168.047747 198.365971 
L 168.047747 197.924839 
L 168.164064 197.924839 
L 168.227208 196.160312 
L 168.331979 196.160312 
L 168.352863 195.278049 
L 168.601683 195.278049 
L 168.694149 193.954654 
L 168.978946 193.954654 
L 169.079624 191.748995 
L 169.109722 191.748995 
L 169.18975 189.984468 
L 169.239596 189.984468 
L 169.319074 188.661073 
L 169.378463 188.661073 
L 169.486859 187.337678 
L 169.516314 187.337678 
L 169.584862 186.014283 
L 169.643419 186.014283 
L 169.730915 184.690888 
L 169.769672 184.690888 
L 169.769672 184.249756 
L 170.038756 184.249756 
L 170.124436 182.926361 
L 170.228629 182.926361 
L 170.332249 181.602966 
L 170.34164 181.602966 
L 170.425955 180.720702 
L 170.453976 180.720702 
L 170.500586 178.515044 
L 170.621233 178.515044 
L 170.621233 178.073912 
L 170.814504 178.073912 
L 170.924059 177.191649 
L 170.978599 177.191649 
L 171.042029 176.309385 
L 171.132274 176.309385 
L 171.213126 174.98599 
L 171.338209 174.98599 
L 171.338209 174.103727 
L 171.48015 174.103727 
L 171.585908 171.456937 
L 171.629799 171.456937 
L 171.699811 170.574673 
L 171.76086 170.574673 
L 171.76086 170.133541 
L 171.873712 170.133541 
L 171.873712 169.69241 
L 172.02886 169.69241 
L 172.123046 168.810146 
L 172.216763 168.810146 
L 172.216763 168.369015 
L 172.385971 168.369015 
L 172.48677 167.04562 
L 172.536968 167.04562 
L 172.595363 165.281093 
L 172.761214 165.281093 
L 172.868238 163.957698 
L 172.88465 163.957698 
L 172.901047 161.752039 
L 173.007281 161.752039 
L 173.072359 160.869776 
L 173.145303 160.869776 
L 173.242125 158.222985 
L 173.330442 158.222985 
L 173.418347 156.89959 
L 173.505842 156.89959 
L 173.505842 156.458459 
L 173.66389 156.458459 
L 173.718895 155.576195 
L 173.836223 155.576195 
L 173.937319 153.370537 
L 173.991531 153.370537 
L 174.053297 152.047141 
L 174.214474 152.047141 
L 174.298352 151.164878 
L 174.366702 151.164878 
L 174.457452 149.400351 
L 174.674972 149.400351 
L 174.674972 148.95922 
L 174.890006 148.95922 
L 174.919474 147.635824 
L 175.014927 147.635824 
L 175.117184 145.430166 
L 175.168104 145.430166 
L 175.255078 143.665639 
L 175.391968 143.665639 
L 175.40632 141.018849 
L 175.520741 141.018849 
L 175.563471 138.81319 
L 175.662797 138.81319 
L 175.740472 137.930927 
L 175.824845 137.930927 
L 175.922803 134.401873 
L 175.96463 134.401873 
L 176.075715 133.51961 
L 176.193029 133.51961 
L 176.241123 131.313951 
L 176.336943 131.313951 
L 176.445858 128.667161 
L 176.493311 128.667161 
L 176.493311 127.343766 
L 176.73548 127.343766 
L 176.802199 126.461502 
L 176.862045 126.461502 
L 176.961367 123.37358 
L 177.00095 123.37358 
L 177.027292 122.491317 
L 177.132293 122.491317 
L 177.230202 121.167922 
L 177.469554 121.167922 
L 177.533725 118.962263 
L 177.629572 118.962263 
L 177.737611 118.08 
L 177.743947 118.08 
L 177.80719 116.756605 
L 178.064285 116.756605 
L 178.169864 112.78642 
L 178.262532 112.78642 
L 178.262532 112.345288 
L 178.385383 112.345288 
L 178.464809 109.257366 
L 178.640789 109.257366 
L 178.707112 108.375102 
L 178.779198 108.375102 
L 178.856981 107.051707 
L 178.946334 107.051707 
L 179.005667 105.28718 
L 179.141427 105.28718 
L 179.182551 103.963785 
L 179.311218 103.963785 
L 179.392641 102.199259 
L 179.444798 102.199259 
L 179.502582 99.9936 
L 179.560189 99.9936 
L 179.657718 97.787941 
L 179.709147 97.787941 
L 179.709147 97.34681 
L 179.828604 97.34681 
L 179.936034 95.141151 
L 180.098833 95.141151 
L 180.204735 93.817756 
L 180.215848 93.817756 
L 180.249148 91.612098 
L 180.409271 91.612098 
L 180.436741 90.288702 
L 180.611606 90.288702 
L 180.703847 89.406439 
L 180.741697 89.406439 
L 180.741697 88.965307 
L 180.892341 88.965307 
L 180.99921 86.318517 
L 181.153099 86.318517 
L 181.232206 84.995122 
L 181.316221 84.995122 
L 181.373765 84.112859 
L 181.534993 84.112859 
L 181.576377 82.348332 
L 181.669159 82.348332 
L 181.741008 80.583805 
L 181.812584 80.583805 
L 181.888971 78.819278 
L 181.929584 78.819278 
L 182.02569 76.61362 
L 182.14639 76.61362 
L 182.23641 73.525698 
L 182.301157 73.525698 
L 182.301157 73.084566 
L 182.434925 73.084566 
L 182.523577 71.320039 
L 182.582448 71.320039 
L 182.606923 68.673249 
L 182.816104 68.673249 
L 182.927044 67.349854 
L 183.008625 67.349854 
L 183.046894 66.46759 
L 183.137472 66.46759 
L 183.246539 64.261932 
L 183.255993 64.261932 
L 183.255993 63.8208 
L 183.378467 63.8208 
L 183.47681 62.497405 
L 183.5188 62.497405 
L 183.593219 60.732878 
L 183.75499 60.732878 
L 183.75499 60.291746 
L 183.929066 60.291746 
L 183.933625 58.086088 
L 184.087987 58.086088 
L 184.087987 57.203824 
L 184.236606 57.203824 
L 184.259023 55.880429 
L 184.49058 55.880429 
L 184.49058 55.439298 
L 184.662396 55.439298 
L 184.767354 53.674771 
L 184.819615 53.674771 
L 184.880402 51.910244 
L 184.940994 51.910244 
L 185.04871 49.263454 
L 185.113046 49.263454 
L 185.194222 48.38119 
L 185.270804 48.38119 
L 185.270804 47.940059 
L 185.389316 47.940059 
L 185.460907 47.057795 
L 185.51966 47.057795 
L 185.51966 45.7344 
L 185.715572 45.7344 
L 185.814831 44.411005 
L 185.851918 44.411005 
L 185.851918 43.969873 
L 185.99137 43.969873 
L 186.048492 42.646478 
L 186.158169 42.646478 
L 186.1865 40.881951 
L 186.371619 40.881951 
L 186.371619 40.44082 
L 186.531124 40.44082 
L 186.547001 37.794029 
L 186.763953 37.794029 
L 186.814869 36.911766 
L 187.013297 36.911766 
L 187.021036 36.029502 
L 187.167475 36.029502 
L 187.217312 35.147239 
L 187.419138 35.147239 
L 187.419138 34.706107 
L 187.547481 34.706107 
L 187.656262 32.059317 
L 187.69736 32.059317 
L 187.69736 31.177054 
L 187.908895 31.177054 
L 187.908895 30.735922 
L 188.180017 30.735922 
L 188.180017 30.29479 
L 188.636404 30.29479 
L 188.636404 29.853659 
L 188.876292 29.853659 
L 188.935789 28.971395 
L 189.022944 28.971395 
L 189.022944 28.530263 
L 189.230484 28.530263 
L 189.230484 28.089132 
L 190.254722 28.089132 
L 190.254722 27.648 
L 360.8064 27.648 
L 360.8064 27.648 
" style="fill:none;stroke:#000080;stroke-linecap:square;stroke-width:1.5;"/>
   </g>
   <g id="line2d_31">
    <defs>
     <path d="M 0 6 
C 1.591219 6 3.117479 5.367802 4.242641 4.242641 
C 5.367802 3.117479 6 1.591219 6 0 
C 6 -1.591219 5.367802 -3.117479 4.242641 -4.242641 
C 3.117479 -5.367802 1.591219 -6 0 -6 
C -1.591219 -6 -3.117479 -5.367802 -4.242641 -4.242641 
C -5.367802 -3.117479 -6 -1.591219 -6 0 
C -6 1.591219 -5.367802 3.117479 -4.242641 4.242641 
C -3.117479 5.367802 -1.591219 6 0 6 
z
" id="m9ccd9af5a6" style="stroke:#000080;stroke-width:1.5;"/>
    </defs>
    <g>
     <use style="fill-opacity:0;stroke:#000080;stroke-width:1.5;" x="175.96463" xlink:href="#m9ccd9af5a6" y="134.401873"/>
     <use style="fill-opacity:0;stroke:#000080;stroke-width:1.5;" x="188.636404" xlink:href="#m9ccd9af5a6" y="30.29479"/>
     <use style="fill-opacity:0;stroke:#000080;stroke-width:1.5;" x="190.254722" xlink:href="#m9ccd9af5a6" y="27.648"/>
     <use style="fill-opacity:0;stroke:#000080;stroke-width:1.5;" x="190.254722" xlink:href="#m9ccd9af5a6" y="27.648"/>
     <use style="fill-opacity:0;stroke:#000080;stroke-width:1.5;" x="360.8064" xlink:href="#m9ccd9af5a6" y="27.648"/>
    </g>
   </g>
   <g id="line2d_32">
    <path style="fill:none;stroke:#000080;stroke-linecap:square;stroke-width:1.5;"/>
    <g/>
   </g>
   <g id="line2d_33">
    <defs>
     <path d="M 0 1.5 
C 0.397805 1.5 0.77937 1.341951 1.06066 1.06066 
C 1.341951 0.77937 1.5 0.397805 1.5 0 
C 1.5 -0.397805 1.341951 -0.77937 1.06066 -1.06066 
C 0.77937 -1.341951 0.397805 -1.5 0 -1.5 
C -0.397805 -1.5 -0.77937 -1.341951 -1.06066 -1.06066 
C -1.341951 -0.77937 -1.5 -0.397805 -1.5 0 
C -1.5 0.397805 -1.341951 0.77937 -1.06066 1.06066 
C -0.77937 1.341951 -0.397805 1.5 0 1.5 
z
" id="mf89acedc8d" style="stroke:#ff00ff;"/>
    </defs>
    <g>
     <use style="fill:#ff00ff;stroke:#ff00ff;" x="192.25544" xlink:href="#mf89acedc8d" y="27.648"/>
     <use style="fill:#ff00ff;stroke:#ff00ff;" x="192.25544" xlink:href="#mf89acedc8d" y="27.648"/>
    </g>
   </g>
   <g id="line2d_34">
    <path d="M 154.399522 298.944 
L 154.399522 298.502868 
L 155.172267 298.502868 
L 155.256201 297.620605 
L 156.195443 297.620605 
L 156.195443 297.179473 
L 156.783658 297.179473 
L 156.783658 296.738341 
L 156.899125 296.738341 
L 156.899125 296.29721 
L 157.428797 296.29721 
L 157.428797 295.856078 
L 157.632869 295.856078 
L 157.724902 294.532683 
L 158.267842 294.532683 
L 158.356828 293.65042 
L 158.445394 293.65042 
L 158.445394 293.209288 
L 158.691186 293.209288 
L 158.70862 292.327024 
L 158.847515 292.327024 
L 158.951018 291.003629 
L 159.088142 291.003629 
L 159.088142 290.562498 
L 159.676576 290.562498 
L 159.676576 290.121366 
L 159.890533 290.121366 
L 159.988467 288.797971 
L 160.053475 288.797971 
L 160.069692 287.915707 
L 160.231096 287.915707 
L 160.311282 287.033444 
L 160.35923 287.033444 
L 160.35923 286.592312 
L 160.470635 286.592312 
L 160.549809 285.710049 
L 160.987125 285.710049 
L 160.987125 285.268917 
L 161.110227 285.268917 
L 161.171478 283.945522 
L 161.262981 283.945522 
L 161.354042 282.622127 
L 161.444664 282.622127 
L 161.534851 281.739863 
L 161.579783 281.739863 
L 161.669327 280.416468 
L 161.728786 280.416468 
L 161.728786 279.975337 
L 161.876619 279.975337 
L 161.920743 279.093073 
L 162.06708 279.093073 
L 162.06708 278.651941 
L 162.183335 278.651941 
L 162.183335 278.21081 
L 162.782162 278.21081 
L 162.782162 277.769678 
L 162.991492 277.769678 
L 163.102189 276.446283 
L 163.11598 276.446283 
L 163.212239 274.681756 
L 163.294355 274.681756 
L 163.376115 273.799493 
L 163.416862 273.799493 
L 163.457521 272.476098 
L 163.552052 272.476098 
L 163.552052 272.034966 
L 163.766354 272.034966 
L 163.832826 271.152702 
L 164.043972 271.152702 
L 164.043972 270.711571 
L 164.2268 270.711571 
L 164.2268 270.270439 
L 164.343401 270.270439 
L 164.394992 268.947044 
L 164.523356 268.947044 
L 164.523356 268.505912 
L 164.990826 268.505912 
L 165.090391 267.623649 
L 165.226438 267.623649 
L 165.324768 266.741385 
L 165.459136 266.741385 
L 165.568365 265.859122 
L 165.604634 265.859122 
L 165.604634 265.41799 
L 165.796897 265.41799 
L 165.892297 263.212332 
L 166.022686 263.212332 
L 166.022686 262.7712 
L 166.163906 262.7712 
L 166.23412 261.447805 
L 166.362169 261.447805 
L 166.420087 260.565541 
L 166.489353 260.565541 
L 166.535389 259.242146 
L 166.627125 259.242146 
L 166.627125 258.801015 
L 166.763896 258.801015 
L 166.763896 258.359883 
L 167.034489 258.359883 
L 167.04568 257.47762 
L 167.179451 257.47762 
L 167.212746 256.595356 
L 167.301245 256.595356 
L 167.400311 255.713093 
L 167.444174 255.713093 
L 167.487935 253.948566 
L 167.564271 253.948566 
L 167.618609 251.742907 
L 167.694418 251.742907 
L 167.716022 250.860644 
L 167.994637 250.860644 
L 167.994637 250.419512 
L 168.142969 250.419512 
L 168.227208 248.654985 
L 168.456938 248.654985 
L 168.52945 246.890459 
L 168.62227 246.890459 
L 168.642835 246.008195 
L 168.745323 246.008195 
L 168.745323 245.567063 
L 168.867575 245.567063 
L 168.968849 243.361405 
L 169.019282 243.361405 
L 169.019282 242.920273 
L 169.179765 242.920273 
L 169.269439 242.03801 
L 169.358688 242.03801 
L 169.457359 241.155746 
L 169.594634 241.155746 
L 169.682356 240.273483 
L 169.75999 240.273483 
L 169.808349 238.067824 
L 169.904695 238.067824 
L 169.990987 236.744429 
L 170.256946 236.744429 
L 170.351027 234.538771 
L 170.565646 234.538771 
L 170.565646 234.097639 
L 170.731916 234.097639 
L 170.731916 232.774244 
L 170.860229 232.774244 
L 170.924059 231.89198 
L 171.069148 231.89198 
L 171.168251 230.127454 
L 171.275772 230.127454 
L 171.338209 228.804059 
L 171.418183 228.804059 
L 171.524288 227.039532 
L 171.603476 227.039532 
L 171.699811 225.716137 
L 171.813029 225.716137 
L 171.856394 223.95161 
L 171.985891 223.95161 
L 172.080292 222.187083 
L 172.276159 222.187083 
L 172.276159 221.30482 
L 172.411221 221.30482 
L 172.45323 220.422556 
L 172.55367 220.422556 
L 172.55367 219.981424 
L 172.703332 219.981424 
L 172.810685 218.658029 
L 173.080478 218.658029 
L 173.161475 217.334634 
L 173.266252 217.334634 
L 173.354457 216.011239 
L 173.434285 216.011239 
L 173.458168 215.128976 
L 173.577128 215.128976 
L 173.671758 213.364449 
L 173.711047 213.364449 
L 173.711047 212.923317 
L 173.836223 212.923317 
L 173.836223 212.482185 
L 174.006991 212.482185 
L 174.030158 211.599922 
L 174.160901 211.599922 
L 174.199183 210.717659 
L 174.321163 210.717659 
L 174.321163 210.276527 
L 174.457452 210.276527 
L 174.525228 208.512 
L 174.585269 208.512 
L 174.607735 206.747473 
L 174.704779 206.747473 
L 174.808731 204.982946 
L 174.867875 204.982946 
L 174.882632 203.659551 
L 175.02225 203.659551 
L 175.088024 202.777288 
L 175.218888 202.777288 
L 175.312837 201.895024 
L 175.442151 201.895024 
L 175.542118 200.571629 
L 175.556356 200.571629 
L 175.627383 199.248234 
L 175.740472 199.248234 
L 175.740472 198.807102 
L 175.859888 198.807102 
L 175.908841 196.601444 
L 176.068792 196.601444 
L 176.158601 194.836917 
L 176.186149 194.836917 
L 176.227395 193.954654 
L 176.357413 193.954654 
L 176.357413 193.513522 
L 176.479765 193.513522 
L 176.581121 191.748995 
L 176.628234 191.748995 
L 176.655103 190.866732 
L 176.742162 190.866732 
L 176.808858 189.984468 
L 176.875318 189.984468 
L 176.954762 187.77881 
L 177.014125 187.77881 
L 177.073302 185.573151 
L 177.125747 185.573151 
L 177.230202 184.690888 
L 177.269223 184.690888 
L 177.269223 184.249756 
L 177.424504 184.249756 
L 177.456694 182.926361 
L 177.546533 182.926361 
L 177.552933 182.044098 
L 177.680491 182.044098 
L 177.756613 180.279571 
L 177.800876 180.279571 
L 177.857632 178.515044 
L 177.926769 178.515044 
L 178.001903 176.750517 
L 178.045592 176.750517 
L 178.151275 174.98599 
L 178.256368 174.98599 
L 178.256368 174.544859 
L 178.385383 174.544859 
L 178.4343 173.221463 
L 178.501354 173.221463 
L 178.501354 172.780332 
L 178.652865 172.780332 
L 178.707112 171.456937 
L 178.779198 171.456937 
L 178.809153 170.574673 
L 178.916597 170.574673 
L 179.02343 168.810146 
L 179.041177 168.810146 
L 179.064813 167.486751 
L 179.159063 167.486751 
L 179.159063 166.604488 
L 179.299557 166.604488 
L 179.38103 165.281093 
L 179.49104 165.281093 
L 179.594669 162.634302 
L 179.606148 162.634302 
L 179.70344 160.869776 
L 179.828604 160.869776 
L 179.936034 157.340722 
L 180.082057 157.340722 
L 180.13234 156.017327 
L 180.204735 156.017327 
L 180.204735 155.135063 
L 180.35421 155.135063 
L 180.420264 153.370537 
L 180.475132 153.370537 
L 180.56259 151.60601 
L 180.627917 151.60601 
L 180.725485 149.841483 
L 180.741697 149.841483 
L 180.849423 148.076956 
L 180.854793 148.076956 
L 180.961875 144.106771 
L 180.983218 144.106771 
L 180.99921 143.224507 
L 181.190057 143.224507 
L 181.274261 141.901112 
L 181.326697 141.901112 
L 181.331933 139.254322 
L 181.441545 139.254322 
L 181.441545 138.81319 
L 181.586709 138.81319 
L 181.67944 136.1664 
L 181.735885 136.1664 
L 181.80748 134.843005 
L 181.919439 134.843005 
L 181.949858 132.637346 
L 182.030735 132.637346 
L 182.111266 131.313951 
L 182.206451 131.313951 
L 182.206451 130.87282 
L 182.400335 130.87282 
L 182.489151 129.549424 
L 182.582448 129.549424 
L 182.689901 124.696976 
L 182.748254 124.696976 
L 182.835445 122.932449 
L 182.87889 122.932449 
L 182.96548 119.844527 
L 183.061225 119.844527 
L 183.132716 118.962263 
L 183.203936 118.962263 
L 183.303193 117.197737 
L 183.336163 117.197737 
L 183.434726 114.550946 
L 183.52346 114.550946 
L 183.630318 112.78642 
L 183.787178 112.78642 
L 183.892552 110.139629 
L 183.901687 110.139629 
L 183.979157 109.257366 
L 184.038185 109.257366 
L 184.097028 107.051707 
L 184.200685 107.051707 
L 184.303775 104.404917 
L 184.401856 104.404917 
L 184.464007 102.64039 
L 184.565667 102.64039 
L 184.653623 99.552468 
L 184.819615 99.552468 
L 184.906394 98.229073 
L 184.936672 98.229073 
L 184.936672 97.787941 
L 185.078761 97.787941 
L 185.172894 96.023415 
L 185.245311 96.023415 
L 185.342847 94.70002 
L 185.368208 94.70002 
L 185.368208 93.817756 
L 185.498698 93.817756 
L 185.590758 92.053229 
L 185.611618 92.053229 
L 185.674059 91.170966 
L 185.843683 91.170966 
L 185.950462 88.524176 
L 185.962744 88.524176 
L 185.999541 86.759649 
L 186.10138 86.759649 
L 186.1865 84.112859 
L 186.222862 84.112859 
L 186.319487 81.9072 
L 186.403628 81.9072 
L 186.471468 78.378146 
L 186.566827 78.378146 
L 186.566827 77.937015 
L 186.720762 77.937015 
L 186.82269 76.172488 
L 187.009426 76.172488 
L 187.071262 74.407961 
L 187.132895 74.407961 
L 187.213483 73.084566 
L 187.2861 73.084566 
L 187.388813 68.673249 
L 187.430498 68.673249 
L 187.521129 65.144195 
L 187.562523 65.144195 
L 187.562523 64.703063 
L 187.689894 64.703063 
L 187.786717 62.497405 
L 187.857159 62.497405 
L 187.938394 61.17401 
L 188.015611 61.17401 
L 188.092513 58.086088 
L 188.154537 58.086088 
L 188.241754 55.880429 
L 188.317738 55.880429 
L 188.346604 54.557034 
L 188.436526 54.557034 
L 188.543867 52.792507 
L 188.551002 52.792507 
L 188.654147 51.910244 
L 188.675417 51.910244 
L 188.781408 50.586849 
L 188.806054 50.586849 
L 188.904314 47.940059 
L 189.009026 47.940059 
L 189.088913 45.7344 
L 189.278582 45.7344 
L 189.353917 42.646478 
L 189.40511 42.646478 
L 189.513857 39.558556 
L 189.517246 39.558556 
L 189.625349 36.911766 
L 189.628717 36.911766 
L 189.719432 36.029502 
L 189.786347 36.029502 
L 189.786347 35.588371 
L 189.96253 35.588371 
L 190.035181 33.823844 
L 190.238427 33.823844 
L 190.271004 32.059317 
L 190.445951 32.059317 
L 190.445951 31.618185 
L 190.632063 31.618185 
L 190.632063 30.735922 
L 190.749834 30.735922 
L 190.768863 29.412527 
L 191.089442 29.412527 
L 191.157876 28.089132 
L 192.25544 28.089132 
L 192.25544 27.648 
L 360.8064 27.648 
L 360.8064 27.648 
" style="fill:none;stroke:#ff00ff;stroke-linecap:square;stroke-width:1.5;"/>
   </g>
   <g id="line2d_35">
    <defs>
     <path d="M -0 8.485281 
L 5.091169 0 
L 0 -8.485281 
L -5.091169 -0 
z
" id="m400dbcccd6" style="stroke:#ff00ff;stroke-linejoin:miter;stroke-width:1.5;"/>
    </defs>
    <g>
     <use style="fill-opacity:0;stroke:#ff00ff;stroke-linejoin:miter;stroke-width:1.5;" x="179.49104" xlink:href="#m400dbcccd6" y="164.839961"/>
     <use style="fill-opacity:0;stroke:#ff00ff;stroke-linejoin:miter;stroke-width:1.5;" x="192.25544" xlink:href="#m400dbcccd6" y="28.089132"/>
     <use style="fill-opacity:0;stroke:#ff00ff;stroke-linejoin:miter;stroke-width:1.5;" x="192.25544" xlink:href="#m400dbcccd6" y="27.648"/>
     <use style="fill-opacity:0;stroke:#ff00ff;stroke-linejoin:miter;stroke-width:1.5;" x="192.25544" xlink:href="#m400dbcccd6" y="27.648"/>
     <use style="fill-opacity:0;stroke:#ff00ff;stroke-linejoin:miter;stroke-width:1.5;" x="360.8064" xlink:href="#m400dbcccd6" y="27.648"/>
    </g>
   </g>
   <g id="line2d_36">
    <path style="fill:none;stroke:#ff00ff;stroke-linecap:square;stroke-width:1.5;"/>
    <g/>
   </g>
   <g id="line2d_37">
    <path d="M 360.8064 27.648 
L 380.514816 293.51808 
" style="fill:none;stroke:#ff00ff;stroke-linecap:square;stroke-width:1.5;"/>
    <g>
     <use style="fill-opacity:0;stroke:#ff00ff;stroke-linejoin:miter;stroke-width:1.5;" x="360.8064" xlink:href="#m400dbcccd6" y="27.648"/>
     <use style="fill-opacity:0;stroke:#ff00ff;stroke-linejoin:miter;stroke-width:1.5;" x="380.514816" xlink:href="#m400dbcccd6" y="293.51808"/>
    </g>
   </g>
   <g id="line2d_38">
    <path d="M 360.8064 27.648 
L 380.514816 33.07392 
" style="fill:none;stroke:#000080;stroke-linecap:square;stroke-width:1.5;"/>
    <g>
     <use style="fill-opacity:0;stroke:#000080;stroke-width:1.5;" x="360.8064" xlink:href="#m9ccd9af5a6" y="27.648"/>
     <use style="fill-opacity:0;stroke:#000080;stroke-width:1.5;" x="380.514816" xlink:href="#m9ccd9af5a6" y="33.07392"/>
    </g>
   </g>
   <g id="line2d_39">
    <path d="M 360.8064 298.944 
L 360.8064 27.648 
" style="fill:none;stroke:#000000;stroke-linecap:square;stroke-width:1.5;"/>
   </g>
   <g id="patch_3">
    <path d="M 57.6 298.944 
L 360.8064 298.944 
" style="fill:none;stroke:#000000;stroke-linecap:square;stroke-linejoin:miter;stroke-width:0.8;"/>
   </g>
   <g id="patch_4">
    <path d="M 57.6 27.648 
L 360.8064 27.648 
" style="fill:none;stroke:#000000;stroke-linecap:square;stroke-linejoin:miter;stroke-width:0.8;"/>
   </g>
   <g id="text_13">
    <!-- al3 -->
    <g transform="translate(386.578944 297.381205)scale(0.14 -0.14)">
     <defs>
      <path d="M 40.578125 39.3125 
Q 47.65625 37.796875 51.625 33 
Q 55.609375 28.21875 55.609375 21.1875 
Q 55.609375 10.40625 48.1875 4.484375 
Q 40.765625 -1.421875 27.09375 -1.421875 
Q 22.515625 -1.421875 17.65625 -0.515625 
Q 12.796875 0.390625 7.625 2.203125 
L 7.625 11.71875 
Q 11.71875 9.328125 16.59375 8.109375 
Q 21.484375 6.890625 26.8125 6.890625 
Q 36.078125 6.890625 40.9375 10.546875 
Q 45.796875 14.203125 45.796875 21.1875 
Q 45.796875 27.640625 41.28125 31.265625 
Q 36.765625 34.90625 28.71875 34.90625 
L 20.21875 34.90625 
L 20.21875 43.015625 
L 29.109375 43.015625 
Q 36.375 43.015625 40.234375 45.921875 
Q 44.09375 48.828125 44.09375 54.296875 
Q 44.09375 59.90625 40.109375 62.90625 
Q 36.140625 65.921875 28.71875 65.921875 
Q 24.65625 65.921875 20.015625 65.03125 
Q 15.375 64.15625 9.8125 62.3125 
L 9.8125 71.09375 
Q 15.4375 72.65625 20.34375 73.4375 
Q 25.25 74.21875 29.59375 74.21875 
Q 40.828125 74.21875 47.359375 69.109375 
Q 53.90625 64.015625 53.90625 55.328125 
Q 53.90625 49.265625 50.4375 45.09375 
Q 46.96875 40.921875 40.578125 39.3125 
z
" id="DejaVuSans-51"/>
     </defs>
     <use xlink:href="#DejaVuSans-97"/>
     <use x="61.279297" xlink:href="#DejaVuSans-108"/>
     <use x="89.0625" xlink:href="#DejaVuSans-51"/>
    </g>
   </g>
   <g id="text_14">
    <!-- al-defaul -->
    <g transform="translate(386.578944 36.937045)scale(0.14 -0.14)">
     <defs>
      <path d="M 4.890625 31.390625 
L 31.203125 31.390625 
L 31.203125 23.390625 
L 4.890625 23.390625 
z
" id="DejaVuSans-45"/>
     </defs>
     <use xlink:href="#DejaVuSans-97"/>
     <use x="61.279297" xlink:href="#DejaVuSans-108"/>
     <use x="89.0625" xlink:href="#DejaVuSans-45"/>
     <use x="125.146484" xlink:href="#DejaVuSans-100"/>
     <use x="188.623047" xlink:href="#DejaVuSans-101"/>
     <use x="250.146484" xlink:href="#DejaVuSans-102"/>
     <use x="285.351562" xlink:href="#DejaVuSans-97"/>
     <use x="346.630859" xlink:href="#DejaVuSans-117"/>
     <use x="410.009766" xlink:href="#DejaVuSans-108"/>
    </g>
   </g>
   <g id="text_15">
    <!-- bbob-constrained f38, 10-D -->
    <g transform="translate(60.632064 38.111366)scale(0.102 -0.102)">
     <defs>
      <path d="M 48.6875 27.296875 
Q 48.6875 37.203125 44.609375 42.84375 
Q 40.53125 48.484375 33.40625 48.484375 
Q 26.265625 48.484375 22.1875 42.84375 
Q 18.109375 37.203125 18.109375 27.296875 
Q 18.109375 17.390625 22.1875 11.75 
Q 26.265625 6.109375 33.40625 6.109375 
Q 40.53125 6.109375 44.609375 11.75 
Q 48.6875 17.390625 48.6875 27.296875 
z
M 18.109375 46.390625 
Q 20.953125 51.265625 25.265625 53.625 
Q 29.59375 56 35.59375 56 
Q 45.5625 56 51.78125 48.09375 
Q 58.015625 40.1875 58.015625 27.296875 
Q 58.015625 14.40625 51.78125 6.484375 
Q 45.5625 -1.421875 35.59375 -1.421875 
Q 29.59375 -1.421875 25.265625 0.953125 
Q 20.953125 3.328125 18.109375 8.203125 
L 18.109375 0 
L 9.078125 0 
L 9.078125 75.984375 
L 18.109375 75.984375 
z
" id="DejaVuSans-98"/>
      <path d="M 19.671875 64.796875 
L 19.671875 8.109375 
L 31.59375 8.109375 
Q 46.6875 8.109375 53.6875 14.9375 
Q 60.6875 21.78125 60.6875 36.53125 
Q 60.6875 51.171875 53.6875 57.984375 
Q 46.6875 64.796875 31.59375 64.796875 
z
M 9.8125 72.90625 
L 30.078125 72.90625 
Q 51.265625 72.90625 61.171875 64.09375 
Q 71.09375 55.28125 71.09375 36.53125 
Q 71.09375 17.671875 61.125 8.828125 
Q 51.171875 0 30.078125 0 
L 9.8125 0 
z
" id="DejaVuSans-68"/>
     </defs>
     <use xlink:href="#DejaVuSans-98"/>
     <use x="63.476562" xlink:href="#DejaVuSans-98"/>
     <use x="126.953125" xlink:href="#DejaVuSans-111"/>
     <use x="188.134766" xlink:href="#DejaVuSans-98"/>
     <use x="251.611328" xlink:href="#DejaVuSans-45"/>
     <use x="287.695312" xlink:href="#DejaVuSans-99"/>
     <use x="342.675781" xlink:href="#DejaVuSans-111"/>
     <use x="403.857422" xlink:href="#DejaVuSans-110"/>
     <use x="467.236328" xlink:href="#DejaVuSans-115"/>
     <use x="519.335938" xlink:href="#DejaVuSans-116"/>
     <use x="558.544922" xlink:href="#DejaVuSans-114"/>
     <use x="599.658203" xlink:href="#DejaVuSans-97"/>
     <use x="660.9375" xlink:href="#DejaVuSans-105"/>
     <use x="688.720703" xlink:href="#DejaVuSans-110"/>
     <use x="752.099609" xlink:href="#DejaVuSans-101"/>
     <use x="813.623047" xlink:href="#DejaVuSans-100"/>
     <use x="877.099609" xlink:href="#DejaVuSans-32"/>
     <use x="908.886719" xlink:href="#DejaVuSans-102"/>
     <use x="944.091797" xlink:href="#DejaVuSans-51"/>
     <use x="1007.714844" xlink:href="#DejaVuSans-56"/>
     <use x="1071.337891" xlink:href="#DejaVuSans-44"/>
     <use x="1103.125" xlink:href="#DejaVuSans-32"/>
     <use x="1134.912109" xlink:href="#DejaVuSans-49"/>
     <use x="1198.535156" xlink:href="#DejaVuSans-48"/>
     <use x="1262.158203" xlink:href="#DejaVuSans-45"/>
     <use x="1298.242188" xlink:href="#DejaVuSans-68"/>
    </g>
    <!-- 41 targets: 100..1e-06 -->
    <g transform="translate(60.632064 49.533135)scale(0.102 -0.102)">
     <defs>
      <path d="M 11.71875 12.40625 
L 22.015625 12.40625 
L 22.015625 0 
L 11.71875 0 
z
M 11.71875 51.703125 
L 22.015625 51.703125 
L 22.015625 39.3125 
L 11.71875 39.3125 
z
" id="DejaVuSans-58"/>
     </defs>
     <use xlink:href="#DejaVuSans-52"/>
     <use x="63.623047" xlink:href="#DejaVuSans-49"/>
     <use x="127.246094" xlink:href="#DejaVuSans-32"/>
     <use x="159.033203" xlink:href="#DejaVuSans-116"/>
     <use x="198.242188" xlink:href="#DejaVuSans-97"/>
     <use x="259.521484" xlink:href="#DejaVuSans-114"/>
     <use x="298.884766" xlink:href="#DejaVuSans-103"/>
     <use x="362.361328" xlink:href="#DejaVuSans-101"/>
     <use x="423.884766" xlink:href="#DejaVuSans-116"/>
     <use x="463.09375" xlink:href="#DejaVuSans-115"/>
     <use x="515.193359" xlink:href="#DejaVuSans-58"/>
     <use x="548.884766" xlink:href="#DejaVuSans-32"/>
     <use x="580.671875" xlink:href="#DejaVuSans-49"/>
     <use x="644.294922" xlink:href="#DejaVuSans-48"/>
     <use x="707.917969" xlink:href="#DejaVuSans-48"/>
     <use x="771.541016" xlink:href="#DejaVuSans-46"/>
     <use x="803.328125" xlink:href="#DejaVuSans-46"/>
     <use x="835.115234" xlink:href="#DejaVuSans-49"/>
     <use x="898.738281" xlink:href="#DejaVuSans-101"/>
     <use x="960.261719" xlink:href="#DejaVuSans-45"/>
     <use x="996.345703" xlink:href="#DejaVuSans-48"/>
     <use x="1059.96875" xlink:href="#DejaVuSans-54"/>
    </g>
    <!-- evals = f-evals + g-evals -->
    <g transform="translate(60.632064 60.954904)scale(0.102 -0.102)">
     <defs>
      <path d="M 10.59375 45.40625 
L 73.1875 45.40625 
L 73.1875 37.203125 
L 10.59375 37.203125 
z
M 10.59375 25.484375 
L 73.1875 25.484375 
L 73.1875 17.1875 
L 10.59375 17.1875 
z
" id="DejaVuSans-61"/>
      <path d="M 46 62.703125 
L 46 35.5 
L 73.1875 35.5 
L 73.1875 27.203125 
L 46 27.203125 
L 46 0 
L 37.796875 0 
L 37.796875 27.203125 
L 10.59375 27.203125 
L 10.59375 35.5 
L 37.796875 35.5 
L 37.796875 62.703125 
z
" id="DejaVuSans-43"/>
     </defs>
     <use xlink:href="#DejaVuSans-101"/>
     <use x="61.523438" xlink:href="#DejaVuSans-118"/>
     <use x="120.703125" xlink:href="#DejaVuSans-97"/>
     <use x="181.982422" xlink:href="#DejaVuSans-108"/>
     <use x="209.765625" xlink:href="#DejaVuSans-115"/>
     <use x="261.865234" xlink:href="#DejaVuSans-32"/>
     <use x="293.652344" xlink:href="#DejaVuSans-61"/>
     <use x="377.441406" xlink:href="#DejaVuSans-32"/>
     <use x="409.228516" xlink:href="#DejaVuSans-102"/>
     <use x="438.933594" xlink:href="#DejaVuSans-45"/>
     <use x="475.017578" xlink:href="#DejaVuSans-101"/>
     <use x="536.541016" xlink:href="#DejaVuSans-118"/>
     <use x="595.720703" xlink:href="#DejaVuSans-97"/>
     <use x="657" xlink:href="#DejaVuSans-108"/>
     <use x="684.783203" xlink:href="#DejaVuSans-115"/>
     <use x="736.882812" xlink:href="#DejaVuSans-32"/>
     <use x="768.669922" xlink:href="#DejaVuSans-43"/>
     <use x="852.458984" xlink:href="#DejaVuSans-32"/>
     <use x="884.246094" xlink:href="#DejaVuSans-103"/>
     <use x="947.722656" xlink:href="#DejaVuSans-45"/>
     <use x="983.806641" xlink:href="#DejaVuSans-101"/>
     <use x="1045.330078" xlink:href="#DejaVuSans-118"/>
     <use x="1104.509766" xlink:href="#DejaVuSans-97"/>
     <use x="1165.789062" xlink:href="#DejaVuSans-108"/>
     <use x="1193.572266" xlink:href="#DejaVuSans-115"/>
    </g>
    <!-- 15 instances -->
    <g transform="translate(60.632064 72.376672)scale(0.102 -0.102)">
     <defs>
      <path d="M 10.796875 72.90625 
L 49.515625 72.90625 
L 49.515625 64.59375 
L 19.828125 64.59375 
L 19.828125 46.734375 
Q 21.96875 47.46875 24.109375 47.828125 
Q 26.265625 48.1875 28.421875 48.1875 
Q 40.625 48.1875 47.75 41.5 
Q 54.890625 34.8125 54.890625 23.390625 
Q 54.890625 11.625 47.5625 5.09375 
Q 40.234375 -1.421875 26.90625 -1.421875 
Q 22.3125 -1.421875 17.546875 -0.640625 
Q 12.796875 0.140625 7.71875 1.703125 
L 7.71875 11.625 
Q 12.109375 9.234375 16.796875 8.0625 
Q 21.484375 6.890625 26.703125 6.890625 
Q 35.15625 6.890625 40.078125 11.328125 
Q 45.015625 15.765625 45.015625 23.390625 
Q 45.015625 31 40.078125 35.4375 
Q 35.15625 39.890625 26.703125 39.890625 
Q 22.75 39.890625 18.8125 39.015625 
Q 14.890625 38.140625 10.796875 36.28125 
z
" id="DejaVuSans-53"/>
     </defs>
     <use xlink:href="#DejaVuSans-49"/>
     <use x="63.623047" xlink:href="#DejaVuSans-53"/>
     <use x="127.246094" xlink:href="#DejaVuSans-32"/>
     <use x="159.033203" xlink:href="#DejaVuSans-105"/>
     <use x="186.816406" xlink:href="#DejaVuSans-110"/>
     <use x="250.195312" xlink:href="#DejaVuSans-115"/>
     <use x="302.294922" xlink:href="#DejaVuSans-116"/>
     <use x="341.503906" xlink:href="#DejaVuSans-97"/>
     <use x="402.783203" xlink:href="#DejaVuSans-110"/>
     <use x="466.162109" xlink:href="#DejaVuSans-99"/>
     <use x="521.142578" xlink:href="#DejaVuSans-101"/>
     <use x="582.666016" xlink:href="#DejaVuSans-115"/>
    </g>
   </g>
   <g id="text_16">
    <!-- v2.6.1.9 -->
    <g style="fill:#808080;" transform="translate(188.751637 294.151352)scale(0.1 -0.1)">
     <defs>
      <path d="M 10.984375 1.515625 
L 10.984375 10.5 
Q 14.703125 8.734375 18.5 7.8125 
Q 22.3125 6.890625 25.984375 6.890625 
Q 35.75 6.890625 40.890625 13.453125 
Q 46.046875 20.015625 46.78125 33.40625 
Q 43.953125 29.203125 39.59375 26.953125 
Q 35.25 24.703125 29.984375 24.703125 
Q 19.046875 24.703125 12.671875 31.3125 
Q 6.296875 37.9375 6.296875 49.421875 
Q 6.296875 60.640625 12.9375 67.421875 
Q 19.578125 74.21875 30.609375 74.21875 
Q 43.265625 74.21875 49.921875 64.515625 
Q 56.59375 54.828125 56.59375 36.375 
Q 56.59375 19.140625 48.40625 8.859375 
Q 40.234375 -1.421875 26.421875 -1.421875 
Q 22.703125 -1.421875 18.890625 -0.6875 
Q 15.09375 0.046875 10.984375 1.515625 
z
M 30.609375 32.421875 
Q 37.25 32.421875 41.125 36.953125 
Q 45.015625 41.5 45.015625 49.421875 
Q 45.015625 57.28125 41.125 61.84375 
Q 37.25 66.40625 30.609375 66.40625 
Q 23.96875 66.40625 20.09375 61.84375 
Q 16.21875 57.28125 16.21875 49.421875 
Q 16.21875 41.5 20.09375 36.953125 
Q 23.96875 32.421875 30.609375 32.421875 
z
" id="DejaVuSans-57"/>
     </defs>
     <use xlink:href="#DejaVuSans-118"/>
     <use x="59.179688" xlink:href="#DejaVuSans-50"/>
     <use x="122.802734" xlink:href="#DejaVuSans-46"/>
     <use x="154.589844" xlink:href="#DejaVuSans-54"/>
     <use x="218.212891" xlink:href="#DejaVuSans-46"/>
     <use x="250" xlink:href="#DejaVuSans-49"/>
     <use x="313.623047" xlink:href="#DejaVuSans-46"/>
     <use x="345.410156" xlink:href="#DejaVuSans-57"/>
    </g>
   </g>
   <g id="text_17">
    <!-- 38 Diff. Powers, m=3 -->
    <g transform="translate(103.873512 21.648)scale(0.2 -0.2)">
     <defs>
      <path d="M 19.671875 64.796875 
L 19.671875 37.40625 
L 32.078125 37.40625 
Q 38.96875 37.40625 42.71875 40.96875 
Q 46.484375 44.53125 46.484375 51.125 
Q 46.484375 57.671875 42.71875 61.234375 
Q 38.96875 64.796875 32.078125 64.796875 
z
M 9.8125 72.90625 
L 32.078125 72.90625 
Q 44.34375 72.90625 50.609375 67.359375 
Q 56.890625 61.8125 56.890625 51.125 
Q 56.890625 40.328125 50.609375 34.8125 
Q 44.34375 29.296875 32.078125 29.296875 
L 19.671875 29.296875 
L 19.671875 0 
L 9.8125 0 
z
" id="DejaVuSans-80"/>
      <path d="M 4.203125 54.6875 
L 13.1875 54.6875 
L 24.421875 12.015625 
L 35.59375 54.6875 
L 46.1875 54.6875 
L 57.421875 12.015625 
L 68.609375 54.6875 
L 77.59375 54.6875 
L 63.28125 0 
L 52.6875 0 
L 40.921875 44.828125 
L 29.109375 0 
L 18.5 0 
z
" id="DejaVuSans-119"/>
     </defs>
     <use xlink:href="#DejaVuSans-51"/>
     <use x="63.623047" xlink:href="#DejaVuSans-56"/>
     <use x="127.246094" xlink:href="#DejaVuSans-32"/>
     <use x="159.033203" xlink:href="#DejaVuSans-68"/>
     <use x="236.035156" xlink:href="#DejaVuSans-105"/>
     <use x="263.818359" xlink:href="#DejaVuSans-102"/>
     <use x="299.023438" xlink:href="#DejaVuSans-102"/>
     <use x="326.978516" xlink:href="#DejaVuSans-46"/>
     <use x="358.765625" xlink:href="#DejaVuSans-32"/>
     <use x="390.552734" xlink:href="#DejaVuSans-80"/>
     <use x="447.230469" xlink:href="#DejaVuSans-111"/>
     <use x="508.412109" xlink:href="#DejaVuSans-119"/>
     <use x="590.199219" xlink:href="#DejaVuSans-101"/>
     <use x="651.722656" xlink:href="#DejaVuSans-114"/>
     <use x="692.835938" xlink:href="#DejaVuSans-115"/>
     <use x="744.935547" xlink:href="#DejaVuSans-44"/>
     <use x="776.722656" xlink:href="#DejaVuSans-32"/>
     <use x="808.509766" xlink:href="#DejaVuSans-109"/>
     <use x="905.921875" xlink:href="#DejaVuSans-61"/>
     <use x="989.710938" xlink:href="#DejaVuSans-51"/>
    </g>
   </g>
  </g>
 </g>
 <defs>
  <clipPath id="pe4da2ca0f9">
   <rect height="271.296" width="303.2064" x="57.6" y="27.648"/>
  </clipPath>
 </defs>
</svg>
