<?xml version="1.0" encoding="utf-8" standalone="no"?>
<!DOCTYPE svg PUBLIC "-//W3C//DTD SVG 1.1//EN"
  "http://www.w3.org/Graphics/SVG/1.1/DTD/svg11.dtd">
<!-- Created with matplotlib (https://matplotlib.org/) -->
<svg height="345.6pt" version="1.1" viewBox="0 0 460.8 345.6" width="460.8pt" xmlns="http://www.w3.org/2000/svg" xmlns:xlink="http://www.w3.org/1999/xlink">
 <metadata>
  <rdf:RDF xmlns:cc="http://creativecommons.org/ns#" xmlns:dc="http://purl.org/dc/elements/1.1/" xmlns:rdf="http://www.w3.org/1999/02/22-rdf-syntax-ns#">
   <cc:Work>
    <dc:type rdf:resource="http://purl.org/dc/dcmitype/StillImage"/>
    <dc:date>2022-04-26T20:52:49.447312</dc:date>
    <dc:format>image/svg+xml</dc:format>
    <dc:creator>
     <cc:Agent>
      <dc:title>Matplotlib v3.3.3, https://matplotlib.org/</dc:title>
     </cc:Agent>
    </dc:creator>
   </cc:Work>
  </rdf:RDF>
 </metadata>
 <defs>
  <style type="text/css">*{stroke-linecap:butt;stroke-linejoin:round;}</style>
 </defs>
 <g id="figure_1">
  <g id="patch_1">
   <path d="M 0 345.6 
L 460.8 345.6 
L 460.8 0 
L 0 0 
z
" style="fill:#ffffff;"/>
  </g>
  <g id="axes_1">
   <g id="patch_2">
    <path d="M 57.6 298.944 
L 360.8064 298.944 
L 360.8064 27.648 
L 57.6 27.648 
z
" style="fill:#ffffff;"/>
   </g>
   <g id="matplotlib.axis_1">
    <g id="xtick_1">
     <g id="line2d_1">
      <path clip-path="url(#p9d30c8b148)" d="M 57.6 298.944 
L 57.6 27.648 
" style="fill:none;stroke:#b0b0b0;stroke-linecap:square;stroke-width:0.8;"/>
     </g>
     <g id="line2d_2">
      <defs>
       <path d="M 0 0 
L 0 3.5 
" id="mc5cc50a7e0" style="stroke:#000000;stroke-width:0.8;"/>
      </defs>
      <g>
       <use style="stroke:#000000;stroke-width:0.8;" x="57.6" xlink:href="#mc5cc50a7e0" y="298.944"/>
      </g>
     </g>
     <g id="text_1">
      <!-- 0 -->
      <g transform="translate(52.191875 318.861344)scale(0.17 -0.17)">
       <defs>
        <path d="M 31.78125 66.40625 
Q 24.171875 66.40625 20.328125 58.90625 
Q 16.5 51.421875 16.5 36.375 
Q 16.5 21.390625 20.328125 13.890625 
Q 24.171875 6.390625 31.78125 6.390625 
Q 39.453125 6.390625 43.28125 13.890625 
Q 47.125 21.390625 47.125 36.375 
Q 47.125 51.421875 43.28125 58.90625 
Q 39.453125 66.40625 31.78125 66.40625 
z
M 31.78125 74.21875 
Q 44.046875 74.21875 50.515625 64.515625 
Q 56.984375 54.828125 56.984375 36.375 
Q 56.984375 17.96875 50.515625 8.265625 
Q 44.046875 -1.421875 31.78125 -1.421875 
Q 19.53125 -1.421875 13.0625 8.265625 
Q 6.59375 17.96875 6.59375 36.375 
Q 6.59375 54.828125 13.0625 64.515625 
Q 19.53125 74.21875 31.78125 74.21875 
z
" id="DejaVuSans-48"/>
       </defs>
       <use xlink:href="#DejaVuSans-48"/>
      </g>
     </g>
    </g>
    <g id="xtick_2">
     <g id="line2d_3">
      <path clip-path="url(#p9d30c8b148)" d="M 144.2304 298.944 
L 144.2304 27.648 
" style="fill:none;stroke:#b0b0b0;stroke-linecap:square;stroke-width:0.8;"/>
     </g>
     <g id="line2d_4">
      <g>
       <use style="stroke:#000000;stroke-width:0.8;" x="144.2304" xlink:href="#mc5cc50a7e0" y="298.944"/>
      </g>
     </g>
     <g id="text_2">
      <!-- 2 -->
      <g transform="translate(138.822275 318.861344)scale(0.17 -0.17)">
       <defs>
        <path d="M 19.1875 8.296875 
L 53.609375 8.296875 
L 53.609375 0 
L 7.328125 0 
L 7.328125 8.296875 
Q 12.9375 14.109375 22.625 23.890625 
Q 32.328125 33.6875 34.8125 36.53125 
Q 39.546875 41.84375 41.421875 45.53125 
Q 43.3125 49.21875 43.3125 52.78125 
Q 43.3125 58.59375 39.234375 62.25 
Q 35.15625 65.921875 28.609375 65.921875 
Q 23.96875 65.921875 18.8125 64.3125 
Q 13.671875 62.703125 7.8125 59.421875 
L 7.8125 69.390625 
Q 13.765625 71.78125 18.9375 73 
Q 24.125 74.21875 28.421875 74.21875 
Q 39.75 74.21875 46.484375 68.546875 
Q 53.21875 62.890625 53.21875 53.421875 
Q 53.21875 48.921875 51.53125 44.890625 
Q 49.859375 40.875 45.40625 35.40625 
Q 44.1875 33.984375 37.640625 27.21875 
Q 31.109375 20.453125 19.1875 8.296875 
z
" id="DejaVuSans-50"/>
       </defs>
       <use xlink:href="#DejaVuSans-50"/>
      </g>
     </g>
    </g>
    <g id="xtick_3">
     <g id="line2d_5">
      <path clip-path="url(#p9d30c8b148)" d="M 230.8608 298.944 
L 230.8608 27.648 
" style="fill:none;stroke:#b0b0b0;stroke-linecap:square;stroke-width:0.8;"/>
     </g>
     <g id="line2d_6">
      <g>
       <use style="stroke:#000000;stroke-width:0.8;" x="230.8608" xlink:href="#mc5cc50a7e0" y="298.944"/>
      </g>
     </g>
     <g id="text_3">
      <!-- 4 -->
      <g transform="translate(225.452675 318.861344)scale(0.17 -0.17)">
       <defs>
        <path d="M 37.796875 64.3125 
L 12.890625 25.390625 
L 37.796875 25.390625 
z
M 35.203125 72.90625 
L 47.609375 72.90625 
L 47.609375 25.390625 
L 58.015625 25.390625 
L 58.015625 17.1875 
L 47.609375 17.1875 
L 47.609375 0 
L 37.796875 0 
L 37.796875 17.1875 
L 4.890625 17.1875 
L 4.890625 26.703125 
z
" id="DejaVuSans-52"/>
       </defs>
       <use xlink:href="#DejaVuSans-52"/>
      </g>
     </g>
    </g>
    <g id="xtick_4">
     <g id="line2d_7">
      <path clip-path="url(#p9d30c8b148)" d="M 317.4912 298.944 
L 317.4912 27.648 
" style="fill:none;stroke:#b0b0b0;stroke-linecap:square;stroke-width:0.8;"/>
     </g>
     <g id="line2d_8">
      <g>
       <use style="stroke:#000000;stroke-width:0.8;" x="317.4912" xlink:href="#mc5cc50a7e0" y="298.944"/>
      </g>
     </g>
     <g id="text_4">
      <!-- 6 -->
      <g transform="translate(312.083075 318.861344)scale(0.17 -0.17)">
       <defs>
        <path d="M 33.015625 40.375 
Q 26.375 40.375 22.484375 35.828125 
Q 18.609375 31.296875 18.609375 23.390625 
Q 18.609375 15.53125 22.484375 10.953125 
Q 26.375 6.390625 33.015625 6.390625 
Q 39.65625 6.390625 43.53125 10.953125 
Q 47.40625 15.53125 47.40625 23.390625 
Q 47.40625 31.296875 43.53125 35.828125 
Q 39.65625 40.375 33.015625 40.375 
z
M 52.59375 71.296875 
L 52.59375 62.3125 
Q 48.875 64.0625 45.09375 64.984375 
Q 41.3125 65.921875 37.59375 65.921875 
Q 27.828125 65.921875 22.671875 59.328125 
Q 17.53125 52.734375 16.796875 39.40625 
Q 19.671875 43.65625 24.015625 45.921875 
Q 28.375 48.1875 33.59375 48.1875 
Q 44.578125 48.1875 50.953125 41.515625 
Q 57.328125 34.859375 57.328125 23.390625 
Q 57.328125 12.15625 50.6875 5.359375 
Q 44.046875 -1.421875 33.015625 -1.421875 
Q 20.359375 -1.421875 13.671875 8.265625 
Q 6.984375 17.96875 6.984375 36.375 
Q 6.984375 53.65625 15.1875 63.9375 
Q 23.390625 74.21875 37.203125 74.21875 
Q 40.921875 74.21875 44.703125 73.484375 
Q 48.484375 72.75 52.59375 71.296875 
z
" id="DejaVuSans-54"/>
       </defs>
       <use xlink:href="#DejaVuSans-54"/>
      </g>
     </g>
    </g>
    <g id="xtick_5">
     <g id="line2d_9">
      <path clip-path="url(#p9d30c8b148)" d="M 100.9152 298.944 
L 100.9152 27.648 
" style="fill:none;stroke:#b0b0b0;stroke-linecap:square;stroke-width:0.8;"/>
     </g>
     <g id="line2d_10">
      <defs>
       <path d="M 0 0 
L 0 2 
" id="ma12fee15b2" style="stroke:#000000;stroke-width:0.6;"/>
      </defs>
      <g>
       <use style="stroke:#000000;stroke-width:0.6;" x="100.9152" xlink:href="#ma12fee15b2" y="298.944"/>
      </g>
     </g>
    </g>
    <g id="xtick_6">
     <g id="line2d_11">
      <path clip-path="url(#p9d30c8b148)" d="M 187.5456 298.944 
L 187.5456 27.648 
" style="fill:none;stroke:#b0b0b0;stroke-linecap:square;stroke-width:0.8;"/>
     </g>
     <g id="line2d_12">
      <g>
       <use style="stroke:#000000;stroke-width:0.6;" x="187.5456" xlink:href="#ma12fee15b2" y="298.944"/>
      </g>
     </g>
    </g>
    <g id="xtick_7">
     <g id="line2d_13">
      <path clip-path="url(#p9d30c8b148)" d="M 274.176 298.944 
L 274.176 27.648 
" style="fill:none;stroke:#b0b0b0;stroke-linecap:square;stroke-width:0.8;"/>
     </g>
     <g id="line2d_14">
      <g>
       <use style="stroke:#000000;stroke-width:0.6;" x="274.176" xlink:href="#ma12fee15b2" y="298.944"/>
      </g>
     </g>
    </g>
    <g id="xtick_8">
     <g id="line2d_15">
      <path clip-path="url(#p9d30c8b148)" d="M 360.8064 298.944 
L 360.8064 27.648 
" style="fill:none;stroke:#b0b0b0;stroke-linecap:square;stroke-width:0.8;"/>
     </g>
     <g id="line2d_16">
      <g>
       <use style="stroke:#000000;stroke-width:0.6;" x="360.8064" xlink:href="#ma12fee15b2" y="298.944"/>
      </g>
     </g>
    </g>
    <g id="text_5">
     <!-- log10(evals / dimension) -->
     <g transform="translate(104.238825 339.314156)scale(0.17 -0.17)">
      <defs>
       <path d="M 9.421875 75.984375 
L 18.40625 75.984375 
L 18.40625 0 
L 9.421875 0 
z
" id="DejaVuSans-108"/>
       <path d="M 30.609375 48.390625 
Q 23.390625 48.390625 19.1875 42.75 
Q 14.984375 37.109375 14.984375 27.296875 
Q 14.984375 17.484375 19.15625 11.84375 
Q 23.34375 6.203125 30.609375 6.203125 
Q 37.796875 6.203125 41.984375 11.859375 
Q 46.1875 17.53125 46.1875 27.296875 
Q 46.1875 37.015625 41.984375 42.703125 
Q 37.796875 48.390625 30.609375 48.390625 
z
M 30.609375 56 
Q 42.328125 56 49.015625 48.375 
Q 55.71875 40.765625 55.71875 27.296875 
Q 55.71875 13.875 49.015625 6.21875 
Q 42.328125 -1.421875 30.609375 -1.421875 
Q 18.84375 -1.421875 12.171875 6.21875 
Q 5.515625 13.875 5.515625 27.296875 
Q 5.515625 40.765625 12.171875 48.375 
Q 18.84375 56 30.609375 56 
z
" id="DejaVuSans-111"/>
       <path d="M 45.40625 27.984375 
Q 45.40625 37.75 41.375 43.109375 
Q 37.359375 48.484375 30.078125 48.484375 
Q 22.859375 48.484375 18.828125 43.109375 
Q 14.796875 37.75 14.796875 27.984375 
Q 14.796875 18.265625 18.828125 12.890625 
Q 22.859375 7.515625 30.078125 7.515625 
Q 37.359375 7.515625 41.375 12.890625 
Q 45.40625 18.265625 45.40625 27.984375 
z
M 54.390625 6.78125 
Q 54.390625 -7.171875 48.1875 -13.984375 
Q 42 -20.796875 29.203125 -20.796875 
Q 24.46875 -20.796875 20.265625 -20.09375 
Q 16.0625 -19.390625 12.109375 -17.921875 
L 12.109375 -9.1875 
Q 16.0625 -11.328125 19.921875 -12.34375 
Q 23.78125 -13.375 27.78125 -13.375 
Q 36.625 -13.375 41.015625 -8.765625 
Q 45.40625 -4.15625 45.40625 5.171875 
L 45.40625 9.625 
Q 42.625 4.78125 38.28125 2.390625 
Q 33.9375 0 27.875 0 
Q 17.828125 0 11.671875 7.65625 
Q 5.515625 15.328125 5.515625 27.984375 
Q 5.515625 40.671875 11.671875 48.328125 
Q 17.828125 56 27.875 56 
Q 33.9375 56 38.28125 53.609375 
Q 42.625 51.21875 45.40625 46.390625 
L 45.40625 54.6875 
L 54.390625 54.6875 
z
" id="DejaVuSans-103"/>
       <path d="M 12.40625 8.296875 
L 28.515625 8.296875 
L 28.515625 63.921875 
L 10.984375 60.40625 
L 10.984375 69.390625 
L 28.421875 72.90625 
L 38.28125 72.90625 
L 38.28125 8.296875 
L 54.390625 8.296875 
L 54.390625 0 
L 12.40625 0 
z
" id="DejaVuSans-49"/>
       <path d="M 31 75.875 
Q 24.46875 64.65625 21.28125 53.65625 
Q 18.109375 42.671875 18.109375 31.390625 
Q 18.109375 20.125 21.3125 9.0625 
Q 24.515625 -2 31 -13.1875 
L 23.1875 -13.1875 
Q 15.875 -1.703125 12.234375 9.375 
Q 8.59375 20.453125 8.59375 31.390625 
Q 8.59375 42.28125 12.203125 53.3125 
Q 15.828125 64.359375 23.1875 75.875 
z
" id="DejaVuSans-40"/>
       <path d="M 56.203125 29.59375 
L 56.203125 25.203125 
L 14.890625 25.203125 
Q 15.484375 15.921875 20.484375 11.0625 
Q 25.484375 6.203125 34.421875 6.203125 
Q 39.59375 6.203125 44.453125 7.46875 
Q 49.3125 8.734375 54.109375 11.28125 
L 54.109375 2.78125 
Q 49.265625 0.734375 44.1875 -0.34375 
Q 39.109375 -1.421875 33.890625 -1.421875 
Q 20.796875 -1.421875 13.15625 6.1875 
Q 5.515625 13.8125 5.515625 26.8125 
Q 5.515625 40.234375 12.765625 48.109375 
Q 20.015625 56 32.328125 56 
Q 43.359375 56 49.78125 48.890625 
Q 56.203125 41.796875 56.203125 29.59375 
z
M 47.21875 32.234375 
Q 47.125 39.59375 43.09375 43.984375 
Q 39.0625 48.390625 32.421875 48.390625 
Q 24.90625 48.390625 20.390625 44.140625 
Q 15.875 39.890625 15.1875 32.171875 
z
" id="DejaVuSans-101"/>
       <path d="M 2.984375 54.6875 
L 12.5 54.6875 
L 29.59375 8.796875 
L 46.6875 54.6875 
L 56.203125 54.6875 
L 35.6875 0 
L 23.484375 0 
z
" id="DejaVuSans-118"/>
       <path d="M 34.28125 27.484375 
Q 23.390625 27.484375 19.1875 25 
Q 14.984375 22.515625 14.984375 16.5 
Q 14.984375 11.71875 18.140625 8.90625 
Q 21.296875 6.109375 26.703125 6.109375 
Q 34.1875 6.109375 38.703125 11.40625 
Q 43.21875 16.703125 43.21875 25.484375 
L 43.21875 27.484375 
z
M 52.203125 31.203125 
L 52.203125 0 
L 43.21875 0 
L 43.21875 8.296875 
Q 40.140625 3.328125 35.546875 0.953125 
Q 30.953125 -1.421875 24.3125 -1.421875 
Q 15.921875 -1.421875 10.953125 3.296875 
Q 6 8.015625 6 15.921875 
Q 6 25.140625 12.171875 29.828125 
Q 18.359375 34.515625 30.609375 34.515625 
L 43.21875 34.515625 
L 43.21875 35.40625 
Q 43.21875 41.609375 39.140625 45 
Q 35.0625 48.390625 27.6875 48.390625 
Q 23 48.390625 18.546875 47.265625 
Q 14.109375 46.140625 10.015625 43.890625 
L 10.015625 52.203125 
Q 14.9375 54.109375 19.578125 55.046875 
Q 24.21875 56 28.609375 56 
Q 40.484375 56 46.34375 49.84375 
Q 52.203125 43.703125 52.203125 31.203125 
z
" id="DejaVuSans-97"/>
       <path d="M 44.28125 53.078125 
L 44.28125 44.578125 
Q 40.484375 46.53125 36.375 47.5 
Q 32.28125 48.484375 27.875 48.484375 
Q 21.1875 48.484375 17.84375 46.4375 
Q 14.5 44.390625 14.5 40.28125 
Q 14.5 37.15625 16.890625 35.375 
Q 19.28125 33.59375 26.515625 31.984375 
L 29.59375 31.296875 
Q 39.15625 29.25 43.1875 25.515625 
Q 47.21875 21.78125 47.21875 15.09375 
Q 47.21875 7.46875 41.1875 3.015625 
Q 35.15625 -1.421875 24.609375 -1.421875 
Q 20.21875 -1.421875 15.453125 -0.5625 
Q 10.6875 0.296875 5.421875 2 
L 5.421875 11.28125 
Q 10.40625 8.6875 15.234375 7.390625 
Q 20.0625 6.109375 24.8125 6.109375 
Q 31.15625 6.109375 34.5625 8.28125 
Q 37.984375 10.453125 37.984375 14.40625 
Q 37.984375 18.0625 35.515625 20.015625 
Q 33.0625 21.96875 24.703125 23.78125 
L 21.578125 24.515625 
Q 13.234375 26.265625 9.515625 29.90625 
Q 5.8125 33.546875 5.8125 39.890625 
Q 5.8125 47.609375 11.28125 51.796875 
Q 16.75 56 26.8125 56 
Q 31.78125 56 36.171875 55.265625 
Q 40.578125 54.546875 44.28125 53.078125 
z
" id="DejaVuSans-115"/>
       <path id="DejaVuSans-32"/>
       <path d="M 25.390625 72.90625 
L 33.6875 72.90625 
L 8.296875 -9.28125 
L 0 -9.28125 
z
" id="DejaVuSans-47"/>
       <path d="M 45.40625 46.390625 
L 45.40625 75.984375 
L 54.390625 75.984375 
L 54.390625 0 
L 45.40625 0 
L 45.40625 8.203125 
Q 42.578125 3.328125 38.25 0.953125 
Q 33.9375 -1.421875 27.875 -1.421875 
Q 17.96875 -1.421875 11.734375 6.484375 
Q 5.515625 14.40625 5.515625 27.296875 
Q 5.515625 40.1875 11.734375 48.09375 
Q 17.96875 56 27.875 56 
Q 33.9375 56 38.25 53.625 
Q 42.578125 51.265625 45.40625 46.390625 
z
M 14.796875 27.296875 
Q 14.796875 17.390625 18.875 11.75 
Q 22.953125 6.109375 30.078125 6.109375 
Q 37.203125 6.109375 41.296875 11.75 
Q 45.40625 17.390625 45.40625 27.296875 
Q 45.40625 37.203125 41.296875 42.84375 
Q 37.203125 48.484375 30.078125 48.484375 
Q 22.953125 48.484375 18.875 42.84375 
Q 14.796875 37.203125 14.796875 27.296875 
z
" id="DejaVuSans-100"/>
       <path d="M 9.421875 54.6875 
L 18.40625 54.6875 
L 18.40625 0 
L 9.421875 0 
z
M 9.421875 75.984375 
L 18.40625 75.984375 
L 18.40625 64.59375 
L 9.421875 64.59375 
z
" id="DejaVuSans-105"/>
       <path d="M 52 44.1875 
Q 55.375 50.25 60.0625 53.125 
Q 64.75 56 71.09375 56 
Q 79.640625 56 84.28125 50.015625 
Q 88.921875 44.046875 88.921875 33.015625 
L 88.921875 0 
L 79.890625 0 
L 79.890625 32.71875 
Q 79.890625 40.578125 77.09375 44.375 
Q 74.3125 48.1875 68.609375 48.1875 
Q 61.625 48.1875 57.5625 43.546875 
Q 53.515625 38.921875 53.515625 30.90625 
L 53.515625 0 
L 44.484375 0 
L 44.484375 32.71875 
Q 44.484375 40.625 41.703125 44.40625 
Q 38.921875 48.1875 33.109375 48.1875 
Q 26.21875 48.1875 22.15625 43.53125 
Q 18.109375 38.875 18.109375 30.90625 
L 18.109375 0 
L 9.078125 0 
L 9.078125 54.6875 
L 18.109375 54.6875 
L 18.109375 46.1875 
Q 21.1875 51.21875 25.484375 53.609375 
Q 29.78125 56 35.6875 56 
Q 41.65625 56 45.828125 52.96875 
Q 50 49.953125 52 44.1875 
z
" id="DejaVuSans-109"/>
       <path d="M 54.890625 33.015625 
L 54.890625 0 
L 45.90625 0 
L 45.90625 32.71875 
Q 45.90625 40.484375 42.875 44.328125 
Q 39.84375 48.1875 33.796875 48.1875 
Q 26.515625 48.1875 22.3125 43.546875 
Q 18.109375 38.921875 18.109375 30.90625 
L 18.109375 0 
L 9.078125 0 
L 9.078125 54.6875 
L 18.109375 54.6875 
L 18.109375 46.1875 
Q 21.34375 51.125 25.703125 53.5625 
Q 30.078125 56 35.796875 56 
Q 45.21875 56 50.046875 50.171875 
Q 54.890625 44.34375 54.890625 33.015625 
z
" id="DejaVuSans-110"/>
       <path d="M 8.015625 75.875 
L 15.828125 75.875 
Q 23.140625 64.359375 26.78125 53.3125 
Q 30.421875 42.28125 30.421875 31.390625 
Q 30.421875 20.453125 26.78125 9.375 
Q 23.140625 -1.703125 15.828125 -13.1875 
L 8.015625 -13.1875 
Q 14.5 -2 17.703125 9.0625 
Q 20.90625 20.125 20.90625 31.390625 
Q 20.90625 42.671875 17.703125 53.65625 
Q 14.5 64.65625 8.015625 75.875 
z
" id="DejaVuSans-41"/>
      </defs>
      <use xlink:href="#DejaVuSans-108"/>
      <use x="27.783203" xlink:href="#DejaVuSans-111"/>
      <use x="88.964844" xlink:href="#DejaVuSans-103"/>
      <use x="152.441406" xlink:href="#DejaVuSans-49"/>
      <use x="216.064453" xlink:href="#DejaVuSans-48"/>
      <use x="279.6875" xlink:href="#DejaVuSans-40"/>
      <use x="318.701172" xlink:href="#DejaVuSans-101"/>
      <use x="380.224609" xlink:href="#DejaVuSans-118"/>
      <use x="439.404297" xlink:href="#DejaVuSans-97"/>
      <use x="500.683594" xlink:href="#DejaVuSans-108"/>
      <use x="528.466797" xlink:href="#DejaVuSans-115"/>
      <use x="580.566406" xlink:href="#DejaVuSans-32"/>
      <use x="612.353516" xlink:href="#DejaVuSans-47"/>
      <use x="646.044922" xlink:href="#DejaVuSans-32"/>
      <use x="677.832031" xlink:href="#DejaVuSans-100"/>
      <use x="741.308594" xlink:href="#DejaVuSans-105"/>
      <use x="769.091797" xlink:href="#DejaVuSans-109"/>
      <use x="866.503906" xlink:href="#DejaVuSans-101"/>
      <use x="928.027344" xlink:href="#DejaVuSans-110"/>
      <use x="991.40625" xlink:href="#DejaVuSans-115"/>
      <use x="1043.505859" xlink:href="#DejaVuSans-105"/>
      <use x="1071.289062" xlink:href="#DejaVuSans-111"/>
      <use x="1132.470703" xlink:href="#DejaVuSans-110"/>
      <use x="1195.849609" xlink:href="#DejaVuSans-41"/>
     </g>
    </g>
   </g>
   <g id="matplotlib.axis_2">
    <g id="ytick_1">
     <g id="line2d_17">
      <path clip-path="url(#p9d30c8b148)" d="M 57.6 298.944 
L 360.8064 298.944 
" style="fill:none;stroke:#b0b0b0;stroke-linecap:square;stroke-width:0.8;"/>
     </g>
     <g id="line2d_18">
      <defs>
       <path d="M 0 0 
L -3.5 0 
" id="m82cd0bd26e" style="stroke:#000000;stroke-width:0.8;"/>
      </defs>
      <g>
       <use style="stroke:#000000;stroke-width:0.8;" x="57.6" xlink:href="#m82cd0bd26e" y="298.944"/>
      </g>
     </g>
     <g id="text_6">
      <!-- 0.0 -->
      <g transform="translate(25.155 305.02275)scale(0.16 -0.16)">
       <defs>
        <path d="M 10.6875 12.40625 
L 21 12.40625 
L 21 0 
L 10.6875 0 
z
" id="DejaVuSans-46"/>
       </defs>
       <use xlink:href="#DejaVuSans-48"/>
       <use x="63.623047" xlink:href="#DejaVuSans-46"/>
       <use x="95.410156" xlink:href="#DejaVuSans-48"/>
      </g>
     </g>
    </g>
    <g id="ytick_2">
     <g id="line2d_19">
      <path clip-path="url(#p9d30c8b148)" d="M 57.6 244.6848 
L 360.8064 244.6848 
" style="fill:none;stroke:#b0b0b0;stroke-linecap:square;stroke-width:0.8;"/>
     </g>
     <g id="line2d_20">
      <g>
       <use style="stroke:#000000;stroke-width:0.8;" x="57.6" xlink:href="#m82cd0bd26e" y="244.6848"/>
      </g>
     </g>
     <g id="text_7">
      <!-- 0.2 -->
      <g transform="translate(25.155 250.76355)scale(0.16 -0.16)">
       <use xlink:href="#DejaVuSans-48"/>
       <use x="63.623047" xlink:href="#DejaVuSans-46"/>
       <use x="95.410156" xlink:href="#DejaVuSans-50"/>
      </g>
     </g>
    </g>
    <g id="ytick_3">
     <g id="line2d_21">
      <path clip-path="url(#p9d30c8b148)" d="M 57.6 190.4256 
L 360.8064 190.4256 
" style="fill:none;stroke:#b0b0b0;stroke-linecap:square;stroke-width:0.8;"/>
     </g>
     <g id="line2d_22">
      <g>
       <use style="stroke:#000000;stroke-width:0.8;" x="57.6" xlink:href="#m82cd0bd26e" y="190.4256"/>
      </g>
     </g>
     <g id="text_8">
      <!-- 0.4 -->
      <g transform="translate(25.155 196.50435)scale(0.16 -0.16)">
       <use xlink:href="#DejaVuSans-48"/>
       <use x="63.623047" xlink:href="#DejaVuSans-46"/>
       <use x="95.410156" xlink:href="#DejaVuSans-52"/>
      </g>
     </g>
    </g>
    <g id="ytick_4">
     <g id="line2d_23">
      <path clip-path="url(#p9d30c8b148)" d="M 57.6 136.1664 
L 360.8064 136.1664 
" style="fill:none;stroke:#b0b0b0;stroke-linecap:square;stroke-width:0.8;"/>
     </g>
     <g id="line2d_24">
      <g>
       <use style="stroke:#000000;stroke-width:0.8;" x="57.6" xlink:href="#m82cd0bd26e" y="136.1664"/>
      </g>
     </g>
     <g id="text_9">
      <!-- 0.6 -->
      <g transform="translate(25.155 142.24515)scale(0.16 -0.16)">
       <use xlink:href="#DejaVuSans-48"/>
       <use x="63.623047" xlink:href="#DejaVuSans-46"/>
       <use x="95.410156" xlink:href="#DejaVuSans-54"/>
      </g>
     </g>
    </g>
    <g id="ytick_5">
     <g id="line2d_25">
      <path clip-path="url(#p9d30c8b148)" d="M 57.6 81.9072 
L 360.8064 81.9072 
" style="fill:none;stroke:#b0b0b0;stroke-linecap:square;stroke-width:0.8;"/>
     </g>
     <g id="line2d_26">
      <g>
       <use style="stroke:#000000;stroke-width:0.8;" x="57.6" xlink:href="#m82cd0bd26e" y="81.9072"/>
      </g>
     </g>
     <g id="text_10">
      <!-- 0.8 -->
      <g transform="translate(25.155 87.98595)scale(0.16 -0.16)">
       <defs>
        <path d="M 31.78125 34.625 
Q 24.75 34.625 20.71875 30.859375 
Q 16.703125 27.09375 16.703125 20.515625 
Q 16.703125 13.921875 20.71875 10.15625 
Q 24.75 6.390625 31.78125 6.390625 
Q 38.8125 6.390625 42.859375 10.171875 
Q 46.921875 13.96875 46.921875 20.515625 
Q 46.921875 27.09375 42.890625 30.859375 
Q 38.875 34.625 31.78125 34.625 
z
M 21.921875 38.8125 
Q 15.578125 40.375 12.03125 44.71875 
Q 8.5 49.078125 8.5 55.328125 
Q 8.5 64.0625 14.71875 69.140625 
Q 20.953125 74.21875 31.78125 74.21875 
Q 42.671875 74.21875 48.875 69.140625 
Q 55.078125 64.0625 55.078125 55.328125 
Q 55.078125 49.078125 51.53125 44.71875 
Q 48 40.375 41.703125 38.8125 
Q 48.828125 37.15625 52.796875 32.3125 
Q 56.78125 27.484375 56.78125 20.515625 
Q 56.78125 9.90625 50.3125 4.234375 
Q 43.84375 -1.421875 31.78125 -1.421875 
Q 19.734375 -1.421875 13.25 4.234375 
Q 6.78125 9.90625 6.78125 20.515625 
Q 6.78125 27.484375 10.78125 32.3125 
Q 14.796875 37.15625 21.921875 38.8125 
z
M 18.3125 54.390625 
Q 18.3125 48.734375 21.84375 45.5625 
Q 25.390625 42.390625 31.78125 42.390625 
Q 38.140625 42.390625 41.71875 45.5625 
Q 45.3125 48.734375 45.3125 54.390625 
Q 45.3125 60.0625 41.71875 63.234375 
Q 38.140625 66.40625 31.78125 66.40625 
Q 25.390625 66.40625 21.84375 63.234375 
Q 18.3125 60.0625 18.3125 54.390625 
z
" id="DejaVuSans-56"/>
       </defs>
       <use xlink:href="#DejaVuSans-48"/>
       <use x="63.623047" xlink:href="#DejaVuSans-46"/>
       <use x="95.410156" xlink:href="#DejaVuSans-56"/>
      </g>
     </g>
    </g>
    <g id="ytick_6">
     <g id="line2d_27">
      <path clip-path="url(#p9d30c8b148)" d="M 57.6 27.648 
L 360.8064 27.648 
" style="fill:none;stroke:#b0b0b0;stroke-linecap:square;stroke-width:0.8;"/>
     </g>
     <g id="line2d_28">
      <g>
       <use style="stroke:#000000;stroke-width:0.8;" x="57.6" xlink:href="#m82cd0bd26e" y="27.648"/>
      </g>
     </g>
     <g id="text_11">
      <!-- 1.0 -->
      <g transform="translate(25.155 33.72675)scale(0.16 -0.16)">
       <use xlink:href="#DejaVuSans-49"/>
       <use x="63.623047" xlink:href="#DejaVuSans-46"/>
       <use x="95.410156" xlink:href="#DejaVuSans-48"/>
      </g>
     </g>
    </g>
    <g id="text_12">
     <!-- Fraction of function,target pairs -->
     <g transform="translate(17.619531 297.681)rotate(-90)scale(0.17 -0.17)">
      <defs>
       <path d="M 9.8125 72.90625 
L 51.703125 72.90625 
L 51.703125 64.59375 
L 19.671875 64.59375 
L 19.671875 43.109375 
L 48.578125 43.109375 
L 48.578125 34.8125 
L 19.671875 34.8125 
L 19.671875 0 
L 9.8125 0 
z
" id="DejaVuSans-70"/>
       <path d="M 41.109375 46.296875 
Q 39.59375 47.171875 37.8125 47.578125 
Q 36.03125 48 33.890625 48 
Q 26.265625 48 22.1875 43.046875 
Q 18.109375 38.09375 18.109375 28.8125 
L 18.109375 0 
L 9.078125 0 
L 9.078125 54.6875 
L 18.109375 54.6875 
L 18.109375 46.1875 
Q 20.953125 51.171875 25.484375 53.578125 
Q 30.03125 56 36.53125 56 
Q 37.453125 56 38.578125 55.875 
Q 39.703125 55.765625 41.0625 55.515625 
z
" id="DejaVuSans-114"/>
       <path d="M 48.78125 52.59375 
L 48.78125 44.1875 
Q 44.96875 46.296875 41.140625 47.34375 
Q 37.3125 48.390625 33.40625 48.390625 
Q 24.65625 48.390625 19.8125 42.84375 
Q 14.984375 37.3125 14.984375 27.296875 
Q 14.984375 17.28125 19.8125 11.734375 
Q 24.65625 6.203125 33.40625 6.203125 
Q 37.3125 6.203125 41.140625 7.25 
Q 44.96875 8.296875 48.78125 10.40625 
L 48.78125 2.09375 
Q 45.015625 0.34375 40.984375 -0.53125 
Q 36.96875 -1.421875 32.421875 -1.421875 
Q 20.0625 -1.421875 12.78125 6.34375 
Q 5.515625 14.109375 5.515625 27.296875 
Q 5.515625 40.671875 12.859375 48.328125 
Q 20.21875 56 33.015625 56 
Q 37.15625 56 41.109375 55.140625 
Q 45.0625 54.296875 48.78125 52.59375 
z
" id="DejaVuSans-99"/>
       <path d="M 18.3125 70.21875 
L 18.3125 54.6875 
L 36.8125 54.6875 
L 36.8125 47.703125 
L 18.3125 47.703125 
L 18.3125 18.015625 
Q 18.3125 11.328125 20.140625 9.421875 
Q 21.96875 7.515625 27.59375 7.515625 
L 36.8125 7.515625 
L 36.8125 0 
L 27.59375 0 
Q 17.1875 0 13.234375 3.875 
Q 9.28125 7.765625 9.28125 18.015625 
L 9.28125 47.703125 
L 2.6875 47.703125 
L 2.6875 54.6875 
L 9.28125 54.6875 
L 9.28125 70.21875 
z
" id="DejaVuSans-116"/>
       <path d="M 37.109375 75.984375 
L 37.109375 68.5 
L 28.515625 68.5 
Q 23.6875 68.5 21.796875 66.546875 
Q 19.921875 64.59375 19.921875 59.515625 
L 19.921875 54.6875 
L 34.71875 54.6875 
L 34.71875 47.703125 
L 19.921875 47.703125 
L 19.921875 0 
L 10.890625 0 
L 10.890625 47.703125 
L 2.296875 47.703125 
L 2.296875 54.6875 
L 10.890625 54.6875 
L 10.890625 58.5 
Q 10.890625 67.625 15.140625 71.796875 
Q 19.390625 75.984375 28.609375 75.984375 
z
" id="DejaVuSans-102"/>
       <path d="M 8.5 21.578125 
L 8.5 54.6875 
L 17.484375 54.6875 
L 17.484375 21.921875 
Q 17.484375 14.15625 20.5 10.265625 
Q 23.53125 6.390625 29.59375 6.390625 
Q 36.859375 6.390625 41.078125 11.03125 
Q 45.3125 15.671875 45.3125 23.6875 
L 45.3125 54.6875 
L 54.296875 54.6875 
L 54.296875 0 
L 45.3125 0 
L 45.3125 8.40625 
Q 42.046875 3.421875 37.71875 1 
Q 33.40625 -1.421875 27.6875 -1.421875 
Q 18.265625 -1.421875 13.375 4.4375 
Q 8.5 10.296875 8.5 21.578125 
z
M 31.109375 56 
z
" id="DejaVuSans-117"/>
       <path d="M 11.71875 12.40625 
L 22.015625 12.40625 
L 22.015625 4 
L 14.015625 -11.625 
L 7.71875 -11.625 
L 11.71875 4 
z
" id="DejaVuSans-44"/>
       <path d="M 18.109375 8.203125 
L 18.109375 -20.796875 
L 9.078125 -20.796875 
L 9.078125 54.6875 
L 18.109375 54.6875 
L 18.109375 46.390625 
Q 20.953125 51.265625 25.265625 53.625 
Q 29.59375 56 35.59375 56 
Q 45.5625 56 51.78125 48.09375 
Q 58.015625 40.1875 58.015625 27.296875 
Q 58.015625 14.40625 51.78125 6.484375 
Q 45.5625 -1.421875 35.59375 -1.421875 
Q 29.59375 -1.421875 25.265625 0.953125 
Q 20.953125 3.328125 18.109375 8.203125 
z
M 48.6875 27.296875 
Q 48.6875 37.203125 44.609375 42.84375 
Q 40.53125 48.484375 33.40625 48.484375 
Q 26.265625 48.484375 22.1875 42.84375 
Q 18.109375 37.203125 18.109375 27.296875 
Q 18.109375 17.390625 22.1875 11.75 
Q 26.265625 6.109375 33.40625 6.109375 
Q 40.53125 6.109375 44.609375 11.75 
Q 48.6875 17.390625 48.6875 27.296875 
z
" id="DejaVuSans-112"/>
      </defs>
      <use xlink:href="#DejaVuSans-70"/>
      <use x="50.269531" xlink:href="#DejaVuSans-114"/>
      <use x="91.382812" xlink:href="#DejaVuSans-97"/>
      <use x="152.662109" xlink:href="#DejaVuSans-99"/>
      <use x="207.642578" xlink:href="#DejaVuSans-116"/>
      <use x="246.851562" xlink:href="#DejaVuSans-105"/>
      <use x="274.634766" xlink:href="#DejaVuSans-111"/>
      <use x="335.816406" xlink:href="#DejaVuSans-110"/>
      <use x="399.195312" xlink:href="#DejaVuSans-32"/>
      <use x="430.982422" xlink:href="#DejaVuSans-111"/>
      <use x="492.164062" xlink:href="#DejaVuSans-102"/>
      <use x="527.369141" xlink:href="#DejaVuSans-32"/>
      <use x="559.15625" xlink:href="#DejaVuSans-102"/>
      <use x="594.361328" xlink:href="#DejaVuSans-117"/>
      <use x="657.740234" xlink:href="#DejaVuSans-110"/>
      <use x="721.119141" xlink:href="#DejaVuSans-99"/>
      <use x="776.099609" xlink:href="#DejaVuSans-116"/>
      <use x="815.308594" xlink:href="#DejaVuSans-105"/>
      <use x="843.091797" xlink:href="#DejaVuSans-111"/>
      <use x="904.273438" xlink:href="#DejaVuSans-110"/>
      <use x="967.652344" xlink:href="#DejaVuSans-44"/>
      <use x="999.439453" xlink:href="#DejaVuSans-116"/>
      <use x="1038.648438" xlink:href="#DejaVuSans-97"/>
      <use x="1099.927734" xlink:href="#DejaVuSans-114"/>
      <use x="1139.291016" xlink:href="#DejaVuSans-103"/>
      <use x="1202.767578" xlink:href="#DejaVuSans-101"/>
      <use x="1264.291016" xlink:href="#DejaVuSans-116"/>
      <use x="1303.5" xlink:href="#DejaVuSans-32"/>
      <use x="1335.287109" xlink:href="#DejaVuSans-112"/>
      <use x="1398.763672" xlink:href="#DejaVuSans-97"/>
      <use x="1460.042969" xlink:href="#DejaVuSans-105"/>
      <use x="1487.826172" xlink:href="#DejaVuSans-114"/>
      <use x="1528.939453" xlink:href="#DejaVuSans-115"/>
     </g>
    </g>
   </g>
   <g id="line2d_29">
    <defs>
     <path d="M 0 1.5 
C 0.397805 1.5 0.77937 1.341951 1.06066 1.06066 
C 1.341951 0.77937 1.5 0.397805 1.5 0 
C 1.5 -0.397805 1.341951 -0.77937 1.06066 -1.06066 
C 0.77937 -1.341951 0.397805 -1.5 0 -1.5 
C -0.397805 -1.5 -0.77937 -1.341951 -1.06066 -1.06066 
C -1.341951 -0.77937 -1.5 -0.397805 -1.5 0 
C -1.5 0.397805 -1.341951 0.77937 -1.06066 1.06066 
C -0.77937 1.341951 -0.397805 1.5 0 1.5 
z
" id="me01de9c5b8" style="stroke:#000080;"/>
    </defs>
    <g>
     <use style="fill:#000080;stroke:#000080;" x="270.534325" xlink:href="#me01de9c5b8" y="27.648"/>
     <use style="fill:#000080;stroke:#000080;" x="270.534325" xlink:href="#me01de9c5b8" y="27.648"/>
    </g>
   </g>
   <g id="line2d_30">
    <path d="M 146.074567 298.944 
L 146.074567 298.502868 
L 146.941151 298.502868 
L 146.941151 298.061737 
L 148.44312 298.061737 
L 148.44312 297.620605 
L 151.129053 297.620605 
L 151.129053 297.179473 
L 151.795018 297.179473 
L 151.795018 296.738341 
L 152.316216 296.738341 
L 152.316216 296.29721 
L 153.75309 296.29721 
L 153.75309 295.856078 
L 154.552285 295.856078 
L 154.552285 295.414946 
L 154.854139 295.414946 
L 154.875516 294.532683 
L 155.833477 294.532683 
L 155.833477 294.091551 
L 156.745011 294.091551 
L 156.822226 292.768156 
L 156.860715 292.768156 
L 156.860715 292.327024 
L 157.032948 292.327024 
L 157.032948 291.885893 
L 157.779907 291.885893 
L 157.779907 291.444761 
L 157.980225 291.444761 
L 158.016419 290.562498 
L 158.356828 290.562498 
L 158.356828 290.121366 
L 158.621287 290.121366 
L 158.656269 289.239102 
L 159.190332 289.239102 
L 159.190332 288.797971 
L 159.443406 288.797971 
L 159.527013 287.915707 
L 159.676576 287.915707 
L 159.676576 287.474576 
L 159.923234 287.474576 
L 160.00474 286.592312 
L 160.375185 286.592312 
L 160.422971 285.710049 
L 160.486497 285.710049 
L 160.486497 285.268917 
L 160.675797 285.268917 
L 160.675797 284.827785 
L 160.832105 284.827785 
L 160.832105 284.386654 
L 161.262981 284.386654 
L 161.323737 283.063259 
L 161.384298 283.063259 
L 161.384298 282.622127 
L 161.639526 282.622127 
L 161.684209 281.739863 
L 162.226747 281.739863 
L 162.226747 281.298732 
L 162.641304 281.298732 
L 162.641304 280.8576 
L 162.852198 280.8576 
L 162.949812 279.534205 
L 163.019227 279.534205 
L 163.019227 279.093073 
L 163.212239 279.093073 
L 163.212239 278.651941 
L 163.416862 278.651941 
L 163.416862 278.21081 
L 163.632702 278.21081 
L 163.632702 277.769678 
L 163.792971 277.769678 
L 163.85935 276.887415 
L 164.265747 276.887415 
L 164.265747 276.446283 
L 164.510559 276.446283 
L 164.510559 276.005151 
L 164.764859 276.005151 
L 164.790101 275.122888 
L 164.915805 275.122888 
L 165.015767 273.799493 
L 165.053116 273.799493 
L 165.053116 273.358361 
L 165.201776 273.358361 
L 165.312505 272.476098 
L 165.737026 272.476098 
L 165.737026 272.034966 
L 166.23412 272.034966 
L 166.23412 271.593834 
L 166.604233 271.593834 
L 166.695635 269.829307 
L 166.877116 269.829307 
L 166.877116 269.388176 
L 167.034489 269.388176 
L 167.034489 268.947044 
L 167.23491 268.947044 
L 167.334325 267.623649 
L 167.367347 267.623649 
L 167.433218 266.741385 
L 167.487935 266.741385 
L 167.487935 266.300254 
L 167.629457 266.300254 
L 167.716022 264.535727 
L 167.941377 264.535727 
L 168.015899 263.653463 
L 168.12185 263.653463 
L 168.12185 263.212332 
L 168.550116 263.212332 
L 168.550116 262.7712 
L 168.826913 262.7712 
L 168.826913 262.330068 
L 169.079624 262.330068 
L 169.109722 261.447805 
L 169.239596 261.447805 
L 169.239596 261.006673 
L 169.75999 261.006673 
L 169.78902 260.12441 
L 170.247512 260.12441 
L 170.322852 259.242146 
L 170.59346 259.242146 
L 170.648965 257.918751 
L 171.023928 257.918751 
L 171.051073 257.036488 
L 171.159263 257.036488 
L 171.159263 256.595356 
L 171.302556 256.595356 
L 171.302556 256.154224 
L 171.453618 256.154224 
L 171.550721 255.271961 
L 171.568323 255.271961 
L 171.568323 254.830829 
L 171.717274 254.830829 
L 171.786963 253.066302 
L 171.83906 253.066302 
L 171.83906 252.625171 
L 172.123046 252.625171 
L 172.19125 251.742907 
L 172.478391 251.742907 
L 172.478391 250.860644 
L 172.636963 250.860644 
L 172.636963 250.419512 
L 172.794209 250.419512 
L 172.794209 249.97838 
L 173.112918 249.97838 
L 173.129118 249.096117 
L 173.370449 249.096117 
L 173.418347 248.213854 
L 173.497905 248.213854 
L 173.569221 246.449327 
L 173.812816 246.449327 
L 173.87517 244.6848 
L 174.245018 244.6848 
L 174.245018 244.243668 
L 174.397001 244.243668 
L 174.397001 243.802537 
L 174.540256 243.802537 
L 174.540256 243.361405 
L 174.771671 243.361405 
L 174.771671 242.920273 
L 174.912111 242.920273 
L 174.912111 242.479141 
L 175.036886 242.479141 
L 175.080727 241.596878 
L 175.24061 241.596878 
L 175.24061 241.155746 
L 175.384788 241.155746 
L 175.384788 240.714615 
L 175.556356 240.714615 
L 175.620293 239.832351 
L 176.034135 239.832351 
L 176.103385 238.067824 
L 176.158601 238.067824 
L 176.199907 236.744429 
L 176.275401 236.744429 
L 176.295937 235.862166 
L 176.445858 235.862166 
L 176.445858 235.421034 
L 176.560893 235.421034 
L 176.641673 234.097639 
L 176.742162 234.097639 
L 176.77554 233.215376 
L 176.868683 233.215376 
L 176.974571 231.450849 
L 177.02071 231.450849 
L 177.02071 231.009717 
L 177.243218 231.009717 
L 177.243218 230.568585 
L 177.591292 230.568585 
L 177.61682 228.804059 
L 177.718591 228.804059 
L 177.78824 227.921795 
L 177.857632 227.921795 
L 177.914217 226.5984 
L 178.169864 226.5984 
L 178.169864 226.157268 
L 178.531754 226.157268 
L 178.628705 224.833873 
L 178.785193 224.833873 
L 178.785193 224.392741 
L 178.993815 224.392741 
L 179.058907 222.187083 
L 179.106105 222.187083 
L 179.12966 221.30482 
L 179.252842 221.30482 
L 179.305388 219.540293 
L 179.473713 219.540293 
L 179.548682 217.775766 
L 179.617621 217.775766 
L 179.617621 217.334634 
L 179.766126 217.334634 
L 179.868255 215.570107 
L 179.885223 215.570107 
L 179.890875 213.80558 
L 180.014803 213.80558 
L 180.014803 213.364449 
L 180.193616 213.364449 
L 180.193616 212.923317 
L 180.33766 212.923317 
L 180.409271 210.276527 
L 180.56259 210.276527 
L 180.56259 209.394263 
L 181.004537 209.394263 
L 181.105475 207.629737 
L 181.131948 207.629737 
L 181.131948 206.747473 
L 181.279511 206.747473 
L 181.279511 206.306341 
L 181.477941 206.306341 
L 181.576377 204.541815 
L 181.720508 204.541815 
L 181.766602 203.21842 
L 181.853362 203.21842 
L 181.853362 202.777288 
L 181.97011 202.777288 
L 182.020644 201.895024 
L 182.141377 201.895024 
L 182.141377 201.453893 
L 182.316067 201.453893 
L 182.405281 198.807102 
L 182.533402 198.807102 
L 182.616704 197.483707 
L 182.646017 197.483707 
L 182.753108 196.160312 
L 182.757962 196.160312 
L 182.777362 195.278049 
L 183.027769 195.278049 
L 183.027769 194.836917 
L 183.151734 194.836917 
L 183.23708 193.07239 
L 183.293762 193.07239 
L 183.369075 191.307863 
L 183.444086 191.307863 
L 183.528119 187.77881 
L 183.579288 187.77881 
L 183.579288 187.337678 
L 183.699682 187.337678 
L 183.722747 186.455415 
L 184.020042 186.455415 
L 184.020042 185.573151 
L 184.534785 185.573151 
L 184.543614 184.690888 
L 184.662396 184.690888 
L 184.75863 181.602966 
L 184.806563 181.602966 
L 184.806563 180.720702 
L 184.988465 180.720702 
L 185.074471 178.956176 
L 185.100196 178.956176 
L 185.202747 176.309385 
L 185.26231 176.309385 
L 185.283538 174.103727 
L 185.431461 174.103727 
L 185.507086 173.221463 
L 185.569875 173.221463 
L 185.582407 171.898068 
L 185.773537 171.898068 
L 185.773537 171.456937 
L 185.962744 171.456937 
L 186.052566 170.133541 
L 186.17841 170.133541 
L 186.271237 168.369015 
L 186.307436 168.369015 
L 186.411622 166.604488 
L 186.431592 166.604488 
L 186.51126 159.987512 
L 186.550968 159.987512 
L 186.57079 159.105249 
L 186.803132 159.105249 
L 186.908508 156.017327 
L 186.931845 156.017327 
L 187.036504 152.047141 
L 187.102104 152.047141 
L 187.201992 150.723746 
L 187.618822 150.723746 
L 187.704822 148.076956 
L 187.820117 148.076956 
L 187.894127 144.106771 
L 188.110777 144.106771 
L 188.172741 142.342244 
L 188.346604 142.342244 
L 188.379026 141.45998 
L 188.483116 141.45998 
L 188.561698 140.136585 
L 188.643503 140.136585 
L 188.643503 139.695454 
L 188.802535 139.695454 
L 188.809572 138.81319 
L 188.967211 138.81319 
L 189.040327 135.284137 
L 189.092379 135.284137 
L 189.154652 133.51961 
L 189.244239 133.51961 
L 189.302585 132.637346 
L 189.367582 132.637346 
L 189.442563 130.431688 
L 189.483336 130.431688 
L 189.520633 128.667161 
L 189.635451 128.667161 
L 189.739531 126.020371 
L 189.749573 126.020371 
L 189.85968 122.932449 
L 189.892919 122.932449 
L 189.965838 120.72679 
L 190.015395 120.72679 
L 190.071401 118.962263 
L 190.150186 118.962263 
L 190.19926 117.197737 
L 190.526397 117.197737 
L 190.609698 115.874341 
L 190.641639 115.874341 
L 190.67034 112.78642 
L 190.753007 112.78642 
L 190.847943 111.904156 
L 190.882633 111.904156 
L 190.9581 108.816234 
L 191.023885 108.816234 
L 191.080091 107.492839 
L 191.204393 107.492839 
L 191.284751 101.758127 
L 191.462785 101.758127 
L 191.505507 99.111337 
L 191.614921 99.111337 
L 191.714661 97.787941 
L 191.73575 97.787941 
L 191.828862 93.817756 
L 191.909586 93.817756 
L 191.954283 92.053229 
L 192.025578 92.053229 
L 192.025578 91.612098 
L 192.275932 91.612098 
L 192.375147 87.641912 
L 192.392602 87.641912 
L 192.502772 83.671727 
L 192.505663 83.671727 
L 192.606552 80.583805 
L 192.623794 80.583805 
L 192.715481 79.701541 
L 192.806723 79.701541 
L 192.906015 78.378146 
L 192.96816 78.378146 
L 193.032911 77.054751 
L 193.114237 77.054751 
L 193.153372 73.525698 
L 193.228619 73.525698 
L 193.259189 71.761171 
L 193.504716 71.761171 
L 193.603127 70.878907 
L 193.652141 70.878907 
L 193.717294 66.908722 
L 193.809209 66.908722 
L 193.868445 65.585327 
L 194.098232 65.585327 
L 194.196237 61.17401 
L 194.272696 61.17401 
L 194.314748 58.52722 
L 194.442949 58.52722 
L 194.549553 55.880429 
L 194.609091 55.880429 
L 194.619426 54.998166 
L 194.791704 54.998166 
L 194.84793 53.674771 
L 194.96749 53.674771 
L 194.96749 53.233639 
L 195.131597 53.233639 
L 195.131597 52.351376 
L 195.251871 52.351376 
L 195.251871 51.02798 
L 195.827441 51.02798 
L 195.827441 50.586849 
L 195.984245 50.586849 
L 196.010652 47.940059 
L 206.56991 47.940059 
L 206.56991 47.498927 
L 206.72392 47.498927 
L 206.72392 47.057795 
L 206.878025 47.057795 
L 206.950584 46.175532 
L 207.105511 46.175532 
L 207.105511 45.7344 
L 207.825759 45.7344 
L 207.825759 45.293268 
L 208.105301 45.293268 
L 208.105301 44.852137 
L 208.39069 44.852137 
L 208.39069 44.411005 
L 208.539174 44.411005 
L 208.539174 43.969873 
L 213.680768 43.969873 
L 213.680768 43.528741 
L 214.891878 43.528741 
L 214.942806 42.646478 
L 215.759616 42.646478 
L 215.855927 41.764215 
L 215.880971 41.764215 
L 215.910146 40.881951 
L 216.479503 40.881951 
L 216.479503 40.44082 
L 219.126711 40.44082 
L 219.126711 39.999688 
L 219.350029 39.999688 
L 219.350029 39.558556 
L 219.521983 39.558556 
L 219.521983 39.117424 
L 219.840305 39.117424 
L 219.840305 38.676293 
L 219.9911 38.676293 
L 219.9911 38.235161 
L 220.300986 38.235161 
L 220.300986 37.794029 
L 220.526512 37.794029 
L 220.526512 37.352898 
L 220.98997 37.352898 
L 220.98997 36.911766 
L 221.105336 36.911766 
L 221.105336 36.470634 
L 223.572387 36.470634 
L 223.572387 36.029502 
L 224.149847 36.029502 
L 224.188508 35.147239 
L 227.378755 35.147239 
L 227.378755 34.706107 
L 228.366488 34.706107 
L 228.366488 34.264976 
L 230.921838 34.264976 
L 230.928587 33.382712 
L 232.60373 33.382712 
L 232.60373 32.94158 
L 233.94375 32.94158 
L 233.94375 32.500449 
L 236.0765 32.500449 
L 236.0765 32.059317 
L 238.761756 32.059317 
L 238.761756 31.618185 
L 241.670026 31.618185 
L 241.670026 31.177054 
L 246.898023 31.177054 
L 246.898023 30.735922 
L 247.70647 30.735922 
L 247.70647 30.29479 
L 248.782272 30.29479 
L 248.782272 29.853659 
L 253.193873 29.853659 
L 253.193873 29.412527 
L 254.063563 29.412527 
L 254.063563 28.971395 
L 260.262866 28.971395 
L 260.262866 28.530263 
L 262.516109 28.530263 
L 262.516109 28.089132 
L 270.534325 28.089132 
L 270.534325 27.648 
L 360.8064 27.648 
L 360.8064 27.648 
" style="fill:none;stroke:#000080;stroke-linecap:square;stroke-width:1.5;"/>
   </g>
   <g id="line2d_31">
    <defs>
     <path d="M 0 6 
C 1.591219 6 3.117479 5.367802 4.242641 4.242641 
C 5.367802 3.117479 6 1.591219 6 0 
C 6 -1.591219 5.367802 -3.117479 4.242641 -4.242641 
C 3.117479 -5.367802 1.591219 -6 0 -6 
C -1.591219 -6 -3.117479 -5.367802 -4.242641 -4.242641 
C -5.367802 -3.117479 -6 -1.591219 -6 0 
C -6 1.591219 -5.367802 3.117479 -4.242641 4.242641 
C -3.117479 5.367802 -1.591219 6 0 6 
z
" id="m0e558f81e4" style="stroke:#000080;stroke-width:1.5;"/>
    </defs>
    <g>
     <use style="fill-opacity:0;stroke:#000080;stroke-width:1.5;" x="185.100196" xlink:href="#m0e558f81e4" y="178.515044"/>
     <use style="fill-opacity:0;stroke:#000080;stroke-width:1.5;" x="193.692888" xlink:href="#m0e558f81e4" y="69.555512"/>
     <use style="fill-opacity:0;stroke:#000080;stroke-width:1.5;" x="270.534325" xlink:href="#m0e558f81e4" y="28.089132"/>
     <use style="fill-opacity:0;stroke:#000080;stroke-width:1.5;" x="270.534325" xlink:href="#m0e558f81e4" y="27.648"/>
     <use style="fill-opacity:0;stroke:#000080;stroke-width:1.5;" x="360.8064" xlink:href="#m0e558f81e4" y="27.648"/>
    </g>
   </g>
   <g id="line2d_32">
    <path style="fill:none;stroke:#000080;stroke-linecap:square;stroke-width:1.5;"/>
    <g/>
   </g>
   <g id="line2d_33">
    <path clip-path="url(#p9d30c8b148)" d="M 194.539179 56.762693 
" style="fill:none;stroke:#000080;stroke-linecap:square;stroke-width:1.5;"/>
    <defs>
     <path d="M -12 12 
L 12 -12 
M -12 -12 
L 12 12 
" id="m1213bfbc04" style="stroke:#000080;"/>
    </defs>
    <g clip-path="url(#p9d30c8b148)">
     <use style="fill:#000080;stroke:#000080;" x="194.539179" xlink:href="#m1213bfbc04" y="56.762693"/>
    </g>
   </g>
   <g id="line2d_34">
    <defs>
     <path d="M 0 1.5 
C 0.397805 1.5 0.77937 1.341951 1.06066 1.06066 
C 1.341951 0.77937 1.5 0.397805 1.5 0 
C 1.5 -0.397805 1.341951 -0.77937 1.06066 -1.06066 
C 0.77937 -1.341951 0.397805 -1.5 0 -1.5 
C -0.397805 -1.5 -0.77937 -1.341951 -1.06066 -1.06066 
C -1.341951 -0.77937 -1.5 -0.397805 -1.5 0 
C -1.5 0.397805 -1.341951 0.77937 -1.06066 1.06066 
C -0.77937 1.341951 -0.397805 1.5 0 1.5 
z
" id="m134b011ce4" style="stroke:#ff00ff;"/>
    </defs>
    <g>
     <use style="fill:#ff00ff;stroke:#ff00ff;" x="253.022766" xlink:href="#m134b011ce4" y="27.648"/>
     <use style="fill:#ff00ff;stroke:#ff00ff;" x="253.022766" xlink:href="#m134b011ce4" y="27.648"/>
    </g>
   </g>
   <g id="line2d_35">
    <path d="M 159.560352 298.944 
L 159.560352 298.502868 
L 161.444664 298.502868 
L 161.444664 298.061737 
L 163.005365 298.061737 
L 163.005365 297.620605 
L 164.161708 297.620605 
L 164.161708 297.179473 
L 164.278712 297.179473 
L 164.278712 296.738341 
L 164.663551 296.738341 
L 164.663551 296.29721 
L 164.965852 296.29721 
L 164.965852 295.856078 
L 165.238758 295.856078 
L 165.238758 295.414946 
L 165.580463 295.414946 
L 165.640833 294.091551 
L 166.046296 294.091551 
L 166.046296 293.65042 
L 166.362169 293.65042 
L 166.362169 293.209288 
L 166.775248 293.209288 
L 166.775248 292.327024 
L 167.157222 292.327024 
L 167.157222 291.885893 
L 167.301245 291.885893 
L 167.38933 290.562498 
L 167.759155 290.562498 
L 167.759155 290.121366 
L 167.962699 290.121366 
L 167.962699 289.680234 
L 168.498408 289.680234 
L 168.591381 287.033444 
L 169.079624 287.033444 
L 169.119745 285.710049 
L 169.368578 285.710049 
L 169.437666 284.386654 
L 169.895083 284.386654 
L 170.00055 283.50439 
L 170.584193 283.50439 
L 170.584193 282.622127 
L 170.7503 282.622127 
L 170.777843 281.739863 
L 170.93316 281.739863 
L 170.987673 280.8576 
L 171.123269 280.8576 
L 171.150271 279.534205 
L 171.338209 279.534205 
L 171.364905 278.651941 
L 171.515469 278.651941 
L 171.550721 277.769678 
L 171.682333 277.769678 
L 171.743437 276.446283 
L 171.985891 276.446283 
L 171.985891 276.005151 
L 172.259208 276.005151 
L 172.293095 275.122888 
L 172.385971 275.122888 
L 172.385971 274.681756 
L 172.802449 274.681756 
L 172.876446 273.799493 
L 172.958324 273.799493 
L 172.958324 273.358361 
L 173.12102 273.358361 
L 173.12102 272.917229 
L 173.553396 272.917229 
L 173.624503 272.034966 
L 173.836223 272.034966 
L 173.867387 271.152702 
L 174.006991 271.152702 
L 174.037874 270.270439 
L 174.168564 270.270439 
L 174.229752 269.388176 
L 174.313562 269.388176 
L 174.366702 268.06478 
L 174.674972 268.06478 
L 174.674972 267.623649 
L 174.956244 267.623649 
L 174.985608 266.741385 
L 175.139024 266.741385 
L 175.160839 265.859122 
L 175.269534 265.859122 
L 175.269534 265.41799 
L 175.789735 265.41799 
L 175.789735 264.976859 
L 175.985509 264.976859 
L 176.068792 263.653463 
L 176.275401 263.653463 
L 176.384671 262.7712 
L 176.445858 262.7712 
L 176.445858 262.330068 
L 176.567638 262.330068 
L 176.641673 261.447805 
L 176.715418 261.447805 
L 176.715418 260.565541 
L 176.928318 260.565541 
L 176.928318 260.12441 
L 177.106097 260.12441 
L 177.106097 259.683278 
L 177.262725 259.683278 
L 177.262725 259.242146 
L 177.533725 259.242146 
L 177.533725 258.801015 
L 177.667774 258.801015 
L 177.724933 257.47762 
L 177.838732 257.47762 
L 177.838732 257.036488 
L 178.045592 257.036488 
L 178.089181 256.154224 
L 178.19462 256.154224 
L 178.256368 255.271961 
L 178.556038 255.271961 
L 178.556038 254.830829 
L 178.707112 254.830829 
L 178.707112 254.389698 
L 178.845036 254.389698 
L 178.86892 253.066302 
L 178.981956 253.066302 
L 178.981956 252.625171 
L 179.141427 252.625171 
L 179.141427 252.184039 
L 179.293724 252.184039 
L 179.299557 251.301776 
L 179.41584 251.301776 
L 179.49104 250.419512 
L 179.697731 250.419512 
L 179.697731 249.97838 
L 179.890875 249.97838 
L 179.890875 249.537249 
L 180.076462 249.537249 
L 180.154645 247.33159 
L 180.304517 247.33159 
L 180.326619 246.008195 
L 180.475132 246.008195 
L 180.513445 245.125932 
L 181.131948 245.125932 
L 181.211143 243.361405 
L 181.28476 243.361405 
L 181.28476 242.479141 
L 181.684578 242.479141 
L 181.730761 240.273483 
L 181.914364 240.273483 
L 181.914364 238.950088 
L 182.111266 238.950088 
L 182.111266 238.508956 
L 182.326001 238.508956 
L 182.385492 236.744429 
L 182.572649 236.744429 
L 182.665533 235.421034 
L 182.704506 235.421034 
L 182.704506 233.656507 
L 182.960679 233.656507 
L 182.970278 232.774244 
L 183.075545 232.774244 
L 183.18497 231.89198 
L 183.199196 231.89198 
L 183.274887 231.009717 
L 183.60714 231.009717 
L 183.676589 229.24519 
L 183.736572 229.24519 
L 183.842229 227.921795 
L 183.89712 227.921795 
L 183.997339 226.5984 
L 184.02458 226.5984 
L 184.101546 225.275005 
L 184.182699 225.275005 
L 184.250059 223.069346 
L 184.303775 223.069346 
L 184.375157 222.187083 
L 184.503852 222.187083 
L 184.578887 219.981424 
L 184.622885 219.981424 
L 184.675548 219.099161 
L 184.897734 219.099161 
L 184.997084 217.334634 
L 185.07018 217.334634 
L 185.177161 215.128976 
L 185.215526 215.128976 
L 185.215526 213.364449 
L 185.363983 213.364449 
L 185.363983 212.923317 
L 185.51966 212.923317 
L 185.532226 212.041054 
L 185.649108 212.041054 
L 185.740436 210.717659 
L 185.839564 210.717659 
L 185.839564 210.276527 
L 185.979107 210.276527 
L 186.064781 208.953132 
L 186.359601 208.953132 
L 186.375623 208.070868 
L 186.558899 208.070868 
L 186.657762 202.336156 
L 186.748259 202.336156 
L 186.8266 200.571629 
L 186.931845 200.571629 
L 187.04037 199.689366 
L 187.117506 199.689366 
L 187.117506 198.807102 
L 187.274653 198.807102 
L 187.328014 195.71918 
L 187.40019 195.71918 
L 187.460757 193.07239 
L 187.562523 193.07239 
L 187.667479 191.307863 
L 187.775571 191.307863 
L 187.868257 190.4256 
L 188.154537 190.4256 
L 188.198196 189.102205 
L 188.321349 189.102205 
L 188.393417 187.337678 
L 188.447288 187.337678 
L 188.558133 185.13202 
L 188.572389 185.13202 
L 188.572389 184.249756 
L 188.710814 184.249756 
L 188.710814 183.367493 
L 188.830667 183.367493 
L 188.925303 181.602966 
L 188.953252 181.602966 
L 189.050749 179.838439 
L 189.178813 179.838439 
L 189.288873 178.073912 
L 189.357335 178.073912 
L 189.357335 177.63278 
L 189.510469 177.63278 
L 189.608498 175.868254 
L 189.70602 175.868254 
L 189.729484 174.98599 
L 189.955912 174.98599 
L 190.045066 174.103727 
L 190.091128 174.103727 
L 190.186186 169.69241 
L 190.218854 169.69241 
L 190.290523 168.369015 
L 190.358681 168.369015 
L 190.433048 164.839961 
L 190.648021 164.839961 
L 190.724432 161.752039 
L 190.870026 161.752039 
L 190.870026 161.310907 
L 191.001982 161.310907 
L 191.10813 159.54638 
L 191.120579 159.54638 
L 191.226062 156.017327 
L 191.232248 156.017327 
L 191.306328 154.693932 
L 191.355553 154.693932 
L 191.441387 152.047141 
L 191.554214 152.047141 
L 191.557254 151.164878 
L 191.801877 151.164878 
L 191.867772 146.753561 
L 191.936417 146.753561 
L 192.019647 144.106771 
L 192.099558 144.106771 
L 192.152644 139.695454 
L 192.281782 139.695454 
L 192.392602 136.1664 
L 192.415849 136.1664 
L 192.479632 132.637346 
L 192.574902 132.637346 
L 192.597926 130.87282 
L 192.764008 130.87282 
L 192.857853 127.784898 
L 192.917329 127.784898 
L 193.021666 126.461502 
L 193.289709 126.461502 
L 193.39752 125.579239 
L 193.414051 125.579239 
L 193.512937 124.255844 
L 193.551252 124.255844 
L 193.652141 120.285659 
L 193.690174 120.285659 
L 193.720003 117.197737 
L 193.849618 117.197737 
L 193.922135 116.315473 
L 194.013058 116.315473 
L 194.111506 115.43321 
L 194.153919 115.43321 
L 194.249001 113.227551 
L 194.301617 113.227551 
L 194.395956 109.698498 
L 194.437734 109.698498 
L 194.539179 105.728312 
L 194.557329 105.728312 
L 194.572873 102.199259 
L 194.773779 102.199259 
L 194.865786 101.316995 
L 194.901445 101.316995 
L 195.010549 98.229073 
L 195.020666 98.229073 
L 195.078734 97.34681 
L 195.236879 97.34681 
L 195.296776 92.935493 
L 195.358968 92.935493 
L 195.453106 89.847571 
L 195.472865 89.847571 
L 195.485203 88.083044 
L 195.642428 88.083044 
L 195.722986 87.20078 
L 195.77893 87.20078 
L 195.88066 84.995122 
L 195.948175 84.995122 
L 196.022643 82.789463 
L 196.096818 82.789463 
L 196.096818 82.348332 
L 196.31052 82.348332 
L 196.364746 80.142673 
L 196.517152 80.142673 
L 196.608007 77.495883 
L 196.656748 77.495883 
L 196.728468 76.61362 
L 196.783807 76.61362 
L 196.783807 75.290224 
L 197.139591 75.290224 
L 197.139591 74.849093 
L 197.299317 74.849093 
L 197.299317 73.966829 
L 197.435472 73.966829 
L 197.435472 71.761171 
L 197.555185 71.761171 
L 197.634573 69.996644 
L 197.698281 69.996644 
L 197.713627 68.673249 
L 197.948815 68.673249 
L 198.030872 67.349854 
L 198.069617 67.349854 
L 198.16613 64.261932 
L 198.232331 64.261932 
L 198.232331 63.379668 
L 198.534726 63.379668 
L 198.603825 62.056273 
L 198.703881 62.056273 
L 198.782716 58.968351 
L 198.819944 58.968351 
L 198.819944 58.52722 
L 199.147662 58.52722 
L 199.147662 57.644956 
L 199.365688 57.644956 
L 199.377726 55.439298 
L 199.684113 55.439298 
L 199.756988 54.115902 
L 199.868706 54.115902 
L 199.954492 52.792507 
L 200.192249 52.792507 
L 200.198011 50.586849 
L 200.438417 50.586849 
L 200.523537 49.704585 
L 201.23101 49.704585 
L 201.312626 48.822322 
L 201.402897 48.822322 
L 201.4137 44.852137 
L 201.727873 44.852137 
L 201.727873 42.205346 
L 202.14108 42.205346 
L 202.160121 41.323083 
L 202.552185 41.323083 
L 202.552185 38.235161 
L 202.974388 38.235161 
L 202.974388 36.911766 
L 209.376238 36.911766 
L 209.376238 36.029502 
L 211.392094 36.029502 
L 211.392094 35.588371 
L 211.539781 35.588371 
L 211.541883 34.706107 
L 211.884412 34.706107 
L 211.884412 34.264976 
L 213.620657 34.264976 
L 213.620657 33.823844 
L 222.733068 33.823844 
L 222.733068 33.382712 
L 225.734567 33.382712 
L 225.792287 32.500449 
L 225.87878 32.500449 
L 225.87878 31.618185 
L 226.305381 31.618185 
L 226.305381 31.177054 
L 232.061168 31.177054 
L 232.061168 30.735922 
L 234.69547 30.735922 
L 234.76897 29.412527 
L 243.882189 29.412527 
L 243.882189 28.971395 
L 244.169022 28.971395 
L 244.169022 28.089132 
L 253.022766 28.089132 
L 253.022766 27.648 
L 360.8064 27.648 
L 360.8064 27.648 
" style="fill:none;stroke:#ff00ff;stroke-linecap:square;stroke-width:1.5;"/>
   </g>
   <g id="line2d_36">
    <defs>
     <path d="M -0 8.485281 
L 5.091169 0 
L 0 -8.485281 
L -5.091169 -0 
z
" id="maa18d3f7d6" style="stroke:#ff00ff;stroke-linejoin:miter;stroke-width:1.5;"/>
    </defs>
    <g>
     <use style="fill-opacity:0;stroke:#ff00ff;stroke-linejoin:miter;stroke-width:1.5;" x="191.801877" xlink:href="#maa18d3f7d6" y="151.164878"/>
     <use style="fill-opacity:0;stroke:#ff00ff;stroke-linejoin:miter;stroke-width:1.5;" x="253.022766" xlink:href="#maa18d3f7d6" y="28.089132"/>
     <use style="fill-opacity:0;stroke:#ff00ff;stroke-linejoin:miter;stroke-width:1.5;" x="253.022766" xlink:href="#maa18d3f7d6" y="27.648"/>
     <use style="fill-opacity:0;stroke:#ff00ff;stroke-linejoin:miter;stroke-width:1.5;" x="360.8064" xlink:href="#maa18d3f7d6" y="27.648"/>
    </g>
   </g>
   <g id="line2d_37">
    <path style="fill:none;stroke:#ff00ff;stroke-linecap:square;stroke-width:1.5;"/>
    <g/>
   </g>
   <g id="line2d_38">
    <path d="M 360.8064 27.648 
L 380.514816 293.51808 
" style="fill:none;stroke:#000080;stroke-linecap:square;stroke-width:1.5;"/>
    <g>
     <use style="fill-opacity:0;stroke:#000080;stroke-width:1.5;" x="360.8064" xlink:href="#m0e558f81e4" y="27.648"/>
     <use style="fill-opacity:0;stroke:#000080;stroke-width:1.5;" x="380.514816" xlink:href="#m0e558f81e4" y="293.51808"/>
    </g>
   </g>
   <g id="line2d_39">
    <path d="M 360.8064 27.648 
L 380.514816 33.07392 
" style="fill:none;stroke:#ff00ff;stroke-linecap:square;stroke-width:1.5;"/>
    <g>
     <use style="fill-opacity:0;stroke:#ff00ff;stroke-linejoin:miter;stroke-width:1.5;" x="360.8064" xlink:href="#maa18d3f7d6" y="27.648"/>
     <use style="fill-opacity:0;stroke:#ff00ff;stroke-linejoin:miter;stroke-width:1.5;" x="380.514816" xlink:href="#maa18d3f7d6" y="33.07392"/>
    </g>
   </g>
   <g id="line2d_40">
    <path d="M 360.8064 298.944 
L 360.8064 27.648 
" style="fill:none;stroke:#000000;stroke-linecap:square;stroke-width:1.5;"/>
   </g>
   <g id="patch_3">
    <path d="M 57.6 298.944 
L 360.8064 298.944 
" style="fill:none;stroke:#000000;stroke-linecap:square;stroke-linejoin:miter;stroke-width:0.8;"/>
   </g>
   <g id="patch_4">
    <path d="M 57.6 27.648 
L 360.8064 27.648 
" style="fill:none;stroke:#000000;stroke-linecap:square;stroke-linejoin:miter;stroke-width:0.8;"/>
   </g>
   <g id="text_13">
    <!-- al-defaul -->
    <g transform="translate(386.578944 297.381205)scale(0.14 -0.14)">
     <defs>
      <path d="M 4.890625 31.390625 
L 31.203125 31.390625 
L 31.203125 23.390625 
L 4.890625 23.390625 
z
" id="DejaVuSans-45"/>
     </defs>
     <use xlink:href="#DejaVuSans-97"/>
     <use x="61.279297" xlink:href="#DejaVuSans-108"/>
     <use x="89.0625" xlink:href="#DejaVuSans-45"/>
     <use x="125.146484" xlink:href="#DejaVuSans-100"/>
     <use x="188.623047" xlink:href="#DejaVuSans-101"/>
     <use x="250.146484" xlink:href="#DejaVuSans-102"/>
     <use x="285.351562" xlink:href="#DejaVuSans-97"/>
     <use x="346.630859" xlink:href="#DejaVuSans-117"/>
     <use x="410.009766" xlink:href="#DejaVuSans-108"/>
    </g>
   </g>
   <g id="text_14">
    <!-- al3 -->
    <g transform="translate(386.578944 36.937045)scale(0.14 -0.14)">
     <defs>
      <path d="M 40.578125 39.3125 
Q 47.65625 37.796875 51.625 33 
Q 55.609375 28.21875 55.609375 21.1875 
Q 55.609375 10.40625 48.1875 4.484375 
Q 40.765625 -1.421875 27.09375 -1.421875 
Q 22.515625 -1.421875 17.65625 -0.515625 
Q 12.796875 0.390625 7.625 2.203125 
L 7.625 11.71875 
Q 11.71875 9.328125 16.59375 8.109375 
Q 21.484375 6.890625 26.8125 6.890625 
Q 36.078125 6.890625 40.9375 10.546875 
Q 45.796875 14.203125 45.796875 21.1875 
Q 45.796875 27.640625 41.28125 31.265625 
Q 36.765625 34.90625 28.71875 34.90625 
L 20.21875 34.90625 
L 20.21875 43.015625 
L 29.109375 43.015625 
Q 36.375 43.015625 40.234375 45.921875 
Q 44.09375 48.828125 44.09375 54.296875 
Q 44.09375 59.90625 40.109375 62.90625 
Q 36.140625 65.921875 28.71875 65.921875 
Q 24.65625 65.921875 20.015625 65.03125 
Q 15.375 64.15625 9.8125 62.3125 
L 9.8125 71.09375 
Q 15.4375 72.65625 20.34375 73.4375 
Q 25.25 74.21875 29.59375 74.21875 
Q 40.828125 74.21875 47.359375 69.109375 
Q 53.90625 64.015625 53.90625 55.328125 
Q 53.90625 49.265625 50.4375 45.09375 
Q 46.96875 40.921875 40.578125 39.3125 
z
" id="DejaVuSans-51"/>
     </defs>
     <use xlink:href="#DejaVuSans-97"/>
     <use x="61.279297" xlink:href="#DejaVuSans-108"/>
     <use x="89.0625" xlink:href="#DejaVuSans-51"/>
    </g>
   </g>
   <g id="text_15">
    <!-- bbob-constrained f4, 10-D -->
    <g transform="translate(60.632064 38.111366)scale(0.102 -0.102)">
     <defs>
      <path d="M 48.6875 27.296875 
Q 48.6875 37.203125 44.609375 42.84375 
Q 40.53125 48.484375 33.40625 48.484375 
Q 26.265625 48.484375 22.1875 42.84375 
Q 18.109375 37.203125 18.109375 27.296875 
Q 18.109375 17.390625 22.1875 11.75 
Q 26.265625 6.109375 33.40625 6.109375 
Q 40.53125 6.109375 44.609375 11.75 
Q 48.6875 17.390625 48.6875 27.296875 
z
M 18.109375 46.390625 
Q 20.953125 51.265625 25.265625 53.625 
Q 29.59375 56 35.59375 56 
Q 45.5625 56 51.78125 48.09375 
Q 58.015625 40.1875 58.015625 27.296875 
Q 58.015625 14.40625 51.78125 6.484375 
Q 45.5625 -1.421875 35.59375 -1.421875 
Q 29.59375 -1.421875 25.265625 0.953125 
Q 20.953125 3.328125 18.109375 8.203125 
L 18.109375 0 
L 9.078125 0 
L 9.078125 75.984375 
L 18.109375 75.984375 
z
" id="DejaVuSans-98"/>
      <path d="M 19.671875 64.796875 
L 19.671875 8.109375 
L 31.59375 8.109375 
Q 46.6875 8.109375 53.6875 14.9375 
Q 60.6875 21.78125 60.6875 36.53125 
Q 60.6875 51.171875 53.6875 57.984375 
Q 46.6875 64.796875 31.59375 64.796875 
z
M 9.8125 72.90625 
L 30.078125 72.90625 
Q 51.265625 72.90625 61.171875 64.09375 
Q 71.09375 55.28125 71.09375 36.53125 
Q 71.09375 17.671875 61.125 8.828125 
Q 51.171875 0 30.078125 0 
L 9.8125 0 
z
" id="DejaVuSans-68"/>
     </defs>
     <use xlink:href="#DejaVuSans-98"/>
     <use x="63.476562" xlink:href="#DejaVuSans-98"/>
     <use x="126.953125" xlink:href="#DejaVuSans-111"/>
     <use x="188.134766" xlink:href="#DejaVuSans-98"/>
     <use x="251.611328" xlink:href="#DejaVuSans-45"/>
     <use x="287.695312" xlink:href="#DejaVuSans-99"/>
     <use x="342.675781" xlink:href="#DejaVuSans-111"/>
     <use x="403.857422" xlink:href="#DejaVuSans-110"/>
     <use x="467.236328" xlink:href="#DejaVuSans-115"/>
     <use x="519.335938" xlink:href="#DejaVuSans-116"/>
     <use x="558.544922" xlink:href="#DejaVuSans-114"/>
     <use x="599.658203" xlink:href="#DejaVuSans-97"/>
     <use x="660.9375" xlink:href="#DejaVuSans-105"/>
     <use x="688.720703" xlink:href="#DejaVuSans-110"/>
     <use x="752.099609" xlink:href="#DejaVuSans-101"/>
     <use x="813.623047" xlink:href="#DejaVuSans-100"/>
     <use x="877.099609" xlink:href="#DejaVuSans-32"/>
     <use x="908.886719" xlink:href="#DejaVuSans-102"/>
     <use x="944.091797" xlink:href="#DejaVuSans-52"/>
     <use x="1007.714844" xlink:href="#DejaVuSans-44"/>
     <use x="1039.501953" xlink:href="#DejaVuSans-32"/>
     <use x="1071.289062" xlink:href="#DejaVuSans-49"/>
     <use x="1134.912109" xlink:href="#DejaVuSans-48"/>
     <use x="1198.535156" xlink:href="#DejaVuSans-45"/>
     <use x="1234.619141" xlink:href="#DejaVuSans-68"/>
    </g>
    <!-- 41 targets: 100..1e-06 -->
    <g transform="translate(60.632064 49.533135)scale(0.102 -0.102)">
     <defs>
      <path d="M 11.71875 12.40625 
L 22.015625 12.40625 
L 22.015625 0 
L 11.71875 0 
z
M 11.71875 51.703125 
L 22.015625 51.703125 
L 22.015625 39.3125 
L 11.71875 39.3125 
z
" id="DejaVuSans-58"/>
     </defs>
     <use xlink:href="#DejaVuSans-52"/>
     <use x="63.623047" xlink:href="#DejaVuSans-49"/>
     <use x="127.246094" xlink:href="#DejaVuSans-32"/>
     <use x="159.033203" xlink:href="#DejaVuSans-116"/>
     <use x="198.242188" xlink:href="#DejaVuSans-97"/>
     <use x="259.521484" xlink:href="#DejaVuSans-114"/>
     <use x="298.884766" xlink:href="#DejaVuSans-103"/>
     <use x="362.361328" xlink:href="#DejaVuSans-101"/>
     <use x="423.884766" xlink:href="#DejaVuSans-116"/>
     <use x="463.09375" xlink:href="#DejaVuSans-115"/>
     <use x="515.193359" xlink:href="#DejaVuSans-58"/>
     <use x="548.884766" xlink:href="#DejaVuSans-32"/>
     <use x="580.671875" xlink:href="#DejaVuSans-49"/>
     <use x="644.294922" xlink:href="#DejaVuSans-48"/>
     <use x="707.917969" xlink:href="#DejaVuSans-48"/>
     <use x="771.541016" xlink:href="#DejaVuSans-46"/>
     <use x="803.328125" xlink:href="#DejaVuSans-46"/>
     <use x="835.115234" xlink:href="#DejaVuSans-49"/>
     <use x="898.738281" xlink:href="#DejaVuSans-101"/>
     <use x="960.261719" xlink:href="#DejaVuSans-45"/>
     <use x="996.345703" xlink:href="#DejaVuSans-48"/>
     <use x="1059.96875" xlink:href="#DejaVuSans-54"/>
    </g>
    <!-- evals = f-evals + g-evals -->
    <g transform="translate(60.632064 60.954904)scale(0.102 -0.102)">
     <defs>
      <path d="M 10.59375 45.40625 
L 73.1875 45.40625 
L 73.1875 37.203125 
L 10.59375 37.203125 
z
M 10.59375 25.484375 
L 73.1875 25.484375 
L 73.1875 17.1875 
L 10.59375 17.1875 
z
" id="DejaVuSans-61"/>
      <path d="M 46 62.703125 
L 46 35.5 
L 73.1875 35.5 
L 73.1875 27.203125 
L 46 27.203125 
L 46 0 
L 37.796875 0 
L 37.796875 27.203125 
L 10.59375 27.203125 
L 10.59375 35.5 
L 37.796875 35.5 
L 37.796875 62.703125 
z
" id="DejaVuSans-43"/>
     </defs>
     <use xlink:href="#DejaVuSans-101"/>
     <use x="61.523438" xlink:href="#DejaVuSans-118"/>
     <use x="120.703125" xlink:href="#DejaVuSans-97"/>
     <use x="181.982422" xlink:href="#DejaVuSans-108"/>
     <use x="209.765625" xlink:href="#DejaVuSans-115"/>
     <use x="261.865234" xlink:href="#DejaVuSans-32"/>
     <use x="293.652344" xlink:href="#DejaVuSans-61"/>
     <use x="377.441406" xlink:href="#DejaVuSans-32"/>
     <use x="409.228516" xlink:href="#DejaVuSans-102"/>
     <use x="438.933594" xlink:href="#DejaVuSans-45"/>
     <use x="475.017578" xlink:href="#DejaVuSans-101"/>
     <use x="536.541016" xlink:href="#DejaVuSans-118"/>
     <use x="595.720703" xlink:href="#DejaVuSans-97"/>
     <use x="657" xlink:href="#DejaVuSans-108"/>
     <use x="684.783203" xlink:href="#DejaVuSans-115"/>
     <use x="736.882812" xlink:href="#DejaVuSans-32"/>
     <use x="768.669922" xlink:href="#DejaVuSans-43"/>
     <use x="852.458984" xlink:href="#DejaVuSans-32"/>
     <use x="884.246094" xlink:href="#DejaVuSans-103"/>
     <use x="947.722656" xlink:href="#DejaVuSans-45"/>
     <use x="983.806641" xlink:href="#DejaVuSans-101"/>
     <use x="1045.330078" xlink:href="#DejaVuSans-118"/>
     <use x="1104.509766" xlink:href="#DejaVuSans-97"/>
     <use x="1165.789062" xlink:href="#DejaVuSans-108"/>
     <use x="1193.572266" xlink:href="#DejaVuSans-115"/>
    </g>
    <!-- 15 instances -->
    <g transform="translate(60.632064 72.376672)scale(0.102 -0.102)">
     <defs>
      <path d="M 10.796875 72.90625 
L 49.515625 72.90625 
L 49.515625 64.59375 
L 19.828125 64.59375 
L 19.828125 46.734375 
Q 21.96875 47.46875 24.109375 47.828125 
Q 26.265625 48.1875 28.421875 48.1875 
Q 40.625 48.1875 47.75 41.5 
Q 54.890625 34.8125 54.890625 23.390625 
Q 54.890625 11.625 47.5625 5.09375 
Q 40.234375 -1.421875 26.90625 -1.421875 
Q 22.3125 -1.421875 17.546875 -0.640625 
Q 12.796875 0.140625 7.71875 1.703125 
L 7.71875 11.625 
Q 12.109375 9.234375 16.796875 8.0625 
Q 21.484375 6.890625 26.703125 6.890625 
Q 35.15625 6.890625 40.078125 11.328125 
Q 45.015625 15.765625 45.015625 23.390625 
Q 45.015625 31 40.078125 35.4375 
Q 35.15625 39.890625 26.703125 39.890625 
Q 22.75 39.890625 18.8125 39.015625 
Q 14.890625 38.140625 10.796875 36.28125 
z
" id="DejaVuSans-53"/>
     </defs>
     <use xlink:href="#DejaVuSans-49"/>
     <use x="63.623047" xlink:href="#DejaVuSans-53"/>
     <use x="127.246094" xlink:href="#DejaVuSans-32"/>
     <use x="159.033203" xlink:href="#DejaVuSans-105"/>
     <use x="186.816406" xlink:href="#DejaVuSans-110"/>
     <use x="250.195312" xlink:href="#DejaVuSans-115"/>
     <use x="302.294922" xlink:href="#DejaVuSans-116"/>
     <use x="341.503906" xlink:href="#DejaVuSans-97"/>
     <use x="402.783203" xlink:href="#DejaVuSans-110"/>
     <use x="466.162109" xlink:href="#DejaVuSans-99"/>
     <use x="521.142578" xlink:href="#DejaVuSans-101"/>
     <use x="582.666016" xlink:href="#DejaVuSans-115"/>
    </g>
   </g>
   <g id="text_16">
    <!-- v2.6.1.9 -->
    <g style="fill:#808080;" transform="translate(188.751637 294.151352)scale(0.1 -0.1)">
     <defs>
      <path d="M 10.984375 1.515625 
L 10.984375 10.5 
Q 14.703125 8.734375 18.5 7.8125 
Q 22.3125 6.890625 25.984375 6.890625 
Q 35.75 6.890625 40.890625 13.453125 
Q 46.046875 20.015625 46.78125 33.40625 
Q 43.953125 29.203125 39.59375 26.953125 
Q 35.25 24.703125 29.984375 24.703125 
Q 19.046875 24.703125 12.671875 31.3125 
Q 6.296875 37.9375 6.296875 49.421875 
Q 6.296875 60.640625 12.9375 67.421875 
Q 19.578125 74.21875 30.609375 74.21875 
Q 43.265625 74.21875 49.921875 64.515625 
Q 56.59375 54.828125 56.59375 36.375 
Q 56.59375 19.140625 48.40625 8.859375 
Q 40.234375 -1.421875 26.421875 -1.421875 
Q 22.703125 -1.421875 18.890625 -0.6875 
Q 15.09375 0.046875 10.984375 1.515625 
z
M 30.609375 32.421875 
Q 37.25 32.421875 41.125 36.953125 
Q 45.015625 41.5 45.015625 49.421875 
Q 45.015625 57.28125 41.125 61.84375 
Q 37.25 66.40625 30.609375 66.40625 
Q 23.96875 66.40625 20.09375 61.84375 
Q 16.21875 57.28125 16.21875 49.421875 
Q 16.21875 41.5 20.09375 36.953125 
Q 23.96875 32.421875 30.609375 32.421875 
z
" id="DejaVuSans-57"/>
     </defs>
     <use xlink:href="#DejaVuSans-118"/>
     <use x="59.179688" xlink:href="#DejaVuSans-50"/>
     <use x="122.802734" xlink:href="#DejaVuSans-46"/>
     <use x="154.589844" xlink:href="#DejaVuSans-54"/>
     <use x="218.212891" xlink:href="#DejaVuSans-46"/>
     <use x="250" xlink:href="#DejaVuSans-49"/>
     <use x="313.623047" xlink:href="#DejaVuSans-46"/>
     <use x="345.410156" xlink:href="#DejaVuSans-57"/>
    </g>
   </g>
   <g id="text_17">
    <!-- 4 Sphere, m=9+int(3n/4) -->
    <g transform="translate(81.94695 21.648)scale(0.2 -0.2)">
     <defs>
      <path d="M 53.515625 70.515625 
L 53.515625 60.890625 
Q 47.90625 63.578125 42.921875 64.890625 
Q 37.9375 66.21875 33.296875 66.21875 
Q 25.25 66.21875 20.875 63.09375 
Q 16.5 59.96875 16.5 54.203125 
Q 16.5 49.359375 19.40625 46.890625 
Q 22.3125 44.4375 30.421875 42.921875 
L 36.375 41.703125 
Q 47.40625 39.59375 52.65625 34.296875 
Q 57.90625 29 57.90625 20.125 
Q 57.90625 9.515625 50.796875 4.046875 
Q 43.703125 -1.421875 29.984375 -1.421875 
Q 24.8125 -1.421875 18.96875 -0.25 
Q 13.140625 0.921875 6.890625 3.21875 
L 6.890625 13.375 
Q 12.890625 10.015625 18.65625 8.296875 
Q 24.421875 6.59375 29.984375 6.59375 
Q 38.421875 6.59375 43.015625 9.90625 
Q 47.609375 13.234375 47.609375 19.390625 
Q 47.609375 24.75 44.3125 27.78125 
Q 41.015625 30.8125 33.5 32.328125 
L 27.484375 33.5 
Q 16.453125 35.6875 11.515625 40.375 
Q 6.59375 45.0625 6.59375 53.421875 
Q 6.59375 63.09375 13.40625 68.65625 
Q 20.21875 74.21875 32.171875 74.21875 
Q 37.3125 74.21875 42.625 73.28125 
Q 47.953125 72.359375 53.515625 70.515625 
z
" id="DejaVuSans-83"/>
      <path d="M 54.890625 33.015625 
L 54.890625 0 
L 45.90625 0 
L 45.90625 32.71875 
Q 45.90625 40.484375 42.875 44.328125 
Q 39.84375 48.1875 33.796875 48.1875 
Q 26.515625 48.1875 22.3125 43.546875 
Q 18.109375 38.921875 18.109375 30.90625 
L 18.109375 0 
L 9.078125 0 
L 9.078125 75.984375 
L 18.109375 75.984375 
L 18.109375 46.1875 
Q 21.34375 51.125 25.703125 53.5625 
Q 30.078125 56 35.796875 56 
Q 45.21875 56 50.046875 50.171875 
Q 54.890625 44.34375 54.890625 33.015625 
z
" id="DejaVuSans-104"/>
     </defs>
     <use xlink:href="#DejaVuSans-52"/>
     <use x="63.623047" xlink:href="#DejaVuSans-32"/>
     <use x="95.410156" xlink:href="#DejaVuSans-83"/>
     <use x="158.886719" xlink:href="#DejaVuSans-112"/>
     <use x="222.363281" xlink:href="#DejaVuSans-104"/>
     <use x="285.742188" xlink:href="#DejaVuSans-101"/>
     <use x="347.265625" xlink:href="#DejaVuSans-114"/>
     <use x="386.128906" xlink:href="#DejaVuSans-101"/>
     <use x="447.652344" xlink:href="#DejaVuSans-44"/>
     <use x="479.439453" xlink:href="#DejaVuSans-32"/>
     <use x="511.226562" xlink:href="#DejaVuSans-109"/>
     <use x="608.638672" xlink:href="#DejaVuSans-61"/>
     <use x="692.427734" xlink:href="#DejaVuSans-57"/>
     <use x="756.050781" xlink:href="#DejaVuSans-43"/>
     <use x="839.839844" xlink:href="#DejaVuSans-105"/>
     <use x="867.623047" xlink:href="#DejaVuSans-110"/>
     <use x="931.001953" xlink:href="#DejaVuSans-116"/>
     <use x="970.210938" xlink:href="#DejaVuSans-40"/>
     <use x="1009.224609" xlink:href="#DejaVuSans-51"/>
     <use x="1072.847656" xlink:href="#DejaVuSans-110"/>
     <use x="1136.226562" xlink:href="#DejaVuSans-47"/>
     <use x="1169.917969" xlink:href="#DejaVuSans-52"/>
     <use x="1233.541016" xlink:href="#DejaVuSans-41"/>
    </g>
   </g>
  </g>
 </g>
 <defs>
  <clipPath id="p9d30c8b148">
   <rect height="271.296" width="303.2064" x="57.6" y="27.648"/>
  </clipPath>
 </defs>
</svg>
