<?xml version="1.0" encoding="utf-8" standalone="no"?>
<!DOCTYPE svg PUBLIC "-//W3C//DTD SVG 1.1//EN"
  "http://www.w3.org/Graphics/SVG/1.1/DTD/svg11.dtd">
<!-- Created with matplotlib (https://matplotlib.org/) -->
<svg height="345.6pt" version="1.1" viewBox="0 0 460.8 345.6" width="460.8pt" xmlns="http://www.w3.org/2000/svg" xmlns:xlink="http://www.w3.org/1999/xlink">
 <metadata>
  <rdf:RDF xmlns:cc="http://creativecommons.org/ns#" xmlns:dc="http://purl.org/dc/elements/1.1/" xmlns:rdf="http://www.w3.org/1999/02/22-rdf-syntax-ns#">
   <cc:Work>
    <dc:type rdf:resource="http://purl.org/dc/dcmitype/StillImage"/>
    <dc:date>2022-02-09T11:09:33.333389</dc:date>
    <dc:format>image/svg+xml</dc:format>
    <dc:creator>
     <cc:Agent>
      <dc:title>Matplotlib v3.3.3, https://matplotlib.org/</dc:title>
     </cc:Agent>
    </dc:creator>
   </cc:Work>
  </rdf:RDF>
 </metadata>
 <defs>
  <style type="text/css">*{stroke-linecap:butt;stroke-linejoin:round;}</style>
 </defs>
 <g id="figure_1">
  <g id="patch_1">
   <path d="M 0 345.6 
L 460.8 345.6 
L 460.8 0 
L 0 0 
z
" style="fill:#ffffff;"/>
  </g>
  <g id="axes_1">
   <g id="patch_2">
    <path d="M 62.208 293.76 
L 460.8 293.76 
L 460.8 3.456 
L 62.208 3.456 
z
" style="fill:#ffffff;"/>
   </g>
   <g id="matplotlib.axis_1">
    <g id="xtick_1">
     <g id="line2d_1">
      <path clip-path="url(#p7007ecd5ba)" d="M 62.208 293.76 
L 62.208 3.456 
" style="fill:none;stroke:#b0b0b0;stroke-linecap:square;stroke-width:0.8;"/>
     </g>
     <g id="line2d_2">
      <defs>
       <path d="M 0 0 
L 0 3.5 
" id="m5c27e10d76" style="stroke:#000000;stroke-width:0.8;"/>
      </defs>
      <g>
       <use style="stroke:#000000;stroke-width:0.8;" x="62.208" xlink:href="#m5c27e10d76" y="293.76"/>
      </g>
     </g>
     <g id="text_1">
      <!-- 0 -->
      <g transform="translate(55.8455 315.956875)scale(0.2 -0.2)">
       <defs>
        <path d="M 31.78125 66.40625 
Q 24.171875 66.40625 20.328125 58.90625 
Q 16.5 51.421875 16.5 36.375 
Q 16.5 21.390625 20.328125 13.890625 
Q 24.171875 6.390625 31.78125 6.390625 
Q 39.453125 6.390625 43.28125 13.890625 
Q 47.125 21.390625 47.125 36.375 
Q 47.125 51.421875 43.28125 58.90625 
Q 39.453125 66.40625 31.78125 66.40625 
z
M 31.78125 74.21875 
Q 44.046875 74.21875 50.515625 64.515625 
Q 56.984375 54.828125 56.984375 36.375 
Q 56.984375 17.96875 50.515625 8.265625 
Q 44.046875 -1.421875 31.78125 -1.421875 
Q 19.53125 -1.421875 13.0625 8.265625 
Q 6.59375 17.96875 6.59375 36.375 
Q 6.59375 54.828125 13.0625 64.515625 
Q 19.53125 74.21875 31.78125 74.21875 
z
" id="DejaVuSans-48"/>
       </defs>
       <use xlink:href="#DejaVuSans-48"/>
      </g>
     </g>
    </g>
    <g id="xtick_2">
     <g id="line2d_3">
      <path clip-path="url(#p7007ecd5ba)" d="M 161.971757 293.76 
L 161.971757 3.456 
" style="fill:none;stroke:#b0b0b0;stroke-linecap:square;stroke-width:0.8;"/>
     </g>
     <g id="line2d_4">
      <g>
       <use style="stroke:#000000;stroke-width:0.8;" x="161.971757" xlink:href="#m5c27e10d76" y="293.76"/>
      </g>
     </g>
     <g id="text_2">
      <!-- 1 -->
      <g transform="translate(155.609257 315.956875)scale(0.2 -0.2)">
       <defs>
        <path d="M 12.40625 8.296875 
L 28.515625 8.296875 
L 28.515625 63.921875 
L 10.984375 60.40625 
L 10.984375 69.390625 
L 28.421875 72.90625 
L 38.28125 72.90625 
L 38.28125 8.296875 
L 54.390625 8.296875 
L 54.390625 0 
L 12.40625 0 
z
" id="DejaVuSans-49"/>
       </defs>
       <use xlink:href="#DejaVuSans-49"/>
      </g>
     </g>
    </g>
    <g id="xtick_3">
     <g id="line2d_5">
      <path clip-path="url(#p7007ecd5ba)" d="M 261.735515 293.76 
L 261.735515 3.456 
" style="fill:none;stroke:#b0b0b0;stroke-linecap:square;stroke-width:0.8;"/>
     </g>
     <g id="line2d_6">
      <g>
       <use style="stroke:#000000;stroke-width:0.8;" x="261.735515" xlink:href="#m5c27e10d76" y="293.76"/>
      </g>
     </g>
     <g id="text_3">
      <!-- 2 -->
      <g transform="translate(255.373015 315.956875)scale(0.2 -0.2)">
       <defs>
        <path d="M 19.1875 8.296875 
L 53.609375 8.296875 
L 53.609375 0 
L 7.328125 0 
L 7.328125 8.296875 
Q 12.9375 14.109375 22.625 23.890625 
Q 32.328125 33.6875 34.8125 36.53125 
Q 39.546875 41.84375 41.421875 45.53125 
Q 43.3125 49.21875 43.3125 52.78125 
Q 43.3125 58.59375 39.234375 62.25 
Q 35.15625 65.921875 28.609375 65.921875 
Q 23.96875 65.921875 18.8125 64.3125 
Q 13.671875 62.703125 7.8125 59.421875 
L 7.8125 69.390625 
Q 13.765625 71.78125 18.9375 73 
Q 24.125 74.21875 28.421875 74.21875 
Q 39.75 74.21875 46.484375 68.546875 
Q 53.21875 62.890625 53.21875 53.421875 
Q 53.21875 48.921875 51.53125 44.890625 
Q 49.859375 40.875 45.40625 35.40625 
Q 44.1875 33.984375 37.640625 27.21875 
Q 31.109375 20.453125 19.1875 8.296875 
z
" id="DejaVuSans-50"/>
       </defs>
       <use xlink:href="#DejaVuSans-50"/>
      </g>
     </g>
    </g>
    <g id="xtick_4">
     <g id="line2d_7">
      <path clip-path="url(#p7007ecd5ba)" d="M 361.499272 293.76 
L 361.499272 3.456 
" style="fill:none;stroke:#b0b0b0;stroke-linecap:square;stroke-width:0.8;"/>
     </g>
     <g id="line2d_8">
      <g>
       <use style="stroke:#000000;stroke-width:0.8;" x="361.499272" xlink:href="#m5c27e10d76" y="293.76"/>
      </g>
     </g>
     <g id="text_4">
      <!-- 3 -->
      <g transform="translate(355.136772 315.956875)scale(0.2 -0.2)">
       <defs>
        <path d="M 40.578125 39.3125 
Q 47.65625 37.796875 51.625 33 
Q 55.609375 28.21875 55.609375 21.1875 
Q 55.609375 10.40625 48.1875 4.484375 
Q 40.765625 -1.421875 27.09375 -1.421875 
Q 22.515625 -1.421875 17.65625 -0.515625 
Q 12.796875 0.390625 7.625 2.203125 
L 7.625 11.71875 
Q 11.71875 9.328125 16.59375 8.109375 
Q 21.484375 6.890625 26.8125 6.890625 
Q 36.078125 6.890625 40.9375 10.546875 
Q 45.796875 14.203125 45.796875 21.1875 
Q 45.796875 27.640625 41.28125 31.265625 
Q 36.765625 34.90625 28.71875 34.90625 
L 20.21875 34.90625 
L 20.21875 43.015625 
L 29.109375 43.015625 
Q 36.375 43.015625 40.234375 45.921875 
Q 44.09375 48.828125 44.09375 54.296875 
Q 44.09375 59.90625 40.109375 62.90625 
Q 36.140625 65.921875 28.71875 65.921875 
Q 24.65625 65.921875 20.015625 65.03125 
Q 15.375 64.15625 9.8125 62.3125 
L 9.8125 71.09375 
Q 15.4375 72.65625 20.34375 73.4375 
Q 25.25 74.21875 29.59375 74.21875 
Q 40.828125 74.21875 47.359375 69.109375 
Q 53.90625 64.015625 53.90625 55.328125 
Q 53.90625 49.265625 50.4375 45.09375 
Q 46.96875 40.921875 40.578125 39.3125 
z
" id="DejaVuSans-51"/>
       </defs>
       <use xlink:href="#DejaVuSans-51"/>
      </g>
     </g>
    </g>
    <g id="xtick_5">
     <g id="line2d_9">
      <path clip-path="url(#p7007ecd5ba)" d="M 92.239883 293.76 
L 92.239883 3.456 
" style="fill:none;stroke:#b0b0b0;stroke-linecap:square;stroke-width:0.8;"/>
     </g>
     <g id="line2d_10">
      <defs>
       <path d="M 0 0 
L 0 2 
" id="m9048d2fae8" style="stroke:#000000;stroke-width:0.6;"/>
      </defs>
      <g>
       <use style="stroke:#000000;stroke-width:0.6;" x="92.239883" xlink:href="#m9048d2fae8" y="293.76"/>
      </g>
     </g>
    </g>
    <g id="xtick_6">
     <g id="line2d_11">
      <path clip-path="url(#p7007ecd5ba)" d="M 109.807409 293.76 
L 109.807409 3.456 
" style="fill:none;stroke:#b0b0b0;stroke-linecap:square;stroke-width:0.8;"/>
     </g>
     <g id="line2d_12">
      <g>
       <use style="stroke:#000000;stroke-width:0.6;" x="109.807409" xlink:href="#m9048d2fae8" y="293.76"/>
      </g>
     </g>
    </g>
    <g id="xtick_7">
     <g id="line2d_13">
      <path clip-path="url(#p7007ecd5ba)" d="M 122.271767 293.76 
L 122.271767 3.456 
" style="fill:none;stroke:#b0b0b0;stroke-linecap:square;stroke-width:0.8;"/>
     </g>
     <g id="line2d_14">
      <g>
       <use style="stroke:#000000;stroke-width:0.6;" x="122.271767" xlink:href="#m9048d2fae8" y="293.76"/>
      </g>
     </g>
    </g>
    <g id="xtick_8">
     <g id="line2d_15">
      <path clip-path="url(#p7007ecd5ba)" d="M 131.939874 293.76 
L 131.939874 3.456 
" style="fill:none;stroke:#b0b0b0;stroke-linecap:square;stroke-width:0.8;"/>
     </g>
     <g id="line2d_16">
      <g>
       <use style="stroke:#000000;stroke-width:0.6;" x="131.939874" xlink:href="#m9048d2fae8" y="293.76"/>
      </g>
     </g>
    </g>
    <g id="xtick_9">
     <g id="line2d_17">
      <path clip-path="url(#p7007ecd5ba)" d="M 139.839293 293.76 
L 139.839293 3.456 
" style="fill:none;stroke:#b0b0b0;stroke-linecap:square;stroke-width:0.8;"/>
     </g>
     <g id="line2d_18">
      <g>
       <use style="stroke:#000000;stroke-width:0.6;" x="139.839293" xlink:href="#m9048d2fae8" y="293.76"/>
      </g>
     </g>
    </g>
    <g id="xtick_10">
     <g id="line2d_19">
      <path clip-path="url(#p7007ecd5ba)" d="M 146.518156 293.76 
L 146.518156 3.456 
" style="fill:none;stroke:#b0b0b0;stroke-linecap:square;stroke-width:0.8;"/>
     </g>
     <g id="line2d_20">
      <g>
       <use style="stroke:#000000;stroke-width:0.6;" x="146.518156" xlink:href="#m9048d2fae8" y="293.76"/>
      </g>
     </g>
    </g>
    <g id="xtick_11">
     <g id="line2d_21">
      <path clip-path="url(#p7007ecd5ba)" d="M 152.30365 293.76 
L 152.30365 3.456 
" style="fill:none;stroke:#b0b0b0;stroke-linecap:square;stroke-width:0.8;"/>
     </g>
     <g id="line2d_22">
      <g>
       <use style="stroke:#000000;stroke-width:0.6;" x="152.30365" xlink:href="#m9048d2fae8" y="293.76"/>
      </g>
     </g>
    </g>
    <g id="xtick_12">
     <g id="line2d_23">
      <path clip-path="url(#p7007ecd5ba)" d="M 157.406818 293.76 
L 157.406818 3.456 
" style="fill:none;stroke:#b0b0b0;stroke-linecap:square;stroke-width:0.8;"/>
     </g>
     <g id="line2d_24">
      <g>
       <use style="stroke:#000000;stroke-width:0.6;" x="157.406818" xlink:href="#m9048d2fae8" y="293.76"/>
      </g>
     </g>
    </g>
    <g id="xtick_13">
     <g id="line2d_25">
      <path clip-path="url(#p7007ecd5ba)" d="M 192.003641 293.76 
L 192.003641 3.456 
" style="fill:none;stroke:#b0b0b0;stroke-linecap:square;stroke-width:0.8;"/>
     </g>
     <g id="line2d_26">
      <g>
       <use style="stroke:#000000;stroke-width:0.6;" x="192.003641" xlink:href="#m9048d2fae8" y="293.76"/>
      </g>
     </g>
    </g>
    <g id="xtick_14">
     <g id="line2d_27">
      <path clip-path="url(#p7007ecd5ba)" d="M 209.571167 293.76 
L 209.571167 3.456 
" style="fill:none;stroke:#b0b0b0;stroke-linecap:square;stroke-width:0.8;"/>
     </g>
     <g id="line2d_28">
      <g>
       <use style="stroke:#000000;stroke-width:0.6;" x="209.571167" xlink:href="#m9048d2fae8" y="293.76"/>
      </g>
     </g>
    </g>
    <g id="xtick_15">
     <g id="line2d_29">
      <path clip-path="url(#p7007ecd5ba)" d="M 222.035524 293.76 
L 222.035524 3.456 
" style="fill:none;stroke:#b0b0b0;stroke-linecap:square;stroke-width:0.8;"/>
     </g>
     <g id="line2d_30">
      <g>
       <use style="stroke:#000000;stroke-width:0.6;" x="222.035524" xlink:href="#m9048d2fae8" y="293.76"/>
      </g>
     </g>
    </g>
    <g id="xtick_16">
     <g id="line2d_31">
      <path clip-path="url(#p7007ecd5ba)" d="M 231.703631 293.76 
L 231.703631 3.456 
" style="fill:none;stroke:#b0b0b0;stroke-linecap:square;stroke-width:0.8;"/>
     </g>
     <g id="line2d_32">
      <g>
       <use style="stroke:#000000;stroke-width:0.6;" x="231.703631" xlink:href="#m9048d2fae8" y="293.76"/>
      </g>
     </g>
    </g>
    <g id="xtick_17">
     <g id="line2d_33">
      <path clip-path="url(#p7007ecd5ba)" d="M 239.60305 293.76 
L 239.60305 3.456 
" style="fill:none;stroke:#b0b0b0;stroke-linecap:square;stroke-width:0.8;"/>
     </g>
     <g id="line2d_34">
      <g>
       <use style="stroke:#000000;stroke-width:0.6;" x="239.60305" xlink:href="#m9048d2fae8" y="293.76"/>
      </g>
     </g>
    </g>
    <g id="xtick_18">
     <g id="line2d_35">
      <path clip-path="url(#p7007ecd5ba)" d="M 246.281913 293.76 
L 246.281913 3.456 
" style="fill:none;stroke:#b0b0b0;stroke-linecap:square;stroke-width:0.8;"/>
     </g>
     <g id="line2d_36">
      <g>
       <use style="stroke:#000000;stroke-width:0.6;" x="246.281913" xlink:href="#m9048d2fae8" y="293.76"/>
      </g>
     </g>
    </g>
    <g id="xtick_19">
     <g id="line2d_37">
      <path clip-path="url(#p7007ecd5ba)" d="M 252.067408 293.76 
L 252.067408 3.456 
" style="fill:none;stroke:#b0b0b0;stroke-linecap:square;stroke-width:0.8;"/>
     </g>
     <g id="line2d_38">
      <g>
       <use style="stroke:#000000;stroke-width:0.6;" x="252.067408" xlink:href="#m9048d2fae8" y="293.76"/>
      </g>
     </g>
    </g>
    <g id="xtick_20">
     <g id="line2d_39">
      <path clip-path="url(#p7007ecd5ba)" d="M 257.170576 293.76 
L 257.170576 3.456 
" style="fill:none;stroke:#b0b0b0;stroke-linecap:square;stroke-width:0.8;"/>
     </g>
     <g id="line2d_40">
      <g>
       <use style="stroke:#000000;stroke-width:0.6;" x="257.170576" xlink:href="#m9048d2fae8" y="293.76"/>
      </g>
     </g>
    </g>
    <g id="xtick_21">
     <g id="line2d_41">
      <path clip-path="url(#p7007ecd5ba)" d="M 291.767398 293.76 
L 291.767398 3.456 
" style="fill:none;stroke:#b0b0b0;stroke-linecap:square;stroke-width:0.8;"/>
     </g>
     <g id="line2d_42">
      <g>
       <use style="stroke:#000000;stroke-width:0.6;" x="291.767398" xlink:href="#m9048d2fae8" y="293.76"/>
      </g>
     </g>
    </g>
    <g id="xtick_22">
     <g id="line2d_43">
      <path clip-path="url(#p7007ecd5ba)" d="M 309.334924 293.76 
L 309.334924 3.456 
" style="fill:none;stroke:#b0b0b0;stroke-linecap:square;stroke-width:0.8;"/>
     </g>
     <g id="line2d_44">
      <g>
       <use style="stroke:#000000;stroke-width:0.6;" x="309.334924" xlink:href="#m9048d2fae8" y="293.76"/>
      </g>
     </g>
    </g>
    <g id="xtick_23">
     <g id="line2d_45">
      <path clip-path="url(#p7007ecd5ba)" d="M 321.799282 293.76 
L 321.799282 3.456 
" style="fill:none;stroke:#b0b0b0;stroke-linecap:square;stroke-width:0.8;"/>
     </g>
     <g id="line2d_46">
      <g>
       <use style="stroke:#000000;stroke-width:0.6;" x="321.799282" xlink:href="#m9048d2fae8" y="293.76"/>
      </g>
     </g>
    </g>
    <g id="xtick_24">
     <g id="line2d_47">
      <path clip-path="url(#p7007ecd5ba)" d="M 331.467389 293.76 
L 331.467389 3.456 
" style="fill:none;stroke:#b0b0b0;stroke-linecap:square;stroke-width:0.8;"/>
     </g>
     <g id="line2d_48">
      <g>
       <use style="stroke:#000000;stroke-width:0.6;" x="331.467389" xlink:href="#m9048d2fae8" y="293.76"/>
      </g>
     </g>
    </g>
    <g id="xtick_25">
     <g id="line2d_49">
      <path clip-path="url(#p7007ecd5ba)" d="M 339.366807 293.76 
L 339.366807 3.456 
" style="fill:none;stroke:#b0b0b0;stroke-linecap:square;stroke-width:0.8;"/>
     </g>
     <g id="line2d_50">
      <g>
       <use style="stroke:#000000;stroke-width:0.6;" x="339.366807" xlink:href="#m9048d2fae8" y="293.76"/>
      </g>
     </g>
    </g>
    <g id="xtick_26">
     <g id="line2d_51">
      <path clip-path="url(#p7007ecd5ba)" d="M 346.045671 293.76 
L 346.045671 3.456 
" style="fill:none;stroke:#b0b0b0;stroke-linecap:square;stroke-width:0.8;"/>
     </g>
     <g id="line2d_52">
      <g>
       <use style="stroke:#000000;stroke-width:0.6;" x="346.045671" xlink:href="#m9048d2fae8" y="293.76"/>
      </g>
     </g>
    </g>
    <g id="xtick_27">
     <g id="line2d_53">
      <path clip-path="url(#p7007ecd5ba)" d="M 351.831165 293.76 
L 351.831165 3.456 
" style="fill:none;stroke:#b0b0b0;stroke-linecap:square;stroke-width:0.8;"/>
     </g>
     <g id="line2d_54">
      <g>
       <use style="stroke:#000000;stroke-width:0.6;" x="351.831165" xlink:href="#m9048d2fae8" y="293.76"/>
      </g>
     </g>
    </g>
    <g id="xtick_28">
     <g id="line2d_55">
      <path clip-path="url(#p7007ecd5ba)" d="M 356.934333 293.76 
L 356.934333 3.456 
" style="fill:none;stroke:#b0b0b0;stroke-linecap:square;stroke-width:0.8;"/>
     </g>
     <g id="line2d_56">
      <g>
       <use style="stroke:#000000;stroke-width:0.6;" x="356.934333" xlink:href="#m9048d2fae8" y="293.76"/>
      </g>
     </g>
    </g>
    <g id="xtick_29">
     <g id="line2d_57">
      <path clip-path="url(#p7007ecd5ba)" d="M 391.531156 293.76 
L 391.531156 3.456 
" style="fill:none;stroke:#b0b0b0;stroke-linecap:square;stroke-width:0.8;"/>
     </g>
     <g id="line2d_58">
      <g>
       <use style="stroke:#000000;stroke-width:0.6;" x="391.531156" xlink:href="#m9048d2fae8" y="293.76"/>
      </g>
     </g>
    </g>
    <g id="xtick_30">
     <g id="line2d_59">
      <path clip-path="url(#p7007ecd5ba)" d="M 409.098681 293.76 
L 409.098681 3.456 
" style="fill:none;stroke:#b0b0b0;stroke-linecap:square;stroke-width:0.8;"/>
     </g>
     <g id="line2d_60">
      <g>
       <use style="stroke:#000000;stroke-width:0.6;" x="409.098681" xlink:href="#m9048d2fae8" y="293.76"/>
      </g>
     </g>
    </g>
    <g id="xtick_31">
     <g id="line2d_61">
      <path clip-path="url(#p7007ecd5ba)" d="M 421.563039 293.76 
L 421.563039 3.456 
" style="fill:none;stroke:#b0b0b0;stroke-linecap:square;stroke-width:0.8;"/>
     </g>
     <g id="line2d_62">
      <g>
       <use style="stroke:#000000;stroke-width:0.6;" x="421.563039" xlink:href="#m9048d2fae8" y="293.76"/>
      </g>
     </g>
    </g>
    <g id="xtick_32">
     <g id="line2d_63">
      <path clip-path="url(#p7007ecd5ba)" d="M 431.231146 293.76 
L 431.231146 3.456 
" style="fill:none;stroke:#b0b0b0;stroke-linecap:square;stroke-width:0.8;"/>
     </g>
     <g id="line2d_64">
      <g>
       <use style="stroke:#000000;stroke-width:0.6;" x="431.231146" xlink:href="#m9048d2fae8" y="293.76"/>
      </g>
     </g>
    </g>
    <g id="xtick_33">
     <g id="line2d_65">
      <path clip-path="url(#p7007ecd5ba)" d="M 439.130565 293.76 
L 439.130565 3.456 
" style="fill:none;stroke:#b0b0b0;stroke-linecap:square;stroke-width:0.8;"/>
     </g>
     <g id="line2d_66">
      <g>
       <use style="stroke:#000000;stroke-width:0.6;" x="439.130565" xlink:href="#m9048d2fae8" y="293.76"/>
      </g>
     </g>
    </g>
    <g id="xtick_34">
     <g id="line2d_67">
      <path clip-path="url(#p7007ecd5ba)" d="M 445.809428 293.76 
L 445.809428 3.456 
" style="fill:none;stroke:#b0b0b0;stroke-linecap:square;stroke-width:0.8;"/>
     </g>
     <g id="line2d_68">
      <g>
       <use style="stroke:#000000;stroke-width:0.6;" x="445.809428" xlink:href="#m9048d2fae8" y="293.76"/>
      </g>
     </g>
    </g>
    <g id="xtick_35">
     <g id="line2d_69">
      <path clip-path="url(#p7007ecd5ba)" d="M 451.594923 293.76 
L 451.594923 3.456 
" style="fill:none;stroke:#b0b0b0;stroke-linecap:square;stroke-width:0.8;"/>
     </g>
     <g id="line2d_70">
      <g>
       <use style="stroke:#000000;stroke-width:0.6;" x="451.594923" xlink:href="#m9048d2fae8" y="293.76"/>
      </g>
     </g>
    </g>
    <g id="xtick_36">
     <g id="line2d_71">
      <path clip-path="url(#p7007ecd5ba)" d="M 456.698091 293.76 
L 456.698091 3.456 
" style="fill:none;stroke:#b0b0b0;stroke-linecap:square;stroke-width:0.8;"/>
     </g>
     <g id="line2d_72">
      <g>
       <use style="stroke:#000000;stroke-width:0.6;" x="456.698091" xlink:href="#m9048d2fae8" y="293.76"/>
      </g>
     </g>
    </g>
    <g id="text_5">
     <!-- log10 of evals / DIM -->
     <g transform="translate(162.34775 339.313125)scale(0.2 -0.2)">
      <defs>
       <path d="M 9.421875 75.984375 
L 18.40625 75.984375 
L 18.40625 0 
L 9.421875 0 
z
" id="DejaVuSans-108"/>
       <path d="M 30.609375 48.390625 
Q 23.390625 48.390625 19.1875 42.75 
Q 14.984375 37.109375 14.984375 27.296875 
Q 14.984375 17.484375 19.15625 11.84375 
Q 23.34375 6.203125 30.609375 6.203125 
Q 37.796875 6.203125 41.984375 11.859375 
Q 46.1875 17.53125 46.1875 27.296875 
Q 46.1875 37.015625 41.984375 42.703125 
Q 37.796875 48.390625 30.609375 48.390625 
z
M 30.609375 56 
Q 42.328125 56 49.015625 48.375 
Q 55.71875 40.765625 55.71875 27.296875 
Q 55.71875 13.875 49.015625 6.21875 
Q 42.328125 -1.421875 30.609375 -1.421875 
Q 18.84375 -1.421875 12.171875 6.21875 
Q 5.515625 13.875 5.515625 27.296875 
Q 5.515625 40.765625 12.171875 48.375 
Q 18.84375 56 30.609375 56 
z
" id="DejaVuSans-111"/>
       <path d="M 45.40625 27.984375 
Q 45.40625 37.75 41.375 43.109375 
Q 37.359375 48.484375 30.078125 48.484375 
Q 22.859375 48.484375 18.828125 43.109375 
Q 14.796875 37.75 14.796875 27.984375 
Q 14.796875 18.265625 18.828125 12.890625 
Q 22.859375 7.515625 30.078125 7.515625 
Q 37.359375 7.515625 41.375 12.890625 
Q 45.40625 18.265625 45.40625 27.984375 
z
M 54.390625 6.78125 
Q 54.390625 -7.171875 48.1875 -13.984375 
Q 42 -20.796875 29.203125 -20.796875 
Q 24.46875 -20.796875 20.265625 -20.09375 
Q 16.0625 -19.390625 12.109375 -17.921875 
L 12.109375 -9.1875 
Q 16.0625 -11.328125 19.921875 -12.34375 
Q 23.78125 -13.375 27.78125 -13.375 
Q 36.625 -13.375 41.015625 -8.765625 
Q 45.40625 -4.15625 45.40625 5.171875 
L 45.40625 9.625 
Q 42.625 4.78125 38.28125 2.390625 
Q 33.9375 0 27.875 0 
Q 17.828125 0 11.671875 7.65625 
Q 5.515625 15.328125 5.515625 27.984375 
Q 5.515625 40.671875 11.671875 48.328125 
Q 17.828125 56 27.875 56 
Q 33.9375 56 38.28125 53.609375 
Q 42.625 51.21875 45.40625 46.390625 
L 45.40625 54.6875 
L 54.390625 54.6875 
z
" id="DejaVuSans-103"/>
       <path id="DejaVuSans-32"/>
       <path d="M 37.109375 75.984375 
L 37.109375 68.5 
L 28.515625 68.5 
Q 23.6875 68.5 21.796875 66.546875 
Q 19.921875 64.59375 19.921875 59.515625 
L 19.921875 54.6875 
L 34.71875 54.6875 
L 34.71875 47.703125 
L 19.921875 47.703125 
L 19.921875 0 
L 10.890625 0 
L 10.890625 47.703125 
L 2.296875 47.703125 
L 2.296875 54.6875 
L 10.890625 54.6875 
L 10.890625 58.5 
Q 10.890625 67.625 15.140625 71.796875 
Q 19.390625 75.984375 28.609375 75.984375 
z
" id="DejaVuSans-102"/>
       <path d="M 56.203125 29.59375 
L 56.203125 25.203125 
L 14.890625 25.203125 
Q 15.484375 15.921875 20.484375 11.0625 
Q 25.484375 6.203125 34.421875 6.203125 
Q 39.59375 6.203125 44.453125 7.46875 
Q 49.3125 8.734375 54.109375 11.28125 
L 54.109375 2.78125 
Q 49.265625 0.734375 44.1875 -0.34375 
Q 39.109375 -1.421875 33.890625 -1.421875 
Q 20.796875 -1.421875 13.15625 6.1875 
Q 5.515625 13.8125 5.515625 26.8125 
Q 5.515625 40.234375 12.765625 48.109375 
Q 20.015625 56 32.328125 56 
Q 43.359375 56 49.78125 48.890625 
Q 56.203125 41.796875 56.203125 29.59375 
z
M 47.21875 32.234375 
Q 47.125 39.59375 43.09375 43.984375 
Q 39.0625 48.390625 32.421875 48.390625 
Q 24.90625 48.390625 20.390625 44.140625 
Q 15.875 39.890625 15.1875 32.171875 
z
" id="DejaVuSans-101"/>
       <path d="M 2.984375 54.6875 
L 12.5 54.6875 
L 29.59375 8.796875 
L 46.6875 54.6875 
L 56.203125 54.6875 
L 35.6875 0 
L 23.484375 0 
z
" id="DejaVuSans-118"/>
       <path d="M 34.28125 27.484375 
Q 23.390625 27.484375 19.1875 25 
Q 14.984375 22.515625 14.984375 16.5 
Q 14.984375 11.71875 18.140625 8.90625 
Q 21.296875 6.109375 26.703125 6.109375 
Q 34.1875 6.109375 38.703125 11.40625 
Q 43.21875 16.703125 43.21875 25.484375 
L 43.21875 27.484375 
z
M 52.203125 31.203125 
L 52.203125 0 
L 43.21875 0 
L 43.21875 8.296875 
Q 40.140625 3.328125 35.546875 0.953125 
Q 30.953125 -1.421875 24.3125 -1.421875 
Q 15.921875 -1.421875 10.953125 3.296875 
Q 6 8.015625 6 15.921875 
Q 6 25.140625 12.171875 29.828125 
Q 18.359375 34.515625 30.609375 34.515625 
L 43.21875 34.515625 
L 43.21875 35.40625 
Q 43.21875 41.609375 39.140625 45 
Q 35.0625 48.390625 27.6875 48.390625 
Q 23 48.390625 18.546875 47.265625 
Q 14.109375 46.140625 10.015625 43.890625 
L 10.015625 52.203125 
Q 14.9375 54.109375 19.578125 55.046875 
Q 24.21875 56 28.609375 56 
Q 40.484375 56 46.34375 49.84375 
Q 52.203125 43.703125 52.203125 31.203125 
z
" id="DejaVuSans-97"/>
       <path d="M 44.28125 53.078125 
L 44.28125 44.578125 
Q 40.484375 46.53125 36.375 47.5 
Q 32.28125 48.484375 27.875 48.484375 
Q 21.1875 48.484375 17.84375 46.4375 
Q 14.5 44.390625 14.5 40.28125 
Q 14.5 37.15625 16.890625 35.375 
Q 19.28125 33.59375 26.515625 31.984375 
L 29.59375 31.296875 
Q 39.15625 29.25 43.1875 25.515625 
Q 47.21875 21.78125 47.21875 15.09375 
Q 47.21875 7.46875 41.1875 3.015625 
Q 35.15625 -1.421875 24.609375 -1.421875 
Q 20.21875 -1.421875 15.453125 -0.5625 
Q 10.6875 0.296875 5.421875 2 
L 5.421875 11.28125 
Q 10.40625 8.6875 15.234375 7.390625 
Q 20.0625 6.109375 24.8125 6.109375 
Q 31.15625 6.109375 34.5625 8.28125 
Q 37.984375 10.453125 37.984375 14.40625 
Q 37.984375 18.0625 35.515625 20.015625 
Q 33.0625 21.96875 24.703125 23.78125 
L 21.578125 24.515625 
Q 13.234375 26.265625 9.515625 29.90625 
Q 5.8125 33.546875 5.8125 39.890625 
Q 5.8125 47.609375 11.28125 51.796875 
Q 16.75 56 26.8125 56 
Q 31.78125 56 36.171875 55.265625 
Q 40.578125 54.546875 44.28125 53.078125 
z
" id="DejaVuSans-115"/>
       <path d="M 25.390625 72.90625 
L 33.6875 72.90625 
L 8.296875 -9.28125 
L 0 -9.28125 
z
" id="DejaVuSans-47"/>
       <path d="M 19.671875 64.796875 
L 19.671875 8.109375 
L 31.59375 8.109375 
Q 46.6875 8.109375 53.6875 14.9375 
Q 60.6875 21.78125 60.6875 36.53125 
Q 60.6875 51.171875 53.6875 57.984375 
Q 46.6875 64.796875 31.59375 64.796875 
z
M 9.8125 72.90625 
L 30.078125 72.90625 
Q 51.265625 72.90625 61.171875 64.09375 
Q 71.09375 55.28125 71.09375 36.53125 
Q 71.09375 17.671875 61.125 8.828125 
Q 51.171875 0 30.078125 0 
L 9.8125 0 
z
" id="DejaVuSans-68"/>
       <path d="M 9.8125 72.90625 
L 19.671875 72.90625 
L 19.671875 0 
L 9.8125 0 
z
" id="DejaVuSans-73"/>
       <path d="M 9.8125 72.90625 
L 24.515625 72.90625 
L 43.109375 23.296875 
L 61.8125 72.90625 
L 76.515625 72.90625 
L 76.515625 0 
L 66.890625 0 
L 66.890625 64.015625 
L 48.09375 14.015625 
L 38.1875 14.015625 
L 19.390625 64.015625 
L 19.390625 0 
L 9.8125 0 
z
" id="DejaVuSans-77"/>
      </defs>
      <use xlink:href="#DejaVuSans-108"/>
      <use x="27.783203" xlink:href="#DejaVuSans-111"/>
      <use x="88.964844" xlink:href="#DejaVuSans-103"/>
      <use x="152.441406" xlink:href="#DejaVuSans-49"/>
      <use x="216.064453" xlink:href="#DejaVuSans-48"/>
      <use x="279.6875" xlink:href="#DejaVuSans-32"/>
      <use x="311.474609" xlink:href="#DejaVuSans-111"/>
      <use x="372.65625" xlink:href="#DejaVuSans-102"/>
      <use x="407.861328" xlink:href="#DejaVuSans-32"/>
      <use x="439.648438" xlink:href="#DejaVuSans-101"/>
      <use x="501.171875" xlink:href="#DejaVuSans-118"/>
      <use x="560.351562" xlink:href="#DejaVuSans-97"/>
      <use x="621.630859" xlink:href="#DejaVuSans-108"/>
      <use x="649.414062" xlink:href="#DejaVuSans-115"/>
      <use x="701.513672" xlink:href="#DejaVuSans-32"/>
      <use x="733.300781" xlink:href="#DejaVuSans-47"/>
      <use x="766.992188" xlink:href="#DejaVuSans-32"/>
      <use x="798.779297" xlink:href="#DejaVuSans-68"/>
      <use x="875.78125" xlink:href="#DejaVuSans-73"/>
      <use x="905.273438" xlink:href="#DejaVuSans-77"/>
     </g>
    </g>
   </g>
   <g id="matplotlib.axis_2">
    <g id="ytick_1">
     <g id="line2d_73">
      <path clip-path="url(#p7007ecd5ba)" d="M 62.208 293.76 
L 460.8 293.76 
" style="fill:none;stroke:#b0b0b0;stroke-linecap:square;stroke-width:0.8;"/>
     </g>
     <g id="line2d_74">
      <defs>
       <path d="M 0 0 
L -3.5 0 
" id="mdcf1812f99" style="stroke:#000000;stroke-width:0.8;"/>
      </defs>
      <g>
       <use style="stroke:#000000;stroke-width:0.8;" x="62.208" xlink:href="#mdcf1812f99" y="293.76"/>
      </g>
     </g>
     <g id="text_6">
      <!-- 0.0 -->
      <g transform="translate(29.763 299.83875)scale(0.16 -0.16)">
       <defs>
        <path d="M 10.6875 12.40625 
L 21 12.40625 
L 21 0 
L 10.6875 0 
z
" id="DejaVuSans-46"/>
       </defs>
       <use xlink:href="#DejaVuSans-48"/>
       <use x="63.623047" xlink:href="#DejaVuSans-46"/>
       <use x="95.410156" xlink:href="#DejaVuSans-48"/>
      </g>
     </g>
    </g>
    <g id="ytick_2">
     <g id="line2d_75">
      <path clip-path="url(#p7007ecd5ba)" d="M 62.208 236.274059 
L 460.8 236.274059 
" style="fill:none;stroke:#b0b0b0;stroke-linecap:square;stroke-width:0.8;"/>
     </g>
     <g id="line2d_76">
      <g>
       <use style="stroke:#000000;stroke-width:0.8;" x="62.208" xlink:href="#mdcf1812f99" y="236.274059"/>
      </g>
     </g>
     <g id="text_7">
      <!-- 0.2 -->
      <g transform="translate(29.763 242.352809)scale(0.16 -0.16)">
       <use xlink:href="#DejaVuSans-48"/>
       <use x="63.623047" xlink:href="#DejaVuSans-46"/>
       <use x="95.410156" xlink:href="#DejaVuSans-50"/>
      </g>
     </g>
    </g>
    <g id="ytick_3">
     <g id="line2d_77">
      <path clip-path="url(#p7007ecd5ba)" d="M 62.208 178.788119 
L 460.8 178.788119 
" style="fill:none;stroke:#b0b0b0;stroke-linecap:square;stroke-width:0.8;"/>
     </g>
     <g id="line2d_78">
      <g>
       <use style="stroke:#000000;stroke-width:0.8;" x="62.208" xlink:href="#mdcf1812f99" y="178.788119"/>
      </g>
     </g>
     <g id="text_8">
      <!-- 0.4 -->
      <g transform="translate(29.763 184.866869)scale(0.16 -0.16)">
       <defs>
        <path d="M 37.796875 64.3125 
L 12.890625 25.390625 
L 37.796875 25.390625 
z
M 35.203125 72.90625 
L 47.609375 72.90625 
L 47.609375 25.390625 
L 58.015625 25.390625 
L 58.015625 17.1875 
L 47.609375 17.1875 
L 47.609375 0 
L 37.796875 0 
L 37.796875 17.1875 
L 4.890625 17.1875 
L 4.890625 26.703125 
z
" id="DejaVuSans-52"/>
       </defs>
       <use xlink:href="#DejaVuSans-48"/>
       <use x="63.623047" xlink:href="#DejaVuSans-46"/>
       <use x="95.410156" xlink:href="#DejaVuSans-52"/>
      </g>
     </g>
    </g>
    <g id="ytick_4">
     <g id="line2d_79">
      <path clip-path="url(#p7007ecd5ba)" d="M 62.208 121.302178 
L 460.8 121.302178 
" style="fill:none;stroke:#b0b0b0;stroke-linecap:square;stroke-width:0.8;"/>
     </g>
     <g id="line2d_80">
      <g>
       <use style="stroke:#000000;stroke-width:0.8;" x="62.208" xlink:href="#mdcf1812f99" y="121.302178"/>
      </g>
     </g>
     <g id="text_9">
      <!-- 0.6 -->
      <g transform="translate(29.763 127.380928)scale(0.16 -0.16)">
       <defs>
        <path d="M 33.015625 40.375 
Q 26.375 40.375 22.484375 35.828125 
Q 18.609375 31.296875 18.609375 23.390625 
Q 18.609375 15.53125 22.484375 10.953125 
Q 26.375 6.390625 33.015625 6.390625 
Q 39.65625 6.390625 43.53125 10.953125 
Q 47.40625 15.53125 47.40625 23.390625 
Q 47.40625 31.296875 43.53125 35.828125 
Q 39.65625 40.375 33.015625 40.375 
z
M 52.59375 71.296875 
L 52.59375 62.3125 
Q 48.875 64.0625 45.09375 64.984375 
Q 41.3125 65.921875 37.59375 65.921875 
Q 27.828125 65.921875 22.671875 59.328125 
Q 17.53125 52.734375 16.796875 39.40625 
Q 19.671875 43.65625 24.015625 45.921875 
Q 28.375 48.1875 33.59375 48.1875 
Q 44.578125 48.1875 50.953125 41.515625 
Q 57.328125 34.859375 57.328125 23.390625 
Q 57.328125 12.15625 50.6875 5.359375 
Q 44.046875 -1.421875 33.015625 -1.421875 
Q 20.359375 -1.421875 13.671875 8.265625 
Q 6.984375 17.96875 6.984375 36.375 
Q 6.984375 53.65625 15.1875 63.9375 
Q 23.390625 74.21875 37.203125 74.21875 
Q 40.921875 74.21875 44.703125 73.484375 
Q 48.484375 72.75 52.59375 71.296875 
z
" id="DejaVuSans-54"/>
       </defs>
       <use xlink:href="#DejaVuSans-48"/>
       <use x="63.623047" xlink:href="#DejaVuSans-46"/>
       <use x="95.410156" xlink:href="#DejaVuSans-54"/>
      </g>
     </g>
    </g>
    <g id="ytick_5">
     <g id="line2d_81">
      <path clip-path="url(#p7007ecd5ba)" d="M 62.208 63.816238 
L 460.8 63.816238 
" style="fill:none;stroke:#b0b0b0;stroke-linecap:square;stroke-width:0.8;"/>
     </g>
     <g id="line2d_82">
      <g>
       <use style="stroke:#000000;stroke-width:0.8;" x="62.208" xlink:href="#mdcf1812f99" y="63.816238"/>
      </g>
     </g>
     <g id="text_10">
      <!-- 0.8 -->
      <g transform="translate(29.763 69.894988)scale(0.16 -0.16)">
       <defs>
        <path d="M 31.78125 34.625 
Q 24.75 34.625 20.71875 30.859375 
Q 16.703125 27.09375 16.703125 20.515625 
Q 16.703125 13.921875 20.71875 10.15625 
Q 24.75 6.390625 31.78125 6.390625 
Q 38.8125 6.390625 42.859375 10.171875 
Q 46.921875 13.96875 46.921875 20.515625 
Q 46.921875 27.09375 42.890625 30.859375 
Q 38.875 34.625 31.78125 34.625 
z
M 21.921875 38.8125 
Q 15.578125 40.375 12.03125 44.71875 
Q 8.5 49.078125 8.5 55.328125 
Q 8.5 64.0625 14.71875 69.140625 
Q 20.953125 74.21875 31.78125 74.21875 
Q 42.671875 74.21875 48.875 69.140625 
Q 55.078125 64.0625 55.078125 55.328125 
Q 55.078125 49.078125 51.53125 44.71875 
Q 48 40.375 41.703125 38.8125 
Q 48.828125 37.15625 52.796875 32.3125 
Q 56.78125 27.484375 56.78125 20.515625 
Q 56.78125 9.90625 50.3125 4.234375 
Q 43.84375 -1.421875 31.78125 -1.421875 
Q 19.734375 -1.421875 13.25 4.234375 
Q 6.78125 9.90625 6.78125 20.515625 
Q 6.78125 27.484375 10.78125 32.3125 
Q 14.796875 37.15625 21.921875 38.8125 
z
M 18.3125 54.390625 
Q 18.3125 48.734375 21.84375 45.5625 
Q 25.390625 42.390625 31.78125 42.390625 
Q 38.140625 42.390625 41.71875 45.5625 
Q 45.3125 48.734375 45.3125 54.390625 
Q 45.3125 60.0625 41.71875 63.234375 
Q 38.140625 66.40625 31.78125 66.40625 
Q 25.390625 66.40625 21.84375 63.234375 
Q 18.3125 60.0625 18.3125 54.390625 
z
" id="DejaVuSans-56"/>
       </defs>
       <use xlink:href="#DejaVuSans-48"/>
       <use x="63.623047" xlink:href="#DejaVuSans-46"/>
       <use x="95.410156" xlink:href="#DejaVuSans-56"/>
      </g>
     </g>
    </g>
    <g id="ytick_6">
     <g id="line2d_83">
      <path clip-path="url(#p7007ecd5ba)" d="M 62.208 6.330297 
L 460.8 6.330297 
" style="fill:none;stroke:#b0b0b0;stroke-linecap:square;stroke-width:0.8;"/>
     </g>
     <g id="line2d_84">
      <g>
       <use style="stroke:#000000;stroke-width:0.8;" x="62.208" xlink:href="#mdcf1812f99" y="6.330297"/>
      </g>
     </g>
     <g id="text_11">
      <!-- 1.0 -->
      <g transform="translate(29.763 12.409047)scale(0.16 -0.16)">
       <use xlink:href="#DejaVuSans-49"/>
       <use x="63.623047" xlink:href="#DejaVuSans-46"/>
       <use x="95.410156" xlink:href="#DejaVuSans-48"/>
      </g>
     </g>
    </g>
    <g id="text_12">
     <!-- proportion of trials -->
     <g transform="translate(21.603625 241.61425)rotate(-90)scale(0.2 -0.2)">
      <defs>
       <path d="M 18.109375 8.203125 
L 18.109375 -20.796875 
L 9.078125 -20.796875 
L 9.078125 54.6875 
L 18.109375 54.6875 
L 18.109375 46.390625 
Q 20.953125 51.265625 25.265625 53.625 
Q 29.59375 56 35.59375 56 
Q 45.5625 56 51.78125 48.09375 
Q 58.015625 40.1875 58.015625 27.296875 
Q 58.015625 14.40625 51.78125 6.484375 
Q 45.5625 -1.421875 35.59375 -1.421875 
Q 29.59375 -1.421875 25.265625 0.953125 
Q 20.953125 3.328125 18.109375 8.203125 
z
M 48.6875 27.296875 
Q 48.6875 37.203125 44.609375 42.84375 
Q 40.53125 48.484375 33.40625 48.484375 
Q 26.265625 48.484375 22.1875 42.84375 
Q 18.109375 37.203125 18.109375 27.296875 
Q 18.109375 17.390625 22.1875 11.75 
Q 26.265625 6.109375 33.40625 6.109375 
Q 40.53125 6.109375 44.609375 11.75 
Q 48.6875 17.390625 48.6875 27.296875 
z
" id="DejaVuSans-112"/>
       <path d="M 41.109375 46.296875 
Q 39.59375 47.171875 37.8125 47.578125 
Q 36.03125 48 33.890625 48 
Q 26.265625 48 22.1875 43.046875 
Q 18.109375 38.09375 18.109375 28.8125 
L 18.109375 0 
L 9.078125 0 
L 9.078125 54.6875 
L 18.109375 54.6875 
L 18.109375 46.1875 
Q 20.953125 51.171875 25.484375 53.578125 
Q 30.03125 56 36.53125 56 
Q 37.453125 56 38.578125 55.875 
Q 39.703125 55.765625 41.0625 55.515625 
z
" id="DejaVuSans-114"/>
       <path d="M 18.3125 70.21875 
L 18.3125 54.6875 
L 36.8125 54.6875 
L 36.8125 47.703125 
L 18.3125 47.703125 
L 18.3125 18.015625 
Q 18.3125 11.328125 20.140625 9.421875 
Q 21.96875 7.515625 27.59375 7.515625 
L 36.8125 7.515625 
L 36.8125 0 
L 27.59375 0 
Q 17.1875 0 13.234375 3.875 
Q 9.28125 7.765625 9.28125 18.015625 
L 9.28125 47.703125 
L 2.6875 47.703125 
L 2.6875 54.6875 
L 9.28125 54.6875 
L 9.28125 70.21875 
z
" id="DejaVuSans-116"/>
       <path d="M 9.421875 54.6875 
L 18.40625 54.6875 
L 18.40625 0 
L 9.421875 0 
z
M 9.421875 75.984375 
L 18.40625 75.984375 
L 18.40625 64.59375 
L 9.421875 64.59375 
z
" id="DejaVuSans-105"/>
       <path d="M 54.890625 33.015625 
L 54.890625 0 
L 45.90625 0 
L 45.90625 32.71875 
Q 45.90625 40.484375 42.875 44.328125 
Q 39.84375 48.1875 33.796875 48.1875 
Q 26.515625 48.1875 22.3125 43.546875 
Q 18.109375 38.921875 18.109375 30.90625 
L 18.109375 0 
L 9.078125 0 
L 9.078125 54.6875 
L 18.109375 54.6875 
L 18.109375 46.1875 
Q 21.34375 51.125 25.703125 53.5625 
Q 30.078125 56 35.796875 56 
Q 45.21875 56 50.046875 50.171875 
Q 54.890625 44.34375 54.890625 33.015625 
z
" id="DejaVuSans-110"/>
      </defs>
      <use xlink:href="#DejaVuSans-112"/>
      <use x="63.476562" xlink:href="#DejaVuSans-114"/>
      <use x="102.339844" xlink:href="#DejaVuSans-111"/>
      <use x="163.521484" xlink:href="#DejaVuSans-112"/>
      <use x="226.998047" xlink:href="#DejaVuSans-111"/>
      <use x="288.179688" xlink:href="#DejaVuSans-114"/>
      <use x="329.292969" xlink:href="#DejaVuSans-116"/>
      <use x="368.501953" xlink:href="#DejaVuSans-105"/>
      <use x="396.285156" xlink:href="#DejaVuSans-111"/>
      <use x="457.466797" xlink:href="#DejaVuSans-110"/>
      <use x="520.845703" xlink:href="#DejaVuSans-32"/>
      <use x="552.632812" xlink:href="#DejaVuSans-111"/>
      <use x="613.814453" xlink:href="#DejaVuSans-102"/>
      <use x="649.019531" xlink:href="#DejaVuSans-32"/>
      <use x="680.806641" xlink:href="#DejaVuSans-116"/>
      <use x="720.015625" xlink:href="#DejaVuSans-114"/>
      <use x="761.128906" xlink:href="#DejaVuSans-105"/>
      <use x="788.912109" xlink:href="#DejaVuSans-97"/>
      <use x="850.191406" xlink:href="#DejaVuSans-108"/>
      <use x="877.974609" xlink:href="#DejaVuSans-115"/>
     </g>
    </g>
   </g>
   <g id="line2d_85">
    <path clip-path="url(#p7007ecd5ba)" d="M 99.227124 293.76 
L 99.227124 219.59604 
L 127.374935 219.59604 
L 127.374935 217.112079 
L 128.327212 217.112079 
L 128.327212 216.757228 
L 129.259008 216.757228 
L 129.259008 216.047525 
L 144.295779 216.047525 
L 144.295779 205.40198 
L 146.826533 205.40198 
L 146.826533 204.337426 
L 147.436781 204.337426 
L 147.436781 203.982574 
L 148.038552 203.982574 
L 148.038552 203.627723 
L 156.43314 203.627723 
L 156.43314 197.595248 
L 165.903858 197.595248 
L 165.903858 193.33703 
L 166.297741 193.33703 
L 166.297741 192.627327 
L 167.458351 192.627327 
L 167.458351 192.272475 
L 168.958998 192.272475 
L 168.958998 191.917624 
L 173.671183 191.917624 
L 173.671183 189.788515 
L 174.000666 189.788515 
L 174.000666 188.369109 
L 176.550039 188.369109 
L 176.550039 188.014257 
L 176.858417 188.014257 
L 176.858417 187.659406 
L 177.468664 187.659406 
L 177.468664 186.949703 
L 180.255446 186.949703 
L 180.255446 186.594851 
L 180.538629 186.594851 
L 180.538629 184.110891 
L 181.927429 184.110891 
L 181.927429 183.75604 
L 182.470719 183.75604 
L 182.470719 183.401188 
L 183.273091 183.401188 
L 183.273091 183.046337 
L 183.799868 183.046337 
L 183.799868 181.981782 
L 185.969854 181.981782 
L 185.969854 180.917228 
L 186.218146 180.917228 
L 186.218146 180.207525 
L 186.465024 180.207525 
L 186.465024 179.14297 
L 186.710502 179.14297 
L 186.710502 178.433267 
L 187.67874 178.433267 
L 187.67874 177.723564 
L 187.917456 177.723564 
L 187.917456 177.013861 
L 189.091698 177.013861 
L 189.091698 176.304158 
L 189.322775 176.304158 
L 189.322775 175.594455 
L 191.017652 175.594455 
L 191.017652 174.17505 
L 191.238708 174.17505 
L 191.238708 172.400792 
L 191.458642 172.400792 
L 191.458642 170.626535 
L 191.677465 170.626535 
L 191.677465 169.916832 
L 192.54187 169.916832 
L 192.54187 169.56198 
L 192.755303 169.56198 
L 192.755303 168.497426 
L 192.96769 168.497426 
L 192.96769 167.787723 
L 193.389366 167.787723 
L 193.389366 167.432871 
L 193.598674 167.432871 
L 193.598674 167.07802 
L 194.220602 167.07802 
L 194.220602 166.723168 
L 194.425942 166.723168 
L 194.425942 166.013465 
L 195.538245 166.013465 
L 195.538245 165.658614 
L 195.737449 165.658614 
L 195.737449 164.948911 
L 195.935742 164.948911 
L 195.935742 163.884356 
L 196.133131 163.884356 
L 196.133131 162.46495 
L 196.329625 162.46495 
L 196.329625 162.110099 
L 197.106809 162.110099 
L 197.106809 160.690693 
L 197.298946 160.690693 
L 197.298946 160.335842 
L 198.434212 160.335842 
L 198.434212 159.98099 
L 198.806119 159.98099 
L 198.806119 159.271287 
L 199.631417 159.271287 
L 199.631417 158.916436 
L 199.99323 158.916436 
L 199.99323 158.561584 
L 200.17301 158.561584 
L 200.17301 157.851881 
L 200.352046 157.851881 
L 200.352046 156.432475 
L 200.530347 156.432475 
L 200.530347 156.077624 
L 201.411004 156.077624 
L 201.411004 155.013069 
L 201.585007 155.013069 
L 201.585007 153.948515 
L 201.758315 153.948515 
L 201.758315 153.593663 
L 201.930932 153.593663 
L 201.930932 152.88396 
L 202.274117 152.88396 
L 202.274117 152.529109 
L 202.783851 152.529109 
L 202.783851 152.174257 
L 203.120371 152.174257 
L 203.120371 151.819406 
L 203.620302 151.819406 
L 203.620302 151.464554 
L 204.032549 151.464554 
L 204.032549 150.045149 
L 204.359546 150.045149 
L 204.359546 149.335446 
L 204.684093 149.335446 
L 204.684093 148.625743 
L 205.006227 148.625743 
L 205.006227 148.270891 
L 205.166401 148.270891 
L 205.166401 147.91604 
L 205.325984 147.91604 
L 205.325984 147.561188 
L 206.115202 147.561188 
L 206.115202 147.206337 
L 206.426907 147.206337 
L 206.426907 146.851485 
L 206.581923 146.851485 
L 206.581923 146.141782 
L 206.736386 146.141782 
L 206.736386 145.786931 
L 207.04367 145.786931 
L 207.120151 145.077228 
L 207.576228 145.077228 
L 207.576228 144.722376 
L 207.727193 144.722376 
L 207.727193 144.367525 
L 208.176956 144.367525 
L 208.176956 144.012673 
L 208.325846 144.012673 
L 208.325846 143.657822 
L 208.769469 143.657822 
L 208.769469 143.30297 
L 208.91634 143.30297 
L 208.91634 142.238416 
L 209.062715 142.238416 
L 209.062715 141.883564 
L 209.208597 141.883564 
L 209.208597 141.528713 
L 209.498895 141.528713 
L 209.498895 141.173861 
L 209.787261 141.173861 
L 209.787261 140.81901 
L 210.073721 140.81901 
L 210.073721 140.464158 
L 210.64102 140.464158 
L 210.64102 140.109307 
L 211.131385 140.109307 
L 211.131385 139.754455 
L 211.685091 139.754455 
L 211.685091 139.399604 
L 211.822418 139.399604 
L 211.822418 139.044752 
L 212.095775 139.044752 
L 212.095775 138.689901 
L 212.231809 138.689901 
L 212.231809 138.33505 
L 212.502603 138.33505 
L 212.502603 137.980198 
L 212.771714 137.980198 
L 212.771714 137.625347 
L 212.905646 137.625347 
L 212.905646 136.915644 
L 213.63496 136.915644 
L 213.63496 136.560792 
L 214.027653 136.560792 
L 214.027653 136.205941 
L 215.05776 136.205941 
L 215.05776 135.851089 
L 215.184819 135.851089 
L 215.184819 135.496238 
L 215.689358 135.496238 
L 215.689358 135.141386 
L 215.939442 135.141386 
L 215.939442 134.786535 
L 216.25003 134.786535 
L 216.25003 134.431683 
L 216.373644 134.431683 
L 216.373644 134.076832 
L 217.830146 134.076832 
L 217.830146 133.72198 
L 218.186748 133.72198 
L 218.186748 133.367129 
L 218.540438 133.367129 
L 218.540438 133.012277 
L 218.657696 133.012277 
L 218.657696 131.947723 
L 220.435752 131.947723 
L 220.435752 131.592871 
L 220.659953 131.592871 
L 220.659953 131.23802 
L 220.883001 131.23802 
L 220.994095 130.528317 
L 221.215433 130.528317 
L 221.32568 129.463762 
L 221.545335 129.463762 
L 221.654746 128.399208 
L 221.927072 128.399208 
L 221.927072 127.689505 
L 223.421249 127.689505 
L 223.421249 127.334653 
L 223.942637 127.334653 
L 223.942637 126.979802 
L 224.149448 126.979802 
L 224.149448 126.270099 
L 225.319828 126.270099 
L 225.319828 125.915248 
L 225.520184 125.915248 
L 225.520184 125.560396 
L 225.818991 125.560396 
L 225.918137 124.14099 
L 226.214221 124.14099 
L 226.214221 123.786139 
L 227.996678 123.786139 
L 227.996678 123.431287 
L 228.559372 123.431287 
L 228.652448 122.721584 
L 229.435623 122.721584 
L 229.526838 122.011881 
L 229.708693 122.011881 
L 229.708693 121.65703 
L 230.160018 121.65703 
L 230.160018 121.302178 
L 230.606691 121.302178 
L 230.606691 120.947327 
L 231.529976 120.947327 
L 231.529976 120.592475 
L 232.134748 120.592475 
L 232.220459 119.173069 
L 232.306001 119.173069 
L 232.306001 118.818218 
L 232.561617 118.818218 
L 232.561617 118.108515 
L 232.731194 118.108515 
L 232.731194 117.753663 
L 232.984321 117.753663 
L 232.984321 117.398812 
L 233.361261 117.398812 
L 233.361261 117.04396 
L 233.776272 117.04396 
L 233.8588 115.624554 
L 233.94117 115.624554 
L 234.023384 114.914851 
L 234.105443 114.914851 
L 234.105443 114.56 
L 234.432131 114.56 
L 234.51342 113.850297 
L 236.068807 113.850297 
L 236.068807 113.495446 
L 236.613806 113.495446 
L 236.613806 113.140594 
L 237.304594 113.140594 
L 237.304594 112.785743 
L 237.947045 112.785743 
L 237.947045 112.430891 
L 238.171537 112.430891 
L 238.171537 112.07604 
L 238.469062 112.07604 
L 238.469062 111.721188 
L 239.204056 111.721188 
L 239.204056 111.366337 
L 239.819145 111.366337 
L 239.890937 110.656634 
L 240.248127 110.656634 
L 240.248127 110.301782 
L 240.390182 110.301782 
L 240.390182 109.946931 
L 241.128426 109.946931 
L 241.128426 109.592079 
L 241.267629 109.592079 
L 241.267629 108.882376 
L 241.613692 108.882376 
L 241.613692 108.527525 
L 242.736476 108.527525 
L 242.736476 108.172673 
L 243.204157 108.172673 
L 243.204157 107.817822 
L 243.798137 107.817822 
L 243.798137 107.46297 
L 244.092101 107.46297 
L 244.092101 107.108119 
L 244.254556 107.108119 
L 244.286975 106.043564 
L 244.7383 106.043564 
L 244.834404 105.333861 
L 244.962212 105.333861 
L 244.962212 104.97901 
L 245.532727 104.97901 
L 245.532727 104.624158 
L 246.219974 104.624158 
L 246.219974 104.269307 
L 248.218631 104.269307 
L 248.218631 103.914455 
L 248.864874 103.914455 
L 248.894021 103.204752 
L 249.184417 103.204752 
L 249.184417 102.849901 
L 251.68663 102.849901 
L 251.68663 102.49505 
L 252.471705 102.49505 
L 252.471705 102.140198 
L 253.321799 102.140198 
L 253.321799 101.785347 
L 254.335795 101.785347 
L 254.335795 101.430495 
L 254.998844 101.430495 
L 254.998844 101.075644 
L 255.701728 101.075644 
L 255.701728 100.720792 
L 256.832272 100.720792 
L 256.832272 100.365941 
L 258.169921 100.365941 
L 258.169921 100.011089 
L 261.387506 100.011089 
L 261.474771 99.301386 
L 262.465881 99.301386 
L 262.465881 98.946535 
L 263.476465 98.946535 
L 263.538851 98.236832 
L 263.642628 98.236832 
L 263.746157 97.527129 
L 263.766833 97.527129 
L 263.766833 97.172277 
L 263.952476 97.172277 
L 263.952476 96.817426 
L 264.260123 96.817426 
L 264.260123 96.462574 
L 265.150155 96.462574 
L 265.150155 96.107723 
L 265.34991 96.107723 
L 265.34991 95.752871 
L 267.488502 95.752871 
L 267.488502 95.39802 
L 267.602171 95.39802 
L 267.602171 95.043168 
L 267.847436 95.043168 
L 267.847436 94.688317 
L 268.128719 94.688317 
L 268.128719 94.333465 
L 268.814842 94.333465 
L 268.814842 93.623762 
L 269.76112 93.623762 
L 269.76112 93.268911 
L 273.302442 93.268911 
L 273.302442 92.914059 
L 273.501037 92.914059 
L 273.501037 92.559208 
L 274.399797 92.559208 
L 274.399797 92.204356 
L 277.923742 92.204356 
L 277.923742 91.849505 
L 278.427721 91.849505 
L 278.427721 91.494653 
L 281.85489 91.494653 
L 281.85489 91.139802 
L 282.058653 91.139802 
L 282.058653 90.78495 
L 282.355784 90.78495 
L 282.355784 90.430099 
L 287.942291 90.430099 
L 287.942291 90.075248 
L 288.448081 90.075248 
L 288.448081 89.720396 
L 289.005795 89.720396 
L 289.005795 89.365545 
L 289.73842 89.365545 
L 289.73842 89.010693 
L 291.626357 89.010693 
L 291.626357 88.655842 
L 292.13412 88.655842 
L 292.13412 88.30099 
L 292.540346 88.30099 
L 292.540346 87.946139 
L 293.090133 87.946139 
L 293.090133 87.591287 
L 293.289289 87.591287 
L 293.320651 86.881584 
L 294.394072 86.881584 
L 294.394072 86.526733 
L 296.073773 86.526733 
L 296.073773 86.171881 
L 299.576459 86.171881 
L 299.576459 85.81703 
L 305.964902 85.81703 
L 305.964902 85.462178 
L 307.783827 85.462178 
L 307.783827 85.107327 
L 310.545449 85.107327 
L 310.545449 84.752475 
L 311.428211 84.752475 
L 311.428211 84.397624 
L 312.19206 84.397624 
L 312.19206 84.042772 
L 312.942676 84.042772 
L 312.942676 83.687921 
L 313.673976 83.687921 
L 313.732733 82.978218 
L 319.485594 82.978218 
L 319.485594 82.623366 
L 321.177433 82.623366 
L 321.177433 82.268515 
L 328.592501 82.268515 
L 328.592501 81.913663 
L 329.467913 81.913663 
L 329.467913 81.558812 
L 335.585061 81.558812 
L 335.585061 81.20396 
L 337.496453 81.20396 
L 337.60188 80.494257 
L 337.853116 80.494257 
L 337.853116 80.139406 
L 338.90947 80.139406 
L 338.90947 79.784554 
L 349.24526 79.784554 
L 349.24526 79.429703 
L 350.093494 79.429703 
L 350.093494 79.074851 
L 350.834094 79.074851 
L 350.834094 78.72 
L 352.023003 78.72 
L 352.023003 78.365149 
L 354.091842 78.365149 
L 354.091842 78.010297 
L 354.45529 78.010297 
L 354.45529 77.655446 
L 357.186339 77.655446 
L 357.186339 77.300594 
L 357.643392 77.300594 
L 357.714373 76.590891 
L 358.57806 76.590891 
L 358.619754 75.881188 
L 359.098661 75.881188 
L 359.098661 75.526337 
L 363.046254 75.526337 
L 363.046254 75.171485 
L 363.942055 75.171485 
L 363.942055 74.816634 
L 367.471751 74.816634 
L 367.471751 74.461782 
L 373.427954 74.461782 
L 373.427954 74.106931 
L 373.569191 74.106931 
L 373.569191 73.752079 
L 373.861692 73.752079 
L 373.861692 73.397228 
L 375.483952 73.397228 
L 375.483952 73.042376 
L 375.829262 73.042376 
L 375.829262 72.687525 
L 382.178724 72.687525 
L 382.178724 72.332673 
L 384.507559 72.332673 
L 384.507559 71.977822 
L 390.847729 71.977822 
L 390.847729 71.62297 
L 391.014666 71.62297 
L 391.014666 71.268119 
L 393.468318 71.268119 
L 393.468318 70.913267 
L 393.595535 70.913267 
L 393.639922 70.203564 
L 399.595444 70.203564 
L 399.595444 69.848713 
L 401.897239 69.848713 
L 401.897239 69.493861 
L 403.278512 69.493861 
L 403.278512 69.13901 
L 404.528928 69.13901 
L 404.528928 68.784158 
L 405.713827 68.784158 
L 405.713827 68.429307 
L 408.212308 68.429307 
L 408.212308 68.074455 
L 408.861178 68.074455 
L 408.861178 67.719604 
L 410.70137 67.719604 
L 410.70137 67.364752 
L 412.722376 67.364752 
L 412.722376 67.009901 
L 413.670336 67.009901 
L 413.670336 66.65505 
L 416.550492 66.65505 
L 416.550492 66.300198 
L 421.567372 66.300198 
L 421.567372 65.945347 
L 422.136022 65.945347 
L 422.241719 65.235644 
L 423.993022 65.235644 
L 423.993022 64.880792 
L 425.727472 64.880792 
L 425.727472 64.525941 
L 432.144741 64.525941 
L 432.144741 64.171089 
L 437.648269 64.171089 
L 437.648269 63.816238 
L 440.202179 63.816238 
L 440.202179 63.461386 
L 440.802092 63.461386 
L 440.802092 63.106535 
L 453.561854 63.106535 
L 453.561854 62.751683 
L 453.561854 62.751683 
L 460.8 62.751683 
L 460.8 62.751683 
" style="fill:none;stroke:#000000;stroke-linecap:square;stroke-width:1.5;"/>
   </g>
   <g id="line2d_86">
    <path clip-path="url(#p7007ecd5ba)" style="fill:none;stroke:#000000;stroke-linecap:square;stroke-width:1.5;"/>
   </g>
   <g id="line2d_87">
    <path clip-path="url(#p7007ecd5ba)" d="M 99.227124 293.76 
L 99.227124 219.59604 
L 144.295779 219.59604 
L 144.295779 216.047525 
L 156.43314 216.047525 
L 156.43314 207.531089 
L 165.903858 207.531089 
L 165.903858 203.982574 
L 166.297741 203.982574 
L 166.297741 203.627723 
L 173.671183 203.627723 
L 173.671183 201.143762 
L 174.000666 201.143762 
L 174.000666 200.434059 
L 174.327663 200.434059 
L 174.327663 200.079208 
L 174.974344 200.079208 
L 174.974344 199.724356 
L 180.255446 199.724356 
L 180.255446 197.595248 
L 180.538629 197.595248 
L 180.538629 196.885545 
L 185.969854 196.885545 
L 185.969854 196.530693 
L 191.017652 196.530693 
L 191.017652 196.175842 
L 191.238708 196.175842 
L 191.238708 194.756436 
L 191.677465 194.756436 
L 191.677465 194.401584 
L 192.54187 194.401584 
L 192.54187 194.046733 
L 195.538245 194.046733 
L 195.538245 193.691881 
L 195.737449 193.691881 
L 195.737449 193.33703 
L 195.935742 193.33703 
L 195.935742 192.627327 
L 196.133131 192.627327 
L 196.133131 192.272475 
L 196.525232 192.272475 
L 196.525232 191.917624 
L 196.913816 191.917624 
L 196.913816 191.562772 
L 197.106809 191.562772 
L 197.106809 190.853069 
L 197.298946 190.853069 
L 197.298946 190.498218 
L 199.17486 190.498218 
L 199.17486 189.788515 
L 199.631417 189.788515 
L 199.631417 189.078812 
L 199.812701 189.078812 
L 199.812701 188.014257 
L 199.99323 188.014257 
L 199.99323 187.659406 
L 200.17301 187.659406 
L 200.17301 187.304554 
L 201.060886 187.304554 
L 201.060886 186.594851 
L 201.236299 186.594851 
L 201.236299 186.24 
L 201.585007 186.24 
L 201.585007 185.885149 
L 201.930932 185.885149 
L 201.930932 185.530297 
L 202.102864 185.530297 
L 202.102864 184.820594 
L 203.371058 184.820594 
L 203.371058 184.110891 
L 203.53738 184.110891 
L 203.53738 181.981782 
L 203.703066 181.981782 
L 203.703066 180.917228 
L 203.868121 180.917228 
L 203.868121 180.207525 
L 204.032549 180.207525 
L 204.032549 179.497822 
L 204.684093 179.497822 
L 204.684093 178.788119 
L 204.84546 178.788119 
L 204.84546 178.433267 
L 205.006227 178.433267 
L 205.006227 178.078416 
L 206.426907 178.078416 
L 206.426907 177.723564 
L 206.736386 177.723564 
L 206.736386 177.368713 
L 206.967053 177.368713 
L 206.967053 177.013861 
L 207.272711 177.013861 
L 207.272711 176.304158 
L 207.424735 176.304158 
L 207.424735 175.949307 
L 208.027553 175.949307 
L 208.027553 175.594455 
L 208.325846 175.594455 
L 208.325846 175.239604 
L 208.622099 175.239604 
L 208.622099 174.884752 
L 209.498895 174.884752 
L 209.498895 174.529901 
L 209.643318 174.529901 
L 209.643318 173.820198 
L 210.145041 173.820198 
L 210.145041 173.465347 
L 210.287329 173.465347 
L 210.287329 172.755644 
L 210.429152 172.755644 
L 210.49989 171.691089 
L 210.570512 171.691089 
L 210.570512 170.981386 
L 210.711413 170.981386 
L 210.711413 170.626535 
L 210.851856 170.626535 
L 210.851856 170.271683 
L 211.409123 170.271683 
L 211.409123 169.916832 
L 211.547326 169.916832 
L 211.547326 169.207129 
L 211.685091 169.207129 
L 211.685091 168.852277 
L 211.822418 168.852277 
L 211.822418 168.497426 
L 212.231809 168.497426 
L 212.231809 168.142574 
L 212.502603 168.142574 
L 212.502603 167.787723 
L 212.637367 167.787723 
L 212.637367 167.432871 
L 212.771714 167.432871 
L 212.771714 167.07802 
L 212.972457 167.07802 
L 212.972457 166.723168 
L 213.503267 166.723168 
L 213.569164 165.658614 
L 213.63496 165.658614 
L 213.63496 165.303762 
L 213.766253 165.303762 
L 213.766253 164.594059 
L 214.157764 164.594059 
L 214.157764 164.239208 
L 214.287485 164.239208 
L 214.287485 163.884356 
L 214.545768 163.884356 
L 214.545768 163.529505 
L 214.80252 163.529505 
L 214.80252 163.174653 
L 215.689358 163.174653 
L 215.689358 162.110099 
L 216.25003 162.110099 
L 216.25003 161.755248 
L 216.373644 161.755248 
L 216.43532 160.335842 
L 217.350065 160.335842 
L 217.350065 159.98099 
L 217.710624 159.98099 
L 217.710624 158.916436 
L 217.830146 158.916436 
L 217.830146 158.561584 
L 218.068206 158.561584 
L 218.068206 158.206733 
L 218.186748 158.206733 
L 218.186748 157.851881 
L 218.540438 157.851881 
L 218.540438 157.49703 
L 218.774638 157.49703 
L 218.832991 156.432475 
L 219.181466 156.432475 
L 219.181466 156.077624 
L 219.641782 156.077624 
L 219.641782 155.722772 
L 220.210384 155.722772 
L 220.210384 155.013069 
L 220.435752 155.013069 
L 220.435752 154.658218 
L 220.994095 154.658218 
L 221.104906 153.593663 
L 223.630558 153.593663 
L 223.630558 153.238812 
L 223.942637 153.238812 
L 224.046166 152.529109 
L 225.118541 152.529109 
L 225.118541 152.174257 
L 225.420122 152.174257 
L 225.420122 151.819406 
L 225.719617 151.819406 
L 225.719617 151.464554 
L 225.918137 151.464554 
L 225.918137 150.4 
L 226.066432 150.4 
L 226.066432 150.045149 
L 226.214221 150.045149 
L 226.214221 149.690297 
L 226.605879 149.690297 
L 226.654588 148.980594 
L 226.848879 148.980594 
L 226.848879 148.625743 
L 227.426579 148.625743 
L 227.426579 148.270891 
L 227.902181 148.270891 
L 227.996678 147.561188 
L 228.043849 147.561188 
L 228.043849 147.206337 
L 228.466096 147.206337 
L 228.466096 146.851485 
L 228.745324 146.851485 
L 228.745324 146.496634 
L 229.160822 146.496634 
L 229.160822 146.141782 
L 229.344216 146.141782 
L 229.344216 145.786931 
L 229.889787 145.786931 
L 229.889787 145.432079 
L 230.294504 145.432079 
L 230.294504 145.077228 
L 230.784078 145.077228 
L 230.828312 144.367525 
L 231.355623 144.367525 
L 231.355623 143.657822 
L 231.486454 143.657822 
L 231.486454 143.30297 
L 231.703631 143.30297 
L 231.703631 142.948119 
L 232.048867 142.948119 
L 232.048867 142.593267 
L 232.220459 142.593267 
L 232.306001 141.883564 
L 232.348708 141.883564 
L 232.348708 141.528713 
L 232.476579 141.528713 
L 232.476579 141.173861 
L 233.026366 141.173861 
L 233.026366 140.81901 
L 233.277779 140.81901 
L 233.277779 140.464158 
L 233.8588 140.464158 
L 233.8588 140.109307 
L 234.187346 140.109307 
L 234.187346 139.754455 
L 234.35069 139.754455 
L 234.35069 139.044752 
L 234.51342 139.044752 
L 234.51342 138.689901 
L 234.715977 138.689901 
L 234.715977 138.33505 
L 235.357868 138.33505 
L 235.357868 137.980198 
L 235.675282 137.980198 
L 235.754273 136.205941 
L 235.911826 136.205941 
L 235.990388 135.141386 
L 236.147085 135.141386 
L 236.147085 134.786535 
L 236.458791 134.786535 
L 236.458791 134.431683 
L 236.806799 134.431683 
L 236.806799 134.076832 
L 237.190225 134.076832 
L 237.190225 133.367129 
L 237.494541 133.367129 
L 237.494541 132.657426 
L 237.645902 132.657426 
L 237.645902 132.302574 
L 237.871955 132.302574 
L 237.871955 131.592871 
L 238.690872 131.592871 
L 238.690872 131.23802 
L 239.24048 131.23802 
L 239.313237 130.173465 
L 239.530778 130.173465 
L 239.60305 129.463762 
L 239.783204 129.463762 
L 239.783204 129.108911 
L 240.848672 129.108911 
L 240.848672 128.754059 
L 240.988775 128.754059 
L 241.058657 128.044356 
L 241.475598 128.044356 
L 241.5447 126.979802 
L 242.33155 126.979802 
L 242.399301 125.915248 
L 242.669251 125.915248 
L 242.669251 125.560396 
L 243.00434 125.560396 
L 243.00434 125.205545 
L 243.633958 125.205545 
L 243.699704 124.495842 
L 243.830898 124.495842 
L 243.830898 124.14099 
L 243.961696 124.14099 
L 243.961696 123.431287 
L 244.351738 123.431287 
L 244.351738 122.721584 
L 244.480976 122.721584 
L 244.513225 121.65703 
L 244.962212 121.65703 
L 244.962212 121.302178 
L 245.532727 121.302178 
L 245.532727 120.947327 
L 245.846464 120.947327 
L 245.846464 120.592475 
L 246.033621 120.592475 
L 246.095828 119.882772 
L 246.157945 119.882772 
L 246.18897 119.173069 
L 247.04878 119.173069 
L 247.04878 118.818218 
L 247.682622 118.818218 
L 247.682622 118.463366 
L 247.86203 118.463366 
L 247.86203 118.108515 
L 249.472879 118.108515 
L 249.472879 117.753663 
L 249.702274 117.753663 
L 249.702274 117.398812 
L 250.129143 117.398812 
L 250.129143 117.04396 
L 251.081419 117.04396 
L 251.081419 116.689109 
L 251.494978 116.689109 
L 251.494978 116.334257 
L 251.768507 116.334257 
L 251.768507 115.979406 
L 251.986094 115.979406 
L 251.986094 115.624554 
L 252.712485 115.624554 
L 252.712485 115.269703 
L 255.125198 115.269703 
L 255.125198 114.914851 
L 255.452005 114.914851 
L 255.452005 114.56 
L 258.451265 114.56 
L 258.451265 114.205149 
L 259.649744 114.205149 
L 259.649744 113.850297 
L 260.056997 113.850297 
L 260.056997 113.495446 
L 262.102237 113.495446 
L 262.102237 113.140594 
L 263.621892 113.140594 
L 263.621892 112.785743 
L 265.608223 112.785743 
L 265.608223 112.430891 
L 268.128719 112.430891 
L 268.128719 112.07604 
L 270.244423 112.07604 
L 270.244423 111.721188 
L 271.125439 111.721188 
L 271.125439 111.366337 
L 276.545285 111.366337 
L 276.545285 111.011485 
L 277.789349 111.011485 
L 277.789349 110.656634 
L 281.099449 110.656634 
L 281.182504 109.946931 
L 291.321006 109.946931 
L 291.321006 109.592079 
L 292.752629 109.592079 
L 292.752629 109.237228 
L 294.158961 109.237228 
L 294.158961 108.882376 
L 301.008808 108.882376 
L 301.008808 108.527525 
L 301.556651 108.527525 
L 301.556651 108.172673 
L 303.845514 108.172673 
L 303.845514 107.817822 
L 307.82871 107.817822 
L 307.82871 107.46297 
L 307.992883 107.46297 
L 307.992883 107.108119 
L 312.595792 107.108119 
L 312.595792 106.753267 
L 314.206397 106.753267 
L 314.206397 106.398416 
L 322.460363 106.398416 
L 322.460363 106.043564 
L 327.547526 106.043564 
L 327.547526 105.688713 
L 333.108335 105.688713 
L 333.108335 105.333861 
L 336.082558 105.333861 
L 336.090347 104.624158 
L 345.362558 104.624158 
L 345.362558 104.269307 
L 347.66158 104.269307 
L 347.688405 103.559604 
L 349.864573 103.559604 
L 349.864573 103.204752 
L 357.947789 103.204752 
L 357.947789 102.849901 
L 364.292815 102.849901 
L 364.292815 102.49505 
L 370.845569 102.49505 
L 370.845569 102.140198 
L 372.924975 102.140198 
L 372.924975 101.785347 
L 373.709969 101.785347 
L 373.709969 101.430495 
L 374.147379 101.430495 
L 374.147379 101.075644 
L 383.438502 101.075644 
L 383.438502 100.720792 
L 384.616968 100.720792 
L 384.616968 100.365941 
L 384.909482 100.365941 
L 384.909482 100.011089 
L 387.140377 100.011089 
L 387.140377 99.656238 
L 391.202797 99.656238 
L 391.202797 99.301386 
L 393.867333 99.301386 
L 393.90529 98.591683 
L 399.788345 98.591683 
L 399.788345 98.236832 
L 401.74776 98.236832 
L 401.74776 97.88198 
L 402.569878 97.88198 
L 402.569878 97.527129 
L 405.922575 97.527129 
L 405.922575 97.172277 
L 407.451679 97.172277 
L 407.451679 96.817426 
L 408.448254 96.817426 
L 408.448254 96.462574 
L 410.884697 96.462574 
L 410.884697 96.107723 
L 411.67095 96.107723 
L 411.67095 95.752871 
L 412.160173 95.752871 
L 412.160173 95.39802 
L 416.65737 95.39802 
L 416.65737 95.043168 
L 421.637173 95.043168 
L 421.637173 94.688317 
L 422.311507 94.688317 
L 422.311507 94.333465 
L 429.441241 94.333465 
L 429.441241 93.978614 
L 429.678552 93.978614 
L 429.678552 93.623762 
L 432.218494 93.623762 
L 432.218494 93.268911 
L 438.890157 93.268911 
L 438.890157 92.914059 
L 440.262722 92.914059 
L 440.262722 92.559208 
L 440.908611 92.559208 
L 440.908611 92.204356 
L 442.675483 92.204356 
L 442.675483 91.849505 
L 448.464929 91.849505 
L 448.464929 91.494653 
L 449.378246 91.494653 
L 449.378246 91.139802 
L 449.621529 91.139802 
L 449.621529 90.78495 
L 453.59574 90.78495 
L 453.59574 90.430099 
L 454.276867 90.430099 
L 454.276867 90.075248 
L 454.276867 90.075248 
L 460.8 90.075248 
L 460.8 90.075248 
" style="fill:none;stroke:#00bfbf;stroke-linecap:square;stroke-width:1.5;"/>
   </g>
   <g id="line2d_88">
    <path clip-path="url(#p7007ecd5ba)" style="fill:none;stroke:#00bfbf;stroke-linecap:square;stroke-width:1.5;"/>
   </g>
   <g id="line2d_89">
    <path clip-path="url(#p7007ecd5ba)" d="M 99.227124 293.76 
L 99.227124 274.59802 
L 101.032671 274.59802 
L 101.032671 274.243168 
L 101.907991 274.243168 
L 101.907991 273.888317 
L 104.432599 273.888317 
L 104.432599 273.533465 
L 106.818165 273.533465 
L 106.818165 273.178614 
L 109.07921 273.178614 
L 109.07921 272.823762 
L 109.807409 272.823762 
L 109.807409 272.468911 
L 110.523572 272.468911 
L 110.523572 272.114059 
L 111.921333 272.114059 
L 111.921333 271.759208 
L 114.588443 271.759208 
L 114.588443 271.404356 
L 127.374935 271.404356 
L 127.374935 232.015842 
L 130.171186 232.015842 
L 130.171186 231.66099 
L 131.064554 231.66099 
L 131.064554 231.306139 
L 144.295779 231.306139 
L 144.295779 227.047921 
L 144.94246 227.047921 
L 144.94246 226.338218 
L 145.579631 226.338218 
L 145.579631 225.983366 
L 145.894737 225.983366 
L 145.894737 225.628515 
L 149.5074 225.628515 
L 149.5074 225.273663 
L 156.43314 225.273663 
L 156.43314 223.144554 
L 160.652056 223.144554 
L 160.652056 222.789703 
L 161.096438 222.789703 
L 161.096438 221.725149 
L 165.306237 221.725149 
L 165.306237 221.370297 
L 165.903858 221.370297 
L 165.903858 220.660594 
L 166.297741 220.660594 
L 166.297741 220.305743 
L 166.493348 220.305743 
L 166.493348 219.950891 
L 166.881932 219.950891 
L 166.881932 219.241188 
L 168.402329 219.241188 
L 168.402329 218.886337 
L 173.172211 218.886337 
L 173.172211 218.531485 
L 174.000666 218.531485 
L 174.000666 218.176634 
L 174.49024 218.176634 
L 174.49024 217.466931 
L 179.394619 217.466931 
L 179.394619 217.112079 
L 180.255446 217.112079 
L 180.255446 216.757228 
L 180.538629 216.757228 
L 180.538629 216.402376 
L 185.216325 216.402376 
L 185.216325 216.047525 
L 186.218146 216.047525 
L 186.218146 215.692673 
L 188.036323 215.692673 
L 188.036323 215.337822 
L 190.347636 215.337822 
L 190.347636 214.98297 
L 194.323394 214.98297 
L 194.323394 214.628119 
L 200.88476 214.628119 
L 200.88476 214.273267 
L 204.684093 214.273267 
L 204.684093 213.918416 
L 204.84546 213.918416 
L 204.84546 213.563564 
L 205.246266 213.563564 
L 205.246266 213.208713 
L 205.405556 213.208713 
L 205.484982 212.49901 
L 206.813411 212.49901 
L 206.813411 212.144158 
L 210.145041 212.144158 
L 210.145041 211.789307 
L 210.429152 211.789307 
L 210.429152 211.434455 
L 211.270477 211.434455 
L 211.270477 211.079604 
L 211.409123 211.079604 
L 211.409123 210.724752 
L 211.822418 210.724752 
L 211.822418 210.369901 
L 212.231809 210.369901 
L 212.231809 210.01505 
L 212.972457 210.01505 
L 212.972457 209.660198 
L 213.10577 209.660198 
L 213.10577 209.305347 
L 213.238675 209.305347 
L 213.304975 208.595644 
L 216.126062 208.595644 
L 216.126062 207.885941 
L 216.25003 207.885941 
L 216.25003 207.176238 
L 216.986481 207.176238 
L 216.986481 206.821386 
L 217.108015 206.821386 
L 217.108015 206.466535 
L 218.48169 206.466535 
L 218.48169 206.111683 
L 218.832991 206.111683 
L 218.832991 205.756832 
L 220.097259 205.756832 
L 220.097259 205.40198 
L 220.210384 205.40198 
L 220.210384 205.047129 
L 220.435752 205.047129 
L 220.435752 204.692277 
L 220.994095 204.692277 
L 220.994095 204.337426 
L 221.270592 204.337426 
L 221.380698 203.272871 
L 223.105377 203.272871 
L 223.210924 202.563168 
L 223.994433 202.563168 
L 224.046166 201.853465 
L 224.611195 201.853465 
L 224.713141 200.788911 
L 224.814847 200.788911 
L 224.814847 200.434059 
L 225.719617 200.434059 
L 225.769332 199.369505 
L 225.967625 199.369505 
L 225.967625 198.30495 
L 227.807477 198.30495 
L 227.902181 197.240396 
L 227.996678 197.240396 
L 227.996678 196.885545 
L 228.138038 196.885545 
L 228.138038 196.530693 
L 228.605935 196.530693 
L 228.605935 196.175842 
L 228.884267 196.175842 
L 228.884267 195.82099 
L 229.068833 195.82099 
L 229.068833 194.756436 
L 229.617861 194.756436 
L 229.617861 194.401584 
L 230.160018 194.401584 
L 230.249722 193.33703 
L 231.180565 193.33703 
L 231.268182 192.627327 
L 231.355623 192.627327 
L 231.355623 192.272475 
L 231.876593 192.272475 
L 231.876593 191.562772 
L 232.688862 191.562772 
L 232.688862 191.207921 
L 233.527743 191.207921 
L 233.527743 190.853069 
L 234.35069 190.853069 
L 234.35069 190.498218 
L 234.472794 190.498218 
L 234.472794 190.143366 
L 235.118272 190.143366 
L 235.118272 189.788515 
L 235.357868 189.788515 
L 235.357868 189.433663 
L 235.635732 189.433663 
L 235.635732 189.078812 
L 236.225222 189.078812 
L 236.303218 188.369109 
L 236.575104 188.369109 
L 236.575104 188.014257 
L 236.729705 188.014257 
L 236.806799 187.304554 
L 237.380673 187.304554 
L 237.380673 186.949703 
L 237.871955 186.949703 
L 237.947045 186.24 
L 238.506109 186.24 
L 238.506109 185.885149 
L 238.764557 185.885149 
L 238.764557 185.530297 
L 239.167601 185.530297 
L 239.167601 185.175446 
L 239.385872 185.175446 
L 239.385872 184.820594 
L 239.530778 184.820594 
L 239.530778 184.465743 
L 240.21254 184.465743 
L 240.283684 183.75604 
L 240.567099 183.75604 
L 240.637664 183.046337 
L 240.848672 183.046337 
L 240.848672 182.691485 
L 241.371738 182.691485 
L 241.371738 181.981782 
L 241.922803 181.981782 
L 241.922803 181.626931 
L 242.33155 181.626931 
L 242.399301 180.917228 
L 242.702877 180.917228 
L 242.702877 180.562376 
L 243.104364 180.562376 
L 243.170918 179.852673 
L 243.23737 179.852673 
L 243.23737 179.497822 
L 243.502165 179.497822 
L 243.502165 179.14297 
L 243.73254 179.14297 
L 243.73254 178.788119 
L 244.157156 178.788119 
L 244.157156 178.433267 
L 244.898355 178.433267 
L 244.930295 177.723564 
L 246.343765 177.723564 
L 246.343765 177.013861 
L 247.109547 177.013861 
L 247.139899 176.304158 
L 247.321563 176.304158 
L 247.381949 175.594455 
L 247.442251 175.594455 
L 247.442251 175.239604 
L 247.80231 175.239604 
L 247.80231 174.884752 
L 248.835708 174.884752 
L 248.835708 174.529901 
L 249.300032 174.529901 
L 249.300032 174.17505 
L 249.958899 174.17505 
L 249.958899 173.820198 
L 250.242268 173.820198 
L 250.242268 173.465347 
L 250.355098 173.465347 
L 250.355098 173.110495 
L 250.579881 173.110495 
L 250.635895 172.400792 
L 251.494978 172.400792 
L 251.494978 172.045941 
L 252.094479 172.045941 
L 252.094479 171.691089 
L 252.471705 171.691089 
L 252.471705 171.336238 
L 253.792748 171.336238 
L 253.792748 170.981386 
L 254.000426 170.981386 
L 254.000426 170.626535 
L 254.155534 170.626535 
L 254.155534 170.271683 
L 254.846731 170.271683 
L 254.846731 169.916832 
L 254.998844 169.916832 
L 254.998844 169.56198 
L 255.150425 169.56198 
L 255.150425 168.852277 
L 255.900476 168.852277 
L 255.900476 168.497426 
L 256.073635 168.497426 
L 256.172273 167.787723 
L 256.221508 167.787723 
L 256.319811 166.368317 
L 256.393392 166.368317 
L 256.393392 166.013465 
L 256.588999 166.013465 
L 256.588999 165.658614 
L 257.434545 165.658614 
L 257.458463 164.948911 
L 258.146393 164.948911 
L 258.240429 164.239208 
L 259.008532 164.239208 
L 259.008532 163.884356 
L 259.330324 163.884356 
L 259.330324 163.529505 
L 259.513138 163.529505 
L 259.513138 163.174653 
L 259.966826 163.174653 
L 259.966826 162.819802 
L 261.300066 162.819802 
L 261.300066 162.46495 
L 261.97316 162.46495 
L 261.97316 162.110099 
L 263.952476 162.110099 
L 263.952476 161.755248 
L 264.321391 161.755248 
L 264.321391 161.400396 
L 264.828619 161.400396 
L 264.828619 161.045545 
L 264.989685 161.045545 
L 264.989685 160.690693 
L 266.510081 160.690693 
L 266.510081 160.335842 
L 267.469528 160.335842 
L 267.469528 159.98099 
L 267.79096 159.98099 
L 267.79096 159.626139 
L 269.016747 159.626139 
L 269.016747 159.271287 
L 271.43827 159.271287 
L 271.43827 158.916436 
L 272.31255 158.916436 
L 272.31255 158.561584 
L 274.657792 158.561584 
L 274.673866 157.851881 
L 275.548864 157.851881 
L 275.548864 157.49703 
L 275.878347 157.49703 
L 275.972027 156.787327 
L 276.26735 156.787327 
L 276.26735 156.432475 
L 279.158376 156.432475 
L 279.158376 156.077624 
L 279.389608 156.077624 
L 279.418425 155.367921 
L 279.91965 155.367921 
L 279.91965 155.013069 
L 280.821445 155.013069 
L 280.821445 154.658218 
L 281.963683 154.658218 
L 281.963683 154.303366 
L 282.112829 154.303366 
L 282.112829 153.948515 
L 283.602877 153.948515 
L 283.602877 153.593663 
L 284.135777 153.593663 
L 284.135777 153.238812 
L 284.700471 153.238812 
L 284.700471 152.88396 
L 285.081313 152.88396 
L 285.081313 152.529109 
L 286.510962 152.529109 
L 286.547633 151.819406 
L 286.924761 151.819406 
L 286.924761 151.464554 
L 287.334645 151.464554 
L 287.334645 151.109703 
L 288.832279 151.109703 
L 288.832279 150.754851 
L 290.614875 150.754851 
L 290.614875 150.4 
L 291.561106 150.4 
L 291.561106 150.045149 
L 294.025505 150.045149 
L 294.025505 149.690297 
L 294.678584 149.690297 
L 294.678584 149.335446 
L 296.803116 149.335446 
L 296.803116 148.980594 
L 298.947796 148.980594 
L 298.956972 148.270891 
L 300.391857 148.270891 
L 300.391857 147.91604 
L 303.689499 147.91604 
L 303.771682 147.206337 
L 305.232866 147.206337 
L 305.232866 146.851485 
L 305.94148 146.851485 
L 305.94148 146.496634 
L 306.190665 146.496634 
L 306.190665 146.141782 
L 306.89155 146.141782 
L 306.89155 145.786931 
L 307.188493 145.786931 
L 307.188493 145.432079 
L 308.304589 145.432079 
L 308.304589 145.077228 
L 309.515078 145.077228 
L 309.515078 144.722376 
L 309.837478 144.722376 
L 309.837478 144.367525 
L 310.150411 144.367525 
L 310.150411 144.012673 
L 314.012367 144.012673 
L 314.038288 143.30297 
L 314.853317 143.30297 
L 314.853317 142.948119 
L 315.358961 142.948119 
L 315.384089 142.238416 
L 315.503248 142.238416 
L 315.503248 141.883564 
L 316.192913 141.883564 
L 316.192913 141.528713 
L 317.095716 141.528713 
L 317.095716 141.173861 
L 318.151284 141.173861 
L 318.151284 140.81901 
L 320.064429 140.81901 
L 320.064429 140.464158 
L 321.723393 140.464158 
L 321.723393 140.109307 
L 323.804753 140.109307 
L 323.804753 139.754455 
L 327.561753 139.754455 
L 327.561753 139.399604 
L 329.007203 139.399604 
L 329.007203 139.044752 
L 329.417974 139.044752 
L 329.417974 138.689901 
L 329.757333 138.689901 
L 329.757333 138.33505 
L 333.552419 138.33505 
L 333.552419 137.980198 
L 334.256869 137.980198 
L 334.256869 137.625347 
L 335.71881 137.625347 
L 335.71881 137.270495 
L 336.846965 137.270495 
L 336.846965 136.915644 
L 338.623918 136.915644 
L 338.623918 136.560792 
L 341.604346 136.560792 
L 341.604346 136.205941 
L 344.066932 136.205941 
L 344.066932 135.851089 
L 347.7033 135.851089 
L 347.7033 135.496238 
L 351.085521 135.496238 
L 351.085521 135.141386 
L 354.209913 135.141386 
L 354.209913 134.786535 
L 358.250063 134.786535 
L 358.250063 134.431683 
L 364.681037 134.431683 
L 364.681037 134.076832 
L 365.534128 134.076832 
L 365.534128 133.72198 
L 369.906598 133.72198 
L 369.906598 133.367129 
L 371.953944 133.367129 
L 371.953944 133.012277 
L 373.651094 133.012277 
L 373.651094 132.657426 
L 374.063167 132.657426 
L 374.063167 132.302574 
L 374.42798 132.302574 
L 374.42798 131.947723 
L 375.724866 131.947723 
L 375.724866 131.592871 
L 376.319816 131.592871 
L 376.319816 131.23802 
L 377.145898 131.23802 
L 377.145898 130.883168 
L 383.18053 130.883168 
L 383.18053 130.528317 
L 384.780563 130.528317 
L 384.780563 130.173465 
L 385.070722 130.173465 
L 385.070722 129.818614 
L 387.055186 129.818614 
L 387.055186 129.463762 
L 388.305291 129.463762 
L 388.305291 129.108911 
L 389.136269 129.108911 
L 389.136269 128.754059 
L 390.920294 128.754059 
L 390.920294 128.399208 
L 393.685293 128.399208 
L 393.685293 128.044356 
L 394.037367 128.044356 
L 394.037367 127.689505 
L 394.325714 127.689505 
L 394.325714 127.334653 
L 399.94205 127.334653 
L 399.94205 126.979802 
L 404.571436 126.979802 
L 404.571436 126.62495 
L 404.874998 126.62495 
L 404.874998 126.270099 
L 407.101474 126.270099 
L 407.101474 125.915248 
L 408.638425 125.915248 
L 408.638425 125.560396 
L 409.061838 125.560396 
L 409.061838 125.205545 
L 409.367196 125.205545 
L 409.367196 124.850693 
L 413.189422 124.850693 
L 413.189422 124.495842 
L 415.293928 124.495842 
L 415.293928 124.14099 
L 416.774874 124.14099 
L 416.774874 123.786139 
L 422.494236 123.786139 
L 422.494236 123.431287 
L 423.292543 123.431287 
L 423.292543 123.076436 
L 424.458523 123.076436 
L 424.458523 122.721584 
L 428.931168 122.721584 
L 428.931168 122.366733 
L 432.273092 122.366733 
L 432.273092 122.011881 
L 434.849527 122.011881 
L 434.849527 121.65703 
L 440.32318 121.65703 
L 440.32318 121.302178 
L 441.783397 121.302178 
L 441.783397 120.947327 
L 442.437288 120.947327 
L 442.437288 120.592475 
L 442.568891 120.592475 
L 442.568891 120.237624 
L 447.144168 120.237624 
L 447.144168 119.882772 
L 460.189635 119.882772 
L 460.189635 119.527921 
L 460.189635 119.527921 
L 460.8 119.527921 
L 460.8 119.527921 
" style="fill:none;stroke:#bf00bf;stroke-linecap:square;stroke-width:1.5;"/>
   </g>
   <g id="line2d_90">
    <path clip-path="url(#p7007ecd5ba)" style="fill:none;stroke:#bf00bf;stroke-linecap:square;stroke-width:1.5;"/>
   </g>
   <g id="line2d_91">
    <path clip-path="url(#p7007ecd5ba)" d="M 103.6073 293.76 
L 103.6073 293.405149 
L 108.338562 293.405149 
L 108.338562 293.050297 
L 112.60366 293.050297 
L 112.60366 292.695446 
L 127.374935 292.695446 
L 127.374935 272.114059 
L 132.37099 272.114059 
L 132.37099 271.759208 
L 144.295779 271.759208 
L 144.295779 256.145743 
L 144.94246 256.145743 
L 144.94246 245.85505 
L 145.579631 245.85505 
L 145.579631 245.145347 
L 145.894737 245.145347 
L 145.894737 244.790495 
L 146.207568 244.790495 
L 146.207568 244.435644 
L 149.5074 244.435644 
L 149.5074 244.080792 
L 150.365385 244.080792 
L 150.365385 243.725941 
L 156.43314 243.725941 
L 156.43314 242.661386 
L 165.903858 242.661386 
L 165.903858 241.951683 
L 166.881932 241.951683 
L 166.881932 241.596832 
L 174.49024 241.596832 
L 174.49024 241.24198 
L 176.395024 241.24198 
L 176.395024 240.887129 
L 180.679529 240.887129 
L 180.679529 240.532277 
L 180.959963 240.532277 
L 180.959963 239.822574 
L 182.605484 239.822574 
L 182.605484 239.467723 
L 183.668773 239.467723 
L 183.668773 238.75802 
L 187.318182 238.75802 
L 187.318182 238.403168 
L 188.036323 238.403168 
L 188.036323 237.693465 
L 188.975695 237.693465 
L 188.975695 236.983762 
L 191.238708 236.983762 
L 191.238708 236.628911 
L 192.219735 236.628911 
L 192.219735 236.274059 
L 194.323394 236.274059 
L 194.323394 235.919208 
L 195.438298 235.919208 
L 195.438298 235.564356 
L 195.935742 235.564356 
L 195.935742 235.209505 
L 196.913816 235.209505 
L 196.913816 234.854653 
L 197.680683 234.854653 
L 197.680683 234.499802 
L 197.964794 234.499802 
L 197.964794 234.14495 
L 199.449371 234.14495 
L 199.449371 233.790099 
L 200.619222 233.790099 
L 200.619222 233.435248 
L 200.88476 233.435248 
L 200.88476 232.725545 
L 201.323739 232.725545 
L 201.323739 232.370693 
L 202.614605 232.370693 
L 202.614605 232.015842 
L 203.287657 232.015842 
L 203.287657 231.66099 
L 203.53738 231.66099 
L 203.53738 231.306139 
L 205.484982 231.306139 
L 205.484982 230.951287 
L 207.877633 230.951287 
L 207.877633 230.596436 
L 209.930728 230.596436 
L 209.930728 230.241584 
L 210.781691 230.241584 
L 210.781691 229.886733 
L 213.63496 229.886733 
L 213.63496 229.531881 
L 215.500844 229.531881 
L 215.500844 229.17703 
L 216.126062 229.17703 
L 216.126062 228.822178 
L 217.350065 228.822178 
L 217.350065 228.467327 
L 217.710624 228.467327 
L 217.710624 228.112475 
L 218.127518 228.112475 
L 218.127518 227.757624 
L 219.469736 227.757624 
L 219.469736 227.402772 
L 219.983838 227.402772 
L 219.983838 227.047921 
L 220.210384 227.047921 
L 220.210384 226.693069 
L 220.938584 226.693069 
L 220.938584 226.338218 
L 221.104906 226.338218 
L 221.104906 225.983366 
L 221.600075 225.983366 
L 221.600075 225.628515 
L 222.197696 225.628515 
L 222.197696 225.273663 
L 222.787186 225.273663 
L 222.787186 224.918812 
L 224.303912 224.918812 
L 224.303912 224.56396 
L 224.662198 224.56396 
L 224.662198 224.209109 
L 224.814847 224.209109 
L 224.814847 223.854257 
L 225.017546 223.854257 
L 225.017546 223.499406 
L 225.868592 223.499406 
L 225.868592 223.144554 
L 227.330829 223.144554 
L 227.330829 222.789703 
L 227.854855 222.789703 
L 227.949455 222.08 
L 228.930482 222.08 
L 228.930482 221.725149 
L 230.025113 221.725149 
L 230.025113 221.370297 
L 231.616891 221.370297 
L 231.616891 221.015446 
L 231.790199 221.015446 
L 231.790199 220.660594 
L 232.091829 220.660594 
L 232.134748 219.950891 
L 232.942236 219.950891 
L 232.942236 219.59604 
L 233.277779 219.59604 
L 233.277779 219.241188 
L 233.527743 219.241188 
L 233.527743 218.531485 
L 235.437439 218.531485 
L 235.437439 218.176634 
L 235.556524 218.176634 
L 235.556524 217.821782 
L 236.497597 217.821782 
L 236.497597 217.466931 
L 236.652474 217.466931 
L 236.652474 217.112079 
L 238.20884 217.112079 
L 238.20884 216.757228 
L 238.506109 216.757228 
L 238.506109 216.402376 
L 238.653983 216.402376 
L 238.653983 216.047525 
L 238.874851 216.047525 
L 238.948224 215.337822 
L 239.385872 215.337822 
L 239.385872 214.98297 
L 239.639141 214.98297 
L 239.639141 214.628119 
L 239.998404 214.628119 
L 239.998404 214.273267 
L 240.425623 214.273267 
L 240.425623 213.918416 
L 241.441006 213.918416 
L 241.441006 213.563564 
L 241.57921 213.563564 
L 241.57921 213.208713 
L 241.785692 213.208713 
L 241.785692 212.853861 
L 242.702877 212.853861 
L 242.77005 212.144158 
L 243.037707 212.144158 
L 243.037707 211.789307 
L 243.303721 211.789307 
L 243.303721 211.434455 
L 243.502165 211.434455 
L 243.502165 211.079604 
L 244.254556 211.079604 
L 244.254556 210.369901 
L 245.438162 210.369901 
L 245.438162 210.01505 
L 245.940144 210.01505 
L 245.940144 209.660198 
L 246.18897 209.660198 
L 246.18897 209.305347 
L 246.31285 209.305347 
L 246.31285 208.950495 
L 247.742507 208.950495 
L 247.742507 208.595644 
L 248.542958 208.595644 
L 248.542958 208.240792 
L 249.126493 208.240792 
L 249.126493 207.885941 
L 252.659093 207.885941 
L 252.659093 207.531089 
L 253.479351 207.531089 
L 253.479351 207.176238 
L 254.052191 207.176238 
L 254.052191 206.821386 
L 254.998844 206.821386 
L 254.998844 206.466535 
L 256.977583 206.466535 
L 256.977583 206.111683 
L 257.38667 206.111683 
L 257.38667 205.756832 
L 258.521317 205.756832 
L 258.521317 205.40198 
L 260.214345 205.40198 
L 260.214345 205.047129 
L 263.058249 205.047129 
L 263.058249 204.692277 
L 263.828802 204.692277 
L 263.828802 204.337426 
L 264.788258 204.337426 
L 264.788258 203.982574 
L 264.949475 203.982574 
L 264.949475 203.627723 
L 265.449444 203.627723 
L 265.449444 203.272871 
L 265.568583 203.272871 
L 265.568583 202.91802 
L 266.490674 202.91802 
L 266.490674 202.563168 
L 267.011644 202.563168 
L 267.011644 202.208317 
L 267.35551 202.208317 
L 267.35551 201.853465 
L 268.814842 201.853465 
L 268.814842 201.498614 
L 269.071649 201.498614 
L 269.071649 201.143762 
L 269.743115 201.143762 
L 269.743115 200.788911 
L 271.16031 200.788911 
L 271.16031 200.434059 
L 271.834738 200.434059 
L 271.834738 200.079208 
L 272.701134 200.079208 
L 272.801934 198.659802 
L 273.616466 198.659802 
L 273.616466 198.30495 
L 274.448289 198.30495 
L 274.448289 197.950099 
L 276.065505 197.950099 
L 276.112168 197.240396 
L 276.529891 197.240396 
L 276.529891 196.885545 
L 277.684532 196.885545 
L 277.684532 196.530693 
L 278.339208 196.530693 
L 278.339208 196.175842 
L 280.004995 196.175842 
L 280.004995 195.82099 
L 280.751664 195.82099 
L 280.751664 195.466139 
L 281.841271 195.466139 
L 281.841271 195.111287 
L 283.195555 195.111287 
L 283.195555 194.756436 
L 284.495978 194.756436 
L 284.495978 194.401584 
L 286.81561 194.401584 
L 286.81561 194.046733 
L 287.346642 194.046733 
L 287.346642 193.691881 
L 287.681214 193.691881 
L 287.681214 193.33703 
L 288.785891 193.33703 
L 288.785891 192.982178 
L 289.098054 192.982178 
L 289.098054 192.627327 
L 289.840459 192.627327 
L 289.840459 192.272475 
L 294.179456 192.272475 
L 294.179456 191.917624 
L 309.139513 191.917624 
L 309.139513 191.562772 
L 309.844615 191.562772 
L 309.844615 191.207921 
L 313.028964 191.207921 
L 313.028964 190.853069 
L 313.745779 190.853069 
L 313.745779 190.498218 
L 313.999401 190.498218 
L 313.999401 190.143366 
L 324.052247 190.143366 
L 324.052247 189.788515 
L 324.339215 189.788515 
L 324.339215 189.433663 
L 327.032236 189.433663 
L 327.032236 189.078812 
L 327.1999 189.078812 
L 327.1999 188.72396 
L 331.799728 188.72396 
L 331.799728 188.369109 
L 333.457345 188.369109 
L 333.457345 188.014257 
L 335.996785 188.014257 
L 335.996785 187.659406 
L 336.485746 187.659406 
L 336.508892 186.949703 
L 338.898522 186.949703 
L 338.898522 186.594851 
L 339.036993 186.594851 
L 339.036993 185.885149 
L 341.789109 185.885149 
L 341.789109 185.530297 
L 343.024362 185.530297 
L 343.024362 185.175446 
L 343.885145 185.175446 
L 343.885145 184.820594 
L 344.099314 184.820594 
L 344.099314 184.465743 
L 344.530911 184.465743 
L 344.530911 184.110891 
L 348.138958 184.110891 
L 348.138958 183.75604 
L 348.579037 183.75604 
L 348.579037 183.401188 
L 352.943268 183.401188 
L 352.943268 183.046337 
L 355.278328 183.046337 
L 355.278328 182.691485 
L 362.195543 182.691485 
L 362.195543 182.336634 
L 364.414508 182.336634 
L 364.414508 181.981782 
L 369.081609 181.981782 
L 369.081609 181.626931 
L 377.043116 181.626931 
L 377.043116 181.272079 
L 385.975303 181.272079 
L 385.975303 180.917228 
L 386.209858 180.917228 
L 386.209858 180.562376 
L 389.954979 180.562376 
L 389.954979 180.207525 
L 391.713826 180.207525 
L 391.815097 179.14297 
L 392.298783 179.14297 
L 392.298783 178.788119 
L 392.953583 178.788119 
L 392.953583 178.433267 
L 394.199607 178.433267 
L 394.199607 178.078416 
L 395.327524 178.078416 
L 395.327524 177.723564 
L 397.470593 177.723564 
L 397.470593 177.368713 
L 401.254686 177.368713 
L 401.254686 177.013861 
L 401.881034 177.013861 
L 401.881034 176.65901 
L 403.896019 176.65901 
L 403.896019 176.304158 
L 408.701145 176.304158 
L 408.701145 175.949307 
L 422.643987 175.949307 
L 422.643987 175.594455 
L 423.828857 175.594455 
L 423.828857 175.239604 
L 427.764701 175.239604 
L 427.764701 174.884752 
L 433.68089 174.884752 
L 433.68089 174.529901 
L 436.344326 174.529901 
L 436.344326 174.17505 
L 438.548622 174.17505 
L 438.548622 173.820198 
L 440.157775 173.820198 
L 440.157775 173.465347 
L 443.172328 173.465347 
L 443.172328 173.110495 
L 446.487117 173.110495 
L 446.487117 172.755644 
L 450.398438 172.755644 
L 450.398438 172.400792 
L 451.013712 172.400792 
L 451.013712 172.045941 
L 451.308018 172.045941 
L 451.308018 171.691089 
L 451.308018 171.691089 
L 460.8 171.691089 
L 460.8 171.691089 
" style="fill:none;stroke:#ff0000;stroke-linecap:square;stroke-width:3;"/>
   </g>
   <g id="line2d_92">
    <path clip-path="url(#p7007ecd5ba)" style="fill:none;stroke:#ff0000;stroke-linecap:square;stroke-width:3;"/>
   </g>
   <g id="line2d_93">
    <path clip-path="url(#p7007ecd5ba)" d="M 460.8 293.76 
L 460.8 3.456 
" style="fill:none;stroke:#000000;stroke-linecap:square;stroke-width:1.5;"/>
   </g>
   <g id="patch_3">
    <path d="M 62.208 293.76 
L 62.208 3.456 
" style="fill:none;stroke:#000000;stroke-linecap:square;stroke-linejoin:miter;stroke-width:0.8;"/>
   </g>
   <g id="patch_4">
    <path d="M 460.8 293.76 
L 460.8 3.456 
" style="fill:none;stroke:#000000;stroke-linecap:square;stroke-linejoin:miter;stroke-width:0.8;"/>
   </g>
   <g id="patch_5">
    <path d="M 62.208 293.76 
L 460.8 293.76 
" style="fill:none;stroke:#000000;stroke-linecap:square;stroke-linejoin:miter;stroke-width:0.8;"/>
   </g>
   <g id="patch_6">
    <path d="M 62.208 3.456 
L 460.8 3.456 
" style="fill:none;stroke:#000000;stroke-linecap:square;stroke-linejoin:miter;stroke-width:0.8;"/>
   </g>
   <g id="text_13">
    <!-- {f1-f54}, 20-D -->
    <g transform="translate(188.654 24.458955)scale(0.2 -0.2)">
     <defs>
      <path d="M 51.125 -9.28125 
L 51.125 -16.3125 
L 48.09375 -16.3125 
Q 35.9375 -16.3125 31.8125 -12.6875 
Q 27.6875 -9.078125 27.6875 1.703125 
L 27.6875 13.375 
Q 27.6875 20.75 25.046875 23.578125 
Q 22.40625 26.421875 15.484375 26.421875 
L 12.5 26.421875 
L 12.5 33.40625 
L 15.484375 33.40625 
Q 22.46875 33.40625 25.078125 36.203125 
Q 27.6875 39.015625 27.6875 46.296875 
L 27.6875 58.015625 
Q 27.6875 68.796875 31.8125 72.390625 
Q 35.9375 75.984375 48.09375 75.984375 
L 51.125 75.984375 
L 51.125 69 
L 47.796875 69 
Q 40.921875 69 38.8125 66.84375 
Q 36.71875 64.703125 36.71875 57.8125 
L 36.71875 45.703125 
Q 36.71875 38.03125 34.5 34.5625 
Q 32.28125 31.109375 26.90625 29.890625 
Q 32.328125 28.5625 34.515625 25.09375 
Q 36.71875 21.625 36.71875 14.015625 
L 36.71875 1.90625 
Q 36.71875 -4.984375 38.8125 -7.125 
Q 40.921875 -9.28125 47.796875 -9.28125 
z
" id="DejaVuSans-123"/>
      <path d="M 4.890625 31.390625 
L 31.203125 31.390625 
L 31.203125 23.390625 
L 4.890625 23.390625 
z
" id="DejaVuSans-45"/>
      <path d="M 10.796875 72.90625 
L 49.515625 72.90625 
L 49.515625 64.59375 
L 19.828125 64.59375 
L 19.828125 46.734375 
Q 21.96875 47.46875 24.109375 47.828125 
Q 26.265625 48.1875 28.421875 48.1875 
Q 40.625 48.1875 47.75 41.5 
Q 54.890625 34.8125 54.890625 23.390625 
Q 54.890625 11.625 47.5625 5.09375 
Q 40.234375 -1.421875 26.90625 -1.421875 
Q 22.3125 -1.421875 17.546875 -0.640625 
Q 12.796875 0.140625 7.71875 1.703125 
L 7.71875 11.625 
Q 12.109375 9.234375 16.796875 8.0625 
Q 21.484375 6.890625 26.703125 6.890625 
Q 35.15625 6.890625 40.078125 11.328125 
Q 45.015625 15.765625 45.015625 23.390625 
Q 45.015625 31 40.078125 35.4375 
Q 35.15625 39.890625 26.703125 39.890625 
Q 22.75 39.890625 18.8125 39.015625 
Q 14.890625 38.140625 10.796875 36.28125 
z
" id="DejaVuSans-53"/>
      <path d="M 12.5 -9.28125 
L 15.921875 -9.28125 
Q 22.75 -9.28125 24.828125 -7.171875 
Q 26.90625 -5.078125 26.90625 1.90625 
L 26.90625 14.015625 
Q 26.90625 21.625 29.09375 25.09375 
Q 31.296875 28.5625 36.71875 29.890625 
Q 31.296875 31.109375 29.09375 34.5625 
Q 26.90625 38.03125 26.90625 45.703125 
L 26.90625 57.8125 
Q 26.90625 64.75 24.828125 66.875 
Q 22.75 69 15.921875 69 
L 12.5 69 
L 12.5 75.984375 
L 15.578125 75.984375 
Q 27.734375 75.984375 31.8125 72.390625 
Q 35.890625 68.796875 35.890625 58.015625 
L 35.890625 46.296875 
Q 35.890625 39.015625 38.515625 36.203125 
Q 41.15625 33.40625 48.09375 33.40625 
L 51.125 33.40625 
L 51.125 26.421875 
L 48.09375 26.421875 
Q 41.15625 26.421875 38.515625 23.578125 
Q 35.890625 20.75 35.890625 13.375 
L 35.890625 1.703125 
Q 35.890625 -9.078125 31.8125 -12.6875 
Q 27.734375 -16.3125 15.578125 -16.3125 
L 12.5 -16.3125 
z
" id="DejaVuSans-125"/>
      <path d="M 11.71875 12.40625 
L 22.015625 12.40625 
L 22.015625 4 
L 14.015625 -11.625 
L 7.71875 -11.625 
L 11.71875 4 
z
" id="DejaVuSans-44"/>
     </defs>
     <use xlink:href="#DejaVuSans-123"/>
     <use x="63.623047" xlink:href="#DejaVuSans-102"/>
     <use x="98.828125" xlink:href="#DejaVuSans-49"/>
     <use x="162.451172" xlink:href="#DejaVuSans-45"/>
     <use x="198.535156" xlink:href="#DejaVuSans-102"/>
     <use x="233.740234" xlink:href="#DejaVuSans-53"/>
     <use x="297.363281" xlink:href="#DejaVuSans-52"/>
     <use x="360.986328" xlink:href="#DejaVuSans-125"/>
     <use x="424.609375" xlink:href="#DejaVuSans-44"/>
     <use x="456.396484" xlink:href="#DejaVuSans-32"/>
     <use x="488.183594" xlink:href="#DejaVuSans-50"/>
     <use x="551.806641" xlink:href="#DejaVuSans-48"/>
     <use x="615.429688" xlink:href="#DejaVuSans-45"/>
     <use x="651.513672" xlink:href="#DejaVuSans-68"/>
    </g>
   </g>
   <g id="text_14">
    <!-- absolute targets -->
    <g transform="translate(62.208 607.111604)scale(0.14 -0.14)">
     <defs>
      <path d="M 48.6875 27.296875 
Q 48.6875 37.203125 44.609375 42.84375 
Q 40.53125 48.484375 33.40625 48.484375 
Q 26.265625 48.484375 22.1875 42.84375 
Q 18.109375 37.203125 18.109375 27.296875 
Q 18.109375 17.390625 22.1875 11.75 
Q 26.265625 6.109375 33.40625 6.109375 
Q 40.53125 6.109375 44.609375 11.75 
Q 48.6875 17.390625 48.6875 27.296875 
z
M 18.109375 46.390625 
Q 20.953125 51.265625 25.265625 53.625 
Q 29.59375 56 35.59375 56 
Q 45.5625 56 51.78125 48.09375 
Q 58.015625 40.1875 58.015625 27.296875 
Q 58.015625 14.40625 51.78125 6.484375 
Q 45.5625 -1.421875 35.59375 -1.421875 
Q 29.59375 -1.421875 25.265625 0.953125 
Q 20.953125 3.328125 18.109375 8.203125 
L 18.109375 0 
L 9.078125 0 
L 9.078125 75.984375 
L 18.109375 75.984375 
z
" id="DejaVuSans-98"/>
      <path d="M 8.5 21.578125 
L 8.5 54.6875 
L 17.484375 54.6875 
L 17.484375 21.921875 
Q 17.484375 14.15625 20.5 10.265625 
Q 23.53125 6.390625 29.59375 6.390625 
Q 36.859375 6.390625 41.078125 11.03125 
Q 45.3125 15.671875 45.3125 23.6875 
L 45.3125 54.6875 
L 54.296875 54.6875 
L 54.296875 0 
L 45.3125 0 
L 45.3125 8.40625 
Q 42.046875 3.421875 37.71875 1 
Q 33.40625 -1.421875 27.6875 -1.421875 
Q 18.265625 -1.421875 13.375 4.4375 
Q 8.5 10.296875 8.5 21.578125 
z
M 31.109375 56 
z
" id="DejaVuSans-117"/>
     </defs>
     <use xlink:href="#DejaVuSans-97"/>
     <use x="61.279297" xlink:href="#DejaVuSans-98"/>
     <use x="124.755859" xlink:href="#DejaVuSans-115"/>
     <use x="176.855469" xlink:href="#DejaVuSans-111"/>
     <use x="238.037109" xlink:href="#DejaVuSans-108"/>
     <use x="265.820312" xlink:href="#DejaVuSans-117"/>
     <use x="329.199219" xlink:href="#DejaVuSans-116"/>
     <use x="368.408203" xlink:href="#DejaVuSans-101"/>
     <use x="429.931641" xlink:href="#DejaVuSans-32"/>
     <use x="461.71875" xlink:href="#DejaVuSans-116"/>
     <use x="500.927734" xlink:href="#DejaVuSans-97"/>
     <use x="562.207031" xlink:href="#DejaVuSans-114"/>
     <use x="601.570312" xlink:href="#DejaVuSans-103"/>
     <use x="665.046875" xlink:href="#DejaVuSans-101"/>
     <use x="726.570312" xlink:href="#DejaVuSans-116"/>
     <use x="765.779297" xlink:href="#DejaVuSans-115"/>
    </g>
   </g>
   <g id="text_15">
    <!-- v2.4.161 -->
    <g style="fill:#808080;" transform="translate(239.46025 288.777272)scale(0.1 -0.1)">
     <use xlink:href="#DejaVuSans-118"/>
     <use x="59.179688" xlink:href="#DejaVuSans-50"/>
     <use x="122.802734" xlink:href="#DejaVuSans-46"/>
     <use x="154.589844" xlink:href="#DejaVuSans-52"/>
     <use x="218.212891" xlink:href="#DejaVuSans-46"/>
     <use x="250" xlink:href="#DejaVuSans-49"/>
     <use x="313.623047" xlink:href="#DejaVuSans-54"/>
     <use x="377.246094" xlink:href="#DejaVuSans-49"/>
    </g>
   </g>
   <g id="legend_1">
    <g id="patch_7">
     <path d="M 292.128125 283.76 
L 446.8 283.76 
Q 450.8 283.76 450.8 279.76 
L 450.8 164.335 
Q 450.8 160.335 446.8 160.335 
L 292.128125 160.335 
Q 288.128125 160.335 288.128125 164.335 
L 288.128125 279.76 
Q 288.128125 283.76 292.128125 283.76 
z
" style="fill:#ffffff;opacity:0.2;stroke:#cccccc;stroke-linejoin:miter;"/>
    </g>
    <g id="line2d_94">
     <path d="M 296.128125 176.531875 
L 336.128125 176.531875 
" style="fill:none;stroke:#000000;stroke-linecap:square;stroke-width:1.5;"/>
    </g>
    <g id="line2d_95"/>
    <g id="text_16">
     <!-- 1: 44/54 -->
     <g transform="translate(352.128125 183.531875)scale(0.2 -0.2)">
      <defs>
       <path d="M 11.71875 12.40625 
L 22.015625 12.40625 
L 22.015625 0 
L 11.71875 0 
z
M 11.71875 51.703125 
L 22.015625 51.703125 
L 22.015625 39.3125 
L 11.71875 39.3125 
z
" id="DejaVuSans-58"/>
      </defs>
      <use xlink:href="#DejaVuSans-49"/>
      <use x="63.623047" xlink:href="#DejaVuSans-58"/>
      <use x="97.314453" xlink:href="#DejaVuSans-32"/>
      <use x="129.101562" xlink:href="#DejaVuSans-52"/>
      <use x="192.724609" xlink:href="#DejaVuSans-52"/>
      <use x="256.347656" xlink:href="#DejaVuSans-47"/>
      <use x="290.039062" xlink:href="#DejaVuSans-53"/>
      <use x="353.662109" xlink:href="#DejaVuSans-52"/>
     </g>
    </g>
    <g id="line2d_96">
     <path d="M 296.128125 205.888125 
L 336.128125 205.888125 
" style="fill:none;stroke:#00bfbf;stroke-linecap:square;stroke-width:1.5;"/>
    </g>
    <g id="line2d_97"/>
    <g id="text_17">
     <!-- -1: 43/54 -->
     <g transform="translate(352.128125 212.888125)scale(0.2 -0.2)">
      <use xlink:href="#DejaVuSans-45"/>
      <use x="36.083984" xlink:href="#DejaVuSans-49"/>
      <use x="99.707031" xlink:href="#DejaVuSans-58"/>
      <use x="133.398438" xlink:href="#DejaVuSans-32"/>
      <use x="165.185547" xlink:href="#DejaVuSans-52"/>
      <use x="228.808594" xlink:href="#DejaVuSans-51"/>
      <use x="292.431641" xlink:href="#DejaVuSans-47"/>
      <use x="326.123047" xlink:href="#DejaVuSans-53"/>
      <use x="389.746094" xlink:href="#DejaVuSans-52"/>
     </g>
    </g>
    <g id="line2d_98">
     <path d="M 296.128125 235.244375 
L 336.128125 235.244375 
" style="fill:none;stroke:#bf00bf;stroke-linecap:square;stroke-width:1.5;"/>
    </g>
    <g id="line2d_99"/>
    <g id="text_18">
     <!-- -4: 37/54 -->
     <g transform="translate(352.128125 242.244375)scale(0.2 -0.2)">
      <defs>
       <path d="M 8.203125 72.90625 
L 55.078125 72.90625 
L 55.078125 68.703125 
L 28.609375 0 
L 18.3125 0 
L 43.21875 64.59375 
L 8.203125 64.59375 
z
" id="DejaVuSans-55"/>
      </defs>
      <use xlink:href="#DejaVuSans-45"/>
      <use x="36.083984" xlink:href="#DejaVuSans-52"/>
      <use x="99.707031" xlink:href="#DejaVuSans-58"/>
      <use x="133.398438" xlink:href="#DejaVuSans-32"/>
      <use x="165.185547" xlink:href="#DejaVuSans-51"/>
      <use x="228.808594" xlink:href="#DejaVuSans-55"/>
      <use x="292.431641" xlink:href="#DejaVuSans-47"/>
      <use x="326.123047" xlink:href="#DejaVuSans-53"/>
      <use x="389.746094" xlink:href="#DejaVuSans-52"/>
     </g>
    </g>
    <g id="line2d_100">
     <path d="M 296.128125 264.600625 
L 336.128125 264.600625 
" style="fill:none;stroke:#ff0000;stroke-linecap:square;stroke-width:3;"/>
    </g>
    <g id="line2d_101"/>
    <g id="text_19">
     <!-- -6: 31/54 -->
     <g transform="translate(352.128125 271.600625)scale(0.2 -0.2)">
      <use xlink:href="#DejaVuSans-45"/>
      <use x="36.083984" xlink:href="#DejaVuSans-54"/>
      <use x="99.707031" xlink:href="#DejaVuSans-58"/>
      <use x="133.398438" xlink:href="#DejaVuSans-32"/>
      <use x="165.185547" xlink:href="#DejaVuSans-51"/>
      <use x="228.808594" xlink:href="#DejaVuSans-49"/>
      <use x="292.431641" xlink:href="#DejaVuSans-47"/>
      <use x="326.123047" xlink:href="#DejaVuSans-53"/>
      <use x="389.746094" xlink:href="#DejaVuSans-52"/>
     </g>
    </g>
   </g>
  </g>
 </g>
 <defs>
  <clipPath id="p7007ecd5ba">
   <rect height="290.304" width="398.592" x="62.208" y="3.456"/>
  </clipPath>
 </defs>
</svg>
