<?xml version="1.0" encoding="utf-8" standalone="no"?>
<!DOCTYPE svg PUBLIC "-//W3C//DTD SVG 1.1//EN"
  "http://www.w3.org/Graphics/SVG/1.1/DTD/svg11.dtd">
<!-- Created with matplotlib (https://matplotlib.org/) -->
<svg height="345.6pt" version="1.1" viewBox="0 0 460.8 345.6" width="460.8pt" xmlns="http://www.w3.org/2000/svg" xmlns:xlink="http://www.w3.org/1999/xlink">
 <metadata>
  <rdf:RDF xmlns:cc="http://creativecommons.org/ns#" xmlns:dc="http://purl.org/dc/elements/1.1/" xmlns:rdf="http://www.w3.org/1999/02/22-rdf-syntax-ns#">
   <cc:Work>
    <dc:type rdf:resource="http://purl.org/dc/dcmitype/StillImage"/>
    <dc:date>2022-01-12T20:48:43.688126</dc:date>
    <dc:format>image/svg+xml</dc:format>
    <dc:creator>
     <cc:Agent>
      <dc:title>Matplotlib v3.3.3, https://matplotlib.org/</dc:title>
     </cc:Agent>
    </dc:creator>
   </cc:Work>
  </rdf:RDF>
 </metadata>
 <defs>
  <style type="text/css">*{stroke-linecap:butt;stroke-linejoin:round;}</style>
 </defs>
 <g id="figure_1">
  <g id="patch_1">
   <path d="M 0 345.6 
L 460.8 345.6 
L 460.8 0 
L 0 0 
z
" style="fill:#ffffff;"/>
  </g>
  <g id="axes_1">
   <g id="patch_2">
    <path d="M 62.208 293.76 
L 460.8 293.76 
L 460.8 3.456 
L 62.208 3.456 
z
" style="fill:#ffffff;"/>
   </g>
   <g id="line2d_1">
    <path clip-path="url(#p7149359460)" d="M 241.842499 293.76 
L 241.842499 287.372673 
L 241.842499 287.372673 
L 241.842499 280.985347 
L 242.109548 280.985347 
L 242.109548 274.59802 
L 242.109548 274.59802 
L 242.109548 268.210693 
L 242.109548 268.210693 
L 242.109548 261.823366 
L 242.242456 261.823366 
L 242.242456 255.43604 
L 242.242456 255.43604 
L 242.242456 249.048713 
L 242.638737 249.048713 
L 242.638737 242.661386 
L 243.806193 242.661386 
L 243.806193 236.274059 
L 243.806193 236.274059 
L 243.806193 229.886733 
L 244.567301 229.886733 
L 244.567301 223.499406 
L 244.942877 223.499406 
L 244.942877 217.112079 
L 246.292665 217.112079 
L 246.292665 210.724752 
L 247.835247 210.724752 
L 247.835247 204.337426 
L 249.098751 204.337426 
L 249.098751 197.950099 
L 288.138792 197.950099 
L 288.138792 191.562772 
L 348.30346 191.562772 
L 348.30346 185.175446 
L 378.794972 185.175446 
L 378.794972 178.788119 
L 382.379444 178.788119 
L 382.379444 172.400792 
L 387.837454 172.400792 
L 387.837454 166.013465 
L 409.930181 166.013465 
L 409.930181 159.626139 
L 420.356532 159.626139 
L 420.356532 153.238812 
L 425.656563 153.238812 
L 425.656563 146.851485 
L 425.656563 146.851485 
L 425.656563 146.851485 
L 460.8 146.851485 
" style="fill:none;stroke:#f5deb3;stroke-linecap:square;stroke-width:1.5;"/>
   </g>
   <g id="line2d_2">
    <path clip-path="url(#p7149359460)" d="M 203.382805 293.76 
L 203.382805 274.59802 
L 203.382805 274.59802 
L 203.382805 255.43604 
L 203.708303 255.43604 
L 203.708303 236.274059 
L 203.708303 236.274059 
L 203.708303 217.112079 
L 203.708303 217.112079 
L 203.708303 197.950099 
L 461.8 197.950099 
" style="fill:none;stroke:#f5deb3;stroke-linecap:square;stroke-width:1.5;"/>
   </g>
   <g id="line2d_3">
    <path clip-path="url(#p7149359460)" d="M 126.107166 293.76 
L 126.107166 287.372673 
L 126.107166 287.372673 
L 126.107166 280.985347 
L 126.107166 280.985347 
L 126.107166 274.59802 
L 126.107166 274.59802 
L 126.107166 268.210693 
L 128.024298 268.210693 
L 128.024298 261.823366 
L 128.024298 261.823366 
L 128.024298 255.43604 
L 128.024298 255.43604 
L 128.024298 249.048713 
L 129.859824 249.048713 
L 129.859824 242.661386 
L 129.859824 242.661386 
L 129.859824 236.274059 
L 131.620409 236.274059 
L 131.620409 229.886733 
L 131.620409 229.886733 
L 131.620409 223.499406 
L 131.620409 223.499406 
L 131.620409 217.112079 
L 133.311934 217.112079 
L 133.311934 210.724752 
L 134.939613 210.724752 
L 134.939613 204.337426 
L 142.267079 204.337426 
L 142.267079 197.950099 
L 392.551733 197.950099 
L 392.551733 191.562772 
L 394.956283 191.562772 
L 394.956283 185.175446 
L 396.364001 185.175446 
L 396.364001 178.788119 
L 396.745785 178.788119 
L 396.745785 172.400792 
L 397.434038 172.400792 
L 397.434038 166.013465 
L 399.351959 166.013465 
L 399.351959 159.626139 
L 401.014747 159.626139 
L 401.014747 153.238812 
L 401.168229 153.238812 
L 401.168229 146.851485 
L 403.813226 146.851485 
L 403.813226 140.464158 
L 405.922239 140.464158 
L 405.922239 134.076832 
L 406.160222 134.076832 
L 406.160222 127.689505 
L 407.555441 127.689505 
L 407.555441 121.302178 
L 446.750665 121.302178 
L 446.750665 114.914851 
L 446.750665 114.914851 
L 446.750665 114.914851 
L 460.8 114.914851 
" style="fill:none;stroke:#f5deb3;stroke-linecap:square;stroke-width:1.5;"/>
   </g>
   <g id="line2d_4">
    <path clip-path="url(#p7149359460)" d="M 99.965526 293.76 
L 99.965526 287.372673 
L 117.452569 287.372673 
L 117.452569 280.985347 
L 128.024298 280.985347 
L 128.024298 274.59802 
L 129.859824 274.59802 
L 129.859824 268.210693 
L 134.939613 268.210693 
L 134.939613 261.823366 
L 139.483638 261.823366 
L 139.483638 255.43604 
L 142.267079 255.43604 
L 142.267079 249.048713 
L 143.59421 249.048713 
L 143.59421 242.661386 
L 143.59421 242.661386 
L 143.59421 236.274059 
L 143.59421 236.274059 
L 143.59421 229.886733 
L 147.346867 229.886733 
L 147.346867 223.499406 
L 150.798977 223.499406 
L 150.798977 217.112079 
L 151.890893 217.112079 
L 151.890893 210.724752 
L 155.009964 210.724752 
L 155.009964 204.337426 
L 161.514707 204.337426 
L 161.514707 197.950099 
L 316.542545 197.950099 
L 316.542545 191.562772 
L 316.873032 191.562772 
L 316.873032 185.175446 
L 317.294256 185.175446 
L 317.294256 178.788119 
L 320.067507 178.788119 
L 320.067507 172.400792 
L 320.176555 172.400792 
L 320.176555 166.013465 
L 320.220097 166.013465 
L 320.220097 159.626139 
L 320.566859 159.626139 
L 320.566859 153.238812 
L 320.58844 153.238812 
L 320.58844 146.851485 
L 321.209619 146.851485 
L 321.209619 140.464158 
L 321.273371 140.464158 
L 321.273371 134.076832 
L 322.549637 134.076832 
L 322.549637 127.689505 
L 322.590849 127.689505 
L 322.590849 121.302178 
L 323.588433 121.302178 
L 323.588433 114.914851 
L 325.861967 114.914851 
L 325.861967 108.527525 
L 330.060964 108.527525 
L 330.060964 102.140198 
L 330.060964 102.140198 
L 330.060964 102.140198 
L 460.8 102.140198 
" style="fill:none;stroke:#f5deb3;stroke-linecap:square;stroke-width:1.5;"/>
   </g>
   <g id="line2d_5">
    <path clip-path="url(#p7149359460)" d="M 254.316671 293.76 
L 254.316671 287.372673 
L 264.060676 287.372673 
L 264.060676 280.985347 
L 265.477428 280.985347 
L 265.477428 274.59802 
L 267.445028 274.59802 
L 267.445028 268.210693 
L 268.540642 268.210693 
L 268.540642 261.823366 
L 274.461599 261.823366 
L 274.461599 255.43604 
L 280.603954 255.43604 
L 280.603954 249.048713 
L 280.658443 249.048713 
L 280.658443 242.661386 
L 282.209413 242.661386 
L 282.209413 236.274059 
L 284.610308 236.274059 
L 284.610308 229.886733 
L 292.282648 229.886733 
L 292.282648 223.499406 
L 292.490096 223.499406 
L 292.490096 217.112079 
L 292.490096 217.112079 
L 292.490096 217.112079 
L 460.8 217.112079 
" style="fill:none;stroke:#f5deb3;stroke-linecap:square;stroke-width:1.5;"/>
   </g>
   <g id="line2d_6"/>
   <g id="line2d_7">
    <path clip-path="url(#p7149359460)" d="M 200.337185 293.76 
L 200.337185 287.372673 
L 201.71741 287.372673 
L 201.71741 280.985347 
L 204.986274 280.985347 
L 204.986274 274.59802 
L 206.532259 274.59802 
L 206.532259 268.210693 
L 207.43393 268.210693 
L 207.43393 261.823366 
L 209.467293 261.823366 
L 209.467293 255.43604 
L 209.467293 255.43604 
L 209.467293 249.048713 
L 210.03107 249.048713 
L 210.03107 242.661386 
L 210.310219 242.661386 
L 210.310219 236.274059 
L 210.863154 236.274059 
L 210.863154 229.886733 
L 212.480657 229.886733 
L 212.480657 223.499406 
L 213.526244 223.499406 
L 213.526244 217.112079 
L 213.783728 217.112079 
L 213.783728 210.724752 
L 214.547081 210.724752 
L 214.547081 204.337426 
L 217.472158 204.337426 
L 217.472158 197.950099 
L 325.766402 197.950099 
L 325.766402 191.562772 
L 325.900134 191.562772 
L 325.900134 185.175446 
L 327.967116 185.175446 
L 327.967116 178.788119 
L 328.777654 178.788119 
L 328.777654 172.400792 
L 329.503112 172.400792 
L 329.503112 166.013465 
L 330.060964 166.013465 
L 330.060964 159.626139 
L 330.130191 159.626139 
L 330.130191 153.238812 
L 330.199307 153.238812 
L 330.199307 146.851485 
L 330.474669 146.851485 
L 330.474669 140.464158 
L 330.474669 140.464158 
L 330.474669 134.076832 
L 331.037109 134.076832 
L 331.037109 127.689505 
L 332.534772 127.689505 
L 332.534772 121.302178 
L 332.844404 121.302178 
L 332.844404 114.914851 
L 334.37575 114.914851 
L 334.37575 108.527525 
L 346.990155 108.527525 
L 346.990155 102.140198 
L 461.8 102.140198 
" style="fill:none;stroke:#f5deb3;stroke-linecap:square;stroke-width:1.5;"/>
   </g>
   <g id="line2d_8">
    <path clip-path="url(#p7149359460)" d="M 320.674653 293.76 
L 320.674653 287.372673 
L 321.717017 287.372673 
L 321.717017 280.985347 
L 322.260045 280.985347 
L 322.260045 274.59802 
L 322.301534 274.59802 
L 322.301534 268.210693 
L 322.384394 268.210693 
L 322.384394 261.823366 
L 322.632021 261.823366 
L 322.632021 255.43604 
L 322.693707 255.43604 
L 322.693707 249.048713 
L 322.734781 249.048713 
L 322.734781 242.661386 
L 323.548164 242.661386 
L 323.548164 236.274059 
L 323.688942 236.274059 
L 323.688942 229.886733 
L 324.366261 229.886733 
L 324.366261 223.499406 
L 324.504398 223.499406 
L 324.504398 217.112079 
L 325.708962 217.112079 
L 325.708962 210.724752 
L 338.154519 210.724752 
L 338.154519 204.337426 
L 338.269222 204.337426 
L 338.269222 197.950099 
L 461.8 197.950099 
" style="fill:none;stroke:#f5deb3;stroke-linecap:square;stroke-width:1.5;"/>
   </g>
   <g id="line2d_9">
    <path clip-path="url(#p7149359460)" d="M 146.131904 293.76 
L 146.131904 287.372673 
L 150.798977 287.372673 
L 150.798977 280.985347 
L 153.995132 280.985347 
L 153.995132 274.59802 
L 158.846123 274.59802 
L 158.846123 268.210693 
L 159.754122 268.210693 
L 159.754122 261.823366 
L 170.090817 261.823366 
L 170.090817 255.43604 
L 172.830046 255.43604 
L 172.830046 249.048713 
L 179.00175 249.048713 
L 179.00175 242.661386 
L 179.00175 242.661386 
L 179.00175 236.274059 
L 181.78519 236.274059 
L 181.78519 229.886733 
L 181.78519 229.886733 
L 181.78519 223.499406 
L 184.399831 223.499406 
L 184.399831 217.112079 
L 184.904262 217.112079 
L 184.904262 210.724752 
L 185.402861 210.724752 
L 185.402861 204.337426 
L 185.895762 204.337426 
L 185.895762 197.950099 
L 318.284169 197.950099 
L 318.284169 191.562772 
L 323.949175 191.562772 
L 323.949175 185.175446 
L 324.306923 185.175446 
L 324.306923 178.788119 
L 324.326712 178.788119 
L 324.326712 172.400792 
L 325.708962 172.400792 
L 325.708962 166.013465 
L 326.071467 166.013465 
L 326.071467 159.626139 
L 327.510147 159.626139 
L 327.510147 153.238812 
L 327.803164 153.238812 
L 327.803164 146.851485 
L 327.894325 146.851485 
L 327.894325 140.464158 
L 328.148556 140.464158 
L 328.148556 134.076832 
L 328.293161 134.076832 
L 328.293161 127.689505 
L 328.580924 127.689505 
L 328.580924 121.302178 
L 328.86678 121.302178 
L 328.86678 114.914851 
L 329.520654 114.914851 
L 329.520654 108.527525 
L 331.020173 108.527525 
L 331.020173 102.140198 
L 364.293548 102.140198 
L 364.293548 95.752871 
L 364.931001 95.752871 
L 364.931001 89.365545 
L 365.146528 89.365545 
L 365.146528 82.978218 
L 366.313049 82.978218 
L 366.313049 76.590891 
L 366.327993 76.590891 
L 366.327993 70.203564 
L 366.670283 70.203564 
L 366.670283 63.816238 
L 367.098031 63.816238 
L 367.098031 57.428911 
L 394.414365 57.428911 
L 394.414365 51.041584 
L 395.798117 51.041584 
L 395.798117 44.654257 
L 397.255708 44.654257 
L 397.255708 38.266931 
L 398.357469 38.266931 
L 398.357469 31.879604 
L 399.818402 31.879604 
L 399.818402 25.492277 
L 400.051455 25.492277 
L 400.051455 19.10495 
L 401.486791 19.10495 
L 401.486791 12.717624 
L 424.215075 12.717624 
L 424.215075 6.330297 
L 424.215075 6.330297 
L 424.215075 6.330297 
L 460.8 6.330297 
" style="fill:none;stroke:#f5deb3;stroke-linecap:square;stroke-width:1.5;"/>
   </g>
   <g id="line2d_10">
    <path clip-path="url(#p7149359460)" d="M 191.838146 293.76 
L 191.838146 287.372673 
L 199.630147 287.372673 
L 199.630147 280.985347 
L 199.985115 280.985347 
L 199.985115 274.59802 
L 199.985115 274.59802 
L 199.985115 268.210693 
L 199.985115 268.210693 
L 199.985115 261.823366 
L 201.376473 261.823366 
L 201.376473 255.43604 
L 202.391305 255.43604 
L 202.391305 249.048713 
L 206.834915 249.048713 
L 206.834915 242.661386 
L 207.43393 242.661386 
L 207.43393 236.274059 
L 213.267214 236.274059 
L 213.267214 229.886733 
L 216.27739 229.886733 
L 216.27739 223.499406 
L 223.407542 223.499406 
L 223.407542 217.112079 
L 223.612427 217.112079 
L 223.612427 210.724752 
L 230.754257 210.724752 
L 230.754257 204.337426 
L 231.611708 204.337426 
L 231.611708 197.950099 
L 461.8 197.950099 
" style="fill:none;stroke:#f5deb3;stroke-linecap:square;stroke-width:1.5;"/>
   </g>
   <g id="line2d_11">
    <path clip-path="url(#p7149359460)" d="M 109.589341 293.76 
L 109.589341 287.372673 
L 121.996595 287.372673 
L 121.996595 280.985347 
L 124.100835 280.985347 
L 124.100835 274.59802 
L 124.100835 274.59802 
L 124.100835 268.210693 
L 124.100835 268.210693 
L 124.100835 261.823366 
L 126.107166 261.823366 
L 126.107166 255.43604 
L 126.107166 255.43604 
L 126.107166 249.048713 
L 128.024298 249.048713 
L 128.024298 242.661386 
L 128.024298 242.661386 
L 128.024298 236.274059 
L 134.939613 236.274059 
L 134.939613 229.886733 
L 134.939613 229.886733 
L 134.939613 223.499406 
L 143.59421 223.499406 
L 143.59421 217.112079 
L 143.59421 217.112079 
L 143.59421 210.724752 
L 148.52854 210.724752 
L 148.52854 204.337426 
L 149.678697 204.337426 
L 149.678697 197.950099 
L 149.678697 197.950099 
L 149.678697 197.950099 
L 460.8 197.950099 
" style="fill:none;stroke:#f5deb3;stroke-linecap:square;stroke-width:1.5;"/>
   </g>
   <g id="line2d_12">
    <path clip-path="url(#p7149359460)" d="M 119.7844 293.76 
L 119.7844 287.372673 
L 119.7844 287.372673 
L 119.7844 280.985347 
L 131.620409 280.985347 
L 131.620409 274.59802 
L 140.897809 274.59802 
L 140.897809 268.210693 
L 140.897809 268.210693 
L 140.897809 261.823366 
L 140.897809 261.823366 
L 140.897809 255.43604 
L 140.897809 255.43604 
L 140.897809 249.048713 
L 140.897809 249.048713 
L 140.897809 242.661386 
L 140.897809 242.661386 
L 140.897809 236.274059 
L 140.897809 236.274059 
L 140.897809 229.886733 
L 140.897809 229.886733 
L 140.897809 223.499406 
L 148.52854 223.499406 
L 148.52854 217.112079 
L 148.52854 217.112079 
L 148.52854 210.724752 
L 148.52854 210.724752 
L 148.52854 204.337426 
L 155.009964 204.337426 
L 155.009964 197.950099 
L 155.009964 197.950099 
L 155.009964 197.950099 
L 460.8 197.950099 
" style="fill:none;stroke:#f5deb3;stroke-linecap:square;stroke-width:1.5;"/>
   </g>
   <g id="line2d_13">
    <path clip-path="url(#p7149359460)" d="M 244.188426 293.76 
L 244.188426 287.372673 
L 244.188426 287.372673 
L 244.188426 280.985347 
L 244.188426 280.985347 
L 244.188426 274.59802 
L 247.835247 274.59802 
L 247.835247 268.210693 
L 247.835247 268.210693 
L 247.835247 261.823366 
L 247.835247 261.823366 
L 247.835247 255.43604 
L 248.183526 255.43604 
L 248.183526 249.048713 
L 248.183526 249.048713 
L 248.183526 242.661386 
L 248.183526 242.661386 
L 248.183526 236.274059 
L 255.892311 236.274059 
L 255.892311 229.886733 
L 255.892311 229.886733 
L 255.892311 223.499406 
L 255.892311 223.499406 
L 255.892311 217.112079 
L 260.735071 217.112079 
L 260.735071 210.724752 
L 260.735071 210.724752 
L 260.735071 204.337426 
L 260.735071 204.337426 
L 260.735071 197.950099 
L 260.735071 197.950099 
L 260.735071 197.950099 
L 460.8 197.950099 
" style="fill:none;stroke:#f5deb3;stroke-linecap:square;stroke-width:1.5;"/>
   </g>
   <g id="line2d_14">
    <path clip-path="url(#p7149359460)" d="M 146.131904 293.76 
L 146.131904 287.372673 
L 146.131904 287.372673 
L 146.131904 280.985347 
L 147.346867 280.985347 
L 147.346867 274.59802 
L 149.678697 274.59802 
L 149.678697 268.210693 
L 152.955845 268.210693 
L 152.955845 261.823366 
L 152.955845 261.823366 
L 152.955845 255.43604 
L 152.955845 255.43604 
L 152.955845 249.048713 
L 156.001464 249.048713 
L 156.001464 242.661386 
L 157.918595 242.661386 
L 157.918595 236.274059 
L 157.918595 236.274059 
L 157.918595 229.886733 
L 157.918595 229.886733 
L 157.918595 223.499406 
L 157.918595 223.499406 
L 157.918595 217.112079 
L 157.918595 217.112079 
L 157.918595 210.724752 
L 157.918595 210.724752 
L 157.918595 204.337426 
L 157.918595 204.337426 
L 157.918595 197.950099 
L 317.549661 197.950099 
L 317.549661 191.562772 
L 331.121691 191.562772 
L 331.121691 185.175446 
L 336.231513 185.175446 
L 336.231513 178.788119 
L 342.869055 178.788119 
L 342.869055 172.400792 
L 343.785901 172.400792 
L 343.785901 166.013465 
L 348.676281 166.013465 
L 348.676281 159.626139 
L 351.273713 159.626139 
L 351.273713 153.238812 
L 362.559712 153.238812 
L 362.559712 146.851485 
L 363.134711 146.851485 
L 363.134711 140.464158 
L 380.640522 140.464158 
L 380.640522 134.076832 
L 434.443611 134.076832 
L 434.443611 127.689505 
L 447.141283 127.689505 
L 447.141283 121.302178 
L 447.141283 121.302178 
L 447.141283 121.302178 
L 460.8 121.302178 
" style="fill:none;stroke:#f5deb3;stroke-linecap:square;stroke-width:1.5;"/>
   </g>
   <g id="line2d_15"/>
   <g id="line2d_16">
    <path clip-path="url(#p7149359460)" d="M 262.263401 293.76 
L 262.263401 287.372673 
L 266.62351 287.372673 
L 266.62351 280.985347 
L 266.62351 280.985347 
L 266.62351 274.59802 
L 270.925581 274.59802 
L 270.925581 268.210693 
L 273.636454 268.210693 
L 273.636454 261.823366 
L 274.837174 261.823366 
L 274.837174 255.43604 
L 274.899454 255.43604 
L 274.899454 249.048713 
L 274.899454 249.048713 
L 274.899454 242.661386 
L 274.961643 242.661386 
L 274.961643 236.274059 
L 275.023743 236.274059 
L 275.023743 229.886733 
L 275.332908 229.886733 
L 275.332908 223.499406 
L 276.667507 223.499406 
L 276.667507 217.112079 
L 276.786811 217.112079 
L 276.786811 210.724752 
L 279.833784 210.724752 
L 279.833784 204.337426 
L 284.411101 204.337426 
L 284.411101 197.950099 
L 284.411101 197.950099 
L 284.411101 197.950099 
L 460.8 197.950099 
" style="fill:none;stroke:#f5deb3;stroke-linecap:square;stroke-width:1.5;"/>
   </g>
   <g id="line2d_17">
    <path clip-path="url(#p7149359460)" d="M 199.985115 293.76 
L 199.985115 287.372673 
L 204.670314 287.372673 
L 204.670314 280.985347 
L 214.798559 280.985347 
L 214.798559 274.59802 
L 223.816344 274.59802 
L 223.816344 268.210693 
L 225.217389 268.210693 
L 225.217389 261.823366 
L 237.328227 261.823366 
L 237.328227 255.43604 
L 241.031283 255.43604 
L 241.031283 249.048713 
L 241.16755 249.048713 
L 241.16755 242.661386 
L 243.678025 242.661386 
L 243.678025 236.274059 
L 255.406079 236.274059 
L 255.406079 229.886733 
L 264.538116 229.886733 
L 264.538116 223.499406 
L 265.088531 223.499406 
L 265.088531 217.112079 
L 265.477428 217.112079 
L 265.477428 210.724752 
L 289.535237 210.724752 
L 289.535237 204.337426 
L 289.844402 204.337426 
L 289.844402 197.950099 
L 385.194732 197.950099 
L 385.194732 191.562772 
L 388.261833 191.562772 
L 388.261833 185.175446 
L 388.708763 185.175446 
L 388.708763 178.788119 
L 391.846443 178.788119 
L 391.846443 172.400792 
L 391.891895 172.400792 
L 391.891895 166.013465 
L 392.762709 166.013465 
L 392.762709 159.626139 
L 393.209639 159.626139 
L 393.209639 153.238812 
L 393.50504 153.238812 
L 393.50504 146.851485 
L 395.316358 146.851485 
L 395.316358 140.464158 
L 395.544632 140.464158 
L 395.544632 134.076832 
L 395.756602 134.076832 
L 395.756602 127.689505 
L 395.963778 127.689505 
L 395.963778 121.302178 
L 397.131535 121.302178 
L 397.131535 114.914851 
L 397.781295 114.914851 
L 397.781295 108.527525 
L 399.587539 108.527525 
L 399.587539 102.140198 
L 449.025436 102.140198 
L 449.025436 95.752871 
L 451.943996 95.752871 
L 451.943996 89.365545 
L 458.472766 89.365545 
L 458.472766 82.978218 
L 460.079499 82.978218 
L 460.079499 76.590891 
L 460.523336 76.590891 
L 460.523336 70.203564 
L 461.8 70.203564 
" style="fill:none;stroke:#f5deb3;stroke-linecap:square;stroke-width:1.5;"/>
   </g>
   <g id="line2d_18">
    <path clip-path="url(#p7149359460)" d="M 99.965526 293.76 
L 99.965526 287.372673 
L 103.417637 287.372673 
L 103.417637 280.985347 
L 103.417637 280.985347 
L 103.417637 274.59802 
L 103.417637 274.59802 
L 103.417637 268.210693 
L 103.417637 268.210693 
L 103.417637 261.823366 
L 103.417637 261.823366 
L 103.417637 255.43604 
L 106.613792 255.43604 
L 106.613792 249.048713 
L 112.372781 249.048713 
L 112.372781 242.661386 
L 112.372781 242.661386 
L 112.372781 236.274059 
L 114.987421 236.274059 
L 114.987421 229.886733 
L 114.987421 229.886733 
L 114.987421 223.499406 
L 114.987421 223.499406 
L 114.987421 217.112079 
L 114.987421 217.112079 
L 114.987421 210.724752 
L 117.452569 210.724752 
L 117.452569 204.337426 
L 124.100835 204.337426 
L 124.100835 197.950099 
L 341.48276 197.950099 
L 341.48276 191.562772 
L 341.655194 191.562772 
L 341.655194 185.175446 
L 341.760966 185.175446 
L 341.760966 178.788119 
L 347.29322 178.788119 
L 347.29322 172.400792 
L 347.881579 172.400792 
L 347.881579 166.013465 
L 347.996009 166.013465 
L 347.996009 159.626139 
L 348.574921 159.626139 
L 348.574921 153.238812 
L 353.843472 153.238812 
L 353.843472 146.851485 
L 358.340572 146.851485 
L 358.340572 140.464158 
L 358.520012 140.464158 
L 358.520012 134.076832 
L 362.141902 134.076832 
L 362.141902 127.689505 
L 363.630629 127.689505 
L 363.630629 121.302178 
L 364.853766 121.302178 
L 364.853766 114.914851 
L 377.981632 114.914851 
L 377.981632 108.527525 
L 382.255689 108.527525 
L 382.255689 102.140198 
L 382.255689 102.140198 
L 382.255689 102.140198 
L 460.8 102.140198 
" style="fill:none;stroke:#f5deb3;stroke-linecap:square;stroke-width:1.5;"/>
   </g>
   <g id="line2d_19">
    <path clip-path="url(#p7149359460)" d="M 276.7272 293.76 
L 276.7272 287.372673 
L 284.261089 287.372673 
L 284.261089 280.985347 
L 292.241038 280.985347 
L 292.241038 274.59802 
L 304.762623 274.59802 
L 304.762623 268.210693 
L 305.44231 268.210693 
L 305.44231 261.823366 
L 307.594691 261.823366 
L 307.594691 255.43604 
L 310.715797 255.43604 
L 310.715797 249.048713 
L 312.547932 249.048713 
L 312.547932 242.661386 
L 313.853788 242.661386 
L 313.853788 236.274059 
L 316.423897 236.274059 
L 316.423897 229.886733 
L 318.352392 229.886733 
L 318.352392 223.499406 
L 320.523666 223.499406 
L 320.523666 217.112079 
L 321.527442 217.112079 
L 321.527442 210.724752 
L 327.28907 210.724752 
L 327.28907 204.337426 
L 334.905321 204.337426 
L 334.905321 197.950099 
L 461.8 197.950099 
L 461.8 197.950099 
" style="fill:none;stroke:#f5deb3;stroke-linecap:square;stroke-width:1.5;"/>
   </g>
   <g id="line2d_20">
    <path clip-path="url(#p7149359460)" d="M 109.589341 293.76 
L 109.589341 287.372673 
L 114.987421 287.372673 
L 114.987421 280.985347 
L 117.452569 280.985347 
L 117.452569 274.59802 
L 117.452569 274.59802 
L 117.452569 268.210693 
L 124.100835 268.210693 
L 124.100835 261.823366 
L 128.024298 261.823366 
L 128.024298 255.43604 
L 129.859824 255.43604 
L 129.859824 249.048713 
L 133.311934 249.048713 
L 133.311934 242.661386 
L 134.939613 242.661386 
L 134.939613 236.274059 
L 134.939613 236.274059 
L 134.939613 229.886733 
L 136.508089 229.886733 
L 136.508089 223.499406 
L 139.483638 223.499406 
L 139.483638 217.112079 
L 142.267079 217.112079 
L 142.267079 210.724752 
L 143.59421 210.724752 
L 143.59421 204.337426 
L 147.346867 204.337426 
L 147.346867 197.950099 
L 293.874884 197.950099 
L 293.874884 191.562772 
L 301.159741 191.562772 
L 301.159741 185.175446 
L 301.26118 185.175446 
L 301.26118 178.788119 
L 306.201899 178.788119 
L 306.201899 172.400792 
L 306.859448 172.400792 
L 306.859448 166.013465 
L 308.116412 166.013465 
L 308.116412 159.626139 
L 314.678161 159.626139 
L 314.678161 153.238812 
L 327.894325 153.238812 
L 327.894325 146.851485 
L 330.112895 146.851485 
L 330.112895 140.464158 
L 334.547794 140.464158 
L 334.547794 134.076832 
L 336.946118 134.076832 
L 336.946118 127.689505 
L 339.274062 127.689505 
L 339.274062 121.302178 
L 343.545842 121.302178 
L 343.545842 114.914851 
L 350.363912 114.914851 
L 350.363912 108.527525 
L 361.083535 108.527525 
L 361.083535 102.140198 
L 361.083535 102.140198 
L 361.083535 102.140198 
L 460.8 102.140198 
" style="fill:none;stroke:#f5deb3;stroke-linecap:square;stroke-width:1.5;"/>
   </g>
   <g id="line2d_21">
    <path clip-path="url(#p7149359460)" d="M 311.013142 293.76 
L 311.013142 287.372673 
L 311.013142 287.372673 
L 311.013142 280.985347 
L 311.013142 280.985347 
L 311.013142 274.59802 
L 311.013142 274.59802 
L 311.013142 268.210693 
L 311.013142 268.210693 
L 311.013142 261.823366 
L 311.013142 261.823366 
L 311.013142 255.43604 
L 311.040072 255.43604 
L 311.040072 249.048713 
L 311.040072 249.048713 
L 311.040072 242.661386 
L 311.040072 242.661386 
L 311.040072 236.274059 
L 311.040072 236.274059 
L 311.040072 229.886733 
L 311.040072 229.886733 
L 311.040072 223.499406 
L 311.040072 223.499406 
L 311.040072 217.112079 
L 311.040072 217.112079 
L 311.040072 210.724752 
L 311.040072 210.724752 
L 311.040072 204.337426 
L 311.040072 204.337426 
L 311.040072 197.950099 
L 311.040072 197.950099 
L 311.040072 197.950099 
L 460.8 197.950099 
" style="fill:none;stroke:#f5deb3;stroke-linecap:square;stroke-width:1.5;"/>
   </g>
   <g id="line2d_22">
    <path clip-path="url(#p7149359460)" d="M 117.452569 293.76 
L 117.452569 287.372673 
L 117.452569 287.372673 
L 117.452569 280.985347 
L 124.100835 280.985347 
L 124.100835 274.59802 
L 126.107166 274.59802 
L 126.107166 268.210693 
L 131.620409 268.210693 
L 131.620409 261.823366 
L 131.620409 261.823366 
L 131.620409 255.43604 
L 131.620409 255.43604 
L 131.620409 249.048713 
L 136.508089 249.048713 
L 136.508089 242.661386 
L 147.346867 242.661386 
L 147.346867 236.274059 
L 152.955845 236.274059 
L 152.955845 229.886733 
L 153.995132 229.886733 
L 153.995132 223.499406 
L 158.846123 223.499406 
L 158.846123 217.112079 
L 160.643398 217.112079 
L 160.643398 210.724752 
L 195.519576 210.724752 
L 195.519576 204.337426 
L 202.724344 204.337426 
L 202.724344 197.950099 
L 305.319525 197.950099 
L 305.319525 191.562772 
L 310.634346 191.562772 
L 310.634346 185.175446 
L 319.340793 185.175446 
L 319.340793 178.788119 
L 320.674653 178.788119 
L 320.674653 172.400792 
L 321.717017 172.400792 
L 321.717017 166.013465 
L 322.405084 166.013465 
L 322.405084 159.626139 
L 323.22465 159.626139 
L 323.22465 153.238812 
L 330.782363 153.238812 
L 330.782363 146.851485 
L 333.839595 146.851485 
L 333.839595 140.464158 
L 335.960454 140.464158 
L 335.960454 134.076832 
L 336.020837 134.076832 
L 336.020837 127.689505 
L 338.880578 127.689505 
L 338.880578 121.302178 
L 345.647668 121.302178 
L 345.647668 114.914851 
L 355.005183 114.914851 
L 355.005183 108.527525 
L 365.368622 108.527525 
L 365.368622 102.140198 
L 365.368622 102.140198 
L 365.368622 102.140198 
L 460.8 102.140198 
" style="fill:none;stroke:#f5deb3;stroke-linecap:square;stroke-width:1.5;"/>
   </g>
   <g id="line2d_23">
    <path clip-path="url(#p7149359460)" d="M 182.320953 293.76 
L 182.320953 287.372673 
L 197.810115 287.372673 
L 197.810115 280.985347 
L 199.630147 280.985347 
L 199.630147 274.59802 
L 200.686405 274.59802 
L 200.686405 268.210693 
L 206.227463 268.210693 
L 206.227463 261.823366 
L 206.227463 261.823366 
L 206.227463 255.43604 
L 210.863154 255.43604 
L 210.863154 249.048713 
L 211.136986 249.048713 
L 211.136986 242.661386 
L 212.215251 242.661386 
L 212.215251 236.274059 
L 212.480657 236.274059 
L 212.480657 229.886733 
L 212.74444 229.886733 
L 212.74444 223.499406 
L 219.989647 223.499406 
L 219.989647 217.112079 
L 224.821713 217.112079 
L 224.821713 210.724752 
L 228.074616 210.724752 
L 228.074616 204.337426 
L 235.968552 204.337426 
L 235.968552 197.950099 
L 461.8 197.950099 
" style="fill:none;stroke:#f5deb3;stroke-linecap:square;stroke-width:1.5;"/>
   </g>
   <g id="line2d_24">
    <path clip-path="url(#p7149359460)" d="M 221.945424 293.76 
L 221.945424 287.372673 
L 221.945424 287.372673 
L 221.945424 280.985347 
L 222.157357 280.985347 
L 222.157357 274.59802 
L 230.406446 274.59802 
L 230.406446 268.210693 
L 230.406446 268.210693 
L 230.406446 261.823366 
L 230.580702 261.823366 
L 230.580702 255.43604 
L 238.211433 255.43604 
L 238.211433 249.048713 
L 238.211433 249.048713 
L 238.211433 242.661386 
L 238.356891 242.661386 
L 238.356891 236.274059 
L 238.50186 236.274059 
L 238.50186 229.886733 
L 244.818048 229.886733 
L 244.818048 223.499406 
L 244.818048 223.499406 
L 244.818048 217.112079 
L 244.942877 217.112079 
L 244.942877 210.724752 
L 245.067346 210.724752 
L 245.067346 204.337426 
L 255.60123 204.337426 
L 255.60123 197.950099 
L 311.308451 197.950099 
L 311.308451 191.562772 
L 311.919457 191.562772 
L 311.919457 185.175446 
L 312.024841 185.175446 
L 312.024841 178.788119 
L 312.67772 178.788119 
L 312.67772 172.400792 
L 313.090435 172.400792 
L 313.090435 166.013465 
L 316.018037 166.013465 
L 316.018037 159.626139 
L 316.042017 159.626139 
L 316.042017 153.238812 
L 319.826627 153.238812 
L 319.826627 146.851485 
L 325.246661 146.851485 
L 325.246661 140.464158 
L 327.270595 140.464158 
L 327.270595 134.076832 
L 328.220919 134.076832 
L 328.220919 127.689505 
L 328.293161 127.689505 
L 328.293161 121.302178 
L 329.53819 121.302178 
L 329.53819 114.914851 
L 329.78294 114.914851 
L 329.78294 108.527525 
L 330.816417 108.527525 
L 330.816417 102.140198 
L 351.241927 102.140198 
L 351.241927 95.752871 
L 354.898201 95.752871 
L 354.898201 89.365545 
L 436.241011 89.365545 
L 436.241011 82.978218 
L 436.907818 82.978218 
L 436.907818 76.590891 
L 437.15867 76.590891 
L 437.15867 70.203564 
L 438.146326 70.203564 
L 438.146326 63.816238 
L 438.357767 63.816238 
L 438.357767 57.428911 
L 438.645071 57.428911 
L 438.645071 51.041584 
L 439.259467 51.041584 
L 439.259467 44.654257 
L 439.40519 44.654257 
L 439.40519 38.266931 
L 439.968308 38.266931 
L 439.968308 31.879604 
L 440.434478 31.879604 
L 440.434478 25.492277 
L 440.570947 25.492277 
L 440.570947 19.10495 
L 441.208738 19.10495 
L 441.208738 12.717624 
L 457.877723 12.717624 
L 457.877723 6.330297 
L 457.877723 6.330297 
L 457.877723 6.330297 
L 460.8 6.330297 
" style="fill:none;stroke:#f5deb3;stroke-linecap:square;stroke-width:1.5;"/>
   </g>
   <g id="line2d_25">
    <path clip-path="url(#p7149359460)" d="M 192.683827 293.76 
L 192.683827 287.372673 
L 199.985115 287.372673 
L 199.985115 280.985347 
L 201.71741 280.985347 
L 201.71741 274.59802 
L 205.920499 274.59802 
L 205.920499 268.210693 
L 206.834915 268.210693 
L 206.834915 261.823366 
L 212.215251 261.823366 
L 212.215251 255.43604 
L 212.480657 255.43604 
L 212.480657 249.048713 
L 213.006619 249.048713 
L 213.006619 242.661386 
L 213.006619 242.661386 
L 213.006619 236.274059 
L 213.783728 236.274059 
L 213.783728 229.886733 
L 215.544313 229.886733 
L 215.544313 223.499406 
L 216.519007 223.499406 
L 216.519007 217.112079 
L 226.190982 217.112079 
L 226.190982 210.724752 
L 226.76476 210.724752 
L 226.76476 204.337426 
L 227.518113 204.337426 
L 227.518113 197.950099 
L 461.8 197.950099 
" style="fill:none;stroke:#f5deb3;stroke-linecap:square;stroke-width:1.5;"/>
   </g>
   <g id="line2d_26">
    <path clip-path="url(#p7149359460)" d="M 270.651749 293.76 
L 270.651749 287.372673 
L 270.925581 287.372673 
L 270.925581 280.985347 
L 271.12982 280.985347 
L 271.12982 274.59802 
L 273.055809 274.59802 
L 273.055809 268.210693 
L 274.649795 268.210693 
L 274.649795 261.823366 
L 274.899454 261.823366 
L 274.899454 255.43604 
L 275.023743 255.43604 
L 275.023743 249.048713 
L 275.085754 249.048713 
L 275.085754 242.661386 
L 275.085754 242.661386 
L 275.085754 236.274059 
L 276.846339 236.274059 
L 276.846339 229.886733 
L 277.260753 229.886733 
L 277.260753 223.499406 
L 278.879702 223.499406 
L 278.879702 217.112079 
L 279.218852 217.112079 
L 279.218852 210.724752 
L 280.165542 210.724752 
L 280.165542 204.337426 
L 280.330469 204.337426 
L 280.330469 197.950099 
L 358.59158 197.950099 
L 358.59158 191.562772 
L 359.66852 191.562772 
L 359.66852 185.175446 
L 365.360983 185.175446 
L 365.360983 178.788119 
L 365.982964 178.788119 
L 365.982964 172.400792 
L 367.076009 172.400792 
L 367.076009 166.013465 
L 367.746261 166.013465 
L 367.746261 159.626139 
L 371.337167 159.626139 
L 371.337167 153.238812 
L 371.681666 153.238812 
L 371.681666 146.851485 
L 373.02639 146.851485 
L 373.02639 140.464158 
L 373.96902 140.464158 
L 373.96902 134.076832 
L 377.712811 134.076832 
L 377.712811 127.689505 
L 378.27711 127.689505 
L 378.27711 121.302178 
L 378.979222 121.302178 
L 378.979222 114.914851 
L 383.321649 114.914851 
L 383.321649 108.527525 
L 384.768147 108.527525 
L 384.768147 102.140198 
L 420.796133 102.140198 
L 420.796133 95.752871 
L 422.309564 95.752871 
L 422.309564 89.365545 
L 424.22093 89.365545 
L 424.22093 82.978218 
L 436.050069 82.978218 
L 436.050069 76.590891 
L 453.990144 76.590891 
L 453.990144 70.203564 
L 461.8 70.203564 
" style="fill:none;stroke:#f5deb3;stroke-linecap:square;stroke-width:1.5;"/>
   </g>
   <g id="line2d_27">
    <path clip-path="url(#p7149359460)" d="M 208.607563 293.76 
L 208.607563 287.372673 
L 217.940949 287.372673 
L 217.940949 280.985347 
L 218.404699 280.985347 
L 218.404699 274.59802 
L 219.989647 274.59802 
L 219.989647 268.210693 
L 224.821713 268.210693 
L 224.821713 261.823366 
L 224.821713 261.823366 
L 224.821713 255.43604 
L 225.413874 255.43604 
L 225.413874 249.048713 
L 228.441668 249.048713 
L 228.441668 242.661386 
L 235.968552 242.661386 
L 235.968552 236.274059 
L 238.211433 236.274059 
L 238.211433 229.886733 
L 241.708352 229.886733 
L 241.708352 223.499406 
L 243.806193 223.499406 
L 243.806193 217.112079 
L 245.067346 217.112079 
L 245.067346 210.724752 
L 252.472422 210.724752 
L 252.472422 204.337426 
L 266.924057 204.337426 
L 266.924057 197.950099 
L 461.8 197.950099 
" style="fill:none;stroke:#f5deb3;stroke-linecap:square;stroke-width:1.5;"/>
   </g>
   <g id="line2d_28">
    <path clip-path="url(#p7149359460)" d="M 156.970681 293.76 
L 156.970681 287.372673 
L 173.488507 287.372673 
L 173.488507 280.985347 
L 184.904262 280.985347 
L 184.904262 274.59802 
L 184.904262 274.59802 
L 184.904262 268.210693 
L 185.895762 268.210693 
L 185.895762 261.823366 
L 190.537695 261.823366 
L 190.537695 255.43604 
L 194.327011 255.43604 
L 194.327011 249.048713 
L 194.327011 249.048713 
L 194.327011 242.661386 
L 194.728208 242.661386 
L 194.728208 236.274059 
L 202.055674 236.274059 
L 202.055674 229.886733 
L 202.391305 229.886733 
L 202.391305 223.499406 
L 202.391305 223.499406 
L 202.391305 217.112079 
L 208.896048 217.112079 
L 208.896048 210.724752 
L 218.634718 210.724752 
L 218.634718 204.337426 
L 224.019302 204.337426 
L 224.019302 197.950099 
L 301.058063 197.950099 
L 301.058063 191.562772 
L 304.700299 191.562772 
L 304.700299 185.175446 
L 309.700319 185.175446 
L 309.700319 178.788119 
L 310.443693 178.788119 
L 310.443693 172.400792 
L 310.932251 172.400792 
L 310.932251 166.013465 
L 311.998519 166.013465 
L 311.998519 159.626139 
L 313.064755 159.626139 
L 313.064755 153.238812 
L 313.853788 153.238812 
L 313.853788 146.851485 
L 316.613577 146.851485 
L 316.613577 140.464158 
L 317.060751 140.464158 
L 317.060751 134.076832 
L 320.241851 134.076832 
L 320.241851 127.689505 
L 322.405084 127.689505 
L 322.405084 121.302178 
L 323.021214 121.302178 
L 323.021214 114.914851 
L 323.688942 114.914851 
L 323.688942 108.527525 
L 325.478431 108.527525 
L 325.478431 102.140198 
L 328.329237 102.140198 
L 328.329237 95.752871 
L 393.853714 95.752871 
L 393.853714 89.365545 
L 408.773117 89.365545 
L 408.773117 82.978218 
L 413.051907 82.978218 
L 413.051907 76.590891 
L 444.959202 76.590891 
L 444.959202 70.203564 
L 453.763485 70.203564 
L 453.763485 63.816238 
L 454.023405 63.816238 
L 454.023405 57.428911 
L 461.8 57.428911 
" style="fill:none;stroke:#f5deb3;stroke-linecap:square;stroke-width:1.5;"/>
   </g>
   <g id="line2d_29">
    <path clip-path="url(#p7149359460)" d="M 92.102298 293.76 
L 92.102298 287.372673 
L 92.102298 287.372673 
L 92.102298 280.985347 
L 92.102298 280.985347 
L 92.102298 274.59802 
L 92.102298 274.59802 
L 92.102298 268.210693 
L 92.102298 268.210693 
L 92.102298 261.823366 
L 92.102298 261.823366 
L 92.102298 255.43604 
L 92.102298 255.43604 
L 92.102298 249.048713 
L 92.102298 249.048713 
L 92.102298 242.661386 
L 92.102298 242.661386 
L 92.102298 236.274059 
L 92.102298 236.274059 
L 92.102298 229.886733 
L 92.102298 229.886733 
L 92.102298 223.499406 
L 92.102298 223.499406 
L 92.102298 217.112079 
L 92.102298 217.112079 
L 92.102298 210.724752 
L 92.102298 210.724752 
L 92.102298 204.337426 
L 92.102298 204.337426 
L 92.102298 197.950099 
L 92.102298 197.950099 
L 92.102298 197.950099 
L 460.8 197.950099 
" style="fill:none;stroke:#f5deb3;stroke-linecap:square;stroke-width:1.5;"/>
   </g>
   <g id="line2d_30">
    <path clip-path="url(#p7149359460)" d="M 206.532259 293.76 
L 206.532259 287.372673 
L 206.532259 287.372673 
L 206.532259 280.985347 
L 206.532259 280.985347 
L 206.532259 274.59802 
L 206.532259 274.59802 
L 206.532259 268.210693 
L 206.532259 268.210693 
L 206.532259 261.823366 
L 206.532259 261.823366 
L 206.532259 255.43604 
L 206.532259 255.43604 
L 206.532259 249.048713 
L 206.532259 249.048713 
L 206.532259 242.661386 
L 206.532259 242.661386 
L 206.532259 236.274059 
L 206.532259 236.274059 
L 206.532259 229.886733 
L 206.532259 229.886733 
L 206.532259 223.499406 
L 206.532259 223.499406 
L 206.532259 217.112079 
L 206.532259 217.112079 
L 206.532259 210.724752 
L 206.532259 210.724752 
L 206.532259 204.337426 
L 206.532259 204.337426 
L 206.532259 197.950099 
L 206.532259 197.950099 
L 206.532259 197.950099 
L 460.8 197.950099 
" style="fill:none;stroke:#f5deb3;stroke-linecap:square;stroke-width:1.5;"/>
   </g>
   <g id="matplotlib.axis_1">
    <g id="xtick_1">
     <g id="line2d_31">
      <path clip-path="url(#p7149359460)" d="M 62.208 293.76 
L 62.208 3.456 
" style="fill:none;stroke:#b0b0b0;stroke-linecap:square;stroke-width:0.8;"/>
     </g>
     <g id="line2d_32">
      <defs>
       <path d="M 0 0 
L 0 3.5 
" id="me83b3cbb63" style="stroke:#000000;stroke-width:0.8;"/>
      </defs>
      <g>
       <use style="stroke:#000000;stroke-width:0.8;" x="62.208" xlink:href="#me83b3cbb63" y="293.76"/>
      </g>
     </g>
     <g id="text_1">
      <!-- 0 -->
      <g transform="translate(55.8455 315.956875)scale(0.2 -0.2)">
       <defs>
        <path d="M 31.78125 66.40625 
Q 24.171875 66.40625 20.328125 58.90625 
Q 16.5 51.421875 16.5 36.375 
Q 16.5 21.390625 20.328125 13.890625 
Q 24.171875 6.390625 31.78125 6.390625 
Q 39.453125 6.390625 43.28125 13.890625 
Q 47.125 21.390625 47.125 36.375 
Q 47.125 51.421875 43.28125 58.90625 
Q 39.453125 66.40625 31.78125 66.40625 
z
M 31.78125 74.21875 
Q 44.046875 74.21875 50.515625 64.515625 
Q 56.984375 54.828125 56.984375 36.375 
Q 56.984375 17.96875 50.515625 8.265625 
Q 44.046875 -1.421875 31.78125 -1.421875 
Q 19.53125 -1.421875 13.0625 8.265625 
Q 6.59375 17.96875 6.59375 36.375 
Q 6.59375 54.828125 13.0625 64.515625 
Q 19.53125 74.21875 31.78125 74.21875 
z
" id="DejaVuSans-48"/>
       </defs>
       <use xlink:href="#DejaVuSans-48"/>
      </g>
     </g>
    </g>
    <g id="xtick_2">
     <g id="line2d_33">
      <path clip-path="url(#p7149359460)" d="M 260.821414 293.76 
L 260.821414 3.456 
" style="fill:none;stroke:#b0b0b0;stroke-linecap:square;stroke-width:0.8;"/>
     </g>
     <g id="line2d_34">
      <g>
       <use style="stroke:#000000;stroke-width:0.8;" x="260.821414" xlink:href="#me83b3cbb63" y="293.76"/>
      </g>
     </g>
     <g id="text_2">
      <!-- 2 -->
      <g transform="translate(254.458914 315.956875)scale(0.2 -0.2)">
       <defs>
        <path d="M 19.1875 8.296875 
L 53.609375 8.296875 
L 53.609375 0 
L 7.328125 0 
L 7.328125 8.296875 
Q 12.9375 14.109375 22.625 23.890625 
Q 32.328125 33.6875 34.8125 36.53125 
Q 39.546875 41.84375 41.421875 45.53125 
Q 43.3125 49.21875 43.3125 52.78125 
Q 43.3125 58.59375 39.234375 62.25 
Q 35.15625 65.921875 28.609375 65.921875 
Q 23.96875 65.921875 18.8125 64.3125 
Q 13.671875 62.703125 7.8125 59.421875 
L 7.8125 69.390625 
Q 13.765625 71.78125 18.9375 73 
Q 24.125 74.21875 28.421875 74.21875 
Q 39.75 74.21875 46.484375 68.546875 
Q 53.21875 62.890625 53.21875 53.421875 
Q 53.21875 48.921875 51.53125 44.890625 
Q 49.859375 40.875 45.40625 35.40625 
Q 44.1875 33.984375 37.640625 27.21875 
Q 31.109375 20.453125 19.1875 8.296875 
z
" id="DejaVuSans-50"/>
       </defs>
       <use xlink:href="#DejaVuSans-50"/>
      </g>
     </g>
    </g>
    <g id="xtick_3">
     <g id="line2d_35">
      <path clip-path="url(#p7149359460)" d="M 459.434828 293.76 
L 459.434828 3.456 
" style="fill:none;stroke:#b0b0b0;stroke-linecap:square;stroke-width:0.8;"/>
     </g>
     <g id="line2d_36">
      <g>
       <use style="stroke:#000000;stroke-width:0.8;" x="459.434828" xlink:href="#me83b3cbb63" y="293.76"/>
      </g>
     </g>
     <g id="text_3">
      <!-- 4 -->
      <g transform="translate(453.072328 315.956875)scale(0.2 -0.2)">
       <defs>
        <path d="M 37.796875 64.3125 
L 12.890625 25.390625 
L 37.796875 25.390625 
z
M 35.203125 72.90625 
L 47.609375 72.90625 
L 47.609375 25.390625 
L 58.015625 25.390625 
L 58.015625 17.1875 
L 47.609375 17.1875 
L 47.609375 0 
L 37.796875 0 
L 37.796875 17.1875 
L 4.890625 17.1875 
L 4.890625 26.703125 
z
" id="DejaVuSans-52"/>
       </defs>
       <use xlink:href="#DejaVuSans-52"/>
      </g>
     </g>
    </g>
    <g id="xtick_4">
     <g id="line2d_37">
      <path clip-path="url(#p7149359460)" d="M 92.102298 293.76 
L 92.102298 3.456 
" style="fill:none;stroke:#b0b0b0;stroke-linecap:square;stroke-width:0.8;"/>
     </g>
     <g id="line2d_38">
      <defs>
       <path d="M 0 0 
L 0 2 
" id="m9307053437" style="stroke:#000000;stroke-width:0.6;"/>
      </defs>
      <g>
       <use style="stroke:#000000;stroke-width:0.6;" x="92.102298" xlink:href="#m9307053437" y="293.76"/>
      </g>
     </g>
    </g>
    <g id="xtick_5">
     <g id="line2d_39">
      <path clip-path="url(#p7149359460)" d="M 109.589341 293.76 
L 109.589341 3.456 
" style="fill:none;stroke:#b0b0b0;stroke-linecap:square;stroke-width:0.8;"/>
     </g>
     <g id="line2d_40">
      <g>
       <use style="stroke:#000000;stroke-width:0.6;" x="109.589341" xlink:href="#m9307053437" y="293.76"/>
      </g>
     </g>
    </g>
    <g id="xtick_6">
     <g id="line2d_41">
      <path clip-path="url(#p7149359460)" d="M 121.996595 293.76 
L 121.996595 3.456 
" style="fill:none;stroke:#b0b0b0;stroke-linecap:square;stroke-width:0.8;"/>
     </g>
     <g id="line2d_42">
      <g>
       <use style="stroke:#000000;stroke-width:0.6;" x="121.996595" xlink:href="#m9307053437" y="293.76"/>
      </g>
     </g>
    </g>
    <g id="xtick_7">
     <g id="line2d_43">
      <path clip-path="url(#p7149359460)" d="M 131.620409 293.76 
L 131.620409 3.456 
" style="fill:none;stroke:#b0b0b0;stroke-linecap:square;stroke-width:0.8;"/>
     </g>
     <g id="line2d_44">
      <g>
       <use style="stroke:#000000;stroke-width:0.6;" x="131.620409" xlink:href="#m9307053437" y="293.76"/>
      </g>
     </g>
    </g>
    <g id="xtick_8">
     <g id="line2d_45">
      <path clip-path="url(#p7149359460)" d="M 139.483638 293.76 
L 139.483638 3.456 
" style="fill:none;stroke:#b0b0b0;stroke-linecap:square;stroke-width:0.8;"/>
     </g>
     <g id="line2d_46">
      <g>
       <use style="stroke:#000000;stroke-width:0.6;" x="139.483638" xlink:href="#m9307053437" y="293.76"/>
      </g>
     </g>
    </g>
    <g id="xtick_9">
     <g id="line2d_47">
      <path clip-path="url(#p7149359460)" d="M 146.131904 293.76 
L 146.131904 3.456 
" style="fill:none;stroke:#b0b0b0;stroke-linecap:square;stroke-width:0.8;"/>
     </g>
     <g id="line2d_48">
      <g>
       <use style="stroke:#000000;stroke-width:0.6;" x="146.131904" xlink:href="#m9307053437" y="293.76"/>
      </g>
     </g>
    </g>
    <g id="xtick_10">
     <g id="line2d_49">
      <path clip-path="url(#p7149359460)" d="M 151.890893 293.76 
L 151.890893 3.456 
" style="fill:none;stroke:#b0b0b0;stroke-linecap:square;stroke-width:0.8;"/>
     </g>
     <g id="line2d_50">
      <g>
       <use style="stroke:#000000;stroke-width:0.6;" x="151.890893" xlink:href="#m9307053437" y="293.76"/>
      </g>
     </g>
    </g>
    <g id="xtick_11">
     <g id="line2d_51">
      <path clip-path="url(#p7149359460)" d="M 156.970681 293.76 
L 156.970681 3.456 
" style="fill:none;stroke:#b0b0b0;stroke-linecap:square;stroke-width:0.8;"/>
     </g>
     <g id="line2d_52">
      <g>
       <use style="stroke:#000000;stroke-width:0.6;" x="156.970681" xlink:href="#m9307053437" y="293.76"/>
      </g>
     </g>
    </g>
    <g id="xtick_12">
     <g id="line2d_53">
      <path clip-path="url(#p7149359460)" d="M 191.409005 293.76 
L 191.409005 3.456 
" style="fill:none;stroke:#b0b0b0;stroke-linecap:square;stroke-width:0.8;"/>
     </g>
     <g id="line2d_54">
      <g>
       <use style="stroke:#000000;stroke-width:0.6;" x="191.409005" xlink:href="#m9307053437" y="293.76"/>
      </g>
     </g>
    </g>
    <g id="xtick_13">
     <g id="line2d_55">
      <path clip-path="url(#p7149359460)" d="M 208.896048 293.76 
L 208.896048 3.456 
" style="fill:none;stroke:#b0b0b0;stroke-linecap:square;stroke-width:0.8;"/>
     </g>
     <g id="line2d_56">
      <g>
       <use style="stroke:#000000;stroke-width:0.6;" x="208.896048" xlink:href="#m9307053437" y="293.76"/>
      </g>
     </g>
    </g>
    <g id="xtick_14">
     <g id="line2d_57">
      <path clip-path="url(#p7149359460)" d="M 221.303302 293.76 
L 221.303302 3.456 
" style="fill:none;stroke:#b0b0b0;stroke-linecap:square;stroke-width:0.8;"/>
     </g>
     <g id="line2d_58">
      <g>
       <use style="stroke:#000000;stroke-width:0.6;" x="221.303302" xlink:href="#m9307053437" y="293.76"/>
      </g>
     </g>
    </g>
    <g id="xtick_15">
     <g id="line2d_59">
      <path clip-path="url(#p7149359460)" d="M 230.927117 293.76 
L 230.927117 3.456 
" style="fill:none;stroke:#b0b0b0;stroke-linecap:square;stroke-width:0.8;"/>
     </g>
     <g id="line2d_60">
      <g>
       <use style="stroke:#000000;stroke-width:0.6;" x="230.927117" xlink:href="#m9307053437" y="293.76"/>
      </g>
     </g>
    </g>
    <g id="xtick_16">
     <g id="line2d_61">
      <path clip-path="url(#p7149359460)" d="M 238.790345 293.76 
L 238.790345 3.456 
" style="fill:none;stroke:#b0b0b0;stroke-linecap:square;stroke-width:0.8;"/>
     </g>
     <g id="line2d_62">
      <g>
       <use style="stroke:#000000;stroke-width:0.6;" x="238.790345" xlink:href="#m9307053437" y="293.76"/>
      </g>
     </g>
    </g>
    <g id="xtick_17">
     <g id="line2d_63">
      <path clip-path="url(#p7149359460)" d="M 245.438611 293.76 
L 245.438611 3.456 
" style="fill:none;stroke:#b0b0b0;stroke-linecap:square;stroke-width:0.8;"/>
     </g>
     <g id="line2d_64">
      <g>
       <use style="stroke:#000000;stroke-width:0.6;" x="245.438611" xlink:href="#m9307053437" y="293.76"/>
      </g>
     </g>
    </g>
    <g id="xtick_18">
     <g id="line2d_65">
      <path clip-path="url(#p7149359460)" d="M 251.1976 293.76 
L 251.1976 3.456 
" style="fill:none;stroke:#b0b0b0;stroke-linecap:square;stroke-width:0.8;"/>
     </g>
     <g id="line2d_66">
      <g>
       <use style="stroke:#000000;stroke-width:0.6;" x="251.1976" xlink:href="#m9307053437" y="293.76"/>
      </g>
     </g>
    </g>
    <g id="xtick_19">
     <g id="line2d_67">
      <path clip-path="url(#p7149359460)" d="M 256.277388 293.76 
L 256.277388 3.456 
" style="fill:none;stroke:#b0b0b0;stroke-linecap:square;stroke-width:0.8;"/>
     </g>
     <g id="line2d_68">
      <g>
       <use style="stroke:#000000;stroke-width:0.6;" x="256.277388" xlink:href="#m9307053437" y="293.76"/>
      </g>
     </g>
    </g>
    <g id="xtick_20">
     <g id="line2d_69">
      <path clip-path="url(#p7149359460)" d="M 290.715712 293.76 
L 290.715712 3.456 
" style="fill:none;stroke:#b0b0b0;stroke-linecap:square;stroke-width:0.8;"/>
     </g>
     <g id="line2d_70">
      <g>
       <use style="stroke:#000000;stroke-width:0.6;" x="290.715712" xlink:href="#m9307053437" y="293.76"/>
      </g>
     </g>
    </g>
    <g id="xtick_21">
     <g id="line2d_71">
      <path clip-path="url(#p7149359460)" d="M 308.202755 293.76 
L 308.202755 3.456 
" style="fill:none;stroke:#b0b0b0;stroke-linecap:square;stroke-width:0.8;"/>
     </g>
     <g id="line2d_72">
      <g>
       <use style="stroke:#000000;stroke-width:0.6;" x="308.202755" xlink:href="#m9307053437" y="293.76"/>
      </g>
     </g>
    </g>
    <g id="xtick_22">
     <g id="line2d_73">
      <path clip-path="url(#p7149359460)" d="M 320.610009 293.76 
L 320.610009 3.456 
" style="fill:none;stroke:#b0b0b0;stroke-linecap:square;stroke-width:0.8;"/>
     </g>
     <g id="line2d_74">
      <g>
       <use style="stroke:#000000;stroke-width:0.6;" x="320.610009" xlink:href="#m9307053437" y="293.76"/>
      </g>
     </g>
    </g>
    <g id="xtick_23">
     <g id="line2d_75">
      <path clip-path="url(#p7149359460)" d="M 330.233824 293.76 
L 330.233824 3.456 
" style="fill:none;stroke:#b0b0b0;stroke-linecap:square;stroke-width:0.8;"/>
     </g>
     <g id="line2d_76">
      <g>
       <use style="stroke:#000000;stroke-width:0.6;" x="330.233824" xlink:href="#m9307053437" y="293.76"/>
      </g>
     </g>
    </g>
    <g id="xtick_24">
     <g id="line2d_77">
      <path clip-path="url(#p7149359460)" d="M 338.097052 293.76 
L 338.097052 3.456 
" style="fill:none;stroke:#b0b0b0;stroke-linecap:square;stroke-width:0.8;"/>
     </g>
     <g id="line2d_78">
      <g>
       <use style="stroke:#000000;stroke-width:0.6;" x="338.097052" xlink:href="#m9307053437" y="293.76"/>
      </g>
     </g>
    </g>
    <g id="xtick_25">
     <g id="line2d_79">
      <path clip-path="url(#p7149359460)" d="M 344.745318 293.76 
L 344.745318 3.456 
" style="fill:none;stroke:#b0b0b0;stroke-linecap:square;stroke-width:0.8;"/>
     </g>
     <g id="line2d_80">
      <g>
       <use style="stroke:#000000;stroke-width:0.6;" x="344.745318" xlink:href="#m9307053437" y="293.76"/>
      </g>
     </g>
    </g>
    <g id="xtick_26">
     <g id="line2d_81">
      <path clip-path="url(#p7149359460)" d="M 350.504307 293.76 
L 350.504307 3.456 
" style="fill:none;stroke:#b0b0b0;stroke-linecap:square;stroke-width:0.8;"/>
     </g>
     <g id="line2d_82">
      <g>
       <use style="stroke:#000000;stroke-width:0.6;" x="350.504307" xlink:href="#m9307053437" y="293.76"/>
      </g>
     </g>
    </g>
    <g id="xtick_27">
     <g id="line2d_83">
      <path clip-path="url(#p7149359460)" d="M 355.584095 293.76 
L 355.584095 3.456 
" style="fill:none;stroke:#b0b0b0;stroke-linecap:square;stroke-width:0.8;"/>
     </g>
     <g id="line2d_84">
      <g>
       <use style="stroke:#000000;stroke-width:0.6;" x="355.584095" xlink:href="#m9307053437" y="293.76"/>
      </g>
     </g>
    </g>
    <g id="xtick_28">
     <g id="line2d_85">
      <path clip-path="url(#p7149359460)" d="M 390.022419 293.76 
L 390.022419 3.456 
" style="fill:none;stroke:#b0b0b0;stroke-linecap:square;stroke-width:0.8;"/>
     </g>
     <g id="line2d_86">
      <g>
       <use style="stroke:#000000;stroke-width:0.6;" x="390.022419" xlink:href="#m9307053437" y="293.76"/>
      </g>
     </g>
    </g>
    <g id="xtick_29">
     <g id="line2d_87">
      <path clip-path="url(#p7149359460)" d="M 407.509462 293.76 
L 407.509462 3.456 
" style="fill:none;stroke:#b0b0b0;stroke-linecap:square;stroke-width:0.8;"/>
     </g>
     <g id="line2d_88">
      <g>
       <use style="stroke:#000000;stroke-width:0.6;" x="407.509462" xlink:href="#m9307053437" y="293.76"/>
      </g>
     </g>
    </g>
    <g id="xtick_30">
     <g id="line2d_89">
      <path clip-path="url(#p7149359460)" d="M 419.916716 293.76 
L 419.916716 3.456 
" style="fill:none;stroke:#b0b0b0;stroke-linecap:square;stroke-width:0.8;"/>
     </g>
     <g id="line2d_90">
      <g>
       <use style="stroke:#000000;stroke-width:0.6;" x="419.916716" xlink:href="#m9307053437" y="293.76"/>
      </g>
     </g>
    </g>
    <g id="xtick_31">
     <g id="line2d_91">
      <path clip-path="url(#p7149359460)" d="M 429.540531 293.76 
L 429.540531 3.456 
" style="fill:none;stroke:#b0b0b0;stroke-linecap:square;stroke-width:0.8;"/>
     </g>
     <g id="line2d_92">
      <g>
       <use style="stroke:#000000;stroke-width:0.6;" x="429.540531" xlink:href="#m9307053437" y="293.76"/>
      </g>
     </g>
    </g>
    <g id="xtick_32">
     <g id="line2d_93">
      <path clip-path="url(#p7149359460)" d="M 437.403759 293.76 
L 437.403759 3.456 
" style="fill:none;stroke:#b0b0b0;stroke-linecap:square;stroke-width:0.8;"/>
     </g>
     <g id="line2d_94">
      <g>
       <use style="stroke:#000000;stroke-width:0.6;" x="437.403759" xlink:href="#m9307053437" y="293.76"/>
      </g>
     </g>
    </g>
    <g id="xtick_33">
     <g id="line2d_95">
      <path clip-path="url(#p7149359460)" d="M 444.052025 293.76 
L 444.052025 3.456 
" style="fill:none;stroke:#b0b0b0;stroke-linecap:square;stroke-width:0.8;"/>
     </g>
     <g id="line2d_96">
      <g>
       <use style="stroke:#000000;stroke-width:0.6;" x="444.052025" xlink:href="#m9307053437" y="293.76"/>
      </g>
     </g>
    </g>
    <g id="xtick_34">
     <g id="line2d_97">
      <path clip-path="url(#p7149359460)" d="M 449.811014 293.76 
L 449.811014 3.456 
" style="fill:none;stroke:#b0b0b0;stroke-linecap:square;stroke-width:0.8;"/>
     </g>
     <g id="line2d_98">
      <g>
       <use style="stroke:#000000;stroke-width:0.6;" x="449.811014" xlink:href="#m9307053437" y="293.76"/>
      </g>
     </g>
    </g>
    <g id="xtick_35">
     <g id="line2d_99">
      <path clip-path="url(#p7149359460)" d="M 454.890803 293.76 
L 454.890803 3.456 
" style="fill:none;stroke:#b0b0b0;stroke-linecap:square;stroke-width:0.8;"/>
     </g>
     <g id="line2d_100">
      <g>
       <use style="stroke:#000000;stroke-width:0.6;" x="454.890803" xlink:href="#m9307053437" y="293.76"/>
      </g>
     </g>
    </g>
    <g id="text_4">
     <!-- log10 of (f+g)-evals / dimension -->
     <g transform="translate(100.164938 339.313125)scale(0.2 -0.2)">
      <defs>
       <path d="M 9.421875 75.984375 
L 18.40625 75.984375 
L 18.40625 0 
L 9.421875 0 
z
" id="DejaVuSans-108"/>
       <path d="M 30.609375 48.390625 
Q 23.390625 48.390625 19.1875 42.75 
Q 14.984375 37.109375 14.984375 27.296875 
Q 14.984375 17.484375 19.15625 11.84375 
Q 23.34375 6.203125 30.609375 6.203125 
Q 37.796875 6.203125 41.984375 11.859375 
Q 46.1875 17.53125 46.1875 27.296875 
Q 46.1875 37.015625 41.984375 42.703125 
Q 37.796875 48.390625 30.609375 48.390625 
z
M 30.609375 56 
Q 42.328125 56 49.015625 48.375 
Q 55.71875 40.765625 55.71875 27.296875 
Q 55.71875 13.875 49.015625 6.21875 
Q 42.328125 -1.421875 30.609375 -1.421875 
Q 18.84375 -1.421875 12.171875 6.21875 
Q 5.515625 13.875 5.515625 27.296875 
Q 5.515625 40.765625 12.171875 48.375 
Q 18.84375 56 30.609375 56 
z
" id="DejaVuSans-111"/>
       <path d="M 45.40625 27.984375 
Q 45.40625 37.75 41.375 43.109375 
Q 37.359375 48.484375 30.078125 48.484375 
Q 22.859375 48.484375 18.828125 43.109375 
Q 14.796875 37.75 14.796875 27.984375 
Q 14.796875 18.265625 18.828125 12.890625 
Q 22.859375 7.515625 30.078125 7.515625 
Q 37.359375 7.515625 41.375 12.890625 
Q 45.40625 18.265625 45.40625 27.984375 
z
M 54.390625 6.78125 
Q 54.390625 -7.171875 48.1875 -13.984375 
Q 42 -20.796875 29.203125 -20.796875 
Q 24.46875 -20.796875 20.265625 -20.09375 
Q 16.0625 -19.390625 12.109375 -17.921875 
L 12.109375 -9.1875 
Q 16.0625 -11.328125 19.921875 -12.34375 
Q 23.78125 -13.375 27.78125 -13.375 
Q 36.625 -13.375 41.015625 -8.765625 
Q 45.40625 -4.15625 45.40625 5.171875 
L 45.40625 9.625 
Q 42.625 4.78125 38.28125 2.390625 
Q 33.9375 0 27.875 0 
Q 17.828125 0 11.671875 7.65625 
Q 5.515625 15.328125 5.515625 27.984375 
Q 5.515625 40.671875 11.671875 48.328125 
Q 17.828125 56 27.875 56 
Q 33.9375 56 38.28125 53.609375 
Q 42.625 51.21875 45.40625 46.390625 
L 45.40625 54.6875 
L 54.390625 54.6875 
z
" id="DejaVuSans-103"/>
       <path d="M 12.40625 8.296875 
L 28.515625 8.296875 
L 28.515625 63.921875 
L 10.984375 60.40625 
L 10.984375 69.390625 
L 28.421875 72.90625 
L 38.28125 72.90625 
L 38.28125 8.296875 
L 54.390625 8.296875 
L 54.390625 0 
L 12.40625 0 
z
" id="DejaVuSans-49"/>
       <path id="DejaVuSans-32"/>
       <path d="M 37.109375 75.984375 
L 37.109375 68.5 
L 28.515625 68.5 
Q 23.6875 68.5 21.796875 66.546875 
Q 19.921875 64.59375 19.921875 59.515625 
L 19.921875 54.6875 
L 34.71875 54.6875 
L 34.71875 47.703125 
L 19.921875 47.703125 
L 19.921875 0 
L 10.890625 0 
L 10.890625 47.703125 
L 2.296875 47.703125 
L 2.296875 54.6875 
L 10.890625 54.6875 
L 10.890625 58.5 
Q 10.890625 67.625 15.140625 71.796875 
Q 19.390625 75.984375 28.609375 75.984375 
z
" id="DejaVuSans-102"/>
       <path d="M 31 75.875 
Q 24.46875 64.65625 21.28125 53.65625 
Q 18.109375 42.671875 18.109375 31.390625 
Q 18.109375 20.125 21.3125 9.0625 
Q 24.515625 -2 31 -13.1875 
L 23.1875 -13.1875 
Q 15.875 -1.703125 12.234375 9.375 
Q 8.59375 20.453125 8.59375 31.390625 
Q 8.59375 42.28125 12.203125 53.3125 
Q 15.828125 64.359375 23.1875 75.875 
z
" id="DejaVuSans-40"/>
       <path d="M 46 62.703125 
L 46 35.5 
L 73.1875 35.5 
L 73.1875 27.203125 
L 46 27.203125 
L 46 0 
L 37.796875 0 
L 37.796875 27.203125 
L 10.59375 27.203125 
L 10.59375 35.5 
L 37.796875 35.5 
L 37.796875 62.703125 
z
" id="DejaVuSans-43"/>
       <path d="M 8.015625 75.875 
L 15.828125 75.875 
Q 23.140625 64.359375 26.78125 53.3125 
Q 30.421875 42.28125 30.421875 31.390625 
Q 30.421875 20.453125 26.78125 9.375 
Q 23.140625 -1.703125 15.828125 -13.1875 
L 8.015625 -13.1875 
Q 14.5 -2 17.703125 9.0625 
Q 20.90625 20.125 20.90625 31.390625 
Q 20.90625 42.671875 17.703125 53.65625 
Q 14.5 64.65625 8.015625 75.875 
z
" id="DejaVuSans-41"/>
       <path d="M 4.890625 31.390625 
L 31.203125 31.390625 
L 31.203125 23.390625 
L 4.890625 23.390625 
z
" id="DejaVuSans-45"/>
       <path d="M 56.203125 29.59375 
L 56.203125 25.203125 
L 14.890625 25.203125 
Q 15.484375 15.921875 20.484375 11.0625 
Q 25.484375 6.203125 34.421875 6.203125 
Q 39.59375 6.203125 44.453125 7.46875 
Q 49.3125 8.734375 54.109375 11.28125 
L 54.109375 2.78125 
Q 49.265625 0.734375 44.1875 -0.34375 
Q 39.109375 -1.421875 33.890625 -1.421875 
Q 20.796875 -1.421875 13.15625 6.1875 
Q 5.515625 13.8125 5.515625 26.8125 
Q 5.515625 40.234375 12.765625 48.109375 
Q 20.015625 56 32.328125 56 
Q 43.359375 56 49.78125 48.890625 
Q 56.203125 41.796875 56.203125 29.59375 
z
M 47.21875 32.234375 
Q 47.125 39.59375 43.09375 43.984375 
Q 39.0625 48.390625 32.421875 48.390625 
Q 24.90625 48.390625 20.390625 44.140625 
Q 15.875 39.890625 15.1875 32.171875 
z
" id="DejaVuSans-101"/>
       <path d="M 2.984375 54.6875 
L 12.5 54.6875 
L 29.59375 8.796875 
L 46.6875 54.6875 
L 56.203125 54.6875 
L 35.6875 0 
L 23.484375 0 
z
" id="DejaVuSans-118"/>
       <path d="M 34.28125 27.484375 
Q 23.390625 27.484375 19.1875 25 
Q 14.984375 22.515625 14.984375 16.5 
Q 14.984375 11.71875 18.140625 8.90625 
Q 21.296875 6.109375 26.703125 6.109375 
Q 34.1875 6.109375 38.703125 11.40625 
Q 43.21875 16.703125 43.21875 25.484375 
L 43.21875 27.484375 
z
M 52.203125 31.203125 
L 52.203125 0 
L 43.21875 0 
L 43.21875 8.296875 
Q 40.140625 3.328125 35.546875 0.953125 
Q 30.953125 -1.421875 24.3125 -1.421875 
Q 15.921875 -1.421875 10.953125 3.296875 
Q 6 8.015625 6 15.921875 
Q 6 25.140625 12.171875 29.828125 
Q 18.359375 34.515625 30.609375 34.515625 
L 43.21875 34.515625 
L 43.21875 35.40625 
Q 43.21875 41.609375 39.140625 45 
Q 35.0625 48.390625 27.6875 48.390625 
Q 23 48.390625 18.546875 47.265625 
Q 14.109375 46.140625 10.015625 43.890625 
L 10.015625 52.203125 
Q 14.9375 54.109375 19.578125 55.046875 
Q 24.21875 56 28.609375 56 
Q 40.484375 56 46.34375 49.84375 
Q 52.203125 43.703125 52.203125 31.203125 
z
" id="DejaVuSans-97"/>
       <path d="M 44.28125 53.078125 
L 44.28125 44.578125 
Q 40.484375 46.53125 36.375 47.5 
Q 32.28125 48.484375 27.875 48.484375 
Q 21.1875 48.484375 17.84375 46.4375 
Q 14.5 44.390625 14.5 40.28125 
Q 14.5 37.15625 16.890625 35.375 
Q 19.28125 33.59375 26.515625 31.984375 
L 29.59375 31.296875 
Q 39.15625 29.25 43.1875 25.515625 
Q 47.21875 21.78125 47.21875 15.09375 
Q 47.21875 7.46875 41.1875 3.015625 
Q 35.15625 -1.421875 24.609375 -1.421875 
Q 20.21875 -1.421875 15.453125 -0.5625 
Q 10.6875 0.296875 5.421875 2 
L 5.421875 11.28125 
Q 10.40625 8.6875 15.234375 7.390625 
Q 20.0625 6.109375 24.8125 6.109375 
Q 31.15625 6.109375 34.5625 8.28125 
Q 37.984375 10.453125 37.984375 14.40625 
Q 37.984375 18.0625 35.515625 20.015625 
Q 33.0625 21.96875 24.703125 23.78125 
L 21.578125 24.515625 
Q 13.234375 26.265625 9.515625 29.90625 
Q 5.8125 33.546875 5.8125 39.890625 
Q 5.8125 47.609375 11.28125 51.796875 
Q 16.75 56 26.8125 56 
Q 31.78125 56 36.171875 55.265625 
Q 40.578125 54.546875 44.28125 53.078125 
z
" id="DejaVuSans-115"/>
       <path d="M 25.390625 72.90625 
L 33.6875 72.90625 
L 8.296875 -9.28125 
L 0 -9.28125 
z
" id="DejaVuSans-47"/>
       <path d="M 45.40625 46.390625 
L 45.40625 75.984375 
L 54.390625 75.984375 
L 54.390625 0 
L 45.40625 0 
L 45.40625 8.203125 
Q 42.578125 3.328125 38.25 0.953125 
Q 33.9375 -1.421875 27.875 -1.421875 
Q 17.96875 -1.421875 11.734375 6.484375 
Q 5.515625 14.40625 5.515625 27.296875 
Q 5.515625 40.1875 11.734375 48.09375 
Q 17.96875 56 27.875 56 
Q 33.9375 56 38.25 53.625 
Q 42.578125 51.265625 45.40625 46.390625 
z
M 14.796875 27.296875 
Q 14.796875 17.390625 18.875 11.75 
Q 22.953125 6.109375 30.078125 6.109375 
Q 37.203125 6.109375 41.296875 11.75 
Q 45.40625 17.390625 45.40625 27.296875 
Q 45.40625 37.203125 41.296875 42.84375 
Q 37.203125 48.484375 30.078125 48.484375 
Q 22.953125 48.484375 18.875 42.84375 
Q 14.796875 37.203125 14.796875 27.296875 
z
" id="DejaVuSans-100"/>
       <path d="M 9.421875 54.6875 
L 18.40625 54.6875 
L 18.40625 0 
L 9.421875 0 
z
M 9.421875 75.984375 
L 18.40625 75.984375 
L 18.40625 64.59375 
L 9.421875 64.59375 
z
" id="DejaVuSans-105"/>
       <path d="M 52 44.1875 
Q 55.375 50.25 60.0625 53.125 
Q 64.75 56 71.09375 56 
Q 79.640625 56 84.28125 50.015625 
Q 88.921875 44.046875 88.921875 33.015625 
L 88.921875 0 
L 79.890625 0 
L 79.890625 32.71875 
Q 79.890625 40.578125 77.09375 44.375 
Q 74.3125 48.1875 68.609375 48.1875 
Q 61.625 48.1875 57.5625 43.546875 
Q 53.515625 38.921875 53.515625 30.90625 
L 53.515625 0 
L 44.484375 0 
L 44.484375 32.71875 
Q 44.484375 40.625 41.703125 44.40625 
Q 38.921875 48.1875 33.109375 48.1875 
Q 26.21875 48.1875 22.15625 43.53125 
Q 18.109375 38.875 18.109375 30.90625 
L 18.109375 0 
L 9.078125 0 
L 9.078125 54.6875 
L 18.109375 54.6875 
L 18.109375 46.1875 
Q 21.1875 51.21875 25.484375 53.609375 
Q 29.78125 56 35.6875 56 
Q 41.65625 56 45.828125 52.96875 
Q 50 49.953125 52 44.1875 
z
" id="DejaVuSans-109"/>
       <path d="M 54.890625 33.015625 
L 54.890625 0 
L 45.90625 0 
L 45.90625 32.71875 
Q 45.90625 40.484375 42.875 44.328125 
Q 39.84375 48.1875 33.796875 48.1875 
Q 26.515625 48.1875 22.3125 43.546875 
Q 18.109375 38.921875 18.109375 30.90625 
L 18.109375 0 
L 9.078125 0 
L 9.078125 54.6875 
L 18.109375 54.6875 
L 18.109375 46.1875 
Q 21.34375 51.125 25.703125 53.5625 
Q 30.078125 56 35.796875 56 
Q 45.21875 56 50.046875 50.171875 
Q 54.890625 44.34375 54.890625 33.015625 
z
" id="DejaVuSans-110"/>
      </defs>
      <use xlink:href="#DejaVuSans-108"/>
      <use x="27.783203" xlink:href="#DejaVuSans-111"/>
      <use x="88.964844" xlink:href="#DejaVuSans-103"/>
      <use x="152.441406" xlink:href="#DejaVuSans-49"/>
      <use x="216.064453" xlink:href="#DejaVuSans-48"/>
      <use x="279.6875" xlink:href="#DejaVuSans-32"/>
      <use x="311.474609" xlink:href="#DejaVuSans-111"/>
      <use x="372.65625" xlink:href="#DejaVuSans-102"/>
      <use x="407.861328" xlink:href="#DejaVuSans-32"/>
      <use x="439.648438" xlink:href="#DejaVuSans-40"/>
      <use x="478.662109" xlink:href="#DejaVuSans-102"/>
      <use x="513.867188" xlink:href="#DejaVuSans-43"/>
      <use x="597.65625" xlink:href="#DejaVuSans-103"/>
      <use x="661.132812" xlink:href="#DejaVuSans-41"/>
      <use x="700.146484" xlink:href="#DejaVuSans-45"/>
      <use x="736.230469" xlink:href="#DejaVuSans-101"/>
      <use x="797.753906" xlink:href="#DejaVuSans-118"/>
      <use x="856.933594" xlink:href="#DejaVuSans-97"/>
      <use x="918.212891" xlink:href="#DejaVuSans-108"/>
      <use x="945.996094" xlink:href="#DejaVuSans-115"/>
      <use x="998.095703" xlink:href="#DejaVuSans-32"/>
      <use x="1029.882812" xlink:href="#DejaVuSans-47"/>
      <use x="1063.574219" xlink:href="#DejaVuSans-32"/>
      <use x="1095.361328" xlink:href="#DejaVuSans-100"/>
      <use x="1158.837891" xlink:href="#DejaVuSans-105"/>
      <use x="1186.621094" xlink:href="#DejaVuSans-109"/>
      <use x="1284.033203" xlink:href="#DejaVuSans-101"/>
      <use x="1345.556641" xlink:href="#DejaVuSans-110"/>
      <use x="1408.935547" xlink:href="#DejaVuSans-115"/>
      <use x="1461.035156" xlink:href="#DejaVuSans-105"/>
      <use x="1488.818359" xlink:href="#DejaVuSans-111"/>
      <use x="1550" xlink:href="#DejaVuSans-110"/>
     </g>
    </g>
   </g>
   <g id="matplotlib.axis_2">
    <g id="ytick_1">
     <g id="line2d_101">
      <path clip-path="url(#p7149359460)" d="M 62.208 293.76 
L 460.8 293.76 
" style="fill:none;stroke:#b0b0b0;stroke-linecap:square;stroke-width:0.8;"/>
     </g>
     <g id="line2d_102">
      <defs>
       <path d="M 0 0 
L -3.5 0 
" id="m353a496e1e" style="stroke:#000000;stroke-width:0.8;"/>
      </defs>
      <g>
       <use style="stroke:#000000;stroke-width:0.8;" x="62.208" xlink:href="#m353a496e1e" y="293.76"/>
      </g>
     </g>
     <g id="text_5">
      <!-- 0.0 -->
      <g transform="translate(29.763 299.83875)scale(0.16 -0.16)">
       <defs>
        <path d="M 10.6875 12.40625 
L 21 12.40625 
L 21 0 
L 10.6875 0 
z
" id="DejaVuSans-46"/>
       </defs>
       <use xlink:href="#DejaVuSans-48"/>
       <use x="63.623047" xlink:href="#DejaVuSans-46"/>
       <use x="95.410156" xlink:href="#DejaVuSans-48"/>
      </g>
     </g>
    </g>
    <g id="ytick_2">
     <g id="line2d_103">
      <path clip-path="url(#p7149359460)" d="M 62.208 236.274059 
L 460.8 236.274059 
" style="fill:none;stroke:#b0b0b0;stroke-linecap:square;stroke-width:0.8;"/>
     </g>
     <g id="line2d_104">
      <g>
       <use style="stroke:#000000;stroke-width:0.8;" x="62.208" xlink:href="#m353a496e1e" y="236.274059"/>
      </g>
     </g>
     <g id="text_6">
      <!-- 0.2 -->
      <g transform="translate(29.763 242.352809)scale(0.16 -0.16)">
       <use xlink:href="#DejaVuSans-48"/>
       <use x="63.623047" xlink:href="#DejaVuSans-46"/>
       <use x="95.410156" xlink:href="#DejaVuSans-50"/>
      </g>
     </g>
    </g>
    <g id="ytick_3">
     <g id="line2d_105">
      <path clip-path="url(#p7149359460)" d="M 62.208 178.788119 
L 460.8 178.788119 
" style="fill:none;stroke:#b0b0b0;stroke-linecap:square;stroke-width:0.8;"/>
     </g>
     <g id="line2d_106">
      <g>
       <use style="stroke:#000000;stroke-width:0.8;" x="62.208" xlink:href="#m353a496e1e" y="178.788119"/>
      </g>
     </g>
     <g id="text_7">
      <!-- 0.4 -->
      <g transform="translate(29.763 184.866869)scale(0.16 -0.16)">
       <use xlink:href="#DejaVuSans-48"/>
       <use x="63.623047" xlink:href="#DejaVuSans-46"/>
       <use x="95.410156" xlink:href="#DejaVuSans-52"/>
      </g>
     </g>
    </g>
    <g id="ytick_4">
     <g id="line2d_107">
      <path clip-path="url(#p7149359460)" d="M 62.208 121.302178 
L 460.8 121.302178 
" style="fill:none;stroke:#b0b0b0;stroke-linecap:square;stroke-width:0.8;"/>
     </g>
     <g id="line2d_108">
      <g>
       <use style="stroke:#000000;stroke-width:0.8;" x="62.208" xlink:href="#m353a496e1e" y="121.302178"/>
      </g>
     </g>
     <g id="text_8">
      <!-- 0.6 -->
      <g transform="translate(29.763 127.380928)scale(0.16 -0.16)">
       <defs>
        <path d="M 33.015625 40.375 
Q 26.375 40.375 22.484375 35.828125 
Q 18.609375 31.296875 18.609375 23.390625 
Q 18.609375 15.53125 22.484375 10.953125 
Q 26.375 6.390625 33.015625 6.390625 
Q 39.65625 6.390625 43.53125 10.953125 
Q 47.40625 15.53125 47.40625 23.390625 
Q 47.40625 31.296875 43.53125 35.828125 
Q 39.65625 40.375 33.015625 40.375 
z
M 52.59375 71.296875 
L 52.59375 62.3125 
Q 48.875 64.0625 45.09375 64.984375 
Q 41.3125 65.921875 37.59375 65.921875 
Q 27.828125 65.921875 22.671875 59.328125 
Q 17.53125 52.734375 16.796875 39.40625 
Q 19.671875 43.65625 24.015625 45.921875 
Q 28.375 48.1875 33.59375 48.1875 
Q 44.578125 48.1875 50.953125 41.515625 
Q 57.328125 34.859375 57.328125 23.390625 
Q 57.328125 12.15625 50.6875 5.359375 
Q 44.046875 -1.421875 33.015625 -1.421875 
Q 20.359375 -1.421875 13.671875 8.265625 
Q 6.984375 17.96875 6.984375 36.375 
Q 6.984375 53.65625 15.1875 63.9375 
Q 23.390625 74.21875 37.203125 74.21875 
Q 40.921875 74.21875 44.703125 73.484375 
Q 48.484375 72.75 52.59375 71.296875 
z
" id="DejaVuSans-54"/>
       </defs>
       <use xlink:href="#DejaVuSans-48"/>
       <use x="63.623047" xlink:href="#DejaVuSans-46"/>
       <use x="95.410156" xlink:href="#DejaVuSans-54"/>
      </g>
     </g>
    </g>
    <g id="ytick_5">
     <g id="line2d_109">
      <path clip-path="url(#p7149359460)" d="M 62.208 63.816238 
L 460.8 63.816238 
" style="fill:none;stroke:#b0b0b0;stroke-linecap:square;stroke-width:0.8;"/>
     </g>
     <g id="line2d_110">
      <g>
       <use style="stroke:#000000;stroke-width:0.8;" x="62.208" xlink:href="#m353a496e1e" y="63.816238"/>
      </g>
     </g>
     <g id="text_9">
      <!-- 0.8 -->
      <g transform="translate(29.763 69.894988)scale(0.16 -0.16)">
       <defs>
        <path d="M 31.78125 34.625 
Q 24.75 34.625 20.71875 30.859375 
Q 16.703125 27.09375 16.703125 20.515625 
Q 16.703125 13.921875 20.71875 10.15625 
Q 24.75 6.390625 31.78125 6.390625 
Q 38.8125 6.390625 42.859375 10.171875 
Q 46.921875 13.96875 46.921875 20.515625 
Q 46.921875 27.09375 42.890625 30.859375 
Q 38.875 34.625 31.78125 34.625 
z
M 21.921875 38.8125 
Q 15.578125 40.375 12.03125 44.71875 
Q 8.5 49.078125 8.5 55.328125 
Q 8.5 64.0625 14.71875 69.140625 
Q 20.953125 74.21875 31.78125 74.21875 
Q 42.671875 74.21875 48.875 69.140625 
Q 55.078125 64.0625 55.078125 55.328125 
Q 55.078125 49.078125 51.53125 44.71875 
Q 48 40.375 41.703125 38.8125 
Q 48.828125 37.15625 52.796875 32.3125 
Q 56.78125 27.484375 56.78125 20.515625 
Q 56.78125 9.90625 50.3125 4.234375 
Q 43.84375 -1.421875 31.78125 -1.421875 
Q 19.734375 -1.421875 13.25 4.234375 
Q 6.78125 9.90625 6.78125 20.515625 
Q 6.78125 27.484375 10.78125 32.3125 
Q 14.796875 37.15625 21.921875 38.8125 
z
M 18.3125 54.390625 
Q 18.3125 48.734375 21.84375 45.5625 
Q 25.390625 42.390625 31.78125 42.390625 
Q 38.140625 42.390625 41.71875 45.5625 
Q 45.3125 48.734375 45.3125 54.390625 
Q 45.3125 60.0625 41.71875 63.234375 
Q 38.140625 66.40625 31.78125 66.40625 
Q 25.390625 66.40625 21.84375 63.234375 
Q 18.3125 60.0625 18.3125 54.390625 
z
" id="DejaVuSans-56"/>
       </defs>
       <use xlink:href="#DejaVuSans-48"/>
       <use x="63.623047" xlink:href="#DejaVuSans-46"/>
       <use x="95.410156" xlink:href="#DejaVuSans-56"/>
      </g>
     </g>
    </g>
    <g id="ytick_6">
     <g id="line2d_111">
      <path clip-path="url(#p7149359460)" d="M 62.208 6.330297 
L 460.8 6.330297 
" style="fill:none;stroke:#b0b0b0;stroke-linecap:square;stroke-width:0.8;"/>
     </g>
     <g id="line2d_112">
      <g>
       <use style="stroke:#000000;stroke-width:0.8;" x="62.208" xlink:href="#m353a496e1e" y="6.330297"/>
      </g>
     </g>
     <g id="text_10">
      <!-- 1.0 -->
      <g transform="translate(29.763 12.409047)scale(0.16 -0.16)">
       <use xlink:href="#DejaVuSans-49"/>
       <use x="63.623047" xlink:href="#DejaVuSans-46"/>
       <use x="95.410156" xlink:href="#DejaVuSans-48"/>
      </g>
     </g>
    </g>
    <g id="text_11">
     <!-- proportion of trials -->
     <g transform="translate(21.603625 241.61425)rotate(-90)scale(0.2 -0.2)">
      <defs>
       <path d="M 18.109375 8.203125 
L 18.109375 -20.796875 
L 9.078125 -20.796875 
L 9.078125 54.6875 
L 18.109375 54.6875 
L 18.109375 46.390625 
Q 20.953125 51.265625 25.265625 53.625 
Q 29.59375 56 35.59375 56 
Q 45.5625 56 51.78125 48.09375 
Q 58.015625 40.1875 58.015625 27.296875 
Q 58.015625 14.40625 51.78125 6.484375 
Q 45.5625 -1.421875 35.59375 -1.421875 
Q 29.59375 -1.421875 25.265625 0.953125 
Q 20.953125 3.328125 18.109375 8.203125 
z
M 48.6875 27.296875 
Q 48.6875 37.203125 44.609375 42.84375 
Q 40.53125 48.484375 33.40625 48.484375 
Q 26.265625 48.484375 22.1875 42.84375 
Q 18.109375 37.203125 18.109375 27.296875 
Q 18.109375 17.390625 22.1875 11.75 
Q 26.265625 6.109375 33.40625 6.109375 
Q 40.53125 6.109375 44.609375 11.75 
Q 48.6875 17.390625 48.6875 27.296875 
z
" id="DejaVuSans-112"/>
       <path d="M 41.109375 46.296875 
Q 39.59375 47.171875 37.8125 47.578125 
Q 36.03125 48 33.890625 48 
Q 26.265625 48 22.1875 43.046875 
Q 18.109375 38.09375 18.109375 28.8125 
L 18.109375 0 
L 9.078125 0 
L 9.078125 54.6875 
L 18.109375 54.6875 
L 18.109375 46.1875 
Q 20.953125 51.171875 25.484375 53.578125 
Q 30.03125 56 36.53125 56 
Q 37.453125 56 38.578125 55.875 
Q 39.703125 55.765625 41.0625 55.515625 
z
" id="DejaVuSans-114"/>
       <path d="M 18.3125 70.21875 
L 18.3125 54.6875 
L 36.8125 54.6875 
L 36.8125 47.703125 
L 18.3125 47.703125 
L 18.3125 18.015625 
Q 18.3125 11.328125 20.140625 9.421875 
Q 21.96875 7.515625 27.59375 7.515625 
L 36.8125 7.515625 
L 36.8125 0 
L 27.59375 0 
Q 17.1875 0 13.234375 3.875 
Q 9.28125 7.765625 9.28125 18.015625 
L 9.28125 47.703125 
L 2.6875 47.703125 
L 2.6875 54.6875 
L 9.28125 54.6875 
L 9.28125 70.21875 
z
" id="DejaVuSans-116"/>
      </defs>
      <use xlink:href="#DejaVuSans-112"/>
      <use x="63.476562" xlink:href="#DejaVuSans-114"/>
      <use x="102.339844" xlink:href="#DejaVuSans-111"/>
      <use x="163.521484" xlink:href="#DejaVuSans-112"/>
      <use x="226.998047" xlink:href="#DejaVuSans-111"/>
      <use x="288.179688" xlink:href="#DejaVuSans-114"/>
      <use x="329.292969" xlink:href="#DejaVuSans-116"/>
      <use x="368.501953" xlink:href="#DejaVuSans-105"/>
      <use x="396.285156" xlink:href="#DejaVuSans-111"/>
      <use x="457.466797" xlink:href="#DejaVuSans-110"/>
      <use x="520.845703" xlink:href="#DejaVuSans-32"/>
      <use x="552.632812" xlink:href="#DejaVuSans-111"/>
      <use x="613.814453" xlink:href="#DejaVuSans-102"/>
      <use x="649.019531" xlink:href="#DejaVuSans-32"/>
      <use x="680.806641" xlink:href="#DejaVuSans-116"/>
      <use x="720.015625" xlink:href="#DejaVuSans-114"/>
      <use x="761.128906" xlink:href="#DejaVuSans-105"/>
      <use x="788.912109" xlink:href="#DejaVuSans-97"/>
      <use x="850.191406" xlink:href="#DejaVuSans-108"/>
      <use x="877.974609" xlink:href="#DejaVuSans-115"/>
     </g>
    </g>
   </g>
   <g id="line2d_113">
    <path clip-path="url(#p7149359460)" d="M 112.372781 293.76 
L 112.372781 287.372673 
L 112.372781 287.372673 
L 112.372781 280.985347 
L 112.372781 280.985347 
L 112.372781 274.59802 
L 112.372781 274.59802 
L 112.372781 268.210693 
L 112.372781 268.210693 
L 112.372781 261.823366 
L 112.372781 261.823366 
L 112.372781 255.43604 
L 112.372781 255.43604 
L 112.372781 249.048713 
L 112.372781 249.048713 
L 112.372781 242.661386 
L 112.372781 242.661386 
L 112.372781 236.274059 
L 117.452569 236.274059 
L 117.452569 229.886733 
L 117.452569 229.886733 
L 117.452569 223.499406 
L 117.452569 223.499406 
L 117.452569 217.112079 
L 117.452569 217.112079 
L 117.452569 210.724752 
L 117.452569 210.724752 
L 117.452569 204.337426 
L 121.996595 204.337426 
L 121.996595 197.950099 
L 121.996595 197.950099 
L 121.996595 191.562772 
L 126.107166 191.562772 
L 126.107166 185.175446 
L 129.859824 185.175446 
L 129.859824 178.788119 
L 129.859824 178.788119 
L 129.859824 172.400792 
L 133.311934 172.400792 
L 133.311934 166.013465 
L 133.311934 166.013465 
L 133.311934 159.626139 
L 133.311934 159.626139 
L 133.311934 153.238812 
L 133.311934 153.238812 
L 133.311934 146.851485 
L 133.311934 146.851485 
L 133.311934 140.464158 
L 136.508089 140.464158 
L 136.508089 134.076832 
L 136.508089 134.076832 
L 136.508089 127.689505 
L 136.508089 127.689505 
L 136.508089 121.302178 
L 136.508089 121.302178 
L 136.508089 114.914851 
L 142.267079 114.914851 
L 142.267079 108.527525 
L 142.267079 108.527525 
L 142.267079 102.140198 
L 144.881719 102.140198 
L 144.881719 95.752871 
L 151.890893 95.752871 
L 151.890893 89.365545 
L 151.890893 89.365545 
L 151.890893 82.978218 
L 151.890893 82.978218 
L 151.890893 76.590891 
L 156.001464 76.590891 
L 156.001464 70.203564 
L 156.001464 70.203564 
L 156.001464 63.816238 
L 159.754122 63.816238 
L 159.754122 57.428911 
L 161.514707 57.428911 
L 161.514707 51.041584 
L 163.206232 51.041584 
L 163.206232 44.654257 
L 164.83391 44.654257 
L 164.83391 38.266931 
L 164.83391 38.266931 
L 164.83391 31.879604 
L 166.402387 31.879604 
L 166.402387 25.492277 
L 166.402387 25.492277 
L 166.402387 19.10495 
L 167.915818 19.10495 
L 167.915818 12.717624 
L 169.377936 12.717624 
L 169.377936 6.330297 
L 169.377936 6.330297 
L 169.377936 6.330297 
L 460.8 6.330297 
" style="fill:none;stroke:#000000;stroke-linecap:square;stroke-width:1.5;"/>
   </g>
   <g id="line2d_114">
    <path clip-path="url(#p7149359460)" style="fill:none;stroke:#000000;stroke-linecap:square;stroke-width:1.5;"/>
   </g>
   <g id="line2d_115">
    <path clip-path="url(#p7149359460)" d="M 112.372781 293.76 
L 112.372781 287.372673 
L 112.372781 287.372673 
L 112.372781 280.985347 
L 112.372781 280.985347 
L 112.372781 274.59802 
L 112.372781 274.59802 
L 112.372781 268.210693 
L 112.372781 268.210693 
L 112.372781 261.823366 
L 112.372781 261.823366 
L 112.372781 255.43604 
L 112.372781 255.43604 
L 112.372781 249.048713 
L 112.372781 249.048713 
L 112.372781 242.661386 
L 112.372781 242.661386 
L 112.372781 236.274059 
L 117.452569 236.274059 
L 117.452569 229.886733 
L 117.452569 229.886733 
L 117.452569 223.499406 
L 117.452569 223.499406 
L 117.452569 217.112079 
L 121.996595 217.112079 
L 121.996595 210.724752 
L 121.996595 210.724752 
L 121.996595 204.337426 
L 129.859824 204.337426 
L 129.859824 197.950099 
L 129.859824 197.950099 
L 129.859824 191.562772 
L 133.311934 191.562772 
L 133.311934 185.175446 
L 133.311934 185.175446 
L 133.311934 178.788119 
L 133.311934 178.788119 
L 133.311934 172.400792 
L 133.311934 172.400792 
L 133.311934 166.013465 
L 136.508089 166.013465 
L 136.508089 159.626139 
L 139.483638 159.626139 
L 139.483638 153.238812 
L 142.267079 153.238812 
L 142.267079 146.851485 
L 149.678697 146.851485 
L 149.678697 140.464158 
L 151.890893 140.464158 
L 151.890893 134.076832 
L 153.995132 134.076832 
L 153.995132 127.689505 
L 159.754122 127.689505 
L 159.754122 121.302178 
L 161.514707 121.302178 
L 161.514707 114.914851 
L 161.514707 114.914851 
L 161.514707 108.527525 
L 163.206232 108.527525 
L 163.206232 102.140198 
L 164.83391 102.140198 
L 164.83391 95.752871 
L 166.402387 95.752871 
L 166.402387 89.365545 
L 169.377936 89.365545 
L 169.377936 82.978218 
L 170.792107 82.978218 
L 170.792107 76.590891 
L 170.792107 76.590891 
L 170.792107 70.203564 
L 170.792107 70.203564 
L 170.792107 63.816238 
L 172.161376 63.816238 
L 172.161376 57.428911 
L 179.572995 57.428911 
L 179.572995 51.041584 
L 180.693275 51.041584 
L 180.693275 44.654257 
L 180.693275 44.654257 
L 180.693275 38.266931 
L 180.693275 38.266931 
L 180.693275 31.879604 
L 180.693275 31.879604 
L 180.693275 25.492277 
L 188.74042 25.492277 
L 188.74042 19.10495 
L 189.648419 19.10495 
L 189.648419 12.717624 
L 192.263059 12.717624 
L 192.263059 6.330297 
L 192.263059 6.330297 
L 192.263059 6.330297 
L 460.8 6.330297 
" style="fill:none;stroke:#00bfbf;stroke-linecap:square;stroke-width:1.5;"/>
   </g>
   <g id="line2d_116">
    <path clip-path="url(#p7149359460)" style="fill:none;stroke:#00bfbf;stroke-linecap:square;stroke-width:1.5;"/>
   </g>
   <g id="line2d_117">
    <path clip-path="url(#p7149359460)" d="M 112.372781 293.76 
L 112.372781 287.372673 
L 112.372781 287.372673 
L 112.372781 280.985347 
L 112.372781 280.985347 
L 112.372781 274.59802 
L 112.372781 274.59802 
L 112.372781 268.210693 
L 112.372781 268.210693 
L 112.372781 261.823366 
L 112.372781 261.823366 
L 112.372781 255.43604 
L 112.372781 255.43604 
L 112.372781 249.048713 
L 112.372781 249.048713 
L 112.372781 242.661386 
L 112.372781 242.661386 
L 112.372781 236.274059 
L 117.452569 236.274059 
L 117.452569 229.886733 
L 117.452569 229.886733 
L 117.452569 223.499406 
L 117.452569 223.499406 
L 117.452569 217.112079 
L 121.996595 217.112079 
L 121.996595 210.724752 
L 121.996595 210.724752 
L 121.996595 204.337426 
L 129.859824 204.337426 
L 129.859824 197.950099 
L 129.859824 197.950099 
L 129.859824 191.562772 
L 133.311934 191.562772 
L 133.311934 185.175446 
L 133.311934 185.175446 
L 133.311934 178.788119 
L 133.311934 178.788119 
L 133.311934 172.400792 
L 133.311934 172.400792 
L 133.311934 166.013465 
L 136.508089 166.013465 
L 136.508089 159.626139 
L 139.483638 159.626139 
L 139.483638 153.238812 
L 149.678697 153.238812 
L 149.678697 146.851485 
L 151.890893 146.851485 
L 151.890893 140.464158 
L 153.995132 140.464158 
L 153.995132 134.076832 
L 159.754122 134.076832 
L 159.754122 127.689505 
L 166.402387 127.689505 
L 166.402387 121.302178 
L 170.792107 121.302178 
L 170.792107 114.914851 
L 189.648419 114.914851 
L 189.648419 108.527525 
L 189.648419 108.527525 
L 189.648419 102.140198 
L 194.728208 102.140198 
L 194.728208 95.752871 
L 196.296684 95.752871 
L 196.296684 89.365545 
L 198.54737 89.365545 
L 198.54737 82.978218 
L 199.272233 82.978218 
L 199.272233 76.590891 
L 199.985115 76.590891 
L 199.985115 70.203564 
L 199.985115 70.203564 
L 199.985115 63.816238 
L 200.686405 63.816238 
L 200.686405 57.428911 
L 201.376473 57.428911 
L 201.376473 51.041584 
L 202.055674 51.041584 
L 202.055674 44.654257 
L 204.031364 44.654257 
L 204.031364 38.266931 
L 207.135462 38.266931 
L 207.135462 31.879604 
L 210.03107 31.879604 
L 210.03107 25.492277 
L 211.136986 25.492277 
L 211.136986 19.10495 
L 259.950105 19.10495 
L 259.950105 12.717624 
L 323.305756 12.717624 
L 323.305756 6.330297 
L 323.305756 6.330297 
L 323.305756 6.330297 
L 460.8 6.330297 
" style="fill:none;stroke:#bf00bf;stroke-linecap:square;stroke-width:1.5;"/>
   </g>
   <g id="line2d_118">
    <path clip-path="url(#p7149359460)" style="fill:none;stroke:#bf00bf;stroke-linecap:square;stroke-width:1.5;"/>
   </g>
   <g id="line2d_119">
    <path clip-path="url(#p7149359460)" d="M 112.372781 293.76 
L 112.372781 287.372673 
L 112.372781 287.372673 
L 112.372781 280.985347 
L 112.372781 280.985347 
L 112.372781 274.59802 
L 112.372781 274.59802 
L 112.372781 268.210693 
L 112.372781 268.210693 
L 112.372781 261.823366 
L 112.372781 261.823366 
L 112.372781 255.43604 
L 112.372781 255.43604 
L 112.372781 249.048713 
L 112.372781 249.048713 
L 112.372781 242.661386 
L 112.372781 242.661386 
L 112.372781 236.274059 
L 117.452569 236.274059 
L 117.452569 229.886733 
L 117.452569 229.886733 
L 117.452569 223.499406 
L 117.452569 223.499406 
L 117.452569 217.112079 
L 121.996595 217.112079 
L 121.996595 210.724752 
L 121.996595 210.724752 
L 121.996595 204.337426 
L 129.859824 204.337426 
L 129.859824 197.950099 
L 129.859824 197.950099 
L 129.859824 191.562772 
L 133.311934 191.562772 
L 133.311934 185.175446 
L 133.311934 185.175446 
L 133.311934 178.788119 
L 133.311934 178.788119 
L 133.311934 172.400792 
L 133.311934 172.400792 
L 133.311934 166.013465 
L 136.508089 166.013465 
L 136.508089 159.626139 
L 139.483638 159.626139 
L 139.483638 153.238812 
L 149.678697 153.238812 
L 149.678697 146.851485 
L 151.890893 146.851485 
L 151.890893 140.464158 
L 153.995132 140.464158 
L 153.995132 134.076832 
L 159.754122 134.076832 
L 159.754122 127.689505 
L 166.402387 127.689505 
L 166.402387 121.302178 
L 170.792107 121.302178 
L 170.792107 114.914851 
L 189.648419 114.914851 
L 189.648419 108.527525 
L 198.54737 108.527525 
L 198.54737 102.140198 
L 199.985115 102.140198 
L 199.985115 95.752871 
L 202.055674 95.752871 
L 202.055674 89.365545 
L 204.670314 89.365545 
L 204.670314 82.978218 
L 207.135462 82.978218 
L 207.135462 76.590891 
L 208.896048 76.590891 
L 208.896048 70.203564 
L 212.215251 70.203564 
L 212.215251 63.816238 
L 212.215251 63.816238 
L 212.215251 57.428911 
L 212.74444 57.428911 
L 212.74444 51.041584 
L 215.790059 51.041584 
L 215.790059 44.654257 
L 216.27739 44.654257 
L 216.27739 38.266931 
L 216.759277 38.266931 
L 216.759277 31.879604 
L 221.303302 31.879604 
L 221.303302 25.492277 
L 223.816344 25.492277 
L 223.816344 19.10495 
L 323.507857 19.10495 
L 323.507857 12.717624 
L 323.829263 12.717624 
L 323.829263 6.330297 
L 323.829263 6.330297 
L 323.829263 6.330297 
L 460.8 6.330297 
" style="fill:none;stroke:#ff0000;stroke-linecap:square;stroke-width:3;"/>
   </g>
   <g id="line2d_120">
    <path clip-path="url(#p7149359460)" style="fill:none;stroke:#ff0000;stroke-linecap:square;stroke-width:3;"/>
   </g>
   <g id="line2d_121">
    <path clip-path="url(#p7149359460)" d="M 324.935685 293.76 
L 324.935685 3.456 
" style="fill:none;stroke:#000000;stroke-linecap:square;stroke-width:1.5;"/>
   </g>
   <g id="patch_3">
    <path d="M 62.208 293.76 
L 62.208 3.456 
" style="fill:none;stroke:#000000;stroke-linecap:square;stroke-linejoin:miter;stroke-width:0.8;"/>
   </g>
   <g id="patch_4">
    <path d="M 460.8 293.76 
L 460.8 3.456 
" style="fill:none;stroke:#000000;stroke-linecap:square;stroke-linejoin:miter;stroke-width:0.8;"/>
   </g>
   <g id="patch_5">
    <path d="M 62.208 293.76 
L 460.8 293.76 
" style="fill:none;stroke:#000000;stroke-linecap:square;stroke-linejoin:miter;stroke-width:0.8;"/>
   </g>
   <g id="patch_6">
    <path d="M 62.208 3.456 
L 460.8 3.456 
" style="fill:none;stroke:#000000;stroke-linecap:square;stroke-linejoin:miter;stroke-width:0.8;"/>
   </g>
   <g id="text_12">
    <!-- {f5, f11, f17}, 5-D -->
    <g transform="translate(169.6665 24.458955)scale(0.2 -0.2)">
     <defs>
      <path d="M 51.125 -9.28125 
L 51.125 -16.3125 
L 48.09375 -16.3125 
Q 35.9375 -16.3125 31.8125 -12.6875 
Q 27.6875 -9.078125 27.6875 1.703125 
L 27.6875 13.375 
Q 27.6875 20.75 25.046875 23.578125 
Q 22.40625 26.421875 15.484375 26.421875 
L 12.5 26.421875 
L 12.5 33.40625 
L 15.484375 33.40625 
Q 22.46875 33.40625 25.078125 36.203125 
Q 27.6875 39.015625 27.6875 46.296875 
L 27.6875 58.015625 
Q 27.6875 68.796875 31.8125 72.390625 
Q 35.9375 75.984375 48.09375 75.984375 
L 51.125 75.984375 
L 51.125 69 
L 47.796875 69 
Q 40.921875 69 38.8125 66.84375 
Q 36.71875 64.703125 36.71875 57.8125 
L 36.71875 45.703125 
Q 36.71875 38.03125 34.5 34.5625 
Q 32.28125 31.109375 26.90625 29.890625 
Q 32.328125 28.5625 34.515625 25.09375 
Q 36.71875 21.625 36.71875 14.015625 
L 36.71875 1.90625 
Q 36.71875 -4.984375 38.8125 -7.125 
Q 40.921875 -9.28125 47.796875 -9.28125 
z
" id="DejaVuSans-123"/>
      <path d="M 10.796875 72.90625 
L 49.515625 72.90625 
L 49.515625 64.59375 
L 19.828125 64.59375 
L 19.828125 46.734375 
Q 21.96875 47.46875 24.109375 47.828125 
Q 26.265625 48.1875 28.421875 48.1875 
Q 40.625 48.1875 47.75 41.5 
Q 54.890625 34.8125 54.890625 23.390625 
Q 54.890625 11.625 47.5625 5.09375 
Q 40.234375 -1.421875 26.90625 -1.421875 
Q 22.3125 -1.421875 17.546875 -0.640625 
Q 12.796875 0.140625 7.71875 1.703125 
L 7.71875 11.625 
Q 12.109375 9.234375 16.796875 8.0625 
Q 21.484375 6.890625 26.703125 6.890625 
Q 35.15625 6.890625 40.078125 11.328125 
Q 45.015625 15.765625 45.015625 23.390625 
Q 45.015625 31 40.078125 35.4375 
Q 35.15625 39.890625 26.703125 39.890625 
Q 22.75 39.890625 18.8125 39.015625 
Q 14.890625 38.140625 10.796875 36.28125 
z
" id="DejaVuSans-53"/>
      <path d="M 11.71875 12.40625 
L 22.015625 12.40625 
L 22.015625 4 
L 14.015625 -11.625 
L 7.71875 -11.625 
L 11.71875 4 
z
" id="DejaVuSans-44"/>
      <path d="M 8.203125 72.90625 
L 55.078125 72.90625 
L 55.078125 68.703125 
L 28.609375 0 
L 18.3125 0 
L 43.21875 64.59375 
L 8.203125 64.59375 
z
" id="DejaVuSans-55"/>
      <path d="M 12.5 -9.28125 
L 15.921875 -9.28125 
Q 22.75 -9.28125 24.828125 -7.171875 
Q 26.90625 -5.078125 26.90625 1.90625 
L 26.90625 14.015625 
Q 26.90625 21.625 29.09375 25.09375 
Q 31.296875 28.5625 36.71875 29.890625 
Q 31.296875 31.109375 29.09375 34.5625 
Q 26.90625 38.03125 26.90625 45.703125 
L 26.90625 57.8125 
Q 26.90625 64.75 24.828125 66.875 
Q 22.75 69 15.921875 69 
L 12.5 69 
L 12.5 75.984375 
L 15.578125 75.984375 
Q 27.734375 75.984375 31.8125 72.390625 
Q 35.890625 68.796875 35.890625 58.015625 
L 35.890625 46.296875 
Q 35.890625 39.015625 38.515625 36.203125 
Q 41.15625 33.40625 48.09375 33.40625 
L 51.125 33.40625 
L 51.125 26.421875 
L 48.09375 26.421875 
Q 41.15625 26.421875 38.515625 23.578125 
Q 35.890625 20.75 35.890625 13.375 
L 35.890625 1.703125 
Q 35.890625 -9.078125 31.8125 -12.6875 
Q 27.734375 -16.3125 15.578125 -16.3125 
L 12.5 -16.3125 
z
" id="DejaVuSans-125"/>
      <path d="M 19.671875 64.796875 
L 19.671875 8.109375 
L 31.59375 8.109375 
Q 46.6875 8.109375 53.6875 14.9375 
Q 60.6875 21.78125 60.6875 36.53125 
Q 60.6875 51.171875 53.6875 57.984375 
Q 46.6875 64.796875 31.59375 64.796875 
z
M 9.8125 72.90625 
L 30.078125 72.90625 
Q 51.265625 72.90625 61.171875 64.09375 
Q 71.09375 55.28125 71.09375 36.53125 
Q 71.09375 17.671875 61.125 8.828125 
Q 51.171875 0 30.078125 0 
L 9.8125 0 
z
" id="DejaVuSans-68"/>
     </defs>
     <use xlink:href="#DejaVuSans-123"/>
     <use x="63.623047" xlink:href="#DejaVuSans-102"/>
     <use x="98.828125" xlink:href="#DejaVuSans-53"/>
     <use x="162.451172" xlink:href="#DejaVuSans-44"/>
     <use x="194.238281" xlink:href="#DejaVuSans-32"/>
     <use x="226.025391" xlink:href="#DejaVuSans-102"/>
     <use x="261.230469" xlink:href="#DejaVuSans-49"/>
     <use x="324.853516" xlink:href="#DejaVuSans-49"/>
     <use x="388.476562" xlink:href="#DejaVuSans-44"/>
     <use x="420.263672" xlink:href="#DejaVuSans-32"/>
     <use x="452.050781" xlink:href="#DejaVuSans-102"/>
     <use x="487.255859" xlink:href="#DejaVuSans-49"/>
     <use x="550.878906" xlink:href="#DejaVuSans-55"/>
     <use x="614.501953" xlink:href="#DejaVuSans-125"/>
     <use x="678.125" xlink:href="#DejaVuSans-44"/>
     <use x="709.912109" xlink:href="#DejaVuSans-32"/>
     <use x="741.699219" xlink:href="#DejaVuSans-53"/>
     <use x="805.322266" xlink:href="#DejaVuSans-45"/>
     <use x="841.40625" xlink:href="#DejaVuSans-68"/>
    </g>
   </g>
   <g id="text_13">
    <!-- absolute targets -->
    <g transform="translate(62.208 609.932673)scale(0.14 -0.14)">
     <defs>
      <path d="M 48.6875 27.296875 
Q 48.6875 37.203125 44.609375 42.84375 
Q 40.53125 48.484375 33.40625 48.484375 
Q 26.265625 48.484375 22.1875 42.84375 
Q 18.109375 37.203125 18.109375 27.296875 
Q 18.109375 17.390625 22.1875 11.75 
Q 26.265625 6.109375 33.40625 6.109375 
Q 40.53125 6.109375 44.609375 11.75 
Q 48.6875 17.390625 48.6875 27.296875 
z
M 18.109375 46.390625 
Q 20.953125 51.265625 25.265625 53.625 
Q 29.59375 56 35.59375 56 
Q 45.5625 56 51.78125 48.09375 
Q 58.015625 40.1875 58.015625 27.296875 
Q 58.015625 14.40625 51.78125 6.484375 
Q 45.5625 -1.421875 35.59375 -1.421875 
Q 29.59375 -1.421875 25.265625 0.953125 
Q 20.953125 3.328125 18.109375 8.203125 
L 18.109375 0 
L 9.078125 0 
L 9.078125 75.984375 
L 18.109375 75.984375 
z
" id="DejaVuSans-98"/>
      <path d="M 8.5 21.578125 
L 8.5 54.6875 
L 17.484375 54.6875 
L 17.484375 21.921875 
Q 17.484375 14.15625 20.5 10.265625 
Q 23.53125 6.390625 29.59375 6.390625 
Q 36.859375 6.390625 41.078125 11.03125 
Q 45.3125 15.671875 45.3125 23.6875 
L 45.3125 54.6875 
L 54.296875 54.6875 
L 54.296875 0 
L 45.3125 0 
L 45.3125 8.40625 
Q 42.046875 3.421875 37.71875 1 
Q 33.40625 -1.421875 27.6875 -1.421875 
Q 18.265625 -1.421875 13.375 4.4375 
Q 8.5 10.296875 8.5 21.578125 
z
M 31.109375 56 
z
" id="DejaVuSans-117"/>
     </defs>
     <use xlink:href="#DejaVuSans-97"/>
     <use x="61.279297" xlink:href="#DejaVuSans-98"/>
     <use x="124.755859" xlink:href="#DejaVuSans-115"/>
     <use x="176.855469" xlink:href="#DejaVuSans-111"/>
     <use x="238.037109" xlink:href="#DejaVuSans-108"/>
     <use x="265.820312" xlink:href="#DejaVuSans-117"/>
     <use x="329.199219" xlink:href="#DejaVuSans-116"/>
     <use x="368.408203" xlink:href="#DejaVuSans-101"/>
     <use x="429.931641" xlink:href="#DejaVuSans-32"/>
     <use x="461.71875" xlink:href="#DejaVuSans-116"/>
     <use x="500.927734" xlink:href="#DejaVuSans-97"/>
     <use x="562.207031" xlink:href="#DejaVuSans-114"/>
     <use x="601.570312" xlink:href="#DejaVuSans-103"/>
     <use x="665.046875" xlink:href="#DejaVuSans-101"/>
     <use x="726.570312" xlink:href="#DejaVuSans-116"/>
     <use x="765.779297" xlink:href="#DejaVuSans-115"/>
    </g>
   </g>
   <g id="text_14">
    <!-- v2.4.82 -->
    <g style="fill:#808080;" transform="translate(242.6415 288.777272)scale(0.1 -0.1)">
     <use xlink:href="#DejaVuSans-118"/>
     <use x="59.179688" xlink:href="#DejaVuSans-50"/>
     <use x="122.802734" xlink:href="#DejaVuSans-46"/>
     <use x="154.589844" xlink:href="#DejaVuSans-52"/>
     <use x="218.212891" xlink:href="#DejaVuSans-46"/>
     <use x="250" xlink:href="#DejaVuSans-56"/>
     <use x="313.623047" xlink:href="#DejaVuSans-50"/>
    </g>
   </g>
   <g id="legend_1">
    <g id="patch_7">
     <path d="M 196.893062 136.881 
L 326.114937 136.881 
Q 330.114937 136.881 330.114937 132.881 
L 330.114937 17.456 
Q 330.114937 13.456 326.114937 13.456 
L 196.893062 13.456 
Q 192.893062 13.456 192.893062 17.456 
L 192.893062 132.881 
Q 192.893062 136.881 196.893062 136.881 
z
" style="fill:#ffffff;opacity:0.2;stroke:#cccccc;stroke-linejoin:miter;"/>
    </g>
    <g id="line2d_122">
     <path d="M 200.893062 29.652875 
L 240.893062 29.652875 
" style="fill:none;stroke:#000000;stroke-linecap:square;stroke-width:1.5;"/>
    </g>
    <g id="line2d_123"/>
    <g id="text_15">
     <!-- 1: 3/3 -->
     <g transform="translate(256.893062 36.652875)scale(0.2 -0.2)">
      <defs>
       <path d="M 11.71875 12.40625 
L 22.015625 12.40625 
L 22.015625 0 
L 11.71875 0 
z
M 11.71875 51.703125 
L 22.015625 51.703125 
L 22.015625 39.3125 
L 11.71875 39.3125 
z
" id="DejaVuSans-58"/>
       <path d="M 40.578125 39.3125 
Q 47.65625 37.796875 51.625 33 
Q 55.609375 28.21875 55.609375 21.1875 
Q 55.609375 10.40625 48.1875 4.484375 
Q 40.765625 -1.421875 27.09375 -1.421875 
Q 22.515625 -1.421875 17.65625 -0.515625 
Q 12.796875 0.390625 7.625 2.203125 
L 7.625 11.71875 
Q 11.71875 9.328125 16.59375 8.109375 
Q 21.484375 6.890625 26.8125 6.890625 
Q 36.078125 6.890625 40.9375 10.546875 
Q 45.796875 14.203125 45.796875 21.1875 
Q 45.796875 27.640625 41.28125 31.265625 
Q 36.765625 34.90625 28.71875 34.90625 
L 20.21875 34.90625 
L 20.21875 43.015625 
L 29.109375 43.015625 
Q 36.375 43.015625 40.234375 45.921875 
Q 44.09375 48.828125 44.09375 54.296875 
Q 44.09375 59.90625 40.109375 62.90625 
Q 36.140625 65.921875 28.71875 65.921875 
Q 24.65625 65.921875 20.015625 65.03125 
Q 15.375 64.15625 9.8125 62.3125 
L 9.8125 71.09375 
Q 15.4375 72.65625 20.34375 73.4375 
Q 25.25 74.21875 29.59375 74.21875 
Q 40.828125 74.21875 47.359375 69.109375 
Q 53.90625 64.015625 53.90625 55.328125 
Q 53.90625 49.265625 50.4375 45.09375 
Q 46.96875 40.921875 40.578125 39.3125 
z
" id="DejaVuSans-51"/>
      </defs>
      <use xlink:href="#DejaVuSans-49"/>
      <use x="63.623047" xlink:href="#DejaVuSans-58"/>
      <use x="97.314453" xlink:href="#DejaVuSans-32"/>
      <use x="129.101562" xlink:href="#DejaVuSans-51"/>
      <use x="192.724609" xlink:href="#DejaVuSans-47"/>
      <use x="226.416016" xlink:href="#DejaVuSans-51"/>
     </g>
    </g>
    <g id="line2d_124">
     <path d="M 200.893062 59.009125 
L 240.893062 59.009125 
" style="fill:none;stroke:#00bfbf;stroke-linecap:square;stroke-width:1.5;"/>
    </g>
    <g id="line2d_125"/>
    <g id="text_16">
     <!-- -1: 3/3 -->
     <g transform="translate(256.893062 66.009125)scale(0.2 -0.2)">
      <use xlink:href="#DejaVuSans-45"/>
      <use x="36.083984" xlink:href="#DejaVuSans-49"/>
      <use x="99.707031" xlink:href="#DejaVuSans-58"/>
      <use x="133.398438" xlink:href="#DejaVuSans-32"/>
      <use x="165.185547" xlink:href="#DejaVuSans-51"/>
      <use x="228.808594" xlink:href="#DejaVuSans-47"/>
      <use x="262.5" xlink:href="#DejaVuSans-51"/>
     </g>
    </g>
    <g id="line2d_126">
     <path d="M 200.893062 88.365375 
L 240.893062 88.365375 
" style="fill:none;stroke:#bf00bf;stroke-linecap:square;stroke-width:1.5;"/>
    </g>
    <g id="line2d_127"/>
    <g id="text_17">
     <!-- -4: 3/3 -->
     <g transform="translate(256.893062 95.365375)scale(0.2 -0.2)">
      <use xlink:href="#DejaVuSans-45"/>
      <use x="36.083984" xlink:href="#DejaVuSans-52"/>
      <use x="99.707031" xlink:href="#DejaVuSans-58"/>
      <use x="133.398438" xlink:href="#DejaVuSans-32"/>
      <use x="165.185547" xlink:href="#DejaVuSans-51"/>
      <use x="228.808594" xlink:href="#DejaVuSans-47"/>
      <use x="262.5" xlink:href="#DejaVuSans-51"/>
     </g>
    </g>
    <g id="line2d_128">
     <path d="M 200.893062 117.721625 
L 240.893062 117.721625 
" style="fill:none;stroke:#ff0000;stroke-linecap:square;stroke-width:3;"/>
    </g>
    <g id="line2d_129"/>
    <g id="text_18">
     <!-- -6: 3/3 -->
     <g transform="translate(256.893062 124.721625)scale(0.2 -0.2)">
      <use xlink:href="#DejaVuSans-45"/>
      <use x="36.083984" xlink:href="#DejaVuSans-54"/>
      <use x="99.707031" xlink:href="#DejaVuSans-58"/>
      <use x="133.398438" xlink:href="#DejaVuSans-32"/>
      <use x="165.185547" xlink:href="#DejaVuSans-51"/>
      <use x="228.808594" xlink:href="#DejaVuSans-47"/>
      <use x="262.5" xlink:href="#DejaVuSans-51"/>
     </g>
    </g>
   </g>
  </g>
 </g>
 <defs>
  <clipPath id="p7149359460">
   <rect height="290.304" width="398.592" x="62.208" y="3.456"/>
  </clipPath>
 </defs>
</svg>
