<?xml version="1.0" encoding="utf-8" standalone="no"?>
<!DOCTYPE svg PUBLIC "-//W3C//DTD SVG 1.1//EN"
  "http://www.w3.org/Graphics/SVG/1.1/DTD/svg11.dtd">
<!-- Created with matplotlib (https://matplotlib.org/) -->
<svg height="345.6pt" version="1.1" viewBox="0 0 460.8 345.6" width="460.8pt" xmlns="http://www.w3.org/2000/svg" xmlns:xlink="http://www.w3.org/1999/xlink">
 <metadata>
  <rdf:RDF xmlns:cc="http://creativecommons.org/ns#" xmlns:dc="http://purl.org/dc/elements/1.1/" xmlns:rdf="http://www.w3.org/1999/02/22-rdf-syntax-ns#">
   <cc:Work>
    <dc:type rdf:resource="http://purl.org/dc/dcmitype/StillImage"/>
    <dc:date>2022-02-08T12:05:35.895150</dc:date>
    <dc:format>image/svg+xml</dc:format>
    <dc:creator>
     <cc:Agent>
      <dc:title>Matplotlib v3.3.3, https://matplotlib.org/</dc:title>
     </cc:Agent>
    </dc:creator>
   </cc:Work>
  </rdf:RDF>
 </metadata>
 <defs>
  <style type="text/css">*{stroke-linecap:butt;stroke-linejoin:round;}</style>
 </defs>
 <g id="figure_1">
  <g id="patch_1">
   <path d="M 0 345.6 
L 460.8 345.6 
L 460.8 0 
L 0 0 
z
" style="fill:#ffffff;"/>
  </g>
  <g id="axes_1">
   <g id="patch_2">
    <path d="M 57.6 298.944 
L 360.8064 298.944 
L 360.8064 27.648 
L 57.6 27.648 
z
" style="fill:#ffffff;"/>
   </g>
   <g id="matplotlib.axis_1">
    <g id="xtick_1">
     <g id="line2d_1">
      <path clip-path="url(#pfa62e5a873)" d="M 57.6 298.944 
L 57.6 27.648 
" style="fill:none;stroke:#b0b0b0;stroke-linecap:square;stroke-width:0.8;"/>
     </g>
     <g id="line2d_2">
      <defs>
       <path d="M 0 0 
L 0 3.5 
" id="mbcb0850c6f" style="stroke:#000000;stroke-width:0.8;"/>
      </defs>
      <g>
       <use style="stroke:#000000;stroke-width:0.8;" x="57.6" xlink:href="#mbcb0850c6f" y="298.944"/>
      </g>
     </g>
     <g id="text_1">
      <!-- 0 -->
      <g transform="translate(52.191875 318.861344)scale(0.17 -0.17)">
       <defs>
        <path d="M 31.78125 66.40625 
Q 24.171875 66.40625 20.328125 58.90625 
Q 16.5 51.421875 16.5 36.375 
Q 16.5 21.390625 20.328125 13.890625 
Q 24.171875 6.390625 31.78125 6.390625 
Q 39.453125 6.390625 43.28125 13.890625 
Q 47.125 21.390625 47.125 36.375 
Q 47.125 51.421875 43.28125 58.90625 
Q 39.453125 66.40625 31.78125 66.40625 
z
M 31.78125 74.21875 
Q 44.046875 74.21875 50.515625 64.515625 
Q 56.984375 54.828125 56.984375 36.375 
Q 56.984375 17.96875 50.515625 8.265625 
Q 44.046875 -1.421875 31.78125 -1.421875 
Q 19.53125 -1.421875 13.0625 8.265625 
Q 6.59375 17.96875 6.59375 36.375 
Q 6.59375 54.828125 13.0625 64.515625 
Q 19.53125 74.21875 31.78125 74.21875 
z
" id="DejaVuSans-48"/>
       </defs>
       <use xlink:href="#DejaVuSans-48"/>
      </g>
     </g>
    </g>
    <g id="xtick_2">
     <g id="line2d_3">
      <path clip-path="url(#pfa62e5a873)" d="M 144.2304 298.944 
L 144.2304 27.648 
" style="fill:none;stroke:#b0b0b0;stroke-linecap:square;stroke-width:0.8;"/>
     </g>
     <g id="line2d_4">
      <g>
       <use style="stroke:#000000;stroke-width:0.8;" x="144.2304" xlink:href="#mbcb0850c6f" y="298.944"/>
      </g>
     </g>
     <g id="text_2">
      <!-- 2 -->
      <g transform="translate(138.822275 318.861344)scale(0.17 -0.17)">
       <defs>
        <path d="M 19.1875 8.296875 
L 53.609375 8.296875 
L 53.609375 0 
L 7.328125 0 
L 7.328125 8.296875 
Q 12.9375 14.109375 22.625 23.890625 
Q 32.328125 33.6875 34.8125 36.53125 
Q 39.546875 41.84375 41.421875 45.53125 
Q 43.3125 49.21875 43.3125 52.78125 
Q 43.3125 58.59375 39.234375 62.25 
Q 35.15625 65.921875 28.609375 65.921875 
Q 23.96875 65.921875 18.8125 64.3125 
Q 13.671875 62.703125 7.8125 59.421875 
L 7.8125 69.390625 
Q 13.765625 71.78125 18.9375 73 
Q 24.125 74.21875 28.421875 74.21875 
Q 39.75 74.21875 46.484375 68.546875 
Q 53.21875 62.890625 53.21875 53.421875 
Q 53.21875 48.921875 51.53125 44.890625 
Q 49.859375 40.875 45.40625 35.40625 
Q 44.1875 33.984375 37.640625 27.21875 
Q 31.109375 20.453125 19.1875 8.296875 
z
" id="DejaVuSans-50"/>
       </defs>
       <use xlink:href="#DejaVuSans-50"/>
      </g>
     </g>
    </g>
    <g id="xtick_3">
     <g id="line2d_5">
      <path clip-path="url(#pfa62e5a873)" d="M 230.8608 298.944 
L 230.8608 27.648 
" style="fill:none;stroke:#b0b0b0;stroke-linecap:square;stroke-width:0.8;"/>
     </g>
     <g id="line2d_6">
      <g>
       <use style="stroke:#000000;stroke-width:0.8;" x="230.8608" xlink:href="#mbcb0850c6f" y="298.944"/>
      </g>
     </g>
     <g id="text_3">
      <!-- 4 -->
      <g transform="translate(225.452675 318.861344)scale(0.17 -0.17)">
       <defs>
        <path d="M 37.796875 64.3125 
L 12.890625 25.390625 
L 37.796875 25.390625 
z
M 35.203125 72.90625 
L 47.609375 72.90625 
L 47.609375 25.390625 
L 58.015625 25.390625 
L 58.015625 17.1875 
L 47.609375 17.1875 
L 47.609375 0 
L 37.796875 0 
L 37.796875 17.1875 
L 4.890625 17.1875 
L 4.890625 26.703125 
z
" id="DejaVuSans-52"/>
       </defs>
       <use xlink:href="#DejaVuSans-52"/>
      </g>
     </g>
    </g>
    <g id="xtick_4">
     <g id="line2d_7">
      <path clip-path="url(#pfa62e5a873)" d="M 317.4912 298.944 
L 317.4912 27.648 
" style="fill:none;stroke:#b0b0b0;stroke-linecap:square;stroke-width:0.8;"/>
     </g>
     <g id="line2d_8">
      <g>
       <use style="stroke:#000000;stroke-width:0.8;" x="317.4912" xlink:href="#mbcb0850c6f" y="298.944"/>
      </g>
     </g>
     <g id="text_4">
      <!-- 6 -->
      <g transform="translate(312.083075 318.861344)scale(0.17 -0.17)">
       <defs>
        <path d="M 33.015625 40.375 
Q 26.375 40.375 22.484375 35.828125 
Q 18.609375 31.296875 18.609375 23.390625 
Q 18.609375 15.53125 22.484375 10.953125 
Q 26.375 6.390625 33.015625 6.390625 
Q 39.65625 6.390625 43.53125 10.953125 
Q 47.40625 15.53125 47.40625 23.390625 
Q 47.40625 31.296875 43.53125 35.828125 
Q 39.65625 40.375 33.015625 40.375 
z
M 52.59375 71.296875 
L 52.59375 62.3125 
Q 48.875 64.0625 45.09375 64.984375 
Q 41.3125 65.921875 37.59375 65.921875 
Q 27.828125 65.921875 22.671875 59.328125 
Q 17.53125 52.734375 16.796875 39.40625 
Q 19.671875 43.65625 24.015625 45.921875 
Q 28.375 48.1875 33.59375 48.1875 
Q 44.578125 48.1875 50.953125 41.515625 
Q 57.328125 34.859375 57.328125 23.390625 
Q 57.328125 12.15625 50.6875 5.359375 
Q 44.046875 -1.421875 33.015625 -1.421875 
Q 20.359375 -1.421875 13.671875 8.265625 
Q 6.984375 17.96875 6.984375 36.375 
Q 6.984375 53.65625 15.1875 63.9375 
Q 23.390625 74.21875 37.203125 74.21875 
Q 40.921875 74.21875 44.703125 73.484375 
Q 48.484375 72.75 52.59375 71.296875 
z
" id="DejaVuSans-54"/>
       </defs>
       <use xlink:href="#DejaVuSans-54"/>
      </g>
     </g>
    </g>
    <g id="xtick_5">
     <g id="line2d_9">
      <path clip-path="url(#pfa62e5a873)" d="M 100.9152 298.944 
L 100.9152 27.648 
" style="fill:none;stroke:#b0b0b0;stroke-linecap:square;stroke-width:0.8;"/>
     </g>
     <g id="line2d_10">
      <defs>
       <path d="M 0 0 
L 0 2 
" id="m03ed94e7eb" style="stroke:#000000;stroke-width:0.6;"/>
      </defs>
      <g>
       <use style="stroke:#000000;stroke-width:0.6;" x="100.9152" xlink:href="#m03ed94e7eb" y="298.944"/>
      </g>
     </g>
    </g>
    <g id="xtick_6">
     <g id="line2d_11">
      <path clip-path="url(#pfa62e5a873)" d="M 187.5456 298.944 
L 187.5456 27.648 
" style="fill:none;stroke:#b0b0b0;stroke-linecap:square;stroke-width:0.8;"/>
     </g>
     <g id="line2d_12">
      <g>
       <use style="stroke:#000000;stroke-width:0.6;" x="187.5456" xlink:href="#m03ed94e7eb" y="298.944"/>
      </g>
     </g>
    </g>
    <g id="xtick_7">
     <g id="line2d_13">
      <path clip-path="url(#pfa62e5a873)" d="M 274.176 298.944 
L 274.176 27.648 
" style="fill:none;stroke:#b0b0b0;stroke-linecap:square;stroke-width:0.8;"/>
     </g>
     <g id="line2d_14">
      <g>
       <use style="stroke:#000000;stroke-width:0.6;" x="274.176" xlink:href="#m03ed94e7eb" y="298.944"/>
      </g>
     </g>
    </g>
    <g id="xtick_8">
     <g id="line2d_15">
      <path clip-path="url(#pfa62e5a873)" d="M 360.8064 298.944 
L 360.8064 27.648 
" style="fill:none;stroke:#b0b0b0;stroke-linecap:square;stroke-width:0.8;"/>
     </g>
     <g id="line2d_16">
      <g>
       <use style="stroke:#000000;stroke-width:0.6;" x="360.8064" xlink:href="#m03ed94e7eb" y="298.944"/>
      </g>
     </g>
    </g>
    <g id="text_5">
     <!-- log10(evals / dimension) -->
     <g transform="translate(104.238825 339.314156)scale(0.17 -0.17)">
      <defs>
       <path d="M 9.421875 75.984375 
L 18.40625 75.984375 
L 18.40625 0 
L 9.421875 0 
z
" id="DejaVuSans-108"/>
       <path d="M 30.609375 48.390625 
Q 23.390625 48.390625 19.1875 42.75 
Q 14.984375 37.109375 14.984375 27.296875 
Q 14.984375 17.484375 19.15625 11.84375 
Q 23.34375 6.203125 30.609375 6.203125 
Q 37.796875 6.203125 41.984375 11.859375 
Q 46.1875 17.53125 46.1875 27.296875 
Q 46.1875 37.015625 41.984375 42.703125 
Q 37.796875 48.390625 30.609375 48.390625 
z
M 30.609375 56 
Q 42.328125 56 49.015625 48.375 
Q 55.71875 40.765625 55.71875 27.296875 
Q 55.71875 13.875 49.015625 6.21875 
Q 42.328125 -1.421875 30.609375 -1.421875 
Q 18.84375 -1.421875 12.171875 6.21875 
Q 5.515625 13.875 5.515625 27.296875 
Q 5.515625 40.765625 12.171875 48.375 
Q 18.84375 56 30.609375 56 
z
" id="DejaVuSans-111"/>
       <path d="M 45.40625 27.984375 
Q 45.40625 37.75 41.375 43.109375 
Q 37.359375 48.484375 30.078125 48.484375 
Q 22.859375 48.484375 18.828125 43.109375 
Q 14.796875 37.75 14.796875 27.984375 
Q 14.796875 18.265625 18.828125 12.890625 
Q 22.859375 7.515625 30.078125 7.515625 
Q 37.359375 7.515625 41.375 12.890625 
Q 45.40625 18.265625 45.40625 27.984375 
z
M 54.390625 6.78125 
Q 54.390625 -7.171875 48.1875 -13.984375 
Q 42 -20.796875 29.203125 -20.796875 
Q 24.46875 -20.796875 20.265625 -20.09375 
Q 16.0625 -19.390625 12.109375 -17.921875 
L 12.109375 -9.1875 
Q 16.0625 -11.328125 19.921875 -12.34375 
Q 23.78125 -13.375 27.78125 -13.375 
Q 36.625 -13.375 41.015625 -8.765625 
Q 45.40625 -4.15625 45.40625 5.171875 
L 45.40625 9.625 
Q 42.625 4.78125 38.28125 2.390625 
Q 33.9375 0 27.875 0 
Q 17.828125 0 11.671875 7.65625 
Q 5.515625 15.328125 5.515625 27.984375 
Q 5.515625 40.671875 11.671875 48.328125 
Q 17.828125 56 27.875 56 
Q 33.9375 56 38.28125 53.609375 
Q 42.625 51.21875 45.40625 46.390625 
L 45.40625 54.6875 
L 54.390625 54.6875 
z
" id="DejaVuSans-103"/>
       <path d="M 12.40625 8.296875 
L 28.515625 8.296875 
L 28.515625 63.921875 
L 10.984375 60.40625 
L 10.984375 69.390625 
L 28.421875 72.90625 
L 38.28125 72.90625 
L 38.28125 8.296875 
L 54.390625 8.296875 
L 54.390625 0 
L 12.40625 0 
z
" id="DejaVuSans-49"/>
       <path d="M 31 75.875 
Q 24.46875 64.65625 21.28125 53.65625 
Q 18.109375 42.671875 18.109375 31.390625 
Q 18.109375 20.125 21.3125 9.0625 
Q 24.515625 -2 31 -13.1875 
L 23.1875 -13.1875 
Q 15.875 -1.703125 12.234375 9.375 
Q 8.59375 20.453125 8.59375 31.390625 
Q 8.59375 42.28125 12.203125 53.3125 
Q 15.828125 64.359375 23.1875 75.875 
z
" id="DejaVuSans-40"/>
       <path d="M 56.203125 29.59375 
L 56.203125 25.203125 
L 14.890625 25.203125 
Q 15.484375 15.921875 20.484375 11.0625 
Q 25.484375 6.203125 34.421875 6.203125 
Q 39.59375 6.203125 44.453125 7.46875 
Q 49.3125 8.734375 54.109375 11.28125 
L 54.109375 2.78125 
Q 49.265625 0.734375 44.1875 -0.34375 
Q 39.109375 -1.421875 33.890625 -1.421875 
Q 20.796875 -1.421875 13.15625 6.1875 
Q 5.515625 13.8125 5.515625 26.8125 
Q 5.515625 40.234375 12.765625 48.109375 
Q 20.015625 56 32.328125 56 
Q 43.359375 56 49.78125 48.890625 
Q 56.203125 41.796875 56.203125 29.59375 
z
M 47.21875 32.234375 
Q 47.125 39.59375 43.09375 43.984375 
Q 39.0625 48.390625 32.421875 48.390625 
Q 24.90625 48.390625 20.390625 44.140625 
Q 15.875 39.890625 15.1875 32.171875 
z
" id="DejaVuSans-101"/>
       <path d="M 2.984375 54.6875 
L 12.5 54.6875 
L 29.59375 8.796875 
L 46.6875 54.6875 
L 56.203125 54.6875 
L 35.6875 0 
L 23.484375 0 
z
" id="DejaVuSans-118"/>
       <path d="M 34.28125 27.484375 
Q 23.390625 27.484375 19.1875 25 
Q 14.984375 22.515625 14.984375 16.5 
Q 14.984375 11.71875 18.140625 8.90625 
Q 21.296875 6.109375 26.703125 6.109375 
Q 34.1875 6.109375 38.703125 11.40625 
Q 43.21875 16.703125 43.21875 25.484375 
L 43.21875 27.484375 
z
M 52.203125 31.203125 
L 52.203125 0 
L 43.21875 0 
L 43.21875 8.296875 
Q 40.140625 3.328125 35.546875 0.953125 
Q 30.953125 -1.421875 24.3125 -1.421875 
Q 15.921875 -1.421875 10.953125 3.296875 
Q 6 8.015625 6 15.921875 
Q 6 25.140625 12.171875 29.828125 
Q 18.359375 34.515625 30.609375 34.515625 
L 43.21875 34.515625 
L 43.21875 35.40625 
Q 43.21875 41.609375 39.140625 45 
Q 35.0625 48.390625 27.6875 48.390625 
Q 23 48.390625 18.546875 47.265625 
Q 14.109375 46.140625 10.015625 43.890625 
L 10.015625 52.203125 
Q 14.9375 54.109375 19.578125 55.046875 
Q 24.21875 56 28.609375 56 
Q 40.484375 56 46.34375 49.84375 
Q 52.203125 43.703125 52.203125 31.203125 
z
" id="DejaVuSans-97"/>
       <path d="M 44.28125 53.078125 
L 44.28125 44.578125 
Q 40.484375 46.53125 36.375 47.5 
Q 32.28125 48.484375 27.875 48.484375 
Q 21.1875 48.484375 17.84375 46.4375 
Q 14.5 44.390625 14.5 40.28125 
Q 14.5 37.15625 16.890625 35.375 
Q 19.28125 33.59375 26.515625 31.984375 
L 29.59375 31.296875 
Q 39.15625 29.25 43.1875 25.515625 
Q 47.21875 21.78125 47.21875 15.09375 
Q 47.21875 7.46875 41.1875 3.015625 
Q 35.15625 -1.421875 24.609375 -1.421875 
Q 20.21875 -1.421875 15.453125 -0.5625 
Q 10.6875 0.296875 5.421875 2 
L 5.421875 11.28125 
Q 10.40625 8.6875 15.234375 7.390625 
Q 20.0625 6.109375 24.8125 6.109375 
Q 31.15625 6.109375 34.5625 8.28125 
Q 37.984375 10.453125 37.984375 14.40625 
Q 37.984375 18.0625 35.515625 20.015625 
Q 33.0625 21.96875 24.703125 23.78125 
L 21.578125 24.515625 
Q 13.234375 26.265625 9.515625 29.90625 
Q 5.8125 33.546875 5.8125 39.890625 
Q 5.8125 47.609375 11.28125 51.796875 
Q 16.75 56 26.8125 56 
Q 31.78125 56 36.171875 55.265625 
Q 40.578125 54.546875 44.28125 53.078125 
z
" id="DejaVuSans-115"/>
       <path id="DejaVuSans-32"/>
       <path d="M 25.390625 72.90625 
L 33.6875 72.90625 
L 8.296875 -9.28125 
L 0 -9.28125 
z
" id="DejaVuSans-47"/>
       <path d="M 45.40625 46.390625 
L 45.40625 75.984375 
L 54.390625 75.984375 
L 54.390625 0 
L 45.40625 0 
L 45.40625 8.203125 
Q 42.578125 3.328125 38.25 0.953125 
Q 33.9375 -1.421875 27.875 -1.421875 
Q 17.96875 -1.421875 11.734375 6.484375 
Q 5.515625 14.40625 5.515625 27.296875 
Q 5.515625 40.1875 11.734375 48.09375 
Q 17.96875 56 27.875 56 
Q 33.9375 56 38.25 53.625 
Q 42.578125 51.265625 45.40625 46.390625 
z
M 14.796875 27.296875 
Q 14.796875 17.390625 18.875 11.75 
Q 22.953125 6.109375 30.078125 6.109375 
Q 37.203125 6.109375 41.296875 11.75 
Q 45.40625 17.390625 45.40625 27.296875 
Q 45.40625 37.203125 41.296875 42.84375 
Q 37.203125 48.484375 30.078125 48.484375 
Q 22.953125 48.484375 18.875 42.84375 
Q 14.796875 37.203125 14.796875 27.296875 
z
" id="DejaVuSans-100"/>
       <path d="M 9.421875 54.6875 
L 18.40625 54.6875 
L 18.40625 0 
L 9.421875 0 
z
M 9.421875 75.984375 
L 18.40625 75.984375 
L 18.40625 64.59375 
L 9.421875 64.59375 
z
" id="DejaVuSans-105"/>
       <path d="M 52 44.1875 
Q 55.375 50.25 60.0625 53.125 
Q 64.75 56 71.09375 56 
Q 79.640625 56 84.28125 50.015625 
Q 88.921875 44.046875 88.921875 33.015625 
L 88.921875 0 
L 79.890625 0 
L 79.890625 32.71875 
Q 79.890625 40.578125 77.09375 44.375 
Q 74.3125 48.1875 68.609375 48.1875 
Q 61.625 48.1875 57.5625 43.546875 
Q 53.515625 38.921875 53.515625 30.90625 
L 53.515625 0 
L 44.484375 0 
L 44.484375 32.71875 
Q 44.484375 40.625 41.703125 44.40625 
Q 38.921875 48.1875 33.109375 48.1875 
Q 26.21875 48.1875 22.15625 43.53125 
Q 18.109375 38.875 18.109375 30.90625 
L 18.109375 0 
L 9.078125 0 
L 9.078125 54.6875 
L 18.109375 54.6875 
L 18.109375 46.1875 
Q 21.1875 51.21875 25.484375 53.609375 
Q 29.78125 56 35.6875 56 
Q 41.65625 56 45.828125 52.96875 
Q 50 49.953125 52 44.1875 
z
" id="DejaVuSans-109"/>
       <path d="M 54.890625 33.015625 
L 54.890625 0 
L 45.90625 0 
L 45.90625 32.71875 
Q 45.90625 40.484375 42.875 44.328125 
Q 39.84375 48.1875 33.796875 48.1875 
Q 26.515625 48.1875 22.3125 43.546875 
Q 18.109375 38.921875 18.109375 30.90625 
L 18.109375 0 
L 9.078125 0 
L 9.078125 54.6875 
L 18.109375 54.6875 
L 18.109375 46.1875 
Q 21.34375 51.125 25.703125 53.5625 
Q 30.078125 56 35.796875 56 
Q 45.21875 56 50.046875 50.171875 
Q 54.890625 44.34375 54.890625 33.015625 
z
" id="DejaVuSans-110"/>
       <path d="M 8.015625 75.875 
L 15.828125 75.875 
Q 23.140625 64.359375 26.78125 53.3125 
Q 30.421875 42.28125 30.421875 31.390625 
Q 30.421875 20.453125 26.78125 9.375 
Q 23.140625 -1.703125 15.828125 -13.1875 
L 8.015625 -13.1875 
Q 14.5 -2 17.703125 9.0625 
Q 20.90625 20.125 20.90625 31.390625 
Q 20.90625 42.671875 17.703125 53.65625 
Q 14.5 64.65625 8.015625 75.875 
z
" id="DejaVuSans-41"/>
      </defs>
      <use xlink:href="#DejaVuSans-108"/>
      <use x="27.783203" xlink:href="#DejaVuSans-111"/>
      <use x="88.964844" xlink:href="#DejaVuSans-103"/>
      <use x="152.441406" xlink:href="#DejaVuSans-49"/>
      <use x="216.064453" xlink:href="#DejaVuSans-48"/>
      <use x="279.6875" xlink:href="#DejaVuSans-40"/>
      <use x="318.701172" xlink:href="#DejaVuSans-101"/>
      <use x="380.224609" xlink:href="#DejaVuSans-118"/>
      <use x="439.404297" xlink:href="#DejaVuSans-97"/>
      <use x="500.683594" xlink:href="#DejaVuSans-108"/>
      <use x="528.466797" xlink:href="#DejaVuSans-115"/>
      <use x="580.566406" xlink:href="#DejaVuSans-32"/>
      <use x="612.353516" xlink:href="#DejaVuSans-47"/>
      <use x="646.044922" xlink:href="#DejaVuSans-32"/>
      <use x="677.832031" xlink:href="#DejaVuSans-100"/>
      <use x="741.308594" xlink:href="#DejaVuSans-105"/>
      <use x="769.091797" xlink:href="#DejaVuSans-109"/>
      <use x="866.503906" xlink:href="#DejaVuSans-101"/>
      <use x="928.027344" xlink:href="#DejaVuSans-110"/>
      <use x="991.40625" xlink:href="#DejaVuSans-115"/>
      <use x="1043.505859" xlink:href="#DejaVuSans-105"/>
      <use x="1071.289062" xlink:href="#DejaVuSans-111"/>
      <use x="1132.470703" xlink:href="#DejaVuSans-110"/>
      <use x="1195.849609" xlink:href="#DejaVuSans-41"/>
     </g>
    </g>
   </g>
   <g id="matplotlib.axis_2">
    <g id="ytick_1">
     <g id="line2d_17">
      <path clip-path="url(#pfa62e5a873)" d="M 57.6 298.944 
L 360.8064 298.944 
" style="fill:none;stroke:#b0b0b0;stroke-linecap:square;stroke-width:0.8;"/>
     </g>
     <g id="line2d_18">
      <defs>
       <path d="M 0 0 
L -3.5 0 
" id="m2c25b274e0" style="stroke:#000000;stroke-width:0.8;"/>
      </defs>
      <g>
       <use style="stroke:#000000;stroke-width:0.8;" x="57.6" xlink:href="#m2c25b274e0" y="298.944"/>
      </g>
     </g>
     <g id="text_6">
      <!-- 0.0 -->
      <g transform="translate(25.155 305.02275)scale(0.16 -0.16)">
       <defs>
        <path d="M 10.6875 12.40625 
L 21 12.40625 
L 21 0 
L 10.6875 0 
z
" id="DejaVuSans-46"/>
       </defs>
       <use xlink:href="#DejaVuSans-48"/>
       <use x="63.623047" xlink:href="#DejaVuSans-46"/>
       <use x="95.410156" xlink:href="#DejaVuSans-48"/>
      </g>
     </g>
    </g>
    <g id="ytick_2">
     <g id="line2d_19">
      <path clip-path="url(#pfa62e5a873)" d="M 57.6 244.6848 
L 360.8064 244.6848 
" style="fill:none;stroke:#b0b0b0;stroke-linecap:square;stroke-width:0.8;"/>
     </g>
     <g id="line2d_20">
      <g>
       <use style="stroke:#000000;stroke-width:0.8;" x="57.6" xlink:href="#m2c25b274e0" y="244.6848"/>
      </g>
     </g>
     <g id="text_7">
      <!-- 0.2 -->
      <g transform="translate(25.155 250.76355)scale(0.16 -0.16)">
       <use xlink:href="#DejaVuSans-48"/>
       <use x="63.623047" xlink:href="#DejaVuSans-46"/>
       <use x="95.410156" xlink:href="#DejaVuSans-50"/>
      </g>
     </g>
    </g>
    <g id="ytick_3">
     <g id="line2d_21">
      <path clip-path="url(#pfa62e5a873)" d="M 57.6 190.4256 
L 360.8064 190.4256 
" style="fill:none;stroke:#b0b0b0;stroke-linecap:square;stroke-width:0.8;"/>
     </g>
     <g id="line2d_22">
      <g>
       <use style="stroke:#000000;stroke-width:0.8;" x="57.6" xlink:href="#m2c25b274e0" y="190.4256"/>
      </g>
     </g>
     <g id="text_8">
      <!-- 0.4 -->
      <g transform="translate(25.155 196.50435)scale(0.16 -0.16)">
       <use xlink:href="#DejaVuSans-48"/>
       <use x="63.623047" xlink:href="#DejaVuSans-46"/>
       <use x="95.410156" xlink:href="#DejaVuSans-52"/>
      </g>
     </g>
    </g>
    <g id="ytick_4">
     <g id="line2d_23">
      <path clip-path="url(#pfa62e5a873)" d="M 57.6 136.1664 
L 360.8064 136.1664 
" style="fill:none;stroke:#b0b0b0;stroke-linecap:square;stroke-width:0.8;"/>
     </g>
     <g id="line2d_24">
      <g>
       <use style="stroke:#000000;stroke-width:0.8;" x="57.6" xlink:href="#m2c25b274e0" y="136.1664"/>
      </g>
     </g>
     <g id="text_9">
      <!-- 0.6 -->
      <g transform="translate(25.155 142.24515)scale(0.16 -0.16)">
       <use xlink:href="#DejaVuSans-48"/>
       <use x="63.623047" xlink:href="#DejaVuSans-46"/>
       <use x="95.410156" xlink:href="#DejaVuSans-54"/>
      </g>
     </g>
    </g>
    <g id="ytick_5">
     <g id="line2d_25">
      <path clip-path="url(#pfa62e5a873)" d="M 57.6 81.9072 
L 360.8064 81.9072 
" style="fill:none;stroke:#b0b0b0;stroke-linecap:square;stroke-width:0.8;"/>
     </g>
     <g id="line2d_26">
      <g>
       <use style="stroke:#000000;stroke-width:0.8;" x="57.6" xlink:href="#m2c25b274e0" y="81.9072"/>
      </g>
     </g>
     <g id="text_10">
      <!-- 0.8 -->
      <g transform="translate(25.155 87.98595)scale(0.16 -0.16)">
       <defs>
        <path d="M 31.78125 34.625 
Q 24.75 34.625 20.71875 30.859375 
Q 16.703125 27.09375 16.703125 20.515625 
Q 16.703125 13.921875 20.71875 10.15625 
Q 24.75 6.390625 31.78125 6.390625 
Q 38.8125 6.390625 42.859375 10.171875 
Q 46.921875 13.96875 46.921875 20.515625 
Q 46.921875 27.09375 42.890625 30.859375 
Q 38.875 34.625 31.78125 34.625 
z
M 21.921875 38.8125 
Q 15.578125 40.375 12.03125 44.71875 
Q 8.5 49.078125 8.5 55.328125 
Q 8.5 64.0625 14.71875 69.140625 
Q 20.953125 74.21875 31.78125 74.21875 
Q 42.671875 74.21875 48.875 69.140625 
Q 55.078125 64.0625 55.078125 55.328125 
Q 55.078125 49.078125 51.53125 44.71875 
Q 48 40.375 41.703125 38.8125 
Q 48.828125 37.15625 52.796875 32.3125 
Q 56.78125 27.484375 56.78125 20.515625 
Q 56.78125 9.90625 50.3125 4.234375 
Q 43.84375 -1.421875 31.78125 -1.421875 
Q 19.734375 -1.421875 13.25 4.234375 
Q 6.78125 9.90625 6.78125 20.515625 
Q 6.78125 27.484375 10.78125 32.3125 
Q 14.796875 37.15625 21.921875 38.8125 
z
M 18.3125 54.390625 
Q 18.3125 48.734375 21.84375 45.5625 
Q 25.390625 42.390625 31.78125 42.390625 
Q 38.140625 42.390625 41.71875 45.5625 
Q 45.3125 48.734375 45.3125 54.390625 
Q 45.3125 60.0625 41.71875 63.234375 
Q 38.140625 66.40625 31.78125 66.40625 
Q 25.390625 66.40625 21.84375 63.234375 
Q 18.3125 60.0625 18.3125 54.390625 
z
" id="DejaVuSans-56"/>
       </defs>
       <use xlink:href="#DejaVuSans-48"/>
       <use x="63.623047" xlink:href="#DejaVuSans-46"/>
       <use x="95.410156" xlink:href="#DejaVuSans-56"/>
      </g>
     </g>
    </g>
    <g id="ytick_6">
     <g id="line2d_27">
      <path clip-path="url(#pfa62e5a873)" d="M 57.6 27.648 
L 360.8064 27.648 
" style="fill:none;stroke:#b0b0b0;stroke-linecap:square;stroke-width:0.8;"/>
     </g>
     <g id="line2d_28">
      <g>
       <use style="stroke:#000000;stroke-width:0.8;" x="57.6" xlink:href="#m2c25b274e0" y="27.648"/>
      </g>
     </g>
     <g id="text_11">
      <!-- 1.0 -->
      <g transform="translate(25.155 33.72675)scale(0.16 -0.16)">
       <use xlink:href="#DejaVuSans-49"/>
       <use x="63.623047" xlink:href="#DejaVuSans-46"/>
       <use x="95.410156" xlink:href="#DejaVuSans-48"/>
      </g>
     </g>
    </g>
    <g id="text_12">
     <!-- Fraction of function,target pairs -->
     <g transform="translate(17.619531 297.681)rotate(-90)scale(0.17 -0.17)">
      <defs>
       <path d="M 9.8125 72.90625 
L 51.703125 72.90625 
L 51.703125 64.59375 
L 19.671875 64.59375 
L 19.671875 43.109375 
L 48.578125 43.109375 
L 48.578125 34.8125 
L 19.671875 34.8125 
L 19.671875 0 
L 9.8125 0 
z
" id="DejaVuSans-70"/>
       <path d="M 41.109375 46.296875 
Q 39.59375 47.171875 37.8125 47.578125 
Q 36.03125 48 33.890625 48 
Q 26.265625 48 22.1875 43.046875 
Q 18.109375 38.09375 18.109375 28.8125 
L 18.109375 0 
L 9.078125 0 
L 9.078125 54.6875 
L 18.109375 54.6875 
L 18.109375 46.1875 
Q 20.953125 51.171875 25.484375 53.578125 
Q 30.03125 56 36.53125 56 
Q 37.453125 56 38.578125 55.875 
Q 39.703125 55.765625 41.0625 55.515625 
z
" id="DejaVuSans-114"/>
       <path d="M 48.78125 52.59375 
L 48.78125 44.1875 
Q 44.96875 46.296875 41.140625 47.34375 
Q 37.3125 48.390625 33.40625 48.390625 
Q 24.65625 48.390625 19.8125 42.84375 
Q 14.984375 37.3125 14.984375 27.296875 
Q 14.984375 17.28125 19.8125 11.734375 
Q 24.65625 6.203125 33.40625 6.203125 
Q 37.3125 6.203125 41.140625 7.25 
Q 44.96875 8.296875 48.78125 10.40625 
L 48.78125 2.09375 
Q 45.015625 0.34375 40.984375 -0.53125 
Q 36.96875 -1.421875 32.421875 -1.421875 
Q 20.0625 -1.421875 12.78125 6.34375 
Q 5.515625 14.109375 5.515625 27.296875 
Q 5.515625 40.671875 12.859375 48.328125 
Q 20.21875 56 33.015625 56 
Q 37.15625 56 41.109375 55.140625 
Q 45.0625 54.296875 48.78125 52.59375 
z
" id="DejaVuSans-99"/>
       <path d="M 18.3125 70.21875 
L 18.3125 54.6875 
L 36.8125 54.6875 
L 36.8125 47.703125 
L 18.3125 47.703125 
L 18.3125 18.015625 
Q 18.3125 11.328125 20.140625 9.421875 
Q 21.96875 7.515625 27.59375 7.515625 
L 36.8125 7.515625 
L 36.8125 0 
L 27.59375 0 
Q 17.1875 0 13.234375 3.875 
Q 9.28125 7.765625 9.28125 18.015625 
L 9.28125 47.703125 
L 2.6875 47.703125 
L 2.6875 54.6875 
L 9.28125 54.6875 
L 9.28125 70.21875 
z
" id="DejaVuSans-116"/>
       <path d="M 37.109375 75.984375 
L 37.109375 68.5 
L 28.515625 68.5 
Q 23.6875 68.5 21.796875 66.546875 
Q 19.921875 64.59375 19.921875 59.515625 
L 19.921875 54.6875 
L 34.71875 54.6875 
L 34.71875 47.703125 
L 19.921875 47.703125 
L 19.921875 0 
L 10.890625 0 
L 10.890625 47.703125 
L 2.296875 47.703125 
L 2.296875 54.6875 
L 10.890625 54.6875 
L 10.890625 58.5 
Q 10.890625 67.625 15.140625 71.796875 
Q 19.390625 75.984375 28.609375 75.984375 
z
" id="DejaVuSans-102"/>
       <path d="M 8.5 21.578125 
L 8.5 54.6875 
L 17.484375 54.6875 
L 17.484375 21.921875 
Q 17.484375 14.15625 20.5 10.265625 
Q 23.53125 6.390625 29.59375 6.390625 
Q 36.859375 6.390625 41.078125 11.03125 
Q 45.3125 15.671875 45.3125 23.6875 
L 45.3125 54.6875 
L 54.296875 54.6875 
L 54.296875 0 
L 45.3125 0 
L 45.3125 8.40625 
Q 42.046875 3.421875 37.71875 1 
Q 33.40625 -1.421875 27.6875 -1.421875 
Q 18.265625 -1.421875 13.375 4.4375 
Q 8.5 10.296875 8.5 21.578125 
z
M 31.109375 56 
z
" id="DejaVuSans-117"/>
       <path d="M 11.71875 12.40625 
L 22.015625 12.40625 
L 22.015625 4 
L 14.015625 -11.625 
L 7.71875 -11.625 
L 11.71875 4 
z
" id="DejaVuSans-44"/>
       <path d="M 18.109375 8.203125 
L 18.109375 -20.796875 
L 9.078125 -20.796875 
L 9.078125 54.6875 
L 18.109375 54.6875 
L 18.109375 46.390625 
Q 20.953125 51.265625 25.265625 53.625 
Q 29.59375 56 35.59375 56 
Q 45.5625 56 51.78125 48.09375 
Q 58.015625 40.1875 58.015625 27.296875 
Q 58.015625 14.40625 51.78125 6.484375 
Q 45.5625 -1.421875 35.59375 -1.421875 
Q 29.59375 -1.421875 25.265625 0.953125 
Q 20.953125 3.328125 18.109375 8.203125 
z
M 48.6875 27.296875 
Q 48.6875 37.203125 44.609375 42.84375 
Q 40.53125 48.484375 33.40625 48.484375 
Q 26.265625 48.484375 22.1875 42.84375 
Q 18.109375 37.203125 18.109375 27.296875 
Q 18.109375 17.390625 22.1875 11.75 
Q 26.265625 6.109375 33.40625 6.109375 
Q 40.53125 6.109375 44.609375 11.75 
Q 48.6875 17.390625 48.6875 27.296875 
z
" id="DejaVuSans-112"/>
      </defs>
      <use xlink:href="#DejaVuSans-70"/>
      <use x="50.269531" xlink:href="#DejaVuSans-114"/>
      <use x="91.382812" xlink:href="#DejaVuSans-97"/>
      <use x="152.662109" xlink:href="#DejaVuSans-99"/>
      <use x="207.642578" xlink:href="#DejaVuSans-116"/>
      <use x="246.851562" xlink:href="#DejaVuSans-105"/>
      <use x="274.634766" xlink:href="#DejaVuSans-111"/>
      <use x="335.816406" xlink:href="#DejaVuSans-110"/>
      <use x="399.195312" xlink:href="#DejaVuSans-32"/>
      <use x="430.982422" xlink:href="#DejaVuSans-111"/>
      <use x="492.164062" xlink:href="#DejaVuSans-102"/>
      <use x="527.369141" xlink:href="#DejaVuSans-32"/>
      <use x="559.15625" xlink:href="#DejaVuSans-102"/>
      <use x="594.361328" xlink:href="#DejaVuSans-117"/>
      <use x="657.740234" xlink:href="#DejaVuSans-110"/>
      <use x="721.119141" xlink:href="#DejaVuSans-99"/>
      <use x="776.099609" xlink:href="#DejaVuSans-116"/>
      <use x="815.308594" xlink:href="#DejaVuSans-105"/>
      <use x="843.091797" xlink:href="#DejaVuSans-111"/>
      <use x="904.273438" xlink:href="#DejaVuSans-110"/>
      <use x="967.652344" xlink:href="#DejaVuSans-44"/>
      <use x="999.439453" xlink:href="#DejaVuSans-116"/>
      <use x="1038.648438" xlink:href="#DejaVuSans-97"/>
      <use x="1099.927734" xlink:href="#DejaVuSans-114"/>
      <use x="1139.291016" xlink:href="#DejaVuSans-103"/>
      <use x="1202.767578" xlink:href="#DejaVuSans-101"/>
      <use x="1264.291016" xlink:href="#DejaVuSans-116"/>
      <use x="1303.5" xlink:href="#DejaVuSans-32"/>
      <use x="1335.287109" xlink:href="#DejaVuSans-112"/>
      <use x="1398.763672" xlink:href="#DejaVuSans-97"/>
      <use x="1460.042969" xlink:href="#DejaVuSans-105"/>
      <use x="1487.826172" xlink:href="#DejaVuSans-114"/>
      <use x="1528.939453" xlink:href="#DejaVuSans-115"/>
     </g>
    </g>
   </g>
   <g id="line2d_29">
    <defs>
     <path d="M 0 1.5 
C 0.397805 1.5 0.77937 1.341951 1.06066 1.06066 
C 1.341951 0.77937 1.5 0.397805 1.5 0 
C 1.5 -0.397805 1.341951 -0.77937 1.06066 -1.06066 
C 0.77937 -1.341951 0.397805 -1.5 0 -1.5 
C -0.397805 -1.5 -0.77937 -1.341951 -1.06066 -1.06066 
C -1.341951 -0.77937 -1.5 -0.397805 -1.5 0 
C -1.5 0.397805 -1.341951 0.77937 -1.06066 1.06066 
C -0.77937 1.341951 -0.397805 1.5 0 1.5 
z
" id="ma7c4a5d161" style="stroke:#000080;"/>
    </defs>
    <g>
     <use style="fill:#000080;stroke:#000080;" x="181.787904" xlink:href="#ma7c4a5d161" y="27.648"/>
     <use style="fill:#000080;stroke:#000080;" x="181.787904" xlink:href="#ma7c4a5d161" y="27.648"/>
    </g>
   </g>
   <g id="line2d_30">
    <path d="M 98.223251 298.944 
L 98.223251 295.856078 
L 99.617337 295.856078 
L 99.617337 293.65042 
L 100.9152 293.65042 
L 100.9152 293.209288 
L 102.12927 293.209288 
L 102.12927 286.15118 
L 103.269713 286.15118 
L 103.269713 283.945522 
L 104.344952 283.945522 
L 104.344952 276.005151 
L 105.36204 276.005151 
L 105.36204 273.799493 
L 106.326946 273.799493 
L 106.326946 270.270439 
L 107.244765 270.270439 
L 107.244765 267.182517 
L 108.119879 267.182517 
L 108.119879 260.12441 
L 108.956085 260.12441 
L 108.956085 258.801015 
L 109.756698 258.801015 
L 109.756698 253.066302 
L 110.524623 253.066302 
L 110.524623 249.537249 
L 111.262425 249.537249 
L 111.262425 243.361405 
L 111.97238 243.361405 
L 111.97238 241.155746 
L 112.656511 241.155746 
L 112.656511 237.626693 
L 113.316634 237.626693 
L 113.316634 231.89198 
L 113.954374 231.89198 
L 113.954374 225.275005 
L 114.571202 225.275005 
L 114.571202 223.069346 
L 115.168444 223.069346 
L 115.168444 215.128976 
L 115.747307 215.128976 
L 115.747307 214.246712 
L 116.308887 214.246712 
L 116.308887 206.306341 
L 116.854188 206.306341 
L 116.854188 197.483707 
L 117.384126 197.483707 
L 117.384126 196.601444 
L 117.899543 196.601444 
L 117.899543 194.395785 
L 118.401214 194.395785 
L 118.401214 185.573151 
L 119.366121 185.573151 
L 119.366121 177.191649 
L 119.830627 177.191649 
L 119.830627 168.810146 
L 120.28394 168.810146 
L 120.28394 167.486751 
L 120.726585 167.486751 
L 120.726585 163.957698 
L 121.159053 163.957698 
L 121.159053 159.105249 
L 121.581803 159.105249 
L 121.581803 158.664117 
L 121.99526 158.664117 
L 121.99526 152.047141 
L 122.399825 152.047141 
L 122.399825 150.282615 
L 122.795872 150.282615 
L 122.795872 149.841483 
L 123.183753 149.841483 
L 123.183753 144.989034 
L 123.563797 144.989034 
L 123.563797 140.577717 
L 123.936316 140.577717 
L 123.936316 133.51961 
L 124.3016 133.51961 
L 124.3016 131.755083 
L 124.659926 131.755083 
L 124.659926 130.87282 
L 125.011554 130.87282 
L 125.011554 128.667161 
L 125.35673 128.667161 
L 125.35673 128.226029 
L 125.695686 128.226029 
L 125.695686 127.343766 
L 126.355808 127.343766 
L 126.355808 124.255844 
L 126.677381 124.255844 
L 126.677381 122.050185 
L 127.610376 122.050185 
L 127.610376 121.609054 
L 127.911368 121.609054 
L 127.911368 120.72679 
L 131.440389 120.72679 
L 131.440389 120.285659 
L 148.226342 120.285659 
L 148.226342 119.844527 
L 148.726679 119.844527 
L 148.726679 118.521132 
L 149.31003 118.521132 
L 149.31003 118.08 
L 149.689117 118.08 
L 149.689117 116.315473 
L 149.968501 116.315473 
L 150.060715 112.78642 
L 150.243797 112.78642 
L 150.243797 112.345288 
L 150.425115 112.345288 
L 150.425115 111.021893 
L 150.604701 111.021893 
L 150.604701 110.580761 
L 150.870907 110.580761 
L 150.958812 107.492839 
L 151.477784 107.492839 
L 151.562904 105.728312 
L 151.60532 105.728312 
L 151.60532 105.28718 
L 151.731998 105.28718 
L 151.815978 101.316995 
L 155.735085 101.316995 
L 155.735085 100.875863 
L 156.072219 100.875863 
L 156.072219 97.34681 
L 156.53428 97.34681 
L 156.53428 96.023415 
L 156.857511 96.023415 
L 156.857511 92.053229 
L 157.300901 92.053229 
L 157.300901 87.641912 
L 157.487772 87.641912 
L 157.487772 86.318517 
L 157.672805 86.318517 
L 157.734081 84.112859 
L 157.795157 84.112859 
L 157.795157 83.230595 
L 157.916719 83.230595 
L 157.977206 80.583805 
L 158.0375 80.583805 
L 158.0375 79.26041 
L 158.336102 79.26041 
L 158.336102 77.054751 
L 158.804221 77.054751 
L 158.804221 76.61362 
L 158.976805 76.61362 
L 159.033983 73.084566 
L 159.260973 73.084566 
L 159.260973 71.320039 
L 159.401463 71.320039 
L 159.401463 70.878907 
L 159.980326 70.878907 
L 159.980326 70.437776 
L 160.142495 70.437776 
L 160.196243 67.790985 
L 160.356569 67.790985 
L 160.356569 67.349854 
L 160.515541 67.349854 
L 160.568234 66.026459 
L 163.777449 66.026459 
L 163.777449 65.144195 
L 164.085482 65.144195 
L 164.129077 63.8208 
L 164.259262 63.8208 
L 164.259262 61.17401 
L 164.388551 61.17401 
L 164.474253 57.203824 
L 164.516958 57.203824 
L 164.602079 56.321561 
L 164.771172 56.321561 
L 164.771172 54.998166 
L 164.93876 54.998166 
L 164.93876 53.233639 
L 165.104867 53.233639 
L 165.187374 49.263454 
L 165.392072 49.263454 
L 165.473332 47.498927 
L 168.842171 47.498927 
L 168.943582 45.7344 
L 169.010886 45.7344 
L 169.010886 43.528741 
L 169.211366 43.528741 
L 169.277721 42.205346 
L 169.442591 42.205346 
L 169.442591 41.764215 
L 170.056241 41.764215 
L 170.056241 41.323083 
L 170.464862 41.323083 
L 170.464862 40.881951 
L 171.076674 40.881951 
L 171.076674 40.44082 
L 171.375276 40.44082 
L 171.375276 39.999688 
L 171.610792 39.999688 
L 171.698355 38.235161 
L 171.727453 38.235161 
L 171.727453 37.352898 
L 171.929885 37.352898 
L 171.929885 36.470634 
L 172.073157 36.470634 
L 172.1586 32.94158 
L 172.271923 32.94158 
L 172.328329 28.971395 
L 172.85592 28.971395 
L 172.85592 28.530263 
L 175.696966 28.530263 
L 175.696966 28.089132 
L 181.787904 28.089132 
L 181.787904 27.648 
L 360.8064 27.648 
L 360.8064 27.648 
" style="fill:none;stroke:#000080;stroke-linecap:square;stroke-width:1.5;"/>
   </g>
   <g id="line2d_31">
    <defs>
     <path d="M 0 6 
C 1.591219 6 3.117479 5.367802 4.242641 4.242641 
C 5.367802 3.117479 6 1.591219 6 0 
C 6 -1.591219 5.367802 -3.117479 4.242641 -4.242641 
C 3.117479 -5.367802 1.591219 -6 0 -6 
C -1.591219 -6 -3.117479 -5.367802 -4.242641 -4.242641 
C -5.367802 -3.117479 -6 -1.591219 -6 0 
C -6 1.591219 -5.367802 3.117479 -4.242641 4.242641 
C -3.117479 5.367802 -1.591219 6 0 6 
z
" id="m54112e977d" style="stroke:#000080;stroke-width:1.5;"/>
    </defs>
    <g>
     <use style="fill-opacity:0;stroke:#000080;stroke-width:1.5;" x="115.747307" xlink:href="#m54112e977d" y="214.246712"/>
     <use style="fill-opacity:0;stroke:#000080;stroke-width:1.5;" x="131.440389" xlink:href="#m54112e977d" y="120.285659"/>
     <use style="fill-opacity:0;stroke:#000080;stroke-width:1.5;" x="181.787904" xlink:href="#m54112e977d" y="28.089132"/>
     <use style="fill-opacity:0;stroke:#000080;stroke-width:1.5;" x="181.787904" xlink:href="#m54112e977d" y="27.648"/>
     <use style="fill-opacity:0;stroke:#000080;stroke-width:1.5;" x="360.8064" xlink:href="#m54112e977d" y="27.648"/>
    </g>
   </g>
   <g id="line2d_32">
    <path style="fill:none;stroke:#000080;stroke-linecap:square;stroke-width:1.5;"/>
    <g/>
   </g>
   <g id="line2d_33">
    <defs>
     <path d="M 0 1.5 
C 0.397805 1.5 0.77937 1.341951 1.06066 1.06066 
C 1.341951 0.77937 1.5 0.397805 1.5 0 
C 1.5 -0.397805 1.341951 -0.77937 1.06066 -1.06066 
C 0.77937 -1.341951 0.397805 -1.5 0 -1.5 
C -0.397805 -1.5 -0.77937 -1.341951 -1.06066 -1.06066 
C -1.341951 -0.77937 -1.5 -0.397805 -1.5 0 
C -1.5 0.397805 -1.341951 0.77937 -1.06066 1.06066 
C -0.77937 1.341951 -0.397805 1.5 0 1.5 
z
" id="m43793521eb" style="stroke:#ff00ff;"/>
    </defs>
    <g>
     <use style="fill:#ff00ff;stroke:#ff00ff;" x="246.610183" xlink:href="#m43793521eb" y="27.648"/>
     <use style="fill:#ff00ff;stroke:#ff00ff;" x="246.610183" xlink:href="#m43793521eb" y="27.648"/>
    </g>
   </g>
   <g id="line2d_34">
    <path d="M 102.12927 298.944 
L 102.12927 297.620605 
L 104.344952 297.620605 
L 104.344952 295.414946 
L 113.954374 295.414946 
L 113.954374 288.797971 
L 120.726585 288.797971 
L 120.726585 288.356839 
L 121.159053 288.356839 
L 121.159053 287.474576 
L 121.581803 287.474576 
L 121.581803 283.50439 
L 125.011554 283.50439 
L 125.011554 280.416468 
L 141.246793 280.416468 
L 141.246793 279.975337 
L 142.661862 279.975337 
L 142.661862 279.534205 
L 143.199372 279.534205 
L 143.199372 278.651941 
L 143.721949 278.651941 
L 143.721949 278.21081 
L 143.977892 278.21081 
L 143.977892 277.769678 
L 144.2304 277.769678 
L 144.2304 277.328546 
L 144.355394 277.328546 
L 144.355394 276.446283 
L 144.725469 276.446283 
L 144.725469 276.005151 
L 145.088405 276.005151 
L 145.088405 275.122888 
L 145.44447 275.122888 
L 145.44447 274.681756 
L 145.561676 274.681756 
L 145.561676 274.240624 
L 146.023332 274.240624 
L 146.023332 273.799493 
L 146.24998 273.799493 
L 146.24998 273.358361 
L 147.022411 273.358361 
L 147.130214 272.034966 
L 147.237402 272.034966 
L 147.237402 271.593834 
L 147.449964 271.593834 
L 147.449964 270.270439 
L 148.377845 270.270439 
L 148.377845 269.829307 
L 149.829328 269.829307 
L 149.829328 269.388176 
L 153.38284 269.388176 
L 153.38284 268.947044 
L 154.432362 268.947044 
L 154.505134 268.06478 
L 155.217778 268.06478 
L 155.217778 267.623649 
L 155.426411 267.623649 
L 155.426411 266.741385 
L 155.632755 266.741385 
L 155.632755 265.859122 
L 155.836861 265.859122 
L 155.836861 265.41799 
L 156.238546 265.41799 
L 156.238546 264.535727 
L 156.88953 264.535727 
L 156.88953 264.094595 
L 157.946987 264.094595 
L 157.946987 263.212332 
L 158.306454 263.212332 
L 158.365703 262.330068 
L 158.600851 262.330068 
L 158.600851 261.447805 
L 159.176172 261.447805 
L 159.176172 261.006673 
L 160.489139 261.006673 
L 160.489139 260.565541 
L 161.41702 260.565541 
L 161.41702 260.12441 
L 162.011118 260.12441 
L 162.011118 259.683278 
L 162.681321 259.683278 
L 162.775144 258.801015 
L 162.821881 258.801015 
L 162.821881 258.359883 
L 163.099889 258.359883 
L 163.099889 257.918751 
L 163.237368 257.918751 
L 163.237368 257.47762 
L 163.643876 257.47762 
L 163.73303 256.595356 
L 163.865975 256.595356 
L 163.865975 255.713093 
L 164.559567 255.713093 
L 164.559567 255.271961 
L 166.689935 255.271961 
L 166.7279 254.389698 
L 167.76095 254.389698 
L 167.76095 253.948566 
L 167.939599 253.948566 
L 167.939599 253.507434 
L 168.326754 253.507434 
L 168.396298 252.184039 
L 168.500134 252.184039 
L 168.500134 250.860644 
L 168.637696 250.860644 
L 168.637696 250.419512 
L 168.77426 250.419512 
L 168.77426 249.97838 
L 169.178101 249.97838 
L 169.211366 248.213854 
L 169.638546 248.213854 
L 169.671008 247.33159 
L 169.832482 247.33159 
L 169.832482 246.890459 
L 170.245939 246.890459 
L 170.27737 246.008195 
L 170.526947 246.008195 
L 170.526947 245.567063 
L 170.925576 245.567063 
L 170.925576 245.125932 
L 171.076674 245.125932 
L 171.076674 244.6848 
L 171.315934 244.6848 
L 171.345629 243.802537 
L 171.434432 243.802537 
L 171.493403 242.920273 
L 171.814477 242.920273 
L 171.872269 242.03801 
L 171.958627 242.03801 
L 171.958627 241.596878 
L 172.073157 241.596878 
L 172.1586 240.273483 
L 172.663262 240.273483 
L 172.718509 239.39122 
L 172.85592 239.39122 
L 172.965131 238.067824 
L 173.10076 238.067824 
L 173.154738 237.185561 
L 173.315751 237.185561 
L 173.315751 236.744429 
L 173.6337 236.744429 
L 173.6337 236.303298 
L 174.755589 236.303298 
L 174.854337 234.979902 
L 174.977048 234.979902 
L 175.074644 232.774244 
L 175.123253 232.774244 
L 175.123253 232.333112 
L 175.244228 232.333112 
L 175.316441 231.450849 
L 175.578877 231.450849 
L 175.578877 231.009717 
L 175.861055 231.009717 
L 175.861055 230.568585 
L 176.069946 230.568585 
L 176.093013 229.686322 
L 176.253699 229.686322 
L 176.253699 229.24519 
L 177.211747 229.24519 
L 177.211747 228.804059 
L 177.492039 228.804059 
L 177.492039 228.362927 
L 177.789293 228.362927 
L 177.789293 227.921795 
L 177.977934 227.921795 
L 178.061171 227.039532 
L 178.18534 227.039532 
L 178.18534 226.5984 
L 178.390485 226.5984 
L 178.390485 226.157268 
L 178.512506 226.157268 
L 178.553005 224.833873 
L 178.794182 224.833873 
L 178.814141 223.95161 
L 179.052014 223.95161 
L 179.052014 223.510478 
L 179.169832 223.510478 
L 179.169832 223.069346 
L 179.576479 223.069346 
L 179.652949 222.187083 
L 179.710098 222.187083 
L 179.710098 221.30482 
L 179.993268 221.30482 
L 179.993268 220.863688 
L 180.364317 220.863688 
L 180.364317 220.422556 
L 180.565316 220.422556 
L 180.565316 219.981424 
L 180.782166 219.981424 
L 180.871788 219.099161 
L 180.978773 219.099161 
L 181.085154 218.216898 
L 181.226065 218.216898 
L 181.226065 217.775766 
L 181.711104 217.775766 
L 181.762339 216.893502 
L 182.016438 216.893502 
L 182.100381 216.011239 
L 182.183951 216.011239 
L 182.267151 215.128976 
L 182.300329 215.128976 
L 182.300329 214.687844 
L 182.465343 214.687844 
L 182.547311 213.364449 
L 182.645203 213.364449 
L 182.742588 211.599922 
L 182.774938 211.599922 
L 182.871656 208.953132 
L 182.951876 208.953132 
L 183.031755 208.070868 
L 183.14302 208.070868 
L 183.174689 207.188605 
L 183.394894 207.188605 
L 183.394894 206.747473 
L 183.519577 206.747473 
L 183.535105 205.86521 
L 183.658865 205.86521 
L 183.658865 205.424078 
L 183.90397 205.424078 
L 183.90397 204.982946 
L 184.175949 204.982946 
L 184.265742 204.100683 
L 184.295578 204.100683 
L 184.295578 203.659551 
L 184.414451 203.659551 
L 184.488367 201.895024 
L 184.561993 201.895024 
L 184.649966 200.571629 
L 184.781159 200.571629 
L 184.88257 199.689366 
L 184.940274 199.689366 
L 184.940274 199.248234 
L 185.098054 199.248234 
L 185.197774 197.924839 
L 185.339322 197.924839 
L 185.339322 197.483707 
L 185.535716 197.483707 
L 185.535716 197.042576 
L 185.895095 197.042576 
L 185.936123 196.160312 
L 186.541048 196.160312 
L 186.59389 195.278049 
L 186.75153 195.278049 
L 186.816825 194.395785 
L 187.229432 194.395785 
L 187.229432 193.954654 
L 187.72036 193.954654 
L 187.745194 193.07239 
L 188.295457 193.07239 
L 188.295457 192.631259 
L 188.618051 192.631259 
L 188.618051 192.190127 
L 188.75967 192.190127 
L 188.75967 191.748995 
L 189.132188 191.748995 
L 189.166736 189.543337 
L 189.384081 189.543337 
L 189.474849 188.661073 
L 189.643866 188.661073 
L 189.688683 187.337678 
L 189.811379 187.337678 
L 189.877969 186.014283 
L 190.283477 186.014283 
L 190.294316 185.13202 
L 190.445414 185.13202 
L 190.531213 183.808624 
L 190.58464 183.808624 
L 190.58464 183.367493 
L 190.912542 183.367493 
L 190.954438 182.044098 
L 191.121098 182.044098 
L 191.121098 181.161834 
L 191.24513 181.161834 
L 191.24513 180.720702 
L 191.409245 180.720702 
L 191.450051 179.397307 
L 191.521249 179.397307 
L 191.612396 178.515044 
L 191.743277 178.515044 
L 191.743277 178.073912 
L 191.942871 178.073912 
L 191.942871 177.63278 
L 192.061618 177.63278 
L 192.101035 176.309385 
L 192.218791 176.309385 
L 192.26764 174.544859 
L 192.490724 174.544859 
L 192.548487 173.662595 
L 192.62523 173.662595 
L 192.72072 172.3392 
L 192.985543 172.3392 
L 192.985543 171.898068 
L 193.292943 171.898068 
L 193.375915 170.574673 
L 193.440197 170.574673 
L 193.540769 169.251278 
L 193.586306 169.251278 
L 193.586306 168.810146 
L 193.722261 168.810146 
L 193.821341 167.486751 
L 193.919901 167.486751 
L 194.017948 166.163356 
L 194.203721 166.163356 
L 194.309059 164.839961 
L 194.378958 164.839961 
L 194.378958 164.398829 
L 194.578483 164.398829 
L 194.664577 163.075434 
L 194.707477 163.075434 
L 194.767372 162.193171 
L 194.93746 162.193171 
L 194.93746 161.752039 
L 195.231462 161.752039 
L 195.322922 160.869776 
L 195.627336 160.869776 
L 195.627336 160.428644 
L 195.814113 160.428644 
L 195.910831 158.664117 
L 195.959004 158.664117 
L 195.96702 157.340722 
L 196.190116 157.340722 
L 196.292804 156.458459 
L 196.387098 156.458459 
L 196.394934 155.576195 
L 196.558752 155.576195 
L 196.558752 155.135063 
L 196.805666 155.135063 
L 196.805666 154.693932 
L 197.06451 154.693932 
L 197.072069 153.811668 
L 197.549659 153.811668 
L 197.549659 153.370537 
L 198.001042 153.370537 
L 198.072842 152.488273 
L 198.392592 152.488273 
L 198.462916 151.60601 
L 198.525983 151.60601 
L 198.532978 150.723746 
L 198.679264 150.723746 
L 198.720851 149.400351 
L 198.817534 149.400351 
L 198.90001 147.635824 
L 199.138523 147.635824 
L 199.219607 146.312429 
L 199.286911 146.312429 
L 199.3941 144.989034 
L 199.573607 144.989034 
L 199.646252 144.106771 
L 200.121365 144.106771 
L 200.172711 142.783376 
L 200.243082 142.783376 
L 200.243082 142.342244 
L 200.521965 142.342244 
L 200.572229 141.018849 
L 200.653624 141.018849 
L 200.734668 139.254322 
L 200.84631 139.254322 
L 200.871029 138.372059 
L 201.146908 138.372059 
L 201.225859 137.489795 
L 201.286366 137.489795 
L 201.376763 136.607532 
L 201.57412 136.607532 
L 201.657226 135.284137 
L 201.956901 135.284137 
L 202.003479 133.960741 
L 202.11364 133.960741 
L 202.165598 132.637346 
L 202.326333 132.637346 
L 202.434625 131.755083 
L 202.604355 131.755083 
L 202.604355 131.313951 
L 202.783727 131.313951 
L 202.850554 130.431688 
L 203.110027 130.431688 
L 203.197549 129.549424 
L 203.290096 129.549424 
L 203.365971 128.226029 
L 203.693043 128.226029 
L 203.78319 126.902634 
L 203.872908 126.902634 
L 203.962199 125.579239 
L 203.993613 125.579239 
L 204.066708 123.814712 
L 204.160272 123.814712 
L 204.196533 122.491317 
L 204.310042 122.491317 
L 204.335745 121.609054 
L 204.468834 121.609054 
L 204.54519 120.72679 
L 204.65157 120.72679 
L 204.65157 120.285659 
L 204.777434 120.285659 
L 204.777434 119.844527 
L 204.967149 119.844527 
L 204.967149 119.403395 
L 205.081053 119.403395 
L 205.09586 118.521132 
L 205.238391 118.521132 
L 205.27752 117.638868 
L 205.355536 117.638868 
L 205.355536 117.197737 
L 205.496121 117.197737 
L 205.602074 115.874341 
L 205.650039 115.874341 
L 205.755131 114.992078 
L 205.774176 114.992078 
L 205.774176 114.550946 
L 206.127743 114.550946 
L 206.220916 113.227551 
L 206.276599 113.227551 
L 206.387473 111.021893 
L 206.598172 111.021893 
L 206.598172 110.580761 
L 206.743365 110.580761 
L 206.806537 109.698498 
L 206.950137 109.698498 
L 206.950137 109.257366 
L 207.097086 109.257366 
L 207.194417 107.933971 
L 207.300026 107.933971 
L 207.313186 107.051707 
L 207.712339 107.051707 
L 207.742366 105.728312 
L 207.88753 105.728312 
L 207.88753 105.28718 
L 208.010468 105.28718 
L 208.077954 104.404917 
L 208.191289 104.404917 
L 208.287299 103.522654 
L 208.3455 103.522654 
L 208.3455 103.081522 
L 208.502574 103.081522 
L 208.50669 101.758127 
L 208.650181 101.758127 
L 208.650181 101.316995 
L 208.857327 101.316995 
L 208.96206 100.434732 
L 209.026222 100.434732 
L 209.038228 99.552468 
L 209.161845 99.552468 
L 209.256993 98.229073 
L 209.477151 98.229073 
L 209.477151 97.787941 
L 209.590157 97.787941 
L 209.667699 96.464546 
L 209.714071 96.464546 
L 209.798791 95.582283 
L 209.913706 95.582283 
L 209.989928 94.258888 
L 210.080988 94.258888 
L 210.141451 93.376624 
L 210.429742 93.376624 
L 210.4928 92.053229 
L 210.742938 92.053229 
L 210.841342 91.170966 
L 210.968141 91.170966 
L 211.022223 90.288702 
L 211.119181 90.288702 
L 211.162114 88.965307 
L 211.435289 88.965307 
L 211.537154 87.20078 
L 211.880801 87.20078 
L 211.908298 86.318517 
L 212.092861 86.318517 
L 212.157371 84.995122 
L 212.208145 84.995122 
L 212.208145 84.55399 
L 212.423252 84.55399 
L 212.423252 84.112859 
L 212.569723 84.112859 
L 212.569723 83.671727 
L 212.816792 83.671727 
L 212.924483 82.348332 
L 212.995936 82.348332 
L 212.995936 81.9072 
L 213.125159 81.9072 
L 213.150897 81.024937 
L 213.346003 81.024937 
L 213.346003 80.583805 
L 213.466529 80.583805 
L 213.561139 79.26041 
L 213.667791 79.26041 
L 213.667791 78.819278 
L 213.848344 78.819278 
L 213.857636 77.937015 
L 214.228636 77.937015 
L 214.228636 77.495883 
L 214.382842 77.495883 
L 214.412931 76.172488 
L 214.56564 76.172488 
L 214.625189 75.290224 
L 214.702322 75.290224 
L 214.702322 74.849093 
L 214.840958 74.849093 
L 214.873257 73.966829 
L 215.100713 73.966829 
L 215.13257 72.643434 
L 215.334042 72.643434 
L 215.414031 70.878907 
L 215.516376 70.878907 
L 215.592771 69.996644 
L 215.674481 69.996644 
L 215.758637 68.673249 
L 215.7894 68.673249 
L 215.7894 68.232117 
L 215.909174 68.232117 
L 215.909174 67.790985 
L 216.206684 67.790985 
L 216.277609 66.026459 
L 216.628279 66.026459 
L 216.72956 65.144195 
L 216.822365 65.144195 
L 216.93313 62.938537 
L 217.009232 62.938537 
L 217.0537 62.056273 
L 217.176099 62.056273 
L 217.227943 61.17401 
L 217.42878 61.17401 
L 217.42878 60.732878 
L 217.731113 60.732878 
L 217.731113 60.291746 
L 218.043542 60.291746 
L 218.11529 58.968351 
L 218.326465 58.968351 
L 218.326465 58.52722 
L 218.547365 58.52722 
L 218.547365 58.086088 
L 218.741833 58.086088 
L 218.81573 57.203824 
L 219.070934 57.203824 
L 219.070934 56.762693 
L 219.27867 56.762693 
L 219.27867 56.321561 
L 219.431253 56.321561 
L 219.431253 55.880429 
L 219.566613 55.880429 
L 219.660107 54.115902 
L 219.784799 54.115902 
L 219.8367 53.233639 
L 219.953514 53.233639 
L 220.036192 52.351376 
L 220.198257 52.351376 
L 220.198257 51.910244 
L 220.319444 51.910244 
L 220.376462 51.02798 
L 220.457307 51.02798 
L 220.563839 50.145717 
L 220.613636 50.145717 
L 220.70208 49.263454 
L 220.832903 49.263454 
L 220.832903 48.822322 
L 221.011575 48.822322 
L 221.011575 48.38119 
L 221.203242 48.38119 
L 221.203242 47.940059 
L 221.324391 47.940059 
L 221.324391 47.498927 
L 221.506727 47.498927 
L 221.506727 47.057795 
L 221.679142 47.057795 
L 221.679142 46.616663 
L 221.839865 46.616663 
L 221.839865 46.175532 
L 222.005251 46.175532 
L 222.087402 45.293268 
L 222.131336 45.293268 
L 222.131336 44.852137 
L 222.598226 44.852137 
L 222.598226 44.411005 
L 222.943331 44.411005 
L 222.950971 43.528741 
L 223.150418 43.528741 
L 223.150418 43.08761 
L 223.459626 43.08761 
L 223.459626 42.646478 
L 223.712555 42.646478 
L 223.712555 42.205346 
L 224.572825 42.205346 
L 224.572825 41.764215 
L 225.182983 41.764215 
L 225.182983 41.323083 
L 225.343413 41.323083 
L 225.393792 40.44082 
L 225.867418 40.44082 
L 225.968538 39.117424 
L 226.002665 39.117424 
L 226.002665 38.676293 
L 226.345361 38.676293 
L 226.345361 38.235161 
L 226.510445 38.235161 
L 226.510445 37.794029 
L 226.69758 37.794029 
L 226.69758 37.352898 
L 227.196327 37.352898 
L 227.241986 36.029502 
L 227.39188 36.029502 
L 227.440076 34.706107 
L 227.564512 34.706107 
L 227.564512 34.264976 
L 228.78101 34.264976 
L 228.78101 33.823844 
L 229.005183 33.823844 
L 229.024551 32.94158 
L 229.601863 32.94158 
L 229.671462 32.059317 
L 229.841691 32.059317 
L 229.841691 31.618185 
L 230.371666 31.618185 
L 230.371666 31.177054 
L 231.098822 31.177054 
L 231.098822 30.735922 
L 231.276302 30.735922 
L 231.386383 29.853659 
L 233.938214 29.853659 
L 233.938214 29.412527 
L 236.473691 29.412527 
L 236.473691 28.971395 
L 237.028428 28.971395 
L 237.028428 28.530263 
L 238.758007 28.530263 
L 238.758007 28.089132 
L 246.610183 28.089132 
L 246.610183 27.648 
L 360.8064 27.648 
L 360.8064 27.648 
" style="fill:none;stroke:#ff00ff;stroke-linecap:square;stroke-width:1.5;"/>
   </g>
   <g id="line2d_35">
    <defs>
     <path d="M -0 8.485281 
L 5.091169 0 
L 0 -8.485281 
L -5.091169 -0 
z
" id="m9f08ed3c78" style="stroke:#ff00ff;stroke-linejoin:miter;stroke-width:1.5;"/>
    </defs>
    <g>
     <use style="fill-opacity:0;stroke:#ff00ff;stroke-linejoin:miter;stroke-width:1.5;" x="179.652949" xlink:href="#m9f08ed3c78" y="222.187083"/>
     <use style="fill-opacity:0;stroke:#ff00ff;stroke-linejoin:miter;stroke-width:1.5;" x="210.141451" xlink:href="#m9f08ed3c78" y="93.376624"/>
     <use style="fill-opacity:0;stroke:#ff00ff;stroke-linejoin:miter;stroke-width:1.5;" x="246.610183" xlink:href="#m9f08ed3c78" y="27.648"/>
     <use style="fill-opacity:0;stroke:#ff00ff;stroke-linejoin:miter;stroke-width:1.5;" x="246.610183" xlink:href="#m9f08ed3c78" y="27.648"/>
     <use style="fill-opacity:0;stroke:#ff00ff;stroke-linejoin:miter;stroke-width:1.5;" x="360.8064" xlink:href="#m9f08ed3c78" y="27.648"/>
    </g>
   </g>
   <g id="line2d_36">
    <path style="fill:none;stroke:#ff00ff;stroke-linecap:square;stroke-width:1.5;"/>
    <g/>
   </g>
   <g id="line2d_37">
    <path clip-path="url(#pfa62e5a873)" d="M 140.188837 280.416468 
" style="fill:none;stroke:#ff00ff;stroke-linecap:square;stroke-width:1.5;"/>
    <defs>
     <path d="M -12 12 
L 12 -12 
M -12 -12 
L 12 12 
" id="ma13f602686" style="stroke:#ff00ff;"/>
    </defs>
    <g clip-path="url(#pfa62e5a873)">
     <use style="fill:#ff00ff;stroke:#ff00ff;" x="140.188837" xlink:href="#ma13f602686" y="280.416468"/>
    </g>
   </g>
   <g id="line2d_38">
    <defs>
     <path d="M 0 1.5 
C 0.397805 1.5 0.77937 1.341951 1.06066 1.06066 
C 1.341951 0.77937 1.5 0.397805 1.5 0 
C 1.5 -0.397805 1.341951 -0.77937 1.06066 -1.06066 
C 0.77937 -1.341951 0.397805 -1.5 0 -1.5 
C -0.397805 -1.5 -0.77937 -1.341951 -1.06066 -1.06066 
C -1.341951 -0.77937 -1.5 -0.397805 -1.5 0 
C -1.5 0.397805 -1.341951 0.77937 -1.06066 1.06066 
C -0.77937 1.341951 -0.397805 1.5 0 1.5 
z
" id="m4562bbecd0" style="stroke:#ff7500;"/>
    </defs>
    <g>
     <use style="fill:#ff7500;stroke:#ff7500;" x="192.296888" xlink:href="#m4562bbecd0" y="27.648"/>
     <use style="fill:#ff7500;stroke:#ff7500;" x="192.296888" xlink:href="#m4562bbecd0" y="27.648"/>
    </g>
   </g>
   <g id="line2d_39">
    <path d="M 133.097823 298.944 
L 133.097823 298.061737 
L 135.638065 298.061737 
L 135.638065 296.29721 
L 136.413909 296.29721 
L 136.413909 294.532683 
L 137.159019 294.532683 
L 137.159019 294.091551 
L 138.050729 294.091551 
L 138.050729 293.65042 
L 138.224108 293.65042 
L 138.224108 293.209288 
L 139.716555 293.209288 
L 139.716555 291.003629 
L 140.343665 291.003629 
L 140.343665 290.562498 
L 140.49723 290.562498 
L 140.49723 290.121366 
L 141.099251 290.121366 
L 141.099251 289.239102 
L 141.393187 289.239102 
L 141.393187 287.915707 
L 143.199372 287.915707 
L 143.199372 287.033444 
L 143.721949 287.033444 
L 143.721949 286.592312 
L 143.850356 286.592312 
L 143.850356 286.15118 
L 144.355394 286.15118 
L 144.355394 283.50439 
L 144.479563 283.50439 
L 144.479563 282.180995 
L 144.847227 282.180995 
L 144.847227 280.8576 
L 145.326529 280.8576 
L 145.326529 280.416468 
L 145.44447 280.416468 
L 145.44447 279.534205 
L 145.678157 279.534205 
L 145.678157 279.093073 
L 145.79392 279.093073 
L 145.79392 276.005151 
L 146.362288 276.005151 
L 146.362288 275.56402 
L 146.695245 275.56402 
L 146.695245 274.681756 
L 146.913986 274.681756 
L 146.913986 273.799493 
L 147.130214 273.799493 
L 147.130214 272.034966 
L 147.449964 272.034966 
L 147.449964 269.388176 
L 147.868016 269.388176 
L 147.971093 262.330068 
L 148.124658 262.330068 
L 148.124658 261.888937 
L 148.478174 261.888937 
L 148.478174 260.565541 
L 148.67724 260.565541 
L 148.775988 256.595356 
L 148.874221 256.595356 
L 148.971944 253.948566 
L 149.069161 253.948566 
L 149.069161 253.066302 
L 149.642146 253.066302 
L 149.73597 251.742907 
L 150.014665 251.742907 
L 150.014665 249.537249 
L 150.198193 249.537249 
L 150.198193 248.213854 
L 150.379949 248.213854 
L 150.379949 247.33159 
L 151.089903 247.33159 
L 151.089903 246.890459 
L 151.857828 246.890459 
L 151.857828 246.449327 
L 152.106991 246.449327 
L 152.106991 245.567063 
L 152.434157 245.567063 
L 152.434157 243.361405 
L 152.75573 243.361405 
L 152.835271 241.155746 
L 153.150116 241.155746 
L 153.228011 239.39122 
L 153.305585 239.39122 
L 153.305585 235.421034 
L 153.459779 235.421034 
L 153.459779 234.538771 
L 153.764426 234.538771 
L 153.839823 232.774244 
L 154.212341 232.774244 
L 154.212341 231.450849 
L 154.577625 231.450849 
L 154.577625 231.009717 
L 154.86483 231.009717 
L 154.86483 230.127454 
L 155.147716 230.127454 
L 155.147716 226.157268 
L 155.426411 226.157268 
L 155.495444 224.833873 
L 155.701037 224.833873 
L 155.769072 222.187083 
L 155.836861 222.187083 
L 155.836861 221.30482 
L 156.038776 221.30482 
L 156.105602 217.775766 
L 156.436218 217.775766 
L 156.501649 215.570107 
L 156.825436 215.570107 
L 156.825436 214.246712 
L 156.953406 214.246712 
L 156.953406 208.070868 
L 157.080512 208.070868 
L 157.080512 205.86521 
L 157.206765 205.86521 
L 157.269574 204.541815 
L 157.518738 204.541815 
L 157.580516 202.777288 
L 157.703468 202.777288 
L 157.703468 201.012761 
L 157.886402 201.012761 
L 157.886402 199.689366 
L 158.007377 199.689366 
L 158.007377 199.248234 
L 158.127579 199.248234 
L 158.187393 195.278049 
L 158.247018 195.278049 
L 158.247018 194.395785 
L 158.483644 194.395785 
L 158.483644 193.513522 
L 158.600851 193.513522 
L 158.659181 190.4256 
L 158.717331 190.4256 
L 158.775302 185.573151 
L 159.119425 185.573151 
L 159.176172 182.044098 
L 159.345393 182.044098 
L 159.345393 179.397307 
L 159.568678 179.397307 
L 159.679334 178.515044 
L 160.725435 178.515044 
L 160.725435 177.63278 
L 161.010268 177.63278 
L 161.010268 176.309385 
L 162.444694 176.309385 
L 162.444694 175.868254 
L 162.587027 175.868254 
L 162.681321 173.662595 
L 163.053839 173.662595 
L 163.053839 172.780332 
L 163.191653 172.780332 
L 163.282972 171.015805 
L 163.419123 171.015805 
L 163.464289 169.69241 
L 163.688506 169.69241 
L 163.688506 169.251278 
L 163.997986 169.251278 
L 163.997986 168.810146 
L 165.228492 168.810146 
L 165.228492 167.927883 
L 165.914091 167.927883 
L 165.914091 167.486751 
L 166.422014 167.486751 
L 166.422014 166.604488 
L 166.878997 166.604488 
L 166.878997 166.163356 
L 167.066179 166.163356 
L 167.140533 161.752039 
L 167.288365 161.752039 
L 167.288365 161.310907 
L 168.6034 161.310907 
L 168.6034 159.105249 
L 168.808246 159.105249 
L 168.808246 157.340722 
L 168.943582 157.340722 
L 168.977264 156.458459 
L 169.111393 156.458459 
L 169.111393 155.576195 
L 169.277721 155.576195 
L 169.376816 148.518088 
L 169.409732 148.518088 
L 169.442591 145.871298 
L 169.573454 145.871298 
L 169.573454 145.430166 
L 169.703414 145.430166 
L 169.800298 141.901112 
L 169.992581 141.901112 
L 170.056241 141.018849 
L 170.151329 141.018849 
L 170.245939 138.372059 
L 170.650504 138.372059 
L 170.650504 137.489795 
L 170.834332 137.489795 
L 170.834332 137.048663 
L 170.955893 137.048663 
L 171.046551 134.843005 
L 171.226568 134.843005 
L 171.315934 132.637346 
L 171.434432 132.637346 
L 171.463941 130.87282 
L 171.581513 130.87282 
L 171.640025 127.784898 
L 171.698355 127.784898 
L 171.698355 126.902634 
L 171.843395 126.902634 
L 171.843395 125.579239 
L 172.04459 125.579239 
L 172.04459 121.609054 
L 172.271923 121.609054 
L 172.271923 118.521132 
L 172.412623 118.521132 
L 172.412623 118.08 
L 172.552279 118.08 
L 172.663262 115.874341 
L 172.773594 115.874341 
L 172.773594 114.992078 
L 172.937888 114.992078 
L 172.992335 114.109815 
L 173.073712 114.109815 
L 173.073712 113.668683 
L 173.208563 113.668683 
L 173.275627 108.816234 
L 173.816719 108.816234 
L 173.816719 108.375102 
L 174.355328 108.375102 
L 174.355328 107.933971 
L 174.481327 107.933971 
L 174.581522 105.728312 
L 174.681186 105.728312 
L 174.681186 103.522654 
L 174.977048 103.522654 
L 175.02591 102.199259 
L 175.123253 102.199259 
L 175.123253 100.875863 
L 175.244228 100.875863 
L 175.244228 100.434732 
L 175.36443 100.434732 
L 175.36443 99.552468 
L 175.720495 99.552468 
L 175.720495 99.111337 
L 175.837702 99.111337 
L 175.837702 98.670205 
L 176.000573 98.670205 
L 176.000573 97.787941 
L 176.139064 97.787941 
L 176.139064 97.34681 
L 176.276542 97.34681 
L 176.299358 94.70002 
L 176.390345 94.70002 
L 176.480894 92.053229 
L 176.503464 92.053229 
L 176.537267 91.170966 
L 176.660695 91.170966 
L 176.660695 88.965307 
L 177.957067 88.965307 
L 178.061171 87.641912 
L 178.164702 87.641912 
L 178.164702 86.759649 
L 179.316074 86.759649 
L 179.383934 83.671727 
L 179.480453 83.671727 
L 179.480453 82.348332 
L 180.547132 82.348332 
L 180.646928 80.583805 
L 180.692116 80.583805 
L 180.764191 77.937015 
L 183.919184 77.937015 
L 183.995068 75.731356 
L 184.070647 75.731356 
L 184.160942 74.407961 
L 184.369962 74.407961 
L 184.429257 73.525698 
L 184.517852 73.525698 
L 184.517852 72.202302 
L 184.79568 72.202302 
L 184.79568 71.761171 
L 185.197774 71.761171 
L 185.197774 70.437776 
L 185.325215 70.437776 
L 185.395644 69.555512 
L 185.507784 69.555512 
L 185.507784 69.11438 
L 186.314801 69.11438 
L 186.381628 67.790985 
L 186.434918 67.790985 
L 186.434918 66.908722 
L 186.554273 66.908722 
L 186.554273 66.46759 
L 186.959682 66.46759 
L 187.011362 60.291746 
L 187.261289 60.291746 
L 187.369201 56.762693 
L 187.41977 56.762693 
L 187.520501 53.674771 
L 187.967235 53.674771 
L 187.967235 53.233639 
L 189.016566 53.233639 
L 189.086025 51.469112 
L 189.933281 51.469112 
L 190.043419 49.704585 
L 190.174739 49.704585 
L 190.174739 49.263454 
L 190.423902 49.263454 
L 190.4669 45.293268 
L 190.659184 45.293268 
L 190.669809 43.528741 
L 190.881058 43.528741 
L 190.964898 41.323083 
L 191.037952 41.323083 
L 191.089961 39.558556 
L 191.419455 39.558556 
L 191.460239 38.235161 
L 191.541542 38.235161 
L 191.582063 34.264976 
L 191.662842 34.264976 
L 191.662842 33.823844 
L 191.793374 33.823844 
L 191.793374 32.94158 
L 191.972628 32.94158 
L 191.972628 31.618185 
L 192.169816 31.618185 
L 192.218791 28.971395 
L 192.296888 28.971395 
L 192.296888 27.648 
L 360.8064 27.648 
L 360.8064 27.648 
" style="fill:none;stroke:#ff7500;stroke-linecap:square;stroke-width:1.5;"/>
   </g>
   <g id="line2d_40">
    <defs>
     <path d="M 0 -6 
L -1.347084 -1.854102 
L -5.706339 -1.854102 
L -2.179628 0.708204 
L -3.526712 4.854102 
L -0 2.291796 
L 3.526712 4.854102 
L 2.179628 0.708204 
L 5.706339 -1.854102 
L 1.347084 -1.854102 
z
" id="m848eb6440f" style="stroke:#ff7500;stroke-linejoin:bevel;stroke-width:1.5;"/>
    </defs>
    <g>
     <use style="fill-opacity:0;stroke:#ff7500;stroke-linejoin:bevel;stroke-width:1.5;" x="169.376816" xlink:href="#m848eb6440f" y="148.518088"/>
     <use style="fill-opacity:0;stroke:#ff7500;stroke-linejoin:bevel;stroke-width:1.5;" x="192.296888" xlink:href="#m848eb6440f" y="28.971395"/>
     <use style="fill-opacity:0;stroke:#ff7500;stroke-linejoin:bevel;stroke-width:1.5;" x="192.296888" xlink:href="#m848eb6440f" y="27.648"/>
     <use style="fill-opacity:0;stroke:#ff7500;stroke-linejoin:bevel;stroke-width:1.5;" x="192.296888" xlink:href="#m848eb6440f" y="27.648"/>
     <use style="fill-opacity:0;stroke:#ff7500;stroke-linejoin:bevel;stroke-width:1.5;" x="360.8064" xlink:href="#m848eb6440f" y="27.648"/>
    </g>
   </g>
   <g id="line2d_41">
    <path style="fill:none;stroke:#ff7500;stroke-linecap:square;stroke-width:1.5;"/>
    <g/>
   </g>
   <g id="line2d_42">
    <defs>
     <path d="M 0 1.5 
C 0.397805 1.5 0.77937 1.341951 1.06066 1.06066 
C 1.341951 0.77937 1.5 0.397805 1.5 0 
C 1.5 -0.397805 1.341951 -0.77937 1.06066 -1.06066 
C 0.77937 -1.341951 0.397805 -1.5 0 -1.5 
C -0.397805 -1.5 -0.77937 -1.341951 -1.06066 -1.06066 
C -1.341951 -0.77937 -1.5 -0.397805 -1.5 0 
C -1.5 0.397805 -1.341951 0.77937 -1.06066 1.06066 
C -0.77937 1.341951 -0.397805 1.5 0 1.5 
z
" id="mf70e9873a2" style="stroke:#6495ed;"/>
    </defs>
    <g>
     <use style="fill:#6495ed;stroke:#6495ed;" x="212.252038" xlink:href="#mf70e9873a2" y="27.648"/>
     <use style="fill:#6495ed;stroke:#6495ed;" x="212.252038" xlink:href="#mf70e9873a2" y="27.648"/>
    </g>
   </g>
   <g id="line2d_43">
    <path d="M 101.532027 298.944 
L 101.532027 297.179473 
L 107.244765 297.179473 
L 107.244765 296.738341 
L 110.897141 296.738341 
L 110.897141 296.29721 
L 113.954374 296.29721 
L 113.954374 294.532683 
L 116.583514 294.532683 
L 116.583514 293.209288 
L 118.889854 293.209288 
L 118.889854 291.444761 
L 120.944062 291.444761 
L 120.944062 291.003629 
L 121.371615 291.003629 
L 121.371615 290.562498 
L 123.183753 290.562498 
L 123.183753 286.592312 
L 124.836562 286.592312 
L 124.836562 284.827785 
L 127.761474 284.827785 
L 127.761474 280.8576 
L 133.097823 280.8576 
L 133.097823 279.975337 
L 134.304809 279.975337 
L 134.304809 278.651941 
L 136.97549 278.651941 
L 136.97549 277.328546 
L 137.787626 277.328546 
L 137.787626 272.034966 
L 139.313723 272.034966 
L 139.313723 267.182517 
L 140.032723 267.182517 
L 140.032723 264.976859 
L 140.49723 264.976859 
L 140.49723 264.535727 
L 140.725251 264.535727 
L 140.725251 263.212332 
L 140.875745 263.212332 
L 140.875745 262.7712 
L 141.173167 262.7712 
L 141.173167 261.006673 
L 141.393187 261.006673 
L 141.393187 259.683278 
L 141.682602 259.683278 
L 141.682602 259.242146 
L 141.825656 259.242146 
L 141.825656 257.918751 
L 142.45627 257.918751 
L 142.45627 256.595356 
L 143.066428 256.595356 
L 143.066428 254.830829 
L 143.265494 254.830829 
L 143.265494 249.537249 
L 143.657415 249.537249 
L 143.657415 248.213854 
L 144.417581 248.213854 
L 144.479563 247.33159 
L 145.0284 247.33159 
L 145.0284 246.890459 
L 145.561676 246.890459 
L 145.561676 245.567063 
L 146.080251 245.567063 
L 146.080251 242.920273 
L 146.584913 242.920273 
L 146.64016 237.626693 
L 146.750169 237.626693 
L 146.750169 233.656507 
L 147.555352 233.656507 
L 147.555352 233.215376 
L 149.357835 233.215376 
L 149.357835 231.89198 
L 150.870907 231.89198 
L 150.870907 230.568585 
L 153.38284 230.568585 
L 153.38284 227.480663 
L 153.5746 227.480663 
L 153.5746 223.510478 
L 154.064218 223.510478 
L 154.064218 221.30482 
L 154.468783 221.30482 
L 154.468783 219.540293 
L 154.793439 219.540293 
L 154.86483 213.364449 
L 155.18278 213.364449 
L 155.18278 211.15879 
L 155.357123 211.15879 
L 155.357123 204.541815 
L 155.495444 204.541815 
L 155.495444 204.100683 
L 155.802997 204.100683 
L 155.802997 201.012761 
L 155.971711 201.012761 
L 155.971711 198.807102 
L 156.337642 198.807102 
L 156.337642 196.601444 
L 156.566854 196.601444 
L 156.566854 195.71918 
L 156.761123 195.71918 
L 156.857511 193.954654 
L 156.985263 193.954654 
L 156.985263 193.513522 
L 157.206765 193.513522 
L 157.269574 191.748995 
L 157.394569 191.748995 
L 157.487772 180.720702 
L 157.549652 180.720702 
L 157.549652 179.397307 
L 157.825621 179.397307 
L 157.825621 178.515044 
L 158.0375 178.515044 
L 158.0375 176.750517 
L 158.483644 176.750517 
L 158.571617 174.98599 
L 158.746339 174.98599 
L 158.746339 174.544859 
L 159.062507 174.544859 
L 159.062507 170.574673 
L 159.317295 170.574673 
L 159.373449 163.957698 
L 159.429436 163.957698 
L 159.429436 163.516566 
L 159.568678 163.516566 
L 159.596403 159.105249 
L 159.816746 159.105249 
L 159.844108 148.518088 
L 160.061585 148.518088 
L 160.169388 141.901112 
L 160.303279 141.901112 
L 160.409709 140.136585 
L 160.803545 140.136585 
L 160.803545 137.489795 
L 161.112783 137.489795 
L 161.112783 137.048663 
L 161.442152 137.048663 
L 161.442152 136.1664 
L 162.728291 136.1664 
L 162.728291 135.725268 
L 163.954085 135.725268 
L 163.954085 133.078478 
L 164.771172 133.078478 
L 164.771172 132.196215 
L 164.959603 132.196215 
L 164.959603 130.87282 
L 165.146166 130.87282 
L 165.146166 130.431688 
L 165.330896 130.431688 
L 165.330896 128.667161 
L 165.51383 128.667161 
L 165.574415 123.814712 
L 165.755007 123.814712 
L 165.755007 122.932449 
L 165.874446 122.932449 
L 165.973402 118.962263 
L 166.091467 118.962263 
L 166.130658 117.197737 
L 166.267186 117.197737 
L 166.344759 115.874341 
L 166.40273 115.874341 
L 166.441278 112.78642 
L 166.613775 112.78642 
L 166.613775 111.904156 
L 166.916583 111.904156 
L 166.916583 111.463024 
L 167.251516 111.463024 
L 167.251516 110.139629 
L 167.453299 110.139629 
L 167.453299 108.375102 
L 167.6168 108.375102 
L 167.652941 106.610576 
L 167.778892 106.610576 
L 167.850487 103.081522 
L 167.939599 103.081522 
L 167.939599 97.787941 
L 168.116567 97.787941 
L 168.116567 94.70002 
L 168.256952 94.70002 
L 168.309328 92.494361 
L 168.79126 92.494361 
L 168.892945 90.288702 
L 168.943582 90.288702 
L 169.044448 82.348332 
L 169.178101 82.348332 
L 169.194741 80.142673 
L 169.310811 80.142673 
L 169.343842 79.26041 
L 169.491772 79.26041 
L 169.491772 78.819278 
L 169.654784 78.819278 
L 169.654784 76.172488 
L 169.800298 76.172488 
L 169.800298 75.290224 
L 170.261661 75.290224 
L 170.261661 70.437776 
L 170.542436 70.437776 
L 170.542436 69.996644 
L 171.211632 69.996644 
L 171.211632 69.555512 
L 171.698355 69.555512 
L 171.698355 66.026459 
L 182.498173 66.026459 
L 182.498173 65.585327 
L 189.281441 65.585327 
L 189.332831 63.8208 
L 189.883507 63.8208 
L 189.933281 57.644956 
L 190.081815 57.644956 
L 190.19109 51.910244 
L 190.310563 51.910244 
L 190.386198 45.7344 
L 196.508199 45.7344 
L 196.508199 45.293268 
L 212.101362 45.293268 
L 212.211525 37.794029 
L 212.226727 37.794029 
L 212.252038 27.648 
L 360.8064 27.648 
L 360.8064 27.648 
" style="fill:none;stroke:#6495ed;stroke-linecap:square;stroke-width:1.5;"/>
   </g>
   <g id="line2d_44">
    <defs>
     <path d="M -0 6 
L 6 -6 
L -6 -6 
z
" id="m6000c07f02" style="stroke:#6495ed;stroke-linejoin:miter;stroke-width:1.5;"/>
    </defs>
    <g>
     <use style="fill-opacity:0;stroke:#6495ed;stroke-linejoin:miter;stroke-width:1.5;" x="166.091467" xlink:href="#m6000c07f02" y="118.521132"/>
     <use style="fill-opacity:0;stroke:#6495ed;stroke-linejoin:miter;stroke-width:1.5;" x="212.252038" xlink:href="#m6000c07f02" y="28.530263"/>
     <use style="fill-opacity:0;stroke:#6495ed;stroke-linejoin:miter;stroke-width:1.5;" x="212.252038" xlink:href="#m6000c07f02" y="27.648"/>
     <use style="fill-opacity:0;stroke:#6495ed;stroke-linejoin:miter;stroke-width:1.5;" x="212.252038" xlink:href="#m6000c07f02" y="27.648"/>
     <use style="fill-opacity:0;stroke:#6495ed;stroke-linejoin:miter;stroke-width:1.5;" x="360.8064" xlink:href="#m6000c07f02" y="27.648"/>
    </g>
   </g>
   <g id="line2d_45">
    <path style="fill:none;stroke:#6495ed;stroke-linecap:square;stroke-width:1.5;"/>
    <g/>
   </g>
   <g id="line2d_46">
    <path d="M 360.8064 27.648 
L 380.514816 293.51808 
" style="fill:none;stroke:#ff00ff;stroke-linecap:square;stroke-width:1.5;"/>
    <g>
     <use style="fill-opacity:0;stroke:#ff00ff;stroke-linejoin:miter;stroke-width:1.5;" x="360.8064" xlink:href="#m9f08ed3c78" y="27.648"/>
     <use style="fill-opacity:0;stroke:#ff00ff;stroke-linejoin:miter;stroke-width:1.5;" x="380.514816" xlink:href="#m9f08ed3c78" y="293.51808"/>
    </g>
   </g>
   <g id="line2d_47">
    <path d="M 360.8064 27.648 
L 380.514816 206.70336 
" style="fill:none;stroke:#6495ed;stroke-linecap:square;stroke-width:1.5;"/>
    <g>
     <use style="fill-opacity:0;stroke:#6495ed;stroke-linejoin:miter;stroke-width:1.5;" x="360.8064" xlink:href="#m6000c07f02" y="27.648"/>
     <use style="fill-opacity:0;stroke:#6495ed;stroke-linejoin:miter;stroke-width:1.5;" x="380.514816" xlink:href="#m6000c07f02" y="206.70336"/>
    </g>
   </g>
   <g id="line2d_48">
    <path d="M 360.8064 27.648 
L 380.514816 119.88864 
" style="fill:none;stroke:#ff7500;stroke-linecap:square;stroke-width:1.5;"/>
    <g>
     <use style="fill-opacity:0;stroke:#ff7500;stroke-linejoin:bevel;stroke-width:1.5;" x="360.8064" xlink:href="#m848eb6440f" y="27.648"/>
     <use style="fill-opacity:0;stroke:#ff7500;stroke-linejoin:bevel;stroke-width:1.5;" x="380.514816" xlink:href="#m848eb6440f" y="119.88864"/>
    </g>
   </g>
   <g id="line2d_49">
    <path d="M 360.8064 27.648 
L 380.514816 33.07392 
" style="fill:none;stroke:#000080;stroke-linecap:square;stroke-width:1.5;"/>
    <g>
     <use style="fill-opacity:0;stroke:#000080;stroke-width:1.5;" x="360.8064" xlink:href="#m54112e977d" y="27.648"/>
     <use style="fill-opacity:0;stroke:#000080;stroke-width:1.5;" x="380.514816" xlink:href="#m54112e977d" y="33.07392"/>
    </g>
   </g>
   <g id="line2d_50">
    <path d="M 360.8064 298.944 
L 360.8064 27.648 
" style="fill:none;stroke:#000000;stroke-linecap:square;stroke-width:1.5;"/>
   </g>
   <g id="patch_3">
    <path d="M 57.6 298.944 
L 360.8064 298.944 
" style="fill:none;stroke:#000000;stroke-linecap:square;stroke-linejoin:miter;stroke-width:0.8;"/>
   </g>
   <g id="patch_4">
    <path d="M 57.6 27.648 
L 360.8064 27.648 
" style="fill:none;stroke:#000000;stroke-linecap:square;stroke-linejoin:miter;stroke-width:0.8;"/>
   </g>
   <g id="text_13">
    <!-- cobyla rh -->
    <g transform="translate(386.578944 297.381205)scale(0.14 -0.14)">
     <defs>
      <path d="M 48.6875 27.296875 
Q 48.6875 37.203125 44.609375 42.84375 
Q 40.53125 48.484375 33.40625 48.484375 
Q 26.265625 48.484375 22.1875 42.84375 
Q 18.109375 37.203125 18.109375 27.296875 
Q 18.109375 17.390625 22.1875 11.75 
Q 26.265625 6.109375 33.40625 6.109375 
Q 40.53125 6.109375 44.609375 11.75 
Q 48.6875 17.390625 48.6875 27.296875 
z
M 18.109375 46.390625 
Q 20.953125 51.265625 25.265625 53.625 
Q 29.59375 56 35.59375 56 
Q 45.5625 56 51.78125 48.09375 
Q 58.015625 40.1875 58.015625 27.296875 
Q 58.015625 14.40625 51.78125 6.484375 
Q 45.5625 -1.421875 35.59375 -1.421875 
Q 29.59375 -1.421875 25.265625 0.953125 
Q 20.953125 3.328125 18.109375 8.203125 
L 18.109375 0 
L 9.078125 0 
L 9.078125 75.984375 
L 18.109375 75.984375 
z
" id="DejaVuSans-98"/>
      <path d="M 32.171875 -5.078125 
Q 28.375 -14.84375 24.75 -17.8125 
Q 21.140625 -20.796875 15.09375 -20.796875 
L 7.90625 -20.796875 
L 7.90625 -13.28125 
L 13.1875 -13.28125 
Q 16.890625 -13.28125 18.9375 -11.515625 
Q 21 -9.765625 23.484375 -3.21875 
L 25.09375 0.875 
L 2.984375 54.6875 
L 12.5 54.6875 
L 29.59375 11.921875 
L 46.6875 54.6875 
L 56.203125 54.6875 
z
" id="DejaVuSans-121"/>
      <path d="M 54.890625 33.015625 
L 54.890625 0 
L 45.90625 0 
L 45.90625 32.71875 
Q 45.90625 40.484375 42.875 44.328125 
Q 39.84375 48.1875 33.796875 48.1875 
Q 26.515625 48.1875 22.3125 43.546875 
Q 18.109375 38.921875 18.109375 30.90625 
L 18.109375 0 
L 9.078125 0 
L 9.078125 75.984375 
L 18.109375 75.984375 
L 18.109375 46.1875 
Q 21.34375 51.125 25.703125 53.5625 
Q 30.078125 56 35.796875 56 
Q 45.21875 56 50.046875 50.171875 
Q 54.890625 44.34375 54.890625 33.015625 
z
" id="DejaVuSans-104"/>
     </defs>
     <use xlink:href="#DejaVuSans-99"/>
     <use x="54.980469" xlink:href="#DejaVuSans-111"/>
     <use x="116.162109" xlink:href="#DejaVuSans-98"/>
     <use x="179.638672" xlink:href="#DejaVuSans-121"/>
     <use x="238.818359" xlink:href="#DejaVuSans-108"/>
     <use x="266.601562" xlink:href="#DejaVuSans-97"/>
     <use x="327.880859" xlink:href="#DejaVuSans-32"/>
     <use x="359.667969" xlink:href="#DejaVuSans-114"/>
     <use x="399.03125" xlink:href="#DejaVuSans-104"/>
    </g>
   </g>
   <g id="text_14">
    <!-- slsqp -->
    <g transform="translate(386.578944 210.566485)scale(0.14 -0.14)">
     <defs>
      <path d="M 14.796875 27.296875 
Q 14.796875 17.390625 18.875 11.75 
Q 22.953125 6.109375 30.078125 6.109375 
Q 37.203125 6.109375 41.296875 11.75 
Q 45.40625 17.390625 45.40625 27.296875 
Q 45.40625 37.203125 41.296875 42.84375 
Q 37.203125 48.484375 30.078125 48.484375 
Q 22.953125 48.484375 18.875 42.84375 
Q 14.796875 37.203125 14.796875 27.296875 
z
M 45.40625 8.203125 
Q 42.578125 3.328125 38.25 0.953125 
Q 33.9375 -1.421875 27.875 -1.421875 
Q 17.96875 -1.421875 11.734375 6.484375 
Q 5.515625 14.40625 5.515625 27.296875 
Q 5.515625 40.1875 11.734375 48.09375 
Q 17.96875 56 27.875 56 
Q 33.9375 56 38.25 53.625 
Q 42.578125 51.265625 45.40625 46.390625 
L 45.40625 54.6875 
L 54.390625 54.6875 
L 54.390625 -20.796875 
L 45.40625 -20.796875 
z
" id="DejaVuSans-113"/>
     </defs>
     <use xlink:href="#DejaVuSans-115"/>
     <use x="52.099609" xlink:href="#DejaVuSans-108"/>
     <use x="79.882812" xlink:href="#DejaVuSans-115"/>
     <use x="131.982422" xlink:href="#DejaVuSans-113"/>
     <use x="195.458984" xlink:href="#DejaVuSans-112"/>
    </g>
   </g>
   <g id="text_15">
    <!-- fmincon -->
    <g transform="translate(386.578944 123.751765)scale(0.14 -0.14)">
     <use xlink:href="#DejaVuSans-102"/>
     <use x="35.205078" xlink:href="#DejaVuSans-109"/>
     <use x="132.617188" xlink:href="#DejaVuSans-105"/>
     <use x="160.400391" xlink:href="#DejaVuSans-110"/>
     <use x="223.779297" xlink:href="#DejaVuSans-99"/>
     <use x="278.759766" xlink:href="#DejaVuSans-111"/>
     <use x="339.941406" xlink:href="#DejaVuSans-110"/>
    </g>
   </g>
   <g id="text_16">
    <!-- cobyla -->
    <g transform="translate(386.578944 36.937045)scale(0.14 -0.14)">
     <use xlink:href="#DejaVuSans-99"/>
     <use x="54.980469" xlink:href="#DejaVuSans-111"/>
     <use x="116.162109" xlink:href="#DejaVuSans-98"/>
     <use x="179.638672" xlink:href="#DejaVuSans-121"/>
     <use x="238.818359" xlink:href="#DejaVuSans-108"/>
     <use x="266.601562" xlink:href="#DejaVuSans-97"/>
    </g>
   </g>
   <g id="text_17">
    <!-- bbob-constrained f51, 3-D -->
    <g transform="translate(60.632064 38.111366)scale(0.102 -0.102)">
     <defs>
      <path d="M 4.890625 31.390625 
L 31.203125 31.390625 
L 31.203125 23.390625 
L 4.890625 23.390625 
z
" id="DejaVuSans-45"/>
      <path d="M 10.796875 72.90625 
L 49.515625 72.90625 
L 49.515625 64.59375 
L 19.828125 64.59375 
L 19.828125 46.734375 
Q 21.96875 47.46875 24.109375 47.828125 
Q 26.265625 48.1875 28.421875 48.1875 
Q 40.625 48.1875 47.75 41.5 
Q 54.890625 34.8125 54.890625 23.390625 
Q 54.890625 11.625 47.5625 5.09375 
Q 40.234375 -1.421875 26.90625 -1.421875 
Q 22.3125 -1.421875 17.546875 -0.640625 
Q 12.796875 0.140625 7.71875 1.703125 
L 7.71875 11.625 
Q 12.109375 9.234375 16.796875 8.0625 
Q 21.484375 6.890625 26.703125 6.890625 
Q 35.15625 6.890625 40.078125 11.328125 
Q 45.015625 15.765625 45.015625 23.390625 
Q 45.015625 31 40.078125 35.4375 
Q 35.15625 39.890625 26.703125 39.890625 
Q 22.75 39.890625 18.8125 39.015625 
Q 14.890625 38.140625 10.796875 36.28125 
z
" id="DejaVuSans-53"/>
      <path d="M 40.578125 39.3125 
Q 47.65625 37.796875 51.625 33 
Q 55.609375 28.21875 55.609375 21.1875 
Q 55.609375 10.40625 48.1875 4.484375 
Q 40.765625 -1.421875 27.09375 -1.421875 
Q 22.515625 -1.421875 17.65625 -0.515625 
Q 12.796875 0.390625 7.625 2.203125 
L 7.625 11.71875 
Q 11.71875 9.328125 16.59375 8.109375 
Q 21.484375 6.890625 26.8125 6.890625 
Q 36.078125 6.890625 40.9375 10.546875 
Q 45.796875 14.203125 45.796875 21.1875 
Q 45.796875 27.640625 41.28125 31.265625 
Q 36.765625 34.90625 28.71875 34.90625 
L 20.21875 34.90625 
L 20.21875 43.015625 
L 29.109375 43.015625 
Q 36.375 43.015625 40.234375 45.921875 
Q 44.09375 48.828125 44.09375 54.296875 
Q 44.09375 59.90625 40.109375 62.90625 
Q 36.140625 65.921875 28.71875 65.921875 
Q 24.65625 65.921875 20.015625 65.03125 
Q 15.375 64.15625 9.8125 62.3125 
L 9.8125 71.09375 
Q 15.4375 72.65625 20.34375 73.4375 
Q 25.25 74.21875 29.59375 74.21875 
Q 40.828125 74.21875 47.359375 69.109375 
Q 53.90625 64.015625 53.90625 55.328125 
Q 53.90625 49.265625 50.4375 45.09375 
Q 46.96875 40.921875 40.578125 39.3125 
z
" id="DejaVuSans-51"/>
      <path d="M 19.671875 64.796875 
L 19.671875 8.109375 
L 31.59375 8.109375 
Q 46.6875 8.109375 53.6875 14.9375 
Q 60.6875 21.78125 60.6875 36.53125 
Q 60.6875 51.171875 53.6875 57.984375 
Q 46.6875 64.796875 31.59375 64.796875 
z
M 9.8125 72.90625 
L 30.078125 72.90625 
Q 51.265625 72.90625 61.171875 64.09375 
Q 71.09375 55.28125 71.09375 36.53125 
Q 71.09375 17.671875 61.125 8.828125 
Q 51.171875 0 30.078125 0 
L 9.8125 0 
z
" id="DejaVuSans-68"/>
     </defs>
     <use xlink:href="#DejaVuSans-98"/>
     <use x="63.476562" xlink:href="#DejaVuSans-98"/>
     <use x="126.953125" xlink:href="#DejaVuSans-111"/>
     <use x="188.134766" xlink:href="#DejaVuSans-98"/>
     <use x="251.611328" xlink:href="#DejaVuSans-45"/>
     <use x="287.695312" xlink:href="#DejaVuSans-99"/>
     <use x="342.675781" xlink:href="#DejaVuSans-111"/>
     <use x="403.857422" xlink:href="#DejaVuSans-110"/>
     <use x="467.236328" xlink:href="#DejaVuSans-115"/>
     <use x="519.335938" xlink:href="#DejaVuSans-116"/>
     <use x="558.544922" xlink:href="#DejaVuSans-114"/>
     <use x="599.658203" xlink:href="#DejaVuSans-97"/>
     <use x="660.9375" xlink:href="#DejaVuSans-105"/>
     <use x="688.720703" xlink:href="#DejaVuSans-110"/>
     <use x="752.099609" xlink:href="#DejaVuSans-101"/>
     <use x="813.623047" xlink:href="#DejaVuSans-100"/>
     <use x="877.099609" xlink:href="#DejaVuSans-32"/>
     <use x="908.886719" xlink:href="#DejaVuSans-102"/>
     <use x="944.091797" xlink:href="#DejaVuSans-53"/>
     <use x="1007.714844" xlink:href="#DejaVuSans-49"/>
     <use x="1071.337891" xlink:href="#DejaVuSans-44"/>
     <use x="1103.125" xlink:href="#DejaVuSans-32"/>
     <use x="1134.912109" xlink:href="#DejaVuSans-51"/>
     <use x="1198.535156" xlink:href="#DejaVuSans-45"/>
     <use x="1234.619141" xlink:href="#DejaVuSans-68"/>
    </g>
    <!-- 41 targets: 100..1e-06 -->
    <g transform="translate(60.632064 49.533135)scale(0.102 -0.102)">
     <defs>
      <path d="M 11.71875 12.40625 
L 22.015625 12.40625 
L 22.015625 0 
L 11.71875 0 
z
M 11.71875 51.703125 
L 22.015625 51.703125 
L 22.015625 39.3125 
L 11.71875 39.3125 
z
" id="DejaVuSans-58"/>
     </defs>
     <use xlink:href="#DejaVuSans-52"/>
     <use x="63.623047" xlink:href="#DejaVuSans-49"/>
     <use x="127.246094" xlink:href="#DejaVuSans-32"/>
     <use x="159.033203" xlink:href="#DejaVuSans-116"/>
     <use x="198.242188" xlink:href="#DejaVuSans-97"/>
     <use x="259.521484" xlink:href="#DejaVuSans-114"/>
     <use x="298.884766" xlink:href="#DejaVuSans-103"/>
     <use x="362.361328" xlink:href="#DejaVuSans-101"/>
     <use x="423.884766" xlink:href="#DejaVuSans-116"/>
     <use x="463.09375" xlink:href="#DejaVuSans-115"/>
     <use x="515.193359" xlink:href="#DejaVuSans-58"/>
     <use x="548.884766" xlink:href="#DejaVuSans-32"/>
     <use x="580.671875" xlink:href="#DejaVuSans-49"/>
     <use x="644.294922" xlink:href="#DejaVuSans-48"/>
     <use x="707.917969" xlink:href="#DejaVuSans-48"/>
     <use x="771.541016" xlink:href="#DejaVuSans-46"/>
     <use x="803.328125" xlink:href="#DejaVuSans-46"/>
     <use x="835.115234" xlink:href="#DejaVuSans-49"/>
     <use x="898.738281" xlink:href="#DejaVuSans-101"/>
     <use x="960.261719" xlink:href="#DejaVuSans-45"/>
     <use x="996.345703" xlink:href="#DejaVuSans-48"/>
     <use x="1059.96875" xlink:href="#DejaVuSans-54"/>
    </g>
    <!-- evals = f-evals + g-evals -->
    <g transform="translate(60.632064 60.954904)scale(0.102 -0.102)">
     <defs>
      <path d="M 10.59375 45.40625 
L 73.1875 45.40625 
L 73.1875 37.203125 
L 10.59375 37.203125 
z
M 10.59375 25.484375 
L 73.1875 25.484375 
L 73.1875 17.1875 
L 10.59375 17.1875 
z
" id="DejaVuSans-61"/>
      <path d="M 46 62.703125 
L 46 35.5 
L 73.1875 35.5 
L 73.1875 27.203125 
L 46 27.203125 
L 46 0 
L 37.796875 0 
L 37.796875 27.203125 
L 10.59375 27.203125 
L 10.59375 35.5 
L 37.796875 35.5 
L 37.796875 62.703125 
z
" id="DejaVuSans-43"/>
     </defs>
     <use xlink:href="#DejaVuSans-101"/>
     <use x="61.523438" xlink:href="#DejaVuSans-118"/>
     <use x="120.703125" xlink:href="#DejaVuSans-97"/>
     <use x="181.982422" xlink:href="#DejaVuSans-108"/>
     <use x="209.765625" xlink:href="#DejaVuSans-115"/>
     <use x="261.865234" xlink:href="#DejaVuSans-32"/>
     <use x="293.652344" xlink:href="#DejaVuSans-61"/>
     <use x="377.441406" xlink:href="#DejaVuSans-32"/>
     <use x="409.228516" xlink:href="#DejaVuSans-102"/>
     <use x="438.933594" xlink:href="#DejaVuSans-45"/>
     <use x="475.017578" xlink:href="#DejaVuSans-101"/>
     <use x="536.541016" xlink:href="#DejaVuSans-118"/>
     <use x="595.720703" xlink:href="#DejaVuSans-97"/>
     <use x="657" xlink:href="#DejaVuSans-108"/>
     <use x="684.783203" xlink:href="#DejaVuSans-115"/>
     <use x="736.882812" xlink:href="#DejaVuSans-32"/>
     <use x="768.669922" xlink:href="#DejaVuSans-43"/>
     <use x="852.458984" xlink:href="#DejaVuSans-32"/>
     <use x="884.246094" xlink:href="#DejaVuSans-103"/>
     <use x="947.722656" xlink:href="#DejaVuSans-45"/>
     <use x="983.806641" xlink:href="#DejaVuSans-101"/>
     <use x="1045.330078" xlink:href="#DejaVuSans-118"/>
     <use x="1104.509766" xlink:href="#DejaVuSans-97"/>
     <use x="1165.789062" xlink:href="#DejaVuSans-108"/>
     <use x="1193.572266" xlink:href="#DejaVuSans-115"/>
    </g>
    <!-- 15 instances -->
    <g transform="translate(60.632064 72.376672)scale(0.102 -0.102)">
     <use xlink:href="#DejaVuSans-49"/>
     <use x="63.623047" xlink:href="#DejaVuSans-53"/>
     <use x="127.246094" xlink:href="#DejaVuSans-32"/>
     <use x="159.033203" xlink:href="#DejaVuSans-105"/>
     <use x="186.816406" xlink:href="#DejaVuSans-110"/>
     <use x="250.195312" xlink:href="#DejaVuSans-115"/>
     <use x="302.294922" xlink:href="#DejaVuSans-116"/>
     <use x="341.503906" xlink:href="#DejaVuSans-97"/>
     <use x="402.783203" xlink:href="#DejaVuSans-110"/>
     <use x="466.162109" xlink:href="#DejaVuSans-99"/>
     <use x="521.142578" xlink:href="#DejaVuSans-101"/>
     <use x="582.666016" xlink:href="#DejaVuSans-115"/>
    </g>
   </g>
   <g id="text_18">
    <!-- v2.4.152 -->
    <g style="fill:#808080;" transform="translate(187.15945 294.151352)scale(0.1 -0.1)">
     <use xlink:href="#DejaVuSans-118"/>
     <use x="59.179688" xlink:href="#DejaVuSans-50"/>
     <use x="122.802734" xlink:href="#DejaVuSans-46"/>
     <use x="154.589844" xlink:href="#DejaVuSans-52"/>
     <use x="218.212891" xlink:href="#DejaVuSans-46"/>
     <use x="250" xlink:href="#DejaVuSans-49"/>
     <use x="313.623047" xlink:href="#DejaVuSans-53"/>
     <use x="377.246094" xlink:href="#DejaVuSans-50"/>
    </g>
   </g>
   <g id="text_19">
    <!-- 51 Rot. Rastrigin, m=9 -->
    <g transform="translate(95.232887 21.648)scale(0.2 -0.2)">
     <defs>
      <path d="M 44.390625 34.1875 
Q 47.5625 33.109375 50.5625 29.59375 
Q 53.5625 26.078125 56.59375 19.921875 
L 66.609375 0 
L 56 0 
L 46.6875 18.703125 
Q 43.0625 26.03125 39.671875 28.421875 
Q 36.28125 30.8125 30.421875 30.8125 
L 19.671875 30.8125 
L 19.671875 0 
L 9.8125 0 
L 9.8125 72.90625 
L 32.078125 72.90625 
Q 44.578125 72.90625 50.734375 67.671875 
Q 56.890625 62.453125 56.890625 51.90625 
Q 56.890625 45.015625 53.6875 40.46875 
Q 50.484375 35.9375 44.390625 34.1875 
z
M 19.671875 64.796875 
L 19.671875 38.921875 
L 32.078125 38.921875 
Q 39.203125 38.921875 42.84375 42.21875 
Q 46.484375 45.515625 46.484375 51.90625 
Q 46.484375 58.296875 42.84375 61.546875 
Q 39.203125 64.796875 32.078125 64.796875 
z
" id="DejaVuSans-82"/>
      <path d="M 10.984375 1.515625 
L 10.984375 10.5 
Q 14.703125 8.734375 18.5 7.8125 
Q 22.3125 6.890625 25.984375 6.890625 
Q 35.75 6.890625 40.890625 13.453125 
Q 46.046875 20.015625 46.78125 33.40625 
Q 43.953125 29.203125 39.59375 26.953125 
Q 35.25 24.703125 29.984375 24.703125 
Q 19.046875 24.703125 12.671875 31.3125 
Q 6.296875 37.9375 6.296875 49.421875 
Q 6.296875 60.640625 12.9375 67.421875 
Q 19.578125 74.21875 30.609375 74.21875 
Q 43.265625 74.21875 49.921875 64.515625 
Q 56.59375 54.828125 56.59375 36.375 
Q 56.59375 19.140625 48.40625 8.859375 
Q 40.234375 -1.421875 26.421875 -1.421875 
Q 22.703125 -1.421875 18.890625 -0.6875 
Q 15.09375 0.046875 10.984375 1.515625 
z
M 30.609375 32.421875 
Q 37.25 32.421875 41.125 36.953125 
Q 45.015625 41.5 45.015625 49.421875 
Q 45.015625 57.28125 41.125 61.84375 
Q 37.25 66.40625 30.609375 66.40625 
Q 23.96875 66.40625 20.09375 61.84375 
Q 16.21875 57.28125 16.21875 49.421875 
Q 16.21875 41.5 20.09375 36.953125 
Q 23.96875 32.421875 30.609375 32.421875 
z
" id="DejaVuSans-57"/>
     </defs>
     <use xlink:href="#DejaVuSans-53"/>
     <use x="63.623047" xlink:href="#DejaVuSans-49"/>
     <use x="127.246094" xlink:href="#DejaVuSans-32"/>
     <use x="159.033203" xlink:href="#DejaVuSans-82"/>
     <use x="224.015625" xlink:href="#DejaVuSans-111"/>
     <use x="285.197266" xlink:href="#DejaVuSans-116"/>
     <use x="324.40625" xlink:href="#DejaVuSans-46"/>
     <use x="356.193359" xlink:href="#DejaVuSans-32"/>
     <use x="387.980469" xlink:href="#DejaVuSans-82"/>
     <use x="455.212891" xlink:href="#DejaVuSans-97"/>
     <use x="516.492188" xlink:href="#DejaVuSans-115"/>
     <use x="568.591797" xlink:href="#DejaVuSans-116"/>
     <use x="607.800781" xlink:href="#DejaVuSans-114"/>
     <use x="648.914062" xlink:href="#DejaVuSans-105"/>
     <use x="676.697266" xlink:href="#DejaVuSans-103"/>
     <use x="740.173828" xlink:href="#DejaVuSans-105"/>
     <use x="767.957031" xlink:href="#DejaVuSans-110"/>
     <use x="831.335938" xlink:href="#DejaVuSans-44"/>
     <use x="863.123047" xlink:href="#DejaVuSans-32"/>
     <use x="894.910156" xlink:href="#DejaVuSans-109"/>
     <use x="992.322266" xlink:href="#DejaVuSans-61"/>
     <use x="1076.111328" xlink:href="#DejaVuSans-57"/>
    </g>
   </g>
  </g>
 </g>
 <defs>
  <clipPath id="pfa62e5a873">
   <rect height="271.296" width="303.2064" x="57.6" y="27.648"/>
  </clipPath>
 </defs>
</svg>
