<?xml version="1.0" encoding="utf-8" standalone="no"?>
<!DOCTYPE svg PUBLIC "-//W3C//DTD SVG 1.1//EN"
  "http://www.w3.org/Graphics/SVG/1.1/DTD/svg11.dtd">
<!-- Created with matplotlib (https://matplotlib.org/) -->
<svg height="345.6pt" version="1.1" viewBox="0 0 460.8 345.6" width="460.8pt" xmlns="http://www.w3.org/2000/svg" xmlns:xlink="http://www.w3.org/1999/xlink">
 <metadata>
  <rdf:RDF xmlns:cc="http://creativecommons.org/ns#" xmlns:dc="http://purl.org/dc/elements/1.1/" xmlns:rdf="http://www.w3.org/1999/02/22-rdf-syntax-ns#">
   <cc:Work>
    <dc:type rdf:resource="http://purl.org/dc/dcmitype/StillImage"/>
    <dc:date>2022-02-08T12:05:39.324128</dc:date>
    <dc:format>image/svg+xml</dc:format>
    <dc:creator>
     <cc:Agent>
      <dc:title>Matplotlib v3.3.3, https://matplotlib.org/</dc:title>
     </cc:Agent>
    </dc:creator>
   </cc:Work>
  </rdf:RDF>
 </metadata>
 <defs>
  <style type="text/css">*{stroke-linecap:butt;stroke-linejoin:round;}</style>
 </defs>
 <g id="figure_1">
  <g id="patch_1">
   <path d="M 0 345.6 
L 460.8 345.6 
L 460.8 0 
L 0 0 
z
" style="fill:#ffffff;"/>
  </g>
  <g id="axes_1">
   <g id="patch_2">
    <path d="M 57.6 298.944 
L 360.8064 298.944 
L 360.8064 27.648 
L 57.6 27.648 
z
" style="fill:#ffffff;"/>
   </g>
   <g id="matplotlib.axis_1">
    <g id="xtick_1">
     <g id="line2d_1">
      <path clip-path="url(#pc2a55de91c)" d="M 57.6 298.944 
L 57.6 27.648 
" style="fill:none;stroke:#b0b0b0;stroke-linecap:square;stroke-width:0.8;"/>
     </g>
     <g id="line2d_2">
      <defs>
       <path d="M 0 0 
L 0 3.5 
" id="m3b7dbebfcf" style="stroke:#000000;stroke-width:0.8;"/>
      </defs>
      <g>
       <use style="stroke:#000000;stroke-width:0.8;" x="57.6" xlink:href="#m3b7dbebfcf" y="298.944"/>
      </g>
     </g>
     <g id="text_1">
      <!-- 0 -->
      <g transform="translate(52.191875 318.861344)scale(0.17 -0.17)">
       <defs>
        <path d="M 31.78125 66.40625 
Q 24.171875 66.40625 20.328125 58.90625 
Q 16.5 51.421875 16.5 36.375 
Q 16.5 21.390625 20.328125 13.890625 
Q 24.171875 6.390625 31.78125 6.390625 
Q 39.453125 6.390625 43.28125 13.890625 
Q 47.125 21.390625 47.125 36.375 
Q 47.125 51.421875 43.28125 58.90625 
Q 39.453125 66.40625 31.78125 66.40625 
z
M 31.78125 74.21875 
Q 44.046875 74.21875 50.515625 64.515625 
Q 56.984375 54.828125 56.984375 36.375 
Q 56.984375 17.96875 50.515625 8.265625 
Q 44.046875 -1.421875 31.78125 -1.421875 
Q 19.53125 -1.421875 13.0625 8.265625 
Q 6.59375 17.96875 6.59375 36.375 
Q 6.59375 54.828125 13.0625 64.515625 
Q 19.53125 74.21875 31.78125 74.21875 
z
" id="DejaVuSans-48"/>
       </defs>
       <use xlink:href="#DejaVuSans-48"/>
      </g>
     </g>
    </g>
    <g id="xtick_2">
     <g id="line2d_3">
      <path clip-path="url(#pc2a55de91c)" d="M 144.2304 298.944 
L 144.2304 27.648 
" style="fill:none;stroke:#b0b0b0;stroke-linecap:square;stroke-width:0.8;"/>
     </g>
     <g id="line2d_4">
      <g>
       <use style="stroke:#000000;stroke-width:0.8;" x="144.2304" xlink:href="#m3b7dbebfcf" y="298.944"/>
      </g>
     </g>
     <g id="text_2">
      <!-- 2 -->
      <g transform="translate(138.822275 318.861344)scale(0.17 -0.17)">
       <defs>
        <path d="M 19.1875 8.296875 
L 53.609375 8.296875 
L 53.609375 0 
L 7.328125 0 
L 7.328125 8.296875 
Q 12.9375 14.109375 22.625 23.890625 
Q 32.328125 33.6875 34.8125 36.53125 
Q 39.546875 41.84375 41.421875 45.53125 
Q 43.3125 49.21875 43.3125 52.78125 
Q 43.3125 58.59375 39.234375 62.25 
Q 35.15625 65.921875 28.609375 65.921875 
Q 23.96875 65.921875 18.8125 64.3125 
Q 13.671875 62.703125 7.8125 59.421875 
L 7.8125 69.390625 
Q 13.765625 71.78125 18.9375 73 
Q 24.125 74.21875 28.421875 74.21875 
Q 39.75 74.21875 46.484375 68.546875 
Q 53.21875 62.890625 53.21875 53.421875 
Q 53.21875 48.921875 51.53125 44.890625 
Q 49.859375 40.875 45.40625 35.40625 
Q 44.1875 33.984375 37.640625 27.21875 
Q 31.109375 20.453125 19.1875 8.296875 
z
" id="DejaVuSans-50"/>
       </defs>
       <use xlink:href="#DejaVuSans-50"/>
      </g>
     </g>
    </g>
    <g id="xtick_3">
     <g id="line2d_5">
      <path clip-path="url(#pc2a55de91c)" d="M 230.8608 298.944 
L 230.8608 27.648 
" style="fill:none;stroke:#b0b0b0;stroke-linecap:square;stroke-width:0.8;"/>
     </g>
     <g id="line2d_6">
      <g>
       <use style="stroke:#000000;stroke-width:0.8;" x="230.8608" xlink:href="#m3b7dbebfcf" y="298.944"/>
      </g>
     </g>
     <g id="text_3">
      <!-- 4 -->
      <g transform="translate(225.452675 318.861344)scale(0.17 -0.17)">
       <defs>
        <path d="M 37.796875 64.3125 
L 12.890625 25.390625 
L 37.796875 25.390625 
z
M 35.203125 72.90625 
L 47.609375 72.90625 
L 47.609375 25.390625 
L 58.015625 25.390625 
L 58.015625 17.1875 
L 47.609375 17.1875 
L 47.609375 0 
L 37.796875 0 
L 37.796875 17.1875 
L 4.890625 17.1875 
L 4.890625 26.703125 
z
" id="DejaVuSans-52"/>
       </defs>
       <use xlink:href="#DejaVuSans-52"/>
      </g>
     </g>
    </g>
    <g id="xtick_4">
     <g id="line2d_7">
      <path clip-path="url(#pc2a55de91c)" d="M 317.4912 298.944 
L 317.4912 27.648 
" style="fill:none;stroke:#b0b0b0;stroke-linecap:square;stroke-width:0.8;"/>
     </g>
     <g id="line2d_8">
      <g>
       <use style="stroke:#000000;stroke-width:0.8;" x="317.4912" xlink:href="#m3b7dbebfcf" y="298.944"/>
      </g>
     </g>
     <g id="text_4">
      <!-- 6 -->
      <g transform="translate(312.083075 318.861344)scale(0.17 -0.17)">
       <defs>
        <path d="M 33.015625 40.375 
Q 26.375 40.375 22.484375 35.828125 
Q 18.609375 31.296875 18.609375 23.390625 
Q 18.609375 15.53125 22.484375 10.953125 
Q 26.375 6.390625 33.015625 6.390625 
Q 39.65625 6.390625 43.53125 10.953125 
Q 47.40625 15.53125 47.40625 23.390625 
Q 47.40625 31.296875 43.53125 35.828125 
Q 39.65625 40.375 33.015625 40.375 
z
M 52.59375 71.296875 
L 52.59375 62.3125 
Q 48.875 64.0625 45.09375 64.984375 
Q 41.3125 65.921875 37.59375 65.921875 
Q 27.828125 65.921875 22.671875 59.328125 
Q 17.53125 52.734375 16.796875 39.40625 
Q 19.671875 43.65625 24.015625 45.921875 
Q 28.375 48.1875 33.59375 48.1875 
Q 44.578125 48.1875 50.953125 41.515625 
Q 57.328125 34.859375 57.328125 23.390625 
Q 57.328125 12.15625 50.6875 5.359375 
Q 44.046875 -1.421875 33.015625 -1.421875 
Q 20.359375 -1.421875 13.671875 8.265625 
Q 6.984375 17.96875 6.984375 36.375 
Q 6.984375 53.65625 15.1875 63.9375 
Q 23.390625 74.21875 37.203125 74.21875 
Q 40.921875 74.21875 44.703125 73.484375 
Q 48.484375 72.75 52.59375 71.296875 
z
" id="DejaVuSans-54"/>
       </defs>
       <use xlink:href="#DejaVuSans-54"/>
      </g>
     </g>
    </g>
    <g id="xtick_5">
     <g id="line2d_9">
      <path clip-path="url(#pc2a55de91c)" d="M 100.9152 298.944 
L 100.9152 27.648 
" style="fill:none;stroke:#b0b0b0;stroke-linecap:square;stroke-width:0.8;"/>
     </g>
     <g id="line2d_10">
      <defs>
       <path d="M 0 0 
L 0 2 
" id="m44016c72fe" style="stroke:#000000;stroke-width:0.6;"/>
      </defs>
      <g>
       <use style="stroke:#000000;stroke-width:0.6;" x="100.9152" xlink:href="#m44016c72fe" y="298.944"/>
      </g>
     </g>
    </g>
    <g id="xtick_6">
     <g id="line2d_11">
      <path clip-path="url(#pc2a55de91c)" d="M 187.5456 298.944 
L 187.5456 27.648 
" style="fill:none;stroke:#b0b0b0;stroke-linecap:square;stroke-width:0.8;"/>
     </g>
     <g id="line2d_12">
      <g>
       <use style="stroke:#000000;stroke-width:0.6;" x="187.5456" xlink:href="#m44016c72fe" y="298.944"/>
      </g>
     </g>
    </g>
    <g id="xtick_7">
     <g id="line2d_13">
      <path clip-path="url(#pc2a55de91c)" d="M 274.176 298.944 
L 274.176 27.648 
" style="fill:none;stroke:#b0b0b0;stroke-linecap:square;stroke-width:0.8;"/>
     </g>
     <g id="line2d_14">
      <g>
       <use style="stroke:#000000;stroke-width:0.6;" x="274.176" xlink:href="#m44016c72fe" y="298.944"/>
      </g>
     </g>
    </g>
    <g id="xtick_8">
     <g id="line2d_15">
      <path clip-path="url(#pc2a55de91c)" d="M 360.8064 298.944 
L 360.8064 27.648 
" style="fill:none;stroke:#b0b0b0;stroke-linecap:square;stroke-width:0.8;"/>
     </g>
     <g id="line2d_16">
      <g>
       <use style="stroke:#000000;stroke-width:0.6;" x="360.8064" xlink:href="#m44016c72fe" y="298.944"/>
      </g>
     </g>
    </g>
    <g id="text_5">
     <!-- log10(evals / dimension) -->
     <g transform="translate(104.238825 339.314156)scale(0.17 -0.17)">
      <defs>
       <path d="M 9.421875 75.984375 
L 18.40625 75.984375 
L 18.40625 0 
L 9.421875 0 
z
" id="DejaVuSans-108"/>
       <path d="M 30.609375 48.390625 
Q 23.390625 48.390625 19.1875 42.75 
Q 14.984375 37.109375 14.984375 27.296875 
Q 14.984375 17.484375 19.15625 11.84375 
Q 23.34375 6.203125 30.609375 6.203125 
Q 37.796875 6.203125 41.984375 11.859375 
Q 46.1875 17.53125 46.1875 27.296875 
Q 46.1875 37.015625 41.984375 42.703125 
Q 37.796875 48.390625 30.609375 48.390625 
z
M 30.609375 56 
Q 42.328125 56 49.015625 48.375 
Q 55.71875 40.765625 55.71875 27.296875 
Q 55.71875 13.875 49.015625 6.21875 
Q 42.328125 -1.421875 30.609375 -1.421875 
Q 18.84375 -1.421875 12.171875 6.21875 
Q 5.515625 13.875 5.515625 27.296875 
Q 5.515625 40.765625 12.171875 48.375 
Q 18.84375 56 30.609375 56 
z
" id="DejaVuSans-111"/>
       <path d="M 45.40625 27.984375 
Q 45.40625 37.75 41.375 43.109375 
Q 37.359375 48.484375 30.078125 48.484375 
Q 22.859375 48.484375 18.828125 43.109375 
Q 14.796875 37.75 14.796875 27.984375 
Q 14.796875 18.265625 18.828125 12.890625 
Q 22.859375 7.515625 30.078125 7.515625 
Q 37.359375 7.515625 41.375 12.890625 
Q 45.40625 18.265625 45.40625 27.984375 
z
M 54.390625 6.78125 
Q 54.390625 -7.171875 48.1875 -13.984375 
Q 42 -20.796875 29.203125 -20.796875 
Q 24.46875 -20.796875 20.265625 -20.09375 
Q 16.0625 -19.390625 12.109375 -17.921875 
L 12.109375 -9.1875 
Q 16.0625 -11.328125 19.921875 -12.34375 
Q 23.78125 -13.375 27.78125 -13.375 
Q 36.625 -13.375 41.015625 -8.765625 
Q 45.40625 -4.15625 45.40625 5.171875 
L 45.40625 9.625 
Q 42.625 4.78125 38.28125 2.390625 
Q 33.9375 0 27.875 0 
Q 17.828125 0 11.671875 7.65625 
Q 5.515625 15.328125 5.515625 27.984375 
Q 5.515625 40.671875 11.671875 48.328125 
Q 17.828125 56 27.875 56 
Q 33.9375 56 38.28125 53.609375 
Q 42.625 51.21875 45.40625 46.390625 
L 45.40625 54.6875 
L 54.390625 54.6875 
z
" id="DejaVuSans-103"/>
       <path d="M 12.40625 8.296875 
L 28.515625 8.296875 
L 28.515625 63.921875 
L 10.984375 60.40625 
L 10.984375 69.390625 
L 28.421875 72.90625 
L 38.28125 72.90625 
L 38.28125 8.296875 
L 54.390625 8.296875 
L 54.390625 0 
L 12.40625 0 
z
" id="DejaVuSans-49"/>
       <path d="M 31 75.875 
Q 24.46875 64.65625 21.28125 53.65625 
Q 18.109375 42.671875 18.109375 31.390625 
Q 18.109375 20.125 21.3125 9.0625 
Q 24.515625 -2 31 -13.1875 
L 23.1875 -13.1875 
Q 15.875 -1.703125 12.234375 9.375 
Q 8.59375 20.453125 8.59375 31.390625 
Q 8.59375 42.28125 12.203125 53.3125 
Q 15.828125 64.359375 23.1875 75.875 
z
" id="DejaVuSans-40"/>
       <path d="M 56.203125 29.59375 
L 56.203125 25.203125 
L 14.890625 25.203125 
Q 15.484375 15.921875 20.484375 11.0625 
Q 25.484375 6.203125 34.421875 6.203125 
Q 39.59375 6.203125 44.453125 7.46875 
Q 49.3125 8.734375 54.109375 11.28125 
L 54.109375 2.78125 
Q 49.265625 0.734375 44.1875 -0.34375 
Q 39.109375 -1.421875 33.890625 -1.421875 
Q 20.796875 -1.421875 13.15625 6.1875 
Q 5.515625 13.8125 5.515625 26.8125 
Q 5.515625 40.234375 12.765625 48.109375 
Q 20.015625 56 32.328125 56 
Q 43.359375 56 49.78125 48.890625 
Q 56.203125 41.796875 56.203125 29.59375 
z
M 47.21875 32.234375 
Q 47.125 39.59375 43.09375 43.984375 
Q 39.0625 48.390625 32.421875 48.390625 
Q 24.90625 48.390625 20.390625 44.140625 
Q 15.875 39.890625 15.1875 32.171875 
z
" id="DejaVuSans-101"/>
       <path d="M 2.984375 54.6875 
L 12.5 54.6875 
L 29.59375 8.796875 
L 46.6875 54.6875 
L 56.203125 54.6875 
L 35.6875 0 
L 23.484375 0 
z
" id="DejaVuSans-118"/>
       <path d="M 34.28125 27.484375 
Q 23.390625 27.484375 19.1875 25 
Q 14.984375 22.515625 14.984375 16.5 
Q 14.984375 11.71875 18.140625 8.90625 
Q 21.296875 6.109375 26.703125 6.109375 
Q 34.1875 6.109375 38.703125 11.40625 
Q 43.21875 16.703125 43.21875 25.484375 
L 43.21875 27.484375 
z
M 52.203125 31.203125 
L 52.203125 0 
L 43.21875 0 
L 43.21875 8.296875 
Q 40.140625 3.328125 35.546875 0.953125 
Q 30.953125 -1.421875 24.3125 -1.421875 
Q 15.921875 -1.421875 10.953125 3.296875 
Q 6 8.015625 6 15.921875 
Q 6 25.140625 12.171875 29.828125 
Q 18.359375 34.515625 30.609375 34.515625 
L 43.21875 34.515625 
L 43.21875 35.40625 
Q 43.21875 41.609375 39.140625 45 
Q 35.0625 48.390625 27.6875 48.390625 
Q 23 48.390625 18.546875 47.265625 
Q 14.109375 46.140625 10.015625 43.890625 
L 10.015625 52.203125 
Q 14.9375 54.109375 19.578125 55.046875 
Q 24.21875 56 28.609375 56 
Q 40.484375 56 46.34375 49.84375 
Q 52.203125 43.703125 52.203125 31.203125 
z
" id="DejaVuSans-97"/>
       <path d="M 44.28125 53.078125 
L 44.28125 44.578125 
Q 40.484375 46.53125 36.375 47.5 
Q 32.28125 48.484375 27.875 48.484375 
Q 21.1875 48.484375 17.84375 46.4375 
Q 14.5 44.390625 14.5 40.28125 
Q 14.5 37.15625 16.890625 35.375 
Q 19.28125 33.59375 26.515625 31.984375 
L 29.59375 31.296875 
Q 39.15625 29.25 43.1875 25.515625 
Q 47.21875 21.78125 47.21875 15.09375 
Q 47.21875 7.46875 41.1875 3.015625 
Q 35.15625 -1.421875 24.609375 -1.421875 
Q 20.21875 -1.421875 15.453125 -0.5625 
Q 10.6875 0.296875 5.421875 2 
L 5.421875 11.28125 
Q 10.40625 8.6875 15.234375 7.390625 
Q 20.0625 6.109375 24.8125 6.109375 
Q 31.15625 6.109375 34.5625 8.28125 
Q 37.984375 10.453125 37.984375 14.40625 
Q 37.984375 18.0625 35.515625 20.015625 
Q 33.0625 21.96875 24.703125 23.78125 
L 21.578125 24.515625 
Q 13.234375 26.265625 9.515625 29.90625 
Q 5.8125 33.546875 5.8125 39.890625 
Q 5.8125 47.609375 11.28125 51.796875 
Q 16.75 56 26.8125 56 
Q 31.78125 56 36.171875 55.265625 
Q 40.578125 54.546875 44.28125 53.078125 
z
" id="DejaVuSans-115"/>
       <path id="DejaVuSans-32"/>
       <path d="M 25.390625 72.90625 
L 33.6875 72.90625 
L 8.296875 -9.28125 
L 0 -9.28125 
z
" id="DejaVuSans-47"/>
       <path d="M 45.40625 46.390625 
L 45.40625 75.984375 
L 54.390625 75.984375 
L 54.390625 0 
L 45.40625 0 
L 45.40625 8.203125 
Q 42.578125 3.328125 38.25 0.953125 
Q 33.9375 -1.421875 27.875 -1.421875 
Q 17.96875 -1.421875 11.734375 6.484375 
Q 5.515625 14.40625 5.515625 27.296875 
Q 5.515625 40.1875 11.734375 48.09375 
Q 17.96875 56 27.875 56 
Q 33.9375 56 38.25 53.625 
Q 42.578125 51.265625 45.40625 46.390625 
z
M 14.796875 27.296875 
Q 14.796875 17.390625 18.875 11.75 
Q 22.953125 6.109375 30.078125 6.109375 
Q 37.203125 6.109375 41.296875 11.75 
Q 45.40625 17.390625 45.40625 27.296875 
Q 45.40625 37.203125 41.296875 42.84375 
Q 37.203125 48.484375 30.078125 48.484375 
Q 22.953125 48.484375 18.875 42.84375 
Q 14.796875 37.203125 14.796875 27.296875 
z
" id="DejaVuSans-100"/>
       <path d="M 9.421875 54.6875 
L 18.40625 54.6875 
L 18.40625 0 
L 9.421875 0 
z
M 9.421875 75.984375 
L 18.40625 75.984375 
L 18.40625 64.59375 
L 9.421875 64.59375 
z
" id="DejaVuSans-105"/>
       <path d="M 52 44.1875 
Q 55.375 50.25 60.0625 53.125 
Q 64.75 56 71.09375 56 
Q 79.640625 56 84.28125 50.015625 
Q 88.921875 44.046875 88.921875 33.015625 
L 88.921875 0 
L 79.890625 0 
L 79.890625 32.71875 
Q 79.890625 40.578125 77.09375 44.375 
Q 74.3125 48.1875 68.609375 48.1875 
Q 61.625 48.1875 57.5625 43.546875 
Q 53.515625 38.921875 53.515625 30.90625 
L 53.515625 0 
L 44.484375 0 
L 44.484375 32.71875 
Q 44.484375 40.625 41.703125 44.40625 
Q 38.921875 48.1875 33.109375 48.1875 
Q 26.21875 48.1875 22.15625 43.53125 
Q 18.109375 38.875 18.109375 30.90625 
L 18.109375 0 
L 9.078125 0 
L 9.078125 54.6875 
L 18.109375 54.6875 
L 18.109375 46.1875 
Q 21.1875 51.21875 25.484375 53.609375 
Q 29.78125 56 35.6875 56 
Q 41.65625 56 45.828125 52.96875 
Q 50 49.953125 52 44.1875 
z
" id="DejaVuSans-109"/>
       <path d="M 54.890625 33.015625 
L 54.890625 0 
L 45.90625 0 
L 45.90625 32.71875 
Q 45.90625 40.484375 42.875 44.328125 
Q 39.84375 48.1875 33.796875 48.1875 
Q 26.515625 48.1875 22.3125 43.546875 
Q 18.109375 38.921875 18.109375 30.90625 
L 18.109375 0 
L 9.078125 0 
L 9.078125 54.6875 
L 18.109375 54.6875 
L 18.109375 46.1875 
Q 21.34375 51.125 25.703125 53.5625 
Q 30.078125 56 35.796875 56 
Q 45.21875 56 50.046875 50.171875 
Q 54.890625 44.34375 54.890625 33.015625 
z
" id="DejaVuSans-110"/>
       <path d="M 8.015625 75.875 
L 15.828125 75.875 
Q 23.140625 64.359375 26.78125 53.3125 
Q 30.421875 42.28125 30.421875 31.390625 
Q 30.421875 20.453125 26.78125 9.375 
Q 23.140625 -1.703125 15.828125 -13.1875 
L 8.015625 -13.1875 
Q 14.5 -2 17.703125 9.0625 
Q 20.90625 20.125 20.90625 31.390625 
Q 20.90625 42.671875 17.703125 53.65625 
Q 14.5 64.65625 8.015625 75.875 
z
" id="DejaVuSans-41"/>
      </defs>
      <use xlink:href="#DejaVuSans-108"/>
      <use x="27.783203" xlink:href="#DejaVuSans-111"/>
      <use x="88.964844" xlink:href="#DejaVuSans-103"/>
      <use x="152.441406" xlink:href="#DejaVuSans-49"/>
      <use x="216.064453" xlink:href="#DejaVuSans-48"/>
      <use x="279.6875" xlink:href="#DejaVuSans-40"/>
      <use x="318.701172" xlink:href="#DejaVuSans-101"/>
      <use x="380.224609" xlink:href="#DejaVuSans-118"/>
      <use x="439.404297" xlink:href="#DejaVuSans-97"/>
      <use x="500.683594" xlink:href="#DejaVuSans-108"/>
      <use x="528.466797" xlink:href="#DejaVuSans-115"/>
      <use x="580.566406" xlink:href="#DejaVuSans-32"/>
      <use x="612.353516" xlink:href="#DejaVuSans-47"/>
      <use x="646.044922" xlink:href="#DejaVuSans-32"/>
      <use x="677.832031" xlink:href="#DejaVuSans-100"/>
      <use x="741.308594" xlink:href="#DejaVuSans-105"/>
      <use x="769.091797" xlink:href="#DejaVuSans-109"/>
      <use x="866.503906" xlink:href="#DejaVuSans-101"/>
      <use x="928.027344" xlink:href="#DejaVuSans-110"/>
      <use x="991.40625" xlink:href="#DejaVuSans-115"/>
      <use x="1043.505859" xlink:href="#DejaVuSans-105"/>
      <use x="1071.289062" xlink:href="#DejaVuSans-111"/>
      <use x="1132.470703" xlink:href="#DejaVuSans-110"/>
      <use x="1195.849609" xlink:href="#DejaVuSans-41"/>
     </g>
    </g>
   </g>
   <g id="matplotlib.axis_2">
    <g id="ytick_1">
     <g id="line2d_17">
      <path clip-path="url(#pc2a55de91c)" d="M 57.6 298.944 
L 360.8064 298.944 
" style="fill:none;stroke:#b0b0b0;stroke-linecap:square;stroke-width:0.8;"/>
     </g>
     <g id="line2d_18">
      <defs>
       <path d="M 0 0 
L -3.5 0 
" id="m9ad21f60f1" style="stroke:#000000;stroke-width:0.8;"/>
      </defs>
      <g>
       <use style="stroke:#000000;stroke-width:0.8;" x="57.6" xlink:href="#m9ad21f60f1" y="298.944"/>
      </g>
     </g>
     <g id="text_6">
      <!-- 0.0 -->
      <g transform="translate(25.155 305.02275)scale(0.16 -0.16)">
       <defs>
        <path d="M 10.6875 12.40625 
L 21 12.40625 
L 21 0 
L 10.6875 0 
z
" id="DejaVuSans-46"/>
       </defs>
       <use xlink:href="#DejaVuSans-48"/>
       <use x="63.623047" xlink:href="#DejaVuSans-46"/>
       <use x="95.410156" xlink:href="#DejaVuSans-48"/>
      </g>
     </g>
    </g>
    <g id="ytick_2">
     <g id="line2d_19">
      <path clip-path="url(#pc2a55de91c)" d="M 57.6 244.6848 
L 360.8064 244.6848 
" style="fill:none;stroke:#b0b0b0;stroke-linecap:square;stroke-width:0.8;"/>
     </g>
     <g id="line2d_20">
      <g>
       <use style="stroke:#000000;stroke-width:0.8;" x="57.6" xlink:href="#m9ad21f60f1" y="244.6848"/>
      </g>
     </g>
     <g id="text_7">
      <!-- 0.2 -->
      <g transform="translate(25.155 250.76355)scale(0.16 -0.16)">
       <use xlink:href="#DejaVuSans-48"/>
       <use x="63.623047" xlink:href="#DejaVuSans-46"/>
       <use x="95.410156" xlink:href="#DejaVuSans-50"/>
      </g>
     </g>
    </g>
    <g id="ytick_3">
     <g id="line2d_21">
      <path clip-path="url(#pc2a55de91c)" d="M 57.6 190.4256 
L 360.8064 190.4256 
" style="fill:none;stroke:#b0b0b0;stroke-linecap:square;stroke-width:0.8;"/>
     </g>
     <g id="line2d_22">
      <g>
       <use style="stroke:#000000;stroke-width:0.8;" x="57.6" xlink:href="#m9ad21f60f1" y="190.4256"/>
      </g>
     </g>
     <g id="text_8">
      <!-- 0.4 -->
      <g transform="translate(25.155 196.50435)scale(0.16 -0.16)">
       <use xlink:href="#DejaVuSans-48"/>
       <use x="63.623047" xlink:href="#DejaVuSans-46"/>
       <use x="95.410156" xlink:href="#DejaVuSans-52"/>
      </g>
     </g>
    </g>
    <g id="ytick_4">
     <g id="line2d_23">
      <path clip-path="url(#pc2a55de91c)" d="M 57.6 136.1664 
L 360.8064 136.1664 
" style="fill:none;stroke:#b0b0b0;stroke-linecap:square;stroke-width:0.8;"/>
     </g>
     <g id="line2d_24">
      <g>
       <use style="stroke:#000000;stroke-width:0.8;" x="57.6" xlink:href="#m9ad21f60f1" y="136.1664"/>
      </g>
     </g>
     <g id="text_9">
      <!-- 0.6 -->
      <g transform="translate(25.155 142.24515)scale(0.16 -0.16)">
       <use xlink:href="#DejaVuSans-48"/>
       <use x="63.623047" xlink:href="#DejaVuSans-46"/>
       <use x="95.410156" xlink:href="#DejaVuSans-54"/>
      </g>
     </g>
    </g>
    <g id="ytick_5">
     <g id="line2d_25">
      <path clip-path="url(#pc2a55de91c)" d="M 57.6 81.9072 
L 360.8064 81.9072 
" style="fill:none;stroke:#b0b0b0;stroke-linecap:square;stroke-width:0.8;"/>
     </g>
     <g id="line2d_26">
      <g>
       <use style="stroke:#000000;stroke-width:0.8;" x="57.6" xlink:href="#m9ad21f60f1" y="81.9072"/>
      </g>
     </g>
     <g id="text_10">
      <!-- 0.8 -->
      <g transform="translate(25.155 87.98595)scale(0.16 -0.16)">
       <defs>
        <path d="M 31.78125 34.625 
Q 24.75 34.625 20.71875 30.859375 
Q 16.703125 27.09375 16.703125 20.515625 
Q 16.703125 13.921875 20.71875 10.15625 
Q 24.75 6.390625 31.78125 6.390625 
Q 38.8125 6.390625 42.859375 10.171875 
Q 46.921875 13.96875 46.921875 20.515625 
Q 46.921875 27.09375 42.890625 30.859375 
Q 38.875 34.625 31.78125 34.625 
z
M 21.921875 38.8125 
Q 15.578125 40.375 12.03125 44.71875 
Q 8.5 49.078125 8.5 55.328125 
Q 8.5 64.0625 14.71875 69.140625 
Q 20.953125 74.21875 31.78125 74.21875 
Q 42.671875 74.21875 48.875 69.140625 
Q 55.078125 64.0625 55.078125 55.328125 
Q 55.078125 49.078125 51.53125 44.71875 
Q 48 40.375 41.703125 38.8125 
Q 48.828125 37.15625 52.796875 32.3125 
Q 56.78125 27.484375 56.78125 20.515625 
Q 56.78125 9.90625 50.3125 4.234375 
Q 43.84375 -1.421875 31.78125 -1.421875 
Q 19.734375 -1.421875 13.25 4.234375 
Q 6.78125 9.90625 6.78125 20.515625 
Q 6.78125 27.484375 10.78125 32.3125 
Q 14.796875 37.15625 21.921875 38.8125 
z
M 18.3125 54.390625 
Q 18.3125 48.734375 21.84375 45.5625 
Q 25.390625 42.390625 31.78125 42.390625 
Q 38.140625 42.390625 41.71875 45.5625 
Q 45.3125 48.734375 45.3125 54.390625 
Q 45.3125 60.0625 41.71875 63.234375 
Q 38.140625 66.40625 31.78125 66.40625 
Q 25.390625 66.40625 21.84375 63.234375 
Q 18.3125 60.0625 18.3125 54.390625 
z
" id="DejaVuSans-56"/>
       </defs>
       <use xlink:href="#DejaVuSans-48"/>
       <use x="63.623047" xlink:href="#DejaVuSans-46"/>
       <use x="95.410156" xlink:href="#DejaVuSans-56"/>
      </g>
     </g>
    </g>
    <g id="ytick_6">
     <g id="line2d_27">
      <path clip-path="url(#pc2a55de91c)" d="M 57.6 27.648 
L 360.8064 27.648 
" style="fill:none;stroke:#b0b0b0;stroke-linecap:square;stroke-width:0.8;"/>
     </g>
     <g id="line2d_28">
      <g>
       <use style="stroke:#000000;stroke-width:0.8;" x="57.6" xlink:href="#m9ad21f60f1" y="27.648"/>
      </g>
     </g>
     <g id="text_11">
      <!-- 1.0 -->
      <g transform="translate(25.155 33.72675)scale(0.16 -0.16)">
       <use xlink:href="#DejaVuSans-49"/>
       <use x="63.623047" xlink:href="#DejaVuSans-46"/>
       <use x="95.410156" xlink:href="#DejaVuSans-48"/>
      </g>
     </g>
    </g>
    <g id="text_12">
     <!-- Fraction of function,target pairs -->
     <g transform="translate(17.619531 297.681)rotate(-90)scale(0.17 -0.17)">
      <defs>
       <path d="M 9.8125 72.90625 
L 51.703125 72.90625 
L 51.703125 64.59375 
L 19.671875 64.59375 
L 19.671875 43.109375 
L 48.578125 43.109375 
L 48.578125 34.8125 
L 19.671875 34.8125 
L 19.671875 0 
L 9.8125 0 
z
" id="DejaVuSans-70"/>
       <path d="M 41.109375 46.296875 
Q 39.59375 47.171875 37.8125 47.578125 
Q 36.03125 48 33.890625 48 
Q 26.265625 48 22.1875 43.046875 
Q 18.109375 38.09375 18.109375 28.8125 
L 18.109375 0 
L 9.078125 0 
L 9.078125 54.6875 
L 18.109375 54.6875 
L 18.109375 46.1875 
Q 20.953125 51.171875 25.484375 53.578125 
Q 30.03125 56 36.53125 56 
Q 37.453125 56 38.578125 55.875 
Q 39.703125 55.765625 41.0625 55.515625 
z
" id="DejaVuSans-114"/>
       <path d="M 48.78125 52.59375 
L 48.78125 44.1875 
Q 44.96875 46.296875 41.140625 47.34375 
Q 37.3125 48.390625 33.40625 48.390625 
Q 24.65625 48.390625 19.8125 42.84375 
Q 14.984375 37.3125 14.984375 27.296875 
Q 14.984375 17.28125 19.8125 11.734375 
Q 24.65625 6.203125 33.40625 6.203125 
Q 37.3125 6.203125 41.140625 7.25 
Q 44.96875 8.296875 48.78125 10.40625 
L 48.78125 2.09375 
Q 45.015625 0.34375 40.984375 -0.53125 
Q 36.96875 -1.421875 32.421875 -1.421875 
Q 20.0625 -1.421875 12.78125 6.34375 
Q 5.515625 14.109375 5.515625 27.296875 
Q 5.515625 40.671875 12.859375 48.328125 
Q 20.21875 56 33.015625 56 
Q 37.15625 56 41.109375 55.140625 
Q 45.0625 54.296875 48.78125 52.59375 
z
" id="DejaVuSans-99"/>
       <path d="M 18.3125 70.21875 
L 18.3125 54.6875 
L 36.8125 54.6875 
L 36.8125 47.703125 
L 18.3125 47.703125 
L 18.3125 18.015625 
Q 18.3125 11.328125 20.140625 9.421875 
Q 21.96875 7.515625 27.59375 7.515625 
L 36.8125 7.515625 
L 36.8125 0 
L 27.59375 0 
Q 17.1875 0 13.234375 3.875 
Q 9.28125 7.765625 9.28125 18.015625 
L 9.28125 47.703125 
L 2.6875 47.703125 
L 2.6875 54.6875 
L 9.28125 54.6875 
L 9.28125 70.21875 
z
" id="DejaVuSans-116"/>
       <path d="M 37.109375 75.984375 
L 37.109375 68.5 
L 28.515625 68.5 
Q 23.6875 68.5 21.796875 66.546875 
Q 19.921875 64.59375 19.921875 59.515625 
L 19.921875 54.6875 
L 34.71875 54.6875 
L 34.71875 47.703125 
L 19.921875 47.703125 
L 19.921875 0 
L 10.890625 0 
L 10.890625 47.703125 
L 2.296875 47.703125 
L 2.296875 54.6875 
L 10.890625 54.6875 
L 10.890625 58.5 
Q 10.890625 67.625 15.140625 71.796875 
Q 19.390625 75.984375 28.609375 75.984375 
z
" id="DejaVuSans-102"/>
       <path d="M 8.5 21.578125 
L 8.5 54.6875 
L 17.484375 54.6875 
L 17.484375 21.921875 
Q 17.484375 14.15625 20.5 10.265625 
Q 23.53125 6.390625 29.59375 6.390625 
Q 36.859375 6.390625 41.078125 11.03125 
Q 45.3125 15.671875 45.3125 23.6875 
L 45.3125 54.6875 
L 54.296875 54.6875 
L 54.296875 0 
L 45.3125 0 
L 45.3125 8.40625 
Q 42.046875 3.421875 37.71875 1 
Q 33.40625 -1.421875 27.6875 -1.421875 
Q 18.265625 -1.421875 13.375 4.4375 
Q 8.5 10.296875 8.5 21.578125 
z
M 31.109375 56 
z
" id="DejaVuSans-117"/>
       <path d="M 11.71875 12.40625 
L 22.015625 12.40625 
L 22.015625 4 
L 14.015625 -11.625 
L 7.71875 -11.625 
L 11.71875 4 
z
" id="DejaVuSans-44"/>
       <path d="M 18.109375 8.203125 
L 18.109375 -20.796875 
L 9.078125 -20.796875 
L 9.078125 54.6875 
L 18.109375 54.6875 
L 18.109375 46.390625 
Q 20.953125 51.265625 25.265625 53.625 
Q 29.59375 56 35.59375 56 
Q 45.5625 56 51.78125 48.09375 
Q 58.015625 40.1875 58.015625 27.296875 
Q 58.015625 14.40625 51.78125 6.484375 
Q 45.5625 -1.421875 35.59375 -1.421875 
Q 29.59375 -1.421875 25.265625 0.953125 
Q 20.953125 3.328125 18.109375 8.203125 
z
M 48.6875 27.296875 
Q 48.6875 37.203125 44.609375 42.84375 
Q 40.53125 48.484375 33.40625 48.484375 
Q 26.265625 48.484375 22.1875 42.84375 
Q 18.109375 37.203125 18.109375 27.296875 
Q 18.109375 17.390625 22.1875 11.75 
Q 26.265625 6.109375 33.40625 6.109375 
Q 40.53125 6.109375 44.609375 11.75 
Q 48.6875 17.390625 48.6875 27.296875 
z
" id="DejaVuSans-112"/>
      </defs>
      <use xlink:href="#DejaVuSans-70"/>
      <use x="50.269531" xlink:href="#DejaVuSans-114"/>
      <use x="91.382812" xlink:href="#DejaVuSans-97"/>
      <use x="152.662109" xlink:href="#DejaVuSans-99"/>
      <use x="207.642578" xlink:href="#DejaVuSans-116"/>
      <use x="246.851562" xlink:href="#DejaVuSans-105"/>
      <use x="274.634766" xlink:href="#DejaVuSans-111"/>
      <use x="335.816406" xlink:href="#DejaVuSans-110"/>
      <use x="399.195312" xlink:href="#DejaVuSans-32"/>
      <use x="430.982422" xlink:href="#DejaVuSans-111"/>
      <use x="492.164062" xlink:href="#DejaVuSans-102"/>
      <use x="527.369141" xlink:href="#DejaVuSans-32"/>
      <use x="559.15625" xlink:href="#DejaVuSans-102"/>
      <use x="594.361328" xlink:href="#DejaVuSans-117"/>
      <use x="657.740234" xlink:href="#DejaVuSans-110"/>
      <use x="721.119141" xlink:href="#DejaVuSans-99"/>
      <use x="776.099609" xlink:href="#DejaVuSans-116"/>
      <use x="815.308594" xlink:href="#DejaVuSans-105"/>
      <use x="843.091797" xlink:href="#DejaVuSans-111"/>
      <use x="904.273438" xlink:href="#DejaVuSans-110"/>
      <use x="967.652344" xlink:href="#DejaVuSans-44"/>
      <use x="999.439453" xlink:href="#DejaVuSans-116"/>
      <use x="1038.648438" xlink:href="#DejaVuSans-97"/>
      <use x="1099.927734" xlink:href="#DejaVuSans-114"/>
      <use x="1139.291016" xlink:href="#DejaVuSans-103"/>
      <use x="1202.767578" xlink:href="#DejaVuSans-101"/>
      <use x="1264.291016" xlink:href="#DejaVuSans-116"/>
      <use x="1303.5" xlink:href="#DejaVuSans-32"/>
      <use x="1335.287109" xlink:href="#DejaVuSans-112"/>
      <use x="1398.763672" xlink:href="#DejaVuSans-97"/>
      <use x="1460.042969" xlink:href="#DejaVuSans-105"/>
      <use x="1487.826172" xlink:href="#DejaVuSans-114"/>
      <use x="1528.939453" xlink:href="#DejaVuSans-115"/>
     </g>
    </g>
   </g>
   <g id="line2d_29">
    <defs>
     <path d="M 0 1.5 
C 0.397805 1.5 0.77937 1.341951 1.06066 1.06066 
C 1.341951 0.77937 1.5 0.397805 1.5 0 
C 1.5 -0.397805 1.341951 -0.77937 1.06066 -1.06066 
C 0.77937 -1.341951 0.397805 -1.5 0 -1.5 
C -0.397805 -1.5 -0.77937 -1.341951 -1.06066 -1.06066 
C -1.341951 -0.77937 -1.5 -0.397805 -1.5 0 
C -1.5 0.397805 -1.341951 0.77937 -1.06066 1.06066 
C -0.77937 1.341951 -0.397805 1.5 0 1.5 
z
" id="m3db2fbea63" style="stroke:#000080;"/>
    </defs>
    <g>
     <use style="fill:#000080;stroke:#000080;" x="206.518292" xlink:href="#m3db2fbea63" y="27.648"/>
     <use style="fill:#000080;stroke:#000080;" x="206.518292" xlink:href="#m3db2fbea63" y="27.648"/>
    </g>
   </g>
   <g id="line2d_30">
    <path d="M 96.717523 298.944 
L 96.717523 298.502868 
L 98.223251 298.502868 
L 98.223251 295.856078 
L 99.617337 295.856078 
L 99.617337 291.444761 
L 100.9152 291.444761 
L 100.9152 286.592312 
L 102.12927 286.592312 
L 102.12927 283.50439 
L 103.269713 283.50439 
L 103.269713 280.8576 
L 104.344952 280.8576 
L 104.344952 278.651941 
L 105.36204 278.651941 
L 105.36204 276.005151 
L 106.326946 276.005151 
L 106.326946 262.7712 
L 107.244765 262.7712 
L 107.244765 259.242146 
L 108.119879 259.242146 
L 108.119879 257.036488 
L 108.956085 257.036488 
L 108.956085 254.830829 
L 109.756698 254.830829 
L 109.756698 251.301776 
L 110.524623 251.301776 
L 110.524623 244.6848 
L 111.262425 244.6848 
L 111.262425 235.421034 
L 112.656511 235.421034 
L 112.656511 232.774244 
L 113.316634 232.774244 
L 113.316634 227.921795 
L 113.954374 227.921795 
L 113.954374 219.540293 
L 115.168444 219.540293 
L 115.168444 214.687844 
L 115.747307 214.687844 
L 115.747307 213.364449 
L 116.308887 213.364449 
L 116.308887 212.041054 
L 116.854188 212.041054 
L 116.854188 209.835395 
L 117.384126 209.835395 
L 117.384126 208.512 
L 117.899543 208.512 
L 117.899543 197.924839 
L 118.401214 197.924839 
L 118.401214 192.190127 
L 118.889854 192.190127 
L 118.889854 188.661073 
L 119.366121 188.661073 
L 119.366121 186.896546 
L 119.830627 186.896546 
L 119.830627 184.249756 
L 120.28394 184.249756 
L 120.28394 178.073912 
L 121.159053 178.073912 
L 121.159053 176.309385 
L 121.581803 176.309385 
L 121.581803 168.810146 
L 121.99526 168.810146 
L 121.99526 167.486751 
L 122.399825 167.486751 
L 122.399825 166.163356 
L 122.795872 166.163356 
L 122.795872 163.075434 
L 123.563797 163.075434 
L 123.563797 162.634302 
L 123.936316 162.634302 
L 123.936316 159.105249 
L 124.3016 159.105249 
L 124.3016 158.664117 
L 124.659926 158.664117 
L 124.659926 155.576195 
L 125.011554 155.576195 
L 125.011554 153.370537 
L 125.35673 153.370537 
L 125.35673 151.164878 
L 126.028642 151.164878 
L 126.028642 150.723746 
L 126.355808 150.723746 
L 126.355808 149.400351 
L 126.993549 149.400351 
L 126.993549 148.95922 
L 127.304491 148.95922 
L 127.304491 146.312429 
L 127.610376 146.312429 
L 127.610376 145.430166 
L 127.911368 145.430166 
L 127.911368 143.665639 
L 129.069367 143.665639 
L 129.069367 142.783376 
L 129.893363 142.783376 
L 129.893363 141.018849 
L 130.160198 141.018849 
L 130.160198 139.695454 
L 130.4233 139.695454 
L 130.4233 138.372059 
L 131.929028 138.372059 
L 131.929028 137.489795 
L 132.405295 137.489795 
L 132.405295 136.1664 
L 133.545739 136.1664 
L 133.545739 135.284137 
L 141.896777 135.284137 
L 141.896777 133.51961 
L 142.45627 133.51961 
L 142.45627 129.549424 
L 142.999601 129.549424 
L 142.999601 128.226029 
L 143.657415 128.226029 
L 143.657415 127.343766 
L 143.786262 127.343766 
L 143.786262 124.696976 
L 144.041338 124.696976 
L 144.041338 123.37358 
L 144.417581 123.37358 
L 144.417581 122.491317 
L 144.786447 122.491317 
L 144.786447 122.050185 
L 144.907812 122.050185 
L 144.907812 117.638868 
L 145.148219 117.638868 
L 145.148219 115.874341 
L 145.26728 115.874341 
L 145.26728 112.345288 
L 146.529503 112.345288 
L 146.64016 108.375102 
L 147.183884 108.375102 
L 147.290768 102.64039 
L 147.816265 102.64039 
L 147.816265 101.316995 
L 148.428077 101.316995 
L 148.428077 100.434732 
L 148.923146 100.434732 
L 148.923146 99.552468 
L 149.31003 99.552468 
L 149.31003 99.111337 
L 153.650761 99.111337 
L 153.726614 97.34681 
L 153.877408 97.34681 
L 153.877408 96.905678 
L 154.027004 96.905678 
L 154.027004 96.464546 
L 154.17542 96.464546 
L 154.24919 92.935493 
L 154.757642 92.935493 
L 154.829169 89.847571 
L 155.252711 89.847571 
L 155.322384 88.965307 
L 155.529866 88.965307 
L 155.598521 85.877385 
L 155.870664 85.877385 
L 155.870664 84.995122 
L 156.271636 84.995122 
L 156.271636 83.671727 
L 156.468962 83.671727 
L 156.53428 81.466068 
L 156.793307 81.466068 
L 156.793307 81.024937 
L 162.961399 81.024937 
L 163.007676 78.819278 
L 163.373849 78.819278 
L 163.373849 78.378146 
L 163.509347 78.378146 
L 163.509347 70.878907 
L 163.643876 70.878907 
L 163.643876 69.555512 
L 163.777449 69.555512 
L 163.821764 64.261932 
L 164.172572 64.261932 
L 164.172572 63.8208 
L 167.325142 63.8208 
L 167.325142 61.615141 
L 167.796816 61.615141 
L 167.796816 59.850615 
L 167.975126 59.850615 
L 168.045979 56.762693 
L 168.151762 56.762693 
L 168.256952 52.792507 
L 168.500134 52.792507 
L 168.534619 50.586849 
L 168.637696 50.586849 
L 168.637696 48.822322 
L 168.77426 48.822322 
L 168.842171 45.7344 
L 180.410187 45.7344 
L 180.428504 43.528741 
L 180.556226 43.528741 
L 180.628823 38.235161 
L 180.737195 38.235161 
L 180.827031 34.264976 
L 180.93427 34.264976 
L 180.987662 32.94158 
L 181.146932 32.94158 
L 181.146932 32.500449 
L 181.269884 32.500449 
L 181.374636 31.618185 
L 181.940568 31.618185 
L 181.940568 31.177054 
L 184.628012 31.177054 
L 184.628012 30.735922 
L 186.666305 30.735922 
L 186.666305 30.29479 
L 188.337588 30.29479 
L 188.337588 29.853659 
L 189.750131 29.853659 
L 189.750131 29.412527 
L 191.260577 29.412527 
L 191.260577 28.971395 
L 192.28227 28.971395 
L 192.28227 28.530263 
L 206.518292 28.530263 
L 206.518292 27.648 
L 360.8064 27.648 
L 360.8064 27.648 
" style="fill:none;stroke:#000080;stroke-linecap:square;stroke-width:1.5;"/>
   </g>
   <g id="line2d_31">
    <defs>
     <path d="M 0 6 
C 1.591219 6 3.117479 5.367802 4.242641 4.242641 
C 5.367802 3.117479 6 1.591219 6 0 
C 6 -1.591219 5.367802 -3.117479 4.242641 -4.242641 
C 3.117479 -5.367802 1.591219 -6 0 -6 
C -1.591219 -6 -3.117479 -5.367802 -4.242641 -4.242641 
C -5.367802 -3.117479 -6 -1.591219 -6 0 
C -6 1.591219 -5.367802 3.117479 -4.242641 4.242641 
C -3.117479 5.367802 -1.591219 6 0 6 
z
" id="m14604eeef0" style="stroke:#000080;stroke-width:1.5;"/>
    </defs>
    <g>
     <use style="fill-opacity:0;stroke:#000080;stroke-width:1.5;" x="125.011554" xlink:href="#m14604eeef0" y="155.576195"/>
     <use style="fill-opacity:0;stroke:#000080;stroke-width:1.5;" x="192.28227" xlink:href="#m14604eeef0" y="28.530263"/>
     <use style="fill-opacity:0;stroke:#000080;stroke-width:1.5;" x="206.518292" xlink:href="#m14604eeef0" y="27.648"/>
     <use style="fill-opacity:0;stroke:#000080;stroke-width:1.5;" x="206.518292" xlink:href="#m14604eeef0" y="27.648"/>
     <use style="fill-opacity:0;stroke:#000080;stroke-width:1.5;" x="360.8064" xlink:href="#m14604eeef0" y="27.648"/>
    </g>
   </g>
   <g id="line2d_32">
    <path style="fill:none;stroke:#000080;stroke-linecap:square;stroke-width:1.5;"/>
    <g/>
   </g>
   <g id="line2d_33">
    <defs>
     <path d="M 0 1.5 
C 0.397805 1.5 0.77937 1.341951 1.06066 1.06066 
C 1.341951 0.77937 1.5 0.397805 1.5 0 
C 1.5 -0.397805 1.341951 -0.77937 1.06066 -1.06066 
C 0.77937 -1.341951 0.397805 -1.5 0 -1.5 
C -0.397805 -1.5 -0.77937 -1.341951 -1.06066 -1.06066 
C -1.341951 -0.77937 -1.5 -0.397805 -1.5 0 
C -1.5 0.397805 -1.341951 0.77937 -1.06066 1.06066 
C -0.77937 1.341951 -0.397805 1.5 0 1.5 
z
" id="m00abf1655a" style="stroke:#ff00ff;"/>
    </defs>
    <g>
     <use style="fill:#ff00ff;stroke:#ff00ff;" x="225.741072" xlink:href="#m00abf1655a" y="27.648"/>
     <use style="fill:#ff00ff;stroke:#ff00ff;" x="225.741072" xlink:href="#m00abf1655a" y="27.648"/>
    </g>
   </g>
   <g id="line2d_34">
    <path d="M 86.578163 298.944 
L 86.578163 297.620605 
L 98.223251 297.620605 
L 98.223251 296.738341 
L 102.12927 296.738341 
L 102.12927 296.29721 
L 103.269713 296.29721 
L 103.269713 294.532683 
L 105.36204 294.532683 
L 105.36204 294.091551 
L 107.244765 294.091551 
L 107.244765 292.327024 
L 108.119879 292.327024 
L 108.119879 289.680234 
L 109.756698 289.680234 
L 109.756698 287.915707 
L 110.524623 287.915707 
L 110.524623 285.268917 
L 111.262425 285.268917 
L 111.262425 284.386654 
L 113.316634 284.386654 
L 113.316634 282.180995 
L 113.954374 282.180995 
L 113.954374 279.093073 
L 114.571202 279.093073 
L 114.571202 278.21081 
L 115.747307 278.21081 
L 115.747307 277.328546 
L 116.308887 277.328546 
L 116.308887 275.56402 
L 117.384126 275.56402 
L 117.384126 273.799493 
L 117.899543 273.799493 
L 117.899543 273.358361 
L 118.889854 273.358361 
L 118.889854 268.06478 
L 120.28394 268.06478 
L 120.28394 267.623649 
L 120.726585 267.623649 
L 120.726585 267.182517 
L 121.581803 267.182517 
L 121.581803 265.41799 
L 121.99526 265.41799 
L 121.99526 263.653463 
L 122.399825 263.653463 
L 122.399825 263.212332 
L 123.183753 263.212332 
L 123.183753 261.888937 
L 140.649551 261.888937 
L 140.649551 261.006673 
L 140.800648 261.006673 
L 140.800648 260.12441 
L 141.246793 260.12441 
L 141.246793 259.683278 
L 141.538451 259.683278 
L 141.538451 259.242146 
L 142.248405 259.242146 
L 142.248405 258.801015 
L 142.387236 258.801015 
L 142.387236 258.359883 
L 142.932537 258.359883 
L 142.932537 257.47762 
L 143.066428 257.47762 
L 143.066428 256.595356 
L 143.462475 256.595356 
L 143.462475 256.154224 
L 143.850356 256.154224 
L 143.850356 255.271961 
L 143.977892 255.271961 
L 143.977892 254.830829 
L 144.479563 254.830829 
L 144.479563 254.389698 
L 144.602918 254.389698 
L 144.602918 253.507434 
L 144.847227 253.507434 
L 144.847227 253.066302 
L 144.968202 253.066302 
L 144.968202 252.184039 
L 145.088405 252.184039 
L 145.088405 251.301776 
L 145.207843 251.301776 
L 145.207843 250.860644 
L 145.326529 250.860644 
L 145.326529 250.419512 
L 145.44447 250.419512 
L 145.44447 249.537249 
L 145.561676 249.537249 
L 145.561676 249.096117 
L 145.678157 249.096117 
L 145.678157 248.654985 
L 145.79392 248.654985 
L 145.79392 248.213854 
L 145.908976 248.213854 
L 145.908976 247.33159 
L 146.24998 247.33159 
L 146.24998 246.008195 
L 146.47393 246.008195 
L 146.47393 245.567063 
L 147.022411 245.567063 
L 147.130214 244.243668 
L 147.237402 244.243668 
L 147.343984 242.920273 
L 147.971093 242.920273 
L 147.971093 242.03801 
L 148.276979 242.03801 
L 148.377845 241.155746 
L 148.478174 241.155746 
L 148.478174 240.714615 
L 148.971944 240.714615 
L 148.971944 239.832351 
L 149.547853 239.832351 
L 149.547853 239.39122 
L 153.839823 239.39122 
L 153.839823 238.950088 
L 154.212341 238.950088 
L 154.212341 238.508956 
L 154.432362 238.508956 
L 154.505134 237.626693 
L 154.577625 237.626693 
L 154.649839 236.744429 
L 154.721776 236.744429 
L 154.721776 236.303298 
L 154.935952 236.303298 
L 154.935952 235.862166 
L 155.077392 235.862166 
L 155.147716 234.097639 
L 155.28758 234.097639 
L 155.28758 233.215376 
L 155.426411 233.215376 
L 155.426411 232.774244 
L 155.564225 232.774244 
L 155.632755 231.89198 
L 155.769072 231.89198 
L 155.769072 231.450849 
L 155.971711 231.450849 
L 156.038776 230.127454 
L 156.304668 230.127454 
L 156.304668 229.24519 
L 156.88953 229.24519 
L 156.88953 228.804059 
L 157.080512 228.804059 
L 157.143744 227.921795 
L 157.269574 227.921795 
L 157.332175 226.5984 
L 157.580516 226.5984 
L 157.580516 226.157268 
L 157.886402 226.157268 
L 157.886402 225.716137 
L 158.067574 225.716137 
L 158.127579 224.833873 
L 159.119425 224.833873 
L 159.119425 224.392741 
L 160.223059 224.392741 
L 160.223059 223.95161 
L 161.163832 223.95161 
L 161.214743 223.069346 
L 162.539702 223.069346 
L 162.634233 221.745951 
L 162.681321 221.745951 
L 162.728291 220.422556 
L 163.053839 220.422556 
L 163.053839 219.981424 
L 163.191653 219.981424 
L 163.282972 219.099161 
L 163.328465 219.099161 
L 163.419123 216.893502 
L 163.554297 216.893502 
L 163.643876 215.570107 
L 163.821764 215.570107 
L 163.821764 215.128976 
L 163.997986 215.128976 
L 164.085482 213.80558 
L 164.129077 213.80558 
L 164.129077 212.923317 
L 164.602079 212.923317 
L 164.602079 212.482185 
L 164.813209 212.482185 
L 164.813209 211.599922 
L 164.980424 211.599922 
L 164.980424 211.15879 
L 165.31046 211.15879 
L 165.31046 210.717659 
L 165.473332 210.717659 
L 165.473332 210.276527 
L 165.914091 210.276527 
L 165.914091 209.835395 
L 166.150222 209.835395 
L 166.150222 209.394263 
L 167.140533 209.394263 
L 167.140533 208.953132 
L 167.398482 208.953132 
L 167.471536 208.070868 
L 167.725016 208.070868 
L 167.796816 207.188605 
L 167.868343 207.188605 
L 167.868343 206.747473 
L 168.116567 206.747473 
L 168.221954 204.100683 
L 168.256952 204.100683 
L 168.361558 202.777288 
L 168.430973 202.777288 
L 168.500134 201.453893 
L 168.67193 201.453893 
L 168.67193 201.012761 
L 168.977264 201.012761 
L 169.044448 199.689366 
L 169.178101 199.689366 
L 169.178101 199.248234 
L 169.540824 199.248234 
L 169.606029 198.365971 
L 169.832482 198.365971 
L 169.832482 197.924839 
L 169.992581 197.924839 
L 169.992581 197.483707 
L 170.588827 197.483707 
L 170.588827 197.042576 
L 171.166753 197.042576 
L 171.166753 196.601444 
L 171.286192 196.601444 
L 171.286192 196.160312 
L 171.434432 196.160312 
L 171.463941 195.278049 
L 171.669213 195.278049 
L 171.669213 194.836917 
L 171.901099 194.836917 
L 171.901099 194.395785 
L 172.130162 194.395785 
L 172.215347 193.513522 
L 172.300147 193.513522 
L 172.384567 191.748995 
L 172.663262 191.748995 
L 172.663262 191.307863 
L 172.828518 191.307863 
L 172.828518 190.4256 
L 173.046626 190.4256 
L 173.046626 189.984468 
L 173.422332 189.984468 
L 173.475398 188.661073 
L 173.554715 188.661073 
L 173.554715 187.77881 
L 173.764609 187.77881 
L 173.764609 187.337678 
L 175.050293 187.337678 
L 175.123253 186.014283 
L 175.195931 186.014283 
L 175.195931 185.13202 
L 175.316441 185.13202 
L 175.316441 184.690888 
L 175.436184 184.690888 
L 175.483869 183.808624 
L 175.673408 183.808624 
L 175.720495 182.926361 
L 175.861055 182.926361 
L 175.930944 181.602966 
L 176.069946 181.602966 
L 176.093013 180.720702 
L 176.458298 180.720702 
L 176.458298 180.279571 
L 176.99326 180.279571 
L 176.99326 179.838439 
L 177.298436 179.838439 
L 177.298436 179.397307 
L 177.513428 179.397307 
L 177.598741 178.515044 
L 177.704841 178.515044 
L 177.704841 178.073912 
L 177.957067 178.073912 
L 178.061171 176.309385 
L 178.102652 176.309385 
L 178.18534 174.544859 
L 178.370071 174.544859 
L 178.47192 173.221463 
L 178.492224 173.221463 
L 178.512506 171.456937 
L 178.613589 171.456937 
L 178.694067 169.69241 
L 178.754199 169.69241 
L 178.754199 169.251278 
L 178.893767 169.251278 
L 178.953265 168.369015 
L 179.767074 168.369015 
L 179.767074 167.927883 
L 180.049394 167.927883 
L 180.123969 167.04562 
L 180.23528 167.04562 
L 180.345937 166.163356 
L 180.364317 166.163356 
L 180.455946 164.398829 
L 180.492474 164.398829 
L 180.52893 162.634302 
L 180.655974 162.634302 
L 180.764191 159.54638 
L 180.800125 159.54638 
L 180.889661 158.664117 
L 181.014301 158.664117 
L 181.120481 157.340722 
L 181.296127 157.340722 
L 181.400733 156.017327 
L 181.522042 156.017327 
L 181.522042 155.576195 
L 181.779386 155.576195 
L 181.779386 155.135063 
L 181.91521 155.135063 
L 181.91521 154.693932 
L 182.415991 154.693932 
L 182.415991 154.2528 
L 182.547311 154.2528 
L 182.547311 153.811668 
L 182.887728 153.811668 
L 182.887728 153.370537 
L 183.015807 153.370537 
L 183.095416 151.60601 
L 183.127165 151.60601 
L 183.190504 150.282615 
L 183.332241 150.282615 
L 183.426142 148.518088 
L 183.472918 148.518088 
L 183.488484 147.635824 
L 183.705066 147.635824 
L 183.766492 146.753561 
L 183.827718 146.753561 
L 183.827718 146.312429 
L 184.055555 146.312429 
L 184.085726 145.430166 
L 184.369962 145.430166 
L 184.429257 144.547902 
L 184.606031 144.547902 
L 184.693799 143.224507 
L 184.766627 143.224507 
L 184.853651 142.342244 
L 184.88257 142.342244 
L 184.983436 140.577717 
L 185.012156 140.577717 
L 185.069465 139.254322 
L 185.183561 139.254322 
L 185.226169 138.372059 
L 185.619261 138.372059 
L 185.619261 137.930927 
L 185.977062 137.930927 
L 185.977062 137.489795 
L 186.234295 137.489795 
L 186.34156 136.1664 
L 186.368281 136.1664 
L 186.394964 135.284137 
L 186.514572 135.284137 
L 186.514572 134.843005 
L 186.646583 134.843005 
L 186.646583 134.401873 
L 186.790734 134.401873 
L 186.894881 131.313951 
L 187.037149 131.313951 
L 187.101462 130.431688 
L 187.216674 130.431688 
L 187.267654 129.549424 
L 187.445003 129.549424 
L 187.445003 129.108293 
L 187.72036 129.108293 
L 187.769995 128.226029 
L 187.942692 128.226029 
L 187.991745 127.343766 
L 188.065084 127.343766 
L 188.17456 124.255844 
L 188.198802 124.255844 
L 188.210911 123.37358 
L 188.379625 123.37358 
L 188.463419 122.050185 
L 188.794908 122.050185 
L 188.888557 120.72679 
L 188.911896 120.72679 
L 188.911896 119.844527 
L 189.10912 119.844527 
L 189.212702 118.521132 
L 189.395451 118.521132 
L 189.406814 117.197737 
L 189.520069 117.197737 
L 189.587696 115.874341 
L 189.688683 115.874341 
L 189.711051 114.992078 
L 190.174739 114.992078 
L 190.229186 114.109815 
L 190.380806 114.109815 
L 190.380806 113.668683 
L 190.499084 113.668683 
L 190.499084 113.227551 
L 190.648553 113.227551 
L 190.648553 112.78642 
L 190.817932 112.78642 
L 190.912542 111.021893 
L 190.954438 111.021893 
L 191.037952 109.257366 
L 191.121098 109.257366 
L 191.193549 107.933971 
L 191.255429 107.933971 
L 191.358113 106.169444 
L 191.672915 106.169444 
L 191.693045 105.28718 
L 191.843338 105.28718 
L 191.952795 104.404917 
L 191.972628 104.404917 
L 192.061618 103.522654 
L 192.189421 103.522654 
L 192.189421 103.081522 
L 192.306628 103.081522 
L 192.394056 101.758127 
L 192.452116 101.758127 
L 192.519627 99.552468 
L 192.653928 99.552468 
L 192.653928 99.111337 
L 192.89139 99.111337 
L 192.89139 98.670205 
L 193.283701 98.670205 
L 193.348298 97.787941 
L 193.558997 97.787941 
L 193.658938 96.905678 
L 193.695149 96.905678 
L 193.785372 96.023415 
L 193.866205 96.023415 
L 193.946692 94.70002 
L 193.982354 94.70002 
L 194.088935 93.817756 
L 194.15083 93.817756 
L 194.203721 92.053229 
L 194.378958 92.053229 
L 194.378958 91.612098 
L 194.552577 91.612098 
L 194.63879 90.288702 
L 194.681748 90.288702 
L 194.681748 89.847571 
L 194.801513 89.847571 
L 194.861111 88.965307 
L 195.322922 88.965307 
L 195.43044 88.083044 
L 195.504518 88.083044 
L 195.57012 86.759649 
L 195.619173 86.759649 
L 195.700643 85.436254 
L 195.806031 85.436254 
L 195.838339 84.55399 
L 195.983044 84.55399 
L 195.983044 84.112859 
L 196.094828 84.112859 
L 196.094828 83.671727 
L 196.245479 83.671727 
L 196.245479 83.230595 
L 196.379258 83.230595 
L 196.379258 82.789463 
L 196.512092 82.789463 
L 196.512092 81.9072 
L 196.690328 81.9072 
L 196.790329 80.583805 
L 196.866892 80.583805 
L 196.874531 79.701541 
L 197.056948 79.701541 
L 197.117362 77.937015 
L 197.289981 77.937015 
L 197.379418 76.61362 
L 197.46103 76.61362 
L 197.475831 75.731356 
L 197.645206 75.731356 
L 197.754852 74.407961 
L 198.329076 74.407961 
L 198.392592 73.525698 
L 198.665381 73.525698 
L 198.665381 73.084566 
L 199.185864 73.084566 
L 199.239824 72.202302 
L 199.313766 72.202302 
L 199.374049 70.437776 
L 199.474093 70.437776 
L 199.566989 69.11438 
L 199.586836 69.11438 
L 199.692334 67.790985 
L 199.777618 67.790985 
L 199.777618 67.349854 
L 199.972963 67.349854 
L 200.056986 66.46759 
L 200.127791 66.46759 
L 200.127791 66.026459 
L 200.338621 66.026459 
L 200.42103 63.8208 
L 200.452631 63.8208 
L 200.477872 62.938537 
L 200.697307 62.938537 
L 200.697307 62.497405 
L 200.871029 62.497405 
L 200.963439 61.17401 
L 201.043162 61.17401 
L 201.098158 60.291746 
L 201.292406 60.291746 
L 201.364735 59.409483 
L 201.686818 59.409483 
L 201.734068 58.086088 
L 202.015105 58.086088 
L 202.020915 57.203824 
L 202.194402 57.203824 
L 202.205911 56.321561 
L 202.423255 56.321561 
L 202.423255 55.880429 
L 202.789305 55.880429 
L 202.850554 54.557034 
L 202.983498 54.557034 
L 203.055119 53.674771 
L 203.328072 53.674771 
L 203.371379 52.792507 
L 203.548974 52.792507 
L 203.548974 52.351376 
L 204.227558 52.351376 
L 204.248213 51.469112 
L 204.366541 51.469112 
L 204.412642 50.586849 
L 204.73222 50.586849 
L 204.772416 49.704585 
L 204.967149 49.704585 
L 205.006846 48.822322 
L 205.169718 48.822322 
L 205.267746 47.498927 
L 205.297055 47.498927 
L 205.297055 47.057795 
L 205.755131 47.057795 
L 205.845423 46.175532 
L 206.015323 46.175532 
L 206.052871 45.293268 
L 206.160406 45.293268 
L 206.253418 44.411005 
L 206.461027 44.411005 
L 206.461027 43.969873 
L 206.661832 43.969873 
L 206.661832 43.528741 
L 207.021528 43.528741 
L 207.079335 42.646478 
L 207.968166 42.646478 
L 208.05689 41.764215 
L 208.128409 41.764215 
L 208.128409 41.323083 
L 208.25813 41.323083 
L 208.291462 40.44082 
L 208.564218 40.44082 
L 208.617479 39.558556 
L 208.841163 39.558556 
L 208.905738 38.235161 
L 209.461511 38.235161 
L 209.570722 37.352898 
L 209.601809 37.352898 
L 209.601809 36.911766 
L 209.802632 36.911766 
L 209.802632 36.470634 
L 210.344091 36.470634 
L 210.344091 36.029502 
L 210.621962 36.029502 
L 210.621962 35.588371 
L 210.90666 35.588371 
L 211.011419 34.706107 
L 211.112016 34.706107 
L 211.112016 34.264976 
L 211.49507 34.264976 
L 211.49507 33.823844 
L 212.004224 33.823844 
L 212.004224 33.382712 
L 212.231792 33.382712 
L 212.231792 32.94158 
L 212.678834 32.94158 
L 212.678834 32.500449 
L 213.031561 32.500449 
L 213.031561 32.059317 
L 215.822902 32.059317 
L 215.822902 31.618185 
L 217.37235 31.618185 
L 217.37235 31.177054 
L 217.490147 31.177054 
L 217.490147 30.735922 
L 218.829999 30.735922 
L 218.889338 29.853659 
L 219.568899 29.853659 
L 219.568899 29.412527 
L 221.224185 29.412527 
L 221.224185 28.971395 
L 221.374295 28.971395 
L 221.374295 28.530263 
L 223.223964 28.530263 
L 223.223964 28.089132 
L 225.741072 28.089132 
L 225.741072 27.648 
L 360.8064 27.648 
L 360.8064 27.648 
" style="fill:none;stroke:#ff00ff;stroke-linecap:square;stroke-width:1.5;"/>
   </g>
   <g id="line2d_35">
    <defs>
     <path d="M -0 8.485281 
L 5.091169 0 
L 0 -8.485281 
L -5.091169 -0 
z
" id="m8382616e6c" style="stroke:#ff00ff;stroke-linejoin:miter;stroke-width:1.5;"/>
    </defs>
    <g>
     <use style="fill-opacity:0;stroke:#ff00ff;stroke-linejoin:miter;stroke-width:1.5;" x="123.183753" xlink:href="#m8382616e6c" y="263.212332"/>
     <use style="fill-opacity:0;stroke:#ff00ff;stroke-linejoin:miter;stroke-width:1.5;" x="195.619173" xlink:href="#m8382616e6c" y="86.759649"/>
     <use style="fill-opacity:0;stroke:#ff00ff;stroke-linejoin:miter;stroke-width:1.5;" x="225.741072" xlink:href="#m8382616e6c" y="28.089132"/>
     <use style="fill-opacity:0;stroke:#ff00ff;stroke-linejoin:miter;stroke-width:1.5;" x="225.741072" xlink:href="#m8382616e6c" y="27.648"/>
     <use style="fill-opacity:0;stroke:#ff00ff;stroke-linejoin:miter;stroke-width:1.5;" x="360.8064" xlink:href="#m8382616e6c" y="27.648"/>
    </g>
   </g>
   <g id="line2d_36">
    <path style="fill:none;stroke:#ff00ff;stroke-linecap:square;stroke-width:1.5;"/>
    <g/>
   </g>
   <g id="line2d_37">
    <path clip-path="url(#pc2a55de91c)" d="M 141.538451 259.242146 
" style="fill:none;stroke:#ff00ff;stroke-linecap:square;stroke-width:1.5;"/>
    <defs>
     <path d="M -12 12 
L 12 -12 
M -12 -12 
L 12 12 
" id="md119a37c1b" style="stroke:#ff00ff;"/>
    </defs>
    <g clip-path="url(#pc2a55de91c)">
     <use style="fill:#ff00ff;stroke:#ff00ff;" x="141.538451" xlink:href="#md119a37c1b" y="259.242146"/>
    </g>
   </g>
   <g id="line2d_38">
    <defs>
     <path d="M 0 1.5 
C 0.397805 1.5 0.77937 1.341951 1.06066 1.06066 
C 1.341951 0.77937 1.5 0.397805 1.5 0 
C 1.5 -0.397805 1.341951 -0.77937 1.06066 -1.06066 
C 0.77937 -1.341951 0.397805 -1.5 0 -1.5 
C -0.397805 -1.5 -0.77937 -1.341951 -1.06066 -1.06066 
C -1.341951 -0.77937 -1.5 -0.397805 -1.5 0 
C -1.5 0.397805 -1.341951 0.77937 -1.06066 1.06066 
C -0.77937 1.341951 -0.397805 1.5 0 1.5 
z
" id="m342e473fea" style="stroke:#ff7500;"/>
    </defs>
    <g>
     <use style="fill:#ff7500;stroke:#ff7500;" x="227.685162" xlink:href="#m342e473fea" y="27.648"/>
     <use style="fill:#ff7500;stroke:#ff7500;" x="227.685162" xlink:href="#m342e473fea" y="27.648"/>
    </g>
   </g>
   <g id="line2d_39">
    <path d="M 137.340774 298.944 
L 137.340774 298.502868 
L 142.797687 298.502868 
L 142.797687 296.738341 
L 143.850356 296.738341 
L 143.850356 294.091551 
L 144.355394 294.091551 
L 144.355394 293.65042 
L 144.968202 293.65042 
L 144.968202 293.209288 
L 145.088405 293.209288 
L 145.088405 290.562498 
L 145.561676 290.562498 
L 145.561676 289.680234 
L 146.136998 289.680234 
L 146.136998 289.239102 
L 146.584913 289.239102 
L 146.584913 284.386654 
L 146.913986 284.386654 
L 146.913986 283.50439 
L 147.237402 283.50439 
L 147.237402 282.180995 
L 147.449964 282.180995 
L 147.449964 280.8576 
L 148.478174 280.8576 
L 148.478174 280.416468 
L 148.775988 280.416468 
L 148.874221 278.21081 
L 149.262102 278.21081 
L 149.262102 275.122888 
L 149.642146 275.122888 
L 149.642146 270.270439 
L 149.829328 270.270439 
L 149.829328 269.388176 
L 150.014665 269.388176 
L 150.106653 265.859122 
L 150.379949 265.859122 
L 150.379949 265.41799 
L 150.559965 265.41799 
L 150.649331 263.653463 
L 150.914911 263.653463 
L 150.914911 262.330068 
L 151.089903 262.330068 
L 151.089903 259.683278 
L 151.349377 259.683278 
L 151.349377 257.036488 
L 151.520392 257.036488 
L 151.60532 255.271961 
L 151.689867 255.271961 
L 151.774035 251.742907 
L 151.94125 251.742907 
L 151.94125 250.419512 
L 152.106991 250.419512 
L 152.106991 249.537249 
L 152.352898 249.537249 
L 152.352898 248.213854 
L 152.515067 248.213854 
L 152.595631 242.479141 
L 152.835271 242.479141 
L 152.914478 239.832351 
L 152.993353 239.832351 
L 152.993353 238.067824 
L 153.150116 238.067824 
L 153.150116 235.421034 
L 153.305585 235.421034 
L 153.38284 233.656507 
L 153.459779 233.656507 
L 153.459779 232.333112 
L 153.612719 232.333112 
L 153.688725 229.24519 
L 153.764426 229.24519 
L 153.839823 225.275005 
L 153.914919 225.275005 
L 153.914919 224.392741 
L 154.064218 224.392741 
L 154.064218 223.510478 
L 154.212341 223.510478 
L 154.212341 222.187083 
L 154.359307 222.187083 
L 154.359307 221.745951 
L 154.935952 221.745951 
L 155.006805 220.863688 
L 155.28758 220.863688 
L 155.28758 218.658029 
L 155.426411 218.658029 
L 155.426411 217.775766 
L 155.564225 217.775766 
L 155.632755 215.570107 
L 155.701037 215.570107 
L 155.701037 215.128976 
L 156.038776 215.128976 
L 156.105602 213.80558 
L 156.304668 213.80558 
L 156.370558 211.15879 
L 156.566854 211.15879 
L 156.631834 209.835395 
L 156.761123 209.835395 
L 156.761123 209.394263 
L 157.017067 209.394263 
L 157.017067 208.953132 
L 157.269574 208.953132 
L 157.269574 208.512 
L 157.518738 208.512 
L 157.518738 208.070868 
L 157.703468 208.070868 
L 157.703468 207.188605 
L 157.946987 207.188605 
L 157.946987 206.747473 
L 158.187393 206.747473 
L 158.187393 204.982946 
L 158.306454 204.982946 
L 158.306454 203.659551 
L 158.424766 203.659551 
L 158.424766 202.336156 
L 158.542339 202.336156 
L 158.542339 201.895024 
L 159.062507 201.895024 
L 159.062507 201.453893 
L 159.289155 201.453893 
L 159.289155 201.012761 
L 159.457367 201.012761 
L 159.513105 200.130498 
L 159.568678 200.130498 
L 159.651731 197.042576 
L 159.734419 197.042576 
L 159.734419 196.160312 
L 160.115564 196.160312 
L 160.223059 188.219941 
L 160.383158 188.219941 
L 160.4627 186.455415 
L 160.699326 186.455415 
L 160.803545 183.367493 
L 161.010268 183.367493 
L 161.061595 182.485229 
L 161.41702 182.485229 
L 161.517348 178.073912 
L 161.567313 178.073912 
L 161.567313 176.309385 
L 161.815163 176.309385 
L 161.913396 172.780332 
L 162.05979 172.780332 
L 162.05979 172.3392 
L 162.205054 172.3392 
L 162.205054 171.456937 
L 162.444694 171.456937 
L 162.468491 170.133541 
L 162.587027 170.133541 
L 162.587027 169.251278 
L 162.868502 169.251278 
L 162.961399 167.486751 
L 163.554297 167.486751 
L 163.59914 166.163356 
L 164.085482 166.163356 
L 164.085482 165.722224 
L 164.302457 165.722224 
L 164.302457 165.281093 
L 164.516958 165.281093 
L 164.516958 163.957698 
L 164.855153 163.957698 
L 164.855153 163.516566 
L 165.674958 163.516566 
L 165.674958 160.869776 
L 166.150222 160.869776 
L 166.189291 159.987512 
L 166.267186 159.987512 
L 166.267186 158.664117 
L 166.422014 158.664117 
L 166.422014 155.135063 
L 166.575579 155.135063 
L 166.575579 152.488273 
L 167.028891 152.488273 
L 167.028891 151.60601 
L 167.251516 151.60601 
L 167.288365 148.518088 
L 167.471536 148.518088 
L 167.471536 148.076956 
L 167.652941 148.076956 
L 167.652941 147.194693 
L 167.778892 147.194693 
L 167.778892 146.753561 
L 167.939599 146.753561 
L 167.939599 146.312429 
L 168.116567 146.312429 
L 168.151762 143.665639 
L 168.326754 143.665639 
L 168.326754 142.783376 
L 168.465585 142.783376 
L 168.500134 141.901112 
L 169.128092 141.901112 
L 169.128092 141.45998 
L 169.343842 141.45998 
L 169.343842 137.489795 
L 169.768058 137.489795 
L 169.768058 136.607532 
L 169.896685 136.607532 
L 169.896685 136.1664 
L 171.136775 136.1664 
L 171.136775 135.725268 
L 171.256404 135.725268 
L 171.256404 135.284137 
L 172.1586 135.284137 
L 172.1586 134.843005 
L 172.271923 134.843005 
L 172.271923 134.401873 
L 172.496541 134.401873 
L 172.552279 132.637346 
L 172.635578 132.637346 
L 172.746072 129.549424 
L 172.910605 129.549424 
L 172.965131 126.902634 
L 173.073712 126.902634 
L 173.18167 125.138107 
L 173.208563 125.138107 
L 173.208563 124.255844 
L 173.369117 124.255844 
L 173.475398 122.050185 
L 173.712355 122.050185 
L 173.816719 120.285659 
L 173.972187 120.285659 
L 173.972187 118.962263 
L 174.964813 118.962263 
L 174.964813 118.521132 
L 175.171736 118.521132 
L 175.171736 118.08 
L 175.292401 118.08 
L 175.388379 114.992078 
L 175.507666 114.992078 
L 175.602554 113.668683 
L 176.207929 113.668683 
L 176.207929 112.345288 
L 177.211747 112.345288 
L 177.211747 110.580761 
L 177.556133 110.580761 
L 177.556133 109.257366 
L 177.915264 109.257366 
L 177.998778 104.846049 
L 178.205956 104.846049 
L 178.288192 102.199259 
L 178.47192 102.199259 
L 178.47192 100.434732 
L 178.653871 100.434732 
L 178.653871 99.9936 
L 178.893767 99.9936 
L 178.992827 97.787941 
L 179.111015 97.787941 
L 179.111015 96.023415 
L 179.576479 96.023415 
L 179.576479 95.582283 
L 179.786028 95.582283 
L 179.786028 93.376624 
L 179.993268 93.376624 
L 179.993268 92.935493 
L 180.309124 92.935493 
L 180.309124 92.053229 
L 180.565316 92.053229 
L 180.665016 91.170966 
L 180.692116 91.170966 
L 180.71016 87.641912 
L 181.138119 87.641912 
L 181.138119 86.318517 
L 181.374636 86.318517 
L 181.400733 85.436254 
L 181.50476 85.436254 
L 181.573793 83.671727 
L 185.799012 83.671727 
L 185.799012 83.230595 
L 187.533055 83.230595 
L 187.533055 82.789463 
L 189.004965 82.789463 
L 189.004965 82.348332 
L 193.237424 82.348332 
L 193.311413 78.819278 
L 193.357508 78.819278 
L 193.357508 77.495883 
L 193.476831 77.495883 
L 193.586306 74.407961 
L 193.631734 74.407961 
L 193.631734 73.525698 
L 193.767362 73.525698 
L 193.767362 72.643434 
L 194.41381 72.643434 
L 194.517981 71.761171 
L 196.205951 71.761171 
L 196.205951 71.320039 
L 196.543211 71.320039 
L 196.543211 70.878907 
L 196.85925 70.878907 
L 196.950753 69.555512 
L 196.988749 69.555512 
L 197.079626 67.349854 
L 197.200117 67.349854 
L 197.29745 65.144195 
L 198.448872 65.144195 
L 198.448872 64.703063 
L 198.62367 64.703063 
L 198.672323 63.8208 
L 198.810644 63.8208 
L 198.858817 62.938537 
L 198.947955 62.938537 
L 199.016237 59.850615 
L 199.494038 59.850615 
L 199.566989 55.880429 
L 199.725181 55.880429 
L 199.829908 54.557034 
L 199.855999 54.557034 
L 199.947034 52.792507 
L 200.056986 52.792507 
L 200.056986 52.351376 
L 200.509377 52.351376 
L 200.565954 50.145717 
L 201.322577 50.145717 
L 201.346679 48.38119 
L 202.182886 48.38119 
L 202.182886 47.940059 
L 202.383407 47.940059 
L 202.406188 45.293268 
L 203.033111 45.293268 
L 203.033111 43.969873 
L 227.063285 43.969873 
L 227.086291 40.44082 
L 227.252624 40.44082 
L 227.363205 28.971395 
L 227.679222 28.971395 
L 227.685162 27.648 
L 360.8064 27.648 
L 360.8064 27.648 
" style="fill:none;stroke:#ff7500;stroke-linecap:square;stroke-width:1.5;"/>
   </g>
   <g id="line2d_40">
    <defs>
     <path d="M 0 -6 
L -1.347084 -1.854102 
L -5.706339 -1.854102 
L -2.179628 0.708204 
L -3.526712 4.854102 
L -0 2.291796 
L 3.526712 4.854102 
L 2.179628 0.708204 
L 5.706339 -1.854102 
L 1.347084 -1.854102 
z
" id="mbd876b893f" style="stroke:#ff7500;stroke-linejoin:bevel;stroke-width:1.5;"/>
    </defs>
    <g>
     <use style="fill-opacity:0;stroke:#ff7500;stroke-linejoin:bevel;stroke-width:1.5;" x="159.734419" xlink:href="#mbd876b893f" y="196.160312"/>
     <use style="fill-opacity:0;stroke:#ff7500;stroke-linejoin:bevel;stroke-width:1.5;" x="193.311413" xlink:href="#mbd876b893f" y="78.819278"/>
     <use style="fill-opacity:0;stroke:#ff7500;stroke-linejoin:bevel;stroke-width:1.5;" x="227.685162" xlink:href="#mbd876b893f" y="28.530263"/>
     <use style="fill-opacity:0;stroke:#ff7500;stroke-linejoin:bevel;stroke-width:1.5;" x="227.685162" xlink:href="#mbd876b893f" y="27.648"/>
     <use style="fill-opacity:0;stroke:#ff7500;stroke-linejoin:bevel;stroke-width:1.5;" x="360.8064" xlink:href="#mbd876b893f" y="27.648"/>
    </g>
   </g>
   <g id="line2d_41">
    <path style="fill:none;stroke:#ff7500;stroke-linecap:square;stroke-width:1.5;"/>
    <g/>
   </g>
   <g id="line2d_42">
    <defs>
     <path d="M 0 1.5 
C 0.397805 1.5 0.77937 1.341951 1.06066 1.06066 
C 1.341951 0.77937 1.5 0.397805 1.5 0 
C 1.5 -0.397805 1.341951 -0.77937 1.06066 -1.06066 
C 0.77937 -1.341951 0.397805 -1.5 0 -1.5 
C -0.397805 -1.5 -0.77937 -1.341951 -1.06066 -1.06066 
C -1.341951 -0.77937 -1.5 -0.397805 -1.5 0 
C -1.5 0.397805 -1.341951 0.77937 -1.06066 1.06066 
C -0.77937 1.341951 -0.397805 1.5 0 1.5 
z
" id="mafac6fe390" style="stroke:#6495ed;"/>
    </defs>
    <g>
     <use style="fill:#6495ed;stroke:#6495ed;" x="205.164803" xlink:href="#mafac6fe390" y="27.648"/>
     <use style="fill:#6495ed;stroke:#6495ed;" x="205.164803" xlink:href="#mafac6fe390" y="27.648"/>
    </g>
   </g>
   <g id="line2d_43">
    <path d="M 96.717523 298.944 
L 96.717523 297.620605 
L 107.244765 297.620605 
L 107.244765 296.738341 
L 108.542628 296.738341 
L 108.542628 296.29721 
L 108.956085 296.29721 
L 108.956085 295.856078 
L 109.756698 295.856078 
L 109.756698 295.414946 
L 111.620752 295.414946 
L 111.620752 294.091551 
L 114.571202 294.091551 
L 114.571202 292.327024 
L 117.6436 292.327024 
L 117.6436 291.444761 
L 120.28394 291.444761 
L 120.28394 286.592312 
L 124.659926 286.592312 
L 124.659926 283.945522 
L 125.184934 283.945522 
L 125.184934 283.50439 
L 126.993549 283.50439 
L 126.993549 281.739863 
L 128.354013 281.739863 
L 128.354013 280.416468 
L 129.209231 280.416468 
L 129.209231 279.975337 
L 130.4233 279.975337 
L 130.4233 279.093073 
L 130.682774 279.093073 
L 130.682774 278.651941 
L 131.31622 278.651941 
L 131.31622 277.769678 
L 131.563744 277.769678 
L 131.563744 276.887415 
L 131.929028 276.887415 
L 131.929028 275.122888 
L 132.638982 275.122888 
L 132.638982 271.152702 
L 132.869802 271.152702 
L 132.869802 270.711571 
L 133.656071 270.711571 
L 133.656071 266.741385 
L 135.736814 266.741385 
L 135.736814 265.41799 
L 136.602972 265.41799 
L 136.602972 261.888937 
L 145.44447 261.888937 
L 145.44447 261.447805 
L 148.428077 261.447805 
L 148.428077 259.242146 
L 148.627671 259.242146 
L 148.627671 258.801015 
L 150.152479 258.801015 
L 150.152479 257.918751 
L 150.559965 257.918751 
L 150.559965 255.271961 
L 150.958812 255.271961 
L 150.958812 249.97838 
L 151.263283 249.97838 
L 151.263283 246.008195 
L 151.647641 246.008195 
L 151.647641 245.567063 
L 152.230346 245.567063 
L 152.271285 239.832351 
L 152.393571 239.832351 
L 152.393571 238.950088 
L 152.595631 238.950088 
L 152.595631 238.508956 
L 152.75573 238.508956 
L 152.75573 236.744429 
L 152.953957 236.744429 
L 152.953957 234.979902 
L 153.111048 234.979902 
L 153.189104 231.89198 
L 153.305585 231.89198 
L 153.305585 230.568585 
L 153.421349 230.568585 
L 153.459779 226.157268 
L 153.536404 226.157268 
L 153.536404 225.716137 
L 153.650761 225.716137 
L 153.650761 219.540293 
L 153.802162 219.540293 
L 153.802162 217.775766 
L 153.952355 217.775766 
L 153.952355 216.893502 
L 154.468783 216.893502 
L 154.468783 216.452371 
L 154.721776 216.452371 
L 154.793439 215.570107 
L 155.042132 215.570107 
L 155.042132 210.276527 
L 155.357123 210.276527 
L 155.357123 205.424078 
L 155.666927 205.424078 
L 155.735085 201.012761 
L 156.271636 201.012761 
L 156.337642 196.160312 
L 156.403417 196.160312 
L 156.403417 195.278049 
L 156.696589 195.278049 
L 156.696589 194.395785 
L 156.857511 194.395785 
L 156.857511 192.190127 
L 157.143744 192.190127 
L 157.143744 191.307863 
L 157.332175 191.307863 
L 157.332175 190.4256 
L 157.61133 190.4256 
L 157.61133 189.984468 
L 157.886402 189.984468 
L 157.886402 187.337678 
L 158.15751 187.337678 
L 158.15751 186.455415 
L 158.424766 186.455415 
L 158.424766 185.13202 
L 158.688279 185.13202 
L 158.688279 183.367493 
L 158.948151 183.367493 
L 158.948151 178.073912 
L 159.457367 178.073912 
L 159.457367 174.103727 
L 165.042749 174.103727 
L 165.042749 173.662595 
L 165.31046 173.662595 
L 165.31046 171.898068 
L 165.493592 171.898068 
L 165.493592 168.810146 
L 165.854592 168.810146 
L 165.854592 166.604488 
L 166.071841 166.604488 
L 166.071841 166.163356 
L 166.460523 166.163356 
L 166.460523 160.869776 
L 166.689935 160.869776 
L 166.689935 160.428644 
L 166.841337 160.428644 
L 166.841337 159.54638 
L 167.306762 159.54638 
L 167.306762 155.576195 
L 167.544308 155.576195 
L 167.544308 155.135063 
L 171.522819 155.135063 
L 171.522819 152.047141 
L 171.654625 152.047141 
L 171.654625 148.518088 
L 172.04459 148.518088 
L 172.04459 147.635824 
L 172.426636 147.635824 
L 172.426636 144.547902 
L 172.593974 144.547902 
L 172.677089 138.372059 
L 173.6337 138.372059 
L 173.659955 135.725268 
L 173.84272 135.725268 
L 173.84272 134.843005 
L 173.959281 134.843005 
L 173.959281 134.401873 
L 174.1775 134.401873 
L 174.1775 128.226029 
L 174.292011 128.226029 
L 174.292011 125.138107 
L 174.544011 125.138107 
L 174.544011 122.050185 
L 174.964813 122.050185 
L 174.964813 120.285659 
L 176.537267 120.285659 
L 176.537267 118.08 
L 176.738821 118.08 
L 176.738821 114.992078 
L 176.938239 114.992078 
L 177.03716 111.904156 
L 177.070019 111.904156 
L 177.135565 110.139629 
L 177.352415 110.139629 
L 177.45991 106.169444 
L 177.524113 106.169444 
L 177.620009 102.64039 
L 183.332241 102.64039 
L 183.332241 102.199259 
L 184.145923 102.199259 
L 184.145923 101.758127 
L 184.295578 101.758127 
L 184.362536 98.670205 
L 184.429257 98.670205 
L 184.429257 94.70002 
L 184.554643 94.70002 
L 184.628012 88.965307 
L 184.686501 88.965307 
L 184.773895 84.112859 
L 184.81744 84.112859 
L 184.925864 73.084566 
L 185.076616 73.084566 
L 185.140856 69.996644 
L 185.204877 69.996644 
L 185.204877 66.46759 
L 189.068684 66.46759 
L 189.120658 60.291746 
L 189.275723 60.291746 
L 189.327128 52.792507 
L 189.800258 52.792507 
L 189.800258 50.586849 
L 190.5098 50.586849 
L 190.5098 48.38119 
L 190.881058 48.38119 
L 190.881058 47.940059 
L 195.938947 47.940059 
L 195.938947 47.498927 
L 196.078899 47.498927 
L 196.114719 43.969873 
L 196.30068 43.969873 
L 196.406683 35.588371 
L 196.535436 35.588371 
L 196.605296 30.29479 
L 205.164803 30.29479 
L 205.164803 27.648 
L 360.8064 27.648 
L 360.8064 27.648 
" style="fill:none;stroke:#6495ed;stroke-linecap:square;stroke-width:1.5;"/>
   </g>
   <g id="line2d_44">
    <defs>
     <path d="M -0 6 
L 6 -6 
L -6 -6 
z
" id="me5ad361ad3" style="stroke:#6495ed;stroke-linejoin:miter;stroke-width:1.5;"/>
    </defs>
    <g>
     <use style="fill-opacity:0;stroke:#6495ed;stroke-linejoin:miter;stroke-width:1.5;" x="133.656071" xlink:href="#me5ad361ad3" y="270.711571"/>
     <use style="fill-opacity:0;stroke:#6495ed;stroke-linejoin:miter;stroke-width:1.5;" x="184.628012" xlink:href="#me5ad361ad3" y="90.288702"/>
     <use style="fill-opacity:0;stroke:#6495ed;stroke-linejoin:miter;stroke-width:1.5;" x="205.164803" xlink:href="#me5ad361ad3" y="30.29479"/>
     <use style="fill-opacity:0;stroke:#6495ed;stroke-linejoin:miter;stroke-width:1.5;" x="205.164803" xlink:href="#me5ad361ad3" y="27.648"/>
     <use style="fill-opacity:0;stroke:#6495ed;stroke-linejoin:miter;stroke-width:1.5;" x="360.8064" xlink:href="#me5ad361ad3" y="27.648"/>
    </g>
   </g>
   <g id="line2d_45">
    <path style="fill:none;stroke:#6495ed;stroke-linecap:square;stroke-width:1.5;"/>
    <g/>
   </g>
   <g id="line2d_46">
    <path d="M 360.8064 27.648 
L 380.514816 293.51808 
" style="fill:none;stroke:#ff7500;stroke-linecap:square;stroke-width:1.5;"/>
    <g>
     <use style="fill-opacity:0;stroke:#ff7500;stroke-linejoin:bevel;stroke-width:1.5;" x="360.8064" xlink:href="#mbd876b893f" y="27.648"/>
     <use style="fill-opacity:0;stroke:#ff7500;stroke-linejoin:bevel;stroke-width:1.5;" x="380.514816" xlink:href="#mbd876b893f" y="293.51808"/>
    </g>
   </g>
   <g id="line2d_47">
    <path d="M 360.8064 27.648 
L 380.514816 206.70336 
" style="fill:none;stroke:#ff00ff;stroke-linecap:square;stroke-width:1.5;"/>
    <g>
     <use style="fill-opacity:0;stroke:#ff00ff;stroke-linejoin:miter;stroke-width:1.5;" x="360.8064" xlink:href="#m8382616e6c" y="27.648"/>
     <use style="fill-opacity:0;stroke:#ff00ff;stroke-linejoin:miter;stroke-width:1.5;" x="380.514816" xlink:href="#m8382616e6c" y="206.70336"/>
    </g>
   </g>
   <g id="line2d_48">
    <path d="M 360.8064 27.648 
L 380.514816 119.88864 
" style="fill:none;stroke:#000080;stroke-linecap:square;stroke-width:1.5;"/>
    <g>
     <use style="fill-opacity:0;stroke:#000080;stroke-width:1.5;" x="360.8064" xlink:href="#m14604eeef0" y="27.648"/>
     <use style="fill-opacity:0;stroke:#000080;stroke-width:1.5;" x="380.514816" xlink:href="#m14604eeef0" y="119.88864"/>
    </g>
   </g>
   <g id="line2d_49">
    <path d="M 360.8064 27.648 
L 380.514816 33.07392 
" style="fill:none;stroke:#6495ed;stroke-linecap:square;stroke-width:1.5;"/>
    <g>
     <use style="fill-opacity:0;stroke:#6495ed;stroke-linejoin:miter;stroke-width:1.5;" x="360.8064" xlink:href="#me5ad361ad3" y="27.648"/>
     <use style="fill-opacity:0;stroke:#6495ed;stroke-linejoin:miter;stroke-width:1.5;" x="380.514816" xlink:href="#me5ad361ad3" y="33.07392"/>
    </g>
   </g>
   <g id="line2d_50">
    <path d="M 360.8064 298.944 
L 360.8064 27.648 
" style="fill:none;stroke:#000000;stroke-linecap:square;stroke-width:1.5;"/>
   </g>
   <g id="patch_3">
    <path d="M 57.6 298.944 
L 360.8064 298.944 
" style="fill:none;stroke:#000000;stroke-linecap:square;stroke-linejoin:miter;stroke-width:0.8;"/>
   </g>
   <g id="patch_4">
    <path d="M 57.6 27.648 
L 360.8064 27.648 
" style="fill:none;stroke:#000000;stroke-linecap:square;stroke-linejoin:miter;stroke-width:0.8;"/>
   </g>
   <g id="text_13">
    <!-- fmincon -->
    <g transform="translate(386.578944 297.381205)scale(0.14 -0.14)">
     <use xlink:href="#DejaVuSans-102"/>
     <use x="35.205078" xlink:href="#DejaVuSans-109"/>
     <use x="132.617188" xlink:href="#DejaVuSans-105"/>
     <use x="160.400391" xlink:href="#DejaVuSans-110"/>
     <use x="223.779297" xlink:href="#DejaVuSans-99"/>
     <use x="278.759766" xlink:href="#DejaVuSans-111"/>
     <use x="339.941406" xlink:href="#DejaVuSans-110"/>
    </g>
   </g>
   <g id="text_14">
    <!-- cobyla rh -->
    <g transform="translate(386.578944 210.566485)scale(0.14 -0.14)">
     <defs>
      <path d="M 48.6875 27.296875 
Q 48.6875 37.203125 44.609375 42.84375 
Q 40.53125 48.484375 33.40625 48.484375 
Q 26.265625 48.484375 22.1875 42.84375 
Q 18.109375 37.203125 18.109375 27.296875 
Q 18.109375 17.390625 22.1875 11.75 
Q 26.265625 6.109375 33.40625 6.109375 
Q 40.53125 6.109375 44.609375 11.75 
Q 48.6875 17.390625 48.6875 27.296875 
z
M 18.109375 46.390625 
Q 20.953125 51.265625 25.265625 53.625 
Q 29.59375 56 35.59375 56 
Q 45.5625 56 51.78125 48.09375 
Q 58.015625 40.1875 58.015625 27.296875 
Q 58.015625 14.40625 51.78125 6.484375 
Q 45.5625 -1.421875 35.59375 -1.421875 
Q 29.59375 -1.421875 25.265625 0.953125 
Q 20.953125 3.328125 18.109375 8.203125 
L 18.109375 0 
L 9.078125 0 
L 9.078125 75.984375 
L 18.109375 75.984375 
z
" id="DejaVuSans-98"/>
      <path d="M 32.171875 -5.078125 
Q 28.375 -14.84375 24.75 -17.8125 
Q 21.140625 -20.796875 15.09375 -20.796875 
L 7.90625 -20.796875 
L 7.90625 -13.28125 
L 13.1875 -13.28125 
Q 16.890625 -13.28125 18.9375 -11.515625 
Q 21 -9.765625 23.484375 -3.21875 
L 25.09375 0.875 
L 2.984375 54.6875 
L 12.5 54.6875 
L 29.59375 11.921875 
L 46.6875 54.6875 
L 56.203125 54.6875 
z
" id="DejaVuSans-121"/>
      <path d="M 54.890625 33.015625 
L 54.890625 0 
L 45.90625 0 
L 45.90625 32.71875 
Q 45.90625 40.484375 42.875 44.328125 
Q 39.84375 48.1875 33.796875 48.1875 
Q 26.515625 48.1875 22.3125 43.546875 
Q 18.109375 38.921875 18.109375 30.90625 
L 18.109375 0 
L 9.078125 0 
L 9.078125 75.984375 
L 18.109375 75.984375 
L 18.109375 46.1875 
Q 21.34375 51.125 25.703125 53.5625 
Q 30.078125 56 35.796875 56 
Q 45.21875 56 50.046875 50.171875 
Q 54.890625 44.34375 54.890625 33.015625 
z
" id="DejaVuSans-104"/>
     </defs>
     <use xlink:href="#DejaVuSans-99"/>
     <use x="54.980469" xlink:href="#DejaVuSans-111"/>
     <use x="116.162109" xlink:href="#DejaVuSans-98"/>
     <use x="179.638672" xlink:href="#DejaVuSans-121"/>
     <use x="238.818359" xlink:href="#DejaVuSans-108"/>
     <use x="266.601562" xlink:href="#DejaVuSans-97"/>
     <use x="327.880859" xlink:href="#DejaVuSans-32"/>
     <use x="359.667969" xlink:href="#DejaVuSans-114"/>
     <use x="399.03125" xlink:href="#DejaVuSans-104"/>
    </g>
   </g>
   <g id="text_15">
    <!-- cobyla -->
    <g transform="translate(386.578944 123.751765)scale(0.14 -0.14)">
     <use xlink:href="#DejaVuSans-99"/>
     <use x="54.980469" xlink:href="#DejaVuSans-111"/>
     <use x="116.162109" xlink:href="#DejaVuSans-98"/>
     <use x="179.638672" xlink:href="#DejaVuSans-121"/>
     <use x="238.818359" xlink:href="#DejaVuSans-108"/>
     <use x="266.601562" xlink:href="#DejaVuSans-97"/>
    </g>
   </g>
   <g id="text_16">
    <!-- slsqp -->
    <g transform="translate(386.578944 36.937045)scale(0.14 -0.14)">
     <defs>
      <path d="M 14.796875 27.296875 
Q 14.796875 17.390625 18.875 11.75 
Q 22.953125 6.109375 30.078125 6.109375 
Q 37.203125 6.109375 41.296875 11.75 
Q 45.40625 17.390625 45.40625 27.296875 
Q 45.40625 37.203125 41.296875 42.84375 
Q 37.203125 48.484375 30.078125 48.484375 
Q 22.953125 48.484375 18.875 42.84375 
Q 14.796875 37.203125 14.796875 27.296875 
z
M 45.40625 8.203125 
Q 42.578125 3.328125 38.25 0.953125 
Q 33.9375 -1.421875 27.875 -1.421875 
Q 17.96875 -1.421875 11.734375 6.484375 
Q 5.515625 14.40625 5.515625 27.296875 
Q 5.515625 40.1875 11.734375 48.09375 
Q 17.96875 56 27.875 56 
Q 33.9375 56 38.25 53.625 
Q 42.578125 51.265625 45.40625 46.390625 
L 45.40625 54.6875 
L 54.390625 54.6875 
L 54.390625 -20.796875 
L 45.40625 -20.796875 
z
" id="DejaVuSans-113"/>
     </defs>
     <use xlink:href="#DejaVuSans-115"/>
     <use x="52.099609" xlink:href="#DejaVuSans-108"/>
     <use x="79.882812" xlink:href="#DejaVuSans-115"/>
     <use x="131.982422" xlink:href="#DejaVuSans-113"/>
     <use x="195.458984" xlink:href="#DejaVuSans-112"/>
    </g>
   </g>
   <g id="text_17">
    <!-- bbob-constrained f53, 3-D -->
    <g transform="translate(60.632064 38.111366)scale(0.102 -0.102)">
     <defs>
      <path d="M 4.890625 31.390625 
L 31.203125 31.390625 
L 31.203125 23.390625 
L 4.890625 23.390625 
z
" id="DejaVuSans-45"/>
      <path d="M 10.796875 72.90625 
L 49.515625 72.90625 
L 49.515625 64.59375 
L 19.828125 64.59375 
L 19.828125 46.734375 
Q 21.96875 47.46875 24.109375 47.828125 
Q 26.265625 48.1875 28.421875 48.1875 
Q 40.625 48.1875 47.75 41.5 
Q 54.890625 34.8125 54.890625 23.390625 
Q 54.890625 11.625 47.5625 5.09375 
Q 40.234375 -1.421875 26.90625 -1.421875 
Q 22.3125 -1.421875 17.546875 -0.640625 
Q 12.796875 0.140625 7.71875 1.703125 
L 7.71875 11.625 
Q 12.109375 9.234375 16.796875 8.0625 
Q 21.484375 6.890625 26.703125 6.890625 
Q 35.15625 6.890625 40.078125 11.328125 
Q 45.015625 15.765625 45.015625 23.390625 
Q 45.015625 31 40.078125 35.4375 
Q 35.15625 39.890625 26.703125 39.890625 
Q 22.75 39.890625 18.8125 39.015625 
Q 14.890625 38.140625 10.796875 36.28125 
z
" id="DejaVuSans-53"/>
      <path d="M 40.578125 39.3125 
Q 47.65625 37.796875 51.625 33 
Q 55.609375 28.21875 55.609375 21.1875 
Q 55.609375 10.40625 48.1875 4.484375 
Q 40.765625 -1.421875 27.09375 -1.421875 
Q 22.515625 -1.421875 17.65625 -0.515625 
Q 12.796875 0.390625 7.625 2.203125 
L 7.625 11.71875 
Q 11.71875 9.328125 16.59375 8.109375 
Q 21.484375 6.890625 26.8125 6.890625 
Q 36.078125 6.890625 40.9375 10.546875 
Q 45.796875 14.203125 45.796875 21.1875 
Q 45.796875 27.640625 41.28125 31.265625 
Q 36.765625 34.90625 28.71875 34.90625 
L 20.21875 34.90625 
L 20.21875 43.015625 
L 29.109375 43.015625 
Q 36.375 43.015625 40.234375 45.921875 
Q 44.09375 48.828125 44.09375 54.296875 
Q 44.09375 59.90625 40.109375 62.90625 
Q 36.140625 65.921875 28.71875 65.921875 
Q 24.65625 65.921875 20.015625 65.03125 
Q 15.375 64.15625 9.8125 62.3125 
L 9.8125 71.09375 
Q 15.4375 72.65625 20.34375 73.4375 
Q 25.25 74.21875 29.59375 74.21875 
Q 40.828125 74.21875 47.359375 69.109375 
Q 53.90625 64.015625 53.90625 55.328125 
Q 53.90625 49.265625 50.4375 45.09375 
Q 46.96875 40.921875 40.578125 39.3125 
z
" id="DejaVuSans-51"/>
      <path d="M 19.671875 64.796875 
L 19.671875 8.109375 
L 31.59375 8.109375 
Q 46.6875 8.109375 53.6875 14.9375 
Q 60.6875 21.78125 60.6875 36.53125 
Q 60.6875 51.171875 53.6875 57.984375 
Q 46.6875 64.796875 31.59375 64.796875 
z
M 9.8125 72.90625 
L 30.078125 72.90625 
Q 51.265625 72.90625 61.171875 64.09375 
Q 71.09375 55.28125 71.09375 36.53125 
Q 71.09375 17.671875 61.125 8.828125 
Q 51.171875 0 30.078125 0 
L 9.8125 0 
z
" id="DejaVuSans-68"/>
     </defs>
     <use xlink:href="#DejaVuSans-98"/>
     <use x="63.476562" xlink:href="#DejaVuSans-98"/>
     <use x="126.953125" xlink:href="#DejaVuSans-111"/>
     <use x="188.134766" xlink:href="#DejaVuSans-98"/>
     <use x="251.611328" xlink:href="#DejaVuSans-45"/>
     <use x="287.695312" xlink:href="#DejaVuSans-99"/>
     <use x="342.675781" xlink:href="#DejaVuSans-111"/>
     <use x="403.857422" xlink:href="#DejaVuSans-110"/>
     <use x="467.236328" xlink:href="#DejaVuSans-115"/>
     <use x="519.335938" xlink:href="#DejaVuSans-116"/>
     <use x="558.544922" xlink:href="#DejaVuSans-114"/>
     <use x="599.658203" xlink:href="#DejaVuSans-97"/>
     <use x="660.9375" xlink:href="#DejaVuSans-105"/>
     <use x="688.720703" xlink:href="#DejaVuSans-110"/>
     <use x="752.099609" xlink:href="#DejaVuSans-101"/>
     <use x="813.623047" xlink:href="#DejaVuSans-100"/>
     <use x="877.099609" xlink:href="#DejaVuSans-32"/>
     <use x="908.886719" xlink:href="#DejaVuSans-102"/>
     <use x="944.091797" xlink:href="#DejaVuSans-53"/>
     <use x="1007.714844" xlink:href="#DejaVuSans-51"/>
     <use x="1071.337891" xlink:href="#DejaVuSans-44"/>
     <use x="1103.125" xlink:href="#DejaVuSans-32"/>
     <use x="1134.912109" xlink:href="#DejaVuSans-51"/>
     <use x="1198.535156" xlink:href="#DejaVuSans-45"/>
     <use x="1234.619141" xlink:href="#DejaVuSans-68"/>
    </g>
    <!-- 41 targets: 100..1e-06 -->
    <g transform="translate(60.632064 49.533135)scale(0.102 -0.102)">
     <defs>
      <path d="M 11.71875 12.40625 
L 22.015625 12.40625 
L 22.015625 0 
L 11.71875 0 
z
M 11.71875 51.703125 
L 22.015625 51.703125 
L 22.015625 39.3125 
L 11.71875 39.3125 
z
" id="DejaVuSans-58"/>
     </defs>
     <use xlink:href="#DejaVuSans-52"/>
     <use x="63.623047" xlink:href="#DejaVuSans-49"/>
     <use x="127.246094" xlink:href="#DejaVuSans-32"/>
     <use x="159.033203" xlink:href="#DejaVuSans-116"/>
     <use x="198.242188" xlink:href="#DejaVuSans-97"/>
     <use x="259.521484" xlink:href="#DejaVuSans-114"/>
     <use x="298.884766" xlink:href="#DejaVuSans-103"/>
     <use x="362.361328" xlink:href="#DejaVuSans-101"/>
     <use x="423.884766" xlink:href="#DejaVuSans-116"/>
     <use x="463.09375" xlink:href="#DejaVuSans-115"/>
     <use x="515.193359" xlink:href="#DejaVuSans-58"/>
     <use x="548.884766" xlink:href="#DejaVuSans-32"/>
     <use x="580.671875" xlink:href="#DejaVuSans-49"/>
     <use x="644.294922" xlink:href="#DejaVuSans-48"/>
     <use x="707.917969" xlink:href="#DejaVuSans-48"/>
     <use x="771.541016" xlink:href="#DejaVuSans-46"/>
     <use x="803.328125" xlink:href="#DejaVuSans-46"/>
     <use x="835.115234" xlink:href="#DejaVuSans-49"/>
     <use x="898.738281" xlink:href="#DejaVuSans-101"/>
     <use x="960.261719" xlink:href="#DejaVuSans-45"/>
     <use x="996.345703" xlink:href="#DejaVuSans-48"/>
     <use x="1059.96875" xlink:href="#DejaVuSans-54"/>
    </g>
    <!-- evals = f-evals + g-evals -->
    <g transform="translate(60.632064 60.954904)scale(0.102 -0.102)">
     <defs>
      <path d="M 10.59375 45.40625 
L 73.1875 45.40625 
L 73.1875 37.203125 
L 10.59375 37.203125 
z
M 10.59375 25.484375 
L 73.1875 25.484375 
L 73.1875 17.1875 
L 10.59375 17.1875 
z
" id="DejaVuSans-61"/>
      <path d="M 46 62.703125 
L 46 35.5 
L 73.1875 35.5 
L 73.1875 27.203125 
L 46 27.203125 
L 46 0 
L 37.796875 0 
L 37.796875 27.203125 
L 10.59375 27.203125 
L 10.59375 35.5 
L 37.796875 35.5 
L 37.796875 62.703125 
z
" id="DejaVuSans-43"/>
     </defs>
     <use xlink:href="#DejaVuSans-101"/>
     <use x="61.523438" xlink:href="#DejaVuSans-118"/>
     <use x="120.703125" xlink:href="#DejaVuSans-97"/>
     <use x="181.982422" xlink:href="#DejaVuSans-108"/>
     <use x="209.765625" xlink:href="#DejaVuSans-115"/>
     <use x="261.865234" xlink:href="#DejaVuSans-32"/>
     <use x="293.652344" xlink:href="#DejaVuSans-61"/>
     <use x="377.441406" xlink:href="#DejaVuSans-32"/>
     <use x="409.228516" xlink:href="#DejaVuSans-102"/>
     <use x="438.933594" xlink:href="#DejaVuSans-45"/>
     <use x="475.017578" xlink:href="#DejaVuSans-101"/>
     <use x="536.541016" xlink:href="#DejaVuSans-118"/>
     <use x="595.720703" xlink:href="#DejaVuSans-97"/>
     <use x="657" xlink:href="#DejaVuSans-108"/>
     <use x="684.783203" xlink:href="#DejaVuSans-115"/>
     <use x="736.882812" xlink:href="#DejaVuSans-32"/>
     <use x="768.669922" xlink:href="#DejaVuSans-43"/>
     <use x="852.458984" xlink:href="#DejaVuSans-32"/>
     <use x="884.246094" xlink:href="#DejaVuSans-103"/>
     <use x="947.722656" xlink:href="#DejaVuSans-45"/>
     <use x="983.806641" xlink:href="#DejaVuSans-101"/>
     <use x="1045.330078" xlink:href="#DejaVuSans-118"/>
     <use x="1104.509766" xlink:href="#DejaVuSans-97"/>
     <use x="1165.789062" xlink:href="#DejaVuSans-108"/>
     <use x="1193.572266" xlink:href="#DejaVuSans-115"/>
    </g>
    <!-- 15 instances -->
    <g transform="translate(60.632064 72.376672)scale(0.102 -0.102)">
     <use xlink:href="#DejaVuSans-49"/>
     <use x="63.623047" xlink:href="#DejaVuSans-53"/>
     <use x="127.246094" xlink:href="#DejaVuSans-32"/>
     <use x="159.033203" xlink:href="#DejaVuSans-105"/>
     <use x="186.816406" xlink:href="#DejaVuSans-110"/>
     <use x="250.195312" xlink:href="#DejaVuSans-115"/>
     <use x="302.294922" xlink:href="#DejaVuSans-116"/>
     <use x="341.503906" xlink:href="#DejaVuSans-97"/>
     <use x="402.783203" xlink:href="#DejaVuSans-110"/>
     <use x="466.162109" xlink:href="#DejaVuSans-99"/>
     <use x="521.142578" xlink:href="#DejaVuSans-101"/>
     <use x="582.666016" xlink:href="#DejaVuSans-115"/>
    </g>
   </g>
   <g id="text_18">
    <!-- v2.4.152 -->
    <g style="fill:#808080;" transform="translate(187.15945 294.151352)scale(0.1 -0.1)">
     <use xlink:href="#DejaVuSans-118"/>
     <use x="59.179688" xlink:href="#DejaVuSans-50"/>
     <use x="122.802734" xlink:href="#DejaVuSans-46"/>
     <use x="154.589844" xlink:href="#DejaVuSans-52"/>
     <use x="218.212891" xlink:href="#DejaVuSans-46"/>
     <use x="250" xlink:href="#DejaVuSans-49"/>
     <use x="313.623047" xlink:href="#DejaVuSans-53"/>
     <use x="377.246094" xlink:href="#DejaVuSans-50"/>
    </g>
   </g>
   <g id="text_19">
    <!-- 53 Rot. Rastrigin, m=9+int(3n/2) -->
    <g transform="translate(43.582887 21.648)scale(0.2 -0.2)">
     <defs>
      <path d="M 44.390625 34.1875 
Q 47.5625 33.109375 50.5625 29.59375 
Q 53.5625 26.078125 56.59375 19.921875 
L 66.609375 0 
L 56 0 
L 46.6875 18.703125 
Q 43.0625 26.03125 39.671875 28.421875 
Q 36.28125 30.8125 30.421875 30.8125 
L 19.671875 30.8125 
L 19.671875 0 
L 9.8125 0 
L 9.8125 72.90625 
L 32.078125 72.90625 
Q 44.578125 72.90625 50.734375 67.671875 
Q 56.890625 62.453125 56.890625 51.90625 
Q 56.890625 45.015625 53.6875 40.46875 
Q 50.484375 35.9375 44.390625 34.1875 
z
M 19.671875 64.796875 
L 19.671875 38.921875 
L 32.078125 38.921875 
Q 39.203125 38.921875 42.84375 42.21875 
Q 46.484375 45.515625 46.484375 51.90625 
Q 46.484375 58.296875 42.84375 61.546875 
Q 39.203125 64.796875 32.078125 64.796875 
z
" id="DejaVuSans-82"/>
      <path d="M 10.984375 1.515625 
L 10.984375 10.5 
Q 14.703125 8.734375 18.5 7.8125 
Q 22.3125 6.890625 25.984375 6.890625 
Q 35.75 6.890625 40.890625 13.453125 
Q 46.046875 20.015625 46.78125 33.40625 
Q 43.953125 29.203125 39.59375 26.953125 
Q 35.25 24.703125 29.984375 24.703125 
Q 19.046875 24.703125 12.671875 31.3125 
Q 6.296875 37.9375 6.296875 49.421875 
Q 6.296875 60.640625 12.9375 67.421875 
Q 19.578125 74.21875 30.609375 74.21875 
Q 43.265625 74.21875 49.921875 64.515625 
Q 56.59375 54.828125 56.59375 36.375 
Q 56.59375 19.140625 48.40625 8.859375 
Q 40.234375 -1.421875 26.421875 -1.421875 
Q 22.703125 -1.421875 18.890625 -0.6875 
Q 15.09375 0.046875 10.984375 1.515625 
z
M 30.609375 32.421875 
Q 37.25 32.421875 41.125 36.953125 
Q 45.015625 41.5 45.015625 49.421875 
Q 45.015625 57.28125 41.125 61.84375 
Q 37.25 66.40625 30.609375 66.40625 
Q 23.96875 66.40625 20.09375 61.84375 
Q 16.21875 57.28125 16.21875 49.421875 
Q 16.21875 41.5 20.09375 36.953125 
Q 23.96875 32.421875 30.609375 32.421875 
z
" id="DejaVuSans-57"/>
     </defs>
     <use xlink:href="#DejaVuSans-53"/>
     <use x="63.623047" xlink:href="#DejaVuSans-51"/>
     <use x="127.246094" xlink:href="#DejaVuSans-32"/>
     <use x="159.033203" xlink:href="#DejaVuSans-82"/>
     <use x="224.015625" xlink:href="#DejaVuSans-111"/>
     <use x="285.197266" xlink:href="#DejaVuSans-116"/>
     <use x="324.40625" xlink:href="#DejaVuSans-46"/>
     <use x="356.193359" xlink:href="#DejaVuSans-32"/>
     <use x="387.980469" xlink:href="#DejaVuSans-82"/>
     <use x="455.212891" xlink:href="#DejaVuSans-97"/>
     <use x="516.492188" xlink:href="#DejaVuSans-115"/>
     <use x="568.591797" xlink:href="#DejaVuSans-116"/>
     <use x="607.800781" xlink:href="#DejaVuSans-114"/>
     <use x="648.914062" xlink:href="#DejaVuSans-105"/>
     <use x="676.697266" xlink:href="#DejaVuSans-103"/>
     <use x="740.173828" xlink:href="#DejaVuSans-105"/>
     <use x="767.957031" xlink:href="#DejaVuSans-110"/>
     <use x="831.335938" xlink:href="#DejaVuSans-44"/>
     <use x="863.123047" xlink:href="#DejaVuSans-32"/>
     <use x="894.910156" xlink:href="#DejaVuSans-109"/>
     <use x="992.322266" xlink:href="#DejaVuSans-61"/>
     <use x="1076.111328" xlink:href="#DejaVuSans-57"/>
     <use x="1139.734375" xlink:href="#DejaVuSans-43"/>
     <use x="1223.523438" xlink:href="#DejaVuSans-105"/>
     <use x="1251.306641" xlink:href="#DejaVuSans-110"/>
     <use x="1314.685547" xlink:href="#DejaVuSans-116"/>
     <use x="1353.894531" xlink:href="#DejaVuSans-40"/>
     <use x="1392.908203" xlink:href="#DejaVuSans-51"/>
     <use x="1456.53125" xlink:href="#DejaVuSans-110"/>
     <use x="1519.910156" xlink:href="#DejaVuSans-47"/>
     <use x="1553.601562" xlink:href="#DejaVuSans-50"/>
     <use x="1617.224609" xlink:href="#DejaVuSans-41"/>
    </g>
   </g>
  </g>
 </g>
 <defs>
  <clipPath id="pc2a55de91c">
   <rect height="271.296" width="303.2064" x="57.6" y="27.648"/>
  </clipPath>
 </defs>
</svg>
