<?xml version="1.0" encoding="utf-8" standalone="no"?>
<!DOCTYPE svg PUBLIC "-//W3C//DTD SVG 1.1//EN"
  "http://www.w3.org/Graphics/SVG/1.1/DTD/svg11.dtd">
<!-- Created with matplotlib (https://matplotlib.org/) -->
<svg height="345.6pt" version="1.1" viewBox="0 0 460.8 345.6" width="460.8pt" xmlns="http://www.w3.org/2000/svg" xmlns:xlink="http://www.w3.org/1999/xlink">
 <metadata>
  <rdf:RDF xmlns:cc="http://creativecommons.org/ns#" xmlns:dc="http://purl.org/dc/elements/1.1/" xmlns:rdf="http://www.w3.org/1999/02/22-rdf-syntax-ns#">
   <cc:Work>
    <dc:type rdf:resource="http://purl.org/dc/dcmitype/StillImage"/>
    <dc:date>2022-02-08T12:05:30.252217</dc:date>
    <dc:format>image/svg+xml</dc:format>
    <dc:creator>
     <cc:Agent>
      <dc:title>Matplotlib v3.3.3, https://matplotlib.org/</dc:title>
     </cc:Agent>
    </dc:creator>
   </cc:Work>
  </rdf:RDF>
 </metadata>
 <defs>
  <style type="text/css">*{stroke-linecap:butt;stroke-linejoin:round;}</style>
 </defs>
 <g id="figure_1">
  <g id="patch_1">
   <path d="M 0 345.6 
L 460.8 345.6 
L 460.8 0 
L 0 0 
z
" style="fill:#ffffff;"/>
  </g>
  <g id="axes_1">
   <g id="patch_2">
    <path d="M 57.6 298.944 
L 360.8064 298.944 
L 360.8064 27.648 
L 57.6 27.648 
z
" style="fill:#ffffff;"/>
   </g>
   <g id="matplotlib.axis_1">
    <g id="xtick_1">
     <g id="line2d_1">
      <path clip-path="url(#p2e7c66de6d)" d="M 57.6 298.944 
L 57.6 27.648 
" style="fill:none;stroke:#b0b0b0;stroke-linecap:square;stroke-width:0.8;"/>
     </g>
     <g id="line2d_2">
      <defs>
       <path d="M 0 0 
L 0 3.5 
" id="md40832b79d" style="stroke:#000000;stroke-width:0.8;"/>
      </defs>
      <g>
       <use style="stroke:#000000;stroke-width:0.8;" x="57.6" xlink:href="#md40832b79d" y="298.944"/>
      </g>
     </g>
     <g id="text_1">
      <!-- 0 -->
      <g transform="translate(52.191875 318.861344)scale(0.17 -0.17)">
       <defs>
        <path d="M 31.78125 66.40625 
Q 24.171875 66.40625 20.328125 58.90625 
Q 16.5 51.421875 16.5 36.375 
Q 16.5 21.390625 20.328125 13.890625 
Q 24.171875 6.390625 31.78125 6.390625 
Q 39.453125 6.390625 43.28125 13.890625 
Q 47.125 21.390625 47.125 36.375 
Q 47.125 51.421875 43.28125 58.90625 
Q 39.453125 66.40625 31.78125 66.40625 
z
M 31.78125 74.21875 
Q 44.046875 74.21875 50.515625 64.515625 
Q 56.984375 54.828125 56.984375 36.375 
Q 56.984375 17.96875 50.515625 8.265625 
Q 44.046875 -1.421875 31.78125 -1.421875 
Q 19.53125 -1.421875 13.0625 8.265625 
Q 6.59375 17.96875 6.59375 36.375 
Q 6.59375 54.828125 13.0625 64.515625 
Q 19.53125 74.21875 31.78125 74.21875 
z
" id="DejaVuSans-48"/>
       </defs>
       <use xlink:href="#DejaVuSans-48"/>
      </g>
     </g>
    </g>
    <g id="xtick_2">
     <g id="line2d_3">
      <path clip-path="url(#p2e7c66de6d)" d="M 144.2304 298.944 
L 144.2304 27.648 
" style="fill:none;stroke:#b0b0b0;stroke-linecap:square;stroke-width:0.8;"/>
     </g>
     <g id="line2d_4">
      <g>
       <use style="stroke:#000000;stroke-width:0.8;" x="144.2304" xlink:href="#md40832b79d" y="298.944"/>
      </g>
     </g>
     <g id="text_2">
      <!-- 2 -->
      <g transform="translate(138.822275 318.861344)scale(0.17 -0.17)">
       <defs>
        <path d="M 19.1875 8.296875 
L 53.609375 8.296875 
L 53.609375 0 
L 7.328125 0 
L 7.328125 8.296875 
Q 12.9375 14.109375 22.625 23.890625 
Q 32.328125 33.6875 34.8125 36.53125 
Q 39.546875 41.84375 41.421875 45.53125 
Q 43.3125 49.21875 43.3125 52.78125 
Q 43.3125 58.59375 39.234375 62.25 
Q 35.15625 65.921875 28.609375 65.921875 
Q 23.96875 65.921875 18.8125 64.3125 
Q 13.671875 62.703125 7.8125 59.421875 
L 7.8125 69.390625 
Q 13.765625 71.78125 18.9375 73 
Q 24.125 74.21875 28.421875 74.21875 
Q 39.75 74.21875 46.484375 68.546875 
Q 53.21875 62.890625 53.21875 53.421875 
Q 53.21875 48.921875 51.53125 44.890625 
Q 49.859375 40.875 45.40625 35.40625 
Q 44.1875 33.984375 37.640625 27.21875 
Q 31.109375 20.453125 19.1875 8.296875 
z
" id="DejaVuSans-50"/>
       </defs>
       <use xlink:href="#DejaVuSans-50"/>
      </g>
     </g>
    </g>
    <g id="xtick_3">
     <g id="line2d_5">
      <path clip-path="url(#p2e7c66de6d)" d="M 230.8608 298.944 
L 230.8608 27.648 
" style="fill:none;stroke:#b0b0b0;stroke-linecap:square;stroke-width:0.8;"/>
     </g>
     <g id="line2d_6">
      <g>
       <use style="stroke:#000000;stroke-width:0.8;" x="230.8608" xlink:href="#md40832b79d" y="298.944"/>
      </g>
     </g>
     <g id="text_3">
      <!-- 4 -->
      <g transform="translate(225.452675 318.861344)scale(0.17 -0.17)">
       <defs>
        <path d="M 37.796875 64.3125 
L 12.890625 25.390625 
L 37.796875 25.390625 
z
M 35.203125 72.90625 
L 47.609375 72.90625 
L 47.609375 25.390625 
L 58.015625 25.390625 
L 58.015625 17.1875 
L 47.609375 17.1875 
L 47.609375 0 
L 37.796875 0 
L 37.796875 17.1875 
L 4.890625 17.1875 
L 4.890625 26.703125 
z
" id="DejaVuSans-52"/>
       </defs>
       <use xlink:href="#DejaVuSans-52"/>
      </g>
     </g>
    </g>
    <g id="xtick_4">
     <g id="line2d_7">
      <path clip-path="url(#p2e7c66de6d)" d="M 317.4912 298.944 
L 317.4912 27.648 
" style="fill:none;stroke:#b0b0b0;stroke-linecap:square;stroke-width:0.8;"/>
     </g>
     <g id="line2d_8">
      <g>
       <use style="stroke:#000000;stroke-width:0.8;" x="317.4912" xlink:href="#md40832b79d" y="298.944"/>
      </g>
     </g>
     <g id="text_4">
      <!-- 6 -->
      <g transform="translate(312.083075 318.861344)scale(0.17 -0.17)">
       <defs>
        <path d="M 33.015625 40.375 
Q 26.375 40.375 22.484375 35.828125 
Q 18.609375 31.296875 18.609375 23.390625 
Q 18.609375 15.53125 22.484375 10.953125 
Q 26.375 6.390625 33.015625 6.390625 
Q 39.65625 6.390625 43.53125 10.953125 
Q 47.40625 15.53125 47.40625 23.390625 
Q 47.40625 31.296875 43.53125 35.828125 
Q 39.65625 40.375 33.015625 40.375 
z
M 52.59375 71.296875 
L 52.59375 62.3125 
Q 48.875 64.0625 45.09375 64.984375 
Q 41.3125 65.921875 37.59375 65.921875 
Q 27.828125 65.921875 22.671875 59.328125 
Q 17.53125 52.734375 16.796875 39.40625 
Q 19.671875 43.65625 24.015625 45.921875 
Q 28.375 48.1875 33.59375 48.1875 
Q 44.578125 48.1875 50.953125 41.515625 
Q 57.328125 34.859375 57.328125 23.390625 
Q 57.328125 12.15625 50.6875 5.359375 
Q 44.046875 -1.421875 33.015625 -1.421875 
Q 20.359375 -1.421875 13.671875 8.265625 
Q 6.984375 17.96875 6.984375 36.375 
Q 6.984375 53.65625 15.1875 63.9375 
Q 23.390625 74.21875 37.203125 74.21875 
Q 40.921875 74.21875 44.703125 73.484375 
Q 48.484375 72.75 52.59375 71.296875 
z
" id="DejaVuSans-54"/>
       </defs>
       <use xlink:href="#DejaVuSans-54"/>
      </g>
     </g>
    </g>
    <g id="xtick_5">
     <g id="line2d_9">
      <path clip-path="url(#p2e7c66de6d)" d="M 100.9152 298.944 
L 100.9152 27.648 
" style="fill:none;stroke:#b0b0b0;stroke-linecap:square;stroke-width:0.8;"/>
     </g>
     <g id="line2d_10">
      <defs>
       <path d="M 0 0 
L 0 2 
" id="m3759aa584b" style="stroke:#000000;stroke-width:0.6;"/>
      </defs>
      <g>
       <use style="stroke:#000000;stroke-width:0.6;" x="100.9152" xlink:href="#m3759aa584b" y="298.944"/>
      </g>
     </g>
    </g>
    <g id="xtick_6">
     <g id="line2d_11">
      <path clip-path="url(#p2e7c66de6d)" d="M 187.5456 298.944 
L 187.5456 27.648 
" style="fill:none;stroke:#b0b0b0;stroke-linecap:square;stroke-width:0.8;"/>
     </g>
     <g id="line2d_12">
      <g>
       <use style="stroke:#000000;stroke-width:0.6;" x="187.5456" xlink:href="#m3759aa584b" y="298.944"/>
      </g>
     </g>
    </g>
    <g id="xtick_7">
     <g id="line2d_13">
      <path clip-path="url(#p2e7c66de6d)" d="M 274.176 298.944 
L 274.176 27.648 
" style="fill:none;stroke:#b0b0b0;stroke-linecap:square;stroke-width:0.8;"/>
     </g>
     <g id="line2d_14">
      <g>
       <use style="stroke:#000000;stroke-width:0.6;" x="274.176" xlink:href="#m3759aa584b" y="298.944"/>
      </g>
     </g>
    </g>
    <g id="xtick_8">
     <g id="line2d_15">
      <path clip-path="url(#p2e7c66de6d)" d="M 360.8064 298.944 
L 360.8064 27.648 
" style="fill:none;stroke:#b0b0b0;stroke-linecap:square;stroke-width:0.8;"/>
     </g>
     <g id="line2d_16">
      <g>
       <use style="stroke:#000000;stroke-width:0.6;" x="360.8064" xlink:href="#m3759aa584b" y="298.944"/>
      </g>
     </g>
    </g>
    <g id="text_5">
     <!-- log10(evals / dimension) -->
     <g transform="translate(104.238825 339.314156)scale(0.17 -0.17)">
      <defs>
       <path d="M 9.421875 75.984375 
L 18.40625 75.984375 
L 18.40625 0 
L 9.421875 0 
z
" id="DejaVuSans-108"/>
       <path d="M 30.609375 48.390625 
Q 23.390625 48.390625 19.1875 42.75 
Q 14.984375 37.109375 14.984375 27.296875 
Q 14.984375 17.484375 19.15625 11.84375 
Q 23.34375 6.203125 30.609375 6.203125 
Q 37.796875 6.203125 41.984375 11.859375 
Q 46.1875 17.53125 46.1875 27.296875 
Q 46.1875 37.015625 41.984375 42.703125 
Q 37.796875 48.390625 30.609375 48.390625 
z
M 30.609375 56 
Q 42.328125 56 49.015625 48.375 
Q 55.71875 40.765625 55.71875 27.296875 
Q 55.71875 13.875 49.015625 6.21875 
Q 42.328125 -1.421875 30.609375 -1.421875 
Q 18.84375 -1.421875 12.171875 6.21875 
Q 5.515625 13.875 5.515625 27.296875 
Q 5.515625 40.765625 12.171875 48.375 
Q 18.84375 56 30.609375 56 
z
" id="DejaVuSans-111"/>
       <path d="M 45.40625 27.984375 
Q 45.40625 37.75 41.375 43.109375 
Q 37.359375 48.484375 30.078125 48.484375 
Q 22.859375 48.484375 18.828125 43.109375 
Q 14.796875 37.75 14.796875 27.984375 
Q 14.796875 18.265625 18.828125 12.890625 
Q 22.859375 7.515625 30.078125 7.515625 
Q 37.359375 7.515625 41.375 12.890625 
Q 45.40625 18.265625 45.40625 27.984375 
z
M 54.390625 6.78125 
Q 54.390625 -7.171875 48.1875 -13.984375 
Q 42 -20.796875 29.203125 -20.796875 
Q 24.46875 -20.796875 20.265625 -20.09375 
Q 16.0625 -19.390625 12.109375 -17.921875 
L 12.109375 -9.1875 
Q 16.0625 -11.328125 19.921875 -12.34375 
Q 23.78125 -13.375 27.78125 -13.375 
Q 36.625 -13.375 41.015625 -8.765625 
Q 45.40625 -4.15625 45.40625 5.171875 
L 45.40625 9.625 
Q 42.625 4.78125 38.28125 2.390625 
Q 33.9375 0 27.875 0 
Q 17.828125 0 11.671875 7.65625 
Q 5.515625 15.328125 5.515625 27.984375 
Q 5.515625 40.671875 11.671875 48.328125 
Q 17.828125 56 27.875 56 
Q 33.9375 56 38.28125 53.609375 
Q 42.625 51.21875 45.40625 46.390625 
L 45.40625 54.6875 
L 54.390625 54.6875 
z
" id="DejaVuSans-103"/>
       <path d="M 12.40625 8.296875 
L 28.515625 8.296875 
L 28.515625 63.921875 
L 10.984375 60.40625 
L 10.984375 69.390625 
L 28.421875 72.90625 
L 38.28125 72.90625 
L 38.28125 8.296875 
L 54.390625 8.296875 
L 54.390625 0 
L 12.40625 0 
z
" id="DejaVuSans-49"/>
       <path d="M 31 75.875 
Q 24.46875 64.65625 21.28125 53.65625 
Q 18.109375 42.671875 18.109375 31.390625 
Q 18.109375 20.125 21.3125 9.0625 
Q 24.515625 -2 31 -13.1875 
L 23.1875 -13.1875 
Q 15.875 -1.703125 12.234375 9.375 
Q 8.59375 20.453125 8.59375 31.390625 
Q 8.59375 42.28125 12.203125 53.3125 
Q 15.828125 64.359375 23.1875 75.875 
z
" id="DejaVuSans-40"/>
       <path d="M 56.203125 29.59375 
L 56.203125 25.203125 
L 14.890625 25.203125 
Q 15.484375 15.921875 20.484375 11.0625 
Q 25.484375 6.203125 34.421875 6.203125 
Q 39.59375 6.203125 44.453125 7.46875 
Q 49.3125 8.734375 54.109375 11.28125 
L 54.109375 2.78125 
Q 49.265625 0.734375 44.1875 -0.34375 
Q 39.109375 -1.421875 33.890625 -1.421875 
Q 20.796875 -1.421875 13.15625 6.1875 
Q 5.515625 13.8125 5.515625 26.8125 
Q 5.515625 40.234375 12.765625 48.109375 
Q 20.015625 56 32.328125 56 
Q 43.359375 56 49.78125 48.890625 
Q 56.203125 41.796875 56.203125 29.59375 
z
M 47.21875 32.234375 
Q 47.125 39.59375 43.09375 43.984375 
Q 39.0625 48.390625 32.421875 48.390625 
Q 24.90625 48.390625 20.390625 44.140625 
Q 15.875 39.890625 15.1875 32.171875 
z
" id="DejaVuSans-101"/>
       <path d="M 2.984375 54.6875 
L 12.5 54.6875 
L 29.59375 8.796875 
L 46.6875 54.6875 
L 56.203125 54.6875 
L 35.6875 0 
L 23.484375 0 
z
" id="DejaVuSans-118"/>
       <path d="M 34.28125 27.484375 
Q 23.390625 27.484375 19.1875 25 
Q 14.984375 22.515625 14.984375 16.5 
Q 14.984375 11.71875 18.140625 8.90625 
Q 21.296875 6.109375 26.703125 6.109375 
Q 34.1875 6.109375 38.703125 11.40625 
Q 43.21875 16.703125 43.21875 25.484375 
L 43.21875 27.484375 
z
M 52.203125 31.203125 
L 52.203125 0 
L 43.21875 0 
L 43.21875 8.296875 
Q 40.140625 3.328125 35.546875 0.953125 
Q 30.953125 -1.421875 24.3125 -1.421875 
Q 15.921875 -1.421875 10.953125 3.296875 
Q 6 8.015625 6 15.921875 
Q 6 25.140625 12.171875 29.828125 
Q 18.359375 34.515625 30.609375 34.515625 
L 43.21875 34.515625 
L 43.21875 35.40625 
Q 43.21875 41.609375 39.140625 45 
Q 35.0625 48.390625 27.6875 48.390625 
Q 23 48.390625 18.546875 47.265625 
Q 14.109375 46.140625 10.015625 43.890625 
L 10.015625 52.203125 
Q 14.9375 54.109375 19.578125 55.046875 
Q 24.21875 56 28.609375 56 
Q 40.484375 56 46.34375 49.84375 
Q 52.203125 43.703125 52.203125 31.203125 
z
" id="DejaVuSans-97"/>
       <path d="M 44.28125 53.078125 
L 44.28125 44.578125 
Q 40.484375 46.53125 36.375 47.5 
Q 32.28125 48.484375 27.875 48.484375 
Q 21.1875 48.484375 17.84375 46.4375 
Q 14.5 44.390625 14.5 40.28125 
Q 14.5 37.15625 16.890625 35.375 
Q 19.28125 33.59375 26.515625 31.984375 
L 29.59375 31.296875 
Q 39.15625 29.25 43.1875 25.515625 
Q 47.21875 21.78125 47.21875 15.09375 
Q 47.21875 7.46875 41.1875 3.015625 
Q 35.15625 -1.421875 24.609375 -1.421875 
Q 20.21875 -1.421875 15.453125 -0.5625 
Q 10.6875 0.296875 5.421875 2 
L 5.421875 11.28125 
Q 10.40625 8.6875 15.234375 7.390625 
Q 20.0625 6.109375 24.8125 6.109375 
Q 31.15625 6.109375 34.5625 8.28125 
Q 37.984375 10.453125 37.984375 14.40625 
Q 37.984375 18.0625 35.515625 20.015625 
Q 33.0625 21.96875 24.703125 23.78125 
L 21.578125 24.515625 
Q 13.234375 26.265625 9.515625 29.90625 
Q 5.8125 33.546875 5.8125 39.890625 
Q 5.8125 47.609375 11.28125 51.796875 
Q 16.75 56 26.8125 56 
Q 31.78125 56 36.171875 55.265625 
Q 40.578125 54.546875 44.28125 53.078125 
z
" id="DejaVuSans-115"/>
       <path id="DejaVuSans-32"/>
       <path d="M 25.390625 72.90625 
L 33.6875 72.90625 
L 8.296875 -9.28125 
L 0 -9.28125 
z
" id="DejaVuSans-47"/>
       <path d="M 45.40625 46.390625 
L 45.40625 75.984375 
L 54.390625 75.984375 
L 54.390625 0 
L 45.40625 0 
L 45.40625 8.203125 
Q 42.578125 3.328125 38.25 0.953125 
Q 33.9375 -1.421875 27.875 -1.421875 
Q 17.96875 -1.421875 11.734375 6.484375 
Q 5.515625 14.40625 5.515625 27.296875 
Q 5.515625 40.1875 11.734375 48.09375 
Q 17.96875 56 27.875 56 
Q 33.9375 56 38.25 53.625 
Q 42.578125 51.265625 45.40625 46.390625 
z
M 14.796875 27.296875 
Q 14.796875 17.390625 18.875 11.75 
Q 22.953125 6.109375 30.078125 6.109375 
Q 37.203125 6.109375 41.296875 11.75 
Q 45.40625 17.390625 45.40625 27.296875 
Q 45.40625 37.203125 41.296875 42.84375 
Q 37.203125 48.484375 30.078125 48.484375 
Q 22.953125 48.484375 18.875 42.84375 
Q 14.796875 37.203125 14.796875 27.296875 
z
" id="DejaVuSans-100"/>
       <path d="M 9.421875 54.6875 
L 18.40625 54.6875 
L 18.40625 0 
L 9.421875 0 
z
M 9.421875 75.984375 
L 18.40625 75.984375 
L 18.40625 64.59375 
L 9.421875 64.59375 
z
" id="DejaVuSans-105"/>
       <path d="M 52 44.1875 
Q 55.375 50.25 60.0625 53.125 
Q 64.75 56 71.09375 56 
Q 79.640625 56 84.28125 50.015625 
Q 88.921875 44.046875 88.921875 33.015625 
L 88.921875 0 
L 79.890625 0 
L 79.890625 32.71875 
Q 79.890625 40.578125 77.09375 44.375 
Q 74.3125 48.1875 68.609375 48.1875 
Q 61.625 48.1875 57.5625 43.546875 
Q 53.515625 38.921875 53.515625 30.90625 
L 53.515625 0 
L 44.484375 0 
L 44.484375 32.71875 
Q 44.484375 40.625 41.703125 44.40625 
Q 38.921875 48.1875 33.109375 48.1875 
Q 26.21875 48.1875 22.15625 43.53125 
Q 18.109375 38.875 18.109375 30.90625 
L 18.109375 0 
L 9.078125 0 
L 9.078125 54.6875 
L 18.109375 54.6875 
L 18.109375 46.1875 
Q 21.1875 51.21875 25.484375 53.609375 
Q 29.78125 56 35.6875 56 
Q 41.65625 56 45.828125 52.96875 
Q 50 49.953125 52 44.1875 
z
" id="DejaVuSans-109"/>
       <path d="M 54.890625 33.015625 
L 54.890625 0 
L 45.90625 0 
L 45.90625 32.71875 
Q 45.90625 40.484375 42.875 44.328125 
Q 39.84375 48.1875 33.796875 48.1875 
Q 26.515625 48.1875 22.3125 43.546875 
Q 18.109375 38.921875 18.109375 30.90625 
L 18.109375 0 
L 9.078125 0 
L 9.078125 54.6875 
L 18.109375 54.6875 
L 18.109375 46.1875 
Q 21.34375 51.125 25.703125 53.5625 
Q 30.078125 56 35.796875 56 
Q 45.21875 56 50.046875 50.171875 
Q 54.890625 44.34375 54.890625 33.015625 
z
" id="DejaVuSans-110"/>
       <path d="M 8.015625 75.875 
L 15.828125 75.875 
Q 23.140625 64.359375 26.78125 53.3125 
Q 30.421875 42.28125 30.421875 31.390625 
Q 30.421875 20.453125 26.78125 9.375 
Q 23.140625 -1.703125 15.828125 -13.1875 
L 8.015625 -13.1875 
Q 14.5 -2 17.703125 9.0625 
Q 20.90625 20.125 20.90625 31.390625 
Q 20.90625 42.671875 17.703125 53.65625 
Q 14.5 64.65625 8.015625 75.875 
z
" id="DejaVuSans-41"/>
      </defs>
      <use xlink:href="#DejaVuSans-108"/>
      <use x="27.783203" xlink:href="#DejaVuSans-111"/>
      <use x="88.964844" xlink:href="#DejaVuSans-103"/>
      <use x="152.441406" xlink:href="#DejaVuSans-49"/>
      <use x="216.064453" xlink:href="#DejaVuSans-48"/>
      <use x="279.6875" xlink:href="#DejaVuSans-40"/>
      <use x="318.701172" xlink:href="#DejaVuSans-101"/>
      <use x="380.224609" xlink:href="#DejaVuSans-118"/>
      <use x="439.404297" xlink:href="#DejaVuSans-97"/>
      <use x="500.683594" xlink:href="#DejaVuSans-108"/>
      <use x="528.466797" xlink:href="#DejaVuSans-115"/>
      <use x="580.566406" xlink:href="#DejaVuSans-32"/>
      <use x="612.353516" xlink:href="#DejaVuSans-47"/>
      <use x="646.044922" xlink:href="#DejaVuSans-32"/>
      <use x="677.832031" xlink:href="#DejaVuSans-100"/>
      <use x="741.308594" xlink:href="#DejaVuSans-105"/>
      <use x="769.091797" xlink:href="#DejaVuSans-109"/>
      <use x="866.503906" xlink:href="#DejaVuSans-101"/>
      <use x="928.027344" xlink:href="#DejaVuSans-110"/>
      <use x="991.40625" xlink:href="#DejaVuSans-115"/>
      <use x="1043.505859" xlink:href="#DejaVuSans-105"/>
      <use x="1071.289062" xlink:href="#DejaVuSans-111"/>
      <use x="1132.470703" xlink:href="#DejaVuSans-110"/>
      <use x="1195.849609" xlink:href="#DejaVuSans-41"/>
     </g>
    </g>
   </g>
   <g id="matplotlib.axis_2">
    <g id="ytick_1">
     <g id="line2d_17">
      <path clip-path="url(#p2e7c66de6d)" d="M 57.6 298.944 
L 360.8064 298.944 
" style="fill:none;stroke:#b0b0b0;stroke-linecap:square;stroke-width:0.8;"/>
     </g>
     <g id="line2d_18">
      <defs>
       <path d="M 0 0 
L -3.5 0 
" id="m494c9c14b6" style="stroke:#000000;stroke-width:0.8;"/>
      </defs>
      <g>
       <use style="stroke:#000000;stroke-width:0.8;" x="57.6" xlink:href="#m494c9c14b6" y="298.944"/>
      </g>
     </g>
     <g id="text_6">
      <!-- 0.0 -->
      <g transform="translate(25.155 305.02275)scale(0.16 -0.16)">
       <defs>
        <path d="M 10.6875 12.40625 
L 21 12.40625 
L 21 0 
L 10.6875 0 
z
" id="DejaVuSans-46"/>
       </defs>
       <use xlink:href="#DejaVuSans-48"/>
       <use x="63.623047" xlink:href="#DejaVuSans-46"/>
       <use x="95.410156" xlink:href="#DejaVuSans-48"/>
      </g>
     </g>
    </g>
    <g id="ytick_2">
     <g id="line2d_19">
      <path clip-path="url(#p2e7c66de6d)" d="M 57.6 244.6848 
L 360.8064 244.6848 
" style="fill:none;stroke:#b0b0b0;stroke-linecap:square;stroke-width:0.8;"/>
     </g>
     <g id="line2d_20">
      <g>
       <use style="stroke:#000000;stroke-width:0.8;" x="57.6" xlink:href="#m494c9c14b6" y="244.6848"/>
      </g>
     </g>
     <g id="text_7">
      <!-- 0.2 -->
      <g transform="translate(25.155 250.76355)scale(0.16 -0.16)">
       <use xlink:href="#DejaVuSans-48"/>
       <use x="63.623047" xlink:href="#DejaVuSans-46"/>
       <use x="95.410156" xlink:href="#DejaVuSans-50"/>
      </g>
     </g>
    </g>
    <g id="ytick_3">
     <g id="line2d_21">
      <path clip-path="url(#p2e7c66de6d)" d="M 57.6 190.4256 
L 360.8064 190.4256 
" style="fill:none;stroke:#b0b0b0;stroke-linecap:square;stroke-width:0.8;"/>
     </g>
     <g id="line2d_22">
      <g>
       <use style="stroke:#000000;stroke-width:0.8;" x="57.6" xlink:href="#m494c9c14b6" y="190.4256"/>
      </g>
     </g>
     <g id="text_8">
      <!-- 0.4 -->
      <g transform="translate(25.155 196.50435)scale(0.16 -0.16)">
       <use xlink:href="#DejaVuSans-48"/>
       <use x="63.623047" xlink:href="#DejaVuSans-46"/>
       <use x="95.410156" xlink:href="#DejaVuSans-52"/>
      </g>
     </g>
    </g>
    <g id="ytick_4">
     <g id="line2d_23">
      <path clip-path="url(#p2e7c66de6d)" d="M 57.6 136.1664 
L 360.8064 136.1664 
" style="fill:none;stroke:#b0b0b0;stroke-linecap:square;stroke-width:0.8;"/>
     </g>
     <g id="line2d_24">
      <g>
       <use style="stroke:#000000;stroke-width:0.8;" x="57.6" xlink:href="#m494c9c14b6" y="136.1664"/>
      </g>
     </g>
     <g id="text_9">
      <!-- 0.6 -->
      <g transform="translate(25.155 142.24515)scale(0.16 -0.16)">
       <use xlink:href="#DejaVuSans-48"/>
       <use x="63.623047" xlink:href="#DejaVuSans-46"/>
       <use x="95.410156" xlink:href="#DejaVuSans-54"/>
      </g>
     </g>
    </g>
    <g id="ytick_5">
     <g id="line2d_25">
      <path clip-path="url(#p2e7c66de6d)" d="M 57.6 81.9072 
L 360.8064 81.9072 
" style="fill:none;stroke:#b0b0b0;stroke-linecap:square;stroke-width:0.8;"/>
     </g>
     <g id="line2d_26">
      <g>
       <use style="stroke:#000000;stroke-width:0.8;" x="57.6" xlink:href="#m494c9c14b6" y="81.9072"/>
      </g>
     </g>
     <g id="text_10">
      <!-- 0.8 -->
      <g transform="translate(25.155 87.98595)scale(0.16 -0.16)">
       <defs>
        <path d="M 31.78125 34.625 
Q 24.75 34.625 20.71875 30.859375 
Q 16.703125 27.09375 16.703125 20.515625 
Q 16.703125 13.921875 20.71875 10.15625 
Q 24.75 6.390625 31.78125 6.390625 
Q 38.8125 6.390625 42.859375 10.171875 
Q 46.921875 13.96875 46.921875 20.515625 
Q 46.921875 27.09375 42.890625 30.859375 
Q 38.875 34.625 31.78125 34.625 
z
M 21.921875 38.8125 
Q 15.578125 40.375 12.03125 44.71875 
Q 8.5 49.078125 8.5 55.328125 
Q 8.5 64.0625 14.71875 69.140625 
Q 20.953125 74.21875 31.78125 74.21875 
Q 42.671875 74.21875 48.875 69.140625 
Q 55.078125 64.0625 55.078125 55.328125 
Q 55.078125 49.078125 51.53125 44.71875 
Q 48 40.375 41.703125 38.8125 
Q 48.828125 37.15625 52.796875 32.3125 
Q 56.78125 27.484375 56.78125 20.515625 
Q 56.78125 9.90625 50.3125 4.234375 
Q 43.84375 -1.421875 31.78125 -1.421875 
Q 19.734375 -1.421875 13.25 4.234375 
Q 6.78125 9.90625 6.78125 20.515625 
Q 6.78125 27.484375 10.78125 32.3125 
Q 14.796875 37.15625 21.921875 38.8125 
z
M 18.3125 54.390625 
Q 18.3125 48.734375 21.84375 45.5625 
Q 25.390625 42.390625 31.78125 42.390625 
Q 38.140625 42.390625 41.71875 45.5625 
Q 45.3125 48.734375 45.3125 54.390625 
Q 45.3125 60.0625 41.71875 63.234375 
Q 38.140625 66.40625 31.78125 66.40625 
Q 25.390625 66.40625 21.84375 63.234375 
Q 18.3125 60.0625 18.3125 54.390625 
z
" id="DejaVuSans-56"/>
       </defs>
       <use xlink:href="#DejaVuSans-48"/>
       <use x="63.623047" xlink:href="#DejaVuSans-46"/>
       <use x="95.410156" xlink:href="#DejaVuSans-56"/>
      </g>
     </g>
    </g>
    <g id="ytick_6">
     <g id="line2d_27">
      <path clip-path="url(#p2e7c66de6d)" d="M 57.6 27.648 
L 360.8064 27.648 
" style="fill:none;stroke:#b0b0b0;stroke-linecap:square;stroke-width:0.8;"/>
     </g>
     <g id="line2d_28">
      <g>
       <use style="stroke:#000000;stroke-width:0.8;" x="57.6" xlink:href="#m494c9c14b6" y="27.648"/>
      </g>
     </g>
     <g id="text_11">
      <!-- 1.0 -->
      <g transform="translate(25.155 33.72675)scale(0.16 -0.16)">
       <use xlink:href="#DejaVuSans-49"/>
       <use x="63.623047" xlink:href="#DejaVuSans-46"/>
       <use x="95.410156" xlink:href="#DejaVuSans-48"/>
      </g>
     </g>
    </g>
    <g id="text_12">
     <!-- Fraction of function,target pairs -->
     <g transform="translate(17.619531 297.681)rotate(-90)scale(0.17 -0.17)">
      <defs>
       <path d="M 9.8125 72.90625 
L 51.703125 72.90625 
L 51.703125 64.59375 
L 19.671875 64.59375 
L 19.671875 43.109375 
L 48.578125 43.109375 
L 48.578125 34.8125 
L 19.671875 34.8125 
L 19.671875 0 
L 9.8125 0 
z
" id="DejaVuSans-70"/>
       <path d="M 41.109375 46.296875 
Q 39.59375 47.171875 37.8125 47.578125 
Q 36.03125 48 33.890625 48 
Q 26.265625 48 22.1875 43.046875 
Q 18.109375 38.09375 18.109375 28.8125 
L 18.109375 0 
L 9.078125 0 
L 9.078125 54.6875 
L 18.109375 54.6875 
L 18.109375 46.1875 
Q 20.953125 51.171875 25.484375 53.578125 
Q 30.03125 56 36.53125 56 
Q 37.453125 56 38.578125 55.875 
Q 39.703125 55.765625 41.0625 55.515625 
z
" id="DejaVuSans-114"/>
       <path d="M 48.78125 52.59375 
L 48.78125 44.1875 
Q 44.96875 46.296875 41.140625 47.34375 
Q 37.3125 48.390625 33.40625 48.390625 
Q 24.65625 48.390625 19.8125 42.84375 
Q 14.984375 37.3125 14.984375 27.296875 
Q 14.984375 17.28125 19.8125 11.734375 
Q 24.65625 6.203125 33.40625 6.203125 
Q 37.3125 6.203125 41.140625 7.25 
Q 44.96875 8.296875 48.78125 10.40625 
L 48.78125 2.09375 
Q 45.015625 0.34375 40.984375 -0.53125 
Q 36.96875 -1.421875 32.421875 -1.421875 
Q 20.0625 -1.421875 12.78125 6.34375 
Q 5.515625 14.109375 5.515625 27.296875 
Q 5.515625 40.671875 12.859375 48.328125 
Q 20.21875 56 33.015625 56 
Q 37.15625 56 41.109375 55.140625 
Q 45.0625 54.296875 48.78125 52.59375 
z
" id="DejaVuSans-99"/>
       <path d="M 18.3125 70.21875 
L 18.3125 54.6875 
L 36.8125 54.6875 
L 36.8125 47.703125 
L 18.3125 47.703125 
L 18.3125 18.015625 
Q 18.3125 11.328125 20.140625 9.421875 
Q 21.96875 7.515625 27.59375 7.515625 
L 36.8125 7.515625 
L 36.8125 0 
L 27.59375 0 
Q 17.1875 0 13.234375 3.875 
Q 9.28125 7.765625 9.28125 18.015625 
L 9.28125 47.703125 
L 2.6875 47.703125 
L 2.6875 54.6875 
L 9.28125 54.6875 
L 9.28125 70.21875 
z
" id="DejaVuSans-116"/>
       <path d="M 37.109375 75.984375 
L 37.109375 68.5 
L 28.515625 68.5 
Q 23.6875 68.5 21.796875 66.546875 
Q 19.921875 64.59375 19.921875 59.515625 
L 19.921875 54.6875 
L 34.71875 54.6875 
L 34.71875 47.703125 
L 19.921875 47.703125 
L 19.921875 0 
L 10.890625 0 
L 10.890625 47.703125 
L 2.296875 47.703125 
L 2.296875 54.6875 
L 10.890625 54.6875 
L 10.890625 58.5 
Q 10.890625 67.625 15.140625 71.796875 
Q 19.390625 75.984375 28.609375 75.984375 
z
" id="DejaVuSans-102"/>
       <path d="M 8.5 21.578125 
L 8.5 54.6875 
L 17.484375 54.6875 
L 17.484375 21.921875 
Q 17.484375 14.15625 20.5 10.265625 
Q 23.53125 6.390625 29.59375 6.390625 
Q 36.859375 6.390625 41.078125 11.03125 
Q 45.3125 15.671875 45.3125 23.6875 
L 45.3125 54.6875 
L 54.296875 54.6875 
L 54.296875 0 
L 45.3125 0 
L 45.3125 8.40625 
Q 42.046875 3.421875 37.71875 1 
Q 33.40625 -1.421875 27.6875 -1.421875 
Q 18.265625 -1.421875 13.375 4.4375 
Q 8.5 10.296875 8.5 21.578125 
z
M 31.109375 56 
z
" id="DejaVuSans-117"/>
       <path d="M 11.71875 12.40625 
L 22.015625 12.40625 
L 22.015625 4 
L 14.015625 -11.625 
L 7.71875 -11.625 
L 11.71875 4 
z
" id="DejaVuSans-44"/>
       <path d="M 18.109375 8.203125 
L 18.109375 -20.796875 
L 9.078125 -20.796875 
L 9.078125 54.6875 
L 18.109375 54.6875 
L 18.109375 46.390625 
Q 20.953125 51.265625 25.265625 53.625 
Q 29.59375 56 35.59375 56 
Q 45.5625 56 51.78125 48.09375 
Q 58.015625 40.1875 58.015625 27.296875 
Q 58.015625 14.40625 51.78125 6.484375 
Q 45.5625 -1.421875 35.59375 -1.421875 
Q 29.59375 -1.421875 25.265625 0.953125 
Q 20.953125 3.328125 18.109375 8.203125 
z
M 48.6875 27.296875 
Q 48.6875 37.203125 44.609375 42.84375 
Q 40.53125 48.484375 33.40625 48.484375 
Q 26.265625 48.484375 22.1875 42.84375 
Q 18.109375 37.203125 18.109375 27.296875 
Q 18.109375 17.390625 22.1875 11.75 
Q 26.265625 6.109375 33.40625 6.109375 
Q 40.53125 6.109375 44.609375 11.75 
Q 48.6875 17.390625 48.6875 27.296875 
z
" id="DejaVuSans-112"/>
      </defs>
      <use xlink:href="#DejaVuSans-70"/>
      <use x="50.269531" xlink:href="#DejaVuSans-114"/>
      <use x="91.382812" xlink:href="#DejaVuSans-97"/>
      <use x="152.662109" xlink:href="#DejaVuSans-99"/>
      <use x="207.642578" xlink:href="#DejaVuSans-116"/>
      <use x="246.851562" xlink:href="#DejaVuSans-105"/>
      <use x="274.634766" xlink:href="#DejaVuSans-111"/>
      <use x="335.816406" xlink:href="#DejaVuSans-110"/>
      <use x="399.195312" xlink:href="#DejaVuSans-32"/>
      <use x="430.982422" xlink:href="#DejaVuSans-111"/>
      <use x="492.164062" xlink:href="#DejaVuSans-102"/>
      <use x="527.369141" xlink:href="#DejaVuSans-32"/>
      <use x="559.15625" xlink:href="#DejaVuSans-102"/>
      <use x="594.361328" xlink:href="#DejaVuSans-117"/>
      <use x="657.740234" xlink:href="#DejaVuSans-110"/>
      <use x="721.119141" xlink:href="#DejaVuSans-99"/>
      <use x="776.099609" xlink:href="#DejaVuSans-116"/>
      <use x="815.308594" xlink:href="#DejaVuSans-105"/>
      <use x="843.091797" xlink:href="#DejaVuSans-111"/>
      <use x="904.273438" xlink:href="#DejaVuSans-110"/>
      <use x="967.652344" xlink:href="#DejaVuSans-44"/>
      <use x="999.439453" xlink:href="#DejaVuSans-116"/>
      <use x="1038.648438" xlink:href="#DejaVuSans-97"/>
      <use x="1099.927734" xlink:href="#DejaVuSans-114"/>
      <use x="1139.291016" xlink:href="#DejaVuSans-103"/>
      <use x="1202.767578" xlink:href="#DejaVuSans-101"/>
      <use x="1264.291016" xlink:href="#DejaVuSans-116"/>
      <use x="1303.5" xlink:href="#DejaVuSans-32"/>
      <use x="1335.287109" xlink:href="#DejaVuSans-112"/>
      <use x="1398.763672" xlink:href="#DejaVuSans-97"/>
      <use x="1460.042969" xlink:href="#DejaVuSans-105"/>
      <use x="1487.826172" xlink:href="#DejaVuSans-114"/>
      <use x="1528.939453" xlink:href="#DejaVuSans-115"/>
     </g>
    </g>
   </g>
   <g id="line2d_29">
    <defs>
     <path d="M 0 1.5 
C 0.397805 1.5 0.77937 1.341951 1.06066 1.06066 
C 1.341951 0.77937 1.5 0.397805 1.5 0 
C 1.5 -0.397805 1.341951 -0.77937 1.06066 -1.06066 
C 0.77937 -1.341951 0.397805 -1.5 0 -1.5 
C -0.397805 -1.5 -0.77937 -1.341951 -1.06066 -1.06066 
C -1.341951 -0.77937 -1.5 -0.397805 -1.5 0 
C -1.5 0.397805 -1.341951 0.77937 -1.06066 1.06066 
C -0.77937 1.341951 -0.397805 1.5 0 1.5 
z
" id="mcbb5eff20a" style="stroke:#000080;"/>
    </defs>
    <g>
     <use style="fill:#000080;stroke:#000080;" x="162.241195" xlink:href="#mcbb5eff20a" y="27.648"/>
     <use style="fill:#000080;stroke:#000080;" x="162.241195" xlink:href="#mcbb5eff20a" y="27.648"/>
    </g>
   </g>
   <g id="line2d_30">
    <path d="M 87.876026 298.944 
L 87.876026 295.856078 
L 91.305777 295.856078 
L 91.305777 290.121366 
L 94.205591 290.121366 
L 94.205591 285.710049 
L 96.717523 285.710049 
L 96.717523 279.975337 
L 98.933205 279.975337 
L 98.933205 274.240624 
L 100.9152 274.240624 
L 100.9152 272.476098 
L 102.708132 272.476098 
L 102.708132 270.711571 
L 104.344952 270.711571 
L 104.344952 268.505912 
L 105.850679 268.505912 
L 105.850679 266.741385 
L 107.244765 266.741385 
L 107.244765 256.595356 
L 108.542628 256.595356 
L 108.542628 240.714615 
L 109.756698 240.714615 
L 109.756698 227.039532 
L 110.897141 227.039532 
L 110.897141 224.833873 
L 111.97238 224.833873 
L 111.97238 209.394263 
L 112.989468 209.394263 
L 112.989468 202.336156 
L 113.954374 202.336156 
L 113.954374 184.690888 
L 114.872193 184.690888 
L 114.872193 178.956176 
L 115.747307 178.956176 
L 115.747307 176.309385 
L 116.583514 176.309385 
L 116.583514 167.927883 
L 117.384126 167.927883 
L 117.384126 145.430166 
L 118.152051 145.430166 
L 118.152051 134.843005 
L 118.889854 134.843005 
L 118.889854 130.431688 
L 119.599808 130.431688 
L 119.599808 122.491317 
L 120.28394 122.491317 
L 120.28394 114.992078 
L 120.944062 114.992078 
L 120.944062 109.257366 
L 121.581803 109.257366 
L 121.581803 92.494361 
L 122.19863 92.494361 
L 122.19863 90.729834 
L 122.795872 90.729834 
L 122.795872 80.142673 
L 123.374735 80.142673 
L 123.374735 73.525698 
L 124.481616 73.525698 
L 124.481616 69.555512 
L 125.011554 69.555512 
L 125.011554 69.11438 
L 125.526971 69.11438 
L 125.526971 66.908722 
L 126.028642 66.908722 
L 126.028642 62.938537 
L 126.517282 62.938537 
L 126.517282 58.968351 
L 126.993549 58.968351 
L 126.993549 53.233639 
L 127.911368 53.233639 
L 127.911368 52.351376 
L 128.354013 52.351376 
L 128.354013 51.02798 
L 128.786481 51.02798 
L 128.786481 49.704585 
L 129.209231 49.704585 
L 129.209231 46.616663 
L 129.622688 46.616663 
L 129.622688 45.293268 
L 130.4233 45.293268 
L 130.4233 44.852137 
L 159.61025 44.852137 
L 159.61025 44.411005 
L 159.693121 44.411005 
L 159.693121 41.323083 
L 160.422971 41.323083 
L 160.422971 38.235161 
L 160.502345 38.235161 
L 160.502345 37.352898 
L 160.816532 37.352898 
L 160.816532 36.470634 
L 160.97168 36.470634 
L 160.97168 34.706107 
L 161.354042 34.706107 
L 161.354042 34.264976 
L 161.42959 34.264976 
L 161.42959 32.94158 
L 161.579783 32.94158 
L 161.579783 31.177054 
L 161.802848 31.177054 
L 161.802848 30.29479 
L 161.876619 30.29479 
L 161.876619 28.089132 
L 162.241195 28.089132 
L 162.241195 27.648 
L 360.8064 27.648 
" style="fill:none;stroke:#000080;stroke-linecap:square;stroke-width:1.5;"/>
   </g>
   <g id="line2d_31">
    <defs>
     <path d="M 0 6 
C 1.591219 6 3.117479 5.367802 4.242641 4.242641 
C 5.367802 3.117479 6 1.591219 6 0 
C 6 -1.591219 5.367802 -3.117479 4.242641 -4.242641 
C 3.117479 -5.367802 1.591219 -6 0 -6 
C -1.591219 -6 -3.117479 -5.367802 -4.242641 -4.242641 
C -5.367802 -3.117479 -6 -1.591219 -6 0 
C -6 1.591219 -5.367802 3.117479 -4.242641 4.242641 
C -3.117479 5.367802 -1.591219 6 0 6 
z
" id="m4b6df1bf25" style="stroke:#000080;stroke-width:1.5;"/>
    </defs>
    <g>
     <use style="fill-opacity:0;stroke:#000080;stroke-width:1.5;" x="109.756698" xlink:href="#m4b6df1bf25" y="240.714615"/>
     <use style="fill-opacity:0;stroke:#000080;stroke-width:1.5;" x="126.028642" xlink:href="#m4b6df1bf25" y="62.938537"/>
     <use style="fill-opacity:0;stroke:#000080;stroke-width:1.5;" x="162.241195" xlink:href="#m4b6df1bf25" y="28.089132"/>
     <use style="fill-opacity:0;stroke:#000080;stroke-width:1.5;" x="162.241195" xlink:href="#m4b6df1bf25" y="27.648"/>
     <use style="fill-opacity:0;stroke:#000080;stroke-width:1.5;" x="360.8064" xlink:href="#m4b6df1bf25" y="27.648"/>
    </g>
   </g>
   <g id="line2d_32">
    <path style="fill:none;stroke:#000080;stroke-linecap:square;stroke-width:1.5;"/>
    <g/>
   </g>
   <g id="line2d_33">
    <defs>
     <path d="M 0 1.5 
C 0.397805 1.5 0.77937 1.341951 1.06066 1.06066 
C 1.341951 0.77937 1.5 0.397805 1.5 0 
C 1.5 -0.397805 1.341951 -0.77937 1.06066 -1.06066 
C 0.77937 -1.341951 0.397805 -1.5 0 -1.5 
C -0.397805 -1.5 -0.77937 -1.341951 -1.06066 -1.06066 
C -1.341951 -0.77937 -1.5 -0.397805 -1.5 0 
C -1.5 0.397805 -1.341951 0.77937 -1.06066 1.06066 
C -0.77937 1.341951 -0.397805 1.5 0 1.5 
z
" id="mf3a7e701f6" style="stroke:#ff00ff;"/>
    </defs>
    <g>
     <use style="fill:#ff00ff;stroke:#ff00ff;" x="184.904229" xlink:href="#mf3a7e701f6" y="27.648"/>
     <use style="fill:#ff00ff;stroke:#ff00ff;" x="184.904229" xlink:href="#mf3a7e701f6" y="27.648"/>
    </g>
   </g>
   <g id="line2d_34">
    <path d="M 91.305777 298.944 
L 91.305777 296.29721 
L 94.205591 296.29721 
L 94.205591 292.327024 
L 96.717523 292.327024 
L 96.717523 290.121366 
L 98.933205 290.121366 
L 98.933205 279.975337 
L 100.9152 279.975337 
L 100.9152 277.328546 
L 102.708132 277.328546 
L 102.708132 273.799493 
L 104.344952 273.799493 
L 104.344952 269.829307 
L 105.850679 269.829307 
L 105.850679 257.47762 
L 108.542628 257.47762 
L 108.542628 253.066302 
L 109.756698 253.066302 
L 109.756698 246.449327 
L 110.897141 246.449327 
L 110.897141 231.89198 
L 111.97238 231.89198 
L 111.97238 224.833873 
L 112.989468 224.833873 
L 112.989468 223.95161 
L 113.954374 223.95161 
L 113.954374 222.628215 
L 114.872193 222.628215 
L 114.872193 219.099161 
L 115.747307 219.099161 
L 115.747307 206.747473 
L 117.384126 206.747473 
L 117.384126 195.71918 
L 118.152051 195.71918 
L 118.152051 193.07239 
L 118.889854 193.07239 
L 118.889854 186.455415 
L 119.599808 186.455415 
L 119.599808 181.602966 
L 120.28394 181.602966 
L 120.28394 180.279571 
L 120.944062 180.279571 
L 120.944062 176.750517 
L 121.581803 176.750517 
L 121.581803 176.309385 
L 122.19863 176.309385 
L 122.19863 171.898068 
L 122.795872 171.898068 
L 122.795872 171.456937 
L 123.374735 171.456937 
L 123.374735 165.281093 
L 123.936316 165.281093 
L 123.936316 160.428644 
L 124.481616 160.428644 
L 124.481616 155.135063 
L 125.011554 155.135063 
L 125.011554 152.047141 
L 125.526971 152.047141 
L 125.526971 151.164878 
L 126.028642 151.164878 
L 126.028642 150.723746 
L 126.517282 150.723746 
L 126.517282 147.635824 
L 127.458055 147.635824 
L 127.458055 146.312429 
L 128.786481 146.312429 
L 128.786481 144.989034 
L 129.209231 144.989034 
L 129.209231 144.547902 
L 129.622688 144.547902 
L 129.622688 138.81319 
L 130.4233 138.81319 
L 130.4233 136.607532 
L 131.563744 136.607532 
L 131.563744 135.725268 
L 140.950542 135.725268 
L 140.950542 135.284137 
L 141.393187 135.284137 
L 141.393187 134.401873 
L 141.825656 134.401873 
L 141.825656 133.078478 
L 142.038218 133.078478 
L 142.038218 130.87282 
L 142.248405 130.87282 
L 142.248405 129.549424 
L 142.45627 129.549424 
L 142.45627 129.108293 
L 142.661862 129.108293 
L 142.661862 127.343766 
L 142.865233 127.343766 
L 142.865233 126.902634 
L 143.066428 126.902634 
L 143.066428 125.579239 
L 143.265494 125.579239 
L 143.265494 124.696976 
L 143.462475 124.696976 
L 143.462475 122.050185 
L 143.657415 122.050185 
L 143.657415 119.403395 
L 143.850356 119.403395 
L 143.850356 115.43321 
L 144.041338 115.43321 
L 144.041338 114.109815 
L 144.2304 114.109815 
L 144.2304 113.227551 
L 144.417581 113.227551 
L 144.417581 110.139629 
L 144.602918 110.139629 
L 144.602918 108.816234 
L 144.786447 108.816234 
L 144.786447 106.169444 
L 144.968202 106.169444 
L 144.968202 104.404917 
L 145.148219 104.404917 
L 145.148219 103.081522 
L 145.326529 103.081522 
L 145.326529 101.316995 
L 145.503164 101.316995 
L 145.503164 100.434732 
L 145.678157 100.434732 
L 145.678157 99.552468 
L 145.851536 99.552468 
L 145.851536 96.464546 
L 146.023332 96.464546 
L 146.023332 95.141151 
L 146.193574 95.141151 
L 146.193574 92.494361 
L 146.529503 92.494361 
L 146.529503 90.729834 
L 146.695245 90.729834 
L 146.695245 88.965307 
L 146.859539 88.965307 
L 146.859539 87.641912 
L 147.022411 87.641912 
L 147.022411 86.759649 
L 147.343984 86.759649 
L 147.343984 85.877385 
L 147.502732 85.877385 
L 147.502732 84.112859 
L 147.660152 84.112859 
L 147.660152 82.348332 
L 147.816265 82.348332 
L 147.816265 81.9072 
L 147.971093 81.9072 
L 147.971093 81.024937 
L 148.124658 81.024937 
L 148.124658 80.583805 
L 148.276979 80.583805 
L 148.276979 79.26041 
L 148.428077 79.26041 
L 148.428077 78.819278 
L 148.57797 78.819278 
L 148.57797 76.172488 
L 148.874221 76.172488 
L 148.874221 75.290224 
L 149.020615 75.290224 
L 149.020615 74.849093 
L 149.165879 74.849093 
L 149.165879 74.407961 
L 149.595059 74.407961 
L 149.595059 73.525698 
L 149.875833 73.525698 
L 149.875833 73.084566 
L 150.152479 73.084566 
L 150.152479 72.643434 
L 150.289291 72.643434 
L 150.289291 71.761171 
L 151.60532 71.761171 
L 151.60532 71.320039 
L 154.212341 71.320039 
L 154.212341 70.878907 
L 154.541415 70.878907 
L 154.649839 69.11438 
L 154.757642 69.11438 
L 154.86483 67.790985 
L 154.971412 67.790985 
L 155.077392 66.908722 
L 155.18278 66.908722 
L 155.28758 66.026459 
L 155.391799 66.026459 
L 155.391799 64.261932 
L 155.598521 64.261932 
L 155.598521 63.8208 
L 155.802997 63.8208 
L 155.904407 62.497405 
L 156.105602 62.497405 
L 156.205398 60.732878 
L 156.403417 60.732878 
L 156.403417 60.291746 
L 156.599372 60.291746 
L 156.599372 58.968351 
L 156.793307 58.968351 
L 156.793307 58.52722 
L 156.985263 58.52722 
L 157.080512 56.321561 
L 157.175281 56.321561 
L 157.175281 55.880429 
L 157.363398 55.880429 
L 157.456756 54.998166 
L 157.549652 54.998166 
L 157.642093 53.674771 
L 157.825621 53.674771 
L 157.916719 52.792507 
L 158.007377 52.792507 
L 158.0976 51.910244 
L 158.187393 51.910244 
L 158.276759 50.586849 
L 158.365703 50.586849 
L 158.365703 50.145717 
L 158.630038 50.145717 
L 158.717331 49.263454 
L 158.804221 49.263454 
L 158.890711 48.38119 
L 159.14782 48.38119 
L 159.14782 47.940059 
L 159.651731 47.940059 
L 159.651731 47.498927 
L 159.980326 47.498927 
L 159.980326 47.057795 
L 161.163832 47.057795 
L 161.163832 46.616663 
L 161.391854 46.616663 
L 161.391854 46.175532 
L 161.691646 46.175532 
L 161.691646 45.7344 
L 162.05979 45.7344 
L 162.05979 45.293268 
L 162.420867 45.293268 
L 162.420867 44.852137 
L 162.634233 44.852137 
L 162.704821 43.528741 
L 162.775144 43.528741 
L 162.775144 42.646478 
L 162.984551 42.646478 
L 163.053839 41.764215 
L 163.122872 41.764215 
L 163.122872 41.323083 
L 163.260183 41.323083 
L 163.328465 40.44082 
L 163.464289 40.44082 
L 163.531835 39.558556 
L 163.59914 39.558556 
L 163.59914 39.117424 
L 163.73303 39.117424 
L 163.73303 38.676293 
L 163.932096 38.676293 
L 163.932096 38.235161 
L 164.063646 38.235161 
L 164.063646 37.794029 
L 164.194282 37.794029 
L 164.194282 37.352898 
L 164.388551 37.352898 
L 164.388551 36.911766 
L 164.834193 36.911766 
L 164.834193 36.470634 
L 166.746854 36.470634 
L 166.746854 36.029502 
L 167.634879 36.029502 
L 167.634879 35.588371 
L 167.796816 35.588371 
L 167.796816 34.706107 
L 168.169334 34.706107 
L 168.169334 34.264976 
L 168.378936 34.264976 
L 168.430973 33.382712 
L 168.637696 33.382712 
L 168.637696 32.94158 
L 168.842171 32.94158 
L 168.943582 31.618185 
L 169.044448 31.618185 
L 169.044448 31.177054 
L 169.491772 31.177054 
L 169.491772 30.735922 
L 171.315934 30.735922 
L 171.315934 30.29479 
L 171.669213 30.29479 
L 171.669213 29.853659 
L 172.482581 29.853659 
L 172.482581 29.412527 
L 173.659955 29.412527 
L 173.659955 28.971395 
L 176.299358 28.971395 
L 176.299358 28.530263 
L 183.111297 28.530263 
L 183.111297 28.089132 
L 184.904229 28.089132 
L 184.904229 27.648 
L 360.8064 27.648 
L 360.8064 27.648 
" style="fill:none;stroke:#ff00ff;stroke-linecap:square;stroke-width:1.5;"/>
   </g>
   <g id="line2d_35">
    <defs>
     <path d="M -0 8.485281 
L 5.091169 0 
L 0 -8.485281 
L -5.091169 -0 
z
" id="mee16225d37" style="stroke:#ff00ff;stroke-linejoin:miter;stroke-width:1.5;"/>
    </defs>
    <g>
     <use style="fill-opacity:0;stroke:#ff00ff;stroke-linejoin:miter;stroke-width:1.5;" x="154.757642" xlink:href="#mee16225d37" y="69.11438"/>
     <use style="fill-opacity:0;stroke:#ff00ff;stroke-linejoin:miter;stroke-width:1.5;" x="184.904229" xlink:href="#mee16225d37" y="28.089132"/>
     <use style="fill-opacity:0;stroke:#ff00ff;stroke-linejoin:miter;stroke-width:1.5;" x="184.904229" xlink:href="#mee16225d37" y="27.648"/>
     <use style="fill-opacity:0;stroke:#ff00ff;stroke-linejoin:miter;stroke-width:1.5;" x="184.904229" xlink:href="#mee16225d37" y="27.648"/>
     <use style="fill-opacity:0;stroke:#ff00ff;stroke-linejoin:miter;stroke-width:1.5;" x="360.8064" xlink:href="#mee16225d37" y="27.648"/>
    </g>
   </g>
   <g id="line2d_36">
    <path style="fill:none;stroke:#ff00ff;stroke-linecap:square;stroke-width:1.5;"/>
    <g/>
   </g>
   <g id="line2d_37">
    <path clip-path="url(#p2e7c66de6d)" d="M 140.950542 135.284137 
" style="fill:none;stroke:#ff00ff;stroke-linecap:square;stroke-width:1.5;"/>
    <defs>
     <path d="M -12 12 
L 12 -12 
M -12 -12 
L 12 12 
" id="m07f30db23d" style="stroke:#ff00ff;"/>
    </defs>
    <g clip-path="url(#p2e7c66de6d)">
     <use style="fill:#ff00ff;stroke:#ff00ff;" x="140.950542" xlink:href="#m07f30db23d" y="135.284137"/>
    </g>
   </g>
   <g id="line2d_38">
    <defs>
     <path d="M 0 1.5 
C 0.397805 1.5 0.77937 1.341951 1.06066 1.06066 
C 1.341951 0.77937 1.5 0.397805 1.5 0 
C 1.5 -0.397805 1.341951 -0.77937 1.06066 -1.06066 
C 0.77937 -1.341951 0.397805 -1.5 0 -1.5 
C -0.397805 -1.5 -0.77937 -1.341951 -1.06066 -1.06066 
C -1.341951 -0.77937 -1.5 -0.397805 -1.5 0 
C -1.5 0.397805 -1.341951 0.77937 -1.06066 1.06066 
C -0.77937 1.341951 -0.397805 1.5 0 1.5 
z
" id="m58506c7ff9" style="stroke:#ff7500;"/>
    </defs>
    <g>
     <use style="fill:#ff7500;stroke:#ff7500;" x="195.680309" xlink:href="#m58506c7ff9" y="27.648"/>
     <use style="fill:#ff7500;stroke:#ff7500;" x="195.680309" xlink:href="#m58506c7ff9" y="27.648"/>
    </g>
   </g>
   <g id="line2d_39">
    <path d="M 96.717523 298.944 
L 96.717523 298.502868 
L 105.850679 298.502868 
L 105.850679 298.061737 
L 115.747307 298.061737 
L 115.747307 297.620605 
L 136.413909 297.620605 
L 136.413909 296.738341 
L 137.250116 296.738341 
L 137.250116 296.29721 
L 137.520791 296.29721 
L 137.520791 291.885893 
L 138.050729 291.885893 
L 138.050729 288.797971 
L 139.313723 288.797971 
L 139.313723 287.915707 
L 139.796097 287.915707 
L 139.796097 286.592312 
L 140.032723 286.592312 
L 140.032723 284.827785 
L 140.725251 284.827785 
L 140.725251 283.945522 
L 140.950542 283.945522 
L 140.950542 281.739863 
L 141.393187 281.739863 
L 141.393187 281.298732 
L 142.038218 281.298732 
L 142.038218 280.416468 
L 142.248405 280.416468 
L 142.248405 279.975337 
L 142.661862 279.975337 
L 142.661862 277.769678 
L 143.066428 277.769678 
L 143.066428 276.446283 
L 143.265494 276.446283 
L 143.265494 275.56402 
L 143.462475 275.56402 
L 143.462475 272.476098 
L 143.657415 272.476098 
L 143.657415 271.152702 
L 144.2304 271.152702 
L 144.2304 264.535727 
L 144.786447 264.535727 
L 144.786447 262.7712 
L 145.148219 262.7712 
L 145.148219 261.006673 
L 145.326529 261.006673 
L 145.326529 256.595356 
L 145.678157 256.595356 
L 145.678157 254.389698 
L 145.851536 254.389698 
L 145.851536 252.184039 
L 146.023332 252.184039 
L 146.023332 251.742907 
L 146.193574 251.742907 
L 146.193574 250.860644 
L 146.362288 250.860644 
L 146.362288 249.096117 
L 146.529503 249.096117 
L 146.529503 248.654985 
L 146.695245 248.654985 
L 146.695245 247.33159 
L 147.022411 247.33159 
L 147.022411 246.008195 
L 147.343984 246.008195 
L 147.343984 243.361405 
L 147.502732 243.361405 
L 147.502732 242.03801 
L 147.816265 242.03801 
L 147.816265 240.273483 
L 147.971093 240.273483 
L 147.971093 237.185561 
L 148.276979 237.185561 
L 148.276979 235.421034 
L 148.428077 235.421034 
L 148.428077 234.538771 
L 148.57797 234.538771 
L 148.57797 232.333112 
L 148.726679 232.333112 
L 148.726679 231.009717 
L 148.874221 231.009717 
L 148.874221 230.568585 
L 149.165879 230.568585 
L 149.165879 228.362927 
L 149.31003 228.362927 
L 149.31003 227.039532 
L 149.453084 227.039532 
L 149.453084 226.5984 
L 149.875833 226.5984 
L 149.875833 225.716137 
L 150.014665 225.716137 
L 150.014665 224.833873 
L 150.152479 224.833873 
L 150.152479 224.392741 
L 150.289291 224.392741 
L 150.289291 223.510478 
L 150.559965 223.510478 
L 150.559965 221.745951 
L 150.8268 221.745951 
L 150.8268 220.422556 
L 151.089903 220.422556 
L 151.089903 218.658029 
L 151.349377 218.658029 
L 151.349377 217.334634 
L 151.477784 217.334634 
L 151.477784 214.246712 
L 151.982822 214.246712 
L 151.982822 211.15879 
L 152.474656 211.15879 
L 152.474656 209.394263 
L 152.595631 209.394263 
L 152.595631 207.629737 
L 152.953957 207.629737 
L 152.953957 207.188605 
L 153.305585 207.188605 
L 153.305585 205.86521 
L 153.764426 205.86521 
L 153.764426 204.982946 
L 154.212341 204.982946 
L 154.322673 201.453893 
L 154.541415 201.453893 
L 154.541415 200.571629 
L 154.757642 200.571629 
L 154.86483 196.601444 
L 155.077392 196.601444 
L 155.077392 194.395785 
L 155.495444 194.395785 
L 155.495444 193.513522 
L 155.802997 193.513522 
L 155.802997 189.102205 
L 156.205398 189.102205 
L 156.205398 187.337678 
L 156.403417 187.337678 
L 156.501649 182.485229 
L 156.696589 182.485229 
L 156.696589 181.161834 
L 156.88953 181.161834 
L 156.985263 179.397307 
L 157.080512 179.397307 
L 157.080512 178.515044 
L 157.269574 178.515044 
L 157.363398 176.750517 
L 157.456756 176.750517 
L 157.456756 172.780332 
L 158.007377 172.780332 
L 158.0976 171.015805 
L 158.187393 171.015805 
L 158.276759 168.810146 
L 158.542339 168.810146 
L 158.542339 162.634302 
L 158.804221 162.634302 
L 158.804221 161.310907 
L 158.976805 161.310907 
L 158.976805 160.869776 
L 159.401463 160.869776 
L 159.401463 156.458459 
L 159.734419 156.458459 
L 159.816746 155.576195 
L 159.898714 155.576195 
L 159.939564 153.811668 
L 160.142495 153.811668 
L 160.142495 152.929405 
L 160.303279 152.929405 
L 160.383158 151.164878 
L 160.620781 151.164878 
L 160.699326 149.400351 
L 160.855439 149.400351 
L 160.933013 146.753561 
L 161.010268 146.753561 
L 161.010268 145.871298 
L 161.316153 145.871298 
L 161.316153 144.989034 
L 161.542347 144.989034 
L 161.542347 144.547902 
L 161.691646 144.547902 
L 161.691646 144.106771 
L 161.913396 144.106771 
L 161.986735 143.224507 
L 162.205054 143.224507 
L 162.205054 142.783376 
L 162.349204 142.783376 
L 162.420867 140.136585 
L 162.56338 140.136585 
L 162.66956 133.960741 
L 162.845206 133.960741 
L 162.915008 133.078478 
L 163.053839 133.078478 
L 163.053839 132.196215 
L 163.260183 132.196215 
L 163.260183 128.667161 
L 163.3965 128.667161 
L 163.3965 128.226029 
L 163.531835 128.226029 
L 163.531835 127.343766 
L 163.73303 127.343766 
L 163.79962 125.138107 
L 163.865975 125.138107 
L 163.865975 122.050185 
L 164.063646 122.050185 
L 164.129077 120.72679 
L 164.259262 120.72679 
L 164.324018 115.43321 
L 164.388551 115.43321 
L 164.388551 114.992078 
L 164.516958 114.992078 
L 164.580835 111.021893 
L 164.70794 111.021893 
L 164.771172 108.816234 
L 164.834193 108.816234 
L 164.834193 107.492839 
L 165.021997 107.492839 
L 165.084184 106.169444 
L 165.269521 106.169444 
L 165.269521 104.404917 
L 165.392072 104.404917 
L 165.45305 102.64039 
L 165.51383 102.64039 
L 165.574415 100.875863 
L 165.755007 100.875863 
L 165.755007 99.552468 
L 167.904005 99.552468 
L 168.010586 97.34681 
L 168.169334 97.34681 
L 168.169334 95.141151 
L 168.378936 95.141151 
L 168.378936 94.258888 
L 168.637696 94.258888 
L 168.689024 90.729834 
L 169.194741 90.729834 
L 169.194741 90.288702 
L 169.540824 90.288702 
L 169.540824 89.847571 
L 170.072123 89.847571 
L 170.119687 88.524176 
L 170.214455 88.524176 
L 170.214455 87.20078 
L 170.355719 87.20078 
L 170.402572 84.55399 
L 170.542436 84.55399 
L 170.542436 84.112859 
L 170.727317 84.112859 
L 170.727317 80.142673 
L 171.001277 80.142673 
L 171.046551 77.937015 
L 171.136775 77.937015 
L 171.226568 75.731356 
L 171.271304 75.731356 
L 171.360458 72.643434 
L 171.669213 72.643434 
L 171.669213 72.202302 
L 172.015979 72.202302 
L 172.015979 71.320039 
L 172.186995 71.320039 
L 172.271923 69.11438 
L 172.356469 69.11438 
L 172.440637 67.790985 
L 172.482581 67.790985 
L 172.482581 66.026459 
L 172.607852 66.026459 
L 172.649425 63.379668 
L 172.773594 63.379668 
L 172.814802 61.615141 
L 173.060174 61.615141 
L 173.060174 59.409483 
L 173.302386 59.409483 
L 173.302386 57.203824 
L 173.541519 57.203824 
L 173.541519 54.115902 
L 173.699269 54.115902 
L 173.699269 52.792507 
L 173.816719 52.792507 
L 173.816719 51.910244 
L 174.164733 51.910244 
L 174.164733 48.38119 
L 174.279322 48.38119 
L 174.355328 46.616663 
L 174.393216 46.616663 
L 174.393216 45.293268 
L 174.506426 45.293268 
L 174.506426 42.205346 
L 174.693607 42.205346 
L 174.73082 40.881951 
L 175.062472 40.881951 
L 175.062472 40.44082 
L 175.388379 40.44082 
L 175.388379 39.999688 
L 175.531433 39.999688 
L 175.567027 39.117424 
L 175.988986 39.117424 
L 175.988986 38.676293 
L 176.401688 38.676293 
L 176.401688 37.794029 
L 176.537267 37.794029 
L 176.537267 37.352898 
L 176.671876 37.352898 
L 176.772205 34.706107 
L 187.954967 34.706107 
L 187.954967 33.823844 
L 188.17456 33.823844 
L 188.17456 33.382712 
L 189.761282 33.382712 
L 189.761282 32.94158 
L 190.659184 32.94158 
L 190.659184 32.500449 
L 191.209038 32.500449 
L 191.209038 32.059317 
L 192.027061 32.059317 
L 192.027061 31.177054 
L 193.191033 31.177054 
L 193.191033 30.735922 
L 194.444253 30.735922 
L 194.444253 30.29479 
L 195.072431 30.29479 
L 195.072431 29.412527 
L 195.409811 29.412527 
L 195.422191 28.530263 
L 195.680309 28.530263 
L 195.680309 27.648 
L 360.8064 27.648 
L 360.8064 27.648 
" style="fill:none;stroke:#ff7500;stroke-linecap:square;stroke-width:1.5;"/>
   </g>
   <g id="line2d_40">
    <defs>
     <path d="M 0 -6 
L -1.347084 -1.854102 
L -5.706339 -1.854102 
L -2.179628 0.708204 
L -3.526712 4.854102 
L -0 2.291796 
L 3.526712 4.854102 
L 2.179628 0.708204 
L 5.706339 -1.854102 
L 1.347084 -1.854102 
z
" id="mc74b3467b9" style="stroke:#ff7500;stroke-linejoin:bevel;stroke-width:1.5;"/>
    </defs>
    <g>
     <use style="fill-opacity:0;stroke:#ff7500;stroke-linejoin:bevel;stroke-width:1.5;" x="153.764426" xlink:href="#mc74b3467b9" y="204.982946"/>
     <use style="fill-opacity:0;stroke:#ff7500;stroke-linejoin:bevel;stroke-width:1.5;" x="176.772205" xlink:href="#mc74b3467b9" y="34.706107"/>
     <use style="fill-opacity:0;stroke:#ff7500;stroke-linejoin:bevel;stroke-width:1.5;" x="195.680309" xlink:href="#mc74b3467b9" y="28.530263"/>
     <use style="fill-opacity:0;stroke:#ff7500;stroke-linejoin:bevel;stroke-width:1.5;" x="195.680309" xlink:href="#mc74b3467b9" y="27.648"/>
     <use style="fill-opacity:0;stroke:#ff7500;stroke-linejoin:bevel;stroke-width:1.5;" x="360.8064" xlink:href="#mc74b3467b9" y="27.648"/>
    </g>
   </g>
   <g id="line2d_41">
    <path style="fill:none;stroke:#ff7500;stroke-linecap:square;stroke-width:1.5;"/>
    <g/>
   </g>
   <g id="line2d_42">
    <defs>
     <path d="M 0 1.5 
C 0.397805 1.5 0.77937 1.341951 1.06066 1.06066 
C 1.341951 0.77937 1.5 0.397805 1.5 0 
C 1.5 -0.397805 1.341951 -0.77937 1.06066 -1.06066 
C 0.77937 -1.341951 0.397805 -1.5 0 -1.5 
C -0.397805 -1.5 -0.77937 -1.341951 -1.06066 -1.06066 
C -1.341951 -0.77937 -1.5 -0.397805 -1.5 0 
C -1.5 0.397805 -1.341951 0.77937 -1.06066 1.06066 
C -0.77937 1.341951 -0.397805 1.5 0 1.5 
z
" id="mbe3fe65ba6" style="stroke:#6495ed;"/>
    </defs>
    <g>
     <use style="fill:#6495ed;stroke:#6495ed;" x="188.409595" xlink:href="#mbe3fe65ba6" y="27.648"/>
     <use style="fill:#6495ed;stroke:#6495ed;" x="188.409595" xlink:href="#mbe3fe65ba6" y="27.648"/>
    </g>
   </g>
   <g id="line2d_43">
    <path d="M 92.811505 298.944 
L 92.811505 298.502868 
L 100.9152 298.502868 
L 100.9152 297.620605 
L 104.344952 297.620605 
L 104.344952 297.179473 
L 105.112877 297.179473 
L 105.112877 294.973815 
L 106.560633 294.973815 
L 106.560633 292.768156 
L 110.897141 292.768156 
L 110.897141 290.121366 
L 113.478107 290.121366 
L 113.478107 289.680234 
L 114.418881 289.680234 
L 114.418881 287.474576 
L 116.583514 287.474576 
L 116.583514 286.592312 
L 117.384126 286.592312 
L 117.384126 281.298732 
L 119.944983 281.298732 
L 119.944983 275.56402 
L 121.265635 275.56402 
L 121.265635 272.917229 
L 123.936316 272.917229 
L 123.936316 272.476098 
L 124.210942 272.476098 
L 124.210942 268.505912 
L 127.686077 268.505912 
L 127.686077 261.447805 
L 128.133992 261.447805 
L 128.133992 260.565541 
L 128.999044 260.565541 
L 128.999044 259.683278 
L 129.622688 259.683278 
L 129.622688 258.801015 
L 130.4233 258.801015 
L 130.4233 257.47762 
L 130.618241 257.47762 
L 130.618241 254.830829 
L 131.002163 254.830829 
L 131.002163 254.389698 
L 131.378407 254.389698 
L 131.378407 253.948566 
L 131.747272 253.948566 
L 131.747272 250.860644 
L 132.287354 250.860644 
L 132.287354 250.419512 
L 132.46399 250.419512 
L 132.46399 246.890459 
L 132.984158 246.890459 
L 132.984158 246.449327 
L 133.323114 246.449327 
L 133.323114 244.6848 
L 133.490329 244.6848 
L 133.490329 242.03801 
L 134.14471 242.03801 
L 134.14471 239.832351 
L 134.463557 239.832351 
L 134.463557 236.744429 
L 134.620977 236.744429 
L 134.620977 235.421034 
L 134.931919 235.421034 
L 134.931919 233.656507 
L 135.538796 233.656507 
L 135.538796 225.275005 
L 135.981441 225.275005 
L 135.981441 224.392741 
L 136.126705 224.392741 
L 136.126705 223.069346 
L 136.413909 223.069346 
L 136.413909 222.628215 
L 136.555884 222.628215 
L 136.555884 217.775766 
L 136.97549 217.775766 
L 136.97549 216.011239 
L 137.250116 216.011239 
L 137.250116 215.128976 
L 137.520791 215.128976 
L 137.520791 213.80558 
L 137.919637 213.80558 
L 137.919637 204.541815 
L 138.310202 204.541815 
L 138.310202 202.336156 
L 138.438609 202.336156 
L 138.438609 199.689366 
L 138.566146 199.689366 
L 138.566146 197.924839 
L 138.692823 197.924839 
L 138.692823 197.483707 
L 138.818654 197.483707 
L 138.818654 196.601444 
L 139.191172 196.601444 
L 139.191172 195.278049 
L 139.313723 195.278049 
L 139.313723 193.07239 
L 139.435481 193.07239 
L 139.435481 192.190127 
L 139.556456 192.190127 
L 139.556456 190.4256 
L 139.676658 190.4256 
L 139.676658 181.602966 
L 140.032723 181.602966 
L 140.032723 181.161834 
L 140.14993 181.161834 
L 140.14993 178.515044 
L 140.26641 178.515044 
L 140.26641 176.750517 
L 140.49723 176.750517 
L 140.49723 175.427122 
L 140.838234 175.427122 
L 140.838234 173.662595 
L 140.950542 173.662595 
L 140.950542 170.574673 
L 141.062184 170.574673 
L 141.173167 161.310907 
L 141.393187 161.310907 
L 141.393187 160.869776 
L 141.610664 160.869776 
L 141.718467 155.576195 
L 141.825656 155.576195 
L 141.825656 150.282615 
L 142.143605 150.282615 
L 142.143605 148.95922 
L 142.45627 148.95922 
L 142.559347 143.224507 
L 142.966099 143.224507 
L 142.966099 142.783376 
L 143.265494 142.783376 
L 143.265494 137.930927 
L 143.462475 137.930927 
L 143.462475 135.284137 
L 143.657415 135.284137 
L 143.754133 129.549424 
L 143.946089 129.549424 
L 143.946089 124.255844 
L 144.136106 124.255844 
L 144.136106 120.285659 
L 144.324223 120.285659 
L 144.417581 112.78642 
L 144.602918 112.78642 
L 144.602918 110.139629 
L 144.968202 110.139629 
L 144.968202 109.698498 
L 145.237585 109.698498 
L 145.237585 107.492839 
L 145.851536 107.492839 
L 145.851536 107.051707 
L 147.581606 107.051707 
L 147.581606 105.28718 
L 148.800595 105.28718 
L 148.800595 101.316995 
L 150.425115 101.316995 
L 150.425115 99.9936 
L 154.101358 99.9936 
L 154.101358 95.582283 
L 155.339761 95.582283 
L 155.339761 92.053229 
L 155.701037 92.053229 
L 155.701037 90.288702 
L 157.080512 90.288702 
L 157.080512 85.436254 
L 157.916719 85.436254 
L 157.916719 81.9072 
L 160.383158 81.9072 
L 160.383158 81.466068 
L 160.660094 81.466068 
L 160.660094 79.701541 
L 161.278189 79.701541 
L 161.278189 74.407961 
L 162.38507 74.407961 
L 162.38507 72.643434 
L 163.191653 72.643434 
L 163.191653 71.761171 
L 163.430425 71.761171 
L 163.430425 69.11438 
L 163.73303 69.11438 
L 163.73303 63.8208 
L 167.661966 63.8208 
L 167.661966 62.497405 
L 168.456938 62.497405 
L 168.456938 57.644956 
L 169.442591 57.644956 
L 169.442591 55.880429 
L 169.614163 55.880429 
L 169.687218 53.233639 
L 169.784185 53.233639 
L 169.856584 51.02798 
L 169.952684 51.02798 
L 169.952684 47.498927 
L 170.167131 47.498927 
L 170.167131 46.616663 
L 170.37916 46.616663 
L 170.37916 46.175532 
L 171.20416 46.175532 
L 171.20416 45.7344 
L 180.728188 45.7344 
L 180.822549 42.646478 
L 180.916439 42.646478 
L 180.916439 42.205346 
L 181.036471 42.205346 
L 181.036471 40.881951 
L 181.155741 40.881951 
L 181.155741 40.44082 
L 181.274261 40.44082 
L 181.365929 37.794029 
L 181.405079 37.794029 
L 181.457152 36.470634 
L 181.547935 36.470634 
L 181.586709 32.94158 
L 183.218147 32.94158 
L 183.218147 32.500449 
L 183.616414 32.500449 
L 183.616414 30.735922 
L 183.926786 30.735922 
L 183.926786 30.29479 
L 184.23212 30.29479 
L 184.23212 29.853659 
L 188.346604 29.853659 
L 188.409595 27.648 
L 360.8064 27.648 
L 360.8064 27.648 
" style="fill:none;stroke:#6495ed;stroke-linecap:square;stroke-width:1.5;"/>
   </g>
   <g id="line2d_44">
    <defs>
     <path d="M -0 6 
L 6 -6 
L -6 -6 
z
" id="m9a63d61943" style="stroke:#6495ed;stroke-linejoin:miter;stroke-width:1.5;"/>
    </defs>
    <g>
     <use style="fill-opacity:0;stroke:#6495ed;stroke-linejoin:miter;stroke-width:1.5;" x="145.851536" xlink:href="#m9a63d61943" y="107.051707"/>
     <use style="fill-opacity:0;stroke:#6495ed;stroke-linejoin:miter;stroke-width:1.5;" x="188.409595" xlink:href="#m9a63d61943" y="28.971395"/>
     <use style="fill-opacity:0;stroke:#6495ed;stroke-linejoin:miter;stroke-width:1.5;" x="188.409595" xlink:href="#m9a63d61943" y="27.648"/>
     <use style="fill-opacity:0;stroke:#6495ed;stroke-linejoin:miter;stroke-width:1.5;" x="188.409595" xlink:href="#m9a63d61943" y="27.648"/>
     <use style="fill-opacity:0;stroke:#6495ed;stroke-linejoin:miter;stroke-width:1.5;" x="360.8064" xlink:href="#m9a63d61943" y="27.648"/>
    </g>
   </g>
   <g id="line2d_45">
    <path style="fill:none;stroke:#6495ed;stroke-linecap:square;stroke-width:1.5;"/>
    <g/>
   </g>
   <g id="line2d_46">
    <path d="M 360.8064 27.648 
L 380.514816 293.51808 
" style="fill:none;stroke:#ff7500;stroke-linecap:square;stroke-width:1.5;"/>
    <g>
     <use style="fill-opacity:0;stroke:#ff7500;stroke-linejoin:bevel;stroke-width:1.5;" x="360.8064" xlink:href="#mc74b3467b9" y="27.648"/>
     <use style="fill-opacity:0;stroke:#ff7500;stroke-linejoin:bevel;stroke-width:1.5;" x="380.514816" xlink:href="#mc74b3467b9" y="293.51808"/>
    </g>
   </g>
   <g id="line2d_47">
    <path d="M 360.8064 27.648 
L 380.514816 206.70336 
" style="fill:none;stroke:#6495ed;stroke-linecap:square;stroke-width:1.5;"/>
    <g>
     <use style="fill-opacity:0;stroke:#6495ed;stroke-linejoin:miter;stroke-width:1.5;" x="360.8064" xlink:href="#m9a63d61943" y="27.648"/>
     <use style="fill-opacity:0;stroke:#6495ed;stroke-linejoin:miter;stroke-width:1.5;" x="380.514816" xlink:href="#m9a63d61943" y="206.70336"/>
    </g>
   </g>
   <g id="line2d_48">
    <path d="M 360.8064 27.648 
L 380.514816 119.88864 
" style="fill:none;stroke:#ff00ff;stroke-linecap:square;stroke-width:1.5;"/>
    <g>
     <use style="fill-opacity:0;stroke:#ff00ff;stroke-linejoin:miter;stroke-width:1.5;" x="360.8064" xlink:href="#mee16225d37" y="27.648"/>
     <use style="fill-opacity:0;stroke:#ff00ff;stroke-linejoin:miter;stroke-width:1.5;" x="380.514816" xlink:href="#mee16225d37" y="119.88864"/>
    </g>
   </g>
   <g id="line2d_49">
    <path d="M 360.8064 27.648 
L 380.514816 33.07392 
" style="fill:none;stroke:#000080;stroke-linecap:square;stroke-width:1.5;"/>
    <g>
     <use style="fill-opacity:0;stroke:#000080;stroke-width:1.5;" x="360.8064" xlink:href="#m4b6df1bf25" y="27.648"/>
     <use style="fill-opacity:0;stroke:#000080;stroke-width:1.5;" x="380.514816" xlink:href="#m4b6df1bf25" y="33.07392"/>
    </g>
   </g>
   <g id="line2d_50">
    <path d="M 360.8064 298.944 
L 360.8064 27.648 
" style="fill:none;stroke:#000000;stroke-linecap:square;stroke-width:1.5;"/>
   </g>
   <g id="patch_3">
    <path d="M 57.6 298.944 
L 360.8064 298.944 
" style="fill:none;stroke:#000000;stroke-linecap:square;stroke-linejoin:miter;stroke-width:0.8;"/>
   </g>
   <g id="patch_4">
    <path d="M 57.6 27.648 
L 360.8064 27.648 
" style="fill:none;stroke:#000000;stroke-linecap:square;stroke-linejoin:miter;stroke-width:0.8;"/>
   </g>
   <g id="text_13">
    <!-- fmincon -->
    <g transform="translate(386.578944 297.381205)scale(0.14 -0.14)">
     <use xlink:href="#DejaVuSans-102"/>
     <use x="35.205078" xlink:href="#DejaVuSans-109"/>
     <use x="132.617188" xlink:href="#DejaVuSans-105"/>
     <use x="160.400391" xlink:href="#DejaVuSans-110"/>
     <use x="223.779297" xlink:href="#DejaVuSans-99"/>
     <use x="278.759766" xlink:href="#DejaVuSans-111"/>
     <use x="339.941406" xlink:href="#DejaVuSans-110"/>
    </g>
   </g>
   <g id="text_14">
    <!-- slsqp -->
    <g transform="translate(386.578944 210.566485)scale(0.14 -0.14)">
     <defs>
      <path d="M 14.796875 27.296875 
Q 14.796875 17.390625 18.875 11.75 
Q 22.953125 6.109375 30.078125 6.109375 
Q 37.203125 6.109375 41.296875 11.75 
Q 45.40625 17.390625 45.40625 27.296875 
Q 45.40625 37.203125 41.296875 42.84375 
Q 37.203125 48.484375 30.078125 48.484375 
Q 22.953125 48.484375 18.875 42.84375 
Q 14.796875 37.203125 14.796875 27.296875 
z
M 45.40625 8.203125 
Q 42.578125 3.328125 38.25 0.953125 
Q 33.9375 -1.421875 27.875 -1.421875 
Q 17.96875 -1.421875 11.734375 6.484375 
Q 5.515625 14.40625 5.515625 27.296875 
Q 5.515625 40.1875 11.734375 48.09375 
Q 17.96875 56 27.875 56 
Q 33.9375 56 38.25 53.625 
Q 42.578125 51.265625 45.40625 46.390625 
L 45.40625 54.6875 
L 54.390625 54.6875 
L 54.390625 -20.796875 
L 45.40625 -20.796875 
z
" id="DejaVuSans-113"/>
     </defs>
     <use xlink:href="#DejaVuSans-115"/>
     <use x="52.099609" xlink:href="#DejaVuSans-108"/>
     <use x="79.882812" xlink:href="#DejaVuSans-115"/>
     <use x="131.982422" xlink:href="#DejaVuSans-113"/>
     <use x="195.458984" xlink:href="#DejaVuSans-112"/>
    </g>
   </g>
   <g id="text_15">
    <!-- cobyla rh -->
    <g transform="translate(386.578944 123.751765)scale(0.14 -0.14)">
     <defs>
      <path d="M 48.6875 27.296875 
Q 48.6875 37.203125 44.609375 42.84375 
Q 40.53125 48.484375 33.40625 48.484375 
Q 26.265625 48.484375 22.1875 42.84375 
Q 18.109375 37.203125 18.109375 27.296875 
Q 18.109375 17.390625 22.1875 11.75 
Q 26.265625 6.109375 33.40625 6.109375 
Q 40.53125 6.109375 44.609375 11.75 
Q 48.6875 17.390625 48.6875 27.296875 
z
M 18.109375 46.390625 
Q 20.953125 51.265625 25.265625 53.625 
Q 29.59375 56 35.59375 56 
Q 45.5625 56 51.78125 48.09375 
Q 58.015625 40.1875 58.015625 27.296875 
Q 58.015625 14.40625 51.78125 6.484375 
Q 45.5625 -1.421875 35.59375 -1.421875 
Q 29.59375 -1.421875 25.265625 0.953125 
Q 20.953125 3.328125 18.109375 8.203125 
L 18.109375 0 
L 9.078125 0 
L 9.078125 75.984375 
L 18.109375 75.984375 
z
" id="DejaVuSans-98"/>
      <path d="M 32.171875 -5.078125 
Q 28.375 -14.84375 24.75 -17.8125 
Q 21.140625 -20.796875 15.09375 -20.796875 
L 7.90625 -20.796875 
L 7.90625 -13.28125 
L 13.1875 -13.28125 
Q 16.890625 -13.28125 18.9375 -11.515625 
Q 21 -9.765625 23.484375 -3.21875 
L 25.09375 0.875 
L 2.984375 54.6875 
L 12.5 54.6875 
L 29.59375 11.921875 
L 46.6875 54.6875 
L 56.203125 54.6875 
z
" id="DejaVuSans-121"/>
      <path d="M 54.890625 33.015625 
L 54.890625 0 
L 45.90625 0 
L 45.90625 32.71875 
Q 45.90625 40.484375 42.875 44.328125 
Q 39.84375 48.1875 33.796875 48.1875 
Q 26.515625 48.1875 22.3125 43.546875 
Q 18.109375 38.921875 18.109375 30.90625 
L 18.109375 0 
L 9.078125 0 
L 9.078125 75.984375 
L 18.109375 75.984375 
L 18.109375 46.1875 
Q 21.34375 51.125 25.703125 53.5625 
Q 30.078125 56 35.796875 56 
Q 45.21875 56 50.046875 50.171875 
Q 54.890625 44.34375 54.890625 33.015625 
z
" id="DejaVuSans-104"/>
     </defs>
     <use xlink:href="#DejaVuSans-99"/>
     <use x="54.980469" xlink:href="#DejaVuSans-111"/>
     <use x="116.162109" xlink:href="#DejaVuSans-98"/>
     <use x="179.638672" xlink:href="#DejaVuSans-121"/>
     <use x="238.818359" xlink:href="#DejaVuSans-108"/>
     <use x="266.601562" xlink:href="#DejaVuSans-97"/>
     <use x="327.880859" xlink:href="#DejaVuSans-32"/>
     <use x="359.667969" xlink:href="#DejaVuSans-114"/>
     <use x="399.03125" xlink:href="#DejaVuSans-104"/>
    </g>
   </g>
   <g id="text_16">
    <!-- cobyla -->
    <g transform="translate(386.578944 36.937045)scale(0.14 -0.14)">
     <use xlink:href="#DejaVuSans-99"/>
     <use x="54.980469" xlink:href="#DejaVuSans-111"/>
     <use x="116.162109" xlink:href="#DejaVuSans-98"/>
     <use x="179.638672" xlink:href="#DejaVuSans-121"/>
     <use x="238.818359" xlink:href="#DejaVuSans-108"/>
     <use x="266.601562" xlink:href="#DejaVuSans-97"/>
    </g>
   </g>
   <g id="text_17">
    <!-- bbob-constrained f48, 2-D -->
    <g transform="translate(60.632064 38.111366)scale(0.102 -0.102)">
     <defs>
      <path d="M 4.890625 31.390625 
L 31.203125 31.390625 
L 31.203125 23.390625 
L 4.890625 23.390625 
z
" id="DejaVuSans-45"/>
      <path d="M 19.671875 64.796875 
L 19.671875 8.109375 
L 31.59375 8.109375 
Q 46.6875 8.109375 53.6875 14.9375 
Q 60.6875 21.78125 60.6875 36.53125 
Q 60.6875 51.171875 53.6875 57.984375 
Q 46.6875 64.796875 31.59375 64.796875 
z
M 9.8125 72.90625 
L 30.078125 72.90625 
Q 51.265625 72.90625 61.171875 64.09375 
Q 71.09375 55.28125 71.09375 36.53125 
Q 71.09375 17.671875 61.125 8.828125 
Q 51.171875 0 30.078125 0 
L 9.8125 0 
z
" id="DejaVuSans-68"/>
     </defs>
     <use xlink:href="#DejaVuSans-98"/>
     <use x="63.476562" xlink:href="#DejaVuSans-98"/>
     <use x="126.953125" xlink:href="#DejaVuSans-111"/>
     <use x="188.134766" xlink:href="#DejaVuSans-98"/>
     <use x="251.611328" xlink:href="#DejaVuSans-45"/>
     <use x="287.695312" xlink:href="#DejaVuSans-99"/>
     <use x="342.675781" xlink:href="#DejaVuSans-111"/>
     <use x="403.857422" xlink:href="#DejaVuSans-110"/>
     <use x="467.236328" xlink:href="#DejaVuSans-115"/>
     <use x="519.335938" xlink:href="#DejaVuSans-116"/>
     <use x="558.544922" xlink:href="#DejaVuSans-114"/>
     <use x="599.658203" xlink:href="#DejaVuSans-97"/>
     <use x="660.9375" xlink:href="#DejaVuSans-105"/>
     <use x="688.720703" xlink:href="#DejaVuSans-110"/>
     <use x="752.099609" xlink:href="#DejaVuSans-101"/>
     <use x="813.623047" xlink:href="#DejaVuSans-100"/>
     <use x="877.099609" xlink:href="#DejaVuSans-32"/>
     <use x="908.886719" xlink:href="#DejaVuSans-102"/>
     <use x="944.091797" xlink:href="#DejaVuSans-52"/>
     <use x="1007.714844" xlink:href="#DejaVuSans-56"/>
     <use x="1071.337891" xlink:href="#DejaVuSans-44"/>
     <use x="1103.125" xlink:href="#DejaVuSans-32"/>
     <use x="1134.912109" xlink:href="#DejaVuSans-50"/>
     <use x="1198.535156" xlink:href="#DejaVuSans-45"/>
     <use x="1234.619141" xlink:href="#DejaVuSans-68"/>
    </g>
    <!-- 41 targets: 100..1e-06 -->
    <g transform="translate(60.632064 49.533135)scale(0.102 -0.102)">
     <defs>
      <path d="M 11.71875 12.40625 
L 22.015625 12.40625 
L 22.015625 0 
L 11.71875 0 
z
M 11.71875 51.703125 
L 22.015625 51.703125 
L 22.015625 39.3125 
L 11.71875 39.3125 
z
" id="DejaVuSans-58"/>
     </defs>
     <use xlink:href="#DejaVuSans-52"/>
     <use x="63.623047" xlink:href="#DejaVuSans-49"/>
     <use x="127.246094" xlink:href="#DejaVuSans-32"/>
     <use x="159.033203" xlink:href="#DejaVuSans-116"/>
     <use x="198.242188" xlink:href="#DejaVuSans-97"/>
     <use x="259.521484" xlink:href="#DejaVuSans-114"/>
     <use x="298.884766" xlink:href="#DejaVuSans-103"/>
     <use x="362.361328" xlink:href="#DejaVuSans-101"/>
     <use x="423.884766" xlink:href="#DejaVuSans-116"/>
     <use x="463.09375" xlink:href="#DejaVuSans-115"/>
     <use x="515.193359" xlink:href="#DejaVuSans-58"/>
     <use x="548.884766" xlink:href="#DejaVuSans-32"/>
     <use x="580.671875" xlink:href="#DejaVuSans-49"/>
     <use x="644.294922" xlink:href="#DejaVuSans-48"/>
     <use x="707.917969" xlink:href="#DejaVuSans-48"/>
     <use x="771.541016" xlink:href="#DejaVuSans-46"/>
     <use x="803.328125" xlink:href="#DejaVuSans-46"/>
     <use x="835.115234" xlink:href="#DejaVuSans-49"/>
     <use x="898.738281" xlink:href="#DejaVuSans-101"/>
     <use x="960.261719" xlink:href="#DejaVuSans-45"/>
     <use x="996.345703" xlink:href="#DejaVuSans-48"/>
     <use x="1059.96875" xlink:href="#DejaVuSans-54"/>
    </g>
    <!-- evals = f-evals + g-evals -->
    <g transform="translate(60.632064 60.954904)scale(0.102 -0.102)">
     <defs>
      <path d="M 10.59375 45.40625 
L 73.1875 45.40625 
L 73.1875 37.203125 
L 10.59375 37.203125 
z
M 10.59375 25.484375 
L 73.1875 25.484375 
L 73.1875 17.1875 
L 10.59375 17.1875 
z
" id="DejaVuSans-61"/>
      <path d="M 46 62.703125 
L 46 35.5 
L 73.1875 35.5 
L 73.1875 27.203125 
L 46 27.203125 
L 46 0 
L 37.796875 0 
L 37.796875 27.203125 
L 10.59375 27.203125 
L 10.59375 35.5 
L 37.796875 35.5 
L 37.796875 62.703125 
z
" id="DejaVuSans-43"/>
     </defs>
     <use xlink:href="#DejaVuSans-101"/>
     <use x="61.523438" xlink:href="#DejaVuSans-118"/>
     <use x="120.703125" xlink:href="#DejaVuSans-97"/>
     <use x="181.982422" xlink:href="#DejaVuSans-108"/>
     <use x="209.765625" xlink:href="#DejaVuSans-115"/>
     <use x="261.865234" xlink:href="#DejaVuSans-32"/>
     <use x="293.652344" xlink:href="#DejaVuSans-61"/>
     <use x="377.441406" xlink:href="#DejaVuSans-32"/>
     <use x="409.228516" xlink:href="#DejaVuSans-102"/>
     <use x="438.933594" xlink:href="#DejaVuSans-45"/>
     <use x="475.017578" xlink:href="#DejaVuSans-101"/>
     <use x="536.541016" xlink:href="#DejaVuSans-118"/>
     <use x="595.720703" xlink:href="#DejaVuSans-97"/>
     <use x="657" xlink:href="#DejaVuSans-108"/>
     <use x="684.783203" xlink:href="#DejaVuSans-115"/>
     <use x="736.882812" xlink:href="#DejaVuSans-32"/>
     <use x="768.669922" xlink:href="#DejaVuSans-43"/>
     <use x="852.458984" xlink:href="#DejaVuSans-32"/>
     <use x="884.246094" xlink:href="#DejaVuSans-103"/>
     <use x="947.722656" xlink:href="#DejaVuSans-45"/>
     <use x="983.806641" xlink:href="#DejaVuSans-101"/>
     <use x="1045.330078" xlink:href="#DejaVuSans-118"/>
     <use x="1104.509766" xlink:href="#DejaVuSans-97"/>
     <use x="1165.789062" xlink:href="#DejaVuSans-108"/>
     <use x="1193.572266" xlink:href="#DejaVuSans-115"/>
    </g>
    <!-- 15 instances -->
    <g transform="translate(60.632064 72.376672)scale(0.102 -0.102)">
     <defs>
      <path d="M 10.796875 72.90625 
L 49.515625 72.90625 
L 49.515625 64.59375 
L 19.828125 64.59375 
L 19.828125 46.734375 
Q 21.96875 47.46875 24.109375 47.828125 
Q 26.265625 48.1875 28.421875 48.1875 
Q 40.625 48.1875 47.75 41.5 
Q 54.890625 34.8125 54.890625 23.390625 
Q 54.890625 11.625 47.5625 5.09375 
Q 40.234375 -1.421875 26.90625 -1.421875 
Q 22.3125 -1.421875 17.546875 -0.640625 
Q 12.796875 0.140625 7.71875 1.703125 
L 7.71875 11.625 
Q 12.109375 9.234375 16.796875 8.0625 
Q 21.484375 6.890625 26.703125 6.890625 
Q 35.15625 6.890625 40.078125 11.328125 
Q 45.015625 15.765625 45.015625 23.390625 
Q 45.015625 31 40.078125 35.4375 
Q 35.15625 39.890625 26.703125 39.890625 
Q 22.75 39.890625 18.8125 39.015625 
Q 14.890625 38.140625 10.796875 36.28125 
z
" id="DejaVuSans-53"/>
     </defs>
     <use xlink:href="#DejaVuSans-49"/>
     <use x="63.623047" xlink:href="#DejaVuSans-53"/>
     <use x="127.246094" xlink:href="#DejaVuSans-32"/>
     <use x="159.033203" xlink:href="#DejaVuSans-105"/>
     <use x="186.816406" xlink:href="#DejaVuSans-110"/>
     <use x="250.195312" xlink:href="#DejaVuSans-115"/>
     <use x="302.294922" xlink:href="#DejaVuSans-116"/>
     <use x="341.503906" xlink:href="#DejaVuSans-97"/>
     <use x="402.783203" xlink:href="#DejaVuSans-110"/>
     <use x="466.162109" xlink:href="#DejaVuSans-99"/>
     <use x="521.142578" xlink:href="#DejaVuSans-101"/>
     <use x="582.666016" xlink:href="#DejaVuSans-115"/>
    </g>
   </g>
   <g id="text_18">
    <!-- v2.4.152 -->
    <g style="fill:#808080;" transform="translate(187.15945 294.151352)scale(0.1 -0.1)">
     <use xlink:href="#DejaVuSans-118"/>
     <use x="59.179688" xlink:href="#DejaVuSans-50"/>
     <use x="122.802734" xlink:href="#DejaVuSans-46"/>
     <use x="154.589844" xlink:href="#DejaVuSans-52"/>
     <use x="218.212891" xlink:href="#DejaVuSans-46"/>
     <use x="250" xlink:href="#DejaVuSans-49"/>
     <use x="313.623047" xlink:href="#DejaVuSans-53"/>
     <use x="377.246094" xlink:href="#DejaVuSans-50"/>
    </g>
   </g>
   <g id="text_19">
    <!-- 48 Sep. Rastrigin, m=9+int(9n/2) -->
    <g transform="translate(41.270387 21.648)scale(0.2 -0.2)">
     <defs>
      <path d="M 53.515625 70.515625 
L 53.515625 60.890625 
Q 47.90625 63.578125 42.921875 64.890625 
Q 37.9375 66.21875 33.296875 66.21875 
Q 25.25 66.21875 20.875 63.09375 
Q 16.5 59.96875 16.5 54.203125 
Q 16.5 49.359375 19.40625 46.890625 
Q 22.3125 44.4375 30.421875 42.921875 
L 36.375 41.703125 
Q 47.40625 39.59375 52.65625 34.296875 
Q 57.90625 29 57.90625 20.125 
Q 57.90625 9.515625 50.796875 4.046875 
Q 43.703125 -1.421875 29.984375 -1.421875 
Q 24.8125 -1.421875 18.96875 -0.25 
Q 13.140625 0.921875 6.890625 3.21875 
L 6.890625 13.375 
Q 12.890625 10.015625 18.65625 8.296875 
Q 24.421875 6.59375 29.984375 6.59375 
Q 38.421875 6.59375 43.015625 9.90625 
Q 47.609375 13.234375 47.609375 19.390625 
Q 47.609375 24.75 44.3125 27.78125 
Q 41.015625 30.8125 33.5 32.328125 
L 27.484375 33.5 
Q 16.453125 35.6875 11.515625 40.375 
Q 6.59375 45.0625 6.59375 53.421875 
Q 6.59375 63.09375 13.40625 68.65625 
Q 20.21875 74.21875 32.171875 74.21875 
Q 37.3125 74.21875 42.625 73.28125 
Q 47.953125 72.359375 53.515625 70.515625 
z
" id="DejaVuSans-83"/>
      <path d="M 44.390625 34.1875 
Q 47.5625 33.109375 50.5625 29.59375 
Q 53.5625 26.078125 56.59375 19.921875 
L 66.609375 0 
L 56 0 
L 46.6875 18.703125 
Q 43.0625 26.03125 39.671875 28.421875 
Q 36.28125 30.8125 30.421875 30.8125 
L 19.671875 30.8125 
L 19.671875 0 
L 9.8125 0 
L 9.8125 72.90625 
L 32.078125 72.90625 
Q 44.578125 72.90625 50.734375 67.671875 
Q 56.890625 62.453125 56.890625 51.90625 
Q 56.890625 45.015625 53.6875 40.46875 
Q 50.484375 35.9375 44.390625 34.1875 
z
M 19.671875 64.796875 
L 19.671875 38.921875 
L 32.078125 38.921875 
Q 39.203125 38.921875 42.84375 42.21875 
Q 46.484375 45.515625 46.484375 51.90625 
Q 46.484375 58.296875 42.84375 61.546875 
Q 39.203125 64.796875 32.078125 64.796875 
z
" id="DejaVuSans-82"/>
      <path d="M 10.984375 1.515625 
L 10.984375 10.5 
Q 14.703125 8.734375 18.5 7.8125 
Q 22.3125 6.890625 25.984375 6.890625 
Q 35.75 6.890625 40.890625 13.453125 
Q 46.046875 20.015625 46.78125 33.40625 
Q 43.953125 29.203125 39.59375 26.953125 
Q 35.25 24.703125 29.984375 24.703125 
Q 19.046875 24.703125 12.671875 31.3125 
Q 6.296875 37.9375 6.296875 49.421875 
Q 6.296875 60.640625 12.9375 67.421875 
Q 19.578125 74.21875 30.609375 74.21875 
Q 43.265625 74.21875 49.921875 64.515625 
Q 56.59375 54.828125 56.59375 36.375 
Q 56.59375 19.140625 48.40625 8.859375 
Q 40.234375 -1.421875 26.421875 -1.421875 
Q 22.703125 -1.421875 18.890625 -0.6875 
Q 15.09375 0.046875 10.984375 1.515625 
z
M 30.609375 32.421875 
Q 37.25 32.421875 41.125 36.953125 
Q 45.015625 41.5 45.015625 49.421875 
Q 45.015625 57.28125 41.125 61.84375 
Q 37.25 66.40625 30.609375 66.40625 
Q 23.96875 66.40625 20.09375 61.84375 
Q 16.21875 57.28125 16.21875 49.421875 
Q 16.21875 41.5 20.09375 36.953125 
Q 23.96875 32.421875 30.609375 32.421875 
z
" id="DejaVuSans-57"/>
     </defs>
     <use xlink:href="#DejaVuSans-52"/>
     <use x="63.623047" xlink:href="#DejaVuSans-56"/>
     <use x="127.246094" xlink:href="#DejaVuSans-32"/>
     <use x="159.033203" xlink:href="#DejaVuSans-83"/>
     <use x="222.509766" xlink:href="#DejaVuSans-101"/>
     <use x="284.033203" xlink:href="#DejaVuSans-112"/>
     <use x="347.509766" xlink:href="#DejaVuSans-46"/>
     <use x="379.296875" xlink:href="#DejaVuSans-32"/>
     <use x="411.083984" xlink:href="#DejaVuSans-82"/>
     <use x="478.316406" xlink:href="#DejaVuSans-97"/>
     <use x="539.595703" xlink:href="#DejaVuSans-115"/>
     <use x="591.695312" xlink:href="#DejaVuSans-116"/>
     <use x="630.904297" xlink:href="#DejaVuSans-114"/>
     <use x="672.017578" xlink:href="#DejaVuSans-105"/>
     <use x="699.800781" xlink:href="#DejaVuSans-103"/>
     <use x="763.277344" xlink:href="#DejaVuSans-105"/>
     <use x="791.060547" xlink:href="#DejaVuSans-110"/>
     <use x="854.439453" xlink:href="#DejaVuSans-44"/>
     <use x="886.226562" xlink:href="#DejaVuSans-32"/>
     <use x="918.013672" xlink:href="#DejaVuSans-109"/>
     <use x="1015.425781" xlink:href="#DejaVuSans-61"/>
     <use x="1099.214844" xlink:href="#DejaVuSans-57"/>
     <use x="1162.837891" xlink:href="#DejaVuSans-43"/>
     <use x="1246.626953" xlink:href="#DejaVuSans-105"/>
     <use x="1274.410156" xlink:href="#DejaVuSans-110"/>
     <use x="1337.789062" xlink:href="#DejaVuSans-116"/>
     <use x="1376.998047" xlink:href="#DejaVuSans-40"/>
     <use x="1416.011719" xlink:href="#DejaVuSans-57"/>
     <use x="1479.634766" xlink:href="#DejaVuSans-110"/>
     <use x="1543.013672" xlink:href="#DejaVuSans-47"/>
     <use x="1576.705078" xlink:href="#DejaVuSans-50"/>
     <use x="1640.328125" xlink:href="#DejaVuSans-41"/>
    </g>
   </g>
  </g>
 </g>
 <defs>
  <clipPath id="p2e7c66de6d">
   <rect height="271.296" width="303.2064" x="57.6" y="27.648"/>
  </clipPath>
 </defs>
</svg>
