<?xml version="1.0" encoding="utf-8" standalone="no"?>
<!DOCTYPE svg PUBLIC "-//W3C//DTD SVG 1.1//EN"
  "http://www.w3.org/Graphics/SVG/1.1/DTD/svg11.dtd">
<!-- Created with matplotlib (https://matplotlib.org/) -->
<svg height="345.6pt" version="1.1" viewBox="0 0 460.8 345.6" width="460.8pt" xmlns="http://www.w3.org/2000/svg" xmlns:xlink="http://www.w3.org/1999/xlink">
 <metadata>
  <rdf:RDF xmlns:cc="http://creativecommons.org/ns#" xmlns:dc="http://purl.org/dc/elements/1.1/" xmlns:rdf="http://www.w3.org/1999/02/22-rdf-syntax-ns#">
   <cc:Work>
    <dc:type rdf:resource="http://purl.org/dc/dcmitype/StillImage"/>
    <dc:date>2022-02-08T12:05:25.708444</dc:date>
    <dc:format>image/svg+xml</dc:format>
    <dc:creator>
     <cc:Agent>
      <dc:title>Matplotlib v3.3.3, https://matplotlib.org/</dc:title>
     </cc:Agent>
    </dc:creator>
   </cc:Work>
  </rdf:RDF>
 </metadata>
 <defs>
  <style type="text/css">*{stroke-linecap:butt;stroke-linejoin:round;}</style>
 </defs>
 <g id="figure_1">
  <g id="patch_1">
   <path d="M 0 345.6 
L 460.8 345.6 
L 460.8 0 
L 0 0 
z
" style="fill:#ffffff;"/>
  </g>
  <g id="axes_1">
   <g id="patch_2">
    <path d="M 57.6 298.944 
L 360.8064 298.944 
L 360.8064 27.648 
L 57.6 27.648 
z
" style="fill:#ffffff;"/>
   </g>
   <g id="matplotlib.axis_1">
    <g id="xtick_1">
     <g id="line2d_1">
      <path clip-path="url(#p4013db28a4)" d="M 57.6 298.944 
L 57.6 27.648 
" style="fill:none;stroke:#b0b0b0;stroke-linecap:square;stroke-width:0.8;"/>
     </g>
     <g id="line2d_2">
      <defs>
       <path d="M 0 0 
L 0 3.5 
" id="m0807aad6dc" style="stroke:#000000;stroke-width:0.8;"/>
      </defs>
      <g>
       <use style="stroke:#000000;stroke-width:0.8;" x="57.6" xlink:href="#m0807aad6dc" y="298.944"/>
      </g>
     </g>
     <g id="text_1">
      <!-- 0 -->
      <g transform="translate(52.191875 318.861344)scale(0.17 -0.17)">
       <defs>
        <path d="M 31.78125 66.40625 
Q 24.171875 66.40625 20.328125 58.90625 
Q 16.5 51.421875 16.5 36.375 
Q 16.5 21.390625 20.328125 13.890625 
Q 24.171875 6.390625 31.78125 6.390625 
Q 39.453125 6.390625 43.28125 13.890625 
Q 47.125 21.390625 47.125 36.375 
Q 47.125 51.421875 43.28125 58.90625 
Q 39.453125 66.40625 31.78125 66.40625 
z
M 31.78125 74.21875 
Q 44.046875 74.21875 50.515625 64.515625 
Q 56.984375 54.828125 56.984375 36.375 
Q 56.984375 17.96875 50.515625 8.265625 
Q 44.046875 -1.421875 31.78125 -1.421875 
Q 19.53125 -1.421875 13.0625 8.265625 
Q 6.59375 17.96875 6.59375 36.375 
Q 6.59375 54.828125 13.0625 64.515625 
Q 19.53125 74.21875 31.78125 74.21875 
z
" id="DejaVuSans-48"/>
       </defs>
       <use xlink:href="#DejaVuSans-48"/>
      </g>
     </g>
    </g>
    <g id="xtick_2">
     <g id="line2d_3">
      <path clip-path="url(#p4013db28a4)" d="M 144.2304 298.944 
L 144.2304 27.648 
" style="fill:none;stroke:#b0b0b0;stroke-linecap:square;stroke-width:0.8;"/>
     </g>
     <g id="line2d_4">
      <g>
       <use style="stroke:#000000;stroke-width:0.8;" x="144.2304" xlink:href="#m0807aad6dc" y="298.944"/>
      </g>
     </g>
     <g id="text_2">
      <!-- 2 -->
      <g transform="translate(138.822275 318.861344)scale(0.17 -0.17)">
       <defs>
        <path d="M 19.1875 8.296875 
L 53.609375 8.296875 
L 53.609375 0 
L 7.328125 0 
L 7.328125 8.296875 
Q 12.9375 14.109375 22.625 23.890625 
Q 32.328125 33.6875 34.8125 36.53125 
Q 39.546875 41.84375 41.421875 45.53125 
Q 43.3125 49.21875 43.3125 52.78125 
Q 43.3125 58.59375 39.234375 62.25 
Q 35.15625 65.921875 28.609375 65.921875 
Q 23.96875 65.921875 18.8125 64.3125 
Q 13.671875 62.703125 7.8125 59.421875 
L 7.8125 69.390625 
Q 13.765625 71.78125 18.9375 73 
Q 24.125 74.21875 28.421875 74.21875 
Q 39.75 74.21875 46.484375 68.546875 
Q 53.21875 62.890625 53.21875 53.421875 
Q 53.21875 48.921875 51.53125 44.890625 
Q 49.859375 40.875 45.40625 35.40625 
Q 44.1875 33.984375 37.640625 27.21875 
Q 31.109375 20.453125 19.1875 8.296875 
z
" id="DejaVuSans-50"/>
       </defs>
       <use xlink:href="#DejaVuSans-50"/>
      </g>
     </g>
    </g>
    <g id="xtick_3">
     <g id="line2d_5">
      <path clip-path="url(#p4013db28a4)" d="M 230.8608 298.944 
L 230.8608 27.648 
" style="fill:none;stroke:#b0b0b0;stroke-linecap:square;stroke-width:0.8;"/>
     </g>
     <g id="line2d_6">
      <g>
       <use style="stroke:#000000;stroke-width:0.8;" x="230.8608" xlink:href="#m0807aad6dc" y="298.944"/>
      </g>
     </g>
     <g id="text_3">
      <!-- 4 -->
      <g transform="translate(225.452675 318.861344)scale(0.17 -0.17)">
       <defs>
        <path d="M 37.796875 64.3125 
L 12.890625 25.390625 
L 37.796875 25.390625 
z
M 35.203125 72.90625 
L 47.609375 72.90625 
L 47.609375 25.390625 
L 58.015625 25.390625 
L 58.015625 17.1875 
L 47.609375 17.1875 
L 47.609375 0 
L 37.796875 0 
L 37.796875 17.1875 
L 4.890625 17.1875 
L 4.890625 26.703125 
z
" id="DejaVuSans-52"/>
       </defs>
       <use xlink:href="#DejaVuSans-52"/>
      </g>
     </g>
    </g>
    <g id="xtick_4">
     <g id="line2d_7">
      <path clip-path="url(#p4013db28a4)" d="M 317.4912 298.944 
L 317.4912 27.648 
" style="fill:none;stroke:#b0b0b0;stroke-linecap:square;stroke-width:0.8;"/>
     </g>
     <g id="line2d_8">
      <g>
       <use style="stroke:#000000;stroke-width:0.8;" x="317.4912" xlink:href="#m0807aad6dc" y="298.944"/>
      </g>
     </g>
     <g id="text_4">
      <!-- 6 -->
      <g transform="translate(312.083075 318.861344)scale(0.17 -0.17)">
       <defs>
        <path d="M 33.015625 40.375 
Q 26.375 40.375 22.484375 35.828125 
Q 18.609375 31.296875 18.609375 23.390625 
Q 18.609375 15.53125 22.484375 10.953125 
Q 26.375 6.390625 33.015625 6.390625 
Q 39.65625 6.390625 43.53125 10.953125 
Q 47.40625 15.53125 47.40625 23.390625 
Q 47.40625 31.296875 43.53125 35.828125 
Q 39.65625 40.375 33.015625 40.375 
z
M 52.59375 71.296875 
L 52.59375 62.3125 
Q 48.875 64.0625 45.09375 64.984375 
Q 41.3125 65.921875 37.59375 65.921875 
Q 27.828125 65.921875 22.671875 59.328125 
Q 17.53125 52.734375 16.796875 39.40625 
Q 19.671875 43.65625 24.015625 45.921875 
Q 28.375 48.1875 33.59375 48.1875 
Q 44.578125 48.1875 50.953125 41.515625 
Q 57.328125 34.859375 57.328125 23.390625 
Q 57.328125 12.15625 50.6875 5.359375 
Q 44.046875 -1.421875 33.015625 -1.421875 
Q 20.359375 -1.421875 13.671875 8.265625 
Q 6.984375 17.96875 6.984375 36.375 
Q 6.984375 53.65625 15.1875 63.9375 
Q 23.390625 74.21875 37.203125 74.21875 
Q 40.921875 74.21875 44.703125 73.484375 
Q 48.484375 72.75 52.59375 71.296875 
z
" id="DejaVuSans-54"/>
       </defs>
       <use xlink:href="#DejaVuSans-54"/>
      </g>
     </g>
    </g>
    <g id="xtick_5">
     <g id="line2d_9">
      <path clip-path="url(#p4013db28a4)" d="M 100.9152 298.944 
L 100.9152 27.648 
" style="fill:none;stroke:#b0b0b0;stroke-linecap:square;stroke-width:0.8;"/>
     </g>
     <g id="line2d_10">
      <defs>
       <path d="M 0 0 
L 0 2 
" id="m037297545a" style="stroke:#000000;stroke-width:0.6;"/>
      </defs>
      <g>
       <use style="stroke:#000000;stroke-width:0.6;" x="100.9152" xlink:href="#m037297545a" y="298.944"/>
      </g>
     </g>
    </g>
    <g id="xtick_6">
     <g id="line2d_11">
      <path clip-path="url(#p4013db28a4)" d="M 187.5456 298.944 
L 187.5456 27.648 
" style="fill:none;stroke:#b0b0b0;stroke-linecap:square;stroke-width:0.8;"/>
     </g>
     <g id="line2d_12">
      <g>
       <use style="stroke:#000000;stroke-width:0.6;" x="187.5456" xlink:href="#m037297545a" y="298.944"/>
      </g>
     </g>
    </g>
    <g id="xtick_7">
     <g id="line2d_13">
      <path clip-path="url(#p4013db28a4)" d="M 274.176 298.944 
L 274.176 27.648 
" style="fill:none;stroke:#b0b0b0;stroke-linecap:square;stroke-width:0.8;"/>
     </g>
     <g id="line2d_14">
      <g>
       <use style="stroke:#000000;stroke-width:0.6;" x="274.176" xlink:href="#m037297545a" y="298.944"/>
      </g>
     </g>
    </g>
    <g id="xtick_8">
     <g id="line2d_15">
      <path clip-path="url(#p4013db28a4)" d="M 360.8064 298.944 
L 360.8064 27.648 
" style="fill:none;stroke:#b0b0b0;stroke-linecap:square;stroke-width:0.8;"/>
     </g>
     <g id="line2d_16">
      <g>
       <use style="stroke:#000000;stroke-width:0.6;" x="360.8064" xlink:href="#m037297545a" y="298.944"/>
      </g>
     </g>
    </g>
    <g id="text_5">
     <!-- log10(evals / dimension) -->
     <g transform="translate(104.238825 339.314156)scale(0.17 -0.17)">
      <defs>
       <path d="M 9.421875 75.984375 
L 18.40625 75.984375 
L 18.40625 0 
L 9.421875 0 
z
" id="DejaVuSans-108"/>
       <path d="M 30.609375 48.390625 
Q 23.390625 48.390625 19.1875 42.75 
Q 14.984375 37.109375 14.984375 27.296875 
Q 14.984375 17.484375 19.15625 11.84375 
Q 23.34375 6.203125 30.609375 6.203125 
Q 37.796875 6.203125 41.984375 11.859375 
Q 46.1875 17.53125 46.1875 27.296875 
Q 46.1875 37.015625 41.984375 42.703125 
Q 37.796875 48.390625 30.609375 48.390625 
z
M 30.609375 56 
Q 42.328125 56 49.015625 48.375 
Q 55.71875 40.765625 55.71875 27.296875 
Q 55.71875 13.875 49.015625 6.21875 
Q 42.328125 -1.421875 30.609375 -1.421875 
Q 18.84375 -1.421875 12.171875 6.21875 
Q 5.515625 13.875 5.515625 27.296875 
Q 5.515625 40.765625 12.171875 48.375 
Q 18.84375 56 30.609375 56 
z
" id="DejaVuSans-111"/>
       <path d="M 45.40625 27.984375 
Q 45.40625 37.75 41.375 43.109375 
Q 37.359375 48.484375 30.078125 48.484375 
Q 22.859375 48.484375 18.828125 43.109375 
Q 14.796875 37.75 14.796875 27.984375 
Q 14.796875 18.265625 18.828125 12.890625 
Q 22.859375 7.515625 30.078125 7.515625 
Q 37.359375 7.515625 41.375 12.890625 
Q 45.40625 18.265625 45.40625 27.984375 
z
M 54.390625 6.78125 
Q 54.390625 -7.171875 48.1875 -13.984375 
Q 42 -20.796875 29.203125 -20.796875 
Q 24.46875 -20.796875 20.265625 -20.09375 
Q 16.0625 -19.390625 12.109375 -17.921875 
L 12.109375 -9.1875 
Q 16.0625 -11.328125 19.921875 -12.34375 
Q 23.78125 -13.375 27.78125 -13.375 
Q 36.625 -13.375 41.015625 -8.765625 
Q 45.40625 -4.15625 45.40625 5.171875 
L 45.40625 9.625 
Q 42.625 4.78125 38.28125 2.390625 
Q 33.9375 0 27.875 0 
Q 17.828125 0 11.671875 7.65625 
Q 5.515625 15.328125 5.515625 27.984375 
Q 5.515625 40.671875 11.671875 48.328125 
Q 17.828125 56 27.875 56 
Q 33.9375 56 38.28125 53.609375 
Q 42.625 51.21875 45.40625 46.390625 
L 45.40625 54.6875 
L 54.390625 54.6875 
z
" id="DejaVuSans-103"/>
       <path d="M 12.40625 8.296875 
L 28.515625 8.296875 
L 28.515625 63.921875 
L 10.984375 60.40625 
L 10.984375 69.390625 
L 28.421875 72.90625 
L 38.28125 72.90625 
L 38.28125 8.296875 
L 54.390625 8.296875 
L 54.390625 0 
L 12.40625 0 
z
" id="DejaVuSans-49"/>
       <path d="M 31 75.875 
Q 24.46875 64.65625 21.28125 53.65625 
Q 18.109375 42.671875 18.109375 31.390625 
Q 18.109375 20.125 21.3125 9.0625 
Q 24.515625 -2 31 -13.1875 
L 23.1875 -13.1875 
Q 15.875 -1.703125 12.234375 9.375 
Q 8.59375 20.453125 8.59375 31.390625 
Q 8.59375 42.28125 12.203125 53.3125 
Q 15.828125 64.359375 23.1875 75.875 
z
" id="DejaVuSans-40"/>
       <path d="M 56.203125 29.59375 
L 56.203125 25.203125 
L 14.890625 25.203125 
Q 15.484375 15.921875 20.484375 11.0625 
Q 25.484375 6.203125 34.421875 6.203125 
Q 39.59375 6.203125 44.453125 7.46875 
Q 49.3125 8.734375 54.109375 11.28125 
L 54.109375 2.78125 
Q 49.265625 0.734375 44.1875 -0.34375 
Q 39.109375 -1.421875 33.890625 -1.421875 
Q 20.796875 -1.421875 13.15625 6.1875 
Q 5.515625 13.8125 5.515625 26.8125 
Q 5.515625 40.234375 12.765625 48.109375 
Q 20.015625 56 32.328125 56 
Q 43.359375 56 49.78125 48.890625 
Q 56.203125 41.796875 56.203125 29.59375 
z
M 47.21875 32.234375 
Q 47.125 39.59375 43.09375 43.984375 
Q 39.0625 48.390625 32.421875 48.390625 
Q 24.90625 48.390625 20.390625 44.140625 
Q 15.875 39.890625 15.1875 32.171875 
z
" id="DejaVuSans-101"/>
       <path d="M 2.984375 54.6875 
L 12.5 54.6875 
L 29.59375 8.796875 
L 46.6875 54.6875 
L 56.203125 54.6875 
L 35.6875 0 
L 23.484375 0 
z
" id="DejaVuSans-118"/>
       <path d="M 34.28125 27.484375 
Q 23.390625 27.484375 19.1875 25 
Q 14.984375 22.515625 14.984375 16.5 
Q 14.984375 11.71875 18.140625 8.90625 
Q 21.296875 6.109375 26.703125 6.109375 
Q 34.1875 6.109375 38.703125 11.40625 
Q 43.21875 16.703125 43.21875 25.484375 
L 43.21875 27.484375 
z
M 52.203125 31.203125 
L 52.203125 0 
L 43.21875 0 
L 43.21875 8.296875 
Q 40.140625 3.328125 35.546875 0.953125 
Q 30.953125 -1.421875 24.3125 -1.421875 
Q 15.921875 -1.421875 10.953125 3.296875 
Q 6 8.015625 6 15.921875 
Q 6 25.140625 12.171875 29.828125 
Q 18.359375 34.515625 30.609375 34.515625 
L 43.21875 34.515625 
L 43.21875 35.40625 
Q 43.21875 41.609375 39.140625 45 
Q 35.0625 48.390625 27.6875 48.390625 
Q 23 48.390625 18.546875 47.265625 
Q 14.109375 46.140625 10.015625 43.890625 
L 10.015625 52.203125 
Q 14.9375 54.109375 19.578125 55.046875 
Q 24.21875 56 28.609375 56 
Q 40.484375 56 46.34375 49.84375 
Q 52.203125 43.703125 52.203125 31.203125 
z
" id="DejaVuSans-97"/>
       <path d="M 44.28125 53.078125 
L 44.28125 44.578125 
Q 40.484375 46.53125 36.375 47.5 
Q 32.28125 48.484375 27.875 48.484375 
Q 21.1875 48.484375 17.84375 46.4375 
Q 14.5 44.390625 14.5 40.28125 
Q 14.5 37.15625 16.890625 35.375 
Q 19.28125 33.59375 26.515625 31.984375 
L 29.59375 31.296875 
Q 39.15625 29.25 43.1875 25.515625 
Q 47.21875 21.78125 47.21875 15.09375 
Q 47.21875 7.46875 41.1875 3.015625 
Q 35.15625 -1.421875 24.609375 -1.421875 
Q 20.21875 -1.421875 15.453125 -0.5625 
Q 10.6875 0.296875 5.421875 2 
L 5.421875 11.28125 
Q 10.40625 8.6875 15.234375 7.390625 
Q 20.0625 6.109375 24.8125 6.109375 
Q 31.15625 6.109375 34.5625 8.28125 
Q 37.984375 10.453125 37.984375 14.40625 
Q 37.984375 18.0625 35.515625 20.015625 
Q 33.0625 21.96875 24.703125 23.78125 
L 21.578125 24.515625 
Q 13.234375 26.265625 9.515625 29.90625 
Q 5.8125 33.546875 5.8125 39.890625 
Q 5.8125 47.609375 11.28125 51.796875 
Q 16.75 56 26.8125 56 
Q 31.78125 56 36.171875 55.265625 
Q 40.578125 54.546875 44.28125 53.078125 
z
" id="DejaVuSans-115"/>
       <path id="DejaVuSans-32"/>
       <path d="M 25.390625 72.90625 
L 33.6875 72.90625 
L 8.296875 -9.28125 
L 0 -9.28125 
z
" id="DejaVuSans-47"/>
       <path d="M 45.40625 46.390625 
L 45.40625 75.984375 
L 54.390625 75.984375 
L 54.390625 0 
L 45.40625 0 
L 45.40625 8.203125 
Q 42.578125 3.328125 38.25 0.953125 
Q 33.9375 -1.421875 27.875 -1.421875 
Q 17.96875 -1.421875 11.734375 6.484375 
Q 5.515625 14.40625 5.515625 27.296875 
Q 5.515625 40.1875 11.734375 48.09375 
Q 17.96875 56 27.875 56 
Q 33.9375 56 38.25 53.625 
Q 42.578125 51.265625 45.40625 46.390625 
z
M 14.796875 27.296875 
Q 14.796875 17.390625 18.875 11.75 
Q 22.953125 6.109375 30.078125 6.109375 
Q 37.203125 6.109375 41.296875 11.75 
Q 45.40625 17.390625 45.40625 27.296875 
Q 45.40625 37.203125 41.296875 42.84375 
Q 37.203125 48.484375 30.078125 48.484375 
Q 22.953125 48.484375 18.875 42.84375 
Q 14.796875 37.203125 14.796875 27.296875 
z
" id="DejaVuSans-100"/>
       <path d="M 9.421875 54.6875 
L 18.40625 54.6875 
L 18.40625 0 
L 9.421875 0 
z
M 9.421875 75.984375 
L 18.40625 75.984375 
L 18.40625 64.59375 
L 9.421875 64.59375 
z
" id="DejaVuSans-105"/>
       <path d="M 52 44.1875 
Q 55.375 50.25 60.0625 53.125 
Q 64.75 56 71.09375 56 
Q 79.640625 56 84.28125 50.015625 
Q 88.921875 44.046875 88.921875 33.015625 
L 88.921875 0 
L 79.890625 0 
L 79.890625 32.71875 
Q 79.890625 40.578125 77.09375 44.375 
Q 74.3125 48.1875 68.609375 48.1875 
Q 61.625 48.1875 57.5625 43.546875 
Q 53.515625 38.921875 53.515625 30.90625 
L 53.515625 0 
L 44.484375 0 
L 44.484375 32.71875 
Q 44.484375 40.625 41.703125 44.40625 
Q 38.921875 48.1875 33.109375 48.1875 
Q 26.21875 48.1875 22.15625 43.53125 
Q 18.109375 38.875 18.109375 30.90625 
L 18.109375 0 
L 9.078125 0 
L 9.078125 54.6875 
L 18.109375 54.6875 
L 18.109375 46.1875 
Q 21.1875 51.21875 25.484375 53.609375 
Q 29.78125 56 35.6875 56 
Q 41.65625 56 45.828125 52.96875 
Q 50 49.953125 52 44.1875 
z
" id="DejaVuSans-109"/>
       <path d="M 54.890625 33.015625 
L 54.890625 0 
L 45.90625 0 
L 45.90625 32.71875 
Q 45.90625 40.484375 42.875 44.328125 
Q 39.84375 48.1875 33.796875 48.1875 
Q 26.515625 48.1875 22.3125 43.546875 
Q 18.109375 38.921875 18.109375 30.90625 
L 18.109375 0 
L 9.078125 0 
L 9.078125 54.6875 
L 18.109375 54.6875 
L 18.109375 46.1875 
Q 21.34375 51.125 25.703125 53.5625 
Q 30.078125 56 35.796875 56 
Q 45.21875 56 50.046875 50.171875 
Q 54.890625 44.34375 54.890625 33.015625 
z
" id="DejaVuSans-110"/>
       <path d="M 8.015625 75.875 
L 15.828125 75.875 
Q 23.140625 64.359375 26.78125 53.3125 
Q 30.421875 42.28125 30.421875 31.390625 
Q 30.421875 20.453125 26.78125 9.375 
Q 23.140625 -1.703125 15.828125 -13.1875 
L 8.015625 -13.1875 
Q 14.5 -2 17.703125 9.0625 
Q 20.90625 20.125 20.90625 31.390625 
Q 20.90625 42.671875 17.703125 53.65625 
Q 14.5 64.65625 8.015625 75.875 
z
" id="DejaVuSans-41"/>
      </defs>
      <use xlink:href="#DejaVuSans-108"/>
      <use x="27.783203" xlink:href="#DejaVuSans-111"/>
      <use x="88.964844" xlink:href="#DejaVuSans-103"/>
      <use x="152.441406" xlink:href="#DejaVuSans-49"/>
      <use x="216.064453" xlink:href="#DejaVuSans-48"/>
      <use x="279.6875" xlink:href="#DejaVuSans-40"/>
      <use x="318.701172" xlink:href="#DejaVuSans-101"/>
      <use x="380.224609" xlink:href="#DejaVuSans-118"/>
      <use x="439.404297" xlink:href="#DejaVuSans-97"/>
      <use x="500.683594" xlink:href="#DejaVuSans-108"/>
      <use x="528.466797" xlink:href="#DejaVuSans-115"/>
      <use x="580.566406" xlink:href="#DejaVuSans-32"/>
      <use x="612.353516" xlink:href="#DejaVuSans-47"/>
      <use x="646.044922" xlink:href="#DejaVuSans-32"/>
      <use x="677.832031" xlink:href="#DejaVuSans-100"/>
      <use x="741.308594" xlink:href="#DejaVuSans-105"/>
      <use x="769.091797" xlink:href="#DejaVuSans-109"/>
      <use x="866.503906" xlink:href="#DejaVuSans-101"/>
      <use x="928.027344" xlink:href="#DejaVuSans-110"/>
      <use x="991.40625" xlink:href="#DejaVuSans-115"/>
      <use x="1043.505859" xlink:href="#DejaVuSans-105"/>
      <use x="1071.289062" xlink:href="#DejaVuSans-111"/>
      <use x="1132.470703" xlink:href="#DejaVuSans-110"/>
      <use x="1195.849609" xlink:href="#DejaVuSans-41"/>
     </g>
    </g>
   </g>
   <g id="matplotlib.axis_2">
    <g id="ytick_1">
     <g id="line2d_17">
      <path clip-path="url(#p4013db28a4)" d="M 57.6 298.944 
L 360.8064 298.944 
" style="fill:none;stroke:#b0b0b0;stroke-linecap:square;stroke-width:0.8;"/>
     </g>
     <g id="line2d_18">
      <defs>
       <path d="M 0 0 
L -3.5 0 
" id="m68c7830e48" style="stroke:#000000;stroke-width:0.8;"/>
      </defs>
      <g>
       <use style="stroke:#000000;stroke-width:0.8;" x="57.6" xlink:href="#m68c7830e48" y="298.944"/>
      </g>
     </g>
     <g id="text_6">
      <!-- 0.0 -->
      <g transform="translate(25.155 305.02275)scale(0.16 -0.16)">
       <defs>
        <path d="M 10.6875 12.40625 
L 21 12.40625 
L 21 0 
L 10.6875 0 
z
" id="DejaVuSans-46"/>
       </defs>
       <use xlink:href="#DejaVuSans-48"/>
       <use x="63.623047" xlink:href="#DejaVuSans-46"/>
       <use x="95.410156" xlink:href="#DejaVuSans-48"/>
      </g>
     </g>
    </g>
    <g id="ytick_2">
     <g id="line2d_19">
      <path clip-path="url(#p4013db28a4)" d="M 57.6 244.6848 
L 360.8064 244.6848 
" style="fill:none;stroke:#b0b0b0;stroke-linecap:square;stroke-width:0.8;"/>
     </g>
     <g id="line2d_20">
      <g>
       <use style="stroke:#000000;stroke-width:0.8;" x="57.6" xlink:href="#m68c7830e48" y="244.6848"/>
      </g>
     </g>
     <g id="text_7">
      <!-- 0.2 -->
      <g transform="translate(25.155 250.76355)scale(0.16 -0.16)">
       <use xlink:href="#DejaVuSans-48"/>
       <use x="63.623047" xlink:href="#DejaVuSans-46"/>
       <use x="95.410156" xlink:href="#DejaVuSans-50"/>
      </g>
     </g>
    </g>
    <g id="ytick_3">
     <g id="line2d_21">
      <path clip-path="url(#p4013db28a4)" d="M 57.6 190.4256 
L 360.8064 190.4256 
" style="fill:none;stroke:#b0b0b0;stroke-linecap:square;stroke-width:0.8;"/>
     </g>
     <g id="line2d_22">
      <g>
       <use style="stroke:#000000;stroke-width:0.8;" x="57.6" xlink:href="#m68c7830e48" y="190.4256"/>
      </g>
     </g>
     <g id="text_8">
      <!-- 0.4 -->
      <g transform="translate(25.155 196.50435)scale(0.16 -0.16)">
       <use xlink:href="#DejaVuSans-48"/>
       <use x="63.623047" xlink:href="#DejaVuSans-46"/>
       <use x="95.410156" xlink:href="#DejaVuSans-52"/>
      </g>
     </g>
    </g>
    <g id="ytick_4">
     <g id="line2d_23">
      <path clip-path="url(#p4013db28a4)" d="M 57.6 136.1664 
L 360.8064 136.1664 
" style="fill:none;stroke:#b0b0b0;stroke-linecap:square;stroke-width:0.8;"/>
     </g>
     <g id="line2d_24">
      <g>
       <use style="stroke:#000000;stroke-width:0.8;" x="57.6" xlink:href="#m68c7830e48" y="136.1664"/>
      </g>
     </g>
     <g id="text_9">
      <!-- 0.6 -->
      <g transform="translate(25.155 142.24515)scale(0.16 -0.16)">
       <use xlink:href="#DejaVuSans-48"/>
       <use x="63.623047" xlink:href="#DejaVuSans-46"/>
       <use x="95.410156" xlink:href="#DejaVuSans-54"/>
      </g>
     </g>
    </g>
    <g id="ytick_5">
     <g id="line2d_25">
      <path clip-path="url(#p4013db28a4)" d="M 57.6 81.9072 
L 360.8064 81.9072 
" style="fill:none;stroke:#b0b0b0;stroke-linecap:square;stroke-width:0.8;"/>
     </g>
     <g id="line2d_26">
      <g>
       <use style="stroke:#000000;stroke-width:0.8;" x="57.6" xlink:href="#m68c7830e48" y="81.9072"/>
      </g>
     </g>
     <g id="text_10">
      <!-- 0.8 -->
      <g transform="translate(25.155 87.98595)scale(0.16 -0.16)">
       <defs>
        <path d="M 31.78125 34.625 
Q 24.75 34.625 20.71875 30.859375 
Q 16.703125 27.09375 16.703125 20.515625 
Q 16.703125 13.921875 20.71875 10.15625 
Q 24.75 6.390625 31.78125 6.390625 
Q 38.8125 6.390625 42.859375 10.171875 
Q 46.921875 13.96875 46.921875 20.515625 
Q 46.921875 27.09375 42.890625 30.859375 
Q 38.875 34.625 31.78125 34.625 
z
M 21.921875 38.8125 
Q 15.578125 40.375 12.03125 44.71875 
Q 8.5 49.078125 8.5 55.328125 
Q 8.5 64.0625 14.71875 69.140625 
Q 20.953125 74.21875 31.78125 74.21875 
Q 42.671875 74.21875 48.875 69.140625 
Q 55.078125 64.0625 55.078125 55.328125 
Q 55.078125 49.078125 51.53125 44.71875 
Q 48 40.375 41.703125 38.8125 
Q 48.828125 37.15625 52.796875 32.3125 
Q 56.78125 27.484375 56.78125 20.515625 
Q 56.78125 9.90625 50.3125 4.234375 
Q 43.84375 -1.421875 31.78125 -1.421875 
Q 19.734375 -1.421875 13.25 4.234375 
Q 6.78125 9.90625 6.78125 20.515625 
Q 6.78125 27.484375 10.78125 32.3125 
Q 14.796875 37.15625 21.921875 38.8125 
z
M 18.3125 54.390625 
Q 18.3125 48.734375 21.84375 45.5625 
Q 25.390625 42.390625 31.78125 42.390625 
Q 38.140625 42.390625 41.71875 45.5625 
Q 45.3125 48.734375 45.3125 54.390625 
Q 45.3125 60.0625 41.71875 63.234375 
Q 38.140625 66.40625 31.78125 66.40625 
Q 25.390625 66.40625 21.84375 63.234375 
Q 18.3125 60.0625 18.3125 54.390625 
z
" id="DejaVuSans-56"/>
       </defs>
       <use xlink:href="#DejaVuSans-48"/>
       <use x="63.623047" xlink:href="#DejaVuSans-46"/>
       <use x="95.410156" xlink:href="#DejaVuSans-56"/>
      </g>
     </g>
    </g>
    <g id="ytick_6">
     <g id="line2d_27">
      <path clip-path="url(#p4013db28a4)" d="M 57.6 27.648 
L 360.8064 27.648 
" style="fill:none;stroke:#b0b0b0;stroke-linecap:square;stroke-width:0.8;"/>
     </g>
     <g id="line2d_28">
      <g>
       <use style="stroke:#000000;stroke-width:0.8;" x="57.6" xlink:href="#m68c7830e48" y="27.648"/>
      </g>
     </g>
     <g id="text_11">
      <!-- 1.0 -->
      <g transform="translate(25.155 33.72675)scale(0.16 -0.16)">
       <use xlink:href="#DejaVuSans-49"/>
       <use x="63.623047" xlink:href="#DejaVuSans-46"/>
       <use x="95.410156" xlink:href="#DejaVuSans-48"/>
      </g>
     </g>
    </g>
    <g id="text_12">
     <!-- Fraction of function,target pairs -->
     <g transform="translate(17.619531 297.681)rotate(-90)scale(0.17 -0.17)">
      <defs>
       <path d="M 9.8125 72.90625 
L 51.703125 72.90625 
L 51.703125 64.59375 
L 19.671875 64.59375 
L 19.671875 43.109375 
L 48.578125 43.109375 
L 48.578125 34.8125 
L 19.671875 34.8125 
L 19.671875 0 
L 9.8125 0 
z
" id="DejaVuSans-70"/>
       <path d="M 41.109375 46.296875 
Q 39.59375 47.171875 37.8125 47.578125 
Q 36.03125 48 33.890625 48 
Q 26.265625 48 22.1875 43.046875 
Q 18.109375 38.09375 18.109375 28.8125 
L 18.109375 0 
L 9.078125 0 
L 9.078125 54.6875 
L 18.109375 54.6875 
L 18.109375 46.1875 
Q 20.953125 51.171875 25.484375 53.578125 
Q 30.03125 56 36.53125 56 
Q 37.453125 56 38.578125 55.875 
Q 39.703125 55.765625 41.0625 55.515625 
z
" id="DejaVuSans-114"/>
       <path d="M 48.78125 52.59375 
L 48.78125 44.1875 
Q 44.96875 46.296875 41.140625 47.34375 
Q 37.3125 48.390625 33.40625 48.390625 
Q 24.65625 48.390625 19.8125 42.84375 
Q 14.984375 37.3125 14.984375 27.296875 
Q 14.984375 17.28125 19.8125 11.734375 
Q 24.65625 6.203125 33.40625 6.203125 
Q 37.3125 6.203125 41.140625 7.25 
Q 44.96875 8.296875 48.78125 10.40625 
L 48.78125 2.09375 
Q 45.015625 0.34375 40.984375 -0.53125 
Q 36.96875 -1.421875 32.421875 -1.421875 
Q 20.0625 -1.421875 12.78125 6.34375 
Q 5.515625 14.109375 5.515625 27.296875 
Q 5.515625 40.671875 12.859375 48.328125 
Q 20.21875 56 33.015625 56 
Q 37.15625 56 41.109375 55.140625 
Q 45.0625 54.296875 48.78125 52.59375 
z
" id="DejaVuSans-99"/>
       <path d="M 18.3125 70.21875 
L 18.3125 54.6875 
L 36.8125 54.6875 
L 36.8125 47.703125 
L 18.3125 47.703125 
L 18.3125 18.015625 
Q 18.3125 11.328125 20.140625 9.421875 
Q 21.96875 7.515625 27.59375 7.515625 
L 36.8125 7.515625 
L 36.8125 0 
L 27.59375 0 
Q 17.1875 0 13.234375 3.875 
Q 9.28125 7.765625 9.28125 18.015625 
L 9.28125 47.703125 
L 2.6875 47.703125 
L 2.6875 54.6875 
L 9.28125 54.6875 
L 9.28125 70.21875 
z
" id="DejaVuSans-116"/>
       <path d="M 37.109375 75.984375 
L 37.109375 68.5 
L 28.515625 68.5 
Q 23.6875 68.5 21.796875 66.546875 
Q 19.921875 64.59375 19.921875 59.515625 
L 19.921875 54.6875 
L 34.71875 54.6875 
L 34.71875 47.703125 
L 19.921875 47.703125 
L 19.921875 0 
L 10.890625 0 
L 10.890625 47.703125 
L 2.296875 47.703125 
L 2.296875 54.6875 
L 10.890625 54.6875 
L 10.890625 58.5 
Q 10.890625 67.625 15.140625 71.796875 
Q 19.390625 75.984375 28.609375 75.984375 
z
" id="DejaVuSans-102"/>
       <path d="M 8.5 21.578125 
L 8.5 54.6875 
L 17.484375 54.6875 
L 17.484375 21.921875 
Q 17.484375 14.15625 20.5 10.265625 
Q 23.53125 6.390625 29.59375 6.390625 
Q 36.859375 6.390625 41.078125 11.03125 
Q 45.3125 15.671875 45.3125 23.6875 
L 45.3125 54.6875 
L 54.296875 54.6875 
L 54.296875 0 
L 45.3125 0 
L 45.3125 8.40625 
Q 42.046875 3.421875 37.71875 1 
Q 33.40625 -1.421875 27.6875 -1.421875 
Q 18.265625 -1.421875 13.375 4.4375 
Q 8.5 10.296875 8.5 21.578125 
z
M 31.109375 56 
z
" id="DejaVuSans-117"/>
       <path d="M 11.71875 12.40625 
L 22.015625 12.40625 
L 22.015625 4 
L 14.015625 -11.625 
L 7.71875 -11.625 
L 11.71875 4 
z
" id="DejaVuSans-44"/>
       <path d="M 18.109375 8.203125 
L 18.109375 -20.796875 
L 9.078125 -20.796875 
L 9.078125 54.6875 
L 18.109375 54.6875 
L 18.109375 46.390625 
Q 20.953125 51.265625 25.265625 53.625 
Q 29.59375 56 35.59375 56 
Q 45.5625 56 51.78125 48.09375 
Q 58.015625 40.1875 58.015625 27.296875 
Q 58.015625 14.40625 51.78125 6.484375 
Q 45.5625 -1.421875 35.59375 -1.421875 
Q 29.59375 -1.421875 25.265625 0.953125 
Q 20.953125 3.328125 18.109375 8.203125 
z
M 48.6875 27.296875 
Q 48.6875 37.203125 44.609375 42.84375 
Q 40.53125 48.484375 33.40625 48.484375 
Q 26.265625 48.484375 22.1875 42.84375 
Q 18.109375 37.203125 18.109375 27.296875 
Q 18.109375 17.390625 22.1875 11.75 
Q 26.265625 6.109375 33.40625 6.109375 
Q 40.53125 6.109375 44.609375 11.75 
Q 48.6875 17.390625 48.6875 27.296875 
z
" id="DejaVuSans-112"/>
      </defs>
      <use xlink:href="#DejaVuSans-70"/>
      <use x="50.269531" xlink:href="#DejaVuSans-114"/>
      <use x="91.382812" xlink:href="#DejaVuSans-97"/>
      <use x="152.662109" xlink:href="#DejaVuSans-99"/>
      <use x="207.642578" xlink:href="#DejaVuSans-116"/>
      <use x="246.851562" xlink:href="#DejaVuSans-105"/>
      <use x="274.634766" xlink:href="#DejaVuSans-111"/>
      <use x="335.816406" xlink:href="#DejaVuSans-110"/>
      <use x="399.195312" xlink:href="#DejaVuSans-32"/>
      <use x="430.982422" xlink:href="#DejaVuSans-111"/>
      <use x="492.164062" xlink:href="#DejaVuSans-102"/>
      <use x="527.369141" xlink:href="#DejaVuSans-32"/>
      <use x="559.15625" xlink:href="#DejaVuSans-102"/>
      <use x="594.361328" xlink:href="#DejaVuSans-117"/>
      <use x="657.740234" xlink:href="#DejaVuSans-110"/>
      <use x="721.119141" xlink:href="#DejaVuSans-99"/>
      <use x="776.099609" xlink:href="#DejaVuSans-116"/>
      <use x="815.308594" xlink:href="#DejaVuSans-105"/>
      <use x="843.091797" xlink:href="#DejaVuSans-111"/>
      <use x="904.273438" xlink:href="#DejaVuSans-110"/>
      <use x="967.652344" xlink:href="#DejaVuSans-44"/>
      <use x="999.439453" xlink:href="#DejaVuSans-116"/>
      <use x="1038.648438" xlink:href="#DejaVuSans-97"/>
      <use x="1099.927734" xlink:href="#DejaVuSans-114"/>
      <use x="1139.291016" xlink:href="#DejaVuSans-103"/>
      <use x="1202.767578" xlink:href="#DejaVuSans-101"/>
      <use x="1264.291016" xlink:href="#DejaVuSans-116"/>
      <use x="1303.5" xlink:href="#DejaVuSans-32"/>
      <use x="1335.287109" xlink:href="#DejaVuSans-112"/>
      <use x="1398.763672" xlink:href="#DejaVuSans-97"/>
      <use x="1460.042969" xlink:href="#DejaVuSans-105"/>
      <use x="1487.826172" xlink:href="#DejaVuSans-114"/>
      <use x="1528.939453" xlink:href="#DejaVuSans-115"/>
     </g>
    </g>
   </g>
   <g id="line2d_29">
    <defs>
     <path d="M 0 1.5 
C 0.397805 1.5 0.77937 1.341951 1.06066 1.06066 
C 1.341951 0.77937 1.5 0.397805 1.5 0 
C 1.5 -0.397805 1.341951 -0.77937 1.06066 -1.06066 
C 0.77937 -1.341951 0.397805 -1.5 0 -1.5 
C -0.397805 -1.5 -0.77937 -1.341951 -1.06066 -1.06066 
C -1.341951 -0.77937 -1.5 -0.397805 -1.5 0 
C -1.5 0.397805 -1.341951 0.77937 -1.06066 1.06066 
C -0.77937 1.341951 -0.397805 1.5 0 1.5 
z
" id="m130f1e7708" style="stroke:#000080;"/>
    </defs>
    <g>
     <use style="fill:#000080;stroke:#000080;" x="214.605261" xlink:href="#m130f1e7708" y="27.648"/>
     <use style="fill:#000080;stroke:#000080;" x="214.605261" xlink:href="#m130f1e7708" y="27.648"/>
    </g>
   </g>
   <g id="line2d_30">
    <path d="M 88.613828 298.944 
L 88.613828 296.29721 
L 96.717523 296.29721 
L 96.717523 295.856078 
L 99.346662 295.856078 
L 99.346662 294.091551 
L 100.147275 294.091551 
L 100.147275 289.680234 
L 100.9152 289.680234 
L 100.9152 286.592312 
L 101.653002 286.592312 
L 101.653002 283.50439 
L 102.362957 283.50439 
L 102.362957 283.063259 
L 103.047088 283.063259 
L 103.047088 281.298732 
L 103.707211 281.298732 
L 103.707211 277.328546 
L 104.961779 277.328546 
L 104.961779 276.887415 
L 105.559021 276.887415 
L 105.559021 274.240624 
L 106.137884 274.240624 
L 106.137884 273.358361 
L 107.774703 273.358361 
L 107.774703 272.917229 
L 108.29012 272.917229 
L 108.29012 270.270439 
L 108.791791 270.270439 
L 108.791791 267.623649 
L 110.221204 267.623649 
L 110.221204 266.741385 
L 110.674517 266.741385 
L 110.674517 264.094595 
L 111.117162 264.094595 
L 111.117162 262.330068 
L 111.54963 262.330068 
L 111.54963 259.683278 
L 112.790402 259.683278 
L 112.790402 257.918751 
L 113.186449 257.918751 
L 113.186449 257.47762 
L 113.57433 257.47762 
L 113.57433 256.595356 
L 113.954374 256.595356 
L 113.954374 253.066302 
L 114.326893 253.066302 
L 114.326893 249.537249 
L 114.692177 249.537249 
L 114.692177 249.096117 
L 115.050503 249.096117 
L 115.050503 248.654985 
L 115.747307 248.654985 
L 115.747307 246.449327 
L 116.086263 246.449327 
L 116.086263 244.6848 
L 117.067958 244.6848 
L 117.067958 240.714615 
L 117.384126 240.714615 
L 117.384126 240.273483 
L 117.695068 240.273483 
L 117.695068 238.508956 
L 119.177058 238.508956 
L 119.177058 234.979902 
L 119.459944 234.979902 
L 119.459944 234.538771 
L 121.329295 234.538771 
L 121.329295 233.656507 
L 121.581803 233.656507 
L 121.581803 231.450849 
L 121.830966 231.450849 
L 121.830966 229.24519 
L 122.559246 229.24519 
L 122.559246 223.95161 
L 123.029559 223.95161 
L 123.029559 222.187083 
L 123.4884 222.187083 
L 123.4884 219.540293 
L 124.588805 219.540293 
L 124.588805 219.099161 
L 125.011554 219.099161 
L 125.011554 217.334634 
L 125.829577 217.334634 
L 125.829577 216.893502 
L 126.028642 216.893502 
L 126.028642 216.452371 
L 126.420564 216.452371 
L 126.420564 215.570107 
L 126.613505 215.570107 
L 126.613505 215.128976 
L 127.366067 215.128976 
L 127.366067 214.687844 
L 131.929028 214.687844 
L 131.929028 214.246712 
L 132.216233 214.246712 
L 132.216233 213.80558 
L 135.116046 213.80558 
L 135.116046 213.364449 
L 138.154948 213.364449 
L 138.154948 212.923317 
L 139.652679 212.923317 
L 139.652679 212.482185 
L 141.825656 212.482185 
L 141.825656 212.041054 
L 145.326529 212.041054 
L 145.326529 211.599922 
L 146.462796 211.599922 
L 146.462796 211.15879 
L 148.03267 211.15879 
L 148.03267 210.717659 
L 148.991428 210.717659 
L 148.991428 210.276527 
L 149.73597 210.276527 
L 149.73597 209.835395 
L 154.563149 209.835395 
L 154.563149 209.394263 
L 157.568177 209.394263 
L 157.568177 208.953132 
L 158.241064 208.953132 
L 158.241064 208.512 
L 158.418868 208.512 
L 158.418868 207.188605 
L 158.769513 207.188605 
L 158.769513 205.424078 
L 158.976805 205.424078 
L 159.079601 202.777288 
L 159.351007 202.777288 
L 159.351007 201.453893 
L 159.651731 201.453893 
L 159.68485 199.248234 
L 159.783859 199.248234 
L 159.783859 198.807102 
L 160.045361 198.807102 
L 160.077795 196.160312 
L 160.174762 196.160312 
L 160.174762 195.278049 
L 160.303279 195.278049 
L 160.303279 194.395785 
L 160.430923 194.395785 
L 160.526092 191.307863 
L 160.683643 191.307863 
L 160.683643 190.866732 
L 160.963953 190.866732 
L 160.994842 187.337678 
L 161.148532 187.337678 
L 161.148532 186.896546 
L 161.331318 186.896546 
L 161.331318 186.455415 
L 161.691646 186.455415 
L 161.78066 185.573151 
L 161.869254 185.573151 
L 161.869254 185.13202 
L 162.045202 185.13202 
L 162.045202 180.720702 
L 162.277267 180.720702 
L 162.277267 179.397307 
L 162.648372 179.397307 
L 162.732982 178.073912 
L 163.287526 178.073912 
L 163.287526 177.63278 
L 164.606324 177.63278 
L 164.606324 177.191649 
L 164.897003 177.191649 
L 164.897003 176.750517 
L 167.818303 176.750517 
L 167.818303 176.309385 
L 168.368511 176.309385 
L 168.4725 175.427122 
L 168.534619 175.427122 
L 168.534619 174.544859 
L 168.842171 174.544859 
L 168.842171 174.103727 
L 168.983993 174.103727 
L 169.044448 172.780332 
L 169.164778 172.780332 
L 169.184759 171.456937 
L 169.304197 171.456937 
L 169.304197 171.015805 
L 169.501592 171.015805 
L 169.560409 167.927883 
L 169.793854 167.927883 
L 169.813178 161.752039 
L 170.100675 161.752039 
L 170.19554 160.869776 
L 170.355719 160.869776 
L 170.421281 157.340722 
L 170.49593 157.340722 
L 170.533144 154.2528 
L 170.625857 154.2528 
L 170.681267 149.841483 
L 170.791599 149.841483 
L 170.828233 144.547902 
L 170.919507 144.547902 
L 171.010341 142.342244 
L 171.226568 142.342244 
L 171.226568 140.136585 
L 171.88669 140.136585 
L 171.921254 136.607532 
L 172.144386 136.607532 
L 172.204011 133.51961 
L 172.297327 133.51961 
L 172.373333 130.431688 
L 172.541145 130.431688 
L 172.591198 128.667161 
L 172.773594 128.667161 
L 172.872342 124.696976 
L 173.0195 124.696976 
L 173.0195 122.932449 
L 173.133165 122.932449 
L 173.133165 118.08 
L 173.390421 118.08 
L 173.390421 117.197737 
L 173.667825 117.197737 
L 173.77765 114.992078 
L 173.808912 114.992078 
L 173.855707 113.227551 
L 174.05715 113.227551 
L 174.149402 107.933971 
L 174.180052 107.933971 
L 174.286936 106.169444 
L 174.317363 106.169444 
L 174.393216 100.434732 
L 174.438582 100.434732 
L 174.513949 96.905678 
L 174.603992 96.905678 
L 174.678701 94.258888 
L 174.738254 94.258888 
L 174.827233 88.524176 
L 174.886319 88.524176 
L 174.959917 84.112859 
L 175.033228 84.112859 
L 175.120826 81.466068 
L 175.265921 81.466068 
L 175.265921 81.024937 
L 175.835365 81.024937 
L 175.863389 77.054751 
L 176.00289 77.054751 
L 176.086096 74.849093 
L 176.21022 74.849093 
L 176.21022 73.966829 
L 185.504989 73.966829 
L 185.504989 73.525698 
L 192.504218 73.525698 
L 192.504218 73.084566 
L 193.484149 73.084566 
L 193.484149 72.643434 
L 197.131682 72.643434 
L 197.235365 67.790985 
L 197.262318 67.790985 
L 197.365285 66.026459 
L 197.378674 66.026459 
L 197.378674 65.585327 
L 197.578374 65.585327 
L 197.578374 65.144195 
L 198.392592 65.144195 
L 198.49798 58.968351 
L 198.518986 58.968351 
L 198.62367 54.557034 
L 198.644537 54.557034 
L 198.644537 54.115902 
L 199.014192 54.115902 
L 199.014192 53.674771 
L 200.181682 53.674771 
L 200.181682 53.233639 
L 200.80731 53.233639 
L 200.80731 52.792507 
L 201.018055 52.792507 
L 201.047445 47.057795 
L 201.364134 47.057795 
L 201.472112 38.676293 
L 201.550904 38.676293 
L 201.550904 37.794029 
L 204.541633 37.794029 
L 204.572095 33.823844 
L 214.569517 33.823844 
L 214.605261 27.648 
L 360.8064 27.648 
L 360.8064 27.648 
" style="fill:none;stroke:#000080;stroke-linecap:square;stroke-width:1.5;"/>
   </g>
   <g id="line2d_31">
    <defs>
     <path d="M 0 6 
C 1.591219 6 3.117479 5.367802 4.242641 4.242641 
C 5.367802 3.117479 6 1.591219 6 0 
C 6 -1.591219 5.367802 -3.117479 4.242641 -4.242641 
C 3.117479 -5.367802 1.591219 -6 0 -6 
C -1.591219 -6 -3.117479 -5.367802 -4.242641 -4.242641 
C -5.367802 -3.117479 -6 -1.591219 -6 0 
C -6 1.591219 -5.367802 3.117479 -4.242641 4.242641 
C -3.117479 5.367802 -1.591219 6 0 6 
z
" id="m9497427729" style="stroke:#000080;stroke-width:1.5;"/>
    </defs>
    <g>
     <use style="fill-opacity:0;stroke:#000080;stroke-width:1.5;" x="160.994842" xlink:href="#m9497427729" y="190.4256"/>
     <use style="fill-opacity:0;stroke:#000080;stroke-width:1.5;" x="176.21022" xlink:href="#m9497427729" y="73.966829"/>
     <use style="fill-opacity:0;stroke:#000080;stroke-width:1.5;" x="214.605261" xlink:href="#m9497427729" y="27.648"/>
     <use style="fill-opacity:0;stroke:#000080;stroke-width:1.5;" x="214.605261" xlink:href="#m9497427729" y="27.648"/>
     <use style="fill-opacity:0;stroke:#000080;stroke-width:1.5;" x="360.8064" xlink:href="#m9497427729" y="27.648"/>
    </g>
   </g>
   <g id="line2d_32">
    <path style="fill:none;stroke:#000080;stroke-linecap:square;stroke-width:1.5;"/>
    <g/>
   </g>
   <g id="line2d_33">
    <defs>
     <path d="M 0 1.5 
C 0.397805 1.5 0.77937 1.341951 1.06066 1.06066 
C 1.341951 0.77937 1.5 0.397805 1.5 0 
C 1.5 -0.397805 1.341951 -0.77937 1.06066 -1.06066 
C 0.77937 -1.341951 0.397805 -1.5 0 -1.5 
C -0.397805 -1.5 -0.77937 -1.341951 -1.06066 -1.06066 
C -1.341951 -0.77937 -1.5 -0.397805 -1.5 0 
C -1.5 0.397805 -1.341951 0.77937 -1.06066 1.06066 
C -0.77937 1.341951 -0.397805 1.5 0 1.5 
z
" id="m13da4141e1" style="stroke:#ff00ff;"/>
    </defs>
    <g>
     <use style="fill:#ff00ff;stroke:#ff00ff;" x="199.922368" xlink:href="#m13da4141e1" y="27.648"/>
     <use style="fill:#ff00ff;stroke:#ff00ff;" x="199.922368" xlink:href="#m13da4141e1" y="27.648"/>
    </g>
   </g>
   <g id="line2d_34">
    <path d="M 92.519847 298.944 
L 92.519847 298.502868 
L 93.66029 298.502868 
L 93.66029 297.179473 
L 94.735529 297.179473 
L 94.735529 296.29721 
L 96.717523 296.29721 
L 96.717523 295.414946 
L 97.635342 295.414946 
L 97.635342 294.532683 
L 99.346662 294.532683 
L 99.346662 293.65042 
L 100.147275 293.65042 
L 100.147275 292.768156 
L 100.9152 292.768156 
L 100.9152 292.327024 
L 101.653002 292.327024 
L 101.653002 289.680234 
L 102.362957 289.680234 
L 102.362957 289.239102 
L 103.047088 289.239102 
L 103.047088 284.386654 
L 103.707211 284.386654 
L 103.707211 283.945522 
L 104.961779 283.945522 
L 104.961779 282.622127 
L 105.559021 282.622127 
L 105.559021 282.180995 
L 106.137884 282.180995 
L 106.137884 280.8576 
L 106.699465 280.8576 
L 106.699465 279.534205 
L 108.29012 279.534205 
L 108.29012 278.21081 
L 108.791791 278.21081 
L 108.791791 276.887415 
L 109.280431 276.887415 
L 109.280431 275.56402 
L 109.756698 275.56402 
L 109.756698 274.240624 
L 110.674517 274.240624 
L 110.674517 273.799493 
L 111.54963 273.799493 
L 111.54963 273.358361 
L 111.97238 273.358361 
L 111.97238 272.917229 
L 112.385837 272.917229 
L 112.385837 271.152702 
L 112.790402 271.152702 
L 112.790402 268.06478 
L 113.186449 268.06478 
L 113.186449 265.41799 
L 113.57433 265.41799 
L 113.57433 260.12441 
L 113.954374 260.12441 
L 113.954374 259.242146 
L 114.326893 259.242146 
L 114.326893 258.801015 
L 114.692177 258.801015 
L 114.692177 258.359883 
L 115.402131 258.359883 
L 115.402131 257.036488 
L 116.086263 257.036488 
L 116.086263 255.271961 
L 117.067958 255.271961 
L 117.067958 252.625171 
L 117.384126 252.625171 
L 117.384126 250.419512 
L 117.695068 250.419512 
L 117.695068 248.654985 
L 118.000953 248.654985 
L 118.000953 245.567063 
L 118.598196 245.567063 
L 118.598196 243.802537 
L 118.889854 243.802537 
L 118.889854 243.361405 
L 119.177058 243.361405 
L 119.177058 241.596878 
L 119.738639 241.596878 
L 119.738639 238.950088 
L 120.550775 238.950088 
L 120.550775 235.421034 
L 121.581803 235.421034 
L 121.581803 234.538771 
L 122.076872 234.538771 
L 122.076872 233.215376 
L 122.319605 233.215376 
L 122.319605 227.921795 
L 122.795872 227.921795 
L 122.795872 227.480663 
L 123.029559 227.480663 
L 123.029559 227.039532 
L 123.260379 227.039532 
L 123.260379 225.716137 
L 123.713691 225.716137 
L 123.713691 224.392741 
L 124.156336 224.392741 
L 124.156336 222.628215 
L 125.219419 222.628215 
L 125.219419 221.745951 
L 127.731351 221.745951 
L 127.731351 221.30482 
L 128.441306 221.30482 
L 128.441306 220.422556 
L 129.622688 220.422556 
L 129.622688 219.981424 
L 129.78556 219.981424 
L 129.78556 218.216898 
L 130.107132 218.216898 
L 130.107132 216.452371 
L 131.929028 216.452371 
L 131.929028 215.128976 
L 132.073179 215.128976 
L 132.073179 214.687844 
L 132.638982 214.687844 
L 132.638982 214.246712 
L 133.323114 214.246712 
L 133.323114 213.364449 
L 139.93843 213.364449 
L 139.93843 212.923317 
L 140.49723 212.923317 
L 140.49723 212.482185 
L 140.679868 212.482185 
L 140.770526 211.599922 
L 140.860749 211.599922 
L 140.950542 210.717659 
L 141.305488 210.717659 
L 141.305488 210.276527 
L 141.48048 210.276527 
L 141.48048 209.835395 
L 141.739954 209.835395 
L 141.739954 209.394263 
L 141.910969 209.394263 
L 141.910969 208.512 
L 142.497568 208.512 
L 142.497568 208.070868 
L 142.661862 208.070868 
L 142.661862 207.629737 
L 142.824734 207.629737 
L 142.905644 206.747473 
L 143.146307 206.747473 
L 143.225848 205.424078 
L 143.305055 205.424078 
L 143.305055 204.982946 
L 143.696162 204.982946 
L 143.773417 203.659551 
L 143.926981 203.659551 
L 143.926981 203.21842 
L 144.2304 203.21842 
L 144.305496 202.336156 
L 144.380294 202.336156 
L 144.454795 201.453893 
L 144.529002 201.453893 
L 144.529002 201.012761 
L 144.676545 201.012761 
L 144.676545 200.571629 
L 144.822939 200.571629 
L 144.895711 199.689366 
L 144.968202 199.689366 
L 145.040416 198.807102 
L 145.184016 198.807102 
L 145.255407 197.483707 
L 145.326529 197.483707 
L 145.326529 196.601444 
L 145.538293 196.601444 
L 145.608355 194.395785 
L 145.7477 194.395785 
L 145.7477 191.748995 
L 145.886021 191.748995 
L 145.954802 190.4256 
L 146.023332 190.4256 
L 146.023332 189.984468 
L 146.227438 189.984468 
L 146.227438 189.543337 
L 146.496179 189.543337 
L 146.562769 188.219941 
L 146.629123 188.219941 
L 146.695245 186.896546 
L 146.826795 186.896546 
L 146.826795 186.455415 
L 146.957431 186.455415 
L 146.957431 185.573151 
L 147.1517 185.573151 
L 147.1517 184.690888 
L 147.280107 184.690888 
L 147.343984 183.367493 
L 147.407644 183.367493 
L 147.471089 182.044098 
L 147.597342 182.044098 
L 147.660152 180.279571 
L 147.785146 180.279571 
L 147.847333 178.515044 
L 147.909315 178.515044 
L 147.909315 177.191649 
L 148.03267 177.191649 
L 148.094045 176.309385 
L 148.216198 176.309385 
L 148.216198 175.427122 
L 148.397954 175.427122 
L 148.458151 173.221463 
L 148.57797 173.221463 
L 148.637595 171.456937 
L 148.697031 171.456937 
L 148.697031 171.015805 
L 148.932916 171.015805 
L 148.991428 168.810146 
L 149.049758 168.810146 
L 149.049758 168.369015 
L 149.165879 168.369015 
L 149.165879 167.927883 
L 149.281288 167.927883 
L 149.281288 167.486751 
L 149.395993 167.486751 
L 149.395993 167.04562 
L 149.566749 167.04562 
L 149.566749 165.281093 
L 149.679732 165.281093 
L 149.679732 164.839961 
L 149.79204 164.839961 
L 149.847944 163.516566 
L 150.014665 163.516566 
L 150.124997 162.193171 
L 150.289291 162.193171 
L 150.289291 161.752039 
L 150.72052 161.752039 
L 150.72052 160.869776 
L 151.089903 160.869776 
L 151.089903 160.428644 
L 151.246016 160.428644 
L 151.349377 159.105249 
L 151.400845 159.105249 
L 151.400845 158.664117 
L 151.70673 158.664117 
L 151.807597 157.781854 
L 152.007722 157.781854 
L 152.007722 157.340722 
L 152.25492 157.340722 
L 152.303973 156.458459 
L 153.305585 156.458459 
L 153.305585 156.017327 
L 153.627945 156.017327 
L 153.673549 155.135063 
L 153.764426 155.135063 
L 153.764426 154.693932 
L 154.212341 154.693932 
L 154.212341 154.2528 
L 154.344662 154.2528 
L 154.344662 153.811668 
L 154.476059 153.811668 
L 154.476059 153.370537 
L 154.606544 153.370537 
L 154.606544 152.929405 
L 154.907535 152.929405 
L 154.907535 152.488273 
L 155.035072 152.488273 
L 155.077392 151.164878 
L 155.203786 151.164878 
L 155.203786 150.723746 
L 155.536743 150.723746 
L 155.536743 150.282615 
L 155.660098 150.282615 
L 155.660098 149.841483 
L 155.823323 149.841483 
L 155.823323 149.400351 
L 156.065535 149.400351 
L 156.065535 148.518088 
L 156.185481 148.518088 
L 156.265023 147.635824 
L 156.618856 147.635824 
L 156.696589 145.871298 
L 156.735336 145.871298 
L 156.812591 144.106771 
L 156.927882 144.106771 
L 156.927882 143.665639 
L 157.231914 143.665639 
L 157.30716 141.901112 
L 157.419468 141.901112 
L 157.419468 141.018849 
L 157.715719 141.018849 
L 157.825621 139.254322 
L 157.862113 139.254322 
L 157.934885 137.489795 
L 158.043518 137.489795 
L 158.115593 136.1664 
L 158.187393 136.1664 
L 158.294582 134.401873 
L 158.330176 134.401873 
L 158.436556 133.51961 
L 158.542339 133.51961 
L 158.647529 130.87282 
L 158.717331 130.87282 
L 158.821551 129.549424 
L 158.925196 129.549424 
L 158.959618 128.226029 
L 159.164837 128.226029 
L 159.232748 126.902634 
L 159.300416 126.902634 
L 159.401463 126.020371 
L 159.435025 126.020371 
L 159.535354 124.255844 
L 159.568678 124.255844 
L 159.668298 123.37358 
L 159.800309 123.37358 
L 159.898714 122.050185 
L 160.061585 122.050185 
L 160.158636 121.167922 
L 160.223059 121.167922 
L 160.319282 119.844527 
L 160.351247 119.844527 
L 160.383158 118.962263 
L 160.541906 118.962263 
L 160.636516 117.638868 
L 160.793149 117.638868 
L 160.82432 116.756605 
L 160.917524 116.756605 
L 161.010268 115.43321 
L 161.34647 115.43321 
L 161.34647 114.992078 
L 161.676769 114.992078 
L 161.676769 114.550946 
L 161.88398 114.550946 
L 161.97209 112.78642 
L 162.001369 112.78642 
L 162.001369 111.904156 
L 162.291676 111.904156 
L 162.320462 111.021893 
L 162.747046 111.021893 
L 162.8032 109.698498 
L 163.437203 109.698498 
L 163.545315 108.375102 
L 163.59914 108.375102 
L 163.679588 107.492839 
L 164.050532 107.492839 
L 164.102932 106.610576 
L 164.233297 106.610576 
L 164.233297 106.169444 
L 164.465701 106.169444 
L 164.568077 104.846049 
L 164.644495 104.846049 
L 164.695268 103.522654 
L 164.821605 103.522654 
L 164.846771 102.64039 
L 164.9471 102.64039 
L 164.9471 102.199259 
L 165.071763 102.199259 
L 165.170902 99.9936 
L 165.220276 99.9936 
L 165.220276 98.670205 
L 165.465221 98.670205 
L 165.538087 97.787941 
L 165.707018 97.787941 
L 165.778956 95.582283 
L 165.945747 95.582283 
L 165.945747 95.141151 
L 166.063985 95.141151 
L 166.111072 94.258888 
L 166.181484 94.258888 
L 166.181484 93.376624 
L 166.367969 93.376624 
L 166.39115 92.494361 
L 166.575579 92.494361 
L 166.644276 91.612098 
L 166.758217 91.612098 
L 166.8036 90.729834 
L 166.961587 90.729834 
L 167.051272 89.406439 
L 167.140533 89.406439 
L 167.140533 88.965307 
L 167.471536 88.965307 
L 167.471536 88.524176 
L 167.624034 88.524176 
L 167.667378 87.641912 
L 167.861203 87.641912 
L 167.861203 87.20078 
L 168.389355 87.20078 
L 168.410176 86.318517 
L 168.617126 86.318517 
L 168.678769 85.436254 
L 168.983993 85.436254 
L 168.983993 84.995122 
L 169.104709 84.995122 
L 169.104709 84.55399 
L 169.224656 84.55399 
L 169.224656 84.112859 
L 169.403154 84.112859 
L 169.403154 83.671727 
L 169.599518 83.671727 
L 169.599518 83.230595 
L 169.735764 83.230595 
L 169.793854 82.348332 
L 169.87103 82.348332 
L 169.87103 81.9072 
L 169.986203 81.9072 
L 170.024438 80.583805 
L 170.100675 80.583805 
L 170.19554 79.701541 
L 170.233352 79.701541 
L 170.308749 78.819278 
L 170.346334 78.819278 
L 170.402572 77.495883 
L 170.625857 77.495883 
L 170.681267 76.61362 
L 170.754894 76.61362 
L 170.846523 74.849093 
L 170.883051 74.849093 
L 170.97406 73.084566 
L 171.010341 73.084566 
L 171.010341 72.643434 
L 171.136775 72.643434 
L 171.136775 72.202302 
L 171.262365 72.202302 
L 171.262365 71.761171 
L 171.599086 71.761171 
L 171.616642 69.996644 
L 171.721637 69.996644 
L 171.808687 69.11438 
L 171.947136 69.11438 
L 171.947136 68.232117 
L 172.4742 68.232117 
L 172.4742 67.790985 
L 172.674324 67.790985 
L 172.757085 66.46759 
L 172.790088 66.46759 
L 172.790088 66.026459 
L 173.133165 66.026459 
L 173.133165 65.585327 
L 173.326436 65.585327 
L 173.326436 65.144195 
L 173.533597 65.144195 
L 173.533597 64.703063 
L 173.75417 64.703063 
L 173.785471 63.8208 
L 173.987664 63.8208 
L 174.080256 62.938537 
L 174.141731 62.938537 
L 174.187707 61.615141 
L 174.309761 61.615141 
L 174.309761 61.17401 
L 174.5365 61.17401 
L 174.581522 60.291746 
L 174.73082 60.291746 
L 174.73082 59.850615 
L 174.864184 59.850615 
L 174.864184 59.409483 
L 175.171736 59.409483 
L 175.171736 58.968351 
L 175.302021 58.968351 
L 175.374013 58.086088 
L 175.488631 58.086088 
L 175.488631 57.644956 
L 175.856387 57.644956 
L 175.940243 56.762693 
L 176.009838 56.762693 
L 176.065329 55.880429 
L 176.162047 55.880429 
L 176.162047 55.439298 
L 176.340357 55.439298 
L 176.340357 54.998166 
L 176.718763 54.998166 
L 176.812187 54.115902 
L 176.852084 54.115902 
L 176.852084 53.674771 
L 177.259475 53.674771 
L 177.298436 52.792507 
L 177.620009 52.792507 
L 177.709073 51.910244 
L 177.86078 51.910244 
L 177.911078 51.02798 
L 178.036239 51.02798 
L 178.123358 50.145717 
L 178.197712 50.145717 
L 178.197712 49.263454 
L 178.710121 49.263454 
L 178.758202 47.498927 
L 179.032306 47.498927 
L 179.032306 47.057795 
L 179.220658 47.057795 
L 179.255765 46.175532 
L 179.360695 46.175532 
L 179.360695 45.7344 
L 179.910646 45.7344 
L 179.910646 45.293268 
L 180.045657 45.293268 
L 180.045657 44.852137 
L 180.157432 44.852137 
L 180.157432 44.411005 
L 180.356967 44.411005 
L 180.356967 43.969873 
L 181.028493 43.969873 
L 181.028493 43.528741 
L 181.155741 43.528741 
L 181.176866 42.646478 
L 181.324079 42.646478 
L 181.386819 41.764215 
L 181.840628 41.764215 
L 181.840628 41.323083 
L 182.223933 41.323083 
L 182.223933 40.881951 
L 182.677721 40.881951 
L 182.677721 40.44082 
L 182.967879 40.44082 
L 182.967879 39.999688 
L 183.922225 39.999688 
L 183.922225 39.558556 
L 184.121867 39.558556 
L 184.121867 39.117424 
L 184.444052 39.117424 
L 184.444052 38.676293 
L 184.664589 38.676293 
L 184.664589 38.235161 
L 184.891237 38.235161 
L 184.925864 37.352898 
L 185.404078 37.352898 
L 185.404078 36.911766 
L 185.546876 36.911766 
L 185.655349 35.588371 
L 186.533109 35.588371 
L 186.572771 34.264976 
L 187.303258 34.264976 
L 187.303258 33.823844 
L 187.432391 33.823844 
L 187.432391 33.382712 
L 188.035783 33.382712 
L 188.09434 32.059317 
L 188.16 32.059317 
L 188.16 31.618185 
L 188.972443 31.618185 
L 188.972443 31.177054 
L 189.083713 31.177054 
L 189.083713 30.735922 
L 190.089485 30.735922 
L 190.089485 30.29479 
L 190.389433 30.29479 
L 190.389433 29.853659 
L 190.652806 29.853659 
L 190.652806 29.412527 
L 191.100346 29.412527 
L 191.100346 28.971395 
L 196.269157 28.971395 
L 196.292804 28.089132 
L 199.922368 28.089132 
L 199.922368 27.648 
L 360.8064 27.648 
L 360.8064 27.648 
" style="fill:none;stroke:#ff00ff;stroke-linecap:square;stroke-width:1.5;"/>
   </g>
   <g id="line2d_35">
    <defs>
     <path d="M -0 8.485281 
L 5.091169 0 
L 0 -8.485281 
L -5.091169 -0 
z
" id="m2075155ec1" style="stroke:#ff00ff;stroke-linejoin:miter;stroke-width:1.5;"/>
    </defs>
    <g>
     <use style="fill-opacity:0;stroke:#ff00ff;stroke-linejoin:miter;stroke-width:1.5;" x="132.638982" xlink:href="#m2075155ec1" y="214.687844"/>
     <use style="fill-opacity:0;stroke:#ff00ff;stroke-linejoin:miter;stroke-width:1.5;" x="191.100346" xlink:href="#m2075155ec1" y="28.971395"/>
     <use style="fill-opacity:0;stroke:#ff00ff;stroke-linejoin:miter;stroke-width:1.5;" x="199.922368" xlink:href="#m2075155ec1" y="27.648"/>
     <use style="fill-opacity:0;stroke:#ff00ff;stroke-linejoin:miter;stroke-width:1.5;" x="199.922368" xlink:href="#m2075155ec1" y="27.648"/>
     <use style="fill-opacity:0;stroke:#ff00ff;stroke-linejoin:miter;stroke-width:1.5;" x="360.8064" xlink:href="#m2075155ec1" y="27.648"/>
    </g>
   </g>
   <g id="line2d_36">
    <path style="fill:none;stroke:#ff00ff;stroke-linecap:square;stroke-width:1.5;"/>
    <g/>
   </g>
   <g id="line2d_37">
    <path clip-path="url(#p4013db28a4)" d="M 143.696162 204.541815 
" style="fill:none;stroke:#ff00ff;stroke-linecap:square;stroke-width:1.5;"/>
    <defs>
     <path d="M -12 12 
L 12 -12 
M -12 -12 
L 12 12 
" id="m5421527d9c" style="stroke:#ff00ff;"/>
    </defs>
    <g clip-path="url(#p4013db28a4)">
     <use style="fill:#ff00ff;stroke:#ff00ff;" x="143.696162" xlink:href="#m5421527d9c" y="204.541815"/>
    </g>
   </g>
   <g id="line2d_38">
    <defs>
     <path d="M 0 1.5 
C 0.397805 1.5 0.77937 1.341951 1.06066 1.06066 
C 1.341951 0.77937 1.5 0.397805 1.5 0 
C 1.5 -0.397805 1.341951 -0.77937 1.06066 -1.06066 
C 0.77937 -1.341951 0.397805 -1.5 0 -1.5 
C -0.397805 -1.5 -0.77937 -1.341951 -1.06066 -1.06066 
C -1.341951 -0.77937 -1.5 -0.397805 -1.5 0 
C -1.5 0.397805 -1.341951 0.77937 -1.06066 1.06066 
C -0.77937 1.341951 -0.397805 1.5 0 1.5 
z
" id="meb7a7f89f7" style="stroke:#ff7500;"/>
    </defs>
    <g>
     <use style="fill:#ff7500;stroke:#ff7500;" x="263.114568" xlink:href="#meb7a7f89f7" y="27.648"/>
     <use style="fill:#ff7500;stroke:#ff7500;" x="263.114568" xlink:href="#meb7a7f89f7" y="27.648"/>
    </g>
   </g>
   <g id="line2d_39">
    <path d="M 146.695245 298.944 
L 146.695245 297.179473 
L 148.216198 297.179473 
L 148.216198 296.738341 
L 150.72052 296.738341 
L 150.72052 296.29721 
L 151.142085 296.29721 
L 151.142085 295.856078 
L 151.297768 295.856078 
L 151.297768 293.65042 
L 152.450367 293.65042 
L 152.450367 293.209288 
L 152.787587 293.209288 
L 152.787587 292.768156 
L 153.536404 292.768156 
L 153.536404 291.885893 
L 154.168026 291.885893 
L 154.168026 291.444761 
L 156.383708 291.444761 
L 156.383708 290.562498 
L 156.927882 290.562498 
L 156.927882 290.121366 
L 157.080512 290.121366 
L 157.080512 289.680234 
L 157.382107 289.680234 
L 157.382107 288.797971 
L 159.401463 288.797971 
L 159.401463 288.356839 
L 161.406958 288.356839 
L 161.406958 287.915707 
L 161.913396 287.915707 
L 161.913396 287.474576 
L 164.644495 287.474576 
L 164.644495 287.033444 
L 164.871904 287.033444 
L 164.972099 286.15118 
L 168.430973 286.15118 
L 168.430973 285.710049 
L 168.575917 285.710049 
L 168.575917 285.268917 
L 173.454189 285.268917 
L 173.517742 284.386654 
L 173.769827 284.386654 
L 173.769827 283.945522 
L 176.162047 283.945522 
L 176.162047 283.50439 
L 176.462819 283.50439 
L 176.462819 283.063259 
L 177.076584 283.063259 
L 177.076584 282.180995 
L 178.123358 282.180995 
L 178.123358 281.739863 
L 178.937417 281.739863 
L 178.937417 281.298732 
L 179.24407 281.298732 
L 179.24407 280.416468 
L 179.591798 280.416468 
L 179.591798 279.975337 
L 179.729109 279.975337 
L 179.808747 278.21081 
L 181.261129 278.21081 
L 181.261129 277.769678 
L 182.023168 277.769678 
L 182.023168 277.328546 
L 182.163928 277.328546 
L 182.223933 275.56402 
L 182.283747 275.56402 
L 182.283747 274.240624 
L 183.234714 274.240624 
L 183.272526 273.358361 
L 183.479146 273.358361 
L 183.479146 272.476098 
L 183.711218 272.476098 
L 183.711218 272.034966 
L 183.949574 272.034966 
L 184.022311 270.270439 
L 184.085726 270.270439 
L 184.14442 269.388176 
L 184.265742 269.388176 
L 184.328343 267.623649 
L 186.785511 267.623649 
L 186.785511 267.182517 
L 187.10403 267.182517 
L 187.196243 265.859122 
L 187.364137 265.859122 
L 187.462647 264.094595 
L 187.56816 264.094595 
L 187.650651 262.7712 
L 187.799713 262.7712 
L 187.844202 261.447805 
L 187.940236 261.447805 
L 187.940236 260.565541 
L 188.057763 260.565541 
L 188.108951 259.683278 
L 188.189109 259.683278 
L 188.189109 259.242146 
L 188.333981 259.242146 
L 188.333981 258.801015 
L 188.456251 258.801015 
L 188.456251 258.359883 
L 188.993357 258.359883 
L 189.042064 257.036488 
L 191.131465 257.036488 
L 191.131465 256.595356 
L 191.29246 256.595356 
L 191.29246 255.713093 
L 193.346456 255.713093 
L 193.346456 254.389698 
L 193.648061 254.389698 
L 193.680673 252.625171 
L 193.859034 252.625171 
L 193.896652 251.301776 
L 194.062346 251.301776 
L 194.1367 250.419512 
L 194.237142 250.419512 
L 194.342293 246.449327 
L 194.38942 246.449327 
L 194.452073 245.567063 
L 194.540476 245.567063 
L 194.540476 245.125932 
L 194.690328 245.125932 
L 194.690328 244.6848 
L 195.122797 244.6848 
L 195.228128 238.508956 
L 195.579941 238.508956 
L 195.579941 238.067824 
L 196.083679 238.067824 
L 196.169511 236.303298 
L 196.292804 236.303298 
L 196.3918 233.656507 
L 196.408249 233.656507 
L 196.424683 231.89198 
L 200.509377 231.89198 
L 200.577248 230.568585 
L 200.7384 230.568585 
L 200.838888 228.362927 
L 200.88708 228.362927 
L 200.968355 227.039532 
L 201.096938 227.039532 
L 201.177313 226.157268 
L 201.347883 226.157268 
L 201.441581 225.275005 
L 201.509758 225.275005 
L 201.559836 223.95161 
L 201.648932 223.95161 
L 201.737607 220.863688 
L 201.822344 220.863688 
L 201.829388 219.981424 
L 202.088187 219.981424 
L 202.098604 219.099161 
L 202.305744 219.099161 
L 202.391383 218.216898 
L 202.676309 218.216898 
L 202.676309 217.775766 
L 202.810486 217.775766 
L 202.847218 216.011239 
L 203.099059 216.011239 
L 203.099059 215.570107 
L 203.275971 215.570107 
L 203.275971 215.128976 
L 203.7779 215.128976 
L 203.7779 214.246712 
L 203.904471 214.246712 
L 203.961151 209.394263 
L 204.061496 209.394263 
L 204.158198 205.86521 
L 204.229624 205.86521 
L 204.229624 203.659551 
L 204.408548 203.659551 
L 204.408548 203.21842 
L 205.380822 203.21842 
L 205.398308 202.336156 
L 205.494189 202.336156 
L 205.549172 201.453893 
L 205.612637 201.453893 
L 205.629909 197.042576 
L 205.781789 197.042576 
L 205.85585 194.395785 
L 211.541357 194.395785 
L 211.541357 193.954654 
L 212.258782 193.954654 
L 212.258782 193.513522 
L 214.049875 193.513522 
L 214.128788 191.748995 
L 214.174516 191.748995 
L 214.252909 188.661073 
L 214.303781 188.661073 
L 214.329165 183.808624 
L 215.483459 183.808624 
L 215.483459 182.926361 
L 216.318406 182.926361 
L 216.318406 182.485229 
L 216.877301 182.485229 
L 216.877301 182.044098 
L 217.344586 182.044098 
L 217.344586 181.602966 
L 218.895025 181.602966 
L 218.903551 180.720702 
L 219.445523 180.720702 
L 219.546028 179.397307 
L 219.624132 179.397307 
L 219.72913 175.868254 
L 219.746799 175.868254 
L 219.809188 173.221463 
L 219.895647 173.221463 
L 220.001825 167.927883 
L 220.011204 167.927883 
L 220.075393 163.957698 
L 220.127387 163.957698 
L 220.237563 161.310907 
L 220.245503 161.310907 
L 220.333935 157.781854 
L 220.992513 157.781854 
L 221.091428 152.929405 
L 221.128072 152.929405 
L 221.181016 152.047141 
L 221.250123 152.047141 
L 221.278947 149.841483 
L 221.362662 149.841483 
L 221.473293 144.989034 
L 221.527748 144.989034 
L 221.628813 143.224507 
L 221.641101 143.224507 
L 221.670559 140.577717 
L 222.919627 140.577717 
L 222.972346 138.81319 
L 223.065959 138.81319 
L 223.176098 136.607532 
L 223.188547 136.607532 
L 223.188547 136.1664 
L 223.308093 136.1664 
L 223.351887 134.401873 
L 223.431353 134.401873 
L 223.509372 133.51961 
L 223.559357 133.51961 
L 223.559357 133.078478 
L 223.725021 133.078478 
L 223.835751 127.784898 
L 223.852141 127.784898 
L 223.876154 126.902634 
L 224.003344 126.902634 
L 224.003344 124.696976 
L 224.613075 124.696976 
L 224.690532 122.491317 
L 224.728099 122.491317 
L 224.734353 121.167922 
L 224.86003 121.167922 
L 224.902425 118.962263 
L 225.026988 118.962263 
L 225.119107 116.756605 
L 225.180269 116.756605 
L 225.231087 111.021893 
L 225.360557 111.021893 
L 225.406868 106.610576 
L 225.694256 106.610576 
L 225.743706 100.875863 
L 225.871669 100.875863 
L 225.887359 99.9936 
L 226.273479 99.9936 
L 226.358749 98.670205 
L 226.389313 98.670205 
L 226.424592 97.34681 
L 226.675347 97.34681 
L 226.675347 96.905678 
L 226.9941 96.905678 
L 226.9941 96.464546 
L 227.134969 96.464546 
L 227.162468 92.494361 
L 230.00252 92.494361 
L 230.088955 89.406439 
L 231.075154 89.406439 
L 231.139024 87.20078 
L 231.337415 87.20078 
L 231.422325 85.877385 
L 231.730902 85.877385 
L 231.730902 85.436254 
L 231.915355 85.436254 
L 231.915355 84.995122 
L 232.064168 84.995122 
L 232.064168 84.55399 
L 232.23281 84.55399 
L 232.23281 84.112859 
L 232.379142 84.112859 
L 232.379142 83.671727 
L 232.586918 83.671727 
L 232.690977 81.024937 
L 232.701897 81.024937 
L 232.79582 80.142673 
L 233.267139 80.142673 
L 233.378046 78.819278 
L 233.492229 78.819278 
L 233.496808 77.495883 
L 233.622623 77.495883 
L 233.658972 71.320039 
L 234.473076 71.320039 
L 234.484871 70.437776 
L 234.692248 70.437776 
L 234.738839 69.11438 
L 234.890684 69.11438 
L 234.989424 66.026459 
L 235.184168 66.026459 
L 235.232541 64.261932 
L 236.814982 64.261932 
L 236.814982 63.8208 
L 237.391643 63.8208 
L 237.395365 62.497405 
L 239.147001 62.497405 
L 239.247483 58.968351 
L 239.262894 58.968351 
L 239.335446 55.880429 
L 239.615801 55.880429 
L 239.709116 53.233639 
L 239.744811 53.233639 
L 239.807115 52.351376 
L 239.861287 52.351376 
L 239.864551 50.586849 
L 240.349215 50.586849 
L 240.452984 49.704585 
L 240.78267 49.704585 
L 240.78267 49.263454 
L 241.156368 49.263454 
L 241.232392 47.940059 
L 241.273967 47.940059 
L 241.370619 46.175532 
L 241.498864 46.175532 
L 241.577777 43.969873 
L 242.129771 43.969873 
L 242.145059 40.881951 
L 243.476306 40.881951 
L 243.484 39.999688 
L 244.041655 39.999688 
L 244.053973 39.117424 
L 244.514374 39.117424 
L 244.514374 38.235161 
L 244.646457 38.235161 
L 244.646457 37.794029 
L 245.193473 37.794029 
L 245.260088 36.029502 
L 245.344247 36.029502 
L 245.344247 35.588371 
L 245.867893 35.588371 
L 245.867893 35.147239 
L 246.046638 35.147239 
L 246.048316 34.264976 
L 246.212724 34.264976 
L 246.212724 33.823844 
L 247.407008 33.823844 
L 247.407008 33.382712 
L 247.655773 33.382712 
L 247.655773 32.94158 
L 248.571405 32.94158 
L 248.571405 32.500449 
L 248.844712 32.500449 
L 248.844712 32.059317 
L 249.703041 32.059317 
L 249.703041 31.618185 
L 249.818483 31.618185 
L 249.823975 30.735922 
L 249.967315 30.735922 
L 249.967315 30.29479 
L 251.248184 30.29479 
L 251.248184 29.853659 
L 252.448446 29.853659 
L 252.448446 29.412527 
L 252.814109 29.412527 
L 252.814109 28.971395 
L 255.030481 28.971395 
L 255.030481 28.530263 
L 255.720363 28.530263 
L 255.720363 28.089132 
L 263.114568 28.089132 
L 263.114568 27.648 
L 360.8064 27.648 
L 360.8064 27.648 
" style="fill:none;stroke:#ff7500;stroke-linecap:square;stroke-width:1.5;"/>
   </g>
   <g id="line2d_40">
    <defs>
     <path d="M 0 -6 
L -1.347084 -1.854102 
L -5.706339 -1.854102 
L -2.179628 0.708204 
L -3.526712 4.854102 
L -0 2.291796 
L 3.526712 4.854102 
L 2.179628 0.708204 
L 5.706339 -1.854102 
L 1.347084 -1.854102 
z
" id="me89eab9354" style="stroke:#ff7500;stroke-linejoin:bevel;stroke-width:1.5;"/>
    </defs>
    <g>
     <use style="fill-opacity:0;stroke:#ff7500;stroke-linejoin:bevel;stroke-width:1.5;" x="205.85585" xlink:href="#me89eab9354" y="194.395785"/>
     <use style="fill-opacity:0;stroke:#ff7500;stroke-linejoin:bevel;stroke-width:1.5;" x="255.720363" xlink:href="#me89eab9354" y="28.089132"/>
     <use style="fill-opacity:0;stroke:#ff7500;stroke-linejoin:bevel;stroke-width:1.5;" x="263.114568" xlink:href="#me89eab9354" y="27.648"/>
     <use style="fill-opacity:0;stroke:#ff7500;stroke-linejoin:bevel;stroke-width:1.5;" x="263.114568" xlink:href="#me89eab9354" y="27.648"/>
     <use style="fill-opacity:0;stroke:#ff7500;stroke-linejoin:bevel;stroke-width:1.5;" x="360.8064" xlink:href="#me89eab9354" y="27.648"/>
    </g>
   </g>
   <g id="line2d_41">
    <path style="fill:none;stroke:#ff7500;stroke-linecap:square;stroke-width:1.5;"/>
    <g/>
   </g>
   <g id="line2d_42">
    <path clip-path="url(#p4013db28a4)" d="M 230.861929 89.406439 
" style="fill:none;stroke:#ff7500;stroke-linecap:square;stroke-width:1.5;"/>
    <defs>
     <path d="M -12 12 
L 12 -12 
M -12 -12 
L 12 12 
" id="mff324ad074" style="stroke:#ff7500;"/>
    </defs>
    <g clip-path="url(#p4013db28a4)">
     <use style="fill:#ff7500;stroke:#ff7500;" x="230.861929" xlink:href="#mff324ad074" y="89.406439"/>
    </g>
   </g>
   <g id="line2d_43">
    <defs>
     <path d="M 0 1.5 
C 0.397805 1.5 0.77937 1.341951 1.06066 1.06066 
C 1.341951 0.77937 1.5 0.397805 1.5 0 
C 1.5 -0.397805 1.341951 -0.77937 1.06066 -1.06066 
C 0.77937 -1.341951 0.397805 -1.5 0 -1.5 
C -0.397805 -1.5 -0.77937 -1.341951 -1.06066 -1.06066 
C -1.341951 -0.77937 -1.5 -0.397805 -1.5 0 
C -1.5 0.397805 -1.341951 0.77937 -1.06066 1.06066 
C -0.77937 1.341951 -0.397805 1.5 0 1.5 
z
" id="ma3777be3f2" style="stroke:#6495ed;"/>
    </defs>
    <g>
     <use style="fill:#6495ed;stroke:#6495ed;" x="265.066532" xlink:href="#ma3777be3f2" y="27.648"/>
     <use style="fill:#6495ed;stroke:#6495ed;" x="265.066532" xlink:href="#ma3777be3f2" y="27.648"/>
    </g>
   </g>
   <g id="line2d_44">
    <path d="M 147.660152 298.944 
L 147.660152 298.502868 
L 152.426047 298.502868 
L 152.426047 297.620605 
L 153.048369 297.620605 
L 153.142309 296.29721 
L 153.650761 296.29721 
L 153.650761 295.414946 
L 153.787077 295.414946 
L 153.787077 293.65042 
L 154.123607 293.65042 
L 154.234459 291.885893 
L 154.519655 291.885893 
L 154.519655 289.680234 
L 154.80059 289.680234 
L 154.80059 289.239102 
L 155.077392 289.239102 
L 155.077392 288.356839 
L 155.371001 288.356839 
L 155.391799 283.945522 
L 155.660098 283.945522 
L 155.660098 282.622127 
L 155.924624 282.622127 
L 155.944819 279.975337 
L 156.185481 279.975337 
L 156.265023 275.122888 
L 156.304668 275.122888 
L 156.304668 274.681756 
L 156.462418 274.681756 
L 156.462418 272.034966 
L 156.715973 272.034966 
L 156.75468 270.711571 
L 157.004352 270.711571 
L 157.004352 270.270439 
L 157.175281 270.270439 
L 157.250754 265.859122 
L 157.53111 265.859122 
L 157.53111 264.535727 
L 158.043518 264.535727 
L 158.043518 262.7712 
L 158.276759 262.7712 
L 158.276759 262.330068 
L 164.194282 262.330068 
L 164.194282 259.683278 
L 164.529751 259.683278 
L 164.529751 258.359883 
L 164.909539 258.359883 
L 164.909539 257.47762 
L 165.071763 257.47762 
L 165.071763 256.154224 
L 165.232599 256.154224 
L 165.232599 253.948566 
L 165.574415 253.948566 
L 165.610672 252.184039 
L 165.731028 252.184039 
L 165.731028 251.301776 
L 165.886348 251.301776 
L 165.886348 249.096117 
L 166.040396 249.096117 
L 166.040396 246.008195 
L 166.344759 246.008195 
L 166.344759 244.243668 
L 167.537044 244.243668 
L 167.537044 242.479141 
L 168.52428 242.479141 
L 168.52428 237.185561 
L 169.054505 237.185561 
L 169.054505 236.744429 
L 169.184759 236.744429 
L 169.184759 236.303298 
L 169.314117 236.303298 
L 169.314117 234.538771 
L 169.442591 234.538771 
L 169.462279 230.127454 
L 169.589749 230.127454 
L 169.696937 226.5984 
L 169.822832 226.5984 
L 169.822832 226.157268 
L 191.047325 226.157268 
L 191.047325 225.716137 
L 191.378582 225.716137 
L 191.378582 225.275005 
L 191.549653 225.275005 
L 191.628553 223.069346 
L 191.667879 223.069346 
L 191.746286 217.334634 
L 191.785367 217.334634 
L 191.869267 207.629737 
L 191.908094 207.629737 
L 191.99145 204.541815 
L 192.030025 204.541815 
L 192.074438 201.895024 
L 192.195299 201.895024 
L 192.289093 194.395785 
L 192.315389 194.395785 
L 192.391148 190.866732 
L 193.126825 190.866732 
L 193.126825 189.984468 
L 194.826227 189.984468 
L 194.902717 186.896546 
L 194.968758 186.896546 
L 195.067387 182.926361 
L 195.105184 182.926361 
L 195.20811 177.191649 
L 195.240628 177.191649 
L 195.27309 174.544859 
L 195.738813 174.544859 
L 195.806839 171.898068 
L 197.543027 171.898068 
L 197.62907 165.722224 
L 197.657664 165.722224 
L 197.657664 165.281093 
L 197.775976 165.281093 
L 197.808709 163.075434 
L 197.939074 163.075434 
L 197.971524 162.193171 
L 198.068541 162.193171 
L 198.165061 160.869776 
L 198.192852 160.869776 
L 198.275981 154.2528 
L 201.57055 154.2528 
L 201.673803 148.076956 
L 201.696868 148.076956 
L 201.792377 140.136585 
L 201.815297 140.136585 
L 201.908454 136.1664 
L 215.937197 136.1664 
L 215.937197 135.725268 
L 220.723589 135.725268 
L 220.830338 127.343766 
L 220.839954 127.343766 
L 220.882847 121.167922 
L 220.95433 121.167922 
L 220.95433 117.638868 
L 226.223479 117.638868 
L 226.237916 116.756605 
L 228.297199 116.756605 
L 228.375936 112.78642 
L 228.445364 112.78642 
L 228.510701 110.139629 
L 228.560086 110.139629 
L 228.617822 108.816234 
L 228.679183 108.816234 
L 228.762652 106.610576 
L 228.818092 106.610576 
L 228.895937 103.963785 
L 229.488349 103.963785 
L 229.541291 101.316995 
L 229.754774 101.316995 
L 229.834011 99.9936 
L 229.870927 99.9936 
L 229.957573 96.023415 
L 230.170703 96.023415 
L 230.191767 95.141151 
L 230.294408 95.141151 
L 230.324626 94.258888 
L 230.499941 94.258888 
L 230.52064 92.935493 
L 230.64093 92.935493 
L 230.695664 91.170966 
L 230.921651 91.170966 
L 230.921651 90.729834 
L 231.045001 90.729834 
L 231.045001 90.288702 
L 231.158291 90.288702 
L 231.237744 87.641912 
L 231.396015 87.641912 
L 231.436196 86.318517 
L 231.532284 86.318517 
L 231.620657 81.466068 
L 231.934199 81.466068 
L 232.006908 78.378146 
L 232.080747 78.378146 
L 232.124772 76.172488 
L 232.196749 76.172488 
L 232.240503 74.849093 
L 232.368032 74.849093 
L 232.469161 73.966829 
L 232.728147 73.966829 
L 232.728147 73.525698 
L 233.045019 73.525698 
L 233.126579 70.878907 
L 233.403371 70.878907 
L 233.498116 67.349854 
L 233.568945 67.349854 
L 233.568945 66.908722 
L 233.820072 66.908722 
L 233.893223 65.585327 
L 234.461895 65.585327 
L 234.492627 64.261932 
L 237.741454 64.261932 
L 237.845297 62.497405 
L 238.434979 62.497405 
L 238.472922 61.615141 
L 239.551674 61.615141 
L 239.551674 61.17401 
L 241.263582 61.17401 
L 241.273751 60.291746 
L 241.7633 60.291746 
L 241.850555 59.409483 
L 242.010139 59.409483 
L 242.089012 58.086088 
L 242.144646 58.086088 
L 242.207322 57.203824 
L 242.258914 57.203824 
L 242.258914 56.762693 
L 242.407144 56.762693 
L 242.407144 56.321561 
L 242.612724 56.321561 
L 242.69433 54.998166 
L 242.750205 54.998166 
L 242.858876 53.233639 
L 242.882123 53.233639 
L 242.890064 52.351376 
L 243.236399 52.351376 
L 243.331643 51.469112 
L 243.377732 51.469112 
L 243.441449 49.263454 
L 243.634561 49.263454 
L 243.665824 47.057795 
L 243.780897 47.057795 
L 243.816454 45.7344 
L 243.970948 45.7344 
L 244.072809 43.969873 
L 244.146105 43.969873 
L 244.207277 42.646478 
L 244.537483 42.646478 
L 244.537483 42.205346 
L 246.570127 42.205346 
L 246.576818 41.323083 
L 247.026785 41.323083 
L 247.026785 40.881951 
L 247.15032 40.881951 
L 247.15032 40.44082 
L 247.569605 40.44082 
L 247.569605 39.999688 
L 248.094641 39.999688 
L 248.094641 39.558556 
L 249.2929 39.558556 
L 249.2929 39.117424 
L 249.514029 39.117424 
L 249.514029 38.676293 
L 249.973445 38.676293 
L 249.973445 38.235161 
L 250.153468 38.235161 
L 250.153468 37.794029 
L 250.341938 37.794029 
L 250.441184 36.470634 
L 250.992003 36.470634 
L 251.068749 35.588371 
L 251.124438 35.588371 
L 251.124438 35.147239 
L 252.043593 35.147239 
L 252.043593 34.706107 
L 252.973998 34.706107 
L 252.973998 34.264976 
L 253.383959 34.264976 
L 253.383959 33.823844 
L 253.750663 33.823844 
L 253.810407 32.94158 
L 254.189338 32.94158 
L 254.189338 32.500449 
L 254.887003 32.500449 
L 254.887003 32.059317 
L 255.280838 32.059317 
L 255.280838 31.618185 
L 255.909876 31.618185 
L 255.927452 30.735922 
L 257.625239 30.735922 
L 257.625239 30.29479 
L 258.048938 30.29479 
L 258.048938 29.853659 
L 259.600241 29.853659 
L 259.600241 29.412527 
L 260.010918 29.412527 
L 260.105268 28.530263 
L 263.220414 28.530263 
L 263.220414 28.089132 
L 265.066532 28.089132 
L 265.066532 27.648 
L 360.8064 27.648 
L 360.8064 27.648 
" style="fill:none;stroke:#6495ed;stroke-linecap:square;stroke-width:1.5;"/>
   </g>
   <g id="line2d_45">
    <defs>
     <path d="M -0 6 
L 6 -6 
L -6 -6 
z
" id="mbe8e57dbf6" style="stroke:#6495ed;stroke-linejoin:miter;stroke-width:1.5;"/>
    </defs>
    <g>
     <use style="fill-opacity:0;stroke:#6495ed;stroke-linejoin:miter;stroke-width:1.5;" x="169.822832" xlink:href="#mbe8e57dbf6" y="226.157268"/>
     <use style="fill-opacity:0;stroke:#6495ed;stroke-linejoin:miter;stroke-width:1.5;" x="228.895101" xlink:href="#mbe8e57dbf6" y="104.846049"/>
     <use style="fill-opacity:0;stroke:#6495ed;stroke-linejoin:miter;stroke-width:1.5;" x="260.105268" xlink:href="#mbe8e57dbf6" y="28.530263"/>
     <use style="fill-opacity:0;stroke:#6495ed;stroke-linejoin:miter;stroke-width:1.5;" x="265.066532" xlink:href="#mbe8e57dbf6" y="27.648"/>
     <use style="fill-opacity:0;stroke:#6495ed;stroke-linejoin:miter;stroke-width:1.5;" x="360.8064" xlink:href="#mbe8e57dbf6" y="27.648"/>
    </g>
   </g>
   <g id="line2d_46">
    <path style="fill:none;stroke:#6495ed;stroke-linecap:square;stroke-width:1.5;"/>
    <g/>
   </g>
   <g id="line2d_47">
    <path clip-path="url(#p4013db28a4)" d="M 229.135393 103.963785 
" style="fill:none;stroke:#6495ed;stroke-linecap:square;stroke-width:1.5;"/>
    <defs>
     <path d="M -12 12 
L 12 -12 
M -12 -12 
L 12 12 
" id="m78f46405f3" style="stroke:#6495ed;"/>
    </defs>
    <g clip-path="url(#p4013db28a4)">
     <use style="fill:#6495ed;stroke:#6495ed;" x="229.135393" xlink:href="#m78f46405f3" y="103.963785"/>
    </g>
   </g>
   <g id="line2d_48">
    <path d="M 360.8064 27.648 
L 380.514816 293.51808 
" style="fill:none;stroke:#6495ed;stroke-linecap:square;stroke-width:1.5;"/>
    <g>
     <use style="fill-opacity:0;stroke:#6495ed;stroke-linejoin:miter;stroke-width:1.5;" x="360.8064" xlink:href="#mbe8e57dbf6" y="27.648"/>
     <use style="fill-opacity:0;stroke:#6495ed;stroke-linejoin:miter;stroke-width:1.5;" x="380.514816" xlink:href="#mbe8e57dbf6" y="293.51808"/>
    </g>
   </g>
   <g id="line2d_49">
    <path d="M 360.8064 27.648 
L 380.514816 206.70336 
" style="fill:none;stroke:#ff7500;stroke-linecap:square;stroke-width:1.5;"/>
    <g>
     <use style="fill-opacity:0;stroke:#ff7500;stroke-linejoin:bevel;stroke-width:1.5;" x="360.8064" xlink:href="#me89eab9354" y="27.648"/>
     <use style="fill-opacity:0;stroke:#ff7500;stroke-linejoin:bevel;stroke-width:1.5;" x="380.514816" xlink:href="#me89eab9354" y="206.70336"/>
    </g>
   </g>
   <g id="line2d_50">
    <path d="M 360.8064 27.648 
L 380.514816 119.88864 
" style="fill:none;stroke:#000080;stroke-linecap:square;stroke-width:1.5;"/>
    <g>
     <use style="fill-opacity:0;stroke:#000080;stroke-width:1.5;" x="360.8064" xlink:href="#m9497427729" y="27.648"/>
     <use style="fill-opacity:0;stroke:#000080;stroke-width:1.5;" x="380.514816" xlink:href="#m9497427729" y="119.88864"/>
    </g>
   </g>
   <g id="line2d_51">
    <path d="M 360.8064 27.648 
L 380.514816 33.07392 
" style="fill:none;stroke:#ff00ff;stroke-linecap:square;stroke-width:1.5;"/>
    <g>
     <use style="fill-opacity:0;stroke:#ff00ff;stroke-linejoin:miter;stroke-width:1.5;" x="360.8064" xlink:href="#m2075155ec1" y="27.648"/>
     <use style="fill-opacity:0;stroke:#ff00ff;stroke-linejoin:miter;stroke-width:1.5;" x="380.514816" xlink:href="#m2075155ec1" y="33.07392"/>
    </g>
   </g>
   <g id="line2d_52">
    <path d="M 360.8064 298.944 
L 360.8064 27.648 
" style="fill:none;stroke:#000000;stroke-linecap:square;stroke-width:1.5;"/>
   </g>
   <g id="patch_3">
    <path d="M 57.6 298.944 
L 360.8064 298.944 
" style="fill:none;stroke:#000000;stroke-linecap:square;stroke-linejoin:miter;stroke-width:0.8;"/>
   </g>
   <g id="patch_4">
    <path d="M 57.6 27.648 
L 360.8064 27.648 
" style="fill:none;stroke:#000000;stroke-linecap:square;stroke-linejoin:miter;stroke-width:0.8;"/>
   </g>
   <g id="text_13">
    <!-- slsqp -->
    <g transform="translate(386.578944 297.381205)scale(0.14 -0.14)">
     <defs>
      <path d="M 14.796875 27.296875 
Q 14.796875 17.390625 18.875 11.75 
Q 22.953125 6.109375 30.078125 6.109375 
Q 37.203125 6.109375 41.296875 11.75 
Q 45.40625 17.390625 45.40625 27.296875 
Q 45.40625 37.203125 41.296875 42.84375 
Q 37.203125 48.484375 30.078125 48.484375 
Q 22.953125 48.484375 18.875 42.84375 
Q 14.796875 37.203125 14.796875 27.296875 
z
M 45.40625 8.203125 
Q 42.578125 3.328125 38.25 0.953125 
Q 33.9375 -1.421875 27.875 -1.421875 
Q 17.96875 -1.421875 11.734375 6.484375 
Q 5.515625 14.40625 5.515625 27.296875 
Q 5.515625 40.1875 11.734375 48.09375 
Q 17.96875 56 27.875 56 
Q 33.9375 56 38.25 53.625 
Q 42.578125 51.265625 45.40625 46.390625 
L 45.40625 54.6875 
L 54.390625 54.6875 
L 54.390625 -20.796875 
L 45.40625 -20.796875 
z
" id="DejaVuSans-113"/>
     </defs>
     <use xlink:href="#DejaVuSans-115"/>
     <use x="52.099609" xlink:href="#DejaVuSans-108"/>
     <use x="79.882812" xlink:href="#DejaVuSans-115"/>
     <use x="131.982422" xlink:href="#DejaVuSans-113"/>
     <use x="195.458984" xlink:href="#DejaVuSans-112"/>
    </g>
   </g>
   <g id="text_14">
    <!-- fmincon -->
    <g transform="translate(386.578944 210.566485)scale(0.14 -0.14)">
     <use xlink:href="#DejaVuSans-102"/>
     <use x="35.205078" xlink:href="#DejaVuSans-109"/>
     <use x="132.617188" xlink:href="#DejaVuSans-105"/>
     <use x="160.400391" xlink:href="#DejaVuSans-110"/>
     <use x="223.779297" xlink:href="#DejaVuSans-99"/>
     <use x="278.759766" xlink:href="#DejaVuSans-111"/>
     <use x="339.941406" xlink:href="#DejaVuSans-110"/>
    </g>
   </g>
   <g id="text_15">
    <!-- cobyla -->
    <g transform="translate(386.578944 123.751765)scale(0.14 -0.14)">
     <defs>
      <path d="M 48.6875 27.296875 
Q 48.6875 37.203125 44.609375 42.84375 
Q 40.53125 48.484375 33.40625 48.484375 
Q 26.265625 48.484375 22.1875 42.84375 
Q 18.109375 37.203125 18.109375 27.296875 
Q 18.109375 17.390625 22.1875 11.75 
Q 26.265625 6.109375 33.40625 6.109375 
Q 40.53125 6.109375 44.609375 11.75 
Q 48.6875 17.390625 48.6875 27.296875 
z
M 18.109375 46.390625 
Q 20.953125 51.265625 25.265625 53.625 
Q 29.59375 56 35.59375 56 
Q 45.5625 56 51.78125 48.09375 
Q 58.015625 40.1875 58.015625 27.296875 
Q 58.015625 14.40625 51.78125 6.484375 
Q 45.5625 -1.421875 35.59375 -1.421875 
Q 29.59375 -1.421875 25.265625 0.953125 
Q 20.953125 3.328125 18.109375 8.203125 
L 18.109375 0 
L 9.078125 0 
L 9.078125 75.984375 
L 18.109375 75.984375 
z
" id="DejaVuSans-98"/>
      <path d="M 32.171875 -5.078125 
Q 28.375 -14.84375 24.75 -17.8125 
Q 21.140625 -20.796875 15.09375 -20.796875 
L 7.90625 -20.796875 
L 7.90625 -13.28125 
L 13.1875 -13.28125 
Q 16.890625 -13.28125 18.9375 -11.515625 
Q 21 -9.765625 23.484375 -3.21875 
L 25.09375 0.875 
L 2.984375 54.6875 
L 12.5 54.6875 
L 29.59375 11.921875 
L 46.6875 54.6875 
L 56.203125 54.6875 
z
" id="DejaVuSans-121"/>
     </defs>
     <use xlink:href="#DejaVuSans-99"/>
     <use x="54.980469" xlink:href="#DejaVuSans-111"/>
     <use x="116.162109" xlink:href="#DejaVuSans-98"/>
     <use x="179.638672" xlink:href="#DejaVuSans-121"/>
     <use x="238.818359" xlink:href="#DejaVuSans-108"/>
     <use x="266.601562" xlink:href="#DejaVuSans-97"/>
    </g>
   </g>
   <g id="text_16">
    <!-- cobyla rh -->
    <g transform="translate(386.578944 36.937045)scale(0.14 -0.14)">
     <defs>
      <path d="M 54.890625 33.015625 
L 54.890625 0 
L 45.90625 0 
L 45.90625 32.71875 
Q 45.90625 40.484375 42.875 44.328125 
Q 39.84375 48.1875 33.796875 48.1875 
Q 26.515625 48.1875 22.3125 43.546875 
Q 18.109375 38.921875 18.109375 30.90625 
L 18.109375 0 
L 9.078125 0 
L 9.078125 75.984375 
L 18.109375 75.984375 
L 18.109375 46.1875 
Q 21.34375 51.125 25.703125 53.5625 
Q 30.078125 56 35.796875 56 
Q 45.21875 56 50.046875 50.171875 
Q 54.890625 44.34375 54.890625 33.015625 
z
" id="DejaVuSans-104"/>
     </defs>
     <use xlink:href="#DejaVuSans-99"/>
     <use x="54.980469" xlink:href="#DejaVuSans-111"/>
     <use x="116.162109" xlink:href="#DejaVuSans-98"/>
     <use x="179.638672" xlink:href="#DejaVuSans-121"/>
     <use x="238.818359" xlink:href="#DejaVuSans-108"/>
     <use x="266.601562" xlink:href="#DejaVuSans-97"/>
     <use x="327.880859" xlink:href="#DejaVuSans-32"/>
     <use x="359.667969" xlink:href="#DejaVuSans-114"/>
     <use x="399.03125" xlink:href="#DejaVuSans-104"/>
    </g>
   </g>
   <g id="text_17">
    <!-- bbob-constrained f45, 5-D -->
    <g transform="translate(60.632064 38.111366)scale(0.102 -0.102)">
     <defs>
      <path d="M 4.890625 31.390625 
L 31.203125 31.390625 
L 31.203125 23.390625 
L 4.890625 23.390625 
z
" id="DejaVuSans-45"/>
      <path d="M 10.796875 72.90625 
L 49.515625 72.90625 
L 49.515625 64.59375 
L 19.828125 64.59375 
L 19.828125 46.734375 
Q 21.96875 47.46875 24.109375 47.828125 
Q 26.265625 48.1875 28.421875 48.1875 
Q 40.625 48.1875 47.75 41.5 
Q 54.890625 34.8125 54.890625 23.390625 
Q 54.890625 11.625 47.5625 5.09375 
Q 40.234375 -1.421875 26.90625 -1.421875 
Q 22.3125 -1.421875 17.546875 -0.640625 
Q 12.796875 0.140625 7.71875 1.703125 
L 7.71875 11.625 
Q 12.109375 9.234375 16.796875 8.0625 
Q 21.484375 6.890625 26.703125 6.890625 
Q 35.15625 6.890625 40.078125 11.328125 
Q 45.015625 15.765625 45.015625 23.390625 
Q 45.015625 31 40.078125 35.4375 
Q 35.15625 39.890625 26.703125 39.890625 
Q 22.75 39.890625 18.8125 39.015625 
Q 14.890625 38.140625 10.796875 36.28125 
z
" id="DejaVuSans-53"/>
      <path d="M 19.671875 64.796875 
L 19.671875 8.109375 
L 31.59375 8.109375 
Q 46.6875 8.109375 53.6875 14.9375 
Q 60.6875 21.78125 60.6875 36.53125 
Q 60.6875 51.171875 53.6875 57.984375 
Q 46.6875 64.796875 31.59375 64.796875 
z
M 9.8125 72.90625 
L 30.078125 72.90625 
Q 51.265625 72.90625 61.171875 64.09375 
Q 71.09375 55.28125 71.09375 36.53125 
Q 71.09375 17.671875 61.125 8.828125 
Q 51.171875 0 30.078125 0 
L 9.8125 0 
z
" id="DejaVuSans-68"/>
     </defs>
     <use xlink:href="#DejaVuSans-98"/>
     <use x="63.476562" xlink:href="#DejaVuSans-98"/>
     <use x="126.953125" xlink:href="#DejaVuSans-111"/>
     <use x="188.134766" xlink:href="#DejaVuSans-98"/>
     <use x="251.611328" xlink:href="#DejaVuSans-45"/>
     <use x="287.695312" xlink:href="#DejaVuSans-99"/>
     <use x="342.675781" xlink:href="#DejaVuSans-111"/>
     <use x="403.857422" xlink:href="#DejaVuSans-110"/>
     <use x="467.236328" xlink:href="#DejaVuSans-115"/>
     <use x="519.335938" xlink:href="#DejaVuSans-116"/>
     <use x="558.544922" xlink:href="#DejaVuSans-114"/>
     <use x="599.658203" xlink:href="#DejaVuSans-97"/>
     <use x="660.9375" xlink:href="#DejaVuSans-105"/>
     <use x="688.720703" xlink:href="#DejaVuSans-110"/>
     <use x="752.099609" xlink:href="#DejaVuSans-101"/>
     <use x="813.623047" xlink:href="#DejaVuSans-100"/>
     <use x="877.099609" xlink:href="#DejaVuSans-32"/>
     <use x="908.886719" xlink:href="#DejaVuSans-102"/>
     <use x="944.091797" xlink:href="#DejaVuSans-52"/>
     <use x="1007.714844" xlink:href="#DejaVuSans-53"/>
     <use x="1071.337891" xlink:href="#DejaVuSans-44"/>
     <use x="1103.125" xlink:href="#DejaVuSans-32"/>
     <use x="1134.912109" xlink:href="#DejaVuSans-53"/>
     <use x="1198.535156" xlink:href="#DejaVuSans-45"/>
     <use x="1234.619141" xlink:href="#DejaVuSans-68"/>
    </g>
    <!-- 41 targets: 100..1e-06 -->
    <g transform="translate(60.632064 49.533135)scale(0.102 -0.102)">
     <defs>
      <path d="M 11.71875 12.40625 
L 22.015625 12.40625 
L 22.015625 0 
L 11.71875 0 
z
M 11.71875 51.703125 
L 22.015625 51.703125 
L 22.015625 39.3125 
L 11.71875 39.3125 
z
" id="DejaVuSans-58"/>
     </defs>
     <use xlink:href="#DejaVuSans-52"/>
     <use x="63.623047" xlink:href="#DejaVuSans-49"/>
     <use x="127.246094" xlink:href="#DejaVuSans-32"/>
     <use x="159.033203" xlink:href="#DejaVuSans-116"/>
     <use x="198.242188" xlink:href="#DejaVuSans-97"/>
     <use x="259.521484" xlink:href="#DejaVuSans-114"/>
     <use x="298.884766" xlink:href="#DejaVuSans-103"/>
     <use x="362.361328" xlink:href="#DejaVuSans-101"/>
     <use x="423.884766" xlink:href="#DejaVuSans-116"/>
     <use x="463.09375" xlink:href="#DejaVuSans-115"/>
     <use x="515.193359" xlink:href="#DejaVuSans-58"/>
     <use x="548.884766" xlink:href="#DejaVuSans-32"/>
     <use x="580.671875" xlink:href="#DejaVuSans-49"/>
     <use x="644.294922" xlink:href="#DejaVuSans-48"/>
     <use x="707.917969" xlink:href="#DejaVuSans-48"/>
     <use x="771.541016" xlink:href="#DejaVuSans-46"/>
     <use x="803.328125" xlink:href="#DejaVuSans-46"/>
     <use x="835.115234" xlink:href="#DejaVuSans-49"/>
     <use x="898.738281" xlink:href="#DejaVuSans-101"/>
     <use x="960.261719" xlink:href="#DejaVuSans-45"/>
     <use x="996.345703" xlink:href="#DejaVuSans-48"/>
     <use x="1059.96875" xlink:href="#DejaVuSans-54"/>
    </g>
    <!-- evals = f-evals + g-evals -->
    <g transform="translate(60.632064 60.954904)scale(0.102 -0.102)">
     <defs>
      <path d="M 10.59375 45.40625 
L 73.1875 45.40625 
L 73.1875 37.203125 
L 10.59375 37.203125 
z
M 10.59375 25.484375 
L 73.1875 25.484375 
L 73.1875 17.1875 
L 10.59375 17.1875 
z
" id="DejaVuSans-61"/>
      <path d="M 46 62.703125 
L 46 35.5 
L 73.1875 35.5 
L 73.1875 27.203125 
L 46 27.203125 
L 46 0 
L 37.796875 0 
L 37.796875 27.203125 
L 10.59375 27.203125 
L 10.59375 35.5 
L 37.796875 35.5 
L 37.796875 62.703125 
z
" id="DejaVuSans-43"/>
     </defs>
     <use xlink:href="#DejaVuSans-101"/>
     <use x="61.523438" xlink:href="#DejaVuSans-118"/>
     <use x="120.703125" xlink:href="#DejaVuSans-97"/>
     <use x="181.982422" xlink:href="#DejaVuSans-108"/>
     <use x="209.765625" xlink:href="#DejaVuSans-115"/>
     <use x="261.865234" xlink:href="#DejaVuSans-32"/>
     <use x="293.652344" xlink:href="#DejaVuSans-61"/>
     <use x="377.441406" xlink:href="#DejaVuSans-32"/>
     <use x="409.228516" xlink:href="#DejaVuSans-102"/>
     <use x="438.933594" xlink:href="#DejaVuSans-45"/>
     <use x="475.017578" xlink:href="#DejaVuSans-101"/>
     <use x="536.541016" xlink:href="#DejaVuSans-118"/>
     <use x="595.720703" xlink:href="#DejaVuSans-97"/>
     <use x="657" xlink:href="#DejaVuSans-108"/>
     <use x="684.783203" xlink:href="#DejaVuSans-115"/>
     <use x="736.882812" xlink:href="#DejaVuSans-32"/>
     <use x="768.669922" xlink:href="#DejaVuSans-43"/>
     <use x="852.458984" xlink:href="#DejaVuSans-32"/>
     <use x="884.246094" xlink:href="#DejaVuSans-103"/>
     <use x="947.722656" xlink:href="#DejaVuSans-45"/>
     <use x="983.806641" xlink:href="#DejaVuSans-101"/>
     <use x="1045.330078" xlink:href="#DejaVuSans-118"/>
     <use x="1104.509766" xlink:href="#DejaVuSans-97"/>
     <use x="1165.789062" xlink:href="#DejaVuSans-108"/>
     <use x="1193.572266" xlink:href="#DejaVuSans-115"/>
    </g>
    <!-- 15 instances -->
    <g transform="translate(60.632064 72.376672)scale(0.102 -0.102)">
     <use xlink:href="#DejaVuSans-49"/>
     <use x="63.623047" xlink:href="#DejaVuSans-53"/>
     <use x="127.246094" xlink:href="#DejaVuSans-32"/>
     <use x="159.033203" xlink:href="#DejaVuSans-105"/>
     <use x="186.816406" xlink:href="#DejaVuSans-110"/>
     <use x="250.195312" xlink:href="#DejaVuSans-115"/>
     <use x="302.294922" xlink:href="#DejaVuSans-116"/>
     <use x="341.503906" xlink:href="#DejaVuSans-97"/>
     <use x="402.783203" xlink:href="#DejaVuSans-110"/>
     <use x="466.162109" xlink:href="#DejaVuSans-99"/>
     <use x="521.142578" xlink:href="#DejaVuSans-101"/>
     <use x="582.666016" xlink:href="#DejaVuSans-115"/>
    </g>
   </g>
   <g id="text_18">
    <!-- v2.4.152 -->
    <g style="fill:#808080;" transform="translate(187.15945 294.151352)scale(0.1 -0.1)">
     <use xlink:href="#DejaVuSans-118"/>
     <use x="59.179688" xlink:href="#DejaVuSans-50"/>
     <use x="122.802734" xlink:href="#DejaVuSans-46"/>
     <use x="154.589844" xlink:href="#DejaVuSans-52"/>
     <use x="218.212891" xlink:href="#DejaVuSans-46"/>
     <use x="250" xlink:href="#DejaVuSans-49"/>
     <use x="313.623047" xlink:href="#DejaVuSans-53"/>
     <use x="377.246094" xlink:href="#DejaVuSans-50"/>
    </g>
   </g>
   <g id="text_19">
    <!-- 45 Sep. Rastrigin, m=9 -->
    <g transform="translate(92.920387 21.648)scale(0.2 -0.2)">
     <defs>
      <path d="M 53.515625 70.515625 
L 53.515625 60.890625 
Q 47.90625 63.578125 42.921875 64.890625 
Q 37.9375 66.21875 33.296875 66.21875 
Q 25.25 66.21875 20.875 63.09375 
Q 16.5 59.96875 16.5 54.203125 
Q 16.5 49.359375 19.40625 46.890625 
Q 22.3125 44.4375 30.421875 42.921875 
L 36.375 41.703125 
Q 47.40625 39.59375 52.65625 34.296875 
Q 57.90625 29 57.90625 20.125 
Q 57.90625 9.515625 50.796875 4.046875 
Q 43.703125 -1.421875 29.984375 -1.421875 
Q 24.8125 -1.421875 18.96875 -0.25 
Q 13.140625 0.921875 6.890625 3.21875 
L 6.890625 13.375 
Q 12.890625 10.015625 18.65625 8.296875 
Q 24.421875 6.59375 29.984375 6.59375 
Q 38.421875 6.59375 43.015625 9.90625 
Q 47.609375 13.234375 47.609375 19.390625 
Q 47.609375 24.75 44.3125 27.78125 
Q 41.015625 30.8125 33.5 32.328125 
L 27.484375 33.5 
Q 16.453125 35.6875 11.515625 40.375 
Q 6.59375 45.0625 6.59375 53.421875 
Q 6.59375 63.09375 13.40625 68.65625 
Q 20.21875 74.21875 32.171875 74.21875 
Q 37.3125 74.21875 42.625 73.28125 
Q 47.953125 72.359375 53.515625 70.515625 
z
" id="DejaVuSans-83"/>
      <path d="M 44.390625 34.1875 
Q 47.5625 33.109375 50.5625 29.59375 
Q 53.5625 26.078125 56.59375 19.921875 
L 66.609375 0 
L 56 0 
L 46.6875 18.703125 
Q 43.0625 26.03125 39.671875 28.421875 
Q 36.28125 30.8125 30.421875 30.8125 
L 19.671875 30.8125 
L 19.671875 0 
L 9.8125 0 
L 9.8125 72.90625 
L 32.078125 72.90625 
Q 44.578125 72.90625 50.734375 67.671875 
Q 56.890625 62.453125 56.890625 51.90625 
Q 56.890625 45.015625 53.6875 40.46875 
Q 50.484375 35.9375 44.390625 34.1875 
z
M 19.671875 64.796875 
L 19.671875 38.921875 
L 32.078125 38.921875 
Q 39.203125 38.921875 42.84375 42.21875 
Q 46.484375 45.515625 46.484375 51.90625 
Q 46.484375 58.296875 42.84375 61.546875 
Q 39.203125 64.796875 32.078125 64.796875 
z
" id="DejaVuSans-82"/>
      <path d="M 10.984375 1.515625 
L 10.984375 10.5 
Q 14.703125 8.734375 18.5 7.8125 
Q 22.3125 6.890625 25.984375 6.890625 
Q 35.75 6.890625 40.890625 13.453125 
Q 46.046875 20.015625 46.78125 33.40625 
Q 43.953125 29.203125 39.59375 26.953125 
Q 35.25 24.703125 29.984375 24.703125 
Q 19.046875 24.703125 12.671875 31.3125 
Q 6.296875 37.9375 6.296875 49.421875 
Q 6.296875 60.640625 12.9375 67.421875 
Q 19.578125 74.21875 30.609375 74.21875 
Q 43.265625 74.21875 49.921875 64.515625 
Q 56.59375 54.828125 56.59375 36.375 
Q 56.59375 19.140625 48.40625 8.859375 
Q 40.234375 -1.421875 26.421875 -1.421875 
Q 22.703125 -1.421875 18.890625 -0.6875 
Q 15.09375 0.046875 10.984375 1.515625 
z
M 30.609375 32.421875 
Q 37.25 32.421875 41.125 36.953125 
Q 45.015625 41.5 45.015625 49.421875 
Q 45.015625 57.28125 41.125 61.84375 
Q 37.25 66.40625 30.609375 66.40625 
Q 23.96875 66.40625 20.09375 61.84375 
Q 16.21875 57.28125 16.21875 49.421875 
Q 16.21875 41.5 20.09375 36.953125 
Q 23.96875 32.421875 30.609375 32.421875 
z
" id="DejaVuSans-57"/>
     </defs>
     <use xlink:href="#DejaVuSans-52"/>
     <use x="63.623047" xlink:href="#DejaVuSans-53"/>
     <use x="127.246094" xlink:href="#DejaVuSans-32"/>
     <use x="159.033203" xlink:href="#DejaVuSans-83"/>
     <use x="222.509766" xlink:href="#DejaVuSans-101"/>
     <use x="284.033203" xlink:href="#DejaVuSans-112"/>
     <use x="347.509766" xlink:href="#DejaVuSans-46"/>
     <use x="379.296875" xlink:href="#DejaVuSans-32"/>
     <use x="411.083984" xlink:href="#DejaVuSans-82"/>
     <use x="478.316406" xlink:href="#DejaVuSans-97"/>
     <use x="539.595703" xlink:href="#DejaVuSans-115"/>
     <use x="591.695312" xlink:href="#DejaVuSans-116"/>
     <use x="630.904297" xlink:href="#DejaVuSans-114"/>
     <use x="672.017578" xlink:href="#DejaVuSans-105"/>
     <use x="699.800781" xlink:href="#DejaVuSans-103"/>
     <use x="763.277344" xlink:href="#DejaVuSans-105"/>
     <use x="791.060547" xlink:href="#DejaVuSans-110"/>
     <use x="854.439453" xlink:href="#DejaVuSans-44"/>
     <use x="886.226562" xlink:href="#DejaVuSans-32"/>
     <use x="918.013672" xlink:href="#DejaVuSans-109"/>
     <use x="1015.425781" xlink:href="#DejaVuSans-61"/>
     <use x="1099.214844" xlink:href="#DejaVuSans-57"/>
    </g>
   </g>
  </g>
 </g>
 <defs>
  <clipPath id="p4013db28a4">
   <rect height="271.296" width="303.2064" x="57.6" y="27.648"/>
  </clipPath>
 </defs>
</svg>
