<?xml version="1.0" encoding="utf-8" standalone="no"?>
<!DOCTYPE svg PUBLIC "-//W3C//DTD SVG 1.1//EN"
  "http://www.w3.org/Graphics/SVG/1.1/DTD/svg11.dtd">
<!-- Created with matplotlib (https://matplotlib.org/) -->
<svg height="345.6pt" version="1.1" viewBox="0 0 460.8 345.6" width="460.8pt" xmlns="http://www.w3.org/2000/svg" xmlns:xlink="http://www.w3.org/1999/xlink">
 <metadata>
  <rdf:RDF xmlns:cc="http://creativecommons.org/ns#" xmlns:dc="http://purl.org/dc/elements/1.1/" xmlns:rdf="http://www.w3.org/1999/02/22-rdf-syntax-ns#">
   <cc:Work>
    <dc:type rdf:resource="http://purl.org/dc/dcmitype/StillImage"/>
    <dc:date>2022-02-09T00:06:39.778719</dc:date>
    <dc:format>image/svg+xml</dc:format>
    <dc:creator>
     <cc:Agent>
      <dc:title>Matplotlib v3.3.3, https://matplotlib.org/</dc:title>
     </cc:Agent>
    </dc:creator>
   </cc:Work>
  </rdf:RDF>
 </metadata>
 <defs>
  <style type="text/css">*{stroke-linecap:butt;stroke-linejoin:round;}</style>
 </defs>
 <g id="figure_1">
  <g id="patch_1">
   <path d="M 0 345.6 
L 460.8 345.6 
L 460.8 0 
L 0 0 
z
" style="fill:#ffffff;"/>
  </g>
  <g id="axes_1">
   <g id="patch_2">
    <path d="M 34.16 291.28 
L 453.192 291.28 
L 453.192 3 
L 34.16 3 
z
" style="fill:#ffffff;"/>
   </g>
   <g id="matplotlib.axis_1">
    <g id="xtick_1">
     <g id="line2d_1">
      <path clip-path="url(#p2fa00f782f)" d="M 155.73253 291.28 
L 155.73253 3 
" style="fill:none;stroke:#b0b0b0;stroke-linecap:square;stroke-width:0.8;"/>
     </g>
     <g id="line2d_2">
      <defs>
       <path d="M 0 0 
L 0 3.5 
" id="m7aa97ae2cf" style="stroke:#000000;stroke-width:0.8;"/>
      </defs>
      <g>
       <use style="stroke:#000000;stroke-width:0.8;" x="155.73253" xlink:href="#m7aa97ae2cf" y="291.28"/>
      </g>
     </g>
     <g id="text_1">
      <!-- -1 -->
      <g transform="translate(145.762218 313.476875)scale(0.2 -0.2)">
       <defs>
        <path d="M 4.890625 31.390625 
L 31.203125 31.390625 
L 31.203125 23.390625 
L 4.890625 23.390625 
z
" id="DejaVuSans-45"/>
        <path d="M 12.40625 8.296875 
L 28.515625 8.296875 
L 28.515625 63.921875 
L 10.984375 60.40625 
L 10.984375 69.390625 
L 28.421875 72.90625 
L 38.28125 72.90625 
L 38.28125 8.296875 
L 54.390625 8.296875 
L 54.390625 0 
L 12.40625 0 
z
" id="DejaVuSans-49"/>
       </defs>
       <use xlink:href="#DejaVuSans-45"/>
       <use x="36.083984" xlink:href="#DejaVuSans-49"/>
      </g>
     </g>
    </g>
    <g id="xtick_2">
     <g id="line2d_3">
      <path clip-path="url(#p2fa00f782f)" d="M 331.61947 291.28 
L 331.61947 3 
" style="fill:none;stroke:#b0b0b0;stroke-linecap:square;stroke-width:0.8;"/>
     </g>
     <g id="line2d_4">
      <g>
       <use style="stroke:#000000;stroke-width:0.8;" x="331.61947" xlink:href="#m7aa97ae2cf" y="291.28"/>
      </g>
     </g>
     <g id="text_2">
      <!-- 1 -->
      <g transform="translate(325.25697 313.476875)scale(0.2 -0.2)">
       <use xlink:href="#DejaVuSans-49"/>
      </g>
     </g>
    </g>
    <g id="xtick_3">
     <g id="line2d_5">
      <defs>
       <path d="M 0 0 
L 0 2 
" id="me7a743e4e9" style="stroke:#000000;stroke-width:0.6;"/>
      </defs>
      <g>
       <use style="stroke:#000000;stroke-width:0.6;" x="41.315438" xlink:href="#me7a743e4e9" y="291.28"/>
      </g>
     </g>
    </g>
    <g id="xtick_4">
     <g id="line2d_6">
      <g>
       <use style="stroke:#000000;stroke-width:0.6;" x="48.278912" xlink:href="#me7a743e4e9" y="291.28"/>
      </g>
     </g>
    </g>
    <g id="xtick_5">
     <g id="line2d_7">
      <g>
       <use style="stroke:#000000;stroke-width:0.6;" x="54.166445" xlink:href="#me7a743e4e9" y="291.28"/>
      </g>
     </g>
    </g>
    <g id="xtick_6">
     <g id="line2d_8">
      <g>
       <use style="stroke:#000000;stroke-width:0.6;" x="59.266458" xlink:href="#me7a743e4e9" y="291.28"/>
      </g>
     </g>
    </g>
    <g id="xtick_7">
     <g id="line2d_9">
      <g>
       <use style="stroke:#000000;stroke-width:0.6;" x="63.764988" xlink:href="#me7a743e4e9" y="291.28"/>
      </g>
     </g>
    </g>
    <g id="xtick_8">
     <g id="line2d_10">
      <g>
       <use style="stroke:#000000;stroke-width:0.6;" x="94.262683" xlink:href="#me7a743e4e9" y="291.28"/>
      </g>
     </g>
    </g>
    <g id="xtick_9">
     <g id="line2d_11">
      <g>
       <use style="stroke:#000000;stroke-width:0.6;" x="109.748759" xlink:href="#me7a743e4e9" y="291.28"/>
      </g>
     </g>
    </g>
    <g id="xtick_10">
     <g id="line2d_12">
      <g>
       <use style="stroke:#000000;stroke-width:0.6;" x="120.736305" xlink:href="#me7a743e4e9" y="291.28"/>
      </g>
     </g>
    </g>
    <g id="xtick_11">
     <g id="line2d_13">
      <g>
       <use style="stroke:#000000;stroke-width:0.6;" x="129.258908" xlink:href="#me7a743e4e9" y="291.28"/>
      </g>
     </g>
    </g>
    <g id="xtick_12">
     <g id="line2d_14">
      <g>
       <use style="stroke:#000000;stroke-width:0.6;" x="136.222382" xlink:href="#me7a743e4e9" y="291.28"/>
      </g>
     </g>
    </g>
    <g id="xtick_13">
     <g id="line2d_15">
      <g>
       <use style="stroke:#000000;stroke-width:0.6;" x="142.109914" xlink:href="#me7a743e4e9" y="291.28"/>
      </g>
     </g>
    </g>
    <g id="xtick_14">
     <g id="line2d_16">
      <g>
       <use style="stroke:#000000;stroke-width:0.6;" x="147.209928" xlink:href="#me7a743e4e9" y="291.28"/>
      </g>
     </g>
    </g>
    <g id="xtick_15">
     <g id="line2d_17">
      <g>
       <use style="stroke:#000000;stroke-width:0.6;" x="151.708458" xlink:href="#me7a743e4e9" y="291.28"/>
      </g>
     </g>
    </g>
    <g id="xtick_16">
     <g id="line2d_18">
      <g>
       <use style="stroke:#000000;stroke-width:0.6;" x="182.206153" xlink:href="#me7a743e4e9" y="291.28"/>
      </g>
     </g>
    </g>
    <g id="xtick_17">
     <g id="line2d_19">
      <g>
       <use style="stroke:#000000;stroke-width:0.6;" x="197.692229" xlink:href="#me7a743e4e9" y="291.28"/>
      </g>
     </g>
    </g>
    <g id="xtick_18">
     <g id="line2d_20">
      <g>
       <use style="stroke:#000000;stroke-width:0.6;" x="208.679775" xlink:href="#me7a743e4e9" y="291.28"/>
      </g>
     </g>
    </g>
    <g id="xtick_19">
     <g id="line2d_21">
      <g>
       <use style="stroke:#000000;stroke-width:0.6;" x="217.202378" xlink:href="#me7a743e4e9" y="291.28"/>
      </g>
     </g>
    </g>
    <g id="xtick_20">
     <g id="line2d_22">
      <g>
       <use style="stroke:#000000;stroke-width:0.6;" x="224.165851" xlink:href="#me7a743e4e9" y="291.28"/>
      </g>
     </g>
    </g>
    <g id="xtick_21">
     <g id="line2d_23">
      <g>
       <use style="stroke:#000000;stroke-width:0.6;" x="230.053384" xlink:href="#me7a743e4e9" y="291.28"/>
      </g>
     </g>
    </g>
    <g id="xtick_22">
     <g id="line2d_24">
      <g>
       <use style="stroke:#000000;stroke-width:0.6;" x="235.153397" xlink:href="#me7a743e4e9" y="291.28"/>
      </g>
     </g>
    </g>
    <g id="xtick_23">
     <g id="line2d_25">
      <g>
       <use style="stroke:#000000;stroke-width:0.6;" x="239.651928" xlink:href="#me7a743e4e9" y="291.28"/>
      </g>
     </g>
    </g>
    <g id="xtick_24">
     <g id="line2d_26">
      <g>
       <use style="stroke:#000000;stroke-width:0.6;" x="270.149622" xlink:href="#me7a743e4e9" y="291.28"/>
      </g>
     </g>
    </g>
    <g id="xtick_25">
     <g id="line2d_27">
      <g>
       <use style="stroke:#000000;stroke-width:0.6;" x="285.635699" xlink:href="#me7a743e4e9" y="291.28"/>
      </g>
     </g>
    </g>
    <g id="xtick_26">
     <g id="line2d_28">
      <g>
       <use style="stroke:#000000;stroke-width:0.6;" x="296.623245" xlink:href="#me7a743e4e9" y="291.28"/>
      </g>
     </g>
    </g>
    <g id="xtick_27">
     <g id="line2d_29">
      <g>
       <use style="stroke:#000000;stroke-width:0.6;" x="305.145847" xlink:href="#me7a743e4e9" y="291.28"/>
      </g>
     </g>
    </g>
    <g id="xtick_28">
     <g id="line2d_30">
      <g>
       <use style="stroke:#000000;stroke-width:0.6;" x="312.109321" xlink:href="#me7a743e4e9" y="291.28"/>
      </g>
     </g>
    </g>
    <g id="xtick_29">
     <g id="line2d_31">
      <g>
       <use style="stroke:#000000;stroke-width:0.6;" x="317.996854" xlink:href="#me7a743e4e9" y="291.28"/>
      </g>
     </g>
    </g>
    <g id="xtick_30">
     <g id="line2d_32">
      <g>
       <use style="stroke:#000000;stroke-width:0.6;" x="323.096867" xlink:href="#me7a743e4e9" y="291.28"/>
      </g>
     </g>
    </g>
    <g id="xtick_31">
     <g id="line2d_33">
      <g>
       <use style="stroke:#000000;stroke-width:0.6;" x="327.595397" xlink:href="#me7a743e4e9" y="291.28"/>
      </g>
     </g>
    </g>
    <g id="xtick_32">
     <g id="line2d_34">
      <g>
       <use style="stroke:#000000;stroke-width:0.6;" x="358.093092" xlink:href="#me7a743e4e9" y="291.28"/>
      </g>
     </g>
    </g>
    <g id="xtick_33">
     <g id="line2d_35">
      <g>
       <use style="stroke:#000000;stroke-width:0.6;" x="373.579168" xlink:href="#me7a743e4e9" y="291.28"/>
      </g>
     </g>
    </g>
    <g id="xtick_34">
     <g id="line2d_36">
      <g>
       <use style="stroke:#000000;stroke-width:0.6;" x="384.566714" xlink:href="#me7a743e4e9" y="291.28"/>
      </g>
     </g>
    </g>
    <g id="xtick_35">
     <g id="line2d_37">
      <g>
       <use style="stroke:#000000;stroke-width:0.6;" x="393.089317" xlink:href="#me7a743e4e9" y="291.28"/>
      </g>
     </g>
    </g>
    <g id="xtick_36">
     <g id="line2d_38">
      <g>
       <use style="stroke:#000000;stroke-width:0.6;" x="400.052791" xlink:href="#me7a743e4e9" y="291.28"/>
      </g>
     </g>
    </g>
    <g id="xtick_37">
     <g id="line2d_39">
      <g>
       <use style="stroke:#000000;stroke-width:0.6;" x="405.940324" xlink:href="#me7a743e4e9" y="291.28"/>
      </g>
     </g>
    </g>
    <g id="xtick_38">
     <g id="line2d_40">
      <g>
       <use style="stroke:#000000;stroke-width:0.6;" x="411.040337" xlink:href="#me7a743e4e9" y="291.28"/>
      </g>
     </g>
    </g>
    <g id="xtick_39">
     <g id="line2d_41">
      <g>
       <use style="stroke:#000000;stroke-width:0.6;" x="415.538867" xlink:href="#me7a743e4e9" y="291.28"/>
      </g>
     </g>
    </g>
    <g id="xtick_40">
     <g id="line2d_42">
      <g>
       <use style="stroke:#000000;stroke-width:0.6;" x="446.036562" xlink:href="#me7a743e4e9" y="291.28"/>
      </g>
     </g>
    </g>
    <g id="text_3">
     <!-- log10 of FEvals ratio -->
     <g transform="translate(141.371312 336.833125)scale(0.2 -0.2)">
      <defs>
       <path d="M 9.421875 75.984375 
L 18.40625 75.984375 
L 18.40625 0 
L 9.421875 0 
z
" id="DejaVuSans-108"/>
       <path d="M 30.609375 48.390625 
Q 23.390625 48.390625 19.1875 42.75 
Q 14.984375 37.109375 14.984375 27.296875 
Q 14.984375 17.484375 19.15625 11.84375 
Q 23.34375 6.203125 30.609375 6.203125 
Q 37.796875 6.203125 41.984375 11.859375 
Q 46.1875 17.53125 46.1875 27.296875 
Q 46.1875 37.015625 41.984375 42.703125 
Q 37.796875 48.390625 30.609375 48.390625 
z
M 30.609375 56 
Q 42.328125 56 49.015625 48.375 
Q 55.71875 40.765625 55.71875 27.296875 
Q 55.71875 13.875 49.015625 6.21875 
Q 42.328125 -1.421875 30.609375 -1.421875 
Q 18.84375 -1.421875 12.171875 6.21875 
Q 5.515625 13.875 5.515625 27.296875 
Q 5.515625 40.765625 12.171875 48.375 
Q 18.84375 56 30.609375 56 
z
" id="DejaVuSans-111"/>
       <path d="M 45.40625 27.984375 
Q 45.40625 37.75 41.375 43.109375 
Q 37.359375 48.484375 30.078125 48.484375 
Q 22.859375 48.484375 18.828125 43.109375 
Q 14.796875 37.75 14.796875 27.984375 
Q 14.796875 18.265625 18.828125 12.890625 
Q 22.859375 7.515625 30.078125 7.515625 
Q 37.359375 7.515625 41.375 12.890625 
Q 45.40625 18.265625 45.40625 27.984375 
z
M 54.390625 6.78125 
Q 54.390625 -7.171875 48.1875 -13.984375 
Q 42 -20.796875 29.203125 -20.796875 
Q 24.46875 -20.796875 20.265625 -20.09375 
Q 16.0625 -19.390625 12.109375 -17.921875 
L 12.109375 -9.1875 
Q 16.0625 -11.328125 19.921875 -12.34375 
Q 23.78125 -13.375 27.78125 -13.375 
Q 36.625 -13.375 41.015625 -8.765625 
Q 45.40625 -4.15625 45.40625 5.171875 
L 45.40625 9.625 
Q 42.625 4.78125 38.28125 2.390625 
Q 33.9375 0 27.875 0 
Q 17.828125 0 11.671875 7.65625 
Q 5.515625 15.328125 5.515625 27.984375 
Q 5.515625 40.671875 11.671875 48.328125 
Q 17.828125 56 27.875 56 
Q 33.9375 56 38.28125 53.609375 
Q 42.625 51.21875 45.40625 46.390625 
L 45.40625 54.6875 
L 54.390625 54.6875 
z
" id="DejaVuSans-103"/>
       <path d="M 31.78125 66.40625 
Q 24.171875 66.40625 20.328125 58.90625 
Q 16.5 51.421875 16.5 36.375 
Q 16.5 21.390625 20.328125 13.890625 
Q 24.171875 6.390625 31.78125 6.390625 
Q 39.453125 6.390625 43.28125 13.890625 
Q 47.125 21.390625 47.125 36.375 
Q 47.125 51.421875 43.28125 58.90625 
Q 39.453125 66.40625 31.78125 66.40625 
z
M 31.78125 74.21875 
Q 44.046875 74.21875 50.515625 64.515625 
Q 56.984375 54.828125 56.984375 36.375 
Q 56.984375 17.96875 50.515625 8.265625 
Q 44.046875 -1.421875 31.78125 -1.421875 
Q 19.53125 -1.421875 13.0625 8.265625 
Q 6.59375 17.96875 6.59375 36.375 
Q 6.59375 54.828125 13.0625 64.515625 
Q 19.53125 74.21875 31.78125 74.21875 
z
" id="DejaVuSans-48"/>
       <path id="DejaVuSans-32"/>
       <path d="M 37.109375 75.984375 
L 37.109375 68.5 
L 28.515625 68.5 
Q 23.6875 68.5 21.796875 66.546875 
Q 19.921875 64.59375 19.921875 59.515625 
L 19.921875 54.6875 
L 34.71875 54.6875 
L 34.71875 47.703125 
L 19.921875 47.703125 
L 19.921875 0 
L 10.890625 0 
L 10.890625 47.703125 
L 2.296875 47.703125 
L 2.296875 54.6875 
L 10.890625 54.6875 
L 10.890625 58.5 
Q 10.890625 67.625 15.140625 71.796875 
Q 19.390625 75.984375 28.609375 75.984375 
z
" id="DejaVuSans-102"/>
       <path d="M 9.8125 72.90625 
L 51.703125 72.90625 
L 51.703125 64.59375 
L 19.671875 64.59375 
L 19.671875 43.109375 
L 48.578125 43.109375 
L 48.578125 34.8125 
L 19.671875 34.8125 
L 19.671875 0 
L 9.8125 0 
z
" id="DejaVuSans-70"/>
       <path d="M 9.8125 72.90625 
L 55.90625 72.90625 
L 55.90625 64.59375 
L 19.671875 64.59375 
L 19.671875 43.015625 
L 54.390625 43.015625 
L 54.390625 34.71875 
L 19.671875 34.71875 
L 19.671875 8.296875 
L 56.78125 8.296875 
L 56.78125 0 
L 9.8125 0 
z
" id="DejaVuSans-69"/>
       <path d="M 2.984375 54.6875 
L 12.5 54.6875 
L 29.59375 8.796875 
L 46.6875 54.6875 
L 56.203125 54.6875 
L 35.6875 0 
L 23.484375 0 
z
" id="DejaVuSans-118"/>
       <path d="M 34.28125 27.484375 
Q 23.390625 27.484375 19.1875 25 
Q 14.984375 22.515625 14.984375 16.5 
Q 14.984375 11.71875 18.140625 8.90625 
Q 21.296875 6.109375 26.703125 6.109375 
Q 34.1875 6.109375 38.703125 11.40625 
Q 43.21875 16.703125 43.21875 25.484375 
L 43.21875 27.484375 
z
M 52.203125 31.203125 
L 52.203125 0 
L 43.21875 0 
L 43.21875 8.296875 
Q 40.140625 3.328125 35.546875 0.953125 
Q 30.953125 -1.421875 24.3125 -1.421875 
Q 15.921875 -1.421875 10.953125 3.296875 
Q 6 8.015625 6 15.921875 
Q 6 25.140625 12.171875 29.828125 
Q 18.359375 34.515625 30.609375 34.515625 
L 43.21875 34.515625 
L 43.21875 35.40625 
Q 43.21875 41.609375 39.140625 45 
Q 35.0625 48.390625 27.6875 48.390625 
Q 23 48.390625 18.546875 47.265625 
Q 14.109375 46.140625 10.015625 43.890625 
L 10.015625 52.203125 
Q 14.9375 54.109375 19.578125 55.046875 
Q 24.21875 56 28.609375 56 
Q 40.484375 56 46.34375 49.84375 
Q 52.203125 43.703125 52.203125 31.203125 
z
" id="DejaVuSans-97"/>
       <path d="M 44.28125 53.078125 
L 44.28125 44.578125 
Q 40.484375 46.53125 36.375 47.5 
Q 32.28125 48.484375 27.875 48.484375 
Q 21.1875 48.484375 17.84375 46.4375 
Q 14.5 44.390625 14.5 40.28125 
Q 14.5 37.15625 16.890625 35.375 
Q 19.28125 33.59375 26.515625 31.984375 
L 29.59375 31.296875 
Q 39.15625 29.25 43.1875 25.515625 
Q 47.21875 21.78125 47.21875 15.09375 
Q 47.21875 7.46875 41.1875 3.015625 
Q 35.15625 -1.421875 24.609375 -1.421875 
Q 20.21875 -1.421875 15.453125 -0.5625 
Q 10.6875 0.296875 5.421875 2 
L 5.421875 11.28125 
Q 10.40625 8.6875 15.234375 7.390625 
Q 20.0625 6.109375 24.8125 6.109375 
Q 31.15625 6.109375 34.5625 8.28125 
Q 37.984375 10.453125 37.984375 14.40625 
Q 37.984375 18.0625 35.515625 20.015625 
Q 33.0625 21.96875 24.703125 23.78125 
L 21.578125 24.515625 
Q 13.234375 26.265625 9.515625 29.90625 
Q 5.8125 33.546875 5.8125 39.890625 
Q 5.8125 47.609375 11.28125 51.796875 
Q 16.75 56 26.8125 56 
Q 31.78125 56 36.171875 55.265625 
Q 40.578125 54.546875 44.28125 53.078125 
z
" id="DejaVuSans-115"/>
       <path d="M 41.109375 46.296875 
Q 39.59375 47.171875 37.8125 47.578125 
Q 36.03125 48 33.890625 48 
Q 26.265625 48 22.1875 43.046875 
Q 18.109375 38.09375 18.109375 28.8125 
L 18.109375 0 
L 9.078125 0 
L 9.078125 54.6875 
L 18.109375 54.6875 
L 18.109375 46.1875 
Q 20.953125 51.171875 25.484375 53.578125 
Q 30.03125 56 36.53125 56 
Q 37.453125 56 38.578125 55.875 
Q 39.703125 55.765625 41.0625 55.515625 
z
" id="DejaVuSans-114"/>
       <path d="M 18.3125 70.21875 
L 18.3125 54.6875 
L 36.8125 54.6875 
L 36.8125 47.703125 
L 18.3125 47.703125 
L 18.3125 18.015625 
Q 18.3125 11.328125 20.140625 9.421875 
Q 21.96875 7.515625 27.59375 7.515625 
L 36.8125 7.515625 
L 36.8125 0 
L 27.59375 0 
Q 17.1875 0 13.234375 3.875 
Q 9.28125 7.765625 9.28125 18.015625 
L 9.28125 47.703125 
L 2.6875 47.703125 
L 2.6875 54.6875 
L 9.28125 54.6875 
L 9.28125 70.21875 
z
" id="DejaVuSans-116"/>
       <path d="M 9.421875 54.6875 
L 18.40625 54.6875 
L 18.40625 0 
L 9.421875 0 
z
M 9.421875 75.984375 
L 18.40625 75.984375 
L 18.40625 64.59375 
L 9.421875 64.59375 
z
" id="DejaVuSans-105"/>
      </defs>
      <use xlink:href="#DejaVuSans-108"/>
      <use x="27.783203" xlink:href="#DejaVuSans-111"/>
      <use x="88.964844" xlink:href="#DejaVuSans-103"/>
      <use x="152.441406" xlink:href="#DejaVuSans-49"/>
      <use x="216.064453" xlink:href="#DejaVuSans-48"/>
      <use x="279.6875" xlink:href="#DejaVuSans-32"/>
      <use x="311.474609" xlink:href="#DejaVuSans-111"/>
      <use x="372.65625" xlink:href="#DejaVuSans-102"/>
      <use x="407.861328" xlink:href="#DejaVuSans-32"/>
      <use x="439.648438" xlink:href="#DejaVuSans-70"/>
      <use x="497.167969" xlink:href="#DejaVuSans-69"/>
      <use x="560.351562" xlink:href="#DejaVuSans-118"/>
      <use x="619.53125" xlink:href="#DejaVuSans-97"/>
      <use x="680.810547" xlink:href="#DejaVuSans-108"/>
      <use x="708.59375" xlink:href="#DejaVuSans-115"/>
      <use x="760.693359" xlink:href="#DejaVuSans-32"/>
      <use x="792.480469" xlink:href="#DejaVuSans-114"/>
      <use x="833.59375" xlink:href="#DejaVuSans-97"/>
      <use x="894.873047" xlink:href="#DejaVuSans-116"/>
      <use x="934.082031" xlink:href="#DejaVuSans-105"/>
      <use x="961.865234" xlink:href="#DejaVuSans-111"/>
     </g>
    </g>
   </g>
   <g id="matplotlib.axis_2">
    <g id="ytick_1">
     <g id="line2d_43">
      <path clip-path="url(#p2fa00f782f)" d="M 34.16 288.453725 
L 453.192 288.453725 
" style="fill:none;stroke:#b0b0b0;stroke-linecap:square;stroke-width:0.8;"/>
     </g>
     <g id="line2d_44">
      <defs>
       <path d="M 0 0 
L -3.5 0 
" id="ma4a2df0914" style="stroke:#000000;stroke-width:0.8;"/>
      </defs>
      <g>
       <use style="stroke:#000000;stroke-width:0.8;" x="34.16" xlink:href="#ma4a2df0914" y="288.453725"/>
      </g>
     </g>
    </g>
    <g id="ytick_2">
     <g id="line2d_45">
      <path clip-path="url(#p2fa00f782f)" d="M 34.16 217.796863 
L 453.192 217.796863 
" style="fill:none;stroke:#b0b0b0;stroke-linecap:square;stroke-width:0.8;"/>
     </g>
     <g id="line2d_46">
      <g>
       <use style="stroke:#000000;stroke-width:0.8;" x="34.16" xlink:href="#ma4a2df0914" y="217.796863"/>
      </g>
     </g>
    </g>
    <g id="ytick_3">
     <g id="line2d_47">
      <path clip-path="url(#p2fa00f782f)" d="M 34.16 147.14 
L 453.192 147.14 
" style="fill:none;stroke:#b0b0b0;stroke-linecap:square;stroke-width:0.8;"/>
     </g>
     <g id="line2d_48">
      <g>
       <use style="stroke:#000000;stroke-width:0.8;" x="34.16" xlink:href="#ma4a2df0914" y="147.14"/>
      </g>
     </g>
    </g>
    <g id="ytick_4">
     <g id="line2d_49">
      <path clip-path="url(#p2fa00f782f)" d="M 34.16 76.483137 
L 453.192 76.483137 
" style="fill:none;stroke:#b0b0b0;stroke-linecap:square;stroke-width:0.8;"/>
     </g>
     <g id="line2d_50">
      <g>
       <use style="stroke:#000000;stroke-width:0.8;" x="34.16" xlink:href="#ma4a2df0914" y="76.483137"/>
      </g>
     </g>
    </g>
    <g id="ytick_5">
     <g id="line2d_51">
      <path clip-path="url(#p2fa00f782f)" d="M 34.16 5.826275 
L 453.192 5.826275 
" style="fill:none;stroke:#b0b0b0;stroke-linecap:square;stroke-width:0.8;"/>
     </g>
     <g id="line2d_52">
      <g>
       <use style="stroke:#000000;stroke-width:0.8;" x="34.16" xlink:href="#ma4a2df0914" y="5.826275"/>
      </g>
     </g>
    </g>
    <g id="text_4">
     <!-- proportion of trials -->
     <g transform="translate(19.000625 240.14625)rotate(-90)scale(0.2 -0.2)">
      <defs>
       <path d="M 18.109375 8.203125 
L 18.109375 -20.796875 
L 9.078125 -20.796875 
L 9.078125 54.6875 
L 18.109375 54.6875 
L 18.109375 46.390625 
Q 20.953125 51.265625 25.265625 53.625 
Q 29.59375 56 35.59375 56 
Q 45.5625 56 51.78125 48.09375 
Q 58.015625 40.1875 58.015625 27.296875 
Q 58.015625 14.40625 51.78125 6.484375 
Q 45.5625 -1.421875 35.59375 -1.421875 
Q 29.59375 -1.421875 25.265625 0.953125 
Q 20.953125 3.328125 18.109375 8.203125 
z
M 48.6875 27.296875 
Q 48.6875 37.203125 44.609375 42.84375 
Q 40.53125 48.484375 33.40625 48.484375 
Q 26.265625 48.484375 22.1875 42.84375 
Q 18.109375 37.203125 18.109375 27.296875 
Q 18.109375 17.390625 22.1875 11.75 
Q 26.265625 6.109375 33.40625 6.109375 
Q 40.53125 6.109375 44.609375 11.75 
Q 48.6875 17.390625 48.6875 27.296875 
z
" id="DejaVuSans-112"/>
       <path d="M 54.890625 33.015625 
L 54.890625 0 
L 45.90625 0 
L 45.90625 32.71875 
Q 45.90625 40.484375 42.875 44.328125 
Q 39.84375 48.1875 33.796875 48.1875 
Q 26.515625 48.1875 22.3125 43.546875 
Q 18.109375 38.921875 18.109375 30.90625 
L 18.109375 0 
L 9.078125 0 
L 9.078125 54.6875 
L 18.109375 54.6875 
L 18.109375 46.1875 
Q 21.34375 51.125 25.703125 53.5625 
Q 30.078125 56 35.796875 56 
Q 45.21875 56 50.046875 50.171875 
Q 54.890625 44.34375 54.890625 33.015625 
z
" id="DejaVuSans-110"/>
      </defs>
      <use xlink:href="#DejaVuSans-112"/>
      <use x="63.476562" xlink:href="#DejaVuSans-114"/>
      <use x="102.339844" xlink:href="#DejaVuSans-111"/>
      <use x="163.521484" xlink:href="#DejaVuSans-112"/>
      <use x="226.998047" xlink:href="#DejaVuSans-111"/>
      <use x="288.179688" xlink:href="#DejaVuSans-114"/>
      <use x="329.292969" xlink:href="#DejaVuSans-116"/>
      <use x="368.501953" xlink:href="#DejaVuSans-105"/>
      <use x="396.285156" xlink:href="#DejaVuSans-111"/>
      <use x="457.466797" xlink:href="#DejaVuSans-110"/>
      <use x="520.845703" xlink:href="#DejaVuSans-32"/>
      <use x="552.632812" xlink:href="#DejaVuSans-111"/>
      <use x="613.814453" xlink:href="#DejaVuSans-102"/>
      <use x="649.019531" xlink:href="#DejaVuSans-32"/>
      <use x="680.806641" xlink:href="#DejaVuSans-116"/>
      <use x="720.015625" xlink:href="#DejaVuSans-114"/>
      <use x="761.128906" xlink:href="#DejaVuSans-105"/>
      <use x="788.912109" xlink:href="#DejaVuSans-97"/>
      <use x="850.191406" xlink:href="#DejaVuSans-108"/>
      <use x="877.974609" xlink:href="#DejaVuSans-115"/>
     </g>
    </g>
   </g>
   <g id="line2d_53">
    <path clip-path="url(#p2fa00f782f)" d="M 34.16 288.453725 
L 142.697636 288.453725 
L 142.697636 288.139695 
L 144.708278 288.139695 
L 144.708278 287.825664 
L 144.857483 287.825664 
L 144.857483 287.511634 
L 149.315466 287.511634 
L 149.315466 287.197603 
L 149.551201 287.197603 
L 149.551201 286.883573 
L 151.561842 286.883573 
L 151.561842 286.569542 
L 152.398522 286.569542 
L 152.398522 286.255512 
L 154.409163 286.255512 
L 154.409163 285.941481 
L 154.577889 285.941481 
L 154.577889 285.627451 
L 156.169031 285.627451 
L 156.169031 285.31342 
L 156.402607 285.31342 
L 156.402607 284.99939 
L 157.909531 284.99939 
L 157.909531 284.685359 
L 158.51535 284.685359 
L 158.51535 284.371329 
L 159.016352 284.371329 
L 159.016352 284.057298 
L 159.587231 284.057298 
L 159.64208 282.487146 
L 159.920172 282.487146 
L 159.920172 282.173115 
L 160.525992 282.173115 
L 160.568025 281.545054 
L 161.431454 281.545054 
L 161.431454 281.231024 
L 161.624144 281.231024 
L 161.652721 280.288932 
L 162.397817 280.288932 
L 162.397817 279.974902 
L 162.526632 279.974902 
L 162.578666 279.346841 
L 163.488685 279.346841 
L 163.488685 279.03281 
L 164.094183 279.03281 
L 164.094183 278.71878 
L 164.278775 278.71878 
L 164.278775 278.404749 
L 164.408459 278.404749 
L 164.408459 278.090719 
L 164.527361 278.090719 
L 164.527361 277.776688 
L 165.13318 277.776688 
L 165.13318 277.462658 
L 165.499327 277.462658 
L 165.499327 277.148627 
L 165.685763 277.148627 
L 165.768591 276.520566 
L 166.104824 276.520566 
L 166.104824 276.206536 
L 166.231333 276.206536 
L 166.25991 275.264444 
L 167.185855 275.264444 
L 167.185855 274.950414 
L 167.779232 274.950414 
L 167.779232 274.636383 
L 168.651613 274.636383 
L 168.651613 274.322353 
L 169.015647 274.322353 
L 169.015647 273.694292 
L 169.789784 273.694292 
L 169.789784 273.380261 
L 170.106515 273.380261 
L 170.106515 273.066231 
L 170.395603 273.066231 
L 170.395603 272.7522 
L 170.712013 272.7522 
L 170.712013 272.43817 
L 170.859016 272.43817 
L 170.859016 272.124139 
L 171.177115 272.124139 
L 171.177115 271.810109 
L 171.493756 271.810109 
L 171.522333 270.868017 
L 172.386421 270.868017 
L 172.448278 270.239956 
L 172.532794 270.239956 
L 172.532794 269.925926 
L 172.869657 269.925926 
L 172.869657 269.611895 
L 173.97368 269.611895 
L 173.97368 269.297865 
L 174.27807 269.297865 
L 174.361739 268.669804 
L 175.368938 268.669804 
L 175.368938 268.355773 
L 175.505177 268.355773 
L 175.505177 268.041743 
L 175.974436 268.041743 
L 175.984321 267.413682 
L 176.647402 267.413682 
L 176.647402 267.099651 
L 177.230887 267.099651 
L 177.30114 266.47159 
L 177.476846 266.47159 
L 177.476846 266.15756 
L 177.648844 266.15756 
L 177.648844 265.843529 
L 178.352499 265.843529 
L 178.352499 265.529499 
L 180.415511 265.529499 
L 180.415511 265.215468 
L 180.59151 265.215468 
L 180.59151 264.901438 
L 180.881394 264.901438 
L 180.881394 263.959346 
L 181.178466 263.959346 
L 181.178466 263.331285 
L 182.03678 263.331285 
L 182.03678 263.017255 
L 182.739269 263.017255 
L 182.739269 262.703224 
L 182.896961 262.703224 
L 182.896961 262.389194 
L 183.354912 262.389194 
L 183.354912 262.075163 
L 183.500967 262.075163 
L 183.500967 261.761133 
L 183.790155 261.761133 
L 183.863507 261.133072 
L 184.077917 261.133072 
L 184.077917 260.819041 
L 184.311691 260.819041 
L 184.311691 260.505011 
L 184.469327 260.505011 
L 184.484904 259.87695 
L 184.932267 259.87695 
L 184.932267 259.562919 
L 185.493945 259.562919 
L 185.596057 258.306797 
L 185.771716 258.306797 
L 185.853933 257.678736 
L 186.060853 257.678736 
L 186.060853 257.364706 
L 186.348288 257.364706 
L 186.348288 257.050675 
L 186.514192 257.050675 
L 186.522002 256.422614 
L 187.075869 256.422614 
L 187.075869 256.108584 
L 187.262541 256.108584 
L 187.35364 255.480523 
L 187.966586 255.480523 
L 187.966586 255.166492 
L 188.351794 255.166492 
L 188.351794 254.852462 
L 188.528263 254.852462 
L 188.528263 254.538431 
L 188.700865 254.538431 
L 188.806034 253.91037 
L 189.442662 253.91037 
L 189.442662 253.59634 
L 189.750525 253.59634 
L 189.843927 252.968279 
L 190.04816 252.968279 
L 190.04816 252.654248 
L 190.201942 252.654248 
L 190.282789 252.026187 
L 190.454311 252.026187 
L 190.454311 251.712157 
L 190.838664 251.712157 
L 190.940857 251.084096 
L 191.165256 251.084096 
L 191.181826 250.456035 
L 191.338469 250.456035 
L 191.338469 250.142004 
L 191.580687 250.142004 
L 191.580687 248.885882 
L 191.722568 248.885882 
L 191.735184 248.257821 
L 191.859297 248.257821 
L 191.859297 247.943791 
L 192.036235 247.943791 
L 192.036235 247.62976 
L 192.274674 247.62976 
L 192.274674 247.31573 
L 192.426518 247.31573 
L 192.522782 245.745577 
L 192.596556 245.745577 
L 192.597846 245.117516 
L 192.76375 245.117516 
L 192.834294 244.175425 
L 192.911827 244.175425 
L 192.911827 243.861394 
L 193.284744 243.861394 
L 193.284744 243.547364 
L 193.473505 243.547364 
L 193.563269 242.291242 
L 193.591846 242.291242 
L 193.591846 241.977211 
L 193.736741 241.977211 
L 193.751276 241.34915 
L 193.975176 241.34915 
L 194.012577 240.721089 
L 194.178481 240.721089 
L 194.27668 239.464967 
L 194.409257 239.464967 
L 194.517791 238.836906 
L 194.624999 238.836906 
L 194.635129 238.208845 
L 194.866668 238.208845 
L 194.866668 237.894815 
L 195.061499 237.894815 
L 195.061499 237.580784 
L 195.196806 237.580784 
L 195.255811 236.952723 
L 195.318666 236.952723 
L 195.318666 236.638693 
L 195.474577 236.638693 
L 195.48927 236.010632 
L 195.611142 236.010632 
L 195.630875 234.75451 
L 195.861651 234.75451 
L 195.952975 233.812418 
L 196.206924 233.812418 
L 196.206924 233.498388 
L 196.319062 233.498388 
L 196.347584 232.870327 
L 196.643424 232.870327 
L 196.690958 231.928235 
L 196.77106 231.928235 
L 196.812993 230.986144 
L 197.438451 230.986144 
L 197.438451 230.672113 
L 197.659318 230.672113 
L 197.692229 230.044052 
L 198.043949 230.044052 
L 198.108855 229.101961 
L 198.403726 229.101961 
L 198.433871 228.4739 
L 198.550543 228.4739 
L 198.583164 227.217778 
L 198.714674 227.217778 
L 198.768169 226.275686 
L 198.855569 226.275686 
L 198.920417 225.647625 
L 199.128239 225.647625 
L 199.161386 225.019564 
L 199.329847 225.019564 
L 199.417246 224.077473 
L 199.453618 224.077473 
L 199.523586 223.135381 
L 199.607618 223.135381 
L 199.718357 221.251198 
L 199.812827 221.251198 
L 199.841404 220.309107 
L 199.927657 220.309107 
L 199.9878 219.681046 
L 200.129405 219.681046 
L 200.165089 218.738954 
L 200.302618 218.738954 
L 200.327299 218.110893 
L 200.53955 218.110893 
L 200.643718 217.168802 
L 200.767349 217.168802 
L 200.835361 216.22671 
L 200.884687 216.22671 
L 200.888976 215.598649 
L 201.034259 215.598649 
L 201.050121 214.970588 
L 201.166747 214.970588 
L 201.264304 213.400436 
L 201.400771 213.400436 
L 201.429348 212.458344 
L 201.617483 212.458344 
L 201.716301 211.830283 
L 201.97556 211.830283 
L 202.006747 210.888192 
L 202.109376 210.888192 
L 202.18208 210.260131 
L 202.299418 210.260131 
L 202.355293 209.63207 
L 202.530194 209.63207 
L 202.624166 207.433856 
L 202.865061 207.433856 
L 202.865061 207.119826 
L 202.987605 207.119826 
L 203.04106 206.491765 
L 203.125811 206.491765 
L 203.125811 205.235643 
L 203.439603 205.235643 
L 203.439603 204.921612 
L 203.68801 204.921612 
L 203.68801 204.607582 
L 204.011872 204.607582 
L 204.095896 203.979521 
L 204.185085 203.979521 
L 204.293507 202.723399 
L 204.32786 202.723399 
L 204.377612 202.095338 
L 204.764361 202.095338 
L 204.864158 200.525185 
L 204.956697 200.525185 
L 205.039559 198.641002 
L 205.10274 198.641002 
L 205.168373 197.698911 
L 205.275953 197.698911 
L 205.275953 197.38488 
L 205.583522 197.38488 
L 205.583522 197.07085 
L 205.708238 197.07085 
L 205.73005 196.442789 
L 205.849342 196.442789 
L 205.881451 195.500697 
L 205.967915 195.500697 
L 206.050559 194.558606 
L 206.145199 194.558606 
L 206.145199 194.244575 
L 206.265439 194.244575 
L 206.335888 192.360392 
L 206.42297 192.360392 
L 206.519857 189.848148 
L 206.562724 189.848148 
L 206.663235 188.277996 
L 206.750634 188.277996 
L 206.750634 187.963965 
L 206.889133 187.963965 
L 206.889133 187.649935 
L 207.120646 187.649935 
L 207.208045 186.707843 
L 207.382646 186.707843 
L 207.486569 186.079782 
L 207.555859 186.079782 
L 207.660042 184.82366 
L 207.754531 184.82366 
L 207.847364 183.567538 
L 207.903686 183.567538 
L 207.991588 182.625447 
L 208.046189 182.625447 
L 208.092388 181.997386 
L 208.222364 181.997386 
L 208.286025 181.369325 
L 208.460901 181.369325 
L 208.5483 180.427233 
L 208.652008 180.427233 
L 208.709053 179.485142 
L 208.853777 179.485142 
L 208.93697 177.600959 
L 208.984801 177.600959 
L 209.051188 176.972898 
L 209.131773 176.972898 
L 209.219118 175.716776 
L 209.249836 175.716776 
L 209.35212 173.832593 
L 209.712091 173.832593 
L 209.778738 172.576471 
L 210.02003 172.576471 
L 210.02003 172.26244 
L 210.145063 172.26244 
L 210.145063 171.94841 
L 210.263778 171.94841 
L 210.356967 171.320349 
L 210.456531 171.320349 
L 210.538846 170.378257 
L 210.594194 170.378257 
L 210.704683 169.436166 
L 210.751007 169.436166 
L 210.751007 169.122135 
L 210.918644 169.122135 
L 210.918644 168.808105 
L 211.05834 168.808105 
L 211.155871 167.551983 
L 211.176962 167.551983 
L 211.196416 166.923922 
L 211.314845 166.923922 
L 211.417931 166.295861 
L 211.433642 166.295861 
L 211.433642 165.98183 
L 211.592112 165.98183 
L 211.629713 165.353769 
L 211.83308 165.353769 
L 211.83308 165.039739 
L 211.974855 165.039739 
L 211.974855 164.725708 
L 212.171677 164.725708 
L 212.235211 163.469586 
L 212.419066 163.469586 
L 212.506465 162.213464 
L 212.534475 162.213464 
L 212.567198 161.585403 
L 212.646284 161.585403 
L 212.646284 161.271373 
L 212.832662 161.271373 
L 212.832662 160.957342 
L 213.063438 160.957342 
L 213.1262 160.015251 
L 213.247811 160.015251 
L 213.247811 159.70122 
L 213.478587 159.70122 
L 213.520849 159.073159 
L 213.625343 159.073159 
L 213.736163 158.131068 
L 213.909619 158.131068 
L 213.978195 156.874946 
L 214.125565 156.874946 
L 214.230841 155.304793 
L 214.244999 155.304793 
L 214.244999 154.990763 
L 214.362791 154.990763 
L 214.387996 154.048671 
L 214.664616 154.048671 
L 214.762308 153.42061 
L 214.861104 153.42061 
L 214.955992 152.792549 
L 215.10496 152.792549 
L 215.10496 152.478519 
L 215.243314 152.478519 
L 215.345629 151.222397 
L 215.529408 151.222397 
L 215.618615 150.280305 
L 215.712754 150.280305 
L 215.813375 147.768061 
L 215.879011 147.768061 
L 215.9683 146.825969 
L 216.04686 146.825969 
L 216.116237 146.197908 
L 216.262016 146.197908 
L 216.365557 145.255817 
L 216.375052 145.255817 
L 216.375052 144.941786 
L 216.602784 144.941786 
L 216.652823 143.057603 
L 216.74606 143.057603 
L 216.843752 142.429542 
L 216.867835 142.429542 
L 216.867835 142.115512 
L 217.202378 142.115512 
L 217.294299 139.917298 
L 217.716033 139.917298 
L 217.716033 139.603268 
L 217.965988 139.603268 
L 218.060692 135.834902 
L 218.252032 135.834902 
L 218.326766 134.57878 
L 218.489259 134.57878 
L 218.580825 133.950719 
L 218.709443 133.950719 
L 218.819269 133.322658 
L 218.92051 133.322658 
L 219.000044 132.380566 
L 219.065838 132.380566 
L 219.161441 131.438475 
L 219.234419 131.438475 
L 219.324777 130.810414 
L 219.398668 130.810414 
L 219.398668 130.496383 
L 219.581973 130.496383 
L 219.61078 129.868322 
L 219.704241 129.868322 
L 219.704241 129.240261 
L 219.837448 129.240261 
L 219.837448 128.926231 
L 220.049699 128.926231 
L 220.101341 127.670109 
L 220.172457 127.670109 
L 220.281898 126.413987 
L 220.286926 126.413987 
L 220.286926 126.099956 
L 220.436054 126.099956 
L 220.486199 125.157865 
L 220.723426 125.157865 
L 220.81608 124.215773 
L 220.995674 124.215773 
L 221.063578 123.273682 
L 221.22645 123.273682 
L 221.335418 121.075468 
L 221.66047 121.075468 
L 221.66047 120.761438 
L 221.821965 120.761438 
L 221.862539 119.819346 
L 221.95199 119.819346 
L 222.062933 119.191285 
L 222.084764 119.191285 
L 222.117255 117.307102 
L 222.211562 117.307102 
L 222.211562 116.993072 
L 222.376194 116.993072 
L 222.446668 116.365011 
L 222.759802 116.365011 
L 222.759802 116.05098 
L 222.888865 116.05098 
L 222.888865 115.73695 
L 223.142642 115.73695 
L 223.16458 115.108889 
L 223.379378 115.108889 
L 223.477664 113.852767 
L 223.550718 113.852767 
L 223.550718 113.538736 
L 223.70844 113.538736 
L 223.70844 113.224706 
L 224.007864 113.224706 
L 224.110338 112.282614 
L 224.121076 112.282614 
L 224.165851 110.084401 
L 224.245091 110.084401 
L 224.245091 109.77037 
L 224.617849 109.77037 
L 224.617849 109.45634 
L 225.132823 109.45634 
L 225.132823 109.142309 
L 225.506107 109.142309 
L 225.561333 108.514248 
L 225.61937 108.514248 
L 225.61937 108.200218 
L 225.860338 108.200218 
L 225.942607 106.944096 
L 226.109573 106.944096 
L 226.140032 106.316035 
L 226.426126 106.316035 
L 226.531855 105.059913 
L 226.688271 105.059913 
L 226.732779 104.117821 
L 226.916694 104.117821 
L 226.974365 103.48976 
L 227.128929 103.48976 
L 227.217268 102.547669 
L 227.275069 102.547669 
L 227.275069 102.233638 
L 227.505845 102.233638 
L 227.549541 101.291547 
L 227.66311 101.291547 
L 227.66311 100.977516 
L 227.781435 100.977516 
L 227.781435 100.663486 
L 227.901671 100.663486 
L 227.985133 97.20915 
L 228.09778 97.20915 
L 228.09778 96.581089 
L 228.415254 96.581089 
L 228.415254 96.267059 
L 228.709569 96.267059 
L 228.759984 94.696906 
L 228.908879 94.696906 
L 228.908879 94.382876 
L 229.211501 94.382876 
L 229.303512 93.754815 
L 229.457118 93.754815 
L 229.464272 93.126754 
L 229.740012 93.126754 
L 229.740012 92.812723 
L 229.878852 92.812723 
L 229.962556 91.870632 
L 230.082551 91.870632 
L 230.082551 91.242571 
L 230.221495 91.242571 
L 230.300591 89.986449 
L 230.457551 89.986449 
L 230.510795 89.044357 
L 230.654867 89.044357 
L 230.743644 86.532113 
L 230.769734 86.532113 
L 230.769734 86.218083 
L 230.947343 86.218083 
L 230.987942 85.275991 
L 231.282405 85.275991 
L 231.282405 84.961961 
L 231.397618 84.961961 
L 231.397618 84.3339 
L 231.513181 84.3339 
L 231.536182 82.449717 
L 231.690139 82.449717 
L 231.690139 82.135686 
L 231.86706 82.135686 
L 231.927365 81.193595 
L 232.051124 81.193595 
L 232.070758 79.623442 
L 232.326165 79.623442 
L 232.326165 79.309412 
L 232.649972 79.309412 
L 232.649972 78.681351 
L 232.784057 78.681351 
L 232.784057 77.425229 
L 233.226398 77.425229 
L 233.261677 76.797168 
L 233.430096 76.797168 
L 233.430096 76.169107 
L 234.280074 76.169107 
L 234.280074 75.541046 
L 234.483773 75.541046 
L 234.539014 73.970893 
L 234.742712 73.970893 
L 234.74739 72.714771 
L 235.051684 72.714771 
L 235.062569 72.08671 
L 235.255382 72.08671 
L 235.326088 70.516558 
L 235.47753 70.516558 
L 235.50916 68.004314 
L 235.610808 68.004314 
L 235.612182 67.062222 
L 236.011711 67.062222 
L 236.011711 66.120131 
L 236.735597 66.120131 
L 236.735597 64.864009 
L 236.978683 64.864009 
L 237.05817 63.293856 
L 237.146547 63.293856 
L 237.146547 62.979826 
L 237.516627 62.979826 
L 237.516627 62.665795 
L 238.094935 62.665795 
L 238.094935 62.037734 
L 238.231037 62.037734 
L 238.231037 61.409673 
L 238.768981 61.409673 
L 238.768981 61.095643 
L 239.148612 61.095643 
L 239.148612 59.839521 
L 239.380087 59.839521 
L 239.407551 58.897429 
L 239.583786 58.897429 
L 239.583786 58.269368 
L 239.920221 58.269368 
L 239.920221 57.641307 
L 240.173999 57.641307 
L 240.173999 57.013246 
L 240.328455 57.013246 
L 240.328455 56.385185 
L 240.866398 56.385185 
L 240.943952 55.129063 
L 240.999884 55.129063 
L 240.999884 53.872941 
L 241.193247 53.872941 
L 241.193247 53.24488 
L 241.445097 53.24488 
L 241.445097 52.93085 
L 241.73119 52.93085 
L 241.73119 52.616819 
L 242.212474 52.616819 
L 242.316662 50.104575 
L 242.817686 50.104575 
L 242.854606 46.96427 
L 243.676 46.96427 
L 243.676 45.080087 
L 244.213944 45.080087 
L 244.248625 44.137996 
L 244.729677 44.137996 
L 244.729677 42.881874 
L 244.988616 42.881874 
L 244.988616 42.253813 
L 245.26762 42.253813 
L 245.26762 41.625752 
L 245.501286 41.625752 
L 245.526559 40.68366 
L 245.755064 40.68366 
L 245.755064 40.055599 
L 246.03923 40.055599 
L 246.03923 39.741569 
L 246.176822 39.741569 
L 246.176822 37.229325 
L 246.293007 37.229325 
L 246.293007 36.915294 
L 246.711004 36.915294 
L 246.711004 35.659172 
L 247.700072 35.659172 
L 247.793515 32.832898 
L 249.82969 32.832898 
L 249.82969 32.204837 
L 250.367633 32.204837 
L 250.367633 31.890806 
L 254.64708 31.890806 
L 254.64708 31.576776 
L 255.9159 31.576776 
L 255.9159 30.320654 
L 257.128489 30.320654 
L 257.128489 29.064532 
L 257.456331 29.064532 
L 257.494401 28.436471 
L 258.524747 28.436471 
L 258.524747 28.12244 
L 261.092838 28.12244 
L 261.092838 25.610196 
L 261.62702 25.610196 
L 261.62702 24.354074 
L 262.673478 24.354074 
L 262.673478 23.097952 
L 262.921834 23.097952 
L 263.00541 22.469891 
L 263.611229 22.469891 
L 263.611229 22.155861 
L 263.990249 22.155861 
L 263.990249 21.84183 
L 264.174187 21.84183 
L 264.174187 21.5278 
L 264.709382 21.5278 
L 264.737959 20.585708 
L 265.242603 20.585708 
L 265.242603 20.271678 
L 265.663904 20.271678 
L 265.663904 19.957647 
L 266.271605 19.957647 
L 266.271605 19.643617 
L 266.850303 19.643617 
L 266.850303 19.329586 
L 267.136397 19.329586 
L 267.136397 19.015556 
L 267.34002 19.015556 
L 267.34002 18.701525 
L 267.493696 18.701525 
L 267.493696 18.387495 
L 267.918719 18.387495 
L 267.918719 18.073464 
L 268.204813 18.073464 
L 268.259812 17.131373 
L 268.584564 17.131373 
L 268.584564 16.817342 
L 269.190062 16.817342 
L 269.190062 16.503312 
L 269.328228 16.503312 
L 269.328228 15.875251 
L 269.61915 15.875251 
L 269.61915 15.56122 
L 270.672827 15.56122 
L 270.687566 14.619129 
L 270.86447 14.619129 
L 270.931766 13.991068 
L 271.444437 13.991068 
L 271.444437 13.677037 
L 271.698214 13.677037 
L 271.741243 12.734946 
L 272.000182 12.734946 
L 272.000182 12.420915 
L 272.512852 12.420915 
L 272.512852 12.106885 
L 272.76663 12.106885 
L 272.76663 11.792854 
L 274.010823 11.792854 
L 274.010823 11.478824 
L 275.77284 11.478824 
L 275.77284 11.164793 
L 275.954895 11.164793 
L 275.954895 10.850763 
L 276.841256 10.850763 
L 276.841256 10.536732 
L 279.069559 10.536732 
L 279.069559 10.222702 
L 279.476326 10.222702 
L 279.476326 9.908671 
L 280.728679 9.908671 
L 280.728679 9.594641 
L 282.826097 9.594641 
L 282.826097 9.28061 
L 283.404795 9.28061 
L 283.404795 8.96658 
L 283.690889 8.96658 
L 283.690889 8.652549 
L 284.814304 8.652549 
L 284.814304 8.024488 
L 286.173642 8.024488 
L 286.173642 7.710458 
L 287.227319 7.710458 
L 287.227319 7.082397 
L 287.486258 7.082397 
L 287.486258 6.768366 
L 287.998928 6.768366 
L 287.998928 6.454336 
L 288.252706 6.454336 
L 288.252706 6.140305 
L 292.327332 6.140305 
L 292.327332 5.826275 
L 453.192 5.826275 
L 453.192 5.826275 
" style="fill:none;stroke:#000000;stroke-linecap:square;stroke-width:3;"/>
   </g>
   <g id="line2d_54">
    <path clip-path="url(#p2fa00f782f)" style="fill:none;stroke:#000000;stroke-linecap:square;stroke-width:3;"/>
   </g>
   <g id="line2d_55">
    <path clip-path="url(#p2fa00f782f)" d="M 34.16 288.453725 
L 196.072039 288.453725 
L 196.072039 288.104803 
L 204.424515 288.104803 
L 204.424515 287.75588 
L 204.581179 287.75588 
L 204.581179 287.406957 
L 205.466007 287.406957 
L 205.466007 287.058034 
L 205.641041 287.058034 
L 205.641041 286.709112 
L 205.756452 286.709112 
L 205.756452 286.011266 
L 206.473046 286.011266 
L 206.525869 285.31342 
L 206.816314 285.31342 
L 206.816314 284.615575 
L 206.958668 284.615575 
L 206.958668 283.917729 
L 207.376544 283.917729 
L 207.376544 283.568807 
L 207.532909 283.568807 
L 207.532909 283.219884 
L 207.843496 283.219884 
L 207.843496 282.522038 
L 208.133941 282.522038 
L 208.146422 280.777424 
L 208.618714 280.777424 
L 208.618714 280.079579 
L 208.813552 280.079579 
L 208.850535 278.683888 
L 209.03125 278.683888 
L 209.03125 278.334965 
L 209.321695 278.334965 
L 209.321695 277.637119 
L 209.43312 277.637119 
L 209.524528 276.241428 
L 209.821754 276.241428 
L 209.873415 275.19466 
L 210.03829 275.19466 
L 210.126168 274.496814 
L 210.254982 274.496814 
L 210.317948 273.798969 
L 210.378863 273.798969 
L 210.383363 273.101123 
L 210.535361 273.101123 
L 210.608393 272.054355 
L 210.669308 272.054355 
L 210.669308 271.356509 
L 210.892616 271.356509 
L 210.892616 271.007587 
L 211.186031 271.007587 
L 211.191041 269.262973 
L 211.314845 269.262973 
L 211.385902 268.216204 
L 211.443226 268.216204 
L 211.519779 267.518359 
L 211.852988 267.518359 
L 211.952478 266.47159 
L 212.119793 266.47159 
L 212.119793 265.773745 
L 212.378796 265.773745 
L 212.378796 265.075899 
L 212.503657 265.075899 
L 212.579641 264.029131 
L 212.632471 264.029131 
L 212.673329 262.63344 
L 212.760852 262.63344 
L 212.760852 261.935594 
L 213.040742 261.935594 
L 213.103782 261.237749 
L 213.270105 261.237749 
L 213.270105 260.539903 
L 213.665494 260.539903 
L 213.726408 258.795289 
L 213.820226 258.795289 
L 213.897268 257.748521 
L 213.948607 257.748521 
L 213.948607 257.399598 
L 214.163644 257.399598 
L 214.191211 256.701753 
L 214.32744 256.701753 
L 214.388355 255.654984 
L 214.457859 255.654984 
L 214.457859 255.306061 
L 214.978109 255.306061 
L 215.085022 253.561448 
L 215.106924 253.561448 
L 215.21417 252.514679 
L 215.235305 252.514679 
L 215.296219 251.816834 
L 215.366484 251.816834 
L 215.366484 251.118988 
L 215.481271 251.118988 
L 215.504615 249.723297 
L 215.643248 249.723297 
L 215.744557 249.025451 
L 215.805472 249.025451 
L 215.805472 248.676529 
L 215.918755 248.676529 
L 215.918755 248.327606 
L 216.083078 248.327606 
L 216.088068 247.62976 
L 216.22121 247.62976 
L 216.22121 247.280838 
L 216.37172 247.280838 
L 216.432635 246.582992 
L 216.669025 246.582992 
L 216.703111 245.885146 
L 216.803582 245.885146 
L 216.834542 245.187301 
L 217.080159 245.187301 
L 217.094028 244.140533 
L 217.577193 244.140533 
L 217.652599 243.442687 
L 217.810622 243.442687 
L 217.810622 243.093764 
L 217.955723 243.093764 
L 218.020737 241.698073 
L 218.423584 241.698073 
L 218.462021 240.651305 
L 218.537427 240.651305 
L 218.561716 239.604536 
L 218.752466 239.604536 
L 218.827873 238.208845 
L 218.918794 238.208845 
L 218.918794 237.859923 
L 219.085531 237.859923 
L 219.085531 237.511 
L 219.208492 237.511 
L 219.223662 236.813154 
L 219.469061 236.813154 
L 219.544467 236.115309 
L 219.7362 236.115309 
L 219.803622 235.417463 
L 219.865014 235.417463 
L 219.874332 234.719618 
L 219.993395 234.719618 
L 220.094067 233.323926 
L 220.131527 233.323926 
L 220.151128 232.277158 
L 220.49519 232.277158 
L 220.556104 231.23039 
L 220.640779 231.23039 
L 220.640779 230.881467 
L 220.810661 230.881467 
L 220.813075 230.183621 
L 221.129811 230.183621 
L 221.129811 229.834699 
L 221.267942 229.834699 
L 221.267942 229.485776 
L 221.463744 229.485776 
L 221.463744 229.136853 
L 221.592558 229.136853 
L 221.592558 228.78793 
L 221.720939 228.78793 
L 221.809566 227.741162 
L 221.884973 227.741162 
L 221.884973 227.043316 
L 222.230192 227.043316 
L 222.230192 226.694394 
L 222.471513 226.694394 
L 222.546919 225.996548 
L 222.713813 225.996548 
L 222.713813 225.647625 
L 222.851945 225.647625 
L 222.947201 224.600857 
L 223.122182 224.600857 
L 223.197589 223.205166 
L 223.250996 223.205166 
L 223.326403 222.158397 
L 223.379378 222.158397 
L 223.454784 221.460552 
L 223.534542 221.460552 
L 223.534542 220.762706 
L 223.813114 220.762706 
L 223.88863 219.715938 
L 223.964036 219.715938 
L 223.964036 219.367015 
L 224.122474 219.367015 
L 224.122474 218.66917 
L 224.441357 218.66917 
L 224.515793 217.622401 
L 224.591199 217.622401 
L 224.592597 216.924556 
L 224.720978 216.924556 
L 224.720978 216.575633 
L 224.839069 216.575633 
L 224.839069 216.22671 
L 225.230231 216.22671 
L 225.25328 215.528865 
L 225.391412 215.528865 
L 225.391412 215.179942 
L 225.857394 215.179942 
L 225.857394 214.831019 
L 226.099796 214.831019 
L 226.175202 214.133174 
L 226.980824 214.133174 
L 226.980824 213.784251 
L 227.179575 213.784251 
L 227.179575 213.086405 
L 227.441396 213.086405 
L 227.441396 212.737482 
L 227.841521 212.737482 
L 227.841521 212.38856 
L 228.49219 212.38856 
L 228.49219 212.039637 
L 228.621005 212.039637 
L 228.714669 210.992869 
L 228.749386 210.992869 
L 228.749386 210.643946 
L 229.048238 210.643946 
L 229.048238 209.9461 
L 229.258638 209.9461 
L 229.258638 209.597177 
L 229.885801 209.597177 
L 229.980863 208.899332 
L 230.023557 208.899332 
L 230.023557 208.550409 
L 230.908385 208.550409 
L 230.908385 208.201486 
L 231.19883 208.201486 
L 231.19883 207.503641 
L 231.469804 207.503641 
L 231.469804 207.154718 
L 231.637387 207.154718 
L 231.637387 206.805795 
L 231.887018 206.805795 
L 231.915425 205.759027 
L 234.009271 205.759027 
L 234.009271 205.410104 
L 234.255931 205.410104 
L 234.255931 204.712259 
L 234.589416 204.712259 
L 234.589416 204.363336 
L 234.839047 204.363336 
L 234.917877 203.316567 
L 235.568547 203.316567 
L 235.568547 202.967645 
L 235.697361 202.967645 
L 235.697361 202.618722 
L 235.825742 202.618722 
L 235.831586 201.571954 
L 236.081217 201.571954 
L 236.185713 198.780571 
L 236.334994 198.780571 
L 236.334994 198.431649 
L 236.7374 198.431649 
L 236.7374 198.082726 
L 236.962157 198.082726 
L 237.034626 196.687035 
L 237.284257 196.687035 
L 237.284257 195.989189 
L 237.400714 195.989189 
L 237.400714 195.291344 
L 238.54616 195.291344 
L 238.54616 194.942421 
L 239.332664 194.942421 
L 239.332664 194.244575 
L 239.582295 194.244575 
L 239.582295 192.848884 
L 239.886201 192.848884 
L 239.886201 192.151038 
L 240.135832 192.151038 
L 240.135832 190.755347 
L 240.352743 190.755347 
L 240.352743 190.057502 
L 241.085627 190.057502 
L 241.085627 189.708579 
L 241.594913 189.708579 
L 241.594913 188.312888 
L 242.282389 188.312888 
L 242.282389 187.963965 
L 242.500727 187.963965 
L 242.53202 186.568274 
L 242.797953 186.568274 
L 242.797953 185.870428 
L 243.300939 185.870428 
L 243.300939 185.521506 
L 243.55057 185.521506 
L 243.55057 184.82366 
L 244.047413 184.82366 
L 244.047413 184.474737 
L 244.293031 184.474737 
L 244.297044 183.427969 
L 244.534314 183.427969 
L 244.542661 180.636587 
L 245.095991 180.636587 
L 245.095991 179.240896 
L 245.649528 179.240896 
L 245.649528 177.845205 
L 246.977426 177.845205 
L 246.977426 177.496282 
L 247.490218 177.496282 
L 247.490218 176.100591 
L 248.045716 176.100591 
L 248.045716 175.402745 
L 248.718863 175.402745 
L 248.732388 172.26244 
L 249.064266 172.26244 
L 249.064266 171.564595 
L 249.638202 171.564595 
L 249.638202 170.168903 
L 249.81074 170.168903 
L 249.81074 169.471058 
L 249.935428 169.471058 
L 249.935428 168.075367 
L 250.056357 168.075367 
L 250.056357 167.377521 
L 251.220372 167.377521 
L 251.220372 167.028598 
L 252.233467 167.028598 
L 252.233467 164.237216 
L 252.787003 164.237216 
L 252.88679 160.747988 
L 253.274543 160.747988 
L 253.274543 160.399066 
L 253.480994 160.399066 
L 253.480994 160.050143 
L 253.897275 160.050143 
L 253.897275 159.70122 
L 255.183192 159.70122 
L 255.233607 157.258761 
L 255.838819 157.258761 
L 255.838819 156.560915 
L 255.994271 156.560915 
L 255.994271 156.211992 
L 256.201742 156.211992 
L 256.201742 154.816301 
L 256.948216 154.816301 
L 256.948216 153.42061 
L 257.080989 153.42061 
L 257.080989 152.024919 
L 257.193833 152.024919 
L 257.193833 150.629228 
L 257.986803 150.629228 
L 257.986803 149.931382 
L 258.284029 149.931382 
L 258.284029 149.233537 
L 258.566224 149.233537 
L 258.566224 148.884614 
L 258.684653 148.884614 
L 258.684653 148.535691 
L 259.667956 148.535691 
L 259.667956 148.186768 
L 259.839869 148.186768 
L 259.839869 147.837846 
L 260.568876 147.837846 
L 260.582067 146.093232 
L 261.135604 146.093232 
L 261.135604 144.697541 
L 261.323959 144.697541 
L 261.409393 143.999695 
L 261.581306 143.999695 
L 261.581306 143.650772 
L 263.531792 143.650772 
L 263.586083 141.906158 
L 263.88647 141.906158 
L 263.910902 141.208313 
L 264.082816 141.208313 
L 264.159281 140.510467 
L 264.550343 140.510467 
L 264.550343 139.812622 
L 265.217602 139.812622 
L 265.296816 138.765853 
L 265.542434 138.765853 
L 265.542434 138.068008 
L 265.965073 138.068008 
L 265.965073 137.719085 
L 266.136987 137.719085 
L 266.171524 137.021239 
L 266.343438 137.021239 
L 266.343438 136.672317 
L 266.538112 136.672317 
L 266.587805 135.276626 
L 266.759718 135.276626 
L 266.759718 134.927703 
L 266.959039 134.927703 
L 266.959039 134.57878 
L 267.20149 134.57878 
L 267.20149 134.229857 
L 267.436527 134.229857 
L 267.436527 133.880934 
L 267.780282 133.880934 
L 267.780282 131.787398 
L 268.681322 131.787398 
L 268.686096 130.042784 
L 268.856714 130.042784 
L 268.942927 129.344938 
L 268.983322 129.344938 
L 268.983322 128.29817 
L 269.177964 128.29817 
L 269.177964 127.949247 
L 269.460548 127.949247 
L 269.460548 127.600324 
L 269.666434 127.600324 
L 269.666434 127.251402 
L 270.422758 127.251402 
L 270.453953 126.553556 
L 270.552085 126.553556 
L 270.552085 125.85571 
L 271.256754 125.85571 
L 271.28136 123.413251 
L 271.375183 123.413251 
L 271.444437 122.01756 
L 271.514719 122.01756 
L 271.547096 121.319714 
L 271.679473 121.319714 
L 271.72117 120.621869 
L 271.834897 120.621869 
L 271.834897 118.528332 
L 272.137451 118.528332 
L 272.19539 117.830487 
L 272.924268 117.830487 
L 272.924268 117.481564 
L 273.259406 117.481564 
L 273.259406 117.132641 
L 273.43132 117.132641 
L 273.498608 116.434795 
L 273.610854 116.434795 
L 273.705059 115.73695 
L 273.733644 115.73695 
L 273.733644 115.388027 
L 273.90938 115.388027 
L 274.014489 114.341259 
L 274.121339 114.341259 
L 274.231085 112.596645 
L 274.234446 112.596645 
L 274.234446 112.247722 
L 274.356376 112.247722 
L 274.356376 111.898799 
L 274.6969 111.898799 
L 274.6969 111.549877 
L 274.978439 111.549877 
L 274.978439 111.200954 
L 275.18489 111.200954 
L 275.249635 109.805263 
L 275.35229 109.805263 
L 275.35229 109.45634 
L 275.60117 109.45634 
L 275.60117 109.107417 
L 275.963551 109.107417 
L 275.996109 107.711726 
L 276.170002 107.711726 
L 276.241727 105.967112 
L 276.453372 105.967112 
L 276.453372 105.618189 
L 276.577 105.618189 
L 276.586282 104.920344 
L 276.748913 104.920344 
L 276.849811 103.524653 
L 276.924829 103.524653 
L 277.021724 102.477884 
L 277.373802 102.477884 
L 277.373802 102.128962 
L 277.698166 102.128962 
L 277.698166 101.780039 
L 277.8538 101.780039 
L 277.8538 101.431116 
L 278.683278 101.431116 
L 278.790288 100.73327 
L 278.809052 100.73327 
L 278.908717 100.035425 
L 279.025325 100.035425 
L 279.025325 99.686502 
L 279.143754 99.686502 
L 279.143754 99.337579 
L 279.470798 99.337579 
L 279.564135 98.639734 
L 279.907971 98.639734 
L 279.907971 98.290811 
L 280.114422 98.290811 
L 280.114422 97.941888 
L 280.270119 97.941888 
L 280.270119 97.592965 
L 280.388548 97.592965 
L 280.388548 97.244043 
L 280.530702 97.244043 
L 280.530702 96.89512 
L 280.792941 96.89512 
L 280.792941 96.546197 
L 281.027977 96.546197 
L 281.027977 96.197274 
L 281.255231 96.197274 
L 281.255231 95.848351 
L 281.37366 95.848351 
L 281.37366 95.499429 
L 281.548023 95.499429 
L 281.548023 95.150506 
L 281.78306 95.150506 
L 281.78306 94.801583 
L 282.042751 94.801583 
L 282.126646 94.103738 
L 282.16118 94.103738 
L 282.16118 93.754815 
L 282.272772 93.754815 
L 282.272772 93.405892 
L 282.399456 93.405892 
L 282.399456 93.056969 
L 282.627698 93.056969 
L 282.627698 92.708046 
L 283.027855 92.708046 
L 283.027855 92.359124 
L 283.242615 92.359124 
L 283.257884 91.312355 
L 283.414528 91.312355 
L 283.414528 90.61451 
L 284.012967 90.61451 
L 284.110534 89.567741 
L 284.345571 89.567741 
L 284.383345 88.869896 
L 284.618382 88.869896 
L 284.618382 88.520973 
L 284.800487 88.520973 
L 284.800487 88.17205 
L 285.199651 88.17205 
L 285.199651 87.823128 
L 285.31808 87.823128 
L 285.31808 87.474205 
L 285.590365 87.474205 
L 285.590365 87.125282 
L 285.863176 87.125282 
L 285.863176 86.776359 
L 286.575477 86.776359 
L 286.575477 86.427436 
L 286.848288 86.427436 
L 286.848288 86.078514 
L 287.202304 86.078514 
L 287.202304 85.729591 
L 287.362997 85.729591 
L 287.362997 85.380668 
L 287.635808 85.380668 
L 287.635808 85.031745 
L 287.957387 85.031745 
L 287.957387 84.682823 
L 288.792261 84.682823 
L 288.792261 83.984977 
L 290.519897 83.984977 
L 290.519897 83.636054 
L 290.776149 83.636054 
L 290.792708 82.589286 
L 291.011186 82.589286 
L 291.011186 81.89144 
L 292.25598 81.89144 
L 292.25598 81.193595 
L 293.241092 81.193595 
L 293.241092 80.495749 
L 294.028612 80.495749 
L 294.028612 79.797904 
L 297.185512 79.797904 
L 297.185512 79.100058 
L 342.784475 79.100058 
L 342.784475 78.751135 
L 344.525912 78.751135 
L 344.525912 78.402213 
L 347.027421 78.402213 
L 347.027421 78.05329 
L 349.081592 78.05329 
L 349.081592 77.704367 
L 349.288043 77.704367 
L 349.288043 77.355444 
L 349.704324 77.355444 
L 349.704324 77.006521 
L 351.801319 77.006521 
L 351.801319 76.657599 
L 354.373272 76.657599 
L 354.373272 76.308676 
L 354.491702 76.308676 
L 354.491702 75.959753 
L 354.742048 75.959753 
L 354.742048 75.61083 
L 356.375925 75.61083 
L 356.483485 74.912985 
L 357.131008 74.912985 
L 357.131008 74.564062 
L 358.984994 74.564062 
L 358.984994 74.215139 
L 359.274978 74.215139 
L 359.274978 73.866216 
L 359.693518 73.866216 
L 359.693518 73.517294 
L 359.966329 73.517294 
L 359.966329 73.168371 
L 361.016415 73.168371 
L 361.039165 72.470525 
L 361.245616 72.470525 
L 361.245616 72.121603 
L 361.661897 72.121603 
L 361.661897 71.77268 
L 363.517924 71.77268 
L 363.517924 71.423757 
L 363.758892 71.423757 
L 363.758892 71.074834 
L 365.572095 71.074834 
L 365.572095 70.725911 
L 365.778546 70.725911 
L 365.778546 70.376989 
L 366.194827 70.376989 
L 366.194827 70.028066 
L 366.330845 70.028066 
L 366.359134 68.981298 
L 366.449275 68.981298 
L 366.449275 68.632375 
L 368.291823 68.632375 
L 368.333498 67.934529 
L 369.088581 67.934529 
L 369.088581 67.585606 
L 370.863776 67.585606 
L 370.863776 67.236684 
L 370.982205 67.236684 
L 370.982205 66.887761 
L 371.651091 66.887761 
L 371.651091 66.538838 
L 371.923902 66.538838 
L 371.923902 66.189915 
L 372.866428 66.189915 
L 372.866428 65.840992 
L 373.621511 65.840992 
L 373.621511 65.49207 
L 375.862261 65.49207 
L 375.862261 65.143147 
L 376.184022 65.143147 
L 376.184022 64.794224 
L 376.456833 64.794224 
L 376.456833 64.445301 
L 377.603698 64.445301 
L 377.603698 64.096379 
L 378.316707 64.096379 
L 378.316707 63.398533 
L 380.105207 63.398533 
L 380.105207 63.04961 
L 382.159378 63.04961 
L 382.159378 62.700687 
L 382.365829 62.700687 
L 382.365829 62.351765 
L 382.78211 62.351765 
L 382.849637 61.304996 
L 384.879105 61.304996 
L 384.879105 60.956074 
L 387.451059 60.956074 
L 387.451059 60.607151 
L 387.569488 60.607151 
L 387.569488 60.258228 
L 389.453711 60.258228 
L 389.453711 59.909305 
L 390.208794 59.909305 
L 390.208794 59.560382 
L 392.771304 59.560382 
L 392.771304 59.21146 
L 393.044115 59.21146 
L 393.044115 58.862537 
L 399.43692 58.862537 
L 399.43692 58.164691 
L 453.192 58.164691 
L 453.192 58.164691 
" style="fill:none;stroke:#00bfbf;stroke-linecap:square;stroke-width:3;"/>
   </g>
   <g id="line2d_56">
    <path clip-path="url(#p2fa00f782f)" style="fill:none;stroke:#00bfbf;stroke-linecap:square;stroke-width:3;"/>
   </g>
   <g id="line2d_57">
    <path clip-path="url(#p2fa00f782f)" d="M 34.16 288.453725 
L 51.554139 288.453725 
L 51.554139 287.864918 
L 54.716775 287.864918 
L 54.716775 287.276111 
L 56.12384 287.276111 
L 56.12384 286.687304 
L 56.768469 286.687304 
L 56.768469 286.098497 
L 57.666464 286.098497 
L 57.666464 285.50969 
L 59.911522 285.50969 
L 59.911522 284.920882 
L 60.8291 284.920882 
L 60.8291 284.332075 
L 62.236166 284.332075 
L 62.236166 283.743268 
L 62.880795 283.743268 
L 62.880795 283.154461 
L 66.023847 283.154461 
L 66.023847 282.565654 
L 98.821274 282.565654 
L 98.821274 281.976846 
L 100.96521 281.976846 
L 101.040493 280.799232 
L 101.547338 280.799232 
L 101.547338 280.210425 
L 104.709974 280.210425 
L 104.709974 279.621618 
L 104.854659 279.621618 
L 104.933599 278.444003 
L 106.117039 278.444003 
L 106.117039 277.855196 
L 106.761668 277.855196 
L 106.761668 277.266389 
L 107.077535 277.266389 
L 107.152818 276.088775 
L 109.904721 276.088775 
L 109.904721 275.499967 
L 110.966984 275.499967 
L 110.966984 274.91116 
L 118.769183 274.91116 
L 118.769183 274.322353 
L 119.161917 274.322353 
L 119.161917 273.733546 
L 120.192985 273.733546 
L 120.208165 272.555931 
L 121.931819 272.555931 
L 121.931819 271.967124 
L 123.338884 271.967124 
L 123.338884 271.378317 
L 123.983513 271.378317 
L 123.983513 270.78951 
L 125.274243 270.78951 
L 125.274243 270.200703 
L 126.305311 270.200703 
L 126.320491 269.023088 
L 127.126565 269.023088 
L 127.126565 268.434281 
L 132.335785 268.434281 
L 132.335785 267.845474 
L 138.44811 267.845474 
L 138.44811 267.256667 
L 139.863697 267.256667 
L 139.863697 266.667859 
L 142.465833 266.667859 
L 142.465833 266.079052 
L 142.710798 266.079052 
L 142.710798 265.490245 
L 143.026333 265.490245 
L 143.026333 264.901438 
L 144.433398 264.901438 
L 144.433398 264.312631 
L 145.078027 264.312631 
L 145.078027 263.723824 
L 148.221079 263.723824 
L 148.221079 263.135016 
L 148.578158 263.135016 
L 148.578158 262.546209 
L 148.814473 262.546209 
L 148.823124 261.368595 
L 150.307043 261.368595 
L 150.307043 260.779788 
L 150.958409 260.779788 
L 151.033692 259.602173 
L 153.469679 259.602173 
L 153.469679 259.013366 
L 154.847858 259.013366 
L 154.876745 257.835752 
L 155.521374 257.835752 
L 155.554345 256.658137 
L 158.664426 256.658137 
L 158.716981 255.480523 
L 160.124046 255.480523 
L 160.124046 254.891716 
L 160.768675 254.891716 
L 160.768675 254.302908 
L 163.911727 254.302908 
L 163.911727 253.714101 
L 166.036317 253.714101 
L 166.036317 253.125294 
L 167.866738 253.125294 
L 167.866738 252.536487 
L 168.180254 252.536487 
L 168.255536 251.358873 
L 169.155116 251.358873 
L 169.155116 250.770065 
L 170.186184 250.770065 
L 170.201365 249.592451 
L 171.029374 249.592451 
L 171.029374 249.003644 
L 172.069703 249.003644 
L 172.069703 248.414837 
L 172.436439 248.414837 
L 172.436439 247.826029 
L 173.081068 247.826029 
L 173.081068 247.237222 
L 176.224121 247.237222 
L 176.224121 246.648415 
L 182.328984 246.648415 
L 182.328984 246.059608 
L 186.376961 246.059608 
L 186.376961 245.470801 
L 187.130832 245.470801 
L 187.130832 244.881993 
L 187.408029 244.881993 
L 187.423209 243.704379 
L 189.274768 243.704379 
L 189.350051 242.526765 
L 192.459032 242.526765 
L 192.459032 241.937958 
L 192.703998 241.937958 
L 192.703998 241.34915 
L 193.164217 241.34915 
L 193.164217 240.760343 
L 194.910894 240.760343 
L 194.910894 240.171536 
L 197.574178 240.171536 
L 197.574178 239.582729 
L 197.802296 239.582729 
L 197.802296 238.993922 
L 198.07353 238.993922 
L 198.092742 237.816307 
L 199.480595 237.816307 
L 199.550829 236.638693 
L 199.718114 236.638693 
L 199.793397 235.461078 
L 200.125225 235.461078 
L 200.125225 234.872271 
L 200.964932 234.872271 
L 200.964932 234.283464 
L 201.255378 234.283464 
L 201.255378 233.694657 
L 202.371998 233.694657 
L 202.371998 233.10585 
L 202.662443 233.10585 
L 202.662443 232.517042 
L 202.821479 232.517042 
L 202.821479 231.928235 
L 203.016627 231.928235 
L 203.016627 231.339428 
L 203.268277 231.339428 
L 203.307072 230.161814 
L 203.607563 230.161814 
L 203.607563 229.573007 
L 204.965415 229.573007 
L 205.040698 228.395392 
L 206.159679 228.395392 
L 206.159679 227.806585 
L 206.450124 227.806585 
L 206.450124 227.217778 
L 207.471475 227.217778 
L 207.471475 226.628971 
L 208.502543 226.628971 
L 208.517723 225.451356 
L 208.854865 225.451356 
L 208.854865 224.862549 
L 209.680877 224.862549 
L 209.680877 224.273742 
L 209.925842 224.273742 
L 209.925842 223.684935 
L 215.133873 223.684935 
L 215.133873 223.096127 
L 217.277809 223.096127 
L 217.353092 221.918513 
L 217.914822 221.918513 
L 217.914822 221.329706 
L 218.94589 221.329706 
L 218.96107 220.152092 
L 220.645343 220.152092 
L 220.650736 218.974477 
L 221.167258 218.974477 
L 221.167258 218.38567 
L 223.162123 218.38567 
L 223.162489 217.208056 
L 223.813372 217.208056 
L 223.813372 216.619248 
L 224.193191 216.619248 
L 224.208371 215.441634 
L 225.220437 215.441634 
L 225.220437 214.852827 
L 225.765073 214.852827 
L 225.865066 213.675212 
L 226.325125 213.675212 
L 226.325125 213.086405 
L 227.73219 213.086405 
L 227.73219 212.497598 
L 228.376819 212.497598 
L 228.376819 211.908791 
L 228.927708 211.908791 
L 229.008119 210.731176 
L 230.334774 210.731176 
L 230.334774 210.142369 
L 230.775391 210.142369 
L 230.775391 209.553562 
L 230.979403 209.553562 
L 231.088689 207.787141 
L 231.305585 207.787141 
L 231.305585 207.198333 
L 231.519871 207.198333 
L 231.519871 206.609526 
L 234.122455 206.609526 
L 234.122455 206.020719 
L 234.468221 206.020719 
L 234.468221 205.431912 
L 235.474516 205.431912 
L 235.474516 204.843105 
L 235.875286 204.843105 
L 235.875286 204.254297 
L 236.33599 204.254297 
L 236.33599 203.66549 
L 236.505584 203.66549 
L 236.520764 201.899069 
L 239.662968 201.899069 
L 239.662968 201.310261 
L 241.218737 201.310261 
L 241.218737 200.721454 
L 241.463703 200.721454 
L 241.463703 200.132647 
L 242.178029 200.132647 
L 242.178029 199.54384 
L 244.321965 199.54384 
L 244.397248 198.366225 
L 245.069431 198.366225 
L 245.069431 197.777418 
L 245.359876 197.777418 
L 245.359876 197.188611 
L 246.466039 197.188611 
L 246.466039 196.599804 
L 246.711004 196.599804 
L 246.711004 196.010997 
L 247.213367 196.010997 
L 247.28865 194.833382 
L 247.503812 194.833382 
L 247.579095 193.655768 
L 248.211414 193.655768 
L 248.211414 193.066961 
L 248.648384 193.066961 
L 248.648384 192.478154 
L 251.102816 192.478154 
L 251.102816 191.889346 
L 251.393262 191.889346 
L 251.393262 191.300539 
L 258.778432 191.300539 
L 258.778432 190.711732 
L 259.023397 190.711732 
L 259.023397 190.122925 
L 262.518672 190.122925 
L 262.518672 189.534118 
L 263.54974 189.534118 
L 263.564921 188.356503 
L 265.410075 188.356503 
L 265.410075 187.767696 
L 265.70052 187.767696 
L 265.70052 187.178889 
L 266.441143 187.178889 
L 266.456323 186.001275 
L 266.731588 186.001275 
L 266.746768 184.82366 
L 267.917871 184.82366 
L 267.917871 184.234853 
L 270.061807 184.234853 
L 270.13709 183.057239 
L 270.429624 183.057239 
L 270.429624 182.468431 
L 272.57356 182.468431 
L 272.648843 181.290817 
L 273.032207 181.290817 
L 273.032207 180.70201 
L 273.951256 180.70201 
L 273.951256 180.113203 
L 275.176143 180.113203 
L 275.251426 178.935588 
L 275.69254 178.935588 
L 275.69254 178.346781 
L 276.463009 178.346781 
L 276.463009 177.757974 
L 278.57272 177.757974 
L 278.583942 176.580359 
L 278.874387 176.580359 
L 278.874387 175.991552 
L 279.065593 175.991552 
L 279.065593 175.402745 
L 280.716656 175.402745 
L 280.791939 174.225131 
L 284.606105 174.225131 
L 284.606105 173.636324 
L 285.822588 173.636324 
L 285.822588 173.047516 
L 286.067554 173.047516 
L 286.067554 172.458709 
L 288.258514 172.458709 
L 288.258514 171.869902 
L 288.71399 171.869902 
L 288.71399 171.281095 
L 288.958956 171.281095 
L 289.004436 170.10348 
L 289.249401 170.10348 
L 289.304762 168.337059 
L 290.770267 168.337059 
L 290.770267 167.748252 
L 291.801335 167.748252 
L 291.816515 166.570637 
L 293.372851 166.570637 
L 293.372851 165.98183 
L 294.403919 165.98183 
L 294.419099 164.804216 
L 298.913363 164.804216 
L 298.913363 164.215408 
L 299.944431 164.215408 
L 299.959612 163.037794 
L 301.432382 163.037794 
L 301.432382 162.448987 
L 303.944135 162.448987 
L 303.944135 161.86018 
L 306.546718 161.86018 
L 306.546718 161.271373 
L 311.56243 161.271373 
L 311.56243 160.682565 
L 311.807396 160.682565 
L 311.807396 160.093758 
L 312.087231 160.093758 
L 312.087231 159.504951 
L 314.074183 159.504951 
L 314.074183 158.916144 
L 314.319148 158.916144 
L 314.319148 158.327337 
L 316.676766 158.327337 
L 316.676766 157.738529 
L 316.921732 157.738529 
L 316.921732 157.149722 
L 322.217279 157.149722 
L 322.217279 156.560915 
L 322.462245 156.560915 
L 322.462245 155.972108 
L 453.192 155.972108 
L 453.192 155.972108 
" style="fill:none;stroke:#bf00bf;stroke-linecap:square;stroke-width:3;"/>
   </g>
   <g id="line2d_58">
    <path clip-path="url(#p2fa00f782f)" style="fill:none;stroke:#bf00bf;stroke-linecap:square;stroke-width:3;"/>
   </g>
   <g id="line2d_59">
    <path clip-path="url(#p2fa00f782f)" d="M 34.16 184.82366 
L 96.002088 184.82366 
L 96.002088 184.195599 
L 96.803898 184.195599 
L 96.803898 183.567538 
L 100.644482 183.567538 
L 100.644482 182.939477 
L 101.446292 182.939477 
L 101.446292 182.311416 
L 111.540704 182.311416 
L 111.540704 181.683355 
L 115.318887 181.683355 
L 115.318887 181.055294 
L 116.120697 181.055294 
L 116.120697 180.427233 
L 116.183099 180.427233 
L 116.183099 179.799172 
L 130.857504 179.799172 
L 130.857504 179.171111 
L 142.719221 179.171111 
L 142.719221 178.54305 
L 143.521031 178.54305 
L 143.521031 177.914989 
L 158.257838 177.914989 
L 158.257838 177.286928 
L 170.537176 177.286928 
L 170.537176 176.658867 
L 171.338986 176.658867 
L 171.338986 176.030806 
L 176.087278 176.030806 
L 176.087278 175.402745 
L 176.508022 175.402745 
L 176.508022 174.774684 
L 176.889088 174.774684 
L 176.889088 174.146623 
L 177.309832 174.146623 
L 177.309832 173.518562 
L 179.903623 173.518562 
L 179.903623 172.890501 
L 180.705433 172.890501 
L 180.705433 172.26244 
L 183.952444 172.26244 
L 183.952444 171.634379 
L 184.754255 171.634379 
L 184.754255 171.006318 
L 186.075793 171.006318 
L 186.075793 170.378257 
L 186.400813 170.378257 
L 186.400813 169.750196 
L 187.202623 169.750196 
L 187.202623 169.122135 
L 191.625895 169.122135 
L 191.625895 168.494074 
L 192.046639 168.494074 
L 192.046639 167.866013 
L 192.544891 167.866013 
L 192.544891 167.237952 
L 192.723078 167.237952 
L 192.723078 166.609891 
L 193.524888 166.609891 
L 193.524888 165.98183 
L 195.44224 165.98183 
L 195.44224 165.353769 
L 197.187286 165.353769 
L 197.187286 164.725708 
L 199.491061 164.725708 
L 199.491061 164.097647 
L 201.93943 164.097647 
L 201.93943 163.469586 
L 208.261695 163.469586 
L 208.261695 162.841525 
L 208.866985 162.841525 
L 208.866985 162.213464 
L 209.668795 162.213464 
L 209.668795 161.585403 
L 211.86169 161.585403 
L 211.86169 160.957342 
L 219.36737 160.957342 
L 219.36737 160.329281 
L 220.16918 160.329281 
L 220.16918 159.70122 
L 223.744057 159.70122 
L 223.744057 159.073159 
L 224.405602 159.073159 
L 224.405602 158.445098 
L 224.545867 158.445098 
L 224.545867 157.817037 
L 234.905987 157.817037 
L 234.905987 157.188976 
L 239.262024 157.188976 
L 239.262024 156.560915 
L 239.282673 156.560915 
L 239.282673 155.932854 
L 240.372486 155.932854 
L 240.372486 155.304793 
L 241.174296 155.304793 
L 241.174296 154.676732 
L 255.911102 154.676732 
L 255.911102 154.048671 
L 267.079979 154.048671 
L 267.079979 153.42061 
L 272.630081 153.42061 
L 272.630081 152.792549 
L 273.050825 152.792549 
L 273.050825 152.164488 
L 276.446426 152.164488 
L 276.446426 151.536427 
L 280.495248 151.536427 
L 280.495248 150.908366 
L 282.943617 150.908366 
L 282.943617 150.280305 
L 289.265881 150.280305 
L 289.265881 149.652244 
L 305.409789 149.652244 
L 305.409789 149.024183 
L 315.910173 149.024183 
L 315.910173 148.396122 
L 320.28686 148.396122 
L 320.28686 147.768061 
L 336.915289 147.768061 
L 336.915289 147.14 
L 453.192 147.14 
" style="fill:none;stroke:#ff0000;stroke-linecap:square;stroke-width:3;"/>
   </g>
   <g id="line2d_60">
    <path clip-path="url(#p2fa00f782f)" style="fill:none;stroke:#ff0000;stroke-linecap:square;stroke-width:3;"/>
   </g>
   <g id="line2d_61">
    <path clip-path="url(#p2fa00f782f)" d="M 243.676 291.28 
L 243.676 3 
" style="fill:none;stroke:#000000;stroke-linecap:square;stroke-width:1.5;"/>
   </g>
   <g id="line2d_62">
    <path clip-path="url(#p2fa00f782f)" d="M 34.16 147.14 
L 453.192 147.14 
" style="fill:none;stroke:#000000;stroke-dasharray:2,3.3;stroke-dashoffset:0;stroke-width:2;"/>
   </g>
   <g id="patch_3">
    <path d="M 34.16 291.28 
L 34.16 3 
" style="fill:none;stroke:#000000;stroke-linecap:square;stroke-linejoin:miter;stroke-width:0.8;"/>
   </g>
   <g id="patch_4">
    <path d="M 453.192 291.28 
L 453.192 3 
" style="fill:none;stroke:#000000;stroke-linecap:square;stroke-linejoin:miter;stroke-width:0.8;"/>
   </g>
   <g id="patch_5">
    <path d="M 34.16 291.28 
L 453.192 291.28 
" style="fill:none;stroke:#000000;stroke-linecap:square;stroke-linejoin:miter;stroke-width:0.8;"/>
   </g>
   <g id="patch_6">
    <path d="M 34.16 3 
L 453.192 3 
" style="fill:none;stroke:#000000;stroke-linecap:square;stroke-linejoin:miter;stroke-width:0.8;"/>
   </g>
   <g id="text_5">
    <!-- f19, f25, f31, f37,20-D -->
    <g transform="translate(222.289485 285.5144)scale(0.2 -0.2)">
     <defs>
      <path d="M 10.984375 1.515625 
L 10.984375 10.5 
Q 14.703125 8.734375 18.5 7.8125 
Q 22.3125 6.890625 25.984375 6.890625 
Q 35.75 6.890625 40.890625 13.453125 
Q 46.046875 20.015625 46.78125 33.40625 
Q 43.953125 29.203125 39.59375 26.953125 
Q 35.25 24.703125 29.984375 24.703125 
Q 19.046875 24.703125 12.671875 31.3125 
Q 6.296875 37.9375 6.296875 49.421875 
Q 6.296875 60.640625 12.9375 67.421875 
Q 19.578125 74.21875 30.609375 74.21875 
Q 43.265625 74.21875 49.921875 64.515625 
Q 56.59375 54.828125 56.59375 36.375 
Q 56.59375 19.140625 48.40625 8.859375 
Q 40.234375 -1.421875 26.421875 -1.421875 
Q 22.703125 -1.421875 18.890625 -0.6875 
Q 15.09375 0.046875 10.984375 1.515625 
z
M 30.609375 32.421875 
Q 37.25 32.421875 41.125 36.953125 
Q 45.015625 41.5 45.015625 49.421875 
Q 45.015625 57.28125 41.125 61.84375 
Q 37.25 66.40625 30.609375 66.40625 
Q 23.96875 66.40625 20.09375 61.84375 
Q 16.21875 57.28125 16.21875 49.421875 
Q 16.21875 41.5 20.09375 36.953125 
Q 23.96875 32.421875 30.609375 32.421875 
z
" id="DejaVuSans-57"/>
      <path d="M 11.71875 12.40625 
L 22.015625 12.40625 
L 22.015625 4 
L 14.015625 -11.625 
L 7.71875 -11.625 
L 11.71875 4 
z
" id="DejaVuSans-44"/>
      <path d="M 19.1875 8.296875 
L 53.609375 8.296875 
L 53.609375 0 
L 7.328125 0 
L 7.328125 8.296875 
Q 12.9375 14.109375 22.625 23.890625 
Q 32.328125 33.6875 34.8125 36.53125 
Q 39.546875 41.84375 41.421875 45.53125 
Q 43.3125 49.21875 43.3125 52.78125 
Q 43.3125 58.59375 39.234375 62.25 
Q 35.15625 65.921875 28.609375 65.921875 
Q 23.96875 65.921875 18.8125 64.3125 
Q 13.671875 62.703125 7.8125 59.421875 
L 7.8125 69.390625 
Q 13.765625 71.78125 18.9375 73 
Q 24.125 74.21875 28.421875 74.21875 
Q 39.75 74.21875 46.484375 68.546875 
Q 53.21875 62.890625 53.21875 53.421875 
Q 53.21875 48.921875 51.53125 44.890625 
Q 49.859375 40.875 45.40625 35.40625 
Q 44.1875 33.984375 37.640625 27.21875 
Q 31.109375 20.453125 19.1875 8.296875 
z
" id="DejaVuSans-50"/>
      <path d="M 10.796875 72.90625 
L 49.515625 72.90625 
L 49.515625 64.59375 
L 19.828125 64.59375 
L 19.828125 46.734375 
Q 21.96875 47.46875 24.109375 47.828125 
Q 26.265625 48.1875 28.421875 48.1875 
Q 40.625 48.1875 47.75 41.5 
Q 54.890625 34.8125 54.890625 23.390625 
Q 54.890625 11.625 47.5625 5.09375 
Q 40.234375 -1.421875 26.90625 -1.421875 
Q 22.3125 -1.421875 17.546875 -0.640625 
Q 12.796875 0.140625 7.71875 1.703125 
L 7.71875 11.625 
Q 12.109375 9.234375 16.796875 8.0625 
Q 21.484375 6.890625 26.703125 6.890625 
Q 35.15625 6.890625 40.078125 11.328125 
Q 45.015625 15.765625 45.015625 23.390625 
Q 45.015625 31 40.078125 35.4375 
Q 35.15625 39.890625 26.703125 39.890625 
Q 22.75 39.890625 18.8125 39.015625 
Q 14.890625 38.140625 10.796875 36.28125 
z
" id="DejaVuSans-53"/>
      <path d="M 40.578125 39.3125 
Q 47.65625 37.796875 51.625 33 
Q 55.609375 28.21875 55.609375 21.1875 
Q 55.609375 10.40625 48.1875 4.484375 
Q 40.765625 -1.421875 27.09375 -1.421875 
Q 22.515625 -1.421875 17.65625 -0.515625 
Q 12.796875 0.390625 7.625 2.203125 
L 7.625 11.71875 
Q 11.71875 9.328125 16.59375 8.109375 
Q 21.484375 6.890625 26.8125 6.890625 
Q 36.078125 6.890625 40.9375 10.546875 
Q 45.796875 14.203125 45.796875 21.1875 
Q 45.796875 27.640625 41.28125 31.265625 
Q 36.765625 34.90625 28.71875 34.90625 
L 20.21875 34.90625 
L 20.21875 43.015625 
L 29.109375 43.015625 
Q 36.375 43.015625 40.234375 45.921875 
Q 44.09375 48.828125 44.09375 54.296875 
Q 44.09375 59.90625 40.109375 62.90625 
Q 36.140625 65.921875 28.71875 65.921875 
Q 24.65625 65.921875 20.015625 65.03125 
Q 15.375 64.15625 9.8125 62.3125 
L 9.8125 71.09375 
Q 15.4375 72.65625 20.34375 73.4375 
Q 25.25 74.21875 29.59375 74.21875 
Q 40.828125 74.21875 47.359375 69.109375 
Q 53.90625 64.015625 53.90625 55.328125 
Q 53.90625 49.265625 50.4375 45.09375 
Q 46.96875 40.921875 40.578125 39.3125 
z
" id="DejaVuSans-51"/>
      <path d="M 8.203125 72.90625 
L 55.078125 72.90625 
L 55.078125 68.703125 
L 28.609375 0 
L 18.3125 0 
L 43.21875 64.59375 
L 8.203125 64.59375 
z
" id="DejaVuSans-55"/>
      <path d="M 19.671875 64.796875 
L 19.671875 8.109375 
L 31.59375 8.109375 
Q 46.6875 8.109375 53.6875 14.9375 
Q 60.6875 21.78125 60.6875 36.53125 
Q 60.6875 51.171875 53.6875 57.984375 
Q 46.6875 64.796875 31.59375 64.796875 
z
M 9.8125 72.90625 
L 30.078125 72.90625 
Q 51.265625 72.90625 61.171875 64.09375 
Q 71.09375 55.28125 71.09375 36.53125 
Q 71.09375 17.671875 61.125 8.828125 
Q 51.171875 0 30.078125 0 
L 9.8125 0 
z
" id="DejaVuSans-68"/>
     </defs>
     <use xlink:href="#DejaVuSans-102"/>
     <use x="35.205078" xlink:href="#DejaVuSans-49"/>
     <use x="98.828125" xlink:href="#DejaVuSans-57"/>
     <use x="162.451172" xlink:href="#DejaVuSans-44"/>
     <use x="194.238281" xlink:href="#DejaVuSans-32"/>
     <use x="226.025391" xlink:href="#DejaVuSans-102"/>
     <use x="261.230469" xlink:href="#DejaVuSans-50"/>
     <use x="324.853516" xlink:href="#DejaVuSans-53"/>
     <use x="388.476562" xlink:href="#DejaVuSans-44"/>
     <use x="420.263672" xlink:href="#DejaVuSans-32"/>
     <use x="452.050781" xlink:href="#DejaVuSans-102"/>
     <use x="487.255859" xlink:href="#DejaVuSans-51"/>
     <use x="550.878906" xlink:href="#DejaVuSans-49"/>
     <use x="614.501953" xlink:href="#DejaVuSans-44"/>
     <use x="646.289062" xlink:href="#DejaVuSans-32"/>
     <use x="678.076172" xlink:href="#DejaVuSans-102"/>
     <use x="713.28125" xlink:href="#DejaVuSans-51"/>
     <use x="776.904297" xlink:href="#DejaVuSans-55"/>
     <use x="840.527344" xlink:href="#DejaVuSans-44"/>
     <use x="872.314453" xlink:href="#DejaVuSans-50"/>
     <use x="935.9375" xlink:href="#DejaVuSans-48"/>
     <use x="999.560547" xlink:href="#DejaVuSans-45"/>
     <use x="1035.644531" xlink:href="#DejaVuSans-68"/>
    </g>
   </g>
   <g id="text_6">
    <!-- v2.4.159 -->
    <g style="fill:#808080;" transform="translate(221.63225 286.317512)scale(0.1 -0.1)">
     <defs>
      <path d="M 10.6875 12.40625 
L 21 12.40625 
L 21 0 
L 10.6875 0 
z
" id="DejaVuSans-46"/>
      <path d="M 37.796875 64.3125 
L 12.890625 25.390625 
L 37.796875 25.390625 
z
M 35.203125 72.90625 
L 47.609375 72.90625 
L 47.609375 25.390625 
L 58.015625 25.390625 
L 58.015625 17.1875 
L 47.609375 17.1875 
L 47.609375 0 
L 37.796875 0 
L 37.796875 17.1875 
L 4.890625 17.1875 
L 4.890625 26.703125 
z
" id="DejaVuSans-52"/>
     </defs>
     <use xlink:href="#DejaVuSans-118"/>
     <use x="59.179688" xlink:href="#DejaVuSans-50"/>
     <use x="122.802734" xlink:href="#DejaVuSans-46"/>
     <use x="154.589844" xlink:href="#DejaVuSans-52"/>
     <use x="218.212891" xlink:href="#DejaVuSans-46"/>
     <use x="250" xlink:href="#DejaVuSans-49"/>
     <use x="313.623047" xlink:href="#DejaVuSans-53"/>
     <use x="377.246094" xlink:href="#DejaVuSans-57"/>
    </g>
   </g>
   <g id="legend_1">
    <g id="patch_7">
     <path d="M 48.16 136.425 
L 177.381875 136.425 
Q 181.381875 136.425 181.381875 132.425 
L 181.381875 17 
Q 181.381875 13 177.381875 13 
L 48.16 13 
Q 44.16 13 44.16 17 
L 44.16 132.425 
Q 44.16 136.425 48.16 136.425 
z
" style="fill:#ffffff;opacity:0.2;stroke:#cccccc;stroke-linejoin:miter;"/>
    </g>
    <g id="line2d_63">
     <path d="M 52.16 29.196875 
L 92.16 29.196875 
" style="fill:none;stroke:#000000;stroke-linecap:square;stroke-width:3;"/>
    </g>
    <g id="line2d_64"/>
    <g id="text_7">
     <!-- 1: 4/4 -->
     <g transform="translate(108.16 36.196875)scale(0.2 -0.2)">
      <defs>
       <path d="M 11.71875 12.40625 
L 22.015625 12.40625 
L 22.015625 0 
L 11.71875 0 
z
M 11.71875 51.703125 
L 22.015625 51.703125 
L 22.015625 39.3125 
L 11.71875 39.3125 
z
" id="DejaVuSans-58"/>
       <path d="M 25.390625 72.90625 
L 33.6875 72.90625 
L 8.296875 -9.28125 
L 0 -9.28125 
z
" id="DejaVuSans-47"/>
      </defs>
      <use xlink:href="#DejaVuSans-49"/>
      <use x="63.623047" xlink:href="#DejaVuSans-58"/>
      <use x="97.314453" xlink:href="#DejaVuSans-32"/>
      <use x="129.101562" xlink:href="#DejaVuSans-52"/>
      <use x="192.724609" xlink:href="#DejaVuSans-47"/>
      <use x="226.416016" xlink:href="#DejaVuSans-52"/>
     </g>
    </g>
    <g id="line2d_65">
     <path d="M 52.16 58.553125 
L 92.16 58.553125 
" style="fill:none;stroke:#00bfbf;stroke-linecap:square;stroke-width:3;"/>
    </g>
    <g id="line2d_66"/>
    <g id="text_8">
     <!-- -1: 3/4 -->
     <g transform="translate(108.16 65.553125)scale(0.2 -0.2)">
      <use xlink:href="#DejaVuSans-45"/>
      <use x="36.083984" xlink:href="#DejaVuSans-49"/>
      <use x="99.707031" xlink:href="#DejaVuSans-58"/>
      <use x="133.398438" xlink:href="#DejaVuSans-32"/>
      <use x="165.185547" xlink:href="#DejaVuSans-51"/>
      <use x="228.808594" xlink:href="#DejaVuSans-47"/>
      <use x="262.5" xlink:href="#DejaVuSans-52"/>
     </g>
    </g>
    <g id="line2d_67">
     <path d="M 52.16 87.909375 
L 92.16 87.909375 
" style="fill:none;stroke:#bf00bf;stroke-linecap:square;stroke-width:3;"/>
    </g>
    <g id="line2d_68"/>
    <g id="text_9">
     <!-- -4: 1/3 -->
     <g transform="translate(108.16 94.909375)scale(0.2 -0.2)">
      <use xlink:href="#DejaVuSans-45"/>
      <use x="36.083984" xlink:href="#DejaVuSans-52"/>
      <use x="99.707031" xlink:href="#DejaVuSans-58"/>
      <use x="133.398438" xlink:href="#DejaVuSans-32"/>
      <use x="165.185547" xlink:href="#DejaVuSans-49"/>
      <use x="228.808594" xlink:href="#DejaVuSans-47"/>
      <use x="262.5" xlink:href="#DejaVuSans-51"/>
     </g>
    </g>
    <g id="line2d_69">
     <path d="M 52.16 117.265625 
L 92.16 117.265625 
" style="fill:none;stroke:#ff0000;stroke-linecap:square;stroke-width:3;"/>
    </g>
    <g id="line2d_70"/>
    <g id="text_10">
     <!-- -6: 1/2 -->
     <g transform="translate(108.16 124.265625)scale(0.2 -0.2)">
      <defs>
       <path d="M 33.015625 40.375 
Q 26.375 40.375 22.484375 35.828125 
Q 18.609375 31.296875 18.609375 23.390625 
Q 18.609375 15.53125 22.484375 10.953125 
Q 26.375 6.390625 33.015625 6.390625 
Q 39.65625 6.390625 43.53125 10.953125 
Q 47.40625 15.53125 47.40625 23.390625 
Q 47.40625 31.296875 43.53125 35.828125 
Q 39.65625 40.375 33.015625 40.375 
z
M 52.59375 71.296875 
L 52.59375 62.3125 
Q 48.875 64.0625 45.09375 64.984375 
Q 41.3125 65.921875 37.59375 65.921875 
Q 27.828125 65.921875 22.671875 59.328125 
Q 17.53125 52.734375 16.796875 39.40625 
Q 19.671875 43.65625 24.015625 45.921875 
Q 28.375 48.1875 33.59375 48.1875 
Q 44.578125 48.1875 50.953125 41.515625 
Q 57.328125 34.859375 57.328125 23.390625 
Q 57.328125 12.15625 50.6875 5.359375 
Q 44.046875 -1.421875 33.015625 -1.421875 
Q 20.359375 -1.421875 13.671875 8.265625 
Q 6.984375 17.96875 6.984375 36.375 
Q 6.984375 53.65625 15.1875 63.9375 
Q 23.390625 74.21875 37.203125 74.21875 
Q 40.921875 74.21875 44.703125 73.484375 
Q 48.484375 72.75 52.59375 71.296875 
z
" id="DejaVuSans-54"/>
      </defs>
      <use xlink:href="#DejaVuSans-45"/>
      <use x="36.083984" xlink:href="#DejaVuSans-54"/>
      <use x="99.707031" xlink:href="#DejaVuSans-58"/>
      <use x="133.398438" xlink:href="#DejaVuSans-32"/>
      <use x="165.185547" xlink:href="#DejaVuSans-49"/>
      <use x="228.808594" xlink:href="#DejaVuSans-47"/>
      <use x="262.5" xlink:href="#DejaVuSans-50"/>
     </g>
    </g>
   </g>
  </g>
 </g>
 <defs>
  <clipPath id="p2fa00f782f">
   <rect height="288.28" width="419.032" x="34.16" y="3"/>
  </clipPath>
 </defs>
</svg>
