<?xml version="1.0" encoding="utf-8" standalone="no"?>
<!DOCTYPE svg PUBLIC "-//W3C//DTD SVG 1.1//EN"
  "http://www.w3.org/Graphics/SVG/1.1/DTD/svg11.dtd">
<!-- Created with matplotlib (https://matplotlib.org/) -->
<svg height="345.6pt" version="1.1" viewBox="0 0 460.8 345.6" width="460.8pt" xmlns="http://www.w3.org/2000/svg" xmlns:xlink="http://www.w3.org/1999/xlink">
 <metadata>
  <rdf:RDF xmlns:cc="http://creativecommons.org/ns#" xmlns:dc="http://purl.org/dc/elements/1.1/" xmlns:rdf="http://www.w3.org/1999/02/22-rdf-syntax-ns#">
   <cc:Work>
    <dc:type rdf:resource="http://purl.org/dc/dcmitype/StillImage"/>
    <dc:date>2022-02-02T15:40:13.675889</dc:date>
    <dc:format>image/svg+xml</dc:format>
    <dc:creator>
     <cc:Agent>
      <dc:title>Matplotlib v3.3.3, https://matplotlib.org/</dc:title>
     </cc:Agent>
    </dc:creator>
   </cc:Work>
  </rdf:RDF>
 </metadata>
 <defs>
  <style type="text/css">*{stroke-linecap:butt;stroke-linejoin:round;}</style>
 </defs>
 <g id="figure_1">
  <g id="patch_1">
   <path d="M 0 345.6 
L 460.8 345.6 
L 460.8 0 
L 0 0 
z
" style="fill:#ffffff;"/>
  </g>
  <g id="axes_1">
   <g id="patch_2">
    <path d="M 34.16 291.28 
L 453.192 291.28 
L 453.192 3 
L 34.16 3 
z
" style="fill:#ffffff;"/>
   </g>
   <g id="matplotlib.axis_1">
    <g id="xtick_1">
     <g id="line2d_1">
      <path clip-path="url(#pee7a3f5947)" d="M 164.647728 291.28 
L 164.647728 3 
" style="fill:none;stroke:#b0b0b0;stroke-linecap:square;stroke-width:0.8;"/>
     </g>
     <g id="line2d_2">
      <defs>
       <path d="M 0 0 
L 0 3.5 
" id="m7e325e1267" style="stroke:#000000;stroke-width:0.8;"/>
      </defs>
      <g>
       <use style="stroke:#000000;stroke-width:0.8;" x="164.647728" xlink:href="#m7e325e1267" y="291.28"/>
      </g>
     </g>
     <g id="text_1">
      <!-- -1 -->
      <g transform="translate(154.677416 313.476875)scale(0.2 -0.2)">
       <defs>
        <path d="M 4.890625 31.390625 
L 31.203125 31.390625 
L 31.203125 23.390625 
L 4.890625 23.390625 
z
" id="DejaVuSans-45"/>
        <path d="M 12.40625 8.296875 
L 28.515625 8.296875 
L 28.515625 63.921875 
L 10.984375 60.40625 
L 10.984375 69.390625 
L 28.421875 72.90625 
L 38.28125 72.90625 
L 38.28125 8.296875 
L 54.390625 8.296875 
L 54.390625 0 
L 12.40625 0 
z
" id="DejaVuSans-49"/>
       </defs>
       <use xlink:href="#DejaVuSans-45"/>
       <use x="36.083984" xlink:href="#DejaVuSans-49"/>
      </g>
     </g>
    </g>
    <g id="xtick_2">
     <g id="line2d_3">
      <path clip-path="url(#pee7a3f5947)" d="M 322.704272 291.28 
L 322.704272 3 
" style="fill:none;stroke:#b0b0b0;stroke-linecap:square;stroke-width:0.8;"/>
     </g>
     <g id="line2d_4">
      <g>
       <use style="stroke:#000000;stroke-width:0.8;" x="322.704272" xlink:href="#m7e325e1267" y="291.28"/>
      </g>
     </g>
     <g id="text_2">
      <!-- 1 -->
      <g transform="translate(316.341772 313.476875)scale(0.2 -0.2)">
       <use xlink:href="#DejaVuSans-49"/>
      </g>
     </g>
    </g>
    <g id="xtick_3">
     <g id="line2d_5">
      <defs>
       <path d="M 0 0 
L 0 2 
" id="m75545ccfff" style="stroke:#000000;stroke-width:0.6;"/>
      </defs>
      <g>
       <use style="stroke:#000000;stroke-width:0.6;" x="44.297253" xlink:href="#m75545ccfff" y="291.28"/>
      </g>
     </g>
    </g>
    <g id="xtick_4">
     <g id="line2d_6">
      <g>
       <use style="stroke:#000000;stroke-width:0.6;" x="54.170945" xlink:href="#m75545ccfff" y="291.28"/>
      </g>
     </g>
    </g>
    <g id="xtick_5">
     <g id="line2d_7">
      <g>
       <use style="stroke:#000000;stroke-width:0.6;" x="61.829576" xlink:href="#m75545ccfff" y="291.28"/>
      </g>
     </g>
    </g>
    <g id="xtick_6">
     <g id="line2d_8">
      <g>
       <use style="stroke:#000000;stroke-width:0.6;" x="68.087133" xlink:href="#m75545ccfff" y="291.28"/>
      </g>
     </g>
    </g>
    <g id="xtick_7">
     <g id="line2d_9">
      <g>
       <use style="stroke:#000000;stroke-width:0.6;" x="73.377822" xlink:href="#m75545ccfff" y="291.28"/>
      </g>
     </g>
    </g>
    <g id="xtick_8">
     <g id="line2d_10">
      <g>
       <use style="stroke:#000000;stroke-width:0.6;" x="77.960826" xlink:href="#m75545ccfff" y="291.28"/>
      </g>
     </g>
    </g>
    <g id="xtick_9">
     <g id="line2d_11">
      <g>
       <use style="stroke:#000000;stroke-width:0.6;" x="82.003321" xlink:href="#m75545ccfff" y="291.28"/>
      </g>
     </g>
    </g>
    <g id="xtick_10">
     <g id="line2d_12">
      <g>
       <use style="stroke:#000000;stroke-width:0.6;" x="109.409337" xlink:href="#m75545ccfff" y="291.28"/>
      </g>
     </g>
    </g>
    <g id="xtick_11">
     <g id="line2d_13">
      <g>
       <use style="stroke:#000000;stroke-width:0.6;" x="123.325525" xlink:href="#m75545ccfff" y="291.28"/>
      </g>
     </g>
    </g>
    <g id="xtick_12">
     <g id="line2d_14">
      <g>
       <use style="stroke:#000000;stroke-width:0.6;" x="133.199217" xlink:href="#m75545ccfff" y="291.28"/>
      </g>
     </g>
    </g>
    <g id="xtick_13">
     <g id="line2d_15">
      <g>
       <use style="stroke:#000000;stroke-width:0.6;" x="140.857848" xlink:href="#m75545ccfff" y="291.28"/>
      </g>
     </g>
    </g>
    <g id="xtick_14">
     <g id="line2d_16">
      <g>
       <use style="stroke:#000000;stroke-width:0.6;" x="147.115405" xlink:href="#m75545ccfff" y="291.28"/>
      </g>
     </g>
    </g>
    <g id="xtick_15">
     <g id="line2d_17">
      <g>
       <use style="stroke:#000000;stroke-width:0.6;" x="152.406094" xlink:href="#m75545ccfff" y="291.28"/>
      </g>
     </g>
    </g>
    <g id="xtick_16">
     <g id="line2d_18">
      <g>
       <use style="stroke:#000000;stroke-width:0.6;" x="156.989097" xlink:href="#m75545ccfff" y="291.28"/>
      </g>
     </g>
    </g>
    <g id="xtick_17">
     <g id="line2d_19">
      <g>
       <use style="stroke:#000000;stroke-width:0.6;" x="161.031593" xlink:href="#m75545ccfff" y="291.28"/>
      </g>
     </g>
    </g>
    <g id="xtick_18">
     <g id="line2d_20">
      <g>
       <use style="stroke:#000000;stroke-width:0.6;" x="188.437609" xlink:href="#m75545ccfff" y="291.28"/>
      </g>
     </g>
    </g>
    <g id="xtick_19">
     <g id="line2d_21">
      <g>
       <use style="stroke:#000000;stroke-width:0.6;" x="202.353796" xlink:href="#m75545ccfff" y="291.28"/>
      </g>
     </g>
    </g>
    <g id="xtick_20">
     <g id="line2d_22">
      <g>
       <use style="stroke:#000000;stroke-width:0.6;" x="212.227489" xlink:href="#m75545ccfff" y="291.28"/>
      </g>
     </g>
    </g>
    <g id="xtick_21">
     <g id="line2d_23">
      <g>
       <use style="stroke:#000000;stroke-width:0.6;" x="219.88612" xlink:href="#m75545ccfff" y="291.28"/>
      </g>
     </g>
    </g>
    <g id="xtick_22">
     <g id="line2d_24">
      <g>
       <use style="stroke:#000000;stroke-width:0.6;" x="226.143677" xlink:href="#m75545ccfff" y="291.28"/>
      </g>
     </g>
    </g>
    <g id="xtick_23">
     <g id="line2d_25">
      <g>
       <use style="stroke:#000000;stroke-width:0.6;" x="231.434366" xlink:href="#m75545ccfff" y="291.28"/>
      </g>
     </g>
    </g>
    <g id="xtick_24">
     <g id="line2d_26">
      <g>
       <use style="stroke:#000000;stroke-width:0.6;" x="236.017369" xlink:href="#m75545ccfff" y="291.28"/>
      </g>
     </g>
    </g>
    <g id="xtick_25">
     <g id="line2d_27">
      <g>
       <use style="stroke:#000000;stroke-width:0.6;" x="240.059865" xlink:href="#m75545ccfff" y="291.28"/>
      </g>
     </g>
    </g>
    <g id="xtick_26">
     <g id="line2d_28">
      <g>
       <use style="stroke:#000000;stroke-width:0.6;" x="267.46588" xlink:href="#m75545ccfff" y="291.28"/>
      </g>
     </g>
    </g>
    <g id="xtick_27">
     <g id="line2d_29">
      <g>
       <use style="stroke:#000000;stroke-width:0.6;" x="281.382068" xlink:href="#m75545ccfff" y="291.28"/>
      </g>
     </g>
    </g>
    <g id="xtick_28">
     <g id="line2d_30">
      <g>
       <use style="stroke:#000000;stroke-width:0.6;" x="291.255761" xlink:href="#m75545ccfff" y="291.28"/>
      </g>
     </g>
    </g>
    <g id="xtick_29">
     <g id="line2d_31">
      <g>
       <use style="stroke:#000000;stroke-width:0.6;" x="298.914391" xlink:href="#m75545ccfff" y="291.28"/>
      </g>
     </g>
    </g>
    <g id="xtick_30">
     <g id="line2d_32">
      <g>
       <use style="stroke:#000000;stroke-width:0.6;" x="305.171948" xlink:href="#m75545ccfff" y="291.28"/>
      </g>
     </g>
    </g>
    <g id="xtick_31">
     <g id="line2d_33">
      <g>
       <use style="stroke:#000000;stroke-width:0.6;" x="310.462638" xlink:href="#m75545ccfff" y="291.28"/>
      </g>
     </g>
    </g>
    <g id="xtick_32">
     <g id="line2d_34">
      <g>
       <use style="stroke:#000000;stroke-width:0.6;" x="315.045641" xlink:href="#m75545ccfff" y="291.28"/>
      </g>
     </g>
    </g>
    <g id="xtick_33">
     <g id="line2d_35">
      <g>
       <use style="stroke:#000000;stroke-width:0.6;" x="319.088136" xlink:href="#m75545ccfff" y="291.28"/>
      </g>
     </g>
    </g>
    <g id="xtick_34">
     <g id="line2d_36">
      <g>
       <use style="stroke:#000000;stroke-width:0.6;" x="346.494152" xlink:href="#m75545ccfff" y="291.28"/>
      </g>
     </g>
    </g>
    <g id="xtick_35">
     <g id="line2d_37">
      <g>
       <use style="stroke:#000000;stroke-width:0.6;" x="360.41034" xlink:href="#m75545ccfff" y="291.28"/>
      </g>
     </g>
    </g>
    <g id="xtick_36">
     <g id="line2d_38">
      <g>
       <use style="stroke:#000000;stroke-width:0.6;" x="370.284032" xlink:href="#m75545ccfff" y="291.28"/>
      </g>
     </g>
    </g>
    <g id="xtick_37">
     <g id="line2d_39">
      <g>
       <use style="stroke:#000000;stroke-width:0.6;" x="377.942663" xlink:href="#m75545ccfff" y="291.28"/>
      </g>
     </g>
    </g>
    <g id="xtick_38">
     <g id="line2d_40">
      <g>
       <use style="stroke:#000000;stroke-width:0.6;" x="384.20022" xlink:href="#m75545ccfff" y="291.28"/>
      </g>
     </g>
    </g>
    <g id="xtick_39">
     <g id="line2d_41">
      <g>
       <use style="stroke:#000000;stroke-width:0.6;" x="389.490909" xlink:href="#m75545ccfff" y="291.28"/>
      </g>
     </g>
    </g>
    <g id="xtick_40">
     <g id="line2d_42">
      <g>
       <use style="stroke:#000000;stroke-width:0.6;" x="394.073913" xlink:href="#m75545ccfff" y="291.28"/>
      </g>
     </g>
    </g>
    <g id="xtick_41">
     <g id="line2d_43">
      <g>
       <use style="stroke:#000000;stroke-width:0.6;" x="398.116408" xlink:href="#m75545ccfff" y="291.28"/>
      </g>
     </g>
    </g>
    <g id="xtick_42">
     <g id="line2d_44">
      <g>
       <use style="stroke:#000000;stroke-width:0.6;" x="425.522424" xlink:href="#m75545ccfff" y="291.28"/>
      </g>
     </g>
    </g>
    <g id="xtick_43">
     <g id="line2d_45">
      <g>
       <use style="stroke:#000000;stroke-width:0.6;" x="439.438612" xlink:href="#m75545ccfff" y="291.28"/>
      </g>
     </g>
    </g>
    <g id="xtick_44">
     <g id="line2d_46">
      <g>
       <use style="stroke:#000000;stroke-width:0.6;" x="449.312304" xlink:href="#m75545ccfff" y="291.28"/>
      </g>
     </g>
    </g>
    <g id="text_3">
     <!-- log10 of FEvals ratio -->
     <g transform="translate(141.371312 336.833125)scale(0.2 -0.2)">
      <defs>
       <path d="M 9.421875 75.984375 
L 18.40625 75.984375 
L 18.40625 0 
L 9.421875 0 
z
" id="DejaVuSans-108"/>
       <path d="M 30.609375 48.390625 
Q 23.390625 48.390625 19.1875 42.75 
Q 14.984375 37.109375 14.984375 27.296875 
Q 14.984375 17.484375 19.15625 11.84375 
Q 23.34375 6.203125 30.609375 6.203125 
Q 37.796875 6.203125 41.984375 11.859375 
Q 46.1875 17.53125 46.1875 27.296875 
Q 46.1875 37.015625 41.984375 42.703125 
Q 37.796875 48.390625 30.609375 48.390625 
z
M 30.609375 56 
Q 42.328125 56 49.015625 48.375 
Q 55.71875 40.765625 55.71875 27.296875 
Q 55.71875 13.875 49.015625 6.21875 
Q 42.328125 -1.421875 30.609375 -1.421875 
Q 18.84375 -1.421875 12.171875 6.21875 
Q 5.515625 13.875 5.515625 27.296875 
Q 5.515625 40.765625 12.171875 48.375 
Q 18.84375 56 30.609375 56 
z
" id="DejaVuSans-111"/>
       <path d="M 45.40625 27.984375 
Q 45.40625 37.75 41.375 43.109375 
Q 37.359375 48.484375 30.078125 48.484375 
Q 22.859375 48.484375 18.828125 43.109375 
Q 14.796875 37.75 14.796875 27.984375 
Q 14.796875 18.265625 18.828125 12.890625 
Q 22.859375 7.515625 30.078125 7.515625 
Q 37.359375 7.515625 41.375 12.890625 
Q 45.40625 18.265625 45.40625 27.984375 
z
M 54.390625 6.78125 
Q 54.390625 -7.171875 48.1875 -13.984375 
Q 42 -20.796875 29.203125 -20.796875 
Q 24.46875 -20.796875 20.265625 -20.09375 
Q 16.0625 -19.390625 12.109375 -17.921875 
L 12.109375 -9.1875 
Q 16.0625 -11.328125 19.921875 -12.34375 
Q 23.78125 -13.375 27.78125 -13.375 
Q 36.625 -13.375 41.015625 -8.765625 
Q 45.40625 -4.15625 45.40625 5.171875 
L 45.40625 9.625 
Q 42.625 4.78125 38.28125 2.390625 
Q 33.9375 0 27.875 0 
Q 17.828125 0 11.671875 7.65625 
Q 5.515625 15.328125 5.515625 27.984375 
Q 5.515625 40.671875 11.671875 48.328125 
Q 17.828125 56 27.875 56 
Q 33.9375 56 38.28125 53.609375 
Q 42.625 51.21875 45.40625 46.390625 
L 45.40625 54.6875 
L 54.390625 54.6875 
z
" id="DejaVuSans-103"/>
       <path d="M 31.78125 66.40625 
Q 24.171875 66.40625 20.328125 58.90625 
Q 16.5 51.421875 16.5 36.375 
Q 16.5 21.390625 20.328125 13.890625 
Q 24.171875 6.390625 31.78125 6.390625 
Q 39.453125 6.390625 43.28125 13.890625 
Q 47.125 21.390625 47.125 36.375 
Q 47.125 51.421875 43.28125 58.90625 
Q 39.453125 66.40625 31.78125 66.40625 
z
M 31.78125 74.21875 
Q 44.046875 74.21875 50.515625 64.515625 
Q 56.984375 54.828125 56.984375 36.375 
Q 56.984375 17.96875 50.515625 8.265625 
Q 44.046875 -1.421875 31.78125 -1.421875 
Q 19.53125 -1.421875 13.0625 8.265625 
Q 6.59375 17.96875 6.59375 36.375 
Q 6.59375 54.828125 13.0625 64.515625 
Q 19.53125 74.21875 31.78125 74.21875 
z
" id="DejaVuSans-48"/>
       <path id="DejaVuSans-32"/>
       <path d="M 37.109375 75.984375 
L 37.109375 68.5 
L 28.515625 68.5 
Q 23.6875 68.5 21.796875 66.546875 
Q 19.921875 64.59375 19.921875 59.515625 
L 19.921875 54.6875 
L 34.71875 54.6875 
L 34.71875 47.703125 
L 19.921875 47.703125 
L 19.921875 0 
L 10.890625 0 
L 10.890625 47.703125 
L 2.296875 47.703125 
L 2.296875 54.6875 
L 10.890625 54.6875 
L 10.890625 58.5 
Q 10.890625 67.625 15.140625 71.796875 
Q 19.390625 75.984375 28.609375 75.984375 
z
" id="DejaVuSans-102"/>
       <path d="M 9.8125 72.90625 
L 51.703125 72.90625 
L 51.703125 64.59375 
L 19.671875 64.59375 
L 19.671875 43.109375 
L 48.578125 43.109375 
L 48.578125 34.8125 
L 19.671875 34.8125 
L 19.671875 0 
L 9.8125 0 
z
" id="DejaVuSans-70"/>
       <path d="M 9.8125 72.90625 
L 55.90625 72.90625 
L 55.90625 64.59375 
L 19.671875 64.59375 
L 19.671875 43.015625 
L 54.390625 43.015625 
L 54.390625 34.71875 
L 19.671875 34.71875 
L 19.671875 8.296875 
L 56.78125 8.296875 
L 56.78125 0 
L 9.8125 0 
z
" id="DejaVuSans-69"/>
       <path d="M 2.984375 54.6875 
L 12.5 54.6875 
L 29.59375 8.796875 
L 46.6875 54.6875 
L 56.203125 54.6875 
L 35.6875 0 
L 23.484375 0 
z
" id="DejaVuSans-118"/>
       <path d="M 34.28125 27.484375 
Q 23.390625 27.484375 19.1875 25 
Q 14.984375 22.515625 14.984375 16.5 
Q 14.984375 11.71875 18.140625 8.90625 
Q 21.296875 6.109375 26.703125 6.109375 
Q 34.1875 6.109375 38.703125 11.40625 
Q 43.21875 16.703125 43.21875 25.484375 
L 43.21875 27.484375 
z
M 52.203125 31.203125 
L 52.203125 0 
L 43.21875 0 
L 43.21875 8.296875 
Q 40.140625 3.328125 35.546875 0.953125 
Q 30.953125 -1.421875 24.3125 -1.421875 
Q 15.921875 -1.421875 10.953125 3.296875 
Q 6 8.015625 6 15.921875 
Q 6 25.140625 12.171875 29.828125 
Q 18.359375 34.515625 30.609375 34.515625 
L 43.21875 34.515625 
L 43.21875 35.40625 
Q 43.21875 41.609375 39.140625 45 
Q 35.0625 48.390625 27.6875 48.390625 
Q 23 48.390625 18.546875 47.265625 
Q 14.109375 46.140625 10.015625 43.890625 
L 10.015625 52.203125 
Q 14.9375 54.109375 19.578125 55.046875 
Q 24.21875 56 28.609375 56 
Q 40.484375 56 46.34375 49.84375 
Q 52.203125 43.703125 52.203125 31.203125 
z
" id="DejaVuSans-97"/>
       <path d="M 44.28125 53.078125 
L 44.28125 44.578125 
Q 40.484375 46.53125 36.375 47.5 
Q 32.28125 48.484375 27.875 48.484375 
Q 21.1875 48.484375 17.84375 46.4375 
Q 14.5 44.390625 14.5 40.28125 
Q 14.5 37.15625 16.890625 35.375 
Q 19.28125 33.59375 26.515625 31.984375 
L 29.59375 31.296875 
Q 39.15625 29.25 43.1875 25.515625 
Q 47.21875 21.78125 47.21875 15.09375 
Q 47.21875 7.46875 41.1875 3.015625 
Q 35.15625 -1.421875 24.609375 -1.421875 
Q 20.21875 -1.421875 15.453125 -0.5625 
Q 10.6875 0.296875 5.421875 2 
L 5.421875 11.28125 
Q 10.40625 8.6875 15.234375 7.390625 
Q 20.0625 6.109375 24.8125 6.109375 
Q 31.15625 6.109375 34.5625 8.28125 
Q 37.984375 10.453125 37.984375 14.40625 
Q 37.984375 18.0625 35.515625 20.015625 
Q 33.0625 21.96875 24.703125 23.78125 
L 21.578125 24.515625 
Q 13.234375 26.265625 9.515625 29.90625 
Q 5.8125 33.546875 5.8125 39.890625 
Q 5.8125 47.609375 11.28125 51.796875 
Q 16.75 56 26.8125 56 
Q 31.78125 56 36.171875 55.265625 
Q 40.578125 54.546875 44.28125 53.078125 
z
" id="DejaVuSans-115"/>
       <path d="M 41.109375 46.296875 
Q 39.59375 47.171875 37.8125 47.578125 
Q 36.03125 48 33.890625 48 
Q 26.265625 48 22.1875 43.046875 
Q 18.109375 38.09375 18.109375 28.8125 
L 18.109375 0 
L 9.078125 0 
L 9.078125 54.6875 
L 18.109375 54.6875 
L 18.109375 46.1875 
Q 20.953125 51.171875 25.484375 53.578125 
Q 30.03125 56 36.53125 56 
Q 37.453125 56 38.578125 55.875 
Q 39.703125 55.765625 41.0625 55.515625 
z
" id="DejaVuSans-114"/>
       <path d="M 18.3125 70.21875 
L 18.3125 54.6875 
L 36.8125 54.6875 
L 36.8125 47.703125 
L 18.3125 47.703125 
L 18.3125 18.015625 
Q 18.3125 11.328125 20.140625 9.421875 
Q 21.96875 7.515625 27.59375 7.515625 
L 36.8125 7.515625 
L 36.8125 0 
L 27.59375 0 
Q 17.1875 0 13.234375 3.875 
Q 9.28125 7.765625 9.28125 18.015625 
L 9.28125 47.703125 
L 2.6875 47.703125 
L 2.6875 54.6875 
L 9.28125 54.6875 
L 9.28125 70.21875 
z
" id="DejaVuSans-116"/>
       <path d="M 9.421875 54.6875 
L 18.40625 54.6875 
L 18.40625 0 
L 9.421875 0 
z
M 9.421875 75.984375 
L 18.40625 75.984375 
L 18.40625 64.59375 
L 9.421875 64.59375 
z
" id="DejaVuSans-105"/>
      </defs>
      <use xlink:href="#DejaVuSans-108"/>
      <use x="27.783203" xlink:href="#DejaVuSans-111"/>
      <use x="88.964844" xlink:href="#DejaVuSans-103"/>
      <use x="152.441406" xlink:href="#DejaVuSans-49"/>
      <use x="216.064453" xlink:href="#DejaVuSans-48"/>
      <use x="279.6875" xlink:href="#DejaVuSans-32"/>
      <use x="311.474609" xlink:href="#DejaVuSans-111"/>
      <use x="372.65625" xlink:href="#DejaVuSans-102"/>
      <use x="407.861328" xlink:href="#DejaVuSans-32"/>
      <use x="439.648438" xlink:href="#DejaVuSans-70"/>
      <use x="497.167969" xlink:href="#DejaVuSans-69"/>
      <use x="560.351562" xlink:href="#DejaVuSans-118"/>
      <use x="619.53125" xlink:href="#DejaVuSans-97"/>
      <use x="680.810547" xlink:href="#DejaVuSans-108"/>
      <use x="708.59375" xlink:href="#DejaVuSans-115"/>
      <use x="760.693359" xlink:href="#DejaVuSans-32"/>
      <use x="792.480469" xlink:href="#DejaVuSans-114"/>
      <use x="833.59375" xlink:href="#DejaVuSans-97"/>
      <use x="894.873047" xlink:href="#DejaVuSans-116"/>
      <use x="934.082031" xlink:href="#DejaVuSans-105"/>
      <use x="961.865234" xlink:href="#DejaVuSans-111"/>
     </g>
    </g>
   </g>
   <g id="matplotlib.axis_2">
    <g id="ytick_1">
     <g id="line2d_47">
      <path clip-path="url(#pee7a3f5947)" d="M 34.16 288.453725 
L 453.192 288.453725 
" style="fill:none;stroke:#b0b0b0;stroke-linecap:square;stroke-width:0.8;"/>
     </g>
     <g id="line2d_48">
      <defs>
       <path d="M 0 0 
L -3.5 0 
" id="m3a457857ee" style="stroke:#000000;stroke-width:0.8;"/>
      </defs>
      <g>
       <use style="stroke:#000000;stroke-width:0.8;" x="34.16" xlink:href="#m3a457857ee" y="288.453725"/>
      </g>
     </g>
    </g>
    <g id="ytick_2">
     <g id="line2d_49">
      <path clip-path="url(#pee7a3f5947)" d="M 34.16 217.796863 
L 453.192 217.796863 
" style="fill:none;stroke:#b0b0b0;stroke-linecap:square;stroke-width:0.8;"/>
     </g>
     <g id="line2d_50">
      <g>
       <use style="stroke:#000000;stroke-width:0.8;" x="34.16" xlink:href="#m3a457857ee" y="217.796863"/>
      </g>
     </g>
    </g>
    <g id="ytick_3">
     <g id="line2d_51">
      <path clip-path="url(#pee7a3f5947)" d="M 34.16 147.14 
L 453.192 147.14 
" style="fill:none;stroke:#b0b0b0;stroke-linecap:square;stroke-width:0.8;"/>
     </g>
     <g id="line2d_52">
      <g>
       <use style="stroke:#000000;stroke-width:0.8;" x="34.16" xlink:href="#m3a457857ee" y="147.14"/>
      </g>
     </g>
    </g>
    <g id="ytick_4">
     <g id="line2d_53">
      <path clip-path="url(#pee7a3f5947)" d="M 34.16 76.483137 
L 453.192 76.483137 
" style="fill:none;stroke:#b0b0b0;stroke-linecap:square;stroke-width:0.8;"/>
     </g>
     <g id="line2d_54">
      <g>
       <use style="stroke:#000000;stroke-width:0.8;" x="34.16" xlink:href="#m3a457857ee" y="76.483137"/>
      </g>
     </g>
    </g>
    <g id="ytick_5">
     <g id="line2d_55">
      <path clip-path="url(#pee7a3f5947)" d="M 34.16 5.826275 
L 453.192 5.826275 
" style="fill:none;stroke:#b0b0b0;stroke-linecap:square;stroke-width:0.8;"/>
     </g>
     <g id="line2d_56">
      <g>
       <use style="stroke:#000000;stroke-width:0.8;" x="34.16" xlink:href="#m3a457857ee" y="5.826275"/>
      </g>
     </g>
    </g>
    <g id="text_4">
     <!-- proportion of trials -->
     <g transform="translate(19.000625 240.14625)rotate(-90)scale(0.2 -0.2)">
      <defs>
       <path d="M 18.109375 8.203125 
L 18.109375 -20.796875 
L 9.078125 -20.796875 
L 9.078125 54.6875 
L 18.109375 54.6875 
L 18.109375 46.390625 
Q 20.953125 51.265625 25.265625 53.625 
Q 29.59375 56 35.59375 56 
Q 45.5625 56 51.78125 48.09375 
Q 58.015625 40.1875 58.015625 27.296875 
Q 58.015625 14.40625 51.78125 6.484375 
Q 45.5625 -1.421875 35.59375 -1.421875 
Q 29.59375 -1.421875 25.265625 0.953125 
Q 20.953125 3.328125 18.109375 8.203125 
z
M 48.6875 27.296875 
Q 48.6875 37.203125 44.609375 42.84375 
Q 40.53125 48.484375 33.40625 48.484375 
Q 26.265625 48.484375 22.1875 42.84375 
Q 18.109375 37.203125 18.109375 27.296875 
Q 18.109375 17.390625 22.1875 11.75 
Q 26.265625 6.109375 33.40625 6.109375 
Q 40.53125 6.109375 44.609375 11.75 
Q 48.6875 17.390625 48.6875 27.296875 
z
" id="DejaVuSans-112"/>
       <path d="M 54.890625 33.015625 
L 54.890625 0 
L 45.90625 0 
L 45.90625 32.71875 
Q 45.90625 40.484375 42.875 44.328125 
Q 39.84375 48.1875 33.796875 48.1875 
Q 26.515625 48.1875 22.3125 43.546875 
Q 18.109375 38.921875 18.109375 30.90625 
L 18.109375 0 
L 9.078125 0 
L 9.078125 54.6875 
L 18.109375 54.6875 
L 18.109375 46.1875 
Q 21.34375 51.125 25.703125 53.5625 
Q 30.078125 56 35.796875 56 
Q 45.21875 56 50.046875 50.171875 
Q 54.890625 44.34375 54.890625 33.015625 
z
" id="DejaVuSans-110"/>
      </defs>
      <use xlink:href="#DejaVuSans-112"/>
      <use x="63.476562" xlink:href="#DejaVuSans-114"/>
      <use x="102.339844" xlink:href="#DejaVuSans-111"/>
      <use x="163.521484" xlink:href="#DejaVuSans-112"/>
      <use x="226.998047" xlink:href="#DejaVuSans-111"/>
      <use x="288.179688" xlink:href="#DejaVuSans-114"/>
      <use x="329.292969" xlink:href="#DejaVuSans-116"/>
      <use x="368.501953" xlink:href="#DejaVuSans-105"/>
      <use x="396.285156" xlink:href="#DejaVuSans-111"/>
      <use x="457.466797" xlink:href="#DejaVuSans-110"/>
      <use x="520.845703" xlink:href="#DejaVuSans-32"/>
      <use x="552.632812" xlink:href="#DejaVuSans-111"/>
      <use x="613.814453" xlink:href="#DejaVuSans-102"/>
      <use x="649.019531" xlink:href="#DejaVuSans-32"/>
      <use x="680.806641" xlink:href="#DejaVuSans-116"/>
      <use x="720.015625" xlink:href="#DejaVuSans-114"/>
      <use x="761.128906" xlink:href="#DejaVuSans-105"/>
      <use x="788.912109" xlink:href="#DejaVuSans-97"/>
      <use x="850.191406" xlink:href="#DejaVuSans-108"/>
      <use x="877.974609" xlink:href="#DejaVuSans-115"/>
     </g>
    </g>
   </g>
   <g id="line2d_57">
    <path clip-path="url(#pee7a3f5947)" d="M 34.16 288.453725 
L 169.98421 288.453725 
L 169.98421 288.035018 
L 170.325721 288.035018 
L 170.325721 287.197603 
L 170.663867 287.197603 
L 170.663867 286.778896 
L 170.998714 286.778896 
L 170.998714 286.360189 
L 172.306359 286.360189 
L 172.306359 285.941481 
L 174.481302 285.941481 
L 174.481302 285.522774 
L 174.781055 285.522774 
L 174.781055 285.104067 
L 176.241767 285.104067 
L 176.241767 284.685359 
L 176.526595 284.685359 
L 176.526595 284.266652 
L 177.642841 284.266652 
L 177.642841 283.847945 
L 178.187639 283.847945 
L 178.187639 283.429237 
L 181.286422 283.429237 
L 181.286422 283.01053 
L 183.670821 283.01053 
L 183.670821 282.591823 
L 184.128449 282.591823 
L 184.128449 282.173115 
L 187.124511 282.173115 
L 187.124511 281.754408 
L 187.466021 281.754408 
L 187.466021 280.916993 
L 187.804167 280.916993 
L 187.804167 280.498286 
L 188.139014 280.498286 
L 188.139014 280.079579 
L 189.44666 280.079579 
L 189.44666 279.660871 
L 191.621603 279.660871 
L 191.621603 279.242164 
L 191.921356 279.242164 
L 191.921356 278.823457 
L 193.382068 278.823457 
L 193.382068 278.404749 
L 193.666895 278.404749 
L 193.666895 277.986042 
L 194.783141 277.986042 
L 194.783141 277.567335 
L 195.327939 277.567335 
L 195.327939 277.148627 
L 196.182151 277.148627 
L 196.182151 276.72992 
L 196.523661 276.72992 
L 196.523661 275.892505 
L 196.861807 275.892505 
L 196.861807 275.473798 
L 197.196654 275.473798 
L 197.196654 275.055091 
L 198.426723 275.055091 
L 198.5043 274.217676 
L 200.679243 274.217676 
L 200.679243 273.380261 
L 200.811122 273.380261 
L 200.811122 272.961554 
L 200.978996 272.961554 
L 201.020753 271.705432 
L 201.268749 271.705432 
L 201.358899 270.868017 
L 201.693746 270.868017 
L 201.693746 270.44931 
L 202.439708 270.44931 
L 202.439708 269.611895 
L 202.724535 269.611895 
L 202.781218 267.937066 
L 203.001392 267.937066 
L 203.092292 266.680944 
L 203.119364 266.680944 
L 203.119364 266.262237 
L 203.430438 266.262237 
L 203.454211 265.424822 
L 203.765285 265.424822 
L 203.840782 264.587407 
L 204.385579 264.587407 
L 204.385579 264.1687 
L 204.761857 264.1687 
L 204.761857 263.749993 
L 205.07293 263.749993 
L 205.176335 262.912578 
L 205.476088 262.912578 
L 205.476088 262.493871 
L 206.9368 262.493871 
L 206.9368 261.656456 
L 207.221627 261.656456 
L 207.247873 260.400334 
L 207.430643 260.400334 
L 207.484363 259.562919 
L 207.547627 259.562919 
L 207.547627 259.144212 
L 207.772154 259.144212 
L 207.772154 258.306797 
L 208.1103 258.306797 
L 208.1103 257.88809 
L 208.337874 257.88809 
L 208.445147 257.050675 
L 208.697265 257.050675 
L 208.697265 256.631968 
L 208.882671 256.631968 
L 208.982092 255.794553 
L 209.008338 255.794553 
L 209.008338 255.375846 
L 209.293166 255.375846 
L 209.293166 254.957139 
L 209.752793 254.957139 
L 209.752793 254.538431 
L 209.868762 254.538431 
L 209.868762 254.119724 
L 210.098339 254.119724 
L 210.098339 253.282309 
L 210.32639 253.282309 
L 210.409412 252.444895 
L 210.439849 252.444895 
L 210.439849 251.60748 
L 210.643136 251.60748 
L 210.643136 251.188773 
L 210.777995 251.188773 
L 210.777995 250.770065 
L 210.95421 250.770065 
L 210.95421 250.351358 
L 211.112842 250.351358 
L 211.112842 249.932651 
L 211.927735 249.932651 
L 211.981455 249.095236 
L 212.227489 249.095236 
L 212.227489 248.676529 
L 212.420488 248.676529 
L 212.420488 248.257821 
L 213.131655 248.257821 
L 213.131655 247.839114 
L 213.414721 247.839114 
L 213.473165 246.582992 
L 213.6882 246.582992 
L 213.756231 244.908163 
L 213.811311 244.908163 
L 213.811311 244.489455 
L 213.973028 244.489455 
L 214.052994 243.652041 
L 214.094377 243.652041 
L 214.146158 242.814626 
L 214.365854 242.814626 
L 214.429224 241.977211 
L 214.595431 241.977211 
L 214.595431 241.558504 
L 214.823482 241.558504 
L 214.895184 240.721089 
L 215.089274 240.721089 
L 215.089274 240.302382 
L 215.453804 240.302382 
L 215.453804 239.883675 
L 215.634072 239.883675 
L 215.73687 239.04626 
L 216.126319 239.04626 
L 216.126319 238.627553 
L 216.355896 238.627553 
L 216.437393 237.790138 
L 216.583947 237.790138 
L 216.640723 236.115309 
L 216.89502 236.115309 
L 216.956438 234.021772 
L 217.294584 234.021772 
L 217.294584 233.184357 
L 217.628747 233.184357 
L 217.629431 231.928235 
L 217.756969 231.928235 
L 217.756969 231.509528 
L 217.911813 231.509528 
L 217.9285 230.672113 
L 218.211566 230.672113 
L 218.301767 229.834699 
L 218.732856 229.834699 
L 218.732856 229.415991 
L 218.937076 229.415991 
L 218.937076 228.578577 
L 219.389212 228.578577 
L 219.389212 228.159869 
L 219.672278 228.159869 
L 219.674039 227.322455 
L 219.957105 227.322455 
L 219.957105 226.903747 
L 220.790286 226.903747 
L 220.790286 226.48504 
L 221.073351 226.48504 
L 221.117255 224.810211 
L 221.335083 224.810211 
L 221.411773 223.135381 
L 221.574882 223.135381 
L 221.618149 222.297967 
L 222.872484 222.297967 
L 222.872484 221.460552 
L 223.157312 221.460552 
L 223.157312 220.623137 
L 223.78495 220.623137 
L 223.78495 220.20443 
L 224.079101 220.20443 
L 224.079101 219.785723 
L 224.242577 219.785723 
L 224.273558 218.529601 
L 224.420612 218.529601 
L 224.433867 217.273479 
L 224.716933 217.273479 
L 224.818356 215.598649 
L 225.093605 215.598649 
L 225.093605 215.179942 
L 226.40125 215.179942 
L 226.40125 214.761235 
L 226.818266 214.761235 
L 226.818266 214.342527 
L 227.101332 214.342527 
L 227.101332 213.92382 
L 227.275894 213.92382 
L 227.275894 213.505113 
L 227.558959 213.505113 
L 227.558959 213.086405 
L 227.91714 213.086405 
L 227.91714 212.248991 
L 228.576193 212.248991 
L 228.576193 211.830283 
L 228.875947 211.830283 
L 228.875947 211.411576 
L 230.301539 211.411576 
L 230.336658 210.155454 
L 230.621486 210.155454 
L 230.621486 209.736747 
L 230.759166 209.736747 
L 230.759166 208.899332 
L 231.737732 208.899332 
L 231.737732 208.480625 
L 232.28253 208.480625 
L 232.28253 208.061917 
L 235.381314 208.061917 
L 235.381314 207.64321 
L 237.765713 207.64321 
L 237.765713 207.224503 
L 238.22334 207.224503 
L 238.22334 206.805795 
L 240.249154 206.805795 
L 240.249154 206.387088 
L 240.56117 206.387088 
L 240.590665 205.130966 
L 240.902681 205.130966 
L 240.928811 203.874844 
L 241.240827 203.874844 
L 241.263658 203.037429 
L 241.575674 203.037429 
L 241.575674 202.618722 
L 242.571303 202.618722 
L 242.571303 202.200015 
L 242.883319 202.200015 
L 242.883319 201.781307 
L 244.746246 201.781307 
L 244.746246 201.3626 
L 245.046 201.3626 
L 245.058262 200.525185 
L 245.358016 200.525185 
L 245.358016 200.106478 
L 245.799659 200.106478 
L 245.799659 187.545258 
L 246.506711 187.545258 
L 246.506711 187.12655 
L 246.791539 187.12655 
L 246.818727 186.289136 
L 247.103555 186.289136 
L 247.145775 141.906158 
L 247.907785 141.906158 
L 247.907785 141.487451 
L 248.219801 141.487451 
L 248.219801 141.068744 
L 248.441081 141.068744 
L 248.452583 115.527596 
L 248.764599 115.527596 
L 248.764599 115.108889 
L 251.551367 115.108889 
L 251.551367 114.690182 
L 251.863383 114.690182 
L 251.863383 114.271474 
L 253.935766 114.271474 
L 253.935766 113.852767 
L 254.247782 113.852767 
L 254.247782 113.43406 
L 254.393393 113.43406 
L 254.393393 113.015352 
L 254.705409 113.015352 
L 254.705409 112.596645 
L 259.255148 112.596645 
L 259.255148 100.035425 
L 260.170444 100.035425 
L 260.170444 87.474205 
L 261.061963 87.474205 
L 261.061963 81.193595 
L 265.202101 81.193595 
L 265.202101 74.912985 
L 265.973404 74.912985 
L 265.973404 62.351765 
L 266.727754 62.351765 
L 266.727754 56.071155 
L 268.188466 56.071155 
L 268.188466 49.790545 
L 268.896152 49.790545 
L 268.896152 37.229325 
L 270.269196 37.229325 
L 270.269196 30.948715 
L 271.589418 30.948715 
L 271.589418 24.668105 
L 274.086632 24.668105 
L 274.086632 18.387495 
L 278.594286 18.387495 
L 278.594286 12.106885 
L 279.118289 12.106885 
L 279.118289 5.826275 
L 453.192 5.826275 
L 453.192 5.826275 
" style="fill:none;stroke:#000000;stroke-linecap:square;stroke-width:3;"/>
   </g>
   <g id="line2d_58">
    <path clip-path="url(#pee7a3f5947)" style="fill:none;stroke:#000000;stroke-linecap:square;stroke-width:3;"/>
   </g>
   <g id="line2d_59">
    <path clip-path="url(#pee7a3f5947)" d="M 34.16 288.453725 
L 171.740182 288.453725 
L 171.740182 287.616311 
L 175.41163 287.616311 
L 175.41163 287.197603 
L 177.34575 287.197603 
L 177.34575 286.778896 
L 178.04384 286.778896 
L 178.04384 286.360189 
L 179.838839 286.360189 
L 179.838839 285.941481 
L 180.273295 285.941481 
L 180.273295 285.522774 
L 182.36672 285.522774 
L 182.36672 285.104067 
L 182.970634 285.104067 
L 182.970634 284.266652 
L 183.367419 284.266652 
L 183.367419 283.847945 
L 186.023449 283.847945 
L 186.023449 283.429237 
L 187.802165 283.429237 
L 187.802165 283.01053 
L 188.147108 283.01053 
L 188.147108 282.591823 
L 188.826765 282.591823 
L 188.826765 282.173115 
L 191.474335 282.173115 
L 191.474335 281.335701 
L 191.778067 281.335701 
L 191.778067 280.498286 
L 195.145783 280.498286 
L 195.145783 280.079579 
L 195.449516 280.079579 
L 195.449516 279.660871 
L 197.079903 279.660871 
L 197.079903 279.242164 
L 197.383635 279.242164 
L 197.383635 278.823457 
L 197.777992 278.823457 
L 197.777992 278.404749 
L 198.081725 278.404749 
L 198.081725 277.986042 
L 198.719675 277.986042 
L 198.719675 277.148627 
L 199.572992 277.148627 
L 199.572992 276.72992 
L 199.820183 276.72992 
L 199.876724 275.473798 
L 200.007447 275.473798 
L 200.007447 275.055091 
L 200.286094 275.055091 
L 200.31118 273.798969 
L 202.100873 273.798969 
L 202.100873 273.380261 
L 202.391123 273.380261 
L 202.404606 272.542847 
L 202.704787 272.542847 
L 202.704787 271.705432 
L 203.008519 271.705432 
L 203.101572 270.44931 
L 203.405304 270.44931 
L 203.491631 269.611895 
L 203.957542 269.611895 
L 203.957542 269.193188 
L 204.325242 269.193188 
L 204.325242 268.774481 
L 205.023332 268.774481 
L 205.023332 268.355773 
L 205.425751 268.355773 
L 205.425751 267.937066 
L 205.757602 267.937066 
L 205.757602 267.518359 
L 205.891661 267.518359 
L 205.891661 267.099651 
L 206.061334 267.099651 
L 206.12384 266.262237 
L 206.589751 266.262237 
L 206.589751 265.843529 
L 206.818331 265.843529 
L 206.818331 265.424822 
L 207.252787 265.424822 
L 207.252787 265.006115 
L 207.536318 265.006115 
L 207.536318 264.587407 
L 207.84005 264.587407 
L 207.91884 263.331285 
L 208.184993 263.331285 
L 208.184993 262.912578 
L 208.353296 262.912578 
L 208.38475 262.075163 
L 208.560918 262.075163 
L 208.560918 261.656456 
L 208.819206 261.656456 
L 208.86465 260.819041 
L 209.346213 260.819041 
L 209.346213 260.400334 
L 209.950126 260.400334 
L 210.029731 257.88809 
L 210.133736 257.88809 
L 210.133736 257.050675 
L 210.346912 257.050675 
L 210.446721 256.213261 
L 210.912632 256.213261 
L 210.912632 255.794553 
L 211.050635 255.794553 
L 211.050635 254.957139 
L 211.44742 254.957139 
L 211.516545 253.701017 
L 211.913331 253.701017 
L 211.913331 253.282309 
L 212.449636 253.282309 
L 212.449636 252.444895 
L 212.56125 252.444895 
L 212.56125 250.770065 
L 213.002941 250.770065 
L 213.002941 250.351358 
L 213.701179 250.351358 
L 213.805184 249.095236 
L 214.10345 249.095236 
L 214.10345 248.676529 
L 214.56936 248.676529 
L 214.56936 248.257821 
L 214.781658 248.257821 
L 214.781658 247.839114 
L 215.126601 247.839114 
L 215.126601 247.420407 
L 215.635299 247.420407 
L 215.739303 246.164285 
L 215.806257 246.164285 
L 215.882166 245.32687 
L 216.121084 245.32687 
L 216.227109 244.489455 
L 216.232699 244.489455 
L 216.333388 242.814626 
L 216.348077 242.814626 
L 216.437393 241.977211 
L 216.69302 241.977211 
L 216.69302 241.558504 
L 216.906766 241.558504 
L 216.906766 241.139797 
L 217.372676 241.139797 
L 217.372676 240.721089 
L 218.055203 240.721089 
L 218.128387 239.464967 
L 218.166818 239.464967 
L 218.232392 238.208845 
L 218.562843 238.208845 
L 218.666848 236.952723 
L 218.753293 236.952723 
L 218.753293 236.534016 
L 218.864908 236.534016 
L 218.864908 235.696601 
L 220.548292 235.696601 
L 220.656269 234.440479 
L 220.659907 234.440479 
L 220.760274 233.184357 
L 220.797675 233.184357 
L 220.797675 232.346943 
L 220.982748 232.346943 
L 220.982748 231.928235 
L 221.094363 231.928235 
L 221.094363 231.090821 
L 221.260183 231.090821 
L 221.364187 228.578577 
L 221.656968 228.578577 
L 221.760973 227.322455 
L 223.076174 227.322455 
L 223.076174 226.903747 
L 223.187789 226.903747 
L 223.187789 226.066333 
L 223.680087 226.066333 
L 223.680087 225.228918 
L 223.791702 225.228918 
L 223.791702 223.554089 
L 223.997882 223.554089 
L 224.076873 222.297967 
L 224.188487 222.297967 
L 224.188487 221.460552 
L 224.312997 221.460552 
L 224.417002 220.20443 
L 224.469123 220.20443 
L 224.469123 219.785723 
L 226.091714 219.785723 
L 226.195719 218.529601 
L 226.403243 218.529601 
L 226.436657 217.273479 
L 226.540662 217.273479 
L 226.540662 216.854771 
L 226.732902 216.854771 
L 226.732902 216.436064 
L 226.844517 216.436064 
L 226.844517 215.598649 
L 227.101332 215.598649 
L 227.116313 214.342527 
L 227.220318 214.342527 
L 227.220318 213.92382 
L 227.66933 213.92382 
L 227.66933 213.505113 
L 227.875019 213.505113 
L 227.875019 212.667698 
L 228.511618 212.667698 
L 228.511618 212.248991 
L 228.623233 212.248991 
L 228.623233 211.411576 
L 228.856562 211.411576 
L 228.896332 210.574161 
L 228.968176 210.574161 
L 228.968176 209.736747 
L 229.330787 209.736747 
L 229.330787 209.318039 
L 229.536218 209.318039 
L 229.603449 208.480625 
L 229.647833 208.480625 
L 229.647833 207.64321 
L 230.301539 207.64321 
L 230.301539 207.224503 
L 231.424213 207.224503 
L 231.424213 206.805795 
L 231.546467 206.805795 
L 231.546467 206.387088 
L 232.028127 206.387088 
L 232.096538 205.130966 
L 232.424912 205.130966 
L 232.530994 204.293551 
L 233.480586 204.293551 
L 233.480586 203.874844 
L 234.178676 203.874844 
L 234.178676 203.456137 
L 234.62442 203.456137 
L 234.62442 203.037429 
L 235.080942 203.037429 
L 235.080942 202.618722 
L 235.228333 202.618722 
L 235.228333 201.781307 
L 235.625119 201.781307 
L 235.625119 201.3626 
L 235.973675 201.3626 
L 235.973675 200.943893 
L 236.408131 200.943893 
L 236.408131 200.525185 
L 236.859658 200.525185 
L 236.859658 200.106478 
L 237.204601 200.106478 
L 237.204601 199.687771 
L 237.884258 199.687771 
L 237.884258 199.269063 
L 238.281148 199.269063 
L 238.281148 198.850356 
L 238.501557 198.850356 
L 238.501557 198.431649 
L 239.10547 198.431649 
L 239.10547 197.594234 
L 239.502256 197.594234 
L 239.502256 197.175527 
L 240.059865 197.175527 
L 240.059865 196.756819 
L 240.404808 196.756819 
L 240.404808 196.338112 
L 241.084464 196.338112 
L 241.084464 195.919405 
L 242.158285 195.919405 
L 242.158285 195.500697 
L 243.937002 195.500697 
L 243.937002 195.08199 
L 244.281945 195.08199 
L 244.281945 194.663282 
L 244.961601 194.663282 
L 244.961601 194.244575 
L 245.799659 194.244575 
L 245.799659 181.683355 
L 247.145775 181.683355 
L 247.145775 162.841525 
L 248.441081 162.841525 
L 248.441081 143.999695 
L 258.314773 143.999695 
L 258.314773 137.719085 
L 260.170444 137.719085 
L 260.170444 125.157865 
L 265.973404 125.157865 
L 265.973404 118.877255 
L 266.727754 118.877255 
L 266.727754 112.596645 
L 268.188466 112.596645 
L 268.188466 100.035425 
L 268.896152 100.035425 
L 268.896152 87.474205 
L 270.269196 87.474205 
L 270.269196 81.193595 
L 274.086632 81.193595 
L 274.086632 74.912985 
L 278.594286 74.912985 
L 278.594286 68.632375 
L 279.118289 68.632375 
L 279.118289 56.071155 
L 279.634412 56.071155 
L 279.634412 49.790545 
L 285.289066 49.790545 
L 285.289066 43.509935 
L 288.202946 43.509935 
L 288.202946 37.229325 
L 288.599731 37.229325 
L 288.599731 30.948715 
L 288.991981 30.948715 
L 288.991981 24.668105 
L 290.888682 24.668105 
L 290.888682 18.387495 
L 291.978346 18.387495 
L 291.978346 12.106885 
L 335.732784 12.106885 
L 335.732784 5.826275 
L 453.192 5.826275 
L 453.192 5.826275 
" style="fill:none;stroke:#00bfbf;stroke-linecap:square;stroke-width:3;"/>
   </g>
   <g id="line2d_60">
    <path clip-path="url(#pee7a3f5947)" style="fill:none;stroke:#00bfbf;stroke-linecap:square;stroke-width:3;"/>
   </g>
   <g id="line2d_61">
    <path clip-path="url(#pee7a3f5947)" d="M 34.16 288.453725 
L 105.596789 288.453725 
L 105.596789 288.035018 
L 106.415957 288.035018 
L 106.415957 287.616311 
L 108.15213 287.616311 
L 108.15213 287.197603 
L 110.386424 287.197603 
L 110.386424 286.778896 
L 110.673636 286.778896 
L 110.673636 286.360189 
L 111.521124 286.360189 
L 111.521124 285.941481 
L 112.484116 285.941481 
L 112.484116 285.522774 
L 112.754366 285.522774 
L 112.754366 284.685359 
L 113.420825 284.685359 
L 113.420825 284.266652 
L 113.683827 284.266652 
L 113.683827 283.847945 
L 114.20386 283.847945 
L 114.20386 283.429237 
L 114.332646 283.429237 
L 114.332646 283.01053 
L 116.208607 283.01053 
L 116.208607 282.591823 
L 116.451163 282.591823 
L 116.451163 282.173115 
L 128.63819 282.173115 
L 128.63819 281.754408 
L 129.457359 281.754408 
L 129.457359 281.335701 
L 131.193531 281.335701 
L 131.193531 280.916993 
L 133.427826 280.916993 
L 133.427826 280.498286 
L 133.715037 280.498286 
L 133.715037 280.079579 
L 134.562525 280.079579 
L 134.562525 279.660871 
L 135.525518 279.660871 
L 135.525518 279.242164 
L 135.795767 279.242164 
L 135.795767 278.404749 
L 136.462226 278.404749 
L 136.462226 277.986042 
L 136.725228 277.986042 
L 136.725228 277.567335 
L 137.245261 277.567335 
L 137.245261 277.148627 
L 137.374047 277.148627 
L 137.374047 276.72992 
L 139.250008 276.72992 
L 139.250008 276.311213 
L 139.492565 276.311213 
L 139.492565 275.892505 
L 162.96528 275.892505 
L 162.96528 275.473798 
L 163.784449 275.473798 
L 163.784449 275.055091 
L 165.520621 275.055091 
L 165.520621 274.636383 
L 166.918103 274.636383 
L 166.918103 274.217676 
L 167.737271 274.217676 
L 167.754916 273.380261 
L 168.042127 273.380261 
L 168.042127 272.961554 
L 168.889616 272.961554 
L 168.889616 272.542847 
L 169.473444 272.542847 
L 169.473444 272.124139 
L 169.852608 272.124139 
L 169.852608 271.705432 
L 170.122858 271.705432 
L 170.122858 270.868017 
L 170.789316 270.868017 
L 170.789316 270.44931 
L 171.052318 270.44931 
L 171.052318 270.030603 
L 171.572351 270.030603 
L 171.572351 269.611895 
L 171.701138 269.611895 
L 171.707738 268.774481 
L 171.99495 268.774481 
L 171.99495 268.355773 
L 172.842438 268.355773 
L 172.842438 267.937066 
L 173.577099 267.937066 
L 173.577099 267.518359 
L 173.80543 267.518359 
L 173.819655 266.680944 
L 173.976623 266.680944 
L 174.07568 265.006115 
L 174.742139 265.006115 
L 174.742139 264.587407 
L 175.00514 264.587407 
L 175.00514 264.1687 
L 175.322738 264.1687 
L 175.322738 262.912578 
L 175.525174 262.912578 
L 175.525174 262.493871 
L 175.65396 262.493871 
L 175.65396 262.075163 
L 176.618044 262.075163 
L 176.618044 261.237749 
L 177.529921 261.237749 
L 177.529921 260.819041 
L 177.772477 260.819041 
L 177.772477 260.400334 
L 186.491737 260.400334 
L 186.491737 259.981627 
L 187.168104 259.981627 
L 187.168104 259.562919 
L 187.987273 259.562919 
L 187.987273 259.144212 
L 189.723445 259.144212 
L 189.723445 258.725505 
L 191.95774 258.725505 
L 191.95774 258.306797 
L 192.206624 258.306797 
L 192.244951 257.050675 
L 193.092439 257.050675 
L 193.092439 256.631968 
L 193.55274 256.631968 
L 193.55274 255.375846 
L 194.055432 255.375846 
L 194.150368 254.538431 
L 194.325681 254.538431 
L 194.325681 253.701017 
L 194.848046 253.701017 
L 194.904718 252.444895 
L 194.99214 252.444895 
L 194.99214 252.026187 
L 195.135705 252.026187 
L 195.135705 251.60748 
L 195.255142 251.60748 
L 195.255142 251.188773 
L 195.775175 251.188773 
L 195.775175 250.770065 
L 195.903961 250.770065 
L 195.954874 249.932651 
L 196.365429 249.932651 
L 196.365429 249.513943 
L 196.789627 249.513943 
L 196.789627 247.839114 
L 197.691046 247.839114 
L 197.779922 247.001699 
L 198.022478 247.001699 
L 198.022478 246.582992 
L 198.135743 246.582992 
L 198.135743 244.070748 
L 199.431049 244.070748 
L 199.431049 242.395919 
L 199.925341 242.395919 
L 199.925341 241.977211 
L 200.212552 241.977211 
L 200.212552 241.558504 
L 201.06004 241.558504 
L 201.06004 241.139797 
L 201.180296 241.139797 
L 201.252476 240.302382 
L 201.999465 240.302382 
L 202.071645 239.04626 
L 202.293282 239.04626 
L 202.293282 238.208845 
L 202.930643 238.208845 
L 202.959741 237.371431 
L 203.222743 237.371431 
L 203.222743 236.952723 
L 203.735637 236.952723 
L 203.807817 235.277894 
L 203.871562 235.277894 
L 203.871562 234.859187 
L 204.2717 234.859187 
L 204.2717 234.440479 
L 204.721738 234.440479 
L 204.721738 234.021772 
L 205.090869 234.021772 
L 205.090869 233.603065 
L 205.485984 233.603065 
L 205.485984 233.184357 
L 205.747523 233.184357 
L 205.747523 232.76565 
L 205.969932 232.76565 
L 206.042112 230.672113 
L 206.257143 230.672113 
L 206.329323 229.834699 
L 206.827041 229.834699 
L 206.827041 229.415991 
L 207.104632 229.415991 
L 207.176812 228.578577 
L 207.316047 228.578577 
L 207.316047 227.322455 
L 207.720278 227.322455 
L 207.720278 226.903747 
L 208.00749 226.903747 
L 208.067624 226.066333 
L 208.139804 226.066333 
L 208.139804 225.647625 
L 208.337874 225.647625 
L 208.410054 223.972796 
L 208.611353 223.972796 
L 208.611353 223.135381 
L 208.854978 223.135381 
L 208.854978 222.716674 
L 209.004332 222.716674 
L 209.076512 221.460552 
L 209.267334 221.460552 
L 209.348547 219.367015 
L 209.787367 219.367015 
L 209.859547 218.110893 
L 209.916154 218.110893 
L 209.988334 217.273479 
L 210.08822 217.273479 
L 210.196036 213.505113 
L 210.754679 213.505113 
L 210.754679 213.086405 
L 211.01768 213.086405 
L 211.01768 212.667698 
L 211.159028 212.667698 
L 211.159028 212.248991 
L 211.429277 212.248991 
L 211.537714 207.224503 
L 211.6665 207.224503 
L 211.6665 206.805795 
L 211.792115 206.805795 
L 211.864295 205.968381 
L 212.034671 205.968381 
L 212.106851 204.712259 
L 212.358738 204.712259 
L 212.380369 203.874844 
L 212.73976 203.874844 
L 212.73976 201.3626 
L 212.878771 201.3626 
L 212.878771 200.943893 
L 213.007557 200.943893 
L 213.007557 200.525185 
L 213.134719 200.525185 
L 213.134719 200.106478 
L 213.271187 200.106478 
L 213.271187 199.687771 
L 213.542461 199.687771 
L 213.542461 199.269063 
L 213.785017 199.269063 
L 213.785017 198.850356 
L 214.090355 198.850356 
L 214.090355 198.431649 
L 214.595431 198.431649 
L 214.595431 198.012941 
L 214.883519 198.012941 
L 214.883519 197.594234 
L 215.126075 197.594234 
L 215.126075 197.175527 
L 215.495365 197.175527 
L 215.495365 196.756819 
L 215.826528 196.756819 
L 215.826528 196.338112 
L 216.314534 196.338112 
L 216.379909 195.500697 
L 216.776695 195.500697 
L 216.776695 195.08199 
L 216.963372 195.08199 
L 216.963372 194.244575 
L 217.717722 194.244575 
L 217.717722 193.40716 
L 218.050706 193.40716 
L 218.060822 192.569746 
L 218.348034 192.569746 
L 218.348034 192.151038 
L 218.485046 192.151038 
L 218.485046 191.732331 
L 218.986099 191.732331 
L 218.986099 191.313624 
L 219.178434 191.313624 
L 219.195522 190.057502 
L 219.805268 190.057502 
L 219.805268 189.638794 
L 220.158514 189.638794 
L 220.158514 189.220087 
L 220.285001 189.220087 
L 220.285001 188.80138 
L 220.428764 188.80138 
L 220.428764 187.963965 
L 220.572212 187.963965 
L 220.572212 187.545258 
L 221.095223 187.545258 
L 221.095223 187.12655 
L 221.358224 187.12655 
L 221.419701 186.289136 
L 221.54144 186.289136 
L 221.54144 185.870428 
L 221.672774 185.870428 
L 221.672774 185.451721 
L 221.878258 185.451721 
L 221.878258 185.033014 
L 222.007044 185.033014 
L 222.007044 184.614306 
L 222.382693 184.614306 
L 222.491943 183.776892 
L 222.613453 183.776892 
L 222.652943 181.683355 
L 223.319401 181.683355 
L 223.319401 181.264648 
L 223.502255 181.264648 
L 223.582403 174.984038 
L 223.775735 174.984038 
L 223.883005 174.146623 
L 224.062946 174.146623 
L 224.125561 172.890501 
L 224.228115 172.890501 
L 224.231223 172.053086 
L 224.84837 172.053086 
L 224.910435 162.841525 
L 225.649833 162.841525 
L 225.649833 162.422818 
L 225.873427 162.422818 
L 225.873427 162.00411 
L 226.053476 162.00411 
L 226.143677 154.048671 
L 226.34974 154.048671 
L 226.34974 153.629964 
L 226.46241 153.629964 
L 226.469002 152.792549 
L 226.749621 152.792549 
L 226.810135 151.955134 
L 226.898027 151.955134 
L 226.898027 151.536427 
L 227.073137 151.536427 
L 227.073137 151.11772 
L 227.59317 151.11772 
L 227.59711 150.280305 
L 227.721957 150.280305 
L 227.721957 149.861598 
L 228.205174 149.861598 
L 228.205174 149.44289 
L 228.358738 149.44289 
L 228.358738 149.024183 
L 228.560102 149.024183 
L 228.560102 148.605476 
L 228.830352 148.605476 
L 228.830352 147.768061 
L 229.496811 147.768061 
L 229.597918 146.930646 
L 229.759812 146.930646 
L 229.840474 146.093232 
L 230.272083 146.093232 
L 230.279845 144.418402 
L 230.408632 144.418402 
L 230.439469 143.580988 
L 230.72668 143.580988 
L 230.72668 143.16228 
L 231.026433 143.16228 
L 231.026433 141.906158 
L 231.574169 141.906158 
L 231.574169 141.487451 
L 232.284593 141.487451 
L 232.284593 141.068744 
L 232.487145 141.068744 
L 232.537161 138.975207 
L 232.807411 138.975207 
L 232.807411 138.137792 
L 233.473869 138.137792 
L 233.473869 137.719085 
L 233.736871 137.719085 
L 233.736871 137.300378 
L 234.256904 137.300378 
L 234.256904 136.88167 
L 234.385691 136.88167 
L 234.385691 136.462963 
L 234.609911 136.462963 
L 234.609911 136.044256 
L 235.006696 136.044256 
L 235.006696 135.625548 
L 236.017369 135.625548 
L 236.017369 132.694597 
L 236.261652 132.694597 
L 236.261652 132.27589 
L 236.504208 132.27589 
L 236.504208 131.857182 
L 237.87304 131.857182 
L 237.87304 119.295962 
L 239.192914 119.295962 
L 239.192914 118.458548 
L 239.589699 118.458548 
L 239.589699 117.621133 
L 243.676 117.621133 
L 243.676 114.690182 
L 244.283477 114.690182 
L 244.283477 114.271474 
L 244.43035 114.271474 
L 244.43035 111.340523 
L 245.346264 111.340523 
L 245.346264 110.921816 
L 245.891062 110.921816 
L 245.891062 101.710254 
L 246.598747 101.710254 
L 246.598747 89.149034 
L 248.373218 89.149034 
L 248.373218 88.730327 
L 248.770003 88.730327 
L 248.86648 87.474205 
L 251.789227 87.474205 
L 251.789227 81.193595 
L 252.501625 81.193595 
L 252.501625 79.937473 
L 252.89841 79.937473 
L 252.89841 78.681351 
L 256.296882 78.681351 
L 256.296882 72.400741 
L 257.337008 72.400741 
L 257.337008 66.120131 
L 258.046784 66.120131 
L 258.046784 65.701423 
L 262.175191 65.701423 
L 262.175191 64.445301 
L 262.991662 64.445301 
L 262.991662 58.164691 
L 263.576265 58.164691 
L 263.576265 57.745984 
L 265.905542 57.745984 
L 265.905542 54.815033 
L 266.302327 54.815033 
L 266.302327 51.884081 
L 268.159268 51.884081 
L 268.159268 51.046667 
L 268.591278 51.046667 
L 268.591278 44.766057 
L 271.423526 44.766057 
L 271.423526 38.485447 
L 275.579108 38.485447 
L 275.579108 35.554495 
L 277.339573 35.554495 
L 277.339573 35.135788 
L 278.740647 35.135788 
L 278.740647 28.855178 
L 281.467979 28.855178 
L 281.467979 27.599056 
L 286.123601 27.599056 
L 286.123601 21.318446 
L 286.781542 21.318446 
L 286.781542 15.037836 
L 294.871896 15.037836 
L 294.871896 12.106885 
L 313.43538 12.106885 
L 313.43538 5.826275 
L 453.192 5.826275 
L 453.192 5.826275 
" style="fill:none;stroke:#bf00bf;stroke-linecap:square;stroke-width:3;"/>
   </g>
   <g id="line2d_62">
    <path clip-path="url(#pee7a3f5947)" style="fill:none;stroke:#bf00bf;stroke-linecap:square;stroke-width:3;"/>
   </g>
   <g id="line2d_63">
    <path clip-path="url(#pee7a3f5947)" d="M 34.16 250.770065 
L 48.520609 250.770065 
L 48.520609 250.351358 
L 51.404265 250.351358 
L 51.404265 249.932651 
L 51.903497 249.932651 
L 51.903497 249.513943 
L 52.027178 249.513943 
L 52.027178 249.095236 
L 52.39557 249.095236 
L 52.39557 248.676529 
L 53.24008 248.676529 
L 53.24008 248.257821 
L 53.359045 248.257821 
L 53.359045 247.839114 
L 53.595746 247.839114 
L 53.595746 247.420407 
L 54.641153 247.420407 
L 54.641153 247.001699 
L 55.32081 247.001699 
L 55.32081 246.582992 
L 55.544404 246.582992 
L 55.544404 246.164285 
L 56.532933 246.164285 
L 56.641032 245.32687 
L 58.428469 245.32687 
L 58.428469 244.908163 
L 58.835851 244.908163 
L 58.835851 244.489455 
L 80.260661 244.489455 
L 80.260661 244.070748 
L 83.144318 244.070748 
L 83.144318 243.652041 
L 83.643549 243.652041 
L 83.643549 243.233333 
L 83.76723 243.233333 
L 83.76723 242.814626 
L 84.135622 242.814626 
L 84.135622 242.395919 
L 84.980132 242.395919 
L 84.980132 241.977211 
L 85.099097 241.977211 
L 85.099097 241.558504 
L 85.335799 241.558504 
L 85.335799 241.139797 
L 86.381206 241.139797 
L 86.381206 240.721089 
L 86.839402 240.721089 
L 86.839402 240.302382 
L 87.060862 240.302382 
L 87.060862 239.883675 
L 87.284456 239.883675 
L 87.284456 239.464967 
L 88.272985 239.464967 
L 88.381084 238.627553 
L 89.723059 238.627553 
L 89.723059 238.208845 
L 90.168521 238.208845 
L 90.22229 237.371431 
L 90.345972 237.371431 
L 90.345972 236.952723 
L 90.575903 236.952723 
L 90.575903 236.534016 
L 90.714364 236.534016 
L 90.714364 236.115309 
L 91.558873 236.115309 
L 91.558873 235.696601 
L 91.677839 235.696601 
L 91.677839 235.277894 
L 91.91454 235.277894 
L 91.91454 234.859187 
L 92.959947 234.859187 
L 92.959947 234.440479 
L 93.639604 234.440479 
L 93.639604 234.021772 
L 93.863198 234.021772 
L 93.863198 233.603065 
L 94.767943 233.603065 
L 94.851726 232.76565 
L 94.959826 232.76565 
L 94.959826 232.346943 
L 96.747263 232.346943 
L 96.747263 231.928235 
L 97.154645 231.928235 
L 97.154645 231.509528 
L 97.651599 231.509528 
L 97.651599 231.090821 
L 98.150831 231.090821 
L 98.150831 230.672113 
L 98.274512 230.672113 
L 98.274512 230.253406 
L 98.642904 230.253406 
L 98.642904 229.834699 
L 99.487414 229.834699 
L 99.487414 229.415991 
L 99.606379 229.415991 
L 99.606379 228.997284 
L 99.84308 228.997284 
L 99.84308 228.578577 
L 100.888487 228.578577 
L 100.888487 228.159869 
L 101.568144 228.159869 
L 101.568144 227.741162 
L 101.791738 227.741162 
L 101.791738 227.322455 
L 102.780267 227.322455 
L 102.888366 226.48504 
L 104.675803 226.48504 
L 104.675803 226.066333 
L 105.083185 226.066333 
L 105.083185 225.647625 
L 108.613247 225.647625 
L 108.613247 225.228918 
L 111.496904 225.228918 
L 111.496904 224.810211 
L 111.996135 224.810211 
L 111.996135 224.391503 
L 112.119817 224.391503 
L 112.119817 223.972796 
L 112.488209 223.972796 
L 112.488209 223.554089 
L 113.332718 223.554089 
L 113.332718 223.135381 
L 113.451684 223.135381 
L 113.451684 222.716674 
L 113.688385 222.716674 
L 113.688385 222.297967 
L 114.733792 222.297967 
L 114.733792 221.879259 
L 115.413449 221.879259 
L 115.413449 221.460552 
L 115.637043 221.460552 
L 115.637043 221.041845 
L 116.625571 221.041845 
L 116.733671 220.20443 
L 118.521108 220.20443 
L 118.521108 219.785723 
L 118.92849 219.785723 
L 118.92849 219.367015 
L 127.425557 219.367015 
L 127.425557 218.529601 
L 128.771672 218.529601 
L 128.771672 217.273479 
L 130.066979 217.273479 
L 130.066979 216.436064 
L 136.001365 216.436064 
L 136.108597 215.179942 
L 137.34748 215.179942 
L 137.34748 213.92382 
L 138.642786 213.92382 
L 138.642786 213.086405 
L 138.992254 213.086405 
L 138.992254 212.667698 
L 139.491485 212.667698 
L 139.491485 212.248991 
L 139.615166 212.248991 
L 139.615166 211.830283 
L 139.940671 211.830283 
L 139.983559 210.992869 
L 140.828068 210.992869 
L 140.828068 210.574161 
L 140.947033 210.574161 
L 140.947033 210.155454 
L 141.183735 210.155454 
L 141.183735 209.736747 
L 142.229142 209.736747 
L 142.229142 209.318039 
L 142.908798 209.318039 
L 142.908798 208.899332 
L 143.132392 208.899332 
L 143.132392 208.480625 
L 144.120921 208.480625 
L 144.22902 207.64321 
L 146.016457 207.64321 
L 146.016457 207.224503 
L 146.423839 207.224503 
L 146.423839 206.805795 
L 147.599302 206.805795 
L 147.599302 206.387088 
L 147.921047 206.387088 
L 147.921047 205.549673 
L 148.353652 205.549673 
L 148.353652 205.130966 
L 148.516479 205.130966 
L 148.516479 204.712259 
L 149.267162 204.712259 
L 149.267162 203.456137 
L 149.814363 203.456137 
L 149.814363 203.037429 
L 150.562468 203.037429 
L 150.562468 202.200015 
L 156.17511 202.200015 
L 156.17511 201.781307 
L 156.92946 201.781307 
L 156.989097 200.525185 
L 158.335213 200.525185 
L 158.390171 198.850356 
L 159.630519 198.850356 
L 159.630519 198.012941 
L 160.436161 198.012941 
L 160.436161 197.594234 
L 162.647849 197.594234 
L 162.647849 196.756819 
L 163.367679 196.756819 
L 163.367679 195.919405 
L 163.993965 195.919405 
L 163.993965 194.663282 
L 164.713795 194.663282 
L 164.713795 193.40716 
L 165.289271 193.40716 
L 165.289271 192.569746 
L 166.009101 192.569746 
L 166.009101 191.732331 
L 166.350667 191.732331 
L 166.350667 191.313624 
L 167.809267 191.313624 
L 167.809267 190.476209 
L 168.094792 190.476209 
L 168.094792 190.057502 
L 168.849142 190.057502 
L 168.849142 189.638794 
L 169.155382 189.638794 
L 169.234324 187.12655 
L 169.504211 187.12655 
L 169.504211 186.707843 
L 169.733555 186.707843 
L 169.828843 185.870428 
L 169.857236 185.870428 
L 169.857236 185.451721 
L 170.225629 185.451721 
L 170.309853 184.195599 
L 170.450689 184.195599 
L 170.537645 182.102062 
L 171.070138 182.102062 
L 171.070138 181.683355 
L 171.189104 181.683355 
L 171.189104 181.264648 
L 171.425805 181.264648 
L 171.425805 180.84594 
L 171.832951 180.84594 
L 171.832951 180.008526 
L 172.471212 180.008526 
L 172.471212 179.589818 
L 173.150868 179.589818 
L 173.150868 179.171111 
L 173.374462 179.171111 
L 173.374462 178.752404 
L 174.362991 178.752404 
L 174.471091 177.914989 
L 174.704959 177.914989 
L 174.704959 177.077574 
L 175.162964 177.077574 
L 175.162964 176.658867 
L 175.882793 176.658867 
L 175.916798 175.821452 
L 176.051074 175.821452 
L 176.051074 174.56533 
L 176.258527 174.56533 
L 176.258527 174.146623 
L 176.665909 174.146623 
L 176.665909 173.727916 
L 177.162842 173.727916 
L 177.162842 173.309208 
L 177.34638 173.309208 
L 177.34638 172.471794 
L 177.917192 172.471794 
L 177.917192 172.053086 
L 178.404651 172.053086 
L 178.404651 171.634379 
L 178.800454 171.634379 
L 178.801436 170.796964 
L 179.299685 170.796964 
L 179.377904 169.95955 
L 179.423367 169.95955 
L 179.423367 169.540842 
L 179.791759 169.540842 
L 179.791759 169.122135 
L 180.324381 169.122135 
L 180.324381 168.703428 
L 180.636268 168.703428 
L 180.636268 168.28472 
L 180.755234 168.28472 
L 180.755234 167.866013 
L 180.991935 167.866013 
L 180.991935 167.447306 
L 181.706643 167.447306 
L 181.706643 167.028598 
L 182.037342 167.028598 
L 182.037342 166.609891 
L 182.716999 166.609891 
L 182.821594 165.772476 
L 182.940593 165.772476 
L 182.940593 165.353769 
L 183.541424 165.353769 
L 183.575944 164.516354 
L 183.929122 164.516354 
L 184.037221 163.67894 
L 184.295774 163.67894 
L 184.295774 163.260232 
L 185.036656 163.260232 
L 185.036656 162.841525 
L 185.756486 162.841525 
L 185.824658 162.00411 
L 186.23204 162.00411 
L 186.23204 161.585403 
L 187.220073 161.585403 
L 187.220073 161.166696 
L 187.983012 161.166696 
L 187.983012 160.747988 
L 188.737362 160.747988 
L 188.737362 160.329281 
L 189.365274 160.329281 
L 189.365274 159.910574 
L 190.119624 159.910574 
L 190.198074 159.073159 
L 190.324333 159.073159 
L 190.324333 158.654452 
L 190.721118 158.654452 
L 190.721118 158.235744 
L 191.580336 158.235744 
L 191.580336 157.817037 
L 192.606215 157.817037 
L 192.606215 157.39833 
L 194.878704 157.39833 
L 194.878704 156.979622 
L 195.633054 156.979622 
L 195.633054 156.560915 
L 197.093765 156.560915 
L 197.093765 156.142208 
L 199.392384 156.142208 
L 199.392384 155.7235 
L 199.789169 155.7235 
L 199.789169 155.304793 
L 200.483678 155.304793 
L 200.483678 153.629964 
L 200.934131 153.629964 
L 200.934131 153.211256 
L 201.182023 153.211256 
L 201.182023 152.792549 
L 201.829793 152.792549 
L 201.829793 150.280305 
L 203.1251 150.280305 
L 203.1251 148.605476 
L 203.817788 148.605476 
L 203.817788 148.186768 
L 204.317019 148.186768 
L 204.317019 147.768061 
L 204.4407 147.768061 
L 204.4407 147.349354 
L 204.809093 147.349354 
L 204.809093 146.930646 
L 205.051136 146.930646 
L 205.051136 146.511939 
L 205.195464 146.511939 
L 205.195464 146.093232 
L 205.447921 146.093232 
L 205.447921 145.674524 
L 205.653602 145.674524 
L 205.653602 145.255817 
L 205.770966 145.255817 
L 205.772568 144.418402 
L 206.009269 144.418402 
L 206.009269 143.999695 
L 206.167751 143.999695 
L 206.167751 143.580988 
L 207.054676 143.580988 
L 207.054676 143.16228 
L 207.734333 143.16228 
L 207.734333 142.743573 
L 207.957926 142.743573 
L 207.957926 142.324866 
L 208.946455 142.324866 
L 209.054555 141.487451 
L 210.098339 141.487451 
L 210.098339 138.975207 
L 210.212553 138.975207 
L 210.212553 138.5565 
L 210.609339 138.5565 
L 210.609339 138.137792 
L 210.841991 138.137792 
L 210.841991 137.719085 
L 211.249373 137.719085 
L 211.249373 137.300378 
L 211.444454 137.300378 
L 211.444454 133.532012 
L 211.594816 133.532012 
L 211.594816 133.113304 
L 211.991601 133.113304 
L 211.991601 132.694597 
L 212.73976 132.694597 
L 212.73976 130.182353 
L 212.998792 130.182353 
L 213.101705 128.926231 
L 213.771272 128.926231 
L 213.771272 128.507524 
L 217.108245 128.507524 
L 217.108245 128.088816 
L 217.50503 128.088816 
L 217.50503 127.670109 
L 220.657423 127.670109 
L 220.657423 126.832694 
L 221.411773 126.832694 
L 221.411773 125.99528 
L 222.169756 125.99528 
L 222.169756 125.576572 
L 222.613453 125.576572 
L 222.613453 124.32045 
L 222.872484 124.32045 
L 222.872484 123.483036 
L 223.502255 123.483036 
L 223.502255 122.645621 
L 224.84837 122.645621 
L 224.84837 121.389499 
L 225.690954 121.389499 
L 225.690954 120.970792 
L 226.143677 120.970792 
L 226.143677 120.133377 
L 227.828508 120.133377 
L 227.828508 119.71467 
L 228.548338 119.71467 
L 228.548338 119.295962 
L 230.272083 119.295962 
L 230.272083 118.03984 
L 231.026433 118.03984 
L 231.026433 116.783718 
L 232.487145 116.783718 
L 232.487145 115.527596 
L 232.989925 115.527596 
L 232.989925 115.108889 
L 234.372188 115.108889 
L 234.372188 114.690182 
L 234.759005 114.690182 
L 234.759005 114.271474 
L 236.017369 114.271474 
L 236.017369 113.852767 
L 237.87304 113.852767 
L 237.87304 101.291547 
L 239.885617 101.291547 
L 239.885617 100.87284 
L 240.417757 100.87284 
L 240.417757 100.454132 
L 241.137587 100.454132 
L 241.137587 100.035425 
L 242.886964 100.035425 
L 242.886964 99.19801 
L 243.28375 99.19801 
L 243.28375 98.360595 
L 243.676 98.360595 
L 243.676 97.941888 
L 244.43035 97.941888 
L 244.43035 97.523181 
L 245.579174 97.523181 
L 245.579174 97.104473 
L 245.891062 97.104473 
L 245.891062 90.405156 
L 246.598747 90.405156 
L 246.598747 77.843936 
L 246.961437 77.843936 
L 246.961437 77.425229 
L 251.789227 77.425229 
L 251.789227 71.144619 
L 252.474866 71.144619 
L 252.501625 69.469789 
L 252.89841 69.469789 
L 252.89841 68.213667 
L 256.296882 68.213667 
L 256.296882 61.933057 
L 257.337008 61.933057 
L 257.337008 55.652447 
L 262.991662 55.652447 
L 262.991662 49.371837 
L 265.664336 49.371837 
L 265.664336 48.534423 
L 265.905542 48.534423 
L 265.905542 48.115715 
L 266.302327 48.115715 
L 266.302327 47.697008 
L 268.591278 47.697008 
L 268.591278 41.416398 
L 271.423526 41.416398 
L 271.423526 35.135788 
L 275.278997 35.135788 
L 275.278997 33.879666 
L 278.253585 33.879666 
L 278.253585 33.042251 
L 278.740647 33.042251 
L 278.740647 26.761641 
L 286.123601 26.761641 
L 286.123601 20.481031 
L 286.781542 20.481031 
L 286.781542 14.200421 
L 287.868246 14.200421 
L 287.868246 12.944299 
L 288.682913 12.944299 
L 288.682913 12.525592 
L 301.272162 12.525592 
L 301.272162 12.106885 
L 313.43538 12.106885 
L 313.43538 5.826275 
L 453.192 5.826275 
L 453.192 5.826275 
" style="fill:none;stroke:#ff0000;stroke-linecap:square;stroke-width:3;"/>
   </g>
   <g id="line2d_64">
    <path clip-path="url(#pee7a3f5947)" style="fill:none;stroke:#ff0000;stroke-linecap:square;stroke-width:3;"/>
   </g>
   <g id="line2d_65">
    <path clip-path="url(#pee7a3f5947)" d="M 243.676 291.28 
L 243.676 3 
" style="fill:none;stroke:#000000;stroke-linecap:square;stroke-width:1.5;"/>
   </g>
   <g id="line2d_66">
    <path clip-path="url(#pee7a3f5947)" d="M 34.16 147.14 
L 453.192 147.14 
" style="fill:none;stroke:#000000;stroke-dasharray:2,3.3;stroke-dashoffset:0;stroke-width:2;"/>
   </g>
   <g id="patch_3">
    <path d="M 34.16 291.28 
L 34.16 3 
" style="fill:none;stroke:#000000;stroke-linecap:square;stroke-linejoin:miter;stroke-width:0.8;"/>
   </g>
   <g id="patch_4">
    <path d="M 453.192 291.28 
L 453.192 3 
" style="fill:none;stroke:#000000;stroke-linecap:square;stroke-linejoin:miter;stroke-width:0.8;"/>
   </g>
   <g id="patch_5">
    <path d="M 34.16 291.28 
L 453.192 291.28 
" style="fill:none;stroke:#000000;stroke-linecap:square;stroke-linejoin:miter;stroke-width:0.8;"/>
   </g>
   <g id="patch_6">
    <path d="M 34.16 3 
L 453.192 3 
" style="fill:none;stroke:#000000;stroke-linecap:square;stroke-linejoin:miter;stroke-width:0.8;"/>
   </g>
   <g id="text_5">
    <!-- f5, f11, f17,20-D -->
    <g transform="translate(280.21761 285.5144)scale(0.2 -0.2)">
     <defs>
      <path d="M 10.796875 72.90625 
L 49.515625 72.90625 
L 49.515625 64.59375 
L 19.828125 64.59375 
L 19.828125 46.734375 
Q 21.96875 47.46875 24.109375 47.828125 
Q 26.265625 48.1875 28.421875 48.1875 
Q 40.625 48.1875 47.75 41.5 
Q 54.890625 34.8125 54.890625 23.390625 
Q 54.890625 11.625 47.5625 5.09375 
Q 40.234375 -1.421875 26.90625 -1.421875 
Q 22.3125 -1.421875 17.546875 -0.640625 
Q 12.796875 0.140625 7.71875 1.703125 
L 7.71875 11.625 
Q 12.109375 9.234375 16.796875 8.0625 
Q 21.484375 6.890625 26.703125 6.890625 
Q 35.15625 6.890625 40.078125 11.328125 
Q 45.015625 15.765625 45.015625 23.390625 
Q 45.015625 31 40.078125 35.4375 
Q 35.15625 39.890625 26.703125 39.890625 
Q 22.75 39.890625 18.8125 39.015625 
Q 14.890625 38.140625 10.796875 36.28125 
z
" id="DejaVuSans-53"/>
      <path d="M 11.71875 12.40625 
L 22.015625 12.40625 
L 22.015625 4 
L 14.015625 -11.625 
L 7.71875 -11.625 
L 11.71875 4 
z
" id="DejaVuSans-44"/>
      <path d="M 8.203125 72.90625 
L 55.078125 72.90625 
L 55.078125 68.703125 
L 28.609375 0 
L 18.3125 0 
L 43.21875 64.59375 
L 8.203125 64.59375 
z
" id="DejaVuSans-55"/>
      <path d="M 19.1875 8.296875 
L 53.609375 8.296875 
L 53.609375 0 
L 7.328125 0 
L 7.328125 8.296875 
Q 12.9375 14.109375 22.625 23.890625 
Q 32.328125 33.6875 34.8125 36.53125 
Q 39.546875 41.84375 41.421875 45.53125 
Q 43.3125 49.21875 43.3125 52.78125 
Q 43.3125 58.59375 39.234375 62.25 
Q 35.15625 65.921875 28.609375 65.921875 
Q 23.96875 65.921875 18.8125 64.3125 
Q 13.671875 62.703125 7.8125 59.421875 
L 7.8125 69.390625 
Q 13.765625 71.78125 18.9375 73 
Q 24.125 74.21875 28.421875 74.21875 
Q 39.75 74.21875 46.484375 68.546875 
Q 53.21875 62.890625 53.21875 53.421875 
Q 53.21875 48.921875 51.53125 44.890625 
Q 49.859375 40.875 45.40625 35.40625 
Q 44.1875 33.984375 37.640625 27.21875 
Q 31.109375 20.453125 19.1875 8.296875 
z
" id="DejaVuSans-50"/>
      <path d="M 19.671875 64.796875 
L 19.671875 8.109375 
L 31.59375 8.109375 
Q 46.6875 8.109375 53.6875 14.9375 
Q 60.6875 21.78125 60.6875 36.53125 
Q 60.6875 51.171875 53.6875 57.984375 
Q 46.6875 64.796875 31.59375 64.796875 
z
M 9.8125 72.90625 
L 30.078125 72.90625 
Q 51.265625 72.90625 61.171875 64.09375 
Q 71.09375 55.28125 71.09375 36.53125 
Q 71.09375 17.671875 61.125 8.828125 
Q 51.171875 0 30.078125 0 
L 9.8125 0 
z
" id="DejaVuSans-68"/>
     </defs>
     <use xlink:href="#DejaVuSans-102"/>
     <use x="35.205078" xlink:href="#DejaVuSans-53"/>
     <use x="98.828125" xlink:href="#DejaVuSans-44"/>
     <use x="130.615234" xlink:href="#DejaVuSans-32"/>
     <use x="162.402344" xlink:href="#DejaVuSans-102"/>
     <use x="197.607422" xlink:href="#DejaVuSans-49"/>
     <use x="261.230469" xlink:href="#DejaVuSans-49"/>
     <use x="324.853516" xlink:href="#DejaVuSans-44"/>
     <use x="356.640625" xlink:href="#DejaVuSans-32"/>
     <use x="388.427734" xlink:href="#DejaVuSans-102"/>
     <use x="423.632812" xlink:href="#DejaVuSans-49"/>
     <use x="487.255859" xlink:href="#DejaVuSans-55"/>
     <use x="550.878906" xlink:href="#DejaVuSans-44"/>
     <use x="582.666016" xlink:href="#DejaVuSans-50"/>
     <use x="646.289062" xlink:href="#DejaVuSans-48"/>
     <use x="709.912109" xlink:href="#DejaVuSans-45"/>
     <use x="745.996094" xlink:href="#DejaVuSans-68"/>
    </g>
   </g>
   <g id="text_6">
    <!-- v2.4.143 -->
    <g style="fill:#808080;" transform="translate(221.63225 286.317512)scale(0.1 -0.1)">
     <defs>
      <path d="M 10.6875 12.40625 
L 21 12.40625 
L 21 0 
L 10.6875 0 
z
" id="DejaVuSans-46"/>
      <path d="M 37.796875 64.3125 
L 12.890625 25.390625 
L 37.796875 25.390625 
z
M 35.203125 72.90625 
L 47.609375 72.90625 
L 47.609375 25.390625 
L 58.015625 25.390625 
L 58.015625 17.1875 
L 47.609375 17.1875 
L 47.609375 0 
L 37.796875 0 
L 37.796875 17.1875 
L 4.890625 17.1875 
L 4.890625 26.703125 
z
" id="DejaVuSans-52"/>
      <path d="M 40.578125 39.3125 
Q 47.65625 37.796875 51.625 33 
Q 55.609375 28.21875 55.609375 21.1875 
Q 55.609375 10.40625 48.1875 4.484375 
Q 40.765625 -1.421875 27.09375 -1.421875 
Q 22.515625 -1.421875 17.65625 -0.515625 
Q 12.796875 0.390625 7.625 2.203125 
L 7.625 11.71875 
Q 11.71875 9.328125 16.59375 8.109375 
Q 21.484375 6.890625 26.8125 6.890625 
Q 36.078125 6.890625 40.9375 10.546875 
Q 45.796875 14.203125 45.796875 21.1875 
Q 45.796875 27.640625 41.28125 31.265625 
Q 36.765625 34.90625 28.71875 34.90625 
L 20.21875 34.90625 
L 20.21875 43.015625 
L 29.109375 43.015625 
Q 36.375 43.015625 40.234375 45.921875 
Q 44.09375 48.828125 44.09375 54.296875 
Q 44.09375 59.90625 40.109375 62.90625 
Q 36.140625 65.921875 28.71875 65.921875 
Q 24.65625 65.921875 20.015625 65.03125 
Q 15.375 64.15625 9.8125 62.3125 
L 9.8125 71.09375 
Q 15.4375 72.65625 20.34375 73.4375 
Q 25.25 74.21875 29.59375 74.21875 
Q 40.828125 74.21875 47.359375 69.109375 
Q 53.90625 64.015625 53.90625 55.328125 
Q 53.90625 49.265625 50.4375 45.09375 
Q 46.96875 40.921875 40.578125 39.3125 
z
" id="DejaVuSans-51"/>
     </defs>
     <use xlink:href="#DejaVuSans-118"/>
     <use x="59.179688" xlink:href="#DejaVuSans-50"/>
     <use x="122.802734" xlink:href="#DejaVuSans-46"/>
     <use x="154.589844" xlink:href="#DejaVuSans-52"/>
     <use x="218.212891" xlink:href="#DejaVuSans-46"/>
     <use x="250" xlink:href="#DejaVuSans-49"/>
     <use x="313.623047" xlink:href="#DejaVuSans-52"/>
     <use x="377.246094" xlink:href="#DejaVuSans-51"/>
    </g>
   </g>
   <g id="legend_1">
    <g id="patch_7">
     <path d="M 309.970125 136.425 
L 439.192 136.425 
Q 443.192 136.425 443.192 132.425 
L 443.192 17 
Q 443.192 13 439.192 13 
L 309.970125 13 
Q 305.970125 13 305.970125 17 
L 305.970125 132.425 
Q 305.970125 136.425 309.970125 136.425 
z
" style="fill:#ffffff;opacity:0.2;stroke:#cccccc;stroke-linejoin:miter;"/>
    </g>
    <g id="line2d_67">
     <path d="M 313.970125 29.196875 
L 353.970125 29.196875 
" style="fill:none;stroke:#000000;stroke-linecap:square;stroke-width:3;"/>
    </g>
    <g id="line2d_68"/>
    <g id="text_7">
     <!-- 1: 3/3 -->
     <g transform="translate(369.970125 36.196875)scale(0.2 -0.2)">
      <defs>
       <path d="M 11.71875 12.40625 
L 22.015625 12.40625 
L 22.015625 0 
L 11.71875 0 
z
M 11.71875 51.703125 
L 22.015625 51.703125 
L 22.015625 39.3125 
L 11.71875 39.3125 
z
" id="DejaVuSans-58"/>
       <path d="M 25.390625 72.90625 
L 33.6875 72.90625 
L 8.296875 -9.28125 
L 0 -9.28125 
z
" id="DejaVuSans-47"/>
      </defs>
      <use xlink:href="#DejaVuSans-49"/>
      <use x="63.623047" xlink:href="#DejaVuSans-58"/>
      <use x="97.314453" xlink:href="#DejaVuSans-32"/>
      <use x="129.101562" xlink:href="#DejaVuSans-51"/>
      <use x="192.724609" xlink:href="#DejaVuSans-47"/>
      <use x="226.416016" xlink:href="#DejaVuSans-51"/>
     </g>
    </g>
    <g id="line2d_69">
     <path d="M 313.970125 58.553125 
L 353.970125 58.553125 
" style="fill:none;stroke:#00bfbf;stroke-linecap:square;stroke-width:3;"/>
    </g>
    <g id="line2d_70"/>
    <g id="text_8">
     <!-- -1: 3/3 -->
     <g transform="translate(369.970125 65.553125)scale(0.2 -0.2)">
      <use xlink:href="#DejaVuSans-45"/>
      <use x="36.083984" xlink:href="#DejaVuSans-49"/>
      <use x="99.707031" xlink:href="#DejaVuSans-58"/>
      <use x="133.398438" xlink:href="#DejaVuSans-32"/>
      <use x="165.185547" xlink:href="#DejaVuSans-51"/>
      <use x="228.808594" xlink:href="#DejaVuSans-47"/>
      <use x="262.5" xlink:href="#DejaVuSans-51"/>
     </g>
    </g>
    <g id="line2d_71">
     <path d="M 313.970125 87.909375 
L 353.970125 87.909375 
" style="fill:none;stroke:#bf00bf;stroke-linecap:square;stroke-width:3;"/>
    </g>
    <g id="line2d_72"/>
    <g id="text_9">
     <!-- -4: 3/3 -->
     <g transform="translate(369.970125 94.909375)scale(0.2 -0.2)">
      <use xlink:href="#DejaVuSans-45"/>
      <use x="36.083984" xlink:href="#DejaVuSans-52"/>
      <use x="99.707031" xlink:href="#DejaVuSans-58"/>
      <use x="133.398438" xlink:href="#DejaVuSans-32"/>
      <use x="165.185547" xlink:href="#DejaVuSans-51"/>
      <use x="228.808594" xlink:href="#DejaVuSans-47"/>
      <use x="262.5" xlink:href="#DejaVuSans-51"/>
     </g>
    </g>
    <g id="line2d_73">
     <path d="M 313.970125 117.265625 
L 353.970125 117.265625 
" style="fill:none;stroke:#ff0000;stroke-linecap:square;stroke-width:3;"/>
    </g>
    <g id="line2d_74"/>
    <g id="text_10">
     <!-- -6: 3/3 -->
     <g transform="translate(369.970125 124.265625)scale(0.2 -0.2)">
      <defs>
       <path d="M 33.015625 40.375 
Q 26.375 40.375 22.484375 35.828125 
Q 18.609375 31.296875 18.609375 23.390625 
Q 18.609375 15.53125 22.484375 10.953125 
Q 26.375 6.390625 33.015625 6.390625 
Q 39.65625 6.390625 43.53125 10.953125 
Q 47.40625 15.53125 47.40625 23.390625 
Q 47.40625 31.296875 43.53125 35.828125 
Q 39.65625 40.375 33.015625 40.375 
z
M 52.59375 71.296875 
L 52.59375 62.3125 
Q 48.875 64.0625 45.09375 64.984375 
Q 41.3125 65.921875 37.59375 65.921875 
Q 27.828125 65.921875 22.671875 59.328125 
Q 17.53125 52.734375 16.796875 39.40625 
Q 19.671875 43.65625 24.015625 45.921875 
Q 28.375 48.1875 33.59375 48.1875 
Q 44.578125 48.1875 50.953125 41.515625 
Q 57.328125 34.859375 57.328125 23.390625 
Q 57.328125 12.15625 50.6875 5.359375 
Q 44.046875 -1.421875 33.015625 -1.421875 
Q 20.359375 -1.421875 13.671875 8.265625 
Q 6.984375 17.96875 6.984375 36.375 
Q 6.984375 53.65625 15.1875 63.9375 
Q 23.390625 74.21875 37.203125 74.21875 
Q 40.921875 74.21875 44.703125 73.484375 
Q 48.484375 72.75 52.59375 71.296875 
z
" id="DejaVuSans-54"/>
      </defs>
      <use xlink:href="#DejaVuSans-45"/>
      <use x="36.083984" xlink:href="#DejaVuSans-54"/>
      <use x="99.707031" xlink:href="#DejaVuSans-58"/>
      <use x="133.398438" xlink:href="#DejaVuSans-32"/>
      <use x="165.185547" xlink:href="#DejaVuSans-51"/>
      <use x="228.808594" xlink:href="#DejaVuSans-47"/>
      <use x="262.5" xlink:href="#DejaVuSans-51"/>
     </g>
    </g>
   </g>
  </g>
 </g>
 <defs>
  <clipPath id="pee7a3f5947">
   <rect height="288.28" width="419.032" x="34.16" y="3"/>
  </clipPath>
 </defs>
</svg>
