<?xml version="1.0" encoding="utf-8" standalone="no"?>
<!DOCTYPE svg PUBLIC "-//W3C//DTD SVG 1.1//EN"
  "http://www.w3.org/Graphics/SVG/1.1/DTD/svg11.dtd">
<!-- Created with matplotlib (https://matplotlib.org/) -->
<svg height="345.6pt" version="1.1" viewBox="0 0 460.8 345.6" width="460.8pt" xmlns="http://www.w3.org/2000/svg" xmlns:xlink="http://www.w3.org/1999/xlink">
 <metadata>
  <rdf:RDF xmlns:cc="http://creativecommons.org/ns#" xmlns:dc="http://purl.org/dc/elements/1.1/" xmlns:rdf="http://www.w3.org/1999/02/22-rdf-syntax-ns#">
   <cc:Work>
    <dc:type rdf:resource="http://purl.org/dc/dcmitype/StillImage"/>
    <dc:date>2022-02-02T15:41:11.110434</dc:date>
    <dc:format>image/svg+xml</dc:format>
    <dc:creator>
     <cc:Agent>
      <dc:title>Matplotlib v3.3.3, https://matplotlib.org/</dc:title>
     </cc:Agent>
    </dc:creator>
   </cc:Work>
  </rdf:RDF>
 </metadata>
 <defs>
  <style type="text/css">*{stroke-linecap:butt;stroke-linejoin:round;}</style>
 </defs>
 <g id="figure_1">
  <g id="patch_1">
   <path d="M 0 345.6 
L 460.8 345.6 
L 460.8 0 
L 0 0 
z
" style="fill:#ffffff;"/>
  </g>
  <g id="axes_1">
   <g id="patch_2">
    <path d="M 57.6 298.944 
L 360.8064 298.944 
L 360.8064 6.912 
L 57.6 6.912 
z
" style="fill:#ffffff;"/>
   </g>
   <g id="matplotlib.axis_1">
    <g id="xtick_1">
     <g id="line2d_1">
      <path clip-path="url(#p7e372c4d36)" d="M 57.6 298.944 
L 57.6 6.912 
" style="fill:none;stroke:#b0b0b0;stroke-linecap:square;stroke-width:0.8;"/>
     </g>
     <g id="line2d_2">
      <defs>
       <path d="M 0 0 
L 0 3.5 
" id="mbedb7eab37" style="stroke:#000000;stroke-width:0.8;"/>
      </defs>
      <g>
       <use style="stroke:#000000;stroke-width:0.8;" x="57.6" xlink:href="#mbedb7eab37" y="298.944"/>
      </g>
     </g>
     <g id="text_1">
      <!-- 0 -->
      <g transform="translate(52.191875 318.861344)scale(0.17 -0.17)">
       <defs>
        <path d="M 31.78125 66.40625 
Q 24.171875 66.40625 20.328125 58.90625 
Q 16.5 51.421875 16.5 36.375 
Q 16.5 21.390625 20.328125 13.890625 
Q 24.171875 6.390625 31.78125 6.390625 
Q 39.453125 6.390625 43.28125 13.890625 
Q 47.125 21.390625 47.125 36.375 
Q 47.125 51.421875 43.28125 58.90625 
Q 39.453125 66.40625 31.78125 66.40625 
z
M 31.78125 74.21875 
Q 44.046875 74.21875 50.515625 64.515625 
Q 56.984375 54.828125 56.984375 36.375 
Q 56.984375 17.96875 50.515625 8.265625 
Q 44.046875 -1.421875 31.78125 -1.421875 
Q 19.53125 -1.421875 13.0625 8.265625 
Q 6.59375 17.96875 6.59375 36.375 
Q 6.59375 54.828125 13.0625 64.515625 
Q 19.53125 74.21875 31.78125 74.21875 
z
" id="DejaVuSans-48"/>
       </defs>
       <use xlink:href="#DejaVuSans-48"/>
      </g>
     </g>
    </g>
    <g id="xtick_2">
     <g id="line2d_3">
      <path clip-path="url(#p7e372c4d36)" d="M 144.2304 298.944 
L 144.2304 6.912 
" style="fill:none;stroke:#b0b0b0;stroke-linecap:square;stroke-width:0.8;"/>
     </g>
     <g id="line2d_4">
      <g>
       <use style="stroke:#000000;stroke-width:0.8;" x="144.2304" xlink:href="#mbedb7eab37" y="298.944"/>
      </g>
     </g>
     <g id="text_2">
      <!-- 2 -->
      <g transform="translate(138.822275 318.861344)scale(0.17 -0.17)">
       <defs>
        <path d="M 19.1875 8.296875 
L 53.609375 8.296875 
L 53.609375 0 
L 7.328125 0 
L 7.328125 8.296875 
Q 12.9375 14.109375 22.625 23.890625 
Q 32.328125 33.6875 34.8125 36.53125 
Q 39.546875 41.84375 41.421875 45.53125 
Q 43.3125 49.21875 43.3125 52.78125 
Q 43.3125 58.59375 39.234375 62.25 
Q 35.15625 65.921875 28.609375 65.921875 
Q 23.96875 65.921875 18.8125 64.3125 
Q 13.671875 62.703125 7.8125 59.421875 
L 7.8125 69.390625 
Q 13.765625 71.78125 18.9375 73 
Q 24.125 74.21875 28.421875 74.21875 
Q 39.75 74.21875 46.484375 68.546875 
Q 53.21875 62.890625 53.21875 53.421875 
Q 53.21875 48.921875 51.53125 44.890625 
Q 49.859375 40.875 45.40625 35.40625 
Q 44.1875 33.984375 37.640625 27.21875 
Q 31.109375 20.453125 19.1875 8.296875 
z
" id="DejaVuSans-50"/>
       </defs>
       <use xlink:href="#DejaVuSans-50"/>
      </g>
     </g>
    </g>
    <g id="xtick_3">
     <g id="line2d_5">
      <path clip-path="url(#p7e372c4d36)" d="M 230.8608 298.944 
L 230.8608 6.912 
" style="fill:none;stroke:#b0b0b0;stroke-linecap:square;stroke-width:0.8;"/>
     </g>
     <g id="line2d_6">
      <g>
       <use style="stroke:#000000;stroke-width:0.8;" x="230.8608" xlink:href="#mbedb7eab37" y="298.944"/>
      </g>
     </g>
     <g id="text_3">
      <!-- 4 -->
      <g transform="translate(225.452675 318.861344)scale(0.17 -0.17)">
       <defs>
        <path d="M 37.796875 64.3125 
L 12.890625 25.390625 
L 37.796875 25.390625 
z
M 35.203125 72.90625 
L 47.609375 72.90625 
L 47.609375 25.390625 
L 58.015625 25.390625 
L 58.015625 17.1875 
L 47.609375 17.1875 
L 47.609375 0 
L 37.796875 0 
L 37.796875 17.1875 
L 4.890625 17.1875 
L 4.890625 26.703125 
z
" id="DejaVuSans-52"/>
       </defs>
       <use xlink:href="#DejaVuSans-52"/>
      </g>
     </g>
    </g>
    <g id="xtick_4">
     <g id="line2d_7">
      <path clip-path="url(#p7e372c4d36)" d="M 317.4912 298.944 
L 317.4912 6.912 
" style="fill:none;stroke:#b0b0b0;stroke-linecap:square;stroke-width:0.8;"/>
     </g>
     <g id="line2d_8">
      <g>
       <use style="stroke:#000000;stroke-width:0.8;" x="317.4912" xlink:href="#mbedb7eab37" y="298.944"/>
      </g>
     </g>
     <g id="text_4">
      <!-- 6 -->
      <g transform="translate(312.083075 318.861344)scale(0.17 -0.17)">
       <defs>
        <path d="M 33.015625 40.375 
Q 26.375 40.375 22.484375 35.828125 
Q 18.609375 31.296875 18.609375 23.390625 
Q 18.609375 15.53125 22.484375 10.953125 
Q 26.375 6.390625 33.015625 6.390625 
Q 39.65625 6.390625 43.53125 10.953125 
Q 47.40625 15.53125 47.40625 23.390625 
Q 47.40625 31.296875 43.53125 35.828125 
Q 39.65625 40.375 33.015625 40.375 
z
M 52.59375 71.296875 
L 52.59375 62.3125 
Q 48.875 64.0625 45.09375 64.984375 
Q 41.3125 65.921875 37.59375 65.921875 
Q 27.828125 65.921875 22.671875 59.328125 
Q 17.53125 52.734375 16.796875 39.40625 
Q 19.671875 43.65625 24.015625 45.921875 
Q 28.375 48.1875 33.59375 48.1875 
Q 44.578125 48.1875 50.953125 41.515625 
Q 57.328125 34.859375 57.328125 23.390625 
Q 57.328125 12.15625 50.6875 5.359375 
Q 44.046875 -1.421875 33.015625 -1.421875 
Q 20.359375 -1.421875 13.671875 8.265625 
Q 6.984375 17.96875 6.984375 36.375 
Q 6.984375 53.65625 15.1875 63.9375 
Q 23.390625 74.21875 37.203125 74.21875 
Q 40.921875 74.21875 44.703125 73.484375 
Q 48.484375 72.75 52.59375 71.296875 
z
" id="DejaVuSans-54"/>
       </defs>
       <use xlink:href="#DejaVuSans-54"/>
      </g>
     </g>
    </g>
    <g id="xtick_5">
     <g id="line2d_9">
      <path clip-path="url(#p7e372c4d36)" d="M 100.9152 298.944 
L 100.9152 6.912 
" style="fill:none;stroke:#b0b0b0;stroke-linecap:square;stroke-width:0.8;"/>
     </g>
     <g id="line2d_10">
      <defs>
       <path d="M 0 0 
L 0 2 
" id="md8769a8c3e" style="stroke:#000000;stroke-width:0.6;"/>
      </defs>
      <g>
       <use style="stroke:#000000;stroke-width:0.6;" x="100.9152" xlink:href="#md8769a8c3e" y="298.944"/>
      </g>
     </g>
    </g>
    <g id="xtick_6">
     <g id="line2d_11">
      <path clip-path="url(#p7e372c4d36)" d="M 187.5456 298.944 
L 187.5456 6.912 
" style="fill:none;stroke:#b0b0b0;stroke-linecap:square;stroke-width:0.8;"/>
     </g>
     <g id="line2d_12">
      <g>
       <use style="stroke:#000000;stroke-width:0.6;" x="187.5456" xlink:href="#md8769a8c3e" y="298.944"/>
      </g>
     </g>
    </g>
    <g id="xtick_7">
     <g id="line2d_13">
      <path clip-path="url(#p7e372c4d36)" d="M 274.176 298.944 
L 274.176 6.912 
" style="fill:none;stroke:#b0b0b0;stroke-linecap:square;stroke-width:0.8;"/>
     </g>
     <g id="line2d_14">
      <g>
       <use style="stroke:#000000;stroke-width:0.6;" x="274.176" xlink:href="#md8769a8c3e" y="298.944"/>
      </g>
     </g>
    </g>
    <g id="xtick_8">
     <g id="line2d_15">
      <path clip-path="url(#p7e372c4d36)" d="M 360.8064 298.944 
L 360.8064 6.912 
" style="fill:none;stroke:#b0b0b0;stroke-linecap:square;stroke-width:0.8;"/>
     </g>
     <g id="line2d_16">
      <g>
       <use style="stroke:#000000;stroke-width:0.6;" x="360.8064" xlink:href="#md8769a8c3e" y="298.944"/>
      </g>
     </g>
    </g>
    <g id="text_5">
     <!-- log10(evals / dimension) -->
     <g transform="translate(104.238825 339.314156)scale(0.17 -0.17)">
      <defs>
       <path d="M 9.421875 75.984375 
L 18.40625 75.984375 
L 18.40625 0 
L 9.421875 0 
z
" id="DejaVuSans-108"/>
       <path d="M 30.609375 48.390625 
Q 23.390625 48.390625 19.1875 42.75 
Q 14.984375 37.109375 14.984375 27.296875 
Q 14.984375 17.484375 19.15625 11.84375 
Q 23.34375 6.203125 30.609375 6.203125 
Q 37.796875 6.203125 41.984375 11.859375 
Q 46.1875 17.53125 46.1875 27.296875 
Q 46.1875 37.015625 41.984375 42.703125 
Q 37.796875 48.390625 30.609375 48.390625 
z
M 30.609375 56 
Q 42.328125 56 49.015625 48.375 
Q 55.71875 40.765625 55.71875 27.296875 
Q 55.71875 13.875 49.015625 6.21875 
Q 42.328125 -1.421875 30.609375 -1.421875 
Q 18.84375 -1.421875 12.171875 6.21875 
Q 5.515625 13.875 5.515625 27.296875 
Q 5.515625 40.765625 12.171875 48.375 
Q 18.84375 56 30.609375 56 
z
" id="DejaVuSans-111"/>
       <path d="M 45.40625 27.984375 
Q 45.40625 37.75 41.375 43.109375 
Q 37.359375 48.484375 30.078125 48.484375 
Q 22.859375 48.484375 18.828125 43.109375 
Q 14.796875 37.75 14.796875 27.984375 
Q 14.796875 18.265625 18.828125 12.890625 
Q 22.859375 7.515625 30.078125 7.515625 
Q 37.359375 7.515625 41.375 12.890625 
Q 45.40625 18.265625 45.40625 27.984375 
z
M 54.390625 6.78125 
Q 54.390625 -7.171875 48.1875 -13.984375 
Q 42 -20.796875 29.203125 -20.796875 
Q 24.46875 -20.796875 20.265625 -20.09375 
Q 16.0625 -19.390625 12.109375 -17.921875 
L 12.109375 -9.1875 
Q 16.0625 -11.328125 19.921875 -12.34375 
Q 23.78125 -13.375 27.78125 -13.375 
Q 36.625 -13.375 41.015625 -8.765625 
Q 45.40625 -4.15625 45.40625 5.171875 
L 45.40625 9.625 
Q 42.625 4.78125 38.28125 2.390625 
Q 33.9375 0 27.875 0 
Q 17.828125 0 11.671875 7.65625 
Q 5.515625 15.328125 5.515625 27.984375 
Q 5.515625 40.671875 11.671875 48.328125 
Q 17.828125 56 27.875 56 
Q 33.9375 56 38.28125 53.609375 
Q 42.625 51.21875 45.40625 46.390625 
L 45.40625 54.6875 
L 54.390625 54.6875 
z
" id="DejaVuSans-103"/>
       <path d="M 12.40625 8.296875 
L 28.515625 8.296875 
L 28.515625 63.921875 
L 10.984375 60.40625 
L 10.984375 69.390625 
L 28.421875 72.90625 
L 38.28125 72.90625 
L 38.28125 8.296875 
L 54.390625 8.296875 
L 54.390625 0 
L 12.40625 0 
z
" id="DejaVuSans-49"/>
       <path d="M 31 75.875 
Q 24.46875 64.65625 21.28125 53.65625 
Q 18.109375 42.671875 18.109375 31.390625 
Q 18.109375 20.125 21.3125 9.0625 
Q 24.515625 -2 31 -13.1875 
L 23.1875 -13.1875 
Q 15.875 -1.703125 12.234375 9.375 
Q 8.59375 20.453125 8.59375 31.390625 
Q 8.59375 42.28125 12.203125 53.3125 
Q 15.828125 64.359375 23.1875 75.875 
z
" id="DejaVuSans-40"/>
       <path d="M 56.203125 29.59375 
L 56.203125 25.203125 
L 14.890625 25.203125 
Q 15.484375 15.921875 20.484375 11.0625 
Q 25.484375 6.203125 34.421875 6.203125 
Q 39.59375 6.203125 44.453125 7.46875 
Q 49.3125 8.734375 54.109375 11.28125 
L 54.109375 2.78125 
Q 49.265625 0.734375 44.1875 -0.34375 
Q 39.109375 -1.421875 33.890625 -1.421875 
Q 20.796875 -1.421875 13.15625 6.1875 
Q 5.515625 13.8125 5.515625 26.8125 
Q 5.515625 40.234375 12.765625 48.109375 
Q 20.015625 56 32.328125 56 
Q 43.359375 56 49.78125 48.890625 
Q 56.203125 41.796875 56.203125 29.59375 
z
M 47.21875 32.234375 
Q 47.125 39.59375 43.09375 43.984375 
Q 39.0625 48.390625 32.421875 48.390625 
Q 24.90625 48.390625 20.390625 44.140625 
Q 15.875 39.890625 15.1875 32.171875 
z
" id="DejaVuSans-101"/>
       <path d="M 2.984375 54.6875 
L 12.5 54.6875 
L 29.59375 8.796875 
L 46.6875 54.6875 
L 56.203125 54.6875 
L 35.6875 0 
L 23.484375 0 
z
" id="DejaVuSans-118"/>
       <path d="M 34.28125 27.484375 
Q 23.390625 27.484375 19.1875 25 
Q 14.984375 22.515625 14.984375 16.5 
Q 14.984375 11.71875 18.140625 8.90625 
Q 21.296875 6.109375 26.703125 6.109375 
Q 34.1875 6.109375 38.703125 11.40625 
Q 43.21875 16.703125 43.21875 25.484375 
L 43.21875 27.484375 
z
M 52.203125 31.203125 
L 52.203125 0 
L 43.21875 0 
L 43.21875 8.296875 
Q 40.140625 3.328125 35.546875 0.953125 
Q 30.953125 -1.421875 24.3125 -1.421875 
Q 15.921875 -1.421875 10.953125 3.296875 
Q 6 8.015625 6 15.921875 
Q 6 25.140625 12.171875 29.828125 
Q 18.359375 34.515625 30.609375 34.515625 
L 43.21875 34.515625 
L 43.21875 35.40625 
Q 43.21875 41.609375 39.140625 45 
Q 35.0625 48.390625 27.6875 48.390625 
Q 23 48.390625 18.546875 47.265625 
Q 14.109375 46.140625 10.015625 43.890625 
L 10.015625 52.203125 
Q 14.9375 54.109375 19.578125 55.046875 
Q 24.21875 56 28.609375 56 
Q 40.484375 56 46.34375 49.84375 
Q 52.203125 43.703125 52.203125 31.203125 
z
" id="DejaVuSans-97"/>
       <path d="M 44.28125 53.078125 
L 44.28125 44.578125 
Q 40.484375 46.53125 36.375 47.5 
Q 32.28125 48.484375 27.875 48.484375 
Q 21.1875 48.484375 17.84375 46.4375 
Q 14.5 44.390625 14.5 40.28125 
Q 14.5 37.15625 16.890625 35.375 
Q 19.28125 33.59375 26.515625 31.984375 
L 29.59375 31.296875 
Q 39.15625 29.25 43.1875 25.515625 
Q 47.21875 21.78125 47.21875 15.09375 
Q 47.21875 7.46875 41.1875 3.015625 
Q 35.15625 -1.421875 24.609375 -1.421875 
Q 20.21875 -1.421875 15.453125 -0.5625 
Q 10.6875 0.296875 5.421875 2 
L 5.421875 11.28125 
Q 10.40625 8.6875 15.234375 7.390625 
Q 20.0625 6.109375 24.8125 6.109375 
Q 31.15625 6.109375 34.5625 8.28125 
Q 37.984375 10.453125 37.984375 14.40625 
Q 37.984375 18.0625 35.515625 20.015625 
Q 33.0625 21.96875 24.703125 23.78125 
L 21.578125 24.515625 
Q 13.234375 26.265625 9.515625 29.90625 
Q 5.8125 33.546875 5.8125 39.890625 
Q 5.8125 47.609375 11.28125 51.796875 
Q 16.75 56 26.8125 56 
Q 31.78125 56 36.171875 55.265625 
Q 40.578125 54.546875 44.28125 53.078125 
z
" id="DejaVuSans-115"/>
       <path id="DejaVuSans-32"/>
       <path d="M 25.390625 72.90625 
L 33.6875 72.90625 
L 8.296875 -9.28125 
L 0 -9.28125 
z
" id="DejaVuSans-47"/>
       <path d="M 45.40625 46.390625 
L 45.40625 75.984375 
L 54.390625 75.984375 
L 54.390625 0 
L 45.40625 0 
L 45.40625 8.203125 
Q 42.578125 3.328125 38.25 0.953125 
Q 33.9375 -1.421875 27.875 -1.421875 
Q 17.96875 -1.421875 11.734375 6.484375 
Q 5.515625 14.40625 5.515625 27.296875 
Q 5.515625 40.1875 11.734375 48.09375 
Q 17.96875 56 27.875 56 
Q 33.9375 56 38.25 53.625 
Q 42.578125 51.265625 45.40625 46.390625 
z
M 14.796875 27.296875 
Q 14.796875 17.390625 18.875 11.75 
Q 22.953125 6.109375 30.078125 6.109375 
Q 37.203125 6.109375 41.296875 11.75 
Q 45.40625 17.390625 45.40625 27.296875 
Q 45.40625 37.203125 41.296875 42.84375 
Q 37.203125 48.484375 30.078125 48.484375 
Q 22.953125 48.484375 18.875 42.84375 
Q 14.796875 37.203125 14.796875 27.296875 
z
" id="DejaVuSans-100"/>
       <path d="M 9.421875 54.6875 
L 18.40625 54.6875 
L 18.40625 0 
L 9.421875 0 
z
M 9.421875 75.984375 
L 18.40625 75.984375 
L 18.40625 64.59375 
L 9.421875 64.59375 
z
" id="DejaVuSans-105"/>
       <path d="M 52 44.1875 
Q 55.375 50.25 60.0625 53.125 
Q 64.75 56 71.09375 56 
Q 79.640625 56 84.28125 50.015625 
Q 88.921875 44.046875 88.921875 33.015625 
L 88.921875 0 
L 79.890625 0 
L 79.890625 32.71875 
Q 79.890625 40.578125 77.09375 44.375 
Q 74.3125 48.1875 68.609375 48.1875 
Q 61.625 48.1875 57.5625 43.546875 
Q 53.515625 38.921875 53.515625 30.90625 
L 53.515625 0 
L 44.484375 0 
L 44.484375 32.71875 
Q 44.484375 40.625 41.703125 44.40625 
Q 38.921875 48.1875 33.109375 48.1875 
Q 26.21875 48.1875 22.15625 43.53125 
Q 18.109375 38.875 18.109375 30.90625 
L 18.109375 0 
L 9.078125 0 
L 9.078125 54.6875 
L 18.109375 54.6875 
L 18.109375 46.1875 
Q 21.1875 51.21875 25.484375 53.609375 
Q 29.78125 56 35.6875 56 
Q 41.65625 56 45.828125 52.96875 
Q 50 49.953125 52 44.1875 
z
" id="DejaVuSans-109"/>
       <path d="M 54.890625 33.015625 
L 54.890625 0 
L 45.90625 0 
L 45.90625 32.71875 
Q 45.90625 40.484375 42.875 44.328125 
Q 39.84375 48.1875 33.796875 48.1875 
Q 26.515625 48.1875 22.3125 43.546875 
Q 18.109375 38.921875 18.109375 30.90625 
L 18.109375 0 
L 9.078125 0 
L 9.078125 54.6875 
L 18.109375 54.6875 
L 18.109375 46.1875 
Q 21.34375 51.125 25.703125 53.5625 
Q 30.078125 56 35.796875 56 
Q 45.21875 56 50.046875 50.171875 
Q 54.890625 44.34375 54.890625 33.015625 
z
" id="DejaVuSans-110"/>
       <path d="M 8.015625 75.875 
L 15.828125 75.875 
Q 23.140625 64.359375 26.78125 53.3125 
Q 30.421875 42.28125 30.421875 31.390625 
Q 30.421875 20.453125 26.78125 9.375 
Q 23.140625 -1.703125 15.828125 -13.1875 
L 8.015625 -13.1875 
Q 14.5 -2 17.703125 9.0625 
Q 20.90625 20.125 20.90625 31.390625 
Q 20.90625 42.671875 17.703125 53.65625 
Q 14.5 64.65625 8.015625 75.875 
z
" id="DejaVuSans-41"/>
      </defs>
      <use xlink:href="#DejaVuSans-108"/>
      <use x="27.783203" xlink:href="#DejaVuSans-111"/>
      <use x="88.964844" xlink:href="#DejaVuSans-103"/>
      <use x="152.441406" xlink:href="#DejaVuSans-49"/>
      <use x="216.064453" xlink:href="#DejaVuSans-48"/>
      <use x="279.6875" xlink:href="#DejaVuSans-40"/>
      <use x="318.701172" xlink:href="#DejaVuSans-101"/>
      <use x="380.224609" xlink:href="#DejaVuSans-118"/>
      <use x="439.404297" xlink:href="#DejaVuSans-97"/>
      <use x="500.683594" xlink:href="#DejaVuSans-108"/>
      <use x="528.466797" xlink:href="#DejaVuSans-115"/>
      <use x="580.566406" xlink:href="#DejaVuSans-32"/>
      <use x="612.353516" xlink:href="#DejaVuSans-47"/>
      <use x="646.044922" xlink:href="#DejaVuSans-32"/>
      <use x="677.832031" xlink:href="#DejaVuSans-100"/>
      <use x="741.308594" xlink:href="#DejaVuSans-105"/>
      <use x="769.091797" xlink:href="#DejaVuSans-109"/>
      <use x="866.503906" xlink:href="#DejaVuSans-101"/>
      <use x="928.027344" xlink:href="#DejaVuSans-110"/>
      <use x="991.40625" xlink:href="#DejaVuSans-115"/>
      <use x="1043.505859" xlink:href="#DejaVuSans-105"/>
      <use x="1071.289062" xlink:href="#DejaVuSans-111"/>
      <use x="1132.470703" xlink:href="#DejaVuSans-110"/>
      <use x="1195.849609" xlink:href="#DejaVuSans-41"/>
     </g>
    </g>
   </g>
   <g id="matplotlib.axis_2">
    <g id="ytick_1">
     <g id="line2d_17">
      <path clip-path="url(#p7e372c4d36)" d="M 57.6 298.944 
L 360.8064 298.944 
" style="fill:none;stroke:#b0b0b0;stroke-linecap:square;stroke-width:0.8;"/>
     </g>
     <g id="line2d_18">
      <defs>
       <path d="M 0 0 
L -3.5 0 
" id="m043cd42116" style="stroke:#000000;stroke-width:0.8;"/>
      </defs>
      <g>
       <use style="stroke:#000000;stroke-width:0.8;" x="57.6" xlink:href="#m043cd42116" y="298.944"/>
      </g>
     </g>
     <g id="text_6">
      <!-- 0.0 -->
      <g transform="translate(25.155 305.02275)scale(0.16 -0.16)">
       <defs>
        <path d="M 10.6875 12.40625 
L 21 12.40625 
L 21 0 
L 10.6875 0 
z
" id="DejaVuSans-46"/>
       </defs>
       <use xlink:href="#DejaVuSans-48"/>
       <use x="63.623047" xlink:href="#DejaVuSans-46"/>
       <use x="95.410156" xlink:href="#DejaVuSans-48"/>
      </g>
     </g>
    </g>
    <g id="ytick_2">
     <g id="line2d_19">
      <path clip-path="url(#p7e372c4d36)" d="M 57.6 240.5376 
L 360.8064 240.5376 
" style="fill:none;stroke:#b0b0b0;stroke-linecap:square;stroke-width:0.8;"/>
     </g>
     <g id="line2d_20">
      <g>
       <use style="stroke:#000000;stroke-width:0.8;" x="57.6" xlink:href="#m043cd42116" y="240.5376"/>
      </g>
     </g>
     <g id="text_7">
      <!-- 0.2 -->
      <g transform="translate(25.155 246.61635)scale(0.16 -0.16)">
       <use xlink:href="#DejaVuSans-48"/>
       <use x="63.623047" xlink:href="#DejaVuSans-46"/>
       <use x="95.410156" xlink:href="#DejaVuSans-50"/>
      </g>
     </g>
    </g>
    <g id="ytick_3">
     <g id="line2d_21">
      <path clip-path="url(#p7e372c4d36)" d="M 57.6 182.1312 
L 360.8064 182.1312 
" style="fill:none;stroke:#b0b0b0;stroke-linecap:square;stroke-width:0.8;"/>
     </g>
     <g id="line2d_22">
      <g>
       <use style="stroke:#000000;stroke-width:0.8;" x="57.6" xlink:href="#m043cd42116" y="182.1312"/>
      </g>
     </g>
     <g id="text_8">
      <!-- 0.4 -->
      <g transform="translate(25.155 188.20995)scale(0.16 -0.16)">
       <use xlink:href="#DejaVuSans-48"/>
       <use x="63.623047" xlink:href="#DejaVuSans-46"/>
       <use x="95.410156" xlink:href="#DejaVuSans-52"/>
      </g>
     </g>
    </g>
    <g id="ytick_4">
     <g id="line2d_23">
      <path clip-path="url(#p7e372c4d36)" d="M 57.6 123.7248 
L 360.8064 123.7248 
" style="fill:none;stroke:#b0b0b0;stroke-linecap:square;stroke-width:0.8;"/>
     </g>
     <g id="line2d_24">
      <g>
       <use style="stroke:#000000;stroke-width:0.8;" x="57.6" xlink:href="#m043cd42116" y="123.7248"/>
      </g>
     </g>
     <g id="text_9">
      <!-- 0.6 -->
      <g transform="translate(25.155 129.80355)scale(0.16 -0.16)">
       <use xlink:href="#DejaVuSans-48"/>
       <use x="63.623047" xlink:href="#DejaVuSans-46"/>
       <use x="95.410156" xlink:href="#DejaVuSans-54"/>
      </g>
     </g>
    </g>
    <g id="ytick_5">
     <g id="line2d_25">
      <path clip-path="url(#p7e372c4d36)" d="M 57.6 65.3184 
L 360.8064 65.3184 
" style="fill:none;stroke:#b0b0b0;stroke-linecap:square;stroke-width:0.8;"/>
     </g>
     <g id="line2d_26">
      <g>
       <use style="stroke:#000000;stroke-width:0.8;" x="57.6" xlink:href="#m043cd42116" y="65.3184"/>
      </g>
     </g>
     <g id="text_10">
      <!-- 0.8 -->
      <g transform="translate(25.155 71.39715)scale(0.16 -0.16)">
       <defs>
        <path d="M 31.78125 34.625 
Q 24.75 34.625 20.71875 30.859375 
Q 16.703125 27.09375 16.703125 20.515625 
Q 16.703125 13.921875 20.71875 10.15625 
Q 24.75 6.390625 31.78125 6.390625 
Q 38.8125 6.390625 42.859375 10.171875 
Q 46.921875 13.96875 46.921875 20.515625 
Q 46.921875 27.09375 42.890625 30.859375 
Q 38.875 34.625 31.78125 34.625 
z
M 21.921875 38.8125 
Q 15.578125 40.375 12.03125 44.71875 
Q 8.5 49.078125 8.5 55.328125 
Q 8.5 64.0625 14.71875 69.140625 
Q 20.953125 74.21875 31.78125 74.21875 
Q 42.671875 74.21875 48.875 69.140625 
Q 55.078125 64.0625 55.078125 55.328125 
Q 55.078125 49.078125 51.53125 44.71875 
Q 48 40.375 41.703125 38.8125 
Q 48.828125 37.15625 52.796875 32.3125 
Q 56.78125 27.484375 56.78125 20.515625 
Q 56.78125 9.90625 50.3125 4.234375 
Q 43.84375 -1.421875 31.78125 -1.421875 
Q 19.734375 -1.421875 13.25 4.234375 
Q 6.78125 9.90625 6.78125 20.515625 
Q 6.78125 27.484375 10.78125 32.3125 
Q 14.796875 37.15625 21.921875 38.8125 
z
M 18.3125 54.390625 
Q 18.3125 48.734375 21.84375 45.5625 
Q 25.390625 42.390625 31.78125 42.390625 
Q 38.140625 42.390625 41.71875 45.5625 
Q 45.3125 48.734375 45.3125 54.390625 
Q 45.3125 60.0625 41.71875 63.234375 
Q 38.140625 66.40625 31.78125 66.40625 
Q 25.390625 66.40625 21.84375 63.234375 
Q 18.3125 60.0625 18.3125 54.390625 
z
" id="DejaVuSans-56"/>
       </defs>
       <use xlink:href="#DejaVuSans-48"/>
       <use x="63.623047" xlink:href="#DejaVuSans-46"/>
       <use x="95.410156" xlink:href="#DejaVuSans-56"/>
      </g>
     </g>
    </g>
    <g id="ytick_6">
     <g id="line2d_27">
      <path clip-path="url(#p7e372c4d36)" d="M 57.6 6.912 
L 360.8064 6.912 
" style="fill:none;stroke:#b0b0b0;stroke-linecap:square;stroke-width:0.8;"/>
     </g>
     <g id="line2d_28">
      <g>
       <use style="stroke:#000000;stroke-width:0.8;" x="57.6" xlink:href="#m043cd42116" y="6.912"/>
      </g>
     </g>
     <g id="text_11">
      <!-- 1.0 -->
      <g transform="translate(25.155 12.99075)scale(0.16 -0.16)">
       <use xlink:href="#DejaVuSans-49"/>
       <use x="63.623047" xlink:href="#DejaVuSans-46"/>
       <use x="95.410156" xlink:href="#DejaVuSans-48"/>
      </g>
     </g>
    </g>
    <g id="text_12">
     <!-- Fraction of function,target pairs -->
     <g transform="translate(17.619531 287.313)rotate(-90)scale(0.17 -0.17)">
      <defs>
       <path d="M 9.8125 72.90625 
L 51.703125 72.90625 
L 51.703125 64.59375 
L 19.671875 64.59375 
L 19.671875 43.109375 
L 48.578125 43.109375 
L 48.578125 34.8125 
L 19.671875 34.8125 
L 19.671875 0 
L 9.8125 0 
z
" id="DejaVuSans-70"/>
       <path d="M 41.109375 46.296875 
Q 39.59375 47.171875 37.8125 47.578125 
Q 36.03125 48 33.890625 48 
Q 26.265625 48 22.1875 43.046875 
Q 18.109375 38.09375 18.109375 28.8125 
L 18.109375 0 
L 9.078125 0 
L 9.078125 54.6875 
L 18.109375 54.6875 
L 18.109375 46.1875 
Q 20.953125 51.171875 25.484375 53.578125 
Q 30.03125 56 36.53125 56 
Q 37.453125 56 38.578125 55.875 
Q 39.703125 55.765625 41.0625 55.515625 
z
" id="DejaVuSans-114"/>
       <path d="M 48.78125 52.59375 
L 48.78125 44.1875 
Q 44.96875 46.296875 41.140625 47.34375 
Q 37.3125 48.390625 33.40625 48.390625 
Q 24.65625 48.390625 19.8125 42.84375 
Q 14.984375 37.3125 14.984375 27.296875 
Q 14.984375 17.28125 19.8125 11.734375 
Q 24.65625 6.203125 33.40625 6.203125 
Q 37.3125 6.203125 41.140625 7.25 
Q 44.96875 8.296875 48.78125 10.40625 
L 48.78125 2.09375 
Q 45.015625 0.34375 40.984375 -0.53125 
Q 36.96875 -1.421875 32.421875 -1.421875 
Q 20.0625 -1.421875 12.78125 6.34375 
Q 5.515625 14.109375 5.515625 27.296875 
Q 5.515625 40.671875 12.859375 48.328125 
Q 20.21875 56 33.015625 56 
Q 37.15625 56 41.109375 55.140625 
Q 45.0625 54.296875 48.78125 52.59375 
z
" id="DejaVuSans-99"/>
       <path d="M 18.3125 70.21875 
L 18.3125 54.6875 
L 36.8125 54.6875 
L 36.8125 47.703125 
L 18.3125 47.703125 
L 18.3125 18.015625 
Q 18.3125 11.328125 20.140625 9.421875 
Q 21.96875 7.515625 27.59375 7.515625 
L 36.8125 7.515625 
L 36.8125 0 
L 27.59375 0 
Q 17.1875 0 13.234375 3.875 
Q 9.28125 7.765625 9.28125 18.015625 
L 9.28125 47.703125 
L 2.6875 47.703125 
L 2.6875 54.6875 
L 9.28125 54.6875 
L 9.28125 70.21875 
z
" id="DejaVuSans-116"/>
       <path d="M 37.109375 75.984375 
L 37.109375 68.5 
L 28.515625 68.5 
Q 23.6875 68.5 21.796875 66.546875 
Q 19.921875 64.59375 19.921875 59.515625 
L 19.921875 54.6875 
L 34.71875 54.6875 
L 34.71875 47.703125 
L 19.921875 47.703125 
L 19.921875 0 
L 10.890625 0 
L 10.890625 47.703125 
L 2.296875 47.703125 
L 2.296875 54.6875 
L 10.890625 54.6875 
L 10.890625 58.5 
Q 10.890625 67.625 15.140625 71.796875 
Q 19.390625 75.984375 28.609375 75.984375 
z
" id="DejaVuSans-102"/>
       <path d="M 8.5 21.578125 
L 8.5 54.6875 
L 17.484375 54.6875 
L 17.484375 21.921875 
Q 17.484375 14.15625 20.5 10.265625 
Q 23.53125 6.390625 29.59375 6.390625 
Q 36.859375 6.390625 41.078125 11.03125 
Q 45.3125 15.671875 45.3125 23.6875 
L 45.3125 54.6875 
L 54.296875 54.6875 
L 54.296875 0 
L 45.3125 0 
L 45.3125 8.40625 
Q 42.046875 3.421875 37.71875 1 
Q 33.40625 -1.421875 27.6875 -1.421875 
Q 18.265625 -1.421875 13.375 4.4375 
Q 8.5 10.296875 8.5 21.578125 
z
M 31.109375 56 
z
" id="DejaVuSans-117"/>
       <path d="M 11.71875 12.40625 
L 22.015625 12.40625 
L 22.015625 4 
L 14.015625 -11.625 
L 7.71875 -11.625 
L 11.71875 4 
z
" id="DejaVuSans-44"/>
       <path d="M 18.109375 8.203125 
L 18.109375 -20.796875 
L 9.078125 -20.796875 
L 9.078125 54.6875 
L 18.109375 54.6875 
L 18.109375 46.390625 
Q 20.953125 51.265625 25.265625 53.625 
Q 29.59375 56 35.59375 56 
Q 45.5625 56 51.78125 48.09375 
Q 58.015625 40.1875 58.015625 27.296875 
Q 58.015625 14.40625 51.78125 6.484375 
Q 45.5625 -1.421875 35.59375 -1.421875 
Q 29.59375 -1.421875 25.265625 0.953125 
Q 20.953125 3.328125 18.109375 8.203125 
z
M 48.6875 27.296875 
Q 48.6875 37.203125 44.609375 42.84375 
Q 40.53125 48.484375 33.40625 48.484375 
Q 26.265625 48.484375 22.1875 42.84375 
Q 18.109375 37.203125 18.109375 27.296875 
Q 18.109375 17.390625 22.1875 11.75 
Q 26.265625 6.109375 33.40625 6.109375 
Q 40.53125 6.109375 44.609375 11.75 
Q 48.6875 17.390625 48.6875 27.296875 
z
" id="DejaVuSans-112"/>
      </defs>
      <use xlink:href="#DejaVuSans-70"/>
      <use x="50.269531" xlink:href="#DejaVuSans-114"/>
      <use x="91.382812" xlink:href="#DejaVuSans-97"/>
      <use x="152.662109" xlink:href="#DejaVuSans-99"/>
      <use x="207.642578" xlink:href="#DejaVuSans-116"/>
      <use x="246.851562" xlink:href="#DejaVuSans-105"/>
      <use x="274.634766" xlink:href="#DejaVuSans-111"/>
      <use x="335.816406" xlink:href="#DejaVuSans-110"/>
      <use x="399.195312" xlink:href="#DejaVuSans-32"/>
      <use x="430.982422" xlink:href="#DejaVuSans-111"/>
      <use x="492.164062" xlink:href="#DejaVuSans-102"/>
      <use x="527.369141" xlink:href="#DejaVuSans-32"/>
      <use x="559.15625" xlink:href="#DejaVuSans-102"/>
      <use x="594.361328" xlink:href="#DejaVuSans-117"/>
      <use x="657.740234" xlink:href="#DejaVuSans-110"/>
      <use x="721.119141" xlink:href="#DejaVuSans-99"/>
      <use x="776.099609" xlink:href="#DejaVuSans-116"/>
      <use x="815.308594" xlink:href="#DejaVuSans-105"/>
      <use x="843.091797" xlink:href="#DejaVuSans-111"/>
      <use x="904.273438" xlink:href="#DejaVuSans-110"/>
      <use x="967.652344" xlink:href="#DejaVuSans-44"/>
      <use x="999.439453" xlink:href="#DejaVuSans-116"/>
      <use x="1038.648438" xlink:href="#DejaVuSans-97"/>
      <use x="1099.927734" xlink:href="#DejaVuSans-114"/>
      <use x="1139.291016" xlink:href="#DejaVuSans-103"/>
      <use x="1202.767578" xlink:href="#DejaVuSans-101"/>
      <use x="1264.291016" xlink:href="#DejaVuSans-116"/>
      <use x="1303.5" xlink:href="#DejaVuSans-32"/>
      <use x="1335.287109" xlink:href="#DejaVuSans-112"/>
      <use x="1398.763672" xlink:href="#DejaVuSans-97"/>
      <use x="1460.042969" xlink:href="#DejaVuSans-105"/>
      <use x="1487.826172" xlink:href="#DejaVuSans-114"/>
      <use x="1528.939453" xlink:href="#DejaVuSans-115"/>
     </g>
    </g>
   </g>
   <g id="line2d_29">
    <defs>
     <path d="M 0 1.5 
C 0.397805 1.5 0.77937 1.341951 1.06066 1.06066 
C 1.341951 0.77937 1.5 0.397805 1.5 0 
C 1.5 -0.397805 1.341951 -0.77937 1.06066 -1.06066 
C 0.77937 -1.341951 0.397805 -1.5 0 -1.5 
C -0.397805 -1.5 -0.77937 -1.341951 -1.06066 -1.06066 
C -1.341951 -0.77937 -1.5 -0.397805 -1.5 0 
C -1.5 0.397805 -1.341951 0.77937 -1.06066 1.06066 
C -0.77937 1.341951 -0.397805 1.5 0 1.5 
z
" id="m97f2e939d9" style="stroke:#000080;"/>
    </defs>
    <g>
     <use style="fill:#000080;stroke:#000080;" x="223.816794" xlink:href="#m97f2e939d9" y="6.912"/>
     <use style="fill:#000080;stroke:#000080;" x="223.816794" xlink:href="#m97f2e939d9" y="6.912"/>
    </g>
   </g>
   <g id="line2d_30">
    <path d="M 98.223251 298.944 
L 98.223251 298.469151 
L 100.9152 298.469151 
L 100.9152 298.231727 
L 102.12927 298.231727 
L 102.12927 296.094907 
L 104.344952 296.094907 
L 104.344952 295.857483 
L 105.36204 295.857483 
L 105.36204 294.907785 
L 106.326946 294.907785 
L 106.326946 293.00839 
L 107.244765 293.00839 
L 107.244765 292.770966 
L 108.119879 292.770966 
L 108.119879 289.921873 
L 108.956085 289.921873 
L 108.956085 289.684449 
L 109.756698 289.684449 
L 109.756698 287.310205 
L 110.524623 287.310205 
L 110.524623 286.835356 
L 111.262425 286.835356 
L 111.262425 285.41081 
L 111.97238 285.41081 
L 111.97238 283.511415 
L 112.656511 283.511415 
L 112.656511 283.27399 
L 113.316634 283.27399 
L 113.316634 282.561717 
L 113.954374 282.561717 
L 113.954374 282.086868 
L 114.571202 282.086868 
L 114.571202 280.899746 
L 115.168444 280.899746 
L 115.168444 279.950049 
L 115.747307 279.950049 
L 115.747307 279.712624 
L 116.308887 279.712624 
L 116.308887 278.050654 
L 116.854188 278.050654 
L 116.854188 274.726712 
L 117.384126 274.726712 
L 117.384126 274.251863 
L 117.899543 274.251863 
L 117.899543 272.827317 
L 118.401214 272.827317 
L 118.401214 272.589893 
L 118.889854 272.589893 
L 118.889854 272.352468 
L 119.366121 272.352468 
L 119.366121 271.87762 
L 119.830627 271.87762 
L 119.830627 270.690498 
L 120.726585 270.690498 
L 120.726585 270.453073 
L 121.159053 270.453073 
L 121.159053 269.978224 
L 121.581803 269.978224 
L 121.581803 268.553678 
L 121.99526 268.553678 
L 121.99526 267.841405 
L 122.399825 267.841405 
L 122.399825 264.517463 
L 122.795872 264.517463 
L 122.795872 262.380644 
L 123.183753 262.380644 
L 123.183753 260.481249 
L 123.936316 260.481249 
L 123.936316 260.0064 
L 124.3016 260.0064 
L 124.3016 258.819278 
L 125.35673 258.819278 
L 125.35673 258.581854 
L 125.695686 258.581854 
L 125.695686 257.632156 
L 126.028642 257.632156 
L 126.028642 256.919883 
L 126.355808 256.919883 
L 126.355808 256.682459 
L 126.677381 256.682459 
L 126.677381 255.970185 
L 127.304491 255.970185 
L 127.304491 254.783063 
L 127.610376 254.783063 
L 127.610376 254.07079 
L 127.911368 254.07079 
L 127.911368 252.883668 
L 128.207619 252.883668 
L 128.207619 251.459122 
L 128.499277 251.459122 
L 128.499277 250.984273 
L 129.069367 250.984273 
L 129.069367 250.272 
L 129.348062 250.272 
L 129.348062 247.897756 
L 129.893363 247.897756 
L 129.893363 245.760937 
L 130.160198 245.760937 
L 130.160198 244.33639 
L 130.938718 244.33639 
L 130.938718 244.098966 
L 131.440389 244.098966 
L 131.440389 243.624117 
L 131.929028 243.624117 
L 131.929028 243.386693 
L 132.168669 243.386693 
L 132.168669 242.911844 
L 132.405295 242.911844 
L 132.405295 242.67442 
L 132.638982 242.67442 
L 132.638982 240.775024 
L 133.545739 240.775024 
L 133.545739 240.062751 
L 133.765759 240.062751 
L 133.765759 239.350478 
L 134.198228 239.350478 
L 134.198228 239.113054 
L 134.41079 239.113054 
L 134.41079 238.875629 
L 134.620977 238.875629 
L 134.620977 238.638205 
L 134.828842 238.638205 
L 134.828842 238.40078 
L 135.237805 238.40078 
L 135.237805 236.976234 
L 135.638065 236.976234 
L 135.638065 234.839415 
L 135.835047 234.839415 
L 135.835047 234.127141 
L 136.602972 234.127141 
L 136.602972 233.889717 
L 136.97549 233.889717 
L 136.97549 233.177444 
L 138.224108 233.177444 
L 138.224108 232.702595 
L 141.173167 232.702595 
L 141.173167 232.227746 
L 141.754265 232.227746 
L 141.754265 231.752898 
L 142.178603 231.752898 
L 142.178603 230.8032 
L 142.593581 230.8032 
L 142.593581 229.378654 
L 142.729897 229.378654 
L 142.729897 228.428956 
L 142.865233 228.428956 
L 142.865233 227.954107 
L 142.999601 227.954107 
L 142.999601 227.479259 
L 143.397043 227.479259 
L 143.462475 224.86759 
L 143.52768 224.86759 
L 143.52768 223.20562 
L 143.786262 223.20562 
L 143.786262 221.0688 
L 143.977892 221.0688 
L 143.977892 220.831376 
L 144.293001 220.831376 
L 144.293001 220.593951 
L 144.417581 220.593951 
L 144.417581 220.356527 
L 144.541342 220.356527 
L 144.541342 220.119102 
L 144.664294 220.119102 
L 144.664294 219.169405 
L 144.786447 219.169405 
L 144.786447 217.744859 
L 144.907812 217.744859 
L 144.907812 215.845463 
L 145.0284 215.845463 
L 145.0284 215.370615 
L 145.26728 215.370615 
L 145.26728 214.183493 
L 145.385592 214.183493 
L 145.385592 213.946068 
L 145.620007 213.946068 
L 145.620007 211.809249 
L 145.966241 211.809249 
L 145.966241 209.672429 
L 146.080251 209.672429 
L 146.080251 209.19758 
L 146.306218 209.19758 
L 146.306218 208.960156 
L 146.418192 208.960156 
L 146.418192 208.722732 
L 146.529503 208.722732 
L 146.64016 206.823337 
L 146.750169 206.823337 
L 146.859539 204.686517 
L 146.968277 204.686517 
L 146.968277 204.449093 
L 147.183884 204.449093 
L 147.290768 202.787122 
L 147.397049 202.787122 
L 147.502732 200.175454 
L 147.660152 200.175454 
L 147.712333 198.038634 
L 147.816265 198.038634 
L 147.919625 195.189541 
L 148.022421 195.189541 
L 148.124658 191.628176 
L 148.32748 191.628176 
L 148.428077 191.153327 
L 148.528138 191.153327 
L 148.627671 189.72878 
L 148.726679 189.72878 
L 148.726679 188.06681 
L 148.923146 188.06681 
L 148.923146 187.829385 
L 149.117582 187.829385 
L 149.214052 185.692566 
L 149.31003 185.692566 
L 149.31003 185.455141 
L 149.595059 185.455141 
L 149.689117 183.080898 
L 149.782707 183.080898 
L 149.875833 181.893776 
L 150.014665 181.893776 
L 150.060715 181.181502 
L 150.152479 181.181502 
L 150.243797 177.620137 
L 150.425115 177.620137 
L 150.515122 176.907863 
L 150.693856 176.907863 
L 150.738275 175.958166 
L 150.870907 175.958166 
L 150.870907 175.245893 
L 151.046307 175.245893 
L 151.046307 173.346498 
L 151.306379 173.346498 
L 151.306379 172.3968 
L 151.477784 172.3968 
L 151.477784 170.497405 
L 151.60532 170.497405 
L 151.60532 170.25998 
L 152.230346 170.25998 
L 152.230346 168.59801 
L 152.555392 168.59801 
L 152.635783 165.036644 
L 153.266838 165.036644 
L 153.266838 164.324371 
L 154.027004 164.324371 
L 154.027004 163.137249 
L 154.322673 163.137249 
L 154.39587 161.000429 
L 154.757642 161.000429 
L 154.757642 160.763005 
L 154.900425 160.763005 
L 154.900425 159.813307 
L 155.042132 159.813307 
L 155.112587 157.913912 
L 155.735085 157.913912 
L 155.735085 157.439063 
L 155.870664 157.439063 
L 155.870664 157.201639 
L 156.138926 157.201639 
L 156.138926 156.489366 
L 156.403417 156.489366 
L 156.403417 154.589971 
L 156.728884 154.589971 
L 156.761123 153.877698 
L 156.985263 153.877698 
L 157.048816 152.928 
L 157.112155 152.928 
L 157.112155 151.503454 
L 157.238196 151.503454 
L 157.238196 151.266029 
L 157.363398 151.266029 
L 157.363398 150.553756 
L 157.487772 150.553756 
L 157.487772 150.078907 
L 157.734081 150.078907 
L 157.734081 149.366634 
L 157.856036 149.366634 
L 157.856036 149.12921 
L 158.0375 149.12921 
L 158.0375 148.891785 
L 158.15751 148.891785 
L 158.15751 148.654361 
L 158.454228 148.654361 
L 158.454228 148.416937 
L 158.861925 148.416937 
L 158.919453 147.704663 
L 159.232748 147.704663 
L 159.260973 147.229815 
L 159.596403 147.229815 
L 159.706897 146.754966 
L 159.871431 146.754966 
L 159.871431 146.517541 
L 160.303279 146.517541 
L 160.356569 146.042693 
L 160.515541 146.042693 
L 160.620781 145.567844 
L 160.673181 145.567844 
L 160.777545 145.092995 
L 160.82951 145.092995 
L 160.881333 143.905873 
L 161.138325 143.905873 
L 161.240147 142.243902 
L 161.542347 142.243902 
L 161.542347 141.531629 
L 161.666845 141.531629 
L 161.666845 141.294205 
L 161.986735 141.294205 
L 161.986735 140.344507 
L 162.180921 140.344507 
L 162.229155 139.632234 
L 162.420867 139.632234 
L 162.515995 138.919961 
L 162.798527 138.919961 
L 162.798527 138.682537 
L 162.984551 138.682537 
L 162.984551 138.445112 
L 163.237368 138.445112 
L 163.282972 137.25799 
L 163.419123 137.25799 
L 163.419123 136.070868 
L 163.531835 136.070868 
L 163.554297 135.358595 
L 163.821764 135.358595 
L 163.865975 133.696624 
L 163.976048 133.696624 
L 163.976048 133.4592 
L 164.129077 133.4592 
L 164.215967 132.034654 
L 164.388551 132.034654 
L 164.495618 131.084956 
L 164.686815 131.084956 
L 164.686815 130.135259 
L 164.876089 130.135259 
L 164.876089 129.897834 
L 165.021997 129.897834 
L 165.021997 128.948137 
L 165.166781 128.948137 
L 165.228492 128.235863 
L 165.473332 128.235863 
L 165.473332 127.52359 
L 166.150222 127.52359 
L 166.247742 127.048741 
L 167.598703 127.048741 
L 167.598703 126.573893 
L 167.868343 126.573893 
L 167.904005 126.099044 
L 168.045979 126.099044 
L 168.045979 125.86162 
L 168.169334 125.86162 
L 168.239461 125.386771 
L 168.500134 125.386771 
L 168.500134 125.149346 
L 168.79126 125.149346 
L 168.79126 124.911922 
L 169.094679 124.911922 
L 169.094679 124.674498 
L 169.227977 124.674498 
L 169.227977 124.437073 
L 169.393282 124.437073 
L 169.393282 124.199649 
L 169.508137 124.199649 
L 169.508137 123.962224 
L 169.832482 123.962224 
L 169.896685 123.487376 
L 169.96067 123.487376 
L 170.056241 123.012527 
L 170.308749 123.012527 
L 170.308749 122.775102 
L 170.819081 122.775102 
L 170.819081 122.537678 
L 171.15177 122.537678 
L 171.15177 122.300254 
L 171.537509 122.300254 
L 171.537509 122.062829 
L 172.201176 122.062829 
L 172.229507 121.350556 
L 172.370523 121.350556 
L 172.370523 121.113132 
L 172.482581 121.113132 
L 172.53836 120.400859 
L 172.677089 120.400859 
L 172.732295 118.738888 
L 172.801076 118.738888 
L 172.896949 117.314341 
L 172.924252 117.314341 
L 172.924252 116.839493 
L 173.141258 116.839493 
L 173.141258 115.889795 
L 173.275627 115.889795 
L 173.275627 115.177522 
L 173.567903 115.177522 
L 173.673069 112.565854 
L 173.751559 112.565854 
L 173.855707 109.479337 
L 174.010854 109.479337 
L 174.11358 107.342517 
L 174.139174 107.342517 
L 174.241203 103.543727 
L 174.393216 103.543727 
L 174.49388 99.270088 
L 174.518962 99.270088 
L 174.569026 97.845541 
L 174.668757 97.845541 
L 174.743209 96.420995 
L 174.891235 96.420995 
L 174.915793 93.809327 
L 175.038105 93.809327 
L 175.135386 92.859629 
L 175.183838 92.859629 
L 175.232165 90.960234 
L 175.304425 90.960234 
L 175.352444 88.348566 
L 175.471959 88.348566 
L 175.543305 87.636293 
L 175.755734 87.636293 
L 175.755734 87.398868 
L 176.000573 87.398868 
L 176.000573 87.161444 
L 176.127562 87.161444 
L 176.219382 85.736898 
L 176.310755 85.736898 
L 176.401688 85.024624 
L 176.446989 85.024624 
L 176.492182 83.600078 
L 176.627113 83.600078 
L 176.627113 83.125229 
L 176.738821 83.125229 
L 176.761083 81.938107 
L 176.894106 81.938107 
L 176.982268 80.513561 
L 177.157362 80.513561 
L 177.157362 79.801288 
L 177.416986 79.801288 
L 177.481335 77.664468 
L 177.598741 77.664468 
L 177.609378 76.952195 
L 177.736555 76.952195 
L 177.789293 76.002498 
L 177.862878 76.002498 
L 177.862878 75.527649 
L 178.298446 75.527649 
L 178.298446 75.290224 
L 178.643809 75.290224 
L 178.704102 74.815376 
L 179.032306 74.815376 
L 179.130641 72.441132 
L 179.169832 72.441132 
L 179.208941 71.016585 
L 179.345187 71.016585 
L 179.345187 70.304312 
L 179.557313 70.304312 
L 179.633861 68.404917 
L 179.691068 68.404917 
L 179.691068 67.692644 
L 179.918172 67.692644 
L 179.993268 67.217795 
L 180.030704 67.217795 
L 180.13327 65.3184 
L 180.151859 65.3184 
L 180.207514 63.893854 
L 180.355129 63.893854 
L 180.446803 61.044761 
L 180.574402 61.044761 
L 180.646928 59.38279 
L 180.755196 59.38279 
L 180.809098 57.958244 
L 180.987662 57.958244 
L 180.987662 57.483395 
L 181.269884 57.483395 
L 181.374636 56.771122 
L 181.392038 56.771122 
L 181.392038 56.533698 
L 181.889818 56.533698 
L 181.889818 56.296273 
L 182.620778 56.296273 
L 182.620778 56.058849 
L 183.35576 56.058849 
L 183.449544 54.871727 
L 183.480702 54.871727 
L 183.496262 53.44718 
L 183.651154 53.44718 
L 183.758825 48.461268 
L 183.850626 48.461268 
L 183.896359 46.324449 
L 183.972335 46.324449 
L 184.048005 45.374751 
L 184.093261 45.374751 
L 184.198438 43.475356 
L 184.317924 43.475356 
L 184.317924 42.525659 
L 184.436656 42.525659 
L 184.510485 41.101112 
L 184.613361 41.101112 
L 184.628012 40.388839 
L 185.395644 40.388839 
L 185.486809 39.676566 
L 185.563605 39.676566 
L 185.660895 39.201717 
L 185.702436 39.201717 
L 185.812768 38.014595 
L 186.428265 38.014595 
L 186.428265 37.777171 
L 187.069333 37.777171 
L 187.152754 36.590049 
L 187.318496 36.590049 
L 187.318496 36.1152 
L 187.533055 36.1152 
L 187.533055 35.877776 
L 188.003988 35.877776 
L 188.083374 34.928078 
L 188.379625 34.928078 
L 188.379625 34.690654 
L 191.188383 34.690654 
L 191.188383 34.453229 
L 194.448598 34.453229 
L 194.491993 33.503532 
L 194.681748 33.503532 
L 194.690328 32.791259 
L 195.097631 32.791259 
L 195.097631 32.553834 
L 197.034242 32.553834 
L 197.1249 30.417015 
L 197.177583 30.417015 
L 197.230119 26.618224 
L 197.342204 26.618224 
L 197.431394 23.769132 
L 197.534917 23.769132 
L 197.534917 23.294283 
L 200.594178 23.294283 
L 200.594178 23.056859 
L 201.695686 23.056859 
L 201.701596 22.58201 
L 203.232988 22.58201 
L 203.232988 22.344585 
L 204.671765 22.344585 
L 204.671765 21.869737 
L 207.079335 21.869737 
L 207.079335 21.632312 
L 207.690862 21.632312 
L 207.690862 21.394888 
L 213.967243 21.394888 
L 213.967243 21.157463 
L 215.605473 21.157463 
L 215.605473 20.682615 
L 220.28207 20.682615 
L 220.28207 19.020644 
L 220.42785 19.020644 
L 220.42785 18.78322 
L 221.191713 18.78322 
L 221.300432 10.235941 
L 221.327514 10.235941 
L 221.327514 9.998517 
L 221.577732 9.998517 
L 221.577732 9.761093 
L 223.351513 9.761093 
L 223.351513 9.523668 
L 223.769318 9.523668 
L 223.816794 6.912 
L 360.8064 6.912 
L 360.8064 6.912 
" style="fill:none;stroke:#000080;stroke-linecap:square;stroke-width:1.5;"/>
   </g>
   <g id="line2d_31">
    <defs>
     <path d="M 0 6 
C 1.591219 6 3.117479 5.367802 4.242641 4.242641 
C 5.367802 3.117479 6 1.591219 6 0 
C 6 -1.591219 5.367802 -3.117479 4.242641 -4.242641 
C 3.117479 -5.367802 1.591219 -6 0 -6 
C -1.591219 -6 -3.117479 -5.367802 -4.242641 -4.242641 
C -5.367802 -3.117479 -6 -1.591219 -6 0 
C -6 1.591219 -5.367802 3.117479 -4.242641 4.242641 
C -3.117479 5.367802 -1.591219 6 0 6 
z
" id="mb0e14b945b" style="stroke:#000080;stroke-width:1.5;"/>
    </defs>
    <g>
     <use style="fill-opacity:0;stroke:#000080;stroke-width:1.5;" x="144.786447" xlink:href="#mb0e14b945b" y="217.744859"/>
     <use style="fill-opacity:0;stroke:#000080;stroke-width:1.5;" x="183.758825" xlink:href="#mb0e14b945b" y="48.461268"/>
     <use style="fill-opacity:0;stroke:#000080;stroke-width:1.5;" x="223.816794" xlink:href="#mb0e14b945b" y="7.861698"/>
     <use style="fill-opacity:0;stroke:#000080;stroke-width:1.5;" x="223.816794" xlink:href="#mb0e14b945b" y="6.912"/>
     <use style="fill-opacity:0;stroke:#000080;stroke-width:1.5;" x="360.8064" xlink:href="#mb0e14b945b" y="6.912"/>
    </g>
   </g>
   <g id="line2d_32">
    <path style="fill:none;stroke:#000080;stroke-linecap:square;stroke-width:1.5;"/>
    <g/>
   </g>
   <g id="line2d_33">
    <defs>
     <path d="M 0 1.5 
C 0.397805 1.5 0.77937 1.341951 1.06066 1.06066 
C 1.341951 0.77937 1.5 0.397805 1.5 0 
C 1.5 -0.397805 1.341951 -0.77937 1.06066 -1.06066 
C 0.77937 -1.341951 0.397805 -1.5 0 -1.5 
C -0.397805 -1.5 -0.77937 -1.341951 -1.06066 -1.06066 
C -1.341951 -0.77937 -1.5 -0.397805 -1.5 0 
C -1.5 0.397805 -1.341951 0.77937 -1.06066 1.06066 
C -0.77937 1.341951 -0.397805 1.5 0 1.5 
z
" id="mf669dfa979" style="stroke:#ff00ff;"/>
    </defs>
    <g>
     <use style="fill:#ff00ff;stroke:#ff00ff;" x="265.692654" xlink:href="#mf669dfa979" y="6.912"/>
     <use style="fill:#ff00ff;stroke:#ff00ff;" x="265.692654" xlink:href="#mf669dfa979" y="6.912"/>
    </g>
   </g>
   <g id="line2d_34">
    <path d="M 115.747307 298.944 
L 115.747307 298.706576 
L 121.789667 298.706576 
L 121.789667 298.469151 
L 125.184934 298.469151 
L 125.184934 297.756878 
L 133.983236 297.756878 
L 133.983236 297.519454 
L 149.595059 297.519454 
L 149.595059 297.282029 
L 150.106653 297.282029 
L 150.106653 297.044605 
L 151.94125 297.044605 
L 151.94125 294.907785 
L 152.312136 294.907785 
L 152.312136 294.670361 
L 152.75573 294.670361 
L 152.75573 294.432937 
L 154.613767 294.432937 
L 154.613767 293.483239 
L 155.322384 293.483239 
L 155.322384 291.821268 
L 155.666927 291.821268 
L 155.666927 291.583844 
L 156.038776 291.583844 
L 156.138926 290.634146 
L 156.696589 290.634146 
L 156.696589 290.159298 
L 157.549652 290.159298 
L 157.549652 289.921873 
L 158.127579 289.921873 
L 158.127579 289.684449 
L 158.276759 289.684449 
L 158.276759 289.447024 
L 158.542339 289.447024 
L 158.542339 289.2096 
L 161.913396 289.2096 
L 161.913396 288.259902 
L 163.099889 288.259902 
L 163.099889 287.785054 
L 163.59914 287.785054 
L 163.59914 286.835356 
L 164.259262 286.835356 
L 164.259262 286.597932 
L 164.93876 286.597932 
L 164.93876 286.360507 
L 167.140533 286.360507 
L 167.140533 286.123083 
L 169.573454 286.123083 
L 169.573454 285.885659 
L 172.978738 285.885659 
L 172.978738 285.648234 
L 173.342453 285.648234 
L 173.342453 284.935961 
L 174.10077 284.935961 
L 174.10077 284.698537 
L 176.458298 284.698537 
L 176.458298 284.223688 
L 177.925723 284.223688 
L 177.925723 283.986263 
L 179.595626 283.986263 
L 179.595626 283.748839 
L 184.436656 283.748839 
L 184.436656 283.27399 
L 184.56934 283.27399 
L 184.56934 283.036566 
L 184.730249 283.036566 
L 184.730249 282.799141 
L 185.688599 282.799141 
L 185.688599 282.561717 
L 189.412493 282.561717 
L 189.412493 282.324293 
L 191.141827 282.324293 
L 191.141827 282.086868 
L 191.480598 282.086868 
L 191.516173 281.61202 
L 191.617446 281.61202 
L 191.728221 278.525502 
L 191.873253 278.525502 
L 191.873253 277.813229 
L 192.012231 277.813229 
L 192.101035 276.151259 
L 192.14528 276.151259 
L 192.243232 271.640195 
L 192.403745 271.640195 
L 192.456946 269.503376 
L 192.54368 269.503376 
L 192.639584 267.366556 
L 192.777782 267.366556 
L 192.777782 265.94201 
L 193.079226 265.94201 
L 193.079226 265.704585 
L 193.283701 265.704585 
L 193.385111 264.042615 
L 193.449362 264.042615 
L 193.531648 261.430946 
L 193.577208 261.430946 
L 193.663468 257.86958 
L 193.713228 257.86958 
L 193.713228 256.20761 
L 193.852757 256.20761 
L 193.852757 255.257912 
L 193.968988 255.257912 
L 193.968988 254.308215 
L 194.221318 254.308215 
L 194.287162 253.833366 
L 194.387677 253.833366 
L 194.483322 252.40882 
L 194.8143 252.40882 
L 194.8143 251.933971 
L 194.983966 251.933971 
L 195.072431 251.459122 
L 195.110218 251.459122 
L 195.214785 250.272 
L 195.306326 250.272 
L 195.397423 249.797151 
L 195.422191 249.797151 
L 195.533247 246.47321 
L 195.606922 246.47321 
L 195.668098 245.286088 
L 195.757464 245.286088 
L 195.846407 244.573815 
L 195.930918 244.573815 
L 196.039019 242.436995 
L 196.280984 242.436995 
L 196.32822 241.249873 
L 196.422337 241.249873 
L 196.523768 240.775024 
L 196.616914 240.775024 
L 196.659452 240.062751 
L 196.943145 240.062751 
L 196.943145 239.825327 
L 197.15126 239.825327 
L 197.162546 238.638205 
L 197.271295 238.638205 
L 197.31238 236.263961 
L 197.386852 236.263961 
L 197.483226 234.839415 
L 197.534917 234.839415 
L 197.6232 233.177444 
L 197.670847 233.177444 
L 197.703763 232.227746 
L 197.802167 232.227746 
L 197.867485 227.241834 
L 197.990248 227.241834 
L 198.036976 226.529561 
L 198.137228 226.529561 
L 198.233396 224.630166 
L 198.272436 224.630166 
L 198.353802 222.968195 
L 198.389069 222.968195 
L 198.487467 220.831376 
L 198.511987 220.831376 
L 198.595811 218.694556 
L 198.686201 218.694556 
L 198.796858 213.708644 
L 198.827863 213.708644 
L 198.913721 210.622127 
L 198.975298 210.622127 
L 198.975298 210.384702 
L 199.239824 210.384702 
L 199.239824 210.147278 
L 199.98915 210.147278 
L 200.092422 206.348488 
L 200.147055 206.348488 
L 200.211128 204.449093 
L 200.274982 204.449093 
L 200.37036 201.837424 
L 200.386209 201.837424 
L 200.4621 199.700605 
L 200.509377 199.700605 
L 200.543972 198.038634 
L 200.799873 198.038634 
L 200.867941 197.326361 
L 200.969584 197.326361 
L 201.037042 196.851512 
L 201.137777 196.851512 
L 201.237976 196.139239 
L 201.265211 196.139239 
L 201.3527 189.966205 
L 201.427796 189.966205 
L 201.538391 186.879688 
L 201.722267 186.879688 
L 201.722267 185.217717 
L 201.863398 185.217717 
L 201.863398 184.980293 
L 202.320616 184.980293 
L 202.320616 184.505444 
L 202.775357 184.505444 
L 202.775357 183.793171 
L 204.105749 183.793171 
L 204.105749 182.368624 
L 207.271483 182.368624 
L 207.354797 179.756956 
L 207.398499 179.756956 
L 207.481255 179.282107 
L 207.544166 179.282107 
L 207.563647 175.720741 
L 207.795865 175.720741 
L 207.815088 173.109073 
L 208.72762 173.109073 
L 208.82903 169.785132 
L 208.847226 169.785132 
L 208.945985 164.561795 
L 209.006195 164.561795 
L 209.082185 163.137249 
L 209.143951 163.137249 
L 209.195598 161.950127 
L 209.351662 161.950127 
L 209.438026 157.913912 
L 209.568777 157.913912 
L 209.667699 154.115122 
L 209.685102 154.115122 
L 209.754553 148.416937 
L 210.181025 148.416937 
L 210.263672 144.380722 
L 210.297377 144.380722 
L 210.302989 141.294205 
L 210.424168 141.294205 
L 210.472422 140.581932 
L 210.644016 140.581932 
L 210.739283 138.445112 
L 210.755723 138.445112 
L 210.861324 135.59602 
L 210.893977 135.59602 
L 211.002411 131.797229 
L 211.025823 131.797229 
L 211.025823 131.559805 
L 211.316927 131.559805 
L 211.394742 129.66041 
L 211.433528 129.66041 
L 211.510863 128.948137 
L 212.867451 128.948137 
L 212.867451 128.473288 
L 213.318937 128.473288 
L 213.387323 123.962224 
L 213.513894 123.962224 
L 213.581575 121.58798 
L 213.644317 121.58798 
L 213.644317 121.350556 
L 213.958006 121.350556 
L 214.068563 119.451161 
L 214.106799 119.451161 
L 214.154105 116.364644 
L 214.224081 116.364644 
L 214.307409 112.565854 
L 214.345163 112.565854 
L 214.345163 111.378732 
L 214.507398 111.378732 
L 214.540275 110.19161 
L 215.070254 110.19161 
L 215.070254 109.241912 
L 216.35098 109.241912 
L 216.461851 103.068878 
L 216.472633 103.068878 
L 216.576093 99.032663 
L 216.589488 99.032663 
L 216.630951 98.082966 
L 216.744174 98.082966 
L 216.744174 97.845541 
L 218.39836 97.845541 
L 218.503876 88.58599 
L 220.228075 88.58599 
L 220.33591 82.887805 
L 220.347975 82.887805 
L 220.360033 82.412956 
L 220.479097 82.412956 
L 220.479097 81.700683 
L 220.654674 81.700683 
L 220.654674 79.801288 
L 225.713887 79.801288 
L 225.713887 79.563863 
L 225.921307 79.563863 
L 225.958776 78.85159 
L 226.163528 78.85159 
L 226.163528 78.376741 
L 226.537293 78.376741 
L 226.594021 77.901893 
L 226.767862 77.901893 
L 226.767862 77.18962 
L 227.245026 77.18962 
L 227.330704 76.239922 
L 228.124664 76.239922 
L 228.169574 75.765073 
L 228.321616 75.765073 
L 228.321616 75.527649 
L 228.478132 75.527649 
L 228.526467 74.577951 
L 228.593787 74.577951 
L 228.665095 74.103102 
L 228.797111 74.103102 
L 228.838352 73.628254 
L 228.914305 73.628254 
L 228.914305 73.390829 
L 229.032845 73.390829 
L 229.126593 72.678556 
L 229.193173 72.678556 
L 229.273851 71.491434 
L 229.326311 71.491434 
L 229.408453 70.304312 
L 229.438234 70.304312 
L 229.499004 69.829463 
L 229.576369 69.829463 
L 229.664781 68.642341 
L 229.706831 68.642341 
L 229.817183 67.217795 
L 229.845662 67.217795 
L 229.940065 64.843551 
L 230.040548 64.843551 
L 230.150918 62.469307 
L 230.193196 62.469307 
L 230.193196 62.231883 
L 230.412167 62.231883 
L 230.510166 60.807337 
L 230.578399 60.807337 
L 230.636235 59.857639 
L 230.74065 59.857639 
L 230.821883 58.670517 
L 230.880855 58.670517 
L 230.975825 57.245971 
L 231.041151 57.245971 
L 231.14829 56.771122 
L 231.181608 56.771122 
L 231.279982 55.346576 
L 231.385163 55.346576 
L 231.486728 54.159454 
L 231.511579 54.159454 
L 231.614272 52.260059 
L 231.684625 52.260059 
L 231.746343 51.547785 
L 231.805473 51.547785 
L 231.907172 50.598088 
L 231.933844 50.598088 
L 232.006554 48.223844 
L 232.276596 48.223844 
L 232.385041 47.274146 
L 232.405846 47.274146 
L 232.508955 46.561873 
L 232.553709 46.561873 
L 232.652022 45.374751 
L 232.6953 45.374751 
L 232.718606 44.662478 
L 233.157129 44.662478 
L 233.225269 42.763083 
L 233.330595 42.763083 
L 233.432052 41.813385 
L 233.477394 41.813385 
L 233.477394 41.575961 
L 233.594339 41.575961 
L 233.607349 41.101112 
L 233.743945 41.101112 
L 233.854437 39.676566 
L 233.861388 39.676566 
L 233.965879 37.539746 
L 234.022679 37.539746 
L 234.117844 36.590049 
L 234.324486 36.590049 
L 234.416584 34.690654 
L 234.460652 34.690654 
L 234.56857 33.740956 
L 234.608688 33.740956 
L 234.624608 33.266107 
L 234.777476 33.266107 
L 234.858263 32.31641 
L 235.086047 32.31641 
L 235.180481 31.604137 
L 235.203393 31.604137 
L 235.251617 31.129288 
L 235.328915 31.129288 
L 235.41968 29.704741 
L 235.604293 29.704741 
L 235.604293 29.229893 
L 235.765867 29.229893 
L 235.804477 28.280195 
L 235.883862 28.280195 
L 235.944737 27.330498 
L 237.543552 27.330498 
L 237.556295 26.143376 
L 238.520389 26.143376 
L 238.520389 25.905951 
L 239.872398 25.905951 
L 239.872398 25.668527 
L 240.409929 25.668527 
L 240.409929 25.431102 
L 240.629818 25.431102 
L 240.629818 25.193678 
L 240.748077 25.193678 
L 240.806928 24.718829 
L 240.90718 24.718829 
L 240.918572 24.24398 
L 241.071874 24.24398 
L 241.179425 23.531707 
L 241.243084 23.531707 
L 241.243084 23.294283 
L 241.514815 23.294283 
L 241.620578 22.344585 
L 241.634022 22.344585 
L 241.634022 22.107161 
L 241.853422 22.107161 
L 241.853422 21.869737 
L 242.274439 21.869737 
L 242.384525 21.394888 
L 242.401169 21.394888 
L 242.401169 21.157463 
L 242.625276 21.157463 
L 242.701616 20.44519 
L 242.815549 20.44519 
L 242.817542 19.970341 
L 243.068256 19.970341 
L 243.085289 19.495493 
L 243.329252 19.495493 
L 243.329252 19.258068 
L 243.450057 19.258068 
L 243.55924 18.545795 
L 243.799378 18.545795 
L 243.872992 17.596098 
L 243.931614 17.596098 
L 243.931614 17.358673 
L 244.120651 17.358673 
L 244.204748 16.6464 
L 244.292155 16.6464 
L 244.369986 16.171551 
L 244.557415 16.171551 
L 244.579201 15.696702 
L 244.800467 15.696702 
L 244.800467 15.459278 
L 245.036286 15.459278 
L 245.036286 15.221854 
L 245.157789 15.221854 
L 245.159842 14.747005 
L 245.442132 14.747005 
L 245.442132 14.50958 
L 246.19991 14.50958 
L 246.19991 14.272156 
L 246.421663 14.272156 
L 246.513567 13.797307 
L 247.61701 13.797307 
L 247.61701 13.559883 
L 247.770257 13.559883 
L 247.770257 13.322459 
L 247.897945 13.322459 
L 247.909855 12.84761 
L 248.42191 12.84761 
L 248.488849 12.135337 
L 249.274767 12.135337 
L 249.358456 11.660488 
L 249.397587 11.660488 
L 249.397587 11.423063 
L 249.549355 11.423063 
L 249.641311 10.948215 
L 249.711422 10.948215 
L 249.711422 10.71079 
L 249.832806 10.71079 
L 249.869594 10.235941 
L 250.38121 10.235941 
L 250.488424 9.761093 
L 250.558755 9.761093 
L 250.558755 9.523668 
L 251.170592 9.523668 
L 251.170592 9.286244 
L 251.38094 9.286244 
L 251.38094 9.04882 
L 251.504606 9.04882 
L 251.504606 8.811395 
L 254.348401 8.811395 
L 254.359193 8.336546 
L 254.493566 8.336546 
L 254.493566 8.099122 
L 255.688089 8.099122 
L 255.688089 7.861698 
L 260.401401 7.861698 
L 260.401401 7.624273 
L 261.693238 7.624273 
L 261.741513 7.149424 
L 265.692654 7.149424 
L 265.692654 6.912 
L 360.8064 6.912 
L 360.8064 6.912 
" style="fill:none;stroke:#ff00ff;stroke-linecap:square;stroke-width:1.5;"/>
   </g>
   <g id="line2d_35">
    <defs>
     <path d="M -0 8.485281 
L 5.091169 0 
L 0 -8.485281 
L -5.091169 -0 
z
" id="m8f0826ab20" style="stroke:#ff00ff;stroke-linejoin:miter;stroke-width:1.5;"/>
    </defs>
    <g>
     <use style="fill-opacity:0;stroke:#ff00ff;stroke-linejoin:miter;stroke-width:1.5;" x="164.93876" xlink:href="#m8f0826ab20" y="286.597932"/>
     <use style="fill-opacity:0;stroke:#ff00ff;stroke-linejoin:miter;stroke-width:1.5;" x="210.722829" xlink:href="#m8f0826ab20" y="139.869659"/>
     <use style="fill-opacity:0;stroke:#ff00ff;stroke-linejoin:miter;stroke-width:1.5;" x="265.692654" xlink:href="#m8f0826ab20" y="7.149424"/>
     <use style="fill-opacity:0;stroke:#ff00ff;stroke-linejoin:miter;stroke-width:1.5;" x="265.692654" xlink:href="#m8f0826ab20" y="6.912"/>
     <use style="fill-opacity:0;stroke:#ff00ff;stroke-linejoin:miter;stroke-width:1.5;" x="360.8064" xlink:href="#m8f0826ab20" y="6.912"/>
    </g>
   </g>
   <g id="line2d_36">
    <path style="fill:none;stroke:#ff00ff;stroke-linecap:square;stroke-width:1.5;"/>
    <g/>
   </g>
   <g id="line2d_37">
    <path clip-path="url(#p7e372c4d36)" d="M 225.921307 79.089015 
" style="fill:none;stroke:#ff00ff;stroke-linecap:square;stroke-width:1.5;"/>
    <defs>
     <path d="M -12 12 
L 12 -12 
M -12 -12 
L 12 12 
" id="m7a1ebc0738" style="stroke:#ff00ff;"/>
    </defs>
    <g clip-path="url(#p7e372c4d36)">
     <use style="fill:#ff00ff;stroke:#ff00ff;" x="225.921307" xlink:href="#m7a1ebc0738" y="79.089015"/>
    </g>
   </g>
   <g id="line2d_38">
    <path d="M 360.8064 6.912 
L 380.514816 293.10336 
" style="fill:none;stroke:#ff00ff;stroke-linecap:square;stroke-width:1.5;"/>
    <g>
     <use style="fill-opacity:0;stroke:#ff00ff;stroke-linejoin:miter;stroke-width:1.5;" x="360.8064" xlink:href="#m8f0826ab20" y="6.912"/>
     <use style="fill-opacity:0;stroke:#ff00ff;stroke-linejoin:miter;stroke-width:1.5;" x="380.514816" xlink:href="#m8f0826ab20" y="293.10336"/>
    </g>
   </g>
   <g id="line2d_39">
    <path d="M 360.8064 6.912 
L 380.514816 12.75264 
" style="fill:none;stroke:#000080;stroke-linecap:square;stroke-width:1.5;"/>
    <g>
     <use style="fill-opacity:0;stroke:#000080;stroke-width:1.5;" x="360.8064" xlink:href="#mb0e14b945b" y="6.912"/>
     <use style="fill-opacity:0;stroke:#000080;stroke-width:1.5;" x="380.514816" xlink:href="#mb0e14b945b" y="12.75264"/>
    </g>
   </g>
   <g id="line2d_40">
    <path d="M 360.8064 298.944 
L 360.8064 6.912 
" style="fill:none;stroke:#000000;stroke-linecap:square;stroke-width:1.5;"/>
   </g>
   <g id="patch_3">
    <path d="M 57.6 298.944 
L 360.8064 298.944 
" style="fill:none;stroke:#000000;stroke-linecap:square;stroke-linejoin:miter;stroke-width:0.8;"/>
   </g>
   <g id="patch_4">
    <path d="M 57.6 6.912 
L 360.8064 6.912 
" style="fill:none;stroke:#000000;stroke-linecap:square;stroke-linejoin:miter;stroke-width:0.8;"/>
   </g>
   <g id="text_13">
    <!-- slsqp -->
    <g transform="translate(386.578944 296.966485)scale(0.14 -0.14)">
     <defs>
      <path d="M 14.796875 27.296875 
Q 14.796875 17.390625 18.875 11.75 
Q 22.953125 6.109375 30.078125 6.109375 
Q 37.203125 6.109375 41.296875 11.75 
Q 45.40625 17.390625 45.40625 27.296875 
Q 45.40625 37.203125 41.296875 42.84375 
Q 37.203125 48.484375 30.078125 48.484375 
Q 22.953125 48.484375 18.875 42.84375 
Q 14.796875 37.203125 14.796875 27.296875 
z
M 45.40625 8.203125 
Q 42.578125 3.328125 38.25 0.953125 
Q 33.9375 -1.421875 27.875 -1.421875 
Q 17.96875 -1.421875 11.734375 6.484375 
Q 5.515625 14.40625 5.515625 27.296875 
Q 5.515625 40.1875 11.734375 48.09375 
Q 17.96875 56 27.875 56 
Q 33.9375 56 38.25 53.625 
Q 42.578125 51.265625 45.40625 46.390625 
L 45.40625 54.6875 
L 54.390625 54.6875 
L 54.390625 -20.796875 
L 45.40625 -20.796875 
z
" id="DejaVuSans-113"/>
     </defs>
     <use xlink:href="#DejaVuSans-115"/>
     <use x="52.099609" xlink:href="#DejaVuSans-108"/>
     <use x="79.882812" xlink:href="#DejaVuSans-115"/>
     <use x="131.982422" xlink:href="#DejaVuSans-113"/>
     <use x="195.458984" xlink:href="#DejaVuSans-112"/>
    </g>
   </g>
   <g id="text_14">
    <!-- cobyla -->
    <g transform="translate(386.578944 16.615765)scale(0.14 -0.14)">
     <defs>
      <path d="M 48.6875 27.296875 
Q 48.6875 37.203125 44.609375 42.84375 
Q 40.53125 48.484375 33.40625 48.484375 
Q 26.265625 48.484375 22.1875 42.84375 
Q 18.109375 37.203125 18.109375 27.296875 
Q 18.109375 17.390625 22.1875 11.75 
Q 26.265625 6.109375 33.40625 6.109375 
Q 40.53125 6.109375 44.609375 11.75 
Q 48.6875 17.390625 48.6875 27.296875 
z
M 18.109375 46.390625 
Q 20.953125 51.265625 25.265625 53.625 
Q 29.59375 56 35.59375 56 
Q 45.5625 56 51.78125 48.09375 
Q 58.015625 40.1875 58.015625 27.296875 
Q 58.015625 14.40625 51.78125 6.484375 
Q 45.5625 -1.421875 35.59375 -1.421875 
Q 29.59375 -1.421875 25.265625 0.953125 
Q 20.953125 3.328125 18.109375 8.203125 
L 18.109375 0 
L 9.078125 0 
L 9.078125 75.984375 
L 18.109375 75.984375 
z
" id="DejaVuSans-98"/>
      <path d="M 32.171875 -5.078125 
Q 28.375 -14.84375 24.75 -17.8125 
Q 21.140625 -20.796875 15.09375 -20.796875 
L 7.90625 -20.796875 
L 7.90625 -13.28125 
L 13.1875 -13.28125 
Q 16.890625 -13.28125 18.9375 -11.515625 
Q 21 -9.765625 23.484375 -3.21875 
L 25.09375 0.875 
L 2.984375 54.6875 
L 12.5 54.6875 
L 29.59375 11.921875 
L 46.6875 54.6875 
L 56.203125 54.6875 
z
" id="DejaVuSans-121"/>
     </defs>
     <use xlink:href="#DejaVuSans-99"/>
     <use x="54.980469" xlink:href="#DejaVuSans-111"/>
     <use x="116.162109" xlink:href="#DejaVuSans-98"/>
     <use x="179.638672" xlink:href="#DejaVuSans-121"/>
     <use x="238.818359" xlink:href="#DejaVuSans-108"/>
     <use x="266.601562" xlink:href="#DejaVuSans-97"/>
    </g>
   </g>
   <g id="text_15">
    <!-- bbob-constrained f44, f50, 3-D -->
    <g transform="translate(60.632064 17.582726)scale(0.102 -0.102)">
     <defs>
      <path d="M 4.890625 31.390625 
L 31.203125 31.390625 
L 31.203125 23.390625 
L 4.890625 23.390625 
z
" id="DejaVuSans-45"/>
      <path d="M 10.796875 72.90625 
L 49.515625 72.90625 
L 49.515625 64.59375 
L 19.828125 64.59375 
L 19.828125 46.734375 
Q 21.96875 47.46875 24.109375 47.828125 
Q 26.265625 48.1875 28.421875 48.1875 
Q 40.625 48.1875 47.75 41.5 
Q 54.890625 34.8125 54.890625 23.390625 
Q 54.890625 11.625 47.5625 5.09375 
Q 40.234375 -1.421875 26.90625 -1.421875 
Q 22.3125 -1.421875 17.546875 -0.640625 
Q 12.796875 0.140625 7.71875 1.703125 
L 7.71875 11.625 
Q 12.109375 9.234375 16.796875 8.0625 
Q 21.484375 6.890625 26.703125 6.890625 
Q 35.15625 6.890625 40.078125 11.328125 
Q 45.015625 15.765625 45.015625 23.390625 
Q 45.015625 31 40.078125 35.4375 
Q 35.15625 39.890625 26.703125 39.890625 
Q 22.75 39.890625 18.8125 39.015625 
Q 14.890625 38.140625 10.796875 36.28125 
z
" id="DejaVuSans-53"/>
      <path d="M 40.578125 39.3125 
Q 47.65625 37.796875 51.625 33 
Q 55.609375 28.21875 55.609375 21.1875 
Q 55.609375 10.40625 48.1875 4.484375 
Q 40.765625 -1.421875 27.09375 -1.421875 
Q 22.515625 -1.421875 17.65625 -0.515625 
Q 12.796875 0.390625 7.625 2.203125 
L 7.625 11.71875 
Q 11.71875 9.328125 16.59375 8.109375 
Q 21.484375 6.890625 26.8125 6.890625 
Q 36.078125 6.890625 40.9375 10.546875 
Q 45.796875 14.203125 45.796875 21.1875 
Q 45.796875 27.640625 41.28125 31.265625 
Q 36.765625 34.90625 28.71875 34.90625 
L 20.21875 34.90625 
L 20.21875 43.015625 
L 29.109375 43.015625 
Q 36.375 43.015625 40.234375 45.921875 
Q 44.09375 48.828125 44.09375 54.296875 
Q 44.09375 59.90625 40.109375 62.90625 
Q 36.140625 65.921875 28.71875 65.921875 
Q 24.65625 65.921875 20.015625 65.03125 
Q 15.375 64.15625 9.8125 62.3125 
L 9.8125 71.09375 
Q 15.4375 72.65625 20.34375 73.4375 
Q 25.25 74.21875 29.59375 74.21875 
Q 40.828125 74.21875 47.359375 69.109375 
Q 53.90625 64.015625 53.90625 55.328125 
Q 53.90625 49.265625 50.4375 45.09375 
Q 46.96875 40.921875 40.578125 39.3125 
z
" id="DejaVuSans-51"/>
      <path d="M 19.671875 64.796875 
L 19.671875 8.109375 
L 31.59375 8.109375 
Q 46.6875 8.109375 53.6875 14.9375 
Q 60.6875 21.78125 60.6875 36.53125 
Q 60.6875 51.171875 53.6875 57.984375 
Q 46.6875 64.796875 31.59375 64.796875 
z
M 9.8125 72.90625 
L 30.078125 72.90625 
Q 51.265625 72.90625 61.171875 64.09375 
Q 71.09375 55.28125 71.09375 36.53125 
Q 71.09375 17.671875 61.125 8.828125 
Q 51.171875 0 30.078125 0 
L 9.8125 0 
z
" id="DejaVuSans-68"/>
     </defs>
     <use xlink:href="#DejaVuSans-98"/>
     <use x="63.476562" xlink:href="#DejaVuSans-98"/>
     <use x="126.953125" xlink:href="#DejaVuSans-111"/>
     <use x="188.134766" xlink:href="#DejaVuSans-98"/>
     <use x="251.611328" xlink:href="#DejaVuSans-45"/>
     <use x="287.695312" xlink:href="#DejaVuSans-99"/>
     <use x="342.675781" xlink:href="#DejaVuSans-111"/>
     <use x="403.857422" xlink:href="#DejaVuSans-110"/>
     <use x="467.236328" xlink:href="#DejaVuSans-115"/>
     <use x="519.335938" xlink:href="#DejaVuSans-116"/>
     <use x="558.544922" xlink:href="#DejaVuSans-114"/>
     <use x="599.658203" xlink:href="#DejaVuSans-97"/>
     <use x="660.9375" xlink:href="#DejaVuSans-105"/>
     <use x="688.720703" xlink:href="#DejaVuSans-110"/>
     <use x="752.099609" xlink:href="#DejaVuSans-101"/>
     <use x="813.623047" xlink:href="#DejaVuSans-100"/>
     <use x="877.099609" xlink:href="#DejaVuSans-32"/>
     <use x="908.886719" xlink:href="#DejaVuSans-102"/>
     <use x="944.091797" xlink:href="#DejaVuSans-52"/>
     <use x="1007.714844" xlink:href="#DejaVuSans-52"/>
     <use x="1071.337891" xlink:href="#DejaVuSans-44"/>
     <use x="1103.125" xlink:href="#DejaVuSans-32"/>
     <use x="1134.912109" xlink:href="#DejaVuSans-102"/>
     <use x="1170.117188" xlink:href="#DejaVuSans-53"/>
     <use x="1233.740234" xlink:href="#DejaVuSans-48"/>
     <use x="1297.363281" xlink:href="#DejaVuSans-44"/>
     <use x="1329.150391" xlink:href="#DejaVuSans-32"/>
     <use x="1360.9375" xlink:href="#DejaVuSans-51"/>
     <use x="1424.560547" xlink:href="#DejaVuSans-45"/>
     <use x="1460.644531" xlink:href="#DejaVuSans-68"/>
    </g>
    <!-- 41 targets: 100..1e-06 -->
    <g transform="translate(60.632064 29.004495)scale(0.102 -0.102)">
     <defs>
      <path d="M 11.71875 12.40625 
L 22.015625 12.40625 
L 22.015625 0 
L 11.71875 0 
z
M 11.71875 51.703125 
L 22.015625 51.703125 
L 22.015625 39.3125 
L 11.71875 39.3125 
z
" id="DejaVuSans-58"/>
     </defs>
     <use xlink:href="#DejaVuSans-52"/>
     <use x="63.623047" xlink:href="#DejaVuSans-49"/>
     <use x="127.246094" xlink:href="#DejaVuSans-32"/>
     <use x="159.033203" xlink:href="#DejaVuSans-116"/>
     <use x="198.242188" xlink:href="#DejaVuSans-97"/>
     <use x="259.521484" xlink:href="#DejaVuSans-114"/>
     <use x="298.884766" xlink:href="#DejaVuSans-103"/>
     <use x="362.361328" xlink:href="#DejaVuSans-101"/>
     <use x="423.884766" xlink:href="#DejaVuSans-116"/>
     <use x="463.09375" xlink:href="#DejaVuSans-115"/>
     <use x="515.193359" xlink:href="#DejaVuSans-58"/>
     <use x="548.884766" xlink:href="#DejaVuSans-32"/>
     <use x="580.671875" xlink:href="#DejaVuSans-49"/>
     <use x="644.294922" xlink:href="#DejaVuSans-48"/>
     <use x="707.917969" xlink:href="#DejaVuSans-48"/>
     <use x="771.541016" xlink:href="#DejaVuSans-46"/>
     <use x="803.328125" xlink:href="#DejaVuSans-46"/>
     <use x="835.115234" xlink:href="#DejaVuSans-49"/>
     <use x="898.738281" xlink:href="#DejaVuSans-101"/>
     <use x="960.261719" xlink:href="#DejaVuSans-45"/>
     <use x="996.345703" xlink:href="#DejaVuSans-48"/>
     <use x="1059.96875" xlink:href="#DejaVuSans-54"/>
    </g>
    <!-- evals = f-evals + g-evals -->
    <g transform="translate(60.632064 40.426264)scale(0.102 -0.102)">
     <defs>
      <path d="M 10.59375 45.40625 
L 73.1875 45.40625 
L 73.1875 37.203125 
L 10.59375 37.203125 
z
M 10.59375 25.484375 
L 73.1875 25.484375 
L 73.1875 17.1875 
L 10.59375 17.1875 
z
" id="DejaVuSans-61"/>
      <path d="M 46 62.703125 
L 46 35.5 
L 73.1875 35.5 
L 73.1875 27.203125 
L 46 27.203125 
L 46 0 
L 37.796875 0 
L 37.796875 27.203125 
L 10.59375 27.203125 
L 10.59375 35.5 
L 37.796875 35.5 
L 37.796875 62.703125 
z
" id="DejaVuSans-43"/>
     </defs>
     <use xlink:href="#DejaVuSans-101"/>
     <use x="61.523438" xlink:href="#DejaVuSans-118"/>
     <use x="120.703125" xlink:href="#DejaVuSans-97"/>
     <use x="181.982422" xlink:href="#DejaVuSans-108"/>
     <use x="209.765625" xlink:href="#DejaVuSans-115"/>
     <use x="261.865234" xlink:href="#DejaVuSans-32"/>
     <use x="293.652344" xlink:href="#DejaVuSans-61"/>
     <use x="377.441406" xlink:href="#DejaVuSans-32"/>
     <use x="409.228516" xlink:href="#DejaVuSans-102"/>
     <use x="438.933594" xlink:href="#DejaVuSans-45"/>
     <use x="475.017578" xlink:href="#DejaVuSans-101"/>
     <use x="536.541016" xlink:href="#DejaVuSans-118"/>
     <use x="595.720703" xlink:href="#DejaVuSans-97"/>
     <use x="657" xlink:href="#DejaVuSans-108"/>
     <use x="684.783203" xlink:href="#DejaVuSans-115"/>
     <use x="736.882812" xlink:href="#DejaVuSans-32"/>
     <use x="768.669922" xlink:href="#DejaVuSans-43"/>
     <use x="852.458984" xlink:href="#DejaVuSans-32"/>
     <use x="884.246094" xlink:href="#DejaVuSans-103"/>
     <use x="947.722656" xlink:href="#DejaVuSans-45"/>
     <use x="983.806641" xlink:href="#DejaVuSans-101"/>
     <use x="1045.330078" xlink:href="#DejaVuSans-118"/>
     <use x="1104.509766" xlink:href="#DejaVuSans-97"/>
     <use x="1165.789062" xlink:href="#DejaVuSans-108"/>
     <use x="1193.572266" xlink:href="#DejaVuSans-115"/>
    </g>
    <!-- 15 instances -->
    <g transform="translate(60.632064 51.848032)scale(0.102 -0.102)">
     <use xlink:href="#DejaVuSans-49"/>
     <use x="63.623047" xlink:href="#DejaVuSans-53"/>
     <use x="127.246094" xlink:href="#DejaVuSans-32"/>
     <use x="159.033203" xlink:href="#DejaVuSans-105"/>
     <use x="186.816406" xlink:href="#DejaVuSans-110"/>
     <use x="250.195312" xlink:href="#DejaVuSans-115"/>
     <use x="302.294922" xlink:href="#DejaVuSans-116"/>
     <use x="341.503906" xlink:href="#DejaVuSans-97"/>
     <use x="402.783203" xlink:href="#DejaVuSans-110"/>
     <use x="466.162109" xlink:href="#DejaVuSans-99"/>
     <use x="521.142578" xlink:href="#DejaVuSans-101"/>
     <use x="582.666016" xlink:href="#DejaVuSans-115"/>
    </g>
   </g>
   <g id="text_16">
    <!-- v2.4.143 -->
    <g style="fill:#808080;" transform="translate(187.15945 293.943992)scale(0.1 -0.1)">
     <use xlink:href="#DejaVuSans-118"/>
     <use x="59.179688" xlink:href="#DejaVuSans-50"/>
     <use x="122.802734" xlink:href="#DejaVuSans-46"/>
     <use x="154.589844" xlink:href="#DejaVuSans-52"/>
     <use x="218.212891" xlink:href="#DejaVuSans-46"/>
     <use x="250" xlink:href="#DejaVuSans-49"/>
     <use x="313.623047" xlink:href="#DejaVuSans-52"/>
     <use x="377.246094" xlink:href="#DejaVuSans-51"/>
    </g>
   </g>
  </g>
 </g>
 <defs>
  <clipPath id="p7e372c4d36">
   <rect height="292.032" width="303.2064" x="57.6" y="6.912"/>
  </clipPath>
 </defs>
</svg>
