<?xml version="1.0" encoding="utf-8" standalone="no"?>
<!DOCTYPE svg PUBLIC "-//W3C//DTD SVG 1.1//EN"
  "http://www.w3.org/Graphics/SVG/1.1/DTD/svg11.dtd">
<!-- Created with matplotlib (https://matplotlib.org/) -->
<svg height="345.6pt" version="1.1" viewBox="0 0 460.8 345.6" width="460.8pt" xmlns="http://www.w3.org/2000/svg" xmlns:xlink="http://www.w3.org/1999/xlink">
 <metadata>
  <rdf:RDF xmlns:cc="http://creativecommons.org/ns#" xmlns:dc="http://purl.org/dc/elements/1.1/" xmlns:rdf="http://www.w3.org/1999/02/22-rdf-syntax-ns#">
   <cc:Work>
    <dc:type rdf:resource="http://purl.org/dc/dcmitype/StillImage"/>
    <dc:date>2022-02-02T15:41:14.353667</dc:date>
    <dc:format>image/svg+xml</dc:format>
    <dc:creator>
     <cc:Agent>
      <dc:title>Matplotlib v3.3.3, https://matplotlib.org/</dc:title>
     </cc:Agent>
    </dc:creator>
   </cc:Work>
  </rdf:RDF>
 </metadata>
 <defs>
  <style type="text/css">*{stroke-linecap:butt;stroke-linejoin:round;}</style>
 </defs>
 <g id="figure_1">
  <g id="patch_1">
   <path d="M 0 345.6 
L 460.8 345.6 
L 460.8 0 
L 0 0 
z
" style="fill:#ffffff;"/>
  </g>
  <g id="axes_1">
   <g id="patch_2">
    <path d="M 57.6 298.944 
L 360.8064 298.944 
L 360.8064 6.912 
L 57.6 6.912 
z
" style="fill:#ffffff;"/>
   </g>
   <g id="matplotlib.axis_1">
    <g id="xtick_1">
     <g id="line2d_1">
      <path clip-path="url(#pb89d73a7ec)" d="M 57.6 298.944 
L 57.6 6.912 
" style="fill:none;stroke:#b0b0b0;stroke-linecap:square;stroke-width:0.8;"/>
     </g>
     <g id="line2d_2">
      <defs>
       <path d="M 0 0 
L 0 3.5 
" id="m055e99c968" style="stroke:#000000;stroke-width:0.8;"/>
      </defs>
      <g>
       <use style="stroke:#000000;stroke-width:0.8;" x="57.6" xlink:href="#m055e99c968" y="298.944"/>
      </g>
     </g>
     <g id="text_1">
      <!-- 0 -->
      <g transform="translate(52.191875 318.861344)scale(0.17 -0.17)">
       <defs>
        <path d="M 31.78125 66.40625 
Q 24.171875 66.40625 20.328125 58.90625 
Q 16.5 51.421875 16.5 36.375 
Q 16.5 21.390625 20.328125 13.890625 
Q 24.171875 6.390625 31.78125 6.390625 
Q 39.453125 6.390625 43.28125 13.890625 
Q 47.125 21.390625 47.125 36.375 
Q 47.125 51.421875 43.28125 58.90625 
Q 39.453125 66.40625 31.78125 66.40625 
z
M 31.78125 74.21875 
Q 44.046875 74.21875 50.515625 64.515625 
Q 56.984375 54.828125 56.984375 36.375 
Q 56.984375 17.96875 50.515625 8.265625 
Q 44.046875 -1.421875 31.78125 -1.421875 
Q 19.53125 -1.421875 13.0625 8.265625 
Q 6.59375 17.96875 6.59375 36.375 
Q 6.59375 54.828125 13.0625 64.515625 
Q 19.53125 74.21875 31.78125 74.21875 
z
" id="DejaVuSans-48"/>
       </defs>
       <use xlink:href="#DejaVuSans-48"/>
      </g>
     </g>
    </g>
    <g id="xtick_2">
     <g id="line2d_3">
      <path clip-path="url(#pb89d73a7ec)" d="M 144.2304 298.944 
L 144.2304 6.912 
" style="fill:none;stroke:#b0b0b0;stroke-linecap:square;stroke-width:0.8;"/>
     </g>
     <g id="line2d_4">
      <g>
       <use style="stroke:#000000;stroke-width:0.8;" x="144.2304" xlink:href="#m055e99c968" y="298.944"/>
      </g>
     </g>
     <g id="text_2">
      <!-- 2 -->
      <g transform="translate(138.822275 318.861344)scale(0.17 -0.17)">
       <defs>
        <path d="M 19.1875 8.296875 
L 53.609375 8.296875 
L 53.609375 0 
L 7.328125 0 
L 7.328125 8.296875 
Q 12.9375 14.109375 22.625 23.890625 
Q 32.328125 33.6875 34.8125 36.53125 
Q 39.546875 41.84375 41.421875 45.53125 
Q 43.3125 49.21875 43.3125 52.78125 
Q 43.3125 58.59375 39.234375 62.25 
Q 35.15625 65.921875 28.609375 65.921875 
Q 23.96875 65.921875 18.8125 64.3125 
Q 13.671875 62.703125 7.8125 59.421875 
L 7.8125 69.390625 
Q 13.765625 71.78125 18.9375 73 
Q 24.125 74.21875 28.421875 74.21875 
Q 39.75 74.21875 46.484375 68.546875 
Q 53.21875 62.890625 53.21875 53.421875 
Q 53.21875 48.921875 51.53125 44.890625 
Q 49.859375 40.875 45.40625 35.40625 
Q 44.1875 33.984375 37.640625 27.21875 
Q 31.109375 20.453125 19.1875 8.296875 
z
" id="DejaVuSans-50"/>
       </defs>
       <use xlink:href="#DejaVuSans-50"/>
      </g>
     </g>
    </g>
    <g id="xtick_3">
     <g id="line2d_5">
      <path clip-path="url(#pb89d73a7ec)" d="M 230.8608 298.944 
L 230.8608 6.912 
" style="fill:none;stroke:#b0b0b0;stroke-linecap:square;stroke-width:0.8;"/>
     </g>
     <g id="line2d_6">
      <g>
       <use style="stroke:#000000;stroke-width:0.8;" x="230.8608" xlink:href="#m055e99c968" y="298.944"/>
      </g>
     </g>
     <g id="text_3">
      <!-- 4 -->
      <g transform="translate(225.452675 318.861344)scale(0.17 -0.17)">
       <defs>
        <path d="M 37.796875 64.3125 
L 12.890625 25.390625 
L 37.796875 25.390625 
z
M 35.203125 72.90625 
L 47.609375 72.90625 
L 47.609375 25.390625 
L 58.015625 25.390625 
L 58.015625 17.1875 
L 47.609375 17.1875 
L 47.609375 0 
L 37.796875 0 
L 37.796875 17.1875 
L 4.890625 17.1875 
L 4.890625 26.703125 
z
" id="DejaVuSans-52"/>
       </defs>
       <use xlink:href="#DejaVuSans-52"/>
      </g>
     </g>
    </g>
    <g id="xtick_4">
     <g id="line2d_7">
      <path clip-path="url(#pb89d73a7ec)" d="M 317.4912 298.944 
L 317.4912 6.912 
" style="fill:none;stroke:#b0b0b0;stroke-linecap:square;stroke-width:0.8;"/>
     </g>
     <g id="line2d_8">
      <g>
       <use style="stroke:#000000;stroke-width:0.8;" x="317.4912" xlink:href="#m055e99c968" y="298.944"/>
      </g>
     </g>
     <g id="text_4">
      <!-- 6 -->
      <g transform="translate(312.083075 318.861344)scale(0.17 -0.17)">
       <defs>
        <path d="M 33.015625 40.375 
Q 26.375 40.375 22.484375 35.828125 
Q 18.609375 31.296875 18.609375 23.390625 
Q 18.609375 15.53125 22.484375 10.953125 
Q 26.375 6.390625 33.015625 6.390625 
Q 39.65625 6.390625 43.53125 10.953125 
Q 47.40625 15.53125 47.40625 23.390625 
Q 47.40625 31.296875 43.53125 35.828125 
Q 39.65625 40.375 33.015625 40.375 
z
M 52.59375 71.296875 
L 52.59375 62.3125 
Q 48.875 64.0625 45.09375 64.984375 
Q 41.3125 65.921875 37.59375 65.921875 
Q 27.828125 65.921875 22.671875 59.328125 
Q 17.53125 52.734375 16.796875 39.40625 
Q 19.671875 43.65625 24.015625 45.921875 
Q 28.375 48.1875 33.59375 48.1875 
Q 44.578125 48.1875 50.953125 41.515625 
Q 57.328125 34.859375 57.328125 23.390625 
Q 57.328125 12.15625 50.6875 5.359375 
Q 44.046875 -1.421875 33.015625 -1.421875 
Q 20.359375 -1.421875 13.671875 8.265625 
Q 6.984375 17.96875 6.984375 36.375 
Q 6.984375 53.65625 15.1875 63.9375 
Q 23.390625 74.21875 37.203125 74.21875 
Q 40.921875 74.21875 44.703125 73.484375 
Q 48.484375 72.75 52.59375 71.296875 
z
" id="DejaVuSans-54"/>
       </defs>
       <use xlink:href="#DejaVuSans-54"/>
      </g>
     </g>
    </g>
    <g id="xtick_5">
     <g id="line2d_9">
      <path clip-path="url(#pb89d73a7ec)" d="M 100.9152 298.944 
L 100.9152 6.912 
" style="fill:none;stroke:#b0b0b0;stroke-linecap:square;stroke-width:0.8;"/>
     </g>
     <g id="line2d_10">
      <defs>
       <path d="M 0 0 
L 0 2 
" id="m93792ee5e5" style="stroke:#000000;stroke-width:0.6;"/>
      </defs>
      <g>
       <use style="stroke:#000000;stroke-width:0.6;" x="100.9152" xlink:href="#m93792ee5e5" y="298.944"/>
      </g>
     </g>
    </g>
    <g id="xtick_6">
     <g id="line2d_11">
      <path clip-path="url(#pb89d73a7ec)" d="M 187.5456 298.944 
L 187.5456 6.912 
" style="fill:none;stroke:#b0b0b0;stroke-linecap:square;stroke-width:0.8;"/>
     </g>
     <g id="line2d_12">
      <g>
       <use style="stroke:#000000;stroke-width:0.6;" x="187.5456" xlink:href="#m93792ee5e5" y="298.944"/>
      </g>
     </g>
    </g>
    <g id="xtick_7">
     <g id="line2d_13">
      <path clip-path="url(#pb89d73a7ec)" d="M 274.176 298.944 
L 274.176 6.912 
" style="fill:none;stroke:#b0b0b0;stroke-linecap:square;stroke-width:0.8;"/>
     </g>
     <g id="line2d_14">
      <g>
       <use style="stroke:#000000;stroke-width:0.6;" x="274.176" xlink:href="#m93792ee5e5" y="298.944"/>
      </g>
     </g>
    </g>
    <g id="xtick_8">
     <g id="line2d_15">
      <path clip-path="url(#pb89d73a7ec)" d="M 360.8064 298.944 
L 360.8064 6.912 
" style="fill:none;stroke:#b0b0b0;stroke-linecap:square;stroke-width:0.8;"/>
     </g>
     <g id="line2d_16">
      <g>
       <use style="stroke:#000000;stroke-width:0.6;" x="360.8064" xlink:href="#m93792ee5e5" y="298.944"/>
      </g>
     </g>
    </g>
    <g id="text_5">
     <!-- log10(evals / dimension) -->
     <g transform="translate(104.238825 339.314156)scale(0.17 -0.17)">
      <defs>
       <path d="M 9.421875 75.984375 
L 18.40625 75.984375 
L 18.40625 0 
L 9.421875 0 
z
" id="DejaVuSans-108"/>
       <path d="M 30.609375 48.390625 
Q 23.390625 48.390625 19.1875 42.75 
Q 14.984375 37.109375 14.984375 27.296875 
Q 14.984375 17.484375 19.15625 11.84375 
Q 23.34375 6.203125 30.609375 6.203125 
Q 37.796875 6.203125 41.984375 11.859375 
Q 46.1875 17.53125 46.1875 27.296875 
Q 46.1875 37.015625 41.984375 42.703125 
Q 37.796875 48.390625 30.609375 48.390625 
z
M 30.609375 56 
Q 42.328125 56 49.015625 48.375 
Q 55.71875 40.765625 55.71875 27.296875 
Q 55.71875 13.875 49.015625 6.21875 
Q 42.328125 -1.421875 30.609375 -1.421875 
Q 18.84375 -1.421875 12.171875 6.21875 
Q 5.515625 13.875 5.515625 27.296875 
Q 5.515625 40.765625 12.171875 48.375 
Q 18.84375 56 30.609375 56 
z
" id="DejaVuSans-111"/>
       <path d="M 45.40625 27.984375 
Q 45.40625 37.75 41.375 43.109375 
Q 37.359375 48.484375 30.078125 48.484375 
Q 22.859375 48.484375 18.828125 43.109375 
Q 14.796875 37.75 14.796875 27.984375 
Q 14.796875 18.265625 18.828125 12.890625 
Q 22.859375 7.515625 30.078125 7.515625 
Q 37.359375 7.515625 41.375 12.890625 
Q 45.40625 18.265625 45.40625 27.984375 
z
M 54.390625 6.78125 
Q 54.390625 -7.171875 48.1875 -13.984375 
Q 42 -20.796875 29.203125 -20.796875 
Q 24.46875 -20.796875 20.265625 -20.09375 
Q 16.0625 -19.390625 12.109375 -17.921875 
L 12.109375 -9.1875 
Q 16.0625 -11.328125 19.921875 -12.34375 
Q 23.78125 -13.375 27.78125 -13.375 
Q 36.625 -13.375 41.015625 -8.765625 
Q 45.40625 -4.15625 45.40625 5.171875 
L 45.40625 9.625 
Q 42.625 4.78125 38.28125 2.390625 
Q 33.9375 0 27.875 0 
Q 17.828125 0 11.671875 7.65625 
Q 5.515625 15.328125 5.515625 27.984375 
Q 5.515625 40.671875 11.671875 48.328125 
Q 17.828125 56 27.875 56 
Q 33.9375 56 38.28125 53.609375 
Q 42.625 51.21875 45.40625 46.390625 
L 45.40625 54.6875 
L 54.390625 54.6875 
z
" id="DejaVuSans-103"/>
       <path d="M 12.40625 8.296875 
L 28.515625 8.296875 
L 28.515625 63.921875 
L 10.984375 60.40625 
L 10.984375 69.390625 
L 28.421875 72.90625 
L 38.28125 72.90625 
L 38.28125 8.296875 
L 54.390625 8.296875 
L 54.390625 0 
L 12.40625 0 
z
" id="DejaVuSans-49"/>
       <path d="M 31 75.875 
Q 24.46875 64.65625 21.28125 53.65625 
Q 18.109375 42.671875 18.109375 31.390625 
Q 18.109375 20.125 21.3125 9.0625 
Q 24.515625 -2 31 -13.1875 
L 23.1875 -13.1875 
Q 15.875 -1.703125 12.234375 9.375 
Q 8.59375 20.453125 8.59375 31.390625 
Q 8.59375 42.28125 12.203125 53.3125 
Q 15.828125 64.359375 23.1875 75.875 
z
" id="DejaVuSans-40"/>
       <path d="M 56.203125 29.59375 
L 56.203125 25.203125 
L 14.890625 25.203125 
Q 15.484375 15.921875 20.484375 11.0625 
Q 25.484375 6.203125 34.421875 6.203125 
Q 39.59375 6.203125 44.453125 7.46875 
Q 49.3125 8.734375 54.109375 11.28125 
L 54.109375 2.78125 
Q 49.265625 0.734375 44.1875 -0.34375 
Q 39.109375 -1.421875 33.890625 -1.421875 
Q 20.796875 -1.421875 13.15625 6.1875 
Q 5.515625 13.8125 5.515625 26.8125 
Q 5.515625 40.234375 12.765625 48.109375 
Q 20.015625 56 32.328125 56 
Q 43.359375 56 49.78125 48.890625 
Q 56.203125 41.796875 56.203125 29.59375 
z
M 47.21875 32.234375 
Q 47.125 39.59375 43.09375 43.984375 
Q 39.0625 48.390625 32.421875 48.390625 
Q 24.90625 48.390625 20.390625 44.140625 
Q 15.875 39.890625 15.1875 32.171875 
z
" id="DejaVuSans-101"/>
       <path d="M 2.984375 54.6875 
L 12.5 54.6875 
L 29.59375 8.796875 
L 46.6875 54.6875 
L 56.203125 54.6875 
L 35.6875 0 
L 23.484375 0 
z
" id="DejaVuSans-118"/>
       <path d="M 34.28125 27.484375 
Q 23.390625 27.484375 19.1875 25 
Q 14.984375 22.515625 14.984375 16.5 
Q 14.984375 11.71875 18.140625 8.90625 
Q 21.296875 6.109375 26.703125 6.109375 
Q 34.1875 6.109375 38.703125 11.40625 
Q 43.21875 16.703125 43.21875 25.484375 
L 43.21875 27.484375 
z
M 52.203125 31.203125 
L 52.203125 0 
L 43.21875 0 
L 43.21875 8.296875 
Q 40.140625 3.328125 35.546875 0.953125 
Q 30.953125 -1.421875 24.3125 -1.421875 
Q 15.921875 -1.421875 10.953125 3.296875 
Q 6 8.015625 6 15.921875 
Q 6 25.140625 12.171875 29.828125 
Q 18.359375 34.515625 30.609375 34.515625 
L 43.21875 34.515625 
L 43.21875 35.40625 
Q 43.21875 41.609375 39.140625 45 
Q 35.0625 48.390625 27.6875 48.390625 
Q 23 48.390625 18.546875 47.265625 
Q 14.109375 46.140625 10.015625 43.890625 
L 10.015625 52.203125 
Q 14.9375 54.109375 19.578125 55.046875 
Q 24.21875 56 28.609375 56 
Q 40.484375 56 46.34375 49.84375 
Q 52.203125 43.703125 52.203125 31.203125 
z
" id="DejaVuSans-97"/>
       <path d="M 44.28125 53.078125 
L 44.28125 44.578125 
Q 40.484375 46.53125 36.375 47.5 
Q 32.28125 48.484375 27.875 48.484375 
Q 21.1875 48.484375 17.84375 46.4375 
Q 14.5 44.390625 14.5 40.28125 
Q 14.5 37.15625 16.890625 35.375 
Q 19.28125 33.59375 26.515625 31.984375 
L 29.59375 31.296875 
Q 39.15625 29.25 43.1875 25.515625 
Q 47.21875 21.78125 47.21875 15.09375 
Q 47.21875 7.46875 41.1875 3.015625 
Q 35.15625 -1.421875 24.609375 -1.421875 
Q 20.21875 -1.421875 15.453125 -0.5625 
Q 10.6875 0.296875 5.421875 2 
L 5.421875 11.28125 
Q 10.40625 8.6875 15.234375 7.390625 
Q 20.0625 6.109375 24.8125 6.109375 
Q 31.15625 6.109375 34.5625 8.28125 
Q 37.984375 10.453125 37.984375 14.40625 
Q 37.984375 18.0625 35.515625 20.015625 
Q 33.0625 21.96875 24.703125 23.78125 
L 21.578125 24.515625 
Q 13.234375 26.265625 9.515625 29.90625 
Q 5.8125 33.546875 5.8125 39.890625 
Q 5.8125 47.609375 11.28125 51.796875 
Q 16.75 56 26.8125 56 
Q 31.78125 56 36.171875 55.265625 
Q 40.578125 54.546875 44.28125 53.078125 
z
" id="DejaVuSans-115"/>
       <path id="DejaVuSans-32"/>
       <path d="M 25.390625 72.90625 
L 33.6875 72.90625 
L 8.296875 -9.28125 
L 0 -9.28125 
z
" id="DejaVuSans-47"/>
       <path d="M 45.40625 46.390625 
L 45.40625 75.984375 
L 54.390625 75.984375 
L 54.390625 0 
L 45.40625 0 
L 45.40625 8.203125 
Q 42.578125 3.328125 38.25 0.953125 
Q 33.9375 -1.421875 27.875 -1.421875 
Q 17.96875 -1.421875 11.734375 6.484375 
Q 5.515625 14.40625 5.515625 27.296875 
Q 5.515625 40.1875 11.734375 48.09375 
Q 17.96875 56 27.875 56 
Q 33.9375 56 38.25 53.625 
Q 42.578125 51.265625 45.40625 46.390625 
z
M 14.796875 27.296875 
Q 14.796875 17.390625 18.875 11.75 
Q 22.953125 6.109375 30.078125 6.109375 
Q 37.203125 6.109375 41.296875 11.75 
Q 45.40625 17.390625 45.40625 27.296875 
Q 45.40625 37.203125 41.296875 42.84375 
Q 37.203125 48.484375 30.078125 48.484375 
Q 22.953125 48.484375 18.875 42.84375 
Q 14.796875 37.203125 14.796875 27.296875 
z
" id="DejaVuSans-100"/>
       <path d="M 9.421875 54.6875 
L 18.40625 54.6875 
L 18.40625 0 
L 9.421875 0 
z
M 9.421875 75.984375 
L 18.40625 75.984375 
L 18.40625 64.59375 
L 9.421875 64.59375 
z
" id="DejaVuSans-105"/>
       <path d="M 52 44.1875 
Q 55.375 50.25 60.0625 53.125 
Q 64.75 56 71.09375 56 
Q 79.640625 56 84.28125 50.015625 
Q 88.921875 44.046875 88.921875 33.015625 
L 88.921875 0 
L 79.890625 0 
L 79.890625 32.71875 
Q 79.890625 40.578125 77.09375 44.375 
Q 74.3125 48.1875 68.609375 48.1875 
Q 61.625 48.1875 57.5625 43.546875 
Q 53.515625 38.921875 53.515625 30.90625 
L 53.515625 0 
L 44.484375 0 
L 44.484375 32.71875 
Q 44.484375 40.625 41.703125 44.40625 
Q 38.921875 48.1875 33.109375 48.1875 
Q 26.21875 48.1875 22.15625 43.53125 
Q 18.109375 38.875 18.109375 30.90625 
L 18.109375 0 
L 9.078125 0 
L 9.078125 54.6875 
L 18.109375 54.6875 
L 18.109375 46.1875 
Q 21.1875 51.21875 25.484375 53.609375 
Q 29.78125 56 35.6875 56 
Q 41.65625 56 45.828125 52.96875 
Q 50 49.953125 52 44.1875 
z
" id="DejaVuSans-109"/>
       <path d="M 54.890625 33.015625 
L 54.890625 0 
L 45.90625 0 
L 45.90625 32.71875 
Q 45.90625 40.484375 42.875 44.328125 
Q 39.84375 48.1875 33.796875 48.1875 
Q 26.515625 48.1875 22.3125 43.546875 
Q 18.109375 38.921875 18.109375 30.90625 
L 18.109375 0 
L 9.078125 0 
L 9.078125 54.6875 
L 18.109375 54.6875 
L 18.109375 46.1875 
Q 21.34375 51.125 25.703125 53.5625 
Q 30.078125 56 35.796875 56 
Q 45.21875 56 50.046875 50.171875 
Q 54.890625 44.34375 54.890625 33.015625 
z
" id="DejaVuSans-110"/>
       <path d="M 8.015625 75.875 
L 15.828125 75.875 
Q 23.140625 64.359375 26.78125 53.3125 
Q 30.421875 42.28125 30.421875 31.390625 
Q 30.421875 20.453125 26.78125 9.375 
Q 23.140625 -1.703125 15.828125 -13.1875 
L 8.015625 -13.1875 
Q 14.5 -2 17.703125 9.0625 
Q 20.90625 20.125 20.90625 31.390625 
Q 20.90625 42.671875 17.703125 53.65625 
Q 14.5 64.65625 8.015625 75.875 
z
" id="DejaVuSans-41"/>
      </defs>
      <use xlink:href="#DejaVuSans-108"/>
      <use x="27.783203" xlink:href="#DejaVuSans-111"/>
      <use x="88.964844" xlink:href="#DejaVuSans-103"/>
      <use x="152.441406" xlink:href="#DejaVuSans-49"/>
      <use x="216.064453" xlink:href="#DejaVuSans-48"/>
      <use x="279.6875" xlink:href="#DejaVuSans-40"/>
      <use x="318.701172" xlink:href="#DejaVuSans-101"/>
      <use x="380.224609" xlink:href="#DejaVuSans-118"/>
      <use x="439.404297" xlink:href="#DejaVuSans-97"/>
      <use x="500.683594" xlink:href="#DejaVuSans-108"/>
      <use x="528.466797" xlink:href="#DejaVuSans-115"/>
      <use x="580.566406" xlink:href="#DejaVuSans-32"/>
      <use x="612.353516" xlink:href="#DejaVuSans-47"/>
      <use x="646.044922" xlink:href="#DejaVuSans-32"/>
      <use x="677.832031" xlink:href="#DejaVuSans-100"/>
      <use x="741.308594" xlink:href="#DejaVuSans-105"/>
      <use x="769.091797" xlink:href="#DejaVuSans-109"/>
      <use x="866.503906" xlink:href="#DejaVuSans-101"/>
      <use x="928.027344" xlink:href="#DejaVuSans-110"/>
      <use x="991.40625" xlink:href="#DejaVuSans-115"/>
      <use x="1043.505859" xlink:href="#DejaVuSans-105"/>
      <use x="1071.289062" xlink:href="#DejaVuSans-111"/>
      <use x="1132.470703" xlink:href="#DejaVuSans-110"/>
      <use x="1195.849609" xlink:href="#DejaVuSans-41"/>
     </g>
    </g>
   </g>
   <g id="matplotlib.axis_2">
    <g id="ytick_1">
     <g id="line2d_17">
      <path clip-path="url(#pb89d73a7ec)" d="M 57.6 298.944 
L 360.8064 298.944 
" style="fill:none;stroke:#b0b0b0;stroke-linecap:square;stroke-width:0.8;"/>
     </g>
     <g id="line2d_18">
      <defs>
       <path d="M 0 0 
L -3.5 0 
" id="m029a5c5611" style="stroke:#000000;stroke-width:0.8;"/>
      </defs>
      <g>
       <use style="stroke:#000000;stroke-width:0.8;" x="57.6" xlink:href="#m029a5c5611" y="298.944"/>
      </g>
     </g>
     <g id="text_6">
      <!-- 0.0 -->
      <g transform="translate(25.155 305.02275)scale(0.16 -0.16)">
       <defs>
        <path d="M 10.6875 12.40625 
L 21 12.40625 
L 21 0 
L 10.6875 0 
z
" id="DejaVuSans-46"/>
       </defs>
       <use xlink:href="#DejaVuSans-48"/>
       <use x="63.623047" xlink:href="#DejaVuSans-46"/>
       <use x="95.410156" xlink:href="#DejaVuSans-48"/>
      </g>
     </g>
    </g>
    <g id="ytick_2">
     <g id="line2d_19">
      <path clip-path="url(#pb89d73a7ec)" d="M 57.6 240.5376 
L 360.8064 240.5376 
" style="fill:none;stroke:#b0b0b0;stroke-linecap:square;stroke-width:0.8;"/>
     </g>
     <g id="line2d_20">
      <g>
       <use style="stroke:#000000;stroke-width:0.8;" x="57.6" xlink:href="#m029a5c5611" y="240.5376"/>
      </g>
     </g>
     <g id="text_7">
      <!-- 0.2 -->
      <g transform="translate(25.155 246.61635)scale(0.16 -0.16)">
       <use xlink:href="#DejaVuSans-48"/>
       <use x="63.623047" xlink:href="#DejaVuSans-46"/>
       <use x="95.410156" xlink:href="#DejaVuSans-50"/>
      </g>
     </g>
    </g>
    <g id="ytick_3">
     <g id="line2d_21">
      <path clip-path="url(#pb89d73a7ec)" d="M 57.6 182.1312 
L 360.8064 182.1312 
" style="fill:none;stroke:#b0b0b0;stroke-linecap:square;stroke-width:0.8;"/>
     </g>
     <g id="line2d_22">
      <g>
       <use style="stroke:#000000;stroke-width:0.8;" x="57.6" xlink:href="#m029a5c5611" y="182.1312"/>
      </g>
     </g>
     <g id="text_8">
      <!-- 0.4 -->
      <g transform="translate(25.155 188.20995)scale(0.16 -0.16)">
       <use xlink:href="#DejaVuSans-48"/>
       <use x="63.623047" xlink:href="#DejaVuSans-46"/>
       <use x="95.410156" xlink:href="#DejaVuSans-52"/>
      </g>
     </g>
    </g>
    <g id="ytick_4">
     <g id="line2d_23">
      <path clip-path="url(#pb89d73a7ec)" d="M 57.6 123.7248 
L 360.8064 123.7248 
" style="fill:none;stroke:#b0b0b0;stroke-linecap:square;stroke-width:0.8;"/>
     </g>
     <g id="line2d_24">
      <g>
       <use style="stroke:#000000;stroke-width:0.8;" x="57.6" xlink:href="#m029a5c5611" y="123.7248"/>
      </g>
     </g>
     <g id="text_9">
      <!-- 0.6 -->
      <g transform="translate(25.155 129.80355)scale(0.16 -0.16)">
       <use xlink:href="#DejaVuSans-48"/>
       <use x="63.623047" xlink:href="#DejaVuSans-46"/>
       <use x="95.410156" xlink:href="#DejaVuSans-54"/>
      </g>
     </g>
    </g>
    <g id="ytick_5">
     <g id="line2d_25">
      <path clip-path="url(#pb89d73a7ec)" d="M 57.6 65.3184 
L 360.8064 65.3184 
" style="fill:none;stroke:#b0b0b0;stroke-linecap:square;stroke-width:0.8;"/>
     </g>
     <g id="line2d_26">
      <g>
       <use style="stroke:#000000;stroke-width:0.8;" x="57.6" xlink:href="#m029a5c5611" y="65.3184"/>
      </g>
     </g>
     <g id="text_10">
      <!-- 0.8 -->
      <g transform="translate(25.155 71.39715)scale(0.16 -0.16)">
       <defs>
        <path d="M 31.78125 34.625 
Q 24.75 34.625 20.71875 30.859375 
Q 16.703125 27.09375 16.703125 20.515625 
Q 16.703125 13.921875 20.71875 10.15625 
Q 24.75 6.390625 31.78125 6.390625 
Q 38.8125 6.390625 42.859375 10.171875 
Q 46.921875 13.96875 46.921875 20.515625 
Q 46.921875 27.09375 42.890625 30.859375 
Q 38.875 34.625 31.78125 34.625 
z
M 21.921875 38.8125 
Q 15.578125 40.375 12.03125 44.71875 
Q 8.5 49.078125 8.5 55.328125 
Q 8.5 64.0625 14.71875 69.140625 
Q 20.953125 74.21875 31.78125 74.21875 
Q 42.671875 74.21875 48.875 69.140625 
Q 55.078125 64.0625 55.078125 55.328125 
Q 55.078125 49.078125 51.53125 44.71875 
Q 48 40.375 41.703125 38.8125 
Q 48.828125 37.15625 52.796875 32.3125 
Q 56.78125 27.484375 56.78125 20.515625 
Q 56.78125 9.90625 50.3125 4.234375 
Q 43.84375 -1.421875 31.78125 -1.421875 
Q 19.734375 -1.421875 13.25 4.234375 
Q 6.78125 9.90625 6.78125 20.515625 
Q 6.78125 27.484375 10.78125 32.3125 
Q 14.796875 37.15625 21.921875 38.8125 
z
M 18.3125 54.390625 
Q 18.3125 48.734375 21.84375 45.5625 
Q 25.390625 42.390625 31.78125 42.390625 
Q 38.140625 42.390625 41.71875 45.5625 
Q 45.3125 48.734375 45.3125 54.390625 
Q 45.3125 60.0625 41.71875 63.234375 
Q 38.140625 66.40625 31.78125 66.40625 
Q 25.390625 66.40625 21.84375 63.234375 
Q 18.3125 60.0625 18.3125 54.390625 
z
" id="DejaVuSans-56"/>
       </defs>
       <use xlink:href="#DejaVuSans-48"/>
       <use x="63.623047" xlink:href="#DejaVuSans-46"/>
       <use x="95.410156" xlink:href="#DejaVuSans-56"/>
      </g>
     </g>
    </g>
    <g id="ytick_6">
     <g id="line2d_27">
      <path clip-path="url(#pb89d73a7ec)" d="M 57.6 6.912 
L 360.8064 6.912 
" style="fill:none;stroke:#b0b0b0;stroke-linecap:square;stroke-width:0.8;"/>
     </g>
     <g id="line2d_28">
      <g>
       <use style="stroke:#000000;stroke-width:0.8;" x="57.6" xlink:href="#m029a5c5611" y="6.912"/>
      </g>
     </g>
     <g id="text_11">
      <!-- 1.0 -->
      <g transform="translate(25.155 12.99075)scale(0.16 -0.16)">
       <use xlink:href="#DejaVuSans-49"/>
       <use x="63.623047" xlink:href="#DejaVuSans-46"/>
       <use x="95.410156" xlink:href="#DejaVuSans-48"/>
      </g>
     </g>
    </g>
    <g id="text_12">
     <!-- Fraction of function,target pairs -->
     <g transform="translate(17.619531 287.313)rotate(-90)scale(0.17 -0.17)">
      <defs>
       <path d="M 9.8125 72.90625 
L 51.703125 72.90625 
L 51.703125 64.59375 
L 19.671875 64.59375 
L 19.671875 43.109375 
L 48.578125 43.109375 
L 48.578125 34.8125 
L 19.671875 34.8125 
L 19.671875 0 
L 9.8125 0 
z
" id="DejaVuSans-70"/>
       <path d="M 41.109375 46.296875 
Q 39.59375 47.171875 37.8125 47.578125 
Q 36.03125 48 33.890625 48 
Q 26.265625 48 22.1875 43.046875 
Q 18.109375 38.09375 18.109375 28.8125 
L 18.109375 0 
L 9.078125 0 
L 9.078125 54.6875 
L 18.109375 54.6875 
L 18.109375 46.1875 
Q 20.953125 51.171875 25.484375 53.578125 
Q 30.03125 56 36.53125 56 
Q 37.453125 56 38.578125 55.875 
Q 39.703125 55.765625 41.0625 55.515625 
z
" id="DejaVuSans-114"/>
       <path d="M 48.78125 52.59375 
L 48.78125 44.1875 
Q 44.96875 46.296875 41.140625 47.34375 
Q 37.3125 48.390625 33.40625 48.390625 
Q 24.65625 48.390625 19.8125 42.84375 
Q 14.984375 37.3125 14.984375 27.296875 
Q 14.984375 17.28125 19.8125 11.734375 
Q 24.65625 6.203125 33.40625 6.203125 
Q 37.3125 6.203125 41.140625 7.25 
Q 44.96875 8.296875 48.78125 10.40625 
L 48.78125 2.09375 
Q 45.015625 0.34375 40.984375 -0.53125 
Q 36.96875 -1.421875 32.421875 -1.421875 
Q 20.0625 -1.421875 12.78125 6.34375 
Q 5.515625 14.109375 5.515625 27.296875 
Q 5.515625 40.671875 12.859375 48.328125 
Q 20.21875 56 33.015625 56 
Q 37.15625 56 41.109375 55.140625 
Q 45.0625 54.296875 48.78125 52.59375 
z
" id="DejaVuSans-99"/>
       <path d="M 18.3125 70.21875 
L 18.3125 54.6875 
L 36.8125 54.6875 
L 36.8125 47.703125 
L 18.3125 47.703125 
L 18.3125 18.015625 
Q 18.3125 11.328125 20.140625 9.421875 
Q 21.96875 7.515625 27.59375 7.515625 
L 36.8125 7.515625 
L 36.8125 0 
L 27.59375 0 
Q 17.1875 0 13.234375 3.875 
Q 9.28125 7.765625 9.28125 18.015625 
L 9.28125 47.703125 
L 2.6875 47.703125 
L 2.6875 54.6875 
L 9.28125 54.6875 
L 9.28125 70.21875 
z
" id="DejaVuSans-116"/>
       <path d="M 37.109375 75.984375 
L 37.109375 68.5 
L 28.515625 68.5 
Q 23.6875 68.5 21.796875 66.546875 
Q 19.921875 64.59375 19.921875 59.515625 
L 19.921875 54.6875 
L 34.71875 54.6875 
L 34.71875 47.703125 
L 19.921875 47.703125 
L 19.921875 0 
L 10.890625 0 
L 10.890625 47.703125 
L 2.296875 47.703125 
L 2.296875 54.6875 
L 10.890625 54.6875 
L 10.890625 58.5 
Q 10.890625 67.625 15.140625 71.796875 
Q 19.390625 75.984375 28.609375 75.984375 
z
" id="DejaVuSans-102"/>
       <path d="M 8.5 21.578125 
L 8.5 54.6875 
L 17.484375 54.6875 
L 17.484375 21.921875 
Q 17.484375 14.15625 20.5 10.265625 
Q 23.53125 6.390625 29.59375 6.390625 
Q 36.859375 6.390625 41.078125 11.03125 
Q 45.3125 15.671875 45.3125 23.6875 
L 45.3125 54.6875 
L 54.296875 54.6875 
L 54.296875 0 
L 45.3125 0 
L 45.3125 8.40625 
Q 42.046875 3.421875 37.71875 1 
Q 33.40625 -1.421875 27.6875 -1.421875 
Q 18.265625 -1.421875 13.375 4.4375 
Q 8.5 10.296875 8.5 21.578125 
z
M 31.109375 56 
z
" id="DejaVuSans-117"/>
       <path d="M 11.71875 12.40625 
L 22.015625 12.40625 
L 22.015625 4 
L 14.015625 -11.625 
L 7.71875 -11.625 
L 11.71875 4 
z
" id="DejaVuSans-44"/>
       <path d="M 18.109375 8.203125 
L 18.109375 -20.796875 
L 9.078125 -20.796875 
L 9.078125 54.6875 
L 18.109375 54.6875 
L 18.109375 46.390625 
Q 20.953125 51.265625 25.265625 53.625 
Q 29.59375 56 35.59375 56 
Q 45.5625 56 51.78125 48.09375 
Q 58.015625 40.1875 58.015625 27.296875 
Q 58.015625 14.40625 51.78125 6.484375 
Q 45.5625 -1.421875 35.59375 -1.421875 
Q 29.59375 -1.421875 25.265625 0.953125 
Q 20.953125 3.328125 18.109375 8.203125 
z
M 48.6875 27.296875 
Q 48.6875 37.203125 44.609375 42.84375 
Q 40.53125 48.484375 33.40625 48.484375 
Q 26.265625 48.484375 22.1875 42.84375 
Q 18.109375 37.203125 18.109375 27.296875 
Q 18.109375 17.390625 22.1875 11.75 
Q 26.265625 6.109375 33.40625 6.109375 
Q 40.53125 6.109375 44.609375 11.75 
Q 48.6875 17.390625 48.6875 27.296875 
z
" id="DejaVuSans-112"/>
      </defs>
      <use xlink:href="#DejaVuSans-70"/>
      <use x="50.269531" xlink:href="#DejaVuSans-114"/>
      <use x="91.382812" xlink:href="#DejaVuSans-97"/>
      <use x="152.662109" xlink:href="#DejaVuSans-99"/>
      <use x="207.642578" xlink:href="#DejaVuSans-116"/>
      <use x="246.851562" xlink:href="#DejaVuSans-105"/>
      <use x="274.634766" xlink:href="#DejaVuSans-111"/>
      <use x="335.816406" xlink:href="#DejaVuSans-110"/>
      <use x="399.195312" xlink:href="#DejaVuSans-32"/>
      <use x="430.982422" xlink:href="#DejaVuSans-111"/>
      <use x="492.164062" xlink:href="#DejaVuSans-102"/>
      <use x="527.369141" xlink:href="#DejaVuSans-32"/>
      <use x="559.15625" xlink:href="#DejaVuSans-102"/>
      <use x="594.361328" xlink:href="#DejaVuSans-117"/>
      <use x="657.740234" xlink:href="#DejaVuSans-110"/>
      <use x="721.119141" xlink:href="#DejaVuSans-99"/>
      <use x="776.099609" xlink:href="#DejaVuSans-116"/>
      <use x="815.308594" xlink:href="#DejaVuSans-105"/>
      <use x="843.091797" xlink:href="#DejaVuSans-111"/>
      <use x="904.273438" xlink:href="#DejaVuSans-110"/>
      <use x="967.652344" xlink:href="#DejaVuSans-44"/>
      <use x="999.439453" xlink:href="#DejaVuSans-116"/>
      <use x="1038.648438" xlink:href="#DejaVuSans-97"/>
      <use x="1099.927734" xlink:href="#DejaVuSans-114"/>
      <use x="1139.291016" xlink:href="#DejaVuSans-103"/>
      <use x="1202.767578" xlink:href="#DejaVuSans-101"/>
      <use x="1264.291016" xlink:href="#DejaVuSans-116"/>
      <use x="1303.5" xlink:href="#DejaVuSans-32"/>
      <use x="1335.287109" xlink:href="#DejaVuSans-112"/>
      <use x="1398.763672" xlink:href="#DejaVuSans-97"/>
      <use x="1460.042969" xlink:href="#DejaVuSans-105"/>
      <use x="1487.826172" xlink:href="#DejaVuSans-114"/>
      <use x="1528.939453" xlink:href="#DejaVuSans-115"/>
     </g>
    </g>
   </g>
   <g id="line2d_29">
    <defs>
     <path d="M 0 1.5 
C 0.397805 1.5 0.77937 1.341951 1.06066 1.06066 
C 1.341951 0.77937 1.5 0.397805 1.5 0 
C 1.5 -0.397805 1.341951 -0.77937 1.06066 -1.06066 
C 0.77937 -1.341951 0.397805 -1.5 0 -1.5 
C -0.397805 -1.5 -0.77937 -1.341951 -1.06066 -1.06066 
C -1.341951 -0.77937 -1.5 -0.397805 -1.5 0 
C -1.5 0.397805 -1.341951 0.77937 -1.06066 1.06066 
C -0.77937 1.341951 -0.397805 1.5 0 1.5 
z
" id="m995874990e" style="stroke:#000080;"/>
    </defs>
    <g>
     <use style="fill:#000080;stroke:#000080;" x="312.702148" xlink:href="#m995874990e" y="135.121171"/>
     <use style="fill:#000080;stroke:#000080;" x="312.702148" xlink:href="#m995874990e" y="135.121171"/>
    </g>
   </g>
   <g id="line2d_30">
    <path d="M 73.268314 298.944 
L 73.268314 298.587863 
L 74.836851 298.587863 
L 74.836851 297.756878 
L 75.574654 297.756878 
L 75.574654 297.638166 
L 76.284608 297.638166 
L 76.284608 297.400741 
L 76.96874 297.400741 
L 76.96874 297.163317 
L 77.628862 297.163317 
L 77.628862 296.332332 
L 80.059535 296.332332 
L 80.059535 296.094907 
L 81.166416 296.094907 
L 81.166416 295.857483 
L 81.696354 295.857483 
L 81.696354 295.738771 
L 82.211771 295.738771 
L 82.211771 295.620059 
L 82.713442 295.620059 
L 82.713442 295.263922 
L 83.202082 295.263922 
L 83.202082 295.026498 
L 83.678349 295.026498 
L 83.678349 294.670361 
L 85.471281 294.670361 
L 85.471281 294.551649 
L 85.894031 294.551649 
L 85.894031 294.432937 
L 86.307488 294.432937 
L 86.307488 294.195512 
L 86.712053 294.195512 
L 86.712053 293.839376 
L 87.1081 293.839376 
L 87.1081 293.245815 
L 87.876026 293.245815 
L 87.876026 292.889678 
L 88.248544 292.889678 
L 88.248544 292.770966 
L 88.972154 292.770966 
L 88.972154 292.533541 
L 89.323782 292.533541 
L 89.323782 292.058693 
L 89.668958 292.058693 
L 89.668958 291.821268 
L 90.007914 291.821268 
L 90.007914 291.702556 
L 90.340871 291.702556 
L 90.340871 291.227707 
L 90.668036 291.227707 
L 90.668036 290.990283 
L 90.989609 290.990283 
L 90.989609 290.634146 
L 91.305777 290.634146 
L 91.305777 290.515434 
L 91.616719 290.515434 
L 91.616719 290.27801 
L 91.922605 290.27801 
L 91.922605 289.684449 
L 92.519847 289.684449 
L 92.519847 289.447024 
L 93.098709 289.447024 
L 93.098709 288.853463 
L 93.381595 288.853463 
L 93.381595 288.14119 
L 93.66029 288.14119 
L 93.66029 288.022478 
L 93.934916 288.022478 
L 93.934916 287.310205 
L 94.205591 287.310205 
L 94.205591 286.954068 
L 94.472426 286.954068 
L 94.472426 286.597932 
L 94.735529 286.597932 
L 94.735529 286.47922 
L 94.995002 286.47922 
L 94.995002 286.123083 
L 95.250946 286.123083 
L 95.250946 285.885659 
L 95.752617 285.885659 
L 95.752617 285.648234 
L 95.998523 285.648234 
L 95.998523 284.698537 
L 96.241256 284.698537 
L 96.241256 284.3424 
L 96.480897 284.3424 
L 96.480897 283.867551 
L 96.717523 283.867551 
L 96.717523 283.392702 
L 96.95121 283.392702 
L 96.95121 282.561717 
L 97.18203 282.561717 
L 97.18203 282.324293 
L 97.410051 282.324293 
L 97.410051 282.086868 
L 97.635342 282.086868 
L 97.635342 281.61202 
L 97.857967 281.61202 
L 97.857967 281.018459 
L 98.077987 281.018459 
L 98.077987 280.662322 
L 98.295464 280.662322 
L 98.295464 280.424898 
L 98.510456 280.424898 
L 98.510456 280.306185 
L 98.723018 280.306185 
L 98.723018 279.950049 
L 98.933205 279.950049 
L 98.933205 279.119063 
L 99.14107 279.119063 
L 99.14107 279.000351 
L 99.346662 279.000351 
L 99.346662 278.762927 
L 99.550033 278.762927 
L 99.550033 278.525502 
L 99.751228 278.525502 
L 99.751228 278.169366 
L 99.950294 278.169366 
L 99.950294 277.575805 
L 100.147275 277.575805 
L 100.147275 277.33838 
L 100.342215 277.33838 
L 100.342215 276.863532 
L 100.535156 276.863532 
L 100.535156 276.269971 
L 100.726138 276.269971 
L 100.726138 274.964137 
L 100.9152 274.964137 
L 100.9152 274.489288 
L 101.102381 274.489288 
L 101.102381 274.370576 
L 101.471247 274.370576 
L 101.471247 273.895727 
L 101.653002 273.895727 
L 101.653002 273.658302 
L 101.833019 273.658302 
L 101.833019 273.302166 
L 102.011329 273.302166 
L 102.011329 272.233756 
L 102.187964 272.233756 
L 102.187964 271.046634 
L 102.708132 271.046634 
L 102.708132 270.571785 
L 102.878374 270.571785 
L 102.878374 269.978224 
L 103.047088 269.978224 
L 103.047088 269.384663 
L 103.380045 269.384663 
L 103.380045 269.028527 
L 103.544339 269.028527 
L 103.544339 268.909815 
L 103.868684 268.909815 
L 103.868684 268.553678 
L 104.028784 268.553678 
L 104.028784 268.197541 
L 104.187532 268.197541 
L 104.187532 267.841405 
L 104.344952 267.841405 
L 104.344952 267.722693 
L 104.501065 267.722693 
L 104.501065 267.01042 
L 104.655893 267.01042 
L 104.655893 266.535571 
L 104.809458 266.535571 
L 104.809458 266.416859 
L 104.961779 266.416859 
L 104.961779 265.704585 
L 105.112877 265.704585 
L 105.112877 264.992312 
L 105.26277 264.992312 
L 105.26277 264.517463 
L 105.411479 264.517463 
L 105.411479 263.449054 
L 105.559021 263.449054 
L 105.559021 263.092917 
L 105.705415 263.092917 
L 105.705415 262.618068 
L 105.850679 262.618068 
L 105.850679 262.499356 
L 105.99483 262.499356 
L 105.99483 261.905795 
L 106.137884 261.905795 
L 106.137884 261.549659 
L 106.279859 261.549659 
L 106.279859 261.430946 
L 106.42077 261.430946 
L 106.42077 261.193522 
L 106.560633 261.193522 
L 106.560633 261.07481 
L 106.699465 261.07481 
L 106.699465 260.718673 
L 106.837279 260.718673 
L 106.837279 260.362537 
L 106.974091 260.362537 
L 106.974091 260.0064 
L 107.109915 260.0064 
L 107.109915 259.531551 
L 107.244765 259.531551 
L 107.244765 259.056702 
L 107.378656 259.056702 
L 107.378656 258.819278 
L 107.643612 258.819278 
L 107.643612 257.988293 
L 107.774703 257.988293 
L 107.774703 257.27602 
L 107.904887 257.27602 
L 107.904887 256.326322 
L 108.034177 256.326322 
L 108.034177 255.614049 
L 108.162584 255.614049 
L 108.162584 254.901776 
L 108.29012 254.901776 
L 108.29012 254.783063 
L 108.416798 254.783063 
L 108.416798 254.426927 
L 108.542628 254.426927 
L 108.542628 253.952078 
L 108.667622 253.952078 
L 108.667622 252.883668 
L 108.791791 252.883668 
L 108.791791 252.527532 
L 108.915146 252.527532 
L 108.915146 251.815259 
L 109.037698 251.815259 
L 109.037698 251.577834 
L 109.159456 251.577834 
L 109.159456 251.221698 
L 109.280431 251.221698 
L 109.280431 250.865561 
L 109.400633 250.865561 
L 109.400633 250.509424 
L 109.520071 250.509424 
L 109.520071 250.272 
L 109.638757 250.272 
L 109.638757 250.153288 
L 109.756698 250.153288 
L 109.756698 249.322302 
L 109.873904 249.322302 
L 109.873904 249.084878 
L 109.990385 249.084878 
L 109.990385 248.372605 
L 110.106149 248.372605 
L 110.106149 247.422907 
L 110.221204 247.422907 
L 110.221204 245.998361 
L 110.335561 245.998361 
L 110.335561 245.523512 
L 110.449226 245.523512 
L 110.449226 244.811239 
L 110.562208 244.811239 
L 110.562208 243.624117 
L 110.674517 243.624117 
L 110.674517 243.149268 
L 110.786158 243.149268 
L 110.897141 242.318283 
L 111.117162 242.318283 
L 111.226215 241.487298 
L 111.334639 241.487298 
L 111.442442 241.012449 
L 111.54963 241.012449 
L 111.656212 240.5376 
L 111.762192 240.5376 
L 111.86758 240.062751 
L 111.97238 240.062751 
L 111.97238 238.994341 
L 112.180244 238.994341 
L 112.283321 237.213659 
L 112.385837 237.213659 
L 112.487797 236.501385 
L 112.589207 236.501385 
L 112.690074 235.789112 
L 112.790402 235.789112 
L 112.890198 233.889717 
L 112.989468 233.889717 
L 113.088217 233.058732 
L 113.186449 233.058732 
L 113.186449 232.583883 
L 113.381389 232.583883 
L 113.478107 231.87161 
L 113.57433 231.87161 
L 113.670063 231.159337 
L 113.860081 231.159337 
L 113.954374 230.8032 
L 114.048198 230.8032 
L 114.141556 229.853502 
L 114.326893 229.853502 
L 114.418881 229.259941 
L 114.601519 229.259941 
L 114.601519 228.903805 
L 114.7824 228.903805 
L 114.872193 228.547668 
L 114.961559 228.547668 
L 115.050503 227.835395 
L 115.139028 227.835395 
L 115.227139 227.360546 
L 115.314838 227.360546 
L 115.402131 226.885698 
L 115.489021 226.885698 
L 115.575511 226.173424 
L 115.661605 226.173424 
L 115.747307 225.698576 
L 115.83262 225.698576 
L 115.83262 225.461151 
L 116.002095 225.461151 
L 116.002095 225.342439 
L 116.170056 225.342439 
L 116.253478 224.86759 
L 116.336531 224.86759 
L 116.419219 224.511454 
L 116.665126 224.511454 
L 116.746385 224.036605 
L 116.827295 224.036605 
L 116.827295 223.79918 
L 116.988079 223.79918 
L 117.067958 222.849483 
L 117.1475 222.849483 
L 117.226706 222.374634 
L 117.384126 222.374634 
L 117.462345 222.018498 
L 117.540239 222.018498 
L 117.617813 221.543649 
L 117.695068 221.543649 
L 117.772007 221.306224 
L 117.848632 221.306224 
L 117.924947 220.712663 
L 118.000953 220.712663 
L 118.076654 220.237815 
L 118.450653 220.237815 
L 118.524569 219.881678 
L 118.598196 219.881678 
L 118.671535 219.525541 
L 118.74459 219.525541 
L 118.74459 219.169405 
L 118.962067 219.169405 
L 118.962067 218.813268 
L 119.105667 218.813268 
L 119.105667 218.575844 
L 119.24818 218.575844 
L 119.24818 218.457132 
L 119.459944 218.457132 
L 119.459944 218.33842 
L 119.599808 218.33842 
L 119.599808 218.100995 
L 119.738639 218.100995 
L 119.807672 217.388722 
L 119.944983 217.388722 
L 119.944983 217.27001 
L 120.0813 217.27001 
L 120.149089 217.032585 
L 120.216635 217.032585 
L 120.28394 216.557737 
L 120.351004 216.557737 
L 120.351004 216.439024 
L 120.48442 216.439024 
L 120.550775 216.2016 
L 120.616896 216.2016 
L 120.616896 216.082888 
L 120.879082 216.082888 
L 120.879082 215.964176 
L 121.008818 215.964176 
L 121.073351 215.608039 
L 121.137664 215.608039 
L 121.201758 215.370615 
L 121.39274 215.370615 
L 121.455972 215.13319 
L 121.581803 215.13319 
L 121.581803 215.014478 
L 121.768984 215.014478 
L 121.830966 214.539629 
L 122.439807 214.539629 
L 122.439807 214.420917 
L 122.618682 214.420917 
L 122.677931 213.946068 
L 122.795872 213.946068 
L 122.854567 213.589932 
L 123.029559 213.589932 
L 123.08753 213.233795 
L 123.260379 213.233795 
L 123.260379 213.115083 
L 123.374735 213.115083 
L 123.431654 212.877659 
L 123.991562 212.877659 
L 124.101572 212.165385 
L 124.156336 212.165385 
L 124.210942 211.571824 
L 124.588805 211.571824 
L 124.588805 211.453112 
L 124.748451 211.453112 
L 124.801367 211.096976 
L 125.011554 211.096976 
L 125.115773 210.740839 
L 125.47606 210.740839 
L 125.577745 210.503415 
L 125.678882 210.503415 
L 125.729248 210.26599 
L 126.028642 210.26599 
L 126.028642 210.147278 
L 126.225624 210.147278 
L 126.323346 209.791141 
L 126.613505 209.791141 
L 126.709238 209.435005 
L 126.946461 209.435005 
L 126.993549 209.19758 
L 127.087372 209.19758 
L 127.18073 208.841444 
L 127.412117 208.841444 
L 127.503881 208.485307 
L 127.549596 208.485307 
L 127.549596 208.366595 
L 127.776517 208.366595 
L 127.821575 208.129171 
L 127.911368 208.129171 
L 127.911368 208.010459 
L 128.178203 208.010459 
L 128.222309 207.773034 
L 128.39771 207.773034 
L 128.39771 207.53561 
L 128.528195 207.53561 
L 128.528195 207.416898 
L 128.743679 207.416898 
L 128.743679 207.298185 
L 128.871795 207.298185 
L 128.871795 207.179473 
L 129.041269 207.179473 
L 129.0834 206.942049 
L 129.499602 206.942049 
L 129.499602 206.823337 
L 129.622688 206.823337 
L 129.7043 206.585912 
L 129.78556 206.585912 
L 129.86647 206.348488 
L 130.067235 206.348488 
L 130.067235 206.229776 
L 130.226319 206.229776 
L 130.305359 205.754927 
L 130.46245 205.754927 
L 130.46245 205.517502 
L 130.579414 205.517502 
L 130.579414 205.39879 
L 130.964122 205.39879 
L 131.040128 205.161366 
L 131.153565 205.161366 
L 131.191226 204.923941 
L 131.266322 204.923941 
L 131.266322 204.805229 
L 131.489828 204.805229 
L 131.489828 204.567805 
L 131.747272 204.567805 
L 131.747272 204.449093 
L 132.073179 204.449093 
L 132.073179 204.33038 
L 132.251827 204.33038 
L 132.287354 204.092956 
L 132.499119 204.092956 
L 132.534182 203.380683 
L 132.881269 203.380683 
L 132.881269 203.261971 
L 133.120474 203.261971 
L 133.222067 202.787122 
L 133.523594 202.787122 
L 133.523594 202.549698 
L 134.015642 202.549698 
L 134.015642 202.430985 
L 134.208913 202.430985 
L 134.304809 202.074849 
L 134.368469 202.074849 
L 134.368469 201.956137 
L 134.589598 201.956137 
L 134.683578 201.718712 
L 134.7148 201.718712 
L 134.7148 201.6 
L 135.054871 201.6 
L 135.054871 201.481288 
L 135.35878 201.481288 
L 135.449003 201.243863 
L 135.717106 201.243863 
L 135.717106 201.125151 
L 135.835047 201.125151 
L 135.893741 200.887727 
L 135.952253 200.887727 
L 136.039681 200.650302 
L 136.155623 200.650302 
L 136.242113 200.412878 
L 136.270855 200.412878 
L 136.270855 200.294166 
L 136.385386 200.294166 
L 136.385386 200.175454 
L 136.947806 200.175454 
L 136.947806 200.056741 
L 137.195511 200.056741 
L 137.27736 199.344468 
L 137.412988 199.344468 
L 137.412988 199.225756 
L 137.734561 199.225756 
L 137.761112 198.86962 
L 138.284415 198.86962 
L 138.284415 198.750907 
L 138.489728 198.750907 
L 138.59155 198.276059 
L 138.642255 198.276059 
L 138.642255 198.157346 
L 138.768422 198.157346 
L 138.868751 197.919922 
L 138.89375 197.919922 
L 138.89375 197.80121 
L 139.018248 197.80121 
L 139.067817 197.563785 
L 139.362521 197.563785 
L 139.362521 197.445073 
L 139.604629 197.445073 
L 139.700607 197.088937 
L 139.77227 197.088937 
L 139.867398 196.7328 
L 139.962047 196.7328 
L 139.962047 196.614088 
L 140.126547 196.614088 
L 140.126547 196.495376 
L 140.543056 196.495376 
L 140.543056 196.376663 
L 140.838234 196.376663 
L 140.838234 196.257951 
L 141.217377 196.257951 
L 141.239443 196.020527 
L 141.545685 196.020527 
L 141.56737 195.545678 
L 141.782854 195.545678 
L 141.868361 195.189541 
L 142.038218 195.189541 
L 142.122575 194.833405 
L 142.185595 194.833405 
L 142.185595 194.714693 
L 142.331827 194.714693 
L 142.331827 194.59598 
L 142.497568 194.59598 
L 142.497568 194.477268 
L 142.723105 194.477268 
L 142.824734 194.121132 
L 143.225848 194.121132 
L 143.225848 194.00242 
L 143.462475 194.00242 
L 143.540694 193.646283 
L 143.869541 193.646283 
L 143.869541 193.527571 
L 144.022326 193.527571 
L 144.022326 193.408859 
L 145.791035 193.408859 
L 145.791035 193.052722 
L 145.911844 193.052722 
L 145.911844 192.93401 
L 146.185098 192.93401 
L 146.286554 192.577873 
L 146.337078 192.577873 
L 146.337078 192.221737 
L 146.620842 192.221737 
L 146.653946 191.984312 
L 147.030517 191.984312 
L 147.095245 191.746888 
L 147.159751 191.746888 
L 147.256098 191.034615 
L 147.272107 191.034615 
L 147.272107 190.915902 
L 147.431461 190.915902 
L 147.431461 190.559766 
L 147.683651 190.559766 
L 147.683651 190.322341 
L 147.901578 190.322341 
L 147.901578 190.203629 
L 148.101703 190.203629 
L 148.132303 189.966205 
L 148.223807 189.966205 
L 148.284563 189.610068 
L 148.345123 189.610068 
L 148.4356 189.13522 
L 148.570504 189.13522 
L 148.570504 189.016507 
L 148.748884 189.016507 
L 148.748884 188.897795 
L 148.94024 188.897795 
L 148.984124 188.660371 
L 149.173113 188.660371 
L 149.173113 188.541659 
L 149.288477 188.541659 
L 149.288477 188.422946 
L 149.417422 188.422946 
L 149.417422 188.304234 
L 149.559665 188.304234 
L 149.644498 187.948098 
L 149.868865 187.948098 
L 149.96619 187.591961 
L 150.282474 187.591961 
L 150.282474 187.473249 
L 151.017916 187.473249 
L 151.017916 187.354537 
L 151.226573 187.354537 
L 151.33004 187.117112 
L 151.394419 187.117112 
L 151.471384 186.760976 
L 151.675098 186.760976 
L 151.713051 186.286127 
L 152.187264 186.286127 
L 152.187264 186.167415 
L 152.781618 186.167415 
L 152.793554 185.92999 
L 152.936202 185.92999 
L 152.99532 185.692566 
L 153.089525 185.692566 
L 153.089525 185.573854 
L 153.380912 185.573854 
L 153.450178 185.336429 
L 153.530668 185.336429 
L 153.599386 184.980293 
L 154.173572 184.980293 
L 154.173572 184.86158 
L 154.383081 184.86158 
L 154.44876 184.624156 
L 154.752266 184.624156 
L 154.795227 184.386732 
L 155.072108 184.386732 
L 155.072108 184.26802 
L 155.282353 184.26802 
L 155.282353 183.793171 
L 155.490275 183.793171 
L 155.490275 183.674459 
L 155.624203 183.674459 
L 155.624203 183.19961 
L 155.787738 183.19961 
L 155.787738 183.080898 
L 156.010303 183.080898 
L 156.030406 182.843473 
L 156.749846 182.843473 
L 156.749846 182.724761 
L 156.894328 182.724761 
L 156.923092 182.487337 
L 157.857556 182.487337 
L 157.857556 182.368624 
L 159.066782 182.368624 
L 159.100946 182.1312 
L 160.033184 182.1312 
L 160.033184 182.012488 
L 160.227078 182.012488 
L 160.251175 181.775063 
L 160.687565 181.775063 
L 160.797049 181.300215 
L 160.944621 181.300215 
L 160.944621 181.181502 
L 161.175299 181.181502 
L 161.175299 181.06279 
L 161.613412 181.06279 
L 161.613412 180.944078 
L 162.602382 180.944078 
L 162.602382 180.825366 
L 163.842777 180.825366 
L 163.842777 180.706654 
L 164.723768 180.706654 
L 164.723768 180.587941 
L 166.425869 180.587941 
L 166.425869 180.469229 
L 167.504319 180.469229 
L 167.515233 180.231805 
L 167.791441 180.231805 
L 167.791441 180.113093 
L 169.506501 180.113093 
L 169.506501 179.99438 
L 169.735764 179.99438 
L 169.813178 179.756956 
L 169.895083 179.756956 
L 169.895083 179.638244 
L 170.114936 179.638244 
L 170.223906 179.282107 
L 170.242793 179.282107 
L 170.242793 179.163395 
L 172.054594 179.163395 
L 172.054594 179.044683 
L 172.348032 179.044683 
L 172.348032 178.925971 
L 172.541145 178.925971 
L 172.541145 178.807259 
L 173.933441 178.807259 
L 173.933441 178.688546 
L 174.160901 178.688546 
L 174.160901 178.569834 
L 174.502663 178.569834 
L 174.502663 178.451122 
L 176.053204 178.451122 
L 176.053204 178.33241 
L 178.322522 178.33241 
L 178.322522 178.213698 
L 179.045611 178.213698 
L 179.116414 177.976273 
L 179.181084 177.976273 
L 179.181084 177.857561 
L 179.301015 177.857561 
L 179.388288 177.501424 
L 179.707721 177.501424 
L 179.716279 177.264 
L 179.943081 177.264 
L 180.035846 177.026576 
L 180.325238 177.026576 
L 180.325238 176.907863 
L 180.591198 176.907863 
L 180.591198 176.789151 
L 180.815825 176.789151 
L 180.815825 176.670439 
L 181.542759 176.670439 
L 181.550523 176.433015 
L 182.241399 176.433015 
L 182.241399 176.314302 
L 182.665533 176.314302 
L 182.665533 176.19559 
L 182.784633 176.19559 
L 182.784633 176.076878 
L 182.999046 176.076878 
L 183.10177 175.839454 
L 183.208674 175.839454 
L 183.270165 175.483317 
L 183.378467 175.483317 
L 183.378467 175.364605 
L 183.89712 175.364605 
L 183.999611 175.008468 
L 184.850033 175.008468 
L 184.850033 174.889756 
L 185.525944 174.889756 
L 185.607448 174.53362 
L 186.536087 174.53362 
L 186.536087 174.414907 
L 186.792366 174.414907 
L 186.851014 174.177483 
L 186.985216 174.177483 
L 187.08187 173.940059 
L 187.130011 173.940059 
L 187.130011 173.702634 
L 187.27179 173.702634 
L 187.382172 173.109073 
L 187.904281 173.109073 
L 187.904281 172.990361 
L 188.197288 172.990361 
L 188.197288 172.871649 
L 188.845595 172.871649 
L 188.845595 172.752937 
L 189.129594 172.752937 
L 189.129594 172.634224 
L 189.777996 172.634224 
L 189.841374 172.278088 
L 190.36354 172.278088 
L 190.403983 172.040663 
L 190.548861 172.040663 
L 190.548861 171.921951 
L 190.714898 171.921951 
L 190.718077 171.684527 
L 191.011372 171.684527 
L 191.011372 171.565815 
L 192.259833 171.565815 
L 192.259833 171.447102 
L 193.618798 171.447102 
L 193.621522 171.209678 
L 195.804414 171.209678 
L 195.85286 170.734829 
L 196.174268 170.734829 
L 196.174268 170.616117 
L 196.487939 170.616117 
L 196.487939 170.378693 
L 197.802712 170.378693 
L 197.802712 170.25998 
L 197.955847 170.25998 
L 197.955847 170.141268 
L 199.095304 170.141268 
L 199.131919 169.785132 
L 199.426305 169.785132 
L 199.426305 169.66642 
L 199.579727 169.66642 
L 199.665851 169.310283 
L 201.828948 169.310283 
L 201.828948 169.191571 
L 202.282984 169.191571 
L 202.313896 168.835434 
L 202.424251 168.835434 
L 202.503409 168.59801 
L 202.733871 168.59801 
L 202.733871 168.479298 
L 202.934169 168.479298 
L 202.983084 168.241873 
L 203.353662 168.241873 
L 203.353662 168.123161 
L 203.531826 168.123161 
L 203.531826 168.004449 
L 204.694206 168.004449 
L 204.796742 167.410888 
L 204.873279 167.410888 
L 204.915168 167.173463 
L 205.315472 167.173463 
L 205.376813 166.936039 
L 205.498173 166.936039 
L 205.608677 166.698615 
L 205.612997 166.698615 
L 205.612997 166.46119 
L 206.084377 166.46119 
L 206.17823 166.223766 
L 206.272312 166.223766 
L 206.365927 165.986341 
L 206.559644 165.986341 
L 206.559644 165.867629 
L 206.900226 165.867629 
L 206.900226 165.748917 
L 207.56992 165.748917 
L 207.56992 165.630205 
L 209.473243 165.630205 
L 209.473243 165.511493 
L 209.602391 165.511493 
L 209.602391 165.39278 
L 209.924586 165.39278 
L 210.014823 165.155356 
L 210.557031 165.155356 
L 210.557031 165.036644 
L 210.716884 165.036644 
L 210.716884 164.917932 
L 213.652615 164.917932 
L 213.704665 164.680507 
L 213.76731 164.680507 
L 213.76731 164.561795 
L 213.937358 164.561795 
L 213.937358 164.443083 
L 214.366499 164.443083 
L 214.366499 164.324371 
L 214.727397 164.324371 
L 214.727397 164.205659 
L 216.244294 164.205659 
L 216.30067 163.612098 
L 216.780725 163.612098 
L 216.780725 163.493385 
L 216.966101 163.493385 
L 216.966101 163.374673 
L 217.91339 163.374673 
L 217.982527 162.6624 
L 221.857582 162.6624 
L 221.871845 162.424976 
L 223.085308 162.424976 
L 223.085308 162.306263 
L 223.380326 162.306263 
L 223.380326 162.187551 
L 224.026623 162.187551 
L 224.026623 162.068839 
L 224.204325 162.068839 
L 224.204325 161.950127 
L 224.925392 161.950127 
L 225.011335 161.356566 
L 225.041604 161.356566 
L 225.041604 161.237854 
L 225.164488 161.237854 
L 225.188918 161.000429 
L 225.305034 161.000429 
L 225.305034 160.881717 
L 225.422825 160.881717 
L 225.523525 159.93202 
L 225.567444 159.93202 
L 225.567444 159.813307 
L 226.821763 159.813307 
L 226.873339 159.457171 
L 227.062364 159.457171 
L 227.062364 159.338459 
L 227.527006 159.338459 
L 227.527006 159.219746 
L 228.213151 159.219746 
L 228.213151 159.101034 
L 228.497588 159.101034 
L 228.497588 158.982322 
L 229.099482 158.982322 
L 229.099482 158.86361 
L 229.380694 158.86361 
L 229.478533 158.626185 
L 229.826261 158.626185 
L 229.915091 158.388761 
L 230.109426 158.388761 
L 230.109426 158.270049 
L 230.224778 158.270049 
L 230.224778 158.151337 
L 230.430204 158.151337 
L 230.51815 157.913912 
L 231.123541 157.913912 
L 231.146715 157.439063 
L 231.240878 157.439063 
L 231.331729 157.201639 
L 231.413925 157.201639 
L 231.491215 156.964215 
L 231.671627 156.964215 
L 231.671627 156.845502 
L 231.783903 156.845502 
L 231.880551 156.489366 
L 232.162901 156.489366 
L 232.217939 156.014517 
L 232.454562 156.014517 
L 232.454562 155.895805 
L 232.583915 155.895805 
L 232.68944 155.65838 
L 232.714004 155.65838 
L 232.811089 155.302244 
L 232.87255 155.302244 
L 232.970757 154.946107 
L 233.024155 154.946107 
L 233.092277 154.233834 
L 233.22961 154.233834 
L 233.22961 153.99641 
L 234.216886 153.99641 
L 234.227427 153.758985 
L 234.677972 153.758985 
L 234.697771 153.165424 
L 235.128251 153.165424 
L 235.170784 152.453151 
L 235.264125 152.453151 
L 235.31259 151.978302 
L 235.470347 151.978302 
L 235.470347 151.85959 
L 235.585352 151.85959 
L 235.585352 151.740878 
L 238.220461 151.740878 
L 238.220461 151.622166 
L 238.613347 151.622166 
L 238.613347 151.503454 
L 239.998181 151.503454 
L 239.998181 151.384741 
L 240.475734 151.384741 
L 240.475734 151.266029 
L 241.22746 151.266029 
L 241.2764 150.79118 
L 241.481223 150.79118 
L 241.500039 150.316332 
L 242.04806 150.316332 
L 242.155537 150.078907 
L 242.365247 150.078907 
L 242.365247 149.960195 
L 242.680135 149.960195 
L 242.680135 149.722771 
L 243.230259 149.722771 
L 243.230259 149.604059 
L 243.582786 149.604059 
L 243.639235 149.247922 
L 243.740199 149.247922 
L 243.740199 149.12921 
L 244.909522 149.12921 
L 245.014196 148.773073 
L 245.035194 148.773073 
L 245.035194 148.654361 
L 245.701669 148.654361 
L 245.701669 148.535649 
L 246.212557 148.535649 
L 246.30412 147.823376 
L 249.841953 147.823376 
L 249.858816 147.585951 
L 250.000837 147.585951 
L 250.000837 147.467239 
L 250.351452 147.467239 
L 250.351452 147.348527 
L 250.556059 147.348527 
L 250.556059 147.229815 
L 251.247802 147.229815 
L 251.352744 146.873678 
L 251.390111 146.873678 
L 251.485846 146.636254 
L 251.756444 146.636254 
L 251.784423 146.398829 
L 251.913348 146.398829 
L 251.913348 146.280117 
L 252.313047 146.280117 
L 252.345255 146.042693 
L 252.476667 146.042693 
L 252.58009 145.805268 
L 252.967145 145.805268 
L 252.967145 145.686556 
L 253.133201 145.686556 
L 253.187847 145.33042 
L 253.250374 145.33042 
L 253.250374 145.211707 
L 255.709547 145.211707 
L 255.71813 144.974283 
L 255.82574 144.974283 
L 255.82574 144.855571 
L 256.092285 144.855571 
L 256.092285 144.736859 
L 256.243295 144.736859 
L 256.243295 144.618146 
L 256.596331 144.618146 
L 256.596331 144.499434 
L 256.767346 144.499434 
L 256.835353 144.26201 
L 256.934892 144.26201 
L 256.934892 144.143298 
L 257.278672 144.143298 
L 257.278672 144.024585 
L 257.540868 144.024585 
L 257.600328 143.787161 
L 258.181342 143.787161 
L 258.185831 143.431024 
L 260.185538 143.431024 
L 260.270805 143.1936 
L 260.484685 143.1936 
L 260.484685 143.074888 
L 261.334062 143.074888 
L 261.392405 142.837463 
L 261.642745 142.837463 
L 261.753774 142.481327 
L 262.157432 142.481327 
L 262.230043 142.243902 
L 264.142235 142.243902 
L 264.142235 142.12519 
L 264.599547 142.12519 
L 264.599547 142.006478 
L 265.004897 142.006478 
L 265.044904 141.412917 
L 265.437996 141.412917 
L 265.441049 141.175493 
L 267.399086 141.175493 
L 267.453312 140.938068 
L 268.230519 140.938068 
L 268.230519 140.581932 
L 269.61454 140.581932 
L 269.61454 140.46322 
L 269.95709 140.46322 
L 269.95709 140.344507 
L 270.335712 140.344507 
L 270.335712 140.225795 
L 271.725175 140.225795 
L 271.725175 140.107083 
L 271.948519 140.107083 
L 271.948519 139.988371 
L 272.171669 139.988371 
L 272.171669 139.869659 
L 272.523759 139.869659 
L 272.523759 139.750946 
L 272.814119 139.750946 
L 272.833332 139.513522 
L 274.200665 139.513522 
L 274.200665 139.39481 
L 274.484931 139.39481 
L 274.484931 139.276098 
L 274.745448 139.276098 
L 274.747309 139.038673 
L 275.788065 139.038673 
L 275.788065 138.919961 
L 276.49852 138.919961 
L 276.49852 138.801249 
L 278.098943 138.801249 
L 278.113452 138.445112 
L 279.363429 138.445112 
L 279.39088 138.088976 
L 279.575258 138.088976 
L 279.575258 137.732839 
L 280.945436 137.732839 
L 280.945436 137.614127 
L 282.220052 137.614127 
L 282.220052 137.376702 
L 283.414932 137.376702 
L 283.416106 137.139278 
L 284.396966 137.139278 
L 284.396966 137.020566 
L 286.33406 137.020566 
L 286.33406 136.901854 
L 287.434485 136.901854 
L 287.434485 136.783141 
L 288.461729 136.783141 
L 288.461729 136.664429 
L 290.15471 136.664429 
L 290.15471 136.545717 
L 291.595849 136.545717 
L 291.706317 136.308293 
L 292.328978 136.308293 
L 292.437716 136.070868 
L 293.140339 136.070868 
L 293.140339 135.952156 
L 297.983393 135.952156 
L 297.983393 135.833444 
L 298.509101 135.833444 
L 298.509101 135.714732 
L 299.519394 135.714732 
L 299.519394 135.59602 
L 300.005381 135.59602 
L 300.005381 135.477307 
L 300.939852 135.477307 
L 300.939852 135.358595 
L 304.65259 135.358595 
L 304.65259 135.239883 
L 312.702148 135.239883 
L 312.702148 135.121171 
L 360.8064 135.121171 
L 360.8064 135.121171 
" style="fill:none;stroke:#000080;stroke-linecap:square;stroke-width:1.5;"/>
   </g>
   <g id="line2d_31">
    <defs>
     <path d="M 0 6 
C 1.591219 6 3.117479 5.367802 4.242641 4.242641 
C 5.367802 3.117479 6 1.591219 6 0 
C 6 -1.591219 5.367802 -3.117479 4.242641 -4.242641 
C 3.117479 -5.367802 1.591219 -6 0 -6 
C -1.591219 -6 -3.117479 -5.367802 -4.242641 -4.242641 
C -5.367802 -3.117479 -6 -1.591219 -6 0 
C -6 1.591219 -5.367802 3.117479 -4.242641 4.242641 
C -3.117479 5.367802 -1.591219 6 0 6 
z
" id="m41c72af71d" style="stroke:#000080;stroke-width:1.5;"/>
    </defs>
    <g>
     <use style="fill-opacity:0;stroke:#000080;stroke-width:1.5;" x="115.83262" xlink:href="#m41c72af71d" y="225.698576"/>
     <use style="fill-opacity:0;stroke:#000080;stroke-width:1.5;" x="196.174268" xlink:href="#m41c72af71d" y="170.734829"/>
     <use style="fill-opacity:0;stroke:#000080;stroke-width:1.5;" x="304.65259" xlink:href="#m41c72af71d" y="135.358595"/>
     <use style="fill-opacity:0;stroke:#000080;stroke-width:1.5;" x="312.702148" xlink:href="#m41c72af71d" y="135.121171"/>
     <use style="fill-opacity:0;stroke:#000080;stroke-width:1.5;" x="360.8064" xlink:href="#m41c72af71d" y="135.121171"/>
    </g>
   </g>
   <g id="line2d_32">
    <path style="fill:none;stroke:#000080;stroke-linecap:square;stroke-width:1.5;"/>
    <g/>
   </g>
   <g id="line2d_33">
    <path clip-path="url(#pb89d73a7ec)" d="M 230.968002 157.913912 
" style="fill:none;stroke:#000080;stroke-linecap:square;stroke-width:1.5;"/>
    <defs>
     <path d="M -12 12 
L 12 -12 
M -12 -12 
L 12 12 
" id="m8b5b730ca6" style="stroke:#000080;"/>
    </defs>
    <g clip-path="url(#pb89d73a7ec)">
     <use style="fill:#000080;stroke:#000080;" x="230.968002" xlink:href="#m8b5b730ca6" y="157.913912"/>
    </g>
   </g>
   <g id="line2d_34">
    <defs>
     <path d="M 0 1.5 
C 0.397805 1.5 0.77937 1.341951 1.06066 1.06066 
C 1.341951 0.77937 1.5 0.397805 1.5 0 
C 1.5 -0.397805 1.341951 -0.77937 1.06066 -1.06066 
C 0.77937 -1.341951 0.397805 -1.5 0 -1.5 
C -0.397805 -1.5 -0.77937 -1.341951 -1.06066 -1.06066 
C -1.341951 -0.77937 -1.5 -0.397805 -1.5 0 
C -1.5 0.397805 -1.341951 0.77937 -1.06066 1.06066 
C -0.77937 1.341951 -0.397805 1.5 0 1.5 
z
" id="m2e4292dd51" style="stroke:#ff00ff;"/>
    </defs>
    <g>
     <use style="fill:#ff00ff;stroke:#ff00ff;" x="300.72412" xlink:href="#m2e4292dd51" y="65.674537"/>
     <use style="fill:#ff00ff;stroke:#ff00ff;" x="300.72412" xlink:href="#m2e4292dd51" y="65.674537"/>
    </g>
   </g>
   <g id="line2d_35">
    <path d="M 85.894031 298.944 
L 85.894031 296.451044 
L 86.307488 296.451044 
L 86.307488 295.382634 
L 93.240684 295.382634 
L 93.240684 290.634146 
L 94.07074 290.634146 
L 94.07074 290.515434 
L 94.339481 290.515434 
L 94.339481 290.396722 
L 98.510456 290.396722 
L 98.510456 283.867551 
L 99.14107 283.867551 
L 99.14107 283.748839 
L 99.346662 283.748839 
L 99.346662 283.630127 
L 99.550033 283.630127 
L 99.550033 283.155278 
L 99.751228 283.155278 
L 99.751228 283.036566 
L 102.62243 283.036566 
L 102.62243 277.33838 
L 102.793446 277.33838 
L 102.793446 276.863532 
L 103.297357 276.863532 
L 103.297357 275.795122 
L 103.625951 275.795122 
L 103.625951 275.082849 
L 103.788121 275.082849 
L 103.788121 274.251863 
L 103.948904 274.251863 
L 103.948904 274.014439 
L 105.99483 274.014439 
L 105.99483 269.503376 
L 106.279859 269.503376 
L 106.279859 267.366556 
L 106.560633 267.366556 
L 106.560633 266.416859 
L 106.837279 266.416859 
L 106.837279 266.298146 
L 107.109915 266.298146 
L 107.109915 266.179434 
L 107.244765 266.179434 
L 107.244765 265.823298 
L 107.378656 265.823298 
L 107.378656 265.467161 
L 108.85357 265.467161 
L 108.85357 263.092917 
L 109.22004 263.092917 
L 109.22004 262.73678 
L 109.340628 262.73678 
L 109.340628 261.905795 
L 109.579508 261.905795 
L 109.579508 261.668371 
L 109.932235 261.668371 
L 109.932235 261.193522 
L 110.048356 261.193522 
L 110.048356 260.837385 
L 110.163764 260.837385 
L 110.163764 260.599961 
L 110.392479 260.599961 
L 110.392479 260.481249 
L 111.334639 260.481249 
L 111.334639 260.362537 
L 111.54963 260.362537 
L 111.54963 259.887688 
L 111.81496 259.887688 
L 111.81496 259.768976 
L 112.487797 259.768976 
L 112.589207 259.531551 
L 112.690074 259.531551 
L 112.790402 258.819278 
L 113.622258 258.819278 
L 113.717748 257.750868 
L 113.812756 257.750868 
L 113.812756 257.27602 
L 114.001345 257.27602 
L 114.001345 256.801171 
L 114.188061 256.801171 
L 114.188061 256.682459 
L 114.737343 256.682459 
L 114.82735 255.970185 
L 115.006084 255.970185 
L 115.094818 255.614049 
L 115.661605 255.614049 
L 115.661605 254.426927 
L 115.83262 254.426927 
L 115.917548 252.764956 
L 116.665126 252.764956 
L 116.746385 252.40882 
L 116.827295 252.40882 
L 116.907859 252.052683 
L 117.067958 252.052683 
L 117.067958 251.815259 
L 117.423276 251.815259 
L 117.423276 251.459122 
L 117.65648 251.459122 
L 117.65648 250.272 
L 117.886828 250.272 
L 117.886828 249.797151 
L 118.413586 249.797151 
L 118.487648 249.559727 
L 118.561419 249.559727 
L 118.634901 249.20359 
L 118.708098 249.20359 
L 118.708098 248.966166 
L 118.853643 248.966166 
L 118.853643 248.728741 
L 119.034004 248.728741 
L 119.034004 247.897756 
L 119.24818 247.897756 
L 119.24818 247.660332 
L 119.459944 247.660332 
L 119.459944 247.066771 
L 119.876453 247.066771 
L 119.944983 246.829346 
L 120.013265 246.829346 
L 120.0813 246.235785 
L 120.149089 246.235785 
L 120.216635 245.523512 
L 120.28394 245.523512 
L 120.28394 245.4048 
L 120.48442 245.4048 
L 120.48442 245.048663 
L 120.9116 245.048663 
L 120.9116 243.624117 
L 121.487509 243.624117 
L 121.550424 243.386693 
L 121.613129 243.386693 
L 121.675626 242.555707 
L 121.737916 242.555707 
L 121.8 242.199571 
L 121.923558 242.199571 
L 121.985033 241.843434 
L 122.259215 241.843434 
L 122.259215 241.724722 
L 122.913079 241.724722 
L 122.913079 241.487298 
L 123.029559 241.487298 
L 123.08753 240.418888 
L 123.145323 240.418888 
L 123.202939 239.944039 
L 124.183659 239.944039 
L 124.238185 239.587902 
L 124.400822 239.587902 
L 124.454723 239.113054 
L 124.562065 239.113054 
L 124.615507 238.519493 
L 124.906754 238.519493 
L 124.985409 238.282068 
L 125.219419 238.282068 
L 125.322496 237.925932 
L 125.373824 237.925932 
L 125.425011 237.213659 
L 125.526971 237.213659 
L 125.628382 236.620098 
L 125.678882 236.620098 
L 125.779479 236.026537 
L 126.347698 236.026537 
L 126.396307 235.432976 
L 126.541384 235.432976 
L 126.637484 234.483278 
L 126.68535 234.483278 
L 126.78072 233.652293 
L 126.828223 233.652293 
L 126.875608 232.227746 
L 127.040519 232.227746 
L 127.040519 232.109034 
L 127.5952 232.109034 
L 127.686077 230.921912 
L 127.776517 230.921912 
L 127.866525 229.853502 
L 127.911368 229.853502 
L 127.911368 229.73479 
L 128.375874 229.73479 
L 128.463066 229.497366 
L 128.5931 229.497366 
L 128.679293 228.785093 
L 128.722242 228.785093 
L 128.807846 227.479259 
L 128.893063 227.479259 
L 128.893063 227.241834 
L 129.104431 227.241834 
L 129.146421 226.766985 
L 129.417095 226.766985 
L 129.499602 226.173424 
L 129.54072 226.173424 
L 129.622688 225.342439 
L 129.7043 225.342439 
L 129.78556 223.79918 
L 129.826058 223.79918 
L 129.86647 222.374634 
L 130.027253 222.374634 
L 130.027253 222.018498 
L 130.206507 222.018498 
L 130.24611 221.662361 
L 130.442886 221.662361 
L 130.521023 220.593951 
L 130.598837 220.593951 
L 130.676331 219.406829 
L 130.714958 219.406829 
L 130.791976 218.93198 
L 130.906915 218.93198 
L 130.906915 218.813268 
L 131.153565 218.813268 
L 131.153565 218.575844 
L 131.303758 218.575844 
L 131.397023 217.507434 
L 131.41562 217.507434 
L 131.452761 217.27001 
L 131.526822 217.27001 
L 131.63737 215.608039 
L 131.71071 215.608039 
L 131.783764 215.251902 
L 131.910931 215.251902 
L 132.019251 214.895766 
L 132.09112 214.895766 
L 132.19841 213.827356 
L 132.269599 213.827356 
L 132.375879 211.571824 
L 132.393534 211.571824 
L 132.446401 210.859551 
L 132.516659 210.859551 
L 132.516659 210.740839 
L 132.881269 210.740839 
L 132.967049 209.791141 
L 133.01833 209.791141 
L 133.120474 207.891746 
L 133.188264 207.891746 
L 133.289492 207.53561 
L 133.323114 207.53561 
L 133.323114 207.060761 
L 133.523594 207.060761 
L 133.606501 206.348488 
L 133.672565 206.348488 
L 133.771227 204.567805 
L 133.804 204.567805 
L 133.901977 202.312273 
L 133.967012 202.312273 
L 133.999446 201.362576 
L 134.128625 201.362576 
L 134.128625 200.53159 
L 134.304809 200.53159 
L 134.368469 200.294166 
L 134.431915 200.294166 
L 134.526683 199.225756 
L 134.589598 199.225756 
L 134.652304 196.020527 
L 134.901055 196.020527 
L 134.97812 194.952117 
L 135.039546 194.952117 
L 135.131309 194.477268 
L 135.161798 194.477268 
L 135.252969 192.459161 
L 135.283261 192.459161 
L 135.3437 191.272039 
L 135.403945 191.272039 
L 135.493953 190.79719 
L 135.613297 190.79719 
L 135.687504 190.203629 
L 135.776169 190.203629 
L 135.864417 189.016507 
L 135.92302 189.016507 
L 136.010584 186.167415 
L 136.083243 186.167415 
L 136.155623 185.811278 
L 136.242113 185.811278 
L 136.313886 184.624156 
L 136.399653 184.624156 
L 136.485031 182.962185 
L 136.513404 182.962185 
L 136.598268 180.587941 
L 136.654633 180.587941 
L 136.738864 178.925971 
L 136.850588 178.925971 
L 136.961653 177.145288 
L 137.003134 177.145288 
L 137.113304 176.314302 
L 137.140746 176.314302 
L 137.250116 174.414907 
L 137.331728 174.414907 
L 137.439996 171.803239 
L 137.453486 171.803239 
L 137.507349 171.090966 
L 137.574461 171.090966 
L 137.668018 170.497405 
L 137.694663 170.497405 
L 137.800869 169.310283 
L 137.853747 169.310283 
L 137.906478 166.817327 
L 137.972183 166.817327 
L 138.076838 166.105054 
L 138.128947 166.105054 
L 138.232735 164.443083 
L 138.258593 164.443083 
L 138.335954 163.493385 
L 138.387352 163.493385 
L 138.464186 161.712702 
L 138.515235 161.712702 
L 138.578852 161.356566 
L 138.642255 161.356566 
L 138.730661 160.763005 
L 138.755844 160.763005 
L 138.856239 159.813307 
L 138.881255 159.813307 
L 138.956102 159.219746 
L 139.005835 159.219746 
L 139.080189 158.388761 
L 139.117256 158.388761 
L 139.178873 158.032624 
L 139.240288 158.032624 
L 139.313723 157.439063 
L 139.374701 157.439063 
L 139.411192 156.489366 
L 139.508159 156.489366 
L 139.604629 155.539668 
L 139.640678 155.539668 
L 139.724525 155.06482 
L 139.760345 155.06482 
L 139.843661 154.233834 
L 139.902947 154.233834 
L 139.92661 153.284137 
L 140.020963 153.284137 
L 140.114844 151.028605 
L 140.196609 151.028605 
L 140.28962 150.435044 
L 140.312801 150.435044 
L 140.405242 149.247922 
L 140.428281 149.247922 
L 140.520157 148.773073 
L 140.543056 148.773073 
L 140.645758 148.298224 
L 140.759217 148.298224 
L 140.826966 146.99239 
L 140.883238 146.99239 
L 140.91692 145.567844 
L 141.006446 145.567844 
L 141.106655 144.855571 
L 141.195285 144.855571 
L 141.305488 144.143298 
L 141.371301 144.143298 
L 141.48048 143.431024 
L 141.50224 143.431024 
L 141.610664 142.362615 
L 141.761416 142.362615 
L 141.857694 141.531629 
L 141.879022 141.531629 
L 141.942862 141.294205 
L 142.027647 141.294205 
L 142.122575 140.46322 
L 142.164612 140.46322 
L 142.237951 139.39481 
L 142.290162 139.39481 
L 142.331827 138.682537 
L 142.47693 138.682537 
L 142.549065 138.445112 
L 142.651636 138.445112 
L 142.753651 137.851551 
L 142.773988 137.851551 
L 142.855116 137.25799 
L 143.086429 137.25799 
L 143.18612 136.308293 
L 143.205995 136.308293 
L 143.265494 135.714732 
L 143.344534 135.714732 
L 143.452675 135.477307 
L 143.462475 135.477307 
L 143.530934 133.934049 
L 143.589416 133.934049 
L 143.686483 133.340488 
L 143.744483 133.340488 
L 143.763777 132.628215 
L 143.898283 132.628215 
L 144.003296 131.915941 
L 144.022326 131.915941 
L 144.126651 131.559805 
L 144.173881 131.559805 
L 144.173881 131.441093 
L 144.314862 131.441093 
L 144.417581 130.72882 
L 144.426892 130.72882 
L 144.501209 130.253971 
L 144.749884 130.253971 
L 144.841158 129.779122 
L 144.968202 129.779122 
L 145.076419 129.304273 
L 145.112353 129.304273 
L 145.192955 128.710712 
L 145.282109 128.710712 
L 145.361989 128.354576 
L 145.476774 128.354576 
L 145.573357 127.879727 
L 145.590864 127.879727 
L 145.66073 127.404878 
L 145.911844 127.404878 
L 145.98053 126.573893 
L 146.031881 126.573893 
L 146.117156 126.099044 
L 146.27812 126.099044 
L 146.328666 125.268059 
L 146.521178 125.268059 
L 146.521178 125.149346 
L 146.637401 125.149346 
L 146.703494 124.79321 
L 146.777571 124.79321 
L 146.8186 124.199649 
L 146.981825 124.199649 
L 147.04672 123.843512 
L 147.175843 123.843512 
L 147.175843 123.7248 
L 147.359919 123.7248 
L 147.415586 123.131239 
L 147.534321 123.131239 
L 147.613064 122.893815 
L 147.707122 122.893815 
L 147.785146 122.300254 
L 147.8706 122.300254 
L 147.8706 122.181541 
L 148.071053 122.181541 
L 148.178111 121.944117 
L 148.200973 121.944117 
L 148.200973 121.58798 
L 148.367783 121.58798 
L 148.367783 121.469268 
L 148.525643 121.469268 
L 148.555562 121.231844 
L 148.645035 121.231844 
L 148.741485 120.99442 
L 148.763673 120.99442 
L 148.874221 120.519571 
L 149.035192 120.519571 
L 149.035192 120.163434 
L 149.158642 120.163434 
L 149.20202 119.807298 
L 149.445957 119.807298 
L 149.445957 119.688585 
L 149.623325 119.688585 
L 149.728949 119.213737 
L 149.826999 119.213737 
L 149.924541 118.620176 
L 149.993905 118.620176 
L 150.049213 118.382751 
L 150.179921 118.382751 
L 150.248351 117.78919 
L 150.512877 117.78919 
L 150.539799 117.195629 
L 150.653788 117.195629 
L 150.653788 117.076917 
L 150.840043 117.076917 
L 150.840043 116.958205 
L 150.952233 116.958205 
L 150.952233 116.602068 
L 151.168122 116.602068 
L 151.200617 116.245932 
L 151.400845 116.245932 
L 151.439354 115.771083 
L 151.750926 115.771083 
L 151.839007 115.414946 
L 152.020159 115.414946 
L 152.020159 115.296234 
L 152.486788 115.296234 
L 152.486788 115.05881 
L 152.965784 115.05881 
L 153.071898 114.346537 
L 153.432886 114.346537 
L 153.432886 114.227824 
L 153.565059 114.227824 
L 153.565059 114.109112 
L 153.736074 114.109112 
L 153.736074 113.9904 
L 153.967309 113.9904 
L 153.967309 113.634263 
L 154.530538 113.634263 
L 154.622791 113.278127 
L 154.746889 113.278127 
L 154.746889 112.684566 
L 155.056244 112.684566 
L 155.119618 112.447141 
L 155.24573 112.447141 
L 155.350181 112.209717 
L 155.995211 112.209717 
L 156.070548 110.785171 
L 156.428023 110.785171 
L 156.491849 110.547746 
L 156.720816 110.547746 
L 156.720816 110.429034 
L 156.908716 110.429034 
L 156.908716 110.310322 
L 157.213055 110.310322 
L 157.274277 109.954185 
L 157.595929 109.954185 
L 157.637481 109.716761 
L 157.839314 109.716761 
L 157.930345 109.241912 
L 158.316836 109.241912 
L 158.343507 108.885776 
L 158.634413 108.885776 
L 158.634413 108.767063 
L 158.886396 108.767063 
L 158.886396 108.648351 
L 159.224273 108.648351 
L 159.224273 108.529639 
L 159.451784 108.529639 
L 159.451784 108.410927 
L 159.581159 108.410927 
L 159.647587 108.173502 
L 159.988467 108.173502 
L 159.988467 108.05479 
L 160.898144 108.05479 
L 160.898144 107.817366 
L 161.071844 107.817366 
L 161.121727 107.579941 
L 161.243955 107.579941 
L 161.243955 107.342517 
L 162.918491 107.342517 
L 163.005365 106.155395 
L 163.160733 106.155395 
L 163.160733 105.917971 
L 163.308007 105.917971 
L 163.308007 105.561834 
L 165.796897 105.561834 
L 165.796897 105.32441 
L 168.074246 105.32441 
L 168.074246 105.205698 
L 168.263944 105.205698 
L 168.263944 104.730849 
L 168.381541 104.730849 
L 168.381541 104.493424 
L 168.493229 104.493424 
L 168.555279 104.018576 
L 168.839629 104.018576 
L 168.839629 103.899863 
L 169.034386 103.899863 
L 169.067069 103.662439 
L 169.380934 103.662439 
L 169.380934 103.543727 
L 169.62392 103.543727 
L 169.62392 103.306302 
L 169.885465 103.306302 
L 169.885465 103.18759 
L 174.553396 103.18759 
L 174.553396 103.068878 
L 175.208017 103.068878 
L 175.208017 102.950166 
L 175.472555 102.950166 
L 175.472555 102.831454 
L 175.910586 102.831454 
L 175.910586 102.712741 
L 176.422087 102.712741 
L 176.422087 102.475317 
L 176.929972 102.475317 
L 176.929972 102.356605 
L 177.071661 102.356605 
L 177.071661 102.237893 
L 178.578777 102.237893 
L 178.578777 102.11918 
L 179.395542 102.11918 
L 179.499697 101.881756 
L 181.168947 101.881756 
L 181.255873 100.694634 
L 181.661445 100.694634 
L 181.661445 100.575922 
L 182.484228 100.575922 
L 182.484228 100.45721 
L 183.380815 100.45721 
L 183.380815 100.219785 
L 183.576965 100.219785 
L 183.649997 99.982361 
L 184.902065 99.982361 
L 184.902065 99.863649 
L 185.378765 99.863649 
L 185.426198 99.626224 
L 185.710388 99.626224 
L 185.710388 99.507512 
L 186.244041 99.507512 
L 186.244041 99.3888 
L 187.693627 99.3888 
L 187.693627 98.913951 
L 188.474165 98.913951 
L 188.474165 98.557815 
L 189.023814 98.557815 
L 189.028161 98.201678 
L 190.640043 98.201678 
L 190.640043 98.082966 
L 192.148226 98.082966 
L 192.148226 97.964254 
L 192.581381 97.964254 
L 192.660379 97.726829 
L 193.458065 97.726829 
L 193.530736 97.489405 
L 193.861723 97.489405 
L 193.861723 97.25198 
L 193.974336 97.25198 
L 194.084285 96.777132 
L 195.535708 96.777132 
L 195.589757 96.183571 
L 195.656489 96.183571 
L 195.722986 95.946146 
L 195.77893 95.946146 
L 195.811082 94.877737 
L 197.525328 94.877737 
L 197.525328 94.759024 
L 198.919888 94.759024 
L 198.919888 94.640312 
L 199.675231 94.640312 
L 199.675231 94.5216 
L 200.077612 94.5216 
L 200.161972 94.046751 
L 200.20521 94.046751 
L 200.299031 93.097054 
L 200.364333 93.097054 
L 200.364333 92.978341 
L 201.066708 92.978341 
L 201.066708 92.740917 
L 202.105545 92.740917 
L 202.105545 92.503493 
L 203.127016 92.503493 
L 203.127016 92.38478 
L 203.416879 92.38478 
L 203.416879 92.266068 
L 203.873697 92.266068 
L 203.87804 91.79122 
L 205.112503 91.79122 
L 205.112503 91.672507 
L 205.421596 91.672507 
L 205.421596 91.553795 
L 206.218011 91.553795 
L 206.218011 91.435083 
L 208.036753 91.435083 
L 208.036753 90.841522 
L 208.621263 90.841522 
L 208.621263 90.72281 
L 209.988026 90.72281 
L 209.988026 90.604098 
L 210.145129 90.604098 
L 210.145129 90.485385 
L 210.914537 90.485385 
L 210.915623 90.247961 
L 211.070854 90.247961 
L 211.071932 89.535688 
L 211.286421 89.535688 
L 211.384679 89.298263 
L 211.453156 89.298263 
L 211.453156 89.179551 
L 211.617117 89.179551 
L 211.617117 88.942127 
L 211.951097 88.942127 
L 212.033674 88.58599 
L 212.759514 88.58599 
L 212.759514 88.467278 
L 213.5202 88.467278 
L 213.5202 88.348566 
L 213.852526 88.348566 
L 213.852526 88.229854 
L 214.176799 88.229854 
L 214.176799 87.992429 
L 214.360395 87.992429 
L 214.461873 87.755005 
L 215.919723 87.755005 
L 215.919723 87.636293 
L 216.481928 87.636293 
L 216.481928 87.51758 
L 217.165259 87.51758 
L 217.232925 87.161444 
L 217.277321 87.161444 
L 217.378707 86.686595 
L 217.693459 86.686595 
L 217.693459 86.567883 
L 218.223445 86.567883 
L 218.223445 86.330459 
L 218.892359 86.330459 
L 218.892359 86.211746 
L 219.376546 86.211746 
L 219.386069 85.85561 
L 219.734228 85.85561 
L 219.734228 85.736898 
L 220.450601 85.736898 
L 220.450601 85.618185 
L 221.308821 85.618185 
L 221.308821 85.499473 
L 221.502397 85.499473 
L 221.502397 85.380761 
L 222.380309 85.380761 
L 222.381637 84.549776 
L 223.313011 84.549776 
L 223.339124 84.312351 
L 224.314543 84.312351 
L 224.316008 83.71879 
L 225.187519 83.71879 
L 225.187519 83.600078 
L 225.717266 83.600078 
L 225.717266 83.481366 
L 227.680892 83.481366 
L 227.681561 82.412956 
L 228.463109 82.412956 
L 228.463109 82.294244 
L 228.868665 82.294244 
L 228.868665 82.175532 
L 229.221894 82.175532 
L 229.251016 81.938107 
L 229.846523 81.938107 
L 229.846523 81.819395 
L 230.882703 81.819395 
L 230.965383 81.107122 
L 230.998373 81.107122 
L 231.087518 80.394849 
L 231.210805 80.394849 
L 231.291875 80.157424 
L 231.363167 80.157424 
L 231.363167 80.038712 
L 231.519482 80.038712 
L 231.519482 79.92 
L 232.050487 79.92 
L 232.052429 79.682576 
L 232.743386 79.682576 
L 232.744067 79.445151 
L 233.276324 79.445151 
L 233.276324 79.326439 
L 234.208779 79.326439 
L 234.254776 79.089015 
L 236.496546 79.089015 
L 236.498498 78.732878 
L 236.641191 78.732878 
L 236.749758 78.495454 
L 237.351253 78.495454 
L 237.43513 78.258029 
L 237.573221 78.258029 
L 237.573221 78.139317 
L 238.341997 78.139317 
L 238.344209 77.901893 
L 238.624307 77.901893 
L 238.624307 77.78318 
L 238.852199 77.78318 
L 238.853368 77.545756 
L 239.148333 77.545756 
L 239.14906 77.308332 
L 240.134372 77.308332 
L 240.134372 77.18962 
L 240.514566 77.18962 
L 240.514566 77.070907 
L 242.377948 77.070907 
L 242.377948 76.952195 
L 243.112248 76.952195 
L 243.112248 76.833483 
L 243.931645 76.833483 
L 244.016667 75.765073 
L 246.154827 75.765073 
L 246.154827 75.646361 
L 247.99742 75.646361 
L 248.013148 75.0528 
L 248.179566 75.0528 
L 248.179566 74.934088 
L 248.497518 74.934088 
L 248.497518 74.815376 
L 249.102768 74.815376 
L 249.102768 74.696663 
L 249.339976 74.696663 
L 249.340363 74.459239 
L 249.822019 74.459239 
L 249.822019 74.340527 
L 250.997905 74.340527 
L 251.007996 74.103102 
L 251.554503 74.103102 
L 251.591441 73.509541 
L 253.948468 73.509541 
L 253.948468 73.390829 
L 254.243202 73.390829 
L 254.243202 73.272117 
L 254.36544 73.272117 
L 254.36544 73.153405 
L 254.48587 73.153405 
L 254.48587 73.034693 
L 255.674949 73.034693 
L 255.674949 72.91598 
L 256.953111 72.91598 
L 256.975937 71.847571 
L 257.428553 71.847571 
L 257.428553 71.728859 
L 257.588474 71.728859 
L 257.588474 71.610146 
L 259.378916 71.610146 
L 259.379411 71.372722 
L 259.855073 71.372722 
L 259.855073 71.25401 
L 260.70392 71.25401 
L 260.70392 71.135298 
L 261.150064 71.135298 
L 261.159724 70.660449 
L 261.659402 70.660449 
L 261.659402 70.541737 
L 262.15492 70.541737 
L 262.236361 70.304312 
L 263.505967 70.304312 
L 263.505967 70.1856 
L 264.591188 70.1856 
L 264.598999 69.948176 
L 264.894503 69.948176 
L 264.894503 69.829463 
L 266.228456 69.829463 
L 266.229016 69.473327 
L 266.560824 69.473327 
L 266.560824 69.354615 
L 267.483354 69.354615 
L 267.488844 68.998478 
L 269.993026 68.998478 
L 269.998394 68.761054 
L 272.201946 68.761054 
L 272.201946 68.642341 
L 273.318763 68.642341 
L 273.318763 68.523629 
L 274.189032 68.523629 
L 274.192735 68.167493 
L 275.829459 68.167493 
L 275.829459 68.04878 
L 276.895048 68.04878 
L 276.895048 67.930068 
L 277.61369 67.930068 
L 277.620192 67.45522 
L 280.515539 67.45522 
L 280.517721 67.217795 
L 281.152748 67.217795 
L 281.237546 66.861659 
L 281.388185 66.861659 
L 281.388185 66.742946 
L 284.166968 66.742946 
L 284.166968 66.624234 
L 285.24357 66.624234 
L 285.24357 66.505522 
L 286.257727 66.505522 
L 286.257727 66.38681 
L 286.792795 66.38681 
L 286.792795 66.268098 
L 288.14048 66.268098 
L 288.14061 66.030673 
L 289.851649 66.030673 
L 289.851649 65.911961 
L 299.564081 65.911961 
L 299.564081 65.793249 
L 300.72412 65.793249 
L 300.72412 65.674537 
L 360.8064 65.674537 
L 360.8064 65.674537 
" style="fill:none;stroke:#ff00ff;stroke-linecap:square;stroke-width:1.5;"/>
   </g>
   <g id="line2d_36">
    <defs>
     <path d="M -0 8.485281 
L 5.091169 0 
L 0 -8.485281 
L -5.091169 -0 
z
" id="m76d6069a13" style="stroke:#ff00ff;stroke-linejoin:miter;stroke-width:1.5;"/>
    </defs>
    <g>
     <use style="fill-opacity:0;stroke:#ff00ff;stroke-linejoin:miter;stroke-width:1.5;" x="110.392479" xlink:href="#m76d6069a13" y="260.481249"/>
     <use style="fill-opacity:0;stroke:#ff00ff;stroke-linejoin:miter;stroke-width:1.5;" x="169.885465" xlink:href="#m76d6069a13" y="103.18759"/>
     <use style="fill-opacity:0;stroke:#ff00ff;stroke-linejoin:miter;stroke-width:1.5;" x="248.497518" xlink:href="#m76d6069a13" y="74.934088"/>
     <use style="fill-opacity:0;stroke:#ff00ff;stroke-linejoin:miter;stroke-width:1.5;" x="300.72412" xlink:href="#m76d6069a13" y="65.674537"/>
     <use style="fill-opacity:0;stroke:#ff00ff;stroke-linejoin:miter;stroke-width:1.5;" x="360.8064" xlink:href="#m76d6069a13" y="65.674537"/>
    </g>
   </g>
   <g id="line2d_37">
    <path style="fill:none;stroke:#ff00ff;stroke-linecap:square;stroke-width:1.5;"/>
    <g/>
   </g>
   <g id="line2d_38">
    <path clip-path="url(#pb89d73a7ec)" d="M 230.863433 81.819395 
" style="fill:none;stroke:#ff00ff;stroke-linecap:square;stroke-width:1.5;"/>
    <defs>
     <path d="M -12 12 
L 12 -12 
M -12 -12 
L 12 12 
" id="m79bd37c296" style="stroke:#ff00ff;"/>
    </defs>
    <g clip-path="url(#pb89d73a7ec)">
     <use style="fill:#ff00ff;stroke:#ff00ff;" x="230.863433" xlink:href="#m79bd37c296" y="81.819395"/>
    </g>
   </g>
   <g id="line2d_39">
    <path d="M 360.8064 135.121171 
L 380.514816 293.10336 
" style="fill:none;stroke:#000080;stroke-linecap:square;stroke-width:1.5;"/>
    <g>
     <use style="fill-opacity:0;stroke:#000080;stroke-width:1.5;" x="360.8064" xlink:href="#m41c72af71d" y="135.121171"/>
     <use style="fill-opacity:0;stroke:#000080;stroke-width:1.5;" x="380.514816" xlink:href="#m41c72af71d" y="293.10336"/>
    </g>
   </g>
   <g id="line2d_40">
    <path d="M 360.8064 65.674537 
L 380.514816 12.75264 
" style="fill:none;stroke:#ff00ff;stroke-linecap:square;stroke-width:1.5;"/>
    <g>
     <use style="fill-opacity:0;stroke:#ff00ff;stroke-linejoin:miter;stroke-width:1.5;" x="360.8064" xlink:href="#m76d6069a13" y="65.674537"/>
     <use style="fill-opacity:0;stroke:#ff00ff;stroke-linejoin:miter;stroke-width:1.5;" x="380.514816" xlink:href="#m76d6069a13" y="12.75264"/>
    </g>
   </g>
   <g id="line2d_41">
    <path d="M 360.8064 298.944 
L 360.8064 6.912 
" style="fill:none;stroke:#000000;stroke-linecap:square;stroke-width:1.5;"/>
   </g>
   <g id="patch_3">
    <path d="M 57.6 298.944 
L 360.8064 298.944 
" style="fill:none;stroke:#000000;stroke-linecap:square;stroke-linejoin:miter;stroke-width:0.8;"/>
   </g>
   <g id="patch_4">
    <path d="M 57.6 6.912 
L 360.8064 6.912 
" style="fill:none;stroke:#000000;stroke-linecap:square;stroke-linejoin:miter;stroke-width:0.8;"/>
   </g>
   <g id="text_13">
    <!-- cobyla -->
    <g transform="translate(386.578944 296.966485)scale(0.14 -0.14)">
     <defs>
      <path d="M 48.6875 27.296875 
Q 48.6875 37.203125 44.609375 42.84375 
Q 40.53125 48.484375 33.40625 48.484375 
Q 26.265625 48.484375 22.1875 42.84375 
Q 18.109375 37.203125 18.109375 27.296875 
Q 18.109375 17.390625 22.1875 11.75 
Q 26.265625 6.109375 33.40625 6.109375 
Q 40.53125 6.109375 44.609375 11.75 
Q 48.6875 17.390625 48.6875 27.296875 
z
M 18.109375 46.390625 
Q 20.953125 51.265625 25.265625 53.625 
Q 29.59375 56 35.59375 56 
Q 45.5625 56 51.78125 48.09375 
Q 58.015625 40.1875 58.015625 27.296875 
Q 58.015625 14.40625 51.78125 6.484375 
Q 45.5625 -1.421875 35.59375 -1.421875 
Q 29.59375 -1.421875 25.265625 0.953125 
Q 20.953125 3.328125 18.109375 8.203125 
L 18.109375 0 
L 9.078125 0 
L 9.078125 75.984375 
L 18.109375 75.984375 
z
" id="DejaVuSans-98"/>
      <path d="M 32.171875 -5.078125 
Q 28.375 -14.84375 24.75 -17.8125 
Q 21.140625 -20.796875 15.09375 -20.796875 
L 7.90625 -20.796875 
L 7.90625 -13.28125 
L 13.1875 -13.28125 
Q 16.890625 -13.28125 18.9375 -11.515625 
Q 21 -9.765625 23.484375 -3.21875 
L 25.09375 0.875 
L 2.984375 54.6875 
L 12.5 54.6875 
L 29.59375 11.921875 
L 46.6875 54.6875 
L 56.203125 54.6875 
z
" id="DejaVuSans-121"/>
     </defs>
     <use xlink:href="#DejaVuSans-99"/>
     <use x="54.980469" xlink:href="#DejaVuSans-111"/>
     <use x="116.162109" xlink:href="#DejaVuSans-98"/>
     <use x="179.638672" xlink:href="#DejaVuSans-121"/>
     <use x="238.818359" xlink:href="#DejaVuSans-108"/>
     <use x="266.601562" xlink:href="#DejaVuSans-97"/>
    </g>
   </g>
   <g id="text_14">
    <!-- slsqp -->
    <g transform="translate(386.578944 16.615765)scale(0.14 -0.14)">
     <defs>
      <path d="M 14.796875 27.296875 
Q 14.796875 17.390625 18.875 11.75 
Q 22.953125 6.109375 30.078125 6.109375 
Q 37.203125 6.109375 41.296875 11.75 
Q 45.40625 17.390625 45.40625 27.296875 
Q 45.40625 37.203125 41.296875 42.84375 
Q 37.203125 48.484375 30.078125 48.484375 
Q 22.953125 48.484375 18.875 42.84375 
Q 14.796875 37.203125 14.796875 27.296875 
z
M 45.40625 8.203125 
Q 42.578125 3.328125 38.25 0.953125 
Q 33.9375 -1.421875 27.875 -1.421875 
Q 17.96875 -1.421875 11.734375 6.484375 
Q 5.515625 14.40625 5.515625 27.296875 
Q 5.515625 40.1875 11.734375 48.09375 
Q 17.96875 56 27.875 56 
Q 33.9375 56 38.25 53.625 
Q 42.578125 51.265625 45.40625 46.390625 
L 45.40625 54.6875 
L 54.390625 54.6875 
L 54.390625 -20.796875 
L 45.40625 -20.796875 
z
" id="DejaVuSans-113"/>
     </defs>
     <use xlink:href="#DejaVuSans-115"/>
     <use x="52.099609" xlink:href="#DejaVuSans-108"/>
     <use x="79.882812" xlink:href="#DejaVuSans-115"/>
     <use x="131.982422" xlink:href="#DejaVuSans-113"/>
     <use x="195.458984" xlink:href="#DejaVuSans-112"/>
    </g>
   </g>
   <g id="text_15">
    <!-- bbob-constrained f20, f26, f32, f38, 20-D -->
    <g transform="translate(60.632064 17.582726)scale(0.102 -0.102)">
     <defs>
      <path d="M 4.890625 31.390625 
L 31.203125 31.390625 
L 31.203125 23.390625 
L 4.890625 23.390625 
z
" id="DejaVuSans-45"/>
      <path d="M 40.578125 39.3125 
Q 47.65625 37.796875 51.625 33 
Q 55.609375 28.21875 55.609375 21.1875 
Q 55.609375 10.40625 48.1875 4.484375 
Q 40.765625 -1.421875 27.09375 -1.421875 
Q 22.515625 -1.421875 17.65625 -0.515625 
Q 12.796875 0.390625 7.625 2.203125 
L 7.625 11.71875 
Q 11.71875 9.328125 16.59375 8.109375 
Q 21.484375 6.890625 26.8125 6.890625 
Q 36.078125 6.890625 40.9375 10.546875 
Q 45.796875 14.203125 45.796875 21.1875 
Q 45.796875 27.640625 41.28125 31.265625 
Q 36.765625 34.90625 28.71875 34.90625 
L 20.21875 34.90625 
L 20.21875 43.015625 
L 29.109375 43.015625 
Q 36.375 43.015625 40.234375 45.921875 
Q 44.09375 48.828125 44.09375 54.296875 
Q 44.09375 59.90625 40.109375 62.90625 
Q 36.140625 65.921875 28.71875 65.921875 
Q 24.65625 65.921875 20.015625 65.03125 
Q 15.375 64.15625 9.8125 62.3125 
L 9.8125 71.09375 
Q 15.4375 72.65625 20.34375 73.4375 
Q 25.25 74.21875 29.59375 74.21875 
Q 40.828125 74.21875 47.359375 69.109375 
Q 53.90625 64.015625 53.90625 55.328125 
Q 53.90625 49.265625 50.4375 45.09375 
Q 46.96875 40.921875 40.578125 39.3125 
z
" id="DejaVuSans-51"/>
      <path d="M 19.671875 64.796875 
L 19.671875 8.109375 
L 31.59375 8.109375 
Q 46.6875 8.109375 53.6875 14.9375 
Q 60.6875 21.78125 60.6875 36.53125 
Q 60.6875 51.171875 53.6875 57.984375 
Q 46.6875 64.796875 31.59375 64.796875 
z
M 9.8125 72.90625 
L 30.078125 72.90625 
Q 51.265625 72.90625 61.171875 64.09375 
Q 71.09375 55.28125 71.09375 36.53125 
Q 71.09375 17.671875 61.125 8.828125 
Q 51.171875 0 30.078125 0 
L 9.8125 0 
z
" id="DejaVuSans-68"/>
     </defs>
     <use xlink:href="#DejaVuSans-98"/>
     <use x="63.476562" xlink:href="#DejaVuSans-98"/>
     <use x="126.953125" xlink:href="#DejaVuSans-111"/>
     <use x="188.134766" xlink:href="#DejaVuSans-98"/>
     <use x="251.611328" xlink:href="#DejaVuSans-45"/>
     <use x="287.695312" xlink:href="#DejaVuSans-99"/>
     <use x="342.675781" xlink:href="#DejaVuSans-111"/>
     <use x="403.857422" xlink:href="#DejaVuSans-110"/>
     <use x="467.236328" xlink:href="#DejaVuSans-115"/>
     <use x="519.335938" xlink:href="#DejaVuSans-116"/>
     <use x="558.544922" xlink:href="#DejaVuSans-114"/>
     <use x="599.658203" xlink:href="#DejaVuSans-97"/>
     <use x="660.9375" xlink:href="#DejaVuSans-105"/>
     <use x="688.720703" xlink:href="#DejaVuSans-110"/>
     <use x="752.099609" xlink:href="#DejaVuSans-101"/>
     <use x="813.623047" xlink:href="#DejaVuSans-100"/>
     <use x="877.099609" xlink:href="#DejaVuSans-32"/>
     <use x="908.886719" xlink:href="#DejaVuSans-102"/>
     <use x="944.091797" xlink:href="#DejaVuSans-50"/>
     <use x="1007.714844" xlink:href="#DejaVuSans-48"/>
     <use x="1071.337891" xlink:href="#DejaVuSans-44"/>
     <use x="1103.125" xlink:href="#DejaVuSans-32"/>
     <use x="1134.912109" xlink:href="#DejaVuSans-102"/>
     <use x="1170.117188" xlink:href="#DejaVuSans-50"/>
     <use x="1233.740234" xlink:href="#DejaVuSans-54"/>
     <use x="1297.363281" xlink:href="#DejaVuSans-44"/>
     <use x="1329.150391" xlink:href="#DejaVuSans-32"/>
     <use x="1360.9375" xlink:href="#DejaVuSans-102"/>
     <use x="1396.142578" xlink:href="#DejaVuSans-51"/>
     <use x="1459.765625" xlink:href="#DejaVuSans-50"/>
     <use x="1523.388672" xlink:href="#DejaVuSans-44"/>
     <use x="1555.175781" xlink:href="#DejaVuSans-32"/>
     <use x="1586.962891" xlink:href="#DejaVuSans-102"/>
     <use x="1622.167969" xlink:href="#DejaVuSans-51"/>
     <use x="1685.791016" xlink:href="#DejaVuSans-56"/>
     <use x="1749.414062" xlink:href="#DejaVuSans-44"/>
     <use x="1781.201172" xlink:href="#DejaVuSans-32"/>
     <use x="1812.988281" xlink:href="#DejaVuSans-50"/>
     <use x="1876.611328" xlink:href="#DejaVuSans-48"/>
     <use x="1940.234375" xlink:href="#DejaVuSans-45"/>
     <use x="1976.318359" xlink:href="#DejaVuSans-68"/>
    </g>
    <!-- 41 targets: 100..1e-06 -->
    <g transform="translate(60.632064 29.004495)scale(0.102 -0.102)">
     <defs>
      <path d="M 11.71875 12.40625 
L 22.015625 12.40625 
L 22.015625 0 
L 11.71875 0 
z
M 11.71875 51.703125 
L 22.015625 51.703125 
L 22.015625 39.3125 
L 11.71875 39.3125 
z
" id="DejaVuSans-58"/>
     </defs>
     <use xlink:href="#DejaVuSans-52"/>
     <use x="63.623047" xlink:href="#DejaVuSans-49"/>
     <use x="127.246094" xlink:href="#DejaVuSans-32"/>
     <use x="159.033203" xlink:href="#DejaVuSans-116"/>
     <use x="198.242188" xlink:href="#DejaVuSans-97"/>
     <use x="259.521484" xlink:href="#DejaVuSans-114"/>
     <use x="298.884766" xlink:href="#DejaVuSans-103"/>
     <use x="362.361328" xlink:href="#DejaVuSans-101"/>
     <use x="423.884766" xlink:href="#DejaVuSans-116"/>
     <use x="463.09375" xlink:href="#DejaVuSans-115"/>
     <use x="515.193359" xlink:href="#DejaVuSans-58"/>
     <use x="548.884766" xlink:href="#DejaVuSans-32"/>
     <use x="580.671875" xlink:href="#DejaVuSans-49"/>
     <use x="644.294922" xlink:href="#DejaVuSans-48"/>
     <use x="707.917969" xlink:href="#DejaVuSans-48"/>
     <use x="771.541016" xlink:href="#DejaVuSans-46"/>
     <use x="803.328125" xlink:href="#DejaVuSans-46"/>
     <use x="835.115234" xlink:href="#DejaVuSans-49"/>
     <use x="898.738281" xlink:href="#DejaVuSans-101"/>
     <use x="960.261719" xlink:href="#DejaVuSans-45"/>
     <use x="996.345703" xlink:href="#DejaVuSans-48"/>
     <use x="1059.96875" xlink:href="#DejaVuSans-54"/>
    </g>
    <!-- evals = f-evals + g-evals -->
    <g transform="translate(60.632064 40.426264)scale(0.102 -0.102)">
     <defs>
      <path d="M 10.59375 45.40625 
L 73.1875 45.40625 
L 73.1875 37.203125 
L 10.59375 37.203125 
z
M 10.59375 25.484375 
L 73.1875 25.484375 
L 73.1875 17.1875 
L 10.59375 17.1875 
z
" id="DejaVuSans-61"/>
      <path d="M 46 62.703125 
L 46 35.5 
L 73.1875 35.5 
L 73.1875 27.203125 
L 46 27.203125 
L 46 0 
L 37.796875 0 
L 37.796875 27.203125 
L 10.59375 27.203125 
L 10.59375 35.5 
L 37.796875 35.5 
L 37.796875 62.703125 
z
" id="DejaVuSans-43"/>
     </defs>
     <use xlink:href="#DejaVuSans-101"/>
     <use x="61.523438" xlink:href="#DejaVuSans-118"/>
     <use x="120.703125" xlink:href="#DejaVuSans-97"/>
     <use x="181.982422" xlink:href="#DejaVuSans-108"/>
     <use x="209.765625" xlink:href="#DejaVuSans-115"/>
     <use x="261.865234" xlink:href="#DejaVuSans-32"/>
     <use x="293.652344" xlink:href="#DejaVuSans-61"/>
     <use x="377.441406" xlink:href="#DejaVuSans-32"/>
     <use x="409.228516" xlink:href="#DejaVuSans-102"/>
     <use x="438.933594" xlink:href="#DejaVuSans-45"/>
     <use x="475.017578" xlink:href="#DejaVuSans-101"/>
     <use x="536.541016" xlink:href="#DejaVuSans-118"/>
     <use x="595.720703" xlink:href="#DejaVuSans-97"/>
     <use x="657" xlink:href="#DejaVuSans-108"/>
     <use x="684.783203" xlink:href="#DejaVuSans-115"/>
     <use x="736.882812" xlink:href="#DejaVuSans-32"/>
     <use x="768.669922" xlink:href="#DejaVuSans-43"/>
     <use x="852.458984" xlink:href="#DejaVuSans-32"/>
     <use x="884.246094" xlink:href="#DejaVuSans-103"/>
     <use x="947.722656" xlink:href="#DejaVuSans-45"/>
     <use x="983.806641" xlink:href="#DejaVuSans-101"/>
     <use x="1045.330078" xlink:href="#DejaVuSans-118"/>
     <use x="1104.509766" xlink:href="#DejaVuSans-97"/>
     <use x="1165.789062" xlink:href="#DejaVuSans-108"/>
     <use x="1193.572266" xlink:href="#DejaVuSans-115"/>
    </g>
    <!-- 15 instances -->
    <g transform="translate(60.632064 51.848032)scale(0.102 -0.102)">
     <defs>
      <path d="M 10.796875 72.90625 
L 49.515625 72.90625 
L 49.515625 64.59375 
L 19.828125 64.59375 
L 19.828125 46.734375 
Q 21.96875 47.46875 24.109375 47.828125 
Q 26.265625 48.1875 28.421875 48.1875 
Q 40.625 48.1875 47.75 41.5 
Q 54.890625 34.8125 54.890625 23.390625 
Q 54.890625 11.625 47.5625 5.09375 
Q 40.234375 -1.421875 26.90625 -1.421875 
Q 22.3125 -1.421875 17.546875 -0.640625 
Q 12.796875 0.140625 7.71875 1.703125 
L 7.71875 11.625 
Q 12.109375 9.234375 16.796875 8.0625 
Q 21.484375 6.890625 26.703125 6.890625 
Q 35.15625 6.890625 40.078125 11.328125 
Q 45.015625 15.765625 45.015625 23.390625 
Q 45.015625 31 40.078125 35.4375 
Q 35.15625 39.890625 26.703125 39.890625 
Q 22.75 39.890625 18.8125 39.015625 
Q 14.890625 38.140625 10.796875 36.28125 
z
" id="DejaVuSans-53"/>
     </defs>
     <use xlink:href="#DejaVuSans-49"/>
     <use x="63.623047" xlink:href="#DejaVuSans-53"/>
     <use x="127.246094" xlink:href="#DejaVuSans-32"/>
     <use x="159.033203" xlink:href="#DejaVuSans-105"/>
     <use x="186.816406" xlink:href="#DejaVuSans-110"/>
     <use x="250.195312" xlink:href="#DejaVuSans-115"/>
     <use x="302.294922" xlink:href="#DejaVuSans-116"/>
     <use x="341.503906" xlink:href="#DejaVuSans-97"/>
     <use x="402.783203" xlink:href="#DejaVuSans-110"/>
     <use x="466.162109" xlink:href="#DejaVuSans-99"/>
     <use x="521.142578" xlink:href="#DejaVuSans-101"/>
     <use x="582.666016" xlink:href="#DejaVuSans-115"/>
    </g>
   </g>
   <g id="text_16">
    <!-- v2.4.143 -->
    <g style="fill:#808080;" transform="translate(187.15945 293.943992)scale(0.1 -0.1)">
     <use xlink:href="#DejaVuSans-118"/>
     <use x="59.179688" xlink:href="#DejaVuSans-50"/>
     <use x="122.802734" xlink:href="#DejaVuSans-46"/>
     <use x="154.589844" xlink:href="#DejaVuSans-52"/>
     <use x="218.212891" xlink:href="#DejaVuSans-46"/>
     <use x="250" xlink:href="#DejaVuSans-49"/>
     <use x="313.623047" xlink:href="#DejaVuSans-52"/>
     <use x="377.246094" xlink:href="#DejaVuSans-51"/>
    </g>
   </g>
  </g>
 </g>
 <defs>
  <clipPath id="pb89d73a7ec">
   <rect height="292.032" width="303.2064" x="57.6" y="6.912"/>
  </clipPath>
 </defs>
</svg>
