<?xml version="1.0" encoding="utf-8" standalone="no"?>
<!DOCTYPE svg PUBLIC "-//W3C//DTD SVG 1.1//EN"
  "http://www.w3.org/Graphics/SVG/1.1/DTD/svg11.dtd">
<!-- Created with matplotlib (https://matplotlib.org/) -->
<svg height="345.6pt" version="1.1" viewBox="0 0 460.8 345.6" width="460.8pt" xmlns="http://www.w3.org/2000/svg" xmlns:xlink="http://www.w3.org/1999/xlink">
 <metadata>
  <rdf:RDF xmlns:cc="http://creativecommons.org/ns#" xmlns:dc="http://purl.org/dc/elements/1.1/" xmlns:rdf="http://www.w3.org/1999/02/22-rdf-syntax-ns#">
   <cc:Work>
    <dc:type rdf:resource="http://purl.org/dc/dcmitype/StillImage"/>
    <dc:date>2022-02-02T15:40:45.428615</dc:date>
    <dc:format>image/svg+xml</dc:format>
    <dc:creator>
     <cc:Agent>
      <dc:title>Matplotlib v3.3.3, https://matplotlib.org/</dc:title>
     </cc:Agent>
    </dc:creator>
   </cc:Work>
  </rdf:RDF>
 </metadata>
 <defs>
  <style type="text/css">*{stroke-linecap:butt;stroke-linejoin:round;}</style>
 </defs>
 <g id="figure_1">
  <g id="patch_1">
   <path d="M 0 345.6 
L 460.8 345.6 
L 460.8 0 
L 0 0 
z
" style="fill:#ffffff;"/>
  </g>
  <g id="axes_1">
   <g id="patch_2">
    <path d="M 57.6 298.944 
L 360.8064 298.944 
L 360.8064 6.912 
L 57.6 6.912 
z
" style="fill:#ffffff;"/>
   </g>
   <g id="matplotlib.axis_1">
    <g id="xtick_1">
     <g id="line2d_1">
      <path clip-path="url(#p638be69588)" d="M 57.6 298.944 
L 57.6 6.912 
" style="fill:none;stroke:#b0b0b0;stroke-linecap:square;stroke-width:0.8;"/>
     </g>
     <g id="line2d_2">
      <defs>
       <path d="M 0 0 
L 0 3.5 
" id="m5e1c23960e" style="stroke:#000000;stroke-width:0.8;"/>
      </defs>
      <g>
       <use style="stroke:#000000;stroke-width:0.8;" x="57.6" xlink:href="#m5e1c23960e" y="298.944"/>
      </g>
     </g>
     <g id="text_1">
      <!-- 0 -->
      <g transform="translate(52.191875 318.861344)scale(0.17 -0.17)">
       <defs>
        <path d="M 31.78125 66.40625 
Q 24.171875 66.40625 20.328125 58.90625 
Q 16.5 51.421875 16.5 36.375 
Q 16.5 21.390625 20.328125 13.890625 
Q 24.171875 6.390625 31.78125 6.390625 
Q 39.453125 6.390625 43.28125 13.890625 
Q 47.125 21.390625 47.125 36.375 
Q 47.125 51.421875 43.28125 58.90625 
Q 39.453125 66.40625 31.78125 66.40625 
z
M 31.78125 74.21875 
Q 44.046875 74.21875 50.515625 64.515625 
Q 56.984375 54.828125 56.984375 36.375 
Q 56.984375 17.96875 50.515625 8.265625 
Q 44.046875 -1.421875 31.78125 -1.421875 
Q 19.53125 -1.421875 13.0625 8.265625 
Q 6.59375 17.96875 6.59375 36.375 
Q 6.59375 54.828125 13.0625 64.515625 
Q 19.53125 74.21875 31.78125 74.21875 
z
" id="DejaVuSans-48"/>
       </defs>
       <use xlink:href="#DejaVuSans-48"/>
      </g>
     </g>
    </g>
    <g id="xtick_2">
     <g id="line2d_3">
      <path clip-path="url(#p638be69588)" d="M 144.2304 298.944 
L 144.2304 6.912 
" style="fill:none;stroke:#b0b0b0;stroke-linecap:square;stroke-width:0.8;"/>
     </g>
     <g id="line2d_4">
      <g>
       <use style="stroke:#000000;stroke-width:0.8;" x="144.2304" xlink:href="#m5e1c23960e" y="298.944"/>
      </g>
     </g>
     <g id="text_2">
      <!-- 2 -->
      <g transform="translate(138.822275 318.861344)scale(0.17 -0.17)">
       <defs>
        <path d="M 19.1875 8.296875 
L 53.609375 8.296875 
L 53.609375 0 
L 7.328125 0 
L 7.328125 8.296875 
Q 12.9375 14.109375 22.625 23.890625 
Q 32.328125 33.6875 34.8125 36.53125 
Q 39.546875 41.84375 41.421875 45.53125 
Q 43.3125 49.21875 43.3125 52.78125 
Q 43.3125 58.59375 39.234375 62.25 
Q 35.15625 65.921875 28.609375 65.921875 
Q 23.96875 65.921875 18.8125 64.3125 
Q 13.671875 62.703125 7.8125 59.421875 
L 7.8125 69.390625 
Q 13.765625 71.78125 18.9375 73 
Q 24.125 74.21875 28.421875 74.21875 
Q 39.75 74.21875 46.484375 68.546875 
Q 53.21875 62.890625 53.21875 53.421875 
Q 53.21875 48.921875 51.53125 44.890625 
Q 49.859375 40.875 45.40625 35.40625 
Q 44.1875 33.984375 37.640625 27.21875 
Q 31.109375 20.453125 19.1875 8.296875 
z
" id="DejaVuSans-50"/>
       </defs>
       <use xlink:href="#DejaVuSans-50"/>
      </g>
     </g>
    </g>
    <g id="xtick_3">
     <g id="line2d_5">
      <path clip-path="url(#p638be69588)" d="M 230.8608 298.944 
L 230.8608 6.912 
" style="fill:none;stroke:#b0b0b0;stroke-linecap:square;stroke-width:0.8;"/>
     </g>
     <g id="line2d_6">
      <g>
       <use style="stroke:#000000;stroke-width:0.8;" x="230.8608" xlink:href="#m5e1c23960e" y="298.944"/>
      </g>
     </g>
     <g id="text_3">
      <!-- 4 -->
      <g transform="translate(225.452675 318.861344)scale(0.17 -0.17)">
       <defs>
        <path d="M 37.796875 64.3125 
L 12.890625 25.390625 
L 37.796875 25.390625 
z
M 35.203125 72.90625 
L 47.609375 72.90625 
L 47.609375 25.390625 
L 58.015625 25.390625 
L 58.015625 17.1875 
L 47.609375 17.1875 
L 47.609375 0 
L 37.796875 0 
L 37.796875 17.1875 
L 4.890625 17.1875 
L 4.890625 26.703125 
z
" id="DejaVuSans-52"/>
       </defs>
       <use xlink:href="#DejaVuSans-52"/>
      </g>
     </g>
    </g>
    <g id="xtick_4">
     <g id="line2d_7">
      <path clip-path="url(#p638be69588)" d="M 317.4912 298.944 
L 317.4912 6.912 
" style="fill:none;stroke:#b0b0b0;stroke-linecap:square;stroke-width:0.8;"/>
     </g>
     <g id="line2d_8">
      <g>
       <use style="stroke:#000000;stroke-width:0.8;" x="317.4912" xlink:href="#m5e1c23960e" y="298.944"/>
      </g>
     </g>
     <g id="text_4">
      <!-- 6 -->
      <g transform="translate(312.083075 318.861344)scale(0.17 -0.17)">
       <defs>
        <path d="M 33.015625 40.375 
Q 26.375 40.375 22.484375 35.828125 
Q 18.609375 31.296875 18.609375 23.390625 
Q 18.609375 15.53125 22.484375 10.953125 
Q 26.375 6.390625 33.015625 6.390625 
Q 39.65625 6.390625 43.53125 10.953125 
Q 47.40625 15.53125 47.40625 23.390625 
Q 47.40625 31.296875 43.53125 35.828125 
Q 39.65625 40.375 33.015625 40.375 
z
M 52.59375 71.296875 
L 52.59375 62.3125 
Q 48.875 64.0625 45.09375 64.984375 
Q 41.3125 65.921875 37.59375 65.921875 
Q 27.828125 65.921875 22.671875 59.328125 
Q 17.53125 52.734375 16.796875 39.40625 
Q 19.671875 43.65625 24.015625 45.921875 
Q 28.375 48.1875 33.59375 48.1875 
Q 44.578125 48.1875 50.953125 41.515625 
Q 57.328125 34.859375 57.328125 23.390625 
Q 57.328125 12.15625 50.6875 5.359375 
Q 44.046875 -1.421875 33.015625 -1.421875 
Q 20.359375 -1.421875 13.671875 8.265625 
Q 6.984375 17.96875 6.984375 36.375 
Q 6.984375 53.65625 15.1875 63.9375 
Q 23.390625 74.21875 37.203125 74.21875 
Q 40.921875 74.21875 44.703125 73.484375 
Q 48.484375 72.75 52.59375 71.296875 
z
" id="DejaVuSans-54"/>
       </defs>
       <use xlink:href="#DejaVuSans-54"/>
      </g>
     </g>
    </g>
    <g id="xtick_5">
     <g id="line2d_9">
      <path clip-path="url(#p638be69588)" d="M 100.9152 298.944 
L 100.9152 6.912 
" style="fill:none;stroke:#b0b0b0;stroke-linecap:square;stroke-width:0.8;"/>
     </g>
     <g id="line2d_10">
      <defs>
       <path d="M 0 0 
L 0 2 
" id="m03bf5e2a55" style="stroke:#000000;stroke-width:0.6;"/>
      </defs>
      <g>
       <use style="stroke:#000000;stroke-width:0.6;" x="100.9152" xlink:href="#m03bf5e2a55" y="298.944"/>
      </g>
     </g>
    </g>
    <g id="xtick_6">
     <g id="line2d_11">
      <path clip-path="url(#p638be69588)" d="M 187.5456 298.944 
L 187.5456 6.912 
" style="fill:none;stroke:#b0b0b0;stroke-linecap:square;stroke-width:0.8;"/>
     </g>
     <g id="line2d_12">
      <g>
       <use style="stroke:#000000;stroke-width:0.6;" x="187.5456" xlink:href="#m03bf5e2a55" y="298.944"/>
      </g>
     </g>
    </g>
    <g id="xtick_7">
     <g id="line2d_13">
      <path clip-path="url(#p638be69588)" d="M 274.176 298.944 
L 274.176 6.912 
" style="fill:none;stroke:#b0b0b0;stroke-linecap:square;stroke-width:0.8;"/>
     </g>
     <g id="line2d_14">
      <g>
       <use style="stroke:#000000;stroke-width:0.6;" x="274.176" xlink:href="#m03bf5e2a55" y="298.944"/>
      </g>
     </g>
    </g>
    <g id="xtick_8">
     <g id="line2d_15">
      <path clip-path="url(#p638be69588)" d="M 360.8064 298.944 
L 360.8064 6.912 
" style="fill:none;stroke:#b0b0b0;stroke-linecap:square;stroke-width:0.8;"/>
     </g>
     <g id="line2d_16">
      <g>
       <use style="stroke:#000000;stroke-width:0.6;" x="360.8064" xlink:href="#m03bf5e2a55" y="298.944"/>
      </g>
     </g>
    </g>
    <g id="text_5">
     <!-- log10(evals / dimension) -->
     <g transform="translate(104.238825 339.314156)scale(0.17 -0.17)">
      <defs>
       <path d="M 9.421875 75.984375 
L 18.40625 75.984375 
L 18.40625 0 
L 9.421875 0 
z
" id="DejaVuSans-108"/>
       <path d="M 30.609375 48.390625 
Q 23.390625 48.390625 19.1875 42.75 
Q 14.984375 37.109375 14.984375 27.296875 
Q 14.984375 17.484375 19.15625 11.84375 
Q 23.34375 6.203125 30.609375 6.203125 
Q 37.796875 6.203125 41.984375 11.859375 
Q 46.1875 17.53125 46.1875 27.296875 
Q 46.1875 37.015625 41.984375 42.703125 
Q 37.796875 48.390625 30.609375 48.390625 
z
M 30.609375 56 
Q 42.328125 56 49.015625 48.375 
Q 55.71875 40.765625 55.71875 27.296875 
Q 55.71875 13.875 49.015625 6.21875 
Q 42.328125 -1.421875 30.609375 -1.421875 
Q 18.84375 -1.421875 12.171875 6.21875 
Q 5.515625 13.875 5.515625 27.296875 
Q 5.515625 40.765625 12.171875 48.375 
Q 18.84375 56 30.609375 56 
z
" id="DejaVuSans-111"/>
       <path d="M 45.40625 27.984375 
Q 45.40625 37.75 41.375 43.109375 
Q 37.359375 48.484375 30.078125 48.484375 
Q 22.859375 48.484375 18.828125 43.109375 
Q 14.796875 37.75 14.796875 27.984375 
Q 14.796875 18.265625 18.828125 12.890625 
Q 22.859375 7.515625 30.078125 7.515625 
Q 37.359375 7.515625 41.375 12.890625 
Q 45.40625 18.265625 45.40625 27.984375 
z
M 54.390625 6.78125 
Q 54.390625 -7.171875 48.1875 -13.984375 
Q 42 -20.796875 29.203125 -20.796875 
Q 24.46875 -20.796875 20.265625 -20.09375 
Q 16.0625 -19.390625 12.109375 -17.921875 
L 12.109375 -9.1875 
Q 16.0625 -11.328125 19.921875 -12.34375 
Q 23.78125 -13.375 27.78125 -13.375 
Q 36.625 -13.375 41.015625 -8.765625 
Q 45.40625 -4.15625 45.40625 5.171875 
L 45.40625 9.625 
Q 42.625 4.78125 38.28125 2.390625 
Q 33.9375 0 27.875 0 
Q 17.828125 0 11.671875 7.65625 
Q 5.515625 15.328125 5.515625 27.984375 
Q 5.515625 40.671875 11.671875 48.328125 
Q 17.828125 56 27.875 56 
Q 33.9375 56 38.28125 53.609375 
Q 42.625 51.21875 45.40625 46.390625 
L 45.40625 54.6875 
L 54.390625 54.6875 
z
" id="DejaVuSans-103"/>
       <path d="M 12.40625 8.296875 
L 28.515625 8.296875 
L 28.515625 63.921875 
L 10.984375 60.40625 
L 10.984375 69.390625 
L 28.421875 72.90625 
L 38.28125 72.90625 
L 38.28125 8.296875 
L 54.390625 8.296875 
L 54.390625 0 
L 12.40625 0 
z
" id="DejaVuSans-49"/>
       <path d="M 31 75.875 
Q 24.46875 64.65625 21.28125 53.65625 
Q 18.109375 42.671875 18.109375 31.390625 
Q 18.109375 20.125 21.3125 9.0625 
Q 24.515625 -2 31 -13.1875 
L 23.1875 -13.1875 
Q 15.875 -1.703125 12.234375 9.375 
Q 8.59375 20.453125 8.59375 31.390625 
Q 8.59375 42.28125 12.203125 53.3125 
Q 15.828125 64.359375 23.1875 75.875 
z
" id="DejaVuSans-40"/>
       <path d="M 56.203125 29.59375 
L 56.203125 25.203125 
L 14.890625 25.203125 
Q 15.484375 15.921875 20.484375 11.0625 
Q 25.484375 6.203125 34.421875 6.203125 
Q 39.59375 6.203125 44.453125 7.46875 
Q 49.3125 8.734375 54.109375 11.28125 
L 54.109375 2.78125 
Q 49.265625 0.734375 44.1875 -0.34375 
Q 39.109375 -1.421875 33.890625 -1.421875 
Q 20.796875 -1.421875 13.15625 6.1875 
Q 5.515625 13.8125 5.515625 26.8125 
Q 5.515625 40.234375 12.765625 48.109375 
Q 20.015625 56 32.328125 56 
Q 43.359375 56 49.78125 48.890625 
Q 56.203125 41.796875 56.203125 29.59375 
z
M 47.21875 32.234375 
Q 47.125 39.59375 43.09375 43.984375 
Q 39.0625 48.390625 32.421875 48.390625 
Q 24.90625 48.390625 20.390625 44.140625 
Q 15.875 39.890625 15.1875 32.171875 
z
" id="DejaVuSans-101"/>
       <path d="M 2.984375 54.6875 
L 12.5 54.6875 
L 29.59375 8.796875 
L 46.6875 54.6875 
L 56.203125 54.6875 
L 35.6875 0 
L 23.484375 0 
z
" id="DejaVuSans-118"/>
       <path d="M 34.28125 27.484375 
Q 23.390625 27.484375 19.1875 25 
Q 14.984375 22.515625 14.984375 16.5 
Q 14.984375 11.71875 18.140625 8.90625 
Q 21.296875 6.109375 26.703125 6.109375 
Q 34.1875 6.109375 38.703125 11.40625 
Q 43.21875 16.703125 43.21875 25.484375 
L 43.21875 27.484375 
z
M 52.203125 31.203125 
L 52.203125 0 
L 43.21875 0 
L 43.21875 8.296875 
Q 40.140625 3.328125 35.546875 0.953125 
Q 30.953125 -1.421875 24.3125 -1.421875 
Q 15.921875 -1.421875 10.953125 3.296875 
Q 6 8.015625 6 15.921875 
Q 6 25.140625 12.171875 29.828125 
Q 18.359375 34.515625 30.609375 34.515625 
L 43.21875 34.515625 
L 43.21875 35.40625 
Q 43.21875 41.609375 39.140625 45 
Q 35.0625 48.390625 27.6875 48.390625 
Q 23 48.390625 18.546875 47.265625 
Q 14.109375 46.140625 10.015625 43.890625 
L 10.015625 52.203125 
Q 14.9375 54.109375 19.578125 55.046875 
Q 24.21875 56 28.609375 56 
Q 40.484375 56 46.34375 49.84375 
Q 52.203125 43.703125 52.203125 31.203125 
z
" id="DejaVuSans-97"/>
       <path d="M 44.28125 53.078125 
L 44.28125 44.578125 
Q 40.484375 46.53125 36.375 47.5 
Q 32.28125 48.484375 27.875 48.484375 
Q 21.1875 48.484375 17.84375 46.4375 
Q 14.5 44.390625 14.5 40.28125 
Q 14.5 37.15625 16.890625 35.375 
Q 19.28125 33.59375 26.515625 31.984375 
L 29.59375 31.296875 
Q 39.15625 29.25 43.1875 25.515625 
Q 47.21875 21.78125 47.21875 15.09375 
Q 47.21875 7.46875 41.1875 3.015625 
Q 35.15625 -1.421875 24.609375 -1.421875 
Q 20.21875 -1.421875 15.453125 -0.5625 
Q 10.6875 0.296875 5.421875 2 
L 5.421875 11.28125 
Q 10.40625 8.6875 15.234375 7.390625 
Q 20.0625 6.109375 24.8125 6.109375 
Q 31.15625 6.109375 34.5625 8.28125 
Q 37.984375 10.453125 37.984375 14.40625 
Q 37.984375 18.0625 35.515625 20.015625 
Q 33.0625 21.96875 24.703125 23.78125 
L 21.578125 24.515625 
Q 13.234375 26.265625 9.515625 29.90625 
Q 5.8125 33.546875 5.8125 39.890625 
Q 5.8125 47.609375 11.28125 51.796875 
Q 16.75 56 26.8125 56 
Q 31.78125 56 36.171875 55.265625 
Q 40.578125 54.546875 44.28125 53.078125 
z
" id="DejaVuSans-115"/>
       <path id="DejaVuSans-32"/>
       <path d="M 25.390625 72.90625 
L 33.6875 72.90625 
L 8.296875 -9.28125 
L 0 -9.28125 
z
" id="DejaVuSans-47"/>
       <path d="M 45.40625 46.390625 
L 45.40625 75.984375 
L 54.390625 75.984375 
L 54.390625 0 
L 45.40625 0 
L 45.40625 8.203125 
Q 42.578125 3.328125 38.25 0.953125 
Q 33.9375 -1.421875 27.875 -1.421875 
Q 17.96875 -1.421875 11.734375 6.484375 
Q 5.515625 14.40625 5.515625 27.296875 
Q 5.515625 40.1875 11.734375 48.09375 
Q 17.96875 56 27.875 56 
Q 33.9375 56 38.25 53.625 
Q 42.578125 51.265625 45.40625 46.390625 
z
M 14.796875 27.296875 
Q 14.796875 17.390625 18.875 11.75 
Q 22.953125 6.109375 30.078125 6.109375 
Q 37.203125 6.109375 41.296875 11.75 
Q 45.40625 17.390625 45.40625 27.296875 
Q 45.40625 37.203125 41.296875 42.84375 
Q 37.203125 48.484375 30.078125 48.484375 
Q 22.953125 48.484375 18.875 42.84375 
Q 14.796875 37.203125 14.796875 27.296875 
z
" id="DejaVuSans-100"/>
       <path d="M 9.421875 54.6875 
L 18.40625 54.6875 
L 18.40625 0 
L 9.421875 0 
z
M 9.421875 75.984375 
L 18.40625 75.984375 
L 18.40625 64.59375 
L 9.421875 64.59375 
z
" id="DejaVuSans-105"/>
       <path d="M 52 44.1875 
Q 55.375 50.25 60.0625 53.125 
Q 64.75 56 71.09375 56 
Q 79.640625 56 84.28125 50.015625 
Q 88.921875 44.046875 88.921875 33.015625 
L 88.921875 0 
L 79.890625 0 
L 79.890625 32.71875 
Q 79.890625 40.578125 77.09375 44.375 
Q 74.3125 48.1875 68.609375 48.1875 
Q 61.625 48.1875 57.5625 43.546875 
Q 53.515625 38.921875 53.515625 30.90625 
L 53.515625 0 
L 44.484375 0 
L 44.484375 32.71875 
Q 44.484375 40.625 41.703125 44.40625 
Q 38.921875 48.1875 33.109375 48.1875 
Q 26.21875 48.1875 22.15625 43.53125 
Q 18.109375 38.875 18.109375 30.90625 
L 18.109375 0 
L 9.078125 0 
L 9.078125 54.6875 
L 18.109375 54.6875 
L 18.109375 46.1875 
Q 21.1875 51.21875 25.484375 53.609375 
Q 29.78125 56 35.6875 56 
Q 41.65625 56 45.828125 52.96875 
Q 50 49.953125 52 44.1875 
z
" id="DejaVuSans-109"/>
       <path d="M 54.890625 33.015625 
L 54.890625 0 
L 45.90625 0 
L 45.90625 32.71875 
Q 45.90625 40.484375 42.875 44.328125 
Q 39.84375 48.1875 33.796875 48.1875 
Q 26.515625 48.1875 22.3125 43.546875 
Q 18.109375 38.921875 18.109375 30.90625 
L 18.109375 0 
L 9.078125 0 
L 9.078125 54.6875 
L 18.109375 54.6875 
L 18.109375 46.1875 
Q 21.34375 51.125 25.703125 53.5625 
Q 30.078125 56 35.796875 56 
Q 45.21875 56 50.046875 50.171875 
Q 54.890625 44.34375 54.890625 33.015625 
z
" id="DejaVuSans-110"/>
       <path d="M 8.015625 75.875 
L 15.828125 75.875 
Q 23.140625 64.359375 26.78125 53.3125 
Q 30.421875 42.28125 30.421875 31.390625 
Q 30.421875 20.453125 26.78125 9.375 
Q 23.140625 -1.703125 15.828125 -13.1875 
L 8.015625 -13.1875 
Q 14.5 -2 17.703125 9.0625 
Q 20.90625 20.125 20.90625 31.390625 
Q 20.90625 42.671875 17.703125 53.65625 
Q 14.5 64.65625 8.015625 75.875 
z
" id="DejaVuSans-41"/>
      </defs>
      <use xlink:href="#DejaVuSans-108"/>
      <use x="27.783203" xlink:href="#DejaVuSans-111"/>
      <use x="88.964844" xlink:href="#DejaVuSans-103"/>
      <use x="152.441406" xlink:href="#DejaVuSans-49"/>
      <use x="216.064453" xlink:href="#DejaVuSans-48"/>
      <use x="279.6875" xlink:href="#DejaVuSans-40"/>
      <use x="318.701172" xlink:href="#DejaVuSans-101"/>
      <use x="380.224609" xlink:href="#DejaVuSans-118"/>
      <use x="439.404297" xlink:href="#DejaVuSans-97"/>
      <use x="500.683594" xlink:href="#DejaVuSans-108"/>
      <use x="528.466797" xlink:href="#DejaVuSans-115"/>
      <use x="580.566406" xlink:href="#DejaVuSans-32"/>
      <use x="612.353516" xlink:href="#DejaVuSans-47"/>
      <use x="646.044922" xlink:href="#DejaVuSans-32"/>
      <use x="677.832031" xlink:href="#DejaVuSans-100"/>
      <use x="741.308594" xlink:href="#DejaVuSans-105"/>
      <use x="769.091797" xlink:href="#DejaVuSans-109"/>
      <use x="866.503906" xlink:href="#DejaVuSans-101"/>
      <use x="928.027344" xlink:href="#DejaVuSans-110"/>
      <use x="991.40625" xlink:href="#DejaVuSans-115"/>
      <use x="1043.505859" xlink:href="#DejaVuSans-105"/>
      <use x="1071.289062" xlink:href="#DejaVuSans-111"/>
      <use x="1132.470703" xlink:href="#DejaVuSans-110"/>
      <use x="1195.849609" xlink:href="#DejaVuSans-41"/>
     </g>
    </g>
   </g>
   <g id="matplotlib.axis_2">
    <g id="ytick_1">
     <g id="line2d_17">
      <path clip-path="url(#p638be69588)" d="M 57.6 298.944 
L 360.8064 298.944 
" style="fill:none;stroke:#b0b0b0;stroke-linecap:square;stroke-width:0.8;"/>
     </g>
     <g id="line2d_18">
      <defs>
       <path d="M 0 0 
L -3.5 0 
" id="meb91019bda" style="stroke:#000000;stroke-width:0.8;"/>
      </defs>
      <g>
       <use style="stroke:#000000;stroke-width:0.8;" x="57.6" xlink:href="#meb91019bda" y="298.944"/>
      </g>
     </g>
     <g id="text_6">
      <!-- 0.0 -->
      <g transform="translate(25.155 305.02275)scale(0.16 -0.16)">
       <defs>
        <path d="M 10.6875 12.40625 
L 21 12.40625 
L 21 0 
L 10.6875 0 
z
" id="DejaVuSans-46"/>
       </defs>
       <use xlink:href="#DejaVuSans-48"/>
       <use x="63.623047" xlink:href="#DejaVuSans-46"/>
       <use x="95.410156" xlink:href="#DejaVuSans-48"/>
      </g>
     </g>
    </g>
    <g id="ytick_2">
     <g id="line2d_19">
      <path clip-path="url(#p638be69588)" d="M 57.6 240.5376 
L 360.8064 240.5376 
" style="fill:none;stroke:#b0b0b0;stroke-linecap:square;stroke-width:0.8;"/>
     </g>
     <g id="line2d_20">
      <g>
       <use style="stroke:#000000;stroke-width:0.8;" x="57.6" xlink:href="#meb91019bda" y="240.5376"/>
      </g>
     </g>
     <g id="text_7">
      <!-- 0.2 -->
      <g transform="translate(25.155 246.61635)scale(0.16 -0.16)">
       <use xlink:href="#DejaVuSans-48"/>
       <use x="63.623047" xlink:href="#DejaVuSans-46"/>
       <use x="95.410156" xlink:href="#DejaVuSans-50"/>
      </g>
     </g>
    </g>
    <g id="ytick_3">
     <g id="line2d_21">
      <path clip-path="url(#p638be69588)" d="M 57.6 182.1312 
L 360.8064 182.1312 
" style="fill:none;stroke:#b0b0b0;stroke-linecap:square;stroke-width:0.8;"/>
     </g>
     <g id="line2d_22">
      <g>
       <use style="stroke:#000000;stroke-width:0.8;" x="57.6" xlink:href="#meb91019bda" y="182.1312"/>
      </g>
     </g>
     <g id="text_8">
      <!-- 0.4 -->
      <g transform="translate(25.155 188.20995)scale(0.16 -0.16)">
       <use xlink:href="#DejaVuSans-48"/>
       <use x="63.623047" xlink:href="#DejaVuSans-46"/>
       <use x="95.410156" xlink:href="#DejaVuSans-52"/>
      </g>
     </g>
    </g>
    <g id="ytick_4">
     <g id="line2d_23">
      <path clip-path="url(#p638be69588)" d="M 57.6 123.7248 
L 360.8064 123.7248 
" style="fill:none;stroke:#b0b0b0;stroke-linecap:square;stroke-width:0.8;"/>
     </g>
     <g id="line2d_24">
      <g>
       <use style="stroke:#000000;stroke-width:0.8;" x="57.6" xlink:href="#meb91019bda" y="123.7248"/>
      </g>
     </g>
     <g id="text_9">
      <!-- 0.6 -->
      <g transform="translate(25.155 129.80355)scale(0.16 -0.16)">
       <use xlink:href="#DejaVuSans-48"/>
       <use x="63.623047" xlink:href="#DejaVuSans-46"/>
       <use x="95.410156" xlink:href="#DejaVuSans-54"/>
      </g>
     </g>
    </g>
    <g id="ytick_5">
     <g id="line2d_25">
      <path clip-path="url(#p638be69588)" d="M 57.6 65.3184 
L 360.8064 65.3184 
" style="fill:none;stroke:#b0b0b0;stroke-linecap:square;stroke-width:0.8;"/>
     </g>
     <g id="line2d_26">
      <g>
       <use style="stroke:#000000;stroke-width:0.8;" x="57.6" xlink:href="#meb91019bda" y="65.3184"/>
      </g>
     </g>
     <g id="text_10">
      <!-- 0.8 -->
      <g transform="translate(25.155 71.39715)scale(0.16 -0.16)">
       <defs>
        <path d="M 31.78125 34.625 
Q 24.75 34.625 20.71875 30.859375 
Q 16.703125 27.09375 16.703125 20.515625 
Q 16.703125 13.921875 20.71875 10.15625 
Q 24.75 6.390625 31.78125 6.390625 
Q 38.8125 6.390625 42.859375 10.171875 
Q 46.921875 13.96875 46.921875 20.515625 
Q 46.921875 27.09375 42.890625 30.859375 
Q 38.875 34.625 31.78125 34.625 
z
M 21.921875 38.8125 
Q 15.578125 40.375 12.03125 44.71875 
Q 8.5 49.078125 8.5 55.328125 
Q 8.5 64.0625 14.71875 69.140625 
Q 20.953125 74.21875 31.78125 74.21875 
Q 42.671875 74.21875 48.875 69.140625 
Q 55.078125 64.0625 55.078125 55.328125 
Q 55.078125 49.078125 51.53125 44.71875 
Q 48 40.375 41.703125 38.8125 
Q 48.828125 37.15625 52.796875 32.3125 
Q 56.78125 27.484375 56.78125 20.515625 
Q 56.78125 9.90625 50.3125 4.234375 
Q 43.84375 -1.421875 31.78125 -1.421875 
Q 19.734375 -1.421875 13.25 4.234375 
Q 6.78125 9.90625 6.78125 20.515625 
Q 6.78125 27.484375 10.78125 32.3125 
Q 14.796875 37.15625 21.921875 38.8125 
z
M 18.3125 54.390625 
Q 18.3125 48.734375 21.84375 45.5625 
Q 25.390625 42.390625 31.78125 42.390625 
Q 38.140625 42.390625 41.71875 45.5625 
Q 45.3125 48.734375 45.3125 54.390625 
Q 45.3125 60.0625 41.71875 63.234375 
Q 38.140625 66.40625 31.78125 66.40625 
Q 25.390625 66.40625 21.84375 63.234375 
Q 18.3125 60.0625 18.3125 54.390625 
z
" id="DejaVuSans-56"/>
       </defs>
       <use xlink:href="#DejaVuSans-48"/>
       <use x="63.623047" xlink:href="#DejaVuSans-46"/>
       <use x="95.410156" xlink:href="#DejaVuSans-56"/>
      </g>
     </g>
    </g>
    <g id="ytick_6">
     <g id="line2d_27">
      <path clip-path="url(#p638be69588)" d="M 57.6 6.912 
L 360.8064 6.912 
" style="fill:none;stroke:#b0b0b0;stroke-linecap:square;stroke-width:0.8;"/>
     </g>
     <g id="line2d_28">
      <g>
       <use style="stroke:#000000;stroke-width:0.8;" x="57.6" xlink:href="#meb91019bda" y="6.912"/>
      </g>
     </g>
     <g id="text_11">
      <!-- 1.0 -->
      <g transform="translate(25.155 12.99075)scale(0.16 -0.16)">
       <use xlink:href="#DejaVuSans-49"/>
       <use x="63.623047" xlink:href="#DejaVuSans-46"/>
       <use x="95.410156" xlink:href="#DejaVuSans-48"/>
      </g>
     </g>
    </g>
    <g id="text_12">
     <!-- Fraction of function,target pairs -->
     <g transform="translate(17.619531 287.313)rotate(-90)scale(0.17 -0.17)">
      <defs>
       <path d="M 9.8125 72.90625 
L 51.703125 72.90625 
L 51.703125 64.59375 
L 19.671875 64.59375 
L 19.671875 43.109375 
L 48.578125 43.109375 
L 48.578125 34.8125 
L 19.671875 34.8125 
L 19.671875 0 
L 9.8125 0 
z
" id="DejaVuSans-70"/>
       <path d="M 41.109375 46.296875 
Q 39.59375 47.171875 37.8125 47.578125 
Q 36.03125 48 33.890625 48 
Q 26.265625 48 22.1875 43.046875 
Q 18.109375 38.09375 18.109375 28.8125 
L 18.109375 0 
L 9.078125 0 
L 9.078125 54.6875 
L 18.109375 54.6875 
L 18.109375 46.1875 
Q 20.953125 51.171875 25.484375 53.578125 
Q 30.03125 56 36.53125 56 
Q 37.453125 56 38.578125 55.875 
Q 39.703125 55.765625 41.0625 55.515625 
z
" id="DejaVuSans-114"/>
       <path d="M 48.78125 52.59375 
L 48.78125 44.1875 
Q 44.96875 46.296875 41.140625 47.34375 
Q 37.3125 48.390625 33.40625 48.390625 
Q 24.65625 48.390625 19.8125 42.84375 
Q 14.984375 37.3125 14.984375 27.296875 
Q 14.984375 17.28125 19.8125 11.734375 
Q 24.65625 6.203125 33.40625 6.203125 
Q 37.3125 6.203125 41.140625 7.25 
Q 44.96875 8.296875 48.78125 10.40625 
L 48.78125 2.09375 
Q 45.015625 0.34375 40.984375 -0.53125 
Q 36.96875 -1.421875 32.421875 -1.421875 
Q 20.0625 -1.421875 12.78125 6.34375 
Q 5.515625 14.109375 5.515625 27.296875 
Q 5.515625 40.671875 12.859375 48.328125 
Q 20.21875 56 33.015625 56 
Q 37.15625 56 41.109375 55.140625 
Q 45.0625 54.296875 48.78125 52.59375 
z
" id="DejaVuSans-99"/>
       <path d="M 18.3125 70.21875 
L 18.3125 54.6875 
L 36.8125 54.6875 
L 36.8125 47.703125 
L 18.3125 47.703125 
L 18.3125 18.015625 
Q 18.3125 11.328125 20.140625 9.421875 
Q 21.96875 7.515625 27.59375 7.515625 
L 36.8125 7.515625 
L 36.8125 0 
L 27.59375 0 
Q 17.1875 0 13.234375 3.875 
Q 9.28125 7.765625 9.28125 18.015625 
L 9.28125 47.703125 
L 2.6875 47.703125 
L 2.6875 54.6875 
L 9.28125 54.6875 
L 9.28125 70.21875 
z
" id="DejaVuSans-116"/>
       <path d="M 37.109375 75.984375 
L 37.109375 68.5 
L 28.515625 68.5 
Q 23.6875 68.5 21.796875 66.546875 
Q 19.921875 64.59375 19.921875 59.515625 
L 19.921875 54.6875 
L 34.71875 54.6875 
L 34.71875 47.703125 
L 19.921875 47.703125 
L 19.921875 0 
L 10.890625 0 
L 10.890625 47.703125 
L 2.296875 47.703125 
L 2.296875 54.6875 
L 10.890625 54.6875 
L 10.890625 58.5 
Q 10.890625 67.625 15.140625 71.796875 
Q 19.390625 75.984375 28.609375 75.984375 
z
" id="DejaVuSans-102"/>
       <path d="M 8.5 21.578125 
L 8.5 54.6875 
L 17.484375 54.6875 
L 17.484375 21.921875 
Q 17.484375 14.15625 20.5 10.265625 
Q 23.53125 6.390625 29.59375 6.390625 
Q 36.859375 6.390625 41.078125 11.03125 
Q 45.3125 15.671875 45.3125 23.6875 
L 45.3125 54.6875 
L 54.296875 54.6875 
L 54.296875 0 
L 45.3125 0 
L 45.3125 8.40625 
Q 42.046875 3.421875 37.71875 1 
Q 33.40625 -1.421875 27.6875 -1.421875 
Q 18.265625 -1.421875 13.375 4.4375 
Q 8.5 10.296875 8.5 21.578125 
z
M 31.109375 56 
z
" id="DejaVuSans-117"/>
       <path d="M 11.71875 12.40625 
L 22.015625 12.40625 
L 22.015625 4 
L 14.015625 -11.625 
L 7.71875 -11.625 
L 11.71875 4 
z
" id="DejaVuSans-44"/>
       <path d="M 18.109375 8.203125 
L 18.109375 -20.796875 
L 9.078125 -20.796875 
L 9.078125 54.6875 
L 18.109375 54.6875 
L 18.109375 46.390625 
Q 20.953125 51.265625 25.265625 53.625 
Q 29.59375 56 35.59375 56 
Q 45.5625 56 51.78125 48.09375 
Q 58.015625 40.1875 58.015625 27.296875 
Q 58.015625 14.40625 51.78125 6.484375 
Q 45.5625 -1.421875 35.59375 -1.421875 
Q 29.59375 -1.421875 25.265625 0.953125 
Q 20.953125 3.328125 18.109375 8.203125 
z
M 48.6875 27.296875 
Q 48.6875 37.203125 44.609375 42.84375 
Q 40.53125 48.484375 33.40625 48.484375 
Q 26.265625 48.484375 22.1875 42.84375 
Q 18.109375 37.203125 18.109375 27.296875 
Q 18.109375 17.390625 22.1875 11.75 
Q 26.265625 6.109375 33.40625 6.109375 
Q 40.53125 6.109375 44.609375 11.75 
Q 48.6875 17.390625 48.6875 27.296875 
z
" id="DejaVuSans-112"/>
      </defs>
      <use xlink:href="#DejaVuSans-70"/>
      <use x="50.269531" xlink:href="#DejaVuSans-114"/>
      <use x="91.382812" xlink:href="#DejaVuSans-97"/>
      <use x="152.662109" xlink:href="#DejaVuSans-99"/>
      <use x="207.642578" xlink:href="#DejaVuSans-116"/>
      <use x="246.851562" xlink:href="#DejaVuSans-105"/>
      <use x="274.634766" xlink:href="#DejaVuSans-111"/>
      <use x="335.816406" xlink:href="#DejaVuSans-110"/>
      <use x="399.195312" xlink:href="#DejaVuSans-32"/>
      <use x="430.982422" xlink:href="#DejaVuSans-111"/>
      <use x="492.164062" xlink:href="#DejaVuSans-102"/>
      <use x="527.369141" xlink:href="#DejaVuSans-32"/>
      <use x="559.15625" xlink:href="#DejaVuSans-102"/>
      <use x="594.361328" xlink:href="#DejaVuSans-117"/>
      <use x="657.740234" xlink:href="#DejaVuSans-110"/>
      <use x="721.119141" xlink:href="#DejaVuSans-99"/>
      <use x="776.099609" xlink:href="#DejaVuSans-116"/>
      <use x="815.308594" xlink:href="#DejaVuSans-105"/>
      <use x="843.091797" xlink:href="#DejaVuSans-111"/>
      <use x="904.273438" xlink:href="#DejaVuSans-110"/>
      <use x="967.652344" xlink:href="#DejaVuSans-44"/>
      <use x="999.439453" xlink:href="#DejaVuSans-116"/>
      <use x="1038.648438" xlink:href="#DejaVuSans-97"/>
      <use x="1099.927734" xlink:href="#DejaVuSans-114"/>
      <use x="1139.291016" xlink:href="#DejaVuSans-103"/>
      <use x="1202.767578" xlink:href="#DejaVuSans-101"/>
      <use x="1264.291016" xlink:href="#DejaVuSans-116"/>
      <use x="1303.5" xlink:href="#DejaVuSans-32"/>
      <use x="1335.287109" xlink:href="#DejaVuSans-112"/>
      <use x="1398.763672" xlink:href="#DejaVuSans-97"/>
      <use x="1460.042969" xlink:href="#DejaVuSans-105"/>
      <use x="1487.826172" xlink:href="#DejaVuSans-114"/>
      <use x="1528.939453" xlink:href="#DejaVuSans-115"/>
     </g>
    </g>
   </g>
   <g id="line2d_29">
    <defs>
     <path d="M 0 1.5 
C 0.397805 1.5 0.77937 1.341951 1.06066 1.06066 
C 1.341951 0.77937 1.5 0.397805 1.5 0 
C 1.5 -0.397805 1.341951 -0.77937 1.06066 -1.06066 
C 0.77937 -1.341951 0.397805 -1.5 0 -1.5 
C -0.397805 -1.5 -0.77937 -1.341951 -1.06066 -1.06066 
C -1.341951 -0.77937 -1.5 -0.397805 -1.5 0 
C -1.5 0.397805 -1.341951 0.77937 -1.06066 1.06066 
C -0.77937 1.341951 -0.397805 1.5 0 1.5 
z
" id="m3520683ba7" style="stroke:#000080;"/>
    </defs>
    <g>
     <use style="fill:#000080;stroke:#000080;" x="311.523708" xlink:href="#m3520683ba7" y="28.280195"/>
     <use style="fill:#000080;stroke:#000080;" x="311.523708" xlink:href="#m3520683ba7" y="28.280195"/>
    </g>
   </g>
   <g id="line2d_30">
    <path d="M 100.9152 298.944 
L 100.9152 298.706576 
L 103.047088 298.706576 
L 103.047088 298.469151 
L 104.961779 298.469151 
L 104.961779 297.994302 
L 106.699465 297.994302 
L 106.699465 297.519454 
L 108.29012 297.519454 
L 108.29012 297.044605 
L 108.791791 297.044605 
L 108.791791 296.80718 
L 109.280431 296.80718 
L 109.280431 296.569756 
L 110.674517 296.569756 
L 110.674517 296.094907 
L 111.54963 296.094907 
L 111.54963 295.857483 
L 113.186449 295.857483 
L 113.186449 295.620059 
L 114.326893 295.620059 
L 114.326893 295.382634 
L 116.746385 295.382634 
L 116.746385 295.14521 
L 120.013265 295.14521 
L 120.013265 294.907785 
L 122.559246 294.907785 
L 122.559246 294.670361 
L 144.342932 294.670361 
L 144.342932 294.432937 
L 144.786447 294.432937 
L 144.786447 294.195512 
L 145.148219 294.195512 
L 145.148219 293.958088 
L 145.920443 293.958088 
L 145.920443 293.720663 
L 146.057504 293.720663 
L 146.125662 293.245815 
L 146.193574 293.245815 
L 146.261241 292.770966 
L 146.859539 292.770966 
L 146.859539 292.533541 
L 150.747146 292.533541 
L 150.747146 292.296117 
L 155.516105 292.296117 
L 155.516105 292.058693 
L 156.363979 292.058693 
L 156.403417 291.34642 
L 156.638319 291.34642 
L 156.638319 291.108995 
L 164.102932 291.108995 
L 164.102932 290.871571 
L 164.401432 290.871571 
L 164.401432 290.634146 
L 164.657201 290.634146 
L 164.657201 290.396722 
L 165.009535 290.396722 
L 165.009535 290.159298 
L 165.195605 290.159298 
L 165.195605 289.921873 
L 166.724107 289.921873 
L 166.724107 289.684449 
L 168.420577 289.684449 
L 168.52428 289.2096 
L 168.729985 289.2096 
L 168.729985 288.972176 
L 169.004166 288.972176 
L 169.004166 288.734751 
L 171.073664 288.734751 
L 171.073664 288.497327 
L 173.068298 288.497327 
L 173.165515 287.785054 
L 173.213936 287.785054 
L 173.213936 287.547629 
L 173.374446 287.547629 
L 173.438268 287.07278 
L 174.483838 287.07278 
L 174.559024 286.597932 
L 174.723384 286.597932 
L 174.723384 286.360507 
L 177.721762 286.360507 
L 177.721762 286.123083 
L 178.752198 286.123083 
L 178.848023 285.173385 
L 179.144367 285.173385 
L 179.144367 284.935961 
L 179.689164 284.935961 
L 179.689164 284.698537 
L 184.166946 284.698537 
L 184.202932 284.223688 
L 186.160194 284.223688 
L 186.224881 283.748839 
L 186.659734 283.748839 
L 186.659734 283.511415 
L 187.230707 283.511415 
L 187.230707 283.27399 
L 187.345133 283.27399 
L 187.345133 283.036566 
L 187.458867 283.036566 
L 187.458867 282.799141 
L 188.857002 282.799141 
L 188.857002 282.561717 
L 190.056592 282.561717 
L 190.056592 282.324293 
L 190.246576 282.324293 
L 190.246576 282.086868 
L 190.748248 282.086868 
L 190.748248 281.849444 
L 192.676855 281.849444 
L 192.73405 280.899746 
L 192.819518 280.899746 
L 192.847922 280.187473 
L 193.607217 280.187473 
L 193.672525 279.4752 
L 193.818646 279.4752 
L 193.818646 279.237776 
L 196.532325 279.237776 
L 196.639355 277.100956 
L 196.671809 277.100956 
L 196.773443 275.201561 
L 196.78726 275.201561 
L 196.892853 273.302166 
L 196.911156 273.302166 
L 196.911156 273.064741 
L 197.029698 273.064741 
L 197.056948 272.589893 
L 197.295957 272.589893 
L 197.295957 272.352468 
L 197.447699 272.352468 
L 197.447699 272.115044 
L 197.655466 272.115044 
L 197.655466 271.87762 
L 199.097849 271.87762 
L 199.150708 271.402771 
L 202.880548 271.402771 
L 202.880548 271.165346 
L 204.868037 271.165346 
L 204.868037 270.927922 
L 205.950847 270.927922 
L 205.950847 270.690498 
L 206.640939 270.690498 
L 206.746981 266.179434 
L 206.755113 266.179434 
L 206.844338 264.992312 
L 206.911652 264.992312 
L 206.986759 264.517463 
L 207.106841 264.517463 
L 207.212942 261.668371 
L 207.220875 261.668371 
L 207.310555 258.107005 
L 207.342105 258.107005 
L 207.418132 257.394732 
L 207.613342 257.394732 
L 207.613342 257.157307 
L 207.747508 257.157307 
L 207.798857 256.682459 
L 207.939347 256.682459 
L 208.009201 256.20761 
L 208.37702 256.20761 
L 208.39069 255.732761 
L 208.547799 255.732761 
L 208.547799 255.495337 
L 208.795017 255.495337 
L 208.795017 255.257912 
L 209.244334 255.257912 
L 209.244334 255.020488 
L 209.699399 255.020488 
L 209.77226 254.308215 
L 209.819527 254.308215 
L 209.819527 254.07079 
L 209.93546 254.07079 
L 210.044996 250.034576 
L 210.051821 250.034576 
L 210.15616 246.47321 
L 210.221642 246.47321 
L 210.221642 246.235785 
L 210.561182 246.235785 
L 210.561182 245.998361 
L 211.534001 245.998361 
L 211.534001 245.760937 
L 212.372721 245.760937 
L 212.409879 245.286088 
L 215.672513 245.286088 
L 215.672513 245.048663 
L 216.265352 245.048663 
L 216.307807 244.573815 
L 216.680853 244.573815 
L 216.733547 244.098966 
L 217.201261 244.098966 
L 217.201261 243.861541 
L 217.900469 243.861541 
L 217.900469 243.624117 
L 218.595569 243.624117 
L 218.69927 237.688507 
L 218.709322 237.688507 
L 218.709322 237.451083 
L 218.978704 237.451083 
L 218.978704 237.213659 
L 219.263808 237.213659 
L 219.263808 236.976234 
L 219.484136 236.976234 
L 219.484136 236.73881 
L 220.879009 236.73881 
L 220.984882 230.565776 
L 221.006494 230.565776 
L 221.102808 229.378654 
L 221.211203 229.378654 
L 221.211203 229.141229 
L 221.350191 229.141229 
L 221.441662 227.716683 
L 221.787933 227.716683 
L 221.787933 227.479259 
L 222.01569 227.479259 
L 222.01569 227.241834 
L 228.537538 227.241834 
L 228.55796 226.766985 
L 231.897917 226.766985 
L 231.929579 226.054712 
L 232.057814 226.054712 
L 232.057814 225.817288 
L 232.247494 225.817288 
L 232.247494 225.579863 
L 232.659204 225.579863 
L 232.659204 225.342439 
L 233.390548 225.342439 
L 233.390548 225.105015 
L 233.54058 225.105015 
L 233.54058 224.86759 
L 233.657027 224.86759 
L 233.759539 223.917893 
L 233.7705 223.917893 
L 233.876885 222.493346 
L 233.951094 222.493346 
L 234.057735 221.306224 
L 234.120797 221.306224 
L 234.225854 220.119102 
L 234.274555 220.119102 
L 234.302775 219.406829 
L 235.513437 219.406829 
L 235.623288 215.608039 
L 235.636427 215.608039 
L 235.744984 210.859551 
L 235.756878 210.859551 
L 235.856091 209.435005 
L 235.893846 209.435005 
L 236.002649 207.298185 
L 236.100293 207.298185 
L 236.196299 206.585912 
L 236.237901 206.585912 
L 236.341646 201.837424 
L 236.355417 201.837424 
L 236.438389 198.513483 
L 236.509856 198.513483 
L 236.603523 197.326361 
L 236.62569 197.326361 
L 236.643405 196.139239 
L 237.993172 196.139239 
L 238.011189 195.426966 
L 238.537075 195.426966 
L 238.537075 195.189541 
L 238.812981 195.189541 
L 238.845248 194.477268 
L 238.930453 194.477268 
L 239.041353 192.577873 
L 239.124949 192.577873 
L 239.229648 191.390751 
L 239.238567 191.390751 
L 239.310493 190.915902 
L 239.610367 190.915902 
L 239.672646 189.016507 
L 239.731903 189.016507 
L 239.842391 185.92999 
L 239.845659 185.92999 
L 239.950842 184.742868 
L 239.958035 184.742868 
L 240.065362 183.318322 
L 240.077352 183.318322 
L 240.077352 183.080898 
L 244.478655 183.080898 
L 244.478655 182.843473 
L 244.640128 182.843473 
L 244.640128 182.606049 
L 245.273908 182.606049 
L 245.273908 182.368624 
L 245.444501 182.368624 
L 245.477223 181.893776 
L 245.6206 181.893776 
L 245.726908 180.469229 
L 245.739365 180.469229 
L 245.838219 179.756956 
L 245.871451 179.756956 
L 245.93318 179.044683 
L 246.389226 179.044683 
L 246.496369 175.008468 
L 246.510293 175.008468 
L 246.616262 171.684527 
L 246.628307 171.684527 
L 246.724715 169.785132 
L 246.749952 169.785132 
L 246.853619 167.173463 
L 246.868406 167.173463 
L 246.975737 164.324371 
L 246.990747 164.324371 
L 247.0931 162.6624 
L 247.862777 162.6624 
L 247.887751 162.187551 
L 248.310741 162.187551 
L 248.404102 160.763005 
L 248.506871 160.763005 
L 248.611718 160.288156 
L 248.698646 160.288156 
L 248.785029 159.101034 
L 248.844857 159.101034 
L 248.931581 158.151337 
L 248.992524 158.151337 
L 249.072427 156.251941 
L 249.124226 156.251941 
L 249.218751 154.827395 
L 249.241706 154.827395 
L 249.253314 154.352546 
L 252.590256 154.352546 
L 252.590256 154.115122 
L 252.753578 154.115122 
L 252.838103 153.402849 
L 252.912349 153.402849 
L 252.961336 152.453151 
L 253.027341 152.453151 
L 253.027341 152.215727 
L 253.230509 152.215727 
L 253.340276 148.891785 
L 253.347677 148.891785 
L 253.445442 145.567844 
L 253.491028 145.567844 
L 253.600638 142.243902 
L 253.615907 142.243902 
L 253.716869 139.157385 
L 253.740743 139.157385 
L 253.818514 137.732839 
L 253.886784 137.732839 
L 253.910333 137.020566 
L 254.678784 137.020566 
L 254.787505 136.545717 
L 254.79594 136.545717 
L 254.880708 135.358595 
L 254.958617 135.358595 
L 254.958617 135.121171 
L 255.072387 135.121171 
L 255.182891 134.408898 
L 255.186402 134.408898 
L 255.233422 133.221776 
L 255.363147 133.221776 
L 255.418601 132.509502 
L 257.940538 132.509502 
L 258.031107 131.797229 
L 258.118415 131.797229 
L 258.218944 130.610107 
L 258.25292 130.610107 
L 258.353782 128.710712 
L 258.364423 128.710712 
L 258.458011 127.286166 
L 258.480122 127.286166 
L 258.588826 121.58798 
L 258.609751 121.58798 
L 258.665782 119.688585 
L 258.738322 119.688585 
L 258.781184 119.213737 
L 259.393182 119.213737 
L 259.493055 118.738888 
L 259.525955 118.738888 
L 259.615666 118.264039 
L 259.654704 118.264039 
L 259.754659 116.839493 
L 259.794865 116.839493 
L 259.894964 115.652371 
L 261.804097 115.652371 
L 261.870504 115.177522 
L 262.08801 115.177522 
L 262.162118 114.227824 
L 262.230824 114.227824 
L 262.317876 111.85358 
L 262.343581 111.85358 
L 262.446895 108.292215 
L 262.458121 108.292215 
L 262.563529 104.493424 
L 262.749883 104.493424 
L 262.749883 104.256 
L 263.2256 104.256 
L 263.313741 103.068878 
L 263.438526 103.068878 
L 263.545813 102.11918 
L 263.607214 102.11918 
L 263.642945 101.169483 
L 265.381157 101.169483 
L 265.481947 100.45721 
L 265.531813 100.45721 
L 265.642463 96.420995 
L 265.64874 96.420995 
L 265.750524 92.147356 
L 265.765415 92.147356 
L 265.834828 90.72281 
L 266.335096 90.72281 
L 266.389299 90.247961 
L 266.504086 90.247961 
L 266.612835 88.823415 
L 266.674208 88.823415 
L 266.779026 87.636293 
L 266.793403 87.636293 
L 266.840859 87.161444 
L 268.1907 87.161444 
L 268.235588 85.974322 
L 268.320115 85.974322 
L 268.421948 83.837502 
L 268.434511 83.837502 
L 268.50661 81.938107 
L 268.55831 81.938107 
L 268.601167 80.98841 
L 268.773933 80.98841 
L 268.773933 80.750985 
L 269.006782 80.750985 
L 269.111427 79.563863 
L 269.205597 79.563863 
L 269.305684 78.85159 
L 269.349792 78.85159 
L 269.44244 77.664468 
L 270.596865 77.664468 
L 270.696716 76.952195 
L 270.746354 76.952195 
L 270.836927 75.527649 
L 270.862565 75.527649 
L 270.955573 73.390829 
L 270.978018 73.390829 
L 271.028254 72.91598 
L 271.098971 72.91598 
L 271.098971 72.678556 
L 271.337169 72.678556 
L 271.429825 71.966283 
L 271.470835 71.966283 
L 271.551247 71.25401 
L 271.587375 71.25401 
L 271.629681 70.541737 
L 271.789631 70.541737 
L 271.789631 70.304312 
L 272.848176 70.304312 
L 272.956712 69.11719 
L 272.959763 69.11719 
L 273.060196 67.217795 
L 273.080425 67.217795 
L 273.163986 66.505522 
L 273.350887 66.505522 
L 273.351477 66.030673 
L 273.58035 66.030673 
L 273.646445 65.555824 
L 273.784435 65.555824 
L 273.784435 65.3184 
L 274.870522 65.3184 
L 274.953193 62.944156 
L 274.98461 62.944156 
L 275.062153 61.282185 
L 275.195591 61.282185 
L 275.197694 60.807337 
L 275.573211 60.807337 
L 275.577542 60.332488 
L 276.508801 60.332488 
L 276.570583 59.38279 
L 276.649556 59.38279 
L 276.699169 58.195668 
L 276.767151 58.195668 
L 276.810209 57.483395 
L 277.267571 57.483395 
L 277.272614 57.008546 
L 278.035723 57.008546 
L 278.104668 56.533698 
L 278.162864 56.533698 
L 278.272636 55.346576 
L 278.278354 55.346576 
L 278.369101 53.922029 
L 278.437647 53.922029 
L 278.437647 53.684605 
L 278.795733 53.684605 
L 278.876377 52.972332 
L 279.665587 52.972332 
L 279.742314 51.78521 
L 279.782432 51.78521 
L 279.818479 51.072937 
L 279.899721 51.072937 
L 279.899721 50.835512 
L 280.941236 50.835512 
L 280.941236 50.598088 
L 281.052374 50.598088 
L 281.097817 49.64839 
L 281.458006 49.64839 
L 281.458006 49.410966 
L 282.314883 49.410966 
L 282.423605 47.748995 
L 282.50618 47.748995 
L 282.50618 47.511571 
L 282.618272 47.511571 
L 282.618272 47.274146 
L 282.827343 47.274146 
L 282.83385 46.799298 
L 283.490857 46.799298 
L 283.594194 45.137327 
L 284.060778 45.137327 
L 284.060778 44.899902 
L 284.603329 44.899902 
L 284.659376 44.425054 
L 284.721851 44.425054 
L 284.813808 43.950205 
L 284.899489 43.950205 
L 284.899489 43.71278 
L 285.643529 43.71278 
L 285.749817 42.525659 
L 285.758702 42.525659 
L 285.773452 42.05081 
L 286.67056 42.05081 
L 286.731555 40.863688 
L 287.705046 40.863688 
L 287.743276 40.151415 
L 288.571053 40.151415 
L 288.612892 39.201717 
L 288.906318 39.201717 
L 288.906318 38.964293 
L 289.380826 38.964293 
L 289.465988 37.539746 
L 289.718824 37.539746 
L 289.718824 37.302322 
L 290.288238 37.302322 
L 290.29814 36.590049 
L 290.486431 36.590049 
L 290.486431 36.352624 
L 290.707277 36.352624 
L 290.707277 36.1152 
L 291.058204 36.1152 
L 291.058204 35.877776 
L 291.780072 35.877776 
L 291.802742 35.402927 
L 292.546877 35.402927 
L 292.565599 34.928078 
L 293.202992 34.928078 
L 293.263184 34.453229 
L 293.892884 34.453229 
L 293.973779 33.97838 
L 294.535462 33.97838 
L 294.535462 33.740956 
L 294.931671 33.740956 
L 294.931671 33.503532 
L 295.150559 33.503532 
L 295.150559 33.266107 
L 295.779915 33.266107 
L 295.779915 33.028683 
L 296.997398 33.028683 
L 296.997398 32.791259 
L 297.563427 32.791259 
L 297.563427 32.553834 
L 298.586472 32.553834 
L 298.65405 31.841561 
L 299.12952 31.841561 
L 299.12952 31.604137 
L 299.596268 31.604137 
L 299.619923 31.129288 
L 300.286254 31.129288 
L 300.286254 30.891863 
L 300.55159 30.891863 
L 300.55159 30.654439 
L 301.010357 30.654439 
L 301.010357 30.417015 
L 301.465841 30.417015 
L 301.465841 30.17959 
L 301.637024 30.17959 
L 301.637024 29.942166 
L 303.166869 29.942166 
L 303.166869 29.704741 
L 304.181193 29.704741 
L 304.181193 29.467317 
L 305.475707 29.467317 
L 305.475707 29.229893 
L 306.486001 29.229893 
L 306.486001 28.992468 
L 308.154836 28.992468 
L 308.154836 28.755044 
L 308.756537 28.755044 
L 308.756537 28.51762 
L 311.523708 28.51762 
L 311.523708 28.280195 
L 360.8064 28.280195 
L 360.8064 28.280195 
" style="fill:none;stroke:#000080;stroke-linecap:square;stroke-width:1.5;"/>
   </g>
   <g id="line2d_31">
    <defs>
     <path d="M 0 6 
C 1.591219 6 3.117479 5.367802 4.242641 4.242641 
C 5.367802 3.117479 6 1.591219 6 0 
C 6 -1.591219 5.367802 -3.117479 4.242641 -4.242641 
C 3.117479 -5.367802 1.591219 -6 0 -6 
C -1.591219 -6 -3.117479 -5.367802 -4.242641 -4.242641 
C -5.367802 -3.117479 -6 -1.591219 -6 0 
C -6 1.591219 -5.367802 3.117479 -4.242641 4.242641 
C -3.117479 5.367802 -1.591219 6 0 6 
z
" id="m0b63a48c55" style="stroke:#000080;stroke-width:1.5;"/>
    </defs>
    <g>
     <use style="fill-opacity:0;stroke:#000080;stroke-width:1.5;" x="166.724107" xlink:href="#m0b63a48c55" y="289.921873"/>
     <use style="fill-opacity:0;stroke:#000080;stroke-width:1.5;" x="246.797746" xlink:href="#m0b63a48c55" y="168.835434"/>
     <use style="fill-opacity:0;stroke:#000080;stroke-width:1.5;" x="284.899489" xlink:href="#m0b63a48c55" y="43.71278"/>
     <use style="fill-opacity:0;stroke:#000080;stroke-width:1.5;" x="311.523708" xlink:href="#m0b63a48c55" y="28.280195"/>
     <use style="fill-opacity:0;stroke:#000080;stroke-width:1.5;" x="360.8064" xlink:href="#m0b63a48c55" y="28.280195"/>
    </g>
   </g>
   <g id="line2d_32">
    <path style="fill:none;stroke:#000080;stroke-linecap:square;stroke-width:1.5;"/>
    <g/>
   </g>
   <g id="line2d_33">
    <path clip-path="url(#p638be69588)" d="M 231.046491 226.766985 
" style="fill:none;stroke:#000080;stroke-linecap:square;stroke-width:1.5;"/>
    <defs>
     <path d="M -12 12 
L 12 -12 
M -12 -12 
L 12 12 
" id="m4058f13ecf" style="stroke:#000080;"/>
    </defs>
    <g clip-path="url(#p638be69588)">
     <use style="fill:#000080;stroke:#000080;" x="231.046491" xlink:href="#m4058f13ecf" y="226.766985"/>
    </g>
   </g>
   <g id="line2d_34">
    <defs>
     <path d="M 0 1.5 
C 0.397805 1.5 0.77937 1.341951 1.06066 1.06066 
C 1.341951 0.77937 1.5 0.397805 1.5 0 
C 1.5 -0.397805 1.341951 -0.77937 1.06066 -1.06066 
C 0.77937 -1.341951 0.397805 -1.5 0 -1.5 
C -0.397805 -1.5 -0.77937 -1.341951 -1.06066 -1.06066 
C -1.341951 -0.77937 -1.5 -0.397805 -1.5 0 
C -1.5 0.397805 -1.341951 0.77937 -1.06066 1.06066 
C -0.77937 1.341951 -0.397805 1.5 0 1.5 
z
" id="ma23cfabc23" style="stroke:#ff00ff;"/>
    </defs>
    <g>
     <use style="fill:#ff00ff;stroke:#ff00ff;" x="315.279677" xlink:href="#ma23cfabc23" y="6.912"/>
     <use style="fill:#ff00ff;stroke:#ff00ff;" x="315.279677" xlink:href="#ma23cfabc23" y="6.912"/>
    </g>
   </g>
   <g id="line2d_35">
    <path d="M 121.830966 298.944 
L 121.830966 298.706576 
L 125.219419 298.706576 
L 125.219419 298.469151 
L 139.604629 298.469151 
L 139.604629 298.231727 
L 146.761135 298.231727 
L 146.761135 297.756878 
L 147.248088 297.756878 
L 147.248088 297.519454 
L 149.566749 297.519454 
L 149.566749 297.282029 
L 156.462418 297.282029 
L 156.462418 297.044605 
L 156.715973 297.044605 
L 156.715973 296.332332 
L 156.966156 296.332332 
L 156.966156 295.857483 
L 157.213055 295.857483 
L 157.213055 295.382634 
L 157.734081 295.382634 
L 157.734081 294.907785 
L 158.241064 294.907785 
L 158.241064 294.670361 
L 158.507144 294.670361 
L 158.507144 293.245815 
L 158.993977 293.245815 
L 158.993977 292.058693 
L 162.17609 292.058693 
L 162.277267 291.108995 
L 162.942856 291.108995 
L 162.942856 290.871571 
L 164.207296 290.871571 
L 164.207296 290.634146 
L 164.593584 290.634146 
L 164.593584 289.921873 
L 164.972099 289.921873 
L 164.972099 289.684449 
L 165.707018 289.684449 
L 165.707018 289.447024 
L 167.350843 289.447024 
L 167.350843 289.2096 
L 167.634879 289.2096 
L 167.634879 288.972176 
L 170.736514 288.972176 
L 170.736514 288.734751 
L 170.855662 288.734751 
L 170.855662 287.785054 
L 178.284089 287.785054 
L 178.284089 287.547629 
L 179.103159 287.547629 
L 179.179617 287.07278 
L 182.243892 287.07278 
L 182.243892 286.835356 
L 182.383017 286.835356 
L 182.383017 286.597932 
L 182.550582 286.597932 
L 182.550582 286.360507 
L 183.310263 286.360507 
L 183.380815 285.885659 
L 183.58161 285.885659 
L 183.660407 284.698537 
L 183.720442 284.698537 
L 183.720442 284.461112 
L 184.063102 284.461112 
L 184.072155 283.986263 
L 184.323878 283.986263 
L 184.323878 283.748839 
L 184.448488 283.748839 
L 184.523743 282.324293 
L 184.64704 282.324293 
L 184.64704 281.849444 
L 185.30686 281.849444 
L 185.30686 281.374595 
L 185.504989 281.374595 
L 185.504989 280.662322 
L 186.131824 280.662322 
L 186.131824 278.288078 
L 186.663677 278.288078 
L 186.691257 277.575805 
L 186.840276 277.575805 
L 186.840276 277.33838 
L 187.127126 277.33838 
L 187.130972 276.388683 
L 188.010106 276.388683 
L 188.010106 276.151259 
L 188.218173 276.151259 
L 188.247192 275.67641 
L 188.913062 275.67641 
L 188.913062 275.438985 
L 191.131465 275.438985 
L 191.131465 274.964137 
L 191.418434 274.964137 
L 191.467367 274.489288 
L 192.133491 274.489288 
L 192.17766 273.53959 
L 192.28032 273.53959 
L 192.324146 273.064741 
L 192.39987 273.064741 
L 192.39987 272.827317 
L 192.512887 272.827317 
L 192.512887 272.589893 
L 192.67399 272.589893 
L 192.67399 272.352468 
L 193.163144 272.352468 
L 193.163144 272.115044 
L 194.900172 272.115044 
L 194.900172 271.87762 
L 195.042147 271.87762 
L 195.042147 271.640195 
L 196.478581 271.640195 
L 196.539324 270.690498 
L 196.768835 270.690498 
L 196.768835 270.453073 
L 199.629766 270.453073 
L 199.629766 270.215649 
L 199.787433 270.215649 
L 199.787433 269.978224 
L 203.397855 269.978224 
L 203.415665 269.503376 
L 203.518955 269.503376 
L 203.518955 269.265951 
L 207.122795 269.265951 
L 207.122795 269.028527 
L 207.343418 269.028527 
L 207.360484 268.553678 
L 208.343425 268.553678 
L 208.442793 268.078829 
L 209.374469 268.078829 
L 209.435676 267.366556 
L 209.825283 267.366556 
L 209.825283 267.129132 
L 210.265546 267.129132 
L 210.265546 266.891707 
L 212.509941 266.891707 
L 212.509941 266.654283 
L 213.410168 266.654283 
L 213.506008 266.179434 
L 213.555161 266.179434 
L 213.555161 265.94201 
L 214.768818 265.94201 
L 214.768818 265.704585 
L 216.429739 265.704585 
L 216.429739 265.467161 
L 216.860679 265.467161 
L 216.94601 264.992312 
L 217.307504 264.992312 
L 217.414688 264.517463 
L 217.436206 264.517463 
L 217.507498 264.042615 
L 218.557257 264.042615 
L 218.557257 263.80519 
L 218.998506 263.80519 
L 218.998506 263.567766 
L 221.017925 263.567766 
L 221.034425 262.618068 
L 221.695685 262.618068 
L 221.806206 256.20761 
L 221.855457 256.20761 
L 221.858493 254.308215 
L 222.58499 254.308215 
L 222.592582 253.833366 
L 225.970002 253.833366 
L 226.030409 253.358517 
L 226.173346 253.358517 
L 226.173346 253.121093 
L 226.369261 253.121093 
L 226.369261 252.883668 
L 226.645715 252.883668 
L 226.645715 252.646244 
L 226.781732 252.646244 
L 226.828873 251.459122 
L 227.072491 251.459122 
L 227.160636 250.746849 
L 227.19907 250.746849 
L 227.219627 250.034576 
L 227.311176 250.034576 
L 227.414487 249.322302 
L 227.456465 249.322302 
L 227.560328 247.660332 
L 227.584973 247.660332 
L 227.671646 246.235785 
L 227.733946 246.235785 
L 227.822148 245.286088 
L 227.870726 245.286088 
L 227.97321 244.573815 
L 228.017899 244.573815 
L 228.127855 243.386693 
L 228.156981 243.386693 
L 228.246253 241.962146 
L 228.272175 241.962146 
L 228.272175 241.724722 
L 228.410682 241.724722 
L 228.410682 241.487298 
L 228.615278 241.487298 
L 228.682985 240.775024 
L 228.763914 240.775024 
L 228.818931 240.062751 
L 228.875042 240.062751 
L 228.983856 239.350478 
L 229.029943 239.350478 
L 229.129618 238.163356 
L 229.187691 238.163356 
L 229.291445 236.73881 
L 229.311473 236.73881 
L 229.371431 236.263961 
L 229.831229 236.263961 
L 229.916476 235.551688 
L 230.143754 235.551688 
L 230.143754 235.314263 
L 230.415763 235.314263 
L 230.492653 234.839415 
L 230.712736 234.839415 
L 230.726762 234.364566 
L 230.86569 234.364566 
L 230.86569 234.127141 
L 231.458807 234.127141 
L 231.458807 233.889717 
L 232.093789 233.889717 
L 232.093789 233.652293 
L 233.304181 233.652293 
L 233.304181 233.414868 
L 233.928414 233.414868 
L 233.928414 233.177444 
L 235.357079 233.177444 
L 235.357079 232.94002 
L 236.4655 232.94002 
L 236.49564 232.465171 
L 236.766394 232.465171 
L 236.790567 231.990322 
L 237.071477 231.990322 
L 237.071477 231.752898 
L 237.482618 231.752898 
L 237.482618 231.515473 
L 237.838808 231.515473 
L 237.945989 230.565776 
L 237.95399 230.565776 
L 238.052563 229.378654 
L 238.193219 229.378654 
L 238.251475 227.954107 
L 238.309297 227.954107 
L 238.383344 225.579863 
L 238.838602 225.579863 
L 238.838602 225.342439 
L 239.036725 225.342439 
L 239.107968 224.630166 
L 239.301607 224.630166 
L 239.301607 224.392741 
L 239.506821 224.392741 
L 239.609895 223.917893 
L 239.622178 223.917893 
L 239.711231 223.20562 
L 239.786292 223.20562 
L 239.825579 222.730771 
L 239.903443 222.730771 
L 240.013394 221.543649 
L 240.042514 221.543649 
L 240.127764 220.119102 
L 240.180564 220.119102 
L 240.28686 218.457132 
L 240.338761 218.457132 
L 240.447334 217.032585 
L 240.455469 217.032585 
L 240.559778 215.608039 
L 240.57707 215.608039 
L 240.687627 214.658341 
L 240.786222 214.658341 
L 240.861101 213.946068 
L 240.920482 213.946068 
L 240.96539 212.996371 
L 241.183337 212.996371 
L 241.212221 212.521522 
L 241.358996 212.521522 
L 241.359642 212.046673 
L 241.557547 212.046673 
L 241.557547 211.809249 
L 242.366165 211.809249 
L 242.467329 210.859551 
L 243.019826 210.859551 
L 243.019826 210.622127 
L 243.16807 210.622127 
L 243.16807 210.384702 
L 244.180052 210.384702 
L 244.180052 210.147278 
L 244.361728 210.147278 
L 244.361728 209.909854 
L 244.686732 209.909854 
L 244.686732 209.672429 
L 244.86521 209.672429 
L 244.86521 209.435005 
L 245.169398 209.435005 
L 245.169398 209.19758 
L 245.838559 209.19758 
L 245.843479 208.722732 
L 245.993697 208.722732 
L 246.091227 208.010459 
L 246.216716 208.010459 
L 246.27235 207.298185 
L 246.379995 207.298185 
L 246.479156 206.823337 
L 246.566862 206.823337 
L 246.609097 206.348488 
L 246.712893 206.348488 
L 246.807902 204.449093 
L 246.834638 204.449093 
L 246.847509 203.73682 
L 246.96647 203.73682 
L 247.068319 202.787122 
L 247.226607 202.787122 
L 247.299289 202.074849 
L 247.371379 202.074849 
L 247.452384 200.650302 
L 247.483974 200.650302 
L 247.551487 198.513483 
L 247.595899 198.513483 
L 247.679331 196.614088 
L 247.7394 196.614088 
L 247.776177 195.901815 
L 247.8675 195.901815 
L 247.962021 194.714693 
L 247.993372 194.714693 
L 248.03932 194.00242 
L 248.135237 194.00242 
L 248.210183 193.290146 
L 248.473857 193.290146 
L 248.484033 192.577873 
L 248.664069 192.577873 
L 248.664069 192.340449 
L 249.29756 192.340449 
L 249.29756 192.103024 
L 250.194437 192.103024 
L 250.194437 191.8656 
L 250.970313 191.8656 
L 250.970313 191.628176 
L 251.321865 191.628176 
L 251.321865 191.390751 
L 251.766291 191.390751 
L 251.833656 190.915902 
L 251.98885 190.915902 
L 251.98885 190.678478 
L 252.160728 190.678478 
L 252.243728 189.491356 
L 252.338139 189.491356 
L 252.444385 188.541659 
L 252.528643 188.541659 
L 252.603052 187.591961 
L 252.667256 187.591961 
L 252.765324 184.980293 
L 252.804972 184.980293 
L 252.906057 183.080898 
L 252.926791 183.080898 
L 252.970282 182.1312 
L 253.040422 182.1312 
L 253.12102 180.469229 
L 253.163145 180.469229 
L 253.243793 178.569834 
L 253.326263 178.569834 
L 253.381118 177.857561 
L 253.4847 177.857561 
L 253.59547 176.907863 
L 253.616356 176.907863 
L 253.616356 176.670439 
L 254.38557 176.670439 
L 254.38557 176.433015 
L 256.312659 176.433015 
L 256.408394 175.720741 
L 256.543838 175.720741 
L 256.650731 175.008468 
L 256.71433 175.008468 
L 256.815907 173.346498 
L 256.8354 173.346498 
L 256.906765 172.159376 
L 256.948552 172.159376 
L 257.012652 170.25998 
L 257.066635 170.25998 
L 257.175344 167.173463 
L 257.187601 167.173463 
L 257.284444 165.036644 
L 257.321992 165.036644 
L 257.422641 164.324371 
L 257.492913 164.324371 
L 257.555188 163.374673 
L 257.612992 163.374673 
L 257.707857 162.6624 
L 258.402488 162.6624 
L 258.402488 162.424976 
L 258.711377 162.424976 
L 258.711377 162.187551 
L 259.616074 162.187551 
L 259.699266 161.712702 
L 259.759032 161.712702 
L 259.844417 161.237854 
L 260.013075 161.237854 
L 260.084032 160.52558 
L 260.175721 160.52558 
L 260.278466 158.626185 
L 260.290119 158.626185 
L 260.384335 156.72679 
L 260.426813 156.72679 
L 260.531231 155.539668 
L 260.586246 155.539668 
L 260.678454 153.877698 
L 260.749101 153.877698 
L 260.847319 151.978302 
L 260.861374 151.978302 
L 260.941301 150.79118 
L 261.018241 150.79118 
L 261.096676 150.316332 
L 262.321479 150.316332 
L 262.358042 149.841483 
L 262.536377 149.841483 
L 262.536377 149.604059 
L 262.722514 149.604059 
L 262.722514 149.366634 
L 262.856902 149.366634 
L 262.856902 149.12921 
L 263.00022 149.12921 
L 263.09071 148.416937 
L 263.138059 148.416937 
L 263.249086 146.280117 
L 263.26233 146.280117 
L 263.283153 145.805268 
L 263.390727 145.805268 
L 263.500211 142.481327 
L 263.506249 142.481327 
L 263.591041 140.344507 
L 263.638795 140.344507 
L 263.748814 138.207688 
L 263.781727 138.207688 
L 263.845622 137.495415 
L 264.007938 137.495415 
L 264.10908 137.020566 
L 264.23612 137.020566 
L 264.252832 136.545717 
L 264.516409 136.545717 
L 264.516409 136.308293 
L 264.664331 136.308293 
L 264.664331 136.070868 
L 265.470715 136.070868 
L 265.556875 134.883746 
L 265.648207 134.883746 
L 265.736682 133.934049 
L 265.762061 133.934049 
L 265.854162 131.32238 
L 265.916772 131.32238 
L 265.989467 130.610107 
L 266.034296 130.610107 
L 266.140135 129.185561 
L 266.160829 129.185561 
L 266.26619 127.286166 
L 266.276442 127.286166 
L 266.337835 126.573893 
L 266.456055 126.573893 
L 266.456055 126.336468 
L 266.599951 126.336468 
L 266.60676 125.624195 
L 266.720232 125.624195 
L 266.758946 125.149346 
L 266.849637 125.149346 
L 266.849637 124.911922 
L 267.642926 124.911922 
L 267.74578 124.199649 
L 267.76621 124.199649 
L 267.857185 123.487376 
L 267.986659 123.487376 
L 268.067885 122.775102 
L 268.109847 122.775102 
L 268.209877 121.58798 
L 268.224751 121.58798 
L 268.317958 119.92601 
L 268.353933 119.92601 
L 268.392909 119.213737 
L 268.486664 119.213737 
L 268.583601 118.026615 
L 268.599852 118.026615 
L 268.708137 117.076917 
L 269.13141 117.076917 
L 269.13141 116.839493 
L 269.540412 116.839493 
L 269.540412 116.602068 
L 269.682598 116.602068 
L 269.72054 116.12722 
L 269.981474 116.12722 
L 270.071866 114.940098 
L 270.154932 114.940098 
L 270.242641 113.515551 
L 270.273269 113.515551 
L 270.35771 111.85358 
L 270.410731 111.85358 
L 270.410731 111.616156 
L 270.541355 111.616156 
L 270.632282 110.903883 
L 270.676698 110.903883 
L 270.770718 109.716761 
L 270.789961 109.716761 
L 270.791943 109.241912 
L 270.901874 109.241912 
L 271.009609 108.529639 
L 271.128281 108.529639 
L 271.128281 108.292215 
L 271.639499 108.292215 
L 271.738178 107.342517 
L 271.781087 107.342517 
L 271.794841 106.867668 
L 271.946666 106.867668 
L 272.055756 104.968273 
L 272.085001 104.968273 
L 272.175393 104.018576 
L 272.209675 104.018576 
L 272.313475 103.068878 
L 272.393516 103.068878 
L 272.501452 102.11918 
L 272.541137 102.11918 
L 272.583974 101.406907 
L 272.86569 101.406907 
L 272.86569 101.169483 
L 273.098083 101.169483 
L 273.098083 100.932059 
L 273.278812 100.932059 
L 273.355093 100.219785 
L 273.412581 100.219785 
L 273.523412 98.082966 
L 273.558668 98.082966 
L 273.661956 96.65842 
L 273.695063 96.65842 
L 273.727534 96.183571 
L 273.862905 96.183571 
L 273.958566 95.708722 
L 273.975951 95.708722 
L 274.047341 94.759024 
L 274.104833 94.759024 
L 274.182884 93.809327 
L 274.36523 93.809327 
L 274.467602 92.859629 
L 274.495254 92.859629 
L 274.540623 92.147356 
L 274.709204 92.147356 
L 274.709204 91.909932 
L 274.89002 91.909932 
L 274.975454 91.197659 
L 275.003306 91.197659 
L 275.110008 89.773112 
L 275.122999 89.773112 
L 275.197266 88.348566 
L 275.278765 88.348566 
L 275.334069 87.636293 
L 275.416493 87.636293 
L 275.524841 86.92402 
L 275.555493 86.92402 
L 275.629504 85.974322 
L 275.740651 85.974322 
L 275.815904 85.499473 
L 275.868863 85.499473 
L 275.917455 85.024624 
L 276.015664 85.024624 
L 276.058876 84.312351 
L 276.177673 84.312351 
L 276.186837 83.837502 
L 276.335078 83.837502 
L 276.435174 82.65038 
L 276.468843 82.65038 
L 276.545921 82.175532 
L 276.59121 82.175532 
L 276.684062 81.463259 
L 276.731154 81.463259 
L 276.773247 80.513561 
L 276.844422 80.513561 
L 276.943053 79.563863 
L 277.002553 79.563863 
L 277.108474 78.376741 
L 277.242975 78.376741 
L 277.303416 77.427044 
L 277.426093 77.427044 
L 277.533911 76.952195 
L 277.705751 76.952195 
L 277.761088 75.765073 
L 277.818153 75.765073 
L 277.825158 75.290224 
L 277.941317 75.290224 
L 278.051406 73.865678 
L 278.060345 73.865678 
L 278.140265 72.91598 
L 278.274815 72.91598 
L 278.299428 72.203707 
L 278.454857 72.203707 
L 278.544848 71.491434 
L 278.589147 71.491434 
L 278.698538 70.779161 
L 278.701318 70.779161 
L 278.810384 68.879766 
L 278.827344 68.879766 
L 278.888183 67.45522 
L 278.978811 67.45522 
L 279.088689 66.505522 
L 279.164366 66.505522 
L 279.26898 64.843551 
L 279.336046 64.843551 
L 279.439341 63.656429 
L 279.484905 63.656429 
L 279.56966 62.469307 
L 279.747071 62.469307 
L 279.767457 61.994459 
L 279.940308 61.994459 
L 280.04748 60.807337 
L 280.072412 60.807337 
L 280.125274 59.620215 
L 280.435752 59.620215 
L 280.545967 58.670517 
L 280.603158 58.670517 
L 280.673979 57.245971 
L 280.732164 57.245971 
L 280.801945 56.771122 
L 280.847074 56.771122 
L 280.912408 56.058849 
L 280.989542 56.058849 
L 281.077025 55.346576 
L 281.180342 55.346576 
L 281.216501 54.634302 
L 281.325849 54.634302 
L 281.390621 53.922029 
L 281.468733 53.922029 
L 281.567081 53.44718 
L 281.673355 53.44718 
L 281.762148 52.734907 
L 281.803729 52.734907 
L 281.910499 52.022634 
L 282.098895 52.022634 
L 282.191776 51.310361 
L 282.738629 51.310361 
L 282.755542 50.835512 
L 283.042923 50.835512 
L 283.130474 49.885815 
L 283.283508 49.885815 
L 283.30735 49.410966 
L 283.47418 49.410966 
L 283.576718 48.461268 
L 283.592301 48.461268 
L 283.699302 47.511571 
L 283.809757 47.511571 
L 283.879493 46.799298 
L 283.92546 46.799298 
L 283.92546 46.561873 
L 284.167168 46.561873 
L 284.209569 46.087024 
L 284.430931 46.087024 
L 284.523623 45.137327 
L 284.557063 45.137327 
L 284.624045 43.950205 
L 284.703543 43.950205 
L 284.742887 43.475356 
L 284.956846 43.475356 
L 284.956846 43.237932 
L 285.076413 43.237932 
L 285.10314 42.763083 
L 285.323758 42.763083 
L 285.418871 42.288234 
L 285.450117 42.288234 
L 285.55485 41.101112 
L 285.660822 41.101112 
L 285.68563 40.626263 
L 285.777453 40.626263 
L 285.777453 40.388839 
L 285.965696 40.388839 
L 285.965696 40.151415 
L 286.120298 40.151415 
L 286.120298 39.91399 
L 286.265489 39.91399 
L 286.266973 39.439141 
L 286.479652 39.439141 
L 286.553625 38.25202 
L 286.646514 38.25202 
L 286.646514 38.014595 
L 287.028601 38.014595 
L 287.115832 37.064898 
L 287.171764 37.064898 
L 287.251371 35.877776 
L 287.31654 35.877776 
L 287.31654 35.640351 
L 287.435089 35.640351 
L 287.435089 35.402927 
L 287.676634 35.402927 
L 287.73561 34.690654 
L 288.125162 34.690654 
L 288.125951 34.215805 
L 288.270423 34.215805 
L 288.270423 33.97838 
L 288.51394 33.97838 
L 288.51394 33.740956 
L 288.712299 33.740956 
L 288.795589 33.028683 
L 288.831719 33.028683 
L 288.91218 32.31641 
L 288.961619 32.31641 
L 288.961619 32.078985 
L 289.137036 32.078985 
L 289.223713 31.366712 
L 289.365295 31.366712 
L 289.389827 30.891863 
L 289.566395 30.891863 
L 289.610702 30.417015 
L 289.755017 30.417015 
L 289.755017 30.17959 
L 290.072571 30.17959 
L 290.072571 29.942166 
L 290.327259 29.942166 
L 290.339643 29.467317 
L 290.533704 29.467317 
L 290.600934 28.992468 
L 290.755993 28.992468 
L 290.755993 28.755044 
L 290.910929 28.755044 
L 290.942649 28.042771 
L 291.063035 28.042771 
L 291.063035 27.805346 
L 291.741276 27.805346 
L 291.81067 27.330498 
L 291.998622 27.330498 
L 292.037619 26.855649 
L 292.215485 26.855649 
L 292.325825 26.143376 
L 292.485582 26.143376 
L 292.485582 25.905951 
L 292.705506 25.905951 
L 292.774715 24.956254 
L 292.848383 24.956254 
L 292.893826 24.006556 
L 292.98185 24.006556 
L 292.98185 23.769132 
L 293.098877 23.769132 
L 293.098877 23.531707 
L 293.393195 23.531707 
L 293.422863 23.056859 
L 293.527492 23.056859 
L 293.625295 22.58201 
L 294.032513 22.58201 
L 294.13009 21.632312 
L 294.167526 21.632312 
L 294.197349 20.682615 
L 294.278704 20.682615 
L 294.287541 20.207766 
L 294.396782 20.207766 
L 294.40722 19.732917 
L 294.983387 19.732917 
L 295.008477 19.258068 
L 295.108812 19.258068 
L 295.208948 18.78322 
L 295.39731 18.78322 
L 295.39731 18.545795 
L 295.511266 18.545795 
L 295.567003 18.070946 
L 295.860637 18.070946 
L 295.93369 17.596098 
L 296.305472 17.596098 
L 296.392789 16.883824 
L 296.513561 16.883824 
L 296.584618 16.171551 
L 296.73918 16.171551 
L 296.819476 15.459278 
L 296.861473 15.459278 
L 296.861473 15.221854 
L 297.573767 15.221854 
L 297.654798 14.747005 
L 297.785976 14.747005 
L 297.846441 14.034732 
L 298.343744 14.034732 
L 298.437876 13.559883 
L 298.831749 13.559883 
L 298.831749 13.322459 
L 299.231264 13.322459 
L 299.238106 12.84761 
L 299.448979 12.84761 
L 299.490264 12.372761 
L 299.712048 12.372761 
L 299.712048 12.135337 
L 300.074548 12.135337 
L 300.074548 11.897912 
L 300.336788 11.897912 
L 300.408338 11.423063 
L 300.697876 11.423063 
L 300.697876 11.185639 
L 300.974616 11.185639 
L 300.974616 10.948215 
L 301.140618 10.948215 
L 301.140618 10.71079 
L 301.638291 10.71079 
L 301.638291 10.473366 
L 302.212048 10.473366 
L 302.212048 10.235941 
L 303.23159 10.235941 
L 303.23159 9.998517 
L 303.565 9.998517 
L 303.565 9.761093 
L 304.232635 9.761093 
L 304.232635 9.523668 
L 305.169334 9.523668 
L 305.169334 9.286244 
L 305.299512 9.286244 
L 305.334955 8.811395 
L 306.062258 8.811395 
L 306.062258 8.573971 
L 307.706935 8.573971 
L 307.706935 8.336546 
L 308.671084 8.336546 
L 308.671084 8.099122 
L 308.868291 8.099122 
L 308.868291 7.861698 
L 310.675144 7.861698 
L 310.675144 7.624273 
L 310.788775 7.624273 
L 310.788775 7.386849 
L 313.809745 7.386849 
L 313.809745 7.149424 
L 315.279677 7.149424 
L 315.279677 6.912 
L 360.8064 6.912 
L 360.8064 6.912 
" style="fill:none;stroke:#ff00ff;stroke-linecap:square;stroke-width:1.5;"/>
   </g>
   <g id="line2d_36">
    <defs>
     <path d="M -0 8.485281 
L 5.091169 0 
L 0 -8.485281 
L -5.091169 -0 
z
" id="m69550b0ee7" style="stroke:#ff00ff;stroke-linejoin:miter;stroke-width:1.5;"/>
    </defs>
    <g>
     <use style="fill-opacity:0;stroke:#ff00ff;stroke-linejoin:miter;stroke-width:1.5;" x="226.369261" xlink:href="#m69550b0ee7" y="252.883668"/>
     <use style="fill-opacity:0;stroke:#ff00ff;stroke-linejoin:miter;stroke-width:1.5;" x="270.296727" xlink:href="#m69550b0ee7" y="113.278127"/>
     <use style="fill-opacity:0;stroke:#ff00ff;stroke-linejoin:miter;stroke-width:1.5;" x="307.706935" xlink:href="#m69550b0ee7" y="8.573971"/>
     <use style="fill-opacity:0;stroke:#ff00ff;stroke-linejoin:miter;stroke-width:1.5;" x="315.279677" xlink:href="#m69550b0ee7" y="6.912"/>
     <use style="fill-opacity:0;stroke:#ff00ff;stroke-linejoin:miter;stroke-width:1.5;" x="360.8064" xlink:href="#m69550b0ee7" y="6.912"/>
    </g>
   </g>
   <g id="line2d_37">
    <path style="fill:none;stroke:#ff00ff;stroke-linecap:square;stroke-width:1.5;"/>
    <g/>
   </g>
   <g id="line2d_38">
    <path clip-path="url(#p638be69588)" d="M 227.176659 250.746849 
" style="fill:none;stroke:#ff00ff;stroke-linecap:square;stroke-width:1.5;"/>
    <defs>
     <path d="M -12 12 
L 12 -12 
M -12 -12 
L 12 12 
" id="mad9e3449d5" style="stroke:#ff00ff;"/>
    </defs>
    <g clip-path="url(#p638be69588)">
     <use style="fill:#ff00ff;stroke:#ff00ff;" x="227.176659" xlink:href="#mad9e3449d5" y="250.746849"/>
    </g>
   </g>
   <g id="line2d_39">
    <path d="M 360.8064 28.280195 
L 380.514816 293.10336 
" style="fill:none;stroke:#000080;stroke-linecap:square;stroke-width:1.5;"/>
    <g>
     <use style="fill-opacity:0;stroke:#000080;stroke-width:1.5;" x="360.8064" xlink:href="#m0b63a48c55" y="28.280195"/>
     <use style="fill-opacity:0;stroke:#000080;stroke-width:1.5;" x="380.514816" xlink:href="#m0b63a48c55" y="293.10336"/>
    </g>
   </g>
   <g id="line2d_40">
    <path d="M 360.8064 6.912 
L 380.514816 12.75264 
" style="fill:none;stroke:#ff00ff;stroke-linecap:square;stroke-width:1.5;"/>
    <g>
     <use style="fill-opacity:0;stroke:#ff00ff;stroke-linejoin:miter;stroke-width:1.5;" x="360.8064" xlink:href="#m69550b0ee7" y="6.912"/>
     <use style="fill-opacity:0;stroke:#ff00ff;stroke-linejoin:miter;stroke-width:1.5;" x="380.514816" xlink:href="#m69550b0ee7" y="12.75264"/>
    </g>
   </g>
   <g id="line2d_41">
    <path d="M 360.8064 298.944 
L 360.8064 6.912 
" style="fill:none;stroke:#000000;stroke-linecap:square;stroke-width:1.5;"/>
   </g>
   <g id="patch_3">
    <path d="M 57.6 298.944 
L 360.8064 298.944 
" style="fill:none;stroke:#000000;stroke-linecap:square;stroke-linejoin:miter;stroke-width:0.8;"/>
   </g>
   <g id="patch_4">
    <path d="M 57.6 6.912 
L 360.8064 6.912 
" style="fill:none;stroke:#000000;stroke-linecap:square;stroke-linejoin:miter;stroke-width:0.8;"/>
   </g>
   <g id="text_13">
    <!-- cobyla -->
    <g transform="translate(386.578944 296.966485)scale(0.14 -0.14)">
     <defs>
      <path d="M 48.6875 27.296875 
Q 48.6875 37.203125 44.609375 42.84375 
Q 40.53125 48.484375 33.40625 48.484375 
Q 26.265625 48.484375 22.1875 42.84375 
Q 18.109375 37.203125 18.109375 27.296875 
Q 18.109375 17.390625 22.1875 11.75 
Q 26.265625 6.109375 33.40625 6.109375 
Q 40.53125 6.109375 44.609375 11.75 
Q 48.6875 17.390625 48.6875 27.296875 
z
M 18.109375 46.390625 
Q 20.953125 51.265625 25.265625 53.625 
Q 29.59375 56 35.59375 56 
Q 45.5625 56 51.78125 48.09375 
Q 58.015625 40.1875 58.015625 27.296875 
Q 58.015625 14.40625 51.78125 6.484375 
Q 45.5625 -1.421875 35.59375 -1.421875 
Q 29.59375 -1.421875 25.265625 0.953125 
Q 20.953125 3.328125 18.109375 8.203125 
L 18.109375 0 
L 9.078125 0 
L 9.078125 75.984375 
L 18.109375 75.984375 
z
" id="DejaVuSans-98"/>
      <path d="M 32.171875 -5.078125 
Q 28.375 -14.84375 24.75 -17.8125 
Q 21.140625 -20.796875 15.09375 -20.796875 
L 7.90625 -20.796875 
L 7.90625 -13.28125 
L 13.1875 -13.28125 
Q 16.890625 -13.28125 18.9375 -11.515625 
Q 21 -9.765625 23.484375 -3.21875 
L 25.09375 0.875 
L 2.984375 54.6875 
L 12.5 54.6875 
L 29.59375 11.921875 
L 46.6875 54.6875 
L 56.203125 54.6875 
z
" id="DejaVuSans-121"/>
     </defs>
     <use xlink:href="#DejaVuSans-99"/>
     <use x="54.980469" xlink:href="#DejaVuSans-111"/>
     <use x="116.162109" xlink:href="#DejaVuSans-98"/>
     <use x="179.638672" xlink:href="#DejaVuSans-121"/>
     <use x="238.818359" xlink:href="#DejaVuSans-108"/>
     <use x="266.601562" xlink:href="#DejaVuSans-97"/>
    </g>
   </g>
   <g id="text_14">
    <!-- slsqp -->
    <g transform="translate(386.578944 16.615765)scale(0.14 -0.14)">
     <defs>
      <path d="M 14.796875 27.296875 
Q 14.796875 17.390625 18.875 11.75 
Q 22.953125 6.109375 30.078125 6.109375 
Q 37.203125 6.109375 41.296875 11.75 
Q 45.40625 17.390625 45.40625 27.296875 
Q 45.40625 37.203125 41.296875 42.84375 
Q 37.203125 48.484375 30.078125 48.484375 
Q 22.953125 48.484375 18.875 42.84375 
Q 14.796875 37.203125 14.796875 27.296875 
z
M 45.40625 8.203125 
Q 42.578125 3.328125 38.25 0.953125 
Q 33.9375 -1.421875 27.875 -1.421875 
Q 17.96875 -1.421875 11.734375 6.484375 
Q 5.515625 14.40625 5.515625 27.296875 
Q 5.515625 40.1875 11.734375 48.09375 
Q 17.96875 56 27.875 56 
Q 33.9375 56 38.25 53.625 
Q 42.578125 51.265625 45.40625 46.390625 
L 45.40625 54.6875 
L 54.390625 54.6875 
L 54.390625 -20.796875 
L 45.40625 -20.796875 
z
" id="DejaVuSans-113"/>
     </defs>
     <use xlink:href="#DejaVuSans-115"/>
     <use x="52.099609" xlink:href="#DejaVuSans-108"/>
     <use x="79.882812" xlink:href="#DejaVuSans-115"/>
     <use x="131.982422" xlink:href="#DejaVuSans-113"/>
     <use x="195.458984" xlink:href="#DejaVuSans-112"/>
    </g>
   </g>
   <g id="text_15">
    <!-- bbob-constrained f43, f49, 5-D -->
    <g transform="translate(60.632064 17.582726)scale(0.102 -0.102)">
     <defs>
      <path d="M 4.890625 31.390625 
L 31.203125 31.390625 
L 31.203125 23.390625 
L 4.890625 23.390625 
z
" id="DejaVuSans-45"/>
      <path d="M 40.578125 39.3125 
Q 47.65625 37.796875 51.625 33 
Q 55.609375 28.21875 55.609375 21.1875 
Q 55.609375 10.40625 48.1875 4.484375 
Q 40.765625 -1.421875 27.09375 -1.421875 
Q 22.515625 -1.421875 17.65625 -0.515625 
Q 12.796875 0.390625 7.625 2.203125 
L 7.625 11.71875 
Q 11.71875 9.328125 16.59375 8.109375 
Q 21.484375 6.890625 26.8125 6.890625 
Q 36.078125 6.890625 40.9375 10.546875 
Q 45.796875 14.203125 45.796875 21.1875 
Q 45.796875 27.640625 41.28125 31.265625 
Q 36.765625 34.90625 28.71875 34.90625 
L 20.21875 34.90625 
L 20.21875 43.015625 
L 29.109375 43.015625 
Q 36.375 43.015625 40.234375 45.921875 
Q 44.09375 48.828125 44.09375 54.296875 
Q 44.09375 59.90625 40.109375 62.90625 
Q 36.140625 65.921875 28.71875 65.921875 
Q 24.65625 65.921875 20.015625 65.03125 
Q 15.375 64.15625 9.8125 62.3125 
L 9.8125 71.09375 
Q 15.4375 72.65625 20.34375 73.4375 
Q 25.25 74.21875 29.59375 74.21875 
Q 40.828125 74.21875 47.359375 69.109375 
Q 53.90625 64.015625 53.90625 55.328125 
Q 53.90625 49.265625 50.4375 45.09375 
Q 46.96875 40.921875 40.578125 39.3125 
z
" id="DejaVuSans-51"/>
      <path d="M 10.984375 1.515625 
L 10.984375 10.5 
Q 14.703125 8.734375 18.5 7.8125 
Q 22.3125 6.890625 25.984375 6.890625 
Q 35.75 6.890625 40.890625 13.453125 
Q 46.046875 20.015625 46.78125 33.40625 
Q 43.953125 29.203125 39.59375 26.953125 
Q 35.25 24.703125 29.984375 24.703125 
Q 19.046875 24.703125 12.671875 31.3125 
Q 6.296875 37.9375 6.296875 49.421875 
Q 6.296875 60.640625 12.9375 67.421875 
Q 19.578125 74.21875 30.609375 74.21875 
Q 43.265625 74.21875 49.921875 64.515625 
Q 56.59375 54.828125 56.59375 36.375 
Q 56.59375 19.140625 48.40625 8.859375 
Q 40.234375 -1.421875 26.421875 -1.421875 
Q 22.703125 -1.421875 18.890625 -0.6875 
Q 15.09375 0.046875 10.984375 1.515625 
z
M 30.609375 32.421875 
Q 37.25 32.421875 41.125 36.953125 
Q 45.015625 41.5 45.015625 49.421875 
Q 45.015625 57.28125 41.125 61.84375 
Q 37.25 66.40625 30.609375 66.40625 
Q 23.96875 66.40625 20.09375 61.84375 
Q 16.21875 57.28125 16.21875 49.421875 
Q 16.21875 41.5 20.09375 36.953125 
Q 23.96875 32.421875 30.609375 32.421875 
z
" id="DejaVuSans-57"/>
      <path d="M 10.796875 72.90625 
L 49.515625 72.90625 
L 49.515625 64.59375 
L 19.828125 64.59375 
L 19.828125 46.734375 
Q 21.96875 47.46875 24.109375 47.828125 
Q 26.265625 48.1875 28.421875 48.1875 
Q 40.625 48.1875 47.75 41.5 
Q 54.890625 34.8125 54.890625 23.390625 
Q 54.890625 11.625 47.5625 5.09375 
Q 40.234375 -1.421875 26.90625 -1.421875 
Q 22.3125 -1.421875 17.546875 -0.640625 
Q 12.796875 0.140625 7.71875 1.703125 
L 7.71875 11.625 
Q 12.109375 9.234375 16.796875 8.0625 
Q 21.484375 6.890625 26.703125 6.890625 
Q 35.15625 6.890625 40.078125 11.328125 
Q 45.015625 15.765625 45.015625 23.390625 
Q 45.015625 31 40.078125 35.4375 
Q 35.15625 39.890625 26.703125 39.890625 
Q 22.75 39.890625 18.8125 39.015625 
Q 14.890625 38.140625 10.796875 36.28125 
z
" id="DejaVuSans-53"/>
      <path d="M 19.671875 64.796875 
L 19.671875 8.109375 
L 31.59375 8.109375 
Q 46.6875 8.109375 53.6875 14.9375 
Q 60.6875 21.78125 60.6875 36.53125 
Q 60.6875 51.171875 53.6875 57.984375 
Q 46.6875 64.796875 31.59375 64.796875 
z
M 9.8125 72.90625 
L 30.078125 72.90625 
Q 51.265625 72.90625 61.171875 64.09375 
Q 71.09375 55.28125 71.09375 36.53125 
Q 71.09375 17.671875 61.125 8.828125 
Q 51.171875 0 30.078125 0 
L 9.8125 0 
z
" id="DejaVuSans-68"/>
     </defs>
     <use xlink:href="#DejaVuSans-98"/>
     <use x="63.476562" xlink:href="#DejaVuSans-98"/>
     <use x="126.953125" xlink:href="#DejaVuSans-111"/>
     <use x="188.134766" xlink:href="#DejaVuSans-98"/>
     <use x="251.611328" xlink:href="#DejaVuSans-45"/>
     <use x="287.695312" xlink:href="#DejaVuSans-99"/>
     <use x="342.675781" xlink:href="#DejaVuSans-111"/>
     <use x="403.857422" xlink:href="#DejaVuSans-110"/>
     <use x="467.236328" xlink:href="#DejaVuSans-115"/>
     <use x="519.335938" xlink:href="#DejaVuSans-116"/>
     <use x="558.544922" xlink:href="#DejaVuSans-114"/>
     <use x="599.658203" xlink:href="#DejaVuSans-97"/>
     <use x="660.9375" xlink:href="#DejaVuSans-105"/>
     <use x="688.720703" xlink:href="#DejaVuSans-110"/>
     <use x="752.099609" xlink:href="#DejaVuSans-101"/>
     <use x="813.623047" xlink:href="#DejaVuSans-100"/>
     <use x="877.099609" xlink:href="#DejaVuSans-32"/>
     <use x="908.886719" xlink:href="#DejaVuSans-102"/>
     <use x="944.091797" xlink:href="#DejaVuSans-52"/>
     <use x="1007.714844" xlink:href="#DejaVuSans-51"/>
     <use x="1071.337891" xlink:href="#DejaVuSans-44"/>
     <use x="1103.125" xlink:href="#DejaVuSans-32"/>
     <use x="1134.912109" xlink:href="#DejaVuSans-102"/>
     <use x="1170.117188" xlink:href="#DejaVuSans-52"/>
     <use x="1233.740234" xlink:href="#DejaVuSans-57"/>
     <use x="1297.363281" xlink:href="#DejaVuSans-44"/>
     <use x="1329.150391" xlink:href="#DejaVuSans-32"/>
     <use x="1360.9375" xlink:href="#DejaVuSans-53"/>
     <use x="1424.560547" xlink:href="#DejaVuSans-45"/>
     <use x="1460.644531" xlink:href="#DejaVuSans-68"/>
    </g>
    <!-- 41 targets: 100..1e-06 -->
    <g transform="translate(60.632064 29.004495)scale(0.102 -0.102)">
     <defs>
      <path d="M 11.71875 12.40625 
L 22.015625 12.40625 
L 22.015625 0 
L 11.71875 0 
z
M 11.71875 51.703125 
L 22.015625 51.703125 
L 22.015625 39.3125 
L 11.71875 39.3125 
z
" id="DejaVuSans-58"/>
     </defs>
     <use xlink:href="#DejaVuSans-52"/>
     <use x="63.623047" xlink:href="#DejaVuSans-49"/>
     <use x="127.246094" xlink:href="#DejaVuSans-32"/>
     <use x="159.033203" xlink:href="#DejaVuSans-116"/>
     <use x="198.242188" xlink:href="#DejaVuSans-97"/>
     <use x="259.521484" xlink:href="#DejaVuSans-114"/>
     <use x="298.884766" xlink:href="#DejaVuSans-103"/>
     <use x="362.361328" xlink:href="#DejaVuSans-101"/>
     <use x="423.884766" xlink:href="#DejaVuSans-116"/>
     <use x="463.09375" xlink:href="#DejaVuSans-115"/>
     <use x="515.193359" xlink:href="#DejaVuSans-58"/>
     <use x="548.884766" xlink:href="#DejaVuSans-32"/>
     <use x="580.671875" xlink:href="#DejaVuSans-49"/>
     <use x="644.294922" xlink:href="#DejaVuSans-48"/>
     <use x="707.917969" xlink:href="#DejaVuSans-48"/>
     <use x="771.541016" xlink:href="#DejaVuSans-46"/>
     <use x="803.328125" xlink:href="#DejaVuSans-46"/>
     <use x="835.115234" xlink:href="#DejaVuSans-49"/>
     <use x="898.738281" xlink:href="#DejaVuSans-101"/>
     <use x="960.261719" xlink:href="#DejaVuSans-45"/>
     <use x="996.345703" xlink:href="#DejaVuSans-48"/>
     <use x="1059.96875" xlink:href="#DejaVuSans-54"/>
    </g>
    <!-- evals = f-evals + g-evals -->
    <g transform="translate(60.632064 40.426264)scale(0.102 -0.102)">
     <defs>
      <path d="M 10.59375 45.40625 
L 73.1875 45.40625 
L 73.1875 37.203125 
L 10.59375 37.203125 
z
M 10.59375 25.484375 
L 73.1875 25.484375 
L 73.1875 17.1875 
L 10.59375 17.1875 
z
" id="DejaVuSans-61"/>
      <path d="M 46 62.703125 
L 46 35.5 
L 73.1875 35.5 
L 73.1875 27.203125 
L 46 27.203125 
L 46 0 
L 37.796875 0 
L 37.796875 27.203125 
L 10.59375 27.203125 
L 10.59375 35.5 
L 37.796875 35.5 
L 37.796875 62.703125 
z
" id="DejaVuSans-43"/>
     </defs>
     <use xlink:href="#DejaVuSans-101"/>
     <use x="61.523438" xlink:href="#DejaVuSans-118"/>
     <use x="120.703125" xlink:href="#DejaVuSans-97"/>
     <use x="181.982422" xlink:href="#DejaVuSans-108"/>
     <use x="209.765625" xlink:href="#DejaVuSans-115"/>
     <use x="261.865234" xlink:href="#DejaVuSans-32"/>
     <use x="293.652344" xlink:href="#DejaVuSans-61"/>
     <use x="377.441406" xlink:href="#DejaVuSans-32"/>
     <use x="409.228516" xlink:href="#DejaVuSans-102"/>
     <use x="438.933594" xlink:href="#DejaVuSans-45"/>
     <use x="475.017578" xlink:href="#DejaVuSans-101"/>
     <use x="536.541016" xlink:href="#DejaVuSans-118"/>
     <use x="595.720703" xlink:href="#DejaVuSans-97"/>
     <use x="657" xlink:href="#DejaVuSans-108"/>
     <use x="684.783203" xlink:href="#DejaVuSans-115"/>
     <use x="736.882812" xlink:href="#DejaVuSans-32"/>
     <use x="768.669922" xlink:href="#DejaVuSans-43"/>
     <use x="852.458984" xlink:href="#DejaVuSans-32"/>
     <use x="884.246094" xlink:href="#DejaVuSans-103"/>
     <use x="947.722656" xlink:href="#DejaVuSans-45"/>
     <use x="983.806641" xlink:href="#DejaVuSans-101"/>
     <use x="1045.330078" xlink:href="#DejaVuSans-118"/>
     <use x="1104.509766" xlink:href="#DejaVuSans-97"/>
     <use x="1165.789062" xlink:href="#DejaVuSans-108"/>
     <use x="1193.572266" xlink:href="#DejaVuSans-115"/>
    </g>
    <!-- 15 instances -->
    <g transform="translate(60.632064 51.848032)scale(0.102 -0.102)">
     <use xlink:href="#DejaVuSans-49"/>
     <use x="63.623047" xlink:href="#DejaVuSans-53"/>
     <use x="127.246094" xlink:href="#DejaVuSans-32"/>
     <use x="159.033203" xlink:href="#DejaVuSans-105"/>
     <use x="186.816406" xlink:href="#DejaVuSans-110"/>
     <use x="250.195312" xlink:href="#DejaVuSans-115"/>
     <use x="302.294922" xlink:href="#DejaVuSans-116"/>
     <use x="341.503906" xlink:href="#DejaVuSans-97"/>
     <use x="402.783203" xlink:href="#DejaVuSans-110"/>
     <use x="466.162109" xlink:href="#DejaVuSans-99"/>
     <use x="521.142578" xlink:href="#DejaVuSans-101"/>
     <use x="582.666016" xlink:href="#DejaVuSans-115"/>
    </g>
   </g>
   <g id="text_16">
    <!-- v2.4.143 -->
    <g style="fill:#808080;" transform="translate(187.15945 293.943992)scale(0.1 -0.1)">
     <use xlink:href="#DejaVuSans-118"/>
     <use x="59.179688" xlink:href="#DejaVuSans-50"/>
     <use x="122.802734" xlink:href="#DejaVuSans-46"/>
     <use x="154.589844" xlink:href="#DejaVuSans-52"/>
     <use x="218.212891" xlink:href="#DejaVuSans-46"/>
     <use x="250" xlink:href="#DejaVuSans-49"/>
     <use x="313.623047" xlink:href="#DejaVuSans-52"/>
     <use x="377.246094" xlink:href="#DejaVuSans-51"/>
    </g>
   </g>
  </g>
 </g>
 <defs>
  <clipPath id="p638be69588">
   <rect height="292.032" width="303.2064" x="57.6" y="6.912"/>
  </clipPath>
 </defs>
</svg>
