<?xml version="1.0" encoding="utf-8" standalone="no"?>
<!DOCTYPE svg PUBLIC "-//W3C//DTD SVG 1.1//EN"
  "http://www.w3.org/Graphics/SVG/1.1/DTD/svg11.dtd">
<!-- Created with matplotlib (https://matplotlib.org/) -->
<svg height="345.6pt" version="1.1" viewBox="0 0 460.8 345.6" width="460.8pt" xmlns="http://www.w3.org/2000/svg" xmlns:xlink="http://www.w3.org/1999/xlink">
 <metadata>
  <rdf:RDF xmlns:cc="http://creativecommons.org/ns#" xmlns:dc="http://purl.org/dc/elements/1.1/" xmlns:rdf="http://www.w3.org/1999/02/22-rdf-syntax-ns#">
   <cc:Work>
    <dc:type rdf:resource="http://purl.org/dc/dcmitype/StillImage"/>
    <dc:date>2022-01-14T09:47:10.622161</dc:date>
    <dc:format>image/svg+xml</dc:format>
    <dc:creator>
     <cc:Agent>
      <dc:title>Matplotlib v3.3.3, https://matplotlib.org/</dc:title>
     </cc:Agent>
    </dc:creator>
   </cc:Work>
  </rdf:RDF>
 </metadata>
 <defs>
  <style type="text/css">*{stroke-linecap:butt;stroke-linejoin:round;}</style>
 </defs>
 <g id="figure_1">
  <g id="patch_1">
   <path d="M 0 345.6 
L 460.8 345.6 
L 460.8 0 
L 0 0 
z
" style="fill:#ffffff;"/>
  </g>
  <g id="axes_1">
   <g id="patch_2">
    <path d="M 0 293.76 
L 460.8 293.76 
L 460.8 3.456 
L 0 3.456 
z
" style="fill:#ffffff;"/>
   </g>
   <g id="matplotlib.axis_1">
    <g id="xtick_1">
     <g id="line2d_1">
      <path clip-path="url(#p78519a8645)" d="M 104.636493 293.76 
L 104.636493 3.456 
" style="fill:none;stroke:#b0b0b0;stroke-linecap:square;stroke-width:0.8;"/>
     </g>
     <g id="line2d_2">
      <defs>
       <path d="M 0 0 
L 0 3.5 
" id="m2c2add5cee" style="stroke:#000000;stroke-width:0.8;"/>
      </defs>
      <g>
       <use style="stroke:#000000;stroke-width:0.8;" x="104.636493" xlink:href="#m2c2add5cee" y="293.76"/>
      </g>
     </g>
     <g id="text_1">
      <!-- -5 -->
      <g transform="translate(94.666181 315.956875)scale(0.2 -0.2)">
       <defs>
        <path d="M 4.890625 31.390625 
L 31.203125 31.390625 
L 31.203125 23.390625 
L 4.890625 23.390625 
z
" id="DejaVuSans-45"/>
        <path d="M 10.796875 72.90625 
L 49.515625 72.90625 
L 49.515625 64.59375 
L 19.828125 64.59375 
L 19.828125 46.734375 
Q 21.96875 47.46875 24.109375 47.828125 
Q 26.265625 48.1875 28.421875 48.1875 
Q 40.625 48.1875 47.75 41.5 
Q 54.890625 34.8125 54.890625 23.390625 
Q 54.890625 11.625 47.5625 5.09375 
Q 40.234375 -1.421875 26.90625 -1.421875 
Q 22.3125 -1.421875 17.546875 -0.640625 
Q 12.796875 0.140625 7.71875 1.703125 
L 7.71875 11.625 
Q 12.109375 9.234375 16.796875 8.0625 
Q 21.484375 6.890625 26.703125 6.890625 
Q 35.15625 6.890625 40.078125 11.328125 
Q 45.015625 15.765625 45.015625 23.390625 
Q 45.015625 31 40.078125 35.4375 
Q 35.15625 39.890625 26.703125 39.890625 
Q 22.75 39.890625 18.8125 39.015625 
Q 14.890625 38.140625 10.796875 36.28125 
z
" id="DejaVuSans-53"/>
       </defs>
       <use xlink:href="#DejaVuSans-45"/>
       <use x="36.083984" xlink:href="#DejaVuSans-53"/>
      </g>
     </g>
    </g>
    <g id="xtick_2">
     <g id="line2d_3">
      <path clip-path="url(#p78519a8645)" d="M 209.423928 293.76 
L 209.423928 3.456 
" style="fill:none;stroke:#b0b0b0;stroke-linecap:square;stroke-width:0.8;"/>
     </g>
     <g id="line2d_4">
      <g>
       <use style="stroke:#000000;stroke-width:0.8;" x="209.423928" xlink:href="#m2c2add5cee" y="293.76"/>
      </g>
     </g>
     <g id="text_2">
      <!-- -2 -->
      <g transform="translate(199.453615 315.956875)scale(0.2 -0.2)">
       <defs>
        <path d="M 19.1875 8.296875 
L 53.609375 8.296875 
L 53.609375 0 
L 7.328125 0 
L 7.328125 8.296875 
Q 12.9375 14.109375 22.625 23.890625 
Q 32.328125 33.6875 34.8125 36.53125 
Q 39.546875 41.84375 41.421875 45.53125 
Q 43.3125 49.21875 43.3125 52.78125 
Q 43.3125 58.59375 39.234375 62.25 
Q 35.15625 65.921875 28.609375 65.921875 
Q 23.96875 65.921875 18.8125 64.3125 
Q 13.671875 62.703125 7.8125 59.421875 
L 7.8125 69.390625 
Q 13.765625 71.78125 18.9375 73 
Q 24.125 74.21875 28.421875 74.21875 
Q 39.75 74.21875 46.484375 68.546875 
Q 53.21875 62.890625 53.21875 53.421875 
Q 53.21875 48.921875 51.53125 44.890625 
Q 49.859375 40.875 45.40625 35.40625 
Q 44.1875 33.984375 37.640625 27.21875 
Q 31.109375 20.453125 19.1875 8.296875 
z
" id="DejaVuSans-50"/>
       </defs>
       <use xlink:href="#DejaVuSans-45"/>
       <use x="36.083984" xlink:href="#DejaVuSans-50"/>
      </g>
     </g>
    </g>
    <g id="xtick_3">
     <g id="line2d_5">
      <path clip-path="url(#p78519a8645)" d="M 314.211363 293.76 
L 314.211363 3.456 
" style="fill:none;stroke:#b0b0b0;stroke-linecap:square;stroke-width:0.8;"/>
     </g>
     <g id="line2d_6">
      <g>
       <use style="stroke:#000000;stroke-width:0.8;" x="314.211363" xlink:href="#m2c2add5cee" y="293.76"/>
      </g>
     </g>
     <g id="text_3">
      <!-- 1 -->
      <g transform="translate(307.848863 315.956875)scale(0.2 -0.2)">
       <defs>
        <path d="M 12.40625 8.296875 
L 28.515625 8.296875 
L 28.515625 63.921875 
L 10.984375 60.40625 
L 10.984375 69.390625 
L 28.421875 72.90625 
L 38.28125 72.90625 
L 38.28125 8.296875 
L 54.390625 8.296875 
L 54.390625 0 
L 12.40625 0 
z
" id="DejaVuSans-49"/>
       </defs>
       <use xlink:href="#DejaVuSans-49"/>
      </g>
     </g>
    </g>
    <g id="xtick_4">
     <g id="line2d_7">
      <path clip-path="url(#p78519a8645)" d="M 418.998798 293.76 
L 418.998798 3.456 
" style="fill:none;stroke:#b0b0b0;stroke-linecap:square;stroke-width:0.8;"/>
     </g>
     <g id="line2d_8">
      <g>
       <use style="stroke:#000000;stroke-width:0.8;" x="418.998798" xlink:href="#m2c2add5cee" y="293.76"/>
      </g>
     </g>
     <g id="text_4">
      <!-- 4 -->
      <g transform="translate(412.636298 315.956875)scale(0.2 -0.2)">
       <defs>
        <path d="M 37.796875 64.3125 
L 12.890625 25.390625 
L 37.796875 25.390625 
z
M 35.203125 72.90625 
L 47.609375 72.90625 
L 47.609375 25.390625 
L 58.015625 25.390625 
L 58.015625 17.1875 
L 47.609375 17.1875 
L 47.609375 0 
L 37.796875 0 
L 37.796875 17.1875 
L 4.890625 17.1875 
L 4.890625 26.703125 
z
" id="DejaVuSans-52"/>
       </defs>
       <use xlink:href="#DejaVuSans-52"/>
      </g>
     </g>
    </g>
    <g id="text_5">
     <!-- log10 of Df -->
     <g transform="translate(175.214063 339.313125)scale(0.2 -0.2)">
      <defs>
       <path d="M 9.421875 75.984375 
L 18.40625 75.984375 
L 18.40625 0 
L 9.421875 0 
z
" id="DejaVuSans-108"/>
       <path d="M 30.609375 48.390625 
Q 23.390625 48.390625 19.1875 42.75 
Q 14.984375 37.109375 14.984375 27.296875 
Q 14.984375 17.484375 19.15625 11.84375 
Q 23.34375 6.203125 30.609375 6.203125 
Q 37.796875 6.203125 41.984375 11.859375 
Q 46.1875 17.53125 46.1875 27.296875 
Q 46.1875 37.015625 41.984375 42.703125 
Q 37.796875 48.390625 30.609375 48.390625 
z
M 30.609375 56 
Q 42.328125 56 49.015625 48.375 
Q 55.71875 40.765625 55.71875 27.296875 
Q 55.71875 13.875 49.015625 6.21875 
Q 42.328125 -1.421875 30.609375 -1.421875 
Q 18.84375 -1.421875 12.171875 6.21875 
Q 5.515625 13.875 5.515625 27.296875 
Q 5.515625 40.765625 12.171875 48.375 
Q 18.84375 56 30.609375 56 
z
" id="DejaVuSans-111"/>
       <path d="M 45.40625 27.984375 
Q 45.40625 37.75 41.375 43.109375 
Q 37.359375 48.484375 30.078125 48.484375 
Q 22.859375 48.484375 18.828125 43.109375 
Q 14.796875 37.75 14.796875 27.984375 
Q 14.796875 18.265625 18.828125 12.890625 
Q 22.859375 7.515625 30.078125 7.515625 
Q 37.359375 7.515625 41.375 12.890625 
Q 45.40625 18.265625 45.40625 27.984375 
z
M 54.390625 6.78125 
Q 54.390625 -7.171875 48.1875 -13.984375 
Q 42 -20.796875 29.203125 -20.796875 
Q 24.46875 -20.796875 20.265625 -20.09375 
Q 16.0625 -19.390625 12.109375 -17.921875 
L 12.109375 -9.1875 
Q 16.0625 -11.328125 19.921875 -12.34375 
Q 23.78125 -13.375 27.78125 -13.375 
Q 36.625 -13.375 41.015625 -8.765625 
Q 45.40625 -4.15625 45.40625 5.171875 
L 45.40625 9.625 
Q 42.625 4.78125 38.28125 2.390625 
Q 33.9375 0 27.875 0 
Q 17.828125 0 11.671875 7.65625 
Q 5.515625 15.328125 5.515625 27.984375 
Q 5.515625 40.671875 11.671875 48.328125 
Q 17.828125 56 27.875 56 
Q 33.9375 56 38.28125 53.609375 
Q 42.625 51.21875 45.40625 46.390625 
L 45.40625 54.6875 
L 54.390625 54.6875 
z
" id="DejaVuSans-103"/>
       <path d="M 31.78125 66.40625 
Q 24.171875 66.40625 20.328125 58.90625 
Q 16.5 51.421875 16.5 36.375 
Q 16.5 21.390625 20.328125 13.890625 
Q 24.171875 6.390625 31.78125 6.390625 
Q 39.453125 6.390625 43.28125 13.890625 
Q 47.125 21.390625 47.125 36.375 
Q 47.125 51.421875 43.28125 58.90625 
Q 39.453125 66.40625 31.78125 66.40625 
z
M 31.78125 74.21875 
Q 44.046875 74.21875 50.515625 64.515625 
Q 56.984375 54.828125 56.984375 36.375 
Q 56.984375 17.96875 50.515625 8.265625 
Q 44.046875 -1.421875 31.78125 -1.421875 
Q 19.53125 -1.421875 13.0625 8.265625 
Q 6.59375 17.96875 6.59375 36.375 
Q 6.59375 54.828125 13.0625 64.515625 
Q 19.53125 74.21875 31.78125 74.21875 
z
" id="DejaVuSans-48"/>
       <path id="DejaVuSans-32"/>
       <path d="M 37.109375 75.984375 
L 37.109375 68.5 
L 28.515625 68.5 
Q 23.6875 68.5 21.796875 66.546875 
Q 19.921875 64.59375 19.921875 59.515625 
L 19.921875 54.6875 
L 34.71875 54.6875 
L 34.71875 47.703125 
L 19.921875 47.703125 
L 19.921875 0 
L 10.890625 0 
L 10.890625 47.703125 
L 2.296875 47.703125 
L 2.296875 54.6875 
L 10.890625 54.6875 
L 10.890625 58.5 
Q 10.890625 67.625 15.140625 71.796875 
Q 19.390625 75.984375 28.609375 75.984375 
z
" id="DejaVuSans-102"/>
       <path d="M 19.671875 64.796875 
L 19.671875 8.109375 
L 31.59375 8.109375 
Q 46.6875 8.109375 53.6875 14.9375 
Q 60.6875 21.78125 60.6875 36.53125 
Q 60.6875 51.171875 53.6875 57.984375 
Q 46.6875 64.796875 31.59375 64.796875 
z
M 9.8125 72.90625 
L 30.078125 72.90625 
Q 51.265625 72.90625 61.171875 64.09375 
Q 71.09375 55.28125 71.09375 36.53125 
Q 71.09375 17.671875 61.125 8.828125 
Q 51.171875 0 30.078125 0 
L 9.8125 0 
z
" id="DejaVuSans-68"/>
      </defs>
      <use xlink:href="#DejaVuSans-108"/>
      <use x="27.783203" xlink:href="#DejaVuSans-111"/>
      <use x="88.964844" xlink:href="#DejaVuSans-103"/>
      <use x="152.441406" xlink:href="#DejaVuSans-49"/>
      <use x="216.064453" xlink:href="#DejaVuSans-48"/>
      <use x="279.6875" xlink:href="#DejaVuSans-32"/>
      <use x="311.474609" xlink:href="#DejaVuSans-111"/>
      <use x="372.65625" xlink:href="#DejaVuSans-102"/>
      <use x="407.861328" xlink:href="#DejaVuSans-32"/>
      <use x="439.648438" xlink:href="#DejaVuSans-68"/>
      <use x="516.650391" xlink:href="#DejaVuSans-102"/>
     </g>
    </g>
   </g>
   <g id="matplotlib.axis_2">
    <g id="ytick_1">
     <g id="line2d_9">
      <path clip-path="url(#p78519a8645)" d="M 0 293.76 
L 460.8 293.76 
" style="fill:none;stroke:#b0b0b0;stroke-linecap:square;stroke-width:0.8;"/>
     </g>
     <g id="line2d_10">
      <defs>
       <path d="M 0 0 
L -3.5 0 
" id="m37d412e110" style="stroke:#000000;stroke-width:0.8;"/>
      </defs>
      <g>
       <use style="stroke:#000000;stroke-width:0.8;" x="0" xlink:href="#m37d412e110" y="293.76"/>
      </g>
     </g>
    </g>
    <g id="ytick_2">
     <g id="line2d_11">
      <path clip-path="url(#p78519a8645)" d="M 0 236.274059 
L 460.8 236.274059 
" style="fill:none;stroke:#b0b0b0;stroke-linecap:square;stroke-width:0.8;"/>
     </g>
     <g id="line2d_12">
      <g>
       <use style="stroke:#000000;stroke-width:0.8;" x="0" xlink:href="#m37d412e110" y="236.274059"/>
      </g>
     </g>
    </g>
    <g id="ytick_3">
     <g id="line2d_13">
      <path clip-path="url(#p78519a8645)" d="M 0 178.788119 
L 460.8 178.788119 
" style="fill:none;stroke:#b0b0b0;stroke-linecap:square;stroke-width:0.8;"/>
     </g>
     <g id="line2d_14">
      <g>
       <use style="stroke:#000000;stroke-width:0.8;" x="0" xlink:href="#m37d412e110" y="178.788119"/>
      </g>
     </g>
    </g>
    <g id="ytick_4">
     <g id="line2d_15">
      <path clip-path="url(#p78519a8645)" d="M 0 121.302178 
L 460.8 121.302178 
" style="fill:none;stroke:#b0b0b0;stroke-linecap:square;stroke-width:0.8;"/>
     </g>
     <g id="line2d_16">
      <g>
       <use style="stroke:#000000;stroke-width:0.8;" x="0" xlink:href="#m37d412e110" y="121.302178"/>
      </g>
     </g>
    </g>
    <g id="ytick_5">
     <g id="line2d_17">
      <path clip-path="url(#p78519a8645)" d="M 0 63.816238 
L 460.8 63.816238 
" style="fill:none;stroke:#b0b0b0;stroke-linecap:square;stroke-width:0.8;"/>
     </g>
     <g id="line2d_18">
      <g>
       <use style="stroke:#000000;stroke-width:0.8;" x="0" xlink:href="#m37d412e110" y="63.816238"/>
      </g>
     </g>
    </g>
    <g id="ytick_6">
     <g id="line2d_19">
      <path clip-path="url(#p78519a8645)" d="M 0 6.330297 
L 460.8 6.330297 
" style="fill:none;stroke:#b0b0b0;stroke-linecap:square;stroke-width:0.8;"/>
     </g>
     <g id="line2d_20">
      <g>
       <use style="stroke:#000000;stroke-width:0.8;" x="0" xlink:href="#m37d412e110" y="6.330297"/>
      </g>
     </g>
    </g>
   </g>
   <g id="line2d_21">
    <path clip-path="url(#p78519a8645)" d="M -1 223.499406 
L -0.360353 223.499406 
L -0.360353 217.112079 
L 0.997698 217.112079 
L 0.997698 210.724752 
L 1.584785 210.724752 
L 1.584785 204.337426 
L 1.941102 204.337426 
L 1.941102 197.950099 
L 2.203248 197.950099 
L 2.203248 191.562772 
L 2.379422 191.562772 
L 2.379422 185.175446 
L 2.722893 185.175446 
L 2.722893 178.788119 
L 3.593812 178.788119 
L 3.593812 172.400792 
L 3.593812 172.400792 
L 3.593812 166.013465 
L 3.593947 166.013465 
L 3.593947 159.626139 
L 3.594081 159.626139 
L 3.594081 153.238812 
L 3.595159 153.238812 
L 3.595159 146.851485 
L 3.595159 146.851485 
L 3.595159 140.464158 
L 3.600547 140.464158 
L 3.600547 134.076832 
L 24.810449 134.076832 
L 24.810449 127.689505 
L 28.008237 127.689505 
L 28.008237 121.302178 
L 28.010015 121.302178 
L 28.010015 114.914851 
L 28.02488 114.914851 
L 28.02488 108.527525 
L 52.422629 108.527525 
L 52.422629 102.140198 
L 211.975248 102.140198 
L 211.975248 95.752871 
L 252.904254 95.752871 
L 252.904254 89.365545 
L 256.874974 89.365545 
L 256.874974 82.978218 
L 261.166504 82.978218 
L 261.166504 76.590891 
L 267.051008 76.590891 
L 267.051008 70.203564 
L 269.050822 70.203564 
L 269.050822 63.816238 
L 273.354079 63.816238 
L 273.354079 57.428911 
L 275.897398 57.428911 
L 275.897398 51.041584 
L 276.976086 51.041584 
L 276.976086 44.654257 
L 283.115652 44.654257 
L 283.115652 38.266931 
L 285.629975 38.266931 
L 285.629975 31.879604 
L 289.766589 31.879604 
L 289.766589 25.492277 
L 293.717115 25.492277 
L 293.717115 19.10495 
L 297.405763 19.10495 
L 297.405763 12.717624 
L 304.185468 12.717624 
L 304.185468 6.330297 
L 304.185468 6.330297 
L 304.185468 6.330297 
L 460.8 6.330297 
" style="fill:none;stroke:#ff0000;stroke-linecap:square;stroke-width:3;"/>
   </g>
   <g id="line2d_22">
    <path clip-path="url(#p78519a8645)" d="M 369.996446 293.76 
L 369.996446 287.372673 
L 370.295282 287.372673 
L 370.295282 280.985347 
L 371.264803 280.985347 
L 371.264803 274.59802 
L 373.474521 274.59802 
L 373.474521 268.210693 
L 375.771898 268.210693 
L 375.771898 261.823366 
L 376.896242 261.823366 
L 376.896242 255.43604 
L 377.986321 255.43604 
L 377.986321 249.048713 
L 378.394354 249.048713 
L 378.394354 242.661386 
L 381.010277 242.661386 
L 381.010277 236.274059 
L 381.087551 236.274059 
L 381.087551 229.886733 
L 381.477959 229.886733 
L 381.477959 223.499406 
L 381.690629 223.499406 
L 381.690629 217.112079 
L 381.950016 217.112079 
L 381.950016 210.724752 
L 382.25095 210.724752 
L 382.25095 204.337426 
L 383.974094 204.337426 
L 383.974094 197.950099 
L 384.163149 197.950099 
L 384.163149 191.562772 
L 384.706351 191.562772 
L 384.706351 185.175446 
L 385.024105 185.175446 
L 385.024105 178.788119 
L 385.355602 178.788119 
L 385.355602 172.400792 
L 386.115383 172.400792 
L 386.115383 166.013465 
L 387.04282 166.013465 
L 387.04282 159.626139 
L 387.211483 159.626139 
L 387.211483 153.238812 
L 387.292178 153.238812 
L 387.292178 146.851485 
L 388.635958 146.851485 
L 388.635958 140.464158 
L 390.103157 140.464158 
L 390.103157 134.076832 
L 390.562749 134.076832 
L 390.562749 127.689505 
L 390.735986 127.689505 
L 390.735986 121.302178 
L 391.343858 121.302178 
L 391.343858 114.914851 
L 391.726528 114.914851 
L 391.726528 108.527525 
L 392.146818 108.527525 
L 392.146818 102.140198 
L 392.151715 102.140198 
L 392.151715 95.752871 
L 392.162757 95.752871 
L 392.162757 89.365545 
L 392.836504 89.365545 
L 392.836504 82.978218 
L 393.582186 82.978218 
L 393.582186 76.590891 
L 393.600995 76.590891 
L 393.600995 70.203564 
L 393.741446 70.203564 
L 393.741446 63.816238 
L 394.723132 63.816238 
L 394.723132 57.428911 
L 401.38239 57.428911 
L 401.38239 51.041584 
L 407.048469 51.041584 
L 407.048469 44.654257 
L 407.527602 44.654257 
L 407.527602 38.266931 
L 408.932943 38.266931 
L 408.932943 31.879604 
L 409.947122 31.879604 
L 409.947122 25.492277 
L 410.450433 25.492277 
L 410.450433 19.10495 
L 413.474284 19.10495 
L 413.474284 12.717624 
L 414.414459 12.717624 
L 414.414459 6.330297 
L 414.414459 6.330297 
L 414.414459 6.330297 
L 460.8 6.330297 
" style="fill:none;stroke:#00bfbf;stroke-linecap:square;stroke-width:1.5;"/>
   </g>
   <g id="line2d_23">
    <path clip-path="url(#p78519a8645)" d="M 361.752162 293.76 
L 361.752162 287.372673 
L 364.368548 287.372673 
L 364.368548 280.985347 
L 370.295281 280.985347 
L 370.295281 274.59802 
L 370.380676 274.59802 
L 370.380676 268.210693 
L 372.449046 268.210693 
L 372.449046 261.823366 
L 374.331555 261.823366 
L 374.331555 255.43604 
L 374.468598 255.43604 
L 374.468598 249.048713 
L 374.805256 249.048713 
L 374.805256 242.661386 
L 375.255669 242.661386 
L 375.255669 236.274059 
L 375.762133 236.274059 
L 375.762133 229.886733 
L 375.911857 229.886733 
L 375.911857 223.499406 
L 376.007475 223.499406 
L 376.007475 217.112079 
L 376.486937 217.112079 
L 376.486937 210.724752 
L 377.98632 210.724752 
L 377.98632 204.337426 
L 378.155883 204.337426 
L 378.155883 197.950099 
L 379.069901 197.950099 
L 379.069901 191.562772 
L 379.884251 191.562772 
L 379.884251 185.175446 
L 380.835618 185.175446 
L 380.835618 178.788119 
L 381.756527 178.788119 
L 381.756527 172.400792 
L 381.993613 172.400792 
L 381.993613 166.013465 
L 383.082639 166.013465 
L 383.082639 159.626139 
L 383.904829 159.626139 
L 383.904829 153.238812 
L 384.054725 153.238812 
L 384.054725 146.851485 
L 384.851705 146.851485 
L 384.851705 140.464158 
L 385.559086 140.464158 
L 385.559086 134.076832 
L 385.746721 134.076832 
L 385.746721 127.689505 
L 386.328004 127.689505 
L 386.328004 121.302178 
L 388.250577 121.302178 
L 388.250577 114.914851 
L 388.630901 114.914851 
L 388.630901 108.527525 
L 389.134735 108.527525 
L 389.134735 102.140198 
L 389.555045 102.140198 
L 389.555045 95.752871 
L 390.118742 95.752871 
L 390.118742 89.365545 
L 391.060264 89.365545 
L 391.060264 82.978218 
L 392.221525 82.978218 
L 392.221525 76.590891 
L 392.327375 76.590891 
L 392.327375 70.203564 
L 392.836504 70.203564 
L 392.836504 63.816238 
L 393.741446 63.816238 
L 393.741446 57.428911 
L 399.762227 57.428911 
L 399.762227 51.041584 
L 404.126475 51.041584 
L 404.126475 44.654257 
L 406.194739 44.654257 
L 406.194739 38.266931 
L 407.527602 38.266931 
L 407.527602 31.879604 
L 408.039161 31.879604 
L 408.039161 25.492277 
L 410.450433 25.492277 
L 410.450433 19.10495 
L 411.064256 19.10495 
L 411.064256 12.717624 
L 411.820607 12.717624 
L 411.820607 6.330297 
L 411.820607 6.330297 
L 411.820607 6.330297 
L 460.8 6.330297 
" style="fill:none;stroke:#bf00bf;stroke-linecap:square;stroke-width:1.5;"/>
   </g>
   <g id="line2d_24">
    <path clip-path="url(#p78519a8645)" d="M 345.295771 293.76 
L 345.295771 287.372673 
L 353.797157 287.372673 
L 353.797157 280.985347 
L 356.597213 280.985347 
L 356.597213 274.59802 
L 358.997364 274.59802 
L 358.997364 268.210693 
L 360.000341 268.210693 
L 360.000341 261.823366 
L 360.107163 261.823366 
L 360.107163 255.43604 
L 360.116638 255.43604 
L 360.116638 249.048713 
L 362.5486 249.048713 
L 362.5486 242.661386 
L 363.096102 242.661386 
L 363.096102 236.274059 
L 363.364539 236.274059 
L 363.364539 229.886733 
L 370.21814 229.886733 
L 370.21814 223.499406 
L 370.704646 223.499406 
L 370.704646 217.112079 
L 371.515558 217.112079 
L 371.515558 210.724752 
L 373.145575 210.724752 
L 373.145575 204.337426 
L 373.174316 204.337426 
L 373.174316 197.950099 
L 374.804663 197.950099 
L 374.804663 191.562772 
L 374.875861 191.562772 
L 374.875861 185.175446 
L 375.10195 185.175446 
L 375.10195 178.788119 
L 376.759475 178.788119 
L 376.759475 172.400792 
L 376.915702 172.400792 
L 376.915702 166.013465 
L 377.030475 166.013465 
L 377.030475 159.626139 
L 377.146472 159.626139 
L 377.146472 153.238812 
L 377.417731 153.238812 
L 377.417731 146.851485 
L 377.421575 146.851485 
L 377.421575 140.464158 
L 377.565145 140.464158 
L 377.565145 134.076832 
L 377.656764 134.076832 
L 377.656764 127.689505 
L 378.464665 127.689505 
L 378.464665 121.302178 
L 381.021456 121.302178 
L 381.021456 114.914851 
L 381.559955 114.914851 
L 381.559955 108.527525 
L 381.676683 108.527525 
L 381.676683 102.140198 
L 382.009582 102.140198 
L 382.009582 95.752871 
L 382.37829 95.752871 
L 382.37829 89.365545 
L 382.81143 89.365545 
L 382.81143 82.978218 
L 383.925174 82.978218 
L 383.925174 76.590891 
L 384.606273 76.590891 
L 384.606273 70.203564 
L 385.065517 70.203564 
L 385.065517 63.816238 
L 385.902611 63.816238 
L 385.902611 57.428911 
L 385.908479 57.428911 
L 385.908479 51.041584 
L 387.745302 51.041584 
L 387.745302 44.654257 
L 387.984415 44.654257 
L 387.984415 38.266931 
L 391.670288 38.266931 
L 391.670288 31.879604 
L 392.712307 31.879604 
L 392.712307 25.492277 
L 397.718878 25.492277 
L 397.718878 19.10495 
L 401.844293 19.10495 
L 401.844293 12.717624 
L 403.673429 12.717624 
L 403.673429 6.330297 
L 403.673429 6.330297 
L 403.673429 6.330297 
L 460.8 6.330297 
" style="fill:none;stroke:#000000;stroke-linecap:square;stroke-width:1.5;"/>
   </g>
   <g id="line2d_25">
    <path clip-path="url(#p78519a8645)" d="M 52.422068 293.76 
L 52.422068 287.372673 
L 79.487764 287.372673 
L 79.487764 280.985347 
L 97.282038 280.985347 
L 97.282038 274.59802 
L 97.462375 274.59802 
L 97.462375 268.210693 
L 121.816083 268.210693 
L 121.816083 261.823366 
L 123.64401 261.823366 
L 123.64401 255.43604 
L 127.219908 255.43604 
L 127.219908 249.048713 
L 142.431269 249.048713 
L 142.431269 242.661386 
L 145.21763 242.661386 
L 145.21763 236.274059 
L 151.399888 236.274059 
L 151.399888 229.886733 
L 167.756315 229.886733 
L 167.756315 223.499406 
L 168.867776 223.499406 
L 168.867776 217.112079 
L 201.126683 217.112079 
L 201.126683 210.724752 
L 233.894491 210.724752 
L 233.894491 204.337426 
L 269.450495 204.337426 
L 269.450495 197.950099 
L 279.011023 197.950099 
L 279.011023 191.562772 
L 316.379596 191.562772 
L 316.379596 185.175446 
L 318.478251 185.175446 
L 318.478251 178.788119 
L 330.313779 178.788119 
L 330.313779 172.400792 
L 330.823938 172.400792 
L 330.823938 166.013465 
L 331.646766 166.013465 
L 331.646766 159.626139 
L 332.232329 159.626139 
L 332.232329 153.238812 
L 336.311249 153.238812 
L 336.311249 146.851485 
L 336.575829 146.851485 
L 336.575829 140.464158 
L 339.886847 140.464158 
L 339.886847 134.076832 
L 341.449059 134.076832 
L 341.449059 127.689505 
L 342.405907 127.689505 
L 342.405907 121.302178 
L 345.193004 121.302178 
L 345.193004 114.914851 
L 345.297836 114.914851 
L 345.297836 108.527525 
L 346.916836 108.527525 
L 346.916836 102.140198 
L 347.124393 102.140198 
L 347.124393 95.752871 
L 350.355323 95.752871 
L 350.355323 89.365545 
L 351.119007 89.365545 
L 351.119007 82.978218 
L 352.744069 82.978218 
L 352.744069 76.590891 
L 353.355538 76.590891 
L 353.355538 70.203564 
L 356.961636 70.203564 
L 356.961636 63.816238 
L 360.620509 63.816238 
L 360.620509 57.428911 
L 361.158531 57.428911 
L 361.158531 51.041584 
L 366.008838 51.041584 
L 366.008838 44.654257 
L 367.797823 44.654257 
L 367.797823 38.266931 
L 370.014227 38.266931 
L 370.014227 31.879604 
L 372.377139 31.879604 
L 372.377139 25.492277 
L 373.139759 25.492277 
L 373.139759 19.10495 
L 400.880594 19.10495 
L 400.880594 12.717624 
L 403.673429 12.717624 
L 403.673429 6.330297 
L 403.673429 6.330297 
L 403.673429 6.330297 
L 460.8 6.330297 
" style="fill:none;stroke:#00bfbf;stroke-linecap:square;stroke-width:1.5;"/>
   </g>
   <g id="line2d_26">
    <path clip-path="url(#p78519a8645)" d="M -1 287.372673 
L 3.398819 287.372673 
L 3.398819 280.985347 
L 27.525015 280.985347 
L 27.525015 274.59802 
L 27.714936 274.59802 
L 27.714936 268.210693 
L 28.007428 268.210693 
L 28.007428 261.823366 
L 28.008183 261.823366 
L 28.008183 255.43604 
L 28.00821 255.43604 
L 28.00821 249.048713 
L 28.008452 249.048713 
L 28.008452 242.661386 
L 28.008614 242.661386 
L 28.008614 236.274059 
L 47.464447 236.274059 
L 47.464447 229.886733 
L 48.067921 229.886733 
L 48.067921 223.499406 
L 48.990015 223.499406 
L 48.990015 217.112079 
L 49.037637 217.112079 
L 49.037637 210.724752 
L 49.037691 210.724752 
L 49.037691 204.337426 
L 49.037772 204.337426 
L 49.037772 197.950099 
L 49.037785 197.950099 
L 49.037785 191.562772 
L 49.037947 191.562772 
L 49.037947 185.175446 
L 50.613813 185.175446 
L 50.613813 178.788119 
L 51.270196 178.788119 
L 51.270196 172.400792 
L 51.655202 172.400792 
L 51.655202 166.013465 
L 51.966811 166.013465 
L 51.966811 159.626139 
L 52.419697 159.626139 
L 52.419697 153.238812 
L 52.42181 153.238812 
L 52.42181 146.851485 
L 73.441298 146.851485 
L 73.441298 140.464158 
L 73.451805 140.464158 
L 73.451805 134.076832 
L 73.452102 134.076832 
L 73.452102 127.689505 
L 73.452123 127.689505 
L 73.452123 121.302178 
L 73.452156 121.302178 
L 73.452156 114.914851 
L 73.452226 114.914851 
L 73.452226 108.527525 
L 73.452501 108.527525 
L 73.452501 102.140198 
L 300.25384 102.140198 
L 300.25384 95.752871 
L 301.87006 95.752871 
L 301.87006 89.365545 
L 303.032689 89.365545 
L 303.032689 82.978218 
L 310.219396 82.978218 
L 310.219396 76.590891 
L 314.094593 76.590891 
L 314.094593 70.203564 
L 315.92382 70.203564 
L 315.92382 63.816238 
L 327.909311 63.816238 
L 327.909311 57.428911 
L 329.186639 57.428911 
L 329.186639 51.041584 
L 329.445752 51.041584 
L 329.445752 44.654257 
L 330.579577 44.654257 
L 330.579577 38.266931 
L 331.484786 38.266931 
L 331.484786 31.879604 
L 333.570611 31.879604 
L 333.570611 25.492277 
L 335.78424 25.492277 
L 335.78424 19.10495 
L 342.442591 19.10495 
L 342.442591 12.717624 
L 358.978122 12.717624 
L 358.978122 6.330297 
L 358.978122 6.330297 
L 358.978122 6.330297 
L 460.8 6.330297 
" style="fill:none;stroke:#bf00bf;stroke-linecap:square;stroke-width:1.5;"/>
   </g>
   <g id="line2d_27">
    <path clip-path="url(#p78519a8645)" d="M -1 268.210693 
L 1.584785 268.210693 
L 1.584785 261.823366 
L 2.448741 261.823366 
L 2.448741 255.43604 
L 2.635886 255.43604 
L 2.635886 249.048713 
L 2.722893 249.048713 
L 2.722893 242.661386 
L 2.955125 242.661386 
L 2.955125 236.274059 
L 3.247396 236.274059 
L 3.247396 229.886733 
L 3.593542 229.886733 
L 3.593542 223.499406 
L 3.593812 223.499406 
L 3.593812 217.112079 
L 3.59462 217.112079 
L 3.59462 210.724752 
L 3.59462 210.724752 
L 3.59462 204.337426 
L 3.595159 204.337426 
L 3.595159 197.950099 
L 3.595159 197.950099 
L 3.595159 191.562772 
L 3.603779 191.562772 
L 3.603779 185.175446 
L 26.510859 185.175446 
L 26.510859 178.788119 
L 26.995965 178.788119 
L 26.995965 172.400792 
L 27.049966 172.400792 
L 27.049966 166.013465 
L 27.169703 166.013465 
L 27.169703 159.626139 
L 27.873392 159.626139 
L 27.873392 153.238812 
L 28.008075 153.238812 
L 28.008075 146.851485 
L 28.008183 146.851485 
L 28.008183 140.464158 
L 28.008183 140.464158 
L 28.008183 134.076832 
L 28.008237 134.076832 
L 28.008237 127.689505 
L 28.008237 127.689505 
L 28.008237 121.302178 
L 52.422715 121.302178 
L 52.422715 114.914851 
L 73.452048 114.914851 
L 73.452048 108.527525 
L 73.45207 108.527525 
L 73.45207 102.140198 
L 211.975248 102.140198 
L 211.975248 95.752871 
L 254.183133 95.752871 
L 254.183133 89.365545 
L 261.166504 89.365545 
L 261.166504 82.978218 
L 262.410072 82.978218 
L 262.410072 76.590891 
L 272.624441 76.590891 
L 272.624441 70.203564 
L 272.995733 70.203564 
L 272.995733 63.816238 
L 276.017206 63.816238 
L 276.017206 57.428911 
L 282.069641 57.428911 
L 282.069641 51.041584 
L 282.478772 51.041584 
L 282.478772 44.654257 
L 285.629975 44.654257 
L 285.629975 38.266931 
L 297.631111 38.266931 
L 297.631111 31.879604 
L 303.149752 31.879604 
L 303.149752 25.492277 
L 305.287224 25.492277 
L 305.287224 19.10495 
L 317.531556 19.10495 
L 317.531556 12.717624 
L 322.013825 12.717624 
L 322.013825 6.330297 
L 322.013825 6.330297 
L 322.013825 6.330297 
L 460.8 6.330297 
" style="fill:none;stroke:#000000;stroke-linecap:square;stroke-width:1.5;"/>
   </g>
   <g id="patch_3">
    <path d="M 0 293.76 
L 0 3.456 
" style="fill:none;stroke:#000000;stroke-linecap:square;stroke-linejoin:miter;stroke-width:0.8;"/>
   </g>
   <g id="patch_4">
    <path d="M 460.8 293.76 
L 460.8 3.456 
" style="fill:none;stroke:#000000;stroke-linecap:square;stroke-linejoin:miter;stroke-width:0.8;"/>
   </g>
   <g id="patch_5">
    <path d="M 0 293.76 
L 460.8 293.76 
" style="fill:none;stroke:#000000;stroke-linecap:square;stroke-linejoin:miter;stroke-width:0.8;"/>
   </g>
   <g id="patch_6">
    <path d="M 0 3.456 
L 460.8 3.456 
" style="fill:none;stroke:#000000;stroke-linecap:square;stroke-linejoin:miter;stroke-width:0.8;"/>
   </g>
   <g id="text_6">
    <!-- {f4, f10, f16}, 20-D -->
    <g transform="translate(255.184 287.95392)scale(0.2 -0.2)">
     <defs>
      <path d="M 51.125 -9.28125 
L 51.125 -16.3125 
L 48.09375 -16.3125 
Q 35.9375 -16.3125 31.8125 -12.6875 
Q 27.6875 -9.078125 27.6875 1.703125 
L 27.6875 13.375 
Q 27.6875 20.75 25.046875 23.578125 
Q 22.40625 26.421875 15.484375 26.421875 
L 12.5 26.421875 
L 12.5 33.40625 
L 15.484375 33.40625 
Q 22.46875 33.40625 25.078125 36.203125 
Q 27.6875 39.015625 27.6875 46.296875 
L 27.6875 58.015625 
Q 27.6875 68.796875 31.8125 72.390625 
Q 35.9375 75.984375 48.09375 75.984375 
L 51.125 75.984375 
L 51.125 69 
L 47.796875 69 
Q 40.921875 69 38.8125 66.84375 
Q 36.71875 64.703125 36.71875 57.8125 
L 36.71875 45.703125 
Q 36.71875 38.03125 34.5 34.5625 
Q 32.28125 31.109375 26.90625 29.890625 
Q 32.328125 28.5625 34.515625 25.09375 
Q 36.71875 21.625 36.71875 14.015625 
L 36.71875 1.90625 
Q 36.71875 -4.984375 38.8125 -7.125 
Q 40.921875 -9.28125 47.796875 -9.28125 
z
" id="DejaVuSans-123"/>
      <path d="M 11.71875 12.40625 
L 22.015625 12.40625 
L 22.015625 4 
L 14.015625 -11.625 
L 7.71875 -11.625 
L 11.71875 4 
z
" id="DejaVuSans-44"/>
      <path d="M 33.015625 40.375 
Q 26.375 40.375 22.484375 35.828125 
Q 18.609375 31.296875 18.609375 23.390625 
Q 18.609375 15.53125 22.484375 10.953125 
Q 26.375 6.390625 33.015625 6.390625 
Q 39.65625 6.390625 43.53125 10.953125 
Q 47.40625 15.53125 47.40625 23.390625 
Q 47.40625 31.296875 43.53125 35.828125 
Q 39.65625 40.375 33.015625 40.375 
z
M 52.59375 71.296875 
L 52.59375 62.3125 
Q 48.875 64.0625 45.09375 64.984375 
Q 41.3125 65.921875 37.59375 65.921875 
Q 27.828125 65.921875 22.671875 59.328125 
Q 17.53125 52.734375 16.796875 39.40625 
Q 19.671875 43.65625 24.015625 45.921875 
Q 28.375 48.1875 33.59375 48.1875 
Q 44.578125 48.1875 50.953125 41.515625 
Q 57.328125 34.859375 57.328125 23.390625 
Q 57.328125 12.15625 50.6875 5.359375 
Q 44.046875 -1.421875 33.015625 -1.421875 
Q 20.359375 -1.421875 13.671875 8.265625 
Q 6.984375 17.96875 6.984375 36.375 
Q 6.984375 53.65625 15.1875 63.9375 
Q 23.390625 74.21875 37.203125 74.21875 
Q 40.921875 74.21875 44.703125 73.484375 
Q 48.484375 72.75 52.59375 71.296875 
z
" id="DejaVuSans-54"/>
      <path d="M 12.5 -9.28125 
L 15.921875 -9.28125 
Q 22.75 -9.28125 24.828125 -7.171875 
Q 26.90625 -5.078125 26.90625 1.90625 
L 26.90625 14.015625 
Q 26.90625 21.625 29.09375 25.09375 
Q 31.296875 28.5625 36.71875 29.890625 
Q 31.296875 31.109375 29.09375 34.5625 
Q 26.90625 38.03125 26.90625 45.703125 
L 26.90625 57.8125 
Q 26.90625 64.75 24.828125 66.875 
Q 22.75 69 15.921875 69 
L 12.5 69 
L 12.5 75.984375 
L 15.578125 75.984375 
Q 27.734375 75.984375 31.8125 72.390625 
Q 35.890625 68.796875 35.890625 58.015625 
L 35.890625 46.296875 
Q 35.890625 39.015625 38.515625 36.203125 
Q 41.15625 33.40625 48.09375 33.40625 
L 51.125 33.40625 
L 51.125 26.421875 
L 48.09375 26.421875 
Q 41.15625 26.421875 38.515625 23.578125 
Q 35.890625 20.75 35.890625 13.375 
L 35.890625 1.703125 
Q 35.890625 -9.078125 31.8125 -12.6875 
Q 27.734375 -16.3125 15.578125 -16.3125 
L 12.5 -16.3125 
z
" id="DejaVuSans-125"/>
     </defs>
     <use xlink:href="#DejaVuSans-123"/>
     <use x="63.623047" xlink:href="#DejaVuSans-102"/>
     <use x="98.828125" xlink:href="#DejaVuSans-52"/>
     <use x="162.451172" xlink:href="#DejaVuSans-44"/>
     <use x="194.238281" xlink:href="#DejaVuSans-32"/>
     <use x="226.025391" xlink:href="#DejaVuSans-102"/>
     <use x="261.230469" xlink:href="#DejaVuSans-49"/>
     <use x="324.853516" xlink:href="#DejaVuSans-48"/>
     <use x="388.476562" xlink:href="#DejaVuSans-44"/>
     <use x="420.263672" xlink:href="#DejaVuSans-32"/>
     <use x="452.050781" xlink:href="#DejaVuSans-102"/>
     <use x="487.255859" xlink:href="#DejaVuSans-49"/>
     <use x="550.878906" xlink:href="#DejaVuSans-54"/>
     <use x="614.501953" xlink:href="#DejaVuSans-125"/>
     <use x="678.125" xlink:href="#DejaVuSans-44"/>
     <use x="709.912109" xlink:href="#DejaVuSans-32"/>
     <use x="741.699219" xlink:href="#DejaVuSans-50"/>
     <use x="805.322266" xlink:href="#DejaVuSans-48"/>
     <use x="868.945312" xlink:href="#DejaVuSans-45"/>
     <use x="905.029297" xlink:href="#DejaVuSans-68"/>
    </g>
   </g>
   <g id="text_7">
    <!-- v2.4.82 -->
    <g style="fill:#808080;" transform="translate(211.5375 288.777272)scale(0.1 -0.1)">
     <defs>
      <path d="M 2.984375 54.6875 
L 12.5 54.6875 
L 29.59375 8.796875 
L 46.6875 54.6875 
L 56.203125 54.6875 
L 35.6875 0 
L 23.484375 0 
z
" id="DejaVuSans-118"/>
      <path d="M 10.6875 12.40625 
L 21 12.40625 
L 21 0 
L 10.6875 0 
z
" id="DejaVuSans-46"/>
      <path d="M 31.78125 34.625 
Q 24.75 34.625 20.71875 30.859375 
Q 16.703125 27.09375 16.703125 20.515625 
Q 16.703125 13.921875 20.71875 10.15625 
Q 24.75 6.390625 31.78125 6.390625 
Q 38.8125 6.390625 42.859375 10.171875 
Q 46.921875 13.96875 46.921875 20.515625 
Q 46.921875 27.09375 42.890625 30.859375 
Q 38.875 34.625 31.78125 34.625 
z
M 21.921875 38.8125 
Q 15.578125 40.375 12.03125 44.71875 
Q 8.5 49.078125 8.5 55.328125 
Q 8.5 64.0625 14.71875 69.140625 
Q 20.953125 74.21875 31.78125 74.21875 
Q 42.671875 74.21875 48.875 69.140625 
Q 55.078125 64.0625 55.078125 55.328125 
Q 55.078125 49.078125 51.53125 44.71875 
Q 48 40.375 41.703125 38.8125 
Q 48.828125 37.15625 52.796875 32.3125 
Q 56.78125 27.484375 56.78125 20.515625 
Q 56.78125 9.90625 50.3125 4.234375 
Q 43.84375 -1.421875 31.78125 -1.421875 
Q 19.734375 -1.421875 13.25 4.234375 
Q 6.78125 9.90625 6.78125 20.515625 
Q 6.78125 27.484375 10.78125 32.3125 
Q 14.796875 37.15625 21.921875 38.8125 
z
M 18.3125 54.390625 
Q 18.3125 48.734375 21.84375 45.5625 
Q 25.390625 42.390625 31.78125 42.390625 
Q 38.140625 42.390625 41.71875 45.5625 
Q 45.3125 48.734375 45.3125 54.390625 
Q 45.3125 60.0625 41.71875 63.234375 
Q 38.140625 66.40625 31.78125 66.40625 
Q 25.390625 66.40625 21.84375 63.234375 
Q 18.3125 60.0625 18.3125 54.390625 
z
" id="DejaVuSans-56"/>
     </defs>
     <use xlink:href="#DejaVuSans-118"/>
     <use x="59.179688" xlink:href="#DejaVuSans-50"/>
     <use x="122.802734" xlink:href="#DejaVuSans-46"/>
     <use x="154.589844" xlink:href="#DejaVuSans-52"/>
     <use x="218.212891" xlink:href="#DejaVuSans-46"/>
     <use x="250" xlink:href="#DejaVuSans-56"/>
     <use x="313.623047" xlink:href="#DejaVuSans-50"/>
    </g>
   </g>
  </g>
 </g>
 <defs>
  <clipPath id="p78519a8645">
   <rect height="290.304" width="460.8" x="0" y="3.456"/>
  </clipPath>
 </defs>
</svg>
