<?xml version="1.0" encoding="utf-8" standalone="no"?>
<!DOCTYPE svg PUBLIC "-//W3C//DTD SVG 1.1//EN"
  "http://www.w3.org/Graphics/SVG/1.1/DTD/svg11.dtd">
<!-- Created with matplotlib (https://matplotlib.org/) -->
<svg height="345.6pt" version="1.1" viewBox="0 0 460.8 345.6" width="460.8pt" xmlns="http://www.w3.org/2000/svg" xmlns:xlink="http://www.w3.org/1999/xlink">
 <metadata>
  <rdf:RDF xmlns:cc="http://creativecommons.org/ns#" xmlns:dc="http://purl.org/dc/elements/1.1/" xmlns:rdf="http://www.w3.org/1999/02/22-rdf-syntax-ns#">
   <cc:Work>
    <dc:type rdf:resource="http://purl.org/dc/dcmitype/StillImage"/>
    <dc:date>2022-01-14T09:46:46.715041</dc:date>
    <dc:format>image/svg+xml</dc:format>
    <dc:creator>
     <cc:Agent>
      <dc:title>Matplotlib v3.3.3, https://matplotlib.org/</dc:title>
     </cc:Agent>
    </dc:creator>
   </cc:Work>
  </rdf:RDF>
 </metadata>
 <defs>
  <style type="text/css">*{stroke-linecap:butt;stroke-linejoin:round;}</style>
 </defs>
 <g id="figure_1">
  <g id="patch_1">
   <path d="M 0 345.6 
L 460.8 345.6 
L 460.8 0 
L 0 0 
z
" style="fill:#ffffff;"/>
  </g>
  <g id="axes_1">
   <g id="patch_2">
    <path d="M 62.208 293.76 
L 460.8 293.76 
L 460.8 3.456 
L 62.208 3.456 
z
" style="fill:#ffffff;"/>
   </g>
   <g id="matplotlib.axis_1">
    <g id="xtick_1">
     <g id="line2d_1">
      <path clip-path="url(#p8dd5d574d2)" d="M 62.208 293.76 
L 62.208 3.456 
" style="fill:none;stroke:#b0b0b0;stroke-linecap:square;stroke-width:0.8;"/>
     </g>
     <g id="line2d_2">
      <defs>
       <path d="M 0 0 
L 0 3.5 
" id="mcf77860398" style="stroke:#000000;stroke-width:0.8;"/>
      </defs>
      <g>
       <use style="stroke:#000000;stroke-width:0.8;" x="62.208" xlink:href="#mcf77860398" y="293.76"/>
      </g>
     </g>
     <g id="text_1">
      <!-- 0 -->
      <g transform="translate(55.8455 315.956875)scale(0.2 -0.2)">
       <defs>
        <path d="M 31.78125 66.40625 
Q 24.171875 66.40625 20.328125 58.90625 
Q 16.5 51.421875 16.5 36.375 
Q 16.5 21.390625 20.328125 13.890625 
Q 24.171875 6.390625 31.78125 6.390625 
Q 39.453125 6.390625 43.28125 13.890625 
Q 47.125 21.390625 47.125 36.375 
Q 47.125 51.421875 43.28125 58.90625 
Q 39.453125 66.40625 31.78125 66.40625 
z
M 31.78125 74.21875 
Q 44.046875 74.21875 50.515625 64.515625 
Q 56.984375 54.828125 56.984375 36.375 
Q 56.984375 17.96875 50.515625 8.265625 
Q 44.046875 -1.421875 31.78125 -1.421875 
Q 19.53125 -1.421875 13.0625 8.265625 
Q 6.59375 17.96875 6.59375 36.375 
Q 6.59375 54.828125 13.0625 64.515625 
Q 19.53125 74.21875 31.78125 74.21875 
z
" id="DejaVuSans-48"/>
       </defs>
       <use xlink:href="#DejaVuSans-48"/>
      </g>
     </g>
    </g>
    <g id="xtick_2">
     <g id="line2d_3">
      <path clip-path="url(#p8dd5d574d2)" d="M 161.877231 293.76 
L 161.877231 3.456 
" style="fill:none;stroke:#b0b0b0;stroke-linecap:square;stroke-width:0.8;"/>
     </g>
     <g id="line2d_4">
      <g>
       <use style="stroke:#000000;stroke-width:0.8;" x="161.877231" xlink:href="#mcf77860398" y="293.76"/>
      </g>
     </g>
     <g id="text_2">
      <!-- 1 -->
      <g transform="translate(155.514731 315.956875)scale(0.2 -0.2)">
       <defs>
        <path d="M 12.40625 8.296875 
L 28.515625 8.296875 
L 28.515625 63.921875 
L 10.984375 60.40625 
L 10.984375 69.390625 
L 28.421875 72.90625 
L 38.28125 72.90625 
L 38.28125 8.296875 
L 54.390625 8.296875 
L 54.390625 0 
L 12.40625 0 
z
" id="DejaVuSans-49"/>
       </defs>
       <use xlink:href="#DejaVuSans-49"/>
      </g>
     </g>
    </g>
    <g id="xtick_3">
     <g id="line2d_5">
      <path clip-path="url(#p8dd5d574d2)" d="M 261.546462 293.76 
L 261.546462 3.456 
" style="fill:none;stroke:#b0b0b0;stroke-linecap:square;stroke-width:0.8;"/>
     </g>
     <g id="line2d_6">
      <g>
       <use style="stroke:#000000;stroke-width:0.8;" x="261.546462" xlink:href="#mcf77860398" y="293.76"/>
      </g>
     </g>
     <g id="text_3">
      <!-- 2 -->
      <g transform="translate(255.183962 315.956875)scale(0.2 -0.2)">
       <defs>
        <path d="M 19.1875 8.296875 
L 53.609375 8.296875 
L 53.609375 0 
L 7.328125 0 
L 7.328125 8.296875 
Q 12.9375 14.109375 22.625 23.890625 
Q 32.328125 33.6875 34.8125 36.53125 
Q 39.546875 41.84375 41.421875 45.53125 
Q 43.3125 49.21875 43.3125 52.78125 
Q 43.3125 58.59375 39.234375 62.25 
Q 35.15625 65.921875 28.609375 65.921875 
Q 23.96875 65.921875 18.8125 64.3125 
Q 13.671875 62.703125 7.8125 59.421875 
L 7.8125 69.390625 
Q 13.765625 71.78125 18.9375 73 
Q 24.125 74.21875 28.421875 74.21875 
Q 39.75 74.21875 46.484375 68.546875 
Q 53.21875 62.890625 53.21875 53.421875 
Q 53.21875 48.921875 51.53125 44.890625 
Q 49.859375 40.875 45.40625 35.40625 
Q 44.1875 33.984375 37.640625 27.21875 
Q 31.109375 20.453125 19.1875 8.296875 
z
" id="DejaVuSans-50"/>
       </defs>
       <use xlink:href="#DejaVuSans-50"/>
      </g>
     </g>
    </g>
    <g id="xtick_4">
     <g id="line2d_7">
      <path clip-path="url(#p8dd5d574d2)" d="M 361.215693 293.76 
L 361.215693 3.456 
" style="fill:none;stroke:#b0b0b0;stroke-linecap:square;stroke-width:0.8;"/>
     </g>
     <g id="line2d_8">
      <g>
       <use style="stroke:#000000;stroke-width:0.8;" x="361.215693" xlink:href="#mcf77860398" y="293.76"/>
      </g>
     </g>
     <g id="text_4">
      <!-- 3 -->
      <g transform="translate(354.853193 315.956875)scale(0.2 -0.2)">
       <defs>
        <path d="M 40.578125 39.3125 
Q 47.65625 37.796875 51.625 33 
Q 55.609375 28.21875 55.609375 21.1875 
Q 55.609375 10.40625 48.1875 4.484375 
Q 40.765625 -1.421875 27.09375 -1.421875 
Q 22.515625 -1.421875 17.65625 -0.515625 
Q 12.796875 0.390625 7.625 2.203125 
L 7.625 11.71875 
Q 11.71875 9.328125 16.59375 8.109375 
Q 21.484375 6.890625 26.8125 6.890625 
Q 36.078125 6.890625 40.9375 10.546875 
Q 45.796875 14.203125 45.796875 21.1875 
Q 45.796875 27.640625 41.28125 31.265625 
Q 36.765625 34.90625 28.71875 34.90625 
L 20.21875 34.90625 
L 20.21875 43.015625 
L 29.109375 43.015625 
Q 36.375 43.015625 40.234375 45.921875 
Q 44.09375 48.828125 44.09375 54.296875 
Q 44.09375 59.90625 40.109375 62.90625 
Q 36.140625 65.921875 28.71875 65.921875 
Q 24.65625 65.921875 20.015625 65.03125 
Q 15.375 64.15625 9.8125 62.3125 
L 9.8125 71.09375 
Q 15.4375 72.65625 20.34375 73.4375 
Q 25.25 74.21875 29.59375 74.21875 
Q 40.828125 74.21875 47.359375 69.109375 
Q 53.90625 64.015625 53.90625 55.328125 
Q 53.90625 49.265625 50.4375 45.09375 
Q 46.96875 40.921875 40.578125 39.3125 
z
" id="DejaVuSans-51"/>
       </defs>
       <use xlink:href="#DejaVuSans-51"/>
      </g>
     </g>
    </g>
    <g id="xtick_5">
     <g id="line2d_9">
      <path clip-path="url(#p8dd5d574d2)" d="M 92.211428 293.76 
L 92.211428 3.456 
" style="fill:none;stroke:#b0b0b0;stroke-linecap:square;stroke-width:0.8;"/>
     </g>
     <g id="line2d_10">
      <defs>
       <path d="M 0 0 
L 0 2 
" id="m6a41caa2a9" style="stroke:#000000;stroke-width:0.6;"/>
      </defs>
      <g>
       <use style="stroke:#000000;stroke-width:0.6;" x="92.211428" xlink:href="#m6a41caa2a9" y="293.76"/>
      </g>
     </g>
    </g>
    <g id="xtick_6">
     <g id="line2d_11">
      <path clip-path="url(#p8dd5d574d2)" d="M 109.762308 293.76 
L 109.762308 3.456 
" style="fill:none;stroke:#b0b0b0;stroke-linecap:square;stroke-width:0.8;"/>
     </g>
     <g id="line2d_12">
      <g>
       <use style="stroke:#000000;stroke-width:0.6;" x="109.762308" xlink:href="#m6a41caa2a9" y="293.76"/>
      </g>
     </g>
    </g>
    <g id="xtick_7">
     <g id="line2d_13">
      <path clip-path="url(#p8dd5d574d2)" d="M 122.214856 293.76 
L 122.214856 3.456 
" style="fill:none;stroke:#b0b0b0;stroke-linecap:square;stroke-width:0.8;"/>
     </g>
     <g id="line2d_14">
      <g>
       <use style="stroke:#000000;stroke-width:0.6;" x="122.214856" xlink:href="#m6a41caa2a9" y="293.76"/>
      </g>
     </g>
    </g>
    <g id="xtick_8">
     <g id="line2d_15">
      <path clip-path="url(#p8dd5d574d2)" d="M 131.873803 293.76 
L 131.873803 3.456 
" style="fill:none;stroke:#b0b0b0;stroke-linecap:square;stroke-width:0.8;"/>
     </g>
     <g id="line2d_16">
      <g>
       <use style="stroke:#000000;stroke-width:0.6;" x="131.873803" xlink:href="#m6a41caa2a9" y="293.76"/>
      </g>
     </g>
    </g>
    <g id="xtick_9">
     <g id="line2d_17">
      <path clip-path="url(#p8dd5d574d2)" d="M 139.765737 293.76 
L 139.765737 3.456 
" style="fill:none;stroke:#b0b0b0;stroke-linecap:square;stroke-width:0.8;"/>
     </g>
     <g id="line2d_18">
      <g>
       <use style="stroke:#000000;stroke-width:0.6;" x="139.765737" xlink:href="#m6a41caa2a9" y="293.76"/>
      </g>
     </g>
    </g>
    <g id="xtick_10">
     <g id="line2d_19">
      <path clip-path="url(#p8dd5d574d2)" d="M 146.438272 293.76 
L 146.438272 3.456 
" style="fill:none;stroke:#b0b0b0;stroke-linecap:square;stroke-width:0.8;"/>
     </g>
     <g id="line2d_20">
      <g>
       <use style="stroke:#000000;stroke-width:0.6;" x="146.438272" xlink:href="#m6a41caa2a9" y="293.76"/>
      </g>
     </g>
    </g>
    <g id="xtick_11">
     <g id="line2d_21">
      <path clip-path="url(#p8dd5d574d2)" d="M 152.218284 293.76 
L 152.218284 3.456 
" style="fill:none;stroke:#b0b0b0;stroke-linecap:square;stroke-width:0.8;"/>
     </g>
     <g id="line2d_22">
      <g>
       <use style="stroke:#000000;stroke-width:0.6;" x="152.218284" xlink:href="#m6a41caa2a9" y="293.76"/>
      </g>
     </g>
    </g>
    <g id="xtick_12">
     <g id="line2d_23">
      <path clip-path="url(#p8dd5d574d2)" d="M 157.316617 293.76 
L 157.316617 3.456 
" style="fill:none;stroke:#b0b0b0;stroke-linecap:square;stroke-width:0.8;"/>
     </g>
     <g id="line2d_24">
      <g>
       <use style="stroke:#000000;stroke-width:0.6;" x="157.316617" xlink:href="#m6a41caa2a9" y="293.76"/>
      </g>
     </g>
    </g>
    <g id="xtick_13">
     <g id="line2d_25">
      <path clip-path="url(#p8dd5d574d2)" d="M 191.880659 293.76 
L 191.880659 3.456 
" style="fill:none;stroke:#b0b0b0;stroke-linecap:square;stroke-width:0.8;"/>
     </g>
     <g id="line2d_26">
      <g>
       <use style="stroke:#000000;stroke-width:0.6;" x="191.880659" xlink:href="#m6a41caa2a9" y="293.76"/>
      </g>
     </g>
    </g>
    <g id="xtick_14">
     <g id="line2d_27">
      <path clip-path="url(#p8dd5d574d2)" d="M 209.431539 293.76 
L 209.431539 3.456 
" style="fill:none;stroke:#b0b0b0;stroke-linecap:square;stroke-width:0.8;"/>
     </g>
     <g id="line2d_28">
      <g>
       <use style="stroke:#000000;stroke-width:0.6;" x="209.431539" xlink:href="#m6a41caa2a9" y="293.76"/>
      </g>
     </g>
    </g>
    <g id="xtick_15">
     <g id="line2d_29">
      <path clip-path="url(#p8dd5d574d2)" d="M 221.884087 293.76 
L 221.884087 3.456 
" style="fill:none;stroke:#b0b0b0;stroke-linecap:square;stroke-width:0.8;"/>
     </g>
     <g id="line2d_30">
      <g>
       <use style="stroke:#000000;stroke-width:0.6;" x="221.884087" xlink:href="#m6a41caa2a9" y="293.76"/>
      </g>
     </g>
    </g>
    <g id="xtick_16">
     <g id="line2d_31">
      <path clip-path="url(#p8dd5d574d2)" d="M 231.543034 293.76 
L 231.543034 3.456 
" style="fill:none;stroke:#b0b0b0;stroke-linecap:square;stroke-width:0.8;"/>
     </g>
     <g id="line2d_32">
      <g>
       <use style="stroke:#000000;stroke-width:0.6;" x="231.543034" xlink:href="#m6a41caa2a9" y="293.76"/>
      </g>
     </g>
    </g>
    <g id="xtick_17">
     <g id="line2d_33">
      <path clip-path="url(#p8dd5d574d2)" d="M 239.434967 293.76 
L 239.434967 3.456 
" style="fill:none;stroke:#b0b0b0;stroke-linecap:square;stroke-width:0.8;"/>
     </g>
     <g id="line2d_34">
      <g>
       <use style="stroke:#000000;stroke-width:0.6;" x="239.434967" xlink:href="#m6a41caa2a9" y="293.76"/>
      </g>
     </g>
    </g>
    <g id="xtick_18">
     <g id="line2d_35">
      <path clip-path="url(#p8dd5d574d2)" d="M 246.107502 293.76 
L 246.107502 3.456 
" style="fill:none;stroke:#b0b0b0;stroke-linecap:square;stroke-width:0.8;"/>
     </g>
     <g id="line2d_36">
      <g>
       <use style="stroke:#000000;stroke-width:0.6;" x="246.107502" xlink:href="#m6a41caa2a9" y="293.76"/>
      </g>
     </g>
    </g>
    <g id="xtick_19">
     <g id="line2d_37">
      <path clip-path="url(#p8dd5d574d2)" d="M 251.887515 293.76 
L 251.887515 3.456 
" style="fill:none;stroke:#b0b0b0;stroke-linecap:square;stroke-width:0.8;"/>
     </g>
     <g id="line2d_38">
      <g>
       <use style="stroke:#000000;stroke-width:0.6;" x="251.887515" xlink:href="#m6a41caa2a9" y="293.76"/>
      </g>
     </g>
    </g>
    <g id="xtick_20">
     <g id="line2d_39">
      <path clip-path="url(#p8dd5d574d2)" d="M 256.985848 293.76 
L 256.985848 3.456 
" style="fill:none;stroke:#b0b0b0;stroke-linecap:square;stroke-width:0.8;"/>
     </g>
     <g id="line2d_40">
      <g>
       <use style="stroke:#000000;stroke-width:0.6;" x="256.985848" xlink:href="#m6a41caa2a9" y="293.76"/>
      </g>
     </g>
    </g>
    <g id="xtick_21">
     <g id="line2d_41">
      <path clip-path="url(#p8dd5d574d2)" d="M 291.54989 293.76 
L 291.54989 3.456 
" style="fill:none;stroke:#b0b0b0;stroke-linecap:square;stroke-width:0.8;"/>
     </g>
     <g id="line2d_42">
      <g>
       <use style="stroke:#000000;stroke-width:0.6;" x="291.54989" xlink:href="#m6a41caa2a9" y="293.76"/>
      </g>
     </g>
    </g>
    <g id="xtick_22">
     <g id="line2d_43">
      <path clip-path="url(#p8dd5d574d2)" d="M 309.10077 293.76 
L 309.10077 3.456 
" style="fill:none;stroke:#b0b0b0;stroke-linecap:square;stroke-width:0.8;"/>
     </g>
     <g id="line2d_44">
      <g>
       <use style="stroke:#000000;stroke-width:0.6;" x="309.10077" xlink:href="#m6a41caa2a9" y="293.76"/>
      </g>
     </g>
    </g>
    <g id="xtick_23">
     <g id="line2d_45">
      <path clip-path="url(#p8dd5d574d2)" d="M 321.553318 293.76 
L 321.553318 3.456 
" style="fill:none;stroke:#b0b0b0;stroke-linecap:square;stroke-width:0.8;"/>
     </g>
     <g id="line2d_46">
      <g>
       <use style="stroke:#000000;stroke-width:0.6;" x="321.553318" xlink:href="#m6a41caa2a9" y="293.76"/>
      </g>
     </g>
    </g>
    <g id="xtick_24">
     <g id="line2d_47">
      <path clip-path="url(#p8dd5d574d2)" d="M 331.212264 293.76 
L 331.212264 3.456 
" style="fill:none;stroke:#b0b0b0;stroke-linecap:square;stroke-width:0.8;"/>
     </g>
     <g id="line2d_48">
      <g>
       <use style="stroke:#000000;stroke-width:0.6;" x="331.212264" xlink:href="#m6a41caa2a9" y="293.76"/>
      </g>
     </g>
    </g>
    <g id="xtick_25">
     <g id="line2d_49">
      <path clip-path="url(#p8dd5d574d2)" d="M 339.104198 293.76 
L 339.104198 3.456 
" style="fill:none;stroke:#b0b0b0;stroke-linecap:square;stroke-width:0.8;"/>
     </g>
     <g id="line2d_50">
      <g>
       <use style="stroke:#000000;stroke-width:0.6;" x="339.104198" xlink:href="#m6a41caa2a9" y="293.76"/>
      </g>
     </g>
    </g>
    <g id="xtick_26">
     <g id="line2d_51">
      <path clip-path="url(#p8dd5d574d2)" d="M 345.776733 293.76 
L 345.776733 3.456 
" style="fill:none;stroke:#b0b0b0;stroke-linecap:square;stroke-width:0.8;"/>
     </g>
     <g id="line2d_52">
      <g>
       <use style="stroke:#000000;stroke-width:0.6;" x="345.776733" xlink:href="#m6a41caa2a9" y="293.76"/>
      </g>
     </g>
    </g>
    <g id="xtick_27">
     <g id="line2d_53">
      <path clip-path="url(#p8dd5d574d2)" d="M 351.556746 293.76 
L 351.556746 3.456 
" style="fill:none;stroke:#b0b0b0;stroke-linecap:square;stroke-width:0.8;"/>
     </g>
     <g id="line2d_54">
      <g>
       <use style="stroke:#000000;stroke-width:0.6;" x="351.556746" xlink:href="#m6a41caa2a9" y="293.76"/>
      </g>
     </g>
    </g>
    <g id="xtick_28">
     <g id="line2d_55">
      <path clip-path="url(#p8dd5d574d2)" d="M 356.655079 293.76 
L 356.655079 3.456 
" style="fill:none;stroke:#b0b0b0;stroke-linecap:square;stroke-width:0.8;"/>
     </g>
     <g id="line2d_56">
      <g>
       <use style="stroke:#000000;stroke-width:0.6;" x="356.655079" xlink:href="#m6a41caa2a9" y="293.76"/>
      </g>
     </g>
    </g>
    <g id="xtick_29">
     <g id="line2d_57">
      <path clip-path="url(#p8dd5d574d2)" d="M 391.219121 293.76 
L 391.219121 3.456 
" style="fill:none;stroke:#b0b0b0;stroke-linecap:square;stroke-width:0.8;"/>
     </g>
     <g id="line2d_58">
      <g>
       <use style="stroke:#000000;stroke-width:0.6;" x="391.219121" xlink:href="#m6a41caa2a9" y="293.76"/>
      </g>
     </g>
    </g>
    <g id="xtick_30">
     <g id="line2d_59">
      <path clip-path="url(#p8dd5d574d2)" d="M 408.770001 293.76 
L 408.770001 3.456 
" style="fill:none;stroke:#b0b0b0;stroke-linecap:square;stroke-width:0.8;"/>
     </g>
     <g id="line2d_60">
      <g>
       <use style="stroke:#000000;stroke-width:0.6;" x="408.770001" xlink:href="#m6a41caa2a9" y="293.76"/>
      </g>
     </g>
    </g>
    <g id="xtick_31">
     <g id="line2d_61">
      <path clip-path="url(#p8dd5d574d2)" d="M 421.222549 293.76 
L 421.222549 3.456 
" style="fill:none;stroke:#b0b0b0;stroke-linecap:square;stroke-width:0.8;"/>
     </g>
     <g id="line2d_62">
      <g>
       <use style="stroke:#000000;stroke-width:0.6;" x="421.222549" xlink:href="#m6a41caa2a9" y="293.76"/>
      </g>
     </g>
    </g>
    <g id="xtick_32">
     <g id="line2d_63">
      <path clip-path="url(#p8dd5d574d2)" d="M 430.881495 293.76 
L 430.881495 3.456 
" style="fill:none;stroke:#b0b0b0;stroke-linecap:square;stroke-width:0.8;"/>
     </g>
     <g id="line2d_64">
      <g>
       <use style="stroke:#000000;stroke-width:0.6;" x="430.881495" xlink:href="#m6a41caa2a9" y="293.76"/>
      </g>
     </g>
    </g>
    <g id="xtick_33">
     <g id="line2d_65">
      <path clip-path="url(#p8dd5d574d2)" d="M 438.773429 293.76 
L 438.773429 3.456 
" style="fill:none;stroke:#b0b0b0;stroke-linecap:square;stroke-width:0.8;"/>
     </g>
     <g id="line2d_66">
      <g>
       <use style="stroke:#000000;stroke-width:0.6;" x="438.773429" xlink:href="#m6a41caa2a9" y="293.76"/>
      </g>
     </g>
    </g>
    <g id="xtick_34">
     <g id="line2d_67">
      <path clip-path="url(#p8dd5d574d2)" d="M 445.445964 293.76 
L 445.445964 3.456 
" style="fill:none;stroke:#b0b0b0;stroke-linecap:square;stroke-width:0.8;"/>
     </g>
     <g id="line2d_68">
      <g>
       <use style="stroke:#000000;stroke-width:0.6;" x="445.445964" xlink:href="#m6a41caa2a9" y="293.76"/>
      </g>
     </g>
    </g>
    <g id="xtick_35">
     <g id="line2d_69">
      <path clip-path="url(#p8dd5d574d2)" d="M 451.225977 293.76 
L 451.225977 3.456 
" style="fill:none;stroke:#b0b0b0;stroke-linecap:square;stroke-width:0.8;"/>
     </g>
     <g id="line2d_70">
      <g>
       <use style="stroke:#000000;stroke-width:0.6;" x="451.225977" xlink:href="#m6a41caa2a9" y="293.76"/>
      </g>
     </g>
    </g>
    <g id="xtick_36">
     <g id="line2d_71">
      <path clip-path="url(#p8dd5d574d2)" d="M 456.32431 293.76 
L 456.32431 3.456 
" style="fill:none;stroke:#b0b0b0;stroke-linecap:square;stroke-width:0.8;"/>
     </g>
     <g id="line2d_72">
      <g>
       <use style="stroke:#000000;stroke-width:0.6;" x="456.32431" xlink:href="#m6a41caa2a9" y="293.76"/>
      </g>
     </g>
    </g>
    <g id="text_5">
     <!-- log10 of (f+g)-evals / dimension -->
     <g transform="translate(100.164938 339.313125)scale(0.2 -0.2)">
      <defs>
       <path d="M 9.421875 75.984375 
L 18.40625 75.984375 
L 18.40625 0 
L 9.421875 0 
z
" id="DejaVuSans-108"/>
       <path d="M 30.609375 48.390625 
Q 23.390625 48.390625 19.1875 42.75 
Q 14.984375 37.109375 14.984375 27.296875 
Q 14.984375 17.484375 19.15625 11.84375 
Q 23.34375 6.203125 30.609375 6.203125 
Q 37.796875 6.203125 41.984375 11.859375 
Q 46.1875 17.53125 46.1875 27.296875 
Q 46.1875 37.015625 41.984375 42.703125 
Q 37.796875 48.390625 30.609375 48.390625 
z
M 30.609375 56 
Q 42.328125 56 49.015625 48.375 
Q 55.71875 40.765625 55.71875 27.296875 
Q 55.71875 13.875 49.015625 6.21875 
Q 42.328125 -1.421875 30.609375 -1.421875 
Q 18.84375 -1.421875 12.171875 6.21875 
Q 5.515625 13.875 5.515625 27.296875 
Q 5.515625 40.765625 12.171875 48.375 
Q 18.84375 56 30.609375 56 
z
" id="DejaVuSans-111"/>
       <path d="M 45.40625 27.984375 
Q 45.40625 37.75 41.375 43.109375 
Q 37.359375 48.484375 30.078125 48.484375 
Q 22.859375 48.484375 18.828125 43.109375 
Q 14.796875 37.75 14.796875 27.984375 
Q 14.796875 18.265625 18.828125 12.890625 
Q 22.859375 7.515625 30.078125 7.515625 
Q 37.359375 7.515625 41.375 12.890625 
Q 45.40625 18.265625 45.40625 27.984375 
z
M 54.390625 6.78125 
Q 54.390625 -7.171875 48.1875 -13.984375 
Q 42 -20.796875 29.203125 -20.796875 
Q 24.46875 -20.796875 20.265625 -20.09375 
Q 16.0625 -19.390625 12.109375 -17.921875 
L 12.109375 -9.1875 
Q 16.0625 -11.328125 19.921875 -12.34375 
Q 23.78125 -13.375 27.78125 -13.375 
Q 36.625 -13.375 41.015625 -8.765625 
Q 45.40625 -4.15625 45.40625 5.171875 
L 45.40625 9.625 
Q 42.625 4.78125 38.28125 2.390625 
Q 33.9375 0 27.875 0 
Q 17.828125 0 11.671875 7.65625 
Q 5.515625 15.328125 5.515625 27.984375 
Q 5.515625 40.671875 11.671875 48.328125 
Q 17.828125 56 27.875 56 
Q 33.9375 56 38.28125 53.609375 
Q 42.625 51.21875 45.40625 46.390625 
L 45.40625 54.6875 
L 54.390625 54.6875 
z
" id="DejaVuSans-103"/>
       <path id="DejaVuSans-32"/>
       <path d="M 37.109375 75.984375 
L 37.109375 68.5 
L 28.515625 68.5 
Q 23.6875 68.5 21.796875 66.546875 
Q 19.921875 64.59375 19.921875 59.515625 
L 19.921875 54.6875 
L 34.71875 54.6875 
L 34.71875 47.703125 
L 19.921875 47.703125 
L 19.921875 0 
L 10.890625 0 
L 10.890625 47.703125 
L 2.296875 47.703125 
L 2.296875 54.6875 
L 10.890625 54.6875 
L 10.890625 58.5 
Q 10.890625 67.625 15.140625 71.796875 
Q 19.390625 75.984375 28.609375 75.984375 
z
" id="DejaVuSans-102"/>
       <path d="M 31 75.875 
Q 24.46875 64.65625 21.28125 53.65625 
Q 18.109375 42.671875 18.109375 31.390625 
Q 18.109375 20.125 21.3125 9.0625 
Q 24.515625 -2 31 -13.1875 
L 23.1875 -13.1875 
Q 15.875 -1.703125 12.234375 9.375 
Q 8.59375 20.453125 8.59375 31.390625 
Q 8.59375 42.28125 12.203125 53.3125 
Q 15.828125 64.359375 23.1875 75.875 
z
" id="DejaVuSans-40"/>
       <path d="M 46 62.703125 
L 46 35.5 
L 73.1875 35.5 
L 73.1875 27.203125 
L 46 27.203125 
L 46 0 
L 37.796875 0 
L 37.796875 27.203125 
L 10.59375 27.203125 
L 10.59375 35.5 
L 37.796875 35.5 
L 37.796875 62.703125 
z
" id="DejaVuSans-43"/>
       <path d="M 8.015625 75.875 
L 15.828125 75.875 
Q 23.140625 64.359375 26.78125 53.3125 
Q 30.421875 42.28125 30.421875 31.390625 
Q 30.421875 20.453125 26.78125 9.375 
Q 23.140625 -1.703125 15.828125 -13.1875 
L 8.015625 -13.1875 
Q 14.5 -2 17.703125 9.0625 
Q 20.90625 20.125 20.90625 31.390625 
Q 20.90625 42.671875 17.703125 53.65625 
Q 14.5 64.65625 8.015625 75.875 
z
" id="DejaVuSans-41"/>
       <path d="M 4.890625 31.390625 
L 31.203125 31.390625 
L 31.203125 23.390625 
L 4.890625 23.390625 
z
" id="DejaVuSans-45"/>
       <path d="M 56.203125 29.59375 
L 56.203125 25.203125 
L 14.890625 25.203125 
Q 15.484375 15.921875 20.484375 11.0625 
Q 25.484375 6.203125 34.421875 6.203125 
Q 39.59375 6.203125 44.453125 7.46875 
Q 49.3125 8.734375 54.109375 11.28125 
L 54.109375 2.78125 
Q 49.265625 0.734375 44.1875 -0.34375 
Q 39.109375 -1.421875 33.890625 -1.421875 
Q 20.796875 -1.421875 13.15625 6.1875 
Q 5.515625 13.8125 5.515625 26.8125 
Q 5.515625 40.234375 12.765625 48.109375 
Q 20.015625 56 32.328125 56 
Q 43.359375 56 49.78125 48.890625 
Q 56.203125 41.796875 56.203125 29.59375 
z
M 47.21875 32.234375 
Q 47.125 39.59375 43.09375 43.984375 
Q 39.0625 48.390625 32.421875 48.390625 
Q 24.90625 48.390625 20.390625 44.140625 
Q 15.875 39.890625 15.1875 32.171875 
z
" id="DejaVuSans-101"/>
       <path d="M 2.984375 54.6875 
L 12.5 54.6875 
L 29.59375 8.796875 
L 46.6875 54.6875 
L 56.203125 54.6875 
L 35.6875 0 
L 23.484375 0 
z
" id="DejaVuSans-118"/>
       <path d="M 34.28125 27.484375 
Q 23.390625 27.484375 19.1875 25 
Q 14.984375 22.515625 14.984375 16.5 
Q 14.984375 11.71875 18.140625 8.90625 
Q 21.296875 6.109375 26.703125 6.109375 
Q 34.1875 6.109375 38.703125 11.40625 
Q 43.21875 16.703125 43.21875 25.484375 
L 43.21875 27.484375 
z
M 52.203125 31.203125 
L 52.203125 0 
L 43.21875 0 
L 43.21875 8.296875 
Q 40.140625 3.328125 35.546875 0.953125 
Q 30.953125 -1.421875 24.3125 -1.421875 
Q 15.921875 -1.421875 10.953125 3.296875 
Q 6 8.015625 6 15.921875 
Q 6 25.140625 12.171875 29.828125 
Q 18.359375 34.515625 30.609375 34.515625 
L 43.21875 34.515625 
L 43.21875 35.40625 
Q 43.21875 41.609375 39.140625 45 
Q 35.0625 48.390625 27.6875 48.390625 
Q 23 48.390625 18.546875 47.265625 
Q 14.109375 46.140625 10.015625 43.890625 
L 10.015625 52.203125 
Q 14.9375 54.109375 19.578125 55.046875 
Q 24.21875 56 28.609375 56 
Q 40.484375 56 46.34375 49.84375 
Q 52.203125 43.703125 52.203125 31.203125 
z
" id="DejaVuSans-97"/>
       <path d="M 44.28125 53.078125 
L 44.28125 44.578125 
Q 40.484375 46.53125 36.375 47.5 
Q 32.28125 48.484375 27.875 48.484375 
Q 21.1875 48.484375 17.84375 46.4375 
Q 14.5 44.390625 14.5 40.28125 
Q 14.5 37.15625 16.890625 35.375 
Q 19.28125 33.59375 26.515625 31.984375 
L 29.59375 31.296875 
Q 39.15625 29.25 43.1875 25.515625 
Q 47.21875 21.78125 47.21875 15.09375 
Q 47.21875 7.46875 41.1875 3.015625 
Q 35.15625 -1.421875 24.609375 -1.421875 
Q 20.21875 -1.421875 15.453125 -0.5625 
Q 10.6875 0.296875 5.421875 2 
L 5.421875 11.28125 
Q 10.40625 8.6875 15.234375 7.390625 
Q 20.0625 6.109375 24.8125 6.109375 
Q 31.15625 6.109375 34.5625 8.28125 
Q 37.984375 10.453125 37.984375 14.40625 
Q 37.984375 18.0625 35.515625 20.015625 
Q 33.0625 21.96875 24.703125 23.78125 
L 21.578125 24.515625 
Q 13.234375 26.265625 9.515625 29.90625 
Q 5.8125 33.546875 5.8125 39.890625 
Q 5.8125 47.609375 11.28125 51.796875 
Q 16.75 56 26.8125 56 
Q 31.78125 56 36.171875 55.265625 
Q 40.578125 54.546875 44.28125 53.078125 
z
" id="DejaVuSans-115"/>
       <path d="M 25.390625 72.90625 
L 33.6875 72.90625 
L 8.296875 -9.28125 
L 0 -9.28125 
z
" id="DejaVuSans-47"/>
       <path d="M 45.40625 46.390625 
L 45.40625 75.984375 
L 54.390625 75.984375 
L 54.390625 0 
L 45.40625 0 
L 45.40625 8.203125 
Q 42.578125 3.328125 38.25 0.953125 
Q 33.9375 -1.421875 27.875 -1.421875 
Q 17.96875 -1.421875 11.734375 6.484375 
Q 5.515625 14.40625 5.515625 27.296875 
Q 5.515625 40.1875 11.734375 48.09375 
Q 17.96875 56 27.875 56 
Q 33.9375 56 38.25 53.625 
Q 42.578125 51.265625 45.40625 46.390625 
z
M 14.796875 27.296875 
Q 14.796875 17.390625 18.875 11.75 
Q 22.953125 6.109375 30.078125 6.109375 
Q 37.203125 6.109375 41.296875 11.75 
Q 45.40625 17.390625 45.40625 27.296875 
Q 45.40625 37.203125 41.296875 42.84375 
Q 37.203125 48.484375 30.078125 48.484375 
Q 22.953125 48.484375 18.875 42.84375 
Q 14.796875 37.203125 14.796875 27.296875 
z
" id="DejaVuSans-100"/>
       <path d="M 9.421875 54.6875 
L 18.40625 54.6875 
L 18.40625 0 
L 9.421875 0 
z
M 9.421875 75.984375 
L 18.40625 75.984375 
L 18.40625 64.59375 
L 9.421875 64.59375 
z
" id="DejaVuSans-105"/>
       <path d="M 52 44.1875 
Q 55.375 50.25 60.0625 53.125 
Q 64.75 56 71.09375 56 
Q 79.640625 56 84.28125 50.015625 
Q 88.921875 44.046875 88.921875 33.015625 
L 88.921875 0 
L 79.890625 0 
L 79.890625 32.71875 
Q 79.890625 40.578125 77.09375 44.375 
Q 74.3125 48.1875 68.609375 48.1875 
Q 61.625 48.1875 57.5625 43.546875 
Q 53.515625 38.921875 53.515625 30.90625 
L 53.515625 0 
L 44.484375 0 
L 44.484375 32.71875 
Q 44.484375 40.625 41.703125 44.40625 
Q 38.921875 48.1875 33.109375 48.1875 
Q 26.21875 48.1875 22.15625 43.53125 
Q 18.109375 38.875 18.109375 30.90625 
L 18.109375 0 
L 9.078125 0 
L 9.078125 54.6875 
L 18.109375 54.6875 
L 18.109375 46.1875 
Q 21.1875 51.21875 25.484375 53.609375 
Q 29.78125 56 35.6875 56 
Q 41.65625 56 45.828125 52.96875 
Q 50 49.953125 52 44.1875 
z
" id="DejaVuSans-109"/>
       <path d="M 54.890625 33.015625 
L 54.890625 0 
L 45.90625 0 
L 45.90625 32.71875 
Q 45.90625 40.484375 42.875 44.328125 
Q 39.84375 48.1875 33.796875 48.1875 
Q 26.515625 48.1875 22.3125 43.546875 
Q 18.109375 38.921875 18.109375 30.90625 
L 18.109375 0 
L 9.078125 0 
L 9.078125 54.6875 
L 18.109375 54.6875 
L 18.109375 46.1875 
Q 21.34375 51.125 25.703125 53.5625 
Q 30.078125 56 35.796875 56 
Q 45.21875 56 50.046875 50.171875 
Q 54.890625 44.34375 54.890625 33.015625 
z
" id="DejaVuSans-110"/>
      </defs>
      <use xlink:href="#DejaVuSans-108"/>
      <use x="27.783203" xlink:href="#DejaVuSans-111"/>
      <use x="88.964844" xlink:href="#DejaVuSans-103"/>
      <use x="152.441406" xlink:href="#DejaVuSans-49"/>
      <use x="216.064453" xlink:href="#DejaVuSans-48"/>
      <use x="279.6875" xlink:href="#DejaVuSans-32"/>
      <use x="311.474609" xlink:href="#DejaVuSans-111"/>
      <use x="372.65625" xlink:href="#DejaVuSans-102"/>
      <use x="407.861328" xlink:href="#DejaVuSans-32"/>
      <use x="439.648438" xlink:href="#DejaVuSans-40"/>
      <use x="478.662109" xlink:href="#DejaVuSans-102"/>
      <use x="513.867188" xlink:href="#DejaVuSans-43"/>
      <use x="597.65625" xlink:href="#DejaVuSans-103"/>
      <use x="661.132812" xlink:href="#DejaVuSans-41"/>
      <use x="700.146484" xlink:href="#DejaVuSans-45"/>
      <use x="736.230469" xlink:href="#DejaVuSans-101"/>
      <use x="797.753906" xlink:href="#DejaVuSans-118"/>
      <use x="856.933594" xlink:href="#DejaVuSans-97"/>
      <use x="918.212891" xlink:href="#DejaVuSans-108"/>
      <use x="945.996094" xlink:href="#DejaVuSans-115"/>
      <use x="998.095703" xlink:href="#DejaVuSans-32"/>
      <use x="1029.882812" xlink:href="#DejaVuSans-47"/>
      <use x="1063.574219" xlink:href="#DejaVuSans-32"/>
      <use x="1095.361328" xlink:href="#DejaVuSans-100"/>
      <use x="1158.837891" xlink:href="#DejaVuSans-105"/>
      <use x="1186.621094" xlink:href="#DejaVuSans-109"/>
      <use x="1284.033203" xlink:href="#DejaVuSans-101"/>
      <use x="1345.556641" xlink:href="#DejaVuSans-110"/>
      <use x="1408.935547" xlink:href="#DejaVuSans-115"/>
      <use x="1461.035156" xlink:href="#DejaVuSans-105"/>
      <use x="1488.818359" xlink:href="#DejaVuSans-111"/>
      <use x="1550" xlink:href="#DejaVuSans-110"/>
     </g>
    </g>
   </g>
   <g id="matplotlib.axis_2">
    <g id="ytick_1">
     <g id="line2d_73">
      <path clip-path="url(#p8dd5d574d2)" d="M 62.208 293.76 
L 460.8 293.76 
" style="fill:none;stroke:#b0b0b0;stroke-linecap:square;stroke-width:0.8;"/>
     </g>
     <g id="line2d_74">
      <defs>
       <path d="M 0 0 
L -3.5 0 
" id="m56c47011e5" style="stroke:#000000;stroke-width:0.8;"/>
      </defs>
      <g>
       <use style="stroke:#000000;stroke-width:0.8;" x="62.208" xlink:href="#m56c47011e5" y="293.76"/>
      </g>
     </g>
     <g id="text_6">
      <!-- 0.0 -->
      <g transform="translate(29.763 299.83875)scale(0.16 -0.16)">
       <defs>
        <path d="M 10.6875 12.40625 
L 21 12.40625 
L 21 0 
L 10.6875 0 
z
" id="DejaVuSans-46"/>
       </defs>
       <use xlink:href="#DejaVuSans-48"/>
       <use x="63.623047" xlink:href="#DejaVuSans-46"/>
       <use x="95.410156" xlink:href="#DejaVuSans-48"/>
      </g>
     </g>
    </g>
    <g id="ytick_2">
     <g id="line2d_75">
      <path clip-path="url(#p8dd5d574d2)" d="M 62.208 236.274059 
L 460.8 236.274059 
" style="fill:none;stroke:#b0b0b0;stroke-linecap:square;stroke-width:0.8;"/>
     </g>
     <g id="line2d_76">
      <g>
       <use style="stroke:#000000;stroke-width:0.8;" x="62.208" xlink:href="#m56c47011e5" y="236.274059"/>
      </g>
     </g>
     <g id="text_7">
      <!-- 0.2 -->
      <g transform="translate(29.763 242.352809)scale(0.16 -0.16)">
       <use xlink:href="#DejaVuSans-48"/>
       <use x="63.623047" xlink:href="#DejaVuSans-46"/>
       <use x="95.410156" xlink:href="#DejaVuSans-50"/>
      </g>
     </g>
    </g>
    <g id="ytick_3">
     <g id="line2d_77">
      <path clip-path="url(#p8dd5d574d2)" d="M 62.208 178.788119 
L 460.8 178.788119 
" style="fill:none;stroke:#b0b0b0;stroke-linecap:square;stroke-width:0.8;"/>
     </g>
     <g id="line2d_78">
      <g>
       <use style="stroke:#000000;stroke-width:0.8;" x="62.208" xlink:href="#m56c47011e5" y="178.788119"/>
      </g>
     </g>
     <g id="text_8">
      <!-- 0.4 -->
      <g transform="translate(29.763 184.866869)scale(0.16 -0.16)">
       <defs>
        <path d="M 37.796875 64.3125 
L 12.890625 25.390625 
L 37.796875 25.390625 
z
M 35.203125 72.90625 
L 47.609375 72.90625 
L 47.609375 25.390625 
L 58.015625 25.390625 
L 58.015625 17.1875 
L 47.609375 17.1875 
L 47.609375 0 
L 37.796875 0 
L 37.796875 17.1875 
L 4.890625 17.1875 
L 4.890625 26.703125 
z
" id="DejaVuSans-52"/>
       </defs>
       <use xlink:href="#DejaVuSans-48"/>
       <use x="63.623047" xlink:href="#DejaVuSans-46"/>
       <use x="95.410156" xlink:href="#DejaVuSans-52"/>
      </g>
     </g>
    </g>
    <g id="ytick_4">
     <g id="line2d_79">
      <path clip-path="url(#p8dd5d574d2)" d="M 62.208 121.302178 
L 460.8 121.302178 
" style="fill:none;stroke:#b0b0b0;stroke-linecap:square;stroke-width:0.8;"/>
     </g>
     <g id="line2d_80">
      <g>
       <use style="stroke:#000000;stroke-width:0.8;" x="62.208" xlink:href="#m56c47011e5" y="121.302178"/>
      </g>
     </g>
     <g id="text_9">
      <!-- 0.6 -->
      <g transform="translate(29.763 127.380928)scale(0.16 -0.16)">
       <defs>
        <path d="M 33.015625 40.375 
Q 26.375 40.375 22.484375 35.828125 
Q 18.609375 31.296875 18.609375 23.390625 
Q 18.609375 15.53125 22.484375 10.953125 
Q 26.375 6.390625 33.015625 6.390625 
Q 39.65625 6.390625 43.53125 10.953125 
Q 47.40625 15.53125 47.40625 23.390625 
Q 47.40625 31.296875 43.53125 35.828125 
Q 39.65625 40.375 33.015625 40.375 
z
M 52.59375 71.296875 
L 52.59375 62.3125 
Q 48.875 64.0625 45.09375 64.984375 
Q 41.3125 65.921875 37.59375 65.921875 
Q 27.828125 65.921875 22.671875 59.328125 
Q 17.53125 52.734375 16.796875 39.40625 
Q 19.671875 43.65625 24.015625 45.921875 
Q 28.375 48.1875 33.59375 48.1875 
Q 44.578125 48.1875 50.953125 41.515625 
Q 57.328125 34.859375 57.328125 23.390625 
Q 57.328125 12.15625 50.6875 5.359375 
Q 44.046875 -1.421875 33.015625 -1.421875 
Q 20.359375 -1.421875 13.671875 8.265625 
Q 6.984375 17.96875 6.984375 36.375 
Q 6.984375 53.65625 15.1875 63.9375 
Q 23.390625 74.21875 37.203125 74.21875 
Q 40.921875 74.21875 44.703125 73.484375 
Q 48.484375 72.75 52.59375 71.296875 
z
" id="DejaVuSans-54"/>
       </defs>
       <use xlink:href="#DejaVuSans-48"/>
       <use x="63.623047" xlink:href="#DejaVuSans-46"/>
       <use x="95.410156" xlink:href="#DejaVuSans-54"/>
      </g>
     </g>
    </g>
    <g id="ytick_5">
     <g id="line2d_81">
      <path clip-path="url(#p8dd5d574d2)" d="M 62.208 63.816238 
L 460.8 63.816238 
" style="fill:none;stroke:#b0b0b0;stroke-linecap:square;stroke-width:0.8;"/>
     </g>
     <g id="line2d_82">
      <g>
       <use style="stroke:#000000;stroke-width:0.8;" x="62.208" xlink:href="#m56c47011e5" y="63.816238"/>
      </g>
     </g>
     <g id="text_10">
      <!-- 0.8 -->
      <g transform="translate(29.763 69.894988)scale(0.16 -0.16)">
       <defs>
        <path d="M 31.78125 34.625 
Q 24.75 34.625 20.71875 30.859375 
Q 16.703125 27.09375 16.703125 20.515625 
Q 16.703125 13.921875 20.71875 10.15625 
Q 24.75 6.390625 31.78125 6.390625 
Q 38.8125 6.390625 42.859375 10.171875 
Q 46.921875 13.96875 46.921875 20.515625 
Q 46.921875 27.09375 42.890625 30.859375 
Q 38.875 34.625 31.78125 34.625 
z
M 21.921875 38.8125 
Q 15.578125 40.375 12.03125 44.71875 
Q 8.5 49.078125 8.5 55.328125 
Q 8.5 64.0625 14.71875 69.140625 
Q 20.953125 74.21875 31.78125 74.21875 
Q 42.671875 74.21875 48.875 69.140625 
Q 55.078125 64.0625 55.078125 55.328125 
Q 55.078125 49.078125 51.53125 44.71875 
Q 48 40.375 41.703125 38.8125 
Q 48.828125 37.15625 52.796875 32.3125 
Q 56.78125 27.484375 56.78125 20.515625 
Q 56.78125 9.90625 50.3125 4.234375 
Q 43.84375 -1.421875 31.78125 -1.421875 
Q 19.734375 -1.421875 13.25 4.234375 
Q 6.78125 9.90625 6.78125 20.515625 
Q 6.78125 27.484375 10.78125 32.3125 
Q 14.796875 37.15625 21.921875 38.8125 
z
M 18.3125 54.390625 
Q 18.3125 48.734375 21.84375 45.5625 
Q 25.390625 42.390625 31.78125 42.390625 
Q 38.140625 42.390625 41.71875 45.5625 
Q 45.3125 48.734375 45.3125 54.390625 
Q 45.3125 60.0625 41.71875 63.234375 
Q 38.140625 66.40625 31.78125 66.40625 
Q 25.390625 66.40625 21.84375 63.234375 
Q 18.3125 60.0625 18.3125 54.390625 
z
" id="DejaVuSans-56"/>
       </defs>
       <use xlink:href="#DejaVuSans-48"/>
       <use x="63.623047" xlink:href="#DejaVuSans-46"/>
       <use x="95.410156" xlink:href="#DejaVuSans-56"/>
      </g>
     </g>
    </g>
    <g id="ytick_6">
     <g id="line2d_83">
      <path clip-path="url(#p8dd5d574d2)" d="M 62.208 6.330297 
L 460.8 6.330297 
" style="fill:none;stroke:#b0b0b0;stroke-linecap:square;stroke-width:0.8;"/>
     </g>
     <g id="line2d_84">
      <g>
       <use style="stroke:#000000;stroke-width:0.8;" x="62.208" xlink:href="#m56c47011e5" y="6.330297"/>
      </g>
     </g>
     <g id="text_11">
      <!-- 1.0 -->
      <g transform="translate(29.763 12.409047)scale(0.16 -0.16)">
       <use xlink:href="#DejaVuSans-49"/>
       <use x="63.623047" xlink:href="#DejaVuSans-46"/>
       <use x="95.410156" xlink:href="#DejaVuSans-48"/>
      </g>
     </g>
    </g>
    <g id="text_12">
     <!-- proportion of trials -->
     <g transform="translate(21.603625 241.61425)rotate(-90)scale(0.2 -0.2)">
      <defs>
       <path d="M 18.109375 8.203125 
L 18.109375 -20.796875 
L 9.078125 -20.796875 
L 9.078125 54.6875 
L 18.109375 54.6875 
L 18.109375 46.390625 
Q 20.953125 51.265625 25.265625 53.625 
Q 29.59375 56 35.59375 56 
Q 45.5625 56 51.78125 48.09375 
Q 58.015625 40.1875 58.015625 27.296875 
Q 58.015625 14.40625 51.78125 6.484375 
Q 45.5625 -1.421875 35.59375 -1.421875 
Q 29.59375 -1.421875 25.265625 0.953125 
Q 20.953125 3.328125 18.109375 8.203125 
z
M 48.6875 27.296875 
Q 48.6875 37.203125 44.609375 42.84375 
Q 40.53125 48.484375 33.40625 48.484375 
Q 26.265625 48.484375 22.1875 42.84375 
Q 18.109375 37.203125 18.109375 27.296875 
Q 18.109375 17.390625 22.1875 11.75 
Q 26.265625 6.109375 33.40625 6.109375 
Q 40.53125 6.109375 44.609375 11.75 
Q 48.6875 17.390625 48.6875 27.296875 
z
" id="DejaVuSans-112"/>
       <path d="M 41.109375 46.296875 
Q 39.59375 47.171875 37.8125 47.578125 
Q 36.03125 48 33.890625 48 
Q 26.265625 48 22.1875 43.046875 
Q 18.109375 38.09375 18.109375 28.8125 
L 18.109375 0 
L 9.078125 0 
L 9.078125 54.6875 
L 18.109375 54.6875 
L 18.109375 46.1875 
Q 20.953125 51.171875 25.484375 53.578125 
Q 30.03125 56 36.53125 56 
Q 37.453125 56 38.578125 55.875 
Q 39.703125 55.765625 41.0625 55.515625 
z
" id="DejaVuSans-114"/>
       <path d="M 18.3125 70.21875 
L 18.3125 54.6875 
L 36.8125 54.6875 
L 36.8125 47.703125 
L 18.3125 47.703125 
L 18.3125 18.015625 
Q 18.3125 11.328125 20.140625 9.421875 
Q 21.96875 7.515625 27.59375 7.515625 
L 36.8125 7.515625 
L 36.8125 0 
L 27.59375 0 
Q 17.1875 0 13.234375 3.875 
Q 9.28125 7.765625 9.28125 18.015625 
L 9.28125 47.703125 
L 2.6875 47.703125 
L 2.6875 54.6875 
L 9.28125 54.6875 
L 9.28125 70.21875 
z
" id="DejaVuSans-116"/>
      </defs>
      <use xlink:href="#DejaVuSans-112"/>
      <use x="63.476562" xlink:href="#DejaVuSans-114"/>
      <use x="102.339844" xlink:href="#DejaVuSans-111"/>
      <use x="163.521484" xlink:href="#DejaVuSans-112"/>
      <use x="226.998047" xlink:href="#DejaVuSans-111"/>
      <use x="288.179688" xlink:href="#DejaVuSans-114"/>
      <use x="329.292969" xlink:href="#DejaVuSans-116"/>
      <use x="368.501953" xlink:href="#DejaVuSans-105"/>
      <use x="396.285156" xlink:href="#DejaVuSans-111"/>
      <use x="457.466797" xlink:href="#DejaVuSans-110"/>
      <use x="520.845703" xlink:href="#DejaVuSans-32"/>
      <use x="552.632812" xlink:href="#DejaVuSans-111"/>
      <use x="613.814453" xlink:href="#DejaVuSans-102"/>
      <use x="649.019531" xlink:href="#DejaVuSans-32"/>
      <use x="680.806641" xlink:href="#DejaVuSans-116"/>
      <use x="720.015625" xlink:href="#DejaVuSans-114"/>
      <use x="761.128906" xlink:href="#DejaVuSans-105"/>
      <use x="788.912109" xlink:href="#DejaVuSans-97"/>
      <use x="850.191406" xlink:href="#DejaVuSans-108"/>
      <use x="877.974609" xlink:href="#DejaVuSans-115"/>
     </g>
    </g>
   </g>
   <g id="line2d_85">
    <path clip-path="url(#p8dd5d574d2)" d="M 149.998013 293.76 
L 149.998013 289.501782 
L 161.877231 289.501782 
L 161.877231 251.177822 
L 171.188498 251.177822 
L 171.188498 221.370297 
L 172.562766 221.370297 
L 172.562766 219.241188 
L 178.847085 219.241188 
L 178.847085 195.82099 
L 185.35217 195.82099 
L 185.35217 189.433663 
L 186.34729 189.433663 
L 186.34729 187.304554 
L 187.320045 187.304554 
L 187.320045 183.046337 
L 191.006169 183.046337 
L 191.006169 172.400792 
L 191.880659 172.400792 
L 191.880659 166.013465 
L 193.578359 166.013465 
L 193.578359 163.884356 
L 195.211979 163.884356 
L 195.211979 161.755248 
L 196.006236 161.755248 
L 196.006236 159.626139 
L 198.305137 159.626139 
L 198.305137 151.109703 
L 200.488077 151.109703 
L 200.488077 148.980594 
L 201.191926 148.980594 
L 201.191926 146.851485 
L 203.89817 146.851485 
L 203.89817 144.722376 
L 205.8223 144.722376 
L 205.8223 140.464158 
L 207.059121 140.464158 
L 207.059121 138.33505 
L 210.00487 138.33505 
L 210.00487 136.205941 
L 212.762859 136.205941 
L 212.762859 134.076832 
L 216.350718 134.076832 
L 216.350718 131.947723 
L 220.565636 131.947723 
L 220.565636 129.818614 
L 221.009597 129.818614 
L 221.009597 127.689505 
L 221.44905 127.689505 
L 221.44905 123.431287 
L 221.884087 123.431287 
L 221.884087 121.302178 
L 222.314795 121.302178 
L 222.314795 117.04396 
L 224.812746 117.04396 
L 224.812746 114.914851 
L 227.55575 114.914851 
L 227.55575 112.785743 
L 227.933794 112.785743 
L 227.933794 110.656634 
L 228.68012 110.656634 
L 228.68012 108.527525 
L 231.887942 108.527525 
L 231.887942 106.398416 
L 234.552525 106.398416 
L 234.552525 104.269307 
L 234.874354 104.269307 
L 234.874354 102.140198 
L 237.967512 102.140198 
L 237.967512 100.011089 
L 240.574133 100.011089 
L 240.574133 97.88198 
L 244.59738 97.88198 
L 244.59738 95.752871 
L 249.894467 95.752871 
L 249.894467 93.623762 
L 255.218835 93.623762 
L 255.218835 91.494653 
L 255.617786 91.494653 
L 255.617786 89.365545 
L 259.959432 89.365545 
L 259.959432 87.236436 
L 261.372971 87.236436 
L 261.372971 85.107327 
L 273.300836 85.107327 
L 273.300836 82.978218 
L 277.927384 82.978218 
L 277.927384 80.849109 
L 279.327586 80.849109 
L 279.327586 78.72 
L 283.380037 78.72 
L 283.380037 76.590891 
L 286.212828 76.590891 
L 286.212828 74.461782 
L 287.562606 74.461782 
L 287.562606 72.332673 
L 290.231439 72.332673 
L 290.231439 70.203564 
L 291.54989 70.203564 
L 291.54989 68.074455 
L 293.080785 68.074455 
L 293.080785 65.945347 
L 297.674811 65.945347 
L 297.674811 63.816238 
L 297.974368 63.816238 
L 297.974368 61.687129 
L 303.039519 61.687129 
L 303.039519 59.55802 
L 305.804065 59.55802 
L 305.804065 57.428911 
L 312.485496 57.428911 
L 312.485496 55.299802 
L 313.278783 55.299802 
L 313.278783 53.170693 
L 318.084998 53.170693 
L 318.084998 51.041584 
L 329.94733 51.041584 
L 329.94733 48.912475 
L 331.660112 48.912475 
L 331.660112 46.783366 
L 333.009739 46.783366 
L 333.009739 44.654257 
L 333.307693 44.654257 
L 333.307693 42.525149 
L 333.995043 42.525149 
L 333.995043 40.39604 
L 334.735539 40.39604 
L 334.735539 38.266931 
L 337.457257 38.266931 
L 337.457257 36.137822 
L 343.699427 36.137822 
L 343.699427 34.008713 
L 345.128805 34.008713 
L 345.128805 31.879604 
L 350.704335 31.879604 
L 350.704335 29.750495 
L 360.605409 29.750495 
L 360.605409 27.621386 
L 364.530978 27.621386 
L 364.530978 25.492277 
L 374.918289 25.492277 
L 374.918289 23.363168 
L 386.552568 23.363168 
L 386.552568 21.234059 
L 388.031272 21.234059 
L 388.031272 19.10495 
L 391.080384 19.10495 
L 391.080384 16.975842 
L 392.900169 16.975842 
L 392.900169 14.846733 
L 395.611459 14.846733 
L 395.611459 12.717624 
L 395.946496 12.717624 
L 395.946496 10.588515 
L 430.697573 10.588515 
L 430.697573 8.459406 
L 452.919514 8.459406 
L 452.919514 6.330297 
L 452.919514 6.330297 
L 460.8 6.330297 
L 460.8 6.330297 
" style="fill:none;stroke:#000000;stroke-linecap:square;stroke-width:1.5;"/>
   </g>
   <g id="line2d_86">
    <path clip-path="url(#p8dd5d574d2)" style="fill:none;stroke:#000000;stroke-linecap:square;stroke-width:1.5;"/>
   </g>
   <g id="line2d_87">
    <path clip-path="url(#p8dd5d574d2)" d="M 171.188498 293.76 
L 171.188498 280.985347 
L 178.847085 280.985347 
L 178.847085 251.177822 
L 185.35217 251.177822 
L 185.35217 232.015842 
L 191.006169 232.015842 
L 191.006169 219.241188 
L 196.006236 219.241188 
L 196.006236 204.337426 
L 196.786181 204.337426 
L 196.786181 202.208317 
L 200.488077 202.208317 
L 200.488077 191.562772 
L 201.191926 191.562772 
L 201.191926 187.304554 
L 204.549096 187.304554 
L 204.549096 185.175446 
L 205.190379 185.175446 
L 205.190379 178.788119 
L 205.8223 178.788119 
L 205.8223 176.65901 
L 208.261582 176.65901 
L 208.261582 172.400792 
L 211.680658 172.400792 
L 211.680658 170.271683 
L 212.225141 170.271683 
L 212.225141 168.142574 
L 214.849326 168.142574 
L 214.849326 166.013465 
L 215.856018 166.013465 
L 215.856018 163.884356 
L 218.742807 163.884356 
L 218.742807 161.755248 
L 221.884087 161.755248 
L 221.884087 159.626139 
L 222.314795 159.626139 
L 222.314795 157.49703 
L 223.581787 157.49703 
L 223.581787 155.367921 
L 230.135241 155.367921 
L 230.135241 153.238812 
L 232.569622 153.238812 
L 232.569622 151.109703 
L 234.874354 151.109703 
L 234.874354 148.980594 
L 238.853941 148.980594 
L 238.853941 146.851485 
L 239.722582 146.851485 
L 239.722582 144.722376 
L 240.574133 144.722376 
L 240.574133 142.593267 
L 241.957184 142.593267 
L 241.957184 140.464158 
L 242.228569 140.464158 
L 242.228569 138.33505 
L 243.297408 138.33505 
L 243.297408 134.076832 
L 245.859446 134.076832 
L 245.859446 129.818614 
L 246.354146 129.818614 
L 246.354146 127.689505 
L 247.085754 127.689505 
L 247.085754 125.560396 
L 248.512888 125.560396 
L 248.512888 123.431287 
L 248.978331 123.431287 
L 248.978331 121.302178 
L 251.670543 121.302178 
L 251.670543 119.173069 
L 258.125013 119.173069 
L 258.125013 117.04396 
L 258.311993 117.04396 
L 258.311993 114.914851 
L 259.779449 114.914851 
L 259.779449 112.785743 
L 261.546462 112.785743 
L 261.546462 110.656634 
L 262.233552 110.656634 
L 262.233552 108.527525 
L 263.410326 108.527525 
L 263.410326 106.398416 
L 266.760069 106.398416 
L 266.760069 104.269307 
L 267.218124 104.269307 
L 267.218124 102.140198 
L 269.438396 102.140198 
L 269.438396 100.011089 
L 273.432604 100.011089 
L 273.432604 97.88198 
L 280.572492 97.88198 
L 280.572492 95.752871 
L 281.455907 95.752871 
L 281.455907 93.623762 
L 286.796466 93.623762 
L 286.796466 91.494653 
L 289.872962 91.494653 
L 289.872962 89.365545 
L 293.080785 89.365545 
L 293.080785 87.236436 
L 295.121021 87.236436 
L 295.121021 85.107327 
L 296.067196 85.107327 
L 296.067196 82.978218 
L 297.674811 82.978218 
L 297.674811 80.849109 
L 298.933854 80.849109 
L 299.006787 76.590891 
L 299.729438 76.590891 
L 299.729438 74.461782 
L 304.668221 74.461782 
L 304.668221 72.332673 
L 306.971531 72.332673 
L 306.971531 70.203564 
L 314.620286 70.203564 
L 314.620286 68.074455 
L 318.597814 68.074455 
L 318.597814 65.945347 
L 318.782796 65.945347 
L 318.782796 63.816238 
L 322.706535 63.816238 
L 322.706535 61.687129 
L 323.375701 61.687129 
L 323.375701 59.55802 
L 332.001484 59.55802 
L 332.001484 57.428911 
L 336.609676 57.428911 
L 336.609676 55.299802 
L 337.874904 55.299802 
L 337.874904 53.170693 
L 340.662939 53.170693 
L 340.662939 51.041584 
L 341.161118 51.041584 
L 341.161118 48.912475 
L 341.78945 48.912475 
L 341.78945 46.783366 
L 345.254162 46.783366 
L 345.254162 44.654257 
L 348.088426 44.654257 
L 348.088426 42.525149 
L 349.245251 42.525149 
L 349.245251 40.39604 
L 349.789734 40.39604 
L 349.789734 38.266931 
L 355.56411 38.266931 
L 355.56411 36.137822 
L 356.770354 36.137822 
L 356.770354 34.008713 
L 359.140981 34.008713 
L 359.140981 31.879604 
L 368.832611 31.879604 
L 368.832611 29.750495 
L 376.198623 29.750495 
L 376.198623 27.621386 
L 380.784951 27.621386 
L 380.784951 25.492277 
L 389.506182 25.492277 
L 389.506182 23.363168 
L 392.540602 23.363168 
L 392.540602 21.234059 
L 394.317353 21.234059 
L 394.317353 19.10495 
L 397.978141 19.10495 
L 397.978141 16.975842 
L 430.815651 16.975842 
L 430.815651 14.846733 
L 431.143876 14.846733 
L 431.143876 12.717624 
L 443.748462 12.717624 
L 443.748462 10.588515 
L 453.141637 10.588515 
L 453.141637 8.459406 
L 454.348381 8.459406 
L 454.348381 6.330297 
L 454.348381 6.330297 
L 460.8 6.330297 
L 460.8 6.330297 
" style="fill:none;stroke:#00bfbf;stroke-linecap:square;stroke-width:1.5;"/>
   </g>
   <g id="line2d_88">
    <path clip-path="url(#p8dd5d574d2)" style="fill:none;stroke:#00bfbf;stroke-linecap:square;stroke-width:1.5;"/>
   </g>
   <g id="line2d_89">
    <path clip-path="url(#p8dd5d574d2)" d="M 178.847085 293.76 
L 178.847085 287.372673 
L 180.567277 287.372673 
L 180.567277 285.243564 
L 185.35217 285.243564 
L 185.35217 266.081584 
L 191.006169 266.081584 
L 191.006169 244.790495 
L 196.006236 244.790495 
L 196.006236 229.886733 
L 200.488077 229.886733 
L 200.488077 221.370297 
L 201.191926 221.370297 
L 201.191926 219.241188 
L 204.549096 219.241188 
L 204.549096 206.466535 
L 205.8223 206.466535 
L 205.8223 204.337426 
L 208.261582 204.337426 
L 208.261582 189.433663 
L 211.680658 189.433663 
L 211.680658 185.175446 
L 212.225141 185.175446 
L 212.225141 178.788119 
L 215.355598 178.788119 
L 215.355598 176.65901 
L 215.856018 176.65901 
L 215.856018 174.529901 
L 217.801774 174.529901 
L 217.801774 172.400792 
L 220.565636 172.400792 
L 220.565636 170.271683 
L 223.996008 170.271683 
L 223.996008 168.142574 
L 226.401394 168.142574 
L 226.401394 166.013465 
L 231.195355 166.013465 
L 231.195355 163.884356 
L 234.552525 163.884356 
L 234.552525 161.755248 
L 235.510921 161.755248 
L 235.510921 159.626139 
L 237.062549 159.626139 
L 237.062549 157.49703 
L 237.817992 157.49703 
L 237.817992 155.367921 
L 244.082066 155.367921 
L 244.082066 153.238812 
L 246.354146 153.238812 
L 246.354146 151.109703 
L 250.120503 151.109703 
L 250.120503 148.980594 
L 251.887515 148.980594 
L 251.887515 146.851485 
L 253.585215 146.851485 
L 253.585215 144.722376 
L 253.792821 144.722376 
L 253.792821 142.593267 
L 255.81589 142.593267 
L 255.81589 140.464158 
L 256.2094 140.464158 
L 256.2094 138.33505 
L 259.959432 138.33505 
L 259.959432 136.205941 
L 262.57305 136.205941 
L 262.57305 134.076832 
L 262.741806 134.076832 
L 262.741806 131.947723 
L 263.905026 131.947723 
L 263.905026 129.818614 
L 265.514349 129.818614 
L 265.514349 127.689505 
L 265.985705 127.689505 
L 265.985705 125.560396 
L 267.369739 125.560396 
L 267.369739 123.431287 
L 269.582442 123.431287 
L 269.582442 121.302178 
L 270.857729 121.302178 
L 270.857729 119.173069 
L 274.085495 119.173069 
L 274.085495 117.04396 
L 274.600808 117.04396 
L 274.600808 114.914851 
L 275.862874 114.914851 
L 275.862874 112.785743 
L 278.516316 112.785743 
L 278.516316 110.656634 
L 279.784433 110.656634 
L 279.784433 108.527525 
L 281.401218 108.527525 
L 281.401218 106.398416 
L 284.31095 106.398416 
L 284.31095 104.269307 
L 286.310649 104.269307 
L 286.310649 102.140198 
L 293.744182 102.140198 
L 293.744182 100.011089 
L 295.200664 100.011089 
L 295.200664 97.88198 
L 295.399132 97.88198 
L 295.399132 95.752871 
L 299.729438 95.752871 
L 299.729438 93.623762 
L 300.157308 93.623762 
L 300.157308 91.494653 
L 302.167738 91.494653 
L 302.167738 89.365545 
L 305.616815 89.365545 
L 305.616815 87.236436 
L 307.243485 87.236436 
L 307.243485 85.107327 
L 308.108335 85.107327 
L 308.108335 82.978218 
L 318.644134 82.978218 
L 318.644134 80.849109 
L 321.812257 80.849109 
L 321.812257 78.72 
L 322.874799 78.72 
L 322.874799 76.590891 
L 325.914358 76.590891 
L 325.914358 74.461782 
L 326.996559 74.461782 
L 326.996559 72.332673 
L 328.386331 72.332673 
L 328.386331 70.203564 
L 330.514091 70.203564 
L 330.514091 68.074455 
L 337.337186 68.074455 
L 337.337186 65.945347 
L 338.170776 65.945347 
L 338.170776 63.816238 
L 338.6983 63.816238 
L 338.6983 61.687129 
L 341.870738 61.687129 
L 341.870738 59.55802 
L 342.382046 59.55802 
L 342.382046 57.428911 
L 342.59554 57.428911 
L 342.59554 55.299802 
L 347.044201 55.299802 
L 347.044201 53.170693 
L 347.188087 53.170693 
L 347.188087 51.041584 
L 347.994531 51.041584 
L 347.994531 48.912475 
L 352.762616 48.912475 
L 352.762616 46.783366 
L 354.099375 46.783366 
L 354.099375 44.654257 
L 357.493386 44.654257 
L 357.493386 42.525149 
L 359.358407 42.525149 
L 359.358407 40.39604 
L 360.552697 40.39604 
L 360.552697 38.266931 
L 366.090286 38.266931 
L 366.090286 36.137822 
L 375.420014 36.137822 
L 375.420014 34.008713 
L 379.396821 34.008713 
L 379.396821 31.879604 
L 381.797594 31.879604 
L 381.797594 29.750495 
L 390.158721 29.750495 
L 390.158721 27.621386 
L 395.611459 27.621386 
L 395.611459 25.492277 
L 399.470275 25.492277 
L 399.470275 23.363168 
L 414.039854 23.363168 
L 414.039854 21.234059 
L 432.21473 21.234059 
L 432.21473 19.10495 
L 441.983004 19.10495 
L 441.983004 16.975842 
L 444.985936 16.975842 
L 444.985936 14.846733 
L 453.294591 14.846733 
L 453.294591 12.717624 
L 454.463008 12.717624 
L 454.463008 10.588515 
L 459.504847 10.588515 
L 459.504847 8.459406 
L 460.37637 8.459406 
L 460.37637 6.330297 
L 460.37637 6.330297 
L 460.8 6.330297 
L 460.8 6.330297 
" style="fill:none;stroke:#bf00bf;stroke-linecap:square;stroke-width:1.5;"/>
   </g>
   <g id="line2d_90">
    <path clip-path="url(#p8dd5d574d2)" style="fill:none;stroke:#bf00bf;stroke-linecap:square;stroke-width:1.5;"/>
   </g>
   <g id="line2d_91">
    <path clip-path="url(#p8dd5d574d2)" d="M 185.35217 293.76 
L 185.35217 285.243564 
L 191.006169 285.243564 
L 191.006169 266.081584 
L 196.006236 266.081584 
L 196.006236 253.306931 
L 200.488077 253.306931 
L 200.488077 240.532277 
L 204.549096 240.532277 
L 204.549096 227.757624 
L 208.261582 227.757624 
L 208.261582 217.112079 
L 208.850513 217.112079 
L 208.850513 214.98297 
L 211.680658 214.98297 
L 211.680658 206.466535 
L 212.762859 206.466535 
L 212.762859 204.337426 
L 214.849326 204.337426 
L 214.849326 193.691881 
L 217.801774 193.691881 
L 217.801774 191.562772 
L 218.274848 191.562772 
L 218.274848 187.304554 
L 218.742807 187.304554 
L 218.742807 185.175446 
L 221.009597 185.175446 
L 221.009597 183.046337 
L 223.163563 183.046337 
L 223.163563 180.917228 
L 235.510921 180.917228 
L 235.510921 178.788119 
L 240.854301 178.788119 
L 240.854301 176.65901 
L 242.498263 176.65901 
L 242.498263 174.529901 
L 246.843256 174.529901 
L 246.843256 172.400792 
L 251.013025 172.400792 
L 251.013025 170.271683 
L 251.452478 170.271683 
L 251.452478 168.142574 
L 255.617786 168.142574 
L 255.617786 166.013465 
L 258.125013 166.013465 
L 258.125013 163.884356 
L 258.498169 163.884356 
L 258.498169 161.755248 
L 259.598715 161.755248 
L 259.598715 159.626139 
L 261.372971 159.626139 
L 261.372971 157.49703 
L 262.403634 157.49703 
L 262.403634 155.367921 
L 267.520824 155.367921 
L 267.520824 153.238812 
L 267.671383 153.238812 
L 267.671383 151.109703 
L 267.821421 151.109703 
L 267.821421 148.980594 
L 270.011726 148.980594 
L 270.011726 146.851485 
L 270.436794 146.851485 
L 270.436794 144.722376 
L 272.769716 144.722376 
L 272.769716 142.593267 
L 273.168666 142.593267 
L 273.168666 140.464158 
L 273.300836 140.464158 
L 273.300836 138.33505 
L 276.60282 138.33505 
L 276.60282 136.205941 
L 278.163919 136.205941 
L 278.163919 134.076832 
L 280.123931 134.076832 
L 280.123931 131.947723 
L 280.572492 131.947723 
L 280.572492 129.818614 
L 283.484466 129.818614 
L 283.484466 127.689505 
L 285.121949 127.689505 
L 285.121949 125.560396 
L 286.212828 125.560396 
L 286.310649 121.302178 
L 286.40825 121.302178 
L 286.40825 119.173069 
L 289.238395 119.173069 
L 289.238395 117.04396 
L 290.763648 117.04396 
L 290.763648 114.914851 
L 296.145119 114.914851 
L 296.145119 112.785743 
L 298.271866 112.785743 
L 298.271866 110.656634 
L 299.58587 110.656634 
L 299.58587 108.527525 
L 300.015154 108.527525 
L 300.015154 106.398416 
L 306.483799 106.398416 
L 306.483799 104.269307 
L 306.850112 104.269307 
L 306.850112 102.140198 
L 308.636575 102.140198 
L 308.636575 100.011089 
L 313.851424 100.011089 
L 313.851424 97.88198 
L 318.921016 97.88198 
L 318.921016 95.752871 
L 325.678895 95.752871 
L 325.678895 93.623762 
L 326.381475 93.623762 
L 326.381475 91.494653 
L 328.827651 91.494653 
L 328.827651 89.365545 
L 329.589298 89.365545 
L 329.589298 87.236436 
L 330.619538 87.236436 
L 330.619538 85.107327 
L 335.494959 85.107327 
L 335.494959 82.978218 
L 336.117787 82.978218 
L 336.117787 80.849109 
L 339.190683 80.849109 
L 339.190683 78.72 
L 339.592012 78.72 
L 339.592012 76.590891 
L 340.074389 76.590891 
L 340.074389 72.332673 
L 343.151002 72.332673 
L 343.151002 70.203564 
L 345.10369 70.203564 
L 345.10369 68.074455 
L 348.322278 68.074455 
L 348.322278 65.945347 
L 348.438732 65.945347 
L 348.438732 63.816238 
L 348.866906 63.816238 
L 348.866906 61.687129 
L 354.363872 61.687129 
L 354.363872 59.55802 
L 357.719226 59.55802 
L 357.719226 57.428911 
L 359.79001 57.428911 
L 359.79001 55.299802 
L 366.183008 55.299802 
L 366.183008 53.170693 
L 373.022823 53.170693 
L 373.022823 51.041584 
L 380.230566 51.041584 
L 380.230566 48.912475 
L 380.530815 48.912475 
L 380.530815 46.783366 
L 382.787087 46.783366 
L 382.787087 44.654257 
L 393.223725 44.654257 
L 393.223725 42.525149 
L 398.836039 42.525149 
L 398.836039 40.39604 
L 399.598868 40.39604 
L 399.598868 38.266931 
L 403.699795 38.266931 
L 403.699795 36.137822 
L 409.405936 36.137822 
L 409.405936 34.008713 
L 414.57814 34.008713 
L 414.57814 31.879604 
L 416.153965 31.879604 
L 416.153965 29.750495 
L 418.116162 29.750495 
L 418.116162 27.621386 
L 427.758829 27.621386 
L 427.758829 25.492277 
L 432.35553 25.492277 
L 432.35553 23.363168 
L 437.46985 23.363168 
L 437.46985 21.234059 
L 443.037823 21.234059 
L 443.037823 19.10495 
L 445.060868 19.10495 
L 445.060868 16.975842 
L 453.368805 16.975842 
L 453.368805 14.846733 
L 454.523216 14.846733 
L 454.523216 12.717624 
L 459.518251 12.717624 
L 459.518251 10.588515 
L 460.636618 10.588515 
L 460.636618 8.459406 
L 460.636618 8.459406 
L 460.8 8.459406 
L 460.8 8.459406 
" style="fill:none;stroke:#ff0000;stroke-linecap:square;stroke-width:3;"/>
   </g>
   <g id="line2d_92">
    <path clip-path="url(#p8dd5d574d2)" style="fill:none;stroke:#ff0000;stroke-linecap:square;stroke-width:3;"/>
   </g>
   <g id="line2d_93">
    <path clip-path="url(#p8dd5d574d2)" d="M 460.657509 293.76 
L 460.657509 3.456 
" style="fill:none;stroke:#000000;stroke-linecap:square;stroke-width:1.5;"/>
   </g>
   <g id="patch_3">
    <path d="M 62.208 293.76 
L 62.208 3.456 
" style="fill:none;stroke:#000000;stroke-linecap:square;stroke-linejoin:miter;stroke-width:0.8;"/>
   </g>
   <g id="patch_4">
    <path d="M 460.8 293.76 
L 460.8 3.456 
" style="fill:none;stroke:#000000;stroke-linecap:square;stroke-linejoin:miter;stroke-width:0.8;"/>
   </g>
   <g id="patch_5">
    <path d="M 62.208 293.76 
L 460.8 293.76 
" style="fill:none;stroke:#000000;stroke-linecap:square;stroke-linejoin:miter;stroke-width:0.8;"/>
   </g>
   <g id="patch_6">
    <path d="M 62.208 3.456 
L 460.8 3.456 
" style="fill:none;stroke:#000000;stroke-linecap:square;stroke-linejoin:miter;stroke-width:0.8;"/>
   </g>
   <g id="text_13">
    <!-- {f4, f10, f16, f22, f28, f34, f40, f46, f52}, 5-D -->
    <g transform="translate(34.057125 24.458955)scale(0.2 -0.2)">
     <defs>
      <path d="M 51.125 -9.28125 
L 51.125 -16.3125 
L 48.09375 -16.3125 
Q 35.9375 -16.3125 31.8125 -12.6875 
Q 27.6875 -9.078125 27.6875 1.703125 
L 27.6875 13.375 
Q 27.6875 20.75 25.046875 23.578125 
Q 22.40625 26.421875 15.484375 26.421875 
L 12.5 26.421875 
L 12.5 33.40625 
L 15.484375 33.40625 
Q 22.46875 33.40625 25.078125 36.203125 
Q 27.6875 39.015625 27.6875 46.296875 
L 27.6875 58.015625 
Q 27.6875 68.796875 31.8125 72.390625 
Q 35.9375 75.984375 48.09375 75.984375 
L 51.125 75.984375 
L 51.125 69 
L 47.796875 69 
Q 40.921875 69 38.8125 66.84375 
Q 36.71875 64.703125 36.71875 57.8125 
L 36.71875 45.703125 
Q 36.71875 38.03125 34.5 34.5625 
Q 32.28125 31.109375 26.90625 29.890625 
Q 32.328125 28.5625 34.515625 25.09375 
Q 36.71875 21.625 36.71875 14.015625 
L 36.71875 1.90625 
Q 36.71875 -4.984375 38.8125 -7.125 
Q 40.921875 -9.28125 47.796875 -9.28125 
z
" id="DejaVuSans-123"/>
      <path d="M 11.71875 12.40625 
L 22.015625 12.40625 
L 22.015625 4 
L 14.015625 -11.625 
L 7.71875 -11.625 
L 11.71875 4 
z
" id="DejaVuSans-44"/>
      <path d="M 10.796875 72.90625 
L 49.515625 72.90625 
L 49.515625 64.59375 
L 19.828125 64.59375 
L 19.828125 46.734375 
Q 21.96875 47.46875 24.109375 47.828125 
Q 26.265625 48.1875 28.421875 48.1875 
Q 40.625 48.1875 47.75 41.5 
Q 54.890625 34.8125 54.890625 23.390625 
Q 54.890625 11.625 47.5625 5.09375 
Q 40.234375 -1.421875 26.90625 -1.421875 
Q 22.3125 -1.421875 17.546875 -0.640625 
Q 12.796875 0.140625 7.71875 1.703125 
L 7.71875 11.625 
Q 12.109375 9.234375 16.796875 8.0625 
Q 21.484375 6.890625 26.703125 6.890625 
Q 35.15625 6.890625 40.078125 11.328125 
Q 45.015625 15.765625 45.015625 23.390625 
Q 45.015625 31 40.078125 35.4375 
Q 35.15625 39.890625 26.703125 39.890625 
Q 22.75 39.890625 18.8125 39.015625 
Q 14.890625 38.140625 10.796875 36.28125 
z
" id="DejaVuSans-53"/>
      <path d="M 12.5 -9.28125 
L 15.921875 -9.28125 
Q 22.75 -9.28125 24.828125 -7.171875 
Q 26.90625 -5.078125 26.90625 1.90625 
L 26.90625 14.015625 
Q 26.90625 21.625 29.09375 25.09375 
Q 31.296875 28.5625 36.71875 29.890625 
Q 31.296875 31.109375 29.09375 34.5625 
Q 26.90625 38.03125 26.90625 45.703125 
L 26.90625 57.8125 
Q 26.90625 64.75 24.828125 66.875 
Q 22.75 69 15.921875 69 
L 12.5 69 
L 12.5 75.984375 
L 15.578125 75.984375 
Q 27.734375 75.984375 31.8125 72.390625 
Q 35.890625 68.796875 35.890625 58.015625 
L 35.890625 46.296875 
Q 35.890625 39.015625 38.515625 36.203125 
Q 41.15625 33.40625 48.09375 33.40625 
L 51.125 33.40625 
L 51.125 26.421875 
L 48.09375 26.421875 
Q 41.15625 26.421875 38.515625 23.578125 
Q 35.890625 20.75 35.890625 13.375 
L 35.890625 1.703125 
Q 35.890625 -9.078125 31.8125 -12.6875 
Q 27.734375 -16.3125 15.578125 -16.3125 
L 12.5 -16.3125 
z
" id="DejaVuSans-125"/>
      <path d="M 19.671875 64.796875 
L 19.671875 8.109375 
L 31.59375 8.109375 
Q 46.6875 8.109375 53.6875 14.9375 
Q 60.6875 21.78125 60.6875 36.53125 
Q 60.6875 51.171875 53.6875 57.984375 
Q 46.6875 64.796875 31.59375 64.796875 
z
M 9.8125 72.90625 
L 30.078125 72.90625 
Q 51.265625 72.90625 61.171875 64.09375 
Q 71.09375 55.28125 71.09375 36.53125 
Q 71.09375 17.671875 61.125 8.828125 
Q 51.171875 0 30.078125 0 
L 9.8125 0 
z
" id="DejaVuSans-68"/>
     </defs>
     <use xlink:href="#DejaVuSans-123"/>
     <use x="63.623047" xlink:href="#DejaVuSans-102"/>
     <use x="98.828125" xlink:href="#DejaVuSans-52"/>
     <use x="162.451172" xlink:href="#DejaVuSans-44"/>
     <use x="194.238281" xlink:href="#DejaVuSans-32"/>
     <use x="226.025391" xlink:href="#DejaVuSans-102"/>
     <use x="261.230469" xlink:href="#DejaVuSans-49"/>
     <use x="324.853516" xlink:href="#DejaVuSans-48"/>
     <use x="388.476562" xlink:href="#DejaVuSans-44"/>
     <use x="420.263672" xlink:href="#DejaVuSans-32"/>
     <use x="452.050781" xlink:href="#DejaVuSans-102"/>
     <use x="487.255859" xlink:href="#DejaVuSans-49"/>
     <use x="550.878906" xlink:href="#DejaVuSans-54"/>
     <use x="614.501953" xlink:href="#DejaVuSans-44"/>
     <use x="646.289062" xlink:href="#DejaVuSans-32"/>
     <use x="678.076172" xlink:href="#DejaVuSans-102"/>
     <use x="713.28125" xlink:href="#DejaVuSans-50"/>
     <use x="776.904297" xlink:href="#DejaVuSans-50"/>
     <use x="840.527344" xlink:href="#DejaVuSans-44"/>
     <use x="872.314453" xlink:href="#DejaVuSans-32"/>
     <use x="904.101562" xlink:href="#DejaVuSans-102"/>
     <use x="939.306641" xlink:href="#DejaVuSans-50"/>
     <use x="1002.929688" xlink:href="#DejaVuSans-56"/>
     <use x="1066.552734" xlink:href="#DejaVuSans-44"/>
     <use x="1098.339844" xlink:href="#DejaVuSans-32"/>
     <use x="1130.126953" xlink:href="#DejaVuSans-102"/>
     <use x="1165.332031" xlink:href="#DejaVuSans-51"/>
     <use x="1228.955078" xlink:href="#DejaVuSans-52"/>
     <use x="1292.578125" xlink:href="#DejaVuSans-44"/>
     <use x="1324.365234" xlink:href="#DejaVuSans-32"/>
     <use x="1356.152344" xlink:href="#DejaVuSans-102"/>
     <use x="1391.357422" xlink:href="#DejaVuSans-52"/>
     <use x="1454.980469" xlink:href="#DejaVuSans-48"/>
     <use x="1518.603516" xlink:href="#DejaVuSans-44"/>
     <use x="1550.390625" xlink:href="#DejaVuSans-32"/>
     <use x="1582.177734" xlink:href="#DejaVuSans-102"/>
     <use x="1617.382812" xlink:href="#DejaVuSans-52"/>
     <use x="1681.005859" xlink:href="#DejaVuSans-54"/>
     <use x="1744.628906" xlink:href="#DejaVuSans-44"/>
     <use x="1776.416016" xlink:href="#DejaVuSans-32"/>
     <use x="1808.203125" xlink:href="#DejaVuSans-102"/>
     <use x="1843.408203" xlink:href="#DejaVuSans-53"/>
     <use x="1907.03125" xlink:href="#DejaVuSans-50"/>
     <use x="1970.654297" xlink:href="#DejaVuSans-125"/>
     <use x="2034.277344" xlink:href="#DejaVuSans-44"/>
     <use x="2066.064453" xlink:href="#DejaVuSans-32"/>
     <use x="2097.851562" xlink:href="#DejaVuSans-53"/>
     <use x="2161.474609" xlink:href="#DejaVuSans-45"/>
     <use x="2197.558594" xlink:href="#DejaVuSans-68"/>
    </g>
   </g>
   <g id="text_14">
    <!-- absolute targets -->
    <g transform="translate(62.208 609.932673)scale(0.14 -0.14)">
     <defs>
      <path d="M 48.6875 27.296875 
Q 48.6875 37.203125 44.609375 42.84375 
Q 40.53125 48.484375 33.40625 48.484375 
Q 26.265625 48.484375 22.1875 42.84375 
Q 18.109375 37.203125 18.109375 27.296875 
Q 18.109375 17.390625 22.1875 11.75 
Q 26.265625 6.109375 33.40625 6.109375 
Q 40.53125 6.109375 44.609375 11.75 
Q 48.6875 17.390625 48.6875 27.296875 
z
M 18.109375 46.390625 
Q 20.953125 51.265625 25.265625 53.625 
Q 29.59375 56 35.59375 56 
Q 45.5625 56 51.78125 48.09375 
Q 58.015625 40.1875 58.015625 27.296875 
Q 58.015625 14.40625 51.78125 6.484375 
Q 45.5625 -1.421875 35.59375 -1.421875 
Q 29.59375 -1.421875 25.265625 0.953125 
Q 20.953125 3.328125 18.109375 8.203125 
L 18.109375 0 
L 9.078125 0 
L 9.078125 75.984375 
L 18.109375 75.984375 
z
" id="DejaVuSans-98"/>
      <path d="M 8.5 21.578125 
L 8.5 54.6875 
L 17.484375 54.6875 
L 17.484375 21.921875 
Q 17.484375 14.15625 20.5 10.265625 
Q 23.53125 6.390625 29.59375 6.390625 
Q 36.859375 6.390625 41.078125 11.03125 
Q 45.3125 15.671875 45.3125 23.6875 
L 45.3125 54.6875 
L 54.296875 54.6875 
L 54.296875 0 
L 45.3125 0 
L 45.3125 8.40625 
Q 42.046875 3.421875 37.71875 1 
Q 33.40625 -1.421875 27.6875 -1.421875 
Q 18.265625 -1.421875 13.375 4.4375 
Q 8.5 10.296875 8.5 21.578125 
z
M 31.109375 56 
z
" id="DejaVuSans-117"/>
     </defs>
     <use xlink:href="#DejaVuSans-97"/>
     <use x="61.279297" xlink:href="#DejaVuSans-98"/>
     <use x="124.755859" xlink:href="#DejaVuSans-115"/>
     <use x="176.855469" xlink:href="#DejaVuSans-111"/>
     <use x="238.037109" xlink:href="#DejaVuSans-108"/>
     <use x="265.820312" xlink:href="#DejaVuSans-117"/>
     <use x="329.199219" xlink:href="#DejaVuSans-116"/>
     <use x="368.408203" xlink:href="#DejaVuSans-101"/>
     <use x="429.931641" xlink:href="#DejaVuSans-32"/>
     <use x="461.71875" xlink:href="#DejaVuSans-116"/>
     <use x="500.927734" xlink:href="#DejaVuSans-97"/>
     <use x="562.207031" xlink:href="#DejaVuSans-114"/>
     <use x="601.570312" xlink:href="#DejaVuSans-103"/>
     <use x="665.046875" xlink:href="#DejaVuSans-101"/>
     <use x="726.570312" xlink:href="#DejaVuSans-116"/>
     <use x="765.779297" xlink:href="#DejaVuSans-115"/>
    </g>
   </g>
   <g id="text_15">
    <!-- v2.4.82 -->
    <g style="fill:#808080;" transform="translate(242.6415 288.777272)scale(0.1 -0.1)">
     <use xlink:href="#DejaVuSans-118"/>
     <use x="59.179688" xlink:href="#DejaVuSans-50"/>
     <use x="122.802734" xlink:href="#DejaVuSans-46"/>
     <use x="154.589844" xlink:href="#DejaVuSans-52"/>
     <use x="218.212891" xlink:href="#DejaVuSans-46"/>
     <use x="250" xlink:href="#DejaVuSans-56"/>
     <use x="313.623047" xlink:href="#DejaVuSans-50"/>
    </g>
   </g>
   <g id="legend_1">
    <g id="patch_7">
     <path d="M 76.208 136.881 
L 205.429875 136.881 
Q 209.429875 136.881 209.429875 132.881 
L 209.429875 17.456 
Q 209.429875 13.456 205.429875 13.456 
L 76.208 13.456 
Q 72.208 13.456 72.208 17.456 
L 72.208 132.881 
Q 72.208 136.881 76.208 136.881 
z
" style="fill:#ffffff;opacity:0.2;stroke:#cccccc;stroke-linejoin:miter;"/>
    </g>
    <g id="line2d_94">
     <path d="M 80.208 29.652875 
L 120.208 29.652875 
" style="fill:none;stroke:#000000;stroke-linecap:square;stroke-width:1.5;"/>
    </g>
    <g id="line2d_95"/>
    <g id="text_16">
     <!-- 1: 9/9 -->
     <g transform="translate(136.208 36.652875)scale(0.2 -0.2)">
      <defs>
       <path d="M 11.71875 12.40625 
L 22.015625 12.40625 
L 22.015625 0 
L 11.71875 0 
z
M 11.71875 51.703125 
L 22.015625 51.703125 
L 22.015625 39.3125 
L 11.71875 39.3125 
z
" id="DejaVuSans-58"/>
       <path d="M 10.984375 1.515625 
L 10.984375 10.5 
Q 14.703125 8.734375 18.5 7.8125 
Q 22.3125 6.890625 25.984375 6.890625 
Q 35.75 6.890625 40.890625 13.453125 
Q 46.046875 20.015625 46.78125 33.40625 
Q 43.953125 29.203125 39.59375 26.953125 
Q 35.25 24.703125 29.984375 24.703125 
Q 19.046875 24.703125 12.671875 31.3125 
Q 6.296875 37.9375 6.296875 49.421875 
Q 6.296875 60.640625 12.9375 67.421875 
Q 19.578125 74.21875 30.609375 74.21875 
Q 43.265625 74.21875 49.921875 64.515625 
Q 56.59375 54.828125 56.59375 36.375 
Q 56.59375 19.140625 48.40625 8.859375 
Q 40.234375 -1.421875 26.421875 -1.421875 
Q 22.703125 -1.421875 18.890625 -0.6875 
Q 15.09375 0.046875 10.984375 1.515625 
z
M 30.609375 32.421875 
Q 37.25 32.421875 41.125 36.953125 
Q 45.015625 41.5 45.015625 49.421875 
Q 45.015625 57.28125 41.125 61.84375 
Q 37.25 66.40625 30.609375 66.40625 
Q 23.96875 66.40625 20.09375 61.84375 
Q 16.21875 57.28125 16.21875 49.421875 
Q 16.21875 41.5 20.09375 36.953125 
Q 23.96875 32.421875 30.609375 32.421875 
z
" id="DejaVuSans-57"/>
      </defs>
      <use xlink:href="#DejaVuSans-49"/>
      <use x="63.623047" xlink:href="#DejaVuSans-58"/>
      <use x="97.314453" xlink:href="#DejaVuSans-32"/>
      <use x="129.101562" xlink:href="#DejaVuSans-57"/>
      <use x="192.724609" xlink:href="#DejaVuSans-47"/>
      <use x="226.416016" xlink:href="#DejaVuSans-57"/>
     </g>
    </g>
    <g id="line2d_96">
     <path d="M 80.208 59.009125 
L 120.208 59.009125 
" style="fill:none;stroke:#00bfbf;stroke-linecap:square;stroke-width:1.5;"/>
    </g>
    <g id="line2d_97"/>
    <g id="text_17">
     <!-- -1: 9/9 -->
     <g transform="translate(136.208 66.009125)scale(0.2 -0.2)">
      <use xlink:href="#DejaVuSans-45"/>
      <use x="36.083984" xlink:href="#DejaVuSans-49"/>
      <use x="99.707031" xlink:href="#DejaVuSans-58"/>
      <use x="133.398438" xlink:href="#DejaVuSans-32"/>
      <use x="165.185547" xlink:href="#DejaVuSans-57"/>
      <use x="228.808594" xlink:href="#DejaVuSans-47"/>
      <use x="262.5" xlink:href="#DejaVuSans-57"/>
     </g>
    </g>
    <g id="line2d_98">
     <path d="M 80.208 88.365375 
L 120.208 88.365375 
" style="fill:none;stroke:#bf00bf;stroke-linecap:square;stroke-width:1.5;"/>
    </g>
    <g id="line2d_99"/>
    <g id="text_18">
     <!-- -4: 9/9 -->
     <g transform="translate(136.208 95.365375)scale(0.2 -0.2)">
      <use xlink:href="#DejaVuSans-45"/>
      <use x="36.083984" xlink:href="#DejaVuSans-52"/>
      <use x="99.707031" xlink:href="#DejaVuSans-58"/>
      <use x="133.398438" xlink:href="#DejaVuSans-32"/>
      <use x="165.185547" xlink:href="#DejaVuSans-57"/>
      <use x="228.808594" xlink:href="#DejaVuSans-47"/>
      <use x="262.5" xlink:href="#DejaVuSans-57"/>
     </g>
    </g>
    <g id="line2d_100">
     <path d="M 80.208 117.721625 
L 120.208 117.721625 
" style="fill:none;stroke:#ff0000;stroke-linecap:square;stroke-width:3;"/>
    </g>
    <g id="line2d_101"/>
    <g id="text_19">
     <!-- -6: 9/9 -->
     <g transform="translate(136.208 124.721625)scale(0.2 -0.2)">
      <use xlink:href="#DejaVuSans-45"/>
      <use x="36.083984" xlink:href="#DejaVuSans-54"/>
      <use x="99.707031" xlink:href="#DejaVuSans-58"/>
      <use x="133.398438" xlink:href="#DejaVuSans-32"/>
      <use x="165.185547" xlink:href="#DejaVuSans-57"/>
      <use x="228.808594" xlink:href="#DejaVuSans-47"/>
      <use x="262.5" xlink:href="#DejaVuSans-57"/>
     </g>
    </g>
   </g>
  </g>
 </g>
 <defs>
  <clipPath id="p8dd5d574d2">
   <rect height="290.304" width="398.592" x="62.208" y="3.456"/>
  </clipPath>
 </defs>
</svg>
