<?xml version="1.0" encoding="utf-8" standalone="no"?>
<!DOCTYPE svg PUBLIC "-//W3C//DTD SVG 1.1//EN"
  "http://www.w3.org/Graphics/SVG/1.1/DTD/svg11.dtd">
<!-- Created with matplotlib (https://matplotlib.org/) -->
<svg height="345.6pt" version="1.1" viewBox="0 0 460.8 345.6" width="460.8pt" xmlns="http://www.w3.org/2000/svg" xmlns:xlink="http://www.w3.org/1999/xlink">
 <metadata>
  <rdf:RDF xmlns:cc="http://creativecommons.org/ns#" xmlns:dc="http://purl.org/dc/elements/1.1/" xmlns:rdf="http://www.w3.org/1999/02/22-rdf-syntax-ns#">
   <cc:Work>
    <dc:type rdf:resource="http://purl.org/dc/dcmitype/StillImage"/>
    <dc:date>2022-01-12T20:22:36.692690</dc:date>
    <dc:format>image/svg+xml</dc:format>
    <dc:creator>
     <cc:Agent>
      <dc:title>Matplotlib v3.3.3, https://matplotlib.org/</dc:title>
     </cc:Agent>
    </dc:creator>
   </cc:Work>
  </rdf:RDF>
 </metadata>
 <defs>
  <style type="text/css">*{stroke-linecap:butt;stroke-linejoin:round;}</style>
 </defs>
 <g id="figure_1">
  <g id="patch_1">
   <path d="M 0 345.6 
L 460.8 345.6 
L 460.8 0 
L 0 0 
z
" style="fill:#ffffff;"/>
  </g>
  <g id="axes_1">
   <g id="patch_2">
    <path d="M 57.6 298.944 
L 338.688 298.944 
L 338.688 27.648 
L 57.6 27.648 
z
" style="fill:#ffffff;"/>
   </g>
   <g id="matplotlib.axis_1">
    <g id="xtick_1">
     <g id="line2d_1">
      <path clip-path="url(#p766de181c1)" d="M 57.6 298.944 
L 57.6 27.648 
" style="fill:none;stroke:#b0b0b0;stroke-linecap:square;stroke-width:0.8;"/>
     </g>
     <g id="line2d_2">
      <defs>
       <path d="M 0 0 
L 0 3.5 
" id="m43b1ddd142" style="stroke:#000000;stroke-width:0.8;"/>
      </defs>
      <g>
       <use style="stroke:#000000;stroke-width:0.8;" x="57.6" xlink:href="#m43b1ddd142" y="298.944"/>
      </g>
     </g>
     <g id="text_1">
      <!-- 0 -->
      <g transform="translate(51.2375 321.140875)scale(0.2 -0.2)">
       <defs>
        <path d="M 31.78125 66.40625 
Q 24.171875 66.40625 20.328125 58.90625 
Q 16.5 51.421875 16.5 36.375 
Q 16.5 21.390625 20.328125 13.890625 
Q 24.171875 6.390625 31.78125 6.390625 
Q 39.453125 6.390625 43.28125 13.890625 
Q 47.125 21.390625 47.125 36.375 
Q 47.125 51.421875 43.28125 58.90625 
Q 39.453125 66.40625 31.78125 66.40625 
z
M 31.78125 74.21875 
Q 44.046875 74.21875 50.515625 64.515625 
Q 56.984375 54.828125 56.984375 36.375 
Q 56.984375 17.96875 50.515625 8.265625 
Q 44.046875 -1.421875 31.78125 -1.421875 
Q 19.53125 -1.421875 13.0625 8.265625 
Q 6.59375 17.96875 6.59375 36.375 
Q 6.59375 54.828125 13.0625 64.515625 
Q 19.53125 74.21875 31.78125 74.21875 
z
" id="DejaVuSans-48"/>
       </defs>
       <use xlink:href="#DejaVuSans-48"/>
      </g>
     </g>
    </g>
    <g id="xtick_2">
     <g id="line2d_3">
      <path clip-path="url(#p766de181c1)" d="M 137.910857 298.944 
L 137.910857 27.648 
" style="fill:none;stroke:#b0b0b0;stroke-linecap:square;stroke-width:0.8;"/>
     </g>
     <g id="line2d_4">
      <g>
       <use style="stroke:#000000;stroke-width:0.8;" x="137.910857" xlink:href="#m43b1ddd142" y="298.944"/>
      </g>
     </g>
     <g id="text_2">
      <!-- 2 -->
      <g transform="translate(131.548357 321.140875)scale(0.2 -0.2)">
       <defs>
        <path d="M 19.1875 8.296875 
L 53.609375 8.296875 
L 53.609375 0 
L 7.328125 0 
L 7.328125 8.296875 
Q 12.9375 14.109375 22.625 23.890625 
Q 32.328125 33.6875 34.8125 36.53125 
Q 39.546875 41.84375 41.421875 45.53125 
Q 43.3125 49.21875 43.3125 52.78125 
Q 43.3125 58.59375 39.234375 62.25 
Q 35.15625 65.921875 28.609375 65.921875 
Q 23.96875 65.921875 18.8125 64.3125 
Q 13.671875 62.703125 7.8125 59.421875 
L 7.8125 69.390625 
Q 13.765625 71.78125 18.9375 73 
Q 24.125 74.21875 28.421875 74.21875 
Q 39.75 74.21875 46.484375 68.546875 
Q 53.21875 62.890625 53.21875 53.421875 
Q 53.21875 48.921875 51.53125 44.890625 
Q 49.859375 40.875 45.40625 35.40625 
Q 44.1875 33.984375 37.640625 27.21875 
Q 31.109375 20.453125 19.1875 8.296875 
z
" id="DejaVuSans-50"/>
       </defs>
       <use xlink:href="#DejaVuSans-50"/>
      </g>
     </g>
    </g>
    <g id="xtick_3">
     <g id="line2d_5">
      <path clip-path="url(#p766de181c1)" d="M 218.221714 298.944 
L 218.221714 27.648 
" style="fill:none;stroke:#b0b0b0;stroke-linecap:square;stroke-width:0.8;"/>
     </g>
     <g id="line2d_6">
      <g>
       <use style="stroke:#000000;stroke-width:0.8;" x="218.221714" xlink:href="#m43b1ddd142" y="298.944"/>
      </g>
     </g>
     <g id="text_3">
      <!-- 4 -->
      <g transform="translate(211.859214 321.140875)scale(0.2 -0.2)">
       <defs>
        <path d="M 37.796875 64.3125 
L 12.890625 25.390625 
L 37.796875 25.390625 
z
M 35.203125 72.90625 
L 47.609375 72.90625 
L 47.609375 25.390625 
L 58.015625 25.390625 
L 58.015625 17.1875 
L 47.609375 17.1875 
L 47.609375 0 
L 37.796875 0 
L 37.796875 17.1875 
L 4.890625 17.1875 
L 4.890625 26.703125 
z
" id="DejaVuSans-52"/>
       </defs>
       <use xlink:href="#DejaVuSans-52"/>
      </g>
     </g>
    </g>
    <g id="xtick_4">
     <g id="line2d_7">
      <path clip-path="url(#p766de181c1)" d="M 298.532571 298.944 
L 298.532571 27.648 
" style="fill:none;stroke:#b0b0b0;stroke-linecap:square;stroke-width:0.8;"/>
     </g>
     <g id="line2d_8">
      <g>
       <use style="stroke:#000000;stroke-width:0.8;" x="298.532571" xlink:href="#m43b1ddd142" y="298.944"/>
      </g>
     </g>
     <g id="text_4">
      <!-- 6 -->
      <g transform="translate(292.170071 321.140875)scale(0.2 -0.2)">
       <defs>
        <path d="M 33.015625 40.375 
Q 26.375 40.375 22.484375 35.828125 
Q 18.609375 31.296875 18.609375 23.390625 
Q 18.609375 15.53125 22.484375 10.953125 
Q 26.375 6.390625 33.015625 6.390625 
Q 39.65625 6.390625 43.53125 10.953125 
Q 47.40625 15.53125 47.40625 23.390625 
Q 47.40625 31.296875 43.53125 35.828125 
Q 39.65625 40.375 33.015625 40.375 
z
M 52.59375 71.296875 
L 52.59375 62.3125 
Q 48.875 64.0625 45.09375 64.984375 
Q 41.3125 65.921875 37.59375 65.921875 
Q 27.828125 65.921875 22.671875 59.328125 
Q 17.53125 52.734375 16.796875 39.40625 
Q 19.671875 43.65625 24.015625 45.921875 
Q 28.375 48.1875 33.59375 48.1875 
Q 44.578125 48.1875 50.953125 41.515625 
Q 57.328125 34.859375 57.328125 23.390625 
Q 57.328125 12.15625 50.6875 5.359375 
Q 44.046875 -1.421875 33.015625 -1.421875 
Q 20.359375 -1.421875 13.671875 8.265625 
Q 6.984375 17.96875 6.984375 36.375 
Q 6.984375 53.65625 15.1875 63.9375 
Q 23.390625 74.21875 37.203125 74.21875 
Q 40.921875 74.21875 44.703125 73.484375 
Q 48.484375 72.75 52.59375 71.296875 
z
" id="DejaVuSans-54"/>
       </defs>
       <use xlink:href="#DejaVuSans-54"/>
      </g>
     </g>
    </g>
    <g id="xtick_5">
     <g id="line2d_9">
      <path clip-path="url(#p766de181c1)" d="M 97.755429 298.944 
L 97.755429 27.648 
" style="fill:none;stroke:#b0b0b0;stroke-linecap:square;stroke-width:0.8;"/>
     </g>
     <g id="line2d_10">
      <defs>
       <path d="M 0 0 
L 0 2 
" id="md4606f80c9" style="stroke:#000000;stroke-width:0.6;"/>
      </defs>
      <g>
       <use style="stroke:#000000;stroke-width:0.6;" x="97.755429" xlink:href="#md4606f80c9" y="298.944"/>
      </g>
     </g>
    </g>
    <g id="xtick_6">
     <g id="line2d_11">
      <path clip-path="url(#p766de181c1)" d="M 178.066286 298.944 
L 178.066286 27.648 
" style="fill:none;stroke:#b0b0b0;stroke-linecap:square;stroke-width:0.8;"/>
     </g>
     <g id="line2d_12">
      <g>
       <use style="stroke:#000000;stroke-width:0.6;" x="178.066286" xlink:href="#md4606f80c9" y="298.944"/>
      </g>
     </g>
    </g>
    <g id="xtick_7">
     <g id="line2d_13">
      <path clip-path="url(#p766de181c1)" d="M 258.377143 298.944 
L 258.377143 27.648 
" style="fill:none;stroke:#b0b0b0;stroke-linecap:square;stroke-width:0.8;"/>
     </g>
     <g id="line2d_14">
      <g>
       <use style="stroke:#000000;stroke-width:0.6;" x="258.377143" xlink:href="#md4606f80c9" y="298.944"/>
      </g>
     </g>
    </g>
    <g id="xtick_8">
     <g id="line2d_15">
      <path clip-path="url(#p766de181c1)" d="M 338.688 298.944 
L 338.688 27.648 
" style="fill:none;stroke:#b0b0b0;stroke-linecap:square;stroke-width:0.8;"/>
     </g>
     <g id="line2d_16">
      <g>
       <use style="stroke:#000000;stroke-width:0.6;" x="338.688" xlink:href="#md4606f80c9" y="298.944"/>
      </g>
     </g>
    </g>
    <g id="text_5">
     <!-- log10(# (f+g)-evals / dimension) -->
     <g transform="translate(58.145016 342.217594)scale(0.17 -0.17)">
      <defs>
       <path d="M 9.421875 75.984375 
L 18.40625 75.984375 
L 18.40625 0 
L 9.421875 0 
z
" id="DejaVuSans-108"/>
       <path d="M 30.609375 48.390625 
Q 23.390625 48.390625 19.1875 42.75 
Q 14.984375 37.109375 14.984375 27.296875 
Q 14.984375 17.484375 19.15625 11.84375 
Q 23.34375 6.203125 30.609375 6.203125 
Q 37.796875 6.203125 41.984375 11.859375 
Q 46.1875 17.53125 46.1875 27.296875 
Q 46.1875 37.015625 41.984375 42.703125 
Q 37.796875 48.390625 30.609375 48.390625 
z
M 30.609375 56 
Q 42.328125 56 49.015625 48.375 
Q 55.71875 40.765625 55.71875 27.296875 
Q 55.71875 13.875 49.015625 6.21875 
Q 42.328125 -1.421875 30.609375 -1.421875 
Q 18.84375 -1.421875 12.171875 6.21875 
Q 5.515625 13.875 5.515625 27.296875 
Q 5.515625 40.765625 12.171875 48.375 
Q 18.84375 56 30.609375 56 
z
" id="DejaVuSans-111"/>
       <path d="M 45.40625 27.984375 
Q 45.40625 37.75 41.375 43.109375 
Q 37.359375 48.484375 30.078125 48.484375 
Q 22.859375 48.484375 18.828125 43.109375 
Q 14.796875 37.75 14.796875 27.984375 
Q 14.796875 18.265625 18.828125 12.890625 
Q 22.859375 7.515625 30.078125 7.515625 
Q 37.359375 7.515625 41.375 12.890625 
Q 45.40625 18.265625 45.40625 27.984375 
z
M 54.390625 6.78125 
Q 54.390625 -7.171875 48.1875 -13.984375 
Q 42 -20.796875 29.203125 -20.796875 
Q 24.46875 -20.796875 20.265625 -20.09375 
Q 16.0625 -19.390625 12.109375 -17.921875 
L 12.109375 -9.1875 
Q 16.0625 -11.328125 19.921875 -12.34375 
Q 23.78125 -13.375 27.78125 -13.375 
Q 36.625 -13.375 41.015625 -8.765625 
Q 45.40625 -4.15625 45.40625 5.171875 
L 45.40625 9.625 
Q 42.625 4.78125 38.28125 2.390625 
Q 33.9375 0 27.875 0 
Q 17.828125 0 11.671875 7.65625 
Q 5.515625 15.328125 5.515625 27.984375 
Q 5.515625 40.671875 11.671875 48.328125 
Q 17.828125 56 27.875 56 
Q 33.9375 56 38.28125 53.609375 
Q 42.625 51.21875 45.40625 46.390625 
L 45.40625 54.6875 
L 54.390625 54.6875 
z
" id="DejaVuSans-103"/>
       <path d="M 12.40625 8.296875 
L 28.515625 8.296875 
L 28.515625 63.921875 
L 10.984375 60.40625 
L 10.984375 69.390625 
L 28.421875 72.90625 
L 38.28125 72.90625 
L 38.28125 8.296875 
L 54.390625 8.296875 
L 54.390625 0 
L 12.40625 0 
z
" id="DejaVuSans-49"/>
       <path d="M 31 75.875 
Q 24.46875 64.65625 21.28125 53.65625 
Q 18.109375 42.671875 18.109375 31.390625 
Q 18.109375 20.125 21.3125 9.0625 
Q 24.515625 -2 31 -13.1875 
L 23.1875 -13.1875 
Q 15.875 -1.703125 12.234375 9.375 
Q 8.59375 20.453125 8.59375 31.390625 
Q 8.59375 42.28125 12.203125 53.3125 
Q 15.828125 64.359375 23.1875 75.875 
z
" id="DejaVuSans-40"/>
       <path d="M 51.125 44 
L 36.921875 44 
L 32.8125 27.6875 
L 47.125 27.6875 
z
M 43.796875 71.78125 
L 38.71875 51.515625 
L 52.984375 51.515625 
L 58.109375 71.78125 
L 65.921875 71.78125 
L 60.890625 51.515625 
L 76.125 51.515625 
L 76.125 44 
L 58.984375 44 
L 54.984375 27.6875 
L 70.515625 27.6875 
L 70.515625 20.21875 
L 53.078125 20.21875 
L 48 0 
L 40.1875 0 
L 45.21875 20.21875 
L 30.90625 20.21875 
L 25.875 0 
L 18.015625 0 
L 23.09375 20.21875 
L 7.71875 20.21875 
L 7.71875 27.6875 
L 24.90625 27.6875 
L 29 44 
L 13.28125 44 
L 13.28125 51.515625 
L 30.90625 51.515625 
L 35.890625 71.78125 
z
" id="DejaVuSans-35"/>
       <path id="DejaVuSans-32"/>
       <path d="M 37.109375 75.984375 
L 37.109375 68.5 
L 28.515625 68.5 
Q 23.6875 68.5 21.796875 66.546875 
Q 19.921875 64.59375 19.921875 59.515625 
L 19.921875 54.6875 
L 34.71875 54.6875 
L 34.71875 47.703125 
L 19.921875 47.703125 
L 19.921875 0 
L 10.890625 0 
L 10.890625 47.703125 
L 2.296875 47.703125 
L 2.296875 54.6875 
L 10.890625 54.6875 
L 10.890625 58.5 
Q 10.890625 67.625 15.140625 71.796875 
Q 19.390625 75.984375 28.609375 75.984375 
z
" id="DejaVuSans-102"/>
       <path d="M 46 62.703125 
L 46 35.5 
L 73.1875 35.5 
L 73.1875 27.203125 
L 46 27.203125 
L 46 0 
L 37.796875 0 
L 37.796875 27.203125 
L 10.59375 27.203125 
L 10.59375 35.5 
L 37.796875 35.5 
L 37.796875 62.703125 
z
" id="DejaVuSans-43"/>
       <path d="M 8.015625 75.875 
L 15.828125 75.875 
Q 23.140625 64.359375 26.78125 53.3125 
Q 30.421875 42.28125 30.421875 31.390625 
Q 30.421875 20.453125 26.78125 9.375 
Q 23.140625 -1.703125 15.828125 -13.1875 
L 8.015625 -13.1875 
Q 14.5 -2 17.703125 9.0625 
Q 20.90625 20.125 20.90625 31.390625 
Q 20.90625 42.671875 17.703125 53.65625 
Q 14.5 64.65625 8.015625 75.875 
z
" id="DejaVuSans-41"/>
       <path d="M 4.890625 31.390625 
L 31.203125 31.390625 
L 31.203125 23.390625 
L 4.890625 23.390625 
z
" id="DejaVuSans-45"/>
       <path d="M 56.203125 29.59375 
L 56.203125 25.203125 
L 14.890625 25.203125 
Q 15.484375 15.921875 20.484375 11.0625 
Q 25.484375 6.203125 34.421875 6.203125 
Q 39.59375 6.203125 44.453125 7.46875 
Q 49.3125 8.734375 54.109375 11.28125 
L 54.109375 2.78125 
Q 49.265625 0.734375 44.1875 -0.34375 
Q 39.109375 -1.421875 33.890625 -1.421875 
Q 20.796875 -1.421875 13.15625 6.1875 
Q 5.515625 13.8125 5.515625 26.8125 
Q 5.515625 40.234375 12.765625 48.109375 
Q 20.015625 56 32.328125 56 
Q 43.359375 56 49.78125 48.890625 
Q 56.203125 41.796875 56.203125 29.59375 
z
M 47.21875 32.234375 
Q 47.125 39.59375 43.09375 43.984375 
Q 39.0625 48.390625 32.421875 48.390625 
Q 24.90625 48.390625 20.390625 44.140625 
Q 15.875 39.890625 15.1875 32.171875 
z
" id="DejaVuSans-101"/>
       <path d="M 2.984375 54.6875 
L 12.5 54.6875 
L 29.59375 8.796875 
L 46.6875 54.6875 
L 56.203125 54.6875 
L 35.6875 0 
L 23.484375 0 
z
" id="DejaVuSans-118"/>
       <path d="M 34.28125 27.484375 
Q 23.390625 27.484375 19.1875 25 
Q 14.984375 22.515625 14.984375 16.5 
Q 14.984375 11.71875 18.140625 8.90625 
Q 21.296875 6.109375 26.703125 6.109375 
Q 34.1875 6.109375 38.703125 11.40625 
Q 43.21875 16.703125 43.21875 25.484375 
L 43.21875 27.484375 
z
M 52.203125 31.203125 
L 52.203125 0 
L 43.21875 0 
L 43.21875 8.296875 
Q 40.140625 3.328125 35.546875 0.953125 
Q 30.953125 -1.421875 24.3125 -1.421875 
Q 15.921875 -1.421875 10.953125 3.296875 
Q 6 8.015625 6 15.921875 
Q 6 25.140625 12.171875 29.828125 
Q 18.359375 34.515625 30.609375 34.515625 
L 43.21875 34.515625 
L 43.21875 35.40625 
Q 43.21875 41.609375 39.140625 45 
Q 35.0625 48.390625 27.6875 48.390625 
Q 23 48.390625 18.546875 47.265625 
Q 14.109375 46.140625 10.015625 43.890625 
L 10.015625 52.203125 
Q 14.9375 54.109375 19.578125 55.046875 
Q 24.21875 56 28.609375 56 
Q 40.484375 56 46.34375 49.84375 
Q 52.203125 43.703125 52.203125 31.203125 
z
" id="DejaVuSans-97"/>
       <path d="M 44.28125 53.078125 
L 44.28125 44.578125 
Q 40.484375 46.53125 36.375 47.5 
Q 32.28125 48.484375 27.875 48.484375 
Q 21.1875 48.484375 17.84375 46.4375 
Q 14.5 44.390625 14.5 40.28125 
Q 14.5 37.15625 16.890625 35.375 
Q 19.28125 33.59375 26.515625 31.984375 
L 29.59375 31.296875 
Q 39.15625 29.25 43.1875 25.515625 
Q 47.21875 21.78125 47.21875 15.09375 
Q 47.21875 7.46875 41.1875 3.015625 
Q 35.15625 -1.421875 24.609375 -1.421875 
Q 20.21875 -1.421875 15.453125 -0.5625 
Q 10.6875 0.296875 5.421875 2 
L 5.421875 11.28125 
Q 10.40625 8.6875 15.234375 7.390625 
Q 20.0625 6.109375 24.8125 6.109375 
Q 31.15625 6.109375 34.5625 8.28125 
Q 37.984375 10.453125 37.984375 14.40625 
Q 37.984375 18.0625 35.515625 20.015625 
Q 33.0625 21.96875 24.703125 23.78125 
L 21.578125 24.515625 
Q 13.234375 26.265625 9.515625 29.90625 
Q 5.8125 33.546875 5.8125 39.890625 
Q 5.8125 47.609375 11.28125 51.796875 
Q 16.75 56 26.8125 56 
Q 31.78125 56 36.171875 55.265625 
Q 40.578125 54.546875 44.28125 53.078125 
z
" id="DejaVuSans-115"/>
       <path d="M 25.390625 72.90625 
L 33.6875 72.90625 
L 8.296875 -9.28125 
L 0 -9.28125 
z
" id="DejaVuSans-47"/>
       <path d="M 45.40625 46.390625 
L 45.40625 75.984375 
L 54.390625 75.984375 
L 54.390625 0 
L 45.40625 0 
L 45.40625 8.203125 
Q 42.578125 3.328125 38.25 0.953125 
Q 33.9375 -1.421875 27.875 -1.421875 
Q 17.96875 -1.421875 11.734375 6.484375 
Q 5.515625 14.40625 5.515625 27.296875 
Q 5.515625 40.1875 11.734375 48.09375 
Q 17.96875 56 27.875 56 
Q 33.9375 56 38.25 53.625 
Q 42.578125 51.265625 45.40625 46.390625 
z
M 14.796875 27.296875 
Q 14.796875 17.390625 18.875 11.75 
Q 22.953125 6.109375 30.078125 6.109375 
Q 37.203125 6.109375 41.296875 11.75 
Q 45.40625 17.390625 45.40625 27.296875 
Q 45.40625 37.203125 41.296875 42.84375 
Q 37.203125 48.484375 30.078125 48.484375 
Q 22.953125 48.484375 18.875 42.84375 
Q 14.796875 37.203125 14.796875 27.296875 
z
" id="DejaVuSans-100"/>
       <path d="M 9.421875 54.6875 
L 18.40625 54.6875 
L 18.40625 0 
L 9.421875 0 
z
M 9.421875 75.984375 
L 18.40625 75.984375 
L 18.40625 64.59375 
L 9.421875 64.59375 
z
" id="DejaVuSans-105"/>
       <path d="M 52 44.1875 
Q 55.375 50.25 60.0625 53.125 
Q 64.75 56 71.09375 56 
Q 79.640625 56 84.28125 50.015625 
Q 88.921875 44.046875 88.921875 33.015625 
L 88.921875 0 
L 79.890625 0 
L 79.890625 32.71875 
Q 79.890625 40.578125 77.09375 44.375 
Q 74.3125 48.1875 68.609375 48.1875 
Q 61.625 48.1875 57.5625 43.546875 
Q 53.515625 38.921875 53.515625 30.90625 
L 53.515625 0 
L 44.484375 0 
L 44.484375 32.71875 
Q 44.484375 40.625 41.703125 44.40625 
Q 38.921875 48.1875 33.109375 48.1875 
Q 26.21875 48.1875 22.15625 43.53125 
Q 18.109375 38.875 18.109375 30.90625 
L 18.109375 0 
L 9.078125 0 
L 9.078125 54.6875 
L 18.109375 54.6875 
L 18.109375 46.1875 
Q 21.1875 51.21875 25.484375 53.609375 
Q 29.78125 56 35.6875 56 
Q 41.65625 56 45.828125 52.96875 
Q 50 49.953125 52 44.1875 
z
" id="DejaVuSans-109"/>
       <path d="M 54.890625 33.015625 
L 54.890625 0 
L 45.90625 0 
L 45.90625 32.71875 
Q 45.90625 40.484375 42.875 44.328125 
Q 39.84375 48.1875 33.796875 48.1875 
Q 26.515625 48.1875 22.3125 43.546875 
Q 18.109375 38.921875 18.109375 30.90625 
L 18.109375 0 
L 9.078125 0 
L 9.078125 54.6875 
L 18.109375 54.6875 
L 18.109375 46.1875 
Q 21.34375 51.125 25.703125 53.5625 
Q 30.078125 56 35.796875 56 
Q 45.21875 56 50.046875 50.171875 
Q 54.890625 44.34375 54.890625 33.015625 
z
" id="DejaVuSans-110"/>
      </defs>
      <use xlink:href="#DejaVuSans-108"/>
      <use x="27.783203" xlink:href="#DejaVuSans-111"/>
      <use x="88.964844" xlink:href="#DejaVuSans-103"/>
      <use x="152.441406" xlink:href="#DejaVuSans-49"/>
      <use x="216.064453" xlink:href="#DejaVuSans-48"/>
      <use x="279.6875" xlink:href="#DejaVuSans-40"/>
      <use x="318.701172" xlink:href="#DejaVuSans-35"/>
      <use x="402.490234" xlink:href="#DejaVuSans-32"/>
      <use x="434.277344" xlink:href="#DejaVuSans-40"/>
      <use x="473.291016" xlink:href="#DejaVuSans-102"/>
      <use x="508.496094" xlink:href="#DejaVuSans-43"/>
      <use x="592.285156" xlink:href="#DejaVuSans-103"/>
      <use x="655.761719" xlink:href="#DejaVuSans-41"/>
      <use x="694.775391" xlink:href="#DejaVuSans-45"/>
      <use x="730.859375" xlink:href="#DejaVuSans-101"/>
      <use x="792.382812" xlink:href="#DejaVuSans-118"/>
      <use x="851.5625" xlink:href="#DejaVuSans-97"/>
      <use x="912.841797" xlink:href="#DejaVuSans-108"/>
      <use x="940.625" xlink:href="#DejaVuSans-115"/>
      <use x="992.724609" xlink:href="#DejaVuSans-32"/>
      <use x="1024.511719" xlink:href="#DejaVuSans-47"/>
      <use x="1058.203125" xlink:href="#DejaVuSans-32"/>
      <use x="1089.990234" xlink:href="#DejaVuSans-100"/>
      <use x="1153.466797" xlink:href="#DejaVuSans-105"/>
      <use x="1181.25" xlink:href="#DejaVuSans-109"/>
      <use x="1278.662109" xlink:href="#DejaVuSans-101"/>
      <use x="1340.185547" xlink:href="#DejaVuSans-110"/>
      <use x="1403.564453" xlink:href="#DejaVuSans-115"/>
      <use x="1455.664062" xlink:href="#DejaVuSans-105"/>
      <use x="1483.447266" xlink:href="#DejaVuSans-111"/>
      <use x="1544.628906" xlink:href="#DejaVuSans-110"/>
      <use x="1608.007812" xlink:href="#DejaVuSans-41"/>
     </g>
    </g>
   </g>
   <g id="matplotlib.axis_2">
    <g id="ytick_1">
     <g id="line2d_17">
      <path clip-path="url(#p766de181c1)" d="M 57.6 298.944 
L 338.688 298.944 
" style="fill:none;stroke:#b0b0b0;stroke-linecap:square;stroke-width:0.8;"/>
     </g>
     <g id="line2d_18">
      <defs>
       <path d="M 0 0 
L -3.5 0 
" id="meeafc573b1" style="stroke:#000000;stroke-width:0.8;"/>
      </defs>
      <g>
       <use style="stroke:#000000;stroke-width:0.8;" x="57.6" xlink:href="#meeafc573b1" y="298.944"/>
      </g>
     </g>
     <g id="text_6">
      <!-- 0.0 -->
      <g transform="translate(25.155 305.02275)scale(0.16 -0.16)">
       <defs>
        <path d="M 10.6875 12.40625 
L 21 12.40625 
L 21 0 
L 10.6875 0 
z
" id="DejaVuSans-46"/>
       </defs>
       <use xlink:href="#DejaVuSans-48"/>
       <use x="63.623047" xlink:href="#DejaVuSans-46"/>
       <use x="95.410156" xlink:href="#DejaVuSans-48"/>
      </g>
     </g>
    </g>
    <g id="ytick_2">
     <g id="line2d_19">
      <path clip-path="url(#p766de181c1)" d="M 57.6 245.22202 
L 338.688 245.22202 
" style="fill:none;stroke:#b0b0b0;stroke-linecap:square;stroke-width:0.8;"/>
     </g>
     <g id="line2d_20">
      <g>
       <use style="stroke:#000000;stroke-width:0.8;" x="57.6" xlink:href="#meeafc573b1" y="245.22202"/>
      </g>
     </g>
     <g id="text_7">
      <!-- 0.2 -->
      <g transform="translate(25.155 251.30077)scale(0.16 -0.16)">
       <use xlink:href="#DejaVuSans-48"/>
       <use x="63.623047" xlink:href="#DejaVuSans-46"/>
       <use x="95.410156" xlink:href="#DejaVuSans-50"/>
      </g>
     </g>
    </g>
    <g id="ytick_3">
     <g id="line2d_21">
      <path clip-path="url(#p766de181c1)" d="M 57.6 191.50004 
L 338.688 191.50004 
" style="fill:none;stroke:#b0b0b0;stroke-linecap:square;stroke-width:0.8;"/>
     </g>
     <g id="line2d_22">
      <g>
       <use style="stroke:#000000;stroke-width:0.8;" x="57.6" xlink:href="#meeafc573b1" y="191.50004"/>
      </g>
     </g>
     <g id="text_8">
      <!-- 0.4 -->
      <g transform="translate(25.155 197.57879)scale(0.16 -0.16)">
       <use xlink:href="#DejaVuSans-48"/>
       <use x="63.623047" xlink:href="#DejaVuSans-46"/>
       <use x="95.410156" xlink:href="#DejaVuSans-52"/>
      </g>
     </g>
    </g>
    <g id="ytick_4">
     <g id="line2d_23">
      <path clip-path="url(#p766de181c1)" d="M 57.6 137.778059 
L 338.688 137.778059 
" style="fill:none;stroke:#b0b0b0;stroke-linecap:square;stroke-width:0.8;"/>
     </g>
     <g id="line2d_24">
      <g>
       <use style="stroke:#000000;stroke-width:0.8;" x="57.6" xlink:href="#meeafc573b1" y="137.778059"/>
      </g>
     </g>
     <g id="text_9">
      <!-- 0.6 -->
      <g transform="translate(25.155 143.856809)scale(0.16 -0.16)">
       <use xlink:href="#DejaVuSans-48"/>
       <use x="63.623047" xlink:href="#DejaVuSans-46"/>
       <use x="95.410156" xlink:href="#DejaVuSans-54"/>
      </g>
     </g>
    </g>
    <g id="ytick_5">
     <g id="line2d_25">
      <path clip-path="url(#p766de181c1)" d="M 57.6 84.056079 
L 338.688 84.056079 
" style="fill:none;stroke:#b0b0b0;stroke-linecap:square;stroke-width:0.8;"/>
     </g>
     <g id="line2d_26">
      <g>
       <use style="stroke:#000000;stroke-width:0.8;" x="57.6" xlink:href="#meeafc573b1" y="84.056079"/>
      </g>
     </g>
     <g id="text_10">
      <!-- 0.8 -->
      <g transform="translate(25.155 90.134829)scale(0.16 -0.16)">
       <defs>
        <path d="M 31.78125 34.625 
Q 24.75 34.625 20.71875 30.859375 
Q 16.703125 27.09375 16.703125 20.515625 
Q 16.703125 13.921875 20.71875 10.15625 
Q 24.75 6.390625 31.78125 6.390625 
Q 38.8125 6.390625 42.859375 10.171875 
Q 46.921875 13.96875 46.921875 20.515625 
Q 46.921875 27.09375 42.890625 30.859375 
Q 38.875 34.625 31.78125 34.625 
z
M 21.921875 38.8125 
Q 15.578125 40.375 12.03125 44.71875 
Q 8.5 49.078125 8.5 55.328125 
Q 8.5 64.0625 14.71875 69.140625 
Q 20.953125 74.21875 31.78125 74.21875 
Q 42.671875 74.21875 48.875 69.140625 
Q 55.078125 64.0625 55.078125 55.328125 
Q 55.078125 49.078125 51.53125 44.71875 
Q 48 40.375 41.703125 38.8125 
Q 48.828125 37.15625 52.796875 32.3125 
Q 56.78125 27.484375 56.78125 20.515625 
Q 56.78125 9.90625 50.3125 4.234375 
Q 43.84375 -1.421875 31.78125 -1.421875 
Q 19.734375 -1.421875 13.25 4.234375 
Q 6.78125 9.90625 6.78125 20.515625 
Q 6.78125 27.484375 10.78125 32.3125 
Q 14.796875 37.15625 21.921875 38.8125 
z
M 18.3125 54.390625 
Q 18.3125 48.734375 21.84375 45.5625 
Q 25.390625 42.390625 31.78125 42.390625 
Q 38.140625 42.390625 41.71875 45.5625 
Q 45.3125 48.734375 45.3125 54.390625 
Q 45.3125 60.0625 41.71875 63.234375 
Q 38.140625 66.40625 31.78125 66.40625 
Q 25.390625 66.40625 21.84375 63.234375 
Q 18.3125 60.0625 18.3125 54.390625 
z
" id="DejaVuSans-56"/>
       </defs>
       <use xlink:href="#DejaVuSans-48"/>
       <use x="63.623047" xlink:href="#DejaVuSans-46"/>
       <use x="95.410156" xlink:href="#DejaVuSans-56"/>
      </g>
     </g>
    </g>
    <g id="ytick_6">
     <g id="line2d_27">
      <path clip-path="url(#p766de181c1)" d="M 57.6 30.334099 
L 338.688 30.334099 
" style="fill:none;stroke:#b0b0b0;stroke-linecap:square;stroke-width:0.8;"/>
     </g>
     <g id="line2d_28">
      <g>
       <use style="stroke:#000000;stroke-width:0.8;" x="57.6" xlink:href="#meeafc573b1" y="30.334099"/>
      </g>
     </g>
     <g id="text_11">
      <!-- 1.0 -->
      <g transform="translate(25.155 36.412849)scale(0.16 -0.16)">
       <use xlink:href="#DejaVuSans-49"/>
       <use x="63.623047" xlink:href="#DejaVuSans-46"/>
       <use x="95.410156" xlink:href="#DejaVuSans-48"/>
      </g>
     </g>
    </g>
    <g id="text_12">
     <!-- Fraction of function,target pairs -->
     <g transform="translate(17.619531 297.681)rotate(-90)scale(0.17 -0.17)">
      <defs>
       <path d="M 9.8125 72.90625 
L 51.703125 72.90625 
L 51.703125 64.59375 
L 19.671875 64.59375 
L 19.671875 43.109375 
L 48.578125 43.109375 
L 48.578125 34.8125 
L 19.671875 34.8125 
L 19.671875 0 
L 9.8125 0 
z
" id="DejaVuSans-70"/>
       <path d="M 41.109375 46.296875 
Q 39.59375 47.171875 37.8125 47.578125 
Q 36.03125 48 33.890625 48 
Q 26.265625 48 22.1875 43.046875 
Q 18.109375 38.09375 18.109375 28.8125 
L 18.109375 0 
L 9.078125 0 
L 9.078125 54.6875 
L 18.109375 54.6875 
L 18.109375 46.1875 
Q 20.953125 51.171875 25.484375 53.578125 
Q 30.03125 56 36.53125 56 
Q 37.453125 56 38.578125 55.875 
Q 39.703125 55.765625 41.0625 55.515625 
z
" id="DejaVuSans-114"/>
       <path d="M 48.78125 52.59375 
L 48.78125 44.1875 
Q 44.96875 46.296875 41.140625 47.34375 
Q 37.3125 48.390625 33.40625 48.390625 
Q 24.65625 48.390625 19.8125 42.84375 
Q 14.984375 37.3125 14.984375 27.296875 
Q 14.984375 17.28125 19.8125 11.734375 
Q 24.65625 6.203125 33.40625 6.203125 
Q 37.3125 6.203125 41.140625 7.25 
Q 44.96875 8.296875 48.78125 10.40625 
L 48.78125 2.09375 
Q 45.015625 0.34375 40.984375 -0.53125 
Q 36.96875 -1.421875 32.421875 -1.421875 
Q 20.0625 -1.421875 12.78125 6.34375 
Q 5.515625 14.109375 5.515625 27.296875 
Q 5.515625 40.671875 12.859375 48.328125 
Q 20.21875 56 33.015625 56 
Q 37.15625 56 41.109375 55.140625 
Q 45.0625 54.296875 48.78125 52.59375 
z
" id="DejaVuSans-99"/>
       <path d="M 18.3125 70.21875 
L 18.3125 54.6875 
L 36.8125 54.6875 
L 36.8125 47.703125 
L 18.3125 47.703125 
L 18.3125 18.015625 
Q 18.3125 11.328125 20.140625 9.421875 
Q 21.96875 7.515625 27.59375 7.515625 
L 36.8125 7.515625 
L 36.8125 0 
L 27.59375 0 
Q 17.1875 0 13.234375 3.875 
Q 9.28125 7.765625 9.28125 18.015625 
L 9.28125 47.703125 
L 2.6875 47.703125 
L 2.6875 54.6875 
L 9.28125 54.6875 
L 9.28125 70.21875 
z
" id="DejaVuSans-116"/>
       <path d="M 8.5 21.578125 
L 8.5 54.6875 
L 17.484375 54.6875 
L 17.484375 21.921875 
Q 17.484375 14.15625 20.5 10.265625 
Q 23.53125 6.390625 29.59375 6.390625 
Q 36.859375 6.390625 41.078125 11.03125 
Q 45.3125 15.671875 45.3125 23.6875 
L 45.3125 54.6875 
L 54.296875 54.6875 
L 54.296875 0 
L 45.3125 0 
L 45.3125 8.40625 
Q 42.046875 3.421875 37.71875 1 
Q 33.40625 -1.421875 27.6875 -1.421875 
Q 18.265625 -1.421875 13.375 4.4375 
Q 8.5 10.296875 8.5 21.578125 
z
M 31.109375 56 
z
" id="DejaVuSans-117"/>
       <path d="M 11.71875 12.40625 
L 22.015625 12.40625 
L 22.015625 4 
L 14.015625 -11.625 
L 7.71875 -11.625 
L 11.71875 4 
z
" id="DejaVuSans-44"/>
       <path d="M 18.109375 8.203125 
L 18.109375 -20.796875 
L 9.078125 -20.796875 
L 9.078125 54.6875 
L 18.109375 54.6875 
L 18.109375 46.390625 
Q 20.953125 51.265625 25.265625 53.625 
Q 29.59375 56 35.59375 56 
Q 45.5625 56 51.78125 48.09375 
Q 58.015625 40.1875 58.015625 27.296875 
Q 58.015625 14.40625 51.78125 6.484375 
Q 45.5625 -1.421875 35.59375 -1.421875 
Q 29.59375 -1.421875 25.265625 0.953125 
Q 20.953125 3.328125 18.109375 8.203125 
z
M 48.6875 27.296875 
Q 48.6875 37.203125 44.609375 42.84375 
Q 40.53125 48.484375 33.40625 48.484375 
Q 26.265625 48.484375 22.1875 42.84375 
Q 18.109375 37.203125 18.109375 27.296875 
Q 18.109375 17.390625 22.1875 11.75 
Q 26.265625 6.109375 33.40625 6.109375 
Q 40.53125 6.109375 44.609375 11.75 
Q 48.6875 17.390625 48.6875 27.296875 
z
" id="DejaVuSans-112"/>
      </defs>
      <use xlink:href="#DejaVuSans-70"/>
      <use x="50.269531" xlink:href="#DejaVuSans-114"/>
      <use x="91.382812" xlink:href="#DejaVuSans-97"/>
      <use x="152.662109" xlink:href="#DejaVuSans-99"/>
      <use x="207.642578" xlink:href="#DejaVuSans-116"/>
      <use x="246.851562" xlink:href="#DejaVuSans-105"/>
      <use x="274.634766" xlink:href="#DejaVuSans-111"/>
      <use x="335.816406" xlink:href="#DejaVuSans-110"/>
      <use x="399.195312" xlink:href="#DejaVuSans-32"/>
      <use x="430.982422" xlink:href="#DejaVuSans-111"/>
      <use x="492.164062" xlink:href="#DejaVuSans-102"/>
      <use x="527.369141" xlink:href="#DejaVuSans-32"/>
      <use x="559.15625" xlink:href="#DejaVuSans-102"/>
      <use x="594.361328" xlink:href="#DejaVuSans-117"/>
      <use x="657.740234" xlink:href="#DejaVuSans-110"/>
      <use x="721.119141" xlink:href="#DejaVuSans-99"/>
      <use x="776.099609" xlink:href="#DejaVuSans-116"/>
      <use x="815.308594" xlink:href="#DejaVuSans-105"/>
      <use x="843.091797" xlink:href="#DejaVuSans-111"/>
      <use x="904.273438" xlink:href="#DejaVuSans-110"/>
      <use x="967.652344" xlink:href="#DejaVuSans-44"/>
      <use x="999.439453" xlink:href="#DejaVuSans-116"/>
      <use x="1038.648438" xlink:href="#DejaVuSans-97"/>
      <use x="1099.927734" xlink:href="#DejaVuSans-114"/>
      <use x="1139.291016" xlink:href="#DejaVuSans-103"/>
      <use x="1202.767578" xlink:href="#DejaVuSans-101"/>
      <use x="1264.291016" xlink:href="#DejaVuSans-116"/>
      <use x="1303.5" xlink:href="#DejaVuSans-32"/>
      <use x="1335.287109" xlink:href="#DejaVuSans-112"/>
      <use x="1398.763672" xlink:href="#DejaVuSans-97"/>
      <use x="1460.042969" xlink:href="#DejaVuSans-105"/>
      <use x="1487.826172" xlink:href="#DejaVuSans-114"/>
      <use x="1528.939453" xlink:href="#DejaVuSans-115"/>
     </g>
    </g>
   </g>
   <g id="line2d_29">
    <defs>
     <path d="M 0 1.5 
C 0.397805 1.5 0.77937 1.341951 1.06066 1.06066 
C 1.341951 0.77937 1.5 0.397805 1.5 0 
C 1.5 -0.397805 1.341951 -0.77937 1.06066 -1.06066 
C 0.77937 -1.341951 0.397805 -1.5 0 -1.5 
C -0.397805 -1.5 -0.77937 -1.341951 -1.06066 -1.06066 
C -1.341951 -0.77937 -1.5 -0.397805 -1.5 0 
C -1.5 0.397805 -1.341951 0.77937 -1.06066 1.06066 
C -0.77937 1.341951 -0.397805 1.5 0 1.5 
z
" id="m48e8c9ede7" style="stroke:#000080;"/>
    </defs>
    <g>
     <use style="fill:#000080;stroke:#000080;" x="178.432134" xlink:href="#m48e8c9ede7" y="30.334099"/>
     <use style="fill:#000080;stroke:#000080;" x="178.432134" xlink:href="#m48e8c9ede7" y="30.334099"/>
    </g>
   </g>
   <g id="line2d_30">
    <path d="M 93.863965 298.944 
L 93.863965 298.507236 
L 94.294587 298.507236 
L 94.294587 296.76018 
L 95.125186 296.76018 
L 95.125186 294.576359 
L 95.526106 294.576359 
L 95.526106 292.829303 
L 96.676366 292.829303 
L 96.676366 291.519011 
L 97.043522 291.519011 
L 97.043522 291.082247 
L 98.43941 291.082247 
L 98.43941 290.208719 
L 99.097574 290.208719 
L 99.097574 289.771955 
L 99.41757 289.771955 
L 99.41757 287.588134 
L 99.731799 287.588134 
L 99.731799 287.15137 
L 100.040467 287.15137 
L 100.040467 283.657258 
L 100.934985 283.657258 
L 100.934985 279.726381 
L 101.506816 279.726381 
L 101.506816 279.289617 
L 101.785851 279.289617 
L 101.785851 278.852853 
L 102.330873 278.852853 
L 102.330873 273.611684 
L 102.597126 273.611684 
L 102.597126 269.244043 
L 103.117741 269.244043 
L 103.117741 268.370515 
L 103.372333 268.370515 
L 103.372333 267.496987 
L 103.870632 267.496987 
L 103.870632 264.002875 
L 104.114542 264.002875 
L 104.114542 263.566111 
L 104.355088 263.566111 
L 104.355088 261.38229 
L 105.057436 261.38229 
L 105.057436 258.761706 
L 105.732589 258.761706 
L 105.732589 257.01465 
L 106.168594 257.01465 
L 106.168594 253.957301 
L 107.009204 253.957301 
L 107.009204 253.083773 
L 107.213174 253.083773 
L 107.213174 250.899953 
L 107.614095 250.899953 
L 107.614095 248.716132 
L 107.811151 248.716132 
L 107.811151 245.658784 
L 108.006005 245.658784 
L 108.006005 243.474964 
L 108.948899 243.474964 
L 108.948899 242.164671 
L 109.131511 242.164671 
L 109.131511 236.923503 
L 109.31223 236.923503 
L 109.31223 235.176446 
L 109.668146 235.176446 
L 109.668146 229.498513 
L 110.358901 229.498513 
L 110.358901 228.624985 
L 110.527398 228.624985 
L 110.527398 228.188221 
L 110.694282 228.188221 
L 110.694282 226.441165 
L 111.023335 226.441165 
L 111.023335 224.257345 
L 111.185562 224.257345 
L 111.185562 219.45294 
L 111.346294 219.45294 
L 111.346294 217.26912 
L 111.819788 217.26912 
L 111.819788 214.648535 
L 112.128456 214.648535 
L 112.128456 212.901479 
L 112.58145 212.901479 
L 112.58145 212.464715 
L 112.72987 212.464715 
L 112.72987 212.027951 
L 112.877038 212.027951 
L 112.877038 211.591187 
L 113.022974 211.591187 
L 113.022974 207.66031 
L 113.167699 207.66031 
L 113.167699 207.223546 
L 113.311233 207.223546 
L 113.311233 205.47649 
L 113.453595 205.47649 
L 113.453595 203.729433 
L 113.73488 203.729433 
L 113.73488 201.108849 
L 113.873839 201.108849 
L 113.873839 200.672085 
L 114.284194 200.672085 
L 114.284194 198.488265 
L 114.552496 198.488265 
L 114.552496 197.177972 
L 114.685115 197.177972 
L 114.685115 191.50004 
L 115.460322 191.50004 
L 115.460322 188.005927 
L 115.711251 188.005927 
L 115.711251 183.638286 
L 115.835374 183.638286 
L 115.835374 183.201522 
L 116.443076 183.201522 
L 116.443076 181.454466 
L 116.562116 181.454466 
L 116.562116 180.144174 
L 116.914437 180.144174 
L 116.914437 179.70741 
L 117.030313 179.70741 
L 117.030313 177.086825 
L 117.373392 177.086825 
L 117.373392 176.650061 
L 117.709852 176.650061 
L 117.820578 175.776533 
L 118.256582 175.776533 
L 118.256582 173.592713 
L 138.84457 173.592713 
L 138.910565 170.0986 
L 139.8092 170.0986 
L 139.87165 167.478016 
L 140.180592 167.478016 
L 140.180592 167.041252 
L 140.454035 167.041252 
L 140.454035 163.547139 
L 140.782525 163.547139 
L 140.782525 161.800083 
L 141.220721 161.800083 
L 141.278324 159.616263 
L 141.421504 159.616263 
L 141.421504 157.432442 
L 141.982752 157.432442 
L 141.982752 155.685386 
L 143.388196 155.685386 
L 143.489809 152.191274 
L 143.741281 152.191274 
L 143.816021 150.880981 
L 144.233601 150.880981 
L 144.233601 147.823633 
L 144.546314 147.823633 
L 144.546314 146.076577 
L 144.923649 146.076577 
L 144.923649 144.766284 
L 145.24725 144.766284 
L 145.24725 140.835408 
L 145.609873 140.835408 
L 145.609873 138.651588 
L 145.876977 138.651588 
L 145.876977 137.778059 
L 150.505862 137.778059 
L 150.505862 137.341295 
L 150.741418 137.341295 
L 150.808139 134.720711 
L 150.907745 134.720711 
L 151.006785 133.410419 
L 151.023238 133.410419 
L 151.105266 128.16925 
L 151.349063 128.16925 
L 151.349063 124.238373 
L 151.477707 124.238373 
L 151.477707 120.307497 
L 151.60541 120.307497 
L 151.716387 117.250148 
L 151.795227 117.250148 
L 151.873711 113.319272 
L 152.060646 113.319272 
L 152.168773 109.388395 
L 152.184165 109.388395 
L 152.260923 104.58399 
L 152.367819 104.58399 
L 152.458925 101.963406 
L 154.008494 101.963406 
L 154.036187 100.653114 
L 154.132765 100.653114 
L 154.132765 99.779586 
L 154.378682 99.779586 
L 154.392243 96.722237 
L 154.621179 96.722237 
L 154.621179 94.538417 
L 154.78099 94.538417 
L 154.807483 91.481068 
L 155.04413 91.481068 
L 155.04413 88.860484 
L 155.187182 88.860484 
L 155.200129 85.366371 
L 155.393186 85.366371 
L 155.393186 84.056079 
L 157.681031 84.056079 
L 157.73707 80.998731 
L 157.904114 80.998731 
L 157.904114 79.688439 
L 158.113432 79.688439 
L 158.12438 76.194326 
L 158.298611 76.194326 
L 158.298611 74.884034 
L 158.428151 74.884034 
L 158.492562 70.079629 
L 158.663171 70.079629 
L 158.726721 68.769337 
L 158.832127 68.769337 
L 158.842632 66.148752 
L 162.598085 66.148752 
L 162.598085 64.83846 
L 162.733045 64.83846 
L 162.833584 59.597291 
L 162.991595 59.597291 
L 163.082425 55.666415 
L 163.172784 55.666415 
L 163.221874 51.735538 
L 163.343998 51.735538 
L 163.35211 48.241426 
L 178.066286 48.241426 
L 178.139377 43.873785 
L 178.181007 43.873785 
L 178.291535 36.012032 
L 178.325932 36.012032 
L 178.432134 30.334099 
L 338.688 30.334099 
L 338.688 30.334099 
" style="fill:none;stroke:#000080;stroke-linecap:square;stroke-width:1.5;"/>
   </g>
   <g id="line2d_31">
    <defs>
     <path d="M 0 6 
C 1.591219 6 3.117479 5.367802 4.242641 4.242641 
C 5.367802 3.117479 6 1.591219 6 0 
C 6 -1.591219 5.367802 -3.117479 4.242641 -4.242641 
C 3.117479 -5.367802 1.591219 -6 0 -6 
C -1.591219 -6 -3.117479 -5.367802 -4.242641 -4.242641 
C -5.367802 -3.117479 -6 -1.591219 -6 0 
C -6 1.591219 -5.367802 3.117479 -4.242641 4.242641 
C -3.117479 5.367802 -1.591219 6 0 6 
z
" id="m5cf39088fd" style="stroke:#000080;stroke-width:1.5;"/>
    </defs>
    <g>
     <use style="fill-opacity:0;stroke:#000080;stroke-width:1.5;" x="138.910565" xlink:href="#m5cf39088fd" y="170.0986"/>
     <use style="fill-opacity:0;stroke:#000080;stroke-width:1.5;" x="178.181007" xlink:href="#m5cf39088fd" y="40.816437"/>
     <use style="fill-opacity:0;stroke:#000080;stroke-width:1.5;" x="178.432134" xlink:href="#m5cf39088fd" y="30.334099"/>
     <use style="fill-opacity:0;stroke:#000080;stroke-width:1.5;" x="178.432134" xlink:href="#m5cf39088fd" y="30.334099"/>
     <use style="fill-opacity:0;stroke:#000080;stroke-width:1.5;" x="338.688" xlink:href="#m5cf39088fd" y="30.334099"/>
    </g>
   </g>
   <g id="line2d_32">
    <path style="fill:none;stroke:#000080;stroke-linecap:square;stroke-width:1.5;"/>
    <g/>
   </g>
   <g id="line2d_33">
    <defs>
     <path d="M 0 1.5 
C 0.397805 1.5 0.77937 1.341951 1.06066 1.06066 
C 1.341951 0.77937 1.5 0.397805 1.5 0 
C 1.5 -0.397805 1.341951 -0.77937 1.06066 -1.06066 
C 0.77937 -1.341951 0.397805 -1.5 0 -1.5 
C -0.397805 -1.5 -0.77937 -1.341951 -1.06066 -1.06066 
C -1.341951 -0.77937 -1.5 -0.397805 -1.5 0 
C -1.5 0.397805 -1.341951 0.77937 -1.06066 1.06066 
C -0.77937 1.341951 -0.397805 1.5 0 1.5 
z
" id="m2345facaea" style="stroke:#ff00ff;"/>
    </defs>
    <g>
     <use style="fill:#ff00ff;stroke:#ff00ff;" x="259.54979" xlink:href="#m2345facaea" y="30.334099"/>
     <use style="fill:#ff00ff;stroke:#ff00ff;" x="259.54979" xlink:href="#m2345facaea" y="30.334099"/>
    </g>
   </g>
   <g id="line2d_34">
    <path d="M 151.421542 298.944 
L 151.421542 298.507236 
L 151.597455 298.507236 
L 151.597455 298.070472 
L 151.818809 298.070472 
L 151.818809 297.633708 
L 152.766663 297.633708 
L 152.766663 297.196944 
L 153.13475 297.196944 
L 153.13475 296.76018 
L 155.219531 296.76018 
L 155.219531 296.323416 
L 155.488919 296.323416 
L 155.488919 295.886652 
L 155.628383 295.886652 
L 155.628383 295.013123 
L 155.766741 295.013123 
L 155.766741 294.576359 
L 155.904009 294.576359 
L 155.904009 294.139595 
L 156.040206 294.139595 
L 156.040206 292.829303 
L 156.175347 292.829303 
L 156.175347 291.955775 
L 156.442528 291.955775 
L 156.442528 291.519011 
L 156.681918 291.519011 
L 156.705677 290.645483 
L 157.460743 290.645483 
L 157.460743 290.208719 
L 157.820792 290.208719 
L 157.820792 289.771955 
L 158.433528 289.771955 
L 158.433528 289.335191 
L 160.432539 289.335191 
L 160.432539 288.898426 
L 160.802491 288.898426 
L 160.802491 288.024898 
L 161.091058 288.024898 
L 161.091058 287.588134 
L 161.356752 287.588134 
L 161.356752 287.15137 
L 161.483584 287.15137 
L 161.483584 286.714606 
L 162.130378 286.714606 
L 162.130378 286.277842 
L 162.695193 286.277842 
L 162.703612 285.404314 
L 162.846111 285.404314 
L 162.846111 284.96755 
L 164.440577 284.96755 
L 164.440577 284.530786 
L 165.193576 284.530786 
L 165.193576 283.657258 
L 166.172531 283.657258 
L 166.186323 282.78373 
L 166.908703 282.78373 
L 166.908703 282.346965 
L 167.027338 282.346965 
L 167.0929 281.036673 
L 167.281645 281.036673 
L 167.281645 280.163145 
L 168.464104 280.163145 
L 168.497342 276.232269 
L 169.011918 276.232269 
L 169.07628 274.485212 
L 169.27373 274.485212 
L 169.27373 272.738156 
L 169.673338 272.738156 
L 169.673338 272.301392 
L 170.596616 272.301392 
L 170.596616 271.864628 
L 171.559782 271.864628 
L 171.559782 271.427864 
L 172.539692 271.427864 
L 172.539692 270.9911 
L 173.412888 270.9911 
L 173.462916 270.117572 
L 173.920102 270.117572 
L 173.920102 269.680808 
L 174.257463 269.680808 
L 174.257463 269.244043 
L 175.013227 269.244043 
L 175.013227 268.807279 
L 175.149812 268.807279 
L 175.149812 268.370515 
L 175.717652 268.370515 
L 175.721642 267.496987 
L 176.018337 267.496987 
L 176.018337 267.060223 
L 176.513321 267.060223 
L 176.513321 266.623459 
L 177.299796 266.623459 
L 177.299796 266.186695 
L 177.862808 266.186695 
L 177.940269 265.313167 
L 178.68643 265.313167 
L 178.68643 264.876403 
L 179.27877 264.876403 
L 179.321016 264.002875 
L 179.424571 264.002875 
L 179.472902 263.129347 
L 179.594743 263.129347 
L 179.594743 262.692582 
L 179.977136 262.692582 
L 180.030195 261.819054 
L 180.804318 261.819054 
L 180.819217 260.945526 
L 181.026478 260.945526 
L 181.026478 260.508762 
L 182.242806 260.508762 
L 182.346807 259.635234 
L 182.55027 259.635234 
L 182.55027 259.19847 
L 182.952845 259.19847 
L 182.952845 258.761706 
L 183.180642 258.761706 
L 183.180642 257.451414 
L 183.543625 257.451414 
L 183.543625 254.830829 
L 183.821648 254.830829 
L 183.881723 248.716132 
L 184.12244 248.716132 
L 184.12244 248.279368 
L 184.625286 248.279368 
L 184.625286 247.842604 
L 185.020655 247.842604 
L 185.074411 246.969076 
L 185.641499 246.969076 
L 185.641499 246.532312 
L 185.879321 246.532312 
L 185.879321 246.095548 
L 186.223529 246.095548 
L 186.260631 245.22202 
L 186.390954 245.22202 
L 186.426623 239.544087 
L 186.540704 239.544087 
L 186.612428 235.176446 
L 186.955174 235.176446 
L 187.051282 233.42939 
L 187.159291 233.42939 
L 187.159291 232.992626 
L 187.541259 232.992626 
L 187.611011 232.119098 
L 188.188503 232.119098 
L 188.188503 231.682334 
L 188.330421 231.682334 
L 188.330421 231.24557 
L 188.444284 231.24557 
L 188.505731 230.372042 
L 188.599403 230.372042 
L 188.599403 229.935277 
L 188.752209 229.935277 
L 188.856786 228.624985 
L 188.919607 228.624985 
L 188.959806 227.751457 
L 189.121531 227.751457 
L 189.121531 227.314693 
L 189.393251 227.314693 
L 189.496781 226.004401 
L 189.58349 226.004401 
L 189.642853 223.383816 
L 191.454385 223.383816 
L 191.454385 222.947052 
L 191.841763 222.947052 
L 191.841763 222.510288 
L 192.274855 222.510288 
L 192.274855 222.073524 
L 193.982843 222.073524 
L 194.044342 219.889704 
L 194.16808 219.889704 
L 194.199915 218.142648 
L 194.297822 218.142648 
L 194.395184 212.027951 
L 194.427972 212.027951 
L 194.532754 207.66031 
L 195.418858 207.66031 
L 195.418858 207.223546 
L 195.930937 207.223546 
L 195.930937 206.786782 
L 196.998275 206.786782 
L 196.998275 205.47649 
L 199.523586 205.47649 
L 199.523586 205.039726 
L 200.089071 205.039726 
L 200.160941 203.292669 
L 200.22958 203.292669 
L 200.30867 201.982377 
L 200.413569 201.982377 
L 200.515914 199.798557 
L 200.583173 199.798557 
L 200.681671 189.316219 
L 200.727383 189.316219 
L 200.727383 188.879455 
L 200.860031 188.879455 
L 200.860031 188.442691 
L 201.242794 188.442691 
L 201.242794 188.005927 
L 201.369759 188.005927 
L 201.455717 186.258871 
L 201.494897 186.258871 
L 201.597441 185.385343 
L 201.61372 185.385343 
L 201.724555 183.638286 
L 201.911283 183.638286 
L 202.013182 181.89123 
L 202.257951 181.89123 
L 202.365644 179.70741 
L 202.43046 179.70741 
L 202.517366 177.523589 
L 202.587606 177.523589 
L 202.68904 174.903005 
L 202.709426 174.903005 
L 202.765364 171.408893 
L 202.888474 171.408893 
L 202.989848 162.673611 
L 202.99987 162.673611 
L 203.053221 160.053027 
L 203.157783 160.053027 
L 203.264188 158.742735 
L 203.386287 158.742735 
L 203.386287 158.305971 
L 203.518888 158.305971 
L 203.626341 156.12215 
L 203.949529 156.12215 
L 203.950319 154.811858 
L 204.464468 154.811858 
L 204.489015 153.93833 
L 204.987746 153.93833 
L 205.044271 153.064802 
L 205.57447 153.064802 
L 205.685045 149.570689 
L 205.747918 149.570689 
L 205.837547 147.386869 
L 205.923189 147.386869 
L 205.97043 141.272172 
L 207.437721 141.272172 
L 207.534227 140.398644 
L 207.762859 140.398644 
L 207.805377 139.088352 
L 207.899559 139.088352 
L 207.899559 138.651588 
L 208.038011 138.651588 
L 208.146183 135.157475 
L 208.182196 135.157475 
L 208.182196 134.720711 
L 208.321815 134.720711 
L 208.429164 129.916306 
L 208.452387 129.916306 
L 208.51457 129.042778 
L 208.838338 129.042778 
L 208.917607 127.295722 
L 209.200728 127.295722 
L 209.207162 122.054553 
L 209.443012 122.054553 
L 209.455702 120.744261 
L 209.557459 120.744261 
L 209.561471 119.870733 
L 209.899172 119.870733 
L 209.899172 119.433969 
L 210.031326 119.433969 
L 210.102031 117.686912 
L 210.158057 117.686912 
L 210.158057 117.250148 
L 210.281124 117.250148 
L 210.390218 114.1928 
L 210.398959 114.1928 
L 210.49809 111.572215 
L 210.531731 111.572215 
L 210.629034 108.078103 
L 210.643582 108.078103 
L 210.644121 107.204575 
L 210.883759 107.204575 
L 210.976481 106.331047 
L 211.007366 106.331047 
L 211.095499 102.836934 
L 211.254324 102.836934 
L 211.308847 92.791361 
L 211.439525 92.791361 
L 211.536256 88.42372 
L 211.551601 88.42372 
L 211.594242 84.492843 
L 211.806649 84.492843 
L 211.806649 84.056079 
L 212.635643 84.056079 
L 212.635643 83.619315 
L 213.195442 83.619315 
L 213.305833 80.998731 
L 213.33309 80.998731 
L 213.39484 77.941382 
L 213.5797 77.941382 
L 213.687692 77.067854 
L 213.693119 77.067854 
L 213.772976 74.884034 
L 213.821074 74.884034 
L 213.920446 67.022281 
L 214.247655 67.022281 
L 214.247655 66.585517 
L 215.084518 66.585517 
L 215.084518 66.148752 
L 215.229216 66.148752 
L 215.229216 65.711988 
L 215.551884 65.711988 
L 215.600594 64.83846 
L 215.666946 64.83846 
L 215.709093 61.344348 
L 216.24579 61.344348 
L 216.24579 60.907584 
L 216.469354 60.907584 
L 216.568953 59.160527 
L 216.675039 59.160527 
L 216.75053 57.413471 
L 216.964195 57.413471 
L 216.964195 56.976707 
L 217.957081 56.976707 
L 218.042039 56.103179 
L 218.132722 56.103179 
L 218.137103 54.792887 
L 218.860025 54.792887 
L 218.860025 54.356123 
L 219.125482 54.356123 
L 219.215493 53.482595 
L 219.380432 53.482595 
L 219.380432 53.04583 
L 219.827006 53.04583 
L 219.827642 51.735538 
L 220.187182 51.735538 
L 220.187182 51.298774 
L 220.343994 51.298774 
L 220.343994 50.86201 
L 220.857195 50.86201 
L 220.877873 49.988482 
L 220.970177 49.988482 
L 220.993103 47.804662 
L 221.141831 47.804662 
L 221.141831 47.367898 
L 221.295297 47.367898 
L 221.295297 46.931134 
L 222.40537 46.931134 
L 222.456743 46.057605 
L 222.533179 46.057605 
L 222.547473 43.437021 
L 223.266085 43.437021 
L 223.266085 43.000257 
L 223.635755 43.000257 
L 223.635755 42.563493 
L 224.025153 42.563493 
L 224.025153 42.126729 
L 224.313199 42.126729 
L 224.313199 41.689965 
L 224.453689 41.689965 
L 224.453689 41.253201 
L 225.238239 41.253201 
L 225.238239 40.816437 
L 225.973138 40.816437 
L 225.973138 40.379673 
L 226.380377 40.379673 
L 226.380377 39.942908 
L 229.469071 39.942908 
L 229.469071 39.506144 
L 230.879958 39.506144 
L 230.879958 39.06938 
L 232.607281 39.06938 
L 232.607281 38.632616 
L 233.622884 38.632616 
L 233.622884 38.195852 
L 233.959818 38.195852 
L 233.959818 37.759088 
L 235.252506 37.759088 
L 235.304837 36.88556 
L 236.063247 36.88556 
L 236.064438 36.012032 
L 239.230198 36.012032 
L 239.230982 35.138504 
L 242.534012 35.138504 
L 242.616269 34.264976 
L 244.273575 34.264976 
L 244.318737 33.391447 
L 247.614498 33.391447 
L 247.614498 32.954683 
L 248.529221 32.954683 
L 248.529221 32.517919 
L 249.005023 32.517919 
L 249.005023 32.081155 
L 252.04384 32.081155 
L 252.04384 31.644391 
L 258.393005 31.644391 
L 258.485227 30.770863 
L 259.54979 30.770863 
L 259.54979 30.334099 
L 338.688 30.334099 
L 338.688 30.334099 
" style="fill:none;stroke:#ff00ff;stroke-linecap:square;stroke-width:1.5;"/>
   </g>
   <g id="line2d_35">
    <defs>
     <path d="M -0 8.485281 
L 5.091169 0 
L 0 -8.485281 
L -5.091169 -0 
z
" id="mc78acacfe0" style="stroke:#ff00ff;stroke-linejoin:miter;stroke-width:1.5;"/>
    </defs>
    <g>
     <use style="fill-opacity:0;stroke:#ff00ff;stroke-linejoin:miter;stroke-width:1.5;" x="214.247655" xlink:href="#mc78acacfe0" y="67.022281"/>
     <use style="fill-opacity:0;stroke:#ff00ff;stroke-linejoin:miter;stroke-width:1.5;" x="259.54979" xlink:href="#mc78acacfe0" y="30.334099"/>
     <use style="fill-opacity:0;stroke:#ff00ff;stroke-linejoin:miter;stroke-width:1.5;" x="259.54979" xlink:href="#mc78acacfe0" y="30.334099"/>
     <use style="fill-opacity:0;stroke:#ff00ff;stroke-linejoin:miter;stroke-width:1.5;" x="338.688" xlink:href="#mc78acacfe0" y="30.334099"/>
    </g>
   </g>
   <g id="line2d_36">
    <path style="fill:none;stroke:#ff00ff;stroke-linecap:square;stroke-width:1.5;"/>
    <g/>
   </g>
   <g id="line2d_37">
    <path clip-path="url(#p766de181c1)" d="M 206.135818 141.272172 
" style="fill:none;stroke:#ff00ff;stroke-linecap:square;stroke-width:1.5;"/>
    <defs>
     <path d="M -12 12 
L 12 -12 
M -12 -12 
L 12 12 
" id="m7db5dc709d" style="stroke:#ff00ff;"/>
    </defs>
    <g clip-path="url(#p766de181c1)">
     <use style="fill:#ff00ff;stroke:#ff00ff;" x="206.135818" xlink:href="#m7db5dc709d" y="141.272172"/>
    </g>
   </g>
   <g id="line2d_38">
    <defs>
     <path d="M 0 1.5 
C 0.397805 1.5 0.77937 1.341951 1.06066 1.06066 
C 1.341951 0.77937 1.5 0.397805 1.5 0 
C 1.5 -0.397805 1.341951 -0.77937 1.06066 -1.06066 
C 0.77937 -1.341951 0.397805 -1.5 0 -1.5 
C -0.397805 -1.5 -0.77937 -1.341951 -1.06066 -1.06066 
C -1.341951 -0.77937 -1.5 -0.397805 -1.5 0 
C -1.5 0.397805 -1.341951 0.77937 -1.06066 1.06066 
C -0.77937 1.341951 -0.397805 1.5 0 1.5 
z
" id="mc3835db097" style="stroke:#ff7500;"/>
    </defs>
    <g>
     <use style="fill:#ff7500;stroke:#ff7500;" x="221.196176" xlink:href="#mc3835db097" y="30.334099"/>
     <use style="fill:#ff7500;stroke:#ff7500;" x="221.196176" xlink:href="#mc3835db097" y="30.334099"/>
    </g>
   </g>
   <g id="line2d_39">
    <path d="M 106.698704 298.944 
L 106.698704 297.633708 
L 108.948899 297.633708 
L 108.948899 296.323416 
L 110.941652 296.323416 
L 110.941652 295.013123 
L 112.72987 295.013123 
L 112.72987 294.576359 
L 114.351658 294.576359 
L 114.351658 292.829303 
L 115.835374 292.829303 
L 115.835374 291.955775 
L 117.202696 291.955775 
L 117.202696 291.082247 
L 118.629344 291.082247 
L 118.629344 288.461662 
L 119.80089 288.461662 
L 119.80089 285.404314 
L 120.898662 285.404314 
L 120.944859 282.78373 
L 121.931406 282.78373 
L 121.974949 280.599909 
L 123.029641 280.599909 
L 123.029641 278.852853 
L 123.94666 278.852853 
L 123.94666 277.105797 
L 124.706662 277.105797 
L 124.706662 276.232269 
L 124.817858 276.232269 
L 124.817858 274.485212 
L 125.541584 274.485212 
L 125.541584 273.611684 
L 126.338353 273.611684 
L 126.338353 270.9911 
L 126.47328 270.9911 
L 126.47328 270.554336 
L 138.778323 270.554336 
L 138.778323 270.117572 
L 139.188293 270.117572 
L 139.188293 268.370515 
L 139.525372 268.370515 
L 139.557137 265.749931 
L 139.918342 265.749931 
L 139.918342 264.439639 
L 140.272217 264.439639 
L 140.272217 263.129347 
L 140.619053 263.129347 
L 140.619053 260.508762 
L 141.292695 260.508762 
L 141.292695 260.071998 
L 141.421504 260.071998 
L 141.421504 259.635234 
L 141.620002 259.635234 
L 141.620002 257.888178 
L 142.311031 257.888178 
L 142.311031 256.141121 
L 142.619936 256.141121 
L 142.619936 255.704357 
L 144.806606 255.704357 
L 144.806606 254.830829 
L 145.074639 254.830829 
L 145.074639 253.957301 
L 145.372754 253.957301 
L 145.372754 252.647009 
L 145.598655 252.647009 
L 145.598655 251.773481 
L 145.854874 251.773481 
L 145.854874 251.336717 
L 146.107383 251.336717 
L 146.107383 247.842604 
L 146.324022 247.842604 
L 146.356287 246.969076 
L 146.60169 246.969076 
L 146.60169 245.22202 
L 146.843687 245.22202 
L 146.864572 242.164671 
L 147.02042 242.164671 
L 147.082371 239.544087 
L 147.317833 239.544087 
L 147.317833 237.797031 
L 147.459617 237.797031 
L 147.459617 237.360267 
L 149.012299 237.360267 
L 149.012299 236.923503 
L 153.395042 236.923503 
L 153.395042 236.486738 
L 153.722083 236.486738 
L 153.722083 234.302918 
L 154.029268 234.302918 
L 154.043103 232.119098 
L 154.201424 232.119098 
L 154.201424 229.498513 
L 154.344733 229.498513 
L 154.358321 226.004401 
L 154.500352 226.004401 
L 154.567581 223.383816 
L 154.667942 223.383816 
L 154.721232 221.63676 
L 154.820715 221.63676 
L 154.873541 218.579412 
L 155.024532 218.579412 
L 155.024532 217.705884 
L 155.174226 217.705884 
L 155.28405 212.901479 
L 155.30979 212.901479 
L 155.322646 210.717659 
L 155.444309 210.717659 
L 155.469814 207.66031 
L 155.722837 207.66031 
L 155.773004 205.47649 
L 155.86668 205.47649 
L 155.916435 201.108849 
L 156.009346 201.108849 
L 156.058696 198.488265 
L 156.199806 198.488265 
L 156.199806 196.304444 
L 156.339784 196.304444 
L 156.339784 193.68386 
L 156.466616 193.68386 
L 156.520691 187.132399 
L 156.616413 187.132399 
L 156.670026 183.638286 
L 156.806295 183.638286 
L 156.806295 182.327994 
L 157.075678 182.327994 
L 157.075678 181.454466 
L 157.220355 181.454466 
L 157.220355 180.144174 
L 157.363842 180.144174 
L 157.363842 177.086825 
L 157.624812 177.086825 
L 157.686643 173.592713 
L 157.753847 173.592713 
L 157.753847 171.845657 
L 157.881934 171.845657 
L 157.881934 170.535364 
L 158.009087 170.535364 
L 158.009087 168.788308 
L 160.200913 168.788308 
L 160.200913 167.041252 
L 161.127947 167.041252 
L 161.127947 164.857432 
L 161.242725 164.857432 
L 161.242725 163.547139 
L 161.451963 163.547139 
L 161.451963 162.673611 
L 161.564634 162.673611 
L 161.667653 161.363319 
L 161.770068 161.363319 
L 161.770068 160.926555 
L 161.973109 160.926555 
L 162.082474 158.305971 
L 162.182487 158.305971 
L 162.281931 155.685386 
L 162.29486 155.685386 
L 162.38081 152.628038 
L 162.879471 152.628038 
L 162.975029 150.880981 
L 164.917777 150.880981 
L 165.00282 148.697161 
L 165.08745 148.697161 
L 165.171671 146.513341 
L 165.346138 146.513341 
L 165.43632 144.32952 
L 165.518877 144.32952 
L 165.601045 141.708936 
L 165.682828 141.708936 
L 165.76423 139.088352 
L 165.85228 139.088352 
L 165.932896 136.467767 
L 166.013141 136.467767 
L 166.113796 133.410419 
L 166.279131 133.410419 
L 166.279131 131.663362 
L 166.735904 131.663362 
L 166.812546 129.916306 
L 166.888852 129.916306 
L 166.971417 127.732486 
L 167.128854 127.732486 
L 167.223287 121.617789 
L 167.297821 121.617789 
L 167.359153 118.997205 
L 167.43311 118.997205 
L 167.44594 117.250148 
L 167.580089 117.250148 
L 167.653117 112.008979 
L 172.651857 112.008979 
L 172.706485 110.698687 
L 174.363451 110.698687 
L 174.462367 105.894283 
L 174.564989 105.894283 
L 174.662772 102.40017 
L 174.711458 102.40017 
L 174.821034 98.469293 
L 174.856707 98.469293 
L 174.904856 92.791361 
L 175.496772 92.791361 
L 175.496772 92.354596 
L 178.236359 92.354596 
L 178.236359 91.917832 
L 178.603767 91.917832 
L 178.603767 89.734012 
L 178.726775 89.734012 
L 178.726775 87.113428 
L 178.852256 87.113428 
L 178.932093 81.872259 
L 178.966907 81.872259 
L 179.004957 76.63109 
L 181.980057 76.63109 
L 182.089786 74.010506 
L 185.282031 74.010506 
L 185.282031 72.700213 
L 187.674454 72.700213 
L 187.766688 67.022281 
L 187.789671 67.022281 
L 187.866393 59.597291 
L 188.027699 59.597291 
L 188.027699 59.160527 
L 188.179717 59.160527 
L 188.179717 56.103179 
L 188.400949 56.103179 
L 188.400949 55.666415 
L 189.156652 55.666415 
L 189.156652 54.792887 
L 191.050754 54.792887 
L 191.050754 53.919359 
L 192.139985 53.919359 
L 192.139985 52.609066 
L 193.1681 52.609066 
L 193.1681 51.735538 
L 202.145205 51.735538 
L 202.145205 50.86201 
L 204.496296 50.86201 
L 204.496296 50.425246 
L 205.939067 50.425246 
L 205.939067 49.988482 
L 206.694527 49.988482 
L 206.694527 49.551718 
L 209.169105 49.551718 
L 209.243677 31.644391 
L 215.657252 31.644391 
L 215.657252 31.207627 
L 218.670531 31.207627 
L 218.670531 30.770863 
L 221.196176 30.770863 
L 221.196176 30.334099 
L 338.688 30.334099 
L 338.688 30.334099 
" style="fill:none;stroke:#ff7500;stroke-linecap:square;stroke-width:1.5;"/>
   </g>
   <g id="line2d_40">
    <defs>
     <path d="M 0 -6 
L -1.347084 -1.854102 
L -5.706339 -1.854102 
L -2.179628 0.708204 
L -3.526712 4.854102 
L -0 2.291796 
L 3.526712 4.854102 
L 2.179628 0.708204 
L 5.706339 -1.854102 
L 1.347084 -1.854102 
z
" id="m55c5653caa" style="stroke:#ff7500;stroke-linejoin:bevel;stroke-width:1.5;"/>
    </defs>
    <g>
     <use style="fill-opacity:0;stroke:#ff7500;stroke-linejoin:bevel;stroke-width:1.5;" x="166.812546" xlink:href="#m55c5653caa" y="129.916306"/>
     <use style="fill-opacity:0;stroke:#ff7500;stroke-linejoin:bevel;stroke-width:1.5;" x="221.196176" xlink:href="#m55c5653caa" y="30.770863"/>
     <use style="fill-opacity:0;stroke:#ff7500;stroke-linejoin:bevel;stroke-width:1.5;" x="221.196176" xlink:href="#m55c5653caa" y="30.334099"/>
     <use style="fill-opacity:0;stroke:#ff7500;stroke-linejoin:bevel;stroke-width:1.5;" x="221.196176" xlink:href="#m55c5653caa" y="30.334099"/>
     <use style="fill-opacity:0;stroke:#ff7500;stroke-linejoin:bevel;stroke-width:1.5;" x="338.688" xlink:href="#m55c5653caa" y="30.334099"/>
    </g>
   </g>
   <g id="line2d_41">
    <path style="fill:none;stroke:#ff7500;stroke-linecap:square;stroke-width:1.5;"/>
    <g/>
   </g>
   <g id="line2d_42">
    <path clip-path="url(#p766de181c1)" d="M 204.885763 50.425246 
" style="fill:none;stroke:#ff7500;stroke-linecap:square;stroke-width:1.5;"/>
    <defs>
     <path d="M -12 12 
L 12 -12 
M -12 -12 
L 12 12 
" id="mdb4544088c" style="stroke:#ff7500;"/>
    </defs>
    <g clip-path="url(#p766de181c1)">
     <use style="fill:#ff7500;stroke:#ff7500;" x="204.885763" xlink:href="#mdb4544088c" y="50.425246"/>
    </g>
   </g>
   <g id="line2d_43">
    <path d="M 338.688 30.334099 
L 369.60768 293.571802 
" style="fill:none;stroke:#ff00ff;stroke-linecap:square;stroke-width:1.5;"/>
    <g>
     <use style="fill-opacity:0;stroke:#ff00ff;stroke-linejoin:miter;stroke-width:1.5;" x="338.688" xlink:href="#mc78acacfe0" y="30.334099"/>
     <use style="fill-opacity:0;stroke:#ff00ff;stroke-linejoin:miter;stroke-width:1.5;" x="369.60768" xlink:href="#mc78acacfe0" y="293.571802"/>
    </g>
   </g>
   <g id="line2d_44">
    <path d="M 338.688 30.334099 
L 369.60768 164.63905 
" style="fill:none;stroke:#ff7500;stroke-linecap:square;stroke-width:1.5;"/>
    <g>
     <use style="fill-opacity:0;stroke:#ff7500;stroke-linejoin:bevel;stroke-width:1.5;" x="338.688" xlink:href="#m55c5653caa" y="30.334099"/>
     <use style="fill-opacity:0;stroke:#ff7500;stroke-linejoin:bevel;stroke-width:1.5;" x="369.60768" xlink:href="#m55c5653caa" y="164.63905"/>
    </g>
   </g>
   <g id="line2d_45">
    <path d="M 338.688 30.334099 
L 369.60768 35.706297 
" style="fill:none;stroke:#000080;stroke-linecap:square;stroke-width:1.5;"/>
    <g>
     <use style="fill-opacity:0;stroke:#000080;stroke-width:1.5;" x="338.688" xlink:href="#m5cf39088fd" y="30.334099"/>
     <use style="fill-opacity:0;stroke:#000080;stroke-width:1.5;" x="369.60768" xlink:href="#m5cf39088fd" y="35.706297"/>
    </g>
   </g>
   <g id="line2d_46">
    <path d="M 338.688 298.944 
L 338.688 30.334099 
" style="fill:none;stroke:#000000;stroke-linecap:square;stroke-width:1.5;"/>
   </g>
   <g id="patch_3">
    <path d="M 57.6 298.944 
L 57.6 27.648 
" style="fill:none;stroke:#000000;stroke-linecap:square;stroke-linejoin:miter;stroke-width:0.8;"/>
   </g>
   <g id="patch_4">
    <path d="M 338.688 298.944 
L 338.688 27.648 
" style="fill:none;stroke:#000000;stroke-linecap:square;stroke-linejoin:miter;stroke-width:0.8;"/>
   </g>
   <g id="patch_5">
    <path d="M 57.6 298.944 
L 338.688 298.944 
" style="fill:none;stroke:#000000;stroke-linecap:square;stroke-linejoin:miter;stroke-width:0.8;"/>
   </g>
   <g id="patch_6">
    <path d="M 57.6 27.648 
L 338.688 27.648 
" style="fill:none;stroke:#000000;stroke-linecap:square;stroke-linejoin:miter;stroke-width:0.8;"/>
   </g>
   <g id="text_13">
    <!-- fmincon -->
    <g transform="translate(375.22944 298.262739)scale(0.17 -0.17)">
     <use xlink:href="#DejaVuSans-102"/>
     <use x="35.205078" xlink:href="#DejaVuSans-109"/>
     <use x="132.617188" xlink:href="#DejaVuSans-105"/>
     <use x="160.400391" xlink:href="#DejaVuSans-110"/>
     <use x="223.779297" xlink:href="#DejaVuSans-99"/>
     <use x="278.759766" xlink:href="#DejaVuSans-111"/>
     <use x="339.941406" xlink:href="#DejaVuSans-110"/>
    </g>
   </g>
   <g id="text_14">
    <!-- slsqp -->
    <g transform="translate(375.22944 169.329987)scale(0.17 -0.17)">
     <defs>
      <path d="M 14.796875 27.296875 
Q 14.796875 17.390625 18.875 11.75 
Q 22.953125 6.109375 30.078125 6.109375 
Q 37.203125 6.109375 41.296875 11.75 
Q 45.40625 17.390625 45.40625 27.296875 
Q 45.40625 37.203125 41.296875 42.84375 
Q 37.203125 48.484375 30.078125 48.484375 
Q 22.953125 48.484375 18.875 42.84375 
Q 14.796875 37.203125 14.796875 27.296875 
z
M 45.40625 8.203125 
Q 42.578125 3.328125 38.25 0.953125 
Q 33.9375 -1.421875 27.875 -1.421875 
Q 17.96875 -1.421875 11.734375 6.484375 
Q 5.515625 14.40625 5.515625 27.296875 
Q 5.515625 40.1875 11.734375 48.09375 
Q 17.96875 56 27.875 56 
Q 33.9375 56 38.25 53.625 
Q 42.578125 51.265625 45.40625 46.390625 
L 45.40625 54.6875 
L 54.390625 54.6875 
L 54.390625 -20.796875 
L 45.40625 -20.796875 
z
" id="DejaVuSans-113"/>
     </defs>
     <use xlink:href="#DejaVuSans-115"/>
     <use x="52.099609" xlink:href="#DejaVuSans-108"/>
     <use x="79.882812" xlink:href="#DejaVuSans-115"/>
     <use x="131.982422" xlink:href="#DejaVuSans-113"/>
     <use x="195.458984" xlink:href="#DejaVuSans-112"/>
    </g>
   </g>
   <g id="text_15">
    <!-- cobyla -->
    <g transform="translate(375.22944 40.397235)scale(0.17 -0.17)">
     <defs>
      <path d="M 48.6875 27.296875 
Q 48.6875 37.203125 44.609375 42.84375 
Q 40.53125 48.484375 33.40625 48.484375 
Q 26.265625 48.484375 22.1875 42.84375 
Q 18.109375 37.203125 18.109375 27.296875 
Q 18.109375 17.390625 22.1875 11.75 
Q 26.265625 6.109375 33.40625 6.109375 
Q 40.53125 6.109375 44.609375 11.75 
Q 48.6875 17.390625 48.6875 27.296875 
z
M 18.109375 46.390625 
Q 20.953125 51.265625 25.265625 53.625 
Q 29.59375 56 35.59375 56 
Q 45.5625 56 51.78125 48.09375 
Q 58.015625 40.1875 58.015625 27.296875 
Q 58.015625 14.40625 51.78125 6.484375 
Q 45.5625 -1.421875 35.59375 -1.421875 
Q 29.59375 -1.421875 25.265625 0.953125 
Q 20.953125 3.328125 18.109375 8.203125 
L 18.109375 0 
L 9.078125 0 
L 9.078125 75.984375 
L 18.109375 75.984375 
z
" id="DejaVuSans-98"/>
      <path d="M 32.171875 -5.078125 
Q 28.375 -14.84375 24.75 -17.8125 
Q 21.140625 -20.796875 15.09375 -20.796875 
L 7.90625 -20.796875 
L 7.90625 -13.28125 
L 13.1875 -13.28125 
Q 16.890625 -13.28125 18.9375 -11.515625 
Q 21 -9.765625 23.484375 -3.21875 
L 25.09375 0.875 
L 2.984375 54.6875 
L 12.5 54.6875 
L 29.59375 11.921875 
L 46.6875 54.6875 
L 56.203125 54.6875 
z
" id="DejaVuSans-121"/>
     </defs>
     <use xlink:href="#DejaVuSans-99"/>
     <use x="54.980469" xlink:href="#DejaVuSans-111"/>
     <use x="116.162109" xlink:href="#DejaVuSans-98"/>
     <use x="179.638672" xlink:href="#DejaVuSans-121"/>
     <use x="238.818359" xlink:href="#DejaVuSans-108"/>
     <use x="266.601562" xlink:href="#DejaVuSans-97"/>
    </g>
   </g>
   <g id="text_16">
    <!-- bbob-constrained f54, 10-D -->
    <g transform="translate(60.41088 38.111366)scale(0.102 -0.102)">
     <defs>
      <path d="M 10.796875 72.90625 
L 49.515625 72.90625 
L 49.515625 64.59375 
L 19.828125 64.59375 
L 19.828125 46.734375 
Q 21.96875 47.46875 24.109375 47.828125 
Q 26.265625 48.1875 28.421875 48.1875 
Q 40.625 48.1875 47.75 41.5 
Q 54.890625 34.8125 54.890625 23.390625 
Q 54.890625 11.625 47.5625 5.09375 
Q 40.234375 -1.421875 26.90625 -1.421875 
Q 22.3125 -1.421875 17.546875 -0.640625 
Q 12.796875 0.140625 7.71875 1.703125 
L 7.71875 11.625 
Q 12.109375 9.234375 16.796875 8.0625 
Q 21.484375 6.890625 26.703125 6.890625 
Q 35.15625 6.890625 40.078125 11.328125 
Q 45.015625 15.765625 45.015625 23.390625 
Q 45.015625 31 40.078125 35.4375 
Q 35.15625 39.890625 26.703125 39.890625 
Q 22.75 39.890625 18.8125 39.015625 
Q 14.890625 38.140625 10.796875 36.28125 
z
" id="DejaVuSans-53"/>
      <path d="M 19.671875 64.796875 
L 19.671875 8.109375 
L 31.59375 8.109375 
Q 46.6875 8.109375 53.6875 14.9375 
Q 60.6875 21.78125 60.6875 36.53125 
Q 60.6875 51.171875 53.6875 57.984375 
Q 46.6875 64.796875 31.59375 64.796875 
z
M 9.8125 72.90625 
L 30.078125 72.90625 
Q 51.265625 72.90625 61.171875 64.09375 
Q 71.09375 55.28125 71.09375 36.53125 
Q 71.09375 17.671875 61.125 8.828125 
Q 51.171875 0 30.078125 0 
L 9.8125 0 
z
" id="DejaVuSans-68"/>
     </defs>
     <use xlink:href="#DejaVuSans-98"/>
     <use x="63.476562" xlink:href="#DejaVuSans-98"/>
     <use x="126.953125" xlink:href="#DejaVuSans-111"/>
     <use x="188.134766" xlink:href="#DejaVuSans-98"/>
     <use x="251.611328" xlink:href="#DejaVuSans-45"/>
     <use x="287.695312" xlink:href="#DejaVuSans-99"/>
     <use x="342.675781" xlink:href="#DejaVuSans-111"/>
     <use x="403.857422" xlink:href="#DejaVuSans-110"/>
     <use x="467.236328" xlink:href="#DejaVuSans-115"/>
     <use x="519.335938" xlink:href="#DejaVuSans-116"/>
     <use x="558.544922" xlink:href="#DejaVuSans-114"/>
     <use x="599.658203" xlink:href="#DejaVuSans-97"/>
     <use x="660.9375" xlink:href="#DejaVuSans-105"/>
     <use x="688.720703" xlink:href="#DejaVuSans-110"/>
     <use x="752.099609" xlink:href="#DejaVuSans-101"/>
     <use x="813.623047" xlink:href="#DejaVuSans-100"/>
     <use x="877.099609" xlink:href="#DejaVuSans-32"/>
     <use x="908.886719" xlink:href="#DejaVuSans-102"/>
     <use x="944.091797" xlink:href="#DejaVuSans-53"/>
     <use x="1007.714844" xlink:href="#DejaVuSans-52"/>
     <use x="1071.337891" xlink:href="#DejaVuSans-44"/>
     <use x="1103.125" xlink:href="#DejaVuSans-32"/>
     <use x="1134.912109" xlink:href="#DejaVuSans-49"/>
     <use x="1198.535156" xlink:href="#DejaVuSans-48"/>
     <use x="1262.158203" xlink:href="#DejaVuSans-45"/>
     <use x="1298.242188" xlink:href="#DejaVuSans-68"/>
    </g>
    <!-- 41 targets: 100..1e-06 -->
    <g transform="translate(60.41088 49.533135)scale(0.102 -0.102)">
     <defs>
      <path d="M 11.71875 12.40625 
L 22.015625 12.40625 
L 22.015625 0 
L 11.71875 0 
z
M 11.71875 51.703125 
L 22.015625 51.703125 
L 22.015625 39.3125 
L 11.71875 39.3125 
z
" id="DejaVuSans-58"/>
     </defs>
     <use xlink:href="#DejaVuSans-52"/>
     <use x="63.623047" xlink:href="#DejaVuSans-49"/>
     <use x="127.246094" xlink:href="#DejaVuSans-32"/>
     <use x="159.033203" xlink:href="#DejaVuSans-116"/>
     <use x="198.242188" xlink:href="#DejaVuSans-97"/>
     <use x="259.521484" xlink:href="#DejaVuSans-114"/>
     <use x="298.884766" xlink:href="#DejaVuSans-103"/>
     <use x="362.361328" xlink:href="#DejaVuSans-101"/>
     <use x="423.884766" xlink:href="#DejaVuSans-116"/>
     <use x="463.09375" xlink:href="#DejaVuSans-115"/>
     <use x="515.193359" xlink:href="#DejaVuSans-58"/>
     <use x="548.884766" xlink:href="#DejaVuSans-32"/>
     <use x="580.671875" xlink:href="#DejaVuSans-49"/>
     <use x="644.294922" xlink:href="#DejaVuSans-48"/>
     <use x="707.917969" xlink:href="#DejaVuSans-48"/>
     <use x="771.541016" xlink:href="#DejaVuSans-46"/>
     <use x="803.328125" xlink:href="#DejaVuSans-46"/>
     <use x="835.115234" xlink:href="#DejaVuSans-49"/>
     <use x="898.738281" xlink:href="#DejaVuSans-101"/>
     <use x="960.261719" xlink:href="#DejaVuSans-45"/>
     <use x="996.345703" xlink:href="#DejaVuSans-48"/>
     <use x="1059.96875" xlink:href="#DejaVuSans-54"/>
    </g>
    <!-- 15 instances -->
    <g transform="translate(60.41088 60.954904)scale(0.102 -0.102)">
     <use xlink:href="#DejaVuSans-49"/>
     <use x="63.623047" xlink:href="#DejaVuSans-53"/>
     <use x="127.246094" xlink:href="#DejaVuSans-32"/>
     <use x="159.033203" xlink:href="#DejaVuSans-105"/>
     <use x="186.816406" xlink:href="#DejaVuSans-110"/>
     <use x="250.195312" xlink:href="#DejaVuSans-115"/>
     <use x="302.294922" xlink:href="#DejaVuSans-116"/>
     <use x="341.503906" xlink:href="#DejaVuSans-97"/>
     <use x="402.783203" xlink:href="#DejaVuSans-110"/>
     <use x="466.162109" xlink:href="#DejaVuSans-99"/>
     <use x="521.142578" xlink:href="#DejaVuSans-101"/>
     <use x="582.666016" xlink:href="#DejaVuSans-115"/>
    </g>
   </g>
   <g id="text_17">
    <!-- v2.4.82 -->
    <g style="fill:#808080;" transform="translate(179.2815 294.151352)scale(0.1 -0.1)">
     <use xlink:href="#DejaVuSans-118"/>
     <use x="59.179688" xlink:href="#DejaVuSans-50"/>
     <use x="122.802734" xlink:href="#DejaVuSans-46"/>
     <use x="154.589844" xlink:href="#DejaVuSans-52"/>
     <use x="218.212891" xlink:href="#DejaVuSans-46"/>
     <use x="250" xlink:href="#DejaVuSans-56"/>
     <use x="313.623047" xlink:href="#DejaVuSans-50"/>
    </g>
   </g>
   <g id="text_18">
    <!-- 54 Rotated Rastrigin, m=9+int(9n/2) -->
    <g transform="translate(13.151812 21.648)scale(0.2 -0.2)">
     <defs>
      <path d="M 44.390625 34.1875 
Q 47.5625 33.109375 50.5625 29.59375 
Q 53.5625 26.078125 56.59375 19.921875 
L 66.609375 0 
L 56 0 
L 46.6875 18.703125 
Q 43.0625 26.03125 39.671875 28.421875 
Q 36.28125 30.8125 30.421875 30.8125 
L 19.671875 30.8125 
L 19.671875 0 
L 9.8125 0 
L 9.8125 72.90625 
L 32.078125 72.90625 
Q 44.578125 72.90625 50.734375 67.671875 
Q 56.890625 62.453125 56.890625 51.90625 
Q 56.890625 45.015625 53.6875 40.46875 
Q 50.484375 35.9375 44.390625 34.1875 
z
M 19.671875 64.796875 
L 19.671875 38.921875 
L 32.078125 38.921875 
Q 39.203125 38.921875 42.84375 42.21875 
Q 46.484375 45.515625 46.484375 51.90625 
Q 46.484375 58.296875 42.84375 61.546875 
Q 39.203125 64.796875 32.078125 64.796875 
z
" id="DejaVuSans-82"/>
      <path d="M 10.59375 45.40625 
L 73.1875 45.40625 
L 73.1875 37.203125 
L 10.59375 37.203125 
z
M 10.59375 25.484375 
L 73.1875 25.484375 
L 73.1875 17.1875 
L 10.59375 17.1875 
z
" id="DejaVuSans-61"/>
      <path d="M 10.984375 1.515625 
L 10.984375 10.5 
Q 14.703125 8.734375 18.5 7.8125 
Q 22.3125 6.890625 25.984375 6.890625 
Q 35.75 6.890625 40.890625 13.453125 
Q 46.046875 20.015625 46.78125 33.40625 
Q 43.953125 29.203125 39.59375 26.953125 
Q 35.25 24.703125 29.984375 24.703125 
Q 19.046875 24.703125 12.671875 31.3125 
Q 6.296875 37.9375 6.296875 49.421875 
Q 6.296875 60.640625 12.9375 67.421875 
Q 19.578125 74.21875 30.609375 74.21875 
Q 43.265625 74.21875 49.921875 64.515625 
Q 56.59375 54.828125 56.59375 36.375 
Q 56.59375 19.140625 48.40625 8.859375 
Q 40.234375 -1.421875 26.421875 -1.421875 
Q 22.703125 -1.421875 18.890625 -0.6875 
Q 15.09375 0.046875 10.984375 1.515625 
z
M 30.609375 32.421875 
Q 37.25 32.421875 41.125 36.953125 
Q 45.015625 41.5 45.015625 49.421875 
Q 45.015625 57.28125 41.125 61.84375 
Q 37.25 66.40625 30.609375 66.40625 
Q 23.96875 66.40625 20.09375 61.84375 
Q 16.21875 57.28125 16.21875 49.421875 
Q 16.21875 41.5 20.09375 36.953125 
Q 23.96875 32.421875 30.609375 32.421875 
z
" id="DejaVuSans-57"/>
     </defs>
     <use xlink:href="#DejaVuSans-53"/>
     <use x="63.623047" xlink:href="#DejaVuSans-52"/>
     <use x="127.246094" xlink:href="#DejaVuSans-32"/>
     <use x="159.033203" xlink:href="#DejaVuSans-82"/>
     <use x="224.015625" xlink:href="#DejaVuSans-111"/>
     <use x="285.197266" xlink:href="#DejaVuSans-116"/>
     <use x="324.40625" xlink:href="#DejaVuSans-97"/>
     <use x="385.685547" xlink:href="#DejaVuSans-116"/>
     <use x="424.894531" xlink:href="#DejaVuSans-101"/>
     <use x="486.417969" xlink:href="#DejaVuSans-100"/>
     <use x="549.894531" xlink:href="#DejaVuSans-32"/>
     <use x="581.681641" xlink:href="#DejaVuSans-82"/>
     <use x="648.914062" xlink:href="#DejaVuSans-97"/>
     <use x="710.193359" xlink:href="#DejaVuSans-115"/>
     <use x="762.292969" xlink:href="#DejaVuSans-116"/>
     <use x="801.501953" xlink:href="#DejaVuSans-114"/>
     <use x="842.615234" xlink:href="#DejaVuSans-105"/>
     <use x="870.398438" xlink:href="#DejaVuSans-103"/>
     <use x="933.875" xlink:href="#DejaVuSans-105"/>
     <use x="961.658203" xlink:href="#DejaVuSans-110"/>
     <use x="1025.037109" xlink:href="#DejaVuSans-44"/>
     <use x="1056.824219" xlink:href="#DejaVuSans-32"/>
     <use x="1088.611328" xlink:href="#DejaVuSans-109"/>
     <use x="1186.023438" xlink:href="#DejaVuSans-61"/>
     <use x="1269.8125" xlink:href="#DejaVuSans-57"/>
     <use x="1333.435547" xlink:href="#DejaVuSans-43"/>
     <use x="1417.224609" xlink:href="#DejaVuSans-105"/>
     <use x="1445.007812" xlink:href="#DejaVuSans-110"/>
     <use x="1508.386719" xlink:href="#DejaVuSans-116"/>
     <use x="1547.595703" xlink:href="#DejaVuSans-40"/>
     <use x="1586.609375" xlink:href="#DejaVuSans-57"/>
     <use x="1650.232422" xlink:href="#DejaVuSans-110"/>
     <use x="1713.611328" xlink:href="#DejaVuSans-47"/>
     <use x="1747.302734" xlink:href="#DejaVuSans-50"/>
     <use x="1810.925781" xlink:href="#DejaVuSans-41"/>
    </g>
   </g>
  </g>
 </g>
 <defs>
  <clipPath id="p766de181c1">
   <rect height="271.296" width="281.088" x="57.6" y="27.648"/>
  </clipPath>
 </defs>
</svg>
