<?xml version="1.0" encoding="utf-8" standalone="no"?>
<!DOCTYPE svg PUBLIC "-//W3C//DTD SVG 1.1//EN"
  "http://www.w3.org/Graphics/SVG/1.1/DTD/svg11.dtd">
<!-- Created with matplotlib (https://matplotlib.org/) -->
<svg height="345.6pt" version="1.1" viewBox="0 0 460.8 345.6" width="460.8pt" xmlns="http://www.w3.org/2000/svg" xmlns:xlink="http://www.w3.org/1999/xlink">
 <metadata>
  <rdf:RDF xmlns:cc="http://creativecommons.org/ns#" xmlns:dc="http://purl.org/dc/elements/1.1/" xmlns:rdf="http://www.w3.org/1999/02/22-rdf-syntax-ns#">
   <cc:Work>
    <dc:type rdf:resource="http://purl.org/dc/dcmitype/StillImage"/>
    <dc:date>2022-01-12T20:22:20.794165</dc:date>
    <dc:format>image/svg+xml</dc:format>
    <dc:creator>
     <cc:Agent>
      <dc:title>Matplotlib v3.3.3, https://matplotlib.org/</dc:title>
     </cc:Agent>
    </dc:creator>
   </cc:Work>
  </rdf:RDF>
 </metadata>
 <defs>
  <style type="text/css">*{stroke-linecap:butt;stroke-linejoin:round;}</style>
 </defs>
 <g id="figure_1">
  <g id="patch_1">
   <path d="M 0 345.6 
L 460.8 345.6 
L 460.8 0 
L 0 0 
z
" style="fill:#ffffff;"/>
  </g>
  <g id="axes_1">
   <g id="patch_2">
    <path d="M 57.6 298.944 
L 338.688 298.944 
L 338.688 27.648 
L 57.6 27.648 
z
" style="fill:#ffffff;"/>
   </g>
   <g id="matplotlib.axis_1">
    <g id="xtick_1">
     <g id="line2d_1">
      <path clip-path="url(#p236528f242)" d="M 57.6 298.944 
L 57.6 27.648 
" style="fill:none;stroke:#b0b0b0;stroke-linecap:square;stroke-width:0.8;"/>
     </g>
     <g id="line2d_2">
      <defs>
       <path d="M 0 0 
L 0 3.5 
" id="m287e211214" style="stroke:#000000;stroke-width:0.8;"/>
      </defs>
      <g>
       <use style="stroke:#000000;stroke-width:0.8;" x="57.6" xlink:href="#m287e211214" y="298.944"/>
      </g>
     </g>
     <g id="text_1">
      <!-- 0 -->
      <g transform="translate(51.2375 321.140875)scale(0.2 -0.2)">
       <defs>
        <path d="M 31.78125 66.40625 
Q 24.171875 66.40625 20.328125 58.90625 
Q 16.5 51.421875 16.5 36.375 
Q 16.5 21.390625 20.328125 13.890625 
Q 24.171875 6.390625 31.78125 6.390625 
Q 39.453125 6.390625 43.28125 13.890625 
Q 47.125 21.390625 47.125 36.375 
Q 47.125 51.421875 43.28125 58.90625 
Q 39.453125 66.40625 31.78125 66.40625 
z
M 31.78125 74.21875 
Q 44.046875 74.21875 50.515625 64.515625 
Q 56.984375 54.828125 56.984375 36.375 
Q 56.984375 17.96875 50.515625 8.265625 
Q 44.046875 -1.421875 31.78125 -1.421875 
Q 19.53125 -1.421875 13.0625 8.265625 
Q 6.59375 17.96875 6.59375 36.375 
Q 6.59375 54.828125 13.0625 64.515625 
Q 19.53125 74.21875 31.78125 74.21875 
z
" id="DejaVuSans-48"/>
       </defs>
       <use xlink:href="#DejaVuSans-48"/>
      </g>
     </g>
    </g>
    <g id="xtick_2">
     <g id="line2d_3">
      <path clip-path="url(#p236528f242)" d="M 137.910857 298.944 
L 137.910857 27.648 
" style="fill:none;stroke:#b0b0b0;stroke-linecap:square;stroke-width:0.8;"/>
     </g>
     <g id="line2d_4">
      <g>
       <use style="stroke:#000000;stroke-width:0.8;" x="137.910857" xlink:href="#m287e211214" y="298.944"/>
      </g>
     </g>
     <g id="text_2">
      <!-- 2 -->
      <g transform="translate(131.548357 321.140875)scale(0.2 -0.2)">
       <defs>
        <path d="M 19.1875 8.296875 
L 53.609375 8.296875 
L 53.609375 0 
L 7.328125 0 
L 7.328125 8.296875 
Q 12.9375 14.109375 22.625 23.890625 
Q 32.328125 33.6875 34.8125 36.53125 
Q 39.546875 41.84375 41.421875 45.53125 
Q 43.3125 49.21875 43.3125 52.78125 
Q 43.3125 58.59375 39.234375 62.25 
Q 35.15625 65.921875 28.609375 65.921875 
Q 23.96875 65.921875 18.8125 64.3125 
Q 13.671875 62.703125 7.8125 59.421875 
L 7.8125 69.390625 
Q 13.765625 71.78125 18.9375 73 
Q 24.125 74.21875 28.421875 74.21875 
Q 39.75 74.21875 46.484375 68.546875 
Q 53.21875 62.890625 53.21875 53.421875 
Q 53.21875 48.921875 51.53125 44.890625 
Q 49.859375 40.875 45.40625 35.40625 
Q 44.1875 33.984375 37.640625 27.21875 
Q 31.109375 20.453125 19.1875 8.296875 
z
" id="DejaVuSans-50"/>
       </defs>
       <use xlink:href="#DejaVuSans-50"/>
      </g>
     </g>
    </g>
    <g id="xtick_3">
     <g id="line2d_5">
      <path clip-path="url(#p236528f242)" d="M 218.221714 298.944 
L 218.221714 27.648 
" style="fill:none;stroke:#b0b0b0;stroke-linecap:square;stroke-width:0.8;"/>
     </g>
     <g id="line2d_6">
      <g>
       <use style="stroke:#000000;stroke-width:0.8;" x="218.221714" xlink:href="#m287e211214" y="298.944"/>
      </g>
     </g>
     <g id="text_3">
      <!-- 4 -->
      <g transform="translate(211.859214 321.140875)scale(0.2 -0.2)">
       <defs>
        <path d="M 37.796875 64.3125 
L 12.890625 25.390625 
L 37.796875 25.390625 
z
M 35.203125 72.90625 
L 47.609375 72.90625 
L 47.609375 25.390625 
L 58.015625 25.390625 
L 58.015625 17.1875 
L 47.609375 17.1875 
L 47.609375 0 
L 37.796875 0 
L 37.796875 17.1875 
L 4.890625 17.1875 
L 4.890625 26.703125 
z
" id="DejaVuSans-52"/>
       </defs>
       <use xlink:href="#DejaVuSans-52"/>
      </g>
     </g>
    </g>
    <g id="xtick_4">
     <g id="line2d_7">
      <path clip-path="url(#p236528f242)" d="M 298.532571 298.944 
L 298.532571 27.648 
" style="fill:none;stroke:#b0b0b0;stroke-linecap:square;stroke-width:0.8;"/>
     </g>
     <g id="line2d_8">
      <g>
       <use style="stroke:#000000;stroke-width:0.8;" x="298.532571" xlink:href="#m287e211214" y="298.944"/>
      </g>
     </g>
     <g id="text_4">
      <!-- 6 -->
      <g transform="translate(292.170071 321.140875)scale(0.2 -0.2)">
       <defs>
        <path d="M 33.015625 40.375 
Q 26.375 40.375 22.484375 35.828125 
Q 18.609375 31.296875 18.609375 23.390625 
Q 18.609375 15.53125 22.484375 10.953125 
Q 26.375 6.390625 33.015625 6.390625 
Q 39.65625 6.390625 43.53125 10.953125 
Q 47.40625 15.53125 47.40625 23.390625 
Q 47.40625 31.296875 43.53125 35.828125 
Q 39.65625 40.375 33.015625 40.375 
z
M 52.59375 71.296875 
L 52.59375 62.3125 
Q 48.875 64.0625 45.09375 64.984375 
Q 41.3125 65.921875 37.59375 65.921875 
Q 27.828125 65.921875 22.671875 59.328125 
Q 17.53125 52.734375 16.796875 39.40625 
Q 19.671875 43.65625 24.015625 45.921875 
Q 28.375 48.1875 33.59375 48.1875 
Q 44.578125 48.1875 50.953125 41.515625 
Q 57.328125 34.859375 57.328125 23.390625 
Q 57.328125 12.15625 50.6875 5.359375 
Q 44.046875 -1.421875 33.015625 -1.421875 
Q 20.359375 -1.421875 13.671875 8.265625 
Q 6.984375 17.96875 6.984375 36.375 
Q 6.984375 53.65625 15.1875 63.9375 
Q 23.390625 74.21875 37.203125 74.21875 
Q 40.921875 74.21875 44.703125 73.484375 
Q 48.484375 72.75 52.59375 71.296875 
z
" id="DejaVuSans-54"/>
       </defs>
       <use xlink:href="#DejaVuSans-54"/>
      </g>
     </g>
    </g>
    <g id="xtick_5">
     <g id="line2d_9">
      <path clip-path="url(#p236528f242)" d="M 97.755429 298.944 
L 97.755429 27.648 
" style="fill:none;stroke:#b0b0b0;stroke-linecap:square;stroke-width:0.8;"/>
     </g>
     <g id="line2d_10">
      <defs>
       <path d="M 0 0 
L 0 2 
" id="m21174b451e" style="stroke:#000000;stroke-width:0.6;"/>
      </defs>
      <g>
       <use style="stroke:#000000;stroke-width:0.6;" x="97.755429" xlink:href="#m21174b451e" y="298.944"/>
      </g>
     </g>
    </g>
    <g id="xtick_6">
     <g id="line2d_11">
      <path clip-path="url(#p236528f242)" d="M 178.066286 298.944 
L 178.066286 27.648 
" style="fill:none;stroke:#b0b0b0;stroke-linecap:square;stroke-width:0.8;"/>
     </g>
     <g id="line2d_12">
      <g>
       <use style="stroke:#000000;stroke-width:0.6;" x="178.066286" xlink:href="#m21174b451e" y="298.944"/>
      </g>
     </g>
    </g>
    <g id="xtick_7">
     <g id="line2d_13">
      <path clip-path="url(#p236528f242)" d="M 258.377143 298.944 
L 258.377143 27.648 
" style="fill:none;stroke:#b0b0b0;stroke-linecap:square;stroke-width:0.8;"/>
     </g>
     <g id="line2d_14">
      <g>
       <use style="stroke:#000000;stroke-width:0.6;" x="258.377143" xlink:href="#m21174b451e" y="298.944"/>
      </g>
     </g>
    </g>
    <g id="xtick_8">
     <g id="line2d_15">
      <path clip-path="url(#p236528f242)" d="M 338.688 298.944 
L 338.688 27.648 
" style="fill:none;stroke:#b0b0b0;stroke-linecap:square;stroke-width:0.8;"/>
     </g>
     <g id="line2d_16">
      <g>
       <use style="stroke:#000000;stroke-width:0.6;" x="338.688" xlink:href="#m21174b451e" y="298.944"/>
      </g>
     </g>
    </g>
    <g id="text_5">
     <!-- log10(# (f+g)-evals / dimension) -->
     <g transform="translate(58.145016 342.217594)scale(0.17 -0.17)">
      <defs>
       <path d="M 9.421875 75.984375 
L 18.40625 75.984375 
L 18.40625 0 
L 9.421875 0 
z
" id="DejaVuSans-108"/>
       <path d="M 30.609375 48.390625 
Q 23.390625 48.390625 19.1875 42.75 
Q 14.984375 37.109375 14.984375 27.296875 
Q 14.984375 17.484375 19.15625 11.84375 
Q 23.34375 6.203125 30.609375 6.203125 
Q 37.796875 6.203125 41.984375 11.859375 
Q 46.1875 17.53125 46.1875 27.296875 
Q 46.1875 37.015625 41.984375 42.703125 
Q 37.796875 48.390625 30.609375 48.390625 
z
M 30.609375 56 
Q 42.328125 56 49.015625 48.375 
Q 55.71875 40.765625 55.71875 27.296875 
Q 55.71875 13.875 49.015625 6.21875 
Q 42.328125 -1.421875 30.609375 -1.421875 
Q 18.84375 -1.421875 12.171875 6.21875 
Q 5.515625 13.875 5.515625 27.296875 
Q 5.515625 40.765625 12.171875 48.375 
Q 18.84375 56 30.609375 56 
z
" id="DejaVuSans-111"/>
       <path d="M 45.40625 27.984375 
Q 45.40625 37.75 41.375 43.109375 
Q 37.359375 48.484375 30.078125 48.484375 
Q 22.859375 48.484375 18.828125 43.109375 
Q 14.796875 37.75 14.796875 27.984375 
Q 14.796875 18.265625 18.828125 12.890625 
Q 22.859375 7.515625 30.078125 7.515625 
Q 37.359375 7.515625 41.375 12.890625 
Q 45.40625 18.265625 45.40625 27.984375 
z
M 54.390625 6.78125 
Q 54.390625 -7.171875 48.1875 -13.984375 
Q 42 -20.796875 29.203125 -20.796875 
Q 24.46875 -20.796875 20.265625 -20.09375 
Q 16.0625 -19.390625 12.109375 -17.921875 
L 12.109375 -9.1875 
Q 16.0625 -11.328125 19.921875 -12.34375 
Q 23.78125 -13.375 27.78125 -13.375 
Q 36.625 -13.375 41.015625 -8.765625 
Q 45.40625 -4.15625 45.40625 5.171875 
L 45.40625 9.625 
Q 42.625 4.78125 38.28125 2.390625 
Q 33.9375 0 27.875 0 
Q 17.828125 0 11.671875 7.65625 
Q 5.515625 15.328125 5.515625 27.984375 
Q 5.515625 40.671875 11.671875 48.328125 
Q 17.828125 56 27.875 56 
Q 33.9375 56 38.28125 53.609375 
Q 42.625 51.21875 45.40625 46.390625 
L 45.40625 54.6875 
L 54.390625 54.6875 
z
" id="DejaVuSans-103"/>
       <path d="M 12.40625 8.296875 
L 28.515625 8.296875 
L 28.515625 63.921875 
L 10.984375 60.40625 
L 10.984375 69.390625 
L 28.421875 72.90625 
L 38.28125 72.90625 
L 38.28125 8.296875 
L 54.390625 8.296875 
L 54.390625 0 
L 12.40625 0 
z
" id="DejaVuSans-49"/>
       <path d="M 31 75.875 
Q 24.46875 64.65625 21.28125 53.65625 
Q 18.109375 42.671875 18.109375 31.390625 
Q 18.109375 20.125 21.3125 9.0625 
Q 24.515625 -2 31 -13.1875 
L 23.1875 -13.1875 
Q 15.875 -1.703125 12.234375 9.375 
Q 8.59375 20.453125 8.59375 31.390625 
Q 8.59375 42.28125 12.203125 53.3125 
Q 15.828125 64.359375 23.1875 75.875 
z
" id="DejaVuSans-40"/>
       <path d="M 51.125 44 
L 36.921875 44 
L 32.8125 27.6875 
L 47.125 27.6875 
z
M 43.796875 71.78125 
L 38.71875 51.515625 
L 52.984375 51.515625 
L 58.109375 71.78125 
L 65.921875 71.78125 
L 60.890625 51.515625 
L 76.125 51.515625 
L 76.125 44 
L 58.984375 44 
L 54.984375 27.6875 
L 70.515625 27.6875 
L 70.515625 20.21875 
L 53.078125 20.21875 
L 48 0 
L 40.1875 0 
L 45.21875 20.21875 
L 30.90625 20.21875 
L 25.875 0 
L 18.015625 0 
L 23.09375 20.21875 
L 7.71875 20.21875 
L 7.71875 27.6875 
L 24.90625 27.6875 
L 29 44 
L 13.28125 44 
L 13.28125 51.515625 
L 30.90625 51.515625 
L 35.890625 71.78125 
z
" id="DejaVuSans-35"/>
       <path id="DejaVuSans-32"/>
       <path d="M 37.109375 75.984375 
L 37.109375 68.5 
L 28.515625 68.5 
Q 23.6875 68.5 21.796875 66.546875 
Q 19.921875 64.59375 19.921875 59.515625 
L 19.921875 54.6875 
L 34.71875 54.6875 
L 34.71875 47.703125 
L 19.921875 47.703125 
L 19.921875 0 
L 10.890625 0 
L 10.890625 47.703125 
L 2.296875 47.703125 
L 2.296875 54.6875 
L 10.890625 54.6875 
L 10.890625 58.5 
Q 10.890625 67.625 15.140625 71.796875 
Q 19.390625 75.984375 28.609375 75.984375 
z
" id="DejaVuSans-102"/>
       <path d="M 46 62.703125 
L 46 35.5 
L 73.1875 35.5 
L 73.1875 27.203125 
L 46 27.203125 
L 46 0 
L 37.796875 0 
L 37.796875 27.203125 
L 10.59375 27.203125 
L 10.59375 35.5 
L 37.796875 35.5 
L 37.796875 62.703125 
z
" id="DejaVuSans-43"/>
       <path d="M 8.015625 75.875 
L 15.828125 75.875 
Q 23.140625 64.359375 26.78125 53.3125 
Q 30.421875 42.28125 30.421875 31.390625 
Q 30.421875 20.453125 26.78125 9.375 
Q 23.140625 -1.703125 15.828125 -13.1875 
L 8.015625 -13.1875 
Q 14.5 -2 17.703125 9.0625 
Q 20.90625 20.125 20.90625 31.390625 
Q 20.90625 42.671875 17.703125 53.65625 
Q 14.5 64.65625 8.015625 75.875 
z
" id="DejaVuSans-41"/>
       <path d="M 4.890625 31.390625 
L 31.203125 31.390625 
L 31.203125 23.390625 
L 4.890625 23.390625 
z
" id="DejaVuSans-45"/>
       <path d="M 56.203125 29.59375 
L 56.203125 25.203125 
L 14.890625 25.203125 
Q 15.484375 15.921875 20.484375 11.0625 
Q 25.484375 6.203125 34.421875 6.203125 
Q 39.59375 6.203125 44.453125 7.46875 
Q 49.3125 8.734375 54.109375 11.28125 
L 54.109375 2.78125 
Q 49.265625 0.734375 44.1875 -0.34375 
Q 39.109375 -1.421875 33.890625 -1.421875 
Q 20.796875 -1.421875 13.15625 6.1875 
Q 5.515625 13.8125 5.515625 26.8125 
Q 5.515625 40.234375 12.765625 48.109375 
Q 20.015625 56 32.328125 56 
Q 43.359375 56 49.78125 48.890625 
Q 56.203125 41.796875 56.203125 29.59375 
z
M 47.21875 32.234375 
Q 47.125 39.59375 43.09375 43.984375 
Q 39.0625 48.390625 32.421875 48.390625 
Q 24.90625 48.390625 20.390625 44.140625 
Q 15.875 39.890625 15.1875 32.171875 
z
" id="DejaVuSans-101"/>
       <path d="M 2.984375 54.6875 
L 12.5 54.6875 
L 29.59375 8.796875 
L 46.6875 54.6875 
L 56.203125 54.6875 
L 35.6875 0 
L 23.484375 0 
z
" id="DejaVuSans-118"/>
       <path d="M 34.28125 27.484375 
Q 23.390625 27.484375 19.1875 25 
Q 14.984375 22.515625 14.984375 16.5 
Q 14.984375 11.71875 18.140625 8.90625 
Q 21.296875 6.109375 26.703125 6.109375 
Q 34.1875 6.109375 38.703125 11.40625 
Q 43.21875 16.703125 43.21875 25.484375 
L 43.21875 27.484375 
z
M 52.203125 31.203125 
L 52.203125 0 
L 43.21875 0 
L 43.21875 8.296875 
Q 40.140625 3.328125 35.546875 0.953125 
Q 30.953125 -1.421875 24.3125 -1.421875 
Q 15.921875 -1.421875 10.953125 3.296875 
Q 6 8.015625 6 15.921875 
Q 6 25.140625 12.171875 29.828125 
Q 18.359375 34.515625 30.609375 34.515625 
L 43.21875 34.515625 
L 43.21875 35.40625 
Q 43.21875 41.609375 39.140625 45 
Q 35.0625 48.390625 27.6875 48.390625 
Q 23 48.390625 18.546875 47.265625 
Q 14.109375 46.140625 10.015625 43.890625 
L 10.015625 52.203125 
Q 14.9375 54.109375 19.578125 55.046875 
Q 24.21875 56 28.609375 56 
Q 40.484375 56 46.34375 49.84375 
Q 52.203125 43.703125 52.203125 31.203125 
z
" id="DejaVuSans-97"/>
       <path d="M 44.28125 53.078125 
L 44.28125 44.578125 
Q 40.484375 46.53125 36.375 47.5 
Q 32.28125 48.484375 27.875 48.484375 
Q 21.1875 48.484375 17.84375 46.4375 
Q 14.5 44.390625 14.5 40.28125 
Q 14.5 37.15625 16.890625 35.375 
Q 19.28125 33.59375 26.515625 31.984375 
L 29.59375 31.296875 
Q 39.15625 29.25 43.1875 25.515625 
Q 47.21875 21.78125 47.21875 15.09375 
Q 47.21875 7.46875 41.1875 3.015625 
Q 35.15625 -1.421875 24.609375 -1.421875 
Q 20.21875 -1.421875 15.453125 -0.5625 
Q 10.6875 0.296875 5.421875 2 
L 5.421875 11.28125 
Q 10.40625 8.6875 15.234375 7.390625 
Q 20.0625 6.109375 24.8125 6.109375 
Q 31.15625 6.109375 34.5625 8.28125 
Q 37.984375 10.453125 37.984375 14.40625 
Q 37.984375 18.0625 35.515625 20.015625 
Q 33.0625 21.96875 24.703125 23.78125 
L 21.578125 24.515625 
Q 13.234375 26.265625 9.515625 29.90625 
Q 5.8125 33.546875 5.8125 39.890625 
Q 5.8125 47.609375 11.28125 51.796875 
Q 16.75 56 26.8125 56 
Q 31.78125 56 36.171875 55.265625 
Q 40.578125 54.546875 44.28125 53.078125 
z
" id="DejaVuSans-115"/>
       <path d="M 25.390625 72.90625 
L 33.6875 72.90625 
L 8.296875 -9.28125 
L 0 -9.28125 
z
" id="DejaVuSans-47"/>
       <path d="M 45.40625 46.390625 
L 45.40625 75.984375 
L 54.390625 75.984375 
L 54.390625 0 
L 45.40625 0 
L 45.40625 8.203125 
Q 42.578125 3.328125 38.25 0.953125 
Q 33.9375 -1.421875 27.875 -1.421875 
Q 17.96875 -1.421875 11.734375 6.484375 
Q 5.515625 14.40625 5.515625 27.296875 
Q 5.515625 40.1875 11.734375 48.09375 
Q 17.96875 56 27.875 56 
Q 33.9375 56 38.25 53.625 
Q 42.578125 51.265625 45.40625 46.390625 
z
M 14.796875 27.296875 
Q 14.796875 17.390625 18.875 11.75 
Q 22.953125 6.109375 30.078125 6.109375 
Q 37.203125 6.109375 41.296875 11.75 
Q 45.40625 17.390625 45.40625 27.296875 
Q 45.40625 37.203125 41.296875 42.84375 
Q 37.203125 48.484375 30.078125 48.484375 
Q 22.953125 48.484375 18.875 42.84375 
Q 14.796875 37.203125 14.796875 27.296875 
z
" id="DejaVuSans-100"/>
       <path d="M 9.421875 54.6875 
L 18.40625 54.6875 
L 18.40625 0 
L 9.421875 0 
z
M 9.421875 75.984375 
L 18.40625 75.984375 
L 18.40625 64.59375 
L 9.421875 64.59375 
z
" id="DejaVuSans-105"/>
       <path d="M 52 44.1875 
Q 55.375 50.25 60.0625 53.125 
Q 64.75 56 71.09375 56 
Q 79.640625 56 84.28125 50.015625 
Q 88.921875 44.046875 88.921875 33.015625 
L 88.921875 0 
L 79.890625 0 
L 79.890625 32.71875 
Q 79.890625 40.578125 77.09375 44.375 
Q 74.3125 48.1875 68.609375 48.1875 
Q 61.625 48.1875 57.5625 43.546875 
Q 53.515625 38.921875 53.515625 30.90625 
L 53.515625 0 
L 44.484375 0 
L 44.484375 32.71875 
Q 44.484375 40.625 41.703125 44.40625 
Q 38.921875 48.1875 33.109375 48.1875 
Q 26.21875 48.1875 22.15625 43.53125 
Q 18.109375 38.875 18.109375 30.90625 
L 18.109375 0 
L 9.078125 0 
L 9.078125 54.6875 
L 18.109375 54.6875 
L 18.109375 46.1875 
Q 21.1875 51.21875 25.484375 53.609375 
Q 29.78125 56 35.6875 56 
Q 41.65625 56 45.828125 52.96875 
Q 50 49.953125 52 44.1875 
z
" id="DejaVuSans-109"/>
       <path d="M 54.890625 33.015625 
L 54.890625 0 
L 45.90625 0 
L 45.90625 32.71875 
Q 45.90625 40.484375 42.875 44.328125 
Q 39.84375 48.1875 33.796875 48.1875 
Q 26.515625 48.1875 22.3125 43.546875 
Q 18.109375 38.921875 18.109375 30.90625 
L 18.109375 0 
L 9.078125 0 
L 9.078125 54.6875 
L 18.109375 54.6875 
L 18.109375 46.1875 
Q 21.34375 51.125 25.703125 53.5625 
Q 30.078125 56 35.796875 56 
Q 45.21875 56 50.046875 50.171875 
Q 54.890625 44.34375 54.890625 33.015625 
z
" id="DejaVuSans-110"/>
      </defs>
      <use xlink:href="#DejaVuSans-108"/>
      <use x="27.783203" xlink:href="#DejaVuSans-111"/>
      <use x="88.964844" xlink:href="#DejaVuSans-103"/>
      <use x="152.441406" xlink:href="#DejaVuSans-49"/>
      <use x="216.064453" xlink:href="#DejaVuSans-48"/>
      <use x="279.6875" xlink:href="#DejaVuSans-40"/>
      <use x="318.701172" xlink:href="#DejaVuSans-35"/>
      <use x="402.490234" xlink:href="#DejaVuSans-32"/>
      <use x="434.277344" xlink:href="#DejaVuSans-40"/>
      <use x="473.291016" xlink:href="#DejaVuSans-102"/>
      <use x="508.496094" xlink:href="#DejaVuSans-43"/>
      <use x="592.285156" xlink:href="#DejaVuSans-103"/>
      <use x="655.761719" xlink:href="#DejaVuSans-41"/>
      <use x="694.775391" xlink:href="#DejaVuSans-45"/>
      <use x="730.859375" xlink:href="#DejaVuSans-101"/>
      <use x="792.382812" xlink:href="#DejaVuSans-118"/>
      <use x="851.5625" xlink:href="#DejaVuSans-97"/>
      <use x="912.841797" xlink:href="#DejaVuSans-108"/>
      <use x="940.625" xlink:href="#DejaVuSans-115"/>
      <use x="992.724609" xlink:href="#DejaVuSans-32"/>
      <use x="1024.511719" xlink:href="#DejaVuSans-47"/>
      <use x="1058.203125" xlink:href="#DejaVuSans-32"/>
      <use x="1089.990234" xlink:href="#DejaVuSans-100"/>
      <use x="1153.466797" xlink:href="#DejaVuSans-105"/>
      <use x="1181.25" xlink:href="#DejaVuSans-109"/>
      <use x="1278.662109" xlink:href="#DejaVuSans-101"/>
      <use x="1340.185547" xlink:href="#DejaVuSans-110"/>
      <use x="1403.564453" xlink:href="#DejaVuSans-115"/>
      <use x="1455.664062" xlink:href="#DejaVuSans-105"/>
      <use x="1483.447266" xlink:href="#DejaVuSans-111"/>
      <use x="1544.628906" xlink:href="#DejaVuSans-110"/>
      <use x="1608.007812" xlink:href="#DejaVuSans-41"/>
     </g>
    </g>
   </g>
   <g id="matplotlib.axis_2">
    <g id="ytick_1">
     <g id="line2d_17">
      <path clip-path="url(#p236528f242)" d="M 57.6 298.944 
L 338.688 298.944 
" style="fill:none;stroke:#b0b0b0;stroke-linecap:square;stroke-width:0.8;"/>
     </g>
     <g id="line2d_18">
      <defs>
       <path d="M 0 0 
L -3.5 0 
" id="me3978a92d6" style="stroke:#000000;stroke-width:0.8;"/>
      </defs>
      <g>
       <use style="stroke:#000000;stroke-width:0.8;" x="57.6" xlink:href="#me3978a92d6" y="298.944"/>
      </g>
     </g>
     <g id="text_6">
      <!-- 0.0 -->
      <g transform="translate(25.155 305.02275)scale(0.16 -0.16)">
       <defs>
        <path d="M 10.6875 12.40625 
L 21 12.40625 
L 21 0 
L 10.6875 0 
z
" id="DejaVuSans-46"/>
       </defs>
       <use xlink:href="#DejaVuSans-48"/>
       <use x="63.623047" xlink:href="#DejaVuSans-46"/>
       <use x="95.410156" xlink:href="#DejaVuSans-48"/>
      </g>
     </g>
    </g>
    <g id="ytick_2">
     <g id="line2d_19">
      <path clip-path="url(#p236528f242)" d="M 57.6 245.22202 
L 338.688 245.22202 
" style="fill:none;stroke:#b0b0b0;stroke-linecap:square;stroke-width:0.8;"/>
     </g>
     <g id="line2d_20">
      <g>
       <use style="stroke:#000000;stroke-width:0.8;" x="57.6" xlink:href="#me3978a92d6" y="245.22202"/>
      </g>
     </g>
     <g id="text_7">
      <!-- 0.2 -->
      <g transform="translate(25.155 251.30077)scale(0.16 -0.16)">
       <use xlink:href="#DejaVuSans-48"/>
       <use x="63.623047" xlink:href="#DejaVuSans-46"/>
       <use x="95.410156" xlink:href="#DejaVuSans-50"/>
      </g>
     </g>
    </g>
    <g id="ytick_3">
     <g id="line2d_21">
      <path clip-path="url(#p236528f242)" d="M 57.6 191.50004 
L 338.688 191.50004 
" style="fill:none;stroke:#b0b0b0;stroke-linecap:square;stroke-width:0.8;"/>
     </g>
     <g id="line2d_22">
      <g>
       <use style="stroke:#000000;stroke-width:0.8;" x="57.6" xlink:href="#me3978a92d6" y="191.50004"/>
      </g>
     </g>
     <g id="text_8">
      <!-- 0.4 -->
      <g transform="translate(25.155 197.57879)scale(0.16 -0.16)">
       <use xlink:href="#DejaVuSans-48"/>
       <use x="63.623047" xlink:href="#DejaVuSans-46"/>
       <use x="95.410156" xlink:href="#DejaVuSans-52"/>
      </g>
     </g>
    </g>
    <g id="ytick_4">
     <g id="line2d_23">
      <path clip-path="url(#p236528f242)" d="M 57.6 137.778059 
L 338.688 137.778059 
" style="fill:none;stroke:#b0b0b0;stroke-linecap:square;stroke-width:0.8;"/>
     </g>
     <g id="line2d_24">
      <g>
       <use style="stroke:#000000;stroke-width:0.8;" x="57.6" xlink:href="#me3978a92d6" y="137.778059"/>
      </g>
     </g>
     <g id="text_9">
      <!-- 0.6 -->
      <g transform="translate(25.155 143.856809)scale(0.16 -0.16)">
       <use xlink:href="#DejaVuSans-48"/>
       <use x="63.623047" xlink:href="#DejaVuSans-46"/>
       <use x="95.410156" xlink:href="#DejaVuSans-54"/>
      </g>
     </g>
    </g>
    <g id="ytick_5">
     <g id="line2d_25">
      <path clip-path="url(#p236528f242)" d="M 57.6 84.056079 
L 338.688 84.056079 
" style="fill:none;stroke:#b0b0b0;stroke-linecap:square;stroke-width:0.8;"/>
     </g>
     <g id="line2d_26">
      <g>
       <use style="stroke:#000000;stroke-width:0.8;" x="57.6" xlink:href="#me3978a92d6" y="84.056079"/>
      </g>
     </g>
     <g id="text_10">
      <!-- 0.8 -->
      <g transform="translate(25.155 90.134829)scale(0.16 -0.16)">
       <defs>
        <path d="M 31.78125 34.625 
Q 24.75 34.625 20.71875 30.859375 
Q 16.703125 27.09375 16.703125 20.515625 
Q 16.703125 13.921875 20.71875 10.15625 
Q 24.75 6.390625 31.78125 6.390625 
Q 38.8125 6.390625 42.859375 10.171875 
Q 46.921875 13.96875 46.921875 20.515625 
Q 46.921875 27.09375 42.890625 30.859375 
Q 38.875 34.625 31.78125 34.625 
z
M 21.921875 38.8125 
Q 15.578125 40.375 12.03125 44.71875 
Q 8.5 49.078125 8.5 55.328125 
Q 8.5 64.0625 14.71875 69.140625 
Q 20.953125 74.21875 31.78125 74.21875 
Q 42.671875 74.21875 48.875 69.140625 
Q 55.078125 64.0625 55.078125 55.328125 
Q 55.078125 49.078125 51.53125 44.71875 
Q 48 40.375 41.703125 38.8125 
Q 48.828125 37.15625 52.796875 32.3125 
Q 56.78125 27.484375 56.78125 20.515625 
Q 56.78125 9.90625 50.3125 4.234375 
Q 43.84375 -1.421875 31.78125 -1.421875 
Q 19.734375 -1.421875 13.25 4.234375 
Q 6.78125 9.90625 6.78125 20.515625 
Q 6.78125 27.484375 10.78125 32.3125 
Q 14.796875 37.15625 21.921875 38.8125 
z
M 18.3125 54.390625 
Q 18.3125 48.734375 21.84375 45.5625 
Q 25.390625 42.390625 31.78125 42.390625 
Q 38.140625 42.390625 41.71875 45.5625 
Q 45.3125 48.734375 45.3125 54.390625 
Q 45.3125 60.0625 41.71875 63.234375 
Q 38.140625 66.40625 31.78125 66.40625 
Q 25.390625 66.40625 21.84375 63.234375 
Q 18.3125 60.0625 18.3125 54.390625 
z
" id="DejaVuSans-56"/>
       </defs>
       <use xlink:href="#DejaVuSans-48"/>
       <use x="63.623047" xlink:href="#DejaVuSans-46"/>
       <use x="95.410156" xlink:href="#DejaVuSans-56"/>
      </g>
     </g>
    </g>
    <g id="ytick_6">
     <g id="line2d_27">
      <path clip-path="url(#p236528f242)" d="M 57.6 30.334099 
L 338.688 30.334099 
" style="fill:none;stroke:#b0b0b0;stroke-linecap:square;stroke-width:0.8;"/>
     </g>
     <g id="line2d_28">
      <g>
       <use style="stroke:#000000;stroke-width:0.8;" x="57.6" xlink:href="#me3978a92d6" y="30.334099"/>
      </g>
     </g>
     <g id="text_11">
      <!-- 1.0 -->
      <g transform="translate(25.155 36.412849)scale(0.16 -0.16)">
       <use xlink:href="#DejaVuSans-49"/>
       <use x="63.623047" xlink:href="#DejaVuSans-46"/>
       <use x="95.410156" xlink:href="#DejaVuSans-48"/>
      </g>
     </g>
    </g>
    <g id="text_12">
     <!-- Fraction of function,target pairs -->
     <g transform="translate(17.619531 297.681)rotate(-90)scale(0.17 -0.17)">
      <defs>
       <path d="M 9.8125 72.90625 
L 51.703125 72.90625 
L 51.703125 64.59375 
L 19.671875 64.59375 
L 19.671875 43.109375 
L 48.578125 43.109375 
L 48.578125 34.8125 
L 19.671875 34.8125 
L 19.671875 0 
L 9.8125 0 
z
" id="DejaVuSans-70"/>
       <path d="M 41.109375 46.296875 
Q 39.59375 47.171875 37.8125 47.578125 
Q 36.03125 48 33.890625 48 
Q 26.265625 48 22.1875 43.046875 
Q 18.109375 38.09375 18.109375 28.8125 
L 18.109375 0 
L 9.078125 0 
L 9.078125 54.6875 
L 18.109375 54.6875 
L 18.109375 46.1875 
Q 20.953125 51.171875 25.484375 53.578125 
Q 30.03125 56 36.53125 56 
Q 37.453125 56 38.578125 55.875 
Q 39.703125 55.765625 41.0625 55.515625 
z
" id="DejaVuSans-114"/>
       <path d="M 48.78125 52.59375 
L 48.78125 44.1875 
Q 44.96875 46.296875 41.140625 47.34375 
Q 37.3125 48.390625 33.40625 48.390625 
Q 24.65625 48.390625 19.8125 42.84375 
Q 14.984375 37.3125 14.984375 27.296875 
Q 14.984375 17.28125 19.8125 11.734375 
Q 24.65625 6.203125 33.40625 6.203125 
Q 37.3125 6.203125 41.140625 7.25 
Q 44.96875 8.296875 48.78125 10.40625 
L 48.78125 2.09375 
Q 45.015625 0.34375 40.984375 -0.53125 
Q 36.96875 -1.421875 32.421875 -1.421875 
Q 20.0625 -1.421875 12.78125 6.34375 
Q 5.515625 14.109375 5.515625 27.296875 
Q 5.515625 40.671875 12.859375 48.328125 
Q 20.21875 56 33.015625 56 
Q 37.15625 56 41.109375 55.140625 
Q 45.0625 54.296875 48.78125 52.59375 
z
" id="DejaVuSans-99"/>
       <path d="M 18.3125 70.21875 
L 18.3125 54.6875 
L 36.8125 54.6875 
L 36.8125 47.703125 
L 18.3125 47.703125 
L 18.3125 18.015625 
Q 18.3125 11.328125 20.140625 9.421875 
Q 21.96875 7.515625 27.59375 7.515625 
L 36.8125 7.515625 
L 36.8125 0 
L 27.59375 0 
Q 17.1875 0 13.234375 3.875 
Q 9.28125 7.765625 9.28125 18.015625 
L 9.28125 47.703125 
L 2.6875 47.703125 
L 2.6875 54.6875 
L 9.28125 54.6875 
L 9.28125 70.21875 
z
" id="DejaVuSans-116"/>
       <path d="M 8.5 21.578125 
L 8.5 54.6875 
L 17.484375 54.6875 
L 17.484375 21.921875 
Q 17.484375 14.15625 20.5 10.265625 
Q 23.53125 6.390625 29.59375 6.390625 
Q 36.859375 6.390625 41.078125 11.03125 
Q 45.3125 15.671875 45.3125 23.6875 
L 45.3125 54.6875 
L 54.296875 54.6875 
L 54.296875 0 
L 45.3125 0 
L 45.3125 8.40625 
Q 42.046875 3.421875 37.71875 1 
Q 33.40625 -1.421875 27.6875 -1.421875 
Q 18.265625 -1.421875 13.375 4.4375 
Q 8.5 10.296875 8.5 21.578125 
z
M 31.109375 56 
z
" id="DejaVuSans-117"/>
       <path d="M 11.71875 12.40625 
L 22.015625 12.40625 
L 22.015625 4 
L 14.015625 -11.625 
L 7.71875 -11.625 
L 11.71875 4 
z
" id="DejaVuSans-44"/>
       <path d="M 18.109375 8.203125 
L 18.109375 -20.796875 
L 9.078125 -20.796875 
L 9.078125 54.6875 
L 18.109375 54.6875 
L 18.109375 46.390625 
Q 20.953125 51.265625 25.265625 53.625 
Q 29.59375 56 35.59375 56 
Q 45.5625 56 51.78125 48.09375 
Q 58.015625 40.1875 58.015625 27.296875 
Q 58.015625 14.40625 51.78125 6.484375 
Q 45.5625 -1.421875 35.59375 -1.421875 
Q 29.59375 -1.421875 25.265625 0.953125 
Q 20.953125 3.328125 18.109375 8.203125 
z
M 48.6875 27.296875 
Q 48.6875 37.203125 44.609375 42.84375 
Q 40.53125 48.484375 33.40625 48.484375 
Q 26.265625 48.484375 22.1875 42.84375 
Q 18.109375 37.203125 18.109375 27.296875 
Q 18.109375 17.390625 22.1875 11.75 
Q 26.265625 6.109375 33.40625 6.109375 
Q 40.53125 6.109375 44.609375 11.75 
Q 48.6875 17.390625 48.6875 27.296875 
z
" id="DejaVuSans-112"/>
      </defs>
      <use xlink:href="#DejaVuSans-70"/>
      <use x="50.269531" xlink:href="#DejaVuSans-114"/>
      <use x="91.382812" xlink:href="#DejaVuSans-97"/>
      <use x="152.662109" xlink:href="#DejaVuSans-99"/>
      <use x="207.642578" xlink:href="#DejaVuSans-116"/>
      <use x="246.851562" xlink:href="#DejaVuSans-105"/>
      <use x="274.634766" xlink:href="#DejaVuSans-111"/>
      <use x="335.816406" xlink:href="#DejaVuSans-110"/>
      <use x="399.195312" xlink:href="#DejaVuSans-32"/>
      <use x="430.982422" xlink:href="#DejaVuSans-111"/>
      <use x="492.164062" xlink:href="#DejaVuSans-102"/>
      <use x="527.369141" xlink:href="#DejaVuSans-32"/>
      <use x="559.15625" xlink:href="#DejaVuSans-102"/>
      <use x="594.361328" xlink:href="#DejaVuSans-117"/>
      <use x="657.740234" xlink:href="#DejaVuSans-110"/>
      <use x="721.119141" xlink:href="#DejaVuSans-99"/>
      <use x="776.099609" xlink:href="#DejaVuSans-116"/>
      <use x="815.308594" xlink:href="#DejaVuSans-105"/>
      <use x="843.091797" xlink:href="#DejaVuSans-111"/>
      <use x="904.273438" xlink:href="#DejaVuSans-110"/>
      <use x="967.652344" xlink:href="#DejaVuSans-44"/>
      <use x="999.439453" xlink:href="#DejaVuSans-116"/>
      <use x="1038.648438" xlink:href="#DejaVuSans-97"/>
      <use x="1099.927734" xlink:href="#DejaVuSans-114"/>
      <use x="1139.291016" xlink:href="#DejaVuSans-103"/>
      <use x="1202.767578" xlink:href="#DejaVuSans-101"/>
      <use x="1264.291016" xlink:href="#DejaVuSans-116"/>
      <use x="1303.5" xlink:href="#DejaVuSans-32"/>
      <use x="1335.287109" xlink:href="#DejaVuSans-112"/>
      <use x="1398.763672" xlink:href="#DejaVuSans-97"/>
      <use x="1460.042969" xlink:href="#DejaVuSans-105"/>
      <use x="1487.826172" xlink:href="#DejaVuSans-114"/>
      <use x="1528.939453" xlink:href="#DejaVuSans-115"/>
     </g>
    </g>
   </g>
   <g id="line2d_29">
    <defs>
     <path d="M 0 1.5 
C 0.397805 1.5 0.77937 1.341951 1.06066 1.06066 
C 1.341951 0.77937 1.5 0.397805 1.5 0 
C 1.5 -0.397805 1.341951 -0.77937 1.06066 -1.06066 
C 0.77937 -1.341951 0.397805 -1.5 0 -1.5 
C -0.397805 -1.5 -0.77937 -1.341951 -1.06066 -1.06066 
C -1.341951 -0.77937 -1.5 -0.397805 -1.5 0 
C -1.5 0.397805 -1.341951 0.77937 -1.06066 1.06066 
C -0.77937 1.341951 -0.397805 1.5 0 1.5 
z
" id="m8e4939238f" style="stroke:#000080;"/>
    </defs>
    <g>
     <use style="fill:#000080;stroke:#000080;" x="235.422108" xlink:href="#m8e4939238f" y="30.334099"/>
     <use style="fill:#000080;stroke:#000080;" x="235.422108" xlink:href="#m8e4939238f" y="30.334099"/>
    </g>
   </g>
   <g id="line2d_30">
    <path d="M 97.755429 298.944 
L 97.755429 298.070472 
L 98.880934 298.070472 
L 98.880934 296.323416 
L 100.934985 296.323416 
L 100.934985 294.576359 
L 102.772397 294.576359 
L 102.772397 293.702831 
L 104.434538 293.702831 
L 104.434538 292.392539 
L 107.347841 292.392539 
L 107.347841 291.955775 
L 108.006005 291.955775 
L 108.006005 290.645483 
L 108.640231 290.645483 
L 108.640231 287.588134 
L 109.252198 287.588134 
L 109.252198 285.404314 
L 109.843417 285.404314 
L 109.843417 284.96755 
L 111.505558 284.96755 
L 111.505558 283.657258 
L 112.026172 283.657258 
L 112.026172 283.220494 
L 112.531694 283.220494 
L 112.531694 282.346965 
L 113.022974 282.346965 
L 113.022974 280.599909 
L 113.500792 280.599909 
L 113.500792 280.163145 
L 114.418861 280.163145 
L 114.418861 279.726381 
L 115.711251 279.726381 
L 115.711251 278.416089 
L 116.522527 278.416089 
L 116.522527 277.979325 
L 117.672786 277.979325 
L 117.672786 277.105797 
L 118.399528 277.105797 
L 118.399528 276.669033 
L 119.097192 276.669033 
L 119.097192 276.232269 
L 119.768017 276.232269 
L 119.768017 275.35874 
L 120.093994 275.35874 
L 120.093994 274.921976 
L 120.41399 274.921976 
L 120.41399 273.611684 
L 121.340187 273.611684 
L 121.340187 272.738156 
L 122.219665 272.738156 
L 122.219665 272.301392 
L 123.855796 272.301392 
L 123.855796 270.9911 
L 124.867052 270.9911 
L 124.867052 270.117572 
L 125.351508 270.117572 
L 125.351508 269.680808 
L 128.005624 269.680808 
L 128.005624 269.244043 
L 131.856005 269.244043 
L 131.856005 268.370515 
L 134.450015 268.370515 
L 134.450015 267.933751 
L 136.519813 267.933751 
L 136.519813 267.496987 
L 137.138292 267.496987 
L 137.138292 267.060223 
L 137.259399 267.060223 
L 137.259399 266.623459 
L 139.520072 266.623459 
L 139.625765 265.313167 
L 139.939053 265.313167 
L 139.939053 264.876403 
L 141.283115 264.876403 
L 141.283115 264.439639 
L 141.426256 264.439639 
L 141.426256 264.002875 
L 146.784375 264.002875 
L 146.784375 263.566111 
L 147.198794 263.566111 
L 147.198794 263.129347 
L 148.064279 263.129347 
L 148.064279 262.255818 
L 148.193699 262.255818 
L 148.193699 261.819054 
L 148.576295 261.819054 
L 148.576295 260.945526 
L 148.701984 260.945526 
L 148.76449 259.635234 
L 149.012299 259.635234 
L 149.012299 259.19847 
L 149.134896 259.19847 
L 149.134896 257.888178 
L 149.377533 257.888178 
L 149.377533 257.01465 
L 149.557321 257.01465 
L 149.616841 256.141121 
L 149.794191 256.141121 
L 149.852909 254.830829 
L 150.027887 254.830829 
L 150.085825 253.083773 
L 150.143571 253.083773 
L 150.143571 252.210245 
L 150.429467 252.210245 
L 150.429467 250.899953 
L 150.598782 250.899953 
L 150.598782 249.58966 
L 150.710752 249.58966 
L 150.710752 248.716132 
L 151.151579 248.716132 
L 151.151579 247.40584 
L 151.367883 247.40584 
L 151.367883 246.969076 
L 151.528368 246.969076 
L 151.528368 246.532312 
L 152.562109 246.532312 
L 152.562109 246.095548 
L 154.796449 246.095548 
L 154.796449 245.658784 
L 155.86668 245.658784 
L 155.86668 245.22202 
L 156.992185 245.22202 
L 156.992185 244.785256 
L 157.339055 244.785256 
L 157.339055 244.348492 
L 159.218393 244.348492 
L 159.218393 243.474964 
L 159.422762 243.474964 
L 159.422762 243.038199 
L 161.146363 243.038199 
L 161.146363 242.601435 
L 161.405178 242.601435 
L 161.405178 242.164671 
L 163.048075 242.164671 
L 163.048075 241.727907 
L 164.460881 241.727907 
L 164.460881 241.291143 
L 164.637547 241.291143 
L 164.637547 240.417615 
L 164.76265 240.417615 
L 164.76265 239.980851 
L 165.059286 239.980851 
L 165.059286 239.544087 
L 166.08262 239.544087 
L 166.174831 237.797031 
L 166.197807 237.797031 
L 166.289413 234.302918 
L 166.335035 234.302918 
L 166.425924 230.372042 
L 166.448573 230.372042 
L 166.493781 229.498513 
L 166.561376 229.498513 
L 166.583849 227.314693 
L 166.718084 227.314693 
L 166.807003 220.763232 
L 166.873397 220.763232 
L 166.917519 219.016176 
L 167.027338 219.016176 
L 167.136471 217.26912 
L 167.223287 217.26912 
L 167.223287 216.395591 
L 167.374185 216.395591 
L 167.481174 214.211771 
L 167.523787 214.211771 
L 167.629866 211.591187 
L 167.745812 211.591187 
L 167.798261 210.280894 
L 167.881853 210.280894 
L 167.881853 209.84413 
L 168.212269 209.84413 
L 168.212269 209.407366 
L 168.435853 209.407366 
L 168.536542 207.223546 
L 168.55661 207.223546 
L 168.55661 206.350018 
L 168.696445 206.350018 
L 168.71633 203.292669 
L 168.815417 203.292669 
L 168.854895 202.419141 
L 168.933583 202.419141 
L 168.992367 199.361793 
L 169.16754 199.361793 
L 169.264103 195.86768 
L 169.3984 195.86768 
L 169.436581 194.557388 
L 169.588476 194.557388 
L 169.588476 194.120624 
L 170.07319 194.120624 
L 170.164879 192.810332 
L 170.473066 192.810332 
L 170.473066 192.373568 
L 170.811185 192.373568 
L 170.811185 191.936804 
L 171.314944 191.936804 
L 171.314944 191.50004 
L 171.787903 191.50004 
L 171.787903 191.063276 
L 172.101686 191.063276 
L 172.101686 190.626511 
L 173.530906 190.626511 
L 173.530906 190.189747 
L 174.109302 190.189747 
L 174.109302 189.752983 
L 176.118724 189.752983 
L 176.118724 189.316219 
L 177.159525 189.316219 
L 177.245042 187.132399 
L 177.281564 187.132399 
L 177.342265 184.948579 
L 177.426892 184.948579 
L 177.523109 182.764758 
L 177.559054 182.764758 
L 177.618798 180.144174 
L 177.725824 180.144174 
L 177.773182 179.270646 
L 177.92621 179.270646 
L 177.92621 178.833882 
L 178.320204 178.833882 
L 178.320204 178.397118 
L 178.60433 178.397118 
L 178.60433 177.960354 
L 178.73349 177.960354 
L 178.817212 177.086825 
L 178.922687 177.086825 
L 178.922687 176.650061 
L 180.171933 176.650061 
L 180.254169 175.776533 
L 181.342459 175.776533 
L 181.342459 175.339769 
L 182.316765 175.339769 
L 182.316765 174.903005 
L 183.048341 174.903005 
L 183.048341 174.466241 
L 185.694129 174.466241 
L 185.761563 170.535364 
L 185.806375 170.535364 
L 185.903074 166.167724 
L 185.940124 166.167724 
L 186.050803 163.983903 
L 186.094879 163.983903 
L 186.168092 163.110375 
L 186.291852 163.110375 
L 186.291852 162.673611 
L 186.479451 162.673611 
L 186.479451 162.236847 
L 188.05657 162.236847 
L 188.05657 161.800083 
L 189.069026 161.800083 
L 189.069026 161.363319 
L 190.267263 161.363319 
L 190.359428 155.685386 
L 190.411057 155.685386 
L 190.519553 149.570689 
L 190.559356 149.570689 
L 190.610398 148.697161 
L 190.98298 148.697161 
L 191.063174 147.823633 
L 191.396558 147.823633 
L 191.396558 147.386869 
L 191.694443 147.386869 
L 191.779384 146.076577 
L 192.462244 146.076577 
L 192.462244 145.639813 
L 194.447979 145.639813 
L 194.447979 145.203049 
L 202.705464 145.203049 
L 202.798616 134.720711 
L 202.835177 134.720711 
L 202.90527 129.479542 
L 202.947192 129.479542 
L 202.947192 129.042778 
L 203.332309 129.042778 
L 203.422181 117.250148 
L 203.449324 117.250148 
L 203.539946 108.951631 
L 204.132783 108.951631 
L 204.132783 108.514867 
L 204.501787 108.514867 
L 204.555324 107.204575 
L 205.774286 107.204575 
L 205.774286 106.331047 
L 207.469411 106.331047 
L 207.546776 105.457518 
L 207.862326 105.457518 
L 207.930631 104.58399 
L 208.283623 104.58399 
L 208.283623 104.147226 
L 208.677909 104.147226 
L 208.784093 91.917832 
L 208.83794 91.917832 
L 208.896583 91.044304 
L 209.067408 91.044304 
L 209.118428 90.170776 
L 210.080906 90.170776 
L 210.080906 89.734012 
L 210.408789 89.734012 
L 210.481426 74.010506 
L 212.016501 74.010506 
L 212.105883 73.136978 
L 212.140519 73.136978 
L 212.140519 72.700213 
L 212.257115 72.700213 
L 212.257115 72.263449 
L 212.663168 72.263449 
L 212.663168 71.826685 
L 212.951008 71.826685 
L 212.951008 71.389921 
L 213.402812 71.389921 
L 213.402812 70.953157 
L 213.667475 70.953157 
L 213.667475 70.516393 
L 213.947504 70.516393 
L 213.95493 69.642865 
L 214.15131 69.642865 
L 214.15131 69.206101 
L 214.996756 69.206101 
L 215.045645 53.919359 
L 215.540702 53.919359 
L 215.540702 53.482595 
L 216.412054 53.482595 
L 216.487984 50.86201 
L 216.57892 50.86201 
L 216.57892 49.988482 
L 216.817444 49.988482 
L 216.878453 40.816437 
L 216.936746 40.816437 
L 217.042802 39.506144 
L 217.255456 39.506144 
L 217.255456 39.06938 
L 217.478899 39.06938 
L 217.569653 38.195852 
L 217.806999 38.195852 
L 217.806999 37.759088 
L 217.958733 37.759088 
L 217.970532 36.88556 
L 219.017129 36.88556 
L 219.017129 36.448796 
L 219.178003 36.448796 
L 219.184055 35.575268 
L 219.71819 35.575268 
L 219.71819 35.138504 
L 224.10449 35.138504 
L 224.10449 34.70174 
L 224.277458 34.70174 
L 224.289776 33.828212 
L 225.854436 33.828212 
L 225.854436 33.391447 
L 227.459068 33.391447 
L 227.459068 32.954683 
L 227.923783 32.954683 
L 227.923783 32.517919 
L 228.650933 32.517919 
L 228.650933 32.081155 
L 229.424972 32.081155 
L 229.424972 31.644391 
L 234.969234 31.644391 
L 234.969234 31.207627 
L 235.124737 31.207627 
L 235.124737 30.770863 
L 235.422108 30.770863 
L 235.422108 30.334099 
L 338.688 30.334099 
L 338.688 30.334099 
" style="fill:none;stroke:#000080;stroke-linecap:square;stroke-width:1.5;"/>
   </g>
   <g id="line2d_31">
    <defs>
     <path d="M 0 6 
C 1.591219 6 3.117479 5.367802 4.242641 4.242641 
C 5.367802 3.117479 6 1.591219 6 0 
C 6 -1.591219 5.367802 -3.117479 4.242641 -4.242641 
C 3.117479 -5.367802 1.591219 -6 0 -6 
C -1.591219 -6 -3.117479 -5.367802 -4.242641 -4.242641 
C -5.367802 -3.117479 -6 -1.591219 -6 0 
C -6 1.591219 -5.367802 3.117479 -4.242641 4.242641 
C -3.117479 5.367802 -1.591219 6 0 6 
z
" id="mc5ad729f08" style="stroke:#000080;stroke-width:1.5;"/>
    </defs>
    <g>
     <use style="fill-opacity:0;stroke:#000080;stroke-width:1.5;" x="166.493781" xlink:href="#mc5ad729f08" y="229.498513"/>
     <use style="fill-opacity:0;stroke:#000080;stroke-width:1.5;" x="202.857637" xlink:href="#mc5ad729f08" y="132.100127"/>
     <use style="fill-opacity:0;stroke:#000080;stroke-width:1.5;" x="235.422108" xlink:href="#mc5ad729f08" y="30.770863"/>
     <use style="fill-opacity:0;stroke:#000080;stroke-width:1.5;" x="235.422108" xlink:href="#mc5ad729f08" y="30.334099"/>
     <use style="fill-opacity:0;stroke:#000080;stroke-width:1.5;" x="338.688" xlink:href="#mc5ad729f08" y="30.334099"/>
    </g>
   </g>
   <g id="line2d_32">
    <path style="fill:none;stroke:#000080;stroke-linecap:square;stroke-width:1.5;"/>
    <g/>
   </g>
   <g id="line2d_33">
    <path clip-path="url(#p236528f242)" d="M 217.970532 36.88556 
" style="fill:none;stroke:#000080;stroke-linecap:square;stroke-width:1.5;"/>
    <defs>
     <path d="M -12 12 
L 12 -12 
M -12 -12 
L 12 12 
" id="m1ac40d22b4" style="stroke:#000080;"/>
    </defs>
    <g clip-path="url(#p236528f242)">
     <use style="fill:#000080;stroke:#000080;" x="217.970532" xlink:href="#m1ac40d22b4" y="36.88556"/>
    </g>
   </g>
   <g id="line2d_34">
    <defs>
     <path d="M 0 1.5 
C 0.397805 1.5 0.77937 1.341951 1.06066 1.06066 
C 1.341951 0.77937 1.5 0.397805 1.5 0 
C 1.5 -0.397805 1.341951 -0.77937 1.06066 -1.06066 
C 0.77937 -1.341951 0.397805 -1.5 0 -1.5 
C -0.397805 -1.5 -0.77937 -1.341951 -1.06066 -1.06066 
C -1.341951 -0.77937 -1.5 -0.397805 -1.5 0 
C -1.5 0.397805 -1.341951 0.77937 -1.06066 1.06066 
C -0.77937 1.341951 -0.397805 1.5 0 1.5 
z
" id="md5f7156f3b" style="stroke:#ff00ff;"/>
    </defs>
    <g>
     <use style="fill:#ff00ff;stroke:#ff00ff;" x="259.077103" xlink:href="#md5f7156f3b" y="30.334099"/>
     <use style="fill:#ff00ff;stroke:#ff00ff;" x="259.077103" xlink:href="#md5f7156f3b" y="30.334099"/>
    </g>
   </g>
   <g id="line2d_35">
    <path d="M 118.399528 298.944 
L 118.399528 298.507236 
L 122.782271 298.507236 
L 122.782271 298.070472 
L 128.005624 298.070472 
L 128.005624 297.633708 
L 131.856005 297.633708 
L 131.856005 297.196944 
L 134.307653 297.196944 
L 134.307653 296.76018 
L 139.145019 296.76018 
L 139.145019 296.323416 
L 142.396639 296.323416 
L 142.396639 295.886652 
L 143.187472 295.886652 
L 143.273169 294.576359 
L 143.695448 294.576359 
L 143.695448 294.139595 
L 144.026061 294.139595 
L 144.026061 292.392539 
L 144.269971 292.392539 
L 144.350522 291.519011 
L 144.589967 291.519011 
L 144.669057 287.15137 
L 144.981877 287.15137 
L 145.059213 286.277842 
L 145.440832 286.277842 
L 145.440832 285.841078 
L 145.591172 285.841078 
L 145.591172 284.530786 
L 146.608752 284.530786 
L 146.608752 283.220494 
L 146.888907 283.220494 
L 146.888907 282.78373 
L 147.164632 282.78373 
L 147.164632 281.036673 
L 147.436066 281.036673 
L 147.436066 279.289617 
L 147.70334 279.289617 
L 147.70334 277.979325 
L 148.48143 277.979325 
L 148.48143 277.542561 
L 148.733265 277.542561 
L 148.733265 277.105797 
L 149.467659 277.105797 
L 149.467659 274.921976 
L 152.283884 274.921976 
L 152.283884 274.485212 
L 152.486669 274.485212 
L 152.486669 273.611684 
L 152.687123 273.611684 
L 152.687123 273.17492 
L 160.217098 273.17492 
L 160.217098 272.738156 
L 168.963 272.738156 
L 168.963 272.301392 
L 169.388841 272.301392 
L 169.388841 271.864628 
L 171.408865 271.864628 
L 171.408865 271.427864 
L 172.401882 271.427864 
L 172.401882 270.9911 
L 172.62567 270.9911 
L 172.62567 270.554336 
L 174.348349 270.554336 
L 174.40581 269.680808 
L 175.067161 269.680808 
L 175.067161 269.244043 
L 176.30621 269.244043 
L 176.30621 268.807279 
L 178.513913 268.807279 
L 178.513913 268.370515 
L 180.814252 268.370515 
L 180.903405 267.496987 
L 181.629139 267.496987 
L 181.629139 267.060223 
L 182.069005 267.060223 
L 182.069005 266.623459 
L 183.161555 266.623459 
L 183.256781 264.002875 
L 183.29128 264.002875 
L 183.360074 260.508762 
L 183.454225 260.508762 
L 183.564843 257.01465 
L 183.598738 257.01465 
L 183.670549 253.957301 
L 183.817468 253.957301 
L 183.821648 250.463189 
L 185.137306 250.463189 
L 185.137306 250.026425 
L 185.37594 250.026425 
L 185.37594 249.58966 
L 186.320845 249.58966 
L 186.320845 249.152896 
L 187.272123 249.152896 
L 187.272123 248.716132 
L 189.173878 248.716132 
L 189.173878 248.279368 
L 194.960706 248.279368 
L 194.960706 247.842604 
L 196.096688 247.842604 
L 196.179183 246.969076 
L 197.733252 246.969076 
L 197.823358 241.727907 
L 197.898093 241.727907 
L 197.965081 238.670559 
L 198.149821 238.670559 
L 198.197534 237.797031 
L 198.270686 237.797031 
L 198.365326 234.302918 
L 198.463066 234.302918 
L 198.463066 233.42939 
L 199.615399 233.42939 
L 199.713117 232.119098 
L 200.323926 232.119098 
L 200.323926 231.682334 
L 201.203351 231.682334 
L 201.203351 231.24557 
L 201.33244 231.24557 
L 201.356921 229.935277 
L 201.974265 229.935277 
L 202.062588 228.188221 
L 202.560514 228.188221 
L 202.560514 227.751457 
L 204.273046 227.751457 
L 204.273046 227.314693 
L 204.468562 227.314693 
L 204.560415 220.763232 
L 204.854388 220.763232 
L 204.874395 219.889704 
L 205.034863 219.889704 
L 205.126252 215.522063 
L 205.3271 215.522063 
L 205.3271 214.211771 
L 205.465363 214.211771 
L 205.565344 212.464715 
L 205.614521 212.464715 
L 205.704122 211.591187 
L 205.960804 211.591187 
L 205.960804 210.280894 
L 206.081329 210.280894 
L 206.16973 207.223546 
L 206.194077 207.223546 
L 206.206817 206.350018 
L 206.582486 206.350018 
L 206.672898 205.039726 
L 207.003404 205.039726 
L 207.091666 204.166198 
L 207.149894 204.166198 
L 207.149894 203.729433 
L 207.890732 203.729433 
L 207.890732 201.545613 
L 208.822999 201.545613 
L 208.931278 200.235321 
L 209.001448 200.235321 
L 209.101765 198.488265 
L 209.153663 198.488265 
L 209.208332 197.614737 
L 209.400262 197.614737 
L 209.400262 197.177972 
L 209.745794 197.177972 
L 209.833469 195.86768 
L 209.900109 195.86768 
L 209.965561 194.120624 
L 210.436971 194.120624 
L 210.532996 193.247096 
L 210.777006 193.247096 
L 210.777006 192.810332 
L 210.921614 192.810332 
L 211.022042 191.063276 
L 211.132373 191.063276 
L 211.167254 190.189747 
L 211.353549 190.189747 
L 211.353549 189.752983 
L 211.470373 189.752983 
L 211.470373 189.316219 
L 211.695783 189.316219 
L 211.695783 188.879455 
L 211.89076 188.879455 
L 211.967478 188.005927 
L 212.010692 188.005927 
L 212.010692 187.569163 
L 212.18988 187.569163 
L 212.291452 185.822107 
L 212.639967 185.822107 
L 212.66077 184.948579 
L 212.792213 184.948579 
L 212.898237 183.201522 
L 212.965944 183.201522 
L 213.019294 182.327994 
L 213.322162 182.327994 
L 213.39208 181.454466 
L 213.582734 181.454466 
L 213.625156 180.144174 
L 213.998679 180.144174 
L 214.05192 179.270646 
L 214.182117 179.270646 
L 214.204088 178.397118 
L 214.328798 178.397118 
L 214.412168 177.086825 
L 214.699799 177.086825 
L 214.711178 175.776533 
L 215.017027 175.776533 
L 215.017027 175.339769 
L 215.182501 175.339769 
L 215.190802 174.466241 
L 215.356699 174.466241 
L 215.356699 174.029477 
L 215.598905 174.029477 
L 215.598905 173.592713 
L 216.024071 173.592713 
L 216.060957 172.719185 
L 216.211642 172.719185 
L 216.271552 171.845657 
L 216.450704 171.845657 
L 216.543754 170.972128 
L 216.624211 170.972128 
L 216.719512 169.225072 
L 216.751163 169.225072 
L 216.751163 168.788308 
L 216.879709 168.788308 
L 216.879709 168.351544 
L 217.026623 168.351544 
L 217.093728 166.604488 
L 217.249311 166.604488 
L 217.292896 165.73096 
L 217.38645 165.73096 
L 217.484357 163.983903 
L 217.84862 163.983903 
L 217.84862 163.547139 
L 217.965814 163.547139 
L 217.967583 162.673611 
L 218.242629 162.673611 
L 218.242629 162.236847 
L 218.368169 162.236847 
L 218.439502 161.363319 
L 218.582439 161.363319 
L 218.684066 160.053027 
L 218.697647 160.053027 
L 218.697647 159.179499 
L 218.9576 159.179499 
L 218.973754 158.305971 
L 219.119023 158.305971 
L 219.196153 157.432442 
L 219.357027 157.432442 
L 219.446125 155.685386 
L 219.481853 155.685386 
L 219.570317 154.811858 
L 219.631547 154.811858 
L 219.631547 153.93833 
L 219.876455 153.93833 
L 219.981348 152.191274 
L 220.121621 152.191274 
L 220.121621 151.75451 
L 220.319116 151.75451 
L 220.319116 151.317745 
L 220.455175 151.317745 
L 220.455175 150.880981 
L 220.7664 150.880981 
L 220.774436 150.007453 
L 221.083025 150.007453 
L 221.190244 148.697161 
L 221.208376 148.697161 
L 221.214253 147.823633 
L 221.383338 147.823633 
L 221.454477 146.950105 
L 221.495479 146.950105 
L 221.568561 145.203049 
L 221.64946 145.203049 
L 221.699534 144.32952 
L 221.823384 144.32952 
L 221.920518 143.455992 
L 221.978258 143.455992 
L 222.082457 142.1457 
L 222.161012 142.1457 
L 222.262283 140.398644 
L 222.279335 140.398644 
L 222.375802 139.525116 
L 222.480392 139.525116 
L 222.480392 139.088352 
L 222.736687 139.088352 
L 222.83691 137.778059 
L 222.913034 137.778059 
L 222.963157 135.157475 
L 223.04182 135.157475 
L 223.04182 134.720711 
L 223.177101 134.720711 
L 223.241734 133.410419 
L 223.297876 133.410419 
L 223.372451 132.536891 
L 223.615201 132.536891 
L 223.704572 131.226598 
L 223.747393 131.226598 
L 223.829349 129.916306 
L 223.918471 129.916306 
L 224.008392 129.042778 
L 224.060458 129.042778 
L 224.167022 126.858958 
L 224.231391 126.858958 
L 224.318487 125.548666 
L 224.353694 125.548666 
L 224.432042 124.238373 
L 224.475146 124.238373 
L 224.557803 123.364845 
L 224.622358 123.364845 
L 224.622358 122.928081 
L 224.760749 122.928081 
L 224.760749 122.491317 
L 225.113549 122.491317 
L 225.204151 120.744261 
L 225.239172 120.744261 
L 225.342269 119.870733 
L 225.468179 119.870733 
L 225.530986 118.56044 
L 225.685506 118.56044 
L 225.712766 117.686912 
L 225.845428 117.686912 
L 225.934557 115.939856 
L 226.212115 115.939856 
L 226.261309 115.066328 
L 226.404064 115.066328 
L 226.461421 113.756036 
L 226.540972 113.756036 
L 226.549267 112.882508 
L 226.695417 112.882508 
L 226.792411 112.008979 
L 226.978112 112.008979 
L 227.070751 111.135451 
L 227.197332 111.135451 
L 227.197332 110.698687 
L 227.55362 110.698687 
L 227.55362 110.261923 
L 227.68115 110.261923 
L 227.77518 108.514867 
L 227.847297 108.514867 
L 227.941104 107.204575 
L 228.040039 107.204575 
L 228.056584 106.331047 
L 228.170317 106.331047 
L 228.170317 105.894283 
L 228.36734 105.894283 
L 228.433494 105.020754 
L 228.576293 105.020754 
L 228.64198 104.147226 
L 228.75356 104.147226 
L 228.75356 103.710462 
L 229.165896 103.710462 
L 229.233732 102.836934 
L 229.310542 102.836934 
L 229.373832 101.963406 
L 229.644662 101.963406 
L 229.644662 101.526642 
L 229.956789 101.526642 
L 230.02635 100.653114 
L 230.078855 100.653114 
L 230.096518 99.779586 
L 230.225793 99.779586 
L 230.225793 99.342822 
L 230.487546 99.342822 
L 230.517154 98.469293 
L 230.651627 98.469293 
L 230.651627 98.032529 
L 230.768941 98.032529 
L 230.79016 97.159001 
L 230.902898 97.159001 
L 230.991168 96.285473 
L 231.043638 96.285473 
L 231.152262 94.975181 
L 231.163059 94.975181 
L 231.163059 94.538417 
L 231.372696 94.538417 
L 231.372696 94.101653 
L 231.511339 94.101653 
L 231.561457 92.791361 
L 231.652117 92.791361 
L 231.701297 91.917832 
L 231.800309 91.917832 
L 231.800309 91.481068 
L 232.101888 91.481068 
L 232.160537 89.734012 
L 232.236956 89.734012 
L 232.31356 88.860484 
L 232.353158 88.860484 
L 232.374086 87.550192 
L 232.598565 87.550192 
L 232.669539 86.676664 
L 232.717961 86.676664 
L 232.812389 85.803135 
L 232.884756 85.803135 
L 232.962317 84.492843 
L 233.27014 84.492843 
L 233.376266 83.619315 
L 233.723832 83.619315 
L 233.825102 80.998731 
L 234.073275 80.998731 
L 234.130102 79.688439 
L 234.312653 79.688439 
L 234.337126 78.378146 
L 234.628611 78.378146 
L 234.718908 76.194326 
L 234.759941 76.194326 
L 234.815474 75.320798 
L 234.886488 75.320798 
L 234.939838 74.010506 
L 235.048709 74.010506 
L 235.143472 73.136978 
L 235.275587 73.136978 
L 235.369998 72.263449 
L 235.404321 72.263449 
L 235.432511 70.953157 
L 235.667526 70.953157 
L 235.745166 70.079629 
L 235.923448 70.079629 
L 235.982752 69.206101 
L 236.145119 69.206101 
L 236.227913 67.459045 
L 236.366268 67.459045 
L 236.366268 67.022281 
L 236.674467 67.022281 
L 236.674467 66.585517 
L 236.990001 66.585517 
L 236.990001 66.148752 
L 237.14742 66.148752 
L 237.14742 65.711988 
L 237.374909 65.711988 
L 237.432962 64.401696 
L 237.562497 64.401696 
L 237.562497 63.964932 
L 237.763261 63.964932 
L 237.864573 63.091404 
L 238.065449 63.091404 
L 238.153537 62.217876 
L 238.199078 62.217876 
L 238.286311 61.344348 
L 238.383175 61.344348 
L 238.464396 60.034056 
L 238.507863 60.034056 
L 238.507863 59.597291 
L 238.828404 59.597291 
L 238.828404 59.160527 
L 239.141407 59.160527 
L 239.241662 57.850235 
L 239.668651 57.850235 
L 239.686486 56.539943 
L 240.438751 56.539943 
L 240.502376 55.666415 
L 240.655451 55.666415 
L 240.736524 54.792887 
L 240.853938 54.792887 
L 240.873933 53.919359 
L 241.144451 53.919359 
L 241.144451 53.482595 
L 241.338407 53.482595 
L 241.347361 52.609066 
L 241.529465 52.609066 
L 241.612513 50.86201 
L 241.758901 50.86201 
L 241.813237 49.114954 
L 241.921851 49.114954 
L 241.921851 48.67819 
L 242.0753 48.67819 
L 242.131759 47.804662 
L 242.386934 47.804662 
L 242.43297 46.931134 
L 242.520784 46.931134 
L 242.520784 46.494369 
L 242.689809 46.494369 
L 242.689809 46.057605 
L 242.936581 46.057605 
L 243.013627 45.184077 
L 243.48487 45.184077 
L 243.48487 44.747313 
L 243.906967 44.747313 
L 243.906967 44.310549 
L 244.166256 44.310549 
L 244.166256 43.873785 
L 244.680308 43.873785 
L 244.680308 43.437021 
L 245.079863 43.437021 
L 245.079863 43.000257 
L 245.334689 43.000257 
L 245.334689 42.563493 
L 245.576885 42.563493 
L 245.576885 42.126729 
L 245.804411 42.126729 
L 245.804411 41.689965 
L 246.14017 41.689965 
L 246.14017 41.253201 
L 247.577715 41.253201 
L 247.577715 40.816437 
L 247.852936 40.816437 
L 247.932155 39.506144 
L 248.140512 39.506144 
L 248.140512 39.06938 
L 248.446347 39.06938 
L 248.446347 38.632616 
L 248.942418 38.632616 
L 248.97185 37.759088 
L 249.082547 37.759088 
L 249.082547 37.322324 
L 249.374868 37.322324 
L 249.374868 36.88556 
L 249.938609 36.88556 
L 249.938609 36.448796 
L 250.124629 36.448796 
L 250.124629 36.012032 
L 250.339957 36.012032 
L 250.383036 35.138504 
L 250.924772 35.138504 
L 250.997523 34.264976 
L 251.910018 34.264976 
L 251.910018 33.828212 
L 253.057215 33.828212 
L 253.062813 32.954683 
L 254.529731 32.954683 
L 254.529731 32.517919 
L 256.103837 32.517919 
L 256.103837 32.081155 
L 256.531526 32.081155 
L 256.531526 31.644391 
L 257.021697 31.644391 
L 257.021697 31.207627 
L 257.201651 31.207627 
L 257.201651 30.770863 
L 259.077103 30.770863 
L 259.077103 30.334099 
L 338.688 30.334099 
L 338.688 30.334099 
" style="fill:none;stroke:#ff00ff;stroke-linecap:square;stroke-width:1.5;"/>
   </g>
   <g id="line2d_36">
    <defs>
     <path d="M -0 8.485281 
L 5.091169 0 
L 0 -8.485281 
L -5.091169 -0 
z
" id="m26448a05f4" style="stroke:#ff00ff;stroke-linejoin:miter;stroke-width:1.5;"/>
    </defs>
    <g>
     <use style="fill-opacity:0;stroke:#ff00ff;stroke-linejoin:miter;stroke-width:1.5;" x="172.62567" xlink:href="#m26448a05f4" y="270.554336"/>
     <use style="fill-opacity:0;stroke:#ff00ff;stroke-linejoin:miter;stroke-width:1.5;" x="222.082457" xlink:href="#m26448a05f4" y="142.582464"/>
     <use style="fill-opacity:0;stroke:#ff00ff;stroke-linejoin:miter;stroke-width:1.5;" x="259.077103" xlink:href="#m26448a05f4" y="30.770863"/>
     <use style="fill-opacity:0;stroke:#ff00ff;stroke-linejoin:miter;stroke-width:1.5;" x="259.077103" xlink:href="#m26448a05f4" y="30.334099"/>
     <use style="fill-opacity:0;stroke:#ff00ff;stroke-linejoin:miter;stroke-width:1.5;" x="338.688" xlink:href="#m26448a05f4" y="30.334099"/>
    </g>
   </g>
   <g id="line2d_37">
    <path style="fill:none;stroke:#ff00ff;stroke-linecap:square;stroke-width:1.5;"/>
    <g/>
   </g>
   <g id="line2d_38">
    <path clip-path="url(#p236528f242)" d="M 204.21474 227.751457 
" style="fill:none;stroke:#ff00ff;stroke-linecap:square;stroke-width:1.5;"/>
    <defs>
     <path d="M -12 12 
L 12 -12 
M -12 -12 
L 12 12 
" id="m86ccc8079b" style="stroke:#ff00ff;"/>
    </defs>
    <g clip-path="url(#p236528f242)">
     <use style="fill:#ff00ff;stroke:#ff00ff;" x="204.21474" xlink:href="#m86ccc8079b" y="227.751457"/>
    </g>
   </g>
   <g id="line2d_39">
    <defs>
     <path d="M 0 1.5 
C 0.397805 1.5 0.77937 1.341951 1.06066 1.06066 
C 1.341951 0.77937 1.5 0.397805 1.5 0 
C 1.5 -0.397805 1.341951 -0.77937 1.06066 -1.06066 
C 0.77937 -1.341951 0.397805 -1.5 0 -1.5 
C -0.397805 -1.5 -0.77937 -1.341951 -1.06066 -1.06066 
C -1.341951 -0.77937 -1.5 -0.397805 -1.5 0 
C -1.5 0.397805 -1.341951 0.77937 -1.06066 1.06066 
C -0.77937 1.341951 -0.397805 1.5 0 1.5 
z
" id="mca6b54144e" style="stroke:#ff7500;"/>
    </defs>
    <g>
     <use style="fill:#ff7500;stroke:#ff7500;" x="234.596362" xlink:href="#mca6b54144e" y="30.334099"/>
     <use style="fill:#ff7500;stroke:#ff7500;" x="234.596362" xlink:href="#mca6b54144e" y="30.334099"/>
    </g>
   </g>
   <g id="line2d_40">
    <path d="M 122.076131 298.944 
L 122.076131 298.507236 
L 123.327293 298.507236 
L 123.327293 297.633708 
L 124.114161 297.633708 
L 124.114161 297.196944 
L 131.355321 297.196944 
L 131.355321 296.76018 
L 132.581068 296.76018 
L 132.581068 296.323416 
L 135.943785 296.323416 
L 135.943785 295.886652 
L 136.393441 295.886652 
L 136.393441 294.576359 
L 136.831795 294.576359 
L 136.831795 293.702831 
L 137.852629 293.702831 
L 137.852629 293.266067 
L 138.872098 293.266067 
L 138.872098 292.392539 
L 139.360321 292.392539 
L 139.360321 290.645483 
L 139.835248 290.645483 
L 139.835248 289.335191 
L 140.297583 289.335191 
L 140.297583 288.461662 
L 141.187031 288.461662 
L 141.187031 285.841078 
L 142.261275 285.841078 
L 142.261275 285.404314 
L 142.441528 285.404314 
L 142.441528 284.96755 
L 142.619936 284.96755 
L 142.619936 284.094022 
L 143.569835 284.094022 
L 143.653678 281.910201 
L 144.390658 281.910201 
L 144.390658 281.036673 
L 146.324022 281.036673 
L 146.324022 279.726381 
L 146.784375 279.726381 
L 146.784375 277.979325 
L 147.266916 277.979325 
L 147.266916 277.542561 
L 147.86833 277.542561 
L 147.86833 277.105797 
L 149.256637 277.105797 
L 149.256637 276.669033 
L 149.998846 276.669033 
L 149.998846 274.485212 
L 151.340991 274.485212 
L 151.340991 274.048448 
L 153.250915 274.048448 
L 153.250915 273.611684 
L 153.959927 273.611684 
L 153.959927 272.738156 
L 155.46769 272.738156 
L 155.46769 272.301392 
L 155.657823 272.301392 
L 155.657823 271.864628 
L 159.791329 271.864628 
L 159.791329 271.427864 
L 159.93989 271.427864 
L 159.93989 270.9911 
L 165.861646 270.9911 
L 165.861646 270.554336 
L 166.059491 270.554336 
L 166.117256 269.680808 
L 166.437252 269.680808 
L 166.437252 269.244043 
L 166.840232 269.244043 
L 166.840232 268.807279 
L 170.228776 268.807279 
L 170.328715 265.749931 
L 170.41006 265.749931 
L 170.41006 264.876403 
L 170.589478 264.876403 
L 170.669617 263.129347 
L 170.749391 263.129347 
L 170.828801 261.819054 
L 170.925369 261.819054 
L 171.003983 256.577886 
L 171.082245 256.577886 
L 171.160157 254.830829 
L 171.237722 254.830829 
L 171.237722 251.773481 
L 175.916053 251.773481 
L 175.916053 250.899953 
L 177.737676 250.899953 
L 177.737676 249.58966 
L 177.896886 249.58966 
L 177.949635 244.785256 
L 178.025547 244.785256 
L 178.025547 244.348492 
L 178.228297 244.348492 
L 178.228297 243.038199 
L 178.354545 243.038199 
L 178.354545 241.291143 
L 178.593054 241.291143 
L 178.593054 240.417615 
L 178.755855 240.417615 
L 178.817212 236.486738 
L 178.883902 236.486738 
L 178.933752 234.739682 
L 179.082454 234.739682 
L 179.180888 230.808806 
L 179.229898 230.808806 
L 179.338318 225.130873 
L 179.397663 225.130873 
L 179.505048 222.947052 
L 179.553156 222.947052 
L 179.648977 221.199996 
L 179.69669 221.199996 
L 179.791727 218.142648 
L 180.063405 218.142648 
L 180.063405 217.705884 
L 180.315593 217.705884 
L 180.315593 217.26912 
L 180.533936 217.26912 
L 180.533936 216.832355 
L 181.709515 216.832355 
L 181.709515 216.395591 
L 184.218294 216.395591 
L 184.328244 214.211771 
L 184.598127 214.211771 
L 184.642039 206.350018 
L 184.808696 206.350018 
L 184.808696 203.729433 
L 185.086853 203.729433 
L 185.086853 203.292669 
L 185.299317 203.292669 
L 185.341502 201.982377 
L 186.529615 201.982377 
L 186.601029 199.361793 
L 186.918822 199.361793 
L 186.918822 198.488265 
L 188.885568 198.488265 
L 188.941743 191.063276 
L 189.28727 191.063276 
L 189.38171 186.258871 
L 189.532962 186.258871 
L 189.560048 183.638286 
L 189.667976 183.638286 
L 189.766327 172.719185 
L 189.8523 172.719185 
L 189.8523 169.225072 
L 190.008338 169.225072 
L 190.0727 166.604488 
L 190.131006 166.604488 
L 190.131006 165.294196 
L 190.641517 165.294196 
L 190.70922 164.420667 
L 195.068485 164.420667 
L 195.068485 163.983903 
L 195.68461 163.983903 
L 195.68461 163.547139 
L 195.83425 163.547139 
L 195.83425 163.110375 
L 199.581576 163.110375 
L 199.679483 160.489791 
L 199.755069 160.489791 
L 199.848676 159.179499 
L 199.896954 159.179499 
L 199.896954 158.742735 
L 200.805515 158.742735 
L 200.805515 158.305971 
L 201.028174 158.305971 
L 201.028174 157.869206 
L 201.164746 157.869206 
L 201.164746 157.432442 
L 201.286446 157.432442 
L 201.286446 156.558914 
L 201.45298 156.558914 
L 201.512181 155.248622 
L 201.572692 155.248622 
L 201.572692 154.811858 
L 201.781351 154.811858 
L 201.781351 154.375094 
L 202.144621 154.375094 
L 202.226269 143.892756 
L 202.290155 143.892756 
L 202.32201 142.1457 
L 202.404274 142.1457 
L 202.478986 140.835408 
L 202.560514 140.835408 
L 202.576204 136.904531 
L 202.955564 136.904531 
L 202.955564 136.467767 
L 203.193874 136.467767 
L 203.266655 135.157475 
L 203.453392 135.157475 
L 203.453392 134.720711 
L 203.618016 134.720711 
L 203.618016 134.283947 
L 203.883252 134.283947 
L 203.883252 133.847183 
L 204.356923 133.847183 
L 204.453206 124.675137 
L 204.490293 124.675137 
L 204.520926 121.181025 
L 204.906856 121.181025 
L 205.002639 117.250148 
L 205.019998 117.250148 
L 205.110232 115.503092 
L 205.14841 115.503092 
L 205.224516 114.1928 
L 205.380595 114.1928 
L 205.380595 112.445744 
L 206.21492 112.445744 
L 206.21492 112.008979 
L 206.357828 112.008979 
L 206.357828 111.572215 
L 206.818825 111.572215 
L 206.818825 111.135451 
L 207.587469 111.135451 
L 207.587469 110.261923 
L 207.840201 110.261923 
L 207.840201 109.388395 
L 208.444242 109.388395 
L 208.444242 108.951631 
L 209.737286 108.951631 
L 209.798641 107.204575 
L 209.917899 107.204575 
L 210.011232 101.526642 
L 210.031698 101.526642 
L 210.117026 96.285473 
L 210.201938 96.285473 
L 210.258929 90.170776 
L 210.81616 90.170776 
L 210.81616 89.734012 
L 211.401748 89.734012 
L 211.476365 88.42372 
L 211.539582 88.42372 
L 211.558332 87.550192 
L 211.674642 87.550192 
L 211.674642 87.113428 
L 212.14299 87.113428 
L 212.14299 86.676664 
L 212.358298 86.676664 
L 212.358298 86.2399 
L 212.479917 86.2399 
L 212.558115 84.929607 
L 212.611923 84.929607 
L 212.722233 84.056079 
L 212.730996 84.056079 
L 212.751691 83.182551 
L 212.880085 83.182551 
L 212.930549 82.309023 
L 213.32832 82.309023 
L 213.406643 80.561967 
L 213.45026 80.561967 
L 213.541729 79.251674 
L 213.841712 79.251674 
L 213.841712 78.81491 
L 213.971998 78.81491 
L 214.052658 77.504618 
L 214.174054 77.504618 
L 214.250867 76.194326 
L 214.454787 76.194326 
L 214.550479 72.700213 
L 214.642794 72.700213 
L 214.643508 71.826685 
L 214.826677 71.826685 
L 214.877453 70.516393 
L 215.165885 70.516393 
L 215.184576 69.642865 
L 215.471418 69.642865 
L 215.471418 69.206101 
L 215.813118 69.206101 
L 215.86909 67.895809 
L 215.93085 67.895809 
L 215.995034 67.022281 
L 216.477065 67.022281 
L 216.577004 64.401696 
L 216.696687 64.401696 
L 216.768863 63.091404 
L 217.055858 63.091404 
L 217.124089 62.217876 
L 217.499511 62.217876 
L 217.499511 61.344348 
L 217.616057 61.344348 
L 217.712089 60.034056 
L 217.747367 60.034056 
L 217.747367 59.597291 
L 217.937475 59.597291 
L 217.937475 59.160527 
L 218.220552 59.160527 
L 218.325459 57.850235 
L 218.341632 57.850235 
L 218.426868 56.976707 
L 218.467037 56.976707 
L 218.552804 56.103179 
L 218.587563 56.103179 
L 218.614865 55.229651 
L 218.717999 55.229651 
L 218.717999 54.792887 
L 218.97097 54.792887 
L 218.980991 53.919359 
L 219.380432 53.919359 
L 219.380432 53.482595 
L 219.748041 53.482595 
L 219.792191 52.609066 
L 220.809551 52.609066 
L 220.86459 51.735538 
L 220.988044 51.735538 
L 221.018771 50.425246 
L 221.111615 50.425246 
L 221.111615 49.988482 
L 221.231871 49.988482 
L 221.231871 49.551718 
L 221.771768 49.551718 
L 221.877676 47.367898 
L 222.048882 47.367898 
L 222.048882 46.931134 
L 222.188816 46.931134 
L 222.224895 46.057605 
L 222.682308 46.057605 
L 222.682308 45.620841 
L 223.48071 45.620841 
L 223.518935 44.747313 
L 223.736804 44.747313 
L 223.780814 43.437021 
L 224.075425 43.437021 
L 224.142202 42.563493 
L 224.363916 42.563493 
L 224.405557 41.253201 
L 224.501525 41.253201 
L 224.501525 40.816437 
L 224.826947 40.816437 
L 224.826947 40.379673 
L 224.988592 40.379673 
L 224.988592 39.942908 
L 225.397443 39.942908 
L 225.462807 39.06938 
L 225.509183 39.06938 
L 225.509183 38.632616 
L 225.873189 38.632616 
L 225.873189 38.195852 
L 226.079631 38.195852 
L 226.142123 37.322324 
L 226.241868 37.322324 
L 226.301589 36.448796 
L 226.899475 36.448796 
L 226.899475 36.012032 
L 227.243481 36.012032 
L 227.271873 35.138504 
L 228.11206 35.138504 
L 228.11206 34.70174 
L 228.259466 34.70174 
L 228.259466 34.264976 
L 228.528394 34.264976 
L 228.528394 33.828212 
L 229.321003 33.828212 
L 229.321003 33.391447 
L 229.818622 33.391447 
L 229.818622 32.954683 
L 231.421851 32.954683 
L 231.472499 32.081155 
L 231.612511 32.081155 
L 231.612511 31.644391 
L 232.342297 31.644391 
L 232.342297 31.207627 
L 233.123835 31.207627 
L 233.123835 30.770863 
L 234.596362 30.770863 
L 234.596362 30.334099 
L 338.688 30.334099 
L 338.688 30.334099 
" style="fill:none;stroke:#ff7500;stroke-linecap:square;stroke-width:1.5;"/>
   </g>
   <g id="line2d_41">
    <defs>
     <path d="M 0 -6 
L -1.347084 -1.854102 
L -5.706339 -1.854102 
L -2.179628 0.708204 
L -3.526712 4.854102 
L -0 2.291796 
L 3.526712 4.854102 
L 2.179628 0.708204 
L 5.706339 -1.854102 
L 1.347084 -1.854102 
z
" id="m9a6c87903d" style="stroke:#ff7500;stroke-linejoin:bevel;stroke-width:1.5;"/>
    </defs>
    <g>
     <use style="fill-opacity:0;stroke:#ff7500;stroke-linejoin:bevel;stroke-width:1.5;" x="170.925369" xlink:href="#m9a6c87903d" y="257.888178"/>
     <use style="fill-opacity:0;stroke:#ff7500;stroke-linejoin:bevel;stroke-width:1.5;" x="211.476365" xlink:href="#m9a6c87903d" y="88.42372"/>
     <use style="fill-opacity:0;stroke:#ff7500;stroke-linejoin:bevel;stroke-width:1.5;" x="234.596362" xlink:href="#m9a6c87903d" y="30.770863"/>
     <use style="fill-opacity:0;stroke:#ff7500;stroke-linejoin:bevel;stroke-width:1.5;" x="234.596362" xlink:href="#m9a6c87903d" y="30.334099"/>
     <use style="fill-opacity:0;stroke:#ff7500;stroke-linejoin:bevel;stroke-width:1.5;" x="338.688" xlink:href="#m9a6c87903d" y="30.334099"/>
    </g>
   </g>
   <g id="line2d_42">
    <path style="fill:none;stroke:#ff7500;stroke-linecap:square;stroke-width:1.5;"/>
    <g/>
   </g>
   <g id="line2d_43">
    <path clip-path="url(#p236528f242)" d="M 200.254029 158.742735 
" style="fill:none;stroke:#ff7500;stroke-linecap:square;stroke-width:1.5;"/>
    <defs>
     <path d="M -12 12 
L 12 -12 
M -12 -12 
L 12 12 
" id="mdc288d8947" style="stroke:#ff7500;"/>
    </defs>
    <g clip-path="url(#p236528f242)">
     <use style="fill:#ff7500;stroke:#ff7500;" x="200.254029" xlink:href="#mdc288d8947" y="158.742735"/>
    </g>
   </g>
   <g id="line2d_44">
    <path d="M 338.688 30.334099 
L 369.60768 293.571802 
" style="fill:none;stroke:#ff00ff;stroke-linecap:square;stroke-width:1.5;"/>
    <g>
     <use style="fill-opacity:0;stroke:#ff00ff;stroke-linejoin:miter;stroke-width:1.5;" x="338.688" xlink:href="#m26448a05f4" y="30.334099"/>
     <use style="fill-opacity:0;stroke:#ff00ff;stroke-linejoin:miter;stroke-width:1.5;" x="369.60768" xlink:href="#m26448a05f4" y="293.571802"/>
    </g>
   </g>
   <g id="line2d_45">
    <path d="M 338.688 30.334099 
L 369.60768 164.63905 
" style="fill:none;stroke:#000080;stroke-linecap:square;stroke-width:1.5;"/>
    <g>
     <use style="fill-opacity:0;stroke:#000080;stroke-width:1.5;" x="338.688" xlink:href="#mc5ad729f08" y="30.334099"/>
     <use style="fill-opacity:0;stroke:#000080;stroke-width:1.5;" x="369.60768" xlink:href="#mc5ad729f08" y="164.63905"/>
    </g>
   </g>
   <g id="line2d_46">
    <path d="M 338.688 30.334099 
L 369.60768 35.706297 
" style="fill:none;stroke:#ff7500;stroke-linecap:square;stroke-width:1.5;"/>
    <g>
     <use style="fill-opacity:0;stroke:#ff7500;stroke-linejoin:bevel;stroke-width:1.5;" x="338.688" xlink:href="#m9a6c87903d" y="30.334099"/>
     <use style="fill-opacity:0;stroke:#ff7500;stroke-linejoin:bevel;stroke-width:1.5;" x="369.60768" xlink:href="#m9a6c87903d" y="35.706297"/>
    </g>
   </g>
   <g id="line2d_47">
    <path d="M 338.688 298.944 
L 338.688 30.334099 
" style="fill:none;stroke:#000000;stroke-linecap:square;stroke-width:1.5;"/>
   </g>
   <g id="patch_3">
    <path d="M 57.6 298.944 
L 57.6 27.648 
" style="fill:none;stroke:#000000;stroke-linecap:square;stroke-linejoin:miter;stroke-width:0.8;"/>
   </g>
   <g id="patch_4">
    <path d="M 338.688 298.944 
L 338.688 27.648 
" style="fill:none;stroke:#000000;stroke-linecap:square;stroke-linejoin:miter;stroke-width:0.8;"/>
   </g>
   <g id="patch_5">
    <path d="M 57.6 298.944 
L 338.688 298.944 
" style="fill:none;stroke:#000000;stroke-linecap:square;stroke-linejoin:miter;stroke-width:0.8;"/>
   </g>
   <g id="patch_6">
    <path d="M 57.6 27.648 
L 338.688 27.648 
" style="fill:none;stroke:#000000;stroke-linecap:square;stroke-linejoin:miter;stroke-width:0.8;"/>
   </g>
   <g id="text_13">
    <!-- fmincon -->
    <g transform="translate(375.22944 298.262739)scale(0.17 -0.17)">
     <use xlink:href="#DejaVuSans-102"/>
     <use x="35.205078" xlink:href="#DejaVuSans-109"/>
     <use x="132.617188" xlink:href="#DejaVuSans-105"/>
     <use x="160.400391" xlink:href="#DejaVuSans-110"/>
     <use x="223.779297" xlink:href="#DejaVuSans-99"/>
     <use x="278.759766" xlink:href="#DejaVuSans-111"/>
     <use x="339.941406" xlink:href="#DejaVuSans-110"/>
    </g>
   </g>
   <g id="text_14">
    <!-- cobyla -->
    <g transform="translate(375.22944 169.329987)scale(0.17 -0.17)">
     <defs>
      <path d="M 48.6875 27.296875 
Q 48.6875 37.203125 44.609375 42.84375 
Q 40.53125 48.484375 33.40625 48.484375 
Q 26.265625 48.484375 22.1875 42.84375 
Q 18.109375 37.203125 18.109375 27.296875 
Q 18.109375 17.390625 22.1875 11.75 
Q 26.265625 6.109375 33.40625 6.109375 
Q 40.53125 6.109375 44.609375 11.75 
Q 48.6875 17.390625 48.6875 27.296875 
z
M 18.109375 46.390625 
Q 20.953125 51.265625 25.265625 53.625 
Q 29.59375 56 35.59375 56 
Q 45.5625 56 51.78125 48.09375 
Q 58.015625 40.1875 58.015625 27.296875 
Q 58.015625 14.40625 51.78125 6.484375 
Q 45.5625 -1.421875 35.59375 -1.421875 
Q 29.59375 -1.421875 25.265625 0.953125 
Q 20.953125 3.328125 18.109375 8.203125 
L 18.109375 0 
L 9.078125 0 
L 9.078125 75.984375 
L 18.109375 75.984375 
z
" id="DejaVuSans-98"/>
      <path d="M 32.171875 -5.078125 
Q 28.375 -14.84375 24.75 -17.8125 
Q 21.140625 -20.796875 15.09375 -20.796875 
L 7.90625 -20.796875 
L 7.90625 -13.28125 
L 13.1875 -13.28125 
Q 16.890625 -13.28125 18.9375 -11.515625 
Q 21 -9.765625 23.484375 -3.21875 
L 25.09375 0.875 
L 2.984375 54.6875 
L 12.5 54.6875 
L 29.59375 11.921875 
L 46.6875 54.6875 
L 56.203125 54.6875 
z
" id="DejaVuSans-121"/>
     </defs>
     <use xlink:href="#DejaVuSans-99"/>
     <use x="54.980469" xlink:href="#DejaVuSans-111"/>
     <use x="116.162109" xlink:href="#DejaVuSans-98"/>
     <use x="179.638672" xlink:href="#DejaVuSans-121"/>
     <use x="238.818359" xlink:href="#DejaVuSans-108"/>
     <use x="266.601562" xlink:href="#DejaVuSans-97"/>
    </g>
   </g>
   <g id="text_15">
    <!-- slsqp -->
    <g transform="translate(375.22944 40.397235)scale(0.17 -0.17)">
     <defs>
      <path d="M 14.796875 27.296875 
Q 14.796875 17.390625 18.875 11.75 
Q 22.953125 6.109375 30.078125 6.109375 
Q 37.203125 6.109375 41.296875 11.75 
Q 45.40625 17.390625 45.40625 27.296875 
Q 45.40625 37.203125 41.296875 42.84375 
Q 37.203125 48.484375 30.078125 48.484375 
Q 22.953125 48.484375 18.875 42.84375 
Q 14.796875 37.203125 14.796875 27.296875 
z
M 45.40625 8.203125 
Q 42.578125 3.328125 38.25 0.953125 
Q 33.9375 -1.421875 27.875 -1.421875 
Q 17.96875 -1.421875 11.734375 6.484375 
Q 5.515625 14.40625 5.515625 27.296875 
Q 5.515625 40.1875 11.734375 48.09375 
Q 17.96875 56 27.875 56 
Q 33.9375 56 38.25 53.625 
Q 42.578125 51.265625 45.40625 46.390625 
L 45.40625 54.6875 
L 54.390625 54.6875 
L 54.390625 -20.796875 
L 45.40625 -20.796875 
z
" id="DejaVuSans-113"/>
     </defs>
     <use xlink:href="#DejaVuSans-115"/>
     <use x="52.099609" xlink:href="#DejaVuSans-108"/>
     <use x="79.882812" xlink:href="#DejaVuSans-115"/>
     <use x="131.982422" xlink:href="#DejaVuSans-113"/>
     <use x="195.458984" xlink:href="#DejaVuSans-112"/>
    </g>
   </g>
   <g id="text_16">
    <!-- bbob-constrained f43, 3-D -->
    <g transform="translate(60.41088 38.111366)scale(0.102 -0.102)">
     <defs>
      <path d="M 40.578125 39.3125 
Q 47.65625 37.796875 51.625 33 
Q 55.609375 28.21875 55.609375 21.1875 
Q 55.609375 10.40625 48.1875 4.484375 
Q 40.765625 -1.421875 27.09375 -1.421875 
Q 22.515625 -1.421875 17.65625 -0.515625 
Q 12.796875 0.390625 7.625 2.203125 
L 7.625 11.71875 
Q 11.71875 9.328125 16.59375 8.109375 
Q 21.484375 6.890625 26.8125 6.890625 
Q 36.078125 6.890625 40.9375 10.546875 
Q 45.796875 14.203125 45.796875 21.1875 
Q 45.796875 27.640625 41.28125 31.265625 
Q 36.765625 34.90625 28.71875 34.90625 
L 20.21875 34.90625 
L 20.21875 43.015625 
L 29.109375 43.015625 
Q 36.375 43.015625 40.234375 45.921875 
Q 44.09375 48.828125 44.09375 54.296875 
Q 44.09375 59.90625 40.109375 62.90625 
Q 36.140625 65.921875 28.71875 65.921875 
Q 24.65625 65.921875 20.015625 65.03125 
Q 15.375 64.15625 9.8125 62.3125 
L 9.8125 71.09375 
Q 15.4375 72.65625 20.34375 73.4375 
Q 25.25 74.21875 29.59375 74.21875 
Q 40.828125 74.21875 47.359375 69.109375 
Q 53.90625 64.015625 53.90625 55.328125 
Q 53.90625 49.265625 50.4375 45.09375 
Q 46.96875 40.921875 40.578125 39.3125 
z
" id="DejaVuSans-51"/>
      <path d="M 19.671875 64.796875 
L 19.671875 8.109375 
L 31.59375 8.109375 
Q 46.6875 8.109375 53.6875 14.9375 
Q 60.6875 21.78125 60.6875 36.53125 
Q 60.6875 51.171875 53.6875 57.984375 
Q 46.6875 64.796875 31.59375 64.796875 
z
M 9.8125 72.90625 
L 30.078125 72.90625 
Q 51.265625 72.90625 61.171875 64.09375 
Q 71.09375 55.28125 71.09375 36.53125 
Q 71.09375 17.671875 61.125 8.828125 
Q 51.171875 0 30.078125 0 
L 9.8125 0 
z
" id="DejaVuSans-68"/>
     </defs>
     <use xlink:href="#DejaVuSans-98"/>
     <use x="63.476562" xlink:href="#DejaVuSans-98"/>
     <use x="126.953125" xlink:href="#DejaVuSans-111"/>
     <use x="188.134766" xlink:href="#DejaVuSans-98"/>
     <use x="251.611328" xlink:href="#DejaVuSans-45"/>
     <use x="287.695312" xlink:href="#DejaVuSans-99"/>
     <use x="342.675781" xlink:href="#DejaVuSans-111"/>
     <use x="403.857422" xlink:href="#DejaVuSans-110"/>
     <use x="467.236328" xlink:href="#DejaVuSans-115"/>
     <use x="519.335938" xlink:href="#DejaVuSans-116"/>
     <use x="558.544922" xlink:href="#DejaVuSans-114"/>
     <use x="599.658203" xlink:href="#DejaVuSans-97"/>
     <use x="660.9375" xlink:href="#DejaVuSans-105"/>
     <use x="688.720703" xlink:href="#DejaVuSans-110"/>
     <use x="752.099609" xlink:href="#DejaVuSans-101"/>
     <use x="813.623047" xlink:href="#DejaVuSans-100"/>
     <use x="877.099609" xlink:href="#DejaVuSans-32"/>
     <use x="908.886719" xlink:href="#DejaVuSans-102"/>
     <use x="944.091797" xlink:href="#DejaVuSans-52"/>
     <use x="1007.714844" xlink:href="#DejaVuSans-51"/>
     <use x="1071.337891" xlink:href="#DejaVuSans-44"/>
     <use x="1103.125" xlink:href="#DejaVuSans-32"/>
     <use x="1134.912109" xlink:href="#DejaVuSans-51"/>
     <use x="1198.535156" xlink:href="#DejaVuSans-45"/>
     <use x="1234.619141" xlink:href="#DejaVuSans-68"/>
    </g>
    <!-- 41 targets: 100..1e-06 -->
    <g transform="translate(60.41088 49.533135)scale(0.102 -0.102)">
     <defs>
      <path d="M 11.71875 12.40625 
L 22.015625 12.40625 
L 22.015625 0 
L 11.71875 0 
z
M 11.71875 51.703125 
L 22.015625 51.703125 
L 22.015625 39.3125 
L 11.71875 39.3125 
z
" id="DejaVuSans-58"/>
     </defs>
     <use xlink:href="#DejaVuSans-52"/>
     <use x="63.623047" xlink:href="#DejaVuSans-49"/>
     <use x="127.246094" xlink:href="#DejaVuSans-32"/>
     <use x="159.033203" xlink:href="#DejaVuSans-116"/>
     <use x="198.242188" xlink:href="#DejaVuSans-97"/>
     <use x="259.521484" xlink:href="#DejaVuSans-114"/>
     <use x="298.884766" xlink:href="#DejaVuSans-103"/>
     <use x="362.361328" xlink:href="#DejaVuSans-101"/>
     <use x="423.884766" xlink:href="#DejaVuSans-116"/>
     <use x="463.09375" xlink:href="#DejaVuSans-115"/>
     <use x="515.193359" xlink:href="#DejaVuSans-58"/>
     <use x="548.884766" xlink:href="#DejaVuSans-32"/>
     <use x="580.671875" xlink:href="#DejaVuSans-49"/>
     <use x="644.294922" xlink:href="#DejaVuSans-48"/>
     <use x="707.917969" xlink:href="#DejaVuSans-48"/>
     <use x="771.541016" xlink:href="#DejaVuSans-46"/>
     <use x="803.328125" xlink:href="#DejaVuSans-46"/>
     <use x="835.115234" xlink:href="#DejaVuSans-49"/>
     <use x="898.738281" xlink:href="#DejaVuSans-101"/>
     <use x="960.261719" xlink:href="#DejaVuSans-45"/>
     <use x="996.345703" xlink:href="#DejaVuSans-48"/>
     <use x="1059.96875" xlink:href="#DejaVuSans-54"/>
    </g>
    <!-- 15 instances -->
    <g transform="translate(60.41088 60.954904)scale(0.102 -0.102)">
     <defs>
      <path d="M 10.796875 72.90625 
L 49.515625 72.90625 
L 49.515625 64.59375 
L 19.828125 64.59375 
L 19.828125 46.734375 
Q 21.96875 47.46875 24.109375 47.828125 
Q 26.265625 48.1875 28.421875 48.1875 
Q 40.625 48.1875 47.75 41.5 
Q 54.890625 34.8125 54.890625 23.390625 
Q 54.890625 11.625 47.5625 5.09375 
Q 40.234375 -1.421875 26.90625 -1.421875 
Q 22.3125 -1.421875 17.546875 -0.640625 
Q 12.796875 0.140625 7.71875 1.703125 
L 7.71875 11.625 
Q 12.109375 9.234375 16.796875 8.0625 
Q 21.484375 6.890625 26.703125 6.890625 
Q 35.15625 6.890625 40.078125 11.328125 
Q 45.015625 15.765625 45.015625 23.390625 
Q 45.015625 31 40.078125 35.4375 
Q 35.15625 39.890625 26.703125 39.890625 
Q 22.75 39.890625 18.8125 39.015625 
Q 14.890625 38.140625 10.796875 36.28125 
z
" id="DejaVuSans-53"/>
     </defs>
     <use xlink:href="#DejaVuSans-49"/>
     <use x="63.623047" xlink:href="#DejaVuSans-53"/>
     <use x="127.246094" xlink:href="#DejaVuSans-32"/>
     <use x="159.033203" xlink:href="#DejaVuSans-105"/>
     <use x="186.816406" xlink:href="#DejaVuSans-110"/>
     <use x="250.195312" xlink:href="#DejaVuSans-115"/>
     <use x="302.294922" xlink:href="#DejaVuSans-116"/>
     <use x="341.503906" xlink:href="#DejaVuSans-97"/>
     <use x="402.783203" xlink:href="#DejaVuSans-110"/>
     <use x="466.162109" xlink:href="#DejaVuSans-99"/>
     <use x="521.142578" xlink:href="#DejaVuSans-101"/>
     <use x="582.666016" xlink:href="#DejaVuSans-115"/>
    </g>
   </g>
   <g id="text_17">
    <!-- v2.4.82 -->
    <g style="fill:#808080;" transform="translate(179.2815 294.151352)scale(0.1 -0.1)">
     <use xlink:href="#DejaVuSans-118"/>
     <use x="59.179688" xlink:href="#DejaVuSans-50"/>
     <use x="122.802734" xlink:href="#DejaVuSans-46"/>
     <use x="154.589844" xlink:href="#DejaVuSans-52"/>
     <use x="218.212891" xlink:href="#DejaVuSans-46"/>
     <use x="250" xlink:href="#DejaVuSans-56"/>
     <use x="313.623047" xlink:href="#DejaVuSans-50"/>
    </g>
   </g>
   <g id="text_18">
    <!-- 43 Separable Rastrigin, m=1 -->
    <g transform="translate(53.392437 21.648)scale(0.2 -0.2)">
     <defs>
      <path d="M 53.515625 70.515625 
L 53.515625 60.890625 
Q 47.90625 63.578125 42.921875 64.890625 
Q 37.9375 66.21875 33.296875 66.21875 
Q 25.25 66.21875 20.875 63.09375 
Q 16.5 59.96875 16.5 54.203125 
Q 16.5 49.359375 19.40625 46.890625 
Q 22.3125 44.4375 30.421875 42.921875 
L 36.375 41.703125 
Q 47.40625 39.59375 52.65625 34.296875 
Q 57.90625 29 57.90625 20.125 
Q 57.90625 9.515625 50.796875 4.046875 
Q 43.703125 -1.421875 29.984375 -1.421875 
Q 24.8125 -1.421875 18.96875 -0.25 
Q 13.140625 0.921875 6.890625 3.21875 
L 6.890625 13.375 
Q 12.890625 10.015625 18.65625 8.296875 
Q 24.421875 6.59375 29.984375 6.59375 
Q 38.421875 6.59375 43.015625 9.90625 
Q 47.609375 13.234375 47.609375 19.390625 
Q 47.609375 24.75 44.3125 27.78125 
Q 41.015625 30.8125 33.5 32.328125 
L 27.484375 33.5 
Q 16.453125 35.6875 11.515625 40.375 
Q 6.59375 45.0625 6.59375 53.421875 
Q 6.59375 63.09375 13.40625 68.65625 
Q 20.21875 74.21875 32.171875 74.21875 
Q 37.3125 74.21875 42.625 73.28125 
Q 47.953125 72.359375 53.515625 70.515625 
z
" id="DejaVuSans-83"/>
      <path d="M 44.390625 34.1875 
Q 47.5625 33.109375 50.5625 29.59375 
Q 53.5625 26.078125 56.59375 19.921875 
L 66.609375 0 
L 56 0 
L 46.6875 18.703125 
Q 43.0625 26.03125 39.671875 28.421875 
Q 36.28125 30.8125 30.421875 30.8125 
L 19.671875 30.8125 
L 19.671875 0 
L 9.8125 0 
L 9.8125 72.90625 
L 32.078125 72.90625 
Q 44.578125 72.90625 50.734375 67.671875 
Q 56.890625 62.453125 56.890625 51.90625 
Q 56.890625 45.015625 53.6875 40.46875 
Q 50.484375 35.9375 44.390625 34.1875 
z
M 19.671875 64.796875 
L 19.671875 38.921875 
L 32.078125 38.921875 
Q 39.203125 38.921875 42.84375 42.21875 
Q 46.484375 45.515625 46.484375 51.90625 
Q 46.484375 58.296875 42.84375 61.546875 
Q 39.203125 64.796875 32.078125 64.796875 
z
" id="DejaVuSans-82"/>
      <path d="M 10.59375 45.40625 
L 73.1875 45.40625 
L 73.1875 37.203125 
L 10.59375 37.203125 
z
M 10.59375 25.484375 
L 73.1875 25.484375 
L 73.1875 17.1875 
L 10.59375 17.1875 
z
" id="DejaVuSans-61"/>
     </defs>
     <use xlink:href="#DejaVuSans-52"/>
     <use x="63.623047" xlink:href="#DejaVuSans-51"/>
     <use x="127.246094" xlink:href="#DejaVuSans-32"/>
     <use x="159.033203" xlink:href="#DejaVuSans-83"/>
     <use x="222.509766" xlink:href="#DejaVuSans-101"/>
     <use x="284.033203" xlink:href="#DejaVuSans-112"/>
     <use x="347.509766" xlink:href="#DejaVuSans-97"/>
     <use x="408.789062" xlink:href="#DejaVuSans-114"/>
     <use x="449.902344" xlink:href="#DejaVuSans-97"/>
     <use x="511.181641" xlink:href="#DejaVuSans-98"/>
     <use x="574.658203" xlink:href="#DejaVuSans-108"/>
     <use x="602.441406" xlink:href="#DejaVuSans-101"/>
     <use x="663.964844" xlink:href="#DejaVuSans-32"/>
     <use x="695.751953" xlink:href="#DejaVuSans-82"/>
     <use x="762.984375" xlink:href="#DejaVuSans-97"/>
     <use x="824.263672" xlink:href="#DejaVuSans-115"/>
     <use x="876.363281" xlink:href="#DejaVuSans-116"/>
     <use x="915.572266" xlink:href="#DejaVuSans-114"/>
     <use x="956.685547" xlink:href="#DejaVuSans-105"/>
     <use x="984.46875" xlink:href="#DejaVuSans-103"/>
     <use x="1047.945312" xlink:href="#DejaVuSans-105"/>
     <use x="1075.728516" xlink:href="#DejaVuSans-110"/>
     <use x="1139.107422" xlink:href="#DejaVuSans-44"/>
     <use x="1170.894531" xlink:href="#DejaVuSans-32"/>
     <use x="1202.681641" xlink:href="#DejaVuSans-109"/>
     <use x="1300.09375" xlink:href="#DejaVuSans-61"/>
     <use x="1383.882812" xlink:href="#DejaVuSans-49"/>
    </g>
   </g>
  </g>
 </g>
 <defs>
  <clipPath id="p236528f242">
   <rect height="271.296" width="281.088" x="57.6" y="27.648"/>
  </clipPath>
 </defs>
</svg>
