<?xml version="1.0" encoding="utf-8" standalone="no"?>
<!DOCTYPE svg PUBLIC "-//W3C//DTD SVG 1.1//EN"
  "http://www.w3.org/Graphics/SVG/1.1/DTD/svg11.dtd">
<!-- Created with matplotlib (https://matplotlib.org/) -->
<svg height="345.6pt" version="1.1" viewBox="0 0 460.8 345.6" width="460.8pt" xmlns="http://www.w3.org/2000/svg" xmlns:xlink="http://www.w3.org/1999/xlink">
 <metadata>
  <rdf:RDF xmlns:cc="http://creativecommons.org/ns#" xmlns:dc="http://purl.org/dc/elements/1.1/" xmlns:rdf="http://www.w3.org/1999/02/22-rdf-syntax-ns#">
   <cc:Work>
    <dc:type rdf:resource="http://purl.org/dc/dcmitype/StillImage"/>
    <dc:date>2022-01-12T20:22:21.077795</dc:date>
    <dc:format>image/svg+xml</dc:format>
    <dc:creator>
     <cc:Agent>
      <dc:title>Matplotlib v3.3.3, https://matplotlib.org/</dc:title>
     </cc:Agent>
    </dc:creator>
   </cc:Work>
  </rdf:RDF>
 </metadata>
 <defs>
  <style type="text/css">*{stroke-linecap:butt;stroke-linejoin:round;}</style>
 </defs>
 <g id="figure_1">
  <g id="patch_1">
   <path d="M 0 345.6 
L 460.8 345.6 
L 460.8 0 
L 0 0 
z
" style="fill:#ffffff;"/>
  </g>
  <g id="axes_1">
   <g id="patch_2">
    <path d="M 57.6 298.944 
L 338.688 298.944 
L 338.688 27.648 
L 57.6 27.648 
z
" style="fill:#ffffff;"/>
   </g>
   <g id="matplotlib.axis_1">
    <g id="xtick_1">
     <g id="line2d_1">
      <path clip-path="url(#pa9c0b11e2f)" d="M 57.6 298.944 
L 57.6 27.648 
" style="fill:none;stroke:#b0b0b0;stroke-linecap:square;stroke-width:0.8;"/>
     </g>
     <g id="line2d_2">
      <defs>
       <path d="M 0 0 
L 0 3.5 
" id="m4a82d02a89" style="stroke:#000000;stroke-width:0.8;"/>
      </defs>
      <g>
       <use style="stroke:#000000;stroke-width:0.8;" x="57.6" xlink:href="#m4a82d02a89" y="298.944"/>
      </g>
     </g>
     <g id="text_1">
      <!-- 0 -->
      <g transform="translate(51.2375 321.140875)scale(0.2 -0.2)">
       <defs>
        <path d="M 31.78125 66.40625 
Q 24.171875 66.40625 20.328125 58.90625 
Q 16.5 51.421875 16.5 36.375 
Q 16.5 21.390625 20.328125 13.890625 
Q 24.171875 6.390625 31.78125 6.390625 
Q 39.453125 6.390625 43.28125 13.890625 
Q 47.125 21.390625 47.125 36.375 
Q 47.125 51.421875 43.28125 58.90625 
Q 39.453125 66.40625 31.78125 66.40625 
z
M 31.78125 74.21875 
Q 44.046875 74.21875 50.515625 64.515625 
Q 56.984375 54.828125 56.984375 36.375 
Q 56.984375 17.96875 50.515625 8.265625 
Q 44.046875 -1.421875 31.78125 -1.421875 
Q 19.53125 -1.421875 13.0625 8.265625 
Q 6.59375 17.96875 6.59375 36.375 
Q 6.59375 54.828125 13.0625 64.515625 
Q 19.53125 74.21875 31.78125 74.21875 
z
" id="DejaVuSans-48"/>
       </defs>
       <use xlink:href="#DejaVuSans-48"/>
      </g>
     </g>
    </g>
    <g id="xtick_2">
     <g id="line2d_3">
      <path clip-path="url(#pa9c0b11e2f)" d="M 137.910857 298.944 
L 137.910857 27.648 
" style="fill:none;stroke:#b0b0b0;stroke-linecap:square;stroke-width:0.8;"/>
     </g>
     <g id="line2d_4">
      <g>
       <use style="stroke:#000000;stroke-width:0.8;" x="137.910857" xlink:href="#m4a82d02a89" y="298.944"/>
      </g>
     </g>
     <g id="text_2">
      <!-- 2 -->
      <g transform="translate(131.548357 321.140875)scale(0.2 -0.2)">
       <defs>
        <path d="M 19.1875 8.296875 
L 53.609375 8.296875 
L 53.609375 0 
L 7.328125 0 
L 7.328125 8.296875 
Q 12.9375 14.109375 22.625 23.890625 
Q 32.328125 33.6875 34.8125 36.53125 
Q 39.546875 41.84375 41.421875 45.53125 
Q 43.3125 49.21875 43.3125 52.78125 
Q 43.3125 58.59375 39.234375 62.25 
Q 35.15625 65.921875 28.609375 65.921875 
Q 23.96875 65.921875 18.8125 64.3125 
Q 13.671875 62.703125 7.8125 59.421875 
L 7.8125 69.390625 
Q 13.765625 71.78125 18.9375 73 
Q 24.125 74.21875 28.421875 74.21875 
Q 39.75 74.21875 46.484375 68.546875 
Q 53.21875 62.890625 53.21875 53.421875 
Q 53.21875 48.921875 51.53125 44.890625 
Q 49.859375 40.875 45.40625 35.40625 
Q 44.1875 33.984375 37.640625 27.21875 
Q 31.109375 20.453125 19.1875 8.296875 
z
" id="DejaVuSans-50"/>
       </defs>
       <use xlink:href="#DejaVuSans-50"/>
      </g>
     </g>
    </g>
    <g id="xtick_3">
     <g id="line2d_5">
      <path clip-path="url(#pa9c0b11e2f)" d="M 218.221714 298.944 
L 218.221714 27.648 
" style="fill:none;stroke:#b0b0b0;stroke-linecap:square;stroke-width:0.8;"/>
     </g>
     <g id="line2d_6">
      <g>
       <use style="stroke:#000000;stroke-width:0.8;" x="218.221714" xlink:href="#m4a82d02a89" y="298.944"/>
      </g>
     </g>
     <g id="text_3">
      <!-- 4 -->
      <g transform="translate(211.859214 321.140875)scale(0.2 -0.2)">
       <defs>
        <path d="M 37.796875 64.3125 
L 12.890625 25.390625 
L 37.796875 25.390625 
z
M 35.203125 72.90625 
L 47.609375 72.90625 
L 47.609375 25.390625 
L 58.015625 25.390625 
L 58.015625 17.1875 
L 47.609375 17.1875 
L 47.609375 0 
L 37.796875 0 
L 37.796875 17.1875 
L 4.890625 17.1875 
L 4.890625 26.703125 
z
" id="DejaVuSans-52"/>
       </defs>
       <use xlink:href="#DejaVuSans-52"/>
      </g>
     </g>
    </g>
    <g id="xtick_4">
     <g id="line2d_7">
      <path clip-path="url(#pa9c0b11e2f)" d="M 298.532571 298.944 
L 298.532571 27.648 
" style="fill:none;stroke:#b0b0b0;stroke-linecap:square;stroke-width:0.8;"/>
     </g>
     <g id="line2d_8">
      <g>
       <use style="stroke:#000000;stroke-width:0.8;" x="298.532571" xlink:href="#m4a82d02a89" y="298.944"/>
      </g>
     </g>
     <g id="text_4">
      <!-- 6 -->
      <g transform="translate(292.170071 321.140875)scale(0.2 -0.2)">
       <defs>
        <path d="M 33.015625 40.375 
Q 26.375 40.375 22.484375 35.828125 
Q 18.609375 31.296875 18.609375 23.390625 
Q 18.609375 15.53125 22.484375 10.953125 
Q 26.375 6.390625 33.015625 6.390625 
Q 39.65625 6.390625 43.53125 10.953125 
Q 47.40625 15.53125 47.40625 23.390625 
Q 47.40625 31.296875 43.53125 35.828125 
Q 39.65625 40.375 33.015625 40.375 
z
M 52.59375 71.296875 
L 52.59375 62.3125 
Q 48.875 64.0625 45.09375 64.984375 
Q 41.3125 65.921875 37.59375 65.921875 
Q 27.828125 65.921875 22.671875 59.328125 
Q 17.53125 52.734375 16.796875 39.40625 
Q 19.671875 43.65625 24.015625 45.921875 
Q 28.375 48.1875 33.59375 48.1875 
Q 44.578125 48.1875 50.953125 41.515625 
Q 57.328125 34.859375 57.328125 23.390625 
Q 57.328125 12.15625 50.6875 5.359375 
Q 44.046875 -1.421875 33.015625 -1.421875 
Q 20.359375 -1.421875 13.671875 8.265625 
Q 6.984375 17.96875 6.984375 36.375 
Q 6.984375 53.65625 15.1875 63.9375 
Q 23.390625 74.21875 37.203125 74.21875 
Q 40.921875 74.21875 44.703125 73.484375 
Q 48.484375 72.75 52.59375 71.296875 
z
" id="DejaVuSans-54"/>
       </defs>
       <use xlink:href="#DejaVuSans-54"/>
      </g>
     </g>
    </g>
    <g id="xtick_5">
     <g id="line2d_9">
      <path clip-path="url(#pa9c0b11e2f)" d="M 97.755429 298.944 
L 97.755429 27.648 
" style="fill:none;stroke:#b0b0b0;stroke-linecap:square;stroke-width:0.8;"/>
     </g>
     <g id="line2d_10">
      <defs>
       <path d="M 0 0 
L 0 2 
" id="mb55439b5ee" style="stroke:#000000;stroke-width:0.6;"/>
      </defs>
      <g>
       <use style="stroke:#000000;stroke-width:0.6;" x="97.755429" xlink:href="#mb55439b5ee" y="298.944"/>
      </g>
     </g>
    </g>
    <g id="xtick_6">
     <g id="line2d_11">
      <path clip-path="url(#pa9c0b11e2f)" d="M 178.066286 298.944 
L 178.066286 27.648 
" style="fill:none;stroke:#b0b0b0;stroke-linecap:square;stroke-width:0.8;"/>
     </g>
     <g id="line2d_12">
      <g>
       <use style="stroke:#000000;stroke-width:0.6;" x="178.066286" xlink:href="#mb55439b5ee" y="298.944"/>
      </g>
     </g>
    </g>
    <g id="xtick_7">
     <g id="line2d_13">
      <path clip-path="url(#pa9c0b11e2f)" d="M 258.377143 298.944 
L 258.377143 27.648 
" style="fill:none;stroke:#b0b0b0;stroke-linecap:square;stroke-width:0.8;"/>
     </g>
     <g id="line2d_14">
      <g>
       <use style="stroke:#000000;stroke-width:0.6;" x="258.377143" xlink:href="#mb55439b5ee" y="298.944"/>
      </g>
     </g>
    </g>
    <g id="xtick_8">
     <g id="line2d_15">
      <path clip-path="url(#pa9c0b11e2f)" d="M 338.688 298.944 
L 338.688 27.648 
" style="fill:none;stroke:#b0b0b0;stroke-linecap:square;stroke-width:0.8;"/>
     </g>
     <g id="line2d_16">
      <g>
       <use style="stroke:#000000;stroke-width:0.6;" x="338.688" xlink:href="#mb55439b5ee" y="298.944"/>
      </g>
     </g>
    </g>
    <g id="text_5">
     <!-- log10(# (f+g)-evals / dimension) -->
     <g transform="translate(58.145016 342.217594)scale(0.17 -0.17)">
      <defs>
       <path d="M 9.421875 75.984375 
L 18.40625 75.984375 
L 18.40625 0 
L 9.421875 0 
z
" id="DejaVuSans-108"/>
       <path d="M 30.609375 48.390625 
Q 23.390625 48.390625 19.1875 42.75 
Q 14.984375 37.109375 14.984375 27.296875 
Q 14.984375 17.484375 19.15625 11.84375 
Q 23.34375 6.203125 30.609375 6.203125 
Q 37.796875 6.203125 41.984375 11.859375 
Q 46.1875 17.53125 46.1875 27.296875 
Q 46.1875 37.015625 41.984375 42.703125 
Q 37.796875 48.390625 30.609375 48.390625 
z
M 30.609375 56 
Q 42.328125 56 49.015625 48.375 
Q 55.71875 40.765625 55.71875 27.296875 
Q 55.71875 13.875 49.015625 6.21875 
Q 42.328125 -1.421875 30.609375 -1.421875 
Q 18.84375 -1.421875 12.171875 6.21875 
Q 5.515625 13.875 5.515625 27.296875 
Q 5.515625 40.765625 12.171875 48.375 
Q 18.84375 56 30.609375 56 
z
" id="DejaVuSans-111"/>
       <path d="M 45.40625 27.984375 
Q 45.40625 37.75 41.375 43.109375 
Q 37.359375 48.484375 30.078125 48.484375 
Q 22.859375 48.484375 18.828125 43.109375 
Q 14.796875 37.75 14.796875 27.984375 
Q 14.796875 18.265625 18.828125 12.890625 
Q 22.859375 7.515625 30.078125 7.515625 
Q 37.359375 7.515625 41.375 12.890625 
Q 45.40625 18.265625 45.40625 27.984375 
z
M 54.390625 6.78125 
Q 54.390625 -7.171875 48.1875 -13.984375 
Q 42 -20.796875 29.203125 -20.796875 
Q 24.46875 -20.796875 20.265625 -20.09375 
Q 16.0625 -19.390625 12.109375 -17.921875 
L 12.109375 -9.1875 
Q 16.0625 -11.328125 19.921875 -12.34375 
Q 23.78125 -13.375 27.78125 -13.375 
Q 36.625 -13.375 41.015625 -8.765625 
Q 45.40625 -4.15625 45.40625 5.171875 
L 45.40625 9.625 
Q 42.625 4.78125 38.28125 2.390625 
Q 33.9375 0 27.875 0 
Q 17.828125 0 11.671875 7.65625 
Q 5.515625 15.328125 5.515625 27.984375 
Q 5.515625 40.671875 11.671875 48.328125 
Q 17.828125 56 27.875 56 
Q 33.9375 56 38.28125 53.609375 
Q 42.625 51.21875 45.40625 46.390625 
L 45.40625 54.6875 
L 54.390625 54.6875 
z
" id="DejaVuSans-103"/>
       <path d="M 12.40625 8.296875 
L 28.515625 8.296875 
L 28.515625 63.921875 
L 10.984375 60.40625 
L 10.984375 69.390625 
L 28.421875 72.90625 
L 38.28125 72.90625 
L 38.28125 8.296875 
L 54.390625 8.296875 
L 54.390625 0 
L 12.40625 0 
z
" id="DejaVuSans-49"/>
       <path d="M 31 75.875 
Q 24.46875 64.65625 21.28125 53.65625 
Q 18.109375 42.671875 18.109375 31.390625 
Q 18.109375 20.125 21.3125 9.0625 
Q 24.515625 -2 31 -13.1875 
L 23.1875 -13.1875 
Q 15.875 -1.703125 12.234375 9.375 
Q 8.59375 20.453125 8.59375 31.390625 
Q 8.59375 42.28125 12.203125 53.3125 
Q 15.828125 64.359375 23.1875 75.875 
z
" id="DejaVuSans-40"/>
       <path d="M 51.125 44 
L 36.921875 44 
L 32.8125 27.6875 
L 47.125 27.6875 
z
M 43.796875 71.78125 
L 38.71875 51.515625 
L 52.984375 51.515625 
L 58.109375 71.78125 
L 65.921875 71.78125 
L 60.890625 51.515625 
L 76.125 51.515625 
L 76.125 44 
L 58.984375 44 
L 54.984375 27.6875 
L 70.515625 27.6875 
L 70.515625 20.21875 
L 53.078125 20.21875 
L 48 0 
L 40.1875 0 
L 45.21875 20.21875 
L 30.90625 20.21875 
L 25.875 0 
L 18.015625 0 
L 23.09375 20.21875 
L 7.71875 20.21875 
L 7.71875 27.6875 
L 24.90625 27.6875 
L 29 44 
L 13.28125 44 
L 13.28125 51.515625 
L 30.90625 51.515625 
L 35.890625 71.78125 
z
" id="DejaVuSans-35"/>
       <path id="DejaVuSans-32"/>
       <path d="M 37.109375 75.984375 
L 37.109375 68.5 
L 28.515625 68.5 
Q 23.6875 68.5 21.796875 66.546875 
Q 19.921875 64.59375 19.921875 59.515625 
L 19.921875 54.6875 
L 34.71875 54.6875 
L 34.71875 47.703125 
L 19.921875 47.703125 
L 19.921875 0 
L 10.890625 0 
L 10.890625 47.703125 
L 2.296875 47.703125 
L 2.296875 54.6875 
L 10.890625 54.6875 
L 10.890625 58.5 
Q 10.890625 67.625 15.140625 71.796875 
Q 19.390625 75.984375 28.609375 75.984375 
z
" id="DejaVuSans-102"/>
       <path d="M 46 62.703125 
L 46 35.5 
L 73.1875 35.5 
L 73.1875 27.203125 
L 46 27.203125 
L 46 0 
L 37.796875 0 
L 37.796875 27.203125 
L 10.59375 27.203125 
L 10.59375 35.5 
L 37.796875 35.5 
L 37.796875 62.703125 
z
" id="DejaVuSans-43"/>
       <path d="M 8.015625 75.875 
L 15.828125 75.875 
Q 23.140625 64.359375 26.78125 53.3125 
Q 30.421875 42.28125 30.421875 31.390625 
Q 30.421875 20.453125 26.78125 9.375 
Q 23.140625 -1.703125 15.828125 -13.1875 
L 8.015625 -13.1875 
Q 14.5 -2 17.703125 9.0625 
Q 20.90625 20.125 20.90625 31.390625 
Q 20.90625 42.671875 17.703125 53.65625 
Q 14.5 64.65625 8.015625 75.875 
z
" id="DejaVuSans-41"/>
       <path d="M 4.890625 31.390625 
L 31.203125 31.390625 
L 31.203125 23.390625 
L 4.890625 23.390625 
z
" id="DejaVuSans-45"/>
       <path d="M 56.203125 29.59375 
L 56.203125 25.203125 
L 14.890625 25.203125 
Q 15.484375 15.921875 20.484375 11.0625 
Q 25.484375 6.203125 34.421875 6.203125 
Q 39.59375 6.203125 44.453125 7.46875 
Q 49.3125 8.734375 54.109375 11.28125 
L 54.109375 2.78125 
Q 49.265625 0.734375 44.1875 -0.34375 
Q 39.109375 -1.421875 33.890625 -1.421875 
Q 20.796875 -1.421875 13.15625 6.1875 
Q 5.515625 13.8125 5.515625 26.8125 
Q 5.515625 40.234375 12.765625 48.109375 
Q 20.015625 56 32.328125 56 
Q 43.359375 56 49.78125 48.890625 
Q 56.203125 41.796875 56.203125 29.59375 
z
M 47.21875 32.234375 
Q 47.125 39.59375 43.09375 43.984375 
Q 39.0625 48.390625 32.421875 48.390625 
Q 24.90625 48.390625 20.390625 44.140625 
Q 15.875 39.890625 15.1875 32.171875 
z
" id="DejaVuSans-101"/>
       <path d="M 2.984375 54.6875 
L 12.5 54.6875 
L 29.59375 8.796875 
L 46.6875 54.6875 
L 56.203125 54.6875 
L 35.6875 0 
L 23.484375 0 
z
" id="DejaVuSans-118"/>
       <path d="M 34.28125 27.484375 
Q 23.390625 27.484375 19.1875 25 
Q 14.984375 22.515625 14.984375 16.5 
Q 14.984375 11.71875 18.140625 8.90625 
Q 21.296875 6.109375 26.703125 6.109375 
Q 34.1875 6.109375 38.703125 11.40625 
Q 43.21875 16.703125 43.21875 25.484375 
L 43.21875 27.484375 
z
M 52.203125 31.203125 
L 52.203125 0 
L 43.21875 0 
L 43.21875 8.296875 
Q 40.140625 3.328125 35.546875 0.953125 
Q 30.953125 -1.421875 24.3125 -1.421875 
Q 15.921875 -1.421875 10.953125 3.296875 
Q 6 8.015625 6 15.921875 
Q 6 25.140625 12.171875 29.828125 
Q 18.359375 34.515625 30.609375 34.515625 
L 43.21875 34.515625 
L 43.21875 35.40625 
Q 43.21875 41.609375 39.140625 45 
Q 35.0625 48.390625 27.6875 48.390625 
Q 23 48.390625 18.546875 47.265625 
Q 14.109375 46.140625 10.015625 43.890625 
L 10.015625 52.203125 
Q 14.9375 54.109375 19.578125 55.046875 
Q 24.21875 56 28.609375 56 
Q 40.484375 56 46.34375 49.84375 
Q 52.203125 43.703125 52.203125 31.203125 
z
" id="DejaVuSans-97"/>
       <path d="M 44.28125 53.078125 
L 44.28125 44.578125 
Q 40.484375 46.53125 36.375 47.5 
Q 32.28125 48.484375 27.875 48.484375 
Q 21.1875 48.484375 17.84375 46.4375 
Q 14.5 44.390625 14.5 40.28125 
Q 14.5 37.15625 16.890625 35.375 
Q 19.28125 33.59375 26.515625 31.984375 
L 29.59375 31.296875 
Q 39.15625 29.25 43.1875 25.515625 
Q 47.21875 21.78125 47.21875 15.09375 
Q 47.21875 7.46875 41.1875 3.015625 
Q 35.15625 -1.421875 24.609375 -1.421875 
Q 20.21875 -1.421875 15.453125 -0.5625 
Q 10.6875 0.296875 5.421875 2 
L 5.421875 11.28125 
Q 10.40625 8.6875 15.234375 7.390625 
Q 20.0625 6.109375 24.8125 6.109375 
Q 31.15625 6.109375 34.5625 8.28125 
Q 37.984375 10.453125 37.984375 14.40625 
Q 37.984375 18.0625 35.515625 20.015625 
Q 33.0625 21.96875 24.703125 23.78125 
L 21.578125 24.515625 
Q 13.234375 26.265625 9.515625 29.90625 
Q 5.8125 33.546875 5.8125 39.890625 
Q 5.8125 47.609375 11.28125 51.796875 
Q 16.75 56 26.8125 56 
Q 31.78125 56 36.171875 55.265625 
Q 40.578125 54.546875 44.28125 53.078125 
z
" id="DejaVuSans-115"/>
       <path d="M 25.390625 72.90625 
L 33.6875 72.90625 
L 8.296875 -9.28125 
L 0 -9.28125 
z
" id="DejaVuSans-47"/>
       <path d="M 45.40625 46.390625 
L 45.40625 75.984375 
L 54.390625 75.984375 
L 54.390625 0 
L 45.40625 0 
L 45.40625 8.203125 
Q 42.578125 3.328125 38.25 0.953125 
Q 33.9375 -1.421875 27.875 -1.421875 
Q 17.96875 -1.421875 11.734375 6.484375 
Q 5.515625 14.40625 5.515625 27.296875 
Q 5.515625 40.1875 11.734375 48.09375 
Q 17.96875 56 27.875 56 
Q 33.9375 56 38.25 53.625 
Q 42.578125 51.265625 45.40625 46.390625 
z
M 14.796875 27.296875 
Q 14.796875 17.390625 18.875 11.75 
Q 22.953125 6.109375 30.078125 6.109375 
Q 37.203125 6.109375 41.296875 11.75 
Q 45.40625 17.390625 45.40625 27.296875 
Q 45.40625 37.203125 41.296875 42.84375 
Q 37.203125 48.484375 30.078125 48.484375 
Q 22.953125 48.484375 18.875 42.84375 
Q 14.796875 37.203125 14.796875 27.296875 
z
" id="DejaVuSans-100"/>
       <path d="M 9.421875 54.6875 
L 18.40625 54.6875 
L 18.40625 0 
L 9.421875 0 
z
M 9.421875 75.984375 
L 18.40625 75.984375 
L 18.40625 64.59375 
L 9.421875 64.59375 
z
" id="DejaVuSans-105"/>
       <path d="M 52 44.1875 
Q 55.375 50.25 60.0625 53.125 
Q 64.75 56 71.09375 56 
Q 79.640625 56 84.28125 50.015625 
Q 88.921875 44.046875 88.921875 33.015625 
L 88.921875 0 
L 79.890625 0 
L 79.890625 32.71875 
Q 79.890625 40.578125 77.09375 44.375 
Q 74.3125 48.1875 68.609375 48.1875 
Q 61.625 48.1875 57.5625 43.546875 
Q 53.515625 38.921875 53.515625 30.90625 
L 53.515625 0 
L 44.484375 0 
L 44.484375 32.71875 
Q 44.484375 40.625 41.703125 44.40625 
Q 38.921875 48.1875 33.109375 48.1875 
Q 26.21875 48.1875 22.15625 43.53125 
Q 18.109375 38.875 18.109375 30.90625 
L 18.109375 0 
L 9.078125 0 
L 9.078125 54.6875 
L 18.109375 54.6875 
L 18.109375 46.1875 
Q 21.1875 51.21875 25.484375 53.609375 
Q 29.78125 56 35.6875 56 
Q 41.65625 56 45.828125 52.96875 
Q 50 49.953125 52 44.1875 
z
" id="DejaVuSans-109"/>
       <path d="M 54.890625 33.015625 
L 54.890625 0 
L 45.90625 0 
L 45.90625 32.71875 
Q 45.90625 40.484375 42.875 44.328125 
Q 39.84375 48.1875 33.796875 48.1875 
Q 26.515625 48.1875 22.3125 43.546875 
Q 18.109375 38.921875 18.109375 30.90625 
L 18.109375 0 
L 9.078125 0 
L 9.078125 54.6875 
L 18.109375 54.6875 
L 18.109375 46.1875 
Q 21.34375 51.125 25.703125 53.5625 
Q 30.078125 56 35.796875 56 
Q 45.21875 56 50.046875 50.171875 
Q 54.890625 44.34375 54.890625 33.015625 
z
" id="DejaVuSans-110"/>
      </defs>
      <use xlink:href="#DejaVuSans-108"/>
      <use x="27.783203" xlink:href="#DejaVuSans-111"/>
      <use x="88.964844" xlink:href="#DejaVuSans-103"/>
      <use x="152.441406" xlink:href="#DejaVuSans-49"/>
      <use x="216.064453" xlink:href="#DejaVuSans-48"/>
      <use x="279.6875" xlink:href="#DejaVuSans-40"/>
      <use x="318.701172" xlink:href="#DejaVuSans-35"/>
      <use x="402.490234" xlink:href="#DejaVuSans-32"/>
      <use x="434.277344" xlink:href="#DejaVuSans-40"/>
      <use x="473.291016" xlink:href="#DejaVuSans-102"/>
      <use x="508.496094" xlink:href="#DejaVuSans-43"/>
      <use x="592.285156" xlink:href="#DejaVuSans-103"/>
      <use x="655.761719" xlink:href="#DejaVuSans-41"/>
      <use x="694.775391" xlink:href="#DejaVuSans-45"/>
      <use x="730.859375" xlink:href="#DejaVuSans-101"/>
      <use x="792.382812" xlink:href="#DejaVuSans-118"/>
      <use x="851.5625" xlink:href="#DejaVuSans-97"/>
      <use x="912.841797" xlink:href="#DejaVuSans-108"/>
      <use x="940.625" xlink:href="#DejaVuSans-115"/>
      <use x="992.724609" xlink:href="#DejaVuSans-32"/>
      <use x="1024.511719" xlink:href="#DejaVuSans-47"/>
      <use x="1058.203125" xlink:href="#DejaVuSans-32"/>
      <use x="1089.990234" xlink:href="#DejaVuSans-100"/>
      <use x="1153.466797" xlink:href="#DejaVuSans-105"/>
      <use x="1181.25" xlink:href="#DejaVuSans-109"/>
      <use x="1278.662109" xlink:href="#DejaVuSans-101"/>
      <use x="1340.185547" xlink:href="#DejaVuSans-110"/>
      <use x="1403.564453" xlink:href="#DejaVuSans-115"/>
      <use x="1455.664062" xlink:href="#DejaVuSans-105"/>
      <use x="1483.447266" xlink:href="#DejaVuSans-111"/>
      <use x="1544.628906" xlink:href="#DejaVuSans-110"/>
      <use x="1608.007812" xlink:href="#DejaVuSans-41"/>
     </g>
    </g>
   </g>
   <g id="matplotlib.axis_2">
    <g id="ytick_1">
     <g id="line2d_17">
      <path clip-path="url(#pa9c0b11e2f)" d="M 57.6 298.944 
L 338.688 298.944 
" style="fill:none;stroke:#b0b0b0;stroke-linecap:square;stroke-width:0.8;"/>
     </g>
     <g id="line2d_18">
      <defs>
       <path d="M 0 0 
L -3.5 0 
" id="mee8f32c285" style="stroke:#000000;stroke-width:0.8;"/>
      </defs>
      <g>
       <use style="stroke:#000000;stroke-width:0.8;" x="57.6" xlink:href="#mee8f32c285" y="298.944"/>
      </g>
     </g>
     <g id="text_6">
      <!-- 0.0 -->
      <g transform="translate(25.155 305.02275)scale(0.16 -0.16)">
       <defs>
        <path d="M 10.6875 12.40625 
L 21 12.40625 
L 21 0 
L 10.6875 0 
z
" id="DejaVuSans-46"/>
       </defs>
       <use xlink:href="#DejaVuSans-48"/>
       <use x="63.623047" xlink:href="#DejaVuSans-46"/>
       <use x="95.410156" xlink:href="#DejaVuSans-48"/>
      </g>
     </g>
    </g>
    <g id="ytick_2">
     <g id="line2d_19">
      <path clip-path="url(#pa9c0b11e2f)" d="M 57.6 245.22202 
L 338.688 245.22202 
" style="fill:none;stroke:#b0b0b0;stroke-linecap:square;stroke-width:0.8;"/>
     </g>
     <g id="line2d_20">
      <g>
       <use style="stroke:#000000;stroke-width:0.8;" x="57.6" xlink:href="#mee8f32c285" y="245.22202"/>
      </g>
     </g>
     <g id="text_7">
      <!-- 0.2 -->
      <g transform="translate(25.155 251.30077)scale(0.16 -0.16)">
       <use xlink:href="#DejaVuSans-48"/>
       <use x="63.623047" xlink:href="#DejaVuSans-46"/>
       <use x="95.410156" xlink:href="#DejaVuSans-50"/>
      </g>
     </g>
    </g>
    <g id="ytick_3">
     <g id="line2d_21">
      <path clip-path="url(#pa9c0b11e2f)" d="M 57.6 191.50004 
L 338.688 191.50004 
" style="fill:none;stroke:#b0b0b0;stroke-linecap:square;stroke-width:0.8;"/>
     </g>
     <g id="line2d_22">
      <g>
       <use style="stroke:#000000;stroke-width:0.8;" x="57.6" xlink:href="#mee8f32c285" y="191.50004"/>
      </g>
     </g>
     <g id="text_8">
      <!-- 0.4 -->
      <g transform="translate(25.155 197.57879)scale(0.16 -0.16)">
       <use xlink:href="#DejaVuSans-48"/>
       <use x="63.623047" xlink:href="#DejaVuSans-46"/>
       <use x="95.410156" xlink:href="#DejaVuSans-52"/>
      </g>
     </g>
    </g>
    <g id="ytick_4">
     <g id="line2d_23">
      <path clip-path="url(#pa9c0b11e2f)" d="M 57.6 137.778059 
L 338.688 137.778059 
" style="fill:none;stroke:#b0b0b0;stroke-linecap:square;stroke-width:0.8;"/>
     </g>
     <g id="line2d_24">
      <g>
       <use style="stroke:#000000;stroke-width:0.8;" x="57.6" xlink:href="#mee8f32c285" y="137.778059"/>
      </g>
     </g>
     <g id="text_9">
      <!-- 0.6 -->
      <g transform="translate(25.155 143.856809)scale(0.16 -0.16)">
       <use xlink:href="#DejaVuSans-48"/>
       <use x="63.623047" xlink:href="#DejaVuSans-46"/>
       <use x="95.410156" xlink:href="#DejaVuSans-54"/>
      </g>
     </g>
    </g>
    <g id="ytick_5">
     <g id="line2d_25">
      <path clip-path="url(#pa9c0b11e2f)" d="M 57.6 84.056079 
L 338.688 84.056079 
" style="fill:none;stroke:#b0b0b0;stroke-linecap:square;stroke-width:0.8;"/>
     </g>
     <g id="line2d_26">
      <g>
       <use style="stroke:#000000;stroke-width:0.8;" x="57.6" xlink:href="#mee8f32c285" y="84.056079"/>
      </g>
     </g>
     <g id="text_10">
      <!-- 0.8 -->
      <g transform="translate(25.155 90.134829)scale(0.16 -0.16)">
       <defs>
        <path d="M 31.78125 34.625 
Q 24.75 34.625 20.71875 30.859375 
Q 16.703125 27.09375 16.703125 20.515625 
Q 16.703125 13.921875 20.71875 10.15625 
Q 24.75 6.390625 31.78125 6.390625 
Q 38.8125 6.390625 42.859375 10.171875 
Q 46.921875 13.96875 46.921875 20.515625 
Q 46.921875 27.09375 42.890625 30.859375 
Q 38.875 34.625 31.78125 34.625 
z
M 21.921875 38.8125 
Q 15.578125 40.375 12.03125 44.71875 
Q 8.5 49.078125 8.5 55.328125 
Q 8.5 64.0625 14.71875 69.140625 
Q 20.953125 74.21875 31.78125 74.21875 
Q 42.671875 74.21875 48.875 69.140625 
Q 55.078125 64.0625 55.078125 55.328125 
Q 55.078125 49.078125 51.53125 44.71875 
Q 48 40.375 41.703125 38.8125 
Q 48.828125 37.15625 52.796875 32.3125 
Q 56.78125 27.484375 56.78125 20.515625 
Q 56.78125 9.90625 50.3125 4.234375 
Q 43.84375 -1.421875 31.78125 -1.421875 
Q 19.734375 -1.421875 13.25 4.234375 
Q 6.78125 9.90625 6.78125 20.515625 
Q 6.78125 27.484375 10.78125 32.3125 
Q 14.796875 37.15625 21.921875 38.8125 
z
M 18.3125 54.390625 
Q 18.3125 48.734375 21.84375 45.5625 
Q 25.390625 42.390625 31.78125 42.390625 
Q 38.140625 42.390625 41.71875 45.5625 
Q 45.3125 48.734375 45.3125 54.390625 
Q 45.3125 60.0625 41.71875 63.234375 
Q 38.140625 66.40625 31.78125 66.40625 
Q 25.390625 66.40625 21.84375 63.234375 
Q 18.3125 60.0625 18.3125 54.390625 
z
" id="DejaVuSans-56"/>
       </defs>
       <use xlink:href="#DejaVuSans-48"/>
       <use x="63.623047" xlink:href="#DejaVuSans-46"/>
       <use x="95.410156" xlink:href="#DejaVuSans-56"/>
      </g>
     </g>
    </g>
    <g id="ytick_6">
     <g id="line2d_27">
      <path clip-path="url(#pa9c0b11e2f)" d="M 57.6 30.334099 
L 338.688 30.334099 
" style="fill:none;stroke:#b0b0b0;stroke-linecap:square;stroke-width:0.8;"/>
     </g>
     <g id="line2d_28">
      <g>
       <use style="stroke:#000000;stroke-width:0.8;" x="57.6" xlink:href="#mee8f32c285" y="30.334099"/>
      </g>
     </g>
     <g id="text_11">
      <!-- 1.0 -->
      <g transform="translate(25.155 36.412849)scale(0.16 -0.16)">
       <use xlink:href="#DejaVuSans-49"/>
       <use x="63.623047" xlink:href="#DejaVuSans-46"/>
       <use x="95.410156" xlink:href="#DejaVuSans-48"/>
      </g>
     </g>
    </g>
    <g id="text_12">
     <!-- Fraction of function,target pairs -->
     <g transform="translate(17.619531 297.681)rotate(-90)scale(0.17 -0.17)">
      <defs>
       <path d="M 9.8125 72.90625 
L 51.703125 72.90625 
L 51.703125 64.59375 
L 19.671875 64.59375 
L 19.671875 43.109375 
L 48.578125 43.109375 
L 48.578125 34.8125 
L 19.671875 34.8125 
L 19.671875 0 
L 9.8125 0 
z
" id="DejaVuSans-70"/>
       <path d="M 41.109375 46.296875 
Q 39.59375 47.171875 37.8125 47.578125 
Q 36.03125 48 33.890625 48 
Q 26.265625 48 22.1875 43.046875 
Q 18.109375 38.09375 18.109375 28.8125 
L 18.109375 0 
L 9.078125 0 
L 9.078125 54.6875 
L 18.109375 54.6875 
L 18.109375 46.1875 
Q 20.953125 51.171875 25.484375 53.578125 
Q 30.03125 56 36.53125 56 
Q 37.453125 56 38.578125 55.875 
Q 39.703125 55.765625 41.0625 55.515625 
z
" id="DejaVuSans-114"/>
       <path d="M 48.78125 52.59375 
L 48.78125 44.1875 
Q 44.96875 46.296875 41.140625 47.34375 
Q 37.3125 48.390625 33.40625 48.390625 
Q 24.65625 48.390625 19.8125 42.84375 
Q 14.984375 37.3125 14.984375 27.296875 
Q 14.984375 17.28125 19.8125 11.734375 
Q 24.65625 6.203125 33.40625 6.203125 
Q 37.3125 6.203125 41.140625 7.25 
Q 44.96875 8.296875 48.78125 10.40625 
L 48.78125 2.09375 
Q 45.015625 0.34375 40.984375 -0.53125 
Q 36.96875 -1.421875 32.421875 -1.421875 
Q 20.0625 -1.421875 12.78125 6.34375 
Q 5.515625 14.109375 5.515625 27.296875 
Q 5.515625 40.671875 12.859375 48.328125 
Q 20.21875 56 33.015625 56 
Q 37.15625 56 41.109375 55.140625 
Q 45.0625 54.296875 48.78125 52.59375 
z
" id="DejaVuSans-99"/>
       <path d="M 18.3125 70.21875 
L 18.3125 54.6875 
L 36.8125 54.6875 
L 36.8125 47.703125 
L 18.3125 47.703125 
L 18.3125 18.015625 
Q 18.3125 11.328125 20.140625 9.421875 
Q 21.96875 7.515625 27.59375 7.515625 
L 36.8125 7.515625 
L 36.8125 0 
L 27.59375 0 
Q 17.1875 0 13.234375 3.875 
Q 9.28125 7.765625 9.28125 18.015625 
L 9.28125 47.703125 
L 2.6875 47.703125 
L 2.6875 54.6875 
L 9.28125 54.6875 
L 9.28125 70.21875 
z
" id="DejaVuSans-116"/>
       <path d="M 8.5 21.578125 
L 8.5 54.6875 
L 17.484375 54.6875 
L 17.484375 21.921875 
Q 17.484375 14.15625 20.5 10.265625 
Q 23.53125 6.390625 29.59375 6.390625 
Q 36.859375 6.390625 41.078125 11.03125 
Q 45.3125 15.671875 45.3125 23.6875 
L 45.3125 54.6875 
L 54.296875 54.6875 
L 54.296875 0 
L 45.3125 0 
L 45.3125 8.40625 
Q 42.046875 3.421875 37.71875 1 
Q 33.40625 -1.421875 27.6875 -1.421875 
Q 18.265625 -1.421875 13.375 4.4375 
Q 8.5 10.296875 8.5 21.578125 
z
M 31.109375 56 
z
" id="DejaVuSans-117"/>
       <path d="M 11.71875 12.40625 
L 22.015625 12.40625 
L 22.015625 4 
L 14.015625 -11.625 
L 7.71875 -11.625 
L 11.71875 4 
z
" id="DejaVuSans-44"/>
       <path d="M 18.109375 8.203125 
L 18.109375 -20.796875 
L 9.078125 -20.796875 
L 9.078125 54.6875 
L 18.109375 54.6875 
L 18.109375 46.390625 
Q 20.953125 51.265625 25.265625 53.625 
Q 29.59375 56 35.59375 56 
Q 45.5625 56 51.78125 48.09375 
Q 58.015625 40.1875 58.015625 27.296875 
Q 58.015625 14.40625 51.78125 6.484375 
Q 45.5625 -1.421875 35.59375 -1.421875 
Q 29.59375 -1.421875 25.265625 0.953125 
Q 20.953125 3.328125 18.109375 8.203125 
z
M 48.6875 27.296875 
Q 48.6875 37.203125 44.609375 42.84375 
Q 40.53125 48.484375 33.40625 48.484375 
Q 26.265625 48.484375 22.1875 42.84375 
Q 18.109375 37.203125 18.109375 27.296875 
Q 18.109375 17.390625 22.1875 11.75 
Q 26.265625 6.109375 33.40625 6.109375 
Q 40.53125 6.109375 44.609375 11.75 
Q 48.6875 17.390625 48.6875 27.296875 
z
" id="DejaVuSans-112"/>
      </defs>
      <use xlink:href="#DejaVuSans-70"/>
      <use x="50.269531" xlink:href="#DejaVuSans-114"/>
      <use x="91.382812" xlink:href="#DejaVuSans-97"/>
      <use x="152.662109" xlink:href="#DejaVuSans-99"/>
      <use x="207.642578" xlink:href="#DejaVuSans-116"/>
      <use x="246.851562" xlink:href="#DejaVuSans-105"/>
      <use x="274.634766" xlink:href="#DejaVuSans-111"/>
      <use x="335.816406" xlink:href="#DejaVuSans-110"/>
      <use x="399.195312" xlink:href="#DejaVuSans-32"/>
      <use x="430.982422" xlink:href="#DejaVuSans-111"/>
      <use x="492.164062" xlink:href="#DejaVuSans-102"/>
      <use x="527.369141" xlink:href="#DejaVuSans-32"/>
      <use x="559.15625" xlink:href="#DejaVuSans-102"/>
      <use x="594.361328" xlink:href="#DejaVuSans-117"/>
      <use x="657.740234" xlink:href="#DejaVuSans-110"/>
      <use x="721.119141" xlink:href="#DejaVuSans-99"/>
      <use x="776.099609" xlink:href="#DejaVuSans-116"/>
      <use x="815.308594" xlink:href="#DejaVuSans-105"/>
      <use x="843.091797" xlink:href="#DejaVuSans-111"/>
      <use x="904.273438" xlink:href="#DejaVuSans-110"/>
      <use x="967.652344" xlink:href="#DejaVuSans-44"/>
      <use x="999.439453" xlink:href="#DejaVuSans-116"/>
      <use x="1038.648438" xlink:href="#DejaVuSans-97"/>
      <use x="1099.927734" xlink:href="#DejaVuSans-114"/>
      <use x="1139.291016" xlink:href="#DejaVuSans-103"/>
      <use x="1202.767578" xlink:href="#DejaVuSans-101"/>
      <use x="1264.291016" xlink:href="#DejaVuSans-116"/>
      <use x="1303.5" xlink:href="#DejaVuSans-32"/>
      <use x="1335.287109" xlink:href="#DejaVuSans-112"/>
      <use x="1398.763672" xlink:href="#DejaVuSans-97"/>
      <use x="1460.042969" xlink:href="#DejaVuSans-105"/>
      <use x="1487.826172" xlink:href="#DejaVuSans-114"/>
      <use x="1528.939453" xlink:href="#DejaVuSans-115"/>
     </g>
    </g>
   </g>
   <g id="line2d_29">
    <defs>
     <path d="M 0 1.5 
C 0.397805 1.5 0.77937 1.341951 1.06066 1.06066 
C 1.341951 0.77937 1.5 0.397805 1.5 0 
C 1.5 -0.397805 1.341951 -0.77937 1.06066 -1.06066 
C 0.77937 -1.341951 0.397805 -1.5 0 -1.5 
C -0.397805 -1.5 -0.77937 -1.341951 -1.06066 -1.06066 
C -1.341951 -0.77937 -1.5 -0.397805 -1.5 0 
C -1.5 0.397805 -1.341951 0.77937 -1.06066 1.06066 
C -0.77937 1.341951 -0.397805 1.5 0 1.5 
z
" id="mae14f67b72" style="stroke:#000080;"/>
    </defs>
    <g>
     <use style="fill:#000080;stroke:#000080;" x="274.373412" xlink:href="#mae14f67b72" y="43.437021"/>
     <use style="fill:#000080;stroke:#000080;" x="274.373412" xlink:href="#mae14f67b72" y="43.437021"/>
    </g>
   </g>
   <g id="line2d_30">
    <path d="M 97.755429 298.944 
L 97.755429 298.507236 
L 99.731799 298.507236 
L 99.731799 298.070472 
L 101.506816 298.070472 
L 101.506816 297.633708 
L 103.117741 297.633708 
L 103.117741 296.76018 
L 104.592361 296.76018 
L 104.592361 296.323416 
L 105.51043 296.323416 
L 105.51043 295.886652 
L 110.188761 295.886652 
L 110.188761 295.449887 
L 112.431755 295.449887 
L 112.431755 295.013123 
L 115.460322 295.013123 
L 115.460322 294.576359 
L 117.820578 294.576359 
L 117.820578 294.139595 
L 138.426341 294.139595 
L 138.426341 293.702831 
L 138.761723 293.702831 
L 138.761723 293.266067 
L 139.477614 293.266067 
L 139.477614 292.829303 
L 139.604677 292.829303 
L 139.667863 291.955775 
L 139.730821 291.955775 
L 139.793552 291.082247 
L 140.348205 291.082247 
L 140.348205 290.645483 
L 143.952218 290.645483 
L 143.952218 290.208719 
L 148.373289 290.208719 
L 148.373289 289.771955 
L 149.159312 289.771955 
L 149.195872 288.461662 
L 149.413639 288.461662 
L 149.413639 288.024898 
L 156.610446 288.024898 
L 156.610446 287.588134 
L 156.847557 287.588134 
L 156.847557 287.15137 
L 157.174189 287.15137 
L 157.174189 286.714606 
L 158.763686 286.714606 
L 158.763686 286.277842 
L 160.877419 286.277842 
L 160.877419 285.841078 
L 162.79595 285.841078 
L 162.79595 285.404314 
L 164.645079 285.404314 
L 164.645079 284.96755 
L 164.780093 284.96755 
L 164.780093 284.530786 
L 168.95908 284.530786 
L 168.95908 284.094022 
L 169.914348 284.094022 
L 170.003182 282.346965 
L 170.277909 282.346965 
L 170.277909 281.910201 
L 174.934099 281.910201 
L 174.96746 281.036673 
L 176.781943 281.036673 
L 176.841911 280.163145 
L 177.245042 280.163145 
L 177.245042 279.726381 
L 183.685718 279.726381 
L 183.746262 278.416089 
L 183.881723 278.416089 
L 183.881723 277.979325 
L 186.397444 277.979325 
L 186.496666 274.048448 
L 186.526753 274.048448 
L 186.633782 270.117572 
L 186.655109 270.117572 
L 186.74864 266.623459 
L 186.858534 266.623459 
L 186.883796 265.749931 
L 187.10537 265.749931 
L 187.10537 265.313167 
L 187.246044 265.313167 
L 187.246044 264.876403 
L 187.438654 264.876403 
L 187.438654 264.439639 
L 188.82482 264.439639 
L 188.82482 264.002875 
L 194.12508 264.002875 
L 194.12508 263.566111 
L 195.128901 263.566111 
L 195.128901 263.129347 
L 195.768651 263.129347 
L 195.874497 254.394065 
L 195.889565 254.394065 
L 195.957213 252.647009 
L 196.019617 252.647009 
L 196.089245 251.773481 
L 196.200567 251.773481 
L 196.200567 251.336717 
L 196.320983 251.336717 
L 196.320983 250.899953 
L 196.48915 250.899953 
L 196.48915 250.463189 
L 196.670119 250.463189 
L 196.670119 250.026425 
L 196.794498 250.026425 
L 196.794498 249.58966 
L 196.972343 249.58966 
L 197.037101 248.716132 
L 197.53641 248.716132 
L 197.53641 248.279368 
L 198.662986 248.279368 
L 198.671548 247.40584 
L 201.116757 247.40584 
L 201.116757 246.969076 
L 204.141387 246.969076 
L 204.141387 246.532312 
L 205.076171 246.532312 
L 205.076171 246.095548 
L 206.851212 246.095548 
L 206.956666 234.739682 
L 207.206397 234.739682 
L 207.206397 234.302918 
L 207.470703 234.302918 
L 207.470703 233.866154 
L 207.674959 233.866154 
L 207.674959 233.42939 
L 208.40101 233.42939 
L 208.40101 232.992626 
L 208.968079 232.992626 
L 209.066228 221.63676 
L 209.086263 221.63676 
L 209.175551 219.45294 
L 209.276039 219.45294 
L 209.276039 219.016176 
L 209.404889 219.016176 
L 209.489687 216.395591 
L 209.810697 216.395591 
L 209.810697 215.958827 
L 210.02184 215.958827 
L 210.02184 215.522063 
L 210.495917 215.522063 
L 210.546903 214.211771 
L 210.715071 214.211771 
L 210.817226 211.154423 
L 210.84387 211.154423 
L 210.84387 210.717659 
L 211.00974 210.717659 
L 211.087625 209.407366 
L 211.224133 209.407366 
L 211.224133 208.970602 
L 213.25258 208.970602 
L 213.358001 206.786782 
L 213.500322 206.786782 
L 213.585616 203.292669 
L 213.612894 203.292669 
L 213.677737 201.545613 
L 213.766223 201.545613 
L 213.801312 200.235321 
L 213.922678 200.235321 
L 213.922678 199.798557 
L 214.095869 199.798557 
L 214.095869 199.361793 
L 215.347242 199.361793 
L 215.347242 198.925029 
L 216.033168 198.925029 
L 216.067931 197.177972 
L 218.16302 197.177972 
L 218.272215 193.68386 
L 218.279864 193.68386 
L 218.279864 193.247096 
L 218.399039 193.247096 
L 218.440076 190.626511 
L 218.569451 190.626511 
L 218.60156 189.316219 
L 218.708731 189.316219 
L 218.710087 188.442691 
L 218.983662 188.442691 
L 219.064273 186.258871 
L 219.317984 186.258871 
L 219.420203 183.638286 
L 219.516321 183.638286 
L 219.625112 179.270646 
L 219.672997 179.270646 
L 219.691922 178.397118 
L 219.791022 178.397118 
L 219.895266 176.213297 
L 220.250014 176.213297 
L 220.344766 173.592713 
L 220.404264 173.592713 
L 220.404264 173.155949 
L 220.662095 173.155949 
L 220.753735 171.845657 
L 220.839794 171.845657 
L 220.839794 171.408893 
L 220.959449 171.408893 
L 220.959449 170.972128 
L 221.315024 170.972128 
L 221.367231 167.91478 
L 221.868717 167.91478 
L 221.896143 167.041252 
L 222.015243 167.041252 
L 222.016646 166.167724 
L 222.131026 166.167724 
L 222.188353 164.857432 
L 222.281454 164.857432 
L 222.281454 164.420667 
L 222.438266 164.420667 
L 222.48449 163.547139 
L 222.610773 163.547139 
L 222.610773 163.110375 
L 223.482171 163.110375 
L 223.482171 162.673611 
L 223.737736 162.673611 
L 223.749426 161.800083 
L 223.920819 161.800083 
L 223.920819 161.363319 
L 224.078832 161.363319 
L 224.174296 160.053027 
L 224.992298 160.053027 
L 225.027747 158.742735 
L 225.188017 158.742735 
L 225.294827 157.869206 
L 225.300406 157.869206 
L 225.342655 156.995678 
L 225.480759 156.995678 
L 225.480759 156.558914 
L 225.921852 156.558914 
L 225.936872 155.685386 
L 226.039874 155.685386 
L 226.106356 153.93833 
L 226.161307 153.93833 
L 226.165067 153.064802 
L 226.381797 153.064802 
L 226.481343 151.317745 
L 226.641122 151.317745 
L 226.704069 150.444217 
L 226.861192 150.444217 
L 226.941341 149.570689 
L 226.99436 149.570689 
L 227.026599 147.386869 
L 227.176264 147.386869 
L 227.278445 146.076577 
L 227.29483 146.076577 
L 227.387662 144.766284 
L 227.469744 144.766284 
L 227.529161 143.892756 
L 227.642311 143.892756 
L 227.731295 143.019228 
L 227.790232 143.019228 
L 227.884881 140.398644 
L 227.906511 140.398644 
L 227.996749 137.341295 
L 228.161838 137.341295 
L 228.161838 136.904531 
L 228.55927 136.904531 
L 228.55927 136.467767 
L 229.033055 136.467767 
L 229.124196 133.410419 
L 229.255112 133.410419 
L 229.255112 132.973655 
L 229.462116 132.973655 
L 229.465045 132.100127 
L 229.864601 132.100127 
L 229.864601 131.663362 
L 230.073376 131.663362 
L 230.159252 129.479542 
L 230.236829 129.479542 
L 230.236829 129.042778 
L 230.370634 129.042778 
L 230.48133 127.295722 
L 230.721939 127.295722 
L 230.743557 125.98543 
L 230.835004 125.98543 
L 230.933549 124.675137 
L 230.983955 124.675137 
L 231.091505 123.801609 
L 231.142123 123.801609 
L 231.23184 122.928081 
L 231.302658 122.928081 
L 231.302658 122.491317 
L 231.549496 122.491317 
L 231.549496 122.054553 
L 231.680567 122.054553 
L 231.783917 121.181025 
L 231.847264 121.181025 
L 231.892553 120.307497 
L 231.972478 120.307497 
L 231.986106 119.433969 
L 232.128409 119.433969 
L 232.226804 117.686912 
L 232.240704 117.686912 
L 232.29977 116.813384 
L 232.430438 116.813384 
L 232.458984 115.939856 
L 232.611408 115.939856 
L 232.611408 115.503092 
L 232.887815 115.503092 
L 232.887815 115.066328 
L 233.002065 115.066328 
L 233.082579 114.1928 
L 233.132193 114.1928 
L 233.132193 113.756036 
L 233.359436 113.756036 
L 233.359436 113.319272 
L 233.661635 113.319272 
L 233.719243 112.445744 
L 233.972827 112.445744 
L 233.992747 111.135451 
L 234.141351 111.135451 
L 234.141351 110.698687 
L 234.369304 110.698687 
L 234.43743 109.825159 
L 234.498022 109.825159 
L 234.575756 108.951631 
L 234.681805 108.951631 
L 234.711909 107.641339 
L 235.003866 107.641339 
L 235.044456 106.767811 
L 235.373259 106.767811 
L 235.373781 105.894283 
L 235.508139 105.894283 
L 235.508139 105.457518 
L 235.643525 105.457518 
L 235.742527 104.147226 
L 235.889541 104.147226 
L 235.9453 103.273698 
L 236.009185 103.273698 
L 236.009185 102.836934 
L 236.171806 102.836934 
L 236.171806 102.40017 
L 236.443319 102.40017 
L 236.552653 101.089878 
L 236.611196 101.089878 
L 236.688667 100.21635 
L 236.800686 100.21635 
L 236.800686 99.779586 
L 236.985403 99.779586 
L 236.985403 99.342822 
L 237.134258 99.342822 
L 237.192882 98.469293 
L 237.248967 98.469293 
L 237.260911 97.595765 
L 237.574612 97.595765 
L 237.656627 95.848709 
L 237.712611 95.848709 
L 237.765005 94.975181 
L 237.887965 94.975181 
L 237.912454 93.664889 
L 238.000642 93.664889 
L 238.110143 92.791361 
L 238.147678 92.791361 
L 238.252171 91.917832 
L 238.33393 91.917832 
L 238.33393 91.481068 
L 238.565313 91.481068 
L 238.642592 89.734012 
L 238.719315 89.734012 
L 238.722653 88.860484 
L 238.848366 88.860484 
L 238.848366 88.42372 
L 239.043181 88.42372 
L 239.043181 87.986956 
L 239.182452 87.986956 
L 239.256215 87.113428 
L 240.542929 87.113428 
L 240.595027 86.2399 
L 240.703948 86.2399 
L 240.76888 85.366371 
L 240.97246 85.366371 
L 241.069555 84.492843 
L 241.181545 84.492843 
L 241.213585 83.619315 
L 241.331796 83.619315 
L 241.413544 82.309023 
L 241.699495 82.309023 
L 241.699495 81.872259 
L 242.007693 81.872259 
L 242.007693 81.435495 
L 242.124291 81.435495 
L 242.204091 80.125203 
L 242.287739 80.125203 
L 242.299406 79.251674 
L 242.403009 79.251674 
L 242.501754 78.378146 
L 242.650378 78.378146 
L 242.676657 77.504618 
L 242.973263 77.504618 
L 242.973263 77.067854 
L 243.15129 77.067854 
L 243.183161 76.194326 
L 243.372845 76.194326 
L 243.405549 75.320798 
L 243.493224 75.320798 
L 243.564566 74.44727 
L 243.689545 74.44727 
L 243.696507 73.573742 
L 244.124396 73.573742 
L 244.124396 73.136978 
L 244.351938 73.136978 
L 244.351938 72.700213 
L 244.615751 72.700213 
L 244.693359 71.826685 
L 244.775644 71.826685 
L 244.775644 71.389921 
L 245.061636 71.389921 
L 245.137959 70.516393 
L 245.194724 70.516393 
L 245.21024 69.642865 
L 245.308217 69.642865 
L 245.308217 69.206101 
L 245.4464 69.206101 
L 245.508372 67.459045 
L 245.612672 67.459045 
L 245.612672 67.022281 
L 245.832312 67.022281 
L 245.832312 66.585517 
L 246.177957 66.585517 
L 246.236898 64.83846 
L 246.5904 64.83846 
L 246.5904 64.401696 
L 246.799897 64.401696 
L 246.902902 62.65464 
L 246.98554 62.65464 
L 246.98554 62.217876 
L 247.130052 62.217876 
L 247.189444 61.344348 
L 247.329852 61.344348 
L 247.329852 60.907584 
L 247.562375 60.907584 
L 247.562375 60.47082 
L 247.698473 60.47082 
L 247.698473 60.034056 
L 247.867831 60.034056 
L 247.867831 59.597291 
L 248.211379 59.597291 
L 248.211379 59.160527 
L 248.718797 59.160527 
L 248.7191 58.286999 
L 249.11556 58.286999 
L 249.163543 57.413471 
L 249.436535 57.413471 
L 249.472141 56.103179 
L 249.78468 56.103179 
L 249.78468 55.666415 
L 249.985719 55.666415 
L 250.089528 54.356123 
L 250.221197 54.356123 
L 250.319078 52.172302 
L 250.348286 52.172302 
L 250.348286 51.735538 
L 250.459415 51.735538 
L 250.541383 50.86201 
L 251.073207 50.86201 
L 251.073207 50.425246 
L 251.890584 50.425246 
L 251.890584 49.988482 
L 253.127548 49.988482 
L 253.159002 49.114954 
L 253.720238 49.114954 
L 253.720238 48.67819 
L 254.234321 48.67819 
L 254.234321 48.241426 
L 254.718158 48.241426 
L 254.718158 47.804662 
L 254.996931 47.804662 
L 254.996931 47.367898 
L 255.146757 47.367898 
L 255.146757 46.931134 
L 256.718936 46.931134 
L 256.718936 46.494369 
L 257.022677 46.494369 
L 257.022677 46.057605 
L 261.383924 46.057605 
L 261.383924 45.620841 
L 263.903305 45.620841 
L 263.903305 45.184077 
L 265.254774 45.184077 
L 265.254774 44.747313 
L 265.500796 44.747313 
L 265.500796 44.310549 
L 273.503954 44.310549 
L 273.503954 43.873785 
L 274.373412 43.873785 
L 274.373412 43.437021 
L 338.688 43.437021 
L 338.688 43.437021 
" style="fill:none;stroke:#000080;stroke-linecap:square;stroke-width:1.5;"/>
   </g>
   <g id="line2d_31">
    <defs>
     <path d="M 0 6 
C 1.591219 6 3.117479 5.367802 4.242641 4.242641 
C 5.367802 3.117479 6 1.591219 6 0 
C 6 -1.591219 5.367802 -3.117479 4.242641 -4.242641 
C 3.117479 -5.367802 1.591219 -6 0 -6 
C -1.591219 -6 -3.117479 -5.367802 -4.242641 -4.242641 
C -5.367802 -3.117479 -6 -1.591219 -6 0 
C -6 1.591219 -5.367802 3.117479 -4.242641 4.242641 
C -3.117479 5.367802 -1.591219 6 0 6 
z
" id="mdcdf9262af" style="stroke:#000080;stroke-width:1.5;"/>
    </defs>
    <g>
     <use style="fill-opacity:0;stroke:#000080;stroke-width:1.5;" x="195.814092" xlink:href="#mdcdf9262af" y="259.19847"/>
     <use style="fill-opacity:0;stroke:#000080;stroke-width:1.5;" x="220.662095" xlink:href="#mdcdf9262af" y="173.155949"/>
     <use style="fill-opacity:0;stroke:#000080;stroke-width:1.5;" x="255.146757" xlink:href="#mdcdf9262af" y="47.367898"/>
     <use style="fill-opacity:0;stroke:#000080;stroke-width:1.5;" x="274.373412" xlink:href="#mdcdf9262af" y="43.437021"/>
     <use style="fill-opacity:0;stroke:#000080;stroke-width:1.5;" x="338.688" xlink:href="#mdcdf9262af" y="43.437021"/>
    </g>
   </g>
   <g id="line2d_32">
    <path style="fill:none;stroke:#000080;stroke-linecap:square;stroke-width:1.5;"/>
    <g/>
   </g>
   <g id="line2d_33">
    <path clip-path="url(#pa9c0b11e2f)" d="M 205.8198 246.095548 
" style="fill:none;stroke:#000080;stroke-linecap:square;stroke-width:1.5;"/>
    <defs>
     <path d="M -12 12 
L 12 -12 
M -12 -12 
L 12 12 
" id="m05d1a5c2c3" style="stroke:#000080;"/>
    </defs>
    <g clip-path="url(#pa9c0b11e2f)">
     <use style="fill:#000080;stroke:#000080;" x="205.8198" xlink:href="#m05d1a5c2c3" y="246.095548"/>
    </g>
   </g>
   <g id="line2d_34">
    <defs>
     <path d="M 0 1.5 
C 0.397805 1.5 0.77937 1.341951 1.06066 1.06066 
C 1.341951 0.77937 1.5 0.397805 1.5 0 
C 1.5 -0.397805 1.341951 -0.77937 1.06066 -1.06066 
C 0.77937 -1.341951 0.397805 -1.5 0 -1.5 
C -0.397805 -1.5 -0.77937 -1.341951 -1.06066 -1.06066 
C -1.341951 -0.77937 -1.5 -0.397805 -1.5 0 
C -1.5 0.397805 -1.341951 0.77937 -1.06066 1.06066 
C -0.77937 1.341951 -0.397805 1.5 0 1.5 
z
" id="m8d9c32004a" style="stroke:#ff00ff;"/>
    </defs>
    <g>
     <use style="fill:#ff00ff;stroke:#ff00ff;" x="256.650948" xlink:href="#m8d9c32004a" y="279.289617"/>
     <use style="fill:#ff00ff;stroke:#ff00ff;" x="256.650948" xlink:href="#m8d9c32004a" y="279.289617"/>
    </g>
   </g>
   <g id="line2d_35">
    <path d="M 148.993835 298.944 
L 148.993835 298.507236 
L 157.2549 298.507236 
L 157.2549 298.070472 
L 157.976006 298.070472 
L 157.976006 297.633708 
L 180.780453 297.633708 
L 180.780453 297.196944 
L 180.899453 297.196944 
L 180.899453 296.76018 
L 181.407854 296.76018 
L 181.407854 296.323416 
L 181.721776 296.323416 
L 181.721776 295.886652 
L 190.703588 295.886652 
L 190.703588 295.449887 
L 190.723855 295.449887 
L 190.723855 295.013123 
L 190.824835 295.013123 
L 190.824835 294.576359 
L 195.649438 294.576359 
L 195.649438 294.139595 
L 196.941646 294.139595 
L 196.941646 293.702831 
L 197.019463 293.702831 
L 197.019463 293.266067 
L 197.092249 293.266067 
L 197.092249 292.829303 
L 199.29897 292.829303 
L 199.29897 292.392539 
L 199.542937 292.392539 
L 199.542937 291.955775 
L 205.386906 291.955775 
L 205.386906 291.519011 
L 206.801602 291.519011 
L 206.801602 291.082247 
L 206.843176 291.082247 
L 206.843176 290.645483 
L 208.785691 290.645483 
L 208.785691 290.208719 
L 211.422021 290.208719 
L 211.422021 289.771955 
L 213.560117 289.771955 
L 213.560117 289.335191 
L 214.734481 289.335191 
L 214.734481 288.898426 
L 218.451784 288.898426 
L 218.451784 288.461662 
L 218.676819 288.461662 
L 218.676819 288.024898 
L 219.075901 288.024898 
L 219.075901 287.588134 
L 221.765981 287.588134 
L 221.765981 287.15137 
L 222.635974 287.15137 
L 222.635974 286.714606 
L 223.044377 286.714606 
L 223.044377 286.277842 
L 226.301442 286.277842 
L 226.301442 285.841078 
L 227.205669 285.841078 
L 227.205669 285.404314 
L 227.269935 285.404314 
L 227.269935 284.96755 
L 228.942567 284.96755 
L 228.942567 284.530786 
L 229.003571 284.530786 
L 229.003571 284.094022 
L 231.664761 284.094022 
L 231.664761 283.657258 
L 232.538969 283.657258 
L 232.538969 283.220494 
L 235.37978 283.220494 
L 235.37978 282.78373 
L 236.960887 282.78373 
L 236.960887 282.346965 
L 238.322808 282.346965 
L 238.322808 281.910201 
L 238.896075 281.910201 
L 238.896075 281.473437 
L 239.785892 281.473437 
L 239.785892 281.036673 
L 241.547449 281.036673 
L 241.547449 280.599909 
L 243.410733 280.599909 
L 243.410733 280.163145 
L 248.481734 280.163145 
L 248.481734 279.726381 
L 256.650948 279.726381 
L 256.650948 279.289617 
L 338.688 279.289617 
" style="fill:none;stroke:#ff00ff;stroke-linecap:square;stroke-width:1.5;"/>
   </g>
   <g id="line2d_36">
    <defs>
     <path d="M -0 8.485281 
L 5.091169 0 
L 0 -8.485281 
L -5.091169 -0 
z
" id="mc0b503429a" style="stroke:#ff00ff;stroke-linejoin:miter;stroke-width:1.5;"/>
    </defs>
    <g>
     <use style="fill-opacity:0;stroke:#ff00ff;stroke-linejoin:miter;stroke-width:1.5;" x="157.976006" xlink:href="#mc0b503429a" y="297.633708"/>
     <use style="fill-opacity:0;stroke:#ff00ff;stroke-linejoin:miter;stroke-width:1.5;" x="232.538969" xlink:href="#mc0b503429a" y="283.657258"/>
     <use style="fill-opacity:0;stroke:#ff00ff;stroke-linejoin:miter;stroke-width:1.5;" x="256.650948" xlink:href="#mc0b503429a" y="279.726381"/>
     <use style="fill-opacity:0;stroke:#ff00ff;stroke-linejoin:miter;stroke-width:1.5;" x="256.650948" xlink:href="#mc0b503429a" y="279.289617"/>
     <use style="fill-opacity:0;stroke:#ff00ff;stroke-linejoin:miter;stroke-width:1.5;" x="338.688" xlink:href="#mc0b503429a" y="279.289617"/>
    </g>
   </g>
   <g id="line2d_37">
    <path style="fill:none;stroke:#ff00ff;stroke-linecap:square;stroke-width:1.5;"/>
    <g/>
   </g>
   <g id="line2d_38">
    <path clip-path="url(#pa9c0b11e2f)" d="M 205.631999 291.519011 
" style="fill:none;stroke:#ff00ff;stroke-linecap:square;stroke-width:1.5;"/>
    <defs>
     <path d="M -12 12 
L 12 -12 
M -12 -12 
L 12 12 
" id="mecdcff6435" style="stroke:#ff00ff;"/>
    </defs>
    <g clip-path="url(#pa9c0b11e2f)">
     <use style="fill:#ff00ff;stroke:#ff00ff;" x="205.631999" xlink:href="#mecdcff6435" y="291.519011"/>
    </g>
   </g>
   <g id="line2d_39">
    <defs>
     <path d="M 0 1.5 
C 0.397805 1.5 0.77937 1.341951 1.06066 1.06066 
C 1.341951 0.77937 1.5 0.397805 1.5 0 
C 1.5 -0.397805 1.341951 -0.77937 1.06066 -1.06066 
C 0.77937 -1.341951 0.397805 -1.5 0 -1.5 
C -0.397805 -1.5 -0.77937 -1.341951 -1.06066 -1.06066 
C -1.341951 -0.77937 -1.5 -0.397805 -1.5 0 
C -1.5 0.397805 -1.341951 0.77937 -1.06066 1.06066 
C -0.77937 1.341951 -0.397805 1.5 0 1.5 
z
" id="me68e24bcfb" style="stroke:#ff7500;"/>
    </defs>
    <g>
     <use style="fill:#ff7500;stroke:#ff7500;" x="286.160335" xlink:href="#me68e24bcfb" y="30.334099"/>
     <use style="fill:#ff7500;stroke:#ff7500;" x="286.160335" xlink:href="#me68e24bcfb" y="30.334099"/>
    </g>
   </g>
   <g id="line2d_40">
    <path d="M 117.145424 298.944 
L 117.145424 298.507236 
L 154.547439 298.507236 
L 154.547439 298.070472 
L 159.344703 298.070472 
L 159.344703 297.633708 
L 173.435646 297.633708 
L 173.435646 297.196944 
L 177.274266 297.196944 
L 177.274266 296.76018 
L 178.496907 296.76018 
L 178.496907 296.323416 
L 179.333994 296.323416 
L 179.333994 295.886652 
L 181.701966 295.886652 
L 181.701966 295.449887 
L 182.455616 295.449887 
L 182.566445 294.139595 
L 182.671218 294.139595 
L 182.671218 293.702831 
L 182.820568 293.702831 
L 182.820568 293.266067 
L 183.274039 293.266067 
L 183.274039 292.829303 
L 184.884354 292.829303 
L 184.884354 292.392539 
L 185.015972 292.392539 
L 185.015972 291.955775 
L 189.268932 291.955775 
L 189.268932 291.519011 
L 189.415098 291.519011 
L 189.415098 291.082247 
L 192.762145 291.082247 
L 192.778656 290.208719 
L 192.874411 290.208719 
L 192.874411 289.771955 
L 196.215357 289.771955 
L 196.215357 289.335191 
L 199.128849 289.335191 
L 199.128849 288.898426 
L 202.044077 288.898426 
L 202.132925 288.024898 
L 202.178493 288.024898 
L 202.178493 287.588134 
L 203.303615 287.588134 
L 203.303615 287.15137 
L 205.242879 287.15137 
L 205.321985 286.277842 
L 205.421093 286.277842 
L 205.421093 285.841078 
L 207.224755 285.841078 
L 207.224755 285.404314 
L 207.963742 285.404314 
L 207.963742 284.96755 
L 209.096861 284.96755 
L 209.112157 283.220494 
L 209.725179 283.220494 
L 209.827638 271.427864 
L 209.873296 271.427864 
L 209.87611 267.933751 
L 210.549611 267.933751 
L 210.556649 267.060223 
L 211.607498 267.060223 
L 211.607498 266.623459 
L 213.350163 266.623459 
L 213.350163 266.186695 
L 214.020143 266.186695 
L 214.020143 265.749931 
L 214.837268 265.749931 
L 214.837268 265.313167 
L 215.350943 265.313167 
L 215.350943 264.876403 
L 215.897008 264.876403 
L 215.897008 264.439639 
L 216.98686 264.439639 
L 217.00856 263.566111 
L 217.159341 263.566111 
L 217.159341 263.129347 
L 217.526876 263.129347 
L 217.618464 259.635234 
L 217.639393 259.635234 
L 217.745456 257.451414 
L 217.796638 257.451414 
L 217.805927 256.577886 
L 218.905025 256.577886 
L 218.985665 254.830829 
L 219.617709 254.830829 
L 219.617709 254.394065 
L 219.798989 254.394065 
L 219.833685 253.520537 
L 220.637211 253.520537 
L 220.710243 252.647009 
L 221.315901 252.647009 
L 221.315901 252.210245 
L 221.524364 252.210245 
L 221.560979 251.336717 
L 222.119873 251.336717 
L 222.119873 250.899953 
L 222.313481 250.899953 
L 222.313481 250.463189 
L 222.588522 250.463189 
L 222.694367 249.152896 
L 222.912413 249.152896 
L 222.912413 248.716132 
L 223.025321 248.716132 
L 223.12329 247.842604 
L 224.031653 247.842604 
L 224.044647 246.969076 
L 224.533775 246.969076 
L 224.620506 245.658784 
L 224.660575 245.658784 
L 224.660575 245.22202 
L 224.921897 245.22202 
L 224.921897 244.785256 
L 225.221203 244.785256 
L 225.221203 244.348492 
L 225.389197 244.348492 
L 225.447833 243.038199 
L 225.971796 243.038199 
L 226.075481 242.164671 
L 226.153562 242.164671 
L 226.250014 241.291143 
L 226.498276 241.291143 
L 226.587881 239.980851 
L 226.720573 239.980851 
L 226.793691 238.233795 
L 226.859492 238.233795 
L 226.92208 237.360267 
L 226.981912 237.360267 
L 226.981912 236.923503 
L 227.233567 236.923503 
L 227.343065 235.61321 
L 227.348439 235.61321 
L 227.348439 235.176446 
L 227.518931 235.176446 
L 227.574101 234.302918 
L 228.135189 234.302918 
L 228.135189 233.866154 
L 228.408424 233.866154 
L 228.408424 233.42939 
L 228.809654 233.42939 
L 228.809654 232.992626 
L 228.986647 232.992626 
L 228.986647 232.555862 
L 229.211335 232.555862 
L 229.304877 230.808806 
L 229.407473 230.808806 
L 229.488642 229.498513 
L 229.561973 229.498513 
L 229.561973 229.061749 
L 229.727923 229.061749 
L 229.766466 227.751457 
L 230.057105 227.751457 
L 230.133904 226.877929 
L 230.251358 226.877929 
L 230.277934 226.004401 
L 230.366289 226.004401 
L 230.366289 225.567637 
L 230.762768 225.567637 
L 230.762768 225.130873 
L 230.91284 225.130873 
L 230.919914 224.257345 
L 231.026352 224.257345 
L 231.090338 223.383816 
L 231.298703 223.383816 
L 231.349381 222.510288 
L 231.685241 222.510288 
L 231.705053 221.199996 
L 232.138305 221.199996 
L 232.211486 220.326468 
L 232.585254 220.326468 
L 232.585254 219.889704 
L 232.70697 219.889704 
L 232.767814 219.016176 
L 233.174565 219.016176 
L 233.174565 218.579412 
L 233.426948 218.579412 
L 233.464245 217.26912 
L 233.670411 217.26912 
L 233.670411 216.832355 
L 233.792807 216.832355 
L 233.792807 216.395591 
L 233.905697 216.395591 
L 233.957272 215.085299 
L 234.287451 215.085299 
L 234.396918 212.901479 
L 234.422008 212.901479 
L 234.438256 212.027951 
L 234.533648 212.027951 
L 234.533648 211.591187 
L 234.739662 211.591187 
L 234.78991 210.717659 
L 235.05708 210.717659 
L 235.168039 209.407366 
L 235.18664 209.407366 
L 235.279609 208.533838 
L 235.352636 208.533838 
L 235.420156 207.223546 
L 235.498169 207.223546 
L 235.586919 206.350018 
L 235.774936 206.350018 
L 235.855315 205.47649 
L 236.035578 205.47649 
L 236.103512 204.166198 
L 236.198078 204.166198 
L 236.198078 203.729433 
L 236.39393 203.729433 
L 236.424661 202.855905 
L 236.539725 202.855905 
L 236.609495 201.982377 
L 236.737469 201.982377 
L 236.782647 201.108849 
L 236.974578 201.108849 
L 237.08277 199.361793 
L 237.104636 199.361793 
L 237.104636 198.925029 
L 237.238772 198.925029 
L 237.335205 198.051501 
L 237.403495 198.051501 
L 237.502372 197.177972 
L 237.548147 197.177972 
L 237.548147 196.741208 
L 237.802495 196.741208 
L 237.802495 196.304444 
L 238.068951 196.304444 
L 238.11215 194.994152 
L 238.201888 194.994152 
L 238.29547 194.120624 
L 238.365494 194.120624 
L 238.365494 193.68386 
L 238.518214 193.68386 
L 238.518214 193.247096 
L 238.700031 193.247096 
L 238.721576 192.373568 
L 238.871543 192.373568 
L 238.962033 191.063276 
L 239.042335 191.063276 
L 239.129948 190.189747 
L 239.197334 190.189747 
L 239.302302 188.879455 
L 239.32374 188.879455 
L 239.328108 188.005927 
L 239.473382 188.005927 
L 239.571068 186.695635 
L 239.637693 186.695635 
L 239.678912 184.948579 
L 239.908319 184.948579 
L 239.988594 184.07505 
L 240.046164 184.07505 
L 240.122829 182.327994 
L 240.375024 182.327994 
L 240.375024 181.89123 
L 240.70635 181.89123 
L 240.807226 180.144174 
L 240.828515 180.144174 
L 240.828515 179.70741 
L 240.940922 179.70741 
L 240.940922 179.270646 
L 241.052515 179.270646 
L 241.105181 177.960354 
L 241.179488 177.960354 
L 241.179488 177.523589 
L 241.320298 177.523589 
L 241.320298 177.086825 
L 241.525646 177.086825 
L 241.636121 175.339769 
L 242.139785 175.339769 
L 242.16649 174.466241 
L 242.381552 174.466241 
L 242.481807 173.155949 
L 242.593736 173.155949 
L 242.654245 171.845657 
L 242.811546 171.845657 
L 242.897422 170.972128 
L 242.994089 170.972128 
L 243.096422 169.661836 
L 243.199825 169.661836 
L 243.199825 169.225072 
L 243.476511 169.225072 
L 243.579728 167.91478 
L 243.59162 167.91478 
L 243.59162 167.478016 
L 243.712202 167.478016 
L 243.809454 166.167724 
L 243.919757 166.167724 
L 243.927187 165.294196 
L 244.069342 165.294196 
L 244.069342 164.857432 
L 244.190375 164.857432 
L 244.190375 164.420667 
L 244.324555 164.420667 
L 244.324555 163.983903 
L 244.560226 163.983903 
L 244.560226 163.547139 
L 244.851939 163.547139 
L 244.946747 162.236847 
L 245.194278 162.236847 
L 245.194278 161.800083 
L 245.372373 161.800083 
L 245.44413 160.489791 
L 245.485305 160.489791 
L 245.575431 158.742735 
L 245.62956 158.742735 
L 245.725936 157.869206 
L 245.907126 157.869206 
L 245.965993 156.995678 
L 246.024592 156.995678 
L 246.094778 156.12215 
L 246.348904 156.12215 
L 246.450452 155.248622 
L 246.501936 155.248622 
L 246.57874 154.375094 
L 246.666338 154.375094 
L 246.741812 153.501566 
L 246.792512 153.501566 
L 246.811478 152.191274 
L 246.977897 152.191274 
L 247.002556 151.317745 
L 247.125664 151.317745 
L 247.234038 149.570689 
L 247.458899 149.570689 
L 247.555176 147.386869 
L 247.69429 147.386869 
L 247.743518 146.513341 
L 247.832176 146.513341 
L 247.943049 145.639813 
L 247.95827 145.639813 
L 247.966065 144.32952 
L 248.512342 144.32952 
L 248.588873 143.019228 
L 248.637959 143.019228 
L 248.637959 142.582464 
L 248.764978 142.582464 
L 248.764978 142.1457 
L 249.019494 142.1457 
L 249.077019 141.272172 
L 249.158988 141.272172 
L 249.158988 140.835408 
L 249.331917 140.835408 
L 249.420862 139.96188 
L 249.459117 139.96188 
L 249.459117 139.525116 
L 249.683858 139.525116 
L 249.746618 138.651588 
L 249.863339 138.651588 
L 249.918944 136.031003 
L 250.118899 136.031003 
L 250.197686 134.283947 
L 250.257238 134.283947 
L 250.314538 133.410419 
L 250.498474 133.410419 
L 250.515782 132.536891 
L 250.887228 132.536891 
L 250.887228 132.100127 
L 251.136929 132.100127 
L 251.136929 131.663362 
L 251.366115 131.663362 
L 251.384198 130.35307 
L 251.537328 130.35307 
L 251.574976 129.479542 
L 251.677606 129.479542 
L 251.746559 128.16925 
L 251.823622 128.16925 
L 251.823622 127.732486 
L 251.941256 127.732486 
L 252.040956 126.422194 
L 252.079836 126.422194 
L 252.150161 125.548666 
L 252.194915 125.548666 
L 252.258587 124.238373 
L 252.495834 124.238373 
L 252.495834 123.801609 
L 252.673343 123.801609 
L 252.673343 123.364845 
L 252.788285 123.364845 
L 252.788285 122.928081 
L 253.145777 122.928081 
L 253.237717 122.054553 
L 253.289997 122.054553 
L 253.387962 120.307497 
L 253.508589 120.307497 
L 253.508589 119.870733 
L 253.808119 119.870733 
L 253.89849 118.56044 
L 253.96649 118.56044 
L 253.96649 118.123676 
L 254.127486 118.123676 
L 254.127486 117.686912 
L 254.307238 117.686912 
L 254.307238 117.250148 
L 254.422829 117.250148 
L 254.422829 116.813384 
L 254.67875 116.813384 
L 254.767906 115.066328 
L 254.812035 115.066328 
L 254.883817 114.1928 
L 254.964469 114.1928 
L 255.024302 112.882508 
L 255.158884 112.882508 
L 255.1793 111.572215 
L 255.357045 111.572215 
L 255.357045 111.135451 
L 255.578961 111.135451 
L 255.657651 108.951631 
L 255.753955 108.951631 
L 255.805083 107.204575 
L 255.876683 107.204575 
L 255.980355 106.331047 
L 256.224859 106.331047 
L 256.27317 105.457518 
L 256.346327 105.457518 
L 256.40735 104.58399 
L 256.498837 104.58399 
L 256.498837 104.147226 
L 256.645903 104.147226 
L 256.645903 103.710462 
L 257.074243 103.710462 
L 257.15288 102.836934 
L 257.18738 102.836934 
L 257.257887 101.963406 
L 257.30613 101.963406 
L 257.378782 100.21635 
L 257.441456 100.21635 
L 257.522634 98.906057 
L 257.564598 98.906057 
L 257.642333 97.595765 
L 257.729751 97.595765 
L 257.781437 96.722237 
L 257.90325 96.722237 
L 257.90325 96.285473 
L 258.172535 96.285473 
L 258.240302 94.975181 
L 258.321038 94.975181 
L 258.321038 94.538417 
L 258.603047 94.538417 
L 258.645653 93.664889 
L 258.733528 93.664889 
L 258.837649 92.791361 
L 258.958029 92.791361 
L 259.056126 90.60754 
L 259.12279 90.60754 
L 259.185937 88.42372 
L 259.677513 88.42372 
L 259.677513 87.986956 
L 260.041313 87.986956 
L 260.041313 87.550192 
L 260.16106 87.550192 
L 260.168143 86.676664 
L 260.372344 86.676664 
L 260.481749 85.803135 
L 260.572276 85.803135 
L 260.613713 84.929607 
L 260.785198 84.929607 
L 260.878489 84.056079 
L 260.966112 84.056079 
L 260.966112 83.619315 
L 261.245467 83.619315 
L 261.291683 82.309023 
L 261.366685 82.309023 
L 261.38997 81.435495 
L 261.541405 81.435495 
L 261.589716 80.561967 
L 261.742855 80.561967 
L 261.84796 79.688439 
L 261.882142 79.688439 
L 261.882142 79.251674 
L 262.001579 79.251674 
L 262.00376 78.378146 
L 262.328522 78.378146 
L 262.328522 77.941382 
L 262.444039 77.941382 
L 262.478258 76.63109 
L 262.5625 76.63109 
L 262.607027 75.757562 
L 262.700915 75.757562 
L 262.803692 74.884034 
L 262.982476 74.884034 
L 263.072345 73.573742 
L 263.15987 73.573742 
L 263.15987 73.136978 
L 263.465779 73.136978 
L 263.465779 72.700213 
L 263.808715 72.700213 
L 263.903127 70.953157 
L 264.00615 70.953157 
L 264.117052 70.079629 
L 264.187707 70.079629 
L 264.281785 68.769337 
L 264.425458 68.769337 
L 264.521527 67.022281 
L 264.553106 67.022281 
L 264.604945 65.711988 
L 264.689593 65.711988 
L 264.689593 65.275224 
L 264.877763 65.275224 
L 264.964567 63.964932 
L 265.033281 63.964932 
L 265.07122 63.091404 
L 265.169926 63.091404 
L 265.169926 62.65464 
L 265.295707 62.65464 
L 265.296199 61.781112 
L 265.67029 61.781112 
L 265.720451 60.907584 
L 265.839063 60.907584 
L 265.933212 60.034056 
L 266.360858 60.034056 
L 266.458868 58.723763 
L 266.474506 58.723763 
L 266.559711 57.850235 
L 266.64346 57.850235 
L 266.64346 57.413471 
L 266.872209 57.413471 
L 266.92508 56.539943 
L 267.021848 56.539943 
L 267.096897 55.229651 
L 267.235438 55.229651 
L 267.316972 53.919359 
L 267.495496 53.919359 
L 267.549811 53.04583 
L 267.750163 53.04583 
L 267.750163 52.609066 
L 267.866494 52.609066 
L 267.954625 51.298774 
L 268.022143 51.298774 
L 268.022143 50.86201 
L 268.206475 50.86201 
L 268.213024 49.988482 
L 268.426496 49.988482 
L 268.493289 48.67819 
L 268.68305 48.67819 
L 268.68305 48.241426 
L 268.855303 48.241426 
L 268.942737 47.367898 
L 269.028806 47.367898 
L 269.069491 46.057605 
L 269.140965 46.057605 
L 269.22157 43.873785 
L 269.252856 43.873785 
L 269.252856 43.437021 
L 269.507774 43.437021 
L 269.596514 42.563493 
L 270.015699 42.563493 
L 270.104712 41.689965 
L 270.411913 41.689965 
L 270.411913 41.253201 
L 270.527192 41.253201 
L 270.527192 40.816437 
L 270.653794 40.816437 
L 270.653794 40.379673 
L 271.0575 40.379673 
L 271.092999 39.506144 
L 271.336629 39.506144 
L 271.336629 39.06938 
L 271.615475 39.06938 
L 271.615475 38.632616 
L 271.837333 38.632616 
L 271.837333 38.195852 
L 272.037563 38.195852 
L 272.037563 37.759088 
L 272.256761 37.759088 
L 272.256761 37.322324 
L 272.817152 37.322324 
L 272.928149 36.448796 
L 273.403205 36.448796 
L 273.403205 36.012032 
L 273.981809 36.012032 
L 274.014108 35.138504 
L 274.347747 35.138504 
L 274.347747 34.70174 
L 274.814662 34.70174 
L 274.814662 34.264976 
L 275.00628 34.264976 
L 275.00628 33.828212 
L 277.316457 33.828212 
L 277.316457 33.391447 
L 277.833488 33.391447 
L 277.841727 32.517919 
L 278.644863 32.517919 
L 278.644863 32.081155 
L 278.975202 32.081155 
L 278.975202 31.644391 
L 279.136246 31.644391 
L 279.136246 31.207627 
L 281.69993 31.207627 
L 281.69993 30.770863 
L 286.160335 30.770863 
L 286.160335 30.334099 
L 338.688 30.334099 
L 338.688 30.334099 
" style="fill:none;stroke:#ff7500;stroke-linecap:square;stroke-width:1.5;"/>
   </g>
   <g id="line2d_41">
    <defs>
     <path d="M 0 -6 
L -1.347084 -1.854102 
L -5.706339 -1.854102 
L -2.179628 0.708204 
L -3.526712 4.854102 
L -0 2.291796 
L 3.526712 4.854102 
L 2.179628 0.708204 
L 5.706339 -1.854102 
L 1.347084 -1.854102 
z
" id="m454e8cbd53" style="stroke:#ff7500;stroke-linejoin:bevel;stroke-width:1.5;"/>
    </defs>
    <g>
     <use style="fill-opacity:0;stroke:#ff7500;stroke-linejoin:bevel;stroke-width:1.5;" x="185.015972" xlink:href="#m454e8cbd53" y="292.392539"/>
     <use style="fill-opacity:0;stroke:#ff7500;stroke-linejoin:bevel;stroke-width:1.5;" x="236.035578" xlink:href="#m454e8cbd53" y="205.039726"/>
     <use style="fill-opacity:0;stroke:#ff7500;stroke-linejoin:bevel;stroke-width:1.5;" x="274.814662" xlink:href="#m454e8cbd53" y="34.264976"/>
     <use style="fill-opacity:0;stroke:#ff7500;stroke-linejoin:bevel;stroke-width:1.5;" x="286.160335" xlink:href="#m454e8cbd53" y="30.334099"/>
     <use style="fill-opacity:0;stroke:#ff7500;stroke-linejoin:bevel;stroke-width:1.5;" x="338.688" xlink:href="#m454e8cbd53" y="30.334099"/>
    </g>
   </g>
   <g id="line2d_42">
    <path style="fill:none;stroke:#ff7500;stroke-linecap:square;stroke-width:1.5;"/>
    <g/>
   </g>
   <g id="line2d_43">
    <path clip-path="url(#pa9c0b11e2f)" d="M 203.303615 287.15137 
" style="fill:none;stroke:#ff7500;stroke-linecap:square;stroke-width:1.5;"/>
    <defs>
     <path d="M -12 12 
L 12 -12 
M -12 -12 
L 12 12 
" id="mbb2f6eef17" style="stroke:#ff7500;"/>
    </defs>
    <g clip-path="url(#pa9c0b11e2f)">
     <use style="fill:#ff7500;stroke:#ff7500;" x="203.303615" xlink:href="#mbb2f6eef17" y="287.15137"/>
    </g>
   </g>
   <g id="line2d_44">
    <path d="M 338.688 279.289617 
L 369.60768 293.571802 
" style="fill:none;stroke:#ff00ff;stroke-linecap:square;stroke-width:1.5;"/>
    <g>
     <use style="fill-opacity:0;stroke:#ff00ff;stroke-linejoin:miter;stroke-width:1.5;" x="338.688" xlink:href="#mc0b503429a" y="279.289617"/>
     <use style="fill-opacity:0;stroke:#ff00ff;stroke-linejoin:miter;stroke-width:1.5;" x="369.60768" xlink:href="#mc0b503429a" y="293.571802"/>
    </g>
   </g>
   <g id="line2d_45">
    <path d="M 338.688 43.437021 
L 369.60768 164.63905 
" style="fill:none;stroke:#000080;stroke-linecap:square;stroke-width:1.5;"/>
    <g>
     <use style="fill-opacity:0;stroke:#000080;stroke-width:1.5;" x="338.688" xlink:href="#mdcdf9262af" y="43.437021"/>
     <use style="fill-opacity:0;stroke:#000080;stroke-width:1.5;" x="369.60768" xlink:href="#mdcdf9262af" y="164.63905"/>
    </g>
   </g>
   <g id="line2d_46">
    <path d="M 338.688 30.334099 
L 369.60768 35.706297 
" style="fill:none;stroke:#ff7500;stroke-linecap:square;stroke-width:1.5;"/>
    <g>
     <use style="fill-opacity:0;stroke:#ff7500;stroke-linejoin:bevel;stroke-width:1.5;" x="338.688" xlink:href="#m454e8cbd53" y="30.334099"/>
     <use style="fill-opacity:0;stroke:#ff7500;stroke-linejoin:bevel;stroke-width:1.5;" x="369.60768" xlink:href="#m454e8cbd53" y="35.706297"/>
    </g>
   </g>
   <g id="line2d_47">
    <path d="M 338.688 298.944 
L 338.688 30.334099 
" style="fill:none;stroke:#000000;stroke-linecap:square;stroke-width:1.5;"/>
   </g>
   <g id="patch_3">
    <path d="M 57.6 298.944 
L 57.6 27.648 
" style="fill:none;stroke:#000000;stroke-linecap:square;stroke-linejoin:miter;stroke-width:0.8;"/>
   </g>
   <g id="patch_4">
    <path d="M 338.688 298.944 
L 338.688 27.648 
" style="fill:none;stroke:#000000;stroke-linecap:square;stroke-linejoin:miter;stroke-width:0.8;"/>
   </g>
   <g id="patch_5">
    <path d="M 57.6 298.944 
L 338.688 298.944 
" style="fill:none;stroke:#000000;stroke-linecap:square;stroke-linejoin:miter;stroke-width:0.8;"/>
   </g>
   <g id="patch_6">
    <path d="M 57.6 27.648 
L 338.688 27.648 
" style="fill:none;stroke:#000000;stroke-linecap:square;stroke-linejoin:miter;stroke-width:0.8;"/>
   </g>
   <g id="text_13">
    <!-- fmincon -->
    <g transform="translate(375.22944 298.262739)scale(0.17 -0.17)">
     <use xlink:href="#DejaVuSans-102"/>
     <use x="35.205078" xlink:href="#DejaVuSans-109"/>
     <use x="132.617188" xlink:href="#DejaVuSans-105"/>
     <use x="160.400391" xlink:href="#DejaVuSans-110"/>
     <use x="223.779297" xlink:href="#DejaVuSans-99"/>
     <use x="278.759766" xlink:href="#DejaVuSans-111"/>
     <use x="339.941406" xlink:href="#DejaVuSans-110"/>
    </g>
   </g>
   <g id="text_14">
    <!-- cobyla -->
    <g transform="translate(375.22944 169.329987)scale(0.17 -0.17)">
     <defs>
      <path d="M 48.6875 27.296875 
Q 48.6875 37.203125 44.609375 42.84375 
Q 40.53125 48.484375 33.40625 48.484375 
Q 26.265625 48.484375 22.1875 42.84375 
Q 18.109375 37.203125 18.109375 27.296875 
Q 18.109375 17.390625 22.1875 11.75 
Q 26.265625 6.109375 33.40625 6.109375 
Q 40.53125 6.109375 44.609375 11.75 
Q 48.6875 17.390625 48.6875 27.296875 
z
M 18.109375 46.390625 
Q 20.953125 51.265625 25.265625 53.625 
Q 29.59375 56 35.59375 56 
Q 45.5625 56 51.78125 48.09375 
Q 58.015625 40.1875 58.015625 27.296875 
Q 58.015625 14.40625 51.78125 6.484375 
Q 45.5625 -1.421875 35.59375 -1.421875 
Q 29.59375 -1.421875 25.265625 0.953125 
Q 20.953125 3.328125 18.109375 8.203125 
L 18.109375 0 
L 9.078125 0 
L 9.078125 75.984375 
L 18.109375 75.984375 
z
" id="DejaVuSans-98"/>
      <path d="M 32.171875 -5.078125 
Q 28.375 -14.84375 24.75 -17.8125 
Q 21.140625 -20.796875 15.09375 -20.796875 
L 7.90625 -20.796875 
L 7.90625 -13.28125 
L 13.1875 -13.28125 
Q 16.890625 -13.28125 18.9375 -11.515625 
Q 21 -9.765625 23.484375 -3.21875 
L 25.09375 0.875 
L 2.984375 54.6875 
L 12.5 54.6875 
L 29.59375 11.921875 
L 46.6875 54.6875 
L 56.203125 54.6875 
z
" id="DejaVuSans-121"/>
     </defs>
     <use xlink:href="#DejaVuSans-99"/>
     <use x="54.980469" xlink:href="#DejaVuSans-111"/>
     <use x="116.162109" xlink:href="#DejaVuSans-98"/>
     <use x="179.638672" xlink:href="#DejaVuSans-121"/>
     <use x="238.818359" xlink:href="#DejaVuSans-108"/>
     <use x="266.601562" xlink:href="#DejaVuSans-97"/>
    </g>
   </g>
   <g id="text_15">
    <!-- slsqp -->
    <g transform="translate(375.22944 40.397235)scale(0.17 -0.17)">
     <defs>
      <path d="M 14.796875 27.296875 
Q 14.796875 17.390625 18.875 11.75 
Q 22.953125 6.109375 30.078125 6.109375 
Q 37.203125 6.109375 41.296875 11.75 
Q 45.40625 17.390625 45.40625 27.296875 
Q 45.40625 37.203125 41.296875 42.84375 
Q 37.203125 48.484375 30.078125 48.484375 
Q 22.953125 48.484375 18.875 42.84375 
Q 14.796875 37.203125 14.796875 27.296875 
z
M 45.40625 8.203125 
Q 42.578125 3.328125 38.25 0.953125 
Q 33.9375 -1.421875 27.875 -1.421875 
Q 17.96875 -1.421875 11.734375 6.484375 
Q 5.515625 14.40625 5.515625 27.296875 
Q 5.515625 40.1875 11.734375 48.09375 
Q 17.96875 56 27.875 56 
Q 33.9375 56 38.25 53.625 
Q 42.578125 51.265625 45.40625 46.390625 
L 45.40625 54.6875 
L 54.390625 54.6875 
L 54.390625 -20.796875 
L 45.40625 -20.796875 
z
" id="DejaVuSans-113"/>
     </defs>
     <use xlink:href="#DejaVuSans-115"/>
     <use x="52.099609" xlink:href="#DejaVuSans-108"/>
     <use x="79.882812" xlink:href="#DejaVuSans-115"/>
     <use x="131.982422" xlink:href="#DejaVuSans-113"/>
     <use x="195.458984" xlink:href="#DejaVuSans-112"/>
    </g>
   </g>
   <g id="text_16">
    <!-- bbob-constrained f43, 5-D -->
    <g transform="translate(60.41088 38.111366)scale(0.102 -0.102)">
     <defs>
      <path d="M 40.578125 39.3125 
Q 47.65625 37.796875 51.625 33 
Q 55.609375 28.21875 55.609375 21.1875 
Q 55.609375 10.40625 48.1875 4.484375 
Q 40.765625 -1.421875 27.09375 -1.421875 
Q 22.515625 -1.421875 17.65625 -0.515625 
Q 12.796875 0.390625 7.625 2.203125 
L 7.625 11.71875 
Q 11.71875 9.328125 16.59375 8.109375 
Q 21.484375 6.890625 26.8125 6.890625 
Q 36.078125 6.890625 40.9375 10.546875 
Q 45.796875 14.203125 45.796875 21.1875 
Q 45.796875 27.640625 41.28125 31.265625 
Q 36.765625 34.90625 28.71875 34.90625 
L 20.21875 34.90625 
L 20.21875 43.015625 
L 29.109375 43.015625 
Q 36.375 43.015625 40.234375 45.921875 
Q 44.09375 48.828125 44.09375 54.296875 
Q 44.09375 59.90625 40.109375 62.90625 
Q 36.140625 65.921875 28.71875 65.921875 
Q 24.65625 65.921875 20.015625 65.03125 
Q 15.375 64.15625 9.8125 62.3125 
L 9.8125 71.09375 
Q 15.4375 72.65625 20.34375 73.4375 
Q 25.25 74.21875 29.59375 74.21875 
Q 40.828125 74.21875 47.359375 69.109375 
Q 53.90625 64.015625 53.90625 55.328125 
Q 53.90625 49.265625 50.4375 45.09375 
Q 46.96875 40.921875 40.578125 39.3125 
z
" id="DejaVuSans-51"/>
      <path d="M 10.796875 72.90625 
L 49.515625 72.90625 
L 49.515625 64.59375 
L 19.828125 64.59375 
L 19.828125 46.734375 
Q 21.96875 47.46875 24.109375 47.828125 
Q 26.265625 48.1875 28.421875 48.1875 
Q 40.625 48.1875 47.75 41.5 
Q 54.890625 34.8125 54.890625 23.390625 
Q 54.890625 11.625 47.5625 5.09375 
Q 40.234375 -1.421875 26.90625 -1.421875 
Q 22.3125 -1.421875 17.546875 -0.640625 
Q 12.796875 0.140625 7.71875 1.703125 
L 7.71875 11.625 
Q 12.109375 9.234375 16.796875 8.0625 
Q 21.484375 6.890625 26.703125 6.890625 
Q 35.15625 6.890625 40.078125 11.328125 
Q 45.015625 15.765625 45.015625 23.390625 
Q 45.015625 31 40.078125 35.4375 
Q 35.15625 39.890625 26.703125 39.890625 
Q 22.75 39.890625 18.8125 39.015625 
Q 14.890625 38.140625 10.796875 36.28125 
z
" id="DejaVuSans-53"/>
      <path d="M 19.671875 64.796875 
L 19.671875 8.109375 
L 31.59375 8.109375 
Q 46.6875 8.109375 53.6875 14.9375 
Q 60.6875 21.78125 60.6875 36.53125 
Q 60.6875 51.171875 53.6875 57.984375 
Q 46.6875 64.796875 31.59375 64.796875 
z
M 9.8125 72.90625 
L 30.078125 72.90625 
Q 51.265625 72.90625 61.171875 64.09375 
Q 71.09375 55.28125 71.09375 36.53125 
Q 71.09375 17.671875 61.125 8.828125 
Q 51.171875 0 30.078125 0 
L 9.8125 0 
z
" id="DejaVuSans-68"/>
     </defs>
     <use xlink:href="#DejaVuSans-98"/>
     <use x="63.476562" xlink:href="#DejaVuSans-98"/>
     <use x="126.953125" xlink:href="#DejaVuSans-111"/>
     <use x="188.134766" xlink:href="#DejaVuSans-98"/>
     <use x="251.611328" xlink:href="#DejaVuSans-45"/>
     <use x="287.695312" xlink:href="#DejaVuSans-99"/>
     <use x="342.675781" xlink:href="#DejaVuSans-111"/>
     <use x="403.857422" xlink:href="#DejaVuSans-110"/>
     <use x="467.236328" xlink:href="#DejaVuSans-115"/>
     <use x="519.335938" xlink:href="#DejaVuSans-116"/>
     <use x="558.544922" xlink:href="#DejaVuSans-114"/>
     <use x="599.658203" xlink:href="#DejaVuSans-97"/>
     <use x="660.9375" xlink:href="#DejaVuSans-105"/>
     <use x="688.720703" xlink:href="#DejaVuSans-110"/>
     <use x="752.099609" xlink:href="#DejaVuSans-101"/>
     <use x="813.623047" xlink:href="#DejaVuSans-100"/>
     <use x="877.099609" xlink:href="#DejaVuSans-32"/>
     <use x="908.886719" xlink:href="#DejaVuSans-102"/>
     <use x="944.091797" xlink:href="#DejaVuSans-52"/>
     <use x="1007.714844" xlink:href="#DejaVuSans-51"/>
     <use x="1071.337891" xlink:href="#DejaVuSans-44"/>
     <use x="1103.125" xlink:href="#DejaVuSans-32"/>
     <use x="1134.912109" xlink:href="#DejaVuSans-53"/>
     <use x="1198.535156" xlink:href="#DejaVuSans-45"/>
     <use x="1234.619141" xlink:href="#DejaVuSans-68"/>
    </g>
    <!-- 41 targets: 100..1e-06 -->
    <g transform="translate(60.41088 49.533135)scale(0.102 -0.102)">
     <defs>
      <path d="M 11.71875 12.40625 
L 22.015625 12.40625 
L 22.015625 0 
L 11.71875 0 
z
M 11.71875 51.703125 
L 22.015625 51.703125 
L 22.015625 39.3125 
L 11.71875 39.3125 
z
" id="DejaVuSans-58"/>
     </defs>
     <use xlink:href="#DejaVuSans-52"/>
     <use x="63.623047" xlink:href="#DejaVuSans-49"/>
     <use x="127.246094" xlink:href="#DejaVuSans-32"/>
     <use x="159.033203" xlink:href="#DejaVuSans-116"/>
     <use x="198.242188" xlink:href="#DejaVuSans-97"/>
     <use x="259.521484" xlink:href="#DejaVuSans-114"/>
     <use x="298.884766" xlink:href="#DejaVuSans-103"/>
     <use x="362.361328" xlink:href="#DejaVuSans-101"/>
     <use x="423.884766" xlink:href="#DejaVuSans-116"/>
     <use x="463.09375" xlink:href="#DejaVuSans-115"/>
     <use x="515.193359" xlink:href="#DejaVuSans-58"/>
     <use x="548.884766" xlink:href="#DejaVuSans-32"/>
     <use x="580.671875" xlink:href="#DejaVuSans-49"/>
     <use x="644.294922" xlink:href="#DejaVuSans-48"/>
     <use x="707.917969" xlink:href="#DejaVuSans-48"/>
     <use x="771.541016" xlink:href="#DejaVuSans-46"/>
     <use x="803.328125" xlink:href="#DejaVuSans-46"/>
     <use x="835.115234" xlink:href="#DejaVuSans-49"/>
     <use x="898.738281" xlink:href="#DejaVuSans-101"/>
     <use x="960.261719" xlink:href="#DejaVuSans-45"/>
     <use x="996.345703" xlink:href="#DejaVuSans-48"/>
     <use x="1059.96875" xlink:href="#DejaVuSans-54"/>
    </g>
    <!-- 15 instances -->
    <g transform="translate(60.41088 60.954904)scale(0.102 -0.102)">
     <use xlink:href="#DejaVuSans-49"/>
     <use x="63.623047" xlink:href="#DejaVuSans-53"/>
     <use x="127.246094" xlink:href="#DejaVuSans-32"/>
     <use x="159.033203" xlink:href="#DejaVuSans-105"/>
     <use x="186.816406" xlink:href="#DejaVuSans-110"/>
     <use x="250.195312" xlink:href="#DejaVuSans-115"/>
     <use x="302.294922" xlink:href="#DejaVuSans-116"/>
     <use x="341.503906" xlink:href="#DejaVuSans-97"/>
     <use x="402.783203" xlink:href="#DejaVuSans-110"/>
     <use x="466.162109" xlink:href="#DejaVuSans-99"/>
     <use x="521.142578" xlink:href="#DejaVuSans-101"/>
     <use x="582.666016" xlink:href="#DejaVuSans-115"/>
    </g>
   </g>
   <g id="text_17">
    <!-- v2.4.82 -->
    <g style="fill:#808080;" transform="translate(179.2815 294.151352)scale(0.1 -0.1)">
     <use xlink:href="#DejaVuSans-118"/>
     <use x="59.179688" xlink:href="#DejaVuSans-50"/>
     <use x="122.802734" xlink:href="#DejaVuSans-46"/>
     <use x="154.589844" xlink:href="#DejaVuSans-52"/>
     <use x="218.212891" xlink:href="#DejaVuSans-46"/>
     <use x="250" xlink:href="#DejaVuSans-56"/>
     <use x="313.623047" xlink:href="#DejaVuSans-50"/>
    </g>
   </g>
   <g id="text_18">
    <!-- 43 Separable Rastrigin, m=1 -->
    <g transform="translate(53.392437 21.648)scale(0.2 -0.2)">
     <defs>
      <path d="M 53.515625 70.515625 
L 53.515625 60.890625 
Q 47.90625 63.578125 42.921875 64.890625 
Q 37.9375 66.21875 33.296875 66.21875 
Q 25.25 66.21875 20.875 63.09375 
Q 16.5 59.96875 16.5 54.203125 
Q 16.5 49.359375 19.40625 46.890625 
Q 22.3125 44.4375 30.421875 42.921875 
L 36.375 41.703125 
Q 47.40625 39.59375 52.65625 34.296875 
Q 57.90625 29 57.90625 20.125 
Q 57.90625 9.515625 50.796875 4.046875 
Q 43.703125 -1.421875 29.984375 -1.421875 
Q 24.8125 -1.421875 18.96875 -0.25 
Q 13.140625 0.921875 6.890625 3.21875 
L 6.890625 13.375 
Q 12.890625 10.015625 18.65625 8.296875 
Q 24.421875 6.59375 29.984375 6.59375 
Q 38.421875 6.59375 43.015625 9.90625 
Q 47.609375 13.234375 47.609375 19.390625 
Q 47.609375 24.75 44.3125 27.78125 
Q 41.015625 30.8125 33.5 32.328125 
L 27.484375 33.5 
Q 16.453125 35.6875 11.515625 40.375 
Q 6.59375 45.0625 6.59375 53.421875 
Q 6.59375 63.09375 13.40625 68.65625 
Q 20.21875 74.21875 32.171875 74.21875 
Q 37.3125 74.21875 42.625 73.28125 
Q 47.953125 72.359375 53.515625 70.515625 
z
" id="DejaVuSans-83"/>
      <path d="M 44.390625 34.1875 
Q 47.5625 33.109375 50.5625 29.59375 
Q 53.5625 26.078125 56.59375 19.921875 
L 66.609375 0 
L 56 0 
L 46.6875 18.703125 
Q 43.0625 26.03125 39.671875 28.421875 
Q 36.28125 30.8125 30.421875 30.8125 
L 19.671875 30.8125 
L 19.671875 0 
L 9.8125 0 
L 9.8125 72.90625 
L 32.078125 72.90625 
Q 44.578125 72.90625 50.734375 67.671875 
Q 56.890625 62.453125 56.890625 51.90625 
Q 56.890625 45.015625 53.6875 40.46875 
Q 50.484375 35.9375 44.390625 34.1875 
z
M 19.671875 64.796875 
L 19.671875 38.921875 
L 32.078125 38.921875 
Q 39.203125 38.921875 42.84375 42.21875 
Q 46.484375 45.515625 46.484375 51.90625 
Q 46.484375 58.296875 42.84375 61.546875 
Q 39.203125 64.796875 32.078125 64.796875 
z
" id="DejaVuSans-82"/>
      <path d="M 10.59375 45.40625 
L 73.1875 45.40625 
L 73.1875 37.203125 
L 10.59375 37.203125 
z
M 10.59375 25.484375 
L 73.1875 25.484375 
L 73.1875 17.1875 
L 10.59375 17.1875 
z
" id="DejaVuSans-61"/>
     </defs>
     <use xlink:href="#DejaVuSans-52"/>
     <use x="63.623047" xlink:href="#DejaVuSans-51"/>
     <use x="127.246094" xlink:href="#DejaVuSans-32"/>
     <use x="159.033203" xlink:href="#DejaVuSans-83"/>
     <use x="222.509766" xlink:href="#DejaVuSans-101"/>
     <use x="284.033203" xlink:href="#DejaVuSans-112"/>
     <use x="347.509766" xlink:href="#DejaVuSans-97"/>
     <use x="408.789062" xlink:href="#DejaVuSans-114"/>
     <use x="449.902344" xlink:href="#DejaVuSans-97"/>
     <use x="511.181641" xlink:href="#DejaVuSans-98"/>
     <use x="574.658203" xlink:href="#DejaVuSans-108"/>
     <use x="602.441406" xlink:href="#DejaVuSans-101"/>
     <use x="663.964844" xlink:href="#DejaVuSans-32"/>
     <use x="695.751953" xlink:href="#DejaVuSans-82"/>
     <use x="762.984375" xlink:href="#DejaVuSans-97"/>
     <use x="824.263672" xlink:href="#DejaVuSans-115"/>
     <use x="876.363281" xlink:href="#DejaVuSans-116"/>
     <use x="915.572266" xlink:href="#DejaVuSans-114"/>
     <use x="956.685547" xlink:href="#DejaVuSans-105"/>
     <use x="984.46875" xlink:href="#DejaVuSans-103"/>
     <use x="1047.945312" xlink:href="#DejaVuSans-105"/>
     <use x="1075.728516" xlink:href="#DejaVuSans-110"/>
     <use x="1139.107422" xlink:href="#DejaVuSans-44"/>
     <use x="1170.894531" xlink:href="#DejaVuSans-32"/>
     <use x="1202.681641" xlink:href="#DejaVuSans-109"/>
     <use x="1300.09375" xlink:href="#DejaVuSans-61"/>
     <use x="1383.882812" xlink:href="#DejaVuSans-49"/>
    </g>
   </g>
  </g>
 </g>
 <defs>
  <clipPath id="pa9c0b11e2f">
   <rect height="271.296" width="281.088" x="57.6" y="27.648"/>
  </clipPath>
 </defs>
</svg>
