<?xml version="1.0" encoding="utf-8" standalone="no"?>
<!DOCTYPE svg PUBLIC "-//W3C//DTD SVG 1.1//EN"
  "http://www.w3.org/Graphics/SVG/1.1/DTD/svg11.dtd">
<!-- Created with matplotlib (https://matplotlib.org/) -->
<svg height="345.6pt" version="1.1" viewBox="0 0 460.8 345.6" width="460.8pt" xmlns="http://www.w3.org/2000/svg" xmlns:xlink="http://www.w3.org/1999/xlink">
 <metadata>
  <rdf:RDF xmlns:cc="http://creativecommons.org/ns#" xmlns:dc="http://purl.org/dc/elements/1.1/" xmlns:rdf="http://www.w3.org/1999/02/22-rdf-syntax-ns#">
   <cc:Work>
    <dc:type rdf:resource="http://purl.org/dc/dcmitype/StillImage"/>
    <dc:date>2022-02-08T12:04:00.627560</dc:date>
    <dc:format>image/svg+xml</dc:format>
    <dc:creator>
     <cc:Agent>
      <dc:title>Matplotlib v3.3.3, https://matplotlib.org/</dc:title>
     </cc:Agent>
    </dc:creator>
   </cc:Work>
  </rdf:RDF>
 </metadata>
 <defs>
  <style type="text/css">*{stroke-linecap:butt;stroke-linejoin:round;}</style>
 </defs>
 <g id="figure_1">
  <g id="patch_1">
   <path d="M 0 345.6 
L 460.8 345.6 
L 460.8 0 
L 0 0 
z
" style="fill:#ffffff;"/>
  </g>
  <g id="axes_1">
   <g id="patch_2">
    <path d="M 57.6 298.944 
L 360.8064 298.944 
L 360.8064 6.912 
L 57.6 6.912 
z
" style="fill:#ffffff;"/>
   </g>
   <g id="matplotlib.axis_1">
    <g id="xtick_1">
     <g id="line2d_1">
      <path clip-path="url(#pbe88e9dd62)" d="M 57.6 298.944 
L 57.6 6.912 
" style="fill:none;stroke:#b0b0b0;stroke-linecap:square;stroke-width:0.8;"/>
     </g>
     <g id="line2d_2">
      <defs>
       <path d="M 0 0 
L 0 3.5 
" id="m48cf8e7fea" style="stroke:#000000;stroke-width:0.8;"/>
      </defs>
      <g>
       <use style="stroke:#000000;stroke-width:0.8;" x="57.6" xlink:href="#m48cf8e7fea" y="298.944"/>
      </g>
     </g>
     <g id="text_1">
      <!-- 0 -->
      <g transform="translate(52.191875 318.861344)scale(0.17 -0.17)">
       <defs>
        <path d="M 31.78125 66.40625 
Q 24.171875 66.40625 20.328125 58.90625 
Q 16.5 51.421875 16.5 36.375 
Q 16.5 21.390625 20.328125 13.890625 
Q 24.171875 6.390625 31.78125 6.390625 
Q 39.453125 6.390625 43.28125 13.890625 
Q 47.125 21.390625 47.125 36.375 
Q 47.125 51.421875 43.28125 58.90625 
Q 39.453125 66.40625 31.78125 66.40625 
z
M 31.78125 74.21875 
Q 44.046875 74.21875 50.515625 64.515625 
Q 56.984375 54.828125 56.984375 36.375 
Q 56.984375 17.96875 50.515625 8.265625 
Q 44.046875 -1.421875 31.78125 -1.421875 
Q 19.53125 -1.421875 13.0625 8.265625 
Q 6.59375 17.96875 6.59375 36.375 
Q 6.59375 54.828125 13.0625 64.515625 
Q 19.53125 74.21875 31.78125 74.21875 
z
" id="DejaVuSans-48"/>
       </defs>
       <use xlink:href="#DejaVuSans-48"/>
      </g>
     </g>
    </g>
    <g id="xtick_2">
     <g id="line2d_3">
      <path clip-path="url(#pbe88e9dd62)" d="M 144.2304 298.944 
L 144.2304 6.912 
" style="fill:none;stroke:#b0b0b0;stroke-linecap:square;stroke-width:0.8;"/>
     </g>
     <g id="line2d_4">
      <g>
       <use style="stroke:#000000;stroke-width:0.8;" x="144.2304" xlink:href="#m48cf8e7fea" y="298.944"/>
      </g>
     </g>
     <g id="text_2">
      <!-- 2 -->
      <g transform="translate(138.822275 318.861344)scale(0.17 -0.17)">
       <defs>
        <path d="M 19.1875 8.296875 
L 53.609375 8.296875 
L 53.609375 0 
L 7.328125 0 
L 7.328125 8.296875 
Q 12.9375 14.109375 22.625 23.890625 
Q 32.328125 33.6875 34.8125 36.53125 
Q 39.546875 41.84375 41.421875 45.53125 
Q 43.3125 49.21875 43.3125 52.78125 
Q 43.3125 58.59375 39.234375 62.25 
Q 35.15625 65.921875 28.609375 65.921875 
Q 23.96875 65.921875 18.8125 64.3125 
Q 13.671875 62.703125 7.8125 59.421875 
L 7.8125 69.390625 
Q 13.765625 71.78125 18.9375 73 
Q 24.125 74.21875 28.421875 74.21875 
Q 39.75 74.21875 46.484375 68.546875 
Q 53.21875 62.890625 53.21875 53.421875 
Q 53.21875 48.921875 51.53125 44.890625 
Q 49.859375 40.875 45.40625 35.40625 
Q 44.1875 33.984375 37.640625 27.21875 
Q 31.109375 20.453125 19.1875 8.296875 
z
" id="DejaVuSans-50"/>
       </defs>
       <use xlink:href="#DejaVuSans-50"/>
      </g>
     </g>
    </g>
    <g id="xtick_3">
     <g id="line2d_5">
      <path clip-path="url(#pbe88e9dd62)" d="M 230.8608 298.944 
L 230.8608 6.912 
" style="fill:none;stroke:#b0b0b0;stroke-linecap:square;stroke-width:0.8;"/>
     </g>
     <g id="line2d_6">
      <g>
       <use style="stroke:#000000;stroke-width:0.8;" x="230.8608" xlink:href="#m48cf8e7fea" y="298.944"/>
      </g>
     </g>
     <g id="text_3">
      <!-- 4 -->
      <g transform="translate(225.452675 318.861344)scale(0.17 -0.17)">
       <defs>
        <path d="M 37.796875 64.3125 
L 12.890625 25.390625 
L 37.796875 25.390625 
z
M 35.203125 72.90625 
L 47.609375 72.90625 
L 47.609375 25.390625 
L 58.015625 25.390625 
L 58.015625 17.1875 
L 47.609375 17.1875 
L 47.609375 0 
L 37.796875 0 
L 37.796875 17.1875 
L 4.890625 17.1875 
L 4.890625 26.703125 
z
" id="DejaVuSans-52"/>
       </defs>
       <use xlink:href="#DejaVuSans-52"/>
      </g>
     </g>
    </g>
    <g id="xtick_4">
     <g id="line2d_7">
      <path clip-path="url(#pbe88e9dd62)" d="M 317.4912 298.944 
L 317.4912 6.912 
" style="fill:none;stroke:#b0b0b0;stroke-linecap:square;stroke-width:0.8;"/>
     </g>
     <g id="line2d_8">
      <g>
       <use style="stroke:#000000;stroke-width:0.8;" x="317.4912" xlink:href="#m48cf8e7fea" y="298.944"/>
      </g>
     </g>
     <g id="text_4">
      <!-- 6 -->
      <g transform="translate(312.083075 318.861344)scale(0.17 -0.17)">
       <defs>
        <path d="M 33.015625 40.375 
Q 26.375 40.375 22.484375 35.828125 
Q 18.609375 31.296875 18.609375 23.390625 
Q 18.609375 15.53125 22.484375 10.953125 
Q 26.375 6.390625 33.015625 6.390625 
Q 39.65625 6.390625 43.53125 10.953125 
Q 47.40625 15.53125 47.40625 23.390625 
Q 47.40625 31.296875 43.53125 35.828125 
Q 39.65625 40.375 33.015625 40.375 
z
M 52.59375 71.296875 
L 52.59375 62.3125 
Q 48.875 64.0625 45.09375 64.984375 
Q 41.3125 65.921875 37.59375 65.921875 
Q 27.828125 65.921875 22.671875 59.328125 
Q 17.53125 52.734375 16.796875 39.40625 
Q 19.671875 43.65625 24.015625 45.921875 
Q 28.375 48.1875 33.59375 48.1875 
Q 44.578125 48.1875 50.953125 41.515625 
Q 57.328125 34.859375 57.328125 23.390625 
Q 57.328125 12.15625 50.6875 5.359375 
Q 44.046875 -1.421875 33.015625 -1.421875 
Q 20.359375 -1.421875 13.671875 8.265625 
Q 6.984375 17.96875 6.984375 36.375 
Q 6.984375 53.65625 15.1875 63.9375 
Q 23.390625 74.21875 37.203125 74.21875 
Q 40.921875 74.21875 44.703125 73.484375 
Q 48.484375 72.75 52.59375 71.296875 
z
" id="DejaVuSans-54"/>
       </defs>
       <use xlink:href="#DejaVuSans-54"/>
      </g>
     </g>
    </g>
    <g id="xtick_5">
     <g id="line2d_9">
      <path clip-path="url(#pbe88e9dd62)" d="M 100.9152 298.944 
L 100.9152 6.912 
" style="fill:none;stroke:#b0b0b0;stroke-linecap:square;stroke-width:0.8;"/>
     </g>
     <g id="line2d_10">
      <defs>
       <path d="M 0 0 
L 0 2 
" id="mf8b99bed2a" style="stroke:#000000;stroke-width:0.6;"/>
      </defs>
      <g>
       <use style="stroke:#000000;stroke-width:0.6;" x="100.9152" xlink:href="#mf8b99bed2a" y="298.944"/>
      </g>
     </g>
    </g>
    <g id="xtick_6">
     <g id="line2d_11">
      <path clip-path="url(#pbe88e9dd62)" d="M 187.5456 298.944 
L 187.5456 6.912 
" style="fill:none;stroke:#b0b0b0;stroke-linecap:square;stroke-width:0.8;"/>
     </g>
     <g id="line2d_12">
      <g>
       <use style="stroke:#000000;stroke-width:0.6;" x="187.5456" xlink:href="#mf8b99bed2a" y="298.944"/>
      </g>
     </g>
    </g>
    <g id="xtick_7">
     <g id="line2d_13">
      <path clip-path="url(#pbe88e9dd62)" d="M 274.176 298.944 
L 274.176 6.912 
" style="fill:none;stroke:#b0b0b0;stroke-linecap:square;stroke-width:0.8;"/>
     </g>
     <g id="line2d_14">
      <g>
       <use style="stroke:#000000;stroke-width:0.6;" x="274.176" xlink:href="#mf8b99bed2a" y="298.944"/>
      </g>
     </g>
    </g>
    <g id="xtick_8">
     <g id="line2d_15">
      <path clip-path="url(#pbe88e9dd62)" d="M 360.8064 298.944 
L 360.8064 6.912 
" style="fill:none;stroke:#b0b0b0;stroke-linecap:square;stroke-width:0.8;"/>
     </g>
     <g id="line2d_16">
      <g>
       <use style="stroke:#000000;stroke-width:0.6;" x="360.8064" xlink:href="#mf8b99bed2a" y="298.944"/>
      </g>
     </g>
    </g>
    <g id="text_5">
     <!-- log10(evals / dimension) -->
     <g transform="translate(104.238825 339.314156)scale(0.17 -0.17)">
      <defs>
       <path d="M 9.421875 75.984375 
L 18.40625 75.984375 
L 18.40625 0 
L 9.421875 0 
z
" id="DejaVuSans-108"/>
       <path d="M 30.609375 48.390625 
Q 23.390625 48.390625 19.1875 42.75 
Q 14.984375 37.109375 14.984375 27.296875 
Q 14.984375 17.484375 19.15625 11.84375 
Q 23.34375 6.203125 30.609375 6.203125 
Q 37.796875 6.203125 41.984375 11.859375 
Q 46.1875 17.53125 46.1875 27.296875 
Q 46.1875 37.015625 41.984375 42.703125 
Q 37.796875 48.390625 30.609375 48.390625 
z
M 30.609375 56 
Q 42.328125 56 49.015625 48.375 
Q 55.71875 40.765625 55.71875 27.296875 
Q 55.71875 13.875 49.015625 6.21875 
Q 42.328125 -1.421875 30.609375 -1.421875 
Q 18.84375 -1.421875 12.171875 6.21875 
Q 5.515625 13.875 5.515625 27.296875 
Q 5.515625 40.765625 12.171875 48.375 
Q 18.84375 56 30.609375 56 
z
" id="DejaVuSans-111"/>
       <path d="M 45.40625 27.984375 
Q 45.40625 37.75 41.375 43.109375 
Q 37.359375 48.484375 30.078125 48.484375 
Q 22.859375 48.484375 18.828125 43.109375 
Q 14.796875 37.75 14.796875 27.984375 
Q 14.796875 18.265625 18.828125 12.890625 
Q 22.859375 7.515625 30.078125 7.515625 
Q 37.359375 7.515625 41.375 12.890625 
Q 45.40625 18.265625 45.40625 27.984375 
z
M 54.390625 6.78125 
Q 54.390625 -7.171875 48.1875 -13.984375 
Q 42 -20.796875 29.203125 -20.796875 
Q 24.46875 -20.796875 20.265625 -20.09375 
Q 16.0625 -19.390625 12.109375 -17.921875 
L 12.109375 -9.1875 
Q 16.0625 -11.328125 19.921875 -12.34375 
Q 23.78125 -13.375 27.78125 -13.375 
Q 36.625 -13.375 41.015625 -8.765625 
Q 45.40625 -4.15625 45.40625 5.171875 
L 45.40625 9.625 
Q 42.625 4.78125 38.28125 2.390625 
Q 33.9375 0 27.875 0 
Q 17.828125 0 11.671875 7.65625 
Q 5.515625 15.328125 5.515625 27.984375 
Q 5.515625 40.671875 11.671875 48.328125 
Q 17.828125 56 27.875 56 
Q 33.9375 56 38.28125 53.609375 
Q 42.625 51.21875 45.40625 46.390625 
L 45.40625 54.6875 
L 54.390625 54.6875 
z
" id="DejaVuSans-103"/>
       <path d="M 12.40625 8.296875 
L 28.515625 8.296875 
L 28.515625 63.921875 
L 10.984375 60.40625 
L 10.984375 69.390625 
L 28.421875 72.90625 
L 38.28125 72.90625 
L 38.28125 8.296875 
L 54.390625 8.296875 
L 54.390625 0 
L 12.40625 0 
z
" id="DejaVuSans-49"/>
       <path d="M 31 75.875 
Q 24.46875 64.65625 21.28125 53.65625 
Q 18.109375 42.671875 18.109375 31.390625 
Q 18.109375 20.125 21.3125 9.0625 
Q 24.515625 -2 31 -13.1875 
L 23.1875 -13.1875 
Q 15.875 -1.703125 12.234375 9.375 
Q 8.59375 20.453125 8.59375 31.390625 
Q 8.59375 42.28125 12.203125 53.3125 
Q 15.828125 64.359375 23.1875 75.875 
z
" id="DejaVuSans-40"/>
       <path d="M 56.203125 29.59375 
L 56.203125 25.203125 
L 14.890625 25.203125 
Q 15.484375 15.921875 20.484375 11.0625 
Q 25.484375 6.203125 34.421875 6.203125 
Q 39.59375 6.203125 44.453125 7.46875 
Q 49.3125 8.734375 54.109375 11.28125 
L 54.109375 2.78125 
Q 49.265625 0.734375 44.1875 -0.34375 
Q 39.109375 -1.421875 33.890625 -1.421875 
Q 20.796875 -1.421875 13.15625 6.1875 
Q 5.515625 13.8125 5.515625 26.8125 
Q 5.515625 40.234375 12.765625 48.109375 
Q 20.015625 56 32.328125 56 
Q 43.359375 56 49.78125 48.890625 
Q 56.203125 41.796875 56.203125 29.59375 
z
M 47.21875 32.234375 
Q 47.125 39.59375 43.09375 43.984375 
Q 39.0625 48.390625 32.421875 48.390625 
Q 24.90625 48.390625 20.390625 44.140625 
Q 15.875 39.890625 15.1875 32.171875 
z
" id="DejaVuSans-101"/>
       <path d="M 2.984375 54.6875 
L 12.5 54.6875 
L 29.59375 8.796875 
L 46.6875 54.6875 
L 56.203125 54.6875 
L 35.6875 0 
L 23.484375 0 
z
" id="DejaVuSans-118"/>
       <path d="M 34.28125 27.484375 
Q 23.390625 27.484375 19.1875 25 
Q 14.984375 22.515625 14.984375 16.5 
Q 14.984375 11.71875 18.140625 8.90625 
Q 21.296875 6.109375 26.703125 6.109375 
Q 34.1875 6.109375 38.703125 11.40625 
Q 43.21875 16.703125 43.21875 25.484375 
L 43.21875 27.484375 
z
M 52.203125 31.203125 
L 52.203125 0 
L 43.21875 0 
L 43.21875 8.296875 
Q 40.140625 3.328125 35.546875 0.953125 
Q 30.953125 -1.421875 24.3125 -1.421875 
Q 15.921875 -1.421875 10.953125 3.296875 
Q 6 8.015625 6 15.921875 
Q 6 25.140625 12.171875 29.828125 
Q 18.359375 34.515625 30.609375 34.515625 
L 43.21875 34.515625 
L 43.21875 35.40625 
Q 43.21875 41.609375 39.140625 45 
Q 35.0625 48.390625 27.6875 48.390625 
Q 23 48.390625 18.546875 47.265625 
Q 14.109375 46.140625 10.015625 43.890625 
L 10.015625 52.203125 
Q 14.9375 54.109375 19.578125 55.046875 
Q 24.21875 56 28.609375 56 
Q 40.484375 56 46.34375 49.84375 
Q 52.203125 43.703125 52.203125 31.203125 
z
" id="DejaVuSans-97"/>
       <path d="M 44.28125 53.078125 
L 44.28125 44.578125 
Q 40.484375 46.53125 36.375 47.5 
Q 32.28125 48.484375 27.875 48.484375 
Q 21.1875 48.484375 17.84375 46.4375 
Q 14.5 44.390625 14.5 40.28125 
Q 14.5 37.15625 16.890625 35.375 
Q 19.28125 33.59375 26.515625 31.984375 
L 29.59375 31.296875 
Q 39.15625 29.25 43.1875 25.515625 
Q 47.21875 21.78125 47.21875 15.09375 
Q 47.21875 7.46875 41.1875 3.015625 
Q 35.15625 -1.421875 24.609375 -1.421875 
Q 20.21875 -1.421875 15.453125 -0.5625 
Q 10.6875 0.296875 5.421875 2 
L 5.421875 11.28125 
Q 10.40625 8.6875 15.234375 7.390625 
Q 20.0625 6.109375 24.8125 6.109375 
Q 31.15625 6.109375 34.5625 8.28125 
Q 37.984375 10.453125 37.984375 14.40625 
Q 37.984375 18.0625 35.515625 20.015625 
Q 33.0625 21.96875 24.703125 23.78125 
L 21.578125 24.515625 
Q 13.234375 26.265625 9.515625 29.90625 
Q 5.8125 33.546875 5.8125 39.890625 
Q 5.8125 47.609375 11.28125 51.796875 
Q 16.75 56 26.8125 56 
Q 31.78125 56 36.171875 55.265625 
Q 40.578125 54.546875 44.28125 53.078125 
z
" id="DejaVuSans-115"/>
       <path id="DejaVuSans-32"/>
       <path d="M 25.390625 72.90625 
L 33.6875 72.90625 
L 8.296875 -9.28125 
L 0 -9.28125 
z
" id="DejaVuSans-47"/>
       <path d="M 45.40625 46.390625 
L 45.40625 75.984375 
L 54.390625 75.984375 
L 54.390625 0 
L 45.40625 0 
L 45.40625 8.203125 
Q 42.578125 3.328125 38.25 0.953125 
Q 33.9375 -1.421875 27.875 -1.421875 
Q 17.96875 -1.421875 11.734375 6.484375 
Q 5.515625 14.40625 5.515625 27.296875 
Q 5.515625 40.1875 11.734375 48.09375 
Q 17.96875 56 27.875 56 
Q 33.9375 56 38.25 53.625 
Q 42.578125 51.265625 45.40625 46.390625 
z
M 14.796875 27.296875 
Q 14.796875 17.390625 18.875 11.75 
Q 22.953125 6.109375 30.078125 6.109375 
Q 37.203125 6.109375 41.296875 11.75 
Q 45.40625 17.390625 45.40625 27.296875 
Q 45.40625 37.203125 41.296875 42.84375 
Q 37.203125 48.484375 30.078125 48.484375 
Q 22.953125 48.484375 18.875 42.84375 
Q 14.796875 37.203125 14.796875 27.296875 
z
" id="DejaVuSans-100"/>
       <path d="M 9.421875 54.6875 
L 18.40625 54.6875 
L 18.40625 0 
L 9.421875 0 
z
M 9.421875 75.984375 
L 18.40625 75.984375 
L 18.40625 64.59375 
L 9.421875 64.59375 
z
" id="DejaVuSans-105"/>
       <path d="M 52 44.1875 
Q 55.375 50.25 60.0625 53.125 
Q 64.75 56 71.09375 56 
Q 79.640625 56 84.28125 50.015625 
Q 88.921875 44.046875 88.921875 33.015625 
L 88.921875 0 
L 79.890625 0 
L 79.890625 32.71875 
Q 79.890625 40.578125 77.09375 44.375 
Q 74.3125 48.1875 68.609375 48.1875 
Q 61.625 48.1875 57.5625 43.546875 
Q 53.515625 38.921875 53.515625 30.90625 
L 53.515625 0 
L 44.484375 0 
L 44.484375 32.71875 
Q 44.484375 40.625 41.703125 44.40625 
Q 38.921875 48.1875 33.109375 48.1875 
Q 26.21875 48.1875 22.15625 43.53125 
Q 18.109375 38.875 18.109375 30.90625 
L 18.109375 0 
L 9.078125 0 
L 9.078125 54.6875 
L 18.109375 54.6875 
L 18.109375 46.1875 
Q 21.1875 51.21875 25.484375 53.609375 
Q 29.78125 56 35.6875 56 
Q 41.65625 56 45.828125 52.96875 
Q 50 49.953125 52 44.1875 
z
" id="DejaVuSans-109"/>
       <path d="M 54.890625 33.015625 
L 54.890625 0 
L 45.90625 0 
L 45.90625 32.71875 
Q 45.90625 40.484375 42.875 44.328125 
Q 39.84375 48.1875 33.796875 48.1875 
Q 26.515625 48.1875 22.3125 43.546875 
Q 18.109375 38.921875 18.109375 30.90625 
L 18.109375 0 
L 9.078125 0 
L 9.078125 54.6875 
L 18.109375 54.6875 
L 18.109375 46.1875 
Q 21.34375 51.125 25.703125 53.5625 
Q 30.078125 56 35.796875 56 
Q 45.21875 56 50.046875 50.171875 
Q 54.890625 44.34375 54.890625 33.015625 
z
" id="DejaVuSans-110"/>
       <path d="M 8.015625 75.875 
L 15.828125 75.875 
Q 23.140625 64.359375 26.78125 53.3125 
Q 30.421875 42.28125 30.421875 31.390625 
Q 30.421875 20.453125 26.78125 9.375 
Q 23.140625 -1.703125 15.828125 -13.1875 
L 8.015625 -13.1875 
Q 14.5 -2 17.703125 9.0625 
Q 20.90625 20.125 20.90625 31.390625 
Q 20.90625 42.671875 17.703125 53.65625 
Q 14.5 64.65625 8.015625 75.875 
z
" id="DejaVuSans-41"/>
      </defs>
      <use xlink:href="#DejaVuSans-108"/>
      <use x="27.783203" xlink:href="#DejaVuSans-111"/>
      <use x="88.964844" xlink:href="#DejaVuSans-103"/>
      <use x="152.441406" xlink:href="#DejaVuSans-49"/>
      <use x="216.064453" xlink:href="#DejaVuSans-48"/>
      <use x="279.6875" xlink:href="#DejaVuSans-40"/>
      <use x="318.701172" xlink:href="#DejaVuSans-101"/>
      <use x="380.224609" xlink:href="#DejaVuSans-118"/>
      <use x="439.404297" xlink:href="#DejaVuSans-97"/>
      <use x="500.683594" xlink:href="#DejaVuSans-108"/>
      <use x="528.466797" xlink:href="#DejaVuSans-115"/>
      <use x="580.566406" xlink:href="#DejaVuSans-32"/>
      <use x="612.353516" xlink:href="#DejaVuSans-47"/>
      <use x="646.044922" xlink:href="#DejaVuSans-32"/>
      <use x="677.832031" xlink:href="#DejaVuSans-100"/>
      <use x="741.308594" xlink:href="#DejaVuSans-105"/>
      <use x="769.091797" xlink:href="#DejaVuSans-109"/>
      <use x="866.503906" xlink:href="#DejaVuSans-101"/>
      <use x="928.027344" xlink:href="#DejaVuSans-110"/>
      <use x="991.40625" xlink:href="#DejaVuSans-115"/>
      <use x="1043.505859" xlink:href="#DejaVuSans-105"/>
      <use x="1071.289062" xlink:href="#DejaVuSans-111"/>
      <use x="1132.470703" xlink:href="#DejaVuSans-110"/>
      <use x="1195.849609" xlink:href="#DejaVuSans-41"/>
     </g>
    </g>
   </g>
   <g id="matplotlib.axis_2">
    <g id="ytick_1">
     <g id="line2d_17">
      <path clip-path="url(#pbe88e9dd62)" d="M 57.6 298.944 
L 360.8064 298.944 
" style="fill:none;stroke:#b0b0b0;stroke-linecap:square;stroke-width:0.8;"/>
     </g>
     <g id="line2d_18">
      <defs>
       <path d="M 0 0 
L -3.5 0 
" id="me9f2ff0297" style="stroke:#000000;stroke-width:0.8;"/>
      </defs>
      <g>
       <use style="stroke:#000000;stroke-width:0.8;" x="57.6" xlink:href="#me9f2ff0297" y="298.944"/>
      </g>
     </g>
     <g id="text_6">
      <!-- 0.0 -->
      <g transform="translate(25.155 305.02275)scale(0.16 -0.16)">
       <defs>
        <path d="M 10.6875 12.40625 
L 21 12.40625 
L 21 0 
L 10.6875 0 
z
" id="DejaVuSans-46"/>
       </defs>
       <use xlink:href="#DejaVuSans-48"/>
       <use x="63.623047" xlink:href="#DejaVuSans-46"/>
       <use x="95.410156" xlink:href="#DejaVuSans-48"/>
      </g>
     </g>
    </g>
    <g id="ytick_2">
     <g id="line2d_19">
      <path clip-path="url(#pbe88e9dd62)" d="M 57.6 240.5376 
L 360.8064 240.5376 
" style="fill:none;stroke:#b0b0b0;stroke-linecap:square;stroke-width:0.8;"/>
     </g>
     <g id="line2d_20">
      <g>
       <use style="stroke:#000000;stroke-width:0.8;" x="57.6" xlink:href="#me9f2ff0297" y="240.5376"/>
      </g>
     </g>
     <g id="text_7">
      <!-- 0.2 -->
      <g transform="translate(25.155 246.61635)scale(0.16 -0.16)">
       <use xlink:href="#DejaVuSans-48"/>
       <use x="63.623047" xlink:href="#DejaVuSans-46"/>
       <use x="95.410156" xlink:href="#DejaVuSans-50"/>
      </g>
     </g>
    </g>
    <g id="ytick_3">
     <g id="line2d_21">
      <path clip-path="url(#pbe88e9dd62)" d="M 57.6 182.1312 
L 360.8064 182.1312 
" style="fill:none;stroke:#b0b0b0;stroke-linecap:square;stroke-width:0.8;"/>
     </g>
     <g id="line2d_22">
      <g>
       <use style="stroke:#000000;stroke-width:0.8;" x="57.6" xlink:href="#me9f2ff0297" y="182.1312"/>
      </g>
     </g>
     <g id="text_8">
      <!-- 0.4 -->
      <g transform="translate(25.155 188.20995)scale(0.16 -0.16)">
       <use xlink:href="#DejaVuSans-48"/>
       <use x="63.623047" xlink:href="#DejaVuSans-46"/>
       <use x="95.410156" xlink:href="#DejaVuSans-52"/>
      </g>
     </g>
    </g>
    <g id="ytick_4">
     <g id="line2d_23">
      <path clip-path="url(#pbe88e9dd62)" d="M 57.6 123.7248 
L 360.8064 123.7248 
" style="fill:none;stroke:#b0b0b0;stroke-linecap:square;stroke-width:0.8;"/>
     </g>
     <g id="line2d_24">
      <g>
       <use style="stroke:#000000;stroke-width:0.8;" x="57.6" xlink:href="#me9f2ff0297" y="123.7248"/>
      </g>
     </g>
     <g id="text_9">
      <!-- 0.6 -->
      <g transform="translate(25.155 129.80355)scale(0.16 -0.16)">
       <use xlink:href="#DejaVuSans-48"/>
       <use x="63.623047" xlink:href="#DejaVuSans-46"/>
       <use x="95.410156" xlink:href="#DejaVuSans-54"/>
      </g>
     </g>
    </g>
    <g id="ytick_5">
     <g id="line2d_25">
      <path clip-path="url(#pbe88e9dd62)" d="M 57.6 65.3184 
L 360.8064 65.3184 
" style="fill:none;stroke:#b0b0b0;stroke-linecap:square;stroke-width:0.8;"/>
     </g>
     <g id="line2d_26">
      <g>
       <use style="stroke:#000000;stroke-width:0.8;" x="57.6" xlink:href="#me9f2ff0297" y="65.3184"/>
      </g>
     </g>
     <g id="text_10">
      <!-- 0.8 -->
      <g transform="translate(25.155 71.39715)scale(0.16 -0.16)">
       <defs>
        <path d="M 31.78125 34.625 
Q 24.75 34.625 20.71875 30.859375 
Q 16.703125 27.09375 16.703125 20.515625 
Q 16.703125 13.921875 20.71875 10.15625 
Q 24.75 6.390625 31.78125 6.390625 
Q 38.8125 6.390625 42.859375 10.171875 
Q 46.921875 13.96875 46.921875 20.515625 
Q 46.921875 27.09375 42.890625 30.859375 
Q 38.875 34.625 31.78125 34.625 
z
M 21.921875 38.8125 
Q 15.578125 40.375 12.03125 44.71875 
Q 8.5 49.078125 8.5 55.328125 
Q 8.5 64.0625 14.71875 69.140625 
Q 20.953125 74.21875 31.78125 74.21875 
Q 42.671875 74.21875 48.875 69.140625 
Q 55.078125 64.0625 55.078125 55.328125 
Q 55.078125 49.078125 51.53125 44.71875 
Q 48 40.375 41.703125 38.8125 
Q 48.828125 37.15625 52.796875 32.3125 
Q 56.78125 27.484375 56.78125 20.515625 
Q 56.78125 9.90625 50.3125 4.234375 
Q 43.84375 -1.421875 31.78125 -1.421875 
Q 19.734375 -1.421875 13.25 4.234375 
Q 6.78125 9.90625 6.78125 20.515625 
Q 6.78125 27.484375 10.78125 32.3125 
Q 14.796875 37.15625 21.921875 38.8125 
z
M 18.3125 54.390625 
Q 18.3125 48.734375 21.84375 45.5625 
Q 25.390625 42.390625 31.78125 42.390625 
Q 38.140625 42.390625 41.71875 45.5625 
Q 45.3125 48.734375 45.3125 54.390625 
Q 45.3125 60.0625 41.71875 63.234375 
Q 38.140625 66.40625 31.78125 66.40625 
Q 25.390625 66.40625 21.84375 63.234375 
Q 18.3125 60.0625 18.3125 54.390625 
z
" id="DejaVuSans-56"/>
       </defs>
       <use xlink:href="#DejaVuSans-48"/>
       <use x="63.623047" xlink:href="#DejaVuSans-46"/>
       <use x="95.410156" xlink:href="#DejaVuSans-56"/>
      </g>
     </g>
    </g>
    <g id="ytick_6">
     <g id="line2d_27">
      <path clip-path="url(#pbe88e9dd62)" d="M 57.6 6.912 
L 360.8064 6.912 
" style="fill:none;stroke:#b0b0b0;stroke-linecap:square;stroke-width:0.8;"/>
     </g>
     <g id="line2d_28">
      <g>
       <use style="stroke:#000000;stroke-width:0.8;" x="57.6" xlink:href="#me9f2ff0297" y="6.912"/>
      </g>
     </g>
     <g id="text_11">
      <!-- 1.0 -->
      <g transform="translate(25.155 12.99075)scale(0.16 -0.16)">
       <use xlink:href="#DejaVuSans-49"/>
       <use x="63.623047" xlink:href="#DejaVuSans-46"/>
       <use x="95.410156" xlink:href="#DejaVuSans-48"/>
      </g>
     </g>
    </g>
    <g id="text_12">
     <!-- Fraction of function,target pairs -->
     <g transform="translate(17.619531 287.313)rotate(-90)scale(0.17 -0.17)">
      <defs>
       <path d="M 9.8125 72.90625 
L 51.703125 72.90625 
L 51.703125 64.59375 
L 19.671875 64.59375 
L 19.671875 43.109375 
L 48.578125 43.109375 
L 48.578125 34.8125 
L 19.671875 34.8125 
L 19.671875 0 
L 9.8125 0 
z
" id="DejaVuSans-70"/>
       <path d="M 41.109375 46.296875 
Q 39.59375 47.171875 37.8125 47.578125 
Q 36.03125 48 33.890625 48 
Q 26.265625 48 22.1875 43.046875 
Q 18.109375 38.09375 18.109375 28.8125 
L 18.109375 0 
L 9.078125 0 
L 9.078125 54.6875 
L 18.109375 54.6875 
L 18.109375 46.1875 
Q 20.953125 51.171875 25.484375 53.578125 
Q 30.03125 56 36.53125 56 
Q 37.453125 56 38.578125 55.875 
Q 39.703125 55.765625 41.0625 55.515625 
z
" id="DejaVuSans-114"/>
       <path d="M 48.78125 52.59375 
L 48.78125 44.1875 
Q 44.96875 46.296875 41.140625 47.34375 
Q 37.3125 48.390625 33.40625 48.390625 
Q 24.65625 48.390625 19.8125 42.84375 
Q 14.984375 37.3125 14.984375 27.296875 
Q 14.984375 17.28125 19.8125 11.734375 
Q 24.65625 6.203125 33.40625 6.203125 
Q 37.3125 6.203125 41.140625 7.25 
Q 44.96875 8.296875 48.78125 10.40625 
L 48.78125 2.09375 
Q 45.015625 0.34375 40.984375 -0.53125 
Q 36.96875 -1.421875 32.421875 -1.421875 
Q 20.0625 -1.421875 12.78125 6.34375 
Q 5.515625 14.109375 5.515625 27.296875 
Q 5.515625 40.671875 12.859375 48.328125 
Q 20.21875 56 33.015625 56 
Q 37.15625 56 41.109375 55.140625 
Q 45.0625 54.296875 48.78125 52.59375 
z
" id="DejaVuSans-99"/>
       <path d="M 18.3125 70.21875 
L 18.3125 54.6875 
L 36.8125 54.6875 
L 36.8125 47.703125 
L 18.3125 47.703125 
L 18.3125 18.015625 
Q 18.3125 11.328125 20.140625 9.421875 
Q 21.96875 7.515625 27.59375 7.515625 
L 36.8125 7.515625 
L 36.8125 0 
L 27.59375 0 
Q 17.1875 0 13.234375 3.875 
Q 9.28125 7.765625 9.28125 18.015625 
L 9.28125 47.703125 
L 2.6875 47.703125 
L 2.6875 54.6875 
L 9.28125 54.6875 
L 9.28125 70.21875 
z
" id="DejaVuSans-116"/>
       <path d="M 37.109375 75.984375 
L 37.109375 68.5 
L 28.515625 68.5 
Q 23.6875 68.5 21.796875 66.546875 
Q 19.921875 64.59375 19.921875 59.515625 
L 19.921875 54.6875 
L 34.71875 54.6875 
L 34.71875 47.703125 
L 19.921875 47.703125 
L 19.921875 0 
L 10.890625 0 
L 10.890625 47.703125 
L 2.296875 47.703125 
L 2.296875 54.6875 
L 10.890625 54.6875 
L 10.890625 58.5 
Q 10.890625 67.625 15.140625 71.796875 
Q 19.390625 75.984375 28.609375 75.984375 
z
" id="DejaVuSans-102"/>
       <path d="M 8.5 21.578125 
L 8.5 54.6875 
L 17.484375 54.6875 
L 17.484375 21.921875 
Q 17.484375 14.15625 20.5 10.265625 
Q 23.53125 6.390625 29.59375 6.390625 
Q 36.859375 6.390625 41.078125 11.03125 
Q 45.3125 15.671875 45.3125 23.6875 
L 45.3125 54.6875 
L 54.296875 54.6875 
L 54.296875 0 
L 45.3125 0 
L 45.3125 8.40625 
Q 42.046875 3.421875 37.71875 1 
Q 33.40625 -1.421875 27.6875 -1.421875 
Q 18.265625 -1.421875 13.375 4.4375 
Q 8.5 10.296875 8.5 21.578125 
z
M 31.109375 56 
z
" id="DejaVuSans-117"/>
       <path d="M 11.71875 12.40625 
L 22.015625 12.40625 
L 22.015625 4 
L 14.015625 -11.625 
L 7.71875 -11.625 
L 11.71875 4 
z
" id="DejaVuSans-44"/>
       <path d="M 18.109375 8.203125 
L 18.109375 -20.796875 
L 9.078125 -20.796875 
L 9.078125 54.6875 
L 18.109375 54.6875 
L 18.109375 46.390625 
Q 20.953125 51.265625 25.265625 53.625 
Q 29.59375 56 35.59375 56 
Q 45.5625 56 51.78125 48.09375 
Q 58.015625 40.1875 58.015625 27.296875 
Q 58.015625 14.40625 51.78125 6.484375 
Q 45.5625 -1.421875 35.59375 -1.421875 
Q 29.59375 -1.421875 25.265625 0.953125 
Q 20.953125 3.328125 18.109375 8.203125 
z
M 48.6875 27.296875 
Q 48.6875 37.203125 44.609375 42.84375 
Q 40.53125 48.484375 33.40625 48.484375 
Q 26.265625 48.484375 22.1875 42.84375 
Q 18.109375 37.203125 18.109375 27.296875 
Q 18.109375 17.390625 22.1875 11.75 
Q 26.265625 6.109375 33.40625 6.109375 
Q 40.53125 6.109375 44.609375 11.75 
Q 48.6875 17.390625 48.6875 27.296875 
z
" id="DejaVuSans-112"/>
      </defs>
      <use xlink:href="#DejaVuSans-70"/>
      <use x="50.269531" xlink:href="#DejaVuSans-114"/>
      <use x="91.382812" xlink:href="#DejaVuSans-97"/>
      <use x="152.662109" xlink:href="#DejaVuSans-99"/>
      <use x="207.642578" xlink:href="#DejaVuSans-116"/>
      <use x="246.851562" xlink:href="#DejaVuSans-105"/>
      <use x="274.634766" xlink:href="#DejaVuSans-111"/>
      <use x="335.816406" xlink:href="#DejaVuSans-110"/>
      <use x="399.195312" xlink:href="#DejaVuSans-32"/>
      <use x="430.982422" xlink:href="#DejaVuSans-111"/>
      <use x="492.164062" xlink:href="#DejaVuSans-102"/>
      <use x="527.369141" xlink:href="#DejaVuSans-32"/>
      <use x="559.15625" xlink:href="#DejaVuSans-102"/>
      <use x="594.361328" xlink:href="#DejaVuSans-117"/>
      <use x="657.740234" xlink:href="#DejaVuSans-110"/>
      <use x="721.119141" xlink:href="#DejaVuSans-99"/>
      <use x="776.099609" xlink:href="#DejaVuSans-116"/>
      <use x="815.308594" xlink:href="#DejaVuSans-105"/>
      <use x="843.091797" xlink:href="#DejaVuSans-111"/>
      <use x="904.273438" xlink:href="#DejaVuSans-110"/>
      <use x="967.652344" xlink:href="#DejaVuSans-44"/>
      <use x="999.439453" xlink:href="#DejaVuSans-116"/>
      <use x="1038.648438" xlink:href="#DejaVuSans-97"/>
      <use x="1099.927734" xlink:href="#DejaVuSans-114"/>
      <use x="1139.291016" xlink:href="#DejaVuSans-103"/>
      <use x="1202.767578" xlink:href="#DejaVuSans-101"/>
      <use x="1264.291016" xlink:href="#DejaVuSans-116"/>
      <use x="1303.5" xlink:href="#DejaVuSans-32"/>
      <use x="1335.287109" xlink:href="#DejaVuSans-112"/>
      <use x="1398.763672" xlink:href="#DejaVuSans-97"/>
      <use x="1460.042969" xlink:href="#DejaVuSans-105"/>
      <use x="1487.826172" xlink:href="#DejaVuSans-114"/>
      <use x="1528.939453" xlink:href="#DejaVuSans-115"/>
     </g>
    </g>
   </g>
   <g id="line2d_29">
    <defs>
     <path d="M 0 1.5 
C 0.397805 1.5 0.77937 1.341951 1.06066 1.06066 
C 1.341951 0.77937 1.5 0.397805 1.5 0 
C 1.5 -0.397805 1.341951 -0.77937 1.06066 -1.06066 
C 0.77937 -1.341951 0.397805 -1.5 0 -1.5 
C -0.397805 -1.5 -0.77937 -1.341951 -1.06066 -1.06066 
C -1.341951 -0.77937 -1.5 -0.397805 -1.5 0 
C -1.5 0.397805 -1.341951 0.77937 -1.06066 1.06066 
C -0.77937 1.341951 -0.397805 1.5 0 1.5 
z
" id="m7192b9281f" style="stroke:#000080;"/>
    </defs>
    <g>
     <use style="fill:#000080;stroke:#000080;" x="135.790905" xlink:href="#m7192b9281f" y="6.912"/>
     <use style="fill:#000080;stroke:#000080;" x="135.790905" xlink:href="#m7192b9281f" y="6.912"/>
    </g>
   </g>
   <g id="line2d_30">
    <path d="M 73.268314 298.944 
L 73.268314 294.828644 
L 74.068926 294.828644 
L 74.068926 279.950049 
L 74.836851 279.950049 
L 74.836851 268.870244 
L 75.574654 268.870244 
L 75.574654 243.22841 
L 76.284608 243.22841 
L 76.284608 235.314263 
L 78.266603 235.314263 
L 78.266603 228.824663 
L 80.059535 228.824663 
L 80.059535 227.241834 
L 81.166416 227.241834 
L 81.166416 220.752234 
L 81.696354 220.752234 
L 81.696354 217.586576 
L 82.713442 217.586576 
L 82.713442 211.096976 
L 83.678349 211.096976 
L 83.678349 210.78041 
L 84.142855 210.78041 
L 84.142855 203.024546 
L 84.596168 203.024546 
L 84.596168 201.283434 
L 85.038813 201.283434 
L 85.038813 200.017171 
L 85.471281 200.017171 
L 85.471281 199.384039 
L 85.894031 199.384039 
L 85.894031 198.117776 
L 86.307488 198.117776 
L 86.307488 187.196254 
L 86.712053 187.196254 
L 86.712053 182.1312 
L 87.876026 182.1312 
L 87.876026 180.390088 
L 90.668036 180.390088 
L 90.668036 178.490693 
L 93.098709 178.490693 
L 93.098709 175.008468 
L 93.381595 175.008468 
L 93.381595 166.302907 
L 93.66029 166.302907 
L 93.66029 165.669776 
L 94.205591 165.669776 
L 94.205591 165.036644 
L 94.472426 165.036644 
L 94.472426 163.77038 
L 94.995002 163.77038 
L 94.995002 162.978966 
L 95.503454 162.978966 
L 95.503454 162.029268 
L 95.998523 162.029268 
L 95.998523 161.712702 
L 97.410051 161.712702 
L 97.410051 160.763005 
L 97.635342 160.763005 
L 97.635342 150.158049 
L 97.857967 150.158049 
L 97.857967 146.99239 
L 98.295464 146.99239 
L 98.295464 140.186224 
L 98.510456 140.186224 
L 98.510456 139.869659 
L 98.933205 139.869659 
L 98.933205 139.553093 
L 99.346662 139.553093 
L 99.346662 139.236527 
L 99.550033 139.236527 
L 99.550033 137.970263 
L 100.535156 137.970263 
L 100.535156 136.545717 
L 101.102381 136.545717 
L 101.102381 135.912585 
L 101.287718 135.912585 
L 101.287718 135.754302 
L 101.833019 135.754302 
L 101.833019 131.638946 
L 102.011329 131.638946 
L 102.011329 130.847532 
L 102.187964 130.847532 
L 102.187964 127.365307 
L 102.708132 127.365307 
L 102.708132 126.732176 
L 103.047088 126.732176 
L 103.047088 125.782478 
L 103.214303 125.782478 
L 103.214303 125.149346 
L 103.380045 125.149346 
L 103.380045 124.516215 
L 103.544339 124.516215 
L 103.544339 123.7248 
L 103.868684 123.7248 
L 103.868684 121.508839 
L 104.028784 121.508839 
L 104.028784 118.34318 
L 104.187532 118.34318 
L 104.187532 117.868332 
L 104.809458 117.868332 
L 104.809458 117.2352 
L 104.961779 117.2352 
L 104.961779 116.443785 
L 105.112877 116.443785 
L 105.112877 113.43641 
L 105.26277 113.43641 
L 105.26277 111.537015 
L 105.411479 111.537015 
L 105.411479 107.421659 
L 105.559021 107.421659 
L 105.559021 107.263376 
L 105.99483 107.263376 
L 105.99483 106.155395 
L 106.137884 106.155395 
L 106.137884 104.730849 
L 106.42077 104.730849 
L 106.42077 103.781151 
L 106.974091 103.781151 
L 106.974091 102.673171 
L 107.244765 102.673171 
L 107.244765 101.56519 
L 107.5116 101.56519 
L 107.5116 100.932059 
L 107.643612 100.932059 
L 107.643612 99.032663 
L 108.034177 99.032663 
L 108.034177 98.082966 
L 108.29012 98.082966 
L 108.29012 96.974985 
L 108.416798 96.974985 
L 108.416798 96.183571 
L 108.667622 96.183571 
L 108.667622 96.025288 
L 108.791791 96.025288 
L 108.791791 92.543063 
L 108.915146 92.543063 
L 108.915146 91.751649 
L 109.159456 91.751649 
L 109.159456 90.801951 
L 109.756698 90.801951 
L 109.756698 90.327102 
L 109.873904 90.327102 
L 109.873904 89.693971 
L 110.106149 89.693971 
L 110.106149 89.377405 
L 110.335561 89.377405 
L 110.335561 87.47801 
L 110.449226 87.47801 
L 110.449226 87.161444 
L 110.674517 87.161444 
L 110.674517 86.053463 
L 110.786158 86.053463 
L 110.897141 84.312351 
L 111.007473 84.312351 
L 111.117162 79.880429 
L 111.54963 79.880429 
L 111.656212 77.031337 
L 111.762192 77.031337 
L 111.86758 71.808 
L 111.97238 71.808 
L 111.97238 70.858302 
L 112.283321 70.858302 
L 112.283321 70.066888 
L 112.487797 70.066888 
L 112.589207 65.793249 
L 112.690074 65.793249 
L 112.790402 62.944156 
L 112.989468 62.944156 
L 112.989468 61.836176 
L 113.186449 61.836176 
L 113.284172 59.461932 
L 113.381389 59.461932 
L 113.478107 57.245971 
L 113.57433 57.245971 
L 113.670063 56.13799 
L 114.326893 56.13799 
L 114.418881 54.396878 
L 114.510421 54.396878 
L 114.510421 53.605463 
L 114.692177 53.605463 
L 114.7824 51.706068 
L 114.961559 51.706068 
L 114.961559 50.756371 
L 115.227139 50.756371 
L 115.227139 50.123239 
L 115.661605 50.123239 
L 115.747307 48.54041 
L 115.83262 48.54041 
L 115.83262 48.223844 
L 116.002095 48.223844 
L 116.086263 46.324449 
L 116.336531 46.324449 
L 116.336531 44.266771 
L 116.665126 44.266771 
L 116.746385 42.683941 
L 116.827295 42.683941 
L 116.907859 40.151415 
L 116.988079 40.151415 
L 117.067958 37.460605 
L 117.617813 37.460605 
L 117.617813 37.302322 
L 117.924947 37.302322 
L 118.000953 34.611512 
L 118.301945 34.611512 
L 118.376446 33.028683 
L 118.671535 33.028683 
L 118.671535 31.920702 
L 118.817362 31.920702 
L 118.889854 30.337873 
L 119.034004 30.337873 
L 119.105667 27.647063 
L 119.177058 27.647063 
L 119.24818 26.539083 
L 119.459944 26.539083 
L 119.530006 25.431102 
L 119.738639 25.431102 
L 119.807672 23.848273 
L 120.0813 23.848273 
L 120.149089 22.423727 
L 120.28394 22.423727 
L 120.351004 21.632312 
L 120.682786 21.632312 
L 120.682786 21.474029 
L 120.879082 21.474029 
L 120.879082 20.366049 
L 121.008818 20.366049 
L 121.008818 20.207766 
L 121.201758 20.207766 
L 121.201758 20.049483 
L 122.168264 20.049483 
L 122.168264 19.258068 
L 122.883845 19.258068 
L 122.883845 18.150088 
L 127.110755 18.150088 
L 127.110755 15.775844 
L 129.437756 15.775844 
L 129.437756 15.142712 
L 129.80582 15.142712 
L 129.80582 13.718166 
L 132.481562 13.718166 
L 132.481562 13.559883 
L 133.967012 13.559883 
L 133.999446 13.085034 
L 134.256922 13.085034 
L 134.256922 10.869073 
L 135.790905 10.869073 
L 135.790905 6.912 
L 360.8064 6.912 
L 360.8064 6.912 
" style="fill:none;stroke:#000080;stroke-linecap:square;stroke-width:1.5;"/>
   </g>
   <g id="line2d_31">
    <defs>
     <path d="M 0 6 
C 1.591219 6 3.117479 5.367802 4.242641 4.242641 
C 5.367802 3.117479 6 1.591219 6 0 
C 6 -1.591219 5.367802 -3.117479 4.242641 -4.242641 
C 3.117479 -5.367802 1.591219 -6 0 -6 
C -1.591219 -6 -3.117479 -5.367802 -4.242641 -4.242641 
C -5.367802 -3.117479 -6 -1.591219 -6 0 
C -6 1.591219 -5.367802 3.117479 -4.242641 4.242641 
C -3.117479 5.367802 -1.591219 6 0 6 
z
" id="mb72ab882b8" style="stroke:#000080;stroke-width:1.5;"/>
    </defs>
    <g>
     <use style="fill-opacity:0;stroke:#000080;stroke-width:1.5;" x="99.550033" xlink:href="#mb72ab882b8" y="139.236527"/>
     <use style="fill-opacity:0;stroke:#000080;stroke-width:1.5;" x="135.790905" xlink:href="#mb72ab882b8" y="10.869073"/>
     <use style="fill-opacity:0;stroke:#000080;stroke-width:1.5;" x="135.790905" xlink:href="#mb72ab882b8" y="6.912"/>
     <use style="fill-opacity:0;stroke:#000080;stroke-width:1.5;" x="135.790905" xlink:href="#mb72ab882b8" y="6.912"/>
     <use style="fill-opacity:0;stroke:#000080;stroke-width:1.5;" x="360.8064" xlink:href="#mb72ab882b8" y="6.912"/>
    </g>
   </g>
   <g id="line2d_32">
    <path style="fill:none;stroke:#000080;stroke-linecap:square;stroke-width:1.5;"/>
    <g/>
   </g>
   <g id="line2d_33">
    <defs>
     <path d="M 0 1.5 
C 0.397805 1.5 0.77937 1.341951 1.06066 1.06066 
C 1.341951 0.77937 1.5 0.397805 1.5 0 
C 1.5 -0.397805 1.341951 -0.77937 1.06066 -1.06066 
C 0.77937 -1.341951 0.397805 -1.5 0 -1.5 
C -0.397805 -1.5 -0.77937 -1.341951 -1.06066 -1.06066 
C -1.341951 -0.77937 -1.5 -0.397805 -1.5 0 
C -1.5 0.397805 -1.341951 0.77937 -1.06066 1.06066 
C -0.77937 1.341951 -0.397805 1.5 0 1.5 
z
" id="m7f6de7849b" style="stroke:#ff00ff;"/>
    </defs>
    <g>
     <use style="fill:#ff00ff;stroke:#ff00ff;" x="133.623039" xlink:href="#m7f6de7849b" y="6.912"/>
     <use style="fill:#ff00ff;stroke:#ff00ff;" x="133.623039" xlink:href="#m7f6de7849b" y="6.912"/>
    </g>
   </g>
   <g id="line2d_34">
    <path d="M 73.268314 298.944 
L 73.268314 298.627434 
L 74.068926 298.627434 
L 74.068926 298.469151 
L 74.836851 298.469151 
L 74.836851 291.821268 
L 75.574654 291.821268 
L 75.574654 270.611356 
L 76.284608 270.611356 
L 76.284608 262.69721 
L 76.96874 262.69721 
L 76.96874 260.639532 
L 77.628862 260.639532 
L 77.628862 249.876293 
L 78.266603 249.876293 
L 78.266603 235.15598 
L 78.88343 235.15598 
L 78.88343 232.623454 
L 79.480672 232.623454 
L 79.480672 220.752234 
L 80.621116 220.752234 
L 80.621116 220.277385 
L 82.211771 220.277385 
L 82.211771 214.5792 
L 83.678349 214.5792 
L 83.678349 208.564449 
L 84.596168 208.564449 
L 84.596168 206.348488 
L 85.471281 206.348488 
L 85.471281 200.650302 
L 86.307488 200.650302 
L 86.307488 197.959493 
L 86.712053 197.959493 
L 86.712053 190.520195 
L 87.1081 190.520195 
L 87.1081 182.764332 
L 87.495981 182.764332 
L 87.495981 172.95079 
L 88.248544 172.95079 
L 88.248544 172.475941 
L 88.972154 172.475941 
L 88.972154 171.684527 
L 92.811505 171.684527 
L 92.811505 171.209678 
L 93.381595 171.209678 
L 93.381595 165.986341 
L 93.66029 165.986341 
L 93.66029 159.180176 
L 93.934916 159.180176 
L 93.934916 155.697951 
L 94.205591 155.697951 
L 94.205591 153.640273 
L 94.472426 153.640273 
L 94.472426 153.323707 
L 94.735529 153.323707 
L 94.735529 152.848859 
L 95.752617 152.848859 
L 95.752617 152.532293 
L 96.95121 152.532293 
L 96.95121 150.949463 
L 97.635342 150.949463 
L 97.635342 150.316332 
L 97.857967 150.316332 
L 97.857967 148.733502 
L 98.295464 148.733502 
L 98.295464 144.459863 
L 98.510456 144.459863 
L 98.510456 141.927337 
L 98.723018 141.927337 
L 98.723018 138.761678 
L 98.933205 138.761678 
L 98.933205 138.286829 
L 99.346662 138.286829 
L 99.346662 137.178849 
L 99.751228 137.178849 
L 99.751228 136.704 
L 99.950294 136.704 
L 99.950294 135.754302 
L 100.535156 135.754302 
L 100.535156 133.380059 
L 100.9152 133.380059 
L 100.9152 133.221776 
L 101.471247 133.221776 
L 101.471247 132.588644 
L 101.833019 132.588644 
L 101.833019 131.005815 
L 102.187964 131.005815 
L 102.187964 126.732176 
L 102.362957 126.732176 
L 102.362957 124.991063 
L 102.536336 124.991063 
L 102.536336 121.192273 
L 102.708132 121.192273 
L 102.708132 116.918634 
L 102.878374 116.918634 
L 102.878374 109.004488 
L 103.047088 109.004488 
L 103.047088 104.256 
L 103.380045 104.256 
L 103.380045 103.464585 
L 104.028784 103.464585 
L 104.028784 102.831454 
L 104.501065 102.831454 
L 104.501065 99.190946 
L 104.655893 99.190946 
L 104.655893 98.557815 
L 105.112877 98.557815 
L 105.112877 96.025288 
L 105.26277 96.025288 
L 105.26277 95.708722 
L 105.411479 95.708722 
L 105.411479 95.07559 
L 105.559021 95.07559 
L 105.559021 91.909932 
L 105.850679 91.909932 
L 105.850679 89.693971 
L 105.99483 89.693971 
L 105.99483 86.844878 
L 106.42077 86.844878 
L 106.42077 85.89518 
L 106.699465 85.89518 
L 106.699465 85.736898 
L 106.837279 85.736898 
L 106.837279 84.628917 
L 106.974091 84.628917 
L 106.974091 83.67922 
L 107.109915 83.67922 
L 107.109915 83.046088 
L 107.643612 83.046088 
L 107.643612 82.887805 
L 107.774703 82.887805 
L 107.774703 82.254673 
L 107.904887 82.254673 
L 107.904887 81.779824 
L 108.034177 81.779824 
L 108.034177 81.146693 
L 108.162584 81.146693 
L 108.162584 80.196995 
L 108.29012 80.196995 
L 108.29012 75.765073 
L 108.416798 75.765073 
L 108.416798 73.232546 
L 108.915146 73.232546 
L 108.915146 71.174868 
L 109.159456 71.174868 
L 109.159456 71.016585 
L 109.280431 71.016585 
L 109.280431 69.908605 
L 109.873904 69.908605 
L 109.873904 68.642341 
L 109.990385 68.642341 
L 109.990385 67.534361 
L 110.221204 67.534361 
L 110.221204 67.217795 
L 110.449226 67.217795 
L 110.449226 65.160117 
L 110.674517 65.160117 
L 110.674517 63.102439 
L 110.786158 63.102439 
L 110.897141 59.145366 
L 111.007473 59.145366 
L 111.117162 57.245971 
L 111.334639 57.245971 
L 111.442442 56.612839 
L 111.656212 56.612839 
L 111.762192 55.504859 
L 111.86758 55.504859 
L 111.86758 54.396878 
L 112.385837 54.396878 
L 112.385837 52.022634 
L 112.690074 52.022634 
L 112.790402 49.490107 
L 113.088217 49.490107 
L 113.186449 48.223844 
L 113.284172 48.223844 
L 113.284172 47.432429 
L 113.57433 47.432429 
L 113.57433 46.007883 
L 113.765312 46.007883 
L 113.765312 44.899902 
L 113.954374 44.899902 
L 114.048198 43.15879 
L 114.510421 43.15879 
L 114.601519 41.575961 
L 114.692177 41.575961 
L 114.7824 39.993132 
L 114.872193 39.993132 
L 114.872193 39.043434 
L 115.139028 39.043434 
L 115.227139 36.985756 
L 115.314838 36.985756 
L 115.402131 35.402927 
L 115.489021 35.402927 
L 115.489021 34.294946 
L 115.661605 34.294946 
L 115.661605 33.661815 
L 115.83262 33.661815 
L 115.83262 30.812722 
L 116.253478 30.812722 
L 116.336531 30.021307 
L 116.419219 30.021307 
L 116.419219 29.07161 
L 116.583514 29.07161 
L 116.665126 27.013932 
L 117.067958 27.013932 
L 117.067958 25.747668 
L 117.226706 25.747668 
L 117.226706 24.639688 
L 117.462345 24.639688 
L 117.540239 21.474029 
L 117.617813 21.474029 
L 117.617813 20.840898 
L 117.848632 20.840898 
L 117.848632 19.258068 
L 118.000953 19.258068 
L 118.000953 18.941502 
L 118.301945 18.941502 
L 118.301945 18.78322 
L 118.524569 18.78322 
L 118.598196 17.20039 
L 118.671535 17.20039 
L 118.671535 17.042107 
L 118.962067 17.042107 
L 119.034004 14.193015 
L 119.319033 14.193015 
L 119.389621 13.4016 
L 119.459944 13.4016 
L 119.530006 11.502205 
L 119.599808 11.502205 
L 119.599808 10.71079 
L 119.876453 10.71079 
L 119.876453 9.919376 
L 120.0813 9.919376 
L 120.149089 9.127961 
L 120.28394 9.127961 
L 120.351004 8.01998 
L 120.879082 8.01998 
L 120.879082 7.861698 
L 121.073351 7.861698 
L 121.073351 7.228566 
L 121.39274 7.228566 
L 121.39274 7.070283 
L 133.623039 7.070283 
L 133.623039 6.912 
L 360.8064 6.912 
L 360.8064 6.912 
" style="fill:none;stroke:#ff00ff;stroke-linecap:square;stroke-width:1.5;"/>
   </g>
   <g id="line2d_35">
    <defs>
     <path d="M -0 8.485281 
L 5.091169 0 
L 0 -8.485281 
L -5.091169 -0 
z
" id="m1a02e3df3c" style="stroke:#ff00ff;stroke-linejoin:miter;stroke-width:1.5;"/>
    </defs>
    <g>
     <use style="fill-opacity:0;stroke:#ff00ff;stroke-linejoin:miter;stroke-width:1.5;" x="112.790402" xlink:href="#m1a02e3df3c" y="51.864351"/>
     <use style="fill-opacity:0;stroke:#ff00ff;stroke-linejoin:miter;stroke-width:1.5;" x="133.623039" xlink:href="#m1a02e3df3c" y="7.070283"/>
     <use style="fill-opacity:0;stroke:#ff00ff;stroke-linejoin:miter;stroke-width:1.5;" x="133.623039" xlink:href="#m1a02e3df3c" y="6.912"/>
     <use style="fill-opacity:0;stroke:#ff00ff;stroke-linejoin:miter;stroke-width:1.5;" x="133.623039" xlink:href="#m1a02e3df3c" y="6.912"/>
     <use style="fill-opacity:0;stroke:#ff00ff;stroke-linejoin:miter;stroke-width:1.5;" x="360.8064" xlink:href="#m1a02e3df3c" y="6.912"/>
    </g>
   </g>
   <g id="line2d_36">
    <path style="fill:none;stroke:#ff00ff;stroke-linecap:square;stroke-width:1.5;"/>
    <g/>
   </g>
   <g id="line2d_37">
    <path clip-path="url(#pbe88e9dd62)" d="M 121.518993 7.070283 
" style="fill:none;stroke:#ff00ff;stroke-linecap:square;stroke-width:1.5;"/>
    <defs>
     <path d="M -12 12 
L 12 -12 
M -12 -12 
L 12 12 
" id="mbfa0a388c8" style="stroke:#ff00ff;"/>
    </defs>
    <g clip-path="url(#pbe88e9dd62)">
     <use style="fill:#ff00ff;stroke:#ff00ff;" x="121.518993" xlink:href="#mbfa0a388c8" y="7.070283"/>
    </g>
   </g>
   <g id="line2d_38">
    <defs>
     <path d="M 0 1.5 
C 0.397805 1.5 0.77937 1.341951 1.06066 1.06066 
C 1.341951 0.77937 1.5 0.397805 1.5 0 
C 1.5 -0.397805 1.341951 -0.77937 1.06066 -1.06066 
C 0.77937 -1.341951 0.397805 -1.5 0 -1.5 
C -0.397805 -1.5 -0.77937 -1.341951 -1.06066 -1.06066 
C -1.341951 -0.77937 -1.5 -0.397805 -1.5 0 
C -1.5 0.397805 -1.341951 0.77937 -1.06066 1.06066 
C -0.77937 1.341951 -0.397805 1.5 0 1.5 
z
" id="m3e258e7dfd" style="stroke:#ff7500;"/>
    </defs>
    <g>
     <use style="fill:#ff7500;stroke:#ff7500;" x="280.540361" xlink:href="#m3e258e7dfd" y="6.912"/>
     <use style="fill:#ff7500;stroke:#ff7500;" x="280.540361" xlink:href="#m3e258e7dfd" y="6.912"/>
    </g>
   </g>
   <g id="line2d_39">
    <path d="M 102.011329 298.944 
L 102.011329 296.411473 
L 105.411479 296.411473 
L 105.411479 287.864195 
L 108.29012 287.864195 
L 108.29012 273.460449 
L 108.791791 273.460449 
L 108.791791 273.302166 
L 110.786158 273.302166 
L 110.786158 249.401444 
L 111.334639 249.401444 
L 111.334639 249.243161 
L 112.180244 249.243161 
L 112.283321 248.926595 
L 112.989468 248.926595 
L 112.989468 220.435668 
L 114.510421 220.435668 
L 114.510421 219.802537 
L 114.961559 219.802537 
L 114.961559 188.937366 
L 116.336531 188.937366 
L 116.336531 188.779083 
L 116.746385 188.779083 
L 116.746385 155.539668 
L 118.227147 155.539668 
L 118.227147 155.381385 
L 118.376446 155.381385 
L 118.376446 132.430361 
L 119.105667 132.430361 
L 119.105667 132.272078 
L 119.530006 132.272078 
L 119.530006 132.113795 
L 119.876453 132.113795 
L 119.876453 118.818029 
L 120.351004 118.818029 
L 120.351004 118.659746 
L 120.550775 118.659746 
L 120.550775 118.501463 
L 120.944062 118.501463 
L 121.008818 118.184898 
L 121.137664 118.184898 
L 121.169739 117.868332 
L 121.265635 117.868332 
L 121.265635 112.011863 
L 122.379802 112.011863 
L 122.379802 111.85358 
L 122.559246 111.85358 
L 122.618682 109.954185 
L 123.713691 109.954185 
L 123.769595 109.004488 
L 124.774928 109.004488 
L 124.774928 108.846205 
L 124.959227 108.846205 
L 124.959227 108.687922 
L 125.425011 108.687922 
L 125.425011 108.371356 
L 125.979073 108.371356 
L 126.078082 107.579941 
L 126.225624 107.579941 
L 126.225624 107.421659 
L 126.517282 107.421659 
L 126.517282 107.105093 
L 127.412117 107.105093 
L 127.412117 106.94681 
L 127.640693 106.94681 
L 127.640693 106.788527 
L 127.776517 106.788527 
L 127.776517 106.313678 
L 128.39771 106.313678 
L 128.484801 105.997112 
L 128.700779 105.997112 
L 128.786481 105.36398 
L 129.581749 105.36398 
L 129.581749 104.256 
L 129.7043 104.256 
L 129.7043 104.097717 
L 130.067235 104.097717 
L 130.067235 103.939434 
L 130.4233 103.939434 
L 130.4233 103.306302 
L 130.656987 103.306302 
L 130.656987 103.14802 
L 130.772751 103.14802 
L 130.772751 102.989737 
L 131.452761 102.989737 
L 131.452761 102.831454 
L 132.251827 102.831454 
L 132.358208 102.356605 
L 133.086488 102.356605 
L 133.086488 102.198322 
L 133.457005 102.198322 
L 133.457005 102.040039 
L 133.885683 102.040039 
L 133.885683 101.881756 
L 134.176839 101.881756 
L 134.176839 101.723473 
L 134.495147 101.723473 
L 134.495147 101.56519 
L 134.683578 101.56519 
L 134.683578 101.248624 
L 134.808158 101.248624 
L 134.808158 101.090341 
L 135.418977 101.090341 
L 135.418977 100.932059 
L 135.538796 100.932059 
L 135.538796 100.615493 
L 135.864417 100.615493 
L 135.864417 100.45721 
L 136.068734 100.45721 
L 136.097741 98.87438 
L 136.242113 98.87438 
L 136.242113 98.716098 
L 136.44239 98.716098 
L 136.44239 98.557815 
L 136.626472 98.557815 
L 136.626472 98.082966 
L 136.752866 98.082966 
L 136.752866 97.924683 
L 137.168148 97.924683 
L 137.168148 97.7664 
L 137.38594 97.7664 
L 137.38594 97.291551 
L 137.547645 97.291551 
L 137.547645 97.133268 
L 137.787626 97.133268 
L 137.787626 96.974985 
L 137.972183 96.974985 
L 137.972183 96.65842 
L 138.128947 96.65842 
L 138.206842 96.183571 
L 138.718057 96.183571 
L 138.818654 94.759024 
L 139.264798 94.759024 
L 139.362521 94.125893 
L 139.386872 94.125893 
L 139.386872 93.809327 
L 139.796097 93.809327 
L 139.867398 92.701346 
L 140.009194 92.701346 
L 140.079694 91.435083 
L 140.405242 91.435083 
L 140.405242 91.2768 
L 140.950542 91.2768 
L 140.950542 91.118517 
L 141.084433 91.118517 
L 141.084433 90.960234 
L 141.283499 90.960234 
L 141.283499 90.801951 
L 141.458695 90.801951 
L 141.458695 90.327102 
L 141.632274 90.327102 
L 141.632274 90.16882 
L 141.825656 90.16882 
L 141.910969 89.060839 
L 141.953481 89.060839 
L 142.01707 88.269424 
L 142.352625 88.269424 
L 142.352625 88.111141 
L 142.682299 88.111141 
L 142.702713 87.161444 
L 143.126369 87.161444 
L 143.205995 86.528312 
L 143.305055 86.528312 
L 143.344534 85.262049 
L 143.540694 85.262049 
L 143.540694 84.945483 
L 143.734829 84.945483 
L 143.744483 84.154068 
L 143.907854 84.154068 
L 143.907854 83.995785 
L 144.088782 83.995785 
L 144.088782 83.837502 
L 144.249202 83.837502 
L 144.249202 83.67922 
L 144.731576 83.67922 
L 144.822939 83.204371 
L 145.067425 83.204371 
L 145.067425 83.046088 
L 145.308773 83.046088 
L 145.344267 82.729522 
L 145.485575 82.729522 
L 145.485575 82.571239 
L 145.62583 82.571239 
L 145.695567 81.779824 
L 145.782376 81.779824 
L 145.782376 81.621541 
L 146.142663 81.621541 
L 146.227438 80.513561 
L 146.27812 80.513561 
L 146.27812 80.355278 
L 146.546143 80.355278 
L 146.579379 78.455883 
L 146.744684 78.455883 
L 146.744684 78.2976 
L 146.924857 78.2976 
L 146.924857 78.139317 
L 147.199956 78.139317 
L 147.296097 77.347902 
L 147.502732 77.347902 
L 147.581606 76.398205 
L 147.785146 76.398205 
L 147.847333 76.081639 
L 147.909315 76.081639 
L 147.909315 74.973659 
L 148.200973 74.973659 
L 148.231412 74.340527 
L 148.367783 74.340527 
L 148.367783 74.182244 
L 148.57797 74.182244 
L 148.57797 74.023961 
L 148.859519 74.023961 
L 148.962194 73.390829 
L 148.976817 73.390829 
L 148.976817 73.232546 
L 149.180344 73.232546 
L 149.238092 72.91598 
L 149.31003 72.91598 
L 149.31003 72.757698 
L 149.46733 72.757698 
L 149.46733 72.282849 
L 149.65155 72.282849 
L 149.65155 72.124566 
L 150.262008 72.124566 
L 150.262008 71.966283 
L 150.479171 71.966283 
L 150.479171 71.808 
L 151.017916 71.808 
L 151.017916 71.649717 
L 151.194122 71.649717 
L 151.194122 71.016585 
L 151.317138 71.016585 
L 151.362257 70.70002 
L 151.586245 70.70002 
L 151.60532 70.066888 
L 151.731998 70.066888 
L 151.731998 69.908605 
L 151.882893 69.908605 
L 151.97036 69.433756 
L 152.007722 69.433756 
L 152.007722 69.275473 
L 152.119363 69.275473 
L 152.230346 68.800624 
L 152.450367 68.800624 
L 152.55942 68.484059 
L 152.763699 68.484059 
L 152.847174 68.00921 
L 153.421349 68.00921 
L 153.421349 67.850927 
L 153.570784 67.850927 
L 153.570784 67.692644 
L 153.877408 67.692644 
L 153.877408 67.534361 
L 154.443296 67.534361 
L 154.552285 67.217795 
L 154.660647 67.217795 
L 154.757642 66.109815 
L 154.896868 66.109815 
L 154.982037 64.21042 
L 155.13016 64.21042 
L 155.13016 64.052137 
L 155.318906 64.052137 
L 155.318906 63.577288 
L 155.443693 63.577288 
L 155.443693 63.419005 
L 155.598521 63.419005 
L 155.680579 62.944156 
L 155.731683 62.944156 
L 155.823323 62.469307 
L 155.874041 62.469307 
L 155.97507 61.994459 
L 156.105602 61.994459 
L 156.105602 61.836176 
L 156.378778 61.836176 
L 156.378778 61.677893 
L 156.725657 61.677893 
L 156.725657 61.51961 
L 156.927882 61.51961 
L 156.947029 61.044761 
L 157.354037 61.044761 
L 157.354037 60.886478 
L 157.586683 60.886478 
L 157.586683 60.728195 
L 157.980225 60.728195 
L 157.980225 60.411629 
L 158.1605 60.411629 
L 158.1605 60.253346 
L 158.321284 60.253346 
L 158.321284 60.095063 
L 158.533546 60.095063 
L 158.630038 58.8288 
L 158.734741 58.8288 
L 158.734741 58.670517 
L 159.105212 58.670517 
L 159.105212 58.512234 
L 159.24122 58.512234 
L 159.351007 58.195668 
L 159.518669 58.195668 
L 159.518669 58.037385 
L 159.717911 58.037385 
L 159.734419 57.72082 
L 159.898714 57.72082 
L 159.988467 57.087688 
L 160.045361 57.087688 
L 160.150567 56.296273 
L 160.190875 56.296273 
L 160.190875 56.13799 
L 160.466668 56.13799 
L 160.565603 55.663141 
L 160.963953 55.663141 
L 161.071844 55.03001 
L 161.110227 55.03001 
L 161.171478 53.763746 
L 161.300977 53.763746 
L 161.316153 52.972332 
L 161.534851 52.972332 
L 161.534851 52.814049 
L 161.861887 52.814049 
L 161.91707 52.3392 
L 162.015991 52.3392 
L 162.103487 52.022634 
L 162.132562 52.022634 
L 162.219518 51.706068 
L 162.284473 51.706068 
L 162.356383 51.389502 
L 162.456597 51.389502 
L 162.470869 51.072937 
L 162.648372 51.072937 
L 162.718906 50.756371 
L 162.761101 50.756371 
L 162.761101 50.123239 
L 162.887118 50.123239 
L 162.908039 48.54041 
L 163.005365 48.54041 
L 163.081483 47.432429 
L 163.191653 47.432429 
L 163.287526 46.95758 
L 163.498092 46.95758 
L 163.498092 46.641015 
L 163.619284 46.641015 
L 163.702988 45.058185 
L 163.759694 45.058185 
L 163.832826 43.950205 
L 163.95848 43.950205 
L 163.971658 43.317073 
L 164.102932 43.317073 
L 164.102932 43.15879 
L 164.349858 43.15879 
L 164.349858 43.000507 
L 164.561694 43.000507 
L 164.599955 42.209093 
L 164.695268 42.209093 
L 164.764859 41.892527 
L 164.903272 41.892527 
L 164.984586 41.417678 
L 165.251069 41.417678 
L 165.327832 40.942829 
L 165.413437 40.942829 
L 165.446961 39.993132 
L 165.541117 39.993132 
L 165.574415 38.568585 
L 165.682978 38.568585 
L 165.682978 38.410302 
L 166.327333 38.410302 
L 166.420087 37.935454 
L 166.448979 37.935454 
L 166.552624 37.460605 
L 166.581313 37.460605 
L 166.581313 37.144039 
L 166.91095 37.144039 
L 166.939098 36.827473 
L 167.146097 36.827473 
L 167.146097 36.352624 
L 167.748381 36.352624 
L 167.748381 35.719493 
L 168.079542 35.719493 
L 168.079542 35.402927 
L 168.195663 35.402927 
L 168.29014 34.769795 
L 168.415377 34.769795 
L 168.430973 33.97838 
L 168.694149 33.97838 
L 168.694149 33.820098 
L 168.953693 33.820098 
L 168.953693 33.661815 
L 169.261983 33.661815 
L 169.269439 33.345249 
L 170.383845 33.345249 
L 170.383845 32.712117 
L 171.664838 32.712117 
L 171.664838 32.553834 
L 172.695049 32.553834 
L 172.695049 32.395551 
L 172.88465 32.395551 
L 172.905144 32.078985 
L 173.2381 32.078985 
L 173.2381 31.920702 
L 174.336355 31.920702 
L 174.336355 31.76242 
L 174.871565 31.76242 
L 174.901062 31.445854 
L 175.10261 31.445854 
L 175.182628 31.129288 
L 175.280369 31.129288 
L 175.280369 30.971005 
L 175.399145 30.971005 
L 175.399145 30.812722 
L 176.054937 30.812722 
L 176.054937 30.496156 
L 176.371047 30.496156 
L 176.371047 29.704741 
L 177.083146 29.704741 
L 177.147012 29.07161 
L 185.376654 29.07161 
L 185.376654 28.913327 
L 198.045949 28.913327 
L 198.068541 27.963629 
L 204.281471 27.963629 
L 204.281471 27.805346 
L 204.719138 27.805346 
L 204.734986 27.330498 
L 205.34142 27.330498 
L 205.34142 27.172215 
L 217.695543 27.172215 
L 217.695543 26.697366 
L 219.96426 26.697366 
L 219.96426 26.539083 
L 220.127054 26.539083 
L 220.127054 26.3808 
L 220.899465 26.3808 
L 220.899465 26.222517 
L 221.752248 26.222517 
L 221.752248 26.064234 
L 222.491001 26.064234 
L 222.491001 25.431102 
L 225.716772 25.431102 
L 225.716772 25.27282 
L 226.235029 25.27282 
L 226.24008 24.797971 
L 228.332306 24.797971 
L 228.332306 24.164839 
L 230.990341 24.164839 
L 231.073202 23.68999 
L 231.131702 23.68999 
L 231.143565 23.215141 
L 231.294724 23.215141 
L 231.362251 21.632312 
L 231.433003 21.632312 
L 231.522025 20.840898 
L 231.602672 20.840898 
L 231.605746 20.524332 
L 232.467002 20.524332 
L 232.467002 20.366049 
L 233.890902 20.366049 
L 233.897786 19.574634 
L 235.287184 19.574634 
L 235.287184 19.416351 
L 236.814228 19.416351 
L 236.889882 19.099785 
L 238.072639 19.099785 
L 238.072639 18.941502 
L 238.446357 18.941502 
L 238.446357 18.78322 
L 240.177068 18.78322 
L 240.17936 18.308371 
L 241.731398 18.308371 
L 241.731926 17.991805 
L 244.043989 17.991805 
L 244.154737 17.042107 
L 244.157057 17.042107 
L 244.164292 16.725541 
L 244.405226 16.725541 
L 244.405226 16.567259 
L 246.668375 16.567259 
L 246.668375 16.408976 
L 248.074536 16.408976 
L 248.074536 16.250693 
L 249.129854 16.250693 
L 249.132275 15.934127 
L 249.703456 15.934127 
L 249.703456 15.775844 
L 250.110314 15.775844 
L 250.110517 15.459278 
L 250.72234 15.459278 
L 250.72378 14.826146 
L 251.682863 14.826146 
L 251.723553 14.351298 
L 252.595382 14.351298 
L 252.595382 14.193015 
L 252.751728 14.193015 
L 252.751728 14.034732 
L 255.170005 14.034732 
L 255.171503 13.4016 
L 255.368337 13.4016 
L 255.368337 13.243317 
L 256.338824 13.243317 
L 256.340426 12.768468 
L 257.01298 12.768468 
L 257.068316 12.29362 
L 258.241141 12.29362 
L 258.241141 12.135337 
L 261.003829 12.135337 
L 261.003829 11.977054 
L 261.195707 11.977054 
L 261.231828 11.343922 
L 262.147826 11.343922 
L 262.147826 11.185639 
L 263.406657 11.185639 
L 263.407757 10.869073 
L 263.705573 10.869073 
L 263.705573 10.71079 
L 264.008212 10.71079 
L 264.017592 10.394224 
L 264.168913 10.394224 
L 264.203641 10.077659 
L 264.636707 10.077659 
L 264.636707 9.919376 
L 266.477112 9.919376 
L 266.477594 9.444527 
L 267.126723 9.444527 
L 267.126723 9.286244 
L 267.338319 9.286244 
L 267.338319 9.127961 
L 269.681774 9.127961 
L 269.682968 8.494829 
L 270.038565 8.494829 
L 270.038565 8.336546 
L 271.429585 8.336546 
L 271.429585 8.178263 
L 272.260949 8.178263 
L 272.260949 8.01998 
L 273.490245 8.01998 
L 273.490245 7.861698 
L 273.93965 7.861698 
L 273.93965 7.703415 
L 274.22434 7.703415 
L 274.22434 7.545132 
L 275.754027 7.545132 
L 275.754062 7.228566 
L 279.963107 7.228566 
L 279.963107 7.070283 
L 280.540361 7.070283 
L 280.540361 6.912 
L 360.8064 6.912 
L 360.8064 6.912 
" style="fill:none;stroke:#ff7500;stroke-linecap:square;stroke-width:1.5;"/>
   </g>
   <g id="line2d_40">
    <defs>
     <path d="M 0 -6 
L -1.347084 -1.854102 
L -5.706339 -1.854102 
L -2.179628 0.708204 
L -3.526712 4.854102 
L -0 2.291796 
L 3.526712 4.854102 
L 2.179628 0.708204 
L 5.706339 -1.854102 
L 1.347084 -1.854102 
z
" id="m4e10fee5db" style="stroke:#ff7500;stroke-linejoin:bevel;stroke-width:1.5;"/>
    </defs>
    <g>
     <use style="fill-opacity:0;stroke:#ff7500;stroke-linejoin:bevel;stroke-width:1.5;" x="118.227147" xlink:href="#m4e10fee5db" y="155.381385"/>
     <use style="fill-opacity:0;stroke:#ff7500;stroke-linejoin:bevel;stroke-width:1.5;" x="198.068541" xlink:href="#m4e10fee5db" y="27.963629"/>
     <use style="fill-opacity:0;stroke:#ff7500;stroke-linejoin:bevel;stroke-width:1.5;" x="275.754062" xlink:href="#m4e10fee5db" y="7.386849"/>
     <use style="fill-opacity:0;stroke:#ff7500;stroke-linejoin:bevel;stroke-width:1.5;" x="280.540361" xlink:href="#m4e10fee5db" y="6.912"/>
     <use style="fill-opacity:0;stroke:#ff7500;stroke-linejoin:bevel;stroke-width:1.5;" x="360.8064" xlink:href="#m4e10fee5db" y="6.912"/>
    </g>
   </g>
   <g id="line2d_41">
    <path style="fill:none;stroke:#ff7500;stroke-linecap:square;stroke-width:1.5;"/>
    <g/>
   </g>
   <g id="line2d_42">
    <path clip-path="url(#pbe88e9dd62)" d="M 230.861458 24.164839 
" style="fill:none;stroke:#ff7500;stroke-linecap:square;stroke-width:1.5;"/>
    <defs>
     <path d="M -12 12 
L 12 -12 
M -12 -12 
L 12 12 
" id="m504f418fe0" style="stroke:#ff7500;"/>
    </defs>
    <g clip-path="url(#pbe88e9dd62)">
     <use style="fill:#ff7500;stroke:#ff7500;" x="230.861458" xlink:href="#m504f418fe0" y="24.164839"/>
    </g>
   </g>
   <g id="line2d_43">
    <defs>
     <path d="M 0 1.5 
C 0.397805 1.5 0.77937 1.341951 1.06066 1.06066 
C 1.341951 0.77937 1.5 0.397805 1.5 0 
C 1.5 -0.397805 1.341951 -0.77937 1.06066 -1.06066 
C 0.77937 -1.341951 0.397805 -1.5 0 -1.5 
C -0.397805 -1.5 -0.77937 -1.341951 -1.06066 -1.06066 
C -1.341951 -0.77937 -1.5 -0.397805 -1.5 0 
C -1.5 0.397805 -1.341951 0.77937 -1.06066 1.06066 
C -0.77937 1.341951 -0.397805 1.5 0 1.5 
z
" id="m108871dcc5" style="stroke:#6495ed;"/>
    </defs>
    <g>
     <use style="fill:#6495ed;stroke:#6495ed;" x="262.332992" xlink:href="#m108871dcc5" y="6.912"/>
     <use style="fill:#6495ed;stroke:#6495ed;" x="262.332992" xlink:href="#m108871dcc5" y="6.912"/>
    </g>
   </g>
   <g id="line2d_44">
    <path d="M 73.672879 298.944 
L 73.672879 169.943415 
L 74.456807 169.943415 
L 74.456807 169.626849 
L 74.836851 169.626849 
L 74.836851 168.835434 
L 75.93298 168.835434 
L 75.93298 168.518868 
L 76.284608 168.518868 
L 76.284608 168.360585 
L 76.629783 168.360585 
L 76.629783 168.202302 
L 77.301696 168.202302 
L 77.301696 168.04402 
L 77.628862 168.04402 
L 77.628862 167.569171 
L 78.577544 167.569171 
L 78.577544 167.252605 
L 78.88343 167.252605 
L 78.88343 167.094322 
L 79.184421 167.094322 
L 79.184421 166.936039 
L 79.77233 166.936039 
L 79.77233 166.777756 
L 85.894031 166.777756 
L 85.894031 131.164098 
L 93.240684 131.164098 
L 93.240684 117.393483 
L 98.510456 117.393483 
L 98.510456 115.968937 
L 98.723018 115.968937 
L 98.723018 115.810654 
L 100.535156 115.810654 
L 100.535156 115.335805 
L 102.62243 115.335805 
L 102.62243 112.961561 
L 102.793446 112.961561 
L 102.793446 112.328429 
L 105.99483 112.328429 
L 105.99483 110.587317 
L 106.137884 110.587317 
L 106.137884 107.896507 
L 106.279859 107.896507 
L 106.350446 107.421659 
L 108.85357 107.421659 
L 108.85357 104.889132 
L 108.976522 104.889132 
L 108.976522 102.198322 
L 109.159456 102.198322 
L 109.22004 100.615493 
L 109.873904 100.615493 
L 109.873904 99.665795 
L 110.335561 99.665795 
L 110.335561 99.032663 
L 111.334639 99.032663 
L 111.442442 94.759024 
L 111.656212 94.759024 
L 111.656212 94.125893 
L 112.231853 94.125893 
L 112.231853 91.751649 
L 113.52628 91.751649 
L 113.622258 87.161444 
L 113.717748 87.161444 
L 113.812756 86.211746 
L 115.489021 86.211746 
L 115.575511 82.571239 
L 115.661605 82.571239 
L 115.661605 81.304976 
L 115.83262 81.304976 
L 115.83262 80.98841 
L 117.266185 80.98841 
L 117.344894 77.822751 
L 117.423276 77.822751 
L 117.501332 75.448507 
L 117.579066 75.448507 
L 117.579066 74.973659 
L 117.810359 74.973659 
L 117.810359 72.91598 
L 118.889854 72.91598 
L 118.962067 65.634966 
L 119.034004 65.634966 
L 119.105667 63.735571 
L 119.177058 63.735571 
L 119.177058 63.260722 
L 119.530006 63.260722 
L 119.530006 63.102439 
L 120.384447 63.102439 
L 120.451154 59.303649 
L 120.517626 59.303649 
L 120.583864 55.979707 
L 120.64987 55.979707 
L 120.715645 55.346576 
L 120.846508 55.346576 
L 120.846508 54.713444 
L 121.041112 54.713444 
L 121.137664 54.080312 
L 121.169739 54.080312 
L 121.169739 53.922029 
L 121.768984 53.922029 
L 121.830966 51.389502 
L 121.892744 51.389502 
L 121.954321 47.590712 
L 122.015696 47.590712 
L 122.076872 47.274146 
L 122.259215 47.274146 
L 122.259215 47.115863 
L 122.409829 47.115863 
L 122.439807 46.799298 
L 122.559246 46.799298 
L 122.588988 45.691317 
L 123.058567 45.691317 
L 123.116449 43.475356 
L 123.174153 43.475356 
L 123.174153 41.575961 
L 123.289033 41.575961 
L 123.346211 40.309698 
L 123.460048 40.309698 
L 123.460048 39.201717 
L 123.657621 39.201717 
L 123.741664 38.093737 
L 124.046648 38.093737 
L 124.046648 37.777171 
L 124.427792 37.777171 
L 124.481616 33.186966 
L 124.668797 33.186966 
L 124.668797 33.028683 
L 125.552375 33.028683 
L 125.60308 31.129288 
L 125.804545 31.129288 
L 125.804545 30.337873 
L 126.053378 30.337873 
L 126.053378 29.704741 
L 126.661432 29.704741 
L 126.709238 27.647063 
L 126.851931 27.647063 
L 126.851931 27.013932 
L 127.753948 27.013932 
L 127.753948 26.855649 
L 128.023009 26.855649 
L 128.023009 26.697366 
L 128.743679 26.697366 
L 128.743679 26.3808 
L 129.68393 26.3808 
L 129.68393 25.589385 
L 131.489828 25.589385 
L 131.489828 25.431102 
L 132.428795 25.431102 
L 132.428795 24.164839 
L 136.499223 24.164839 
L 136.499223 24.006556 
L 138.83119 24.006556 
L 138.83119 23.848273 
L 138.956102 23.848273 
L 138.956102 23.68999 
L 139.362521 23.68999 
L 139.362521 22.740293 
L 139.879255 22.740293 
L 139.879255 21.632312 
L 142.682299 21.632312 
L 142.682299 21.474029 
L 145.3354 21.474029 
L 145.3354 21.315746 
L 152.547334 21.315746 
L 152.547334 20.524332 
L 153.587951 20.524332 
L 153.587951 20.207766 
L 155.613934 20.207766 
L 155.613934 19.8912 
L 156.105602 19.8912 
L 156.105602 19.416351 
L 157.591307 19.416351 
L 157.591307 19.258068 
L 157.934885 19.258068 
L 157.957569 18.941502 
L 161.691646 18.941502 
L 161.691646 18.78322 
L 162.31327 18.78322 
L 162.324057 17.991805 
L 163.440591 17.991805 
L 163.440591 17.358673 
L 166.336048 17.358673 
L 166.336048 16.09241 
L 168.565601 16.09241 
L 168.565601 15.617561 
L 170.857946 15.617561 
L 170.857946 15.459278 
L 173.068298 15.459278 
L 173.068298 14.826146 
L 174.853106 14.826146 
L 174.853106 14.50958 
L 177.25785 14.50958 
L 177.25785 14.034732 
L 178.771702 14.034732 
L 178.771702 13.559883 
L 184.375157 13.559883 
L 184.431847 13.243317 
L 185.018612 13.243317 
L 185.018612 13.085034 
L 186.633095 13.085034 
L 186.633095 12.610185 
L 195.851045 12.610185 
L 195.851045 12.451902 
L 198.614794 12.451902 
L 198.614794 12.29362 
L 199.855999 12.29362 
L 199.855999 11.977054 
L 200.403786 11.977054 
L 200.403786 11.818771 
L 202.836373 11.818771 
L 202.836373 11.660488 
L 203.20246 11.660488 
L 203.20246 10.869073 
L 207.407991 10.869073 
L 207.407991 10.71079 
L 211.409031 10.71079 
L 211.409031 10.552507 
L 211.560785 10.552507 
L 211.560785 10.394224 
L 212.913742 10.394224 
L 212.913742 10.235941 
L 217.247865 10.235941 
L 217.247865 10.077659 
L 218.967026 10.077659 
L 218.967026 9.919376 
L 219.737627 9.919376 
L 219.737627 9.761093 
L 220.744375 9.761093 
L 220.744375 9.60281 
L 221.094432 9.60281 
L 221.094432 9.444527 
L 221.669639 9.444527 
L 221.765676 9.127961 
L 223.679608 9.127961 
L 223.679608 8.969678 
L 228.127964 8.969678 
L 228.127964 8.811395 
L 228.520716 8.811395 
L 228.520716 8.653112 
L 232.510822 8.653112 
L 232.510822 8.494829 
L 234.369004 8.494829 
L 234.369004 8.336546 
L 234.607814 8.336546 
L 234.659996 8.01998 
L 235.155444 8.01998 
L 235.155444 7.861698 
L 247.110316 7.861698 
L 247.110316 7.703415 
L 251.206069 7.703415 
L 251.206069 7.545132 
L 251.431439 7.545132 
L 251.431439 7.386849 
L 254.338809 7.386849 
L 254.338809 7.228566 
L 254.513364 7.228566 
L 254.513364 7.070283 
L 262.332992 7.070283 
L 262.332992 6.912 
L 360.8064 6.912 
L 360.8064 6.912 
" style="fill:none;stroke:#6495ed;stroke-linecap:square;stroke-width:1.5;"/>
   </g>
   <g id="line2d_45">
    <defs>
     <path d="M -0 6 
L 6 -6 
L -6 -6 
z
" id="m03445c2036" style="stroke:#6495ed;stroke-linejoin:miter;stroke-width:1.5;"/>
    </defs>
    <g>
     <use style="fill-opacity:0;stroke:#6495ed;stroke-linejoin:miter;stroke-width:1.5;" x="111.334639" xlink:href="#m03445c2036" y="97.133268"/>
     <use style="fill-opacity:0;stroke:#6495ed;stroke-linejoin:miter;stroke-width:1.5;" x="178.771702" xlink:href="#m03445c2036" y="14.034732"/>
     <use style="fill-opacity:0;stroke:#6495ed;stroke-linejoin:miter;stroke-width:1.5;" x="262.332992" xlink:href="#m03445c2036" y="6.912"/>
     <use style="fill-opacity:0;stroke:#6495ed;stroke-linejoin:miter;stroke-width:1.5;" x="262.332992" xlink:href="#m03445c2036" y="6.912"/>
     <use style="fill-opacity:0;stroke:#6495ed;stroke-linejoin:miter;stroke-width:1.5;" x="360.8064" xlink:href="#m03445c2036" y="6.912"/>
    </g>
   </g>
   <g id="line2d_46">
    <path style="fill:none;stroke:#6495ed;stroke-linecap:square;stroke-width:1.5;"/>
    <g/>
   </g>
   <g id="line2d_47">
    <path clip-path="url(#pbe88e9dd62)" d="M 220.527164 9.761093 
" style="fill:none;stroke:#6495ed;stroke-linecap:square;stroke-width:1.5;"/>
    <defs>
     <path d="M -12 12 
L 12 -12 
M -12 -12 
L 12 12 
" id="m3b9a69f4e7" style="stroke:#6495ed;"/>
    </defs>
    <g clip-path="url(#pbe88e9dd62)">
     <use style="fill:#6495ed;stroke:#6495ed;" x="220.527164" xlink:href="#m3b9a69f4e7" y="9.761093"/>
    </g>
   </g>
   <g id="line2d_48">
    <path d="M 360.8064 6.912 
L 380.514816 293.10336 
" style="fill:none;stroke:#ff7500;stroke-linecap:square;stroke-width:1.5;"/>
    <g>
     <use style="fill-opacity:0;stroke:#ff7500;stroke-linejoin:bevel;stroke-width:1.5;" x="360.8064" xlink:href="#m4e10fee5db" y="6.912"/>
     <use style="fill-opacity:0;stroke:#ff7500;stroke-linejoin:bevel;stroke-width:1.5;" x="380.514816" xlink:href="#m4e10fee5db" y="293.10336"/>
    </g>
   </g>
   <g id="line2d_49">
    <path d="M 360.8064 6.912 
L 380.514816 199.65312 
" style="fill:none;stroke:#6495ed;stroke-linecap:square;stroke-width:1.5;"/>
    <g>
     <use style="fill-opacity:0;stroke:#6495ed;stroke-linejoin:miter;stroke-width:1.5;" x="360.8064" xlink:href="#m03445c2036" y="6.912"/>
     <use style="fill-opacity:0;stroke:#6495ed;stroke-linejoin:miter;stroke-width:1.5;" x="380.514816" xlink:href="#m03445c2036" y="199.65312"/>
    </g>
   </g>
   <g id="line2d_50">
    <path d="M 360.8064 6.912 
L 380.514816 106.20288 
" style="fill:none;stroke:#000080;stroke-linecap:square;stroke-width:1.5;"/>
    <g>
     <use style="fill-opacity:0;stroke:#000080;stroke-width:1.5;" x="360.8064" xlink:href="#mb72ab882b8" y="6.912"/>
     <use style="fill-opacity:0;stroke:#000080;stroke-width:1.5;" x="380.514816" xlink:href="#mb72ab882b8" y="106.20288"/>
    </g>
   </g>
   <g id="line2d_51">
    <path d="M 360.8064 6.912 
L 380.514816 12.75264 
" style="fill:none;stroke:#ff00ff;stroke-linecap:square;stroke-width:1.5;"/>
    <g>
     <use style="fill-opacity:0;stroke:#ff00ff;stroke-linejoin:miter;stroke-width:1.5;" x="360.8064" xlink:href="#m1a02e3df3c" y="6.912"/>
     <use style="fill-opacity:0;stroke:#ff00ff;stroke-linejoin:miter;stroke-width:1.5;" x="380.514816" xlink:href="#m1a02e3df3c" y="12.75264"/>
    </g>
   </g>
   <g id="line2d_52">
    <path d="M 360.8064 298.944 
L 360.8064 6.912 
" style="fill:none;stroke:#000000;stroke-linecap:square;stroke-width:1.5;"/>
   </g>
   <g id="patch_3">
    <path d="M 57.6 298.944 
L 360.8064 298.944 
" style="fill:none;stroke:#000000;stroke-linecap:square;stroke-linejoin:miter;stroke-width:0.8;"/>
   </g>
   <g id="patch_4">
    <path d="M 57.6 6.912 
L 360.8064 6.912 
" style="fill:none;stroke:#000000;stroke-linecap:square;stroke-linejoin:miter;stroke-width:0.8;"/>
   </g>
   <g id="text_13">
    <!-- fmincon -->
    <g transform="translate(386.578944 296.966485)scale(0.14 -0.14)">
     <use xlink:href="#DejaVuSans-102"/>
     <use x="35.205078" xlink:href="#DejaVuSans-109"/>
     <use x="132.617188" xlink:href="#DejaVuSans-105"/>
     <use x="160.400391" xlink:href="#DejaVuSans-110"/>
     <use x="223.779297" xlink:href="#DejaVuSans-99"/>
     <use x="278.759766" xlink:href="#DejaVuSans-111"/>
     <use x="339.941406" xlink:href="#DejaVuSans-110"/>
    </g>
   </g>
   <g id="text_14">
    <!-- slsqp -->
    <g transform="translate(386.578944 203.516245)scale(0.14 -0.14)">
     <defs>
      <path d="M 14.796875 27.296875 
Q 14.796875 17.390625 18.875 11.75 
Q 22.953125 6.109375 30.078125 6.109375 
Q 37.203125 6.109375 41.296875 11.75 
Q 45.40625 17.390625 45.40625 27.296875 
Q 45.40625 37.203125 41.296875 42.84375 
Q 37.203125 48.484375 30.078125 48.484375 
Q 22.953125 48.484375 18.875 42.84375 
Q 14.796875 37.203125 14.796875 27.296875 
z
M 45.40625 8.203125 
Q 42.578125 3.328125 38.25 0.953125 
Q 33.9375 -1.421875 27.875 -1.421875 
Q 17.96875 -1.421875 11.734375 6.484375 
Q 5.515625 14.40625 5.515625 27.296875 
Q 5.515625 40.1875 11.734375 48.09375 
Q 17.96875 56 27.875 56 
Q 33.9375 56 38.25 53.625 
Q 42.578125 51.265625 45.40625 46.390625 
L 45.40625 54.6875 
L 54.390625 54.6875 
L 54.390625 -20.796875 
L 45.40625 -20.796875 
z
" id="DejaVuSans-113"/>
     </defs>
     <use xlink:href="#DejaVuSans-115"/>
     <use x="52.099609" xlink:href="#DejaVuSans-108"/>
     <use x="79.882812" xlink:href="#DejaVuSans-115"/>
     <use x="131.982422" xlink:href="#DejaVuSans-113"/>
     <use x="195.458984" xlink:href="#DejaVuSans-112"/>
    </g>
   </g>
   <g id="text_15">
    <!-- cobyla -->
    <g transform="translate(386.578944 110.066005)scale(0.14 -0.14)">
     <defs>
      <path d="M 48.6875 27.296875 
Q 48.6875 37.203125 44.609375 42.84375 
Q 40.53125 48.484375 33.40625 48.484375 
Q 26.265625 48.484375 22.1875 42.84375 
Q 18.109375 37.203125 18.109375 27.296875 
Q 18.109375 17.390625 22.1875 11.75 
Q 26.265625 6.109375 33.40625 6.109375 
Q 40.53125 6.109375 44.609375 11.75 
Q 48.6875 17.390625 48.6875 27.296875 
z
M 18.109375 46.390625 
Q 20.953125 51.265625 25.265625 53.625 
Q 29.59375 56 35.59375 56 
Q 45.5625 56 51.78125 48.09375 
Q 58.015625 40.1875 58.015625 27.296875 
Q 58.015625 14.40625 51.78125 6.484375 
Q 45.5625 -1.421875 35.59375 -1.421875 
Q 29.59375 -1.421875 25.265625 0.953125 
Q 20.953125 3.328125 18.109375 8.203125 
L 18.109375 0 
L 9.078125 0 
L 9.078125 75.984375 
L 18.109375 75.984375 
z
" id="DejaVuSans-98"/>
      <path d="M 32.171875 -5.078125 
Q 28.375 -14.84375 24.75 -17.8125 
Q 21.140625 -20.796875 15.09375 -20.796875 
L 7.90625 -20.796875 
L 7.90625 -13.28125 
L 13.1875 -13.28125 
Q 16.890625 -13.28125 18.9375 -11.515625 
Q 21 -9.765625 23.484375 -3.21875 
L 25.09375 0.875 
L 2.984375 54.6875 
L 12.5 54.6875 
L 29.59375 11.921875 
L 46.6875 54.6875 
L 56.203125 54.6875 
z
" id="DejaVuSans-121"/>
     </defs>
     <use xlink:href="#DejaVuSans-99"/>
     <use x="54.980469" xlink:href="#DejaVuSans-111"/>
     <use x="116.162109" xlink:href="#DejaVuSans-98"/>
     <use x="179.638672" xlink:href="#DejaVuSans-121"/>
     <use x="238.818359" xlink:href="#DejaVuSans-108"/>
     <use x="266.601562" xlink:href="#DejaVuSans-97"/>
    </g>
   </g>
   <g id="text_16">
    <!-- cobyla rh -->
    <g transform="translate(386.578944 16.615765)scale(0.14 -0.14)">
     <defs>
      <path d="M 54.890625 33.015625 
L 54.890625 0 
L 45.90625 0 
L 45.90625 32.71875 
Q 45.90625 40.484375 42.875 44.328125 
Q 39.84375 48.1875 33.796875 48.1875 
Q 26.515625 48.1875 22.3125 43.546875 
Q 18.109375 38.921875 18.109375 30.90625 
L 18.109375 0 
L 9.078125 0 
L 9.078125 75.984375 
L 18.109375 75.984375 
L 18.109375 46.1875 
Q 21.34375 51.125 25.703125 53.5625 
Q 30.078125 56 35.796875 56 
Q 45.21875 56 50.046875 50.171875 
Q 54.890625 44.34375 54.890625 33.015625 
z
" id="DejaVuSans-104"/>
     </defs>
     <use xlink:href="#DejaVuSans-99"/>
     <use x="54.980469" xlink:href="#DejaVuSans-111"/>
     <use x="116.162109" xlink:href="#DejaVuSans-98"/>
     <use x="179.638672" xlink:href="#DejaVuSans-121"/>
     <use x="238.818359" xlink:href="#DejaVuSans-108"/>
     <use x="266.601562" xlink:href="#DejaVuSans-97"/>
     <use x="327.880859" xlink:href="#DejaVuSans-32"/>
     <use x="359.667969" xlink:href="#DejaVuSans-114"/>
     <use x="399.03125" xlink:href="#DejaVuSans-104"/>
    </g>
   </g>
   <g id="text_17">
    <!-- bbob-constrained f6, f12, f18, 20-D -->
    <g transform="translate(60.632064 17.582726)scale(0.102 -0.102)">
     <defs>
      <path d="M 4.890625 31.390625 
L 31.203125 31.390625 
L 31.203125 23.390625 
L 4.890625 23.390625 
z
" id="DejaVuSans-45"/>
      <path d="M 19.671875 64.796875 
L 19.671875 8.109375 
L 31.59375 8.109375 
Q 46.6875 8.109375 53.6875 14.9375 
Q 60.6875 21.78125 60.6875 36.53125 
Q 60.6875 51.171875 53.6875 57.984375 
Q 46.6875 64.796875 31.59375 64.796875 
z
M 9.8125 72.90625 
L 30.078125 72.90625 
Q 51.265625 72.90625 61.171875 64.09375 
Q 71.09375 55.28125 71.09375 36.53125 
Q 71.09375 17.671875 61.125 8.828125 
Q 51.171875 0 30.078125 0 
L 9.8125 0 
z
" id="DejaVuSans-68"/>
     </defs>
     <use xlink:href="#DejaVuSans-98"/>
     <use x="63.476562" xlink:href="#DejaVuSans-98"/>
     <use x="126.953125" xlink:href="#DejaVuSans-111"/>
     <use x="188.134766" xlink:href="#DejaVuSans-98"/>
     <use x="251.611328" xlink:href="#DejaVuSans-45"/>
     <use x="287.695312" xlink:href="#DejaVuSans-99"/>
     <use x="342.675781" xlink:href="#DejaVuSans-111"/>
     <use x="403.857422" xlink:href="#DejaVuSans-110"/>
     <use x="467.236328" xlink:href="#DejaVuSans-115"/>
     <use x="519.335938" xlink:href="#DejaVuSans-116"/>
     <use x="558.544922" xlink:href="#DejaVuSans-114"/>
     <use x="599.658203" xlink:href="#DejaVuSans-97"/>
     <use x="660.9375" xlink:href="#DejaVuSans-105"/>
     <use x="688.720703" xlink:href="#DejaVuSans-110"/>
     <use x="752.099609" xlink:href="#DejaVuSans-101"/>
     <use x="813.623047" xlink:href="#DejaVuSans-100"/>
     <use x="877.099609" xlink:href="#DejaVuSans-32"/>
     <use x="908.886719" xlink:href="#DejaVuSans-102"/>
     <use x="944.091797" xlink:href="#DejaVuSans-54"/>
     <use x="1007.714844" xlink:href="#DejaVuSans-44"/>
     <use x="1039.501953" xlink:href="#DejaVuSans-32"/>
     <use x="1071.289062" xlink:href="#DejaVuSans-102"/>
     <use x="1106.494141" xlink:href="#DejaVuSans-49"/>
     <use x="1170.117188" xlink:href="#DejaVuSans-50"/>
     <use x="1233.740234" xlink:href="#DejaVuSans-44"/>
     <use x="1265.527344" xlink:href="#DejaVuSans-32"/>
     <use x="1297.314453" xlink:href="#DejaVuSans-102"/>
     <use x="1332.519531" xlink:href="#DejaVuSans-49"/>
     <use x="1396.142578" xlink:href="#DejaVuSans-56"/>
     <use x="1459.765625" xlink:href="#DejaVuSans-44"/>
     <use x="1491.552734" xlink:href="#DejaVuSans-32"/>
     <use x="1523.339844" xlink:href="#DejaVuSans-50"/>
     <use x="1586.962891" xlink:href="#DejaVuSans-48"/>
     <use x="1650.585938" xlink:href="#DejaVuSans-45"/>
     <use x="1686.669922" xlink:href="#DejaVuSans-68"/>
    </g>
    <!-- 41 targets: 100..1e-06 -->
    <g transform="translate(60.632064 29.004495)scale(0.102 -0.102)">
     <defs>
      <path d="M 11.71875 12.40625 
L 22.015625 12.40625 
L 22.015625 0 
L 11.71875 0 
z
M 11.71875 51.703125 
L 22.015625 51.703125 
L 22.015625 39.3125 
L 11.71875 39.3125 
z
" id="DejaVuSans-58"/>
     </defs>
     <use xlink:href="#DejaVuSans-52"/>
     <use x="63.623047" xlink:href="#DejaVuSans-49"/>
     <use x="127.246094" xlink:href="#DejaVuSans-32"/>
     <use x="159.033203" xlink:href="#DejaVuSans-116"/>
     <use x="198.242188" xlink:href="#DejaVuSans-97"/>
     <use x="259.521484" xlink:href="#DejaVuSans-114"/>
     <use x="298.884766" xlink:href="#DejaVuSans-103"/>
     <use x="362.361328" xlink:href="#DejaVuSans-101"/>
     <use x="423.884766" xlink:href="#DejaVuSans-116"/>
     <use x="463.09375" xlink:href="#DejaVuSans-115"/>
     <use x="515.193359" xlink:href="#DejaVuSans-58"/>
     <use x="548.884766" xlink:href="#DejaVuSans-32"/>
     <use x="580.671875" xlink:href="#DejaVuSans-49"/>
     <use x="644.294922" xlink:href="#DejaVuSans-48"/>
     <use x="707.917969" xlink:href="#DejaVuSans-48"/>
     <use x="771.541016" xlink:href="#DejaVuSans-46"/>
     <use x="803.328125" xlink:href="#DejaVuSans-46"/>
     <use x="835.115234" xlink:href="#DejaVuSans-49"/>
     <use x="898.738281" xlink:href="#DejaVuSans-101"/>
     <use x="960.261719" xlink:href="#DejaVuSans-45"/>
     <use x="996.345703" xlink:href="#DejaVuSans-48"/>
     <use x="1059.96875" xlink:href="#DejaVuSans-54"/>
    </g>
    <!-- evals = f-evals + g-evals -->
    <g transform="translate(60.632064 40.426264)scale(0.102 -0.102)">
     <defs>
      <path d="M 10.59375 45.40625 
L 73.1875 45.40625 
L 73.1875 37.203125 
L 10.59375 37.203125 
z
M 10.59375 25.484375 
L 73.1875 25.484375 
L 73.1875 17.1875 
L 10.59375 17.1875 
z
" id="DejaVuSans-61"/>
      <path d="M 46 62.703125 
L 46 35.5 
L 73.1875 35.5 
L 73.1875 27.203125 
L 46 27.203125 
L 46 0 
L 37.796875 0 
L 37.796875 27.203125 
L 10.59375 27.203125 
L 10.59375 35.5 
L 37.796875 35.5 
L 37.796875 62.703125 
z
" id="DejaVuSans-43"/>
     </defs>
     <use xlink:href="#DejaVuSans-101"/>
     <use x="61.523438" xlink:href="#DejaVuSans-118"/>
     <use x="120.703125" xlink:href="#DejaVuSans-97"/>
     <use x="181.982422" xlink:href="#DejaVuSans-108"/>
     <use x="209.765625" xlink:href="#DejaVuSans-115"/>
     <use x="261.865234" xlink:href="#DejaVuSans-32"/>
     <use x="293.652344" xlink:href="#DejaVuSans-61"/>
     <use x="377.441406" xlink:href="#DejaVuSans-32"/>
     <use x="409.228516" xlink:href="#DejaVuSans-102"/>
     <use x="438.933594" xlink:href="#DejaVuSans-45"/>
     <use x="475.017578" xlink:href="#DejaVuSans-101"/>
     <use x="536.541016" xlink:href="#DejaVuSans-118"/>
     <use x="595.720703" xlink:href="#DejaVuSans-97"/>
     <use x="657" xlink:href="#DejaVuSans-108"/>
     <use x="684.783203" xlink:href="#DejaVuSans-115"/>
     <use x="736.882812" xlink:href="#DejaVuSans-32"/>
     <use x="768.669922" xlink:href="#DejaVuSans-43"/>
     <use x="852.458984" xlink:href="#DejaVuSans-32"/>
     <use x="884.246094" xlink:href="#DejaVuSans-103"/>
     <use x="947.722656" xlink:href="#DejaVuSans-45"/>
     <use x="983.806641" xlink:href="#DejaVuSans-101"/>
     <use x="1045.330078" xlink:href="#DejaVuSans-118"/>
     <use x="1104.509766" xlink:href="#DejaVuSans-97"/>
     <use x="1165.789062" xlink:href="#DejaVuSans-108"/>
     <use x="1193.572266" xlink:href="#DejaVuSans-115"/>
    </g>
    <!-- 15 instances -->
    <g transform="translate(60.632064 51.848032)scale(0.102 -0.102)">
     <defs>
      <path d="M 10.796875 72.90625 
L 49.515625 72.90625 
L 49.515625 64.59375 
L 19.828125 64.59375 
L 19.828125 46.734375 
Q 21.96875 47.46875 24.109375 47.828125 
Q 26.265625 48.1875 28.421875 48.1875 
Q 40.625 48.1875 47.75 41.5 
Q 54.890625 34.8125 54.890625 23.390625 
Q 54.890625 11.625 47.5625 5.09375 
Q 40.234375 -1.421875 26.90625 -1.421875 
Q 22.3125 -1.421875 17.546875 -0.640625 
Q 12.796875 0.140625 7.71875 1.703125 
L 7.71875 11.625 
Q 12.109375 9.234375 16.796875 8.0625 
Q 21.484375 6.890625 26.703125 6.890625 
Q 35.15625 6.890625 40.078125 11.328125 
Q 45.015625 15.765625 45.015625 23.390625 
Q 45.015625 31 40.078125 35.4375 
Q 35.15625 39.890625 26.703125 39.890625 
Q 22.75 39.890625 18.8125 39.015625 
Q 14.890625 38.140625 10.796875 36.28125 
z
" id="DejaVuSans-53"/>
     </defs>
     <use xlink:href="#DejaVuSans-49"/>
     <use x="63.623047" xlink:href="#DejaVuSans-53"/>
     <use x="127.246094" xlink:href="#DejaVuSans-32"/>
     <use x="159.033203" xlink:href="#DejaVuSans-105"/>
     <use x="186.816406" xlink:href="#DejaVuSans-110"/>
     <use x="250.195312" xlink:href="#DejaVuSans-115"/>
     <use x="302.294922" xlink:href="#DejaVuSans-116"/>
     <use x="341.503906" xlink:href="#DejaVuSans-97"/>
     <use x="402.783203" xlink:href="#DejaVuSans-110"/>
     <use x="466.162109" xlink:href="#DejaVuSans-99"/>
     <use x="521.142578" xlink:href="#DejaVuSans-101"/>
     <use x="582.666016" xlink:href="#DejaVuSans-115"/>
    </g>
   </g>
   <g id="text_18">
    <!-- v2.4.152 -->
    <g style="fill:#808080;" transform="translate(187.15945 293.943992)scale(0.1 -0.1)">
     <use xlink:href="#DejaVuSans-118"/>
     <use x="59.179688" xlink:href="#DejaVuSans-50"/>
     <use x="122.802734" xlink:href="#DejaVuSans-46"/>
     <use x="154.589844" xlink:href="#DejaVuSans-52"/>
     <use x="218.212891" xlink:href="#DejaVuSans-46"/>
     <use x="250" xlink:href="#DejaVuSans-49"/>
     <use x="313.623047" xlink:href="#DejaVuSans-53"/>
     <use x="377.246094" xlink:href="#DejaVuSans-50"/>
    </g>
   </g>
  </g>
 </g>
 <defs>
  <clipPath id="pbe88e9dd62">
   <rect height="292.032" width="303.2064" x="57.6" y="6.912"/>
  </clipPath>
 </defs>
</svg>
