<?xml version="1.0" encoding="utf-8" standalone="no"?>
<!DOCTYPE svg PUBLIC "-//W3C//DTD SVG 1.1//EN"
  "http://www.w3.org/Graphics/SVG/1.1/DTD/svg11.dtd">
<!-- Created with matplotlib (https://matplotlib.org/) -->
<svg height="345.6pt" version="1.1" viewBox="0 0 460.8 345.6" width="460.8pt" xmlns="http://www.w3.org/2000/svg" xmlns:xlink="http://www.w3.org/1999/xlink">
 <metadata>
  <rdf:RDF xmlns:cc="http://creativecommons.org/ns#" xmlns:dc="http://purl.org/dc/elements/1.1/" xmlns:rdf="http://www.w3.org/1999/02/22-rdf-syntax-ns#">
   <cc:Work>
    <dc:type rdf:resource="http://purl.org/dc/dcmitype/StillImage"/>
    <dc:date>2022-02-08T12:03:22.497668</dc:date>
    <dc:format>image/svg+xml</dc:format>
    <dc:creator>
     <cc:Agent>
      <dc:title>Matplotlib v3.3.3, https://matplotlib.org/</dc:title>
     </cc:Agent>
    </dc:creator>
   </cc:Work>
  </rdf:RDF>
 </metadata>
 <defs>
  <style type="text/css">*{stroke-linecap:butt;stroke-linejoin:round;}</style>
 </defs>
 <g id="figure_1">
  <g id="patch_1">
   <path d="M 0 345.6 
L 460.8 345.6 
L 460.8 0 
L 0 0 
z
" style="fill:#ffffff;"/>
  </g>
  <g id="axes_1">
   <g id="patch_2">
    <path d="M 57.6 298.944 
L 360.8064 298.944 
L 360.8064 6.912 
L 57.6 6.912 
z
" style="fill:#ffffff;"/>
   </g>
   <g id="matplotlib.axis_1">
    <g id="xtick_1">
     <g id="line2d_1">
      <path clip-path="url(#pcea3d3999c)" d="M 57.6 298.944 
L 57.6 6.912 
" style="fill:none;stroke:#b0b0b0;stroke-linecap:square;stroke-width:0.8;"/>
     </g>
     <g id="line2d_2">
      <defs>
       <path d="M 0 0 
L 0 3.5 
" id="mb250c9070f" style="stroke:#000000;stroke-width:0.8;"/>
      </defs>
      <g>
       <use style="stroke:#000000;stroke-width:0.8;" x="57.6" xlink:href="#mb250c9070f" y="298.944"/>
      </g>
     </g>
     <g id="text_1">
      <!-- 0 -->
      <g transform="translate(52.191875 318.861344)scale(0.17 -0.17)">
       <defs>
        <path d="M 31.78125 66.40625 
Q 24.171875 66.40625 20.328125 58.90625 
Q 16.5 51.421875 16.5 36.375 
Q 16.5 21.390625 20.328125 13.890625 
Q 24.171875 6.390625 31.78125 6.390625 
Q 39.453125 6.390625 43.28125 13.890625 
Q 47.125 21.390625 47.125 36.375 
Q 47.125 51.421875 43.28125 58.90625 
Q 39.453125 66.40625 31.78125 66.40625 
z
M 31.78125 74.21875 
Q 44.046875 74.21875 50.515625 64.515625 
Q 56.984375 54.828125 56.984375 36.375 
Q 56.984375 17.96875 50.515625 8.265625 
Q 44.046875 -1.421875 31.78125 -1.421875 
Q 19.53125 -1.421875 13.0625 8.265625 
Q 6.59375 17.96875 6.59375 36.375 
Q 6.59375 54.828125 13.0625 64.515625 
Q 19.53125 74.21875 31.78125 74.21875 
z
" id="DejaVuSans-48"/>
       </defs>
       <use xlink:href="#DejaVuSans-48"/>
      </g>
     </g>
    </g>
    <g id="xtick_2">
     <g id="line2d_3">
      <path clip-path="url(#pcea3d3999c)" d="M 144.2304 298.944 
L 144.2304 6.912 
" style="fill:none;stroke:#b0b0b0;stroke-linecap:square;stroke-width:0.8;"/>
     </g>
     <g id="line2d_4">
      <g>
       <use style="stroke:#000000;stroke-width:0.8;" x="144.2304" xlink:href="#mb250c9070f" y="298.944"/>
      </g>
     </g>
     <g id="text_2">
      <!-- 2 -->
      <g transform="translate(138.822275 318.861344)scale(0.17 -0.17)">
       <defs>
        <path d="M 19.1875 8.296875 
L 53.609375 8.296875 
L 53.609375 0 
L 7.328125 0 
L 7.328125 8.296875 
Q 12.9375 14.109375 22.625 23.890625 
Q 32.328125 33.6875 34.8125 36.53125 
Q 39.546875 41.84375 41.421875 45.53125 
Q 43.3125 49.21875 43.3125 52.78125 
Q 43.3125 58.59375 39.234375 62.25 
Q 35.15625 65.921875 28.609375 65.921875 
Q 23.96875 65.921875 18.8125 64.3125 
Q 13.671875 62.703125 7.8125 59.421875 
L 7.8125 69.390625 
Q 13.765625 71.78125 18.9375 73 
Q 24.125 74.21875 28.421875 74.21875 
Q 39.75 74.21875 46.484375 68.546875 
Q 53.21875 62.890625 53.21875 53.421875 
Q 53.21875 48.921875 51.53125 44.890625 
Q 49.859375 40.875 45.40625 35.40625 
Q 44.1875 33.984375 37.640625 27.21875 
Q 31.109375 20.453125 19.1875 8.296875 
z
" id="DejaVuSans-50"/>
       </defs>
       <use xlink:href="#DejaVuSans-50"/>
      </g>
     </g>
    </g>
    <g id="xtick_3">
     <g id="line2d_5">
      <path clip-path="url(#pcea3d3999c)" d="M 230.8608 298.944 
L 230.8608 6.912 
" style="fill:none;stroke:#b0b0b0;stroke-linecap:square;stroke-width:0.8;"/>
     </g>
     <g id="line2d_6">
      <g>
       <use style="stroke:#000000;stroke-width:0.8;" x="230.8608" xlink:href="#mb250c9070f" y="298.944"/>
      </g>
     </g>
     <g id="text_3">
      <!-- 4 -->
      <g transform="translate(225.452675 318.861344)scale(0.17 -0.17)">
       <defs>
        <path d="M 37.796875 64.3125 
L 12.890625 25.390625 
L 37.796875 25.390625 
z
M 35.203125 72.90625 
L 47.609375 72.90625 
L 47.609375 25.390625 
L 58.015625 25.390625 
L 58.015625 17.1875 
L 47.609375 17.1875 
L 47.609375 0 
L 37.796875 0 
L 37.796875 17.1875 
L 4.890625 17.1875 
L 4.890625 26.703125 
z
" id="DejaVuSans-52"/>
       </defs>
       <use xlink:href="#DejaVuSans-52"/>
      </g>
     </g>
    </g>
    <g id="xtick_4">
     <g id="line2d_7">
      <path clip-path="url(#pcea3d3999c)" d="M 317.4912 298.944 
L 317.4912 6.912 
" style="fill:none;stroke:#b0b0b0;stroke-linecap:square;stroke-width:0.8;"/>
     </g>
     <g id="line2d_8">
      <g>
       <use style="stroke:#000000;stroke-width:0.8;" x="317.4912" xlink:href="#mb250c9070f" y="298.944"/>
      </g>
     </g>
     <g id="text_4">
      <!-- 6 -->
      <g transform="translate(312.083075 318.861344)scale(0.17 -0.17)">
       <defs>
        <path d="M 33.015625 40.375 
Q 26.375 40.375 22.484375 35.828125 
Q 18.609375 31.296875 18.609375 23.390625 
Q 18.609375 15.53125 22.484375 10.953125 
Q 26.375 6.390625 33.015625 6.390625 
Q 39.65625 6.390625 43.53125 10.953125 
Q 47.40625 15.53125 47.40625 23.390625 
Q 47.40625 31.296875 43.53125 35.828125 
Q 39.65625 40.375 33.015625 40.375 
z
M 52.59375 71.296875 
L 52.59375 62.3125 
Q 48.875 64.0625 45.09375 64.984375 
Q 41.3125 65.921875 37.59375 65.921875 
Q 27.828125 65.921875 22.671875 59.328125 
Q 17.53125 52.734375 16.796875 39.40625 
Q 19.671875 43.65625 24.015625 45.921875 
Q 28.375 48.1875 33.59375 48.1875 
Q 44.578125 48.1875 50.953125 41.515625 
Q 57.328125 34.859375 57.328125 23.390625 
Q 57.328125 12.15625 50.6875 5.359375 
Q 44.046875 -1.421875 33.015625 -1.421875 
Q 20.359375 -1.421875 13.671875 8.265625 
Q 6.984375 17.96875 6.984375 36.375 
Q 6.984375 53.65625 15.1875 63.9375 
Q 23.390625 74.21875 37.203125 74.21875 
Q 40.921875 74.21875 44.703125 73.484375 
Q 48.484375 72.75 52.59375 71.296875 
z
" id="DejaVuSans-54"/>
       </defs>
       <use xlink:href="#DejaVuSans-54"/>
      </g>
     </g>
    </g>
    <g id="xtick_5">
     <g id="line2d_9">
      <path clip-path="url(#pcea3d3999c)" d="M 100.9152 298.944 
L 100.9152 6.912 
" style="fill:none;stroke:#b0b0b0;stroke-linecap:square;stroke-width:0.8;"/>
     </g>
     <g id="line2d_10">
      <defs>
       <path d="M 0 0 
L 0 2 
" id="ma3ceaba515" style="stroke:#000000;stroke-width:0.6;"/>
      </defs>
      <g>
       <use style="stroke:#000000;stroke-width:0.6;" x="100.9152" xlink:href="#ma3ceaba515" y="298.944"/>
      </g>
     </g>
    </g>
    <g id="xtick_6">
     <g id="line2d_11">
      <path clip-path="url(#pcea3d3999c)" d="M 187.5456 298.944 
L 187.5456 6.912 
" style="fill:none;stroke:#b0b0b0;stroke-linecap:square;stroke-width:0.8;"/>
     </g>
     <g id="line2d_12">
      <g>
       <use style="stroke:#000000;stroke-width:0.6;" x="187.5456" xlink:href="#ma3ceaba515" y="298.944"/>
      </g>
     </g>
    </g>
    <g id="xtick_7">
     <g id="line2d_13">
      <path clip-path="url(#pcea3d3999c)" d="M 274.176 298.944 
L 274.176 6.912 
" style="fill:none;stroke:#b0b0b0;stroke-linecap:square;stroke-width:0.8;"/>
     </g>
     <g id="line2d_14">
      <g>
       <use style="stroke:#000000;stroke-width:0.6;" x="274.176" xlink:href="#ma3ceaba515" y="298.944"/>
      </g>
     </g>
    </g>
    <g id="xtick_8">
     <g id="line2d_15">
      <path clip-path="url(#pcea3d3999c)" d="M 360.8064 298.944 
L 360.8064 6.912 
" style="fill:none;stroke:#b0b0b0;stroke-linecap:square;stroke-width:0.8;"/>
     </g>
     <g id="line2d_16">
      <g>
       <use style="stroke:#000000;stroke-width:0.6;" x="360.8064" xlink:href="#ma3ceaba515" y="298.944"/>
      </g>
     </g>
    </g>
    <g id="text_5">
     <!-- log10(evals / dimension) -->
     <g transform="translate(104.238825 339.314156)scale(0.17 -0.17)">
      <defs>
       <path d="M 9.421875 75.984375 
L 18.40625 75.984375 
L 18.40625 0 
L 9.421875 0 
z
" id="DejaVuSans-108"/>
       <path d="M 30.609375 48.390625 
Q 23.390625 48.390625 19.1875 42.75 
Q 14.984375 37.109375 14.984375 27.296875 
Q 14.984375 17.484375 19.15625 11.84375 
Q 23.34375 6.203125 30.609375 6.203125 
Q 37.796875 6.203125 41.984375 11.859375 
Q 46.1875 17.53125 46.1875 27.296875 
Q 46.1875 37.015625 41.984375 42.703125 
Q 37.796875 48.390625 30.609375 48.390625 
z
M 30.609375 56 
Q 42.328125 56 49.015625 48.375 
Q 55.71875 40.765625 55.71875 27.296875 
Q 55.71875 13.875 49.015625 6.21875 
Q 42.328125 -1.421875 30.609375 -1.421875 
Q 18.84375 -1.421875 12.171875 6.21875 
Q 5.515625 13.875 5.515625 27.296875 
Q 5.515625 40.765625 12.171875 48.375 
Q 18.84375 56 30.609375 56 
z
" id="DejaVuSans-111"/>
       <path d="M 45.40625 27.984375 
Q 45.40625 37.75 41.375 43.109375 
Q 37.359375 48.484375 30.078125 48.484375 
Q 22.859375 48.484375 18.828125 43.109375 
Q 14.796875 37.75 14.796875 27.984375 
Q 14.796875 18.265625 18.828125 12.890625 
Q 22.859375 7.515625 30.078125 7.515625 
Q 37.359375 7.515625 41.375 12.890625 
Q 45.40625 18.265625 45.40625 27.984375 
z
M 54.390625 6.78125 
Q 54.390625 -7.171875 48.1875 -13.984375 
Q 42 -20.796875 29.203125 -20.796875 
Q 24.46875 -20.796875 20.265625 -20.09375 
Q 16.0625 -19.390625 12.109375 -17.921875 
L 12.109375 -9.1875 
Q 16.0625 -11.328125 19.921875 -12.34375 
Q 23.78125 -13.375 27.78125 -13.375 
Q 36.625 -13.375 41.015625 -8.765625 
Q 45.40625 -4.15625 45.40625 5.171875 
L 45.40625 9.625 
Q 42.625 4.78125 38.28125 2.390625 
Q 33.9375 0 27.875 0 
Q 17.828125 0 11.671875 7.65625 
Q 5.515625 15.328125 5.515625 27.984375 
Q 5.515625 40.671875 11.671875 48.328125 
Q 17.828125 56 27.875 56 
Q 33.9375 56 38.28125 53.609375 
Q 42.625 51.21875 45.40625 46.390625 
L 45.40625 54.6875 
L 54.390625 54.6875 
z
" id="DejaVuSans-103"/>
       <path d="M 12.40625 8.296875 
L 28.515625 8.296875 
L 28.515625 63.921875 
L 10.984375 60.40625 
L 10.984375 69.390625 
L 28.421875 72.90625 
L 38.28125 72.90625 
L 38.28125 8.296875 
L 54.390625 8.296875 
L 54.390625 0 
L 12.40625 0 
z
" id="DejaVuSans-49"/>
       <path d="M 31 75.875 
Q 24.46875 64.65625 21.28125 53.65625 
Q 18.109375 42.671875 18.109375 31.390625 
Q 18.109375 20.125 21.3125 9.0625 
Q 24.515625 -2 31 -13.1875 
L 23.1875 -13.1875 
Q 15.875 -1.703125 12.234375 9.375 
Q 8.59375 20.453125 8.59375 31.390625 
Q 8.59375 42.28125 12.203125 53.3125 
Q 15.828125 64.359375 23.1875 75.875 
z
" id="DejaVuSans-40"/>
       <path d="M 56.203125 29.59375 
L 56.203125 25.203125 
L 14.890625 25.203125 
Q 15.484375 15.921875 20.484375 11.0625 
Q 25.484375 6.203125 34.421875 6.203125 
Q 39.59375 6.203125 44.453125 7.46875 
Q 49.3125 8.734375 54.109375 11.28125 
L 54.109375 2.78125 
Q 49.265625 0.734375 44.1875 -0.34375 
Q 39.109375 -1.421875 33.890625 -1.421875 
Q 20.796875 -1.421875 13.15625 6.1875 
Q 5.515625 13.8125 5.515625 26.8125 
Q 5.515625 40.234375 12.765625 48.109375 
Q 20.015625 56 32.328125 56 
Q 43.359375 56 49.78125 48.890625 
Q 56.203125 41.796875 56.203125 29.59375 
z
M 47.21875 32.234375 
Q 47.125 39.59375 43.09375 43.984375 
Q 39.0625 48.390625 32.421875 48.390625 
Q 24.90625 48.390625 20.390625 44.140625 
Q 15.875 39.890625 15.1875 32.171875 
z
" id="DejaVuSans-101"/>
       <path d="M 2.984375 54.6875 
L 12.5 54.6875 
L 29.59375 8.796875 
L 46.6875 54.6875 
L 56.203125 54.6875 
L 35.6875 0 
L 23.484375 0 
z
" id="DejaVuSans-118"/>
       <path d="M 34.28125 27.484375 
Q 23.390625 27.484375 19.1875 25 
Q 14.984375 22.515625 14.984375 16.5 
Q 14.984375 11.71875 18.140625 8.90625 
Q 21.296875 6.109375 26.703125 6.109375 
Q 34.1875 6.109375 38.703125 11.40625 
Q 43.21875 16.703125 43.21875 25.484375 
L 43.21875 27.484375 
z
M 52.203125 31.203125 
L 52.203125 0 
L 43.21875 0 
L 43.21875 8.296875 
Q 40.140625 3.328125 35.546875 0.953125 
Q 30.953125 -1.421875 24.3125 -1.421875 
Q 15.921875 -1.421875 10.953125 3.296875 
Q 6 8.015625 6 15.921875 
Q 6 25.140625 12.171875 29.828125 
Q 18.359375 34.515625 30.609375 34.515625 
L 43.21875 34.515625 
L 43.21875 35.40625 
Q 43.21875 41.609375 39.140625 45 
Q 35.0625 48.390625 27.6875 48.390625 
Q 23 48.390625 18.546875 47.265625 
Q 14.109375 46.140625 10.015625 43.890625 
L 10.015625 52.203125 
Q 14.9375 54.109375 19.578125 55.046875 
Q 24.21875 56 28.609375 56 
Q 40.484375 56 46.34375 49.84375 
Q 52.203125 43.703125 52.203125 31.203125 
z
" id="DejaVuSans-97"/>
       <path d="M 44.28125 53.078125 
L 44.28125 44.578125 
Q 40.484375 46.53125 36.375 47.5 
Q 32.28125 48.484375 27.875 48.484375 
Q 21.1875 48.484375 17.84375 46.4375 
Q 14.5 44.390625 14.5 40.28125 
Q 14.5 37.15625 16.890625 35.375 
Q 19.28125 33.59375 26.515625 31.984375 
L 29.59375 31.296875 
Q 39.15625 29.25 43.1875 25.515625 
Q 47.21875 21.78125 47.21875 15.09375 
Q 47.21875 7.46875 41.1875 3.015625 
Q 35.15625 -1.421875 24.609375 -1.421875 
Q 20.21875 -1.421875 15.453125 -0.5625 
Q 10.6875 0.296875 5.421875 2 
L 5.421875 11.28125 
Q 10.40625 8.6875 15.234375 7.390625 
Q 20.0625 6.109375 24.8125 6.109375 
Q 31.15625 6.109375 34.5625 8.28125 
Q 37.984375 10.453125 37.984375 14.40625 
Q 37.984375 18.0625 35.515625 20.015625 
Q 33.0625 21.96875 24.703125 23.78125 
L 21.578125 24.515625 
Q 13.234375 26.265625 9.515625 29.90625 
Q 5.8125 33.546875 5.8125 39.890625 
Q 5.8125 47.609375 11.28125 51.796875 
Q 16.75 56 26.8125 56 
Q 31.78125 56 36.171875 55.265625 
Q 40.578125 54.546875 44.28125 53.078125 
z
" id="DejaVuSans-115"/>
       <path id="DejaVuSans-32"/>
       <path d="M 25.390625 72.90625 
L 33.6875 72.90625 
L 8.296875 -9.28125 
L 0 -9.28125 
z
" id="DejaVuSans-47"/>
       <path d="M 45.40625 46.390625 
L 45.40625 75.984375 
L 54.390625 75.984375 
L 54.390625 0 
L 45.40625 0 
L 45.40625 8.203125 
Q 42.578125 3.328125 38.25 0.953125 
Q 33.9375 -1.421875 27.875 -1.421875 
Q 17.96875 -1.421875 11.734375 6.484375 
Q 5.515625 14.40625 5.515625 27.296875 
Q 5.515625 40.1875 11.734375 48.09375 
Q 17.96875 56 27.875 56 
Q 33.9375 56 38.25 53.625 
Q 42.578125 51.265625 45.40625 46.390625 
z
M 14.796875 27.296875 
Q 14.796875 17.390625 18.875 11.75 
Q 22.953125 6.109375 30.078125 6.109375 
Q 37.203125 6.109375 41.296875 11.75 
Q 45.40625 17.390625 45.40625 27.296875 
Q 45.40625 37.203125 41.296875 42.84375 
Q 37.203125 48.484375 30.078125 48.484375 
Q 22.953125 48.484375 18.875 42.84375 
Q 14.796875 37.203125 14.796875 27.296875 
z
" id="DejaVuSans-100"/>
       <path d="M 9.421875 54.6875 
L 18.40625 54.6875 
L 18.40625 0 
L 9.421875 0 
z
M 9.421875 75.984375 
L 18.40625 75.984375 
L 18.40625 64.59375 
L 9.421875 64.59375 
z
" id="DejaVuSans-105"/>
       <path d="M 52 44.1875 
Q 55.375 50.25 60.0625 53.125 
Q 64.75 56 71.09375 56 
Q 79.640625 56 84.28125 50.015625 
Q 88.921875 44.046875 88.921875 33.015625 
L 88.921875 0 
L 79.890625 0 
L 79.890625 32.71875 
Q 79.890625 40.578125 77.09375 44.375 
Q 74.3125 48.1875 68.609375 48.1875 
Q 61.625 48.1875 57.5625 43.546875 
Q 53.515625 38.921875 53.515625 30.90625 
L 53.515625 0 
L 44.484375 0 
L 44.484375 32.71875 
Q 44.484375 40.625 41.703125 44.40625 
Q 38.921875 48.1875 33.109375 48.1875 
Q 26.21875 48.1875 22.15625 43.53125 
Q 18.109375 38.875 18.109375 30.90625 
L 18.109375 0 
L 9.078125 0 
L 9.078125 54.6875 
L 18.109375 54.6875 
L 18.109375 46.1875 
Q 21.1875 51.21875 25.484375 53.609375 
Q 29.78125 56 35.6875 56 
Q 41.65625 56 45.828125 52.96875 
Q 50 49.953125 52 44.1875 
z
" id="DejaVuSans-109"/>
       <path d="M 54.890625 33.015625 
L 54.890625 0 
L 45.90625 0 
L 45.90625 32.71875 
Q 45.90625 40.484375 42.875 44.328125 
Q 39.84375 48.1875 33.796875 48.1875 
Q 26.515625 48.1875 22.3125 43.546875 
Q 18.109375 38.921875 18.109375 30.90625 
L 18.109375 0 
L 9.078125 0 
L 9.078125 54.6875 
L 18.109375 54.6875 
L 18.109375 46.1875 
Q 21.34375 51.125 25.703125 53.5625 
Q 30.078125 56 35.796875 56 
Q 45.21875 56 50.046875 50.171875 
Q 54.890625 44.34375 54.890625 33.015625 
z
" id="DejaVuSans-110"/>
       <path d="M 8.015625 75.875 
L 15.828125 75.875 
Q 23.140625 64.359375 26.78125 53.3125 
Q 30.421875 42.28125 30.421875 31.390625 
Q 30.421875 20.453125 26.78125 9.375 
Q 23.140625 -1.703125 15.828125 -13.1875 
L 8.015625 -13.1875 
Q 14.5 -2 17.703125 9.0625 
Q 20.90625 20.125 20.90625 31.390625 
Q 20.90625 42.671875 17.703125 53.65625 
Q 14.5 64.65625 8.015625 75.875 
z
" id="DejaVuSans-41"/>
      </defs>
      <use xlink:href="#DejaVuSans-108"/>
      <use x="27.783203" xlink:href="#DejaVuSans-111"/>
      <use x="88.964844" xlink:href="#DejaVuSans-103"/>
      <use x="152.441406" xlink:href="#DejaVuSans-49"/>
      <use x="216.064453" xlink:href="#DejaVuSans-48"/>
      <use x="279.6875" xlink:href="#DejaVuSans-40"/>
      <use x="318.701172" xlink:href="#DejaVuSans-101"/>
      <use x="380.224609" xlink:href="#DejaVuSans-118"/>
      <use x="439.404297" xlink:href="#DejaVuSans-97"/>
      <use x="500.683594" xlink:href="#DejaVuSans-108"/>
      <use x="528.466797" xlink:href="#DejaVuSans-115"/>
      <use x="580.566406" xlink:href="#DejaVuSans-32"/>
      <use x="612.353516" xlink:href="#DejaVuSans-47"/>
      <use x="646.044922" xlink:href="#DejaVuSans-32"/>
      <use x="677.832031" xlink:href="#DejaVuSans-100"/>
      <use x="741.308594" xlink:href="#DejaVuSans-105"/>
      <use x="769.091797" xlink:href="#DejaVuSans-109"/>
      <use x="866.503906" xlink:href="#DejaVuSans-101"/>
      <use x="928.027344" xlink:href="#DejaVuSans-110"/>
      <use x="991.40625" xlink:href="#DejaVuSans-115"/>
      <use x="1043.505859" xlink:href="#DejaVuSans-105"/>
      <use x="1071.289062" xlink:href="#DejaVuSans-111"/>
      <use x="1132.470703" xlink:href="#DejaVuSans-110"/>
      <use x="1195.849609" xlink:href="#DejaVuSans-41"/>
     </g>
    </g>
   </g>
   <g id="matplotlib.axis_2">
    <g id="ytick_1">
     <g id="line2d_17">
      <path clip-path="url(#pcea3d3999c)" d="M 57.6 298.944 
L 360.8064 298.944 
" style="fill:none;stroke:#b0b0b0;stroke-linecap:square;stroke-width:0.8;"/>
     </g>
     <g id="line2d_18">
      <defs>
       <path d="M 0 0 
L -3.5 0 
" id="m037311537c" style="stroke:#000000;stroke-width:0.8;"/>
      </defs>
      <g>
       <use style="stroke:#000000;stroke-width:0.8;" x="57.6" xlink:href="#m037311537c" y="298.944"/>
      </g>
     </g>
     <g id="text_6">
      <!-- 0.0 -->
      <g transform="translate(25.155 305.02275)scale(0.16 -0.16)">
       <defs>
        <path d="M 10.6875 12.40625 
L 21 12.40625 
L 21 0 
L 10.6875 0 
z
" id="DejaVuSans-46"/>
       </defs>
       <use xlink:href="#DejaVuSans-48"/>
       <use x="63.623047" xlink:href="#DejaVuSans-46"/>
       <use x="95.410156" xlink:href="#DejaVuSans-48"/>
      </g>
     </g>
    </g>
    <g id="ytick_2">
     <g id="line2d_19">
      <path clip-path="url(#pcea3d3999c)" d="M 57.6 240.5376 
L 360.8064 240.5376 
" style="fill:none;stroke:#b0b0b0;stroke-linecap:square;stroke-width:0.8;"/>
     </g>
     <g id="line2d_20">
      <g>
       <use style="stroke:#000000;stroke-width:0.8;" x="57.6" xlink:href="#m037311537c" y="240.5376"/>
      </g>
     </g>
     <g id="text_7">
      <!-- 0.2 -->
      <g transform="translate(25.155 246.61635)scale(0.16 -0.16)">
       <use xlink:href="#DejaVuSans-48"/>
       <use x="63.623047" xlink:href="#DejaVuSans-46"/>
       <use x="95.410156" xlink:href="#DejaVuSans-50"/>
      </g>
     </g>
    </g>
    <g id="ytick_3">
     <g id="line2d_21">
      <path clip-path="url(#pcea3d3999c)" d="M 57.6 182.1312 
L 360.8064 182.1312 
" style="fill:none;stroke:#b0b0b0;stroke-linecap:square;stroke-width:0.8;"/>
     </g>
     <g id="line2d_22">
      <g>
       <use style="stroke:#000000;stroke-width:0.8;" x="57.6" xlink:href="#m037311537c" y="182.1312"/>
      </g>
     </g>
     <g id="text_8">
      <!-- 0.4 -->
      <g transform="translate(25.155 188.20995)scale(0.16 -0.16)">
       <use xlink:href="#DejaVuSans-48"/>
       <use x="63.623047" xlink:href="#DejaVuSans-46"/>
       <use x="95.410156" xlink:href="#DejaVuSans-52"/>
      </g>
     </g>
    </g>
    <g id="ytick_4">
     <g id="line2d_23">
      <path clip-path="url(#pcea3d3999c)" d="M 57.6 123.7248 
L 360.8064 123.7248 
" style="fill:none;stroke:#b0b0b0;stroke-linecap:square;stroke-width:0.8;"/>
     </g>
     <g id="line2d_24">
      <g>
       <use style="stroke:#000000;stroke-width:0.8;" x="57.6" xlink:href="#m037311537c" y="123.7248"/>
      </g>
     </g>
     <g id="text_9">
      <!-- 0.6 -->
      <g transform="translate(25.155 129.80355)scale(0.16 -0.16)">
       <use xlink:href="#DejaVuSans-48"/>
       <use x="63.623047" xlink:href="#DejaVuSans-46"/>
       <use x="95.410156" xlink:href="#DejaVuSans-54"/>
      </g>
     </g>
    </g>
    <g id="ytick_5">
     <g id="line2d_25">
      <path clip-path="url(#pcea3d3999c)" d="M 57.6 65.3184 
L 360.8064 65.3184 
" style="fill:none;stroke:#b0b0b0;stroke-linecap:square;stroke-width:0.8;"/>
     </g>
     <g id="line2d_26">
      <g>
       <use style="stroke:#000000;stroke-width:0.8;" x="57.6" xlink:href="#m037311537c" y="65.3184"/>
      </g>
     </g>
     <g id="text_10">
      <!-- 0.8 -->
      <g transform="translate(25.155 71.39715)scale(0.16 -0.16)">
       <defs>
        <path d="M 31.78125 34.625 
Q 24.75 34.625 20.71875 30.859375 
Q 16.703125 27.09375 16.703125 20.515625 
Q 16.703125 13.921875 20.71875 10.15625 
Q 24.75 6.390625 31.78125 6.390625 
Q 38.8125 6.390625 42.859375 10.171875 
Q 46.921875 13.96875 46.921875 20.515625 
Q 46.921875 27.09375 42.890625 30.859375 
Q 38.875 34.625 31.78125 34.625 
z
M 21.921875 38.8125 
Q 15.578125 40.375 12.03125 44.71875 
Q 8.5 49.078125 8.5 55.328125 
Q 8.5 64.0625 14.71875 69.140625 
Q 20.953125 74.21875 31.78125 74.21875 
Q 42.671875 74.21875 48.875 69.140625 
Q 55.078125 64.0625 55.078125 55.328125 
Q 55.078125 49.078125 51.53125 44.71875 
Q 48 40.375 41.703125 38.8125 
Q 48.828125 37.15625 52.796875 32.3125 
Q 56.78125 27.484375 56.78125 20.515625 
Q 56.78125 9.90625 50.3125 4.234375 
Q 43.84375 -1.421875 31.78125 -1.421875 
Q 19.734375 -1.421875 13.25 4.234375 
Q 6.78125 9.90625 6.78125 20.515625 
Q 6.78125 27.484375 10.78125 32.3125 
Q 14.796875 37.15625 21.921875 38.8125 
z
M 18.3125 54.390625 
Q 18.3125 48.734375 21.84375 45.5625 
Q 25.390625 42.390625 31.78125 42.390625 
Q 38.140625 42.390625 41.71875 45.5625 
Q 45.3125 48.734375 45.3125 54.390625 
Q 45.3125 60.0625 41.71875 63.234375 
Q 38.140625 66.40625 31.78125 66.40625 
Q 25.390625 66.40625 21.84375 63.234375 
Q 18.3125 60.0625 18.3125 54.390625 
z
" id="DejaVuSans-56"/>
       </defs>
       <use xlink:href="#DejaVuSans-48"/>
       <use x="63.623047" xlink:href="#DejaVuSans-46"/>
       <use x="95.410156" xlink:href="#DejaVuSans-56"/>
      </g>
     </g>
    </g>
    <g id="ytick_6">
     <g id="line2d_27">
      <path clip-path="url(#pcea3d3999c)" d="M 57.6 6.912 
L 360.8064 6.912 
" style="fill:none;stroke:#b0b0b0;stroke-linecap:square;stroke-width:0.8;"/>
     </g>
     <g id="line2d_28">
      <g>
       <use style="stroke:#000000;stroke-width:0.8;" x="57.6" xlink:href="#m037311537c" y="6.912"/>
      </g>
     </g>
     <g id="text_11">
      <!-- 1.0 -->
      <g transform="translate(25.155 12.99075)scale(0.16 -0.16)">
       <use xlink:href="#DejaVuSans-49"/>
       <use x="63.623047" xlink:href="#DejaVuSans-46"/>
       <use x="95.410156" xlink:href="#DejaVuSans-48"/>
      </g>
     </g>
    </g>
    <g id="text_12">
     <!-- Fraction of function,target pairs -->
     <g transform="translate(17.619531 287.313)rotate(-90)scale(0.17 -0.17)">
      <defs>
       <path d="M 9.8125 72.90625 
L 51.703125 72.90625 
L 51.703125 64.59375 
L 19.671875 64.59375 
L 19.671875 43.109375 
L 48.578125 43.109375 
L 48.578125 34.8125 
L 19.671875 34.8125 
L 19.671875 0 
L 9.8125 0 
z
" id="DejaVuSans-70"/>
       <path d="M 41.109375 46.296875 
Q 39.59375 47.171875 37.8125 47.578125 
Q 36.03125 48 33.890625 48 
Q 26.265625 48 22.1875 43.046875 
Q 18.109375 38.09375 18.109375 28.8125 
L 18.109375 0 
L 9.078125 0 
L 9.078125 54.6875 
L 18.109375 54.6875 
L 18.109375 46.1875 
Q 20.953125 51.171875 25.484375 53.578125 
Q 30.03125 56 36.53125 56 
Q 37.453125 56 38.578125 55.875 
Q 39.703125 55.765625 41.0625 55.515625 
z
" id="DejaVuSans-114"/>
       <path d="M 48.78125 52.59375 
L 48.78125 44.1875 
Q 44.96875 46.296875 41.140625 47.34375 
Q 37.3125 48.390625 33.40625 48.390625 
Q 24.65625 48.390625 19.8125 42.84375 
Q 14.984375 37.3125 14.984375 27.296875 
Q 14.984375 17.28125 19.8125 11.734375 
Q 24.65625 6.203125 33.40625 6.203125 
Q 37.3125 6.203125 41.140625 7.25 
Q 44.96875 8.296875 48.78125 10.40625 
L 48.78125 2.09375 
Q 45.015625 0.34375 40.984375 -0.53125 
Q 36.96875 -1.421875 32.421875 -1.421875 
Q 20.0625 -1.421875 12.78125 6.34375 
Q 5.515625 14.109375 5.515625 27.296875 
Q 5.515625 40.671875 12.859375 48.328125 
Q 20.21875 56 33.015625 56 
Q 37.15625 56 41.109375 55.140625 
Q 45.0625 54.296875 48.78125 52.59375 
z
" id="DejaVuSans-99"/>
       <path d="M 18.3125 70.21875 
L 18.3125 54.6875 
L 36.8125 54.6875 
L 36.8125 47.703125 
L 18.3125 47.703125 
L 18.3125 18.015625 
Q 18.3125 11.328125 20.140625 9.421875 
Q 21.96875 7.515625 27.59375 7.515625 
L 36.8125 7.515625 
L 36.8125 0 
L 27.59375 0 
Q 17.1875 0 13.234375 3.875 
Q 9.28125 7.765625 9.28125 18.015625 
L 9.28125 47.703125 
L 2.6875 47.703125 
L 2.6875 54.6875 
L 9.28125 54.6875 
L 9.28125 70.21875 
z
" id="DejaVuSans-116"/>
       <path d="M 37.109375 75.984375 
L 37.109375 68.5 
L 28.515625 68.5 
Q 23.6875 68.5 21.796875 66.546875 
Q 19.921875 64.59375 19.921875 59.515625 
L 19.921875 54.6875 
L 34.71875 54.6875 
L 34.71875 47.703125 
L 19.921875 47.703125 
L 19.921875 0 
L 10.890625 0 
L 10.890625 47.703125 
L 2.296875 47.703125 
L 2.296875 54.6875 
L 10.890625 54.6875 
L 10.890625 58.5 
Q 10.890625 67.625 15.140625 71.796875 
Q 19.390625 75.984375 28.609375 75.984375 
z
" id="DejaVuSans-102"/>
       <path d="M 8.5 21.578125 
L 8.5 54.6875 
L 17.484375 54.6875 
L 17.484375 21.921875 
Q 17.484375 14.15625 20.5 10.265625 
Q 23.53125 6.390625 29.59375 6.390625 
Q 36.859375 6.390625 41.078125 11.03125 
Q 45.3125 15.671875 45.3125 23.6875 
L 45.3125 54.6875 
L 54.296875 54.6875 
L 54.296875 0 
L 45.3125 0 
L 45.3125 8.40625 
Q 42.046875 3.421875 37.71875 1 
Q 33.40625 -1.421875 27.6875 -1.421875 
Q 18.265625 -1.421875 13.375 4.4375 
Q 8.5 10.296875 8.5 21.578125 
z
M 31.109375 56 
z
" id="DejaVuSans-117"/>
       <path d="M 11.71875 12.40625 
L 22.015625 12.40625 
L 22.015625 4 
L 14.015625 -11.625 
L 7.71875 -11.625 
L 11.71875 4 
z
" id="DejaVuSans-44"/>
       <path d="M 18.109375 8.203125 
L 18.109375 -20.796875 
L 9.078125 -20.796875 
L 9.078125 54.6875 
L 18.109375 54.6875 
L 18.109375 46.390625 
Q 20.953125 51.265625 25.265625 53.625 
Q 29.59375 56 35.59375 56 
Q 45.5625 56 51.78125 48.09375 
Q 58.015625 40.1875 58.015625 27.296875 
Q 58.015625 14.40625 51.78125 6.484375 
Q 45.5625 -1.421875 35.59375 -1.421875 
Q 29.59375 -1.421875 25.265625 0.953125 
Q 20.953125 3.328125 18.109375 8.203125 
z
M 48.6875 27.296875 
Q 48.6875 37.203125 44.609375 42.84375 
Q 40.53125 48.484375 33.40625 48.484375 
Q 26.265625 48.484375 22.1875 42.84375 
Q 18.109375 37.203125 18.109375 27.296875 
Q 18.109375 17.390625 22.1875 11.75 
Q 26.265625 6.109375 33.40625 6.109375 
Q 40.53125 6.109375 44.609375 11.75 
Q 48.6875 17.390625 48.6875 27.296875 
z
" id="DejaVuSans-112"/>
      </defs>
      <use xlink:href="#DejaVuSans-70"/>
      <use x="50.269531" xlink:href="#DejaVuSans-114"/>
      <use x="91.382812" xlink:href="#DejaVuSans-97"/>
      <use x="152.662109" xlink:href="#DejaVuSans-99"/>
      <use x="207.642578" xlink:href="#DejaVuSans-116"/>
      <use x="246.851562" xlink:href="#DejaVuSans-105"/>
      <use x="274.634766" xlink:href="#DejaVuSans-111"/>
      <use x="335.816406" xlink:href="#DejaVuSans-110"/>
      <use x="399.195312" xlink:href="#DejaVuSans-32"/>
      <use x="430.982422" xlink:href="#DejaVuSans-111"/>
      <use x="492.164062" xlink:href="#DejaVuSans-102"/>
      <use x="527.369141" xlink:href="#DejaVuSans-32"/>
      <use x="559.15625" xlink:href="#DejaVuSans-102"/>
      <use x="594.361328" xlink:href="#DejaVuSans-117"/>
      <use x="657.740234" xlink:href="#DejaVuSans-110"/>
      <use x="721.119141" xlink:href="#DejaVuSans-99"/>
      <use x="776.099609" xlink:href="#DejaVuSans-116"/>
      <use x="815.308594" xlink:href="#DejaVuSans-105"/>
      <use x="843.091797" xlink:href="#DejaVuSans-111"/>
      <use x="904.273438" xlink:href="#DejaVuSans-110"/>
      <use x="967.652344" xlink:href="#DejaVuSans-44"/>
      <use x="999.439453" xlink:href="#DejaVuSans-116"/>
      <use x="1038.648438" xlink:href="#DejaVuSans-97"/>
      <use x="1099.927734" xlink:href="#DejaVuSans-114"/>
      <use x="1139.291016" xlink:href="#DejaVuSans-103"/>
      <use x="1202.767578" xlink:href="#DejaVuSans-101"/>
      <use x="1264.291016" xlink:href="#DejaVuSans-116"/>
      <use x="1303.5" xlink:href="#DejaVuSans-32"/>
      <use x="1335.287109" xlink:href="#DejaVuSans-112"/>
      <use x="1398.763672" xlink:href="#DejaVuSans-97"/>
      <use x="1460.042969" xlink:href="#DejaVuSans-105"/>
      <use x="1487.826172" xlink:href="#DejaVuSans-114"/>
      <use x="1528.939453" xlink:href="#DejaVuSans-115"/>
     </g>
    </g>
   </g>
   <g id="line2d_29">
    <defs>
     <path d="M 0 1.5 
C 0.397805 1.5 0.77937 1.341951 1.06066 1.06066 
C 1.341951 0.77937 1.5 0.397805 1.5 0 
C 1.5 -0.397805 1.341951 -0.77937 1.06066 -1.06066 
C 0.77937 -1.341951 0.397805 -1.5 0 -1.5 
C -0.397805 -1.5 -0.77937 -1.341951 -1.06066 -1.06066 
C -1.341951 -0.77937 -1.5 -0.397805 -1.5 0 
C -1.5 0.397805 -1.341951 0.77937 -1.06066 1.06066 
C -0.77937 1.341951 -0.397805 1.5 0 1.5 
z
" id="m45e1c4fce9" style="stroke:#ff00ff;"/>
    </defs>
    <g>
     <use style="fill:#ff00ff;stroke:#ff00ff;" x="197.545791" xlink:href="#m45e1c4fce9" y="90.010537"/>
     <use style="fill:#ff00ff;stroke:#ff00ff;" x="197.545791" xlink:href="#m45e1c4fce9" y="90.010537"/>
    </g>
   </g>
   <g id="line2d_30">
    <path d="M 71.999638 298.944 
L 71.999638 292.137834 
L 72.432107 292.137834 
L 72.432107 271.87762 
L 72.854856 271.87762 
L 72.854856 257.790439 
L 73.268314 257.790439 
L 73.268314 220.277385 
L 73.672879 220.277385 
L 73.672879 212.679805 
L 74.068926 212.679805 
L 74.068926 200.49202 
L 74.456807 200.49202 
L 74.456807 200.175454 
L 74.836851 200.175454 
L 74.836851 200.017171 
L 75.209369 200.017171 
L 75.209369 199.700605 
L 75.93298 199.700605 
L 75.93298 199.542322 
L 76.629783 199.542322 
L 76.629783 199.384039 
L 77.628862 199.384039 
L 77.628862 199.225756 
L 78.266603 199.225756 
L 78.266603 199.067473 
L 79.480672 199.067473 
L 79.480672 198.750907 
L 80.059535 198.750907 
L 80.059535 198.592624 
L 80.342421 198.592624 
L 80.342421 198.434341 
L 81.433251 198.434341 
L 81.433251 198.276059 
L 81.696354 198.276059 
L 81.696354 198.117776 
L 81.955828 198.117776 
L 81.955828 197.959493 
L 82.464279 197.959493 
L 82.464279 197.484644 
L 82.713442 197.484644 
L 82.713442 197.326361 
L 82.959349 197.326361 
L 82.959349 197.009795 
L 83.441723 197.009795 
L 83.441723 196.851512 
L 83.678349 196.851512 
L 83.678349 196.534946 
L 83.912036 196.534946 
L 83.912036 196.21838 
L 84.142855 196.21838 
L 84.142855 196.060098 
L 84.596168 196.060098 
L 84.596168 195.743532 
L 84.818792 195.743532 
L 84.818792 194.952117 
L 85.25629 194.952117 
L 85.25629 194.635551 
L 85.471281 194.635551 
L 85.471281 194.477268 
L 86.307488 194.477268 
L 86.307488 194.318985 
L 87.686963 194.318985 
L 87.686963 194.160702 
L 88.063207 194.160702 
L 88.063207 193.844137 
L 88.432072 193.844137 
L 88.432072 193.685854 
L 89.14879 193.685854 
L 89.14879 193.527571 
L 89.668958 193.527571 
L 89.668958 193.369288 
L 90.340871 193.369288 
L 90.340871 193.052722 
L 90.668036 193.052722 
L 90.668036 192.894439 
L 90.82951 192.894439 
L 90.82951 192.736156 
L 91.46189 192.736156 
L 91.46189 192.577873 
L 91.616719 192.577873 
L 91.616719 192.41959 
L 91.770283 192.41959 
L 91.770283 192.103024 
L 92.666241 192.103024 
L 92.666241 191.944741 
L 93.240684 191.944741 
L 93.240684 191.786459 
L 94.07074 191.786459 
L 94.07074 191.628176 
L 94.205591 191.628176 
L 94.205591 191.469893 
L 94.472426 191.469893 
L 94.472426 191.31161 
L 94.735529 191.31161 
L 94.735529 190.836761 
L 95.123409 190.836761 
L 95.123409 190.678478 
L 95.250946 190.678478 
L 95.250946 190.520195 
L 95.377623 190.520195 
L 95.377623 190.203629 
L 95.752617 190.203629 
L 95.752617 189.887063 
L 95.875972 189.887063 
L 95.875972 189.253932 
L 95.998523 189.253932 
L 95.998523 188.937366 
L 96.599582 188.937366 
L 96.599582 188.779083 
L 96.717523 188.779083 
L 96.717523 188.6208 
L 96.95121 188.6208 
L 96.95121 188.304234 
L 97.066974 188.304234 
L 97.066974 188.145951 
L 97.296386 188.145951 
L 97.296386 187.829385 
L 97.410051 187.829385 
L 97.410051 187.671102 
L 97.635342 187.671102 
L 97.635342 187.037971 
L 97.746984 187.037971 
L 97.857967 186.721405 
L 97.968299 186.721405 
L 98.077987 186.088273 
L 98.18704 186.088273 
L 98.295464 185.613424 
L 98.510456 185.613424 
L 98.510456 185.296859 
L 99.14107 185.296859 
L 99.14107 185.138576 
L 99.346662 185.138576 
L 99.346662 184.980293 
L 99.550033 184.980293 
L 99.550033 184.663727 
L 99.751228 184.663727 
L 99.851024 184.347161 
L 100.147275 184.347161 
L 100.147275 184.188878 
L 100.438933 184.188878 
L 100.438933 184.030595 
L 100.820906 184.030595 
L 100.820906 183.555746 
L 101.102381 183.555746 
L 101.102381 183.397463 
L 101.287718 183.397463 
L 101.287718 183.080898 
L 101.562344 183.080898 
L 101.562344 182.922615 
L 101.743226 182.922615 
L 101.833019 182.447766 
L 101.922385 182.447766 
L 102.011329 181.656351 
L 102.362957 181.656351 
L 102.449846 181.339785 
L 102.62243 181.339785 
L 102.708132 180.864937 
L 102.793446 180.864937 
L 102.878374 180.231805 
L 102.96292 180.231805 
L 103.047088 179.598673 
L 103.130882 179.598673 
L 103.130882 179.282107 
L 103.297357 179.282107 
L 103.380045 178.648976 
L 103.544339 178.648976 
L 103.625951 177.699278 
L 103.788121 177.699278 
L 103.788121 177.540995 
L 103.948904 177.540995 
L 103.948904 177.224429 
L 104.187532 177.224429 
L 104.187532 176.591298 
L 104.344952 176.591298 
L 104.42317 176.274732 
L 104.501065 176.274732 
L 104.578638 175.6416 
L 104.655893 175.6416 
L 104.732832 175.325034 
L 104.809458 175.325034 
L 104.809458 175.166751 
L 104.961779 175.166751 
L 104.961779 175.008468 
L 105.112877 175.008468 
L 105.112877 174.850185 
L 105.411479 174.850185 
L 105.411479 174.691902 
L 105.559021 174.691902 
L 105.632361 173.900488 
L 105.705415 173.900488 
L 105.778187 173.267356 
L 105.850679 173.267356 
L 105.922892 172.95079 
L 106.066493 172.95079 
L 106.066493 172.792507 
L 106.209005 172.792507 
L 106.279859 172.475941 
L 106.42077 172.475941 
L 106.42077 172.001093 
L 106.699465 172.001093 
L 106.699465 171.84281 
L 106.905809 171.84281 
L 106.974091 171.526244 
L 107.378656 171.526244 
L 107.445245 171.051395 
L 107.577722 171.051395 
L 107.577722 170.893112 
L 107.709271 170.893112 
L 107.774703 170.576546 
L 107.839908 170.576546 
L 107.904887 170.101698 
L 108.09849 170.101698 
L 108.162584 169.626849 
L 108.353566 169.626849 
L 108.353566 169.468566 
L 108.479818 169.468566 
L 108.479818 169.152 
L 108.605229 169.152 
L 108.667622 168.677151 
L 108.85357 168.677151 
L 108.915146 168.360585 
L 108.976522 168.360585 
L 108.976522 168.202302 
L 109.22004 168.202302 
L 109.280431 167.885737 
L 109.400633 167.885737 
L 109.460447 167.569171 
L 109.520071 167.569171 
L 109.579508 167.252605 
L 109.638757 167.252605 
L 109.638757 167.094322 
L 109.756698 167.094322 
L 109.756698 166.936039 
L 109.873904 166.936039 
L 109.932235 166.619473 
L 109.990385 166.619473 
L 110.048356 165.986341 
L 110.106149 165.986341 
L 110.106149 165.828059 
L 110.221204 165.828059 
L 110.221204 165.669776 
L 110.335561 165.669776 
L 110.335561 165.511493 
L 110.449226 165.511493 
L 110.505802 165.194927 
L 110.786158 165.194927 
L 110.897141 164.878361 
L 110.952388 164.878361 
L 111.007473 164.403512 
L 111.171767 164.403512 
L 111.171767 164.086946 
L 111.388617 164.086946 
L 111.442442 163.612098 
L 111.54963 163.612098 
L 111.54963 163.295532 
L 111.762192 163.295532 
L 111.86758 162.820683 
L 111.97238 162.820683 
L 111.97238 162.6624 
L 112.128493 162.6624 
L 112.128493 162.504117 
L 112.487797 162.504117 
L 112.487797 162.345834 
L 112.740305 162.345834 
L 112.740305 162.187551 
L 112.890198 162.187551 
L 112.989468 161.712702 
L 113.186449 161.712702 
L 113.284172 161.237854 
L 113.429811 161.237854 
L 113.478107 160.604722 
L 113.57433 160.604722 
L 113.622258 160.129873 
L 113.765312 160.129873 
L 113.765312 159.97159 
L 113.907287 159.97159 
L 113.954374 159.655024 
L 114.048198 159.655024 
L 114.141556 159.180176 
L 114.188061 159.180176 
L 114.280729 158.705327 
L 114.372943 158.705327 
L 114.418881 158.230478 
L 114.510421 158.230478 
L 114.556025 157.913912 
L 114.646902 157.913912 
L 114.737343 157.597346 
L 114.961559 157.597346 
L 115.050503 156.964215 
L 115.094818 156.964215 
L 115.183135 156.489366 
L 115.27104 156.489366 
L 115.27104 156.331083 
L 115.618607 156.331083 
L 115.704505 156.014517 
L 115.747307 156.014517 
L 115.747307 155.856234 
L 116.211813 155.856234 
L 116.29505 155.539668 
L 116.336531 155.539668 
L 116.336531 155.381385 
L 116.460428 155.381385 
L 116.542574 154.906537 
L 116.827295 154.906537 
L 116.86762 154.589971 
L 117.067958 154.589971 
L 117.1475 154.273405 
L 117.266185 154.273405 
L 117.305581 153.798556 
L 117.384126 153.798556 
L 117.462345 153.323707 
L 117.540239 153.323707 
L 117.579066 153.007141 
L 117.65648 153.007141 
L 117.695068 152.690576 
L 117.962989 152.690576 
L 118.038842 151.740878 
L 118.076654 151.740878 
L 118.152051 150.949463 
L 118.227147 150.949463 
L 118.301945 150.316332 
L 118.413586 150.316332 
L 118.524569 149.6832 
L 118.598196 149.6832 
L 118.671535 149.366634 
L 118.74459 149.366634 
L 118.853643 148.416937 
L 119.034004 148.416937 
L 119.034004 148.258654 
L 119.319033 148.258654 
L 119.35436 147.942088 
L 119.495008 147.942088 
L 119.564939 147.625522 
L 119.807672 147.625522 
L 119.91075 147.150673 
L 119.944983 147.150673 
L 119.979155 146.517541 
L 120.216635 146.517541 
L 120.317502 146.042693 
L 120.351004 146.042693 
L 120.41783 145.567844 
L 120.550775 145.567844 
L 120.64987 144.934712 
L 120.715645 144.934712 
L 120.78119 144.618146 
L 120.846508 144.618146 
L 120.846508 144.459863 
L 120.976468 144.459863 
L 121.008818 143.826732 
L 121.233724 143.826732 
L 121.329295 143.351883 
L 121.424383 143.351883 
L 121.518993 142.877034 
L 121.613129 142.877034 
L 121.706797 142.243902 
L 121.768984 142.243902 
L 121.8 141.927337 
L 121.985033 141.927337 
L 122.046309 141.610771 
L 122.107385 141.610771 
L 122.107385 141.294205 
L 122.228947 141.294205 
L 122.228947 140.819356 
L 122.349728 140.819356 
L 122.349728 140.661073 
L 122.469738 140.661073 
L 122.559246 140.027941 
L 122.588988 140.027941 
L 122.64833 139.553093 
L 122.736994 139.553093 
L 122.795872 139.078244 
L 122.883845 139.078244 
L 122.942266 138.761678 
L 123.000507 138.761678 
L 123.029559 138.286829 
L 123.116449 138.286829 
L 123.145323 137.653698 
L 123.346211 137.653698 
L 123.346211 137.495415 
L 123.460048 137.495415 
L 123.544976 137.020566 
L 123.573201 137.020566 
L 123.657621 136.387434 
L 123.769595 136.387434 
L 123.769595 136.070868 
L 123.880906 136.070868 
L 123.991562 135.59602 
L 124.101572 135.59602 
L 124.156336 134.962888 
L 124.319679 134.962888 
L 124.427792 134.329756 
L 124.454723 134.329756 
L 124.562065 133.696624 
L 124.615507 133.696624 
L 124.721937 132.746927 
L 124.748451 132.746927 
L 124.827769 132.272078 
L 124.880463 132.272078 
L 124.985409 131.638946 
L 125.011554 131.638946 
L 125.115773 130.689249 
L 125.141738 130.689249 
L 125.141738 130.530966 
L 125.348177 130.530966 
L 125.450553 130.056117 
L 125.552375 130.056117 
L 125.653649 129.581268 
L 125.678882 129.581268 
L 125.704082 129.264702 
L 125.879541 129.264702 
L 125.904473 128.631571 
L 126.003874 128.631571 
L 126.102752 128.156722 
L 126.151997 128.156722 
L 126.201114 127.840156 
L 126.298963 127.840156 
L 126.298963 127.681873 
L 126.468985 127.681873 
L 126.565455 126.573893 
L 126.589495 126.573893 
L 126.637484 126.257327 
L 126.733095 126.257327 
L 126.78072 125.465912 
L 126.851931 125.465912 
L 126.946461 124.991063 
L 126.97002 124.991063 
L 127.06396 124.199649 
L 127.110755 124.199649 
L 127.110755 124.041366 
L 127.29678 124.041366 
L 127.29678 123.883083 
L 127.4351 123.883083 
L 127.4351 123.7248 
L 127.572412 123.7248 
L 127.640693 123.091668 
L 127.776517 123.091668 
L 127.866525 122.458537 
L 127.88896 122.458537 
L 127.978432 122.141971 
L 128.000734 122.141971 
L 128.089678 121.350556 
L 128.178203 121.350556 
L 128.288276 120.875707 
L 128.332126 120.875707 
L 128.41952 120.242576 
L 128.50651 120.242576 
L 128.614685 119.609444 
L 128.657782 119.609444 
L 128.743679 119.292878 
L 128.786481 119.292878 
L 128.893063 118.184898 
L 128.999044 118.184898 
L 129.104431 117.710049 
L 129.125437 117.710049 
L 129.188317 117.076917 
L 129.250988 117.076917 
L 129.334225 116.602068 
L 129.375706 116.602068 
L 129.437756 116.12722 
L 129.499602 116.12722 
L 129.54072 115.335805 
L 129.68393 115.335805 
L 129.765278 114.702673 
L 129.80582 114.702673 
L 129.846275 114.386107 
L 129.96712 114.386107 
L 129.96712 114.227824 
L 130.087194 114.227824 
L 130.16682 113.752976 
L 130.226319 113.752976 
L 130.265881 113.119844 
L 130.403695 113.119844 
L 130.442886 112.803278 
L 130.521023 112.803278 
L 130.598837 112.170146 
L 130.656987 112.170146 
L 130.753507 111.378732 
L 130.791976 111.378732 
L 130.86868 110.903883 
L 130.906915 110.903883 
L 130.983152 109.954185 
L 131.021155 109.954185 
L 131.059082 109.479337 
L 131.134706 109.479337 
L 131.210028 108.846205 
L 133.01833 108.846205 
L 133.01833 108.687922 
L 133.820365 108.687922 
L 133.869374 108.371356 
L 134.463557 108.371356 
L 134.463557 108.05479 
L 134.962732 108.05479 
L 135.008858 107.738224 
L 135.966853 107.738224 
L 135.996018 107.421659 
L 136.385386 107.421659 
L 136.385386 107.105093 
L 137.426497 107.105093 
L 137.426497 106.94681 
L 142.196078 106.94681 
L 142.196078 106.788527 
L 142.651636 106.788527 
L 142.651636 106.630244 
L 143.25559 106.630244 
L 143.25559 106.471961 
L 143.413423 106.471961 
L 143.433059 105.838829 
L 143.560197 105.838829 
L 143.560197 105.680546 
L 143.734829 105.680546 
L 143.763777 105.36398 
L 143.946089 105.36398 
L 144.022326 104.414283 
L 144.069818 104.414283 
L 144.173881 102.989737 
L 144.239803 102.989737 
L 144.249202 102.673171 
L 146.218978 102.673171 
L 146.218978 102.356605 
L 151.109488 102.356605 
L 151.13557 101.881756 
L 151.336488 101.881756 
L 151.381561 101.406907 
L 151.554409 101.406907 
L 151.56715 101.090341 
L 151.725684 101.090341 
L 151.813883 100.615493 
L 151.870365 100.615493 
L 151.870365 100.298927 
L 153.02481 100.298927 
L 153.02481 100.140644 
L 153.736074 100.140644 
L 153.736074 99.982361 
L 154.671449 99.982361 
L 154.671449 99.824078 
L 156.735336 99.824078 
L 156.735336 99.507512 
L 157.175281 99.507512 
L 157.250754 99.032663 
L 158.721685 99.032663 
L 158.721685 98.716098 
L 161.044929 98.716098 
L 161.044929 98.557815 
L 161.156184 98.557815 
L 161.163832 98.241249 
L 161.300977 98.241249 
L 161.395631 97.7664 
L 161.455961 97.7664 
L 161.482294 97.291551 
L 162.298877 97.291551 
L 162.298877 96.974985 
L 164.840483 96.974985 
L 164.912672 96.341854 
L 167.678199 96.341854 
L 167.788752 95.867005 
L 167.812933 95.867005 
L 167.812933 95.550439 
L 170.271088 95.550439 
L 170.308749 95.07559 
L 170.839667 95.07559 
L 170.839667 94.759024 
L 172.299442 94.759024 
L 172.299442 94.600741 
L 172.541145 94.600741 
L 172.541145 94.442459 
L 173.193776 94.442459 
L 173.193776 94.284176 
L 174.506426 94.284176 
L 174.510187 93.96761 
L 176.691985 93.96761 
L 176.691985 93.651044 
L 178.297934 93.651044 
L 178.297934 93.334478 
L 180.85345 93.334478 
L 180.85345 93.176195 
L 182.088652 93.176195 
L 182.151403 92.543063 
L 182.427518 92.543063 
L 182.427518 92.38478 
L 183.338515 92.38478 
L 183.354976 92.068215 
L 184.450706 92.068215 
L 184.498323 91.751649 
L 185.557334 91.751649 
L 185.557334 91.593366 
L 186.48441 91.593366 
L 186.548984 91.2768 
L 186.598507 91.2768 
L 186.598507 91.118517 
L 187.518303 91.118517 
L 187.518303 90.960234 
L 188.67896 90.960234 
L 188.67896 90.801951 
L 189.336822 90.801951 
L 189.35648 90.327102 
L 189.545175 90.327102 
L 189.545175 90.16882 
L 197.545791 90.16882 
L 197.545791 90.010537 
L 360.8064 90.010537 
L 360.8064 90.010537 
" style="fill:none;stroke:#ff00ff;stroke-linecap:square;stroke-width:1.5;"/>
   </g>
   <g id="line2d_31">
    <defs>
     <path d="M -0 8.485281 
L 5.091169 0 
L 0 -8.485281 
L -5.091169 -0 
z
" id="m67207c16e0" style="stroke:#ff00ff;stroke-linejoin:miter;stroke-width:1.5;"/>
    </defs>
    <g>
     <use style="fill-opacity:0;stroke:#ff00ff;stroke-linejoin:miter;stroke-width:1.5;" x="112.740305" xlink:href="#m67207c16e0" y="162.187551"/>
     <use style="fill-opacity:0;stroke:#ff00ff;stroke-linejoin:miter;stroke-width:1.5;" x="178.297934" xlink:href="#m67207c16e0" y="93.651044"/>
     <use style="fill-opacity:0;stroke:#ff00ff;stroke-linejoin:miter;stroke-width:1.5;" x="197.545791" xlink:href="#m67207c16e0" y="90.010537"/>
     <use style="fill-opacity:0;stroke:#ff00ff;stroke-linejoin:miter;stroke-width:1.5;" x="197.545791" xlink:href="#m67207c16e0" y="90.010537"/>
     <use style="fill-opacity:0;stroke:#ff00ff;stroke-linejoin:miter;stroke-width:1.5;" x="360.8064" xlink:href="#m67207c16e0" y="90.010537"/>
    </g>
   </g>
   <g id="line2d_32">
    <path style="fill:none;stroke:#ff00ff;stroke-linecap:square;stroke-width:1.5;"/>
    <g/>
   </g>
   <g id="line2d_33">
    <path clip-path="url(#pcea3d3999c)" d="M 131.210028 108.846205 
" style="fill:none;stroke:#ff00ff;stroke-linecap:square;stroke-width:1.5;"/>
    <defs>
     <path d="M -12 12 
L 12 -12 
M -12 -12 
L 12 12 
" id="mc4453a1aad" style="stroke:#ff00ff;"/>
    </defs>
    <g clip-path="url(#pcea3d3999c)">
     <use style="fill:#ff00ff;stroke:#ff00ff;" x="131.210028" xlink:href="#mc4453a1aad" y="108.846205"/>
    </g>
   </g>
   <g id="line2d_34">
    <defs>
     <path d="M 0 1.5 
C 0.397805 1.5 0.77937 1.341951 1.06066 1.06066 
C 1.341951 0.77937 1.5 0.397805 1.5 0 
C 1.5 -0.397805 1.341951 -0.77937 1.06066 -1.06066 
C 0.77937 -1.341951 0.397805 -1.5 0 -1.5 
C -0.397805 -1.5 -0.77937 -1.341951 -1.06066 -1.06066 
C -1.341951 -0.77937 -1.5 -0.397805 -1.5 0 
C -1.5 0.397805 -1.341951 0.77937 -1.06066 1.06066 
C -0.77937 1.341951 -0.397805 1.5 0 1.5 
z
" id="mab15e70891" style="stroke:#ff7500;"/>
    </defs>
    <g>
     <use style="fill:#ff7500;stroke:#ff7500;" x="298.90368" xlink:href="#mab15e70891" y="75.765073"/>
     <use style="fill:#ff7500;stroke:#ff7500;" x="298.90368" xlink:href="#mab15e70891" y="75.765073"/>
    </g>
   </g>
   <g id="line2d_35">
    <path d="M 91.922605 298.944 
L 91.922605 291.662985 
L 97.296386 291.662985 
L 97.296386 280.108332 
L 97.523034 280.108332 
L 97.523034 279.4752 
L 101.471247 279.4752 
L 101.562344 260.481249 
L 101.833019 260.481249 
L 101.833019 260.0064 
L 102.96292 260.0064 
L 102.96292 259.848117 
L 103.544339 259.848117 
L 103.544339 259.689834 
L 103.788121 259.689834 
L 103.788121 259.531551 
L 104.885773 259.531551 
L 104.885773 238.163356 
L 105.112877 238.163356 
L 105.112877 237.84679 
L 105.337272 237.84679 
L 105.337272 237.688507 
L 106.560633 237.688507 
L 106.560633 237.530224 
L 107.41198 237.530224 
L 107.41198 237.371941 
L 107.774703 237.371941 
L 107.839908 218.061424 
L 107.969643 218.061424 
L 108.034177 217.428293 
L 108.09849 217.428293 
L 108.162584 216.795161 
L 108.29012 216.795161 
L 108.29012 216.636878 
L 109.756698 216.636878 
L 109.756698 216.478595 
L 110.278469 216.478595 
L 110.278469 205.082224 
L 110.562208 205.082224 
L 110.562208 204.765659 
L 111.920053 204.765659 
L 111.946234 204.449093 
L 112.283321 204.449093 
L 112.309003 204.132527 
L 112.487797 204.132527 
L 112.487797 200.650302 
L 112.639708 200.650302 
L 112.690074 200.175454 
L 112.790402 200.175454 
L 112.840366 198.434341 
L 113.038907 198.434341 
L 113.038907 198.276059 
L 114.510421 198.276059 
L 114.510421 197.80121 
L 114.646902 197.80121 
L 114.737343 197.168078 
L 114.7824 197.168078 
L 114.872193 196.693229 
L 114.916929 196.693229 
L 114.916929 196.534946 
L 115.050503 196.534946 
L 115.050503 196.376663 
L 115.83262 196.376663 
L 115.83262 196.21838 
L 116.211813 196.21838 
L 116.29505 194.318985 
L 116.460428 194.318985 
L 116.542574 193.369288 
L 116.624364 193.369288 
L 116.705799 192.261307 
L 116.786884 192.261307 
L 116.827295 190.995044 
L 117.028061 190.995044 
L 117.028061 190.361912 
L 117.810359 190.361912 
L 117.886828 189.887063 
L 117.924947 189.887063 
L 117.924947 189.72878 
L 118.076654 189.72878 
L 118.152051 189.253932 
L 118.208401 189.253932 
L 118.264583 188.145951 
L 118.339232 188.145951 
L 118.376446 187.51282 
L 118.487648 187.51282 
L 118.487648 187.354537 
L 118.671535 187.354537 
L 118.671535 187.037971 
L 119.424815 187.037971 
L 119.424815 186.879688 
L 119.599808 186.879688 
L 119.704027 185.771707 
L 119.738639 185.771707 
L 119.842094 184.663727 
L 119.944983 184.663727 
L 119.944983 184.188878 
L 120.976468 184.188878 
L 121.073351 183.080898 
L 121.105535 183.080898 
L 121.201758 181.972917 
L 121.233724 181.972917 
L 121.329295 181.339785 
L 122.349728 181.339785 
L 122.409829 180.231805 
L 122.469738 180.231805 
L 122.529457 178.965541 
L 122.618682 178.965541 
L 122.64833 178.174127 
L 123.544976 178.174127 
L 123.601383 175.6416 
L 123.713691 175.6416 
L 123.797484 174.375337 
L 123.880906 174.375337 
L 123.880906 174.217054 
L 124.562065 174.217054 
L 124.562065 174.058771 
L 124.721937 174.058771 
L 124.774928 172.95079 
L 124.906754 172.95079 
L 125.011554 170.734829 
L 125.141738 170.734829 
L 125.141738 170.576546 
L 125.804545 170.576546 
L 125.804545 168.677151 
L 125.954239 168.677151 
L 126.053378 166.46119 
L 126.102752 166.46119 
L 126.102752 166.302907 
L 126.589495 166.302907 
L 126.589495 166.144624 
L 126.875608 166.144624 
L 126.875608 164.403512 
L 126.993549 164.403512 
L 127.087372 161.237854 
L 127.110755 161.237854 
L 127.18073 159.338459 
L 127.821575 159.338459 
L 127.911368 155.381385 
L 127.956104 155.381385 
L 128.045258 153.323707 
L 128.133992 153.323707 
L 128.133992 153.165424 
L 128.786481 153.165424 
L 128.893063 148.57522 
L 128.914307 148.57522 
L 128.956723 146.517541 
L 129.062347 146.517541 
L 129.062347 146.359259 
L 129.643124 146.359259 
L 129.744974 141.610771 
L 129.78556 141.610771 
L 129.826058 141.294205 
L 129.926925 141.294205 
L 129.926925 141.135922 
L 130.46245 141.135922 
L 130.55997 137.020566 
L 130.579414 137.020566 
L 130.676331 134.488039 
L 130.734242 134.488039 
L 130.734242 134.01319 
L 131.247576 134.01319 
L 131.341119 132.746927 
L 131.359772 132.746927 
L 131.452761 130.530966 
L 131.471303 130.530966 
L 131.563744 130.2144 
L 132.001241 130.2144 
L 132.109044 127.681873 
L 132.126951 127.681873 
L 132.216233 125.782478 
L 132.340519 125.782478 
L 132.340519 125.624195 
L 132.777813 125.624195 
L 132.864066 120.559141 
L 132.967049 120.559141 
L 133.01833 120.084293 
L 133.506969 120.084293 
L 133.606501 118.184898 
L 133.623039 118.184898 
L 133.70551 117.076917 
L 133.771227 117.076917 
L 133.771227 116.602068 
L 133.950775 116.602068 
L 133.950775 116.443785 
L 134.168812 116.443785 
L 134.176839 116.12722 
L 134.28886 116.12722 
L 134.368469 114.227824 
L 134.431915 114.227824 
L 134.431915 112.961561 
L 134.792631 112.961561 
L 134.901055 111.220449 
L 134.931919 111.220449 
L 135.039546 109.795902 
L 135.070183 109.795902 
L 135.161798 109.321054 
L 135.230218 109.321054 
L 135.230218 109.162771 
L 135.418977 109.162771 
L 135.52386 108.213073 
L 135.583532 108.213073 
L 135.583532 106.788527 
L 135.731889 106.788527 
L 135.731889 106.313678 
L 136.025138 106.313678 
L 136.025138 105.522263 
L 136.198918 105.522263 
L 136.198918 105.36398 
L 136.328207 105.36398 
L 136.328207 105.205698 
L 136.933948 105.205698 
L 136.933948 104.572566 
L 137.250116 104.572566 
L 137.304564 102.989737 
L 137.493898 102.989737 
L 137.587855 102.514888 
L 137.681345 102.514888 
L 137.681345 102.198322 
L 137.800869 102.198322 
L 137.800869 101.723473 
L 138.730661 101.723473 
L 138.730661 101.248624 
L 141.039908 101.248624 
L 141.13994 100.615493 
L 141.804267 100.615493 
L 141.804267 100.298927 
L 142.258853 100.298927 
L 142.258853 99.982361 
L 142.487252 99.982361 
L 142.487252 99.824078 
L 145.148219 99.824078 
L 145.148219 99.665795 
L 145.582112 99.665795 
L 145.669446 99.190946 
L 145.929039 99.190946 
L 145.929039 99.032663 
L 146.728219 99.032663 
L 146.728219 98.87438 
L 147.917048 98.87438 
L 147.917048 98.716098 
L 148.659905 98.716098 
L 148.659905 98.557815 
L 149.317208 98.557815 
L 149.327971 98.241249 
L 149.778038 98.241249 
L 149.778038 98.082966 
L 151.801309 98.082966 
L 151.801309 97.924683 
L 153.24161 97.924683 
L 153.305585 97.608117 
L 153.380912 97.608117 
L 153.380912 97.449834 
L 154.289641 97.449834 
L 154.289641 97.291551 
L 154.410475 97.291551 
L 154.410475 97.133268 
L 155.18278 97.133268 
L 155.240492 96.816702 
L 157.688143 96.816702 
L 157.688143 96.65842 
L 158.020938 96.65842 
L 158.020938 96.500137 
L 159.451784 96.500137 
L 159.451784 96.341854 
L 161.728786 96.341854 
L 161.728786 96.183571 
L 162.747046 96.183571 
L 162.79619 95.708722 
L 163.692963 95.708722 
L 163.692963 95.550439 
L 164.49455 95.550439 
L 164.49455 95.392156 
L 164.915805 95.392156 
L 165.009535 95.07559 
L 165.152353 95.07559 
L 165.152353 94.917307 
L 165.35539 94.917307 
L 165.392072 94.600741 
L 165.486503 94.600741 
L 165.486503 94.284176 
L 165.643847 94.284176 
L 165.643847 94.125893 
L 167.965363 94.125893 
L 167.965363 93.96761 
L 168.169334 93.96761 
L 168.169334 93.809327 
L 168.760648 93.809327 
L 168.760648 93.651044 
L 169.709079 93.651044 
L 169.774511 93.017912 
L 169.88306 93.017912 
L 169.88306 92.859629 
L 170.428292 92.859629 
L 170.428292 92.543063 
L 172.056737 92.543063 
L 172.056737 92.38478 
L 173.191759 92.38478 
L 173.256203 92.068215 
L 173.470098 92.068215 
L 173.470098 91.909932 
L 175.805543 91.909932 
L 175.805543 91.751649 
L 176.282249 91.751649 
L 176.364231 91.435083 
L 178.262532 91.435083 
L 178.262532 91.2768 
L 178.830093 91.2768 
L 178.830093 91.118517 
L 181.44935 91.118517 
L 181.44935 90.960234 
L 181.757648 90.960234 
L 181.757648 90.801951 
L 182.931853 90.801951 
L 182.931853 90.643668 
L 183.806694 90.643668 
L 183.806694 90.485385 
L 184.683215 90.485385 
L 184.683215 90.327102 
L 186.133852 90.327102 
L 186.20772 90.010537 
L 186.406626 90.010537 
L 186.406626 89.852254 
L 190.870026 89.852254 
L 190.870026 89.535688 
L 191.520742 89.535688 
L 191.520742 89.377405 
L 191.710893 89.377405 
L 191.710893 89.219122 
L 192.527328 89.219122 
L 192.527328 89.060839 
L 193.080627 89.060839 
L 193.080627 88.902556 
L 194.172445 88.902556 
L 194.172445 88.744273 
L 194.875344 88.744273 
L 194.875344 88.427707 
L 195.236879 88.427707 
L 195.236879 88.269424 
L 195.721159 88.269424 
L 195.721159 88.111141 
L 196.044208 88.111141 
L 196.044208 87.952859 
L 197.167246 87.952859 
L 197.167246 87.794576 
L 197.633472 87.794576 
L 197.633472 87.47801 
L 198.2286 87.47801 
L 198.2286 87.319727 
L 198.47274 87.319727 
L 198.494827 87.003161 
L 199.344601 87.003161 
L 199.344601 86.844878 
L 199.96616 86.844878 
L 199.96616 86.686595 
L 200.822641 86.686595 
L 200.822641 86.528312 
L 202.420412 86.528312 
L 202.420412 86.370029 
L 202.687247 86.370029 
L 202.687247 86.211746 
L 202.962373 86.211746 
L 202.962373 86.053463 
L 208.160085 86.053463 
L 208.160085 85.89518 
L 210.88872 85.89518 
L 210.88872 85.736898 
L 212.592093 85.736898 
L 212.592093 85.578615 
L 215.06038 85.578615 
L 215.127795 85.262049 
L 231.432045 85.262049 
L 231.43314 84.945483 
L 231.723402 84.945483 
L 231.723402 84.7872 
L 231.979321 84.7872 
L 231.979321 84.628917 
L 232.177246 84.628917 
L 232.280187 84.312351 
L 232.981978 84.312351 
L 233.053936 83.837502 
L 233.364013 83.837502 
L 233.365495 83.520937 
L 233.50159 83.520937 
L 233.50159 83.362654 
L 233.763852 83.362654 
L 233.833127 83.046088 
L 233.920462 83.046088 
L 233.957836 82.571239 
L 234.331852 82.571239 
L 234.333025 82.254673 
L 234.609702 82.254673 
L 234.711535 81.304976 
L 244.041842 81.304976 
L 244.041842 81.146693 
L 244.767068 81.146693 
L 244.767068 80.98841 
L 245.193429 80.98841 
L 245.193429 80.830127 
L 245.444631 80.830127 
L 245.513429 80.355278 
L 251.985347 80.355278 
L 252.014515 80.038712 
L 252.402369 80.038712 
L 252.402369 79.880429 
L 252.572158 79.880429 
L 252.620085 79.563863 
L 257.4941 79.563863 
L 257.494945 79.247298 
L 257.871026 79.247298 
L 257.965737 78.772449 
L 261.771488 78.772449 
L 261.801583 78.2976 
L 261.951643 78.2976 
L 261.962016 77.822751 
L 265.121422 77.822751 
L 265.121422 77.664468 
L 267.98213 77.664468 
L 267.98213 77.506185 
L 270.268557 77.506185 
L 270.268557 77.347902 
L 272.657619 77.347902 
L 272.658802 76.873054 
L 276.349786 76.873054 
L 276.349786 76.714771 
L 280.77844 76.714771 
L 280.77844 76.556488 
L 284.406325 76.556488 
L 284.406325 76.398205 
L 285.467723 76.398205 
L 285.467723 76.239922 
L 286.472992 76.239922 
L 286.472992 76.081639 
L 295.597146 76.081639 
L 295.597146 75.923356 
L 298.90368 75.923356 
L 298.90368 75.765073 
L 360.8064 75.765073 
L 360.8064 75.765073 
" style="fill:none;stroke:#ff7500;stroke-linecap:square;stroke-width:1.5;"/>
   </g>
   <g id="line2d_36">
    <defs>
     <path d="M 0 -6 
L -1.347084 -1.854102 
L -5.706339 -1.854102 
L -2.179628 0.708204 
L -3.526712 4.854102 
L -0 2.291796 
L 3.526712 4.854102 
L 2.179628 0.708204 
L 5.706339 -1.854102 
L 1.347084 -1.854102 
z
" id="m88fd4fc6a6" style="stroke:#ff7500;stroke-linejoin:bevel;stroke-width:1.5;"/>
    </defs>
    <g>
     <use style="fill-opacity:0;stroke:#ff7500;stroke-linejoin:bevel;stroke-width:1.5;" x="117.810359" xlink:href="#m88fd4fc6a6" y="190.361912"/>
     <use style="fill-opacity:0;stroke:#ff7500;stroke-linejoin:bevel;stroke-width:1.5;" x="178.830093" xlink:href="#m88fd4fc6a6" y="91.2768"/>
     <use style="fill-opacity:0;stroke:#ff7500;stroke-linejoin:bevel;stroke-width:1.5;" x="298.90368" xlink:href="#m88fd4fc6a6" y="75.923356"/>
     <use style="fill-opacity:0;stroke:#ff7500;stroke-linejoin:bevel;stroke-width:1.5;" x="298.90368" xlink:href="#m88fd4fc6a6" y="75.765073"/>
     <use style="fill-opacity:0;stroke:#ff7500;stroke-linejoin:bevel;stroke-width:1.5;" x="360.8064" xlink:href="#m88fd4fc6a6" y="75.765073"/>
    </g>
   </g>
   <g id="line2d_37">
    <path style="fill:none;stroke:#ff7500;stroke-linecap:square;stroke-width:1.5;"/>
    <g/>
   </g>
   <g id="line2d_38">
    <path clip-path="url(#pcea3d3999c)" d="M 230.863104 85.262049 
" style="fill:none;stroke:#ff7500;stroke-linecap:square;stroke-width:1.5;"/>
    <defs>
     <path d="M -12 12 
L 12 -12 
M -12 -12 
L 12 12 
" id="ma5506e771d" style="stroke:#ff7500;"/>
    </defs>
    <g clip-path="url(#pcea3d3999c)">
     <use style="fill:#ff7500;stroke:#ff7500;" x="230.863104" xlink:href="#ma5506e771d" y="85.262049"/>
    </g>
   </g>
   <g id="line2d_39">
    <path d="M 360.8064 90.010537 
L 380.514816 293.10336 
" style="fill:none;stroke:#ff00ff;stroke-linecap:square;stroke-width:1.5;"/>
    <g>
     <use style="fill-opacity:0;stroke:#ff00ff;stroke-linejoin:miter;stroke-width:1.5;" x="360.8064" xlink:href="#m67207c16e0" y="90.010537"/>
     <use style="fill-opacity:0;stroke:#ff00ff;stroke-linejoin:miter;stroke-width:1.5;" x="380.514816" xlink:href="#m67207c16e0" y="293.10336"/>
    </g>
   </g>
   <g id="line2d_40">
    <path d="M 360.8064 75.765073 
L 380.514816 12.75264 
" style="fill:none;stroke:#ff7500;stroke-linecap:square;stroke-width:1.5;"/>
    <g>
     <use style="fill-opacity:0;stroke:#ff7500;stroke-linejoin:bevel;stroke-width:1.5;" x="360.8064" xlink:href="#m88fd4fc6a6" y="75.765073"/>
     <use style="fill-opacity:0;stroke:#ff7500;stroke-linejoin:bevel;stroke-width:1.5;" x="380.514816" xlink:href="#m88fd4fc6a6" y="12.75264"/>
    </g>
   </g>
   <g id="line2d_41">
    <path d="M 360.8064 298.944 
L 360.8064 6.912 
" style="fill:none;stroke:#000000;stroke-linecap:square;stroke-width:1.5;"/>
   </g>
   <g id="patch_3">
    <path d="M 57.6 298.944 
L 360.8064 298.944 
" style="fill:none;stroke:#000000;stroke-linecap:square;stroke-linejoin:miter;stroke-width:0.8;"/>
   </g>
   <g id="patch_4">
    <path d="M 57.6 6.912 
L 360.8064 6.912 
" style="fill:none;stroke:#000000;stroke-linecap:square;stroke-linejoin:miter;stroke-width:0.8;"/>
   </g>
   <g id="text_13">
    <!-- cobyla rh -->
    <g transform="translate(386.578944 296.966485)scale(0.14 -0.14)">
     <defs>
      <path d="M 48.6875 27.296875 
Q 48.6875 37.203125 44.609375 42.84375 
Q 40.53125 48.484375 33.40625 48.484375 
Q 26.265625 48.484375 22.1875 42.84375 
Q 18.109375 37.203125 18.109375 27.296875 
Q 18.109375 17.390625 22.1875 11.75 
Q 26.265625 6.109375 33.40625 6.109375 
Q 40.53125 6.109375 44.609375 11.75 
Q 48.6875 17.390625 48.6875 27.296875 
z
M 18.109375 46.390625 
Q 20.953125 51.265625 25.265625 53.625 
Q 29.59375 56 35.59375 56 
Q 45.5625 56 51.78125 48.09375 
Q 58.015625 40.1875 58.015625 27.296875 
Q 58.015625 14.40625 51.78125 6.484375 
Q 45.5625 -1.421875 35.59375 -1.421875 
Q 29.59375 -1.421875 25.265625 0.953125 
Q 20.953125 3.328125 18.109375 8.203125 
L 18.109375 0 
L 9.078125 0 
L 9.078125 75.984375 
L 18.109375 75.984375 
z
" id="DejaVuSans-98"/>
      <path d="M 32.171875 -5.078125 
Q 28.375 -14.84375 24.75 -17.8125 
Q 21.140625 -20.796875 15.09375 -20.796875 
L 7.90625 -20.796875 
L 7.90625 -13.28125 
L 13.1875 -13.28125 
Q 16.890625 -13.28125 18.9375 -11.515625 
Q 21 -9.765625 23.484375 -3.21875 
L 25.09375 0.875 
L 2.984375 54.6875 
L 12.5 54.6875 
L 29.59375 11.921875 
L 46.6875 54.6875 
L 56.203125 54.6875 
z
" id="DejaVuSans-121"/>
      <path d="M 54.890625 33.015625 
L 54.890625 0 
L 45.90625 0 
L 45.90625 32.71875 
Q 45.90625 40.484375 42.875 44.328125 
Q 39.84375 48.1875 33.796875 48.1875 
Q 26.515625 48.1875 22.3125 43.546875 
Q 18.109375 38.921875 18.109375 30.90625 
L 18.109375 0 
L 9.078125 0 
L 9.078125 75.984375 
L 18.109375 75.984375 
L 18.109375 46.1875 
Q 21.34375 51.125 25.703125 53.5625 
Q 30.078125 56 35.796875 56 
Q 45.21875 56 50.046875 50.171875 
Q 54.890625 44.34375 54.890625 33.015625 
z
" id="DejaVuSans-104"/>
     </defs>
     <use xlink:href="#DejaVuSans-99"/>
     <use x="54.980469" xlink:href="#DejaVuSans-111"/>
     <use x="116.162109" xlink:href="#DejaVuSans-98"/>
     <use x="179.638672" xlink:href="#DejaVuSans-121"/>
     <use x="238.818359" xlink:href="#DejaVuSans-108"/>
     <use x="266.601562" xlink:href="#DejaVuSans-97"/>
     <use x="327.880859" xlink:href="#DejaVuSans-32"/>
     <use x="359.667969" xlink:href="#DejaVuSans-114"/>
     <use x="399.03125" xlink:href="#DejaVuSans-104"/>
    </g>
   </g>
   <g id="text_14">
    <!-- fmincon -->
    <g transform="translate(386.578944 16.615765)scale(0.14 -0.14)">
     <use xlink:href="#DejaVuSans-102"/>
     <use x="35.205078" xlink:href="#DejaVuSans-109"/>
     <use x="132.617188" xlink:href="#DejaVuSans-105"/>
     <use x="160.400391" xlink:href="#DejaVuSans-110"/>
     <use x="223.779297" xlink:href="#DejaVuSans-99"/>
     <use x="278.759766" xlink:href="#DejaVuSans-111"/>
     <use x="339.941406" xlink:href="#DejaVuSans-110"/>
    </g>
   </g>
   <g id="text_15">
    <!-- bbob-constrained f3, f9, f15, 40-D -->
    <g transform="translate(60.632064 17.582726)scale(0.102 -0.102)">
     <defs>
      <path d="M 4.890625 31.390625 
L 31.203125 31.390625 
L 31.203125 23.390625 
L 4.890625 23.390625 
z
" id="DejaVuSans-45"/>
      <path d="M 40.578125 39.3125 
Q 47.65625 37.796875 51.625 33 
Q 55.609375 28.21875 55.609375 21.1875 
Q 55.609375 10.40625 48.1875 4.484375 
Q 40.765625 -1.421875 27.09375 -1.421875 
Q 22.515625 -1.421875 17.65625 -0.515625 
Q 12.796875 0.390625 7.625 2.203125 
L 7.625 11.71875 
Q 11.71875 9.328125 16.59375 8.109375 
Q 21.484375 6.890625 26.8125 6.890625 
Q 36.078125 6.890625 40.9375 10.546875 
Q 45.796875 14.203125 45.796875 21.1875 
Q 45.796875 27.640625 41.28125 31.265625 
Q 36.765625 34.90625 28.71875 34.90625 
L 20.21875 34.90625 
L 20.21875 43.015625 
L 29.109375 43.015625 
Q 36.375 43.015625 40.234375 45.921875 
Q 44.09375 48.828125 44.09375 54.296875 
Q 44.09375 59.90625 40.109375 62.90625 
Q 36.140625 65.921875 28.71875 65.921875 
Q 24.65625 65.921875 20.015625 65.03125 
Q 15.375 64.15625 9.8125 62.3125 
L 9.8125 71.09375 
Q 15.4375 72.65625 20.34375 73.4375 
Q 25.25 74.21875 29.59375 74.21875 
Q 40.828125 74.21875 47.359375 69.109375 
Q 53.90625 64.015625 53.90625 55.328125 
Q 53.90625 49.265625 50.4375 45.09375 
Q 46.96875 40.921875 40.578125 39.3125 
z
" id="DejaVuSans-51"/>
      <path d="M 10.984375 1.515625 
L 10.984375 10.5 
Q 14.703125 8.734375 18.5 7.8125 
Q 22.3125 6.890625 25.984375 6.890625 
Q 35.75 6.890625 40.890625 13.453125 
Q 46.046875 20.015625 46.78125 33.40625 
Q 43.953125 29.203125 39.59375 26.953125 
Q 35.25 24.703125 29.984375 24.703125 
Q 19.046875 24.703125 12.671875 31.3125 
Q 6.296875 37.9375 6.296875 49.421875 
Q 6.296875 60.640625 12.9375 67.421875 
Q 19.578125 74.21875 30.609375 74.21875 
Q 43.265625 74.21875 49.921875 64.515625 
Q 56.59375 54.828125 56.59375 36.375 
Q 56.59375 19.140625 48.40625 8.859375 
Q 40.234375 -1.421875 26.421875 -1.421875 
Q 22.703125 -1.421875 18.890625 -0.6875 
Q 15.09375 0.046875 10.984375 1.515625 
z
M 30.609375 32.421875 
Q 37.25 32.421875 41.125 36.953125 
Q 45.015625 41.5 45.015625 49.421875 
Q 45.015625 57.28125 41.125 61.84375 
Q 37.25 66.40625 30.609375 66.40625 
Q 23.96875 66.40625 20.09375 61.84375 
Q 16.21875 57.28125 16.21875 49.421875 
Q 16.21875 41.5 20.09375 36.953125 
Q 23.96875 32.421875 30.609375 32.421875 
z
" id="DejaVuSans-57"/>
      <path d="M 10.796875 72.90625 
L 49.515625 72.90625 
L 49.515625 64.59375 
L 19.828125 64.59375 
L 19.828125 46.734375 
Q 21.96875 47.46875 24.109375 47.828125 
Q 26.265625 48.1875 28.421875 48.1875 
Q 40.625 48.1875 47.75 41.5 
Q 54.890625 34.8125 54.890625 23.390625 
Q 54.890625 11.625 47.5625 5.09375 
Q 40.234375 -1.421875 26.90625 -1.421875 
Q 22.3125 -1.421875 17.546875 -0.640625 
Q 12.796875 0.140625 7.71875 1.703125 
L 7.71875 11.625 
Q 12.109375 9.234375 16.796875 8.0625 
Q 21.484375 6.890625 26.703125 6.890625 
Q 35.15625 6.890625 40.078125 11.328125 
Q 45.015625 15.765625 45.015625 23.390625 
Q 45.015625 31 40.078125 35.4375 
Q 35.15625 39.890625 26.703125 39.890625 
Q 22.75 39.890625 18.8125 39.015625 
Q 14.890625 38.140625 10.796875 36.28125 
z
" id="DejaVuSans-53"/>
      <path d="M 19.671875 64.796875 
L 19.671875 8.109375 
L 31.59375 8.109375 
Q 46.6875 8.109375 53.6875 14.9375 
Q 60.6875 21.78125 60.6875 36.53125 
Q 60.6875 51.171875 53.6875 57.984375 
Q 46.6875 64.796875 31.59375 64.796875 
z
M 9.8125 72.90625 
L 30.078125 72.90625 
Q 51.265625 72.90625 61.171875 64.09375 
Q 71.09375 55.28125 71.09375 36.53125 
Q 71.09375 17.671875 61.125 8.828125 
Q 51.171875 0 30.078125 0 
L 9.8125 0 
z
" id="DejaVuSans-68"/>
     </defs>
     <use xlink:href="#DejaVuSans-98"/>
     <use x="63.476562" xlink:href="#DejaVuSans-98"/>
     <use x="126.953125" xlink:href="#DejaVuSans-111"/>
     <use x="188.134766" xlink:href="#DejaVuSans-98"/>
     <use x="251.611328" xlink:href="#DejaVuSans-45"/>
     <use x="287.695312" xlink:href="#DejaVuSans-99"/>
     <use x="342.675781" xlink:href="#DejaVuSans-111"/>
     <use x="403.857422" xlink:href="#DejaVuSans-110"/>
     <use x="467.236328" xlink:href="#DejaVuSans-115"/>
     <use x="519.335938" xlink:href="#DejaVuSans-116"/>
     <use x="558.544922" xlink:href="#DejaVuSans-114"/>
     <use x="599.658203" xlink:href="#DejaVuSans-97"/>
     <use x="660.9375" xlink:href="#DejaVuSans-105"/>
     <use x="688.720703" xlink:href="#DejaVuSans-110"/>
     <use x="752.099609" xlink:href="#DejaVuSans-101"/>
     <use x="813.623047" xlink:href="#DejaVuSans-100"/>
     <use x="877.099609" xlink:href="#DejaVuSans-32"/>
     <use x="908.886719" xlink:href="#DejaVuSans-102"/>
     <use x="944.091797" xlink:href="#DejaVuSans-51"/>
     <use x="1007.714844" xlink:href="#DejaVuSans-44"/>
     <use x="1039.501953" xlink:href="#DejaVuSans-32"/>
     <use x="1071.289062" xlink:href="#DejaVuSans-102"/>
     <use x="1106.494141" xlink:href="#DejaVuSans-57"/>
     <use x="1170.117188" xlink:href="#DejaVuSans-44"/>
     <use x="1201.904297" xlink:href="#DejaVuSans-32"/>
     <use x="1233.691406" xlink:href="#DejaVuSans-102"/>
     <use x="1268.896484" xlink:href="#DejaVuSans-49"/>
     <use x="1332.519531" xlink:href="#DejaVuSans-53"/>
     <use x="1396.142578" xlink:href="#DejaVuSans-44"/>
     <use x="1427.929688" xlink:href="#DejaVuSans-32"/>
     <use x="1459.716797" xlink:href="#DejaVuSans-52"/>
     <use x="1523.339844" xlink:href="#DejaVuSans-48"/>
     <use x="1586.962891" xlink:href="#DejaVuSans-45"/>
     <use x="1623.046875" xlink:href="#DejaVuSans-68"/>
    </g>
    <!-- 41 targets: 100..1e-06 -->
    <g transform="translate(60.632064 29.004495)scale(0.102 -0.102)">
     <defs>
      <path d="M 11.71875 12.40625 
L 22.015625 12.40625 
L 22.015625 0 
L 11.71875 0 
z
M 11.71875 51.703125 
L 22.015625 51.703125 
L 22.015625 39.3125 
L 11.71875 39.3125 
z
" id="DejaVuSans-58"/>
     </defs>
     <use xlink:href="#DejaVuSans-52"/>
     <use x="63.623047" xlink:href="#DejaVuSans-49"/>
     <use x="127.246094" xlink:href="#DejaVuSans-32"/>
     <use x="159.033203" xlink:href="#DejaVuSans-116"/>
     <use x="198.242188" xlink:href="#DejaVuSans-97"/>
     <use x="259.521484" xlink:href="#DejaVuSans-114"/>
     <use x="298.884766" xlink:href="#DejaVuSans-103"/>
     <use x="362.361328" xlink:href="#DejaVuSans-101"/>
     <use x="423.884766" xlink:href="#DejaVuSans-116"/>
     <use x="463.09375" xlink:href="#DejaVuSans-115"/>
     <use x="515.193359" xlink:href="#DejaVuSans-58"/>
     <use x="548.884766" xlink:href="#DejaVuSans-32"/>
     <use x="580.671875" xlink:href="#DejaVuSans-49"/>
     <use x="644.294922" xlink:href="#DejaVuSans-48"/>
     <use x="707.917969" xlink:href="#DejaVuSans-48"/>
     <use x="771.541016" xlink:href="#DejaVuSans-46"/>
     <use x="803.328125" xlink:href="#DejaVuSans-46"/>
     <use x="835.115234" xlink:href="#DejaVuSans-49"/>
     <use x="898.738281" xlink:href="#DejaVuSans-101"/>
     <use x="960.261719" xlink:href="#DejaVuSans-45"/>
     <use x="996.345703" xlink:href="#DejaVuSans-48"/>
     <use x="1059.96875" xlink:href="#DejaVuSans-54"/>
    </g>
    <!-- evals = f-evals + g-evals -->
    <g transform="translate(60.632064 40.426264)scale(0.102 -0.102)">
     <defs>
      <path d="M 10.59375 45.40625 
L 73.1875 45.40625 
L 73.1875 37.203125 
L 10.59375 37.203125 
z
M 10.59375 25.484375 
L 73.1875 25.484375 
L 73.1875 17.1875 
L 10.59375 17.1875 
z
" id="DejaVuSans-61"/>
      <path d="M 46 62.703125 
L 46 35.5 
L 73.1875 35.5 
L 73.1875 27.203125 
L 46 27.203125 
L 46 0 
L 37.796875 0 
L 37.796875 27.203125 
L 10.59375 27.203125 
L 10.59375 35.5 
L 37.796875 35.5 
L 37.796875 62.703125 
z
" id="DejaVuSans-43"/>
     </defs>
     <use xlink:href="#DejaVuSans-101"/>
     <use x="61.523438" xlink:href="#DejaVuSans-118"/>
     <use x="120.703125" xlink:href="#DejaVuSans-97"/>
     <use x="181.982422" xlink:href="#DejaVuSans-108"/>
     <use x="209.765625" xlink:href="#DejaVuSans-115"/>
     <use x="261.865234" xlink:href="#DejaVuSans-32"/>
     <use x="293.652344" xlink:href="#DejaVuSans-61"/>
     <use x="377.441406" xlink:href="#DejaVuSans-32"/>
     <use x="409.228516" xlink:href="#DejaVuSans-102"/>
     <use x="438.933594" xlink:href="#DejaVuSans-45"/>
     <use x="475.017578" xlink:href="#DejaVuSans-101"/>
     <use x="536.541016" xlink:href="#DejaVuSans-118"/>
     <use x="595.720703" xlink:href="#DejaVuSans-97"/>
     <use x="657" xlink:href="#DejaVuSans-108"/>
     <use x="684.783203" xlink:href="#DejaVuSans-115"/>
     <use x="736.882812" xlink:href="#DejaVuSans-32"/>
     <use x="768.669922" xlink:href="#DejaVuSans-43"/>
     <use x="852.458984" xlink:href="#DejaVuSans-32"/>
     <use x="884.246094" xlink:href="#DejaVuSans-103"/>
     <use x="947.722656" xlink:href="#DejaVuSans-45"/>
     <use x="983.806641" xlink:href="#DejaVuSans-101"/>
     <use x="1045.330078" xlink:href="#DejaVuSans-118"/>
     <use x="1104.509766" xlink:href="#DejaVuSans-97"/>
     <use x="1165.789062" xlink:href="#DejaVuSans-108"/>
     <use x="1193.572266" xlink:href="#DejaVuSans-115"/>
    </g>
    <!-- 15 instances -->
    <g transform="translate(60.632064 51.848032)scale(0.102 -0.102)">
     <use xlink:href="#DejaVuSans-49"/>
     <use x="63.623047" xlink:href="#DejaVuSans-53"/>
     <use x="127.246094" xlink:href="#DejaVuSans-32"/>
     <use x="159.033203" xlink:href="#DejaVuSans-105"/>
     <use x="186.816406" xlink:href="#DejaVuSans-110"/>
     <use x="250.195312" xlink:href="#DejaVuSans-115"/>
     <use x="302.294922" xlink:href="#DejaVuSans-116"/>
     <use x="341.503906" xlink:href="#DejaVuSans-97"/>
     <use x="402.783203" xlink:href="#DejaVuSans-110"/>
     <use x="466.162109" xlink:href="#DejaVuSans-99"/>
     <use x="521.142578" xlink:href="#DejaVuSans-101"/>
     <use x="582.666016" xlink:href="#DejaVuSans-115"/>
    </g>
   </g>
   <g id="text_16">
    <!-- v2.4.152 -->
    <g style="fill:#808080;" transform="translate(187.15945 293.943992)scale(0.1 -0.1)">
     <use xlink:href="#DejaVuSans-118"/>
     <use x="59.179688" xlink:href="#DejaVuSans-50"/>
     <use x="122.802734" xlink:href="#DejaVuSans-46"/>
     <use x="154.589844" xlink:href="#DejaVuSans-52"/>
     <use x="218.212891" xlink:href="#DejaVuSans-46"/>
     <use x="250" xlink:href="#DejaVuSans-49"/>
     <use x="313.623047" xlink:href="#DejaVuSans-53"/>
     <use x="377.246094" xlink:href="#DejaVuSans-50"/>
    </g>
   </g>
  </g>
 </g>
 <defs>
  <clipPath id="pcea3d3999c">
   <rect height="292.032" width="303.2064" x="57.6" y="6.912"/>
  </clipPath>
 </defs>
</svg>
