<?xml version="1.0" encoding="utf-8" standalone="no"?>
<!DOCTYPE svg PUBLIC "-//W3C//DTD SVG 1.1//EN"
  "http://www.w3.org/Graphics/SVG/1.1/DTD/svg11.dtd">
<!-- Created with matplotlib (https://matplotlib.org/) -->
<svg height="345.6pt" version="1.1" viewBox="0 0 460.8 345.6" width="460.8pt" xmlns="http://www.w3.org/2000/svg" xmlns:xlink="http://www.w3.org/1999/xlink">
 <metadata>
  <rdf:RDF xmlns:cc="http://creativecommons.org/ns#" xmlns:dc="http://purl.org/dc/elements/1.1/" xmlns:rdf="http://www.w3.org/1999/02/22-rdf-syntax-ns#">
   <cc:Work>
    <dc:type rdf:resource="http://purl.org/dc/dcmitype/StillImage"/>
    <dc:date>2022-02-09T10:00:13.913390</dc:date>
    <dc:format>image/svg+xml</dc:format>
    <dc:creator>
     <cc:Agent>
      <dc:title>Matplotlib v3.3.3, https://matplotlib.org/</dc:title>
     </cc:Agent>
    </dc:creator>
   </cc:Work>
  </rdf:RDF>
 </metadata>
 <defs>
  <style type="text/css">*{stroke-linecap:butt;stroke-linejoin:round;}</style>
 </defs>
 <g id="figure_1">
  <g id="patch_1">
   <path d="M 0 345.6 
L 460.8 345.6 
L 460.8 0 
L 0 0 
z
" style="fill:#ffffff;"/>
  </g>
  <g id="axes_1">
   <g id="patch_2">
    <path d="M 57.6 298.944 
L 360.8064 298.944 
L 360.8064 6.912 
L 57.6 6.912 
z
" style="fill:#ffffff;"/>
   </g>
   <g id="matplotlib.axis_1">
    <g id="xtick_1">
     <g id="line2d_1">
      <path clip-path="url(#p7b9283537f)" d="M 57.6 298.944 
L 57.6 6.912 
" style="fill:none;stroke:#b0b0b0;stroke-linecap:square;stroke-width:0.8;"/>
     </g>
     <g id="line2d_2">
      <defs>
       <path d="M 0 0 
L 0 3.5 
" id="m38171f58ba" style="stroke:#000000;stroke-width:0.8;"/>
      </defs>
      <g>
       <use style="stroke:#000000;stroke-width:0.8;" x="57.6" xlink:href="#m38171f58ba" y="298.944"/>
      </g>
     </g>
     <g id="text_1">
      <!-- 0 -->
      <g transform="translate(52.191875 318.861344)scale(0.17 -0.17)">
       <defs>
        <path d="M 31.78125 66.40625 
Q 24.171875 66.40625 20.328125 58.90625 
Q 16.5 51.421875 16.5 36.375 
Q 16.5 21.390625 20.328125 13.890625 
Q 24.171875 6.390625 31.78125 6.390625 
Q 39.453125 6.390625 43.28125 13.890625 
Q 47.125 21.390625 47.125 36.375 
Q 47.125 51.421875 43.28125 58.90625 
Q 39.453125 66.40625 31.78125 66.40625 
z
M 31.78125 74.21875 
Q 44.046875 74.21875 50.515625 64.515625 
Q 56.984375 54.828125 56.984375 36.375 
Q 56.984375 17.96875 50.515625 8.265625 
Q 44.046875 -1.421875 31.78125 -1.421875 
Q 19.53125 -1.421875 13.0625 8.265625 
Q 6.59375 17.96875 6.59375 36.375 
Q 6.59375 54.828125 13.0625 64.515625 
Q 19.53125 74.21875 31.78125 74.21875 
z
" id="DejaVuSans-48"/>
       </defs>
       <use xlink:href="#DejaVuSans-48"/>
      </g>
     </g>
    </g>
    <g id="xtick_2">
     <g id="line2d_3">
      <path clip-path="url(#p7b9283537f)" d="M 144.2304 298.944 
L 144.2304 6.912 
" style="fill:none;stroke:#b0b0b0;stroke-linecap:square;stroke-width:0.8;"/>
     </g>
     <g id="line2d_4">
      <g>
       <use style="stroke:#000000;stroke-width:0.8;" x="144.2304" xlink:href="#m38171f58ba" y="298.944"/>
      </g>
     </g>
     <g id="text_2">
      <!-- 2 -->
      <g transform="translate(138.822275 318.861344)scale(0.17 -0.17)">
       <defs>
        <path d="M 19.1875 8.296875 
L 53.609375 8.296875 
L 53.609375 0 
L 7.328125 0 
L 7.328125 8.296875 
Q 12.9375 14.109375 22.625 23.890625 
Q 32.328125 33.6875 34.8125 36.53125 
Q 39.546875 41.84375 41.421875 45.53125 
Q 43.3125 49.21875 43.3125 52.78125 
Q 43.3125 58.59375 39.234375 62.25 
Q 35.15625 65.921875 28.609375 65.921875 
Q 23.96875 65.921875 18.8125 64.3125 
Q 13.671875 62.703125 7.8125 59.421875 
L 7.8125 69.390625 
Q 13.765625 71.78125 18.9375 73 
Q 24.125 74.21875 28.421875 74.21875 
Q 39.75 74.21875 46.484375 68.546875 
Q 53.21875 62.890625 53.21875 53.421875 
Q 53.21875 48.921875 51.53125 44.890625 
Q 49.859375 40.875 45.40625 35.40625 
Q 44.1875 33.984375 37.640625 27.21875 
Q 31.109375 20.453125 19.1875 8.296875 
z
" id="DejaVuSans-50"/>
       </defs>
       <use xlink:href="#DejaVuSans-50"/>
      </g>
     </g>
    </g>
    <g id="xtick_3">
     <g id="line2d_5">
      <path clip-path="url(#p7b9283537f)" d="M 230.8608 298.944 
L 230.8608 6.912 
" style="fill:none;stroke:#b0b0b0;stroke-linecap:square;stroke-width:0.8;"/>
     </g>
     <g id="line2d_6">
      <g>
       <use style="stroke:#000000;stroke-width:0.8;" x="230.8608" xlink:href="#m38171f58ba" y="298.944"/>
      </g>
     </g>
     <g id="text_3">
      <!-- 4 -->
      <g transform="translate(225.452675 318.861344)scale(0.17 -0.17)">
       <defs>
        <path d="M 37.796875 64.3125 
L 12.890625 25.390625 
L 37.796875 25.390625 
z
M 35.203125 72.90625 
L 47.609375 72.90625 
L 47.609375 25.390625 
L 58.015625 25.390625 
L 58.015625 17.1875 
L 47.609375 17.1875 
L 47.609375 0 
L 37.796875 0 
L 37.796875 17.1875 
L 4.890625 17.1875 
L 4.890625 26.703125 
z
" id="DejaVuSans-52"/>
       </defs>
       <use xlink:href="#DejaVuSans-52"/>
      </g>
     </g>
    </g>
    <g id="xtick_4">
     <g id="line2d_7">
      <path clip-path="url(#p7b9283537f)" d="M 317.4912 298.944 
L 317.4912 6.912 
" style="fill:none;stroke:#b0b0b0;stroke-linecap:square;stroke-width:0.8;"/>
     </g>
     <g id="line2d_8">
      <g>
       <use style="stroke:#000000;stroke-width:0.8;" x="317.4912" xlink:href="#m38171f58ba" y="298.944"/>
      </g>
     </g>
     <g id="text_4">
      <!-- 6 -->
      <g transform="translate(312.083075 318.861344)scale(0.17 -0.17)">
       <defs>
        <path d="M 33.015625 40.375 
Q 26.375 40.375 22.484375 35.828125 
Q 18.609375 31.296875 18.609375 23.390625 
Q 18.609375 15.53125 22.484375 10.953125 
Q 26.375 6.390625 33.015625 6.390625 
Q 39.65625 6.390625 43.53125 10.953125 
Q 47.40625 15.53125 47.40625 23.390625 
Q 47.40625 31.296875 43.53125 35.828125 
Q 39.65625 40.375 33.015625 40.375 
z
M 52.59375 71.296875 
L 52.59375 62.3125 
Q 48.875 64.0625 45.09375 64.984375 
Q 41.3125 65.921875 37.59375 65.921875 
Q 27.828125 65.921875 22.671875 59.328125 
Q 17.53125 52.734375 16.796875 39.40625 
Q 19.671875 43.65625 24.015625 45.921875 
Q 28.375 48.1875 33.59375 48.1875 
Q 44.578125 48.1875 50.953125 41.515625 
Q 57.328125 34.859375 57.328125 23.390625 
Q 57.328125 12.15625 50.6875 5.359375 
Q 44.046875 -1.421875 33.015625 -1.421875 
Q 20.359375 -1.421875 13.671875 8.265625 
Q 6.984375 17.96875 6.984375 36.375 
Q 6.984375 53.65625 15.1875 63.9375 
Q 23.390625 74.21875 37.203125 74.21875 
Q 40.921875 74.21875 44.703125 73.484375 
Q 48.484375 72.75 52.59375 71.296875 
z
" id="DejaVuSans-54"/>
       </defs>
       <use xlink:href="#DejaVuSans-54"/>
      </g>
     </g>
    </g>
    <g id="xtick_5">
     <g id="line2d_9">
      <path clip-path="url(#p7b9283537f)" d="M 100.9152 298.944 
L 100.9152 6.912 
" style="fill:none;stroke:#b0b0b0;stroke-linecap:square;stroke-width:0.8;"/>
     </g>
     <g id="line2d_10">
      <defs>
       <path d="M 0 0 
L 0 2 
" id="m000b6ffbc0" style="stroke:#000000;stroke-width:0.6;"/>
      </defs>
      <g>
       <use style="stroke:#000000;stroke-width:0.6;" x="100.9152" xlink:href="#m000b6ffbc0" y="298.944"/>
      </g>
     </g>
    </g>
    <g id="xtick_6">
     <g id="line2d_11">
      <path clip-path="url(#p7b9283537f)" d="M 187.5456 298.944 
L 187.5456 6.912 
" style="fill:none;stroke:#b0b0b0;stroke-linecap:square;stroke-width:0.8;"/>
     </g>
     <g id="line2d_12">
      <g>
       <use style="stroke:#000000;stroke-width:0.6;" x="187.5456" xlink:href="#m000b6ffbc0" y="298.944"/>
      </g>
     </g>
    </g>
    <g id="xtick_7">
     <g id="line2d_13">
      <path clip-path="url(#p7b9283537f)" d="M 274.176 298.944 
L 274.176 6.912 
" style="fill:none;stroke:#b0b0b0;stroke-linecap:square;stroke-width:0.8;"/>
     </g>
     <g id="line2d_14">
      <g>
       <use style="stroke:#000000;stroke-width:0.6;" x="274.176" xlink:href="#m000b6ffbc0" y="298.944"/>
      </g>
     </g>
    </g>
    <g id="xtick_8">
     <g id="line2d_15">
      <path clip-path="url(#p7b9283537f)" d="M 360.8064 298.944 
L 360.8064 6.912 
" style="fill:none;stroke:#b0b0b0;stroke-linecap:square;stroke-width:0.8;"/>
     </g>
     <g id="line2d_16">
      <g>
       <use style="stroke:#000000;stroke-width:0.6;" x="360.8064" xlink:href="#m000b6ffbc0" y="298.944"/>
      </g>
     </g>
    </g>
    <g id="text_5">
     <!-- log10(evals / dimension) -->
     <g transform="translate(104.238825 339.314156)scale(0.17 -0.17)">
      <defs>
       <path d="M 9.421875 75.984375 
L 18.40625 75.984375 
L 18.40625 0 
L 9.421875 0 
z
" id="DejaVuSans-108"/>
       <path d="M 30.609375 48.390625 
Q 23.390625 48.390625 19.1875 42.75 
Q 14.984375 37.109375 14.984375 27.296875 
Q 14.984375 17.484375 19.15625 11.84375 
Q 23.34375 6.203125 30.609375 6.203125 
Q 37.796875 6.203125 41.984375 11.859375 
Q 46.1875 17.53125 46.1875 27.296875 
Q 46.1875 37.015625 41.984375 42.703125 
Q 37.796875 48.390625 30.609375 48.390625 
z
M 30.609375 56 
Q 42.328125 56 49.015625 48.375 
Q 55.71875 40.765625 55.71875 27.296875 
Q 55.71875 13.875 49.015625 6.21875 
Q 42.328125 -1.421875 30.609375 -1.421875 
Q 18.84375 -1.421875 12.171875 6.21875 
Q 5.515625 13.875 5.515625 27.296875 
Q 5.515625 40.765625 12.171875 48.375 
Q 18.84375 56 30.609375 56 
z
" id="DejaVuSans-111"/>
       <path d="M 45.40625 27.984375 
Q 45.40625 37.75 41.375 43.109375 
Q 37.359375 48.484375 30.078125 48.484375 
Q 22.859375 48.484375 18.828125 43.109375 
Q 14.796875 37.75 14.796875 27.984375 
Q 14.796875 18.265625 18.828125 12.890625 
Q 22.859375 7.515625 30.078125 7.515625 
Q 37.359375 7.515625 41.375 12.890625 
Q 45.40625 18.265625 45.40625 27.984375 
z
M 54.390625 6.78125 
Q 54.390625 -7.171875 48.1875 -13.984375 
Q 42 -20.796875 29.203125 -20.796875 
Q 24.46875 -20.796875 20.265625 -20.09375 
Q 16.0625 -19.390625 12.109375 -17.921875 
L 12.109375 -9.1875 
Q 16.0625 -11.328125 19.921875 -12.34375 
Q 23.78125 -13.375 27.78125 -13.375 
Q 36.625 -13.375 41.015625 -8.765625 
Q 45.40625 -4.15625 45.40625 5.171875 
L 45.40625 9.625 
Q 42.625 4.78125 38.28125 2.390625 
Q 33.9375 0 27.875 0 
Q 17.828125 0 11.671875 7.65625 
Q 5.515625 15.328125 5.515625 27.984375 
Q 5.515625 40.671875 11.671875 48.328125 
Q 17.828125 56 27.875 56 
Q 33.9375 56 38.28125 53.609375 
Q 42.625 51.21875 45.40625 46.390625 
L 45.40625 54.6875 
L 54.390625 54.6875 
z
" id="DejaVuSans-103"/>
       <path d="M 12.40625 8.296875 
L 28.515625 8.296875 
L 28.515625 63.921875 
L 10.984375 60.40625 
L 10.984375 69.390625 
L 28.421875 72.90625 
L 38.28125 72.90625 
L 38.28125 8.296875 
L 54.390625 8.296875 
L 54.390625 0 
L 12.40625 0 
z
" id="DejaVuSans-49"/>
       <path d="M 31 75.875 
Q 24.46875 64.65625 21.28125 53.65625 
Q 18.109375 42.671875 18.109375 31.390625 
Q 18.109375 20.125 21.3125 9.0625 
Q 24.515625 -2 31 -13.1875 
L 23.1875 -13.1875 
Q 15.875 -1.703125 12.234375 9.375 
Q 8.59375 20.453125 8.59375 31.390625 
Q 8.59375 42.28125 12.203125 53.3125 
Q 15.828125 64.359375 23.1875 75.875 
z
" id="DejaVuSans-40"/>
       <path d="M 56.203125 29.59375 
L 56.203125 25.203125 
L 14.890625 25.203125 
Q 15.484375 15.921875 20.484375 11.0625 
Q 25.484375 6.203125 34.421875 6.203125 
Q 39.59375 6.203125 44.453125 7.46875 
Q 49.3125 8.734375 54.109375 11.28125 
L 54.109375 2.78125 
Q 49.265625 0.734375 44.1875 -0.34375 
Q 39.109375 -1.421875 33.890625 -1.421875 
Q 20.796875 -1.421875 13.15625 6.1875 
Q 5.515625 13.8125 5.515625 26.8125 
Q 5.515625 40.234375 12.765625 48.109375 
Q 20.015625 56 32.328125 56 
Q 43.359375 56 49.78125 48.890625 
Q 56.203125 41.796875 56.203125 29.59375 
z
M 47.21875 32.234375 
Q 47.125 39.59375 43.09375 43.984375 
Q 39.0625 48.390625 32.421875 48.390625 
Q 24.90625 48.390625 20.390625 44.140625 
Q 15.875 39.890625 15.1875 32.171875 
z
" id="DejaVuSans-101"/>
       <path d="M 2.984375 54.6875 
L 12.5 54.6875 
L 29.59375 8.796875 
L 46.6875 54.6875 
L 56.203125 54.6875 
L 35.6875 0 
L 23.484375 0 
z
" id="DejaVuSans-118"/>
       <path d="M 34.28125 27.484375 
Q 23.390625 27.484375 19.1875 25 
Q 14.984375 22.515625 14.984375 16.5 
Q 14.984375 11.71875 18.140625 8.90625 
Q 21.296875 6.109375 26.703125 6.109375 
Q 34.1875 6.109375 38.703125 11.40625 
Q 43.21875 16.703125 43.21875 25.484375 
L 43.21875 27.484375 
z
M 52.203125 31.203125 
L 52.203125 0 
L 43.21875 0 
L 43.21875 8.296875 
Q 40.140625 3.328125 35.546875 0.953125 
Q 30.953125 -1.421875 24.3125 -1.421875 
Q 15.921875 -1.421875 10.953125 3.296875 
Q 6 8.015625 6 15.921875 
Q 6 25.140625 12.171875 29.828125 
Q 18.359375 34.515625 30.609375 34.515625 
L 43.21875 34.515625 
L 43.21875 35.40625 
Q 43.21875 41.609375 39.140625 45 
Q 35.0625 48.390625 27.6875 48.390625 
Q 23 48.390625 18.546875 47.265625 
Q 14.109375 46.140625 10.015625 43.890625 
L 10.015625 52.203125 
Q 14.9375 54.109375 19.578125 55.046875 
Q 24.21875 56 28.609375 56 
Q 40.484375 56 46.34375 49.84375 
Q 52.203125 43.703125 52.203125 31.203125 
z
" id="DejaVuSans-97"/>
       <path d="M 44.28125 53.078125 
L 44.28125 44.578125 
Q 40.484375 46.53125 36.375 47.5 
Q 32.28125 48.484375 27.875 48.484375 
Q 21.1875 48.484375 17.84375 46.4375 
Q 14.5 44.390625 14.5 40.28125 
Q 14.5 37.15625 16.890625 35.375 
Q 19.28125 33.59375 26.515625 31.984375 
L 29.59375 31.296875 
Q 39.15625 29.25 43.1875 25.515625 
Q 47.21875 21.78125 47.21875 15.09375 
Q 47.21875 7.46875 41.1875 3.015625 
Q 35.15625 -1.421875 24.609375 -1.421875 
Q 20.21875 -1.421875 15.453125 -0.5625 
Q 10.6875 0.296875 5.421875 2 
L 5.421875 11.28125 
Q 10.40625 8.6875 15.234375 7.390625 
Q 20.0625 6.109375 24.8125 6.109375 
Q 31.15625 6.109375 34.5625 8.28125 
Q 37.984375 10.453125 37.984375 14.40625 
Q 37.984375 18.0625 35.515625 20.015625 
Q 33.0625 21.96875 24.703125 23.78125 
L 21.578125 24.515625 
Q 13.234375 26.265625 9.515625 29.90625 
Q 5.8125 33.546875 5.8125 39.890625 
Q 5.8125 47.609375 11.28125 51.796875 
Q 16.75 56 26.8125 56 
Q 31.78125 56 36.171875 55.265625 
Q 40.578125 54.546875 44.28125 53.078125 
z
" id="DejaVuSans-115"/>
       <path id="DejaVuSans-32"/>
       <path d="M 25.390625 72.90625 
L 33.6875 72.90625 
L 8.296875 -9.28125 
L 0 -9.28125 
z
" id="DejaVuSans-47"/>
       <path d="M 45.40625 46.390625 
L 45.40625 75.984375 
L 54.390625 75.984375 
L 54.390625 0 
L 45.40625 0 
L 45.40625 8.203125 
Q 42.578125 3.328125 38.25 0.953125 
Q 33.9375 -1.421875 27.875 -1.421875 
Q 17.96875 -1.421875 11.734375 6.484375 
Q 5.515625 14.40625 5.515625 27.296875 
Q 5.515625 40.1875 11.734375 48.09375 
Q 17.96875 56 27.875 56 
Q 33.9375 56 38.25 53.625 
Q 42.578125 51.265625 45.40625 46.390625 
z
M 14.796875 27.296875 
Q 14.796875 17.390625 18.875 11.75 
Q 22.953125 6.109375 30.078125 6.109375 
Q 37.203125 6.109375 41.296875 11.75 
Q 45.40625 17.390625 45.40625 27.296875 
Q 45.40625 37.203125 41.296875 42.84375 
Q 37.203125 48.484375 30.078125 48.484375 
Q 22.953125 48.484375 18.875 42.84375 
Q 14.796875 37.203125 14.796875 27.296875 
z
" id="DejaVuSans-100"/>
       <path d="M 9.421875 54.6875 
L 18.40625 54.6875 
L 18.40625 0 
L 9.421875 0 
z
M 9.421875 75.984375 
L 18.40625 75.984375 
L 18.40625 64.59375 
L 9.421875 64.59375 
z
" id="DejaVuSans-105"/>
       <path d="M 52 44.1875 
Q 55.375 50.25 60.0625 53.125 
Q 64.75 56 71.09375 56 
Q 79.640625 56 84.28125 50.015625 
Q 88.921875 44.046875 88.921875 33.015625 
L 88.921875 0 
L 79.890625 0 
L 79.890625 32.71875 
Q 79.890625 40.578125 77.09375 44.375 
Q 74.3125 48.1875 68.609375 48.1875 
Q 61.625 48.1875 57.5625 43.546875 
Q 53.515625 38.921875 53.515625 30.90625 
L 53.515625 0 
L 44.484375 0 
L 44.484375 32.71875 
Q 44.484375 40.625 41.703125 44.40625 
Q 38.921875 48.1875 33.109375 48.1875 
Q 26.21875 48.1875 22.15625 43.53125 
Q 18.109375 38.875 18.109375 30.90625 
L 18.109375 0 
L 9.078125 0 
L 9.078125 54.6875 
L 18.109375 54.6875 
L 18.109375 46.1875 
Q 21.1875 51.21875 25.484375 53.609375 
Q 29.78125 56 35.6875 56 
Q 41.65625 56 45.828125 52.96875 
Q 50 49.953125 52 44.1875 
z
" id="DejaVuSans-109"/>
       <path d="M 54.890625 33.015625 
L 54.890625 0 
L 45.90625 0 
L 45.90625 32.71875 
Q 45.90625 40.484375 42.875 44.328125 
Q 39.84375 48.1875 33.796875 48.1875 
Q 26.515625 48.1875 22.3125 43.546875 
Q 18.109375 38.921875 18.109375 30.90625 
L 18.109375 0 
L 9.078125 0 
L 9.078125 54.6875 
L 18.109375 54.6875 
L 18.109375 46.1875 
Q 21.34375 51.125 25.703125 53.5625 
Q 30.078125 56 35.796875 56 
Q 45.21875 56 50.046875 50.171875 
Q 54.890625 44.34375 54.890625 33.015625 
z
" id="DejaVuSans-110"/>
       <path d="M 8.015625 75.875 
L 15.828125 75.875 
Q 23.140625 64.359375 26.78125 53.3125 
Q 30.421875 42.28125 30.421875 31.390625 
Q 30.421875 20.453125 26.78125 9.375 
Q 23.140625 -1.703125 15.828125 -13.1875 
L 8.015625 -13.1875 
Q 14.5 -2 17.703125 9.0625 
Q 20.90625 20.125 20.90625 31.390625 
Q 20.90625 42.671875 17.703125 53.65625 
Q 14.5 64.65625 8.015625 75.875 
z
" id="DejaVuSans-41"/>
      </defs>
      <use xlink:href="#DejaVuSans-108"/>
      <use x="27.783203" xlink:href="#DejaVuSans-111"/>
      <use x="88.964844" xlink:href="#DejaVuSans-103"/>
      <use x="152.441406" xlink:href="#DejaVuSans-49"/>
      <use x="216.064453" xlink:href="#DejaVuSans-48"/>
      <use x="279.6875" xlink:href="#DejaVuSans-40"/>
      <use x="318.701172" xlink:href="#DejaVuSans-101"/>
      <use x="380.224609" xlink:href="#DejaVuSans-118"/>
      <use x="439.404297" xlink:href="#DejaVuSans-97"/>
      <use x="500.683594" xlink:href="#DejaVuSans-108"/>
      <use x="528.466797" xlink:href="#DejaVuSans-115"/>
      <use x="580.566406" xlink:href="#DejaVuSans-32"/>
      <use x="612.353516" xlink:href="#DejaVuSans-47"/>
      <use x="646.044922" xlink:href="#DejaVuSans-32"/>
      <use x="677.832031" xlink:href="#DejaVuSans-100"/>
      <use x="741.308594" xlink:href="#DejaVuSans-105"/>
      <use x="769.091797" xlink:href="#DejaVuSans-109"/>
      <use x="866.503906" xlink:href="#DejaVuSans-101"/>
      <use x="928.027344" xlink:href="#DejaVuSans-110"/>
      <use x="991.40625" xlink:href="#DejaVuSans-115"/>
      <use x="1043.505859" xlink:href="#DejaVuSans-105"/>
      <use x="1071.289062" xlink:href="#DejaVuSans-111"/>
      <use x="1132.470703" xlink:href="#DejaVuSans-110"/>
      <use x="1195.849609" xlink:href="#DejaVuSans-41"/>
     </g>
    </g>
   </g>
   <g id="matplotlib.axis_2">
    <g id="ytick_1">
     <g id="line2d_17">
      <path clip-path="url(#p7b9283537f)" d="M 57.6 298.944 
L 360.8064 298.944 
" style="fill:none;stroke:#b0b0b0;stroke-linecap:square;stroke-width:0.8;"/>
     </g>
     <g id="line2d_18">
      <defs>
       <path d="M 0 0 
L -3.5 0 
" id="m030a0f2d49" style="stroke:#000000;stroke-width:0.8;"/>
      </defs>
      <g>
       <use style="stroke:#000000;stroke-width:0.8;" x="57.6" xlink:href="#m030a0f2d49" y="298.944"/>
      </g>
     </g>
     <g id="text_6">
      <!-- 0.0 -->
      <g transform="translate(25.155 305.02275)scale(0.16 -0.16)">
       <defs>
        <path d="M 10.6875 12.40625 
L 21 12.40625 
L 21 0 
L 10.6875 0 
z
" id="DejaVuSans-46"/>
       </defs>
       <use xlink:href="#DejaVuSans-48"/>
       <use x="63.623047" xlink:href="#DejaVuSans-46"/>
       <use x="95.410156" xlink:href="#DejaVuSans-48"/>
      </g>
     </g>
    </g>
    <g id="ytick_2">
     <g id="line2d_19">
      <path clip-path="url(#p7b9283537f)" d="M 57.6 240.5376 
L 360.8064 240.5376 
" style="fill:none;stroke:#b0b0b0;stroke-linecap:square;stroke-width:0.8;"/>
     </g>
     <g id="line2d_20">
      <g>
       <use style="stroke:#000000;stroke-width:0.8;" x="57.6" xlink:href="#m030a0f2d49" y="240.5376"/>
      </g>
     </g>
     <g id="text_7">
      <!-- 0.2 -->
      <g transform="translate(25.155 246.61635)scale(0.16 -0.16)">
       <use xlink:href="#DejaVuSans-48"/>
       <use x="63.623047" xlink:href="#DejaVuSans-46"/>
       <use x="95.410156" xlink:href="#DejaVuSans-50"/>
      </g>
     </g>
    </g>
    <g id="ytick_3">
     <g id="line2d_21">
      <path clip-path="url(#p7b9283537f)" d="M 57.6 182.1312 
L 360.8064 182.1312 
" style="fill:none;stroke:#b0b0b0;stroke-linecap:square;stroke-width:0.8;"/>
     </g>
     <g id="line2d_22">
      <g>
       <use style="stroke:#000000;stroke-width:0.8;" x="57.6" xlink:href="#m030a0f2d49" y="182.1312"/>
      </g>
     </g>
     <g id="text_8">
      <!-- 0.4 -->
      <g transform="translate(25.155 188.20995)scale(0.16 -0.16)">
       <use xlink:href="#DejaVuSans-48"/>
       <use x="63.623047" xlink:href="#DejaVuSans-46"/>
       <use x="95.410156" xlink:href="#DejaVuSans-52"/>
      </g>
     </g>
    </g>
    <g id="ytick_4">
     <g id="line2d_23">
      <path clip-path="url(#p7b9283537f)" d="M 57.6 123.7248 
L 360.8064 123.7248 
" style="fill:none;stroke:#b0b0b0;stroke-linecap:square;stroke-width:0.8;"/>
     </g>
     <g id="line2d_24">
      <g>
       <use style="stroke:#000000;stroke-width:0.8;" x="57.6" xlink:href="#m030a0f2d49" y="123.7248"/>
      </g>
     </g>
     <g id="text_9">
      <!-- 0.6 -->
      <g transform="translate(25.155 129.80355)scale(0.16 -0.16)">
       <use xlink:href="#DejaVuSans-48"/>
       <use x="63.623047" xlink:href="#DejaVuSans-46"/>
       <use x="95.410156" xlink:href="#DejaVuSans-54"/>
      </g>
     </g>
    </g>
    <g id="ytick_5">
     <g id="line2d_25">
      <path clip-path="url(#p7b9283537f)" d="M 57.6 65.3184 
L 360.8064 65.3184 
" style="fill:none;stroke:#b0b0b0;stroke-linecap:square;stroke-width:0.8;"/>
     </g>
     <g id="line2d_26">
      <g>
       <use style="stroke:#000000;stroke-width:0.8;" x="57.6" xlink:href="#m030a0f2d49" y="65.3184"/>
      </g>
     </g>
     <g id="text_10">
      <!-- 0.8 -->
      <g transform="translate(25.155 71.39715)scale(0.16 -0.16)">
       <defs>
        <path d="M 31.78125 34.625 
Q 24.75 34.625 20.71875 30.859375 
Q 16.703125 27.09375 16.703125 20.515625 
Q 16.703125 13.921875 20.71875 10.15625 
Q 24.75 6.390625 31.78125 6.390625 
Q 38.8125 6.390625 42.859375 10.171875 
Q 46.921875 13.96875 46.921875 20.515625 
Q 46.921875 27.09375 42.890625 30.859375 
Q 38.875 34.625 31.78125 34.625 
z
M 21.921875 38.8125 
Q 15.578125 40.375 12.03125 44.71875 
Q 8.5 49.078125 8.5 55.328125 
Q 8.5 64.0625 14.71875 69.140625 
Q 20.953125 74.21875 31.78125 74.21875 
Q 42.671875 74.21875 48.875 69.140625 
Q 55.078125 64.0625 55.078125 55.328125 
Q 55.078125 49.078125 51.53125 44.71875 
Q 48 40.375 41.703125 38.8125 
Q 48.828125 37.15625 52.796875 32.3125 
Q 56.78125 27.484375 56.78125 20.515625 
Q 56.78125 9.90625 50.3125 4.234375 
Q 43.84375 -1.421875 31.78125 -1.421875 
Q 19.734375 -1.421875 13.25 4.234375 
Q 6.78125 9.90625 6.78125 20.515625 
Q 6.78125 27.484375 10.78125 32.3125 
Q 14.796875 37.15625 21.921875 38.8125 
z
M 18.3125 54.390625 
Q 18.3125 48.734375 21.84375 45.5625 
Q 25.390625 42.390625 31.78125 42.390625 
Q 38.140625 42.390625 41.71875 45.5625 
Q 45.3125 48.734375 45.3125 54.390625 
Q 45.3125 60.0625 41.71875 63.234375 
Q 38.140625 66.40625 31.78125 66.40625 
Q 25.390625 66.40625 21.84375 63.234375 
Q 18.3125 60.0625 18.3125 54.390625 
z
" id="DejaVuSans-56"/>
       </defs>
       <use xlink:href="#DejaVuSans-48"/>
       <use x="63.623047" xlink:href="#DejaVuSans-46"/>
       <use x="95.410156" xlink:href="#DejaVuSans-56"/>
      </g>
     </g>
    </g>
    <g id="ytick_6">
     <g id="line2d_27">
      <path clip-path="url(#p7b9283537f)" d="M 57.6 6.912 
L 360.8064 6.912 
" style="fill:none;stroke:#b0b0b0;stroke-linecap:square;stroke-width:0.8;"/>
     </g>
     <g id="line2d_28">
      <g>
       <use style="stroke:#000000;stroke-width:0.8;" x="57.6" xlink:href="#m030a0f2d49" y="6.912"/>
      </g>
     </g>
     <g id="text_11">
      <!-- 1.0 -->
      <g transform="translate(25.155 12.99075)scale(0.16 -0.16)">
       <use xlink:href="#DejaVuSans-49"/>
       <use x="63.623047" xlink:href="#DejaVuSans-46"/>
       <use x="95.410156" xlink:href="#DejaVuSans-48"/>
      </g>
     </g>
    </g>
    <g id="text_12">
     <!-- Fraction of function,target pairs -->
     <g transform="translate(17.619531 287.313)rotate(-90)scale(0.17 -0.17)">
      <defs>
       <path d="M 9.8125 72.90625 
L 51.703125 72.90625 
L 51.703125 64.59375 
L 19.671875 64.59375 
L 19.671875 43.109375 
L 48.578125 43.109375 
L 48.578125 34.8125 
L 19.671875 34.8125 
L 19.671875 0 
L 9.8125 0 
z
" id="DejaVuSans-70"/>
       <path d="M 41.109375 46.296875 
Q 39.59375 47.171875 37.8125 47.578125 
Q 36.03125 48 33.890625 48 
Q 26.265625 48 22.1875 43.046875 
Q 18.109375 38.09375 18.109375 28.8125 
L 18.109375 0 
L 9.078125 0 
L 9.078125 54.6875 
L 18.109375 54.6875 
L 18.109375 46.1875 
Q 20.953125 51.171875 25.484375 53.578125 
Q 30.03125 56 36.53125 56 
Q 37.453125 56 38.578125 55.875 
Q 39.703125 55.765625 41.0625 55.515625 
z
" id="DejaVuSans-114"/>
       <path d="M 48.78125 52.59375 
L 48.78125 44.1875 
Q 44.96875 46.296875 41.140625 47.34375 
Q 37.3125 48.390625 33.40625 48.390625 
Q 24.65625 48.390625 19.8125 42.84375 
Q 14.984375 37.3125 14.984375 27.296875 
Q 14.984375 17.28125 19.8125 11.734375 
Q 24.65625 6.203125 33.40625 6.203125 
Q 37.3125 6.203125 41.140625 7.25 
Q 44.96875 8.296875 48.78125 10.40625 
L 48.78125 2.09375 
Q 45.015625 0.34375 40.984375 -0.53125 
Q 36.96875 -1.421875 32.421875 -1.421875 
Q 20.0625 -1.421875 12.78125 6.34375 
Q 5.515625 14.109375 5.515625 27.296875 
Q 5.515625 40.671875 12.859375 48.328125 
Q 20.21875 56 33.015625 56 
Q 37.15625 56 41.109375 55.140625 
Q 45.0625 54.296875 48.78125 52.59375 
z
" id="DejaVuSans-99"/>
       <path d="M 18.3125 70.21875 
L 18.3125 54.6875 
L 36.8125 54.6875 
L 36.8125 47.703125 
L 18.3125 47.703125 
L 18.3125 18.015625 
Q 18.3125 11.328125 20.140625 9.421875 
Q 21.96875 7.515625 27.59375 7.515625 
L 36.8125 7.515625 
L 36.8125 0 
L 27.59375 0 
Q 17.1875 0 13.234375 3.875 
Q 9.28125 7.765625 9.28125 18.015625 
L 9.28125 47.703125 
L 2.6875 47.703125 
L 2.6875 54.6875 
L 9.28125 54.6875 
L 9.28125 70.21875 
z
" id="DejaVuSans-116"/>
       <path d="M 37.109375 75.984375 
L 37.109375 68.5 
L 28.515625 68.5 
Q 23.6875 68.5 21.796875 66.546875 
Q 19.921875 64.59375 19.921875 59.515625 
L 19.921875 54.6875 
L 34.71875 54.6875 
L 34.71875 47.703125 
L 19.921875 47.703125 
L 19.921875 0 
L 10.890625 0 
L 10.890625 47.703125 
L 2.296875 47.703125 
L 2.296875 54.6875 
L 10.890625 54.6875 
L 10.890625 58.5 
Q 10.890625 67.625 15.140625 71.796875 
Q 19.390625 75.984375 28.609375 75.984375 
z
" id="DejaVuSans-102"/>
       <path d="M 8.5 21.578125 
L 8.5 54.6875 
L 17.484375 54.6875 
L 17.484375 21.921875 
Q 17.484375 14.15625 20.5 10.265625 
Q 23.53125 6.390625 29.59375 6.390625 
Q 36.859375 6.390625 41.078125 11.03125 
Q 45.3125 15.671875 45.3125 23.6875 
L 45.3125 54.6875 
L 54.296875 54.6875 
L 54.296875 0 
L 45.3125 0 
L 45.3125 8.40625 
Q 42.046875 3.421875 37.71875 1 
Q 33.40625 -1.421875 27.6875 -1.421875 
Q 18.265625 -1.421875 13.375 4.4375 
Q 8.5 10.296875 8.5 21.578125 
z
M 31.109375 56 
z
" id="DejaVuSans-117"/>
       <path d="M 11.71875 12.40625 
L 22.015625 12.40625 
L 22.015625 4 
L 14.015625 -11.625 
L 7.71875 -11.625 
L 11.71875 4 
z
" id="DejaVuSans-44"/>
       <path d="M 18.109375 8.203125 
L 18.109375 -20.796875 
L 9.078125 -20.796875 
L 9.078125 54.6875 
L 18.109375 54.6875 
L 18.109375 46.390625 
Q 20.953125 51.265625 25.265625 53.625 
Q 29.59375 56 35.59375 56 
Q 45.5625 56 51.78125 48.09375 
Q 58.015625 40.1875 58.015625 27.296875 
Q 58.015625 14.40625 51.78125 6.484375 
Q 45.5625 -1.421875 35.59375 -1.421875 
Q 29.59375 -1.421875 25.265625 0.953125 
Q 20.953125 3.328125 18.109375 8.203125 
z
M 48.6875 27.296875 
Q 48.6875 37.203125 44.609375 42.84375 
Q 40.53125 48.484375 33.40625 48.484375 
Q 26.265625 48.484375 22.1875 42.84375 
Q 18.109375 37.203125 18.109375 27.296875 
Q 18.109375 17.390625 22.1875 11.75 
Q 26.265625 6.109375 33.40625 6.109375 
Q 40.53125 6.109375 44.609375 11.75 
Q 48.6875 17.390625 48.6875 27.296875 
z
" id="DejaVuSans-112"/>
      </defs>
      <use xlink:href="#DejaVuSans-70"/>
      <use x="50.269531" xlink:href="#DejaVuSans-114"/>
      <use x="91.382812" xlink:href="#DejaVuSans-97"/>
      <use x="152.662109" xlink:href="#DejaVuSans-99"/>
      <use x="207.642578" xlink:href="#DejaVuSans-116"/>
      <use x="246.851562" xlink:href="#DejaVuSans-105"/>
      <use x="274.634766" xlink:href="#DejaVuSans-111"/>
      <use x="335.816406" xlink:href="#DejaVuSans-110"/>
      <use x="399.195312" xlink:href="#DejaVuSans-32"/>
      <use x="430.982422" xlink:href="#DejaVuSans-111"/>
      <use x="492.164062" xlink:href="#DejaVuSans-102"/>
      <use x="527.369141" xlink:href="#DejaVuSans-32"/>
      <use x="559.15625" xlink:href="#DejaVuSans-102"/>
      <use x="594.361328" xlink:href="#DejaVuSans-117"/>
      <use x="657.740234" xlink:href="#DejaVuSans-110"/>
      <use x="721.119141" xlink:href="#DejaVuSans-99"/>
      <use x="776.099609" xlink:href="#DejaVuSans-116"/>
      <use x="815.308594" xlink:href="#DejaVuSans-105"/>
      <use x="843.091797" xlink:href="#DejaVuSans-111"/>
      <use x="904.273438" xlink:href="#DejaVuSans-110"/>
      <use x="967.652344" xlink:href="#DejaVuSans-44"/>
      <use x="999.439453" xlink:href="#DejaVuSans-116"/>
      <use x="1038.648438" xlink:href="#DejaVuSans-97"/>
      <use x="1099.927734" xlink:href="#DejaVuSans-114"/>
      <use x="1139.291016" xlink:href="#DejaVuSans-103"/>
      <use x="1202.767578" xlink:href="#DejaVuSans-101"/>
      <use x="1264.291016" xlink:href="#DejaVuSans-116"/>
      <use x="1303.5" xlink:href="#DejaVuSans-32"/>
      <use x="1335.287109" xlink:href="#DejaVuSans-112"/>
      <use x="1398.763672" xlink:href="#DejaVuSans-97"/>
      <use x="1460.042969" xlink:href="#DejaVuSans-105"/>
      <use x="1487.826172" xlink:href="#DejaVuSans-114"/>
      <use x="1528.939453" xlink:href="#DejaVuSans-115"/>
     </g>
    </g>
   </g>
   <g id="line2d_29">
    <defs>
     <path d="M 0 1.5 
C 0.397805 1.5 0.77937 1.341951 1.06066 1.06066 
C 1.341951 0.77937 1.5 0.397805 1.5 0 
C 1.5 -0.397805 1.341951 -0.77937 1.06066 -1.06066 
C 0.77937 -1.341951 0.397805 -1.5 0 -1.5 
C -0.397805 -1.5 -0.77937 -1.341951 -1.06066 -1.06066 
C -1.341951 -0.77937 -1.5 -0.397805 -1.5 0 
C -1.5 0.397805 -1.341951 0.77937 -1.06066 1.06066 
C -0.77937 1.341951 -0.397805 1.5 0 1.5 
z
" id="m9cbf157b41" style="stroke:#000080;"/>
    </defs>
    <g>
     <use style="fill:#000080;stroke:#000080;" x="196.851604" xlink:href="#m9cbf157b41" y="6.912"/>
     <use style="fill:#000080;stroke:#000080;" x="196.851604" xlink:href="#m9cbf157b41" y="6.912"/>
    </g>
   </g>
   <g id="line2d_30">
    <path d="M 79.480672 298.944 
L 79.480672 297.994302 
L 83.678349 297.994302 
L 83.678349 297.400741 
L 85.471281 297.400741 
L 85.471281 297.282029 
L 87.1081 297.282029 
L 87.1081 296.80718 
L 88.613828 296.80718 
L 88.613828 296.569756 
L 90.007914 296.569756 
L 90.007914 295.026498 
L 91.305777 295.026498 
L 91.305777 293.245815 
L 92.519847 293.245815 
L 92.519847 290.396722 
L 93.66029 290.396722 
L 93.66029 276.626107 
L 94.735529 276.626107 
L 94.735529 274.964137 
L 95.752617 274.964137 
L 95.752617 269.7408 
L 96.717523 269.7408 
L 96.717523 264.636176 
L 97.635342 264.636176 
L 97.635342 246.948059 
L 98.510456 246.948059 
L 98.510456 238.044644 
L 99.346662 238.044644 
L 99.346662 235.6704 
L 100.147275 235.6704 
L 100.147275 234.364566 
L 100.9152 234.364566 
L 100.9152 227.241834 
L 101.653002 227.241834 
L 101.653002 216.676449 
L 102.362957 216.676449 
L 102.362957 213.589932 
L 103.047088 213.589932 
L 103.047088 207.179473 
L 103.707211 207.179473 
L 103.707211 203.143259 
L 104.344952 203.143259 
L 104.344952 196.614088 
L 104.961779 196.614088 
L 104.961779 192.696585 
L 105.559021 192.696585 
L 105.559021 190.678478 
L 106.137884 190.678478 
L 106.137884 186.9984 
L 106.699465 186.9984 
L 106.699465 181.300215 
L 107.244765 181.300215 
L 107.244765 174.414907 
L 107.774703 174.414907 
L 107.774703 172.040663 
L 108.29012 172.040663 
L 108.29012 166.46119 
L 108.791791 166.46119 
L 108.791791 160.406868 
L 109.280431 160.406868 
L 109.280431 156.489366 
L 109.756698 156.489366 
L 109.756698 151.266029 
L 110.221204 151.266029 
L 110.221204 148.891785 
L 110.674517 148.891785 
L 110.674517 142.956176 
L 111.117162 142.956176 
L 111.117162 141.531629 
L 111.54963 141.531629 
L 111.54963 140.107083 
L 111.97238 140.107083 
L 111.97238 139.39481 
L 112.385837 139.39481 
L 112.385837 137.851551 
L 112.790402 137.851551 
L 112.790402 132.746927 
L 113.186449 132.746927 
L 113.186449 129.304273 
L 113.57433 129.304273 
L 113.57433 125.030634 
L 113.954374 125.030634 
L 113.954374 119.688585 
L 114.326893 119.688585 
L 114.326893 114.821385 
L 114.692177 114.821385 
L 114.692177 111.497444 
L 115.050503 111.497444 
L 115.050503 110.666459 
L 115.402131 110.666459 
L 115.402131 107.579941 
L 115.747307 107.579941 
L 115.747307 106.155395 
L 116.086263 106.155395 
L 116.086263 103.899863 
L 116.419219 103.899863 
L 116.419219 100.45721 
L 116.746385 100.45721 
L 116.746385 97.845541 
L 117.067958 97.845541 
L 117.067958 94.996449 
L 117.384126 94.996449 
L 117.384126 91.197659 
L 117.695068 91.197659 
L 117.695068 88.111141 
L 118.000953 88.111141 
L 118.000953 85.618185 
L 118.301945 85.618185 
L 118.301945 82.412956 
L 118.598196 82.412956 
L 118.598196 80.98841 
L 118.889854 80.98841 
L 118.889854 79.326439 
L 119.177058 79.326439 
L 119.177058 75.646361 
L 119.459944 75.646361 
L 119.459944 72.91598 
L 119.738639 72.91598 
L 119.738639 71.966283 
L 120.013265 71.966283 
L 120.013265 69.11719 
L 120.28394 69.11719 
L 120.28394 68.404917 
L 120.550775 68.404917 
L 120.550775 66.980371 
L 120.813877 66.980371 
L 120.813877 64.131278 
L 121.073351 64.131278 
L 121.073351 61.638322 
L 121.329295 61.638322 
L 121.329295 59.501502 
L 121.581803 59.501502 
L 121.581803 58.670517 
L 121.830966 58.670517 
L 121.830966 58.551805 
L 122.076872 58.551805 
L 122.076872 56.533698 
L 122.319605 56.533698 
L 122.319605 55.109151 
L 122.559246 55.109151 
L 122.559246 54.634302 
L 122.795872 54.634302 
L 122.795872 53.684605 
L 123.029559 53.684605 
L 123.029559 51.429073 
L 123.260379 51.429073 
L 123.260379 50.598088 
L 123.4884 50.598088 
L 123.4884 49.885815 
L 123.713691 49.885815 
L 123.713691 46.799298 
L 123.936316 46.799298 
L 123.936316 46.443161 
L 124.373813 46.443161 
L 124.373813 46.205737 
L 124.588805 46.205737 
L 124.588805 44.78119 
L 124.801367 44.78119 
L 124.801367 44.662478 
L 125.011554 44.662478 
L 125.011554 43.356644 
L 125.219419 43.356644 
L 125.219419 43.000507 
L 125.425011 43.000507 
L 125.425011 42.644371 
L 125.829577 42.644371 
L 125.829577 42.288234 
L 126.028642 42.288234 
L 126.028642 41.813385 
L 126.225624 41.813385 
L 126.225624 41.457249 
L 126.420564 41.457249 
L 126.420564 40.270127 
L 126.613505 40.270127 
L 126.613505 40.151415 
L 126.804487 40.151415 
L 126.804487 40.032702 
L 126.993549 40.032702 
L 126.993549 39.676566 
L 127.18073 39.676566 
L 127.18073 39.557854 
L 127.731351 39.557854 
L 127.731351 38.964293 
L 128.089678 38.964293 
L 128.089678 38.84558 
L 128.441306 38.84558 
L 128.441306 38.726868 
L 128.786481 38.726868 
L 128.786481 38.608156 
L 129.78556 38.608156 
L 129.78556 38.489444 
L 131.489828 38.489444 
L 131.489828 38.370732 
L 132.073179 38.370732 
L 132.073179 38.25202 
L 132.499119 38.25202 
L 132.499119 38.133307 
L 133.05244 38.133307 
L 133.05244 38.014595 
L 136.184497 38.014595 
L 136.184497 37.895883 
L 137.412988 37.895883 
L 137.412988 37.777171 
L 138.36167 37.777171 
L 138.36167 37.658459 
L 139.362521 37.658459 
L 139.362521 37.539746 
L 141.910969 37.539746 
L 141.910969 37.421034 
L 145.040416 37.421034 
L 145.040416 37.302322 
L 149.049758 37.302322 
L 149.049758 37.18361 
L 149.903682 37.18361 
L 149.903682 37.064898 
L 153.212458 37.064898 
L 153.305585 36.827473 
L 154.432362 36.827473 
L 154.432362 36.708761 
L 157.382107 36.708761 
L 157.382107 36.590049 
L 157.898535 36.590049 
L 157.898535 36.471337 
L 158.959618 36.471337 
L 158.993977 36.233912 
L 161.071844 36.233912 
L 161.071844 36.1152 
L 163.136649 36.1152 
L 163.136649 35.996488 
L 163.27386 35.996488 
L 163.27386 35.877776 
L 164.796406 35.877776 
L 164.796406 35.759063 
L 165.586508 35.759063 
L 165.586508 35.640351 
L 166.437427 35.640351 
L 166.437427 35.521639 
L 166.552624 35.521639 
L 166.552624 35.402927 
L 166.8036 35.402927 
L 166.8036 35.284215 
L 167.185004 35.284215 
L 167.185004 35.165502 
L 167.624034 35.165502 
L 167.624034 35.04679 
L 169.104709 35.04679 
L 169.104709 34.928078 
L 170.800764 34.928078 
L 170.83738 33.97838 
L 170.92861 33.97838 
L 171.0194 33.028683 
L 171.055593 33.028683 
L 171.163758 30.773151 
L 171.181725 30.773151 
L 171.253422 27.686634 
L 171.307016 27.686634 
L 171.413749 27.093073 
L 171.431479 27.093073 
L 171.537509 22.819434 
L 171.642946 22.819434 
L 171.747795 20.326478 
L 171.782615 20.326478 
L 171.782615 19.258068 
L 171.90398 19.258068 
L 172.007388 17.002537 
L 172.024567 17.002537 
L 172.093129 15.934127 
L 172.263447 15.934127 
L 172.280395 15.221854 
L 173.50981 15.221854 
L 173.50981 15.103141 
L 176.00289 15.103141 
L 176.00289 14.984429 
L 178.619637 14.984429 
L 178.619637 14.865717 
L 181.118716 14.865717 
L 181.118716 14.747005 
L 183.314974 14.747005 
L 183.314974 14.628293 
L 183.614096 14.628293 
L 183.71583 14.390868 
L 183.807841 14.390868 
L 183.807841 14.272156 
L 188.849983 14.272156 
L 188.849983 14.153444 
L 191.470421 14.153444 
L 191.549653 13.203746 
L 191.634609 13.203746 
L 191.701091 11.7792 
L 196.51832 11.7792 
L 196.583589 10.948215 
L 196.643995 10.948215 
L 196.755005 9.286244 
L 196.77805 9.286244 
L 196.851604 6.912 
L 360.8064 6.912 
L 360.8064 6.912 
" style="fill:none;stroke:#000080;stroke-linecap:square;stroke-width:1.5;"/>
   </g>
   <g id="line2d_31">
    <defs>
     <path d="M 0 6 
C 1.591219 6 3.117479 5.367802 4.242641 4.242641 
C 5.367802 3.117479 6 1.591219 6 0 
C 6 -1.591219 5.367802 -3.117479 4.242641 -4.242641 
C 3.117479 -5.367802 1.591219 -6 0 -6 
C -1.591219 -6 -3.117479 -5.367802 -4.242641 -4.242641 
C -5.367802 -3.117479 -6 -1.591219 -6 0 
C -6 1.591219 -5.367802 3.117479 -4.242641 4.242641 
C -3.117479 5.367802 -1.591219 6 0 6 
z
" id="mb2d133c7e3" style="stroke:#000080;stroke-width:1.5;"/>
    </defs>
    <g>
     <use style="fill-opacity:0;stroke:#000080;stroke-width:1.5;" x="117.695068" xlink:href="#mb2d133c7e3" y="91.197659"/>
     <use style="fill-opacity:0;stroke:#000080;stroke-width:1.5;" x="172.076012" xlink:href="#mb2d133c7e3" y="16.883824"/>
     <use style="fill-opacity:0;stroke:#000080;stroke-width:1.5;" x="196.851604" xlink:href="#mb2d133c7e3" y="6.912"/>
     <use style="fill-opacity:0;stroke:#000080;stroke-width:1.5;" x="196.851604" xlink:href="#mb2d133c7e3" y="6.912"/>
     <use style="fill-opacity:0;stroke:#000080;stroke-width:1.5;" x="360.8064" xlink:href="#mb2d133c7e3" y="6.912"/>
    </g>
   </g>
   <g id="line2d_32">
    <path style="fill:none;stroke:#000080;stroke-linecap:square;stroke-width:1.5;"/>
    <g/>
   </g>
   <g id="line2d_33">
    <defs>
     <path d="M 0 1.5 
C 0.397805 1.5 0.77937 1.341951 1.06066 1.06066 
C 1.341951 0.77937 1.5 0.397805 1.5 0 
C 1.5 -0.397805 1.341951 -0.77937 1.06066 -1.06066 
C 0.77937 -1.341951 0.397805 -1.5 0 -1.5 
C -0.397805 -1.5 -0.77937 -1.341951 -1.06066 -1.06066 
C -1.341951 -0.77937 -1.5 -0.397805 -1.5 0 
C -1.5 0.397805 -1.341951 0.77937 -1.06066 1.06066 
C -0.77937 1.341951 -0.397805 1.5 0 1.5 
z
" id="md733f0d15a" style="stroke:#ff00ff;"/>
    </defs>
    <g>
     <use style="fill:#ff00ff;stroke:#ff00ff;" x="230.975576" xlink:href="#md733f0d15a" y="6.912"/>
     <use style="fill:#ff00ff;stroke:#ff00ff;" x="230.975576" xlink:href="#md733f0d15a" y="6.912"/>
    </g>
   </g>
   <g id="line2d_34">
    <path d="M 76.96874 298.944 
L 76.96874 293.958088 
L 88.613828 293.958088 
L 88.613828 288.497327 
L 95.752617 288.497327 
L 95.752617 283.630127 
L 100.9152 283.630127 
L 100.9152 271.521483 
L 101.653002 271.521483 
L 101.653002 270.927922 
L 104.961779 270.927922 
L 104.961779 266.298146 
L 105.559021 266.298146 
L 105.559021 264.992312 
L 106.137884 264.992312 
L 106.137884 264.8736 
L 106.699465 264.8736 
L 106.699465 263.449054 
L 108.29012 263.449054 
L 108.29012 258.581854 
L 108.791791 258.581854 
L 108.791791 257.27602 
L 109.280431 257.27602 
L 109.280431 256.682459 
L 109.756698 256.682459 
L 109.756698 255.495337 
L 110.674517 255.495337 
L 110.674517 254.901776 
L 111.117162 254.901776 
L 111.117162 252.052683 
L 111.54963 252.052683 
L 111.54963 251.696546 
L 111.97238 251.696546 
L 111.97238 250.746849 
L 112.385837 250.746849 
L 112.385837 250.034576 
L 112.790402 250.034576 
L 112.790402 249.678439 
L 113.186449 249.678439 
L 113.186449 249.084878 
L 113.57433 249.084878 
L 113.57433 246.47321 
L 113.954374 246.47321 
L 113.954374 245.879649 
L 114.326893 245.879649 
L 114.326893 243.505405 
L 114.692177 243.505405 
L 114.692177 242.793132 
L 115.050503 242.793132 
L 115.050503 241.843434 
L 115.402131 241.843434 
L 115.402131 241.487298 
L 115.747307 241.487298 
L 115.747307 235.432976 
L 116.086263 235.432976 
L 116.086263 235.195551 
L 116.419219 235.195551 
L 116.419219 234.958127 
L 116.746385 234.958127 
L 116.746385 234.008429 
L 117.384126 234.008429 
L 117.384126 233.296156 
L 117.695068 233.296156 
L 117.695068 228.191532 
L 118.000953 228.191532 
L 118.000953 227.716683 
L 118.301945 227.716683 
L 118.301945 227.00441 
L 118.598196 227.00441 
L 118.598196 226.766985 
L 118.74459 226.766985 
L 118.74459 226.410849 
L 118.889854 226.410849 
L 118.889854 225.817288 
L 119.177058 225.817288 
L 119.177058 225.342439 
L 119.459944 225.342439 
L 119.459944 221.543649 
L 119.738639 221.543649 
L 119.738639 221.0688 
L 120.013265 221.0688 
L 120.013265 220.712663 
L 120.28394 220.712663 
L 120.28394 220.356527 
L 120.550775 220.356527 
L 120.550775 220.119102 
L 120.682786 220.119102 
L 120.682786 220.00039 
L 120.813877 220.00039 
L 120.813877 219.288117 
L 121.073351 219.288117 
L 121.073351 215.251902 
L 121.329295 215.251902 
L 121.329295 214.302205 
L 121.581803 214.302205 
L 121.581803 213.352507 
L 121.706797 213.352507 
L 121.706797 213.233795 
L 121.830966 213.233795 
L 121.830966 211.215688 
L 122.319605 211.215688 
L 122.319605 210.622127 
L 122.439807 210.622127 
L 122.439807 210.503415 
L 122.559246 210.503415 
L 122.559246 205.161366 
L 122.795872 205.161366 
L 122.795872 203.974244 
L 123.029559 203.974244 
L 123.029559 202.430985 
L 123.260379 202.430985 
L 123.260379 201.125151 
L 123.4884 201.125151 
L 123.4884 200.769015 
L 123.713691 200.769015 
L 123.713691 199.700605 
L 123.936316 199.700605 
L 124.046648 197.088937 
L 124.156336 197.088937 
L 124.156336 196.495376 
L 124.373813 196.495376 
L 124.373813 195.66439 
L 124.588805 195.66439 
L 124.695386 194.239844 
L 124.801367 194.239844 
L 124.801367 193.764995 
L 125.219419 193.764995 
L 125.219419 191.390751 
L 125.425011 191.390751 
L 125.425011 190.915902 
L 125.628382 190.915902 
L 125.628382 190.203629 
L 125.829577 190.203629 
L 125.829577 190.084917 
L 126.028642 190.084917 
L 126.028642 188.779083 
L 126.225624 188.779083 
L 126.323346 187.710673 
L 126.420564 187.710673 
L 126.420564 186.286127 
L 126.804487 186.286127 
L 126.804487 186.048702 
L 126.993549 186.048702 
L 126.993549 185.336429 
L 127.18073 185.336429 
L 127.18073 184.624156 
L 127.366067 184.624156 
L 127.366067 183.437034 
L 127.549596 183.437034 
L 127.549596 179.875668 
L 127.731351 179.875668 
L 127.731351 178.33241 
L 127.911368 178.33241 
L 127.911368 177.857561 
L 128.266313 177.857561 
L 128.266313 177.738849 
L 128.441306 177.738849 
L 128.441306 177.264 
L 128.614685 177.264 
L 128.614685 172.752937 
L 128.786481 172.752937 
L 128.786481 171.32839 
L 128.956723 171.32839 
L 128.956723 169.785132 
L 129.125437 169.785132 
L 129.209231 169.547707 
L 129.458394 169.547707 
L 129.458394 169.310283 
L 129.622688 169.310283 
L 129.622688 167.5296 
L 129.78556 167.5296 
L 129.78556 165.748917 
L 129.947033 165.748917 
L 129.947033 163.374673 
L 130.265881 163.374673 
L 130.265881 163.137249 
L 130.4233 163.137249 
L 130.4233 163.018537 
L 130.579414 163.018537 
L 130.579414 162.187551 
L 130.734242 162.187551 
L 130.734242 158.151337 
L 130.887807 158.151337 
L 130.964122 156.370654 
L 131.040128 156.370654 
L 131.040128 155.420956 
L 131.191226 155.420956 
L 131.191226 154.946107 
L 131.341119 154.946107 
L 131.341119 154.708683 
L 131.489828 154.708683 
L 131.489828 154.352546 
L 131.63737 154.352546 
L 131.63737 151.503454 
L 131.783764 151.503454 
L 131.856536 150.672468 
L 131.929028 150.672468 
L 132.001241 150.19762 
L 132.073179 150.19762 
L 132.073179 149.722771 
L 132.216233 149.722771 
L 132.216233 149.485346 
L 132.358208 149.485346 
L 132.358208 147.467239 
L 132.499119 147.467239 
L 132.499119 146.161405 
L 132.638982 146.161405 
L 132.708526 145.805268 
L 132.777813 145.805268 
L 132.777813 145.686556 
L 132.915628 145.686556 
L 132.915628 144.974283 
L 133.188264 144.974283 
L 133.188264 144.143298 
L 133.323114 144.143298 
L 133.323114 143.1936 
L 133.457005 143.1936 
L 133.523594 142.718751 
L 133.853052 142.718751 
L 133.853052 142.600039 
L 133.983236 142.600039 
L 133.983236 140.819356 
L 134.240933 140.819356 
L 134.304809 139.632234 
L 134.431915 139.632234 
L 134.495147 139.157385 
L 134.558167 139.157385 
L 134.620977 138.445112 
L 134.745971 138.445112 
L 134.745971 136.070868 
L 134.87014 136.070868 
L 134.87014 134.646322 
L 134.993495 134.646322 
L 134.993495 134.052761 
L 135.116046 134.052761 
L 135.177024 133.696624 
L 135.237805 133.696624 
L 135.237805 133.4592 
L 135.35878 133.4592 
L 135.35878 132.746927 
L 135.478982 132.746927 
L 135.478982 129.066849 
L 135.59842 129.066849 
L 135.59842 128.592 
L 135.717106 128.592 
L 135.717106 127.048741 
L 135.835047 127.048741 
L 135.893741 126.811317 
L 135.952253 126.811317 
L 135.952253 126.573893 
L 136.068734 126.573893 
L 136.068734 125.86162 
L 136.184497 125.86162 
L 136.184497 124.555785 
L 136.299553 124.555785 
L 136.356818 124.318361 
L 136.527575 124.318361 
L 136.584151 124.080937 
L 136.752866 124.080937 
L 136.752866 123.249951 
L 136.864507 123.249951 
L 136.97549 122.537678 
L 137.085822 122.537678 
L 137.085822 122.181541 
L 137.304564 122.181541 
L 137.412988 121.706693 
L 137.520791 121.706693 
L 137.627979 120.875707 
L 137.734561 120.875707 
L 137.734561 120.638283 
L 137.945929 120.638283 
L 138.050729 120.400859 
L 138.154948 120.400859 
L 138.258593 118.976312 
L 138.36167 118.976312 
L 138.464186 118.264039 
L 138.768422 118.264039 
L 138.868751 117.076917 
L 138.918715 117.076917 
L 138.918715 116.958205 
L 139.067817 116.958205 
L 139.166565 116.245932 
L 139.264798 116.245932 
L 139.362521 115.533659 
L 139.459738 115.533659 
L 139.556456 113.871688 
L 139.748412 113.871688 
L 139.748412 113.752976 
L 139.93843 113.752976 
L 140.032723 112.92199 
L 140.126547 112.92199 
L 140.219905 111.85358 
L 140.359078 111.85358 
L 140.405242 111.497444 
L 140.49723 111.497444 
L 140.58877 109.598049 
L 140.679868 109.598049 
L 140.770526 108.767063 
L 140.950542 108.767063 
L 141.039908 107.579941 
L 141.084433 107.579941 
L 141.128852 107.105093 
L 141.217377 107.105093 
L 141.305488 106.511532 
L 141.393187 106.511532 
L 141.393187 106.155395 
L 141.56737 106.155395 
L 141.65386 105.086985 
L 141.739954 105.086985 
L 141.782854 104.018576 
L 141.910969 104.018576 
L 141.995897 103.425015 
L 142.080444 103.425015 
L 142.164612 102.950166 
L 142.248405 102.950166 
L 142.248405 102.475317 
L 142.373399 102.475317 
L 142.373399 102.356605 
L 142.579895 102.356605 
L 142.661862 100.575922 
L 142.743475 100.575922 
L 142.824734 100.219785 
L 143.066428 100.219785 
L 143.146307 99.032663 
L 143.225848 99.032663 
L 143.305055 98.676527 
L 143.540694 98.676527 
L 143.540694 98.32039 
L 143.773417 98.32039 
L 143.811926 97.845541 
L 143.926981 97.845541 
L 144.003296 96.777132 
L 144.079302 96.777132 
L 144.117191 95.115161 
L 144.2304 95.115161 
L 144.2304 94.759024 
L 144.417581 94.759024 
L 144.454795 93.809327 
L 144.529002 93.809327 
L 144.529002 93.690615 
L 144.676545 93.690615 
L 144.676545 93.571902 
L 144.822939 93.571902 
L 144.895711 92.740917 
L 144.968202 92.740917 
L 145.040416 91.909932 
L 145.112353 91.909932 
L 145.112353 91.79122 
L 145.255407 91.79122 
L 145.326529 89.6544 
L 145.432709 89.6544 
L 145.46797 89.298263 
L 145.678157 89.298263 
L 145.782376 87.042732 
L 145.816988 87.042732 
L 145.920443 86.211746 
L 145.954802 86.211746 
L 146.057504 85.618185 
L 146.091614 85.618185 
L 146.159649 84.074927 
L 146.227438 84.074927 
L 146.227438 83.956215 
L 146.362288 83.956215 
L 146.362288 82.887805 
L 146.562769 82.887805 
L 146.629123 82.05682 
L 146.761135 82.05682 
L 146.761135 81.581971 
L 147.022411 81.581971 
L 147.119461 80.632273 
L 147.1517 80.632273 
L 147.1517 80.513561 
L 147.471089 80.513561 
L 147.471089 80.394849 
L 147.597342 80.394849 
L 147.660152 79.92 
L 147.722752 79.92 
L 147.785146 79.207727 
L 148.001907 79.207727 
L 148.094045 78.85159 
L 148.246613 78.85159 
L 148.276979 78.376741 
L 148.397954 78.376741 
L 148.488177 78.139317 
L 148.607806 78.139317 
L 148.697031 77.901893 
L 148.991428 77.901893 
L 148.991428 77.78318 
L 149.223672 77.78318 
L 149.223672 77.545756 
L 149.453084 77.545756 
L 149.510002 77.308332 
L 149.566749 77.308332 
L 149.623325 76.239922 
L 149.903682 76.239922 
L 150.014665 75.883785 
L 150.124997 75.883785 
L 150.234685 75.646361 
L 150.479171 75.646361 
L 150.506141 75.171512 
L 150.667154 75.171512 
L 150.667154 74.934088 
L 150.932483 74.934088 
L 150.985103 73.98439 
L 151.246016 73.98439 
L 151.27191 73.153405 
L 151.554409 73.153405 
L 151.554409 72.32242 
L 151.857828 72.32242 
L 151.857828 71.728859 
L 152.15643 71.728859 
L 152.20574 71.25401 
L 152.498913 71.25401 
L 152.498913 70.897873 
L 152.739781 70.897873 
L 152.739781 70.660449 
L 153.212458 70.660449 
L 153.212458 69.829463 
L 154.388563 69.829463 
L 154.388563 69.710751 
L 154.606544 69.710751 
L 154.606544 69.473327 
L 154.73613 69.473327 
L 154.73613 69.354615 
L 155.035072 69.354615 
L 155.035072 68.998478 
L 155.203786 68.998478 
L 155.203786 68.761054 
L 155.412574 68.761054 
L 155.495444 67.811356 
L 155.741887 67.811356 
L 155.823323 67.573932 
L 155.904407 67.573932 
L 155.944819 66.980371 
L 156.025382 66.980371 
L 156.105602 66.742946 
L 156.145584 66.742946 
L 156.145584 66.624234 
L 156.774003 66.624234 
L 156.774003 66.38681 
L 157.118477 66.38681 
L 157.156365 65.674537 
L 157.382107 65.674537 
L 157.382107 65.555824 
L 157.605171 65.555824 
L 157.605171 64.606127 
L 157.770751 64.606127 
L 157.770751 64.487415 
L 158.294582 64.487415 
L 158.294582 64.368702 
L 158.507144 64.368702 
L 158.507144 63.775141 
L 158.752135 63.775141 
L 158.752135 63.537717 
L 158.993977 63.537717 
L 158.993977 62.944156 
L 159.300416 62.944156 
L 159.300416 62.706732 
L 159.50197 62.706732 
L 159.50197 62.469307 
L 159.898714 62.469307 
L 159.898714 62.350595 
L 160.093991 62.350595 
L 160.093991 61.875746 
L 160.319282 61.875746 
L 160.319282 61.757034 
L 160.605032 61.757034 
L 160.636516 61.51961 
L 160.855439 61.51961 
L 160.855439 61.400898 
L 161.316153 61.400898 
L 161.316153 61.282185 
L 161.527352 61.282185 
L 161.527352 61.163473 
L 161.736206 61.163473 
L 161.736206 61.044761 
L 161.942766 61.044761 
L 162.001369 60.688624 
L 162.11803 60.688624 
L 162.17609 60.213776 
L 162.377902 60.213776 
L 162.377902 60.095063 
L 162.6625 60.095063 
L 162.747046 59.857639 
L 162.831214 59.857639 
L 162.901068 59.501502 
L 163.026155 59.501502 
L 163.026155 59.264078 
L 163.191653 59.264078 
L 163.191653 58.907941 
L 163.328465 58.907941 
L 163.328465 58.670517 
L 163.59914 58.670517 
L 163.59914 58.076956 
L 163.892451 58.076956 
L 163.892451 57.602107 
L 164.142137 57.602107 
L 164.207296 57.008546 
L 165.993131 57.008546 
L 165.993131 56.889834 
L 166.689935 56.889834 
L 166.689935 56.771122 
L 168.923343 56.771122 
L 168.923343 56.65241 
L 169.164778 56.65241 
L 169.164778 56.533698 
L 170.024438 56.533698 
L 170.081645 56.296273 
L 170.514546 56.296273 
L 170.514546 56.177561 
L 170.955893 56.177561 
L 170.955893 56.058849 
L 172.390182 56.058849 
L 172.390182 55.940137 
L 172.574528 55.940137 
L 172.574528 55.346576 
L 173.278305 55.346576 
L 173.278305 55.227863 
L 173.910154 55.227863 
L 173.910154 55.109151 
L 174.355328 55.109151 
L 174.415913 54.871727 
L 174.834629 54.871727 
L 174.834629 54.753015 
L 175.88438 54.753015 
L 175.88438 54.634302 
L 176.503464 54.634302 
L 176.503464 54.51559 
L 178.698081 54.51559 
L 178.698081 54.396878 
L 179.126718 54.396878 
L 179.126718 54.278166 
L 179.314132 54.278166 
L 179.314132 54.159454 
L 179.441905 54.159454 
L 179.522765 53.922029 
L 179.557313 53.922029 
L 179.614753 53.684605 
L 179.955757 53.684605 
L 179.955757 53.565893 
L 180.587114 53.565893 
L 180.619764 53.091044 
L 180.803715 53.091044 
L 180.803715 52.972332 
L 181.0072 52.972332 
L 181.0072 52.85362 
L 181.635707 52.85362 
L 181.635707 52.734907 
L 182.852352 52.734907 
L 182.852352 52.616195 
L 185.19209 52.616195 
L 185.19209 52.497483 
L 185.571964 52.497483 
L 185.571964 52.260059 
L 185.763199 52.260059 
L 185.763199 52.141346 
L 186.236984 52.141346 
L 186.34156 50.7168 
L 186.349581 50.7168 
L 186.389631 50.360663 
L 186.972615 50.360663 
L 187.042302 50.123239 
L 187.242181 50.123239 
L 187.242181 49.885815 
L 187.379326 49.885815 
L 187.470203 48.342556 
L 187.515477 48.342556 
L 187.515477 48.223844 
L 187.803424 48.223844 
L 187.803424 48.105132 
L 187.921806 48.105132 
L 187.995418 47.511571 
L 188.039448 47.511571 
L 188.134493 46.680585 
L 188.185473 46.680585 
L 188.258062 46.324449 
L 188.308709 46.324449 
L 188.41678 45.493463 
L 188.43832 45.493463 
L 188.531376 44.187629 
L 188.570607 44.187629 
L 188.680731 43.000507 
L 188.684273 43.000507 
L 188.793735 40.626263 
L 188.954998 40.626263 
L 189.024683 40.270127 
L 189.066371 40.270127 
L 189.156378 39.201717 
L 189.183987 39.201717 
L 189.183987 38.84558 
L 189.386356 38.84558 
L 189.491819 38.133307 
L 189.498603 38.133307 
L 189.583195 36.1152 
L 189.613555 36.1152 
L 189.680847 35.284215 
L 189.798033 35.284215 
L 189.894579 34.809366 
L 190.089485 34.809366 
L 190.17801 34.097093 
L 190.20416 34.097093 
L 190.230274 33.622244 
L 190.668746 33.622244 
L 190.668746 33.503532 
L 190.984755 33.503532 
L 191.084767 32.909971 
L 191.1128 32.909971 
L 191.1128 32.791259 
L 191.25234 32.791259 
L 191.350943 32.31641 
L 191.540528 32.31641 
L 191.601279 32.078985 
L 191.836351 32.078985 
L 191.943863 31.841561 
L 192.044841 31.841561 
L 192.151171 30.773151 
L 192.209985 30.773151 
L 192.209985 30.654439 
L 192.327064 30.654439 
L 192.362046 30.17959 
L 193.845581 30.17959 
L 193.931515 29.942166 
L 194.574168 29.942166 
L 194.594871 29.586029 
L 195.009284 29.586029 
L 195.024459 29.348605 
L 196.945428 29.348605 
L 197.022879 28.755044 
L 197.208372 28.755044 
L 197.208372 28.636332 
L 197.454366 28.636332 
L 197.454366 28.51762 
L 198.403158 28.51762 
L 198.403158 28.398907 
L 200.005971 28.398907 
L 200.036984 27.924059 
L 200.31001 27.924059 
L 200.340527 27.686634 
L 200.446946 27.686634 
L 200.541458 26.499512 
L 200.571602 26.499512 
L 200.571602 26.3808 
L 200.88708 26.3808 
L 200.992301 25.905951 
L 201.071291 25.905951 
L 201.170021 24.956254 
L 201.184603 24.956254 
L 201.235553 24.362693 
L 201.398394 24.362693 
L 201.437986 24.125268 
L 201.543754 24.125268 
L 201.652487 22.58201 
L 201.656041 22.58201 
L 201.728758 21.5136 
L 201.767662 21.5136 
L 201.767662 21.394888 
L 201.941738 21.394888 
L 201.955735 21.038751 
L 202.257615 21.038751 
L 202.295441 20.801327 
L 202.377707 20.801327 
L 202.445988 20.44519 
L 202.696497 20.44519 
L 202.696497 20.326478 
L 202.90717 20.326478 
L 203.018241 20.089054 
L 203.023199 20.089054 
L 203.125373 19.495493 
L 203.141801 19.495493 
L 203.161495 19.139356 
L 204.433094 19.139356 
L 204.451483 18.664507 
L 204.573617 18.664507 
L 204.573617 18.545795 
L 204.707054 18.545795 
L 204.707054 18.427083 
L 205.935284 18.427083 
L 205.935284 18.308371 
L 208.184592 18.308371 
L 208.214711 17.239961 
L 208.457653 17.239961 
L 208.546567 16.765112 
L 208.611751 16.765112 
L 208.659572 16.171551 
L 208.867827 16.171551 
L 208.968084 15.459278 
L 209.171778 15.459278 
L 209.171778 15.340566 
L 209.600644 15.340566 
L 209.600644 15.221854 
L 209.859783 15.221854 
L 209.969759 14.628293 
L 209.983461 14.628293 
L 209.985743 14.390868 
L 212.029835 14.390868 
L 212.029835 14.272156 
L 212.340525 14.272156 
L 212.340525 14.153444 
L 213.530601 14.153444 
L 213.634292 13.322459 
L 213.649327 13.322459 
L 213.649327 13.085034 
L 213.807405 13.085034 
L 213.865066 12.84761 
L 213.929956 12.84761 
L 213.965088 12.372761 
L 214.157152 12.372761 
L 214.196426 11.7792 
L 214.341844 11.7792 
L 214.370793 11.541776 
L 214.590078 11.541776 
L 214.60169 11.066927 
L 214.944122 11.066927 
L 214.968657 10.473366 
L 217.820121 10.473366 
L 217.847192 9.998517 
L 218.0021 9.998517 
L 218.0021 9.879805 
L 218.267035 9.879805 
L 218.302275 9.523668 
L 218.400306 9.523668 
L 218.416352 9.167532 
L 218.604955 9.167532 
L 218.604955 9.04882 
L 218.837367 9.04882 
L 218.919884 8.692683 
L 219.479314 8.692683 
L 219.479314 8.573971 
L 221.246987 8.573971 
L 221.246987 8.455259 
L 221.467715 8.455259 
L 221.467715 8.336546 
L 221.596211 8.336546 
L 221.644785 8.099122 
L 222.633993 8.099122 
L 222.637489 7.861698 
L 223.294598 7.861698 
L 223.294598 7.742985 
L 224.166234 7.742985 
L 224.166234 7.624273 
L 224.479394 7.624273 
L 224.479394 7.505561 
L 224.592611 7.505561 
L 224.592611 7.386849 
L 225.360053 7.386849 
L 225.360053 7.268137 
L 226.681456 7.268137 
L 226.681456 7.149424 
L 229.000477 7.149424 
L 229.000477 7.030712 
L 230.975576 7.030712 
L 230.975576 6.912 
L 360.8064 6.912 
L 360.8064 6.912 
" style="fill:none;stroke:#ff00ff;stroke-linecap:square;stroke-width:1.5;"/>
   </g>
   <g id="line2d_35">
    <defs>
     <path d="M -0 8.485281 
L 5.091169 0 
L 0 -8.485281 
L -5.091169 -0 
z
" id="mf203cc9720" style="stroke:#ff00ff;stroke-linejoin:miter;stroke-width:1.5;"/>
    </defs>
    <g>
     <use style="fill-opacity:0;stroke:#ff00ff;stroke-linejoin:miter;stroke-width:1.5;" x="140.219905" xlink:href="#mf203cc9720" y="112.091005"/>
     <use style="fill-opacity:0;stroke:#ff00ff;stroke-linejoin:miter;stroke-width:1.5;" x="198.403158" xlink:href="#mf203cc9720" y="28.398907"/>
     <use style="fill-opacity:0;stroke:#ff00ff;stroke-linejoin:miter;stroke-width:1.5;" x="230.975576" xlink:href="#mf203cc9720" y="6.912"/>
     <use style="fill-opacity:0;stroke:#ff00ff;stroke-linejoin:miter;stroke-width:1.5;" x="230.975576" xlink:href="#mf203cc9720" y="6.912"/>
     <use style="fill-opacity:0;stroke:#ff00ff;stroke-linejoin:miter;stroke-width:1.5;" x="360.8064" xlink:href="#mf203cc9720" y="6.912"/>
    </g>
   </g>
   <g id="line2d_36">
    <path style="fill:none;stroke:#ff00ff;stroke-linecap:square;stroke-width:1.5;"/>
    <g/>
   </g>
   <g id="line2d_37">
    <path clip-path="url(#p7b9283537f)" d="M 187.58694 48.223844 
" style="fill:none;stroke:#ff00ff;stroke-linecap:square;stroke-width:1.5;"/>
    <defs>
     <path d="M -12 12 
L 12 -12 
M -12 -12 
L 12 12 
" id="m06578f851e" style="stroke:#ff00ff;"/>
    </defs>
    <g clip-path="url(#p7b9283537f)">
     <use style="fill:#ff00ff;stroke:#ff00ff;" x="187.58694" xlink:href="#m06578f851e" y="48.223844"/>
    </g>
   </g>
   <g id="line2d_38">
    <defs>
     <path d="M 0 1.5 
C 0.397805 1.5 0.77937 1.341951 1.06066 1.06066 
C 1.341951 0.77937 1.5 0.397805 1.5 0 
C 1.5 -0.397805 1.341951 -0.77937 1.06066 -1.06066 
C 0.77937 -1.341951 0.397805 -1.5 0 -1.5 
C -0.397805 -1.5 -0.77937 -1.341951 -1.06066 -1.06066 
C -1.341951 -0.77937 -1.5 -0.397805 -1.5 0 
C -1.5 0.397805 -1.341951 0.77937 -1.06066 1.06066 
C -0.77937 1.341951 -0.397805 1.5 0 1.5 
z
" id="mdd7f1eebbf" style="stroke:#ff7500;"/>
    </defs>
    <g>
     <use style="fill:#ff7500;stroke:#ff7500;" x="225.777257" xlink:href="#mdd7f1eebbf" y="6.912"/>
     <use style="fill:#ff7500;stroke:#ff7500;" x="225.777257" xlink:href="#mdd7f1eebbf" y="6.912"/>
    </g>
   </g>
   <g id="line2d_39">
    <path d="M 80.621116 298.944 
L 80.621116 248.491317 
L 82.713442 248.491317 
L 82.713442 247.304195 
L 83.678349 247.304195 
L 83.678349 246.829346 
L 84.596168 246.829346 
L 84.596168 246.591922 
L 86.307488 246.591922 
L 86.307488 246.235785 
L 91.305777 246.235785 
L 91.305777 216.913873 
L 92.519847 216.913873 
L 92.519847 216.676449 
L 93.66029 216.676449 
L 93.66029 216.2016 
L 98.077987 216.2016 
L 98.077987 187.235824 
L 98.933205 187.235824 
L 98.933205 186.286127 
L 103.047088 186.286127 
L 103.047088 160.050732 
L 103.707211 160.050732 
L 103.707211 158.270049 
L 104.028784 158.270049 
L 104.028784 157.913912 
L 104.344952 157.913912 
L 104.344952 157.676488 
L 104.655893 157.676488 
L 104.655893 157.557776 
L 104.961779 157.557776 
L 104.961779 157.320351 
L 106.974091 157.320351 
L 106.974091 152.453151 
L 107.5116 152.453151 
L 107.5116 151.978302 
L 107.774703 151.978302 
L 107.774703 151.85959 
L 108.034177 151.85959 
L 108.034177 151.266029 
L 108.29012 151.266029 
L 108.29012 151.028605 
L 108.542628 151.028605 
L 108.542628 150.19762 
L 109.037698 150.19762 
L 109.037698 149.960195 
L 110.221204 149.960195 
L 110.221204 144.380722 
L 110.674517 144.380722 
L 110.674517 142.718751 
L 111.117162 142.718751 
L 111.117162 141.887766 
L 111.334639 141.887766 
L 111.334639 141.769054 
L 111.54963 141.769054 
L 111.54963 141.175493 
L 111.97238 141.175493 
L 111.97238 140.938068 
L 112.989468 140.938068 
L 112.989468 137.495415 
L 113.381389 137.495415 
L 113.381389 134.883746 
L 113.765312 134.883746 
L 113.765312 133.815337 
L 114.141556 133.815337 
L 114.141556 133.221776 
L 114.326893 133.221776 
L 114.326893 132.746927 
L 114.510421 132.746927 
L 114.510421 131.915941 
L 115.402131 131.915941 
L 115.402131 128.592 
L 115.747307 128.592 
L 115.747307 126.336468 
L 116.086263 126.336468 
L 116.086263 125.505483 
L 116.253478 125.505483 
L 116.253478 125.030634 
L 116.419219 125.030634 
L 116.419219 124.674498 
L 116.746385 124.674498 
L 116.746385 124.555785 
L 117.067958 124.555785 
L 117.067958 124.318361 
L 117.540239 124.318361 
L 117.540239 121.58798 
L 117.848632 121.58798 
L 117.848632 119.451161 
L 118.152051 119.451161 
L 118.152051 118.738888 
L 118.74459 118.738888 
L 118.74459 116.958205 
L 119.034004 116.958205 
L 119.034004 116.12722 
L 119.459944 116.12722 
L 119.459944 114.583961 
L 119.738639 114.583961 
L 119.738639 111.378732 
L 119.876453 111.378732 
L 119.876453 111.26002 
L 120.013265 111.26002 
L 120.013265 109.360624 
L 120.149089 109.360624 
L 120.149089 109.004488 
L 120.28394 109.004488 
L 120.28394 108.05479 
L 120.550775 108.05479 
L 120.550775 107.579941 
L 121.073351 107.579941 
L 121.073351 106.867668 
L 121.201758 106.867668 
L 121.201758 104.374712 
L 121.329295 104.374712 
L 121.329295 104.256 
L 121.455972 104.256 
L 121.455972 102.831454 
L 121.706797 102.831454 
L 121.706797 100.575922 
L 121.830966 100.575922 
L 121.830966 100.338498 
L 121.954321 100.338498 
L 121.954321 99.626224 
L 122.076872 99.626224 
L 122.076872 99.3888 
L 122.19863 99.3888 
L 122.19863 99.270088 
L 122.319605 99.270088 
L 122.319605 97.608117 
L 122.439807 97.608117 
L 122.439807 97.25198 
L 122.677931 97.25198 
L 122.677931 96.895844 
L 122.795872 96.895844 
L 122.795872 96.539707 
L 123.029559 96.539707 
L 123.029559 95.352585 
L 123.260379 95.352585 
L 123.260379 94.046751 
L 123.374735 94.046751 
L 123.374735 93.928039 
L 123.4884 93.928039 
L 123.4884 92.38478 
L 123.601383 92.38478 
L 123.601383 91.79122 
L 123.713691 91.79122 
L 123.713691 91.435083 
L 123.936316 91.435083 
L 123.936316 91.078946 
L 124.156336 91.078946 
L 124.265389 89.773112 
L 124.481616 89.773112 
L 124.588805 89.179551 
L 124.695386 89.179551 
L 124.801367 86.805307 
L 124.906754 86.805307 
L 125.011554 85.618185 
L 125.115773 85.618185 
L 125.115773 85.024624 
L 125.322496 85.024624 
L 125.322496 83.481366 
L 125.628382 83.481366 
L 125.729248 82.769093 
L 125.829577 82.769093 
L 125.829577 82.05682 
L 126.028642 82.05682 
L 126.127391 79.801288 
L 126.225624 79.801288 
L 126.323346 77.78318 
L 126.517282 77.78318 
L 126.613505 76.358634 
L 126.993549 76.358634 
L 126.993549 75.765073 
L 127.273627 75.765073 
L 127.366067 74.221815 
L 127.458055 74.221815 
L 127.458055 73.865678 
L 127.640693 73.865678 
L 127.640693 73.746966 
L 127.821575 73.746966 
L 127.911368 73.390829 
L 128.000734 73.390829 
L 128.000734 72.678556 
L 128.528195 72.678556 
L 128.614685 70.541737 
L 128.786481 70.541737 
L 128.871795 69.829463 
L 128.956723 69.829463 
L 129.041269 66.980371 
L 129.125437 66.980371 
L 129.209231 65.793249 
L 129.375706 65.793249 
L 129.375706 65.674537 
L 129.54072 65.674537 
L 129.622688 64.487415 
L 129.7043 64.487415 
L 129.78556 62.113171 
L 129.86647 62.113171 
L 129.947033 61.875746 
L 130.027253 61.875746 
L 130.107132 60.926049 
L 130.186674 60.926049 
L 130.265881 60.332488 
L 130.344755 60.332488 
L 130.4233 59.38279 
L 130.501519 59.38279 
L 130.501519 58.551805 
L 130.656987 58.551805 
L 130.734242 58.31438 
L 130.811181 58.31438 
L 130.887807 57.958244 
L 131.040128 57.958244 
L 131.115828 56.771122 
L 131.563744 56.771122 
L 131.63737 55.940137 
L 131.71071 55.940137 
L 131.783764 54.040741 
L 131.856536 54.040741 
L 131.929028 51.547785 
L 132.001241 51.547785 
L 132.073179 50.241951 
L 132.216233 50.241951 
L 132.287354 49.767102 
L 132.56918 49.767102 
L 132.638982 48.936117 
L 132.915628 48.936117 
L 132.984158 48.342556 
L 133.05244 48.342556 
L 133.120474 47.036722 
L 133.25581 47.036722 
L 133.25581 46.91801 
L 133.523594 46.91801 
L 133.523594 46.087024 
L 133.853052 46.087024 
L 133.853052 45.730888 
L 134.112526 45.730888 
L 134.112526 45.612176 
L 134.683578 45.612176 
L 134.683578 45.137327 
L 134.87014 45.137327 
L 134.931919 44.425054 
L 135.054871 44.425054 
L 135.054871 44.187629 
L 135.478982 44.187629 
L 135.478982 43.831493 
L 135.59842 43.831493 
L 135.657857 42.644371 
L 135.776169 42.644371 
L 135.835047 42.406946 
L 136.242113 42.406946 
L 136.242113 42.288234 
L 136.356818 42.288234 
L 136.356818 41.694673 
L 136.527575 41.694673 
L 136.527575 41.338537 
L 136.640557 41.338537 
L 136.640557 41.219824 
L 137.085822 41.219824 
L 137.195511 40.151415 
L 137.358854 40.151415 
L 137.358854 39.557854 
L 137.998402 39.557854 
L 137.998402 39.201717 
L 138.667556 39.201717 
L 138.667556 39.083005 
L 140.032723 39.083005 
L 140.032723 37.777171 
L 140.219905 37.777171 
L 140.219905 37.658459 
L 141.128852 37.658459 
L 141.128852 37.421034 
L 141.739954 37.421034 
L 141.739954 37.064898 
L 142.206555 37.064898 
L 142.290162 36.827473 
L 143.344534 36.827473 
L 143.38393 36.471337 
L 143.540694 36.471337 
L 143.540694 35.640351 
L 143.657415 35.640351 
L 143.657415 35.521639 
L 143.773417 35.521639 
L 143.773417 35.402927 
L 144.041338 35.402927 
L 144.041338 35.284215 
L 144.602918 35.284215 
L 144.71325 34.097093 
L 144.749884 34.097093 
L 144.85936 33.503532 
L 144.931992 33.503532 
L 144.931992 33.266107 
L 145.076419 33.266107 
L 145.148219 32.197698 
L 145.538293 32.197698 
L 145.608355 31.604137 
L 145.678157 31.604137 
L 145.678157 31.485424 
L 145.989098 31.485424 
L 146.091614 31.248 
L 146.362288 31.248 
L 146.429353 30.17959 
L 146.728219 30.17959 
L 146.728219 29.823454 
L 146.989949 29.823454 
L 147.054816 29.467317 
L 147.216013 29.467317 
L 147.216013 29.229893 
L 147.343984 29.229893 
L 147.343984 28.161483 
L 147.565858 28.161483 
L 147.565858 28.042771 
L 149.165879 28.042771 
L 149.194798 26.974361 
L 149.281288 26.974361 
L 149.281288 26.855649 
L 149.538397 26.855649 
L 149.566749 26.499512 
L 149.73597 26.499512 
L 149.73597 26.3808 
L 149.903682 26.3808 
L 149.903682 26.262088 
L 150.262008 26.262088 
L 150.262008 26.143376 
L 150.8268 26.143376 
L 150.8268 25.668527 
L 151.011358 25.668527 
L 151.063758 24.837541 
L 151.168122 24.837541 
L 151.168122 24.600117 
L 151.907925 24.600117 
L 151.907925 24.362693 
L 152.303973 24.362693 
L 152.352898 23.531707 
L 152.498913 23.531707 
L 152.547334 23.056859 
L 152.619733 23.056859 
L 152.667844 22.819434 
L 152.859068 22.819434 
L 152.906572 22.225873 
L 152.977604 22.225873 
L 152.977604 21.869737 
L 153.305585 21.869737 
L 153.305585 21.751024 
L 153.696309 21.751024 
L 153.696309 21.5136 
L 154.101358 21.5136 
L 154.190197 20.682615 
L 154.322673 20.682615 
L 154.322673 20.089054 
L 154.476059 20.089054 
L 154.476059 19.851629 
L 154.628204 19.851629 
L 154.693034 19.37678 
L 156.005274 19.37678 
L 156.005274 18.901932 
L 156.363979 18.901932 
L 156.403417 18.427083 
L 156.501649 18.427083 
L 156.501649 17.71481 
L 158.133569 17.71481 
L 158.133569 17.358673 
L 158.25892 17.358673 
L 158.25892 17.002537 
L 158.559911 17.002537 
L 158.559911 16.883824 
L 159.800309 16.883824 
L 159.800309 16.765112 
L 160.620781 16.765112 
L 160.620781 16.6464 
L 161.661881 16.6464 
L 161.736206 16.290263 
L 161.942766 16.290263 
L 162.045202 16.052839 
L 162.435167 16.052839 
L 162.435167 15.696702 
L 166.47206 15.696702 
L 166.47206 15.57799 
L 166.621405 15.57799 
L 166.621405 15.459278 
L 166.792265 15.459278 
L 166.792265 15.103141 
L 167.504319 15.103141 
L 167.504319 14.984429 
L 167.91469 14.984429 
L 167.91469 14.865717 
L 168.17987 14.865717 
L 168.284904 14.50958 
L 168.534619 14.50958 
L 168.565601 13.797307 
L 168.740211 13.797307 
L 168.740211 13.559883 
L 169.194741 13.559883 
L 169.194741 12.84761 
L 169.967056 12.84761 
L 169.967056 12.728898 
L 171.440338 12.728898 
L 171.440338 12.491473 
L 178.333269 12.491473 
L 178.333269 12.135337 
L 179.614753 12.135337 
L 179.614753 12.016624 
L 181.967579 12.016624 
L 181.967579 11.897912 
L 182.726392 11.897912 
L 182.726392 11.7792 
L 183.333809 11.7792 
L 183.333809 11.660488 
L 186.27325 11.660488 
L 186.27325 11.423063 
L 187.249827 11.423063 
L 187.249827 11.304351 
L 190.013745 11.304351 
L 190.013745 10.592078 
L 190.912542 10.592078 
L 190.912542 10.235941 
L 191.604312 10.235941 
L 191.604312 10.117229 
L 197.045598 10.117229 
L 197.045598 9.998517 
L 197.165554 9.998517 
L 197.165554 9.761093 
L 197.644473 9.761093 
L 197.673043 9.167532 
L 198.946587 9.167532 
L 198.946587 8.930107 
L 199.374717 8.930107 
L 199.374717 8.573971 
L 202.365732 8.573971 
L 202.365732 8.336546 
L 205.543392 8.336546 
L 205.543392 8.099122 
L 205.66584 8.099122 
L 205.66584 7.98041 
L 206.305304 7.98041 
L 206.305304 7.505561 
L 218.72654 7.505561 
L 218.72654 7.149424 
L 221.739727 7.149424 
L 221.739727 7.030712 
L 225.777257 7.030712 
L 225.777257 6.912 
L 360.8064 6.912 
L 360.8064 6.912 
" style="fill:none;stroke:#ff7500;stroke-linecap:square;stroke-width:1.5;"/>
   </g>
   <g id="line2d_40">
    <defs>
     <path d="M 0 -6 
L -1.347084 -1.854102 
L -5.706339 -1.854102 
L -2.179628 0.708204 
L -3.526712 4.854102 
L -0 2.291796 
L 3.526712 4.854102 
L 2.179628 0.708204 
L 5.706339 -1.854102 
L 1.347084 -1.854102 
z
" id="m34248b54be" style="stroke:#ff7500;stroke-linejoin:bevel;stroke-width:1.5;"/>
    </defs>
    <g>
     <use style="fill-opacity:0;stroke:#ff7500;stroke-linejoin:bevel;stroke-width:1.5;" x="119.876453" xlink:href="#m34248b54be" y="111.26002"/>
     <use style="fill-opacity:0;stroke:#ff7500;stroke-linejoin:bevel;stroke-width:1.5;" x="221.739727" xlink:href="#m34248b54be" y="7.030712"/>
     <use style="fill-opacity:0;stroke:#ff7500;stroke-linejoin:bevel;stroke-width:1.5;" x="225.777257" xlink:href="#m34248b54be" y="6.912"/>
     <use style="fill-opacity:0;stroke:#ff7500;stroke-linejoin:bevel;stroke-width:1.5;" x="225.777257" xlink:href="#m34248b54be" y="6.912"/>
     <use style="fill-opacity:0;stroke:#ff7500;stroke-linejoin:bevel;stroke-width:1.5;" x="360.8064" xlink:href="#m34248b54be" y="6.912"/>
    </g>
   </g>
   <g id="line2d_41">
    <path style="fill:none;stroke:#ff7500;stroke-linecap:square;stroke-width:1.5;"/>
    <g/>
   </g>
   <g id="line2d_42">
    <path clip-path="url(#p7b9283537f)" d="M 225.620832 7.030712 
" style="fill:none;stroke:#ff7500;stroke-linecap:square;stroke-width:1.5;"/>
    <defs>
     <path d="M -12 12 
L 12 -12 
M -12 -12 
L 12 12 
" id="m6a2964ed03" style="stroke:#ff7500;"/>
    </defs>
    <g clip-path="url(#p7b9283537f)">
     <use style="fill:#ff7500;stroke:#ff7500;" x="225.620832" xlink:href="#m6a2964ed03" y="7.030712"/>
    </g>
   </g>
   <g id="line2d_43">
    <path d="M 360.8064 6.912 
L 380.514816 293.10336 
" style="fill:none;stroke:#ff00ff;stroke-linecap:square;stroke-width:1.5;"/>
    <g>
     <use style="fill-opacity:0;stroke:#ff00ff;stroke-linejoin:miter;stroke-width:1.5;" x="360.8064" xlink:href="#mf203cc9720" y="6.912"/>
     <use style="fill-opacity:0;stroke:#ff00ff;stroke-linejoin:miter;stroke-width:1.5;" x="380.514816" xlink:href="#mf203cc9720" y="293.10336"/>
    </g>
   </g>
   <g id="line2d_44">
    <path d="M 360.8064 6.912 
L 380.514816 152.928 
" style="fill:none;stroke:#ff7500;stroke-linecap:square;stroke-width:1.5;"/>
    <g>
     <use style="fill-opacity:0;stroke:#ff7500;stroke-linejoin:bevel;stroke-width:1.5;" x="360.8064" xlink:href="#m34248b54be" y="6.912"/>
     <use style="fill-opacity:0;stroke:#ff7500;stroke-linejoin:bevel;stroke-width:1.5;" x="380.514816" xlink:href="#m34248b54be" y="152.928"/>
    </g>
   </g>
   <g id="line2d_45">
    <path d="M 360.8064 6.912 
L 380.514816 12.75264 
" style="fill:none;stroke:#000080;stroke-linecap:square;stroke-width:1.5;"/>
    <g>
     <use style="fill-opacity:0;stroke:#000080;stroke-width:1.5;" x="360.8064" xlink:href="#mb2d133c7e3" y="6.912"/>
     <use style="fill-opacity:0;stroke:#000080;stroke-width:1.5;" x="380.514816" xlink:href="#mb2d133c7e3" y="12.75264"/>
    </g>
   </g>
   <g id="line2d_46">
    <path d="M 360.8064 298.944 
L 360.8064 6.912 
" style="fill:none;stroke:#000000;stroke-linecap:square;stroke-width:1.5;"/>
   </g>
   <g id="patch_3">
    <path d="M 57.6 298.944 
L 360.8064 298.944 
" style="fill:none;stroke:#000000;stroke-linecap:square;stroke-linejoin:miter;stroke-width:0.8;"/>
   </g>
   <g id="patch_4">
    <path d="M 57.6 6.912 
L 360.8064 6.912 
" style="fill:none;stroke:#000000;stroke-linecap:square;stroke-linejoin:miter;stroke-width:0.8;"/>
   </g>
   <g id="text_13">
    <!-- fmincon -->
    <g transform="translate(386.578944 296.966485)scale(0.14 -0.14)">
     <use xlink:href="#DejaVuSans-102"/>
     <use x="35.205078" xlink:href="#DejaVuSans-109"/>
     <use x="132.617188" xlink:href="#DejaVuSans-105"/>
     <use x="160.400391" xlink:href="#DejaVuSans-110"/>
     <use x="223.779297" xlink:href="#DejaVuSans-99"/>
     <use x="278.759766" xlink:href="#DejaVuSans-111"/>
     <use x="339.941406" xlink:href="#DejaVuSans-110"/>
    </g>
   </g>
   <g id="text_14">
    <!-- slsqp -->
    <g transform="translate(386.578944 156.791125)scale(0.14 -0.14)">
     <defs>
      <path d="M 14.796875 27.296875 
Q 14.796875 17.390625 18.875 11.75 
Q 22.953125 6.109375 30.078125 6.109375 
Q 37.203125 6.109375 41.296875 11.75 
Q 45.40625 17.390625 45.40625 27.296875 
Q 45.40625 37.203125 41.296875 42.84375 
Q 37.203125 48.484375 30.078125 48.484375 
Q 22.953125 48.484375 18.875 42.84375 
Q 14.796875 37.203125 14.796875 27.296875 
z
M 45.40625 8.203125 
Q 42.578125 3.328125 38.25 0.953125 
Q 33.9375 -1.421875 27.875 -1.421875 
Q 17.96875 -1.421875 11.734375 6.484375 
Q 5.515625 14.40625 5.515625 27.296875 
Q 5.515625 40.1875 11.734375 48.09375 
Q 17.96875 56 27.875 56 
Q 33.9375 56 38.25 53.625 
Q 42.578125 51.265625 45.40625 46.390625 
L 45.40625 54.6875 
L 54.390625 54.6875 
L 54.390625 -20.796875 
L 45.40625 -20.796875 
z
" id="DejaVuSans-113"/>
     </defs>
     <use xlink:href="#DejaVuSans-115"/>
     <use x="52.099609" xlink:href="#DejaVuSans-108"/>
     <use x="79.882812" xlink:href="#DejaVuSans-115"/>
     <use x="131.982422" xlink:href="#DejaVuSans-113"/>
     <use x="195.458984" xlink:href="#DejaVuSans-112"/>
    </g>
   </g>
   <g id="text_15">
    <!-- cobyla -->
    <g transform="translate(386.578944 16.615765)scale(0.14 -0.14)">
     <defs>
      <path d="M 48.6875 27.296875 
Q 48.6875 37.203125 44.609375 42.84375 
Q 40.53125 48.484375 33.40625 48.484375 
Q 26.265625 48.484375 22.1875 42.84375 
Q 18.109375 37.203125 18.109375 27.296875 
Q 18.109375 17.390625 22.1875 11.75 
Q 26.265625 6.109375 33.40625 6.109375 
Q 40.53125 6.109375 44.609375 11.75 
Q 48.6875 17.390625 48.6875 27.296875 
z
M 18.109375 46.390625 
Q 20.953125 51.265625 25.265625 53.625 
Q 29.59375 56 35.59375 56 
Q 45.5625 56 51.78125 48.09375 
Q 58.015625 40.1875 58.015625 27.296875 
Q 58.015625 14.40625 51.78125 6.484375 
Q 45.5625 -1.421875 35.59375 -1.421875 
Q 29.59375 -1.421875 25.265625 0.953125 
Q 20.953125 3.328125 18.109375 8.203125 
L 18.109375 0 
L 9.078125 0 
L 9.078125 75.984375 
L 18.109375 75.984375 
z
" id="DejaVuSans-98"/>
      <path d="M 32.171875 -5.078125 
Q 28.375 -14.84375 24.75 -17.8125 
Q 21.140625 -20.796875 15.09375 -20.796875 
L 7.90625 -20.796875 
L 7.90625 -13.28125 
L 13.1875 -13.28125 
Q 16.890625 -13.28125 18.9375 -11.515625 
Q 21 -9.765625 23.484375 -3.21875 
L 25.09375 0.875 
L 2.984375 54.6875 
L 12.5 54.6875 
L 29.59375 11.921875 
L 46.6875 54.6875 
L 56.203125 54.6875 
z
" id="DejaVuSans-121"/>
     </defs>
     <use xlink:href="#DejaVuSans-99"/>
     <use x="54.980469" xlink:href="#DejaVuSans-111"/>
     <use x="116.162109" xlink:href="#DejaVuSans-98"/>
     <use x="179.638672" xlink:href="#DejaVuSans-121"/>
     <use x="238.818359" xlink:href="#DejaVuSans-108"/>
     <use x="266.601562" xlink:href="#DejaVuSans-97"/>
    </g>
   </g>
   <g id="text_16">
    <!-- bbob-constrained f22, f28, f34, f40, 5-D -->
    <g transform="translate(60.632064 17.582726)scale(0.102 -0.102)">
     <defs>
      <path d="M 4.890625 31.390625 
L 31.203125 31.390625 
L 31.203125 23.390625 
L 4.890625 23.390625 
z
" id="DejaVuSans-45"/>
      <path d="M 40.578125 39.3125 
Q 47.65625 37.796875 51.625 33 
Q 55.609375 28.21875 55.609375 21.1875 
Q 55.609375 10.40625 48.1875 4.484375 
Q 40.765625 -1.421875 27.09375 -1.421875 
Q 22.515625 -1.421875 17.65625 -0.515625 
Q 12.796875 0.390625 7.625 2.203125 
L 7.625 11.71875 
Q 11.71875 9.328125 16.59375 8.109375 
Q 21.484375 6.890625 26.8125 6.890625 
Q 36.078125 6.890625 40.9375 10.546875 
Q 45.796875 14.203125 45.796875 21.1875 
Q 45.796875 27.640625 41.28125 31.265625 
Q 36.765625 34.90625 28.71875 34.90625 
L 20.21875 34.90625 
L 20.21875 43.015625 
L 29.109375 43.015625 
Q 36.375 43.015625 40.234375 45.921875 
Q 44.09375 48.828125 44.09375 54.296875 
Q 44.09375 59.90625 40.109375 62.90625 
Q 36.140625 65.921875 28.71875 65.921875 
Q 24.65625 65.921875 20.015625 65.03125 
Q 15.375 64.15625 9.8125 62.3125 
L 9.8125 71.09375 
Q 15.4375 72.65625 20.34375 73.4375 
Q 25.25 74.21875 29.59375 74.21875 
Q 40.828125 74.21875 47.359375 69.109375 
Q 53.90625 64.015625 53.90625 55.328125 
Q 53.90625 49.265625 50.4375 45.09375 
Q 46.96875 40.921875 40.578125 39.3125 
z
" id="DejaVuSans-51"/>
      <path d="M 10.796875 72.90625 
L 49.515625 72.90625 
L 49.515625 64.59375 
L 19.828125 64.59375 
L 19.828125 46.734375 
Q 21.96875 47.46875 24.109375 47.828125 
Q 26.265625 48.1875 28.421875 48.1875 
Q 40.625 48.1875 47.75 41.5 
Q 54.890625 34.8125 54.890625 23.390625 
Q 54.890625 11.625 47.5625 5.09375 
Q 40.234375 -1.421875 26.90625 -1.421875 
Q 22.3125 -1.421875 17.546875 -0.640625 
Q 12.796875 0.140625 7.71875 1.703125 
L 7.71875 11.625 
Q 12.109375 9.234375 16.796875 8.0625 
Q 21.484375 6.890625 26.703125 6.890625 
Q 35.15625 6.890625 40.078125 11.328125 
Q 45.015625 15.765625 45.015625 23.390625 
Q 45.015625 31 40.078125 35.4375 
Q 35.15625 39.890625 26.703125 39.890625 
Q 22.75 39.890625 18.8125 39.015625 
Q 14.890625 38.140625 10.796875 36.28125 
z
" id="DejaVuSans-53"/>
      <path d="M 19.671875 64.796875 
L 19.671875 8.109375 
L 31.59375 8.109375 
Q 46.6875 8.109375 53.6875 14.9375 
Q 60.6875 21.78125 60.6875 36.53125 
Q 60.6875 51.171875 53.6875 57.984375 
Q 46.6875 64.796875 31.59375 64.796875 
z
M 9.8125 72.90625 
L 30.078125 72.90625 
Q 51.265625 72.90625 61.171875 64.09375 
Q 71.09375 55.28125 71.09375 36.53125 
Q 71.09375 17.671875 61.125 8.828125 
Q 51.171875 0 30.078125 0 
L 9.8125 0 
z
" id="DejaVuSans-68"/>
     </defs>
     <use xlink:href="#DejaVuSans-98"/>
     <use x="63.476562" xlink:href="#DejaVuSans-98"/>
     <use x="126.953125" xlink:href="#DejaVuSans-111"/>
     <use x="188.134766" xlink:href="#DejaVuSans-98"/>
     <use x="251.611328" xlink:href="#DejaVuSans-45"/>
     <use x="287.695312" xlink:href="#DejaVuSans-99"/>
     <use x="342.675781" xlink:href="#DejaVuSans-111"/>
     <use x="403.857422" xlink:href="#DejaVuSans-110"/>
     <use x="467.236328" xlink:href="#DejaVuSans-115"/>
     <use x="519.335938" xlink:href="#DejaVuSans-116"/>
     <use x="558.544922" xlink:href="#DejaVuSans-114"/>
     <use x="599.658203" xlink:href="#DejaVuSans-97"/>
     <use x="660.9375" xlink:href="#DejaVuSans-105"/>
     <use x="688.720703" xlink:href="#DejaVuSans-110"/>
     <use x="752.099609" xlink:href="#DejaVuSans-101"/>
     <use x="813.623047" xlink:href="#DejaVuSans-100"/>
     <use x="877.099609" xlink:href="#DejaVuSans-32"/>
     <use x="908.886719" xlink:href="#DejaVuSans-102"/>
     <use x="944.091797" xlink:href="#DejaVuSans-50"/>
     <use x="1007.714844" xlink:href="#DejaVuSans-50"/>
     <use x="1071.337891" xlink:href="#DejaVuSans-44"/>
     <use x="1103.125" xlink:href="#DejaVuSans-32"/>
     <use x="1134.912109" xlink:href="#DejaVuSans-102"/>
     <use x="1170.117188" xlink:href="#DejaVuSans-50"/>
     <use x="1233.740234" xlink:href="#DejaVuSans-56"/>
     <use x="1297.363281" xlink:href="#DejaVuSans-44"/>
     <use x="1329.150391" xlink:href="#DejaVuSans-32"/>
     <use x="1360.9375" xlink:href="#DejaVuSans-102"/>
     <use x="1396.142578" xlink:href="#DejaVuSans-51"/>
     <use x="1459.765625" xlink:href="#DejaVuSans-52"/>
     <use x="1523.388672" xlink:href="#DejaVuSans-44"/>
     <use x="1555.175781" xlink:href="#DejaVuSans-32"/>
     <use x="1586.962891" xlink:href="#DejaVuSans-102"/>
     <use x="1622.167969" xlink:href="#DejaVuSans-52"/>
     <use x="1685.791016" xlink:href="#DejaVuSans-48"/>
     <use x="1749.414062" xlink:href="#DejaVuSans-44"/>
     <use x="1781.201172" xlink:href="#DejaVuSans-32"/>
     <use x="1812.988281" xlink:href="#DejaVuSans-53"/>
     <use x="1876.611328" xlink:href="#DejaVuSans-45"/>
     <use x="1912.695312" xlink:href="#DejaVuSans-68"/>
    </g>
    <!-- 41 targets: 100..1e-06 -->
    <g transform="translate(60.632064 29.004495)scale(0.102 -0.102)">
     <defs>
      <path d="M 11.71875 12.40625 
L 22.015625 12.40625 
L 22.015625 0 
L 11.71875 0 
z
M 11.71875 51.703125 
L 22.015625 51.703125 
L 22.015625 39.3125 
L 11.71875 39.3125 
z
" id="DejaVuSans-58"/>
     </defs>
     <use xlink:href="#DejaVuSans-52"/>
     <use x="63.623047" xlink:href="#DejaVuSans-49"/>
     <use x="127.246094" xlink:href="#DejaVuSans-32"/>
     <use x="159.033203" xlink:href="#DejaVuSans-116"/>
     <use x="198.242188" xlink:href="#DejaVuSans-97"/>
     <use x="259.521484" xlink:href="#DejaVuSans-114"/>
     <use x="298.884766" xlink:href="#DejaVuSans-103"/>
     <use x="362.361328" xlink:href="#DejaVuSans-101"/>
     <use x="423.884766" xlink:href="#DejaVuSans-116"/>
     <use x="463.09375" xlink:href="#DejaVuSans-115"/>
     <use x="515.193359" xlink:href="#DejaVuSans-58"/>
     <use x="548.884766" xlink:href="#DejaVuSans-32"/>
     <use x="580.671875" xlink:href="#DejaVuSans-49"/>
     <use x="644.294922" xlink:href="#DejaVuSans-48"/>
     <use x="707.917969" xlink:href="#DejaVuSans-48"/>
     <use x="771.541016" xlink:href="#DejaVuSans-46"/>
     <use x="803.328125" xlink:href="#DejaVuSans-46"/>
     <use x="835.115234" xlink:href="#DejaVuSans-49"/>
     <use x="898.738281" xlink:href="#DejaVuSans-101"/>
     <use x="960.261719" xlink:href="#DejaVuSans-45"/>
     <use x="996.345703" xlink:href="#DejaVuSans-48"/>
     <use x="1059.96875" xlink:href="#DejaVuSans-54"/>
    </g>
    <!-- evals = f-evals + g-evals -->
    <g transform="translate(60.632064 40.426264)scale(0.102 -0.102)">
     <defs>
      <path d="M 10.59375 45.40625 
L 73.1875 45.40625 
L 73.1875 37.203125 
L 10.59375 37.203125 
z
M 10.59375 25.484375 
L 73.1875 25.484375 
L 73.1875 17.1875 
L 10.59375 17.1875 
z
" id="DejaVuSans-61"/>
      <path d="M 46 62.703125 
L 46 35.5 
L 73.1875 35.5 
L 73.1875 27.203125 
L 46 27.203125 
L 46 0 
L 37.796875 0 
L 37.796875 27.203125 
L 10.59375 27.203125 
L 10.59375 35.5 
L 37.796875 35.5 
L 37.796875 62.703125 
z
" id="DejaVuSans-43"/>
     </defs>
     <use xlink:href="#DejaVuSans-101"/>
     <use x="61.523438" xlink:href="#DejaVuSans-118"/>
     <use x="120.703125" xlink:href="#DejaVuSans-97"/>
     <use x="181.982422" xlink:href="#DejaVuSans-108"/>
     <use x="209.765625" xlink:href="#DejaVuSans-115"/>
     <use x="261.865234" xlink:href="#DejaVuSans-32"/>
     <use x="293.652344" xlink:href="#DejaVuSans-61"/>
     <use x="377.441406" xlink:href="#DejaVuSans-32"/>
     <use x="409.228516" xlink:href="#DejaVuSans-102"/>
     <use x="438.933594" xlink:href="#DejaVuSans-45"/>
     <use x="475.017578" xlink:href="#DejaVuSans-101"/>
     <use x="536.541016" xlink:href="#DejaVuSans-118"/>
     <use x="595.720703" xlink:href="#DejaVuSans-97"/>
     <use x="657" xlink:href="#DejaVuSans-108"/>
     <use x="684.783203" xlink:href="#DejaVuSans-115"/>
     <use x="736.882812" xlink:href="#DejaVuSans-32"/>
     <use x="768.669922" xlink:href="#DejaVuSans-43"/>
     <use x="852.458984" xlink:href="#DejaVuSans-32"/>
     <use x="884.246094" xlink:href="#DejaVuSans-103"/>
     <use x="947.722656" xlink:href="#DejaVuSans-45"/>
     <use x="983.806641" xlink:href="#DejaVuSans-101"/>
     <use x="1045.330078" xlink:href="#DejaVuSans-118"/>
     <use x="1104.509766" xlink:href="#DejaVuSans-97"/>
     <use x="1165.789062" xlink:href="#DejaVuSans-108"/>
     <use x="1193.572266" xlink:href="#DejaVuSans-115"/>
    </g>
    <!-- 15 instances -->
    <g transform="translate(60.632064 51.848032)scale(0.102 -0.102)">
     <use xlink:href="#DejaVuSans-49"/>
     <use x="63.623047" xlink:href="#DejaVuSans-53"/>
     <use x="127.246094" xlink:href="#DejaVuSans-32"/>
     <use x="159.033203" xlink:href="#DejaVuSans-105"/>
     <use x="186.816406" xlink:href="#DejaVuSans-110"/>
     <use x="250.195312" xlink:href="#DejaVuSans-115"/>
     <use x="302.294922" xlink:href="#DejaVuSans-116"/>
     <use x="341.503906" xlink:href="#DejaVuSans-97"/>
     <use x="402.783203" xlink:href="#DejaVuSans-110"/>
     <use x="466.162109" xlink:href="#DejaVuSans-99"/>
     <use x="521.142578" xlink:href="#DejaVuSans-101"/>
     <use x="582.666016" xlink:href="#DejaVuSans-115"/>
    </g>
   </g>
   <g id="text_17">
    <!-- v2.4.159 -->
    <g style="fill:#808080;" transform="translate(187.15945 293.943992)scale(0.1 -0.1)">
     <defs>
      <path d="M 10.984375 1.515625 
L 10.984375 10.5 
Q 14.703125 8.734375 18.5 7.8125 
Q 22.3125 6.890625 25.984375 6.890625 
Q 35.75 6.890625 40.890625 13.453125 
Q 46.046875 20.015625 46.78125 33.40625 
Q 43.953125 29.203125 39.59375 26.953125 
Q 35.25 24.703125 29.984375 24.703125 
Q 19.046875 24.703125 12.671875 31.3125 
Q 6.296875 37.9375 6.296875 49.421875 
Q 6.296875 60.640625 12.9375 67.421875 
Q 19.578125 74.21875 30.609375 74.21875 
Q 43.265625 74.21875 49.921875 64.515625 
Q 56.59375 54.828125 56.59375 36.375 
Q 56.59375 19.140625 48.40625 8.859375 
Q 40.234375 -1.421875 26.421875 -1.421875 
Q 22.703125 -1.421875 18.890625 -0.6875 
Q 15.09375 0.046875 10.984375 1.515625 
z
M 30.609375 32.421875 
Q 37.25 32.421875 41.125 36.953125 
Q 45.015625 41.5 45.015625 49.421875 
Q 45.015625 57.28125 41.125 61.84375 
Q 37.25 66.40625 30.609375 66.40625 
Q 23.96875 66.40625 20.09375 61.84375 
Q 16.21875 57.28125 16.21875 49.421875 
Q 16.21875 41.5 20.09375 36.953125 
Q 23.96875 32.421875 30.609375 32.421875 
z
" id="DejaVuSans-57"/>
     </defs>
     <use xlink:href="#DejaVuSans-118"/>
     <use x="59.179688" xlink:href="#DejaVuSans-50"/>
     <use x="122.802734" xlink:href="#DejaVuSans-46"/>
     <use x="154.589844" xlink:href="#DejaVuSans-52"/>
     <use x="218.212891" xlink:href="#DejaVuSans-46"/>
     <use x="250" xlink:href="#DejaVuSans-49"/>
     <use x="313.623047" xlink:href="#DejaVuSans-53"/>
     <use x="377.246094" xlink:href="#DejaVuSans-57"/>
    </g>
   </g>
  </g>
 </g>
 <defs>
  <clipPath id="p7b9283537f">
   <rect height="292.032" width="303.2064" x="57.6" y="6.912"/>
  </clipPath>
 </defs>
</svg>
