<?xml version="1.0" encoding="utf-8" standalone="no"?>
<!DOCTYPE svg PUBLIC "-//W3C//DTD SVG 1.1//EN"
  "http://www.w3.org/Graphics/SVG/1.1/DTD/svg11.dtd">
<!-- Created with matplotlib (https://matplotlib.org/) -->
<svg height="345.6pt" version="1.1" viewBox="0 0 460.8 345.6" width="460.8pt" xmlns="http://www.w3.org/2000/svg" xmlns:xlink="http://www.w3.org/1999/xlink">
 <metadata>
  <rdf:RDF xmlns:cc="http://creativecommons.org/ns#" xmlns:dc="http://purl.org/dc/elements/1.1/" xmlns:rdf="http://www.w3.org/1999/02/22-rdf-syntax-ns#">
   <cc:Work>
    <dc:type rdf:resource="http://purl.org/dc/dcmitype/StillImage"/>
    <dc:date>2022-02-09T10:00:02.776168</dc:date>
    <dc:format>image/svg+xml</dc:format>
    <dc:creator>
     <cc:Agent>
      <dc:title>Matplotlib v3.3.3, https://matplotlib.org/</dc:title>
     </cc:Agent>
    </dc:creator>
   </cc:Work>
  </rdf:RDF>
 </metadata>
 <defs>
  <style type="text/css">*{stroke-linecap:butt;stroke-linejoin:round;}</style>
 </defs>
 <g id="figure_1">
  <g id="patch_1">
   <path d="M 0 345.6 
L 460.8 345.6 
L 460.8 0 
L 0 0 
z
" style="fill:#ffffff;"/>
  </g>
  <g id="axes_1">
   <g id="patch_2">
    <path d="M 57.6 298.944 
L 360.8064 298.944 
L 360.8064 6.912 
L 57.6 6.912 
z
" style="fill:#ffffff;"/>
   </g>
   <g id="matplotlib.axis_1">
    <g id="xtick_1">
     <g id="line2d_1">
      <path clip-path="url(#p5adb7552ca)" d="M 57.6 298.944 
L 57.6 6.912 
" style="fill:none;stroke:#b0b0b0;stroke-linecap:square;stroke-width:0.8;"/>
     </g>
     <g id="line2d_2">
      <defs>
       <path d="M 0 0 
L 0 3.5 
" id="m2597151705" style="stroke:#000000;stroke-width:0.8;"/>
      </defs>
      <g>
       <use style="stroke:#000000;stroke-width:0.8;" x="57.6" xlink:href="#m2597151705" y="298.944"/>
      </g>
     </g>
     <g id="text_1">
      <!-- 0 -->
      <g transform="translate(52.191875 318.861344)scale(0.17 -0.17)">
       <defs>
        <path d="M 31.78125 66.40625 
Q 24.171875 66.40625 20.328125 58.90625 
Q 16.5 51.421875 16.5 36.375 
Q 16.5 21.390625 20.328125 13.890625 
Q 24.171875 6.390625 31.78125 6.390625 
Q 39.453125 6.390625 43.28125 13.890625 
Q 47.125 21.390625 47.125 36.375 
Q 47.125 51.421875 43.28125 58.90625 
Q 39.453125 66.40625 31.78125 66.40625 
z
M 31.78125 74.21875 
Q 44.046875 74.21875 50.515625 64.515625 
Q 56.984375 54.828125 56.984375 36.375 
Q 56.984375 17.96875 50.515625 8.265625 
Q 44.046875 -1.421875 31.78125 -1.421875 
Q 19.53125 -1.421875 13.0625 8.265625 
Q 6.59375 17.96875 6.59375 36.375 
Q 6.59375 54.828125 13.0625 64.515625 
Q 19.53125 74.21875 31.78125 74.21875 
z
" id="DejaVuSans-48"/>
       </defs>
       <use xlink:href="#DejaVuSans-48"/>
      </g>
     </g>
    </g>
    <g id="xtick_2">
     <g id="line2d_3">
      <path clip-path="url(#p5adb7552ca)" d="M 144.2304 298.944 
L 144.2304 6.912 
" style="fill:none;stroke:#b0b0b0;stroke-linecap:square;stroke-width:0.8;"/>
     </g>
     <g id="line2d_4">
      <g>
       <use style="stroke:#000000;stroke-width:0.8;" x="144.2304" xlink:href="#m2597151705" y="298.944"/>
      </g>
     </g>
     <g id="text_2">
      <!-- 2 -->
      <g transform="translate(138.822275 318.861344)scale(0.17 -0.17)">
       <defs>
        <path d="M 19.1875 8.296875 
L 53.609375 8.296875 
L 53.609375 0 
L 7.328125 0 
L 7.328125 8.296875 
Q 12.9375 14.109375 22.625 23.890625 
Q 32.328125 33.6875 34.8125 36.53125 
Q 39.546875 41.84375 41.421875 45.53125 
Q 43.3125 49.21875 43.3125 52.78125 
Q 43.3125 58.59375 39.234375 62.25 
Q 35.15625 65.921875 28.609375 65.921875 
Q 23.96875 65.921875 18.8125 64.3125 
Q 13.671875 62.703125 7.8125 59.421875 
L 7.8125 69.390625 
Q 13.765625 71.78125 18.9375 73 
Q 24.125 74.21875 28.421875 74.21875 
Q 39.75 74.21875 46.484375 68.546875 
Q 53.21875 62.890625 53.21875 53.421875 
Q 53.21875 48.921875 51.53125 44.890625 
Q 49.859375 40.875 45.40625 35.40625 
Q 44.1875 33.984375 37.640625 27.21875 
Q 31.109375 20.453125 19.1875 8.296875 
z
" id="DejaVuSans-50"/>
       </defs>
       <use xlink:href="#DejaVuSans-50"/>
      </g>
     </g>
    </g>
    <g id="xtick_3">
     <g id="line2d_5">
      <path clip-path="url(#p5adb7552ca)" d="M 230.8608 298.944 
L 230.8608 6.912 
" style="fill:none;stroke:#b0b0b0;stroke-linecap:square;stroke-width:0.8;"/>
     </g>
     <g id="line2d_6">
      <g>
       <use style="stroke:#000000;stroke-width:0.8;" x="230.8608" xlink:href="#m2597151705" y="298.944"/>
      </g>
     </g>
     <g id="text_3">
      <!-- 4 -->
      <g transform="translate(225.452675 318.861344)scale(0.17 -0.17)">
       <defs>
        <path d="M 37.796875 64.3125 
L 12.890625 25.390625 
L 37.796875 25.390625 
z
M 35.203125 72.90625 
L 47.609375 72.90625 
L 47.609375 25.390625 
L 58.015625 25.390625 
L 58.015625 17.1875 
L 47.609375 17.1875 
L 47.609375 0 
L 37.796875 0 
L 37.796875 17.1875 
L 4.890625 17.1875 
L 4.890625 26.703125 
z
" id="DejaVuSans-52"/>
       </defs>
       <use xlink:href="#DejaVuSans-52"/>
      </g>
     </g>
    </g>
    <g id="xtick_4">
     <g id="line2d_7">
      <path clip-path="url(#p5adb7552ca)" d="M 317.4912 298.944 
L 317.4912 6.912 
" style="fill:none;stroke:#b0b0b0;stroke-linecap:square;stroke-width:0.8;"/>
     </g>
     <g id="line2d_8">
      <g>
       <use style="stroke:#000000;stroke-width:0.8;" x="317.4912" xlink:href="#m2597151705" y="298.944"/>
      </g>
     </g>
     <g id="text_4">
      <!-- 6 -->
      <g transform="translate(312.083075 318.861344)scale(0.17 -0.17)">
       <defs>
        <path d="M 33.015625 40.375 
Q 26.375 40.375 22.484375 35.828125 
Q 18.609375 31.296875 18.609375 23.390625 
Q 18.609375 15.53125 22.484375 10.953125 
Q 26.375 6.390625 33.015625 6.390625 
Q 39.65625 6.390625 43.53125 10.953125 
Q 47.40625 15.53125 47.40625 23.390625 
Q 47.40625 31.296875 43.53125 35.828125 
Q 39.65625 40.375 33.015625 40.375 
z
M 52.59375 71.296875 
L 52.59375 62.3125 
Q 48.875 64.0625 45.09375 64.984375 
Q 41.3125 65.921875 37.59375 65.921875 
Q 27.828125 65.921875 22.671875 59.328125 
Q 17.53125 52.734375 16.796875 39.40625 
Q 19.671875 43.65625 24.015625 45.921875 
Q 28.375 48.1875 33.59375 48.1875 
Q 44.578125 48.1875 50.953125 41.515625 
Q 57.328125 34.859375 57.328125 23.390625 
Q 57.328125 12.15625 50.6875 5.359375 
Q 44.046875 -1.421875 33.015625 -1.421875 
Q 20.359375 -1.421875 13.671875 8.265625 
Q 6.984375 17.96875 6.984375 36.375 
Q 6.984375 53.65625 15.1875 63.9375 
Q 23.390625 74.21875 37.203125 74.21875 
Q 40.921875 74.21875 44.703125 73.484375 
Q 48.484375 72.75 52.59375 71.296875 
z
" id="DejaVuSans-54"/>
       </defs>
       <use xlink:href="#DejaVuSans-54"/>
      </g>
     </g>
    </g>
    <g id="xtick_5">
     <g id="line2d_9">
      <path clip-path="url(#p5adb7552ca)" d="M 100.9152 298.944 
L 100.9152 6.912 
" style="fill:none;stroke:#b0b0b0;stroke-linecap:square;stroke-width:0.8;"/>
     </g>
     <g id="line2d_10">
      <defs>
       <path d="M 0 0 
L 0 2 
" id="meb05c40a1a" style="stroke:#000000;stroke-width:0.6;"/>
      </defs>
      <g>
       <use style="stroke:#000000;stroke-width:0.6;" x="100.9152" xlink:href="#meb05c40a1a" y="298.944"/>
      </g>
     </g>
    </g>
    <g id="xtick_6">
     <g id="line2d_11">
      <path clip-path="url(#p5adb7552ca)" d="M 187.5456 298.944 
L 187.5456 6.912 
" style="fill:none;stroke:#b0b0b0;stroke-linecap:square;stroke-width:0.8;"/>
     </g>
     <g id="line2d_12">
      <g>
       <use style="stroke:#000000;stroke-width:0.6;" x="187.5456" xlink:href="#meb05c40a1a" y="298.944"/>
      </g>
     </g>
    </g>
    <g id="xtick_7">
     <g id="line2d_13">
      <path clip-path="url(#p5adb7552ca)" d="M 274.176 298.944 
L 274.176 6.912 
" style="fill:none;stroke:#b0b0b0;stroke-linecap:square;stroke-width:0.8;"/>
     </g>
     <g id="line2d_14">
      <g>
       <use style="stroke:#000000;stroke-width:0.6;" x="274.176" xlink:href="#meb05c40a1a" y="298.944"/>
      </g>
     </g>
    </g>
    <g id="xtick_8">
     <g id="line2d_15">
      <path clip-path="url(#p5adb7552ca)" d="M 360.8064 298.944 
L 360.8064 6.912 
" style="fill:none;stroke:#b0b0b0;stroke-linecap:square;stroke-width:0.8;"/>
     </g>
     <g id="line2d_16">
      <g>
       <use style="stroke:#000000;stroke-width:0.6;" x="360.8064" xlink:href="#meb05c40a1a" y="298.944"/>
      </g>
     </g>
    </g>
    <g id="text_5">
     <!-- log10(evals / dimension) -->
     <g transform="translate(104.238825 339.314156)scale(0.17 -0.17)">
      <defs>
       <path d="M 9.421875 75.984375 
L 18.40625 75.984375 
L 18.40625 0 
L 9.421875 0 
z
" id="DejaVuSans-108"/>
       <path d="M 30.609375 48.390625 
Q 23.390625 48.390625 19.1875 42.75 
Q 14.984375 37.109375 14.984375 27.296875 
Q 14.984375 17.484375 19.15625 11.84375 
Q 23.34375 6.203125 30.609375 6.203125 
Q 37.796875 6.203125 41.984375 11.859375 
Q 46.1875 17.53125 46.1875 27.296875 
Q 46.1875 37.015625 41.984375 42.703125 
Q 37.796875 48.390625 30.609375 48.390625 
z
M 30.609375 56 
Q 42.328125 56 49.015625 48.375 
Q 55.71875 40.765625 55.71875 27.296875 
Q 55.71875 13.875 49.015625 6.21875 
Q 42.328125 -1.421875 30.609375 -1.421875 
Q 18.84375 -1.421875 12.171875 6.21875 
Q 5.515625 13.875 5.515625 27.296875 
Q 5.515625 40.765625 12.171875 48.375 
Q 18.84375 56 30.609375 56 
z
" id="DejaVuSans-111"/>
       <path d="M 45.40625 27.984375 
Q 45.40625 37.75 41.375 43.109375 
Q 37.359375 48.484375 30.078125 48.484375 
Q 22.859375 48.484375 18.828125 43.109375 
Q 14.796875 37.75 14.796875 27.984375 
Q 14.796875 18.265625 18.828125 12.890625 
Q 22.859375 7.515625 30.078125 7.515625 
Q 37.359375 7.515625 41.375 12.890625 
Q 45.40625 18.265625 45.40625 27.984375 
z
M 54.390625 6.78125 
Q 54.390625 -7.171875 48.1875 -13.984375 
Q 42 -20.796875 29.203125 -20.796875 
Q 24.46875 -20.796875 20.265625 -20.09375 
Q 16.0625 -19.390625 12.109375 -17.921875 
L 12.109375 -9.1875 
Q 16.0625 -11.328125 19.921875 -12.34375 
Q 23.78125 -13.375 27.78125 -13.375 
Q 36.625 -13.375 41.015625 -8.765625 
Q 45.40625 -4.15625 45.40625 5.171875 
L 45.40625 9.625 
Q 42.625 4.78125 38.28125 2.390625 
Q 33.9375 0 27.875 0 
Q 17.828125 0 11.671875 7.65625 
Q 5.515625 15.328125 5.515625 27.984375 
Q 5.515625 40.671875 11.671875 48.328125 
Q 17.828125 56 27.875 56 
Q 33.9375 56 38.28125 53.609375 
Q 42.625 51.21875 45.40625 46.390625 
L 45.40625 54.6875 
L 54.390625 54.6875 
z
" id="DejaVuSans-103"/>
       <path d="M 12.40625 8.296875 
L 28.515625 8.296875 
L 28.515625 63.921875 
L 10.984375 60.40625 
L 10.984375 69.390625 
L 28.421875 72.90625 
L 38.28125 72.90625 
L 38.28125 8.296875 
L 54.390625 8.296875 
L 54.390625 0 
L 12.40625 0 
z
" id="DejaVuSans-49"/>
       <path d="M 31 75.875 
Q 24.46875 64.65625 21.28125 53.65625 
Q 18.109375 42.671875 18.109375 31.390625 
Q 18.109375 20.125 21.3125 9.0625 
Q 24.515625 -2 31 -13.1875 
L 23.1875 -13.1875 
Q 15.875 -1.703125 12.234375 9.375 
Q 8.59375 20.453125 8.59375 31.390625 
Q 8.59375 42.28125 12.203125 53.3125 
Q 15.828125 64.359375 23.1875 75.875 
z
" id="DejaVuSans-40"/>
       <path d="M 56.203125 29.59375 
L 56.203125 25.203125 
L 14.890625 25.203125 
Q 15.484375 15.921875 20.484375 11.0625 
Q 25.484375 6.203125 34.421875 6.203125 
Q 39.59375 6.203125 44.453125 7.46875 
Q 49.3125 8.734375 54.109375 11.28125 
L 54.109375 2.78125 
Q 49.265625 0.734375 44.1875 -0.34375 
Q 39.109375 -1.421875 33.890625 -1.421875 
Q 20.796875 -1.421875 13.15625 6.1875 
Q 5.515625 13.8125 5.515625 26.8125 
Q 5.515625 40.234375 12.765625 48.109375 
Q 20.015625 56 32.328125 56 
Q 43.359375 56 49.78125 48.890625 
Q 56.203125 41.796875 56.203125 29.59375 
z
M 47.21875 32.234375 
Q 47.125 39.59375 43.09375 43.984375 
Q 39.0625 48.390625 32.421875 48.390625 
Q 24.90625 48.390625 20.390625 44.140625 
Q 15.875 39.890625 15.1875 32.171875 
z
" id="DejaVuSans-101"/>
       <path d="M 2.984375 54.6875 
L 12.5 54.6875 
L 29.59375 8.796875 
L 46.6875 54.6875 
L 56.203125 54.6875 
L 35.6875 0 
L 23.484375 0 
z
" id="DejaVuSans-118"/>
       <path d="M 34.28125 27.484375 
Q 23.390625 27.484375 19.1875 25 
Q 14.984375 22.515625 14.984375 16.5 
Q 14.984375 11.71875 18.140625 8.90625 
Q 21.296875 6.109375 26.703125 6.109375 
Q 34.1875 6.109375 38.703125 11.40625 
Q 43.21875 16.703125 43.21875 25.484375 
L 43.21875 27.484375 
z
M 52.203125 31.203125 
L 52.203125 0 
L 43.21875 0 
L 43.21875 8.296875 
Q 40.140625 3.328125 35.546875 0.953125 
Q 30.953125 -1.421875 24.3125 -1.421875 
Q 15.921875 -1.421875 10.953125 3.296875 
Q 6 8.015625 6 15.921875 
Q 6 25.140625 12.171875 29.828125 
Q 18.359375 34.515625 30.609375 34.515625 
L 43.21875 34.515625 
L 43.21875 35.40625 
Q 43.21875 41.609375 39.140625 45 
Q 35.0625 48.390625 27.6875 48.390625 
Q 23 48.390625 18.546875 47.265625 
Q 14.109375 46.140625 10.015625 43.890625 
L 10.015625 52.203125 
Q 14.9375 54.109375 19.578125 55.046875 
Q 24.21875 56 28.609375 56 
Q 40.484375 56 46.34375 49.84375 
Q 52.203125 43.703125 52.203125 31.203125 
z
" id="DejaVuSans-97"/>
       <path d="M 44.28125 53.078125 
L 44.28125 44.578125 
Q 40.484375 46.53125 36.375 47.5 
Q 32.28125 48.484375 27.875 48.484375 
Q 21.1875 48.484375 17.84375 46.4375 
Q 14.5 44.390625 14.5 40.28125 
Q 14.5 37.15625 16.890625 35.375 
Q 19.28125 33.59375 26.515625 31.984375 
L 29.59375 31.296875 
Q 39.15625 29.25 43.1875 25.515625 
Q 47.21875 21.78125 47.21875 15.09375 
Q 47.21875 7.46875 41.1875 3.015625 
Q 35.15625 -1.421875 24.609375 -1.421875 
Q 20.21875 -1.421875 15.453125 -0.5625 
Q 10.6875 0.296875 5.421875 2 
L 5.421875 11.28125 
Q 10.40625 8.6875 15.234375 7.390625 
Q 20.0625 6.109375 24.8125 6.109375 
Q 31.15625 6.109375 34.5625 8.28125 
Q 37.984375 10.453125 37.984375 14.40625 
Q 37.984375 18.0625 35.515625 20.015625 
Q 33.0625 21.96875 24.703125 23.78125 
L 21.578125 24.515625 
Q 13.234375 26.265625 9.515625 29.90625 
Q 5.8125 33.546875 5.8125 39.890625 
Q 5.8125 47.609375 11.28125 51.796875 
Q 16.75 56 26.8125 56 
Q 31.78125 56 36.171875 55.265625 
Q 40.578125 54.546875 44.28125 53.078125 
z
" id="DejaVuSans-115"/>
       <path id="DejaVuSans-32"/>
       <path d="M 25.390625 72.90625 
L 33.6875 72.90625 
L 8.296875 -9.28125 
L 0 -9.28125 
z
" id="DejaVuSans-47"/>
       <path d="M 45.40625 46.390625 
L 45.40625 75.984375 
L 54.390625 75.984375 
L 54.390625 0 
L 45.40625 0 
L 45.40625 8.203125 
Q 42.578125 3.328125 38.25 0.953125 
Q 33.9375 -1.421875 27.875 -1.421875 
Q 17.96875 -1.421875 11.734375 6.484375 
Q 5.515625 14.40625 5.515625 27.296875 
Q 5.515625 40.1875 11.734375 48.09375 
Q 17.96875 56 27.875 56 
Q 33.9375 56 38.25 53.625 
Q 42.578125 51.265625 45.40625 46.390625 
z
M 14.796875 27.296875 
Q 14.796875 17.390625 18.875 11.75 
Q 22.953125 6.109375 30.078125 6.109375 
Q 37.203125 6.109375 41.296875 11.75 
Q 45.40625 17.390625 45.40625 27.296875 
Q 45.40625 37.203125 41.296875 42.84375 
Q 37.203125 48.484375 30.078125 48.484375 
Q 22.953125 48.484375 18.875 42.84375 
Q 14.796875 37.203125 14.796875 27.296875 
z
" id="DejaVuSans-100"/>
       <path d="M 9.421875 54.6875 
L 18.40625 54.6875 
L 18.40625 0 
L 9.421875 0 
z
M 9.421875 75.984375 
L 18.40625 75.984375 
L 18.40625 64.59375 
L 9.421875 64.59375 
z
" id="DejaVuSans-105"/>
       <path d="M 52 44.1875 
Q 55.375 50.25 60.0625 53.125 
Q 64.75 56 71.09375 56 
Q 79.640625 56 84.28125 50.015625 
Q 88.921875 44.046875 88.921875 33.015625 
L 88.921875 0 
L 79.890625 0 
L 79.890625 32.71875 
Q 79.890625 40.578125 77.09375 44.375 
Q 74.3125 48.1875 68.609375 48.1875 
Q 61.625 48.1875 57.5625 43.546875 
Q 53.515625 38.921875 53.515625 30.90625 
L 53.515625 0 
L 44.484375 0 
L 44.484375 32.71875 
Q 44.484375 40.625 41.703125 44.40625 
Q 38.921875 48.1875 33.109375 48.1875 
Q 26.21875 48.1875 22.15625 43.53125 
Q 18.109375 38.875 18.109375 30.90625 
L 18.109375 0 
L 9.078125 0 
L 9.078125 54.6875 
L 18.109375 54.6875 
L 18.109375 46.1875 
Q 21.1875 51.21875 25.484375 53.609375 
Q 29.78125 56 35.6875 56 
Q 41.65625 56 45.828125 52.96875 
Q 50 49.953125 52 44.1875 
z
" id="DejaVuSans-109"/>
       <path d="M 54.890625 33.015625 
L 54.890625 0 
L 45.90625 0 
L 45.90625 32.71875 
Q 45.90625 40.484375 42.875 44.328125 
Q 39.84375 48.1875 33.796875 48.1875 
Q 26.515625 48.1875 22.3125 43.546875 
Q 18.109375 38.921875 18.109375 30.90625 
L 18.109375 0 
L 9.078125 0 
L 9.078125 54.6875 
L 18.109375 54.6875 
L 18.109375 46.1875 
Q 21.34375 51.125 25.703125 53.5625 
Q 30.078125 56 35.796875 56 
Q 45.21875 56 50.046875 50.171875 
Q 54.890625 44.34375 54.890625 33.015625 
z
" id="DejaVuSans-110"/>
       <path d="M 8.015625 75.875 
L 15.828125 75.875 
Q 23.140625 64.359375 26.78125 53.3125 
Q 30.421875 42.28125 30.421875 31.390625 
Q 30.421875 20.453125 26.78125 9.375 
Q 23.140625 -1.703125 15.828125 -13.1875 
L 8.015625 -13.1875 
Q 14.5 -2 17.703125 9.0625 
Q 20.90625 20.125 20.90625 31.390625 
Q 20.90625 42.671875 17.703125 53.65625 
Q 14.5 64.65625 8.015625 75.875 
z
" id="DejaVuSans-41"/>
      </defs>
      <use xlink:href="#DejaVuSans-108"/>
      <use x="27.783203" xlink:href="#DejaVuSans-111"/>
      <use x="88.964844" xlink:href="#DejaVuSans-103"/>
      <use x="152.441406" xlink:href="#DejaVuSans-49"/>
      <use x="216.064453" xlink:href="#DejaVuSans-48"/>
      <use x="279.6875" xlink:href="#DejaVuSans-40"/>
      <use x="318.701172" xlink:href="#DejaVuSans-101"/>
      <use x="380.224609" xlink:href="#DejaVuSans-118"/>
      <use x="439.404297" xlink:href="#DejaVuSans-97"/>
      <use x="500.683594" xlink:href="#DejaVuSans-108"/>
      <use x="528.466797" xlink:href="#DejaVuSans-115"/>
      <use x="580.566406" xlink:href="#DejaVuSans-32"/>
      <use x="612.353516" xlink:href="#DejaVuSans-47"/>
      <use x="646.044922" xlink:href="#DejaVuSans-32"/>
      <use x="677.832031" xlink:href="#DejaVuSans-100"/>
      <use x="741.308594" xlink:href="#DejaVuSans-105"/>
      <use x="769.091797" xlink:href="#DejaVuSans-109"/>
      <use x="866.503906" xlink:href="#DejaVuSans-101"/>
      <use x="928.027344" xlink:href="#DejaVuSans-110"/>
      <use x="991.40625" xlink:href="#DejaVuSans-115"/>
      <use x="1043.505859" xlink:href="#DejaVuSans-105"/>
      <use x="1071.289062" xlink:href="#DejaVuSans-111"/>
      <use x="1132.470703" xlink:href="#DejaVuSans-110"/>
      <use x="1195.849609" xlink:href="#DejaVuSans-41"/>
     </g>
    </g>
   </g>
   <g id="matplotlib.axis_2">
    <g id="ytick_1">
     <g id="line2d_17">
      <path clip-path="url(#p5adb7552ca)" d="M 57.6 298.944 
L 360.8064 298.944 
" style="fill:none;stroke:#b0b0b0;stroke-linecap:square;stroke-width:0.8;"/>
     </g>
     <g id="line2d_18">
      <defs>
       <path d="M 0 0 
L -3.5 0 
" id="m5af452b964" style="stroke:#000000;stroke-width:0.8;"/>
      </defs>
      <g>
       <use style="stroke:#000000;stroke-width:0.8;" x="57.6" xlink:href="#m5af452b964" y="298.944"/>
      </g>
     </g>
     <g id="text_6">
      <!-- 0.0 -->
      <g transform="translate(25.155 305.02275)scale(0.16 -0.16)">
       <defs>
        <path d="M 10.6875 12.40625 
L 21 12.40625 
L 21 0 
L 10.6875 0 
z
" id="DejaVuSans-46"/>
       </defs>
       <use xlink:href="#DejaVuSans-48"/>
       <use x="63.623047" xlink:href="#DejaVuSans-46"/>
       <use x="95.410156" xlink:href="#DejaVuSans-48"/>
      </g>
     </g>
    </g>
    <g id="ytick_2">
     <g id="line2d_19">
      <path clip-path="url(#p5adb7552ca)" d="M 57.6 240.5376 
L 360.8064 240.5376 
" style="fill:none;stroke:#b0b0b0;stroke-linecap:square;stroke-width:0.8;"/>
     </g>
     <g id="line2d_20">
      <g>
       <use style="stroke:#000000;stroke-width:0.8;" x="57.6" xlink:href="#m5af452b964" y="240.5376"/>
      </g>
     </g>
     <g id="text_7">
      <!-- 0.2 -->
      <g transform="translate(25.155 246.61635)scale(0.16 -0.16)">
       <use xlink:href="#DejaVuSans-48"/>
       <use x="63.623047" xlink:href="#DejaVuSans-46"/>
       <use x="95.410156" xlink:href="#DejaVuSans-50"/>
      </g>
     </g>
    </g>
    <g id="ytick_3">
     <g id="line2d_21">
      <path clip-path="url(#p5adb7552ca)" d="M 57.6 182.1312 
L 360.8064 182.1312 
" style="fill:none;stroke:#b0b0b0;stroke-linecap:square;stroke-width:0.8;"/>
     </g>
     <g id="line2d_22">
      <g>
       <use style="stroke:#000000;stroke-width:0.8;" x="57.6" xlink:href="#m5af452b964" y="182.1312"/>
      </g>
     </g>
     <g id="text_8">
      <!-- 0.4 -->
      <g transform="translate(25.155 188.20995)scale(0.16 -0.16)">
       <use xlink:href="#DejaVuSans-48"/>
       <use x="63.623047" xlink:href="#DejaVuSans-46"/>
       <use x="95.410156" xlink:href="#DejaVuSans-52"/>
      </g>
     </g>
    </g>
    <g id="ytick_4">
     <g id="line2d_23">
      <path clip-path="url(#p5adb7552ca)" d="M 57.6 123.7248 
L 360.8064 123.7248 
" style="fill:none;stroke:#b0b0b0;stroke-linecap:square;stroke-width:0.8;"/>
     </g>
     <g id="line2d_24">
      <g>
       <use style="stroke:#000000;stroke-width:0.8;" x="57.6" xlink:href="#m5af452b964" y="123.7248"/>
      </g>
     </g>
     <g id="text_9">
      <!-- 0.6 -->
      <g transform="translate(25.155 129.80355)scale(0.16 -0.16)">
       <use xlink:href="#DejaVuSans-48"/>
       <use x="63.623047" xlink:href="#DejaVuSans-46"/>
       <use x="95.410156" xlink:href="#DejaVuSans-54"/>
      </g>
     </g>
    </g>
    <g id="ytick_5">
     <g id="line2d_25">
      <path clip-path="url(#p5adb7552ca)" d="M 57.6 65.3184 
L 360.8064 65.3184 
" style="fill:none;stroke:#b0b0b0;stroke-linecap:square;stroke-width:0.8;"/>
     </g>
     <g id="line2d_26">
      <g>
       <use style="stroke:#000000;stroke-width:0.8;" x="57.6" xlink:href="#m5af452b964" y="65.3184"/>
      </g>
     </g>
     <g id="text_10">
      <!-- 0.8 -->
      <g transform="translate(25.155 71.39715)scale(0.16 -0.16)">
       <defs>
        <path d="M 31.78125 34.625 
Q 24.75 34.625 20.71875 30.859375 
Q 16.703125 27.09375 16.703125 20.515625 
Q 16.703125 13.921875 20.71875 10.15625 
Q 24.75 6.390625 31.78125 6.390625 
Q 38.8125 6.390625 42.859375 10.171875 
Q 46.921875 13.96875 46.921875 20.515625 
Q 46.921875 27.09375 42.890625 30.859375 
Q 38.875 34.625 31.78125 34.625 
z
M 21.921875 38.8125 
Q 15.578125 40.375 12.03125 44.71875 
Q 8.5 49.078125 8.5 55.328125 
Q 8.5 64.0625 14.71875 69.140625 
Q 20.953125 74.21875 31.78125 74.21875 
Q 42.671875 74.21875 48.875 69.140625 
Q 55.078125 64.0625 55.078125 55.328125 
Q 55.078125 49.078125 51.53125 44.71875 
Q 48 40.375 41.703125 38.8125 
Q 48.828125 37.15625 52.796875 32.3125 
Q 56.78125 27.484375 56.78125 20.515625 
Q 56.78125 9.90625 50.3125 4.234375 
Q 43.84375 -1.421875 31.78125 -1.421875 
Q 19.734375 -1.421875 13.25 4.234375 
Q 6.78125 9.90625 6.78125 20.515625 
Q 6.78125 27.484375 10.78125 32.3125 
Q 14.796875 37.15625 21.921875 38.8125 
z
M 18.3125 54.390625 
Q 18.3125 48.734375 21.84375 45.5625 
Q 25.390625 42.390625 31.78125 42.390625 
Q 38.140625 42.390625 41.71875 45.5625 
Q 45.3125 48.734375 45.3125 54.390625 
Q 45.3125 60.0625 41.71875 63.234375 
Q 38.140625 66.40625 31.78125 66.40625 
Q 25.390625 66.40625 21.84375 63.234375 
Q 18.3125 60.0625 18.3125 54.390625 
z
" id="DejaVuSans-56"/>
       </defs>
       <use xlink:href="#DejaVuSans-48"/>
       <use x="63.623047" xlink:href="#DejaVuSans-46"/>
       <use x="95.410156" xlink:href="#DejaVuSans-56"/>
      </g>
     </g>
    </g>
    <g id="ytick_6">
     <g id="line2d_27">
      <path clip-path="url(#p5adb7552ca)" d="M 57.6 6.912 
L 360.8064 6.912 
" style="fill:none;stroke:#b0b0b0;stroke-linecap:square;stroke-width:0.8;"/>
     </g>
     <g id="line2d_28">
      <g>
       <use style="stroke:#000000;stroke-width:0.8;" x="57.6" xlink:href="#m5af452b964" y="6.912"/>
      </g>
     </g>
     <g id="text_11">
      <!-- 1.0 -->
      <g transform="translate(25.155 12.99075)scale(0.16 -0.16)">
       <use xlink:href="#DejaVuSans-49"/>
       <use x="63.623047" xlink:href="#DejaVuSans-46"/>
       <use x="95.410156" xlink:href="#DejaVuSans-48"/>
      </g>
     </g>
    </g>
    <g id="text_12">
     <!-- Fraction of function,target pairs -->
     <g transform="translate(17.619531 287.313)rotate(-90)scale(0.17 -0.17)">
      <defs>
       <path d="M 9.8125 72.90625 
L 51.703125 72.90625 
L 51.703125 64.59375 
L 19.671875 64.59375 
L 19.671875 43.109375 
L 48.578125 43.109375 
L 48.578125 34.8125 
L 19.671875 34.8125 
L 19.671875 0 
L 9.8125 0 
z
" id="DejaVuSans-70"/>
       <path d="M 41.109375 46.296875 
Q 39.59375 47.171875 37.8125 47.578125 
Q 36.03125 48 33.890625 48 
Q 26.265625 48 22.1875 43.046875 
Q 18.109375 38.09375 18.109375 28.8125 
L 18.109375 0 
L 9.078125 0 
L 9.078125 54.6875 
L 18.109375 54.6875 
L 18.109375 46.1875 
Q 20.953125 51.171875 25.484375 53.578125 
Q 30.03125 56 36.53125 56 
Q 37.453125 56 38.578125 55.875 
Q 39.703125 55.765625 41.0625 55.515625 
z
" id="DejaVuSans-114"/>
       <path d="M 48.78125 52.59375 
L 48.78125 44.1875 
Q 44.96875 46.296875 41.140625 47.34375 
Q 37.3125 48.390625 33.40625 48.390625 
Q 24.65625 48.390625 19.8125 42.84375 
Q 14.984375 37.3125 14.984375 27.296875 
Q 14.984375 17.28125 19.8125 11.734375 
Q 24.65625 6.203125 33.40625 6.203125 
Q 37.3125 6.203125 41.140625 7.25 
Q 44.96875 8.296875 48.78125 10.40625 
L 48.78125 2.09375 
Q 45.015625 0.34375 40.984375 -0.53125 
Q 36.96875 -1.421875 32.421875 -1.421875 
Q 20.0625 -1.421875 12.78125 6.34375 
Q 5.515625 14.109375 5.515625 27.296875 
Q 5.515625 40.671875 12.859375 48.328125 
Q 20.21875 56 33.015625 56 
Q 37.15625 56 41.109375 55.140625 
Q 45.0625 54.296875 48.78125 52.59375 
z
" id="DejaVuSans-99"/>
       <path d="M 18.3125 70.21875 
L 18.3125 54.6875 
L 36.8125 54.6875 
L 36.8125 47.703125 
L 18.3125 47.703125 
L 18.3125 18.015625 
Q 18.3125 11.328125 20.140625 9.421875 
Q 21.96875 7.515625 27.59375 7.515625 
L 36.8125 7.515625 
L 36.8125 0 
L 27.59375 0 
Q 17.1875 0 13.234375 3.875 
Q 9.28125 7.765625 9.28125 18.015625 
L 9.28125 47.703125 
L 2.6875 47.703125 
L 2.6875 54.6875 
L 9.28125 54.6875 
L 9.28125 70.21875 
z
" id="DejaVuSans-116"/>
       <path d="M 37.109375 75.984375 
L 37.109375 68.5 
L 28.515625 68.5 
Q 23.6875 68.5 21.796875 66.546875 
Q 19.921875 64.59375 19.921875 59.515625 
L 19.921875 54.6875 
L 34.71875 54.6875 
L 34.71875 47.703125 
L 19.921875 47.703125 
L 19.921875 0 
L 10.890625 0 
L 10.890625 47.703125 
L 2.296875 47.703125 
L 2.296875 54.6875 
L 10.890625 54.6875 
L 10.890625 58.5 
Q 10.890625 67.625 15.140625 71.796875 
Q 19.390625 75.984375 28.609375 75.984375 
z
" id="DejaVuSans-102"/>
       <path d="M 8.5 21.578125 
L 8.5 54.6875 
L 17.484375 54.6875 
L 17.484375 21.921875 
Q 17.484375 14.15625 20.5 10.265625 
Q 23.53125 6.390625 29.59375 6.390625 
Q 36.859375 6.390625 41.078125 11.03125 
Q 45.3125 15.671875 45.3125 23.6875 
L 45.3125 54.6875 
L 54.296875 54.6875 
L 54.296875 0 
L 45.3125 0 
L 45.3125 8.40625 
Q 42.046875 3.421875 37.71875 1 
Q 33.40625 -1.421875 27.6875 -1.421875 
Q 18.265625 -1.421875 13.375 4.4375 
Q 8.5 10.296875 8.5 21.578125 
z
M 31.109375 56 
z
" id="DejaVuSans-117"/>
       <path d="M 11.71875 12.40625 
L 22.015625 12.40625 
L 22.015625 4 
L 14.015625 -11.625 
L 7.71875 -11.625 
L 11.71875 4 
z
" id="DejaVuSans-44"/>
       <path d="M 18.109375 8.203125 
L 18.109375 -20.796875 
L 9.078125 -20.796875 
L 9.078125 54.6875 
L 18.109375 54.6875 
L 18.109375 46.390625 
Q 20.953125 51.265625 25.265625 53.625 
Q 29.59375 56 35.59375 56 
Q 45.5625 56 51.78125 48.09375 
Q 58.015625 40.1875 58.015625 27.296875 
Q 58.015625 14.40625 51.78125 6.484375 
Q 45.5625 -1.421875 35.59375 -1.421875 
Q 29.59375 -1.421875 25.265625 0.953125 
Q 20.953125 3.328125 18.109375 8.203125 
z
M 48.6875 27.296875 
Q 48.6875 37.203125 44.609375 42.84375 
Q 40.53125 48.484375 33.40625 48.484375 
Q 26.265625 48.484375 22.1875 42.84375 
Q 18.109375 37.203125 18.109375 27.296875 
Q 18.109375 17.390625 22.1875 11.75 
Q 26.265625 6.109375 33.40625 6.109375 
Q 40.53125 6.109375 44.609375 11.75 
Q 48.6875 17.390625 48.6875 27.296875 
z
" id="DejaVuSans-112"/>
      </defs>
      <use xlink:href="#DejaVuSans-70"/>
      <use x="50.269531" xlink:href="#DejaVuSans-114"/>
      <use x="91.382812" xlink:href="#DejaVuSans-97"/>
      <use x="152.662109" xlink:href="#DejaVuSans-99"/>
      <use x="207.642578" xlink:href="#DejaVuSans-116"/>
      <use x="246.851562" xlink:href="#DejaVuSans-105"/>
      <use x="274.634766" xlink:href="#DejaVuSans-111"/>
      <use x="335.816406" xlink:href="#DejaVuSans-110"/>
      <use x="399.195312" xlink:href="#DejaVuSans-32"/>
      <use x="430.982422" xlink:href="#DejaVuSans-111"/>
      <use x="492.164062" xlink:href="#DejaVuSans-102"/>
      <use x="527.369141" xlink:href="#DejaVuSans-32"/>
      <use x="559.15625" xlink:href="#DejaVuSans-102"/>
      <use x="594.361328" xlink:href="#DejaVuSans-117"/>
      <use x="657.740234" xlink:href="#DejaVuSans-110"/>
      <use x="721.119141" xlink:href="#DejaVuSans-99"/>
      <use x="776.099609" xlink:href="#DejaVuSans-116"/>
      <use x="815.308594" xlink:href="#DejaVuSans-105"/>
      <use x="843.091797" xlink:href="#DejaVuSans-111"/>
      <use x="904.273438" xlink:href="#DejaVuSans-110"/>
      <use x="967.652344" xlink:href="#DejaVuSans-44"/>
      <use x="999.439453" xlink:href="#DejaVuSans-116"/>
      <use x="1038.648438" xlink:href="#DejaVuSans-97"/>
      <use x="1099.927734" xlink:href="#DejaVuSans-114"/>
      <use x="1139.291016" xlink:href="#DejaVuSans-103"/>
      <use x="1202.767578" xlink:href="#DejaVuSans-101"/>
      <use x="1264.291016" xlink:href="#DejaVuSans-116"/>
      <use x="1303.5" xlink:href="#DejaVuSans-32"/>
      <use x="1335.287109" xlink:href="#DejaVuSans-112"/>
      <use x="1398.763672" xlink:href="#DejaVuSans-97"/>
      <use x="1460.042969" xlink:href="#DejaVuSans-105"/>
      <use x="1487.826172" xlink:href="#DejaVuSans-114"/>
      <use x="1528.939453" xlink:href="#DejaVuSans-115"/>
     </g>
    </g>
   </g>
   <g id="line2d_29">
    <defs>
     <path d="M 0 1.5 
C 0.397805 1.5 0.77937 1.341951 1.06066 1.06066 
C 1.341951 0.77937 1.5 0.397805 1.5 0 
C 1.5 -0.397805 1.341951 -0.77937 1.06066 -1.06066 
C 0.77937 -1.341951 0.397805 -1.5 0 -1.5 
C -0.397805 -1.5 -0.77937 -1.341951 -1.06066 -1.06066 
C -1.341951 -0.77937 -1.5 -0.397805 -1.5 0 
C -1.5 0.397805 -1.341951 0.77937 -1.06066 1.06066 
C -0.77937 1.341951 -0.397805 1.5 0 1.5 
z
" id="m6008e9e4f2" style="stroke:#000080;"/>
    </defs>
    <g>
     <use style="fill:#000080;stroke:#000080;" x="186.865648" xlink:href="#m6008e9e4f2" y="6.912"/>
     <use style="fill:#000080;stroke:#000080;" x="186.865648" xlink:href="#m6008e9e4f2" y="6.912"/>
    </g>
   </g>
   <g id="line2d_30">
    <path d="M 44.560826 298.944 
L 44.560826 298.838478 
L 83.678349 298.838478 
L 83.678349 298.363629 
L 87.876026 298.363629 
L 87.876026 259.637073 
L 91.305777 259.637073 
L 91.305777 242.436995 
L 94.205591 242.436995 
L 94.205591 231.093385 
L 96.717523 231.093385 
L 96.717523 223.917893 
L 98.933205 223.917893 
L 98.933205 212.152195 
L 100.9152 212.152195 
L 100.9152 191.628176 
L 102.708132 191.628176 
L 102.708132 185.191337 
L 104.344952 185.191337 
L 104.344952 178.33241 
L 105.850679 178.33241 
L 105.850679 164.192468 
L 107.244765 164.192468 
L 107.244765 153.534751 
L 108.542628 153.534751 
L 108.542628 146.306498 
L 109.756698 146.306498 
L 109.756698 136.862283 
L 110.897141 136.862283 
L 110.897141 131.375141 
L 111.97238 131.375141 
L 111.97238 123.883083 
L 112.989468 123.883083 
L 112.989468 116.391024 
L 113.954374 116.391024 
L 113.954374 111.431493 
L 114.872193 111.431493 
L 114.872193 104.78361 
L 115.747307 104.78361 
L 115.747307 99.085424 
L 116.583514 99.085424 
L 116.583514 93.334478 
L 117.384126 93.334478 
L 117.384126 89.482927 
L 118.152051 89.482927 
L 118.152051 83.995785 
L 118.889854 83.995785 
L 118.889854 78.455883 
L 119.599808 78.455883 
L 119.599808 74.868137 
L 120.28394 74.868137 
L 120.28394 68.800624 
L 120.944062 68.800624 
L 120.944062 63.735571 
L 121.581803 63.735571 
L 121.581803 59.039844 
L 122.19863 59.039844 
L 122.19863 55.874185 
L 122.795872 55.874185 
L 122.795872 50.861893 
L 123.374735 50.861893 
L 123.374735 48.487649 
L 123.936316 48.487649 
L 123.936316 43.633639 
L 124.481616 43.633639 
L 124.481616 41.892527 
L 125.011554 41.892527 
L 125.011554 40.362459 
L 125.526971 40.362459 
L 125.526971 39.307239 
L 126.028642 39.307239 
L 126.028642 36.510907 
L 126.517282 36.510907 
L 126.517282 35.297405 
L 126.993549 35.297405 
L 126.993549 33.292488 
L 127.458055 33.292488 
L 127.458055 32.290029 
L 127.911368 32.290029 
L 127.911368 31.709659 
L 128.354013 31.709659 
L 128.354013 30.812722 
L 129.209231 30.759961 
L 129.209231 30.390634 
L 129.622688 30.390634 
L 129.622688 29.863024 
L 130.027253 29.863024 
L 130.027253 29.704741 
L 130.4233 29.704741 
L 130.4233 29.018849 
L 131.191226 28.966088 
L 131.191226 28.702283 
L 131.563744 28.702283 
L 131.563744 28.544 
L 132.287354 28.491239 
L 132.287354 28.385717 
L 132.638982 28.385717 
L 132.638982 28.069151 
L 133.323114 28.01639 
L 133.323114 27.858107 
L 142.559347 27.805346 
L 142.559347 27.647063 
L 143.946089 27.647063 
L 143.946089 27.43602 
L 144.324223 27.330498 
L 144.324223 27.172215 
L 144.510478 27.172215 
L 144.510478 27.013932 
L 144.877544 27.013932 
L 144.877544 26.539083 
L 145.058426 26.539083 
L 145.058426 25.905951 
L 145.237585 25.905951 
L 145.237585 25.536624 
L 145.415054 25.536624 
L 145.415054 24.903493 
L 145.590864 24.903493 
L 145.590864 24.428644 
L 145.765046 24.428644 
L 145.765046 24.112078 
L 146.108646 24.059317 
L 146.108646 23.901034 
L 146.446082 23.795512 
L 146.446082 23.426185 
L 146.612557 23.426185 
L 146.612557 22.265444 
L 146.777571 22.265444 
L 146.777571 21.896117 
L 146.941151 21.896117 
L 146.941151 21.632312 
L 147.103321 21.632312 
L 147.103321 21.051941 
L 147.264104 21.051941 
L 147.264104 20.471571 
L 147.423525 20.471571 
L 147.423525 19.996722 
L 147.581606 19.996722 
L 147.581606 19.310829 
L 147.893838 19.258068 
L 147.893838 18.888741 
L 148.503173 18.78322 
L 148.503173 18.466654 
L 148.652472 18.466654 
L 148.652472 18.308371 
L 149.238092 18.202849 
L 149.238092 17.886283 
L 149.524205 17.886283 
L 149.524205 17.569717 
L 150.083698 17.569717 
L 150.083698 17.411434 
L 151.155108 17.411434 
L 151.155108 17.253151 
L 155.649849 17.20039 
L 155.649849 16.936585 
L 156.155566 16.936585 
L 156.155566 16.356215 
L 156.354107 16.356215 
L 156.354107 16.09241 
L 157.032948 15.986888 
L 157.032948 15.828605 
L 157.410135 15.828605 
L 157.410135 15.406517 
L 157.871225 15.300995 
L 157.962102 14.984429 
L 158.052543 14.984429 
L 158.14255 14.087493 
L 158.58624 13.981971 
L 158.58624 13.92921 
L 158.760826 13.92921 
L 158.760826 13.665405 
L 159.190332 13.559883 
L 159.190332 13.190556 
L 170.355719 13.085034 
L 170.355719 13.032273 
L 170.49593 13.032273 
L 170.542436 12.610185 
L 170.635104 12.610185 
L 170.635104 12.451902 
L 170.773255 12.451902 
L 170.773255 12.188098 
L 170.9104 12.188098 
L 170.9104 11.977054 
L 171.091717 11.977054 
L 171.091717 11.132878 
L 173.0195 11.080117 
L 173.0195 10.869073 
L 173.221995 10.869073 
L 173.221995 10.499746 
L 173.422332 10.394224 
L 173.422332 10.13042 
L 173.541519 10.13042 
L 173.541519 9.550049 
L 173.816719 9.550049 
L 173.816719 9.286244 
L 173.972187 9.286244 
L 174.010854 8.916917 
L 186.311454 8.916917 
L 186.311454 8.705873 
L 186.471468 8.705873 
L 186.531124 7.756176 
L 186.689288 7.756176 
L 186.78747 6.964761 
L 360.8064 6.912 
L 360.8064 6.912 
" style="fill:none;stroke:#000080;stroke-linecap:square;stroke-width:1.5;"/>
   </g>
   <g id="line2d_31">
    <defs>
     <path d="M 0 6 
C 1.591219 6 3.117479 5.367802 4.242641 4.242641 
C 5.367802 3.117479 6 1.591219 6 0 
C 6 -1.591219 5.367802 -3.117479 4.242641 -4.242641 
C 3.117479 -5.367802 1.591219 -6 0 -6 
C -1.591219 -6 -3.117479 -5.367802 -4.242641 -4.242641 
C -5.367802 -3.117479 -6 -1.591219 -6 0 
C -6 1.591219 -5.367802 3.117479 -4.242641 4.242641 
C -3.117479 5.367802 -1.591219 6 0 6 
z
" id="m320f6fa1ee" style="stroke:#000080;stroke-width:1.5;"/>
    </defs>
    <g>
     <use style="fill-opacity:0;stroke:#000080;stroke-width:1.5;" x="87.876026" xlink:href="#m320f6fa1ee" y="298.363629"/>
     <use style="fill-opacity:0;stroke:#000080;stroke-width:1.5;" x="111.97238" xlink:href="#m320f6fa1ee" y="131.375141"/>
     <use style="fill-opacity:0;stroke:#000080;stroke-width:1.5;" x="147.264104" xlink:href="#m320f6fa1ee" y="20.471571"/>
     <use style="fill-opacity:0;stroke:#000080;stroke-width:1.5;" x="186.865648" xlink:href="#m320f6fa1ee" y="6.964761"/>
     <use style="fill-opacity:0;stroke:#000080;stroke-width:1.5;" x="186.865648" xlink:href="#m320f6fa1ee" y="6.912"/>
     <use style="fill-opacity:0;stroke:#000080;stroke-width:1.5;" x="360.8064" xlink:href="#m320f6fa1ee" y="6.912"/>
    </g>
   </g>
   <g id="line2d_32">
    <path style="fill:none;stroke:#000080;stroke-linecap:square;stroke-width:1.5;"/>
    <g/>
   </g>
   <g id="line2d_33">
    <defs>
     <path d="M 0 1.5 
C 0.397805 1.5 0.77937 1.341951 1.06066 1.06066 
C 1.341951 0.77937 1.5 0.397805 1.5 0 
C 1.5 -0.397805 1.341951 -0.77937 1.06066 -1.06066 
C 0.77937 -1.341951 0.397805 -1.5 0 -1.5 
C -0.397805 -1.5 -0.77937 -1.341951 -1.06066 -1.06066 
C -1.341951 -0.77937 -1.5 -0.397805 -1.5 0 
C -1.5 0.397805 -1.341951 0.77937 -1.06066 1.06066 
C -0.77937 1.341951 -0.397805 1.5 0 1.5 
z
" id="m8fb4d88f68" style="stroke:#ff00ff;"/>
    </defs>
    <g>
     <use style="fill:#ff00ff;stroke:#ff00ff;" x="205.843053" xlink:href="#m8fb4d88f68" y="39.36"/>
     <use style="fill:#ff00ff;stroke:#ff00ff;" x="205.843053" xlink:href="#m8fb4d88f68" y="39.36"/>
    </g>
   </g>
   <g id="line2d_34">
    <path d="M 44.560826 298.944 
L 44.560826 297.994302 
L 83.678349 297.994302 
L 83.678349 290.555005 
L 94.205591 290.555005 
L 94.205591 272.088663 
L 98.933205 272.035902 
L 98.933205 271.719337 
L 100.9152 271.719337 
L 100.9152 248.13518 
L 102.708132 248.13518 
L 102.708132 247.924137 
L 104.344952 247.924137 
L 104.344952 247.765854 
L 105.850679 247.765854 
L 105.850679 237.055376 
L 107.244765 237.055376 
L 107.244765 235.525307 
L 108.542628 235.525307 
L 108.542628 234.944937 
L 109.756698 234.944937 
L 109.756698 226.555941 
L 110.897141 226.555941 
L 110.897141 225.711766 
L 111.97238 225.711766 
L 111.97238 224.498263 
L 112.989468 224.498263 
L 112.989468 215.212332 
L 113.954374 215.212332 
L 113.954374 213.946068 
L 114.872193 213.946068 
L 114.872193 212.310478 
L 115.747307 212.310478 
L 115.747307 205.873639 
L 116.583514 205.873639 
L 116.583514 204.81842 
L 117.384126 204.712898 
L 117.384126 202.338654 
L 118.152051 202.338654 
L 118.152051 196.957034 
L 118.889854 196.904273 
L 118.889854 194.424507 
L 119.599808 194.318985 
L 119.599808 192.314068 
L 120.28394 192.314068 
L 120.28394 186.668644 
L 120.944062 186.615883 
L 120.944062 184.083356 
L 121.581803 184.083356 
L 121.581803 183.397463 
L 122.19863 183.344702 
L 122.19863 174.639141 
L 122.795872 174.639141 
L 122.795872 172.001093 
L 123.374735 171.895571 
L 123.374735 171.156917 
L 123.936316 171.104156 
L 123.936316 164.931122 
L 124.481616 164.931122 
L 124.481616 161.870985 
L 125.011554 161.818224 
L 125.011554 161.290615 
L 125.526971 161.237854 
L 125.526971 155.11758 
L 126.028642 155.11758 
L 126.028642 152.585054 
L 126.517282 152.532293 
L 126.517282 150.843941 
L 126.993549 150.79118 
L 126.993549 144.670907 
L 127.458055 144.670907 
L 127.458055 141.821815 
L 127.911368 141.716293 
L 127.911368 140.608312 
L 128.354013 140.608312 
L 128.354013 134.171473 
L 128.786481 134.065951 
L 128.786481 132.272078 
L 129.209231 132.166556 
L 129.209231 131.26962 
L 129.622688 131.26962 
L 129.622688 126.468371 
L 130.027253 126.468371 
L 130.027253 124.516215 
L 130.4233 124.463454 
L 130.4233 123.091668 
L 130.811181 123.091668 
L 130.811181 118.606985 
L 131.191226 118.606985 
L 131.191226 116.602068 
L 131.378407 116.602068 
L 131.378407 116.443785 
L 131.563744 116.443785 
L 131.563744 116.074459 
L 131.929028 116.074459 
L 131.929028 114.702673 
L 132.287354 114.702673 
L 132.287354 113.172605 
L 132.638982 113.172605 
L 132.638982 112.064624 
L 132.984158 112.064624 
L 132.984158 110.323512 
L 133.323114 110.323512 
L 133.323114 108.371356 
L 133.656071 108.371356 
L 133.656071 108.002029 
L 133.983236 108.002029 
L 133.983236 106.577483 
L 134.304809 106.577483 
L 134.304809 105.100176 
L 134.463557 105.100176 
L 134.463557 104.941893 
L 134.620977 104.941893 
L 134.620977 103.992195 
L 134.931919 103.992195 
L 134.931919 102.356605 
L 135.237805 102.251083 
L 135.237805 100.98482 
L 135.538796 100.98482 
L 135.538796 100.193405 
L 135.835047 100.193405 
L 135.835047 99.138185 
L 136.126705 99.138185 
L 136.126705 98.241249 
L 136.413909 98.241249 
L 136.413909 97.186029 
L 136.696795 97.080507 
L 136.696795 96.183571 
L 136.97549 96.183571 
L 136.97549 95.444917 
L 137.250116 95.444917 
L 137.250116 94.917307 
L 137.520791 94.917307 
L 137.520791 94.020371 
L 137.787626 94.020371 
L 137.787626 92.701346 
L 138.050729 92.701346 
L 138.050729 92.015454 
L 138.310202 92.015454 
L 138.310202 91.2768 
L 138.566146 91.2768 
L 138.566146 90.696429 
L 138.818654 90.696429 
L 138.818654 89.852254 
L 139.067817 89.852254 
L 139.067817 88.163902 
L 139.313723 88.111141 
L 139.313723 87.372488 
L 139.556456 87.372488 
L 139.556456 86.897639 
L 139.796097 86.897639 
L 139.796097 86.053463 
L 140.032723 86.000702 
L 140.032723 85.103766 
L 140.26641 84.998244 
L 140.26641 84.892722 
L 140.49723 84.892722 
L 140.49723 83.837502 
L 140.725251 83.837502 
L 140.725251 82.624 
L 140.950542 82.624 
L 140.950542 82.149151 
L 141.173167 82.149151 
L 141.173167 81.621541 
L 141.393187 81.621541 
L 141.393187 81.304976 
L 141.610664 81.304976 
L 141.610664 81.041171 
L 141.825656 81.041171 
L 141.825656 80.777366 
L 142.038218 80.777366 
L 142.038218 80.408039 
L 142.248405 80.408039 
L 142.248405 80.196995 
L 142.45627 80.196995 
L 142.45627 79.774907 
L 142.661862 79.774907 
L 142.661862 79.089015 
L 142.865233 79.089015 
L 142.865233 78.508644 
L 143.462475 78.455883 
L 143.462475 78.139317 
L 143.657415 78.139317 
L 143.657415 77.981034 
L 143.850356 77.981034 
L 143.850356 77.717229 
L 144.2304 77.717229 
L 144.2304 77.347902 
L 144.417581 77.347902 
L 144.417581 76.767532 
L 144.602918 76.767532 
L 144.602918 76.556488 
L 144.786447 76.556488 
L 144.786447 76.239922 
L 144.968202 76.239922 
L 144.968202 76.081639 
L 145.148219 76.081639 
L 145.148219 75.342985 
L 145.503164 75.290224 
L 145.503164 75.02642 
L 145.678157 75.02642 
L 145.678157 74.709854 
L 145.851536 74.709854 
L 145.851536 74.340527 
L 146.023332 74.340527 
L 146.023332 73.9712 
L 146.193574 73.9712 
L 146.193574 73.707395 
L 146.362288 73.707395 
L 146.362288 73.390829 
L 146.529503 73.390829 
L 146.529503 73.127024 
L 146.695245 73.127024 
L 146.695245 72.599415 
L 147.022411 72.546654 
L 147.022411 72.33561 
L 147.183884 72.33561 
L 147.183884 71.649717 
L 147.343984 71.649717 
L 147.343984 71.385912 
L 147.660152 71.28039 
L 147.660152 70.858302 
L 147.816265 70.858302 
L 147.816265 70.014127 
L 148.124658 70.014127 
L 148.124658 69.592039 
L 148.428077 69.486517 
L 148.428077 69.275473 
L 148.57797 69.275473 
L 148.57797 68.958907 
L 148.726679 68.958907 
L 148.726679 68.747863 
L 149.020615 68.747863 
L 149.020615 68.484059 
L 149.165879 68.484059 
L 149.165879 68.167493 
L 149.595059 68.061971 
L 149.595059 67.903688 
L 150.014665 67.798166 
L 150.014665 67.587122 
L 150.289291 67.587122 
L 150.357325 66.637424 
L 150.693856 66.584663 
L 150.693856 66.42638 
L 150.8268 66.42638 
L 150.8268 65.951532 
L 151.220087 65.84601 
L 151.220087 65.740488 
L 151.477784 65.634966 
L 151.477784 65.265639 
L 151.60532 65.265639 
L 151.60532 65.054595 
L 151.857828 65.054595 
L 151.857828 64.26318 
L 151.982822 64.26318 
L 151.982822 63.999376 
L 152.474656 63.893854 
L 152.474656 63.788332 
L 152.715833 63.735571 
L 152.715833 63.524527 
L 153.071898 63.524527 
L 153.071898 63.049678 
L 153.189104 63.049678 
L 153.189104 62.838634 
L 153.421349 62.838634 
L 153.421349 62.574829 
L 153.536404 62.574829 
L 153.593669 61.783415 
L 153.650761 61.783415 
L 153.650761 61.625132 
L 153.877408 61.625132 
L 153.877408 61.044761 
L 154.212341 60.992 
L 154.322673 60.306107 
L 154.432362 60.306107 
L 154.541415 59.88402 
L 154.86483 59.831259 
L 154.86483 59.35641 
L 155.28758 59.35641 
L 155.391799 58.987083 
L 155.495444 58.987083 
L 155.598521 58.564995 
L 155.802997 58.564995 
L 155.904407 58.248429 
L 156.205398 58.248429 
L 156.205398 57.984624 
L 156.793307 57.879102 
L 156.793307 57.77358 
L 157.456756 57.668059 
L 157.456756 57.562537 
L 158.0976 57.562537 
L 158.0976 57.351493 
L 158.276759 57.351493 
L 158.276759 57.19321 
L 158.542339 57.19321 
L 158.542339 56.929405 
L 158.890711 56.876644 
L 158.890711 56.718361 
L 159.816746 56.612839 
L 159.816746 56.560078 
L 160.383158 56.454556 
L 160.4627 55.61038 
L 160.541906 55.61038 
L 160.541906 55.399337 
L 160.699326 55.399337 
L 160.699326 55.188293 
L 160.933013 55.188293 
L 160.933013 54.924488 
L 161.087207 54.924488 
L 161.163832 54.555161 
L 161.316153 54.449639 
L 161.391854 54.133073 
L 161.579783 54.027551 
L 161.579783 53.97479 
L 161.691646 53.97479 
L 161.765853 53.710985 
L 161.839769 53.710985 
L 161.839769 53.552702 
L 162.205054 53.44718 
L 162.205054 53.288898 
L 162.349204 53.288898 
L 162.349204 53.130615 
L 162.492258 53.130615 
L 162.492258 52.814049 
L 163.122872 52.814049 
L 163.122872 52.655766 
L 163.73303 52.655766 
L 163.79962 52.444722 
L 164.194282 52.391961 
L 164.259262 51.758829 
L 164.771172 51.653307 
L 164.771172 51.600546 
L 165.45305 51.547785 
L 165.45305 51.442263 
L 166.286609 51.336741 
L 166.286609 51.178459 
L 166.8036 51.125698 
L 166.8036 50.967415 
L 167.028891 50.861893 
L 167.028891 50.809132 
L 167.361848 50.70361 
L 167.361848 50.545327 
L 168.221954 50.439805 
L 168.326754 50.281522 
L 168.534619 50.176 
L 168.637696 49.912195 
L 169.094679 49.859434 
L 169.094679 49.595629 
L 169.442591 49.490107 
L 169.442591 49.437346 
L 170.00055 49.331824 
L 170.00055 49.279063 
L 170.542436 49.173541 
L 170.542436 49.015259 
L 171.493403 48.962498 
L 171.493403 48.856976 
L 173.060174 48.856976 
L 173.060174 48.645932 
L 173.32243 48.645932 
L 173.32243 48.382127 
L 173.972187 48.276605 
L 173.972187 48.223844 
L 174.618958 48.171083 
L 174.618958 47.960039 
L 175.135386 47.854517 
L 175.244228 47.379668 
L 175.88438 47.274146 
L 175.88438 47.221385 
L 176.196469 47.221385 
L 176.196469 47.010341 
L 176.57101 46.95758 
L 176.671876 46.588254 
L 176.872001 46.535493 
L 176.905149 46.324449 
L 177.151915 46.218927 
L 177.151915 46.166166 
L 177.298436 46.166166 
L 177.298436 46.007883 
L 177.683669 45.955122 
L 177.778757 45.480273 
L 178.583321 45.427512 
L 178.67398 45.005424 
L 178.883832 44.899902 
L 178.883832 44.79438 
L 179.267453 44.79438 
L 179.267453 44.636098 
L 179.927575 44.636098 
L 180.011995 44.266771 
L 180.123969 44.266771 
L 180.221402 43.791922 
L 180.29069 43.739161 
L 180.29069 43.369834 
L 181.779386 43.264312 
L 181.779386 42.947746 
L 184.686501 42.947746 
L 184.79568 42.736702 
L 184.947474 42.63118 
L 184.947474 42.57842 
L 185.626206 42.525659 
L 185.626206 42.261854 
L 186.261169 42.209093 
L 186.361605 41.998049 
L 186.718797 41.945288 
L 186.816825 41.787005 
L 188.400609 41.681483 
L 188.400609 41.5232 
L 188.844717 41.417678 
L 188.879797 41.312156 
L 189.312863 41.206634 
L 189.415332 41.101112 
L 189.601754 40.99559 
L 189.669089 40.890068 
L 190.010445 40.784546 
L 190.068111 40.626263 
L 190.19926 40.520741 
L 190.19926 40.46798 
L 190.619286 40.41522 
L 190.619286 40.309698 
L 193.253634 40.204176 
L 193.253634 40.151415 
L 193.841543 40.045893 
L 193.841543 39.993132 
L 194.792984 39.88761 
L 194.792984 39.834849 
L 195.940953 39.729327 
L 195.940953 39.676566 
L 201.250085 39.571044 
L 201.259162 39.465522 
L 360.8064 39.36 
L 360.8064 39.36 
" style="fill:none;stroke:#ff00ff;stroke-linecap:square;stroke-width:1.5;"/>
   </g>
   <g id="line2d_35">
    <defs>
     <path d="M -0 8.485281 
L 5.091169 0 
L 0 -8.485281 
L -5.091169 -0 
z
" id="m36b1fbaaae" style="stroke:#ff00ff;stroke-linejoin:miter;stroke-width:1.5;"/>
    </defs>
    <g>
     <use style="fill-opacity:0;stroke:#ff00ff;stroke-linejoin:miter;stroke-width:1.5;" x="111.97238" xlink:href="#m36b1fbaaae" y="224.498263"/>
     <use style="fill-opacity:0;stroke:#ff00ff;stroke-linejoin:miter;stroke-width:1.5;" x="156.205398" xlink:href="#m36b1fbaaae" y="57.984624"/>
     <use style="fill-opacity:0;stroke:#ff00ff;stroke-linejoin:miter;stroke-width:1.5;" x="205.843053" xlink:href="#m36b1fbaaae" y="39.412761"/>
     <use style="fill-opacity:0;stroke:#ff00ff;stroke-linejoin:miter;stroke-width:1.5;" x="205.843053" xlink:href="#m36b1fbaaae" y="39.36"/>
     <use style="fill-opacity:0;stroke:#ff00ff;stroke-linejoin:miter;stroke-width:1.5;" x="205.843053" xlink:href="#m36b1fbaaae" y="39.36"/>
     <use style="fill-opacity:0;stroke:#ff00ff;stroke-linejoin:miter;stroke-width:1.5;" x="360.8064" xlink:href="#m36b1fbaaae" y="39.36"/>
    </g>
   </g>
   <g id="line2d_36">
    <path style="fill:none;stroke:#ff00ff;stroke-linecap:square;stroke-width:1.5;"/>
    <g/>
   </g>
   <g id="line2d_37">
    <path clip-path="url(#p5adb7552ca)" d="M 187.573796 41.734244 
" style="fill:none;stroke:#ff00ff;stroke-linecap:square;stroke-width:1.5;"/>
    <defs>
     <path d="M -12 12 
L 12 -12 
M -12 -12 
L 12 12 
" id="m4716a80479" style="stroke:#ff00ff;"/>
    </defs>
    <g clip-path="url(#p5adb7552ca)">
     <use style="fill:#ff00ff;stroke:#ff00ff;" x="187.573796" xlink:href="#m4716a80479" y="41.734244"/>
    </g>
   </g>
   <g id="line2d_38">
    <defs>
     <path d="M 0 1.5 
C 0.397805 1.5 0.77937 1.341951 1.06066 1.06066 
C 1.341951 0.77937 1.5 0.397805 1.5 0 
C 1.5 -0.397805 1.341951 -0.77937 1.06066 -1.06066 
C 0.77937 -1.341951 0.397805 -1.5 0 -1.5 
C -0.397805 -1.5 -0.77937 -1.341951 -1.06066 -1.06066 
C -1.341951 -0.77937 -1.5 -0.397805 -1.5 0 
C -1.5 0.397805 -1.341951 0.77937 -1.06066 1.06066 
C -0.77937 1.341951 -0.397805 1.5 0 1.5 
z
" id="mf209a8ba7d" style="stroke:#ff7500;"/>
    </defs>
    <g>
     <use style="fill:#ff7500;stroke:#ff7500;" x="201.511549" xlink:href="#mf209a8ba7d" y="6.912"/>
     <use style="fill:#ff7500;stroke:#ff7500;" x="201.511549" xlink:href="#mf209a8ba7d" y="6.912"/>
    </g>
   </g>
   <g id="line2d_39">
    <path d="M 44.560826 298.944 
L 44.560826 298.838478 
L 89.668958 298.838478 
L 89.668958 203.182829 
L 92.811505 203.182829 
L 92.811505 202.180371 
L 94.205591 202.180371 
L 94.205591 201.230673 
L 98.933205 201.230673 
L 98.933205 183.080898 
L 100.9152 183.080898 
L 100.9152 182.395005 
L 101.833019 182.395005 
L 101.833019 181.550829 
L 105.112877 181.550829 
L 105.112877 172.634224 
L 106.560633 172.634224 
L 106.560633 170.998634 
L 109.756698 170.945873 
L 109.756698 163.295532 
L 110.897141 163.242771 
L 110.897141 162.240312 
L 113.478107 162.240312 
L 113.478107 153.534751 
L 114.418881 153.534751 
L 114.418881 149.472156 
L 115.314838 149.472156 
L 115.314838 149.261112 
L 115.747307 149.261112 
L 115.747307 148.733502 
L 116.583514 148.733502 
L 116.583514 142.402185 
L 117.384126 142.402185 
L 117.384126 139.869659 
L 118.524569 139.764137 
L 118.524569 139.553093 
L 119.24818 139.500332 
L 119.24818 136.598478 
L 119.944983 136.598478 
L 119.944983 132.061034 
L 120.616896 132.061034 
L 120.616896 131.638946 
L 120.944062 131.638946 
L 120.944062 131.375141 
L 121.265635 131.375141 
L 121.265635 130.794771 
L 121.581803 130.794771 
L 121.581803 127.945678 
L 122.19863 127.945678 
L 122.19863 126.257327 
L 122.499621 126.257327 
L 122.499621 126.099044 
L 122.795872 126.099044 
L 122.795872 124.568976 
L 123.374735 124.568976 
L 123.374735 124.305171 
L 123.657621 124.305171 
L 123.657621 122.827863 
L 124.210942 122.722341 
L 124.210942 121.456078 
L 124.481616 121.456078 
L 124.481616 121.297795 
L 124.748451 121.297795 
L 124.748451 119.134595 
L 125.271028 119.134595 
L 125.271028 118.87079 
L 125.526971 118.87079 
L 125.526971 117.393483 
L 125.779479 117.393483 
L 125.779479 117.129678 
L 126.028642 117.129678 
L 126.028642 113.43641 
L 126.274549 113.43641 
L 126.274549 113.278127 
L 126.517282 113.278127 
L 126.517282 111.959102 
L 126.993549 111.906341 
L 126.993549 110.21799 
L 127.227236 110.21799 
L 127.227236 108.846205 
L 127.458055 108.846205 
L 127.458055 108.635161 
L 127.686077 108.635161 
L 127.686077 107.47442 
L 127.911368 107.47442 
L 127.911368 106.999571 
L 128.133992 106.999571 
L 128.133992 105.627785 
L 128.57149 105.627785 
L 128.57149 104.414283 
L 128.786481 104.414283 
L 128.786481 103.886673 
L 129.209231 103.781151 
L 129.209231 101.934517 
L 129.417095 101.934517 
L 129.417095 101.723473 
L 129.622688 101.723473 
L 129.622688 100.140644 
L 130.027253 100.087883 
L 130.027253 98.610576 
L 130.226319 98.610576 
L 130.226319 98.452293 
L 130.4233 98.452293 
L 130.4233 98.135727 
L 130.618241 98.135727 
L 130.618241 96.71118 
L 130.811181 96.71118 
L 130.811181 95.919766 
L 131.002163 95.919766 
L 131.002163 95.233873 
L 131.191226 95.233873 
L 131.191226 94.970068 
L 131.378407 94.970068 
L 131.378407 93.176195 
L 131.747272 93.176195 
L 131.747272 92.648585 
L 131.929028 92.648585 
L 131.929028 92.226498 
L 132.109044 92.226498 
L 132.109044 91.224039 
L 132.287354 91.224039 
L 132.287354 90.643668 
L 132.46399 90.643668 
L 132.46399 89.588449 
L 132.638982 89.588449 
L 132.638982 87.636293 
L 132.812362 87.636293 
L 132.812362 86.792117 
L 132.984158 86.792117 
L 132.984158 85.789659 
L 133.154399 85.789659 
L 133.154399 85.578615 
L 133.323114 85.578615 
L 133.323114 84.892722 
L 133.656071 84.892722 
L 133.656071 83.837502 
L 133.820365 83.837502 
L 133.820365 83.15161 
L 133.983236 83.15161 
L 133.983236 82.887805 
L 134.14471 82.887805 
L 134.14471 82.043629 
L 134.463557 81.990868 
L 134.463557 81.621541 
L 134.77709 81.621541 
L 134.77709 81.357737 
L 134.931919 81.357737 
L 134.931919 80.777366 
L 135.085483 80.777366 
L 135.085483 80.038712 
L 135.237805 80.038712 
L 135.237805 78.561405 
L 135.835047 78.508644 
L 135.835047 78.2976 
L 135.981441 78.2976 
L 135.981441 77.981034 
L 136.413909 77.981034 
L 136.413909 77.76999 
L 136.555884 77.76999 
L 136.555884 77.611707 
L 136.696795 77.611707 
L 136.696795 77.295141 
L 136.836659 77.295141 
L 136.836659 76.978576 
L 136.97549 76.978576 
L 136.97549 76.820293 
L 137.38594 76.820293 
L 137.38594 76.398205 
L 137.919637 76.292683 
L 137.919637 75.976117 
L 138.050729 75.976117 
L 138.050729 75.765073 
L 138.310202 75.765073 
L 138.310202 75.60679 
L 138.438609 75.60679 
L 138.438609 75.342985 
L 138.692823 75.342985 
L 138.692823 74.393288 
L 138.943648 74.393288 
L 138.943648 73.390829 
L 139.191172 73.390829 
L 139.191172 73.127024 
L 139.676658 73.021502 
L 139.676658 72.757698 
L 139.914782 72.652176 
L 139.914782 72.546654 
L 140.032723 72.546654 
L 140.032723 72.388371 
L 140.382174 72.388371 
L 140.382174 71.122107 
L 140.49723 71.122107 
L 140.49723 70.805541 
L 140.838234 70.75278 
L 140.838234 70.225171 
L 141.393187 70.17241 
L 141.393187 69.803083 
L 141.610664 69.803083 
L 141.610664 69.11719 
L 141.932237 69.11719 
L 141.932237 68.906146 
L 142.143605 68.906146 
L 142.248405 68.378537 
L 142.352625 68.378537 
L 142.45627 67.639883 
L 142.966099 67.587122 
L 143.066428 67.006751 
L 143.166224 67.006751 
L 143.265494 66.42638 
L 143.754133 66.37362 
L 143.850356 65.898771 
L 144.041338 65.898771 
L 144.041338 65.265639 
L 144.324223 65.212878 
L 144.417581 64.949073 
L 144.694906 64.843551 
L 144.786447 63.999376 
L 144.968202 63.999376 
L 144.968202 63.788332 
L 145.237585 63.788332 
L 145.237585 63.577288 
L 145.415054 63.577288 
L 145.503164 62.785873 
L 145.590864 62.785873 
L 145.678157 62.522068 
L 145.765046 62.522068 
L 145.765046 62.311024 
L 146.023332 62.311024 
L 146.023332 61.836176 
L 146.27812 61.730654 
L 146.362288 61.308566 
L 146.529503 61.308566 
L 146.612557 60.622673 
L 146.695245 60.622673 
L 146.777571 59.831259 
L 146.859539 59.831259 
L 146.859539 59.620215 
L 147.183884 59.514693 
L 147.264104 59.145366 
L 147.343984 59.145366 
L 147.343984 58.881561 
L 147.816265 58.8288 
L 147.893838 58.459473 
L 148.124658 58.459473 
L 148.200973 57.298732 
L 148.352679 57.19321 
L 148.352679 56.982166 
L 148.652472 56.982166 
L 148.652472 56.560078 
L 148.800595 56.560078 
L 148.800595 56.296273 
L 149.020615 56.296273 
L 149.093387 55.768663 
L 149.381693 55.663141 
L 149.381693 55.241054 
L 149.524205 55.241054 
L 149.595059 54.818966 
L 149.665646 54.818966 
L 149.665646 53.869268 
L 149.806031 53.869268 
L 149.875833 52.391961 
L 150.083698 52.3392 
L 150.083698 52.180917 
L 150.492661 52.180917 
L 150.559965 51.81159 
L 150.8268 51.706068 
L 150.8268 51.653307 
L 151.155108 51.547785 
L 151.155108 51.23122 
L 151.41369 51.178459 
L 151.477784 50.914654 
L 151.54166 50.914654 
L 151.60532 50.176 
L 152.045009 50.176 
L 152.045009 49.701151 
L 152.16877 49.701151 
L 152.16877 49.437346 
L 152.474656 49.437346 
L 152.474656 49.279063 
L 152.715833 49.279063 
L 152.775647 49.015259 
L 153.130592 49.015259 
L 153.189104 48.487649 
L 153.421349 48.487649 
L 153.421349 48.171083 
L 153.536404 48.171083 
L 153.593669 46.746537 
L 153.764426 46.746537 
L 153.764426 46.37721 
L 154.04562 46.271688 
L 154.04562 46.007883 
L 154.971412 45.955122 
L 154.971412 45.796839 
L 155.235253 45.796839 
L 155.339761 45.110946 
L 155.598521 45.058185 
L 155.701037 44.477815 
L 156.403417 44.372293 
L 156.403417 43.106029 
L 157.080512 43.053268 
L 157.080512 42.894985 
L 157.222487 42.894985 
L 157.222487 42.525659 
L 157.363398 42.525659 
L 157.363398 42.05081 
L 157.503261 42.05081 
L 157.549652 41.681483 
L 157.688143 41.681483 
L 157.688143 41.259395 
L 158.187393 41.153873 
L 158.187393 40.942829 
L 158.321284 40.942829 
L 158.410018 40.573502 
L 158.498335 40.573502 
L 158.542339 39.993132 
L 158.630038 39.993132 
L 158.673735 39.782088 
L 158.847515 39.676566 
L 158.933807 39.307239 
L 159.14782 39.307239 
L 159.232748 38.990673 
L 159.317295 38.990673 
L 159.317295 38.515824 
L 159.61025 38.410302 
L 159.61025 38.30478 
L 159.898714 38.25202 
L 159.898714 37.988215 
L 160.061585 37.935454 
L 160.061585 37.777171 
L 160.263211 37.777171 
L 160.263211 37.355083 
L 160.383158 37.355083 
L 160.422971 36.880234 
L 160.660094 36.880234 
L 160.699326 36.036059 
L 160.97168 36.036059 
L 161.010268 35.56121 
L 161.240147 35.56121 
L 161.316153 35.244644 
L 161.354042 35.244644 
L 161.354042 34.928078 
L 161.504837 34.822556 
L 161.504837 34.50599 
L 161.802848 34.453229 
L 161.802848 34.136663 
L 162.05979 34.136663 
L 162.05979 33.503532 
L 162.420867 33.503532 
L 162.492258 33.292488 
L 162.56338 33.292488 
L 162.56338 33.134205 
L 163.088387 33.028683 
L 163.088387 32.8704 
L 163.22595 32.8704 
L 163.22595 32.712117 
L 164.516958 32.606595 
L 164.516958 32.395551 
L 164.644495 32.395551 
L 164.676244 31.973463 
L 164.897003 31.920702 
L 164.897003 31.709659 
L 165.483464 31.604137 
L 165.483464 31.340332 
L 165.695002 31.340332 
L 165.784938 30.654439 
L 165.993131 30.654439 
L 165.993131 30.17959 
L 166.489353 30.126829 
L 166.575579 28.702283 
L 166.689935 28.702283 
L 166.775248 27.910868 
L 166.888401 27.910868 
L 166.888401 27.752585 
L 167.334325 27.752585 
L 167.38933 27.013932 
L 167.553385 27.013932 
L 167.553385 26.802888 
L 167.769923 26.750127 
L 167.796816 26.591844 
L 167.904005 26.591844 
L 167.983997 26.116995 
L 168.090128 26.116995 
L 168.169334 25.061776 
L 168.378936 24.956254 
L 168.378936 24.903493 
L 168.508761 24.903493 
L 168.560441 24.692449 
L 168.689024 24.692449 
L 168.740211 24.2176 
L 170.143423 24.2176 
L 170.143423 23.953795 
L 170.681267 23.953795 
L 170.681267 23.742751 
L 171.136775 23.68999 
L 171.136775 23.584468 
L 171.581513 23.478946 
L 171.581513 23.320663 
L 171.71291 23.320663 
L 171.73472 22.845815 
L 174.525228 22.793054 
L 174.618958 21.843356 
L 174.7494 21.843356 
L 174.786503 21.52679 
L 174.878944 21.52679 
L 174.878944 21.262985 
L 175.531433 21.157463 
L 175.531433 20.99918 
L 175.655719 20.99918 
L 175.655719 20.524332 
L 176.058402 20.524332 
L 176.058402 20.102244 
L 176.179266 20.102244 
L 176.179266 19.943961 
L 176.520373 19.8912 
L 176.520373 19.785678 
L 179.398443 19.732917 
L 179.499697 19.416351 
L 179.60041 19.416351 
L 179.700586 19.099785 
L 179.800231 19.099785 
L 179.899351 18.624937 
L 180.096038 18.519415 
L 180.193616 17.675239 
L 184.554643 17.622478 
L 184.653623 16.831063 
L 184.828311 16.778302 
L 184.828311 16.62002 
L 184.979843 16.62002 
L 185.076616 16.039649 
L 185.130164 16.039649 
L 185.226169 15.353756 
L 185.300502 15.353756 
L 185.374543 14.773385 
L 185.574053 14.773385 
L 185.626206 13.454361 
L 188.436526 13.454361 
L 188.436526 13.296078 
L 196.31052 13.190556 
L 196.392976 12.399141 
L 196.475071 12.29362 
L 196.55681 11.343922 
L 196.655589 11.343922 
L 196.655589 11.185639 
L 198.836466 11.132878 
L 198.918861 10.605268 
L 198.954795 10.605268 
L 198.954795 10.394224 
L 199.097849 10.394224 
L 199.133443 9.0752 
L 201.06304 8.969678 
L 201.168197 7.756176 
L 201.263699 7.650654 
L 201.345173 7.281327 
L 201.462239 7.281327 
L 201.511549 6.912 
L 360.8064 6.912 
L 360.8064 6.912 
" style="fill:none;stroke:#ff7500;stroke-linecap:square;stroke-width:1.5;"/>
   </g>
   <g id="line2d_40">
    <defs>
     <path d="M 0 -6 
L -1.347084 -1.854102 
L -5.706339 -1.854102 
L -2.179628 0.708204 
L -3.526712 4.854102 
L -0 2.291796 
L 3.526712 4.854102 
L 2.179628 0.708204 
L 5.706339 -1.854102 
L 1.347084 -1.854102 
z
" id="m4ab7633b6d" style="stroke:#ff7500;stroke-linejoin:bevel;stroke-width:1.5;"/>
    </defs>
    <g>
     <use style="fill-opacity:0;stroke:#ff7500;stroke-linejoin:bevel;stroke-width:1.5;" x="106.560633" xlink:href="#m4ab7633b6d" y="172.634224"/>
     <use style="fill-opacity:0;stroke:#ff7500;stroke-linejoin:bevel;stroke-width:1.5;" x="136.97549" xlink:href="#m4ab7633b6d" y="76.978576"/>
     <use style="fill-opacity:0;stroke:#ff7500;stroke-linejoin:bevel;stroke-width:1.5;" x="201.511549" xlink:href="#m4ab7633b6d" y="6.964761"/>
     <use style="fill-opacity:0;stroke:#ff7500;stroke-linejoin:bevel;stroke-width:1.5;" x="201.511549" xlink:href="#m4ab7633b6d" y="6.912"/>
     <use style="fill-opacity:0;stroke:#ff7500;stroke-linejoin:bevel;stroke-width:1.5;" x="201.511549" xlink:href="#m4ab7633b6d" y="6.912"/>
     <use style="fill-opacity:0;stroke:#ff7500;stroke-linejoin:bevel;stroke-width:1.5;" x="360.8064" xlink:href="#m4ab7633b6d" y="6.912"/>
    </g>
   </g>
   <g id="line2d_41">
    <path style="fill:none;stroke:#ff7500;stroke-linecap:square;stroke-width:1.5;"/>
    <g/>
   </g>
   <g id="line2d_42">
    <path d="M 360.8064 39.36 
L 380.514816 293.10336 
" style="fill:none;stroke:#ff00ff;stroke-linecap:square;stroke-width:1.5;"/>
    <g>
     <use style="fill-opacity:0;stroke:#ff00ff;stroke-linejoin:miter;stroke-width:1.5;" x="360.8064" xlink:href="#m36b1fbaaae" y="39.36"/>
     <use style="fill-opacity:0;stroke:#ff00ff;stroke-linejoin:miter;stroke-width:1.5;" x="380.514816" xlink:href="#m36b1fbaaae" y="293.10336"/>
    </g>
   </g>
   <g id="line2d_43">
    <path d="M 360.8064 6.912 
L 380.514816 152.928 
" style="fill:none;stroke:#ff7500;stroke-linecap:square;stroke-width:1.5;"/>
    <g>
     <use style="fill-opacity:0;stroke:#ff7500;stroke-linejoin:bevel;stroke-width:1.5;" x="360.8064" xlink:href="#m4ab7633b6d" y="6.912"/>
     <use style="fill-opacity:0;stroke:#ff7500;stroke-linejoin:bevel;stroke-width:1.5;" x="380.514816" xlink:href="#m4ab7633b6d" y="152.928"/>
    </g>
   </g>
   <g id="line2d_44">
    <path d="M 360.8064 6.912 
L 380.514816 12.75264 
" style="fill:none;stroke:#000080;stroke-linecap:square;stroke-width:1.5;"/>
    <g>
     <use style="fill-opacity:0;stroke:#000080;stroke-width:1.5;" x="360.8064" xlink:href="#m320f6fa1ee" y="6.912"/>
     <use style="fill-opacity:0;stroke:#000080;stroke-width:1.5;" x="380.514816" xlink:href="#m320f6fa1ee" y="12.75264"/>
    </g>
   </g>
   <g id="line2d_45">
    <path d="M 360.8064 298.944 
L 360.8064 6.912 
" style="fill:none;stroke:#000000;stroke-linecap:square;stroke-width:1.5;"/>
   </g>
   <g id="patch_3">
    <path d="M 57.6 298.944 
L 360.8064 298.944 
" style="fill:none;stroke:#000000;stroke-linecap:square;stroke-linejoin:miter;stroke-width:0.8;"/>
   </g>
   <g id="patch_4">
    <path d="M 57.6 6.912 
L 360.8064 6.912 
" style="fill:none;stroke:#000000;stroke-linecap:square;stroke-linejoin:miter;stroke-width:0.8;"/>
   </g>
   <g id="text_13">
    <!-- fmincon -->
    <g transform="translate(386.578944 296.966485)scale(0.14 -0.14)">
     <use xlink:href="#DejaVuSans-102"/>
     <use x="35.205078" xlink:href="#DejaVuSans-109"/>
     <use x="132.617188" xlink:href="#DejaVuSans-105"/>
     <use x="160.400391" xlink:href="#DejaVuSans-110"/>
     <use x="223.779297" xlink:href="#DejaVuSans-99"/>
     <use x="278.759766" xlink:href="#DejaVuSans-111"/>
     <use x="339.941406" xlink:href="#DejaVuSans-110"/>
    </g>
   </g>
   <g id="text_14">
    <!-- slsqp -->
    <g transform="translate(386.578944 156.791125)scale(0.14 -0.14)">
     <defs>
      <path d="M 14.796875 27.296875 
Q 14.796875 17.390625 18.875 11.75 
Q 22.953125 6.109375 30.078125 6.109375 
Q 37.203125 6.109375 41.296875 11.75 
Q 45.40625 17.390625 45.40625 27.296875 
Q 45.40625 37.203125 41.296875 42.84375 
Q 37.203125 48.484375 30.078125 48.484375 
Q 22.953125 48.484375 18.875 42.84375 
Q 14.796875 37.203125 14.796875 27.296875 
z
M 45.40625 8.203125 
Q 42.578125 3.328125 38.25 0.953125 
Q 33.9375 -1.421875 27.875 -1.421875 
Q 17.96875 -1.421875 11.734375 6.484375 
Q 5.515625 14.40625 5.515625 27.296875 
Q 5.515625 40.1875 11.734375 48.09375 
Q 17.96875 56 27.875 56 
Q 33.9375 56 38.25 53.625 
Q 42.578125 51.265625 45.40625 46.390625 
L 45.40625 54.6875 
L 54.390625 54.6875 
L 54.390625 -20.796875 
L 45.40625 -20.796875 
z
" id="DejaVuSans-113"/>
     </defs>
     <use xlink:href="#DejaVuSans-115"/>
     <use x="52.099609" xlink:href="#DejaVuSans-108"/>
     <use x="79.882812" xlink:href="#DejaVuSans-115"/>
     <use x="131.982422" xlink:href="#DejaVuSans-113"/>
     <use x="195.458984" xlink:href="#DejaVuSans-112"/>
    </g>
   </g>
   <g id="text_15">
    <!-- cobyla -->
    <g transform="translate(386.578944 16.615765)scale(0.14 -0.14)">
     <defs>
      <path d="M 48.6875 27.296875 
Q 48.6875 37.203125 44.609375 42.84375 
Q 40.53125 48.484375 33.40625 48.484375 
Q 26.265625 48.484375 22.1875 42.84375 
Q 18.109375 37.203125 18.109375 27.296875 
Q 18.109375 17.390625 22.1875 11.75 
Q 26.265625 6.109375 33.40625 6.109375 
Q 40.53125 6.109375 44.609375 11.75 
Q 48.6875 17.390625 48.6875 27.296875 
z
M 18.109375 46.390625 
Q 20.953125 51.265625 25.265625 53.625 
Q 29.59375 56 35.59375 56 
Q 45.5625 56 51.78125 48.09375 
Q 58.015625 40.1875 58.015625 27.296875 
Q 58.015625 14.40625 51.78125 6.484375 
Q 45.5625 -1.421875 35.59375 -1.421875 
Q 29.59375 -1.421875 25.265625 0.953125 
Q 20.953125 3.328125 18.109375 8.203125 
L 18.109375 0 
L 9.078125 0 
L 9.078125 75.984375 
L 18.109375 75.984375 
z
" id="DejaVuSans-98"/>
      <path d="M 32.171875 -5.078125 
Q 28.375 -14.84375 24.75 -17.8125 
Q 21.140625 -20.796875 15.09375 -20.796875 
L 7.90625 -20.796875 
L 7.90625 -13.28125 
L 13.1875 -13.28125 
Q 16.890625 -13.28125 18.9375 -11.515625 
Q 21 -9.765625 23.484375 -3.21875 
L 25.09375 0.875 
L 2.984375 54.6875 
L 12.5 54.6875 
L 29.59375 11.921875 
L 46.6875 54.6875 
L 56.203125 54.6875 
z
" id="DejaVuSans-121"/>
     </defs>
     <use xlink:href="#DejaVuSans-99"/>
     <use x="54.980469" xlink:href="#DejaVuSans-111"/>
     <use x="116.162109" xlink:href="#DejaVuSans-98"/>
     <use x="179.638672" xlink:href="#DejaVuSans-121"/>
     <use x="238.818359" xlink:href="#DejaVuSans-108"/>
     <use x="266.601562" xlink:href="#DejaVuSans-97"/>
    </g>
   </g>
   <g id="text_16">
    <!-- bbob-constrained f5, f11, f17, f23, f29, f35, f41, f47, f53, 2-D -->
    <g transform="translate(60.632064 17.582726)scale(0.102 -0.102)">
     <defs>
      <path d="M 4.890625 31.390625 
L 31.203125 31.390625 
L 31.203125 23.390625 
L 4.890625 23.390625 
z
" id="DejaVuSans-45"/>
      <path d="M 10.796875 72.90625 
L 49.515625 72.90625 
L 49.515625 64.59375 
L 19.828125 64.59375 
L 19.828125 46.734375 
Q 21.96875 47.46875 24.109375 47.828125 
Q 26.265625 48.1875 28.421875 48.1875 
Q 40.625 48.1875 47.75 41.5 
Q 54.890625 34.8125 54.890625 23.390625 
Q 54.890625 11.625 47.5625 5.09375 
Q 40.234375 -1.421875 26.90625 -1.421875 
Q 22.3125 -1.421875 17.546875 -0.640625 
Q 12.796875 0.140625 7.71875 1.703125 
L 7.71875 11.625 
Q 12.109375 9.234375 16.796875 8.0625 
Q 21.484375 6.890625 26.703125 6.890625 
Q 35.15625 6.890625 40.078125 11.328125 
Q 45.015625 15.765625 45.015625 23.390625 
Q 45.015625 31 40.078125 35.4375 
Q 35.15625 39.890625 26.703125 39.890625 
Q 22.75 39.890625 18.8125 39.015625 
Q 14.890625 38.140625 10.796875 36.28125 
z
" id="DejaVuSans-53"/>
      <path d="M 8.203125 72.90625 
L 55.078125 72.90625 
L 55.078125 68.703125 
L 28.609375 0 
L 18.3125 0 
L 43.21875 64.59375 
L 8.203125 64.59375 
z
" id="DejaVuSans-55"/>
      <path d="M 40.578125 39.3125 
Q 47.65625 37.796875 51.625 33 
Q 55.609375 28.21875 55.609375 21.1875 
Q 55.609375 10.40625 48.1875 4.484375 
Q 40.765625 -1.421875 27.09375 -1.421875 
Q 22.515625 -1.421875 17.65625 -0.515625 
Q 12.796875 0.390625 7.625 2.203125 
L 7.625 11.71875 
Q 11.71875 9.328125 16.59375 8.109375 
Q 21.484375 6.890625 26.8125 6.890625 
Q 36.078125 6.890625 40.9375 10.546875 
Q 45.796875 14.203125 45.796875 21.1875 
Q 45.796875 27.640625 41.28125 31.265625 
Q 36.765625 34.90625 28.71875 34.90625 
L 20.21875 34.90625 
L 20.21875 43.015625 
L 29.109375 43.015625 
Q 36.375 43.015625 40.234375 45.921875 
Q 44.09375 48.828125 44.09375 54.296875 
Q 44.09375 59.90625 40.109375 62.90625 
Q 36.140625 65.921875 28.71875 65.921875 
Q 24.65625 65.921875 20.015625 65.03125 
Q 15.375 64.15625 9.8125 62.3125 
L 9.8125 71.09375 
Q 15.4375 72.65625 20.34375 73.4375 
Q 25.25 74.21875 29.59375 74.21875 
Q 40.828125 74.21875 47.359375 69.109375 
Q 53.90625 64.015625 53.90625 55.328125 
Q 53.90625 49.265625 50.4375 45.09375 
Q 46.96875 40.921875 40.578125 39.3125 
z
" id="DejaVuSans-51"/>
      <path d="M 10.984375 1.515625 
L 10.984375 10.5 
Q 14.703125 8.734375 18.5 7.8125 
Q 22.3125 6.890625 25.984375 6.890625 
Q 35.75 6.890625 40.890625 13.453125 
Q 46.046875 20.015625 46.78125 33.40625 
Q 43.953125 29.203125 39.59375 26.953125 
Q 35.25 24.703125 29.984375 24.703125 
Q 19.046875 24.703125 12.671875 31.3125 
Q 6.296875 37.9375 6.296875 49.421875 
Q 6.296875 60.640625 12.9375 67.421875 
Q 19.578125 74.21875 30.609375 74.21875 
Q 43.265625 74.21875 49.921875 64.515625 
Q 56.59375 54.828125 56.59375 36.375 
Q 56.59375 19.140625 48.40625 8.859375 
Q 40.234375 -1.421875 26.421875 -1.421875 
Q 22.703125 -1.421875 18.890625 -0.6875 
Q 15.09375 0.046875 10.984375 1.515625 
z
M 30.609375 32.421875 
Q 37.25 32.421875 41.125 36.953125 
Q 45.015625 41.5 45.015625 49.421875 
Q 45.015625 57.28125 41.125 61.84375 
Q 37.25 66.40625 30.609375 66.40625 
Q 23.96875 66.40625 20.09375 61.84375 
Q 16.21875 57.28125 16.21875 49.421875 
Q 16.21875 41.5 20.09375 36.953125 
Q 23.96875 32.421875 30.609375 32.421875 
z
" id="DejaVuSans-57"/>
      <path d="M 19.671875 64.796875 
L 19.671875 8.109375 
L 31.59375 8.109375 
Q 46.6875 8.109375 53.6875 14.9375 
Q 60.6875 21.78125 60.6875 36.53125 
Q 60.6875 51.171875 53.6875 57.984375 
Q 46.6875 64.796875 31.59375 64.796875 
z
M 9.8125 72.90625 
L 30.078125 72.90625 
Q 51.265625 72.90625 61.171875 64.09375 
Q 71.09375 55.28125 71.09375 36.53125 
Q 71.09375 17.671875 61.125 8.828125 
Q 51.171875 0 30.078125 0 
L 9.8125 0 
z
" id="DejaVuSans-68"/>
     </defs>
     <use xlink:href="#DejaVuSans-98"/>
     <use x="63.476562" xlink:href="#DejaVuSans-98"/>
     <use x="126.953125" xlink:href="#DejaVuSans-111"/>
     <use x="188.134766" xlink:href="#DejaVuSans-98"/>
     <use x="251.611328" xlink:href="#DejaVuSans-45"/>
     <use x="287.695312" xlink:href="#DejaVuSans-99"/>
     <use x="342.675781" xlink:href="#DejaVuSans-111"/>
     <use x="403.857422" xlink:href="#DejaVuSans-110"/>
     <use x="467.236328" xlink:href="#DejaVuSans-115"/>
     <use x="519.335938" xlink:href="#DejaVuSans-116"/>
     <use x="558.544922" xlink:href="#DejaVuSans-114"/>
     <use x="599.658203" xlink:href="#DejaVuSans-97"/>
     <use x="660.9375" xlink:href="#DejaVuSans-105"/>
     <use x="688.720703" xlink:href="#DejaVuSans-110"/>
     <use x="752.099609" xlink:href="#DejaVuSans-101"/>
     <use x="813.623047" xlink:href="#DejaVuSans-100"/>
     <use x="877.099609" xlink:href="#DejaVuSans-32"/>
     <use x="908.886719" xlink:href="#DejaVuSans-102"/>
     <use x="944.091797" xlink:href="#DejaVuSans-53"/>
     <use x="1007.714844" xlink:href="#DejaVuSans-44"/>
     <use x="1039.501953" xlink:href="#DejaVuSans-32"/>
     <use x="1071.289062" xlink:href="#DejaVuSans-102"/>
     <use x="1106.494141" xlink:href="#DejaVuSans-49"/>
     <use x="1170.117188" xlink:href="#DejaVuSans-49"/>
     <use x="1233.740234" xlink:href="#DejaVuSans-44"/>
     <use x="1265.527344" xlink:href="#DejaVuSans-32"/>
     <use x="1297.314453" xlink:href="#DejaVuSans-102"/>
     <use x="1332.519531" xlink:href="#DejaVuSans-49"/>
     <use x="1396.142578" xlink:href="#DejaVuSans-55"/>
     <use x="1459.765625" xlink:href="#DejaVuSans-44"/>
     <use x="1491.552734" xlink:href="#DejaVuSans-32"/>
     <use x="1523.339844" xlink:href="#DejaVuSans-102"/>
     <use x="1558.544922" xlink:href="#DejaVuSans-50"/>
     <use x="1622.167969" xlink:href="#DejaVuSans-51"/>
     <use x="1685.791016" xlink:href="#DejaVuSans-44"/>
     <use x="1717.578125" xlink:href="#DejaVuSans-32"/>
     <use x="1749.365234" xlink:href="#DejaVuSans-102"/>
     <use x="1784.570312" xlink:href="#DejaVuSans-50"/>
     <use x="1848.193359" xlink:href="#DejaVuSans-57"/>
     <use x="1911.816406" xlink:href="#DejaVuSans-44"/>
     <use x="1943.603516" xlink:href="#DejaVuSans-32"/>
     <use x="1975.390625" xlink:href="#DejaVuSans-102"/>
     <use x="2010.595703" xlink:href="#DejaVuSans-51"/>
     <use x="2074.21875" xlink:href="#DejaVuSans-53"/>
     <use x="2137.841797" xlink:href="#DejaVuSans-44"/>
     <use x="2169.628906" xlink:href="#DejaVuSans-32"/>
     <use x="2201.416016" xlink:href="#DejaVuSans-102"/>
     <use x="2236.621094" xlink:href="#DejaVuSans-52"/>
     <use x="2300.244141" xlink:href="#DejaVuSans-49"/>
     <use x="2363.867188" xlink:href="#DejaVuSans-44"/>
     <use x="2395.654297" xlink:href="#DejaVuSans-32"/>
     <use x="2427.441406" xlink:href="#DejaVuSans-102"/>
     <use x="2462.646484" xlink:href="#DejaVuSans-52"/>
     <use x="2526.269531" xlink:href="#DejaVuSans-55"/>
     <use x="2589.892578" xlink:href="#DejaVuSans-44"/>
     <use x="2621.679688" xlink:href="#DejaVuSans-32"/>
     <use x="2653.466797" xlink:href="#DejaVuSans-102"/>
     <use x="2688.671875" xlink:href="#DejaVuSans-53"/>
     <use x="2752.294922" xlink:href="#DejaVuSans-51"/>
     <use x="2815.917969" xlink:href="#DejaVuSans-44"/>
     <use x="2847.705078" xlink:href="#DejaVuSans-32"/>
     <use x="2879.492188" xlink:href="#DejaVuSans-50"/>
     <use x="2943.115234" xlink:href="#DejaVuSans-45"/>
     <use x="2979.199219" xlink:href="#DejaVuSans-68"/>
    </g>
    <!-- 41 targets: 100..1e-06 -->
    <g transform="translate(60.632064 29.004495)scale(0.102 -0.102)">
     <defs>
      <path d="M 11.71875 12.40625 
L 22.015625 12.40625 
L 22.015625 0 
L 11.71875 0 
z
M 11.71875 51.703125 
L 22.015625 51.703125 
L 22.015625 39.3125 
L 11.71875 39.3125 
z
" id="DejaVuSans-58"/>
     </defs>
     <use xlink:href="#DejaVuSans-52"/>
     <use x="63.623047" xlink:href="#DejaVuSans-49"/>
     <use x="127.246094" xlink:href="#DejaVuSans-32"/>
     <use x="159.033203" xlink:href="#DejaVuSans-116"/>
     <use x="198.242188" xlink:href="#DejaVuSans-97"/>
     <use x="259.521484" xlink:href="#DejaVuSans-114"/>
     <use x="298.884766" xlink:href="#DejaVuSans-103"/>
     <use x="362.361328" xlink:href="#DejaVuSans-101"/>
     <use x="423.884766" xlink:href="#DejaVuSans-116"/>
     <use x="463.09375" xlink:href="#DejaVuSans-115"/>
     <use x="515.193359" xlink:href="#DejaVuSans-58"/>
     <use x="548.884766" xlink:href="#DejaVuSans-32"/>
     <use x="580.671875" xlink:href="#DejaVuSans-49"/>
     <use x="644.294922" xlink:href="#DejaVuSans-48"/>
     <use x="707.917969" xlink:href="#DejaVuSans-48"/>
     <use x="771.541016" xlink:href="#DejaVuSans-46"/>
     <use x="803.328125" xlink:href="#DejaVuSans-46"/>
     <use x="835.115234" xlink:href="#DejaVuSans-49"/>
     <use x="898.738281" xlink:href="#DejaVuSans-101"/>
     <use x="960.261719" xlink:href="#DejaVuSans-45"/>
     <use x="996.345703" xlink:href="#DejaVuSans-48"/>
     <use x="1059.96875" xlink:href="#DejaVuSans-54"/>
    </g>
    <!-- evals = f-evals + g-evals -->
    <g transform="translate(60.632064 40.426264)scale(0.102 -0.102)">
     <defs>
      <path d="M 10.59375 45.40625 
L 73.1875 45.40625 
L 73.1875 37.203125 
L 10.59375 37.203125 
z
M 10.59375 25.484375 
L 73.1875 25.484375 
L 73.1875 17.1875 
L 10.59375 17.1875 
z
" id="DejaVuSans-61"/>
      <path d="M 46 62.703125 
L 46 35.5 
L 73.1875 35.5 
L 73.1875 27.203125 
L 46 27.203125 
L 46 0 
L 37.796875 0 
L 37.796875 27.203125 
L 10.59375 27.203125 
L 10.59375 35.5 
L 37.796875 35.5 
L 37.796875 62.703125 
z
" id="DejaVuSans-43"/>
     </defs>
     <use xlink:href="#DejaVuSans-101"/>
     <use x="61.523438" xlink:href="#DejaVuSans-118"/>
     <use x="120.703125" xlink:href="#DejaVuSans-97"/>
     <use x="181.982422" xlink:href="#DejaVuSans-108"/>
     <use x="209.765625" xlink:href="#DejaVuSans-115"/>
     <use x="261.865234" xlink:href="#DejaVuSans-32"/>
     <use x="293.652344" xlink:href="#DejaVuSans-61"/>
     <use x="377.441406" xlink:href="#DejaVuSans-32"/>
     <use x="409.228516" xlink:href="#DejaVuSans-102"/>
     <use x="438.933594" xlink:href="#DejaVuSans-45"/>
     <use x="475.017578" xlink:href="#DejaVuSans-101"/>
     <use x="536.541016" xlink:href="#DejaVuSans-118"/>
     <use x="595.720703" xlink:href="#DejaVuSans-97"/>
     <use x="657" xlink:href="#DejaVuSans-108"/>
     <use x="684.783203" xlink:href="#DejaVuSans-115"/>
     <use x="736.882812" xlink:href="#DejaVuSans-32"/>
     <use x="768.669922" xlink:href="#DejaVuSans-43"/>
     <use x="852.458984" xlink:href="#DejaVuSans-32"/>
     <use x="884.246094" xlink:href="#DejaVuSans-103"/>
     <use x="947.722656" xlink:href="#DejaVuSans-45"/>
     <use x="983.806641" xlink:href="#DejaVuSans-101"/>
     <use x="1045.330078" xlink:href="#DejaVuSans-118"/>
     <use x="1104.509766" xlink:href="#DejaVuSans-97"/>
     <use x="1165.789062" xlink:href="#DejaVuSans-108"/>
     <use x="1193.572266" xlink:href="#DejaVuSans-115"/>
    </g>
    <!-- 15 instances -->
    <g transform="translate(60.632064 51.848032)scale(0.102 -0.102)">
     <use xlink:href="#DejaVuSans-49"/>
     <use x="63.623047" xlink:href="#DejaVuSans-53"/>
     <use x="127.246094" xlink:href="#DejaVuSans-32"/>
     <use x="159.033203" xlink:href="#DejaVuSans-105"/>
     <use x="186.816406" xlink:href="#DejaVuSans-110"/>
     <use x="250.195312" xlink:href="#DejaVuSans-115"/>
     <use x="302.294922" xlink:href="#DejaVuSans-116"/>
     <use x="341.503906" xlink:href="#DejaVuSans-97"/>
     <use x="402.783203" xlink:href="#DejaVuSans-110"/>
     <use x="466.162109" xlink:href="#DejaVuSans-99"/>
     <use x="521.142578" xlink:href="#DejaVuSans-101"/>
     <use x="582.666016" xlink:href="#DejaVuSans-115"/>
    </g>
   </g>
   <g id="text_17">
    <!-- v2.4.159 -->
    <g style="fill:#808080;" transform="translate(187.15945 293.943992)scale(0.1 -0.1)">
     <use xlink:href="#DejaVuSans-118"/>
     <use x="59.179688" xlink:href="#DejaVuSans-50"/>
     <use x="122.802734" xlink:href="#DejaVuSans-46"/>
     <use x="154.589844" xlink:href="#DejaVuSans-52"/>
     <use x="218.212891" xlink:href="#DejaVuSans-46"/>
     <use x="250" xlink:href="#DejaVuSans-49"/>
     <use x="313.623047" xlink:href="#DejaVuSans-53"/>
     <use x="377.246094" xlink:href="#DejaVuSans-57"/>
    </g>
   </g>
  </g>
 </g>
 <defs>
  <clipPath id="p5adb7552ca">
   <rect height="292.032" width="303.2064" x="57.6" y="6.912"/>
  </clipPath>
 </defs>
</svg>
