<?xml version="1.0" encoding="utf-8" standalone="no"?>
<!DOCTYPE svg PUBLIC "-//W3C//DTD SVG 1.1//EN"
  "http://www.w3.org/Graphics/SVG/1.1/DTD/svg11.dtd">
<!-- Created with matplotlib (https://matplotlib.org/) -->
<svg height="345.6pt" version="1.1" viewBox="0 0 460.8 345.6" width="460.8pt" xmlns="http://www.w3.org/2000/svg" xmlns:xlink="http://www.w3.org/1999/xlink">
 <metadata>
  <rdf:RDF xmlns:cc="http://creativecommons.org/ns#" xmlns:dc="http://purl.org/dc/elements/1.1/" xmlns:rdf="http://www.w3.org/1999/02/22-rdf-syntax-ns#">
   <cc:Work>
    <dc:type rdf:resource="http://purl.org/dc/dcmitype/StillImage"/>
    <dc:date>2022-02-09T10:00:15.155271</dc:date>
    <dc:format>image/svg+xml</dc:format>
    <dc:creator>
     <cc:Agent>
      <dc:title>Matplotlib v3.3.3, https://matplotlib.org/</dc:title>
     </cc:Agent>
    </dc:creator>
   </cc:Work>
  </rdf:RDF>
 </metadata>
 <defs>
  <style type="text/css">*{stroke-linecap:butt;stroke-linejoin:round;}</style>
 </defs>
 <g id="figure_1">
  <g id="patch_1">
   <path d="M 0 345.6 
L 460.8 345.6 
L 460.8 0 
L 0 0 
z
" style="fill:#ffffff;"/>
  </g>
  <g id="axes_1">
   <g id="patch_2">
    <path d="M 57.6 298.944 
L 360.8064 298.944 
L 360.8064 6.912 
L 57.6 6.912 
z
" style="fill:#ffffff;"/>
   </g>
   <g id="matplotlib.axis_1">
    <g id="xtick_1">
     <g id="line2d_1">
      <path clip-path="url(#pf90e7fc1e3)" d="M 57.6 298.944 
L 57.6 6.912 
" style="fill:none;stroke:#b0b0b0;stroke-linecap:square;stroke-width:0.8;"/>
     </g>
     <g id="line2d_2">
      <defs>
       <path d="M 0 0 
L 0 3.5 
" id="m8563ca607e" style="stroke:#000000;stroke-width:0.8;"/>
      </defs>
      <g>
       <use style="stroke:#000000;stroke-width:0.8;" x="57.6" xlink:href="#m8563ca607e" y="298.944"/>
      </g>
     </g>
     <g id="text_1">
      <!-- 0 -->
      <g transform="translate(52.191875 318.861344)scale(0.17 -0.17)">
       <defs>
        <path d="M 31.78125 66.40625 
Q 24.171875 66.40625 20.328125 58.90625 
Q 16.5 51.421875 16.5 36.375 
Q 16.5 21.390625 20.328125 13.890625 
Q 24.171875 6.390625 31.78125 6.390625 
Q 39.453125 6.390625 43.28125 13.890625 
Q 47.125 21.390625 47.125 36.375 
Q 47.125 51.421875 43.28125 58.90625 
Q 39.453125 66.40625 31.78125 66.40625 
z
M 31.78125 74.21875 
Q 44.046875 74.21875 50.515625 64.515625 
Q 56.984375 54.828125 56.984375 36.375 
Q 56.984375 17.96875 50.515625 8.265625 
Q 44.046875 -1.421875 31.78125 -1.421875 
Q 19.53125 -1.421875 13.0625 8.265625 
Q 6.59375 17.96875 6.59375 36.375 
Q 6.59375 54.828125 13.0625 64.515625 
Q 19.53125 74.21875 31.78125 74.21875 
z
" id="DejaVuSans-48"/>
       </defs>
       <use xlink:href="#DejaVuSans-48"/>
      </g>
     </g>
    </g>
    <g id="xtick_2">
     <g id="line2d_3">
      <path clip-path="url(#pf90e7fc1e3)" d="M 144.2304 298.944 
L 144.2304 6.912 
" style="fill:none;stroke:#b0b0b0;stroke-linecap:square;stroke-width:0.8;"/>
     </g>
     <g id="line2d_4">
      <g>
       <use style="stroke:#000000;stroke-width:0.8;" x="144.2304" xlink:href="#m8563ca607e" y="298.944"/>
      </g>
     </g>
     <g id="text_2">
      <!-- 2 -->
      <g transform="translate(138.822275 318.861344)scale(0.17 -0.17)">
       <defs>
        <path d="M 19.1875 8.296875 
L 53.609375 8.296875 
L 53.609375 0 
L 7.328125 0 
L 7.328125 8.296875 
Q 12.9375 14.109375 22.625 23.890625 
Q 32.328125 33.6875 34.8125 36.53125 
Q 39.546875 41.84375 41.421875 45.53125 
Q 43.3125 49.21875 43.3125 52.78125 
Q 43.3125 58.59375 39.234375 62.25 
Q 35.15625 65.921875 28.609375 65.921875 
Q 23.96875 65.921875 18.8125 64.3125 
Q 13.671875 62.703125 7.8125 59.421875 
L 7.8125 69.390625 
Q 13.765625 71.78125 18.9375 73 
Q 24.125 74.21875 28.421875 74.21875 
Q 39.75 74.21875 46.484375 68.546875 
Q 53.21875 62.890625 53.21875 53.421875 
Q 53.21875 48.921875 51.53125 44.890625 
Q 49.859375 40.875 45.40625 35.40625 
Q 44.1875 33.984375 37.640625 27.21875 
Q 31.109375 20.453125 19.1875 8.296875 
z
" id="DejaVuSans-50"/>
       </defs>
       <use xlink:href="#DejaVuSans-50"/>
      </g>
     </g>
    </g>
    <g id="xtick_3">
     <g id="line2d_5">
      <path clip-path="url(#pf90e7fc1e3)" d="M 230.8608 298.944 
L 230.8608 6.912 
" style="fill:none;stroke:#b0b0b0;stroke-linecap:square;stroke-width:0.8;"/>
     </g>
     <g id="line2d_6">
      <g>
       <use style="stroke:#000000;stroke-width:0.8;" x="230.8608" xlink:href="#m8563ca607e" y="298.944"/>
      </g>
     </g>
     <g id="text_3">
      <!-- 4 -->
      <g transform="translate(225.452675 318.861344)scale(0.17 -0.17)">
       <defs>
        <path d="M 37.796875 64.3125 
L 12.890625 25.390625 
L 37.796875 25.390625 
z
M 35.203125 72.90625 
L 47.609375 72.90625 
L 47.609375 25.390625 
L 58.015625 25.390625 
L 58.015625 17.1875 
L 47.609375 17.1875 
L 47.609375 0 
L 37.796875 0 
L 37.796875 17.1875 
L 4.890625 17.1875 
L 4.890625 26.703125 
z
" id="DejaVuSans-52"/>
       </defs>
       <use xlink:href="#DejaVuSans-52"/>
      </g>
     </g>
    </g>
    <g id="xtick_4">
     <g id="line2d_7">
      <path clip-path="url(#pf90e7fc1e3)" d="M 317.4912 298.944 
L 317.4912 6.912 
" style="fill:none;stroke:#b0b0b0;stroke-linecap:square;stroke-width:0.8;"/>
     </g>
     <g id="line2d_8">
      <g>
       <use style="stroke:#000000;stroke-width:0.8;" x="317.4912" xlink:href="#m8563ca607e" y="298.944"/>
      </g>
     </g>
     <g id="text_4">
      <!-- 6 -->
      <g transform="translate(312.083075 318.861344)scale(0.17 -0.17)">
       <defs>
        <path d="M 33.015625 40.375 
Q 26.375 40.375 22.484375 35.828125 
Q 18.609375 31.296875 18.609375 23.390625 
Q 18.609375 15.53125 22.484375 10.953125 
Q 26.375 6.390625 33.015625 6.390625 
Q 39.65625 6.390625 43.53125 10.953125 
Q 47.40625 15.53125 47.40625 23.390625 
Q 47.40625 31.296875 43.53125 35.828125 
Q 39.65625 40.375 33.015625 40.375 
z
M 52.59375 71.296875 
L 52.59375 62.3125 
Q 48.875 64.0625 45.09375 64.984375 
Q 41.3125 65.921875 37.59375 65.921875 
Q 27.828125 65.921875 22.671875 59.328125 
Q 17.53125 52.734375 16.796875 39.40625 
Q 19.671875 43.65625 24.015625 45.921875 
Q 28.375 48.1875 33.59375 48.1875 
Q 44.578125 48.1875 50.953125 41.515625 
Q 57.328125 34.859375 57.328125 23.390625 
Q 57.328125 12.15625 50.6875 5.359375 
Q 44.046875 -1.421875 33.015625 -1.421875 
Q 20.359375 -1.421875 13.671875 8.265625 
Q 6.984375 17.96875 6.984375 36.375 
Q 6.984375 53.65625 15.1875 63.9375 
Q 23.390625 74.21875 37.203125 74.21875 
Q 40.921875 74.21875 44.703125 73.484375 
Q 48.484375 72.75 52.59375 71.296875 
z
" id="DejaVuSans-54"/>
       </defs>
       <use xlink:href="#DejaVuSans-54"/>
      </g>
     </g>
    </g>
    <g id="xtick_5">
     <g id="line2d_9">
      <path clip-path="url(#pf90e7fc1e3)" d="M 100.9152 298.944 
L 100.9152 6.912 
" style="fill:none;stroke:#b0b0b0;stroke-linecap:square;stroke-width:0.8;"/>
     </g>
     <g id="line2d_10">
      <defs>
       <path d="M 0 0 
L 0 2 
" id="m7b59839053" style="stroke:#000000;stroke-width:0.6;"/>
      </defs>
      <g>
       <use style="stroke:#000000;stroke-width:0.6;" x="100.9152" xlink:href="#m7b59839053" y="298.944"/>
      </g>
     </g>
    </g>
    <g id="xtick_6">
     <g id="line2d_11">
      <path clip-path="url(#pf90e7fc1e3)" d="M 187.5456 298.944 
L 187.5456 6.912 
" style="fill:none;stroke:#b0b0b0;stroke-linecap:square;stroke-width:0.8;"/>
     </g>
     <g id="line2d_12">
      <g>
       <use style="stroke:#000000;stroke-width:0.6;" x="187.5456" xlink:href="#m7b59839053" y="298.944"/>
      </g>
     </g>
    </g>
    <g id="xtick_7">
     <g id="line2d_13">
      <path clip-path="url(#pf90e7fc1e3)" d="M 274.176 298.944 
L 274.176 6.912 
" style="fill:none;stroke:#b0b0b0;stroke-linecap:square;stroke-width:0.8;"/>
     </g>
     <g id="line2d_14">
      <g>
       <use style="stroke:#000000;stroke-width:0.6;" x="274.176" xlink:href="#m7b59839053" y="298.944"/>
      </g>
     </g>
    </g>
    <g id="xtick_8">
     <g id="line2d_15">
      <path clip-path="url(#pf90e7fc1e3)" d="M 360.8064 298.944 
L 360.8064 6.912 
" style="fill:none;stroke:#b0b0b0;stroke-linecap:square;stroke-width:0.8;"/>
     </g>
     <g id="line2d_16">
      <g>
       <use style="stroke:#000000;stroke-width:0.6;" x="360.8064" xlink:href="#m7b59839053" y="298.944"/>
      </g>
     </g>
    </g>
    <g id="text_5">
     <!-- log10(evals / dimension) -->
     <g transform="translate(104.238825 339.314156)scale(0.17 -0.17)">
      <defs>
       <path d="M 9.421875 75.984375 
L 18.40625 75.984375 
L 18.40625 0 
L 9.421875 0 
z
" id="DejaVuSans-108"/>
       <path d="M 30.609375 48.390625 
Q 23.390625 48.390625 19.1875 42.75 
Q 14.984375 37.109375 14.984375 27.296875 
Q 14.984375 17.484375 19.15625 11.84375 
Q 23.34375 6.203125 30.609375 6.203125 
Q 37.796875 6.203125 41.984375 11.859375 
Q 46.1875 17.53125 46.1875 27.296875 
Q 46.1875 37.015625 41.984375 42.703125 
Q 37.796875 48.390625 30.609375 48.390625 
z
M 30.609375 56 
Q 42.328125 56 49.015625 48.375 
Q 55.71875 40.765625 55.71875 27.296875 
Q 55.71875 13.875 49.015625 6.21875 
Q 42.328125 -1.421875 30.609375 -1.421875 
Q 18.84375 -1.421875 12.171875 6.21875 
Q 5.515625 13.875 5.515625 27.296875 
Q 5.515625 40.765625 12.171875 48.375 
Q 18.84375 56 30.609375 56 
z
" id="DejaVuSans-111"/>
       <path d="M 45.40625 27.984375 
Q 45.40625 37.75 41.375 43.109375 
Q 37.359375 48.484375 30.078125 48.484375 
Q 22.859375 48.484375 18.828125 43.109375 
Q 14.796875 37.75 14.796875 27.984375 
Q 14.796875 18.265625 18.828125 12.890625 
Q 22.859375 7.515625 30.078125 7.515625 
Q 37.359375 7.515625 41.375 12.890625 
Q 45.40625 18.265625 45.40625 27.984375 
z
M 54.390625 6.78125 
Q 54.390625 -7.171875 48.1875 -13.984375 
Q 42 -20.796875 29.203125 -20.796875 
Q 24.46875 -20.796875 20.265625 -20.09375 
Q 16.0625 -19.390625 12.109375 -17.921875 
L 12.109375 -9.1875 
Q 16.0625 -11.328125 19.921875 -12.34375 
Q 23.78125 -13.375 27.78125 -13.375 
Q 36.625 -13.375 41.015625 -8.765625 
Q 45.40625 -4.15625 45.40625 5.171875 
L 45.40625 9.625 
Q 42.625 4.78125 38.28125 2.390625 
Q 33.9375 0 27.875 0 
Q 17.828125 0 11.671875 7.65625 
Q 5.515625 15.328125 5.515625 27.984375 
Q 5.515625 40.671875 11.671875 48.328125 
Q 17.828125 56 27.875 56 
Q 33.9375 56 38.28125 53.609375 
Q 42.625 51.21875 45.40625 46.390625 
L 45.40625 54.6875 
L 54.390625 54.6875 
z
" id="DejaVuSans-103"/>
       <path d="M 12.40625 8.296875 
L 28.515625 8.296875 
L 28.515625 63.921875 
L 10.984375 60.40625 
L 10.984375 69.390625 
L 28.421875 72.90625 
L 38.28125 72.90625 
L 38.28125 8.296875 
L 54.390625 8.296875 
L 54.390625 0 
L 12.40625 0 
z
" id="DejaVuSans-49"/>
       <path d="M 31 75.875 
Q 24.46875 64.65625 21.28125 53.65625 
Q 18.109375 42.671875 18.109375 31.390625 
Q 18.109375 20.125 21.3125 9.0625 
Q 24.515625 -2 31 -13.1875 
L 23.1875 -13.1875 
Q 15.875 -1.703125 12.234375 9.375 
Q 8.59375 20.453125 8.59375 31.390625 
Q 8.59375 42.28125 12.203125 53.3125 
Q 15.828125 64.359375 23.1875 75.875 
z
" id="DejaVuSans-40"/>
       <path d="M 56.203125 29.59375 
L 56.203125 25.203125 
L 14.890625 25.203125 
Q 15.484375 15.921875 20.484375 11.0625 
Q 25.484375 6.203125 34.421875 6.203125 
Q 39.59375 6.203125 44.453125 7.46875 
Q 49.3125 8.734375 54.109375 11.28125 
L 54.109375 2.78125 
Q 49.265625 0.734375 44.1875 -0.34375 
Q 39.109375 -1.421875 33.890625 -1.421875 
Q 20.796875 -1.421875 13.15625 6.1875 
Q 5.515625 13.8125 5.515625 26.8125 
Q 5.515625 40.234375 12.765625 48.109375 
Q 20.015625 56 32.328125 56 
Q 43.359375 56 49.78125 48.890625 
Q 56.203125 41.796875 56.203125 29.59375 
z
M 47.21875 32.234375 
Q 47.125 39.59375 43.09375 43.984375 
Q 39.0625 48.390625 32.421875 48.390625 
Q 24.90625 48.390625 20.390625 44.140625 
Q 15.875 39.890625 15.1875 32.171875 
z
" id="DejaVuSans-101"/>
       <path d="M 2.984375 54.6875 
L 12.5 54.6875 
L 29.59375 8.796875 
L 46.6875 54.6875 
L 56.203125 54.6875 
L 35.6875 0 
L 23.484375 0 
z
" id="DejaVuSans-118"/>
       <path d="M 34.28125 27.484375 
Q 23.390625 27.484375 19.1875 25 
Q 14.984375 22.515625 14.984375 16.5 
Q 14.984375 11.71875 18.140625 8.90625 
Q 21.296875 6.109375 26.703125 6.109375 
Q 34.1875 6.109375 38.703125 11.40625 
Q 43.21875 16.703125 43.21875 25.484375 
L 43.21875 27.484375 
z
M 52.203125 31.203125 
L 52.203125 0 
L 43.21875 0 
L 43.21875 8.296875 
Q 40.140625 3.328125 35.546875 0.953125 
Q 30.953125 -1.421875 24.3125 -1.421875 
Q 15.921875 -1.421875 10.953125 3.296875 
Q 6 8.015625 6 15.921875 
Q 6 25.140625 12.171875 29.828125 
Q 18.359375 34.515625 30.609375 34.515625 
L 43.21875 34.515625 
L 43.21875 35.40625 
Q 43.21875 41.609375 39.140625 45 
Q 35.0625 48.390625 27.6875 48.390625 
Q 23 48.390625 18.546875 47.265625 
Q 14.109375 46.140625 10.015625 43.890625 
L 10.015625 52.203125 
Q 14.9375 54.109375 19.578125 55.046875 
Q 24.21875 56 28.609375 56 
Q 40.484375 56 46.34375 49.84375 
Q 52.203125 43.703125 52.203125 31.203125 
z
" id="DejaVuSans-97"/>
       <path d="M 44.28125 53.078125 
L 44.28125 44.578125 
Q 40.484375 46.53125 36.375 47.5 
Q 32.28125 48.484375 27.875 48.484375 
Q 21.1875 48.484375 17.84375 46.4375 
Q 14.5 44.390625 14.5 40.28125 
Q 14.5 37.15625 16.890625 35.375 
Q 19.28125 33.59375 26.515625 31.984375 
L 29.59375 31.296875 
Q 39.15625 29.25 43.1875 25.515625 
Q 47.21875 21.78125 47.21875 15.09375 
Q 47.21875 7.46875 41.1875 3.015625 
Q 35.15625 -1.421875 24.609375 -1.421875 
Q 20.21875 -1.421875 15.453125 -0.5625 
Q 10.6875 0.296875 5.421875 2 
L 5.421875 11.28125 
Q 10.40625 8.6875 15.234375 7.390625 
Q 20.0625 6.109375 24.8125 6.109375 
Q 31.15625 6.109375 34.5625 8.28125 
Q 37.984375 10.453125 37.984375 14.40625 
Q 37.984375 18.0625 35.515625 20.015625 
Q 33.0625 21.96875 24.703125 23.78125 
L 21.578125 24.515625 
Q 13.234375 26.265625 9.515625 29.90625 
Q 5.8125 33.546875 5.8125 39.890625 
Q 5.8125 47.609375 11.28125 51.796875 
Q 16.75 56 26.8125 56 
Q 31.78125 56 36.171875 55.265625 
Q 40.578125 54.546875 44.28125 53.078125 
z
" id="DejaVuSans-115"/>
       <path id="DejaVuSans-32"/>
       <path d="M 25.390625 72.90625 
L 33.6875 72.90625 
L 8.296875 -9.28125 
L 0 -9.28125 
z
" id="DejaVuSans-47"/>
       <path d="M 45.40625 46.390625 
L 45.40625 75.984375 
L 54.390625 75.984375 
L 54.390625 0 
L 45.40625 0 
L 45.40625 8.203125 
Q 42.578125 3.328125 38.25 0.953125 
Q 33.9375 -1.421875 27.875 -1.421875 
Q 17.96875 -1.421875 11.734375 6.484375 
Q 5.515625 14.40625 5.515625 27.296875 
Q 5.515625 40.1875 11.734375 48.09375 
Q 17.96875 56 27.875 56 
Q 33.9375 56 38.25 53.625 
Q 42.578125 51.265625 45.40625 46.390625 
z
M 14.796875 27.296875 
Q 14.796875 17.390625 18.875 11.75 
Q 22.953125 6.109375 30.078125 6.109375 
Q 37.203125 6.109375 41.296875 11.75 
Q 45.40625 17.390625 45.40625 27.296875 
Q 45.40625 37.203125 41.296875 42.84375 
Q 37.203125 48.484375 30.078125 48.484375 
Q 22.953125 48.484375 18.875 42.84375 
Q 14.796875 37.203125 14.796875 27.296875 
z
" id="DejaVuSans-100"/>
       <path d="M 9.421875 54.6875 
L 18.40625 54.6875 
L 18.40625 0 
L 9.421875 0 
z
M 9.421875 75.984375 
L 18.40625 75.984375 
L 18.40625 64.59375 
L 9.421875 64.59375 
z
" id="DejaVuSans-105"/>
       <path d="M 52 44.1875 
Q 55.375 50.25 60.0625 53.125 
Q 64.75 56 71.09375 56 
Q 79.640625 56 84.28125 50.015625 
Q 88.921875 44.046875 88.921875 33.015625 
L 88.921875 0 
L 79.890625 0 
L 79.890625 32.71875 
Q 79.890625 40.578125 77.09375 44.375 
Q 74.3125 48.1875 68.609375 48.1875 
Q 61.625 48.1875 57.5625 43.546875 
Q 53.515625 38.921875 53.515625 30.90625 
L 53.515625 0 
L 44.484375 0 
L 44.484375 32.71875 
Q 44.484375 40.625 41.703125 44.40625 
Q 38.921875 48.1875 33.109375 48.1875 
Q 26.21875 48.1875 22.15625 43.53125 
Q 18.109375 38.875 18.109375 30.90625 
L 18.109375 0 
L 9.078125 0 
L 9.078125 54.6875 
L 18.109375 54.6875 
L 18.109375 46.1875 
Q 21.1875 51.21875 25.484375 53.609375 
Q 29.78125 56 35.6875 56 
Q 41.65625 56 45.828125 52.96875 
Q 50 49.953125 52 44.1875 
z
" id="DejaVuSans-109"/>
       <path d="M 54.890625 33.015625 
L 54.890625 0 
L 45.90625 0 
L 45.90625 32.71875 
Q 45.90625 40.484375 42.875 44.328125 
Q 39.84375 48.1875 33.796875 48.1875 
Q 26.515625 48.1875 22.3125 43.546875 
Q 18.109375 38.921875 18.109375 30.90625 
L 18.109375 0 
L 9.078125 0 
L 9.078125 54.6875 
L 18.109375 54.6875 
L 18.109375 46.1875 
Q 21.34375 51.125 25.703125 53.5625 
Q 30.078125 56 35.796875 56 
Q 45.21875 56 50.046875 50.171875 
Q 54.890625 44.34375 54.890625 33.015625 
z
" id="DejaVuSans-110"/>
       <path d="M 8.015625 75.875 
L 15.828125 75.875 
Q 23.140625 64.359375 26.78125 53.3125 
Q 30.421875 42.28125 30.421875 31.390625 
Q 30.421875 20.453125 26.78125 9.375 
Q 23.140625 -1.703125 15.828125 -13.1875 
L 8.015625 -13.1875 
Q 14.5 -2 17.703125 9.0625 
Q 20.90625 20.125 20.90625 31.390625 
Q 20.90625 42.671875 17.703125 53.65625 
Q 14.5 64.65625 8.015625 75.875 
z
" id="DejaVuSans-41"/>
      </defs>
      <use xlink:href="#DejaVuSans-108"/>
      <use x="27.783203" xlink:href="#DejaVuSans-111"/>
      <use x="88.964844" xlink:href="#DejaVuSans-103"/>
      <use x="152.441406" xlink:href="#DejaVuSans-49"/>
      <use x="216.064453" xlink:href="#DejaVuSans-48"/>
      <use x="279.6875" xlink:href="#DejaVuSans-40"/>
      <use x="318.701172" xlink:href="#DejaVuSans-101"/>
      <use x="380.224609" xlink:href="#DejaVuSans-118"/>
      <use x="439.404297" xlink:href="#DejaVuSans-97"/>
      <use x="500.683594" xlink:href="#DejaVuSans-108"/>
      <use x="528.466797" xlink:href="#DejaVuSans-115"/>
      <use x="580.566406" xlink:href="#DejaVuSans-32"/>
      <use x="612.353516" xlink:href="#DejaVuSans-47"/>
      <use x="646.044922" xlink:href="#DejaVuSans-32"/>
      <use x="677.832031" xlink:href="#DejaVuSans-100"/>
      <use x="741.308594" xlink:href="#DejaVuSans-105"/>
      <use x="769.091797" xlink:href="#DejaVuSans-109"/>
      <use x="866.503906" xlink:href="#DejaVuSans-101"/>
      <use x="928.027344" xlink:href="#DejaVuSans-110"/>
      <use x="991.40625" xlink:href="#DejaVuSans-115"/>
      <use x="1043.505859" xlink:href="#DejaVuSans-105"/>
      <use x="1071.289062" xlink:href="#DejaVuSans-111"/>
      <use x="1132.470703" xlink:href="#DejaVuSans-110"/>
      <use x="1195.849609" xlink:href="#DejaVuSans-41"/>
     </g>
    </g>
   </g>
   <g id="matplotlib.axis_2">
    <g id="ytick_1">
     <g id="line2d_17">
      <path clip-path="url(#pf90e7fc1e3)" d="M 57.6 298.944 
L 360.8064 298.944 
" style="fill:none;stroke:#b0b0b0;stroke-linecap:square;stroke-width:0.8;"/>
     </g>
     <g id="line2d_18">
      <defs>
       <path d="M 0 0 
L -3.5 0 
" id="m54b1b23376" style="stroke:#000000;stroke-width:0.8;"/>
      </defs>
      <g>
       <use style="stroke:#000000;stroke-width:0.8;" x="57.6" xlink:href="#m54b1b23376" y="298.944"/>
      </g>
     </g>
     <g id="text_6">
      <!-- 0.0 -->
      <g transform="translate(25.155 305.02275)scale(0.16 -0.16)">
       <defs>
        <path d="M 10.6875 12.40625 
L 21 12.40625 
L 21 0 
L 10.6875 0 
z
" id="DejaVuSans-46"/>
       </defs>
       <use xlink:href="#DejaVuSans-48"/>
       <use x="63.623047" xlink:href="#DejaVuSans-46"/>
       <use x="95.410156" xlink:href="#DejaVuSans-48"/>
      </g>
     </g>
    </g>
    <g id="ytick_2">
     <g id="line2d_19">
      <path clip-path="url(#pf90e7fc1e3)" d="M 57.6 240.5376 
L 360.8064 240.5376 
" style="fill:none;stroke:#b0b0b0;stroke-linecap:square;stroke-width:0.8;"/>
     </g>
     <g id="line2d_20">
      <g>
       <use style="stroke:#000000;stroke-width:0.8;" x="57.6" xlink:href="#m54b1b23376" y="240.5376"/>
      </g>
     </g>
     <g id="text_7">
      <!-- 0.2 -->
      <g transform="translate(25.155 246.61635)scale(0.16 -0.16)">
       <use xlink:href="#DejaVuSans-48"/>
       <use x="63.623047" xlink:href="#DejaVuSans-46"/>
       <use x="95.410156" xlink:href="#DejaVuSans-50"/>
      </g>
     </g>
    </g>
    <g id="ytick_3">
     <g id="line2d_21">
      <path clip-path="url(#pf90e7fc1e3)" d="M 57.6 182.1312 
L 360.8064 182.1312 
" style="fill:none;stroke:#b0b0b0;stroke-linecap:square;stroke-width:0.8;"/>
     </g>
     <g id="line2d_22">
      <g>
       <use style="stroke:#000000;stroke-width:0.8;" x="57.6" xlink:href="#m54b1b23376" y="182.1312"/>
      </g>
     </g>
     <g id="text_8">
      <!-- 0.4 -->
      <g transform="translate(25.155 188.20995)scale(0.16 -0.16)">
       <use xlink:href="#DejaVuSans-48"/>
       <use x="63.623047" xlink:href="#DejaVuSans-46"/>
       <use x="95.410156" xlink:href="#DejaVuSans-52"/>
      </g>
     </g>
    </g>
    <g id="ytick_4">
     <g id="line2d_23">
      <path clip-path="url(#pf90e7fc1e3)" d="M 57.6 123.7248 
L 360.8064 123.7248 
" style="fill:none;stroke:#b0b0b0;stroke-linecap:square;stroke-width:0.8;"/>
     </g>
     <g id="line2d_24">
      <g>
       <use style="stroke:#000000;stroke-width:0.8;" x="57.6" xlink:href="#m54b1b23376" y="123.7248"/>
      </g>
     </g>
     <g id="text_9">
      <!-- 0.6 -->
      <g transform="translate(25.155 129.80355)scale(0.16 -0.16)">
       <use xlink:href="#DejaVuSans-48"/>
       <use x="63.623047" xlink:href="#DejaVuSans-46"/>
       <use x="95.410156" xlink:href="#DejaVuSans-54"/>
      </g>
     </g>
    </g>
    <g id="ytick_5">
     <g id="line2d_25">
      <path clip-path="url(#pf90e7fc1e3)" d="M 57.6 65.3184 
L 360.8064 65.3184 
" style="fill:none;stroke:#b0b0b0;stroke-linecap:square;stroke-width:0.8;"/>
     </g>
     <g id="line2d_26">
      <g>
       <use style="stroke:#000000;stroke-width:0.8;" x="57.6" xlink:href="#m54b1b23376" y="65.3184"/>
      </g>
     </g>
     <g id="text_10">
      <!-- 0.8 -->
      <g transform="translate(25.155 71.39715)scale(0.16 -0.16)">
       <defs>
        <path d="M 31.78125 34.625 
Q 24.75 34.625 20.71875 30.859375 
Q 16.703125 27.09375 16.703125 20.515625 
Q 16.703125 13.921875 20.71875 10.15625 
Q 24.75 6.390625 31.78125 6.390625 
Q 38.8125 6.390625 42.859375 10.171875 
Q 46.921875 13.96875 46.921875 20.515625 
Q 46.921875 27.09375 42.890625 30.859375 
Q 38.875 34.625 31.78125 34.625 
z
M 21.921875 38.8125 
Q 15.578125 40.375 12.03125 44.71875 
Q 8.5 49.078125 8.5 55.328125 
Q 8.5 64.0625 14.71875 69.140625 
Q 20.953125 74.21875 31.78125 74.21875 
Q 42.671875 74.21875 48.875 69.140625 
Q 55.078125 64.0625 55.078125 55.328125 
Q 55.078125 49.078125 51.53125 44.71875 
Q 48 40.375 41.703125 38.8125 
Q 48.828125 37.15625 52.796875 32.3125 
Q 56.78125 27.484375 56.78125 20.515625 
Q 56.78125 9.90625 50.3125 4.234375 
Q 43.84375 -1.421875 31.78125 -1.421875 
Q 19.734375 -1.421875 13.25 4.234375 
Q 6.78125 9.90625 6.78125 20.515625 
Q 6.78125 27.484375 10.78125 32.3125 
Q 14.796875 37.15625 21.921875 38.8125 
z
M 18.3125 54.390625 
Q 18.3125 48.734375 21.84375 45.5625 
Q 25.390625 42.390625 31.78125 42.390625 
Q 38.140625 42.390625 41.71875 45.5625 
Q 45.3125 48.734375 45.3125 54.390625 
Q 45.3125 60.0625 41.71875 63.234375 
Q 38.140625 66.40625 31.78125 66.40625 
Q 25.390625 66.40625 21.84375 63.234375 
Q 18.3125 60.0625 18.3125 54.390625 
z
" id="DejaVuSans-56"/>
       </defs>
       <use xlink:href="#DejaVuSans-48"/>
       <use x="63.623047" xlink:href="#DejaVuSans-46"/>
       <use x="95.410156" xlink:href="#DejaVuSans-56"/>
      </g>
     </g>
    </g>
    <g id="ytick_6">
     <g id="line2d_27">
      <path clip-path="url(#pf90e7fc1e3)" d="M 57.6 6.912 
L 360.8064 6.912 
" style="fill:none;stroke:#b0b0b0;stroke-linecap:square;stroke-width:0.8;"/>
     </g>
     <g id="line2d_28">
      <g>
       <use style="stroke:#000000;stroke-width:0.8;" x="57.6" xlink:href="#m54b1b23376" y="6.912"/>
      </g>
     </g>
     <g id="text_11">
      <!-- 1.0 -->
      <g transform="translate(25.155 12.99075)scale(0.16 -0.16)">
       <use xlink:href="#DejaVuSans-49"/>
       <use x="63.623047" xlink:href="#DejaVuSans-46"/>
       <use x="95.410156" xlink:href="#DejaVuSans-48"/>
      </g>
     </g>
    </g>
    <g id="text_12">
     <!-- Fraction of function,target pairs -->
     <g transform="translate(17.619531 287.313)rotate(-90)scale(0.17 -0.17)">
      <defs>
       <path d="M 9.8125 72.90625 
L 51.703125 72.90625 
L 51.703125 64.59375 
L 19.671875 64.59375 
L 19.671875 43.109375 
L 48.578125 43.109375 
L 48.578125 34.8125 
L 19.671875 34.8125 
L 19.671875 0 
L 9.8125 0 
z
" id="DejaVuSans-70"/>
       <path d="M 41.109375 46.296875 
Q 39.59375 47.171875 37.8125 47.578125 
Q 36.03125 48 33.890625 48 
Q 26.265625 48 22.1875 43.046875 
Q 18.109375 38.09375 18.109375 28.8125 
L 18.109375 0 
L 9.078125 0 
L 9.078125 54.6875 
L 18.109375 54.6875 
L 18.109375 46.1875 
Q 20.953125 51.171875 25.484375 53.578125 
Q 30.03125 56 36.53125 56 
Q 37.453125 56 38.578125 55.875 
Q 39.703125 55.765625 41.0625 55.515625 
z
" id="DejaVuSans-114"/>
       <path d="M 48.78125 52.59375 
L 48.78125 44.1875 
Q 44.96875 46.296875 41.140625 47.34375 
Q 37.3125 48.390625 33.40625 48.390625 
Q 24.65625 48.390625 19.8125 42.84375 
Q 14.984375 37.3125 14.984375 27.296875 
Q 14.984375 17.28125 19.8125 11.734375 
Q 24.65625 6.203125 33.40625 6.203125 
Q 37.3125 6.203125 41.140625 7.25 
Q 44.96875 8.296875 48.78125 10.40625 
L 48.78125 2.09375 
Q 45.015625 0.34375 40.984375 -0.53125 
Q 36.96875 -1.421875 32.421875 -1.421875 
Q 20.0625 -1.421875 12.78125 6.34375 
Q 5.515625 14.109375 5.515625 27.296875 
Q 5.515625 40.671875 12.859375 48.328125 
Q 20.21875 56 33.015625 56 
Q 37.15625 56 41.109375 55.140625 
Q 45.0625 54.296875 48.78125 52.59375 
z
" id="DejaVuSans-99"/>
       <path d="M 18.3125 70.21875 
L 18.3125 54.6875 
L 36.8125 54.6875 
L 36.8125 47.703125 
L 18.3125 47.703125 
L 18.3125 18.015625 
Q 18.3125 11.328125 20.140625 9.421875 
Q 21.96875 7.515625 27.59375 7.515625 
L 36.8125 7.515625 
L 36.8125 0 
L 27.59375 0 
Q 17.1875 0 13.234375 3.875 
Q 9.28125 7.765625 9.28125 18.015625 
L 9.28125 47.703125 
L 2.6875 47.703125 
L 2.6875 54.6875 
L 9.28125 54.6875 
L 9.28125 70.21875 
z
" id="DejaVuSans-116"/>
       <path d="M 37.109375 75.984375 
L 37.109375 68.5 
L 28.515625 68.5 
Q 23.6875 68.5 21.796875 66.546875 
Q 19.921875 64.59375 19.921875 59.515625 
L 19.921875 54.6875 
L 34.71875 54.6875 
L 34.71875 47.703125 
L 19.921875 47.703125 
L 19.921875 0 
L 10.890625 0 
L 10.890625 47.703125 
L 2.296875 47.703125 
L 2.296875 54.6875 
L 10.890625 54.6875 
L 10.890625 58.5 
Q 10.890625 67.625 15.140625 71.796875 
Q 19.390625 75.984375 28.609375 75.984375 
z
" id="DejaVuSans-102"/>
       <path d="M 8.5 21.578125 
L 8.5 54.6875 
L 17.484375 54.6875 
L 17.484375 21.921875 
Q 17.484375 14.15625 20.5 10.265625 
Q 23.53125 6.390625 29.59375 6.390625 
Q 36.859375 6.390625 41.078125 11.03125 
Q 45.3125 15.671875 45.3125 23.6875 
L 45.3125 54.6875 
L 54.296875 54.6875 
L 54.296875 0 
L 45.3125 0 
L 45.3125 8.40625 
Q 42.046875 3.421875 37.71875 1 
Q 33.40625 -1.421875 27.6875 -1.421875 
Q 18.265625 -1.421875 13.375 4.4375 
Q 8.5 10.296875 8.5 21.578125 
z
M 31.109375 56 
z
" id="DejaVuSans-117"/>
       <path d="M 11.71875 12.40625 
L 22.015625 12.40625 
L 22.015625 4 
L 14.015625 -11.625 
L 7.71875 -11.625 
L 11.71875 4 
z
" id="DejaVuSans-44"/>
       <path d="M 18.109375 8.203125 
L 18.109375 -20.796875 
L 9.078125 -20.796875 
L 9.078125 54.6875 
L 18.109375 54.6875 
L 18.109375 46.390625 
Q 20.953125 51.265625 25.265625 53.625 
Q 29.59375 56 35.59375 56 
Q 45.5625 56 51.78125 48.09375 
Q 58.015625 40.1875 58.015625 27.296875 
Q 58.015625 14.40625 51.78125 6.484375 
Q 45.5625 -1.421875 35.59375 -1.421875 
Q 29.59375 -1.421875 25.265625 0.953125 
Q 20.953125 3.328125 18.109375 8.203125 
z
M 48.6875 27.296875 
Q 48.6875 37.203125 44.609375 42.84375 
Q 40.53125 48.484375 33.40625 48.484375 
Q 26.265625 48.484375 22.1875 42.84375 
Q 18.109375 37.203125 18.109375 27.296875 
Q 18.109375 17.390625 22.1875 11.75 
Q 26.265625 6.109375 33.40625 6.109375 
Q 40.53125 6.109375 44.609375 11.75 
Q 48.6875 17.390625 48.6875 27.296875 
z
" id="DejaVuSans-112"/>
      </defs>
      <use xlink:href="#DejaVuSans-70"/>
      <use x="50.269531" xlink:href="#DejaVuSans-114"/>
      <use x="91.382812" xlink:href="#DejaVuSans-97"/>
      <use x="152.662109" xlink:href="#DejaVuSans-99"/>
      <use x="207.642578" xlink:href="#DejaVuSans-116"/>
      <use x="246.851562" xlink:href="#DejaVuSans-105"/>
      <use x="274.634766" xlink:href="#DejaVuSans-111"/>
      <use x="335.816406" xlink:href="#DejaVuSans-110"/>
      <use x="399.195312" xlink:href="#DejaVuSans-32"/>
      <use x="430.982422" xlink:href="#DejaVuSans-111"/>
      <use x="492.164062" xlink:href="#DejaVuSans-102"/>
      <use x="527.369141" xlink:href="#DejaVuSans-32"/>
      <use x="559.15625" xlink:href="#DejaVuSans-102"/>
      <use x="594.361328" xlink:href="#DejaVuSans-117"/>
      <use x="657.740234" xlink:href="#DejaVuSans-110"/>
      <use x="721.119141" xlink:href="#DejaVuSans-99"/>
      <use x="776.099609" xlink:href="#DejaVuSans-116"/>
      <use x="815.308594" xlink:href="#DejaVuSans-105"/>
      <use x="843.091797" xlink:href="#DejaVuSans-111"/>
      <use x="904.273438" xlink:href="#DejaVuSans-110"/>
      <use x="967.652344" xlink:href="#DejaVuSans-44"/>
      <use x="999.439453" xlink:href="#DejaVuSans-116"/>
      <use x="1038.648438" xlink:href="#DejaVuSans-97"/>
      <use x="1099.927734" xlink:href="#DejaVuSans-114"/>
      <use x="1139.291016" xlink:href="#DejaVuSans-103"/>
      <use x="1202.767578" xlink:href="#DejaVuSans-101"/>
      <use x="1264.291016" xlink:href="#DejaVuSans-116"/>
      <use x="1303.5" xlink:href="#DejaVuSans-32"/>
      <use x="1335.287109" xlink:href="#DejaVuSans-112"/>
      <use x="1398.763672" xlink:href="#DejaVuSans-97"/>
      <use x="1460.042969" xlink:href="#DejaVuSans-105"/>
      <use x="1487.826172" xlink:href="#DejaVuSans-114"/>
      <use x="1528.939453" xlink:href="#DejaVuSans-115"/>
     </g>
    </g>
   </g>
   <g id="line2d_29">
    <defs>
     <path d="M 0 1.5 
C 0.397805 1.5 0.77937 1.341951 1.06066 1.06066 
C 1.341951 0.77937 1.5 0.397805 1.5 0 
C 1.5 -0.397805 1.341951 -0.77937 1.06066 -1.06066 
C 0.77937 -1.341951 0.397805 -1.5 0 -1.5 
C -0.397805 -1.5 -0.77937 -1.341951 -1.06066 -1.06066 
C -1.341951 -0.77937 -1.5 -0.397805 -1.5 0 
C -1.5 0.397805 -1.341951 0.77937 -1.06066 1.06066 
C -0.77937 1.341951 -0.397805 1.5 0 1.5 
z
" id="m1c41fe7705" style="stroke:#000080;"/>
    </defs>
    <g>
     <use style="fill:#000080;stroke:#000080;" x="303.085847" xlink:href="#m1c41fe7705" y="6.912"/>
     <use style="fill:#000080;stroke:#000080;" x="303.085847" xlink:href="#m1c41fe7705" y="6.912"/>
    </g>
   </g>
   <g id="line2d_30">
    <path d="M 44.560826 298.944 
L 44.560826 298.732956 
L 83.678349 298.680195 
L 83.678349 298.310868 
L 87.876026 298.310868 
L 87.876026 274.515668 
L 91.305777 274.515668 
L 91.305777 254.730302 
L 94.205591 254.730302 
L 94.205591 241.276254 
L 96.717523 241.276254 
L 96.717523 226.555941 
L 98.933205 226.555941 
L 98.933205 222.17678 
L 100.9152 222.17678 
L 100.9152 212.627044 
L 102.708132 212.627044 
L 102.708132 205.029463 
L 104.344952 205.029463 
L 104.344952 199.172995 
L 105.850679 199.172995 
L 105.850679 187.249015 
L 107.244765 187.249015 
L 107.244765 181.128741 
L 108.542628 181.128741 
L 108.542628 171.684527 
L 109.756698 171.684527 
L 109.756698 165.93358 
L 110.897141 165.93358 
L 110.897141 158.705327 
L 111.97238 158.705327 
L 111.97238 148.891785 
L 112.989468 148.891785 
L 112.989468 143.72121 
L 113.954374 143.72121 
L 113.954374 137.970263 
L 114.872193 137.970263 
L 114.872193 132.852449 
L 115.747307 132.852449 
L 115.747307 127.259785 
L 116.583514 127.259785 
L 116.583514 123.566517 
L 117.384126 123.566517 
L 117.384126 119.187356 
L 118.152051 119.187356 
L 118.152051 116.70759 
L 118.889854 116.70759 
L 118.889854 112.697756 
L 119.599808 112.697756 
L 119.599808 109.954185 
L 120.28394 109.954185 
L 120.28394 104.625327 
L 120.944062 104.625327 
L 120.944062 102.198322 
L 121.581803 102.198322 
L 121.581803 100.668254 
L 122.19863 100.668254 
L 122.19863 100.035122 
L 122.795872 100.035122 
L 122.795872 98.452293 
L 123.374735 98.452293 
L 123.374735 96.500137 
L 123.936316 96.500137 
L 123.936316 94.917307 
L 124.481616 94.917307 
L 124.481616 93.703805 
L 125.011554 93.703805 
L 125.011554 93.123434 
L 125.526971 93.123434 
L 125.526971 92.437541 
L 126.028642 92.437541 
L 126.028642 91.540605 
L 126.517282 91.540605 
L 126.517282 89.799493 
L 126.993549 89.799493 
L 126.993549 89.430166 
L 127.458055 89.430166 
L 127.458055 88.797034 
L 127.911368 88.797034 
L 127.911368 88.00562 
L 128.354013 88.00562 
L 128.354013 87.47801 
L 128.786481 87.47801 
L 128.786481 87.055922 
L 129.209231 87.055922 
L 129.209231 86.739356 
L 129.622688 86.739356 
L 129.622688 86.528312 
L 130.027253 86.528312 
L 130.027253 86.264507 
L 131.191226 86.158985 
L 131.191226 85.947941 
L 131.563744 85.947941 
L 131.563744 85.736898 
L 132.287354 85.736898 
L 132.287354 85.525854 
L 132.984158 85.473093 
L 132.984158 85.156527 
L 133.656071 85.156527 
L 133.656071 84.839961 
L 134.620977 84.734439 
L 134.620977 84.628917 
L 135.835047 84.523395 
L 135.835047 84.470634 
L 136.413909 84.417873 
L 136.413909 84.312351 
L 138.050729 84.206829 
L 138.050729 84.154068 
L 139.796097 84.048546 
L 139.796097 83.995785 
L 140.725251 83.943024 
L 140.725251 83.837502 
L 142.038218 83.73198 
L 142.038218 83.415415 
L 143.066428 83.362654 
L 143.066428 83.204371 
L 143.364242 83.15161 
L 143.364242 82.887805 
L 143.560197 82.887805 
L 143.560197 82.729522 
L 144.2304 82.624 
L 144.2304 82.571239 
L 144.510478 82.571239 
L 144.510478 82.412956 
L 144.694906 82.412956 
L 144.694906 82.254673 
L 144.877544 82.254673 
L 144.877544 81.938107 
L 145.415054 81.885346 
L 145.415054 81.621541 
L 145.765046 81.56878 
L 145.765046 81.252215 
L 146.108646 81.146693 
L 146.108646 80.777366 
L 146.27812 80.777366 
L 146.27812 80.619083 
L 146.446082 80.619083 
L 146.446082 79.722146 
L 146.941151 79.722146 
L 147.022411 79.458341 
L 147.343984 79.35282 
L 147.423525 79.141776 
L 147.73837 79.089015 
L 147.73837 78.772449 
L 148.048032 78.719688 
L 148.124658 78.561405 
L 148.352679 78.561405 
L 148.352679 78.2976 
L 148.503173 78.2976 
L 148.57797 77.611707 
L 148.652472 77.611707 
L 148.652472 77.295141 
L 149.238092 77.24238 
L 149.238092 76.820293 
L 149.381693 76.820293 
L 149.453084 76.609249 
L 150.083698 76.609249 
L 150.083698 76.187161 
L 150.492661 76.1344 
L 150.492661 76.028878 
L 150.62703 76.028878 
L 150.62703 75.870595 
L 151.155108 75.870595 
L 151.155108 75.60679 
L 154.322673 75.501268 
L 154.322673 75.448507 
L 154.703817 75.395746 
L 154.703817 75.290224 
L 155.85377 75.184702 
L 155.954908 74.920898 
L 156.452597 74.815376 
L 156.550574 74.49881 
L 156.84148 74.393288 
L 156.937458 73.232546 
L 157.222487 73.179785 
L 157.222487 72.86322 
L 157.503261 72.810459 
L 157.595929 72.493893 
L 157.779907 72.388371 
L 157.779907 72.071805 
L 158.187393 71.966283 
L 158.232129 71.385912 
L 158.498335 71.333151 
L 158.498335 71.174868 
L 158.673735 71.174868 
L 158.673735 70.858302 
L 159.019705 70.805541 
L 159.105212 70.383454 
L 159.359426 70.330693 
L 159.443406 69.697561 
L 159.693121 69.697561 
L 159.693121 69.486517 
L 160.020999 69.380995 
L 160.020999 69.328234 
L 160.343261 69.328234 
L 160.383158 69.064429 
L 161.950101 68.958907 
L 161.950101 68.906146 
L 162.915008 68.800624 
L 162.984551 68.273015 
L 163.260183 68.167493 
L 163.260183 68.00921 
L 163.464289 67.956449 
L 163.531835 67.428839 
L 163.73303 67.323317 
L 163.79962 66.848468 
L 163.997986 66.742946 
L 164.09639 65.84601 
L 164.129077 65.84601 
L 164.129077 65.476683 
L 164.259262 65.476683 
L 164.259262 65.212878 
L 164.516958 65.160117 
L 164.516958 64.949073 
L 164.644495 64.949073 
L 164.70794 64.526985 
L 164.771172 64.526985 
L 164.771172 64.26318 
L 165.084184 64.157659 
L 165.084184 63.524527 
L 165.51383 63.524527 
L 165.51383 63.366244 
L 165.634805 63.366244 
L 165.634805 63.102439 
L 166.689935 62.996917 
L 166.746854 62.838634 
L 167.084795 62.733112 
L 167.084795 62.680351 
L 167.251516 62.62759 
L 167.361848 62.469307 
L 167.634879 62.469307 
L 167.634879 62.09998 
L 167.957371 62.09998 
L 168.063651 61.625132 
L 168.274427 61.625132 
L 168.326754 61.044761 
L 168.586228 60.992 
L 168.689024 59.93678 
L 168.943582 59.88402 
L 169.044448 58.881561 
L 169.144777 58.881561 
L 169.244573 58.248429 
L 169.294273 58.248429 
L 169.393282 57.984624 
L 169.491772 57.984624 
L 169.589749 57.19321 
L 169.638546 57.19321 
L 169.638546 56.982166 
L 169.832482 56.929405 
L 169.880655 56.507317 
L 170.024438 56.507317 
L 170.119687 55.768663 
L 170.449309 55.715902 
L 170.49593 55.399337 
L 170.727317 55.293815 
L 170.819081 54.924488 
L 171.046551 54.924488 
L 171.091717 54.5024 
L 171.271304 54.396878 
L 171.271304 54.291356 
L 171.449192 54.291356 
L 171.449192 53.763746 
L 171.843395 53.710985 
L 171.843395 53.39442 
L 172.314244 53.288898 
L 172.3986 52.86681 
L 172.711612 52.814049 
L 172.711612 52.708527 
L 172.835373 52.708527 
L 172.835373 52.550244 
L 172.99913 52.444722 
L 172.99913 52.128156 
L 173.201843 52.075395 
L 173.28232 51.389502 
L 173.32243 51.389502 
L 173.362455 51.020176 
L 173.521707 50.914654 
L 173.56131 50.334283 
L 173.679622 50.228761 
L 173.758086 50.070478 
L 173.914037 49.964956 
L 173.991531 49.437346 
L 174.068707 49.437346 
L 174.107176 49.06802 
L 174.222115 49.06802 
L 174.298352 48.487649 
L 174.412132 48.434888 
L 174.487605 47.537951 
L 174.562776 47.537951 
L 174.637648 47.010341 
L 174.712223 46.90482 
L 174.7494 46.535493 
L 174.934191 46.429971 
L 175.0442 45.8496 
L 175.080727 45.8496 
L 175.15357 45.480273 
L 175.40632 45.480273 
L 175.442151 44.952663 
L 175.831859 44.847141 
L 175.866889 44.583337 
L 176.041072 44.477815 
L 176.144812 43.950205 
L 176.316452 43.950205 
L 176.316452 43.739161 
L 176.62151 43.633639 
L 176.655103 43.369834 
L 176.888582 43.317073 
L 176.987765 43.053268 
L 177.314646 42.947746 
L 177.411613 42.789463 
L 177.54013 42.736702 
L 177.635944 41.998049 
L 177.889089 41.892527 
L 177.998778 41.575961 
L 178.169864 41.575961 
L 178.200804 41.153873 
L 178.415971 41.048351 
L 178.507438 40.626263 
L 179.150247 40.520741 
L 179.223586 40.204176 
L 179.383934 40.098654 
L 179.383934 39.518283 
L 179.657718 39.465522 
L 179.743355 39.096195 
L 179.800231 38.990673 
L 179.856935 38.357541 
L 180.054064 38.25202 
L 180.110009 37.829932 
L 180.29069 37.72441 
L 180.401022 36.932995 
L 180.524377 36.827473 
L 180.524377 36.66919 
L 181.261129 36.563668 
L 181.261129 36.510907 
L 182.895758 36.405385 
L 182.895758 36.352624 
L 183.674278 36.299863 
L 183.697374 35.719493 
L 183.90397 35.666732 
L 183.995068 35.297405 
L 184.063102 35.297405 
L 184.063102 34.875317 
L 184.421855 34.769795 
L 184.510485 34.50599 
L 184.893403 34.400468 
L 184.91505 34.294946 
L 186.028112 34.189424 
L 186.109503 33.503532 
L 186.210749 33.39801 
L 186.230933 33.186966 
L 186.391631 33.186966 
L 186.391631 32.659356 
L 186.590592 32.553834 
L 186.689288 32.395551 
L 186.8266 32.395551 
L 186.8266 32.078985 
L 188.037615 32.026224 
L 188.147251 30.971005 
L 188.165461 30.971005 
L 188.274356 29.493698 
L 188.292444 29.493698 
L 188.346604 28.860566 
L 188.490273 28.860566 
L 188.597309 28.227434 
L 188.632853 28.174673 
L 188.66833 27.963629 
L 188.809572 27.858107 
L 188.862265 27.752585 
L 189.483336 27.647063 
L 189.483336 27.594302 
L 191.577002 27.48878 
L 191.577002 27.383259 
L 195.477801 27.277737 
L 195.527095 26.539083 
L 195.613048 26.539083 
L 195.613048 26.328039 
L 195.88066 26.222517 
L 195.88066 25.431102 
L 200.850947 25.32558 
L 200.952681 24.956254 
L 200.98954 24.903493 
L 201.035511 23.901034 
L 201.281835 23.795512 
L 201.281835 23.742751 
L 202.019463 23.68999 
L 202.019463 23.584468 
L 208.479921 23.478946 
L 208.590867 22.107161 
L 208.615433 22.001639 
L 208.639968 21.737834 
L 213.86228 21.632312 
L 213.931807 20.94642 
L 214.037917 20.840898 
L 214.060906 20.577093 
L 217.995764 20.577093 
L 218.103557 19.627395 
L 221.362351 19.574634 
L 221.464926 17.886283 
L 221.54535 17.780761 
L 221.548436 17.622478 
L 224.367617 17.569717 
L 224.420675 17.147629 
L 226.84099 17.147629 
L 226.871246 16.725541 
L 230.991088 16.62002 
L 231.034007 15.617561 
L 232.820584 15.512039 
L 232.847685 15.03719 
L 234.424887 15.03719 
L 234.459098 14.720624 
L 235.929657 14.615102 
L 235.951197 13.981971 
L 237.332926 13.876449 
L 237.366235 13.665405 
L 239.820673 13.559883 
L 239.86152 12.926751 
L 240.977809 12.821229 
L 240.98989 12.610185 
L 242.050758 12.504663 
L 242.053871 12.399141 
L 244.014376 12.34638 
L 244.014376 12.240859 
L 246.642459 12.135337 
L 246.649774 11.924293 
L 247.441479 11.871532 
L 247.464061 11.660488 
L 248.938993 11.607727 
L 248.963442 11.185639 
L 249.67317 11.132878 
L 249.67317 11.027356 
L 253.420113 10.921834 
L 253.428617 10.605268 
L 253.986471 10.499746 
L 253.999672 10.394224 
L 255.581818 10.288702 
L 255.581818 10.235941 
L 256.079638 10.13042 
L 256.079638 10.077659 
L 258.4004 10.024898 
L 258.4004 9.919376 
L 258.936187 9.813854 
L 258.936187 9.761093 
L 259.674518 9.655571 
L 259.719602 9.550049 
L 260.467403 9.444527 
L 260.467403 9.391766 
L 262.329426 9.286244 
L 262.329426 9.233483 
L 263.703209 9.127961 
L 263.703209 9.022439 
L 264.656656 8.916917 
L 264.656656 8.811395 
L 265.658268 8.705873 
L 265.658268 8.653112 
L 268.34719 8.54759 
L 268.347446 8.336546 
L 270.760841 8.231024 
L 270.760841 8.178263 
L 273.576622 8.072741 
L 273.576622 8.01998 
L 274.819691 7.914459 
L 274.819691 7.861698 
L 276.561886 7.756176 
L 276.561886 7.703415 
L 280.989201 7.597893 
L 280.989201 7.545132 
L 286.628076 7.43961 
L 286.628076 7.386849 
L 294.47973 7.281327 
L 294.479794 7.175805 
L 297.983666 7.070283 
L 297.983666 7.017522 
L 360.8064 6.912 
L 360.8064 6.912 
" style="fill:none;stroke:#000080;stroke-linecap:square;stroke-width:1.5;"/>
   </g>
   <g id="line2d_31">
    <defs>
     <path d="M 0 6 
C 1.591219 6 3.117479 5.367802 4.242641 4.242641 
C 5.367802 3.117479 6 1.591219 6 0 
C 6 -1.591219 5.367802 -3.117479 4.242641 -4.242641 
C 3.117479 -5.367802 1.591219 -6 0 -6 
C -1.591219 -6 -3.117479 -5.367802 -4.242641 -4.242641 
C -5.367802 -3.117479 -6 -1.591219 -6 0 
C -6 1.591219 -5.367802 3.117479 -4.242641 4.242641 
C -3.117479 5.367802 -1.591219 6 0 6 
z
" id="mee12e7dc1b" style="stroke:#000080;stroke-width:1.5;"/>
    </defs>
    <g>
     <use style="fill-opacity:0;stroke:#000080;stroke-width:1.5;" x="102.708132" xlink:href="#mee12e7dc1b" y="212.627044"/>
     <use style="fill-opacity:0;stroke:#000080;stroke-width:1.5;" x="151.857828" xlink:href="#mee12e7dc1b" y="75.60679"/>
     <use style="fill-opacity:0;stroke:#000080;stroke-width:1.5;" x="202.019463" xlink:href="#mee12e7dc1b" y="23.68999"/>
     <use style="fill-opacity:0;stroke:#000080;stroke-width:1.5;" x="303.085847" xlink:href="#mee12e7dc1b" y="6.964761"/>
     <use style="fill-opacity:0;stroke:#000080;stroke-width:1.5;" x="303.085847" xlink:href="#mee12e7dc1b" y="6.912"/>
     <use style="fill-opacity:0;stroke:#000080;stroke-width:1.5;" x="360.8064" xlink:href="#mee12e7dc1b" y="6.912"/>
    </g>
   </g>
   <g id="line2d_32">
    <path style="fill:none;stroke:#000080;stroke-linecap:square;stroke-width:1.5;"/>
    <g/>
   </g>
   <g id="line2d_33">
    <path clip-path="url(#pf90e7fc1e3)" d="M 230.938706 16.62002 
" style="fill:none;stroke:#000080;stroke-linecap:square;stroke-width:1.5;"/>
    <defs>
     <path d="M -12 12 
L 12 -12 
M -12 -12 
L 12 12 
" id="mc48523afca" style="stroke:#000080;"/>
    </defs>
    <g clip-path="url(#pf90e7fc1e3)">
     <use style="fill:#000080;stroke:#000080;" x="230.938706" xlink:href="#mc48523afca" y="16.62002"/>
    </g>
   </g>
   <g id="line2d_34">
    <defs>
     <path d="M 0 1.5 
C 0.397805 1.5 0.77937 1.341951 1.06066 1.06066 
C 1.341951 0.77937 1.5 0.397805 1.5 0 
C 1.5 -0.397805 1.341951 -0.77937 1.06066 -1.06066 
C 0.77937 -1.341951 0.397805 -1.5 0 -1.5 
C -0.397805 -1.5 -0.77937 -1.341951 -1.06066 -1.06066 
C -1.341951 -0.77937 -1.5 -0.397805 -1.5 0 
C -1.5 0.397805 -1.341951 0.77937 -1.06066 1.06066 
C -0.77937 1.341951 -0.397805 1.5 0 1.5 
z
" id="m74f88bbe50" style="stroke:#ff00ff;"/>
    </defs>
    <g>
     <use style="fill:#ff00ff;stroke:#ff00ff;" x="269.543492" xlink:href="#m74f88bbe50" y="42.525659"/>
     <use style="fill:#ff00ff;stroke:#ff00ff;" x="269.543492" xlink:href="#m74f88bbe50" y="42.525659"/>
    </g>
   </g>
   <g id="line2d_35">
    <path d="M 44.560826 298.944 
L 44.560826 292.929249 
L 83.678349 292.929249 
L 83.678349 272.721795 
L 87.876026 272.721795 
L 87.876026 272.563512 
L 94.205591 272.563512 
L 94.205591 254.730302 
L 96.717523 254.730302 
L 96.717523 254.202693 
L 98.933205 254.202693 
L 98.933205 253.675083 
L 100.9152 253.675083 
L 100.9152 228.61362 
L 102.708132 228.61362 
L 102.708132 227.505639 
L 104.344952 227.505639 
L 104.344952 225.975571 
L 105.850679 225.975571 
L 105.850679 202.919024 
L 107.244765 202.813502 
L 107.244765 200.808585 
L 108.542628 200.808585 
L 108.542628 199.489561 
L 109.756698 199.489561 
L 109.756698 183.18642 
L 110.897141 183.18642 
L 110.897141 178.648976 
L 111.97238 178.596215 
L 111.97238 176.591298 
L 112.989468 176.591298 
L 112.989468 166.46119 
L 113.954374 166.46119 
L 113.954374 164.983883 
L 114.872193 164.983883 
L 114.872193 162.240312 
L 115.747307 162.240312 
L 115.747307 154.062361 
L 116.583514 154.062361 
L 116.583514 152.532293 
L 117.384126 152.532293 
L 117.384126 149.735961 
L 118.152051 149.735961 
L 118.152051 144.82919 
L 118.889854 144.82919 
L 118.889854 143.035317 
L 119.599808 143.035317 
L 119.599808 141.716293 
L 120.28394 141.716293 
L 120.28394 137.970263 
L 120.944062 137.970263 
L 120.944062 135.06841 
L 121.581803 135.06841 
L 121.581803 134.5408 
L 122.19863 134.5408 
L 122.19863 129.317463 
L 122.795872 129.317463 
L 122.795872 127.418068 
L 123.374735 127.418068 
L 123.374735 125.993522 
L 123.936316 125.993522 
L 123.936316 123.7248 
L 124.481616 123.7248 
L 124.481616 122.511298 
L 125.011554 122.511298 
L 125.011554 121.930927 
L 125.526971 121.930927 
L 125.526971 119.345639 
L 126.028642 119.345639 
L 126.028642 117.657288 
L 126.517282 117.657288 
L 126.517282 116.918634 
L 127.458055 116.865873 
L 127.458055 115.757893 
L 127.911368 115.757893 
L 127.911368 115.283044 
L 128.354013 115.283044 
L 128.354013 114.122302 
L 129.209231 114.069541 
L 129.209231 113.225366 
L 129.622688 113.225366 
L 129.622688 112.9088 
L 130.027253 112.803278 
L 130.027253 112.486712 
L 130.226319 112.486712 
L 130.226319 112.328429 
L 130.811181 112.328429 
L 130.811181 110.640078 
L 131.191226 110.534556 
L 131.191226 109.004488 
L 131.563744 109.004488 
L 131.563744 108.371356 
L 131.929028 108.318595 
L 131.929028 107.52718 
L 132.109044 107.52718 
L 132.109044 107.368898 
L 132.287354 107.368898 
L 132.287354 106.471961 
L 132.638982 106.471961 
L 132.638982 105.997112 
L 132.812362 105.997112 
L 132.812362 105.786068 
L 132.984158 105.786068 
L 132.984158 105.469502 
L 133.323114 105.469502 
L 133.323114 105.100176 
L 133.656071 105.100176 
L 133.656071 104.519805 
L 133.983236 104.519805 
L 133.983236 103.833912 
L 134.304809 103.833912 
L 134.304809 103.464585 
L 134.620977 103.464585 
L 134.620977 103.14802 
L 134.931919 103.14802 
L 134.931919 102.514888 
L 135.237805 102.514888 
L 135.237805 101.987278 
L 135.538796 101.987278 
L 135.538796 101.512429 
L 135.835047 101.512429 
L 135.835047 100.509971 
L 136.126705 100.509971 
L 136.126705 99.824078 
L 136.413909 99.824078 
L 136.413909 99.40199 
L 136.97549 99.349229 
L 136.97549 99.032663 
L 137.250116 99.032663 
L 137.250116 98.452293 
L 137.787626 98.452293 
L 137.787626 98.29401 
L 138.050729 98.29401 
L 138.050729 97.502595 
L 138.566146 97.397073 
L 138.566146 96.974985 
L 138.818654 96.974985 
L 138.818654 96.447376 
L 139.067817 96.447376 
L 139.067817 96.025288 
L 139.313723 96.025288 
L 139.313723 95.761483 
L 139.796097 95.708722 
L 139.796097 95.6032 
L 140.26641 95.550439 
L 140.26641 95.444917 
L 140.725251 95.444917 
L 140.725251 94.917307 
L 141.393187 94.917307 
L 141.393187 94.54798 
L 141.610664 94.54798 
L 141.610664 94.178654 
L 142.038218 94.178654 
L 142.038218 93.809327 
L 142.45627 93.703805 
L 142.45627 93.598283 
L 142.865233 93.598283 
L 142.865233 93.44 
L 143.066428 93.44 
L 143.066428 93.281717 
L 143.657415 93.281717 
L 143.754133 92.965151 
L 144.602918 92.859629 
L 144.602918 92.806868 
L 146.529503 92.806868 
L 146.529503 92.648585 
L 147.816265 92.595824 
L 147.816265 92.226498 
L 148.57797 92.120976 
L 148.57797 92.068215 
L 149.595059 92.015454 
L 149.595059 91.909932 
L 149.875833 91.80441 
L 149.875833 91.751649 
L 150.152479 91.646127 
L 150.152479 91.487844 
L 151.731998 91.382322 
L 151.731998 91.329561 
L 152.291722 91.329561 
L 152.352898 91.012995 
L 154.101358 90.907473 
L 154.101358 90.801951 
L 156.005274 90.696429 
L 156.005274 90.590907 
L 158.717331 90.485385 
L 158.717331 90.432624 
L 159.734419 90.327102 
L 159.734419 90.274341 
L 161.765853 90.16882 
L 161.765853 90.063298 
L 162.704821 89.957776 
L 162.775144 89.852254 
L 163.531835 89.799493 
L 163.531835 89.693971 
L 165.574415 89.588449 
L 165.574415 89.535688 
L 167.850487 89.535688 
L 167.850487 89.324644 
L 168.740211 89.271883 
L 168.740211 89.008078 
L 169.094679 89.008078 
L 169.094679 88.691512 
L 171.315934 88.58599 
L 171.315934 88.322185 
L 172.377547 88.216663 
L 172.3986 88.05838 
L 173.10076 87.952859 
L 173.10076 87.900098 
L 174.73082 87.847337 
L 174.73082 87.741815 
L 175.352444 87.689054 
L 175.40632 87.530771 
L 178.09229 87.47801 
L 178.18534 87.266966 
L 178.431246 87.214205 
L 178.431246 86.9504 
L 181.625402 86.844878 
L 181.625402 86.792117 
L 181.982756 86.792117 
L 182.083622 86.317268 
L 182.108755 86.317268 
L 182.108755 86.158985 
L 182.358249 86.158985 
L 182.432456 85.262049 
L 182.628923 85.209288 
L 182.702072 84.681678 
L 182.750681 84.681678 
L 182.750681 84.523395 
L 183.135094 84.470634 
L 183.206305 83.995785 
L 183.651154 83.890263 
L 183.720442 83.626459 
L 183.858256 83.573698 
L 183.858256 82.835044 
L 184.355108 82.835044 
L 184.366249 82.624 
L 185.395644 82.518478 
L 185.500795 82.149151 
L 185.91562 82.043629 
L 186.017913 81.51602 
L 186.038305 81.51602 
L 186.038305 81.252215 
L 186.180433 81.252215 
L 186.261169 80.98841 
L 186.34156 80.98841 
L 186.441569 80.777366 
L 186.521195 80.777366 
L 186.580694 80.566322 
L 186.738443 80.4608 
L 186.738443 80.091473 
L 187.394502 80.038712 
L 187.394502 79.880429 
L 187.526779 79.880429 
L 187.526779 79.722146 
L 187.816409 79.669385 
L 187.890434 79.194537 
L 187.982557 79.141776 
L 188.092513 77.24238 
L 188.110777 77.24238 
L 188.219988 75.501268 
L 188.256251 75.395746 
L 188.346604 74.762615 
L 188.61509 74.657093 
L 188.61509 74.604332 
L 188.853493 74.49881 
L 188.932294 74.235005 
L 189.158105 74.129483 
L 189.244239 73.760156 
L 189.278582 73.760156 
L 189.347081 73.44359 
L 189.786347 73.390829 
L 189.836378 73.074263 
L 190.507122 72.968741 
L 190.507122 72.91598 
L 193.529367 72.810459 
L 193.543048 72.652176 
L 194.30687 72.546654 
L 194.372416 72.388371 
L 196.345903 72.282849 
L 196.381218 72.124566 
L 196.475071 72.019044 
L 196.580099 71.596956 
L 198.185374 71.491434 
L 198.291925 71.069346 
L 198.313163 71.016585 
L 198.376733 70.488976 
L 198.534726 70.436215 
L 198.555692 70.119649 
L 198.784786 70.014127 
L 198.867407 68.958907 
L 199.12328 68.853385 
L 199.12328 68.747863 
L 199.624818 68.642341 
L 199.624818 68.58958 
L 199.83154 68.484059 
L 199.929187 68.167493 
L 200.084374 68.061971 
L 200.190328 67.745405 
L 200.575366 67.639883 
L 200.608274 67.4816 
L 200.743997 67.376078 
L 200.84631 67.006751 
L 200.855583 67.006751 
L 200.966512 65.160117 
L 200.984936 65.160117 
L 201.07679 64.79079 
L 201.286366 64.685268 
L 201.30448 64.474224 
L 201.466727 64.421463 
L 201.502593 64.26318 
L 202.115086 64.157659 
L 202.188644 64.052137 
L 204.209466 63.946615 
L 204.209466 63.893854 
L 205.505778 63.788332 
L 205.556395 63.68281 
L 205.671583 63.577288 
L 205.671583 63.524527 
L 206.677713 63.471766 
L 206.779489 63.1552 
L 206.887447 63.102439 
L 206.994788 62.891395 
L 207.021528 62.785873 
L 207.108171 62.205502 
L 207.257194 62.09998 
L 207.257194 62.04722 
L 207.703751 61.941698 
L 207.790522 61.677893 
L 207.880086 61.572371 
L 207.978751 61.150283 
L 208.161971 61.044761 
L 208.256045 60.833717 
L 208.408694 60.728195 
L 208.507719 59.145366 
L 208.798664 59.039844 
L 208.853287 58.723278 
L 211.272571 58.617756 
L 211.272571 58.564995 
L 212.407371 58.459473 
L 212.502455 58.248429 
L 212.626837 58.142907 
L 212.725755 58.037385 
L 212.765176 57.931863 
L 212.789773 57.668059 
L 212.946435 57.562537 
L 212.946435 57.509776 
L 213.258296 57.404254 
L 213.368263 56.982166 
L 213.588644 56.876644 
L 213.659188 56.718361 
L 213.792496 56.612839 
L 213.890122 55.55762 
L 214.07239 55.452098 
L 214.111382 55.241054 
L 216.326555 55.135532 
L 216.326555 55.082771 
L 216.880466 54.977249 
L 216.971219 54.766205 
L 217.038018 54.660683 
L 217.147524 54.238595 
L 217.174801 54.133073 
L 217.283516 54.027551 
L 217.518207 53.922029 
L 217.579283 53.658224 
L 217.802805 53.552702 
L 217.862965 53.39442 
L 217.980848 53.288898 
L 218.088725 52.919571 
L 218.157222 52.814049 
L 218.22547 52.497483 
L 219.246725 52.391961 
L 219.260671 52.233678 
L 220.494879 52.128156 
L 220.547029 51.758829 
L 220.815263 51.653307 
L 220.84412 51.495024 
L 221.003635 51.389502 
L 221.092376 51.28398 
L 221.365467 51.178459 
L 221.469575 50.756371 
L 221.599289 50.650849 
L 221.685271 50.545327 
L 221.715883 50.439805 
L 221.715883 50.387044 
L 223.551868 50.281522 
L 223.600356 50.176 
L 223.698337 50.070478 
L 223.799918 49.806673 
L 223.945834 49.701151 
L 224.051494 49.490107 
L 224.27307 49.384585 
L 224.355659 48.962498 
L 225.169835 48.856976 
L 225.169835 48.804215 
L 226.183238 48.698693 
L 226.285478 48.487649 
L 226.488307 48.382127 
L 226.530979 48.276605 
L 226.794346 48.171083 
L 226.882871 48.065561 
L 226.91654 47.960039 
L 226.91654 47.907278 
L 228.099991 47.801756 
L 228.099991 47.748995 
L 228.519012 47.643473 
L 228.539241 47.537951 
L 228.990298 47.432429 
L 229.029736 47.010341 
L 230.432706 46.90482 
L 230.473076 46.799298 
L 230.720129 46.693776 
L 230.720129 46.641015 
L 230.984548 46.535493 
L 231.077758 46.324449 
L 232.768814 46.218927 
L 232.858684 45.902361 
L 234.300738 45.796839 
L 234.410873 45.585795 
L 234.461428 45.480273 
L 234.461428 45.427512 
L 235.774561 45.32199 
L 235.774561 45.269229 
L 235.922471 45.163707 
L 235.964826 44.952663 
L 237.342258 44.847141 
L 237.35092 44.74162 
L 238.588914 44.688859 
L 238.607615 44.372293 
L 239.811323 44.266771 
L 239.848109 44.161249 
L 240.953623 44.055727 
L 240.953623 44.002966 
L 243.034309 43.897444 
L 243.075628 43.791922 
L 244.012507 43.6864 
L 244.012507 43.633639 
L 246.633514 43.528117 
L 246.633514 43.475356 
L 247.427838 43.369834 
L 247.427838 43.317073 
L 248.202328 43.211551 
L 248.202328 43.15879 
L 252.243185 43.053268 
L 252.243185 43.000507 
L 253.979042 42.894985 
L 253.979042 42.842224 
L 255.230538 42.736702 
L 255.230538 42.683941 
L 269.543492 42.57842 
L 269.543492 42.525659 
L 360.8064 42.525659 
L 360.8064 42.525659 
" style="fill:none;stroke:#ff00ff;stroke-linecap:square;stroke-width:1.5;"/>
   </g>
   <g id="line2d_36">
    <defs>
     <path d="M -0 8.485281 
L 5.091169 0 
L 0 -8.485281 
L -5.091169 -0 
z
" id="m23a5e54760" style="stroke:#ff00ff;stroke-linejoin:miter;stroke-width:1.5;"/>
    </defs>
    <g>
     <use style="fill-opacity:0;stroke:#ff00ff;stroke-linejoin:miter;stroke-width:1.5;" x="94.205591" xlink:href="#m23a5e54760" y="272.563512"/>
     <use style="fill-opacity:0;stroke:#ff00ff;stroke-linejoin:miter;stroke-width:1.5;" x="123.374735" xlink:href="#m23a5e54760" y="125.993522"/>
     <use style="fill-opacity:0;stroke:#ff00ff;stroke-linejoin:miter;stroke-width:1.5;" x="199.12328" xlink:href="#m23a5e54760" y="68.747863"/>
     <use style="fill-opacity:0;stroke:#ff00ff;stroke-linejoin:miter;stroke-width:1.5;" x="269.543492" xlink:href="#m23a5e54760" y="42.57842"/>
     <use style="fill-opacity:0;stroke:#ff00ff;stroke-linejoin:miter;stroke-width:1.5;" x="269.543492" xlink:href="#m23a5e54760" y="42.525659"/>
     <use style="fill-opacity:0;stroke:#ff00ff;stroke-linejoin:miter;stroke-width:1.5;" x="360.8064" xlink:href="#m23a5e54760" y="42.525659"/>
    </g>
   </g>
   <g id="line2d_37">
    <path style="fill:none;stroke:#ff00ff;stroke-linecap:square;stroke-width:1.5;"/>
    <g/>
   </g>
   <g id="line2d_38">
    <path clip-path="url(#pf90e7fc1e3)" d="M 187.573796 79.722146 
" style="fill:none;stroke:#ff00ff;stroke-linecap:square;stroke-width:1.5;"/>
    <defs>
     <path d="M -12 12 
L 12 -12 
M -12 -12 
L 12 12 
" id="m9d2f024e05" style="stroke:#ff00ff;"/>
    </defs>
    <g clip-path="url(#pf90e7fc1e3)">
     <use style="fill:#ff00ff;stroke:#ff00ff;" x="187.573796" xlink:href="#m9d2f024e05" y="79.722146"/>
    </g>
   </g>
   <g id="line2d_39">
    <defs>
     <path d="M 0 1.5 
C 0.397805 1.5 0.77937 1.341951 1.06066 1.06066 
C 1.341951 0.77937 1.5 0.397805 1.5 0 
C 1.5 -0.397805 1.341951 -0.77937 1.06066 -1.06066 
C 0.77937 -1.341951 0.397805 -1.5 0 -1.5 
C -0.397805 -1.5 -0.77937 -1.341951 -1.06066 -1.06066 
C -1.341951 -0.77937 -1.5 -0.397805 -1.5 0 
C -1.5 0.397805 -1.341951 0.77937 -1.06066 1.06066 
C -0.77937 1.341951 -0.397805 1.5 0 1.5 
z
" id="mf5b70367e4" style="stroke:#ff7500;"/>
    </defs>
    <g>
     <use style="fill:#ff7500;stroke:#ff7500;" x="252.368025" xlink:href="#mf5b70367e4" y="6.912"/>
     <use style="fill:#ff7500;stroke:#ff7500;" x="252.368025" xlink:href="#mf5b70367e4" y="6.912"/>
    </g>
   </g>
   <g id="line2d_40">
    <path d="M 44.560826 298.944 
L 44.560826 298.732956 
L 89.668958 298.732956 
L 89.668958 203.024546 
L 92.811505 203.024546 
L 92.811505 202.12761 
L 94.205591 202.12761 
L 94.205591 201.6 
L 98.933205 201.6 
L 98.933205 172.898029 
L 100.9152 172.898029 
L 100.9152 172.317659 
L 101.833019 172.317659 
L 101.833019 172.001093 
L 105.112877 171.895571 
L 105.112877 161.870985 
L 106.560633 161.870985 
L 106.560633 161.290615 
L 108.542628 161.237854 
L 108.542628 160.815766 
L 109.756698 160.815766 
L 109.756698 152.215727 
L 110.335561 152.215727 
L 110.335561 151.424312 
L 110.897141 151.424312 
L 110.897141 150.421854 
L 111.97238 150.421854 
L 111.97238 149.947005 
L 112.487797 149.947005 
L 112.487797 149.577678 
L 113.478107 149.577678 
L 113.478107 139.183766 
L 114.418881 139.078244 
L 114.418881 137.389893 
L 115.314838 137.389893 
L 115.314838 135.226693 
L 116.170056 135.226693 
L 116.170056 134.857366 
L 116.583514 134.857366 
L 116.583514 129.422985 
L 116.988079 129.422985 
L 116.988079 129.264702 
L 117.384126 129.264702 
L 117.384126 127.629112 
L 118.152051 127.629112 
L 118.152051 126.151805 
L 118.889854 126.151805 
L 118.889854 125.729717 
L 119.24818 125.729717 
L 119.24818 122.564059 
L 119.944983 122.564059 
L 119.944983 119.3984 
L 120.616896 119.3984 
L 120.616896 116.918634 
L 120.944062 116.918634 
L 120.944062 116.654829 
L 121.265635 116.654829 
L 121.265635 115.810654 
L 121.581803 115.810654 
L 121.581803 112.961561 
L 122.19863 112.961561 
L 122.19863 111.062166 
L 122.795872 111.062166 
L 122.795872 108.107551 
L 123.374735 108.107551 
L 123.374735 106.735766 
L 123.657621 106.735766 
L 123.657621 105.89159 
L 123.936316 105.89159 
L 123.936316 105.416741 
L 124.210942 105.416741 
L 124.210942 103.992195 
L 124.748451 103.992195 
L 124.748451 102.725932 
L 125.011554 102.725932 
L 125.011554 102.303844 
L 125.271028 102.303844 
L 125.271028 101.987278 
L 125.526971 101.987278 
L 125.526971 100.721015 
L 126.028642 100.615493 
L 126.028642 99.771317 
L 126.517282 99.665795 
L 126.517282 98.610576 
L 126.993549 98.557815 
L 126.993549 98.399532 
L 127.227236 98.399532 
L 127.227236 96.922224 
L 127.686077 96.922224 
L 127.686077 95.655961 
L 127.911368 95.655961 
L 127.911368 95.286634 
L 128.133992 95.286634 
L 128.133992 94.811785 
L 128.57149 94.759024 
L 128.57149 94.231415 
L 128.786481 94.231415 
L 128.786481 93.123434 
L 129.209231 93.070673 
L 129.209231 92.33202 
L 129.417095 92.33202 
L 129.417095 92.068215 
L 129.826058 92.015454 
L 129.826058 91.80441 
L 130.027253 91.80441 
L 130.027253 90.696429 
L 130.618241 90.590907 
L 130.618241 90.432624 
L 131.002163 90.327102 
L 131.002163 90.063298 
L 131.191226 90.063298 
L 131.191226 89.852254 
L 131.563744 89.746732 
L 131.563744 89.588449 
L 132.287354 89.588449 
L 132.287354 89.430166 
L 133.154399 89.377405 
L 133.154399 89.166361 
L 133.323114 89.166361 
L 133.323114 88.955317 
L 133.490329 88.955317 
L 133.490329 88.533229 
L 133.983236 88.533229 
L 133.983236 88.269424 
L 134.463557 88.269424 
L 134.463557 88.05838 
L 134.620977 88.05838 
L 134.620977 87.741815 
L 135.085483 87.636293 
L 135.085483 87.319727 
L 135.388902 87.319727 
L 135.388902 87.108683 
L 135.687504 87.108683 
L 135.687504 86.211746 
L 135.981441 86.211746 
L 135.981441 85.051005 
L 136.126705 85.051005 
L 136.126705 84.892722 
L 136.270855 84.892722 
L 136.270855 84.365112 
L 136.696795 84.25959 
L 136.696795 84.206829 
L 136.97549 84.206829 
L 136.97549 83.943024 
L 137.250116 83.943024 
L 137.250116 83.626459 
L 137.654681 83.573698 
L 137.654681 83.15161 
L 137.919637 83.15161 
L 137.919637 82.835044 
L 138.310202 82.835044 
L 138.310202 82.571239 
L 138.818654 82.518478 
L 138.818654 82.412956 
L 139.067817 82.360195 
L 139.067817 82.201912 
L 139.191172 82.201912 
L 139.191172 81.832585 
L 139.676658 81.832585 
L 139.676658 81.463259 
L 140.14993 81.357737 
L 140.14993 80.98841 
L 140.725251 80.882888 
L 140.725251 80.619083 
L 141.50224 80.513561 
L 141.50224 80.4608 
L 142.143605 80.355278 
L 142.143605 80.302517 
L 144.786447 80.196995 
L 144.786447 80.144234 
L 145.415054 80.038712 
L 145.415054 79.774907 
L 146.529503 79.669385 
L 146.612557 79.511102 
L 147.183884 79.40558 
L 147.183884 79.35282 
L 148.124658 79.300059 
L 148.124658 79.194537 
L 148.352679 79.089015 
L 148.352679 79.036254 
L 149.381693 78.930732 
L 149.381693 78.719688 
L 149.595059 78.719688 
L 149.665646 78.508644 
L 149.945377 78.403122 
L 149.945377 78.350361 
L 151.41369 78.244839 
L 151.41369 78.192078 
L 152.53524 78.086556 
L 152.53524 77.664468 
L 153.071898 77.558946 
L 153.071898 77.506185 
L 154.156931 77.400663 
L 154.156931 77.295141 
L 155.077392 77.18962 
L 155.077392 77.136859 
L 156.005274 77.031337 
L 156.005274 76.978576 
L 156.501649 76.925815 
L 156.501649 76.556488 
L 157.175281 76.450966 
L 157.175281 76.345444 
L 157.595929 76.239922 
L 157.595929 75.976117 
L 157.916719 75.976117 
L 157.916719 75.817834 
L 158.321284 75.712312 
L 158.321284 75.659551 
L 159.693121 75.554029 
L 159.693121 75.395746 
L 160.343261 75.342985 
L 160.343261 75.07918 
L 160.620781 75.07918 
L 160.620781 74.49881 
L 161.163832 74.393288 
L 161.163832 74.340527 
L 161.579783 74.235005 
L 161.654432 73.918439 
L 162.05979 73.812917 
L 162.132562 73.707395 
L 164.580835 73.601873 
L 164.580835 73.549112 
L 165.146166 73.549112 
L 165.17708 73.232546 
L 165.695002 73.179785 
L 165.695002 73.074263 
L 166.518139 73.021502 
L 166.518139 72.86322 
L 166.775248 72.86322 
L 166.860176 72.652176 
L 167.16834 72.652176 
L 167.16834 72.493893 
L 167.416772 72.388371 
L 167.416772 72.33561 
L 167.553385 72.33561 
L 167.607754 72.124566 
L 167.930707 72.071805 
L 167.930707 71.966283 
L 168.116567 71.966283 
L 168.116567 71.702478 
L 168.352863 71.702478 
L 168.378936 71.438673 
L 168.534619 71.438673 
L 168.534619 71.174868 
L 168.714635 71.174868 
L 168.714635 70.488976 
L 168.892945 70.488976 
L 168.91828 70.277932 
L 170.796182 70.17241 
L 170.796182 70.119649 
L 171.338209 70.014127 
L 171.338209 69.750322 
L 171.929885 69.6448 
L 171.929885 69.592039 
L 173.362455 69.486517 
L 173.402394 69.380995 
L 173.659955 69.328234 
L 173.679622 69.11719 
L 173.816719 69.11719 
L 173.836223 68.695102 
L 173.952824 68.695102 
L 173.991531 68.220254 
L 175.098964 68.114732 
L 175.098964 67.217795 
L 175.866889 67.217795 
L 175.866889 67.059512 
L 175.988986 67.059512 
L 175.988986 66.901229 
L 177.070019 66.795707 
L 177.070019 66.742946 
L 178.014396 66.690185 
L 178.061171 66.057054 
L 178.431246 65.951532 
L 178.431246 65.793249 
L 179.017511 65.687727 
L 179.06186 65.3184 
L 179.369413 65.265639 
L 179.369413 65.054595 
L 179.729109 64.949073 
L 179.771814 64.579746 
L 179.899351 64.579746 
L 179.899351 64.157659 
L 180.137919 64.104898 
L 180.23528 63.893854 
L 180.524377 63.788332 
L 180.538033 63.049678 
L 180.876258 62.944156 
L 180.943179 62.522068 
L 181.089573 62.522068 
L 181.116069 61.730654 
L 181.300497 61.625132 
L 181.392038 60.992 
L 181.509082 60.886478 
L 181.509082 60.569912 
L 181.689715 60.569912 
L 181.689715 60.200585 
L 181.804928 60.200585 
L 181.804928 60.042302 
L 182.258848 59.93678 
L 182.258848 59.778498 
L 182.555488 59.672976 
L 182.592241 59.35641 
L 182.702072 59.250888 
L 182.811266 58.723278 
L 182.907797 58.670517 
L 182.991858 58.353951 
L 183.170733 58.248429 
L 183.206305 57.140449 
L 183.312619 57.034927 
L 183.312619 56.876644 
L 183.488484 56.823883 
L 183.558372 56.349034 
L 183.628001 56.349034 
L 183.731965 55.61038 
L 183.800956 55.61038 
L 183.881127 54.766205 
L 183.915382 54.766205 
L 183.915382 54.5024 
L 184.063102 54.449639 
L 184.074417 53.710985 
L 184.576684 53.605463 
L 184.576684 53.44718 
L 184.730249 53.44718 
L 184.730249 53.288898 
L 185.065888 53.183376 
L 185.172894 53.025093 
L 185.258062 53.025093 
L 185.353418 52.180917 
L 185.406185 52.180917 
L 185.406185 51.969873 
L 185.823079 51.864351 
L 185.874547 51.706068 
L 186.461507 51.600546 
L 186.461507 51.547785 
L 186.649872 51.547785 
L 186.649872 51.020176 
L 187.13674 50.914654 
L 187.13674 50.861893 
L 187.299446 50.861893 
L 187.385018 50.598088 
L 187.507939 50.598088 
L 187.507939 50.334283 
L 187.667479 50.334283 
L 187.769995 49.912195 
L 187.918118 49.806673 
L 187.991745 49.12078 
L 188.183654 49.06802 
L 188.247192 48.645932 
L 188.310515 48.645932 
L 188.310515 48.329366 
L 188.436526 48.329366 
L 188.517089 47.854517 
L 188.579512 47.854517 
L 188.659467 47.537951 
L 188.694894 47.537951 
L 188.791974 46.271688 
L 188.853493 46.166166 
L 188.853493 46.060644 
L 189.036852 46.060644 
L 189.11489 45.058185 
L 189.175363 45.005424 
L 189.235643 44.79438 
L 189.29573 44.79438 
L 189.372704 43.528117 
L 189.432356 43.528117 
L 189.432356 43.106029 
L 189.567996 43.106029 
L 189.677488 42.736702 
L 189.811379 42.63118 
L 189.886276 42.420137 
L 190.280766 42.314615 
L 190.353821 42.156332 
L 190.833733 42.103571 
L 190.943973 40.942829 
L 191.014501 40.942829 
L 191.12369 40.309698 
L 191.592179 40.204176 
L 191.69053 39.518283 
L 192.115795 39.412761 
L 192.115795 39.148956 
L 192.553292 39.148956 
L 192.618048 38.621346 
L 192.66826 38.621346 
L 192.768284 38.25202 
L 192.959698 38.199259 
L 193.037126 37.671649 
L 193.225837 37.671649 
L 193.225837 37.355083 
L 193.405787 37.355083 
L 193.440197 36.985756 
L 194.703191 36.932995 
L 194.703191 36.721951 
L 195.260611 36.66919 
L 195.3167 36.352624 
L 195.533247 36.299863 
L 195.631416 34.928078 
L 195.661989 34.928078 
L 195.771642 33.450771 
L 195.783786 33.450771 
L 195.88066 32.975922 
L 196.001054 32.8704 
L 196.084874 32.290029 
L 196.126644 32.237268 
L 196.126644 32.026224 
L 197.840297 31.973463 
L 197.916325 31.023766 
L 198.024407 31.023766 
L 198.105062 30.7072 
L 198.137228 30.7072 
L 198.196056 29.810263 
L 199.505663 29.757502 
L 199.605011 28.860566 
L 199.708765 28.807805 
L 199.708765 28.227434 
L 199.865774 28.227434 
L 199.972963 26.961171 
L 200.050536 26.855649 
L 200.050536 26.644605 
L 200.697307 26.539083 
L 200.795223 26.433561 
L 200.961903 26.328039 
L 201.072208 26.169756 
L 201.340656 26.169756 
L 201.444277 25.642146 
L 203.250683 25.536624 
L 203.307737 24.903493 
L 203.421329 24.903493 
L 203.485932 23.953795 
L 203.610472 23.848273 
L 203.630482 23.637229 
L 203.758046 23.637229 
L 203.758046 23.426185 
L 204.306184 23.320663 
L 204.402407 23.004098 
L 204.887502 22.951337 
L 204.973357 22.0544 
L 205.025425 22.0544 
L 205.118048 21.737834 
L 205.15128 21.737834 
L 205.243287 21.474029 
L 205.283627 21.474029 
L 205.360402 20.735376 
L 205.451393 20.735376 
L 205.552784 20.366049 
L 207.483427 20.260527 
L 207.483427 20.207766 
L 207.652142 20.155005 
L 207.716632 19.521873 
L 208.174542 19.416351 
L 208.231005 19.310829 
L 208.427301 19.205307 
L 208.483011 19.099785 
L 208.627705 18.994263 
L 208.64916 18.677698 
L 209.625091 18.572176 
L 209.625091 18.519415 
L 210.070576 18.413893 
L 210.172552 18.202849 
L 212.970796 18.097327 
L 212.970796 17.939044 
L 213.808802 17.939044 
L 213.910976 16.62002 
L 213.92718 16.62002 
L 213.980323 16.039649 
L 216.965314 15.934127 
L 217.0537 15.775844 
L 217.176748 15.670322 
L 217.229237 15.5648 
L 218.924852 15.459278 
L 218.924852 15.248234 
L 220.963883 15.142712 
L 220.963883 15.089951 
L 221.98918 15.089951 
L 221.98918 14.878907 
L 225.484136 14.826146 
L 225.57031 13.559883 
L 225.610141 13.559883 
L 225.692028 12.926751 
L 226.739391 12.821229 
L 226.84914 12.557424 
L 226.894488 12.451902 
L 226.982544 12.29362 
L 227.081692 12.29362 
L 227.081692 12.029815 
L 228.094543 11.924293 
L 228.202104 11.660488 
L 228.41968 11.607727 
L 228.524337 11.132878 
L 228.571138 11.027356 
L 228.612523 10.605268 
L 229.538062 10.552507 
L 229.606556 10.288702 
L 229.809559 10.235941 
L 229.913707 9.919376 
L 230.069346 9.813854 
L 230.11246 9.708332 
L 230.836329 9.60281 
L 230.94058 9.339005 
L 231.039598 9.286244 
L 231.054499 9.022439 
L 231.484301 8.969678 
L 231.568734 8.811395 
L 232.85107 8.705873 
L 232.922013 8.494829 
L 234.834419 8.389307 
L 234.83518 8.283785 
L 235.090053 8.231024 
L 235.09456 8.072741 
L 236.133297 7.96722 
L 236.242424 7.861698 
L 239.814246 7.756176 
L 239.814246 7.703415 
L 240.649766 7.597893 
L 240.698335 7.492371 
L 241.49523 7.386849 
L 241.51179 7.281327 
L 247.991632 7.175805 
L 247.991632 7.123044 
L 250.01637 7.017522 
L 250.01637 6.964761 
L 360.8064 6.912 
L 360.8064 6.912 
" style="fill:none;stroke:#ff7500;stroke-linecap:square;stroke-width:1.5;"/>
   </g>
   <g id="line2d_41">
    <defs>
     <path d="M 0 -6 
L -1.347084 -1.854102 
L -5.706339 -1.854102 
L -2.179628 0.708204 
L -3.526712 4.854102 
L -0 2.291796 
L 3.526712 4.854102 
L 2.179628 0.708204 
L 5.706339 -1.854102 
L 1.347084 -1.854102 
z
" id="m5df0ea75a0" style="stroke:#ff7500;stroke-linejoin:bevel;stroke-width:1.5;"/>
    </defs>
    <g>
     <use style="fill-opacity:0;stroke:#ff7500;stroke-linejoin:bevel;stroke-width:1.5;" x="104.344952" xlink:href="#m5df0ea75a0" y="171.895571"/>
     <use style="fill-opacity:0;stroke:#ff7500;stroke-linejoin:bevel;stroke-width:1.5;" x="147.423525" xlink:href="#m5df0ea75a0" y="79.300059"/>
     <use style="fill-opacity:0;stroke:#ff7500;stroke-linejoin:bevel;stroke-width:1.5;" x="216.965314" xlink:href="#m5df0ea75a0" y="15.934127"/>
     <use style="fill-opacity:0;stroke:#ff7500;stroke-linejoin:bevel;stroke-width:1.5;" x="252.368025" xlink:href="#m5df0ea75a0" y="6.912"/>
     <use style="fill-opacity:0;stroke:#ff7500;stroke-linejoin:bevel;stroke-width:1.5;" x="252.368025" xlink:href="#m5df0ea75a0" y="6.912"/>
     <use style="fill-opacity:0;stroke:#ff7500;stroke-linejoin:bevel;stroke-width:1.5;" x="360.8064" xlink:href="#m5df0ea75a0" y="6.912"/>
    </g>
   </g>
   <g id="line2d_42">
    <path style="fill:none;stroke:#ff7500;stroke-linecap:square;stroke-width:1.5;"/>
    <g/>
   </g>
   <g id="line2d_43">
    <path clip-path="url(#pf90e7fc1e3)" d="M 228.435737 11.502205 
" style="fill:none;stroke:#ff7500;stroke-linecap:square;stroke-width:1.5;"/>
    <defs>
     <path d="M -12 12 
L 12 -12 
M -12 -12 
L 12 12 
" id="m27a284d7c5" style="stroke:#ff7500;"/>
    </defs>
    <g clip-path="url(#pf90e7fc1e3)">
     <use style="fill:#ff7500;stroke:#ff7500;" x="228.435737" xlink:href="#m27a284d7c5" y="11.502205"/>
    </g>
   </g>
   <g id="line2d_44">
    <path d="M 360.8064 42.525659 
L 380.514816 293.10336 
" style="fill:none;stroke:#ff00ff;stroke-linecap:square;stroke-width:1.5;"/>
    <g>
     <use style="fill-opacity:0;stroke:#ff00ff;stroke-linejoin:miter;stroke-width:1.5;" x="360.8064" xlink:href="#m23a5e54760" y="42.525659"/>
     <use style="fill-opacity:0;stroke:#ff00ff;stroke-linejoin:miter;stroke-width:1.5;" x="380.514816" xlink:href="#m23a5e54760" y="293.10336"/>
    </g>
   </g>
   <g id="line2d_45">
    <path d="M 360.8064 6.912 
L 380.514816 152.928 
" style="fill:none;stroke:#000080;stroke-linecap:square;stroke-width:1.5;"/>
    <g>
     <use style="fill-opacity:0;stroke:#000080;stroke-width:1.5;" x="360.8064" xlink:href="#mee12e7dc1b" y="6.912"/>
     <use style="fill-opacity:0;stroke:#000080;stroke-width:1.5;" x="380.514816" xlink:href="#mee12e7dc1b" y="152.928"/>
    </g>
   </g>
   <g id="line2d_46">
    <path d="M 360.8064 6.912 
L 380.514816 12.75264 
" style="fill:none;stroke:#ff7500;stroke-linecap:square;stroke-width:1.5;"/>
    <g>
     <use style="fill-opacity:0;stroke:#ff7500;stroke-linejoin:bevel;stroke-width:1.5;" x="360.8064" xlink:href="#m5df0ea75a0" y="6.912"/>
     <use style="fill-opacity:0;stroke:#ff7500;stroke-linejoin:bevel;stroke-width:1.5;" x="380.514816" xlink:href="#m5df0ea75a0" y="12.75264"/>
    </g>
   </g>
   <g id="line2d_47">
    <path d="M 360.8064 298.944 
L 360.8064 6.912 
" style="fill:none;stroke:#000000;stroke-linecap:square;stroke-width:1.5;"/>
   </g>
   <g id="patch_3">
    <path d="M 57.6 298.944 
L 360.8064 298.944 
" style="fill:none;stroke:#000000;stroke-linecap:square;stroke-linejoin:miter;stroke-width:0.8;"/>
   </g>
   <g id="patch_4">
    <path d="M 57.6 6.912 
L 360.8064 6.912 
" style="fill:none;stroke:#000000;stroke-linecap:square;stroke-linejoin:miter;stroke-width:0.8;"/>
   </g>
   <g id="text_13">
    <!-- fmincon -->
    <g transform="translate(386.578944 296.966485)scale(0.14 -0.14)">
     <use xlink:href="#DejaVuSans-102"/>
     <use x="35.205078" xlink:href="#DejaVuSans-109"/>
     <use x="132.617188" xlink:href="#DejaVuSans-105"/>
     <use x="160.400391" xlink:href="#DejaVuSans-110"/>
     <use x="223.779297" xlink:href="#DejaVuSans-99"/>
     <use x="278.759766" xlink:href="#DejaVuSans-111"/>
     <use x="339.941406" xlink:href="#DejaVuSans-110"/>
    </g>
   </g>
   <g id="text_14">
    <!-- cobyla -->
    <g transform="translate(386.578944 156.791125)scale(0.14 -0.14)">
     <defs>
      <path d="M 48.6875 27.296875 
Q 48.6875 37.203125 44.609375 42.84375 
Q 40.53125 48.484375 33.40625 48.484375 
Q 26.265625 48.484375 22.1875 42.84375 
Q 18.109375 37.203125 18.109375 27.296875 
Q 18.109375 17.390625 22.1875 11.75 
Q 26.265625 6.109375 33.40625 6.109375 
Q 40.53125 6.109375 44.609375 11.75 
Q 48.6875 17.390625 48.6875 27.296875 
z
M 18.109375 46.390625 
Q 20.953125 51.265625 25.265625 53.625 
Q 29.59375 56 35.59375 56 
Q 45.5625 56 51.78125 48.09375 
Q 58.015625 40.1875 58.015625 27.296875 
Q 58.015625 14.40625 51.78125 6.484375 
Q 45.5625 -1.421875 35.59375 -1.421875 
Q 29.59375 -1.421875 25.265625 0.953125 
Q 20.953125 3.328125 18.109375 8.203125 
L 18.109375 0 
L 9.078125 0 
L 9.078125 75.984375 
L 18.109375 75.984375 
z
" id="DejaVuSans-98"/>
      <path d="M 32.171875 -5.078125 
Q 28.375 -14.84375 24.75 -17.8125 
Q 21.140625 -20.796875 15.09375 -20.796875 
L 7.90625 -20.796875 
L 7.90625 -13.28125 
L 13.1875 -13.28125 
Q 16.890625 -13.28125 18.9375 -11.515625 
Q 21 -9.765625 23.484375 -3.21875 
L 25.09375 0.875 
L 2.984375 54.6875 
L 12.5 54.6875 
L 29.59375 11.921875 
L 46.6875 54.6875 
L 56.203125 54.6875 
z
" id="DejaVuSans-121"/>
     </defs>
     <use xlink:href="#DejaVuSans-99"/>
     <use x="54.980469" xlink:href="#DejaVuSans-111"/>
     <use x="116.162109" xlink:href="#DejaVuSans-98"/>
     <use x="179.638672" xlink:href="#DejaVuSans-121"/>
     <use x="238.818359" xlink:href="#DejaVuSans-108"/>
     <use x="266.601562" xlink:href="#DejaVuSans-97"/>
    </g>
   </g>
   <g id="text_15">
    <!-- slsqp -->
    <g transform="translate(386.578944 16.615765)scale(0.14 -0.14)">
     <defs>
      <path d="M 14.796875 27.296875 
Q 14.796875 17.390625 18.875 11.75 
Q 22.953125 6.109375 30.078125 6.109375 
Q 37.203125 6.109375 41.296875 11.75 
Q 45.40625 17.390625 45.40625 27.296875 
Q 45.40625 37.203125 41.296875 42.84375 
Q 37.203125 48.484375 30.078125 48.484375 
Q 22.953125 48.484375 18.875 42.84375 
Q 14.796875 37.203125 14.796875 27.296875 
z
M 45.40625 8.203125 
Q 42.578125 3.328125 38.25 0.953125 
Q 33.9375 -1.421875 27.875 -1.421875 
Q 17.96875 -1.421875 11.734375 6.484375 
Q 5.515625 14.40625 5.515625 27.296875 
Q 5.515625 40.1875 11.734375 48.09375 
Q 17.96875 56 27.875 56 
Q 33.9375 56 38.25 53.625 
Q 42.578125 51.265625 45.40625 46.390625 
L 45.40625 54.6875 
L 54.390625 54.6875 
L 54.390625 -20.796875 
L 45.40625 -20.796875 
z
" id="DejaVuSans-113"/>
     </defs>
     <use xlink:href="#DejaVuSans-115"/>
     <use x="52.099609" xlink:href="#DejaVuSans-108"/>
     <use x="79.882812" xlink:href="#DejaVuSans-115"/>
     <use x="131.982422" xlink:href="#DejaVuSans-113"/>
     <use x="195.458984" xlink:href="#DejaVuSans-112"/>
    </g>
   </g>
   <g id="text_16">
    <!-- bbob-constrained f1, f7, f13, f19, f25, f31, f37, f43, f49, 2-D -->
    <g transform="translate(60.632064 17.582726)scale(0.102 -0.102)">
     <defs>
      <path d="M 4.890625 31.390625 
L 31.203125 31.390625 
L 31.203125 23.390625 
L 4.890625 23.390625 
z
" id="DejaVuSans-45"/>
      <path d="M 8.203125 72.90625 
L 55.078125 72.90625 
L 55.078125 68.703125 
L 28.609375 0 
L 18.3125 0 
L 43.21875 64.59375 
L 8.203125 64.59375 
z
" id="DejaVuSans-55"/>
      <path d="M 40.578125 39.3125 
Q 47.65625 37.796875 51.625 33 
Q 55.609375 28.21875 55.609375 21.1875 
Q 55.609375 10.40625 48.1875 4.484375 
Q 40.765625 -1.421875 27.09375 -1.421875 
Q 22.515625 -1.421875 17.65625 -0.515625 
Q 12.796875 0.390625 7.625 2.203125 
L 7.625 11.71875 
Q 11.71875 9.328125 16.59375 8.109375 
Q 21.484375 6.890625 26.8125 6.890625 
Q 36.078125 6.890625 40.9375 10.546875 
Q 45.796875 14.203125 45.796875 21.1875 
Q 45.796875 27.640625 41.28125 31.265625 
Q 36.765625 34.90625 28.71875 34.90625 
L 20.21875 34.90625 
L 20.21875 43.015625 
L 29.109375 43.015625 
Q 36.375 43.015625 40.234375 45.921875 
Q 44.09375 48.828125 44.09375 54.296875 
Q 44.09375 59.90625 40.109375 62.90625 
Q 36.140625 65.921875 28.71875 65.921875 
Q 24.65625 65.921875 20.015625 65.03125 
Q 15.375 64.15625 9.8125 62.3125 
L 9.8125 71.09375 
Q 15.4375 72.65625 20.34375 73.4375 
Q 25.25 74.21875 29.59375 74.21875 
Q 40.828125 74.21875 47.359375 69.109375 
Q 53.90625 64.015625 53.90625 55.328125 
Q 53.90625 49.265625 50.4375 45.09375 
Q 46.96875 40.921875 40.578125 39.3125 
z
" id="DejaVuSans-51"/>
      <path d="M 10.984375 1.515625 
L 10.984375 10.5 
Q 14.703125 8.734375 18.5 7.8125 
Q 22.3125 6.890625 25.984375 6.890625 
Q 35.75 6.890625 40.890625 13.453125 
Q 46.046875 20.015625 46.78125 33.40625 
Q 43.953125 29.203125 39.59375 26.953125 
Q 35.25 24.703125 29.984375 24.703125 
Q 19.046875 24.703125 12.671875 31.3125 
Q 6.296875 37.9375 6.296875 49.421875 
Q 6.296875 60.640625 12.9375 67.421875 
Q 19.578125 74.21875 30.609375 74.21875 
Q 43.265625 74.21875 49.921875 64.515625 
Q 56.59375 54.828125 56.59375 36.375 
Q 56.59375 19.140625 48.40625 8.859375 
Q 40.234375 -1.421875 26.421875 -1.421875 
Q 22.703125 -1.421875 18.890625 -0.6875 
Q 15.09375 0.046875 10.984375 1.515625 
z
M 30.609375 32.421875 
Q 37.25 32.421875 41.125 36.953125 
Q 45.015625 41.5 45.015625 49.421875 
Q 45.015625 57.28125 41.125 61.84375 
Q 37.25 66.40625 30.609375 66.40625 
Q 23.96875 66.40625 20.09375 61.84375 
Q 16.21875 57.28125 16.21875 49.421875 
Q 16.21875 41.5 20.09375 36.953125 
Q 23.96875 32.421875 30.609375 32.421875 
z
" id="DejaVuSans-57"/>
      <path d="M 10.796875 72.90625 
L 49.515625 72.90625 
L 49.515625 64.59375 
L 19.828125 64.59375 
L 19.828125 46.734375 
Q 21.96875 47.46875 24.109375 47.828125 
Q 26.265625 48.1875 28.421875 48.1875 
Q 40.625 48.1875 47.75 41.5 
Q 54.890625 34.8125 54.890625 23.390625 
Q 54.890625 11.625 47.5625 5.09375 
Q 40.234375 -1.421875 26.90625 -1.421875 
Q 22.3125 -1.421875 17.546875 -0.640625 
Q 12.796875 0.140625 7.71875 1.703125 
L 7.71875 11.625 
Q 12.109375 9.234375 16.796875 8.0625 
Q 21.484375 6.890625 26.703125 6.890625 
Q 35.15625 6.890625 40.078125 11.328125 
Q 45.015625 15.765625 45.015625 23.390625 
Q 45.015625 31 40.078125 35.4375 
Q 35.15625 39.890625 26.703125 39.890625 
Q 22.75 39.890625 18.8125 39.015625 
Q 14.890625 38.140625 10.796875 36.28125 
z
" id="DejaVuSans-53"/>
      <path d="M 19.671875 64.796875 
L 19.671875 8.109375 
L 31.59375 8.109375 
Q 46.6875 8.109375 53.6875 14.9375 
Q 60.6875 21.78125 60.6875 36.53125 
Q 60.6875 51.171875 53.6875 57.984375 
Q 46.6875 64.796875 31.59375 64.796875 
z
M 9.8125 72.90625 
L 30.078125 72.90625 
Q 51.265625 72.90625 61.171875 64.09375 
Q 71.09375 55.28125 71.09375 36.53125 
Q 71.09375 17.671875 61.125 8.828125 
Q 51.171875 0 30.078125 0 
L 9.8125 0 
z
" id="DejaVuSans-68"/>
     </defs>
     <use xlink:href="#DejaVuSans-98"/>
     <use x="63.476562" xlink:href="#DejaVuSans-98"/>
     <use x="126.953125" xlink:href="#DejaVuSans-111"/>
     <use x="188.134766" xlink:href="#DejaVuSans-98"/>
     <use x="251.611328" xlink:href="#DejaVuSans-45"/>
     <use x="287.695312" xlink:href="#DejaVuSans-99"/>
     <use x="342.675781" xlink:href="#DejaVuSans-111"/>
     <use x="403.857422" xlink:href="#DejaVuSans-110"/>
     <use x="467.236328" xlink:href="#DejaVuSans-115"/>
     <use x="519.335938" xlink:href="#DejaVuSans-116"/>
     <use x="558.544922" xlink:href="#DejaVuSans-114"/>
     <use x="599.658203" xlink:href="#DejaVuSans-97"/>
     <use x="660.9375" xlink:href="#DejaVuSans-105"/>
     <use x="688.720703" xlink:href="#DejaVuSans-110"/>
     <use x="752.099609" xlink:href="#DejaVuSans-101"/>
     <use x="813.623047" xlink:href="#DejaVuSans-100"/>
     <use x="877.099609" xlink:href="#DejaVuSans-32"/>
     <use x="908.886719" xlink:href="#DejaVuSans-102"/>
     <use x="944.091797" xlink:href="#DejaVuSans-49"/>
     <use x="1007.714844" xlink:href="#DejaVuSans-44"/>
     <use x="1039.501953" xlink:href="#DejaVuSans-32"/>
     <use x="1071.289062" xlink:href="#DejaVuSans-102"/>
     <use x="1106.494141" xlink:href="#DejaVuSans-55"/>
     <use x="1170.117188" xlink:href="#DejaVuSans-44"/>
     <use x="1201.904297" xlink:href="#DejaVuSans-32"/>
     <use x="1233.691406" xlink:href="#DejaVuSans-102"/>
     <use x="1268.896484" xlink:href="#DejaVuSans-49"/>
     <use x="1332.519531" xlink:href="#DejaVuSans-51"/>
     <use x="1396.142578" xlink:href="#DejaVuSans-44"/>
     <use x="1427.929688" xlink:href="#DejaVuSans-32"/>
     <use x="1459.716797" xlink:href="#DejaVuSans-102"/>
     <use x="1494.921875" xlink:href="#DejaVuSans-49"/>
     <use x="1558.544922" xlink:href="#DejaVuSans-57"/>
     <use x="1622.167969" xlink:href="#DejaVuSans-44"/>
     <use x="1653.955078" xlink:href="#DejaVuSans-32"/>
     <use x="1685.742188" xlink:href="#DejaVuSans-102"/>
     <use x="1720.947266" xlink:href="#DejaVuSans-50"/>
     <use x="1784.570312" xlink:href="#DejaVuSans-53"/>
     <use x="1848.193359" xlink:href="#DejaVuSans-44"/>
     <use x="1879.980469" xlink:href="#DejaVuSans-32"/>
     <use x="1911.767578" xlink:href="#DejaVuSans-102"/>
     <use x="1946.972656" xlink:href="#DejaVuSans-51"/>
     <use x="2010.595703" xlink:href="#DejaVuSans-49"/>
     <use x="2074.21875" xlink:href="#DejaVuSans-44"/>
     <use x="2106.005859" xlink:href="#DejaVuSans-32"/>
     <use x="2137.792969" xlink:href="#DejaVuSans-102"/>
     <use x="2172.998047" xlink:href="#DejaVuSans-51"/>
     <use x="2236.621094" xlink:href="#DejaVuSans-55"/>
     <use x="2300.244141" xlink:href="#DejaVuSans-44"/>
     <use x="2332.03125" xlink:href="#DejaVuSans-32"/>
     <use x="2363.818359" xlink:href="#DejaVuSans-102"/>
     <use x="2399.023438" xlink:href="#DejaVuSans-52"/>
     <use x="2462.646484" xlink:href="#DejaVuSans-51"/>
     <use x="2526.269531" xlink:href="#DejaVuSans-44"/>
     <use x="2558.056641" xlink:href="#DejaVuSans-32"/>
     <use x="2589.84375" xlink:href="#DejaVuSans-102"/>
     <use x="2625.048828" xlink:href="#DejaVuSans-52"/>
     <use x="2688.671875" xlink:href="#DejaVuSans-57"/>
     <use x="2752.294922" xlink:href="#DejaVuSans-44"/>
     <use x="2784.082031" xlink:href="#DejaVuSans-32"/>
     <use x="2815.869141" xlink:href="#DejaVuSans-50"/>
     <use x="2879.492188" xlink:href="#DejaVuSans-45"/>
     <use x="2915.576172" xlink:href="#DejaVuSans-68"/>
    </g>
    <!-- 41 targets: 100..1e-06 -->
    <g transform="translate(60.632064 29.004495)scale(0.102 -0.102)">
     <defs>
      <path d="M 11.71875 12.40625 
L 22.015625 12.40625 
L 22.015625 0 
L 11.71875 0 
z
M 11.71875 51.703125 
L 22.015625 51.703125 
L 22.015625 39.3125 
L 11.71875 39.3125 
z
" id="DejaVuSans-58"/>
     </defs>
     <use xlink:href="#DejaVuSans-52"/>
     <use x="63.623047" xlink:href="#DejaVuSans-49"/>
     <use x="127.246094" xlink:href="#DejaVuSans-32"/>
     <use x="159.033203" xlink:href="#DejaVuSans-116"/>
     <use x="198.242188" xlink:href="#DejaVuSans-97"/>
     <use x="259.521484" xlink:href="#DejaVuSans-114"/>
     <use x="298.884766" xlink:href="#DejaVuSans-103"/>
     <use x="362.361328" xlink:href="#DejaVuSans-101"/>
     <use x="423.884766" xlink:href="#DejaVuSans-116"/>
     <use x="463.09375" xlink:href="#DejaVuSans-115"/>
     <use x="515.193359" xlink:href="#DejaVuSans-58"/>
     <use x="548.884766" xlink:href="#DejaVuSans-32"/>
     <use x="580.671875" xlink:href="#DejaVuSans-49"/>
     <use x="644.294922" xlink:href="#DejaVuSans-48"/>
     <use x="707.917969" xlink:href="#DejaVuSans-48"/>
     <use x="771.541016" xlink:href="#DejaVuSans-46"/>
     <use x="803.328125" xlink:href="#DejaVuSans-46"/>
     <use x="835.115234" xlink:href="#DejaVuSans-49"/>
     <use x="898.738281" xlink:href="#DejaVuSans-101"/>
     <use x="960.261719" xlink:href="#DejaVuSans-45"/>
     <use x="996.345703" xlink:href="#DejaVuSans-48"/>
     <use x="1059.96875" xlink:href="#DejaVuSans-54"/>
    </g>
    <!-- evals = f-evals + g-evals -->
    <g transform="translate(60.632064 40.426264)scale(0.102 -0.102)">
     <defs>
      <path d="M 10.59375 45.40625 
L 73.1875 45.40625 
L 73.1875 37.203125 
L 10.59375 37.203125 
z
M 10.59375 25.484375 
L 73.1875 25.484375 
L 73.1875 17.1875 
L 10.59375 17.1875 
z
" id="DejaVuSans-61"/>
      <path d="M 46 62.703125 
L 46 35.5 
L 73.1875 35.5 
L 73.1875 27.203125 
L 46 27.203125 
L 46 0 
L 37.796875 0 
L 37.796875 27.203125 
L 10.59375 27.203125 
L 10.59375 35.5 
L 37.796875 35.5 
L 37.796875 62.703125 
z
" id="DejaVuSans-43"/>
     </defs>
     <use xlink:href="#DejaVuSans-101"/>
     <use x="61.523438" xlink:href="#DejaVuSans-118"/>
     <use x="120.703125" xlink:href="#DejaVuSans-97"/>
     <use x="181.982422" xlink:href="#DejaVuSans-108"/>
     <use x="209.765625" xlink:href="#DejaVuSans-115"/>
     <use x="261.865234" xlink:href="#DejaVuSans-32"/>
     <use x="293.652344" xlink:href="#DejaVuSans-61"/>
     <use x="377.441406" xlink:href="#DejaVuSans-32"/>
     <use x="409.228516" xlink:href="#DejaVuSans-102"/>
     <use x="438.933594" xlink:href="#DejaVuSans-45"/>
     <use x="475.017578" xlink:href="#DejaVuSans-101"/>
     <use x="536.541016" xlink:href="#DejaVuSans-118"/>
     <use x="595.720703" xlink:href="#DejaVuSans-97"/>
     <use x="657" xlink:href="#DejaVuSans-108"/>
     <use x="684.783203" xlink:href="#DejaVuSans-115"/>
     <use x="736.882812" xlink:href="#DejaVuSans-32"/>
     <use x="768.669922" xlink:href="#DejaVuSans-43"/>
     <use x="852.458984" xlink:href="#DejaVuSans-32"/>
     <use x="884.246094" xlink:href="#DejaVuSans-103"/>
     <use x="947.722656" xlink:href="#DejaVuSans-45"/>
     <use x="983.806641" xlink:href="#DejaVuSans-101"/>
     <use x="1045.330078" xlink:href="#DejaVuSans-118"/>
     <use x="1104.509766" xlink:href="#DejaVuSans-97"/>
     <use x="1165.789062" xlink:href="#DejaVuSans-108"/>
     <use x="1193.572266" xlink:href="#DejaVuSans-115"/>
    </g>
    <!-- 15 instances -->
    <g transform="translate(60.632064 51.848032)scale(0.102 -0.102)">
     <use xlink:href="#DejaVuSans-49"/>
     <use x="63.623047" xlink:href="#DejaVuSans-53"/>
     <use x="127.246094" xlink:href="#DejaVuSans-32"/>
     <use x="159.033203" xlink:href="#DejaVuSans-105"/>
     <use x="186.816406" xlink:href="#DejaVuSans-110"/>
     <use x="250.195312" xlink:href="#DejaVuSans-115"/>
     <use x="302.294922" xlink:href="#DejaVuSans-116"/>
     <use x="341.503906" xlink:href="#DejaVuSans-97"/>
     <use x="402.783203" xlink:href="#DejaVuSans-110"/>
     <use x="466.162109" xlink:href="#DejaVuSans-99"/>
     <use x="521.142578" xlink:href="#DejaVuSans-101"/>
     <use x="582.666016" xlink:href="#DejaVuSans-115"/>
    </g>
   </g>
   <g id="text_17">
    <!-- v2.4.159 -->
    <g style="fill:#808080;" transform="translate(187.15945 293.943992)scale(0.1 -0.1)">
     <use xlink:href="#DejaVuSans-118"/>
     <use x="59.179688" xlink:href="#DejaVuSans-50"/>
     <use x="122.802734" xlink:href="#DejaVuSans-46"/>
     <use x="154.589844" xlink:href="#DejaVuSans-52"/>
     <use x="218.212891" xlink:href="#DejaVuSans-46"/>
     <use x="250" xlink:href="#DejaVuSans-49"/>
     <use x="313.623047" xlink:href="#DejaVuSans-53"/>
     <use x="377.246094" xlink:href="#DejaVuSans-57"/>
    </g>
   </g>
  </g>
 </g>
 <defs>
  <clipPath id="pf90e7fc1e3">
   <rect height="292.032" width="303.2064" x="57.6" y="6.912"/>
  </clipPath>
 </defs>
</svg>
