<?xml version="1.0" encoding="utf-8" standalone="no"?>
<!DOCTYPE svg PUBLIC "-//W3C//DTD SVG 1.1//EN"
  "http://www.w3.org/Graphics/SVG/1.1/DTD/svg11.dtd">
<!-- Created with matplotlib (https://matplotlib.org/) -->
<svg height="345.6pt" version="1.1" viewBox="0 0 460.8 345.6" width="460.8pt" xmlns="http://www.w3.org/2000/svg" xmlns:xlink="http://www.w3.org/1999/xlink">
 <metadata>
  <rdf:RDF xmlns:cc="http://creativecommons.org/ns#" xmlns:dc="http://purl.org/dc/elements/1.1/" xmlns:rdf="http://www.w3.org/1999/02/22-rdf-syntax-ns#">
   <cc:Work>
    <dc:type rdf:resource="http://purl.org/dc/dcmitype/StillImage"/>
    <dc:date>2022-02-09T10:00:11.286848</dc:date>
    <dc:format>image/svg+xml</dc:format>
    <dc:creator>
     <cc:Agent>
      <dc:title>Matplotlib v3.3.3, https://matplotlib.org/</dc:title>
     </cc:Agent>
    </dc:creator>
   </cc:Work>
  </rdf:RDF>
 </metadata>
 <defs>
  <style type="text/css">*{stroke-linecap:butt;stroke-linejoin:round;}</style>
 </defs>
 <g id="figure_1">
  <g id="patch_1">
   <path d="M 0 345.6 
L 460.8 345.6 
L 460.8 0 
L 0 0 
z
" style="fill:#ffffff;"/>
  </g>
  <g id="axes_1">
   <g id="patch_2">
    <path d="M 57.6 298.944 
L 360.8064 298.944 
L 360.8064 6.912 
L 57.6 6.912 
z
" style="fill:#ffffff;"/>
   </g>
   <g id="matplotlib.axis_1">
    <g id="xtick_1">
     <g id="line2d_1">
      <path clip-path="url(#p4f0d339df3)" d="M 57.6 298.944 
L 57.6 6.912 
" style="fill:none;stroke:#b0b0b0;stroke-linecap:square;stroke-width:0.8;"/>
     </g>
     <g id="line2d_2">
      <defs>
       <path d="M 0 0 
L 0 3.5 
" id="m3c44bdec96" style="stroke:#000000;stroke-width:0.8;"/>
      </defs>
      <g>
       <use style="stroke:#000000;stroke-width:0.8;" x="57.6" xlink:href="#m3c44bdec96" y="298.944"/>
      </g>
     </g>
     <g id="text_1">
      <!-- 0 -->
      <g transform="translate(52.191875 318.861344)scale(0.17 -0.17)">
       <defs>
        <path d="M 31.78125 66.40625 
Q 24.171875 66.40625 20.328125 58.90625 
Q 16.5 51.421875 16.5 36.375 
Q 16.5 21.390625 20.328125 13.890625 
Q 24.171875 6.390625 31.78125 6.390625 
Q 39.453125 6.390625 43.28125 13.890625 
Q 47.125 21.390625 47.125 36.375 
Q 47.125 51.421875 43.28125 58.90625 
Q 39.453125 66.40625 31.78125 66.40625 
z
M 31.78125 74.21875 
Q 44.046875 74.21875 50.515625 64.515625 
Q 56.984375 54.828125 56.984375 36.375 
Q 56.984375 17.96875 50.515625 8.265625 
Q 44.046875 -1.421875 31.78125 -1.421875 
Q 19.53125 -1.421875 13.0625 8.265625 
Q 6.59375 17.96875 6.59375 36.375 
Q 6.59375 54.828125 13.0625 64.515625 
Q 19.53125 74.21875 31.78125 74.21875 
z
" id="DejaVuSans-48"/>
       </defs>
       <use xlink:href="#DejaVuSans-48"/>
      </g>
     </g>
    </g>
    <g id="xtick_2">
     <g id="line2d_3">
      <path clip-path="url(#p4f0d339df3)" d="M 144.2304 298.944 
L 144.2304 6.912 
" style="fill:none;stroke:#b0b0b0;stroke-linecap:square;stroke-width:0.8;"/>
     </g>
     <g id="line2d_4">
      <g>
       <use style="stroke:#000000;stroke-width:0.8;" x="144.2304" xlink:href="#m3c44bdec96" y="298.944"/>
      </g>
     </g>
     <g id="text_2">
      <!-- 2 -->
      <g transform="translate(138.822275 318.861344)scale(0.17 -0.17)">
       <defs>
        <path d="M 19.1875 8.296875 
L 53.609375 8.296875 
L 53.609375 0 
L 7.328125 0 
L 7.328125 8.296875 
Q 12.9375 14.109375 22.625 23.890625 
Q 32.328125 33.6875 34.8125 36.53125 
Q 39.546875 41.84375 41.421875 45.53125 
Q 43.3125 49.21875 43.3125 52.78125 
Q 43.3125 58.59375 39.234375 62.25 
Q 35.15625 65.921875 28.609375 65.921875 
Q 23.96875 65.921875 18.8125 64.3125 
Q 13.671875 62.703125 7.8125 59.421875 
L 7.8125 69.390625 
Q 13.765625 71.78125 18.9375 73 
Q 24.125 74.21875 28.421875 74.21875 
Q 39.75 74.21875 46.484375 68.546875 
Q 53.21875 62.890625 53.21875 53.421875 
Q 53.21875 48.921875 51.53125 44.890625 
Q 49.859375 40.875 45.40625 35.40625 
Q 44.1875 33.984375 37.640625 27.21875 
Q 31.109375 20.453125 19.1875 8.296875 
z
" id="DejaVuSans-50"/>
       </defs>
       <use xlink:href="#DejaVuSans-50"/>
      </g>
     </g>
    </g>
    <g id="xtick_3">
     <g id="line2d_5">
      <path clip-path="url(#p4f0d339df3)" d="M 230.8608 298.944 
L 230.8608 6.912 
" style="fill:none;stroke:#b0b0b0;stroke-linecap:square;stroke-width:0.8;"/>
     </g>
     <g id="line2d_6">
      <g>
       <use style="stroke:#000000;stroke-width:0.8;" x="230.8608" xlink:href="#m3c44bdec96" y="298.944"/>
      </g>
     </g>
     <g id="text_3">
      <!-- 4 -->
      <g transform="translate(225.452675 318.861344)scale(0.17 -0.17)">
       <defs>
        <path d="M 37.796875 64.3125 
L 12.890625 25.390625 
L 37.796875 25.390625 
z
M 35.203125 72.90625 
L 47.609375 72.90625 
L 47.609375 25.390625 
L 58.015625 25.390625 
L 58.015625 17.1875 
L 47.609375 17.1875 
L 47.609375 0 
L 37.796875 0 
L 37.796875 17.1875 
L 4.890625 17.1875 
L 4.890625 26.703125 
z
" id="DejaVuSans-52"/>
       </defs>
       <use xlink:href="#DejaVuSans-52"/>
      </g>
     </g>
    </g>
    <g id="xtick_4">
     <g id="line2d_7">
      <path clip-path="url(#p4f0d339df3)" d="M 317.4912 298.944 
L 317.4912 6.912 
" style="fill:none;stroke:#b0b0b0;stroke-linecap:square;stroke-width:0.8;"/>
     </g>
     <g id="line2d_8">
      <g>
       <use style="stroke:#000000;stroke-width:0.8;" x="317.4912" xlink:href="#m3c44bdec96" y="298.944"/>
      </g>
     </g>
     <g id="text_4">
      <!-- 6 -->
      <g transform="translate(312.083075 318.861344)scale(0.17 -0.17)">
       <defs>
        <path d="M 33.015625 40.375 
Q 26.375 40.375 22.484375 35.828125 
Q 18.609375 31.296875 18.609375 23.390625 
Q 18.609375 15.53125 22.484375 10.953125 
Q 26.375 6.390625 33.015625 6.390625 
Q 39.65625 6.390625 43.53125 10.953125 
Q 47.40625 15.53125 47.40625 23.390625 
Q 47.40625 31.296875 43.53125 35.828125 
Q 39.65625 40.375 33.015625 40.375 
z
M 52.59375 71.296875 
L 52.59375 62.3125 
Q 48.875 64.0625 45.09375 64.984375 
Q 41.3125 65.921875 37.59375 65.921875 
Q 27.828125 65.921875 22.671875 59.328125 
Q 17.53125 52.734375 16.796875 39.40625 
Q 19.671875 43.65625 24.015625 45.921875 
Q 28.375 48.1875 33.59375 48.1875 
Q 44.578125 48.1875 50.953125 41.515625 
Q 57.328125 34.859375 57.328125 23.390625 
Q 57.328125 12.15625 50.6875 5.359375 
Q 44.046875 -1.421875 33.015625 -1.421875 
Q 20.359375 -1.421875 13.671875 8.265625 
Q 6.984375 17.96875 6.984375 36.375 
Q 6.984375 53.65625 15.1875 63.9375 
Q 23.390625 74.21875 37.203125 74.21875 
Q 40.921875 74.21875 44.703125 73.484375 
Q 48.484375 72.75 52.59375 71.296875 
z
" id="DejaVuSans-54"/>
       </defs>
       <use xlink:href="#DejaVuSans-54"/>
      </g>
     </g>
    </g>
    <g id="xtick_5">
     <g id="line2d_9">
      <path clip-path="url(#p4f0d339df3)" d="M 100.9152 298.944 
L 100.9152 6.912 
" style="fill:none;stroke:#b0b0b0;stroke-linecap:square;stroke-width:0.8;"/>
     </g>
     <g id="line2d_10">
      <defs>
       <path d="M 0 0 
L 0 2 
" id="mf8cd705422" style="stroke:#000000;stroke-width:0.6;"/>
      </defs>
      <g>
       <use style="stroke:#000000;stroke-width:0.6;" x="100.9152" xlink:href="#mf8cd705422" y="298.944"/>
      </g>
     </g>
    </g>
    <g id="xtick_6">
     <g id="line2d_11">
      <path clip-path="url(#p4f0d339df3)" d="M 187.5456 298.944 
L 187.5456 6.912 
" style="fill:none;stroke:#b0b0b0;stroke-linecap:square;stroke-width:0.8;"/>
     </g>
     <g id="line2d_12">
      <g>
       <use style="stroke:#000000;stroke-width:0.6;" x="187.5456" xlink:href="#mf8cd705422" y="298.944"/>
      </g>
     </g>
    </g>
    <g id="xtick_7">
     <g id="line2d_13">
      <path clip-path="url(#p4f0d339df3)" d="M 274.176 298.944 
L 274.176 6.912 
" style="fill:none;stroke:#b0b0b0;stroke-linecap:square;stroke-width:0.8;"/>
     </g>
     <g id="line2d_14">
      <g>
       <use style="stroke:#000000;stroke-width:0.6;" x="274.176" xlink:href="#mf8cd705422" y="298.944"/>
      </g>
     </g>
    </g>
    <g id="xtick_8">
     <g id="line2d_15">
      <path clip-path="url(#p4f0d339df3)" d="M 360.8064 298.944 
L 360.8064 6.912 
" style="fill:none;stroke:#b0b0b0;stroke-linecap:square;stroke-width:0.8;"/>
     </g>
     <g id="line2d_16">
      <g>
       <use style="stroke:#000000;stroke-width:0.6;" x="360.8064" xlink:href="#mf8cd705422" y="298.944"/>
      </g>
     </g>
    </g>
    <g id="text_5">
     <!-- log10(evals / dimension) -->
     <g transform="translate(104.238825 339.314156)scale(0.17 -0.17)">
      <defs>
       <path d="M 9.421875 75.984375 
L 18.40625 75.984375 
L 18.40625 0 
L 9.421875 0 
z
" id="DejaVuSans-108"/>
       <path d="M 30.609375 48.390625 
Q 23.390625 48.390625 19.1875 42.75 
Q 14.984375 37.109375 14.984375 27.296875 
Q 14.984375 17.484375 19.15625 11.84375 
Q 23.34375 6.203125 30.609375 6.203125 
Q 37.796875 6.203125 41.984375 11.859375 
Q 46.1875 17.53125 46.1875 27.296875 
Q 46.1875 37.015625 41.984375 42.703125 
Q 37.796875 48.390625 30.609375 48.390625 
z
M 30.609375 56 
Q 42.328125 56 49.015625 48.375 
Q 55.71875 40.765625 55.71875 27.296875 
Q 55.71875 13.875 49.015625 6.21875 
Q 42.328125 -1.421875 30.609375 -1.421875 
Q 18.84375 -1.421875 12.171875 6.21875 
Q 5.515625 13.875 5.515625 27.296875 
Q 5.515625 40.765625 12.171875 48.375 
Q 18.84375 56 30.609375 56 
z
" id="DejaVuSans-111"/>
       <path d="M 45.40625 27.984375 
Q 45.40625 37.75 41.375 43.109375 
Q 37.359375 48.484375 30.078125 48.484375 
Q 22.859375 48.484375 18.828125 43.109375 
Q 14.796875 37.75 14.796875 27.984375 
Q 14.796875 18.265625 18.828125 12.890625 
Q 22.859375 7.515625 30.078125 7.515625 
Q 37.359375 7.515625 41.375 12.890625 
Q 45.40625 18.265625 45.40625 27.984375 
z
M 54.390625 6.78125 
Q 54.390625 -7.171875 48.1875 -13.984375 
Q 42 -20.796875 29.203125 -20.796875 
Q 24.46875 -20.796875 20.265625 -20.09375 
Q 16.0625 -19.390625 12.109375 -17.921875 
L 12.109375 -9.1875 
Q 16.0625 -11.328125 19.921875 -12.34375 
Q 23.78125 -13.375 27.78125 -13.375 
Q 36.625 -13.375 41.015625 -8.765625 
Q 45.40625 -4.15625 45.40625 5.171875 
L 45.40625 9.625 
Q 42.625 4.78125 38.28125 2.390625 
Q 33.9375 0 27.875 0 
Q 17.828125 0 11.671875 7.65625 
Q 5.515625 15.328125 5.515625 27.984375 
Q 5.515625 40.671875 11.671875 48.328125 
Q 17.828125 56 27.875 56 
Q 33.9375 56 38.28125 53.609375 
Q 42.625 51.21875 45.40625 46.390625 
L 45.40625 54.6875 
L 54.390625 54.6875 
z
" id="DejaVuSans-103"/>
       <path d="M 12.40625 8.296875 
L 28.515625 8.296875 
L 28.515625 63.921875 
L 10.984375 60.40625 
L 10.984375 69.390625 
L 28.421875 72.90625 
L 38.28125 72.90625 
L 38.28125 8.296875 
L 54.390625 8.296875 
L 54.390625 0 
L 12.40625 0 
z
" id="DejaVuSans-49"/>
       <path d="M 31 75.875 
Q 24.46875 64.65625 21.28125 53.65625 
Q 18.109375 42.671875 18.109375 31.390625 
Q 18.109375 20.125 21.3125 9.0625 
Q 24.515625 -2 31 -13.1875 
L 23.1875 -13.1875 
Q 15.875 -1.703125 12.234375 9.375 
Q 8.59375 20.453125 8.59375 31.390625 
Q 8.59375 42.28125 12.203125 53.3125 
Q 15.828125 64.359375 23.1875 75.875 
z
" id="DejaVuSans-40"/>
       <path d="M 56.203125 29.59375 
L 56.203125 25.203125 
L 14.890625 25.203125 
Q 15.484375 15.921875 20.484375 11.0625 
Q 25.484375 6.203125 34.421875 6.203125 
Q 39.59375 6.203125 44.453125 7.46875 
Q 49.3125 8.734375 54.109375 11.28125 
L 54.109375 2.78125 
Q 49.265625 0.734375 44.1875 -0.34375 
Q 39.109375 -1.421875 33.890625 -1.421875 
Q 20.796875 -1.421875 13.15625 6.1875 
Q 5.515625 13.8125 5.515625 26.8125 
Q 5.515625 40.234375 12.765625 48.109375 
Q 20.015625 56 32.328125 56 
Q 43.359375 56 49.78125 48.890625 
Q 56.203125 41.796875 56.203125 29.59375 
z
M 47.21875 32.234375 
Q 47.125 39.59375 43.09375 43.984375 
Q 39.0625 48.390625 32.421875 48.390625 
Q 24.90625 48.390625 20.390625 44.140625 
Q 15.875 39.890625 15.1875 32.171875 
z
" id="DejaVuSans-101"/>
       <path d="M 2.984375 54.6875 
L 12.5 54.6875 
L 29.59375 8.796875 
L 46.6875 54.6875 
L 56.203125 54.6875 
L 35.6875 0 
L 23.484375 0 
z
" id="DejaVuSans-118"/>
       <path d="M 34.28125 27.484375 
Q 23.390625 27.484375 19.1875 25 
Q 14.984375 22.515625 14.984375 16.5 
Q 14.984375 11.71875 18.140625 8.90625 
Q 21.296875 6.109375 26.703125 6.109375 
Q 34.1875 6.109375 38.703125 11.40625 
Q 43.21875 16.703125 43.21875 25.484375 
L 43.21875 27.484375 
z
M 52.203125 31.203125 
L 52.203125 0 
L 43.21875 0 
L 43.21875 8.296875 
Q 40.140625 3.328125 35.546875 0.953125 
Q 30.953125 -1.421875 24.3125 -1.421875 
Q 15.921875 -1.421875 10.953125 3.296875 
Q 6 8.015625 6 15.921875 
Q 6 25.140625 12.171875 29.828125 
Q 18.359375 34.515625 30.609375 34.515625 
L 43.21875 34.515625 
L 43.21875 35.40625 
Q 43.21875 41.609375 39.140625 45 
Q 35.0625 48.390625 27.6875 48.390625 
Q 23 48.390625 18.546875 47.265625 
Q 14.109375 46.140625 10.015625 43.890625 
L 10.015625 52.203125 
Q 14.9375 54.109375 19.578125 55.046875 
Q 24.21875 56 28.609375 56 
Q 40.484375 56 46.34375 49.84375 
Q 52.203125 43.703125 52.203125 31.203125 
z
" id="DejaVuSans-97"/>
       <path d="M 44.28125 53.078125 
L 44.28125 44.578125 
Q 40.484375 46.53125 36.375 47.5 
Q 32.28125 48.484375 27.875 48.484375 
Q 21.1875 48.484375 17.84375 46.4375 
Q 14.5 44.390625 14.5 40.28125 
Q 14.5 37.15625 16.890625 35.375 
Q 19.28125 33.59375 26.515625 31.984375 
L 29.59375 31.296875 
Q 39.15625 29.25 43.1875 25.515625 
Q 47.21875 21.78125 47.21875 15.09375 
Q 47.21875 7.46875 41.1875 3.015625 
Q 35.15625 -1.421875 24.609375 -1.421875 
Q 20.21875 -1.421875 15.453125 -0.5625 
Q 10.6875 0.296875 5.421875 2 
L 5.421875 11.28125 
Q 10.40625 8.6875 15.234375 7.390625 
Q 20.0625 6.109375 24.8125 6.109375 
Q 31.15625 6.109375 34.5625 8.28125 
Q 37.984375 10.453125 37.984375 14.40625 
Q 37.984375 18.0625 35.515625 20.015625 
Q 33.0625 21.96875 24.703125 23.78125 
L 21.578125 24.515625 
Q 13.234375 26.265625 9.515625 29.90625 
Q 5.8125 33.546875 5.8125 39.890625 
Q 5.8125 47.609375 11.28125 51.796875 
Q 16.75 56 26.8125 56 
Q 31.78125 56 36.171875 55.265625 
Q 40.578125 54.546875 44.28125 53.078125 
z
" id="DejaVuSans-115"/>
       <path id="DejaVuSans-32"/>
       <path d="M 25.390625 72.90625 
L 33.6875 72.90625 
L 8.296875 -9.28125 
L 0 -9.28125 
z
" id="DejaVuSans-47"/>
       <path d="M 45.40625 46.390625 
L 45.40625 75.984375 
L 54.390625 75.984375 
L 54.390625 0 
L 45.40625 0 
L 45.40625 8.203125 
Q 42.578125 3.328125 38.25 0.953125 
Q 33.9375 -1.421875 27.875 -1.421875 
Q 17.96875 -1.421875 11.734375 6.484375 
Q 5.515625 14.40625 5.515625 27.296875 
Q 5.515625 40.1875 11.734375 48.09375 
Q 17.96875 56 27.875 56 
Q 33.9375 56 38.25 53.625 
Q 42.578125 51.265625 45.40625 46.390625 
z
M 14.796875 27.296875 
Q 14.796875 17.390625 18.875 11.75 
Q 22.953125 6.109375 30.078125 6.109375 
Q 37.203125 6.109375 41.296875 11.75 
Q 45.40625 17.390625 45.40625 27.296875 
Q 45.40625 37.203125 41.296875 42.84375 
Q 37.203125 48.484375 30.078125 48.484375 
Q 22.953125 48.484375 18.875 42.84375 
Q 14.796875 37.203125 14.796875 27.296875 
z
" id="DejaVuSans-100"/>
       <path d="M 9.421875 54.6875 
L 18.40625 54.6875 
L 18.40625 0 
L 9.421875 0 
z
M 9.421875 75.984375 
L 18.40625 75.984375 
L 18.40625 64.59375 
L 9.421875 64.59375 
z
" id="DejaVuSans-105"/>
       <path d="M 52 44.1875 
Q 55.375 50.25 60.0625 53.125 
Q 64.75 56 71.09375 56 
Q 79.640625 56 84.28125 50.015625 
Q 88.921875 44.046875 88.921875 33.015625 
L 88.921875 0 
L 79.890625 0 
L 79.890625 32.71875 
Q 79.890625 40.578125 77.09375 44.375 
Q 74.3125 48.1875 68.609375 48.1875 
Q 61.625 48.1875 57.5625 43.546875 
Q 53.515625 38.921875 53.515625 30.90625 
L 53.515625 0 
L 44.484375 0 
L 44.484375 32.71875 
Q 44.484375 40.625 41.703125 44.40625 
Q 38.921875 48.1875 33.109375 48.1875 
Q 26.21875 48.1875 22.15625 43.53125 
Q 18.109375 38.875 18.109375 30.90625 
L 18.109375 0 
L 9.078125 0 
L 9.078125 54.6875 
L 18.109375 54.6875 
L 18.109375 46.1875 
Q 21.1875 51.21875 25.484375 53.609375 
Q 29.78125 56 35.6875 56 
Q 41.65625 56 45.828125 52.96875 
Q 50 49.953125 52 44.1875 
z
" id="DejaVuSans-109"/>
       <path d="M 54.890625 33.015625 
L 54.890625 0 
L 45.90625 0 
L 45.90625 32.71875 
Q 45.90625 40.484375 42.875 44.328125 
Q 39.84375 48.1875 33.796875 48.1875 
Q 26.515625 48.1875 22.3125 43.546875 
Q 18.109375 38.921875 18.109375 30.90625 
L 18.109375 0 
L 9.078125 0 
L 9.078125 54.6875 
L 18.109375 54.6875 
L 18.109375 46.1875 
Q 21.34375 51.125 25.703125 53.5625 
Q 30.078125 56 35.796875 56 
Q 45.21875 56 50.046875 50.171875 
Q 54.890625 44.34375 54.890625 33.015625 
z
" id="DejaVuSans-110"/>
       <path d="M 8.015625 75.875 
L 15.828125 75.875 
Q 23.140625 64.359375 26.78125 53.3125 
Q 30.421875 42.28125 30.421875 31.390625 
Q 30.421875 20.453125 26.78125 9.375 
Q 23.140625 -1.703125 15.828125 -13.1875 
L 8.015625 -13.1875 
Q 14.5 -2 17.703125 9.0625 
Q 20.90625 20.125 20.90625 31.390625 
Q 20.90625 42.671875 17.703125 53.65625 
Q 14.5 64.65625 8.015625 75.875 
z
" id="DejaVuSans-41"/>
      </defs>
      <use xlink:href="#DejaVuSans-108"/>
      <use x="27.783203" xlink:href="#DejaVuSans-111"/>
      <use x="88.964844" xlink:href="#DejaVuSans-103"/>
      <use x="152.441406" xlink:href="#DejaVuSans-49"/>
      <use x="216.064453" xlink:href="#DejaVuSans-48"/>
      <use x="279.6875" xlink:href="#DejaVuSans-40"/>
      <use x="318.701172" xlink:href="#DejaVuSans-101"/>
      <use x="380.224609" xlink:href="#DejaVuSans-118"/>
      <use x="439.404297" xlink:href="#DejaVuSans-97"/>
      <use x="500.683594" xlink:href="#DejaVuSans-108"/>
      <use x="528.466797" xlink:href="#DejaVuSans-115"/>
      <use x="580.566406" xlink:href="#DejaVuSans-32"/>
      <use x="612.353516" xlink:href="#DejaVuSans-47"/>
      <use x="646.044922" xlink:href="#DejaVuSans-32"/>
      <use x="677.832031" xlink:href="#DejaVuSans-100"/>
      <use x="741.308594" xlink:href="#DejaVuSans-105"/>
      <use x="769.091797" xlink:href="#DejaVuSans-109"/>
      <use x="866.503906" xlink:href="#DejaVuSans-101"/>
      <use x="928.027344" xlink:href="#DejaVuSans-110"/>
      <use x="991.40625" xlink:href="#DejaVuSans-115"/>
      <use x="1043.505859" xlink:href="#DejaVuSans-105"/>
      <use x="1071.289062" xlink:href="#DejaVuSans-111"/>
      <use x="1132.470703" xlink:href="#DejaVuSans-110"/>
      <use x="1195.849609" xlink:href="#DejaVuSans-41"/>
     </g>
    </g>
   </g>
   <g id="matplotlib.axis_2">
    <g id="ytick_1">
     <g id="line2d_17">
      <path clip-path="url(#p4f0d339df3)" d="M 57.6 298.944 
L 360.8064 298.944 
" style="fill:none;stroke:#b0b0b0;stroke-linecap:square;stroke-width:0.8;"/>
     </g>
     <g id="line2d_18">
      <defs>
       <path d="M 0 0 
L -3.5 0 
" id="m399fe13d82" style="stroke:#000000;stroke-width:0.8;"/>
      </defs>
      <g>
       <use style="stroke:#000000;stroke-width:0.8;" x="57.6" xlink:href="#m399fe13d82" y="298.944"/>
      </g>
     </g>
     <g id="text_6">
      <!-- 0.0 -->
      <g transform="translate(25.155 305.02275)scale(0.16 -0.16)">
       <defs>
        <path d="M 10.6875 12.40625 
L 21 12.40625 
L 21 0 
L 10.6875 0 
z
" id="DejaVuSans-46"/>
       </defs>
       <use xlink:href="#DejaVuSans-48"/>
       <use x="63.623047" xlink:href="#DejaVuSans-46"/>
       <use x="95.410156" xlink:href="#DejaVuSans-48"/>
      </g>
     </g>
    </g>
    <g id="ytick_2">
     <g id="line2d_19">
      <path clip-path="url(#p4f0d339df3)" d="M 57.6 240.5376 
L 360.8064 240.5376 
" style="fill:none;stroke:#b0b0b0;stroke-linecap:square;stroke-width:0.8;"/>
     </g>
     <g id="line2d_20">
      <g>
       <use style="stroke:#000000;stroke-width:0.8;" x="57.6" xlink:href="#m399fe13d82" y="240.5376"/>
      </g>
     </g>
     <g id="text_7">
      <!-- 0.2 -->
      <g transform="translate(25.155 246.61635)scale(0.16 -0.16)">
       <use xlink:href="#DejaVuSans-48"/>
       <use x="63.623047" xlink:href="#DejaVuSans-46"/>
       <use x="95.410156" xlink:href="#DejaVuSans-50"/>
      </g>
     </g>
    </g>
    <g id="ytick_3">
     <g id="line2d_21">
      <path clip-path="url(#p4f0d339df3)" d="M 57.6 182.1312 
L 360.8064 182.1312 
" style="fill:none;stroke:#b0b0b0;stroke-linecap:square;stroke-width:0.8;"/>
     </g>
     <g id="line2d_22">
      <g>
       <use style="stroke:#000000;stroke-width:0.8;" x="57.6" xlink:href="#m399fe13d82" y="182.1312"/>
      </g>
     </g>
     <g id="text_8">
      <!-- 0.4 -->
      <g transform="translate(25.155 188.20995)scale(0.16 -0.16)">
       <use xlink:href="#DejaVuSans-48"/>
       <use x="63.623047" xlink:href="#DejaVuSans-46"/>
       <use x="95.410156" xlink:href="#DejaVuSans-52"/>
      </g>
     </g>
    </g>
    <g id="ytick_4">
     <g id="line2d_23">
      <path clip-path="url(#p4f0d339df3)" d="M 57.6 123.7248 
L 360.8064 123.7248 
" style="fill:none;stroke:#b0b0b0;stroke-linecap:square;stroke-width:0.8;"/>
     </g>
     <g id="line2d_24">
      <g>
       <use style="stroke:#000000;stroke-width:0.8;" x="57.6" xlink:href="#m399fe13d82" y="123.7248"/>
      </g>
     </g>
     <g id="text_9">
      <!-- 0.6 -->
      <g transform="translate(25.155 129.80355)scale(0.16 -0.16)">
       <use xlink:href="#DejaVuSans-48"/>
       <use x="63.623047" xlink:href="#DejaVuSans-46"/>
       <use x="95.410156" xlink:href="#DejaVuSans-54"/>
      </g>
     </g>
    </g>
    <g id="ytick_5">
     <g id="line2d_25">
      <path clip-path="url(#p4f0d339df3)" d="M 57.6 65.3184 
L 360.8064 65.3184 
" style="fill:none;stroke:#b0b0b0;stroke-linecap:square;stroke-width:0.8;"/>
     </g>
     <g id="line2d_26">
      <g>
       <use style="stroke:#000000;stroke-width:0.8;" x="57.6" xlink:href="#m399fe13d82" y="65.3184"/>
      </g>
     </g>
     <g id="text_10">
      <!-- 0.8 -->
      <g transform="translate(25.155 71.39715)scale(0.16 -0.16)">
       <defs>
        <path d="M 31.78125 34.625 
Q 24.75 34.625 20.71875 30.859375 
Q 16.703125 27.09375 16.703125 20.515625 
Q 16.703125 13.921875 20.71875 10.15625 
Q 24.75 6.390625 31.78125 6.390625 
Q 38.8125 6.390625 42.859375 10.171875 
Q 46.921875 13.96875 46.921875 20.515625 
Q 46.921875 27.09375 42.890625 30.859375 
Q 38.875 34.625 31.78125 34.625 
z
M 21.921875 38.8125 
Q 15.578125 40.375 12.03125 44.71875 
Q 8.5 49.078125 8.5 55.328125 
Q 8.5 64.0625 14.71875 69.140625 
Q 20.953125 74.21875 31.78125 74.21875 
Q 42.671875 74.21875 48.875 69.140625 
Q 55.078125 64.0625 55.078125 55.328125 
Q 55.078125 49.078125 51.53125 44.71875 
Q 48 40.375 41.703125 38.8125 
Q 48.828125 37.15625 52.796875 32.3125 
Q 56.78125 27.484375 56.78125 20.515625 
Q 56.78125 9.90625 50.3125 4.234375 
Q 43.84375 -1.421875 31.78125 -1.421875 
Q 19.734375 -1.421875 13.25 4.234375 
Q 6.78125 9.90625 6.78125 20.515625 
Q 6.78125 27.484375 10.78125 32.3125 
Q 14.796875 37.15625 21.921875 38.8125 
z
M 18.3125 54.390625 
Q 18.3125 48.734375 21.84375 45.5625 
Q 25.390625 42.390625 31.78125 42.390625 
Q 38.140625 42.390625 41.71875 45.5625 
Q 45.3125 48.734375 45.3125 54.390625 
Q 45.3125 60.0625 41.71875 63.234375 
Q 38.140625 66.40625 31.78125 66.40625 
Q 25.390625 66.40625 21.84375 63.234375 
Q 18.3125 60.0625 18.3125 54.390625 
z
" id="DejaVuSans-56"/>
       </defs>
       <use xlink:href="#DejaVuSans-48"/>
       <use x="63.623047" xlink:href="#DejaVuSans-46"/>
       <use x="95.410156" xlink:href="#DejaVuSans-56"/>
      </g>
     </g>
    </g>
    <g id="ytick_6">
     <g id="line2d_27">
      <path clip-path="url(#p4f0d339df3)" d="M 57.6 6.912 
L 360.8064 6.912 
" style="fill:none;stroke:#b0b0b0;stroke-linecap:square;stroke-width:0.8;"/>
     </g>
     <g id="line2d_28">
      <g>
       <use style="stroke:#000000;stroke-width:0.8;" x="57.6" xlink:href="#m399fe13d82" y="6.912"/>
      </g>
     </g>
     <g id="text_11">
      <!-- 1.0 -->
      <g transform="translate(25.155 12.99075)scale(0.16 -0.16)">
       <use xlink:href="#DejaVuSans-49"/>
       <use x="63.623047" xlink:href="#DejaVuSans-46"/>
       <use x="95.410156" xlink:href="#DejaVuSans-48"/>
      </g>
     </g>
    </g>
    <g id="text_12">
     <!-- Fraction of function,target pairs -->
     <g transform="translate(17.619531 287.313)rotate(-90)scale(0.17 -0.17)">
      <defs>
       <path d="M 9.8125 72.90625 
L 51.703125 72.90625 
L 51.703125 64.59375 
L 19.671875 64.59375 
L 19.671875 43.109375 
L 48.578125 43.109375 
L 48.578125 34.8125 
L 19.671875 34.8125 
L 19.671875 0 
L 9.8125 0 
z
" id="DejaVuSans-70"/>
       <path d="M 41.109375 46.296875 
Q 39.59375 47.171875 37.8125 47.578125 
Q 36.03125 48 33.890625 48 
Q 26.265625 48 22.1875 43.046875 
Q 18.109375 38.09375 18.109375 28.8125 
L 18.109375 0 
L 9.078125 0 
L 9.078125 54.6875 
L 18.109375 54.6875 
L 18.109375 46.1875 
Q 20.953125 51.171875 25.484375 53.578125 
Q 30.03125 56 36.53125 56 
Q 37.453125 56 38.578125 55.875 
Q 39.703125 55.765625 41.0625 55.515625 
z
" id="DejaVuSans-114"/>
       <path d="M 48.78125 52.59375 
L 48.78125 44.1875 
Q 44.96875 46.296875 41.140625 47.34375 
Q 37.3125 48.390625 33.40625 48.390625 
Q 24.65625 48.390625 19.8125 42.84375 
Q 14.984375 37.3125 14.984375 27.296875 
Q 14.984375 17.28125 19.8125 11.734375 
Q 24.65625 6.203125 33.40625 6.203125 
Q 37.3125 6.203125 41.140625 7.25 
Q 44.96875 8.296875 48.78125 10.40625 
L 48.78125 2.09375 
Q 45.015625 0.34375 40.984375 -0.53125 
Q 36.96875 -1.421875 32.421875 -1.421875 
Q 20.0625 -1.421875 12.78125 6.34375 
Q 5.515625 14.109375 5.515625 27.296875 
Q 5.515625 40.671875 12.859375 48.328125 
Q 20.21875 56 33.015625 56 
Q 37.15625 56 41.109375 55.140625 
Q 45.0625 54.296875 48.78125 52.59375 
z
" id="DejaVuSans-99"/>
       <path d="M 18.3125 70.21875 
L 18.3125 54.6875 
L 36.8125 54.6875 
L 36.8125 47.703125 
L 18.3125 47.703125 
L 18.3125 18.015625 
Q 18.3125 11.328125 20.140625 9.421875 
Q 21.96875 7.515625 27.59375 7.515625 
L 36.8125 7.515625 
L 36.8125 0 
L 27.59375 0 
Q 17.1875 0 13.234375 3.875 
Q 9.28125 7.765625 9.28125 18.015625 
L 9.28125 47.703125 
L 2.6875 47.703125 
L 2.6875 54.6875 
L 9.28125 54.6875 
L 9.28125 70.21875 
z
" id="DejaVuSans-116"/>
       <path d="M 37.109375 75.984375 
L 37.109375 68.5 
L 28.515625 68.5 
Q 23.6875 68.5 21.796875 66.546875 
Q 19.921875 64.59375 19.921875 59.515625 
L 19.921875 54.6875 
L 34.71875 54.6875 
L 34.71875 47.703125 
L 19.921875 47.703125 
L 19.921875 0 
L 10.890625 0 
L 10.890625 47.703125 
L 2.296875 47.703125 
L 2.296875 54.6875 
L 10.890625 54.6875 
L 10.890625 58.5 
Q 10.890625 67.625 15.140625 71.796875 
Q 19.390625 75.984375 28.609375 75.984375 
z
" id="DejaVuSans-102"/>
       <path d="M 8.5 21.578125 
L 8.5 54.6875 
L 17.484375 54.6875 
L 17.484375 21.921875 
Q 17.484375 14.15625 20.5 10.265625 
Q 23.53125 6.390625 29.59375 6.390625 
Q 36.859375 6.390625 41.078125 11.03125 
Q 45.3125 15.671875 45.3125 23.6875 
L 45.3125 54.6875 
L 54.296875 54.6875 
L 54.296875 0 
L 45.3125 0 
L 45.3125 8.40625 
Q 42.046875 3.421875 37.71875 1 
Q 33.40625 -1.421875 27.6875 -1.421875 
Q 18.265625 -1.421875 13.375 4.4375 
Q 8.5 10.296875 8.5 21.578125 
z
M 31.109375 56 
z
" id="DejaVuSans-117"/>
       <path d="M 11.71875 12.40625 
L 22.015625 12.40625 
L 22.015625 4 
L 14.015625 -11.625 
L 7.71875 -11.625 
L 11.71875 4 
z
" id="DejaVuSans-44"/>
       <path d="M 18.109375 8.203125 
L 18.109375 -20.796875 
L 9.078125 -20.796875 
L 9.078125 54.6875 
L 18.109375 54.6875 
L 18.109375 46.390625 
Q 20.953125 51.265625 25.265625 53.625 
Q 29.59375 56 35.59375 56 
Q 45.5625 56 51.78125 48.09375 
Q 58.015625 40.1875 58.015625 27.296875 
Q 58.015625 14.40625 51.78125 6.484375 
Q 45.5625 -1.421875 35.59375 -1.421875 
Q 29.59375 -1.421875 25.265625 0.953125 
Q 20.953125 3.328125 18.109375 8.203125 
z
M 48.6875 27.296875 
Q 48.6875 37.203125 44.609375 42.84375 
Q 40.53125 48.484375 33.40625 48.484375 
Q 26.265625 48.484375 22.1875 42.84375 
Q 18.109375 37.203125 18.109375 27.296875 
Q 18.109375 17.390625 22.1875 11.75 
Q 26.265625 6.109375 33.40625 6.109375 
Q 40.53125 6.109375 44.609375 11.75 
Q 48.6875 17.390625 48.6875 27.296875 
z
" id="DejaVuSans-112"/>
      </defs>
      <use xlink:href="#DejaVuSans-70"/>
      <use x="50.269531" xlink:href="#DejaVuSans-114"/>
      <use x="91.382812" xlink:href="#DejaVuSans-97"/>
      <use x="152.662109" xlink:href="#DejaVuSans-99"/>
      <use x="207.642578" xlink:href="#DejaVuSans-116"/>
      <use x="246.851562" xlink:href="#DejaVuSans-105"/>
      <use x="274.634766" xlink:href="#DejaVuSans-111"/>
      <use x="335.816406" xlink:href="#DejaVuSans-110"/>
      <use x="399.195312" xlink:href="#DejaVuSans-32"/>
      <use x="430.982422" xlink:href="#DejaVuSans-111"/>
      <use x="492.164062" xlink:href="#DejaVuSans-102"/>
      <use x="527.369141" xlink:href="#DejaVuSans-32"/>
      <use x="559.15625" xlink:href="#DejaVuSans-102"/>
      <use x="594.361328" xlink:href="#DejaVuSans-117"/>
      <use x="657.740234" xlink:href="#DejaVuSans-110"/>
      <use x="721.119141" xlink:href="#DejaVuSans-99"/>
      <use x="776.099609" xlink:href="#DejaVuSans-116"/>
      <use x="815.308594" xlink:href="#DejaVuSans-105"/>
      <use x="843.091797" xlink:href="#DejaVuSans-111"/>
      <use x="904.273438" xlink:href="#DejaVuSans-110"/>
      <use x="967.652344" xlink:href="#DejaVuSans-44"/>
      <use x="999.439453" xlink:href="#DejaVuSans-116"/>
      <use x="1038.648438" xlink:href="#DejaVuSans-97"/>
      <use x="1099.927734" xlink:href="#DejaVuSans-114"/>
      <use x="1139.291016" xlink:href="#DejaVuSans-103"/>
      <use x="1202.767578" xlink:href="#DejaVuSans-101"/>
      <use x="1264.291016" xlink:href="#DejaVuSans-116"/>
      <use x="1303.5" xlink:href="#DejaVuSans-32"/>
      <use x="1335.287109" xlink:href="#DejaVuSans-112"/>
      <use x="1398.763672" xlink:href="#DejaVuSans-97"/>
      <use x="1460.042969" xlink:href="#DejaVuSans-105"/>
      <use x="1487.826172" xlink:href="#DejaVuSans-114"/>
      <use x="1528.939453" xlink:href="#DejaVuSans-115"/>
     </g>
    </g>
   </g>
   <g id="line2d_29">
    <defs>
     <path d="M 0 1.5 
C 0.397805 1.5 0.77937 1.341951 1.06066 1.06066 
C 1.341951 0.77937 1.5 0.397805 1.5 0 
C 1.5 -0.397805 1.341951 -0.77937 1.06066 -1.06066 
C 0.77937 -1.341951 0.397805 -1.5 0 -1.5 
C -0.397805 -1.5 -0.77937 -1.341951 -1.06066 -1.06066 
C -1.341951 -0.77937 -1.5 -0.397805 -1.5 0 
C -1.5 0.397805 -1.341951 0.77937 -1.06066 1.06066 
C -0.77937 1.341951 -0.397805 1.5 0 1.5 
z
" id="m3e80679ddf" style="stroke:#000080;"/>
    </defs>
    <g>
     <use style="fill:#000080;stroke:#000080;" x="134.730392" xlink:href="#m3e80679ddf" y="6.912"/>
     <use style="fill:#000080;stroke:#000080;" x="134.730392" xlink:href="#m3e80679ddf" y="6.912"/>
    </g>
   </g>
   <g id="line2d_30">
    <path d="M 73.268314 298.944 
L 73.268314 294.0768 
L 75.574654 294.0768 
L 75.574654 287.07278 
L 78.88343 287.07278 
L 78.88343 286.954068 
L 79.480672 286.954068 
L 79.480672 285.529522 
L 80.059535 285.529522 
L 80.059535 285.292098 
L 80.621116 285.292098 
L 80.621116 284.935961 
L 81.166416 284.935961 
L 81.166416 277.100956 
L 81.696354 277.100956 
L 81.696354 276.982244 
L 83.678349 276.982244 
L 83.678349 276.863532 
L 84.142855 276.863532 
L 84.142855 271.996332 
L 84.596168 271.996332 
L 84.596168 267.247844 
L 85.038813 267.247844 
L 85.038813 267.129132 
L 85.471281 267.129132 
L 85.471281 266.891707 
L 86.307488 266.891707 
L 86.307488 262.380644 
L 87.1081 262.380644 
L 87.1081 262.14322 
L 88.972154 262.14322 
L 88.972154 262.024507 
L 89.668958 262.024507 
L 89.668958 257.513444 
L 90.668036 257.513444 
L 90.668036 252.883668 
L 91.305777 252.883668 
L 91.305777 252.764956 
L 91.922605 252.764956 
L 91.922605 252.646244 
L 92.223596 252.646244 
L 92.223596 248.253893 
L 92.811505 248.253893 
L 92.811505 247.185483 
L 93.098709 247.185483 
L 93.098709 245.286088 
L 93.66029 245.286088 
L 93.66029 244.455102 
L 93.934916 244.455102 
L 93.934916 244.217678 
L 94.472426 244.217678 
L 94.472426 244.098966 
L 94.735529 244.098966 
L 94.735529 243.624117 
L 94.995002 243.624117 
L 94.995002 243.26798 
L 95.503454 243.26798 
L 95.503454 241.724722 
L 95.752617 241.724722 
L 95.752617 241.012449 
L 95.998523 241.012449 
L 95.998523 240.656312 
L 96.241256 240.656312 
L 96.241256 237.213659 
L 96.480897 237.213659 
L 96.480897 236.501385 
L 96.717523 236.501385 
L 96.717523 232.702595 
L 97.410051 232.702595 
L 97.410051 231.752898 
L 97.857967 231.752898 
L 97.857967 231.159337 
L 98.077987 231.159337 
L 98.077987 230.090927 
L 98.295464 230.090927 
L 98.295464 228.547668 
L 98.510456 228.547668 
L 98.510456 227.954107 
L 98.723018 227.954107 
L 98.723018 227.241834 
L 98.933205 227.241834 
L 98.933205 226.292137 
L 99.14107 226.292137 
L 99.14107 220.356527 
L 99.346662 220.356527 
L 99.346662 219.644254 
L 99.550033 219.644254 
L 99.550033 219.050693 
L 99.751228 219.050693 
L 99.751228 218.457132 
L 99.950294 218.457132 
L 99.950294 217.744859 
L 100.147275 217.744859 
L 100.147275 217.151298 
L 100.342215 217.151298 
L 100.342215 216.2016 
L 100.726138 216.2016 
L 100.726138 215.845463 
L 100.9152 215.845463 
L 100.9152 215.251902 
L 101.102381 215.251902 
L 101.102381 214.539629 
L 101.287718 214.539629 
L 101.287718 212.996371 
L 101.471247 212.996371 
L 101.471247 210.028566 
L 101.653002 210.028566 
L 101.653002 208.960156 
L 101.833019 208.960156 
L 101.833019 208.60402 
L 102.011329 208.60402 
L 102.011329 206.704624 
L 102.187964 206.704624 
L 102.187964 205.280078 
L 102.362957 205.280078 
L 102.362957 204.092956 
L 102.536336 204.092956 
L 102.536336 202.430985 
L 102.708132 202.430985 
L 102.708132 201.6 
L 102.878374 201.6 
L 102.878374 201.006439 
L 103.047088 201.006439 
L 103.047088 198.157346 
L 103.214303 198.157346 
L 103.214303 196.020527 
L 103.544339 196.020527 
L 103.544339 194.239844 
L 103.707211 194.239844 
L 103.707211 193.290146 
L 103.868684 193.290146 
L 103.868684 191.509463 
L 104.028784 191.509463 
L 104.028784 191.034615 
L 104.187532 191.034615 
L 104.187532 189.847493 
L 104.501065 189.847493 
L 104.501065 189.016507 
L 104.655893 189.016507 
L 104.655893 188.660371 
L 104.809458 188.660371 
L 104.809458 187.948098 
L 104.961779 187.948098 
L 104.961779 187.354537 
L 105.112877 187.354537 
L 105.112877 186.523551 
L 105.26277 186.523551 
L 105.26277 185.573854 
L 105.411479 185.573854 
L 105.411479 182.1312 
L 105.559021 182.1312 
L 105.559021 177.382712 
L 105.850679 177.382712 
L 105.850679 176.907863 
L 105.99483 176.907863 
L 105.99483 175.958166 
L 106.137884 175.958166 
L 106.137884 174.177483 
L 106.279859 174.177483 
L 106.279859 173.46521 
L 106.42077 173.46521 
L 106.42077 170.022556 
L 106.560633 170.022556 
L 106.560633 168.716722 
L 106.699465 168.716722 
L 106.699465 167.885737 
L 106.837279 167.885737 
L 106.837279 165.036644 
L 106.974091 165.036644 
L 106.974091 163.612098 
L 107.109915 163.612098 
L 107.109915 162.306263 
L 107.244765 162.306263 
L 107.244765 161.712702 
L 107.378656 161.712702 
L 107.378656 160.406868 
L 107.643612 160.406868 
L 107.643612 160.288156 
L 107.904887 160.288156 
L 107.904887 156.133229 
L 108.034177 156.133229 
L 108.034177 156.014517 
L 108.162584 156.014517 
L 108.162584 154.115122 
L 108.416798 154.115122 
L 108.416798 151.85959 
L 108.542628 151.85959 
L 108.542628 150.19762 
L 108.667622 150.19762 
L 108.667622 149.010498 
L 108.791791 149.010498 
L 108.791791 148.0608 
L 108.915146 148.0608 
L 108.915146 147.467239 
L 109.037698 147.467239 
L 109.037698 144.143298 
L 109.159456 144.143298 
L 109.159456 141.650341 
L 109.280431 141.650341 
L 109.280431 140.819356 
L 109.400633 140.819356 
L 109.400633 138.3264 
L 109.520071 138.3264 
L 109.520071 136.664429 
L 109.638757 136.664429 
L 109.638757 135.952156 
L 109.756698 135.952156 
L 109.756698 135.358595 
L 109.990385 135.358595 
L 109.990385 133.577912 
L 110.106149 133.577912 
L 110.106149 132.865639 
L 110.221204 132.865639 
L 110.221204 132.034654 
L 110.335561 132.034654 
L 110.335561 130.72882 
L 110.449226 130.72882 
L 110.449226 130.610107 
L 110.562208 130.610107 
L 110.562208 128.117151 
L 110.674517 128.117151 
L 110.674517 127.642302 
L 110.786158 127.642302 
L 110.897141 120.044722 
L 111.007473 120.044722 
L 111.117162 117.78919 
L 111.334639 117.78919 
L 111.334639 117.670478 
L 111.54963 117.670478 
L 111.656212 113.9904 
L 111.762192 113.9904 
L 111.86758 113.040702 
L 111.97238 113.040702 
L 112.076599 109.360624 
L 112.180244 109.360624 
L 112.180244 108.648351 
L 112.487797 108.648351 
L 112.589207 106.630244 
L 112.690074 106.630244 
L 112.790402 103.306302 
L 112.890198 103.306302 
L 112.989468 99.3888 
L 113.088217 99.3888 
L 113.186449 98.32039 
L 113.284172 98.32039 
L 113.381389 93.928039 
L 113.57433 93.928039 
L 113.670063 93.45319 
L 113.860081 93.45319 
L 113.954374 90.960234 
L 114.048198 90.960234 
L 114.141556 87.992429 
L 114.234452 87.992429 
L 114.326893 85.380761 
L 114.418881 85.380761 
L 114.510421 79.801288 
L 114.601519 79.801288 
L 114.692177 76.477346 
L 114.7824 76.477346 
L 114.872193 73.272117 
L 114.961559 73.272117 
L 114.961559 72.797268 
L 115.139028 72.797268 
L 115.227139 68.642341 
L 115.314838 68.642341 
L 115.402131 66.624234 
L 115.489021 66.624234 
L 115.575511 63.18158 
L 115.661605 63.18158 
L 115.747307 61.51961 
L 115.917548 61.51961 
L 116.002095 59.857639 
L 116.086263 59.857639 
L 116.170056 58.907941 
L 116.336531 58.907941 
L 116.419219 54.278166 
L 116.501546 54.278166 
L 116.583514 47.98642 
L 116.665126 47.98642 
L 116.746385 47.155434 
L 116.907859 47.155434 
L 116.988079 45.612176 
L 117.067958 45.612176 
L 117.1475 43.594068 
L 117.384126 43.594068 
L 117.462345 40.744976 
L 117.617813 40.744976 
L 117.695068 37.777171 
L 117.848632 37.777171 
L 117.848632 36.590049 
L 118.000953 36.590049 
L 118.076654 33.859668 
L 118.152051 33.859668 
L 118.227147 32.078985 
L 118.301945 32.078985 
L 118.301945 31.841561 
L 118.450653 31.841561 
L 118.524569 30.417015 
L 118.598196 30.417015 
L 118.671535 28.51762 
L 118.74459 28.51762 
L 118.817362 27.330498 
L 118.889854 27.330498 
L 118.889854 26.143376 
L 119.034004 26.143376 
L 119.105667 25.193678 
L 119.177058 25.193678 
L 119.24818 22.700722 
L 119.319033 22.700722 
L 119.389621 21.276176 
L 119.459944 21.276176 
L 119.530006 18.427083 
L 119.669351 18.427083 
L 119.738639 16.408976 
L 119.807672 16.408976 
L 119.876453 15.815415 
L 120.013265 15.815415 
L 120.0813 15.103141 
L 120.149089 15.103141 
L 120.216635 13.91602 
L 120.28394 13.91602 
L 120.351004 12.254049 
L 120.41783 12.254049 
L 120.48442 10.71079 
L 120.550775 10.71079 
L 120.550775 10.235941 
L 120.682786 10.235941 
L 120.682786 9.879805 
L 120.879082 9.879805 
L 120.879082 9.286244 
L 121.073351 9.286244 
L 121.137664 8.692683 
L 121.201758 8.692683 
L 121.265635 8.336546 
L 121.329295 8.336546 
L 121.329295 8.099122 
L 121.830966 8.099122 
L 121.830966 7.98041 
L 122.076872 7.98041 
L 122.076872 7.624273 
L 131.692402 7.624273 
L 131.692402 7.505561 
L 133.901977 7.505561 
L 133.901977 7.386849 
L 134.28886 7.386849 
L 134.28886 7.149424 
L 134.510922 7.149424 
L 134.510922 7.030712 
L 134.730392 7.030712 
L 134.730392 6.912 
L 360.8064 6.912 
L 360.8064 6.912 
" style="fill:none;stroke:#000080;stroke-linecap:square;stroke-width:1.5;"/>
   </g>
   <g id="line2d_31">
    <defs>
     <path d="M 0 6 
C 1.591219 6 3.117479 5.367802 4.242641 4.242641 
C 5.367802 3.117479 6 1.591219 6 0 
C 6 -1.591219 5.367802 -3.117479 4.242641 -4.242641 
C 3.117479 -5.367802 1.591219 -6 0 -6 
C -1.591219 -6 -3.117479 -5.367802 -4.242641 -4.242641 
C -5.367802 -3.117479 -6 -1.591219 -6 0 
C -6 1.591219 -5.367802 3.117479 -4.242641 4.242641 
C -3.117479 5.367802 -1.591219 6 0 6 
z
" id="m20dfec7463" style="stroke:#000080;stroke-width:1.5;"/>
    </defs>
    <g>
     <use style="fill-opacity:0;stroke:#000080;stroke-width:1.5;" x="96.717523" xlink:href="#m20dfec7463" y="236.501385"/>
     <use style="fill-opacity:0;stroke:#000080;stroke-width:1.5;" x="114.510421" xlink:href="#m20dfec7463" y="84.905912"/>
     <use style="fill-opacity:0;stroke:#000080;stroke-width:1.5;" x="134.730392" xlink:href="#m20dfec7463" y="6.912"/>
     <use style="fill-opacity:0;stroke:#000080;stroke-width:1.5;" x="134.730392" xlink:href="#m20dfec7463" y="6.912"/>
     <use style="fill-opacity:0;stroke:#000080;stroke-width:1.5;" x="360.8064" xlink:href="#m20dfec7463" y="6.912"/>
    </g>
   </g>
   <g id="line2d_32">
    <path style="fill:none;stroke:#000080;stroke-linecap:square;stroke-width:1.5;"/>
    <g/>
   </g>
   <g id="line2d_33">
    <defs>
     <path d="M 0 1.5 
C 0.397805 1.5 0.77937 1.341951 1.06066 1.06066 
C 1.341951 0.77937 1.5 0.397805 1.5 0 
C 1.5 -0.397805 1.341951 -0.77937 1.06066 -1.06066 
C 0.77937 -1.341951 0.397805 -1.5 0 -1.5 
C -0.397805 -1.5 -0.77937 -1.341951 -1.06066 -1.06066 
C -1.341951 -0.77937 -1.5 -0.397805 -1.5 0 
C -1.5 0.397805 -1.341951 0.77937 -1.06066 1.06066 
C -0.77937 1.341951 -0.397805 1.5 0 1.5 
z
" id="mddf139228a" style="stroke:#ff00ff;"/>
    </defs>
    <g>
     <use style="fill:#ff00ff;stroke:#ff00ff;" x="273.790427" xlink:href="#mddf139228a" y="85.262049"/>
     <use style="fill:#ff00ff;stroke:#ff00ff;" x="273.790427" xlink:href="#mddf139228a" y="85.262049"/>
    </g>
   </g>
   <g id="line2d_34">
    <path d="M 105.411479 298.944 
L 105.411479 298.587863 
L 108.29012 298.587863 
L 108.29012 297.994302 
L 110.786158 297.994302 
L 110.786158 293.483239 
L 112.989468 293.483239 
L 112.989468 290.515434 
L 114.961559 290.515434 
L 114.961559 286.835356 
L 119.876453 286.835356 
L 119.876453 285.054673 
L 121.265635 285.054673 
L 121.265635 283.27399 
L 122.559246 283.27399 
L 122.559246 282.443005 
L 123.769595 282.443005 
L 123.769595 281.968156 
L 124.906754 281.968156 
L 124.906754 280.306185 
L 125.979073 280.306185 
L 125.979073 278.525502 
L 126.993549 278.525502 
L 126.993549 276.269971 
L 127.956104 276.269971 
L 127.956104 274.608 
L 128.871795 274.608 
L 128.871795 272.708605 
L 129.744974 272.708605 
L 129.78556 272.352468 
L 130.579414 272.352468 
L 130.579414 271.758907 
L 131.378407 271.758907 
L 131.452761 271.284059 
L 132.144842 271.284059 
L 132.216233 270.927922 
L 132.949924 270.927922 
L 132.949924 269.622088 
L 133.589949 269.622088 
L 133.656071 268.553678 
L 134.272898 268.553678 
L 134.336666 267.485268 
L 134.931919 267.485268 
L 134.993495 264.517463 
L 135.085483 264.517463 
L 135.085483 264.280039 
L 135.568632 264.280039 
L 135.628162 262.499356 
L 135.717106 262.499356 
L 135.717106 262.380644 
L 135.981441 262.380644 
L 135.981441 261.430946 
L 136.184497 261.430946 
L 136.242113 258.819278 
L 136.584151 258.819278 
L 136.584151 258.107005 
L 136.780838 258.107005 
L 136.864507 255.1392 
L 136.906202 255.1392 
L 136.92008 254.189502 
L 137.113304 254.189502 
L 137.195511 253.477229 
L 137.358854 253.477229 
L 137.426497 251.933971 
L 137.761112 251.933971 
L 137.761112 251.459122 
L 137.919637 251.459122 
L 137.972183 249.559727 
L 138.050729 249.559727 
L 138.050729 248.372605 
L 138.180913 248.372605 
L 138.180913 248.253893 
L 138.310202 248.253893 
L 138.310202 247.066771 
L 138.464186 247.066771 
L 138.566146 244.929951 
L 138.59155 244.929951 
L 138.59155 244.455102 
L 138.718057 244.455102 
L 138.718057 244.33639 
L 138.856239 244.33639 
L 138.856239 244.217678 
L 138.993414 244.217678 
L 139.043049 243.386693 
L 139.117256 243.386693 
L 139.117256 242.555707 
L 139.508159 242.555707 
L 139.556456 242.318283 
L 139.628669 242.318283 
L 139.628669 240.775024 
L 139.748412 240.775024 
L 139.748412 240.656312 
L 139.867398 240.656312 
L 139.867398 240.5376 
L 140.009194 240.5376 
L 140.103135 238.875629 
L 140.26641 238.875629 
L 140.26641 238.638205 
L 140.49723 238.638205 
L 140.565927 236.026537 
L 140.747902 236.026537 
L 140.747902 235.6704 
L 140.972924 235.6704 
L 141.017607 234.008429 
L 141.084433 234.008429 
L 141.084433 233.53358 
L 141.436884 233.53358 
L 141.523975 231.752898 
L 141.56737 231.752898 
L 141.589029 230.921912 
L 141.696956 230.921912 
L 141.696956 230.209639 
L 141.889677 230.209639 
L 141.974701 227.954107 
L 142.038218 227.954107 
L 142.143605 227.479259 
L 142.164612 227.479259 
L 142.164612 226.766985 
L 142.331827 226.766985 
L 142.41488 223.324332 
L 142.47693 223.324332 
L 142.47693 222.13721 
L 142.60042 222.13721 
L 142.702713 221.543649 
L 142.763822 221.543649 
L 142.844994 218.694556 
L 143.02636 218.694556 
L 143.086429 217.388722 
L 143.18612 217.388722 
L 143.18612 214.658341 
L 143.324805 214.658341 
L 143.324805 213.47122 
L 143.442869 213.47122 
L 143.442869 212.521522 
L 143.599145 212.521522 
L 143.599145 211.453112 
L 143.773417 211.453112 
L 143.869541 210.622127 
L 143.946089 210.622127 
L 144.003296 209.435005 
L 144.136106 209.435005 
L 144.192739 208.60402 
L 144.342932 208.60402 
L 144.398947 206.585912 
L 144.547509 206.585912 
L 144.658165 205.873639 
L 144.768174 205.873639 
L 144.786447 203.261971 
L 145.040416 203.261971 
L 145.148219 202.193561 
L 145.166126 202.193561 
L 145.166126 201.956137 
L 145.361989 201.956137 
L 145.432709 199.819317 
L 145.520737 199.819317 
L 145.547065 197.682498 
L 145.773713 197.682498 
L 145.816988 196.614088 
L 145.886021 196.614088 
L 145.90324 193.408859 
L 146.006223 193.408859 
L 146.006223 193.290146 
L 146.176619 193.290146 
L 146.261241 191.153327 
L 146.529503 191.153327 
L 146.612557 188.422946 
L 146.87589 188.422946 
L 146.957431 187.117112 
L 147.014301 187.117112 
L 147.022411 186.642263 
L 147.216013 186.642263 
L 147.296097 184.624156 
L 147.359919 184.624156 
L 147.359919 184.505444 
L 147.628773 184.505444 
L 147.628773 182.724761 
L 147.955668 182.724761 
L 147.971093 181.537639 
L 148.07872 181.537639 
L 148.094045 181.06279 
L 148.276979 181.06279 
L 148.292143 179.875668 
L 148.44312 179.875668 
L 148.44312 179.756956 
L 148.592894 179.756956 
L 148.622706 178.569834 
L 148.75628 178.569834 
L 148.800595 177.620137 
L 148.932916 177.620137 
L 148.932916 177.264 
L 149.064312 177.264 
L 149.122418 176.789151 
L 149.20924 176.789151 
L 149.238092 175.245893 
L 149.35306 175.245893 
L 149.42456 173.821346 
L 149.65155 173.821346 
L 149.665646 173.46521 
L 149.806031 173.46521 
L 149.806031 173.109073 
L 149.945377 173.109073 
L 150.056115 171.565815 
L 150.097474 171.565815 
L 150.097474 171.447102 
L 150.411576 171.447102 
L 150.425115 170.853541 
L 150.693856 170.853541 
L 150.787015 169.785132 
L 150.945652 169.785132 
L 150.945652 169.428995 
L 151.27191 169.428995 
L 151.27191 169.310283 
L 151.477784 169.310283 
L 151.573517 169.072859 
L 151.618026 169.072859 
L 151.618026 167.648312 
L 152.020159 167.648312 
L 152.020159 167.292176 
L 152.144083 167.292176 
L 152.144083 166.817327 
L 156.706284 166.817327 
L 156.706284 165.986341 
L 158.752135 165.986341 
L 158.752135 165.511493 
L 159.42664 165.511493 
L 159.468527 164.561795 
L 159.676576 164.561795 
L 159.676576 164.443083 
L 159.816746 164.443083 
L 159.816746 163.968234 
L 160.367209 163.968234 
L 160.367209 163.612098 
L 162.470869 163.612098 
L 162.470869 163.493385 
L 163.171045 163.493385 
L 163.171045 163.374673 
L 163.450751 163.374673 
L 163.450751 163.018537 
L 164.720604 163.018537 
L 164.720604 162.899824 
L 164.978343 162.899824 
L 164.978343 162.781112 
L 165.446961 162.781112 
L 165.465221 161.950127 
L 165.592552 161.950127 
L 165.592552 161.712702 
L 166.871471 161.712702 
L 166.871471 161.356566 
L 167.173896 161.356566 
L 167.190556 161.119141 
L 168.29014 161.119141 
L 168.29014 161.000429 
L 168.513935 161.000429 
L 168.513935 160.881717 
L 169.164778 160.881717 
L 169.164778 160.763005 
L 169.363634 160.763005 
L 169.363634 160.644293 
L 169.579974 160.644293 
L 169.579974 160.52558 
L 169.971845 160.52558 
L 169.971845 160.406868 
L 170.28522 160.406868 
L 170.28522 160.288156 
L 170.481956 160.288156 
L 170.579558 159.93202 
L 170.964979 159.93202 
L 170.964979 159.813307 
L 171.311476 159.813307 
L 171.311476 159.694595 
L 171.717274 159.694595 
L 171.717274 159.575883 
L 171.942824 159.575883 
L 171.990192 159.338459 
L 172.777719 159.338459 
L 172.777719 159.219746 
L 173.549438 159.219746 
L 173.549438 159.101034 
L 173.945073 159.101034 
L 174.010854 158.86361 
L 174.74197 158.86361 
L 174.74197 158.507473 
L 175.384788 158.507473 
L 175.384788 158.388761 
L 176.292516 158.388761 
L 176.292516 158.270049 
L 176.631594 158.270049 
L 176.631594 158.151337 
L 176.782208 158.151337 
L 176.782208 158.032624 
L 176.961367 158.032624 
L 177.050311 157.7952 
L 177.168252 157.7952 
L 177.168252 157.676488 
L 177.321126 157.676488 
L 177.424504 157.201639 
L 177.578514 157.201639 
L 177.661413 156.964215 
L 178.00815 156.964215 
L 178.00815 156.845502 
L 178.188434 156.845502 
L 178.188434 156.72679 
L 178.403742 156.72679 
L 178.403742 156.608078 
L 178.69507 156.608078 
L 178.725159 156.370654 
L 178.949305 156.370654 
L 178.970089 156.133229 
L 179.144367 156.133229 
L 179.144367 156.014517 
L 179.369413 156.014517 
L 179.473713 155.302244 
L 179.694876 155.302244 
L 179.694876 155.183532 
L 180.13234 155.183532 
L 180.13234 155.06482 
L 180.29069 155.06482 
L 180.29069 154.946107 
L 180.529841 154.946107 
L 180.529841 154.827395 
L 180.870894 154.827395 
L 180.870894 154.708683 
L 181.661445 154.708683 
L 181.766602 154.471259 
L 182.111266 154.471259 
L 182.163928 154.115122 
L 182.227677 154.115122 
L 182.273791 153.758985 
L 182.835445 153.758985 
L 182.835445 153.640273 
L 183.170733 153.640273 
L 183.170733 153.521561 
L 183.544415 153.521561 
L 183.644211 153.165424 
L 183.704297 153.165424 
L 183.789475 152.928 
L 184.160191 152.928 
L 184.187197 152.690576 
L 184.377384 152.690576 
L 184.377384 152.571863 
L 184.527057 152.571863 
L 184.527057 152.453151 
L 184.732433 152.453151 
L 184.732433 152.334439 
L 184.925864 152.334439 
L 184.925864 152.215727 
L 185.614745 152.215727 
L 185.711425 151.978302 
L 185.77147 151.978302 
L 185.77147 151.85959 
L 185.940221 151.85959 
L 186.045437 151.503454 
L 186.27023 151.503454 
L 186.27023 151.384741 
L 186.647899 151.384741 
L 186.677472 151.147317 
L 186.767875 151.147317 
L 186.84711 150.909893 
L 186.927957 150.909893 
L 186.991998 150.672468 
L 187.042302 150.672468 
L 187.042302 150.553756 
L 187.347034 150.553756 
L 187.347034 150.435044 
L 187.513593 150.435044 
L 187.513593 150.316332 
L 189.173638 150.316332 
L 189.198637 150.078907 
L 189.674969 150.078907 
L 189.768805 149.722771 
L 191.230702 149.722771 
L 191.239206 149.247922 
L 191.411543 149.247922 
L 191.431444 148.773073 
L 192.615893 148.773073 
L 192.681866 148.298224 
L 192.988595 148.298224 
L 193.06871 147.942088 
L 193.569698 147.942088 
L 193.569698 147.823376 
L 193.684067 147.823376 
L 193.684067 147.704663 
L 193.801791 147.704663 
L 193.801791 147.585951 
L 193.970994 147.585951 
L 193.984358 147.348527 
L 194.185006 147.348527 
L 194.185006 147.229815 
L 194.362598 147.229815 
L 194.362598 147.111102 
L 194.625238 147.111102 
L 194.62782 146.873678 
L 195.252496 146.873678 
L 195.274961 146.398829 
L 195.924693 146.398829 
L 195.924693 146.280117 
L 196.080692 146.280117 
L 196.160589 145.805268 
L 196.224737 145.805268 
L 196.261465 145.567844 
L 196.496708 145.567844 
L 196.578353 145.33042 
L 196.793589 145.33042 
L 196.857912 145.092995 
L 196.941433 145.092995 
L 196.979067 144.855571 
L 197.246038 144.855571 
L 197.331212 144.26201 
L 197.88215 144.26201 
L 197.897347 144.024585 
L 198.141513 144.024585 
L 198.141513 143.905873 
L 198.729331 143.905873 
L 198.779093 143.549737 
L 198.980932 143.549737 
L 198.980932 143.431024 
L 199.136491 143.431024 
L 199.152738 143.1936 
L 199.347113 143.1936 
L 199.347113 143.074888 
L 199.690526 143.074888 
L 199.719109 142.837463 
L 199.8144 142.837463 
L 199.875544 142.600039 
L 200.160048 142.600039 
L 200.250743 142.362615 
L 201.420899 142.362615 
L 201.420899 142.243902 
L 201.728758 142.243902 
L 201.830709 141.887766 
L 201.931234 141.887766 
L 201.931234 141.769054 
L 202.640929 141.769054 
L 202.640929 141.650341 
L 203.28738 141.650341 
L 203.28738 141.412917 
L 203.924171 141.412917 
L 204.033328 141.05678 
L 204.196274 141.05678 
L 204.196274 140.938068 
L 204.309271 140.938068 
L 204.333176 140.581932 
L 204.830172 140.581932 
L 204.843302 140.225795 
L 205.178561 140.225795 
L 205.178561 140.107083 
L 205.306327 140.107083 
L 205.368427 139.869659 
L 205.467362 139.869659 
L 205.470264 139.632234 
L 205.651476 139.632234 
L 205.651476 139.513522 
L 205.766085 139.513522 
L 205.867929 139.276098 
L 205.879999 139.276098 
L 205.911205 138.563824 
L 206.121904 138.563824 
L 206.121904 138.445112 
L 206.256665 138.445112 
L 206.265012 138.207688 
L 206.578803 138.207688 
L 206.640939 137.139278 
L 206.873986 137.139278 
L 206.873986 137.020566 
L 207.000139 137.020566 
L 207.012174 136.783141 
L 207.270713 136.783141 
L 207.276646 136.545717 
L 207.633399 136.545717 
L 207.70504 136.070868 
L 207.93362 136.070868 
L 208.028207 135.59602 
L 208.045296 135.59602 
L 208.060473 135.358595 
L 208.211576 135.358595 
L 208.211576 135.239883 
L 208.826299 135.239883 
L 208.826299 135.121171 
L 208.949101 135.121171 
L 208.954527 134.883746 
L 209.126736 134.883746 
L 209.126736 134.765034 
L 210.069724 134.765034 
L 210.078812 134.52761 
L 210.450445 134.52761 
L 210.450445 134.408898 
L 210.580266 134.408898 
L 210.580266 134.290185 
L 210.703157 134.290185 
L 210.753623 134.052761 
L 210.903127 134.052761 
L 210.903127 133.934049 
L 211.145847 133.934049 
L 211.164347 133.4592 
L 211.599842 133.4592 
L 211.599842 133.340488 
L 211.82629 133.340488 
L 211.908384 132.984351 
L 211.96497 132.984351 
L 211.974727 132.746927 
L 212.11538 132.746927 
L 212.11538 132.628215 
L 212.33977 132.628215 
L 212.438701 132.153366 
L 212.47623 132.153366 
L 212.580911 131.678517 
L 212.716626 131.678517 
L 212.775265 130.966244 
L 212.847449 130.966244 
L 212.847449 130.847532 
L 213.164556 130.847532 
L 213.242225 130.491395 
L 213.32053 130.491395 
L 213.32053 130.372683 
L 213.459098 130.372683 
L 213.459098 130.253971 
L 213.633117 130.253971 
L 213.633117 130.135259 
L 214.050795 130.135259 
L 214.050795 130.016546 
L 214.701434 130.016546 
L 214.701434 129.897834 
L 215.06038 129.897834 
L 215.06038 129.779122 
L 215.876799 129.779122 
L 215.957149 129.541698 
L 216.17112 129.541698 
L 216.233039 129.304273 
L 216.319221 129.304273 
L 216.319221 129.185561 
L 216.466569 129.185561 
L 216.572207 128.710712 
L 216.69404 128.710712 
L 216.69404 128.592 
L 216.86345 128.592 
L 216.904183 127.761015 
L 216.99325 127.761015 
L 216.99325 127.642302 
L 217.113176 127.642302 
L 217.113176 127.52359 
L 217.529292 127.52359 
L 217.592046 126.930029 
L 217.652694 126.930029 
L 217.742451 126.45518 
L 218.276035 126.45518 
L 218.276035 126.336468 
L 219.298448 126.336468 
L 219.298448 126.217756 
L 219.649583 126.217756 
L 219.655386 125.980332 
L 219.800215 125.980332 
L 219.876262 125.742907 
L 219.953346 125.742907 
L 219.953346 125.624195 
L 220.133876 125.624195 
L 220.142192 125.030634 
L 220.267815 125.030634 
L 220.311042 124.674498 
L 220.404415 124.674498 
L 220.474795 124.318361 
L 220.662386 124.318361 
L 220.772376 123.606088 
L 220.792145 123.606088 
L 220.804349 123.368663 
L 221.131385 123.368663 
L 221.189354 122.893815 
L 221.25655 122.893815 
L 221.269396 122.537678 
L 221.922437 122.537678 
L 221.922437 122.418966 
L 222.22376 122.418966 
L 222.231499 122.181541 
L 222.783567 122.181541 
L 222.784 121.944117 
L 222.921348 121.944117 
L 223.025203 121.706693 
L 223.042314 121.706693 
L 223.145789 121.469268 
L 223.156558 121.469268 
L 223.209184 121.113132 
L 223.272084 121.113132 
L 223.292348 120.756995 
L 223.485861 120.756995 
L 223.506035 120.282146 
L 223.646512 120.282146 
L 223.67575 119.92601 
L 223.906534 119.92601 
L 224.000499 119.332449 
L 224.069182 119.332449 
L 224.093862 118.738888 
L 225.219792 118.738888 
L 225.219792 118.620176 
L 225.475622 118.620176 
L 225.475622 118.501463 
L 225.698836 118.501463 
L 225.779845 118.145327 
L 225.82907 118.145327 
L 225.915885 117.670478 
L 226.084077 117.670478 
L 226.11049 117.076917 
L 226.232263 117.076917 
L 226.232263 116.958205 
L 226.371769 116.958205 
L 226.37344 116.72078 
L 226.512737 116.72078 
L 226.616625 116.364644 
L 227.601534 116.364644 
L 227.601534 116.245932 
L 227.820158 116.245932 
L 227.836734 116.008507 
L 227.997977 116.008507 
L 228.018337 115.771083 
L 228.153941 115.771083 
L 228.24301 115.296234 
L 228.368099 115.296234 
L 228.3842 114.583961 
L 228.499401 114.583961 
L 228.590144 113.9904 
L 228.690271 113.9904 
L 228.757498 113.515551 
L 228.832032 113.515551 
L 228.832032 113.396839 
L 230.161627 113.396839 
L 230.271615 112.684566 
L 230.406997 112.684566 
L 230.412488 112.328429 
L 230.522268 112.328429 
L 230.600537 111.85358 
L 230.635885 111.85358 
L 230.737936 111.141307 
L 230.753267 111.141307 
L 230.79626 110.903883 
L 230.878193 110.903883 
L 230.878193 110.785171 
L 231.793841 110.785171 
L 231.808425 110.19161 
L 232.003722 110.19161 
L 232.066638 109.598049 
L 232.116679 109.598049 
L 232.122309 109.360624 
L 232.258151 109.360624 
L 232.258151 109.241912 
L 232.526582 109.241912 
L 232.617614 108.529639 
L 233.506617 108.529639 
L 233.506617 108.410927 
L 233.7522 108.410927 
L 233.816615 107.698654 
L 233.922341 107.698654 
L 233.922341 107.579941 
L 234.163538 107.579941 
L 234.254069 106.98638 
L 234.317574 106.98638 
L 234.317574 106.867668 
L 235.083592 106.867668 
L 235.178337 106.630244 
L 235.219117 106.630244 
L 235.31155 106.274107 
L 235.45967 106.274107 
L 235.541767 105.799259 
L 235.601735 105.799259 
L 235.675717 105.561834 
L 235.727201 105.561834 
L 235.727201 105.443122 
L 236.79585 105.443122 
L 236.884693 104.968273 
L 236.960337 104.968273 
L 237.00612 104.256 
L 237.174436 104.256 
L 237.205878 104.018576 
L 237.870391 104.018576 
L 237.873436 103.781151 
L 237.989695 103.781151 
L 238.071036 103.306302 
L 238.194493 103.306302 
L 238.204235 102.712741 
L 238.453709 102.712741 
L 238.453709 102.594029 
L 239.11834 102.594029 
L 239.11834 102.475317 
L 239.312473 102.475317 
L 239.355636 101.881756 
L 239.426579 101.881756 
L 239.499395 101.644332 
L 239.667877 101.644332 
L 239.686831 101.288195 
L 240.186981 101.288195 
L 240.188815 101.050771 
L 240.299052 101.050771 
L 240.406155 100.813346 
L 240.477934 100.813346 
L 240.487522 100.45721 
L 240.589186 100.45721 
L 240.665858 100.101073 
L 240.777674 100.101073 
L 240.839753 99.744937 
L 241.578682 99.744937 
L 241.68003 99.3888 
L 241.836391 99.3888 
L 241.936208 99.151376 
L 242.599928 99.151376 
L 242.643518 98.676527 
L 242.712172 98.676527 
L 242.777881 98.32039 
L 242.863199 98.32039 
L 242.923976 97.845541 
L 243.562544 97.845541 
L 243.627071 97.370693 
L 243.847275 97.370693 
L 243.917038 97.133268 
L 244.613523 97.133268 
L 244.619771 96.777132 
L 244.79691 96.777132 
L 244.808251 96.420995 
L 245.272815 96.420995 
L 245.363966 96.183571 
L 245.434924 96.183571 
L 245.50432 95.59001 
L 245.553227 95.59001 
L 245.635701 95.115161 
L 245.67507 95.115161 
L 245.67507 94.996449 
L 246.344429 94.996449 
L 246.348393 94.759024 
L 246.465497 94.759024 
L 246.488215 94.402888 
L 246.95396 94.402888 
L 246.95396 94.284176 
L 247.074795 94.284176 
L 247.084327 93.928039 
L 247.293636 93.928039 
L 247.356552 93.571902 
L 247.854623 93.571902 
L 247.932591 92.859629 
L 247.9774 92.859629 
L 247.9774 92.740917 
L 248.483222 92.740917 
L 248.483222 92.622205 
L 248.61051 92.622205 
L 248.683116 92.38478 
L 248.723445 92.38478 
L 248.833428 92.028644 
L 249.211802 92.028644 
L 249.211802 91.909932 
L 249.393292 91.909932 
L 249.393292 91.79122 
L 250.031008 91.79122 
L 250.085179 91.553795 
L 250.182048 91.553795 
L 250.20554 91.197659 
L 250.581133 91.197659 
L 250.581133 91.078946 
L 250.851156 91.078946 
L 250.869899 90.841522 
L 251.34711 90.841522 
L 251.396743 90.366673 
L 251.549055 90.366673 
L 251.549055 90.247961 
L 251.857886 90.247961 
L 251.860905 90.010537 
L 252.024121 90.010537 
L 252.024121 89.891824 
L 252.559801 89.891824 
L 252.660084 89.416976 
L 252.715177 89.416976 
L 252.734917 89.179551 
L 253.048723 89.179551 
L 253.145087 88.823415 
L 253.262415 88.823415 
L 253.346311 88.58599 
L 253.617871 88.58599 
L 253.617871 88.467278 
L 255.365703 88.467278 
L 255.365703 88.348566 
L 255.741776 88.348566 
L 255.840129 88.111141 
L 256.47108 88.111141 
L 256.47108 87.992429 
L 256.807455 87.992429 
L 256.811054 87.755005 
L 257.312036 87.755005 
L 257.411018 87.398868 
L 257.769065 87.398868 
L 257.866841 87.161444 
L 258.217033 87.161444 
L 258.291233 86.92402 
L 258.95654 86.92402 
L 258.95654 86.805307 
L 259.164694 86.805307 
L 259.164694 86.686595 
L 259.933769 86.686595 
L 259.933769 86.567883 
L 260.581267 86.567883 
L 260.682887 86.330459 
L 261.064563 86.330459 
L 261.064563 86.211746 
L 262.145722 86.211746 
L 262.2381 85.974322 
L 262.595309 85.974322 
L 262.595309 85.85561 
L 262.927347 85.85561 
L 262.927347 85.736898 
L 263.604723 85.736898 
L 263.604723 85.618185 
L 264.577751 85.618185 
L 264.577751 85.499473 
L 267.208471 85.499473 
L 267.208471 85.380761 
L 273.790427 85.380761 
L 273.790427 85.262049 
L 360.8064 85.262049 
L 360.8064 85.262049 
" style="fill:none;stroke:#ff00ff;stroke-linecap:square;stroke-width:1.5;"/>
   </g>
   <g id="line2d_35">
    <defs>
     <path d="M -0 8.485281 
L 5.091169 0 
L 0 -8.485281 
L -5.091169 -0 
z
" id="mc6a8eebd41" style="stroke:#ff00ff;stroke-linejoin:miter;stroke-width:1.5;"/>
    </defs>
    <g>
     <use style="fill-opacity:0;stroke:#ff00ff;stroke-linejoin:miter;stroke-width:1.5;" x="144.786447" xlink:href="#mc6a8eebd41" y="205.161366"/>
     <use style="fill-opacity:0;stroke:#ff00ff;stroke-linejoin:miter;stroke-width:1.5;" x="230.878193" xlink:href="#mc6a8eebd41" y="110.785171"/>
     <use style="fill-opacity:0;stroke:#ff00ff;stroke-linejoin:miter;stroke-width:1.5;" x="273.790427" xlink:href="#mc6a8eebd41" y="85.380761"/>
     <use style="fill-opacity:0;stroke:#ff00ff;stroke-linejoin:miter;stroke-width:1.5;" x="273.790427" xlink:href="#mc6a8eebd41" y="85.262049"/>
     <use style="fill-opacity:0;stroke:#ff00ff;stroke-linejoin:miter;stroke-width:1.5;" x="360.8064" xlink:href="#mc6a8eebd41" y="85.262049"/>
    </g>
   </g>
   <g id="line2d_36">
    <path style="fill:none;stroke:#ff00ff;stroke-linecap:square;stroke-width:1.5;"/>
    <g/>
   </g>
   <g id="line2d_37">
    <path clip-path="url(#p4f0d339df3)" d="M 187.5691 150.316332 
" style="fill:none;stroke:#ff00ff;stroke-linecap:square;stroke-width:1.5;"/>
    <defs>
     <path d="M -12 12 
L 12 -12 
M -12 -12 
L 12 12 
" id="m52261bdb1d" style="stroke:#ff00ff;"/>
    </defs>
    <g clip-path="url(#p4f0d339df3)">
     <use style="fill:#ff00ff;stroke:#ff00ff;" x="187.5691" xlink:href="#m52261bdb1d" y="150.316332"/>
    </g>
   </g>
   <g id="line2d_38">
    <defs>
     <path d="M 0 1.5 
C 0.397805 1.5 0.77937 1.341951 1.06066 1.06066 
C 1.341951 0.77937 1.5 0.397805 1.5 0 
C 1.5 -0.397805 1.341951 -0.77937 1.06066 -1.06066 
C 0.77937 -1.341951 0.397805 -1.5 0 -1.5 
C -0.397805 -1.5 -0.77937 -1.341951 -1.06066 -1.06066 
C -1.341951 -0.77937 -1.5 -0.397805 -1.5 0 
C -1.5 0.397805 -1.341951 0.77937 -1.06066 1.06066 
C -0.77937 1.341951 -0.397805 1.5 0 1.5 
z
" id="m8e9fbf60a1" style="stroke:#ff7500;"/>
    </defs>
    <g>
     <use style="fill:#ff7500;stroke:#ff7500;" x="261.455617" xlink:href="#m8e9fbf60a1" y="6.912"/>
     <use style="fill:#ff7500;stroke:#ff7500;" x="261.455617" xlink:href="#m8e9fbf60a1" y="6.912"/>
    </g>
   </g>
   <g id="line2d_39">
    <path d="M 73.672879 298.944 
L 73.672879 248.610029 
L 74.456807 248.610029 
L 74.456807 248.253893 
L 75.93298 248.253893 
L 75.93298 248.13518 
L 76.284608 248.13518 
L 76.284608 248.016468 
L 76.629783 248.016468 
L 76.629783 247.779044 
L 76.96874 247.779044 
L 76.96874 247.660332 
L 77.301696 247.660332 
L 77.301696 247.422907 
L 78.577544 247.422907 
L 78.577544 247.304195 
L 80.059535 247.304195 
L 80.059535 247.185483 
L 80.342421 247.185483 
L 80.342421 247.066771 
L 85.894031 247.066771 
L 85.894031 227.241834 
L 93.240684 227.241834 
L 93.240684 210.622127 
L 98.510456 210.622127 
L 98.510456 180.944078 
L 98.828405 180.944078 
L 98.828405 180.706654 
L 99.751228 180.706654 
L 99.851024 180.350517 
L 100.438933 180.350517 
L 100.438933 180.231805 
L 100.630889 180.231805 
L 100.630889 179.99438 
L 102.62243 179.99438 
L 102.62243 179.875668 
L 102.793446 179.875668 
L 102.793446 179.756956 
L 102.96292 179.756956 
L 102.96292 179.638244 
L 103.707211 179.638244 
L 103.707211 179.40082 
L 105.99483 179.40082 
L 105.99483 178.807259 
L 106.137884 178.807259 
L 106.137884 177.382712 
L 106.279859 177.382712 
L 106.279859 177.264 
L 106.42077 177.264 
L 106.42077 177.145288 
L 108.976522 177.145288 
L 108.976522 175.008468 
L 109.098675 175.008468 
L 109.098675 174.058771 
L 111.442442 174.058771 
L 111.54963 169.66642 
L 111.656212 169.66642 
L 111.762192 169.072859 
L 113.52628 169.072859 
L 113.622258 166.936039 
L 113.717748 166.936039 
L 113.812756 161.712702 
L 113.860081 161.712702 
L 113.954374 161.000429 
L 114.556025 161.000429 
L 114.556025 160.881717 
L 115.489021 160.881717 
L 115.575511 158.507473 
L 115.661605 158.507473 
L 115.747307 154.827395 
L 115.83262 154.827395 
L 115.917548 153.99641 
L 115.959869 153.99641 
L 115.959869 153.877698 
L 116.419219 153.877698 
L 116.419219 153.402849 
L 117.266185 153.402849 
L 117.344894 151.503454 
L 117.423276 151.503454 
L 117.501332 148.0608 
L 117.579066 148.0608 
L 117.579066 145.805268 
L 118.11439 145.805268 
L 118.11439 145.211707 
L 118.889854 145.211707 
L 118.962067 143.549737 
L 119.034004 143.549737 
L 119.105667 140.344507 
L 119.177058 140.344507 
L 119.177058 138.919961 
L 119.319033 138.919961 
L 119.319033 138.445112 
L 119.669351 138.445112 
L 119.738639 137.732839 
L 119.944983 137.732839 
L 119.944983 137.614127 
L 120.351004 137.614127 
L 120.451154 135.002459 
L 120.48442 135.002459 
L 120.583864 132.984351 
L 120.616896 132.984351 
L 120.715645 131.678517 
L 120.78119 131.678517 
L 120.78119 131.559805 
L 121.105535 131.559805 
L 121.169739 130.72882 
L 121.233724 130.72882 
L 121.233724 130.610107 
L 121.361044 130.610107 
L 121.361044 130.253971 
L 121.487509 130.253971 
L 121.487509 129.779122 
L 121.830966 129.779122 
L 121.892744 128.117151 
L 121.954321 128.117151 
L 122.015696 125.86162 
L 122.076872 125.86162 
L 122.13785 124.911922 
L 122.379802 124.911922 
L 122.439807 124.674498 
L 122.499621 124.674498 
L 122.559246 123.606088 
L 123.029559 123.606088 
L 123.116449 122.300254 
L 123.174153 122.300254 
L 123.231681 120.400859 
L 123.289033 120.400859 
L 123.346211 119.451161 
L 123.403216 119.451161 
L 123.403216 119.213737 
L 123.797484 119.213737 
L 123.85314 118.026615 
L 123.908631 118.026615 
L 123.963959 117.433054 
L 124.238185 117.433054 
L 124.346766 116.72078 
L 124.400822 116.72078 
L 124.481616 114.109112 
L 124.535287 114.109112 
L 124.642171 111.734868 
L 124.774928 111.734868 
L 124.854134 110.903883 
L 124.959227 110.903883 
L 125.063736 109.004488 
L 125.115773 109.004488 
L 125.115773 108.292215 
L 125.373824 108.292215 
L 125.373824 108.173502 
L 125.501533 108.173502 
L 125.60308 105.443122 
L 125.628382 105.443122 
L 125.704082 104.968273 
L 125.75438 104.968273 
L 125.75438 104.849561 
L 125.954239 104.849561 
L 126.053378 103.306302 
L 126.102752 103.306302 
L 126.201114 101.050771 
L 126.420564 101.050771 
L 126.420564 100.932059 
L 126.541384 100.932059 
L 126.589495 99.863649 
L 126.661432 99.863649 
L 126.756923 97.964254 
L 126.804487 97.964254 
L 126.875608 96.539707 
L 126.97002 96.539707 
L 127.06396 95.233873 
L 127.087372 95.233873 
L 127.18073 94.046751 
L 127.227236 94.046751 
L 127.273627 93.571902 
L 127.458055 93.571902 
L 127.480982 93.334478 
L 127.663399 93.334478 
L 127.753948 92.38478 
L 127.79906 92.38478 
L 127.88896 90.129249 
L 127.911368 90.129249 
L 127.911368 89.773112 
L 128.023009 89.773112 
L 128.133992 87.51758 
L 128.15611 87.51758 
L 128.244324 86.093034 
L 128.375874 86.093034 
L 128.41952 85.736898 
L 128.528195 85.736898 
L 128.614685 83.600078 
L 128.679293 83.600078 
L 128.786481 81.700683 
L 128.829186 81.700683 
L 128.893063 81.107122 
L 128.977895 81.107122 
L 129.0834 80.038712 
L 129.167381 80.038712 
L 129.167381 79.682576 
L 129.292652 79.682576 
L 129.292652 78.614166 
L 129.417095 78.614166 
L 129.520173 77.664468 
L 129.60223 77.664468 
L 129.643124 76.239922 
L 129.724648 76.239922 
L 129.724648 76.12121 
L 129.86647 76.12121 
L 129.96712 74.340527 
L 130.047255 74.340527 
L 130.047255 73.153405 
L 130.265881 73.153405 
L 130.28563 72.797268 
L 130.481995 72.797268 
L 130.55997 71.491434 
L 130.676331 71.491434 
L 130.772751 70.541737 
L 130.830367 70.541737 
L 130.830367 69.948176 
L 131.096932 69.948176 
L 131.134706 68.167493 
L 131.526822 68.167493 
L 131.563744 66.149385 
L 131.892817 66.149385 
L 131.892817 66.030673 
L 132.340519 66.030673 
L 132.340519 65.199688 
L 132.898456 65.199688 
L 132.898456 65.080976 
L 133.086488 65.080976 
L 133.086488 64.368702 
L 133.523594 64.368702 
L 133.523594 64.24999 
L 133.901977 64.24999 
L 133.901977 64.131278 
L 134.22493 64.131278 
L 134.256922 62.944156 
L 134.416073 62.944156 
L 134.447743 62.350595 
L 134.885604 62.350595 
L 134.885604 61.163473 
L 135.966853 61.163473 
L 135.966853 59.857639 
L 136.413909 59.857639 
L 136.413909 59.264078 
L 136.892314 59.264078 
L 136.892314 58.789229 
L 137.480437 58.789229 
L 137.480437 58.551805 
L 138.400179 58.551805 
L 138.400179 58.433093 
L 140.324381 58.433093 
L 140.324381 58.31438 
L 140.508697 58.31438 
L 140.520157 58.076956 
L 141.371301 58.076956 
L 141.371301 57.839532 
L 141.59985 57.839532 
L 141.59985 57.483395 
L 141.879022 57.483395 
L 141.953481 55.702712 
L 142.01707 55.702712 
L 142.101521 55.109151 
L 142.300587 55.109151 
L 142.373399 54.159454 
L 143.550448 54.159454 
L 143.618588 53.328468 
L 144.079302 53.328468 
L 144.079302 52.972332 
L 144.267986 52.972332 
L 144.33358 52.616195 
L 144.731576 52.616195 
L 144.731576 52.260059 
L 145.013368 52.260059 
L 145.013368 52.022634 
L 145.886021 52.022634 
L 145.886021 51.903922 
L 146.294984 51.903922 
L 146.379077 50.360663 
L 146.604268 50.360663 
L 146.604268 49.885815 
L 146.736453 49.885815 
L 146.769355 49.64839 
L 146.99807 49.64839 
L 147.062909 49.292254 
L 147.183884 49.292254 
L 147.183884 49.173541 
L 147.312072 49.173541 
L 147.312072 49.054829 
L 149.495789 49.054829 
L 149.495789 48.817405 
L 150.193627 48.817405 
L 150.193627 48.698693 
L 150.87311 48.698693 
L 150.87311 48.223844 
L 151.155108 48.223844 
L 151.155108 47.630283 
L 151.882893 47.630283 
L 151.882893 47.392859 
L 152.389508 47.392859 
L 152.389508 47.274146 
L 154.179115 47.274146 
L 154.201272 46.205737 
L 154.546851 46.205737 
L 154.574008 45.968312 
L 154.80059 45.968312 
L 154.80059 45.256039 
L 155.003269 45.256039 
L 155.003269 45.018615 
L 155.350181 45.018615 
L 155.350181 44.662478 
L 156.130601 44.662478 
L 156.160556 44.187629 
L 156.43294 44.187629 
L 156.43294 44.068917 
L 156.609116 44.068917 
L 156.609116 43.71278 
L 158.129077 43.71278 
L 158.129077 43.594068 
L 158.249994 43.594068 
L 158.249994 42.763083 
L 158.533546 42.763083 
L 158.533546 42.406946 
L 160.851552 42.406946 
L 160.851552 41.813385 
L 162.31327 41.813385 
L 162.359971 41.457249 
L 162.445885 41.457249 
L 162.460166 41.101112 
L 162.602382 41.101112 
L 162.66603 40.626263 
L 162.908039 40.626263 
L 162.908039 40.507551 
L 163.639407 40.507551 
L 163.65616 40.151415 
L 163.968364 40.151415 
L 163.968364 39.91399 
L 164.375662 39.91399 
L 164.449654 39.201717 
L 164.634959 39.201717 
L 164.634959 39.083005 
L 164.975221 39.083005 
L 164.975221 38.25202 
L 165.118299 38.25202 
L 165.14926 37.777171 
L 165.251069 37.777171 
L 165.251069 37.18361 
L 165.92201 37.18361 
L 165.92201 36.946185 
L 166.376665 36.946185 
L 166.376665 36.708761 
L 166.500873 36.708761 
L 166.500873 35.996488 
L 167.348091 35.996488 
L 167.348091 35.640351 
L 167.575151 35.640351 
L 167.575151 34.928078 
L 167.737601 34.928078 
L 167.737601 34.334517 
L 167.874589 34.334517 
L 167.874589 34.215805 
L 168.142969 34.215805 
L 168.142969 33.859668 
L 169.440129 33.859668 
L 169.440129 33.147395 
L 169.837305 33.147395 
L 169.837305 33.028683 
L 170.2758 33.028683 
L 170.332249 32.435122 
L 172.557844 32.435122 
L 172.557844 32.078985 
L 174.65072 32.078985 
L 174.65072 31.604137 
L 174.817984 31.604137 
L 174.817984 31.485424 
L 176.032401 31.485424 
L 176.032401 31.366712 
L 176.685284 31.366712 
L 176.685284 31.248 
L 177.151915 31.248 
L 177.151915 31.129288 
L 177.792979 31.129288 
L 177.901658 29.704741 
L 178.967121 29.704741 
L 178.967121 29.348605 
L 179.341793 29.348605 
L 179.341793 29.229893 
L 179.852688 29.229893 
L 179.897939 28.873756 
L 180.710611 28.873756 
L 180.710611 28.755044 
L 181.130625 28.755044 
L 181.130625 28.51762 
L 181.316221 28.51762 
L 181.316221 28.280195 
L 181.744849 28.280195 
L 181.744849 28.042771 
L 182.283747 28.042771 
L 182.283747 27.924059 
L 182.91622 27.924059 
L 182.91622 27.805346 
L 183.830774 27.805346 
L 183.830774 27.211785 
L 184.380723 27.211785 
L 184.380723 26.974361 
L 186.829531 26.974361 
L 186.829531 26.855649 
L 187.455087 26.855649 
L 187.495683 26.618224 
L 187.771854 26.618224 
L 187.847905 26.143376 
L 188.3439 26.143376 
L 188.3439 25.905951 
L 189.821383 25.905951 
L 189.89707 25.549815 
L 190.497476 25.549815 
L 190.497476 25.431102 
L 191.150112 25.431102 
L 191.150112 25.193678 
L 192.183542 25.193678 
L 192.183542 24.956254 
L 192.493375 24.956254 
L 192.493375 24.837541 
L 192.944174 24.837541 
L 192.944174 24.481405 
L 193.135911 24.481405 
L 193.135911 24.362693 
L 193.512252 24.362693 
L 193.512252 24.006556 
L 194.294391 24.006556 
L 194.294391 23.769132 
L 194.608445 23.769132 
L 194.707048 23.412995 
L 195.303628 23.412995 
L 195.303628 23.175571 
L 197.166119 23.175571 
L 197.166119 22.58201 
L 197.921202 22.58201 
L 197.921202 22.463298 
L 198.059938 22.463298 
L 198.059938 22.344585 
L 198.84627 22.344585 
L 198.946074 22.107161 
L 200.490481 22.107161 
L 200.490481 21.988449 
L 201.249631 21.988449 
L 201.249631 21.751024 
L 202.233073 21.751024 
L 202.233073 21.5136 
L 202.679255 21.5136 
L 202.679255 21.394888 
L 202.862224 21.394888 
L 202.862224 21.276176 
L 203.028155 21.276176 
L 203.028155 21.157463 
L 204.435777 21.157463 
L 204.435777 21.038751 
L 205.064753 21.038751 
L 205.080683 20.682615 
L 205.358942 20.682615 
L 205.358942 20.563902 
L 205.79748 20.563902 
L 205.79748 20.44519 
L 206.457012 20.44519 
L 206.51955 20.089054 
L 206.918034 20.089054 
L 206.918034 19.970341 
L 207.417478 19.970341 
L 207.417478 19.851629 
L 207.554667 19.851629 
L 207.659247 19.614205 
L 207.830879 19.614205 
L 207.830879 19.495493 
L 208.02789 19.495493 
L 208.02789 19.37678 
L 208.155054 19.37678 
L 208.155054 19.258068 
L 208.360541 19.258068 
L 208.434739 18.664507 
L 209.418335 18.664507 
L 209.418335 18.545795 
L 210.850881 18.545795 
L 210.850881 18.427083 
L 212.105186 18.427083 
L 212.105186 18.308371 
L 212.300707 18.308371 
L 212.300707 18.070946 
L 212.712184 18.070946 
L 212.712184 17.952234 
L 212.953015 17.952234 
L 212.953015 17.596098 
L 213.131033 17.596098 
L 213.131033 17.477385 
L 213.246784 17.477385 
L 213.307861 17.239961 
L 214.093272 17.239961 
L 214.093272 17.002537 
L 214.536392 17.002537 
L 214.565044 16.765112 
L 214.851608 16.765112 
L 214.851608 16.6464 
L 215.648246 16.6464 
L 215.648246 16.527688 
L 216.166602 16.527688 
L 216.166602 16.408976 
L 216.316572 16.408976 
L 216.316572 16.290263 
L 216.650247 16.290263 
L 216.747892 16.052839 
L 218.410701 16.052839 
L 218.410701 15.934127 
L 219.073105 15.934127 
L 219.150915 15.696702 
L 219.447766 15.696702 
L 219.458115 15.459278 
L 219.617294 15.459278 
L 219.711444 15.103141 
L 219.784291 15.103141 
L 219.784291 14.984429 
L 220.041654 14.984429 
L 220.041654 14.865717 
L 220.33953 14.865717 
L 220.345288 14.628293 
L 220.605688 14.628293 
L 220.690671 14.272156 
L 220.761438 14.272156 
L 220.847964 14.034732 
L 220.903138 14.034732 
L 220.903138 13.797307 
L 221.147155 13.797307 
L 221.147155 13.678595 
L 221.287242 13.678595 
L 221.390381 13.441171 
L 221.424429 13.441171 
L 221.466165 13.085034 
L 221.538867 13.085034 
L 221.634958 12.728898 
L 221.872148 12.728898 
L 221.98134 12.254049 
L 222.238492 12.254049 
L 222.277424 12.016624 
L 222.44795 12.016624 
L 222.44795 11.897912 
L 222.758118 11.897912 
L 222.758118 11.7792 
L 222.943856 11.7792 
L 222.943856 11.660488 
L 223.05827 11.660488 
L 223.05827 11.541776 
L 223.201977 11.541776 
L 223.201977 11.423063 
L 224.185155 11.423063 
L 224.235653 11.185639 
L 224.926037 11.185639 
L 224.926037 11.066927 
L 226.569184 11.066927 
L 226.569184 10.948215 
L 228.182159 10.948215 
L 228.293102 10.71079 
L 228.763177 10.71079 
L 228.763177 10.592078 
L 231.028974 10.592078 
L 231.028974 10.473366 
L 231.602039 10.473366 
L 231.602039 10.354654 
L 232.632429 10.354654 
L 232.632429 10.235941 
L 233.314256 10.235941 
L 233.314256 10.117229 
L 234.305438 10.117229 
L 234.349402 9.879805 
L 234.669216 9.879805 
L 234.67275 9.64238 
L 234.795009 9.64238 
L 234.795009 9.523668 
L 235.083442 9.523668 
L 235.083442 9.404956 
L 235.219415 9.404956 
L 235.219415 9.286244 
L 235.339296 9.286244 
L 235.339296 9.167532 
L 237.502717 9.167532 
L 237.502717 9.04882 
L 237.916665 9.04882 
L 237.916665 8.930107 
L 238.328279 8.930107 
L 238.388514 8.692683 
L 239.133009 8.692683 
L 239.133009 8.573971 
L 239.375326 8.573971 
L 239.375326 8.455259 
L 241.040163 8.455259 
L 241.129686 8.099122 
L 241.278725 8.099122 
L 241.33605 7.861698 
L 242.179309 7.861698 
L 242.179309 7.742985 
L 245.325336 7.742985 
L 245.420268 7.505561 
L 246.420923 7.505561 
L 246.420923 7.386849 
L 252.194741 7.386849 
L 252.194741 7.268137 
L 252.634354 7.268137 
L 252.634354 7.149424 
L 255.626979 7.149424 
L 255.626979 7.030712 
L 261.455617 7.030712 
L 261.455617 6.912 
L 360.8064 6.912 
L 360.8064 6.912 
" style="fill:none;stroke:#ff7500;stroke-linecap:square;stroke-width:1.5;"/>
   </g>
   <g id="line2d_40">
    <defs>
     <path d="M 0 -6 
L -1.347084 -1.854102 
L -5.706339 -1.854102 
L -2.179628 0.708204 
L -3.526712 4.854102 
L -0 2.291796 
L 3.526712 4.854102 
L 2.179628 0.708204 
L 5.706339 -1.854102 
L 1.347084 -1.854102 
z
" id="m102ca5cd5e" style="stroke:#ff7500;stroke-linejoin:bevel;stroke-width:1.5;"/>
    </defs>
    <g>
     <use style="fill-opacity:0;stroke:#ff7500;stroke-linejoin:bevel;stroke-width:1.5;" x="93.240684" xlink:href="#m102ca5cd5e" y="227.241834"/>
     <use style="fill-opacity:0;stroke:#ff7500;stroke-linejoin:bevel;stroke-width:1.5;" x="146.379077" xlink:href="#m102ca5cd5e" y="50.360663"/>
     <use style="fill-opacity:0;stroke:#ff7500;stroke-linejoin:bevel;stroke-width:1.5;" x="239.375326" xlink:href="#m102ca5cd5e" y="8.455259"/>
     <use style="fill-opacity:0;stroke:#ff7500;stroke-linejoin:bevel;stroke-width:1.5;" x="261.455617" xlink:href="#m102ca5cd5e" y="6.912"/>
     <use style="fill-opacity:0;stroke:#ff7500;stroke-linejoin:bevel;stroke-width:1.5;" x="360.8064" xlink:href="#m102ca5cd5e" y="6.912"/>
    </g>
   </g>
   <g id="line2d_41">
    <path style="fill:none;stroke:#ff7500;stroke-linecap:square;stroke-width:1.5;"/>
    <g/>
   </g>
   <g id="line2d_42">
    <path clip-path="url(#p4f0d339df3)" d="M 205.015395 21.038751 
" style="fill:none;stroke:#ff7500;stroke-linecap:square;stroke-width:1.5;"/>
    <defs>
     <path d="M -12 12 
L 12 -12 
M -12 -12 
L 12 12 
" id="me8837ab16f" style="stroke:#ff7500;"/>
    </defs>
    <g clip-path="url(#p4f0d339df3)">
     <use style="fill:#ff7500;stroke:#ff7500;" x="205.015395" xlink:href="#me8837ab16f" y="21.038751"/>
    </g>
   </g>
   <g id="line2d_43">
    <path d="M 360.8064 85.262049 
L 380.514816 293.10336 
" style="fill:none;stroke:#ff00ff;stroke-linecap:square;stroke-width:1.5;"/>
    <g>
     <use style="fill-opacity:0;stroke:#ff00ff;stroke-linejoin:miter;stroke-width:1.5;" x="360.8064" xlink:href="#mc6a8eebd41" y="85.262049"/>
     <use style="fill-opacity:0;stroke:#ff00ff;stroke-linejoin:miter;stroke-width:1.5;" x="380.514816" xlink:href="#mc6a8eebd41" y="293.10336"/>
    </g>
   </g>
   <g id="line2d_44">
    <path d="M 360.8064 6.912 
L 380.514816 152.928 
" style="fill:none;stroke:#ff7500;stroke-linecap:square;stroke-width:1.5;"/>
    <g>
     <use style="fill-opacity:0;stroke:#ff7500;stroke-linejoin:bevel;stroke-width:1.5;" x="360.8064" xlink:href="#m102ca5cd5e" y="6.912"/>
     <use style="fill-opacity:0;stroke:#ff7500;stroke-linejoin:bevel;stroke-width:1.5;" x="380.514816" xlink:href="#m102ca5cd5e" y="152.928"/>
    </g>
   </g>
   <g id="line2d_45">
    <path d="M 360.8064 6.912 
L 380.514816 12.75264 
" style="fill:none;stroke:#000080;stroke-linecap:square;stroke-width:1.5;"/>
    <g>
     <use style="fill-opacity:0;stroke:#000080;stroke-width:1.5;" x="360.8064" xlink:href="#m20dfec7463" y="6.912"/>
     <use style="fill-opacity:0;stroke:#000080;stroke-width:1.5;" x="380.514816" xlink:href="#m20dfec7463" y="12.75264"/>
    </g>
   </g>
   <g id="line2d_46">
    <path d="M 360.8064 298.944 
L 360.8064 6.912 
" style="fill:none;stroke:#000000;stroke-linecap:square;stroke-width:1.5;"/>
   </g>
   <g id="patch_3">
    <path d="M 57.6 298.944 
L 360.8064 298.944 
" style="fill:none;stroke:#000000;stroke-linecap:square;stroke-linejoin:miter;stroke-width:0.8;"/>
   </g>
   <g id="patch_4">
    <path d="M 57.6 6.912 
L 360.8064 6.912 
" style="fill:none;stroke:#000000;stroke-linecap:square;stroke-linejoin:miter;stroke-width:0.8;"/>
   </g>
   <g id="text_13">
    <!-- fmincon -->
    <g transform="translate(386.578944 296.966485)scale(0.14 -0.14)">
     <use xlink:href="#DejaVuSans-102"/>
     <use x="35.205078" xlink:href="#DejaVuSans-109"/>
     <use x="132.617188" xlink:href="#DejaVuSans-105"/>
     <use x="160.400391" xlink:href="#DejaVuSans-110"/>
     <use x="223.779297" xlink:href="#DejaVuSans-99"/>
     <use x="278.759766" xlink:href="#DejaVuSans-111"/>
     <use x="339.941406" xlink:href="#DejaVuSans-110"/>
    </g>
   </g>
   <g id="text_14">
    <!-- slsqp -->
    <g transform="translate(386.578944 156.791125)scale(0.14 -0.14)">
     <defs>
      <path d="M 14.796875 27.296875 
Q 14.796875 17.390625 18.875 11.75 
Q 22.953125 6.109375 30.078125 6.109375 
Q 37.203125 6.109375 41.296875 11.75 
Q 45.40625 17.390625 45.40625 27.296875 
Q 45.40625 37.203125 41.296875 42.84375 
Q 37.203125 48.484375 30.078125 48.484375 
Q 22.953125 48.484375 18.875 42.84375 
Q 14.796875 37.203125 14.796875 27.296875 
z
M 45.40625 8.203125 
Q 42.578125 3.328125 38.25 0.953125 
Q 33.9375 -1.421875 27.875 -1.421875 
Q 17.96875 -1.421875 11.734375 6.484375 
Q 5.515625 14.40625 5.515625 27.296875 
Q 5.515625 40.1875 11.734375 48.09375 
Q 17.96875 56 27.875 56 
Q 33.9375 56 38.25 53.625 
Q 42.578125 51.265625 45.40625 46.390625 
L 45.40625 54.6875 
L 54.390625 54.6875 
L 54.390625 -20.796875 
L 45.40625 -20.796875 
z
" id="DejaVuSans-113"/>
     </defs>
     <use xlink:href="#DejaVuSans-115"/>
     <use x="52.099609" xlink:href="#DejaVuSans-108"/>
     <use x="79.882812" xlink:href="#DejaVuSans-115"/>
     <use x="131.982422" xlink:href="#DejaVuSans-113"/>
     <use x="195.458984" xlink:href="#DejaVuSans-112"/>
    </g>
   </g>
   <g id="text_15">
    <!-- cobyla -->
    <g transform="translate(386.578944 16.615765)scale(0.14 -0.14)">
     <defs>
      <path d="M 48.6875 27.296875 
Q 48.6875 37.203125 44.609375 42.84375 
Q 40.53125 48.484375 33.40625 48.484375 
Q 26.265625 48.484375 22.1875 42.84375 
Q 18.109375 37.203125 18.109375 27.296875 
Q 18.109375 17.390625 22.1875 11.75 
Q 26.265625 6.109375 33.40625 6.109375 
Q 40.53125 6.109375 44.609375 11.75 
Q 48.6875 17.390625 48.6875 27.296875 
z
M 18.109375 46.390625 
Q 20.953125 51.265625 25.265625 53.625 
Q 29.59375 56 35.59375 56 
Q 45.5625 56 51.78125 48.09375 
Q 58.015625 40.1875 58.015625 27.296875 
Q 58.015625 14.40625 51.78125 6.484375 
Q 45.5625 -1.421875 35.59375 -1.421875 
Q 29.59375 -1.421875 25.265625 0.953125 
Q 20.953125 3.328125 18.109375 8.203125 
L 18.109375 0 
L 9.078125 0 
L 9.078125 75.984375 
L 18.109375 75.984375 
z
" id="DejaVuSans-98"/>
      <path d="M 32.171875 -5.078125 
Q 28.375 -14.84375 24.75 -17.8125 
Q 21.140625 -20.796875 15.09375 -20.796875 
L 7.90625 -20.796875 
L 7.90625 -13.28125 
L 13.1875 -13.28125 
Q 16.890625 -13.28125 18.9375 -11.515625 
Q 21 -9.765625 23.484375 -3.21875 
L 25.09375 0.875 
L 2.984375 54.6875 
L 12.5 54.6875 
L 29.59375 11.921875 
L 46.6875 54.6875 
L 56.203125 54.6875 
z
" id="DejaVuSans-121"/>
     </defs>
     <use xlink:href="#DejaVuSans-99"/>
     <use x="54.980469" xlink:href="#DejaVuSans-111"/>
     <use x="116.162109" xlink:href="#DejaVuSans-98"/>
     <use x="179.638672" xlink:href="#DejaVuSans-121"/>
     <use x="238.818359" xlink:href="#DejaVuSans-108"/>
     <use x="266.601562" xlink:href="#DejaVuSans-97"/>
    </g>
   </g>
   <g id="text_16">
    <!-- bbob-constrained f24, f30, f36, f42, 20-D -->
    <g transform="translate(60.632064 17.582726)scale(0.102 -0.102)">
     <defs>
      <path d="M 4.890625 31.390625 
L 31.203125 31.390625 
L 31.203125 23.390625 
L 4.890625 23.390625 
z
" id="DejaVuSans-45"/>
      <path d="M 40.578125 39.3125 
Q 47.65625 37.796875 51.625 33 
Q 55.609375 28.21875 55.609375 21.1875 
Q 55.609375 10.40625 48.1875 4.484375 
Q 40.765625 -1.421875 27.09375 -1.421875 
Q 22.515625 -1.421875 17.65625 -0.515625 
Q 12.796875 0.390625 7.625 2.203125 
L 7.625 11.71875 
Q 11.71875 9.328125 16.59375 8.109375 
Q 21.484375 6.890625 26.8125 6.890625 
Q 36.078125 6.890625 40.9375 10.546875 
Q 45.796875 14.203125 45.796875 21.1875 
Q 45.796875 27.640625 41.28125 31.265625 
Q 36.765625 34.90625 28.71875 34.90625 
L 20.21875 34.90625 
L 20.21875 43.015625 
L 29.109375 43.015625 
Q 36.375 43.015625 40.234375 45.921875 
Q 44.09375 48.828125 44.09375 54.296875 
Q 44.09375 59.90625 40.109375 62.90625 
Q 36.140625 65.921875 28.71875 65.921875 
Q 24.65625 65.921875 20.015625 65.03125 
Q 15.375 64.15625 9.8125 62.3125 
L 9.8125 71.09375 
Q 15.4375 72.65625 20.34375 73.4375 
Q 25.25 74.21875 29.59375 74.21875 
Q 40.828125 74.21875 47.359375 69.109375 
Q 53.90625 64.015625 53.90625 55.328125 
Q 53.90625 49.265625 50.4375 45.09375 
Q 46.96875 40.921875 40.578125 39.3125 
z
" id="DejaVuSans-51"/>
      <path d="M 19.671875 64.796875 
L 19.671875 8.109375 
L 31.59375 8.109375 
Q 46.6875 8.109375 53.6875 14.9375 
Q 60.6875 21.78125 60.6875 36.53125 
Q 60.6875 51.171875 53.6875 57.984375 
Q 46.6875 64.796875 31.59375 64.796875 
z
M 9.8125 72.90625 
L 30.078125 72.90625 
Q 51.265625 72.90625 61.171875 64.09375 
Q 71.09375 55.28125 71.09375 36.53125 
Q 71.09375 17.671875 61.125 8.828125 
Q 51.171875 0 30.078125 0 
L 9.8125 0 
z
" id="DejaVuSans-68"/>
     </defs>
     <use xlink:href="#DejaVuSans-98"/>
     <use x="63.476562" xlink:href="#DejaVuSans-98"/>
     <use x="126.953125" xlink:href="#DejaVuSans-111"/>
     <use x="188.134766" xlink:href="#DejaVuSans-98"/>
     <use x="251.611328" xlink:href="#DejaVuSans-45"/>
     <use x="287.695312" xlink:href="#DejaVuSans-99"/>
     <use x="342.675781" xlink:href="#DejaVuSans-111"/>
     <use x="403.857422" xlink:href="#DejaVuSans-110"/>
     <use x="467.236328" xlink:href="#DejaVuSans-115"/>
     <use x="519.335938" xlink:href="#DejaVuSans-116"/>
     <use x="558.544922" xlink:href="#DejaVuSans-114"/>
     <use x="599.658203" xlink:href="#DejaVuSans-97"/>
     <use x="660.9375" xlink:href="#DejaVuSans-105"/>
     <use x="688.720703" xlink:href="#DejaVuSans-110"/>
     <use x="752.099609" xlink:href="#DejaVuSans-101"/>
     <use x="813.623047" xlink:href="#DejaVuSans-100"/>
     <use x="877.099609" xlink:href="#DejaVuSans-32"/>
     <use x="908.886719" xlink:href="#DejaVuSans-102"/>
     <use x="944.091797" xlink:href="#DejaVuSans-50"/>
     <use x="1007.714844" xlink:href="#DejaVuSans-52"/>
     <use x="1071.337891" xlink:href="#DejaVuSans-44"/>
     <use x="1103.125" xlink:href="#DejaVuSans-32"/>
     <use x="1134.912109" xlink:href="#DejaVuSans-102"/>
     <use x="1170.117188" xlink:href="#DejaVuSans-51"/>
     <use x="1233.740234" xlink:href="#DejaVuSans-48"/>
     <use x="1297.363281" xlink:href="#DejaVuSans-44"/>
     <use x="1329.150391" xlink:href="#DejaVuSans-32"/>
     <use x="1360.9375" xlink:href="#DejaVuSans-102"/>
     <use x="1396.142578" xlink:href="#DejaVuSans-51"/>
     <use x="1459.765625" xlink:href="#DejaVuSans-54"/>
     <use x="1523.388672" xlink:href="#DejaVuSans-44"/>
     <use x="1555.175781" xlink:href="#DejaVuSans-32"/>
     <use x="1586.962891" xlink:href="#DejaVuSans-102"/>
     <use x="1622.167969" xlink:href="#DejaVuSans-52"/>
     <use x="1685.791016" xlink:href="#DejaVuSans-50"/>
     <use x="1749.414062" xlink:href="#DejaVuSans-44"/>
     <use x="1781.201172" xlink:href="#DejaVuSans-32"/>
     <use x="1812.988281" xlink:href="#DejaVuSans-50"/>
     <use x="1876.611328" xlink:href="#DejaVuSans-48"/>
     <use x="1940.234375" xlink:href="#DejaVuSans-45"/>
     <use x="1976.318359" xlink:href="#DejaVuSans-68"/>
    </g>
    <!-- 41 targets: 100..1e-06 -->
    <g transform="translate(60.632064 29.004495)scale(0.102 -0.102)">
     <defs>
      <path d="M 11.71875 12.40625 
L 22.015625 12.40625 
L 22.015625 0 
L 11.71875 0 
z
M 11.71875 51.703125 
L 22.015625 51.703125 
L 22.015625 39.3125 
L 11.71875 39.3125 
z
" id="DejaVuSans-58"/>
     </defs>
     <use xlink:href="#DejaVuSans-52"/>
     <use x="63.623047" xlink:href="#DejaVuSans-49"/>
     <use x="127.246094" xlink:href="#DejaVuSans-32"/>
     <use x="159.033203" xlink:href="#DejaVuSans-116"/>
     <use x="198.242188" xlink:href="#DejaVuSans-97"/>
     <use x="259.521484" xlink:href="#DejaVuSans-114"/>
     <use x="298.884766" xlink:href="#DejaVuSans-103"/>
     <use x="362.361328" xlink:href="#DejaVuSans-101"/>
     <use x="423.884766" xlink:href="#DejaVuSans-116"/>
     <use x="463.09375" xlink:href="#DejaVuSans-115"/>
     <use x="515.193359" xlink:href="#DejaVuSans-58"/>
     <use x="548.884766" xlink:href="#DejaVuSans-32"/>
     <use x="580.671875" xlink:href="#DejaVuSans-49"/>
     <use x="644.294922" xlink:href="#DejaVuSans-48"/>
     <use x="707.917969" xlink:href="#DejaVuSans-48"/>
     <use x="771.541016" xlink:href="#DejaVuSans-46"/>
     <use x="803.328125" xlink:href="#DejaVuSans-46"/>
     <use x="835.115234" xlink:href="#DejaVuSans-49"/>
     <use x="898.738281" xlink:href="#DejaVuSans-101"/>
     <use x="960.261719" xlink:href="#DejaVuSans-45"/>
     <use x="996.345703" xlink:href="#DejaVuSans-48"/>
     <use x="1059.96875" xlink:href="#DejaVuSans-54"/>
    </g>
    <!-- evals = f-evals + g-evals -->
    <g transform="translate(60.632064 40.426264)scale(0.102 -0.102)">
     <defs>
      <path d="M 10.59375 45.40625 
L 73.1875 45.40625 
L 73.1875 37.203125 
L 10.59375 37.203125 
z
M 10.59375 25.484375 
L 73.1875 25.484375 
L 73.1875 17.1875 
L 10.59375 17.1875 
z
" id="DejaVuSans-61"/>
      <path d="M 46 62.703125 
L 46 35.5 
L 73.1875 35.5 
L 73.1875 27.203125 
L 46 27.203125 
L 46 0 
L 37.796875 0 
L 37.796875 27.203125 
L 10.59375 27.203125 
L 10.59375 35.5 
L 37.796875 35.5 
L 37.796875 62.703125 
z
" id="DejaVuSans-43"/>
     </defs>
     <use xlink:href="#DejaVuSans-101"/>
     <use x="61.523438" xlink:href="#DejaVuSans-118"/>
     <use x="120.703125" xlink:href="#DejaVuSans-97"/>
     <use x="181.982422" xlink:href="#DejaVuSans-108"/>
     <use x="209.765625" xlink:href="#DejaVuSans-115"/>
     <use x="261.865234" xlink:href="#DejaVuSans-32"/>
     <use x="293.652344" xlink:href="#DejaVuSans-61"/>
     <use x="377.441406" xlink:href="#DejaVuSans-32"/>
     <use x="409.228516" xlink:href="#DejaVuSans-102"/>
     <use x="438.933594" xlink:href="#DejaVuSans-45"/>
     <use x="475.017578" xlink:href="#DejaVuSans-101"/>
     <use x="536.541016" xlink:href="#DejaVuSans-118"/>
     <use x="595.720703" xlink:href="#DejaVuSans-97"/>
     <use x="657" xlink:href="#DejaVuSans-108"/>
     <use x="684.783203" xlink:href="#DejaVuSans-115"/>
     <use x="736.882812" xlink:href="#DejaVuSans-32"/>
     <use x="768.669922" xlink:href="#DejaVuSans-43"/>
     <use x="852.458984" xlink:href="#DejaVuSans-32"/>
     <use x="884.246094" xlink:href="#DejaVuSans-103"/>
     <use x="947.722656" xlink:href="#DejaVuSans-45"/>
     <use x="983.806641" xlink:href="#DejaVuSans-101"/>
     <use x="1045.330078" xlink:href="#DejaVuSans-118"/>
     <use x="1104.509766" xlink:href="#DejaVuSans-97"/>
     <use x="1165.789062" xlink:href="#DejaVuSans-108"/>
     <use x="1193.572266" xlink:href="#DejaVuSans-115"/>
    </g>
    <!-- 15 instances -->
    <g transform="translate(60.632064 51.848032)scale(0.102 -0.102)">
     <defs>
      <path d="M 10.796875 72.90625 
L 49.515625 72.90625 
L 49.515625 64.59375 
L 19.828125 64.59375 
L 19.828125 46.734375 
Q 21.96875 47.46875 24.109375 47.828125 
Q 26.265625 48.1875 28.421875 48.1875 
Q 40.625 48.1875 47.75 41.5 
Q 54.890625 34.8125 54.890625 23.390625 
Q 54.890625 11.625 47.5625 5.09375 
Q 40.234375 -1.421875 26.90625 -1.421875 
Q 22.3125 -1.421875 17.546875 -0.640625 
Q 12.796875 0.140625 7.71875 1.703125 
L 7.71875 11.625 
Q 12.109375 9.234375 16.796875 8.0625 
Q 21.484375 6.890625 26.703125 6.890625 
Q 35.15625 6.890625 40.078125 11.328125 
Q 45.015625 15.765625 45.015625 23.390625 
Q 45.015625 31 40.078125 35.4375 
Q 35.15625 39.890625 26.703125 39.890625 
Q 22.75 39.890625 18.8125 39.015625 
Q 14.890625 38.140625 10.796875 36.28125 
z
" id="DejaVuSans-53"/>
     </defs>
     <use xlink:href="#DejaVuSans-49"/>
     <use x="63.623047" xlink:href="#DejaVuSans-53"/>
     <use x="127.246094" xlink:href="#DejaVuSans-32"/>
     <use x="159.033203" xlink:href="#DejaVuSans-105"/>
     <use x="186.816406" xlink:href="#DejaVuSans-110"/>
     <use x="250.195312" xlink:href="#DejaVuSans-115"/>
     <use x="302.294922" xlink:href="#DejaVuSans-116"/>
     <use x="341.503906" xlink:href="#DejaVuSans-97"/>
     <use x="402.783203" xlink:href="#DejaVuSans-110"/>
     <use x="466.162109" xlink:href="#DejaVuSans-99"/>
     <use x="521.142578" xlink:href="#DejaVuSans-101"/>
     <use x="582.666016" xlink:href="#DejaVuSans-115"/>
    </g>
   </g>
   <g id="text_17">
    <!-- v2.4.159 -->
    <g style="fill:#808080;" transform="translate(187.15945 293.943992)scale(0.1 -0.1)">
     <defs>
      <path d="M 10.984375 1.515625 
L 10.984375 10.5 
Q 14.703125 8.734375 18.5 7.8125 
Q 22.3125 6.890625 25.984375 6.890625 
Q 35.75 6.890625 40.890625 13.453125 
Q 46.046875 20.015625 46.78125 33.40625 
Q 43.953125 29.203125 39.59375 26.953125 
Q 35.25 24.703125 29.984375 24.703125 
Q 19.046875 24.703125 12.671875 31.3125 
Q 6.296875 37.9375 6.296875 49.421875 
Q 6.296875 60.640625 12.9375 67.421875 
Q 19.578125 74.21875 30.609375 74.21875 
Q 43.265625 74.21875 49.921875 64.515625 
Q 56.59375 54.828125 56.59375 36.375 
Q 56.59375 19.140625 48.40625 8.859375 
Q 40.234375 -1.421875 26.421875 -1.421875 
Q 22.703125 -1.421875 18.890625 -0.6875 
Q 15.09375 0.046875 10.984375 1.515625 
z
M 30.609375 32.421875 
Q 37.25 32.421875 41.125 36.953125 
Q 45.015625 41.5 45.015625 49.421875 
Q 45.015625 57.28125 41.125 61.84375 
Q 37.25 66.40625 30.609375 66.40625 
Q 23.96875 66.40625 20.09375 61.84375 
Q 16.21875 57.28125 16.21875 49.421875 
Q 16.21875 41.5 20.09375 36.953125 
Q 23.96875 32.421875 30.609375 32.421875 
z
" id="DejaVuSans-57"/>
     </defs>
     <use xlink:href="#DejaVuSans-118"/>
     <use x="59.179688" xlink:href="#DejaVuSans-50"/>
     <use x="122.802734" xlink:href="#DejaVuSans-46"/>
     <use x="154.589844" xlink:href="#DejaVuSans-52"/>
     <use x="218.212891" xlink:href="#DejaVuSans-46"/>
     <use x="250" xlink:href="#DejaVuSans-49"/>
     <use x="313.623047" xlink:href="#DejaVuSans-53"/>
     <use x="377.246094" xlink:href="#DejaVuSans-57"/>
    </g>
   </g>
  </g>
 </g>
 <defs>
  <clipPath id="p4f0d339df3">
   <rect height="292.032" width="303.2064" x="57.6" y="6.912"/>
  </clipPath>
 </defs>
</svg>
