<?xml version="1.0" encoding="utf-8" standalone="no"?>
<!DOCTYPE svg PUBLIC "-//W3C//DTD SVG 1.1//EN"
  "http://www.w3.org/Graphics/SVG/1.1/DTD/svg11.dtd">
<!-- Created with matplotlib (https://matplotlib.org/) -->
<svg height="345.6pt" version="1.1" viewBox="0 0 460.8 345.6" width="460.8pt" xmlns="http://www.w3.org/2000/svg" xmlns:xlink="http://www.w3.org/1999/xlink">
 <metadata>
  <rdf:RDF xmlns:cc="http://creativecommons.org/ns#" xmlns:dc="http://purl.org/dc/elements/1.1/" xmlns:rdf="http://www.w3.org/1999/02/22-rdf-syntax-ns#">
   <cc:Work>
    <dc:type rdf:resource="http://purl.org/dc/dcmitype/StillImage"/>
    <dc:date>2022-02-09T10:00:00.922830</dc:date>
    <dc:format>image/svg+xml</dc:format>
    <dc:creator>
     <cc:Agent>
      <dc:title>Matplotlib v3.3.3, https://matplotlib.org/</dc:title>
     </cc:Agent>
    </dc:creator>
   </cc:Work>
  </rdf:RDF>
 </metadata>
 <defs>
  <style type="text/css">*{stroke-linecap:butt;stroke-linejoin:round;}</style>
 </defs>
 <g id="figure_1">
  <g id="patch_1">
   <path d="M 0 345.6 
L 460.8 345.6 
L 460.8 0 
L 0 0 
z
" style="fill:#ffffff;"/>
  </g>
  <g id="axes_1">
   <g id="patch_2">
    <path d="M 57.6 298.944 
L 360.8064 298.944 
L 360.8064 6.912 
L 57.6 6.912 
z
" style="fill:#ffffff;"/>
   </g>
   <g id="matplotlib.axis_1">
    <g id="xtick_1">
     <g id="line2d_1">
      <path clip-path="url(#pac6208cb90)" d="M 57.6 298.944 
L 57.6 6.912 
" style="fill:none;stroke:#b0b0b0;stroke-linecap:square;stroke-width:0.8;"/>
     </g>
     <g id="line2d_2">
      <defs>
       <path d="M 0 0 
L 0 3.5 
" id="m632b60754f" style="stroke:#000000;stroke-width:0.8;"/>
      </defs>
      <g>
       <use style="stroke:#000000;stroke-width:0.8;" x="57.6" xlink:href="#m632b60754f" y="298.944"/>
      </g>
     </g>
     <g id="text_1">
      <!-- 0 -->
      <g transform="translate(52.191875 318.861344)scale(0.17 -0.17)">
       <defs>
        <path d="M 31.78125 66.40625 
Q 24.171875 66.40625 20.328125 58.90625 
Q 16.5 51.421875 16.5 36.375 
Q 16.5 21.390625 20.328125 13.890625 
Q 24.171875 6.390625 31.78125 6.390625 
Q 39.453125 6.390625 43.28125 13.890625 
Q 47.125 21.390625 47.125 36.375 
Q 47.125 51.421875 43.28125 58.90625 
Q 39.453125 66.40625 31.78125 66.40625 
z
M 31.78125 74.21875 
Q 44.046875 74.21875 50.515625 64.515625 
Q 56.984375 54.828125 56.984375 36.375 
Q 56.984375 17.96875 50.515625 8.265625 
Q 44.046875 -1.421875 31.78125 -1.421875 
Q 19.53125 -1.421875 13.0625 8.265625 
Q 6.59375 17.96875 6.59375 36.375 
Q 6.59375 54.828125 13.0625 64.515625 
Q 19.53125 74.21875 31.78125 74.21875 
z
" id="DejaVuSans-48"/>
       </defs>
       <use xlink:href="#DejaVuSans-48"/>
      </g>
     </g>
    </g>
    <g id="xtick_2">
     <g id="line2d_3">
      <path clip-path="url(#pac6208cb90)" d="M 144.2304 298.944 
L 144.2304 6.912 
" style="fill:none;stroke:#b0b0b0;stroke-linecap:square;stroke-width:0.8;"/>
     </g>
     <g id="line2d_4">
      <g>
       <use style="stroke:#000000;stroke-width:0.8;" x="144.2304" xlink:href="#m632b60754f" y="298.944"/>
      </g>
     </g>
     <g id="text_2">
      <!-- 2 -->
      <g transform="translate(138.822275 318.861344)scale(0.17 -0.17)">
       <defs>
        <path d="M 19.1875 8.296875 
L 53.609375 8.296875 
L 53.609375 0 
L 7.328125 0 
L 7.328125 8.296875 
Q 12.9375 14.109375 22.625 23.890625 
Q 32.328125 33.6875 34.8125 36.53125 
Q 39.546875 41.84375 41.421875 45.53125 
Q 43.3125 49.21875 43.3125 52.78125 
Q 43.3125 58.59375 39.234375 62.25 
Q 35.15625 65.921875 28.609375 65.921875 
Q 23.96875 65.921875 18.8125 64.3125 
Q 13.671875 62.703125 7.8125 59.421875 
L 7.8125 69.390625 
Q 13.765625 71.78125 18.9375 73 
Q 24.125 74.21875 28.421875 74.21875 
Q 39.75 74.21875 46.484375 68.546875 
Q 53.21875 62.890625 53.21875 53.421875 
Q 53.21875 48.921875 51.53125 44.890625 
Q 49.859375 40.875 45.40625 35.40625 
Q 44.1875 33.984375 37.640625 27.21875 
Q 31.109375 20.453125 19.1875 8.296875 
z
" id="DejaVuSans-50"/>
       </defs>
       <use xlink:href="#DejaVuSans-50"/>
      </g>
     </g>
    </g>
    <g id="xtick_3">
     <g id="line2d_5">
      <path clip-path="url(#pac6208cb90)" d="M 230.8608 298.944 
L 230.8608 6.912 
" style="fill:none;stroke:#b0b0b0;stroke-linecap:square;stroke-width:0.8;"/>
     </g>
     <g id="line2d_6">
      <g>
       <use style="stroke:#000000;stroke-width:0.8;" x="230.8608" xlink:href="#m632b60754f" y="298.944"/>
      </g>
     </g>
     <g id="text_3">
      <!-- 4 -->
      <g transform="translate(225.452675 318.861344)scale(0.17 -0.17)">
       <defs>
        <path d="M 37.796875 64.3125 
L 12.890625 25.390625 
L 37.796875 25.390625 
z
M 35.203125 72.90625 
L 47.609375 72.90625 
L 47.609375 25.390625 
L 58.015625 25.390625 
L 58.015625 17.1875 
L 47.609375 17.1875 
L 47.609375 0 
L 37.796875 0 
L 37.796875 17.1875 
L 4.890625 17.1875 
L 4.890625 26.703125 
z
" id="DejaVuSans-52"/>
       </defs>
       <use xlink:href="#DejaVuSans-52"/>
      </g>
     </g>
    </g>
    <g id="xtick_4">
     <g id="line2d_7">
      <path clip-path="url(#pac6208cb90)" d="M 317.4912 298.944 
L 317.4912 6.912 
" style="fill:none;stroke:#b0b0b0;stroke-linecap:square;stroke-width:0.8;"/>
     </g>
     <g id="line2d_8">
      <g>
       <use style="stroke:#000000;stroke-width:0.8;" x="317.4912" xlink:href="#m632b60754f" y="298.944"/>
      </g>
     </g>
     <g id="text_4">
      <!-- 6 -->
      <g transform="translate(312.083075 318.861344)scale(0.17 -0.17)">
       <defs>
        <path d="M 33.015625 40.375 
Q 26.375 40.375 22.484375 35.828125 
Q 18.609375 31.296875 18.609375 23.390625 
Q 18.609375 15.53125 22.484375 10.953125 
Q 26.375 6.390625 33.015625 6.390625 
Q 39.65625 6.390625 43.53125 10.953125 
Q 47.40625 15.53125 47.40625 23.390625 
Q 47.40625 31.296875 43.53125 35.828125 
Q 39.65625 40.375 33.015625 40.375 
z
M 52.59375 71.296875 
L 52.59375 62.3125 
Q 48.875 64.0625 45.09375 64.984375 
Q 41.3125 65.921875 37.59375 65.921875 
Q 27.828125 65.921875 22.671875 59.328125 
Q 17.53125 52.734375 16.796875 39.40625 
Q 19.671875 43.65625 24.015625 45.921875 
Q 28.375 48.1875 33.59375 48.1875 
Q 44.578125 48.1875 50.953125 41.515625 
Q 57.328125 34.859375 57.328125 23.390625 
Q 57.328125 12.15625 50.6875 5.359375 
Q 44.046875 -1.421875 33.015625 -1.421875 
Q 20.359375 -1.421875 13.671875 8.265625 
Q 6.984375 17.96875 6.984375 36.375 
Q 6.984375 53.65625 15.1875 63.9375 
Q 23.390625 74.21875 37.203125 74.21875 
Q 40.921875 74.21875 44.703125 73.484375 
Q 48.484375 72.75 52.59375 71.296875 
z
" id="DejaVuSans-54"/>
       </defs>
       <use xlink:href="#DejaVuSans-54"/>
      </g>
     </g>
    </g>
    <g id="xtick_5">
     <g id="line2d_9">
      <path clip-path="url(#pac6208cb90)" d="M 100.9152 298.944 
L 100.9152 6.912 
" style="fill:none;stroke:#b0b0b0;stroke-linecap:square;stroke-width:0.8;"/>
     </g>
     <g id="line2d_10">
      <defs>
       <path d="M 0 0 
L 0 2 
" id="m3e6c21978d" style="stroke:#000000;stroke-width:0.6;"/>
      </defs>
      <g>
       <use style="stroke:#000000;stroke-width:0.6;" x="100.9152" xlink:href="#m3e6c21978d" y="298.944"/>
      </g>
     </g>
    </g>
    <g id="xtick_6">
     <g id="line2d_11">
      <path clip-path="url(#pac6208cb90)" d="M 187.5456 298.944 
L 187.5456 6.912 
" style="fill:none;stroke:#b0b0b0;stroke-linecap:square;stroke-width:0.8;"/>
     </g>
     <g id="line2d_12">
      <g>
       <use style="stroke:#000000;stroke-width:0.6;" x="187.5456" xlink:href="#m3e6c21978d" y="298.944"/>
      </g>
     </g>
    </g>
    <g id="xtick_7">
     <g id="line2d_13">
      <path clip-path="url(#pac6208cb90)" d="M 274.176 298.944 
L 274.176 6.912 
" style="fill:none;stroke:#b0b0b0;stroke-linecap:square;stroke-width:0.8;"/>
     </g>
     <g id="line2d_14">
      <g>
       <use style="stroke:#000000;stroke-width:0.6;" x="274.176" xlink:href="#m3e6c21978d" y="298.944"/>
      </g>
     </g>
    </g>
    <g id="xtick_8">
     <g id="line2d_15">
      <path clip-path="url(#pac6208cb90)" d="M 360.8064 298.944 
L 360.8064 6.912 
" style="fill:none;stroke:#b0b0b0;stroke-linecap:square;stroke-width:0.8;"/>
     </g>
     <g id="line2d_16">
      <g>
       <use style="stroke:#000000;stroke-width:0.6;" x="360.8064" xlink:href="#m3e6c21978d" y="298.944"/>
      </g>
     </g>
    </g>
    <g id="text_5">
     <!-- log10(evals / dimension) -->
     <g transform="translate(104.238825 339.314156)scale(0.17 -0.17)">
      <defs>
       <path d="M 9.421875 75.984375 
L 18.40625 75.984375 
L 18.40625 0 
L 9.421875 0 
z
" id="DejaVuSans-108"/>
       <path d="M 30.609375 48.390625 
Q 23.390625 48.390625 19.1875 42.75 
Q 14.984375 37.109375 14.984375 27.296875 
Q 14.984375 17.484375 19.15625 11.84375 
Q 23.34375 6.203125 30.609375 6.203125 
Q 37.796875 6.203125 41.984375 11.859375 
Q 46.1875 17.53125 46.1875 27.296875 
Q 46.1875 37.015625 41.984375 42.703125 
Q 37.796875 48.390625 30.609375 48.390625 
z
M 30.609375 56 
Q 42.328125 56 49.015625 48.375 
Q 55.71875 40.765625 55.71875 27.296875 
Q 55.71875 13.875 49.015625 6.21875 
Q 42.328125 -1.421875 30.609375 -1.421875 
Q 18.84375 -1.421875 12.171875 6.21875 
Q 5.515625 13.875 5.515625 27.296875 
Q 5.515625 40.765625 12.171875 48.375 
Q 18.84375 56 30.609375 56 
z
" id="DejaVuSans-111"/>
       <path d="M 45.40625 27.984375 
Q 45.40625 37.75 41.375 43.109375 
Q 37.359375 48.484375 30.078125 48.484375 
Q 22.859375 48.484375 18.828125 43.109375 
Q 14.796875 37.75 14.796875 27.984375 
Q 14.796875 18.265625 18.828125 12.890625 
Q 22.859375 7.515625 30.078125 7.515625 
Q 37.359375 7.515625 41.375 12.890625 
Q 45.40625 18.265625 45.40625 27.984375 
z
M 54.390625 6.78125 
Q 54.390625 -7.171875 48.1875 -13.984375 
Q 42 -20.796875 29.203125 -20.796875 
Q 24.46875 -20.796875 20.265625 -20.09375 
Q 16.0625 -19.390625 12.109375 -17.921875 
L 12.109375 -9.1875 
Q 16.0625 -11.328125 19.921875 -12.34375 
Q 23.78125 -13.375 27.78125 -13.375 
Q 36.625 -13.375 41.015625 -8.765625 
Q 45.40625 -4.15625 45.40625 5.171875 
L 45.40625 9.625 
Q 42.625 4.78125 38.28125 2.390625 
Q 33.9375 0 27.875 0 
Q 17.828125 0 11.671875 7.65625 
Q 5.515625 15.328125 5.515625 27.984375 
Q 5.515625 40.671875 11.671875 48.328125 
Q 17.828125 56 27.875 56 
Q 33.9375 56 38.28125 53.609375 
Q 42.625 51.21875 45.40625 46.390625 
L 45.40625 54.6875 
L 54.390625 54.6875 
z
" id="DejaVuSans-103"/>
       <path d="M 12.40625 8.296875 
L 28.515625 8.296875 
L 28.515625 63.921875 
L 10.984375 60.40625 
L 10.984375 69.390625 
L 28.421875 72.90625 
L 38.28125 72.90625 
L 38.28125 8.296875 
L 54.390625 8.296875 
L 54.390625 0 
L 12.40625 0 
z
" id="DejaVuSans-49"/>
       <path d="M 31 75.875 
Q 24.46875 64.65625 21.28125 53.65625 
Q 18.109375 42.671875 18.109375 31.390625 
Q 18.109375 20.125 21.3125 9.0625 
Q 24.515625 -2 31 -13.1875 
L 23.1875 -13.1875 
Q 15.875 -1.703125 12.234375 9.375 
Q 8.59375 20.453125 8.59375 31.390625 
Q 8.59375 42.28125 12.203125 53.3125 
Q 15.828125 64.359375 23.1875 75.875 
z
" id="DejaVuSans-40"/>
       <path d="M 56.203125 29.59375 
L 56.203125 25.203125 
L 14.890625 25.203125 
Q 15.484375 15.921875 20.484375 11.0625 
Q 25.484375 6.203125 34.421875 6.203125 
Q 39.59375 6.203125 44.453125 7.46875 
Q 49.3125 8.734375 54.109375 11.28125 
L 54.109375 2.78125 
Q 49.265625 0.734375 44.1875 -0.34375 
Q 39.109375 -1.421875 33.890625 -1.421875 
Q 20.796875 -1.421875 13.15625 6.1875 
Q 5.515625 13.8125 5.515625 26.8125 
Q 5.515625 40.234375 12.765625 48.109375 
Q 20.015625 56 32.328125 56 
Q 43.359375 56 49.78125 48.890625 
Q 56.203125 41.796875 56.203125 29.59375 
z
M 47.21875 32.234375 
Q 47.125 39.59375 43.09375 43.984375 
Q 39.0625 48.390625 32.421875 48.390625 
Q 24.90625 48.390625 20.390625 44.140625 
Q 15.875 39.890625 15.1875 32.171875 
z
" id="DejaVuSans-101"/>
       <path d="M 2.984375 54.6875 
L 12.5 54.6875 
L 29.59375 8.796875 
L 46.6875 54.6875 
L 56.203125 54.6875 
L 35.6875 0 
L 23.484375 0 
z
" id="DejaVuSans-118"/>
       <path d="M 34.28125 27.484375 
Q 23.390625 27.484375 19.1875 25 
Q 14.984375 22.515625 14.984375 16.5 
Q 14.984375 11.71875 18.140625 8.90625 
Q 21.296875 6.109375 26.703125 6.109375 
Q 34.1875 6.109375 38.703125 11.40625 
Q 43.21875 16.703125 43.21875 25.484375 
L 43.21875 27.484375 
z
M 52.203125 31.203125 
L 52.203125 0 
L 43.21875 0 
L 43.21875 8.296875 
Q 40.140625 3.328125 35.546875 0.953125 
Q 30.953125 -1.421875 24.3125 -1.421875 
Q 15.921875 -1.421875 10.953125 3.296875 
Q 6 8.015625 6 15.921875 
Q 6 25.140625 12.171875 29.828125 
Q 18.359375 34.515625 30.609375 34.515625 
L 43.21875 34.515625 
L 43.21875 35.40625 
Q 43.21875 41.609375 39.140625 45 
Q 35.0625 48.390625 27.6875 48.390625 
Q 23 48.390625 18.546875 47.265625 
Q 14.109375 46.140625 10.015625 43.890625 
L 10.015625 52.203125 
Q 14.9375 54.109375 19.578125 55.046875 
Q 24.21875 56 28.609375 56 
Q 40.484375 56 46.34375 49.84375 
Q 52.203125 43.703125 52.203125 31.203125 
z
" id="DejaVuSans-97"/>
       <path d="M 44.28125 53.078125 
L 44.28125 44.578125 
Q 40.484375 46.53125 36.375 47.5 
Q 32.28125 48.484375 27.875 48.484375 
Q 21.1875 48.484375 17.84375 46.4375 
Q 14.5 44.390625 14.5 40.28125 
Q 14.5 37.15625 16.890625 35.375 
Q 19.28125 33.59375 26.515625 31.984375 
L 29.59375 31.296875 
Q 39.15625 29.25 43.1875 25.515625 
Q 47.21875 21.78125 47.21875 15.09375 
Q 47.21875 7.46875 41.1875 3.015625 
Q 35.15625 -1.421875 24.609375 -1.421875 
Q 20.21875 -1.421875 15.453125 -0.5625 
Q 10.6875 0.296875 5.421875 2 
L 5.421875 11.28125 
Q 10.40625 8.6875 15.234375 7.390625 
Q 20.0625 6.109375 24.8125 6.109375 
Q 31.15625 6.109375 34.5625 8.28125 
Q 37.984375 10.453125 37.984375 14.40625 
Q 37.984375 18.0625 35.515625 20.015625 
Q 33.0625 21.96875 24.703125 23.78125 
L 21.578125 24.515625 
Q 13.234375 26.265625 9.515625 29.90625 
Q 5.8125 33.546875 5.8125 39.890625 
Q 5.8125 47.609375 11.28125 51.796875 
Q 16.75 56 26.8125 56 
Q 31.78125 56 36.171875 55.265625 
Q 40.578125 54.546875 44.28125 53.078125 
z
" id="DejaVuSans-115"/>
       <path id="DejaVuSans-32"/>
       <path d="M 25.390625 72.90625 
L 33.6875 72.90625 
L 8.296875 -9.28125 
L 0 -9.28125 
z
" id="DejaVuSans-47"/>
       <path d="M 45.40625 46.390625 
L 45.40625 75.984375 
L 54.390625 75.984375 
L 54.390625 0 
L 45.40625 0 
L 45.40625 8.203125 
Q 42.578125 3.328125 38.25 0.953125 
Q 33.9375 -1.421875 27.875 -1.421875 
Q 17.96875 -1.421875 11.734375 6.484375 
Q 5.515625 14.40625 5.515625 27.296875 
Q 5.515625 40.1875 11.734375 48.09375 
Q 17.96875 56 27.875 56 
Q 33.9375 56 38.25 53.625 
Q 42.578125 51.265625 45.40625 46.390625 
z
M 14.796875 27.296875 
Q 14.796875 17.390625 18.875 11.75 
Q 22.953125 6.109375 30.078125 6.109375 
Q 37.203125 6.109375 41.296875 11.75 
Q 45.40625 17.390625 45.40625 27.296875 
Q 45.40625 37.203125 41.296875 42.84375 
Q 37.203125 48.484375 30.078125 48.484375 
Q 22.953125 48.484375 18.875 42.84375 
Q 14.796875 37.203125 14.796875 27.296875 
z
" id="DejaVuSans-100"/>
       <path d="M 9.421875 54.6875 
L 18.40625 54.6875 
L 18.40625 0 
L 9.421875 0 
z
M 9.421875 75.984375 
L 18.40625 75.984375 
L 18.40625 64.59375 
L 9.421875 64.59375 
z
" id="DejaVuSans-105"/>
       <path d="M 52 44.1875 
Q 55.375 50.25 60.0625 53.125 
Q 64.75 56 71.09375 56 
Q 79.640625 56 84.28125 50.015625 
Q 88.921875 44.046875 88.921875 33.015625 
L 88.921875 0 
L 79.890625 0 
L 79.890625 32.71875 
Q 79.890625 40.578125 77.09375 44.375 
Q 74.3125 48.1875 68.609375 48.1875 
Q 61.625 48.1875 57.5625 43.546875 
Q 53.515625 38.921875 53.515625 30.90625 
L 53.515625 0 
L 44.484375 0 
L 44.484375 32.71875 
Q 44.484375 40.625 41.703125 44.40625 
Q 38.921875 48.1875 33.109375 48.1875 
Q 26.21875 48.1875 22.15625 43.53125 
Q 18.109375 38.875 18.109375 30.90625 
L 18.109375 0 
L 9.078125 0 
L 9.078125 54.6875 
L 18.109375 54.6875 
L 18.109375 46.1875 
Q 21.1875 51.21875 25.484375 53.609375 
Q 29.78125 56 35.6875 56 
Q 41.65625 56 45.828125 52.96875 
Q 50 49.953125 52 44.1875 
z
" id="DejaVuSans-109"/>
       <path d="M 54.890625 33.015625 
L 54.890625 0 
L 45.90625 0 
L 45.90625 32.71875 
Q 45.90625 40.484375 42.875 44.328125 
Q 39.84375 48.1875 33.796875 48.1875 
Q 26.515625 48.1875 22.3125 43.546875 
Q 18.109375 38.921875 18.109375 30.90625 
L 18.109375 0 
L 9.078125 0 
L 9.078125 54.6875 
L 18.109375 54.6875 
L 18.109375 46.1875 
Q 21.34375 51.125 25.703125 53.5625 
Q 30.078125 56 35.796875 56 
Q 45.21875 56 50.046875 50.171875 
Q 54.890625 44.34375 54.890625 33.015625 
z
" id="DejaVuSans-110"/>
       <path d="M 8.015625 75.875 
L 15.828125 75.875 
Q 23.140625 64.359375 26.78125 53.3125 
Q 30.421875 42.28125 30.421875 31.390625 
Q 30.421875 20.453125 26.78125 9.375 
Q 23.140625 -1.703125 15.828125 -13.1875 
L 8.015625 -13.1875 
Q 14.5 -2 17.703125 9.0625 
Q 20.90625 20.125 20.90625 31.390625 
Q 20.90625 42.671875 17.703125 53.65625 
Q 14.5 64.65625 8.015625 75.875 
z
" id="DejaVuSans-41"/>
      </defs>
      <use xlink:href="#DejaVuSans-108"/>
      <use x="27.783203" xlink:href="#DejaVuSans-111"/>
      <use x="88.964844" xlink:href="#DejaVuSans-103"/>
      <use x="152.441406" xlink:href="#DejaVuSans-49"/>
      <use x="216.064453" xlink:href="#DejaVuSans-48"/>
      <use x="279.6875" xlink:href="#DejaVuSans-40"/>
      <use x="318.701172" xlink:href="#DejaVuSans-101"/>
      <use x="380.224609" xlink:href="#DejaVuSans-118"/>
      <use x="439.404297" xlink:href="#DejaVuSans-97"/>
      <use x="500.683594" xlink:href="#DejaVuSans-108"/>
      <use x="528.466797" xlink:href="#DejaVuSans-115"/>
      <use x="580.566406" xlink:href="#DejaVuSans-32"/>
      <use x="612.353516" xlink:href="#DejaVuSans-47"/>
      <use x="646.044922" xlink:href="#DejaVuSans-32"/>
      <use x="677.832031" xlink:href="#DejaVuSans-100"/>
      <use x="741.308594" xlink:href="#DejaVuSans-105"/>
      <use x="769.091797" xlink:href="#DejaVuSans-109"/>
      <use x="866.503906" xlink:href="#DejaVuSans-101"/>
      <use x="928.027344" xlink:href="#DejaVuSans-110"/>
      <use x="991.40625" xlink:href="#DejaVuSans-115"/>
      <use x="1043.505859" xlink:href="#DejaVuSans-105"/>
      <use x="1071.289062" xlink:href="#DejaVuSans-111"/>
      <use x="1132.470703" xlink:href="#DejaVuSans-110"/>
      <use x="1195.849609" xlink:href="#DejaVuSans-41"/>
     </g>
    </g>
   </g>
   <g id="matplotlib.axis_2">
    <g id="ytick_1">
     <g id="line2d_17">
      <path clip-path="url(#pac6208cb90)" d="M 57.6 298.944 
L 360.8064 298.944 
" style="fill:none;stroke:#b0b0b0;stroke-linecap:square;stroke-width:0.8;"/>
     </g>
     <g id="line2d_18">
      <defs>
       <path d="M 0 0 
L -3.5 0 
" id="m4c3686302e" style="stroke:#000000;stroke-width:0.8;"/>
      </defs>
      <g>
       <use style="stroke:#000000;stroke-width:0.8;" x="57.6" xlink:href="#m4c3686302e" y="298.944"/>
      </g>
     </g>
     <g id="text_6">
      <!-- 0.0 -->
      <g transform="translate(25.155 305.02275)scale(0.16 -0.16)">
       <defs>
        <path d="M 10.6875 12.40625 
L 21 12.40625 
L 21 0 
L 10.6875 0 
z
" id="DejaVuSans-46"/>
       </defs>
       <use xlink:href="#DejaVuSans-48"/>
       <use x="63.623047" xlink:href="#DejaVuSans-46"/>
       <use x="95.410156" xlink:href="#DejaVuSans-48"/>
      </g>
     </g>
    </g>
    <g id="ytick_2">
     <g id="line2d_19">
      <path clip-path="url(#pac6208cb90)" d="M 57.6 240.5376 
L 360.8064 240.5376 
" style="fill:none;stroke:#b0b0b0;stroke-linecap:square;stroke-width:0.8;"/>
     </g>
     <g id="line2d_20">
      <g>
       <use style="stroke:#000000;stroke-width:0.8;" x="57.6" xlink:href="#m4c3686302e" y="240.5376"/>
      </g>
     </g>
     <g id="text_7">
      <!-- 0.2 -->
      <g transform="translate(25.155 246.61635)scale(0.16 -0.16)">
       <use xlink:href="#DejaVuSans-48"/>
       <use x="63.623047" xlink:href="#DejaVuSans-46"/>
       <use x="95.410156" xlink:href="#DejaVuSans-50"/>
      </g>
     </g>
    </g>
    <g id="ytick_3">
     <g id="line2d_21">
      <path clip-path="url(#pac6208cb90)" d="M 57.6 182.1312 
L 360.8064 182.1312 
" style="fill:none;stroke:#b0b0b0;stroke-linecap:square;stroke-width:0.8;"/>
     </g>
     <g id="line2d_22">
      <g>
       <use style="stroke:#000000;stroke-width:0.8;" x="57.6" xlink:href="#m4c3686302e" y="182.1312"/>
      </g>
     </g>
     <g id="text_8">
      <!-- 0.4 -->
      <g transform="translate(25.155 188.20995)scale(0.16 -0.16)">
       <use xlink:href="#DejaVuSans-48"/>
       <use x="63.623047" xlink:href="#DejaVuSans-46"/>
       <use x="95.410156" xlink:href="#DejaVuSans-52"/>
      </g>
     </g>
    </g>
    <g id="ytick_4">
     <g id="line2d_23">
      <path clip-path="url(#pac6208cb90)" d="M 57.6 123.7248 
L 360.8064 123.7248 
" style="fill:none;stroke:#b0b0b0;stroke-linecap:square;stroke-width:0.8;"/>
     </g>
     <g id="line2d_24">
      <g>
       <use style="stroke:#000000;stroke-width:0.8;" x="57.6" xlink:href="#m4c3686302e" y="123.7248"/>
      </g>
     </g>
     <g id="text_9">
      <!-- 0.6 -->
      <g transform="translate(25.155 129.80355)scale(0.16 -0.16)">
       <use xlink:href="#DejaVuSans-48"/>
       <use x="63.623047" xlink:href="#DejaVuSans-46"/>
       <use x="95.410156" xlink:href="#DejaVuSans-54"/>
      </g>
     </g>
    </g>
    <g id="ytick_5">
     <g id="line2d_25">
      <path clip-path="url(#pac6208cb90)" d="M 57.6 65.3184 
L 360.8064 65.3184 
" style="fill:none;stroke:#b0b0b0;stroke-linecap:square;stroke-width:0.8;"/>
     </g>
     <g id="line2d_26">
      <g>
       <use style="stroke:#000000;stroke-width:0.8;" x="57.6" xlink:href="#m4c3686302e" y="65.3184"/>
      </g>
     </g>
     <g id="text_10">
      <!-- 0.8 -->
      <g transform="translate(25.155 71.39715)scale(0.16 -0.16)">
       <defs>
        <path d="M 31.78125 34.625 
Q 24.75 34.625 20.71875 30.859375 
Q 16.703125 27.09375 16.703125 20.515625 
Q 16.703125 13.921875 20.71875 10.15625 
Q 24.75 6.390625 31.78125 6.390625 
Q 38.8125 6.390625 42.859375 10.171875 
Q 46.921875 13.96875 46.921875 20.515625 
Q 46.921875 27.09375 42.890625 30.859375 
Q 38.875 34.625 31.78125 34.625 
z
M 21.921875 38.8125 
Q 15.578125 40.375 12.03125 44.71875 
Q 8.5 49.078125 8.5 55.328125 
Q 8.5 64.0625 14.71875 69.140625 
Q 20.953125 74.21875 31.78125 74.21875 
Q 42.671875 74.21875 48.875 69.140625 
Q 55.078125 64.0625 55.078125 55.328125 
Q 55.078125 49.078125 51.53125 44.71875 
Q 48 40.375 41.703125 38.8125 
Q 48.828125 37.15625 52.796875 32.3125 
Q 56.78125 27.484375 56.78125 20.515625 
Q 56.78125 9.90625 50.3125 4.234375 
Q 43.84375 -1.421875 31.78125 -1.421875 
Q 19.734375 -1.421875 13.25 4.234375 
Q 6.78125 9.90625 6.78125 20.515625 
Q 6.78125 27.484375 10.78125 32.3125 
Q 14.796875 37.15625 21.921875 38.8125 
z
M 18.3125 54.390625 
Q 18.3125 48.734375 21.84375 45.5625 
Q 25.390625 42.390625 31.78125 42.390625 
Q 38.140625 42.390625 41.71875 45.5625 
Q 45.3125 48.734375 45.3125 54.390625 
Q 45.3125 60.0625 41.71875 63.234375 
Q 38.140625 66.40625 31.78125 66.40625 
Q 25.390625 66.40625 21.84375 63.234375 
Q 18.3125 60.0625 18.3125 54.390625 
z
" id="DejaVuSans-56"/>
       </defs>
       <use xlink:href="#DejaVuSans-48"/>
       <use x="63.623047" xlink:href="#DejaVuSans-46"/>
       <use x="95.410156" xlink:href="#DejaVuSans-56"/>
      </g>
     </g>
    </g>
    <g id="ytick_6">
     <g id="line2d_27">
      <path clip-path="url(#pac6208cb90)" d="M 57.6 6.912 
L 360.8064 6.912 
" style="fill:none;stroke:#b0b0b0;stroke-linecap:square;stroke-width:0.8;"/>
     </g>
     <g id="line2d_28">
      <g>
       <use style="stroke:#000000;stroke-width:0.8;" x="57.6" xlink:href="#m4c3686302e" y="6.912"/>
      </g>
     </g>
     <g id="text_11">
      <!-- 1.0 -->
      <g transform="translate(25.155 12.99075)scale(0.16 -0.16)">
       <use xlink:href="#DejaVuSans-49"/>
       <use x="63.623047" xlink:href="#DejaVuSans-46"/>
       <use x="95.410156" xlink:href="#DejaVuSans-48"/>
      </g>
     </g>
    </g>
    <g id="text_12">
     <!-- Fraction of function,target pairs -->
     <g transform="translate(17.619531 287.313)rotate(-90)scale(0.17 -0.17)">
      <defs>
       <path d="M 9.8125 72.90625 
L 51.703125 72.90625 
L 51.703125 64.59375 
L 19.671875 64.59375 
L 19.671875 43.109375 
L 48.578125 43.109375 
L 48.578125 34.8125 
L 19.671875 34.8125 
L 19.671875 0 
L 9.8125 0 
z
" id="DejaVuSans-70"/>
       <path d="M 41.109375 46.296875 
Q 39.59375 47.171875 37.8125 47.578125 
Q 36.03125 48 33.890625 48 
Q 26.265625 48 22.1875 43.046875 
Q 18.109375 38.09375 18.109375 28.8125 
L 18.109375 0 
L 9.078125 0 
L 9.078125 54.6875 
L 18.109375 54.6875 
L 18.109375 46.1875 
Q 20.953125 51.171875 25.484375 53.578125 
Q 30.03125 56 36.53125 56 
Q 37.453125 56 38.578125 55.875 
Q 39.703125 55.765625 41.0625 55.515625 
z
" id="DejaVuSans-114"/>
       <path d="M 48.78125 52.59375 
L 48.78125 44.1875 
Q 44.96875 46.296875 41.140625 47.34375 
Q 37.3125 48.390625 33.40625 48.390625 
Q 24.65625 48.390625 19.8125 42.84375 
Q 14.984375 37.3125 14.984375 27.296875 
Q 14.984375 17.28125 19.8125 11.734375 
Q 24.65625 6.203125 33.40625 6.203125 
Q 37.3125 6.203125 41.140625 7.25 
Q 44.96875 8.296875 48.78125 10.40625 
L 48.78125 2.09375 
Q 45.015625 0.34375 40.984375 -0.53125 
Q 36.96875 -1.421875 32.421875 -1.421875 
Q 20.0625 -1.421875 12.78125 6.34375 
Q 5.515625 14.109375 5.515625 27.296875 
Q 5.515625 40.671875 12.859375 48.328125 
Q 20.21875 56 33.015625 56 
Q 37.15625 56 41.109375 55.140625 
Q 45.0625 54.296875 48.78125 52.59375 
z
" id="DejaVuSans-99"/>
       <path d="M 18.3125 70.21875 
L 18.3125 54.6875 
L 36.8125 54.6875 
L 36.8125 47.703125 
L 18.3125 47.703125 
L 18.3125 18.015625 
Q 18.3125 11.328125 20.140625 9.421875 
Q 21.96875 7.515625 27.59375 7.515625 
L 36.8125 7.515625 
L 36.8125 0 
L 27.59375 0 
Q 17.1875 0 13.234375 3.875 
Q 9.28125 7.765625 9.28125 18.015625 
L 9.28125 47.703125 
L 2.6875 47.703125 
L 2.6875 54.6875 
L 9.28125 54.6875 
L 9.28125 70.21875 
z
" id="DejaVuSans-116"/>
       <path d="M 37.109375 75.984375 
L 37.109375 68.5 
L 28.515625 68.5 
Q 23.6875 68.5 21.796875 66.546875 
Q 19.921875 64.59375 19.921875 59.515625 
L 19.921875 54.6875 
L 34.71875 54.6875 
L 34.71875 47.703125 
L 19.921875 47.703125 
L 19.921875 0 
L 10.890625 0 
L 10.890625 47.703125 
L 2.296875 47.703125 
L 2.296875 54.6875 
L 10.890625 54.6875 
L 10.890625 58.5 
Q 10.890625 67.625 15.140625 71.796875 
Q 19.390625 75.984375 28.609375 75.984375 
z
" id="DejaVuSans-102"/>
       <path d="M 8.5 21.578125 
L 8.5 54.6875 
L 17.484375 54.6875 
L 17.484375 21.921875 
Q 17.484375 14.15625 20.5 10.265625 
Q 23.53125 6.390625 29.59375 6.390625 
Q 36.859375 6.390625 41.078125 11.03125 
Q 45.3125 15.671875 45.3125 23.6875 
L 45.3125 54.6875 
L 54.296875 54.6875 
L 54.296875 0 
L 45.3125 0 
L 45.3125 8.40625 
Q 42.046875 3.421875 37.71875 1 
Q 33.40625 -1.421875 27.6875 -1.421875 
Q 18.265625 -1.421875 13.375 4.4375 
Q 8.5 10.296875 8.5 21.578125 
z
M 31.109375 56 
z
" id="DejaVuSans-117"/>
       <path d="M 11.71875 12.40625 
L 22.015625 12.40625 
L 22.015625 4 
L 14.015625 -11.625 
L 7.71875 -11.625 
L 11.71875 4 
z
" id="DejaVuSans-44"/>
       <path d="M 18.109375 8.203125 
L 18.109375 -20.796875 
L 9.078125 -20.796875 
L 9.078125 54.6875 
L 18.109375 54.6875 
L 18.109375 46.390625 
Q 20.953125 51.265625 25.265625 53.625 
Q 29.59375 56 35.59375 56 
Q 45.5625 56 51.78125 48.09375 
Q 58.015625 40.1875 58.015625 27.296875 
Q 58.015625 14.40625 51.78125 6.484375 
Q 45.5625 -1.421875 35.59375 -1.421875 
Q 29.59375 -1.421875 25.265625 0.953125 
Q 20.953125 3.328125 18.109375 8.203125 
z
M 48.6875 27.296875 
Q 48.6875 37.203125 44.609375 42.84375 
Q 40.53125 48.484375 33.40625 48.484375 
Q 26.265625 48.484375 22.1875 42.84375 
Q 18.109375 37.203125 18.109375 27.296875 
Q 18.109375 17.390625 22.1875 11.75 
Q 26.265625 6.109375 33.40625 6.109375 
Q 40.53125 6.109375 44.609375 11.75 
Q 48.6875 17.390625 48.6875 27.296875 
z
" id="DejaVuSans-112"/>
      </defs>
      <use xlink:href="#DejaVuSans-70"/>
      <use x="50.269531" xlink:href="#DejaVuSans-114"/>
      <use x="91.382812" xlink:href="#DejaVuSans-97"/>
      <use x="152.662109" xlink:href="#DejaVuSans-99"/>
      <use x="207.642578" xlink:href="#DejaVuSans-116"/>
      <use x="246.851562" xlink:href="#DejaVuSans-105"/>
      <use x="274.634766" xlink:href="#DejaVuSans-111"/>
      <use x="335.816406" xlink:href="#DejaVuSans-110"/>
      <use x="399.195312" xlink:href="#DejaVuSans-32"/>
      <use x="430.982422" xlink:href="#DejaVuSans-111"/>
      <use x="492.164062" xlink:href="#DejaVuSans-102"/>
      <use x="527.369141" xlink:href="#DejaVuSans-32"/>
      <use x="559.15625" xlink:href="#DejaVuSans-102"/>
      <use x="594.361328" xlink:href="#DejaVuSans-117"/>
      <use x="657.740234" xlink:href="#DejaVuSans-110"/>
      <use x="721.119141" xlink:href="#DejaVuSans-99"/>
      <use x="776.099609" xlink:href="#DejaVuSans-116"/>
      <use x="815.308594" xlink:href="#DejaVuSans-105"/>
      <use x="843.091797" xlink:href="#DejaVuSans-111"/>
      <use x="904.273438" xlink:href="#DejaVuSans-110"/>
      <use x="967.652344" xlink:href="#DejaVuSans-44"/>
      <use x="999.439453" xlink:href="#DejaVuSans-116"/>
      <use x="1038.648438" xlink:href="#DejaVuSans-97"/>
      <use x="1099.927734" xlink:href="#DejaVuSans-114"/>
      <use x="1139.291016" xlink:href="#DejaVuSans-103"/>
      <use x="1202.767578" xlink:href="#DejaVuSans-101"/>
      <use x="1264.291016" xlink:href="#DejaVuSans-116"/>
      <use x="1303.5" xlink:href="#DejaVuSans-32"/>
      <use x="1335.287109" xlink:href="#DejaVuSans-112"/>
      <use x="1398.763672" xlink:href="#DejaVuSans-97"/>
      <use x="1460.042969" xlink:href="#DejaVuSans-105"/>
      <use x="1487.826172" xlink:href="#DejaVuSans-114"/>
      <use x="1528.939453" xlink:href="#DejaVuSans-115"/>
     </g>
    </g>
   </g>
   <g id="line2d_29">
    <defs>
     <path d="M 0 1.5 
C 0.397805 1.5 0.77937 1.341951 1.06066 1.06066 
C 1.341951 0.77937 1.5 0.397805 1.5 0 
C 1.5 -0.397805 1.341951 -0.77937 1.06066 -1.06066 
C 0.77937 -1.341951 0.397805 -1.5 0 -1.5 
C -0.397805 -1.5 -0.77937 -1.341951 -1.06066 -1.06066 
C -1.341951 -0.77937 -1.5 -0.397805 -1.5 0 
C -1.5 0.397805 -1.341951 0.77937 -1.06066 1.06066 
C -0.77937 1.341951 -0.397805 1.5 0 1.5 
z
" id="mc91a9c5e7f" style="stroke:#000080;"/>
    </defs>
    <g>
     <use style="fill:#000080;stroke:#000080;" x="299.49556" xlink:href="#mc91a9c5e7f" y="171.526244"/>
     <use style="fill:#000080;stroke:#000080;" x="299.49556" xlink:href="#mc91a9c5e7f" y="171.526244"/>
    </g>
   </g>
   <g id="line2d_30">
    <path d="M 71.103681 298.944 
L 71.103681 298.732956 
L 71.999638 298.732956 
L 71.999638 278.842068 
L 72.432107 278.842068 
L 72.432107 265.810107 
L 73.672879 265.810107 
L 73.672879 265.546302 
L 74.068926 265.546302 
L 74.068926 265.38802 
L 75.93298 265.335259 
L 75.93298 265.229737 
L 76.629783 265.229737 
L 76.629783 265.071454 
L 79.480672 265.071454 
L 79.480672 264.86041 
L 80.621116 264.807649 
L 80.621116 264.702127 
L 81.166416 264.649366 
L 81.166416 264.491083 
L 81.696354 264.385561 
L 81.696354 264.3328 
L 83.202082 264.227278 
L 83.202082 264.121756 
L 84.596168 264.068995 
L 84.596168 263.963473 
L 84.818792 263.963473 
L 84.818792 263.80519 
L 86.911119 263.699668 
L 86.911119 263.541385 
L 87.303041 263.488624 
L 87.303041 263.330341 
L 87.876026 263.330341 
L 87.876026 263.119298 
L 88.063207 263.119298 
L 88.063207 262.908254 
L 88.248544 262.908254 
L 88.248544 262.749971 
L 89.323782 262.644449 
L 89.323782 262.591688 
L 89.839199 262.538927 
L 89.839199 262.380644 
L 90.175129 262.327883 
L 90.175129 262.222361 
L 90.340871 262.222361 
L 90.340871 261.958556 
L 90.668036 261.853034 
L 90.668036 261.800273 
L 90.989609 261.800273 
L 90.989609 261.536468 
L 92.073702 261.430946 
L 92.073702 261.378185 
L 92.372304 261.325424 
L 92.372304 261.219902 
L 92.666241 261.219902 
L 92.666241 260.903337 
L 93.098709 260.797815 
L 93.098709 260.745054 
L 93.521459 260.639532 
L 93.521459 260.53401 
L 93.66029 260.53401 
L 93.66029 260.375727 
L 93.934916 260.322966 
L 93.934916 260.217444 
L 94.07074 260.217444 
L 94.07074 260.059161 
L 94.205591 260.059161 
L 94.205591 259.900878 
L 94.604437 259.795356 
L 94.604437 259.742595 
L 94.865713 259.637073 
L 94.865713 259.426029 
L 95.123409 259.426029 
L 95.123409 259.267746 
L 95.377623 259.214985 
L 95.377623 259.109463 
L 95.503454 259.109463 
L 95.503454 258.95118 
L 95.628448 258.95118 
L 95.628448 258.687376 
L 95.875972 258.687376 
L 95.875972 258.529093 
L 96.241256 258.476332 
L 96.241256 258.212527 
L 96.480897 258.159766 
L 96.480897 257.948722 
L 96.83473 257.8432 
L 96.83473 257.737678 
L 97.18203 257.632156 
L 97.18203 257.368351 
L 97.523034 257.262829 
L 97.523034 257.210068 
L 97.635342 257.210068 
L 97.635342 257.051785 
L 97.857967 256.946263 
L 97.857967 256.893502 
L 98.295464 256.840741 
L 98.403267 256.418654 
L 98.617037 256.313132 
L 98.723018 256.102088 
L 98.933205 255.996566 
L 99.037425 255.468956 
L 99.14107 255.468956 
L 99.244147 254.994107 
L 99.448622 254.941346 
L 99.448622 254.519259 
L 99.650899 254.519259 
L 99.650899 254.308215 
L 100.049042 254.255454 
L 100.147275 253.886127 
L 100.342215 253.833366 
L 100.342215 253.727844 
L 100.535156 253.727844 
L 100.630889 253.358517 
L 100.820906 253.358517 
L 100.9152 253.094712 
L 101.287718 252.98919 
L 101.379706 252.830907 
L 101.471247 252.830907 
L 101.562344 252.197776 
L 101.833019 252.145015 
L 101.922385 251.828449 
L 102.011329 251.828449 
L 102.099854 251.406361 
L 102.187964 251.406361 
L 102.275664 250.984273 
L 102.449846 250.878751 
L 102.449846 250.82599 
L 102.708132 250.720468 
L 102.708132 250.667707 
L 103.047088 250.562185 
L 103.047088 250.351141 
L 103.297357 250.24562 
L 103.380045 249.929054 
L 103.544339 249.876293 
L 103.625951 249.454205 
L 103.788121 249.401444 
L 103.788121 249.137639 
L 103.948904 249.137639 
L 104.028784 248.926595 
L 104.108325 248.926595 
L 104.187532 248.398985 
L 104.266406 248.398985 
L 104.266406 248.187941 
L 104.42317 248.187941 
L 104.501065 247.924137 
L 104.655893 247.818615 
L 104.732832 247.713093 
L 104.809458 247.713093 
L 104.885773 247.343766 
L 105.187973 247.238244 
L 105.26277 246.816156 
L 105.485395 246.710634 
L 105.559021 246.552351 
L 105.778187 246.446829 
L 105.778187 246.183024 
L 105.99483 246.130263 
L 106.066493 245.866459 
L 106.137884 245.866459 
L 106.209005 245.338849 
L 106.279859 245.338849 
L 106.350446 244.969522 
L 106.42077 244.969522 
L 106.42077 244.811239 
L 106.630177 244.705717 
L 106.630177 244.441912 
L 106.768498 244.441912 
L 106.837279 244.125346 
L 106.974091 244.072585 
L 107.042125 243.861541 
L 107.177461 243.861541 
L 107.244765 243.492215 
L 107.31183 243.492215 
L 107.31183 243.333932 
L 107.5116 243.22841 
L 107.577722 242.753561 
L 107.774703 242.648039 
L 107.839908 242.436995 
L 107.904887 242.436995 
L 107.969643 242.067668 
L 108.09849 242.067668 
L 108.162584 241.64558 
L 108.22646 241.64558 
L 108.29012 241.117971 
L 108.353566 241.117971 
L 108.416798 240.748644 
L 108.479818 240.748644 
L 108.542628 240.5376 
L 108.667622 240.5376 
L 108.729809 240.221034 
L 108.915146 240.115512 
L 108.976522 239.587902 
L 109.098675 239.535141 
L 109.159456 239.218576 
L 109.280431 239.113054 
L 109.340628 238.90201 
L 109.400633 238.90201 
L 109.460447 238.532683 
L 109.638757 238.427161 
L 109.69782 238.110595 
L 109.815392 238.057834 
L 109.815392 237.952312 
L 109.932235 237.952312 
L 109.990385 237.688507 
L 110.106149 237.635746 
L 110.163764 237.213659 
L 110.278469 237.108137 
L 110.335561 236.791571 
L 110.449226 236.686049 
L 110.505802 236.369483 
L 110.73042 236.263961 
L 110.73042 235.947395 
L 110.841731 235.947395 
L 110.952388 235.472546 
L 111.171767 235.367024 
L 111.280505 235.10322 
L 111.334639 235.10322 
L 111.442442 234.681132 
L 111.54963 234.57561 
L 111.656212 233.784195 
L 111.81496 233.678673 
L 111.920053 233.467629 
L 111.97238 233.467629 
L 112.076599 233.045541 
L 112.231853 232.99278 
L 112.334649 232.570693 
L 112.385837 232.570693 
L 112.487797 232.201366 
L 112.690074 232.095844 
L 112.790402 231.937561 
L 112.840366 231.937561 
L 112.939899 231.409951 
L 113.038907 231.409951 
L 113.137397 231.093385 
L 113.235374 231.040624 
L 113.332844 230.724059 
L 113.429811 230.724059 
L 113.52628 230.513015 
L 113.717748 230.407493 
L 113.765312 230.301971 
L 113.907287 230.24921 
L 113.907287 230.038166 
L 114.048198 230.038166 
L 114.141556 229.668839 
L 114.234452 229.563317 
L 114.326893 229.299512 
L 114.418881 229.19399 
L 114.510421 229.035707 
L 114.601519 228.930185 
L 114.692177 228.560859 
L 114.872193 228.455337 
L 114.961559 228.138771 
L 115.050503 228.033249 
L 115.139028 227.769444 
L 115.183135 227.769444 
L 115.27104 227.400117 
L 115.314838 227.400117 
L 115.402131 227.189073 
L 115.532315 227.136312 
L 115.618607 226.872507 
L 115.661605 226.872507 
L 115.747307 226.608702 
L 115.917548 226.50318 
L 116.002095 226.344898 
L 116.170056 226.239376 
L 116.211813 225.92281 
L 116.336531 225.817288 
L 116.419219 225.342439 
L 116.583514 225.236917 
L 116.665126 225.025873 
L 116.705799 225.025873 
L 116.786884 224.709307 
L 116.86762 224.603785 
L 116.948011 224.28722 
L 117.1475 224.181698 
L 117.226706 223.75961 
L 117.266185 223.75961 
L 117.266185 223.601327 
L 117.462345 223.495805 
L 117.540239 223.232 
L 117.65648 223.126478 
L 117.733577 222.968195 
L 117.810359 222.915434 
L 117.886828 222.651629 
L 118.11439 222.546107 
L 118.189637 222.282302 
L 118.339232 222.17678 
L 118.376446 222.071259 
L 118.524569 222.018498 
L 118.598196 221.543649 
L 118.74459 221.490888 
L 118.853643 221.174322 
L 119.06987 221.121561 
L 119.177058 220.752234 
L 119.28364 220.699473 
L 119.389621 220.488429 
L 119.495008 220.488429 
L 119.530006 220.277385 
L 119.704027 220.171863 
L 119.807672 219.908059 
L 119.842094 219.908059 
L 119.91075 219.591493 
L 120.149089 219.485971 
L 120.250317 218.9056 
L 120.41783 218.800078 
L 120.451154 218.589034 
L 120.64987 218.483512 
L 120.64987 218.430751 
L 120.846508 218.325229 
L 120.9116 218.166946 
L 121.008818 218.061424 
L 121.105535 217.85038 
L 121.233724 217.79762 
L 121.329295 217.533815 
L 121.424383 217.481054 
L 121.518993 217.217249 
L 121.644403 217.111727 
L 121.706797 216.7424 
L 121.8 216.636878 
L 121.86188 216.531356 
L 121.985033 216.478595 
L 122.076872 216.267551 
L 122.228947 216.21479 
L 122.319605 215.898224 
L 122.439807 215.792702 
L 122.529457 215.476137 
L 122.588988 215.423376 
L 122.677931 215.10681 
L 122.795872 215.001288 
L 122.883845 214.631961 
L 123.289033 214.526439 
L 123.289033 214.473678 
L 123.460048 214.420917 
L 123.51671 214.262634 
L 123.601383 214.209873 
L 123.629523 213.946068 
L 123.797484 213.840546 
L 123.85314 213.47122 
L 124.019125 213.365698 
L 124.128974 213.154654 
L 124.238185 213.101893 
L 124.319679 212.838088 
L 124.535287 212.732566 
L 124.615507 212.363239 
L 124.801367 212.257717 
L 124.906754 211.88839 
L 125.063736 211.782868 
L 125.089773 211.677346 
L 125.271028 211.571824 
L 125.322496 211.413541 
L 125.450553 211.30802 
L 125.526971 211.044215 
L 125.653649 210.938693 
L 125.75438 210.622127 
L 125.904473 210.516605 
L 125.979073 210.358322 
L 126.127391 210.358322 
L 126.225624 210.094517 
L 126.372018 209.988995 
L 126.468985 209.830712 
L 126.68535 209.72519 
L 126.78072 209.355863 
L 126.828223 209.355863 
L 126.922873 208.828254 
L 127.040519 208.722732 
L 127.087372 208.564449 
L 127.29678 208.458927 
L 127.389106 208.247883 
L 127.549596 208.142361 
L 127.640693 207.931317 
L 127.844063 207.825795 
L 127.933749 207.403707 
L 128.111848 207.350946 
L 128.222309 207.087141 
L 128.310214 206.98162 
L 128.310214 206.928859 
L 128.484801 206.876098 
L 128.5931 206.665054 
L 128.657782 206.559532 
L 128.765092 206.401249 
L 128.829186 206.295727 
L 128.871795 206.084683 
L 129.062347 205.979161 
L 129.167381 205.768117 
L 129.31345 205.662595 
L 129.396412 205.451551 
L 129.60223 205.346029 
L 129.68393 205.240507 
L 129.744974 205.134985 
L 129.826058 204.923941 
L 130.00723 204.81842 
L 130.067235 204.712898 
L 130.16682 204.607376 
L 130.265881 204.449093 
L 130.364422 204.343571 
L 130.364422 204.132527 
L 130.579414 204.079766 
L 130.579414 203.974244 
L 130.714958 203.868722 
L 130.811181 203.499395 
L 130.849533 203.393873 
L 130.945072 203.130068 
L 130.983152 203.077307 
L 131.059082 202.70798 
L 131.191226 202.602459 
L 131.191226 202.549698 
L 133.548505 202.444176 
L 133.581667 202.233132 
L 134.007546 202.180371 
L 134.007546 202.074849 
L 135.245388 201.969327 
L 135.245388 201.863805 
L 138.496108 201.758283 
L 138.496108 201.705522 
L 140.364855 201.6 
L 140.399477 201.441717 
L 141.798916 201.388956 
L 141.798916 201.283434 
L 141.948172 201.283434 
L 141.948172 201.125151 
L 142.910689 201.019629 
L 142.910689 200.966868 
L 143.40851 200.861346 
L 143.40851 200.808585 
L 143.681641 200.703063 
L 143.778235 200.54478 
L 143.969946 200.439259 
L 144.017571 200.333737 
L 144.131379 200.228215 
L 144.225697 200.017171 
L 146.525341 199.911649 
L 146.541985 199.806127 
L 148.341344 199.700605 
L 148.341344 199.647844 
L 149.205631 199.542322 
L 149.205631 199.489561 
L 149.78154 199.384039 
L 149.78154 199.331278 
L 150.155911 199.225756 
L 150.155911 199.120234 
L 150.616985 199.014712 
L 150.616985 198.961951 
L 151.119273 198.856429 
L 151.171374 198.698146 
L 151.772985 198.592624 
L 151.842145 198.276059 
L 153.189104 198.170537 
L 153.189104 198.117776 
L 154.000911 198.012254 
L 154.000911 197.959493 
L 155.350181 197.853971 
L 155.350181 197.80121 
L 155.639595 197.748449 
L 155.660098 197.537405 
L 155.939772 197.431883 
L 155.959951 197.2736 
L 156.526128 197.168078 
L 156.526128 197.115317 
L 156.93267 197.009795 
L 157.018655 196.587707 
L 157.127956 196.482185 
L 157.236625 196.16562 
L 159.215793 196.060098 
L 159.215793 196.007337 
L 159.787973 195.901815 
L 159.787973 195.849054 
L 160.081845 195.796293 
L 160.081845 195.690771 
L 160.247161 195.585249 
L 160.331275 195.426966 
L 160.738476 195.374205 
L 160.738476 195.268683 
L 161.243955 195.163161 
L 161.289586 195.057639 
L 163.12115 194.952117 
L 163.12115 194.899356 
L 164.094754 194.793834 
L 164.094754 194.741073 
L 164.221926 194.741073 
L 164.221926 194.05518 
L 165.545661 193.949659 
L 165.630283 193.844137 
L 166.929251 193.844137 
L 166.929251 193.685854 
L 167.382463 193.580332 
L 167.492032 193.47481 
L 167.830378 193.369288 
L 167.841105 193.211005 
L 170.212092 193.105483 
L 170.318152 192.788917 
L 170.651274 192.683395 
L 170.651274 192.630634 
L 171.871548 192.525112 
L 171.871548 192.472351 
L 172.364903 192.366829 
L 172.467911 192.155785 
L 172.52234 192.050263 
L 172.543233 191.733698 
L 176.271119 191.628176 
L 176.373602 191.31161 
L 177.723348 191.206088 
L 177.724933 191.100566 
L 177.981583 190.995044 
L 178.019078 190.836761 
L 179.239683 190.731239 
L 179.239683 190.678478 
L 180.500455 190.572956 
L 180.500455 190.520195 
L 180.808425 190.414673 
L 180.856806 190.309151 
L 181.992235 190.203629 
L 181.992235 190.150868 
L 182.589793 190.045346 
L 182.614259 189.939824 
L 183.405446 189.834302 
L 183.452273 189.464976 
L 184.077811 189.359454 
L 184.077811 189.306693 
L 185.610054 189.201171 
L 185.610054 189.14841 
L 187.655327 189.042888 
L 187.669348 188.937366 
L 188.561698 188.831844 
L 188.561698 188.779083 
L 188.802975 188.726322 
L 188.880235 188.515278 
L 190.224972 188.409756 
L 190.273852 188.251473 
L 191.002765 188.145951 
L 191.033265 187.987668 
L 193.158608 187.882146 
L 193.250509 187.776624 
L 195.008968 187.671102 
L 195.008968 187.618341 
L 195.332561 187.51282 
L 195.332561 187.460059 
L 195.94005 187.354537 
L 195.94005 187.301776 
L 196.565546 187.196254 
L 196.565546 187.143493 
L 198.541018 187.037971 
L 198.541018 186.98521 
L 200.047875 186.879688 
L 200.148259 186.721405 
L 200.776611 186.668644 
L 200.776611 186.563122 
L 201.719241 186.4576 
L 201.724111 186.352078 
L 203.863626 186.246556 
L 203.863626 186.193795 
L 204.436927 186.088273 
L 204.436927 186.035512 
L 206.623036 185.92999 
L 206.623036 185.877229 
L 207.206328 185.771707 
L 207.20699 185.666185 
L 207.515665 185.560663 
L 207.534526 185.455141 
L 208.818711 185.34962 
L 208.835401 185.191337 
L 209.128678 185.085815 
L 209.128678 185.033054 
L 212.001917 184.927532 
L 212.00653 184.82201 
L 212.53425 184.716488 
L 212.53425 184.663727 
L 214.717083 184.558205 
L 214.734159 184.399922 
L 214.941272 184.2944 
L 214.952669 184.188878 
L 215.17311 184.136117 
L 215.264599 183.977834 
L 217.7296 183.872312 
L 217.7296 183.819551 
L 218.343305 183.714029 
L 218.430016 183.397463 
L 218.528744 183.291941 
L 218.528744 183.18642 
L 218.88525 183.080898 
L 218.979058 182.922615 
L 219.035754 182.817093 
L 219.035754 182.764332 
L 219.349769 182.65881 
L 219.427655 182.500527 
L 219.894804 182.447766 
L 219.895141 182.236722 
L 220.463356 182.183961 
L 220.463356 182.078439 
L 221.142425 181.972917 
L 221.142425 181.920156 
L 221.68619 181.814634 
L 221.68619 181.761873 
L 222.192323 181.656351 
L 222.246968 181.550829 
L 223.165976 181.445307 
L 223.165976 181.392546 
L 224.561084 181.287024 
L 224.561084 181.128741 
L 225.521776 181.02322 
L 225.529146 180.864937 
L 226.727794 180.759415 
L 226.727794 180.653893 
L 227.1313 180.548371 
L 227.206724 180.442849 
L 228.569757 180.337327 
L 228.569757 180.284566 
L 229.742201 180.179044 
L 229.850394 179.968 
L 231.369851 179.862478 
L 231.39958 179.651434 
L 231.649902 179.545912 
L 231.649902 179.493151 
L 231.917712 179.387629 
L 231.917712 179.334868 
L 232.162287 179.282107 
L 232.162287 179.176585 
L 233.22061 179.071063 
L 233.22061 179.018302 
L 234.10521 178.91278 
L 234.10521 178.86002 
L 234.634654 178.754498 
L 234.735778 178.648976 
L 236.024034 178.543454 
L 236.024034 178.490693 
L 236.275321 178.437932 
L 236.275321 178.33241 
L 237.172956 178.279649 
L 237.172956 178.121366 
L 237.993623 178.015844 
L 237.993623 177.963083 
L 239.004906 177.857561 
L 239.070708 177.752039 
L 239.361833 177.646517 
L 239.40106 177.488234 
L 241.231769 177.435473 
L 241.303577 177.224429 
L 242.401848 177.171668 
L 242.401848 177.066146 
L 243.658061 176.960624 
L 243.658061 176.855102 
L 244.451112 176.74958 
L 244.543301 176.644059 
L 244.803231 176.591298 
L 244.803231 176.485776 
L 246.106394 176.380254 
L 246.161834 176.274732 
L 246.874148 176.16921 
L 246.874148 176.116449 
L 247.967439 176.116449 
L 248.005739 175.852644 
L 248.636394 175.799883 
L 248.636394 175.6416 
L 249.361711 175.536078 
L 249.361711 175.483317 
L 250.274365 175.377795 
L 250.274365 175.272273 
L 251.503089 175.166751 
L 251.5481 175.008468 
L 252.398792 174.902946 
L 252.398792 174.744663 
L 253.055965 174.639141 
L 253.055965 174.53362 
L 254.927241 174.428098 
L 254.939667 174.322576 
L 255.811751 174.217054 
L 255.840104 174.111532 
L 257.509162 174.00601 
L 257.509162 173.953249 
L 258.129598 173.847727 
L 258.129598 173.794966 
L 259.768715 173.689444 
L 259.768715 173.636683 
L 260.603207 173.531161 
L 260.603207 173.4784 
L 261.654416 173.372878 
L 261.678777 173.267356 
L 261.929517 173.214595 
L 261.929517 173.109073 
L 262.724278 173.056312 
L 262.724278 172.95079 
L 263.99617 172.845268 
L 263.99617 172.792507 
L 265.110916 172.686985 
L 265.112089 172.581463 
L 267.232866 172.475941 
L 267.232866 172.42318 
L 269.272291 172.317659 
L 269.272291 172.264898 
L 272.40033 172.159376 
L 272.40033 172.106615 
L 281.082962 172.001093 
L 281.082962 171.948332 
L 283.786555 171.84281 
L 283.786555 171.790049 
L 284.91107 171.684527 
L 284.91107 171.631766 
L 360.8064 171.526244 
L 360.8064 171.526244 
" style="fill:none;stroke:#000080;stroke-linecap:square;stroke-width:1.5;"/>
   </g>
   <g id="line2d_31">
    <defs>
     <path d="M 0 6 
C 1.591219 6 3.117479 5.367802 4.242641 4.242641 
C 5.367802 3.117479 6 1.591219 6 0 
C 6 -1.591219 5.367802 -3.117479 4.242641 -4.242641 
C 3.117479 -5.367802 1.591219 -6 0 -6 
C -1.591219 -6 -3.117479 -5.367802 -4.242641 -4.242641 
C -5.367802 -3.117479 -6 -1.591219 -6 0 
C -6 1.591219 -5.367802 3.117479 -4.242641 4.242641 
C -3.117479 5.367802 -1.591219 6 0 6 
z
" id="m40149a746e" style="stroke:#000080;stroke-width:1.5;"/>
    </defs>
    <g>
     <use style="fill-opacity:0;stroke:#000080;stroke-width:1.5;" x="89.668958" xlink:href="#m40149a746e" y="262.591688"/>
     <use style="fill-opacity:0;stroke:#000080;stroke-width:1.5;" x="133.581667" xlink:href="#m40149a746e" y="202.338654"/>
     <use style="fill-opacity:0;stroke:#000080;stroke-width:1.5;" x="251.5481" xlink:href="#m40149a746e" y="175.008468"/>
     <use style="fill-opacity:0;stroke:#000080;stroke-width:1.5;" x="299.49556" xlink:href="#m40149a746e" y="171.526244"/>
     <use style="fill-opacity:0;stroke:#000080;stroke-width:1.5;" x="360.8064" xlink:href="#m40149a746e" y="171.526244"/>
    </g>
   </g>
   <g id="line2d_32">
    <path style="fill:none;stroke:#000080;stroke-linecap:square;stroke-width:1.5;"/>
    <g/>
   </g>
   <g id="line2d_33">
    <path clip-path="url(#pac6208cb90)" d="M 218.318039 183.76679 
" style="fill:none;stroke:#000080;stroke-linecap:square;stroke-width:1.5;"/>
    <defs>
     <path d="M -12 12 
L 12 -12 
M -12 -12 
L 12 12 
" id="me0f00ae12e" style="stroke:#000080;"/>
    </defs>
    <g clip-path="url(#pac6208cb90)">
     <use style="fill:#000080;stroke:#000080;" x="218.318039" xlink:href="#me0f00ae12e" y="183.76679"/>
    </g>
   </g>
   <g id="line2d_34">
    <defs>
     <path d="M 0 1.5 
C 0.397805 1.5 0.77937 1.341951 1.06066 1.06066 
C 1.341951 0.77937 1.5 0.397805 1.5 0 
C 1.5 -0.397805 1.341951 -0.77937 1.06066 -1.06066 
C 0.77937 -1.341951 0.397805 -1.5 0 -1.5 
C -0.397805 -1.5 -0.77937 -1.341951 -1.06066 -1.06066 
C -1.341951 -0.77937 -1.5 -0.397805 -1.5 0 
C -1.5 0.397805 -1.341951 0.77937 -1.06066 1.06066 
C -0.77937 1.341951 -0.397805 1.5 0 1.5 
z
" id="m9c2714a366" style="stroke:#ff7500;"/>
    </defs>
    <g>
     <use style="fill:#ff7500;stroke:#ff7500;" x="300.239284" xlink:href="#m9c2714a366" y="120.875707"/>
     <use style="fill:#ff7500;stroke:#ff7500;" x="300.239284" xlink:href="#m9c2714a366" y="120.875707"/>
    </g>
   </g>
   <g id="line2d_35">
    <path d="M 72.217115 298.944 
L 72.217115 250.878751 
L 72.644669 250.878751 
L 72.644669 250.720468 
L 73.062721 250.614946 
L 73.062721 250.562185 
L 73.471684 250.562185 
L 73.471684 250.403902 
L 73.871945 250.29838 
L 73.871945 250.192859 
L 74.263866 250.087337 
L 74.263866 250.034576 
L 75.574654 249.929054 
L 75.574654 249.876293 
L 84.818792 249.876293 
L 84.818792 245.233327 
L 85.038813 245.233327 
L 85.038813 244.758478 
L 86.101895 244.652956 
L 86.101895 244.600195 
L 92.298097 244.547434 
L 92.298097 240.484839 
L 92.44622 240.484839 
L 92.44622 233.889717 
L 92.593186 233.889717 
L 92.593186 233.151063 
L 93.729323 233.151063 
L 93.729323 232.94002 
L 97.635342 232.887259 
L 97.635342 229.932644 
L 97.913214 229.827122 
L 97.913214 229.299512 
L 98.18704 229.299512 
L 98.295464 229.088468 
L 98.933205 229.088468 
L 98.933205 228.824663 
L 101.788176 228.824663 
L 101.877755 225.975571 
L 102.319361 225.870049 
L 102.406452 225.500722 
L 102.66533 225.3952 
L 102.66533 225.236917 
L 104.30572 225.131395 
L 104.30572 224.445502 
L 105.187973 224.445502 
L 105.26277 220.910517 
L 105.850679 220.910517 
L 105.922892 220.435668 
L 105.99483 220.435668 
L 105.99483 220.277385 
L 108.066361 220.224624 
L 108.066361 219.380449 
L 108.194549 219.380449 
L 108.194549 218.958361 
L 108.760826 218.852839 
L 108.822706 218.747317 
L 110.562208 218.641795 
L 110.562208 218.061424 
L 110.674517 218.061424 
L 110.674517 217.481054 
L 111.117162 217.375532 
L 111.171767 217.111727 
L 111.496112 217.006205 
L 111.496112 216.953444 
L 111.841288 216.953444 
L 111.841288 216.689639 
L 112.36026 216.689639 
L 112.436886 216.267551 
L 112.76537 216.21479 
L 112.76537 215.739941 
L 113.453974 215.63442 
L 113.550321 215.423376 
L 113.57433 215.423376 
L 113.57433 215.265093 
L 114.326893 215.212332 
L 114.418881 215.054049 
L 115.467336 214.948527 
L 115.575511 214.473678 
L 116.968056 214.368156 
L 117.00808 214.262634 
L 117.285893 214.157112 
L 117.285893 214.05159 
L 117.44282 213.946068 
L 117.44282 213.893307 
L 118.708098 213.893307 
L 118.817362 213.629502 
L 118.99807 213.576741 
L 118.99807 213.47122 
L 120.165998 213.47122 
L 120.165998 213.312937 
L 120.4345 213.207415 
L 120.467794 212.996371 
L 121.518993 212.890849 
L 121.613129 212.574283 
L 122.898468 212.468761 
L 122.956843 212.257717 
L 123.044069 212.204956 
L 123.130891 211.941151 
L 124.156336 211.835629 
L 124.156336 211.730107 
L 124.373813 211.624585 
L 124.481616 211.36078 
L 124.615507 211.30802 
L 124.615507 211.202498 
L 125.219419 211.149737 
L 125.309642 210.938693 
L 125.361005 210.938693 
L 125.437787 210.569366 
L 125.615735 210.463844 
L 125.641019 210.305561 
L 126.44479 210.2528 
L 126.541384 210.094517 
L 126.589495 209.988995 
L 126.68535 209.830712 
L 127.446581 209.777951 
L 127.538178 209.461385 
L 127.674741 209.355863 
L 127.674741 209.19758 
L 128.332126 209.092059 
L 128.332126 209.039298 
L 128.5931 208.933776 
L 128.614685 208.775493 
L 129.240557 208.669971 
L 129.240557 208.61721 
L 129.386062 208.61721 
L 129.489309 208.0896 
L 129.876559 207.984078 
L 129.957079 207.878556 
L 130.067235 207.878556 
L 130.067235 207.720273 
L 130.364422 207.614751 
L 130.46245 207.350946 
L 131.068551 207.245424 
L 131.144138 207.03438 
L 131.219422 206.928859 
L 131.238196 206.823337 
L 131.892817 206.770576 
L 132.001241 206.242966 
L 132.019251 206.242966 
L 132.09112 205.9264 
L 132.630271 205.820878 
L 132.734539 204.976702 
L 132.769166 204.87118 
L 132.769166 204.81842 
L 133.339903 204.765659 
L 133.44032 204.185288 
L 133.573382 204.079766 
L 133.573382 204.027005 
L 133.926391 204.027005 
L 134.023735 203.23559 
L 134.136669 203.130068 
L 134.168812 202.866263 
L 134.77709 202.813502 
L 134.885604 202.12761 
L 135.305949 202.022088 
L 135.381376 201.811044 
L 135.456502 201.705522 
L 135.531329 201.125151 
L 135.576083 201.125151 
L 135.576083 200.808585 
L 136.083243 200.703063 
L 136.184497 199.806127 
L 136.25649 199.753366 
L 136.25649 199.489561 
L 136.675726 199.4368 
L 136.759863 198.592624 
L 137.27736 198.539863 
L 137.345296 198.065015 
L 137.781001 197.959493 
L 137.886721 197.115317 
L 137.926213 197.009795 
L 137.952496 196.798751 
L 138.239203 196.693229 
L 138.290865 196.587707 
L 138.400179 196.587707 
L 138.464186 195.690771 
L 138.65491 195.585249 
L 138.65491 195.479727 
L 138.937418 195.374205 
L 139.036851 194.635551 
L 139.135762 194.530029 
L 139.135762 194.477268 
L 139.447614 194.477268 
L 139.556456 193.422049 
L 139.979741 193.316527 
L 140.073829 192.261307 
L 140.28382 192.208546 
L 140.28382 191.944741 
L 140.43979 191.89198 
L 140.543056 190.836761 
L 140.645758 190.731239 
L 140.645758 190.625717 
L 140.922528 190.520195 
L 141.017607 189.359454 
L 141.382247 189.253932 
L 141.491363 188.356995 
L 141.523975 188.304234 
L 141.55653 188.145951 
L 141.793563 188.145951 
L 141.895002 187.354537 
L 141.921606 187.249015 
L 142.011779 186.98521 
L 142.269295 186.98521 
L 142.373399 186.510361 
L 142.404519 186.4576 
L 142.507879 186.035512 
L 142.702713 185.92999 
L 142.809525 185.455141 
L 142.880397 185.34962 
L 142.900597 185.138576 
L 143.091426 185.138576 
L 143.176174 184.505444 
L 143.215924 184.399922 
L 143.314933 183.977834 
L 143.555323 183.872312 
L 143.642864 183.18642 
L 143.749309 183.18642 
L 143.787867 182.606049 
L 143.993774 182.553288 
L 144.06033 182.183961 
L 144.117191 182.078439 
L 144.211579 181.814634 
L 144.352279 181.709112 
L 144.459441 181.234263 
L 144.561376 181.128741 
L 144.570616 181.02322 
L 144.759032 180.917698 
L 144.868454 180.231805 
L 144.895711 180.231805 
L 144.959156 179.493151 
L 145.143739 179.493151 
L 145.224207 179.123824 
L 145.277662 179.123824 
L 145.322091 178.754498 
L 145.494372 178.648976 
L 145.590864 177.699278 
L 145.652011 177.699278 
L 145.695567 177.27719 
L 145.808341 177.27719 
L 145.873097 176.74958 
L 145.959093 176.644059 
L 146.061771 176.380254 
L 146.176619 176.274732 
L 146.286554 175.905405 
L 146.379077 175.852644 
L 146.462796 175.377795 
L 146.546143 175.377795 
L 146.633263 175.11399 
L 146.666345 175.061229 
L 146.740569 174.639141 
L 146.900389 174.53362 
L 147.006187 174.111532 
L 147.107357 174.00601 
L 147.216013 173.425639 
L 147.30808 173.320117 
L 147.403671 172.845268 
L 147.581606 172.739746 
L 147.691478 172.37042 
L 147.761772 172.264898 
L 147.8706 172.053854 
L 147.905447 171.948332 
L 147.998058 171.631766 
L 148.051871 171.526244 
L 148.151403 170.998634 
L 148.212393 170.998634 
L 148.314867 170.048937 
L 148.382875 169.943415 
L 148.491927 169.785132 
L 148.589164 169.67961 
L 148.678477 169.363044 
L 148.741485 169.310283 
L 148.844805 168.940956 
L 148.943901 168.835434 
L 149.035192 168.202302 
L 149.187572 168.149541 
L 149.292071 167.147083 
L 149.335143 167.094322 
L 149.445957 166.197385 
L 149.513554 166.197385 
L 149.595059 165.617015 
L 149.788541 165.511493 
L 149.872349 165.194927 
L 149.934962 165.089405 
L 150.042308 164.8256 
L 150.159343 164.720078 
L 150.186775 164.614556 
L 150.34034 164.509034 
L 150.442024 164.139707 
L 150.533072 164.034185 
L 150.640414 163.71762 
L 150.72052 163.612098 
L 150.810233 162.767922 
L 150.935776 162.6624 
L 151.040851 162.451356 
L 151.138828 162.398595 
L 151.236297 162.082029 
L 151.275144 161.976507 
L 151.310683 161.818224 
L 151.407268 161.818224 
L 151.50336 161.237854 
L 151.554409 161.132332 
L 151.621202 160.815766 
L 151.779283 160.710244 
L 151.882893 160.288156 
L 151.985937 160.182634 
L 152.091515 160.024351 
L 152.208817 159.918829 
L 152.310095 159.44398 
L 152.352898 159.39122 
L 152.447329 158.969132 
L 152.520112 158.86361 
L 152.625753 158.072195 
L 152.658832 158.072195 
L 152.736789 157.597346 
L 152.853122 157.491824 
L 152.862041 157.386302 
L 153.24161 157.28078 
L 153.340389 157.069737 
L 153.493341 156.964215 
L 153.599386 156.70041 
L 153.815352 156.594888 
L 153.891484 156.489366 
L 153.981317 156.436605 
L 154.084654 155.961756 
L 154.366625 155.856234 
L 154.473331 155.64519 
L 154.506042 155.539668 
L 154.552285 155.381385 
L 154.698427 155.275863 
L 154.784496 154.53721 
L 155.019177 154.431688 
L 155.032424 154.220644 
L 155.253584 154.115122 
L 155.324122 154.0096 
L 155.456644 153.956839 
L 155.539321 153.218185 
L 155.856305 153.112663 
L 155.884169 152.585054 
L 156.040449 152.479532 
L 156.138094 152.268488 
L 156.252617 152.162966 
L 156.25758 151.740878 
L 156.489398 151.635356 
L 156.489398 151.582595 
L 156.911113 151.477073 
L 157.011505 151.371551 
L 157.231914 151.266029 
L 157.231914 151.213268 
L 157.542701 151.160507 
L 157.542701 151.002224 
L 157.814203 150.896702 
L 157.814203 150.843941 
L 158.000593 150.73842 
L 158.000593 150.632898 
L 158.187393 150.632898 
L 158.187393 150.158049 
L 158.535745 150.052527 
L 158.616909 149.947005 
L 161.658157 149.894244 
L 161.658157 149.735961 
L 161.968427 149.735961 
L 161.968427 149.524917 
L 162.119847 149.524917 
L 162.119847 149.366634 
L 162.270058 149.366634 
L 162.270058 149.050068 
L 166.340404 148.944546 
L 166.340404 148.839024 
L 166.707029 148.786263 
L 166.707029 148.57522 
L 167.950708 148.469698 
L 167.950708 148.416937 
L 168.970111 148.364176 
L 168.970111 148.258654 
L 169.224656 148.153132 
L 169.224656 148.100371 
L 169.36487 148.100371 
L 169.467197 147.467239 
L 169.763621 147.361717 
L 169.863808 147.256195 
L 170.457476 147.150673 
L 170.511057 147.045151 
L 171.052203 146.939629 
L 171.052203 146.886868 
L 171.534205 146.781346 
L 171.534205 146.728585 
L 175.184443 146.675824 
L 175.184443 146.41202 
L 176.800534 146.359259 
L 176.800534 146.253737 
L 177.871008 146.148215 
L 177.978455 145.88441 
L 178.770203 145.778888 
L 178.844289 145.567844 
L 178.975282 145.515083 
L 178.975282 145.409561 
L 179.714853 145.304039 
L 179.714853 145.251278 
L 181.808118 145.251278 
L 181.808118 144.987473 
L 183.16183 144.881951 
L 183.226433 144.776429 
L 183.677744 144.670907 
L 183.737724 144.512624 
L 184.318296 144.407102 
L 184.318296 144.354341 
L 184.497217 144.30158 
L 184.593197 144.037776 
L 184.638809 144.037776 
L 184.639907 143.668449 
L 187.864558 143.562927 
L 187.864558 143.510166 
L 191.020758 143.404644 
L 191.020758 143.035317 
L 191.579659 142.929795 
L 191.687889 142.66599 
L 192.155221 142.560468 
L 192.155589 142.402185 
L 192.729766 142.296663 
L 192.729766 142.243902 
L 193.404065 142.191141 
L 193.408198 141.980098 
L 194.744292 141.874576 
L 194.744292 141.821815 
L 195.306741 141.821815 
L 195.306741 141.610771 
L 198.464057 141.505249 
L 198.512949 141.294205 
L 199.464528 141.188683 
L 199.464528 141.135922 
L 200.621891 141.135922 
L 200.621891 140.977639 
L 201.723668 140.872117 
L 201.723668 140.819356 
L 203.649872 140.713834 
L 203.649872 140.661073 
L 203.898754 140.555551 
L 204.001392 140.344507 
L 204.619782 140.344507 
L 204.619782 140.186224 
L 208.271522 140.080702 
L 208.27949 139.97518 
L 210.806822 139.869659 
L 210.888448 139.764137 
L 211.726026 139.711376 
L 211.726026 139.605854 
L 217.833285 139.500332 
L 217.833285 139.447571 
L 220.763449 139.342049 
L 220.763449 139.289288 
L 221.195958 139.236527 
L 221.209318 139.078244 
L 221.902913 139.025483 
L 221.902913 138.919961 
L 222.597034 138.814439 
L 222.597034 138.761678 
L 223.476114 138.656156 
L 223.476114 138.603395 
L 224.080178 138.497873 
L 224.080178 138.445112 
L 224.46526 138.33959 
L 224.483421 138.128546 
L 227.906857 138.023024 
L 227.935118 137.442654 
L 228.863907 137.337132 
L 228.868561 137.178849 
L 229.903615 137.126088 
L 229.95782 136.915044 
L 230.888057 136.809522 
L 230.984688 135.64878 
L 231.096623 135.543259 
L 231.207619 134.435278 
L 231.215559 134.329756 
L 231.262251 133.749385 
L 231.474563 133.643863 
L 231.55777 133.43282 
L 231.637858 133.327298 
L 231.637858 133.274537 
L 232.040375 133.169015 
L 232.063903 133.010732 
L 232.335535 132.90521 
L 232.410827 132.113795 
L 232.999028 132.061034 
L 232.99907 131.902751 
L 233.148122 131.797229 
L 233.191008 131.638946 
L 234.298075 131.533424 
L 234.298075 131.480663 
L 234.889811 131.375141 
L 234.889811 131.32238 
L 237.886066 131.216859 
L 237.886454 131.111337 
L 239.949827 131.005815 
L 239.949827 130.953054 
L 240.81453 130.847532 
L 240.815805 130.74201 
L 242.218871 130.636488 
L 242.218871 130.583727 
L 242.482472 130.478205 
L 242.4827 130.372683 
L 243.563047 130.267161 
L 243.563645 130.161639 
L 243.915417 130.056117 
L 244.005493 129.634029 
L 244.051734 129.528507 
L 244.100701 129.15918 
L 244.252356 129.053659 
L 244.291594 128.842615 
L 244.676987 128.737093 
L 244.69194 128.526049 
L 245.40317 128.420527 
L 245.40317 128.367766 
L 249.627789 128.262244 
L 249.633858 127.998439 
L 250.594482 127.892917 
L 250.594762 127.787395 
L 251.536038 127.681873 
L 251.646852 127.259785 
L 251.763659 127.154263 
L 251.775112 126.94322 
L 252.034409 126.837698 
L 252.05957 126.573893 
L 254.878307 126.468371 
L 254.878307 126.41561 
L 256.045357 126.310088 
L 256.045357 126.257327 
L 256.71703 126.151805 
L 256.772578 125.888 
L 257.025495 125.782478 
L 257.029849 125.413151 
L 257.340289 125.307629 
L 257.340749 125.202107 
L 257.573441 125.096585 
L 257.573441 125.043824 
L 260.583979 124.938302 
L 260.583979 124.885541 
L 261.00327 124.78002 
L 261.00381 124.674498 
L 261.162486 124.568976 
L 261.21001 124.410693 
L 261.532982 124.305171 
L 261.533203 124.199649 
L 264.456593 124.094127 
L 264.456593 124.041366 
L 264.625068 123.935844 
L 264.685707 123.672039 
L 264.991913 123.566517 
L 264.991913 123.513756 
L 266.67879 123.408234 
L 266.67879 123.355473 
L 267.516577 123.302712 
L 267.519425 123.091668 
L 268.743914 122.986146 
L 268.743914 122.933385 
L 269.987028 122.827863 
L 270.07234 122.66958 
L 272.092615 122.564059 
L 272.198896 122.458537 
L 272.415942 122.353015 
L 272.415942 122.300254 
L 274.211525 122.194732 
L 274.211525 122.141971 
L 275.909904 122.036449 
L 276.003194 121.878166 
L 277.626907 121.772644 
L 277.637645 121.667122 
L 284.250129 121.5616 
L 284.250129 121.508839 
L 286.216518 121.403317 
L 286.216518 121.350556 
L 289.86177 121.245034 
L 289.86177 121.192273 
L 290.662023 121.086751 
L 290.662023 121.03399 
L 300.239284 120.928468 
L 300.239284 120.875707 
L 360.8064 120.875707 
L 360.8064 120.875707 
" style="fill:none;stroke:#ff7500;stroke-linecap:square;stroke-width:1.5;"/>
   </g>
   <g id="line2d_36">
    <defs>
     <path d="M 0 -6 
L -1.347084 -1.854102 
L -5.706339 -1.854102 
L -2.179628 0.708204 
L -3.526712 4.854102 
L -0 2.291796 
L 3.526712 4.854102 
L 2.179628 0.708204 
L 5.706339 -1.854102 
L 1.347084 -1.854102 
z
" id="m1be62e755a" style="stroke:#ff7500;stroke-linejoin:bevel;stroke-width:1.5;"/>
    </defs>
    <g>
     <use style="fill-opacity:0;stroke:#ff7500;stroke-linejoin:bevel;stroke-width:1.5;" x="115.532315" xlink:href="#m1be62e755a" y="214.737483"/>
     <use style="fill-opacity:0;stroke:#ff7500;stroke-linejoin:bevel;stroke-width:1.5;" x="187.864558" xlink:href="#m1be62e755a" y="143.562927"/>
     <use style="fill-opacity:0;stroke:#ff7500;stroke-linejoin:bevel;stroke-width:1.5;" x="300.239284" xlink:href="#m1be62e755a" y="120.928468"/>
     <use style="fill-opacity:0;stroke:#ff7500;stroke-linejoin:bevel;stroke-width:1.5;" x="300.239284" xlink:href="#m1be62e755a" y="120.875707"/>
     <use style="fill-opacity:0;stroke:#ff7500;stroke-linejoin:bevel;stroke-width:1.5;" x="360.8064" xlink:href="#m1be62e755a" y="120.875707"/>
    </g>
   </g>
   <g id="line2d_37">
    <path style="fill:none;stroke:#ff7500;stroke-linecap:square;stroke-width:1.5;"/>
    <g/>
   </g>
   <g id="line2d_38">
    <path clip-path="url(#pac6208cb90)" d="M 230.86301 136.809522 
" style="fill:none;stroke:#ff7500;stroke-linecap:square;stroke-width:1.5;"/>
    <defs>
     <path d="M -12 12 
L 12 -12 
M -12 -12 
L 12 12 
" id="m0f9927a03f" style="stroke:#ff7500;"/>
    </defs>
    <g clip-path="url(#pac6208cb90)">
     <use style="fill:#ff7500;stroke:#ff7500;" x="230.86301" xlink:href="#m0f9927a03f" y="136.809522"/>
    </g>
   </g>
   <g id="line2d_39">
    <path d="M 360.8064 171.526244 
L 380.514816 293.10336 
" style="fill:none;stroke:#000080;stroke-linecap:square;stroke-width:1.5;"/>
    <g>
     <use style="fill-opacity:0;stroke:#000080;stroke-width:1.5;" x="360.8064" xlink:href="#m40149a746e" y="171.526244"/>
     <use style="fill-opacity:0;stroke:#000080;stroke-width:1.5;" x="380.514816" xlink:href="#m40149a746e" y="293.10336"/>
    </g>
   </g>
   <g id="line2d_40">
    <path d="M 360.8064 120.875707 
L 380.514816 12.75264 
" style="fill:none;stroke:#ff7500;stroke-linecap:square;stroke-width:1.5;"/>
    <g>
     <use style="fill-opacity:0;stroke:#ff7500;stroke-linejoin:bevel;stroke-width:1.5;" x="360.8064" xlink:href="#m1be62e755a" y="120.875707"/>
     <use style="fill-opacity:0;stroke:#ff7500;stroke-linejoin:bevel;stroke-width:1.5;" x="380.514816" xlink:href="#m1be62e755a" y="12.75264"/>
    </g>
   </g>
   <g id="line2d_41">
    <path d="M 360.8064 298.944 
L 360.8064 6.912 
" style="fill:none;stroke:#000000;stroke-linecap:square;stroke-width:1.5;"/>
   </g>
   <g id="patch_3">
    <path d="M 57.6 298.944 
L 360.8064 298.944 
" style="fill:none;stroke:#000000;stroke-linecap:square;stroke-linejoin:miter;stroke-width:0.8;"/>
   </g>
   <g id="patch_4">
    <path d="M 57.6 6.912 
L 360.8064 6.912 
" style="fill:none;stroke:#000000;stroke-linecap:square;stroke-linejoin:miter;stroke-width:0.8;"/>
   </g>
   <g id="text_13">
    <!-- cobyla -->
    <g transform="translate(386.578944 296.966485)scale(0.14 -0.14)">
     <defs>
      <path d="M 48.6875 27.296875 
Q 48.6875 37.203125 44.609375 42.84375 
Q 40.53125 48.484375 33.40625 48.484375 
Q 26.265625 48.484375 22.1875 42.84375 
Q 18.109375 37.203125 18.109375 27.296875 
Q 18.109375 17.390625 22.1875 11.75 
Q 26.265625 6.109375 33.40625 6.109375 
Q 40.53125 6.109375 44.609375 11.75 
Q 48.6875 17.390625 48.6875 27.296875 
z
M 18.109375 46.390625 
Q 20.953125 51.265625 25.265625 53.625 
Q 29.59375 56 35.59375 56 
Q 45.5625 56 51.78125 48.09375 
Q 58.015625 40.1875 58.015625 27.296875 
Q 58.015625 14.40625 51.78125 6.484375 
Q 45.5625 -1.421875 35.59375 -1.421875 
Q 29.59375 -1.421875 25.265625 0.953125 
Q 20.953125 3.328125 18.109375 8.203125 
L 18.109375 0 
L 9.078125 0 
L 9.078125 75.984375 
L 18.109375 75.984375 
z
" id="DejaVuSans-98"/>
      <path d="M 32.171875 -5.078125 
Q 28.375 -14.84375 24.75 -17.8125 
Q 21.140625 -20.796875 15.09375 -20.796875 
L 7.90625 -20.796875 
L 7.90625 -13.28125 
L 13.1875 -13.28125 
Q 16.890625 -13.28125 18.9375 -11.515625 
Q 21 -9.765625 23.484375 -3.21875 
L 25.09375 0.875 
L 2.984375 54.6875 
L 12.5 54.6875 
L 29.59375 11.921875 
L 46.6875 54.6875 
L 56.203125 54.6875 
z
" id="DejaVuSans-121"/>
     </defs>
     <use xlink:href="#DejaVuSans-99"/>
     <use x="54.980469" xlink:href="#DejaVuSans-111"/>
     <use x="116.162109" xlink:href="#DejaVuSans-98"/>
     <use x="179.638672" xlink:href="#DejaVuSans-121"/>
     <use x="238.818359" xlink:href="#DejaVuSans-108"/>
     <use x="266.601562" xlink:href="#DejaVuSans-97"/>
    </g>
   </g>
   <g id="text_14">
    <!-- slsqp -->
    <g transform="translate(386.578944 16.615765)scale(0.14 -0.14)">
     <defs>
      <path d="M 14.796875 27.296875 
Q 14.796875 17.390625 18.875 11.75 
Q 22.953125 6.109375 30.078125 6.109375 
Q 37.203125 6.109375 41.296875 11.75 
Q 45.40625 17.390625 45.40625 27.296875 
Q 45.40625 37.203125 41.296875 42.84375 
Q 37.203125 48.484375 30.078125 48.484375 
Q 22.953125 48.484375 18.875 42.84375 
Q 14.796875 37.203125 14.796875 27.296875 
z
M 45.40625 8.203125 
Q 42.578125 3.328125 38.25 0.953125 
Q 33.9375 -1.421875 27.875 -1.421875 
Q 17.96875 -1.421875 11.734375 6.484375 
Q 5.515625 14.40625 5.515625 27.296875 
Q 5.515625 40.1875 11.734375 48.09375 
Q 17.96875 56 27.875 56 
Q 33.9375 56 38.25 53.625 
Q 42.578125 51.265625 45.40625 46.390625 
L 45.40625 54.6875 
L 54.390625 54.6875 
L 54.390625 -20.796875 
L 45.40625 -20.796875 
z
" id="DejaVuSans-113"/>
     </defs>
     <use xlink:href="#DejaVuSans-115"/>
     <use x="52.099609" xlink:href="#DejaVuSans-108"/>
     <use x="79.882812" xlink:href="#DejaVuSans-115"/>
     <use x="131.982422" xlink:href="#DejaVuSans-113"/>
     <use x="195.458984" xlink:href="#DejaVuSans-112"/>
    </g>
   </g>
   <g id="text_15">
    <!-- bbob-constrained f2, f8, f14, f20, f26, f32, f38, f44, f50, 40-D -->
    <g transform="translate(60.632064 17.582726)scale(0.102 -0.102)">
     <defs>
      <path d="M 4.890625 31.390625 
L 31.203125 31.390625 
L 31.203125 23.390625 
L 4.890625 23.390625 
z
" id="DejaVuSans-45"/>
      <path d="M 40.578125 39.3125 
Q 47.65625 37.796875 51.625 33 
Q 55.609375 28.21875 55.609375 21.1875 
Q 55.609375 10.40625 48.1875 4.484375 
Q 40.765625 -1.421875 27.09375 -1.421875 
Q 22.515625 -1.421875 17.65625 -0.515625 
Q 12.796875 0.390625 7.625 2.203125 
L 7.625 11.71875 
Q 11.71875 9.328125 16.59375 8.109375 
Q 21.484375 6.890625 26.8125 6.890625 
Q 36.078125 6.890625 40.9375 10.546875 
Q 45.796875 14.203125 45.796875 21.1875 
Q 45.796875 27.640625 41.28125 31.265625 
Q 36.765625 34.90625 28.71875 34.90625 
L 20.21875 34.90625 
L 20.21875 43.015625 
L 29.109375 43.015625 
Q 36.375 43.015625 40.234375 45.921875 
Q 44.09375 48.828125 44.09375 54.296875 
Q 44.09375 59.90625 40.109375 62.90625 
Q 36.140625 65.921875 28.71875 65.921875 
Q 24.65625 65.921875 20.015625 65.03125 
Q 15.375 64.15625 9.8125 62.3125 
L 9.8125 71.09375 
Q 15.4375 72.65625 20.34375 73.4375 
Q 25.25 74.21875 29.59375 74.21875 
Q 40.828125 74.21875 47.359375 69.109375 
Q 53.90625 64.015625 53.90625 55.328125 
Q 53.90625 49.265625 50.4375 45.09375 
Q 46.96875 40.921875 40.578125 39.3125 
z
" id="DejaVuSans-51"/>
      <path d="M 10.796875 72.90625 
L 49.515625 72.90625 
L 49.515625 64.59375 
L 19.828125 64.59375 
L 19.828125 46.734375 
Q 21.96875 47.46875 24.109375 47.828125 
Q 26.265625 48.1875 28.421875 48.1875 
Q 40.625 48.1875 47.75 41.5 
Q 54.890625 34.8125 54.890625 23.390625 
Q 54.890625 11.625 47.5625 5.09375 
Q 40.234375 -1.421875 26.90625 -1.421875 
Q 22.3125 -1.421875 17.546875 -0.640625 
Q 12.796875 0.140625 7.71875 1.703125 
L 7.71875 11.625 
Q 12.109375 9.234375 16.796875 8.0625 
Q 21.484375 6.890625 26.703125 6.890625 
Q 35.15625 6.890625 40.078125 11.328125 
Q 45.015625 15.765625 45.015625 23.390625 
Q 45.015625 31 40.078125 35.4375 
Q 35.15625 39.890625 26.703125 39.890625 
Q 22.75 39.890625 18.8125 39.015625 
Q 14.890625 38.140625 10.796875 36.28125 
z
" id="DejaVuSans-53"/>
      <path d="M 19.671875 64.796875 
L 19.671875 8.109375 
L 31.59375 8.109375 
Q 46.6875 8.109375 53.6875 14.9375 
Q 60.6875 21.78125 60.6875 36.53125 
Q 60.6875 51.171875 53.6875 57.984375 
Q 46.6875 64.796875 31.59375 64.796875 
z
M 9.8125 72.90625 
L 30.078125 72.90625 
Q 51.265625 72.90625 61.171875 64.09375 
Q 71.09375 55.28125 71.09375 36.53125 
Q 71.09375 17.671875 61.125 8.828125 
Q 51.171875 0 30.078125 0 
L 9.8125 0 
z
" id="DejaVuSans-68"/>
     </defs>
     <use xlink:href="#DejaVuSans-98"/>
     <use x="63.476562" xlink:href="#DejaVuSans-98"/>
     <use x="126.953125" xlink:href="#DejaVuSans-111"/>
     <use x="188.134766" xlink:href="#DejaVuSans-98"/>
     <use x="251.611328" xlink:href="#DejaVuSans-45"/>
     <use x="287.695312" xlink:href="#DejaVuSans-99"/>
     <use x="342.675781" xlink:href="#DejaVuSans-111"/>
     <use x="403.857422" xlink:href="#DejaVuSans-110"/>
     <use x="467.236328" xlink:href="#DejaVuSans-115"/>
     <use x="519.335938" xlink:href="#DejaVuSans-116"/>
     <use x="558.544922" xlink:href="#DejaVuSans-114"/>
     <use x="599.658203" xlink:href="#DejaVuSans-97"/>
     <use x="660.9375" xlink:href="#DejaVuSans-105"/>
     <use x="688.720703" xlink:href="#DejaVuSans-110"/>
     <use x="752.099609" xlink:href="#DejaVuSans-101"/>
     <use x="813.623047" xlink:href="#DejaVuSans-100"/>
     <use x="877.099609" xlink:href="#DejaVuSans-32"/>
     <use x="908.886719" xlink:href="#DejaVuSans-102"/>
     <use x="944.091797" xlink:href="#DejaVuSans-50"/>
     <use x="1007.714844" xlink:href="#DejaVuSans-44"/>
     <use x="1039.501953" xlink:href="#DejaVuSans-32"/>
     <use x="1071.289062" xlink:href="#DejaVuSans-102"/>
     <use x="1106.494141" xlink:href="#DejaVuSans-56"/>
     <use x="1170.117188" xlink:href="#DejaVuSans-44"/>
     <use x="1201.904297" xlink:href="#DejaVuSans-32"/>
     <use x="1233.691406" xlink:href="#DejaVuSans-102"/>
     <use x="1268.896484" xlink:href="#DejaVuSans-49"/>
     <use x="1332.519531" xlink:href="#DejaVuSans-52"/>
     <use x="1396.142578" xlink:href="#DejaVuSans-44"/>
     <use x="1427.929688" xlink:href="#DejaVuSans-32"/>
     <use x="1459.716797" xlink:href="#DejaVuSans-102"/>
     <use x="1494.921875" xlink:href="#DejaVuSans-50"/>
     <use x="1558.544922" xlink:href="#DejaVuSans-48"/>
     <use x="1622.167969" xlink:href="#DejaVuSans-44"/>
     <use x="1653.955078" xlink:href="#DejaVuSans-32"/>
     <use x="1685.742188" xlink:href="#DejaVuSans-102"/>
     <use x="1720.947266" xlink:href="#DejaVuSans-50"/>
     <use x="1784.570312" xlink:href="#DejaVuSans-54"/>
     <use x="1848.193359" xlink:href="#DejaVuSans-44"/>
     <use x="1879.980469" xlink:href="#DejaVuSans-32"/>
     <use x="1911.767578" xlink:href="#DejaVuSans-102"/>
     <use x="1946.972656" xlink:href="#DejaVuSans-51"/>
     <use x="2010.595703" xlink:href="#DejaVuSans-50"/>
     <use x="2074.21875" xlink:href="#DejaVuSans-44"/>
     <use x="2106.005859" xlink:href="#DejaVuSans-32"/>
     <use x="2137.792969" xlink:href="#DejaVuSans-102"/>
     <use x="2172.998047" xlink:href="#DejaVuSans-51"/>
     <use x="2236.621094" xlink:href="#DejaVuSans-56"/>
     <use x="2300.244141" xlink:href="#DejaVuSans-44"/>
     <use x="2332.03125" xlink:href="#DejaVuSans-32"/>
     <use x="2363.818359" xlink:href="#DejaVuSans-102"/>
     <use x="2399.023438" xlink:href="#DejaVuSans-52"/>
     <use x="2462.646484" xlink:href="#DejaVuSans-52"/>
     <use x="2526.269531" xlink:href="#DejaVuSans-44"/>
     <use x="2558.056641" xlink:href="#DejaVuSans-32"/>
     <use x="2589.84375" xlink:href="#DejaVuSans-102"/>
     <use x="2625.048828" xlink:href="#DejaVuSans-53"/>
     <use x="2688.671875" xlink:href="#DejaVuSans-48"/>
     <use x="2752.294922" xlink:href="#DejaVuSans-44"/>
     <use x="2784.082031" xlink:href="#DejaVuSans-32"/>
     <use x="2815.869141" xlink:href="#DejaVuSans-52"/>
     <use x="2879.492188" xlink:href="#DejaVuSans-48"/>
     <use x="2943.115234" xlink:href="#DejaVuSans-45"/>
     <use x="2979.199219" xlink:href="#DejaVuSans-68"/>
    </g>
    <!-- 41 targets: 100..1e-06 -->
    <g transform="translate(60.632064 29.004495)scale(0.102 -0.102)">
     <defs>
      <path d="M 11.71875 12.40625 
L 22.015625 12.40625 
L 22.015625 0 
L 11.71875 0 
z
M 11.71875 51.703125 
L 22.015625 51.703125 
L 22.015625 39.3125 
L 11.71875 39.3125 
z
" id="DejaVuSans-58"/>
     </defs>
     <use xlink:href="#DejaVuSans-52"/>
     <use x="63.623047" xlink:href="#DejaVuSans-49"/>
     <use x="127.246094" xlink:href="#DejaVuSans-32"/>
     <use x="159.033203" xlink:href="#DejaVuSans-116"/>
     <use x="198.242188" xlink:href="#DejaVuSans-97"/>
     <use x="259.521484" xlink:href="#DejaVuSans-114"/>
     <use x="298.884766" xlink:href="#DejaVuSans-103"/>
     <use x="362.361328" xlink:href="#DejaVuSans-101"/>
     <use x="423.884766" xlink:href="#DejaVuSans-116"/>
     <use x="463.09375" xlink:href="#DejaVuSans-115"/>
     <use x="515.193359" xlink:href="#DejaVuSans-58"/>
     <use x="548.884766" xlink:href="#DejaVuSans-32"/>
     <use x="580.671875" xlink:href="#DejaVuSans-49"/>
     <use x="644.294922" xlink:href="#DejaVuSans-48"/>
     <use x="707.917969" xlink:href="#DejaVuSans-48"/>
     <use x="771.541016" xlink:href="#DejaVuSans-46"/>
     <use x="803.328125" xlink:href="#DejaVuSans-46"/>
     <use x="835.115234" xlink:href="#DejaVuSans-49"/>
     <use x="898.738281" xlink:href="#DejaVuSans-101"/>
     <use x="960.261719" xlink:href="#DejaVuSans-45"/>
     <use x="996.345703" xlink:href="#DejaVuSans-48"/>
     <use x="1059.96875" xlink:href="#DejaVuSans-54"/>
    </g>
    <!-- evals = f-evals + g-evals -->
    <g transform="translate(60.632064 40.426264)scale(0.102 -0.102)">
     <defs>
      <path d="M 10.59375 45.40625 
L 73.1875 45.40625 
L 73.1875 37.203125 
L 10.59375 37.203125 
z
M 10.59375 25.484375 
L 73.1875 25.484375 
L 73.1875 17.1875 
L 10.59375 17.1875 
z
" id="DejaVuSans-61"/>
      <path d="M 46 62.703125 
L 46 35.5 
L 73.1875 35.5 
L 73.1875 27.203125 
L 46 27.203125 
L 46 0 
L 37.796875 0 
L 37.796875 27.203125 
L 10.59375 27.203125 
L 10.59375 35.5 
L 37.796875 35.5 
L 37.796875 62.703125 
z
" id="DejaVuSans-43"/>
     </defs>
     <use xlink:href="#DejaVuSans-101"/>
     <use x="61.523438" xlink:href="#DejaVuSans-118"/>
     <use x="120.703125" xlink:href="#DejaVuSans-97"/>
     <use x="181.982422" xlink:href="#DejaVuSans-108"/>
     <use x="209.765625" xlink:href="#DejaVuSans-115"/>
     <use x="261.865234" xlink:href="#DejaVuSans-32"/>
     <use x="293.652344" xlink:href="#DejaVuSans-61"/>
     <use x="377.441406" xlink:href="#DejaVuSans-32"/>
     <use x="409.228516" xlink:href="#DejaVuSans-102"/>
     <use x="438.933594" xlink:href="#DejaVuSans-45"/>
     <use x="475.017578" xlink:href="#DejaVuSans-101"/>
     <use x="536.541016" xlink:href="#DejaVuSans-118"/>
     <use x="595.720703" xlink:href="#DejaVuSans-97"/>
     <use x="657" xlink:href="#DejaVuSans-108"/>
     <use x="684.783203" xlink:href="#DejaVuSans-115"/>
     <use x="736.882812" xlink:href="#DejaVuSans-32"/>
     <use x="768.669922" xlink:href="#DejaVuSans-43"/>
     <use x="852.458984" xlink:href="#DejaVuSans-32"/>
     <use x="884.246094" xlink:href="#DejaVuSans-103"/>
     <use x="947.722656" xlink:href="#DejaVuSans-45"/>
     <use x="983.806641" xlink:href="#DejaVuSans-101"/>
     <use x="1045.330078" xlink:href="#DejaVuSans-118"/>
     <use x="1104.509766" xlink:href="#DejaVuSans-97"/>
     <use x="1165.789062" xlink:href="#DejaVuSans-108"/>
     <use x="1193.572266" xlink:href="#DejaVuSans-115"/>
    </g>
    <!-- 15 instances -->
    <g transform="translate(60.632064 51.848032)scale(0.102 -0.102)">
     <use xlink:href="#DejaVuSans-49"/>
     <use x="63.623047" xlink:href="#DejaVuSans-53"/>
     <use x="127.246094" xlink:href="#DejaVuSans-32"/>
     <use x="159.033203" xlink:href="#DejaVuSans-105"/>
     <use x="186.816406" xlink:href="#DejaVuSans-110"/>
     <use x="250.195312" xlink:href="#DejaVuSans-115"/>
     <use x="302.294922" xlink:href="#DejaVuSans-116"/>
     <use x="341.503906" xlink:href="#DejaVuSans-97"/>
     <use x="402.783203" xlink:href="#DejaVuSans-110"/>
     <use x="466.162109" xlink:href="#DejaVuSans-99"/>
     <use x="521.142578" xlink:href="#DejaVuSans-101"/>
     <use x="582.666016" xlink:href="#DejaVuSans-115"/>
    </g>
   </g>
   <g id="text_16">
    <!-- v2.4.159 -->
    <g style="fill:#808080;" transform="translate(187.15945 293.943992)scale(0.1 -0.1)">
     <defs>
      <path d="M 10.984375 1.515625 
L 10.984375 10.5 
Q 14.703125 8.734375 18.5 7.8125 
Q 22.3125 6.890625 25.984375 6.890625 
Q 35.75 6.890625 40.890625 13.453125 
Q 46.046875 20.015625 46.78125 33.40625 
Q 43.953125 29.203125 39.59375 26.953125 
Q 35.25 24.703125 29.984375 24.703125 
Q 19.046875 24.703125 12.671875 31.3125 
Q 6.296875 37.9375 6.296875 49.421875 
Q 6.296875 60.640625 12.9375 67.421875 
Q 19.578125 74.21875 30.609375 74.21875 
Q 43.265625 74.21875 49.921875 64.515625 
Q 56.59375 54.828125 56.59375 36.375 
Q 56.59375 19.140625 48.40625 8.859375 
Q 40.234375 -1.421875 26.421875 -1.421875 
Q 22.703125 -1.421875 18.890625 -0.6875 
Q 15.09375 0.046875 10.984375 1.515625 
z
M 30.609375 32.421875 
Q 37.25 32.421875 41.125 36.953125 
Q 45.015625 41.5 45.015625 49.421875 
Q 45.015625 57.28125 41.125 61.84375 
Q 37.25 66.40625 30.609375 66.40625 
Q 23.96875 66.40625 20.09375 61.84375 
Q 16.21875 57.28125 16.21875 49.421875 
Q 16.21875 41.5 20.09375 36.953125 
Q 23.96875 32.421875 30.609375 32.421875 
z
" id="DejaVuSans-57"/>
     </defs>
     <use xlink:href="#DejaVuSans-118"/>
     <use x="59.179688" xlink:href="#DejaVuSans-50"/>
     <use x="122.802734" xlink:href="#DejaVuSans-46"/>
     <use x="154.589844" xlink:href="#DejaVuSans-52"/>
     <use x="218.212891" xlink:href="#DejaVuSans-46"/>
     <use x="250" xlink:href="#DejaVuSans-49"/>
     <use x="313.623047" xlink:href="#DejaVuSans-53"/>
     <use x="377.246094" xlink:href="#DejaVuSans-57"/>
    </g>
   </g>
  </g>
 </g>
 <defs>
  <clipPath id="pac6208cb90">
   <rect height="292.032" width="303.2064" x="57.6" y="6.912"/>
  </clipPath>
 </defs>
</svg>
