<?xml version="1.0" encoding="utf-8" standalone="no"?>
<!DOCTYPE svg PUBLIC "-//W3C//DTD SVG 1.1//EN"
  "http://www.w3.org/Graphics/SVG/1.1/DTD/svg11.dtd">
<!-- Created with matplotlib (https://matplotlib.org/) -->
<svg height="345.6pt" version="1.1" viewBox="0 0 460.8 345.6" width="460.8pt" xmlns="http://www.w3.org/2000/svg" xmlns:xlink="http://www.w3.org/1999/xlink">
 <metadata>
  <rdf:RDF xmlns:cc="http://creativecommons.org/ns#" xmlns:dc="http://purl.org/dc/elements/1.1/" xmlns:rdf="http://www.w3.org/1999/02/22-rdf-syntax-ns#">
   <cc:Work>
    <dc:type rdf:resource="http://purl.org/dc/dcmitype/StillImage"/>
    <dc:date>2022-02-09T00:08:07.789422</dc:date>
    <dc:format>image/svg+xml</dc:format>
    <dc:creator>
     <cc:Agent>
      <dc:title>Matplotlib v3.3.3, https://matplotlib.org/</dc:title>
     </cc:Agent>
    </dc:creator>
   </cc:Work>
  </rdf:RDF>
 </metadata>
 <defs>
  <style type="text/css">*{stroke-linecap:butt;stroke-linejoin:round;}</style>
 </defs>
 <g id="figure_1">
  <g id="patch_1">
   <path d="M 0 345.6 
L 460.8 345.6 
L 460.8 0 
L 0 0 
z
" style="fill:#ffffff;"/>
  </g>
  <g id="axes_1">
   <g id="patch_2">
    <path d="M 57.6 298.944 
L 360.8064 298.944 
L 360.8064 27.648 
L 57.6 27.648 
z
" style="fill:#ffffff;"/>
   </g>
   <g id="matplotlib.axis_1">
    <g id="xtick_1">
     <g id="line2d_1">
      <path clip-path="url(#p78545fccf3)" d="M 57.6 298.944 
L 57.6 27.648 
" style="fill:none;stroke:#b0b0b0;stroke-linecap:square;stroke-width:0.8;"/>
     </g>
     <g id="line2d_2">
      <defs>
       <path d="M 0 0 
L 0 3.5 
" id="m8dd4fd3aa8" style="stroke:#000000;stroke-width:0.8;"/>
      </defs>
      <g>
       <use style="stroke:#000000;stroke-width:0.8;" x="57.6" xlink:href="#m8dd4fd3aa8" y="298.944"/>
      </g>
     </g>
     <g id="text_1">
      <!-- 0 -->
      <g transform="translate(52.191875 318.861344)scale(0.17 -0.17)">
       <defs>
        <path d="M 31.78125 66.40625 
Q 24.171875 66.40625 20.328125 58.90625 
Q 16.5 51.421875 16.5 36.375 
Q 16.5 21.390625 20.328125 13.890625 
Q 24.171875 6.390625 31.78125 6.390625 
Q 39.453125 6.390625 43.28125 13.890625 
Q 47.125 21.390625 47.125 36.375 
Q 47.125 51.421875 43.28125 58.90625 
Q 39.453125 66.40625 31.78125 66.40625 
z
M 31.78125 74.21875 
Q 44.046875 74.21875 50.515625 64.515625 
Q 56.984375 54.828125 56.984375 36.375 
Q 56.984375 17.96875 50.515625 8.265625 
Q 44.046875 -1.421875 31.78125 -1.421875 
Q 19.53125 -1.421875 13.0625 8.265625 
Q 6.59375 17.96875 6.59375 36.375 
Q 6.59375 54.828125 13.0625 64.515625 
Q 19.53125 74.21875 31.78125 74.21875 
z
" id="DejaVuSans-48"/>
       </defs>
       <use xlink:href="#DejaVuSans-48"/>
      </g>
     </g>
    </g>
    <g id="xtick_2">
     <g id="line2d_3">
      <path clip-path="url(#p78545fccf3)" d="M 144.2304 298.944 
L 144.2304 27.648 
" style="fill:none;stroke:#b0b0b0;stroke-linecap:square;stroke-width:0.8;"/>
     </g>
     <g id="line2d_4">
      <g>
       <use style="stroke:#000000;stroke-width:0.8;" x="144.2304" xlink:href="#m8dd4fd3aa8" y="298.944"/>
      </g>
     </g>
     <g id="text_2">
      <!-- 2 -->
      <g transform="translate(138.822275 318.861344)scale(0.17 -0.17)">
       <defs>
        <path d="M 19.1875 8.296875 
L 53.609375 8.296875 
L 53.609375 0 
L 7.328125 0 
L 7.328125 8.296875 
Q 12.9375 14.109375 22.625 23.890625 
Q 32.328125 33.6875 34.8125 36.53125 
Q 39.546875 41.84375 41.421875 45.53125 
Q 43.3125 49.21875 43.3125 52.78125 
Q 43.3125 58.59375 39.234375 62.25 
Q 35.15625 65.921875 28.609375 65.921875 
Q 23.96875 65.921875 18.8125 64.3125 
Q 13.671875 62.703125 7.8125 59.421875 
L 7.8125 69.390625 
Q 13.765625 71.78125 18.9375 73 
Q 24.125 74.21875 28.421875 74.21875 
Q 39.75 74.21875 46.484375 68.546875 
Q 53.21875 62.890625 53.21875 53.421875 
Q 53.21875 48.921875 51.53125 44.890625 
Q 49.859375 40.875 45.40625 35.40625 
Q 44.1875 33.984375 37.640625 27.21875 
Q 31.109375 20.453125 19.1875 8.296875 
z
" id="DejaVuSans-50"/>
       </defs>
       <use xlink:href="#DejaVuSans-50"/>
      </g>
     </g>
    </g>
    <g id="xtick_3">
     <g id="line2d_5">
      <path clip-path="url(#p78545fccf3)" d="M 230.8608 298.944 
L 230.8608 27.648 
" style="fill:none;stroke:#b0b0b0;stroke-linecap:square;stroke-width:0.8;"/>
     </g>
     <g id="line2d_6">
      <g>
       <use style="stroke:#000000;stroke-width:0.8;" x="230.8608" xlink:href="#m8dd4fd3aa8" y="298.944"/>
      </g>
     </g>
     <g id="text_3">
      <!-- 4 -->
      <g transform="translate(225.452675 318.861344)scale(0.17 -0.17)">
       <defs>
        <path d="M 37.796875 64.3125 
L 12.890625 25.390625 
L 37.796875 25.390625 
z
M 35.203125 72.90625 
L 47.609375 72.90625 
L 47.609375 25.390625 
L 58.015625 25.390625 
L 58.015625 17.1875 
L 47.609375 17.1875 
L 47.609375 0 
L 37.796875 0 
L 37.796875 17.1875 
L 4.890625 17.1875 
L 4.890625 26.703125 
z
" id="DejaVuSans-52"/>
       </defs>
       <use xlink:href="#DejaVuSans-52"/>
      </g>
     </g>
    </g>
    <g id="xtick_4">
     <g id="line2d_7">
      <path clip-path="url(#p78545fccf3)" d="M 317.4912 298.944 
L 317.4912 27.648 
" style="fill:none;stroke:#b0b0b0;stroke-linecap:square;stroke-width:0.8;"/>
     </g>
     <g id="line2d_8">
      <g>
       <use style="stroke:#000000;stroke-width:0.8;" x="317.4912" xlink:href="#m8dd4fd3aa8" y="298.944"/>
      </g>
     </g>
     <g id="text_4">
      <!-- 6 -->
      <g transform="translate(312.083075 318.861344)scale(0.17 -0.17)">
       <defs>
        <path d="M 33.015625 40.375 
Q 26.375 40.375 22.484375 35.828125 
Q 18.609375 31.296875 18.609375 23.390625 
Q 18.609375 15.53125 22.484375 10.953125 
Q 26.375 6.390625 33.015625 6.390625 
Q 39.65625 6.390625 43.53125 10.953125 
Q 47.40625 15.53125 47.40625 23.390625 
Q 47.40625 31.296875 43.53125 35.828125 
Q 39.65625 40.375 33.015625 40.375 
z
M 52.59375 71.296875 
L 52.59375 62.3125 
Q 48.875 64.0625 45.09375 64.984375 
Q 41.3125 65.921875 37.59375 65.921875 
Q 27.828125 65.921875 22.671875 59.328125 
Q 17.53125 52.734375 16.796875 39.40625 
Q 19.671875 43.65625 24.015625 45.921875 
Q 28.375 48.1875 33.59375 48.1875 
Q 44.578125 48.1875 50.953125 41.515625 
Q 57.328125 34.859375 57.328125 23.390625 
Q 57.328125 12.15625 50.6875 5.359375 
Q 44.046875 -1.421875 33.015625 -1.421875 
Q 20.359375 -1.421875 13.671875 8.265625 
Q 6.984375 17.96875 6.984375 36.375 
Q 6.984375 53.65625 15.1875 63.9375 
Q 23.390625 74.21875 37.203125 74.21875 
Q 40.921875 74.21875 44.703125 73.484375 
Q 48.484375 72.75 52.59375 71.296875 
z
" id="DejaVuSans-54"/>
       </defs>
       <use xlink:href="#DejaVuSans-54"/>
      </g>
     </g>
    </g>
    <g id="xtick_5">
     <g id="line2d_9">
      <path clip-path="url(#p78545fccf3)" d="M 100.9152 298.944 
L 100.9152 27.648 
" style="fill:none;stroke:#b0b0b0;stroke-linecap:square;stroke-width:0.8;"/>
     </g>
     <g id="line2d_10">
      <defs>
       <path d="M 0 0 
L 0 2 
" id="m052d36b410" style="stroke:#000000;stroke-width:0.6;"/>
      </defs>
      <g>
       <use style="stroke:#000000;stroke-width:0.6;" x="100.9152" xlink:href="#m052d36b410" y="298.944"/>
      </g>
     </g>
    </g>
    <g id="xtick_6">
     <g id="line2d_11">
      <path clip-path="url(#p78545fccf3)" d="M 187.5456 298.944 
L 187.5456 27.648 
" style="fill:none;stroke:#b0b0b0;stroke-linecap:square;stroke-width:0.8;"/>
     </g>
     <g id="line2d_12">
      <g>
       <use style="stroke:#000000;stroke-width:0.6;" x="187.5456" xlink:href="#m052d36b410" y="298.944"/>
      </g>
     </g>
    </g>
    <g id="xtick_7">
     <g id="line2d_13">
      <path clip-path="url(#p78545fccf3)" d="M 274.176 298.944 
L 274.176 27.648 
" style="fill:none;stroke:#b0b0b0;stroke-linecap:square;stroke-width:0.8;"/>
     </g>
     <g id="line2d_14">
      <g>
       <use style="stroke:#000000;stroke-width:0.6;" x="274.176" xlink:href="#m052d36b410" y="298.944"/>
      </g>
     </g>
    </g>
    <g id="xtick_8">
     <g id="line2d_15">
      <path clip-path="url(#p78545fccf3)" d="M 360.8064 298.944 
L 360.8064 27.648 
" style="fill:none;stroke:#b0b0b0;stroke-linecap:square;stroke-width:0.8;"/>
     </g>
     <g id="line2d_16">
      <g>
       <use style="stroke:#000000;stroke-width:0.6;" x="360.8064" xlink:href="#m052d36b410" y="298.944"/>
      </g>
     </g>
    </g>
    <g id="text_5">
     <!-- log10(evals / dimension) -->
     <g transform="translate(104.238825 339.314156)scale(0.17 -0.17)">
      <defs>
       <path d="M 9.421875 75.984375 
L 18.40625 75.984375 
L 18.40625 0 
L 9.421875 0 
z
" id="DejaVuSans-108"/>
       <path d="M 30.609375 48.390625 
Q 23.390625 48.390625 19.1875 42.75 
Q 14.984375 37.109375 14.984375 27.296875 
Q 14.984375 17.484375 19.15625 11.84375 
Q 23.34375 6.203125 30.609375 6.203125 
Q 37.796875 6.203125 41.984375 11.859375 
Q 46.1875 17.53125 46.1875 27.296875 
Q 46.1875 37.015625 41.984375 42.703125 
Q 37.796875 48.390625 30.609375 48.390625 
z
M 30.609375 56 
Q 42.328125 56 49.015625 48.375 
Q 55.71875 40.765625 55.71875 27.296875 
Q 55.71875 13.875 49.015625 6.21875 
Q 42.328125 -1.421875 30.609375 -1.421875 
Q 18.84375 -1.421875 12.171875 6.21875 
Q 5.515625 13.875 5.515625 27.296875 
Q 5.515625 40.765625 12.171875 48.375 
Q 18.84375 56 30.609375 56 
z
" id="DejaVuSans-111"/>
       <path d="M 45.40625 27.984375 
Q 45.40625 37.75 41.375 43.109375 
Q 37.359375 48.484375 30.078125 48.484375 
Q 22.859375 48.484375 18.828125 43.109375 
Q 14.796875 37.75 14.796875 27.984375 
Q 14.796875 18.265625 18.828125 12.890625 
Q 22.859375 7.515625 30.078125 7.515625 
Q 37.359375 7.515625 41.375 12.890625 
Q 45.40625 18.265625 45.40625 27.984375 
z
M 54.390625 6.78125 
Q 54.390625 -7.171875 48.1875 -13.984375 
Q 42 -20.796875 29.203125 -20.796875 
Q 24.46875 -20.796875 20.265625 -20.09375 
Q 16.0625 -19.390625 12.109375 -17.921875 
L 12.109375 -9.1875 
Q 16.0625 -11.328125 19.921875 -12.34375 
Q 23.78125 -13.375 27.78125 -13.375 
Q 36.625 -13.375 41.015625 -8.765625 
Q 45.40625 -4.15625 45.40625 5.171875 
L 45.40625 9.625 
Q 42.625 4.78125 38.28125 2.390625 
Q 33.9375 0 27.875 0 
Q 17.828125 0 11.671875 7.65625 
Q 5.515625 15.328125 5.515625 27.984375 
Q 5.515625 40.671875 11.671875 48.328125 
Q 17.828125 56 27.875 56 
Q 33.9375 56 38.28125 53.609375 
Q 42.625 51.21875 45.40625 46.390625 
L 45.40625 54.6875 
L 54.390625 54.6875 
z
" id="DejaVuSans-103"/>
       <path d="M 12.40625 8.296875 
L 28.515625 8.296875 
L 28.515625 63.921875 
L 10.984375 60.40625 
L 10.984375 69.390625 
L 28.421875 72.90625 
L 38.28125 72.90625 
L 38.28125 8.296875 
L 54.390625 8.296875 
L 54.390625 0 
L 12.40625 0 
z
" id="DejaVuSans-49"/>
       <path d="M 31 75.875 
Q 24.46875 64.65625 21.28125 53.65625 
Q 18.109375 42.671875 18.109375 31.390625 
Q 18.109375 20.125 21.3125 9.0625 
Q 24.515625 -2 31 -13.1875 
L 23.1875 -13.1875 
Q 15.875 -1.703125 12.234375 9.375 
Q 8.59375 20.453125 8.59375 31.390625 
Q 8.59375 42.28125 12.203125 53.3125 
Q 15.828125 64.359375 23.1875 75.875 
z
" id="DejaVuSans-40"/>
       <path d="M 56.203125 29.59375 
L 56.203125 25.203125 
L 14.890625 25.203125 
Q 15.484375 15.921875 20.484375 11.0625 
Q 25.484375 6.203125 34.421875 6.203125 
Q 39.59375 6.203125 44.453125 7.46875 
Q 49.3125 8.734375 54.109375 11.28125 
L 54.109375 2.78125 
Q 49.265625 0.734375 44.1875 -0.34375 
Q 39.109375 -1.421875 33.890625 -1.421875 
Q 20.796875 -1.421875 13.15625 6.1875 
Q 5.515625 13.8125 5.515625 26.8125 
Q 5.515625 40.234375 12.765625 48.109375 
Q 20.015625 56 32.328125 56 
Q 43.359375 56 49.78125 48.890625 
Q 56.203125 41.796875 56.203125 29.59375 
z
M 47.21875 32.234375 
Q 47.125 39.59375 43.09375 43.984375 
Q 39.0625 48.390625 32.421875 48.390625 
Q 24.90625 48.390625 20.390625 44.140625 
Q 15.875 39.890625 15.1875 32.171875 
z
" id="DejaVuSans-101"/>
       <path d="M 2.984375 54.6875 
L 12.5 54.6875 
L 29.59375 8.796875 
L 46.6875 54.6875 
L 56.203125 54.6875 
L 35.6875 0 
L 23.484375 0 
z
" id="DejaVuSans-118"/>
       <path d="M 34.28125 27.484375 
Q 23.390625 27.484375 19.1875 25 
Q 14.984375 22.515625 14.984375 16.5 
Q 14.984375 11.71875 18.140625 8.90625 
Q 21.296875 6.109375 26.703125 6.109375 
Q 34.1875 6.109375 38.703125 11.40625 
Q 43.21875 16.703125 43.21875 25.484375 
L 43.21875 27.484375 
z
M 52.203125 31.203125 
L 52.203125 0 
L 43.21875 0 
L 43.21875 8.296875 
Q 40.140625 3.328125 35.546875 0.953125 
Q 30.953125 -1.421875 24.3125 -1.421875 
Q 15.921875 -1.421875 10.953125 3.296875 
Q 6 8.015625 6 15.921875 
Q 6 25.140625 12.171875 29.828125 
Q 18.359375 34.515625 30.609375 34.515625 
L 43.21875 34.515625 
L 43.21875 35.40625 
Q 43.21875 41.609375 39.140625 45 
Q 35.0625 48.390625 27.6875 48.390625 
Q 23 48.390625 18.546875 47.265625 
Q 14.109375 46.140625 10.015625 43.890625 
L 10.015625 52.203125 
Q 14.9375 54.109375 19.578125 55.046875 
Q 24.21875 56 28.609375 56 
Q 40.484375 56 46.34375 49.84375 
Q 52.203125 43.703125 52.203125 31.203125 
z
" id="DejaVuSans-97"/>
       <path d="M 44.28125 53.078125 
L 44.28125 44.578125 
Q 40.484375 46.53125 36.375 47.5 
Q 32.28125 48.484375 27.875 48.484375 
Q 21.1875 48.484375 17.84375 46.4375 
Q 14.5 44.390625 14.5 40.28125 
Q 14.5 37.15625 16.890625 35.375 
Q 19.28125 33.59375 26.515625 31.984375 
L 29.59375 31.296875 
Q 39.15625 29.25 43.1875 25.515625 
Q 47.21875 21.78125 47.21875 15.09375 
Q 47.21875 7.46875 41.1875 3.015625 
Q 35.15625 -1.421875 24.609375 -1.421875 
Q 20.21875 -1.421875 15.453125 -0.5625 
Q 10.6875 0.296875 5.421875 2 
L 5.421875 11.28125 
Q 10.40625 8.6875 15.234375 7.390625 
Q 20.0625 6.109375 24.8125 6.109375 
Q 31.15625 6.109375 34.5625 8.28125 
Q 37.984375 10.453125 37.984375 14.40625 
Q 37.984375 18.0625 35.515625 20.015625 
Q 33.0625 21.96875 24.703125 23.78125 
L 21.578125 24.515625 
Q 13.234375 26.265625 9.515625 29.90625 
Q 5.8125 33.546875 5.8125 39.890625 
Q 5.8125 47.609375 11.28125 51.796875 
Q 16.75 56 26.8125 56 
Q 31.78125 56 36.171875 55.265625 
Q 40.578125 54.546875 44.28125 53.078125 
z
" id="DejaVuSans-115"/>
       <path id="DejaVuSans-32"/>
       <path d="M 25.390625 72.90625 
L 33.6875 72.90625 
L 8.296875 -9.28125 
L 0 -9.28125 
z
" id="DejaVuSans-47"/>
       <path d="M 45.40625 46.390625 
L 45.40625 75.984375 
L 54.390625 75.984375 
L 54.390625 0 
L 45.40625 0 
L 45.40625 8.203125 
Q 42.578125 3.328125 38.25 0.953125 
Q 33.9375 -1.421875 27.875 -1.421875 
Q 17.96875 -1.421875 11.734375 6.484375 
Q 5.515625 14.40625 5.515625 27.296875 
Q 5.515625 40.1875 11.734375 48.09375 
Q 17.96875 56 27.875 56 
Q 33.9375 56 38.25 53.625 
Q 42.578125 51.265625 45.40625 46.390625 
z
M 14.796875 27.296875 
Q 14.796875 17.390625 18.875 11.75 
Q 22.953125 6.109375 30.078125 6.109375 
Q 37.203125 6.109375 41.296875 11.75 
Q 45.40625 17.390625 45.40625 27.296875 
Q 45.40625 37.203125 41.296875 42.84375 
Q 37.203125 48.484375 30.078125 48.484375 
Q 22.953125 48.484375 18.875 42.84375 
Q 14.796875 37.203125 14.796875 27.296875 
z
" id="DejaVuSans-100"/>
       <path d="M 9.421875 54.6875 
L 18.40625 54.6875 
L 18.40625 0 
L 9.421875 0 
z
M 9.421875 75.984375 
L 18.40625 75.984375 
L 18.40625 64.59375 
L 9.421875 64.59375 
z
" id="DejaVuSans-105"/>
       <path d="M 52 44.1875 
Q 55.375 50.25 60.0625 53.125 
Q 64.75 56 71.09375 56 
Q 79.640625 56 84.28125 50.015625 
Q 88.921875 44.046875 88.921875 33.015625 
L 88.921875 0 
L 79.890625 0 
L 79.890625 32.71875 
Q 79.890625 40.578125 77.09375 44.375 
Q 74.3125 48.1875 68.609375 48.1875 
Q 61.625 48.1875 57.5625 43.546875 
Q 53.515625 38.921875 53.515625 30.90625 
L 53.515625 0 
L 44.484375 0 
L 44.484375 32.71875 
Q 44.484375 40.625 41.703125 44.40625 
Q 38.921875 48.1875 33.109375 48.1875 
Q 26.21875 48.1875 22.15625 43.53125 
Q 18.109375 38.875 18.109375 30.90625 
L 18.109375 0 
L 9.078125 0 
L 9.078125 54.6875 
L 18.109375 54.6875 
L 18.109375 46.1875 
Q 21.1875 51.21875 25.484375 53.609375 
Q 29.78125 56 35.6875 56 
Q 41.65625 56 45.828125 52.96875 
Q 50 49.953125 52 44.1875 
z
" id="DejaVuSans-109"/>
       <path d="M 54.890625 33.015625 
L 54.890625 0 
L 45.90625 0 
L 45.90625 32.71875 
Q 45.90625 40.484375 42.875 44.328125 
Q 39.84375 48.1875 33.796875 48.1875 
Q 26.515625 48.1875 22.3125 43.546875 
Q 18.109375 38.921875 18.109375 30.90625 
L 18.109375 0 
L 9.078125 0 
L 9.078125 54.6875 
L 18.109375 54.6875 
L 18.109375 46.1875 
Q 21.34375 51.125 25.703125 53.5625 
Q 30.078125 56 35.796875 56 
Q 45.21875 56 50.046875 50.171875 
Q 54.890625 44.34375 54.890625 33.015625 
z
" id="DejaVuSans-110"/>
       <path d="M 8.015625 75.875 
L 15.828125 75.875 
Q 23.140625 64.359375 26.78125 53.3125 
Q 30.421875 42.28125 30.421875 31.390625 
Q 30.421875 20.453125 26.78125 9.375 
Q 23.140625 -1.703125 15.828125 -13.1875 
L 8.015625 -13.1875 
Q 14.5 -2 17.703125 9.0625 
Q 20.90625 20.125 20.90625 31.390625 
Q 20.90625 42.671875 17.703125 53.65625 
Q 14.5 64.65625 8.015625 75.875 
z
" id="DejaVuSans-41"/>
      </defs>
      <use xlink:href="#DejaVuSans-108"/>
      <use x="27.783203" xlink:href="#DejaVuSans-111"/>
      <use x="88.964844" xlink:href="#DejaVuSans-103"/>
      <use x="152.441406" xlink:href="#DejaVuSans-49"/>
      <use x="216.064453" xlink:href="#DejaVuSans-48"/>
      <use x="279.6875" xlink:href="#DejaVuSans-40"/>
      <use x="318.701172" xlink:href="#DejaVuSans-101"/>
      <use x="380.224609" xlink:href="#DejaVuSans-118"/>
      <use x="439.404297" xlink:href="#DejaVuSans-97"/>
      <use x="500.683594" xlink:href="#DejaVuSans-108"/>
      <use x="528.466797" xlink:href="#DejaVuSans-115"/>
      <use x="580.566406" xlink:href="#DejaVuSans-32"/>
      <use x="612.353516" xlink:href="#DejaVuSans-47"/>
      <use x="646.044922" xlink:href="#DejaVuSans-32"/>
      <use x="677.832031" xlink:href="#DejaVuSans-100"/>
      <use x="741.308594" xlink:href="#DejaVuSans-105"/>
      <use x="769.091797" xlink:href="#DejaVuSans-109"/>
      <use x="866.503906" xlink:href="#DejaVuSans-101"/>
      <use x="928.027344" xlink:href="#DejaVuSans-110"/>
      <use x="991.40625" xlink:href="#DejaVuSans-115"/>
      <use x="1043.505859" xlink:href="#DejaVuSans-105"/>
      <use x="1071.289062" xlink:href="#DejaVuSans-111"/>
      <use x="1132.470703" xlink:href="#DejaVuSans-110"/>
      <use x="1195.849609" xlink:href="#DejaVuSans-41"/>
     </g>
    </g>
   </g>
   <g id="matplotlib.axis_2">
    <g id="ytick_1">
     <g id="line2d_17">
      <path clip-path="url(#p78545fccf3)" d="M 57.6 298.944 
L 360.8064 298.944 
" style="fill:none;stroke:#b0b0b0;stroke-linecap:square;stroke-width:0.8;"/>
     </g>
     <g id="line2d_18">
      <defs>
       <path d="M 0 0 
L -3.5 0 
" id="mfa20f2337d" style="stroke:#000000;stroke-width:0.8;"/>
      </defs>
      <g>
       <use style="stroke:#000000;stroke-width:0.8;" x="57.6" xlink:href="#mfa20f2337d" y="298.944"/>
      </g>
     </g>
     <g id="text_6">
      <!-- 0.0 -->
      <g transform="translate(25.155 305.02275)scale(0.16 -0.16)">
       <defs>
        <path d="M 10.6875 12.40625 
L 21 12.40625 
L 21 0 
L 10.6875 0 
z
" id="DejaVuSans-46"/>
       </defs>
       <use xlink:href="#DejaVuSans-48"/>
       <use x="63.623047" xlink:href="#DejaVuSans-46"/>
       <use x="95.410156" xlink:href="#DejaVuSans-48"/>
      </g>
     </g>
    </g>
    <g id="ytick_2">
     <g id="line2d_19">
      <path clip-path="url(#p78545fccf3)" d="M 57.6 244.6848 
L 360.8064 244.6848 
" style="fill:none;stroke:#b0b0b0;stroke-linecap:square;stroke-width:0.8;"/>
     </g>
     <g id="line2d_20">
      <g>
       <use style="stroke:#000000;stroke-width:0.8;" x="57.6" xlink:href="#mfa20f2337d" y="244.6848"/>
      </g>
     </g>
     <g id="text_7">
      <!-- 0.2 -->
      <g transform="translate(25.155 250.76355)scale(0.16 -0.16)">
       <use xlink:href="#DejaVuSans-48"/>
       <use x="63.623047" xlink:href="#DejaVuSans-46"/>
       <use x="95.410156" xlink:href="#DejaVuSans-50"/>
      </g>
     </g>
    </g>
    <g id="ytick_3">
     <g id="line2d_21">
      <path clip-path="url(#p78545fccf3)" d="M 57.6 190.4256 
L 360.8064 190.4256 
" style="fill:none;stroke:#b0b0b0;stroke-linecap:square;stroke-width:0.8;"/>
     </g>
     <g id="line2d_22">
      <g>
       <use style="stroke:#000000;stroke-width:0.8;" x="57.6" xlink:href="#mfa20f2337d" y="190.4256"/>
      </g>
     </g>
     <g id="text_8">
      <!-- 0.4 -->
      <g transform="translate(25.155 196.50435)scale(0.16 -0.16)">
       <use xlink:href="#DejaVuSans-48"/>
       <use x="63.623047" xlink:href="#DejaVuSans-46"/>
       <use x="95.410156" xlink:href="#DejaVuSans-52"/>
      </g>
     </g>
    </g>
    <g id="ytick_4">
     <g id="line2d_23">
      <path clip-path="url(#p78545fccf3)" d="M 57.6 136.1664 
L 360.8064 136.1664 
" style="fill:none;stroke:#b0b0b0;stroke-linecap:square;stroke-width:0.8;"/>
     </g>
     <g id="line2d_24">
      <g>
       <use style="stroke:#000000;stroke-width:0.8;" x="57.6" xlink:href="#mfa20f2337d" y="136.1664"/>
      </g>
     </g>
     <g id="text_9">
      <!-- 0.6 -->
      <g transform="translate(25.155 142.24515)scale(0.16 -0.16)">
       <use xlink:href="#DejaVuSans-48"/>
       <use x="63.623047" xlink:href="#DejaVuSans-46"/>
       <use x="95.410156" xlink:href="#DejaVuSans-54"/>
      </g>
     </g>
    </g>
    <g id="ytick_5">
     <g id="line2d_25">
      <path clip-path="url(#p78545fccf3)" d="M 57.6 81.9072 
L 360.8064 81.9072 
" style="fill:none;stroke:#b0b0b0;stroke-linecap:square;stroke-width:0.8;"/>
     </g>
     <g id="line2d_26">
      <g>
       <use style="stroke:#000000;stroke-width:0.8;" x="57.6" xlink:href="#mfa20f2337d" y="81.9072"/>
      </g>
     </g>
     <g id="text_10">
      <!-- 0.8 -->
      <g transform="translate(25.155 87.98595)scale(0.16 -0.16)">
       <defs>
        <path d="M 31.78125 34.625 
Q 24.75 34.625 20.71875 30.859375 
Q 16.703125 27.09375 16.703125 20.515625 
Q 16.703125 13.921875 20.71875 10.15625 
Q 24.75 6.390625 31.78125 6.390625 
Q 38.8125 6.390625 42.859375 10.171875 
Q 46.921875 13.96875 46.921875 20.515625 
Q 46.921875 27.09375 42.890625 30.859375 
Q 38.875 34.625 31.78125 34.625 
z
M 21.921875 38.8125 
Q 15.578125 40.375 12.03125 44.71875 
Q 8.5 49.078125 8.5 55.328125 
Q 8.5 64.0625 14.71875 69.140625 
Q 20.953125 74.21875 31.78125 74.21875 
Q 42.671875 74.21875 48.875 69.140625 
Q 55.078125 64.0625 55.078125 55.328125 
Q 55.078125 49.078125 51.53125 44.71875 
Q 48 40.375 41.703125 38.8125 
Q 48.828125 37.15625 52.796875 32.3125 
Q 56.78125 27.484375 56.78125 20.515625 
Q 56.78125 9.90625 50.3125 4.234375 
Q 43.84375 -1.421875 31.78125 -1.421875 
Q 19.734375 -1.421875 13.25 4.234375 
Q 6.78125 9.90625 6.78125 20.515625 
Q 6.78125 27.484375 10.78125 32.3125 
Q 14.796875 37.15625 21.921875 38.8125 
z
M 18.3125 54.390625 
Q 18.3125 48.734375 21.84375 45.5625 
Q 25.390625 42.390625 31.78125 42.390625 
Q 38.140625 42.390625 41.71875 45.5625 
Q 45.3125 48.734375 45.3125 54.390625 
Q 45.3125 60.0625 41.71875 63.234375 
Q 38.140625 66.40625 31.78125 66.40625 
Q 25.390625 66.40625 21.84375 63.234375 
Q 18.3125 60.0625 18.3125 54.390625 
z
" id="DejaVuSans-56"/>
       </defs>
       <use xlink:href="#DejaVuSans-48"/>
       <use x="63.623047" xlink:href="#DejaVuSans-46"/>
       <use x="95.410156" xlink:href="#DejaVuSans-56"/>
      </g>
     </g>
    </g>
    <g id="ytick_6">
     <g id="line2d_27">
      <path clip-path="url(#p78545fccf3)" d="M 57.6 27.648 
L 360.8064 27.648 
" style="fill:none;stroke:#b0b0b0;stroke-linecap:square;stroke-width:0.8;"/>
     </g>
     <g id="line2d_28">
      <g>
       <use style="stroke:#000000;stroke-width:0.8;" x="57.6" xlink:href="#mfa20f2337d" y="27.648"/>
      </g>
     </g>
     <g id="text_11">
      <!-- 1.0 -->
      <g transform="translate(25.155 33.72675)scale(0.16 -0.16)">
       <use xlink:href="#DejaVuSans-49"/>
       <use x="63.623047" xlink:href="#DejaVuSans-46"/>
       <use x="95.410156" xlink:href="#DejaVuSans-48"/>
      </g>
     </g>
    </g>
    <g id="text_12">
     <!-- Fraction of function,target pairs -->
     <g transform="translate(17.619531 297.681)rotate(-90)scale(0.17 -0.17)">
      <defs>
       <path d="M 9.8125 72.90625 
L 51.703125 72.90625 
L 51.703125 64.59375 
L 19.671875 64.59375 
L 19.671875 43.109375 
L 48.578125 43.109375 
L 48.578125 34.8125 
L 19.671875 34.8125 
L 19.671875 0 
L 9.8125 0 
z
" id="DejaVuSans-70"/>
       <path d="M 41.109375 46.296875 
Q 39.59375 47.171875 37.8125 47.578125 
Q 36.03125 48 33.890625 48 
Q 26.265625 48 22.1875 43.046875 
Q 18.109375 38.09375 18.109375 28.8125 
L 18.109375 0 
L 9.078125 0 
L 9.078125 54.6875 
L 18.109375 54.6875 
L 18.109375 46.1875 
Q 20.953125 51.171875 25.484375 53.578125 
Q 30.03125 56 36.53125 56 
Q 37.453125 56 38.578125 55.875 
Q 39.703125 55.765625 41.0625 55.515625 
z
" id="DejaVuSans-114"/>
       <path d="M 48.78125 52.59375 
L 48.78125 44.1875 
Q 44.96875 46.296875 41.140625 47.34375 
Q 37.3125 48.390625 33.40625 48.390625 
Q 24.65625 48.390625 19.8125 42.84375 
Q 14.984375 37.3125 14.984375 27.296875 
Q 14.984375 17.28125 19.8125 11.734375 
Q 24.65625 6.203125 33.40625 6.203125 
Q 37.3125 6.203125 41.140625 7.25 
Q 44.96875 8.296875 48.78125 10.40625 
L 48.78125 2.09375 
Q 45.015625 0.34375 40.984375 -0.53125 
Q 36.96875 -1.421875 32.421875 -1.421875 
Q 20.0625 -1.421875 12.78125 6.34375 
Q 5.515625 14.109375 5.515625 27.296875 
Q 5.515625 40.671875 12.859375 48.328125 
Q 20.21875 56 33.015625 56 
Q 37.15625 56 41.109375 55.140625 
Q 45.0625 54.296875 48.78125 52.59375 
z
" id="DejaVuSans-99"/>
       <path d="M 18.3125 70.21875 
L 18.3125 54.6875 
L 36.8125 54.6875 
L 36.8125 47.703125 
L 18.3125 47.703125 
L 18.3125 18.015625 
Q 18.3125 11.328125 20.140625 9.421875 
Q 21.96875 7.515625 27.59375 7.515625 
L 36.8125 7.515625 
L 36.8125 0 
L 27.59375 0 
Q 17.1875 0 13.234375 3.875 
Q 9.28125 7.765625 9.28125 18.015625 
L 9.28125 47.703125 
L 2.6875 47.703125 
L 2.6875 54.6875 
L 9.28125 54.6875 
L 9.28125 70.21875 
z
" id="DejaVuSans-116"/>
       <path d="M 37.109375 75.984375 
L 37.109375 68.5 
L 28.515625 68.5 
Q 23.6875 68.5 21.796875 66.546875 
Q 19.921875 64.59375 19.921875 59.515625 
L 19.921875 54.6875 
L 34.71875 54.6875 
L 34.71875 47.703125 
L 19.921875 47.703125 
L 19.921875 0 
L 10.890625 0 
L 10.890625 47.703125 
L 2.296875 47.703125 
L 2.296875 54.6875 
L 10.890625 54.6875 
L 10.890625 58.5 
Q 10.890625 67.625 15.140625 71.796875 
Q 19.390625 75.984375 28.609375 75.984375 
z
" id="DejaVuSans-102"/>
       <path d="M 8.5 21.578125 
L 8.5 54.6875 
L 17.484375 54.6875 
L 17.484375 21.921875 
Q 17.484375 14.15625 20.5 10.265625 
Q 23.53125 6.390625 29.59375 6.390625 
Q 36.859375 6.390625 41.078125 11.03125 
Q 45.3125 15.671875 45.3125 23.6875 
L 45.3125 54.6875 
L 54.296875 54.6875 
L 54.296875 0 
L 45.3125 0 
L 45.3125 8.40625 
Q 42.046875 3.421875 37.71875 1 
Q 33.40625 -1.421875 27.6875 -1.421875 
Q 18.265625 -1.421875 13.375 4.4375 
Q 8.5 10.296875 8.5 21.578125 
z
M 31.109375 56 
z
" id="DejaVuSans-117"/>
       <path d="M 11.71875 12.40625 
L 22.015625 12.40625 
L 22.015625 4 
L 14.015625 -11.625 
L 7.71875 -11.625 
L 11.71875 4 
z
" id="DejaVuSans-44"/>
       <path d="M 18.109375 8.203125 
L 18.109375 -20.796875 
L 9.078125 -20.796875 
L 9.078125 54.6875 
L 18.109375 54.6875 
L 18.109375 46.390625 
Q 20.953125 51.265625 25.265625 53.625 
Q 29.59375 56 35.59375 56 
Q 45.5625 56 51.78125 48.09375 
Q 58.015625 40.1875 58.015625 27.296875 
Q 58.015625 14.40625 51.78125 6.484375 
Q 45.5625 -1.421875 35.59375 -1.421875 
Q 29.59375 -1.421875 25.265625 0.953125 
Q 20.953125 3.328125 18.109375 8.203125 
z
M 48.6875 27.296875 
Q 48.6875 37.203125 44.609375 42.84375 
Q 40.53125 48.484375 33.40625 48.484375 
Q 26.265625 48.484375 22.1875 42.84375 
Q 18.109375 37.203125 18.109375 27.296875 
Q 18.109375 17.390625 22.1875 11.75 
Q 26.265625 6.109375 33.40625 6.109375 
Q 40.53125 6.109375 44.609375 11.75 
Q 48.6875 17.390625 48.6875 27.296875 
z
" id="DejaVuSans-112"/>
      </defs>
      <use xlink:href="#DejaVuSans-70"/>
      <use x="50.269531" xlink:href="#DejaVuSans-114"/>
      <use x="91.382812" xlink:href="#DejaVuSans-97"/>
      <use x="152.662109" xlink:href="#DejaVuSans-99"/>
      <use x="207.642578" xlink:href="#DejaVuSans-116"/>
      <use x="246.851562" xlink:href="#DejaVuSans-105"/>
      <use x="274.634766" xlink:href="#DejaVuSans-111"/>
      <use x="335.816406" xlink:href="#DejaVuSans-110"/>
      <use x="399.195312" xlink:href="#DejaVuSans-32"/>
      <use x="430.982422" xlink:href="#DejaVuSans-111"/>
      <use x="492.164062" xlink:href="#DejaVuSans-102"/>
      <use x="527.369141" xlink:href="#DejaVuSans-32"/>
      <use x="559.15625" xlink:href="#DejaVuSans-102"/>
      <use x="594.361328" xlink:href="#DejaVuSans-117"/>
      <use x="657.740234" xlink:href="#DejaVuSans-110"/>
      <use x="721.119141" xlink:href="#DejaVuSans-99"/>
      <use x="776.099609" xlink:href="#DejaVuSans-116"/>
      <use x="815.308594" xlink:href="#DejaVuSans-105"/>
      <use x="843.091797" xlink:href="#DejaVuSans-111"/>
      <use x="904.273438" xlink:href="#DejaVuSans-110"/>
      <use x="967.652344" xlink:href="#DejaVuSans-44"/>
      <use x="999.439453" xlink:href="#DejaVuSans-116"/>
      <use x="1038.648438" xlink:href="#DejaVuSans-97"/>
      <use x="1099.927734" xlink:href="#DejaVuSans-114"/>
      <use x="1139.291016" xlink:href="#DejaVuSans-103"/>
      <use x="1202.767578" xlink:href="#DejaVuSans-101"/>
      <use x="1264.291016" xlink:href="#DejaVuSans-116"/>
      <use x="1303.5" xlink:href="#DejaVuSans-32"/>
      <use x="1335.287109" xlink:href="#DejaVuSans-112"/>
      <use x="1398.763672" xlink:href="#DejaVuSans-97"/>
      <use x="1460.042969" xlink:href="#DejaVuSans-105"/>
      <use x="1487.826172" xlink:href="#DejaVuSans-114"/>
      <use x="1528.939453" xlink:href="#DejaVuSans-115"/>
     </g>
    </g>
   </g>
   <g id="line2d_29">
    <defs>
     <path d="M 0 1.5 
C 0.397805 1.5 0.77937 1.341951 1.06066 1.06066 
C 1.341951 0.77937 1.5 0.397805 1.5 0 
C 1.5 -0.397805 1.341951 -0.77937 1.06066 -1.06066 
C 0.77937 -1.341951 0.397805 -1.5 0 -1.5 
C -0.397805 -1.5 -0.77937 -1.341951 -1.06066 -1.06066 
C -1.341951 -0.77937 -1.5 -0.397805 -1.5 0 
C -1.5 0.397805 -1.341951 0.77937 -1.06066 1.06066 
C -0.77937 1.341951 -0.397805 1.5 0 1.5 
z
" id="macf53bc72d" style="stroke:#00bfbf;"/>
    </defs>
    <g>
     <use style="fill:#00bfbf;stroke:#00bfbf;" x="195.453106" xlink:href="#macf53bc72d" y="27.648"/>
     <use style="fill:#00bfbf;stroke:#00bfbf;" x="195.453106" xlink:href="#macf53bc72d" y="27.648"/>
    </g>
   </g>
   <g id="line2d_30">
    <path d="M 89.668958 298.944 
L 89.668958 297.179473 
L 98.933205 297.179473 
L 98.933205 294.091551 
L 105.112877 294.091551 
L 105.112877 283.063259 
L 106.560633 283.063259 
L 106.560633 280.8576 
L 109.756698 280.8576 
L 109.756698 276.887415 
L 110.897141 276.887415 
L 110.897141 275.56402 
L 113.478107 275.56402 
L 113.478107 264.094595 
L 114.418881 264.094595 
L 114.418881 258.359883 
L 115.314838 258.359883 
L 115.314838 252.184039 
L 116.583514 252.184039 
L 116.583514 242.479141 
L 117.384126 242.479141 
L 117.384126 236.303298 
L 118.152051 236.303298 
L 118.152051 232.333112 
L 119.24818 232.333112 
L 119.24818 223.069346 
L 119.944983 223.069346 
L 119.944983 220.422556 
L 120.616896 220.422556 
L 120.616896 217.775766 
L 121.265635 217.775766 
L 121.265635 216.452371 
L 121.581803 216.452371 
L 121.581803 210.717659 
L 122.19863 210.717659 
L 122.19863 200.571629 
L 122.795872 200.571629 
L 122.795872 198.365971 
L 123.374735 198.365971 
L 123.374735 194.836917 
L 123.657621 194.836917 
L 123.657621 189.102205 
L 124.210942 189.102205 
L 124.210942 186.014283 
L 124.748451 186.014283 
L 124.748451 178.073912 
L 125.271028 178.073912 
L 125.271028 175.427122 
L 125.526971 175.427122 
L 125.526971 173.662595 
L 126.028642 173.662595 
L 126.028642 168.810146 
L 126.517282 168.810146 
L 126.517282 159.105249 
L 127.227236 159.105249 
L 127.227236 156.89959 
L 127.458055 156.89959 
L 127.458055 156.458459 
L 127.911368 156.458459 
L 127.911368 155.576195 
L 128.133992 155.576195 
L 128.133992 152.929405 
L 128.57149 152.929405 
L 128.57149 151.60601 
L 128.786481 151.60601 
L 128.786481 148.95922 
L 128.999044 148.95922 
L 128.999044 147.635824 
L 129.417095 147.635824 
L 129.417095 147.194693 
L 129.622688 147.194693 
L 129.622688 139.254322 
L 130.027253 139.254322 
L 130.027253 129.549424 
L 130.226319 129.549424 
L 130.226319 127.343766 
L 130.4233 127.343766 
L 130.4233 126.461502 
L 130.811181 126.461502 
L 130.811181 125.138107 
L 131.002163 125.138107 
L 131.002163 121.609054 
L 131.378407 121.609054 
L 131.378407 114.992078 
L 131.563744 114.992078 
L 131.563744 113.227551 
L 131.747272 113.227551 
L 131.747272 109.257366 
L 132.109044 109.257366 
L 132.109044 105.28718 
L 132.638982 105.28718 
L 132.638982 103.963785 
L 132.812362 103.963785 
L 132.812362 103.522654 
L 132.984158 103.522654 
L 132.984158 102.199259 
L 133.323114 102.199259 
L 133.323114 97.34681 
L 133.820365 97.34681 
L 133.820365 94.70002 
L 134.14471 94.70002 
L 134.14471 92.494361 
L 134.463557 92.494361 
L 134.463557 87.641912 
L 134.620977 87.641912 
L 134.620977 87.20078 
L 135.538796 87.20078 
L 135.538796 83.671727 
L 136.270855 83.671727 
L 136.270855 83.230595 
L 136.555884 83.230595 
L 136.555884 81.9072 
L 137.520791 81.9072 
L 137.520791 80.142673 
L 137.787626 80.142673 
L 137.787626 78.819278 
L 138.943648 78.819278 
L 138.943648 75.731356 
L 139.435481 75.731356 
L 139.435481 74.849093 
L 140.032723 74.849093 
L 140.032723 72.643434 
L 140.49723 72.643434 
L 140.49723 71.320039 
L 141.283499 71.320039 
L 141.283499 67.790985 
L 141.50224 67.790985 
L 141.50224 65.585327 
L 141.825656 65.585327 
L 141.825656 63.379668 
L 142.038218 63.379668 
L 142.038218 62.938537 
L 142.559347 62.938537 
L 142.559347 60.732878 
L 144.694906 60.732878 
L 144.694906 59.850615 
L 148.800595 59.850615 
L 148.800595 57.203824 
L 154.757642 57.203824 
L 154.757642 56.762693 
L 155.28758 56.762693 
L 155.28758 56.321561 
L 155.443693 56.321561 
L 155.443693 55.880429 
L 157.127956 55.880429 
L 157.127956 54.998166 
L 159.816746 54.998166 
L 159.816746 54.557034 
L 160.020999 54.557034 
L 160.020999 53.674771 
L 160.303279 53.674771 
L 160.303279 51.910244 
L 163.565517 51.910244 
L 163.565517 49.263454 
L 163.865975 49.263454 
L 163.865975 47.940059 
L 164.09639 47.940059 
L 164.09639 47.498927 
L 164.324018 47.498927 
L 164.324018 44.852137 
L 164.802709 44.852137 
L 164.802709 43.08761 
L 168.300609 43.08761 
L 168.378936 40.881951 
L 171.315934 40.881951 
L 171.315934 39.999688 
L 172.250727 39.999688 
L 172.250727 39.117424 
L 173.362455 39.117424 
L 173.362455 38.235161 
L 173.56131 38.235161 
L 173.640268 33.823844 
L 174.126381 33.823844 
L 174.126381 32.94158 
L 178.385383 32.94158 
L 178.385383 32.059317 
L 185.698978 32.059317 
L 185.698978 30.735922 
L 190.523186 30.735922 
L 190.523186 29.853659 
L 193.753843 29.853659 
L 193.753843 29.412527 
L 195.409811 29.412527 
L 195.453106 27.648 
L 360.8064 27.648 
L 360.8064 27.648 
" style="fill:none;stroke:#00bfbf;stroke-linecap:square;stroke-width:1.5;"/>
   </g>
   <g id="line2d_31">
    <defs>
     <path d="M -6 0 
L 6 0 
M 0 6 
L 0 -6 
" id="m155d0d253a" style="stroke:#00bfbf;stroke-width:1.5;"/>
    </defs>
    <g>
     <use style="fill-opacity:0;stroke:#00bfbf;stroke-width:1.5;" x="130.4233" xlink:href="#m155d0d253a" y="127.343766"/>
     <use style="fill-opacity:0;stroke:#00bfbf;stroke-width:1.5;" x="173.56131" xlink:href="#m155d0d253a" y="38.235161"/>
     <use style="fill-opacity:0;stroke:#00bfbf;stroke-width:1.5;" x="195.453106" xlink:href="#m155d0d253a" y="27.648"/>
     <use style="fill-opacity:0;stroke:#00bfbf;stroke-width:1.5;" x="195.453106" xlink:href="#m155d0d253a" y="27.648"/>
     <use style="fill-opacity:0;stroke:#00bfbf;stroke-width:1.5;" x="360.8064" xlink:href="#m155d0d253a" y="27.648"/>
    </g>
   </g>
   <g id="line2d_32">
    <path style="fill:none;stroke:#00bfbf;stroke-linecap:square;stroke-width:1.5;"/>
    <g/>
   </g>
   <g id="line2d_33">
    <defs>
     <path d="M 0 1.5 
C 0.397805 1.5 0.77937 1.341951 1.06066 1.06066 
C 1.341951 0.77937 1.5 0.397805 1.5 0 
C 1.5 -0.397805 1.341951 -0.77937 1.06066 -1.06066 
C 0.77937 -1.341951 0.397805 -1.5 0 -1.5 
C -0.397805 -1.5 -0.77937 -1.341951 -1.06066 -1.06066 
C -1.341951 -0.77937 -1.5 -0.397805 -1.5 0 
C -1.5 0.397805 -1.341951 0.77937 -1.06066 1.06066 
C -0.77937 1.341951 -0.397805 1.5 0 1.5 
z
" id="mb555139d50" style="stroke:#008000;"/>
    </defs>
    <g>
     <use style="fill:#008000;stroke:#008000;" x="206.467908" xlink:href="#mb555139d50" y="27.648"/>
     <use style="fill:#008000;stroke:#008000;" x="206.467908" xlink:href="#mb555139d50" y="27.648"/>
    </g>
   </g>
   <g id="line2d_34">
    <path d="M 95.080704 298.944 
L 95.080704 294.973815 
L 96.717523 294.973815 
L 96.717523 293.65042 
L 101.532027 293.65042 
L 101.532027 286.592312 
L 102.708132 286.592312 
L 102.708132 285.268917 
L 103.815014 285.268917 
L 103.815014 284.827785 
L 106.326946 284.827785 
L 106.326946 277.769678 
L 107.244765 277.769678 
L 107.244765 272.476098 
L 108.119879 272.476098 
L 108.119879 270.711571 
L 110.144579 270.711571 
L 110.144579 260.565541 
L 110.897141 260.565541 
L 110.897141 251.742907 
L 113.316634 251.742907 
L 113.316634 236.744429 
L 113.954374 236.744429 
L 113.954374 234.538771 
L 114.571202 234.538771 
L 114.571202 232.774244 
L 115.168444 232.774244 
L 115.168444 232.333112 
L 116.030193 232.333112 
L 116.030193 223.95161 
L 116.583514 223.95161 
L 116.583514 220.863688 
L 117.121023 220.863688 
L 117.121023 220.422556 
L 117.6436 220.422556 
L 117.6436 218.216898 
L 118.401214 218.216898 
L 118.401214 215.570107 
L 118.889854 215.570107 
L 118.889854 211.599922 
L 119.366121 211.599922 
L 119.366121 208.070868 
L 119.830627 208.070868 
L 119.830627 206.747473 
L 120.506564 206.747473 
L 120.506564 201.453893 
L 120.944062 201.453893 
L 120.944062 191.748995 
L 121.371615 191.748995 
L 121.371615 188.219941 
L 122.399825 188.219941 
L 122.399825 186.896546 
L 122.795872 186.896546 
L 122.795872 179.838439 
L 123.183753 179.838439 
L 123.183753 179.397307 
L 123.563797 179.397307 
L 123.563797 177.191649 
L 124.119844 177.191649 
L 124.119844 176.309385 
L 125.184934 176.309385 
L 125.184934 167.927883 
L 125.526971 167.927883 
L 125.526971 166.604488 
L 126.028642 166.604488 
L 126.028642 165.281093 
L 126.192937 165.281093 
L 126.192937 164.839961 
L 126.355808 164.839961 
L 126.355808 162.193171 
L 126.677381 162.193171 
L 126.677381 156.458459 
L 126.836129 156.458459 
L 126.836129 155.135063 
L 126.993549 155.135063 
L 126.993549 152.488273 
L 127.149662 152.488273 
L 127.149662 148.076956 
L 127.304491 148.076956 
L 127.304491 147.635824 
L 127.458055 147.635824 
L 127.458055 143.665639 
L 127.761474 143.665639 
L 127.761474 140.136585 
L 128.060076 140.136585 
L 128.060076 135.284137 
L 128.207619 135.284137 
L 128.207619 134.843005 
L 128.354013 134.843005 
L 128.354013 134.401873 
L 128.786481 134.401873 
L 128.786481 133.078478 
L 128.928456 133.078478 
L 128.928456 132.196215 
L 129.069367 132.196215 
L 129.069367 128.226029 
L 129.348062 128.226029 
L 129.348062 126.020371 
L 129.485876 126.020371 
L 129.485876 125.138107 
L 129.622688 125.138107 
L 129.622688 124.255844 
L 129.893363 124.255844 
L 129.893363 122.491317 
L 130.027253 122.491317 
L 130.027253 119.403395 
L 130.4233 119.403395 
L 130.4233 118.08 
L 130.811181 118.08 
L 130.811181 114.992078 
L 131.563744 114.992078 
L 131.563744 112.78642 
L 131.929028 112.78642 
L 131.929028 109.698498 
L 132.04923 109.698498 
L 132.04923 109.257366 
L 132.168669 109.257366 
L 132.168669 107.051707 
L 132.638982 107.051707 
L 132.638982 104.404917 
L 133.210806 104.404917 
L 133.210806 103.081522 
L 133.656071 103.081522 
L 133.656071 99.9936 
L 133.983236 99.9936 
L 133.983236 99.111337 
L 134.198228 99.111337 
L 134.198228 97.34681 
L 135.136394 97.34681 
L 135.136394 96.464546 
L 135.338671 96.464546 
L 135.338671 96.023415 
L 135.538796 96.023415 
L 135.538796 95.582283 
L 136.029987 95.582283 
L 136.029987 94.70002 
L 136.88305 94.70002 
L 136.88305 92.053229 
L 137.067478 92.053229 
L 137.067478 88.965307 
L 137.340774 88.965307 
L 137.340774 88.524176 
L 137.699101 88.524176 
L 137.699101 84.55399 
L 138.224108 84.55399 
L 138.224108 83.671727 
L 138.481218 83.671727 
L 138.481218 81.9072 
L 138.650692 81.9072 
L 138.650692 80.142673 
L 139.150143 80.142673 
L 139.150143 79.701541 
L 141.610664 79.701541 
L 141.610664 78.819278 
L 142.178603 78.819278 
L 142.248405 76.172488 
L 142.45627 76.172488 
L 142.45627 75.731356 
L 143.331383 75.731356 
L 143.331383 75.290224 
L 143.592659 75.290224 
L 143.592659 73.525698 
L 146.64016 73.525698 
L 146.750169 71.320039 
L 148.226342 71.320039 
L 148.226342 70.878907 
L 149.829328 70.878907 
L 149.829328 70.437776 
L 150.334674 70.437776 
L 150.334674 69.996644 
L 150.470172 69.996644 
L 150.470172 68.232117 
L 151.046307 68.232117 
L 151.046307 67.790985 
L 151.263283 67.790985 
L 151.263283 67.349854 
L 151.731998 67.349854 
L 151.731998 66.908722 
L 152.352898 66.908722 
L 152.352898 66.46759 
L 153.839823 66.46759 
L 153.839823 65.585327 
L 153.952355 65.585327 
L 153.952355 62.938537 
L 154.285968 62.938537 
L 154.285968 61.17401 
L 155.391799 61.17401 
L 155.391799 60.291746 
L 155.529866 60.291746 
L 155.529866 58.968351 
L 155.701037 58.968351 
L 155.701037 55.439298 
L 156.304668 55.439298 
L 156.304668 52.351376 
L 156.501649 52.351376 
L 156.566854 49.263454 
L 156.793307 49.263454 
L 156.793307 45.293268 
L 157.143744 45.293268 
L 157.143744 43.969873 
L 157.977206 43.969873 
L 158.0375 42.646478 
L 158.247018 42.646478 
L 158.247018 42.205346 
L 158.513014 42.205346 
L 158.513014 40.881951 
L 162.821881 40.881951 
L 162.821881 40.44082 
L 165.574415 40.44082 
L 165.574415 39.558556 
L 166.052194 39.558556 
L 166.052194 39.117424 
L 167.435044 39.117424 
L 167.435044 38.235161 
L 172.454629 38.235161 
L 172.454629 37.794029 
L 172.663262 37.794029 
L 172.663262 36.470634 
L 173.060174 36.470634 
L 173.060174 36.029502 
L 177.566794 36.029502 
L 177.662473 35.147239 
L 178.050787 35.147239 
L 178.050787 32.500449 
L 178.38028 32.500449 
L 178.38028 31.618185 
L 189.805819 31.618185 
L 189.805819 31.177054 
L 192.061618 31.177054 
L 192.130543 28.971395 
L 206.447258 28.971395 
L 206.467908 27.648 
L 360.8064 27.648 
L 360.8064 27.648 
" style="fill:none;stroke:#008000;stroke-linecap:square;stroke-width:1.5;"/>
   </g>
   <g id="line2d_35">
    <defs>
     <path d="M -0 6 
L 6 -6 
L -6 -6 
z
" id="m8943ce62e4" style="stroke:#008000;stroke-linejoin:miter;stroke-width:1.5;"/>
    </defs>
    <g>
     <use style="fill-opacity:0;stroke:#008000;stroke-linejoin:miter;stroke-width:1.5;" x="124.119844" xlink:href="#m8943ce62e4" y="176.309385"/>
     <use style="fill-opacity:0;stroke:#008000;stroke-linejoin:miter;stroke-width:1.5;" x="178.38028" xlink:href="#m8943ce62e4" y="31.618185"/>
     <use style="fill-opacity:0;stroke:#008000;stroke-linejoin:miter;stroke-width:1.5;" x="206.467908" xlink:href="#m8943ce62e4" y="27.648"/>
     <use style="fill-opacity:0;stroke:#008000;stroke-linejoin:miter;stroke-width:1.5;" x="206.467908" xlink:href="#m8943ce62e4" y="27.648"/>
     <use style="fill-opacity:0;stroke:#008000;stroke-linejoin:miter;stroke-width:1.5;" x="360.8064" xlink:href="#m8943ce62e4" y="27.648"/>
    </g>
   </g>
   <g id="line2d_36">
    <path style="fill:none;stroke:#008000;stroke-linecap:square;stroke-width:1.5;"/>
    <g/>
   </g>
   <g id="line2d_37">
    <defs>
     <path d="M 0 1.5 
C 0.397805 1.5 0.77937 1.341951 1.06066 1.06066 
C 1.341951 0.77937 1.5 0.397805 1.5 0 
C 1.5 -0.397805 1.341951 -0.77937 1.06066 -1.06066 
C 0.77937 -1.341951 0.397805 -1.5 0 -1.5 
C -0.397805 -1.5 -0.77937 -1.341951 -1.06066 -1.06066 
C -1.341951 -0.77937 -1.5 -0.397805 -1.5 0 
C -1.5 0.397805 -1.341951 0.77937 -1.06066 1.06066 
C -0.77937 1.341951 -0.397805 1.5 0 1.5 
z
" id="m081753e8d1" style="stroke:#0000ff;"/>
    </defs>
    <g>
     <use style="fill:#0000ff;stroke:#0000ff;" x="234.914053" xlink:href="#m081753e8d1" y="27.648"/>
     <use style="fill:#0000ff;stroke:#0000ff;" x="234.914053" xlink:href="#m081753e8d1" y="27.648"/>
    </g>
   </g>
   <g id="line2d_38">
    <path d="M 91.305777 298.944 
L 91.305777 298.502868 
L 98.077987 298.502868 
L 98.077987 291.003629 
L 98.933205 291.003629 
L 98.933205 289.680234 
L 103.047088 289.680234 
L 103.047088 283.063259 
L 103.707211 283.063259 
L 103.707211 279.975337 
L 106.974091 279.975337 
L 106.974091 270.711571 
L 107.5116 270.711571 
L 107.5116 266.741385 
L 108.034177 266.741385 
L 108.034177 266.300254 
L 110.221204 266.300254 
L 110.221204 258.801015 
L 111.117162 258.801015 
L 111.117162 254.830829 
L 112.385837 254.830829 
L 112.385837 253.948566 
L 112.989468 253.948566 
L 112.989468 246.008195 
L 113.381389 246.008195 
L 113.381389 242.920273 
L 113.765312 242.920273 
L 113.765312 241.596878 
L 114.141556 241.596878 
L 114.141556 239.39122 
L 115.227139 239.39122 
L 115.227139 238.067824 
L 115.402131 238.067824 
L 115.402131 236.303298 
L 115.747307 236.303298 
L 115.747307 233.656507 
L 116.086263 233.656507 
L 116.086263 229.686322 
L 116.746385 229.686322 
L 116.746385 229.24519 
L 117.540239 229.24519 
L 117.540239 227.039532 
L 117.695068 227.039532 
L 117.695068 225.716137 
L 117.848632 225.716137 
L 117.848632 223.510478 
L 118.152051 223.510478 
L 118.152051 222.187083 
L 119.034004 222.187083 
L 119.034004 218.216898 
L 119.459944 218.216898 
L 119.459944 216.893502 
L 119.738639 216.893502 
L 119.738639 214.246712 
L 120.28394 214.246712 
L 120.28394 212.041054 
L 120.550775 212.041054 
L 120.550775 204.100683 
L 120.813877 204.100683 
L 120.813877 203.21842 
L 121.073351 203.21842 
L 121.073351 202.777288 
L 121.201758 202.777288 
L 121.201758 201.453893 
L 121.455972 201.453893 
L 121.455972 198.365971 
L 121.706797 198.365971 
L 121.706797 197.483707 
L 121.954321 197.483707 
L 121.954321 196.160312 
L 122.19863 196.160312 
L 122.19863 193.07239 
L 122.319605 193.07239 
L 122.319605 192.190127 
L 122.439807 192.190127 
L 122.439807 191.307863 
L 122.677931 191.307863 
L 122.677931 190.866732 
L 122.795872 190.866732 
L 122.795872 189.543337 
L 123.029559 189.543337 
L 123.029559 188.661073 
L 123.145323 188.661073 
L 123.145323 188.219941 
L 123.4884 188.219941 
L 123.4884 187.77881 
L 123.713691 187.77881 
L 123.713691 186.896546 
L 123.825333 186.896546 
L 123.936316 183.808624 
L 124.265389 183.808624 
L 124.265389 182.926361 
L 124.588805 182.926361 
L 124.588805 181.161834 
L 124.801367 181.161834 
L 124.801367 180.279571 
L 125.219419 180.279571 
L 125.322496 172.780332 
L 125.628382 172.780332 
L 125.628382 168.810146 
L 125.829577 168.810146 
L 125.829577 168.369015 
L 126.127391 168.369015 
L 126.127391 167.04562 
L 126.420564 167.04562 
L 126.517282 165.281093 
L 126.613505 165.281093 
L 126.613505 157.781854 
L 126.993549 157.781854 
L 126.993549 157.340722 
L 127.731351 157.340722 
L 127.821575 155.135063 
L 128.089678 155.135063 
L 128.089678 154.2528 
L 128.614685 154.2528 
L 128.614685 153.811668 
L 129.041269 153.811668 
L 129.041269 152.929405 
L 129.7043 152.929405 
L 129.78556 150.723746 
L 129.86647 150.723746 
L 129.86647 150.282615 
L 130.107132 150.282615 
L 130.107132 148.518088 
L 130.344755 148.518088 
L 130.344755 144.547902 
L 130.734242 144.547902 
L 130.811181 138.372059 
L 130.887807 138.372059 
L 130.887807 136.1664 
L 131.040128 136.1664 
L 131.115828 133.960741 
L 131.341119 133.960741 
L 131.341119 133.078478 
L 131.63737 133.078478 
L 131.71071 129.108293 
L 132.001241 129.108293 
L 132.073179 124.255844 
L 132.56918 124.255844 
L 132.56918 123.37358 
L 132.777813 123.37358 
L 132.777813 120.72679 
L 132.984158 120.72679 
L 133.05244 117.638868 
L 133.120474 117.638868 
L 133.188264 116.315473 
L 133.457005 116.315473 
L 133.457005 112.78642 
L 133.918257 112.78642 
L 133.918257 112.345288 
L 134.112526 112.345288 
L 134.112526 111.463024 
L 134.745971 111.463024 
L 134.808158 106.169444 
L 135.478982 106.169444 
L 135.538796 103.963785 
L 135.657857 103.963785 
L 135.657857 103.081522 
L 135.952253 103.081522 
L 136.010584 101.758127 
L 136.126705 101.758127 
L 136.126705 98.670205 
L 136.299553 98.670205 
L 136.299553 96.905678 
L 136.413909 96.905678 
L 136.470828 92.053229 
L 136.584151 92.053229 
L 136.584151 91.612098 
L 137.030737 91.612098 
L 137.030737 89.406439 
L 137.681345 89.406439 
L 137.734561 88.524176 
L 139.166565 88.524176 
L 139.166565 88.083044 
L 139.313723 88.083044 
L 139.313723 86.759649 
L 140.634374 86.759649 
L 140.634374 85.877385 
L 141.261484 85.877385 
L 141.261484 85.436254 
L 141.523975 85.436254 
L 141.523975 84.995122 
L 141.910969 84.995122 
L 141.910969 82.789463 
L 142.248405 82.789463 
L 142.248405 82.348332 
L 142.538777 82.348332 
L 142.538777 81.9072 
L 142.702713 81.9072 
L 142.784148 80.142673 
L 142.986208 80.142673 
L 142.986208 79.26041 
L 143.146307 79.26041 
L 143.146307 78.378146 
L 143.305055 78.378146 
L 143.305055 76.61362 
L 143.462475 76.61362 
L 143.501625 75.731356 
L 143.579681 75.731356 
L 143.579681 75.290224 
L 143.811926 75.290224 
L 143.888708 73.525698 
L 144.079302 73.525698 
L 144.079302 72.202302 
L 146.193574 72.202302 
L 146.193574 71.761171 
L 148.667336 71.761171 
L 148.667336 71.320039 
L 149.049758 71.320039 
L 149.049758 69.996644 
L 150.479171 69.996644 
L 150.479171 69.555512 
L 150.613636 69.555512 
L 150.613636 68.232117 
L 151.297768 68.232117 
L 151.297768 66.908722 
L 151.731998 66.908722 
L 151.731998 65.585327 
L 152.057422 65.585327 
L 152.057422 64.703063 
L 152.377312 64.703063 
L 152.474656 62.056273 
L 154.971412 62.056273 
L 154.971412 60.732878 
L 156.304668 60.732878 
L 156.304668 59.850615 
L 157.549652 59.850615 
L 157.549652 58.968351 
L 158.647529 58.968351 
L 158.647529 56.762693 
L 158.907961 56.762693 
L 158.907961 55.439298 
L 161.602209 55.439298 
L 161.602209 54.557034 
L 165.562313 54.557034 
L 165.562313 54.115902 
L 166.111072 54.115902 
L 166.169767 52.351376 
L 166.263299 52.351376 
L 166.263299 51.910244 
L 168.169334 51.910244 
L 168.169334 51.469112 
L 169.234617 51.469112 
L 169.234617 51.02798 
L 169.363634 51.02798 
L 169.363634 50.145717 
L 169.491772 50.145717 
L 169.491772 49.263454 
L 169.9383 49.263454 
L 169.967056 46.616663 
L 170.091163 46.616663 
L 170.186075 45.293268 
L 170.514546 45.293268 
L 170.514546 44.852137 
L 170.727317 44.852137 
L 170.727317 44.411005 
L 170.846523 44.411005 
L 170.846523 42.646478 
L 170.964979 42.646478 
L 170.964979 40.44082 
L 176.812187 40.44082 
L 176.812187 39.999688 
L 180.825238 39.999688 
L 180.825238 39.117424 
L 183.908536 39.117424 
L 183.908536 37.794029 
L 184.869562 37.794029 
L 184.96906 36.911766 
L 185.816893 36.911766 
L 185.816893 36.029502 
L 186.980371 36.029502 
L 187.084762 35.147239 
L 188.691354 35.147239 
L 188.691354 34.264976 
L 189.355626 34.264976 
L 189.355626 33.823844 
L 189.804707 33.823844 
L 189.804707 33.382712 
L 193.667092 33.382712 
L 193.667092 32.94158 
L 196.011852 32.94158 
L 196.011852 32.500449 
L 197.66865 32.500449 
L 197.66865 32.059317 
L 204.01139 32.059317 
L 204.031762 30.735922 
L 205.030624 30.735922 
L 205.030624 29.412527 
L 208.249788 29.412527 
L 208.249788 28.971395 
L 208.37702 28.971395 
L 208.37702 28.530263 
L 233.605073 28.530263 
L 233.605073 28.089132 
L 234.914053 28.089132 
L 234.914053 27.648 
L 360.8064 27.648 
L 360.8064 27.648 
" style="fill:none;stroke:#0000ff;stroke-linecap:square;stroke-width:1.5;"/>
   </g>
   <g id="line2d_39">
    <defs>
     <path d="M 0 -6 
L -1.347084 -1.854102 
L -5.706339 -1.854102 
L -2.179628 0.708204 
L -3.526712 4.854102 
L -0 2.291796 
L 3.526712 4.854102 
L 2.179628 0.708204 
L 5.706339 -1.854102 
L 1.347084 -1.854102 
z
" id="mea71c7552c" style="stroke:#0000ff;stroke-linejoin:bevel;stroke-width:1.5;"/>
    </defs>
    <g>
     <use style="fill-opacity:0;stroke:#0000ff;stroke-linejoin:bevel;stroke-width:1.5;" x="124.588805" xlink:href="#mea71c7552c" y="182.926361"/>
     <use style="fill-opacity:0;stroke:#0000ff;stroke-linejoin:bevel;stroke-width:1.5;" x="170.964979" xlink:href="#mea71c7552c" y="42.646478"/>
     <use style="fill-opacity:0;stroke:#0000ff;stroke-linejoin:bevel;stroke-width:1.5;" x="234.914053" xlink:href="#mea71c7552c" y="28.089132"/>
     <use style="fill-opacity:0;stroke:#0000ff;stroke-linejoin:bevel;stroke-width:1.5;" x="234.914053" xlink:href="#mea71c7552c" y="27.648"/>
     <use style="fill-opacity:0;stroke:#0000ff;stroke-linejoin:bevel;stroke-width:1.5;" x="360.8064" xlink:href="#mea71c7552c" y="27.648"/>
    </g>
   </g>
   <g id="line2d_40">
    <path style="fill:none;stroke:#0000ff;stroke-linecap:square;stroke-width:1.5;"/>
    <g/>
   </g>
   <g id="line2d_41">
    <path clip-path="url(#p78545fccf3)" d="M 230.864938 28.530263 
" style="fill:none;stroke:#0000ff;stroke-linecap:square;stroke-width:1.5;"/>
    <defs>
     <path d="M -12 12 
L 12 -12 
M -12 -12 
L 12 12 
" id="m75828daea8" style="stroke:#0000ff;"/>
    </defs>
    <g clip-path="url(#p78545fccf3)">
     <use style="fill:#0000ff;stroke:#0000ff;" x="230.864938" xlink:href="#m75828daea8" y="28.530263"/>
    </g>
   </g>
   <g id="line2d_42">
    <defs>
     <path d="M 0 1.5 
C 0.397805 1.5 0.77937 1.341951 1.06066 1.06066 
C 1.341951 0.77937 1.5 0.397805 1.5 0 
C 1.5 -0.397805 1.341951 -0.77937 1.06066 -1.06066 
C 0.77937 -1.341951 0.397805 -1.5 0 -1.5 
C -0.397805 -1.5 -0.77937 -1.341951 -1.06066 -1.06066 
C -1.341951 -0.77937 -1.5 -0.397805 -1.5 0 
C -1.5 0.397805 -1.341951 0.77937 -1.06066 1.06066 
C -0.77937 1.341951 -0.397805 1.5 0 1.5 
z
" id="m669e56004d" style="stroke:#000000;"/>
    </defs>
    <g>
     <use style="stroke:#000000;" x="313.937471" xlink:href="#m669e56004d" y="173.221463"/>
     <use style="stroke:#000000;" x="313.937471" xlink:href="#m669e56004d" y="173.221463"/>
    </g>
   </g>
   <g id="line2d_43">
    <path d="M 118.450653 298.944 
L 118.450653 298.502868 
L 119.944983 298.502868 
L 119.944983 297.179473 
L 121.706797 297.179473 
L 121.706797 296.29721 
L 124.906754 296.29721 
L 124.906754 295.856078 
L 125.678882 295.856078 
L 125.678882 295.414946 
L 126.993549 295.414946 
L 126.993549 294.973815 
L 128.045258 294.973815 
L 128.045258 294.532683 
L 129.041269 294.532683 
L 129.041269 292.768156 
L 129.209231 292.768156 
L 129.209231 291.885893 
L 129.622688 291.885893 
L 129.622688 291.444761 
L 130.107132 291.444761 
L 130.107132 291.003629 
L 130.540507 291.003629 
L 130.618241 288.797971 
L 131.002163 288.797971 
L 131.002163 287.033444 
L 131.563744 287.033444 
L 131.563744 286.592312 
L 131.929028 286.592312 
L 131.929028 286.15118 
L 132.46399 286.15118 
L 132.46399 285.710049 
L 132.743202 285.710049 
L 132.743202 284.827785 
L 132.881269 284.827785 
L 132.881269 284.386654 
L 133.25581 284.386654 
L 133.25581 282.622127 
L 133.72196 282.622127 
L 133.72196 281.739863 
L 134.400219 281.739863 
L 134.400219 281.298732 
L 134.683578 281.298732 
L 134.683578 279.534205 
L 135.687504 279.534205 
L 135.687504 279.093073 
L 135.92302 279.093073 
L 135.92302 277.769678 
L 136.155623 277.769678 
L 136.155623 277.328546 
L 137.113304 277.328546 
L 137.113304 276.887415 
L 137.734561 276.887415 
L 137.734561 276.446283 
L 138.489728 276.446283 
L 138.489728 276.005151 
L 139.724525 276.005151 
L 139.724525 275.56402 
L 141.239443 275.56402 
L 141.283499 274.681756 
L 142.101521 274.681756 
L 142.101521 274.240624 
L 142.394151 274.240624 
L 142.394151 272.917229 
L 142.865233 272.917229 
L 142.865233 272.476098 
L 143.225848 272.476098 
L 143.225848 272.034966 
L 143.850356 272.034966 
L 143.850356 271.593834 
L 144.003296 271.593834 
L 144.003296 271.152702 
L 144.786447 271.152702 
L 144.786447 270.711571 
L 145.971958 270.711571 
L 145.971958 270.270439 
L 148.75628 270.270439 
L 148.75628 269.829307 
L 149.049758 269.829307 
L 149.107908 268.06478 
L 149.552579 268.06478 
L 149.552579 266.741385 
L 149.73597 266.741385 
L 149.73597 266.300254 
L 149.875833 266.300254 
L 149.945377 264.535727 
L 150.262008 264.535727 
L 150.262008 264.094595 
L 150.573397 264.094595 
L 150.573397 263.653463 
L 150.932483 263.653463 
L 150.932483 263.212332 
L 151.129053 263.212332 
L 151.220087 262.330068 
L 151.579882 262.330068 
L 151.579882 261.888937 
L 151.769835 261.888937 
L 151.769835 259.683278 
L 151.907925 259.683278 
L 151.907925 259.242146 
L 152.413875 259.242146 
L 152.413875 258.801015 
L 152.799519 258.801015 
L 152.811444 257.918751 
L 153.083651 257.918751 
L 153.083651 257.47762 
L 153.375128 257.47762 
L 153.375128 256.595356 
L 153.639356 256.595356 
L 153.696309 253.948566 
L 154.14583 253.948566 
L 154.14583 253.507434 
L 154.443296 253.507434 
L 154.443296 253.066302 
L 154.563149 253.066302 
L 154.563149 252.625171 
L 155.329337 252.625171 
L 155.329337 252.184039 
L 155.557358 252.184039 
L 155.557358 251.742907 
L 155.833477 251.742907 
L 155.914518 250.419512 
L 156.115606 250.419512 
L 156.115606 249.97838 
L 156.88953 249.97838 
L 156.88953 249.537249 
L 159.660016 249.537249 
L 159.660016 248.654985 
L 159.849576 248.654985 
L 159.849576 248.213854 
L 160.303279 248.213854 
L 160.303279 246.008195 
L 165.053116 246.008195 
L 165.053116 245.125932 
L 168.606832 245.125932 
L 168.606832 244.243668 
L 169.842126 244.243668 
L 169.842126 242.479141 
L 170.397892 242.479141 
L 170.397892 242.03801 
L 173.298374 242.03801 
L 173.298374 241.596878 
L 177.524113 241.596878 
L 177.524113 241.155746 
L 179.372318 241.155746 
L 179.372318 239.832351 
L 181.033812 239.832351 
L 181.033812 239.39122 
L 182.04082 239.39122 
L 182.045861 237.185561 
L 182.223933 237.185561 
L 182.223933 236.744429 
L 182.565296 236.744429 
L 182.565296 236.303298 
L 183.277247 236.303298 
L 183.277247 235.862166 
L 183.839939 235.862166 
L 183.839939 235.421034 
L 186.34156 235.421034 
L 186.34156 234.097639 
L 186.842229 234.097639 
L 186.842229 233.656507 
L 188.299675 233.656507 
L 188.299675 233.215376 
L 189.659004 233.215376 
L 189.659004 232.774244 
L 191.031702 232.774244 
L 191.1128 231.89198 
L 191.410777 231.89198 
L 191.410777 231.450849 
L 191.822869 231.450849 
L 191.822869 230.568585 
L 192.035953 230.568585 
L 192.072959 229.686322 
L 192.672558 229.686322 
L 192.728338 227.039532 
L 193.393384 227.039532 
L 193.393384 226.5984 
L 194.521011 226.5984 
L 194.521011 226.157268 
L 194.689042 226.157268 
L 194.689042 225.716137 
L 196.473901 225.716137 
L 196.473901 224.392741 
L 197.128292 224.392741 
L 197.236488 223.510478 
L 197.342949 223.510478 
L 197.342949 223.069346 
L 202.332333 223.069346 
L 202.332333 222.187083 
L 203.628882 222.187083 
L 203.686398 221.30482 
L 207.780901 221.30482 
L 207.780901 220.863688 
L 208.139953 220.863688 
L 208.139953 219.540293 
L 210.101227 219.540293 
L 210.101227 219.099161 
L 210.241355 219.099161 
L 210.241355 218.658029 
L 210.396087 218.658029 
L 210.396087 218.216898 
L 210.632441 218.216898 
L 210.632441 217.775766 
L 212.234493 217.775766 
L 212.234493 217.334634 
L 212.359648 217.334634 
L 212.359648 216.893502 
L 213.849273 216.893502 
L 213.849273 216.452371 
L 213.978015 216.452371 
L 213.978015 215.570107 
L 218.000237 215.570107 
L 218.000237 215.128976 
L 219.939736 215.128976 
L 219.939736 213.80558 
L 220.222667 213.80558 
L 220.280529 212.923317 
L 222.899532 212.923317 
L 222.899532 212.482185 
L 223.19081 212.482185 
L 223.19081 212.041054 
L 223.572664 212.041054 
L 223.572664 211.15879 
L 224.831022 211.15879 
L 224.831022 210.276527 
L 225.704156 210.276527 
L 225.740001 208.953132 
L 225.851548 208.953132 
L 225.886133 207.629737 
L 226.087714 207.629737 
L 226.087714 207.188605 
L 228.506224 207.188605 
L 228.506224 206.747473 
L 231.056547 206.747473 
L 231.167177 205.86521 
L 232.548952 205.86521 
L 232.552047 204.100683 
L 233.111063 204.100683 
L 233.190343 201.453893 
L 234.596713 201.453893 
L 234.596713 201.012761 
L 235.701549 201.012761 
L 235.701549 200.571629 
L 236.288153 200.571629 
L 236.327021 199.689366 
L 236.839913 199.689366 
L 236.839913 199.248234 
L 238.547954 199.248234 
L 238.547954 198.807102 
L 239.223016 198.807102 
L 239.223016 198.365971 
L 239.345634 198.365971 
L 239.345634 197.924839 
L 240.608468 197.924839 
L 240.608468 197.483707 
L 241.51446 197.483707 
L 241.51446 197.042576 
L 241.668437 197.042576 
L 241.668437 196.601444 
L 244.03792 196.601444 
L 244.03792 196.160312 
L 244.762981 196.160312 
L 244.766215 194.836917 
L 245.006748 194.836917 
L 245.106518 193.07239 
L 245.860945 193.07239 
L 245.860945 192.631259 
L 248.135537 192.631259 
L 248.136513 191.748995 
L 248.542106 191.748995 
L 248.542106 191.307863 
L 249.399788 191.307863 
L 249.399788 190.866732 
L 250.00298 190.866732 
L 250.069093 189.984468 
L 252.109366 189.984468 
L 252.109366 189.543337 
L 254.747654 189.543337 
L 254.747654 188.661073 
L 255.366982 188.661073 
L 255.366982 188.219941 
L 255.814759 188.219941 
L 255.858344 186.896546 
L 257.378633 186.896546 
L 257.378633 186.455415 
L 260.238611 186.455415 
L 260.244333 185.13202 
L 261.487753 185.13202 
L 261.487753 184.690888 
L 261.628804 184.690888 
L 261.628804 184.249756 
L 263.821826 184.249756 
L 263.852006 182.926361 
L 264.86089 182.926361 
L 264.963976 182.044098 
L 264.976926 182.044098 
L 264.977264 181.161834 
L 266.834246 181.161834 
L 266.834246 180.720702 
L 271.704807 180.720702 
L 271.721553 179.838439 
L 273.73339 179.838439 
L 273.73339 179.397307 
L 276.131749 179.397307 
L 276.18753 178.515044 
L 279.296267 178.515044 
L 279.296267 178.073912 
L 282.744726 178.073912 
L 282.744726 177.63278 
L 283.911496 177.63278 
L 283.911496 177.191649 
L 284.999326 177.191649 
L 284.999326 176.750517 
L 288.817835 176.750517 
L 288.817835 176.309385 
L 292.706574 176.309385 
L 292.706686 175.427122 
L 294.057118 175.427122 
L 294.057118 174.98599 
L 296.509452 174.98599 
L 296.509452 174.544859 
L 304.743846 174.544859 
L 304.743846 174.103727 
L 308.43309 174.103727 
L 308.43309 173.662595 
L 313.937471 173.662595 
L 313.937471 173.221463 
L 360.8064 173.221463 
L 360.8064 173.221463 
" style="fill:none;stroke:#000000;stroke-linecap:square;stroke-width:1.5;"/>
   </g>
   <g id="line2d_44">
    <defs>
     <path d="M 0 6 
C 1.591219 6 3.117479 5.367802 4.242641 4.242641 
C 5.367802 3.117479 6 1.591219 6 0 
C 6 -1.591219 5.367802 -3.117479 4.242641 -4.242641 
C 3.117479 -5.367802 1.591219 -6 0 -6 
C -1.591219 -6 -3.117479 -5.367802 -4.242641 -4.242641 
C -5.367802 -3.117479 -6 -1.591219 -6 0 
C -6 1.591219 -5.367802 3.117479 -4.242641 4.242641 
C -3.117479 5.367802 -1.591219 6 0 6 
z
" id="mb3d81b65aa" style="stroke:#000000;stroke-width:1.5;"/>
    </defs>
    <g>
     <use style="fill-opacity:0;stroke:#000000;stroke-width:1.5;" x="149.107908" xlink:href="#mb3d81b65aa" y="268.06478"/>
     <use style="fill-opacity:0;stroke:#000000;stroke-width:1.5;" x="228.506224" xlink:href="#mb3d81b65aa" y="207.188605"/>
     <use style="fill-opacity:0;stroke:#000000;stroke-width:1.5;" x="296.509452" xlink:href="#mb3d81b65aa" y="174.544859"/>
     <use style="fill-opacity:0;stroke:#000000;stroke-width:1.5;" x="313.937471" xlink:href="#mb3d81b65aa" y="173.221463"/>
     <use style="fill-opacity:0;stroke:#000000;stroke-width:1.5;" x="360.8064" xlink:href="#mb3d81b65aa" y="173.221463"/>
    </g>
   </g>
   <g id="line2d_45">
    <path style="fill:none;stroke:#000000;stroke-linecap:square;stroke-width:1.5;"/>
    <g/>
   </g>
   <g id="line2d_46">
    <path clip-path="url(#p78545fccf3)" d="M 230.862869 206.747473 
" style="fill:none;stroke:#000000;stroke-linecap:square;stroke-width:1.5;"/>
    <defs>
     <path d="M -12 12 
L 12 -12 
M -12 -12 
L 12 12 
" id="me79a7ddb79" style="stroke:#000000;"/>
    </defs>
    <g clip-path="url(#p78545fccf3)">
     <use style="stroke:#000000;" x="230.862869" xlink:href="#me79a7ddb79" y="206.747473"/>
    </g>
   </g>
   <g id="line2d_47">
    <defs>
     <path d="M 0 1.5 
C 0.397805 1.5 0.77937 1.341951 1.06066 1.06066 
C 1.341951 0.77937 1.5 0.397805 1.5 0 
C 1.5 -0.397805 1.341951 -0.77937 1.06066 -1.06066 
C 0.77937 -1.341951 0.397805 -1.5 0 -1.5 
C -0.397805 -1.5 -0.77937 -1.341951 -1.06066 -1.06066 
C -1.341951 -0.77937 -1.5 -0.397805 -1.5 0 
C -1.5 0.397805 -1.341951 0.77937 -1.06066 1.06066 
C -0.77937 1.341951 -0.397805 1.5 0 1.5 
z
" id="m3171423a9a" style="stroke:#ff0000;"/>
    </defs>
    <g>
     <use style="fill:#ff0000;stroke:#ff0000;" x="306.638715" xlink:href="#m3171423a9a" y="199.689366"/>
     <use style="fill:#ff0000;stroke:#ff0000;" x="306.638715" xlink:href="#m3171423a9a" y="199.689366"/>
    </g>
   </g>
   <g id="line2d_48">
    <path d="M 127.06396 298.944 
L 127.06396 298.061737 
L 129.499602 298.061737 
L 129.499602 297.620605 
L 131.228811 297.620605 
L 131.228811 297.179473 
L 132.019251 297.179473 
L 132.019251 296.738341 
L 132.234038 296.738341 
L 132.234038 296.29721 
L 133.70551 296.29721 
L 133.70551 295.856078 
L 134.240933 295.856078 
L 134.240933 295.414946 
L 134.916493 295.414946 
L 134.916493 294.973815 
L 135.59842 294.973815 
L 135.59842 294.532683 
L 135.893741 294.532683 
L 135.893741 294.091551 
L 136.513404 294.091551 
L 136.513404 292.327024 
L 136.892314 292.327024 
L 136.892314 291.885893 
L 137.23648 291.885893 
L 137.23648 291.444761 
L 138.271509 291.444761 
L 138.36167 290.562498 
L 138.680194 290.562498 
L 138.680194 290.121366 
L 139.043049 290.121366 
L 139.043049 289.680234 
L 139.459738 289.680234 
L 139.568511 287.915707 
L 139.819894 287.915707 
L 139.819894 287.033444 
L 140.079694 287.033444 
L 140.079694 286.15118 
L 140.382174 286.15118 
L 140.393711 285.268917 
L 140.577352 285.268917 
L 140.577352 284.827785 
L 140.883238 284.827785 
L 140.883238 284.386654 
L 141.084433 284.386654 
L 141.084433 283.945522 
L 141.729214 283.945522 
L 141.729214 283.063259 
L 142.956037 283.063259 
L 142.956037 282.622127 
L 143.993774 282.622127 
L 143.993774 282.180995 
L 144.117191 282.180995 
L 144.173881 281.298732 
L 144.27737 281.298732 
L 144.380294 280.416468 
L 144.593695 280.416468 
L 144.593695 279.975337 
L 145.004344 279.975337 
L 145.004344 279.534205 
L 145.40622 279.534205 
L 145.40622 278.651941 
L 145.617094 278.651941 
L 145.617094 278.21081 
L 145.79969 278.21081 
L 145.79969 277.769678 
L 145.963382 277.769678 
L 146.006223 276.887415 
L 146.185098 276.887415 
L 146.185098 276.446283 
L 146.587679 276.446283 
L 146.587679 276.005151 
L 146.728219 276.005151 
L 146.761135 273.358361 
L 146.933006 273.358361 
L 146.933006 272.917229 
L 147.143646 272.917229 
L 147.143646 272.476098 
L 147.667988 272.476098 
L 147.667988 272.034966 
L 148.75628 272.034966 
L 148.75628 271.593834 
L 149.538397 271.593834 
L 149.538397 271.152702 
L 150.090587 271.152702 
L 150.090587 270.711571 
L 150.343738 270.711571 
L 150.343738 270.270439 
L 150.519611 270.270439 
L 150.620334 269.388176 
L 151.618026 269.388176 
L 151.618026 268.947044 
L 151.845283 268.947044 
L 151.845283 268.505912 
L 152.847174 268.505912 
L 152.847174 268.06478 
L 153.148165 268.06478 
L 153.183261 266.741385 
L 153.679241 266.741385 
L 153.736074 265.859122 
L 153.944874 265.859122 
L 153.944874 264.976859 
L 154.311669 264.976859 
L 154.311669 264.094595 
L 155.396995 264.094595 
L 155.433326 262.7712 
L 156.339289 262.7712 
L 156.339289 261.888937 
L 157.132694 261.888937 
L 157.208337 261.006673 
L 157.419468 261.006673 
L 157.428797 260.12441 
L 158.084094 260.12441 
L 158.084094 259.683278 
L 159.601943 259.683278 
L 159.676576 258.801015 
L 159.833168 258.801015 
L 159.833168 258.359883 
L 160.327278 258.359883 
L 160.327278 257.918751 
L 165.422585 257.918751 
L 165.422585 257.47762 
L 166.388254 257.47762 
L 166.388254 257.036488 
L 166.780922 257.036488 
L 166.840394 256.154224 
L 167.165561 256.154224 
L 167.165561 255.713093 
L 167.312278 255.713093 
L 167.312278 254.830829 
L 167.553385 254.830829 
L 167.553385 254.389698 
L 168.544952 254.389698 
L 168.544952 253.948566 
L 170.729617 253.948566 
L 170.729617 253.507434 
L 171.912619 253.507434 
L 171.912619 253.066302 
L 172.653577 253.066302 
L 172.653577 252.184039 
L 173.250171 252.184039 
L 173.250171 251.301776 
L 176.034135 251.301776 
L 176.034135 250.860644 
L 176.193029 250.860644 
L 176.294227 249.096117 
L 177.124111 249.096117 
L 177.124111 248.654985 
L 177.456694 248.654985 
L 177.456694 248.213854 
L 177.914217 248.213854 
L 177.914217 247.772722 
L 179.016031 247.772722 
L 179.016031 247.33159 
L 179.736234 247.33159 
L 179.736234 246.449327 
L 181.207191 246.449327 
L 181.207191 246.008195 
L 184.756448 246.008195 
L 184.756448 245.567063 
L 185.487159 245.567063 
L 185.487159 245.125932 
L 185.685485 245.125932 
L 185.685485 244.6848 
L 192.423108 244.6848 
L 192.423108 244.243668 
L 193.617436 244.243668 
L 193.617436 243.802537 
L 195.715677 243.802537 
L 195.823807 242.920273 
L 195.878244 242.920273 
L 195.986647 241.596878 
L 196.096818 241.596878 
L 196.149281 240.714615 
L 202.840545 240.714615 
L 202.840545 240.273483 
L 203.723848 240.273483 
L 203.723848 239.832351 
L 204.559916 239.832351 
L 204.559916 239.39122 
L 205.013908 239.39122 
L 205.013908 238.950088 
L 206.658994 238.950088 
L 206.658994 238.508956 
L 215.1304 238.508956 
L 215.1304 238.067824 
L 216.646243 238.067824 
L 216.646243 237.626693 
L 217.942757 237.626693 
L 218.050667 236.744429 
L 219.225786 236.744429 
L 219.225786 236.303298 
L 220.607797 236.303298 
L 220.607797 235.862166 
L 220.829055 235.862166 
L 220.829055 235.421034 
L 222.983644 235.421034 
L 222.983644 234.538771 
L 225.918576 234.538771 
L 225.918576 234.097639 
L 226.038797 234.097639 
L 226.038797 233.656507 
L 226.770045 233.656507 
L 226.770045 233.215376 
L 227.458831 233.215376 
L 227.458831 232.774244 
L 231.535914 232.774244 
L 231.535914 232.333112 
L 231.9326 232.333112 
L 231.9326 231.89198 
L 233.565687 231.89198 
L 233.594827 230.127454 
L 238.107032 230.127454 
L 238.107032 229.686322 
L 241.591978 229.686322 
L 241.644594 228.804059 
L 244.513145 228.804059 
L 244.513145 228.362927 
L 245.308107 228.362927 
L 245.316091 226.157268 
L 250.021024 226.157268 
L 250.055164 224.833873 
L 250.46243 224.833873 
L 250.46243 224.392741 
L 251.893772 224.392741 
L 251.893772 223.95161 
L 252.478932 223.95161 
L 252.496242 221.745951 
L 255.847557 221.745951 
L 255.847557 221.30482 
L 257.654305 221.30482 
L 257.663562 219.981424 
L 260.267929 219.981424 
L 260.268166 219.099161 
L 261.717877 219.099161 
L 261.719117 218.216898 
L 263.83019 218.216898 
L 263.83019 217.775766 
L 265.051918 217.775766 
L 265.058226 216.893502 
L 267.882541 216.893502 
L 267.889308 214.687844 
L 269.158915 214.687844 
L 269.158915 214.246712 
L 269.441182 214.246712 
L 269.441182 213.80558 
L 270.344316 213.80558 
L 270.345262 212.041054 
L 274.471158 212.041054 
L 274.473251 211.15879 
L 275.580624 211.15879 
L 275.580624 210.717659 
L 276.236639 210.717659 
L 276.236639 210.276527 
L 277.851921 210.276527 
L 277.853793 209.394263 
L 279.339384 209.394263 
L 279.340849 208.512 
L 281.51445 208.512 
L 281.51445 208.070868 
L 287.364298 208.070868 
L 287.364569 207.188605 
L 288.274487 207.188605 
L 288.274487 206.747473 
L 289.974151 206.747473 
L 289.975601 205.86521 
L 290.770745 205.86521 
L 290.770745 205.424078 
L 291.533291 205.424078 
L 291.534334 204.541815 
L 292.265559 204.541815 
L 292.266627 203.659551 
L 292.973112 203.659551 
L 292.973112 203.21842 
L 293.652459 203.21842 
L 293.653054 202.336156 
L 294.308513 202.336156 
L 294.308513 201.895024 
L 297.286218 201.895024 
L 297.286218 201.453893 
L 299.368944 201.453893 
L 299.368944 201.012761 
L 300.793312 201.012761 
L 300.793312 200.571629 
L 305.248524 200.571629 
L 305.248524 200.130498 
L 306.638715 200.130498 
L 306.638715 199.689366 
L 360.8064 199.689366 
L 360.8064 199.689366 
" style="fill:none;stroke:#ff0000;stroke-linecap:square;stroke-width:1.5;"/>
   </g>
   <g id="line2d_49">
    <defs>
     <path d="M -6 6 
L 6 6 
L 6 -6 
L -6 -6 
z
" id="m73a582aae3" style="stroke:#ff0000;stroke-linejoin:miter;stroke-width:1.5;"/>
    </defs>
    <g>
     <use style="fill-opacity:0;stroke:#ff0000;stroke-linejoin:miter;stroke-width:1.5;" x="196.149281" xlink:href="#m73a582aae3" y="240.714615"/>
     <use style="fill-opacity:0;stroke:#ff0000;stroke-linejoin:miter;stroke-width:1.5;" x="281.51445" xlink:href="#m73a582aae3" y="208.512"/>
     <use style="fill-opacity:0;stroke:#ff0000;stroke-linejoin:miter;stroke-width:1.5;" x="306.638715" xlink:href="#m73a582aae3" y="199.689366"/>
     <use style="fill-opacity:0;stroke:#ff0000;stroke-linejoin:miter;stroke-width:1.5;" x="306.638715" xlink:href="#m73a582aae3" y="199.689366"/>
     <use style="fill-opacity:0;stroke:#ff0000;stroke-linejoin:miter;stroke-width:1.5;" x="360.8064" xlink:href="#m73a582aae3" y="199.689366"/>
    </g>
   </g>
   <g id="line2d_50">
    <path style="fill:none;stroke:#ff0000;stroke-linecap:square;stroke-width:1.5;"/>
    <g/>
   </g>
   <g id="line2d_51">
    <path clip-path="url(#p78545fccf3)" d="M 230.863245 232.774244 
" style="fill:none;stroke:#ff0000;stroke-linecap:square;stroke-width:1.5;"/>
    <defs>
     <path d="M -12 12 
L 12 -12 
M -12 -12 
L 12 12 
" id="m924f0b8ae0" style="stroke:#ff0000;"/>
    </defs>
    <g clip-path="url(#p78545fccf3)">
     <use style="fill:#ff0000;stroke:#ff0000;" x="230.863245" xlink:href="#m924f0b8ae0" y="232.774244"/>
    </g>
   </g>
   <g id="line2d_52">
    <defs>
     <path d="M 0 1.5 
C 0.397805 1.5 0.77937 1.341951 1.06066 1.06066 
C 1.341951 0.77937 1.5 0.397805 1.5 0 
C 1.5 -0.397805 1.341951 -0.77937 1.06066 -1.06066 
C 0.77937 -1.341951 0.397805 -1.5 0 -1.5 
C -0.397805 -1.5 -0.77937 -1.341951 -1.06066 -1.06066 
C -1.341951 -0.77937 -1.5 -0.397805 -1.5 0 
C -1.5 0.397805 -1.341951 0.77937 -1.06066 1.06066 
C -0.77937 1.341951 -0.397805 1.5 0 1.5 
z
" id="m56610aa668" style="stroke:#bf00bf;"/>
    </defs>
    <g>
     <use style="fill:#bf00bf;stroke:#bf00bf;" x="291.980636" xlink:href="#m56610aa668" y="226.157268"/>
     <use style="fill:#bf00bf;stroke:#bf00bf;" x="291.980636" xlink:href="#m56610aa668" y="226.157268"/>
    </g>
   </g>
   <g id="line2d_53">
    <path d="M 138.070314 298.944 
L 138.070314 298.502868 
L 140.657135 298.502868 
L 140.657135 298.061737 
L 141.739954 298.061737 
L 141.739954 297.179473 
L 142.085715 297.179473 
L 142.085715 296.738341 
L 142.528483 296.738341 
L 142.528483 295.414946 
L 143.893496 295.414946 
L 143.893496 294.973815 
L 145.54268 294.973815 
L 145.595238 293.65042 
L 147.730563 293.65042 
L 147.730563 292.768156 
L 148.051871 292.768156 
L 148.094045 291.885893 
L 149.945377 291.885893 
L 150.052664 289.239102 
L 150.496032 289.239102 
L 150.496032 288.797971 
L 151.060487 288.797971 
L 151.060487 288.356839 
L 151.436148 288.356839 
L 151.436148 287.033444 
L 151.608498 287.033444 
L 151.608498 286.592312 
L 151.813883 286.592312 
L 151.813883 286.15118 
L 152.24878 286.15118 
L 152.24878 285.710049 
L 152.532216 285.710049 
L 152.598645 284.827785 
L 152.817404 284.827785 
L 152.817404 284.386654 
L 153.02481 284.386654 
L 153.02481 283.945522 
L 153.607958 283.945522 
L 153.607958 283.50439 
L 153.857685 283.50439 
L 153.933646 282.622127 
L 153.986917 282.622127 
L 154.03166 281.739863 
L 154.170799 281.739863 
L 154.170799 281.298732 
L 154.451492 281.298732 
L 154.456954 279.975337 
L 154.647136 279.975337 
L 154.647136 279.534205 
L 154.854139 279.534205 
L 154.915532 278.651941 
L 155.357991 278.651941 
L 155.357991 278.21081 
L 155.572805 278.21081 
L 155.572805 276.887415 
L 155.711258 276.887415 
L 155.711258 276.005151 
L 156.269983 276.005151 
L 156.269983 275.56402 
L 156.403417 275.56402 
L 156.459963 274.681756 
L 156.694165 274.681756 
L 156.75468 273.799493 
L 156.853504 273.799493 
L 156.853504 272.917229 
L 157.056745 272.917229 
L 157.056745 272.476098 
L 157.180007 272.476098 
L 157.180007 272.034966 
L 157.302466 272.034966 
L 157.302466 271.593834 
L 158.307938 271.593834 
L 158.307938 271.152702 
L 158.605962 271.152702 
L 158.605962 268.505912 
L 166.1287 268.505912 
L 166.1287 268.06478 
L 167.763194 268.06478 
L 167.833061 267.182517 
L 169.090916 267.182517 
L 169.090916 266.741385 
L 169.413021 266.741385 
L 169.44136 265.859122 
L 170.187258 265.859122 
L 170.187258 265.41799 
L 170.478461 265.41799 
L 170.574922 264.094595 
L 171.766301 264.094595 
L 171.766301 263.653463 
L 172.10275 263.653463 
L 172.10275 263.212332 
L 177.73365 263.212332 
L 177.73365 262.7712 
L 178.480044 262.7712 
L 178.480044 262.330068 
L 178.609052 262.330068 
L 178.609052 261.888937 
L 183.60308 261.888937 
L 183.60308 261.447805 
L 183.850244 261.447805 
L 183.850244 261.006673 
L 184.789692 261.006673 
L 184.789692 260.565541 
L 187.350836 260.565541 
L 187.350836 260.12441 
L 188.869718 260.12441 
L 188.869718 259.683278 
L 191.950562 259.683278 
L 192.046692 258.359883 
L 192.151908 258.359883 
L 192.151908 257.918751 
L 195.34841 257.918751 
L 195.34841 257.47762 
L 197.102277 257.47762 
L 197.102277 257.036488 
L 197.49764 257.036488 
L 197.552146 256.154224 
L 198.052407 256.154224 
L 198.099159 254.830829 
L 199.830806 254.830829 
L 199.830806 254.389698 
L 200.156199 254.389698 
L 200.156199 253.948566 
L 201.657374 253.948566 
L 201.732741 253.066302 
L 201.851824 253.066302 
L 201.851824 252.625171 
L 202.079501 252.625171 
L 202.079501 252.184039 
L 209.79562 252.184039 
L 209.79562 251.742907 
L 210.945335 251.742907 
L 210.945335 251.301776 
L 212.90617 251.301776 
L 212.90617 250.860644 
L 213.060416 250.860644 
L 213.060416 250.419512 
L 213.905069 250.419512 
L 213.905069 249.97838 
L 218.69927 249.97838 
L 218.69927 249.537249 
L 222.24682 249.537249 
L 222.24682 249.096117 
L 222.474336 249.096117 
L 222.474336 248.654985 
L 223.461484 248.654985 
L 223.461484 248.213854 
L 225.75395 248.213854 
L 225.75395 247.772722 
L 230.83793 247.772722 
L 230.850404 246.890459 
L 231.673699 246.890459 
L 231.673699 246.449327 
L 233.102257 246.449327 
L 233.125662 245.567063 
L 233.754257 245.567063 
L 233.820031 244.243668 
L 234.169258 244.243668 
L 234.222078 243.361405 
L 237.033002 243.361405 
L 237.033002 242.920273 
L 237.273055 242.920273 
L 237.273389 242.03801 
L 238.787725 242.03801 
L 238.787725 241.596878 
L 245.060392 241.596878 
L 245.060392 241.155746 
L 245.439453 241.155746 
L 245.439453 240.714615 
L 247.239351 240.714615 
L 247.239804 239.832351 
L 249.97622 239.832351 
L 249.976697 238.950088 
L 252.567813 238.950088 
L 252.567813 238.508956 
L 253.819152 238.508956 
L 253.917624 237.626693 
L 255.788505 237.626693 
L 255.788792 236.744429 
L 256.938643 236.744429 
L 256.938643 236.303298 
L 257.532884 236.303298 
L 257.532884 235.862166 
L 259.873581 235.862166 
L 259.874064 234.979902 
L 260.22198 234.979902 
L 260.22198 234.538771 
L 261.136854 234.538771 
L 261.136854 234.097639 
L 262.545569 234.097639 
L 262.545569 233.656507 
L 263.520515 233.656507 
L 263.520731 232.774244 
L 263.808431 232.774244 
L 263.808431 232.333112 
L 264.965764 232.333112 
L 264.965764 231.89198 
L 265.80091 231.89198 
L 265.80091 231.450849 
L 266.818697 231.450849 
L 266.818697 231.009717 
L 268.484354 231.009717 
L 268.484354 230.568585 
L 271.692237 230.568585 
L 271.693004 229.686322 
L 274.895095 229.686322 
L 274.895095 229.24519 
L 278.207353 229.24519 
L 278.207353 228.804059 
L 281.505046 228.804059 
L 281.505046 228.362927 
L 282.73854 228.362927 
L 282.73854 227.921795 
L 283.895316 227.921795 
L 283.895316 227.480663 
L 284.585384 227.480663 
L 284.585384 227.039532 
L 291.235505 227.039532 
L 291.235505 226.5984 
L 291.980636 226.5984 
L 291.980636 226.157268 
L 360.8064 226.157268 
L 360.8064 226.157268 
" style="fill:none;stroke:#bf00bf;stroke-linecap:square;stroke-width:1.5;"/>
   </g>
   <g id="line2d_54">
    <defs>
     <path d="M -0 8.485281 
L 8.485281 0 
L 0 -8.485281 
L -8.485281 -0 
z
" id="mf3a163c86d" style="stroke:#bf00bf;stroke-linejoin:miter;stroke-width:1.5;"/>
    </defs>
    <g>
     <use style="fill-opacity:0;stroke:#bf00bf;stroke-linejoin:miter;stroke-width:1.5;" x="158.605962" xlink:href="#mf3a163c86d" y="271.152702"/>
     <use style="fill-opacity:0;stroke:#bf00bf;stroke-linejoin:miter;stroke-width:1.5;" x="223.461484" xlink:href="#mf3a163c86d" y="248.213854"/>
     <use style="fill-opacity:0;stroke:#bf00bf;stroke-linejoin:miter;stroke-width:1.5;" x="284.585384" xlink:href="#mf3a163c86d" y="227.039532"/>
     <use style="fill-opacity:0;stroke:#bf00bf;stroke-linejoin:miter;stroke-width:1.5;" x="291.980636" xlink:href="#mf3a163c86d" y="226.157268"/>
     <use style="fill-opacity:0;stroke:#bf00bf;stroke-linejoin:miter;stroke-width:1.5;" x="360.8064" xlink:href="#mf3a163c86d" y="226.157268"/>
    </g>
   </g>
   <g id="line2d_55">
    <path style="fill:none;stroke:#bf00bf;stroke-linecap:square;stroke-width:1.5;"/>
    <g/>
   </g>
   <g id="line2d_56">
    <path clip-path="url(#p78545fccf3)" d="M 230.863527 246.890459 
" style="fill:none;stroke:#bf00bf;stroke-linecap:square;stroke-width:1.5;"/>
    <defs>
     <path d="M -12 12 
L 12 -12 
M -12 -12 
L 12 12 
" id="m35a0e58a69" style="stroke:#bf00bf;"/>
    </defs>
    <g clip-path="url(#p78545fccf3)">
     <use style="fill:#bf00bf;stroke:#bf00bf;" x="230.863527" xlink:href="#m35a0e58a69" y="246.890459"/>
    </g>
   </g>
   <g id="line2d_57">
    <path d="M 360.8064 226.157268 
L 380.514816 293.51808 
" style="fill:none;stroke:#bf00bf;stroke-linecap:square;stroke-width:1.5;"/>
    <g>
     <use style="fill-opacity:0;stroke:#bf00bf;stroke-linejoin:miter;stroke-width:1.5;" x="360.8064" xlink:href="#mf3a163c86d" y="226.157268"/>
     <use style="fill-opacity:0;stroke:#bf00bf;stroke-linejoin:miter;stroke-width:1.5;" x="380.514816" xlink:href="#mf3a163c86d" y="293.51808"/>
    </g>
   </g>
   <g id="line2d_58">
    <path d="M 360.8064 199.689366 
L 380.514816 241.429248 
" style="fill:none;stroke:#ff0000;stroke-linecap:square;stroke-width:1.5;"/>
    <g>
     <use style="fill-opacity:0;stroke:#ff0000;stroke-linejoin:miter;stroke-width:1.5;" x="360.8064" xlink:href="#m73a582aae3" y="199.689366"/>
     <use style="fill-opacity:0;stroke:#ff0000;stroke-linejoin:miter;stroke-width:1.5;" x="380.514816" xlink:href="#m73a582aae3" y="241.429248"/>
    </g>
   </g>
   <g id="line2d_59">
    <path d="M 360.8064 173.221463 
L 380.514816 189.340416 
" style="fill:none;stroke:#000000;stroke-linecap:square;stroke-width:1.5;"/>
    <g>
     <use style="fill-opacity:0;stroke:#000000;stroke-width:1.5;" x="360.8064" xlink:href="#mb3d81b65aa" y="173.221463"/>
     <use style="fill-opacity:0;stroke:#000000;stroke-width:1.5;" x="380.514816" xlink:href="#mb3d81b65aa" y="189.340416"/>
    </g>
   </g>
   <g id="line2d_60">
    <path d="M 360.8064 27.648 
L 380.514816 137.251584 
" style="fill:none;stroke:#0000ff;stroke-linecap:square;stroke-width:1.5;"/>
    <g>
     <use style="fill-opacity:0;stroke:#0000ff;stroke-linejoin:bevel;stroke-width:1.5;" x="360.8064" xlink:href="#mea71c7552c" y="27.648"/>
     <use style="fill-opacity:0;stroke:#0000ff;stroke-linejoin:bevel;stroke-width:1.5;" x="380.514816" xlink:href="#mea71c7552c" y="137.251584"/>
    </g>
   </g>
   <g id="line2d_61">
    <path d="M 360.8064 27.648 
L 380.514816 85.162752 
" style="fill:none;stroke:#008000;stroke-linecap:square;stroke-width:1.5;"/>
    <g>
     <use style="fill-opacity:0;stroke:#008000;stroke-linejoin:miter;stroke-width:1.5;" x="360.8064" xlink:href="#m8943ce62e4" y="27.648"/>
     <use style="fill-opacity:0;stroke:#008000;stroke-linejoin:miter;stroke-width:1.5;" x="380.514816" xlink:href="#m8943ce62e4" y="85.162752"/>
    </g>
   </g>
   <g id="line2d_62">
    <path d="M 360.8064 27.648 
L 380.514816 33.07392 
" style="fill:none;stroke:#00bfbf;stroke-linecap:square;stroke-width:1.5;"/>
    <g>
     <use style="fill-opacity:0;stroke:#00bfbf;stroke-width:1.5;" x="360.8064" xlink:href="#m155d0d253a" y="27.648"/>
     <use style="fill-opacity:0;stroke:#00bfbf;stroke-width:1.5;" x="380.514816" xlink:href="#m155d0d253a" y="33.07392"/>
    </g>
   </g>
   <g id="line2d_63">
    <path d="M 360.8064 298.944 
L 360.8064 27.648 
" style="fill:none;stroke:#000000;stroke-linecap:square;stroke-width:1.5;"/>
   </g>
   <g id="patch_3">
    <path d="M 57.6 298.944 
L 360.8064 298.944 
" style="fill:none;stroke:#000000;stroke-linecap:square;stroke-linejoin:miter;stroke-width:0.8;"/>
   </g>
   <g id="patch_4">
    <path d="M 57.6 27.648 
L 360.8064 27.648 
" style="fill:none;stroke:#000000;stroke-linecap:square;stroke-linejoin:miter;stroke-width:0.8;"/>
   </g>
   <g id="text_13">
    <!-- 40-D -->
    <g transform="translate(386.578944 297.381205)scale(0.14 -0.14)">
     <defs>
      <path d="M 4.890625 31.390625 
L 31.203125 31.390625 
L 31.203125 23.390625 
L 4.890625 23.390625 
z
" id="DejaVuSans-45"/>
      <path d="M 19.671875 64.796875 
L 19.671875 8.109375 
L 31.59375 8.109375 
Q 46.6875 8.109375 53.6875 14.9375 
Q 60.6875 21.78125 60.6875 36.53125 
Q 60.6875 51.171875 53.6875 57.984375 
Q 46.6875 64.796875 31.59375 64.796875 
z
M 9.8125 72.90625 
L 30.078125 72.90625 
Q 51.265625 72.90625 61.171875 64.09375 
Q 71.09375 55.28125 71.09375 36.53125 
Q 71.09375 17.671875 61.125 8.828125 
Q 51.171875 0 30.078125 0 
L 9.8125 0 
z
" id="DejaVuSans-68"/>
     </defs>
     <use xlink:href="#DejaVuSans-52"/>
     <use x="63.623047" xlink:href="#DejaVuSans-48"/>
     <use x="127.246094" xlink:href="#DejaVuSans-45"/>
     <use x="163.330078" xlink:href="#DejaVuSans-68"/>
    </g>
   </g>
   <g id="text_14">
    <!-- 20-D -->
    <g transform="translate(386.578944 245.292373)scale(0.14 -0.14)">
     <use xlink:href="#DejaVuSans-50"/>
     <use x="63.623047" xlink:href="#DejaVuSans-48"/>
     <use x="127.246094" xlink:href="#DejaVuSans-45"/>
     <use x="163.330078" xlink:href="#DejaVuSans-68"/>
    </g>
   </g>
   <g id="text_15">
    <!-- 10-D -->
    <g transform="translate(386.578944 193.203541)scale(0.14 -0.14)">
     <use xlink:href="#DejaVuSans-49"/>
     <use x="63.623047" xlink:href="#DejaVuSans-48"/>
     <use x="127.246094" xlink:href="#DejaVuSans-45"/>
     <use x="163.330078" xlink:href="#DejaVuSans-68"/>
    </g>
   </g>
   <g id="text_16">
    <!-- 5-D -->
    <g transform="translate(386.578944 141.114709)scale(0.14 -0.14)">
     <defs>
      <path d="M 10.796875 72.90625 
L 49.515625 72.90625 
L 49.515625 64.59375 
L 19.828125 64.59375 
L 19.828125 46.734375 
Q 21.96875 47.46875 24.109375 47.828125 
Q 26.265625 48.1875 28.421875 48.1875 
Q 40.625 48.1875 47.75 41.5 
Q 54.890625 34.8125 54.890625 23.390625 
Q 54.890625 11.625 47.5625 5.09375 
Q 40.234375 -1.421875 26.90625 -1.421875 
Q 22.3125 -1.421875 17.546875 -0.640625 
Q 12.796875 0.140625 7.71875 1.703125 
L 7.71875 11.625 
Q 12.109375 9.234375 16.796875 8.0625 
Q 21.484375 6.890625 26.703125 6.890625 
Q 35.15625 6.890625 40.078125 11.328125 
Q 45.015625 15.765625 45.015625 23.390625 
Q 45.015625 31 40.078125 35.4375 
Q 35.15625 39.890625 26.703125 39.890625 
Q 22.75 39.890625 18.8125 39.015625 
Q 14.890625 38.140625 10.796875 36.28125 
z
" id="DejaVuSans-53"/>
     </defs>
     <use xlink:href="#DejaVuSans-53"/>
     <use x="63.623047" xlink:href="#DejaVuSans-45"/>
     <use x="99.707031" xlink:href="#DejaVuSans-68"/>
    </g>
   </g>
   <g id="text_17">
    <!-- 3-D -->
    <g transform="translate(386.578944 89.025877)scale(0.14 -0.14)">
     <defs>
      <path d="M 40.578125 39.3125 
Q 47.65625 37.796875 51.625 33 
Q 55.609375 28.21875 55.609375 21.1875 
Q 55.609375 10.40625 48.1875 4.484375 
Q 40.765625 -1.421875 27.09375 -1.421875 
Q 22.515625 -1.421875 17.65625 -0.515625 
Q 12.796875 0.390625 7.625 2.203125 
L 7.625 11.71875 
Q 11.71875 9.328125 16.59375 8.109375 
Q 21.484375 6.890625 26.8125 6.890625 
Q 36.078125 6.890625 40.9375 10.546875 
Q 45.796875 14.203125 45.796875 21.1875 
Q 45.796875 27.640625 41.28125 31.265625 
Q 36.765625 34.90625 28.71875 34.90625 
L 20.21875 34.90625 
L 20.21875 43.015625 
L 29.109375 43.015625 
Q 36.375 43.015625 40.234375 45.921875 
Q 44.09375 48.828125 44.09375 54.296875 
Q 44.09375 59.90625 40.109375 62.90625 
Q 36.140625 65.921875 28.71875 65.921875 
Q 24.65625 65.921875 20.015625 65.03125 
Q 15.375 64.15625 9.8125 62.3125 
L 9.8125 71.09375 
Q 15.4375 72.65625 20.34375 73.4375 
Q 25.25 74.21875 29.59375 74.21875 
Q 40.828125 74.21875 47.359375 69.109375 
Q 53.90625 64.015625 53.90625 55.328125 
Q 53.90625 49.265625 50.4375 45.09375 
Q 46.96875 40.921875 40.578125 39.3125 
z
" id="DejaVuSans-51"/>
     </defs>
     <use xlink:href="#DejaVuSans-51"/>
     <use x="63.623047" xlink:href="#DejaVuSans-45"/>
     <use x="99.707031" xlink:href="#DejaVuSans-68"/>
    </g>
   </g>
   <g id="text_18">
    <!-- 2-D -->
    <g transform="translate(386.578944 36.937045)scale(0.14 -0.14)">
     <use xlink:href="#DejaVuSans-50"/>
     <use x="63.623047" xlink:href="#DejaVuSans-45"/>
     <use x="99.707031" xlink:href="#DejaVuSans-68"/>
    </g>
   </g>
   <g id="text_19">
    <!-- bbob-constrained f21 -->
    <g transform="translate(60.632064 38.111366)scale(0.102 -0.102)">
     <defs>
      <path d="M 48.6875 27.296875 
Q 48.6875 37.203125 44.609375 42.84375 
Q 40.53125 48.484375 33.40625 48.484375 
Q 26.265625 48.484375 22.1875 42.84375 
Q 18.109375 37.203125 18.109375 27.296875 
Q 18.109375 17.390625 22.1875 11.75 
Q 26.265625 6.109375 33.40625 6.109375 
Q 40.53125 6.109375 44.609375 11.75 
Q 48.6875 17.390625 48.6875 27.296875 
z
M 18.109375 46.390625 
Q 20.953125 51.265625 25.265625 53.625 
Q 29.59375 56 35.59375 56 
Q 45.5625 56 51.78125 48.09375 
Q 58.015625 40.1875 58.015625 27.296875 
Q 58.015625 14.40625 51.78125 6.484375 
Q 45.5625 -1.421875 35.59375 -1.421875 
Q 29.59375 -1.421875 25.265625 0.953125 
Q 20.953125 3.328125 18.109375 8.203125 
L 18.109375 0 
L 9.078125 0 
L 9.078125 75.984375 
L 18.109375 75.984375 
z
" id="DejaVuSans-98"/>
     </defs>
     <use xlink:href="#DejaVuSans-98"/>
     <use x="63.476562" xlink:href="#DejaVuSans-98"/>
     <use x="126.953125" xlink:href="#DejaVuSans-111"/>
     <use x="188.134766" xlink:href="#DejaVuSans-98"/>
     <use x="251.611328" xlink:href="#DejaVuSans-45"/>
     <use x="287.695312" xlink:href="#DejaVuSans-99"/>
     <use x="342.675781" xlink:href="#DejaVuSans-111"/>
     <use x="403.857422" xlink:href="#DejaVuSans-110"/>
     <use x="467.236328" xlink:href="#DejaVuSans-115"/>
     <use x="519.335938" xlink:href="#DejaVuSans-116"/>
     <use x="558.544922" xlink:href="#DejaVuSans-114"/>
     <use x="599.658203" xlink:href="#DejaVuSans-97"/>
     <use x="660.9375" xlink:href="#DejaVuSans-105"/>
     <use x="688.720703" xlink:href="#DejaVuSans-110"/>
     <use x="752.099609" xlink:href="#DejaVuSans-101"/>
     <use x="813.623047" xlink:href="#DejaVuSans-100"/>
     <use x="877.099609" xlink:href="#DejaVuSans-32"/>
     <use x="908.886719" xlink:href="#DejaVuSans-102"/>
     <use x="944.091797" xlink:href="#DejaVuSans-50"/>
     <use x="1007.714844" xlink:href="#DejaVuSans-49"/>
    </g>
    <!-- 41 targets: 100..1e-06 -->
    <g transform="translate(60.632064 49.533135)scale(0.102 -0.102)">
     <defs>
      <path d="M 11.71875 12.40625 
L 22.015625 12.40625 
L 22.015625 0 
L 11.71875 0 
z
M 11.71875 51.703125 
L 22.015625 51.703125 
L 22.015625 39.3125 
L 11.71875 39.3125 
z
" id="DejaVuSans-58"/>
     </defs>
     <use xlink:href="#DejaVuSans-52"/>
     <use x="63.623047" xlink:href="#DejaVuSans-49"/>
     <use x="127.246094" xlink:href="#DejaVuSans-32"/>
     <use x="159.033203" xlink:href="#DejaVuSans-116"/>
     <use x="198.242188" xlink:href="#DejaVuSans-97"/>
     <use x="259.521484" xlink:href="#DejaVuSans-114"/>
     <use x="298.884766" xlink:href="#DejaVuSans-103"/>
     <use x="362.361328" xlink:href="#DejaVuSans-101"/>
     <use x="423.884766" xlink:href="#DejaVuSans-116"/>
     <use x="463.09375" xlink:href="#DejaVuSans-115"/>
     <use x="515.193359" xlink:href="#DejaVuSans-58"/>
     <use x="548.884766" xlink:href="#DejaVuSans-32"/>
     <use x="580.671875" xlink:href="#DejaVuSans-49"/>
     <use x="644.294922" xlink:href="#DejaVuSans-48"/>
     <use x="707.917969" xlink:href="#DejaVuSans-48"/>
     <use x="771.541016" xlink:href="#DejaVuSans-46"/>
     <use x="803.328125" xlink:href="#DejaVuSans-46"/>
     <use x="835.115234" xlink:href="#DejaVuSans-49"/>
     <use x="898.738281" xlink:href="#DejaVuSans-101"/>
     <use x="960.261719" xlink:href="#DejaVuSans-45"/>
     <use x="996.345703" xlink:href="#DejaVuSans-48"/>
     <use x="1059.96875" xlink:href="#DejaVuSans-54"/>
    </g>
    <!-- evals = f-evals + g-evals -->
    <g transform="translate(60.632064 60.954904)scale(0.102 -0.102)">
     <defs>
      <path d="M 10.59375 45.40625 
L 73.1875 45.40625 
L 73.1875 37.203125 
L 10.59375 37.203125 
z
M 10.59375 25.484375 
L 73.1875 25.484375 
L 73.1875 17.1875 
L 10.59375 17.1875 
z
" id="DejaVuSans-61"/>
      <path d="M 46 62.703125 
L 46 35.5 
L 73.1875 35.5 
L 73.1875 27.203125 
L 46 27.203125 
L 46 0 
L 37.796875 0 
L 37.796875 27.203125 
L 10.59375 27.203125 
L 10.59375 35.5 
L 37.796875 35.5 
L 37.796875 62.703125 
z
" id="DejaVuSans-43"/>
     </defs>
     <use xlink:href="#DejaVuSans-101"/>
     <use x="61.523438" xlink:href="#DejaVuSans-118"/>
     <use x="120.703125" xlink:href="#DejaVuSans-97"/>
     <use x="181.982422" xlink:href="#DejaVuSans-108"/>
     <use x="209.765625" xlink:href="#DejaVuSans-115"/>
     <use x="261.865234" xlink:href="#DejaVuSans-32"/>
     <use x="293.652344" xlink:href="#DejaVuSans-61"/>
     <use x="377.441406" xlink:href="#DejaVuSans-32"/>
     <use x="409.228516" xlink:href="#DejaVuSans-102"/>
     <use x="438.933594" xlink:href="#DejaVuSans-45"/>
     <use x="475.017578" xlink:href="#DejaVuSans-101"/>
     <use x="536.541016" xlink:href="#DejaVuSans-118"/>
     <use x="595.720703" xlink:href="#DejaVuSans-97"/>
     <use x="657" xlink:href="#DejaVuSans-108"/>
     <use x="684.783203" xlink:href="#DejaVuSans-115"/>
     <use x="736.882812" xlink:href="#DejaVuSans-32"/>
     <use x="768.669922" xlink:href="#DejaVuSans-43"/>
     <use x="852.458984" xlink:href="#DejaVuSans-32"/>
     <use x="884.246094" xlink:href="#DejaVuSans-103"/>
     <use x="947.722656" xlink:href="#DejaVuSans-45"/>
     <use x="983.806641" xlink:href="#DejaVuSans-101"/>
     <use x="1045.330078" xlink:href="#DejaVuSans-118"/>
     <use x="1104.509766" xlink:href="#DejaVuSans-97"/>
     <use x="1165.789062" xlink:href="#DejaVuSans-108"/>
     <use x="1193.572266" xlink:href="#DejaVuSans-115"/>
    </g>
    <!-- 15 instances -->
    <g transform="translate(60.632064 72.376672)scale(0.102 -0.102)">
     <use xlink:href="#DejaVuSans-49"/>
     <use x="63.623047" xlink:href="#DejaVuSans-53"/>
     <use x="127.246094" xlink:href="#DejaVuSans-32"/>
     <use x="159.033203" xlink:href="#DejaVuSans-105"/>
     <use x="186.816406" xlink:href="#DejaVuSans-110"/>
     <use x="250.195312" xlink:href="#DejaVuSans-115"/>
     <use x="302.294922" xlink:href="#DejaVuSans-116"/>
     <use x="341.503906" xlink:href="#DejaVuSans-97"/>
     <use x="402.783203" xlink:href="#DejaVuSans-110"/>
     <use x="466.162109" xlink:href="#DejaVuSans-99"/>
     <use x="521.142578" xlink:href="#DejaVuSans-101"/>
     <use x="582.666016" xlink:href="#DejaVuSans-115"/>
    </g>
   </g>
   <g id="text_20">
    <!-- v2.4.159 -->
    <g style="fill:#808080;" transform="translate(187.15945 294.151352)scale(0.1 -0.1)">
     <defs>
      <path d="M 10.984375 1.515625 
L 10.984375 10.5 
Q 14.703125 8.734375 18.5 7.8125 
Q 22.3125 6.890625 25.984375 6.890625 
Q 35.75 6.890625 40.890625 13.453125 
Q 46.046875 20.015625 46.78125 33.40625 
Q 43.953125 29.203125 39.59375 26.953125 
Q 35.25 24.703125 29.984375 24.703125 
Q 19.046875 24.703125 12.671875 31.3125 
Q 6.296875 37.9375 6.296875 49.421875 
Q 6.296875 60.640625 12.9375 67.421875 
Q 19.578125 74.21875 30.609375 74.21875 
Q 43.265625 74.21875 49.921875 64.515625 
Q 56.59375 54.828125 56.59375 36.375 
Q 56.59375 19.140625 48.40625 8.859375 
Q 40.234375 -1.421875 26.421875 -1.421875 
Q 22.703125 -1.421875 18.890625 -0.6875 
Q 15.09375 0.046875 10.984375 1.515625 
z
M 30.609375 32.421875 
Q 37.25 32.421875 41.125 36.953125 
Q 45.015625 41.5 45.015625 49.421875 
Q 45.015625 57.28125 41.125 61.84375 
Q 37.25 66.40625 30.609375 66.40625 
Q 23.96875 66.40625 20.09375 61.84375 
Q 16.21875 57.28125 16.21875 49.421875 
Q 16.21875 41.5 20.09375 36.953125 
Q 23.96875 32.421875 30.609375 32.421875 
z
" id="DejaVuSans-57"/>
     </defs>
     <use xlink:href="#DejaVuSans-118"/>
     <use x="59.179688" xlink:href="#DejaVuSans-50"/>
     <use x="122.802734" xlink:href="#DejaVuSans-46"/>
     <use x="154.589844" xlink:href="#DejaVuSans-52"/>
     <use x="218.212891" xlink:href="#DejaVuSans-46"/>
     <use x="250" xlink:href="#DejaVuSans-49"/>
     <use x="313.623047" xlink:href="#DejaVuSans-53"/>
     <use x="377.246094" xlink:href="#DejaVuSans-57"/>
    </g>
   </g>
   <g id="text_21">
    <!-- 21 Rot. Ellipsoid, m=9 -->
    <g transform="translate(98.111012 21.648)scale(0.2 -0.2)">
     <defs>
      <path d="M 44.390625 34.1875 
Q 47.5625 33.109375 50.5625 29.59375 
Q 53.5625 26.078125 56.59375 19.921875 
L 66.609375 0 
L 56 0 
L 46.6875 18.703125 
Q 43.0625 26.03125 39.671875 28.421875 
Q 36.28125 30.8125 30.421875 30.8125 
L 19.671875 30.8125 
L 19.671875 0 
L 9.8125 0 
L 9.8125 72.90625 
L 32.078125 72.90625 
Q 44.578125 72.90625 50.734375 67.671875 
Q 56.890625 62.453125 56.890625 51.90625 
Q 56.890625 45.015625 53.6875 40.46875 
Q 50.484375 35.9375 44.390625 34.1875 
z
M 19.671875 64.796875 
L 19.671875 38.921875 
L 32.078125 38.921875 
Q 39.203125 38.921875 42.84375 42.21875 
Q 46.484375 45.515625 46.484375 51.90625 
Q 46.484375 58.296875 42.84375 61.546875 
Q 39.203125 64.796875 32.078125 64.796875 
z
" id="DejaVuSans-82"/>
      <path d="M 9.8125 72.90625 
L 55.90625 72.90625 
L 55.90625 64.59375 
L 19.671875 64.59375 
L 19.671875 43.015625 
L 54.390625 43.015625 
L 54.390625 34.71875 
L 19.671875 34.71875 
L 19.671875 8.296875 
L 56.78125 8.296875 
L 56.78125 0 
L 9.8125 0 
z
" id="DejaVuSans-69"/>
     </defs>
     <use xlink:href="#DejaVuSans-50"/>
     <use x="63.623047" xlink:href="#DejaVuSans-49"/>
     <use x="127.246094" xlink:href="#DejaVuSans-32"/>
     <use x="159.033203" xlink:href="#DejaVuSans-82"/>
     <use x="224.015625" xlink:href="#DejaVuSans-111"/>
     <use x="285.197266" xlink:href="#DejaVuSans-116"/>
     <use x="324.40625" xlink:href="#DejaVuSans-46"/>
     <use x="356.193359" xlink:href="#DejaVuSans-32"/>
     <use x="387.980469" xlink:href="#DejaVuSans-69"/>
     <use x="451.164062" xlink:href="#DejaVuSans-108"/>
     <use x="478.947266" xlink:href="#DejaVuSans-108"/>
     <use x="506.730469" xlink:href="#DejaVuSans-105"/>
     <use x="534.513672" xlink:href="#DejaVuSans-112"/>
     <use x="597.990234" xlink:href="#DejaVuSans-115"/>
     <use x="650.089844" xlink:href="#DejaVuSans-111"/>
     <use x="711.271484" xlink:href="#DejaVuSans-105"/>
     <use x="739.054688" xlink:href="#DejaVuSans-100"/>
     <use x="802.53125" xlink:href="#DejaVuSans-44"/>
     <use x="834.318359" xlink:href="#DejaVuSans-32"/>
     <use x="866.105469" xlink:href="#DejaVuSans-109"/>
     <use x="963.517578" xlink:href="#DejaVuSans-61"/>
     <use x="1047.306641" xlink:href="#DejaVuSans-57"/>
    </g>
   </g>
  </g>
 </g>
 <defs>
  <clipPath id="p78545fccf3">
   <rect height="271.296" width="303.2064" x="57.6" y="27.648"/>
  </clipPath>
 </defs>
</svg>
