<?xml version="1.0" encoding="utf-8" standalone="no"?>
<!DOCTYPE svg PUBLIC "-//W3C//DTD SVG 1.1//EN"
  "http://www.w3.org/Graphics/SVG/1.1/DTD/svg11.dtd">
<!-- Created with matplotlib (https://matplotlib.org/) -->
<svg height="345.6pt" version="1.1" viewBox="0 0 460.8 345.6" width="460.8pt" xmlns="http://www.w3.org/2000/svg" xmlns:xlink="http://www.w3.org/1999/xlink">
 <metadata>
  <rdf:RDF xmlns:cc="http://creativecommons.org/ns#" xmlns:dc="http://purl.org/dc/elements/1.1/" xmlns:rdf="http://www.w3.org/1999/02/22-rdf-syntax-ns#">
   <cc:Work>
    <dc:type rdf:resource="http://purl.org/dc/dcmitype/StillImage"/>
    <dc:date>2022-02-09T00:09:00.662499</dc:date>
    <dc:format>image/svg+xml</dc:format>
    <dc:creator>
     <cc:Agent>
      <dc:title>Matplotlib v3.3.3, https://matplotlib.org/</dc:title>
     </cc:Agent>
    </dc:creator>
   </cc:Work>
  </rdf:RDF>
 </metadata>
 <defs>
  <style type="text/css">*{stroke-linecap:butt;stroke-linejoin:round;}</style>
 </defs>
 <g id="figure_1">
  <g id="patch_1">
   <path d="M 0 345.6 
L 460.8 345.6 
L 460.8 0 
L 0 0 
z
" style="fill:#ffffff;"/>
  </g>
  <g id="axes_1">
   <g id="patch_2">
    <path d="M 57.6 298.944 
L 360.8064 298.944 
L 360.8064 6.912 
L 57.6 6.912 
z
" style="fill:#ffffff;"/>
   </g>
   <g id="matplotlib.axis_1">
    <g id="xtick_1">
     <g id="line2d_1">
      <path clip-path="url(#p7934369963)" d="M 57.6 298.944 
L 57.6 6.912 
" style="fill:none;stroke:#b0b0b0;stroke-linecap:square;stroke-width:0.8;"/>
     </g>
     <g id="line2d_2">
      <defs>
       <path d="M 0 0 
L 0 3.5 
" id="m949e339fac" style="stroke:#000000;stroke-width:0.8;"/>
      </defs>
      <g>
       <use style="stroke:#000000;stroke-width:0.8;" x="57.6" xlink:href="#m949e339fac" y="298.944"/>
      </g>
     </g>
     <g id="text_1">
      <!-- 0 -->
      <g transform="translate(52.191875 318.861344)scale(0.17 -0.17)">
       <defs>
        <path d="M 31.78125 66.40625 
Q 24.171875 66.40625 20.328125 58.90625 
Q 16.5 51.421875 16.5 36.375 
Q 16.5 21.390625 20.328125 13.890625 
Q 24.171875 6.390625 31.78125 6.390625 
Q 39.453125 6.390625 43.28125 13.890625 
Q 47.125 21.390625 47.125 36.375 
Q 47.125 51.421875 43.28125 58.90625 
Q 39.453125 66.40625 31.78125 66.40625 
z
M 31.78125 74.21875 
Q 44.046875 74.21875 50.515625 64.515625 
Q 56.984375 54.828125 56.984375 36.375 
Q 56.984375 17.96875 50.515625 8.265625 
Q 44.046875 -1.421875 31.78125 -1.421875 
Q 19.53125 -1.421875 13.0625 8.265625 
Q 6.59375 17.96875 6.59375 36.375 
Q 6.59375 54.828125 13.0625 64.515625 
Q 19.53125 74.21875 31.78125 74.21875 
z
" id="DejaVuSans-48"/>
       </defs>
       <use xlink:href="#DejaVuSans-48"/>
      </g>
     </g>
    </g>
    <g id="xtick_2">
     <g id="line2d_3">
      <path clip-path="url(#p7934369963)" d="M 144.2304 298.944 
L 144.2304 6.912 
" style="fill:none;stroke:#b0b0b0;stroke-linecap:square;stroke-width:0.8;"/>
     </g>
     <g id="line2d_4">
      <g>
       <use style="stroke:#000000;stroke-width:0.8;" x="144.2304" xlink:href="#m949e339fac" y="298.944"/>
      </g>
     </g>
     <g id="text_2">
      <!-- 2 -->
      <g transform="translate(138.822275 318.861344)scale(0.17 -0.17)">
       <defs>
        <path d="M 19.1875 8.296875 
L 53.609375 8.296875 
L 53.609375 0 
L 7.328125 0 
L 7.328125 8.296875 
Q 12.9375 14.109375 22.625 23.890625 
Q 32.328125 33.6875 34.8125 36.53125 
Q 39.546875 41.84375 41.421875 45.53125 
Q 43.3125 49.21875 43.3125 52.78125 
Q 43.3125 58.59375 39.234375 62.25 
Q 35.15625 65.921875 28.609375 65.921875 
Q 23.96875 65.921875 18.8125 64.3125 
Q 13.671875 62.703125 7.8125 59.421875 
L 7.8125 69.390625 
Q 13.765625 71.78125 18.9375 73 
Q 24.125 74.21875 28.421875 74.21875 
Q 39.75 74.21875 46.484375 68.546875 
Q 53.21875 62.890625 53.21875 53.421875 
Q 53.21875 48.921875 51.53125 44.890625 
Q 49.859375 40.875 45.40625 35.40625 
Q 44.1875 33.984375 37.640625 27.21875 
Q 31.109375 20.453125 19.1875 8.296875 
z
" id="DejaVuSans-50"/>
       </defs>
       <use xlink:href="#DejaVuSans-50"/>
      </g>
     </g>
    </g>
    <g id="xtick_3">
     <g id="line2d_5">
      <path clip-path="url(#p7934369963)" d="M 230.8608 298.944 
L 230.8608 6.912 
" style="fill:none;stroke:#b0b0b0;stroke-linecap:square;stroke-width:0.8;"/>
     </g>
     <g id="line2d_6">
      <g>
       <use style="stroke:#000000;stroke-width:0.8;" x="230.8608" xlink:href="#m949e339fac" y="298.944"/>
      </g>
     </g>
     <g id="text_3">
      <!-- 4 -->
      <g transform="translate(225.452675 318.861344)scale(0.17 -0.17)">
       <defs>
        <path d="M 37.796875 64.3125 
L 12.890625 25.390625 
L 37.796875 25.390625 
z
M 35.203125 72.90625 
L 47.609375 72.90625 
L 47.609375 25.390625 
L 58.015625 25.390625 
L 58.015625 17.1875 
L 47.609375 17.1875 
L 47.609375 0 
L 37.796875 0 
L 37.796875 17.1875 
L 4.890625 17.1875 
L 4.890625 26.703125 
z
" id="DejaVuSans-52"/>
       </defs>
       <use xlink:href="#DejaVuSans-52"/>
      </g>
     </g>
    </g>
    <g id="xtick_4">
     <g id="line2d_7">
      <path clip-path="url(#p7934369963)" d="M 317.4912 298.944 
L 317.4912 6.912 
" style="fill:none;stroke:#b0b0b0;stroke-linecap:square;stroke-width:0.8;"/>
     </g>
     <g id="line2d_8">
      <g>
       <use style="stroke:#000000;stroke-width:0.8;" x="317.4912" xlink:href="#m949e339fac" y="298.944"/>
      </g>
     </g>
     <g id="text_4">
      <!-- 6 -->
      <g transform="translate(312.083075 318.861344)scale(0.17 -0.17)">
       <defs>
        <path d="M 33.015625 40.375 
Q 26.375 40.375 22.484375 35.828125 
Q 18.609375 31.296875 18.609375 23.390625 
Q 18.609375 15.53125 22.484375 10.953125 
Q 26.375 6.390625 33.015625 6.390625 
Q 39.65625 6.390625 43.53125 10.953125 
Q 47.40625 15.53125 47.40625 23.390625 
Q 47.40625 31.296875 43.53125 35.828125 
Q 39.65625 40.375 33.015625 40.375 
z
M 52.59375 71.296875 
L 52.59375 62.3125 
Q 48.875 64.0625 45.09375 64.984375 
Q 41.3125 65.921875 37.59375 65.921875 
Q 27.828125 65.921875 22.671875 59.328125 
Q 17.53125 52.734375 16.796875 39.40625 
Q 19.671875 43.65625 24.015625 45.921875 
Q 28.375 48.1875 33.59375 48.1875 
Q 44.578125 48.1875 50.953125 41.515625 
Q 57.328125 34.859375 57.328125 23.390625 
Q 57.328125 12.15625 50.6875 5.359375 
Q 44.046875 -1.421875 33.015625 -1.421875 
Q 20.359375 -1.421875 13.671875 8.265625 
Q 6.984375 17.96875 6.984375 36.375 
Q 6.984375 53.65625 15.1875 63.9375 
Q 23.390625 74.21875 37.203125 74.21875 
Q 40.921875 74.21875 44.703125 73.484375 
Q 48.484375 72.75 52.59375 71.296875 
z
" id="DejaVuSans-54"/>
       </defs>
       <use xlink:href="#DejaVuSans-54"/>
      </g>
     </g>
    </g>
    <g id="xtick_5">
     <g id="line2d_9">
      <path clip-path="url(#p7934369963)" d="M 100.9152 298.944 
L 100.9152 6.912 
" style="fill:none;stroke:#b0b0b0;stroke-linecap:square;stroke-width:0.8;"/>
     </g>
     <g id="line2d_10">
      <defs>
       <path d="M 0 0 
L 0 2 
" id="ma7acd09ef8" style="stroke:#000000;stroke-width:0.6;"/>
      </defs>
      <g>
       <use style="stroke:#000000;stroke-width:0.6;" x="100.9152" xlink:href="#ma7acd09ef8" y="298.944"/>
      </g>
     </g>
    </g>
    <g id="xtick_6">
     <g id="line2d_11">
      <path clip-path="url(#p7934369963)" d="M 187.5456 298.944 
L 187.5456 6.912 
" style="fill:none;stroke:#b0b0b0;stroke-linecap:square;stroke-width:0.8;"/>
     </g>
     <g id="line2d_12">
      <g>
       <use style="stroke:#000000;stroke-width:0.6;" x="187.5456" xlink:href="#ma7acd09ef8" y="298.944"/>
      </g>
     </g>
    </g>
    <g id="xtick_7">
     <g id="line2d_13">
      <path clip-path="url(#p7934369963)" d="M 274.176 298.944 
L 274.176 6.912 
" style="fill:none;stroke:#b0b0b0;stroke-linecap:square;stroke-width:0.8;"/>
     </g>
     <g id="line2d_14">
      <g>
       <use style="stroke:#000000;stroke-width:0.6;" x="274.176" xlink:href="#ma7acd09ef8" y="298.944"/>
      </g>
     </g>
    </g>
    <g id="xtick_8">
     <g id="line2d_15">
      <path clip-path="url(#p7934369963)" d="M 360.8064 298.944 
L 360.8064 6.912 
" style="fill:none;stroke:#b0b0b0;stroke-linecap:square;stroke-width:0.8;"/>
     </g>
     <g id="line2d_16">
      <g>
       <use style="stroke:#000000;stroke-width:0.6;" x="360.8064" xlink:href="#ma7acd09ef8" y="298.944"/>
      </g>
     </g>
    </g>
    <g id="text_5">
     <!-- log10(evals / dimension) -->
     <g transform="translate(104.238825 339.314156)scale(0.17 -0.17)">
      <defs>
       <path d="M 9.421875 75.984375 
L 18.40625 75.984375 
L 18.40625 0 
L 9.421875 0 
z
" id="DejaVuSans-108"/>
       <path d="M 30.609375 48.390625 
Q 23.390625 48.390625 19.1875 42.75 
Q 14.984375 37.109375 14.984375 27.296875 
Q 14.984375 17.484375 19.15625 11.84375 
Q 23.34375 6.203125 30.609375 6.203125 
Q 37.796875 6.203125 41.984375 11.859375 
Q 46.1875 17.53125 46.1875 27.296875 
Q 46.1875 37.015625 41.984375 42.703125 
Q 37.796875 48.390625 30.609375 48.390625 
z
M 30.609375 56 
Q 42.328125 56 49.015625 48.375 
Q 55.71875 40.765625 55.71875 27.296875 
Q 55.71875 13.875 49.015625 6.21875 
Q 42.328125 -1.421875 30.609375 -1.421875 
Q 18.84375 -1.421875 12.171875 6.21875 
Q 5.515625 13.875 5.515625 27.296875 
Q 5.515625 40.765625 12.171875 48.375 
Q 18.84375 56 30.609375 56 
z
" id="DejaVuSans-111"/>
       <path d="M 45.40625 27.984375 
Q 45.40625 37.75 41.375 43.109375 
Q 37.359375 48.484375 30.078125 48.484375 
Q 22.859375 48.484375 18.828125 43.109375 
Q 14.796875 37.75 14.796875 27.984375 
Q 14.796875 18.265625 18.828125 12.890625 
Q 22.859375 7.515625 30.078125 7.515625 
Q 37.359375 7.515625 41.375 12.890625 
Q 45.40625 18.265625 45.40625 27.984375 
z
M 54.390625 6.78125 
Q 54.390625 -7.171875 48.1875 -13.984375 
Q 42 -20.796875 29.203125 -20.796875 
Q 24.46875 -20.796875 20.265625 -20.09375 
Q 16.0625 -19.390625 12.109375 -17.921875 
L 12.109375 -9.1875 
Q 16.0625 -11.328125 19.921875 -12.34375 
Q 23.78125 -13.375 27.78125 -13.375 
Q 36.625 -13.375 41.015625 -8.765625 
Q 45.40625 -4.15625 45.40625 5.171875 
L 45.40625 9.625 
Q 42.625 4.78125 38.28125 2.390625 
Q 33.9375 0 27.875 0 
Q 17.828125 0 11.671875 7.65625 
Q 5.515625 15.328125 5.515625 27.984375 
Q 5.515625 40.671875 11.671875 48.328125 
Q 17.828125 56 27.875 56 
Q 33.9375 56 38.28125 53.609375 
Q 42.625 51.21875 45.40625 46.390625 
L 45.40625 54.6875 
L 54.390625 54.6875 
z
" id="DejaVuSans-103"/>
       <path d="M 12.40625 8.296875 
L 28.515625 8.296875 
L 28.515625 63.921875 
L 10.984375 60.40625 
L 10.984375 69.390625 
L 28.421875 72.90625 
L 38.28125 72.90625 
L 38.28125 8.296875 
L 54.390625 8.296875 
L 54.390625 0 
L 12.40625 0 
z
" id="DejaVuSans-49"/>
       <path d="M 31 75.875 
Q 24.46875 64.65625 21.28125 53.65625 
Q 18.109375 42.671875 18.109375 31.390625 
Q 18.109375 20.125 21.3125 9.0625 
Q 24.515625 -2 31 -13.1875 
L 23.1875 -13.1875 
Q 15.875 -1.703125 12.234375 9.375 
Q 8.59375 20.453125 8.59375 31.390625 
Q 8.59375 42.28125 12.203125 53.3125 
Q 15.828125 64.359375 23.1875 75.875 
z
" id="DejaVuSans-40"/>
       <path d="M 56.203125 29.59375 
L 56.203125 25.203125 
L 14.890625 25.203125 
Q 15.484375 15.921875 20.484375 11.0625 
Q 25.484375 6.203125 34.421875 6.203125 
Q 39.59375 6.203125 44.453125 7.46875 
Q 49.3125 8.734375 54.109375 11.28125 
L 54.109375 2.78125 
Q 49.265625 0.734375 44.1875 -0.34375 
Q 39.109375 -1.421875 33.890625 -1.421875 
Q 20.796875 -1.421875 13.15625 6.1875 
Q 5.515625 13.8125 5.515625 26.8125 
Q 5.515625 40.234375 12.765625 48.109375 
Q 20.015625 56 32.328125 56 
Q 43.359375 56 49.78125 48.890625 
Q 56.203125 41.796875 56.203125 29.59375 
z
M 47.21875 32.234375 
Q 47.125 39.59375 43.09375 43.984375 
Q 39.0625 48.390625 32.421875 48.390625 
Q 24.90625 48.390625 20.390625 44.140625 
Q 15.875 39.890625 15.1875 32.171875 
z
" id="DejaVuSans-101"/>
       <path d="M 2.984375 54.6875 
L 12.5 54.6875 
L 29.59375 8.796875 
L 46.6875 54.6875 
L 56.203125 54.6875 
L 35.6875 0 
L 23.484375 0 
z
" id="DejaVuSans-118"/>
       <path d="M 34.28125 27.484375 
Q 23.390625 27.484375 19.1875 25 
Q 14.984375 22.515625 14.984375 16.5 
Q 14.984375 11.71875 18.140625 8.90625 
Q 21.296875 6.109375 26.703125 6.109375 
Q 34.1875 6.109375 38.703125 11.40625 
Q 43.21875 16.703125 43.21875 25.484375 
L 43.21875 27.484375 
z
M 52.203125 31.203125 
L 52.203125 0 
L 43.21875 0 
L 43.21875 8.296875 
Q 40.140625 3.328125 35.546875 0.953125 
Q 30.953125 -1.421875 24.3125 -1.421875 
Q 15.921875 -1.421875 10.953125 3.296875 
Q 6 8.015625 6 15.921875 
Q 6 25.140625 12.171875 29.828125 
Q 18.359375 34.515625 30.609375 34.515625 
L 43.21875 34.515625 
L 43.21875 35.40625 
Q 43.21875 41.609375 39.140625 45 
Q 35.0625 48.390625 27.6875 48.390625 
Q 23 48.390625 18.546875 47.265625 
Q 14.109375 46.140625 10.015625 43.890625 
L 10.015625 52.203125 
Q 14.9375 54.109375 19.578125 55.046875 
Q 24.21875 56 28.609375 56 
Q 40.484375 56 46.34375 49.84375 
Q 52.203125 43.703125 52.203125 31.203125 
z
" id="DejaVuSans-97"/>
       <path d="M 44.28125 53.078125 
L 44.28125 44.578125 
Q 40.484375 46.53125 36.375 47.5 
Q 32.28125 48.484375 27.875 48.484375 
Q 21.1875 48.484375 17.84375 46.4375 
Q 14.5 44.390625 14.5 40.28125 
Q 14.5 37.15625 16.890625 35.375 
Q 19.28125 33.59375 26.515625 31.984375 
L 29.59375 31.296875 
Q 39.15625 29.25 43.1875 25.515625 
Q 47.21875 21.78125 47.21875 15.09375 
Q 47.21875 7.46875 41.1875 3.015625 
Q 35.15625 -1.421875 24.609375 -1.421875 
Q 20.21875 -1.421875 15.453125 -0.5625 
Q 10.6875 0.296875 5.421875 2 
L 5.421875 11.28125 
Q 10.40625 8.6875 15.234375 7.390625 
Q 20.0625 6.109375 24.8125 6.109375 
Q 31.15625 6.109375 34.5625 8.28125 
Q 37.984375 10.453125 37.984375 14.40625 
Q 37.984375 18.0625 35.515625 20.015625 
Q 33.0625 21.96875 24.703125 23.78125 
L 21.578125 24.515625 
Q 13.234375 26.265625 9.515625 29.90625 
Q 5.8125 33.546875 5.8125 39.890625 
Q 5.8125 47.609375 11.28125 51.796875 
Q 16.75 56 26.8125 56 
Q 31.78125 56 36.171875 55.265625 
Q 40.578125 54.546875 44.28125 53.078125 
z
" id="DejaVuSans-115"/>
       <path id="DejaVuSans-32"/>
       <path d="M 25.390625 72.90625 
L 33.6875 72.90625 
L 8.296875 -9.28125 
L 0 -9.28125 
z
" id="DejaVuSans-47"/>
       <path d="M 45.40625 46.390625 
L 45.40625 75.984375 
L 54.390625 75.984375 
L 54.390625 0 
L 45.40625 0 
L 45.40625 8.203125 
Q 42.578125 3.328125 38.25 0.953125 
Q 33.9375 -1.421875 27.875 -1.421875 
Q 17.96875 -1.421875 11.734375 6.484375 
Q 5.515625 14.40625 5.515625 27.296875 
Q 5.515625 40.1875 11.734375 48.09375 
Q 17.96875 56 27.875 56 
Q 33.9375 56 38.25 53.625 
Q 42.578125 51.265625 45.40625 46.390625 
z
M 14.796875 27.296875 
Q 14.796875 17.390625 18.875 11.75 
Q 22.953125 6.109375 30.078125 6.109375 
Q 37.203125 6.109375 41.296875 11.75 
Q 45.40625 17.390625 45.40625 27.296875 
Q 45.40625 37.203125 41.296875 42.84375 
Q 37.203125 48.484375 30.078125 48.484375 
Q 22.953125 48.484375 18.875 42.84375 
Q 14.796875 37.203125 14.796875 27.296875 
z
" id="DejaVuSans-100"/>
       <path d="M 9.421875 54.6875 
L 18.40625 54.6875 
L 18.40625 0 
L 9.421875 0 
z
M 9.421875 75.984375 
L 18.40625 75.984375 
L 18.40625 64.59375 
L 9.421875 64.59375 
z
" id="DejaVuSans-105"/>
       <path d="M 52 44.1875 
Q 55.375 50.25 60.0625 53.125 
Q 64.75 56 71.09375 56 
Q 79.640625 56 84.28125 50.015625 
Q 88.921875 44.046875 88.921875 33.015625 
L 88.921875 0 
L 79.890625 0 
L 79.890625 32.71875 
Q 79.890625 40.578125 77.09375 44.375 
Q 74.3125 48.1875 68.609375 48.1875 
Q 61.625 48.1875 57.5625 43.546875 
Q 53.515625 38.921875 53.515625 30.90625 
L 53.515625 0 
L 44.484375 0 
L 44.484375 32.71875 
Q 44.484375 40.625 41.703125 44.40625 
Q 38.921875 48.1875 33.109375 48.1875 
Q 26.21875 48.1875 22.15625 43.53125 
Q 18.109375 38.875 18.109375 30.90625 
L 18.109375 0 
L 9.078125 0 
L 9.078125 54.6875 
L 18.109375 54.6875 
L 18.109375 46.1875 
Q 21.1875 51.21875 25.484375 53.609375 
Q 29.78125 56 35.6875 56 
Q 41.65625 56 45.828125 52.96875 
Q 50 49.953125 52 44.1875 
z
" id="DejaVuSans-109"/>
       <path d="M 54.890625 33.015625 
L 54.890625 0 
L 45.90625 0 
L 45.90625 32.71875 
Q 45.90625 40.484375 42.875 44.328125 
Q 39.84375 48.1875 33.796875 48.1875 
Q 26.515625 48.1875 22.3125 43.546875 
Q 18.109375 38.921875 18.109375 30.90625 
L 18.109375 0 
L 9.078125 0 
L 9.078125 54.6875 
L 18.109375 54.6875 
L 18.109375 46.1875 
Q 21.34375 51.125 25.703125 53.5625 
Q 30.078125 56 35.796875 56 
Q 45.21875 56 50.046875 50.171875 
Q 54.890625 44.34375 54.890625 33.015625 
z
" id="DejaVuSans-110"/>
       <path d="M 8.015625 75.875 
L 15.828125 75.875 
Q 23.140625 64.359375 26.78125 53.3125 
Q 30.421875 42.28125 30.421875 31.390625 
Q 30.421875 20.453125 26.78125 9.375 
Q 23.140625 -1.703125 15.828125 -13.1875 
L 8.015625 -13.1875 
Q 14.5 -2 17.703125 9.0625 
Q 20.90625 20.125 20.90625 31.390625 
Q 20.90625 42.671875 17.703125 53.65625 
Q 14.5 64.65625 8.015625 75.875 
z
" id="DejaVuSans-41"/>
      </defs>
      <use xlink:href="#DejaVuSans-108"/>
      <use x="27.783203" xlink:href="#DejaVuSans-111"/>
      <use x="88.964844" xlink:href="#DejaVuSans-103"/>
      <use x="152.441406" xlink:href="#DejaVuSans-49"/>
      <use x="216.064453" xlink:href="#DejaVuSans-48"/>
      <use x="279.6875" xlink:href="#DejaVuSans-40"/>
      <use x="318.701172" xlink:href="#DejaVuSans-101"/>
      <use x="380.224609" xlink:href="#DejaVuSans-118"/>
      <use x="439.404297" xlink:href="#DejaVuSans-97"/>
      <use x="500.683594" xlink:href="#DejaVuSans-108"/>
      <use x="528.466797" xlink:href="#DejaVuSans-115"/>
      <use x="580.566406" xlink:href="#DejaVuSans-32"/>
      <use x="612.353516" xlink:href="#DejaVuSans-47"/>
      <use x="646.044922" xlink:href="#DejaVuSans-32"/>
      <use x="677.832031" xlink:href="#DejaVuSans-100"/>
      <use x="741.308594" xlink:href="#DejaVuSans-105"/>
      <use x="769.091797" xlink:href="#DejaVuSans-109"/>
      <use x="866.503906" xlink:href="#DejaVuSans-101"/>
      <use x="928.027344" xlink:href="#DejaVuSans-110"/>
      <use x="991.40625" xlink:href="#DejaVuSans-115"/>
      <use x="1043.505859" xlink:href="#DejaVuSans-105"/>
      <use x="1071.289062" xlink:href="#DejaVuSans-111"/>
      <use x="1132.470703" xlink:href="#DejaVuSans-110"/>
      <use x="1195.849609" xlink:href="#DejaVuSans-41"/>
     </g>
    </g>
   </g>
   <g id="matplotlib.axis_2">
    <g id="ytick_1">
     <g id="line2d_17">
      <path clip-path="url(#p7934369963)" d="M 57.6 298.944 
L 360.8064 298.944 
" style="fill:none;stroke:#b0b0b0;stroke-linecap:square;stroke-width:0.8;"/>
     </g>
     <g id="line2d_18">
      <defs>
       <path d="M 0 0 
L -3.5 0 
" id="m31f23a8eda" style="stroke:#000000;stroke-width:0.8;"/>
      </defs>
      <g>
       <use style="stroke:#000000;stroke-width:0.8;" x="57.6" xlink:href="#m31f23a8eda" y="298.944"/>
      </g>
     </g>
     <g id="text_6">
      <!-- 0.0 -->
      <g transform="translate(25.155 305.02275)scale(0.16 -0.16)">
       <defs>
        <path d="M 10.6875 12.40625 
L 21 12.40625 
L 21 0 
L 10.6875 0 
z
" id="DejaVuSans-46"/>
       </defs>
       <use xlink:href="#DejaVuSans-48"/>
       <use x="63.623047" xlink:href="#DejaVuSans-46"/>
       <use x="95.410156" xlink:href="#DejaVuSans-48"/>
      </g>
     </g>
    </g>
    <g id="ytick_2">
     <g id="line2d_19">
      <path clip-path="url(#p7934369963)" d="M 57.6 240.5376 
L 360.8064 240.5376 
" style="fill:none;stroke:#b0b0b0;stroke-linecap:square;stroke-width:0.8;"/>
     </g>
     <g id="line2d_20">
      <g>
       <use style="stroke:#000000;stroke-width:0.8;" x="57.6" xlink:href="#m31f23a8eda" y="240.5376"/>
      </g>
     </g>
     <g id="text_7">
      <!-- 0.2 -->
      <g transform="translate(25.155 246.61635)scale(0.16 -0.16)">
       <use xlink:href="#DejaVuSans-48"/>
       <use x="63.623047" xlink:href="#DejaVuSans-46"/>
       <use x="95.410156" xlink:href="#DejaVuSans-50"/>
      </g>
     </g>
    </g>
    <g id="ytick_3">
     <g id="line2d_21">
      <path clip-path="url(#p7934369963)" d="M 57.6 182.1312 
L 360.8064 182.1312 
" style="fill:none;stroke:#b0b0b0;stroke-linecap:square;stroke-width:0.8;"/>
     </g>
     <g id="line2d_22">
      <g>
       <use style="stroke:#000000;stroke-width:0.8;" x="57.6" xlink:href="#m31f23a8eda" y="182.1312"/>
      </g>
     </g>
     <g id="text_8">
      <!-- 0.4 -->
      <g transform="translate(25.155 188.20995)scale(0.16 -0.16)">
       <use xlink:href="#DejaVuSans-48"/>
       <use x="63.623047" xlink:href="#DejaVuSans-46"/>
       <use x="95.410156" xlink:href="#DejaVuSans-52"/>
      </g>
     </g>
    </g>
    <g id="ytick_4">
     <g id="line2d_23">
      <path clip-path="url(#p7934369963)" d="M 57.6 123.7248 
L 360.8064 123.7248 
" style="fill:none;stroke:#b0b0b0;stroke-linecap:square;stroke-width:0.8;"/>
     </g>
     <g id="line2d_24">
      <g>
       <use style="stroke:#000000;stroke-width:0.8;" x="57.6" xlink:href="#m31f23a8eda" y="123.7248"/>
      </g>
     </g>
     <g id="text_9">
      <!-- 0.6 -->
      <g transform="translate(25.155 129.80355)scale(0.16 -0.16)">
       <use xlink:href="#DejaVuSans-48"/>
       <use x="63.623047" xlink:href="#DejaVuSans-46"/>
       <use x="95.410156" xlink:href="#DejaVuSans-54"/>
      </g>
     </g>
    </g>
    <g id="ytick_5">
     <g id="line2d_25">
      <path clip-path="url(#p7934369963)" d="M 57.6 65.3184 
L 360.8064 65.3184 
" style="fill:none;stroke:#b0b0b0;stroke-linecap:square;stroke-width:0.8;"/>
     </g>
     <g id="line2d_26">
      <g>
       <use style="stroke:#000000;stroke-width:0.8;" x="57.6" xlink:href="#m31f23a8eda" y="65.3184"/>
      </g>
     </g>
     <g id="text_10">
      <!-- 0.8 -->
      <g transform="translate(25.155 71.39715)scale(0.16 -0.16)">
       <defs>
        <path d="M 31.78125 34.625 
Q 24.75 34.625 20.71875 30.859375 
Q 16.703125 27.09375 16.703125 20.515625 
Q 16.703125 13.921875 20.71875 10.15625 
Q 24.75 6.390625 31.78125 6.390625 
Q 38.8125 6.390625 42.859375 10.171875 
Q 46.921875 13.96875 46.921875 20.515625 
Q 46.921875 27.09375 42.890625 30.859375 
Q 38.875 34.625 31.78125 34.625 
z
M 21.921875 38.8125 
Q 15.578125 40.375 12.03125 44.71875 
Q 8.5 49.078125 8.5 55.328125 
Q 8.5 64.0625 14.71875 69.140625 
Q 20.953125 74.21875 31.78125 74.21875 
Q 42.671875 74.21875 48.875 69.140625 
Q 55.078125 64.0625 55.078125 55.328125 
Q 55.078125 49.078125 51.53125 44.71875 
Q 48 40.375 41.703125 38.8125 
Q 48.828125 37.15625 52.796875 32.3125 
Q 56.78125 27.484375 56.78125 20.515625 
Q 56.78125 9.90625 50.3125 4.234375 
Q 43.84375 -1.421875 31.78125 -1.421875 
Q 19.734375 -1.421875 13.25 4.234375 
Q 6.78125 9.90625 6.78125 20.515625 
Q 6.78125 27.484375 10.78125 32.3125 
Q 14.796875 37.15625 21.921875 38.8125 
z
M 18.3125 54.390625 
Q 18.3125 48.734375 21.84375 45.5625 
Q 25.390625 42.390625 31.78125 42.390625 
Q 38.140625 42.390625 41.71875 45.5625 
Q 45.3125 48.734375 45.3125 54.390625 
Q 45.3125 60.0625 41.71875 63.234375 
Q 38.140625 66.40625 31.78125 66.40625 
Q 25.390625 66.40625 21.84375 63.234375 
Q 18.3125 60.0625 18.3125 54.390625 
z
" id="DejaVuSans-56"/>
       </defs>
       <use xlink:href="#DejaVuSans-48"/>
       <use x="63.623047" xlink:href="#DejaVuSans-46"/>
       <use x="95.410156" xlink:href="#DejaVuSans-56"/>
      </g>
     </g>
    </g>
    <g id="ytick_6">
     <g id="line2d_27">
      <path clip-path="url(#p7934369963)" d="M 57.6 6.912 
L 360.8064 6.912 
" style="fill:none;stroke:#b0b0b0;stroke-linecap:square;stroke-width:0.8;"/>
     </g>
     <g id="line2d_28">
      <g>
       <use style="stroke:#000000;stroke-width:0.8;" x="57.6" xlink:href="#m31f23a8eda" y="6.912"/>
      </g>
     </g>
     <g id="text_11">
      <!-- 1.0 -->
      <g transform="translate(25.155 12.99075)scale(0.16 -0.16)">
       <use xlink:href="#DejaVuSans-49"/>
       <use x="63.623047" xlink:href="#DejaVuSans-46"/>
       <use x="95.410156" xlink:href="#DejaVuSans-48"/>
      </g>
     </g>
    </g>
    <g id="text_12">
     <!-- Fraction of function,target pairs -->
     <g transform="translate(17.619531 287.313)rotate(-90)scale(0.17 -0.17)">
      <defs>
       <path d="M 9.8125 72.90625 
L 51.703125 72.90625 
L 51.703125 64.59375 
L 19.671875 64.59375 
L 19.671875 43.109375 
L 48.578125 43.109375 
L 48.578125 34.8125 
L 19.671875 34.8125 
L 19.671875 0 
L 9.8125 0 
z
" id="DejaVuSans-70"/>
       <path d="M 41.109375 46.296875 
Q 39.59375 47.171875 37.8125 47.578125 
Q 36.03125 48 33.890625 48 
Q 26.265625 48 22.1875 43.046875 
Q 18.109375 38.09375 18.109375 28.8125 
L 18.109375 0 
L 9.078125 0 
L 9.078125 54.6875 
L 18.109375 54.6875 
L 18.109375 46.1875 
Q 20.953125 51.171875 25.484375 53.578125 
Q 30.03125 56 36.53125 56 
Q 37.453125 56 38.578125 55.875 
Q 39.703125 55.765625 41.0625 55.515625 
z
" id="DejaVuSans-114"/>
       <path d="M 48.78125 52.59375 
L 48.78125 44.1875 
Q 44.96875 46.296875 41.140625 47.34375 
Q 37.3125 48.390625 33.40625 48.390625 
Q 24.65625 48.390625 19.8125 42.84375 
Q 14.984375 37.3125 14.984375 27.296875 
Q 14.984375 17.28125 19.8125 11.734375 
Q 24.65625 6.203125 33.40625 6.203125 
Q 37.3125 6.203125 41.140625 7.25 
Q 44.96875 8.296875 48.78125 10.40625 
L 48.78125 2.09375 
Q 45.015625 0.34375 40.984375 -0.53125 
Q 36.96875 -1.421875 32.421875 -1.421875 
Q 20.0625 -1.421875 12.78125 6.34375 
Q 5.515625 14.109375 5.515625 27.296875 
Q 5.515625 40.671875 12.859375 48.328125 
Q 20.21875 56 33.015625 56 
Q 37.15625 56 41.109375 55.140625 
Q 45.0625 54.296875 48.78125 52.59375 
z
" id="DejaVuSans-99"/>
       <path d="M 18.3125 70.21875 
L 18.3125 54.6875 
L 36.8125 54.6875 
L 36.8125 47.703125 
L 18.3125 47.703125 
L 18.3125 18.015625 
Q 18.3125 11.328125 20.140625 9.421875 
Q 21.96875 7.515625 27.59375 7.515625 
L 36.8125 7.515625 
L 36.8125 0 
L 27.59375 0 
Q 17.1875 0 13.234375 3.875 
Q 9.28125 7.765625 9.28125 18.015625 
L 9.28125 47.703125 
L 2.6875 47.703125 
L 2.6875 54.6875 
L 9.28125 54.6875 
L 9.28125 70.21875 
z
" id="DejaVuSans-116"/>
       <path d="M 37.109375 75.984375 
L 37.109375 68.5 
L 28.515625 68.5 
Q 23.6875 68.5 21.796875 66.546875 
Q 19.921875 64.59375 19.921875 59.515625 
L 19.921875 54.6875 
L 34.71875 54.6875 
L 34.71875 47.703125 
L 19.921875 47.703125 
L 19.921875 0 
L 10.890625 0 
L 10.890625 47.703125 
L 2.296875 47.703125 
L 2.296875 54.6875 
L 10.890625 54.6875 
L 10.890625 58.5 
Q 10.890625 67.625 15.140625 71.796875 
Q 19.390625 75.984375 28.609375 75.984375 
z
" id="DejaVuSans-102"/>
       <path d="M 8.5 21.578125 
L 8.5 54.6875 
L 17.484375 54.6875 
L 17.484375 21.921875 
Q 17.484375 14.15625 20.5 10.265625 
Q 23.53125 6.390625 29.59375 6.390625 
Q 36.859375 6.390625 41.078125 11.03125 
Q 45.3125 15.671875 45.3125 23.6875 
L 45.3125 54.6875 
L 54.296875 54.6875 
L 54.296875 0 
L 45.3125 0 
L 45.3125 8.40625 
Q 42.046875 3.421875 37.71875 1 
Q 33.40625 -1.421875 27.6875 -1.421875 
Q 18.265625 -1.421875 13.375 4.4375 
Q 8.5 10.296875 8.5 21.578125 
z
M 31.109375 56 
z
" id="DejaVuSans-117"/>
       <path d="M 11.71875 12.40625 
L 22.015625 12.40625 
L 22.015625 4 
L 14.015625 -11.625 
L 7.71875 -11.625 
L 11.71875 4 
z
" id="DejaVuSans-44"/>
       <path d="M 18.109375 8.203125 
L 18.109375 -20.796875 
L 9.078125 -20.796875 
L 9.078125 54.6875 
L 18.109375 54.6875 
L 18.109375 46.390625 
Q 20.953125 51.265625 25.265625 53.625 
Q 29.59375 56 35.59375 56 
Q 45.5625 56 51.78125 48.09375 
Q 58.015625 40.1875 58.015625 27.296875 
Q 58.015625 14.40625 51.78125 6.484375 
Q 45.5625 -1.421875 35.59375 -1.421875 
Q 29.59375 -1.421875 25.265625 0.953125 
Q 20.953125 3.328125 18.109375 8.203125 
z
M 48.6875 27.296875 
Q 48.6875 37.203125 44.609375 42.84375 
Q 40.53125 48.484375 33.40625 48.484375 
Q 26.265625 48.484375 22.1875 42.84375 
Q 18.109375 37.203125 18.109375 27.296875 
Q 18.109375 17.390625 22.1875 11.75 
Q 26.265625 6.109375 33.40625 6.109375 
Q 40.53125 6.109375 44.609375 11.75 
Q 48.6875 17.390625 48.6875 27.296875 
z
" id="DejaVuSans-112"/>
      </defs>
      <use xlink:href="#DejaVuSans-70"/>
      <use x="50.269531" xlink:href="#DejaVuSans-114"/>
      <use x="91.382812" xlink:href="#DejaVuSans-97"/>
      <use x="152.662109" xlink:href="#DejaVuSans-99"/>
      <use x="207.642578" xlink:href="#DejaVuSans-116"/>
      <use x="246.851562" xlink:href="#DejaVuSans-105"/>
      <use x="274.634766" xlink:href="#DejaVuSans-111"/>
      <use x="335.816406" xlink:href="#DejaVuSans-110"/>
      <use x="399.195312" xlink:href="#DejaVuSans-32"/>
      <use x="430.982422" xlink:href="#DejaVuSans-111"/>
      <use x="492.164062" xlink:href="#DejaVuSans-102"/>
      <use x="527.369141" xlink:href="#DejaVuSans-32"/>
      <use x="559.15625" xlink:href="#DejaVuSans-102"/>
      <use x="594.361328" xlink:href="#DejaVuSans-117"/>
      <use x="657.740234" xlink:href="#DejaVuSans-110"/>
      <use x="721.119141" xlink:href="#DejaVuSans-99"/>
      <use x="776.099609" xlink:href="#DejaVuSans-116"/>
      <use x="815.308594" xlink:href="#DejaVuSans-105"/>
      <use x="843.091797" xlink:href="#DejaVuSans-111"/>
      <use x="904.273438" xlink:href="#DejaVuSans-110"/>
      <use x="967.652344" xlink:href="#DejaVuSans-44"/>
      <use x="999.439453" xlink:href="#DejaVuSans-116"/>
      <use x="1038.648438" xlink:href="#DejaVuSans-97"/>
      <use x="1099.927734" xlink:href="#DejaVuSans-114"/>
      <use x="1139.291016" xlink:href="#DejaVuSans-103"/>
      <use x="1202.767578" xlink:href="#DejaVuSans-101"/>
      <use x="1264.291016" xlink:href="#DejaVuSans-116"/>
      <use x="1303.5" xlink:href="#DejaVuSans-32"/>
      <use x="1335.287109" xlink:href="#DejaVuSans-112"/>
      <use x="1398.763672" xlink:href="#DejaVuSans-97"/>
      <use x="1460.042969" xlink:href="#DejaVuSans-105"/>
      <use x="1487.826172" xlink:href="#DejaVuSans-114"/>
      <use x="1528.939453" xlink:href="#DejaVuSans-115"/>
     </g>
    </g>
   </g>
   <g id="line2d_29">
    <defs>
     <path d="M 0 1.5 
C 0.397805 1.5 0.77937 1.341951 1.06066 1.06066 
C 1.341951 0.77937 1.5 0.397805 1.5 0 
C 1.5 -0.397805 1.341951 -0.77937 1.06066 -1.06066 
C 0.77937 -1.341951 0.397805 -1.5 0 -1.5 
C -0.397805 -1.5 -0.77937 -1.341951 -1.06066 -1.06066 
C -1.341951 -0.77937 -1.5 -0.397805 -1.5 0 
C -1.5 0.397805 -1.341951 0.77937 -1.06066 1.06066 
C -0.77937 1.341951 -0.397805 1.5 0 1.5 
z
" id="m3e4aac9cc8" style="stroke:#000080;"/>
    </defs>
    <g>
     <use style="fill:#000080;stroke:#000080;" x="290.995696" xlink:href="#m3e4aac9cc8" y="184.980293"/>
     <use style="fill:#000080;stroke:#000080;" x="290.995696" xlink:href="#m3e4aac9cc8" y="184.980293"/>
    </g>
   </g>
   <g id="line2d_30">
    <path d="M 118.781011 298.944 
L 118.781011 298.469151 
L 120.267136 298.469151 
L 120.267136 297.994302 
L 124.128974 297.994302 
L 124.238185 296.569756 
L 125.258139 296.569756 
L 125.258139 296.094907 
L 126.323346 296.094907 
L 126.323346 295.620059 
L 127.331455 295.620059 
L 127.331455 294.670361 
L 128.288276 294.670361 
L 128.288276 293.720663 
L 129.198777 293.720663 
L 129.219679 291.34642 
L 130.067235 291.34642 
L 130.067235 290.871571 
L 131.765527 290.871571 
L 131.765527 290.396722 
L 132.455197 290.396722 
L 132.507891 287.07278 
L 133.188264 287.07278 
L 133.25581 284.698537 
L 133.339903 284.698537 
L 133.373435 281.374595 
L 133.94265 281.374595 
L 133.975126 280.424898 
L 134.589598 280.424898 
L 134.683578 276.626107 
L 135.245388 276.626107 
L 135.275693 274.251863 
L 135.879085 274.251863 
L 135.92302 269.978224 
L 135.996018 269.978224 
L 135.996018 269.503376 
L 136.577088 269.503376 
L 136.605323 268.553678 
L 136.787825 268.553678 
L 136.787825 268.078829 
L 137.085822 268.078829 
L 137.168148 266.179434 
L 137.688006 266.179434 
L 137.688006 265.229737 
L 138.258593 265.229737 
L 138.323083 261.430946 
L 138.762134 261.430946 
L 138.837456 260.481249 
L 138.899994 260.481249 
L 138.899994 260.0064 
L 139.036851 260.0064 
L 139.036851 258.581854 
L 139.277041 258.581854 
L 139.374701 256.682459 
L 139.802049 256.682459 
L 139.885181 255.257912 
L 140.37063 255.257912 
L 140.382174 253.833366 
L 140.776178 253.833366 
L 140.787476 252.883668 
L 140.900086 252.883668 
L 140.900086 251.933971 
L 141.261484 251.933971 
L 141.261484 251.459122 
L 141.766778 251.459122 
L 141.788209 250.509424 
L 141.948172 250.509424 
L 141.948172 249.084878 
L 142.248405 249.084878 
L 142.248405 248.610029 
L 142.626046 248.610029 
L 142.718009 247.660332 
L 142.748564 247.660332 
L 142.748564 246.710634 
L 143.056419 246.710634 
L 143.056419 246.235785 
L 143.176174 246.235785 
L 143.25559 244.811239 
L 143.467373 244.811239 
L 143.516285 243.386693 
L 143.869541 243.386693 
L 143.965177 241.487298 
L 144.069818 241.487298 
L 144.079302 240.5376 
L 144.272678 240.5376 
L 144.272678 240.062751 
L 144.667357 240.062751 
L 144.667357 237.688507 
L 145.053925 237.688507 
L 145.053925 237.213659 
L 145.838588 237.213659 
L 145.890327 235.789112 
L 146.641539 235.789112 
L 146.641539 235.314263 
L 146.879975 235.314263 
L 146.879975 234.839415 
L 147.284106 234.839415 
L 147.371861 233.889717 
L 147.905447 233.889717 
L 147.990358 232.465171 
L 149.057037 232.465171 
L 149.057037 231.990322 
L 149.802535 231.990322 
L 149.802535 231.515473 
L 149.941906 231.515473 
L 149.941906 231.040624 
L 150.753797 231.040624 
L 150.793652 230.090927 
L 150.88632 230.090927 
L 150.88632 229.616078 
L 151.368694 229.616078 
L 151.368694 229.141229 
L 151.757231 229.141229 
L 151.757231 228.66638 
L 152.097707 228.66638 
L 152.097707 228.191532 
L 152.538264 228.191532 
L 152.538264 227.716683 
L 152.823362 227.716683 
L 152.823362 227.241834 
L 152.977604 227.241834 
L 152.977604 226.766985 
L 153.180339 226.766985 
L 153.192025 225.817288 
L 153.409804 225.817288 
L 153.409804 224.86759 
L 154.1375 224.86759 
L 154.165253 223.917893 
L 157.013889 223.917893 
L 157.013889 223.443044 
L 157.786771 223.443044 
L 157.786771 222.968195 
L 167.522052 222.968195 
L 167.522052 222.493346 
L 167.734905 222.493346 
L 167.734905 222.018498 
L 168.207498 222.018498 
L 168.207498 221.543649 
L 170.523847 221.543649 
L 170.523847 221.0688 
L 170.75719 221.0688 
L 170.75719 220.593951 
L 171.329302 220.593951 
L 171.329302 220.119102 
L 171.46136 220.119102 
L 171.46136 219.644254 
L 176.348034 219.644254 
L 176.348034 219.169405 
L 177.848184 219.169405 
L 177.901658 218.219707 
L 178.966379 218.219707 
L 178.966379 217.744859 
L 182.722746 217.744859 
L 182.722746 217.27001 
L 184.156813 217.27001 
L 184.156813 216.795161 
L 194.044045 216.795161 
L 194.044045 216.320312 
L 194.673594 216.320312 
L 194.673594 215.845463 
L 197.231431 215.845463 
L 197.231431 215.370615 
L 197.600984 215.370615 
L 197.600984 214.895766 
L 199.245127 214.895766 
L 199.245127 214.420917 
L 199.481741 214.420917 
L 199.481741 213.946068 
L 199.73978 213.946068 
L 199.73978 213.47122 
L 201.174579 213.47122 
L 201.174579 212.996371 
L 201.386455 212.996371 
L 201.386455 212.521522 
L 201.748883 212.521522 
L 201.820583 211.571824 
L 204.973543 211.571824 
L 204.973543 211.096976 
L 205.152572 211.096976 
L 205.211871 210.147278 
L 206.489853 210.147278 
L 206.489853 209.672429 
L 206.668356 209.672429 
L 206.668356 209.19758 
L 209.341134 209.19758 
L 209.451974 208.247883 
L 213.025007 208.247883 
L 213.025007 207.773034 
L 213.847647 207.773034 
L 213.877366 206.823337 
L 215.421477 206.823337 
L 215.421477 206.348488 
L 215.609988 206.348488 
L 215.609988 205.873639 
L 215.796314 205.873639 
L 215.796314 205.39879 
L 220.453136 205.39879 
L 220.453136 204.923941 
L 228.451192 204.923941 
L 228.451192 204.449093 
L 233.347085 204.449093 
L 233.347085 203.974244 
L 235.453076 203.974244 
L 235.453076 203.499395 
L 237.023074 203.499395 
L 237.023074 203.024546 
L 237.781341 203.024546 
L 237.838678 202.074849 
L 239.407271 202.074849 
L 239.407749 201.125151 
L 244.671842 201.125151 
L 244.671842 200.650302 
L 247.232399 200.650302 
L 247.232911 199.700605 
L 247.642113 199.700605 
L 247.677349 198.750907 
L 248.655378 198.750907 
L 248.656273 197.80121 
L 250.75853 197.80121 
L 250.75853 197.326361 
L 252.817476 197.326361 
L 252.817476 196.851512 
L 254.129423 196.851512 
L 254.153529 195.901815 
L 254.827418 195.901815 
L 254.827418 195.426966 
L 256.366855 195.426966 
L 256.367352 194.477268 
L 258.679721 194.477268 
L 258.6806 193.527571 
L 258.9418 193.527571 
L 258.941917 192.577873 
L 260.68042 192.577873 
L 260.68042 192.103024 
L 262.756771 192.103024 
L 262.756771 191.628176 
L 265.925481 191.628176 
L 265.925481 191.153327 
L 268.62623 191.153327 
L 268.638228 190.203629 
L 270.998103 190.203629 
L 270.998103 189.72878 
L 273.361336 189.72878 
L 273.361336 189.253932 
L 276.723574 189.253932 
L 276.723574 188.779083 
L 281.100958 188.779083 
L 281.100958 188.304234 
L 283.539458 188.304234 
L 283.539458 187.829385 
L 285.698234 187.829385 
L 285.698499 186.879688 
L 285.826678 186.879688 
L 285.826678 186.404839 
L 286.691358 186.404839 
L 286.691358 185.92999 
L 288.528974 185.92999 
L 288.528974 185.455141 
L 290.995696 185.455141 
L 290.995696 184.980293 
L 360.8064 184.980293 
L 360.8064 184.980293 
" style="fill:none;stroke:#000080;stroke-linecap:square;stroke-width:1.5;"/>
   </g>
   <g id="line2d_31">
    <defs>
     <path d="M 0 6 
C 1.591219 6 3.117479 5.367802 4.242641 4.242641 
C 5.367802 3.117479 6 1.591219 6 0 
C 6 -1.591219 5.367802 -3.117479 4.242641 -4.242641 
C 3.117479 -5.367802 1.591219 -6 0 -6 
C -1.591219 -6 -3.117479 -5.367802 -4.242641 -4.242641 
C -5.367802 -3.117479 -6 -1.591219 -6 0 
C -6 1.591219 -5.367802 3.117479 -4.242641 4.242641 
C -3.117479 5.367802 -1.591219 6 0 6 
z
" id="md1dec8e314" style="stroke:#000080;stroke-width:1.5;"/>
    </defs>
    <g>
     <use style="fill-opacity:0;stroke:#000080;stroke-width:1.5;" x="137.688006" xlink:href="#md1dec8e314" y="265.229737"/>
     <use style="fill-opacity:0;stroke:#000080;stroke-width:1.5;" x="171.46136" xlink:href="#md1dec8e314" y="220.119102"/>
     <use style="fill-opacity:0;stroke:#000080;stroke-width:1.5;" x="273.361336" xlink:href="#md1dec8e314" y="189.253932"/>
     <use style="fill-opacity:0;stroke:#000080;stroke-width:1.5;" x="290.995696" xlink:href="#md1dec8e314" y="184.980293"/>
     <use style="fill-opacity:0;stroke:#000080;stroke-width:1.5;" x="360.8064" xlink:href="#md1dec8e314" y="184.980293"/>
    </g>
   </g>
   <g id="line2d_32">
    <path style="fill:none;stroke:#000080;stroke-linecap:square;stroke-width:1.5;"/>
    <g/>
   </g>
   <g id="line2d_33">
    <path clip-path="url(#p7934369963)" d="M 230.863057 204.449093 
" style="fill:none;stroke:#000080;stroke-linecap:square;stroke-width:1.5;"/>
    <defs>
     <path d="M -12 12 
L 12 -12 
M -12 -12 
L 12 12 
" id="m1f7da85f6a" style="stroke:#000080;"/>
    </defs>
    <g clip-path="url(#p7934369963)">
     <use style="fill:#000080;stroke:#000080;" x="230.863057" xlink:href="#m1f7da85f6a" y="204.449093"/>
    </g>
   </g>
   <g id="line2d_34">
    <defs>
     <path d="M 0 1.5 
C 0.397805 1.5 0.77937 1.341951 1.06066 1.06066 
C 1.341951 0.77937 1.5 0.397805 1.5 0 
C 1.5 -0.397805 1.341951 -0.77937 1.06066 -1.06066 
C 0.77937 -1.341951 0.397805 -1.5 0 -1.5 
C -0.397805 -1.5 -0.77937 -1.341951 -1.06066 -1.06066 
C -1.341951 -0.77937 -1.5 -0.397805 -1.5 0 
C -1.5 0.397805 -1.341951 0.77937 -1.06066 1.06066 
C -0.77937 1.341951 -0.397805 1.5 0 1.5 
z
" id="m1d82689d61" style="stroke:#ff00ff;"/>
    </defs>
    <g>
     <use style="fill:#ff00ff;stroke:#ff00ff;" x="314.436066" xlink:href="#m1d82689d61" y="78.139317"/>
     <use style="fill:#ff00ff;stroke:#ff00ff;" x="314.436066" xlink:href="#m1d82689d61" y="78.139317"/>
    </g>
   </g>
   <g id="line2d_35">
    <path d="M 72.217115 298.944 
L 72.217115 295.620059 
L 84.818792 295.620059 
L 84.818792 260.956098 
L 92.298097 260.956098 
L 92.298097 227.716683 
L 97.635342 227.716683 
L 97.635342 201.125151 
L 101.788176 201.125151 
L 101.877755 170.734829 
L 105.187973 170.734829 
L 105.26277 142.718751 
L 105.337272 142.718751 
L 105.337272 142.243902 
L 108.066361 142.243902 
L 108.066361 133.221776 
L 108.194549 133.221776 
L 108.194549 132.746927 
L 110.562208 132.746927 
L 110.562208 123.249951 
L 110.841731 123.249951 
L 110.841731 122.300254 
L 112.76537 122.300254 
L 112.76537 117.551766 
L 113.014204 117.551766 
L 113.014204 115.177522 
L 116.726103 115.177522 
L 116.726103 110.429034 
L 120.030297 110.429034 
L 120.030297 109.004488 
L 121.265635 109.004488 
L 121.28157 108.05479 
L 126.250102 108.05479 
L 126.250102 107.579941 
L 129.344604 107.579941 
L 129.344604 107.105093 
L 132.665091 107.105093 
L 132.665091 106.155395 
L 132.984158 106.155395 
L 132.984158 105.680546 
L 134.168812 105.680546 
L 134.168812 105.205698 
L 134.7148 105.205698 
L 134.792631 103.306302 
L 135.230218 103.306302 
L 135.230218 102.831454 
L 135.456502 102.831454 
L 135.456502 101.881756 
L 136.815745 101.881756 
L 136.815745 101.406907 
L 138.050729 101.406907 
L 138.050729 100.932059 
L 139.568511 100.932059 
L 139.568511 100.45721 
L 143.300114 100.45721 
L 143.300114 99.982361 
L 145.665089 99.982361 
L 145.665089 99.507512 
L 149.938434 99.507512 
L 149.938434 99.032663 
L 151.618026 99.032663 
L 151.618026 98.557815 
L 207.461089 98.557815 
L 207.461089 98.082966 
L 207.654241 98.082966 
L 207.654241 97.608117 
L 230.878616 97.608117 
L 230.975997 91.909932 
L 231.007801 91.909932 
L 231.007801 91.435083 
L 243.912668 91.435083 
L 243.938546 90.010537 
L 251.53654 90.010537 
L 251.567241 87.161444 
L 256.946543 87.161444 
L 256.954909 85.262049 
L 261.143352 85.262049 
L 261.143352 84.7872 
L 267.478064 84.7872 
L 267.478064 84.312351 
L 269.982179 84.312351 
L 269.982179 83.837502 
L 272.204176 83.837502 
L 272.204176 83.362654 
L 274.179583 83.362654 
L 274.179583 82.887805 
L 280.508612 82.887805 
L 280.508612 82.412956 
L 281.806899 82.412956 
L 281.806899 81.938107 
L 283.020316 81.938107 
L 283.020316 81.463259 
L 286.255676 81.463259 
L 286.255676 80.98841 
L 289.847 80.98841 
L 289.847 80.513561 
L 292.153178 80.513561 
L 292.153178 80.038712 
L 294.207404 80.038712 
L 294.207404 79.563863 
L 299.291921 79.563863 
L 299.291921 79.089015 
L 306.919186 79.089015 
L 306.919186 78.614166 
L 314.436066 78.614166 
L 314.436066 78.139317 
L 360.8064 78.139317 
L 360.8064 78.139317 
" style="fill:none;stroke:#ff00ff;stroke-linecap:square;stroke-width:1.5;"/>
   </g>
   <g id="line2d_36">
    <defs>
     <path d="M -0 8.485281 
L 5.091169 0 
L 0 -8.485281 
L -5.091169 -0 
z
" id="mb024b280a8" style="stroke:#ff00ff;stroke-linejoin:miter;stroke-width:1.5;"/>
    </defs>
    <g>
     <use style="fill-opacity:0;stroke:#ff00ff;stroke-linejoin:miter;stroke-width:1.5;" x="92.298097" xlink:href="#mb024b280a8" y="260.956098"/>
     <use style="fill-opacity:0;stroke:#ff00ff;stroke-linejoin:miter;stroke-width:1.5;" x="145.665089" xlink:href="#mb024b280a8" y="99.982361"/>
     <use style="fill-opacity:0;stroke:#ff00ff;stroke-linejoin:miter;stroke-width:1.5;" x="251.567241" xlink:href="#mb024b280a8" y="87.161444"/>
     <use style="fill-opacity:0;stroke:#ff00ff;stroke-linejoin:miter;stroke-width:1.5;" x="314.436066" xlink:href="#mb024b280a8" y="78.139317"/>
     <use style="fill-opacity:0;stroke:#ff00ff;stroke-linejoin:miter;stroke-width:1.5;" x="360.8064" xlink:href="#mb024b280a8" y="78.139317"/>
    </g>
   </g>
   <g id="line2d_37">
    <path style="fill:none;stroke:#ff00ff;stroke-linecap:square;stroke-width:1.5;"/>
    <g/>
   </g>
   <g id="line2d_38">
    <path clip-path="url(#p7934369963)" d="M 230.862822 97.608117 
" style="fill:none;stroke:#ff00ff;stroke-linecap:square;stroke-width:1.5;"/>
    <defs>
     <path d="M -12 12 
L 12 -12 
M -12 -12 
L 12 12 
" id="mf3b1d1826b" style="stroke:#ff00ff;"/>
    </defs>
    <g clip-path="url(#p7934369963)">
     <use style="fill:#ff00ff;stroke:#ff00ff;" x="230.862822" xlink:href="#mf3b1d1826b" y="97.608117"/>
    </g>
   </g>
   <g id="line2d_39">
    <defs>
     <path d="M 0 1.5 
C 0.397805 1.5 0.77937 1.341951 1.06066 1.06066 
C 1.341951 0.77937 1.5 0.397805 1.5 0 
C 1.5 -0.397805 1.341951 -0.77937 1.06066 -1.06066 
C 0.77937 -1.341951 0.397805 -1.5 0 -1.5 
C -0.397805 -1.5 -0.77937 -1.341951 -1.06066 -1.06066 
C -1.341951 -0.77937 -1.5 -0.397805 -1.5 0 
C -1.5 0.397805 -1.341951 0.77937 -1.06066 1.06066 
C -0.77937 1.341951 -0.397805 1.5 0 1.5 
z
" id="m4ee72bae2c" style="stroke:#ff7500;"/>
    </defs>
    <g>
     <use style="fill:#ff7500;stroke:#ff7500;" x="303.65509" xlink:href="#m4ee72bae2c" y="6.912"/>
     <use style="fill:#ff7500;stroke:#ff7500;" x="303.65509" xlink:href="#m4ee72bae2c" y="6.912"/>
    </g>
   </g>
   <g id="line2d_40">
    <path d="M 111.117162 298.944 
L 111.117162 296.094907 
L 115.314838 296.094907 
L 115.314838 295.620059 
L 115.445626 295.620059 
L 115.445626 295.14521 
L 117.127646 295.14521 
L 117.127646 291.34642 
L 118.781011 291.34642 
L 118.817362 287.07278 
L 120.367733 287.07278 
L 120.367733 286.123083 
L 121.613129 286.123083 
L 121.706797 284.223688 
L 122.985963 284.223688 
L 122.985963 280.899746 
L 124.238185 280.899746 
L 124.292554 279.4752 
L 125.283908 279.4752 
L 125.335341 275.201561 
L 126.396307 275.201561 
L 126.44479 271.87762 
L 127.400615 271.87762 
L 127.446581 269.503376 
L 128.332126 269.503376 
L 128.441306 262.380644 
L 129.282245 262.380644 
L 129.344604 253.833366 
L 130.24611 253.833366 
L 130.24611 253.358517 
L 130.954599 253.358517 
L 131.049607 243.861541 
L 131.068551 243.861541 
L 131.087476 241.962146 
L 131.801984 241.962146 
L 131.856536 233.414868 
L 132.57792 233.414868 
L 132.630271 229.141229 
L 133.25581 229.141229 
L 133.323114 222.968195 
L 133.373435 222.968195 
L 133.373435 222.493346 
L 134.007546 222.493346 
L 134.072218 214.895766 
L 134.745971 214.895766 
L 134.77709 211.096976 
L 135.321058 211.096976 
L 135.411462 207.773034 
L 135.441501 207.773034 
L 135.441501 207.298185 
L 136.010584 207.298185 
L 136.068734 202.074849 
L 136.170066 202.074849 
L 136.170066 201.6 
L 136.675726 201.6 
L 136.675726 199.700605 
L 137.250116 199.700605 
L 137.250116 197.80121 
L 137.38594 197.80121 
L 137.38594 197.326361 
L 137.807486 197.326361 
L 137.847145 193.052722 
L 137.965623 193.052722 
L 137.965623 192.103024 
L 138.374515 192.103024 
L 138.412998 188.304234 
L 138.912477 188.304234 
L 138.949876 183.080898 
L 139.049244 183.080898 
L 139.049244 182.606049 
L 139.435481 182.606049 
L 139.483965 173.583922 
L 139.979741 173.583922 
L 140.085557 164.561795 
L 140.485756 164.561795 
L 140.58877 162.6624 
L 140.978515 162.6624 
L 140.978515 162.187551 
L 141.48048 162.187551 
L 141.545685 157.913912 
L 141.88435 157.913912 
L 141.958788 155.06482 
L 142.41488 155.06482 
L 142.41488 154.589971 
L 142.829801 154.589971 
L 142.870289 151.266029 
L 143.205995 151.266029 
L 143.265494 150.316332 
L 143.324805 150.316332 
L 143.324805 148.891785 
L 143.681641 148.891785 
L 143.681641 147.942088 
L 144.107726 147.942088 
L 144.107726 147.467239 
L 144.841158 147.467239 
L 144.841158 145.092995 
L 145.678157 145.092995 
L 145.678157 144.618146 
L 146.69937 144.618146 
L 146.757024 137.495415 
L 147.075042 137.495415 
L 147.075042 137.020566 
L 147.785146 137.020566 
L 147.79293 136.070868 
L 148.128481 136.070868 
L 148.136125 134.646322 
L 149.739479 134.646322 
L 149.739479 130.372683 
L 151.595785 130.372683 
L 151.595785 129.422985 
L 152.763699 129.422985 
L 152.763699 128.948137 
L 153.270716 128.948137 
L 153.270716 128.473288 
L 157.013889 128.473288 
L 157.013889 127.998439 
L 161.467251 127.998439 
L 161.577913 127.048741 
L 161.788059 127.048741 
L 161.788059 126.573893 
L 162.056144 126.573893 
L 162.056144 126.099044 
L 162.673089 126.099044 
L 162.673089 125.624195 
L 163.124595 125.624195 
L 163.124595 125.149346 
L 164.887594 125.149346 
L 164.887594 123.7248 
L 165.152353 123.7248 
L 165.152353 123.249951 
L 165.280276 123.249951 
L 165.280276 121.350556 
L 165.669442 121.350556 
L 165.669442 120.875707 
L 166.177091 120.875707 
L 166.177091 119.92601 
L 166.427314 119.92601 
L 166.427314 118.976312 
L 172.063164 118.976312 
L 172.063164 118.501463 
L 172.248606 118.501463 
L 172.253908 114.702673 
L 174.376176 114.702673 
L 174.376176 114.227824 
L 175.265018 114.227824 
L 175.265018 112.803278 
L 175.421557 112.803278 
L 175.421557 111.378732 
L 177.785079 111.378732 
L 177.785079 110.903883 
L 178.196166 110.903883 
L 178.196166 109.004488 
L 178.328664 109.004488 
L 178.328664 108.05479 
L 178.458711 108.05479 
L 178.458711 107.105093 
L 178.587865 107.105093 
L 178.654374 105.680546 
L 178.782196 105.680546 
L 178.782196 105.205698 
L 182.179573 105.205698 
L 182.289345 103.781151 
L 182.638082 103.781151 
L 182.638082 103.306302 
L 183.352038 103.306302 
L 183.352038 102.831454 
L 185.156882 102.831454 
L 185.156882 102.356605 
L 186.15108 102.356605 
L 186.15108 101.881756 
L 187.814091 101.881756 
L 187.865021 99.982361 
L 189.402128 99.982361 
L 189.402128 99.032663 
L 189.97452 99.032663 
L 189.97452 98.082966 
L 191.757944 98.082966 
L 191.757944 97.608117 
L 199.727479 97.608117 
L 199.727479 96.65842 
L 201.444501 96.65842 
L 201.503041 93.809327 
L 208.345293 93.809327 
L 208.384944 91.909932 
L 209.929022 91.909932 
L 209.95276 89.535688 
L 210.056938 89.535688 
L 210.056938 88.58599 
L 210.353047 88.58599 
L 210.353047 88.111141 
L 211.930139 88.111141 
L 211.930139 87.161444 
L 212.417904 87.161444 
L 212.460727 84.312351 
L 214.717637 84.312351 
L 214.717637 83.837502 
L 216.362164 83.837502 
L 216.362164 83.362654 
L 216.743609 83.362654 
L 216.751875 81.938107 
L 217.121574 81.938107 
L 217.121574 81.463259 
L 220.454608 81.463259 
L 220.463519 79.563863 
L 220.760714 79.563863 
L 220.760714 78.614166 
L 224.460304 78.614166 
L 224.460304 78.139317 
L 225.1311 78.139317 
L 225.1311 77.18962 
L 225.508279 77.18962 
L 225.52977 76.239922 
L 227.073296 76.239922 
L 227.073296 74.815376 
L 227.856055 74.815376 
L 227.856055 73.865678 
L 230.62103 73.865678 
L 230.621078 71.016585 
L 231.07548 71.016585 
L 231.09458 68.642341 
L 231.677392 68.642341 
L 231.678427 67.692644 
L 231.823623 67.692644 
L 231.823623 67.217795 
L 234.452105 67.217795 
L 234.452105 66.742946 
L 235.836861 66.742946 
L 235.836861 66.268098 
L 236.722778 66.268098 
L 236.724672 65.3184 
L 236.859753 65.3184 
L 236.870006 63.419005 
L 238.259283 63.419005 
L 238.26214 62.469307 
L 239.409958 62.469307 
L 239.411689 61.51961 
L 240.970886 61.51961 
L 240.972947 60.569912 
L 242.103557 60.569912 
L 242.103557 59.620215 
L 242.45875 59.620215 
L 242.45875 59.145366 
L 243.7035 59.145366 
L 243.782483 55.821424 
L 243.939484 55.821424 
L 244.018583 52.497483 
L 244.314955 52.497483 
L 244.314955 52.022634 
L 248.624362 52.022634 
L 248.659176 50.123239 
L 250.263068 50.123239 
L 250.294696 49.173541 
L 251.555395 49.173541 
L 251.60854 47.748995 
L 251.805225 47.748995 
L 251.805225 47.274146 
L 252.801251 47.274146 
L 252.801251 46.799298 
L 254.828128 46.799298 
L 254.828128 46.324449 
L 256.062462 46.324449 
L 256.064211 44.899902 
L 256.858345 44.899902 
L 256.960875 41.101112 
L 256.99816 41.101112 
L 256.99816 40.626263 
L 259.45081 40.626263 
L 259.45081 40.151415 
L 260.123759 40.151415 
L 260.123759 39.676566 
L 260.406594 39.676566 
L 260.420864 38.726868 
L 261.05885 38.726868 
L 261.153589 37.302322 
L 263.188662 37.302322 
L 263.188662 36.827473 
L 263.988525 36.827473 
L 263.988525 36.352624 
L 264.473725 36.352624 
L 264.58014 34.453229 
L 264.606705 34.453229 
L 264.706717 33.028683 
L 266.97362 33.028683 
L 266.97362 32.553834 
L 267.390434 32.553834 
L 267.501113 29.229893 
L 268.933204 29.229893 
L 268.933204 28.755044 
L 269.99921 28.755044 
L 269.99921 28.280195 
L 272.131997 28.280195 
L 272.141888 26.3808 
L 273.816407 26.3808 
L 273.816407 25.905951 
L 274.127418 25.905951 
L 274.191236 24.956254 
L 275.934677 24.956254 
L 275.948614 24.006556 
L 277.539886 24.006556 
L 277.574914 22.107161 
L 280.457558 22.107161 
L 280.490789 20.682615 
L 281.76365 20.682615 
L 281.784802 19.258068 
L 282.99313 19.258068 
L 283.019408 18.308371 
L 284.132584 18.308371 
L 284.132584 17.833522 
L 285.195315 17.833522 
L 285.195315 17.358673 
L 286.222017 17.358673 
L 286.23171 15.934127 
L 288.085156 15.934127 
L 288.105502 14.50958 
L 288.977792 14.50958 
L 288.977792 14.034732 
L 289.825529 14.034732 
L 289.825529 13.559883 
L 290.614301 13.559883 
L 290.633251 12.610185 
L 292.125109 12.610185 
L 292.125109 12.135337 
L 292.830035 12.135337 
L 292.845361 11.185639 
L 293.504137 11.185639 
L 293.504137 10.71079 
L 295.436234 10.71079 
L 295.445435 9.761093 
L 297.176338 9.761093 
L 297.176338 9.286244 
L 297.700461 9.286244 
L 297.721448 8.336546 
L 299.275186 8.336546 
L 299.275186 7.861698 
L 301.592216 7.861698 
L 301.592216 7.386849 
L 303.65509 7.386849 
L 303.65509 6.912 
L 360.8064 6.912 
L 360.8064 6.912 
" style="fill:none;stroke:#ff7500;stroke-linecap:square;stroke-width:1.5;"/>
   </g>
   <g id="line2d_41">
    <defs>
     <path d="M 0 -6 
L -1.347084 -1.854102 
L -5.706339 -1.854102 
L -2.179628 0.708204 
L -3.526712 4.854102 
L -0 2.291796 
L 3.526712 4.854102 
L 2.179628 0.708204 
L 5.706339 -1.854102 
L 1.347084 -1.854102 
z
" id="m9ec3450125" style="stroke:#ff7500;stroke-linejoin:bevel;stroke-width:1.5;"/>
    </defs>
    <g>
     <use style="fill-opacity:0;stroke:#ff7500;stroke-linejoin:bevel;stroke-width:1.5;" x="138.937418" xlink:href="#m9ec3450125" y="185.455141"/>
     <use style="fill-opacity:0;stroke:#ff7500;stroke-linejoin:bevel;stroke-width:1.5;" x="201.464708" xlink:href="#m9ec3450125" y="95.708722"/>
     <use style="fill-opacity:0;stroke:#ff7500;stroke-linejoin:bevel;stroke-width:1.5;" x="295.445435" xlink:href="#m9ec3450125" y="10.235941"/>
     <use style="fill-opacity:0;stroke:#ff7500;stroke-linejoin:bevel;stroke-width:1.5;" x="303.65509" xlink:href="#m9ec3450125" y="6.912"/>
     <use style="fill-opacity:0;stroke:#ff7500;stroke-linejoin:bevel;stroke-width:1.5;" x="360.8064" xlink:href="#m9ec3450125" y="6.912"/>
    </g>
   </g>
   <g id="line2d_42">
    <path style="fill:none;stroke:#ff7500;stroke-linecap:square;stroke-width:1.5;"/>
    <g/>
   </g>
   <g id="line2d_43">
    <path clip-path="url(#p7934369963)" d="M 230.862164 71.016585 
" style="fill:none;stroke:#ff7500;stroke-linecap:square;stroke-width:1.5;"/>
    <defs>
     <path d="M -12 12 
L 12 -12 
M -12 -12 
L 12 12 
" id="mbfe29ad571" style="stroke:#ff7500;"/>
    </defs>
    <g clip-path="url(#p7934369963)">
     <use style="fill:#ff7500;stroke:#ff7500;" x="230.862164" xlink:href="#mbfe29ad571" y="71.016585"/>
    </g>
   </g>
   <g id="line2d_44">
    <defs>
     <path d="M 0 1.5 
C 0.397805 1.5 0.77937 1.341951 1.06066 1.06066 
C 1.341951 0.77937 1.5 0.397805 1.5 0 
C 1.5 -0.397805 1.341951 -0.77937 1.06066 -1.06066 
C 0.77937 -1.341951 0.397805 -1.5 0 -1.5 
C -0.397805 -1.5 -0.77937 -1.341951 -1.06066 -1.06066 
C -1.341951 -0.77937 -1.5 -0.397805 -1.5 0 
C -1.5 0.397805 -1.341951 0.77937 -1.06066 1.06066 
C -0.77937 1.341951 -0.397805 1.5 0 1.5 
z
" id="m297b355cbf" style="stroke:#6495ed;"/>
    </defs>
    <g>
     <use style="fill:#6495ed;stroke:#6495ed;" x="146.558614" xlink:href="#m297b355cbf" y="6.912"/>
     <use style="fill:#6495ed;stroke:#6495ed;" x="146.558614" xlink:href="#m297b355cbf" y="6.912"/>
    </g>
   </g>
   <g id="line2d_45">
    <path d="M 85.038813 298.944 
L 85.038813 292.770966 
L 92.883718 292.770966 
L 92.883718 291.821268 
L 93.027318 291.821268 
L 93.027318 290.396722 
L 98.18704 290.396722 
L 98.18704 287.547629 
L 102.406452 287.547629 
L 102.493141 283.27399 
L 102.579433 283.27399 
L 102.66533 281.849444 
L 105.850679 281.849444 
L 105.922892 278.050654 
L 105.99483 278.050654 
L 105.99483 277.100956 
L 106.137884 277.100956 
L 106.137884 276.151259 
L 108.822706 276.151259 
L 108.884383 274.726712 
L 108.945859 274.726712 
L 108.945859 274.251863 
L 111.280505 274.251863 
L 111.388617 271.402771 
L 113.502209 271.402771 
L 113.598309 270.453073 
L 113.646176 270.453073 
L 113.646176 269.028527 
L 115.489021 269.028527 
L 115.575511 267.129132 
L 115.618607 267.129132 
L 115.661605 265.704585 
L 115.790012 265.704585 
L 115.790012 265.229737 
L 117.36452 265.229737 
L 117.44282 264.280039 
L 117.481849 264.280039 
L 117.559663 263.330341 
L 118.889854 263.330341 
L 118.962067 262.380644 
L 119.06987 262.380644 
L 119.177058 260.956098 
L 120.4345 260.956098 
L 120.534208 257.632156 
L 120.567327 257.632156 
L 120.666335 255.732761 
L 120.699222 255.732761 
L 120.699222 255.257912 
L 121.768984 255.257912 
L 121.768984 254.783063 
L 121.954321 254.783063 
L 121.985033 253.358517 
L 123.101995 253.358517 
L 123.188551 251.459122 
L 123.217315 251.459122 
L 123.246035 249.084878 
L 123.331933 249.084878 
L 123.331933 247.660332 
L 124.238185 247.660332 
L 124.346766 245.760937 
L 124.373813 245.760937 
L 124.454723 241.487298 
L 124.508471 241.487298 
L 124.535287 240.5376 
L 125.335341 240.5376 
L 125.335341 240.062751 
L 125.463311 240.062751 
L 125.565064 236.263961 
L 125.615735 236.263961 
L 125.716669 233.414868 
L 126.468985 233.414868 
L 126.541384 231.990322 
L 126.589495 231.990322 
L 126.661432 226.766985 
L 127.423612 226.766985 
L 127.51532 225.342439 
L 127.538178 225.342439 
L 127.62933 222.493346 
L 127.652049 222.493346 
L 127.697406 220.119102 
L 127.765236 220.119102 
L 127.765236 219.644254 
L 128.39771 219.644254 
L 128.50651 216.795161 
L 128.549855 216.795161 
L 128.636246 211.571824 
L 128.700779 211.571824 
L 128.700779 211.096976 
L 129.32384 211.096976 
L 129.386062 208.247883 
L 129.468704 208.247883 
L 129.530449 204.449093 
L 129.591992 204.449093 
L 129.591992 203.974244 
L 130.16682 203.974244 
L 130.24611 202.074849 
L 130.28563 202.074849 
L 130.384069 195.901815 
L 130.442886 195.901815 
L 130.442886 195.426966 
L 131.030644 195.426966 
L 131.106383 192.577873 
L 131.144138 192.577873 
L 131.238196 187.354537 
L 131.801984 187.354537 
L 131.892817 184.030595 
L 131.929028 184.030595 
L 132.019251 176.433015 
L 132.560437 176.433015 
L 132.647689 174.058771 
L 132.682477 174.058771 
L 132.769166 167.410888 
L 133.30631 167.410888 
L 133.406907 162.187551 
L 133.423621 162.187551 
L 133.490329 157.913912 
L 134.03991 157.913912 
L 134.136669 148.891785 
L 134.152747 148.891785 
L 134.184863 147.942088 
L 134.683578 147.942088 
L 134.792631 138.919961 
L 134.823673 138.919961 
L 134.839175 137.970263 
L 135.336156 137.970263 
L 135.426488 126.573893 
L 135.456502 126.573893 
L 135.471491 124.674498 
L 135.966853 124.674498 
L 136.054213 113.278127 
L 136.083243 113.278127 
L 136.083243 111.378732 
L 136.577088 111.378732 
L 136.675726 101.406907 
L 136.689775 101.406907 
L 136.689775 99.982361 
L 137.168148 99.982361 
L 137.27736 90.485385 
L 137.727917 90.485385 
L 137.833935 82.412956 
L 137.847145 82.412956 
L 137.847145 81.938107 
L 138.284415 81.938107 
L 138.387352 72.91598 
L 138.400179 72.91598 
L 138.400179 72.441132 
L 138.824923 72.441132 
L 138.924952 60.095063 
L 139.350333 60.095063 
L 139.447614 47.748995 
L 139.861467 47.748995 
L 139.956146 37.302322 
L 140.34752 37.302322 
L 140.451292 31.129288 
L 140.82133 31.129288 
L 140.922528 23.531707 
L 141.316472 23.531707 
L 141.382247 18.78322 
L 141.766778 18.78322 
L 141.830999 15.934127 
L 142.206555 15.934127 
L 142.269295 14.034732 
L 142.636286 14.034732 
L 142.707813 13.085034 
L 143.066428 13.085034 
L 143.136341 12.135337 
L 143.477166 12.135337 
L 143.545571 11.185639 
L 143.879127 11.185639 
L 143.879127 9.286244 
L 144.347606 9.286244 
L 144.347606 8.811395 
L 144.731576 8.811395 
L 144.731576 8.336546 
L 145.107865 8.336546 
L 145.107865 7.861698 
L 146.210514 7.861698 
L 146.210514 7.386849 
L 146.558614 7.386849 
L 146.558614 6.912 
L 360.8064 6.912 
L 360.8064 6.912 
" style="fill:none;stroke:#6495ed;stroke-linecap:square;stroke-width:1.5;"/>
   </g>
   <g id="line2d_46">
    <defs>
     <path d="M -0 6 
L 6 -6 
L -6 -6 
z
" id="m7b0dfc3289" style="stroke:#6495ed;stroke-linejoin:miter;stroke-width:1.5;"/>
    </defs>
    <g>
     <use style="fill-opacity:0;stroke:#6495ed;stroke-linejoin:miter;stroke-width:1.5;" x="131.892817" xlink:href="#m7b0dfc3289" y="185.455141"/>
     <use style="fill-opacity:0;stroke:#6495ed;stroke-linejoin:miter;stroke-width:1.5;" x="146.558614" xlink:href="#m7b0dfc3289" y="7.386849"/>
     <use style="fill-opacity:0;stroke:#6495ed;stroke-linejoin:miter;stroke-width:1.5;" x="146.558614" xlink:href="#m7b0dfc3289" y="6.912"/>
     <use style="fill-opacity:0;stroke:#6495ed;stroke-linejoin:miter;stroke-width:1.5;" x="146.558614" xlink:href="#m7b0dfc3289" y="6.912"/>
     <use style="fill-opacity:0;stroke:#6495ed;stroke-linejoin:miter;stroke-width:1.5;" x="360.8064" xlink:href="#m7b0dfc3289" y="6.912"/>
    </g>
   </g>
   <g id="line2d_47">
    <path style="fill:none;stroke:#6495ed;stroke-linecap:square;stroke-width:1.5;"/>
    <g/>
   </g>
   <g id="line2d_48">
    <path d="M 360.8064 184.980293 
L 380.514816 293.10336 
" style="fill:none;stroke:#000080;stroke-linecap:square;stroke-width:1.5;"/>
    <g>
     <use style="fill-opacity:0;stroke:#000080;stroke-width:1.5;" x="360.8064" xlink:href="#md1dec8e314" y="184.980293"/>
     <use style="fill-opacity:0;stroke:#000080;stroke-width:1.5;" x="380.514816" xlink:href="#md1dec8e314" y="293.10336"/>
    </g>
   </g>
   <g id="line2d_49">
    <path d="M 360.8064 78.139317 
L 380.514816 199.65312 
" style="fill:none;stroke:#ff00ff;stroke-linecap:square;stroke-width:1.5;"/>
    <g>
     <use style="fill-opacity:0;stroke:#ff00ff;stroke-linejoin:miter;stroke-width:1.5;" x="360.8064" xlink:href="#mb024b280a8" y="78.139317"/>
     <use style="fill-opacity:0;stroke:#ff00ff;stroke-linejoin:miter;stroke-width:1.5;" x="380.514816" xlink:href="#mb024b280a8" y="199.65312"/>
    </g>
   </g>
   <g id="line2d_50">
    <path d="M 360.8064 6.912 
L 380.514816 106.20288 
" style="fill:none;stroke:#ff7500;stroke-linecap:square;stroke-width:1.5;"/>
    <g>
     <use style="fill-opacity:0;stroke:#ff7500;stroke-linejoin:bevel;stroke-width:1.5;" x="360.8064" xlink:href="#m9ec3450125" y="6.912"/>
     <use style="fill-opacity:0;stroke:#ff7500;stroke-linejoin:bevel;stroke-width:1.5;" x="380.514816" xlink:href="#m9ec3450125" y="106.20288"/>
    </g>
   </g>
   <g id="line2d_51">
    <path d="M 360.8064 6.912 
L 380.514816 12.75264 
" style="fill:none;stroke:#6495ed;stroke-linecap:square;stroke-width:1.5;"/>
    <g>
     <use style="fill-opacity:0;stroke:#6495ed;stroke-linejoin:miter;stroke-width:1.5;" x="360.8064" xlink:href="#m7b0dfc3289" y="6.912"/>
     <use style="fill-opacity:0;stroke:#6495ed;stroke-linejoin:miter;stroke-width:1.5;" x="380.514816" xlink:href="#m7b0dfc3289" y="12.75264"/>
    </g>
   </g>
   <g id="line2d_52">
    <path d="M 360.8064 298.944 
L 360.8064 6.912 
" style="fill:none;stroke:#000000;stroke-linecap:square;stroke-width:1.5;"/>
   </g>
   <g id="patch_3">
    <path d="M 57.6 298.944 
L 360.8064 298.944 
" style="fill:none;stroke:#000000;stroke-linecap:square;stroke-linejoin:miter;stroke-width:0.8;"/>
   </g>
   <g id="patch_4">
    <path d="M 57.6 6.912 
L 360.8064 6.912 
" style="fill:none;stroke:#000000;stroke-linecap:square;stroke-linejoin:miter;stroke-width:0.8;"/>
   </g>
   <g id="text_13">
    <!-- f19 -->
    <g transform="translate(386.578944 296.966485)scale(0.14 -0.14)">
     <defs>
      <path d="M 10.984375 1.515625 
L 10.984375 10.5 
Q 14.703125 8.734375 18.5 7.8125 
Q 22.3125 6.890625 25.984375 6.890625 
Q 35.75 6.890625 40.890625 13.453125 
Q 46.046875 20.015625 46.78125 33.40625 
Q 43.953125 29.203125 39.59375 26.953125 
Q 35.25 24.703125 29.984375 24.703125 
Q 19.046875 24.703125 12.671875 31.3125 
Q 6.296875 37.9375 6.296875 49.421875 
Q 6.296875 60.640625 12.9375 67.421875 
Q 19.578125 74.21875 30.609375 74.21875 
Q 43.265625 74.21875 49.921875 64.515625 
Q 56.59375 54.828125 56.59375 36.375 
Q 56.59375 19.140625 48.40625 8.859375 
Q 40.234375 -1.421875 26.421875 -1.421875 
Q 22.703125 -1.421875 18.890625 -0.6875 
Q 15.09375 0.046875 10.984375 1.515625 
z
M 30.609375 32.421875 
Q 37.25 32.421875 41.125 36.953125 
Q 45.015625 41.5 45.015625 49.421875 
Q 45.015625 57.28125 41.125 61.84375 
Q 37.25 66.40625 30.609375 66.40625 
Q 23.96875 66.40625 20.09375 61.84375 
Q 16.21875 57.28125 16.21875 49.421875 
Q 16.21875 41.5 20.09375 36.953125 
Q 23.96875 32.421875 30.609375 32.421875 
z
" id="DejaVuSans-57"/>
     </defs>
     <use xlink:href="#DejaVuSans-102"/>
     <use x="35.205078" xlink:href="#DejaVuSans-49"/>
     <use x="98.828125" xlink:href="#DejaVuSans-57"/>
    </g>
   </g>
   <g id="text_14">
    <!-- f25 -->
    <g transform="translate(386.578944 203.516245)scale(0.14 -0.14)">
     <defs>
      <path d="M 10.796875 72.90625 
L 49.515625 72.90625 
L 49.515625 64.59375 
L 19.828125 64.59375 
L 19.828125 46.734375 
Q 21.96875 47.46875 24.109375 47.828125 
Q 26.265625 48.1875 28.421875 48.1875 
Q 40.625 48.1875 47.75 41.5 
Q 54.890625 34.8125 54.890625 23.390625 
Q 54.890625 11.625 47.5625 5.09375 
Q 40.234375 -1.421875 26.90625 -1.421875 
Q 22.3125 -1.421875 17.546875 -0.640625 
Q 12.796875 0.140625 7.71875 1.703125 
L 7.71875 11.625 
Q 12.109375 9.234375 16.796875 8.0625 
Q 21.484375 6.890625 26.703125 6.890625 
Q 35.15625 6.890625 40.078125 11.328125 
Q 45.015625 15.765625 45.015625 23.390625 
Q 45.015625 31 40.078125 35.4375 
Q 35.15625 39.890625 26.703125 39.890625 
Q 22.75 39.890625 18.8125 39.015625 
Q 14.890625 38.140625 10.796875 36.28125 
z
" id="DejaVuSans-53"/>
     </defs>
     <use xlink:href="#DejaVuSans-102"/>
     <use x="35.205078" xlink:href="#DejaVuSans-50"/>
     <use x="98.828125" xlink:href="#DejaVuSans-53"/>
    </g>
   </g>
   <g id="text_15">
    <!-- f31 -->
    <g transform="translate(386.578944 110.066005)scale(0.14 -0.14)">
     <defs>
      <path d="M 40.578125 39.3125 
Q 47.65625 37.796875 51.625 33 
Q 55.609375 28.21875 55.609375 21.1875 
Q 55.609375 10.40625 48.1875 4.484375 
Q 40.765625 -1.421875 27.09375 -1.421875 
Q 22.515625 -1.421875 17.65625 -0.515625 
Q 12.796875 0.390625 7.625 2.203125 
L 7.625 11.71875 
Q 11.71875 9.328125 16.59375 8.109375 
Q 21.484375 6.890625 26.8125 6.890625 
Q 36.078125 6.890625 40.9375 10.546875 
Q 45.796875 14.203125 45.796875 21.1875 
Q 45.796875 27.640625 41.28125 31.265625 
Q 36.765625 34.90625 28.71875 34.90625 
L 20.21875 34.90625 
L 20.21875 43.015625 
L 29.109375 43.015625 
Q 36.375 43.015625 40.234375 45.921875 
Q 44.09375 48.828125 44.09375 54.296875 
Q 44.09375 59.90625 40.109375 62.90625 
Q 36.140625 65.921875 28.71875 65.921875 
Q 24.65625 65.921875 20.015625 65.03125 
Q 15.375 64.15625 9.8125 62.3125 
L 9.8125 71.09375 
Q 15.4375 72.65625 20.34375 73.4375 
Q 25.25 74.21875 29.59375 74.21875 
Q 40.828125 74.21875 47.359375 69.109375 
Q 53.90625 64.015625 53.90625 55.328125 
Q 53.90625 49.265625 50.4375 45.09375 
Q 46.96875 40.921875 40.578125 39.3125 
z
" id="DejaVuSans-51"/>
     </defs>
     <use xlink:href="#DejaVuSans-102"/>
     <use x="35.205078" xlink:href="#DejaVuSans-51"/>
     <use x="98.828125" xlink:href="#DejaVuSans-49"/>
    </g>
   </g>
   <g id="text_16">
    <!-- f37 -->
    <g transform="translate(386.578944 16.615765)scale(0.14 -0.14)">
     <defs>
      <path d="M 8.203125 72.90625 
L 55.078125 72.90625 
L 55.078125 68.703125 
L 28.609375 0 
L 18.3125 0 
L 43.21875 64.59375 
L 8.203125 64.59375 
z
" id="DejaVuSans-55"/>
     </defs>
     <use xlink:href="#DejaVuSans-102"/>
     <use x="35.205078" xlink:href="#DejaVuSans-51"/>
     <use x="98.828125" xlink:href="#DejaVuSans-55"/>
    </g>
   </g>
   <g id="text_17">
    <!-- bbob-constrained -->
    <g transform="translate(60.632064 17.582726)scale(0.102 -0.102)">
     <defs>
      <path d="M 48.6875 27.296875 
Q 48.6875 37.203125 44.609375 42.84375 
Q 40.53125 48.484375 33.40625 48.484375 
Q 26.265625 48.484375 22.1875 42.84375 
Q 18.109375 37.203125 18.109375 27.296875 
Q 18.109375 17.390625 22.1875 11.75 
Q 26.265625 6.109375 33.40625 6.109375 
Q 40.53125 6.109375 44.609375 11.75 
Q 48.6875 17.390625 48.6875 27.296875 
z
M 18.109375 46.390625 
Q 20.953125 51.265625 25.265625 53.625 
Q 29.59375 56 35.59375 56 
Q 45.5625 56 51.78125 48.09375 
Q 58.015625 40.1875 58.015625 27.296875 
Q 58.015625 14.40625 51.78125 6.484375 
Q 45.5625 -1.421875 35.59375 -1.421875 
Q 29.59375 -1.421875 25.265625 0.953125 
Q 20.953125 3.328125 18.109375 8.203125 
L 18.109375 0 
L 9.078125 0 
L 9.078125 75.984375 
L 18.109375 75.984375 
z
" id="DejaVuSans-98"/>
      <path d="M 4.890625 31.390625 
L 31.203125 31.390625 
L 31.203125 23.390625 
L 4.890625 23.390625 
z
" id="DejaVuSans-45"/>
     </defs>
     <use xlink:href="#DejaVuSans-98"/>
     <use x="63.476562" xlink:href="#DejaVuSans-98"/>
     <use x="126.953125" xlink:href="#DejaVuSans-111"/>
     <use x="188.134766" xlink:href="#DejaVuSans-98"/>
     <use x="251.611328" xlink:href="#DejaVuSans-45"/>
     <use x="287.695312" xlink:href="#DejaVuSans-99"/>
     <use x="342.675781" xlink:href="#DejaVuSans-111"/>
     <use x="403.857422" xlink:href="#DejaVuSans-110"/>
     <use x="467.236328" xlink:href="#DejaVuSans-115"/>
     <use x="519.335938" xlink:href="#DejaVuSans-116"/>
     <use x="558.544922" xlink:href="#DejaVuSans-114"/>
     <use x="599.658203" xlink:href="#DejaVuSans-97"/>
     <use x="660.9375" xlink:href="#DejaVuSans-105"/>
     <use x="688.720703" xlink:href="#DejaVuSans-110"/>
     <use x="752.099609" xlink:href="#DejaVuSans-101"/>
     <use x="813.623047" xlink:href="#DejaVuSans-100"/>
    </g>
    <!-- Ill-conditioned functions with 0n+1 constraints, 40-D -->
    <g transform="translate(60.632064 29.004495)scale(0.102 -0.102)">
     <defs>
      <path d="M 9.8125 72.90625 
L 19.671875 72.90625 
L 19.671875 0 
L 9.8125 0 
z
" id="DejaVuSans-73"/>
      <path d="M 4.203125 54.6875 
L 13.1875 54.6875 
L 24.421875 12.015625 
L 35.59375 54.6875 
L 46.1875 54.6875 
L 57.421875 12.015625 
L 68.609375 54.6875 
L 77.59375 54.6875 
L 63.28125 0 
L 52.6875 0 
L 40.921875 44.828125 
L 29.109375 0 
L 18.5 0 
z
" id="DejaVuSans-119"/>
      <path d="M 54.890625 33.015625 
L 54.890625 0 
L 45.90625 0 
L 45.90625 32.71875 
Q 45.90625 40.484375 42.875 44.328125 
Q 39.84375 48.1875 33.796875 48.1875 
Q 26.515625 48.1875 22.3125 43.546875 
Q 18.109375 38.921875 18.109375 30.90625 
L 18.109375 0 
L 9.078125 0 
L 9.078125 75.984375 
L 18.109375 75.984375 
L 18.109375 46.1875 
Q 21.34375 51.125 25.703125 53.5625 
Q 30.078125 56 35.796875 56 
Q 45.21875 56 50.046875 50.171875 
Q 54.890625 44.34375 54.890625 33.015625 
z
" id="DejaVuSans-104"/>
      <path d="M 46 62.703125 
L 46 35.5 
L 73.1875 35.5 
L 73.1875 27.203125 
L 46 27.203125 
L 46 0 
L 37.796875 0 
L 37.796875 27.203125 
L 10.59375 27.203125 
L 10.59375 35.5 
L 37.796875 35.5 
L 37.796875 62.703125 
z
" id="DejaVuSans-43"/>
      <path d="M 19.671875 64.796875 
L 19.671875 8.109375 
L 31.59375 8.109375 
Q 46.6875 8.109375 53.6875 14.9375 
Q 60.6875 21.78125 60.6875 36.53125 
Q 60.6875 51.171875 53.6875 57.984375 
Q 46.6875 64.796875 31.59375 64.796875 
z
M 9.8125 72.90625 
L 30.078125 72.90625 
Q 51.265625 72.90625 61.171875 64.09375 
Q 71.09375 55.28125 71.09375 36.53125 
Q 71.09375 17.671875 61.125 8.828125 
Q 51.171875 0 30.078125 0 
L 9.8125 0 
z
" id="DejaVuSans-68"/>
     </defs>
     <use xlink:href="#DejaVuSans-73"/>
     <use x="29.492188" xlink:href="#DejaVuSans-108"/>
     <use x="57.275391" xlink:href="#DejaVuSans-108"/>
     <use x="85.058594" xlink:href="#DejaVuSans-45"/>
     <use x="121.142578" xlink:href="#DejaVuSans-99"/>
     <use x="176.123047" xlink:href="#DejaVuSans-111"/>
     <use x="237.304688" xlink:href="#DejaVuSans-110"/>
     <use x="300.683594" xlink:href="#DejaVuSans-100"/>
     <use x="364.160156" xlink:href="#DejaVuSans-105"/>
     <use x="391.943359" xlink:href="#DejaVuSans-116"/>
     <use x="431.152344" xlink:href="#DejaVuSans-105"/>
     <use x="458.935547" xlink:href="#DejaVuSans-111"/>
     <use x="520.117188" xlink:href="#DejaVuSans-110"/>
     <use x="583.496094" xlink:href="#DejaVuSans-101"/>
     <use x="645.019531" xlink:href="#DejaVuSans-100"/>
     <use x="708.496094" xlink:href="#DejaVuSans-32"/>
     <use x="740.283203" xlink:href="#DejaVuSans-102"/>
     <use x="775.488281" xlink:href="#DejaVuSans-117"/>
     <use x="838.867188" xlink:href="#DejaVuSans-110"/>
     <use x="902.246094" xlink:href="#DejaVuSans-99"/>
     <use x="957.226562" xlink:href="#DejaVuSans-116"/>
     <use x="996.435547" xlink:href="#DejaVuSans-105"/>
     <use x="1024.21875" xlink:href="#DejaVuSans-111"/>
     <use x="1085.400391" xlink:href="#DejaVuSans-110"/>
     <use x="1148.779297" xlink:href="#DejaVuSans-115"/>
     <use x="1200.878906" xlink:href="#DejaVuSans-32"/>
     <use x="1232.666016" xlink:href="#DejaVuSans-119"/>
     <use x="1314.453125" xlink:href="#DejaVuSans-105"/>
     <use x="1342.236328" xlink:href="#DejaVuSans-116"/>
     <use x="1381.445312" xlink:href="#DejaVuSans-104"/>
     <use x="1444.824219" xlink:href="#DejaVuSans-32"/>
     <use x="1476.611328" xlink:href="#DejaVuSans-48"/>
     <use x="1540.234375" xlink:href="#DejaVuSans-110"/>
     <use x="1603.613281" xlink:href="#DejaVuSans-43"/>
     <use x="1687.402344" xlink:href="#DejaVuSans-49"/>
     <use x="1751.025391" xlink:href="#DejaVuSans-32"/>
     <use x="1782.8125" xlink:href="#DejaVuSans-99"/>
     <use x="1837.792969" xlink:href="#DejaVuSans-111"/>
     <use x="1898.974609" xlink:href="#DejaVuSans-110"/>
     <use x="1962.353516" xlink:href="#DejaVuSans-115"/>
     <use x="2014.453125" xlink:href="#DejaVuSans-116"/>
     <use x="2053.662109" xlink:href="#DejaVuSans-114"/>
     <use x="2094.775391" xlink:href="#DejaVuSans-97"/>
     <use x="2156.054688" xlink:href="#DejaVuSans-105"/>
     <use x="2183.837891" xlink:href="#DejaVuSans-110"/>
     <use x="2247.216797" xlink:href="#DejaVuSans-116"/>
     <use x="2286.425781" xlink:href="#DejaVuSans-115"/>
     <use x="2338.525391" xlink:href="#DejaVuSans-44"/>
     <use x="2370.3125" xlink:href="#DejaVuSans-32"/>
     <use x="2402.099609" xlink:href="#DejaVuSans-52"/>
     <use x="2465.722656" xlink:href="#DejaVuSans-48"/>
     <use x="2529.345703" xlink:href="#DejaVuSans-45"/>
     <use x="2565.429688" xlink:href="#DejaVuSans-68"/>
    </g>
    <!-- 41 targets: 100..1e-06 -->
    <g transform="translate(60.632064 40.426264)scale(0.102 -0.102)">
     <defs>
      <path d="M 11.71875 12.40625 
L 22.015625 12.40625 
L 22.015625 0 
L 11.71875 0 
z
M 11.71875 51.703125 
L 22.015625 51.703125 
L 22.015625 39.3125 
L 11.71875 39.3125 
z
" id="DejaVuSans-58"/>
     </defs>
     <use xlink:href="#DejaVuSans-52"/>
     <use x="63.623047" xlink:href="#DejaVuSans-49"/>
     <use x="127.246094" xlink:href="#DejaVuSans-32"/>
     <use x="159.033203" xlink:href="#DejaVuSans-116"/>
     <use x="198.242188" xlink:href="#DejaVuSans-97"/>
     <use x="259.521484" xlink:href="#DejaVuSans-114"/>
     <use x="298.884766" xlink:href="#DejaVuSans-103"/>
     <use x="362.361328" xlink:href="#DejaVuSans-101"/>
     <use x="423.884766" xlink:href="#DejaVuSans-116"/>
     <use x="463.09375" xlink:href="#DejaVuSans-115"/>
     <use x="515.193359" xlink:href="#DejaVuSans-58"/>
     <use x="548.884766" xlink:href="#DejaVuSans-32"/>
     <use x="580.671875" xlink:href="#DejaVuSans-49"/>
     <use x="644.294922" xlink:href="#DejaVuSans-48"/>
     <use x="707.917969" xlink:href="#DejaVuSans-48"/>
     <use x="771.541016" xlink:href="#DejaVuSans-46"/>
     <use x="803.328125" xlink:href="#DejaVuSans-46"/>
     <use x="835.115234" xlink:href="#DejaVuSans-49"/>
     <use x="898.738281" xlink:href="#DejaVuSans-101"/>
     <use x="960.261719" xlink:href="#DejaVuSans-45"/>
     <use x="996.345703" xlink:href="#DejaVuSans-48"/>
     <use x="1059.96875" xlink:href="#DejaVuSans-54"/>
    </g>
    <!-- evals = f-evals + g-evals -->
    <g transform="translate(60.632064 51.848032)scale(0.102 -0.102)">
     <defs>
      <path d="M 10.59375 45.40625 
L 73.1875 45.40625 
L 73.1875 37.203125 
L 10.59375 37.203125 
z
M 10.59375 25.484375 
L 73.1875 25.484375 
L 73.1875 17.1875 
L 10.59375 17.1875 
z
" id="DejaVuSans-61"/>
     </defs>
     <use xlink:href="#DejaVuSans-101"/>
     <use x="61.523438" xlink:href="#DejaVuSans-118"/>
     <use x="120.703125" xlink:href="#DejaVuSans-97"/>
     <use x="181.982422" xlink:href="#DejaVuSans-108"/>
     <use x="209.765625" xlink:href="#DejaVuSans-115"/>
     <use x="261.865234" xlink:href="#DejaVuSans-32"/>
     <use x="293.652344" xlink:href="#DejaVuSans-61"/>
     <use x="377.441406" xlink:href="#DejaVuSans-32"/>
     <use x="409.228516" xlink:href="#DejaVuSans-102"/>
     <use x="438.933594" xlink:href="#DejaVuSans-45"/>
     <use x="475.017578" xlink:href="#DejaVuSans-101"/>
     <use x="536.541016" xlink:href="#DejaVuSans-118"/>
     <use x="595.720703" xlink:href="#DejaVuSans-97"/>
     <use x="657" xlink:href="#DejaVuSans-108"/>
     <use x="684.783203" xlink:href="#DejaVuSans-115"/>
     <use x="736.882812" xlink:href="#DejaVuSans-32"/>
     <use x="768.669922" xlink:href="#DejaVuSans-43"/>
     <use x="852.458984" xlink:href="#DejaVuSans-32"/>
     <use x="884.246094" xlink:href="#DejaVuSans-103"/>
     <use x="947.722656" xlink:href="#DejaVuSans-45"/>
     <use x="983.806641" xlink:href="#DejaVuSans-101"/>
     <use x="1045.330078" xlink:href="#DejaVuSans-118"/>
     <use x="1104.509766" xlink:href="#DejaVuSans-97"/>
     <use x="1165.789062" xlink:href="#DejaVuSans-108"/>
     <use x="1193.572266" xlink:href="#DejaVuSans-115"/>
    </g>
    <!-- 15 instances -->
    <g transform="translate(60.632064 63.269801)scale(0.102 -0.102)">
     <use xlink:href="#DejaVuSans-49"/>
     <use x="63.623047" xlink:href="#DejaVuSans-53"/>
     <use x="127.246094" xlink:href="#DejaVuSans-32"/>
     <use x="159.033203" xlink:href="#DejaVuSans-105"/>
     <use x="186.816406" xlink:href="#DejaVuSans-110"/>
     <use x="250.195312" xlink:href="#DejaVuSans-115"/>
     <use x="302.294922" xlink:href="#DejaVuSans-116"/>
     <use x="341.503906" xlink:href="#DejaVuSans-97"/>
     <use x="402.783203" xlink:href="#DejaVuSans-110"/>
     <use x="466.162109" xlink:href="#DejaVuSans-99"/>
     <use x="521.142578" xlink:href="#DejaVuSans-101"/>
     <use x="582.666016" xlink:href="#DejaVuSans-115"/>
    </g>
   </g>
   <g id="text_18">
    <!-- v2.4.159 -->
    <g style="fill:#808080;" transform="translate(187.15945 293.943992)scale(0.1 -0.1)">
     <use xlink:href="#DejaVuSans-118"/>
     <use x="59.179688" xlink:href="#DejaVuSans-50"/>
     <use x="122.802734" xlink:href="#DejaVuSans-46"/>
     <use x="154.589844" xlink:href="#DejaVuSans-52"/>
     <use x="218.212891" xlink:href="#DejaVuSans-46"/>
     <use x="250" xlink:href="#DejaVuSans-49"/>
     <use x="313.623047" xlink:href="#DejaVuSans-53"/>
     <use x="377.246094" xlink:href="#DejaVuSans-57"/>
    </g>
   </g>
  </g>
 </g>
 <defs>
  <clipPath id="p7934369963">
   <rect height="292.032" width="303.2064" x="57.6" y="6.912"/>
  </clipPath>
 </defs>
</svg>
