<?xml version="1.0" encoding="utf-8" standalone="no"?>
<!DOCTYPE svg PUBLIC "-//W3C//DTD SVG 1.1//EN"
  "http://www.w3.org/Graphics/SVG/1.1/DTD/svg11.dtd">
<!-- Created with matplotlib (https://matplotlib.org/) -->
<svg height="345.6pt" version="1.1" viewBox="0 0 460.8 345.6" width="460.8pt" xmlns="http://www.w3.org/2000/svg" xmlns:xlink="http://www.w3.org/1999/xlink">
 <metadata>
  <rdf:RDF xmlns:cc="http://creativecommons.org/ns#" xmlns:dc="http://purl.org/dc/elements/1.1/" xmlns:rdf="http://www.w3.org/1999/02/22-rdf-syntax-ns#">
   <cc:Work>
    <dc:type rdf:resource="http://purl.org/dc/dcmitype/StillImage"/>
    <dc:date>2022-02-09T11:10:10.574900</dc:date>
    <dc:format>image/svg+xml</dc:format>
    <dc:creator>
     <cc:Agent>
      <dc:title>Matplotlib v3.3.3, https://matplotlib.org/</dc:title>
     </cc:Agent>
    </dc:creator>
   </cc:Work>
  </rdf:RDF>
 </metadata>
 <defs>
  <style type="text/css">*{stroke-linecap:butt;stroke-linejoin:round;}</style>
 </defs>
 <g id="figure_1">
  <g id="patch_1">
   <path d="M 0 345.6 
L 460.8 345.6 
L 460.8 0 
L 0 0 
z
" style="fill:#ffffff;"/>
  </g>
  <g id="axes_1">
   <g id="patch_2">
    <path d="M 57.6 298.944 
L 360.8064 298.944 
L 360.8064 27.648 
L 57.6 27.648 
z
" style="fill:#ffffff;"/>
   </g>
   <g id="matplotlib.axis_1">
    <g id="xtick_1">
     <g id="line2d_1">
      <path clip-path="url(#p52d9e771d4)" d="M 57.6 298.944 
L 57.6 27.648 
" style="fill:none;stroke:#b0b0b0;stroke-linecap:square;stroke-width:0.8;"/>
     </g>
     <g id="line2d_2">
      <defs>
       <path d="M 0 0 
L 0 3.5 
" id="mdef7fc9f2e" style="stroke:#000000;stroke-width:0.8;"/>
      </defs>
      <g>
       <use style="stroke:#000000;stroke-width:0.8;" x="57.6" xlink:href="#mdef7fc9f2e" y="298.944"/>
      </g>
     </g>
     <g id="text_1">
      <!-- 0 -->
      <g transform="translate(52.191875 318.861344)scale(0.17 -0.17)">
       <defs>
        <path d="M 31.78125 66.40625 
Q 24.171875 66.40625 20.328125 58.90625 
Q 16.5 51.421875 16.5 36.375 
Q 16.5 21.390625 20.328125 13.890625 
Q 24.171875 6.390625 31.78125 6.390625 
Q 39.453125 6.390625 43.28125 13.890625 
Q 47.125 21.390625 47.125 36.375 
Q 47.125 51.421875 43.28125 58.90625 
Q 39.453125 66.40625 31.78125 66.40625 
z
M 31.78125 74.21875 
Q 44.046875 74.21875 50.515625 64.515625 
Q 56.984375 54.828125 56.984375 36.375 
Q 56.984375 17.96875 50.515625 8.265625 
Q 44.046875 -1.421875 31.78125 -1.421875 
Q 19.53125 -1.421875 13.0625 8.265625 
Q 6.59375 17.96875 6.59375 36.375 
Q 6.59375 54.828125 13.0625 64.515625 
Q 19.53125 74.21875 31.78125 74.21875 
z
" id="DejaVuSans-48"/>
       </defs>
       <use xlink:href="#DejaVuSans-48"/>
      </g>
     </g>
    </g>
    <g id="xtick_2">
     <g id="line2d_3">
      <path clip-path="url(#p52d9e771d4)" d="M 144.2304 298.944 
L 144.2304 27.648 
" style="fill:none;stroke:#b0b0b0;stroke-linecap:square;stroke-width:0.8;"/>
     </g>
     <g id="line2d_4">
      <g>
       <use style="stroke:#000000;stroke-width:0.8;" x="144.2304" xlink:href="#mdef7fc9f2e" y="298.944"/>
      </g>
     </g>
     <g id="text_2">
      <!-- 2 -->
      <g transform="translate(138.822275 318.861344)scale(0.17 -0.17)">
       <defs>
        <path d="M 19.1875 8.296875 
L 53.609375 8.296875 
L 53.609375 0 
L 7.328125 0 
L 7.328125 8.296875 
Q 12.9375 14.109375 22.625 23.890625 
Q 32.328125 33.6875 34.8125 36.53125 
Q 39.546875 41.84375 41.421875 45.53125 
Q 43.3125 49.21875 43.3125 52.78125 
Q 43.3125 58.59375 39.234375 62.25 
Q 35.15625 65.921875 28.609375 65.921875 
Q 23.96875 65.921875 18.8125 64.3125 
Q 13.671875 62.703125 7.8125 59.421875 
L 7.8125 69.390625 
Q 13.765625 71.78125 18.9375 73 
Q 24.125 74.21875 28.421875 74.21875 
Q 39.75 74.21875 46.484375 68.546875 
Q 53.21875 62.890625 53.21875 53.421875 
Q 53.21875 48.921875 51.53125 44.890625 
Q 49.859375 40.875 45.40625 35.40625 
Q 44.1875 33.984375 37.640625 27.21875 
Q 31.109375 20.453125 19.1875 8.296875 
z
" id="DejaVuSans-50"/>
       </defs>
       <use xlink:href="#DejaVuSans-50"/>
      </g>
     </g>
    </g>
    <g id="xtick_3">
     <g id="line2d_5">
      <path clip-path="url(#p52d9e771d4)" d="M 230.8608 298.944 
L 230.8608 27.648 
" style="fill:none;stroke:#b0b0b0;stroke-linecap:square;stroke-width:0.8;"/>
     </g>
     <g id="line2d_6">
      <g>
       <use style="stroke:#000000;stroke-width:0.8;" x="230.8608" xlink:href="#mdef7fc9f2e" y="298.944"/>
      </g>
     </g>
     <g id="text_3">
      <!-- 4 -->
      <g transform="translate(225.452675 318.861344)scale(0.17 -0.17)">
       <defs>
        <path d="M 37.796875 64.3125 
L 12.890625 25.390625 
L 37.796875 25.390625 
z
M 35.203125 72.90625 
L 47.609375 72.90625 
L 47.609375 25.390625 
L 58.015625 25.390625 
L 58.015625 17.1875 
L 47.609375 17.1875 
L 47.609375 0 
L 37.796875 0 
L 37.796875 17.1875 
L 4.890625 17.1875 
L 4.890625 26.703125 
z
" id="DejaVuSans-52"/>
       </defs>
       <use xlink:href="#DejaVuSans-52"/>
      </g>
     </g>
    </g>
    <g id="xtick_4">
     <g id="line2d_7">
      <path clip-path="url(#p52d9e771d4)" d="M 317.4912 298.944 
L 317.4912 27.648 
" style="fill:none;stroke:#b0b0b0;stroke-linecap:square;stroke-width:0.8;"/>
     </g>
     <g id="line2d_8">
      <g>
       <use style="stroke:#000000;stroke-width:0.8;" x="317.4912" xlink:href="#mdef7fc9f2e" y="298.944"/>
      </g>
     </g>
     <g id="text_4">
      <!-- 6 -->
      <g transform="translate(312.083075 318.861344)scale(0.17 -0.17)">
       <defs>
        <path d="M 33.015625 40.375 
Q 26.375 40.375 22.484375 35.828125 
Q 18.609375 31.296875 18.609375 23.390625 
Q 18.609375 15.53125 22.484375 10.953125 
Q 26.375 6.390625 33.015625 6.390625 
Q 39.65625 6.390625 43.53125 10.953125 
Q 47.40625 15.53125 47.40625 23.390625 
Q 47.40625 31.296875 43.53125 35.828125 
Q 39.65625 40.375 33.015625 40.375 
z
M 52.59375 71.296875 
L 52.59375 62.3125 
Q 48.875 64.0625 45.09375 64.984375 
Q 41.3125 65.921875 37.59375 65.921875 
Q 27.828125 65.921875 22.671875 59.328125 
Q 17.53125 52.734375 16.796875 39.40625 
Q 19.671875 43.65625 24.015625 45.921875 
Q 28.375 48.1875 33.59375 48.1875 
Q 44.578125 48.1875 50.953125 41.515625 
Q 57.328125 34.859375 57.328125 23.390625 
Q 57.328125 12.15625 50.6875 5.359375 
Q 44.046875 -1.421875 33.015625 -1.421875 
Q 20.359375 -1.421875 13.671875 8.265625 
Q 6.984375 17.96875 6.984375 36.375 
Q 6.984375 53.65625 15.1875 63.9375 
Q 23.390625 74.21875 37.203125 74.21875 
Q 40.921875 74.21875 44.703125 73.484375 
Q 48.484375 72.75 52.59375 71.296875 
z
" id="DejaVuSans-54"/>
       </defs>
       <use xlink:href="#DejaVuSans-54"/>
      </g>
     </g>
    </g>
    <g id="xtick_5">
     <g id="line2d_9">
      <path clip-path="url(#p52d9e771d4)" d="M 100.9152 298.944 
L 100.9152 27.648 
" style="fill:none;stroke:#b0b0b0;stroke-linecap:square;stroke-width:0.8;"/>
     </g>
     <g id="line2d_10">
      <defs>
       <path d="M 0 0 
L 0 2 
" id="m18505b47db" style="stroke:#000000;stroke-width:0.6;"/>
      </defs>
      <g>
       <use style="stroke:#000000;stroke-width:0.6;" x="100.9152" xlink:href="#m18505b47db" y="298.944"/>
      </g>
     </g>
    </g>
    <g id="xtick_6">
     <g id="line2d_11">
      <path clip-path="url(#p52d9e771d4)" d="M 187.5456 298.944 
L 187.5456 27.648 
" style="fill:none;stroke:#b0b0b0;stroke-linecap:square;stroke-width:0.8;"/>
     </g>
     <g id="line2d_12">
      <g>
       <use style="stroke:#000000;stroke-width:0.6;" x="187.5456" xlink:href="#m18505b47db" y="298.944"/>
      </g>
     </g>
    </g>
    <g id="xtick_7">
     <g id="line2d_13">
      <path clip-path="url(#p52d9e771d4)" d="M 274.176 298.944 
L 274.176 27.648 
" style="fill:none;stroke:#b0b0b0;stroke-linecap:square;stroke-width:0.8;"/>
     </g>
     <g id="line2d_14">
      <g>
       <use style="stroke:#000000;stroke-width:0.6;" x="274.176" xlink:href="#m18505b47db" y="298.944"/>
      </g>
     </g>
    </g>
    <g id="xtick_8">
     <g id="line2d_15">
      <path clip-path="url(#p52d9e771d4)" d="M 360.8064 298.944 
L 360.8064 27.648 
" style="fill:none;stroke:#b0b0b0;stroke-linecap:square;stroke-width:0.8;"/>
     </g>
     <g id="line2d_16">
      <g>
       <use style="stroke:#000000;stroke-width:0.6;" x="360.8064" xlink:href="#m18505b47db" y="298.944"/>
      </g>
     </g>
    </g>
    <g id="text_5">
     <!-- log10(evals / dimension) -->
     <g transform="translate(104.238825 339.314156)scale(0.17 -0.17)">
      <defs>
       <path d="M 9.421875 75.984375 
L 18.40625 75.984375 
L 18.40625 0 
L 9.421875 0 
z
" id="DejaVuSans-108"/>
       <path d="M 30.609375 48.390625 
Q 23.390625 48.390625 19.1875 42.75 
Q 14.984375 37.109375 14.984375 27.296875 
Q 14.984375 17.484375 19.15625 11.84375 
Q 23.34375 6.203125 30.609375 6.203125 
Q 37.796875 6.203125 41.984375 11.859375 
Q 46.1875 17.53125 46.1875 27.296875 
Q 46.1875 37.015625 41.984375 42.703125 
Q 37.796875 48.390625 30.609375 48.390625 
z
M 30.609375 56 
Q 42.328125 56 49.015625 48.375 
Q 55.71875 40.765625 55.71875 27.296875 
Q 55.71875 13.875 49.015625 6.21875 
Q 42.328125 -1.421875 30.609375 -1.421875 
Q 18.84375 -1.421875 12.171875 6.21875 
Q 5.515625 13.875 5.515625 27.296875 
Q 5.515625 40.765625 12.171875 48.375 
Q 18.84375 56 30.609375 56 
z
" id="DejaVuSans-111"/>
       <path d="M 45.40625 27.984375 
Q 45.40625 37.75 41.375 43.109375 
Q 37.359375 48.484375 30.078125 48.484375 
Q 22.859375 48.484375 18.828125 43.109375 
Q 14.796875 37.75 14.796875 27.984375 
Q 14.796875 18.265625 18.828125 12.890625 
Q 22.859375 7.515625 30.078125 7.515625 
Q 37.359375 7.515625 41.375 12.890625 
Q 45.40625 18.265625 45.40625 27.984375 
z
M 54.390625 6.78125 
Q 54.390625 -7.171875 48.1875 -13.984375 
Q 42 -20.796875 29.203125 -20.796875 
Q 24.46875 -20.796875 20.265625 -20.09375 
Q 16.0625 -19.390625 12.109375 -17.921875 
L 12.109375 -9.1875 
Q 16.0625 -11.328125 19.921875 -12.34375 
Q 23.78125 -13.375 27.78125 -13.375 
Q 36.625 -13.375 41.015625 -8.765625 
Q 45.40625 -4.15625 45.40625 5.171875 
L 45.40625 9.625 
Q 42.625 4.78125 38.28125 2.390625 
Q 33.9375 0 27.875 0 
Q 17.828125 0 11.671875 7.65625 
Q 5.515625 15.328125 5.515625 27.984375 
Q 5.515625 40.671875 11.671875 48.328125 
Q 17.828125 56 27.875 56 
Q 33.9375 56 38.28125 53.609375 
Q 42.625 51.21875 45.40625 46.390625 
L 45.40625 54.6875 
L 54.390625 54.6875 
z
" id="DejaVuSans-103"/>
       <path d="M 12.40625 8.296875 
L 28.515625 8.296875 
L 28.515625 63.921875 
L 10.984375 60.40625 
L 10.984375 69.390625 
L 28.421875 72.90625 
L 38.28125 72.90625 
L 38.28125 8.296875 
L 54.390625 8.296875 
L 54.390625 0 
L 12.40625 0 
z
" id="DejaVuSans-49"/>
       <path d="M 31 75.875 
Q 24.46875 64.65625 21.28125 53.65625 
Q 18.109375 42.671875 18.109375 31.390625 
Q 18.109375 20.125 21.3125 9.0625 
Q 24.515625 -2 31 -13.1875 
L 23.1875 -13.1875 
Q 15.875 -1.703125 12.234375 9.375 
Q 8.59375 20.453125 8.59375 31.390625 
Q 8.59375 42.28125 12.203125 53.3125 
Q 15.828125 64.359375 23.1875 75.875 
z
" id="DejaVuSans-40"/>
       <path d="M 56.203125 29.59375 
L 56.203125 25.203125 
L 14.890625 25.203125 
Q 15.484375 15.921875 20.484375 11.0625 
Q 25.484375 6.203125 34.421875 6.203125 
Q 39.59375 6.203125 44.453125 7.46875 
Q 49.3125 8.734375 54.109375 11.28125 
L 54.109375 2.78125 
Q 49.265625 0.734375 44.1875 -0.34375 
Q 39.109375 -1.421875 33.890625 -1.421875 
Q 20.796875 -1.421875 13.15625 6.1875 
Q 5.515625 13.8125 5.515625 26.8125 
Q 5.515625 40.234375 12.765625 48.109375 
Q 20.015625 56 32.328125 56 
Q 43.359375 56 49.78125 48.890625 
Q 56.203125 41.796875 56.203125 29.59375 
z
M 47.21875 32.234375 
Q 47.125 39.59375 43.09375 43.984375 
Q 39.0625 48.390625 32.421875 48.390625 
Q 24.90625 48.390625 20.390625 44.140625 
Q 15.875 39.890625 15.1875 32.171875 
z
" id="DejaVuSans-101"/>
       <path d="M 2.984375 54.6875 
L 12.5 54.6875 
L 29.59375 8.796875 
L 46.6875 54.6875 
L 56.203125 54.6875 
L 35.6875 0 
L 23.484375 0 
z
" id="DejaVuSans-118"/>
       <path d="M 34.28125 27.484375 
Q 23.390625 27.484375 19.1875 25 
Q 14.984375 22.515625 14.984375 16.5 
Q 14.984375 11.71875 18.140625 8.90625 
Q 21.296875 6.109375 26.703125 6.109375 
Q 34.1875 6.109375 38.703125 11.40625 
Q 43.21875 16.703125 43.21875 25.484375 
L 43.21875 27.484375 
z
M 52.203125 31.203125 
L 52.203125 0 
L 43.21875 0 
L 43.21875 8.296875 
Q 40.140625 3.328125 35.546875 0.953125 
Q 30.953125 -1.421875 24.3125 -1.421875 
Q 15.921875 -1.421875 10.953125 3.296875 
Q 6 8.015625 6 15.921875 
Q 6 25.140625 12.171875 29.828125 
Q 18.359375 34.515625 30.609375 34.515625 
L 43.21875 34.515625 
L 43.21875 35.40625 
Q 43.21875 41.609375 39.140625 45 
Q 35.0625 48.390625 27.6875 48.390625 
Q 23 48.390625 18.546875 47.265625 
Q 14.109375 46.140625 10.015625 43.890625 
L 10.015625 52.203125 
Q 14.9375 54.109375 19.578125 55.046875 
Q 24.21875 56 28.609375 56 
Q 40.484375 56 46.34375 49.84375 
Q 52.203125 43.703125 52.203125 31.203125 
z
" id="DejaVuSans-97"/>
       <path d="M 44.28125 53.078125 
L 44.28125 44.578125 
Q 40.484375 46.53125 36.375 47.5 
Q 32.28125 48.484375 27.875 48.484375 
Q 21.1875 48.484375 17.84375 46.4375 
Q 14.5 44.390625 14.5 40.28125 
Q 14.5 37.15625 16.890625 35.375 
Q 19.28125 33.59375 26.515625 31.984375 
L 29.59375 31.296875 
Q 39.15625 29.25 43.1875 25.515625 
Q 47.21875 21.78125 47.21875 15.09375 
Q 47.21875 7.46875 41.1875 3.015625 
Q 35.15625 -1.421875 24.609375 -1.421875 
Q 20.21875 -1.421875 15.453125 -0.5625 
Q 10.6875 0.296875 5.421875 2 
L 5.421875 11.28125 
Q 10.40625 8.6875 15.234375 7.390625 
Q 20.0625 6.109375 24.8125 6.109375 
Q 31.15625 6.109375 34.5625 8.28125 
Q 37.984375 10.453125 37.984375 14.40625 
Q 37.984375 18.0625 35.515625 20.015625 
Q 33.0625 21.96875 24.703125 23.78125 
L 21.578125 24.515625 
Q 13.234375 26.265625 9.515625 29.90625 
Q 5.8125 33.546875 5.8125 39.890625 
Q 5.8125 47.609375 11.28125 51.796875 
Q 16.75 56 26.8125 56 
Q 31.78125 56 36.171875 55.265625 
Q 40.578125 54.546875 44.28125 53.078125 
z
" id="DejaVuSans-115"/>
       <path id="DejaVuSans-32"/>
       <path d="M 25.390625 72.90625 
L 33.6875 72.90625 
L 8.296875 -9.28125 
L 0 -9.28125 
z
" id="DejaVuSans-47"/>
       <path d="M 45.40625 46.390625 
L 45.40625 75.984375 
L 54.390625 75.984375 
L 54.390625 0 
L 45.40625 0 
L 45.40625 8.203125 
Q 42.578125 3.328125 38.25 0.953125 
Q 33.9375 -1.421875 27.875 -1.421875 
Q 17.96875 -1.421875 11.734375 6.484375 
Q 5.515625 14.40625 5.515625 27.296875 
Q 5.515625 40.1875 11.734375 48.09375 
Q 17.96875 56 27.875 56 
Q 33.9375 56 38.25 53.625 
Q 42.578125 51.265625 45.40625 46.390625 
z
M 14.796875 27.296875 
Q 14.796875 17.390625 18.875 11.75 
Q 22.953125 6.109375 30.078125 6.109375 
Q 37.203125 6.109375 41.296875 11.75 
Q 45.40625 17.390625 45.40625 27.296875 
Q 45.40625 37.203125 41.296875 42.84375 
Q 37.203125 48.484375 30.078125 48.484375 
Q 22.953125 48.484375 18.875 42.84375 
Q 14.796875 37.203125 14.796875 27.296875 
z
" id="DejaVuSans-100"/>
       <path d="M 9.421875 54.6875 
L 18.40625 54.6875 
L 18.40625 0 
L 9.421875 0 
z
M 9.421875 75.984375 
L 18.40625 75.984375 
L 18.40625 64.59375 
L 9.421875 64.59375 
z
" id="DejaVuSans-105"/>
       <path d="M 52 44.1875 
Q 55.375 50.25 60.0625 53.125 
Q 64.75 56 71.09375 56 
Q 79.640625 56 84.28125 50.015625 
Q 88.921875 44.046875 88.921875 33.015625 
L 88.921875 0 
L 79.890625 0 
L 79.890625 32.71875 
Q 79.890625 40.578125 77.09375 44.375 
Q 74.3125 48.1875 68.609375 48.1875 
Q 61.625 48.1875 57.5625 43.546875 
Q 53.515625 38.921875 53.515625 30.90625 
L 53.515625 0 
L 44.484375 0 
L 44.484375 32.71875 
Q 44.484375 40.625 41.703125 44.40625 
Q 38.921875 48.1875 33.109375 48.1875 
Q 26.21875 48.1875 22.15625 43.53125 
Q 18.109375 38.875 18.109375 30.90625 
L 18.109375 0 
L 9.078125 0 
L 9.078125 54.6875 
L 18.109375 54.6875 
L 18.109375 46.1875 
Q 21.1875 51.21875 25.484375 53.609375 
Q 29.78125 56 35.6875 56 
Q 41.65625 56 45.828125 52.96875 
Q 50 49.953125 52 44.1875 
z
" id="DejaVuSans-109"/>
       <path d="M 54.890625 33.015625 
L 54.890625 0 
L 45.90625 0 
L 45.90625 32.71875 
Q 45.90625 40.484375 42.875 44.328125 
Q 39.84375 48.1875 33.796875 48.1875 
Q 26.515625 48.1875 22.3125 43.546875 
Q 18.109375 38.921875 18.109375 30.90625 
L 18.109375 0 
L 9.078125 0 
L 9.078125 54.6875 
L 18.109375 54.6875 
L 18.109375 46.1875 
Q 21.34375 51.125 25.703125 53.5625 
Q 30.078125 56 35.796875 56 
Q 45.21875 56 50.046875 50.171875 
Q 54.890625 44.34375 54.890625 33.015625 
z
" id="DejaVuSans-110"/>
       <path d="M 8.015625 75.875 
L 15.828125 75.875 
Q 23.140625 64.359375 26.78125 53.3125 
Q 30.421875 42.28125 30.421875 31.390625 
Q 30.421875 20.453125 26.78125 9.375 
Q 23.140625 -1.703125 15.828125 -13.1875 
L 8.015625 -13.1875 
Q 14.5 -2 17.703125 9.0625 
Q 20.90625 20.125 20.90625 31.390625 
Q 20.90625 42.671875 17.703125 53.65625 
Q 14.5 64.65625 8.015625 75.875 
z
" id="DejaVuSans-41"/>
      </defs>
      <use xlink:href="#DejaVuSans-108"/>
      <use x="27.783203" xlink:href="#DejaVuSans-111"/>
      <use x="88.964844" xlink:href="#DejaVuSans-103"/>
      <use x="152.441406" xlink:href="#DejaVuSans-49"/>
      <use x="216.064453" xlink:href="#DejaVuSans-48"/>
      <use x="279.6875" xlink:href="#DejaVuSans-40"/>
      <use x="318.701172" xlink:href="#DejaVuSans-101"/>
      <use x="380.224609" xlink:href="#DejaVuSans-118"/>
      <use x="439.404297" xlink:href="#DejaVuSans-97"/>
      <use x="500.683594" xlink:href="#DejaVuSans-108"/>
      <use x="528.466797" xlink:href="#DejaVuSans-115"/>
      <use x="580.566406" xlink:href="#DejaVuSans-32"/>
      <use x="612.353516" xlink:href="#DejaVuSans-47"/>
      <use x="646.044922" xlink:href="#DejaVuSans-32"/>
      <use x="677.832031" xlink:href="#DejaVuSans-100"/>
      <use x="741.308594" xlink:href="#DejaVuSans-105"/>
      <use x="769.091797" xlink:href="#DejaVuSans-109"/>
      <use x="866.503906" xlink:href="#DejaVuSans-101"/>
      <use x="928.027344" xlink:href="#DejaVuSans-110"/>
      <use x="991.40625" xlink:href="#DejaVuSans-115"/>
      <use x="1043.505859" xlink:href="#DejaVuSans-105"/>
      <use x="1071.289062" xlink:href="#DejaVuSans-111"/>
      <use x="1132.470703" xlink:href="#DejaVuSans-110"/>
      <use x="1195.849609" xlink:href="#DejaVuSans-41"/>
     </g>
    </g>
   </g>
   <g id="matplotlib.axis_2">
    <g id="ytick_1">
     <g id="line2d_17">
      <path clip-path="url(#p52d9e771d4)" d="M 57.6 298.944 
L 360.8064 298.944 
" style="fill:none;stroke:#b0b0b0;stroke-linecap:square;stroke-width:0.8;"/>
     </g>
     <g id="line2d_18">
      <defs>
       <path d="M 0 0 
L -3.5 0 
" id="m7c11ca47d2" style="stroke:#000000;stroke-width:0.8;"/>
      </defs>
      <g>
       <use style="stroke:#000000;stroke-width:0.8;" x="57.6" xlink:href="#m7c11ca47d2" y="298.944"/>
      </g>
     </g>
     <g id="text_6">
      <!-- 0.0 -->
      <g transform="translate(25.155 305.02275)scale(0.16 -0.16)">
       <defs>
        <path d="M 10.6875 12.40625 
L 21 12.40625 
L 21 0 
L 10.6875 0 
z
" id="DejaVuSans-46"/>
       </defs>
       <use xlink:href="#DejaVuSans-48"/>
       <use x="63.623047" xlink:href="#DejaVuSans-46"/>
       <use x="95.410156" xlink:href="#DejaVuSans-48"/>
      </g>
     </g>
    </g>
    <g id="ytick_2">
     <g id="line2d_19">
      <path clip-path="url(#p52d9e771d4)" d="M 57.6 244.6848 
L 360.8064 244.6848 
" style="fill:none;stroke:#b0b0b0;stroke-linecap:square;stroke-width:0.8;"/>
     </g>
     <g id="line2d_20">
      <g>
       <use style="stroke:#000000;stroke-width:0.8;" x="57.6" xlink:href="#m7c11ca47d2" y="244.6848"/>
      </g>
     </g>
     <g id="text_7">
      <!-- 0.2 -->
      <g transform="translate(25.155 250.76355)scale(0.16 -0.16)">
       <use xlink:href="#DejaVuSans-48"/>
       <use x="63.623047" xlink:href="#DejaVuSans-46"/>
       <use x="95.410156" xlink:href="#DejaVuSans-50"/>
      </g>
     </g>
    </g>
    <g id="ytick_3">
     <g id="line2d_21">
      <path clip-path="url(#p52d9e771d4)" d="M 57.6 190.4256 
L 360.8064 190.4256 
" style="fill:none;stroke:#b0b0b0;stroke-linecap:square;stroke-width:0.8;"/>
     </g>
     <g id="line2d_22">
      <g>
       <use style="stroke:#000000;stroke-width:0.8;" x="57.6" xlink:href="#m7c11ca47d2" y="190.4256"/>
      </g>
     </g>
     <g id="text_8">
      <!-- 0.4 -->
      <g transform="translate(25.155 196.50435)scale(0.16 -0.16)">
       <use xlink:href="#DejaVuSans-48"/>
       <use x="63.623047" xlink:href="#DejaVuSans-46"/>
       <use x="95.410156" xlink:href="#DejaVuSans-52"/>
      </g>
     </g>
    </g>
    <g id="ytick_4">
     <g id="line2d_23">
      <path clip-path="url(#p52d9e771d4)" d="M 57.6 136.1664 
L 360.8064 136.1664 
" style="fill:none;stroke:#b0b0b0;stroke-linecap:square;stroke-width:0.8;"/>
     </g>
     <g id="line2d_24">
      <g>
       <use style="stroke:#000000;stroke-width:0.8;" x="57.6" xlink:href="#m7c11ca47d2" y="136.1664"/>
      </g>
     </g>
     <g id="text_9">
      <!-- 0.6 -->
      <g transform="translate(25.155 142.24515)scale(0.16 -0.16)">
       <use xlink:href="#DejaVuSans-48"/>
       <use x="63.623047" xlink:href="#DejaVuSans-46"/>
       <use x="95.410156" xlink:href="#DejaVuSans-54"/>
      </g>
     </g>
    </g>
    <g id="ytick_5">
     <g id="line2d_25">
      <path clip-path="url(#p52d9e771d4)" d="M 57.6 81.9072 
L 360.8064 81.9072 
" style="fill:none;stroke:#b0b0b0;stroke-linecap:square;stroke-width:0.8;"/>
     </g>
     <g id="line2d_26">
      <g>
       <use style="stroke:#000000;stroke-width:0.8;" x="57.6" xlink:href="#m7c11ca47d2" y="81.9072"/>
      </g>
     </g>
     <g id="text_10">
      <!-- 0.8 -->
      <g transform="translate(25.155 87.98595)scale(0.16 -0.16)">
       <defs>
        <path d="M 31.78125 34.625 
Q 24.75 34.625 20.71875 30.859375 
Q 16.703125 27.09375 16.703125 20.515625 
Q 16.703125 13.921875 20.71875 10.15625 
Q 24.75 6.390625 31.78125 6.390625 
Q 38.8125 6.390625 42.859375 10.171875 
Q 46.921875 13.96875 46.921875 20.515625 
Q 46.921875 27.09375 42.890625 30.859375 
Q 38.875 34.625 31.78125 34.625 
z
M 21.921875 38.8125 
Q 15.578125 40.375 12.03125 44.71875 
Q 8.5 49.078125 8.5 55.328125 
Q 8.5 64.0625 14.71875 69.140625 
Q 20.953125 74.21875 31.78125 74.21875 
Q 42.671875 74.21875 48.875 69.140625 
Q 55.078125 64.0625 55.078125 55.328125 
Q 55.078125 49.078125 51.53125 44.71875 
Q 48 40.375 41.703125 38.8125 
Q 48.828125 37.15625 52.796875 32.3125 
Q 56.78125 27.484375 56.78125 20.515625 
Q 56.78125 9.90625 50.3125 4.234375 
Q 43.84375 -1.421875 31.78125 -1.421875 
Q 19.734375 -1.421875 13.25 4.234375 
Q 6.78125 9.90625 6.78125 20.515625 
Q 6.78125 27.484375 10.78125 32.3125 
Q 14.796875 37.15625 21.921875 38.8125 
z
M 18.3125 54.390625 
Q 18.3125 48.734375 21.84375 45.5625 
Q 25.390625 42.390625 31.78125 42.390625 
Q 38.140625 42.390625 41.71875 45.5625 
Q 45.3125 48.734375 45.3125 54.390625 
Q 45.3125 60.0625 41.71875 63.234375 
Q 38.140625 66.40625 31.78125 66.40625 
Q 25.390625 66.40625 21.84375 63.234375 
Q 18.3125 60.0625 18.3125 54.390625 
z
" id="DejaVuSans-56"/>
       </defs>
       <use xlink:href="#DejaVuSans-48"/>
       <use x="63.623047" xlink:href="#DejaVuSans-46"/>
       <use x="95.410156" xlink:href="#DejaVuSans-56"/>
      </g>
     </g>
    </g>
    <g id="ytick_6">
     <g id="line2d_27">
      <path clip-path="url(#p52d9e771d4)" d="M 57.6 27.648 
L 360.8064 27.648 
" style="fill:none;stroke:#b0b0b0;stroke-linecap:square;stroke-width:0.8;"/>
     </g>
     <g id="line2d_28">
      <g>
       <use style="stroke:#000000;stroke-width:0.8;" x="57.6" xlink:href="#m7c11ca47d2" y="27.648"/>
      </g>
     </g>
     <g id="text_11">
      <!-- 1.0 -->
      <g transform="translate(25.155 33.72675)scale(0.16 -0.16)">
       <use xlink:href="#DejaVuSans-49"/>
       <use x="63.623047" xlink:href="#DejaVuSans-46"/>
       <use x="95.410156" xlink:href="#DejaVuSans-48"/>
      </g>
     </g>
    </g>
    <g id="text_12">
     <!-- Fraction of function,target pairs -->
     <g transform="translate(17.619531 297.681)rotate(-90)scale(0.17 -0.17)">
      <defs>
       <path d="M 9.8125 72.90625 
L 51.703125 72.90625 
L 51.703125 64.59375 
L 19.671875 64.59375 
L 19.671875 43.109375 
L 48.578125 43.109375 
L 48.578125 34.8125 
L 19.671875 34.8125 
L 19.671875 0 
L 9.8125 0 
z
" id="DejaVuSans-70"/>
       <path d="M 41.109375 46.296875 
Q 39.59375 47.171875 37.8125 47.578125 
Q 36.03125 48 33.890625 48 
Q 26.265625 48 22.1875 43.046875 
Q 18.109375 38.09375 18.109375 28.8125 
L 18.109375 0 
L 9.078125 0 
L 9.078125 54.6875 
L 18.109375 54.6875 
L 18.109375 46.1875 
Q 20.953125 51.171875 25.484375 53.578125 
Q 30.03125 56 36.53125 56 
Q 37.453125 56 38.578125 55.875 
Q 39.703125 55.765625 41.0625 55.515625 
z
" id="DejaVuSans-114"/>
       <path d="M 48.78125 52.59375 
L 48.78125 44.1875 
Q 44.96875 46.296875 41.140625 47.34375 
Q 37.3125 48.390625 33.40625 48.390625 
Q 24.65625 48.390625 19.8125 42.84375 
Q 14.984375 37.3125 14.984375 27.296875 
Q 14.984375 17.28125 19.8125 11.734375 
Q 24.65625 6.203125 33.40625 6.203125 
Q 37.3125 6.203125 41.140625 7.25 
Q 44.96875 8.296875 48.78125 10.40625 
L 48.78125 2.09375 
Q 45.015625 0.34375 40.984375 -0.53125 
Q 36.96875 -1.421875 32.421875 -1.421875 
Q 20.0625 -1.421875 12.78125 6.34375 
Q 5.515625 14.109375 5.515625 27.296875 
Q 5.515625 40.671875 12.859375 48.328125 
Q 20.21875 56 33.015625 56 
Q 37.15625 56 41.109375 55.140625 
Q 45.0625 54.296875 48.78125 52.59375 
z
" id="DejaVuSans-99"/>
       <path d="M 18.3125 70.21875 
L 18.3125 54.6875 
L 36.8125 54.6875 
L 36.8125 47.703125 
L 18.3125 47.703125 
L 18.3125 18.015625 
Q 18.3125 11.328125 20.140625 9.421875 
Q 21.96875 7.515625 27.59375 7.515625 
L 36.8125 7.515625 
L 36.8125 0 
L 27.59375 0 
Q 17.1875 0 13.234375 3.875 
Q 9.28125 7.765625 9.28125 18.015625 
L 9.28125 47.703125 
L 2.6875 47.703125 
L 2.6875 54.6875 
L 9.28125 54.6875 
L 9.28125 70.21875 
z
" id="DejaVuSans-116"/>
       <path d="M 37.109375 75.984375 
L 37.109375 68.5 
L 28.515625 68.5 
Q 23.6875 68.5 21.796875 66.546875 
Q 19.921875 64.59375 19.921875 59.515625 
L 19.921875 54.6875 
L 34.71875 54.6875 
L 34.71875 47.703125 
L 19.921875 47.703125 
L 19.921875 0 
L 10.890625 0 
L 10.890625 47.703125 
L 2.296875 47.703125 
L 2.296875 54.6875 
L 10.890625 54.6875 
L 10.890625 58.5 
Q 10.890625 67.625 15.140625 71.796875 
Q 19.390625 75.984375 28.609375 75.984375 
z
" id="DejaVuSans-102"/>
       <path d="M 8.5 21.578125 
L 8.5 54.6875 
L 17.484375 54.6875 
L 17.484375 21.921875 
Q 17.484375 14.15625 20.5 10.265625 
Q 23.53125 6.390625 29.59375 6.390625 
Q 36.859375 6.390625 41.078125 11.03125 
Q 45.3125 15.671875 45.3125 23.6875 
L 45.3125 54.6875 
L 54.296875 54.6875 
L 54.296875 0 
L 45.3125 0 
L 45.3125 8.40625 
Q 42.046875 3.421875 37.71875 1 
Q 33.40625 -1.421875 27.6875 -1.421875 
Q 18.265625 -1.421875 13.375 4.4375 
Q 8.5 10.296875 8.5 21.578125 
z
M 31.109375 56 
z
" id="DejaVuSans-117"/>
       <path d="M 11.71875 12.40625 
L 22.015625 12.40625 
L 22.015625 4 
L 14.015625 -11.625 
L 7.71875 -11.625 
L 11.71875 4 
z
" id="DejaVuSans-44"/>
       <path d="M 18.109375 8.203125 
L 18.109375 -20.796875 
L 9.078125 -20.796875 
L 9.078125 54.6875 
L 18.109375 54.6875 
L 18.109375 46.390625 
Q 20.953125 51.265625 25.265625 53.625 
Q 29.59375 56 35.59375 56 
Q 45.5625 56 51.78125 48.09375 
Q 58.015625 40.1875 58.015625 27.296875 
Q 58.015625 14.40625 51.78125 6.484375 
Q 45.5625 -1.421875 35.59375 -1.421875 
Q 29.59375 -1.421875 25.265625 0.953125 
Q 20.953125 3.328125 18.109375 8.203125 
z
M 48.6875 27.296875 
Q 48.6875 37.203125 44.609375 42.84375 
Q 40.53125 48.484375 33.40625 48.484375 
Q 26.265625 48.484375 22.1875 42.84375 
Q 18.109375 37.203125 18.109375 27.296875 
Q 18.109375 17.390625 22.1875 11.75 
Q 26.265625 6.109375 33.40625 6.109375 
Q 40.53125 6.109375 44.609375 11.75 
Q 48.6875 17.390625 48.6875 27.296875 
z
" id="DejaVuSans-112"/>
      </defs>
      <use xlink:href="#DejaVuSans-70"/>
      <use x="50.269531" xlink:href="#DejaVuSans-114"/>
      <use x="91.382812" xlink:href="#DejaVuSans-97"/>
      <use x="152.662109" xlink:href="#DejaVuSans-99"/>
      <use x="207.642578" xlink:href="#DejaVuSans-116"/>
      <use x="246.851562" xlink:href="#DejaVuSans-105"/>
      <use x="274.634766" xlink:href="#DejaVuSans-111"/>
      <use x="335.816406" xlink:href="#DejaVuSans-110"/>
      <use x="399.195312" xlink:href="#DejaVuSans-32"/>
      <use x="430.982422" xlink:href="#DejaVuSans-111"/>
      <use x="492.164062" xlink:href="#DejaVuSans-102"/>
      <use x="527.369141" xlink:href="#DejaVuSans-32"/>
      <use x="559.15625" xlink:href="#DejaVuSans-102"/>
      <use x="594.361328" xlink:href="#DejaVuSans-117"/>
      <use x="657.740234" xlink:href="#DejaVuSans-110"/>
      <use x="721.119141" xlink:href="#DejaVuSans-99"/>
      <use x="776.099609" xlink:href="#DejaVuSans-116"/>
      <use x="815.308594" xlink:href="#DejaVuSans-105"/>
      <use x="843.091797" xlink:href="#DejaVuSans-111"/>
      <use x="904.273438" xlink:href="#DejaVuSans-110"/>
      <use x="967.652344" xlink:href="#DejaVuSans-44"/>
      <use x="999.439453" xlink:href="#DejaVuSans-116"/>
      <use x="1038.648438" xlink:href="#DejaVuSans-97"/>
      <use x="1099.927734" xlink:href="#DejaVuSans-114"/>
      <use x="1139.291016" xlink:href="#DejaVuSans-103"/>
      <use x="1202.767578" xlink:href="#DejaVuSans-101"/>
      <use x="1264.291016" xlink:href="#DejaVuSans-116"/>
      <use x="1303.5" xlink:href="#DejaVuSans-32"/>
      <use x="1335.287109" xlink:href="#DejaVuSans-112"/>
      <use x="1398.763672" xlink:href="#DejaVuSans-97"/>
      <use x="1460.042969" xlink:href="#DejaVuSans-105"/>
      <use x="1487.826172" xlink:href="#DejaVuSans-114"/>
      <use x="1528.939453" xlink:href="#DejaVuSans-115"/>
     </g>
    </g>
   </g>
   <g id="line2d_29">
    <defs>
     <path d="M 0 1.5 
C 0.397805 1.5 0.77937 1.341951 1.06066 1.06066 
C 1.341951 0.77937 1.5 0.397805 1.5 0 
C 1.5 -0.397805 1.341951 -0.77937 1.06066 -1.06066 
C 0.77937 -1.341951 0.397805 -1.5 0 -1.5 
C -0.397805 -1.5 -0.77937 -1.341951 -1.06066 -1.06066 
C -1.341951 -0.77937 -1.5 -0.397805 -1.5 0 
C -1.5 0.397805 -1.341951 0.77937 -1.06066 1.06066 
C -0.77937 1.341951 -0.397805 1.5 0 1.5 
z
" id="m7382c94f45" style="stroke:#00bfbf;"/>
    </defs>
    <g>
     <use style="fill:#00bfbf;stroke:#00bfbf;" x="188.165461" xlink:href="#m7382c94f45" y="27.648"/>
     <use style="fill:#00bfbf;stroke:#00bfbf;" x="188.165461" xlink:href="#m7382c94f45" y="27.648"/>
    </g>
   </g>
   <g id="line2d_30">
    <path d="M 89.668958 298.944 
L 89.668958 296.738341 
L 98.933205 296.738341 
L 98.933205 283.945522 
L 100.9152 283.945522 
L 100.9152 282.622127 
L 105.112877 282.622127 
L 105.112877 264.976859 
L 106.560633 264.976859 
L 106.560633 262.7712 
L 109.756698 262.7712 
L 109.756698 250.860644 
L 110.897141 250.860644 
L 110.897141 245.567063 
L 113.478107 245.567063 
L 113.478107 233.656507 
L 114.418881 233.656507 
L 114.418881 225.716137 
L 116.583514 225.716137 
L 116.583514 215.570107 
L 117.384126 215.570107 
L 117.384126 210.276527 
L 119.24818 210.276527 
L 119.24818 196.160312 
L 119.944983 196.160312 
L 119.944983 189.543337 
L 120.616896 189.543337 
L 120.616896 184.690888 
L 120.944062 184.690888 
L 120.944062 184.249756 
L 121.581803 184.249756 
L 121.581803 175.427122 
L 122.19863 175.427122 
L 122.19863 158.222985 
L 122.795872 158.222985 
L 122.795872 156.89959 
L 123.657621 156.89959 
L 123.657621 149.841483 
L 124.210942 149.841483 
L 124.210942 135.725268 
L 124.748451 135.725268 
L 124.748451 134.401873 
L 125.526971 134.401873 
L 125.526971 120.72679 
L 126.028642 120.72679 
L 126.028642 115.874341 
L 126.517282 115.874341 
L 126.517282 111.463024 
L 127.227236 111.463024 
L 127.227236 96.464546 
L 127.458055 96.464546 
L 127.458055 95.141151 
L 128.133992 95.141151 
L 128.133992 78.819278 
L 128.57149 78.819278 
L 128.57149 78.378146 
L 128.999044 78.378146 
L 128.999044 77.054751 
L 129.209231 77.054751 
L 129.209231 67.349854 
L 130.226319 67.349854 
L 130.226319 62.056273 
L 130.618241 62.056273 
L 130.618241 61.17401 
L 130.811181 61.17401 
L 130.811181 58.968351 
L 131.002163 58.968351 
L 131.002163 57.203824 
L 131.929028 57.203824 
L 131.929028 55.880429 
L 132.287354 55.880429 
L 132.287354 52.792507 
L 132.638982 52.792507 
L 132.638982 52.351376 
L 135.687504 52.351376 
L 135.687504 51.910244 
L 135.835047 51.910244 
L 135.835047 50.145717 
L 136.270855 50.145717 
L 136.270855 48.822322 
L 136.836659 48.822322 
L 136.836659 46.616663 
L 137.787626 46.616663 
L 137.787626 45.7344 
L 138.050729 45.7344 
L 138.050729 45.293268 
L 138.692823 45.293268 
L 138.692823 40.44082 
L 139.191172 40.44082 
L 139.191172 39.999688 
L 139.676658 39.999688 
L 139.676658 37.794029 
L 140.26641 37.794029 
L 140.26641 33.823844 
L 147.423525 33.823844 
L 147.423525 32.94158 
L 148.503173 32.94158 
L 148.503173 31.618185 
L 150.760445 31.618185 
L 150.760445 31.177054 
L 154.432362 31.177054 
L 154.432362 30.29479 
L 167.877265 30.29479 
L 167.877265 29.853659 
L 169.144777 29.853659 
L 169.144777 29.412527 
L 169.319074 29.412527 
L 169.319074 28.971395 
L 179.643407 28.971395 
L 179.643407 28.530263 
L 188.165461 28.530263 
L 188.165461 27.648 
L 360.8064 27.648 
" style="fill:none;stroke:#00bfbf;stroke-linecap:square;stroke-width:1.5;"/>
   </g>
   <g id="line2d_31">
    <defs>
     <path d="M -6 0 
L 6 0 
M 0 6 
L 0 -6 
" id="mefd3e340f8" style="stroke:#00bfbf;stroke-width:1.5;"/>
    </defs>
    <g>
     <use style="fill-opacity:0;stroke:#00bfbf;stroke-width:1.5;" x="124.210942" xlink:href="#mefd3e340f8" y="149.841483"/>
     <use style="fill-opacity:0;stroke:#00bfbf;stroke-width:1.5;" x="167.877265" xlink:href="#mefd3e340f8" y="29.853659"/>
     <use style="fill-opacity:0;stroke:#00bfbf;stroke-width:1.5;" x="188.165461" xlink:href="#mefd3e340f8" y="27.648"/>
     <use style="fill-opacity:0;stroke:#00bfbf;stroke-width:1.5;" x="188.165461" xlink:href="#mefd3e340f8" y="27.648"/>
     <use style="fill-opacity:0;stroke:#00bfbf;stroke-width:1.5;" x="360.8064" xlink:href="#mefd3e340f8" y="27.648"/>
    </g>
   </g>
   <g id="line2d_32">
    <path style="fill:none;stroke:#00bfbf;stroke-linecap:square;stroke-width:1.5;"/>
    <g/>
   </g>
   <g id="line2d_33">
    <defs>
     <path d="M 0 1.5 
C 0.397805 1.5 0.77937 1.341951 1.06066 1.06066 
C 1.341951 0.77937 1.5 0.397805 1.5 0 
C 1.5 -0.397805 1.341951 -0.77937 1.06066 -1.06066 
C 0.77937 -1.341951 0.397805 -1.5 0 -1.5 
C -0.397805 -1.5 -0.77937 -1.341951 -1.06066 -1.06066 
C -1.341951 -0.77937 -1.5 -0.397805 -1.5 0 
C -1.5 0.397805 -1.341951 0.77937 -1.06066 1.06066 
C -0.77937 1.341951 -0.397805 1.5 0 1.5 
z
" id="m82a7afcef1" style="stroke:#008000;"/>
    </defs>
    <g>
     <use style="fill:#008000;stroke:#008000;" x="183.674278" xlink:href="#m82a7afcef1" y="27.648"/>
     <use style="fill:#008000;stroke:#008000;" x="183.674278" xlink:href="#m82a7afcef1" y="27.648"/>
    </g>
   </g>
   <g id="line2d_34">
    <path d="M 85.184077 298.944 
L 85.184077 296.29721 
L 95.080704 296.29721 
L 95.080704 283.063259 
L 96.717523 283.063259 
L 96.717523 282.622127 
L 101.532027 282.622127 
L 101.532027 276.005151 
L 102.708132 276.005151 
L 102.708132 274.240624 
L 103.815014 274.240624 
L 103.815014 272.917229 
L 106.326946 272.917229 
L 106.326946 248.213854 
L 107.244765 248.213854 
L 107.244765 247.33159 
L 110.144579 247.33159 
L 110.144579 228.362927 
L 110.897141 228.362927 
L 110.897141 226.5984 
L 111.620752 226.5984 
L 111.620752 222.187083 
L 113.316634 222.187083 
L 113.316634 206.747473 
L 113.954374 206.747473 
L 113.954374 203.659551 
L 116.030193 203.659551 
L 116.030193 197.924839 
L 116.583514 197.924839 
L 116.583514 184.249756 
L 117.6436 184.249756 
L 117.6436 183.808624 
L 118.401214 183.808624 
L 118.401214 160.869776 
L 118.889854 160.869776 
L 118.889854 157.781854 
L 119.366121 157.781854 
L 119.366121 156.017327 
L 120.506564 156.017327 
L 120.506564 154.2528 
L 120.944062 154.2528 
L 120.944062 146.312429 
L 121.371615 146.312429 
L 121.371615 145.430166 
L 121.789667 145.430166 
L 121.789667 140.577717 
L 122.399825 140.577717 
L 122.399825 137.048663 
L 122.795872 137.048663 
L 122.795872 129.549424 
L 123.183753 129.549424 
L 123.183753 120.285659 
L 123.563797 120.285659 
L 123.563797 116.315473 
L 124.119844 116.315473 
L 124.119844 110.580761 
L 124.481616 110.580761 
L 124.481616 105.728312 
L 124.836562 105.728312 
L 124.836562 102.199259 
L 125.695686 102.199259 
L 125.695686 96.905678 
L 126.355808 96.905678 
L 126.355808 89.406439 
L 126.677381 89.406439 
L 126.677381 88.524176 
L 126.993549 88.524176 
L 126.993549 84.55399 
L 127.761474 84.55399 
L 127.761474 83.230595 
L 128.060076 83.230595 
L 128.060076 82.348332 
L 128.354013 82.348332 
L 128.354013 80.142673 
L 129.348062 80.142673 
L 129.348062 76.61362 
L 129.893363 76.61362 
L 129.893363 75.290224 
L 130.553485 75.290224 
L 130.553485 70.437776 
L 130.811181 70.437776 
L 130.811181 69.11438 
L 131.065395 69.11438 
L 131.065395 65.585327 
L 131.31622 65.585327 
L 131.31622 65.144195 
L 131.563744 65.144195 
L 131.563744 63.379668 
L 132.168669 63.379668 
L 132.168669 62.938537 
L 132.405295 62.938537 
L 132.405295 62.056273 
L 132.984158 62.056273 
L 132.984158 56.762693 
L 133.210806 56.762693 
L 133.210806 55.880429 
L 133.656071 55.880429 
L 133.656071 55.439298 
L 133.874812 55.439298 
L 133.983236 54.557034 
L 135.136394 54.557034 
L 135.136394 54.115902 
L 136.413909 54.115902 
L 136.413909 51.02798 
L 137.610157 51.02798 
L 137.610157 50.586849 
L 143.397043 50.586849 
L 143.397043 49.263454 
L 143.977892 49.263454 
L 143.977892 47.498927 
L 144.417581 47.498927 
L 144.417581 45.7344 
L 144.664294 45.7344 
L 144.664294 45.293268 
L 144.968202 45.293268 
L 144.968202 43.08761 
L 145.326529 43.08761 
L 145.326529 40.881951 
L 145.966241 40.881951 
L 145.966241 40.44082 
L 147.971093 40.44082 
L 148.022421 39.117424 
L 157.549652 39.117424 
L 157.549652 38.676293 
L 157.703468 38.676293 
L 157.703468 38.235161 
L 160.409709 38.235161 
L 160.409709 36.470634 
L 172.229507 36.470634 
L 172.328329 33.382712 
L 174.151958 33.382712 
L 174.151958 32.059317 
L 180.263006 32.059317 
L 180.263006 30.29479 
L 181.085154 30.29479 
L 181.085154 29.853659 
L 183.674278 29.853659 
L 183.674278 27.648 
L 360.8064 27.648 
L 360.8064 27.648 
" style="fill:none;stroke:#008000;stroke-linecap:square;stroke-width:1.5;"/>
   </g>
   <g id="line2d_35">
    <defs>
     <path d="M -0 6 
L 6 -6 
L -6 -6 
z
" id="me90a5cf97b" style="stroke:#008000;stroke-linejoin:miter;stroke-width:1.5;"/>
    </defs>
    <g>
     <use style="fill-opacity:0;stroke:#008000;stroke-linejoin:miter;stroke-width:1.5;" x="122.795872" xlink:href="#me90a5cf97b" y="129.549424"/>
     <use style="fill-opacity:0;stroke:#008000;stroke-linejoin:miter;stroke-width:1.5;" x="183.674278" xlink:href="#me90a5cf97b" y="29.853659"/>
     <use style="fill-opacity:0;stroke:#008000;stroke-linejoin:miter;stroke-width:1.5;" x="183.674278" xlink:href="#me90a5cf97b" y="27.648"/>
     <use style="fill-opacity:0;stroke:#008000;stroke-linejoin:miter;stroke-width:1.5;" x="183.674278" xlink:href="#me90a5cf97b" y="27.648"/>
     <use style="fill-opacity:0;stroke:#008000;stroke-linejoin:miter;stroke-width:1.5;" x="360.8064" xlink:href="#me90a5cf97b" y="27.648"/>
    </g>
   </g>
   <g id="line2d_36">
    <path style="fill:none;stroke:#008000;stroke-linecap:square;stroke-width:1.5;"/>
    <g/>
   </g>
   <g id="line2d_37">
    <defs>
     <path d="M 0 1.5 
C 0.397805 1.5 0.77937 1.341951 1.06066 1.06066 
C 1.341951 0.77937 1.5 0.397805 1.5 0 
C 1.5 -0.397805 1.341951 -0.77937 1.06066 -1.06066 
C 0.77937 -1.341951 0.397805 -1.5 0 -1.5 
C -0.397805 -1.5 -0.77937 -1.341951 -1.06066 -1.06066 
C -1.341951 -0.77937 -1.5 -0.397805 -1.5 0 
C -1.5 0.397805 -1.341951 0.77937 -1.06066 1.06066 
C -0.77937 1.341951 -0.397805 1.5 0 1.5 
z
" id="m94aaf77d67" style="stroke:#0000ff;"/>
    </defs>
    <g>
     <use style="fill:#0000ff;stroke:#0000ff;" x="208.353385" xlink:href="#m94aaf77d67" y="27.648"/>
     <use style="fill:#0000ff;stroke:#0000ff;" x="208.353385" xlink:href="#m94aaf77d67" y="27.648"/>
    </g>
   </g>
   <g id="line2d_38">
    <path d="M 80.621116 298.944 
L 80.621116 298.502868 
L 91.305777 298.502868 
L 91.305777 285.268917 
L 98.077987 285.268917 
L 98.077987 268.947044 
L 98.933205 268.947044 
L 98.933205 267.182517 
L 103.047088 267.182517 
L 103.047088 258.359883 
L 103.707211 258.359883 
L 103.707211 257.47762 
L 106.974091 257.47762 
L 106.974091 239.39122 
L 107.5116 239.39122 
L 107.5116 233.215376 
L 110.221204 233.215376 
L 110.221204 226.5984 
L 110.674517 226.5984 
L 110.674517 215.570107 
L 111.117162 215.570107 
L 111.117162 214.687844 
L 112.989468 214.687844 
L 112.989468 204.541815 
L 113.381389 204.541815 
L 113.381389 201.895024 
L 113.765312 201.895024 
L 113.765312 194.836917 
L 115.402131 194.836917 
L 115.402131 187.77881 
L 115.747307 187.77881 
L 115.747307 184.249756 
L 116.253478 184.249756 
L 116.253478 183.808624 
L 116.419219 183.808624 
L 116.419219 182.926361 
L 117.540239 182.926361 
L 117.540239 172.780332 
L 117.848632 172.780332 
L 117.848632 164.839961 
L 118.152051 164.839961 
L 118.152051 163.957698 
L 118.450653 163.957698 
L 118.450653 161.752039 
L 119.459944 161.752039 
L 119.459944 159.105249 
L 119.738639 159.105249 
L 119.738639 149.400351 
L 120.013265 149.400351 
L 120.013265 148.518088 
L 120.149089 148.518088 
L 120.149089 147.194693 
L 120.28394 147.194693 
L 120.28394 146.312429 
L 120.550775 146.312429 
L 120.550775 143.665639 
L 121.455972 143.665639 
L 121.455972 141.45998 
L 121.706797 141.45998 
L 121.706797 137.048663 
L 121.830966 137.048663 
L 121.830966 136.607532 
L 121.954321 136.607532 
L 121.954321 131.755083 
L 122.439807 131.755083 
L 122.439807 130.87282 
L 123.260379 130.87282 
L 123.260379 124.255844 
L 123.4884 124.255844 
L 123.4884 121.609054 
L 123.713691 121.609054 
L 123.713691 121.167922 
L 124.695386 121.167922 
L 124.695386 115.874341 
L 124.906754 115.874341 
L 124.906754 110.139629 
L 125.115773 110.139629 
L 125.115773 101.316995 
L 126.225624 101.316995 
L 126.225624 99.111337 
L 126.420564 99.111337 
L 126.517282 92.053229 
L 126.804487 92.053229 
L 126.804487 91.170966 
L 127.18073 91.170966 
L 127.18073 89.406439 
L 127.458055 89.406439 
L 127.458055 86.759649 
L 127.821575 86.759649 
L 127.821575 84.995122 
L 128.614685 84.995122 
L 128.614685 84.55399 
L 128.956723 84.55399 
L 128.956723 83.671727 
L 132.216233 83.671727 
L 132.216233 82.789463 
L 135.59842 82.789463 
L 135.59842 79.26041 
L 136.864507 79.26041 
L 136.97549 78.378146 
L 137.085822 78.378146 
L 137.195511 77.495883 
L 137.574461 77.495883 
L 137.574461 77.054751 
L 137.787626 77.054751 
L 137.893309 76.172488 
L 137.998402 76.172488 
L 137.998402 74.849093 
L 138.206842 74.849093 
L 138.310202 73.084566 
L 138.667556 73.084566 
L 138.667556 71.761171 
L 138.968547 71.761171 
L 138.968547 70.437776 
L 139.604629 70.437776 
L 139.604629 69.996644 
L 140.543056 69.996644 
L 140.543056 67.349854 
L 140.815692 67.349854 
L 140.815692 66.46759 
L 141.128852 66.46759 
L 141.128852 64.703063 
L 142.702713 64.703063 
L 142.702713 64.261932 
L 143.146307 64.261932 
L 143.146307 61.615141 
L 143.657415 61.615141 
L 143.657415 61.17401 
L 145.608355 61.17401 
L 145.608355 60.291746 
L 145.920443 60.291746 
L 145.920443 59.409483 
L 146.728219 59.409483 
L 146.728219 57.203824 
L 147.1517 57.203824 
L 147.1517 56.762693 
L 147.375841 56.762693 
L 147.375841 55.439298 
L 151.089903 55.439298 
L 151.089903 54.998166 
L 151.400845 54.998166 
L 151.452172 52.351376 
L 151.656094 52.351376 
L 151.656094 50.586849 
L 152.835271 50.586849 
L 152.835271 49.263454 
L 153.375128 49.263454 
L 153.375128 48.38119 
L 154.256552 48.38119 
L 154.256552 47.498927 
L 168.116567 47.498927 
L 168.116567 46.175532 
L 168.253455 46.175532 
L 168.253455 45.7344 
L 169.9383 45.7344 
L 169.9383 45.293268 
L 170.383845 45.293268 
L 170.383845 44.852137 
L 170.644345 44.852137 
L 170.699701 42.205346 
L 173.886839 42.205346 
L 173.925682 41.323083 
L 175.142661 41.323083 
L 175.142661 39.999688 
L 176.442464 39.999688 
L 176.442464 39.117424 
L 176.651746 39.117424 
L 176.651746 36.029502 
L 178.210076 36.029502 
L 178.210076 33.823844 
L 179.842775 33.823844 
L 179.842775 33.382712 
L 181.547935 33.382712 
L 181.547935 32.94158 
L 189.814714 32.94158 
L 189.814714 30.735922 
L 190.802117 30.735922 
L 190.896806 28.530263 
L 208.353385 28.530263 
L 208.353385 27.648 
L 360.8064 27.648 
L 360.8064 27.648 
" style="fill:none;stroke:#0000ff;stroke-linecap:square;stroke-width:1.5;"/>
   </g>
   <g id="line2d_39">
    <defs>
     <path d="M 0 -6 
L -1.347084 -1.854102 
L -5.706339 -1.854102 
L -2.179628 0.708204 
L -3.526712 4.854102 
L -0 2.291796 
L 3.526712 4.854102 
L 2.179628 0.708204 
L 5.706339 -1.854102 
L 1.347084 -1.854102 
z
" id="m29db249a05" style="stroke:#0000ff;stroke-linejoin:bevel;stroke-width:1.5;"/>
    </defs>
    <g>
     <use style="fill-opacity:0;stroke:#0000ff;stroke-linejoin:bevel;stroke-width:1.5;" x="122.439807" xlink:href="#m29db249a05" y="131.755083"/>
     <use style="fill-opacity:0;stroke:#0000ff;stroke-linejoin:bevel;stroke-width:1.5;" x="154.256552" xlink:href="#m29db249a05" y="48.38119"/>
     <use style="fill-opacity:0;stroke:#0000ff;stroke-linejoin:bevel;stroke-width:1.5;" x="208.353385" xlink:href="#m29db249a05" y="27.648"/>
     <use style="fill-opacity:0;stroke:#0000ff;stroke-linejoin:bevel;stroke-width:1.5;" x="208.353385" xlink:href="#m29db249a05" y="27.648"/>
     <use style="fill-opacity:0;stroke:#0000ff;stroke-linejoin:bevel;stroke-width:1.5;" x="360.8064" xlink:href="#m29db249a05" y="27.648"/>
    </g>
   </g>
   <g id="line2d_40">
    <path style="fill:none;stroke:#0000ff;stroke-linecap:square;stroke-width:1.5;"/>
    <g/>
   </g>
   <g id="line2d_41">
    <defs>
     <path d="M 0 1.5 
C 0.397805 1.5 0.77937 1.341951 1.06066 1.06066 
C 1.341951 0.77937 1.5 0.397805 1.5 0 
C 1.5 -0.397805 1.341951 -0.77937 1.06066 -1.06066 
C 0.77937 -1.341951 0.397805 -1.5 0 -1.5 
C -0.397805 -1.5 -0.77937 -1.341951 -1.06066 -1.06066 
C -1.341951 -0.77937 -1.5 -0.397805 -1.5 0 
C -1.5 0.397805 -1.341951 0.77937 -1.06066 1.06066 
C -0.77937 1.341951 -0.397805 1.5 0 1.5 
z
" id="m9d283dd1df" style="stroke:#000000;"/>
    </defs>
    <g>
     <use style="stroke:#000000;" x="310.531241" xlink:href="#m9d283dd1df" y="67.349854"/>
     <use style="stroke:#000000;" x="310.531241" xlink:href="#m9d283dd1df" y="67.349854"/>
    </g>
   </g>
   <g id="line2d_42">
    <path d="M 111.442442 298.944 
L 111.442442 298.502868 
L 115.661605 298.502868 
L 115.661605 297.620605 
L 116.170056 297.620605 
L 116.170056 296.738341 
L 121.073351 296.738341 
L 121.073351 295.414946 
L 121.201758 295.414946 
L 121.201758 294.532683 
L 123.991562 294.532683 
L 123.991562 294.091551 
L 126.709238 294.091551 
L 126.709238 292.768156 
L 128.441306 292.768156 
L 128.441306 292.327024 
L 128.829186 292.327024 
L 128.829186 291.885893 
L 129.458394 291.885893 
L 129.458394 290.121366 
L 130.384069 290.121366 
L 130.384069 289.680234 
L 130.618241 289.680234 
L 130.618241 289.239102 
L 130.926003 289.239102 
L 130.926003 288.797971 
L 131.563744 288.797971 
L 131.563744 288.356839 
L 132.393534 288.356839 
L 132.393534 287.915707 
L 133.323114 287.915707 
L 133.323114 287.474576 
L 134.176839 287.474576 
L 134.176839 287.033444 
L 134.526683 287.033444 
L 134.526683 286.592312 
L 135.116046 286.592312 
L 135.116046 286.15118 
L 135.418977 286.15118 
L 135.418977 285.710049 
L 135.59842 285.710049 
L 135.59842 284.386654 
L 136.213327 284.386654 
L 136.213327 283.945522 
L 136.92008 283.945522 
L 136.92008 283.063259 
L 137.331728 283.063259 
L 137.331728 282.622127 
L 139.289277 282.622127 
L 139.289277 281.739863 
L 140.725251 281.739863 
L 140.725251 281.298732 
L 141.239443 281.298732 
L 141.239443 280.416468 
L 141.782854 280.416468 
L 141.782854 279.975337 
L 142.311006 279.975337 
L 142.311006 279.534205 
L 142.518184 279.534205 
L 142.518184 279.093073 
L 143.38393 279.093073 
L 143.38393 278.651941 
L 144.079302 278.651941 
L 144.079302 278.21081 
L 144.510478 278.21081 
L 144.510478 277.769678 
L 144.658165 277.769678 
L 144.658165 277.328546 
L 147.135588 277.328546 
L 147.232057 276.446283 
L 147.343984 276.446283 
L 147.343984 276.005151 
L 147.660152 276.005151 
L 147.660152 275.56402 
L 147.986506 275.56402 
L 147.986506 274.681756 
L 148.367783 274.681756 
L 148.428077 272.917229 
L 149.194798 272.917229 
L 149.194798 272.476098 
L 149.381693 272.476098 
L 149.42456 271.593834 
L 149.524205 271.593834 
L 149.524205 271.152702 
L 149.847944 271.152702 
L 149.847944 270.270439 
L 150.193627 270.270439 
L 150.193627 269.388176 
L 151.310683 269.388176 
L 151.310683 268.06478 
L 151.70673 268.06478 
L 151.70673 267.182517 
L 153.662158 267.182517 
L 153.662158 266.741385 
L 153.854866 266.741385 
L 153.854866 266.300254 
L 155.024477 266.300254 
L 155.024477 265.859122 
L 155.391799 265.859122 
L 155.391799 265.41799 
L 157.586683 265.41799 
L 157.586683 264.535727 
L 157.706532 264.535727 
L 157.798206 263.212332 
L 158.830209 263.212332 
L 158.890711 262.330068 
L 160.375185 262.330068 
L 160.375185 261.447805 
L 160.956223 261.447805 
L 160.979404 260.565541 
L 161.639526 260.565541 
L 161.639526 260.12441 
L 161.810238 260.12441 
L 161.810238 257.918751 
L 162.06708 257.918751 
L 162.06708 257.036488 
L 162.570477 257.036488 
L 162.570477 256.154224 
L 166.034495 256.154224 
L 166.034495 255.271961 
L 166.780922 255.271961 
L 166.780922 254.830829 
L 167.212746 254.830829 
L 167.212746 254.389698 
L 168.892945 254.389698 
L 168.892945 253.948566 
L 169.029352 253.948566 
L 169.029352 253.507434 
L 169.229637 253.507434 
L 169.229637 253.066302 
L 170.869361 253.066302 
L 170.905844 252.184039 
L 171.073664 252.184039 
L 171.073664 251.742907 
L 172.411221 251.742907 
L 172.411221 251.301776 
L 174.05715 251.301776 
L 174.157069 250.419512 
L 174.279322 250.419512 
L 174.279322 249.97838 
L 174.633911 249.97838 
L 174.633911 249.537249 
L 174.878944 249.537249 
L 174.878944 247.772722 
L 175.018589 247.772722 
L 175.018589 247.33159 
L 175.312837 247.33159 
L 175.312837 246.890459 
L 177.797717 246.890459 
L 177.797717 246.008195 
L 178.148176 246.008195 
L 178.148176 245.567063 
L 178.373134 245.567063 
L 178.455661 244.243668 
L 178.752198 244.243668 
L 178.853996 242.479141 
L 179.06186 242.479141 
L 179.135545 235.862166 
L 179.322871 235.862166 
L 179.322871 234.538771 
L 179.930395 234.538771 
L 179.930395 233.215376 
L 180.370745 233.215376 
L 180.370745 232.774244 
L 180.695726 232.774244 
L 180.757895 231.009717 
L 181.625402 231.009717 
L 181.625402 230.127454 
L 181.832984 230.127454 
L 181.901672 228.362927 
L 182.765239 228.362927 
L 182.765239 225.275005 
L 183.618732 225.275005 
L 183.618732 223.069346 
L 185.972973 223.069346 
L 185.972973 222.628215 
L 186.182455 222.628215 
L 186.182455 222.187083 
L 186.299398 222.187083 
L 186.299398 221.745951 
L 186.447553 221.745951 
L 186.493364 218.658029 
L 190.410445 218.658029 
L 190.410445 218.216898 
L 190.659184 218.216898 
L 190.659184 217.775766 
L 192.622357 217.775766 
L 192.696893 216.893502 
L 192.78253 216.893502 
L 192.78253 216.452371 
L 193.10444 216.452371 
L 193.177094 213.364449 
L 194.823672 213.364449 
L 194.823672 212.923317 
L 195.028251 212.923317 
L 195.028251 211.15879 
L 195.856488 211.15879 
L 195.86616 209.835395 
L 196.129028 209.835395 
L 196.129028 209.394263 
L 196.431722 209.394263 
L 196.431722 208.953132 
L 196.584753 208.953132 
L 196.584753 208.070868 
L 196.882549 208.070868 
L 196.882549 207.629737 
L 197.03765 207.629737 
L 197.089822 206.747473 
L 197.220748 206.747473 
L 197.294836 205.86521 
L 198.283423 205.86521 
L 198.334377 201.012761 
L 198.473793 201.012761 
L 198.473793 200.571629 
L 203.174614 200.571629 
L 203.174614 199.689366 
L 203.902894 199.689366 
L 203.902894 199.248234 
L 207.092871 199.248234 
L 207.092871 198.807102 
L 209.790143 198.807102 
L 209.790143 198.365971 
L 212.464479 198.365971 
L 212.464479 197.924839 
L 212.586627 197.924839 
L 212.586627 197.483707 
L 212.71786 197.483707 
L 212.784364 194.836917 
L 212.846224 194.836917 
L 212.846224 194.395785 
L 213.384941 194.395785 
L 213.481857 191.748995 
L 217.036449 191.748995 
L 217.036449 191.307863 
L 219.454149 191.307863 
L 219.454149 190.866732 
L 219.601214 190.866732 
L 219.601214 190.4256 
L 219.762076 190.4256 
L 219.762076 189.984468 
L 220.637298 189.984468 
L 220.637298 188.661073 
L 221.035059 188.661073 
L 221.035059 188.219941 
L 221.995509 188.219941 
L 221.995509 187.77881 
L 223.281093 187.77881 
L 223.384945 185.13202 
L 223.517434 185.13202 
L 223.571555 181.161834 
L 224.302151 181.161834 
L 224.302151 180.279571 
L 224.658384 180.279571 
L 224.658384 179.397307 
L 224.867792 179.397307 
L 224.873741 174.98599 
L 226.229496 174.98599 
L 226.31209 173.662595 
L 226.495188 173.662595 
L 226.495188 173.221463 
L 226.618157 173.221463 
L 226.618157 172.780332 
L 228.158719 172.780332 
L 228.158719 171.898068 
L 232.0223 171.898068 
L 232.078984 164.398829 
L 232.536049 164.398829 
L 232.536049 163.957698 
L 233.235165 163.957698 
L 233.235165 163.516566 
L 233.47341 163.516566 
L 233.473574 162.634302 
L 233.743729 162.634302 
L 233.743729 162.193171 
L 233.928095 162.193171 
L 233.930652 161.310907 
L 236.937676 161.310907 
L 236.971283 158.664117 
L 237.148261 158.664117 
L 237.151896 157.340722 
L 239.157412 157.340722 
L 239.159228 156.458459 
L 239.985387 156.458459 
L 239.985387 156.017327 
L 240.491017 156.017327 
L 240.589186 151.60601 
L 240.607683 151.60601 
L 240.607908 150.723746 
L 244.485129 150.723746 
L 244.494792 143.665639 
L 245.50134 143.665639 
L 245.50134 143.224507 
L 246.742433 143.224507 
L 246.745344 142.342244 
L 247.203975 142.342244 
L 247.203975 141.901112 
L 248.503631 141.901112 
L 248.503631 141.45998 
L 249.3974 141.45998 
L 249.398313 140.577717 
L 249.737003 140.577717 
L 249.737486 139.695454 
L 250.107001 139.695454 
L 250.21798 138.81319 
L 251.925477 138.81319 
L 251.926828 136.1664 
L 252.540946 136.1664 
L 252.5495 135.284137 
L 253.471699 135.284137 
L 253.471699 134.843005 
L 253.782505 134.843005 
L 253.78295 133.960741 
L 254.319467 133.960741 
L 254.319467 133.51961 
L 255.328545 133.51961 
L 255.366573 128.226029 
L 255.967063 128.226029 
L 255.967063 127.784898 
L 257.238584 127.784898 
L 257.252511 125.579239 
L 258.65398 125.579239 
L 258.656384 124.255844 
L 259.860892 124.255844 
L 259.888774 121.609054 
L 260.083276 121.609054 
L 260.083276 121.167922 
L 261.376234 121.167922 
L 261.387932 118.08 
L 261.760691 118.08 
L 261.760691 117.638868 
L 262.524708 117.638868 
L 262.576289 116.315473 
L 263.100847 116.315473 
L 263.100847 115.874341 
L 263.511058 115.874341 
L 263.533727 114.109815 
L 263.871308 114.109815 
L 263.881358 113.227551 
L 264.766915 113.227551 
L 264.776777 109.698498 
L 266.578721 109.698498 
L 266.584524 107.051707 
L 267.638692 107.051707 
L 267.646599 103.963785 
L 268.468327 103.963785 
L 268.468327 103.522654 
L 269.207924 103.522654 
L 269.208831 102.64039 
L 270.129173 102.64039 
L 270.135657 101.316995 
L 270.858167 101.316995 
L 270.858167 100.875863 
L 271.497077 100.875863 
L 271.497077 100.434732 
L 272.32915 100.434732 
L 272.329357 99.111337 
L 272.976973 99.111337 
L 272.976973 98.670205 
L 273.550677 98.670205 
L 273.563489 96.905678 
L 274.297132 96.905678 
L 274.302813 94.70002 
L 274.886053 94.70002 
L 274.886053 94.258888 
L 275.410011 94.258888 
L 275.4132 92.935493 
L 275.599129 92.935493 
L 275.599129 92.494361 
L 276.07973 92.494361 
L 276.08483 90.729834 
L 277.093612 90.729834 
L 277.093612 90.288702 
L 277.706842 90.288702 
L 277.711488 88.524176 
L 278.199171 88.524176 
L 278.199171 88.083044 
L 278.639219 88.083044 
L 278.643135 86.759649 
L 279.210226 86.759649 
L 279.210226 86.318517 
L 280.067915 86.318517 
L 280.067915 85.877385 
L 281.015845 85.877385 
L 281.015845 85.436254 
L 281.395991 85.436254 
L 281.397606 84.55399 
L 282.635918 84.55399 
L 282.635918 84.112859 
L 283.094397 84.112859 
L 283.097079 82.348332 
L 283.799372 82.348332 
L 283.799372 81.9072 
L 284.89369 81.9072 
L 284.89369 81.466068 
L 285.304382 81.466068 
L 285.304382 81.024937 
L 285.924579 81.024937 
L 285.929515 80.142673 
L 286.315431 80.142673 
L 286.31548 79.26041 
L 286.906192 79.26041 
L 286.910685 77.937015 
L 287.279925 77.937015 
L 287.279925 77.495883 
L 289.898641 77.495883 
L 289.898641 77.054751 
L 290.391934 77.054751 
L 290.391934 76.61362 
L 290.698846 76.61362 
L 290.698846 76.172488 
L 291.16996 76.172488 
L 291.16996 75.731356 
L 291.918291 75.731356 
L 291.918291 75.290224 
L 292.200943 75.290224 
L 292.200943 74.849093 
L 292.909114 74.849093 
L 292.909114 74.407961 
L 293.589324 74.407961 
L 293.589324 73.966829 
L 294.250143 73.966829 
L 294.250143 73.525698 
L 295.5016 73.525698 
L 295.502163 72.202302 
L 297.018959 72.202302 
L 297.018959 71.761171 
L 297.234712 71.761171 
L 297.235894 70.878907 
L 297.570106 70.878907 
L 297.570106 70.437776 
L 298.30885 70.437776 
L 298.30885 69.996644 
L 298.624456 69.996644 
L 298.624456 69.555512 
L 299.130623 69.555512 
L 299.130623 69.11438 
L 301.203785 69.11438 
L 301.203785 68.673249 
L 302.498532 68.673249 
L 302.498532 68.232117 
L 309.695789 68.232117 
L 309.695789 67.790985 
L 310.531241 67.790985 
L 310.531241 67.349854 
L 360.8064 67.349854 
L 360.8064 67.349854 
" style="fill:none;stroke:#000000;stroke-linecap:square;stroke-width:1.5;"/>
   </g>
   <g id="line2d_43">
    <defs>
     <path d="M 0 6 
C 1.591219 6 3.117479 5.367802 4.242641 4.242641 
C 5.367802 3.117479 6 1.591219 6 0 
C 6 -1.591219 5.367802 -3.117479 4.242641 -4.242641 
C 3.117479 -5.367802 1.591219 -6 0 -6 
C -1.591219 -6 -3.117479 -5.367802 -4.242641 -4.242641 
C -5.367802 -3.117479 -6 -1.591219 -6 0 
C -6 1.591219 -5.367802 3.117479 -4.242641 4.242641 
C -3.117479 5.367802 -1.591219 6 0 6 
z
" id="m8b49aabf9b" style="stroke:#000000;stroke-width:1.5;"/>
    </defs>
    <g>
     <use style="fill-opacity:0;stroke:#000000;stroke-width:1.5;" x="181.625402" xlink:href="#m8b49aabf9b" y="231.009717"/>
     <use style="fill-opacity:0;stroke:#000000;stroke-width:1.5;" x="249.737486" xlink:href="#m8b49aabf9b" y="140.136585"/>
     <use style="fill-opacity:0;stroke:#000000;stroke-width:1.5;" x="302.498532" xlink:href="#m8b49aabf9b" y="68.673249"/>
     <use style="fill-opacity:0;stroke:#000000;stroke-width:1.5;" x="310.531241" xlink:href="#m8b49aabf9b" y="67.349854"/>
     <use style="fill-opacity:0;stroke:#000000;stroke-width:1.5;" x="360.8064" xlink:href="#m8b49aabf9b" y="67.349854"/>
    </g>
   </g>
   <g id="line2d_44">
    <path style="fill:none;stroke:#000000;stroke-linecap:square;stroke-width:1.5;"/>
    <g/>
   </g>
   <g id="line2d_45">
    <path clip-path="url(#p52d9e771d4)" d="M 230.863245 171.898068 
" style="fill:none;stroke:#000000;stroke-linecap:square;stroke-width:1.5;"/>
    <defs>
     <path d="M -12 12 
L 12 -12 
M -12 -12 
L 12 12 
" id="m0317be0c31" style="stroke:#000000;"/>
    </defs>
    <g clip-path="url(#p52d9e771d4)">
     <use style="stroke:#000000;" x="230.863245" xlink:href="#m0317be0c31" y="171.898068"/>
    </g>
   </g>
   <g id="line2d_46">
    <defs>
     <path d="M 0 1.5 
C 0.397805 1.5 0.77937 1.341951 1.06066 1.06066 
C 1.341951 0.77937 1.5 0.397805 1.5 0 
C 1.5 -0.397805 1.341951 -0.77937 1.06066 -1.06066 
C 0.77937 -1.341951 0.397805 -1.5 0 -1.5 
C -0.397805 -1.5 -0.77937 -1.341951 -1.06066 -1.06066 
C -1.341951 -0.77937 -1.5 -0.397805 -1.5 0 
C -1.5 0.397805 -1.341951 0.77937 -1.06066 1.06066 
C -0.77937 1.341951 -0.397805 1.5 0 1.5 
z
" id="m36fdf5d577" style="stroke:#ff0000;"/>
    </defs>
    <g>
     <use style="fill:#ff0000;stroke:#ff0000;" x="311.506913" xlink:href="#m36fdf5d577" y="186.455415"/>
     <use style="fill:#ff0000;stroke:#ff0000;" x="311.506913" xlink:href="#m36fdf5d577" y="186.455415"/>
    </g>
   </g>
   <g id="line2d_47">
    <path d="M 121.487509 298.944 
L 121.487509 298.061737 
L 127.911368 298.061737 
L 127.911368 297.620605 
L 129.622688 297.620605 
L 129.622688 297.179473 
L 131.892817 297.179473 
L 131.892817 296.738341 
L 132.411173 296.738341 
L 132.411173 295.856078 
L 132.725872 295.856078 
L 132.725872 295.414946 
L 137.945929 295.414946 
L 137.945929 294.973815 
L 140.485756 294.973815 
L 140.485756 294.532683 
L 141.491363 294.532683 
L 141.491363 294.091551 
L 142.248405 294.091551 
L 142.248405 293.209288 
L 142.844994 293.209288 
L 142.844994 292.768156 
L 143.066428 292.768156 
L 143.066428 292.327024 
L 143.245681 292.327024 
L 143.245681 291.885893 
L 143.840756 291.885893 
L 143.840756 291.003629 
L 144.079302 291.003629 
L 144.117191 289.239102 
L 144.950106 289.239102 
L 144.950106 288.797971 
L 145.3354 288.797971 
L 145.3354 288.356839 
L 146.294984 288.356839 
L 146.294984 287.915707 
L 146.653946 287.915707 
L 146.653946 287.033444 
L 147.746174 287.033444 
L 147.746174 286.592312 
L 147.924778 286.592312 
L 147.924778 286.15118 
L 148.048032 286.15118 
L 148.048032 285.710049 
L 148.390416 285.710049 
L 148.390416 285.268917 
L 148.785835 285.268917 
L 148.785835 284.386654 
L 149.115164 284.386654 
L 149.115164 283.945522 
L 150.526343 283.945522 
L 150.526343 283.50439 
L 151.207109 283.50439 
L 151.207109 282.180995 
L 151.964126 282.180995 
L 151.976592 281.298732 
L 152.438211 281.298732 
L 152.529191 280.416468 
L 153.054254 280.416468 
L 153.054254 279.534205 
L 154.660647 279.534205 
L 154.660647 279.093073 
L 155.119618 279.093073 
L 155.119618 278.651941 
L 155.240492 278.651941 
L 155.240492 278.21081 
L 155.828401 278.21081 
L 155.828401 276.446283 
L 156.055505 276.446283 
L 156.055505 276.005151 
L 156.691741 276.005151 
L 156.691741 275.56402 
L 157.194177 275.56402 
L 157.213055 274.681756 
L 158.542339 274.681756 
L 158.542339 274.240624 
L 158.938111 274.240624 
L 158.938111 273.799493 
L 160.855439 273.799493 
L 160.855439 273.358361 
L 162.395816 273.358361 
L 162.395816 272.917229 
L 164.63178 272.917229 
L 164.63178 272.034966 
L 166.137508 272.034966 
L 166.137508 271.593834 
L 166.463408 271.593834 
L 166.463408 271.152702 
L 167.968026 271.152702 
L 167.968026 270.711571 
L 169.868623 270.711571 
L 169.868623 270.270439 
L 170.960436 270.270439 
L 170.960436 269.829307 
L 171.588105 269.829307 
L 171.588105 268.505912 
L 172.105956 268.505912 
L 172.105956 267.182517 
L 172.470008 267.182517 
L 172.470008 266.741385 
L 177.800876 266.741385 
L 177.800876 266.300254 
L 178.873395 266.300254 
L 178.873395 265.859122 
L 179.060384 265.859122 
L 179.060384 265.41799 
L 179.214801 265.41799 
L 179.214801 264.535727 
L 181.978963 264.535727 
L 181.978963 264.094595 
L 182.854766 264.094595 
L 182.96548 262.7712 
L 184.329459 262.7712 
L 184.400745 261.447805 
L 184.450706 261.447805 
L 184.450706 260.565541 
L 184.843519 260.565541 
L 184.843519 260.12441 
L 185.172894 260.12441 
L 185.172894 259.683278 
L 185.393535 259.683278 
L 185.393535 258.359883 
L 185.692752 258.359883 
L 185.692752 257.918751 
L 185.902281 257.918751 
L 185.902281 257.47762 
L 186.274256 257.47762 
L 186.295377 256.154224 
L 188.839449 256.154224 
L 188.839449 255.713093 
L 189.555321 255.713093 
L 189.555321 255.271961 
L 189.7479 255.271961 
L 189.7479 254.830829 
L 190.545653 254.830829 
L 190.545653 254.389698 
L 192.786089 254.389698 
L 192.786089 253.948566 
L 193.006897 253.948566 
L 193.10164 252.625171 
L 193.216099 252.625171 
L 193.313951 251.301776 
L 193.345074 251.301776 
L 193.345074 250.860644 
L 193.504716 250.860644 
L 193.504716 249.97838 
L 193.616074 249.97838 
L 193.631734 248.654985 
L 194.590991 248.654985 
L 194.590991 248.213854 
L 195.632028 248.213854 
L 195.632028 247.33159 
L 198.083588 247.33159 
L 198.083588 246.890459 
L 205.085497 246.890459 
L 205.085497 246.449327 
L 205.223084 246.449327 
L 205.284726 244.243668 
L 205.496362 244.243668 
L 205.496362 243.361405 
L 205.685215 243.361405 
L 205.685215 242.920273 
L 206.873649 242.920273 
L 206.873649 242.479141 
L 213.71239 242.479141 
L 213.71707 241.155746 
L 214.016973 241.155746 
L 214.016973 240.714615 
L 214.860197 240.714615 
L 214.860197 238.950088 
L 215.432053 238.950088 
L 215.432053 238.508956 
L 218.372193 238.508956 
L 218.372193 238.067824 
L 218.514154 238.067824 
L 218.514154 237.626693 
L 219.450699 237.626693 
L 219.450699 237.185561 
L 219.842501 237.185561 
L 219.881152 234.979902 
L 221.445541 234.979902 
L 221.445541 234.538771 
L 222.924934 234.538771 
L 222.924934 234.097639 
L 223.820988 234.097639 
L 223.820988 232.774244 
L 224.318272 232.774244 
L 224.318272 232.333112 
L 225.30415 232.333112 
L 225.30415 231.009717 
L 226.525769 231.009717 
L 226.525769 230.568585 
L 226.75016 230.568585 
L 226.75016 230.127454 
L 228.233279 230.127454 
L 228.238145 229.24519 
L 231.100803 229.24519 
L 231.151439 228.362927 
L 231.269799 228.362927 
L 231.269799 227.921795 
L 231.673699 227.921795 
L 231.673699 227.039532 
L 232.394233 227.039532 
L 232.394233 226.5984 
L 232.545168 226.5984 
L 232.545168 226.157268 
L 233.222808 226.157268 
L 233.299142 224.392741 
L 235.205309 224.392741 
L 235.205309 223.95161 
L 235.497566 223.95161 
L 235.497566 223.510478 
L 237.216482 223.510478 
L 237.216482 223.069346 
L 237.552408 223.069346 
L 237.552408 222.628215 
L 238.673981 222.628215 
L 238.673981 222.187083 
L 239.192055 222.187083 
L 239.192055 221.745951 
L 240.349613 221.745951 
L 240.349669 220.863688 
L 240.707811 220.863688 
L 240.708591 219.540293 
L 241.325645 219.540293 
L 241.328341 216.452371 
L 241.957755 216.452371 
L 241.957755 216.011239 
L 244.128784 216.011239 
L 244.128784 215.570107 
L 245.160296 215.570107 
L 245.160296 215.128976 
L 246.198953 215.128976 
L 246.198953 214.687844 
L 247.543197 214.687844 
L 247.543623 213.80558 
L 248.239705 213.80558 
L 248.240265 212.923317 
L 248.529755 212.923317 
L 248.529755 212.482185 
L 249.85234 212.482185 
L 249.853779 211.599922 
L 250.692899 211.599922 
L 250.695127 210.717659 
L 253.067538 210.717659 
L 253.090692 208.953132 
L 255.507061 208.953132 
L 255.507061 208.512 
L 255.697067 208.512 
L 255.698649 206.306341 
L 256.31667 206.306341 
L 256.31667 205.86521 
L 258.107899 205.86521 
L 258.108849 204.982946 
L 258.849224 204.982946 
L 258.849691 204.100683 
L 259.397103 204.100683 
L 259.397103 203.659551 
L 260.149768 203.659551 
L 260.150858 202.777288 
L 260.6411 202.777288 
L 260.642684 201.895024 
L 262.080032 201.895024 
L 262.080032 201.453893 
L 262.68123 201.453893 
L 262.68123 201.012761 
L 263.624659 201.012761 
L 263.624659 200.571629 
L 263.748994 200.571629 
L 263.748994 200.130498 
L 264.155939 200.130498 
L 264.155939 199.689366 
L 264.993775 199.689366 
L 264.993775 199.248234 
L 265.365643 199.248234 
L 265.365643 198.807102 
L 266.768124 198.807102 
L 266.768765 197.483707 
L 268.153763 197.483707 
L 268.153763 197.042576 
L 269.153768 197.042576 
L 269.153768 196.601444 
L 269.276173 196.601444 
L 269.369487 194.836917 
L 269.672037 194.836917 
L 269.672037 194.395785 
L 270.581511 194.395785 
L 270.581511 193.954654 
L 274.660042 193.954654 
L 274.660042 193.513522 
L 275.527922 193.513522 
L 275.528106 192.631259 
L 276.409198 192.631259 
L 276.409198 192.190127 
L 278.739591 192.190127 
L 278.739591 191.748995 
L 281.481845 191.748995 
L 281.48249 190.4256 
L 283.322221 190.4256 
L 283.322221 189.984468 
L 283.874518 189.984468 
L 283.874518 189.543337 
L 287.904189 189.543337 
L 287.904189 189.102205 
L 290.445133 189.102205 
L 290.445133 188.661073 
L 291.966841 188.661073 
L 291.966841 188.219941 
L 293.374252 188.219941 
L 293.374252 187.77881 
L 295.305622 187.77881 
L 295.305622 187.337678 
L 305.459515 187.337678 
L 305.459515 186.896546 
L 311.506913 186.896546 
L 311.506913 186.455415 
L 360.8064 186.455415 
L 360.8064 186.455415 
" style="fill:none;stroke:#ff0000;stroke-linecap:square;stroke-width:1.5;"/>
   </g>
   <g id="line2d_48">
    <defs>
     <path d="M -6 6 
L 6 6 
L 6 -6 
L -6 -6 
z
" id="m12d61bf501" style="stroke:#ff0000;stroke-linejoin:miter;stroke-width:1.5;"/>
    </defs>
    <g>
     <use style="fill-opacity:0;stroke:#ff0000;stroke-linejoin:miter;stroke-width:1.5;" x="198.083588" xlink:href="#m12d61bf501" y="247.33159"/>
     <use style="fill-opacity:0;stroke:#ff0000;stroke-linejoin:miter;stroke-width:1.5;" x="266.768765" xlink:href="#m12d61bf501" y="197.924839"/>
     <use style="fill-opacity:0;stroke:#ff0000;stroke-linejoin:miter;stroke-width:1.5;" x="311.506913" xlink:href="#m12d61bf501" y="186.455415"/>
     <use style="fill-opacity:0;stroke:#ff0000;stroke-linejoin:miter;stroke-width:1.5;" x="311.506913" xlink:href="#m12d61bf501" y="186.455415"/>
     <use style="fill-opacity:0;stroke:#ff0000;stroke-linejoin:miter;stroke-width:1.5;" x="360.8064" xlink:href="#m12d61bf501" y="186.455415"/>
    </g>
   </g>
   <g id="line2d_49">
    <path style="fill:none;stroke:#ff0000;stroke-linecap:square;stroke-width:1.5;"/>
    <g/>
   </g>
   <g id="line2d_50">
    <path clip-path="url(#p52d9e771d4)" d="M 230.863151 229.24519 
" style="fill:none;stroke:#ff0000;stroke-linecap:square;stroke-width:1.5;"/>
    <defs>
     <path d="M -12 12 
L 12 -12 
M -12 -12 
L 12 12 
" id="mfc177423aa" style="stroke:#ff0000;"/>
    </defs>
    <g clip-path="url(#p52d9e771d4)">
     <use style="fill:#ff0000;stroke:#ff0000;" x="230.863151" xlink:href="#mfc177423aa" y="229.24519"/>
    </g>
   </g>
   <g id="line2d_51">
    <defs>
     <path d="M 0 1.5 
C 0.397805 1.5 0.77937 1.341951 1.06066 1.06066 
C 1.341951 0.77937 1.5 0.397805 1.5 0 
C 1.5 -0.397805 1.341951 -0.77937 1.06066 -1.06066 
C 0.77937 -1.341951 0.397805 -1.5 0 -1.5 
C -0.397805 -1.5 -0.77937 -1.341951 -1.06066 -1.06066 
C -1.341951 -0.77937 -1.5 -0.397805 -1.5 0 
C -1.5 0.397805 -1.341951 0.77937 -1.06066 1.06066 
C -0.77937 1.341951 -0.397805 1.5 0 1.5 
z
" id="m6f86046e96" style="stroke:#bf00bf;"/>
    </defs>
    <g>
     <use style="fill:#bf00bf;stroke:#bf00bf;" x="308.512892" xlink:href="#m6f86046e96" y="219.540293"/>
     <use style="fill:#bf00bf;stroke:#bf00bf;" x="308.512892" xlink:href="#m6f86046e96" y="219.540293"/>
    </g>
   </g>
   <g id="line2d_52">
    <path d="M 132.855458 298.944 
L 132.855458 298.502868 
L 138.135451 298.502868 
L 138.135451 298.061737 
L 138.680194 298.061737 
L 138.680194 296.738341 
L 145.946218 296.738341 
L 145.946218 296.29721 
L 153.679241 296.29721 
L 153.684932 295.414946 
L 154.16248 295.414946 
L 154.16248 294.973815 
L 156.110604 294.973815 
L 156.110604 294.532683 
L 157.649007 294.532683 
L 157.649007 294.091551 
L 158.2053 294.091551 
L 158.2053 293.65042 
L 162.876649 293.65042 
L 162.876649 293.209288 
L 163.347199 293.209288 
L 163.347199 292.768156 
L 164.547327 292.768156 
L 164.547327 292.327024 
L 165.437824 292.327024 
L 165.437824 291.885893 
L 166.407071 291.885893 
L 166.407071 291.444761 
L 167.498859 291.444761 
L 167.498859 291.003629 
L 167.622678 291.003629 
L 167.622678 290.562498 
L 168.326754 290.562498 
L 168.341119 288.797971 
L 168.454343 288.797971 
L 168.454343 288.356839 
L 169.15978 288.356839 
L 169.15978 287.915707 
L 169.542049 287.915707 
L 169.610503 284.386654 
L 169.755147 284.386654 
L 169.755147 283.945522 
L 169.919104 283.945522 
L 169.919104 283.50439 
L 170.872785 283.50439 
L 170.872785 283.063259 
L 176.577751 283.063259 
L 176.577751 282.622127 
L 178.6589 282.622127 
L 178.725911 281.298732 
L 183.797512 281.298732 
L 183.797512 280.8576 
L 189.327841 280.8576 
L 189.327841 280.416468 
L 192.545002 280.416468 
L 192.545002 279.975337 
L 196.890277 279.975337 
L 196.890277 279.534205 
L 197.422679 279.534205 
L 197.422679 279.093073 
L 197.659038 279.093073 
L 197.681825 278.21081 
L 201.482203 278.21081 
L 201.482203 276.887415 
L 201.657818 276.887415 
L 201.657818 276.446283 
L 202.246639 276.446283 
L 202.246639 276.005151 
L 203.371919 276.005151 
L 203.371919 275.56402 
L 207.062234 275.56402 
L 207.062234 275.122888 
L 212.302851 275.122888 
L 212.302851 274.681756 
L 213.266805 274.681756 
L 213.266805 274.240624 
L 213.422056 274.240624 
L 213.422056 273.799493 
L 215.319902 273.799493 
L 215.319902 273.358361 
L 215.445078 273.358361 
L 215.445078 272.917229 
L 219.652229 272.917229 
L 219.652229 272.476098 
L 220.405891 272.476098 
L 220.405891 271.593834 
L 223.187203 271.593834 
L 223.187203 271.152702 
L 223.30711 271.152702 
L 223.30711 270.711571 
L 224.342629 270.711571 
L 224.342629 269.829307 
L 225.671218 269.829307 
L 225.777319 268.947044 
L 227.578479 268.947044 
L 227.606063 267.623649 
L 228.11371 267.623649 
L 228.11371 267.182517 
L 228.500414 267.182517 
L 228.519278 266.300254 
L 230.248697 266.300254 
L 230.307441 264.976859 
L 231.004254 264.976859 
L 231.004254 264.535727 
L 231.172914 264.535727 
L 231.172914 264.094595 
L 231.526383 264.094595 
L 231.573489 261.006673 
L 232.006244 261.006673 
L 232.006244 260.565541 
L 234.446237 260.565541 
L 234.446393 259.683278 
L 236.824267 259.683278 
L 236.824267 259.242146 
L 237.731665 259.242146 
L 237.731665 258.801015 
L 239.118431 258.801015 
L 239.119644 257.918751 
L 239.389856 257.918751 
L 239.389856 257.036488 
L 240.922411 257.036488 
L 240.922411 256.595356 
L 241.530016 256.595356 
L 241.530016 256.154224 
L 242.344953 256.154224 
L 242.344953 255.713093 
L 242.758877 255.713093 
L 242.758877 255.271961 
L 243.597368 255.271961 
L 243.627238 253.948566 
L 244.093604 253.948566 
L 244.093604 253.507434 
L 244.238296 253.507434 
L 244.284223 250.419512 
L 244.481824 250.419512 
L 244.481824 249.97838 
L 245.778944 249.97838 
L 245.778944 249.537249 
L 246.384899 249.537249 
L 246.384899 249.096117 
L 247.646295 249.096117 
L 247.648241 248.213854 
L 248.645258 248.213854 
L 248.645258 247.772722 
L 249.983471 247.772722 
L 249.983471 247.33159 
L 250.780123 247.33159 
L 250.780123 246.890459 
L 251.326999 246.890459 
L 251.326999 246.449327 
L 251.768071 246.449327 
L 251.785304 243.802537 
L 252.800973 243.802537 
L 252.801383 242.920273 
L 255.510461 242.920273 
L 255.510461 242.479141 
L 255.770999 242.479141 
L 255.792192 241.596878 
L 257.122011 241.596878 
L 257.122011 241.155746 
L 257.903659 241.155746 
L 257.911632 240.273483 
L 259.368596 240.273483 
L 259.368596 239.832351 
L 261.282081 239.832351 
L 261.29324 238.067824 
L 261.919992 238.067824 
L 261.919992 237.626693 
L 264.68802 237.626693 
L 264.688963 236.303298 
L 265.220468 236.303298 
L 265.220468 235.862166 
L 267.572009 235.862166 
L 267.572123 234.979902 
L 268.024453 234.979902 
L 268.025216 234.097639 
L 270.070462 234.097639 
L 270.070462 233.656507 
L 270.471616 233.656507 
L 270.47165 232.774244 
L 271.233339 232.774244 
L 271.233339 232.333112 
L 272.27636 232.333112 
L 272.277224 231.450849 
L 274.250215 231.450849 
L 274.25096 229.686322 
L 275.916456 229.686322 
L 275.916456 229.24519 
L 276.037069 229.24519 
L 276.037069 228.804059 
L 276.32625 228.804059 
L 276.32625 228.362927 
L 277.937044 228.362927 
L 277.937044 227.921795 
L 279.071143 227.921795 
L 279.169348 225.716137 
L 280.559872 225.716137 
L 280.559872 225.275005 
L 281.853857 225.275005 
L 281.854448 224.392741 
L 283.065465 224.392741 
L 283.065465 223.95161 
L 284.202916 223.95161 
L 284.20314 223.069346 
L 288.169571 223.069346 
L 288.169571 222.628215 
L 291.392983 222.628215 
L 291.392983 222.187083 
L 292.889233 222.187083 
L 292.890117 220.863688 
L 299.798939 220.863688 
L 299.798939 220.422556 
L 302.901365 220.422556 
L 302.901365 219.981424 
L 308.512892 219.981424 
L 308.512892 219.540293 
L 360.8064 219.540293 
L 360.8064 219.540293 
" style="fill:none;stroke:#bf00bf;stroke-linecap:square;stroke-width:1.5;"/>
   </g>
   <g id="line2d_53">
    <defs>
     <path d="M -0 8.485281 
L 8.485281 0 
L 0 -8.485281 
L -8.485281 -0 
z
" id="m9dde7e373c" style="stroke:#bf00bf;stroke-linejoin:miter;stroke-width:1.5;"/>
    </defs>
    <g>
     <use style="fill-opacity:0;stroke:#bf00bf;stroke-linejoin:miter;stroke-width:1.5;" x="192.545002" xlink:href="#m9dde7e373c" y="279.975337"/>
     <use style="fill-opacity:0;stroke:#bf00bf;stroke-linejoin:miter;stroke-width:1.5;" x="259.368596" xlink:href="#m9dde7e373c" y="239.832351"/>
     <use style="fill-opacity:0;stroke:#bf00bf;stroke-linejoin:miter;stroke-width:1.5;" x="308.512892" xlink:href="#m9dde7e373c" y="219.981424"/>
     <use style="fill-opacity:0;stroke:#bf00bf;stroke-linejoin:miter;stroke-width:1.5;" x="308.512892" xlink:href="#m9dde7e373c" y="219.540293"/>
     <use style="fill-opacity:0;stroke:#bf00bf;stroke-linejoin:miter;stroke-width:1.5;" x="360.8064" xlink:href="#m9dde7e373c" y="219.540293"/>
    </g>
   </g>
   <g id="line2d_54">
    <path style="fill:none;stroke:#bf00bf;stroke-linecap:square;stroke-width:1.5;"/>
    <g/>
   </g>
   <g id="line2d_55">
    <path clip-path="url(#p52d9e771d4)" d="M 230.862916 264.976859 
" style="fill:none;stroke:#bf00bf;stroke-linecap:square;stroke-width:1.5;"/>
    <defs>
     <path d="M -12 12 
L 12 -12 
M -12 -12 
L 12 12 
" id="m61e7a3b300" style="stroke:#bf00bf;"/>
    </defs>
    <g clip-path="url(#p52d9e771d4)">
     <use style="fill:#bf00bf;stroke:#bf00bf;" x="230.862916" xlink:href="#m61e7a3b300" y="264.976859"/>
    </g>
   </g>
   <g id="line2d_56">
    <path d="M 360.8064 219.540293 
L 380.514816 293.51808 
" style="fill:none;stroke:#bf00bf;stroke-linecap:square;stroke-width:1.5;"/>
    <g>
     <use style="fill-opacity:0;stroke:#bf00bf;stroke-linejoin:miter;stroke-width:1.5;" x="360.8064" xlink:href="#m9dde7e373c" y="219.540293"/>
     <use style="fill-opacity:0;stroke:#bf00bf;stroke-linejoin:miter;stroke-width:1.5;" x="380.514816" xlink:href="#m9dde7e373c" y="293.51808"/>
    </g>
   </g>
   <g id="line2d_57">
    <path d="M 360.8064 186.455415 
L 380.514816 241.429248 
" style="fill:none;stroke:#ff0000;stroke-linecap:square;stroke-width:1.5;"/>
    <g>
     <use style="fill-opacity:0;stroke:#ff0000;stroke-linejoin:miter;stroke-width:1.5;" x="360.8064" xlink:href="#m12d61bf501" y="186.455415"/>
     <use style="fill-opacity:0;stroke:#ff0000;stroke-linejoin:miter;stroke-width:1.5;" x="380.514816" xlink:href="#m12d61bf501" y="241.429248"/>
    </g>
   </g>
   <g id="line2d_58">
    <path d="M 360.8064 67.349854 
L 380.514816 189.340416 
" style="fill:none;stroke:#000000;stroke-linecap:square;stroke-width:1.5;"/>
    <g>
     <use style="fill-opacity:0;stroke:#000000;stroke-width:1.5;" x="360.8064" xlink:href="#m8b49aabf9b" y="67.349854"/>
     <use style="fill-opacity:0;stroke:#000000;stroke-width:1.5;" x="380.514816" xlink:href="#m8b49aabf9b" y="189.340416"/>
    </g>
   </g>
   <g id="line2d_59">
    <path d="M 360.8064 27.648 
L 380.514816 137.251584 
" style="fill:none;stroke:#0000ff;stroke-linecap:square;stroke-width:1.5;"/>
    <g>
     <use style="fill-opacity:0;stroke:#0000ff;stroke-linejoin:bevel;stroke-width:1.5;" x="360.8064" xlink:href="#m29db249a05" y="27.648"/>
     <use style="fill-opacity:0;stroke:#0000ff;stroke-linejoin:bevel;stroke-width:1.5;" x="380.514816" xlink:href="#m29db249a05" y="137.251584"/>
    </g>
   </g>
   <g id="line2d_60">
    <path d="M 360.8064 27.648 
L 380.514816 85.162752 
" style="fill:none;stroke:#00bfbf;stroke-linecap:square;stroke-width:1.5;"/>
    <g>
     <use style="fill-opacity:0;stroke:#00bfbf;stroke-width:1.5;" x="360.8064" xlink:href="#mefd3e340f8" y="27.648"/>
     <use style="fill-opacity:0;stroke:#00bfbf;stroke-width:1.5;" x="380.514816" xlink:href="#mefd3e340f8" y="85.162752"/>
    </g>
   </g>
   <g id="line2d_61">
    <path d="M 360.8064 27.648 
L 380.514816 33.07392 
" style="fill:none;stroke:#008000;stroke-linecap:square;stroke-width:1.5;"/>
    <g>
     <use style="fill-opacity:0;stroke:#008000;stroke-linejoin:miter;stroke-width:1.5;" x="360.8064" xlink:href="#me90a5cf97b" y="27.648"/>
     <use style="fill-opacity:0;stroke:#008000;stroke-linejoin:miter;stroke-width:1.5;" x="380.514816" xlink:href="#me90a5cf97b" y="33.07392"/>
    </g>
   </g>
   <g id="line2d_62">
    <path d="M 360.8064 298.944 
L 360.8064 27.648 
" style="fill:none;stroke:#000000;stroke-linecap:square;stroke-width:1.5;"/>
   </g>
   <g id="patch_3">
    <path d="M 57.6 298.944 
L 360.8064 298.944 
" style="fill:none;stroke:#000000;stroke-linecap:square;stroke-linejoin:miter;stroke-width:0.8;"/>
   </g>
   <g id="patch_4">
    <path d="M 57.6 27.648 
L 360.8064 27.648 
" style="fill:none;stroke:#000000;stroke-linecap:square;stroke-linejoin:miter;stroke-width:0.8;"/>
   </g>
   <g id="text_13">
    <!-- 40-D -->
    <g transform="translate(386.578944 297.381205)scale(0.14 -0.14)">
     <defs>
      <path d="M 4.890625 31.390625 
L 31.203125 31.390625 
L 31.203125 23.390625 
L 4.890625 23.390625 
z
" id="DejaVuSans-45"/>
      <path d="M 19.671875 64.796875 
L 19.671875 8.109375 
L 31.59375 8.109375 
Q 46.6875 8.109375 53.6875 14.9375 
Q 60.6875 21.78125 60.6875 36.53125 
Q 60.6875 51.171875 53.6875 57.984375 
Q 46.6875 64.796875 31.59375 64.796875 
z
M 9.8125 72.90625 
L 30.078125 72.90625 
Q 51.265625 72.90625 61.171875 64.09375 
Q 71.09375 55.28125 71.09375 36.53125 
Q 71.09375 17.671875 61.125 8.828125 
Q 51.171875 0 30.078125 0 
L 9.8125 0 
z
" id="DejaVuSans-68"/>
     </defs>
     <use xlink:href="#DejaVuSans-52"/>
     <use x="63.623047" xlink:href="#DejaVuSans-48"/>
     <use x="127.246094" xlink:href="#DejaVuSans-45"/>
     <use x="163.330078" xlink:href="#DejaVuSans-68"/>
    </g>
   </g>
   <g id="text_14">
    <!-- 20-D -->
    <g transform="translate(386.578944 245.292373)scale(0.14 -0.14)">
     <use xlink:href="#DejaVuSans-50"/>
     <use x="63.623047" xlink:href="#DejaVuSans-48"/>
     <use x="127.246094" xlink:href="#DejaVuSans-45"/>
     <use x="163.330078" xlink:href="#DejaVuSans-68"/>
    </g>
   </g>
   <g id="text_15">
    <!-- 10-D -->
    <g transform="translate(386.578944 193.203541)scale(0.14 -0.14)">
     <use xlink:href="#DejaVuSans-49"/>
     <use x="63.623047" xlink:href="#DejaVuSans-48"/>
     <use x="127.246094" xlink:href="#DejaVuSans-45"/>
     <use x="163.330078" xlink:href="#DejaVuSans-68"/>
    </g>
   </g>
   <g id="text_16">
    <!-- 5-D -->
    <g transform="translate(386.578944 141.114709)scale(0.14 -0.14)">
     <defs>
      <path d="M 10.796875 72.90625 
L 49.515625 72.90625 
L 49.515625 64.59375 
L 19.828125 64.59375 
L 19.828125 46.734375 
Q 21.96875 47.46875 24.109375 47.828125 
Q 26.265625 48.1875 28.421875 48.1875 
Q 40.625 48.1875 47.75 41.5 
Q 54.890625 34.8125 54.890625 23.390625 
Q 54.890625 11.625 47.5625 5.09375 
Q 40.234375 -1.421875 26.90625 -1.421875 
Q 22.3125 -1.421875 17.546875 -0.640625 
Q 12.796875 0.140625 7.71875 1.703125 
L 7.71875 11.625 
Q 12.109375 9.234375 16.796875 8.0625 
Q 21.484375 6.890625 26.703125 6.890625 
Q 35.15625 6.890625 40.078125 11.328125 
Q 45.015625 15.765625 45.015625 23.390625 
Q 45.015625 31 40.078125 35.4375 
Q 35.15625 39.890625 26.703125 39.890625 
Q 22.75 39.890625 18.8125 39.015625 
Q 14.890625 38.140625 10.796875 36.28125 
z
" id="DejaVuSans-53"/>
     </defs>
     <use xlink:href="#DejaVuSans-53"/>
     <use x="63.623047" xlink:href="#DejaVuSans-45"/>
     <use x="99.707031" xlink:href="#DejaVuSans-68"/>
    </g>
   </g>
   <g id="text_17">
    <!-- 2-D -->
    <g transform="translate(386.578944 89.025877)scale(0.14 -0.14)">
     <use xlink:href="#DejaVuSans-50"/>
     <use x="63.623047" xlink:href="#DejaVuSans-45"/>
     <use x="99.707031" xlink:href="#DejaVuSans-68"/>
    </g>
   </g>
   <g id="text_18">
    <!-- 3-D -->
    <g transform="translate(386.578944 36.937045)scale(0.14 -0.14)">
     <defs>
      <path d="M 40.578125 39.3125 
Q 47.65625 37.796875 51.625 33 
Q 55.609375 28.21875 55.609375 21.1875 
Q 55.609375 10.40625 48.1875 4.484375 
Q 40.765625 -1.421875 27.09375 -1.421875 
Q 22.515625 -1.421875 17.65625 -0.515625 
Q 12.796875 0.390625 7.625 2.203125 
L 7.625 11.71875 
Q 11.71875 9.328125 16.59375 8.109375 
Q 21.484375 6.890625 26.8125 6.890625 
Q 36.078125 6.890625 40.9375 10.546875 
Q 45.796875 14.203125 45.796875 21.1875 
Q 45.796875 27.640625 41.28125 31.265625 
Q 36.765625 34.90625 28.71875 34.90625 
L 20.21875 34.90625 
L 20.21875 43.015625 
L 29.109375 43.015625 
Q 36.375 43.015625 40.234375 45.921875 
Q 44.09375 48.828125 44.09375 54.296875 
Q 44.09375 59.90625 40.109375 62.90625 
Q 36.140625 65.921875 28.71875 65.921875 
Q 24.65625 65.921875 20.015625 65.03125 
Q 15.375 64.15625 9.8125 62.3125 
L 9.8125 71.09375 
Q 15.4375 72.65625 20.34375 73.4375 
Q 25.25 74.21875 29.59375 74.21875 
Q 40.828125 74.21875 47.359375 69.109375 
Q 53.90625 64.015625 53.90625 55.328125 
Q 53.90625 49.265625 50.4375 45.09375 
Q 46.96875 40.921875 40.578125 39.3125 
z
" id="DejaVuSans-51"/>
     </defs>
     <use xlink:href="#DejaVuSans-51"/>
     <use x="63.623047" xlink:href="#DejaVuSans-45"/>
     <use x="99.707031" xlink:href="#DejaVuSans-68"/>
    </g>
   </g>
   <g id="text_19">
    <!-- bbob-constrained f9 -->
    <g transform="translate(60.632064 38.111366)scale(0.102 -0.102)">
     <defs>
      <path d="M 48.6875 27.296875 
Q 48.6875 37.203125 44.609375 42.84375 
Q 40.53125 48.484375 33.40625 48.484375 
Q 26.265625 48.484375 22.1875 42.84375 
Q 18.109375 37.203125 18.109375 27.296875 
Q 18.109375 17.390625 22.1875 11.75 
Q 26.265625 6.109375 33.40625 6.109375 
Q 40.53125 6.109375 44.609375 11.75 
Q 48.6875 17.390625 48.6875 27.296875 
z
M 18.109375 46.390625 
Q 20.953125 51.265625 25.265625 53.625 
Q 29.59375 56 35.59375 56 
Q 45.5625 56 51.78125 48.09375 
Q 58.015625 40.1875 58.015625 27.296875 
Q 58.015625 14.40625 51.78125 6.484375 
Q 45.5625 -1.421875 35.59375 -1.421875 
Q 29.59375 -1.421875 25.265625 0.953125 
Q 20.953125 3.328125 18.109375 8.203125 
L 18.109375 0 
L 9.078125 0 
L 9.078125 75.984375 
L 18.109375 75.984375 
z
" id="DejaVuSans-98"/>
      <path d="M 10.984375 1.515625 
L 10.984375 10.5 
Q 14.703125 8.734375 18.5 7.8125 
Q 22.3125 6.890625 25.984375 6.890625 
Q 35.75 6.890625 40.890625 13.453125 
Q 46.046875 20.015625 46.78125 33.40625 
Q 43.953125 29.203125 39.59375 26.953125 
Q 35.25 24.703125 29.984375 24.703125 
Q 19.046875 24.703125 12.671875 31.3125 
Q 6.296875 37.9375 6.296875 49.421875 
Q 6.296875 60.640625 12.9375 67.421875 
Q 19.578125 74.21875 30.609375 74.21875 
Q 43.265625 74.21875 49.921875 64.515625 
Q 56.59375 54.828125 56.59375 36.375 
Q 56.59375 19.140625 48.40625 8.859375 
Q 40.234375 -1.421875 26.421875 -1.421875 
Q 22.703125 -1.421875 18.890625 -0.6875 
Q 15.09375 0.046875 10.984375 1.515625 
z
M 30.609375 32.421875 
Q 37.25 32.421875 41.125 36.953125 
Q 45.015625 41.5 45.015625 49.421875 
Q 45.015625 57.28125 41.125 61.84375 
Q 37.25 66.40625 30.609375 66.40625 
Q 23.96875 66.40625 20.09375 61.84375 
Q 16.21875 57.28125 16.21875 49.421875 
Q 16.21875 41.5 20.09375 36.953125 
Q 23.96875 32.421875 30.609375 32.421875 
z
" id="DejaVuSans-57"/>
     </defs>
     <use xlink:href="#DejaVuSans-98"/>
     <use x="63.476562" xlink:href="#DejaVuSans-98"/>
     <use x="126.953125" xlink:href="#DejaVuSans-111"/>
     <use x="188.134766" xlink:href="#DejaVuSans-98"/>
     <use x="251.611328" xlink:href="#DejaVuSans-45"/>
     <use x="287.695312" xlink:href="#DejaVuSans-99"/>
     <use x="342.675781" xlink:href="#DejaVuSans-111"/>
     <use x="403.857422" xlink:href="#DejaVuSans-110"/>
     <use x="467.236328" xlink:href="#DejaVuSans-115"/>
     <use x="519.335938" xlink:href="#DejaVuSans-116"/>
     <use x="558.544922" xlink:href="#DejaVuSans-114"/>
     <use x="599.658203" xlink:href="#DejaVuSans-97"/>
     <use x="660.9375" xlink:href="#DejaVuSans-105"/>
     <use x="688.720703" xlink:href="#DejaVuSans-110"/>
     <use x="752.099609" xlink:href="#DejaVuSans-101"/>
     <use x="813.623047" xlink:href="#DejaVuSans-100"/>
     <use x="877.099609" xlink:href="#DejaVuSans-32"/>
     <use x="908.886719" xlink:href="#DejaVuSans-102"/>
     <use x="944.091797" xlink:href="#DejaVuSans-57"/>
    </g>
    <!-- 41 targets: 100..1e-06 -->
    <g transform="translate(60.632064 49.533135)scale(0.102 -0.102)">
     <defs>
      <path d="M 11.71875 12.40625 
L 22.015625 12.40625 
L 22.015625 0 
L 11.71875 0 
z
M 11.71875 51.703125 
L 22.015625 51.703125 
L 22.015625 39.3125 
L 11.71875 39.3125 
z
" id="DejaVuSans-58"/>
     </defs>
     <use xlink:href="#DejaVuSans-52"/>
     <use x="63.623047" xlink:href="#DejaVuSans-49"/>
     <use x="127.246094" xlink:href="#DejaVuSans-32"/>
     <use x="159.033203" xlink:href="#DejaVuSans-116"/>
     <use x="198.242188" xlink:href="#DejaVuSans-97"/>
     <use x="259.521484" xlink:href="#DejaVuSans-114"/>
     <use x="298.884766" xlink:href="#DejaVuSans-103"/>
     <use x="362.361328" xlink:href="#DejaVuSans-101"/>
     <use x="423.884766" xlink:href="#DejaVuSans-116"/>
     <use x="463.09375" xlink:href="#DejaVuSans-115"/>
     <use x="515.193359" xlink:href="#DejaVuSans-58"/>
     <use x="548.884766" xlink:href="#DejaVuSans-32"/>
     <use x="580.671875" xlink:href="#DejaVuSans-49"/>
     <use x="644.294922" xlink:href="#DejaVuSans-48"/>
     <use x="707.917969" xlink:href="#DejaVuSans-48"/>
     <use x="771.541016" xlink:href="#DejaVuSans-46"/>
     <use x="803.328125" xlink:href="#DejaVuSans-46"/>
     <use x="835.115234" xlink:href="#DejaVuSans-49"/>
     <use x="898.738281" xlink:href="#DejaVuSans-101"/>
     <use x="960.261719" xlink:href="#DejaVuSans-45"/>
     <use x="996.345703" xlink:href="#DejaVuSans-48"/>
     <use x="1059.96875" xlink:href="#DejaVuSans-54"/>
    </g>
    <!-- evals = f-evals + g-evals -->
    <g transform="translate(60.632064 60.954904)scale(0.102 -0.102)">
     <defs>
      <path d="M 10.59375 45.40625 
L 73.1875 45.40625 
L 73.1875 37.203125 
L 10.59375 37.203125 
z
M 10.59375 25.484375 
L 73.1875 25.484375 
L 73.1875 17.1875 
L 10.59375 17.1875 
z
" id="DejaVuSans-61"/>
      <path d="M 46 62.703125 
L 46 35.5 
L 73.1875 35.5 
L 73.1875 27.203125 
L 46 27.203125 
L 46 0 
L 37.796875 0 
L 37.796875 27.203125 
L 10.59375 27.203125 
L 10.59375 35.5 
L 37.796875 35.5 
L 37.796875 62.703125 
z
" id="DejaVuSans-43"/>
     </defs>
     <use xlink:href="#DejaVuSans-101"/>
     <use x="61.523438" xlink:href="#DejaVuSans-118"/>
     <use x="120.703125" xlink:href="#DejaVuSans-97"/>
     <use x="181.982422" xlink:href="#DejaVuSans-108"/>
     <use x="209.765625" xlink:href="#DejaVuSans-115"/>
     <use x="261.865234" xlink:href="#DejaVuSans-32"/>
     <use x="293.652344" xlink:href="#DejaVuSans-61"/>
     <use x="377.441406" xlink:href="#DejaVuSans-32"/>
     <use x="409.228516" xlink:href="#DejaVuSans-102"/>
     <use x="438.933594" xlink:href="#DejaVuSans-45"/>
     <use x="475.017578" xlink:href="#DejaVuSans-101"/>
     <use x="536.541016" xlink:href="#DejaVuSans-118"/>
     <use x="595.720703" xlink:href="#DejaVuSans-97"/>
     <use x="657" xlink:href="#DejaVuSans-108"/>
     <use x="684.783203" xlink:href="#DejaVuSans-115"/>
     <use x="736.882812" xlink:href="#DejaVuSans-32"/>
     <use x="768.669922" xlink:href="#DejaVuSans-43"/>
     <use x="852.458984" xlink:href="#DejaVuSans-32"/>
     <use x="884.246094" xlink:href="#DejaVuSans-103"/>
     <use x="947.722656" xlink:href="#DejaVuSans-45"/>
     <use x="983.806641" xlink:href="#DejaVuSans-101"/>
     <use x="1045.330078" xlink:href="#DejaVuSans-118"/>
     <use x="1104.509766" xlink:href="#DejaVuSans-97"/>
     <use x="1165.789062" xlink:href="#DejaVuSans-108"/>
     <use x="1193.572266" xlink:href="#DejaVuSans-115"/>
    </g>
    <!-- 15 instances -->
    <g transform="translate(60.632064 72.376672)scale(0.102 -0.102)">
     <use xlink:href="#DejaVuSans-49"/>
     <use x="63.623047" xlink:href="#DejaVuSans-53"/>
     <use x="127.246094" xlink:href="#DejaVuSans-32"/>
     <use x="159.033203" xlink:href="#DejaVuSans-105"/>
     <use x="186.816406" xlink:href="#DejaVuSans-110"/>
     <use x="250.195312" xlink:href="#DejaVuSans-115"/>
     <use x="302.294922" xlink:href="#DejaVuSans-116"/>
     <use x="341.503906" xlink:href="#DejaVuSans-97"/>
     <use x="402.783203" xlink:href="#DejaVuSans-110"/>
     <use x="466.162109" xlink:href="#DejaVuSans-99"/>
     <use x="521.142578" xlink:href="#DejaVuSans-101"/>
     <use x="582.666016" xlink:href="#DejaVuSans-115"/>
    </g>
   </g>
   <g id="text_20">
    <!-- v2.4.161 -->
    <g style="fill:#808080;" transform="translate(187.15945 294.151352)scale(0.1 -0.1)">
     <use xlink:href="#DejaVuSans-118"/>
     <use x="59.179688" xlink:href="#DejaVuSans-50"/>
     <use x="122.802734" xlink:href="#DejaVuSans-46"/>
     <use x="154.589844" xlink:href="#DejaVuSans-52"/>
     <use x="218.212891" xlink:href="#DejaVuSans-46"/>
     <use x="250" xlink:href="#DejaVuSans-49"/>
     <use x="313.623047" xlink:href="#DejaVuSans-54"/>
     <use x="377.246094" xlink:href="#DejaVuSans-49"/>
    </g>
   </g>
   <g id="text_21">
    <!-- 9 Sep. Ellipsoid, m=9 -->
    <g transform="translate(102.161012 21.648)scale(0.2 -0.2)">
     <defs>
      <path d="M 53.515625 70.515625 
L 53.515625 60.890625 
Q 47.90625 63.578125 42.921875 64.890625 
Q 37.9375 66.21875 33.296875 66.21875 
Q 25.25 66.21875 20.875 63.09375 
Q 16.5 59.96875 16.5 54.203125 
Q 16.5 49.359375 19.40625 46.890625 
Q 22.3125 44.4375 30.421875 42.921875 
L 36.375 41.703125 
Q 47.40625 39.59375 52.65625 34.296875 
Q 57.90625 29 57.90625 20.125 
Q 57.90625 9.515625 50.796875 4.046875 
Q 43.703125 -1.421875 29.984375 -1.421875 
Q 24.8125 -1.421875 18.96875 -0.25 
Q 13.140625 0.921875 6.890625 3.21875 
L 6.890625 13.375 
Q 12.890625 10.015625 18.65625 8.296875 
Q 24.421875 6.59375 29.984375 6.59375 
Q 38.421875 6.59375 43.015625 9.90625 
Q 47.609375 13.234375 47.609375 19.390625 
Q 47.609375 24.75 44.3125 27.78125 
Q 41.015625 30.8125 33.5 32.328125 
L 27.484375 33.5 
Q 16.453125 35.6875 11.515625 40.375 
Q 6.59375 45.0625 6.59375 53.421875 
Q 6.59375 63.09375 13.40625 68.65625 
Q 20.21875 74.21875 32.171875 74.21875 
Q 37.3125 74.21875 42.625 73.28125 
Q 47.953125 72.359375 53.515625 70.515625 
z
" id="DejaVuSans-83"/>
      <path d="M 9.8125 72.90625 
L 55.90625 72.90625 
L 55.90625 64.59375 
L 19.671875 64.59375 
L 19.671875 43.015625 
L 54.390625 43.015625 
L 54.390625 34.71875 
L 19.671875 34.71875 
L 19.671875 8.296875 
L 56.78125 8.296875 
L 56.78125 0 
L 9.8125 0 
z
" id="DejaVuSans-69"/>
     </defs>
     <use xlink:href="#DejaVuSans-57"/>
     <use x="63.623047" xlink:href="#DejaVuSans-32"/>
     <use x="95.410156" xlink:href="#DejaVuSans-83"/>
     <use x="158.886719" xlink:href="#DejaVuSans-101"/>
     <use x="220.410156" xlink:href="#DejaVuSans-112"/>
     <use x="283.886719" xlink:href="#DejaVuSans-46"/>
     <use x="315.673828" xlink:href="#DejaVuSans-32"/>
     <use x="347.460938" xlink:href="#DejaVuSans-69"/>
     <use x="410.644531" xlink:href="#DejaVuSans-108"/>
     <use x="438.427734" xlink:href="#DejaVuSans-108"/>
     <use x="466.210938" xlink:href="#DejaVuSans-105"/>
     <use x="493.994141" xlink:href="#DejaVuSans-112"/>
     <use x="557.470703" xlink:href="#DejaVuSans-115"/>
     <use x="609.570312" xlink:href="#DejaVuSans-111"/>
     <use x="670.751953" xlink:href="#DejaVuSans-105"/>
     <use x="698.535156" xlink:href="#DejaVuSans-100"/>
     <use x="762.011719" xlink:href="#DejaVuSans-44"/>
     <use x="793.798828" xlink:href="#DejaVuSans-32"/>
     <use x="825.585938" xlink:href="#DejaVuSans-109"/>
     <use x="922.998047" xlink:href="#DejaVuSans-61"/>
     <use x="1006.787109" xlink:href="#DejaVuSans-57"/>
    </g>
   </g>
  </g>
 </g>
 <defs>
  <clipPath id="p52d9e771d4">
   <rect height="271.296" width="303.2064" x="57.6" y="27.648"/>
  </clipPath>
 </defs>
</svg>
