<?xml version="1.0" encoding="utf-8" standalone="no"?>
<!DOCTYPE svg PUBLIC "-//W3C//DTD SVG 1.1//EN"
  "http://www.w3.org/Graphics/SVG/1.1/DTD/svg11.dtd">
<!-- Created with matplotlib (https://matplotlib.org/) -->
<svg height="345.6pt" version="1.1" viewBox="0 0 460.8 345.6" width="460.8pt" xmlns="http://www.w3.org/2000/svg" xmlns:xlink="http://www.w3.org/1999/xlink">
 <metadata>
  <rdf:RDF xmlns:cc="http://creativecommons.org/ns#" xmlns:dc="http://purl.org/dc/elements/1.1/" xmlns:rdf="http://www.w3.org/1999/02/22-rdf-syntax-ns#">
   <cc:Work>
    <dc:type rdf:resource="http://purl.org/dc/dcmitype/StillImage"/>
    <dc:date>2022-02-09T00:08:39.224163</dc:date>
    <dc:format>image/svg+xml</dc:format>
    <dc:creator>
     <cc:Agent>
      <dc:title>Matplotlib v3.3.3, https://matplotlib.org/</dc:title>
     </cc:Agent>
    </dc:creator>
   </cc:Work>
  </rdf:RDF>
 </metadata>
 <defs>
  <style type="text/css">*{stroke-linecap:butt;stroke-linejoin:round;}</style>
 </defs>
 <g id="figure_1">
  <g id="patch_1">
   <path d="M 0 345.6 
L 460.8 345.6 
L 460.8 0 
L 0 0 
z
" style="fill:#ffffff;"/>
  </g>
  <g id="axes_1">
   <g id="patch_2">
    <path d="M 57.6 298.944 
L 360.8064 298.944 
L 360.8064 6.912 
L 57.6 6.912 
z
" style="fill:#ffffff;"/>
   </g>
   <g id="matplotlib.axis_1">
    <g id="xtick_1">
     <g id="line2d_1">
      <path clip-path="url(#p46c4f08d4e)" d="M 57.6 298.944 
L 57.6 6.912 
" style="fill:none;stroke:#b0b0b0;stroke-linecap:square;stroke-width:0.8;"/>
     </g>
     <g id="line2d_2">
      <defs>
       <path d="M 0 0 
L 0 3.5 
" id="mde915dbb0a" style="stroke:#000000;stroke-width:0.8;"/>
      </defs>
      <g>
       <use style="stroke:#000000;stroke-width:0.8;" x="57.6" xlink:href="#mde915dbb0a" y="298.944"/>
      </g>
     </g>
     <g id="text_1">
      <!-- 0 -->
      <g transform="translate(52.191875 318.861344)scale(0.17 -0.17)">
       <defs>
        <path d="M 31.78125 66.40625 
Q 24.171875 66.40625 20.328125 58.90625 
Q 16.5 51.421875 16.5 36.375 
Q 16.5 21.390625 20.328125 13.890625 
Q 24.171875 6.390625 31.78125 6.390625 
Q 39.453125 6.390625 43.28125 13.890625 
Q 47.125 21.390625 47.125 36.375 
Q 47.125 51.421875 43.28125 58.90625 
Q 39.453125 66.40625 31.78125 66.40625 
z
M 31.78125 74.21875 
Q 44.046875 74.21875 50.515625 64.515625 
Q 56.984375 54.828125 56.984375 36.375 
Q 56.984375 17.96875 50.515625 8.265625 
Q 44.046875 -1.421875 31.78125 -1.421875 
Q 19.53125 -1.421875 13.0625 8.265625 
Q 6.59375 17.96875 6.59375 36.375 
Q 6.59375 54.828125 13.0625 64.515625 
Q 19.53125 74.21875 31.78125 74.21875 
z
" id="DejaVuSans-48"/>
       </defs>
       <use xlink:href="#DejaVuSans-48"/>
      </g>
     </g>
    </g>
    <g id="xtick_2">
     <g id="line2d_3">
      <path clip-path="url(#p46c4f08d4e)" d="M 144.2304 298.944 
L 144.2304 6.912 
" style="fill:none;stroke:#b0b0b0;stroke-linecap:square;stroke-width:0.8;"/>
     </g>
     <g id="line2d_4">
      <g>
       <use style="stroke:#000000;stroke-width:0.8;" x="144.2304" xlink:href="#mde915dbb0a" y="298.944"/>
      </g>
     </g>
     <g id="text_2">
      <!-- 2 -->
      <g transform="translate(138.822275 318.861344)scale(0.17 -0.17)">
       <defs>
        <path d="M 19.1875 8.296875 
L 53.609375 8.296875 
L 53.609375 0 
L 7.328125 0 
L 7.328125 8.296875 
Q 12.9375 14.109375 22.625 23.890625 
Q 32.328125 33.6875 34.8125 36.53125 
Q 39.546875 41.84375 41.421875 45.53125 
Q 43.3125 49.21875 43.3125 52.78125 
Q 43.3125 58.59375 39.234375 62.25 
Q 35.15625 65.921875 28.609375 65.921875 
Q 23.96875 65.921875 18.8125 64.3125 
Q 13.671875 62.703125 7.8125 59.421875 
L 7.8125 69.390625 
Q 13.765625 71.78125 18.9375 73 
Q 24.125 74.21875 28.421875 74.21875 
Q 39.75 74.21875 46.484375 68.546875 
Q 53.21875 62.890625 53.21875 53.421875 
Q 53.21875 48.921875 51.53125 44.890625 
Q 49.859375 40.875 45.40625 35.40625 
Q 44.1875 33.984375 37.640625 27.21875 
Q 31.109375 20.453125 19.1875 8.296875 
z
" id="DejaVuSans-50"/>
       </defs>
       <use xlink:href="#DejaVuSans-50"/>
      </g>
     </g>
    </g>
    <g id="xtick_3">
     <g id="line2d_5">
      <path clip-path="url(#p46c4f08d4e)" d="M 230.8608 298.944 
L 230.8608 6.912 
" style="fill:none;stroke:#b0b0b0;stroke-linecap:square;stroke-width:0.8;"/>
     </g>
     <g id="line2d_6">
      <g>
       <use style="stroke:#000000;stroke-width:0.8;" x="230.8608" xlink:href="#mde915dbb0a" y="298.944"/>
      </g>
     </g>
     <g id="text_3">
      <!-- 4 -->
      <g transform="translate(225.452675 318.861344)scale(0.17 -0.17)">
       <defs>
        <path d="M 37.796875 64.3125 
L 12.890625 25.390625 
L 37.796875 25.390625 
z
M 35.203125 72.90625 
L 47.609375 72.90625 
L 47.609375 25.390625 
L 58.015625 25.390625 
L 58.015625 17.1875 
L 47.609375 17.1875 
L 47.609375 0 
L 37.796875 0 
L 37.796875 17.1875 
L 4.890625 17.1875 
L 4.890625 26.703125 
z
" id="DejaVuSans-52"/>
       </defs>
       <use xlink:href="#DejaVuSans-52"/>
      </g>
     </g>
    </g>
    <g id="xtick_4">
     <g id="line2d_7">
      <path clip-path="url(#p46c4f08d4e)" d="M 317.4912 298.944 
L 317.4912 6.912 
" style="fill:none;stroke:#b0b0b0;stroke-linecap:square;stroke-width:0.8;"/>
     </g>
     <g id="line2d_8">
      <g>
       <use style="stroke:#000000;stroke-width:0.8;" x="317.4912" xlink:href="#mde915dbb0a" y="298.944"/>
      </g>
     </g>
     <g id="text_4">
      <!-- 6 -->
      <g transform="translate(312.083075 318.861344)scale(0.17 -0.17)">
       <defs>
        <path d="M 33.015625 40.375 
Q 26.375 40.375 22.484375 35.828125 
Q 18.609375 31.296875 18.609375 23.390625 
Q 18.609375 15.53125 22.484375 10.953125 
Q 26.375 6.390625 33.015625 6.390625 
Q 39.65625 6.390625 43.53125 10.953125 
Q 47.40625 15.53125 47.40625 23.390625 
Q 47.40625 31.296875 43.53125 35.828125 
Q 39.65625 40.375 33.015625 40.375 
z
M 52.59375 71.296875 
L 52.59375 62.3125 
Q 48.875 64.0625 45.09375 64.984375 
Q 41.3125 65.921875 37.59375 65.921875 
Q 27.828125 65.921875 22.671875 59.328125 
Q 17.53125 52.734375 16.796875 39.40625 
Q 19.671875 43.65625 24.015625 45.921875 
Q 28.375 48.1875 33.59375 48.1875 
Q 44.578125 48.1875 50.953125 41.515625 
Q 57.328125 34.859375 57.328125 23.390625 
Q 57.328125 12.15625 50.6875 5.359375 
Q 44.046875 -1.421875 33.015625 -1.421875 
Q 20.359375 -1.421875 13.671875 8.265625 
Q 6.984375 17.96875 6.984375 36.375 
Q 6.984375 53.65625 15.1875 63.9375 
Q 23.390625 74.21875 37.203125 74.21875 
Q 40.921875 74.21875 44.703125 73.484375 
Q 48.484375 72.75 52.59375 71.296875 
z
" id="DejaVuSans-54"/>
       </defs>
       <use xlink:href="#DejaVuSans-54"/>
      </g>
     </g>
    </g>
    <g id="xtick_5">
     <g id="line2d_9">
      <path clip-path="url(#p46c4f08d4e)" d="M 100.9152 298.944 
L 100.9152 6.912 
" style="fill:none;stroke:#b0b0b0;stroke-linecap:square;stroke-width:0.8;"/>
     </g>
     <g id="line2d_10">
      <defs>
       <path d="M 0 0 
L 0 2 
" id="mbaf5dec513" style="stroke:#000000;stroke-width:0.6;"/>
      </defs>
      <g>
       <use style="stroke:#000000;stroke-width:0.6;" x="100.9152" xlink:href="#mbaf5dec513" y="298.944"/>
      </g>
     </g>
    </g>
    <g id="xtick_6">
     <g id="line2d_11">
      <path clip-path="url(#p46c4f08d4e)" d="M 187.5456 298.944 
L 187.5456 6.912 
" style="fill:none;stroke:#b0b0b0;stroke-linecap:square;stroke-width:0.8;"/>
     </g>
     <g id="line2d_12">
      <g>
       <use style="stroke:#000000;stroke-width:0.6;" x="187.5456" xlink:href="#mbaf5dec513" y="298.944"/>
      </g>
     </g>
    </g>
    <g id="xtick_7">
     <g id="line2d_13">
      <path clip-path="url(#p46c4f08d4e)" d="M 274.176 298.944 
L 274.176 6.912 
" style="fill:none;stroke:#b0b0b0;stroke-linecap:square;stroke-width:0.8;"/>
     </g>
     <g id="line2d_14">
      <g>
       <use style="stroke:#000000;stroke-width:0.6;" x="274.176" xlink:href="#mbaf5dec513" y="298.944"/>
      </g>
     </g>
    </g>
    <g id="xtick_8">
     <g id="line2d_15">
      <path clip-path="url(#p46c4f08d4e)" d="M 360.8064 298.944 
L 360.8064 6.912 
" style="fill:none;stroke:#b0b0b0;stroke-linecap:square;stroke-width:0.8;"/>
     </g>
     <g id="line2d_16">
      <g>
       <use style="stroke:#000000;stroke-width:0.6;" x="360.8064" xlink:href="#mbaf5dec513" y="298.944"/>
      </g>
     </g>
    </g>
    <g id="text_5">
     <!-- log10(evals / dimension) -->
     <g transform="translate(104.238825 339.314156)scale(0.17 -0.17)">
      <defs>
       <path d="M 9.421875 75.984375 
L 18.40625 75.984375 
L 18.40625 0 
L 9.421875 0 
z
" id="DejaVuSans-108"/>
       <path d="M 30.609375 48.390625 
Q 23.390625 48.390625 19.1875 42.75 
Q 14.984375 37.109375 14.984375 27.296875 
Q 14.984375 17.484375 19.15625 11.84375 
Q 23.34375 6.203125 30.609375 6.203125 
Q 37.796875 6.203125 41.984375 11.859375 
Q 46.1875 17.53125 46.1875 27.296875 
Q 46.1875 37.015625 41.984375 42.703125 
Q 37.796875 48.390625 30.609375 48.390625 
z
M 30.609375 56 
Q 42.328125 56 49.015625 48.375 
Q 55.71875 40.765625 55.71875 27.296875 
Q 55.71875 13.875 49.015625 6.21875 
Q 42.328125 -1.421875 30.609375 -1.421875 
Q 18.84375 -1.421875 12.171875 6.21875 
Q 5.515625 13.875 5.515625 27.296875 
Q 5.515625 40.765625 12.171875 48.375 
Q 18.84375 56 30.609375 56 
z
" id="DejaVuSans-111"/>
       <path d="M 45.40625 27.984375 
Q 45.40625 37.75 41.375 43.109375 
Q 37.359375 48.484375 30.078125 48.484375 
Q 22.859375 48.484375 18.828125 43.109375 
Q 14.796875 37.75 14.796875 27.984375 
Q 14.796875 18.265625 18.828125 12.890625 
Q 22.859375 7.515625 30.078125 7.515625 
Q 37.359375 7.515625 41.375 12.890625 
Q 45.40625 18.265625 45.40625 27.984375 
z
M 54.390625 6.78125 
Q 54.390625 -7.171875 48.1875 -13.984375 
Q 42 -20.796875 29.203125 -20.796875 
Q 24.46875 -20.796875 20.265625 -20.09375 
Q 16.0625 -19.390625 12.109375 -17.921875 
L 12.109375 -9.1875 
Q 16.0625 -11.328125 19.921875 -12.34375 
Q 23.78125 -13.375 27.78125 -13.375 
Q 36.625 -13.375 41.015625 -8.765625 
Q 45.40625 -4.15625 45.40625 5.171875 
L 45.40625 9.625 
Q 42.625 4.78125 38.28125 2.390625 
Q 33.9375 0 27.875 0 
Q 17.828125 0 11.671875 7.65625 
Q 5.515625 15.328125 5.515625 27.984375 
Q 5.515625 40.671875 11.671875 48.328125 
Q 17.828125 56 27.875 56 
Q 33.9375 56 38.28125 53.609375 
Q 42.625 51.21875 45.40625 46.390625 
L 45.40625 54.6875 
L 54.390625 54.6875 
z
" id="DejaVuSans-103"/>
       <path d="M 12.40625 8.296875 
L 28.515625 8.296875 
L 28.515625 63.921875 
L 10.984375 60.40625 
L 10.984375 69.390625 
L 28.421875 72.90625 
L 38.28125 72.90625 
L 38.28125 8.296875 
L 54.390625 8.296875 
L 54.390625 0 
L 12.40625 0 
z
" id="DejaVuSans-49"/>
       <path d="M 31 75.875 
Q 24.46875 64.65625 21.28125 53.65625 
Q 18.109375 42.671875 18.109375 31.390625 
Q 18.109375 20.125 21.3125 9.0625 
Q 24.515625 -2 31 -13.1875 
L 23.1875 -13.1875 
Q 15.875 -1.703125 12.234375 9.375 
Q 8.59375 20.453125 8.59375 31.390625 
Q 8.59375 42.28125 12.203125 53.3125 
Q 15.828125 64.359375 23.1875 75.875 
z
" id="DejaVuSans-40"/>
       <path d="M 56.203125 29.59375 
L 56.203125 25.203125 
L 14.890625 25.203125 
Q 15.484375 15.921875 20.484375 11.0625 
Q 25.484375 6.203125 34.421875 6.203125 
Q 39.59375 6.203125 44.453125 7.46875 
Q 49.3125 8.734375 54.109375 11.28125 
L 54.109375 2.78125 
Q 49.265625 0.734375 44.1875 -0.34375 
Q 39.109375 -1.421875 33.890625 -1.421875 
Q 20.796875 -1.421875 13.15625 6.1875 
Q 5.515625 13.8125 5.515625 26.8125 
Q 5.515625 40.234375 12.765625 48.109375 
Q 20.015625 56 32.328125 56 
Q 43.359375 56 49.78125 48.890625 
Q 56.203125 41.796875 56.203125 29.59375 
z
M 47.21875 32.234375 
Q 47.125 39.59375 43.09375 43.984375 
Q 39.0625 48.390625 32.421875 48.390625 
Q 24.90625 48.390625 20.390625 44.140625 
Q 15.875 39.890625 15.1875 32.171875 
z
" id="DejaVuSans-101"/>
       <path d="M 2.984375 54.6875 
L 12.5 54.6875 
L 29.59375 8.796875 
L 46.6875 54.6875 
L 56.203125 54.6875 
L 35.6875 0 
L 23.484375 0 
z
" id="DejaVuSans-118"/>
       <path d="M 34.28125 27.484375 
Q 23.390625 27.484375 19.1875 25 
Q 14.984375 22.515625 14.984375 16.5 
Q 14.984375 11.71875 18.140625 8.90625 
Q 21.296875 6.109375 26.703125 6.109375 
Q 34.1875 6.109375 38.703125 11.40625 
Q 43.21875 16.703125 43.21875 25.484375 
L 43.21875 27.484375 
z
M 52.203125 31.203125 
L 52.203125 0 
L 43.21875 0 
L 43.21875 8.296875 
Q 40.140625 3.328125 35.546875 0.953125 
Q 30.953125 -1.421875 24.3125 -1.421875 
Q 15.921875 -1.421875 10.953125 3.296875 
Q 6 8.015625 6 15.921875 
Q 6 25.140625 12.171875 29.828125 
Q 18.359375 34.515625 30.609375 34.515625 
L 43.21875 34.515625 
L 43.21875 35.40625 
Q 43.21875 41.609375 39.140625 45 
Q 35.0625 48.390625 27.6875 48.390625 
Q 23 48.390625 18.546875 47.265625 
Q 14.109375 46.140625 10.015625 43.890625 
L 10.015625 52.203125 
Q 14.9375 54.109375 19.578125 55.046875 
Q 24.21875 56 28.609375 56 
Q 40.484375 56 46.34375 49.84375 
Q 52.203125 43.703125 52.203125 31.203125 
z
" id="DejaVuSans-97"/>
       <path d="M 44.28125 53.078125 
L 44.28125 44.578125 
Q 40.484375 46.53125 36.375 47.5 
Q 32.28125 48.484375 27.875 48.484375 
Q 21.1875 48.484375 17.84375 46.4375 
Q 14.5 44.390625 14.5 40.28125 
Q 14.5 37.15625 16.890625 35.375 
Q 19.28125 33.59375 26.515625 31.984375 
L 29.59375 31.296875 
Q 39.15625 29.25 43.1875 25.515625 
Q 47.21875 21.78125 47.21875 15.09375 
Q 47.21875 7.46875 41.1875 3.015625 
Q 35.15625 -1.421875 24.609375 -1.421875 
Q 20.21875 -1.421875 15.453125 -0.5625 
Q 10.6875 0.296875 5.421875 2 
L 5.421875 11.28125 
Q 10.40625 8.6875 15.234375 7.390625 
Q 20.0625 6.109375 24.8125 6.109375 
Q 31.15625 6.109375 34.5625 8.28125 
Q 37.984375 10.453125 37.984375 14.40625 
Q 37.984375 18.0625 35.515625 20.015625 
Q 33.0625 21.96875 24.703125 23.78125 
L 21.578125 24.515625 
Q 13.234375 26.265625 9.515625 29.90625 
Q 5.8125 33.546875 5.8125 39.890625 
Q 5.8125 47.609375 11.28125 51.796875 
Q 16.75 56 26.8125 56 
Q 31.78125 56 36.171875 55.265625 
Q 40.578125 54.546875 44.28125 53.078125 
z
" id="DejaVuSans-115"/>
       <path id="DejaVuSans-32"/>
       <path d="M 25.390625 72.90625 
L 33.6875 72.90625 
L 8.296875 -9.28125 
L 0 -9.28125 
z
" id="DejaVuSans-47"/>
       <path d="M 45.40625 46.390625 
L 45.40625 75.984375 
L 54.390625 75.984375 
L 54.390625 0 
L 45.40625 0 
L 45.40625 8.203125 
Q 42.578125 3.328125 38.25 0.953125 
Q 33.9375 -1.421875 27.875 -1.421875 
Q 17.96875 -1.421875 11.734375 6.484375 
Q 5.515625 14.40625 5.515625 27.296875 
Q 5.515625 40.1875 11.734375 48.09375 
Q 17.96875 56 27.875 56 
Q 33.9375 56 38.25 53.625 
Q 42.578125 51.265625 45.40625 46.390625 
z
M 14.796875 27.296875 
Q 14.796875 17.390625 18.875 11.75 
Q 22.953125 6.109375 30.078125 6.109375 
Q 37.203125 6.109375 41.296875 11.75 
Q 45.40625 17.390625 45.40625 27.296875 
Q 45.40625 37.203125 41.296875 42.84375 
Q 37.203125 48.484375 30.078125 48.484375 
Q 22.953125 48.484375 18.875 42.84375 
Q 14.796875 37.203125 14.796875 27.296875 
z
" id="DejaVuSans-100"/>
       <path d="M 9.421875 54.6875 
L 18.40625 54.6875 
L 18.40625 0 
L 9.421875 0 
z
M 9.421875 75.984375 
L 18.40625 75.984375 
L 18.40625 64.59375 
L 9.421875 64.59375 
z
" id="DejaVuSans-105"/>
       <path d="M 52 44.1875 
Q 55.375 50.25 60.0625 53.125 
Q 64.75 56 71.09375 56 
Q 79.640625 56 84.28125 50.015625 
Q 88.921875 44.046875 88.921875 33.015625 
L 88.921875 0 
L 79.890625 0 
L 79.890625 32.71875 
Q 79.890625 40.578125 77.09375 44.375 
Q 74.3125 48.1875 68.609375 48.1875 
Q 61.625 48.1875 57.5625 43.546875 
Q 53.515625 38.921875 53.515625 30.90625 
L 53.515625 0 
L 44.484375 0 
L 44.484375 32.71875 
Q 44.484375 40.625 41.703125 44.40625 
Q 38.921875 48.1875 33.109375 48.1875 
Q 26.21875 48.1875 22.15625 43.53125 
Q 18.109375 38.875 18.109375 30.90625 
L 18.109375 0 
L 9.078125 0 
L 9.078125 54.6875 
L 18.109375 54.6875 
L 18.109375 46.1875 
Q 21.1875 51.21875 25.484375 53.609375 
Q 29.78125 56 35.6875 56 
Q 41.65625 56 45.828125 52.96875 
Q 50 49.953125 52 44.1875 
z
" id="DejaVuSans-109"/>
       <path d="M 54.890625 33.015625 
L 54.890625 0 
L 45.90625 0 
L 45.90625 32.71875 
Q 45.90625 40.484375 42.875 44.328125 
Q 39.84375 48.1875 33.796875 48.1875 
Q 26.515625 48.1875 22.3125 43.546875 
Q 18.109375 38.921875 18.109375 30.90625 
L 18.109375 0 
L 9.078125 0 
L 9.078125 54.6875 
L 18.109375 54.6875 
L 18.109375 46.1875 
Q 21.34375 51.125 25.703125 53.5625 
Q 30.078125 56 35.796875 56 
Q 45.21875 56 50.046875 50.171875 
Q 54.890625 44.34375 54.890625 33.015625 
z
" id="DejaVuSans-110"/>
       <path d="M 8.015625 75.875 
L 15.828125 75.875 
Q 23.140625 64.359375 26.78125 53.3125 
Q 30.421875 42.28125 30.421875 31.390625 
Q 30.421875 20.453125 26.78125 9.375 
Q 23.140625 -1.703125 15.828125 -13.1875 
L 8.015625 -13.1875 
Q 14.5 -2 17.703125 9.0625 
Q 20.90625 20.125 20.90625 31.390625 
Q 20.90625 42.671875 17.703125 53.65625 
Q 14.5 64.65625 8.015625 75.875 
z
" id="DejaVuSans-41"/>
      </defs>
      <use xlink:href="#DejaVuSans-108"/>
      <use x="27.783203" xlink:href="#DejaVuSans-111"/>
      <use x="88.964844" xlink:href="#DejaVuSans-103"/>
      <use x="152.441406" xlink:href="#DejaVuSans-49"/>
      <use x="216.064453" xlink:href="#DejaVuSans-48"/>
      <use x="279.6875" xlink:href="#DejaVuSans-40"/>
      <use x="318.701172" xlink:href="#DejaVuSans-101"/>
      <use x="380.224609" xlink:href="#DejaVuSans-118"/>
      <use x="439.404297" xlink:href="#DejaVuSans-97"/>
      <use x="500.683594" xlink:href="#DejaVuSans-108"/>
      <use x="528.466797" xlink:href="#DejaVuSans-115"/>
      <use x="580.566406" xlink:href="#DejaVuSans-32"/>
      <use x="612.353516" xlink:href="#DejaVuSans-47"/>
      <use x="646.044922" xlink:href="#DejaVuSans-32"/>
      <use x="677.832031" xlink:href="#DejaVuSans-100"/>
      <use x="741.308594" xlink:href="#DejaVuSans-105"/>
      <use x="769.091797" xlink:href="#DejaVuSans-109"/>
      <use x="866.503906" xlink:href="#DejaVuSans-101"/>
      <use x="928.027344" xlink:href="#DejaVuSans-110"/>
      <use x="991.40625" xlink:href="#DejaVuSans-115"/>
      <use x="1043.505859" xlink:href="#DejaVuSans-105"/>
      <use x="1071.289062" xlink:href="#DejaVuSans-111"/>
      <use x="1132.470703" xlink:href="#DejaVuSans-110"/>
      <use x="1195.849609" xlink:href="#DejaVuSans-41"/>
     </g>
    </g>
   </g>
   <g id="matplotlib.axis_2">
    <g id="ytick_1">
     <g id="line2d_17">
      <path clip-path="url(#p46c4f08d4e)" d="M 57.6 298.944 
L 360.8064 298.944 
" style="fill:none;stroke:#b0b0b0;stroke-linecap:square;stroke-width:0.8;"/>
     </g>
     <g id="line2d_18">
      <defs>
       <path d="M 0 0 
L -3.5 0 
" id="m329db087e4" style="stroke:#000000;stroke-width:0.8;"/>
      </defs>
      <g>
       <use style="stroke:#000000;stroke-width:0.8;" x="57.6" xlink:href="#m329db087e4" y="298.944"/>
      </g>
     </g>
     <g id="text_6">
      <!-- 0.0 -->
      <g transform="translate(25.155 305.02275)scale(0.16 -0.16)">
       <defs>
        <path d="M 10.6875 12.40625 
L 21 12.40625 
L 21 0 
L 10.6875 0 
z
" id="DejaVuSans-46"/>
       </defs>
       <use xlink:href="#DejaVuSans-48"/>
       <use x="63.623047" xlink:href="#DejaVuSans-46"/>
       <use x="95.410156" xlink:href="#DejaVuSans-48"/>
      </g>
     </g>
    </g>
    <g id="ytick_2">
     <g id="line2d_19">
      <path clip-path="url(#p46c4f08d4e)" d="M 57.6 240.5376 
L 360.8064 240.5376 
" style="fill:none;stroke:#b0b0b0;stroke-linecap:square;stroke-width:0.8;"/>
     </g>
     <g id="line2d_20">
      <g>
       <use style="stroke:#000000;stroke-width:0.8;" x="57.6" xlink:href="#m329db087e4" y="240.5376"/>
      </g>
     </g>
     <g id="text_7">
      <!-- 0.2 -->
      <g transform="translate(25.155 246.61635)scale(0.16 -0.16)">
       <use xlink:href="#DejaVuSans-48"/>
       <use x="63.623047" xlink:href="#DejaVuSans-46"/>
       <use x="95.410156" xlink:href="#DejaVuSans-50"/>
      </g>
     </g>
    </g>
    <g id="ytick_3">
     <g id="line2d_21">
      <path clip-path="url(#p46c4f08d4e)" d="M 57.6 182.1312 
L 360.8064 182.1312 
" style="fill:none;stroke:#b0b0b0;stroke-linecap:square;stroke-width:0.8;"/>
     </g>
     <g id="line2d_22">
      <g>
       <use style="stroke:#000000;stroke-width:0.8;" x="57.6" xlink:href="#m329db087e4" y="182.1312"/>
      </g>
     </g>
     <g id="text_8">
      <!-- 0.4 -->
      <g transform="translate(25.155 188.20995)scale(0.16 -0.16)">
       <use xlink:href="#DejaVuSans-48"/>
       <use x="63.623047" xlink:href="#DejaVuSans-46"/>
       <use x="95.410156" xlink:href="#DejaVuSans-52"/>
      </g>
     </g>
    </g>
    <g id="ytick_4">
     <g id="line2d_23">
      <path clip-path="url(#p46c4f08d4e)" d="M 57.6 123.7248 
L 360.8064 123.7248 
" style="fill:none;stroke:#b0b0b0;stroke-linecap:square;stroke-width:0.8;"/>
     </g>
     <g id="line2d_24">
      <g>
       <use style="stroke:#000000;stroke-width:0.8;" x="57.6" xlink:href="#m329db087e4" y="123.7248"/>
      </g>
     </g>
     <g id="text_9">
      <!-- 0.6 -->
      <g transform="translate(25.155 129.80355)scale(0.16 -0.16)">
       <use xlink:href="#DejaVuSans-48"/>
       <use x="63.623047" xlink:href="#DejaVuSans-46"/>
       <use x="95.410156" xlink:href="#DejaVuSans-54"/>
      </g>
     </g>
    </g>
    <g id="ytick_5">
     <g id="line2d_25">
      <path clip-path="url(#p46c4f08d4e)" d="M 57.6 65.3184 
L 360.8064 65.3184 
" style="fill:none;stroke:#b0b0b0;stroke-linecap:square;stroke-width:0.8;"/>
     </g>
     <g id="line2d_26">
      <g>
       <use style="stroke:#000000;stroke-width:0.8;" x="57.6" xlink:href="#m329db087e4" y="65.3184"/>
      </g>
     </g>
     <g id="text_10">
      <!-- 0.8 -->
      <g transform="translate(25.155 71.39715)scale(0.16 -0.16)">
       <defs>
        <path d="M 31.78125 34.625 
Q 24.75 34.625 20.71875 30.859375 
Q 16.703125 27.09375 16.703125 20.515625 
Q 16.703125 13.921875 20.71875 10.15625 
Q 24.75 6.390625 31.78125 6.390625 
Q 38.8125 6.390625 42.859375 10.171875 
Q 46.921875 13.96875 46.921875 20.515625 
Q 46.921875 27.09375 42.890625 30.859375 
Q 38.875 34.625 31.78125 34.625 
z
M 21.921875 38.8125 
Q 15.578125 40.375 12.03125 44.71875 
Q 8.5 49.078125 8.5 55.328125 
Q 8.5 64.0625 14.71875 69.140625 
Q 20.953125 74.21875 31.78125 74.21875 
Q 42.671875 74.21875 48.875 69.140625 
Q 55.078125 64.0625 55.078125 55.328125 
Q 55.078125 49.078125 51.53125 44.71875 
Q 48 40.375 41.703125 38.8125 
Q 48.828125 37.15625 52.796875 32.3125 
Q 56.78125 27.484375 56.78125 20.515625 
Q 56.78125 9.90625 50.3125 4.234375 
Q 43.84375 -1.421875 31.78125 -1.421875 
Q 19.734375 -1.421875 13.25 4.234375 
Q 6.78125 9.90625 6.78125 20.515625 
Q 6.78125 27.484375 10.78125 32.3125 
Q 14.796875 37.15625 21.921875 38.8125 
z
M 18.3125 54.390625 
Q 18.3125 48.734375 21.84375 45.5625 
Q 25.390625 42.390625 31.78125 42.390625 
Q 38.140625 42.390625 41.71875 45.5625 
Q 45.3125 48.734375 45.3125 54.390625 
Q 45.3125 60.0625 41.71875 63.234375 
Q 38.140625 66.40625 31.78125 66.40625 
Q 25.390625 66.40625 21.84375 63.234375 
Q 18.3125 60.0625 18.3125 54.390625 
z
" id="DejaVuSans-56"/>
       </defs>
       <use xlink:href="#DejaVuSans-48"/>
       <use x="63.623047" xlink:href="#DejaVuSans-46"/>
       <use x="95.410156" xlink:href="#DejaVuSans-56"/>
      </g>
     </g>
    </g>
    <g id="ytick_6">
     <g id="line2d_27">
      <path clip-path="url(#p46c4f08d4e)" d="M 57.6 6.912 
L 360.8064 6.912 
" style="fill:none;stroke:#b0b0b0;stroke-linecap:square;stroke-width:0.8;"/>
     </g>
     <g id="line2d_28">
      <g>
       <use style="stroke:#000000;stroke-width:0.8;" x="57.6" xlink:href="#m329db087e4" y="6.912"/>
      </g>
     </g>
     <g id="text_11">
      <!-- 1.0 -->
      <g transform="translate(25.155 12.99075)scale(0.16 -0.16)">
       <use xlink:href="#DejaVuSans-49"/>
       <use x="63.623047" xlink:href="#DejaVuSans-46"/>
       <use x="95.410156" xlink:href="#DejaVuSans-48"/>
      </g>
     </g>
    </g>
    <g id="text_12">
     <!-- Fraction of function,target pairs -->
     <g transform="translate(17.619531 287.313)rotate(-90)scale(0.17 -0.17)">
      <defs>
       <path d="M 9.8125 72.90625 
L 51.703125 72.90625 
L 51.703125 64.59375 
L 19.671875 64.59375 
L 19.671875 43.109375 
L 48.578125 43.109375 
L 48.578125 34.8125 
L 19.671875 34.8125 
L 19.671875 0 
L 9.8125 0 
z
" id="DejaVuSans-70"/>
       <path d="M 41.109375 46.296875 
Q 39.59375 47.171875 37.8125 47.578125 
Q 36.03125 48 33.890625 48 
Q 26.265625 48 22.1875 43.046875 
Q 18.109375 38.09375 18.109375 28.8125 
L 18.109375 0 
L 9.078125 0 
L 9.078125 54.6875 
L 18.109375 54.6875 
L 18.109375 46.1875 
Q 20.953125 51.171875 25.484375 53.578125 
Q 30.03125 56 36.53125 56 
Q 37.453125 56 38.578125 55.875 
Q 39.703125 55.765625 41.0625 55.515625 
z
" id="DejaVuSans-114"/>
       <path d="M 48.78125 52.59375 
L 48.78125 44.1875 
Q 44.96875 46.296875 41.140625 47.34375 
Q 37.3125 48.390625 33.40625 48.390625 
Q 24.65625 48.390625 19.8125 42.84375 
Q 14.984375 37.3125 14.984375 27.296875 
Q 14.984375 17.28125 19.8125 11.734375 
Q 24.65625 6.203125 33.40625 6.203125 
Q 37.3125 6.203125 41.140625 7.25 
Q 44.96875 8.296875 48.78125 10.40625 
L 48.78125 2.09375 
Q 45.015625 0.34375 40.984375 -0.53125 
Q 36.96875 -1.421875 32.421875 -1.421875 
Q 20.0625 -1.421875 12.78125 6.34375 
Q 5.515625 14.109375 5.515625 27.296875 
Q 5.515625 40.671875 12.859375 48.328125 
Q 20.21875 56 33.015625 56 
Q 37.15625 56 41.109375 55.140625 
Q 45.0625 54.296875 48.78125 52.59375 
z
" id="DejaVuSans-99"/>
       <path d="M 18.3125 70.21875 
L 18.3125 54.6875 
L 36.8125 54.6875 
L 36.8125 47.703125 
L 18.3125 47.703125 
L 18.3125 18.015625 
Q 18.3125 11.328125 20.140625 9.421875 
Q 21.96875 7.515625 27.59375 7.515625 
L 36.8125 7.515625 
L 36.8125 0 
L 27.59375 0 
Q 17.1875 0 13.234375 3.875 
Q 9.28125 7.765625 9.28125 18.015625 
L 9.28125 47.703125 
L 2.6875 47.703125 
L 2.6875 54.6875 
L 9.28125 54.6875 
L 9.28125 70.21875 
z
" id="DejaVuSans-116"/>
       <path d="M 37.109375 75.984375 
L 37.109375 68.5 
L 28.515625 68.5 
Q 23.6875 68.5 21.796875 66.546875 
Q 19.921875 64.59375 19.921875 59.515625 
L 19.921875 54.6875 
L 34.71875 54.6875 
L 34.71875 47.703125 
L 19.921875 47.703125 
L 19.921875 0 
L 10.890625 0 
L 10.890625 47.703125 
L 2.296875 47.703125 
L 2.296875 54.6875 
L 10.890625 54.6875 
L 10.890625 58.5 
Q 10.890625 67.625 15.140625 71.796875 
Q 19.390625 75.984375 28.609375 75.984375 
z
" id="DejaVuSans-102"/>
       <path d="M 8.5 21.578125 
L 8.5 54.6875 
L 17.484375 54.6875 
L 17.484375 21.921875 
Q 17.484375 14.15625 20.5 10.265625 
Q 23.53125 6.390625 29.59375 6.390625 
Q 36.859375 6.390625 41.078125 11.03125 
Q 45.3125 15.671875 45.3125 23.6875 
L 45.3125 54.6875 
L 54.296875 54.6875 
L 54.296875 0 
L 45.3125 0 
L 45.3125 8.40625 
Q 42.046875 3.421875 37.71875 1 
Q 33.40625 -1.421875 27.6875 -1.421875 
Q 18.265625 -1.421875 13.375 4.4375 
Q 8.5 10.296875 8.5 21.578125 
z
M 31.109375 56 
z
" id="DejaVuSans-117"/>
       <path d="M 11.71875 12.40625 
L 22.015625 12.40625 
L 22.015625 4 
L 14.015625 -11.625 
L 7.71875 -11.625 
L 11.71875 4 
z
" id="DejaVuSans-44"/>
       <path d="M 18.109375 8.203125 
L 18.109375 -20.796875 
L 9.078125 -20.796875 
L 9.078125 54.6875 
L 18.109375 54.6875 
L 18.109375 46.390625 
Q 20.953125 51.265625 25.265625 53.625 
Q 29.59375 56 35.59375 56 
Q 45.5625 56 51.78125 48.09375 
Q 58.015625 40.1875 58.015625 27.296875 
Q 58.015625 14.40625 51.78125 6.484375 
Q 45.5625 -1.421875 35.59375 -1.421875 
Q 29.59375 -1.421875 25.265625 0.953125 
Q 20.953125 3.328125 18.109375 8.203125 
z
M 48.6875 27.296875 
Q 48.6875 37.203125 44.609375 42.84375 
Q 40.53125 48.484375 33.40625 48.484375 
Q 26.265625 48.484375 22.1875 42.84375 
Q 18.109375 37.203125 18.109375 27.296875 
Q 18.109375 17.390625 22.1875 11.75 
Q 26.265625 6.109375 33.40625 6.109375 
Q 40.53125 6.109375 44.609375 11.75 
Q 48.6875 17.390625 48.6875 27.296875 
z
" id="DejaVuSans-112"/>
      </defs>
      <use xlink:href="#DejaVuSans-70"/>
      <use x="50.269531" xlink:href="#DejaVuSans-114"/>
      <use x="91.382812" xlink:href="#DejaVuSans-97"/>
      <use x="152.662109" xlink:href="#DejaVuSans-99"/>
      <use x="207.642578" xlink:href="#DejaVuSans-116"/>
      <use x="246.851562" xlink:href="#DejaVuSans-105"/>
      <use x="274.634766" xlink:href="#DejaVuSans-111"/>
      <use x="335.816406" xlink:href="#DejaVuSans-110"/>
      <use x="399.195312" xlink:href="#DejaVuSans-32"/>
      <use x="430.982422" xlink:href="#DejaVuSans-111"/>
      <use x="492.164062" xlink:href="#DejaVuSans-102"/>
      <use x="527.369141" xlink:href="#DejaVuSans-32"/>
      <use x="559.15625" xlink:href="#DejaVuSans-102"/>
      <use x="594.361328" xlink:href="#DejaVuSans-117"/>
      <use x="657.740234" xlink:href="#DejaVuSans-110"/>
      <use x="721.119141" xlink:href="#DejaVuSans-99"/>
      <use x="776.099609" xlink:href="#DejaVuSans-116"/>
      <use x="815.308594" xlink:href="#DejaVuSans-105"/>
      <use x="843.091797" xlink:href="#DejaVuSans-111"/>
      <use x="904.273438" xlink:href="#DejaVuSans-110"/>
      <use x="967.652344" xlink:href="#DejaVuSans-44"/>
      <use x="999.439453" xlink:href="#DejaVuSans-116"/>
      <use x="1038.648438" xlink:href="#DejaVuSans-97"/>
      <use x="1099.927734" xlink:href="#DejaVuSans-114"/>
      <use x="1139.291016" xlink:href="#DejaVuSans-103"/>
      <use x="1202.767578" xlink:href="#DejaVuSans-101"/>
      <use x="1264.291016" xlink:href="#DejaVuSans-116"/>
      <use x="1303.5" xlink:href="#DejaVuSans-32"/>
      <use x="1335.287109" xlink:href="#DejaVuSans-112"/>
      <use x="1398.763672" xlink:href="#DejaVuSans-97"/>
      <use x="1460.042969" xlink:href="#DejaVuSans-105"/>
      <use x="1487.826172" xlink:href="#DejaVuSans-114"/>
      <use x="1528.939453" xlink:href="#DejaVuSans-115"/>
     </g>
    </g>
   </g>
   <g id="line2d_29">
    <defs>
     <path d="M 0 1.5 
C 0.397805 1.5 0.77937 1.341951 1.06066 1.06066 
C 1.341951 0.77937 1.5 0.397805 1.5 0 
C 1.5 -0.397805 1.341951 -0.77937 1.06066 -1.06066 
C 0.77937 -1.341951 0.397805 -1.5 0 -1.5 
C -0.397805 -1.5 -0.77937 -1.341951 -1.06066 -1.06066 
C -1.341951 -0.77937 -1.5 -0.397805 -1.5 0 
C -1.5 0.397805 -1.341951 0.77937 -1.06066 1.06066 
C -0.77937 1.341951 -0.397805 1.5 0 1.5 
z
" id="ma30f26c155" style="stroke:#000080;"/>
    </defs>
    <g>
     <use style="fill:#000080;stroke:#000080;" x="314.460886" xlink:href="#ma30f26c155" y="6.912"/>
     <use style="fill:#000080;stroke:#000080;" x="314.460886" xlink:href="#ma30f26c155" y="6.912"/>
    </g>
   </g>
   <g id="line2d_30">
    <path d="M 121.830966 298.944 
L 121.830966 298.469151 
L 146.859539 298.469151 
L 146.859539 297.994302 
L 159.198823 297.994302 
L 159.198823 297.519454 
L 159.451784 297.519454 
L 159.451784 297.044605 
L 159.882349 297.044605 
L 159.882349 296.094907 
L 162.449456 296.094907 
L 162.449456 295.620059 
L 162.817213 295.620059 
L 162.817213 295.14521 
L 163.012297 295.14521 
L 163.012297 294.670361 
L 182.118798 294.670361 
L 182.118798 294.195512 
L 184.934511 294.195512 
L 184.934511 293.720663 
L 185.429356 293.720663 
L 185.429356 293.245815 
L 186.329524 293.245815 
L 186.329524 292.770966 
L 190.789456 292.770966 
L 190.789456 292.296117 
L 191.863287 292.296117 
L 191.908094 290.871571 
L 192.201175 290.871571 
L 192.201175 290.396722 
L 193.115636 290.396722 
L 193.115636 289.921873 
L 196.259689 289.921873 
L 196.259689 289.447024 
L 198.835434 289.447024 
L 198.835434 288.972176 
L 200.697307 288.972176 
L 200.697307 288.022478 
L 204.848551 288.022478 
L 204.848551 287.547629 
L 209.282285 287.547629 
L 209.282285 287.07278 
L 209.831038 287.07278 
L 209.890779 285.648234 
L 212.050299 285.648234 
L 212.050299 285.173385 
L 212.942046 285.173385 
L 212.994639 284.223688 
L 217.567847 284.223688 
L 217.587666 283.27399 
L 218.741594 283.27399 
L 218.741594 282.799141 
L 223.754686 282.799141 
L 223.754686 282.324293 
L 223.995758 282.324293 
L 224.009843 281.374595 
L 224.870379 281.374595 
L 224.957087 269.978224 
L 224.988986 269.978224 
L 225.084871 266.179434 
L 225.105829 266.179434 
L 225.190444 263.80519 
L 225.592477 263.80519 
L 225.592477 263.330341 
L 226.613678 263.330341 
L 226.613678 262.855493 
L 227.0444 262.855493 
L 227.0444 262.380644 
L 227.733502 262.380644 
L 227.733502 261.905795 
L 228.185195 261.905795 
L 228.185195 261.430946 
L 228.356175 261.430946 
L 228.362621 260.481249 
L 228.532429 260.481249 
L 228.532429 260.0064 
L 229.52393 260.0064 
L 229.52393 259.531551 
L 230.037142 259.531551 
L 230.037142 259.056702 
L 230.295183 259.056702 
L 230.295183 258.581854 
L 232.098722 258.581854 
L 232.098722 258.107005 
L 232.221964 258.107005 
L 232.221964 257.632156 
L 233.517074 257.632156 
L 233.517074 257.157307 
L 235.727564 257.157307 
L 235.727564 256.682459 
L 238.195257 256.682459 
L 238.211809 255.732761 
L 238.312589 255.732761 
L 238.42265 254.308215 
L 238.515798 254.308215 
L 238.619948 252.40882 
L 238.846725 252.40882 
L 238.869351 251.459122 
L 238.967166 251.459122 
L 238.967166 250.984273 
L 239.206968 250.984273 
L 239.297763 248.13518 
L 239.337364 248.13518 
L 239.392665 243.861541 
L 239.679946 243.861541 
L 239.778565 241.012449 
L 240.071127 241.012449 
L 240.137876 240.062751 
L 244.550935 240.062751 
L 244.550935 239.587902 
L 246.145731 239.587902 
L 246.145731 239.113054 
L 246.364984 239.113054 
L 246.364984 238.638205 
L 246.662285 238.638205 
L 246.729409 235.789112 
L 246.895537 235.789112 
L 246.971903 234.839415 
L 247.070226 234.839415 
L 247.114518 233.414868 
L 247.256532 233.414868 
L 247.310277 232.465171 
L 247.388108 232.465171 
L 247.477753 230.565776 
L 247.603007 230.565776 
L 247.687638 227.716683 
L 247.724209 227.716683 
L 247.816701 226.766985 
L 247.894598 226.766985 
L 247.961718 225.817288 
L 248.161052 225.817288 
L 248.161052 225.342439 
L 248.372094 225.342439 
L 248.372094 224.86759 
L 251.860535 224.86759 
L 251.944745 223.917893 
L 252.225853 223.917893 
L 252.225853 223.443044 
L 252.403611 223.443044 
L 252.479111 222.018498 
L 252.55989 222.018498 
L 252.55989 221.543649 
L 252.683891 221.543649 
L 252.792899 218.694556 
L 252.861249 218.694556 
L 252.965286 216.320312 
L 253.004051 216.320312 
L 253.094616 214.420917 
L 253.12079 214.420917 
L 253.208961 213.47122 
L 253.242419 213.47122 
L 253.242419 212.996371 
L 253.361675 212.996371 
L 253.464459 210.622127 
L 253.532108 210.622127 
L 253.619386 208.722732 
L 253.692965 208.722732 
L 253.749883 207.298185 
L 254.037188 207.298185 
L 254.129259 206.348488 
L 256.075945 206.348488 
L 256.075945 205.873639 
L 256.322673 205.873639 
L 256.322673 205.39879 
L 256.605788 205.39879 
L 256.681938 203.974244 
L 256.788241 203.974244 
L 256.869512 202.074849 
L 257.003468 202.074849 
L 257.077095 200.650302 
L 257.139736 200.650302 
L 257.139736 200.175454 
L 257.336548 200.175454 
L 257.404665 198.276059 
L 257.485057 198.276059 
L 257.557372 196.376663 
L 257.604369 196.376663 
L 257.604369 195.901815 
L 257.923229 195.901815 
L 257.923229 195.426966 
L 259.718912 195.426966 
L 259.718912 194.952117 
L 259.874054 194.952117 
L 259.949304 193.527571 
L 260.13275 193.527571 
L 260.227282 192.577873 
L 260.347176 192.577873 
L 260.406486 191.153327 
L 260.540321 191.153327 
L 260.55709 190.203629 
L 260.667734 190.203629 
L 260.775737 187.829385 
L 260.86481 187.829385 
L 260.966148 184.505444 
L 261.027022 184.505444 
L 261.115067 183.555746 
L 261.163744 183.555746 
L 261.26476 181.656351 
L 261.315363 181.656351 
L 261.411194 179.756956 
L 262.316321 179.756956 
L 262.316321 179.282107 
L 263.130006 179.282107 
L 263.182319 178.33241 
L 263.258298 178.33241 
L 263.258298 177.857561 
L 263.377907 177.857561 
L 263.460351 176.433015 
L 263.513346 176.433015 
L 263.611833 174.53362 
L 263.676767 174.53362 
L 263.691684 173.583922 
L 263.800546 173.583922 
L 263.805705 172.634224 
L 263.965515 172.634224 
L 264.057095 170.734829 
L 264.211406 170.734829 
L 264.265962 168.835434 
L 264.40745 168.835434 
L 264.40745 168.360585 
L 265.544973 168.360585 
L 265.544973 167.885737 
L 265.719233 167.885737 
L 265.719233 167.410888 
L 265.853166 167.410888 
L 265.853166 166.936039 
L 266.045428 166.936039 
L 266.142673 165.511493 
L 266.165264 165.511493 
L 266.264757 164.086946 
L 266.294869 164.086946 
L 266.366748 158.86361 
L 266.416428 158.86361 
L 266.51534 157.439063 
L 266.560908 157.439063 
L 266.647112 155.539668 
L 266.77345 155.539668 
L 266.773562 154.589971 
L 266.947408 154.589971 
L 266.947408 154.115122 
L 267.517435 154.115122 
L 267.517435 153.640273 
L 267.995963 153.640273 
L 267.995963 153.165424 
L 268.128173 153.165424 
L 268.128173 152.690576 
L 268.258276 152.690576 
L 268.368847 150.79118 
L 268.532224 150.79118 
L 268.638676 148.416937 
L 268.808597 148.416937 
L 268.885211 147.467239 
L 268.985327 147.467239 
L 269.070853 145.567844 
L 269.505577 145.567844 
L 269.505577 145.092995 
L 269.934866 145.092995 
L 269.946976 144.143298 
L 270.09338 144.143298 
L 270.191283 143.1936 
L 270.266647 143.1936 
L 270.356512 141.769054 
L 270.377887 141.769054 
L 270.441224 139.39481 
L 270.537064 139.39481 
L 270.537064 138.919961 
L 270.696219 138.919961 
L 270.722365 137.020566 
L 270.816877 137.020566 
L 270.8965 135.59602 
L 271.078799 135.59602 
L 271.078799 135.121171 
L 271.283277 135.121171 
L 271.283277 134.646322 
L 271.548046 134.646322 
L 271.548046 134.171473 
L 271.766723 134.171473 
L 271.766723 133.696624 
L 272.134928 133.696624 
L 272.136983 132.746927 
L 272.281921 132.746927 
L 272.281921 132.272078 
L 272.473424 132.272078 
L 272.473424 131.797229 
L 272.663976 131.797229 
L 272.73243 129.422985 
L 272.785693 129.422985 
L 272.881657 127.998439 
L 273.040943 127.998439 
L 273.040943 127.52359 
L 273.379562 127.52359 
L 273.458094 126.573893 
L 273.511684 126.573893 
L 273.511684 126.099044 
L 273.740822 126.099044 
L 273.812035 124.199649 
L 273.948211 124.199649 
L 274.023537 123.249951 
L 274.210694 123.249951 
L 274.250834 121.350556 
L 274.404707 121.350556 
L 274.404707 120.875707 
L 274.654193 120.875707 
L 274.654193 120.400859 
L 275.094965 120.400859 
L 275.168772 119.451161 
L 275.216713 119.451161 
L 275.31963 117.076917 
L 275.37365 117.076917 
L 275.474485 114.702673 
L 275.496278 114.702673 
L 275.496278 114.227824 
L 275.646039 114.227824 
L 275.654944 113.278127 
L 275.757435 113.278127 
L 275.757435 112.803278 
L 275.917147 112.803278 
L 275.917147 112.328429 
L 276.199646 112.328429 
L 276.297035 111.378732 
L 276.39633 111.378732 
L 276.462014 109.954185 
L 276.589522 109.954185 
L 276.623808 108.529639 
L 276.998765 108.529639 
L 277.090148 106.630244 
L 277.173295 106.630244 
L 277.227563 103.781151 
L 277.595904 103.781151 
L 277.595904 103.306302 
L 277.846652 103.306302 
L 277.915491 102.356605 
L 278.065944 102.356605 
L 278.065944 101.881756 
L 278.17978 101.881756 
L 278.257802 99.032663 
L 278.315315 99.032663 
L 278.420151 97.608117 
L 278.465044 97.608117 
L 278.465044 97.133268 
L 278.929431 97.133268 
L 278.929431 96.65842 
L 279.097785 96.65842 
L 279.097785 96.183571 
L 279.235975 96.183571 
L 279.333672 93.809327 
L 279.34911 93.809327 
L 279.427705 91.909932 
L 279.478804 91.909932 
L 279.572682 89.535688 
L 279.608061 89.535688 
L 279.608061 89.060839 
L 279.870474 89.060839 
L 279.949334 88.111141 
L 280.075216 88.111141 
L 280.075216 87.636293 
L 280.198459 87.636293 
L 280.198459 87.161444 
L 280.363838 87.161444 
L 280.426903 85.262049 
L 280.578814 85.262049 
L 280.640016 83.837502 
L 280.79721 83.837502 
L 280.79721 83.362654 
L 280.984617 83.362654 
L 280.984617 82.887805 
L 281.2784 82.887805 
L 281.2784 82.412956 
L 281.457342 82.412956 
L 281.55547 80.98841 
L 281.642922 80.98841 
L 281.642922 80.513561 
L 281.839036 80.513561 
L 281.888539 77.664468 
L 281.953496 77.664468 
L 281.953496 77.18962 
L 282.463121 77.18962 
L 282.501878 76.239922 
L 282.693062 76.239922 
L 282.790346 73.390829 
L 282.890681 73.390829 
L 282.959752 72.441132 
L 283.171847 72.441132 
L 283.187979 71.491434 
L 283.447194 71.491434 
L 283.518994 70.541737 
L 283.60377 70.541737 
L 283.60377 70.066888 
L 283.715147 70.066888 
L 283.715147 69.592039 
L 283.832288 69.592039 
L 283.832288 69.11719 
L 283.948435 69.11719 
L 283.948435 68.642341 
L 284.238084 68.642341 
L 284.238084 68.167493 
L 284.377459 68.167493 
L 284.415067 67.217795 
L 284.506468 67.217795 
L 284.506468 66.742946 
L 284.875751 66.742946 
L 284.875751 66.268098 
L 284.993293 66.268098 
L 284.993293 65.793249 
L 285.418457 65.793249 
L 285.526988 64.368702 
L 285.570172 64.368702 
L 285.639111 63.419005 
L 286.041333 63.419005 
L 286.041333 62.944156 
L 286.198713 62.944156 
L 286.231526 61.994459 
L 286.518949 61.994459 
L 286.560288 61.044761 
L 286.773258 61.044761 
L 286.773258 60.569912 
L 287.077271 60.569912 
L 287.186729 59.620215 
L 287.246019 59.620215 
L 287.285061 58.670517 
L 287.695403 58.670517 
L 287.797886 57.72082 
L 287.820032 57.72082 
L 287.842952 56.771122 
L 287.935858 56.771122 
L 287.935858 56.296273 
L 288.111805 56.296273 
L 288.184538 54.871727 
L 288.364026 54.871727 
L 288.465527 53.44718 
L 288.556975 53.44718 
L 288.556975 52.972332 
L 288.776294 52.972332 
L 288.798027 52.022634 
L 289.075622 52.022634 
L 289.142369 51.072937 
L 289.326645 51.072937 
L 289.326645 50.598088 
L 289.44463 50.598088 
L 289.511298 48.698693 
L 289.694914 48.698693 
L 289.787039 46.799298 
L 289.871415 46.799298 
L 289.962666 45.374751 
L 289.987488 45.374751 
L 290.019004 43.475356 
L 290.170299 43.475356 
L 290.202313 42.525659 
L 290.562996 42.525659 
L 290.656225 41.575961 
L 290.846133 41.575961 
L 290.846133 41.101112 
L 291.207227 41.101112 
L 291.300217 39.676566 
L 291.42427 39.676566 
L 291.426601 38.726868 
L 291.947847 38.726868 
L 292.049858 37.302322 
L 292.085075 37.302322 
L 292.085075 36.827473 
L 292.391671 36.827473 
L 292.391671 36.352624 
L 292.527626 36.352624 
L 292.621229 34.928078 
L 293.149758 34.928078 
L 293.244611 33.97838 
L 293.319254 33.97838 
L 293.319254 33.503532 
L 293.558319 33.503532 
L 293.558319 33.028683 
L 293.840035 33.028683 
L 293.840035 32.553834 
L 294.04059 32.553834 
L 294.04059 32.078985 
L 294.356724 32.078985 
L 294.356724 31.604137 
L 294.543147 31.604137 
L 294.543147 31.129288 
L 294.738803 31.129288 
L 294.81086 28.755044 
L 294.925229 28.755044 
L 294.925229 28.280195 
L 295.082147 28.280195 
L 295.082147 27.805346 
L 295.284632 27.805346 
L 295.284632 27.330498 
L 295.40812 27.330498 
L 295.437365 26.3808 
L 295.837088 26.3808 
L 295.837088 25.905951 
L 296.077072 25.905951 
L 296.077072 25.431102 
L 296.308639 25.431102 
L 296.308639 24.956254 
L 296.872769 24.956254 
L 296.961072 24.006556 
L 297.153633 24.006556 
L 297.153633 23.531707 
L 297.334249 23.531707 
L 297.334249 23.056859 
L 298.046318 23.056859 
L 298.135126 22.107161 
L 298.508312 22.107161 
L 298.508312 21.632312 
L 298.718652 21.632312 
L 298.718652 21.157463 
L 298.873367 21.157463 
L 298.873367 20.682615 
L 299.368443 20.682615 
L 299.368443 20.207766 
L 299.874545 20.207766 
L 299.874545 19.732917 
L 300.036515 19.732917 
L 300.036515 19.258068 
L 300.258722 19.258068 
L 300.258722 18.78322 
L 300.747418 18.78322 
L 300.747418 18.308371 
L 301.18406 18.308371 
L 301.18406 17.833522 
L 301.387248 17.833522 
L 301.43796 16.883824 
L 301.988789 16.883824 
L 301.988789 16.408976 
L 303.072329 16.408976 
L 303.072329 15.934127 
L 304.252525 15.934127 
L 304.31162 14.984429 
L 304.39294 14.984429 
L 304.39294 14.50958 
L 304.632843 14.50958 
L 304.632843 14.034732 
L 305.393822 14.034732 
L 305.393822 13.559883 
L 305.589515 13.559883 
L 305.589515 13.085034 
L 305.702956 13.085034 
L 305.798324 12.135337 
L 306.200791 12.135337 
L 306.200791 11.660488 
L 306.483509 11.660488 
L 306.483509 11.185639 
L 306.867235 11.185639 
L 306.867235 10.71079 
L 307.284153 10.71079 
L 307.284153 10.235941 
L 308.171595 10.235941 
L 308.171595 9.761093 
L 309.360112 9.761093 
L 309.436865 8.811395 
L 311.721141 8.811395 
L 311.721141 8.336546 
L 312.508351 8.336546 
L 312.508351 7.861698 
L 313.959433 7.861698 
L 313.959433 7.386849 
L 314.460886 7.386849 
L 314.460886 6.912 
L 360.8064 6.912 
L 360.8064 6.912 
" style="fill:none;stroke:#000080;stroke-linecap:square;stroke-width:1.5;"/>
   </g>
   <g id="line2d_31">
    <defs>
     <path d="M 0 6 
C 1.591219 6 3.117479 5.367802 4.242641 4.242641 
C 5.367802 3.117479 6 1.591219 6 0 
C 6 -1.591219 5.367802 -3.117479 4.242641 -4.242641 
C 3.117479 -5.367802 1.591219 -6 0 -6 
C -1.591219 -6 -3.117479 -5.367802 -4.242641 -4.242641 
C -5.367802 -3.117479 -6 -1.591219 -6 0 
C -6 1.591219 -5.367802 3.117479 -4.242641 4.242641 
C -3.117479 5.367802 -1.591219 6 0 6 
z
" id="mc915b38805" style="stroke:#000080;stroke-width:1.5;"/>
    </defs>
    <g>
     <use style="fill-opacity:0;stroke:#000080;stroke-width:1.5;" x="217.587666" xlink:href="#mc915b38805" y="283.748839"/>
     <use style="fill-opacity:0;stroke:#000080;stroke-width:1.5;" x="252.929119" xlink:href="#mc915b38805" y="217.27001"/>
     <use style="fill-opacity:0;stroke:#000080;stroke-width:1.5;" x="282.959752" xlink:href="#mc915b38805" y="72.441132"/>
     <use style="fill-opacity:0;stroke:#000080;stroke-width:1.5;" x="314.460886" xlink:href="#mc915b38805" y="6.912"/>
     <use style="fill-opacity:0;stroke:#000080;stroke-width:1.5;" x="360.8064" xlink:href="#mc915b38805" y="6.912"/>
    </g>
   </g>
   <g id="line2d_32">
    <path style="fill:none;stroke:#000080;stroke-linecap:square;stroke-width:1.5;"/>
    <g/>
   </g>
   <g id="line2d_33">
    <path clip-path="url(#p46c4f08d4e)" d="M 227.503746 262.380644 
" style="fill:none;stroke:#000080;stroke-linecap:square;stroke-width:1.5;"/>
    <defs>
     <path d="M -12 12 
L 12 -12 
M -12 -12 
L 12 12 
" id="m3e332bccb5" style="stroke:#000080;"/>
    </defs>
    <g clip-path="url(#p46c4f08d4e)">
     <use style="fill:#000080;stroke:#000080;" x="227.503746" xlink:href="#m3e332bccb5" y="262.380644"/>
    </g>
   </g>
   <g id="line2d_34">
    <defs>
     <path d="M 0 1.5 
C 0.397805 1.5 0.77937 1.341951 1.06066 1.06066 
C 1.341951 0.77937 1.5 0.397805 1.5 0 
C 1.5 -0.397805 1.341951 -0.77937 1.06066 -1.06066 
C 0.77937 -1.341951 0.397805 -1.5 0 -1.5 
C -0.397805 -1.5 -0.77937 -1.341951 -1.06066 -1.06066 
C -1.341951 -0.77937 -1.5 -0.397805 -1.5 0 
C -1.5 0.397805 -1.341951 0.77937 -1.06066 1.06066 
C -0.77937 1.341951 -0.397805 1.5 0 1.5 
z
" id="m5e57af5931" style="stroke:#ff00ff;"/>
    </defs>
    <g>
     <use style="fill:#ff00ff;stroke:#ff00ff;" x="313.283899" xlink:href="#m5e57af5931" y="6.912"/>
     <use style="fill:#ff00ff;stroke:#ff00ff;" x="313.283899" xlink:href="#m5e57af5931" y="6.912"/>
    </g>
   </g>
   <g id="line2d_35">
    <path d="M 125.219419 298.944 
L 125.219419 298.469151 
L 139.604629 298.469151 
L 139.604629 297.994302 
L 147.343984 297.994302 
L 147.343984 297.519454 
L 149.338728 297.519454 
L 149.338728 297.044605 
L 157.678942 297.044605 
L 157.678942 296.569756 
L 158.383441 296.569756 
L 158.383441 296.094907 
L 176.772205 296.094907 
L 176.772205 295.620059 
L 178.03 295.620059 
L 178.03 295.14521 
L 178.191527 295.14521 
L 178.271774 294.195512 
L 178.351679 294.195512 
L 178.351679 293.720663 
L 180.096038 293.720663 
L 180.096038 293.245815 
L 180.959205 293.245815 
L 180.959205 292.770966 
L 182.358249 292.770966 
L 182.358249 292.296117 
L 186.249081 292.296117 
L 186.249081 291.821268 
L 188.531376 291.821268 
L 188.531376 291.34642 
L 188.670102 291.34642 
L 188.670102 290.871571 
L 195.074953 290.871571 
L 195.074953 290.396722 
L 196.24311 290.396722 
L 196.30934 289.447024 
L 196.401201 289.447024 
L 196.401201 288.972176 
L 196.588243 288.972176 
L 196.588243 288.497327 
L 206.191151 288.497327 
L 206.191151 288.022478 
L 209.106118 288.022478 
L 209.124048 287.07278 
L 211.836377 287.07278 
L 211.849819 286.123083 
L 213.312882 286.123083 
L 213.312882 285.173385 
L 213.46147 285.173385 
L 213.46147 284.698537 
L 217.026247 284.698537 
L 217.046645 283.748839 
L 217.96704 283.748839 
L 217.96704 283.27399 
L 222.147685 283.27399 
L 222.16621 282.324293 
L 223.072221 282.324293 
L 223.173833 272.827317 
L 223.183455 272.827317 
L 223.240519 269.028527 
L 223.29966 269.028527 
L 223.3939 266.179434 
L 223.443634 266.179434 
L 223.50381 265.229737 
L 223.677128 265.229737 
L 223.762918 262.855493 
L 226.062483 262.855493 
L 226.062483 262.380644 
L 226.174794 262.380644 
L 226.174794 261.905795 
L 226.41554 261.905795 
L 226.41554 261.430946 
L 226.713846 261.430946 
L 226.713846 260.956098 
L 229.292262 260.956098 
L 229.292262 260.481249 
L 229.725623 260.481249 
L 229.765544 259.531551 
L 232.676293 259.531551 
L 232.676293 259.056702 
L 233.097205 259.056702 
L 233.097205 258.581854 
L 237.086076 258.581854 
L 237.108221 256.20761 
L 237.616554 256.20761 
L 237.670072 254.308215 
L 237.738322 254.308215 
L 237.841404 250.034576 
L 237.860085 250.034576 
L 237.959408 248.610029 
L 237.987248 248.610029 
L 238.080009 246.710634 
L 238.11586 246.710634 
L 238.200607 244.811239 
L 238.246648 244.811239 
L 238.33005 243.861541 
L 238.389396 243.861541 
L 238.389396 243.386693 
L 238.70717 243.386693 
L 238.715597 242.436995 
L 239.337364 242.436995 
L 239.350306 241.012449 
L 240.674904 241.012449 
L 240.674904 240.5376 
L 240.940088 240.5376 
L 240.940088 240.062751 
L 245.652504 240.062751 
L 245.747893 238.163356 
L 245.77192 238.163356 
L 245.882628 236.263961 
L 245.884659 236.263961 
L 245.994202 233.414868 
L 246.005307 233.414868 
L 246.101438 231.515473 
L 246.122176 231.515473 
L 246.204571 228.66638 
L 246.268536 228.66638 
L 246.283291 227.716683 
L 246.45191 227.716683 
L 246.561638 225.342439 
L 246.7527 225.342439 
L 246.759811 224.392741 
L 246.943602 224.392741 
L 247.03013 223.443044 
L 247.734951 223.443044 
L 247.734951 222.968195 
L 248.292132 222.968195 
L 248.292132 222.493346 
L 248.878815 222.493346 
L 248.878815 222.018498 
L 249.048263 222.018498 
L 249.048263 221.543649 
L 249.495596 221.543649 
L 249.495596 221.0688 
L 251.035694 221.0688 
L 251.035694 220.593951 
L 251.233922 220.593951 
L 251.305756 219.644254 
L 251.377316 219.644254 
L 251.487228 215.845463 
L 251.529409 215.845463 
L 251.529409 215.370615 
L 251.652023 215.370615 
L 251.761585 212.996371 
L 251.763195 212.996371 
L 251.862999 211.096976 
L 251.877038 211.096976 
L 251.909508 209.672429 
L 252.05079 209.672429 
L 252.05079 209.19758 
L 252.180847 209.19758 
L 252.280272 208.247883 
L 252.327445 208.247883 
L 252.402414 206.348488 
L 252.442952 206.348488 
L 252.442952 205.873639 
L 252.637723 205.873639 
L 252.637723 205.39879 
L 252.8436 205.39879 
L 252.8436 204.923941 
L 253.60221 204.923941 
L 253.687711 203.974244 
L 255.538651 203.974244 
L 255.639808 201.6 
L 255.78458 201.6 
L 255.890692 199.225756 
L 255.950862 199.225756 
L 255.978499 197.80121 
L 256.119519 197.80121 
L 256.136017 196.376663 
L 256.300208 196.376663 
L 256.403459 194.477268 
L 256.418647 194.477268 
L 256.513268 193.527571 
L 256.639267 193.527571 
L 256.639267 193.052722 
L 256.78862 193.052722 
L 256.78862 192.577873 
L 258.128483 192.577873 
L 258.128483 192.103024 
L 259.032788 192.103024 
L 259.032788 191.628176 
L 259.171043 191.628176 
L 259.171043 191.153327 
L 259.384843 191.153327 
L 259.470048 188.304234 
L 259.551104 188.304234 
L 259.646398 185.455141 
L 259.673746 185.455141 
L 259.735538 184.030595 
L 259.806579 184.030595 
L 259.806579 183.555746 
L 259.941929 183.555746 
L 259.978216 182.606049 
L 260.13029 182.606049 
L 260.13029 182.1312 
L 260.364119 182.1312 
L 260.364119 181.656351 
L 262.242038 181.656351 
L 262.339205 180.231805 
L 262.400305 180.231805 
L 262.474807 178.33241 
L 262.723344 178.33241 
L 262.723344 177.857561 
L 262.839658 177.857561 
L 262.900115 175.958166 
L 262.961062 175.958166 
L 262.961062 175.483317 
L 263.07748 175.483317 
L 263.11423 174.53362 
L 263.293891 174.53362 
L 263.374099 173.109073 
L 263.441322 173.109073 
L 263.539986 172.159376 
L 263.863857 172.159376 
L 263.863857 171.684527 
L 264.216965 171.684527 
L 264.216965 171.209678 
L 264.705955 171.209678 
L 264.705955 170.734829 
L 264.836521 170.734829 
L 264.935283 169.310283 
L 265.066654 169.310283 
L 265.152978 168.360585 
L 265.181038 168.360585 
L 265.290447 164.086946 
L 265.402522 164.086946 
L 265.430691 163.137249 
L 265.523173 163.137249 
L 265.585586 162.187551 
L 265.688834 162.187551 
L 265.688834 161.712702 
L 265.954669 161.712702 
L 265.993478 160.763005 
L 266.103708 160.763005 
L 266.103708 160.288156 
L 266.215938 160.288156 
L 266.215938 159.813307 
L 266.412165 159.813307 
L 266.412165 159.338459 
L 266.971316 159.338459 
L 267.072411 157.913912 
L 267.136517 157.913912 
L 267.205964 156.014517 
L 267.267553 156.014517 
L 267.30261 153.165424 
L 267.418279 153.165424 
L 267.492655 151.740878 
L 267.547963 151.740878 
L 267.571067 150.79118 
L 267.697795 150.79118 
L 267.779429 149.366634 
L 267.937712 149.366634 
L 268.015183 148.416937 
L 268.925988 148.416937 
L 268.925988 147.942088 
L 269.135788 147.942088 
L 269.227341 146.517541 
L 269.281883 146.517541 
L 269.343615 144.143298 
L 269.406744 144.143298 
L 269.512086 142.243902 
L 269.525098 142.243902 
L 269.559753 141.294205 
L 269.713673 141.294205 
L 269.81556 140.344507 
L 269.892677 140.344507 
L 269.971033 139.39481 
L 270.194259 139.39481 
L 270.194259 138.919961 
L 270.829872 138.919961 
L 270.91481 137.495415 
L 271.038881 137.495415 
L 271.038881 137.020566 
L 271.177853 137.020566 
L 271.25557 135.121171 
L 271.289419 135.121171 
L 271.328504 133.696624 
L 271.412271 133.696624 
L 271.523023 131.797229 
L 271.58703 131.797229 
L 271.58703 131.32238 
L 271.849801 131.32238 
L 271.958903 130.372683 
L 272.481166 130.372683 
L 272.578405 128.473288 
L 272.655534 128.473288 
L 272.655534 127.998439 
L 272.908882 127.998439 
L 273.011147 126.573893 
L 273.040144 126.573893 
L 273.140467 124.674498 
L 273.154932 124.674498 
L 273.231003 123.249951 
L 273.274234 123.249951 
L 273.274234 122.775102 
L 273.553691 122.775102 
L 273.638588 121.825405 
L 273.676527 121.825405 
L 273.676527 121.350556 
L 273.931905 121.350556 
L 273.931905 120.875707 
L 274.364857 120.875707 
L 274.441245 119.451161 
L 274.707558 119.451161 
L 274.793459 118.026615 
L 275.062978 118.026615 
L 275.062978 117.551766 
L 275.174481 117.551766 
L 275.174481 117.076917 
L 275.539788 117.076917 
L 275.638034 115.177522 
L 275.66819 115.177522 
L 275.759164 113.752976 
L 275.84705 113.752976 
L 275.951926 111.85358 
L 276.100358 111.85358 
L 276.139682 110.903883 
L 276.247494 110.903883 
L 276.247494 110.429034 
L 276.466611 110.429034 
L 276.511825 109.479337 
L 277.007927 109.479337 
L 277.052408 107.579941 
L 277.162608 107.579941 
L 277.263548 106.630244 
L 277.294206 106.630244 
L 277.294206 106.155395 
L 277.448901 106.155395 
L 277.493362 105.205698 
L 277.573022 105.205698 
L 277.577136 104.256 
L 278.195161 104.256 
L 278.302902 103.306302 
L 278.334749 103.306302 
L 278.412013 101.406907 
L 278.486089 101.406907 
L 278.503135 100.45721 
L 278.624968 100.45721 
L 278.653666 99.507512 
L 279.250402 99.507512 
L 279.322285 98.557815 
L 279.413499 98.557815 
L 279.459041 97.133268 
L 279.543204 97.133268 
L 279.621502 95.708722 
L 279.69622 95.708722 
L 279.750764 94.284176 
L 279.847779 94.284176 
L 279.847779 93.809327 
L 280.395032 93.809327 
L 280.446835 91.909932 
L 280.531963 91.909932 
L 280.6366 89.535688 
L 280.703227 89.535688 
L 280.752651 88.111141 
L 280.81604 88.111141 
L 280.879822 86.686595 
L 280.953888 86.686595 
L 281.034719 85.262049 
L 281.076296 85.262049 
L 281.076296 84.7872 
L 281.361267 84.7872 
L 281.44326 82.887805 
L 281.511935 82.887805 
L 281.588354 81.938107 
L 281.649802 81.938107 
L 281.649802 81.463259 
L 281.773356 81.463259 
L 281.824585 79.563863 
L 282.051898 79.563863 
L 282.051898 79.089015 
L 282.532788 79.089015 
L 282.643283 77.664468 
L 282.694091 77.664468 
L 282.694091 77.18962 
L 282.863769 77.18962 
L 282.908901 76.239922 
L 283.005455 76.239922 
L 283.005455 75.765073 
L 283.429994 75.765073 
L 283.532727 74.340527 
L 283.585025 74.340527 
L 283.679722 71.966283 
L 283.763506 71.966283 
L 283.789885 70.541737 
L 284.070586 70.541737 
L 284.072498 69.592039 
L 284.455825 69.592039 
L 284.514396 68.642341 
L 284.568759 68.642341 
L 284.648318 66.742946 
L 284.742758 66.742946 
L 284.835339 65.793249 
L 285.126425 65.793249 
L 285.126425 65.3184 
L 285.323176 65.3184 
L 285.341784 63.419005 
L 285.50541 63.419005 
L 285.50541 62.944156 
L 285.912346 62.944156 
L 285.912346 62.469307 
L 286.094898 62.469307 
L 286.205304 60.095063 
L 286.371439 60.095063 
L 286.371439 59.620215 
L 286.605753 59.620215 
L 286.605753 59.145366 
L 286.982167 59.145366 
L 287.087065 57.72082 
L 287.315941 57.72082 
L 287.315941 57.245971 
L 287.45397 57.245971 
L 287.45397 56.771122 
L 287.592782 56.771122 
L 287.677772 55.346576 
L 288.027028 55.346576 
L 288.027028 54.871727 
L 288.159204 54.871727 
L 288.251045 53.44718 
L 288.611093 53.44718 
L 288.684743 52.497483 
L 288.731295 52.497483 
L 288.731295 52.022634 
L 288.842799 52.022634 
L 288.842799 51.547785 
L 288.997501 51.547785 
L 288.998511 50.598088 
L 289.121744 50.598088 
L 289.14865 49.173541 
L 289.279826 49.173541 
L 289.362106 48.223844 
L 289.445599 48.223844 
L 289.545848 46.799298 
L 289.734165 46.799298 
L 289.734165 46.324449 
L 289.8746 46.324449 
L 289.8746 45.8496 
L 290.065686 45.8496 
L 290.172067 43.000507 
L 290.449434 43.000507 
L 290.520421 42.05081 
L 290.684013 42.05081 
L 290.794384 41.101112 
L 290.80965 41.101112 
L 290.80965 40.626263 
L 291.002453 40.626263 
L 291.097438 39.676566 
L 291.372883 39.676566 
L 291.372883 39.201717 
L 291.627161 39.201717 
L 291.649035 38.25202 
L 291.844176 38.25202 
L 291.844176 37.777171 
L 292.079019 37.777171 
L 292.079019 37.302322 
L 292.513366 37.302322 
L 292.513366 36.827473 
L 292.962665 36.827473 
L 293.028326 35.402927 
L 293.239873 35.402927 
L 293.349854 34.453229 
L 293.400129 34.453229 
L 293.439504 33.503532 
L 293.612219 33.503532 
L 293.612219 33.028683 
L 293.751879 33.028683 
L 293.820342 32.078985 
L 294.084081 32.078985 
L 294.084081 31.604137 
L 294.21586 31.604137 
L 294.21586 31.129288 
L 294.651171 31.129288 
L 294.732699 30.17959 
L 295.174454 30.17959 
L 295.207287 29.229893 
L 295.288208 29.229893 
L 295.288208 28.755044 
L 295.505359 28.755044 
L 295.550572 27.805346 
L 295.847469 27.805346 
L 295.847469 27.330498 
L 296.099279 27.330498 
L 296.122773 26.3808 
L 296.409377 26.3808 
L 296.520135 25.431102 
L 296.661454 25.431102 
L 296.661454 24.956254 
L 296.938771 24.956254 
L 296.938771 24.481405 
L 297.144092 24.481405 
L 297.144092 24.006556 
L 297.916555 24.006556 
L 298.001969 22.107161 
L 298.092516 22.107161 
L 298.190744 21.157463 
L 298.253282 21.157463 
L 298.350843 19.732917 
L 298.515679 19.732917 
L 298.515679 19.258068 
L 298.885662 19.258068 
L 298.951389 17.833522 
L 299.149819 17.833522 
L 299.239635 16.883824 
L 299.571344 16.883824 
L 299.571344 16.408976 
L 299.766598 16.408976 
L 299.766598 15.934127 
L 300.327506 15.934127 
L 300.327506 15.459278 
L 300.690571 15.459278 
L 300.690571 14.984429 
L 301.264449 14.984429 
L 301.264449 14.50958 
L 301.387833 14.50958 
L 301.387833 14.034732 
L 302.050992 14.034732 
L 302.092213 12.610185 
L 302.207055 12.610185 
L 302.283181 11.660488 
L 302.509243 11.660488 
L 302.509243 11.185639 
L 303.26589 11.185639 
L 303.360008 10.235941 
L 303.99922 10.235941 
L 303.99922 9.761093 
L 304.84647 9.761093 
L 304.84647 9.286244 
L 305.704392 9.286244 
L 305.704392 8.811395 
L 306.78684 8.811395 
L 306.78684 8.336546 
L 307.38703 8.336546 
L 307.38703 7.861698 
L 309.061785 7.861698 
L 309.061785 7.386849 
L 313.283899 7.386849 
L 313.283899 6.912 
L 360.8064 6.912 
L 360.8064 6.912 
" style="fill:none;stroke:#ff00ff;stroke-linecap:square;stroke-width:1.5;"/>
   </g>
   <g id="line2d_36">
    <defs>
     <path d="M -0 8.485281 
L 5.091169 0 
L 0 -8.485281 
L -5.091169 -0 
z
" id="md9804062a9" style="stroke:#ff00ff;stroke-linejoin:miter;stroke-width:1.5;"/>
    </defs>
    <g>
     <use style="fill-opacity:0;stroke:#ff00ff;stroke-linejoin:miter;stroke-width:1.5;" x="229.765544" xlink:href="#md9804062a9" y="260.0064"/>
     <use style="fill-opacity:0;stroke:#ff00ff;stroke-linejoin:miter;stroke-width:1.5;" x="268.015183" xlink:href="#md9804062a9" y="148.416937"/>
     <use style="fill-opacity:0;stroke:#ff00ff;stroke-linejoin:miter;stroke-width:1.5;" x="309.061785" xlink:href="#md9804062a9" y="7.386849"/>
     <use style="fill-opacity:0;stroke:#ff00ff;stroke-linejoin:miter;stroke-width:1.5;" x="313.283899" xlink:href="#md9804062a9" y="6.912"/>
     <use style="fill-opacity:0;stroke:#ff00ff;stroke-linejoin:miter;stroke-width:1.5;" x="360.8064" xlink:href="#md9804062a9" y="6.912"/>
    </g>
   </g>
   <g id="line2d_37">
    <path style="fill:none;stroke:#ff00ff;stroke-linecap:square;stroke-width:1.5;"/>
    <g/>
   </g>
   <g id="line2d_38">
    <path clip-path="url(#p46c4f08d4e)" d="M 226.237435 261.905795 
" style="fill:none;stroke:#ff00ff;stroke-linecap:square;stroke-width:1.5;"/>
    <defs>
     <path d="M -12 12 
L 12 -12 
M -12 -12 
L 12 12 
" id="m15d60c7699" style="stroke:#ff00ff;"/>
    </defs>
    <g clip-path="url(#p46c4f08d4e)">
     <use style="fill:#ff00ff;stroke:#ff00ff;" x="226.237435" xlink:href="#m15d60c7699" y="261.905795"/>
    </g>
   </g>
   <g id="line2d_39">
    <path d="M 360.8064 6.912 
L 380.514816 293.10336 
" style="fill:none;stroke:#000080;stroke-linecap:square;stroke-width:1.5;"/>
    <g>
     <use style="fill-opacity:0;stroke:#000080;stroke-width:1.5;" x="360.8064" xlink:href="#mc915b38805" y="6.912"/>
     <use style="fill-opacity:0;stroke:#000080;stroke-width:1.5;" x="380.514816" xlink:href="#mc915b38805" y="293.10336"/>
    </g>
   </g>
   <g id="line2d_40">
    <path d="M 360.8064 6.912 
L 380.514816 12.75264 
" style="fill:none;stroke:#ff00ff;stroke-linecap:square;stroke-width:1.5;"/>
    <g>
     <use style="fill-opacity:0;stroke:#ff00ff;stroke-linejoin:miter;stroke-width:1.5;" x="360.8064" xlink:href="#md9804062a9" y="6.912"/>
     <use style="fill-opacity:0;stroke:#ff00ff;stroke-linejoin:miter;stroke-width:1.5;" x="380.514816" xlink:href="#md9804062a9" y="12.75264"/>
    </g>
   </g>
   <g id="line2d_41">
    <path d="M 360.8064 298.944 
L 360.8064 6.912 
" style="fill:none;stroke:#000000;stroke-linecap:square;stroke-width:1.5;"/>
   </g>
   <g id="patch_3">
    <path d="M 57.6 298.944 
L 360.8064 298.944 
" style="fill:none;stroke:#000000;stroke-linecap:square;stroke-linejoin:miter;stroke-width:0.8;"/>
   </g>
   <g id="patch_4">
    <path d="M 57.6 6.912 
L 360.8064 6.912 
" style="fill:none;stroke:#000000;stroke-linecap:square;stroke-linejoin:miter;stroke-width:0.8;"/>
   </g>
   <g id="text_13">
    <!-- f43 -->
    <g transform="translate(386.578944 296.966485)scale(0.14 -0.14)">
     <defs>
      <path d="M 40.578125 39.3125 
Q 47.65625 37.796875 51.625 33 
Q 55.609375 28.21875 55.609375 21.1875 
Q 55.609375 10.40625 48.1875 4.484375 
Q 40.765625 -1.421875 27.09375 -1.421875 
Q 22.515625 -1.421875 17.65625 -0.515625 
Q 12.796875 0.390625 7.625 2.203125 
L 7.625 11.71875 
Q 11.71875 9.328125 16.59375 8.109375 
Q 21.484375 6.890625 26.8125 6.890625 
Q 36.078125 6.890625 40.9375 10.546875 
Q 45.796875 14.203125 45.796875 21.1875 
Q 45.796875 27.640625 41.28125 31.265625 
Q 36.765625 34.90625 28.71875 34.90625 
L 20.21875 34.90625 
L 20.21875 43.015625 
L 29.109375 43.015625 
Q 36.375 43.015625 40.234375 45.921875 
Q 44.09375 48.828125 44.09375 54.296875 
Q 44.09375 59.90625 40.109375 62.90625 
Q 36.140625 65.921875 28.71875 65.921875 
Q 24.65625 65.921875 20.015625 65.03125 
Q 15.375 64.15625 9.8125 62.3125 
L 9.8125 71.09375 
Q 15.4375 72.65625 20.34375 73.4375 
Q 25.25 74.21875 29.59375 74.21875 
Q 40.828125 74.21875 47.359375 69.109375 
Q 53.90625 64.015625 53.90625 55.328125 
Q 53.90625 49.265625 50.4375 45.09375 
Q 46.96875 40.921875 40.578125 39.3125 
z
" id="DejaVuSans-51"/>
     </defs>
     <use xlink:href="#DejaVuSans-102"/>
     <use x="35.205078" xlink:href="#DejaVuSans-52"/>
     <use x="98.828125" xlink:href="#DejaVuSans-51"/>
    </g>
   </g>
   <g id="text_14">
    <!-- f49 -->
    <g transform="translate(386.578944 16.615765)scale(0.14 -0.14)">
     <defs>
      <path d="M 10.984375 1.515625 
L 10.984375 10.5 
Q 14.703125 8.734375 18.5 7.8125 
Q 22.3125 6.890625 25.984375 6.890625 
Q 35.75 6.890625 40.890625 13.453125 
Q 46.046875 20.015625 46.78125 33.40625 
Q 43.953125 29.203125 39.59375 26.953125 
Q 35.25 24.703125 29.984375 24.703125 
Q 19.046875 24.703125 12.671875 31.3125 
Q 6.296875 37.9375 6.296875 49.421875 
Q 6.296875 60.640625 12.9375 67.421875 
Q 19.578125 74.21875 30.609375 74.21875 
Q 43.265625 74.21875 49.921875 64.515625 
Q 56.59375 54.828125 56.59375 36.375 
Q 56.59375 19.140625 48.40625 8.859375 
Q 40.234375 -1.421875 26.421875 -1.421875 
Q 22.703125 -1.421875 18.890625 -0.6875 
Q 15.09375 0.046875 10.984375 1.515625 
z
M 30.609375 32.421875 
Q 37.25 32.421875 41.125 36.953125 
Q 45.015625 41.5 45.015625 49.421875 
Q 45.015625 57.28125 41.125 61.84375 
Q 37.25 66.40625 30.609375 66.40625 
Q 23.96875 66.40625 20.09375 61.84375 
Q 16.21875 57.28125 16.21875 49.421875 
Q 16.21875 41.5 20.09375 36.953125 
Q 23.96875 32.421875 30.609375 32.421875 
z
" id="DejaVuSans-57"/>
     </defs>
     <use xlink:href="#DejaVuSans-102"/>
     <use x="35.205078" xlink:href="#DejaVuSans-52"/>
     <use x="98.828125" xlink:href="#DejaVuSans-57"/>
    </g>
   </g>
   <g id="text_15">
    <!-- bbob-constrained -->
    <g transform="translate(60.632064 17.582726)scale(0.102 -0.102)">
     <defs>
      <path d="M 48.6875 27.296875 
Q 48.6875 37.203125 44.609375 42.84375 
Q 40.53125 48.484375 33.40625 48.484375 
Q 26.265625 48.484375 22.1875 42.84375 
Q 18.109375 37.203125 18.109375 27.296875 
Q 18.109375 17.390625 22.1875 11.75 
Q 26.265625 6.109375 33.40625 6.109375 
Q 40.53125 6.109375 44.609375 11.75 
Q 48.6875 17.390625 48.6875 27.296875 
z
M 18.109375 46.390625 
Q 20.953125 51.265625 25.265625 53.625 
Q 29.59375 56 35.59375 56 
Q 45.5625 56 51.78125 48.09375 
Q 58.015625 40.1875 58.015625 27.296875 
Q 58.015625 14.40625 51.78125 6.484375 
Q 45.5625 -1.421875 35.59375 -1.421875 
Q 29.59375 -1.421875 25.265625 0.953125 
Q 20.953125 3.328125 18.109375 8.203125 
L 18.109375 0 
L 9.078125 0 
L 9.078125 75.984375 
L 18.109375 75.984375 
z
" id="DejaVuSans-98"/>
      <path d="M 4.890625 31.390625 
L 31.203125 31.390625 
L 31.203125 23.390625 
L 4.890625 23.390625 
z
" id="DejaVuSans-45"/>
     </defs>
     <use xlink:href="#DejaVuSans-98"/>
     <use x="63.476562" xlink:href="#DejaVuSans-98"/>
     <use x="126.953125" xlink:href="#DejaVuSans-111"/>
     <use x="188.134766" xlink:href="#DejaVuSans-98"/>
     <use x="251.611328" xlink:href="#DejaVuSans-45"/>
     <use x="287.695312" xlink:href="#DejaVuSans-99"/>
     <use x="342.675781" xlink:href="#DejaVuSans-111"/>
     <use x="403.857422" xlink:href="#DejaVuSans-110"/>
     <use x="467.236328" xlink:href="#DejaVuSans-115"/>
     <use x="519.335938" xlink:href="#DejaVuSans-116"/>
     <use x="558.544922" xlink:href="#DejaVuSans-114"/>
     <use x="599.658203" xlink:href="#DejaVuSans-97"/>
     <use x="660.9375" xlink:href="#DejaVuSans-105"/>
     <use x="688.720703" xlink:href="#DejaVuSans-110"/>
     <use x="752.099609" xlink:href="#DejaVuSans-101"/>
     <use x="813.623047" xlink:href="#DejaVuSans-100"/>
    </g>
    <!-- Multi-modal functions with 0n+1 constraints, 5-D -->
    <g transform="translate(60.632064 29.004495)scale(0.102 -0.102)">
     <defs>
      <path d="M 9.8125 72.90625 
L 24.515625 72.90625 
L 43.109375 23.296875 
L 61.8125 72.90625 
L 76.515625 72.90625 
L 76.515625 0 
L 66.890625 0 
L 66.890625 64.015625 
L 48.09375 14.015625 
L 38.1875 14.015625 
L 19.390625 64.015625 
L 19.390625 0 
L 9.8125 0 
z
" id="DejaVuSans-77"/>
      <path d="M 4.203125 54.6875 
L 13.1875 54.6875 
L 24.421875 12.015625 
L 35.59375 54.6875 
L 46.1875 54.6875 
L 57.421875 12.015625 
L 68.609375 54.6875 
L 77.59375 54.6875 
L 63.28125 0 
L 52.6875 0 
L 40.921875 44.828125 
L 29.109375 0 
L 18.5 0 
z
" id="DejaVuSans-119"/>
      <path d="M 54.890625 33.015625 
L 54.890625 0 
L 45.90625 0 
L 45.90625 32.71875 
Q 45.90625 40.484375 42.875 44.328125 
Q 39.84375 48.1875 33.796875 48.1875 
Q 26.515625 48.1875 22.3125 43.546875 
Q 18.109375 38.921875 18.109375 30.90625 
L 18.109375 0 
L 9.078125 0 
L 9.078125 75.984375 
L 18.109375 75.984375 
L 18.109375 46.1875 
Q 21.34375 51.125 25.703125 53.5625 
Q 30.078125 56 35.796875 56 
Q 45.21875 56 50.046875 50.171875 
Q 54.890625 44.34375 54.890625 33.015625 
z
" id="DejaVuSans-104"/>
      <path d="M 46 62.703125 
L 46 35.5 
L 73.1875 35.5 
L 73.1875 27.203125 
L 46 27.203125 
L 46 0 
L 37.796875 0 
L 37.796875 27.203125 
L 10.59375 27.203125 
L 10.59375 35.5 
L 37.796875 35.5 
L 37.796875 62.703125 
z
" id="DejaVuSans-43"/>
      <path d="M 10.796875 72.90625 
L 49.515625 72.90625 
L 49.515625 64.59375 
L 19.828125 64.59375 
L 19.828125 46.734375 
Q 21.96875 47.46875 24.109375 47.828125 
Q 26.265625 48.1875 28.421875 48.1875 
Q 40.625 48.1875 47.75 41.5 
Q 54.890625 34.8125 54.890625 23.390625 
Q 54.890625 11.625 47.5625 5.09375 
Q 40.234375 -1.421875 26.90625 -1.421875 
Q 22.3125 -1.421875 17.546875 -0.640625 
Q 12.796875 0.140625 7.71875 1.703125 
L 7.71875 11.625 
Q 12.109375 9.234375 16.796875 8.0625 
Q 21.484375 6.890625 26.703125 6.890625 
Q 35.15625 6.890625 40.078125 11.328125 
Q 45.015625 15.765625 45.015625 23.390625 
Q 45.015625 31 40.078125 35.4375 
Q 35.15625 39.890625 26.703125 39.890625 
Q 22.75 39.890625 18.8125 39.015625 
Q 14.890625 38.140625 10.796875 36.28125 
z
" id="DejaVuSans-53"/>
      <path d="M 19.671875 64.796875 
L 19.671875 8.109375 
L 31.59375 8.109375 
Q 46.6875 8.109375 53.6875 14.9375 
Q 60.6875 21.78125 60.6875 36.53125 
Q 60.6875 51.171875 53.6875 57.984375 
Q 46.6875 64.796875 31.59375 64.796875 
z
M 9.8125 72.90625 
L 30.078125 72.90625 
Q 51.265625 72.90625 61.171875 64.09375 
Q 71.09375 55.28125 71.09375 36.53125 
Q 71.09375 17.671875 61.125 8.828125 
Q 51.171875 0 30.078125 0 
L 9.8125 0 
z
" id="DejaVuSans-68"/>
     </defs>
     <use xlink:href="#DejaVuSans-77"/>
     <use x="86.279297" xlink:href="#DejaVuSans-117"/>
     <use x="149.658203" xlink:href="#DejaVuSans-108"/>
     <use x="177.441406" xlink:href="#DejaVuSans-116"/>
     <use x="216.650391" xlink:href="#DejaVuSans-105"/>
     <use x="244.433594" xlink:href="#DejaVuSans-45"/>
     <use x="280.517578" xlink:href="#DejaVuSans-109"/>
     <use x="377.929688" xlink:href="#DejaVuSans-111"/>
     <use x="439.111328" xlink:href="#DejaVuSans-100"/>
     <use x="502.587891" xlink:href="#DejaVuSans-97"/>
     <use x="563.867188" xlink:href="#DejaVuSans-108"/>
     <use x="591.650391" xlink:href="#DejaVuSans-32"/>
     <use x="623.4375" xlink:href="#DejaVuSans-102"/>
     <use x="658.642578" xlink:href="#DejaVuSans-117"/>
     <use x="722.021484" xlink:href="#DejaVuSans-110"/>
     <use x="785.400391" xlink:href="#DejaVuSans-99"/>
     <use x="840.380859" xlink:href="#DejaVuSans-116"/>
     <use x="879.589844" xlink:href="#DejaVuSans-105"/>
     <use x="907.373047" xlink:href="#DejaVuSans-111"/>
     <use x="968.554688" xlink:href="#DejaVuSans-110"/>
     <use x="1031.933594" xlink:href="#DejaVuSans-115"/>
     <use x="1084.033203" xlink:href="#DejaVuSans-32"/>
     <use x="1115.820312" xlink:href="#DejaVuSans-119"/>
     <use x="1197.607422" xlink:href="#DejaVuSans-105"/>
     <use x="1225.390625" xlink:href="#DejaVuSans-116"/>
     <use x="1264.599609" xlink:href="#DejaVuSans-104"/>
     <use x="1327.978516" xlink:href="#DejaVuSans-32"/>
     <use x="1359.765625" xlink:href="#DejaVuSans-48"/>
     <use x="1423.388672" xlink:href="#DejaVuSans-110"/>
     <use x="1486.767578" xlink:href="#DejaVuSans-43"/>
     <use x="1570.556641" xlink:href="#DejaVuSans-49"/>
     <use x="1634.179688" xlink:href="#DejaVuSans-32"/>
     <use x="1665.966797" xlink:href="#DejaVuSans-99"/>
     <use x="1720.947266" xlink:href="#DejaVuSans-111"/>
     <use x="1782.128906" xlink:href="#DejaVuSans-110"/>
     <use x="1845.507812" xlink:href="#DejaVuSans-115"/>
     <use x="1897.607422" xlink:href="#DejaVuSans-116"/>
     <use x="1936.816406" xlink:href="#DejaVuSans-114"/>
     <use x="1977.929688" xlink:href="#DejaVuSans-97"/>
     <use x="2039.208984" xlink:href="#DejaVuSans-105"/>
     <use x="2066.992188" xlink:href="#DejaVuSans-110"/>
     <use x="2130.371094" xlink:href="#DejaVuSans-116"/>
     <use x="2169.580078" xlink:href="#DejaVuSans-115"/>
     <use x="2221.679688" xlink:href="#DejaVuSans-44"/>
     <use x="2253.466797" xlink:href="#DejaVuSans-32"/>
     <use x="2285.253906" xlink:href="#DejaVuSans-53"/>
     <use x="2348.876953" xlink:href="#DejaVuSans-45"/>
     <use x="2384.960938" xlink:href="#DejaVuSans-68"/>
    </g>
    <!-- 41 targets: 100..1e-06 -->
    <g transform="translate(60.632064 40.426264)scale(0.102 -0.102)">
     <defs>
      <path d="M 11.71875 12.40625 
L 22.015625 12.40625 
L 22.015625 0 
L 11.71875 0 
z
M 11.71875 51.703125 
L 22.015625 51.703125 
L 22.015625 39.3125 
L 11.71875 39.3125 
z
" id="DejaVuSans-58"/>
     </defs>
     <use xlink:href="#DejaVuSans-52"/>
     <use x="63.623047" xlink:href="#DejaVuSans-49"/>
     <use x="127.246094" xlink:href="#DejaVuSans-32"/>
     <use x="159.033203" xlink:href="#DejaVuSans-116"/>
     <use x="198.242188" xlink:href="#DejaVuSans-97"/>
     <use x="259.521484" xlink:href="#DejaVuSans-114"/>
     <use x="298.884766" xlink:href="#DejaVuSans-103"/>
     <use x="362.361328" xlink:href="#DejaVuSans-101"/>
     <use x="423.884766" xlink:href="#DejaVuSans-116"/>
     <use x="463.09375" xlink:href="#DejaVuSans-115"/>
     <use x="515.193359" xlink:href="#DejaVuSans-58"/>
     <use x="548.884766" xlink:href="#DejaVuSans-32"/>
     <use x="580.671875" xlink:href="#DejaVuSans-49"/>
     <use x="644.294922" xlink:href="#DejaVuSans-48"/>
     <use x="707.917969" xlink:href="#DejaVuSans-48"/>
     <use x="771.541016" xlink:href="#DejaVuSans-46"/>
     <use x="803.328125" xlink:href="#DejaVuSans-46"/>
     <use x="835.115234" xlink:href="#DejaVuSans-49"/>
     <use x="898.738281" xlink:href="#DejaVuSans-101"/>
     <use x="960.261719" xlink:href="#DejaVuSans-45"/>
     <use x="996.345703" xlink:href="#DejaVuSans-48"/>
     <use x="1059.96875" xlink:href="#DejaVuSans-54"/>
    </g>
    <!-- evals = f-evals + g-evals -->
    <g transform="translate(60.632064 51.848032)scale(0.102 -0.102)">
     <defs>
      <path d="M 10.59375 45.40625 
L 73.1875 45.40625 
L 73.1875 37.203125 
L 10.59375 37.203125 
z
M 10.59375 25.484375 
L 73.1875 25.484375 
L 73.1875 17.1875 
L 10.59375 17.1875 
z
" id="DejaVuSans-61"/>
     </defs>
     <use xlink:href="#DejaVuSans-101"/>
     <use x="61.523438" xlink:href="#DejaVuSans-118"/>
     <use x="120.703125" xlink:href="#DejaVuSans-97"/>
     <use x="181.982422" xlink:href="#DejaVuSans-108"/>
     <use x="209.765625" xlink:href="#DejaVuSans-115"/>
     <use x="261.865234" xlink:href="#DejaVuSans-32"/>
     <use x="293.652344" xlink:href="#DejaVuSans-61"/>
     <use x="377.441406" xlink:href="#DejaVuSans-32"/>
     <use x="409.228516" xlink:href="#DejaVuSans-102"/>
     <use x="438.933594" xlink:href="#DejaVuSans-45"/>
     <use x="475.017578" xlink:href="#DejaVuSans-101"/>
     <use x="536.541016" xlink:href="#DejaVuSans-118"/>
     <use x="595.720703" xlink:href="#DejaVuSans-97"/>
     <use x="657" xlink:href="#DejaVuSans-108"/>
     <use x="684.783203" xlink:href="#DejaVuSans-115"/>
     <use x="736.882812" xlink:href="#DejaVuSans-32"/>
     <use x="768.669922" xlink:href="#DejaVuSans-43"/>
     <use x="852.458984" xlink:href="#DejaVuSans-32"/>
     <use x="884.246094" xlink:href="#DejaVuSans-103"/>
     <use x="947.722656" xlink:href="#DejaVuSans-45"/>
     <use x="983.806641" xlink:href="#DejaVuSans-101"/>
     <use x="1045.330078" xlink:href="#DejaVuSans-118"/>
     <use x="1104.509766" xlink:href="#DejaVuSans-97"/>
     <use x="1165.789062" xlink:href="#DejaVuSans-108"/>
     <use x="1193.572266" xlink:href="#DejaVuSans-115"/>
    </g>
    <!-- 15 instances -->
    <g transform="translate(60.632064 63.269801)scale(0.102 -0.102)">
     <use xlink:href="#DejaVuSans-49"/>
     <use x="63.623047" xlink:href="#DejaVuSans-53"/>
     <use x="127.246094" xlink:href="#DejaVuSans-32"/>
     <use x="159.033203" xlink:href="#DejaVuSans-105"/>
     <use x="186.816406" xlink:href="#DejaVuSans-110"/>
     <use x="250.195312" xlink:href="#DejaVuSans-115"/>
     <use x="302.294922" xlink:href="#DejaVuSans-116"/>
     <use x="341.503906" xlink:href="#DejaVuSans-97"/>
     <use x="402.783203" xlink:href="#DejaVuSans-110"/>
     <use x="466.162109" xlink:href="#DejaVuSans-99"/>
     <use x="521.142578" xlink:href="#DejaVuSans-101"/>
     <use x="582.666016" xlink:href="#DejaVuSans-115"/>
    </g>
   </g>
   <g id="text_16">
    <!-- v2.4.159 -->
    <g style="fill:#808080;" transform="translate(187.15945 293.943992)scale(0.1 -0.1)">
     <use xlink:href="#DejaVuSans-118"/>
     <use x="59.179688" xlink:href="#DejaVuSans-50"/>
     <use x="122.802734" xlink:href="#DejaVuSans-46"/>
     <use x="154.589844" xlink:href="#DejaVuSans-52"/>
     <use x="218.212891" xlink:href="#DejaVuSans-46"/>
     <use x="250" xlink:href="#DejaVuSans-49"/>
     <use x="313.623047" xlink:href="#DejaVuSans-53"/>
     <use x="377.246094" xlink:href="#DejaVuSans-57"/>
    </g>
   </g>
  </g>
 </g>
 <defs>
  <clipPath id="p46c4f08d4e">
   <rect height="292.032" width="303.2064" x="57.6" y="6.912"/>
  </clipPath>
 </defs>
</svg>
