<?xml version="1.0" encoding="utf-8" standalone="no"?>
<!DOCTYPE svg PUBLIC "-//W3C//DTD SVG 1.1//EN"
  "http://www.w3.org/Graphics/SVG/1.1/DTD/svg11.dtd">
<!-- Created with matplotlib (https://matplotlib.org/) -->
<svg height="345.6pt" version="1.1" viewBox="0 0 460.8 345.6" width="460.8pt" xmlns="http://www.w3.org/2000/svg" xmlns:xlink="http://www.w3.org/1999/xlink">
 <metadata>
  <rdf:RDF xmlns:cc="http://creativecommons.org/ns#" xmlns:dc="http://purl.org/dc/elements/1.1/" xmlns:rdf="http://www.w3.org/1999/02/22-rdf-syntax-ns#">
   <cc:Work>
    <dc:type rdf:resource="http://purl.org/dc/dcmitype/StillImage"/>
    <dc:date>2022-02-09T00:08:52.783551</dc:date>
    <dc:format>image/svg+xml</dc:format>
    <dc:creator>
     <cc:Agent>
      <dc:title>Matplotlib v3.3.3, https://matplotlib.org/</dc:title>
     </cc:Agent>
    </dc:creator>
   </cc:Work>
  </rdf:RDF>
 </metadata>
 <defs>
  <style type="text/css">*{stroke-linecap:butt;stroke-linejoin:round;}</style>
 </defs>
 <g id="figure_1">
  <g id="patch_1">
   <path d="M 0 345.6 
L 460.8 345.6 
L 460.8 0 
L 0 0 
z
" style="fill:#ffffff;"/>
  </g>
  <g id="axes_1">
   <g id="patch_2">
    <path d="M 57.6 298.944 
L 360.8064 298.944 
L 360.8064 6.912 
L 57.6 6.912 
z
" style="fill:#ffffff;"/>
   </g>
   <g id="matplotlib.axis_1">
    <g id="xtick_1">
     <g id="line2d_1">
      <path clip-path="url(#p3f5852cff1)" d="M 57.6 298.944 
L 57.6 6.912 
" style="fill:none;stroke:#b0b0b0;stroke-linecap:square;stroke-width:0.8;"/>
     </g>
     <g id="line2d_2">
      <defs>
       <path d="M 0 0 
L 0 3.5 
" id="m3fd82c50eb" style="stroke:#000000;stroke-width:0.8;"/>
      </defs>
      <g>
       <use style="stroke:#000000;stroke-width:0.8;" x="57.6" xlink:href="#m3fd82c50eb" y="298.944"/>
      </g>
     </g>
     <g id="text_1">
      <!-- 0 -->
      <g transform="translate(52.191875 318.861344)scale(0.17 -0.17)">
       <defs>
        <path d="M 31.78125 66.40625 
Q 24.171875 66.40625 20.328125 58.90625 
Q 16.5 51.421875 16.5 36.375 
Q 16.5 21.390625 20.328125 13.890625 
Q 24.171875 6.390625 31.78125 6.390625 
Q 39.453125 6.390625 43.28125 13.890625 
Q 47.125 21.390625 47.125 36.375 
Q 47.125 51.421875 43.28125 58.90625 
Q 39.453125 66.40625 31.78125 66.40625 
z
M 31.78125 74.21875 
Q 44.046875 74.21875 50.515625 64.515625 
Q 56.984375 54.828125 56.984375 36.375 
Q 56.984375 17.96875 50.515625 8.265625 
Q 44.046875 -1.421875 31.78125 -1.421875 
Q 19.53125 -1.421875 13.0625 8.265625 
Q 6.59375 17.96875 6.59375 36.375 
Q 6.59375 54.828125 13.0625 64.515625 
Q 19.53125 74.21875 31.78125 74.21875 
z
" id="DejaVuSans-48"/>
       </defs>
       <use xlink:href="#DejaVuSans-48"/>
      </g>
     </g>
    </g>
    <g id="xtick_2">
     <g id="line2d_3">
      <path clip-path="url(#p3f5852cff1)" d="M 144.2304 298.944 
L 144.2304 6.912 
" style="fill:none;stroke:#b0b0b0;stroke-linecap:square;stroke-width:0.8;"/>
     </g>
     <g id="line2d_4">
      <g>
       <use style="stroke:#000000;stroke-width:0.8;" x="144.2304" xlink:href="#m3fd82c50eb" y="298.944"/>
      </g>
     </g>
     <g id="text_2">
      <!-- 2 -->
      <g transform="translate(138.822275 318.861344)scale(0.17 -0.17)">
       <defs>
        <path d="M 19.1875 8.296875 
L 53.609375 8.296875 
L 53.609375 0 
L 7.328125 0 
L 7.328125 8.296875 
Q 12.9375 14.109375 22.625 23.890625 
Q 32.328125 33.6875 34.8125 36.53125 
Q 39.546875 41.84375 41.421875 45.53125 
Q 43.3125 49.21875 43.3125 52.78125 
Q 43.3125 58.59375 39.234375 62.25 
Q 35.15625 65.921875 28.609375 65.921875 
Q 23.96875 65.921875 18.8125 64.3125 
Q 13.671875 62.703125 7.8125 59.421875 
L 7.8125 69.390625 
Q 13.765625 71.78125 18.9375 73 
Q 24.125 74.21875 28.421875 74.21875 
Q 39.75 74.21875 46.484375 68.546875 
Q 53.21875 62.890625 53.21875 53.421875 
Q 53.21875 48.921875 51.53125 44.890625 
Q 49.859375 40.875 45.40625 35.40625 
Q 44.1875 33.984375 37.640625 27.21875 
Q 31.109375 20.453125 19.1875 8.296875 
z
" id="DejaVuSans-50"/>
       </defs>
       <use xlink:href="#DejaVuSans-50"/>
      </g>
     </g>
    </g>
    <g id="xtick_3">
     <g id="line2d_5">
      <path clip-path="url(#p3f5852cff1)" d="M 230.8608 298.944 
L 230.8608 6.912 
" style="fill:none;stroke:#b0b0b0;stroke-linecap:square;stroke-width:0.8;"/>
     </g>
     <g id="line2d_6">
      <g>
       <use style="stroke:#000000;stroke-width:0.8;" x="230.8608" xlink:href="#m3fd82c50eb" y="298.944"/>
      </g>
     </g>
     <g id="text_3">
      <!-- 4 -->
      <g transform="translate(225.452675 318.861344)scale(0.17 -0.17)">
       <defs>
        <path d="M 37.796875 64.3125 
L 12.890625 25.390625 
L 37.796875 25.390625 
z
M 35.203125 72.90625 
L 47.609375 72.90625 
L 47.609375 25.390625 
L 58.015625 25.390625 
L 58.015625 17.1875 
L 47.609375 17.1875 
L 47.609375 0 
L 37.796875 0 
L 37.796875 17.1875 
L 4.890625 17.1875 
L 4.890625 26.703125 
z
" id="DejaVuSans-52"/>
       </defs>
       <use xlink:href="#DejaVuSans-52"/>
      </g>
     </g>
    </g>
    <g id="xtick_4">
     <g id="line2d_7">
      <path clip-path="url(#p3f5852cff1)" d="M 317.4912 298.944 
L 317.4912 6.912 
" style="fill:none;stroke:#b0b0b0;stroke-linecap:square;stroke-width:0.8;"/>
     </g>
     <g id="line2d_8">
      <g>
       <use style="stroke:#000000;stroke-width:0.8;" x="317.4912" xlink:href="#m3fd82c50eb" y="298.944"/>
      </g>
     </g>
     <g id="text_4">
      <!-- 6 -->
      <g transform="translate(312.083075 318.861344)scale(0.17 -0.17)">
       <defs>
        <path d="M 33.015625 40.375 
Q 26.375 40.375 22.484375 35.828125 
Q 18.609375 31.296875 18.609375 23.390625 
Q 18.609375 15.53125 22.484375 10.953125 
Q 26.375 6.390625 33.015625 6.390625 
Q 39.65625 6.390625 43.53125 10.953125 
Q 47.40625 15.53125 47.40625 23.390625 
Q 47.40625 31.296875 43.53125 35.828125 
Q 39.65625 40.375 33.015625 40.375 
z
M 52.59375 71.296875 
L 52.59375 62.3125 
Q 48.875 64.0625 45.09375 64.984375 
Q 41.3125 65.921875 37.59375 65.921875 
Q 27.828125 65.921875 22.671875 59.328125 
Q 17.53125 52.734375 16.796875 39.40625 
Q 19.671875 43.65625 24.015625 45.921875 
Q 28.375 48.1875 33.59375 48.1875 
Q 44.578125 48.1875 50.953125 41.515625 
Q 57.328125 34.859375 57.328125 23.390625 
Q 57.328125 12.15625 50.6875 5.359375 
Q 44.046875 -1.421875 33.015625 -1.421875 
Q 20.359375 -1.421875 13.671875 8.265625 
Q 6.984375 17.96875 6.984375 36.375 
Q 6.984375 53.65625 15.1875 63.9375 
Q 23.390625 74.21875 37.203125 74.21875 
Q 40.921875 74.21875 44.703125 73.484375 
Q 48.484375 72.75 52.59375 71.296875 
z
" id="DejaVuSans-54"/>
       </defs>
       <use xlink:href="#DejaVuSans-54"/>
      </g>
     </g>
    </g>
    <g id="xtick_5">
     <g id="line2d_9">
      <path clip-path="url(#p3f5852cff1)" d="M 100.9152 298.944 
L 100.9152 6.912 
" style="fill:none;stroke:#b0b0b0;stroke-linecap:square;stroke-width:0.8;"/>
     </g>
     <g id="line2d_10">
      <defs>
       <path d="M 0 0 
L 0 2 
" id="m64a94fac64" style="stroke:#000000;stroke-width:0.6;"/>
      </defs>
      <g>
       <use style="stroke:#000000;stroke-width:0.6;" x="100.9152" xlink:href="#m64a94fac64" y="298.944"/>
      </g>
     </g>
    </g>
    <g id="xtick_6">
     <g id="line2d_11">
      <path clip-path="url(#p3f5852cff1)" d="M 187.5456 298.944 
L 187.5456 6.912 
" style="fill:none;stroke:#b0b0b0;stroke-linecap:square;stroke-width:0.8;"/>
     </g>
     <g id="line2d_12">
      <g>
       <use style="stroke:#000000;stroke-width:0.6;" x="187.5456" xlink:href="#m64a94fac64" y="298.944"/>
      </g>
     </g>
    </g>
    <g id="xtick_7">
     <g id="line2d_13">
      <path clip-path="url(#p3f5852cff1)" d="M 274.176 298.944 
L 274.176 6.912 
" style="fill:none;stroke:#b0b0b0;stroke-linecap:square;stroke-width:0.8;"/>
     </g>
     <g id="line2d_14">
      <g>
       <use style="stroke:#000000;stroke-width:0.6;" x="274.176" xlink:href="#m64a94fac64" y="298.944"/>
      </g>
     </g>
    </g>
    <g id="xtick_8">
     <g id="line2d_15">
      <path clip-path="url(#p3f5852cff1)" d="M 360.8064 298.944 
L 360.8064 6.912 
" style="fill:none;stroke:#b0b0b0;stroke-linecap:square;stroke-width:0.8;"/>
     </g>
     <g id="line2d_16">
      <g>
       <use style="stroke:#000000;stroke-width:0.6;" x="360.8064" xlink:href="#m64a94fac64" y="298.944"/>
      </g>
     </g>
    </g>
    <g id="text_5">
     <!-- log10(evals / dimension) -->
     <g transform="translate(104.238825 339.314156)scale(0.17 -0.17)">
      <defs>
       <path d="M 9.421875 75.984375 
L 18.40625 75.984375 
L 18.40625 0 
L 9.421875 0 
z
" id="DejaVuSans-108"/>
       <path d="M 30.609375 48.390625 
Q 23.390625 48.390625 19.1875 42.75 
Q 14.984375 37.109375 14.984375 27.296875 
Q 14.984375 17.484375 19.15625 11.84375 
Q 23.34375 6.203125 30.609375 6.203125 
Q 37.796875 6.203125 41.984375 11.859375 
Q 46.1875 17.53125 46.1875 27.296875 
Q 46.1875 37.015625 41.984375 42.703125 
Q 37.796875 48.390625 30.609375 48.390625 
z
M 30.609375 56 
Q 42.328125 56 49.015625 48.375 
Q 55.71875 40.765625 55.71875 27.296875 
Q 55.71875 13.875 49.015625 6.21875 
Q 42.328125 -1.421875 30.609375 -1.421875 
Q 18.84375 -1.421875 12.171875 6.21875 
Q 5.515625 13.875 5.515625 27.296875 
Q 5.515625 40.765625 12.171875 48.375 
Q 18.84375 56 30.609375 56 
z
" id="DejaVuSans-111"/>
       <path d="M 45.40625 27.984375 
Q 45.40625 37.75 41.375 43.109375 
Q 37.359375 48.484375 30.078125 48.484375 
Q 22.859375 48.484375 18.828125 43.109375 
Q 14.796875 37.75 14.796875 27.984375 
Q 14.796875 18.265625 18.828125 12.890625 
Q 22.859375 7.515625 30.078125 7.515625 
Q 37.359375 7.515625 41.375 12.890625 
Q 45.40625 18.265625 45.40625 27.984375 
z
M 54.390625 6.78125 
Q 54.390625 -7.171875 48.1875 -13.984375 
Q 42 -20.796875 29.203125 -20.796875 
Q 24.46875 -20.796875 20.265625 -20.09375 
Q 16.0625 -19.390625 12.109375 -17.921875 
L 12.109375 -9.1875 
Q 16.0625 -11.328125 19.921875 -12.34375 
Q 23.78125 -13.375 27.78125 -13.375 
Q 36.625 -13.375 41.015625 -8.765625 
Q 45.40625 -4.15625 45.40625 5.171875 
L 45.40625 9.625 
Q 42.625 4.78125 38.28125 2.390625 
Q 33.9375 0 27.875 0 
Q 17.828125 0 11.671875 7.65625 
Q 5.515625 15.328125 5.515625 27.984375 
Q 5.515625 40.671875 11.671875 48.328125 
Q 17.828125 56 27.875 56 
Q 33.9375 56 38.28125 53.609375 
Q 42.625 51.21875 45.40625 46.390625 
L 45.40625 54.6875 
L 54.390625 54.6875 
z
" id="DejaVuSans-103"/>
       <path d="M 12.40625 8.296875 
L 28.515625 8.296875 
L 28.515625 63.921875 
L 10.984375 60.40625 
L 10.984375 69.390625 
L 28.421875 72.90625 
L 38.28125 72.90625 
L 38.28125 8.296875 
L 54.390625 8.296875 
L 54.390625 0 
L 12.40625 0 
z
" id="DejaVuSans-49"/>
       <path d="M 31 75.875 
Q 24.46875 64.65625 21.28125 53.65625 
Q 18.109375 42.671875 18.109375 31.390625 
Q 18.109375 20.125 21.3125 9.0625 
Q 24.515625 -2 31 -13.1875 
L 23.1875 -13.1875 
Q 15.875 -1.703125 12.234375 9.375 
Q 8.59375 20.453125 8.59375 31.390625 
Q 8.59375 42.28125 12.203125 53.3125 
Q 15.828125 64.359375 23.1875 75.875 
z
" id="DejaVuSans-40"/>
       <path d="M 56.203125 29.59375 
L 56.203125 25.203125 
L 14.890625 25.203125 
Q 15.484375 15.921875 20.484375 11.0625 
Q 25.484375 6.203125 34.421875 6.203125 
Q 39.59375 6.203125 44.453125 7.46875 
Q 49.3125 8.734375 54.109375 11.28125 
L 54.109375 2.78125 
Q 49.265625 0.734375 44.1875 -0.34375 
Q 39.109375 -1.421875 33.890625 -1.421875 
Q 20.796875 -1.421875 13.15625 6.1875 
Q 5.515625 13.8125 5.515625 26.8125 
Q 5.515625 40.234375 12.765625 48.109375 
Q 20.015625 56 32.328125 56 
Q 43.359375 56 49.78125 48.890625 
Q 56.203125 41.796875 56.203125 29.59375 
z
M 47.21875 32.234375 
Q 47.125 39.59375 43.09375 43.984375 
Q 39.0625 48.390625 32.421875 48.390625 
Q 24.90625 48.390625 20.390625 44.140625 
Q 15.875 39.890625 15.1875 32.171875 
z
" id="DejaVuSans-101"/>
       <path d="M 2.984375 54.6875 
L 12.5 54.6875 
L 29.59375 8.796875 
L 46.6875 54.6875 
L 56.203125 54.6875 
L 35.6875 0 
L 23.484375 0 
z
" id="DejaVuSans-118"/>
       <path d="M 34.28125 27.484375 
Q 23.390625 27.484375 19.1875 25 
Q 14.984375 22.515625 14.984375 16.5 
Q 14.984375 11.71875 18.140625 8.90625 
Q 21.296875 6.109375 26.703125 6.109375 
Q 34.1875 6.109375 38.703125 11.40625 
Q 43.21875 16.703125 43.21875 25.484375 
L 43.21875 27.484375 
z
M 52.203125 31.203125 
L 52.203125 0 
L 43.21875 0 
L 43.21875 8.296875 
Q 40.140625 3.328125 35.546875 0.953125 
Q 30.953125 -1.421875 24.3125 -1.421875 
Q 15.921875 -1.421875 10.953125 3.296875 
Q 6 8.015625 6 15.921875 
Q 6 25.140625 12.171875 29.828125 
Q 18.359375 34.515625 30.609375 34.515625 
L 43.21875 34.515625 
L 43.21875 35.40625 
Q 43.21875 41.609375 39.140625 45 
Q 35.0625 48.390625 27.6875 48.390625 
Q 23 48.390625 18.546875 47.265625 
Q 14.109375 46.140625 10.015625 43.890625 
L 10.015625 52.203125 
Q 14.9375 54.109375 19.578125 55.046875 
Q 24.21875 56 28.609375 56 
Q 40.484375 56 46.34375 49.84375 
Q 52.203125 43.703125 52.203125 31.203125 
z
" id="DejaVuSans-97"/>
       <path d="M 44.28125 53.078125 
L 44.28125 44.578125 
Q 40.484375 46.53125 36.375 47.5 
Q 32.28125 48.484375 27.875 48.484375 
Q 21.1875 48.484375 17.84375 46.4375 
Q 14.5 44.390625 14.5 40.28125 
Q 14.5 37.15625 16.890625 35.375 
Q 19.28125 33.59375 26.515625 31.984375 
L 29.59375 31.296875 
Q 39.15625 29.25 43.1875 25.515625 
Q 47.21875 21.78125 47.21875 15.09375 
Q 47.21875 7.46875 41.1875 3.015625 
Q 35.15625 -1.421875 24.609375 -1.421875 
Q 20.21875 -1.421875 15.453125 -0.5625 
Q 10.6875 0.296875 5.421875 2 
L 5.421875 11.28125 
Q 10.40625 8.6875 15.234375 7.390625 
Q 20.0625 6.109375 24.8125 6.109375 
Q 31.15625 6.109375 34.5625 8.28125 
Q 37.984375 10.453125 37.984375 14.40625 
Q 37.984375 18.0625 35.515625 20.015625 
Q 33.0625 21.96875 24.703125 23.78125 
L 21.578125 24.515625 
Q 13.234375 26.265625 9.515625 29.90625 
Q 5.8125 33.546875 5.8125 39.890625 
Q 5.8125 47.609375 11.28125 51.796875 
Q 16.75 56 26.8125 56 
Q 31.78125 56 36.171875 55.265625 
Q 40.578125 54.546875 44.28125 53.078125 
z
" id="DejaVuSans-115"/>
       <path id="DejaVuSans-32"/>
       <path d="M 25.390625 72.90625 
L 33.6875 72.90625 
L 8.296875 -9.28125 
L 0 -9.28125 
z
" id="DejaVuSans-47"/>
       <path d="M 45.40625 46.390625 
L 45.40625 75.984375 
L 54.390625 75.984375 
L 54.390625 0 
L 45.40625 0 
L 45.40625 8.203125 
Q 42.578125 3.328125 38.25 0.953125 
Q 33.9375 -1.421875 27.875 -1.421875 
Q 17.96875 -1.421875 11.734375 6.484375 
Q 5.515625 14.40625 5.515625 27.296875 
Q 5.515625 40.1875 11.734375 48.09375 
Q 17.96875 56 27.875 56 
Q 33.9375 56 38.25 53.625 
Q 42.578125 51.265625 45.40625 46.390625 
z
M 14.796875 27.296875 
Q 14.796875 17.390625 18.875 11.75 
Q 22.953125 6.109375 30.078125 6.109375 
Q 37.203125 6.109375 41.296875 11.75 
Q 45.40625 17.390625 45.40625 27.296875 
Q 45.40625 37.203125 41.296875 42.84375 
Q 37.203125 48.484375 30.078125 48.484375 
Q 22.953125 48.484375 18.875 42.84375 
Q 14.796875 37.203125 14.796875 27.296875 
z
" id="DejaVuSans-100"/>
       <path d="M 9.421875 54.6875 
L 18.40625 54.6875 
L 18.40625 0 
L 9.421875 0 
z
M 9.421875 75.984375 
L 18.40625 75.984375 
L 18.40625 64.59375 
L 9.421875 64.59375 
z
" id="DejaVuSans-105"/>
       <path d="M 52 44.1875 
Q 55.375 50.25 60.0625 53.125 
Q 64.75 56 71.09375 56 
Q 79.640625 56 84.28125 50.015625 
Q 88.921875 44.046875 88.921875 33.015625 
L 88.921875 0 
L 79.890625 0 
L 79.890625 32.71875 
Q 79.890625 40.578125 77.09375 44.375 
Q 74.3125 48.1875 68.609375 48.1875 
Q 61.625 48.1875 57.5625 43.546875 
Q 53.515625 38.921875 53.515625 30.90625 
L 53.515625 0 
L 44.484375 0 
L 44.484375 32.71875 
Q 44.484375 40.625 41.703125 44.40625 
Q 38.921875 48.1875 33.109375 48.1875 
Q 26.21875 48.1875 22.15625 43.53125 
Q 18.109375 38.875 18.109375 30.90625 
L 18.109375 0 
L 9.078125 0 
L 9.078125 54.6875 
L 18.109375 54.6875 
L 18.109375 46.1875 
Q 21.1875 51.21875 25.484375 53.609375 
Q 29.78125 56 35.6875 56 
Q 41.65625 56 45.828125 52.96875 
Q 50 49.953125 52 44.1875 
z
" id="DejaVuSans-109"/>
       <path d="M 54.890625 33.015625 
L 54.890625 0 
L 45.90625 0 
L 45.90625 32.71875 
Q 45.90625 40.484375 42.875 44.328125 
Q 39.84375 48.1875 33.796875 48.1875 
Q 26.515625 48.1875 22.3125 43.546875 
Q 18.109375 38.921875 18.109375 30.90625 
L 18.109375 0 
L 9.078125 0 
L 9.078125 54.6875 
L 18.109375 54.6875 
L 18.109375 46.1875 
Q 21.34375 51.125 25.703125 53.5625 
Q 30.078125 56 35.796875 56 
Q 45.21875 56 50.046875 50.171875 
Q 54.890625 44.34375 54.890625 33.015625 
z
" id="DejaVuSans-110"/>
       <path d="M 8.015625 75.875 
L 15.828125 75.875 
Q 23.140625 64.359375 26.78125 53.3125 
Q 30.421875 42.28125 30.421875 31.390625 
Q 30.421875 20.453125 26.78125 9.375 
Q 23.140625 -1.703125 15.828125 -13.1875 
L 8.015625 -13.1875 
Q 14.5 -2 17.703125 9.0625 
Q 20.90625 20.125 20.90625 31.390625 
Q 20.90625 42.671875 17.703125 53.65625 
Q 14.5 64.65625 8.015625 75.875 
z
" id="DejaVuSans-41"/>
      </defs>
      <use xlink:href="#DejaVuSans-108"/>
      <use x="27.783203" xlink:href="#DejaVuSans-111"/>
      <use x="88.964844" xlink:href="#DejaVuSans-103"/>
      <use x="152.441406" xlink:href="#DejaVuSans-49"/>
      <use x="216.064453" xlink:href="#DejaVuSans-48"/>
      <use x="279.6875" xlink:href="#DejaVuSans-40"/>
      <use x="318.701172" xlink:href="#DejaVuSans-101"/>
      <use x="380.224609" xlink:href="#DejaVuSans-118"/>
      <use x="439.404297" xlink:href="#DejaVuSans-97"/>
      <use x="500.683594" xlink:href="#DejaVuSans-108"/>
      <use x="528.466797" xlink:href="#DejaVuSans-115"/>
      <use x="580.566406" xlink:href="#DejaVuSans-32"/>
      <use x="612.353516" xlink:href="#DejaVuSans-47"/>
      <use x="646.044922" xlink:href="#DejaVuSans-32"/>
      <use x="677.832031" xlink:href="#DejaVuSans-100"/>
      <use x="741.308594" xlink:href="#DejaVuSans-105"/>
      <use x="769.091797" xlink:href="#DejaVuSans-109"/>
      <use x="866.503906" xlink:href="#DejaVuSans-101"/>
      <use x="928.027344" xlink:href="#DejaVuSans-110"/>
      <use x="991.40625" xlink:href="#DejaVuSans-115"/>
      <use x="1043.505859" xlink:href="#DejaVuSans-105"/>
      <use x="1071.289062" xlink:href="#DejaVuSans-111"/>
      <use x="1132.470703" xlink:href="#DejaVuSans-110"/>
      <use x="1195.849609" xlink:href="#DejaVuSans-41"/>
     </g>
    </g>
   </g>
   <g id="matplotlib.axis_2">
    <g id="ytick_1">
     <g id="line2d_17">
      <path clip-path="url(#p3f5852cff1)" d="M 57.6 298.944 
L 360.8064 298.944 
" style="fill:none;stroke:#b0b0b0;stroke-linecap:square;stroke-width:0.8;"/>
     </g>
     <g id="line2d_18">
      <defs>
       <path d="M 0 0 
L -3.5 0 
" id="m5540ac8f01" style="stroke:#000000;stroke-width:0.8;"/>
      </defs>
      <g>
       <use style="stroke:#000000;stroke-width:0.8;" x="57.6" xlink:href="#m5540ac8f01" y="298.944"/>
      </g>
     </g>
     <g id="text_6">
      <!-- 0.0 -->
      <g transform="translate(25.155 305.02275)scale(0.16 -0.16)">
       <defs>
        <path d="M 10.6875 12.40625 
L 21 12.40625 
L 21 0 
L 10.6875 0 
z
" id="DejaVuSans-46"/>
       </defs>
       <use xlink:href="#DejaVuSans-48"/>
       <use x="63.623047" xlink:href="#DejaVuSans-46"/>
       <use x="95.410156" xlink:href="#DejaVuSans-48"/>
      </g>
     </g>
    </g>
    <g id="ytick_2">
     <g id="line2d_19">
      <path clip-path="url(#p3f5852cff1)" d="M 57.6 240.5376 
L 360.8064 240.5376 
" style="fill:none;stroke:#b0b0b0;stroke-linecap:square;stroke-width:0.8;"/>
     </g>
     <g id="line2d_20">
      <g>
       <use style="stroke:#000000;stroke-width:0.8;" x="57.6" xlink:href="#m5540ac8f01" y="240.5376"/>
      </g>
     </g>
     <g id="text_7">
      <!-- 0.2 -->
      <g transform="translate(25.155 246.61635)scale(0.16 -0.16)">
       <use xlink:href="#DejaVuSans-48"/>
       <use x="63.623047" xlink:href="#DejaVuSans-46"/>
       <use x="95.410156" xlink:href="#DejaVuSans-50"/>
      </g>
     </g>
    </g>
    <g id="ytick_3">
     <g id="line2d_21">
      <path clip-path="url(#p3f5852cff1)" d="M 57.6 182.1312 
L 360.8064 182.1312 
" style="fill:none;stroke:#b0b0b0;stroke-linecap:square;stroke-width:0.8;"/>
     </g>
     <g id="line2d_22">
      <g>
       <use style="stroke:#000000;stroke-width:0.8;" x="57.6" xlink:href="#m5540ac8f01" y="182.1312"/>
      </g>
     </g>
     <g id="text_8">
      <!-- 0.4 -->
      <g transform="translate(25.155 188.20995)scale(0.16 -0.16)">
       <use xlink:href="#DejaVuSans-48"/>
       <use x="63.623047" xlink:href="#DejaVuSans-46"/>
       <use x="95.410156" xlink:href="#DejaVuSans-52"/>
      </g>
     </g>
    </g>
    <g id="ytick_4">
     <g id="line2d_23">
      <path clip-path="url(#p3f5852cff1)" d="M 57.6 123.7248 
L 360.8064 123.7248 
" style="fill:none;stroke:#b0b0b0;stroke-linecap:square;stroke-width:0.8;"/>
     </g>
     <g id="line2d_24">
      <g>
       <use style="stroke:#000000;stroke-width:0.8;" x="57.6" xlink:href="#m5540ac8f01" y="123.7248"/>
      </g>
     </g>
     <g id="text_9">
      <!-- 0.6 -->
      <g transform="translate(25.155 129.80355)scale(0.16 -0.16)">
       <use xlink:href="#DejaVuSans-48"/>
       <use x="63.623047" xlink:href="#DejaVuSans-46"/>
       <use x="95.410156" xlink:href="#DejaVuSans-54"/>
      </g>
     </g>
    </g>
    <g id="ytick_5">
     <g id="line2d_25">
      <path clip-path="url(#p3f5852cff1)" d="M 57.6 65.3184 
L 360.8064 65.3184 
" style="fill:none;stroke:#b0b0b0;stroke-linecap:square;stroke-width:0.8;"/>
     </g>
     <g id="line2d_26">
      <g>
       <use style="stroke:#000000;stroke-width:0.8;" x="57.6" xlink:href="#m5540ac8f01" y="65.3184"/>
      </g>
     </g>
     <g id="text_10">
      <!-- 0.8 -->
      <g transform="translate(25.155 71.39715)scale(0.16 -0.16)">
       <defs>
        <path d="M 31.78125 34.625 
Q 24.75 34.625 20.71875 30.859375 
Q 16.703125 27.09375 16.703125 20.515625 
Q 16.703125 13.921875 20.71875 10.15625 
Q 24.75 6.390625 31.78125 6.390625 
Q 38.8125 6.390625 42.859375 10.171875 
Q 46.921875 13.96875 46.921875 20.515625 
Q 46.921875 27.09375 42.890625 30.859375 
Q 38.875 34.625 31.78125 34.625 
z
M 21.921875 38.8125 
Q 15.578125 40.375 12.03125 44.71875 
Q 8.5 49.078125 8.5 55.328125 
Q 8.5 64.0625 14.71875 69.140625 
Q 20.953125 74.21875 31.78125 74.21875 
Q 42.671875 74.21875 48.875 69.140625 
Q 55.078125 64.0625 55.078125 55.328125 
Q 55.078125 49.078125 51.53125 44.71875 
Q 48 40.375 41.703125 38.8125 
Q 48.828125 37.15625 52.796875 32.3125 
Q 56.78125 27.484375 56.78125 20.515625 
Q 56.78125 9.90625 50.3125 4.234375 
Q 43.84375 -1.421875 31.78125 -1.421875 
Q 19.734375 -1.421875 13.25 4.234375 
Q 6.78125 9.90625 6.78125 20.515625 
Q 6.78125 27.484375 10.78125 32.3125 
Q 14.796875 37.15625 21.921875 38.8125 
z
M 18.3125 54.390625 
Q 18.3125 48.734375 21.84375 45.5625 
Q 25.390625 42.390625 31.78125 42.390625 
Q 38.140625 42.390625 41.71875 45.5625 
Q 45.3125 48.734375 45.3125 54.390625 
Q 45.3125 60.0625 41.71875 63.234375 
Q 38.140625 66.40625 31.78125 66.40625 
Q 25.390625 66.40625 21.84375 63.234375 
Q 18.3125 60.0625 18.3125 54.390625 
z
" id="DejaVuSans-56"/>
       </defs>
       <use xlink:href="#DejaVuSans-48"/>
       <use x="63.623047" xlink:href="#DejaVuSans-46"/>
       <use x="95.410156" xlink:href="#DejaVuSans-56"/>
      </g>
     </g>
    </g>
    <g id="ytick_6">
     <g id="line2d_27">
      <path clip-path="url(#p3f5852cff1)" d="M 57.6 6.912 
L 360.8064 6.912 
" style="fill:none;stroke:#b0b0b0;stroke-linecap:square;stroke-width:0.8;"/>
     </g>
     <g id="line2d_28">
      <g>
       <use style="stroke:#000000;stroke-width:0.8;" x="57.6" xlink:href="#m5540ac8f01" y="6.912"/>
      </g>
     </g>
     <g id="text_11">
      <!-- 1.0 -->
      <g transform="translate(25.155 12.99075)scale(0.16 -0.16)">
       <use xlink:href="#DejaVuSans-49"/>
       <use x="63.623047" xlink:href="#DejaVuSans-46"/>
       <use x="95.410156" xlink:href="#DejaVuSans-48"/>
      </g>
     </g>
    </g>
    <g id="text_12">
     <!-- Fraction of function,target pairs -->
     <g transform="translate(17.619531 287.313)rotate(-90)scale(0.17 -0.17)">
      <defs>
       <path d="M 9.8125 72.90625 
L 51.703125 72.90625 
L 51.703125 64.59375 
L 19.671875 64.59375 
L 19.671875 43.109375 
L 48.578125 43.109375 
L 48.578125 34.8125 
L 19.671875 34.8125 
L 19.671875 0 
L 9.8125 0 
z
" id="DejaVuSans-70"/>
       <path d="M 41.109375 46.296875 
Q 39.59375 47.171875 37.8125 47.578125 
Q 36.03125 48 33.890625 48 
Q 26.265625 48 22.1875 43.046875 
Q 18.109375 38.09375 18.109375 28.8125 
L 18.109375 0 
L 9.078125 0 
L 9.078125 54.6875 
L 18.109375 54.6875 
L 18.109375 46.1875 
Q 20.953125 51.171875 25.484375 53.578125 
Q 30.03125 56 36.53125 56 
Q 37.453125 56 38.578125 55.875 
Q 39.703125 55.765625 41.0625 55.515625 
z
" id="DejaVuSans-114"/>
       <path d="M 48.78125 52.59375 
L 48.78125 44.1875 
Q 44.96875 46.296875 41.140625 47.34375 
Q 37.3125 48.390625 33.40625 48.390625 
Q 24.65625 48.390625 19.8125 42.84375 
Q 14.984375 37.3125 14.984375 27.296875 
Q 14.984375 17.28125 19.8125 11.734375 
Q 24.65625 6.203125 33.40625 6.203125 
Q 37.3125 6.203125 41.140625 7.25 
Q 44.96875 8.296875 48.78125 10.40625 
L 48.78125 2.09375 
Q 45.015625 0.34375 40.984375 -0.53125 
Q 36.96875 -1.421875 32.421875 -1.421875 
Q 20.0625 -1.421875 12.78125 6.34375 
Q 5.515625 14.109375 5.515625 27.296875 
Q 5.515625 40.671875 12.859375 48.328125 
Q 20.21875 56 33.015625 56 
Q 37.15625 56 41.109375 55.140625 
Q 45.0625 54.296875 48.78125 52.59375 
z
" id="DejaVuSans-99"/>
       <path d="M 18.3125 70.21875 
L 18.3125 54.6875 
L 36.8125 54.6875 
L 36.8125 47.703125 
L 18.3125 47.703125 
L 18.3125 18.015625 
Q 18.3125 11.328125 20.140625 9.421875 
Q 21.96875 7.515625 27.59375 7.515625 
L 36.8125 7.515625 
L 36.8125 0 
L 27.59375 0 
Q 17.1875 0 13.234375 3.875 
Q 9.28125 7.765625 9.28125 18.015625 
L 9.28125 47.703125 
L 2.6875 47.703125 
L 2.6875 54.6875 
L 9.28125 54.6875 
L 9.28125 70.21875 
z
" id="DejaVuSans-116"/>
       <path d="M 37.109375 75.984375 
L 37.109375 68.5 
L 28.515625 68.5 
Q 23.6875 68.5 21.796875 66.546875 
Q 19.921875 64.59375 19.921875 59.515625 
L 19.921875 54.6875 
L 34.71875 54.6875 
L 34.71875 47.703125 
L 19.921875 47.703125 
L 19.921875 0 
L 10.890625 0 
L 10.890625 47.703125 
L 2.296875 47.703125 
L 2.296875 54.6875 
L 10.890625 54.6875 
L 10.890625 58.5 
Q 10.890625 67.625 15.140625 71.796875 
Q 19.390625 75.984375 28.609375 75.984375 
z
" id="DejaVuSans-102"/>
       <path d="M 8.5 21.578125 
L 8.5 54.6875 
L 17.484375 54.6875 
L 17.484375 21.921875 
Q 17.484375 14.15625 20.5 10.265625 
Q 23.53125 6.390625 29.59375 6.390625 
Q 36.859375 6.390625 41.078125 11.03125 
Q 45.3125 15.671875 45.3125 23.6875 
L 45.3125 54.6875 
L 54.296875 54.6875 
L 54.296875 0 
L 45.3125 0 
L 45.3125 8.40625 
Q 42.046875 3.421875 37.71875 1 
Q 33.40625 -1.421875 27.6875 -1.421875 
Q 18.265625 -1.421875 13.375 4.4375 
Q 8.5 10.296875 8.5 21.578125 
z
M 31.109375 56 
z
" id="DejaVuSans-117"/>
       <path d="M 11.71875 12.40625 
L 22.015625 12.40625 
L 22.015625 4 
L 14.015625 -11.625 
L 7.71875 -11.625 
L 11.71875 4 
z
" id="DejaVuSans-44"/>
       <path d="M 18.109375 8.203125 
L 18.109375 -20.796875 
L 9.078125 -20.796875 
L 9.078125 54.6875 
L 18.109375 54.6875 
L 18.109375 46.390625 
Q 20.953125 51.265625 25.265625 53.625 
Q 29.59375 56 35.59375 56 
Q 45.5625 56 51.78125 48.09375 
Q 58.015625 40.1875 58.015625 27.296875 
Q 58.015625 14.40625 51.78125 6.484375 
Q 45.5625 -1.421875 35.59375 -1.421875 
Q 29.59375 -1.421875 25.265625 0.953125 
Q 20.953125 3.328125 18.109375 8.203125 
z
M 48.6875 27.296875 
Q 48.6875 37.203125 44.609375 42.84375 
Q 40.53125 48.484375 33.40625 48.484375 
Q 26.265625 48.484375 22.1875 42.84375 
Q 18.109375 37.203125 18.109375 27.296875 
Q 18.109375 17.390625 22.1875 11.75 
Q 26.265625 6.109375 33.40625 6.109375 
Q 40.53125 6.109375 44.609375 11.75 
Q 48.6875 17.390625 48.6875 27.296875 
z
" id="DejaVuSans-112"/>
      </defs>
      <use xlink:href="#DejaVuSans-70"/>
      <use x="50.269531" xlink:href="#DejaVuSans-114"/>
      <use x="91.382812" xlink:href="#DejaVuSans-97"/>
      <use x="152.662109" xlink:href="#DejaVuSans-99"/>
      <use x="207.642578" xlink:href="#DejaVuSans-116"/>
      <use x="246.851562" xlink:href="#DejaVuSans-105"/>
      <use x="274.634766" xlink:href="#DejaVuSans-111"/>
      <use x="335.816406" xlink:href="#DejaVuSans-110"/>
      <use x="399.195312" xlink:href="#DejaVuSans-32"/>
      <use x="430.982422" xlink:href="#DejaVuSans-111"/>
      <use x="492.164062" xlink:href="#DejaVuSans-102"/>
      <use x="527.369141" xlink:href="#DejaVuSans-32"/>
      <use x="559.15625" xlink:href="#DejaVuSans-102"/>
      <use x="594.361328" xlink:href="#DejaVuSans-117"/>
      <use x="657.740234" xlink:href="#DejaVuSans-110"/>
      <use x="721.119141" xlink:href="#DejaVuSans-99"/>
      <use x="776.099609" xlink:href="#DejaVuSans-116"/>
      <use x="815.308594" xlink:href="#DejaVuSans-105"/>
      <use x="843.091797" xlink:href="#DejaVuSans-111"/>
      <use x="904.273438" xlink:href="#DejaVuSans-110"/>
      <use x="967.652344" xlink:href="#DejaVuSans-44"/>
      <use x="999.439453" xlink:href="#DejaVuSans-116"/>
      <use x="1038.648438" xlink:href="#DejaVuSans-97"/>
      <use x="1099.927734" xlink:href="#DejaVuSans-114"/>
      <use x="1139.291016" xlink:href="#DejaVuSans-103"/>
      <use x="1202.767578" xlink:href="#DejaVuSans-101"/>
      <use x="1264.291016" xlink:href="#DejaVuSans-116"/>
      <use x="1303.5" xlink:href="#DejaVuSans-32"/>
      <use x="1335.287109" xlink:href="#DejaVuSans-112"/>
      <use x="1398.763672" xlink:href="#DejaVuSans-97"/>
      <use x="1460.042969" xlink:href="#DejaVuSans-105"/>
      <use x="1487.826172" xlink:href="#DejaVuSans-114"/>
      <use x="1528.939453" xlink:href="#DejaVuSans-115"/>
     </g>
    </g>
   </g>
   <g id="line2d_29">
    <defs>
     <path d="M 0 1.5 
C 0.397805 1.5 0.77937 1.341951 1.06066 1.06066 
C 1.341951 0.77937 1.5 0.397805 1.5 0 
C 1.5 -0.397805 1.341951 -0.77937 1.06066 -1.06066 
C 0.77937 -1.341951 0.397805 -1.5 0 -1.5 
C -0.397805 -1.5 -0.77937 -1.341951 -1.06066 -1.06066 
C -1.341951 -0.77937 -1.5 -0.397805 -1.5 0 
C -1.5 0.397805 -1.341951 0.77937 -1.06066 1.06066 
C -0.77937 1.341951 -0.397805 1.5 0 1.5 
z
" id="meaf962e504" style="stroke:#000080;"/>
    </defs>
    <g>
     <use style="fill:#000080;stroke:#000080;" x="309.177763" xlink:href="#meaf962e504" y="156.489366"/>
     <use style="fill:#000080;stroke:#000080;" x="309.177763" xlink:href="#meaf962e504" y="156.489366"/>
    </g>
   </g>
   <g id="line2d_30">
    <path d="M 103.788121 298.944 
L 103.788121 297.519454 
L 113.088217 297.519454 
L 113.088217 297.044605 
L 114.646902 297.044605 
L 114.646902 296.569756 
L 117.384126 296.569756 
L 117.384126 296.094907 
L 119.212653 296.094907 
L 119.212653 295.620059 
L 120.216635 295.620059 
L 120.28394 293.245815 
L 121.737916 293.245815 
L 121.737916 292.770966 
L 125.245241 292.770966 
L 125.245241 292.296117 
L 126.396307 292.296117 
L 126.396307 291.821268 
L 126.637484 291.821268 
L 126.637484 289.921873 
L 127.017049 289.921873 
L 127.017049 289.447024 
L 127.366067 289.447024 
L 127.458055 286.597932 
L 127.956104 286.597932 
L 127.956104 286.123083 
L 128.636246 286.123083 
L 128.636246 284.698537 
L 129.188317 284.698537 
L 129.188317 284.223688 
L 129.437756 284.223688 
L 129.437756 283.748839 
L 129.581749 283.748839 
L 129.581749 282.324293 
L 129.826058 282.324293 
L 129.826058 281.849444 
L 129.947033 281.849444 
L 129.947033 280.899746 
L 130.107132 280.899746 
L 130.107132 280.424898 
L 130.344755 280.424898 
L 130.344755 279.950049 
L 130.501519 279.950049 
L 130.598837 279.000351 
L 130.983152 279.000351 
L 130.983152 277.575805 
L 131.115828 277.575805 
L 131.115828 277.100956 
L 131.247576 277.100956 
L 131.247576 276.151259 
L 131.452761 276.151259 
L 131.452761 274.251863 
L 131.674076 274.251863 
L 131.71071 272.352468 
L 132.340519 272.352468 
L 132.340519 269.978224 
L 132.551689 269.978224 
L 132.551689 269.028527 
L 132.949924 269.028527 
L 132.949924 268.078829 
L 133.623039 268.078829 
L 133.623039 264.754888 
L 134.384351 264.754888 
L 134.447743 263.80519 
L 134.745971 263.80519 
L 134.745971 261.430946 
L 135.283261 261.430946 
L 135.3437 259.531551 
L 135.657857 259.531551 
L 135.657857 257.157307 
L 135.981441 257.157307 
L 135.996018 255.257912 
L 136.184497 255.257912 
L 136.184497 254.783063 
L 136.640557 254.783063 
L 136.654633 250.034576 
L 136.97549 250.034576 
L 136.97549 249.559727 
L 137.195511 249.559727 
L 137.195511 249.084878 
L 137.493898 249.084878 
L 137.493898 248.13518 
L 138.968547 248.13518 
L 138.968547 247.185483 
L 139.592597 247.185483 
L 139.700607 246.235785 
L 139.879255 246.235785 
L 139.962047 245.286088 
L 140.20826 245.286088 
L 140.20826 243.386693 
L 140.382174 243.386693 
L 140.382174 242.911844 
L 141.039908 242.911844 
L 141.095547 241.962146 
L 141.250467 241.962146 
L 141.250467 241.487298 
L 141.48048 241.487298 
L 141.48048 241.012449 
L 141.610664 241.012449 
L 141.67542 239.113054 
L 142.383778 239.113054 
L 142.466603 238.163356 
L 142.824734 238.163356 
L 142.824734 237.688507 
L 142.996254 237.688507 
L 142.996254 237.213659 
L 143.521169 237.213659 
L 143.579681 235.314263 
L 143.754133 235.314263 
L 143.754133 234.839415 
L 144.220992 234.839415 
L 144.267986 233.889717 
L 144.445498 233.889717 
L 144.445498 233.414868 
L 144.795577 233.414868 
L 144.795577 232.94002 
L 144.986282 232.94002 
L 144.986282 232.465171 
L 145.201889 232.465171 
L 145.237585 231.515473 
L 145.494372 231.515473 
L 145.494372 231.040624 
L 145.652011 231.040624 
L 145.730339 230.090927 
L 145.816988 230.090927 
L 145.816988 229.616078 
L 146.023332 229.616078 
L 146.083092 228.66638 
L 147.777358 228.66638 
L 147.855092 225.342439 
L 148.57797 225.342439 
L 148.592894 224.392741 
L 148.83008 224.392741 
L 148.83008 223.917893 
L 149.7149 223.917893 
L 149.7149 223.443044 
L 150.418347 223.443044 
L 150.418347 222.968195 
L 150.833423 222.968195 
L 150.833423 222.018498 
L 150.978534 222.018498 
L 151.004798 220.593951 
L 151.239537 220.593951 
L 151.258968 219.644254 
L 151.400845 219.644254 
L 151.400845 219.169405 
L 151.807597 219.169405 
L 151.807597 218.694556 
L 152.673849 218.694556 
L 152.673849 218.219707 
L 153.363556 218.219707 
L 153.375128 216.320312 
L 153.866141 216.320312 
L 153.866141 215.845463 
L 154.156931 215.845463 
L 154.156931 215.370615 
L 154.622791 215.370615 
L 154.622791 214.895766 
L 155.381403 214.895766 
L 155.381403 213.946068 
L 156.180499 213.946068 
L 156.180499 213.47122 
L 156.418184 213.47122 
L 156.418184 212.996371 
L 157.69734 212.996371 
L 157.69734 212.521522 
L 158.111097 212.521522 
L 158.111097 212.046673 
L 165.087288 212.046673 
L 165.087288 211.571824 
L 167.132182 211.571824 
L 167.132182 211.096976 
L 167.414029 211.096976 
L 167.414029 210.622127 
L 167.869235 210.622127 
L 167.869235 210.147278 
L 176.589542 210.147278 
L 176.589542 209.672429 
L 176.876977 209.672429 
L 176.876977 209.19758 
L 179.969833 209.19758 
L 179.969833 208.247883 
L 180.539398 208.247883 
L 180.539398 207.773034 
L 180.756546 207.773034 
L 180.756546 207.298185 
L 183.528119 207.298185 
L 183.63495 206.348488 
L 184.091378 206.348488 
L 184.091378 205.873639 
L 184.608597 205.873639 
L 184.608597 205.39879 
L 185.489257 205.39879 
L 185.489257 204.923941 
L 185.838534 204.923941 
L 185.838534 204.449093 
L 188.02845 204.449093 
L 188.069658 203.024546 
L 188.24991 203.024546 
L 188.252628 202.074849 
L 188.617755 202.074849 
L 188.617755 201.6 
L 188.774361 201.6 
L 188.774361 201.125151 
L 189.213276 201.125151 
L 189.217579 200.175454 
L 189.339387 200.175454 
L 189.339387 199.700605 
L 189.919468 199.700605 
L 189.988981 198.750907 
L 190.25065 198.750907 
L 190.25065 198.276059 
L 192.506385 198.276059 
L 192.506385 197.80121 
L 193.128922 197.80121 
L 193.128922 197.326361 
L 193.445009 197.326361 
L 193.445009 196.851512 
L 197.247162 196.851512 
L 197.247162 196.376663 
L 197.709791 196.376663 
L 197.709791 195.901815 
L 200.447894 195.901815 
L 200.447894 195.426966 
L 201.088698 195.426966 
L 201.088698 194.952117 
L 202.63629 194.952117 
L 202.63629 194.477268 
L 203.050032 194.477268 
L 203.050032 194.00242 
L 205.020596 194.00242 
L 205.020596 193.527571 
L 205.883903 193.527571 
L 205.883903 193.052722 
L 206.095959 193.052722 
L 206.095959 192.103024 
L 206.288642 192.103024 
L 206.288642 191.628176 
L 206.639916 191.628176 
L 206.639916 191.153327 
L 210.919425 191.153327 
L 211.017452 190.203629 
L 213.214368 190.203629 
L 213.214368 189.72878 
L 216.325129 189.72878 
L 216.325129 189.253932 
L 216.867211 189.253932 
L 216.867211 188.779083 
L 217.044488 188.779083 
L 217.044488 188.304234 
L 218.171445 188.304234 
L 218.171445 187.829385 
L 218.739086 187.829385 
L 218.779712 186.879688 
L 222.790502 186.879688 
L 222.790502 186.404839 
L 226.979423 186.404839 
L 226.979423 185.92999 
L 227.827564 185.92999 
L 227.827564 185.455141 
L 231.200923 185.455141 
L 231.245579 183.555746 
L 232.115887 183.555746 
L 232.115887 183.080898 
L 232.814396 183.080898 
L 232.814396 182.606049 
L 233.162733 182.606049 
L 233.166145 181.656351 
L 235.330175 181.656351 
L 235.372551 179.756956 
L 238.175376 179.756956 
L 238.176587 178.807259 
L 238.812981 178.807259 
L 238.815569 177.857561 
L 244.056026 177.857561 
L 244.07211 176.907863 
L 244.540256 176.907863 
L 244.540256 176.433015 
L 246.290126 176.433015 
L 246.290126 175.958166 
L 248.28621 175.958166 
L 248.294366 175.008468 
L 252.230837 175.008468 
L 252.230837 174.53362 
L 253.123123 174.53362 
L 253.139994 173.109073 
L 254.562494 173.109073 
L 254.568817 171.684527 
L 257.027309 171.684527 
L 257.027309 171.209678 
L 257.468741 171.209678 
L 257.468741 170.734829 
L 258.161763 170.734829 
L 258.17368 169.785132 
L 261.562494 169.785132 
L 261.562494 169.310283 
L 262.121619 169.310283 
L 262.121619 168.835434 
L 264.625537 168.835434 
L 264.625537 168.360585 
L 265.398953 168.360585 
L 265.399373 167.410888 
L 266.15047 167.410888 
L 266.15047 166.936039 
L 267.517475 166.936039 
L 267.517475 166.46119 
L 268.175877 166.46119 
L 268.183471 165.036644 
L 270.593975 165.036644 
L 270.600801 163.612098 
L 272.742705 163.612098 
L 272.753796 161.712702 
L 274.675756 161.712702 
L 274.675756 161.237854 
L 279.497463 161.237854 
L 279.497463 160.763005 
L 280.868365 160.763005 
L 280.868365 160.288156 
L 283.331855 160.288156 
L 283.335069 159.338459 
L 286.515928 159.338459 
L 286.515928 158.86361 
L 286.766362 158.86361 
L 286.766362 158.388761 
L 290.06689 158.388761 
L 290.06689 157.913912 
L 295.012258 157.913912 
L 295.012258 157.439063 
L 301.73536 157.439063 
L 301.73536 156.964215 
L 309.177763 156.964215 
L 309.177763 156.489366 
L 360.8064 156.489366 
L 360.8064 156.489366 
" style="fill:none;stroke:#000080;stroke-linecap:square;stroke-width:1.5;"/>
   </g>
   <g id="line2d_31">
    <defs>
     <path d="M 0 6 
C 1.591219 6 3.117479 5.367802 4.242641 4.242641 
C 5.367802 3.117479 6 1.591219 6 0 
C 6 -1.591219 5.367802 -3.117479 4.242641 -4.242641 
C 3.117479 -5.367802 1.591219 -6 0 -6 
C -1.591219 -6 -3.117479 -5.367802 -4.242641 -4.242641 
C -5.367802 -3.117479 -6 -1.591219 -6 0 
C -6 1.591219 -5.367802 3.117479 -4.242641 4.242641 
C -3.117479 5.367802 -1.591219 6 0 6 
z
" id="m70ce65e4fa" style="stroke:#000080;stroke-width:1.5;"/>
    </defs>
    <g>
     <use style="fill-opacity:0;stroke:#000080;stroke-width:1.5;" x="143.754133" xlink:href="#m70ce65e4fa" y="234.839415"/>
     <use style="fill-opacity:0;stroke:#000080;stroke-width:1.5;" x="232.115887" xlink:href="#m70ce65e4fa" y="183.555746"/>
     <use style="fill-opacity:0;stroke:#000080;stroke-width:1.5;" x="309.177763" xlink:href="#m70ce65e4fa" y="156.964215"/>
     <use style="fill-opacity:0;stroke:#000080;stroke-width:1.5;" x="309.177763" xlink:href="#m70ce65e4fa" y="156.489366"/>
     <use style="fill-opacity:0;stroke:#000080;stroke-width:1.5;" x="360.8064" xlink:href="#m70ce65e4fa" y="156.489366"/>
    </g>
   </g>
   <g id="line2d_32">
    <path style="fill:none;stroke:#000080;stroke-linecap:square;stroke-width:1.5;"/>
    <g/>
   </g>
   <g id="line2d_33">
    <path clip-path="url(#p3f5852cff1)" d="M 230.862775 185.455141 
" style="fill:none;stroke:#000080;stroke-linecap:square;stroke-width:1.5;"/>
    <defs>
     <path d="M -12 12 
L 12 -12 
M -12 -12 
L 12 12 
" id="m941efbe1bb" style="stroke:#000080;"/>
    </defs>
    <g clip-path="url(#p3f5852cff1)">
     <use style="fill:#000080;stroke:#000080;" x="230.862775" xlink:href="#m941efbe1bb" y="185.455141"/>
    </g>
   </g>
   <g id="line2d_34">
    <defs>
     <path d="M 0 1.5 
C 0.397805 1.5 0.77937 1.341951 1.06066 1.06066 
C 1.341951 0.77937 1.5 0.397805 1.5 0 
C 1.5 -0.397805 1.341951 -0.77937 1.06066 -1.06066 
C 0.77937 -1.341951 0.397805 -1.5 0 -1.5 
C -0.397805 -1.5 -0.77937 -1.341951 -1.06066 -1.06066 
C -1.341951 -0.77937 -1.5 -0.397805 -1.5 0 
C -1.5 0.397805 -1.341951 0.77937 -1.06066 1.06066 
C -0.77937 1.341951 -0.397805 1.5 0 1.5 
z
" id="m7010dbd324" style="stroke:#ff00ff;"/>
    </defs>
    <g>
     <use style="fill:#ff00ff;stroke:#ff00ff;" x="295.461939" xlink:href="#m7010dbd324" y="71.016585"/>
     <use style="fill:#ff00ff;stroke:#ff00ff;" x="295.461939" xlink:href="#m7010dbd324" y="71.016585"/>
    </g>
   </g>
   <g id="line2d_35">
    <path d="M 73.672879 298.944 
L 73.672879 292.770966 
L 85.894031 292.770966 
L 85.894031 266.179434 
L 93.240684 266.179434 
L 93.240684 230.090927 
L 98.510456 230.090927 
L 98.510456 198.276059 
L 102.62243 198.276059 
L 102.62243 175.008468 
L 102.793446 175.008468 
L 102.878374 171.684527 
L 105.99483 171.684527 
L 105.99483 153.165424 
L 106.137884 153.165424 
L 106.137884 146.517541 
L 106.699465 146.517541 
L 106.699465 146.042693 
L 108.85357 146.042693 
L 108.85357 137.970263 
L 108.976522 137.970263 
L 108.976522 125.624195 
L 111.334639 125.624195 
L 111.442442 117.076917 
L 111.656212 117.076917 
L 111.656212 115.177522 
L 112.283321 115.177522 
L 112.283321 114.702673 
L 116.253478 114.702673 
L 116.253478 113.752976 
L 118.038842 113.752976 
L 118.038842 113.278127 
L 119.599808 113.278127 
L 119.599808 112.803278 
L 121.041112 112.803278 
L 121.041112 110.429034 
L 122.379802 110.429034 
L 122.379802 107.105093 
L 123.629523 107.105093 
L 123.629523 102.831454 
L 128.765092 102.831454 
L 128.765092 102.356605 
L 130.24611 102.356605 
L 130.24611 101.881756 
L 132.881269 101.881756 
L 132.881269 100.932059 
L 133.738397 100.932059 
L 133.738397 100.45721 
L 136.428155 100.45721 
L 136.428155 99.982361 
L 138.284415 99.982361 
L 138.323083 99.032663 
L 139.471855 99.032663 
L 139.471855 98.557815 
L 152.649817 98.557815 
L 152.649817 97.608117 
L 173.470098 97.608117 
L 173.470098 97.133268 
L 216.625807 97.133268 
L 216.625807 96.65842 
L 216.740721 96.65842 
L 216.740721 96.183571 
L 222.03224 96.183571 
L 222.03224 95.708722 
L 225.070929 95.708722 
L 225.070929 95.233873 
L 225.845655 95.233873 
L 225.845655 94.759024 
L 225.986219 94.759024 
L 225.986219 94.284176 
L 226.341774 94.284176 
L 226.341774 93.809327 
L 230.092777 93.809327 
L 230.092777 93.334478 
L 230.892565 93.334478 
L 230.924838 90.485385 
L 231.006774 90.485385 
L 231.006774 90.010537 
L 231.154032 90.010537 
L 231.154032 89.535688 
L 241.228382 89.535688 
L 241.228382 89.060839 
L 241.621569 89.060839 
L 241.621569 88.58599 
L 243.915723 88.58599 
L 243.918213 86.686595 
L 247.867919 86.686595 
L 247.888284 85.736898 
L 251.53831 85.736898 
L 251.542164 82.412956 
L 255.807094 82.412956 
L 255.807094 81.938107 
L 256.948012 81.938107 
L 256.949328 80.038712 
L 261.144029 80.038712 
L 261.145872 78.139317 
L 264.573771 78.139317 
L 264.573771 77.664468 
L 267.472006 77.664468 
L 267.472006 77.18962 
L 269.983484 77.18962 
L 269.983508 76.239922 
L 272.19946 76.239922 
L 272.19946 75.765073 
L 274.266884 75.765073 
L 274.266884 75.290224 
L 275.973814 75.290224 
L 275.973814 74.815376 
L 279.115776 74.815376 
L 279.115776 74.340527 
L 281.807246 74.340527 
L 281.807246 73.865678 
L 285.236508 73.865678 
L 285.236508 73.390829 
L 289.010963 73.390829 
L 289.010963 72.91598 
L 290.648014 72.91598 
L 290.648014 72.441132 
L 291.41565 72.441132 
L 291.41565 71.966283 
L 292.153392 71.966283 
L 292.153392 71.491434 
L 295.461939 71.491434 
L 295.461939 71.016585 
L 360.8064 71.016585 
L 360.8064 71.016585 
" style="fill:none;stroke:#ff00ff;stroke-linecap:square;stroke-width:1.5;"/>
   </g>
   <g id="line2d_36">
    <defs>
     <path d="M -0 8.485281 
L 5.091169 0 
L 0 -8.485281 
L -5.091169 -0 
z
" id="me89a4439ee" style="stroke:#ff00ff;stroke-linejoin:miter;stroke-width:1.5;"/>
    </defs>
    <g>
     <use style="fill-opacity:0;stroke:#ff00ff;stroke-linejoin:miter;stroke-width:1.5;" x="106.137884" xlink:href="#me89a4439ee" y="146.517541"/>
     <use style="fill-opacity:0;stroke:#ff00ff;stroke-linejoin:miter;stroke-width:1.5;" x="173.470098" xlink:href="#me89a4439ee" y="97.608117"/>
     <use style="fill-opacity:0;stroke:#ff00ff;stroke-linejoin:miter;stroke-width:1.5;" x="295.461939" xlink:href="#me89a4439ee" y="71.491434"/>
     <use style="fill-opacity:0;stroke:#ff00ff;stroke-linejoin:miter;stroke-width:1.5;" x="295.461939" xlink:href="#me89a4439ee" y="71.016585"/>
     <use style="fill-opacity:0;stroke:#ff00ff;stroke-linejoin:miter;stroke-width:1.5;" x="360.8064" xlink:href="#me89a4439ee" y="71.016585"/>
    </g>
   </g>
   <g id="line2d_37">
    <path style="fill:none;stroke:#ff00ff;stroke-linecap:square;stroke-width:1.5;"/>
    <g/>
   </g>
   <g id="line2d_38">
    <path clip-path="url(#p3f5852cff1)" d="M 230.862023 93.334478 
" style="fill:none;stroke:#ff00ff;stroke-linecap:square;stroke-width:1.5;"/>
    <defs>
     <path d="M -12 12 
L 12 -12 
M -12 -12 
L 12 12 
" id="m6ca34f6a7c" style="stroke:#ff00ff;"/>
    </defs>
    <g clip-path="url(#p3f5852cff1)">
     <use style="fill:#ff00ff;stroke:#ff00ff;" x="230.862023" xlink:href="#m6ca34f6a7c" y="93.334478"/>
    </g>
   </g>
   <g id="line2d_39">
    <defs>
     <path d="M 0 1.5 
C 0.397805 1.5 0.77937 1.341951 1.06066 1.06066 
C 1.341951 0.77937 1.5 0.397805 1.5 0 
C 1.5 -0.397805 1.341951 -0.77937 1.06066 -1.06066 
C 0.77937 -1.341951 0.397805 -1.5 0 -1.5 
C -0.397805 -1.5 -0.77937 -1.341951 -1.06066 -1.06066 
C -1.341951 -0.77937 -1.5 -0.397805 -1.5 0 
C -1.5 0.397805 -1.341951 0.77937 -1.06066 1.06066 
C -0.77937 1.341951 -0.397805 1.5 0 1.5 
z
" id="m95d08d4750" style="stroke:#ff7500;"/>
    </defs>
    <g>
     <use style="fill:#ff7500;stroke:#ff7500;" x="284.569842" xlink:href="#m95d08d4750" y="6.912"/>
     <use style="fill:#ff7500;stroke:#ff7500;" x="284.569842" xlink:href="#m95d08d4750" y="6.912"/>
    </g>
   </g>
   <g id="line2d_40">
    <path d="M 109.932235 298.944 
L 109.932235 298.469151 
L 112.385837 298.469151 
L 112.385837 295.14521 
L 114.556025 295.14521 
L 114.646902 294.195512 
L 116.665126 294.195512 
L 116.746385 293.245815 
L 118.339232 293.245815 
L 118.413586 288.497327 
L 120.013265 288.497327 
L 120.013265 287.547629 
L 120.28394 287.547629 
L 120.28394 287.07278 
L 121.550424 287.07278 
L 121.550424 286.597932 
L 121.8 286.597932 
L 121.8 286.123083 
L 122.854567 286.123083 
L 122.913079 283.748839 
L 122.971409 283.748839 
L 122.971409 281.849444 
L 123.145323 281.849444 
L 123.145323 281.374595 
L 125.322496 281.374595 
L 125.373824 271.87762 
L 125.526971 271.87762 
L 125.526971 269.028527 
L 126.541384 269.028527 
L 126.637484 265.704585 
L 126.828223 265.704585 
L 126.828223 264.754888 
L 127.549596 264.754888 
L 127.549596 262.855493 
L 127.911368 262.855493 
L 127.911368 259.056702 
L 128.636246 259.056702 
L 128.679293 249.559727 
L 128.807846 249.559727 
L 128.893063 243.861541 
L 129.499602 243.861541 
L 129.499602 241.962146 
L 129.663538 241.962146 
L 129.663538 241.487298 
L 129.826058 241.487298 
L 129.86647 239.587902 
L 130.55997 239.587902 
L 130.55997 239.113054 
L 130.714958 239.113054 
L 130.791976 234.364566 
L 131.41562 234.364566 
L 131.489828 224.86759 
L 131.526822 224.86759 
L 131.563744 218.694556 
L 132.234038 218.694556 
L 132.269599 215.370615 
L 132.375879 215.370615 
L 132.446401 212.046673 
L 132.516659 212.046673 
L 132.516659 211.571824 
L 133.05244 211.571824 
L 133.120474 199.700605 
L 133.188264 199.700605 
L 133.289492 196.376663 
L 133.323114 196.376663 
L 133.323114 192.577873 
L 133.869374 192.577873 
L 133.901977 185.92999 
L 133.999446 185.92999 
L 134.096413 180.231805 
L 134.526683 180.231805 
L 134.589598 175.958166 
L 134.7148 175.958166 
L 134.808158 172.634224 
L 135.252969 172.634224 
L 135.252969 170.25998 
L 135.373847 170.25998 
L 135.463998 163.612098 
L 135.493953 163.612098 
L 135.493953 161.712702 
L 135.981441 161.712702 
L 135.981441 160.288156 
L 136.097741 160.288156 
L 136.126705 154.589971 
L 136.598268 154.589971 
L 136.682752 144.143298 
L 136.710829 144.143298 
L 136.766857 137.970263 
L 137.27736 137.970263 
L 137.331728 130.372683 
L 137.853747 130.372683 
L 137.919637 122.300254 
L 138.011497 122.300254 
L 138.076838 119.92601 
L 138.412998 119.92601 
L 138.489728 114.702673 
L 138.692823 114.702673 
L 138.692823 114.227824 
L 138.881255 114.227824 
L 138.881255 113.752976 
L 139.005835 113.752976 
L 139.005835 112.328429 
L 139.117256 112.328429 
L 139.117256 111.85358 
L 139.252547 111.85358 
L 139.252547 111.378732 
L 141.13994 111.378732 
L 141.13994 110.903883 
L 145.459161 110.903883 
L 145.459161 109.954185 
L 149.750003 109.954185 
L 149.750003 108.05479 
L 150.152479 108.05479 
L 150.227848 107.105093 
L 150.370903 107.105093 
L 150.472422 105.205698 
L 150.760445 105.205698 
L 150.760445 103.781151 
L 151.044125 103.781151 
L 151.044125 103.306302 
L 151.52252 103.306302 
L 151.52252 102.831454 
L 151.795018 102.831454 
L 151.795018 99.507512 
L 152.0015 99.507512 
L 152.0015 98.082966 
L 152.541288 98.082966 
L 152.541288 97.608117 
L 154.006505 97.608117 
L 154.006505 97.133268 
L 154.773759 97.133268 
L 154.773759 94.759024 
L 156.947029 94.759024 
L 156.947029 94.284176 
L 162.570477 94.284176 
L 162.570477 93.809327 
L 165.1152 93.809327 
L 165.1152 91.435083 
L 168.989038 91.435083 
L 169.097187 87.161444 
L 169.331462 87.161444 
L 169.331462 85.736898 
L 171.168251 85.736898 
L 171.2646 82.887805 
L 172.157179 82.887805 
L 172.157179 81.938107 
L 172.972616 81.938107 
L 172.972616 81.463259 
L 173.760043 81.463259 
L 173.844019 78.614166 
L 176.456037 78.614166 
L 176.456037 78.139317 
L 178.907666 78.139317 
L 178.987886 71.491434 
L 180.125365 71.491434 
L 180.130945 68.167493 
L 180.244989 68.167493 
L 180.307281 65.793249 
L 181.493518 65.793249 
L 181.493518 63.893854 
L 183.26308 63.893854 
L 183.26308 63.419005 
L 188.14634 63.419005 
L 188.155448 61.044761 
L 189.297444 61.044761 
L 189.297444 60.569912 
L 189.620295 60.569912 
L 189.620295 60.095063 
L 195.563366 60.095063 
L 195.563366 59.145366 
L 197.729507 59.145366 
L 197.779798 55.821424 
L 198.047563 55.821424 
L 198.047563 53.922029 
L 201.242367 53.922029 
L 201.263699 52.022634 
L 205.8185 52.022634 
L 205.859759 50.123239 
L 212.06461 50.123239 
L 212.06461 49.64839 
L 214.624223 49.64839 
L 214.624223 49.173541 
L 216.516236 49.173541 
L 216.524905 46.324449 
L 216.629214 46.324449 
L 216.629214 44.425054 
L 218.853935 44.425054 
L 218.88525 40.626263 
L 219.392646 40.626263 
L 219.392646 39.201717 
L 222.064996 39.201717 
L 222.064996 38.726868 
L 222.403178 38.726868 
L 222.403178 37.777171 
L 226.143636 37.777171 
L 226.143636 37.302322 
L 226.514752 37.302322 
L 226.538556 34.453229 
L 228.809598 34.453229 
L 228.809598 33.97838 
L 229.181316 33.97838 
L 229.181316 33.503532 
L 229.720627 33.503532 
L 229.754475 32.553834 
L 229.833713 32.553834 
L 229.911926 31.604137 
L 229.982524 31.604137 
L 229.982524 31.129288 
L 230.673543 31.129288 
L 230.673543 30.654439 
L 230.998839 30.654439 
L 230.998839 30.17959 
L 231.202032 30.17959 
L 231.202032 29.704741 
L 231.341908 29.704741 
L 231.341908 29.229893 
L 232.016729 29.229893 
L 232.016729 28.280195 
L 232.712469 28.280195 
L 232.712469 27.805346 
L 236.338131 27.805346 
L 236.338131 27.330498 
L 236.488668 27.330498 
L 236.488668 26.855649 
L 236.668841 26.855649 
L 236.668841 26.3808 
L 237.401943 26.3808 
L 237.413631 25.431102 
L 237.810421 25.431102 
L 237.873372 24.481405 
L 238.06597 24.481405 
L 238.135486 23.531707 
L 240.021429 23.531707 
L 240.021429 23.056859 
L 240.36829 23.056859 
L 240.36829 22.58201 
L 240.974018 22.58201 
L 240.974018 22.107161 
L 241.605265 22.107161 
L 241.605265 21.632312 
L 242.268302 21.632312 
L 242.303352 20.682615 
L 243.114503 20.682615 
L 243.169488 19.258068 
L 243.500629 19.258068 
L 243.500629 18.78322 
L 243.806862 18.78322 
L 243.806862 18.308371 
L 243.972728 18.308371 
L 243.972728 17.833522 
L 244.340791 17.833522 
L 244.340791 17.358673 
L 244.527252 17.358673 
L 244.527252 16.883824 
L 244.986251 16.883824 
L 244.986251 16.408976 
L 246.575268 16.408976 
L 246.575268 15.934127 
L 246.68862 15.934127 
L 246.68862 15.459278 
L 246.838862 15.459278 
L 246.86017 14.50958 
L 248.490519 14.50958 
L 248.562928 13.559883 
L 249.997369 13.559883 
L 249.997369 13.085034 
L 254.733065 13.085034 
L 254.733065 12.610185 
L 256.881615 12.610185 
L 256.881615 12.135337 
L 257.719613 12.135337 
L 257.719613 11.660488 
L 258.309454 11.660488 
L 258.309454 11.185639 
L 260.039197 11.185639 
L 260.039197 10.71079 
L 261.698387 10.71079 
L 261.698387 10.235941 
L 264.425432 10.235941 
L 264.425432 9.761093 
L 265.094645 9.761093 
L 265.094645 9.286244 
L 266.127385 9.286244 
L 266.127385 8.811395 
L 268.569566 8.811395 
L 268.569566 8.336546 
L 269.680842 8.336546 
L 269.680842 7.861698 
L 271.98871 7.861698 
L 271.98871 7.386849 
L 284.569842 7.386849 
L 284.569842 6.912 
L 360.8064 6.912 
L 360.8064 6.912 
" style="fill:none;stroke:#ff7500;stroke-linecap:square;stroke-width:1.5;"/>
   </g>
   <g id="line2d_41">
    <defs>
     <path d="M 0 -6 
L -1.347084 -1.854102 
L -5.706339 -1.854102 
L -2.179628 0.708204 
L -3.526712 4.854102 
L -0 2.291796 
L 3.526712 4.854102 
L 2.179628 0.708204 
L 5.706339 -1.854102 
L 1.347084 -1.854102 
z
" id="mf7071e342f" style="stroke:#ff7500;stroke-linejoin:bevel;stroke-width:1.5;"/>
    </defs>
    <g>
     <use style="fill-opacity:0;stroke:#ff7500;stroke-linejoin:bevel;stroke-width:1.5;" x="137.853747" xlink:href="#mf7071e342f" y="130.372683"/>
     <use style="fill-opacity:0;stroke:#ff7500;stroke-linejoin:bevel;stroke-width:1.5;" x="205.859759" xlink:href="#mf7071e342f" y="50.123239"/>
     <use style="fill-opacity:0;stroke:#ff7500;stroke-linejoin:bevel;stroke-width:1.5;" x="284.569842" xlink:href="#mf7071e342f" y="7.386849"/>
     <use style="fill-opacity:0;stroke:#ff7500;stroke-linejoin:bevel;stroke-width:1.5;" x="284.569842" xlink:href="#mf7071e342f" y="6.912"/>
     <use style="fill-opacity:0;stroke:#ff7500;stroke-linejoin:bevel;stroke-width:1.5;" x="360.8064" xlink:href="#mf7071e342f" y="6.912"/>
    </g>
   </g>
   <g id="line2d_42">
    <path style="fill:none;stroke:#ff7500;stroke-linecap:square;stroke-width:1.5;"/>
    <g/>
   </g>
   <g id="line2d_43">
    <path clip-path="url(#p3f5852cff1)" d="M 229.297476 33.503532 
" style="fill:none;stroke:#ff7500;stroke-linecap:square;stroke-width:1.5;"/>
    <defs>
     <path d="M -12 12 
L 12 -12 
M -12 -12 
L 12 12 
" id="m7b52d6c0b6" style="stroke:#ff7500;"/>
    </defs>
    <g clip-path="url(#p3f5852cff1)">
     <use style="fill:#ff7500;stroke:#ff7500;" x="229.297476" xlink:href="#m7b52d6c0b6" y="33.503532"/>
    </g>
   </g>
   <g id="line2d_44">
    <defs>
     <path d="M 0 1.5 
C 0.397805 1.5 0.77937 1.341951 1.06066 1.06066 
C 1.341951 0.77937 1.5 0.397805 1.5 0 
C 1.5 -0.397805 1.341951 -0.77937 1.06066 -1.06066 
C 0.77937 -1.341951 0.397805 -1.5 0 -1.5 
C -0.397805 -1.5 -0.77937 -1.341951 -1.06066 -1.06066 
C -1.341951 -0.77937 -1.5 -0.397805 -1.5 0 
C -1.5 0.397805 -1.341951 0.77937 -1.06066 1.06066 
C -0.77937 1.341951 -0.397805 1.5 0 1.5 
z
" id="mec48bc9634" style="stroke:#6495ed;"/>
    </defs>
    <g>
     <use style="fill:#6495ed;stroke:#6495ed;" x="140.28962" xlink:href="#mec48bc9634" y="6.912"/>
     <use style="fill:#6495ed;stroke:#6495ed;" x="140.28962" xlink:href="#mec48bc9634" y="6.912"/>
    </g>
   </g>
   <g id="line2d_45">
    <path d="M 73.672879 298.944 
L 73.672879 297.994302 
L 86.307488 297.994302 
L 86.307488 287.547629 
L 86.712053 287.547629 
L 86.712053 283.748839 
L 94.07074 283.748839 
L 94.07074 280.899746 
L 94.339481 280.899746 
L 94.339481 279.950049 
L 94.604437 279.950049 
L 94.604437 278.050654 
L 94.865713 278.050654 
L 94.865713 277.575805 
L 99.550033 277.575805 
L 99.550033 276.626107 
L 99.751228 276.626107 
L 99.751228 276.151259 
L 100.342215 276.151259 
L 100.342215 275.67641 
L 103.625951 275.67641 
L 103.625951 275.201561 
L 103.788121 275.201561 
L 103.788121 273.302166 
L 103.948904 273.302166 
L 103.948904 272.352468 
L 107.244765 272.352468 
L 107.244765 269.503376 
L 107.378656 269.503376 
L 107.378656 267.60398 
L 107.5116 267.60398 
L 107.5116 267.129132 
L 107.643612 267.129132 
L 107.643612 264.754888 
L 107.774703 264.754888 
L 107.774703 262.380644 
L 110.048356 262.380644 
L 110.048356 261.905795 
L 110.163764 261.905795 
L 110.163764 260.481249 
L 110.392479 260.481249 
L 110.392479 259.056702 
L 110.618446 259.056702 
L 110.618446 258.107005 
L 112.589207 258.107005 
L 112.690074 256.20761 
L 112.790402 256.20761 
L 112.790402 251.933971 
L 112.989468 251.933971 
L 112.989468 249.559727 
L 113.186449 249.559727 
L 113.186449 248.610029 
L 114.646902 248.610029 
L 114.737343 246.710634 
L 114.916929 246.710634 
L 115.006084 242.911844 
L 115.094818 242.911844 
L 115.183135 240.062751 
L 115.27104 240.062751 
L 115.27104 238.638205 
L 116.583514 238.638205 
L 116.583514 238.163356 
L 116.827295 238.163356 
L 116.907859 233.414868 
L 116.988079 233.414868 
L 117.067958 228.66638 
L 117.226706 228.66638 
L 117.226706 227.716683 
L 118.487648 227.716683 
L 118.561419 223.917893 
L 118.634901 223.917893 
L 118.634901 222.968195 
L 118.781011 222.968195 
L 118.781011 220.119102 
L 118.925995 220.119102 
L 118.925995 218.694556 
L 120.0813 218.694556 
L 120.149089 215.845463 
L 120.216635 215.845463 
L 120.28394 212.046673 
L 120.351004 212.046673 
L 120.41783 208.247883 
L 120.48442 208.247883 
L 120.48442 207.298185 
L 121.550424 207.298185 
L 121.613129 202.549698 
L 121.675626 202.549698 
L 121.737916 199.700605 
L 121.8 199.700605 
L 121.86188 194.952117 
L 121.985033 194.952117 
L 121.985033 194.477268 
L 122.913079 194.477268 
L 122.971409 185.455141 
L 123.029559 185.455141 
L 123.08753 182.1312 
L 123.202939 182.1312 
L 123.202939 181.181502 
L 123.317644 181.181502 
L 123.317644 180.706654 
L 124.128974 180.706654 
L 124.238185 174.53362 
L 124.292554 174.53362 
L 124.400822 169.310283 
L 124.454723 169.310283 
L 124.562065 165.986341 
L 125.271028 165.986341 
L 125.373824 161.712702 
L 125.425011 161.712702 
L 125.526971 154.589971 
L 125.577745 154.589971 
L 125.577745 150.316332 
L 125.729248 150.316332 
L 125.729248 149.366634 
L 126.396307 149.366634 
L 126.493149 143.668449 
L 126.541384 143.668449 
L 126.637484 136.545717 
L 126.68535 136.545717 
L 126.78072 134.171473 
L 127.458055 134.171473 
L 127.503881 127.52359 
L 127.5952 127.52359 
L 127.686077 122.300254 
L 127.731351 122.300254 
L 127.821575 118.976312 
L 128.41952 118.976312 
L 128.50651 116.12722 
L 128.5931 116.12722 
L 128.679293 106.155395 
L 128.722242 106.155395 
L 128.807846 104.730849 
L 129.334225 104.730849 
L 129.417095 101.406907 
L 129.458394 101.406907 
L 129.54072 92.859629 
L 129.581749 92.859629 
L 129.622688 89.535688 
L 129.78556 89.535688 
L 129.78556 89.060839 
L 130.206507 89.060839 
L 130.28563 85.736898 
L 130.325068 85.736898 
L 130.403695 77.18962 
L 130.521023 77.18962 
L 130.521023 74.815376 
L 130.676331 74.815376 
L 130.676331 73.865678 
L 131.040128 73.865678 
L 131.115828 72.441132 
L 131.153565 72.441132 
L 131.228811 64.368702 
L 131.266322 64.368702 
L 131.341119 59.620215 
L 131.526822 59.620215 
L 131.526822 58.670517 
L 131.874686 58.670517 
L 131.983214 52.972332 
L 132.019251 52.972332 
L 132.126951 46.324449 
L 132.162715 46.324449 
L 132.162715 45.8496 
L 132.340519 45.8496 
L 132.340519 45.374751 
L 132.777813 45.374751 
L 132.881269 39.676566 
L 132.915628 39.676566 
L 132.915628 39.201717 
L 133.086488 39.201717 
L 133.086488 38.25202 
L 133.44032 38.25202 
L 133.540205 34.928078 
L 133.606501 34.928078 
L 133.606501 33.503532 
L 134.14471 33.503532 
L 134.240933 30.17959 
L 134.304809 30.17959 
L 134.400219 28.280195 
L 134.495147 28.280195 
L 134.495147 27.330498 
L 134.823673 27.330498 
L 134.823673 26.3808 
L 134.947332 26.3808 
L 134.97812 25.431102 
L 135.070183 25.431102 
L 135.161798 23.056859 
L 135.478982 23.056859 
L 135.478982 22.58201 
L 135.59842 22.58201 
L 135.59842 21.632312 
L 135.717106 21.632312 
L 135.805631 19.258068 
L 136.112229 19.258068 
L 136.170066 17.833522 
L 136.227726 17.833522 
L 136.227726 17.358673 
L 136.342518 17.358673 
L 136.428155 15.459278 
L 136.780838 15.459278 
L 136.780838 14.984429 
L 136.947806 14.984429 
L 137.030737 13.085034 
L 137.372402 13.085034 
L 137.372402 12.135337 
L 137.534223 12.135337 
L 137.614614 10.71079 
L 137.945929 10.71079 
L 137.945929 9.761093 
L 138.180913 9.761093 
L 138.180913 9.286244 
L 138.502486 9.286244 
L 138.502486 8.811395 
L 138.730661 8.811395 
L 138.730661 8.336546 
L 139.264798 8.336546 
L 139.264798 7.861698 
L 140.28962 7.861698 
L 140.28962 6.912 
L 360.8064 6.912 
L 360.8064 6.912 
" style="fill:none;stroke:#6495ed;stroke-linecap:square;stroke-width:1.5;"/>
   </g>
   <g id="line2d_46">
    <defs>
     <path d="M -0 6 
L 6 -6 
L -6 -6 
z
" id="m00631e8be8" style="stroke:#6495ed;stroke-linejoin:miter;stroke-width:1.5;"/>
    </defs>
    <g>
     <use style="fill-opacity:0;stroke:#6495ed;stroke-linejoin:miter;stroke-width:1.5;" x="123.317644" xlink:href="#m00631e8be8" y="180.706654"/>
     <use style="fill-opacity:0;stroke:#6495ed;stroke-linejoin:miter;stroke-width:1.5;" x="140.28962" xlink:href="#m00631e8be8" y="7.861698"/>
     <use style="fill-opacity:0;stroke:#6495ed;stroke-linejoin:miter;stroke-width:1.5;" x="140.28962" xlink:href="#m00631e8be8" y="6.912"/>
     <use style="fill-opacity:0;stroke:#6495ed;stroke-linejoin:miter;stroke-width:1.5;" x="140.28962" xlink:href="#m00631e8be8" y="6.912"/>
     <use style="fill-opacity:0;stroke:#6495ed;stroke-linejoin:miter;stroke-width:1.5;" x="360.8064" xlink:href="#m00631e8be8" y="6.912"/>
    </g>
   </g>
   <g id="line2d_47">
    <path style="fill:none;stroke:#6495ed;stroke-linecap:square;stroke-width:1.5;"/>
    <g/>
   </g>
   <g id="line2d_48">
    <path d="M 360.8064 156.489366 
L 380.514816 293.10336 
" style="fill:none;stroke:#000080;stroke-linecap:square;stroke-width:1.5;"/>
    <g>
     <use style="fill-opacity:0;stroke:#000080;stroke-width:1.5;" x="360.8064" xlink:href="#m70ce65e4fa" y="156.489366"/>
     <use style="fill-opacity:0;stroke:#000080;stroke-width:1.5;" x="380.514816" xlink:href="#m70ce65e4fa" y="293.10336"/>
    </g>
   </g>
   <g id="line2d_49">
    <path d="M 360.8064 71.016585 
L 380.514816 199.65312 
" style="fill:none;stroke:#ff00ff;stroke-linecap:square;stroke-width:1.5;"/>
    <g>
     <use style="fill-opacity:0;stroke:#ff00ff;stroke-linejoin:miter;stroke-width:1.5;" x="360.8064" xlink:href="#me89a4439ee" y="71.016585"/>
     <use style="fill-opacity:0;stroke:#ff00ff;stroke-linejoin:miter;stroke-width:1.5;" x="380.514816" xlink:href="#me89a4439ee" y="199.65312"/>
    </g>
   </g>
   <g id="line2d_50">
    <path d="M 360.8064 6.912 
L 380.514816 106.20288 
" style="fill:none;stroke:#ff7500;stroke-linecap:square;stroke-width:1.5;"/>
    <g>
     <use style="fill-opacity:0;stroke:#ff7500;stroke-linejoin:bevel;stroke-width:1.5;" x="360.8064" xlink:href="#mf7071e342f" y="6.912"/>
     <use style="fill-opacity:0;stroke:#ff7500;stroke-linejoin:bevel;stroke-width:1.5;" x="380.514816" xlink:href="#mf7071e342f" y="106.20288"/>
    </g>
   </g>
   <g id="line2d_51">
    <path d="M 360.8064 6.912 
L 380.514816 12.75264 
" style="fill:none;stroke:#6495ed;stroke-linecap:square;stroke-width:1.5;"/>
    <g>
     <use style="fill-opacity:0;stroke:#6495ed;stroke-linejoin:miter;stroke-width:1.5;" x="360.8064" xlink:href="#m00631e8be8" y="6.912"/>
     <use style="fill-opacity:0;stroke:#6495ed;stroke-linejoin:miter;stroke-width:1.5;" x="380.514816" xlink:href="#m00631e8be8" y="12.75264"/>
    </g>
   </g>
   <g id="line2d_52">
    <path d="M 360.8064 298.944 
L 360.8064 6.912 
" style="fill:none;stroke:#000000;stroke-linecap:square;stroke-width:1.5;"/>
   </g>
   <g id="patch_3">
    <path d="M 57.6 298.944 
L 360.8064 298.944 
" style="fill:none;stroke:#000000;stroke-linecap:square;stroke-linejoin:miter;stroke-width:0.8;"/>
   </g>
   <g id="patch_4">
    <path d="M 57.6 6.912 
L 360.8064 6.912 
" style="fill:none;stroke:#000000;stroke-linecap:square;stroke-linejoin:miter;stroke-width:0.8;"/>
   </g>
   <g id="text_13">
    <!-- f19 -->
    <g transform="translate(386.578944 296.966485)scale(0.14 -0.14)">
     <defs>
      <path d="M 10.984375 1.515625 
L 10.984375 10.5 
Q 14.703125 8.734375 18.5 7.8125 
Q 22.3125 6.890625 25.984375 6.890625 
Q 35.75 6.890625 40.890625 13.453125 
Q 46.046875 20.015625 46.78125 33.40625 
Q 43.953125 29.203125 39.59375 26.953125 
Q 35.25 24.703125 29.984375 24.703125 
Q 19.046875 24.703125 12.671875 31.3125 
Q 6.296875 37.9375 6.296875 49.421875 
Q 6.296875 60.640625 12.9375 67.421875 
Q 19.578125 74.21875 30.609375 74.21875 
Q 43.265625 74.21875 49.921875 64.515625 
Q 56.59375 54.828125 56.59375 36.375 
Q 56.59375 19.140625 48.40625 8.859375 
Q 40.234375 -1.421875 26.421875 -1.421875 
Q 22.703125 -1.421875 18.890625 -0.6875 
Q 15.09375 0.046875 10.984375 1.515625 
z
M 30.609375 32.421875 
Q 37.25 32.421875 41.125 36.953125 
Q 45.015625 41.5 45.015625 49.421875 
Q 45.015625 57.28125 41.125 61.84375 
Q 37.25 66.40625 30.609375 66.40625 
Q 23.96875 66.40625 20.09375 61.84375 
Q 16.21875 57.28125 16.21875 49.421875 
Q 16.21875 41.5 20.09375 36.953125 
Q 23.96875 32.421875 30.609375 32.421875 
z
" id="DejaVuSans-57"/>
     </defs>
     <use xlink:href="#DejaVuSans-102"/>
     <use x="35.205078" xlink:href="#DejaVuSans-49"/>
     <use x="98.828125" xlink:href="#DejaVuSans-57"/>
    </g>
   </g>
   <g id="text_14">
    <!-- f25 -->
    <g transform="translate(386.578944 203.516245)scale(0.14 -0.14)">
     <defs>
      <path d="M 10.796875 72.90625 
L 49.515625 72.90625 
L 49.515625 64.59375 
L 19.828125 64.59375 
L 19.828125 46.734375 
Q 21.96875 47.46875 24.109375 47.828125 
Q 26.265625 48.1875 28.421875 48.1875 
Q 40.625 48.1875 47.75 41.5 
Q 54.890625 34.8125 54.890625 23.390625 
Q 54.890625 11.625 47.5625 5.09375 
Q 40.234375 -1.421875 26.90625 -1.421875 
Q 22.3125 -1.421875 17.546875 -0.640625 
Q 12.796875 0.140625 7.71875 1.703125 
L 7.71875 11.625 
Q 12.109375 9.234375 16.796875 8.0625 
Q 21.484375 6.890625 26.703125 6.890625 
Q 35.15625 6.890625 40.078125 11.328125 
Q 45.015625 15.765625 45.015625 23.390625 
Q 45.015625 31 40.078125 35.4375 
Q 35.15625 39.890625 26.703125 39.890625 
Q 22.75 39.890625 18.8125 39.015625 
Q 14.890625 38.140625 10.796875 36.28125 
z
" id="DejaVuSans-53"/>
     </defs>
     <use xlink:href="#DejaVuSans-102"/>
     <use x="35.205078" xlink:href="#DejaVuSans-50"/>
     <use x="98.828125" xlink:href="#DejaVuSans-53"/>
    </g>
   </g>
   <g id="text_15">
    <!-- f31 -->
    <g transform="translate(386.578944 110.066005)scale(0.14 -0.14)">
     <defs>
      <path d="M 40.578125 39.3125 
Q 47.65625 37.796875 51.625 33 
Q 55.609375 28.21875 55.609375 21.1875 
Q 55.609375 10.40625 48.1875 4.484375 
Q 40.765625 -1.421875 27.09375 -1.421875 
Q 22.515625 -1.421875 17.65625 -0.515625 
Q 12.796875 0.390625 7.625 2.203125 
L 7.625 11.71875 
Q 11.71875 9.328125 16.59375 8.109375 
Q 21.484375 6.890625 26.8125 6.890625 
Q 36.078125 6.890625 40.9375 10.546875 
Q 45.796875 14.203125 45.796875 21.1875 
Q 45.796875 27.640625 41.28125 31.265625 
Q 36.765625 34.90625 28.71875 34.90625 
L 20.21875 34.90625 
L 20.21875 43.015625 
L 29.109375 43.015625 
Q 36.375 43.015625 40.234375 45.921875 
Q 44.09375 48.828125 44.09375 54.296875 
Q 44.09375 59.90625 40.109375 62.90625 
Q 36.140625 65.921875 28.71875 65.921875 
Q 24.65625 65.921875 20.015625 65.03125 
Q 15.375 64.15625 9.8125 62.3125 
L 9.8125 71.09375 
Q 15.4375 72.65625 20.34375 73.4375 
Q 25.25 74.21875 29.59375 74.21875 
Q 40.828125 74.21875 47.359375 69.109375 
Q 53.90625 64.015625 53.90625 55.328125 
Q 53.90625 49.265625 50.4375 45.09375 
Q 46.96875 40.921875 40.578125 39.3125 
z
" id="DejaVuSans-51"/>
     </defs>
     <use xlink:href="#DejaVuSans-102"/>
     <use x="35.205078" xlink:href="#DejaVuSans-51"/>
     <use x="98.828125" xlink:href="#DejaVuSans-49"/>
    </g>
   </g>
   <g id="text_16">
    <!-- f37 -->
    <g transform="translate(386.578944 16.615765)scale(0.14 -0.14)">
     <defs>
      <path d="M 8.203125 72.90625 
L 55.078125 72.90625 
L 55.078125 68.703125 
L 28.609375 0 
L 18.3125 0 
L 43.21875 64.59375 
L 8.203125 64.59375 
z
" id="DejaVuSans-55"/>
     </defs>
     <use xlink:href="#DejaVuSans-102"/>
     <use x="35.205078" xlink:href="#DejaVuSans-51"/>
     <use x="98.828125" xlink:href="#DejaVuSans-55"/>
    </g>
   </g>
   <g id="text_17">
    <!-- bbob-constrained -->
    <g transform="translate(60.632064 17.582726)scale(0.102 -0.102)">
     <defs>
      <path d="M 48.6875 27.296875 
Q 48.6875 37.203125 44.609375 42.84375 
Q 40.53125 48.484375 33.40625 48.484375 
Q 26.265625 48.484375 22.1875 42.84375 
Q 18.109375 37.203125 18.109375 27.296875 
Q 18.109375 17.390625 22.1875 11.75 
Q 26.265625 6.109375 33.40625 6.109375 
Q 40.53125 6.109375 44.609375 11.75 
Q 48.6875 17.390625 48.6875 27.296875 
z
M 18.109375 46.390625 
Q 20.953125 51.265625 25.265625 53.625 
Q 29.59375 56 35.59375 56 
Q 45.5625 56 51.78125 48.09375 
Q 58.015625 40.1875 58.015625 27.296875 
Q 58.015625 14.40625 51.78125 6.484375 
Q 45.5625 -1.421875 35.59375 -1.421875 
Q 29.59375 -1.421875 25.265625 0.953125 
Q 20.953125 3.328125 18.109375 8.203125 
L 18.109375 0 
L 9.078125 0 
L 9.078125 75.984375 
L 18.109375 75.984375 
z
" id="DejaVuSans-98"/>
      <path d="M 4.890625 31.390625 
L 31.203125 31.390625 
L 31.203125 23.390625 
L 4.890625 23.390625 
z
" id="DejaVuSans-45"/>
     </defs>
     <use xlink:href="#DejaVuSans-98"/>
     <use x="63.476562" xlink:href="#DejaVuSans-98"/>
     <use x="126.953125" xlink:href="#DejaVuSans-111"/>
     <use x="188.134766" xlink:href="#DejaVuSans-98"/>
     <use x="251.611328" xlink:href="#DejaVuSans-45"/>
     <use x="287.695312" xlink:href="#DejaVuSans-99"/>
     <use x="342.675781" xlink:href="#DejaVuSans-111"/>
     <use x="403.857422" xlink:href="#DejaVuSans-110"/>
     <use x="467.236328" xlink:href="#DejaVuSans-115"/>
     <use x="519.335938" xlink:href="#DejaVuSans-116"/>
     <use x="558.544922" xlink:href="#DejaVuSans-114"/>
     <use x="599.658203" xlink:href="#DejaVuSans-97"/>
     <use x="660.9375" xlink:href="#DejaVuSans-105"/>
     <use x="688.720703" xlink:href="#DejaVuSans-110"/>
     <use x="752.099609" xlink:href="#DejaVuSans-101"/>
     <use x="813.623047" xlink:href="#DejaVuSans-100"/>
    </g>
    <!-- Ill-conditioned functions with 0n+1 constraints, 20-D -->
    <g transform="translate(60.632064 29.004495)scale(0.102 -0.102)">
     <defs>
      <path d="M 9.8125 72.90625 
L 19.671875 72.90625 
L 19.671875 0 
L 9.8125 0 
z
" id="DejaVuSans-73"/>
      <path d="M 4.203125 54.6875 
L 13.1875 54.6875 
L 24.421875 12.015625 
L 35.59375 54.6875 
L 46.1875 54.6875 
L 57.421875 12.015625 
L 68.609375 54.6875 
L 77.59375 54.6875 
L 63.28125 0 
L 52.6875 0 
L 40.921875 44.828125 
L 29.109375 0 
L 18.5 0 
z
" id="DejaVuSans-119"/>
      <path d="M 54.890625 33.015625 
L 54.890625 0 
L 45.90625 0 
L 45.90625 32.71875 
Q 45.90625 40.484375 42.875 44.328125 
Q 39.84375 48.1875 33.796875 48.1875 
Q 26.515625 48.1875 22.3125 43.546875 
Q 18.109375 38.921875 18.109375 30.90625 
L 18.109375 0 
L 9.078125 0 
L 9.078125 75.984375 
L 18.109375 75.984375 
L 18.109375 46.1875 
Q 21.34375 51.125 25.703125 53.5625 
Q 30.078125 56 35.796875 56 
Q 45.21875 56 50.046875 50.171875 
Q 54.890625 44.34375 54.890625 33.015625 
z
" id="DejaVuSans-104"/>
      <path d="M 46 62.703125 
L 46 35.5 
L 73.1875 35.5 
L 73.1875 27.203125 
L 46 27.203125 
L 46 0 
L 37.796875 0 
L 37.796875 27.203125 
L 10.59375 27.203125 
L 10.59375 35.5 
L 37.796875 35.5 
L 37.796875 62.703125 
z
" id="DejaVuSans-43"/>
      <path d="M 19.671875 64.796875 
L 19.671875 8.109375 
L 31.59375 8.109375 
Q 46.6875 8.109375 53.6875 14.9375 
Q 60.6875 21.78125 60.6875 36.53125 
Q 60.6875 51.171875 53.6875 57.984375 
Q 46.6875 64.796875 31.59375 64.796875 
z
M 9.8125 72.90625 
L 30.078125 72.90625 
Q 51.265625 72.90625 61.171875 64.09375 
Q 71.09375 55.28125 71.09375 36.53125 
Q 71.09375 17.671875 61.125 8.828125 
Q 51.171875 0 30.078125 0 
L 9.8125 0 
z
" id="DejaVuSans-68"/>
     </defs>
     <use xlink:href="#DejaVuSans-73"/>
     <use x="29.492188" xlink:href="#DejaVuSans-108"/>
     <use x="57.275391" xlink:href="#DejaVuSans-108"/>
     <use x="85.058594" xlink:href="#DejaVuSans-45"/>
     <use x="121.142578" xlink:href="#DejaVuSans-99"/>
     <use x="176.123047" xlink:href="#DejaVuSans-111"/>
     <use x="237.304688" xlink:href="#DejaVuSans-110"/>
     <use x="300.683594" xlink:href="#DejaVuSans-100"/>
     <use x="364.160156" xlink:href="#DejaVuSans-105"/>
     <use x="391.943359" xlink:href="#DejaVuSans-116"/>
     <use x="431.152344" xlink:href="#DejaVuSans-105"/>
     <use x="458.935547" xlink:href="#DejaVuSans-111"/>
     <use x="520.117188" xlink:href="#DejaVuSans-110"/>
     <use x="583.496094" xlink:href="#DejaVuSans-101"/>
     <use x="645.019531" xlink:href="#DejaVuSans-100"/>
     <use x="708.496094" xlink:href="#DejaVuSans-32"/>
     <use x="740.283203" xlink:href="#DejaVuSans-102"/>
     <use x="775.488281" xlink:href="#DejaVuSans-117"/>
     <use x="838.867188" xlink:href="#DejaVuSans-110"/>
     <use x="902.246094" xlink:href="#DejaVuSans-99"/>
     <use x="957.226562" xlink:href="#DejaVuSans-116"/>
     <use x="996.435547" xlink:href="#DejaVuSans-105"/>
     <use x="1024.21875" xlink:href="#DejaVuSans-111"/>
     <use x="1085.400391" xlink:href="#DejaVuSans-110"/>
     <use x="1148.779297" xlink:href="#DejaVuSans-115"/>
     <use x="1200.878906" xlink:href="#DejaVuSans-32"/>
     <use x="1232.666016" xlink:href="#DejaVuSans-119"/>
     <use x="1314.453125" xlink:href="#DejaVuSans-105"/>
     <use x="1342.236328" xlink:href="#DejaVuSans-116"/>
     <use x="1381.445312" xlink:href="#DejaVuSans-104"/>
     <use x="1444.824219" xlink:href="#DejaVuSans-32"/>
     <use x="1476.611328" xlink:href="#DejaVuSans-48"/>
     <use x="1540.234375" xlink:href="#DejaVuSans-110"/>
     <use x="1603.613281" xlink:href="#DejaVuSans-43"/>
     <use x="1687.402344" xlink:href="#DejaVuSans-49"/>
     <use x="1751.025391" xlink:href="#DejaVuSans-32"/>
     <use x="1782.8125" xlink:href="#DejaVuSans-99"/>
     <use x="1837.792969" xlink:href="#DejaVuSans-111"/>
     <use x="1898.974609" xlink:href="#DejaVuSans-110"/>
     <use x="1962.353516" xlink:href="#DejaVuSans-115"/>
     <use x="2014.453125" xlink:href="#DejaVuSans-116"/>
     <use x="2053.662109" xlink:href="#DejaVuSans-114"/>
     <use x="2094.775391" xlink:href="#DejaVuSans-97"/>
     <use x="2156.054688" xlink:href="#DejaVuSans-105"/>
     <use x="2183.837891" xlink:href="#DejaVuSans-110"/>
     <use x="2247.216797" xlink:href="#DejaVuSans-116"/>
     <use x="2286.425781" xlink:href="#DejaVuSans-115"/>
     <use x="2338.525391" xlink:href="#DejaVuSans-44"/>
     <use x="2370.3125" xlink:href="#DejaVuSans-32"/>
     <use x="2402.099609" xlink:href="#DejaVuSans-50"/>
     <use x="2465.722656" xlink:href="#DejaVuSans-48"/>
     <use x="2529.345703" xlink:href="#DejaVuSans-45"/>
     <use x="2565.429688" xlink:href="#DejaVuSans-68"/>
    </g>
    <!-- 41 targets: 100..1e-06 -->
    <g transform="translate(60.632064 40.426264)scale(0.102 -0.102)">
     <defs>
      <path d="M 11.71875 12.40625 
L 22.015625 12.40625 
L 22.015625 0 
L 11.71875 0 
z
M 11.71875 51.703125 
L 22.015625 51.703125 
L 22.015625 39.3125 
L 11.71875 39.3125 
z
" id="DejaVuSans-58"/>
     </defs>
     <use xlink:href="#DejaVuSans-52"/>
     <use x="63.623047" xlink:href="#DejaVuSans-49"/>
     <use x="127.246094" xlink:href="#DejaVuSans-32"/>
     <use x="159.033203" xlink:href="#DejaVuSans-116"/>
     <use x="198.242188" xlink:href="#DejaVuSans-97"/>
     <use x="259.521484" xlink:href="#DejaVuSans-114"/>
     <use x="298.884766" xlink:href="#DejaVuSans-103"/>
     <use x="362.361328" xlink:href="#DejaVuSans-101"/>
     <use x="423.884766" xlink:href="#DejaVuSans-116"/>
     <use x="463.09375" xlink:href="#DejaVuSans-115"/>
     <use x="515.193359" xlink:href="#DejaVuSans-58"/>
     <use x="548.884766" xlink:href="#DejaVuSans-32"/>
     <use x="580.671875" xlink:href="#DejaVuSans-49"/>
     <use x="644.294922" xlink:href="#DejaVuSans-48"/>
     <use x="707.917969" xlink:href="#DejaVuSans-48"/>
     <use x="771.541016" xlink:href="#DejaVuSans-46"/>
     <use x="803.328125" xlink:href="#DejaVuSans-46"/>
     <use x="835.115234" xlink:href="#DejaVuSans-49"/>
     <use x="898.738281" xlink:href="#DejaVuSans-101"/>
     <use x="960.261719" xlink:href="#DejaVuSans-45"/>
     <use x="996.345703" xlink:href="#DejaVuSans-48"/>
     <use x="1059.96875" xlink:href="#DejaVuSans-54"/>
    </g>
    <!-- evals = f-evals + g-evals -->
    <g transform="translate(60.632064 51.848032)scale(0.102 -0.102)">
     <defs>
      <path d="M 10.59375 45.40625 
L 73.1875 45.40625 
L 73.1875 37.203125 
L 10.59375 37.203125 
z
M 10.59375 25.484375 
L 73.1875 25.484375 
L 73.1875 17.1875 
L 10.59375 17.1875 
z
" id="DejaVuSans-61"/>
     </defs>
     <use xlink:href="#DejaVuSans-101"/>
     <use x="61.523438" xlink:href="#DejaVuSans-118"/>
     <use x="120.703125" xlink:href="#DejaVuSans-97"/>
     <use x="181.982422" xlink:href="#DejaVuSans-108"/>
     <use x="209.765625" xlink:href="#DejaVuSans-115"/>
     <use x="261.865234" xlink:href="#DejaVuSans-32"/>
     <use x="293.652344" xlink:href="#DejaVuSans-61"/>
     <use x="377.441406" xlink:href="#DejaVuSans-32"/>
     <use x="409.228516" xlink:href="#DejaVuSans-102"/>
     <use x="438.933594" xlink:href="#DejaVuSans-45"/>
     <use x="475.017578" xlink:href="#DejaVuSans-101"/>
     <use x="536.541016" xlink:href="#DejaVuSans-118"/>
     <use x="595.720703" xlink:href="#DejaVuSans-97"/>
     <use x="657" xlink:href="#DejaVuSans-108"/>
     <use x="684.783203" xlink:href="#DejaVuSans-115"/>
     <use x="736.882812" xlink:href="#DejaVuSans-32"/>
     <use x="768.669922" xlink:href="#DejaVuSans-43"/>
     <use x="852.458984" xlink:href="#DejaVuSans-32"/>
     <use x="884.246094" xlink:href="#DejaVuSans-103"/>
     <use x="947.722656" xlink:href="#DejaVuSans-45"/>
     <use x="983.806641" xlink:href="#DejaVuSans-101"/>
     <use x="1045.330078" xlink:href="#DejaVuSans-118"/>
     <use x="1104.509766" xlink:href="#DejaVuSans-97"/>
     <use x="1165.789062" xlink:href="#DejaVuSans-108"/>
     <use x="1193.572266" xlink:href="#DejaVuSans-115"/>
    </g>
    <!-- 15 instances -->
    <g transform="translate(60.632064 63.269801)scale(0.102 -0.102)">
     <use xlink:href="#DejaVuSans-49"/>
     <use x="63.623047" xlink:href="#DejaVuSans-53"/>
     <use x="127.246094" xlink:href="#DejaVuSans-32"/>
     <use x="159.033203" xlink:href="#DejaVuSans-105"/>
     <use x="186.816406" xlink:href="#DejaVuSans-110"/>
     <use x="250.195312" xlink:href="#DejaVuSans-115"/>
     <use x="302.294922" xlink:href="#DejaVuSans-116"/>
     <use x="341.503906" xlink:href="#DejaVuSans-97"/>
     <use x="402.783203" xlink:href="#DejaVuSans-110"/>
     <use x="466.162109" xlink:href="#DejaVuSans-99"/>
     <use x="521.142578" xlink:href="#DejaVuSans-101"/>
     <use x="582.666016" xlink:href="#DejaVuSans-115"/>
    </g>
   </g>
   <g id="text_18">
    <!-- v2.4.159 -->
    <g style="fill:#808080;" transform="translate(187.15945 293.943992)scale(0.1 -0.1)">
     <use xlink:href="#DejaVuSans-118"/>
     <use x="59.179688" xlink:href="#DejaVuSans-50"/>
     <use x="122.802734" xlink:href="#DejaVuSans-46"/>
     <use x="154.589844" xlink:href="#DejaVuSans-52"/>
     <use x="218.212891" xlink:href="#DejaVuSans-46"/>
     <use x="250" xlink:href="#DejaVuSans-49"/>
     <use x="313.623047" xlink:href="#DejaVuSans-53"/>
     <use x="377.246094" xlink:href="#DejaVuSans-57"/>
    </g>
   </g>
  </g>
 </g>
 <defs>
  <clipPath id="p3f5852cff1">
   <rect height="292.032" width="303.2064" x="57.6" y="6.912"/>
  </clipPath>
 </defs>
</svg>
