<?xml version="1.0" encoding="utf-8" standalone="no"?>
<!DOCTYPE svg PUBLIC "-//W3C//DTD SVG 1.1//EN"
  "http://www.w3.org/Graphics/SVG/1.1/DTD/svg11.dtd">
<!-- Created with matplotlib (https://matplotlib.org/) -->
<svg height="345.6pt" version="1.1" viewBox="0 0 460.8 345.6" width="460.8pt" xmlns="http://www.w3.org/2000/svg" xmlns:xlink="http://www.w3.org/1999/xlink">
 <metadata>
  <rdf:RDF xmlns:cc="http://creativecommons.org/ns#" xmlns:dc="http://purl.org/dc/elements/1.1/" xmlns:rdf="http://www.w3.org/1999/02/22-rdf-syntax-ns#">
   <cc:Work>
    <dc:type rdf:resource="http://purl.org/dc/dcmitype/StillImage"/>
    <dc:date>2022-02-09T00:08:17.315400</dc:date>
    <dc:format>image/svg+xml</dc:format>
    <dc:creator>
     <cc:Agent>
      <dc:title>Matplotlib v3.3.3, https://matplotlib.org/</dc:title>
     </cc:Agent>
    </dc:creator>
   </cc:Work>
  </rdf:RDF>
 </metadata>
 <defs>
  <style type="text/css">*{stroke-linecap:butt;stroke-linejoin:round;}</style>
 </defs>
 <g id="figure_1">
  <g id="patch_1">
   <path d="M 0 345.6 
L 460.8 345.6 
L 460.8 0 
L 0 0 
z
" style="fill:#ffffff;"/>
  </g>
  <g id="axes_1">
   <g id="patch_2">
    <path d="M 57.6 298.944 
L 360.8064 298.944 
L 360.8064 27.648 
L 57.6 27.648 
z
" style="fill:#ffffff;"/>
   </g>
   <g id="matplotlib.axis_1">
    <g id="xtick_1">
     <g id="line2d_1">
      <path clip-path="url(#p40cd42d36c)" d="M 57.6 298.944 
L 57.6 27.648 
" style="fill:none;stroke:#b0b0b0;stroke-linecap:square;stroke-width:0.8;"/>
     </g>
     <g id="line2d_2">
      <defs>
       <path d="M 0 0 
L 0 3.5 
" id="m1f49c83ce7" style="stroke:#000000;stroke-width:0.8;"/>
      </defs>
      <g>
       <use style="stroke:#000000;stroke-width:0.8;" x="57.6" xlink:href="#m1f49c83ce7" y="298.944"/>
      </g>
     </g>
     <g id="text_1">
      <!-- 0 -->
      <g transform="translate(52.191875 318.861344)scale(0.17 -0.17)">
       <defs>
        <path d="M 31.78125 66.40625 
Q 24.171875 66.40625 20.328125 58.90625 
Q 16.5 51.421875 16.5 36.375 
Q 16.5 21.390625 20.328125 13.890625 
Q 24.171875 6.390625 31.78125 6.390625 
Q 39.453125 6.390625 43.28125 13.890625 
Q 47.125 21.390625 47.125 36.375 
Q 47.125 51.421875 43.28125 58.90625 
Q 39.453125 66.40625 31.78125 66.40625 
z
M 31.78125 74.21875 
Q 44.046875 74.21875 50.515625 64.515625 
Q 56.984375 54.828125 56.984375 36.375 
Q 56.984375 17.96875 50.515625 8.265625 
Q 44.046875 -1.421875 31.78125 -1.421875 
Q 19.53125 -1.421875 13.0625 8.265625 
Q 6.59375 17.96875 6.59375 36.375 
Q 6.59375 54.828125 13.0625 64.515625 
Q 19.53125 74.21875 31.78125 74.21875 
z
" id="DejaVuSans-48"/>
       </defs>
       <use xlink:href="#DejaVuSans-48"/>
      </g>
     </g>
    </g>
    <g id="xtick_2">
     <g id="line2d_3">
      <path clip-path="url(#p40cd42d36c)" d="M 144.2304 298.944 
L 144.2304 27.648 
" style="fill:none;stroke:#b0b0b0;stroke-linecap:square;stroke-width:0.8;"/>
     </g>
     <g id="line2d_4">
      <g>
       <use style="stroke:#000000;stroke-width:0.8;" x="144.2304" xlink:href="#m1f49c83ce7" y="298.944"/>
      </g>
     </g>
     <g id="text_2">
      <!-- 2 -->
      <g transform="translate(138.822275 318.861344)scale(0.17 -0.17)">
       <defs>
        <path d="M 19.1875 8.296875 
L 53.609375 8.296875 
L 53.609375 0 
L 7.328125 0 
L 7.328125 8.296875 
Q 12.9375 14.109375 22.625 23.890625 
Q 32.328125 33.6875 34.8125 36.53125 
Q 39.546875 41.84375 41.421875 45.53125 
Q 43.3125 49.21875 43.3125 52.78125 
Q 43.3125 58.59375 39.234375 62.25 
Q 35.15625 65.921875 28.609375 65.921875 
Q 23.96875 65.921875 18.8125 64.3125 
Q 13.671875 62.703125 7.8125 59.421875 
L 7.8125 69.390625 
Q 13.765625 71.78125 18.9375 73 
Q 24.125 74.21875 28.421875 74.21875 
Q 39.75 74.21875 46.484375 68.546875 
Q 53.21875 62.890625 53.21875 53.421875 
Q 53.21875 48.921875 51.53125 44.890625 
Q 49.859375 40.875 45.40625 35.40625 
Q 44.1875 33.984375 37.640625 27.21875 
Q 31.109375 20.453125 19.1875 8.296875 
z
" id="DejaVuSans-50"/>
       </defs>
       <use xlink:href="#DejaVuSans-50"/>
      </g>
     </g>
    </g>
    <g id="xtick_3">
     <g id="line2d_5">
      <path clip-path="url(#p40cd42d36c)" d="M 230.8608 298.944 
L 230.8608 27.648 
" style="fill:none;stroke:#b0b0b0;stroke-linecap:square;stroke-width:0.8;"/>
     </g>
     <g id="line2d_6">
      <g>
       <use style="stroke:#000000;stroke-width:0.8;" x="230.8608" xlink:href="#m1f49c83ce7" y="298.944"/>
      </g>
     </g>
     <g id="text_3">
      <!-- 4 -->
      <g transform="translate(225.452675 318.861344)scale(0.17 -0.17)">
       <defs>
        <path d="M 37.796875 64.3125 
L 12.890625 25.390625 
L 37.796875 25.390625 
z
M 35.203125 72.90625 
L 47.609375 72.90625 
L 47.609375 25.390625 
L 58.015625 25.390625 
L 58.015625 17.1875 
L 47.609375 17.1875 
L 47.609375 0 
L 37.796875 0 
L 37.796875 17.1875 
L 4.890625 17.1875 
L 4.890625 26.703125 
z
" id="DejaVuSans-52"/>
       </defs>
       <use xlink:href="#DejaVuSans-52"/>
      </g>
     </g>
    </g>
    <g id="xtick_4">
     <g id="line2d_7">
      <path clip-path="url(#p40cd42d36c)" d="M 317.4912 298.944 
L 317.4912 27.648 
" style="fill:none;stroke:#b0b0b0;stroke-linecap:square;stroke-width:0.8;"/>
     </g>
     <g id="line2d_8">
      <g>
       <use style="stroke:#000000;stroke-width:0.8;" x="317.4912" xlink:href="#m1f49c83ce7" y="298.944"/>
      </g>
     </g>
     <g id="text_4">
      <!-- 6 -->
      <g transform="translate(312.083075 318.861344)scale(0.17 -0.17)">
       <defs>
        <path d="M 33.015625 40.375 
Q 26.375 40.375 22.484375 35.828125 
Q 18.609375 31.296875 18.609375 23.390625 
Q 18.609375 15.53125 22.484375 10.953125 
Q 26.375 6.390625 33.015625 6.390625 
Q 39.65625 6.390625 43.53125 10.953125 
Q 47.40625 15.53125 47.40625 23.390625 
Q 47.40625 31.296875 43.53125 35.828125 
Q 39.65625 40.375 33.015625 40.375 
z
M 52.59375 71.296875 
L 52.59375 62.3125 
Q 48.875 64.0625 45.09375 64.984375 
Q 41.3125 65.921875 37.59375 65.921875 
Q 27.828125 65.921875 22.671875 59.328125 
Q 17.53125 52.734375 16.796875 39.40625 
Q 19.671875 43.65625 24.015625 45.921875 
Q 28.375 48.1875 33.59375 48.1875 
Q 44.578125 48.1875 50.953125 41.515625 
Q 57.328125 34.859375 57.328125 23.390625 
Q 57.328125 12.15625 50.6875 5.359375 
Q 44.046875 -1.421875 33.015625 -1.421875 
Q 20.359375 -1.421875 13.671875 8.265625 
Q 6.984375 17.96875 6.984375 36.375 
Q 6.984375 53.65625 15.1875 63.9375 
Q 23.390625 74.21875 37.203125 74.21875 
Q 40.921875 74.21875 44.703125 73.484375 
Q 48.484375 72.75 52.59375 71.296875 
z
" id="DejaVuSans-54"/>
       </defs>
       <use xlink:href="#DejaVuSans-54"/>
      </g>
     </g>
    </g>
    <g id="xtick_5">
     <g id="line2d_9">
      <path clip-path="url(#p40cd42d36c)" d="M 100.9152 298.944 
L 100.9152 27.648 
" style="fill:none;stroke:#b0b0b0;stroke-linecap:square;stroke-width:0.8;"/>
     </g>
     <g id="line2d_10">
      <defs>
       <path d="M 0 0 
L 0 2 
" id="m4e1fa52103" style="stroke:#000000;stroke-width:0.6;"/>
      </defs>
      <g>
       <use style="stroke:#000000;stroke-width:0.6;" x="100.9152" xlink:href="#m4e1fa52103" y="298.944"/>
      </g>
     </g>
    </g>
    <g id="xtick_6">
     <g id="line2d_11">
      <path clip-path="url(#p40cd42d36c)" d="M 187.5456 298.944 
L 187.5456 27.648 
" style="fill:none;stroke:#b0b0b0;stroke-linecap:square;stroke-width:0.8;"/>
     </g>
     <g id="line2d_12">
      <g>
       <use style="stroke:#000000;stroke-width:0.6;" x="187.5456" xlink:href="#m4e1fa52103" y="298.944"/>
      </g>
     </g>
    </g>
    <g id="xtick_7">
     <g id="line2d_13">
      <path clip-path="url(#p40cd42d36c)" d="M 274.176 298.944 
L 274.176 27.648 
" style="fill:none;stroke:#b0b0b0;stroke-linecap:square;stroke-width:0.8;"/>
     </g>
     <g id="line2d_14">
      <g>
       <use style="stroke:#000000;stroke-width:0.6;" x="274.176" xlink:href="#m4e1fa52103" y="298.944"/>
      </g>
     </g>
    </g>
    <g id="xtick_8">
     <g id="line2d_15">
      <path clip-path="url(#p40cd42d36c)" d="M 360.8064 298.944 
L 360.8064 27.648 
" style="fill:none;stroke:#b0b0b0;stroke-linecap:square;stroke-width:0.8;"/>
     </g>
     <g id="line2d_16">
      <g>
       <use style="stroke:#000000;stroke-width:0.6;" x="360.8064" xlink:href="#m4e1fa52103" y="298.944"/>
      </g>
     </g>
    </g>
    <g id="text_5">
     <!-- log10(evals / dimension) -->
     <g transform="translate(104.238825 339.314156)scale(0.17 -0.17)">
      <defs>
       <path d="M 9.421875 75.984375 
L 18.40625 75.984375 
L 18.40625 0 
L 9.421875 0 
z
" id="DejaVuSans-108"/>
       <path d="M 30.609375 48.390625 
Q 23.390625 48.390625 19.1875 42.75 
Q 14.984375 37.109375 14.984375 27.296875 
Q 14.984375 17.484375 19.15625 11.84375 
Q 23.34375 6.203125 30.609375 6.203125 
Q 37.796875 6.203125 41.984375 11.859375 
Q 46.1875 17.53125 46.1875 27.296875 
Q 46.1875 37.015625 41.984375 42.703125 
Q 37.796875 48.390625 30.609375 48.390625 
z
M 30.609375 56 
Q 42.328125 56 49.015625 48.375 
Q 55.71875 40.765625 55.71875 27.296875 
Q 55.71875 13.875 49.015625 6.21875 
Q 42.328125 -1.421875 30.609375 -1.421875 
Q 18.84375 -1.421875 12.171875 6.21875 
Q 5.515625 13.875 5.515625 27.296875 
Q 5.515625 40.765625 12.171875 48.375 
Q 18.84375 56 30.609375 56 
z
" id="DejaVuSans-111"/>
       <path d="M 45.40625 27.984375 
Q 45.40625 37.75 41.375 43.109375 
Q 37.359375 48.484375 30.078125 48.484375 
Q 22.859375 48.484375 18.828125 43.109375 
Q 14.796875 37.75 14.796875 27.984375 
Q 14.796875 18.265625 18.828125 12.890625 
Q 22.859375 7.515625 30.078125 7.515625 
Q 37.359375 7.515625 41.375 12.890625 
Q 45.40625 18.265625 45.40625 27.984375 
z
M 54.390625 6.78125 
Q 54.390625 -7.171875 48.1875 -13.984375 
Q 42 -20.796875 29.203125 -20.796875 
Q 24.46875 -20.796875 20.265625 -20.09375 
Q 16.0625 -19.390625 12.109375 -17.921875 
L 12.109375 -9.1875 
Q 16.0625 -11.328125 19.921875 -12.34375 
Q 23.78125 -13.375 27.78125 -13.375 
Q 36.625 -13.375 41.015625 -8.765625 
Q 45.40625 -4.15625 45.40625 5.171875 
L 45.40625 9.625 
Q 42.625 4.78125 38.28125 2.390625 
Q 33.9375 0 27.875 0 
Q 17.828125 0 11.671875 7.65625 
Q 5.515625 15.328125 5.515625 27.984375 
Q 5.515625 40.671875 11.671875 48.328125 
Q 17.828125 56 27.875 56 
Q 33.9375 56 38.28125 53.609375 
Q 42.625 51.21875 45.40625 46.390625 
L 45.40625 54.6875 
L 54.390625 54.6875 
z
" id="DejaVuSans-103"/>
       <path d="M 12.40625 8.296875 
L 28.515625 8.296875 
L 28.515625 63.921875 
L 10.984375 60.40625 
L 10.984375 69.390625 
L 28.421875 72.90625 
L 38.28125 72.90625 
L 38.28125 8.296875 
L 54.390625 8.296875 
L 54.390625 0 
L 12.40625 0 
z
" id="DejaVuSans-49"/>
       <path d="M 31 75.875 
Q 24.46875 64.65625 21.28125 53.65625 
Q 18.109375 42.671875 18.109375 31.390625 
Q 18.109375 20.125 21.3125 9.0625 
Q 24.515625 -2 31 -13.1875 
L 23.1875 -13.1875 
Q 15.875 -1.703125 12.234375 9.375 
Q 8.59375 20.453125 8.59375 31.390625 
Q 8.59375 42.28125 12.203125 53.3125 
Q 15.828125 64.359375 23.1875 75.875 
z
" id="DejaVuSans-40"/>
       <path d="M 56.203125 29.59375 
L 56.203125 25.203125 
L 14.890625 25.203125 
Q 15.484375 15.921875 20.484375 11.0625 
Q 25.484375 6.203125 34.421875 6.203125 
Q 39.59375 6.203125 44.453125 7.46875 
Q 49.3125 8.734375 54.109375 11.28125 
L 54.109375 2.78125 
Q 49.265625 0.734375 44.1875 -0.34375 
Q 39.109375 -1.421875 33.890625 -1.421875 
Q 20.796875 -1.421875 13.15625 6.1875 
Q 5.515625 13.8125 5.515625 26.8125 
Q 5.515625 40.234375 12.765625 48.109375 
Q 20.015625 56 32.328125 56 
Q 43.359375 56 49.78125 48.890625 
Q 56.203125 41.796875 56.203125 29.59375 
z
M 47.21875 32.234375 
Q 47.125 39.59375 43.09375 43.984375 
Q 39.0625 48.390625 32.421875 48.390625 
Q 24.90625 48.390625 20.390625 44.140625 
Q 15.875 39.890625 15.1875 32.171875 
z
" id="DejaVuSans-101"/>
       <path d="M 2.984375 54.6875 
L 12.5 54.6875 
L 29.59375 8.796875 
L 46.6875 54.6875 
L 56.203125 54.6875 
L 35.6875 0 
L 23.484375 0 
z
" id="DejaVuSans-118"/>
       <path d="M 34.28125 27.484375 
Q 23.390625 27.484375 19.1875 25 
Q 14.984375 22.515625 14.984375 16.5 
Q 14.984375 11.71875 18.140625 8.90625 
Q 21.296875 6.109375 26.703125 6.109375 
Q 34.1875 6.109375 38.703125 11.40625 
Q 43.21875 16.703125 43.21875 25.484375 
L 43.21875 27.484375 
z
M 52.203125 31.203125 
L 52.203125 0 
L 43.21875 0 
L 43.21875 8.296875 
Q 40.140625 3.328125 35.546875 0.953125 
Q 30.953125 -1.421875 24.3125 -1.421875 
Q 15.921875 -1.421875 10.953125 3.296875 
Q 6 8.015625 6 15.921875 
Q 6 25.140625 12.171875 29.828125 
Q 18.359375 34.515625 30.609375 34.515625 
L 43.21875 34.515625 
L 43.21875 35.40625 
Q 43.21875 41.609375 39.140625 45 
Q 35.0625 48.390625 27.6875 48.390625 
Q 23 48.390625 18.546875 47.265625 
Q 14.109375 46.140625 10.015625 43.890625 
L 10.015625 52.203125 
Q 14.9375 54.109375 19.578125 55.046875 
Q 24.21875 56 28.609375 56 
Q 40.484375 56 46.34375 49.84375 
Q 52.203125 43.703125 52.203125 31.203125 
z
" id="DejaVuSans-97"/>
       <path d="M 44.28125 53.078125 
L 44.28125 44.578125 
Q 40.484375 46.53125 36.375 47.5 
Q 32.28125 48.484375 27.875 48.484375 
Q 21.1875 48.484375 17.84375 46.4375 
Q 14.5 44.390625 14.5 40.28125 
Q 14.5 37.15625 16.890625 35.375 
Q 19.28125 33.59375 26.515625 31.984375 
L 29.59375 31.296875 
Q 39.15625 29.25 43.1875 25.515625 
Q 47.21875 21.78125 47.21875 15.09375 
Q 47.21875 7.46875 41.1875 3.015625 
Q 35.15625 -1.421875 24.609375 -1.421875 
Q 20.21875 -1.421875 15.453125 -0.5625 
Q 10.6875 0.296875 5.421875 2 
L 5.421875 11.28125 
Q 10.40625 8.6875 15.234375 7.390625 
Q 20.0625 6.109375 24.8125 6.109375 
Q 31.15625 6.109375 34.5625 8.28125 
Q 37.984375 10.453125 37.984375 14.40625 
Q 37.984375 18.0625 35.515625 20.015625 
Q 33.0625 21.96875 24.703125 23.78125 
L 21.578125 24.515625 
Q 13.234375 26.265625 9.515625 29.90625 
Q 5.8125 33.546875 5.8125 39.890625 
Q 5.8125 47.609375 11.28125 51.796875 
Q 16.75 56 26.8125 56 
Q 31.78125 56 36.171875 55.265625 
Q 40.578125 54.546875 44.28125 53.078125 
z
" id="DejaVuSans-115"/>
       <path id="DejaVuSans-32"/>
       <path d="M 25.390625 72.90625 
L 33.6875 72.90625 
L 8.296875 -9.28125 
L 0 -9.28125 
z
" id="DejaVuSans-47"/>
       <path d="M 45.40625 46.390625 
L 45.40625 75.984375 
L 54.390625 75.984375 
L 54.390625 0 
L 45.40625 0 
L 45.40625 8.203125 
Q 42.578125 3.328125 38.25 0.953125 
Q 33.9375 -1.421875 27.875 -1.421875 
Q 17.96875 -1.421875 11.734375 6.484375 
Q 5.515625 14.40625 5.515625 27.296875 
Q 5.515625 40.1875 11.734375 48.09375 
Q 17.96875 56 27.875 56 
Q 33.9375 56 38.25 53.625 
Q 42.578125 51.265625 45.40625 46.390625 
z
M 14.796875 27.296875 
Q 14.796875 17.390625 18.875 11.75 
Q 22.953125 6.109375 30.078125 6.109375 
Q 37.203125 6.109375 41.296875 11.75 
Q 45.40625 17.390625 45.40625 27.296875 
Q 45.40625 37.203125 41.296875 42.84375 
Q 37.203125 48.484375 30.078125 48.484375 
Q 22.953125 48.484375 18.875 42.84375 
Q 14.796875 37.203125 14.796875 27.296875 
z
" id="DejaVuSans-100"/>
       <path d="M 9.421875 54.6875 
L 18.40625 54.6875 
L 18.40625 0 
L 9.421875 0 
z
M 9.421875 75.984375 
L 18.40625 75.984375 
L 18.40625 64.59375 
L 9.421875 64.59375 
z
" id="DejaVuSans-105"/>
       <path d="M 52 44.1875 
Q 55.375 50.25 60.0625 53.125 
Q 64.75 56 71.09375 56 
Q 79.640625 56 84.28125 50.015625 
Q 88.921875 44.046875 88.921875 33.015625 
L 88.921875 0 
L 79.890625 0 
L 79.890625 32.71875 
Q 79.890625 40.578125 77.09375 44.375 
Q 74.3125 48.1875 68.609375 48.1875 
Q 61.625 48.1875 57.5625 43.546875 
Q 53.515625 38.921875 53.515625 30.90625 
L 53.515625 0 
L 44.484375 0 
L 44.484375 32.71875 
Q 44.484375 40.625 41.703125 44.40625 
Q 38.921875 48.1875 33.109375 48.1875 
Q 26.21875 48.1875 22.15625 43.53125 
Q 18.109375 38.875 18.109375 30.90625 
L 18.109375 0 
L 9.078125 0 
L 9.078125 54.6875 
L 18.109375 54.6875 
L 18.109375 46.1875 
Q 21.1875 51.21875 25.484375 53.609375 
Q 29.78125 56 35.6875 56 
Q 41.65625 56 45.828125 52.96875 
Q 50 49.953125 52 44.1875 
z
" id="DejaVuSans-109"/>
       <path d="M 54.890625 33.015625 
L 54.890625 0 
L 45.90625 0 
L 45.90625 32.71875 
Q 45.90625 40.484375 42.875 44.328125 
Q 39.84375 48.1875 33.796875 48.1875 
Q 26.515625 48.1875 22.3125 43.546875 
Q 18.109375 38.921875 18.109375 30.90625 
L 18.109375 0 
L 9.078125 0 
L 9.078125 54.6875 
L 18.109375 54.6875 
L 18.109375 46.1875 
Q 21.34375 51.125 25.703125 53.5625 
Q 30.078125 56 35.796875 56 
Q 45.21875 56 50.046875 50.171875 
Q 54.890625 44.34375 54.890625 33.015625 
z
" id="DejaVuSans-110"/>
       <path d="M 8.015625 75.875 
L 15.828125 75.875 
Q 23.140625 64.359375 26.78125 53.3125 
Q 30.421875 42.28125 30.421875 31.390625 
Q 30.421875 20.453125 26.78125 9.375 
Q 23.140625 -1.703125 15.828125 -13.1875 
L 8.015625 -13.1875 
Q 14.5 -2 17.703125 9.0625 
Q 20.90625 20.125 20.90625 31.390625 
Q 20.90625 42.671875 17.703125 53.65625 
Q 14.5 64.65625 8.015625 75.875 
z
" id="DejaVuSans-41"/>
      </defs>
      <use xlink:href="#DejaVuSans-108"/>
      <use x="27.783203" xlink:href="#DejaVuSans-111"/>
      <use x="88.964844" xlink:href="#DejaVuSans-103"/>
      <use x="152.441406" xlink:href="#DejaVuSans-49"/>
      <use x="216.064453" xlink:href="#DejaVuSans-48"/>
      <use x="279.6875" xlink:href="#DejaVuSans-40"/>
      <use x="318.701172" xlink:href="#DejaVuSans-101"/>
      <use x="380.224609" xlink:href="#DejaVuSans-118"/>
      <use x="439.404297" xlink:href="#DejaVuSans-97"/>
      <use x="500.683594" xlink:href="#DejaVuSans-108"/>
      <use x="528.466797" xlink:href="#DejaVuSans-115"/>
      <use x="580.566406" xlink:href="#DejaVuSans-32"/>
      <use x="612.353516" xlink:href="#DejaVuSans-47"/>
      <use x="646.044922" xlink:href="#DejaVuSans-32"/>
      <use x="677.832031" xlink:href="#DejaVuSans-100"/>
      <use x="741.308594" xlink:href="#DejaVuSans-105"/>
      <use x="769.091797" xlink:href="#DejaVuSans-109"/>
      <use x="866.503906" xlink:href="#DejaVuSans-101"/>
      <use x="928.027344" xlink:href="#DejaVuSans-110"/>
      <use x="991.40625" xlink:href="#DejaVuSans-115"/>
      <use x="1043.505859" xlink:href="#DejaVuSans-105"/>
      <use x="1071.289062" xlink:href="#DejaVuSans-111"/>
      <use x="1132.470703" xlink:href="#DejaVuSans-110"/>
      <use x="1195.849609" xlink:href="#DejaVuSans-41"/>
     </g>
    </g>
   </g>
   <g id="matplotlib.axis_2">
    <g id="ytick_1">
     <g id="line2d_17">
      <path clip-path="url(#p40cd42d36c)" d="M 57.6 298.944 
L 360.8064 298.944 
" style="fill:none;stroke:#b0b0b0;stroke-linecap:square;stroke-width:0.8;"/>
     </g>
     <g id="line2d_18">
      <defs>
       <path d="M 0 0 
L -3.5 0 
" id="me40f70e475" style="stroke:#000000;stroke-width:0.8;"/>
      </defs>
      <g>
       <use style="stroke:#000000;stroke-width:0.8;" x="57.6" xlink:href="#me40f70e475" y="298.944"/>
      </g>
     </g>
     <g id="text_6">
      <!-- 0.0 -->
      <g transform="translate(25.155 305.02275)scale(0.16 -0.16)">
       <defs>
        <path d="M 10.6875 12.40625 
L 21 12.40625 
L 21 0 
L 10.6875 0 
z
" id="DejaVuSans-46"/>
       </defs>
       <use xlink:href="#DejaVuSans-48"/>
       <use x="63.623047" xlink:href="#DejaVuSans-46"/>
       <use x="95.410156" xlink:href="#DejaVuSans-48"/>
      </g>
     </g>
    </g>
    <g id="ytick_2">
     <g id="line2d_19">
      <path clip-path="url(#p40cd42d36c)" d="M 57.6 244.6848 
L 360.8064 244.6848 
" style="fill:none;stroke:#b0b0b0;stroke-linecap:square;stroke-width:0.8;"/>
     </g>
     <g id="line2d_20">
      <g>
       <use style="stroke:#000000;stroke-width:0.8;" x="57.6" xlink:href="#me40f70e475" y="244.6848"/>
      </g>
     </g>
     <g id="text_7">
      <!-- 0.2 -->
      <g transform="translate(25.155 250.76355)scale(0.16 -0.16)">
       <use xlink:href="#DejaVuSans-48"/>
       <use x="63.623047" xlink:href="#DejaVuSans-46"/>
       <use x="95.410156" xlink:href="#DejaVuSans-50"/>
      </g>
     </g>
    </g>
    <g id="ytick_3">
     <g id="line2d_21">
      <path clip-path="url(#p40cd42d36c)" d="M 57.6 190.4256 
L 360.8064 190.4256 
" style="fill:none;stroke:#b0b0b0;stroke-linecap:square;stroke-width:0.8;"/>
     </g>
     <g id="line2d_22">
      <g>
       <use style="stroke:#000000;stroke-width:0.8;" x="57.6" xlink:href="#me40f70e475" y="190.4256"/>
      </g>
     </g>
     <g id="text_8">
      <!-- 0.4 -->
      <g transform="translate(25.155 196.50435)scale(0.16 -0.16)">
       <use xlink:href="#DejaVuSans-48"/>
       <use x="63.623047" xlink:href="#DejaVuSans-46"/>
       <use x="95.410156" xlink:href="#DejaVuSans-52"/>
      </g>
     </g>
    </g>
    <g id="ytick_4">
     <g id="line2d_23">
      <path clip-path="url(#p40cd42d36c)" d="M 57.6 136.1664 
L 360.8064 136.1664 
" style="fill:none;stroke:#b0b0b0;stroke-linecap:square;stroke-width:0.8;"/>
     </g>
     <g id="line2d_24">
      <g>
       <use style="stroke:#000000;stroke-width:0.8;" x="57.6" xlink:href="#me40f70e475" y="136.1664"/>
      </g>
     </g>
     <g id="text_9">
      <!-- 0.6 -->
      <g transform="translate(25.155 142.24515)scale(0.16 -0.16)">
       <use xlink:href="#DejaVuSans-48"/>
       <use x="63.623047" xlink:href="#DejaVuSans-46"/>
       <use x="95.410156" xlink:href="#DejaVuSans-54"/>
      </g>
     </g>
    </g>
    <g id="ytick_5">
     <g id="line2d_25">
      <path clip-path="url(#p40cd42d36c)" d="M 57.6 81.9072 
L 360.8064 81.9072 
" style="fill:none;stroke:#b0b0b0;stroke-linecap:square;stroke-width:0.8;"/>
     </g>
     <g id="line2d_26">
      <g>
       <use style="stroke:#000000;stroke-width:0.8;" x="57.6" xlink:href="#me40f70e475" y="81.9072"/>
      </g>
     </g>
     <g id="text_10">
      <!-- 0.8 -->
      <g transform="translate(25.155 87.98595)scale(0.16 -0.16)">
       <defs>
        <path d="M 31.78125 34.625 
Q 24.75 34.625 20.71875 30.859375 
Q 16.703125 27.09375 16.703125 20.515625 
Q 16.703125 13.921875 20.71875 10.15625 
Q 24.75 6.390625 31.78125 6.390625 
Q 38.8125 6.390625 42.859375 10.171875 
Q 46.921875 13.96875 46.921875 20.515625 
Q 46.921875 27.09375 42.890625 30.859375 
Q 38.875 34.625 31.78125 34.625 
z
M 21.921875 38.8125 
Q 15.578125 40.375 12.03125 44.71875 
Q 8.5 49.078125 8.5 55.328125 
Q 8.5 64.0625 14.71875 69.140625 
Q 20.953125 74.21875 31.78125 74.21875 
Q 42.671875 74.21875 48.875 69.140625 
Q 55.078125 64.0625 55.078125 55.328125 
Q 55.078125 49.078125 51.53125 44.71875 
Q 48 40.375 41.703125 38.8125 
Q 48.828125 37.15625 52.796875 32.3125 
Q 56.78125 27.484375 56.78125 20.515625 
Q 56.78125 9.90625 50.3125 4.234375 
Q 43.84375 -1.421875 31.78125 -1.421875 
Q 19.734375 -1.421875 13.25 4.234375 
Q 6.78125 9.90625 6.78125 20.515625 
Q 6.78125 27.484375 10.78125 32.3125 
Q 14.796875 37.15625 21.921875 38.8125 
z
M 18.3125 54.390625 
Q 18.3125 48.734375 21.84375 45.5625 
Q 25.390625 42.390625 31.78125 42.390625 
Q 38.140625 42.390625 41.71875 45.5625 
Q 45.3125 48.734375 45.3125 54.390625 
Q 45.3125 60.0625 41.71875 63.234375 
Q 38.140625 66.40625 31.78125 66.40625 
Q 25.390625 66.40625 21.84375 63.234375 
Q 18.3125 60.0625 18.3125 54.390625 
z
" id="DejaVuSans-56"/>
       </defs>
       <use xlink:href="#DejaVuSans-48"/>
       <use x="63.623047" xlink:href="#DejaVuSans-46"/>
       <use x="95.410156" xlink:href="#DejaVuSans-56"/>
      </g>
     </g>
    </g>
    <g id="ytick_6">
     <g id="line2d_27">
      <path clip-path="url(#p40cd42d36c)" d="M 57.6 27.648 
L 360.8064 27.648 
" style="fill:none;stroke:#b0b0b0;stroke-linecap:square;stroke-width:0.8;"/>
     </g>
     <g id="line2d_28">
      <g>
       <use style="stroke:#000000;stroke-width:0.8;" x="57.6" xlink:href="#me40f70e475" y="27.648"/>
      </g>
     </g>
     <g id="text_11">
      <!-- 1.0 -->
      <g transform="translate(25.155 33.72675)scale(0.16 -0.16)">
       <use xlink:href="#DejaVuSans-49"/>
       <use x="63.623047" xlink:href="#DejaVuSans-46"/>
       <use x="95.410156" xlink:href="#DejaVuSans-48"/>
      </g>
     </g>
    </g>
    <g id="text_12">
     <!-- Fraction of function,target pairs -->
     <g transform="translate(17.619531 297.681)rotate(-90)scale(0.17 -0.17)">
      <defs>
       <path d="M 9.8125 72.90625 
L 51.703125 72.90625 
L 51.703125 64.59375 
L 19.671875 64.59375 
L 19.671875 43.109375 
L 48.578125 43.109375 
L 48.578125 34.8125 
L 19.671875 34.8125 
L 19.671875 0 
L 9.8125 0 
z
" id="DejaVuSans-70"/>
       <path d="M 41.109375 46.296875 
Q 39.59375 47.171875 37.8125 47.578125 
Q 36.03125 48 33.890625 48 
Q 26.265625 48 22.1875 43.046875 
Q 18.109375 38.09375 18.109375 28.8125 
L 18.109375 0 
L 9.078125 0 
L 9.078125 54.6875 
L 18.109375 54.6875 
L 18.109375 46.1875 
Q 20.953125 51.171875 25.484375 53.578125 
Q 30.03125 56 36.53125 56 
Q 37.453125 56 38.578125 55.875 
Q 39.703125 55.765625 41.0625 55.515625 
z
" id="DejaVuSans-114"/>
       <path d="M 48.78125 52.59375 
L 48.78125 44.1875 
Q 44.96875 46.296875 41.140625 47.34375 
Q 37.3125 48.390625 33.40625 48.390625 
Q 24.65625 48.390625 19.8125 42.84375 
Q 14.984375 37.3125 14.984375 27.296875 
Q 14.984375 17.28125 19.8125 11.734375 
Q 24.65625 6.203125 33.40625 6.203125 
Q 37.3125 6.203125 41.140625 7.25 
Q 44.96875 8.296875 48.78125 10.40625 
L 48.78125 2.09375 
Q 45.015625 0.34375 40.984375 -0.53125 
Q 36.96875 -1.421875 32.421875 -1.421875 
Q 20.0625 -1.421875 12.78125 6.34375 
Q 5.515625 14.109375 5.515625 27.296875 
Q 5.515625 40.671875 12.859375 48.328125 
Q 20.21875 56 33.015625 56 
Q 37.15625 56 41.109375 55.140625 
Q 45.0625 54.296875 48.78125 52.59375 
z
" id="DejaVuSans-99"/>
       <path d="M 18.3125 70.21875 
L 18.3125 54.6875 
L 36.8125 54.6875 
L 36.8125 47.703125 
L 18.3125 47.703125 
L 18.3125 18.015625 
Q 18.3125 11.328125 20.140625 9.421875 
Q 21.96875 7.515625 27.59375 7.515625 
L 36.8125 7.515625 
L 36.8125 0 
L 27.59375 0 
Q 17.1875 0 13.234375 3.875 
Q 9.28125 7.765625 9.28125 18.015625 
L 9.28125 47.703125 
L 2.6875 47.703125 
L 2.6875 54.6875 
L 9.28125 54.6875 
L 9.28125 70.21875 
z
" id="DejaVuSans-116"/>
       <path d="M 37.109375 75.984375 
L 37.109375 68.5 
L 28.515625 68.5 
Q 23.6875 68.5 21.796875 66.546875 
Q 19.921875 64.59375 19.921875 59.515625 
L 19.921875 54.6875 
L 34.71875 54.6875 
L 34.71875 47.703125 
L 19.921875 47.703125 
L 19.921875 0 
L 10.890625 0 
L 10.890625 47.703125 
L 2.296875 47.703125 
L 2.296875 54.6875 
L 10.890625 54.6875 
L 10.890625 58.5 
Q 10.890625 67.625 15.140625 71.796875 
Q 19.390625 75.984375 28.609375 75.984375 
z
" id="DejaVuSans-102"/>
       <path d="M 8.5 21.578125 
L 8.5 54.6875 
L 17.484375 54.6875 
L 17.484375 21.921875 
Q 17.484375 14.15625 20.5 10.265625 
Q 23.53125 6.390625 29.59375 6.390625 
Q 36.859375 6.390625 41.078125 11.03125 
Q 45.3125 15.671875 45.3125 23.6875 
L 45.3125 54.6875 
L 54.296875 54.6875 
L 54.296875 0 
L 45.3125 0 
L 45.3125 8.40625 
Q 42.046875 3.421875 37.71875 1 
Q 33.40625 -1.421875 27.6875 -1.421875 
Q 18.265625 -1.421875 13.375 4.4375 
Q 8.5 10.296875 8.5 21.578125 
z
M 31.109375 56 
z
" id="DejaVuSans-117"/>
       <path d="M 11.71875 12.40625 
L 22.015625 12.40625 
L 22.015625 4 
L 14.015625 -11.625 
L 7.71875 -11.625 
L 11.71875 4 
z
" id="DejaVuSans-44"/>
       <path d="M 18.109375 8.203125 
L 18.109375 -20.796875 
L 9.078125 -20.796875 
L 9.078125 54.6875 
L 18.109375 54.6875 
L 18.109375 46.390625 
Q 20.953125 51.265625 25.265625 53.625 
Q 29.59375 56 35.59375 56 
Q 45.5625 56 51.78125 48.09375 
Q 58.015625 40.1875 58.015625 27.296875 
Q 58.015625 14.40625 51.78125 6.484375 
Q 45.5625 -1.421875 35.59375 -1.421875 
Q 29.59375 -1.421875 25.265625 0.953125 
Q 20.953125 3.328125 18.109375 8.203125 
z
M 48.6875 27.296875 
Q 48.6875 37.203125 44.609375 42.84375 
Q 40.53125 48.484375 33.40625 48.484375 
Q 26.265625 48.484375 22.1875 42.84375 
Q 18.109375 37.203125 18.109375 27.296875 
Q 18.109375 17.390625 22.1875 11.75 
Q 26.265625 6.109375 33.40625 6.109375 
Q 40.53125 6.109375 44.609375 11.75 
Q 48.6875 17.390625 48.6875 27.296875 
z
" id="DejaVuSans-112"/>
      </defs>
      <use xlink:href="#DejaVuSans-70"/>
      <use x="50.269531" xlink:href="#DejaVuSans-114"/>
      <use x="91.382812" xlink:href="#DejaVuSans-97"/>
      <use x="152.662109" xlink:href="#DejaVuSans-99"/>
      <use x="207.642578" xlink:href="#DejaVuSans-116"/>
      <use x="246.851562" xlink:href="#DejaVuSans-105"/>
      <use x="274.634766" xlink:href="#DejaVuSans-111"/>
      <use x="335.816406" xlink:href="#DejaVuSans-110"/>
      <use x="399.195312" xlink:href="#DejaVuSans-32"/>
      <use x="430.982422" xlink:href="#DejaVuSans-111"/>
      <use x="492.164062" xlink:href="#DejaVuSans-102"/>
      <use x="527.369141" xlink:href="#DejaVuSans-32"/>
      <use x="559.15625" xlink:href="#DejaVuSans-102"/>
      <use x="594.361328" xlink:href="#DejaVuSans-117"/>
      <use x="657.740234" xlink:href="#DejaVuSans-110"/>
      <use x="721.119141" xlink:href="#DejaVuSans-99"/>
      <use x="776.099609" xlink:href="#DejaVuSans-116"/>
      <use x="815.308594" xlink:href="#DejaVuSans-105"/>
      <use x="843.091797" xlink:href="#DejaVuSans-111"/>
      <use x="904.273438" xlink:href="#DejaVuSans-110"/>
      <use x="967.652344" xlink:href="#DejaVuSans-44"/>
      <use x="999.439453" xlink:href="#DejaVuSans-116"/>
      <use x="1038.648438" xlink:href="#DejaVuSans-97"/>
      <use x="1099.927734" xlink:href="#DejaVuSans-114"/>
      <use x="1139.291016" xlink:href="#DejaVuSans-103"/>
      <use x="1202.767578" xlink:href="#DejaVuSans-101"/>
      <use x="1264.291016" xlink:href="#DejaVuSans-116"/>
      <use x="1303.5" xlink:href="#DejaVuSans-32"/>
      <use x="1335.287109" xlink:href="#DejaVuSans-112"/>
      <use x="1398.763672" xlink:href="#DejaVuSans-97"/>
      <use x="1460.042969" xlink:href="#DejaVuSans-105"/>
      <use x="1487.826172" xlink:href="#DejaVuSans-114"/>
      <use x="1528.939453" xlink:href="#DejaVuSans-115"/>
     </g>
    </g>
   </g>
   <g id="line2d_29">
    <defs>
     <path d="M 0 1.5 
C 0.397805 1.5 0.77937 1.341951 1.06066 1.06066 
C 1.341951 0.77937 1.5 0.397805 1.5 0 
C 1.5 -0.397805 1.341951 -0.77937 1.06066 -1.06066 
C 0.77937 -1.341951 0.397805 -1.5 0 -1.5 
C -0.397805 -1.5 -0.77937 -1.341951 -1.06066 -1.06066 
C -1.341951 -0.77937 -1.5 -0.397805 -1.5 0 
C -1.5 0.397805 -1.341951 0.77937 -1.06066 1.06066 
C -0.77937 1.341951 -0.397805 1.5 0 1.5 
z
" id="m6b4852f6ed" style="stroke:#00bfbf;"/>
    </defs>
    <g>
     <use style="fill:#00bfbf;stroke:#00bfbf;" x="192.796765" xlink:href="#m6b4852f6ed" y="27.648"/>
     <use style="fill:#00bfbf;stroke:#00bfbf;" x="192.796765" xlink:href="#m6b4852f6ed" y="27.648"/>
    </g>
   </g>
   <g id="line2d_30">
    <path d="M 92.811505 298.944 
L 92.811505 298.502868 
L 100.9152 298.502868 
L 100.9152 297.620605 
L 104.344952 297.620605 
L 104.344952 297.179473 
L 105.112877 297.179473 
L 105.112877 294.973815 
L 106.560633 294.973815 
L 106.560633 292.768156 
L 110.897141 292.768156 
L 110.897141 290.121366 
L 113.478107 290.121366 
L 113.478107 289.680234 
L 114.418881 289.680234 
L 114.418881 287.474576 
L 116.583514 287.474576 
L 116.583514 286.592312 
L 117.384126 286.592312 
L 117.384126 281.298732 
L 119.944983 281.298732 
L 119.944983 275.56402 
L 121.265635 275.56402 
L 121.265635 272.917229 
L 123.936316 272.917229 
L 123.936316 272.476098 
L 124.210942 272.476098 
L 124.210942 268.505912 
L 127.686077 268.505912 
L 127.686077 261.447805 
L 128.133992 261.447805 
L 128.133992 260.565541 
L 128.999044 260.565541 
L 128.999044 260.12441 
L 129.622688 260.12441 
L 129.622688 258.801015 
L 131.002163 258.801015 
L 131.002163 258.359883 
L 131.378407 258.359883 
L 131.378407 257.918751 
L 131.747272 257.918751 
L 131.747272 254.830829 
L 132.109044 254.830829 
L 132.109044 254.389698 
L 134.463557 254.389698 
L 134.463557 252.625171 
L 135.538796 252.625171 
L 135.538796 245.567063 
L 138.692823 245.567063 
L 138.692823 245.125932 
L 140.382174 245.125932 
L 140.382174 244.6848 
L 140.838234 244.6848 
L 140.838234 242.920273 
L 141.173167 242.920273 
L 141.173167 241.596878 
L 141.932237 241.596878 
L 141.932237 238.950088 
L 143.364242 238.950088 
L 143.364242 236.744429 
L 144.041338 236.744429 
L 144.041338 235.862166 
L 144.694906 235.862166 
L 144.694906 234.538771 
L 145.326529 234.538771 
L 145.326529 231.450849 
L 145.851536 231.450849 
L 145.93763 228.804059 
L 146.529503 228.804059 
L 146.529503 224.833873 
L 147.103321 224.833873 
L 147.103321 224.392741 
L 147.660152 224.392741 
L 147.660152 220.422556 
L 148.726679 220.422556 
L 148.726679 218.216898 
L 149.595059 218.216898 
L 149.595059 216.452371 
L 149.73597 216.452371 
L 149.73597 215.128976 
L 149.875833 215.128976 
L 149.875833 212.482185 
L 150.8268 212.482185 
L 150.8268 209.835395 
L 151.284843 209.835395 
L 151.284843 202.336156 
L 151.731998 202.336156 
L 151.731998 194.836917 
L 152.16877 194.836917 
L 152.16877 191.307863 
L 152.352898 191.307863 
L 152.352898 190.866732 
L 152.595631 190.866732 
L 152.595631 185.573151 
L 152.715833 185.573151 
L 152.715833 182.485229 
L 153.01302 182.485229 
L 153.01302 179.397307 
L 153.130592 179.397307 
L 153.130592 173.221463 
L 153.421349 173.221463 
L 153.421349 171.015805 
L 153.650761 171.015805 
L 153.650761 167.486751 
L 154.156931 167.486751 
L 154.212341 163.957698 
L 154.322673 163.957698 
L 154.432362 161.310907 
L 154.541415 161.310907 
L 154.595705 160.428644 
L 154.811312 160.428644 
L 154.918196 153.370537 
L 154.971412 153.370537 
L 154.971412 152.929405 
L 155.18278 152.929405 
L 155.28758 150.723746 
L 155.443693 150.723746 
L 155.547053 146.753561 
L 155.649849 146.753561 
L 155.701037 141.018849 
L 155.802997 141.018849 
L 155.904407 135.725268 
L 156.255099 135.725268 
L 156.255099 133.960741 
L 156.501649 133.960741 
L 156.599372 129.108293 
L 156.84148 129.108293 
L 156.937458 126.461502 
L 157.269574 126.461502 
L 157.269574 124.255844 
L 157.595929 124.255844 
L 157.595929 120.72679 
L 159.019705 120.72679 
L 159.019705 117.197737 
L 164.194282 117.197737 
L 164.194282 116.756605 
L 164.420735 116.756605 
L 164.420735 108.375102 
L 164.70794 108.375102 
L 164.70794 107.933971 
L 164.928329 107.933971 
L 164.928329 107.051707 
L 165.574415 107.051707 
L 165.574415 100.875863 
L 166.052194 100.875863 
L 166.052194 99.111337 
L 166.257466 99.111337 
L 166.257466 98.670205 
L 166.518139 98.670205 
L 166.518139 97.787941 
L 166.718416 97.787941 
L 166.718416 95.141151 
L 167.112684 95.141151 
L 167.112684 88.965307 
L 167.957371 88.965307 
L 168.063651 88.083044 
L 168.195663 88.083044 
L 168.300609 85.436254 
L 168.378936 85.436254 
L 168.378936 81.9072 
L 168.816733 81.9072 
L 168.816733 78.819278 
L 169.219673 78.819278 
L 169.219673 77.054751 
L 169.393282 77.054751 
L 169.393282 75.731356 
L 169.565302 75.731356 
L 169.565302 74.849093 
L 169.904695 74.849093 
L 169.904695 70.878907 
L 171.427048 70.878907 
L 171.427048 68.673249 
L 171.625414 68.673249 
L 171.625414 68.232117 
L 171.972982 68.232117 
L 172.015979 65.144195 
L 172.123046 65.144195 
L 172.123046 63.8208 
L 180.687602 63.8208 
L 180.687602 60.732878 
L 180.969881 60.732878 
L 181.063041 58.086088 
L 181.155741 58.086088 
L 181.155741 56.762693 
L 181.339783 56.762693 
L 181.339783 53.233639 
L 181.612513 53.233639 
L 181.702552 49.263454 
L 181.792161 49.263454 
L 181.881346 45.7344 
L 188.949761 45.7344 
L 189.028161 44.852137 
L 189.14947 44.852137 
L 189.235643 37.794029 
L 189.32998 37.794029 
L 189.406814 28.971395 
L 189.508774 28.971395 
L 189.508774 28.530263 
L 192.796765 28.530263 
L 192.796765 27.648 
L 360.8064 27.648 
L 360.8064 27.648 
" style="fill:none;stroke:#00bfbf;stroke-linecap:square;stroke-width:1.5;"/>
   </g>
   <g id="line2d_31">
    <defs>
     <path d="M -6 0 
L 6 0 
M 0 6 
L 0 -6 
" id="m49cf7c3c08" style="stroke:#00bfbf;stroke-width:1.5;"/>
    </defs>
    <g>
     <use style="fill-opacity:0;stroke:#00bfbf;stroke-width:1.5;" x="155.547053" xlink:href="#m49cf7c3c08" y="146.753561"/>
     <use style="fill-opacity:0;stroke:#00bfbf;stroke-width:1.5;" x="172.123046" xlink:href="#m49cf7c3c08" y="65.144195"/>
     <use style="fill-opacity:0;stroke:#00bfbf;stroke-width:1.5;" x="192.796765" xlink:href="#m49cf7c3c08" y="27.648"/>
     <use style="fill-opacity:0;stroke:#00bfbf;stroke-width:1.5;" x="192.796765" xlink:href="#m49cf7c3c08" y="27.648"/>
     <use style="fill-opacity:0;stroke:#00bfbf;stroke-width:1.5;" x="360.8064" xlink:href="#m49cf7c3c08" y="27.648"/>
    </g>
   </g>
   <g id="line2d_32">
    <path style="fill:none;stroke:#00bfbf;stroke-linecap:square;stroke-width:1.5;"/>
    <g/>
   </g>
   <g id="line2d_33">
    <defs>
     <path d="M 0 1.5 
C 0.397805 1.5 0.77937 1.341951 1.06066 1.06066 
C 1.341951 0.77937 1.5 0.397805 1.5 0 
C 1.5 -0.397805 1.341951 -0.77937 1.06066 -1.06066 
C 0.77937 -1.341951 0.397805 -1.5 0 -1.5 
C -0.397805 -1.5 -0.77937 -1.341951 -1.06066 -1.06066 
C -1.341951 -0.77937 -1.5 -0.397805 -1.5 0 
C -1.5 0.397805 -1.341951 0.77937 -1.06066 1.06066 
C -0.77937 1.341951 -0.397805 1.5 0 1.5 
z
" id="m15fed7a202" style="stroke:#008000;"/>
    </defs>
    <g>
     <use style="fill:#008000;stroke:#008000;" x="206.295123" xlink:href="#m15fed7a202" y="27.648"/>
     <use style="fill:#008000;stroke:#008000;" x="206.295123" xlink:href="#m15fed7a202" y="27.648"/>
    </g>
   </g>
   <g id="line2d_34">
    <path d="M 87.876026 298.944 
L 87.876026 298.502868 
L 96.717523 298.502868 
L 96.717523 297.179473 
L 99.617337 297.179473 
L 99.617337 296.738341 
L 101.532027 296.738341 
L 101.532027 294.532683 
L 103.815014 294.532683 
L 103.815014 293.209288 
L 108.119879 293.209288 
L 108.119879 291.885893 
L 110.897141 291.885893 
L 110.897141 291.444761 
L 111.620752 291.444761 
L 111.620752 289.239102 
L 113.316634 289.239102 
L 113.316634 287.915707 
L 113.954374 287.915707 
L 113.954374 287.033444 
L 114.571202 287.033444 
L 114.571202 285.710049 
L 116.583514 285.710049 
L 116.583514 281.298732 
L 117.121023 281.298732 
L 117.121023 279.093073 
L 118.889854 279.093073 
L 118.889854 276.446283 
L 119.366121 276.446283 
L 119.366121 275.56402 
L 120.944062 275.56402 
L 120.944062 272.034966 
L 122.795872 272.034966 
L 122.795872 270.711571 
L 123.183753 270.711571 
L 123.183753 268.947044 
L 123.563797 268.947044 
L 123.563797 266.741385 
L 124.836562 266.741385 
L 124.836562 252.625171 
L 125.184934 252.625171 
L 125.184934 251.301776 
L 126.355808 251.301776 
L 126.355808 246.008195 
L 126.993549 246.008195 
L 126.993549 245.567063 
L 129.758512 245.567063 
L 129.758512 243.361405 
L 130.938718 243.361405 
L 130.938718 241.155746 
L 131.563744 241.155746 
L 131.563744 239.832351 
L 132.287354 239.832351 
L 132.287354 238.950088 
L 132.869802 238.950088 
L 132.869802 238.508956 
L 134.091039 238.508956 
L 134.091039 237.626693 
L 134.304809 237.626693 
L 134.304809 237.185561 
L 134.725196 237.185561 
L 134.725196 235.421034 
L 135.034434 235.421034 
L 135.034434 234.538771 
L 135.932769 234.538771 
L 135.932769 233.215376 
L 136.126705 233.215376 
L 136.126705 232.333112 
L 136.508678 232.333112 
L 136.508678 231.450849 
L 137.159019 231.450849 
L 137.159019 230.568585 
L 137.340774 230.568585 
L 137.340774 225.716137 
L 137.787626 225.716137 
L 137.787626 223.069346 
L 138.137618 223.069346 
L 138.137618 220.422556 
L 138.566146 220.422556 
L 138.566146 217.334634 
L 138.902075 217.334634 
L 138.902075 214.687844 
L 139.636676 214.687844 
L 139.636676 206.747473 
L 139.796097 206.747473 
L 139.796097 205.86521 
L 140.032723 205.86521 
L 140.032723 205.424078 
L 140.343665 205.424078 
L 140.343665 204.982946 
L 140.649551 204.982946 
L 140.725251 200.130498 
L 141.393187 200.130498 
L 141.393187 198.807102 
L 143.977892 198.807102 
L 143.977892 197.483707 
L 144.664294 197.483707 
L 144.664294 196.601444 
L 145.207843 196.601444 
L 145.207843 194.395785 
L 145.620007 194.395785 
L 145.620007 193.513522 
L 145.851536 193.513522 
L 145.851536 191.748995 
L 146.023332 191.748995 
L 146.023332 185.13202 
L 146.24998 185.13202 
L 146.24998 184.690888 
L 146.362288 184.690888 
L 146.362288 182.485229 
L 146.64016 182.485229 
L 146.64016 182.044098 
L 147.712333 182.044098 
L 147.712333 181.602966 
L 147.919625 181.602966 
L 147.919625 181.161834 
L 148.124658 181.161834 
L 148.175569 174.103727 
L 148.478174 174.103727 
L 148.57797 171.015805 
L 148.627671 171.015805 
L 148.627671 168.810146 
L 149.020615 168.810146 
L 149.117582 163.957698 
L 149.214052 163.957698 
L 149.214052 162.634302 
L 149.875833 162.634302 
L 149.875833 160.428644 
L 150.014665 160.428644 
L 150.014665 159.987512 
L 151.306379 159.987512 
L 151.306379 158.664117 
L 151.562904 158.664117 
L 151.562904 157.781854 
L 151.689867 157.781854 
L 151.689867 156.458459 
L 151.94125 156.458459 
L 151.982822 148.95922 
L 152.065693 148.95922 
L 152.065693 144.547902 
L 152.312136 144.547902 
L 152.352898 142.342244 
L 152.874916 142.342244 
L 152.874916 141.45998 
L 153.111048 141.45998 
L 153.111048 141.018849 
L 153.764426 141.018849 
L 153.764426 140.577717 
L 154.101358 140.577717 
L 154.101358 134.401873 
L 154.468783 134.401873 
L 154.468783 133.078478 
L 154.721776 133.078478 
L 154.721776 131.313951 
L 154.935952 131.313951 
L 154.935952 130.87282 
L 155.18278 130.87282 
L 155.18278 130.431688 
L 155.322384 130.431688 
L 155.391799 127.784898 
L 155.495444 127.784898 
L 155.495444 126.020371 
L 155.632755 126.020371 
L 155.701037 120.285659 
L 155.938089 120.285659 
L 155.938089 117.638868 
L 156.304668 117.638868 
L 156.304668 116.756605 
L 157.642093 116.756605 
L 157.642093 113.668683 
L 157.764644 113.668683 
L 157.764644 113.227551 
L 158.0375 113.227551 
L 158.0375 108.375102 
L 161.937874 108.375102 
L 161.937874 107.933971 
L 162.420867 107.933971 
L 162.420867 107.492839 
L 162.634233 107.492839 
L 162.634233 107.051707 
L 163.145827 107.051707 
L 163.145827 106.610576 
L 164.194282 106.610576 
L 164.194282 105.28718 
L 165.146166 105.28718 
L 165.146166 104.846049 
L 166.091467 104.846049 
L 166.091467 104.404917 
L 166.267186 104.404917 
L 166.267186 103.963785 
L 166.441278 103.963785 
L 166.441278 95.141151 
L 167.01022 95.141151 
L 167.01022 94.258888 
L 167.121972 94.258888 
L 167.121972 91.170966 
L 167.288365 91.170966 
L 167.343504 86.759649 
L 167.507957 86.759649 
L 167.544308 84.55399 
L 168.221954 84.55399 
L 168.221954 83.230595 
L 168.534619 83.230595 
L 168.534619 82.789463 
L 168.689024 82.789463 
L 168.689024 82.348332 
L 168.842171 82.348332 
L 168.842171 80.142673 
L 169.606029 80.142673 
L 169.606029 78.819278 
L 170.788543 78.819278 
L 170.788543 78.378146 
L 171.463941 78.378146 
L 171.463941 77.937015 
L 172.510491 77.937015 
L 172.510491 77.495883 
L 173.369117 77.495883 
L 173.369117 75.731356 
L 175.376408 75.731356 
L 175.424244 70.878907 
L 175.673408 70.878907 
L 175.77919 66.908722 
L 175.802616 66.908722 
L 175.907676 64.703063 
L 176.012153 64.703063 
L 176.012153 62.497405 
L 176.139064 62.497405 
L 176.242267 60.732878 
L 176.344907 60.732878 
L 176.446989 58.52722 
L 176.503464 58.52722 
L 176.593471 54.115902 
L 176.649508 54.115902 
L 176.649508 50.145717 
L 176.971271 50.145717 
L 176.971271 49.704585 
L 180.692116 49.704585 
L 180.692116 46.616663 
L 181.014301 46.616663 
L 181.093992 42.646478 
L 181.190936 42.646478 
L 181.287383 38.676293 
L 182.465343 38.676293 
L 182.555488 36.911766 
L 182.645203 36.911766 
L 182.645203 34.264976 
L 182.983869 34.264976 
L 182.983869 33.382712 
L 183.158861 33.382712 
L 183.158861 31.618185 
L 185.268681 31.618185 
L 185.268681 30.735922 
L 185.388613 30.735922 
L 185.451798 28.089132 
L 206.295123 28.089132 
L 206.295123 27.648 
L 360.8064 27.648 
L 360.8064 27.648 
" style="fill:none;stroke:#008000;stroke-linecap:square;stroke-width:1.5;"/>
   </g>
   <g id="line2d_35">
    <defs>
     <path d="M -0 6 
L 6 -6 
L -6 -6 
z
" id="mb4d90dc4e2" style="stroke:#008000;stroke-linejoin:miter;stroke-width:1.5;"/>
    </defs>
    <g>
     <use style="fill-opacity:0;stroke:#008000;stroke-linejoin:miter;stroke-width:1.5;" x="141.393187" xlink:href="#mb4d90dc4e2" y="198.807102"/>
     <use style="fill-opacity:0;stroke:#008000;stroke-linejoin:miter;stroke-width:1.5;" x="173.369117" xlink:href="#mb4d90dc4e2" y="75.731356"/>
     <use style="fill-opacity:0;stroke:#008000;stroke-linejoin:miter;stroke-width:1.5;" x="206.295123" xlink:href="#mb4d90dc4e2" y="27.648"/>
     <use style="fill-opacity:0;stroke:#008000;stroke-linejoin:miter;stroke-width:1.5;" x="206.295123" xlink:href="#mb4d90dc4e2" y="27.648"/>
     <use style="fill-opacity:0;stroke:#008000;stroke-linejoin:miter;stroke-width:1.5;" x="360.8064" xlink:href="#mb4d90dc4e2" y="27.648"/>
    </g>
   </g>
   <g id="line2d_36">
    <path style="fill:none;stroke:#008000;stroke-linecap:square;stroke-width:1.5;"/>
    <g/>
   </g>
   <g id="line2d_37">
    <defs>
     <path d="M 0 1.5 
C 0.397805 1.5 0.77937 1.341951 1.06066 1.06066 
C 1.341951 0.77937 1.5 0.397805 1.5 0 
C 1.5 -0.397805 1.341951 -0.77937 1.06066 -1.06066 
C 0.77937 -1.341951 0.397805 -1.5 0 -1.5 
C -0.397805 -1.5 -0.77937 -1.341951 -1.06066 -1.06066 
C -1.341951 -0.77937 -1.5 -0.397805 -1.5 0 
C -1.5 0.397805 -1.341951 0.77937 -1.06066 1.06066 
C -0.77937 1.341951 -0.397805 1.5 0 1.5 
z
" id="mdfdc74e7fa" style="stroke:#0000ff;"/>
    </defs>
    <g>
     <use style="fill:#0000ff;stroke:#0000ff;" x="229.913707" xlink:href="#mdfdc74e7fa" y="27.648"/>
     <use style="fill:#0000ff;stroke:#0000ff;" x="229.913707" xlink:href="#mdfdc74e7fa" y="27.648"/>
    </g>
   </g>
   <g id="line2d_38">
    <path d="M 105.559021 298.944 
L 105.559021 298.061737 
L 113.381389 298.061737 
L 113.381389 297.179473 
L 116.086263 297.179473 
L 116.086263 296.738341 
L 116.419219 296.738341 
L 116.419219 296.29721 
L 117.067958 296.29721 
L 117.067958 295.414946 
L 118.152051 295.414946 
L 118.152051 294.091551 
L 119.034004 294.091551 
L 119.034004 293.65042 
L 119.319033 293.65042 
L 119.319033 291.885893 
L 119.599808 291.885893 
L 119.599808 289.680234 
L 120.013265 289.680234 
L 120.013265 288.797971 
L 121.073351 288.797971 
L 121.073351 287.474576 
L 121.329295 287.474576 
L 121.329295 287.033444 
L 121.706797 287.033444 
L 121.706797 281.739863 
L 122.677931 281.739863 
L 122.677931 279.534205 
L 122.913079 279.534205 
L 122.913079 275.122888 
L 124.156336 275.122888 
L 124.156336 272.917229 
L 124.373813 272.917229 
L 124.373813 270.711571 
L 124.588805 270.711571 
L 124.695386 267.182517 
L 124.906754 267.182517 
L 124.906754 266.300254 
L 125.526971 266.300254 
L 125.526971 264.976859 
L 126.028642 264.976859 
L 126.028642 262.330068 
L 126.804487 262.330068 
L 126.804487 261.888937 
L 126.993549 261.888937 
L 126.993549 261.447805 
L 127.273627 261.447805 
L 127.366067 255.713093 
L 128.178203 255.713093 
L 128.178203 253.948566 
L 128.441306 253.948566 
L 128.441306 252.625171 
L 129.292652 252.625171 
L 129.292652 250.860644 
L 130.501519 250.860644 
L 130.501519 250.419512 
L 130.964122 250.419512 
L 130.964122 246.449327 
L 131.489828 246.449327 
L 131.489828 244.6848 
L 131.71071 244.6848 
L 131.71071 244.243668 
L 131.929028 244.243668 
L 131.929028 241.155746 
L 132.428795 241.155746 
L 132.428795 239.39122 
L 132.638982 239.39122 
L 132.638982 238.950088 
L 132.846847 238.950088 
L 132.846847 236.303298 
L 133.323114 236.303298 
L 133.323114 234.097639 
L 133.72196 234.097639 
L 133.72196 233.215376 
L 136.126705 233.215376 
L 136.126705 232.774244 
L 136.584151 232.774244 
L 136.584151 231.450849 
L 137.304564 231.450849 
L 137.304564 231.009717 
L 138.10291 231.009717 
L 138.10291 228.804059 
L 138.868751 228.804059 
L 138.868751 227.921795 
L 141.261484 227.921795 
L 141.261484 227.480663 
L 141.953481 227.480663 
L 141.953481 226.157268 
L 143.540694 226.157268 
L 143.540694 224.833873 
L 144.041338 224.833873 
L 144.117191 221.30482 
L 144.676545 221.30482 
L 144.676545 220.863688 
L 145.076419 220.863688 
L 145.076419 219.540293 
L 145.255407 219.540293 
L 145.255407 219.099161 
L 145.538293 219.099161 
L 145.538293 217.775766 
L 145.712961 217.775766 
L 145.712961 217.334634 
L 145.989098 217.334634 
L 145.989098 216.452371 
L 146.429353 216.452371 
L 146.429353 215.570107 
L 146.892226 215.570107 
L 146.892226 212.041054 
L 147.722752 212.041054 
L 147.722752 208.953132 
L 148.518156 208.953132 
L 148.518156 207.629737 
L 148.903591 207.629737 
L 148.903591 206.747473 
L 149.281288 206.747473 
L 149.367382 204.982946 
L 149.510002 204.982946 
L 149.510002 201.895024 
L 149.65155 201.895024 
L 149.65155 199.689366 
L 151.681429 199.689366 
L 151.681429 199.248234 
L 152.007722 199.248234 
L 152.007722 197.924839 
L 152.328451 197.924839 
L 152.377312 196.160312 
L 152.691854 196.160312 
L 152.691854 194.395785 
L 153.001222 194.395785 
L 153.001222 192.631259 
L 153.305585 192.631259 
L 153.305585 189.984468 
L 153.899924 189.984468 
L 153.899924 188.219941 
L 154.190197 188.219941 
L 154.300658 187.337678 
L 154.757642 187.337678 
L 154.80059 183.808624 
L 155.035072 183.808624 
L 155.035072 182.485229 
L 155.24573 182.485229 
L 155.30847 180.720702 
L 160.110173 180.720702 
L 160.110173 179.838439 
L 160.526092 179.838439 
L 160.526092 178.956176 
L 160.730652 178.956176 
L 160.730652 176.750517 
L 160.933013 176.750517 
L 160.933013 173.662595 
L 161.331318 173.662595 
L 161.331318 171.456937 
L 161.527352 171.456937 
L 161.527352 170.574673 
L 161.721364 170.574673 
L 161.721364 170.133541 
L 161.913396 170.133541 
L 161.913396 163.957698 
L 162.103487 163.957698 
L 162.103487 162.634302 
L 164.70794 162.634302 
L 164.70794 161.752039 
L 165.059334 161.752039 
L 165.059334 159.105249 
L 165.379853 159.105249 
L 165.379853 155.135063 
L 165.695002 155.135063 
L 165.695002 154.2528 
L 166.028591 154.2528 
L 166.028591 152.047141 
L 166.181484 152.047141 
L 166.239959 150.723746 
L 166.333144 150.723746 
L 166.333144 147.635824 
L 166.598506 147.635824 
L 166.598506 145.871298 
L 166.746854 145.871298 
L 166.746854 145.430166 
L 166.894041 145.430166 
L 166.894041 144.547902 
L 167.006483 144.547902 
L 167.040085 141.018849 
L 167.185004 141.018849 
L 167.185004 139.695454 
L 167.328816 139.695454 
L 167.328816 137.489795 
L 167.613182 137.489795 
L 167.667378 132.196215 
L 167.753769 132.196215 
L 167.753769 131.755083 
L 168.042443 131.755083 
L 168.042443 131.313951 
L 168.3163 131.313951 
L 168.3163 130.87282 
L 170.50524 130.87282 
L 170.50524 129.549424 
L 171.055593 129.549424 
L 171.055593 129.108293 
L 171.172743 129.108293 
L 171.262365 123.37358 
L 171.378239 123.37358 
L 171.378239 122.491317 
L 171.493403 122.491317 
L 171.493403 120.72679 
L 171.607866 120.72679 
L 171.607866 120.285659 
L 171.721637 120.285659 
L 171.721637 117.638868 
L 171.834724 117.638868 
L 171.878039 114.992078 
L 171.990192 114.992078 
L 172.058879 111.021893 
L 172.101681 111.021893 
L 172.169963 104.846049 
L 172.297327 104.846049 
L 172.407015 102.64039 
L 172.465815 102.64039 
L 172.465815 98.670205 
L 172.699191 98.670205 
L 172.699191 96.905678 
L 174.468765 96.905678 
L 174.468765 95.141151 
L 176.099928 95.141151 
L 176.099928 92.494361 
L 179.267453 92.494361 
L 179.343247 90.288702 
L 179.418738 90.288702 
L 179.493926 87.641912 
L 179.568815 87.641912 
L 179.643407 84.112859 
L 179.717705 84.112859 
L 179.79171 81.466068 
L 180.006379 81.466068 
L 180.006379 80.583805 
L 180.401022 80.583805 
L 180.483348 79.701541 
L 181.365929 79.701541 
L 181.365929 76.61362 
L 181.568624 76.61362 
L 181.635707 71.320039 
L 181.702552 71.320039 
L 181.702552 70.878907 
L 183.917663 70.878907 
L 183.917663 69.555512 
L 189.569686 69.555512 
L 189.613555 68.673249 
L 190.499084 68.673249 
L 190.601705 66.46759 
L 196.869948 66.46759 
L 196.929442 63.8208 
L 196.988749 63.8208 
L 197.077359 58.086088 
L 197.111329 58.086088 
L 197.199366 48.822322 
L 198.059938 48.822322 
L 198.059938 48.38119 
L 205.066235 48.38119 
L 205.162345 41.323083 
L 205.181508 41.323083 
L 205.257966 33.382712 
L 213.431086 33.382712 
L 213.431086 32.94158 
L 219.509605 32.94158 
L 219.518545 29.853659 
L 222.268069 29.853659 
L 222.283509 28.971395 
L 229.908562 28.971395 
L 229.913707 27.648 
L 360.8064 27.648 
L 360.8064 27.648 
" style="fill:none;stroke:#0000ff;stroke-linecap:square;stroke-width:1.5;"/>
   </g>
   <g id="line2d_39">
    <defs>
     <path d="M 0 -6 
L -1.347084 -1.854102 
L -5.706339 -1.854102 
L -2.179628 0.708204 
L -3.526712 4.854102 
L -0 2.291796 
L 3.526712 4.854102 
L 2.179628 0.708204 
L 5.706339 -1.854102 
L 1.347084 -1.854102 
z
" id="m165a60d3f1" style="stroke:#0000ff;stroke-linejoin:bevel;stroke-width:1.5;"/>
    </defs>
    <g>
     <use style="fill-opacity:0;stroke:#0000ff;stroke-linejoin:bevel;stroke-width:1.5;" x="155.30847" xlink:href="#m165a60d3f1" y="181.602966"/>
     <use style="fill-opacity:0;stroke:#0000ff;stroke-linejoin:bevel;stroke-width:1.5;" x="197.199366" xlink:href="#m165a60d3f1" y="51.02798"/>
     <use style="fill-opacity:0;stroke:#0000ff;stroke-linejoin:bevel;stroke-width:1.5;" x="229.913707" xlink:href="#m165a60d3f1" y="28.530263"/>
     <use style="fill-opacity:0;stroke:#0000ff;stroke-linejoin:bevel;stroke-width:1.5;" x="229.913707" xlink:href="#m165a60d3f1" y="27.648"/>
     <use style="fill-opacity:0;stroke:#0000ff;stroke-linejoin:bevel;stroke-width:1.5;" x="360.8064" xlink:href="#m165a60d3f1" y="27.648"/>
    </g>
   </g>
   <g id="line2d_40">
    <path style="fill:none;stroke:#0000ff;stroke-linecap:square;stroke-width:1.5;"/>
    <g/>
   </g>
   <g id="line2d_41">
    <defs>
     <path d="M 0 1.5 
C 0.397805 1.5 0.77937 1.341951 1.06066 1.06066 
C 1.341951 0.77937 1.5 0.397805 1.5 0 
C 1.5 -0.397805 1.341951 -0.77937 1.06066 -1.06066 
C 0.77937 -1.341951 0.397805 -1.5 0 -1.5 
C -0.397805 -1.5 -0.77937 -1.341951 -1.06066 -1.06066 
C -1.341951 -0.77937 -1.5 -0.397805 -1.5 0 
C -1.5 0.397805 -1.341951 0.77937 -1.06066 1.06066 
C -0.77937 1.341951 -0.397805 1.5 0 1.5 
z
" id="m4a681c7615" style="stroke:#000000;"/>
    </defs>
    <g>
     <use style="stroke:#000000;" x="252.804034" xlink:href="#m4a681c7615" y="27.648"/>
     <use style="stroke:#000000;" x="252.804034" xlink:href="#m4a681c7615" y="27.648"/>
    </g>
   </g>
   <g id="line2d_42">
    <path d="M 118.450653 298.944 
L 118.450653 298.502868 
L 120.0813 298.502868 
L 120.0813 298.061737 
L 121.581803 298.061737 
L 121.581803 297.179473 
L 124.265389 297.179473 
L 124.265389 295.414946 
L 125.47606 295.414946 
L 125.47606 294.091551 
L 127.686077 294.091551 
L 127.686077 292.768156 
L 129.663538 292.768156 
L 129.663538 290.121366 
L 130.579414 290.121366 
L 130.579414 288.797971 
L 132.287354 288.797971 
L 132.358208 287.033444 
L 133.086488 287.033444 
L 133.086488 286.15118 
L 133.853052 286.15118 
L 133.853052 285.710049 
L 135.35878 285.710049 
L 135.35878 280.8576 
L 148.667336 280.8576 
L 148.667336 279.093073 
L 149.338728 279.093073 
L 149.338728 278.21081 
L 149.665646 278.21081 
L 149.665646 276.887415 
L 149.98698 276.887415 
L 149.98698 276.005151 
L 150.302917 276.005151 
L 150.302917 274.240624 
L 150.506141 274.240624 
L 150.613636 273.358361 
L 150.919305 273.358361 
L 150.919305 270.711571 
L 151.168122 270.711571 
L 151.220087 265.859122 
L 151.464982 265.859122 
L 151.516136 262.7712 
L 151.757231 262.7712 
L 151.757231 260.12441 
L 152.045009 260.12441 
L 152.045009 259.683278 
L 152.328451 259.683278 
L 152.328451 257.918751 
L 152.607685 257.918751 
L 152.607685 257.47762 
L 152.882835 257.47762 
L 152.882835 256.595356 
L 153.177416 256.595356 
L 153.177416 254.389698 
L 153.730398 254.389698 
L 153.764426 252.184039 
L 159.342585 252.184039 
L 159.342585 251.742907 
L 159.535354 251.742907 
L 159.535354 249.97838 
L 159.726167 249.97838 
L 159.726167 248.654985 
L 159.931401 248.654985 
L 159.931401 248.213854 
L 160.118259 248.213854 
L 160.118259 245.567063 
L 160.486497 245.567063 
L 160.486497 244.6848 
L 160.667947 244.6848 
L 160.667947 243.361405 
L 160.863211 243.361405 
L 160.863211 241.596878 
L 161.041081 241.596878 
L 161.056469 240.273483 
L 161.217285 240.273483 
L 161.23253 238.508956 
L 161.391854 238.508956 
L 161.391854 236.303298 
L 161.564818 236.303298 
L 161.564818 235.421034 
L 161.736206 235.421034 
L 161.736206 234.979902 
L 161.906046 234.979902 
L 161.906046 234.097639 
L 166.667119 234.097639 
L 166.667119 233.656507 
L 167.056864 233.656507 
L 167.056864 231.89198 
L 167.6403 231.89198 
L 167.6403 231.009717 
L 167.76454 231.009717 
L 167.76454 228.362927 
L 167.887965 228.362927 
L 167.887965 226.157268 
L 168.010586 226.157268 
L 168.010586 225.275005 
L 168.132413 225.275005 
L 168.132413 224.833873 
L 168.253455 224.833873 
L 168.305841 222.628215 
L 168.373724 222.628215 
L 168.373724 219.099161 
L 168.493229 219.099161 
L 168.493229 216.893502 
L 170.351027 216.893502 
L 170.458643 214.687844 
L 170.672043 214.687844 
L 170.672043 214.246712 
L 170.787015 214.246712 
L 170.787015 212.923317 
L 171.100737 212.923317 
L 171.20416 210.717659 
L 171.418183 210.717659 
L 171.519879 207.188605 
L 171.550721 207.188605 
L 171.629799 206.306341 
L 171.721637 206.306341 
L 171.82171 203.21842 
L 172.901047 203.21842 
L 172.901047 201.453893 
L 173.088593 201.453893 
L 173.18167 199.248234 
L 173.274288 199.248234 
L 173.274288 197.042576 
L 173.458168 197.042576 
L 173.557354 193.954654 
L 173.648145 193.954654 
L 173.750254 190.4256 
L 174.018578 190.4256 
L 174.095643 187.77881 
L 174.18388 187.77881 
L 174.18388 186.455415 
L 175.627383 186.455415 
L 175.627383 184.690888 
L 177.715419 184.690888 
L 177.715419 183.367493 
L 183.734269 183.367493 
L 183.787178 181.161834 
L 183.853678 181.161834 
L 183.963234 178.073912 
L 184.015504 178.073912 
L 184.015504 176.750517 
L 184.171448 176.750517 
L 184.274698 169.69241 
L 184.377384 169.69241 
L 184.48394 166.163356 
L 184.589896 166.163356 
L 184.589896 165.281093 
L 184.925864 165.281093 
L 184.925864 164.839961 
L 185.728008 164.839961 
L 185.775604 162.193171 
L 187.046166 162.193171 
L 187.046166 160.428644 
L 193.871134 160.428644 
L 193.96364 156.017327 
L 193.994374 156.017327 
L 194.091592 151.60601 
L 194.122118 151.60601 
L 194.183023 145.430166 
L 194.445557 145.430166 
L 194.445557 143.665639 
L 195.112735 143.665639 
L 195.112735 142.342244 
L 196.937437 142.342244 
L 197.042192 136.607532 
L 197.127161 136.607532 
L 197.190355 134.401873 
L 197.274659 134.401873 
L 197.351887 126.461502 
L 199.609965 126.461502 
L 199.678192 125.138107 
L 199.74814 125.138107 
L 199.844263 121.167922 
L 199.866751 121.167922 
L 199.956437 116.315473 
L 199.978792 116.315473 
L 200.023422 112.345288 
L 201.545542 112.345288 
L 201.545542 110.580761 
L 201.990681 110.580761 
L 202.090791 105.28718 
L 202.11075 105.28718 
L 202.21885 95.582283 
L 202.230057 95.582283 
L 202.230057 95.141151 
L 202.755254 95.141151 
L 202.851387 87.20078 
L 202.870555 87.20078 
L 202.947032 77.054751 
L 204.629836 77.054751 
L 204.629836 75.731356 
L 206.811266 75.731356 
L 206.874659 70.878907 
L 206.935826 70.878907 
L 207.026204 62.938537 
L 207.0569 62.938537 
L 207.0569 61.615141 
L 211.019343 61.615141 
L 211.119539 46.616663 
L 214.168121 46.616663 
L 214.168121 46.175532 
L 214.979162 46.175532 
L 214.989224 41.764215 
L 216.233448 41.764215 
L 216.233448 39.999688 
L 217.882476 39.999688 
L 217.9648 38.235161 
L 218.426555 38.235161 
L 218.443307 37.352898 
L 224.261853 37.352898 
L 224.261853 35.147239 
L 227.446994 35.147239 
L 227.458493 33.823844 
L 230.979315 33.823844 
L 230.979315 33.382712 
L 231.336498 33.382712 
L 231.336498 32.94158 
L 233.484867 32.94158 
L 233.484867 32.500449 
L 234.134238 32.500449 
L 234.134238 32.059317 
L 234.4577 32.059317 
L 234.534918 31.177054 
L 237.590922 31.177054 
L 237.593684 29.853659 
L 243.961482 29.853659 
L 243.961482 29.412527 
L 244.139884 29.412527 
L 244.139884 28.971395 
L 247.565038 28.971395 
L 247.565038 28.530263 
L 251.690169 28.530263 
L 251.690169 28.089132 
L 252.804034 28.089132 
L 252.804034 27.648 
L 360.8064 27.648 
L 360.8064 27.648 
" style="fill:none;stroke:#000000;stroke-linecap:square;stroke-width:1.5;"/>
   </g>
   <g id="line2d_43">
    <defs>
     <path d="M 0 6 
C 1.591219 6 3.117479 5.367802 4.242641 4.242641 
C 5.367802 3.117479 6 1.591219 6 0 
C 6 -1.591219 5.367802 -3.117479 4.242641 -4.242641 
C 3.117479 -5.367802 1.591219 -6 0 -6 
C -1.591219 -6 -3.117479 -5.367802 -4.242641 -4.242641 
C -5.367802 -3.117479 -6 -1.591219 -6 0 
C -6 1.591219 -5.367802 3.117479 -4.242641 4.242641 
C -3.117479 5.367802 -1.591219 6 0 6 
z
" id="m99b3a1af5b" style="stroke:#000000;stroke-width:1.5;"/>
    </defs>
    <g>
     <use style="fill-opacity:0;stroke:#000000;stroke-width:1.5;" x="197.274659" xlink:href="#m99b3a1af5b" y="134.401873"/>
     <use style="fill-opacity:0;stroke:#000000;stroke-width:1.5;" x="244.139884" xlink:href="#m99b3a1af5b" y="28.971395"/>
     <use style="fill-opacity:0;stroke:#000000;stroke-width:1.5;" x="252.804034" xlink:href="#m99b3a1af5b" y="27.648"/>
     <use style="fill-opacity:0;stroke:#000000;stroke-width:1.5;" x="252.804034" xlink:href="#m99b3a1af5b" y="27.648"/>
     <use style="fill-opacity:0;stroke:#000000;stroke-width:1.5;" x="360.8064" xlink:href="#m99b3a1af5b" y="27.648"/>
    </g>
   </g>
   <g id="line2d_44">
    <path style="fill:none;stroke:#000000;stroke-linecap:square;stroke-width:1.5;"/>
    <g/>
   </g>
   <g id="line2d_45">
    <path clip-path="url(#p40cd42d36c)" d="M 230.862305 33.823844 
" style="fill:none;stroke:#000000;stroke-linecap:square;stroke-width:1.5;"/>
    <defs>
     <path d="M -12 12 
L 12 -12 
M -12 -12 
L 12 12 
" id="m488247daed" style="stroke:#000000;"/>
    </defs>
    <g clip-path="url(#p40cd42d36c)">
     <use style="stroke:#000000;" x="230.862305" xlink:href="#m488247daed" y="33.823844"/>
    </g>
   </g>
   <g id="line2d_46">
    <defs>
     <path d="M 0 1.5 
C 0.397805 1.5 0.77937 1.341951 1.06066 1.06066 
C 1.341951 0.77937 1.5 0.397805 1.5 0 
C 1.5 -0.397805 1.341951 -0.77937 1.06066 -1.06066 
C 0.77937 -1.341951 0.397805 -1.5 0 -1.5 
C -0.397805 -1.5 -0.77937 -1.341951 -1.06066 -1.06066 
C -1.341951 -0.77937 -1.5 -0.397805 -1.5 0 
C -1.5 0.397805 -1.341951 0.77937 -1.06066 1.06066 
C -0.77937 1.341951 -0.397805 1.5 0 1.5 
z
" id="m67d5b5031a" style="stroke:#ff0000;"/>
    </defs>
    <g>
     <use style="fill:#ff0000;stroke:#ff0000;" x="310.97361" xlink:href="#m67d5b5031a" y="27.648"/>
     <use style="fill:#ff0000;stroke:#ff0000;" x="310.97361" xlink:href="#m67d5b5031a" y="27.648"/>
    </g>
   </g>
   <g id="line2d_47">
    <path d="M 163.133205 298.944 
L 163.133205 297.179473 
L 163.287526 297.179473 
L 163.287526 296.738341 
L 163.433814 296.738341 
L 163.433814 295.856078 
L 163.578974 295.856078 
L 163.578974 294.973815 
L 163.729694 294.973815 
L 163.729694 294.532683 
L 164.027561 294.532683 
L 164.027561 294.091551 
L 164.174745 294.091551 
L 164.174745 293.209288 
L 164.314318 293.209288 
L 164.314318 291.885893 
L 164.452864 291.885893 
L 164.452864 291.003629 
L 164.733259 291.003629 
L 164.742744 290.121366 
L 164.868764 290.121366 
L 164.868764 289.680234 
L 165.0033 289.680234 
L 165.009535 288.356839 
L 165.136882 288.356839 
L 165.136882 286.592312 
L 165.269521 286.592312 
L 165.269521 285.710049 
L 185.827202 285.710049 
L 185.91562 280.8576 
L 185.959674 280.8576 
L 186.047474 276.887415 
L 186.091221 276.887415 
L 186.17841 271.593834 
L 191.340952 271.593834 
L 191.340952 270.711571 
L 200.318598 270.711571 
L 200.421821 264.535727 
L 200.442208 264.535727 
L 200.523537 258.359883 
L 200.632683 258.359883 
L 200.632683 257.47762 
L 201.422249 257.47762 
L 201.521395 253.507434 
L 201.540626 253.507434 
L 201.59909 250.419512 
L 201.674247 250.419512 
L 201.76457 244.6848 
L 201.798109 244.6848 
L 201.798109 241.155746 
L 204.052503 241.155746 
L 204.153141 234.979902 
L 204.169862 234.979902 
L 204.236597 225.716137 
L 208.895058 225.716137 
L 208.987651 218.658029 
L 209.014108 218.658029 
L 209.090565 214.246712 
L 209.173268 214.246712 
L 209.173268 213.80558 
L 209.493462 213.80558 
L 209.493462 212.482185 
L 210.21206 212.482185 
L 210.21206 212.041054 
L 213.605599 212.041054 
L 213.709113 201.895024 
L 213.719176 201.895024 
L 213.729234 199.689366 
L 216.823026 199.689366 
L 216.823026 198.365971 
L 221.696909 198.365971 
L 221.77574 181.602966 
L 221.917747 181.602966 
L 222.023365 174.103727 
L 222.029834 174.103727 
L 222.039307 168.369015 
L 222.744222 168.369015 
L 222.744222 166.604488 
L 223.609901 166.604488 
L 223.609901 164.839961 
L 224.439739 164.839961 
L 224.445428 162.193171 
L 227.507231 162.193171 
L 227.572654 148.95922 
L 230.394756 148.95922 
L 230.394756 148.518088 
L 231.368752 148.518088 
L 231.426981 140.577717 
L 232.508495 140.577717 
L 232.534587 134.843005 
L 233.034045 134.843005 
L 233.034045 134.401873 
L 234.252498 134.401873 
L 234.299563 129.990556 
L 234.443789 129.990556 
L 234.501077 123.37358 
L 234.915569 123.37358 
L 234.953593 116.315473 
L 235.958514 116.315473 
L 236.024892 112.345288 
L 237.189492 112.345288 
L 237.221982 109.698498 
L 238.161918 109.698498 
L 238.161918 109.257366 
L 239.872592 109.257366 
L 239.902978 102.64039 
L 239.996792 102.64039 
L 240.002925 99.552468 
L 240.277683 99.552468 
L 240.277683 99.111337 
L 240.622972 99.111337 
L 240.622972 98.670205 
L 240.963961 98.670205 
L 240.966325 96.464546 
L 242.303454 96.464546 
L 242.310774 92.935493 
L 243.668538 92.935493 
L 243.669443 92.053229 
L 244.158448 92.053229 
L 244.184732 89.847571 
L 244.740507 89.847571 
L 244.753545 88.524176 
L 245.01885 88.524176 
L 245.01885 88.083044 
L 245.677809 88.083044 
L 245.785667 83.671727 
L 245.808286 83.671727 
L 245.809773 82.348332 
L 246.046847 82.348332 
L 246.05813 80.142673 
L 246.633066 80.142673 
L 246.647864 79.26041 
L 246.803348 79.26041 
L 246.803348 78.819278 
L 247.331881 78.819278 
L 247.34661 77.495883 
L 248.944641 77.495883 
L 249.021918 71.761171 
L 249.192289 71.761171 
L 249.192289 71.320039 
L 249.408948 71.320039 
L 249.408948 70.878907 
L 249.621926 70.878907 
L 249.623973 67.790985 
L 250.480504 67.790985 
L 250.49548 65.144195 
L 251.717098 65.144195 
L 251.717098 64.703063 
L 252.093583 64.703063 
L 252.093583 64.261932 
L 252.281718 64.261932 
L 252.281718 63.8208 
L 252.807842 63.8208 
L 252.822013 62.497405 
L 253.513385 62.497405 
L 253.513385 62.056273 
L 254.288982 62.056273 
L 254.290417 60.732878 
L 255.046505 60.732878 
L 255.047546 59.409483 
L 255.372784 59.409483 
L 255.372784 58.968351 
L 255.52958 58.968351 
L 255.530924 57.644956 
L 256.157159 57.644956 
L 256.157159 57.203824 
L 257.507862 57.203824 
L 257.507862 56.762693 
L 258.048051 56.762693 
L 258.049647 55.880429 
L 258.357882 55.880429 
L 258.357882 55.439298 
L 259.048622 55.439298 
L 259.048622 54.998166 
L 259.639922 54.998166 
L 259.640085 54.115902 
L 259.77186 54.115902 
L 259.77186 53.674771 
L 260.017727 53.674771 
L 260.019284 51.910244 
L 261.248086 51.910244 
L 261.248086 51.469112 
L 261.480976 51.469112 
L 261.480976 51.02798 
L 261.924972 51.02798 
L 262.030747 49.704585 
L 262.353776 49.704585 
L 262.353776 49.263454 
L 263.538563 49.263454 
L 263.640475 46.175532 
L 265.226167 46.175532 
L 265.226409 45.293268 
L 266.409948 45.293268 
L 266.409948 44.852137 
L 266.674586 44.852137 
L 266.675623 43.969873 
L 268.10999 43.969873 
L 268.10999 43.528741 
L 269.057461 43.528741 
L 269.057461 43.08761 
L 269.287592 43.08761 
L 269.287592 42.646478 
L 270.748566 42.646478 
L 270.748566 42.205346 
L 271.581459 42.205346 
L 271.582582 40.881951 
L 273.625411 40.881951 
L 273.625411 40.44082 
L 274.576272 40.44082 
L 274.576272 39.999688 
L 275.469217 39.999688 
L 275.469972 38.676293 
L 276.381998 38.676293 
L 276.381998 38.235161 
L 277.149081 38.235161 
L 277.149089 37.352898 
L 277.939569 37.352898 
L 277.939569 36.911766 
L 278.689838 36.911766 
L 278.691088 35.588371 
L 281.438312 35.588371 
L 281.439923 34.264976 
L 282.676093 34.264976 
L 282.676536 33.382712 
L 283.837787 33.382712 
L 283.837787 32.94158 
L 287.874065 32.94158 
L 287.874365 32.059317 
L 289.608172 32.059317 
L 289.608172 31.618185 
L 291.196224 31.618185 
L 291.196224 31.177054 
L 291.942569 31.177054 
L 291.942569 30.735922 
L 293.351035 30.735922 
L 293.351581 29.853659 
L 294.662839 29.853659 
L 294.662839 29.412527 
L 297.58826 29.412527 
L 297.58826 28.971395 
L 301.489924 28.971395 
L 301.489924 28.530263 
L 302.350447 28.530263 
L 302.350447 28.089132 
L 310.97361 28.089132 
L 310.97361 27.648 
L 360.8064 27.648 
L 360.8064 27.648 
" style="fill:none;stroke:#ff0000;stroke-linecap:square;stroke-width:1.5;"/>
   </g>
   <g id="line2d_48">
    <defs>
     <path d="M -6 6 
L 6 6 
L 6 -6 
L -6 -6 
z
" id="m262aca7e67" style="stroke:#ff0000;stroke-linejoin:miter;stroke-width:1.5;"/>
    </defs>
    <g>
     <use style="fill-opacity:0;stroke:#ff0000;stroke-linejoin:miter;stroke-width:1.5;" x="221.762625" xlink:href="#m262aca7e67" y="186.014283"/>
     <use style="fill-opacity:0;stroke:#ff0000;stroke-linejoin:miter;stroke-width:1.5;" x="266.675623" xlink:href="#m262aca7e67" y="43.969873"/>
     <use style="fill-opacity:0;stroke:#ff0000;stroke-linejoin:miter;stroke-width:1.5;" x="310.97361" xlink:href="#m262aca7e67" y="27.648"/>
     <use style="fill-opacity:0;stroke:#ff0000;stroke-linejoin:miter;stroke-width:1.5;" x="360.8064" xlink:href="#m262aca7e67" y="27.648"/>
    </g>
   </g>
   <g id="line2d_49">
    <path style="fill:none;stroke:#ff0000;stroke-linecap:square;stroke-width:1.5;"/>
    <g/>
   </g>
   <g id="line2d_50">
    <path clip-path="url(#p40cd42d36c)" d="M 230.862869 148.518088 
" style="fill:none;stroke:#ff0000;stroke-linecap:square;stroke-width:1.5;"/>
    <defs>
     <path d="M -12 12 
L 12 -12 
M -12 -12 
L 12 12 
" id="md20f6eb508" style="stroke:#ff0000;"/>
    </defs>
    <g clip-path="url(#p40cd42d36c)">
     <use style="fill:#ff0000;stroke:#ff0000;" x="230.862869" xlink:href="#md20f6eb508" y="148.518088"/>
    </g>
   </g>
   <g id="line2d_51">
    <defs>
     <path d="M 0 1.5 
C 0.397805 1.5 0.77937 1.341951 1.06066 1.06066 
C 1.341951 0.77937 1.5 0.397805 1.5 0 
C 1.5 -0.397805 1.341951 -0.77937 1.06066 -1.06066 
C 0.77937 -1.341951 0.397805 -1.5 0 -1.5 
C -0.397805 -1.5 -0.77937 -1.341951 -1.06066 -1.06066 
C -1.341951 -0.77937 -1.5 -0.397805 -1.5 0 
C -1.5 0.397805 -1.341951 0.77937 -1.06066 1.06066 
C -0.77937 1.341951 -0.397805 1.5 0 1.5 
z
" id="m59311d66d8" style="stroke:#bf00bf;"/>
    </defs>
    <g>
     <use style="fill:#bf00bf;stroke:#bf00bf;" x="307.928323" xlink:href="#m59311d66d8" y="27.648"/>
     <use style="fill:#bf00bf;stroke:#bf00bf;" x="307.928323" xlink:href="#m59311d66d8" y="27.648"/>
    </g>
   </g>
   <g id="line2d_52">
    <path d="M -1 297.620605 
L 101.877755 297.620605 
L 101.877755 295.414946 
L 102.055643 295.414946 
L 102.055643 294.973815 
L 105.26277 294.973815 
L 105.26277 291.003629 
L 105.485395 291.003629 
L 105.485395 290.562498 
L 108.32187 290.562498 
L 108.32187 290.121366 
L 110.618446 290.121366 
L 110.674517 287.474576 
L 110.786158 287.474576 
L 110.786158 287.033444 
L 112.865299 287.033444 
L 112.9647 281.739863 
L 114.82735 281.739863 
L 114.916929 276.887415 
L 114.961559 276.887415 
L 114.961559 276.446283 
L 116.60395 276.446283 
L 116.685473 273.799493 
L 116.766645 273.799493 
L 116.766645 273.358361 
L 118.227147 273.358361 
L 118.301945 268.505912 
L 118.339232 268.505912 
L 118.376446 266.741385 
L 119.721341 266.741385 
L 119.824891 262.330068 
L 119.859282 262.330068 
L 119.859282 258.801015 
L 121.105535 258.801015 
L 121.201758 254.389698 
L 122.394821 254.389698 
L 122.484686 247.772722 
L 123.601383 247.772722 
L 123.685677 242.479141 
L 123.741664 242.479141 
L 123.741664 241.596878 
L 124.735199 241.596878 
L 124.814573 236.744429 
L 125.879541 236.744429 
L 125.879541 234.097639 
L 126.225624 234.097639 
L 126.225624 233.656507 
L 128.375874 233.656507 
L 128.375874 233.215376 
L 129.261413 233.215376 
L 129.261413 231.89198 
L 129.448078 231.89198 
L 129.448078 231.450849 
L 130.107132 231.450849 
L 130.107132 230.568585 
L 130.916461 230.568585 
L 130.916461 230.127454 
L 135.754042 230.127454 
L 135.754042 229.24519 
L 194.096572 229.24519 
L 194.096572 225.716137 
L 210.835752 225.716137 
L 210.835752 225.275005 
L 212.819247 225.275005 
L 212.92131 212.482185 
L 212.931681 212.482185 
L 212.999623 210.276527 
L 218.555448 210.276527 
L 218.624072 205.424078 
L 225.50109 205.424078 
L 225.50109 203.21842 
L 230.863622 203.21842 
L 230.94985 168.369015 
L 233.353388 168.369015 
L 233.356271 164.839961 
L 236.965471 164.839961 
L 237.016091 157.781854 
L 238.736989 157.781854 
L 238.760706 152.929405 
L 241.410763 152.929405 
L 241.411944 152.047141 
L 243.901244 152.047141 
L 243.962818 121.167922 
L 245.188687 121.167922 
L 245.189762 118.521132 
L 247.198825 118.521132 
L 247.228991 111.021893 
L 248.261499 111.021893 
L 248.263793 109.257366 
L 249.907165 109.257366 
L 249.907165 108.816234 
L 251.529425 108.816234 
L 251.559214 96.023415 
L 252.396831 96.023415 
L 252.397415 93.817756 
L 253.575952 93.817756 
L 253.575952 93.376624 
L 253.791764 93.376624 
L 253.811739 90.729834 
L 254.534993 90.729834 
L 254.545865 87.641912 
L 255.7362 87.641912 
L 255.736839 86.318517 
L 256.945885 86.318517 
L 256.970984 77.937015 
L 257.595311 77.937015 
L 257.596707 76.61362 
L 258.664227 76.61362 
L 258.678231 74.849093 
L 259.246335 74.849093 
L 259.247666 73.084566 
L 260.181461 73.084566 
L 260.182233 72.202302 
L 261.143418 72.202302 
L 261.152574 65.585327 
L 261.663692 65.585327 
L 261.663692 65.144195 
L 262.53367 65.144195 
L 262.540227 63.8208 
L 263.00597 63.8208 
L 263.00608 62.938537 
L 263.773937 62.938537 
L 263.77451 62.056273 
L 264.572611 62.056273 
L 264.582967 57.644956 
L 265.006865 57.644956 
L 265.007868 56.321561 
L 265.733301 56.321561 
L 265.735997 55.439298 
L 266.131901 55.439298 
L 266.137489 54.557034 
L 266.789949 54.557034 
L 266.790464 53.233639 
L 267.475868 53.233639 
L 267.485515 49.263454 
L 267.845033 49.263454 
L 267.845488 48.38119 
L 268.475581 48.38119 
L 268.475581 47.940059 
L 269.38727 47.940059 
L 269.38727 47.498927 
L 269.983284 47.498927 
L 269.988767 46.175532 
L 270.863008 46.175532 
L 270.863008 45.7344 
L 272.198305 45.7344 
L 272.199522 44.852137 
L 272.489599 44.852137 
L 272.48965 43.969873 
L 274.18051 43.969873 
L 274.184468 42.646478 
L 274.442108 42.646478 
L 274.443411 39.999688 
L 275.542386 39.999688 
L 275.542386 39.558556 
L 275.973622 39.558556 
L 275.976815 38.235161 
L 276.211426 38.235161 
L 276.212147 37.352898 
L 276.842545 37.352898 
L 276.842545 36.911766 
L 277.828187 36.911766 
L 277.828187 36.470634 
L 278.750606 36.470634 
L 278.750606 36.029502 
L 279.316622 36.029502 
L 279.317366 35.147239 
L 279.664871 35.147239 
L 279.664871 34.706107 
L 280.69675 34.706107 
L 280.69675 34.264976 
L 281.491255 34.264976 
L 281.491255 33.823844 
L 281.982235 33.823844 
L 281.982341 32.94158 
L 283.185715 32.94158 
L 283.185715 32.500449 
L 283.883087 32.500449 
L 283.883087 32.059317 
L 285.382415 32.059317 
L 285.382415 31.618185 
L 285.772434 31.618185 
L 285.772434 31.177054 
L 286.391671 31.177054 
L 286.391671 30.735922 
L 290.75759 30.735922 
L 290.75759 30.29479 
L 300.785642 30.29479 
L 300.785642 29.853659 
L 303.346989 29.853659 
L 303.346989 29.412527 
L 303.741307 29.412527 
L 303.741307 28.971395 
L 304.128249 28.971395 
L 304.128249 28.530263 
L 306.295148 28.530263 
L 306.295148 28.089132 
L 307.928323 28.089132 
L 307.928323 27.648 
L 360.8064 27.648 
L 360.8064 27.648 
" style="fill:none;stroke:#bf00bf;stroke-linecap:square;stroke-width:1.5;"/>
   </g>
   <g id="line2d_53">
    <defs>
     <path d="M -0 8.485281 
L 8.485281 0 
L 0 -8.485281 
L -8.485281 -0 
z
" id="mc6a12602b3" style="stroke:#bf00bf;stroke-linejoin:miter;stroke-width:1.5;"/>
    </defs>
    <g>
     <use style="fill-opacity:0;stroke:#bf00bf;stroke-linejoin:miter;stroke-width:1.5;" x="135.754042" xlink:href="#mc6a12602b3" y="230.127454"/>
     <use style="fill-opacity:0;stroke:#bf00bf;stroke-linejoin:miter;stroke-width:1.5;" x="245.188687" xlink:href="#mc6a12602b3" y="121.167922"/>
     <use style="fill-opacity:0;stroke:#bf00bf;stroke-linejoin:miter;stroke-width:1.5;" x="290.75759" xlink:href="#mc6a12602b3" y="30.29479"/>
     <use style="fill-opacity:0;stroke:#bf00bf;stroke-linejoin:miter;stroke-width:1.5;" x="307.928323" xlink:href="#mc6a12602b3" y="27.648"/>
     <use style="fill-opacity:0;stroke:#bf00bf;stroke-linejoin:miter;stroke-width:1.5;" x="360.8064" xlink:href="#mc6a12602b3" y="27.648"/>
    </g>
   </g>
   <g id="line2d_54">
    <path style="fill:none;stroke:#bf00bf;stroke-linecap:square;stroke-width:1.5;"/>
    <g/>
   </g>
   <g id="line2d_55">
    <path clip-path="url(#p40cd42d36c)" d="M 230.862916 203.21842 
" style="fill:none;stroke:#bf00bf;stroke-linecap:square;stroke-width:1.5;"/>
    <defs>
     <path d="M -12 12 
L 12 -12 
M -12 -12 
L 12 12 
" id="mf34ca2d3f6" style="stroke:#bf00bf;"/>
    </defs>
    <g clip-path="url(#p40cd42d36c)">
     <use style="fill:#bf00bf;stroke:#bf00bf;" x="230.862916" xlink:href="#mf34ca2d3f6" y="203.21842"/>
    </g>
   </g>
   <g id="line2d_56">
    <path d="M 360.8064 27.648 
L 380.514816 293.51808 
" style="fill:none;stroke:#ff0000;stroke-linecap:square;stroke-width:1.5;"/>
    <g>
     <use style="fill-opacity:0;stroke:#ff0000;stroke-linejoin:miter;stroke-width:1.5;" x="360.8064" xlink:href="#m262aca7e67" y="27.648"/>
     <use style="fill-opacity:0;stroke:#ff0000;stroke-linejoin:miter;stroke-width:1.5;" x="380.514816" xlink:href="#m262aca7e67" y="293.51808"/>
    </g>
   </g>
   <g id="line2d_57">
    <path d="M 360.8064 27.648 
L 380.514816 241.429248 
" style="fill:none;stroke:#bf00bf;stroke-linecap:square;stroke-width:1.5;"/>
    <g>
     <use style="fill-opacity:0;stroke:#bf00bf;stroke-linejoin:miter;stroke-width:1.5;" x="360.8064" xlink:href="#mc6a12602b3" y="27.648"/>
     <use style="fill-opacity:0;stroke:#bf00bf;stroke-linejoin:miter;stroke-width:1.5;" x="380.514816" xlink:href="#mc6a12602b3" y="241.429248"/>
    </g>
   </g>
   <g id="line2d_58">
    <path d="M 360.8064 27.648 
L 380.514816 189.340416 
" style="fill:none;stroke:#000000;stroke-linecap:square;stroke-width:1.5;"/>
    <g>
     <use style="fill-opacity:0;stroke:#000000;stroke-width:1.5;" x="360.8064" xlink:href="#m99b3a1af5b" y="27.648"/>
     <use style="fill-opacity:0;stroke:#000000;stroke-width:1.5;" x="380.514816" xlink:href="#m99b3a1af5b" y="189.340416"/>
    </g>
   </g>
   <g id="line2d_59">
    <path d="M 360.8064 27.648 
L 380.514816 137.251584 
" style="fill:none;stroke:#0000ff;stroke-linecap:square;stroke-width:1.5;"/>
    <g>
     <use style="fill-opacity:0;stroke:#0000ff;stroke-linejoin:bevel;stroke-width:1.5;" x="360.8064" xlink:href="#m165a60d3f1" y="27.648"/>
     <use style="fill-opacity:0;stroke:#0000ff;stroke-linejoin:bevel;stroke-width:1.5;" x="380.514816" xlink:href="#m165a60d3f1" y="137.251584"/>
    </g>
   </g>
   <g id="line2d_60">
    <path d="M 360.8064 27.648 
L 380.514816 85.162752 
" style="fill:none;stroke:#008000;stroke-linecap:square;stroke-width:1.5;"/>
    <g>
     <use style="fill-opacity:0;stroke:#008000;stroke-linejoin:miter;stroke-width:1.5;" x="360.8064" xlink:href="#mb4d90dc4e2" y="27.648"/>
     <use style="fill-opacity:0;stroke:#008000;stroke-linejoin:miter;stroke-width:1.5;" x="380.514816" xlink:href="#mb4d90dc4e2" y="85.162752"/>
    </g>
   </g>
   <g id="line2d_61">
    <path d="M 360.8064 27.648 
L 380.514816 33.07392 
" style="fill:none;stroke:#00bfbf;stroke-linecap:square;stroke-width:1.5;"/>
    <g>
     <use style="fill-opacity:0;stroke:#00bfbf;stroke-width:1.5;" x="360.8064" xlink:href="#m49cf7c3c08" y="27.648"/>
     <use style="fill-opacity:0;stroke:#00bfbf;stroke-width:1.5;" x="380.514816" xlink:href="#m49cf7c3c08" y="33.07392"/>
    </g>
   </g>
   <g id="line2d_62">
    <path d="M 360.8064 298.944 
L 360.8064 27.648 
" style="fill:none;stroke:#000000;stroke-linecap:square;stroke-width:1.5;"/>
   </g>
   <g id="patch_3">
    <path d="M 57.6 298.944 
L 360.8064 298.944 
" style="fill:none;stroke:#000000;stroke-linecap:square;stroke-linejoin:miter;stroke-width:0.8;"/>
   </g>
   <g id="patch_4">
    <path d="M 57.6 27.648 
L 360.8064 27.648 
" style="fill:none;stroke:#000000;stroke-linecap:square;stroke-linejoin:miter;stroke-width:0.8;"/>
   </g>
   <g id="text_13">
    <!-- 20-D -->
    <g transform="translate(386.578944 297.381205)scale(0.14 -0.14)">
     <defs>
      <path d="M 4.890625 31.390625 
L 31.203125 31.390625 
L 31.203125 23.390625 
L 4.890625 23.390625 
z
" id="DejaVuSans-45"/>
      <path d="M 19.671875 64.796875 
L 19.671875 8.109375 
L 31.59375 8.109375 
Q 46.6875 8.109375 53.6875 14.9375 
Q 60.6875 21.78125 60.6875 36.53125 
Q 60.6875 51.171875 53.6875 57.984375 
Q 46.6875 64.796875 31.59375 64.796875 
z
M 9.8125 72.90625 
L 30.078125 72.90625 
Q 51.265625 72.90625 61.171875 64.09375 
Q 71.09375 55.28125 71.09375 36.53125 
Q 71.09375 17.671875 61.125 8.828125 
Q 51.171875 0 30.078125 0 
L 9.8125 0 
z
" id="DejaVuSans-68"/>
     </defs>
     <use xlink:href="#DejaVuSans-50"/>
     <use x="63.623047" xlink:href="#DejaVuSans-48"/>
     <use x="127.246094" xlink:href="#DejaVuSans-45"/>
     <use x="163.330078" xlink:href="#DejaVuSans-68"/>
    </g>
   </g>
   <g id="text_14">
    <!-- 40-D -->
    <g transform="translate(386.578944 245.292373)scale(0.14 -0.14)">
     <use xlink:href="#DejaVuSans-52"/>
     <use x="63.623047" xlink:href="#DejaVuSans-48"/>
     <use x="127.246094" xlink:href="#DejaVuSans-45"/>
     <use x="163.330078" xlink:href="#DejaVuSans-68"/>
    </g>
   </g>
   <g id="text_15">
    <!-- 10-D -->
    <g transform="translate(386.578944 193.203541)scale(0.14 -0.14)">
     <use xlink:href="#DejaVuSans-49"/>
     <use x="63.623047" xlink:href="#DejaVuSans-48"/>
     <use x="127.246094" xlink:href="#DejaVuSans-45"/>
     <use x="163.330078" xlink:href="#DejaVuSans-68"/>
    </g>
   </g>
   <g id="text_16">
    <!-- 5-D -->
    <g transform="translate(386.578944 141.114709)scale(0.14 -0.14)">
     <defs>
      <path d="M 10.796875 72.90625 
L 49.515625 72.90625 
L 49.515625 64.59375 
L 19.828125 64.59375 
L 19.828125 46.734375 
Q 21.96875 47.46875 24.109375 47.828125 
Q 26.265625 48.1875 28.421875 48.1875 
Q 40.625 48.1875 47.75 41.5 
Q 54.890625 34.8125 54.890625 23.390625 
Q 54.890625 11.625 47.5625 5.09375 
Q 40.234375 -1.421875 26.90625 -1.421875 
Q 22.3125 -1.421875 17.546875 -0.640625 
Q 12.796875 0.140625 7.71875 1.703125 
L 7.71875 11.625 
Q 12.109375 9.234375 16.796875 8.0625 
Q 21.484375 6.890625 26.703125 6.890625 
Q 35.15625 6.890625 40.078125 11.328125 
Q 45.015625 15.765625 45.015625 23.390625 
Q 45.015625 31 40.078125 35.4375 
Q 35.15625 39.890625 26.703125 39.890625 
Q 22.75 39.890625 18.8125 39.015625 
Q 14.890625 38.140625 10.796875 36.28125 
z
" id="DejaVuSans-53"/>
     </defs>
     <use xlink:href="#DejaVuSans-53"/>
     <use x="63.623047" xlink:href="#DejaVuSans-45"/>
     <use x="99.707031" xlink:href="#DejaVuSans-68"/>
    </g>
   </g>
   <g id="text_17">
    <!-- 3-D -->
    <g transform="translate(386.578944 89.025877)scale(0.14 -0.14)">
     <defs>
      <path d="M 40.578125 39.3125 
Q 47.65625 37.796875 51.625 33 
Q 55.609375 28.21875 55.609375 21.1875 
Q 55.609375 10.40625 48.1875 4.484375 
Q 40.765625 -1.421875 27.09375 -1.421875 
Q 22.515625 -1.421875 17.65625 -0.515625 
Q 12.796875 0.390625 7.625 2.203125 
L 7.625 11.71875 
Q 11.71875 9.328125 16.59375 8.109375 
Q 21.484375 6.890625 26.8125 6.890625 
Q 36.078125 6.890625 40.9375 10.546875 
Q 45.796875 14.203125 45.796875 21.1875 
Q 45.796875 27.640625 41.28125 31.265625 
Q 36.765625 34.90625 28.71875 34.90625 
L 20.21875 34.90625 
L 20.21875 43.015625 
L 29.109375 43.015625 
Q 36.375 43.015625 40.234375 45.921875 
Q 44.09375 48.828125 44.09375 54.296875 
Q 44.09375 59.90625 40.109375 62.90625 
Q 36.140625 65.921875 28.71875 65.921875 
Q 24.65625 65.921875 20.015625 65.03125 
Q 15.375 64.15625 9.8125 62.3125 
L 9.8125 71.09375 
Q 15.4375 72.65625 20.34375 73.4375 
Q 25.25 74.21875 29.59375 74.21875 
Q 40.828125 74.21875 47.359375 69.109375 
Q 53.90625 64.015625 53.90625 55.328125 
Q 53.90625 49.265625 50.4375 45.09375 
Q 46.96875 40.921875 40.578125 39.3125 
z
" id="DejaVuSans-51"/>
     </defs>
     <use xlink:href="#DejaVuSans-51"/>
     <use x="63.623047" xlink:href="#DejaVuSans-45"/>
     <use x="99.707031" xlink:href="#DejaVuSans-68"/>
    </g>
   </g>
   <g id="text_18">
    <!-- 2-D -->
    <g transform="translate(386.578944 36.937045)scale(0.14 -0.14)">
     <use xlink:href="#DejaVuSans-50"/>
     <use x="63.623047" xlink:href="#DejaVuSans-45"/>
     <use x="99.707031" xlink:href="#DejaVuSans-68"/>
    </g>
   </g>
   <g id="text_19">
    <!-- bbob-constrained f48 -->
    <g transform="translate(60.632064 38.111366)scale(0.102 -0.102)">
     <defs>
      <path d="M 48.6875 27.296875 
Q 48.6875 37.203125 44.609375 42.84375 
Q 40.53125 48.484375 33.40625 48.484375 
Q 26.265625 48.484375 22.1875 42.84375 
Q 18.109375 37.203125 18.109375 27.296875 
Q 18.109375 17.390625 22.1875 11.75 
Q 26.265625 6.109375 33.40625 6.109375 
Q 40.53125 6.109375 44.609375 11.75 
Q 48.6875 17.390625 48.6875 27.296875 
z
M 18.109375 46.390625 
Q 20.953125 51.265625 25.265625 53.625 
Q 29.59375 56 35.59375 56 
Q 45.5625 56 51.78125 48.09375 
Q 58.015625 40.1875 58.015625 27.296875 
Q 58.015625 14.40625 51.78125 6.484375 
Q 45.5625 -1.421875 35.59375 -1.421875 
Q 29.59375 -1.421875 25.265625 0.953125 
Q 20.953125 3.328125 18.109375 8.203125 
L 18.109375 0 
L 9.078125 0 
L 9.078125 75.984375 
L 18.109375 75.984375 
z
" id="DejaVuSans-98"/>
     </defs>
     <use xlink:href="#DejaVuSans-98"/>
     <use x="63.476562" xlink:href="#DejaVuSans-98"/>
     <use x="126.953125" xlink:href="#DejaVuSans-111"/>
     <use x="188.134766" xlink:href="#DejaVuSans-98"/>
     <use x="251.611328" xlink:href="#DejaVuSans-45"/>
     <use x="287.695312" xlink:href="#DejaVuSans-99"/>
     <use x="342.675781" xlink:href="#DejaVuSans-111"/>
     <use x="403.857422" xlink:href="#DejaVuSans-110"/>
     <use x="467.236328" xlink:href="#DejaVuSans-115"/>
     <use x="519.335938" xlink:href="#DejaVuSans-116"/>
     <use x="558.544922" xlink:href="#DejaVuSans-114"/>
     <use x="599.658203" xlink:href="#DejaVuSans-97"/>
     <use x="660.9375" xlink:href="#DejaVuSans-105"/>
     <use x="688.720703" xlink:href="#DejaVuSans-110"/>
     <use x="752.099609" xlink:href="#DejaVuSans-101"/>
     <use x="813.623047" xlink:href="#DejaVuSans-100"/>
     <use x="877.099609" xlink:href="#DejaVuSans-32"/>
     <use x="908.886719" xlink:href="#DejaVuSans-102"/>
     <use x="944.091797" xlink:href="#DejaVuSans-52"/>
     <use x="1007.714844" xlink:href="#DejaVuSans-56"/>
    </g>
    <!-- 41 targets: 100..1e-06 -->
    <g transform="translate(60.632064 49.533135)scale(0.102 -0.102)">
     <defs>
      <path d="M 11.71875 12.40625 
L 22.015625 12.40625 
L 22.015625 0 
L 11.71875 0 
z
M 11.71875 51.703125 
L 22.015625 51.703125 
L 22.015625 39.3125 
L 11.71875 39.3125 
z
" id="DejaVuSans-58"/>
     </defs>
     <use xlink:href="#DejaVuSans-52"/>
     <use x="63.623047" xlink:href="#DejaVuSans-49"/>
     <use x="127.246094" xlink:href="#DejaVuSans-32"/>
     <use x="159.033203" xlink:href="#DejaVuSans-116"/>
     <use x="198.242188" xlink:href="#DejaVuSans-97"/>
     <use x="259.521484" xlink:href="#DejaVuSans-114"/>
     <use x="298.884766" xlink:href="#DejaVuSans-103"/>
     <use x="362.361328" xlink:href="#DejaVuSans-101"/>
     <use x="423.884766" xlink:href="#DejaVuSans-116"/>
     <use x="463.09375" xlink:href="#DejaVuSans-115"/>
     <use x="515.193359" xlink:href="#DejaVuSans-58"/>
     <use x="548.884766" xlink:href="#DejaVuSans-32"/>
     <use x="580.671875" xlink:href="#DejaVuSans-49"/>
     <use x="644.294922" xlink:href="#DejaVuSans-48"/>
     <use x="707.917969" xlink:href="#DejaVuSans-48"/>
     <use x="771.541016" xlink:href="#DejaVuSans-46"/>
     <use x="803.328125" xlink:href="#DejaVuSans-46"/>
     <use x="835.115234" xlink:href="#DejaVuSans-49"/>
     <use x="898.738281" xlink:href="#DejaVuSans-101"/>
     <use x="960.261719" xlink:href="#DejaVuSans-45"/>
     <use x="996.345703" xlink:href="#DejaVuSans-48"/>
     <use x="1059.96875" xlink:href="#DejaVuSans-54"/>
    </g>
    <!-- evals = f-evals + g-evals -->
    <g transform="translate(60.632064 60.954904)scale(0.102 -0.102)">
     <defs>
      <path d="M 10.59375 45.40625 
L 73.1875 45.40625 
L 73.1875 37.203125 
L 10.59375 37.203125 
z
M 10.59375 25.484375 
L 73.1875 25.484375 
L 73.1875 17.1875 
L 10.59375 17.1875 
z
" id="DejaVuSans-61"/>
      <path d="M 46 62.703125 
L 46 35.5 
L 73.1875 35.5 
L 73.1875 27.203125 
L 46 27.203125 
L 46 0 
L 37.796875 0 
L 37.796875 27.203125 
L 10.59375 27.203125 
L 10.59375 35.5 
L 37.796875 35.5 
L 37.796875 62.703125 
z
" id="DejaVuSans-43"/>
     </defs>
     <use xlink:href="#DejaVuSans-101"/>
     <use x="61.523438" xlink:href="#DejaVuSans-118"/>
     <use x="120.703125" xlink:href="#DejaVuSans-97"/>
     <use x="181.982422" xlink:href="#DejaVuSans-108"/>
     <use x="209.765625" xlink:href="#DejaVuSans-115"/>
     <use x="261.865234" xlink:href="#DejaVuSans-32"/>
     <use x="293.652344" xlink:href="#DejaVuSans-61"/>
     <use x="377.441406" xlink:href="#DejaVuSans-32"/>
     <use x="409.228516" xlink:href="#DejaVuSans-102"/>
     <use x="438.933594" xlink:href="#DejaVuSans-45"/>
     <use x="475.017578" xlink:href="#DejaVuSans-101"/>
     <use x="536.541016" xlink:href="#DejaVuSans-118"/>
     <use x="595.720703" xlink:href="#DejaVuSans-97"/>
     <use x="657" xlink:href="#DejaVuSans-108"/>
     <use x="684.783203" xlink:href="#DejaVuSans-115"/>
     <use x="736.882812" xlink:href="#DejaVuSans-32"/>
     <use x="768.669922" xlink:href="#DejaVuSans-43"/>
     <use x="852.458984" xlink:href="#DejaVuSans-32"/>
     <use x="884.246094" xlink:href="#DejaVuSans-103"/>
     <use x="947.722656" xlink:href="#DejaVuSans-45"/>
     <use x="983.806641" xlink:href="#DejaVuSans-101"/>
     <use x="1045.330078" xlink:href="#DejaVuSans-118"/>
     <use x="1104.509766" xlink:href="#DejaVuSans-97"/>
     <use x="1165.789062" xlink:href="#DejaVuSans-108"/>
     <use x="1193.572266" xlink:href="#DejaVuSans-115"/>
    </g>
    <!-- 15 instances -->
    <g transform="translate(60.632064 72.376672)scale(0.102 -0.102)">
     <use xlink:href="#DejaVuSans-49"/>
     <use x="63.623047" xlink:href="#DejaVuSans-53"/>
     <use x="127.246094" xlink:href="#DejaVuSans-32"/>
     <use x="159.033203" xlink:href="#DejaVuSans-105"/>
     <use x="186.816406" xlink:href="#DejaVuSans-110"/>
     <use x="250.195312" xlink:href="#DejaVuSans-115"/>
     <use x="302.294922" xlink:href="#DejaVuSans-116"/>
     <use x="341.503906" xlink:href="#DejaVuSans-97"/>
     <use x="402.783203" xlink:href="#DejaVuSans-110"/>
     <use x="466.162109" xlink:href="#DejaVuSans-99"/>
     <use x="521.142578" xlink:href="#DejaVuSans-101"/>
     <use x="582.666016" xlink:href="#DejaVuSans-115"/>
    </g>
   </g>
   <g id="text_20">
    <!-- v2.4.159 -->
    <g style="fill:#808080;" transform="translate(187.15945 294.151352)scale(0.1 -0.1)">
     <defs>
      <path d="M 10.984375 1.515625 
L 10.984375 10.5 
Q 14.703125 8.734375 18.5 7.8125 
Q 22.3125 6.890625 25.984375 6.890625 
Q 35.75 6.890625 40.890625 13.453125 
Q 46.046875 20.015625 46.78125 33.40625 
Q 43.953125 29.203125 39.59375 26.953125 
Q 35.25 24.703125 29.984375 24.703125 
Q 19.046875 24.703125 12.671875 31.3125 
Q 6.296875 37.9375 6.296875 49.421875 
Q 6.296875 60.640625 12.9375 67.421875 
Q 19.578125 74.21875 30.609375 74.21875 
Q 43.265625 74.21875 49.921875 64.515625 
Q 56.59375 54.828125 56.59375 36.375 
Q 56.59375 19.140625 48.40625 8.859375 
Q 40.234375 -1.421875 26.421875 -1.421875 
Q 22.703125 -1.421875 18.890625 -0.6875 
Q 15.09375 0.046875 10.984375 1.515625 
z
M 30.609375 32.421875 
Q 37.25 32.421875 41.125 36.953125 
Q 45.015625 41.5 45.015625 49.421875 
Q 45.015625 57.28125 41.125 61.84375 
Q 37.25 66.40625 30.609375 66.40625 
Q 23.96875 66.40625 20.09375 61.84375 
Q 16.21875 57.28125 16.21875 49.421875 
Q 16.21875 41.5 20.09375 36.953125 
Q 23.96875 32.421875 30.609375 32.421875 
z
" id="DejaVuSans-57"/>
     </defs>
     <use xlink:href="#DejaVuSans-118"/>
     <use x="59.179688" xlink:href="#DejaVuSans-50"/>
     <use x="122.802734" xlink:href="#DejaVuSans-46"/>
     <use x="154.589844" xlink:href="#DejaVuSans-52"/>
     <use x="218.212891" xlink:href="#DejaVuSans-46"/>
     <use x="250" xlink:href="#DejaVuSans-49"/>
     <use x="313.623047" xlink:href="#DejaVuSans-53"/>
     <use x="377.246094" xlink:href="#DejaVuSans-57"/>
    </g>
   </g>
   <g id="text_21">
    <!-- 48 Sep. Rastrigin, m=9+int(9n/2) -->
    <g transform="translate(41.270387 21.648)scale(0.2 -0.2)">
     <defs>
      <path d="M 53.515625 70.515625 
L 53.515625 60.890625 
Q 47.90625 63.578125 42.921875 64.890625 
Q 37.9375 66.21875 33.296875 66.21875 
Q 25.25 66.21875 20.875 63.09375 
Q 16.5 59.96875 16.5 54.203125 
Q 16.5 49.359375 19.40625 46.890625 
Q 22.3125 44.4375 30.421875 42.921875 
L 36.375 41.703125 
Q 47.40625 39.59375 52.65625 34.296875 
Q 57.90625 29 57.90625 20.125 
Q 57.90625 9.515625 50.796875 4.046875 
Q 43.703125 -1.421875 29.984375 -1.421875 
Q 24.8125 -1.421875 18.96875 -0.25 
Q 13.140625 0.921875 6.890625 3.21875 
L 6.890625 13.375 
Q 12.890625 10.015625 18.65625 8.296875 
Q 24.421875 6.59375 29.984375 6.59375 
Q 38.421875 6.59375 43.015625 9.90625 
Q 47.609375 13.234375 47.609375 19.390625 
Q 47.609375 24.75 44.3125 27.78125 
Q 41.015625 30.8125 33.5 32.328125 
L 27.484375 33.5 
Q 16.453125 35.6875 11.515625 40.375 
Q 6.59375 45.0625 6.59375 53.421875 
Q 6.59375 63.09375 13.40625 68.65625 
Q 20.21875 74.21875 32.171875 74.21875 
Q 37.3125 74.21875 42.625 73.28125 
Q 47.953125 72.359375 53.515625 70.515625 
z
" id="DejaVuSans-83"/>
      <path d="M 44.390625 34.1875 
Q 47.5625 33.109375 50.5625 29.59375 
Q 53.5625 26.078125 56.59375 19.921875 
L 66.609375 0 
L 56 0 
L 46.6875 18.703125 
Q 43.0625 26.03125 39.671875 28.421875 
Q 36.28125 30.8125 30.421875 30.8125 
L 19.671875 30.8125 
L 19.671875 0 
L 9.8125 0 
L 9.8125 72.90625 
L 32.078125 72.90625 
Q 44.578125 72.90625 50.734375 67.671875 
Q 56.890625 62.453125 56.890625 51.90625 
Q 56.890625 45.015625 53.6875 40.46875 
Q 50.484375 35.9375 44.390625 34.1875 
z
M 19.671875 64.796875 
L 19.671875 38.921875 
L 32.078125 38.921875 
Q 39.203125 38.921875 42.84375 42.21875 
Q 46.484375 45.515625 46.484375 51.90625 
Q 46.484375 58.296875 42.84375 61.546875 
Q 39.203125 64.796875 32.078125 64.796875 
z
" id="DejaVuSans-82"/>
     </defs>
     <use xlink:href="#DejaVuSans-52"/>
     <use x="63.623047" xlink:href="#DejaVuSans-56"/>
     <use x="127.246094" xlink:href="#DejaVuSans-32"/>
     <use x="159.033203" xlink:href="#DejaVuSans-83"/>
     <use x="222.509766" xlink:href="#DejaVuSans-101"/>
     <use x="284.033203" xlink:href="#DejaVuSans-112"/>
     <use x="347.509766" xlink:href="#DejaVuSans-46"/>
     <use x="379.296875" xlink:href="#DejaVuSans-32"/>
     <use x="411.083984" xlink:href="#DejaVuSans-82"/>
     <use x="478.316406" xlink:href="#DejaVuSans-97"/>
     <use x="539.595703" xlink:href="#DejaVuSans-115"/>
     <use x="591.695312" xlink:href="#DejaVuSans-116"/>
     <use x="630.904297" xlink:href="#DejaVuSans-114"/>
     <use x="672.017578" xlink:href="#DejaVuSans-105"/>
     <use x="699.800781" xlink:href="#DejaVuSans-103"/>
     <use x="763.277344" xlink:href="#DejaVuSans-105"/>
     <use x="791.060547" xlink:href="#DejaVuSans-110"/>
     <use x="854.439453" xlink:href="#DejaVuSans-44"/>
     <use x="886.226562" xlink:href="#DejaVuSans-32"/>
     <use x="918.013672" xlink:href="#DejaVuSans-109"/>
     <use x="1015.425781" xlink:href="#DejaVuSans-61"/>
     <use x="1099.214844" xlink:href="#DejaVuSans-57"/>
     <use x="1162.837891" xlink:href="#DejaVuSans-43"/>
     <use x="1246.626953" xlink:href="#DejaVuSans-105"/>
     <use x="1274.410156" xlink:href="#DejaVuSans-110"/>
     <use x="1337.789062" xlink:href="#DejaVuSans-116"/>
     <use x="1376.998047" xlink:href="#DejaVuSans-40"/>
     <use x="1416.011719" xlink:href="#DejaVuSans-57"/>
     <use x="1479.634766" xlink:href="#DejaVuSans-110"/>
     <use x="1543.013672" xlink:href="#DejaVuSans-47"/>
     <use x="1576.705078" xlink:href="#DejaVuSans-50"/>
     <use x="1640.328125" xlink:href="#DejaVuSans-41"/>
    </g>
   </g>
  </g>
 </g>
 <defs>
  <clipPath id="p40cd42d36c">
   <rect height="271.296" width="303.2064" x="57.6" y="27.648"/>
  </clipPath>
 </defs>
</svg>
