<?xml version="1.0" encoding="utf-8" standalone="no"?>
<!DOCTYPE svg PUBLIC "-//W3C//DTD SVG 1.1//EN"
  "http://www.w3.org/Graphics/SVG/1.1/DTD/svg11.dtd">
<!-- Created with matplotlib (https://matplotlib.org/) -->
<svg height="345.6pt" version="1.1" viewBox="0 0 460.8 345.6" width="460.8pt" xmlns="http://www.w3.org/2000/svg" xmlns:xlink="http://www.w3.org/1999/xlink">
 <metadata>
  <rdf:RDF xmlns:cc="http://creativecommons.org/ns#" xmlns:dc="http://purl.org/dc/elements/1.1/" xmlns:rdf="http://www.w3.org/1999/02/22-rdf-syntax-ns#">
   <cc:Work>
    <dc:type rdf:resource="http://purl.org/dc/dcmitype/StillImage"/>
    <dc:date>2022-02-09T00:08:09.205340</dc:date>
    <dc:format>image/svg+xml</dc:format>
    <dc:creator>
     <cc:Agent>
      <dc:title>Matplotlib v3.3.3, https://matplotlib.org/</dc:title>
     </cc:Agent>
    </dc:creator>
   </cc:Work>
  </rdf:RDF>
 </metadata>
 <defs>
  <style type="text/css">*{stroke-linecap:butt;stroke-linejoin:round;}</style>
 </defs>
 <g id="figure_1">
  <g id="patch_1">
   <path d="M 0 345.6 
L 460.8 345.6 
L 460.8 0 
L 0 0 
z
" style="fill:#ffffff;"/>
  </g>
  <g id="axes_1">
   <g id="patch_2">
    <path d="M 57.6 298.944 
L 360.8064 298.944 
L 360.8064 27.648 
L 57.6 27.648 
z
" style="fill:#ffffff;"/>
   </g>
   <g id="matplotlib.axis_1">
    <g id="xtick_1">
     <g id="line2d_1">
      <path clip-path="url(#p9658529fae)" d="M 57.6 298.944 
L 57.6 27.648 
" style="fill:none;stroke:#b0b0b0;stroke-linecap:square;stroke-width:0.8;"/>
     </g>
     <g id="line2d_2">
      <defs>
       <path d="M 0 0 
L 0 3.5 
" id="mb45d2c5062" style="stroke:#000000;stroke-width:0.8;"/>
      </defs>
      <g>
       <use style="stroke:#000000;stroke-width:0.8;" x="57.6" xlink:href="#mb45d2c5062" y="298.944"/>
      </g>
     </g>
     <g id="text_1">
      <!-- 0 -->
      <g transform="translate(52.191875 318.861344)scale(0.17 -0.17)">
       <defs>
        <path d="M 31.78125 66.40625 
Q 24.171875 66.40625 20.328125 58.90625 
Q 16.5 51.421875 16.5 36.375 
Q 16.5 21.390625 20.328125 13.890625 
Q 24.171875 6.390625 31.78125 6.390625 
Q 39.453125 6.390625 43.28125 13.890625 
Q 47.125 21.390625 47.125 36.375 
Q 47.125 51.421875 43.28125 58.90625 
Q 39.453125 66.40625 31.78125 66.40625 
z
M 31.78125 74.21875 
Q 44.046875 74.21875 50.515625 64.515625 
Q 56.984375 54.828125 56.984375 36.375 
Q 56.984375 17.96875 50.515625 8.265625 
Q 44.046875 -1.421875 31.78125 -1.421875 
Q 19.53125 -1.421875 13.0625 8.265625 
Q 6.59375 17.96875 6.59375 36.375 
Q 6.59375 54.828125 13.0625 64.515625 
Q 19.53125 74.21875 31.78125 74.21875 
z
" id="DejaVuSans-48"/>
       </defs>
       <use xlink:href="#DejaVuSans-48"/>
      </g>
     </g>
    </g>
    <g id="xtick_2">
     <g id="line2d_3">
      <path clip-path="url(#p9658529fae)" d="M 144.2304 298.944 
L 144.2304 27.648 
" style="fill:none;stroke:#b0b0b0;stroke-linecap:square;stroke-width:0.8;"/>
     </g>
     <g id="line2d_4">
      <g>
       <use style="stroke:#000000;stroke-width:0.8;" x="144.2304" xlink:href="#mb45d2c5062" y="298.944"/>
      </g>
     </g>
     <g id="text_2">
      <!-- 2 -->
      <g transform="translate(138.822275 318.861344)scale(0.17 -0.17)">
       <defs>
        <path d="M 19.1875 8.296875 
L 53.609375 8.296875 
L 53.609375 0 
L 7.328125 0 
L 7.328125 8.296875 
Q 12.9375 14.109375 22.625 23.890625 
Q 32.328125 33.6875 34.8125 36.53125 
Q 39.546875 41.84375 41.421875 45.53125 
Q 43.3125 49.21875 43.3125 52.78125 
Q 43.3125 58.59375 39.234375 62.25 
Q 35.15625 65.921875 28.609375 65.921875 
Q 23.96875 65.921875 18.8125 64.3125 
Q 13.671875 62.703125 7.8125 59.421875 
L 7.8125 69.390625 
Q 13.765625 71.78125 18.9375 73 
Q 24.125 74.21875 28.421875 74.21875 
Q 39.75 74.21875 46.484375 68.546875 
Q 53.21875 62.890625 53.21875 53.421875 
Q 53.21875 48.921875 51.53125 44.890625 
Q 49.859375 40.875 45.40625 35.40625 
Q 44.1875 33.984375 37.640625 27.21875 
Q 31.109375 20.453125 19.1875 8.296875 
z
" id="DejaVuSans-50"/>
       </defs>
       <use xlink:href="#DejaVuSans-50"/>
      </g>
     </g>
    </g>
    <g id="xtick_3">
     <g id="line2d_5">
      <path clip-path="url(#p9658529fae)" d="M 230.8608 298.944 
L 230.8608 27.648 
" style="fill:none;stroke:#b0b0b0;stroke-linecap:square;stroke-width:0.8;"/>
     </g>
     <g id="line2d_6">
      <g>
       <use style="stroke:#000000;stroke-width:0.8;" x="230.8608" xlink:href="#mb45d2c5062" y="298.944"/>
      </g>
     </g>
     <g id="text_3">
      <!-- 4 -->
      <g transform="translate(225.452675 318.861344)scale(0.17 -0.17)">
       <defs>
        <path d="M 37.796875 64.3125 
L 12.890625 25.390625 
L 37.796875 25.390625 
z
M 35.203125 72.90625 
L 47.609375 72.90625 
L 47.609375 25.390625 
L 58.015625 25.390625 
L 58.015625 17.1875 
L 47.609375 17.1875 
L 47.609375 0 
L 37.796875 0 
L 37.796875 17.1875 
L 4.890625 17.1875 
L 4.890625 26.703125 
z
" id="DejaVuSans-52"/>
       </defs>
       <use xlink:href="#DejaVuSans-52"/>
      </g>
     </g>
    </g>
    <g id="xtick_4">
     <g id="line2d_7">
      <path clip-path="url(#p9658529fae)" d="M 317.4912 298.944 
L 317.4912 27.648 
" style="fill:none;stroke:#b0b0b0;stroke-linecap:square;stroke-width:0.8;"/>
     </g>
     <g id="line2d_8">
      <g>
       <use style="stroke:#000000;stroke-width:0.8;" x="317.4912" xlink:href="#mb45d2c5062" y="298.944"/>
      </g>
     </g>
     <g id="text_4">
      <!-- 6 -->
      <g transform="translate(312.083075 318.861344)scale(0.17 -0.17)">
       <defs>
        <path d="M 33.015625 40.375 
Q 26.375 40.375 22.484375 35.828125 
Q 18.609375 31.296875 18.609375 23.390625 
Q 18.609375 15.53125 22.484375 10.953125 
Q 26.375 6.390625 33.015625 6.390625 
Q 39.65625 6.390625 43.53125 10.953125 
Q 47.40625 15.53125 47.40625 23.390625 
Q 47.40625 31.296875 43.53125 35.828125 
Q 39.65625 40.375 33.015625 40.375 
z
M 52.59375 71.296875 
L 52.59375 62.3125 
Q 48.875 64.0625 45.09375 64.984375 
Q 41.3125 65.921875 37.59375 65.921875 
Q 27.828125 65.921875 22.671875 59.328125 
Q 17.53125 52.734375 16.796875 39.40625 
Q 19.671875 43.65625 24.015625 45.921875 
Q 28.375 48.1875 33.59375 48.1875 
Q 44.578125 48.1875 50.953125 41.515625 
Q 57.328125 34.859375 57.328125 23.390625 
Q 57.328125 12.15625 50.6875 5.359375 
Q 44.046875 -1.421875 33.015625 -1.421875 
Q 20.359375 -1.421875 13.671875 8.265625 
Q 6.984375 17.96875 6.984375 36.375 
Q 6.984375 53.65625 15.1875 63.9375 
Q 23.390625 74.21875 37.203125 74.21875 
Q 40.921875 74.21875 44.703125 73.484375 
Q 48.484375 72.75 52.59375 71.296875 
z
" id="DejaVuSans-54"/>
       </defs>
       <use xlink:href="#DejaVuSans-54"/>
      </g>
     </g>
    </g>
    <g id="xtick_5">
     <g id="line2d_9">
      <path clip-path="url(#p9658529fae)" d="M 100.9152 298.944 
L 100.9152 27.648 
" style="fill:none;stroke:#b0b0b0;stroke-linecap:square;stroke-width:0.8;"/>
     </g>
     <g id="line2d_10">
      <defs>
       <path d="M 0 0 
L 0 2 
" id="me1dd67597e" style="stroke:#000000;stroke-width:0.6;"/>
      </defs>
      <g>
       <use style="stroke:#000000;stroke-width:0.6;" x="100.9152" xlink:href="#me1dd67597e" y="298.944"/>
      </g>
     </g>
    </g>
    <g id="xtick_6">
     <g id="line2d_11">
      <path clip-path="url(#p9658529fae)" d="M 187.5456 298.944 
L 187.5456 27.648 
" style="fill:none;stroke:#b0b0b0;stroke-linecap:square;stroke-width:0.8;"/>
     </g>
     <g id="line2d_12">
      <g>
       <use style="stroke:#000000;stroke-width:0.6;" x="187.5456" xlink:href="#me1dd67597e" y="298.944"/>
      </g>
     </g>
    </g>
    <g id="xtick_7">
     <g id="line2d_13">
      <path clip-path="url(#p9658529fae)" d="M 274.176 298.944 
L 274.176 27.648 
" style="fill:none;stroke:#b0b0b0;stroke-linecap:square;stroke-width:0.8;"/>
     </g>
     <g id="line2d_14">
      <g>
       <use style="stroke:#000000;stroke-width:0.6;" x="274.176" xlink:href="#me1dd67597e" y="298.944"/>
      </g>
     </g>
    </g>
    <g id="xtick_8">
     <g id="line2d_15">
      <path clip-path="url(#p9658529fae)" d="M 360.8064 298.944 
L 360.8064 27.648 
" style="fill:none;stroke:#b0b0b0;stroke-linecap:square;stroke-width:0.8;"/>
     </g>
     <g id="line2d_16">
      <g>
       <use style="stroke:#000000;stroke-width:0.6;" x="360.8064" xlink:href="#me1dd67597e" y="298.944"/>
      </g>
     </g>
    </g>
    <g id="text_5">
     <!-- log10(evals / dimension) -->
     <g transform="translate(104.238825 339.314156)scale(0.17 -0.17)">
      <defs>
       <path d="M 9.421875 75.984375 
L 18.40625 75.984375 
L 18.40625 0 
L 9.421875 0 
z
" id="DejaVuSans-108"/>
       <path d="M 30.609375 48.390625 
Q 23.390625 48.390625 19.1875 42.75 
Q 14.984375 37.109375 14.984375 27.296875 
Q 14.984375 17.484375 19.15625 11.84375 
Q 23.34375 6.203125 30.609375 6.203125 
Q 37.796875 6.203125 41.984375 11.859375 
Q 46.1875 17.53125 46.1875 27.296875 
Q 46.1875 37.015625 41.984375 42.703125 
Q 37.796875 48.390625 30.609375 48.390625 
z
M 30.609375 56 
Q 42.328125 56 49.015625 48.375 
Q 55.71875 40.765625 55.71875 27.296875 
Q 55.71875 13.875 49.015625 6.21875 
Q 42.328125 -1.421875 30.609375 -1.421875 
Q 18.84375 -1.421875 12.171875 6.21875 
Q 5.515625 13.875 5.515625 27.296875 
Q 5.515625 40.765625 12.171875 48.375 
Q 18.84375 56 30.609375 56 
z
" id="DejaVuSans-111"/>
       <path d="M 45.40625 27.984375 
Q 45.40625 37.75 41.375 43.109375 
Q 37.359375 48.484375 30.078125 48.484375 
Q 22.859375 48.484375 18.828125 43.109375 
Q 14.796875 37.75 14.796875 27.984375 
Q 14.796875 18.265625 18.828125 12.890625 
Q 22.859375 7.515625 30.078125 7.515625 
Q 37.359375 7.515625 41.375 12.890625 
Q 45.40625 18.265625 45.40625 27.984375 
z
M 54.390625 6.78125 
Q 54.390625 -7.171875 48.1875 -13.984375 
Q 42 -20.796875 29.203125 -20.796875 
Q 24.46875 -20.796875 20.265625 -20.09375 
Q 16.0625 -19.390625 12.109375 -17.921875 
L 12.109375 -9.1875 
Q 16.0625 -11.328125 19.921875 -12.34375 
Q 23.78125 -13.375 27.78125 -13.375 
Q 36.625 -13.375 41.015625 -8.765625 
Q 45.40625 -4.15625 45.40625 5.171875 
L 45.40625 9.625 
Q 42.625 4.78125 38.28125 2.390625 
Q 33.9375 0 27.875 0 
Q 17.828125 0 11.671875 7.65625 
Q 5.515625 15.328125 5.515625 27.984375 
Q 5.515625 40.671875 11.671875 48.328125 
Q 17.828125 56 27.875 56 
Q 33.9375 56 38.28125 53.609375 
Q 42.625 51.21875 45.40625 46.390625 
L 45.40625 54.6875 
L 54.390625 54.6875 
z
" id="DejaVuSans-103"/>
       <path d="M 12.40625 8.296875 
L 28.515625 8.296875 
L 28.515625 63.921875 
L 10.984375 60.40625 
L 10.984375 69.390625 
L 28.421875 72.90625 
L 38.28125 72.90625 
L 38.28125 8.296875 
L 54.390625 8.296875 
L 54.390625 0 
L 12.40625 0 
z
" id="DejaVuSans-49"/>
       <path d="M 31 75.875 
Q 24.46875 64.65625 21.28125 53.65625 
Q 18.109375 42.671875 18.109375 31.390625 
Q 18.109375 20.125 21.3125 9.0625 
Q 24.515625 -2 31 -13.1875 
L 23.1875 -13.1875 
Q 15.875 -1.703125 12.234375 9.375 
Q 8.59375 20.453125 8.59375 31.390625 
Q 8.59375 42.28125 12.203125 53.3125 
Q 15.828125 64.359375 23.1875 75.875 
z
" id="DejaVuSans-40"/>
       <path d="M 56.203125 29.59375 
L 56.203125 25.203125 
L 14.890625 25.203125 
Q 15.484375 15.921875 20.484375 11.0625 
Q 25.484375 6.203125 34.421875 6.203125 
Q 39.59375 6.203125 44.453125 7.46875 
Q 49.3125 8.734375 54.109375 11.28125 
L 54.109375 2.78125 
Q 49.265625 0.734375 44.1875 -0.34375 
Q 39.109375 -1.421875 33.890625 -1.421875 
Q 20.796875 -1.421875 13.15625 6.1875 
Q 5.515625 13.8125 5.515625 26.8125 
Q 5.515625 40.234375 12.765625 48.109375 
Q 20.015625 56 32.328125 56 
Q 43.359375 56 49.78125 48.890625 
Q 56.203125 41.796875 56.203125 29.59375 
z
M 47.21875 32.234375 
Q 47.125 39.59375 43.09375 43.984375 
Q 39.0625 48.390625 32.421875 48.390625 
Q 24.90625 48.390625 20.390625 44.140625 
Q 15.875 39.890625 15.1875 32.171875 
z
" id="DejaVuSans-101"/>
       <path d="M 2.984375 54.6875 
L 12.5 54.6875 
L 29.59375 8.796875 
L 46.6875 54.6875 
L 56.203125 54.6875 
L 35.6875 0 
L 23.484375 0 
z
" id="DejaVuSans-118"/>
       <path d="M 34.28125 27.484375 
Q 23.390625 27.484375 19.1875 25 
Q 14.984375 22.515625 14.984375 16.5 
Q 14.984375 11.71875 18.140625 8.90625 
Q 21.296875 6.109375 26.703125 6.109375 
Q 34.1875 6.109375 38.703125 11.40625 
Q 43.21875 16.703125 43.21875 25.484375 
L 43.21875 27.484375 
z
M 52.203125 31.203125 
L 52.203125 0 
L 43.21875 0 
L 43.21875 8.296875 
Q 40.140625 3.328125 35.546875 0.953125 
Q 30.953125 -1.421875 24.3125 -1.421875 
Q 15.921875 -1.421875 10.953125 3.296875 
Q 6 8.015625 6 15.921875 
Q 6 25.140625 12.171875 29.828125 
Q 18.359375 34.515625 30.609375 34.515625 
L 43.21875 34.515625 
L 43.21875 35.40625 
Q 43.21875 41.609375 39.140625 45 
Q 35.0625 48.390625 27.6875 48.390625 
Q 23 48.390625 18.546875 47.265625 
Q 14.109375 46.140625 10.015625 43.890625 
L 10.015625 52.203125 
Q 14.9375 54.109375 19.578125 55.046875 
Q 24.21875 56 28.609375 56 
Q 40.484375 56 46.34375 49.84375 
Q 52.203125 43.703125 52.203125 31.203125 
z
" id="DejaVuSans-97"/>
       <path d="M 44.28125 53.078125 
L 44.28125 44.578125 
Q 40.484375 46.53125 36.375 47.5 
Q 32.28125 48.484375 27.875 48.484375 
Q 21.1875 48.484375 17.84375 46.4375 
Q 14.5 44.390625 14.5 40.28125 
Q 14.5 37.15625 16.890625 35.375 
Q 19.28125 33.59375 26.515625 31.984375 
L 29.59375 31.296875 
Q 39.15625 29.25 43.1875 25.515625 
Q 47.21875 21.78125 47.21875 15.09375 
Q 47.21875 7.46875 41.1875 3.015625 
Q 35.15625 -1.421875 24.609375 -1.421875 
Q 20.21875 -1.421875 15.453125 -0.5625 
Q 10.6875 0.296875 5.421875 2 
L 5.421875 11.28125 
Q 10.40625 8.6875 15.234375 7.390625 
Q 20.0625 6.109375 24.8125 6.109375 
Q 31.15625 6.109375 34.5625 8.28125 
Q 37.984375 10.453125 37.984375 14.40625 
Q 37.984375 18.0625 35.515625 20.015625 
Q 33.0625 21.96875 24.703125 23.78125 
L 21.578125 24.515625 
Q 13.234375 26.265625 9.515625 29.90625 
Q 5.8125 33.546875 5.8125 39.890625 
Q 5.8125 47.609375 11.28125 51.796875 
Q 16.75 56 26.8125 56 
Q 31.78125 56 36.171875 55.265625 
Q 40.578125 54.546875 44.28125 53.078125 
z
" id="DejaVuSans-115"/>
       <path id="DejaVuSans-32"/>
       <path d="M 25.390625 72.90625 
L 33.6875 72.90625 
L 8.296875 -9.28125 
L 0 -9.28125 
z
" id="DejaVuSans-47"/>
       <path d="M 45.40625 46.390625 
L 45.40625 75.984375 
L 54.390625 75.984375 
L 54.390625 0 
L 45.40625 0 
L 45.40625 8.203125 
Q 42.578125 3.328125 38.25 0.953125 
Q 33.9375 -1.421875 27.875 -1.421875 
Q 17.96875 -1.421875 11.734375 6.484375 
Q 5.515625 14.40625 5.515625 27.296875 
Q 5.515625 40.1875 11.734375 48.09375 
Q 17.96875 56 27.875 56 
Q 33.9375 56 38.25 53.625 
Q 42.578125 51.265625 45.40625 46.390625 
z
M 14.796875 27.296875 
Q 14.796875 17.390625 18.875 11.75 
Q 22.953125 6.109375 30.078125 6.109375 
Q 37.203125 6.109375 41.296875 11.75 
Q 45.40625 17.390625 45.40625 27.296875 
Q 45.40625 37.203125 41.296875 42.84375 
Q 37.203125 48.484375 30.078125 48.484375 
Q 22.953125 48.484375 18.875 42.84375 
Q 14.796875 37.203125 14.796875 27.296875 
z
" id="DejaVuSans-100"/>
       <path d="M 9.421875 54.6875 
L 18.40625 54.6875 
L 18.40625 0 
L 9.421875 0 
z
M 9.421875 75.984375 
L 18.40625 75.984375 
L 18.40625 64.59375 
L 9.421875 64.59375 
z
" id="DejaVuSans-105"/>
       <path d="M 52 44.1875 
Q 55.375 50.25 60.0625 53.125 
Q 64.75 56 71.09375 56 
Q 79.640625 56 84.28125 50.015625 
Q 88.921875 44.046875 88.921875 33.015625 
L 88.921875 0 
L 79.890625 0 
L 79.890625 32.71875 
Q 79.890625 40.578125 77.09375 44.375 
Q 74.3125 48.1875 68.609375 48.1875 
Q 61.625 48.1875 57.5625 43.546875 
Q 53.515625 38.921875 53.515625 30.90625 
L 53.515625 0 
L 44.484375 0 
L 44.484375 32.71875 
Q 44.484375 40.625 41.703125 44.40625 
Q 38.921875 48.1875 33.109375 48.1875 
Q 26.21875 48.1875 22.15625 43.53125 
Q 18.109375 38.875 18.109375 30.90625 
L 18.109375 0 
L 9.078125 0 
L 9.078125 54.6875 
L 18.109375 54.6875 
L 18.109375 46.1875 
Q 21.1875 51.21875 25.484375 53.609375 
Q 29.78125 56 35.6875 56 
Q 41.65625 56 45.828125 52.96875 
Q 50 49.953125 52 44.1875 
z
" id="DejaVuSans-109"/>
       <path d="M 54.890625 33.015625 
L 54.890625 0 
L 45.90625 0 
L 45.90625 32.71875 
Q 45.90625 40.484375 42.875 44.328125 
Q 39.84375 48.1875 33.796875 48.1875 
Q 26.515625 48.1875 22.3125 43.546875 
Q 18.109375 38.921875 18.109375 30.90625 
L 18.109375 0 
L 9.078125 0 
L 9.078125 54.6875 
L 18.109375 54.6875 
L 18.109375 46.1875 
Q 21.34375 51.125 25.703125 53.5625 
Q 30.078125 56 35.796875 56 
Q 45.21875 56 50.046875 50.171875 
Q 54.890625 44.34375 54.890625 33.015625 
z
" id="DejaVuSans-110"/>
       <path d="M 8.015625 75.875 
L 15.828125 75.875 
Q 23.140625 64.359375 26.78125 53.3125 
Q 30.421875 42.28125 30.421875 31.390625 
Q 30.421875 20.453125 26.78125 9.375 
Q 23.140625 -1.703125 15.828125 -13.1875 
L 8.015625 -13.1875 
Q 14.5 -2 17.703125 9.0625 
Q 20.90625 20.125 20.90625 31.390625 
Q 20.90625 42.671875 17.703125 53.65625 
Q 14.5 64.65625 8.015625 75.875 
z
" id="DejaVuSans-41"/>
      </defs>
      <use xlink:href="#DejaVuSans-108"/>
      <use x="27.783203" xlink:href="#DejaVuSans-111"/>
      <use x="88.964844" xlink:href="#DejaVuSans-103"/>
      <use x="152.441406" xlink:href="#DejaVuSans-49"/>
      <use x="216.064453" xlink:href="#DejaVuSans-48"/>
      <use x="279.6875" xlink:href="#DejaVuSans-40"/>
      <use x="318.701172" xlink:href="#DejaVuSans-101"/>
      <use x="380.224609" xlink:href="#DejaVuSans-118"/>
      <use x="439.404297" xlink:href="#DejaVuSans-97"/>
      <use x="500.683594" xlink:href="#DejaVuSans-108"/>
      <use x="528.466797" xlink:href="#DejaVuSans-115"/>
      <use x="580.566406" xlink:href="#DejaVuSans-32"/>
      <use x="612.353516" xlink:href="#DejaVuSans-47"/>
      <use x="646.044922" xlink:href="#DejaVuSans-32"/>
      <use x="677.832031" xlink:href="#DejaVuSans-100"/>
      <use x="741.308594" xlink:href="#DejaVuSans-105"/>
      <use x="769.091797" xlink:href="#DejaVuSans-109"/>
      <use x="866.503906" xlink:href="#DejaVuSans-101"/>
      <use x="928.027344" xlink:href="#DejaVuSans-110"/>
      <use x="991.40625" xlink:href="#DejaVuSans-115"/>
      <use x="1043.505859" xlink:href="#DejaVuSans-105"/>
      <use x="1071.289062" xlink:href="#DejaVuSans-111"/>
      <use x="1132.470703" xlink:href="#DejaVuSans-110"/>
      <use x="1195.849609" xlink:href="#DejaVuSans-41"/>
     </g>
    </g>
   </g>
   <g id="matplotlib.axis_2">
    <g id="ytick_1">
     <g id="line2d_17">
      <path clip-path="url(#p9658529fae)" d="M 57.6 298.944 
L 360.8064 298.944 
" style="fill:none;stroke:#b0b0b0;stroke-linecap:square;stroke-width:0.8;"/>
     </g>
     <g id="line2d_18">
      <defs>
       <path d="M 0 0 
L -3.5 0 
" id="m971713fa3b" style="stroke:#000000;stroke-width:0.8;"/>
      </defs>
      <g>
       <use style="stroke:#000000;stroke-width:0.8;" x="57.6" xlink:href="#m971713fa3b" y="298.944"/>
      </g>
     </g>
     <g id="text_6">
      <!-- 0.0 -->
      <g transform="translate(25.155 305.02275)scale(0.16 -0.16)">
       <defs>
        <path d="M 10.6875 12.40625 
L 21 12.40625 
L 21 0 
L 10.6875 0 
z
" id="DejaVuSans-46"/>
       </defs>
       <use xlink:href="#DejaVuSans-48"/>
       <use x="63.623047" xlink:href="#DejaVuSans-46"/>
       <use x="95.410156" xlink:href="#DejaVuSans-48"/>
      </g>
     </g>
    </g>
    <g id="ytick_2">
     <g id="line2d_19">
      <path clip-path="url(#p9658529fae)" d="M 57.6 244.6848 
L 360.8064 244.6848 
" style="fill:none;stroke:#b0b0b0;stroke-linecap:square;stroke-width:0.8;"/>
     </g>
     <g id="line2d_20">
      <g>
       <use style="stroke:#000000;stroke-width:0.8;" x="57.6" xlink:href="#m971713fa3b" y="244.6848"/>
      </g>
     </g>
     <g id="text_7">
      <!-- 0.2 -->
      <g transform="translate(25.155 250.76355)scale(0.16 -0.16)">
       <use xlink:href="#DejaVuSans-48"/>
       <use x="63.623047" xlink:href="#DejaVuSans-46"/>
       <use x="95.410156" xlink:href="#DejaVuSans-50"/>
      </g>
     </g>
    </g>
    <g id="ytick_3">
     <g id="line2d_21">
      <path clip-path="url(#p9658529fae)" d="M 57.6 190.4256 
L 360.8064 190.4256 
" style="fill:none;stroke:#b0b0b0;stroke-linecap:square;stroke-width:0.8;"/>
     </g>
     <g id="line2d_22">
      <g>
       <use style="stroke:#000000;stroke-width:0.8;" x="57.6" xlink:href="#m971713fa3b" y="190.4256"/>
      </g>
     </g>
     <g id="text_8">
      <!-- 0.4 -->
      <g transform="translate(25.155 196.50435)scale(0.16 -0.16)">
       <use xlink:href="#DejaVuSans-48"/>
       <use x="63.623047" xlink:href="#DejaVuSans-46"/>
       <use x="95.410156" xlink:href="#DejaVuSans-52"/>
      </g>
     </g>
    </g>
    <g id="ytick_4">
     <g id="line2d_23">
      <path clip-path="url(#p9658529fae)" d="M 57.6 136.1664 
L 360.8064 136.1664 
" style="fill:none;stroke:#b0b0b0;stroke-linecap:square;stroke-width:0.8;"/>
     </g>
     <g id="line2d_24">
      <g>
       <use style="stroke:#000000;stroke-width:0.8;" x="57.6" xlink:href="#m971713fa3b" y="136.1664"/>
      </g>
     </g>
     <g id="text_9">
      <!-- 0.6 -->
      <g transform="translate(25.155 142.24515)scale(0.16 -0.16)">
       <use xlink:href="#DejaVuSans-48"/>
       <use x="63.623047" xlink:href="#DejaVuSans-46"/>
       <use x="95.410156" xlink:href="#DejaVuSans-54"/>
      </g>
     </g>
    </g>
    <g id="ytick_5">
     <g id="line2d_25">
      <path clip-path="url(#p9658529fae)" d="M 57.6 81.9072 
L 360.8064 81.9072 
" style="fill:none;stroke:#b0b0b0;stroke-linecap:square;stroke-width:0.8;"/>
     </g>
     <g id="line2d_26">
      <g>
       <use style="stroke:#000000;stroke-width:0.8;" x="57.6" xlink:href="#m971713fa3b" y="81.9072"/>
      </g>
     </g>
     <g id="text_10">
      <!-- 0.8 -->
      <g transform="translate(25.155 87.98595)scale(0.16 -0.16)">
       <defs>
        <path d="M 31.78125 34.625 
Q 24.75 34.625 20.71875 30.859375 
Q 16.703125 27.09375 16.703125 20.515625 
Q 16.703125 13.921875 20.71875 10.15625 
Q 24.75 6.390625 31.78125 6.390625 
Q 38.8125 6.390625 42.859375 10.171875 
Q 46.921875 13.96875 46.921875 20.515625 
Q 46.921875 27.09375 42.890625 30.859375 
Q 38.875 34.625 31.78125 34.625 
z
M 21.921875 38.8125 
Q 15.578125 40.375 12.03125 44.71875 
Q 8.5 49.078125 8.5 55.328125 
Q 8.5 64.0625 14.71875 69.140625 
Q 20.953125 74.21875 31.78125 74.21875 
Q 42.671875 74.21875 48.875 69.140625 
Q 55.078125 64.0625 55.078125 55.328125 
Q 55.078125 49.078125 51.53125 44.71875 
Q 48 40.375 41.703125 38.8125 
Q 48.828125 37.15625 52.796875 32.3125 
Q 56.78125 27.484375 56.78125 20.515625 
Q 56.78125 9.90625 50.3125 4.234375 
Q 43.84375 -1.421875 31.78125 -1.421875 
Q 19.734375 -1.421875 13.25 4.234375 
Q 6.78125 9.90625 6.78125 20.515625 
Q 6.78125 27.484375 10.78125 32.3125 
Q 14.796875 37.15625 21.921875 38.8125 
z
M 18.3125 54.390625 
Q 18.3125 48.734375 21.84375 45.5625 
Q 25.390625 42.390625 31.78125 42.390625 
Q 38.140625 42.390625 41.71875 45.5625 
Q 45.3125 48.734375 45.3125 54.390625 
Q 45.3125 60.0625 41.71875 63.234375 
Q 38.140625 66.40625 31.78125 66.40625 
Q 25.390625 66.40625 21.84375 63.234375 
Q 18.3125 60.0625 18.3125 54.390625 
z
" id="DejaVuSans-56"/>
       </defs>
       <use xlink:href="#DejaVuSans-48"/>
       <use x="63.623047" xlink:href="#DejaVuSans-46"/>
       <use x="95.410156" xlink:href="#DejaVuSans-56"/>
      </g>
     </g>
    </g>
    <g id="ytick_6">
     <g id="line2d_27">
      <path clip-path="url(#p9658529fae)" d="M 57.6 27.648 
L 360.8064 27.648 
" style="fill:none;stroke:#b0b0b0;stroke-linecap:square;stroke-width:0.8;"/>
     </g>
     <g id="line2d_28">
      <g>
       <use style="stroke:#000000;stroke-width:0.8;" x="57.6" xlink:href="#m971713fa3b" y="27.648"/>
      </g>
     </g>
     <g id="text_11">
      <!-- 1.0 -->
      <g transform="translate(25.155 33.72675)scale(0.16 -0.16)">
       <use xlink:href="#DejaVuSans-49"/>
       <use x="63.623047" xlink:href="#DejaVuSans-46"/>
       <use x="95.410156" xlink:href="#DejaVuSans-48"/>
      </g>
     </g>
    </g>
    <g id="text_12">
     <!-- Fraction of function,target pairs -->
     <g transform="translate(17.619531 297.681)rotate(-90)scale(0.17 -0.17)">
      <defs>
       <path d="M 9.8125 72.90625 
L 51.703125 72.90625 
L 51.703125 64.59375 
L 19.671875 64.59375 
L 19.671875 43.109375 
L 48.578125 43.109375 
L 48.578125 34.8125 
L 19.671875 34.8125 
L 19.671875 0 
L 9.8125 0 
z
" id="DejaVuSans-70"/>
       <path d="M 41.109375 46.296875 
Q 39.59375 47.171875 37.8125 47.578125 
Q 36.03125 48 33.890625 48 
Q 26.265625 48 22.1875 43.046875 
Q 18.109375 38.09375 18.109375 28.8125 
L 18.109375 0 
L 9.078125 0 
L 9.078125 54.6875 
L 18.109375 54.6875 
L 18.109375 46.1875 
Q 20.953125 51.171875 25.484375 53.578125 
Q 30.03125 56 36.53125 56 
Q 37.453125 56 38.578125 55.875 
Q 39.703125 55.765625 41.0625 55.515625 
z
" id="DejaVuSans-114"/>
       <path d="M 48.78125 52.59375 
L 48.78125 44.1875 
Q 44.96875 46.296875 41.140625 47.34375 
Q 37.3125 48.390625 33.40625 48.390625 
Q 24.65625 48.390625 19.8125 42.84375 
Q 14.984375 37.3125 14.984375 27.296875 
Q 14.984375 17.28125 19.8125 11.734375 
Q 24.65625 6.203125 33.40625 6.203125 
Q 37.3125 6.203125 41.140625 7.25 
Q 44.96875 8.296875 48.78125 10.40625 
L 48.78125 2.09375 
Q 45.015625 0.34375 40.984375 -0.53125 
Q 36.96875 -1.421875 32.421875 -1.421875 
Q 20.0625 -1.421875 12.78125 6.34375 
Q 5.515625 14.109375 5.515625 27.296875 
Q 5.515625 40.671875 12.859375 48.328125 
Q 20.21875 56 33.015625 56 
Q 37.15625 56 41.109375 55.140625 
Q 45.0625 54.296875 48.78125 52.59375 
z
" id="DejaVuSans-99"/>
       <path d="M 18.3125 70.21875 
L 18.3125 54.6875 
L 36.8125 54.6875 
L 36.8125 47.703125 
L 18.3125 47.703125 
L 18.3125 18.015625 
Q 18.3125 11.328125 20.140625 9.421875 
Q 21.96875 7.515625 27.59375 7.515625 
L 36.8125 7.515625 
L 36.8125 0 
L 27.59375 0 
Q 17.1875 0 13.234375 3.875 
Q 9.28125 7.765625 9.28125 18.015625 
L 9.28125 47.703125 
L 2.6875 47.703125 
L 2.6875 54.6875 
L 9.28125 54.6875 
L 9.28125 70.21875 
z
" id="DejaVuSans-116"/>
       <path d="M 37.109375 75.984375 
L 37.109375 68.5 
L 28.515625 68.5 
Q 23.6875 68.5 21.796875 66.546875 
Q 19.921875 64.59375 19.921875 59.515625 
L 19.921875 54.6875 
L 34.71875 54.6875 
L 34.71875 47.703125 
L 19.921875 47.703125 
L 19.921875 0 
L 10.890625 0 
L 10.890625 47.703125 
L 2.296875 47.703125 
L 2.296875 54.6875 
L 10.890625 54.6875 
L 10.890625 58.5 
Q 10.890625 67.625 15.140625 71.796875 
Q 19.390625 75.984375 28.609375 75.984375 
z
" id="DejaVuSans-102"/>
       <path d="M 8.5 21.578125 
L 8.5 54.6875 
L 17.484375 54.6875 
L 17.484375 21.921875 
Q 17.484375 14.15625 20.5 10.265625 
Q 23.53125 6.390625 29.59375 6.390625 
Q 36.859375 6.390625 41.078125 11.03125 
Q 45.3125 15.671875 45.3125 23.6875 
L 45.3125 54.6875 
L 54.296875 54.6875 
L 54.296875 0 
L 45.3125 0 
L 45.3125 8.40625 
Q 42.046875 3.421875 37.71875 1 
Q 33.40625 -1.421875 27.6875 -1.421875 
Q 18.265625 -1.421875 13.375 4.4375 
Q 8.5 10.296875 8.5 21.578125 
z
M 31.109375 56 
z
" id="DejaVuSans-117"/>
       <path d="M 11.71875 12.40625 
L 22.015625 12.40625 
L 22.015625 4 
L 14.015625 -11.625 
L 7.71875 -11.625 
L 11.71875 4 
z
" id="DejaVuSans-44"/>
       <path d="M 18.109375 8.203125 
L 18.109375 -20.796875 
L 9.078125 -20.796875 
L 9.078125 54.6875 
L 18.109375 54.6875 
L 18.109375 46.390625 
Q 20.953125 51.265625 25.265625 53.625 
Q 29.59375 56 35.59375 56 
Q 45.5625 56 51.78125 48.09375 
Q 58.015625 40.1875 58.015625 27.296875 
Q 58.015625 14.40625 51.78125 6.484375 
Q 45.5625 -1.421875 35.59375 -1.421875 
Q 29.59375 -1.421875 25.265625 0.953125 
Q 20.953125 3.328125 18.109375 8.203125 
z
M 48.6875 27.296875 
Q 48.6875 37.203125 44.609375 42.84375 
Q 40.53125 48.484375 33.40625 48.484375 
Q 26.265625 48.484375 22.1875 42.84375 
Q 18.109375 37.203125 18.109375 27.296875 
Q 18.109375 17.390625 22.1875 11.75 
Q 26.265625 6.109375 33.40625 6.109375 
Q 40.53125 6.109375 44.609375 11.75 
Q 48.6875 17.390625 48.6875 27.296875 
z
" id="DejaVuSans-112"/>
      </defs>
      <use xlink:href="#DejaVuSans-70"/>
      <use x="50.269531" xlink:href="#DejaVuSans-114"/>
      <use x="91.382812" xlink:href="#DejaVuSans-97"/>
      <use x="152.662109" xlink:href="#DejaVuSans-99"/>
      <use x="207.642578" xlink:href="#DejaVuSans-116"/>
      <use x="246.851562" xlink:href="#DejaVuSans-105"/>
      <use x="274.634766" xlink:href="#DejaVuSans-111"/>
      <use x="335.816406" xlink:href="#DejaVuSans-110"/>
      <use x="399.195312" xlink:href="#DejaVuSans-32"/>
      <use x="430.982422" xlink:href="#DejaVuSans-111"/>
      <use x="492.164062" xlink:href="#DejaVuSans-102"/>
      <use x="527.369141" xlink:href="#DejaVuSans-32"/>
      <use x="559.15625" xlink:href="#DejaVuSans-102"/>
      <use x="594.361328" xlink:href="#DejaVuSans-117"/>
      <use x="657.740234" xlink:href="#DejaVuSans-110"/>
      <use x="721.119141" xlink:href="#DejaVuSans-99"/>
      <use x="776.099609" xlink:href="#DejaVuSans-116"/>
      <use x="815.308594" xlink:href="#DejaVuSans-105"/>
      <use x="843.091797" xlink:href="#DejaVuSans-111"/>
      <use x="904.273438" xlink:href="#DejaVuSans-110"/>
      <use x="967.652344" xlink:href="#DejaVuSans-44"/>
      <use x="999.439453" xlink:href="#DejaVuSans-116"/>
      <use x="1038.648438" xlink:href="#DejaVuSans-97"/>
      <use x="1099.927734" xlink:href="#DejaVuSans-114"/>
      <use x="1139.291016" xlink:href="#DejaVuSans-103"/>
      <use x="1202.767578" xlink:href="#DejaVuSans-101"/>
      <use x="1264.291016" xlink:href="#DejaVuSans-116"/>
      <use x="1303.5" xlink:href="#DejaVuSans-32"/>
      <use x="1335.287109" xlink:href="#DejaVuSans-112"/>
      <use x="1398.763672" xlink:href="#DejaVuSans-97"/>
      <use x="1460.042969" xlink:href="#DejaVuSans-105"/>
      <use x="1487.826172" xlink:href="#DejaVuSans-114"/>
      <use x="1528.939453" xlink:href="#DejaVuSans-115"/>
     </g>
    </g>
   </g>
   <g id="line2d_29">
    <defs>
     <path d="M 0 1.5 
C 0.397805 1.5 0.77937 1.341951 1.06066 1.06066 
C 1.341951 0.77937 1.5 0.397805 1.5 0 
C 1.5 -0.397805 1.341951 -0.77937 1.06066 -1.06066 
C 0.77937 -1.341951 0.397805 -1.5 0 -1.5 
C -0.397805 -1.5 -0.77937 -1.341951 -1.06066 -1.06066 
C -1.341951 -0.77937 -1.5 -0.397805 -1.5 0 
C -1.5 0.397805 -1.341951 0.77937 -1.06066 1.06066 
C -0.77937 1.341951 -0.397805 1.5 0 1.5 
z
" id="mb7da065b4d" style="stroke:#00bfbf;"/>
    </defs>
    <g>
     <use style="fill:#00bfbf;stroke:#00bfbf;" x="232.3781" xlink:href="#mb7da065b4d" y="27.648"/>
     <use style="fill:#00bfbf;stroke:#00bfbf;" x="232.3781" xlink:href="#mb7da065b4d" y="27.648"/>
    </g>
   </g>
   <g id="line2d_30">
    <path d="M 89.668958 298.944 
L 89.668958 294.091551 
L 98.933205 294.091551 
L 98.933205 280.416468 
L 100.9152 280.416468 
L 100.9152 279.975337 
L 105.112877 279.975337 
L 105.112877 267.623649 
L 109.756698 267.623649 
L 109.756698 243.802537 
L 110.897141 243.802537 
L 110.897141 241.596878 
L 111.97238 241.596878 
L 111.97238 238.950088 
L 113.478107 238.950088 
L 113.478107 199.248234 
L 114.418881 199.248234 
L 114.418881 196.160312 
L 115.314838 196.160312 
L 115.314838 191.748995 
L 116.583514 191.748995 
L 116.583514 168.810146 
L 117.384126 168.810146 
L 117.384126 162.634302 
L 118.152051 162.634302 
L 118.152051 157.781854 
L 118.889854 157.781854 
L 118.889854 155.135063 
L 119.24818 155.135063 
L 119.24818 144.989034 
L 119.944983 144.989034 
L 119.944983 136.1664 
L 120.616896 136.1664 
L 120.616896 122.932449 
L 120.944062 122.932449 
L 120.944062 121.609054 
L 121.265635 121.609054 
L 121.265635 116.315473 
L 121.581803 116.315473 
L 121.581803 99.111337 
L 122.19863 99.111337 
L 122.19863 93.817756 
L 122.795872 93.817756 
L 122.795872 90.288702 
L 123.374735 90.288702 
L 123.374735 84.112859 
L 123.936316 84.112859 
L 123.936316 83.671727 
L 124.748451 83.671727 
L 124.748451 82.348332 
L 125.526971 82.348332 
L 125.526971 81.9072 
L 125.779479 81.9072 
L 125.779479 81.466068 
L 126.517282 81.466068 
L 126.517282 80.142673 
L 127.911368 80.142673 
L 127.911368 79.701541 
L 129.826058 79.701541 
L 129.826058 79.26041 
L 131.563744 79.26041 
L 131.563744 78.378146 
L 133.154399 78.378146 
L 133.154399 77.495883 
L 134.620977 77.495883 
L 134.620977 76.61362 
L 135.981441 76.61362 
L 135.981441 75.731356 
L 137.250116 75.731356 
L 137.250116 73.084566 
L 139.676658 73.084566 
L 139.676658 72.643434 
L 140.14993 72.643434 
L 140.14993 69.555512 
L 142.143605 69.555512 
L 142.143605 69.11438 
L 149.945377 69.11438 
L 149.945377 68.673249 
L 153.01302 68.673249 
L 153.01302 68.232117 
L 154.811312 68.232117 
L 154.811312 67.790985 
L 155.802997 67.790985 
L 155.802997 67.349854 
L 157.175281 67.349854 
L 157.175281 66.46759 
L 157.503261 66.46759 
L 157.503261 66.026459 
L 161.654432 66.026459 
L 161.654432 65.144195 
L 167.553385 65.144195 
L 167.553385 64.703063 
L 167.850487 64.703063 
L 167.850487 64.261932 
L 168.116567 64.261932 
L 168.116567 62.497405 
L 171.338209 62.497405 
L 171.338209 60.291746 
L 183.488484 60.291746 
L 183.488484 57.203824 
L 183.674278 57.203824 
L 183.674278 55.880429 
L 184.040451 55.880429 
L 184.040451 55.439298 
L 184.243334 55.439298 
L 184.243334 54.998166 
L 185.172894 54.998166 
L 185.172894 54.557034 
L 185.987283 54.557034 
L 185.987283 54.115902 
L 187.825678 54.115902 
L 187.825678 53.674771 
L 192.115795 53.674771 
L 192.115795 51.469112 
L 192.860689 51.469112 
L 192.860689 51.02798 
L 195.58853 51.02798 
L 195.631416 48.822322 
L 195.771642 48.822322 
L 195.795923 47.940059 
L 195.9048 47.940059 
L 195.9048 47.498927 
L 196.120683 47.498927 
L 196.120683 47.057795 
L 204.394727 47.057795 
L 204.402407 44.852137 
L 205.360402 44.852137 
L 205.360402 43.969873 
L 205.552784 43.969873 
L 205.552784 43.528741 
L 207.365732 43.528741 
L 207.37229 42.646478 
L 207.652142 42.646478 
L 207.652142 39.558556 
L 208.174542 39.558556 
L 208.231005 38.676293 
L 208.287299 38.676293 
L 208.343425 37.794029 
L 208.427301 37.794029 
L 208.483011 36.911766 
L 208.538557 36.911766 
L 208.64916 33.382712 
L 209.625091 33.382712 
L 209.625091 32.94158 
L 213.90866 32.94158 
L 213.90866 32.500449 
L 214.090749 32.500449 
L 214.090749 32.059317 
L 218.379499 32.059317 
L 218.379499 31.618185 
L 228.025775 31.618185 
L 228.094543 30.29479 
L 228.153289 30.29479 
L 228.153289 29.853659 
L 228.436807 29.853659 
L 228.436807 29.412527 
L 228.571138 29.412527 
L 228.571138 28.971395 
L 230.90777 28.971395 
L 230.90777 28.530263 
L 232.336405 28.530263 
L 232.3781 27.648 
L 360.8064 27.648 
L 360.8064 27.648 
" style="fill:none;stroke:#00bfbf;stroke-linecap:square;stroke-width:1.5;"/>
   </g>
   <g id="line2d_31">
    <defs>
     <path d="M -6 0 
L 6 0 
M 0 6 
L 0 -6 
" id="m8874d09deb" style="stroke:#00bfbf;stroke-width:1.5;"/>
    </defs>
    <g>
     <use style="fill-opacity:0;stroke:#00bfbf;stroke-width:1.5;" x="116.583514" xlink:href="#m8874d09deb" y="168.810146"/>
     <use style="fill-opacity:0;stroke:#00bfbf;stroke-width:1.5;" x="184.040451" xlink:href="#m8874d09deb" y="55.880429"/>
     <use style="fill-opacity:0;stroke:#00bfbf;stroke-width:1.5;" x="232.3781" xlink:href="#m8874d09deb" y="27.648"/>
     <use style="fill-opacity:0;stroke:#00bfbf;stroke-width:1.5;" x="232.3781" xlink:href="#m8874d09deb" y="27.648"/>
     <use style="fill-opacity:0;stroke:#00bfbf;stroke-width:1.5;" x="360.8064" xlink:href="#m8874d09deb" y="27.648"/>
    </g>
   </g>
   <g id="line2d_32">
    <path style="fill:none;stroke:#00bfbf;stroke-linecap:square;stroke-width:1.5;"/>
    <g/>
   </g>
   <g id="line2d_33">
    <path clip-path="url(#p9658529fae)" d="M 230.864562 28.971395 
" style="fill:none;stroke:#00bfbf;stroke-linecap:square;stroke-width:1.5;"/>
    <defs>
     <path d="M -12 12 
L 12 -12 
M -12 -12 
L 12 12 
" id="m22d8bc5596" style="stroke:#00bfbf;"/>
    </defs>
    <g clip-path="url(#p9658529fae)">
     <use style="fill:#00bfbf;stroke:#00bfbf;" x="230.864562" xlink:href="#m22d8bc5596" y="28.971395"/>
    </g>
   </g>
   <g id="line2d_34">
    <defs>
     <path d="M 0 1.5 
C 0.397805 1.5 0.77937 1.341951 1.06066 1.06066 
C 1.341951 0.77937 1.5 0.397805 1.5 0 
C 1.5 -0.397805 1.341951 -0.77937 1.06066 -1.06066 
C 0.77937 -1.341951 0.397805 -1.5 0 -1.5 
C -0.397805 -1.5 -0.77937 -1.341951 -1.06066 -1.06066 
C -1.341951 -0.77937 -1.5 -0.397805 -1.5 0 
C -1.5 0.397805 -1.341951 0.77937 -1.06066 1.06066 
C -0.77937 1.341951 -0.397805 1.5 0 1.5 
z
" id="m6f4fa94435" style="stroke:#008000;"/>
    </defs>
    <g>
     <use style="fill:#008000;stroke:#008000;" x="277.635513" xlink:href="#m6f4fa94435" y="27.648"/>
     <use style="fill:#008000;stroke:#008000;" x="277.635513" xlink:href="#m6f4fa94435" y="27.648"/>
    </g>
   </g>
   <g id="line2d_35">
    <path d="M 85.184077 298.944 
L 85.184077 288.356839 
L 95.080704 288.356839 
L 95.080704 268.505912 
L 101.532027 268.505912 
L 101.532027 249.537249 
L 106.326946 249.537249 
L 106.326946 231.009717 
L 107.244765 231.009717 
L 107.244765 228.362927 
L 108.119879 228.362927 
L 108.119879 227.921795 
L 109.756698 227.921795 
L 109.756698 226.5984 
L 110.144579 226.5984 
L 110.144579 214.687844 
L 110.897141 214.687844 
L 110.897141 209.835395 
L 111.620752 209.835395 
L 111.620752 207.629737 
L 113.316634 207.629737 
L 113.316634 197.042576 
L 113.954374 197.042576 
L 113.954374 188.219941 
L 114.571202 188.219941 
L 114.571202 179.838439 
L 115.168444 179.838439 
L 115.168444 179.397307 
L 115.747307 179.397307 
L 115.747307 175.868254 
L 116.030193 175.868254 
L 116.030193 169.251278 
L 116.583514 169.251278 
L 116.583514 159.987512 
L 117.121023 159.987512 
L 117.121023 155.576195 
L 117.6436 155.576195 
L 117.6436 154.693932 
L 118.152051 154.693932 
L 118.152051 144.547902 
L 118.401214 144.547902 
L 118.401214 144.106771 
L 120.28394 144.106771 
L 120.28394 141.45998 
L 120.726585 141.45998 
L 120.726585 134.843005 
L 122.598891 134.843005 
L 122.598891 134.401873 
L 122.990812 134.401873 
L 122.990812 133.51961 
L 124.659926 133.51961 
L 124.659926 132.196215 
L 125.011554 132.196215 
L 125.011554 131.313951 
L 125.862901 131.313951 
L 125.862901 130.87282 
L 126.836129 130.87282 
L 126.836129 129.990556 
L 127.911368 129.990556 
L 127.911368 127.343766 
L 128.499277 127.343766 
L 128.499277 126.020371 
L 129.209231 126.020371 
L 129.209231 120.72679 
L 130.027253 120.72679 
L 130.027253 120.285659 
L 130.682774 120.285659 
L 130.682774 119.844527 
L 131.440389 119.844527 
L 131.440389 118.962263 
L 132.754746 118.962263 
L 132.754746 117.638868 
L 133.323114 117.638868 
L 133.323114 117.197737 
L 133.983236 117.197737 
L 133.983236 115.874341 
L 135.136394 115.874341 
L 135.136394 115.43321 
L 135.638065 115.43321 
L 135.638065 114.992078 
L 136.222928 114.992078 
L 136.222928 114.109815 
L 136.696795 114.109815 
L 136.696795 113.668683 
L 137.250116 113.668683 
L 137.250116 112.78642 
L 138.224108 112.78642 
L 138.224108 112.345288 
L 138.650692 112.345288 
L 138.650692 111.904156 
L 139.150143 111.904156 
L 139.150143 111.021893 
L 140.032723 111.021893 
L 140.032723 110.580761 
L 140.420604 110.580761 
L 140.420604 110.139629 
L 140.875745 110.139629 
L 140.875745 108.816234 
L 141.246793 108.816234 
L 141.246793 108.375102 
L 141.682602 108.375102 
L 141.682602 107.492839 
L 142.45627 107.492839 
L 142.45627 107.051707 
L 142.797687 107.051707 
L 142.797687 106.610576 
L 143.199372 106.610576 
L 143.199372 105.728312 
L 143.914232 105.728312 
L 143.914232 105.28718 
L 144.2304 105.28718 
L 144.2304 104.846049 
L 144.602918 104.846049 
L 144.602918 103.963785 
L 145.26728 103.963785 
L 145.26728 103.522654 
L 145.561676 103.522654 
L 145.561676 103.081522 
L 145.908976 103.081522 
L 145.908976 101.758127 
L 146.804934 101.758127 
L 146.804934 101.316995 
L 147.130214 101.316995 
L 147.130214 99.9936 
L 147.712333 99.9936 
L 147.712333 99.552468 
L 147.971093 99.552468 
L 147.971093 99.111337 
L 148.276979 99.111337 
L 148.276979 98.670205 
L 148.825169 98.670205 
L 148.825169 97.787941 
L 149.069161 97.787941 
L 149.069161 97.34681 
L 149.357835 97.34681 
L 149.357835 96.905678 
L 149.875833 96.905678 
L 149.875833 96.023415 
L 150.106653 96.023415 
L 150.106653 95.582283 
L 150.379949 95.582283 
L 150.379949 94.70002 
L 151.089903 94.70002 
L 151.089903 94.258888 
L 151.349377 94.258888 
L 151.349377 92.935493 
L 152.024303 92.935493 
L 152.024303 92.494361 
L 152.271285 92.494361 
L 152.271285 91.612098 
L 152.715833 91.612098 
L 152.795543 90.288702 
L 152.914478 90.288702 
L 152.914478 89.847571 
L 153.5746 89.847571 
L 153.5746 88.965307 
L 153.764426 88.965307 
L 153.764426 88.524176 
L 153.989717 88.524176 
L 153.989717 88.083044 
L 154.39587 88.083044 
L 154.39587 87.20078 
L 154.793439 87.20078 
L 154.793439 86.759649 
L 154.971412 86.759649 
L 154.971412 86.318517 
L 155.460959 86.318517 
L 155.564225 85.436254 
L 155.735085 85.436254 
L 155.735085 84.995122 
L 156.664239 84.995122 
L 156.664239 84.55399 
L 156.825436 84.55399 
L 156.825436 84.112859 
L 157.856036 84.112859 
L 157.856036 83.671727 
L 158.0375 83.671727 
L 158.0375 82.789463 
L 158.890711 82.789463 
L 158.919453 81.466068 
L 159.14782 81.466068 
L 159.14782 81.024937 
L 159.679334 81.024937 
L 159.679334 80.583805 
L 159.844108 80.583805 
L 159.844108 80.142673 
L 162.03547 80.142673 
L 162.03547 79.701541 
L 162.444694 79.701541 
L 162.444694 79.26041 
L 170.119687 79.26041 
L 170.167131 76.61362 
L 170.880009 76.61362 
L 170.880009 75.731356 
L 176.671876 75.731356 
L 176.671876 75.290224 
L 189.744553 75.290224 
L 189.744553 74.407961 
L 194.788718 74.407961 
L 194.827078 69.555512 
L 196.375337 69.555512 
L 196.410598 68.673249 
L 198.546959 68.673249 
L 198.546959 68.232117 
L 207.753078 68.232117 
L 207.753078 67.790985 
L 207.940619 67.790985 
L 207.940619 67.349854 
L 208.157779 67.349854 
L 208.166162 63.8208 
L 208.53753 63.8208 
L 208.53753 63.379668 
L 208.903723 63.379668 
L 208.91178 62.497405 
L 210.7338 62.497405 
L 210.7338 59.850615 
L 211.603595 59.850615 
L 211.662844 58.52722 
L 213.539106 58.52722 
L 213.539106 58.086088 
L 214.914286 58.086088 
L 214.914286 57.203824 
L 215.52488 57.203824 
L 215.565927 55.880429 
L 216.864638 55.880429 
L 216.87651 54.557034 
L 217.670528 54.557034 
L 217.670528 53.674771 
L 221.933829 53.674771 
L 221.933829 53.233639 
L 225.459919 53.233639 
L 225.459919 52.792507 
L 230.113113 52.792507 
L 230.118984 51.910244 
L 230.904017 51.910244 
L 230.90777 50.586849 
L 231.126045 50.586849 
L 231.229629 49.263454 
L 231.246224 49.263454 
L 231.246224 48.822322 
L 231.6215 48.822322 
L 231.625113 47.498927 
L 233.445174 47.498927 
L 233.446267 46.175532 
L 235.786147 46.175532 
L 235.79049 45.293268 
L 236.410306 45.293268 
L 236.41404 43.528741 
L 236.651057 43.528741 
L 236.651057 43.08761 
L 243.534961 43.08761 
L 243.534961 42.646478 
L 243.9241 42.646478 
L 243.927231 40.881951 
L 244.040535 40.881951 
L 244.071939 37.794029 
L 245.2368 37.794029 
L 245.239136 36.470634 
L 246.528568 36.470634 
L 246.575132 35.588371 
L 246.878899 35.588371 
L 246.880772 34.264976 
L 251.547875 34.264976 
L 251.638896 32.94158 
L 251.66817 32.94158 
L 251.691391 32.059317 
L 252.429887 32.059317 
L 252.429887 31.618185 
L 256.951372 31.618185 
L 256.951372 31.177054 
L 261.687271 31.177054 
L 261.687271 30.735922 
L 262.232126 30.735922 
L 262.232126 30.29479 
L 262.448813 30.29479 
L 262.448813 29.853659 
L 264.635531 29.853659 
L 264.635531 29.412527 
L 270.020602 29.412527 
L 270.020602 28.971395 
L 272.502206 28.971395 
L 272.502206 28.530263 
L 274.74501 28.530263 
L 274.74501 28.089132 
L 277.635513 28.089132 
L 277.635513 27.648 
L 360.8064 27.648 
L 360.8064 27.648 
" style="fill:none;stroke:#008000;stroke-linecap:square;stroke-width:1.5;"/>
   </g>
   <g id="line2d_36">
    <defs>
     <path d="M -0 6 
L 6 -6 
L -6 -6 
z
" id="m9c563022e6" style="stroke:#008000;stroke-linejoin:miter;stroke-width:1.5;"/>
    </defs>
    <g>
     <use style="fill-opacity:0;stroke:#008000;stroke-linejoin:miter;stroke-width:1.5;" x="108.119879" xlink:href="#m9c563022e6" y="227.921795"/>
     <use style="fill-opacity:0;stroke:#008000;stroke-linejoin:miter;stroke-width:1.5;" x="170.880009" xlink:href="#m9c563022e6" y="75.731356"/>
     <use style="fill-opacity:0;stroke:#008000;stroke-linejoin:miter;stroke-width:1.5;" x="256.951372" xlink:href="#m9c563022e6" y="31.618185"/>
     <use style="fill-opacity:0;stroke:#008000;stroke-linejoin:miter;stroke-width:1.5;" x="277.635513" xlink:href="#m9c563022e6" y="27.648"/>
     <use style="fill-opacity:0;stroke:#008000;stroke-linejoin:miter;stroke-width:1.5;" x="360.8064" xlink:href="#m9c563022e6" y="27.648"/>
    </g>
   </g>
   <g id="line2d_37">
    <path style="fill:none;stroke:#008000;stroke-linecap:square;stroke-width:1.5;"/>
    <g/>
   </g>
   <g id="line2d_38">
    <path clip-path="url(#p9658529fae)" d="M 230.865189 51.910244 
" style="fill:none;stroke:#008000;stroke-linecap:square;stroke-width:1.5;"/>
    <defs>
     <path d="M -12 12 
L 12 -12 
M -12 -12 
L 12 12 
" id="mb38f1d0acf" style="stroke:#008000;"/>
    </defs>
    <g clip-path="url(#p9658529fae)">
     <use style="fill:#008000;stroke:#008000;" x="230.865189" xlink:href="#mb38f1d0acf" y="51.910244"/>
    </g>
   </g>
   <g id="line2d_39">
    <defs>
     <path d="M 0 1.5 
C 0.397805 1.5 0.77937 1.341951 1.06066 1.06066 
C 1.341951 0.77937 1.5 0.397805 1.5 0 
C 1.5 -0.397805 1.341951 -0.77937 1.06066 -1.06066 
C 0.77937 -1.341951 0.397805 -1.5 0 -1.5 
C -0.397805 -1.5 -0.77937 -1.341951 -1.06066 -1.06066 
C -1.341951 -0.77937 -1.5 -0.397805 -1.5 0 
C -1.5 0.397805 -1.341951 0.77937 -1.06066 1.06066 
C -0.77937 1.341951 -0.397805 1.5 0 1.5 
z
" id="m0aaa390113" style="stroke:#0000ff;"/>
    </defs>
    <g>
     <use style="fill:#0000ff;stroke:#0000ff;" x="316.433138" xlink:href="#m0aaa390113" y="60.732878"/>
     <use style="fill:#0000ff;stroke:#0000ff;" x="316.433138" xlink:href="#m0aaa390113" y="60.732878"/>
    </g>
   </g>
   <g id="line2d_40">
    <path d="M 80.621116 298.944 
L 80.621116 287.915707 
L 91.305777 287.915707 
L 91.305777 264.535727 
L 92.519847 264.535727 
L 92.519847 263.212332 
L 98.077987 263.212332 
L 98.077987 232.333112 
L 98.933205 232.333112 
L 98.933205 230.568585 
L 103.047088 230.568585 
L 103.047088 195.71918 
L 103.707211 195.71918 
L 103.707211 189.543337 
L 106.974091 189.543337 
L 106.974091 167.04562 
L 107.5116 167.04562 
L 107.5116 159.987512 
L 108.542628 159.987512 
L 108.542628 159.54638 
L 108.791791 159.54638 
L 108.791791 159.105249 
L 110.221204 159.105249 
L 110.221204 146.312429 
L 110.674517 146.312429 
L 110.674517 137.489795 
L 110.897141 137.489795 
L 110.897141 137.048663 
L 111.54963 137.048663 
L 111.54963 136.607532 
L 112.989468 136.607532 
L 112.989468 133.078478 
L 113.765312 133.078478 
L 113.765312 132.637346 
L 114.141556 132.637346 
L 114.141556 132.196215 
L 115.402131 132.196215 
L 115.402131 126.461502 
L 115.747307 126.461502 
L 115.747307 126.020371 
L 116.253478 126.020371 
L 116.253478 125.579239 
L 116.419219 125.579239 
L 116.419219 123.814712 
L 117.540239 123.814712 
L 117.540239 122.932449 
L 118.450653 122.932449 
L 118.450653 121.167922 
L 120.28394 121.167922 
L 120.28394 112.78642 
L 121.954321 112.78642 
L 121.954321 107.051707 
L 122.559246 107.051707 
L 122.559246 106.610576 
L 123.4884 106.610576 
L 123.4884 106.169444 
L 129.125437 106.169444 
L 129.125437 105.728312 
L 143.265494 105.728312 
L 143.265494 103.522654 
L 144.041338 103.522654 
L 144.041338 103.081522 
L 148.307296 103.081522 
L 148.307296 102.64039 
L 149.875833 102.64039 
L 149.875833 102.199259 
L 151.882893 102.199259 
L 151.882893 101.758127 
L 153.095398 101.758127 
L 153.095398 100.875863 
L 153.375128 100.875863 
L 153.375128 100.434732 
L 153.8097 100.434732 
L 153.8097 99.9936 
L 154.101358 99.9936 
L 154.101358 99.552468 
L 154.628204 99.552468 
L 154.628204 99.111337 
L 156.831855 99.111337 
L 156.831855 98.670205 
L 157.363398 98.670205 
L 157.363398 97.787941 
L 157.678942 97.787941 
L 157.678942 97.34681 
L 159.800309 97.34681 
L 159.800309 96.905678 
L 161.331318 96.905678 
L 161.331318 96.464546 
L 161.617145 96.464546 
L 161.617145 96.023415 
L 164.116009 96.023415 
L 164.116009 95.582283 
L 164.504157 95.582283 
L 164.504157 95.141151 
L 171.878039 95.141151 
L 171.878039 94.70002 
L 172.748826 94.70002 
L 172.748826 94.258888 
L 175.409906 94.258888 
L 175.517176 92.935493 
L 176.805529 92.935493 
L 176.805529 92.494361 
L 180.814479 92.494361 
L 180.814479 92.053229 
L 190.020343 92.053229 
L 190.020343 89.847571 
L 192.699754 89.847571 
L 192.736905 88.965307 
L 197.347418 88.965307 
L 197.347418 88.524176 
L 198.638279 88.524176 
L 198.663297 87.641912 
L 204.83505 87.641912 
L 204.83505 87.20078 
L 205.162345 87.20078 
L 205.162345 86.759649 
L 207.814234 86.759649 
L 207.814234 86.318517 
L 209.262133 86.318517 
L 209.262133 85.436254 
L 213.269801 85.436254 
L 213.269801 84.995122 
L 217.934906 84.995122 
L 217.937897 83.671727 
L 218.390088 83.671727 
L 218.390088 83.230595 
L 219.088763 83.230595 
L 219.088763 82.348332 
L 220.233592 82.348332 
L 220.233592 81.9072 
L 220.891797 81.9072 
L 220.891797 81.466068 
L 223.498246 81.466068 
L 223.498246 81.024937 
L 230.893128 81.024937 
L 230.90702 79.701541 
L 233.987133 79.701541 
L 233.987133 79.26041 
L 238.526815 79.26041 
L 238.528817 77.937015 
L 239.56897 77.937015 
L 239.56897 77.495883 
L 243.913514 77.495883 
L 243.925729 76.61362 
L 246.481288 76.61362 
L 246.481288 76.172488 
L 246.671866 76.172488 
L 246.671866 75.290224 
L 248.12457 75.290224 
L 248.21482 73.525698 
L 249.380117 73.525698 
L 249.380117 73.084566 
L 251.542822 73.084566 
L 251.543574 72.202302 
L 251.687993 72.202302 
L 251.687993 71.761171 
L 252.233585 71.761171 
L 252.233585 71.320039 
L 252.630629 71.320039 
L 252.630629 70.878907 
L 254.509698 70.878907 
L 254.509698 70.437776 
L 255.352097 70.437776 
L 255.352097 69.996644 
L 257.061122 69.996644 
L 257.080456 69.11438 
L 259.169038 69.11438 
L 259.172547 68.232117 
L 264.576545 68.232117 
L 264.576545 67.790985 
L 266.119881 67.790985 
L 266.119881 67.349854 
L 267.475149 67.349854 
L 267.548819 66.026459 
L 268.806995 66.026459 
L 268.806995 65.585327 
L 269.985753 65.585327 
L 269.985753 65.144195 
L 273.244212 65.144195 
L 273.244212 64.703063 
L 276.022691 64.703063 
L 276.022691 64.261932 
L 281.187548 64.261932 
L 281.187548 63.8208 
L 285.767501 63.8208 
L 285.767501 63.379668 
L 287.696081 63.379668 
L 287.696081 62.938537 
L 290.264146 62.938537 
L 290.264146 62.497405 
L 292.52337 62.497405 
L 292.52337 62.056273 
L 294.539502 62.056273 
L 294.539502 61.615141 
L 311.960546 61.615141 
L 311.960546 61.17401 
L 316.433138 61.17401 
L 316.433138 60.732878 
L 360.8064 60.732878 
L 360.8064 60.732878 
" style="fill:none;stroke:#0000ff;stroke-linecap:square;stroke-width:1.5;"/>
   </g>
   <g id="line2d_41">
    <defs>
     <path d="M 0 -6 
L -1.347084 -1.854102 
L -5.706339 -1.854102 
L -2.179628 0.708204 
L -3.526712 4.854102 
L -0 2.291796 
L 3.526712 4.854102 
L 2.179628 0.708204 
L 5.706339 -1.854102 
L 1.347084 -1.854102 
z
" id="m8600622a48" style="stroke:#0000ff;stroke-linejoin:bevel;stroke-width:1.5;"/>
    </defs>
    <g>
     <use style="fill-opacity:0;stroke:#0000ff;stroke-linejoin:bevel;stroke-width:1.5;" x="129.125437" xlink:href="#m8600622a48" y="105.728312"/>
     <use style="fill-opacity:0;stroke:#0000ff;stroke-linejoin:bevel;stroke-width:1.5;" x="259.172547" xlink:href="#m8600622a48" y="68.673249"/>
     <use style="fill-opacity:0;stroke:#0000ff;stroke-linejoin:bevel;stroke-width:1.5;" x="316.433138" xlink:href="#m8600622a48" y="60.732878"/>
     <use style="fill-opacity:0;stroke:#0000ff;stroke-linejoin:bevel;stroke-width:1.5;" x="316.433138" xlink:href="#m8600622a48" y="60.732878"/>
     <use style="fill-opacity:0;stroke:#0000ff;stroke-linejoin:bevel;stroke-width:1.5;" x="360.8064" xlink:href="#m8600622a48" y="60.732878"/>
    </g>
   </g>
   <g id="line2d_42">
    <path style="fill:none;stroke:#0000ff;stroke-linecap:square;stroke-width:1.5;"/>
    <g/>
   </g>
   <g id="line2d_43">
    <path clip-path="url(#p9658529fae)" d="M 230.864938 81.024937 
" style="fill:none;stroke:#0000ff;stroke-linecap:square;stroke-width:1.5;"/>
    <defs>
     <path d="M -12 12 
L 12 -12 
M -12 -12 
L 12 12 
" id="m5be916750c" style="stroke:#0000ff;"/>
    </defs>
    <g clip-path="url(#p9658529fae)">
     <use style="fill:#0000ff;stroke:#0000ff;" x="230.864938" xlink:href="#m5be916750c" y="81.024937"/>
    </g>
   </g>
   <g id="line2d_44">
    <defs>
     <path d="M 0 1.5 
C 0.397805 1.5 0.77937 1.341951 1.06066 1.06066 
C 1.341951 0.77937 1.5 0.397805 1.5 0 
C 1.5 -0.397805 1.341951 -0.77937 1.06066 -1.06066 
C 0.77937 -1.341951 0.397805 -1.5 0 -1.5 
C -0.397805 -1.5 -0.77937 -1.341951 -1.06066 -1.06066 
C -1.341951 -0.77937 -1.5 -0.397805 -1.5 0 
C -1.5 0.397805 -1.341951 0.77937 -1.06066 1.06066 
C -0.77937 1.341951 -0.397805 1.5 0 1.5 
z
" id="m8d34c354a6" style="stroke:#000000;"/>
    </defs>
    <g>
     <use style="stroke:#000000;" x="309.099488" xlink:href="#m8d34c354a6" y="60.732878"/>
     <use style="stroke:#000000;" x="309.099488" xlink:href="#m8d34c354a6" y="60.732878"/>
    </g>
   </g>
   <g id="line2d_45">
    <path d="M 76.284608 298.944 
L 76.284608 287.915707 
L 87.876026 287.915707 
L 87.876026 265.41799 
L 94.995002 265.41799 
L 94.995002 237.185561 
L 100.147275 237.185561 
L 100.147275 202.777288 
L 100.9152 202.777288 
L 100.9152 202.336156 
L 104.187532 202.336156 
L 104.187532 173.662595 
L 107.5116 173.662595 
L 107.5116 152.047141 
L 107.774703 152.047141 
L 107.774703 151.60601 
L 109.037698 151.60601 
L 109.037698 150.723746 
L 110.335561 150.723746 
L 110.335561 147.635824 
L 111.007473 147.635824 
L 111.007473 146.312429 
L 111.656212 146.312429 
L 111.656212 145.871298 
L 112.790402 145.871298 
L 112.790402 143.665639 
L 113.954374 143.665639 
L 113.954374 142.783376 
L 114.141556 142.783376 
L 114.141556 141.45998 
L 114.961559 141.45998 
L 114.961559 139.695454 
L 115.314838 139.695454 
L 115.314838 139.254322 
L 116.002095 139.254322 
L 116.002095 134.401873 
L 116.170056 134.401873 
L 116.170056 133.960741 
L 117.848632 133.960741 
L 117.848632 129.990556 
L 118.000953 129.990556 
L 118.000953 127.343766 
L 119.530006 127.343766 
L 119.530006 126.902634 
L 119.669351 126.902634 
L 119.669351 118.521132 
L 119.807672 118.521132 
L 119.807672 118.08 
L 125.322496 118.08 
L 125.322496 112.345288 
L 133.323114 112.345288 
L 133.323114 111.904156 
L 138.59155 111.904156 
L 138.59155 111.463024 
L 138.89375 111.463024 
L 138.89375 111.021893 
L 139.191172 111.021893 
L 139.191172 109.698498 
L 140.359078 109.698498 
L 140.405242 108.816234 
L 142.059343 108.816234 
L 142.059343 108.375102 
L 143.579681 108.375102 
L 143.579681 107.933971 
L 144.986282 107.933971 
L 144.986282 107.492839 
L 145.868787 107.492839 
L 145.868787 107.051707 
L 147.119461 107.051707 
L 147.119461 106.610576 
L 148.292143 106.610576 
L 148.307296 105.728312 
L 149.035192 105.728312 
L 149.035192 105.28718 
L 150.438643 105.28718 
L 150.438643 104.846049 
L 151.102962 104.846049 
L 151.102962 104.404917 
L 154.023279 104.404917 
L 154.023279 103.963785 
L 157.09001 103.963785 
L 157.09001 103.522654 
L 157.438121 103.522654 
L 157.438121 103.081522 
L 158.124583 103.081522 
L 158.124583 102.64039 
L 158.699905 102.64039 
L 158.699905 101.758127 
L 159.585318 101.758127 
L 159.585318 101.316995 
L 160.675797 101.316995 
L 160.675797 100.875863 
L 162.499383 100.875863 
L 162.499383 100.434732 
L 182.281259 100.434732 
L 182.281259 99.552468 
L 186.783553 99.552468 
L 186.783553 99.111337 
L 192.239323 99.111337 
L 192.239323 98.670205 
L 193.859034 98.670205 
L 193.859034 98.229073 
L 195.948175 98.229073 
L 195.948175 97.787941 
L 200.218162 97.787941 
L 200.218162 97.34681 
L 212.194957 97.34681 
L 212.194957 96.905678 
L 218.574616 96.905678 
L 218.574616 96.464546 
L 224.772352 96.464546 
L 224.785348 95.582283 
L 225.414408 95.582283 
L 225.414408 95.141151 
L 230.885615 95.141151 
L 230.919588 88.083044 
L 231.095416 88.083044 
L 231.095416 87.641912 
L 231.258199 87.641912 
L 231.353915 86.759649 
L 243.918495 86.759649 
L 243.929485 83.230595 
L 244.098607 83.230595 
L 244.098607 82.789463 
L 251.546768 82.789463 
L 251.634636 78.819278 
L 256.955508 78.819278 
L 257.020427 77.054751 
L 261.146116 77.054751 
L 261.146116 76.61362 
L 264.573943 76.61362 
L 264.652038 74.407961 
L 267.475821 74.407961 
L 267.47617 73.525698 
L 272.202218 73.525698 
L 272.202218 73.084566 
L 274.183598 73.084566 
L 274.183598 72.643434 
L 275.975532 72.643434 
L 275.975532 72.202302 
L 277.61083 72.202302 
L 277.613196 70.878907 
L 279.118626 70.878907 
L 279.137291 69.996644 
L 280.510778 69.996644 
L 280.511933 68.232117 
L 281.809146 68.232117 
L 281.809146 67.790985 
L 285.238509 67.790985 
L 285.238561 66.908722 
L 287.219961 66.908722 
L 287.219961 66.46759 
L 289.849515 66.46759 
L 289.849515 66.026459 
L 290.64984 66.026459 
L 290.64984 65.585327 
L 291.417155 65.585327 
L 291.417155 65.144195 
L 294.846471 65.144195 
L 294.846778 64.261932 
L 295.464235 64.261932 
L 295.464235 63.8208 
L 296.639109 63.8208 
L 296.63981 62.938537 
L 297.201458 62.938537 
L 297.201458 62.497405 
L 298.276774 62.497405 
L 298.276774 62.056273 
L 300.257801 62.056273 
L 300.257801 61.615141 
L 307.247451 61.615141 
L 307.247451 61.17401 
L 309.099488 61.17401 
L 309.099488 60.732878 
L 360.8064 60.732878 
L 360.8064 60.732878 
" style="fill:none;stroke:#000000;stroke-linecap:square;stroke-width:1.5;"/>
   </g>
   <g id="line2d_46">
    <defs>
     <path d="M 0 6 
C 1.591219 6 3.117479 5.367802 4.242641 4.242641 
C 5.367802 3.117479 6 1.591219 6 0 
C 6 -1.591219 5.367802 -3.117479 4.242641 -4.242641 
C 3.117479 -5.367802 1.591219 -6 0 -6 
C -1.591219 -6 -3.117479 -5.367802 -4.242641 -4.242641 
C -5.367802 -3.117479 -6 -1.591219 -6 0 
C -6 1.591219 -5.367802 3.117479 -4.242641 4.242641 
C -3.117479 5.367802 -1.591219 6 0 6 
z
" id="m0bf959edfc" style="stroke:#000000;stroke-width:1.5;"/>
    </defs>
    <g>
     <use style="fill-opacity:0;stroke:#000000;stroke-width:1.5;" x="104.187532" xlink:href="#m0bf959edfc" y="173.662595"/>
     <use style="fill-opacity:0;stroke:#000000;stroke-width:1.5;" x="193.859034" xlink:href="#m0bf959edfc" y="98.229073"/>
     <use style="fill-opacity:0;stroke:#000000;stroke-width:1.5;" x="298.276774" xlink:href="#m0bf959edfc" y="62.497405"/>
     <use style="fill-opacity:0;stroke:#000000;stroke-width:1.5;" x="309.099488" xlink:href="#m0bf959edfc" y="60.732878"/>
     <use style="fill-opacity:0;stroke:#000000;stroke-width:1.5;" x="360.8064" xlink:href="#m0bf959edfc" y="60.732878"/>
    </g>
   </g>
   <g id="line2d_47">
    <path style="fill:none;stroke:#000000;stroke-linecap:square;stroke-width:1.5;"/>
    <g/>
   </g>
   <g id="line2d_48">
    <path clip-path="url(#p9658529fae)" d="M 230.863622 95.141151 
" style="fill:none;stroke:#000000;stroke-linecap:square;stroke-width:1.5;"/>
    <defs>
     <path d="M -12 12 
L 12 -12 
M -12 -12 
L 12 12 
" id="m326d12f3ab" style="stroke:#000000;"/>
    </defs>
    <g clip-path="url(#p9658529fae)">
     <use style="stroke:#000000;" x="230.863622" xlink:href="#m326d12f3ab" y="95.141151"/>
    </g>
   </g>
   <g id="line2d_49">
    <defs>
     <path d="M 0 1.5 
C 0.397805 1.5 0.77937 1.341951 1.06066 1.06066 
C 1.341951 0.77937 1.5 0.397805 1.5 0 
C 1.5 -0.397805 1.341951 -0.77937 1.06066 -1.06066 
C 0.77937 -1.341951 0.397805 -1.5 0 -1.5 
C -0.397805 -1.5 -0.77937 -1.341951 -1.06066 -1.06066 
C -1.341951 -0.77937 -1.5 -0.397805 -1.5 0 
C -1.5 0.397805 -1.341951 0.77937 -1.06066 1.06066 
C -0.77937 1.341951 -0.397805 1.5 0 1.5 
z
" id="m8c3b2a5103" style="stroke:#ff0000;"/>
    </defs>
    <g>
     <use style="fill:#ff0000;stroke:#ff0000;" x="300.256649" xlink:href="#m8c3b2a5103" y="87.20078"/>
     <use style="fill:#ff0000;stroke:#ff0000;" x="300.256649" xlink:href="#m8c3b2a5103" y="87.20078"/>
    </g>
   </g>
   <g id="line2d_50">
    <path d="M 73.672879 298.944 
L 73.672879 293.209288 
L 85.894031 293.209288 
L 85.894031 268.505912 
L 93.240684 268.505912 
L 93.240684 234.979902 
L 98.510456 234.979902 
L 98.510456 205.424078 
L 102.62243 205.424078 
L 102.62243 183.808624 
L 102.793446 183.808624 
L 102.878374 180.720702 
L 105.99483 180.720702 
L 105.99483 163.516566 
L 106.137884 163.516566 
L 106.137884 157.340722 
L 106.699465 157.340722 
L 106.699465 156.89959 
L 108.85357 156.89959 
L 108.85357 149.400351 
L 108.976522 149.400351 
L 108.976522 137.930927 
L 111.334639 137.930927 
L 111.442442 129.990556 
L 111.656212 129.990556 
L 111.656212 128.226029 
L 112.283321 128.226029 
L 112.283321 127.784898 
L 116.253478 127.784898 
L 116.253478 126.902634 
L 118.038842 126.902634 
L 118.038842 126.461502 
L 119.599808 126.461502 
L 119.599808 126.020371 
L 121.041112 126.020371 
L 121.041112 123.814712 
L 122.379802 123.814712 
L 122.379802 120.72679 
L 123.629523 120.72679 
L 123.629523 116.756605 
L 128.765092 116.756605 
L 128.765092 116.315473 
L 130.24611 116.315473 
L 130.24611 115.874341 
L 132.881269 115.874341 
L 132.881269 114.992078 
L 133.738397 114.992078 
L 133.738397 114.550946 
L 136.428155 114.550946 
L 136.428155 114.109815 
L 138.284415 114.109815 
L 138.323083 113.227551 
L 139.471855 113.227551 
L 139.471855 112.78642 
L 152.649817 112.78642 
L 152.649817 111.904156 
L 173.470098 111.904156 
L 173.470098 111.463024 
L 216.625807 111.463024 
L 216.625807 111.021893 
L 216.740721 111.021893 
L 216.740721 110.580761 
L 222.03224 110.580761 
L 222.03224 110.139629 
L 225.070929 110.139629 
L 225.070929 109.698498 
L 225.845655 109.698498 
L 225.845655 109.257366 
L 225.986219 109.257366 
L 225.986219 108.816234 
L 226.341774 108.816234 
L 226.341774 108.375102 
L 230.092777 108.375102 
L 230.092777 107.933971 
L 230.890123 107.933971 
L 231.000333 105.28718 
L 231.730723 105.28718 
L 231.730723 104.846049 
L 239.999685 104.846049 
L 240.001537 103.963785 
L 241.559731 103.963785 
L 241.560476 103.081522 
L 243.915582 103.081522 
L 243.91981 101.758127 
L 251.537997 101.758127 
L 251.540817 99.9936 
L 255.834968 99.9936 
L 255.834968 99.552468 
L 256.947589 99.552468 
L 256.958045 96.905678 
L 260.260028 96.905678 
L 260.260028 96.464546 
L 261.145985 96.464546 
L 261.145985 96.023415 
L 264.573129 96.023415 
L 264.573129 95.582283 
L 267.471523 95.582283 
L 267.471859 94.70002 
L 269.434987 94.70002 
L 269.434987 94.258888 
L 269.983966 94.258888 
L 269.984424 93.376624 
L 272.199439 93.376624 
L 272.294535 92.053229 
L 274.266576 92.053229 
L 274.266576 91.612098 
L 275.973908 91.612098 
L 275.973908 91.170966 
L 277.610117 91.170966 
L 277.610117 90.729834 
L 281.80751 90.729834 
L 281.807566 89.847571 
L 283.021107 89.847571 
L 283.021107 89.406439 
L 288.136236 89.406439 
L 288.136236 88.965307 
L 293.547877 88.965307 
L 293.547877 88.524176 
L 295.462352 88.524176 
L 295.462449 87.641912 
L 300.256649 87.641912 
L 300.256649 87.20078 
L 360.8064 87.20078 
L 360.8064 87.20078 
" style="fill:none;stroke:#ff0000;stroke-linecap:square;stroke-width:1.5;"/>
   </g>
   <g id="line2d_51">
    <defs>
     <path d="M -6 6 
L 6 6 
L 6 -6 
L -6 -6 
z
" id="mc11ff7d4a8" style="stroke:#ff0000;stroke-linejoin:miter;stroke-width:1.5;"/>
    </defs>
    <g>
     <use style="fill-opacity:0;stroke:#ff0000;stroke-linejoin:miter;stroke-width:1.5;" x="98.510456" xlink:href="#mc11ff7d4a8" y="205.424078"/>
     <use style="fill-opacity:0;stroke:#ff0000;stroke-linejoin:miter;stroke-width:1.5;" x="152.649817" xlink:href="#mc11ff7d4a8" y="111.904156"/>
     <use style="fill-opacity:0;stroke:#ff0000;stroke-linejoin:miter;stroke-width:1.5;" x="288.136236" xlink:href="#mc11ff7d4a8" y="89.406439"/>
     <use style="fill-opacity:0;stroke:#ff0000;stroke-linejoin:miter;stroke-width:1.5;" x="300.256649" xlink:href="#mc11ff7d4a8" y="87.20078"/>
     <use style="fill-opacity:0;stroke:#ff0000;stroke-linejoin:miter;stroke-width:1.5;" x="360.8064" xlink:href="#mc11ff7d4a8" y="87.20078"/>
    </g>
   </g>
   <g id="line2d_52">
    <path style="fill:none;stroke:#ff0000;stroke-linecap:square;stroke-width:1.5;"/>
    <g/>
   </g>
   <g id="line2d_53">
    <path clip-path="url(#p9658529fae)" d="M 230.862023 107.933971 
" style="fill:none;stroke:#ff0000;stroke-linecap:square;stroke-width:1.5;"/>
    <defs>
     <path d="M -12 12 
L 12 -12 
M -12 -12 
L 12 12 
" id="mc751fc2d96" style="stroke:#ff0000;"/>
    </defs>
    <g clip-path="url(#p9658529fae)">
     <use style="fill:#ff0000;stroke:#ff0000;" x="230.862023" xlink:href="#mc751fc2d96" y="107.933971"/>
    </g>
   </g>
   <g id="line2d_54">
    <defs>
     <path d="M 0 1.5 
C 0.397805 1.5 0.77937 1.341951 1.06066 1.06066 
C 1.341951 0.77937 1.5 0.397805 1.5 0 
C 1.5 -0.397805 1.341951 -0.77937 1.06066 -1.06066 
C 0.77937 -1.341951 0.397805 -1.5 0 -1.5 
C -0.397805 -1.5 -0.77937 -1.341951 -1.06066 -1.06066 
C -1.341951 -0.77937 -1.5 -0.397805 -1.5 0 
C -1.5 0.397805 -1.341951 0.77937 -1.06066 1.06066 
C -0.77937 1.341951 -0.397805 1.5 0 1.5 
z
" id="m15411faf0a" style="stroke:#bf00bf;"/>
    </defs>
    <g>
     <use style="fill:#bf00bf;stroke:#bf00bf;" x="300.721181" xlink:href="#m15411faf0a" y="93.817756"/>
     <use style="fill:#bf00bf;stroke:#bf00bf;" x="300.721181" xlink:href="#m15411faf0a" y="93.817756"/>
    </g>
   </g>
   <g id="line2d_55">
    <path d="M 72.217115 298.944 
L 72.217115 295.856078 
L 84.818792 295.856078 
L 84.818792 263.653463 
L 92.298097 263.653463 
L 92.298097 232.774244 
L 97.635342 232.774244 
L 97.635342 208.070868 
L 101.788176 208.070868 
L 101.877755 179.838439 
L 105.187973 179.838439 
L 105.26277 153.811668 
L 105.337272 153.811668 
L 105.337272 153.370537 
L 108.066361 153.370537 
L 108.066361 144.989034 
L 108.194549 144.989034 
L 108.194549 144.547902 
L 110.562208 144.547902 
L 110.562208 135.725268 
L 110.841731 135.725268 
L 110.841731 134.843005 
L 112.76537 134.843005 
L 112.76537 130.431688 
L 113.014204 130.431688 
L 113.014204 128.226029 
L 116.726103 128.226029 
L 116.726103 123.814712 
L 120.030297 123.814712 
L 120.030297 122.491317 
L 121.265635 122.491317 
L 121.28157 121.609054 
L 126.250102 121.609054 
L 126.250102 121.167922 
L 129.344604 121.167922 
L 129.344604 120.72679 
L 132.665091 120.72679 
L 132.665091 119.844527 
L 132.984158 119.844527 
L 132.984158 119.403395 
L 134.168812 119.403395 
L 134.168812 118.962263 
L 134.7148 118.962263 
L 134.792631 117.197737 
L 135.230218 117.197737 
L 135.230218 116.756605 
L 135.456502 116.756605 
L 135.456502 115.874341 
L 136.815745 115.874341 
L 136.815745 115.43321 
L 138.050729 115.43321 
L 138.050729 114.992078 
L 139.568511 114.992078 
L 139.568511 114.550946 
L 143.300114 114.550946 
L 143.300114 114.109815 
L 145.665089 114.109815 
L 145.665089 113.668683 
L 149.938434 113.668683 
L 149.938434 113.227551 
L 151.618026 113.227551 
L 151.618026 112.78642 
L 207.461089 112.78642 
L 207.461089 112.345288 
L 207.654241 112.345288 
L 207.654241 111.904156 
L 230.885098 111.904156 
L 230.974501 107.492839 
L 231.007801 107.492839 
L 231.007801 107.051707 
L 243.909307 107.051707 
L 243.958317 104.404917 
L 251.536665 104.404917 
L 251.552734 103.081522 
L 256.946296 103.081522 
L 256.946296 102.64039 
L 261.152686 102.64039 
L 261.152686 102.199259 
L 264.58974 102.199259 
L 264.58974 101.758127 
L 267.478104 101.758127 
L 267.478104 101.316995 
L 269.987104 101.316995 
L 269.987104 100.875863 
L 272.198175 100.875863 
L 272.198175 100.434732 
L 274.180016 100.434732 
L 274.180016 99.9936 
L 277.613138 99.9936 
L 277.613138 99.552468 
L 279.118283 99.552468 
L 279.118283 99.111337 
L 280.508978 99.111337 
L 280.512343 98.229073 
L 281.80671 98.229073 
L 281.80671 97.787941 
L 283.023493 97.787941 
L 283.023543 96.905678 
L 284.164001 96.905678 
L 284.164001 96.464546 
L 287.218118 96.464546 
L 287.218118 96.023415 
L 289.011052 96.023415 
L 289.011052 95.582283 
L 289.847264 95.582283 
L 289.847264 95.141151 
L 294.844904 95.141151 
L 294.844904 94.70002 
L 299.291711 94.70002 
L 299.291711 94.258888 
L 300.721181 94.258888 
L 300.721181 93.817756 
L 360.8064 93.817756 
L 360.8064 93.817756 
" style="fill:none;stroke:#bf00bf;stroke-linecap:square;stroke-width:1.5;"/>
   </g>
   <g id="line2d_56">
    <defs>
     <path d="M -0 8.485281 
L 8.485281 0 
L 0 -8.485281 
L -8.485281 -0 
z
" id="mb867682487" style="stroke:#bf00bf;stroke-linejoin:miter;stroke-width:1.5;"/>
    </defs>
    <g>
     <use style="fill-opacity:0;stroke:#bf00bf;stroke-linejoin:miter;stroke-width:1.5;" x="113.014204" xlink:href="#mb867682487" y="130.431688"/>
     <use style="fill-opacity:0;stroke:#bf00bf;stroke-linejoin:miter;stroke-width:1.5;" x="207.654241" xlink:href="#mb867682487" y="111.904156"/>
     <use style="fill-opacity:0;stroke:#bf00bf;stroke-linejoin:miter;stroke-width:1.5;" x="300.721181" xlink:href="#mb867682487" y="93.817756"/>
     <use style="fill-opacity:0;stroke:#bf00bf;stroke-linejoin:miter;stroke-width:1.5;" x="300.721181" xlink:href="#mb867682487" y="93.817756"/>
     <use style="fill-opacity:0;stroke:#bf00bf;stroke-linejoin:miter;stroke-width:1.5;" x="360.8064" xlink:href="#mb867682487" y="93.817756"/>
    </g>
   </g>
   <g id="line2d_57">
    <path style="fill:none;stroke:#bf00bf;stroke-linecap:square;stroke-width:1.5;"/>
    <g/>
   </g>
   <g id="line2d_58">
    <path clip-path="url(#p9658529fae)" d="M 230.862822 111.904156 
" style="fill:none;stroke:#bf00bf;stroke-linecap:square;stroke-width:1.5;"/>
    <defs>
     <path d="M -12 12 
L 12 -12 
M -12 -12 
L 12 12 
" id="m42e37bd630" style="stroke:#bf00bf;"/>
    </defs>
    <g clip-path="url(#p9658529fae)">
     <use style="fill:#bf00bf;stroke:#bf00bf;" x="230.862822" xlink:href="#m42e37bd630" y="111.904156"/>
    </g>
   </g>
   <g id="line2d_59">
    <path d="M 360.8064 93.817756 
L 380.514816 293.51808 
" style="fill:none;stroke:#bf00bf;stroke-linecap:square;stroke-width:1.5;"/>
    <g>
     <use style="fill-opacity:0;stroke:#bf00bf;stroke-linejoin:miter;stroke-width:1.5;" x="360.8064" xlink:href="#mb867682487" y="93.817756"/>
     <use style="fill-opacity:0;stroke:#bf00bf;stroke-linejoin:miter;stroke-width:1.5;" x="380.514816" xlink:href="#mb867682487" y="293.51808"/>
    </g>
   </g>
   <g id="line2d_60">
    <path d="M 360.8064 87.20078 
L 380.514816 241.429248 
" style="fill:none;stroke:#ff0000;stroke-linecap:square;stroke-width:1.5;"/>
    <g>
     <use style="fill-opacity:0;stroke:#ff0000;stroke-linejoin:miter;stroke-width:1.5;" x="360.8064" xlink:href="#mc11ff7d4a8" y="87.20078"/>
     <use style="fill-opacity:0;stroke:#ff0000;stroke-linejoin:miter;stroke-width:1.5;" x="380.514816" xlink:href="#mc11ff7d4a8" y="241.429248"/>
    </g>
   </g>
   <g id="line2d_61">
    <path d="M 360.8064 60.732878 
L 380.514816 189.340416 
" style="fill:none;stroke:#0000ff;stroke-linecap:square;stroke-width:1.5;"/>
    <g>
     <use style="fill-opacity:0;stroke:#0000ff;stroke-linejoin:bevel;stroke-width:1.5;" x="360.8064" xlink:href="#m8600622a48" y="60.732878"/>
     <use style="fill-opacity:0;stroke:#0000ff;stroke-linejoin:bevel;stroke-width:1.5;" x="380.514816" xlink:href="#m8600622a48" y="189.340416"/>
    </g>
   </g>
   <g id="line2d_62">
    <path d="M 360.8064 60.732878 
L 380.514816 137.251584 
" style="fill:none;stroke:#000000;stroke-linecap:square;stroke-width:1.5;"/>
    <g>
     <use style="fill-opacity:0;stroke:#000000;stroke-width:1.5;" x="360.8064" xlink:href="#m0bf959edfc" y="60.732878"/>
     <use style="fill-opacity:0;stroke:#000000;stroke-width:1.5;" x="380.514816" xlink:href="#m0bf959edfc" y="137.251584"/>
    </g>
   </g>
   <g id="line2d_63">
    <path d="M 360.8064 27.648 
L 380.514816 85.162752 
" style="fill:none;stroke:#008000;stroke-linecap:square;stroke-width:1.5;"/>
    <g>
     <use style="fill-opacity:0;stroke:#008000;stroke-linejoin:miter;stroke-width:1.5;" x="360.8064" xlink:href="#m9c563022e6" y="27.648"/>
     <use style="fill-opacity:0;stroke:#008000;stroke-linejoin:miter;stroke-width:1.5;" x="380.514816" xlink:href="#m9c563022e6" y="85.162752"/>
    </g>
   </g>
   <g id="line2d_64">
    <path d="M 360.8064 27.648 
L 380.514816 33.07392 
" style="fill:none;stroke:#00bfbf;stroke-linecap:square;stroke-width:1.5;"/>
    <g>
     <use style="fill-opacity:0;stroke:#00bfbf;stroke-width:1.5;" x="360.8064" xlink:href="#m8874d09deb" y="27.648"/>
     <use style="fill-opacity:0;stroke:#00bfbf;stroke-width:1.5;" x="380.514816" xlink:href="#m8874d09deb" y="33.07392"/>
    </g>
   </g>
   <g id="line2d_65">
    <path d="M 360.8064 298.944 
L 360.8064 27.648 
" style="fill:none;stroke:#000000;stroke-linecap:square;stroke-width:1.5;"/>
   </g>
   <g id="patch_3">
    <path d="M 57.6 298.944 
L 360.8064 298.944 
" style="fill:none;stroke:#000000;stroke-linecap:square;stroke-linejoin:miter;stroke-width:0.8;"/>
   </g>
   <g id="patch_4">
    <path d="M 57.6 27.648 
L 360.8064 27.648 
" style="fill:none;stroke:#000000;stroke-linecap:square;stroke-linejoin:miter;stroke-width:0.8;"/>
   </g>
   <g id="text_13">
    <!-- 40-D -->
    <g transform="translate(386.578944 297.381205)scale(0.14 -0.14)">
     <defs>
      <path d="M 4.890625 31.390625 
L 31.203125 31.390625 
L 31.203125 23.390625 
L 4.890625 23.390625 
z
" id="DejaVuSans-45"/>
      <path d="M 19.671875 64.796875 
L 19.671875 8.109375 
L 31.59375 8.109375 
Q 46.6875 8.109375 53.6875 14.9375 
Q 60.6875 21.78125 60.6875 36.53125 
Q 60.6875 51.171875 53.6875 57.984375 
Q 46.6875 64.796875 31.59375 64.796875 
z
M 9.8125 72.90625 
L 30.078125 72.90625 
Q 51.265625 72.90625 61.171875 64.09375 
Q 71.09375 55.28125 71.09375 36.53125 
Q 71.09375 17.671875 61.125 8.828125 
Q 51.171875 0 30.078125 0 
L 9.8125 0 
z
" id="DejaVuSans-68"/>
     </defs>
     <use xlink:href="#DejaVuSans-52"/>
     <use x="63.623047" xlink:href="#DejaVuSans-48"/>
     <use x="127.246094" xlink:href="#DejaVuSans-45"/>
     <use x="163.330078" xlink:href="#DejaVuSans-68"/>
    </g>
   </g>
   <g id="text_14">
    <!-- 20-D -->
    <g transform="translate(386.578944 245.292373)scale(0.14 -0.14)">
     <use xlink:href="#DejaVuSans-50"/>
     <use x="63.623047" xlink:href="#DejaVuSans-48"/>
     <use x="127.246094" xlink:href="#DejaVuSans-45"/>
     <use x="163.330078" xlink:href="#DejaVuSans-68"/>
    </g>
   </g>
   <g id="text_15">
    <!-- 5-D -->
    <g transform="translate(386.578944 193.203541)scale(0.14 -0.14)">
     <defs>
      <path d="M 10.796875 72.90625 
L 49.515625 72.90625 
L 49.515625 64.59375 
L 19.828125 64.59375 
L 19.828125 46.734375 
Q 21.96875 47.46875 24.109375 47.828125 
Q 26.265625 48.1875 28.421875 48.1875 
Q 40.625 48.1875 47.75 41.5 
Q 54.890625 34.8125 54.890625 23.390625 
Q 54.890625 11.625 47.5625 5.09375 
Q 40.234375 -1.421875 26.90625 -1.421875 
Q 22.3125 -1.421875 17.546875 -0.640625 
Q 12.796875 0.140625 7.71875 1.703125 
L 7.71875 11.625 
Q 12.109375 9.234375 16.796875 8.0625 
Q 21.484375 6.890625 26.703125 6.890625 
Q 35.15625 6.890625 40.078125 11.328125 
Q 45.015625 15.765625 45.015625 23.390625 
Q 45.015625 31 40.078125 35.4375 
Q 35.15625 39.890625 26.703125 39.890625 
Q 22.75 39.890625 18.8125 39.015625 
Q 14.890625 38.140625 10.796875 36.28125 
z
" id="DejaVuSans-53"/>
     </defs>
     <use xlink:href="#DejaVuSans-53"/>
     <use x="63.623047" xlink:href="#DejaVuSans-45"/>
     <use x="99.707031" xlink:href="#DejaVuSans-68"/>
    </g>
   </g>
   <g id="text_16">
    <!-- 10-D -->
    <g transform="translate(386.578944 141.114709)scale(0.14 -0.14)">
     <use xlink:href="#DejaVuSans-49"/>
     <use x="63.623047" xlink:href="#DejaVuSans-48"/>
     <use x="127.246094" xlink:href="#DejaVuSans-45"/>
     <use x="163.330078" xlink:href="#DejaVuSans-68"/>
    </g>
   </g>
   <g id="text_17">
    <!-- 3-D -->
    <g transform="translate(386.578944 89.025877)scale(0.14 -0.14)">
     <defs>
      <path d="M 40.578125 39.3125 
Q 47.65625 37.796875 51.625 33 
Q 55.609375 28.21875 55.609375 21.1875 
Q 55.609375 10.40625 48.1875 4.484375 
Q 40.765625 -1.421875 27.09375 -1.421875 
Q 22.515625 -1.421875 17.65625 -0.515625 
Q 12.796875 0.390625 7.625 2.203125 
L 7.625 11.71875 
Q 11.71875 9.328125 16.59375 8.109375 
Q 21.484375 6.890625 26.8125 6.890625 
Q 36.078125 6.890625 40.9375 10.546875 
Q 45.796875 14.203125 45.796875 21.1875 
Q 45.796875 27.640625 41.28125 31.265625 
Q 36.765625 34.90625 28.71875 34.90625 
L 20.21875 34.90625 
L 20.21875 43.015625 
L 29.109375 43.015625 
Q 36.375 43.015625 40.234375 45.921875 
Q 44.09375 48.828125 44.09375 54.296875 
Q 44.09375 59.90625 40.109375 62.90625 
Q 36.140625 65.921875 28.71875 65.921875 
Q 24.65625 65.921875 20.015625 65.03125 
Q 15.375 64.15625 9.8125 62.3125 
L 9.8125 71.09375 
Q 15.4375 72.65625 20.34375 73.4375 
Q 25.25 74.21875 29.59375 74.21875 
Q 40.828125 74.21875 47.359375 69.109375 
Q 53.90625 64.015625 53.90625 55.328125 
Q 53.90625 49.265625 50.4375 45.09375 
Q 46.96875 40.921875 40.578125 39.3125 
z
" id="DejaVuSans-51"/>
     </defs>
     <use xlink:href="#DejaVuSans-51"/>
     <use x="63.623047" xlink:href="#DejaVuSans-45"/>
     <use x="99.707031" xlink:href="#DejaVuSans-68"/>
    </g>
   </g>
   <g id="text_18">
    <!-- 2-D -->
    <g transform="translate(386.578944 36.937045)scale(0.14 -0.14)">
     <use xlink:href="#DejaVuSans-50"/>
     <use x="63.623047" xlink:href="#DejaVuSans-45"/>
     <use x="99.707031" xlink:href="#DejaVuSans-68"/>
    </g>
   </g>
   <g id="text_19">
    <!-- bbob-constrained f25 -->
    <g transform="translate(60.632064 38.111366)scale(0.102 -0.102)">
     <defs>
      <path d="M 48.6875 27.296875 
Q 48.6875 37.203125 44.609375 42.84375 
Q 40.53125 48.484375 33.40625 48.484375 
Q 26.265625 48.484375 22.1875 42.84375 
Q 18.109375 37.203125 18.109375 27.296875 
Q 18.109375 17.390625 22.1875 11.75 
Q 26.265625 6.109375 33.40625 6.109375 
Q 40.53125 6.109375 44.609375 11.75 
Q 48.6875 17.390625 48.6875 27.296875 
z
M 18.109375 46.390625 
Q 20.953125 51.265625 25.265625 53.625 
Q 29.59375 56 35.59375 56 
Q 45.5625 56 51.78125 48.09375 
Q 58.015625 40.1875 58.015625 27.296875 
Q 58.015625 14.40625 51.78125 6.484375 
Q 45.5625 -1.421875 35.59375 -1.421875 
Q 29.59375 -1.421875 25.265625 0.953125 
Q 20.953125 3.328125 18.109375 8.203125 
L 18.109375 0 
L 9.078125 0 
L 9.078125 75.984375 
L 18.109375 75.984375 
z
" id="DejaVuSans-98"/>
     </defs>
     <use xlink:href="#DejaVuSans-98"/>
     <use x="63.476562" xlink:href="#DejaVuSans-98"/>
     <use x="126.953125" xlink:href="#DejaVuSans-111"/>
     <use x="188.134766" xlink:href="#DejaVuSans-98"/>
     <use x="251.611328" xlink:href="#DejaVuSans-45"/>
     <use x="287.695312" xlink:href="#DejaVuSans-99"/>
     <use x="342.675781" xlink:href="#DejaVuSans-111"/>
     <use x="403.857422" xlink:href="#DejaVuSans-110"/>
     <use x="467.236328" xlink:href="#DejaVuSans-115"/>
     <use x="519.335938" xlink:href="#DejaVuSans-116"/>
     <use x="558.544922" xlink:href="#DejaVuSans-114"/>
     <use x="599.658203" xlink:href="#DejaVuSans-97"/>
     <use x="660.9375" xlink:href="#DejaVuSans-105"/>
     <use x="688.720703" xlink:href="#DejaVuSans-110"/>
     <use x="752.099609" xlink:href="#DejaVuSans-101"/>
     <use x="813.623047" xlink:href="#DejaVuSans-100"/>
     <use x="877.099609" xlink:href="#DejaVuSans-32"/>
     <use x="908.886719" xlink:href="#DejaVuSans-102"/>
     <use x="944.091797" xlink:href="#DejaVuSans-50"/>
     <use x="1007.714844" xlink:href="#DejaVuSans-53"/>
    </g>
    <!-- 41 targets: 100..1e-06 -->
    <g transform="translate(60.632064 49.533135)scale(0.102 -0.102)">
     <defs>
      <path d="M 11.71875 12.40625 
L 22.015625 12.40625 
L 22.015625 0 
L 11.71875 0 
z
M 11.71875 51.703125 
L 22.015625 51.703125 
L 22.015625 39.3125 
L 11.71875 39.3125 
z
" id="DejaVuSans-58"/>
     </defs>
     <use xlink:href="#DejaVuSans-52"/>
     <use x="63.623047" xlink:href="#DejaVuSans-49"/>
     <use x="127.246094" xlink:href="#DejaVuSans-32"/>
     <use x="159.033203" xlink:href="#DejaVuSans-116"/>
     <use x="198.242188" xlink:href="#DejaVuSans-97"/>
     <use x="259.521484" xlink:href="#DejaVuSans-114"/>
     <use x="298.884766" xlink:href="#DejaVuSans-103"/>
     <use x="362.361328" xlink:href="#DejaVuSans-101"/>
     <use x="423.884766" xlink:href="#DejaVuSans-116"/>
     <use x="463.09375" xlink:href="#DejaVuSans-115"/>
     <use x="515.193359" xlink:href="#DejaVuSans-58"/>
     <use x="548.884766" xlink:href="#DejaVuSans-32"/>
     <use x="580.671875" xlink:href="#DejaVuSans-49"/>
     <use x="644.294922" xlink:href="#DejaVuSans-48"/>
     <use x="707.917969" xlink:href="#DejaVuSans-48"/>
     <use x="771.541016" xlink:href="#DejaVuSans-46"/>
     <use x="803.328125" xlink:href="#DejaVuSans-46"/>
     <use x="835.115234" xlink:href="#DejaVuSans-49"/>
     <use x="898.738281" xlink:href="#DejaVuSans-101"/>
     <use x="960.261719" xlink:href="#DejaVuSans-45"/>
     <use x="996.345703" xlink:href="#DejaVuSans-48"/>
     <use x="1059.96875" xlink:href="#DejaVuSans-54"/>
    </g>
    <!-- evals = f-evals + g-evals -->
    <g transform="translate(60.632064 60.954904)scale(0.102 -0.102)">
     <defs>
      <path d="M 10.59375 45.40625 
L 73.1875 45.40625 
L 73.1875 37.203125 
L 10.59375 37.203125 
z
M 10.59375 25.484375 
L 73.1875 25.484375 
L 73.1875 17.1875 
L 10.59375 17.1875 
z
" id="DejaVuSans-61"/>
      <path d="M 46 62.703125 
L 46 35.5 
L 73.1875 35.5 
L 73.1875 27.203125 
L 46 27.203125 
L 46 0 
L 37.796875 0 
L 37.796875 27.203125 
L 10.59375 27.203125 
L 10.59375 35.5 
L 37.796875 35.5 
L 37.796875 62.703125 
z
" id="DejaVuSans-43"/>
     </defs>
     <use xlink:href="#DejaVuSans-101"/>
     <use x="61.523438" xlink:href="#DejaVuSans-118"/>
     <use x="120.703125" xlink:href="#DejaVuSans-97"/>
     <use x="181.982422" xlink:href="#DejaVuSans-108"/>
     <use x="209.765625" xlink:href="#DejaVuSans-115"/>
     <use x="261.865234" xlink:href="#DejaVuSans-32"/>
     <use x="293.652344" xlink:href="#DejaVuSans-61"/>
     <use x="377.441406" xlink:href="#DejaVuSans-32"/>
     <use x="409.228516" xlink:href="#DejaVuSans-102"/>
     <use x="438.933594" xlink:href="#DejaVuSans-45"/>
     <use x="475.017578" xlink:href="#DejaVuSans-101"/>
     <use x="536.541016" xlink:href="#DejaVuSans-118"/>
     <use x="595.720703" xlink:href="#DejaVuSans-97"/>
     <use x="657" xlink:href="#DejaVuSans-108"/>
     <use x="684.783203" xlink:href="#DejaVuSans-115"/>
     <use x="736.882812" xlink:href="#DejaVuSans-32"/>
     <use x="768.669922" xlink:href="#DejaVuSans-43"/>
     <use x="852.458984" xlink:href="#DejaVuSans-32"/>
     <use x="884.246094" xlink:href="#DejaVuSans-103"/>
     <use x="947.722656" xlink:href="#DejaVuSans-45"/>
     <use x="983.806641" xlink:href="#DejaVuSans-101"/>
     <use x="1045.330078" xlink:href="#DejaVuSans-118"/>
     <use x="1104.509766" xlink:href="#DejaVuSans-97"/>
     <use x="1165.789062" xlink:href="#DejaVuSans-108"/>
     <use x="1193.572266" xlink:href="#DejaVuSans-115"/>
    </g>
    <!-- 15 instances -->
    <g transform="translate(60.632064 72.376672)scale(0.102 -0.102)">
     <use xlink:href="#DejaVuSans-49"/>
     <use x="63.623047" xlink:href="#DejaVuSans-53"/>
     <use x="127.246094" xlink:href="#DejaVuSans-32"/>
     <use x="159.033203" xlink:href="#DejaVuSans-105"/>
     <use x="186.816406" xlink:href="#DejaVuSans-110"/>
     <use x="250.195312" xlink:href="#DejaVuSans-115"/>
     <use x="302.294922" xlink:href="#DejaVuSans-116"/>
     <use x="341.503906" xlink:href="#DejaVuSans-97"/>
     <use x="402.783203" xlink:href="#DejaVuSans-110"/>
     <use x="466.162109" xlink:href="#DejaVuSans-99"/>
     <use x="521.142578" xlink:href="#DejaVuSans-101"/>
     <use x="582.666016" xlink:href="#DejaVuSans-115"/>
    </g>
   </g>
   <g id="text_20">
    <!-- v2.4.159 -->
    <g style="fill:#808080;" transform="translate(187.15945 294.151352)scale(0.1 -0.1)">
     <defs>
      <path d="M 10.984375 1.515625 
L 10.984375 10.5 
Q 14.703125 8.734375 18.5 7.8125 
Q 22.3125 6.890625 25.984375 6.890625 
Q 35.75 6.890625 40.890625 13.453125 
Q 46.046875 20.015625 46.78125 33.40625 
Q 43.953125 29.203125 39.59375 26.953125 
Q 35.25 24.703125 29.984375 24.703125 
Q 19.046875 24.703125 12.671875 31.3125 
Q 6.296875 37.9375 6.296875 49.421875 
Q 6.296875 60.640625 12.9375 67.421875 
Q 19.578125 74.21875 30.609375 74.21875 
Q 43.265625 74.21875 49.921875 64.515625 
Q 56.59375 54.828125 56.59375 36.375 
Q 56.59375 19.140625 48.40625 8.859375 
Q 40.234375 -1.421875 26.421875 -1.421875 
Q 22.703125 -1.421875 18.890625 -0.6875 
Q 15.09375 0.046875 10.984375 1.515625 
z
M 30.609375 32.421875 
Q 37.25 32.421875 41.125 36.953125 
Q 45.015625 41.5 45.015625 49.421875 
Q 45.015625 57.28125 41.125 61.84375 
Q 37.25 66.40625 30.609375 66.40625 
Q 23.96875 66.40625 20.09375 61.84375 
Q 16.21875 57.28125 16.21875 49.421875 
Q 16.21875 41.5 20.09375 36.953125 
Q 23.96875 32.421875 30.609375 32.421875 
z
" id="DejaVuSans-57"/>
     </defs>
     <use xlink:href="#DejaVuSans-118"/>
     <use x="59.179688" xlink:href="#DejaVuSans-50"/>
     <use x="122.802734" xlink:href="#DejaVuSans-46"/>
     <use x="154.589844" xlink:href="#DejaVuSans-52"/>
     <use x="218.212891" xlink:href="#DejaVuSans-46"/>
     <use x="250" xlink:href="#DejaVuSans-49"/>
     <use x="313.623047" xlink:href="#DejaVuSans-53"/>
     <use x="377.246094" xlink:href="#DejaVuSans-57"/>
    </g>
   </g>
   <g id="text_21">
    <!-- 25 Discus, m=1 -->
    <g transform="translate(129.7282 21.648)scale(0.2 -0.2)">
     <use xlink:href="#DejaVuSans-50"/>
     <use x="63.623047" xlink:href="#DejaVuSans-53"/>
     <use x="127.246094" xlink:href="#DejaVuSans-32"/>
     <use x="159.033203" xlink:href="#DejaVuSans-68"/>
     <use x="236.035156" xlink:href="#DejaVuSans-105"/>
     <use x="263.818359" xlink:href="#DejaVuSans-115"/>
     <use x="315.917969" xlink:href="#DejaVuSans-99"/>
     <use x="370.898438" xlink:href="#DejaVuSans-117"/>
     <use x="434.277344" xlink:href="#DejaVuSans-115"/>
     <use x="486.376953" xlink:href="#DejaVuSans-44"/>
     <use x="518.164062" xlink:href="#DejaVuSans-32"/>
     <use x="549.951172" xlink:href="#DejaVuSans-109"/>
     <use x="647.363281" xlink:href="#DejaVuSans-61"/>
     <use x="731.152344" xlink:href="#DejaVuSans-49"/>
    </g>
   </g>
  </g>
 </g>
 <defs>
  <clipPath id="p9658529fae">
   <rect height="271.296" width="303.2064" x="57.6" y="27.648"/>
  </clipPath>
 </defs>
</svg>
