<?xml version="1.0" encoding="utf-8" standalone="no"?>
<!DOCTYPE svg PUBLIC "-//W3C//DTD SVG 1.1//EN"
  "http://www.w3.org/Graphics/SVG/1.1/DTD/svg11.dtd">
<!-- Created with matplotlib (https://matplotlib.org/) -->
<svg height="345.6pt" version="1.1" viewBox="0 0 460.8 345.6" width="460.8pt" xmlns="http://www.w3.org/2000/svg" xmlns:xlink="http://www.w3.org/1999/xlink">
 <metadata>
  <rdf:RDF xmlns:cc="http://creativecommons.org/ns#" xmlns:dc="http://purl.org/dc/elements/1.1/" xmlns:rdf="http://www.w3.org/1999/02/22-rdf-syntax-ns#">
   <cc:Work>
    <dc:type rdf:resource="http://purl.org/dc/dcmitype/StillImage"/>
    <dc:date>2022-02-09T00:07:51.275064</dc:date>
    <dc:format>image/svg+xml</dc:format>
    <dc:creator>
     <cc:Agent>
      <dc:title>Matplotlib v3.3.3, https://matplotlib.org/</dc:title>
     </cc:Agent>
    </dc:creator>
   </cc:Work>
  </rdf:RDF>
 </metadata>
 <defs>
  <style type="text/css">*{stroke-linecap:butt;stroke-linejoin:round;}</style>
 </defs>
 <g id="figure_1">
  <g id="patch_1">
   <path d="M 0 345.6 
L 460.8 345.6 
L 460.8 0 
L 0 0 
z
" style="fill:#ffffff;"/>
  </g>
  <g id="axes_1">
   <g id="patch_2">
    <path d="M 57.6 298.944 
L 360.8064 298.944 
L 360.8064 6.912 
L 57.6 6.912 
z
" style="fill:#ffffff;"/>
   </g>
   <g id="matplotlib.axis_1">
    <g id="xtick_1">
     <g id="line2d_1">
      <path clip-path="url(#p43e07f5c29)" d="M 57.6 298.944 
L 57.6 6.912 
" style="fill:none;stroke:#b0b0b0;stroke-linecap:square;stroke-width:0.8;"/>
     </g>
     <g id="line2d_2">
      <defs>
       <path d="M 0 0 
L 0 3.5 
" id="m770ab604b9" style="stroke:#000000;stroke-width:0.8;"/>
      </defs>
      <g>
       <use style="stroke:#000000;stroke-width:0.8;" x="57.6" xlink:href="#m770ab604b9" y="298.944"/>
      </g>
     </g>
     <g id="text_1">
      <!-- 0 -->
      <g transform="translate(52.191875 318.861344)scale(0.17 -0.17)">
       <defs>
        <path d="M 31.78125 66.40625 
Q 24.171875 66.40625 20.328125 58.90625 
Q 16.5 51.421875 16.5 36.375 
Q 16.5 21.390625 20.328125 13.890625 
Q 24.171875 6.390625 31.78125 6.390625 
Q 39.453125 6.390625 43.28125 13.890625 
Q 47.125 21.390625 47.125 36.375 
Q 47.125 51.421875 43.28125 58.90625 
Q 39.453125 66.40625 31.78125 66.40625 
z
M 31.78125 74.21875 
Q 44.046875 74.21875 50.515625 64.515625 
Q 56.984375 54.828125 56.984375 36.375 
Q 56.984375 17.96875 50.515625 8.265625 
Q 44.046875 -1.421875 31.78125 -1.421875 
Q 19.53125 -1.421875 13.0625 8.265625 
Q 6.59375 17.96875 6.59375 36.375 
Q 6.59375 54.828125 13.0625 64.515625 
Q 19.53125 74.21875 31.78125 74.21875 
z
" id="DejaVuSans-48"/>
       </defs>
       <use xlink:href="#DejaVuSans-48"/>
      </g>
     </g>
    </g>
    <g id="xtick_2">
     <g id="line2d_3">
      <path clip-path="url(#p43e07f5c29)" d="M 144.2304 298.944 
L 144.2304 6.912 
" style="fill:none;stroke:#b0b0b0;stroke-linecap:square;stroke-width:0.8;"/>
     </g>
     <g id="line2d_4">
      <g>
       <use style="stroke:#000000;stroke-width:0.8;" x="144.2304" xlink:href="#m770ab604b9" y="298.944"/>
      </g>
     </g>
     <g id="text_2">
      <!-- 2 -->
      <g transform="translate(138.822275 318.861344)scale(0.17 -0.17)">
       <defs>
        <path d="M 19.1875 8.296875 
L 53.609375 8.296875 
L 53.609375 0 
L 7.328125 0 
L 7.328125 8.296875 
Q 12.9375 14.109375 22.625 23.890625 
Q 32.328125 33.6875 34.8125 36.53125 
Q 39.546875 41.84375 41.421875 45.53125 
Q 43.3125 49.21875 43.3125 52.78125 
Q 43.3125 58.59375 39.234375 62.25 
Q 35.15625 65.921875 28.609375 65.921875 
Q 23.96875 65.921875 18.8125 64.3125 
Q 13.671875 62.703125 7.8125 59.421875 
L 7.8125 69.390625 
Q 13.765625 71.78125 18.9375 73 
Q 24.125 74.21875 28.421875 74.21875 
Q 39.75 74.21875 46.484375 68.546875 
Q 53.21875 62.890625 53.21875 53.421875 
Q 53.21875 48.921875 51.53125 44.890625 
Q 49.859375 40.875 45.40625 35.40625 
Q 44.1875 33.984375 37.640625 27.21875 
Q 31.109375 20.453125 19.1875 8.296875 
z
" id="DejaVuSans-50"/>
       </defs>
       <use xlink:href="#DejaVuSans-50"/>
      </g>
     </g>
    </g>
    <g id="xtick_3">
     <g id="line2d_5">
      <path clip-path="url(#p43e07f5c29)" d="M 230.8608 298.944 
L 230.8608 6.912 
" style="fill:none;stroke:#b0b0b0;stroke-linecap:square;stroke-width:0.8;"/>
     </g>
     <g id="line2d_6">
      <g>
       <use style="stroke:#000000;stroke-width:0.8;" x="230.8608" xlink:href="#m770ab604b9" y="298.944"/>
      </g>
     </g>
     <g id="text_3">
      <!-- 4 -->
      <g transform="translate(225.452675 318.861344)scale(0.17 -0.17)">
       <defs>
        <path d="M 37.796875 64.3125 
L 12.890625 25.390625 
L 37.796875 25.390625 
z
M 35.203125 72.90625 
L 47.609375 72.90625 
L 47.609375 25.390625 
L 58.015625 25.390625 
L 58.015625 17.1875 
L 47.609375 17.1875 
L 47.609375 0 
L 37.796875 0 
L 37.796875 17.1875 
L 4.890625 17.1875 
L 4.890625 26.703125 
z
" id="DejaVuSans-52"/>
       </defs>
       <use xlink:href="#DejaVuSans-52"/>
      </g>
     </g>
    </g>
    <g id="xtick_4">
     <g id="line2d_7">
      <path clip-path="url(#p43e07f5c29)" d="M 317.4912 298.944 
L 317.4912 6.912 
" style="fill:none;stroke:#b0b0b0;stroke-linecap:square;stroke-width:0.8;"/>
     </g>
     <g id="line2d_8">
      <g>
       <use style="stroke:#000000;stroke-width:0.8;" x="317.4912" xlink:href="#m770ab604b9" y="298.944"/>
      </g>
     </g>
     <g id="text_4">
      <!-- 6 -->
      <g transform="translate(312.083075 318.861344)scale(0.17 -0.17)">
       <defs>
        <path d="M 33.015625 40.375 
Q 26.375 40.375 22.484375 35.828125 
Q 18.609375 31.296875 18.609375 23.390625 
Q 18.609375 15.53125 22.484375 10.953125 
Q 26.375 6.390625 33.015625 6.390625 
Q 39.65625 6.390625 43.53125 10.953125 
Q 47.40625 15.53125 47.40625 23.390625 
Q 47.40625 31.296875 43.53125 35.828125 
Q 39.65625 40.375 33.015625 40.375 
z
M 52.59375 71.296875 
L 52.59375 62.3125 
Q 48.875 64.0625 45.09375 64.984375 
Q 41.3125 65.921875 37.59375 65.921875 
Q 27.828125 65.921875 22.671875 59.328125 
Q 17.53125 52.734375 16.796875 39.40625 
Q 19.671875 43.65625 24.015625 45.921875 
Q 28.375 48.1875 33.59375 48.1875 
Q 44.578125 48.1875 50.953125 41.515625 
Q 57.328125 34.859375 57.328125 23.390625 
Q 57.328125 12.15625 50.6875 5.359375 
Q 44.046875 -1.421875 33.015625 -1.421875 
Q 20.359375 -1.421875 13.671875 8.265625 
Q 6.984375 17.96875 6.984375 36.375 
Q 6.984375 53.65625 15.1875 63.9375 
Q 23.390625 74.21875 37.203125 74.21875 
Q 40.921875 74.21875 44.703125 73.484375 
Q 48.484375 72.75 52.59375 71.296875 
z
" id="DejaVuSans-54"/>
       </defs>
       <use xlink:href="#DejaVuSans-54"/>
      </g>
     </g>
    </g>
    <g id="xtick_5">
     <g id="line2d_9">
      <path clip-path="url(#p43e07f5c29)" d="M 100.9152 298.944 
L 100.9152 6.912 
" style="fill:none;stroke:#b0b0b0;stroke-linecap:square;stroke-width:0.8;"/>
     </g>
     <g id="line2d_10">
      <defs>
       <path d="M 0 0 
L 0 2 
" id="m01c4ca211e" style="stroke:#000000;stroke-width:0.6;"/>
      </defs>
      <g>
       <use style="stroke:#000000;stroke-width:0.6;" x="100.9152" xlink:href="#m01c4ca211e" y="298.944"/>
      </g>
     </g>
    </g>
    <g id="xtick_6">
     <g id="line2d_11">
      <path clip-path="url(#p43e07f5c29)" d="M 187.5456 298.944 
L 187.5456 6.912 
" style="fill:none;stroke:#b0b0b0;stroke-linecap:square;stroke-width:0.8;"/>
     </g>
     <g id="line2d_12">
      <g>
       <use style="stroke:#000000;stroke-width:0.6;" x="187.5456" xlink:href="#m01c4ca211e" y="298.944"/>
      </g>
     </g>
    </g>
    <g id="xtick_7">
     <g id="line2d_13">
      <path clip-path="url(#p43e07f5c29)" d="M 274.176 298.944 
L 274.176 6.912 
" style="fill:none;stroke:#b0b0b0;stroke-linecap:square;stroke-width:0.8;"/>
     </g>
     <g id="line2d_14">
      <g>
       <use style="stroke:#000000;stroke-width:0.6;" x="274.176" xlink:href="#m01c4ca211e" y="298.944"/>
      </g>
     </g>
    </g>
    <g id="xtick_8">
     <g id="line2d_15">
      <path clip-path="url(#p43e07f5c29)" d="M 360.8064 298.944 
L 360.8064 6.912 
" style="fill:none;stroke:#b0b0b0;stroke-linecap:square;stroke-width:0.8;"/>
     </g>
     <g id="line2d_16">
      <g>
       <use style="stroke:#000000;stroke-width:0.6;" x="360.8064" xlink:href="#m01c4ca211e" y="298.944"/>
      </g>
     </g>
    </g>
    <g id="text_5">
     <!-- log10(evals / dimension) -->
     <g transform="translate(104.238825 339.314156)scale(0.17 -0.17)">
      <defs>
       <path d="M 9.421875 75.984375 
L 18.40625 75.984375 
L 18.40625 0 
L 9.421875 0 
z
" id="DejaVuSans-108"/>
       <path d="M 30.609375 48.390625 
Q 23.390625 48.390625 19.1875 42.75 
Q 14.984375 37.109375 14.984375 27.296875 
Q 14.984375 17.484375 19.15625 11.84375 
Q 23.34375 6.203125 30.609375 6.203125 
Q 37.796875 6.203125 41.984375 11.859375 
Q 46.1875 17.53125 46.1875 27.296875 
Q 46.1875 37.015625 41.984375 42.703125 
Q 37.796875 48.390625 30.609375 48.390625 
z
M 30.609375 56 
Q 42.328125 56 49.015625 48.375 
Q 55.71875 40.765625 55.71875 27.296875 
Q 55.71875 13.875 49.015625 6.21875 
Q 42.328125 -1.421875 30.609375 -1.421875 
Q 18.84375 -1.421875 12.171875 6.21875 
Q 5.515625 13.875 5.515625 27.296875 
Q 5.515625 40.765625 12.171875 48.375 
Q 18.84375 56 30.609375 56 
z
" id="DejaVuSans-111"/>
       <path d="M 45.40625 27.984375 
Q 45.40625 37.75 41.375 43.109375 
Q 37.359375 48.484375 30.078125 48.484375 
Q 22.859375 48.484375 18.828125 43.109375 
Q 14.796875 37.75 14.796875 27.984375 
Q 14.796875 18.265625 18.828125 12.890625 
Q 22.859375 7.515625 30.078125 7.515625 
Q 37.359375 7.515625 41.375 12.890625 
Q 45.40625 18.265625 45.40625 27.984375 
z
M 54.390625 6.78125 
Q 54.390625 -7.171875 48.1875 -13.984375 
Q 42 -20.796875 29.203125 -20.796875 
Q 24.46875 -20.796875 20.265625 -20.09375 
Q 16.0625 -19.390625 12.109375 -17.921875 
L 12.109375 -9.1875 
Q 16.0625 -11.328125 19.921875 -12.34375 
Q 23.78125 -13.375 27.78125 -13.375 
Q 36.625 -13.375 41.015625 -8.765625 
Q 45.40625 -4.15625 45.40625 5.171875 
L 45.40625 9.625 
Q 42.625 4.78125 38.28125 2.390625 
Q 33.9375 0 27.875 0 
Q 17.828125 0 11.671875 7.65625 
Q 5.515625 15.328125 5.515625 27.984375 
Q 5.515625 40.671875 11.671875 48.328125 
Q 17.828125 56 27.875 56 
Q 33.9375 56 38.28125 53.609375 
Q 42.625 51.21875 45.40625 46.390625 
L 45.40625 54.6875 
L 54.390625 54.6875 
z
" id="DejaVuSans-103"/>
       <path d="M 12.40625 8.296875 
L 28.515625 8.296875 
L 28.515625 63.921875 
L 10.984375 60.40625 
L 10.984375 69.390625 
L 28.421875 72.90625 
L 38.28125 72.90625 
L 38.28125 8.296875 
L 54.390625 8.296875 
L 54.390625 0 
L 12.40625 0 
z
" id="DejaVuSans-49"/>
       <path d="M 31 75.875 
Q 24.46875 64.65625 21.28125 53.65625 
Q 18.109375 42.671875 18.109375 31.390625 
Q 18.109375 20.125 21.3125 9.0625 
Q 24.515625 -2 31 -13.1875 
L 23.1875 -13.1875 
Q 15.875 -1.703125 12.234375 9.375 
Q 8.59375 20.453125 8.59375 31.390625 
Q 8.59375 42.28125 12.203125 53.3125 
Q 15.828125 64.359375 23.1875 75.875 
z
" id="DejaVuSans-40"/>
       <path d="M 56.203125 29.59375 
L 56.203125 25.203125 
L 14.890625 25.203125 
Q 15.484375 15.921875 20.484375 11.0625 
Q 25.484375 6.203125 34.421875 6.203125 
Q 39.59375 6.203125 44.453125 7.46875 
Q 49.3125 8.734375 54.109375 11.28125 
L 54.109375 2.78125 
Q 49.265625 0.734375 44.1875 -0.34375 
Q 39.109375 -1.421875 33.890625 -1.421875 
Q 20.796875 -1.421875 13.15625 6.1875 
Q 5.515625 13.8125 5.515625 26.8125 
Q 5.515625 40.234375 12.765625 48.109375 
Q 20.015625 56 32.328125 56 
Q 43.359375 56 49.78125 48.890625 
Q 56.203125 41.796875 56.203125 29.59375 
z
M 47.21875 32.234375 
Q 47.125 39.59375 43.09375 43.984375 
Q 39.0625 48.390625 32.421875 48.390625 
Q 24.90625 48.390625 20.390625 44.140625 
Q 15.875 39.890625 15.1875 32.171875 
z
" id="DejaVuSans-101"/>
       <path d="M 2.984375 54.6875 
L 12.5 54.6875 
L 29.59375 8.796875 
L 46.6875 54.6875 
L 56.203125 54.6875 
L 35.6875 0 
L 23.484375 0 
z
" id="DejaVuSans-118"/>
       <path d="M 34.28125 27.484375 
Q 23.390625 27.484375 19.1875 25 
Q 14.984375 22.515625 14.984375 16.5 
Q 14.984375 11.71875 18.140625 8.90625 
Q 21.296875 6.109375 26.703125 6.109375 
Q 34.1875 6.109375 38.703125 11.40625 
Q 43.21875 16.703125 43.21875 25.484375 
L 43.21875 27.484375 
z
M 52.203125 31.203125 
L 52.203125 0 
L 43.21875 0 
L 43.21875 8.296875 
Q 40.140625 3.328125 35.546875 0.953125 
Q 30.953125 -1.421875 24.3125 -1.421875 
Q 15.921875 -1.421875 10.953125 3.296875 
Q 6 8.015625 6 15.921875 
Q 6 25.140625 12.171875 29.828125 
Q 18.359375 34.515625 30.609375 34.515625 
L 43.21875 34.515625 
L 43.21875 35.40625 
Q 43.21875 41.609375 39.140625 45 
Q 35.0625 48.390625 27.6875 48.390625 
Q 23 48.390625 18.546875 47.265625 
Q 14.109375 46.140625 10.015625 43.890625 
L 10.015625 52.203125 
Q 14.9375 54.109375 19.578125 55.046875 
Q 24.21875 56 28.609375 56 
Q 40.484375 56 46.34375 49.84375 
Q 52.203125 43.703125 52.203125 31.203125 
z
" id="DejaVuSans-97"/>
       <path d="M 44.28125 53.078125 
L 44.28125 44.578125 
Q 40.484375 46.53125 36.375 47.5 
Q 32.28125 48.484375 27.875 48.484375 
Q 21.1875 48.484375 17.84375 46.4375 
Q 14.5 44.390625 14.5 40.28125 
Q 14.5 37.15625 16.890625 35.375 
Q 19.28125 33.59375 26.515625 31.984375 
L 29.59375 31.296875 
Q 39.15625 29.25 43.1875 25.515625 
Q 47.21875 21.78125 47.21875 15.09375 
Q 47.21875 7.46875 41.1875 3.015625 
Q 35.15625 -1.421875 24.609375 -1.421875 
Q 20.21875 -1.421875 15.453125 -0.5625 
Q 10.6875 0.296875 5.421875 2 
L 5.421875 11.28125 
Q 10.40625 8.6875 15.234375 7.390625 
Q 20.0625 6.109375 24.8125 6.109375 
Q 31.15625 6.109375 34.5625 8.28125 
Q 37.984375 10.453125 37.984375 14.40625 
Q 37.984375 18.0625 35.515625 20.015625 
Q 33.0625 21.96875 24.703125 23.78125 
L 21.578125 24.515625 
Q 13.234375 26.265625 9.515625 29.90625 
Q 5.8125 33.546875 5.8125 39.890625 
Q 5.8125 47.609375 11.28125 51.796875 
Q 16.75 56 26.8125 56 
Q 31.78125 56 36.171875 55.265625 
Q 40.578125 54.546875 44.28125 53.078125 
z
" id="DejaVuSans-115"/>
       <path id="DejaVuSans-32"/>
       <path d="M 25.390625 72.90625 
L 33.6875 72.90625 
L 8.296875 -9.28125 
L 0 -9.28125 
z
" id="DejaVuSans-47"/>
       <path d="M 45.40625 46.390625 
L 45.40625 75.984375 
L 54.390625 75.984375 
L 54.390625 0 
L 45.40625 0 
L 45.40625 8.203125 
Q 42.578125 3.328125 38.25 0.953125 
Q 33.9375 -1.421875 27.875 -1.421875 
Q 17.96875 -1.421875 11.734375 6.484375 
Q 5.515625 14.40625 5.515625 27.296875 
Q 5.515625 40.1875 11.734375 48.09375 
Q 17.96875 56 27.875 56 
Q 33.9375 56 38.25 53.625 
Q 42.578125 51.265625 45.40625 46.390625 
z
M 14.796875 27.296875 
Q 14.796875 17.390625 18.875 11.75 
Q 22.953125 6.109375 30.078125 6.109375 
Q 37.203125 6.109375 41.296875 11.75 
Q 45.40625 17.390625 45.40625 27.296875 
Q 45.40625 37.203125 41.296875 42.84375 
Q 37.203125 48.484375 30.078125 48.484375 
Q 22.953125 48.484375 18.875 42.84375 
Q 14.796875 37.203125 14.796875 27.296875 
z
" id="DejaVuSans-100"/>
       <path d="M 9.421875 54.6875 
L 18.40625 54.6875 
L 18.40625 0 
L 9.421875 0 
z
M 9.421875 75.984375 
L 18.40625 75.984375 
L 18.40625 64.59375 
L 9.421875 64.59375 
z
" id="DejaVuSans-105"/>
       <path d="M 52 44.1875 
Q 55.375 50.25 60.0625 53.125 
Q 64.75 56 71.09375 56 
Q 79.640625 56 84.28125 50.015625 
Q 88.921875 44.046875 88.921875 33.015625 
L 88.921875 0 
L 79.890625 0 
L 79.890625 32.71875 
Q 79.890625 40.578125 77.09375 44.375 
Q 74.3125 48.1875 68.609375 48.1875 
Q 61.625 48.1875 57.5625 43.546875 
Q 53.515625 38.921875 53.515625 30.90625 
L 53.515625 0 
L 44.484375 0 
L 44.484375 32.71875 
Q 44.484375 40.625 41.703125 44.40625 
Q 38.921875 48.1875 33.109375 48.1875 
Q 26.21875 48.1875 22.15625 43.53125 
Q 18.109375 38.875 18.109375 30.90625 
L 18.109375 0 
L 9.078125 0 
L 9.078125 54.6875 
L 18.109375 54.6875 
L 18.109375 46.1875 
Q 21.1875 51.21875 25.484375 53.609375 
Q 29.78125 56 35.6875 56 
Q 41.65625 56 45.828125 52.96875 
Q 50 49.953125 52 44.1875 
z
" id="DejaVuSans-109"/>
       <path d="M 54.890625 33.015625 
L 54.890625 0 
L 45.90625 0 
L 45.90625 32.71875 
Q 45.90625 40.484375 42.875 44.328125 
Q 39.84375 48.1875 33.796875 48.1875 
Q 26.515625 48.1875 22.3125 43.546875 
Q 18.109375 38.921875 18.109375 30.90625 
L 18.109375 0 
L 9.078125 0 
L 9.078125 54.6875 
L 18.109375 54.6875 
L 18.109375 46.1875 
Q 21.34375 51.125 25.703125 53.5625 
Q 30.078125 56 35.796875 56 
Q 45.21875 56 50.046875 50.171875 
Q 54.890625 44.34375 54.890625 33.015625 
z
" id="DejaVuSans-110"/>
       <path d="M 8.015625 75.875 
L 15.828125 75.875 
Q 23.140625 64.359375 26.78125 53.3125 
Q 30.421875 42.28125 30.421875 31.390625 
Q 30.421875 20.453125 26.78125 9.375 
Q 23.140625 -1.703125 15.828125 -13.1875 
L 8.015625 -13.1875 
Q 14.5 -2 17.703125 9.0625 
Q 20.90625 20.125 20.90625 31.390625 
Q 20.90625 42.671875 17.703125 53.65625 
Q 14.5 64.65625 8.015625 75.875 
z
" id="DejaVuSans-41"/>
      </defs>
      <use xlink:href="#DejaVuSans-108"/>
      <use x="27.783203" xlink:href="#DejaVuSans-111"/>
      <use x="88.964844" xlink:href="#DejaVuSans-103"/>
      <use x="152.441406" xlink:href="#DejaVuSans-49"/>
      <use x="216.064453" xlink:href="#DejaVuSans-48"/>
      <use x="279.6875" xlink:href="#DejaVuSans-40"/>
      <use x="318.701172" xlink:href="#DejaVuSans-101"/>
      <use x="380.224609" xlink:href="#DejaVuSans-118"/>
      <use x="439.404297" xlink:href="#DejaVuSans-97"/>
      <use x="500.683594" xlink:href="#DejaVuSans-108"/>
      <use x="528.466797" xlink:href="#DejaVuSans-115"/>
      <use x="580.566406" xlink:href="#DejaVuSans-32"/>
      <use x="612.353516" xlink:href="#DejaVuSans-47"/>
      <use x="646.044922" xlink:href="#DejaVuSans-32"/>
      <use x="677.832031" xlink:href="#DejaVuSans-100"/>
      <use x="741.308594" xlink:href="#DejaVuSans-105"/>
      <use x="769.091797" xlink:href="#DejaVuSans-109"/>
      <use x="866.503906" xlink:href="#DejaVuSans-101"/>
      <use x="928.027344" xlink:href="#DejaVuSans-110"/>
      <use x="991.40625" xlink:href="#DejaVuSans-115"/>
      <use x="1043.505859" xlink:href="#DejaVuSans-105"/>
      <use x="1071.289062" xlink:href="#DejaVuSans-111"/>
      <use x="1132.470703" xlink:href="#DejaVuSans-110"/>
      <use x="1195.849609" xlink:href="#DejaVuSans-41"/>
     </g>
    </g>
   </g>
   <g id="matplotlib.axis_2">
    <g id="ytick_1">
     <g id="line2d_17">
      <path clip-path="url(#p43e07f5c29)" d="M 57.6 298.944 
L 360.8064 298.944 
" style="fill:none;stroke:#b0b0b0;stroke-linecap:square;stroke-width:0.8;"/>
     </g>
     <g id="line2d_18">
      <defs>
       <path d="M 0 0 
L -3.5 0 
" id="m39c7431087" style="stroke:#000000;stroke-width:0.8;"/>
      </defs>
      <g>
       <use style="stroke:#000000;stroke-width:0.8;" x="57.6" xlink:href="#m39c7431087" y="298.944"/>
      </g>
     </g>
     <g id="text_6">
      <!-- 0.0 -->
      <g transform="translate(25.155 305.02275)scale(0.16 -0.16)">
       <defs>
        <path d="M 10.6875 12.40625 
L 21 12.40625 
L 21 0 
L 10.6875 0 
z
" id="DejaVuSans-46"/>
       </defs>
       <use xlink:href="#DejaVuSans-48"/>
       <use x="63.623047" xlink:href="#DejaVuSans-46"/>
       <use x="95.410156" xlink:href="#DejaVuSans-48"/>
      </g>
     </g>
    </g>
    <g id="ytick_2">
     <g id="line2d_19">
      <path clip-path="url(#p43e07f5c29)" d="M 57.6 240.5376 
L 360.8064 240.5376 
" style="fill:none;stroke:#b0b0b0;stroke-linecap:square;stroke-width:0.8;"/>
     </g>
     <g id="line2d_20">
      <g>
       <use style="stroke:#000000;stroke-width:0.8;" x="57.6" xlink:href="#m39c7431087" y="240.5376"/>
      </g>
     </g>
     <g id="text_7">
      <!-- 0.2 -->
      <g transform="translate(25.155 246.61635)scale(0.16 -0.16)">
       <use xlink:href="#DejaVuSans-48"/>
       <use x="63.623047" xlink:href="#DejaVuSans-46"/>
       <use x="95.410156" xlink:href="#DejaVuSans-50"/>
      </g>
     </g>
    </g>
    <g id="ytick_3">
     <g id="line2d_21">
      <path clip-path="url(#p43e07f5c29)" d="M 57.6 182.1312 
L 360.8064 182.1312 
" style="fill:none;stroke:#b0b0b0;stroke-linecap:square;stroke-width:0.8;"/>
     </g>
     <g id="line2d_22">
      <g>
       <use style="stroke:#000000;stroke-width:0.8;" x="57.6" xlink:href="#m39c7431087" y="182.1312"/>
      </g>
     </g>
     <g id="text_8">
      <!-- 0.4 -->
      <g transform="translate(25.155 188.20995)scale(0.16 -0.16)">
       <use xlink:href="#DejaVuSans-48"/>
       <use x="63.623047" xlink:href="#DejaVuSans-46"/>
       <use x="95.410156" xlink:href="#DejaVuSans-52"/>
      </g>
     </g>
    </g>
    <g id="ytick_4">
     <g id="line2d_23">
      <path clip-path="url(#p43e07f5c29)" d="M 57.6 123.7248 
L 360.8064 123.7248 
" style="fill:none;stroke:#b0b0b0;stroke-linecap:square;stroke-width:0.8;"/>
     </g>
     <g id="line2d_24">
      <g>
       <use style="stroke:#000000;stroke-width:0.8;" x="57.6" xlink:href="#m39c7431087" y="123.7248"/>
      </g>
     </g>
     <g id="text_9">
      <!-- 0.6 -->
      <g transform="translate(25.155 129.80355)scale(0.16 -0.16)">
       <use xlink:href="#DejaVuSans-48"/>
       <use x="63.623047" xlink:href="#DejaVuSans-46"/>
       <use x="95.410156" xlink:href="#DejaVuSans-54"/>
      </g>
     </g>
    </g>
    <g id="ytick_5">
     <g id="line2d_25">
      <path clip-path="url(#p43e07f5c29)" d="M 57.6 65.3184 
L 360.8064 65.3184 
" style="fill:none;stroke:#b0b0b0;stroke-linecap:square;stroke-width:0.8;"/>
     </g>
     <g id="line2d_26">
      <g>
       <use style="stroke:#000000;stroke-width:0.8;" x="57.6" xlink:href="#m39c7431087" y="65.3184"/>
      </g>
     </g>
     <g id="text_10">
      <!-- 0.8 -->
      <g transform="translate(25.155 71.39715)scale(0.16 -0.16)">
       <defs>
        <path d="M 31.78125 34.625 
Q 24.75 34.625 20.71875 30.859375 
Q 16.703125 27.09375 16.703125 20.515625 
Q 16.703125 13.921875 20.71875 10.15625 
Q 24.75 6.390625 31.78125 6.390625 
Q 38.8125 6.390625 42.859375 10.171875 
Q 46.921875 13.96875 46.921875 20.515625 
Q 46.921875 27.09375 42.890625 30.859375 
Q 38.875 34.625 31.78125 34.625 
z
M 21.921875 38.8125 
Q 15.578125 40.375 12.03125 44.71875 
Q 8.5 49.078125 8.5 55.328125 
Q 8.5 64.0625 14.71875 69.140625 
Q 20.953125 74.21875 31.78125 74.21875 
Q 42.671875 74.21875 48.875 69.140625 
Q 55.078125 64.0625 55.078125 55.328125 
Q 55.078125 49.078125 51.53125 44.71875 
Q 48 40.375 41.703125 38.8125 
Q 48.828125 37.15625 52.796875 32.3125 
Q 56.78125 27.484375 56.78125 20.515625 
Q 56.78125 9.90625 50.3125 4.234375 
Q 43.84375 -1.421875 31.78125 -1.421875 
Q 19.734375 -1.421875 13.25 4.234375 
Q 6.78125 9.90625 6.78125 20.515625 
Q 6.78125 27.484375 10.78125 32.3125 
Q 14.796875 37.15625 21.921875 38.8125 
z
M 18.3125 54.390625 
Q 18.3125 48.734375 21.84375 45.5625 
Q 25.390625 42.390625 31.78125 42.390625 
Q 38.140625 42.390625 41.71875 45.5625 
Q 45.3125 48.734375 45.3125 54.390625 
Q 45.3125 60.0625 41.71875 63.234375 
Q 38.140625 66.40625 31.78125 66.40625 
Q 25.390625 66.40625 21.84375 63.234375 
Q 18.3125 60.0625 18.3125 54.390625 
z
" id="DejaVuSans-56"/>
       </defs>
       <use xlink:href="#DejaVuSans-48"/>
       <use x="63.623047" xlink:href="#DejaVuSans-46"/>
       <use x="95.410156" xlink:href="#DejaVuSans-56"/>
      </g>
     </g>
    </g>
    <g id="ytick_6">
     <g id="line2d_27">
      <path clip-path="url(#p43e07f5c29)" d="M 57.6 6.912 
L 360.8064 6.912 
" style="fill:none;stroke:#b0b0b0;stroke-linecap:square;stroke-width:0.8;"/>
     </g>
     <g id="line2d_28">
      <g>
       <use style="stroke:#000000;stroke-width:0.8;" x="57.6" xlink:href="#m39c7431087" y="6.912"/>
      </g>
     </g>
     <g id="text_11">
      <!-- 1.0 -->
      <g transform="translate(25.155 12.99075)scale(0.16 -0.16)">
       <use xlink:href="#DejaVuSans-49"/>
       <use x="63.623047" xlink:href="#DejaVuSans-46"/>
       <use x="95.410156" xlink:href="#DejaVuSans-48"/>
      </g>
     </g>
    </g>
    <g id="text_12">
     <!-- Fraction of function,target pairs -->
     <g transform="translate(17.619531 287.313)rotate(-90)scale(0.17 -0.17)">
      <defs>
       <path d="M 9.8125 72.90625 
L 51.703125 72.90625 
L 51.703125 64.59375 
L 19.671875 64.59375 
L 19.671875 43.109375 
L 48.578125 43.109375 
L 48.578125 34.8125 
L 19.671875 34.8125 
L 19.671875 0 
L 9.8125 0 
z
" id="DejaVuSans-70"/>
       <path d="M 41.109375 46.296875 
Q 39.59375 47.171875 37.8125 47.578125 
Q 36.03125 48 33.890625 48 
Q 26.265625 48 22.1875 43.046875 
Q 18.109375 38.09375 18.109375 28.8125 
L 18.109375 0 
L 9.078125 0 
L 9.078125 54.6875 
L 18.109375 54.6875 
L 18.109375 46.1875 
Q 20.953125 51.171875 25.484375 53.578125 
Q 30.03125 56 36.53125 56 
Q 37.453125 56 38.578125 55.875 
Q 39.703125 55.765625 41.0625 55.515625 
z
" id="DejaVuSans-114"/>
       <path d="M 48.78125 52.59375 
L 48.78125 44.1875 
Q 44.96875 46.296875 41.140625 47.34375 
Q 37.3125 48.390625 33.40625 48.390625 
Q 24.65625 48.390625 19.8125 42.84375 
Q 14.984375 37.3125 14.984375 27.296875 
Q 14.984375 17.28125 19.8125 11.734375 
Q 24.65625 6.203125 33.40625 6.203125 
Q 37.3125 6.203125 41.140625 7.25 
Q 44.96875 8.296875 48.78125 10.40625 
L 48.78125 2.09375 
Q 45.015625 0.34375 40.984375 -0.53125 
Q 36.96875 -1.421875 32.421875 -1.421875 
Q 20.0625 -1.421875 12.78125 6.34375 
Q 5.515625 14.109375 5.515625 27.296875 
Q 5.515625 40.671875 12.859375 48.328125 
Q 20.21875 56 33.015625 56 
Q 37.15625 56 41.109375 55.140625 
Q 45.0625 54.296875 48.78125 52.59375 
z
" id="DejaVuSans-99"/>
       <path d="M 18.3125 70.21875 
L 18.3125 54.6875 
L 36.8125 54.6875 
L 36.8125 47.703125 
L 18.3125 47.703125 
L 18.3125 18.015625 
Q 18.3125 11.328125 20.140625 9.421875 
Q 21.96875 7.515625 27.59375 7.515625 
L 36.8125 7.515625 
L 36.8125 0 
L 27.59375 0 
Q 17.1875 0 13.234375 3.875 
Q 9.28125 7.765625 9.28125 18.015625 
L 9.28125 47.703125 
L 2.6875 47.703125 
L 2.6875 54.6875 
L 9.28125 54.6875 
L 9.28125 70.21875 
z
" id="DejaVuSans-116"/>
       <path d="M 37.109375 75.984375 
L 37.109375 68.5 
L 28.515625 68.5 
Q 23.6875 68.5 21.796875 66.546875 
Q 19.921875 64.59375 19.921875 59.515625 
L 19.921875 54.6875 
L 34.71875 54.6875 
L 34.71875 47.703125 
L 19.921875 47.703125 
L 19.921875 0 
L 10.890625 0 
L 10.890625 47.703125 
L 2.296875 47.703125 
L 2.296875 54.6875 
L 10.890625 54.6875 
L 10.890625 58.5 
Q 10.890625 67.625 15.140625 71.796875 
Q 19.390625 75.984375 28.609375 75.984375 
z
" id="DejaVuSans-102"/>
       <path d="M 8.5 21.578125 
L 8.5 54.6875 
L 17.484375 54.6875 
L 17.484375 21.921875 
Q 17.484375 14.15625 20.5 10.265625 
Q 23.53125 6.390625 29.59375 6.390625 
Q 36.859375 6.390625 41.078125 11.03125 
Q 45.3125 15.671875 45.3125 23.6875 
L 45.3125 54.6875 
L 54.296875 54.6875 
L 54.296875 0 
L 45.3125 0 
L 45.3125 8.40625 
Q 42.046875 3.421875 37.71875 1 
Q 33.40625 -1.421875 27.6875 -1.421875 
Q 18.265625 -1.421875 13.375 4.4375 
Q 8.5 10.296875 8.5 21.578125 
z
M 31.109375 56 
z
" id="DejaVuSans-117"/>
       <path d="M 11.71875 12.40625 
L 22.015625 12.40625 
L 22.015625 4 
L 14.015625 -11.625 
L 7.71875 -11.625 
L 11.71875 4 
z
" id="DejaVuSans-44"/>
       <path d="M 18.109375 8.203125 
L 18.109375 -20.796875 
L 9.078125 -20.796875 
L 9.078125 54.6875 
L 18.109375 54.6875 
L 18.109375 46.390625 
Q 20.953125 51.265625 25.265625 53.625 
Q 29.59375 56 35.59375 56 
Q 45.5625 56 51.78125 48.09375 
Q 58.015625 40.1875 58.015625 27.296875 
Q 58.015625 14.40625 51.78125 6.484375 
Q 45.5625 -1.421875 35.59375 -1.421875 
Q 29.59375 -1.421875 25.265625 0.953125 
Q 20.953125 3.328125 18.109375 8.203125 
z
M 48.6875 27.296875 
Q 48.6875 37.203125 44.609375 42.84375 
Q 40.53125 48.484375 33.40625 48.484375 
Q 26.265625 48.484375 22.1875 42.84375 
Q 18.109375 37.203125 18.109375 27.296875 
Q 18.109375 17.390625 22.1875 11.75 
Q 26.265625 6.109375 33.40625 6.109375 
Q 40.53125 6.109375 44.609375 11.75 
Q 48.6875 17.390625 48.6875 27.296875 
z
" id="DejaVuSans-112"/>
      </defs>
      <use xlink:href="#DejaVuSans-70"/>
      <use x="50.269531" xlink:href="#DejaVuSans-114"/>
      <use x="91.382812" xlink:href="#DejaVuSans-97"/>
      <use x="152.662109" xlink:href="#DejaVuSans-99"/>
      <use x="207.642578" xlink:href="#DejaVuSans-116"/>
      <use x="246.851562" xlink:href="#DejaVuSans-105"/>
      <use x="274.634766" xlink:href="#DejaVuSans-111"/>
      <use x="335.816406" xlink:href="#DejaVuSans-110"/>
      <use x="399.195312" xlink:href="#DejaVuSans-32"/>
      <use x="430.982422" xlink:href="#DejaVuSans-111"/>
      <use x="492.164062" xlink:href="#DejaVuSans-102"/>
      <use x="527.369141" xlink:href="#DejaVuSans-32"/>
      <use x="559.15625" xlink:href="#DejaVuSans-102"/>
      <use x="594.361328" xlink:href="#DejaVuSans-117"/>
      <use x="657.740234" xlink:href="#DejaVuSans-110"/>
      <use x="721.119141" xlink:href="#DejaVuSans-99"/>
      <use x="776.099609" xlink:href="#DejaVuSans-116"/>
      <use x="815.308594" xlink:href="#DejaVuSans-105"/>
      <use x="843.091797" xlink:href="#DejaVuSans-111"/>
      <use x="904.273438" xlink:href="#DejaVuSans-110"/>
      <use x="967.652344" xlink:href="#DejaVuSans-44"/>
      <use x="999.439453" xlink:href="#DejaVuSans-116"/>
      <use x="1038.648438" xlink:href="#DejaVuSans-97"/>
      <use x="1099.927734" xlink:href="#DejaVuSans-114"/>
      <use x="1139.291016" xlink:href="#DejaVuSans-103"/>
      <use x="1202.767578" xlink:href="#DejaVuSans-101"/>
      <use x="1264.291016" xlink:href="#DejaVuSans-116"/>
      <use x="1303.5" xlink:href="#DejaVuSans-32"/>
      <use x="1335.287109" xlink:href="#DejaVuSans-112"/>
      <use x="1398.763672" xlink:href="#DejaVuSans-97"/>
      <use x="1460.042969" xlink:href="#DejaVuSans-105"/>
      <use x="1487.826172" xlink:href="#DejaVuSans-114"/>
      <use x="1528.939453" xlink:href="#DejaVuSans-115"/>
     </g>
    </g>
   </g>
   <g id="line2d_29">
    <defs>
     <path d="M 0 1.5 
C 0.397805 1.5 0.77937 1.341951 1.06066 1.06066 
C 1.341951 0.77937 1.5 0.397805 1.5 0 
C 1.5 -0.397805 1.341951 -0.77937 1.06066 -1.06066 
C 0.77937 -1.341951 0.397805 -1.5 0 -1.5 
C -0.397805 -1.5 -0.77937 -1.341951 -1.06066 -1.06066 
C -1.341951 -0.77937 -1.5 -0.397805 -1.5 0 
C -1.5 0.397805 -1.341951 0.77937 -1.06066 1.06066 
C -0.77937 1.341951 -0.397805 1.5 0 1.5 
z
" id="mba20a6182a" style="stroke:#000080;"/>
    </defs>
    <g>
     <use style="fill:#000080;stroke:#000080;" x="282.403834" xlink:href="#mba20a6182a" y="184.980293"/>
     <use style="fill:#000080;stroke:#000080;" x="282.403834" xlink:href="#mba20a6182a" y="184.980293"/>
    </g>
   </g>
   <g id="line2d_30">
    <path d="M 71.999638 298.944 
L 71.999638 298.825288 
L 75.209369 298.825288 
L 75.209369 298.706576 
L 76.629783 298.706576 
L 76.629783 298.587863 
L 78.577544 298.587863 
L 78.577544 298.350439 
L 82.464279 298.350439 
L 82.464279 298.113015 
L 82.713442 298.113015 
L 82.713442 297.87559 
L 85.471281 297.87559 
L 85.471281 297.756878 
L 85.894031 297.756878 
L 85.894031 297.519454 
L 91.148357 297.519454 
L 91.148357 297.400741 
L 91.46189 297.400741 
L 91.46189 297.163317 
L 91.616719 297.163317 
L 91.616719 297.044605 
L 92.073702 297.044605 
L 92.073702 296.925893 
L 92.372304 296.925893 
L 92.372304 296.688468 
L 92.666241 296.688468 
L 92.666241 296.332332 
L 93.098709 296.332332 
L 93.098709 296.21362 
L 94.07074 296.21362 
L 94.07074 296.094907 
L 94.205591 296.094907 
L 94.205591 295.976195 
L 94.472426 295.976195 
L 94.472426 295.857483 
L 94.735529 295.857483 
L 94.735529 295.738771 
L 94.865713 295.738771 
L 94.865713 295.501346 
L 94.995002 295.501346 
L 94.995002 295.382634 
L 95.123409 295.382634 
L 95.123409 294.907785 
L 95.628448 294.907785 
L 95.628448 294.551649 
L 96.241256 294.551649 
L 96.241256 294.432937 
L 96.480897 294.432937 
L 96.480897 294.195512 
L 96.599582 294.195512 
L 96.599582 294.0768 
L 96.717523 294.0768 
L 96.717523 293.839376 
L 96.83473 293.839376 
L 96.83473 293.720663 
L 96.95121 293.720663 
L 96.95121 293.601951 
L 97.066974 293.601951 
L 97.066974 293.483239 
L 97.296386 293.483239 
L 97.296386 293.364527 
L 97.410051 293.364527 
L 97.410051 293.245815 
L 97.635342 293.245815 
L 97.635342 293.00839 
L 97.746984 293.00839 
L 97.746984 292.770966 
L 97.968299 292.770966 
L 98.077987 291.93998 
L 98.295464 291.93998 
L 98.403267 291.465132 
L 98.617037 291.465132 
L 98.617037 291.227707 
L 98.828405 291.227707 
L 98.933205 290.990283 
L 99.037425 290.990283 
L 99.14107 290.515434 
L 99.346662 290.515434 
L 99.346662 290.396722 
L 99.650899 290.396722 
L 99.650899 290.27801 
L 99.950294 290.27801 
L 99.950294 290.040585 
L 100.147275 290.040585 
L 100.147275 289.921873 
L 100.438933 289.921873 
L 100.535156 289.565737 
L 100.630889 289.565737 
L 100.630889 289.447024 
L 101.195278 289.447024 
L 101.287718 289.2096 
L 101.471247 289.2096 
L 101.562344 288.734751 
L 101.653002 288.734751 
L 101.653002 288.497327 
L 102.011329 288.497327 
L 102.011329 288.259902 
L 102.275664 288.259902 
L 102.362957 287.785054 
L 102.449846 287.785054 
L 102.536336 287.428917 
L 102.62243 287.428917 
L 102.708132 287.07278 
L 102.878374 287.07278 
L 102.96292 286.597932 
L 103.047088 286.597932 
L 103.047088 286.47922 
L 103.214303 286.47922 
L 103.297357 285.648234 
L 103.544339 285.648234 
L 103.544339 285.292098 
L 103.707211 285.292098 
L 103.788121 284.817249 
L 103.868684 284.817249 
L 103.948904 284.3424 
L 104.108325 284.3424 
L 104.108325 284.223688 
L 104.266406 284.223688 
L 104.266406 283.986263 
L 104.42317 283.986263 
L 104.501065 283.748839 
L 104.655893 283.748839 
L 104.732832 283.511415 
L 104.809458 283.511415 
L 104.885773 283.155278 
L 104.961779 283.155278 
L 105.037479 282.561717 
L 105.112877 282.561717 
L 105.112877 282.324293 
L 105.26277 282.324293 
L 105.337272 282.086868 
L 105.411479 282.086868 
L 105.411479 281.849444 
L 105.778187 281.849444 
L 105.850679 281.493307 
L 105.99483 281.493307 
L 105.99483 280.781034 
L 106.137884 280.781034 
L 106.209005 280.187473 
L 106.350446 280.187473 
L 106.350446 279.950049 
L 106.560633 279.950049 
L 106.630177 279.4752 
L 106.699465 279.4752 
L 106.699465 279.356488 
L 106.837279 279.356488 
L 106.905809 278.525502 
L 106.974091 278.525502 
L 106.974091 278.40679 
L 107.109915 278.40679 
L 107.109915 277.931941 
L 107.244765 277.931941 
L 107.31183 277.33838 
L 107.5116 277.33838 
L 107.5116 277.219668 
L 107.643612 277.219668 
L 107.709271 276.982244 
L 107.839908 276.982244 
L 107.904887 276.74482 
L 108.034177 276.74482 
L 108.09849 276.032546 
L 108.162584 276.032546 
L 108.22646 275.320273 
L 108.353566 275.320273 
L 108.416798 274.608 
L 108.479818 274.608 
L 108.542628 273.777015 
L 108.667622 273.777015 
L 108.667622 273.658302 
L 108.791791 273.658302 
L 108.85357 273.064741 
L 108.976522 273.064741 
L 109.037698 272.708605 
L 109.22004 272.708605 
L 109.22004 272.352468 
L 109.400633 272.352468 
L 109.400633 272.233756 
L 109.520071 272.233756 
L 109.579508 271.87762 
L 109.638757 271.87762 
L 109.69782 271.640195 
L 109.873904 271.640195 
L 109.873904 271.521483 
L 109.990385 271.521483 
L 110.048356 270.453073 
L 110.106149 270.453073 
L 110.106149 270.096937 
L 110.221204 270.096937 
L 110.278469 269.147239 
L 110.392479 269.147239 
L 110.392479 269.028527 
L 110.505802 269.028527 
L 110.505802 268.909815 
L 110.618446 268.909815 
L 110.618446 268.791102 
L 110.73042 268.791102 
L 110.786158 268.434966 
L 110.841731 268.434966 
L 110.897141 267.960117 
L 111.117162 267.960117 
L 111.226215 267.129132 
L 111.280505 267.129132 
L 111.388617 266.772995 
L 111.442442 266.772995 
L 111.54963 266.416859 
L 111.602996 266.416859 
L 111.709277 265.704585 
L 111.762192 265.704585 
L 111.81496 265.111024 
L 111.920053 265.111024 
L 112.024561 264.636176 
L 112.076599 264.636176 
L 112.180244 264.161327 
L 112.231853 264.161327 
L 112.231853 263.80519 
L 112.385837 263.80519 
L 112.436886 262.974205 
L 112.53857 262.974205 
L 112.639708 262.499356 
L 112.690074 262.499356 
L 112.790402 262.261932 
L 112.890198 262.261932 
L 112.989468 260.718673 
L 113.088217 260.718673 
L 113.186449 260.362537 
L 113.235374 260.362537 
L 113.332844 259.650263 
L 113.670063 259.650263 
L 113.765312 258.700566 
L 113.812756 258.700566 
L 113.907287 258.107005 
L 113.954374 258.107005 
L 114.048198 257.394732 
L 114.141556 257.394732 
L 114.188061 257.157307 
L 114.280729 257.157307 
L 114.372943 256.801171 
L 114.556025 256.801171 
L 114.646902 255.970185 
L 114.737343 255.970185 
L 114.82735 255.495337 
L 114.872193 255.495337 
L 114.961559 254.545639 
L 115.050503 254.545639 
L 115.139028 253.595941 
L 115.183135 253.595941 
L 115.27104 253.239805 
L 115.314838 253.239805 
L 115.358535 252.40882 
L 115.489021 252.40882 
L 115.532315 251.933971 
L 115.618607 251.933971 
L 115.618607 251.459122 
L 115.747307 251.459122 
L 115.790012 251.221698 
L 115.875132 251.221698 
L 115.959869 250.984273 
L 116.002095 250.984273 
L 116.044226 250.746849 
L 116.253478 250.746849 
L 116.29505 250.509424 
L 116.419219 250.509424 
L 116.460428 250.272 
L 116.542574 250.272 
L 116.624364 249.797151 
L 116.746385 249.797151 
L 116.746385 249.322302 
L 116.86762 249.322302 
L 116.948011 248.847454 
L 117.226706 248.847454 
L 117.266185 248.491317 
L 117.344894 248.491317 
L 117.384126 248.016468 
L 117.462345 248.016468 
L 117.540239 247.779044 
L 117.65648 247.779044 
L 117.733577 247.422907 
L 117.810359 247.422907 
L 117.848632 247.185483 
L 118.038842 247.185483 
L 118.11439 246.710634 
L 118.227147 246.710634 
L 118.227147 246.47321 
L 118.339232 246.47321 
L 118.413586 245.998361 
L 118.450653 245.998361 
L 118.524569 245.642224 
L 118.634901 245.642224 
L 118.634901 245.523512 
L 118.781011 245.523512 
L 118.817362 245.048663 
L 118.99807 245.048663 
L 119.105667 244.811239 
L 119.141397 244.811239 
L 119.212653 244.33639 
L 119.424815 244.33639 
L 119.495008 244.098966 
L 119.599808 244.098966 
L 119.634612 243.624117 
L 119.773187 243.624117 
L 119.876453 243.030556 
L 119.91075 243.030556 
L 119.91075 242.911844 
L 120.047313 242.911844 
L 120.0813 242.436995 
L 120.182892 242.436995 
L 120.182892 242.318283 
L 120.317502 242.318283 
L 120.384447 242.080859 
L 120.451154 242.080859 
L 120.48442 241.843434 
L 120.583864 241.843434 
L 120.583864 241.724722 
L 120.748446 241.724722 
L 120.813877 241.487298 
L 120.944062 241.487298 
L 121.041112 240.5376 
L 121.455972 240.5376 
L 121.550424 240.181463 
L 121.581803 240.181463 
L 121.581803 240.062751 
L 121.706797 240.062751 
L 121.706797 239.944039 
L 121.830966 239.944039 
L 121.830966 239.825327 
L 122.168264 239.825327 
L 122.259215 239.587902 
L 122.349728 239.587902 
L 122.349728 239.46919 
L 122.529457 239.46919 
L 122.559246 239.113054 
L 122.64833 239.113054 
L 122.677931 238.875629 
L 122.766456 238.875629 
L 122.766456 238.756917 
L 123.029559 238.756917 
L 123.116449 238.282068 
L 123.174153 238.282068 
L 123.260379 238.044644 
L 123.317644 238.044644 
L 123.346211 237.80722 
L 123.460048 237.80722 
L 123.544976 237.569795 
L 123.573201 237.569795 
L 123.657621 237.332371 
L 123.685677 237.332371 
L 123.685677 237.094946 
L 123.991562 237.094946 
L 123.991562 236.857522 
L 124.128974 236.857522 
L 124.238185 236.620098 
L 124.481616 236.620098 
L 124.481616 236.501385 
L 124.695386 236.501385 
L 124.695386 236.382673 
L 124.959227 236.382673 
L 125.037663 236.026537 
L 125.219419 236.026537 
L 125.271028 235.6704 
L 125.399435 235.6704 
L 125.399435 235.551688 
L 125.628382 235.551688 
L 125.704082 235.314263 
L 125.904473 235.314263 
L 125.979073 234.958127 
L 126.102752 234.958127 
L 126.151997 234.60199 
L 126.225624 234.60199 
L 126.323346 234.245854 
L 126.420564 234.245854 
L 126.420564 234.127141 
L 126.756923 234.127141 
L 126.851931 233.889717 
L 126.993549 233.889717 
L 127.06396 233.652293 
L 127.134109 233.652293 
L 127.203997 233.414868 
L 127.4351 233.414868 
L 127.458055 233.177444 
L 127.549596 233.177444 
L 127.5952 232.465171 
L 127.686077 232.465171 
L 127.686077 232.346459 
L 127.866525 232.346459 
L 127.933749 231.990322 
L 127.978432 231.990322 
L 128.067481 231.752898 
L 128.200269 231.752898 
L 128.200269 231.634185 
L 128.50651 231.634185 
L 128.50651 231.396761 
L 128.786481 231.396761 
L 128.786481 231.278049 
L 129.020168 231.278049 
L 129.062347 231.040624 
L 129.167381 231.040624 
L 129.188317 230.684488 
L 129.375706 230.684488 
L 129.437756 230.447063 
L 129.520173 230.447063 
L 129.581749 230.209639 
L 129.987186 230.209639 
L 129.987186 230.090927 
L 130.127049 230.090927 
L 130.127049 229.972215 
L 130.265881 229.972215 
L 130.344755 229.616078 
L 130.46245 229.616078 
L 130.55997 229.378654 
L 130.579414 229.378654 
L 130.656987 228.903805 
L 130.830367 228.903805 
L 130.849533 228.66638 
L 131.172405 228.66638 
L 131.210028 228.428956 
L 134.03991 228.428956 
L 134.03991 228.310244 
L 135.016534 228.310244 
L 135.016534 228.07282 
L 135.321058 228.07282 
L 135.321058 227.954107 
L 135.694909 227.954107 
L 135.694909 227.835395 
L 135.812989 227.835395 
L 135.812989 227.716683 
L 136.046948 227.716683 
L 136.104986 226.766985 
L 136.206124 226.766985 
L 136.220528 226.529561 
L 136.591211 226.529561 
L 136.591211 226.410849 
L 136.731859 226.410849 
L 136.815745 226.173424 
L 136.871463 226.173424 
L 136.885366 225.698576 
L 137.202345 225.698576 
L 137.202345 225.461151 
L 137.527508 225.461151 
L 137.527508 225.342439 
L 137.860347 225.342439 
L 137.926213 224.630166 
L 138.031123 224.630166 
L 138.031123 224.511454 
L 138.457795 224.511454 
L 138.457795 224.274029 
L 138.999625 224.274029 
L 138.999625 224.155317 
L 140.179118 224.155317 
L 140.179118 224.036605 
L 140.617286 224.036605 
L 140.617286 223.917893 
L 140.933739 223.917893 
L 140.933739 223.79918 
L 141.056617 223.79918 
L 141.056617 223.680468 
L 142.001193 223.680468 
L 142.085715 223.086907 
L 142.399336 223.086907 
L 142.482092 222.849483 
L 142.595291 222.849483 
L 142.595291 222.730771 
L 142.860175 222.730771 
L 142.951004 222.374634 
L 143.21096 222.374634 
L 143.260542 222.13721 
L 143.642864 222.13721 
L 143.642864 222.018498 
L 143.989011 222.018498 
L 144.065075 221.781073 
L 144.178597 221.781073 
L 144.206871 221.543649 
L 146.223208 221.543649 
L 146.223208 221.424937 
L 146.416797 221.424937 
L 146.416797 221.306224 
L 146.855449 221.306224 
L 146.855449 221.0688 
L 147.147673 221.0688 
L 147.228048 220.593951 
L 147.427493 220.593951 
L 147.427493 220.475239 
L 147.804601 220.475239 
L 147.812378 220.119102 
L 147.951809 220.119102 
L 147.951809 220.00039 
L 148.120834 220.00039 
L 148.181923 219.644254 
L 148.819028 219.644254 
L 148.819028 219.525541 
L 149.176729 219.525541 
L 149.176729 219.406829 
L 149.449521 219.406829 
L 149.478007 219.169405 
L 149.619794 219.169405 
L 149.619794 219.050693 
L 149.788541 219.050693 
L 149.788541 218.93198 
L 149.969657 218.93198 
L 149.969657 218.813268 
L 150.128434 218.813268 
L 150.128434 218.694556 
L 150.428498 218.694556 
L 150.516245 218.33842 
L 150.657131 218.33842 
L 150.657131 218.219707 
L 150.823488 218.219707 
L 150.823488 218.100995 
L 151.11275 218.100995 
L 151.22333 217.626146 
L 151.262204 217.626146 
L 151.262204 217.507434 
L 151.589425 217.507434 
L 151.690921 217.27001 
L 151.798164 217.27001 
L 151.798164 217.151298 
L 153.369343 217.151298 
L 153.369343 217.032585 
L 153.696309 217.032585 
L 153.696309 216.913873 
L 154.719981 216.913873 
L 154.719981 216.795161 
L 155.050953 216.795161 
L 155.161749 216.557737 
L 155.198537 216.557737 
L 155.198537 216.439024 
L 155.726579 216.439024 
L 155.726579 216.320312 
L 156.918301 216.320312 
L 157.023421 216.082888 
L 159.401463 216.082888 
L 159.401463 215.964176 
L 159.886441 215.964176 
L 159.886441 215.845463 
L 160.012872 215.845463 
L 160.012872 215.726751 
L 160.235114 215.726751 
L 160.295272 215.489327 
L 160.553758 215.489327 
L 160.553758 215.370615 
L 160.683643 215.370615 
L 160.730652 215.13319 
L 160.905899 215.13319 
L 160.905899 215.014478 
L 161.102557 215.014478 
L 161.209658 214.777054 
L 161.380518 214.777054 
L 161.471013 214.302205 
L 161.497325 214.302205 
L 161.497325 214.183493 
L 162.741773 214.183493 
L 162.741773 214.06478 
L 163.330169 214.06478 
L 163.404987 213.827356 
L 163.956832 213.827356 
L 163.956832 213.708644 
L 164.091482 213.708644 
L 164.091482 213.589932 
L 164.693684 213.589932 
L 164.693684 213.47122 
L 164.823179 213.47122 
L 164.823179 213.352507 
L 166.651417 213.352507 
L 166.651417 213.233795 
L 166.993867 213.233795 
L 167.035888 212.996371 
L 167.241831 212.996371 
L 167.241831 212.877659 
L 167.379716 212.877659 
L 167.379716 212.758946 
L 167.522052 212.758946 
L 167.614539 212.521522 
L 167.725466 212.521522 
L 167.725466 212.40281 
L 169.447515 212.40281 
L 169.447515 212.284098 
L 169.892679 212.284098 
L 169.892679 212.046673 
L 170.091163 212.046673 
L 170.091163 211.927961 
L 170.351027 211.927961 
L 170.351027 211.809249 
L 171.73036 211.809249 
L 171.73036 211.690537 
L 174.339202 211.690537 
L 174.339202 211.571824 
L 174.580585 211.571824 
L 174.580585 211.453112 
L 175.083464 211.453112 
L 175.083464 211.3344 
L 175.371318 211.3344 
L 175.371318 211.096976 
L 175.509152 211.096976 
L 175.61586 210.740839 
L 175.633585 210.740839 
L 175.633585 210.384702 
L 175.845003 210.384702 
L 175.948085 209.672429 
L 176.043672 209.672429 
L 176.078311 209.435005 
L 177.028937 209.435005 
L 177.028937 209.316293 
L 177.447043 209.316293 
L 177.447043 209.19758 
L 177.629572 209.19758 
L 177.629572 209.078868 
L 178.583321 209.078868 
L 178.583321 208.960156 
L 179.045611 208.960156 
L 179.106105 208.722732 
L 179.227978 208.722732 
L 179.264532 208.485307 
L 179.453477 208.485307 
L 179.453477 208.366595 
L 182.202078 208.366595 
L 182.202078 208.247883 
L 183.412477 208.247883 
L 183.434726 208.010459 
L 184.187197 208.010459 
L 184.187197 207.891746 
L 184.469546 207.891746 
L 184.576684 207.416898 
L 185.183028 207.416898 
L 185.183028 207.298185 
L 185.402496 207.298185 
L 185.468786 207.060761 
L 185.571442 207.060761 
L 185.621518 206.823337 
L 186.565341 206.823337 
L 186.565341 206.704624 
L 186.689781 206.704624 
L 186.689781 206.585912 
L 190.467705 206.585912 
L 190.467705 206.4672 
L 192.336909 206.4672 
L 192.336909 206.348488 
L 192.583899 206.348488 
L 192.583899 206.229776 
L 193.212271 206.229776 
L 193.212271 206.111063 
L 193.344728 206.111063 
L 193.344728 205.992351 
L 194.527502 205.992351 
L 194.563807 205.754927 
L 194.654911 205.754927 
L 194.67295 205.517502 
L 195.544009 205.517502 
L 195.544009 205.39879 
L 195.896053 205.39879 
L 195.959304 204.923941 
L 196.305207 204.923941 
L 196.305207 204.805229 
L 198.038143 204.805229 
L 198.038143 204.686517 
L 198.514787 204.686517 
L 198.580297 204.449093 
L 198.781163 204.449093 
L 198.785304 204.211668 
L 199.690773 204.211668 
L 199.72231 203.974244 
L 200.317405 203.974244 
L 200.317405 203.855532 
L 200.428935 203.855532 
L 200.428935 203.73682 
L 200.732335 203.73682 
L 200.778939 203.499395 
L 201.425622 203.499395 
L 201.425622 203.380683 
L 201.552021 203.380683 
L 201.552021 203.261971 
L 202.073636 203.261971 
L 202.073636 203.143259 
L 202.362737 203.143259 
L 202.362737 203.024546 
L 203.257824 203.024546 
L 203.257824 202.905834 
L 204.186956 202.905834 
L 204.229237 202.66841 
L 204.474444 202.66841 
L 204.474444 202.549698 
L 204.651444 202.549698 
L 204.651444 202.430985 
L 205.010006 202.430985 
L 205.046027 202.074849 
L 205.183902 202.074849 
L 205.281246 201.006439 
L 205.302118 201.006439 
L 205.302118 200.887727 
L 206.514232 200.887727 
L 206.514232 200.769015 
L 207.173887 200.769015 
L 207.187797 200.53159 
L 209.702875 200.53159 
L 209.702875 200.412878 
L 210.52143 200.412878 
L 210.52143 200.294166 
L 210.874301 200.294166 
L 210.88192 199.819317 
L 211.352205 199.819317 
L 211.437447 199.581893 
L 212.214228 199.581893 
L 212.22487 199.225756 
L 215.393887 199.225756 
L 215.412712 198.988332 
L 216.270154 198.988332 
L 216.270154 198.86962 
L 217.529101 198.86962 
L 217.529101 198.750907 
L 217.711066 198.750907 
L 217.728844 198.394771 
L 218.414711 198.394771 
L 218.46877 198.038634 
L 218.554453 198.038634 
L 218.661978 197.80121 
L 218.795526 197.80121 
L 218.80874 197.563785 
L 218.963308 197.563785 
L 218.963308 197.445073 
L 219.159677 197.445073 
L 219.213911 196.970224 
L 219.541307 196.970224 
L 219.541307 196.851512 
L 220.167533 196.851512 
L 220.167533 196.7328 
L 220.466135 196.7328 
L 220.466135 196.614088 
L 221.051069 196.614088 
L 221.051069 196.495376 
L 221.357909 196.495376 
L 221.357909 196.376663 
L 222.535199 196.376663 
L 222.535199 196.257951 
L 222.714296 196.257951 
L 222.714296 196.139239 
L 223.024205 196.139239 
L 223.024205 195.783102 
L 223.402152 195.783102 
L 223.402152 195.66439 
L 223.827209 195.66439 
L 223.827209 195.545678 
L 224.018641 195.545678 
L 224.018641 195.426966 
L 224.432526 195.426966 
L 224.432526 195.308254 
L 224.783334 195.308254 
L 224.783334 195.189541 
L 225.68113 195.189541 
L 225.68113 195.070829 
L 225.866457 195.070829 
L 225.866457 194.833405 
L 226.603538 194.833405 
L 226.603538 194.59598 
L 228.004219 194.59598 
L 228.004219 194.477268 
L 228.194898 194.477268 
L 228.229763 194.239844 
L 228.556259 194.239844 
L 228.556259 194.121132 
L 229.960583 194.121132 
L 229.960583 193.646283 
L 230.361124 193.646283 
L 230.361124 193.290146 
L 230.96688 193.290146 
L 230.96688 193.171434 
L 231.782739 193.171434 
L 231.782739 193.052722 
L 232.461906 193.052722 
L 232.461906 192.93401 
L 232.830582 192.93401 
L 232.859783 192.459161 
L 233.857084 192.459161 
L 233.857084 192.340449 
L 234.661802 192.340449 
L 234.661802 192.221737 
L 235.508552 192.221737 
L 235.508552 192.103024 
L 236.726807 192.103024 
L 236.726807 191.984312 
L 238.065169 191.984312 
L 238.065169 191.8656 
L 238.326476 191.8656 
L 238.326476 191.746888 
L 239.1644 191.746888 
L 239.1644 191.628176 
L 239.979596 191.628176 
L 239.994245 191.390751 
L 240.687572 191.390751 
L 240.687572 191.272039 
L 240.836267 191.272039 
L 240.836267 191.153327 
L 241.005666 191.153327 
L 241.082711 190.79719 
L 241.25089 190.79719 
L 241.25089 190.678478 
L 242.167143 190.678478 
L 242.167143 190.559766 
L 242.881602 190.559766 
L 242.881602 190.441054 
L 243.047551 190.441054 
L 243.047551 190.322341 
L 243.904935 190.322341 
L 243.904935 190.203629 
L 245.158625 190.203629 
L 245.158625 189.966205 
L 246.397937 189.966205 
L 246.397937 189.847493 
L 247.322553 189.847493 
L 247.32365 189.610068 
L 249.634204 189.610068 
L 249.634204 189.491356 
L 249.880765 189.491356 
L 249.880765 189.372644 
L 250.077104 189.372644 
L 250.077104 189.253932 
L 250.21198 189.253932 
L 250.21198 189.13522 
L 250.835029 189.13522 
L 250.928752 188.897795 
L 251.037995 188.897795 
L 251.037995 188.779083 
L 254.02426 188.779083 
L 254.081843 188.541659 
L 254.644373 188.541659 
L 254.644373 188.422946 
L 255.362968 188.422946 
L 255.362968 188.304234 
L 255.816494 188.304234 
L 255.816494 188.185522 
L 256.551089 188.185522 
L 256.651663 187.948098 
L 257.191441 187.948098 
L 257.191441 187.829385 
L 258.956075 187.829385 
L 258.956075 187.710673 
L 259.434404 187.710673 
L 259.434404 187.591961 
L 260.437389 187.591961 
L 260.489544 187.354537 
L 260.929018 187.354537 
L 261.008754 187.117112 
L 261.438196 187.117112 
L 261.438196 186.9984 
L 262.858842 186.9984 
L 262.859322 186.760976 
L 263.355801 186.760976 
L 263.355801 186.642263 
L 263.851086 186.642263 
L 263.851086 186.523551 
L 264.071803 186.523551 
L 264.071803 186.404839 
L 264.544037 186.404839 
L 264.544037 186.286127 
L 267.153035 186.286127 
L 267.153035 186.167415 
L 267.823694 186.167415 
L 267.823694 186.048702 
L 269.130863 186.048702 
L 269.130863 185.811278 
L 273.871444 185.811278 
L 273.871444 185.692566 
L 278.232066 185.692566 
L 278.232066 185.455141 
L 280.974364 185.455141 
L 280.974364 185.336429 
L 282.235051 185.336429 
L 282.235051 185.099005 
L 282.403834 185.099005 
L 282.403834 184.980293 
L 360.8064 184.980293 
L 360.8064 184.980293 
" style="fill:none;stroke:#000080;stroke-linecap:square;stroke-width:1.5;"/>
   </g>
   <g id="line2d_31">
    <defs>
     <path d="M 0 6 
C 1.591219 6 3.117479 5.367802 4.242641 4.242641 
C 5.367802 3.117479 6 1.591219 6 0 
C 6 -1.591219 5.367802 -3.117479 4.242641 -4.242641 
C 3.117479 -5.367802 1.591219 -6 0 -6 
C -1.591219 -6 -3.117479 -5.367802 -4.242641 -4.242641 
C -5.367802 -3.117479 -6 -1.591219 -6 0 
C -6 1.591219 -5.367802 3.117479 -4.242641 4.242641 
C -3.117479 5.367802 -1.591219 6 0 6 
z
" id="m4d7b4f8be1" style="stroke:#000080;stroke-width:1.5;"/>
    </defs>
    <g>
     <use style="fill-opacity:0;stroke:#000080;stroke-width:1.5;" x="131.210028" xlink:href="#m4d7b4f8be1" y="228.428956"/>
     <use style="fill-opacity:0;stroke:#000080;stroke-width:1.5;" x="223.024205" xlink:href="#m4d7b4f8be1" y="195.783102"/>
     <use style="fill-opacity:0;stroke:#000080;stroke-width:1.5;" x="282.403834" xlink:href="#m4d7b4f8be1" y="184.980293"/>
     <use style="fill-opacity:0;stroke:#000080;stroke-width:1.5;" x="282.403834" xlink:href="#m4d7b4f8be1" y="184.980293"/>
     <use style="fill-opacity:0;stroke:#000080;stroke-width:1.5;" x="360.8064" xlink:href="#m4d7b4f8be1" y="184.980293"/>
    </g>
   </g>
   <g id="line2d_32">
    <path style="fill:none;stroke:#000080;stroke-linecap:square;stroke-width:1.5;"/>
    <g/>
   </g>
   <g id="line2d_33">
    <path clip-path="url(#p43e07f5c29)" d="M 218.318039 198.394771 
" style="fill:none;stroke:#000080;stroke-linecap:square;stroke-width:1.5;"/>
    <defs>
     <path d="M -12 12 
L 12 -12 
M -12 -12 
L 12 12 
" id="mf983739bd1" style="stroke:#000080;"/>
    </defs>
    <g clip-path="url(#p43e07f5c29)">
     <use style="fill:#000080;stroke:#000080;" x="218.318039" xlink:href="#mf983739bd1" y="198.394771"/>
    </g>
   </g>
   <g id="line2d_34">
    <defs>
     <path d="M 0 1.5 
C 0.397805 1.5 0.77937 1.341951 1.06066 1.06066 
C 1.341951 0.77937 1.5 0.397805 1.5 0 
C 1.5 -0.397805 1.341951 -0.77937 1.06066 -1.06066 
C 0.77937 -1.341951 0.397805 -1.5 0 -1.5 
C -0.397805 -1.5 -0.77937 -1.341951 -1.06066 -1.06066 
C -1.341951 -0.77937 -1.5 -0.397805 -1.5 0 
C -1.5 0.397805 -1.341951 0.77937 -1.06066 1.06066 
C -0.77937 1.341951 -0.397805 1.5 0 1.5 
z
" id="m605412b76f" style="stroke:#ff00ff;"/>
    </defs>
    <g>
     <use style="fill:#ff00ff;stroke:#ff00ff;" x="317.114996" xlink:href="#m605412b76f" y="81.700683"/>
     <use style="fill:#ff00ff;stroke:#ff00ff;" x="317.114996" xlink:href="#m605412b76f" y="81.700683"/>
    </g>
   </g>
   <g id="line2d_35">
    <path d="M 84.818792 298.944 
L 84.818792 298.231727 
L 85.038813 298.231727 
L 85.038813 297.756878 
L 92.298097 297.756878 
L 92.298097 295.976195 
L 92.44622 295.976195 
L 92.44622 295.738771 
L 92.883718 295.738771 
L 92.883718 295.14521 
L 93.027318 295.14521 
L 93.027318 294.907785 
L 97.635342 294.907785 
L 97.635342 289.803161 
L 97.746984 289.803161 
L 97.746984 289.447024 
L 98.077987 289.447024 
L 98.18704 288.972176 
L 98.403267 288.972176 
L 98.403267 288.853463 
L 101.788176 288.853463 
L 101.877755 281.968156 
L 101.966909 281.968156 
L 101.966909 281.849444 
L 102.231865 281.849444 
L 102.319361 281.61202 
L 102.406452 281.61202 
L 102.406452 280.899746 
L 105.187973 280.899746 
L 105.26277 274.370576 
L 105.374412 274.370576 
L 105.485395 273.895727 
L 105.778187 273.895727 
L 105.850679 273.064741 
L 106.137884 273.064741 
L 106.137884 272.946029 
L 108.066361 272.946029 
L 108.066361 269.978224 
L 108.194549 269.978224 
L 108.194549 269.503376 
L 108.385208 269.503376 
L 108.385208 269.028527 
L 108.573955 269.028527 
L 108.573955 268.909815 
L 108.884383 268.909815 
L 108.884383 268.791102 
L 110.562208 268.791102 
L 110.562208 267.129132 
L 110.674517 267.129132 
L 110.73042 265.348449 
L 110.841731 265.348449 
L 110.897141 263.686478 
L 111.171767 263.686478 
L 111.280505 263.449054 
L 111.388617 263.449054 
L 111.388617 263.330341 
L 112.76537 263.330341 
L 112.865299 261.549659 
L 113.014204 261.549659 
L 113.014204 260.837385 
L 113.357132 260.837385 
L 113.453974 260.481249 
L 113.502209 260.481249 
L 113.550321 260.125112 
L 113.646176 260.125112 
L 113.646176 260.0064 
L 114.7824 260.0064 
L 114.7824 259.650263 
L 115.006084 259.650263 
L 115.094818 257.513444 
L 115.445626 257.513444 
L 115.532315 257.038595 
L 115.575511 257.038595 
L 115.575511 256.919883 
L 115.790012 256.919883 
L 115.790012 256.801171 
L 116.726103 256.801171 
L 116.766645 255.257912 
L 116.847468 255.257912 
L 116.847468 253.714654 
L 116.968056 253.714654 
L 116.968056 253.595941 
L 117.206936 253.595941 
L 117.285893 252.883668 
L 117.325248 252.883668 
L 117.36452 252.527532 
L 118.376446 252.527532 
L 118.450653 251.933971 
L 118.74459 251.933971 
L 118.74459 251.815259 
L 118.925995 251.815259 
L 118.99807 251.34041 
L 119.141397 251.34041 
L 119.141397 251.221698 
L 119.859282 251.221698 
L 119.859282 250.746849 
L 120.4345 250.746849 
L 120.467794 250.509424 
L 121.233724 250.509424 
L 121.233724 250.390712 
L 121.39274 250.390712 
L 121.39274 250.272 
L 121.706797 250.272 
L 121.8 249.915863 
L 121.892744 249.915863 
L 121.892744 249.797151 
L 122.514545 249.797151 
L 122.514545 248.491317 
L 123.073054 248.491317 
L 123.159743 247.897756 
L 123.713691 247.897756 
L 123.713691 247.185483 
L 123.963959 247.185483 
L 123.963959 247.066771 
L 124.156336 247.066771 
L 124.238185 246.591922 
L 124.319679 246.591922 
L 124.400822 246.117073 
L 125.437787 246.117073 
L 125.539678 245.760937 
L 125.615735 245.760937 
L 125.615735 245.642224 
L 126.311159 245.642224 
L 126.311159 245.523512 
L 126.493149 245.523512 
L 126.589495 245.048663 
L 126.613505 245.048663 
L 126.613505 244.929951 
L 127.400615 244.929951 
L 127.492435 244.217678 
L 127.51532 244.217678 
L 127.583809 243.861541 
L 127.62933 243.861541 
L 127.697406 243.624117 
L 128.39771 243.624117 
L 128.50651 242.793132 
L 128.528195 242.793132 
L 128.528195 242.67442 
L 129.32384 242.67442 
L 129.365344 242.318283 
L 129.468704 242.318283 
L 129.550986 241.843434 
L 130.127049 241.843434 
L 130.186674 240.893737 
L 130.28563 240.893737 
L 130.325068 240.418888 
L 130.93554 240.418888 
L 131.011661 239.231766 
L 131.049607 239.231766 
L 131.087476 238.994341 
L 131.238196 238.994341 
L 131.238196 238.875629 
L 131.783764 238.875629 
L 131.83837 238.282068 
L 131.910931 238.282068 
L 132.001241 237.569795 
L 132.57792 237.569795 
L 132.665091 236.620098 
L 132.699847 236.620098 
L 132.734539 236.382673 
L 133.30631 236.382673 
L 133.390178 235.432976 
L 133.423621 235.432976 
L 133.490329 235.076839 
L 134.023735 235.076839 
L 134.120577 233.771005 
L 134.152747 233.771005 
L 134.184863 233.414868 
L 134.652304 233.414868 
L 134.761537 232.346459 
L 134.77709 232.346459 
L 134.854664 231.752898 
L 135.008858 231.752898 
L 135.008858 231.634185 
L 135.336156 231.634185 
L 135.441501 230.209639 
L 135.501434 230.209639 
L 135.516388 229.972215 
L 136.039681 229.972215 
L 136.126705 228.191532 
L 136.155623 228.191532 
L 136.155623 227.716683 
L 136.548811 227.716683 
L 136.633516 227.360546 
L 136.661666 227.360546 
L 136.759863 226.766985 
L 136.89926 226.766985 
L 136.89926 226.410849 
L 137.181835 226.410849 
L 137.290966 224.86759 
L 137.318151 224.86759 
L 137.318151 224.748878 
L 137.507349 224.748878 
L 137.507349 224.630166 
L 137.714623 224.630166 
L 137.820715 224.036605 
L 137.847145 224.036605 
L 137.939359 223.20562 
L 138.070314 223.20562 
L 138.070314 223.086907 
L 138.226265 223.086907 
L 138.310202 222.493346 
L 138.348817 222.493346 
L 138.438609 220.356527 
L 138.464186 220.356527 
L 138.464186 220.237815 
L 138.875004 220.237815 
L 138.974767 217.744859 
L 138.999625 217.744859 
L 139.036851 217.388722 
L 139.374701 217.388722 
L 139.471855 215.13319 
L 139.496066 215.13319 
L 139.598614 214.420917 
L 139.712569 214.420917 
L 139.712569 214.302205 
L 139.849598 214.302205 
L 139.956146 212.996371 
L 139.979741 212.996371 
L 140.085557 210.26599 
L 140.359078 210.26599 
L 140.462787 209.078868 
L 140.474275 209.078868 
L 140.543056 208.247883 
L 140.657135 208.247883 
L 140.657135 208.129171 
L 140.843865 208.129171 
L 140.944943 206.704624 
L 140.95614 206.704624 
L 141.034335 205.636215 
L 141.211857 205.636215 
L 141.211857 205.517502 
L 141.338423 205.517502 
L 141.447793 203.380683 
L 141.469591 203.380683 
L 141.50224 202.312273 
L 141.59444 202.312273 
L 141.59444 202.193561 
L 141.739954 202.193561 
L 141.739954 201.956137 
L 141.852358 201.956137 
L 141.948172 200.056741 
L 141.969398 200.056741 
L 141.980002 199.819317 
L 142.085715 199.819317 
L 142.13835 199.46318 
L 142.237951 199.46318 
L 142.342229 197.682498 
L 142.352625 197.682498 
L 142.45627 195.783102 
L 142.528483 195.783102 
L 142.579895 195.189541 
L 142.677192 195.189541 
L 142.768906 193.646283 
L 142.789226 193.646283 
L 142.860175 192.340449 
L 143.156268 192.340449 
L 143.205995 191.272039 
L 143.275392 191.272039 
L 143.285285 190.915902 
L 143.535814 190.915902 
L 143.642864 188.897795 
L 143.681641 188.897795 
L 143.758956 188.541659 
L 143.893496 188.541659 
L 144.003296 187.354537 
L 144.012814 187.354537 
L 144.117191 185.692566 
L 144.136106 185.692566 
L 144.136106 185.573854 
L 144.267986 185.573854 
L 144.375627 184.86158 
L 144.384959 184.86158 
L 144.487297 182.843473 
L 144.496573 182.843473 
L 144.561376 181.300215 
L 144.740732 181.300215 
L 144.841158 179.99438 
L 144.895711 179.99438 
L 144.959156 179.40082 
L 145.089902 179.40082 
L 145.179545 176.433015 
L 145.454755 176.433015 
L 145.555833 174.889756 
L 145.582112 174.889756 
L 145.678157 173.346498 
L 145.82131 173.346498 
L 145.907542 171.447102 
L 146.027607 171.447102 
L 146.027607 171.32839 
L 146.176619 171.32839 
L 146.269683 169.66642 
L 146.30341 169.66642 
L 146.404232 167.648312 
L 146.420983 167.648312 
L 146.525341 167.054751 
L 146.550301 167.054751 
L 146.649811 165.274068 
L 146.71586 165.274068 
L 146.781678 162.6624 
L 146.867716 162.6624 
L 146.957431 161.831415 
L 146.989949 161.831415 
L 147.095245 158.626185 
L 147.111393 158.626185 
L 147.203971 156.489366 
L 147.228048 156.489366 
L 147.316064 154.827395 
L 147.339998 154.827395 
L 147.443358 148.416937 
L 147.46713 148.416937 
L 147.573734 147.823376 
L 147.605204 147.823376 
L 147.656232 145.211707 
L 147.722752 145.211707 
L 147.79293 141.294205 
L 147.897709 141.294205 
L 147.978801 139.988371 
L 148.051871 139.988371 
L 148.113184 139.276098 
L 148.200973 139.276098 
L 148.292143 138.088976 
L 148.405489 138.088976 
L 148.514411 137.614127 
L 148.544348 137.614127 
L 148.648753 136.664429 
L 148.708155 136.664429 
L 148.763673 135.59602 
L 148.837444 135.59602 
L 148.910927 134.883746 
L 149.013323 134.883746 
L 149.013323 134.765034 
L 149.155023 134.765034 
L 149.212849 134.052761 
L 149.302848 134.052761 
L 149.320797 133.815337 
L 149.42456 133.815337 
L 149.510002 133.103063 
L 149.630385 133.103063 
L 149.73246 132.865639 
L 149.746496 132.865639 
L 149.802535 132.272078 
L 149.90716 132.272078 
L 149.993905 131.559805 
L 150.049213 131.559805 
L 150.135307 130.72882 
L 150.319937 130.72882 
L 150.347136 130.135259 
L 150.438643 130.135259 
L 150.496032 129.66041 
L 150.613636 129.66041 
L 150.677171 129.185561 
L 150.753797 129.185561 
L 150.753797 129.066849 
L 150.889621 129.066849 
L 150.92919 128.354576 
L 151.027748 128.354576 
L 151.060487 128.117151 
L 151.161616 128.117151 
L 151.187626 127.761015 
L 151.436148 127.761015 
L 151.455376 127.167454 
L 151.563966 127.167454 
L 151.668766 126.811317 
L 151.694084 126.811317 
L 151.782431 126.336468 
L 151.813883 126.336468 
L 151.826449 126.099044 
L 151.98905 126.099044 
L 152.041905 125.86162 
L 152.211895 125.86162 
L 152.291722 125.268059 
L 152.340678 125.268059 
L 152.349843 125.030634 
L 152.483756 125.030634 
L 152.532216 124.674498 
L 152.598645 124.674498 
L 152.598645 124.555785 
L 152.721823 124.555785 
L 152.817404 124.199649 
L 152.841224 124.199649 
L 152.841224 124.080937 
L 152.992369 124.080937 
L 153.02481 123.843512 
L 153.107137 123.843512 
L 153.113003 123.606088 
L 153.276532 123.606088 
L 153.293969 123.368663 
L 153.573646 123.368663 
L 153.607958 123.131239 
L 153.8097 123.131239 
L 153.857685 122.893815 
L 153.933646 122.893815 
L 154.03166 122.537678 
L 154.170799 122.537678 
L 154.223403 122.300254 
L 154.451492 122.300254 
L 154.506042 121.825405 
L 154.639024 121.825405 
L 154.647136 121.58798 
L 154.854139 121.58798 
L 154.947483 121.231844 
L 155.172267 121.231844 
L 155.172267 121.113132 
L 155.357991 121.113132 
L 155.357991 120.99442 
L 155.572805 120.99442 
L 155.572805 120.638283 
L 155.711258 120.638283 
L 155.711258 120.400859 
L 156.269983 120.400859 
L 156.269983 120.282146 
L 156.383708 120.282146 
L 156.459963 119.92601 
L 156.694165 119.92601 
L 156.75468 119.688585 
L 156.853504 119.688585 
L 156.853504 119.451161 
L 157.056745 119.451161 
L 157.111364 119.213737 
L 157.180007 119.213737 
L 157.180007 119.095024 
L 157.302466 119.095024 
L 157.302466 118.976312 
L 158.307938 118.976312 
L 158.307938 118.8576 
L 158.50274 118.8576 
L 158.605962 118.026615 
L 162.24661 118.026615 
L 162.266453 117.195629 
L 162.600611 117.195629 
L 162.600611 117.076917 
L 162.930677 117.076917 
L 162.930677 116.839493 
L 166.1287 116.839493 
L 166.1287 116.72078 
L 166.251633 116.72078 
L 166.251633 116.602068 
L 167.763194 116.602068 
L 167.833061 116.364644 
L 169.090916 116.364644 
L 169.090916 116.245932 
L 169.413021 116.245932 
L 169.44136 116.008507 
L 170.187258 116.008507 
L 170.187258 115.889795 
L 170.478461 115.889795 
L 170.574922 115.533659 
L 170.904705 115.533659 
L 170.904705 115.414946 
L 171.766301 115.414946 
L 171.766301 115.296234 
L 172.10275 115.296234 
L 172.10275 115.177522 
L 172.88465 115.177522 
L 172.88465 115.05881 
L 177.73365 115.05881 
L 177.73365 114.940098 
L 178.180699 114.940098 
L 178.246348 114.465249 
L 178.480044 114.465249 
L 178.480044 114.346537 
L 178.609052 114.346537 
L 178.609052 114.227824 
L 182.238904 114.227824 
L 182.238904 114.109112 
L 183.60308 114.109112 
L 183.60308 113.9904 
L 183.850244 113.9904 
L 183.850244 113.871688 
L 184.789692 113.871688 
L 184.789692 113.752976 
L 187.350836 113.752976 
L 187.350836 113.634263 
L 188.869718 113.634263 
L 188.869718 113.515551 
L 191.110854 113.515551 
L 191.110854 113.396839 
L 191.908467 113.396839 
L 191.950562 113.040702 
L 192.046692 113.040702 
L 192.151908 112.803278 
L 194.963686 112.803278 
L 194.963686 112.684566 
L 195.34841 112.684566 
L 195.34841 112.565854 
L 195.827744 112.565854 
L 195.827744 112.447141 
L 196.625429 112.447141 
L 196.625429 112.328429 
L 197.102277 112.328429 
L 197.102277 112.209717 
L 197.49764 112.209717 
L 197.552146 111.972293 
L 198.052407 111.972293 
L 198.099159 111.616156 
L 199.830806 111.616156 
L 199.830806 111.497444 
L 200.156199 111.497444 
L 200.156199 111.378732 
L 201.657374 111.378732 
L 201.732741 111.141307 
L 201.851824 111.141307 
L 201.851824 111.022595 
L 202.079501 111.022595 
L 202.079501 110.903883 
L 209.760714 110.903883 
L 209.79562 110.429034 
L 210.461436 110.429034 
L 210.495901 110.19161 
L 210.915352 110.19161 
L 210.945335 109.479337 
L 212.27723 109.479337 
L 212.27723 109.360624 
L 212.799971 109.360624 
L 212.90617 108.648351 
L 213.060416 108.648351 
L 213.060416 108.529639 
L 213.905069 108.529639 
L 213.905069 108.410927 
L 215.624476 108.410927 
L 215.624476 108.292215 
L 216.065265 108.292215 
L 216.066297 107.936078 
L 218.69927 107.936078 
L 218.69927 107.817366 
L 222.24682 107.817366 
L 222.24682 107.698654 
L 222.474336 107.698654 
L 222.474336 107.579941 
L 223.461484 107.579941 
L 223.461484 107.461229 
L 224.731421 107.461229 
L 224.733766 107.223805 
L 224.994897 107.223805 
L 224.997274 106.39282 
L 225.75395 106.39282 
L 225.75395 106.274107 
L 230.83793 106.274107 
L 230.91232 104.730849 
L 231.010087 104.730849 
L 231.106188 102.831454 
L 231.121825 102.831454 
L 231.228153 101.763044 
L 231.345896 101.763044 
L 231.365639 101.050771 
L 231.568598 101.050771 
L 231.568598 100.932059 
L 233.124578 100.932059 
L 233.124578 100.813346 
L 234.222944 100.813346 
L 234.222944 100.694634 
L 236.165463 100.694634 
L 236.168052 99.982361 
L 236.340627 99.982361 
L 236.340627 99.863649 
L 236.455478 99.863649 
L 236.458063 99.507512 
L 236.958637 99.507512 
L 237.033036 99.151376 
L 237.921157 99.151376 
L 237.921416 98.913951 
L 240.083603 98.913951 
L 240.083603 98.795239 
L 240.563485 98.795239 
L 240.564046 98.557815 
L 241.196862 98.557815 
L 241.196862 98.439102 
L 243.889225 98.439102 
L 243.996909 97.845541 
L 244.011852 97.845541 
L 244.051431 96.539707 
L 244.146337 96.539707 
L 244.155363 96.302283 
L 245.061033 96.302283 
L 245.067465 96.064859 
L 246.74029 96.064859 
L 246.740431 95.827434 
L 247.379491 95.827434 
L 247.379491 95.708722 
L 248.278033 95.708722 
L 248.278927 95.352585 
L 249.072016 95.352585 
L 249.072016 95.233873 
L 249.371206 95.233873 
L 249.371206 95.115161 
L 249.976237 95.115161 
L 249.976237 94.996449 
L 251.538091 94.996449 
L 251.630988 93.571902 
L 251.691707 93.571902 
L 251.691707 93.45319 
L 252.717458 93.45319 
L 252.717561 93.215766 
L 253.467783 93.215766 
L 253.4689 92.859629 
L 253.58506 92.859629 
L 253.58506 92.740917 
L 253.801504 92.740917 
L 253.819041 92.503493 
L 253.917969 92.503493 
L 253.917969 92.38478 
L 255.346123 92.38478 
L 255.346174 92.147356 
L 255.78848 92.147356 
L 255.78848 92.028644 
L 256.94934 92.028644 
L 257.016154 91.197659 
L 257.063143 91.197659 
L 257.063143 91.078946 
L 257.533146 91.078946 
L 257.533146 90.960234 
L 258.684115 90.960234 
L 258.684115 90.841522 
L 259.256919 90.841522 
L 259.256919 90.72281 
L 261.167163 90.72281 
L 261.181168 90.485385 
L 262.32585 90.485385 
L 262.326265 90.247961 
L 263.520673 90.247961 
L 263.520673 90.129249 
L 263.808202 90.129249 
L 263.808202 90.010537 
L 264.572925 90.010537 
L 264.652014 89.060839 
L 265.563068 89.060839 
L 265.563068 88.942127 
L 267.471778 88.942127 
L 267.49572 88.704702 
L 268.323633 88.704702 
L 268.324166 88.111141 
L 269.984906 88.111141 
L 270.017235 87.636293 
L 270.730952 87.636293 
L 270.731478 87.280156 
L 271.504001 87.280156 
L 271.504001 87.161444 
L 272.211179 87.161444 
L 272.250668 86.92402 
L 272.864374 86.92402 
L 272.864682 86.686595 
L 274.192387 86.686595 
L 274.192387 86.567883 
L 274.781258 86.567883 
L 274.781258 86.449171 
L 276.52043 86.449171 
L 276.52043 86.330459 
L 277.091662 86.330459 
L 277.091662 86.211746 
L 277.231469 86.211746 
L 277.231469 86.093034 
L 277.623324 86.093034 
L 277.623324 85.974322 
L 278.111888 85.974322 
L 278.111888 85.85561 
L 279.12833 85.85561 
L 279.12833 85.736898 
L 280.185749 85.736898 
L 280.185749 85.618185 
L 280.520632 85.618185 
L 280.520632 85.499473 
L 280.939781 85.499473 
L 280.940359 85.262049 
L 281.505199 85.262049 
L 281.505441 85.024624 
L 282.209267 85.024624 
L 282.209267 84.905912 
L 282.633782 84.905912 
L 282.633782 84.7872 
L 283.02825 84.7872 
L 283.02842 84.549776 
L 283.895485 84.549776 
L 283.895485 84.431063 
L 284.170577 84.431063 
L 284.170577 84.312351 
L 285.57231 84.312351 
L 285.57231 84.193639 
L 288.143867 84.193639 
L 288.143867 84.074927 
L 288.424239 84.074927 
L 288.42483 83.837502 
L 288.806454 83.837502 
L 288.806454 83.71879 
L 289.286367 83.71879 
L 289.286367 83.600078 
L 290.111287 83.600078 
L 290.111287 83.481366 
L 290.459972 83.481366 
L 290.459972 83.362654 
L 290.900325 83.362654 
L 290.900325 83.243941 
L 291.23572 83.243941 
L 291.23572 83.125229 
L 295.657887 83.125229 
L 295.658343 82.887805 
L 297.204464 82.887805 
L 297.204464 82.769093 
L 297.749523 82.769093 
L 297.749523 82.65038 
L 298.443815 82.65038 
L 298.443966 82.412956 
L 299.45213 82.412956 
L 299.45213 82.294244 
L 299.66548 82.294244 
L 299.665546 82.05682 
L 301.319224 82.05682 
L 301.319224 81.938107 
L 305.46604 81.938107 
L 305.46604 81.819395 
L 317.114996 81.819395 
L 317.114996 81.700683 
L 360.8064 81.700683 
L 360.8064 81.700683 
" style="fill:none;stroke:#ff00ff;stroke-linecap:square;stroke-width:1.5;"/>
   </g>
   <g id="line2d_36">
    <defs>
     <path d="M -0 8.485281 
L 5.091169 0 
L 0 -8.485281 
L -5.091169 -0 
z
" id="m0aa775882f" style="stroke:#ff00ff;stroke-linejoin:miter;stroke-width:1.5;"/>
    </defs>
    <g>
     <use style="fill-opacity:0;stroke:#ff00ff;stroke-linejoin:miter;stroke-width:1.5;" x="147.203971" xlink:href="#m0aa775882f" y="156.608078"/>
     <use style="fill-opacity:0;stroke:#ff00ff;stroke-linejoin:miter;stroke-width:1.5;" x="231.568598" xlink:href="#m0aa775882f" y="101.050771"/>
     <use style="fill-opacity:0;stroke:#ff00ff;stroke-linejoin:miter;stroke-width:1.5;" x="317.114996" xlink:href="#m0aa775882f" y="81.819395"/>
     <use style="fill-opacity:0;stroke:#ff00ff;stroke-linejoin:miter;stroke-width:1.5;" x="317.114996" xlink:href="#m0aa775882f" y="81.700683"/>
     <use style="fill-opacity:0;stroke:#ff00ff;stroke-linejoin:miter;stroke-width:1.5;" x="360.8064" xlink:href="#m0aa775882f" y="81.700683"/>
    </g>
   </g>
   <g id="line2d_37">
    <path style="fill:none;stroke:#ff00ff;stroke-linecap:square;stroke-width:1.5;"/>
    <g/>
   </g>
   <g id="line2d_38">
    <path clip-path="url(#p43e07f5c29)" d="M 230.86348 106.036683 
" style="fill:none;stroke:#ff00ff;stroke-linecap:square;stroke-width:1.5;"/>
    <defs>
     <path d="M -12 12 
L 12 -12 
M -12 -12 
L 12 12 
" id="md367ea3b90" style="stroke:#ff00ff;"/>
    </defs>
    <g clip-path="url(#p43e07f5c29)">
     <use style="fill:#ff00ff;stroke:#ff00ff;" x="230.86348" xlink:href="#md367ea3b90" y="106.036683"/>
    </g>
   </g>
   <g id="line2d_39">
    <path d="M 360.8064 184.980293 
L 380.514816 293.10336 
" style="fill:none;stroke:#000080;stroke-linecap:square;stroke-width:1.5;"/>
    <g>
     <use style="fill-opacity:0;stroke:#000080;stroke-width:1.5;" x="360.8064" xlink:href="#m4d7b4f8be1" y="184.980293"/>
     <use style="fill-opacity:0;stroke:#000080;stroke-width:1.5;" x="380.514816" xlink:href="#m4d7b4f8be1" y="293.10336"/>
    </g>
   </g>
   <g id="line2d_40">
    <path d="M 360.8064 81.700683 
L 380.514816 12.75264 
" style="fill:none;stroke:#ff00ff;stroke-linecap:square;stroke-width:1.5;"/>
    <g>
     <use style="fill-opacity:0;stroke:#ff00ff;stroke-linejoin:miter;stroke-width:1.5;" x="360.8064" xlink:href="#m0aa775882f" y="81.700683"/>
     <use style="fill-opacity:0;stroke:#ff00ff;stroke-linejoin:miter;stroke-width:1.5;" x="380.514816" xlink:href="#m0aa775882f" y="12.75264"/>
    </g>
   </g>
   <g id="line2d_41">
    <path d="M 360.8064 298.944 
L 360.8064 6.912 
" style="fill:none;stroke:#000000;stroke-linecap:square;stroke-width:1.5;"/>
   </g>
   <g id="patch_3">
    <path d="M 57.6 298.944 
L 360.8064 298.944 
" style="fill:none;stroke:#000000;stroke-linecap:square;stroke-linejoin:miter;stroke-width:0.8;"/>
   </g>
   <g id="patch_4">
    <path d="M 57.6 6.912 
L 360.8064 6.912 
" style="fill:none;stroke:#000000;stroke-linecap:square;stroke-linejoin:miter;stroke-width:0.8;"/>
   </g>
   <g id="text_13">
    <!-- cobyla -->
    <g transform="translate(386.578944 296.966485)scale(0.14 -0.14)">
     <defs>
      <path d="M 48.6875 27.296875 
Q 48.6875 37.203125 44.609375 42.84375 
Q 40.53125 48.484375 33.40625 48.484375 
Q 26.265625 48.484375 22.1875 42.84375 
Q 18.109375 37.203125 18.109375 27.296875 
Q 18.109375 17.390625 22.1875 11.75 
Q 26.265625 6.109375 33.40625 6.109375 
Q 40.53125 6.109375 44.609375 11.75 
Q 48.6875 17.390625 48.6875 27.296875 
z
M 18.109375 46.390625 
Q 20.953125 51.265625 25.265625 53.625 
Q 29.59375 56 35.59375 56 
Q 45.5625 56 51.78125 48.09375 
Q 58.015625 40.1875 58.015625 27.296875 
Q 58.015625 14.40625 51.78125 6.484375 
Q 45.5625 -1.421875 35.59375 -1.421875 
Q 29.59375 -1.421875 25.265625 0.953125 
Q 20.953125 3.328125 18.109375 8.203125 
L 18.109375 0 
L 9.078125 0 
L 9.078125 75.984375 
L 18.109375 75.984375 
z
" id="DejaVuSans-98"/>
      <path d="M 32.171875 -5.078125 
Q 28.375 -14.84375 24.75 -17.8125 
Q 21.140625 -20.796875 15.09375 -20.796875 
L 7.90625 -20.796875 
L 7.90625 -13.28125 
L 13.1875 -13.28125 
Q 16.890625 -13.28125 18.9375 -11.515625 
Q 21 -9.765625 23.484375 -3.21875 
L 25.09375 0.875 
L 2.984375 54.6875 
L 12.5 54.6875 
L 29.59375 11.921875 
L 46.6875 54.6875 
L 56.203125 54.6875 
z
" id="DejaVuSans-121"/>
     </defs>
     <use xlink:href="#DejaVuSans-99"/>
     <use x="54.980469" xlink:href="#DejaVuSans-111"/>
     <use x="116.162109" xlink:href="#DejaVuSans-98"/>
     <use x="179.638672" xlink:href="#DejaVuSans-121"/>
     <use x="238.818359" xlink:href="#DejaVuSans-108"/>
     <use x="266.601562" xlink:href="#DejaVuSans-97"/>
    </g>
   </g>
   <g id="text_14">
    <!-- slsqp -->
    <g transform="translate(386.578944 16.615765)scale(0.14 -0.14)">
     <defs>
      <path d="M 14.796875 27.296875 
Q 14.796875 17.390625 18.875 11.75 
Q 22.953125 6.109375 30.078125 6.109375 
Q 37.203125 6.109375 41.296875 11.75 
Q 45.40625 17.390625 45.40625 27.296875 
Q 45.40625 37.203125 41.296875 42.84375 
Q 37.203125 48.484375 30.078125 48.484375 
Q 22.953125 48.484375 18.875 42.84375 
Q 14.796875 37.203125 14.796875 27.296875 
z
M 45.40625 8.203125 
Q 42.578125 3.328125 38.25 0.953125 
Q 33.9375 -1.421875 27.875 -1.421875 
Q 17.96875 -1.421875 11.734375 6.484375 
Q 5.515625 14.40625 5.515625 27.296875 
Q 5.515625 40.1875 11.734375 48.09375 
Q 17.96875 56 27.875 56 
Q 33.9375 56 38.25 53.625 
Q 42.578125 51.265625 45.40625 46.390625 
L 45.40625 54.6875 
L 54.390625 54.6875 
L 54.390625 -20.796875 
L 45.40625 -20.796875 
z
" id="DejaVuSans-113"/>
     </defs>
     <use xlink:href="#DejaVuSans-115"/>
     <use x="52.099609" xlink:href="#DejaVuSans-108"/>
     <use x="79.882812" xlink:href="#DejaVuSans-115"/>
     <use x="131.982422" xlink:href="#DejaVuSans-113"/>
     <use x="195.458984" xlink:href="#DejaVuSans-112"/>
    </g>
   </g>
   <g id="text_15">
    <!-- bbob-constrained f21, f27, f33, f39, 40-D -->
    <g transform="translate(60.632064 17.582726)scale(0.102 -0.102)">
     <defs>
      <path d="M 4.890625 31.390625 
L 31.203125 31.390625 
L 31.203125 23.390625 
L 4.890625 23.390625 
z
" id="DejaVuSans-45"/>
      <path d="M 8.203125 72.90625 
L 55.078125 72.90625 
L 55.078125 68.703125 
L 28.609375 0 
L 18.3125 0 
L 43.21875 64.59375 
L 8.203125 64.59375 
z
" id="DejaVuSans-55"/>
      <path d="M 40.578125 39.3125 
Q 47.65625 37.796875 51.625 33 
Q 55.609375 28.21875 55.609375 21.1875 
Q 55.609375 10.40625 48.1875 4.484375 
Q 40.765625 -1.421875 27.09375 -1.421875 
Q 22.515625 -1.421875 17.65625 -0.515625 
Q 12.796875 0.390625 7.625 2.203125 
L 7.625 11.71875 
Q 11.71875 9.328125 16.59375 8.109375 
Q 21.484375 6.890625 26.8125 6.890625 
Q 36.078125 6.890625 40.9375 10.546875 
Q 45.796875 14.203125 45.796875 21.1875 
Q 45.796875 27.640625 41.28125 31.265625 
Q 36.765625 34.90625 28.71875 34.90625 
L 20.21875 34.90625 
L 20.21875 43.015625 
L 29.109375 43.015625 
Q 36.375 43.015625 40.234375 45.921875 
Q 44.09375 48.828125 44.09375 54.296875 
Q 44.09375 59.90625 40.109375 62.90625 
Q 36.140625 65.921875 28.71875 65.921875 
Q 24.65625 65.921875 20.015625 65.03125 
Q 15.375 64.15625 9.8125 62.3125 
L 9.8125 71.09375 
Q 15.4375 72.65625 20.34375 73.4375 
Q 25.25 74.21875 29.59375 74.21875 
Q 40.828125 74.21875 47.359375 69.109375 
Q 53.90625 64.015625 53.90625 55.328125 
Q 53.90625 49.265625 50.4375 45.09375 
Q 46.96875 40.921875 40.578125 39.3125 
z
" id="DejaVuSans-51"/>
      <path d="M 10.984375 1.515625 
L 10.984375 10.5 
Q 14.703125 8.734375 18.5 7.8125 
Q 22.3125 6.890625 25.984375 6.890625 
Q 35.75 6.890625 40.890625 13.453125 
Q 46.046875 20.015625 46.78125 33.40625 
Q 43.953125 29.203125 39.59375 26.953125 
Q 35.25 24.703125 29.984375 24.703125 
Q 19.046875 24.703125 12.671875 31.3125 
Q 6.296875 37.9375 6.296875 49.421875 
Q 6.296875 60.640625 12.9375 67.421875 
Q 19.578125 74.21875 30.609375 74.21875 
Q 43.265625 74.21875 49.921875 64.515625 
Q 56.59375 54.828125 56.59375 36.375 
Q 56.59375 19.140625 48.40625 8.859375 
Q 40.234375 -1.421875 26.421875 -1.421875 
Q 22.703125 -1.421875 18.890625 -0.6875 
Q 15.09375 0.046875 10.984375 1.515625 
z
M 30.609375 32.421875 
Q 37.25 32.421875 41.125 36.953125 
Q 45.015625 41.5 45.015625 49.421875 
Q 45.015625 57.28125 41.125 61.84375 
Q 37.25 66.40625 30.609375 66.40625 
Q 23.96875 66.40625 20.09375 61.84375 
Q 16.21875 57.28125 16.21875 49.421875 
Q 16.21875 41.5 20.09375 36.953125 
Q 23.96875 32.421875 30.609375 32.421875 
z
" id="DejaVuSans-57"/>
      <path d="M 19.671875 64.796875 
L 19.671875 8.109375 
L 31.59375 8.109375 
Q 46.6875 8.109375 53.6875 14.9375 
Q 60.6875 21.78125 60.6875 36.53125 
Q 60.6875 51.171875 53.6875 57.984375 
Q 46.6875 64.796875 31.59375 64.796875 
z
M 9.8125 72.90625 
L 30.078125 72.90625 
Q 51.265625 72.90625 61.171875 64.09375 
Q 71.09375 55.28125 71.09375 36.53125 
Q 71.09375 17.671875 61.125 8.828125 
Q 51.171875 0 30.078125 0 
L 9.8125 0 
z
" id="DejaVuSans-68"/>
     </defs>
     <use xlink:href="#DejaVuSans-98"/>
     <use x="63.476562" xlink:href="#DejaVuSans-98"/>
     <use x="126.953125" xlink:href="#DejaVuSans-111"/>
     <use x="188.134766" xlink:href="#DejaVuSans-98"/>
     <use x="251.611328" xlink:href="#DejaVuSans-45"/>
     <use x="287.695312" xlink:href="#DejaVuSans-99"/>
     <use x="342.675781" xlink:href="#DejaVuSans-111"/>
     <use x="403.857422" xlink:href="#DejaVuSans-110"/>
     <use x="467.236328" xlink:href="#DejaVuSans-115"/>
     <use x="519.335938" xlink:href="#DejaVuSans-116"/>
     <use x="558.544922" xlink:href="#DejaVuSans-114"/>
     <use x="599.658203" xlink:href="#DejaVuSans-97"/>
     <use x="660.9375" xlink:href="#DejaVuSans-105"/>
     <use x="688.720703" xlink:href="#DejaVuSans-110"/>
     <use x="752.099609" xlink:href="#DejaVuSans-101"/>
     <use x="813.623047" xlink:href="#DejaVuSans-100"/>
     <use x="877.099609" xlink:href="#DejaVuSans-32"/>
     <use x="908.886719" xlink:href="#DejaVuSans-102"/>
     <use x="944.091797" xlink:href="#DejaVuSans-50"/>
     <use x="1007.714844" xlink:href="#DejaVuSans-49"/>
     <use x="1071.337891" xlink:href="#DejaVuSans-44"/>
     <use x="1103.125" xlink:href="#DejaVuSans-32"/>
     <use x="1134.912109" xlink:href="#DejaVuSans-102"/>
     <use x="1170.117188" xlink:href="#DejaVuSans-50"/>
     <use x="1233.740234" xlink:href="#DejaVuSans-55"/>
     <use x="1297.363281" xlink:href="#DejaVuSans-44"/>
     <use x="1329.150391" xlink:href="#DejaVuSans-32"/>
     <use x="1360.9375" xlink:href="#DejaVuSans-102"/>
     <use x="1396.142578" xlink:href="#DejaVuSans-51"/>
     <use x="1459.765625" xlink:href="#DejaVuSans-51"/>
     <use x="1523.388672" xlink:href="#DejaVuSans-44"/>
     <use x="1555.175781" xlink:href="#DejaVuSans-32"/>
     <use x="1586.962891" xlink:href="#DejaVuSans-102"/>
     <use x="1622.167969" xlink:href="#DejaVuSans-51"/>
     <use x="1685.791016" xlink:href="#DejaVuSans-57"/>
     <use x="1749.414062" xlink:href="#DejaVuSans-44"/>
     <use x="1781.201172" xlink:href="#DejaVuSans-32"/>
     <use x="1812.988281" xlink:href="#DejaVuSans-52"/>
     <use x="1876.611328" xlink:href="#DejaVuSans-48"/>
     <use x="1940.234375" xlink:href="#DejaVuSans-45"/>
     <use x="1976.318359" xlink:href="#DejaVuSans-68"/>
    </g>
    <!-- 41 targets: 100..1e-06 -->
    <g transform="translate(60.632064 29.004495)scale(0.102 -0.102)">
     <defs>
      <path d="M 11.71875 12.40625 
L 22.015625 12.40625 
L 22.015625 0 
L 11.71875 0 
z
M 11.71875 51.703125 
L 22.015625 51.703125 
L 22.015625 39.3125 
L 11.71875 39.3125 
z
" id="DejaVuSans-58"/>
     </defs>
     <use xlink:href="#DejaVuSans-52"/>
     <use x="63.623047" xlink:href="#DejaVuSans-49"/>
     <use x="127.246094" xlink:href="#DejaVuSans-32"/>
     <use x="159.033203" xlink:href="#DejaVuSans-116"/>
     <use x="198.242188" xlink:href="#DejaVuSans-97"/>
     <use x="259.521484" xlink:href="#DejaVuSans-114"/>
     <use x="298.884766" xlink:href="#DejaVuSans-103"/>
     <use x="362.361328" xlink:href="#DejaVuSans-101"/>
     <use x="423.884766" xlink:href="#DejaVuSans-116"/>
     <use x="463.09375" xlink:href="#DejaVuSans-115"/>
     <use x="515.193359" xlink:href="#DejaVuSans-58"/>
     <use x="548.884766" xlink:href="#DejaVuSans-32"/>
     <use x="580.671875" xlink:href="#DejaVuSans-49"/>
     <use x="644.294922" xlink:href="#DejaVuSans-48"/>
     <use x="707.917969" xlink:href="#DejaVuSans-48"/>
     <use x="771.541016" xlink:href="#DejaVuSans-46"/>
     <use x="803.328125" xlink:href="#DejaVuSans-46"/>
     <use x="835.115234" xlink:href="#DejaVuSans-49"/>
     <use x="898.738281" xlink:href="#DejaVuSans-101"/>
     <use x="960.261719" xlink:href="#DejaVuSans-45"/>
     <use x="996.345703" xlink:href="#DejaVuSans-48"/>
     <use x="1059.96875" xlink:href="#DejaVuSans-54"/>
    </g>
    <!-- evals = f-evals + g-evals -->
    <g transform="translate(60.632064 40.426264)scale(0.102 -0.102)">
     <defs>
      <path d="M 10.59375 45.40625 
L 73.1875 45.40625 
L 73.1875 37.203125 
L 10.59375 37.203125 
z
M 10.59375 25.484375 
L 73.1875 25.484375 
L 73.1875 17.1875 
L 10.59375 17.1875 
z
" id="DejaVuSans-61"/>
      <path d="M 46 62.703125 
L 46 35.5 
L 73.1875 35.5 
L 73.1875 27.203125 
L 46 27.203125 
L 46 0 
L 37.796875 0 
L 37.796875 27.203125 
L 10.59375 27.203125 
L 10.59375 35.5 
L 37.796875 35.5 
L 37.796875 62.703125 
z
" id="DejaVuSans-43"/>
     </defs>
     <use xlink:href="#DejaVuSans-101"/>
     <use x="61.523438" xlink:href="#DejaVuSans-118"/>
     <use x="120.703125" xlink:href="#DejaVuSans-97"/>
     <use x="181.982422" xlink:href="#DejaVuSans-108"/>
     <use x="209.765625" xlink:href="#DejaVuSans-115"/>
     <use x="261.865234" xlink:href="#DejaVuSans-32"/>
     <use x="293.652344" xlink:href="#DejaVuSans-61"/>
     <use x="377.441406" xlink:href="#DejaVuSans-32"/>
     <use x="409.228516" xlink:href="#DejaVuSans-102"/>
     <use x="438.933594" xlink:href="#DejaVuSans-45"/>
     <use x="475.017578" xlink:href="#DejaVuSans-101"/>
     <use x="536.541016" xlink:href="#DejaVuSans-118"/>
     <use x="595.720703" xlink:href="#DejaVuSans-97"/>
     <use x="657" xlink:href="#DejaVuSans-108"/>
     <use x="684.783203" xlink:href="#DejaVuSans-115"/>
     <use x="736.882812" xlink:href="#DejaVuSans-32"/>
     <use x="768.669922" xlink:href="#DejaVuSans-43"/>
     <use x="852.458984" xlink:href="#DejaVuSans-32"/>
     <use x="884.246094" xlink:href="#DejaVuSans-103"/>
     <use x="947.722656" xlink:href="#DejaVuSans-45"/>
     <use x="983.806641" xlink:href="#DejaVuSans-101"/>
     <use x="1045.330078" xlink:href="#DejaVuSans-118"/>
     <use x="1104.509766" xlink:href="#DejaVuSans-97"/>
     <use x="1165.789062" xlink:href="#DejaVuSans-108"/>
     <use x="1193.572266" xlink:href="#DejaVuSans-115"/>
    </g>
    <!-- 15 instances -->
    <g transform="translate(60.632064 51.848032)scale(0.102 -0.102)">
     <defs>
      <path d="M 10.796875 72.90625 
L 49.515625 72.90625 
L 49.515625 64.59375 
L 19.828125 64.59375 
L 19.828125 46.734375 
Q 21.96875 47.46875 24.109375 47.828125 
Q 26.265625 48.1875 28.421875 48.1875 
Q 40.625 48.1875 47.75 41.5 
Q 54.890625 34.8125 54.890625 23.390625 
Q 54.890625 11.625 47.5625 5.09375 
Q 40.234375 -1.421875 26.90625 -1.421875 
Q 22.3125 -1.421875 17.546875 -0.640625 
Q 12.796875 0.140625 7.71875 1.703125 
L 7.71875 11.625 
Q 12.109375 9.234375 16.796875 8.0625 
Q 21.484375 6.890625 26.703125 6.890625 
Q 35.15625 6.890625 40.078125 11.328125 
Q 45.015625 15.765625 45.015625 23.390625 
Q 45.015625 31 40.078125 35.4375 
Q 35.15625 39.890625 26.703125 39.890625 
Q 22.75 39.890625 18.8125 39.015625 
Q 14.890625 38.140625 10.796875 36.28125 
z
" id="DejaVuSans-53"/>
     </defs>
     <use xlink:href="#DejaVuSans-49"/>
     <use x="63.623047" xlink:href="#DejaVuSans-53"/>
     <use x="127.246094" xlink:href="#DejaVuSans-32"/>
     <use x="159.033203" xlink:href="#DejaVuSans-105"/>
     <use x="186.816406" xlink:href="#DejaVuSans-110"/>
     <use x="250.195312" xlink:href="#DejaVuSans-115"/>
     <use x="302.294922" xlink:href="#DejaVuSans-116"/>
     <use x="341.503906" xlink:href="#DejaVuSans-97"/>
     <use x="402.783203" xlink:href="#DejaVuSans-110"/>
     <use x="466.162109" xlink:href="#DejaVuSans-99"/>
     <use x="521.142578" xlink:href="#DejaVuSans-101"/>
     <use x="582.666016" xlink:href="#DejaVuSans-115"/>
    </g>
   </g>
   <g id="text_16">
    <!-- v2.4.159 -->
    <g style="fill:#808080;" transform="translate(187.15945 293.943992)scale(0.1 -0.1)">
     <use xlink:href="#DejaVuSans-118"/>
     <use x="59.179688" xlink:href="#DejaVuSans-50"/>
     <use x="122.802734" xlink:href="#DejaVuSans-46"/>
     <use x="154.589844" xlink:href="#DejaVuSans-52"/>
     <use x="218.212891" xlink:href="#DejaVuSans-46"/>
     <use x="250" xlink:href="#DejaVuSans-49"/>
     <use x="313.623047" xlink:href="#DejaVuSans-53"/>
     <use x="377.246094" xlink:href="#DejaVuSans-57"/>
    </g>
   </g>
  </g>
 </g>
 <defs>
  <clipPath id="p43e07f5c29">
   <rect height="292.032" width="303.2064" x="57.6" y="6.912"/>
  </clipPath>
 </defs>
</svg>
