<?xml version="1.0" encoding="utf-8" standalone="no"?>
<!DOCTYPE svg PUBLIC "-//W3C//DTD SVG 1.1//EN"
  "http://www.w3.org/Graphics/SVG/1.1/DTD/svg11.dtd">
<!-- Created with matplotlib (https://matplotlib.org/) -->
<svg height="345.6pt" version="1.1" viewBox="0 0 460.8 345.6" width="460.8pt" xmlns="http://www.w3.org/2000/svg" xmlns:xlink="http://www.w3.org/1999/xlink">
 <metadata>
  <rdf:RDF xmlns:cc="http://creativecommons.org/ns#" xmlns:dc="http://purl.org/dc/elements/1.1/" xmlns:rdf="http://www.w3.org/1999/02/22-rdf-syntax-ns#">
   <cc:Work>
    <dc:type rdf:resource="http://purl.org/dc/dcmitype/StillImage"/>
    <dc:date>2022-02-09T00:07:36.439583</dc:date>
    <dc:format>image/svg+xml</dc:format>
    <dc:creator>
     <cc:Agent>
      <dc:title>Matplotlib v3.3.3, https://matplotlib.org/</dc:title>
     </cc:Agent>
    </dc:creator>
   </cc:Work>
  </rdf:RDF>
 </metadata>
 <defs>
  <style type="text/css">*{stroke-linecap:butt;stroke-linejoin:round;}</style>
 </defs>
 <g id="figure_1">
  <g id="patch_1">
   <path d="M 0 345.6 
L 460.8 345.6 
L 460.8 0 
L 0 0 
z
" style="fill:#ffffff;"/>
  </g>
  <g id="axes_1">
   <g id="patch_2">
    <path d="M 57.6 298.944 
L 360.8064 298.944 
L 360.8064 6.912 
L 57.6 6.912 
z
" style="fill:#ffffff;"/>
   </g>
   <g id="matplotlib.axis_1">
    <g id="xtick_1">
     <g id="line2d_1">
      <path clip-path="url(#p43c49669b1)" d="M 57.6 298.944 
L 57.6 6.912 
" style="fill:none;stroke:#b0b0b0;stroke-linecap:square;stroke-width:0.8;"/>
     </g>
     <g id="line2d_2">
      <defs>
       <path d="M 0 0 
L 0 3.5 
" id="ma3cb3f1a45" style="stroke:#000000;stroke-width:0.8;"/>
      </defs>
      <g>
       <use style="stroke:#000000;stroke-width:0.8;" x="57.6" xlink:href="#ma3cb3f1a45" y="298.944"/>
      </g>
     </g>
     <g id="text_1">
      <!-- 0 -->
      <g transform="translate(52.191875 318.861344)scale(0.17 -0.17)">
       <defs>
        <path d="M 31.78125 66.40625 
Q 24.171875 66.40625 20.328125 58.90625 
Q 16.5 51.421875 16.5 36.375 
Q 16.5 21.390625 20.328125 13.890625 
Q 24.171875 6.390625 31.78125 6.390625 
Q 39.453125 6.390625 43.28125 13.890625 
Q 47.125 21.390625 47.125 36.375 
Q 47.125 51.421875 43.28125 58.90625 
Q 39.453125 66.40625 31.78125 66.40625 
z
M 31.78125 74.21875 
Q 44.046875 74.21875 50.515625 64.515625 
Q 56.984375 54.828125 56.984375 36.375 
Q 56.984375 17.96875 50.515625 8.265625 
Q 44.046875 -1.421875 31.78125 -1.421875 
Q 19.53125 -1.421875 13.0625 8.265625 
Q 6.59375 17.96875 6.59375 36.375 
Q 6.59375 54.828125 13.0625 64.515625 
Q 19.53125 74.21875 31.78125 74.21875 
z
" id="DejaVuSans-48"/>
       </defs>
       <use xlink:href="#DejaVuSans-48"/>
      </g>
     </g>
    </g>
    <g id="xtick_2">
     <g id="line2d_3">
      <path clip-path="url(#p43c49669b1)" d="M 144.2304 298.944 
L 144.2304 6.912 
" style="fill:none;stroke:#b0b0b0;stroke-linecap:square;stroke-width:0.8;"/>
     </g>
     <g id="line2d_4">
      <g>
       <use style="stroke:#000000;stroke-width:0.8;" x="144.2304" xlink:href="#ma3cb3f1a45" y="298.944"/>
      </g>
     </g>
     <g id="text_2">
      <!-- 2 -->
      <g transform="translate(138.822275 318.861344)scale(0.17 -0.17)">
       <defs>
        <path d="M 19.1875 8.296875 
L 53.609375 8.296875 
L 53.609375 0 
L 7.328125 0 
L 7.328125 8.296875 
Q 12.9375 14.109375 22.625 23.890625 
Q 32.328125 33.6875 34.8125 36.53125 
Q 39.546875 41.84375 41.421875 45.53125 
Q 43.3125 49.21875 43.3125 52.78125 
Q 43.3125 58.59375 39.234375 62.25 
Q 35.15625 65.921875 28.609375 65.921875 
Q 23.96875 65.921875 18.8125 64.3125 
Q 13.671875 62.703125 7.8125 59.421875 
L 7.8125 69.390625 
Q 13.765625 71.78125 18.9375 73 
Q 24.125 74.21875 28.421875 74.21875 
Q 39.75 74.21875 46.484375 68.546875 
Q 53.21875 62.890625 53.21875 53.421875 
Q 53.21875 48.921875 51.53125 44.890625 
Q 49.859375 40.875 45.40625 35.40625 
Q 44.1875 33.984375 37.640625 27.21875 
Q 31.109375 20.453125 19.1875 8.296875 
z
" id="DejaVuSans-50"/>
       </defs>
       <use xlink:href="#DejaVuSans-50"/>
      </g>
     </g>
    </g>
    <g id="xtick_3">
     <g id="line2d_5">
      <path clip-path="url(#p43c49669b1)" d="M 230.8608 298.944 
L 230.8608 6.912 
" style="fill:none;stroke:#b0b0b0;stroke-linecap:square;stroke-width:0.8;"/>
     </g>
     <g id="line2d_6">
      <g>
       <use style="stroke:#000000;stroke-width:0.8;" x="230.8608" xlink:href="#ma3cb3f1a45" y="298.944"/>
      </g>
     </g>
     <g id="text_3">
      <!-- 4 -->
      <g transform="translate(225.452675 318.861344)scale(0.17 -0.17)">
       <defs>
        <path d="M 37.796875 64.3125 
L 12.890625 25.390625 
L 37.796875 25.390625 
z
M 35.203125 72.90625 
L 47.609375 72.90625 
L 47.609375 25.390625 
L 58.015625 25.390625 
L 58.015625 17.1875 
L 47.609375 17.1875 
L 47.609375 0 
L 37.796875 0 
L 37.796875 17.1875 
L 4.890625 17.1875 
L 4.890625 26.703125 
z
" id="DejaVuSans-52"/>
       </defs>
       <use xlink:href="#DejaVuSans-52"/>
      </g>
     </g>
    </g>
    <g id="xtick_4">
     <g id="line2d_7">
      <path clip-path="url(#p43c49669b1)" d="M 317.4912 298.944 
L 317.4912 6.912 
" style="fill:none;stroke:#b0b0b0;stroke-linecap:square;stroke-width:0.8;"/>
     </g>
     <g id="line2d_8">
      <g>
       <use style="stroke:#000000;stroke-width:0.8;" x="317.4912" xlink:href="#ma3cb3f1a45" y="298.944"/>
      </g>
     </g>
     <g id="text_4">
      <!-- 6 -->
      <g transform="translate(312.083075 318.861344)scale(0.17 -0.17)">
       <defs>
        <path d="M 33.015625 40.375 
Q 26.375 40.375 22.484375 35.828125 
Q 18.609375 31.296875 18.609375 23.390625 
Q 18.609375 15.53125 22.484375 10.953125 
Q 26.375 6.390625 33.015625 6.390625 
Q 39.65625 6.390625 43.53125 10.953125 
Q 47.40625 15.53125 47.40625 23.390625 
Q 47.40625 31.296875 43.53125 35.828125 
Q 39.65625 40.375 33.015625 40.375 
z
M 52.59375 71.296875 
L 52.59375 62.3125 
Q 48.875 64.0625 45.09375 64.984375 
Q 41.3125 65.921875 37.59375 65.921875 
Q 27.828125 65.921875 22.671875 59.328125 
Q 17.53125 52.734375 16.796875 39.40625 
Q 19.671875 43.65625 24.015625 45.921875 
Q 28.375 48.1875 33.59375 48.1875 
Q 44.578125 48.1875 50.953125 41.515625 
Q 57.328125 34.859375 57.328125 23.390625 
Q 57.328125 12.15625 50.6875 5.359375 
Q 44.046875 -1.421875 33.015625 -1.421875 
Q 20.359375 -1.421875 13.671875 8.265625 
Q 6.984375 17.96875 6.984375 36.375 
Q 6.984375 53.65625 15.1875 63.9375 
Q 23.390625 74.21875 37.203125 74.21875 
Q 40.921875 74.21875 44.703125 73.484375 
Q 48.484375 72.75 52.59375 71.296875 
z
" id="DejaVuSans-54"/>
       </defs>
       <use xlink:href="#DejaVuSans-54"/>
      </g>
     </g>
    </g>
    <g id="xtick_5">
     <g id="line2d_9">
      <path clip-path="url(#p43c49669b1)" d="M 100.9152 298.944 
L 100.9152 6.912 
" style="fill:none;stroke:#b0b0b0;stroke-linecap:square;stroke-width:0.8;"/>
     </g>
     <g id="line2d_10">
      <defs>
       <path d="M 0 0 
L 0 2 
" id="m16c07f00c4" style="stroke:#000000;stroke-width:0.6;"/>
      </defs>
      <g>
       <use style="stroke:#000000;stroke-width:0.6;" x="100.9152" xlink:href="#m16c07f00c4" y="298.944"/>
      </g>
     </g>
    </g>
    <g id="xtick_6">
     <g id="line2d_11">
      <path clip-path="url(#p43c49669b1)" d="M 187.5456 298.944 
L 187.5456 6.912 
" style="fill:none;stroke:#b0b0b0;stroke-linecap:square;stroke-width:0.8;"/>
     </g>
     <g id="line2d_12">
      <g>
       <use style="stroke:#000000;stroke-width:0.6;" x="187.5456" xlink:href="#m16c07f00c4" y="298.944"/>
      </g>
     </g>
    </g>
    <g id="xtick_7">
     <g id="line2d_13">
      <path clip-path="url(#p43c49669b1)" d="M 274.176 298.944 
L 274.176 6.912 
" style="fill:none;stroke:#b0b0b0;stroke-linecap:square;stroke-width:0.8;"/>
     </g>
     <g id="line2d_14">
      <g>
       <use style="stroke:#000000;stroke-width:0.6;" x="274.176" xlink:href="#m16c07f00c4" y="298.944"/>
      </g>
     </g>
    </g>
    <g id="xtick_8">
     <g id="line2d_15">
      <path clip-path="url(#p43c49669b1)" d="M 360.8064 298.944 
L 360.8064 6.912 
" style="fill:none;stroke:#b0b0b0;stroke-linecap:square;stroke-width:0.8;"/>
     </g>
     <g id="line2d_16">
      <g>
       <use style="stroke:#000000;stroke-width:0.6;" x="360.8064" xlink:href="#m16c07f00c4" y="298.944"/>
      </g>
     </g>
    </g>
    <g id="text_5">
     <!-- log10(evals / dimension) -->
     <g transform="translate(104.238825 339.314156)scale(0.17 -0.17)">
      <defs>
       <path d="M 9.421875 75.984375 
L 18.40625 75.984375 
L 18.40625 0 
L 9.421875 0 
z
" id="DejaVuSans-108"/>
       <path d="M 30.609375 48.390625 
Q 23.390625 48.390625 19.1875 42.75 
Q 14.984375 37.109375 14.984375 27.296875 
Q 14.984375 17.484375 19.15625 11.84375 
Q 23.34375 6.203125 30.609375 6.203125 
Q 37.796875 6.203125 41.984375 11.859375 
Q 46.1875 17.53125 46.1875 27.296875 
Q 46.1875 37.015625 41.984375 42.703125 
Q 37.796875 48.390625 30.609375 48.390625 
z
M 30.609375 56 
Q 42.328125 56 49.015625 48.375 
Q 55.71875 40.765625 55.71875 27.296875 
Q 55.71875 13.875 49.015625 6.21875 
Q 42.328125 -1.421875 30.609375 -1.421875 
Q 18.84375 -1.421875 12.171875 6.21875 
Q 5.515625 13.875 5.515625 27.296875 
Q 5.515625 40.765625 12.171875 48.375 
Q 18.84375 56 30.609375 56 
z
" id="DejaVuSans-111"/>
       <path d="M 45.40625 27.984375 
Q 45.40625 37.75 41.375 43.109375 
Q 37.359375 48.484375 30.078125 48.484375 
Q 22.859375 48.484375 18.828125 43.109375 
Q 14.796875 37.75 14.796875 27.984375 
Q 14.796875 18.265625 18.828125 12.890625 
Q 22.859375 7.515625 30.078125 7.515625 
Q 37.359375 7.515625 41.375 12.890625 
Q 45.40625 18.265625 45.40625 27.984375 
z
M 54.390625 6.78125 
Q 54.390625 -7.171875 48.1875 -13.984375 
Q 42 -20.796875 29.203125 -20.796875 
Q 24.46875 -20.796875 20.265625 -20.09375 
Q 16.0625 -19.390625 12.109375 -17.921875 
L 12.109375 -9.1875 
Q 16.0625 -11.328125 19.921875 -12.34375 
Q 23.78125 -13.375 27.78125 -13.375 
Q 36.625 -13.375 41.015625 -8.765625 
Q 45.40625 -4.15625 45.40625 5.171875 
L 45.40625 9.625 
Q 42.625 4.78125 38.28125 2.390625 
Q 33.9375 0 27.875 0 
Q 17.828125 0 11.671875 7.65625 
Q 5.515625 15.328125 5.515625 27.984375 
Q 5.515625 40.671875 11.671875 48.328125 
Q 17.828125 56 27.875 56 
Q 33.9375 56 38.28125 53.609375 
Q 42.625 51.21875 45.40625 46.390625 
L 45.40625 54.6875 
L 54.390625 54.6875 
z
" id="DejaVuSans-103"/>
       <path d="M 12.40625 8.296875 
L 28.515625 8.296875 
L 28.515625 63.921875 
L 10.984375 60.40625 
L 10.984375 69.390625 
L 28.421875 72.90625 
L 38.28125 72.90625 
L 38.28125 8.296875 
L 54.390625 8.296875 
L 54.390625 0 
L 12.40625 0 
z
" id="DejaVuSans-49"/>
       <path d="M 31 75.875 
Q 24.46875 64.65625 21.28125 53.65625 
Q 18.109375 42.671875 18.109375 31.390625 
Q 18.109375 20.125 21.3125 9.0625 
Q 24.515625 -2 31 -13.1875 
L 23.1875 -13.1875 
Q 15.875 -1.703125 12.234375 9.375 
Q 8.59375 20.453125 8.59375 31.390625 
Q 8.59375 42.28125 12.203125 53.3125 
Q 15.828125 64.359375 23.1875 75.875 
z
" id="DejaVuSans-40"/>
       <path d="M 56.203125 29.59375 
L 56.203125 25.203125 
L 14.890625 25.203125 
Q 15.484375 15.921875 20.484375 11.0625 
Q 25.484375 6.203125 34.421875 6.203125 
Q 39.59375 6.203125 44.453125 7.46875 
Q 49.3125 8.734375 54.109375 11.28125 
L 54.109375 2.78125 
Q 49.265625 0.734375 44.1875 -0.34375 
Q 39.109375 -1.421875 33.890625 -1.421875 
Q 20.796875 -1.421875 13.15625 6.1875 
Q 5.515625 13.8125 5.515625 26.8125 
Q 5.515625 40.234375 12.765625 48.109375 
Q 20.015625 56 32.328125 56 
Q 43.359375 56 49.78125 48.890625 
Q 56.203125 41.796875 56.203125 29.59375 
z
M 47.21875 32.234375 
Q 47.125 39.59375 43.09375 43.984375 
Q 39.0625 48.390625 32.421875 48.390625 
Q 24.90625 48.390625 20.390625 44.140625 
Q 15.875 39.890625 15.1875 32.171875 
z
" id="DejaVuSans-101"/>
       <path d="M 2.984375 54.6875 
L 12.5 54.6875 
L 29.59375 8.796875 
L 46.6875 54.6875 
L 56.203125 54.6875 
L 35.6875 0 
L 23.484375 0 
z
" id="DejaVuSans-118"/>
       <path d="M 34.28125 27.484375 
Q 23.390625 27.484375 19.1875 25 
Q 14.984375 22.515625 14.984375 16.5 
Q 14.984375 11.71875 18.140625 8.90625 
Q 21.296875 6.109375 26.703125 6.109375 
Q 34.1875 6.109375 38.703125 11.40625 
Q 43.21875 16.703125 43.21875 25.484375 
L 43.21875 27.484375 
z
M 52.203125 31.203125 
L 52.203125 0 
L 43.21875 0 
L 43.21875 8.296875 
Q 40.140625 3.328125 35.546875 0.953125 
Q 30.953125 -1.421875 24.3125 -1.421875 
Q 15.921875 -1.421875 10.953125 3.296875 
Q 6 8.015625 6 15.921875 
Q 6 25.140625 12.171875 29.828125 
Q 18.359375 34.515625 30.609375 34.515625 
L 43.21875 34.515625 
L 43.21875 35.40625 
Q 43.21875 41.609375 39.140625 45 
Q 35.0625 48.390625 27.6875 48.390625 
Q 23 48.390625 18.546875 47.265625 
Q 14.109375 46.140625 10.015625 43.890625 
L 10.015625 52.203125 
Q 14.9375 54.109375 19.578125 55.046875 
Q 24.21875 56 28.609375 56 
Q 40.484375 56 46.34375 49.84375 
Q 52.203125 43.703125 52.203125 31.203125 
z
" id="DejaVuSans-97"/>
       <path d="M 44.28125 53.078125 
L 44.28125 44.578125 
Q 40.484375 46.53125 36.375 47.5 
Q 32.28125 48.484375 27.875 48.484375 
Q 21.1875 48.484375 17.84375 46.4375 
Q 14.5 44.390625 14.5 40.28125 
Q 14.5 37.15625 16.890625 35.375 
Q 19.28125 33.59375 26.515625 31.984375 
L 29.59375 31.296875 
Q 39.15625 29.25 43.1875 25.515625 
Q 47.21875 21.78125 47.21875 15.09375 
Q 47.21875 7.46875 41.1875 3.015625 
Q 35.15625 -1.421875 24.609375 -1.421875 
Q 20.21875 -1.421875 15.453125 -0.5625 
Q 10.6875 0.296875 5.421875 2 
L 5.421875 11.28125 
Q 10.40625 8.6875 15.234375 7.390625 
Q 20.0625 6.109375 24.8125 6.109375 
Q 31.15625 6.109375 34.5625 8.28125 
Q 37.984375 10.453125 37.984375 14.40625 
Q 37.984375 18.0625 35.515625 20.015625 
Q 33.0625 21.96875 24.703125 23.78125 
L 21.578125 24.515625 
Q 13.234375 26.265625 9.515625 29.90625 
Q 5.8125 33.546875 5.8125 39.890625 
Q 5.8125 47.609375 11.28125 51.796875 
Q 16.75 56 26.8125 56 
Q 31.78125 56 36.171875 55.265625 
Q 40.578125 54.546875 44.28125 53.078125 
z
" id="DejaVuSans-115"/>
       <path id="DejaVuSans-32"/>
       <path d="M 25.390625 72.90625 
L 33.6875 72.90625 
L 8.296875 -9.28125 
L 0 -9.28125 
z
" id="DejaVuSans-47"/>
       <path d="M 45.40625 46.390625 
L 45.40625 75.984375 
L 54.390625 75.984375 
L 54.390625 0 
L 45.40625 0 
L 45.40625 8.203125 
Q 42.578125 3.328125 38.25 0.953125 
Q 33.9375 -1.421875 27.875 -1.421875 
Q 17.96875 -1.421875 11.734375 6.484375 
Q 5.515625 14.40625 5.515625 27.296875 
Q 5.515625 40.1875 11.734375 48.09375 
Q 17.96875 56 27.875 56 
Q 33.9375 56 38.25 53.625 
Q 42.578125 51.265625 45.40625 46.390625 
z
M 14.796875 27.296875 
Q 14.796875 17.390625 18.875 11.75 
Q 22.953125 6.109375 30.078125 6.109375 
Q 37.203125 6.109375 41.296875 11.75 
Q 45.40625 17.390625 45.40625 27.296875 
Q 45.40625 37.203125 41.296875 42.84375 
Q 37.203125 48.484375 30.078125 48.484375 
Q 22.953125 48.484375 18.875 42.84375 
Q 14.796875 37.203125 14.796875 27.296875 
z
" id="DejaVuSans-100"/>
       <path d="M 9.421875 54.6875 
L 18.40625 54.6875 
L 18.40625 0 
L 9.421875 0 
z
M 9.421875 75.984375 
L 18.40625 75.984375 
L 18.40625 64.59375 
L 9.421875 64.59375 
z
" id="DejaVuSans-105"/>
       <path d="M 52 44.1875 
Q 55.375 50.25 60.0625 53.125 
Q 64.75 56 71.09375 56 
Q 79.640625 56 84.28125 50.015625 
Q 88.921875 44.046875 88.921875 33.015625 
L 88.921875 0 
L 79.890625 0 
L 79.890625 32.71875 
Q 79.890625 40.578125 77.09375 44.375 
Q 74.3125 48.1875 68.609375 48.1875 
Q 61.625 48.1875 57.5625 43.546875 
Q 53.515625 38.921875 53.515625 30.90625 
L 53.515625 0 
L 44.484375 0 
L 44.484375 32.71875 
Q 44.484375 40.625 41.703125 44.40625 
Q 38.921875 48.1875 33.109375 48.1875 
Q 26.21875 48.1875 22.15625 43.53125 
Q 18.109375 38.875 18.109375 30.90625 
L 18.109375 0 
L 9.078125 0 
L 9.078125 54.6875 
L 18.109375 54.6875 
L 18.109375 46.1875 
Q 21.1875 51.21875 25.484375 53.609375 
Q 29.78125 56 35.6875 56 
Q 41.65625 56 45.828125 52.96875 
Q 50 49.953125 52 44.1875 
z
" id="DejaVuSans-109"/>
       <path d="M 54.890625 33.015625 
L 54.890625 0 
L 45.90625 0 
L 45.90625 32.71875 
Q 45.90625 40.484375 42.875 44.328125 
Q 39.84375 48.1875 33.796875 48.1875 
Q 26.515625 48.1875 22.3125 43.546875 
Q 18.109375 38.921875 18.109375 30.90625 
L 18.109375 0 
L 9.078125 0 
L 9.078125 54.6875 
L 18.109375 54.6875 
L 18.109375 46.1875 
Q 21.34375 51.125 25.703125 53.5625 
Q 30.078125 56 35.796875 56 
Q 45.21875 56 50.046875 50.171875 
Q 54.890625 44.34375 54.890625 33.015625 
z
" id="DejaVuSans-110"/>
       <path d="M 8.015625 75.875 
L 15.828125 75.875 
Q 23.140625 64.359375 26.78125 53.3125 
Q 30.421875 42.28125 30.421875 31.390625 
Q 30.421875 20.453125 26.78125 9.375 
Q 23.140625 -1.703125 15.828125 -13.1875 
L 8.015625 -13.1875 
Q 14.5 -2 17.703125 9.0625 
Q 20.90625 20.125 20.90625 31.390625 
Q 20.90625 42.671875 17.703125 53.65625 
Q 14.5 64.65625 8.015625 75.875 
z
" id="DejaVuSans-41"/>
      </defs>
      <use xlink:href="#DejaVuSans-108"/>
      <use x="27.783203" xlink:href="#DejaVuSans-111"/>
      <use x="88.964844" xlink:href="#DejaVuSans-103"/>
      <use x="152.441406" xlink:href="#DejaVuSans-49"/>
      <use x="216.064453" xlink:href="#DejaVuSans-48"/>
      <use x="279.6875" xlink:href="#DejaVuSans-40"/>
      <use x="318.701172" xlink:href="#DejaVuSans-101"/>
      <use x="380.224609" xlink:href="#DejaVuSans-118"/>
      <use x="439.404297" xlink:href="#DejaVuSans-97"/>
      <use x="500.683594" xlink:href="#DejaVuSans-108"/>
      <use x="528.466797" xlink:href="#DejaVuSans-115"/>
      <use x="580.566406" xlink:href="#DejaVuSans-32"/>
      <use x="612.353516" xlink:href="#DejaVuSans-47"/>
      <use x="646.044922" xlink:href="#DejaVuSans-32"/>
      <use x="677.832031" xlink:href="#DejaVuSans-100"/>
      <use x="741.308594" xlink:href="#DejaVuSans-105"/>
      <use x="769.091797" xlink:href="#DejaVuSans-109"/>
      <use x="866.503906" xlink:href="#DejaVuSans-101"/>
      <use x="928.027344" xlink:href="#DejaVuSans-110"/>
      <use x="991.40625" xlink:href="#DejaVuSans-115"/>
      <use x="1043.505859" xlink:href="#DejaVuSans-105"/>
      <use x="1071.289062" xlink:href="#DejaVuSans-111"/>
      <use x="1132.470703" xlink:href="#DejaVuSans-110"/>
      <use x="1195.849609" xlink:href="#DejaVuSans-41"/>
     </g>
    </g>
   </g>
   <g id="matplotlib.axis_2">
    <g id="ytick_1">
     <g id="line2d_17">
      <path clip-path="url(#p43c49669b1)" d="M 57.6 298.944 
L 360.8064 298.944 
" style="fill:none;stroke:#b0b0b0;stroke-linecap:square;stroke-width:0.8;"/>
     </g>
     <g id="line2d_18">
      <defs>
       <path d="M 0 0 
L -3.5 0 
" id="m7ac65e0028" style="stroke:#000000;stroke-width:0.8;"/>
      </defs>
      <g>
       <use style="stroke:#000000;stroke-width:0.8;" x="57.6" xlink:href="#m7ac65e0028" y="298.944"/>
      </g>
     </g>
     <g id="text_6">
      <!-- 0.0 -->
      <g transform="translate(25.155 305.02275)scale(0.16 -0.16)">
       <defs>
        <path d="M 10.6875 12.40625 
L 21 12.40625 
L 21 0 
L 10.6875 0 
z
" id="DejaVuSans-46"/>
       </defs>
       <use xlink:href="#DejaVuSans-48"/>
       <use x="63.623047" xlink:href="#DejaVuSans-46"/>
       <use x="95.410156" xlink:href="#DejaVuSans-48"/>
      </g>
     </g>
    </g>
    <g id="ytick_2">
     <g id="line2d_19">
      <path clip-path="url(#p43c49669b1)" d="M 57.6 240.5376 
L 360.8064 240.5376 
" style="fill:none;stroke:#b0b0b0;stroke-linecap:square;stroke-width:0.8;"/>
     </g>
     <g id="line2d_20">
      <g>
       <use style="stroke:#000000;stroke-width:0.8;" x="57.6" xlink:href="#m7ac65e0028" y="240.5376"/>
      </g>
     </g>
     <g id="text_7">
      <!-- 0.2 -->
      <g transform="translate(25.155 246.61635)scale(0.16 -0.16)">
       <use xlink:href="#DejaVuSans-48"/>
       <use x="63.623047" xlink:href="#DejaVuSans-46"/>
       <use x="95.410156" xlink:href="#DejaVuSans-50"/>
      </g>
     </g>
    </g>
    <g id="ytick_3">
     <g id="line2d_21">
      <path clip-path="url(#p43c49669b1)" d="M 57.6 182.1312 
L 360.8064 182.1312 
" style="fill:none;stroke:#b0b0b0;stroke-linecap:square;stroke-width:0.8;"/>
     </g>
     <g id="line2d_22">
      <g>
       <use style="stroke:#000000;stroke-width:0.8;" x="57.6" xlink:href="#m7ac65e0028" y="182.1312"/>
      </g>
     </g>
     <g id="text_8">
      <!-- 0.4 -->
      <g transform="translate(25.155 188.20995)scale(0.16 -0.16)">
       <use xlink:href="#DejaVuSans-48"/>
       <use x="63.623047" xlink:href="#DejaVuSans-46"/>
       <use x="95.410156" xlink:href="#DejaVuSans-52"/>
      </g>
     </g>
    </g>
    <g id="ytick_4">
     <g id="line2d_23">
      <path clip-path="url(#p43c49669b1)" d="M 57.6 123.7248 
L 360.8064 123.7248 
" style="fill:none;stroke:#b0b0b0;stroke-linecap:square;stroke-width:0.8;"/>
     </g>
     <g id="line2d_24">
      <g>
       <use style="stroke:#000000;stroke-width:0.8;" x="57.6" xlink:href="#m7ac65e0028" y="123.7248"/>
      </g>
     </g>
     <g id="text_9">
      <!-- 0.6 -->
      <g transform="translate(25.155 129.80355)scale(0.16 -0.16)">
       <use xlink:href="#DejaVuSans-48"/>
       <use x="63.623047" xlink:href="#DejaVuSans-46"/>
       <use x="95.410156" xlink:href="#DejaVuSans-54"/>
      </g>
     </g>
    </g>
    <g id="ytick_5">
     <g id="line2d_25">
      <path clip-path="url(#p43c49669b1)" d="M 57.6 65.3184 
L 360.8064 65.3184 
" style="fill:none;stroke:#b0b0b0;stroke-linecap:square;stroke-width:0.8;"/>
     </g>
     <g id="line2d_26">
      <g>
       <use style="stroke:#000000;stroke-width:0.8;" x="57.6" xlink:href="#m7ac65e0028" y="65.3184"/>
      </g>
     </g>
     <g id="text_10">
      <!-- 0.8 -->
      <g transform="translate(25.155 71.39715)scale(0.16 -0.16)">
       <defs>
        <path d="M 31.78125 34.625 
Q 24.75 34.625 20.71875 30.859375 
Q 16.703125 27.09375 16.703125 20.515625 
Q 16.703125 13.921875 20.71875 10.15625 
Q 24.75 6.390625 31.78125 6.390625 
Q 38.8125 6.390625 42.859375 10.171875 
Q 46.921875 13.96875 46.921875 20.515625 
Q 46.921875 27.09375 42.890625 30.859375 
Q 38.875 34.625 31.78125 34.625 
z
M 21.921875 38.8125 
Q 15.578125 40.375 12.03125 44.71875 
Q 8.5 49.078125 8.5 55.328125 
Q 8.5 64.0625 14.71875 69.140625 
Q 20.953125 74.21875 31.78125 74.21875 
Q 42.671875 74.21875 48.875 69.140625 
Q 55.078125 64.0625 55.078125 55.328125 
Q 55.078125 49.078125 51.53125 44.71875 
Q 48 40.375 41.703125 38.8125 
Q 48.828125 37.15625 52.796875 32.3125 
Q 56.78125 27.484375 56.78125 20.515625 
Q 56.78125 9.90625 50.3125 4.234375 
Q 43.84375 -1.421875 31.78125 -1.421875 
Q 19.734375 -1.421875 13.25 4.234375 
Q 6.78125 9.90625 6.78125 20.515625 
Q 6.78125 27.484375 10.78125 32.3125 
Q 14.796875 37.15625 21.921875 38.8125 
z
M 18.3125 54.390625 
Q 18.3125 48.734375 21.84375 45.5625 
Q 25.390625 42.390625 31.78125 42.390625 
Q 38.140625 42.390625 41.71875 45.5625 
Q 45.3125 48.734375 45.3125 54.390625 
Q 45.3125 60.0625 41.71875 63.234375 
Q 38.140625 66.40625 31.78125 66.40625 
Q 25.390625 66.40625 21.84375 63.234375 
Q 18.3125 60.0625 18.3125 54.390625 
z
" id="DejaVuSans-56"/>
       </defs>
       <use xlink:href="#DejaVuSans-48"/>
       <use x="63.623047" xlink:href="#DejaVuSans-46"/>
       <use x="95.410156" xlink:href="#DejaVuSans-56"/>
      </g>
     </g>
    </g>
    <g id="ytick_6">
     <g id="line2d_27">
      <path clip-path="url(#p43c49669b1)" d="M 57.6 6.912 
L 360.8064 6.912 
" style="fill:none;stroke:#b0b0b0;stroke-linecap:square;stroke-width:0.8;"/>
     </g>
     <g id="line2d_28">
      <g>
       <use style="stroke:#000000;stroke-width:0.8;" x="57.6" xlink:href="#m7ac65e0028" y="6.912"/>
      </g>
     </g>
     <g id="text_11">
      <!-- 1.0 -->
      <g transform="translate(25.155 12.99075)scale(0.16 -0.16)">
       <use xlink:href="#DejaVuSans-49"/>
       <use x="63.623047" xlink:href="#DejaVuSans-46"/>
       <use x="95.410156" xlink:href="#DejaVuSans-48"/>
      </g>
     </g>
    </g>
    <g id="text_12">
     <!-- Fraction of function,target pairs -->
     <g transform="translate(17.619531 287.313)rotate(-90)scale(0.17 -0.17)">
      <defs>
       <path d="M 9.8125 72.90625 
L 51.703125 72.90625 
L 51.703125 64.59375 
L 19.671875 64.59375 
L 19.671875 43.109375 
L 48.578125 43.109375 
L 48.578125 34.8125 
L 19.671875 34.8125 
L 19.671875 0 
L 9.8125 0 
z
" id="DejaVuSans-70"/>
       <path d="M 41.109375 46.296875 
Q 39.59375 47.171875 37.8125 47.578125 
Q 36.03125 48 33.890625 48 
Q 26.265625 48 22.1875 43.046875 
Q 18.109375 38.09375 18.109375 28.8125 
L 18.109375 0 
L 9.078125 0 
L 9.078125 54.6875 
L 18.109375 54.6875 
L 18.109375 46.1875 
Q 20.953125 51.171875 25.484375 53.578125 
Q 30.03125 56 36.53125 56 
Q 37.453125 56 38.578125 55.875 
Q 39.703125 55.765625 41.0625 55.515625 
z
" id="DejaVuSans-114"/>
       <path d="M 48.78125 52.59375 
L 48.78125 44.1875 
Q 44.96875 46.296875 41.140625 47.34375 
Q 37.3125 48.390625 33.40625 48.390625 
Q 24.65625 48.390625 19.8125 42.84375 
Q 14.984375 37.3125 14.984375 27.296875 
Q 14.984375 17.28125 19.8125 11.734375 
Q 24.65625 6.203125 33.40625 6.203125 
Q 37.3125 6.203125 41.140625 7.25 
Q 44.96875 8.296875 48.78125 10.40625 
L 48.78125 2.09375 
Q 45.015625 0.34375 40.984375 -0.53125 
Q 36.96875 -1.421875 32.421875 -1.421875 
Q 20.0625 -1.421875 12.78125 6.34375 
Q 5.515625 14.109375 5.515625 27.296875 
Q 5.515625 40.671875 12.859375 48.328125 
Q 20.21875 56 33.015625 56 
Q 37.15625 56 41.109375 55.140625 
Q 45.0625 54.296875 48.78125 52.59375 
z
" id="DejaVuSans-99"/>
       <path d="M 18.3125 70.21875 
L 18.3125 54.6875 
L 36.8125 54.6875 
L 36.8125 47.703125 
L 18.3125 47.703125 
L 18.3125 18.015625 
Q 18.3125 11.328125 20.140625 9.421875 
Q 21.96875 7.515625 27.59375 7.515625 
L 36.8125 7.515625 
L 36.8125 0 
L 27.59375 0 
Q 17.1875 0 13.234375 3.875 
Q 9.28125 7.765625 9.28125 18.015625 
L 9.28125 47.703125 
L 2.6875 47.703125 
L 2.6875 54.6875 
L 9.28125 54.6875 
L 9.28125 70.21875 
z
" id="DejaVuSans-116"/>
       <path d="M 37.109375 75.984375 
L 37.109375 68.5 
L 28.515625 68.5 
Q 23.6875 68.5 21.796875 66.546875 
Q 19.921875 64.59375 19.921875 59.515625 
L 19.921875 54.6875 
L 34.71875 54.6875 
L 34.71875 47.703125 
L 19.921875 47.703125 
L 19.921875 0 
L 10.890625 0 
L 10.890625 47.703125 
L 2.296875 47.703125 
L 2.296875 54.6875 
L 10.890625 54.6875 
L 10.890625 58.5 
Q 10.890625 67.625 15.140625 71.796875 
Q 19.390625 75.984375 28.609375 75.984375 
z
" id="DejaVuSans-102"/>
       <path d="M 8.5 21.578125 
L 8.5 54.6875 
L 17.484375 54.6875 
L 17.484375 21.921875 
Q 17.484375 14.15625 20.5 10.265625 
Q 23.53125 6.390625 29.59375 6.390625 
Q 36.859375 6.390625 41.078125 11.03125 
Q 45.3125 15.671875 45.3125 23.6875 
L 45.3125 54.6875 
L 54.296875 54.6875 
L 54.296875 0 
L 45.3125 0 
L 45.3125 8.40625 
Q 42.046875 3.421875 37.71875 1 
Q 33.40625 -1.421875 27.6875 -1.421875 
Q 18.265625 -1.421875 13.375 4.4375 
Q 8.5 10.296875 8.5 21.578125 
z
M 31.109375 56 
z
" id="DejaVuSans-117"/>
       <path d="M 11.71875 12.40625 
L 22.015625 12.40625 
L 22.015625 4 
L 14.015625 -11.625 
L 7.71875 -11.625 
L 11.71875 4 
z
" id="DejaVuSans-44"/>
       <path d="M 18.109375 8.203125 
L 18.109375 -20.796875 
L 9.078125 -20.796875 
L 9.078125 54.6875 
L 18.109375 54.6875 
L 18.109375 46.390625 
Q 20.953125 51.265625 25.265625 53.625 
Q 29.59375 56 35.59375 56 
Q 45.5625 56 51.78125 48.09375 
Q 58.015625 40.1875 58.015625 27.296875 
Q 58.015625 14.40625 51.78125 6.484375 
Q 45.5625 -1.421875 35.59375 -1.421875 
Q 29.59375 -1.421875 25.265625 0.953125 
Q 20.953125 3.328125 18.109375 8.203125 
z
M 48.6875 27.296875 
Q 48.6875 37.203125 44.609375 42.84375 
Q 40.53125 48.484375 33.40625 48.484375 
Q 26.265625 48.484375 22.1875 42.84375 
Q 18.109375 37.203125 18.109375 27.296875 
Q 18.109375 17.390625 22.1875 11.75 
Q 26.265625 6.109375 33.40625 6.109375 
Q 40.53125 6.109375 44.609375 11.75 
Q 48.6875 17.390625 48.6875 27.296875 
z
" id="DejaVuSans-112"/>
      </defs>
      <use xlink:href="#DejaVuSans-70"/>
      <use x="50.269531" xlink:href="#DejaVuSans-114"/>
      <use x="91.382812" xlink:href="#DejaVuSans-97"/>
      <use x="152.662109" xlink:href="#DejaVuSans-99"/>
      <use x="207.642578" xlink:href="#DejaVuSans-116"/>
      <use x="246.851562" xlink:href="#DejaVuSans-105"/>
      <use x="274.634766" xlink:href="#DejaVuSans-111"/>
      <use x="335.816406" xlink:href="#DejaVuSans-110"/>
      <use x="399.195312" xlink:href="#DejaVuSans-32"/>
      <use x="430.982422" xlink:href="#DejaVuSans-111"/>
      <use x="492.164062" xlink:href="#DejaVuSans-102"/>
      <use x="527.369141" xlink:href="#DejaVuSans-32"/>
      <use x="559.15625" xlink:href="#DejaVuSans-102"/>
      <use x="594.361328" xlink:href="#DejaVuSans-117"/>
      <use x="657.740234" xlink:href="#DejaVuSans-110"/>
      <use x="721.119141" xlink:href="#DejaVuSans-99"/>
      <use x="776.099609" xlink:href="#DejaVuSans-116"/>
      <use x="815.308594" xlink:href="#DejaVuSans-105"/>
      <use x="843.091797" xlink:href="#DejaVuSans-111"/>
      <use x="904.273438" xlink:href="#DejaVuSans-110"/>
      <use x="967.652344" xlink:href="#DejaVuSans-44"/>
      <use x="999.439453" xlink:href="#DejaVuSans-116"/>
      <use x="1038.648438" xlink:href="#DejaVuSans-97"/>
      <use x="1099.927734" xlink:href="#DejaVuSans-114"/>
      <use x="1139.291016" xlink:href="#DejaVuSans-103"/>
      <use x="1202.767578" xlink:href="#DejaVuSans-101"/>
      <use x="1264.291016" xlink:href="#DejaVuSans-116"/>
      <use x="1303.5" xlink:href="#DejaVuSans-32"/>
      <use x="1335.287109" xlink:href="#DejaVuSans-112"/>
      <use x="1398.763672" xlink:href="#DejaVuSans-97"/>
      <use x="1460.042969" xlink:href="#DejaVuSans-105"/>
      <use x="1487.826172" xlink:href="#DejaVuSans-114"/>
      <use x="1528.939453" xlink:href="#DejaVuSans-115"/>
     </g>
    </g>
   </g>
   <g id="line2d_29">
    <defs>
     <path d="M 0 1.5 
C 0.397805 1.5 0.77937 1.341951 1.06066 1.06066 
C 1.341951 0.77937 1.5 0.397805 1.5 0 
C 1.5 -0.397805 1.341951 -0.77937 1.06066 -1.06066 
C 0.77937 -1.341951 0.397805 -1.5 0 -1.5 
C -0.397805 -1.5 -0.77937 -1.341951 -1.06066 -1.06066 
C -1.341951 -0.77937 -1.5 -0.397805 -1.5 0 
C -1.5 0.397805 -1.341951 0.77937 -1.06066 1.06066 
C -0.77937 1.341951 -0.397805 1.5 0 1.5 
z
" id="mdd09939a2c" style="stroke:#000080;"/>
    </defs>
    <g>
     <use style="fill:#000080;stroke:#000080;" x="298.073894" xlink:href="#mdd09939a2c" y="21.157463"/>
     <use style="fill:#000080;stroke:#000080;" x="298.073894" xlink:href="#mdd09939a2c" y="21.157463"/>
    </g>
   </g>
   <g id="line2d_30">
    <path d="M 76.050921 298.944 
L 76.050921 298.706576 
L 83.678349 298.706576 
L 83.678349 291.583844 
L 86.578163 291.583844 
L 86.578163 284.698537 
L 89.090095 284.698537 
L 89.090095 283.867551 
L 91.305777 283.867551 
L 91.305777 280.899746 
L 93.287772 280.899746 
L 93.287772 276.626107 
L 95.080704 276.626107 
L 95.080704 270.571785 
L 96.717523 270.571785 
L 96.717523 268.078829 
L 98.223251 268.078829 
L 98.223251 264.161327 
L 99.617337 264.161327 
L 99.617337 261.07481 
L 100.9152 261.07481 
L 100.9152 255.732761 
L 102.12927 255.732761 
L 102.12927 251.696546 
L 103.269713 251.696546 
L 103.269713 247.779044 
L 104.344952 247.779044 
L 104.344952 242.318283 
L 105.36204 242.318283 
L 105.36204 237.688507 
L 106.326946 237.688507 
L 106.326946 230.328351 
L 107.244765 230.328351 
L 107.244765 220.00039 
L 108.119879 220.00039 
L 108.119879 214.658341 
L 108.956085 214.658341 
L 108.956085 208.010459 
L 109.756698 208.010459 
L 109.756698 202.074849 
L 110.524623 202.074849 
L 110.524623 195.545678 
L 111.262425 195.545678 
L 111.262425 189.847493 
L 111.97238 189.847493 
L 111.97238 184.030595 
L 112.656511 184.030595 
L 112.656511 178.688546 
L 113.316634 178.688546 
L 113.316634 172.040663 
L 113.954374 172.040663 
L 113.954374 168.954146 
L 114.571202 168.954146 
L 114.571202 164.205659 
L 115.168444 164.205659 
L 115.168444 158.151337 
L 115.747307 158.151337 
L 115.747307 155.65838 
L 116.308887 155.65838 
L 116.308887 151.622166 
L 116.854188 151.622166 
L 116.854188 145.449132 
L 117.384126 145.449132 
L 117.384126 142.362615 
L 117.899543 142.362615 
L 117.899543 138.919961 
L 118.401214 138.919961 
L 118.401214 136.18958 
L 118.889854 136.18958 
L 118.889854 132.272078 
L 119.366121 132.272078 
L 119.366121 130.253971 
L 119.830627 130.253971 
L 119.830627 127.167454 
L 120.28394 127.167454 
L 120.28394 124.318361 
L 120.726585 124.318361 
L 120.726585 121.944117 
L 121.159053 121.944117 
L 121.159053 119.807298 
L 121.581803 119.807298 
L 121.581803 118.738888 
L 121.99526 118.738888 
L 121.99526 117.076917 
L 122.399825 117.076917 
L 122.399825 115.177522 
L 122.795872 115.177522 
L 122.795872 113.159415 
L 123.183753 113.159415 
L 123.183753 111.85358 
L 123.563797 111.85358 
L 123.563797 110.072898 
L 123.936316 110.072898 
L 123.936316 109.479337 
L 124.3016 109.479337 
L 124.3016 108.410927 
L 124.659926 108.410927 
L 124.659926 108.05479 
L 125.011554 108.05479 
L 125.011554 107.936078 
L 125.35673 107.936078 
L 125.35673 107.817366 
L 125.695686 107.817366 
L 125.695686 107.223805 
L 126.028642 107.223805 
L 126.028642 106.98638 
L 126.677381 106.98638 
L 126.677381 106.867668 
L 126.993549 106.867668 
L 126.993549 106.748956 
L 127.610376 106.748956 
L 127.610376 106.630244 
L 128.207619 106.630244 
L 128.207619 106.511532 
L 128.499277 106.511532 
L 128.499277 106.274107 
L 128.786481 106.274107 
L 128.786481 106.155395 
L 129.069367 106.155395 
L 129.069367 106.036683 
L 129.622688 106.036683 
L 129.622688 105.917971 
L 129.893363 105.917971 
L 129.893363 105.799259 
L 130.682774 105.799259 
L 130.682774 105.443122 
L 131.686295 105.443122 
L 131.686295 105.32441 
L 132.405295 105.32441 
L 132.405295 105.086985 
L 132.638982 105.086985 
L 132.638982 104.968273 
L 132.869802 104.968273 
L 132.869802 104.730849 
L 133.323114 104.730849 
L 133.323114 104.493424 
L 133.765759 104.493424 
L 133.765759 104.374712 
L 134.198228 104.374712 
L 134.198228 104.137288 
L 134.41079 104.137288 
L 134.41079 104.018576 
L 134.828842 104.018576 
L 134.828842 103.899863 
L 135.835047 103.899863 
L 135.835047 103.781151 
L 136.790153 103.781151 
L 136.790153 103.662439 
L 137.159019 103.662439 
L 137.159019 103.543727 
L 137.699101 103.543727 
L 137.699101 103.425015 
L 141.246793 103.425015 
L 141.246793 103.306302 
L 143.066428 103.306302 
L 143.066428 103.18759 
L 144.2304 103.18759 
L 144.2304 103.068878 
L 144.355394 103.068878 
L 144.355394 102.950166 
L 144.479563 102.950166 
L 144.479563 102.831454 
L 147.764371 102.831454 
L 147.868016 102.594029 
L 149.069161 102.594029 
L 149.069161 102.475317 
L 151.176793 102.475317 
L 151.176793 102.356605 
L 151.520392 102.356605 
L 151.520392 102.237893 
L 152.271285 102.237893 
L 152.271285 102.11918 
L 155.217778 102.11918 
L 155.217778 102.000468 
L 158.306454 102.000468 
L 158.306454 101.881756 
L 158.483644 101.881756 
L 158.483644 101.763044 
L 158.717331 101.763044 
L 158.717331 101.644332 
L 159.119425 101.644332 
L 159.119425 101.52562 
L 160.276577 101.52562 
L 160.276577 101.406907 
L 164.172572 101.406907 
L 164.172572 101.288195 
L 165.146166 101.288195 
L 165.146166 101.169483 
L 166.878997 101.169483 
L 166.878997 101.050771 
L 168.081306 101.050771 
L 168.081306 100.932059 
L 168.465585 100.932059 
L 168.465585 100.813346 
L 169.376816 100.813346 
L 169.376816 100.694634 
L 170.526947 100.694634 
L 170.526947 100.575922 
L 170.895211 100.575922 
L 170.895211 100.45721 
L 171.046551 100.45721 
L 171.046551 100.338498 
L 172.328329 100.338498 
L 172.328329 100.219785 
L 173.262233 100.219785 
L 173.262233 100.101073 
L 173.475398 100.101073 
L 173.475398 99.982361 
L 173.84272 99.982361 
L 173.84272 99.863649 
L 174.755589 99.863649 
L 174.755589 99.744937 
L 176.230828 99.744937 
L 176.276542 99.507512 
L 176.548521 99.507512 
L 176.548521 99.3888 
L 177.320046 99.3888 
L 177.320046 99.270088 
L 177.683669 99.270088 
L 177.683669 99.151376 
L 178.18534 99.151376 
L 178.18534 98.913951 
L 179.30636 98.913951 
L 179.30636 98.795239 
L 179.441905 98.795239 
L 179.538128 98.557815 
L 180.501594 98.557815 
L 180.6107 97.25198 
L 180.628823 97.25198 
L 180.737195 94.759024 
L 180.755196 94.759024 
L 180.862845 91.909932 
L 180.916439 91.909932 
L 181.023172 91.078946 
L 181.076312 91.078946 
L 181.076312 90.960234 
L 181.357217 90.960234 
L 181.357217 90.841522 
L 183.150942 90.841522 
L 183.150942 90.72281 
L 186.079022 90.72281 
L 186.079022 90.604098 
L 189.321423 90.604098 
L 189.321423 90.485385 
L 191.363232 90.485385 
L 191.363232 90.366673 
L 192.773034 90.366673 
L 192.773034 90.247961 
L 193.204963 90.247961 
L 193.306797 89.060839 
L 193.325253 89.060839 
L 193.435612 84.193639 
L 193.44478 84.193639 
L 193.536209 83.006517 
L 198.040566 83.006517 
L 198.040566 82.887805 
L 198.515487 82.887805 
L 198.515487 82.769093 
L 199.800513 82.769093 
L 199.800513 82.65038 
L 200.728446 82.65038 
L 200.833938 82.175532 
L 200.840125 82.175532 
L 200.908048 81.344546 
L 200.975726 81.344546 
L 200.975726 81.225834 
L 201.292406 81.225834 
L 201.292406 80.98841 
L 201.734068 80.98841 
L 201.734068 80.869698 
L 201.851677 80.869698 
L 201.851677 80.750985 
L 201.997663 80.750985 
L 201.997663 80.632273 
L 202.451667 80.632273 
L 202.536647 80.394849 
L 202.598722 80.394849 
L 202.598722 80.276137 
L 202.750225 80.276137 
L 202.772567 80.038712 
L 202.917143 80.038712 
L 202.917143 79.92 
L 203.077102 79.92 
L 203.077102 79.801288 
L 203.322651 79.801288 
L 203.398395 79.207727 
L 203.655798 79.207727 
L 203.655798 79.089015 
L 203.893955 79.089015 
L 203.893955 78.970302 
L 204.191357 78.970302 
L 204.191357 78.85159 
L 205.213893 78.85159 
L 205.213893 78.732878 
L 205.481626 78.732878 
L 205.481626 78.614166 
L 205.883312 78.614166 
L 205.883312 78.495454 
L 206.211619 78.495454 
L 206.299751 75.0528 
L 206.332117 75.0528 
L 206.332117 74.934088 
L 206.729801 74.934088 
L 206.729801 74.815376 
L 207.172341 74.815376 
L 207.172341 74.696663 
L 207.690862 74.696663 
L 207.690862 74.577951 
L 209.902246 74.577951 
L 209.902246 74.459239 
L 210.368336 74.459239 
L 210.472422 71.847571 
L 210.502055 71.847571 
L 210.55011 69.948176 
L 210.893977 69.948176 
L 210.893977 69.829463 
L 211.292101 69.829463 
L 211.292101 69.710751 
L 211.782514 69.710751 
L 211.782514 69.592039 
L 212.461644 69.592039 
L 212.461644 69.473327 
L 213.213487 69.473327 
L 213.213487 69.354615 
L 213.769176 69.354615 
L 213.874659 67.930068 
L 213.899393 67.930068 
L 213.899393 67.811356 
L 215.896675 67.811356 
L 215.896675 67.692644 
L 216.103914 67.692644 
L 216.103914 67.573932 
L 216.689646 67.573932 
L 216.777345 66.030673 
L 217.418533 66.030673 
L 217.418533 65.911961 
L 218.221174 65.911961 
L 218.221174 65.793249 
L 218.590755 65.793249 
L 218.590755 65.674537 
L 219.201911 65.674537 
L 219.26009 64.724839 
L 219.856969 64.724839 
L 219.856969 64.606127 
L 221.423031 64.606127 
L 221.443731 62.825444 
L 223.380466 62.825444 
L 223.423347 61.757034 
L 223.616031 61.757034 
L 223.616031 61.638322 
L 224.298418 61.638322 
L 224.298418 61.51961 
L 225.191461 61.51961 
L 225.216872 61.044761 
L 226.83167 61.044761 
L 226.848752 59.145366 
L 228.178978 59.145366 
L 228.178978 59.026654 
L 228.329508 59.026654 
L 228.330943 58.433093 
L 228.451067 58.433093 
L 228.451067 58.31438 
L 229.750783 58.31438 
L 229.754774 57.839532 
L 231.000115 57.839532 
L 231.006339 57.245971 
L 231.396746 57.245971 
L 231.396746 57.127259 
L 231.963435 57.127259 
L 232.067226 56.889834 
L 232.216597 56.889834 
L 232.234092 55.940137 
L 233.344337 55.940137 
L 233.373987 54.159454 
L 234.047574 54.159454 
L 234.047574 54.040741 
L 234.418141 54.040741 
L 234.494798 53.684605 
L 234.858263 53.684605 
L 234.921028 52.972332 
L 235.023831 52.972332 
L 235.023831 52.85362 
L 235.445252 52.85362 
L 235.459007 52.616195 
L 235.640805 52.616195 
L 235.640805 52.497483 
L 236.405636 52.497483 
L 236.432701 49.410966 
L 236.525731 49.410966 
L 236.525731 49.292254 
L 237.049649 49.292254 
L 237.147318 49.054829 
L 237.33137 49.054829 
L 237.334037 48.461268 
L 238.210706 48.461268 
L 238.215797 47.98642 
L 238.68989 47.98642 
L 238.786008 47.630283 
L 239.030065 47.630283 
L 239.030065 47.511571 
L 239.830406 47.511571 
L 239.83819 47.155434 
L 240.241215 47.155434 
L 240.241215 47.036722 
L 240.594719 47.036722 
L 240.597709 46.561873 
L 241.347508 46.561873 
L 241.347508 46.443161 
L 242.049548 46.443161 
L 242.056465 45.730888 
L 242.731999 45.730888 
L 242.787962 44.78119 
L 243.406335 44.78119 
L 243.406335 44.662478 
L 244.023723 44.662478 
L 244.023723 44.425054 
L 244.95702 44.425054 
L 244.95702 44.306341 
L 245.23972 44.306341 
L 245.243223 43.594068 
L 245.821298 43.594068 
L 245.821298 43.475356 
L 246.051448 43.475356 
L 246.141835 42.763083 
L 246.375267 42.763083 
L 246.375267 42.644371 
L 246.919531 42.644371 
L 246.934479 41.575961 
L 247.972831 41.575961 
L 247.974851 40.744976 
L 248.463283 40.744976 
L 248.464759 40.388839 
L 248.958291 40.388839 
L 248.958291 40.151415 
L 249.105549 40.151415 
L 249.105549 40.032702 
L 250.354979 40.032702 
L 250.354979 39.91399 
L 251.235239 39.91399 
L 251.235239 39.795278 
L 251.929406 39.795278 
L 251.937179 39.557854 
L 252.059895 39.557854 
L 252.064364 39.201717 
L 252.184843 39.201717 
L 252.184843 39.083005 
L 252.463526 39.083005 
L 252.465913 38.726868 
L 253.08265 38.726868 
L 253.08265 38.608156 
L 253.626791 38.608156 
L 253.634267 37.658459 
L 253.821511 37.658459 
L 253.924286 36.946185 
L 254.004345 36.946185 
L 254.004345 36.827473 
L 254.364946 36.827473 
L 254.3689 36.352624 
L 254.613333 36.352624 
L 254.717882 36.1152 
L 254.817817 36.1152 
L 254.817817 35.877776 
L 255.071417 35.877776 
L 255.071417 35.759063 
L 255.549355 35.759063 
L 255.549355 35.640351 
L 256.093499 35.640351 
L 256.093499 35.521639 
L 256.295082 35.521639 
L 256.295082 35.402927 
L 256.416842 35.402927 
L 256.4439 35.165502 
L 257.056978 35.165502 
L 257.056978 35.04679 
L 257.364922 35.04679 
L 257.364922 34.928078 
L 257.670167 34.928078 
L 257.671977 34.453229 
L 258.093161 34.453229 
L 258.111434 33.97838 
L 258.267796 33.97838 
L 258.267796 33.859668 
L 258.558128 33.859668 
L 258.647238 33.503532 
L 258.75857 33.503532 
L 258.849854 33.028683 
L 259.131127 33.028683 
L 259.132801 32.553834 
L 259.325034 32.553834 
L 259.404544 32.31641 
L 260.484808 32.31641 
L 260.484808 32.197698 
L 261.743698 32.197698 
L 261.745156 31.960273 
L 262.085553 31.960273 
L 262.124148 31.722849 
L 262.466699 31.722849 
L 262.467401 31.248 
L 262.629004 31.248 
L 262.629004 31.129288 
L 262.92896 31.129288 
L 262.929872 30.417015 
L 265.376393 30.417015 
L 265.376393 30.298302 
L 265.697674 30.298302 
L 265.697674 30.060878 
L 265.893471 30.060878 
L 265.893471 29.942166 
L 266.085998 29.942166 
L 266.087348 29.704741 
L 266.276098 29.704741 
L 266.276098 29.586029 
L 266.46968 29.586029 
L 266.46968 29.467317 
L 267.931421 29.467317 
L 267.931421 29.348605 
L 268.18739 29.348605 
L 268.18739 29.229893 
L 268.453866 29.229893 
L 268.453866 29.11118 
L 268.571391 29.11118 
L 268.623099 28.636332 
L 268.688857 28.636332 
L 268.791573 28.280195 
L 268.907345 28.280195 
L 268.907345 28.161483 
L 269.661837 28.161483 
L 269.710954 27.924059 
L 270.857359 27.924059 
L 270.961272 27.330498 
L 271.006374 27.330498 
L 271.006374 27.093073 
L 271.154291 27.093073 
L 271.257313 26.855649 
L 272.792957 26.855649 
L 272.792957 26.736937 
L 273.080944 26.736937 
L 273.173168 26.143376 
L 273.345789 26.143376 
L 273.345789 26.024663 
L 274.030717 26.024663 
L 274.030717 25.905951 
L 274.532835 25.905951 
L 274.532835 25.787239 
L 274.706095 25.787239 
L 274.706095 25.668527 
L 274.902162 25.668527 
L 274.902162 25.549815 
L 275.069378 25.549815 
L 275.142487 25.193678 
L 275.224685 25.193678 
L 275.224685 25.074966 
L 276.791721 25.074966 
L 276.858662 24.718829 
L 277.920342 24.718829 
L 277.920342 24.600117 
L 278.369412 24.600117 
L 278.369412 24.481405 
L 278.500215 24.481405 
L 278.500215 24.362693 
L 279.409797 24.362693 
L 279.409797 24.24398 
L 279.558896 24.24398 
L 279.558896 24.125268 
L 279.945874 24.125268 
L 279.945874 24.006556 
L 280.789923 24.006556 
L 280.789923 23.887844 
L 280.915371 23.887844 
L 280.915371 23.769132 
L 282.404957 23.769132 
L 282.404957 23.65042 
L 282.941786 23.65042 
L 282.941786 23.531707 
L 283.588188 23.531707 
L 283.588188 23.412995 
L 284.679614 23.412995 
L 284.729381 23.175571 
L 285.820249 23.175571 
L 285.820249 23.056859 
L 286.228044 23.056859 
L 286.228044 22.938146 
L 286.811921 22.938146 
L 286.811921 22.819434 
L 287.716992 22.819434 
L 287.716992 22.700722 
L 288.443553 22.700722 
L 288.534763 22.344585 
L 289.452108 22.344585 
L 289.452108 22.107161 
L 289.585007 22.107161 
L 289.585007 21.988449 
L 290.273571 21.988449 
L 290.273571 21.869737 
L 294.051039 21.869737 
L 294.051039 21.751024 
L 294.69753 21.751024 
L 294.69753 21.632312 
L 295.847905 21.632312 
L 295.926975 21.394888 
L 297.969803 21.394888 
L 298.073894 21.157463 
L 360.8064 21.157463 
L 360.8064 21.157463 
" style="fill:none;stroke:#000080;stroke-linecap:square;stroke-width:1.5;"/>
   </g>
   <g id="line2d_31">
    <defs>
     <path d="M 0 6 
C 1.591219 6 3.117479 5.367802 4.242641 4.242641 
C 5.367802 3.117479 6 1.591219 6 0 
C 6 -1.591219 5.367802 -3.117479 4.242641 -4.242641 
C 3.117479 -5.367802 1.591219 -6 0 -6 
C -1.591219 -6 -3.117479 -5.367802 -4.242641 -4.242641 
C -5.367802 -3.117479 -6 -1.591219 -6 0 
C -6 1.591219 -5.367802 3.117479 -4.242641 4.242641 
C -3.117479 5.367802 -1.591219 6 0 6 
z
" id="m48fa4995ad" style="stroke:#000080;stroke-width:1.5;"/>
    </defs>
    <g>
     <use style="fill-opacity:0;stroke:#000080;stroke-width:1.5;" x="112.656511" xlink:href="#m48fa4995ad" y="184.030595"/>
     <use style="fill-opacity:0;stroke:#000080;stroke-width:1.5;" x="155.217778" xlink:href="#m48fa4995ad" y="102.11918"/>
     <use style="fill-opacity:0;stroke:#000080;stroke-width:1.5;" x="265.697674" xlink:href="#m48fa4995ad" y="30.060878"/>
     <use style="fill-opacity:0;stroke:#000080;stroke-width:1.5;" x="298.073894" xlink:href="#m48fa4995ad" y="21.157463"/>
     <use style="fill-opacity:0;stroke:#000080;stroke-width:1.5;" x="360.8064" xlink:href="#m48fa4995ad" y="21.157463"/>
    </g>
   </g>
   <g id="line2d_32">
    <path style="fill:none;stroke:#000080;stroke-linecap:square;stroke-width:1.5;"/>
    <g/>
   </g>
   <g id="line2d_33">
    <path clip-path="url(#p43c49669b1)" d="M 230.962733 57.839532 
" style="fill:none;stroke:#000080;stroke-linecap:square;stroke-width:1.5;"/>
    <defs>
     <path d="M -12 12 
L 12 -12 
M -12 -12 
L 12 12 
" id="mf168a4548b" style="stroke:#000080;"/>
    </defs>
    <g clip-path="url(#p43c49669b1)">
     <use style="fill:#000080;stroke:#000080;" x="230.962733" xlink:href="#mf168a4548b" y="57.839532"/>
    </g>
   </g>
   <g id="line2d_34">
    <defs>
     <path d="M 0 1.5 
C 0.397805 1.5 0.77937 1.341951 1.06066 1.06066 
C 1.341951 0.77937 1.5 0.397805 1.5 0 
C 1.5 -0.397805 1.341951 -0.77937 1.06066 -1.06066 
C 0.77937 -1.341951 0.397805 -1.5 0 -1.5 
C -0.397805 -1.5 -0.77937 -1.341951 -1.06066 -1.06066 
C -1.341951 -0.77937 -1.5 -0.397805 -1.5 0 
C -1.5 0.397805 -1.341951 0.77937 -1.06066 1.06066 
C -0.77937 1.341951 -0.397805 1.5 0 1.5 
z
" id="mcfe0d1cc00" style="stroke:#ff00ff;"/>
    </defs>
    <g>
     <use style="fill:#ff00ff;stroke:#ff00ff;" x="287.950746" xlink:href="#mcfe0d1cc00" y="6.912"/>
     <use style="fill:#ff00ff;stroke:#ff00ff;" x="287.950746" xlink:href="#mcfe0d1cc00" y="6.912"/>
    </g>
   </g>
   <g id="line2d_35">
    <path d="M 85.184077 298.944 
L 85.184077 228.547668 
L 87.876026 228.547668 
L 87.876026 228.07282 
L 95.080704 228.07282 
L 95.080704 217.388722 
L 96.717523 217.388722 
L 96.717523 215.014478 
L 98.223251 215.014478 
L 98.223251 212.758946 
L 99.617337 212.758946 
L 99.617337 212.640234 
L 101.532027 212.640234 
L 101.532027 204.567805 
L 102.708132 204.567805 
L 102.708132 199.700605 
L 103.815014 199.700605 
L 103.815014 196.7328 
L 104.344952 196.7328 
L 104.344952 195.426966 
L 104.860369 195.426966 
L 104.860369 194.59598 
L 106.326946 194.59598 
L 106.326946 189.13522 
L 107.244765 189.13522 
L 107.244765 185.217717 
L 108.119879 185.217717 
L 108.119879 181.775063 
L 108.956085 181.775063 
L 108.956085 179.756956 
L 109.360651 179.756956 
L 109.360651 179.638244 
L 109.756698 179.638244 
L 109.756698 178.094985 
L 110.144579 178.094985 
L 110.144579 174.889756 
L 110.897141 174.889756 
L 110.897141 170.378693 
L 111.620752 170.378693 
L 111.620752 167.054751 
L 112.317555 167.054751 
L 112.317555 163.612098 
L 112.656511 163.612098 
L 112.656511 163.493385 
L 112.989468 163.493385 
L 112.989468 161.59399 
L 113.316634 161.59399 
L 113.316634 158.744898 
L 113.954374 158.744898 
L 113.954374 152.571863 
L 114.265316 152.571863 
L 114.265316 151.147317 
L 114.571202 151.147317 
L 114.571202 143.668449 
L 115.168444 143.668449 
L 115.168444 141.05678 
L 115.747307 141.05678 
L 115.747307 138.3264 
L 116.030193 138.3264 
L 116.030193 136.545717 
L 116.308887 136.545717 
L 116.308887 136.070868 
L 116.583514 136.070868 
L 116.583514 128.235863 
L 116.854188 128.235863 
L 116.854188 128.117151 
L 117.121023 128.117151 
L 117.121023 125.030634 
L 117.384126 125.030634 
L 117.384126 124.199649 
L 117.6436 124.199649 
L 117.6436 122.181541 
L 118.152051 122.181541 
L 118.152051 118.738888 
L 118.401214 118.738888 
L 118.401214 118.620176 
L 118.64712 118.620176 
L 118.64712 118.145327 
L 118.889854 118.145327 
L 118.889854 116.72078 
L 119.129494 116.72078 
L 119.129494 115.771083 
L 119.366121 115.771083 
L 119.366121 115.533659 
L 119.599808 115.533659 
L 119.599808 114.583961 
L 119.830627 114.583961 
L 119.830627 113.752976 
L 120.28394 113.752976 
L 120.28394 111.85358 
L 120.726585 111.85358 
L 120.726585 108.767063 
L 121.159053 108.767063 
L 121.159053 108.05479 
L 121.581803 108.05479 
L 121.581803 107.342517 
L 121.789667 107.342517 
L 121.789667 106.867668 
L 122.19863 106.867668 
L 122.19863 105.680546 
L 122.399825 105.680546 
L 122.399825 105.32441 
L 122.598891 105.32441 
L 122.598891 104.730849 
L 122.990812 104.730849 
L 122.990812 103.899863 
L 123.374735 103.899863 
L 123.374735 103.425015 
L 123.750979 103.425015 
L 123.750979 103.306302 
L 123.936316 103.306302 
L 123.936316 101.881756 
L 124.3016 101.881756 
L 124.3016 101.169483 
L 124.659926 101.169483 
L 124.659926 100.45721 
L 125.011554 100.45721 
L 125.011554 100.219785 
L 125.526971 100.219785 
L 125.526971 99.032663 
L 125.862901 99.032663 
L 125.862901 98.676527 
L 126.028642 98.676527 
L 126.028642 98.439102 
L 126.192937 98.439102 
L 126.192937 98.32039 
L 126.677381 98.32039 
L 126.677381 97.25198 
L 126.836129 97.25198 
L 126.836129 96.777132 
L 127.610376 96.777132 
L 127.610376 96.183571 
L 127.761474 96.183571 
L 127.761474 96.064859 
L 127.911368 96.064859 
L 127.911368 95.352585 
L 128.060076 95.352585 
L 128.060076 95.115161 
L 128.499277 95.115161 
L 128.499277 94.759024 
L 128.786481 94.759024 
L 128.786481 94.640312 
L 128.928456 94.640312 
L 128.928456 93.690615 
L 129.209231 93.690615 
L 129.209231 92.147356 
L 130.027253 92.147356 
L 130.027253 92.028644 
L 130.682774 92.028644 
L 130.682774 91.672507 
L 131.440389 91.672507 
L 131.440389 91.435083 
L 132.04923 91.435083 
L 132.04923 91.197659 
L 132.754746 91.197659 
L 132.754746 90.841522 
L 133.210806 90.841522 
L 133.210806 90.72281 
L 133.323114 90.72281 
L 133.323114 90.247961 
L 133.983236 90.247961 
L 133.983236 89.773112 
L 134.516177 89.773112 
L 134.516177 89.6544 
L 134.931919 89.6544 
L 134.931919 89.535688 
L 135.136394 89.535688 
L 135.136394 89.416976 
L 135.438999 89.416976 
L 135.438999 89.060839 
L 135.638065 89.060839 
L 135.638065 88.942127 
L 136.029987 88.942127 
L 136.029987 88.823415 
L 136.222928 88.823415 
L 136.222928 88.348566 
L 136.508678 88.348566 
L 136.508678 88.229854 
L 136.696795 88.229854 
L 136.790153 87.636293 
L 137.067478 87.636293 
L 137.067478 87.51758 
L 137.250116 87.51758 
L 137.250116 87.280156 
L 137.963436 87.280156 
L 137.963436 87.161444 
L 138.224108 87.161444 
L 138.224108 87.042732 
L 138.650692 87.042732 
L 138.73486 86.211746 
L 138.985129 86.211746 
L 138.985129 85.974322 
L 139.150143 85.974322 
L 139.150143 85.380761 
L 140.032723 85.380761 
L 140.032723 84.7872 
L 140.343665 84.7872 
L 140.420604 84.431063 
L 140.875745 84.431063 
L 140.875745 84.074927 
L 141.246793 84.074927 
L 141.246793 83.837502 
L 141.682602 83.837502 
L 141.754265 83.481366 
L 141.825656 83.481366 
L 141.825656 83.243941 
L 142.178603 83.243941 
L 142.178603 83.125229 
L 142.45627 83.125229 
L 142.525051 82.887805 
L 142.797687 82.887805 
L 142.797687 82.769093 
L 143.199372 82.769093 
L 143.265494 82.412956 
L 143.52768 82.412956 
L 143.52768 82.294244 
L 143.914232 82.294244 
L 143.914232 82.175532 
L 144.2304 82.175532 
L 144.2304 82.05682 
L 144.355394 82.05682 
L 144.355394 81.700683 
L 144.602918 81.700683 
L 144.664294 81.344546 
L 144.968202 81.344546 
L 144.968202 81.225834 
L 145.26728 81.225834 
L 145.326529 80.276137 
L 145.561676 80.276137 
L 145.561676 80.038712 
L 145.851536 80.038712 
L 145.908976 79.326439 
L 146.136998 79.326439 
L 146.136998 79.207727 
L 146.804934 79.207727 
L 146.804934 79.089015 
L 147.130214 79.089015 
L 147.130214 78.732878 
L 147.712333 78.732878 
L 147.712333 78.614166 
L 147.971093 78.614166 
L 147.971093 78.495454 
L 148.276979 78.495454 
L 148.276979 78.376741 
L 148.726679 78.376741 
L 148.825169 78.020605 
L 149.069161 78.020605 
L 149.069161 77.901893 
L 149.357835 77.901893 
L 149.357835 77.78318 
L 149.547853 77.78318 
L 149.547853 77.070907 
L 149.875833 77.070907 
L 149.875833 76.833483 
L 150.106653 76.833483 
L 150.152479 76.358634 
L 150.379949 76.358634 
L 150.425115 75.883785 
L 150.738275 75.883785 
L 150.8268 75.171512 
L 151.089903 75.171512 
L 151.089903 75.0528 
L 151.306379 75.0528 
L 151.392277 74.459239 
L 151.774035 74.459239 
L 151.857828 73.746966 
L 152.024303 73.746966 
L 152.024303 73.628254 
L 152.271285 73.628254 
L 152.312136 73.272117 
L 152.715833 73.272117 
L 152.795543 72.91598 
L 152.914478 72.91598 
L 152.914478 72.797268 
L 153.071898 72.797268 
L 153.071898 72.678556 
L 153.344252 72.678556 
L 153.344252 72.559844 
L 153.5746 72.559844 
L 153.5746 72.32242 
L 153.764426 72.32242 
L 153.764426 72.203707 
L 153.989717 72.203707 
L 153.989717 72.084995 
L 154.39587 72.084995 
L 154.468783 71.728859 
L 154.577625 71.728859 
L 154.649839 71.491434 
L 154.793439 71.491434 
L 154.793439 71.372722 
L 154.971412 71.372722 
L 155.042132 71.135298 
L 155.460959 71.135298 
L 155.564225 70.897873 
L 155.735085 70.897873 
L 155.735085 70.779161 
L 156.105602 70.779161 
L 156.172192 70.541737 
L 156.403417 70.541737 
L 156.501649 70.304312 
L 156.664239 70.304312 
L 156.664239 70.1856 
L 156.825436 70.1856 
L 156.88953 69.948176 
L 157.856036 69.948176 
L 157.916719 69.710751 
L 158.0375 69.710751 
L 158.0375 69.473327 
L 158.890711 69.473327 
L 158.919453 68.998478 
L 159.14782 68.998478 
L 159.14782 68.879766 
L 159.568678 68.879766 
L 159.679334 68.523629 
L 159.706897 68.523629 
L 159.816746 68.286205 
L 159.844108 68.286205 
L 159.844108 68.167493 
L 161.010268 68.167493 
L 161.010268 67.930068 
L 161.542347 67.930068 
L 161.542347 67.811356 
L 162.03547 67.811356 
L 162.03547 67.692644 
L 162.205054 67.692644 
L 162.205054 67.573932 
L 162.444694 67.573932 
L 162.444694 67.45522 
L 163.554297 67.45522 
L 163.554297 66.861659 
L 166.556452 66.861659 
L 166.556452 66.505522 
L 167.306762 66.505522 
L 167.306762 66.38681 
L 167.598703 66.38681 
L 167.598703 66.149385 
L 168.045979 66.149385 
L 168.045979 66.030673 
L 169.294273 66.030673 
L 169.294273 65.793249 
L 169.475392 65.793249 
L 169.573454 65.3184 
L 170.119687 65.3184 
L 170.167131 64.606127 
L 170.880009 64.606127 
L 170.880009 64.368702 
L 172.073157 64.368702 
L 172.073157 64.24999 
L 172.215347 64.24999 
L 172.215347 63.775141 
L 173.127768 63.775141 
L 173.127768 63.656429 
L 173.855707 63.656429 
L 173.907565 62.231883 
L 173.997974 62.231883 
L 173.997974 62.113171 
L 174.393216 62.113171 
L 174.431028 61.875746 
L 174.506426 61.875746 
L 174.506426 61.163473 
L 174.656319 61.163473 
L 174.706019 60.332488 
L 175.001495 60.332488 
L 175.001495 59.501502 
L 175.26833 59.501502 
L 175.26833 59.145366 
L 176.185002 59.145366 
L 176.185002 59.026654 
L 176.671876 59.026654 
L 176.772205 57.72082 
L 177.059073 57.72082 
L 177.059073 57.602107 
L 177.341632 57.602107 
L 177.341632 57.483395 
L 179.23822 57.483395 
L 179.23822 57.364683 
L 179.681545 57.364683 
L 179.691068 57.127259 
L 180.011995 57.127259 
L 180.011995 57.008546 
L 180.188981 57.008546 
L 180.188981 56.533698 
L 180.474219 56.533698 
L 180.474219 56.414985 
L 180.59256 56.414985 
L 180.683087 56.177561 
L 180.853898 56.177561 
L 180.853898 56.058849 
L 181.702552 56.058849 
L 181.702552 55.940137 
L 182.999844 55.940137 
L 182.999844 55.821424 
L 183.111297 55.821424 
L 183.111297 55.702712 
L 183.308692 55.702712 
L 183.308692 55.584 
L 183.511809 55.584 
L 183.61255 55.346576 
L 183.666573 55.346576 
L 183.712756 54.396878 
L 183.972335 54.396878 
L 183.972335 54.278166 
L 184.576684 54.278166 
L 184.576684 53.922029 
L 186.274591 53.922029 
L 186.274591 53.803317 
L 186.888389 53.803317 
L 186.888389 53.684605 
L 187.293092 53.684605 
L 187.293092 53.44718 
L 187.658132 53.44718 
L 187.658132 53.328468 
L 187.936552 53.328468 
L 187.936552 53.209756 
L 188.119902 53.209756 
L 188.119902 53.091044 
L 188.481326 53.091044 
L 188.481326 52.972332 
L 189.406814 52.972332 
L 189.469188 52.734907 
L 189.59332 52.734907 
L 189.59332 52.616195 
L 189.716638 52.616195 
L 189.777996 52.141346 
L 189.900113 52.141346 
L 189.900113 52.022634 
L 190.081815 52.022634 
L 190.081815 51.903922 
L 190.261779 51.903922 
L 190.261779 51.78521 
L 190.637916 51.78521 
L 190.637916 51.547785 
L 190.991021 51.547785 
L 190.991021 51.310361 
L 191.617446 51.310361 
L 191.682983 51.072937 
L 192.596488 51.072937 
L 192.596488 50.598088 
L 192.88667 50.598088 
L 192.88667 50.479376 
L 192.999625 50.479376 
L 192.999625 50.360663 
L 193.495121 50.360663 
L 193.495121 50.241951 
L 193.69967 50.241951 
L 193.69967 49.767102 
L 194.06678 49.767102 
L 194.06678 49.529678 
L 194.535287 49.529678 
L 194.625883 49.292254 
L 194.716045 49.292254 
L 194.827078 47.867707 
L 194.831336 47.867707 
L 194.865361 47.274146 
L 195.101828 47.274146 
L 195.206441 47.036722 
L 196.142532 47.036722 
L 196.245479 46.680585 
L 196.375337 46.680585 
L 196.414511 46.324449 
L 197.226371 46.324449 
L 197.226371 46.205737 
L 198.546959 46.205737 
L 198.546959 46.087024 
L 199.070684 46.087024 
L 199.070684 45.730888 
L 200.082764 45.730888 
L 200.082764 45.612176 
L 200.278169 45.612176 
L 200.278169 44.78119 
L 200.553396 44.78119 
L 200.553396 44.543766 
L 200.935764 44.543766 
L 201.033981 44.187629 
L 201.216766 44.187629 
L 201.256137 43.71278 
L 202.47153 43.71278 
L 202.47153 43.594068 
L 202.755813 43.594068 
L 202.780938 43.237932 
L 203.110027 43.237932 
L 203.110027 43.11922 
L 203.406493 43.11922 
L 203.446927 42.881795 
L 203.626482 42.881795 
L 203.732867 42.525659 
L 204.079731 42.525659 
L 204.079731 42.288234 
L 204.989489 42.288234 
L 204.989489 42.169522 
L 205.248181 42.169522 
L 205.262856 41.575961 
L 205.447762 41.575961 
L 205.50095 40.744976 
L 205.685932 40.744976 
L 205.685932 40.626263 
L 207.326336 40.626263 
L 207.326336 40.388839 
L 207.656448 40.388839 
L 207.753078 40.032702 
L 207.940619 40.032702 
L 207.940619 39.91399 
L 208.157779 39.91399 
L 208.166162 38.964293 
L 208.53753 38.964293 
L 208.53753 38.84558 
L 208.903723 38.84558 
L 208.91178 38.608156 
L 210.7338 38.608156 
L 210.7338 37.895883 
L 211.603595 37.895883 
L 211.662844 37.539746 
L 211.856708 37.539746 
L 211.932326 36.827473 
L 211.98884 36.827473 
L 211.98884 36.708761 
L 213.073576 36.708761 
L 213.073576 36.352624 
L 213.261492 36.352624 
L 213.261492 35.877776 
L 213.377795 35.877776 
L 213.377795 35.521639 
L 213.539106 35.521639 
L 213.539106 35.402927 
L 214.475962 35.402927 
L 214.540275 35.165502 
L 214.665279 35.165502 
L 214.665279 35.04679 
L 214.914286 35.04679 
L 214.914286 34.809366 
L 215.288182 34.809366 
L 215.319723 34.453229 
L 215.52488 34.453229 
L 215.565927 34.097093 
L 215.988142 34.097093 
L 215.988142 33.97838 
L 216.864638 33.97838 
L 216.87651 33.38482 
L 217.474824 33.38482 
L 217.523304 32.909971 
L 217.670528 32.909971 
L 217.670528 32.672546 
L 218.233447 32.672546 
L 218.262871 31.841561 
L 218.850195 31.841561 
L 218.860879 31.485424 
L 219.029816 31.485424 
L 219.047449 31.248 
L 219.382838 31.248 
L 219.382838 30.773151 
L 219.552892 30.773151 
L 219.552892 30.654439 
L 221.232556 30.654439 
L 221.232556 30.535727 
L 221.929797 30.535727 
L 221.933829 29.229893 
L 224.263723 29.229893 
L 224.348125 28.873756 
L 224.395933 28.873756 
L 224.395933 28.755044 
L 225.419768 28.755044 
L 225.459919 28.51762 
L 226.125659 28.51762 
L 226.150645 28.161483 
L 226.530979 28.161483 
L 226.564891 27.211785 
L 226.954781 27.211785 
L 227.061751 26.618224 
L 227.07019 26.618224 
L 227.087057 26.262088 
L 228.142786 26.262088 
L 228.142786 26.143376 
L 229.428087 26.143376 
L 229.428087 26.024663 
L 230.113113 26.024663 
L 230.118984 25.787239 
L 230.815598 25.787239 
L 230.914024 24.24398 
L 230.930274 24.24398 
L 230.950879 23.294283 
L 231.14026 23.294283 
L 231.187771 22.938146 
L 231.751128 22.938146 
L 231.788768 22.700722 
L 232.331766 22.700722 
L 232.336405 22.225873 
L 232.631487 22.225873 
L 232.631487 22.107161 
L 232.994368 22.107161 
L 232.994368 21.988449 
L 233.445174 21.988449 
L 233.451186 21.038751 
L 233.633882 21.038751 
L 233.633882 20.920039 
L 234.836449 20.920039 
L 234.836449 20.801327 
L 235.159037 20.801327 
L 235.242677 20.563902 
L 235.696167 20.563902 
L 235.787112 19.970341 
L 236.412173 19.970341 
L 236.412173 19.851629 
L 236.70215 19.851629 
L 236.722365 19.614205 
L 237.456759 19.614205 
L 237.456759 19.495493 
L 237.680635 19.495493 
L 237.695466 18.901932 
L 238.37628 18.901932 
L 238.377962 18.427083 
L 238.840653 18.427083 
L 238.845576 18.070946 
L 239.959968 18.070946 
L 239.959968 17.952234 
L 241.86181 17.952234 
L 241.862508 17.596098 
L 242.096536 17.596098 
L 242.096536 17.477385 
L 243.534961 17.477385 
L 243.534961 17.358673 
L 243.925979 17.358673 
L 243.947257 16.765112 
L 244.65435 16.765112 
L 244.654953 16.527688 
L 245.161308 16.527688 
L 245.240012 16.171551 
L 245.66581 16.171551 
L 245.66581 16.052839 
L 246.200188 16.052839 
L 246.218213 15.815415 
L 246.526114 15.815415 
L 246.574044 15.57799 
L 246.878631 15.57799 
L 246.881842 15.103141 
L 247.019668 15.103141 
L 247.066623 14.865717 
L 248.030311 14.865717 
L 248.032073 14.50958 
L 248.834248 14.50958 
L 248.834248 14.390868 
L 249.887163 14.390868 
L 249.887163 14.272156 
L 250.195693 14.272156 
L 250.196591 14.034732 
L 250.313556 14.034732 
L 250.314448 13.797307 
L 251.544743 13.797307 
L 251.639519 13.322459 
L 252.43407 13.322459 
L 252.43407 13.203746 
L 253.109764 13.203746 
L 253.109764 13.085034 
L 253.318245 13.085034 
L 253.35242 12.84761 
L 253.56556 12.84761 
L 253.56706 12.610185 
L 254.086801 12.610185 
L 254.086801 12.491473 
L 254.378961 12.491473 
L 254.378961 12.372761 
L 255.948813 12.372761 
L 255.957734 12.016624 
L 256.960613 12.016624 
L 257.02049 11.660488 
L 257.318275 11.660488 
L 257.318275 11.541776 
L 258.124097 11.541776 
L 258.124097 11.423063 
L 258.325552 11.423063 
L 258.325552 11.304351 
L 258.489104 11.304351 
L 258.490115 11.066927 
L 259.118566 11.066927 
L 259.124429 10.592078 
L 259.274979 10.592078 
L 259.274979 10.473366 
L 260.351387 10.473366 
L 260.421473 10.117229 
L 261.157006 10.117229 
L 261.157006 9.998517 
L 262.388716 9.998517 
L 262.388716 9.879805 
L 262.718456 9.879805 
L 262.718456 9.761093 
L 263.973649 9.761093 
L 263.973649 9.64238 
L 264.576712 9.64238 
L 264.623448 9.167532 
L 265.025577 9.167532 
L 265.025577 9.04882 
L 266.048462 9.04882 
L 266.048462 8.930107 
L 266.907622 8.930107 
L 266.958492 8.573971 
L 267.514076 8.573971 
L 267.514076 8.455259 
L 268.368761 8.455259 
L 268.368761 8.336546 
L 268.744596 8.336546 
L 268.744596 8.217834 
L 270.170548 8.217834 
L 270.170548 8.099122 
L 273.198879 8.099122 
L 273.198879 7.98041 
L 273.787124 7.98041 
L 273.787124 7.861698 
L 274.186344 7.861698 
L 274.186344 7.742985 
L 275.082349 7.742985 
L 275.082349 7.624273 
L 275.648242 7.624273 
L 275.648242 7.505561 
L 276.476713 7.505561 
L 276.476713 7.386849 
L 276.795322 7.386849 
L 276.795322 7.268137 
L 280.254601 7.268137 
L 280.254601 7.149424 
L 281.568029 7.149424 
L 281.568029 7.030712 
L 287.950746 7.030712 
L 287.950746 6.912 
L 360.8064 6.912 
L 360.8064 6.912 
" style="fill:none;stroke:#ff00ff;stroke-linecap:square;stroke-width:1.5;"/>
   </g>
   <g id="line2d_36">
    <defs>
     <path d="M -0 8.485281 
L 5.091169 0 
L 0 -8.485281 
L -5.091169 -0 
z
" id="mcef147e1e5" style="stroke:#ff00ff;stroke-linejoin:miter;stroke-width:1.5;"/>
    </defs>
    <g>
     <use style="fill-opacity:0;stroke:#ff00ff;stroke-linejoin:miter;stroke-width:1.5;" x="129.209231" xlink:href="#mcef147e1e5" y="93.690615"/>
     <use style="fill-opacity:0;stroke:#ff00ff;stroke-linejoin:miter;stroke-width:1.5;" x="188.481326" xlink:href="#mcef147e1e5" y="53.091044"/>
     <use style="fill-opacity:0;stroke:#ff00ff;stroke-linejoin:miter;stroke-width:1.5;" x="287.950746" xlink:href="#mcef147e1e5" y="7.030712"/>
     <use style="fill-opacity:0;stroke:#ff00ff;stroke-linejoin:miter;stroke-width:1.5;" x="287.950746" xlink:href="#mcef147e1e5" y="6.912"/>
     <use style="fill-opacity:0;stroke:#ff00ff;stroke-linejoin:miter;stroke-width:1.5;" x="360.8064" xlink:href="#mcef147e1e5" y="6.912"/>
    </g>
   </g>
   <g id="line2d_37">
    <path style="fill:none;stroke:#ff00ff;stroke-linecap:square;stroke-width:1.5;"/>
    <g/>
   </g>
   <g id="line2d_38">
    <path clip-path="url(#p43c49669b1)" d="M 230.864562 25.668527 
" style="fill:none;stroke:#ff00ff;stroke-linecap:square;stroke-width:1.5;"/>
    <defs>
     <path d="M -12 12 
L 12 -12 
M -12 -12 
L 12 12 
" id="mf22a687c78" style="stroke:#ff00ff;"/>
    </defs>
    <g clip-path="url(#p43c49669b1)">
     <use style="fill:#ff00ff;stroke:#ff00ff;" x="230.864562" xlink:href="#mf22a687c78" y="25.668527"/>
    </g>
   </g>
   <g id="line2d_39">
    <path d="M 360.8064 21.157463 
L 380.514816 293.10336 
" style="fill:none;stroke:#000080;stroke-linecap:square;stroke-width:1.5;"/>
    <g>
     <use style="fill-opacity:0;stroke:#000080;stroke-width:1.5;" x="360.8064" xlink:href="#m48fa4995ad" y="21.157463"/>
     <use style="fill-opacity:0;stroke:#000080;stroke-width:1.5;" x="380.514816" xlink:href="#m48fa4995ad" y="293.10336"/>
    </g>
   </g>
   <g id="line2d_40">
    <path d="M 360.8064 6.912 
L 380.514816 12.75264 
" style="fill:none;stroke:#ff00ff;stroke-linecap:square;stroke-width:1.5;"/>
    <g>
     <use style="fill-opacity:0;stroke:#ff00ff;stroke-linejoin:miter;stroke-width:1.5;" x="360.8064" xlink:href="#mcef147e1e5" y="6.912"/>
     <use style="fill-opacity:0;stroke:#ff00ff;stroke-linejoin:miter;stroke-width:1.5;" x="380.514816" xlink:href="#mcef147e1e5" y="12.75264"/>
    </g>
   </g>
   <g id="line2d_41">
    <path d="M 360.8064 298.944 
L 360.8064 6.912 
" style="fill:none;stroke:#000000;stroke-linecap:square;stroke-width:1.5;"/>
   </g>
   <g id="patch_3">
    <path d="M 57.6 298.944 
L 360.8064 298.944 
" style="fill:none;stroke:#000000;stroke-linecap:square;stroke-linejoin:miter;stroke-width:0.8;"/>
   </g>
   <g id="patch_4">
    <path d="M 57.6 6.912 
L 360.8064 6.912 
" style="fill:none;stroke:#000000;stroke-linecap:square;stroke-linejoin:miter;stroke-width:0.8;"/>
   </g>
   <g id="text_13">
    <!-- cobyla -->
    <g transform="translate(386.578944 296.966485)scale(0.14 -0.14)">
     <defs>
      <path d="M 48.6875 27.296875 
Q 48.6875 37.203125 44.609375 42.84375 
Q 40.53125 48.484375 33.40625 48.484375 
Q 26.265625 48.484375 22.1875 42.84375 
Q 18.109375 37.203125 18.109375 27.296875 
Q 18.109375 17.390625 22.1875 11.75 
Q 26.265625 6.109375 33.40625 6.109375 
Q 40.53125 6.109375 44.609375 11.75 
Q 48.6875 17.390625 48.6875 27.296875 
z
M 18.109375 46.390625 
Q 20.953125 51.265625 25.265625 53.625 
Q 29.59375 56 35.59375 56 
Q 45.5625 56 51.78125 48.09375 
Q 58.015625 40.1875 58.015625 27.296875 
Q 58.015625 14.40625 51.78125 6.484375 
Q 45.5625 -1.421875 35.59375 -1.421875 
Q 29.59375 -1.421875 25.265625 0.953125 
Q 20.953125 3.328125 18.109375 8.203125 
L 18.109375 0 
L 9.078125 0 
L 9.078125 75.984375 
L 18.109375 75.984375 
z
" id="DejaVuSans-98"/>
      <path d="M 32.171875 -5.078125 
Q 28.375 -14.84375 24.75 -17.8125 
Q 21.140625 -20.796875 15.09375 -20.796875 
L 7.90625 -20.796875 
L 7.90625 -13.28125 
L 13.1875 -13.28125 
Q 16.890625 -13.28125 18.9375 -11.515625 
Q 21 -9.765625 23.484375 -3.21875 
L 25.09375 0.875 
L 2.984375 54.6875 
L 12.5 54.6875 
L 29.59375 11.921875 
L 46.6875 54.6875 
L 56.203125 54.6875 
z
" id="DejaVuSans-121"/>
     </defs>
     <use xlink:href="#DejaVuSans-99"/>
     <use x="54.980469" xlink:href="#DejaVuSans-111"/>
     <use x="116.162109" xlink:href="#DejaVuSans-98"/>
     <use x="179.638672" xlink:href="#DejaVuSans-121"/>
     <use x="238.818359" xlink:href="#DejaVuSans-108"/>
     <use x="266.601562" xlink:href="#DejaVuSans-97"/>
    </g>
   </g>
   <g id="text_14">
    <!-- slsqp -->
    <g transform="translate(386.578944 16.615765)scale(0.14 -0.14)">
     <defs>
      <path d="M 14.796875 27.296875 
Q 14.796875 17.390625 18.875 11.75 
Q 22.953125 6.109375 30.078125 6.109375 
Q 37.203125 6.109375 41.296875 11.75 
Q 45.40625 17.390625 45.40625 27.296875 
Q 45.40625 37.203125 41.296875 42.84375 
Q 37.203125 48.484375 30.078125 48.484375 
Q 22.953125 48.484375 18.875 42.84375 
Q 14.796875 37.203125 14.796875 27.296875 
z
M 45.40625 8.203125 
Q 42.578125 3.328125 38.25 0.953125 
Q 33.9375 -1.421875 27.875 -1.421875 
Q 17.96875 -1.421875 11.734375 6.484375 
Q 5.515625 14.40625 5.515625 27.296875 
Q 5.515625 40.1875 11.734375 48.09375 
Q 17.96875 56 27.875 56 
Q 33.9375 56 38.25 53.625 
Q 42.578125 51.265625 45.40625 46.390625 
L 45.40625 54.6875 
L 54.390625 54.6875 
L 54.390625 -20.796875 
L 45.40625 -20.796875 
z
" id="DejaVuSans-113"/>
     </defs>
     <use xlink:href="#DejaVuSans-115"/>
     <use x="52.099609" xlink:href="#DejaVuSans-108"/>
     <use x="79.882812" xlink:href="#DejaVuSans-115"/>
     <use x="131.982422" xlink:href="#DejaVuSans-113"/>
     <use x="195.458984" xlink:href="#DejaVuSans-112"/>
    </g>
   </g>
   <g id="text_15">
    <!-- bbob-constrained f19, f25, f31, f37, 3-D -->
    <g transform="translate(60.632064 17.582726)scale(0.102 -0.102)">
     <defs>
      <path d="M 4.890625 31.390625 
L 31.203125 31.390625 
L 31.203125 23.390625 
L 4.890625 23.390625 
z
" id="DejaVuSans-45"/>
      <path d="M 10.984375 1.515625 
L 10.984375 10.5 
Q 14.703125 8.734375 18.5 7.8125 
Q 22.3125 6.890625 25.984375 6.890625 
Q 35.75 6.890625 40.890625 13.453125 
Q 46.046875 20.015625 46.78125 33.40625 
Q 43.953125 29.203125 39.59375 26.953125 
Q 35.25 24.703125 29.984375 24.703125 
Q 19.046875 24.703125 12.671875 31.3125 
Q 6.296875 37.9375 6.296875 49.421875 
Q 6.296875 60.640625 12.9375 67.421875 
Q 19.578125 74.21875 30.609375 74.21875 
Q 43.265625 74.21875 49.921875 64.515625 
Q 56.59375 54.828125 56.59375 36.375 
Q 56.59375 19.140625 48.40625 8.859375 
Q 40.234375 -1.421875 26.421875 -1.421875 
Q 22.703125 -1.421875 18.890625 -0.6875 
Q 15.09375 0.046875 10.984375 1.515625 
z
M 30.609375 32.421875 
Q 37.25 32.421875 41.125 36.953125 
Q 45.015625 41.5 45.015625 49.421875 
Q 45.015625 57.28125 41.125 61.84375 
Q 37.25 66.40625 30.609375 66.40625 
Q 23.96875 66.40625 20.09375 61.84375 
Q 16.21875 57.28125 16.21875 49.421875 
Q 16.21875 41.5 20.09375 36.953125 
Q 23.96875 32.421875 30.609375 32.421875 
z
" id="DejaVuSans-57"/>
      <path d="M 10.796875 72.90625 
L 49.515625 72.90625 
L 49.515625 64.59375 
L 19.828125 64.59375 
L 19.828125 46.734375 
Q 21.96875 47.46875 24.109375 47.828125 
Q 26.265625 48.1875 28.421875 48.1875 
Q 40.625 48.1875 47.75 41.5 
Q 54.890625 34.8125 54.890625 23.390625 
Q 54.890625 11.625 47.5625 5.09375 
Q 40.234375 -1.421875 26.90625 -1.421875 
Q 22.3125 -1.421875 17.546875 -0.640625 
Q 12.796875 0.140625 7.71875 1.703125 
L 7.71875 11.625 
Q 12.109375 9.234375 16.796875 8.0625 
Q 21.484375 6.890625 26.703125 6.890625 
Q 35.15625 6.890625 40.078125 11.328125 
Q 45.015625 15.765625 45.015625 23.390625 
Q 45.015625 31 40.078125 35.4375 
Q 35.15625 39.890625 26.703125 39.890625 
Q 22.75 39.890625 18.8125 39.015625 
Q 14.890625 38.140625 10.796875 36.28125 
z
" id="DejaVuSans-53"/>
      <path d="M 40.578125 39.3125 
Q 47.65625 37.796875 51.625 33 
Q 55.609375 28.21875 55.609375 21.1875 
Q 55.609375 10.40625 48.1875 4.484375 
Q 40.765625 -1.421875 27.09375 -1.421875 
Q 22.515625 -1.421875 17.65625 -0.515625 
Q 12.796875 0.390625 7.625 2.203125 
L 7.625 11.71875 
Q 11.71875 9.328125 16.59375 8.109375 
Q 21.484375 6.890625 26.8125 6.890625 
Q 36.078125 6.890625 40.9375 10.546875 
Q 45.796875 14.203125 45.796875 21.1875 
Q 45.796875 27.640625 41.28125 31.265625 
Q 36.765625 34.90625 28.71875 34.90625 
L 20.21875 34.90625 
L 20.21875 43.015625 
L 29.109375 43.015625 
Q 36.375 43.015625 40.234375 45.921875 
Q 44.09375 48.828125 44.09375 54.296875 
Q 44.09375 59.90625 40.109375 62.90625 
Q 36.140625 65.921875 28.71875 65.921875 
Q 24.65625 65.921875 20.015625 65.03125 
Q 15.375 64.15625 9.8125 62.3125 
L 9.8125 71.09375 
Q 15.4375 72.65625 20.34375 73.4375 
Q 25.25 74.21875 29.59375 74.21875 
Q 40.828125 74.21875 47.359375 69.109375 
Q 53.90625 64.015625 53.90625 55.328125 
Q 53.90625 49.265625 50.4375 45.09375 
Q 46.96875 40.921875 40.578125 39.3125 
z
" id="DejaVuSans-51"/>
      <path d="M 8.203125 72.90625 
L 55.078125 72.90625 
L 55.078125 68.703125 
L 28.609375 0 
L 18.3125 0 
L 43.21875 64.59375 
L 8.203125 64.59375 
z
" id="DejaVuSans-55"/>
      <path d="M 19.671875 64.796875 
L 19.671875 8.109375 
L 31.59375 8.109375 
Q 46.6875 8.109375 53.6875 14.9375 
Q 60.6875 21.78125 60.6875 36.53125 
Q 60.6875 51.171875 53.6875 57.984375 
Q 46.6875 64.796875 31.59375 64.796875 
z
M 9.8125 72.90625 
L 30.078125 72.90625 
Q 51.265625 72.90625 61.171875 64.09375 
Q 71.09375 55.28125 71.09375 36.53125 
Q 71.09375 17.671875 61.125 8.828125 
Q 51.171875 0 30.078125 0 
L 9.8125 0 
z
" id="DejaVuSans-68"/>
     </defs>
     <use xlink:href="#DejaVuSans-98"/>
     <use x="63.476562" xlink:href="#DejaVuSans-98"/>
     <use x="126.953125" xlink:href="#DejaVuSans-111"/>
     <use x="188.134766" xlink:href="#DejaVuSans-98"/>
     <use x="251.611328" xlink:href="#DejaVuSans-45"/>
     <use x="287.695312" xlink:href="#DejaVuSans-99"/>
     <use x="342.675781" xlink:href="#DejaVuSans-111"/>
     <use x="403.857422" xlink:href="#DejaVuSans-110"/>
     <use x="467.236328" xlink:href="#DejaVuSans-115"/>
     <use x="519.335938" xlink:href="#DejaVuSans-116"/>
     <use x="558.544922" xlink:href="#DejaVuSans-114"/>
     <use x="599.658203" xlink:href="#DejaVuSans-97"/>
     <use x="660.9375" xlink:href="#DejaVuSans-105"/>
     <use x="688.720703" xlink:href="#DejaVuSans-110"/>
     <use x="752.099609" xlink:href="#DejaVuSans-101"/>
     <use x="813.623047" xlink:href="#DejaVuSans-100"/>
     <use x="877.099609" xlink:href="#DejaVuSans-32"/>
     <use x="908.886719" xlink:href="#DejaVuSans-102"/>
     <use x="944.091797" xlink:href="#DejaVuSans-49"/>
     <use x="1007.714844" xlink:href="#DejaVuSans-57"/>
     <use x="1071.337891" xlink:href="#DejaVuSans-44"/>
     <use x="1103.125" xlink:href="#DejaVuSans-32"/>
     <use x="1134.912109" xlink:href="#DejaVuSans-102"/>
     <use x="1170.117188" xlink:href="#DejaVuSans-50"/>
     <use x="1233.740234" xlink:href="#DejaVuSans-53"/>
     <use x="1297.363281" xlink:href="#DejaVuSans-44"/>
     <use x="1329.150391" xlink:href="#DejaVuSans-32"/>
     <use x="1360.9375" xlink:href="#DejaVuSans-102"/>
     <use x="1396.142578" xlink:href="#DejaVuSans-51"/>
     <use x="1459.765625" xlink:href="#DejaVuSans-49"/>
     <use x="1523.388672" xlink:href="#DejaVuSans-44"/>
     <use x="1555.175781" xlink:href="#DejaVuSans-32"/>
     <use x="1586.962891" xlink:href="#DejaVuSans-102"/>
     <use x="1622.167969" xlink:href="#DejaVuSans-51"/>
     <use x="1685.791016" xlink:href="#DejaVuSans-55"/>
     <use x="1749.414062" xlink:href="#DejaVuSans-44"/>
     <use x="1781.201172" xlink:href="#DejaVuSans-32"/>
     <use x="1812.988281" xlink:href="#DejaVuSans-51"/>
     <use x="1876.611328" xlink:href="#DejaVuSans-45"/>
     <use x="1912.695312" xlink:href="#DejaVuSans-68"/>
    </g>
    <!-- 41 targets: 100..1e-06 -->
    <g transform="translate(60.632064 29.004495)scale(0.102 -0.102)">
     <defs>
      <path d="M 11.71875 12.40625 
L 22.015625 12.40625 
L 22.015625 0 
L 11.71875 0 
z
M 11.71875 51.703125 
L 22.015625 51.703125 
L 22.015625 39.3125 
L 11.71875 39.3125 
z
" id="DejaVuSans-58"/>
     </defs>
     <use xlink:href="#DejaVuSans-52"/>
     <use x="63.623047" xlink:href="#DejaVuSans-49"/>
     <use x="127.246094" xlink:href="#DejaVuSans-32"/>
     <use x="159.033203" xlink:href="#DejaVuSans-116"/>
     <use x="198.242188" xlink:href="#DejaVuSans-97"/>
     <use x="259.521484" xlink:href="#DejaVuSans-114"/>
     <use x="298.884766" xlink:href="#DejaVuSans-103"/>
     <use x="362.361328" xlink:href="#DejaVuSans-101"/>
     <use x="423.884766" xlink:href="#DejaVuSans-116"/>
     <use x="463.09375" xlink:href="#DejaVuSans-115"/>
     <use x="515.193359" xlink:href="#DejaVuSans-58"/>
     <use x="548.884766" xlink:href="#DejaVuSans-32"/>
     <use x="580.671875" xlink:href="#DejaVuSans-49"/>
     <use x="644.294922" xlink:href="#DejaVuSans-48"/>
     <use x="707.917969" xlink:href="#DejaVuSans-48"/>
     <use x="771.541016" xlink:href="#DejaVuSans-46"/>
     <use x="803.328125" xlink:href="#DejaVuSans-46"/>
     <use x="835.115234" xlink:href="#DejaVuSans-49"/>
     <use x="898.738281" xlink:href="#DejaVuSans-101"/>
     <use x="960.261719" xlink:href="#DejaVuSans-45"/>
     <use x="996.345703" xlink:href="#DejaVuSans-48"/>
     <use x="1059.96875" xlink:href="#DejaVuSans-54"/>
    </g>
    <!-- evals = f-evals + g-evals -->
    <g transform="translate(60.632064 40.426264)scale(0.102 -0.102)">
     <defs>
      <path d="M 10.59375 45.40625 
L 73.1875 45.40625 
L 73.1875 37.203125 
L 10.59375 37.203125 
z
M 10.59375 25.484375 
L 73.1875 25.484375 
L 73.1875 17.1875 
L 10.59375 17.1875 
z
" id="DejaVuSans-61"/>
      <path d="M 46 62.703125 
L 46 35.5 
L 73.1875 35.5 
L 73.1875 27.203125 
L 46 27.203125 
L 46 0 
L 37.796875 0 
L 37.796875 27.203125 
L 10.59375 27.203125 
L 10.59375 35.5 
L 37.796875 35.5 
L 37.796875 62.703125 
z
" id="DejaVuSans-43"/>
     </defs>
     <use xlink:href="#DejaVuSans-101"/>
     <use x="61.523438" xlink:href="#DejaVuSans-118"/>
     <use x="120.703125" xlink:href="#DejaVuSans-97"/>
     <use x="181.982422" xlink:href="#DejaVuSans-108"/>
     <use x="209.765625" xlink:href="#DejaVuSans-115"/>
     <use x="261.865234" xlink:href="#DejaVuSans-32"/>
     <use x="293.652344" xlink:href="#DejaVuSans-61"/>
     <use x="377.441406" xlink:href="#DejaVuSans-32"/>
     <use x="409.228516" xlink:href="#DejaVuSans-102"/>
     <use x="438.933594" xlink:href="#DejaVuSans-45"/>
     <use x="475.017578" xlink:href="#DejaVuSans-101"/>
     <use x="536.541016" xlink:href="#DejaVuSans-118"/>
     <use x="595.720703" xlink:href="#DejaVuSans-97"/>
     <use x="657" xlink:href="#DejaVuSans-108"/>
     <use x="684.783203" xlink:href="#DejaVuSans-115"/>
     <use x="736.882812" xlink:href="#DejaVuSans-32"/>
     <use x="768.669922" xlink:href="#DejaVuSans-43"/>
     <use x="852.458984" xlink:href="#DejaVuSans-32"/>
     <use x="884.246094" xlink:href="#DejaVuSans-103"/>
     <use x="947.722656" xlink:href="#DejaVuSans-45"/>
     <use x="983.806641" xlink:href="#DejaVuSans-101"/>
     <use x="1045.330078" xlink:href="#DejaVuSans-118"/>
     <use x="1104.509766" xlink:href="#DejaVuSans-97"/>
     <use x="1165.789062" xlink:href="#DejaVuSans-108"/>
     <use x="1193.572266" xlink:href="#DejaVuSans-115"/>
    </g>
    <!-- 15 instances -->
    <g transform="translate(60.632064 51.848032)scale(0.102 -0.102)">
     <use xlink:href="#DejaVuSans-49"/>
     <use x="63.623047" xlink:href="#DejaVuSans-53"/>
     <use x="127.246094" xlink:href="#DejaVuSans-32"/>
     <use x="159.033203" xlink:href="#DejaVuSans-105"/>
     <use x="186.816406" xlink:href="#DejaVuSans-110"/>
     <use x="250.195312" xlink:href="#DejaVuSans-115"/>
     <use x="302.294922" xlink:href="#DejaVuSans-116"/>
     <use x="341.503906" xlink:href="#DejaVuSans-97"/>
     <use x="402.783203" xlink:href="#DejaVuSans-110"/>
     <use x="466.162109" xlink:href="#DejaVuSans-99"/>
     <use x="521.142578" xlink:href="#DejaVuSans-101"/>
     <use x="582.666016" xlink:href="#DejaVuSans-115"/>
    </g>
   </g>
   <g id="text_16">
    <!-- v2.4.159 -->
    <g style="fill:#808080;" transform="translate(187.15945 293.943992)scale(0.1 -0.1)">
     <use xlink:href="#DejaVuSans-118"/>
     <use x="59.179688" xlink:href="#DejaVuSans-50"/>
     <use x="122.802734" xlink:href="#DejaVuSans-46"/>
     <use x="154.589844" xlink:href="#DejaVuSans-52"/>
     <use x="218.212891" xlink:href="#DejaVuSans-46"/>
     <use x="250" xlink:href="#DejaVuSans-49"/>
     <use x="313.623047" xlink:href="#DejaVuSans-53"/>
     <use x="377.246094" xlink:href="#DejaVuSans-57"/>
    </g>
   </g>
  </g>
 </g>
 <defs>
  <clipPath id="p43c49669b1">
   <rect height="292.032" width="303.2064" x="57.6" y="6.912"/>
  </clipPath>
 </defs>
</svg>
