<?xml version="1.0" encoding="utf-8" standalone="no"?>
<!DOCTYPE svg PUBLIC "-//W3C//DTD SVG 1.1//EN"
  "http://www.w3.org/Graphics/SVG/1.1/DTD/svg11.dtd">
<!-- Created with matplotlib (https://matplotlib.org/) -->
<svg height="345.6pt" version="1.1" viewBox="0 0 460.8 345.6" width="460.8pt" xmlns="http://www.w3.org/2000/svg" xmlns:xlink="http://www.w3.org/1999/xlink">
 <metadata>
  <rdf:RDF xmlns:cc="http://creativecommons.org/ns#" xmlns:dc="http://purl.org/dc/elements/1.1/" xmlns:rdf="http://www.w3.org/1999/02/22-rdf-syntax-ns#">
   <cc:Work>
    <dc:type rdf:resource="http://purl.org/dc/dcmitype/StillImage"/>
    <dc:date>2022-02-09T00:07:59.703128</dc:date>
    <dc:format>image/svg+xml</dc:format>
    <dc:creator>
     <cc:Agent>
      <dc:title>Matplotlib v3.3.3, https://matplotlib.org/</dc:title>
     </cc:Agent>
    </dc:creator>
   </cc:Work>
  </rdf:RDF>
 </metadata>
 <defs>
  <style type="text/css">*{stroke-linecap:butt;stroke-linejoin:round;}</style>
 </defs>
 <g id="figure_1">
  <g id="patch_1">
   <path d="M 0 345.6 
L 460.8 345.6 
L 460.8 0 
L 0 0 
z
" style="fill:#ffffff;"/>
  </g>
  <g id="axes_1">
   <g id="patch_2">
    <path d="M 57.6 298.944 
L 360.8064 298.944 
L 360.8064 6.912 
L 57.6 6.912 
z
" style="fill:#ffffff;"/>
   </g>
   <g id="matplotlib.axis_1">
    <g id="xtick_1">
     <g id="line2d_1">
      <path clip-path="url(#p79ae48d9ee)" d="M 57.6 298.944 
L 57.6 6.912 
" style="fill:none;stroke:#b0b0b0;stroke-linecap:square;stroke-width:0.8;"/>
     </g>
     <g id="line2d_2">
      <defs>
       <path d="M 0 0 
L 0 3.5 
" id="mdc6af08ce2" style="stroke:#000000;stroke-width:0.8;"/>
      </defs>
      <g>
       <use style="stroke:#000000;stroke-width:0.8;" x="57.6" xlink:href="#mdc6af08ce2" y="298.944"/>
      </g>
     </g>
     <g id="text_1">
      <!-- 0 -->
      <g transform="translate(52.191875 318.861344)scale(0.17 -0.17)">
       <defs>
        <path d="M 31.78125 66.40625 
Q 24.171875 66.40625 20.328125 58.90625 
Q 16.5 51.421875 16.5 36.375 
Q 16.5 21.390625 20.328125 13.890625 
Q 24.171875 6.390625 31.78125 6.390625 
Q 39.453125 6.390625 43.28125 13.890625 
Q 47.125 21.390625 47.125 36.375 
Q 47.125 51.421875 43.28125 58.90625 
Q 39.453125 66.40625 31.78125 66.40625 
z
M 31.78125 74.21875 
Q 44.046875 74.21875 50.515625 64.515625 
Q 56.984375 54.828125 56.984375 36.375 
Q 56.984375 17.96875 50.515625 8.265625 
Q 44.046875 -1.421875 31.78125 -1.421875 
Q 19.53125 -1.421875 13.0625 8.265625 
Q 6.59375 17.96875 6.59375 36.375 
Q 6.59375 54.828125 13.0625 64.515625 
Q 19.53125 74.21875 31.78125 74.21875 
z
" id="DejaVuSans-48"/>
       </defs>
       <use xlink:href="#DejaVuSans-48"/>
      </g>
     </g>
    </g>
    <g id="xtick_2">
     <g id="line2d_3">
      <path clip-path="url(#p79ae48d9ee)" d="M 144.2304 298.944 
L 144.2304 6.912 
" style="fill:none;stroke:#b0b0b0;stroke-linecap:square;stroke-width:0.8;"/>
     </g>
     <g id="line2d_4">
      <g>
       <use style="stroke:#000000;stroke-width:0.8;" x="144.2304" xlink:href="#mdc6af08ce2" y="298.944"/>
      </g>
     </g>
     <g id="text_2">
      <!-- 2 -->
      <g transform="translate(138.822275 318.861344)scale(0.17 -0.17)">
       <defs>
        <path d="M 19.1875 8.296875 
L 53.609375 8.296875 
L 53.609375 0 
L 7.328125 0 
L 7.328125 8.296875 
Q 12.9375 14.109375 22.625 23.890625 
Q 32.328125 33.6875 34.8125 36.53125 
Q 39.546875 41.84375 41.421875 45.53125 
Q 43.3125 49.21875 43.3125 52.78125 
Q 43.3125 58.59375 39.234375 62.25 
Q 35.15625 65.921875 28.609375 65.921875 
Q 23.96875 65.921875 18.8125 64.3125 
Q 13.671875 62.703125 7.8125 59.421875 
L 7.8125 69.390625 
Q 13.765625 71.78125 18.9375 73 
Q 24.125 74.21875 28.421875 74.21875 
Q 39.75 74.21875 46.484375 68.546875 
Q 53.21875 62.890625 53.21875 53.421875 
Q 53.21875 48.921875 51.53125 44.890625 
Q 49.859375 40.875 45.40625 35.40625 
Q 44.1875 33.984375 37.640625 27.21875 
Q 31.109375 20.453125 19.1875 8.296875 
z
" id="DejaVuSans-50"/>
       </defs>
       <use xlink:href="#DejaVuSans-50"/>
      </g>
     </g>
    </g>
    <g id="xtick_3">
     <g id="line2d_5">
      <path clip-path="url(#p79ae48d9ee)" d="M 230.8608 298.944 
L 230.8608 6.912 
" style="fill:none;stroke:#b0b0b0;stroke-linecap:square;stroke-width:0.8;"/>
     </g>
     <g id="line2d_6">
      <g>
       <use style="stroke:#000000;stroke-width:0.8;" x="230.8608" xlink:href="#mdc6af08ce2" y="298.944"/>
      </g>
     </g>
     <g id="text_3">
      <!-- 4 -->
      <g transform="translate(225.452675 318.861344)scale(0.17 -0.17)">
       <defs>
        <path d="M 37.796875 64.3125 
L 12.890625 25.390625 
L 37.796875 25.390625 
z
M 35.203125 72.90625 
L 47.609375 72.90625 
L 47.609375 25.390625 
L 58.015625 25.390625 
L 58.015625 17.1875 
L 47.609375 17.1875 
L 47.609375 0 
L 37.796875 0 
L 37.796875 17.1875 
L 4.890625 17.1875 
L 4.890625 26.703125 
z
" id="DejaVuSans-52"/>
       </defs>
       <use xlink:href="#DejaVuSans-52"/>
      </g>
     </g>
    </g>
    <g id="xtick_4">
     <g id="line2d_7">
      <path clip-path="url(#p79ae48d9ee)" d="M 317.4912 298.944 
L 317.4912 6.912 
" style="fill:none;stroke:#b0b0b0;stroke-linecap:square;stroke-width:0.8;"/>
     </g>
     <g id="line2d_8">
      <g>
       <use style="stroke:#000000;stroke-width:0.8;" x="317.4912" xlink:href="#mdc6af08ce2" y="298.944"/>
      </g>
     </g>
     <g id="text_4">
      <!-- 6 -->
      <g transform="translate(312.083075 318.861344)scale(0.17 -0.17)">
       <defs>
        <path d="M 33.015625 40.375 
Q 26.375 40.375 22.484375 35.828125 
Q 18.609375 31.296875 18.609375 23.390625 
Q 18.609375 15.53125 22.484375 10.953125 
Q 26.375 6.390625 33.015625 6.390625 
Q 39.65625 6.390625 43.53125 10.953125 
Q 47.40625 15.53125 47.40625 23.390625 
Q 47.40625 31.296875 43.53125 35.828125 
Q 39.65625 40.375 33.015625 40.375 
z
M 52.59375 71.296875 
L 52.59375 62.3125 
Q 48.875 64.0625 45.09375 64.984375 
Q 41.3125 65.921875 37.59375 65.921875 
Q 27.828125 65.921875 22.671875 59.328125 
Q 17.53125 52.734375 16.796875 39.40625 
Q 19.671875 43.65625 24.015625 45.921875 
Q 28.375 48.1875 33.59375 48.1875 
Q 44.578125 48.1875 50.953125 41.515625 
Q 57.328125 34.859375 57.328125 23.390625 
Q 57.328125 12.15625 50.6875 5.359375 
Q 44.046875 -1.421875 33.015625 -1.421875 
Q 20.359375 -1.421875 13.671875 8.265625 
Q 6.984375 17.96875 6.984375 36.375 
Q 6.984375 53.65625 15.1875 63.9375 
Q 23.390625 74.21875 37.203125 74.21875 
Q 40.921875 74.21875 44.703125 73.484375 
Q 48.484375 72.75 52.59375 71.296875 
z
" id="DejaVuSans-54"/>
       </defs>
       <use xlink:href="#DejaVuSans-54"/>
      </g>
     </g>
    </g>
    <g id="xtick_5">
     <g id="line2d_9">
      <path clip-path="url(#p79ae48d9ee)" d="M 100.9152 298.944 
L 100.9152 6.912 
" style="fill:none;stroke:#b0b0b0;stroke-linecap:square;stroke-width:0.8;"/>
     </g>
     <g id="line2d_10">
      <defs>
       <path d="M 0 0 
L 0 2 
" id="m4934438cd6" style="stroke:#000000;stroke-width:0.6;"/>
      </defs>
      <g>
       <use style="stroke:#000000;stroke-width:0.6;" x="100.9152" xlink:href="#m4934438cd6" y="298.944"/>
      </g>
     </g>
    </g>
    <g id="xtick_6">
     <g id="line2d_11">
      <path clip-path="url(#p79ae48d9ee)" d="M 187.5456 298.944 
L 187.5456 6.912 
" style="fill:none;stroke:#b0b0b0;stroke-linecap:square;stroke-width:0.8;"/>
     </g>
     <g id="line2d_12">
      <g>
       <use style="stroke:#000000;stroke-width:0.6;" x="187.5456" xlink:href="#m4934438cd6" y="298.944"/>
      </g>
     </g>
    </g>
    <g id="xtick_7">
     <g id="line2d_13">
      <path clip-path="url(#p79ae48d9ee)" d="M 274.176 298.944 
L 274.176 6.912 
" style="fill:none;stroke:#b0b0b0;stroke-linecap:square;stroke-width:0.8;"/>
     </g>
     <g id="line2d_14">
      <g>
       <use style="stroke:#000000;stroke-width:0.6;" x="274.176" xlink:href="#m4934438cd6" y="298.944"/>
      </g>
     </g>
    </g>
    <g id="xtick_8">
     <g id="line2d_15">
      <path clip-path="url(#p79ae48d9ee)" d="M 360.8064 298.944 
L 360.8064 6.912 
" style="fill:none;stroke:#b0b0b0;stroke-linecap:square;stroke-width:0.8;"/>
     </g>
     <g id="line2d_16">
      <g>
       <use style="stroke:#000000;stroke-width:0.6;" x="360.8064" xlink:href="#m4934438cd6" y="298.944"/>
      </g>
     </g>
    </g>
    <g id="text_5">
     <!-- log10(evals / dimension) -->
     <g transform="translate(104.238825 339.314156)scale(0.17 -0.17)">
      <defs>
       <path d="M 9.421875 75.984375 
L 18.40625 75.984375 
L 18.40625 0 
L 9.421875 0 
z
" id="DejaVuSans-108"/>
       <path d="M 30.609375 48.390625 
Q 23.390625 48.390625 19.1875 42.75 
Q 14.984375 37.109375 14.984375 27.296875 
Q 14.984375 17.484375 19.15625 11.84375 
Q 23.34375 6.203125 30.609375 6.203125 
Q 37.796875 6.203125 41.984375 11.859375 
Q 46.1875 17.53125 46.1875 27.296875 
Q 46.1875 37.015625 41.984375 42.703125 
Q 37.796875 48.390625 30.609375 48.390625 
z
M 30.609375 56 
Q 42.328125 56 49.015625 48.375 
Q 55.71875 40.765625 55.71875 27.296875 
Q 55.71875 13.875 49.015625 6.21875 
Q 42.328125 -1.421875 30.609375 -1.421875 
Q 18.84375 -1.421875 12.171875 6.21875 
Q 5.515625 13.875 5.515625 27.296875 
Q 5.515625 40.765625 12.171875 48.375 
Q 18.84375 56 30.609375 56 
z
" id="DejaVuSans-111"/>
       <path d="M 45.40625 27.984375 
Q 45.40625 37.75 41.375 43.109375 
Q 37.359375 48.484375 30.078125 48.484375 
Q 22.859375 48.484375 18.828125 43.109375 
Q 14.796875 37.75 14.796875 27.984375 
Q 14.796875 18.265625 18.828125 12.890625 
Q 22.859375 7.515625 30.078125 7.515625 
Q 37.359375 7.515625 41.375 12.890625 
Q 45.40625 18.265625 45.40625 27.984375 
z
M 54.390625 6.78125 
Q 54.390625 -7.171875 48.1875 -13.984375 
Q 42 -20.796875 29.203125 -20.796875 
Q 24.46875 -20.796875 20.265625 -20.09375 
Q 16.0625 -19.390625 12.109375 -17.921875 
L 12.109375 -9.1875 
Q 16.0625 -11.328125 19.921875 -12.34375 
Q 23.78125 -13.375 27.78125 -13.375 
Q 36.625 -13.375 41.015625 -8.765625 
Q 45.40625 -4.15625 45.40625 5.171875 
L 45.40625 9.625 
Q 42.625 4.78125 38.28125 2.390625 
Q 33.9375 0 27.875 0 
Q 17.828125 0 11.671875 7.65625 
Q 5.515625 15.328125 5.515625 27.984375 
Q 5.515625 40.671875 11.671875 48.328125 
Q 17.828125 56 27.875 56 
Q 33.9375 56 38.28125 53.609375 
Q 42.625 51.21875 45.40625 46.390625 
L 45.40625 54.6875 
L 54.390625 54.6875 
z
" id="DejaVuSans-103"/>
       <path d="M 12.40625 8.296875 
L 28.515625 8.296875 
L 28.515625 63.921875 
L 10.984375 60.40625 
L 10.984375 69.390625 
L 28.421875 72.90625 
L 38.28125 72.90625 
L 38.28125 8.296875 
L 54.390625 8.296875 
L 54.390625 0 
L 12.40625 0 
z
" id="DejaVuSans-49"/>
       <path d="M 31 75.875 
Q 24.46875 64.65625 21.28125 53.65625 
Q 18.109375 42.671875 18.109375 31.390625 
Q 18.109375 20.125 21.3125 9.0625 
Q 24.515625 -2 31 -13.1875 
L 23.1875 -13.1875 
Q 15.875 -1.703125 12.234375 9.375 
Q 8.59375 20.453125 8.59375 31.390625 
Q 8.59375 42.28125 12.203125 53.3125 
Q 15.828125 64.359375 23.1875 75.875 
z
" id="DejaVuSans-40"/>
       <path d="M 56.203125 29.59375 
L 56.203125 25.203125 
L 14.890625 25.203125 
Q 15.484375 15.921875 20.484375 11.0625 
Q 25.484375 6.203125 34.421875 6.203125 
Q 39.59375 6.203125 44.453125 7.46875 
Q 49.3125 8.734375 54.109375 11.28125 
L 54.109375 2.78125 
Q 49.265625 0.734375 44.1875 -0.34375 
Q 39.109375 -1.421875 33.890625 -1.421875 
Q 20.796875 -1.421875 13.15625 6.1875 
Q 5.515625 13.8125 5.515625 26.8125 
Q 5.515625 40.234375 12.765625 48.109375 
Q 20.015625 56 32.328125 56 
Q 43.359375 56 49.78125 48.890625 
Q 56.203125 41.796875 56.203125 29.59375 
z
M 47.21875 32.234375 
Q 47.125 39.59375 43.09375 43.984375 
Q 39.0625 48.390625 32.421875 48.390625 
Q 24.90625 48.390625 20.390625 44.140625 
Q 15.875 39.890625 15.1875 32.171875 
z
" id="DejaVuSans-101"/>
       <path d="M 2.984375 54.6875 
L 12.5 54.6875 
L 29.59375 8.796875 
L 46.6875 54.6875 
L 56.203125 54.6875 
L 35.6875 0 
L 23.484375 0 
z
" id="DejaVuSans-118"/>
       <path d="M 34.28125 27.484375 
Q 23.390625 27.484375 19.1875 25 
Q 14.984375 22.515625 14.984375 16.5 
Q 14.984375 11.71875 18.140625 8.90625 
Q 21.296875 6.109375 26.703125 6.109375 
Q 34.1875 6.109375 38.703125 11.40625 
Q 43.21875 16.703125 43.21875 25.484375 
L 43.21875 27.484375 
z
M 52.203125 31.203125 
L 52.203125 0 
L 43.21875 0 
L 43.21875 8.296875 
Q 40.140625 3.328125 35.546875 0.953125 
Q 30.953125 -1.421875 24.3125 -1.421875 
Q 15.921875 -1.421875 10.953125 3.296875 
Q 6 8.015625 6 15.921875 
Q 6 25.140625 12.171875 29.828125 
Q 18.359375 34.515625 30.609375 34.515625 
L 43.21875 34.515625 
L 43.21875 35.40625 
Q 43.21875 41.609375 39.140625 45 
Q 35.0625 48.390625 27.6875 48.390625 
Q 23 48.390625 18.546875 47.265625 
Q 14.109375 46.140625 10.015625 43.890625 
L 10.015625 52.203125 
Q 14.9375 54.109375 19.578125 55.046875 
Q 24.21875 56 28.609375 56 
Q 40.484375 56 46.34375 49.84375 
Q 52.203125 43.703125 52.203125 31.203125 
z
" id="DejaVuSans-97"/>
       <path d="M 44.28125 53.078125 
L 44.28125 44.578125 
Q 40.484375 46.53125 36.375 47.5 
Q 32.28125 48.484375 27.875 48.484375 
Q 21.1875 48.484375 17.84375 46.4375 
Q 14.5 44.390625 14.5 40.28125 
Q 14.5 37.15625 16.890625 35.375 
Q 19.28125 33.59375 26.515625 31.984375 
L 29.59375 31.296875 
Q 39.15625 29.25 43.1875 25.515625 
Q 47.21875 21.78125 47.21875 15.09375 
Q 47.21875 7.46875 41.1875 3.015625 
Q 35.15625 -1.421875 24.609375 -1.421875 
Q 20.21875 -1.421875 15.453125 -0.5625 
Q 10.6875 0.296875 5.421875 2 
L 5.421875 11.28125 
Q 10.40625 8.6875 15.234375 7.390625 
Q 20.0625 6.109375 24.8125 6.109375 
Q 31.15625 6.109375 34.5625 8.28125 
Q 37.984375 10.453125 37.984375 14.40625 
Q 37.984375 18.0625 35.515625 20.015625 
Q 33.0625 21.96875 24.703125 23.78125 
L 21.578125 24.515625 
Q 13.234375 26.265625 9.515625 29.90625 
Q 5.8125 33.546875 5.8125 39.890625 
Q 5.8125 47.609375 11.28125 51.796875 
Q 16.75 56 26.8125 56 
Q 31.78125 56 36.171875 55.265625 
Q 40.578125 54.546875 44.28125 53.078125 
z
" id="DejaVuSans-115"/>
       <path id="DejaVuSans-32"/>
       <path d="M 25.390625 72.90625 
L 33.6875 72.90625 
L 8.296875 -9.28125 
L 0 -9.28125 
z
" id="DejaVuSans-47"/>
       <path d="M 45.40625 46.390625 
L 45.40625 75.984375 
L 54.390625 75.984375 
L 54.390625 0 
L 45.40625 0 
L 45.40625 8.203125 
Q 42.578125 3.328125 38.25 0.953125 
Q 33.9375 -1.421875 27.875 -1.421875 
Q 17.96875 -1.421875 11.734375 6.484375 
Q 5.515625 14.40625 5.515625 27.296875 
Q 5.515625 40.1875 11.734375 48.09375 
Q 17.96875 56 27.875 56 
Q 33.9375 56 38.25 53.625 
Q 42.578125 51.265625 45.40625 46.390625 
z
M 14.796875 27.296875 
Q 14.796875 17.390625 18.875 11.75 
Q 22.953125 6.109375 30.078125 6.109375 
Q 37.203125 6.109375 41.296875 11.75 
Q 45.40625 17.390625 45.40625 27.296875 
Q 45.40625 37.203125 41.296875 42.84375 
Q 37.203125 48.484375 30.078125 48.484375 
Q 22.953125 48.484375 18.875 42.84375 
Q 14.796875 37.203125 14.796875 27.296875 
z
" id="DejaVuSans-100"/>
       <path d="M 9.421875 54.6875 
L 18.40625 54.6875 
L 18.40625 0 
L 9.421875 0 
z
M 9.421875 75.984375 
L 18.40625 75.984375 
L 18.40625 64.59375 
L 9.421875 64.59375 
z
" id="DejaVuSans-105"/>
       <path d="M 52 44.1875 
Q 55.375 50.25 60.0625 53.125 
Q 64.75 56 71.09375 56 
Q 79.640625 56 84.28125 50.015625 
Q 88.921875 44.046875 88.921875 33.015625 
L 88.921875 0 
L 79.890625 0 
L 79.890625 32.71875 
Q 79.890625 40.578125 77.09375 44.375 
Q 74.3125 48.1875 68.609375 48.1875 
Q 61.625 48.1875 57.5625 43.546875 
Q 53.515625 38.921875 53.515625 30.90625 
L 53.515625 0 
L 44.484375 0 
L 44.484375 32.71875 
Q 44.484375 40.625 41.703125 44.40625 
Q 38.921875 48.1875 33.109375 48.1875 
Q 26.21875 48.1875 22.15625 43.53125 
Q 18.109375 38.875 18.109375 30.90625 
L 18.109375 0 
L 9.078125 0 
L 9.078125 54.6875 
L 18.109375 54.6875 
L 18.109375 46.1875 
Q 21.1875 51.21875 25.484375 53.609375 
Q 29.78125 56 35.6875 56 
Q 41.65625 56 45.828125 52.96875 
Q 50 49.953125 52 44.1875 
z
" id="DejaVuSans-109"/>
       <path d="M 54.890625 33.015625 
L 54.890625 0 
L 45.90625 0 
L 45.90625 32.71875 
Q 45.90625 40.484375 42.875 44.328125 
Q 39.84375 48.1875 33.796875 48.1875 
Q 26.515625 48.1875 22.3125 43.546875 
Q 18.109375 38.921875 18.109375 30.90625 
L 18.109375 0 
L 9.078125 0 
L 9.078125 54.6875 
L 18.109375 54.6875 
L 18.109375 46.1875 
Q 21.34375 51.125 25.703125 53.5625 
Q 30.078125 56 35.796875 56 
Q 45.21875 56 50.046875 50.171875 
Q 54.890625 44.34375 54.890625 33.015625 
z
" id="DejaVuSans-110"/>
       <path d="M 8.015625 75.875 
L 15.828125 75.875 
Q 23.140625 64.359375 26.78125 53.3125 
Q 30.421875 42.28125 30.421875 31.390625 
Q 30.421875 20.453125 26.78125 9.375 
Q 23.140625 -1.703125 15.828125 -13.1875 
L 8.015625 -13.1875 
Q 14.5 -2 17.703125 9.0625 
Q 20.90625 20.125 20.90625 31.390625 
Q 20.90625 42.671875 17.703125 53.65625 
Q 14.5 64.65625 8.015625 75.875 
z
" id="DejaVuSans-41"/>
      </defs>
      <use xlink:href="#DejaVuSans-108"/>
      <use x="27.783203" xlink:href="#DejaVuSans-111"/>
      <use x="88.964844" xlink:href="#DejaVuSans-103"/>
      <use x="152.441406" xlink:href="#DejaVuSans-49"/>
      <use x="216.064453" xlink:href="#DejaVuSans-48"/>
      <use x="279.6875" xlink:href="#DejaVuSans-40"/>
      <use x="318.701172" xlink:href="#DejaVuSans-101"/>
      <use x="380.224609" xlink:href="#DejaVuSans-118"/>
      <use x="439.404297" xlink:href="#DejaVuSans-97"/>
      <use x="500.683594" xlink:href="#DejaVuSans-108"/>
      <use x="528.466797" xlink:href="#DejaVuSans-115"/>
      <use x="580.566406" xlink:href="#DejaVuSans-32"/>
      <use x="612.353516" xlink:href="#DejaVuSans-47"/>
      <use x="646.044922" xlink:href="#DejaVuSans-32"/>
      <use x="677.832031" xlink:href="#DejaVuSans-100"/>
      <use x="741.308594" xlink:href="#DejaVuSans-105"/>
      <use x="769.091797" xlink:href="#DejaVuSans-109"/>
      <use x="866.503906" xlink:href="#DejaVuSans-101"/>
      <use x="928.027344" xlink:href="#DejaVuSans-110"/>
      <use x="991.40625" xlink:href="#DejaVuSans-115"/>
      <use x="1043.505859" xlink:href="#DejaVuSans-105"/>
      <use x="1071.289062" xlink:href="#DejaVuSans-111"/>
      <use x="1132.470703" xlink:href="#DejaVuSans-110"/>
      <use x="1195.849609" xlink:href="#DejaVuSans-41"/>
     </g>
    </g>
   </g>
   <g id="matplotlib.axis_2">
    <g id="ytick_1">
     <g id="line2d_17">
      <path clip-path="url(#p79ae48d9ee)" d="M 57.6 298.944 
L 360.8064 298.944 
" style="fill:none;stroke:#b0b0b0;stroke-linecap:square;stroke-width:0.8;"/>
     </g>
     <g id="line2d_18">
      <defs>
       <path d="M 0 0 
L -3.5 0 
" id="m69454c18cb" style="stroke:#000000;stroke-width:0.8;"/>
      </defs>
      <g>
       <use style="stroke:#000000;stroke-width:0.8;" x="57.6" xlink:href="#m69454c18cb" y="298.944"/>
      </g>
     </g>
     <g id="text_6">
      <!-- 0.0 -->
      <g transform="translate(25.155 305.02275)scale(0.16 -0.16)">
       <defs>
        <path d="M 10.6875 12.40625 
L 21 12.40625 
L 21 0 
L 10.6875 0 
z
" id="DejaVuSans-46"/>
       </defs>
       <use xlink:href="#DejaVuSans-48"/>
       <use x="63.623047" xlink:href="#DejaVuSans-46"/>
       <use x="95.410156" xlink:href="#DejaVuSans-48"/>
      </g>
     </g>
    </g>
    <g id="ytick_2">
     <g id="line2d_19">
      <path clip-path="url(#p79ae48d9ee)" d="M 57.6 240.5376 
L 360.8064 240.5376 
" style="fill:none;stroke:#b0b0b0;stroke-linecap:square;stroke-width:0.8;"/>
     </g>
     <g id="line2d_20">
      <g>
       <use style="stroke:#000000;stroke-width:0.8;" x="57.6" xlink:href="#m69454c18cb" y="240.5376"/>
      </g>
     </g>
     <g id="text_7">
      <!-- 0.2 -->
      <g transform="translate(25.155 246.61635)scale(0.16 -0.16)">
       <use xlink:href="#DejaVuSans-48"/>
       <use x="63.623047" xlink:href="#DejaVuSans-46"/>
       <use x="95.410156" xlink:href="#DejaVuSans-50"/>
      </g>
     </g>
    </g>
    <g id="ytick_3">
     <g id="line2d_21">
      <path clip-path="url(#p79ae48d9ee)" d="M 57.6 182.1312 
L 360.8064 182.1312 
" style="fill:none;stroke:#b0b0b0;stroke-linecap:square;stroke-width:0.8;"/>
     </g>
     <g id="line2d_22">
      <g>
       <use style="stroke:#000000;stroke-width:0.8;" x="57.6" xlink:href="#m69454c18cb" y="182.1312"/>
      </g>
     </g>
     <g id="text_8">
      <!-- 0.4 -->
      <g transform="translate(25.155 188.20995)scale(0.16 -0.16)">
       <use xlink:href="#DejaVuSans-48"/>
       <use x="63.623047" xlink:href="#DejaVuSans-46"/>
       <use x="95.410156" xlink:href="#DejaVuSans-52"/>
      </g>
     </g>
    </g>
    <g id="ytick_4">
     <g id="line2d_23">
      <path clip-path="url(#p79ae48d9ee)" d="M 57.6 123.7248 
L 360.8064 123.7248 
" style="fill:none;stroke:#b0b0b0;stroke-linecap:square;stroke-width:0.8;"/>
     </g>
     <g id="line2d_24">
      <g>
       <use style="stroke:#000000;stroke-width:0.8;" x="57.6" xlink:href="#m69454c18cb" y="123.7248"/>
      </g>
     </g>
     <g id="text_9">
      <!-- 0.6 -->
      <g transform="translate(25.155 129.80355)scale(0.16 -0.16)">
       <use xlink:href="#DejaVuSans-48"/>
       <use x="63.623047" xlink:href="#DejaVuSans-46"/>
       <use x="95.410156" xlink:href="#DejaVuSans-54"/>
      </g>
     </g>
    </g>
    <g id="ytick_5">
     <g id="line2d_25">
      <path clip-path="url(#p79ae48d9ee)" d="M 57.6 65.3184 
L 360.8064 65.3184 
" style="fill:none;stroke:#b0b0b0;stroke-linecap:square;stroke-width:0.8;"/>
     </g>
     <g id="line2d_26">
      <g>
       <use style="stroke:#000000;stroke-width:0.8;" x="57.6" xlink:href="#m69454c18cb" y="65.3184"/>
      </g>
     </g>
     <g id="text_10">
      <!-- 0.8 -->
      <g transform="translate(25.155 71.39715)scale(0.16 -0.16)">
       <defs>
        <path d="M 31.78125 34.625 
Q 24.75 34.625 20.71875 30.859375 
Q 16.703125 27.09375 16.703125 20.515625 
Q 16.703125 13.921875 20.71875 10.15625 
Q 24.75 6.390625 31.78125 6.390625 
Q 38.8125 6.390625 42.859375 10.171875 
Q 46.921875 13.96875 46.921875 20.515625 
Q 46.921875 27.09375 42.890625 30.859375 
Q 38.875 34.625 31.78125 34.625 
z
M 21.921875 38.8125 
Q 15.578125 40.375 12.03125 44.71875 
Q 8.5 49.078125 8.5 55.328125 
Q 8.5 64.0625 14.71875 69.140625 
Q 20.953125 74.21875 31.78125 74.21875 
Q 42.671875 74.21875 48.875 69.140625 
Q 55.078125 64.0625 55.078125 55.328125 
Q 55.078125 49.078125 51.53125 44.71875 
Q 48 40.375 41.703125 38.8125 
Q 48.828125 37.15625 52.796875 32.3125 
Q 56.78125 27.484375 56.78125 20.515625 
Q 56.78125 9.90625 50.3125 4.234375 
Q 43.84375 -1.421875 31.78125 -1.421875 
Q 19.734375 -1.421875 13.25 4.234375 
Q 6.78125 9.90625 6.78125 20.515625 
Q 6.78125 27.484375 10.78125 32.3125 
Q 14.796875 37.15625 21.921875 38.8125 
z
M 18.3125 54.390625 
Q 18.3125 48.734375 21.84375 45.5625 
Q 25.390625 42.390625 31.78125 42.390625 
Q 38.140625 42.390625 41.71875 45.5625 
Q 45.3125 48.734375 45.3125 54.390625 
Q 45.3125 60.0625 41.71875 63.234375 
Q 38.140625 66.40625 31.78125 66.40625 
Q 25.390625 66.40625 21.84375 63.234375 
Q 18.3125 60.0625 18.3125 54.390625 
z
" id="DejaVuSans-56"/>
       </defs>
       <use xlink:href="#DejaVuSans-48"/>
       <use x="63.623047" xlink:href="#DejaVuSans-46"/>
       <use x="95.410156" xlink:href="#DejaVuSans-56"/>
      </g>
     </g>
    </g>
    <g id="ytick_6">
     <g id="line2d_27">
      <path clip-path="url(#p79ae48d9ee)" d="M 57.6 6.912 
L 360.8064 6.912 
" style="fill:none;stroke:#b0b0b0;stroke-linecap:square;stroke-width:0.8;"/>
     </g>
     <g id="line2d_28">
      <g>
       <use style="stroke:#000000;stroke-width:0.8;" x="57.6" xlink:href="#m69454c18cb" y="6.912"/>
      </g>
     </g>
     <g id="text_11">
      <!-- 1.0 -->
      <g transform="translate(25.155 12.99075)scale(0.16 -0.16)">
       <use xlink:href="#DejaVuSans-49"/>
       <use x="63.623047" xlink:href="#DejaVuSans-46"/>
       <use x="95.410156" xlink:href="#DejaVuSans-48"/>
      </g>
     </g>
    </g>
    <g id="text_12">
     <!-- Fraction of function,target pairs -->
     <g transform="translate(17.619531 287.313)rotate(-90)scale(0.17 -0.17)">
      <defs>
       <path d="M 9.8125 72.90625 
L 51.703125 72.90625 
L 51.703125 64.59375 
L 19.671875 64.59375 
L 19.671875 43.109375 
L 48.578125 43.109375 
L 48.578125 34.8125 
L 19.671875 34.8125 
L 19.671875 0 
L 9.8125 0 
z
" id="DejaVuSans-70"/>
       <path d="M 41.109375 46.296875 
Q 39.59375 47.171875 37.8125 47.578125 
Q 36.03125 48 33.890625 48 
Q 26.265625 48 22.1875 43.046875 
Q 18.109375 38.09375 18.109375 28.8125 
L 18.109375 0 
L 9.078125 0 
L 9.078125 54.6875 
L 18.109375 54.6875 
L 18.109375 46.1875 
Q 20.953125 51.171875 25.484375 53.578125 
Q 30.03125 56 36.53125 56 
Q 37.453125 56 38.578125 55.875 
Q 39.703125 55.765625 41.0625 55.515625 
z
" id="DejaVuSans-114"/>
       <path d="M 48.78125 52.59375 
L 48.78125 44.1875 
Q 44.96875 46.296875 41.140625 47.34375 
Q 37.3125 48.390625 33.40625 48.390625 
Q 24.65625 48.390625 19.8125 42.84375 
Q 14.984375 37.3125 14.984375 27.296875 
Q 14.984375 17.28125 19.8125 11.734375 
Q 24.65625 6.203125 33.40625 6.203125 
Q 37.3125 6.203125 41.140625 7.25 
Q 44.96875 8.296875 48.78125 10.40625 
L 48.78125 2.09375 
Q 45.015625 0.34375 40.984375 -0.53125 
Q 36.96875 -1.421875 32.421875 -1.421875 
Q 20.0625 -1.421875 12.78125 6.34375 
Q 5.515625 14.109375 5.515625 27.296875 
Q 5.515625 40.671875 12.859375 48.328125 
Q 20.21875 56 33.015625 56 
Q 37.15625 56 41.109375 55.140625 
Q 45.0625 54.296875 48.78125 52.59375 
z
" id="DejaVuSans-99"/>
       <path d="M 18.3125 70.21875 
L 18.3125 54.6875 
L 36.8125 54.6875 
L 36.8125 47.703125 
L 18.3125 47.703125 
L 18.3125 18.015625 
Q 18.3125 11.328125 20.140625 9.421875 
Q 21.96875 7.515625 27.59375 7.515625 
L 36.8125 7.515625 
L 36.8125 0 
L 27.59375 0 
Q 17.1875 0 13.234375 3.875 
Q 9.28125 7.765625 9.28125 18.015625 
L 9.28125 47.703125 
L 2.6875 47.703125 
L 2.6875 54.6875 
L 9.28125 54.6875 
L 9.28125 70.21875 
z
" id="DejaVuSans-116"/>
       <path d="M 37.109375 75.984375 
L 37.109375 68.5 
L 28.515625 68.5 
Q 23.6875 68.5 21.796875 66.546875 
Q 19.921875 64.59375 19.921875 59.515625 
L 19.921875 54.6875 
L 34.71875 54.6875 
L 34.71875 47.703125 
L 19.921875 47.703125 
L 19.921875 0 
L 10.890625 0 
L 10.890625 47.703125 
L 2.296875 47.703125 
L 2.296875 54.6875 
L 10.890625 54.6875 
L 10.890625 58.5 
Q 10.890625 67.625 15.140625 71.796875 
Q 19.390625 75.984375 28.609375 75.984375 
z
" id="DejaVuSans-102"/>
       <path d="M 8.5 21.578125 
L 8.5 54.6875 
L 17.484375 54.6875 
L 17.484375 21.921875 
Q 17.484375 14.15625 20.5 10.265625 
Q 23.53125 6.390625 29.59375 6.390625 
Q 36.859375 6.390625 41.078125 11.03125 
Q 45.3125 15.671875 45.3125 23.6875 
L 45.3125 54.6875 
L 54.296875 54.6875 
L 54.296875 0 
L 45.3125 0 
L 45.3125 8.40625 
Q 42.046875 3.421875 37.71875 1 
Q 33.40625 -1.421875 27.6875 -1.421875 
Q 18.265625 -1.421875 13.375 4.4375 
Q 8.5 10.296875 8.5 21.578125 
z
M 31.109375 56 
z
" id="DejaVuSans-117"/>
       <path d="M 11.71875 12.40625 
L 22.015625 12.40625 
L 22.015625 4 
L 14.015625 -11.625 
L 7.71875 -11.625 
L 11.71875 4 
z
" id="DejaVuSans-44"/>
       <path d="M 18.109375 8.203125 
L 18.109375 -20.796875 
L 9.078125 -20.796875 
L 9.078125 54.6875 
L 18.109375 54.6875 
L 18.109375 46.390625 
Q 20.953125 51.265625 25.265625 53.625 
Q 29.59375 56 35.59375 56 
Q 45.5625 56 51.78125 48.09375 
Q 58.015625 40.1875 58.015625 27.296875 
Q 58.015625 14.40625 51.78125 6.484375 
Q 45.5625 -1.421875 35.59375 -1.421875 
Q 29.59375 -1.421875 25.265625 0.953125 
Q 20.953125 3.328125 18.109375 8.203125 
z
M 48.6875 27.296875 
Q 48.6875 37.203125 44.609375 42.84375 
Q 40.53125 48.484375 33.40625 48.484375 
Q 26.265625 48.484375 22.1875 42.84375 
Q 18.109375 37.203125 18.109375 27.296875 
Q 18.109375 17.390625 22.1875 11.75 
Q 26.265625 6.109375 33.40625 6.109375 
Q 40.53125 6.109375 44.609375 11.75 
Q 48.6875 17.390625 48.6875 27.296875 
z
" id="DejaVuSans-112"/>
      </defs>
      <use xlink:href="#DejaVuSans-70"/>
      <use x="50.269531" xlink:href="#DejaVuSans-114"/>
      <use x="91.382812" xlink:href="#DejaVuSans-97"/>
      <use x="152.662109" xlink:href="#DejaVuSans-99"/>
      <use x="207.642578" xlink:href="#DejaVuSans-116"/>
      <use x="246.851562" xlink:href="#DejaVuSans-105"/>
      <use x="274.634766" xlink:href="#DejaVuSans-111"/>
      <use x="335.816406" xlink:href="#DejaVuSans-110"/>
      <use x="399.195312" xlink:href="#DejaVuSans-32"/>
      <use x="430.982422" xlink:href="#DejaVuSans-111"/>
      <use x="492.164062" xlink:href="#DejaVuSans-102"/>
      <use x="527.369141" xlink:href="#DejaVuSans-32"/>
      <use x="559.15625" xlink:href="#DejaVuSans-102"/>
      <use x="594.361328" xlink:href="#DejaVuSans-117"/>
      <use x="657.740234" xlink:href="#DejaVuSans-110"/>
      <use x="721.119141" xlink:href="#DejaVuSans-99"/>
      <use x="776.099609" xlink:href="#DejaVuSans-116"/>
      <use x="815.308594" xlink:href="#DejaVuSans-105"/>
      <use x="843.091797" xlink:href="#DejaVuSans-111"/>
      <use x="904.273438" xlink:href="#DejaVuSans-110"/>
      <use x="967.652344" xlink:href="#DejaVuSans-44"/>
      <use x="999.439453" xlink:href="#DejaVuSans-116"/>
      <use x="1038.648438" xlink:href="#DejaVuSans-97"/>
      <use x="1099.927734" xlink:href="#DejaVuSans-114"/>
      <use x="1139.291016" xlink:href="#DejaVuSans-103"/>
      <use x="1202.767578" xlink:href="#DejaVuSans-101"/>
      <use x="1264.291016" xlink:href="#DejaVuSans-116"/>
      <use x="1303.5" xlink:href="#DejaVuSans-32"/>
      <use x="1335.287109" xlink:href="#DejaVuSans-112"/>
      <use x="1398.763672" xlink:href="#DejaVuSans-97"/>
      <use x="1460.042969" xlink:href="#DejaVuSans-105"/>
      <use x="1487.826172" xlink:href="#DejaVuSans-114"/>
      <use x="1528.939453" xlink:href="#DejaVuSans-115"/>
     </g>
    </g>
   </g>
   <g id="line2d_29">
    <defs>
     <path d="M 0 1.5 
C 0.397805 1.5 0.77937 1.341951 1.06066 1.06066 
C 1.341951 0.77937 1.5 0.397805 1.5 0 
C 1.5 -0.397805 1.341951 -0.77937 1.06066 -1.06066 
C 0.77937 -1.341951 0.397805 -1.5 0 -1.5 
C -0.397805 -1.5 -0.77937 -1.341951 -1.06066 -1.06066 
C -1.341951 -0.77937 -1.5 -0.397805 -1.5 0 
C -1.5 0.397805 -1.341951 0.77937 -1.06066 1.06066 
C -0.77937 1.341951 -0.397805 1.5 0 1.5 
z
" id="m9c66246ccd" style="stroke:#000080;"/>
    </defs>
    <g>
     <use style="fill:#000080;stroke:#000080;" x="314.806303" xlink:href="#m9c66246ccd" y="33.028683"/>
     <use style="fill:#000080;stroke:#000080;" x="314.806303" xlink:href="#m9c66246ccd" y="33.028683"/>
    </g>
   </g>
   <g id="line2d_30">
    <path d="M 61.029752 298.944 
L 61.029752 298.838478 
L 66.441498 298.838478 
L 66.441498 298.680195 
L 70.639174 298.680195 
L 70.639174 297.88878 
L 74.068926 297.88878 
L 74.068926 297.255649 
L 79.480672 297.255649 
L 79.480672 278.789307 
L 81.696354 278.789307 
L 81.696354 260.586771 
L 83.678349 260.586771 
L 83.678349 257.579395 
L 85.471281 257.579395 
L 85.471281 256.154849 
L 87.1081 256.154849 
L 87.1081 254.04441 
L 88.613828 254.04441 
L 88.613828 252.250537 
L 90.007914 252.250537 
L 90.007914 249.876293 
L 91.305777 249.876293 
L 91.305777 248.187941 
L 92.519847 248.187941 
L 92.519847 247.396527 
L 93.66029 247.396527 
L 93.66029 246.130263 
L 94.735529 246.130263 
L 94.735529 244.864 
L 95.752617 244.864 
L 95.752617 242.806322 
L 96.717523 242.806322 
L 96.717523 241.487298 
L 97.635342 241.487298 
L 97.635342 239.218576 
L 98.510456 239.218576 
L 98.510456 237.741268 
L 99.346662 237.741268 
L 99.346662 234.628371 
L 100.147275 234.628371 
L 100.147275 233.098302 
L 100.9152 233.098302 
L 100.9152 231.673756 
L 101.653002 231.673756 
L 101.653002 231.040624 
L 102.362957 231.040624 
L 102.362957 229.879883 
L 103.047088 229.879883 
L 103.047088 227.927727 
L 103.707211 227.927727 
L 103.707211 226.397659 
L 104.344952 226.397659 
L 104.344952 224.762068 
L 104.961779 224.762068 
L 104.961779 222.282302 
L 105.559021 222.282302 
L 105.559021 220.330146 
L 106.137884 220.330146 
L 106.137884 218.536273 
L 106.699465 218.536273 
L 106.699465 217.164488 
L 107.244765 217.164488 
L 107.244765 215.63442 
L 107.774703 215.63442 
L 107.774703 213.682263 
L 108.29012 213.682263 
L 108.29012 211.255259 
L 108.791791 211.255259 
L 108.791791 209.72519 
L 109.280431 209.72519 
L 109.280431 207.350946 
L 109.756698 207.350946 
L 109.756698 206.612293 
L 110.221204 206.612293 
L 110.221204 204.607376 
L 110.674517 204.607376 
L 110.674517 202.760741 
L 111.117162 202.760741 
L 111.117162 200.861346 
L 111.54963 200.861346 
L 111.54963 199.384039 
L 111.97238 199.384039 
L 111.97238 198.117776 
L 112.385837 198.117776 
L 112.385837 197.115317 
L 112.790402 197.115317 
L 112.790402 195.954576 
L 113.186449 195.954576 
L 113.186449 194.793834 
L 113.57433 194.793834 
L 113.57433 193.949659 
L 113.954374 193.949659 
L 113.954374 192.366829 
L 114.326893 192.366829 
L 114.326893 189.887063 
L 114.692177 189.887063 
L 114.692177 188.409756 
L 115.050503 188.409756 
L 115.050503 187.090732 
L 115.402131 187.090732 
L 115.402131 185.92999 
L 115.747307 185.92999 
L 115.747307 185.085815 
L 116.086263 185.085815 
L 116.086263 183.872312 
L 116.419219 183.872312 
L 116.419219 182.553288 
L 116.746385 182.553288 
L 116.746385 181.761873 
L 117.067958 181.761873 
L 117.067958 180.864937 
L 117.384126 180.864937 
L 117.384126 179.809717 
L 117.695068 179.809717 
L 117.695068 178.807259 
L 118.000953 178.807259 
L 118.000953 177.488234 
L 118.301945 177.488234 
L 118.301945 176.16921 
L 118.598196 176.16921 
L 118.598196 174.797424 
L 118.889854 174.797424 
L 118.889854 173.583922 
L 119.177058 173.583922 
L 119.177058 172.845268 
L 119.459944 172.845268 
L 119.459944 171.790049 
L 119.738639 171.790049 
L 119.738639 170.523785 
L 120.013265 170.523785 
L 120.013265 169.785132 
L 120.28394 169.785132 
L 120.28394 168.518868 
L 120.550775 168.518868 
L 120.550775 167.780215 
L 120.813877 167.780215 
L 120.813877 167.094322 
L 121.073351 167.094322 
L 121.073351 166.039102 
L 121.329295 166.039102 
L 121.329295 164.509034 
L 121.581803 164.509034 
L 121.581803 163.981424 
L 121.830966 163.981424 
L 121.830966 162.978966 
L 122.076872 162.978966 
L 122.076872 162.187551 
L 122.319605 162.187551 
L 122.319605 161.60718 
L 122.559246 161.60718 
L 122.559246 160.604722 
L 122.795872 160.604722 
L 122.795872 159.866068 
L 123.029559 159.866068 
L 123.029559 159.338459 
L 123.260379 159.338459 
L 123.260379 158.652566 
L 123.4884 158.652566 
L 123.4884 157.755629 
L 123.713691 157.755629 
L 123.713691 157.439063 
L 123.936316 157.439063 
L 123.936316 157.122498 
L 124.156336 157.122498 
L 124.156336 156.542127 
L 124.373813 156.542127 
L 124.373813 156.067278 
L 124.588805 156.067278 
L 124.588805 155.697951 
L 124.801367 155.697951 
L 124.801367 155.06482 
L 125.011554 155.06482 
L 125.011554 154.695493 
L 125.219419 154.695493 
L 125.219419 154.326166 
L 125.425011 154.326166 
L 125.425011 153.956839 
L 125.628382 153.956839 
L 125.628382 153.534751 
L 125.829577 153.534751 
L 125.829577 153.218185 
L 126.028642 153.218185 
L 126.028642 152.743337 
L 126.225624 152.743337 
L 126.225624 152.479532 
L 126.420564 152.479532 
L 126.420564 152.321249 
L 126.804487 152.215727 
L 126.804487 152.057444 
L 126.993549 152.057444 
L 126.993549 151.793639 
L 127.18073 151.793639 
L 127.18073 151.582595 
L 127.549596 151.529834 
L 127.549596 151.371551 
L 127.731351 151.371551 
L 127.731351 151.213268 
L 127.911368 151.213268 
L 127.911368 150.896702 
L 128.089678 150.896702 
L 128.089678 150.685659 
L 128.614685 150.580137 
L 128.614685 150.474615 
L 129.125437 150.421854 
L 129.125437 150.316332 
L 129.622688 150.316332 
L 129.622688 150.052527 
L 130.265881 149.947005 
L 130.265881 149.894244 
L 130.734242 149.841483 
L 130.734242 149.735961 
L 131.341119 149.630439 
L 131.341119 149.577678 
L 131.783764 149.472156 
L 131.783764 149.419395 
L 132.073179 149.366634 
L 132.073179 149.261112 
L 132.915628 149.15559 
L 132.915628 149.050068 
L 134.112526 148.944546 
L 134.112526 148.786263 
L 134.745971 148.680741 
L 134.745971 148.62798 
L 135.116046 148.522459 
L 135.116046 148.469698 
L 135.952253 148.364176 
L 135.952253 148.311415 
L 136.413909 148.205893 
L 136.413909 148.153132 
L 136.527575 148.153132 
L 136.527575 147.994849 
L 136.864507 147.889327 
L 136.864507 147.836566 
L 137.627979 147.731044 
L 137.627979 147.625522 
L 138.36167 147.52 
L 138.36167 147.467239 
L 139.264798 147.361717 
L 139.264798 147.256195 
L 139.652679 147.150673 
L 139.652679 147.097912 
L 140.312801 146.99239 
L 140.312801 146.886868 
L 141.56737 146.781346 
L 141.65386 146.623063 
L 141.910969 146.570302 
L 141.910969 146.46478 
L 142.905644 146.359259 
L 142.905644 146.200976 
L 143.38393 146.095454 
L 143.38393 146.042693 
L 144.041338 145.937171 
L 144.041338 145.88441 
L 144.454795 145.778888 
L 144.454795 145.673366 
L 144.85936 145.567844 
L 144.968202 145.462322 
L 145.7477 145.409561 
L 145.7477 145.304039 
L 146.957431 145.198517 
L 146.957431 145.092995 
L 148.094045 144.987473 
L 148.155221 144.881951 
L 149.107908 144.776429 
L 149.107908 144.723668 
L 149.395993 144.618146 
L 149.453084 144.512624 
L 150.042308 144.407102 
L 150.124997 144.30158 
L 150.316534 144.196059 
L 150.316534 144.143298 
L 150.747146 144.037776 
L 150.8268 143.932254 
L 150.985103 143.826732 
L 150.985103 143.773971 
L 151.375128 143.668449 
L 151.477784 143.457405 
L 151.932924 143.351883 
L 152.032588 143.140839 
L 152.106991 143.035317 
L 152.15643 142.929795 
L 152.835271 142.824273 
L 152.835271 142.771512 
L 153.235783 142.718751 
L 153.328795 142.296663 
L 153.536404 142.296663 
L 153.536404 142.13838 
L 153.944874 142.032859 
L 153.944874 141.980098 
L 154.190197 141.874576 
L 154.190197 141.716293 
L 154.843441 141.610771 
L 154.950144 141.505249 
L 155.412574 141.399727 
L 155.412574 141.346966 
L 156.105602 141.241444 
L 156.185481 141.135922 
L 157.004352 141.0304 
L 157.004352 140.977639 
L 157.419468 140.872117 
L 157.438121 140.766595 
L 157.971166 140.661073 
L 158.07959 140.555551 
L 158.471883 140.450029 
L 158.471883 140.397268 
L 158.752135 140.291746 
L 158.752135 140.238985 
L 159.300416 140.133463 
L 159.300416 140.080702 
L 159.865969 139.97518 
L 159.865969 139.92242 
L 160.82432 139.816898 
L 160.82432 139.764137 
L 162.262846 139.658615 
L 162.320462 139.553093 
L 163.328465 139.447571 
L 163.328465 139.39481 
L 163.892451 139.289288 
L 163.997986 138.919961 
L 164.336942 138.814439 
L 164.336942 138.761678 
L 164.9471 138.656156 
L 164.9471 138.550634 
L 165.562313 138.445112 
L 165.610672 138.33959 
L 166.134572 138.234068 
L 166.134572 138.181307 
L 166.826251 138.075785 
L 166.894041 137.970263 
L 167.229371 137.917502 
L 167.295726 137.75922 
L 169.104709 137.653698 
L 169.204718 137.548176 
L 169.363634 137.442654 
L 169.363634 137.389893 
L 169.967056 137.284371 
L 169.967056 137.23161 
L 170.708911 137.126088 
L 170.708911 137.073327 
L 170.946803 136.967805 
L 171.055593 136.545717 
L 171.199675 136.440195 
L 171.271304 136.018107 
L 171.413749 135.912585 
L 171.519879 135.279454 
L 171.695443 135.173932 
L 171.782615 135.015649 
L 171.852062 134.962888 
L 171.921254 134.488039 
L 171.990192 134.382517 
L 172.093129 134.171473 
L 172.549496 134.065951 
L 172.549496 134.01319 
L 173.793288 133.907668 
L 173.793288 133.854907 
L 174.241203 133.749385 
L 174.286936 133.643863 
L 175.265921 133.538341 
L 175.265921 133.48558 
L 176.510229 133.380059 
L 176.510229 133.327298 
L 177.109374 133.221776 
L 177.213919 133.116254 
L 177.453477 133.063493 
L 177.453477 132.90521 
L 177.86078 132.799688 
L 177.86078 132.746927 
L 178.443458 132.641405 
L 178.443458 132.588644 
L 179.470823 132.483122 
L 179.540047 132.3776 
L 180.548951 132.272078 
L 180.548951 132.219317 
L 180.792944 132.113795 
L 180.857477 131.955512 
L 181.496113 131.84999 
L 181.496113 131.797229 
L 182.078592 131.691707 
L 182.078592 131.638946 
L 182.442328 131.533424 
L 182.506372 131.427902 
L 182.765239 131.375141 
L 182.765239 131.26962 
L 183.651154 131.164098 
L 183.734269 130.478205 
L 183.771091 130.478205 
L 183.881127 129.528507 
L 183.999611 129.422985 
L 184.090247 128.842615 
L 184.12638 128.789854 
L 184.234363 128.209483 
L 184.625082 128.103961 
L 184.625082 127.998439 
L 185.91562 127.892917 
L 185.91562 127.840156 
L 188.470584 127.734634 
L 188.470584 127.681873 
L 188.857002 127.576351 
L 188.857002 127.52359 
L 190.259608 127.418068 
L 190.259608 127.365307 
L 190.655995 127.259785 
L 190.7419 127.048741 
L 191.224515 126.94322 
L 191.329418 126.204566 
L 191.390853 126.151805 
L 191.494836 125.413151 
L 191.555734 125.307629 
L 191.658811 124.885541 
L 192.003328 124.78002 
L 192.095128 124.674498 
L 192.961108 124.568976 
L 192.961108 124.516215 
L 196.311701 124.410693 
L 196.398851 124.25241 
L 196.616139 124.146888 
L 196.718074 122.933385 
L 196.745779 122.880624 
L 196.851604 121.878166 
L 196.920301 121.772644 
L 197.002408 121.456078 
L 197.210623 121.350556 
L 197.242107 121.245034 
L 198.003919 121.139512 
L 198.003919 121.086751 
L 200.822177 120.981229 
L 200.888931 120.717424 
L 200.984936 120.611902 
L 201.080455 119.92601 
L 201.222829 119.820488 
L 201.222829 119.767727 
L 201.561623 119.662205 
L 201.593742 119.556683 
L 201.980204 119.503922 
L 202.001152 119.345639 
L 202.476635 119.240117 
L 202.476635 119.187356 
L 202.932093 119.081834 
L 203.024851 118.765268 
L 203.274341 118.659746 
L 203.376785 118.026615 
L 203.428608 117.921093 
L 203.531826 117.182439 
L 203.711107 117.076917 
L 203.820713 116.760351 
L 203.838127 116.70759 
L 203.94857 116.021698 
L 204.008254 115.916176 
L 204.030196 115.59961 
L 204.18618 115.494088 
L 204.276061 115.124761 
L 204.336258 115.019239 
L 204.434628 114.702673 
L 204.908442 114.597151 
L 204.908442 114.54439 
L 205.624153 114.438868 
L 205.624153 114.386107 
L 206.145015 114.280585 
L 206.177182 114.175063 
L 207.173224 114.069541 
L 207.226162 113.805737 
L 207.539401 113.752976 
L 207.64051 112.9088 
L 207.686994 112.803278 
L 207.771916 112.539473 
L 208.009201 112.433951 
L 208.069952 112.328429 
L 208.425441 112.222907 
L 208.425441 112.170146 
L 209.516586 112.064624 
L 209.516586 112.011863 
L 209.641371 111.906341 
L 209.750316 111.431493 
L 209.764179 111.325971 
L 209.80801 111.009405 
L 210.824977 110.903883 
L 210.824977 110.851122 
L 211.731617 110.7456 
L 211.840514 110.534556 
L 211.916883 110.429034 
L 211.947755 110.059707 
L 213.34823 109.954185 
L 213.34823 109.901424 
L 213.668104 109.795902 
L 213.668104 109.743141 
L 213.895685 109.63762 
L 213.997389 109.11001 
L 214.131535 109.004488 
L 214.235618 108.740683 
L 214.828022 108.635161 
L 214.828022 108.5824 
L 215.659856 108.476878 
L 215.686847 108.160312 
L 216.855927 108.05479 
L 216.960194 107.368898 
L 216.972794 107.368898 
L 217.060753 106.577483 
L 218.322802 106.471961 
L 218.324267 106.260917 
L 218.592681 106.155395 
L 218.6302 106.049873 
L 220.579225 105.944351 
L 220.579225 105.89159 
L 221.419924 105.838829 
L 221.453453 105.627785 
L 222.693327 105.522263 
L 222.700295 105.36398 
L 222.822398 105.31122 
L 222.921348 104.203239 
L 223.04602 104.097717 
L 223.143237 103.939434 
L 223.217375 103.833912 
L 223.217375 103.781151 
L 223.478203 103.675629 
L 223.478203 103.622868 
L 223.908304 103.517346 
L 223.908304 103.464585 
L 224.365492 103.359063 
L 224.437622 102.409366 
L 224.591561 102.303844 
L 224.65132 102.145561 
L 224.875034 102.040039 
L 224.968927 101.881756 
L 225.886378 101.776234 
L 225.904993 101.56519 
L 227.402735 101.459668 
L 227.402735 101.406907 
L 227.765019 101.301385 
L 227.842919 101.03758 
L 227.921378 100.932059 
L 228.015273 100.773776 
L 229.171235 100.668254 
L 229.171235 100.615493 
L 229.990702 100.509971 
L 229.990702 100.45721 
L 230.590998 100.351688 
L 230.62684 100.246166 
L 231.033821 100.140644 
L 231.143843 98.505054 
L 231.187525 98.399532 
L 231.295184 98.030205 
L 231.336315 97.924683 
L 231.403693 97.555356 
L 231.609814 97.449834 
L 231.706819 97.027746 
L 231.799032 96.922224 
L 231.898273 96.71118 
L 232.199903 96.605659 
L 232.23281 96.447376 
L 232.338144 96.341854 
L 232.356222 96.236332 
L 233.163898 96.13081 
L 233.24826 95.814244 
L 233.833247 95.708722 
L 233.939278 95.339395 
L 234.279261 95.233873 
L 234.357839 94.970068 
L 234.611051 94.864546 
L 234.611051 94.811785 
L 234.921331 94.706263 
L 235.016291 94.178654 
L 235.042518 94.073132 
L 235.143163 93.492761 
L 235.251915 93.387239 
L 235.359745 93.070673 
L 235.417416 92.965151 
L 235.49139 92.595824 
L 235.663261 92.490302 
L 235.762388 91.698888 
L 235.79078 91.593366 
L 235.896437 91.2768 
L 235.926352 91.171278 
L 236.032681 90.854712 
L 236.217253 90.74919 
L 236.289281 90.22158 
L 236.813337 90.116059 
L 236.835806 89.957776 
L 237.304767 89.905015 
L 237.403869 89.64121 
L 237.464882 89.535688 
L 237.494521 89.430166 
L 237.906449 89.324644 
L 237.906449 89.271883 
L 238.272798 89.166361 
L 238.316386 89.008078 
L 238.389901 88.902556 
L 238.401999 88.744273 
L 238.693281 88.638751 
L 238.79843 88.269424 
L 239.33065 88.216663 
L 239.33065 88.111141 
L 240.34717 88.00562 
L 240.435578 87.583532 
L 240.524698 87.530771 
L 240.635339 87.266966 
L 240.680262 87.161444 
L 240.789995 86.9504 
L 240.941629 86.844878 
L 241.032771 86.42279 
L 241.11235 86.317268 
L 241.192463 86.000702 
L 241.232826 85.89518 
L 241.335295 85.736898 
L 241.661234 85.631376 
L 241.669285 85.473093 
L 242.427702 85.367571 
L 242.427702 85.31481 
L 243.216707 85.209288 
L 243.304868 85.051005 
L 243.858543 84.998244 
L 243.858543 84.892722 
L 244.064792 84.7872 
L 244.143134 83.67922 
L 244.221522 83.573698 
L 244.242222 83.415415 
L 244.433178 83.309893 
L 244.497617 82.940566 
L 245.151278 82.835044 
L 245.255013 82.676761 
L 245.527323 82.571239 
L 245.626951 82.465717 
L 245.777028 82.360195 
L 245.873822 82.201912 
L 245.982923 82.09639 
L 246.058717 81.779824 
L 246.168422 81.674302 
L 246.260241 81.252215 
L 246.309293 81.146693 
L 246.403722 80.777366 
L 246.451746 80.671844 
L 246.557881 79.669385 
L 246.583996 79.563863 
L 246.678358 78.930732 
L 246.768212 78.82521 
L 246.848635 78.561405 
L 247.173729 78.455883 
L 247.181947 78.350361 
L 247.531336 78.244839 
L 247.56945 77.981034 
L 248.025578 77.875512 
L 248.133735 77.611707 
L 248.273952 77.506185 
L 248.36616 77.18962 
L 249.402034 77.084098 
L 249.492801 76.767532 
L 249.642974 76.66201 
L 249.739072 76.1344 
L 249.766911 76.028878 
L 249.846067 75.448507 
L 249.893456 75.342985 
L 249.918472 75.237463 
L 250.395689 75.131941 
L 250.395689 75.07918 
L 250.730323 74.973659 
L 250.730323 74.920898 
L 251.685755 74.815376 
L 251.779412 73.707395 
L 251.822055 73.601873 
L 251.918232 73.338068 
L 251.960561 73.232546 
L 252.061886 73.021502 
L 252.424667 72.91598 
L 252.462413 72.810459 
L 252.797823 72.704937 
L 252.888566 72.493893 
L 252.970514 72.388371 
L 253.052337 72.230088 
L 253.112377 72.124566 
L 253.220426 71.913522 
L 253.264502 71.808 
L 253.372479 71.438673 
L 253.394068 71.333151 
L 253.486509 70.383454 
L 253.554866 70.277932 
L 253.649547 70.066888 
L 254.071397 69.961366 
L 254.113963 69.697561 
L 254.409148 69.592039 
L 254.409148 69.539278 
L 255.425127 69.433756 
L 255.464842 69.275473 
L 255.617017 69.169951 
L 255.705605 68.484059 
L 255.759861 68.378537 
L 255.759861 68.325776 
L 257.058785 68.220254 
L 257.166146 67.006751 
L 257.248395 66.901229 
L 257.325218 66.742946 
L 257.521021 66.637424 
L 257.521021 66.584663 
L 257.832766 66.479141 
L 257.922068 66.268098 
L 258.094812 66.162576 
L 258.094812 66.109815 
L 258.326105 66.004293 
L 258.436829 65.212878 
L 258.462175 65.107356 
L 258.556143 64.685268 
L 258.869671 64.579746 
L 258.945827 64.21042 
L 259.062301 64.104898 
L 259.131574 63.999376 
L 259.360297 63.893854 
L 259.460262 63.788332 
L 260.100736 63.68281 
L 260.189969 62.996917 
L 260.251985 62.891395 
L 260.261368 62.680351 
L 261.282389 62.574829 
L 261.361667 61.941698 
L 262.013106 61.836176 
L 262.117245 61.730654 
L 262.222374 61.625132 
L 262.324235 61.255805 
L 262.350848 61.150283 
L 262.438049 60.411629 
L 262.59872 60.306107 
L 262.59872 60.253346 
L 262.815035 60.147824 
L 262.859717 60.042302 
L 263.051128 59.93678 
L 263.129397 59.778498 
L 263.677884 59.672976 
L 263.761842 59.303649 
L 263.806031 59.198127 
L 263.898519 59.092605 
L 264.715102 58.987083 
L 264.740964 58.195668 
L 265.013824 58.090146 
L 265.084597 57.984624 
L 265.527702 57.879102 
L 265.6366 57.457015 
L 265.669212 57.351493 
L 265.734089 57.034927 
L 266.302876 56.929405 
L 266.302876 56.876644 
L 266.789392 56.771122 
L 266.891411 56.190751 
L 267.622255 56.085229 
L 267.721352 55.504859 
L 268.207035 55.399337 
L 268.212615 55.293815 
L 268.340085 55.188293 
L 268.449922 54.713444 
L 268.553187 54.607922 
L 268.574837 54.5024 
L 268.901403 54.396878 
L 268.901403 54.344117 
L 269.392729 54.238595 
L 269.436342 54.027551 
L 270.127657 53.922029 
L 270.234107 52.972332 
L 270.298715 52.86681 
L 270.364208 52.761288 
L 270.709477 52.655766 
L 270.800093 52.233678 
L 270.875393 52.128156 
L 270.913378 52.022634 
L 271.317777 51.917112 
L 271.317777 51.864351 
L 271.659724 51.758829 
L 271.744131 51.495024 
L 272.330125 51.389502 
L 272.371292 50.598088 
L 272.740187 50.492566 
L 272.834484 50.387044 
L 272.927747 50.281522 
L 272.98399 49.964956 
L 273.083735 49.859434 
L 273.175774 49.753912 
L 273.63882 49.64839 
L 273.63882 49.595629 
L 273.770447 49.490107 
L 273.843271 49.06802 
L 274.330372 48.962498 
L 274.352562 48.54041 
L 274.854743 48.434888 
L 274.945322 47.960039 
L 275.154812 47.854517 
L 275.154812 47.801756 
L 275.637756 47.696234 
L 275.658943 47.537951 
L 276.121371 47.432429 
L 276.175609 47.115863 
L 276.640482 47.010341 
L 276.67876 46.852059 
L 276.874239 46.746537 
L 276.936069 46.588254 
L 277.381821 46.482732 
L 277.381821 46.429971 
L 277.75832 46.324449 
L 277.83916 45.902361 
L 278.251684 45.796839 
L 278.270215 45.691317 
L 278.829342 45.585795 
L 278.891053 45.374751 
L 279.242644 45.269229 
L 279.270644 45.005424 
L 279.677891 44.899902 
L 279.775086 44.636098 
L 279.985809 44.530576 
L 279.987963 44.425054 
L 280.31653 44.319532 
L 280.325404 44.21401 
L 280.66031 44.108488 
L 280.691895 44.002966 
L 280.98349 43.897444 
L 281.081326 43.475356 
L 281.584852 43.369834 
L 281.632219 43.106029 
L 281.954815 43.000507 
L 282.020907 42.63118 
L 282.35928 42.525659 
L 282.451517 42.367376 
L 283.169211 42.261854 
L 283.169211 42.209093 
L 283.525427 42.103571 
L 283.630805 41.787005 
L 283.94237 41.681483 
L 284.020225 41.575961 
L 284.312138 41.5232 
L 284.312138 41.417678 
L 284.668704 41.312156 
L 284.668704 41.259395 
L 285.383903 41.153873 
L 285.449662 40.837307 
L 285.737652 40.731785 
L 285.821505 40.46798 
L 286.39749 40.362459 
L 286.40354 40.256937 
L 286.709751 40.151415 
L 286.742727 39.993132 
L 287.095416 39.88761 
L 287.095416 39.834849 
L 287.367867 39.729327 
L 287.375572 39.623805 
L 287.64465 39.518283 
L 287.733396 39.36 
L 288.284593 39.254478 
L 288.366539 38.990673 
L 288.710579 38.885151 
L 288.710579 38.83239 
L 289.160477 38.779629 
L 289.168347 38.621346 
L 289.99411 38.515824 
L 289.996868 38.30478 
L 291.336819 38.199259 
L 291.340068 38.093737 
L 291.564387 37.988215 
L 291.565521 37.882693 
L 292.302815 37.777171 
L 292.302815 37.72441 
L 293.010584 37.618888 
L 293.010584 37.566127 
L 293.693353 37.460605 
L 293.737547 37.091278 
L 294.354318 36.985756 
L 294.356454 36.827473 
L 294.990804 36.721951 
L 294.999288 36.510907 
L 295.593677 36.405385 
L 295.609492 36.299863 
L 296.78156 36.194341 
L 296.785926 36.08882 
L 297.082893 35.983298 
L 297.082893 35.930537 
L 297.346373 35.825015 
L 297.405901 35.666732 
L 297.89199 35.56121 
L 297.943917 35.455688 
L 298.422123 35.350166 
L 298.422642 35.191883 
L 299.118763 35.086361 
L 299.118763 35.0336 
L 299.928282 34.928078 
L 299.928569 34.822556 
L 300.867183 34.717034 
L 300.868367 34.611512 
L 302.211777 34.50599 
L 302.211777 34.453229 
L 302.776433 34.347707 
L 302.776433 34.294946 
L 303.033365 34.189424 
L 303.033365 34.136663 
L 303.832548 34.031141 
L 303.832548 33.97838 
L 304.973179 33.872859 
L 304.973179 33.820098 
L 305.58858 33.714576 
L 305.58858 33.661815 
L 306.394512 33.556293 
L 306.394512 33.503532 
L 307.392926 33.39801 
L 307.392926 33.345249 
L 310.385569 33.239727 
L 310.385569 33.186966 
L 314.806303 33.081444 
L 314.806303 33.028683 
L 360.8064 33.028683 
L 360.8064 33.028683 
" style="fill:none;stroke:#000080;stroke-linecap:square;stroke-width:1.5;"/>
   </g>
   <g id="line2d_31">
    <defs>
     <path d="M 0 6 
C 1.591219 6 3.117479 5.367802 4.242641 4.242641 
C 5.367802 3.117479 6 1.591219 6 0 
C 6 -1.591219 5.367802 -3.117479 4.242641 -4.242641 
C 3.117479 -5.367802 1.591219 -6 0 -6 
C -1.591219 -6 -3.117479 -5.367802 -4.242641 -4.242641 
C -5.367802 -3.117479 -6 -1.591219 -6 0 
C -6 1.591219 -5.367802 3.117479 -4.242641 4.242641 
C -3.117479 5.367802 -1.591219 6 0 6 
z
" id="mb46442a0b9" style="stroke:#000080;stroke-width:1.5;"/>
    </defs>
    <g>
     <use style="fill-opacity:0;stroke:#000080;stroke-width:1.5;" x="115.402131" xlink:href="#mb46442a0b9" y="185.92999"/>
     <use style="fill-opacity:0;stroke:#000080;stroke-width:1.5;" x="215.276986" xlink:href="#mb46442a0b9" y="108.529639"/>
     <use style="fill-opacity:0;stroke:#000080;stroke-width:1.5;" x="310.660539" xlink:href="#mb46442a0b9" y="33.186966"/>
     <use style="fill-opacity:0;stroke:#000080;stroke-width:1.5;" x="314.806303" xlink:href="#mb46442a0b9" y="33.028683"/>
     <use style="fill-opacity:0;stroke:#000080;stroke-width:1.5;" x="360.8064" xlink:href="#mb46442a0b9" y="33.028683"/>
    </g>
   </g>
   <g id="line2d_32">
    <path style="fill:none;stroke:#000080;stroke-linecap:square;stroke-width:1.5;"/>
    <g/>
   </g>
   <g id="line2d_33">
    <path clip-path="url(#p79ae48d9ee)" d="M 231.009947 100.140644 
" style="fill:none;stroke:#000080;stroke-linecap:square;stroke-width:1.5;"/>
    <defs>
     <path d="M -12 12 
L 12 -12 
M -12 -12 
L 12 12 
" id="mae4305ac77" style="stroke:#000080;"/>
    </defs>
    <g clip-path="url(#p79ae48d9ee)">
     <use style="fill:#000080;stroke:#000080;" x="231.009947" xlink:href="#mae4305ac77" y="100.140644"/>
    </g>
   </g>
   <g id="line2d_34">
    <defs>
     <path d="M 0 1.5 
C 0.397805 1.5 0.77937 1.341951 1.06066 1.06066 
C 1.341951 0.77937 1.5 0.397805 1.5 0 
C 1.5 -0.397805 1.341951 -0.77937 1.06066 -1.06066 
C 0.77937 -1.341951 0.397805 -1.5 0 -1.5 
C -0.397805 -1.5 -0.77937 -1.341951 -1.06066 -1.06066 
C -1.341951 -0.77937 -1.5 -0.397805 -1.5 0 
C -1.5 0.397805 -1.341951 0.77937 -1.06066 1.06066 
C -0.77937 1.341951 -0.397805 1.5 0 1.5 
z
" id="mde5fc75f45" style="stroke:#ff00ff;"/>
    </defs>
    <g>
     <use style="fill:#ff00ff;stroke:#ff00ff;" x="320.922444" xlink:href="#mde5fc75f45" y="14.826146"/>
     <use style="fill:#ff00ff;stroke:#ff00ff;" x="320.922444" xlink:href="#mde5fc75f45" y="14.826146"/>
    </g>
   </g>
   <g id="line2d_35">
    <path d="M 80.621116 298.944 
L 80.621116 238.163356 
L 82.713442 238.163356 
L 82.713442 237.84679 
L 83.678349 237.84679 
L 83.678349 237.477463 
L 85.471281 237.371941 
L 85.471281 237.055376 
L 86.307488 237.055376 
L 86.307488 236.316722 
L 91.305777 236.316722 
L 91.305777 228.61362 
L 92.519847 228.61362 
L 92.519847 225.025873 
L 93.66029 225.025873 
L 93.66029 220.857756 
L 94.735529 220.857756 
L 94.735529 220.488429 
L 98.077987 220.488429 
L 98.077987 216.056507 
L 98.933205 216.056507 
L 98.933205 213.365698 
L 99.751228 213.365698 
L 99.751228 208.986537 
L 100.147275 208.986537 
L 100.147275 208.406166 
L 100.535156 208.406166 
L 100.535156 207.825795 
L 101.287718 207.825795 
L 101.287718 207.614751 
L 103.047088 207.614751 
L 103.047088 203.23559 
L 103.707211 203.23559 
L 103.707211 200.439259 
L 104.344952 200.439259 
L 104.344952 197.853971 
L 104.961779 197.748449 
L 104.961779 197.2736 
L 105.559021 197.2736 
L 105.559021 196.74599 
L 105.850679 196.74599 
L 105.850679 196.534946 
L 106.137884 196.534946 
L 106.137884 196.323902 
L 106.42077 196.323902 
L 106.42077 195.585249 
L 106.974091 195.585249 
L 106.974091 192.261307 
L 107.5116 192.261307 
L 107.5116 188.831844 
L 108.034177 188.779083 
L 108.034177 187.301776 
L 108.542628 187.301776 
L 108.542628 185.982751 
L 109.037698 185.92999 
L 109.037698 185.244098 
L 109.520071 185.244098 
L 109.520071 184.610966 
L 109.990385 184.610966 
L 109.990385 184.083356 
L 110.221204 184.083356 
L 110.221204 182.553288 
L 110.674517 182.553288 
L 110.674517 180.917698 
L 111.117162 180.864937 
L 111.117162 178.596215 
L 111.54963 178.543454 
L 111.54963 177.752039 
L 111.97238 177.752039 
L 111.97238 177.488234 
L 112.385837 177.488234 
L 112.385837 176.907863 
L 112.790402 176.907863 
L 112.790402 174.902946 
L 112.989468 174.902946 
L 112.989468 174.480859 
L 113.186449 174.480859 
L 113.186449 173.214595 
L 113.381389 173.214595 
L 113.381389 171.948332 
L 113.765312 171.895571 
L 113.765312 171.3152 
L 113.954374 171.3152 
L 113.954374 171.156917 
L 114.141556 171.156917 
L 114.141556 169.152 
L 114.510421 169.152 
L 114.510421 168.993717 
L 114.692177 168.993717 
L 114.692177 168.782673 
L 114.872193 168.782673 
L 114.872193 168.09678 
L 115.227139 168.09678 
L 115.227139 166.197385 
L 115.402131 166.197385 
L 115.402131 165.511493 
L 115.575511 165.511493 
L 115.575511 164.8256 
L 115.747307 164.8256 
L 115.747307 164.403512 
L 115.917548 164.403512 
L 115.917548 163.664859 
L 116.086263 163.664859 
L 116.086263 163.031727 
L 116.253478 163.031727 
L 116.253478 162.6624 
L 116.419219 162.6624 
L 116.419219 161.396137 
L 116.746385 161.343376 
L 116.746385 161.132332 
L 116.907859 161.132332 
L 116.907859 160.657483 
L 117.067958 160.657483 
L 117.067958 160.129873 
L 117.384126 160.129873 
L 117.384126 158.230478 
L 117.540239 158.230478 
L 117.540239 158.019434 
L 117.695068 158.019434 
L 117.695068 157.175259 
L 117.848632 157.175259 
L 117.848632 157.016976 
L 118.152051 157.016976 
L 118.152051 156.542127 
L 118.301945 156.542127 
L 118.301945 155.64519 
L 118.450653 155.64519 
L 118.450653 154.695493 
L 118.74459 154.695493 
L 118.74459 154.062361 
L 118.889854 154.062361 
L 118.889854 153.798556 
L 119.034004 153.798556 
L 119.034004 153.587512 
L 119.319033 153.534751 
L 119.319033 152.95438 
L 119.599808 152.95438 
L 119.599808 150.527376 
L 119.738639 150.527376 
L 119.738639 150.316332 
L 119.876453 150.316332 
L 119.876453 149.788722 
L 120.149089 149.735961 
L 120.149089 149.15559 
L 120.28394 149.15559 
L 120.28394 148.153132 
L 120.41783 148.153132 
L 120.41783 147.994849 
L 120.682786 147.942088 
L 120.682786 147.836566 
L 120.813877 147.836566 
L 120.813877 147.097912 
L 121.073351 147.097912 
L 121.073351 146.46478 
L 121.329295 146.46478 
L 121.329295 145.673366 
L 121.581803 145.673366 
L 121.581803 144.881951 
L 121.706797 144.881951 
L 121.706797 144.407102 
L 121.830966 144.407102 
L 121.830966 143.668449 
L 121.954321 143.668449 
L 121.954321 142.877034 
L 122.319605 142.824273 
L 122.319605 142.718751 
L 122.559246 142.613229 
L 122.559246 142.560468 
L 122.677931 142.560468 
L 122.677931 141.716293 
L 122.913079 141.716293 
L 122.913079 141.399727 
L 123.145323 141.346966 
L 123.145323 141.135922 
L 123.374735 141.135922 
L 123.374735 140.555551 
L 123.4884 140.555551 
L 123.4884 140.397268 
L 123.713691 140.397268 
L 123.713691 140.186224 
L 123.825333 140.186224 
L 123.936316 139.605854 
L 124.156336 139.605854 
L 124.156336 138.33959 
L 124.373813 138.33959 
L 124.373813 137.864741 
L 124.801367 137.81198 
L 124.906754 136.545717 
L 125.115773 136.545717 
L 125.219419 135.490498 
L 125.322496 135.490498 
L 125.322496 135.279454 
L 125.526971 135.279454 
L 125.526971 135.015649 
L 125.729248 135.015649 
L 125.729248 134.751844 
L 126.225624 134.699083 
L 126.225624 134.488039 
L 126.613505 134.435278 
L 126.709238 134.276995 
L 127.18073 134.171473 
L 127.18073 134.118712 
L 127.366067 134.118712 
L 127.458055 133.48558 
L 128.000734 133.380059 
L 128.089678 132.430361 
L 128.354013 132.430361 
L 128.441306 131.84999 
L 128.700779 131.744468 
L 128.700779 131.427902 
L 128.871795 131.427902 
L 128.871795 131.216859 
L 129.209231 131.111337 
L 129.292652 131.005815 
L 129.375706 131.005815 
L 129.458394 130.319922 
L 129.622688 130.319922 
L 129.622688 130.056117 
L 130.344755 129.950595 
L 130.4233 129.317463 
L 130.811181 129.264702 
L 130.811181 128.895376 
L 130.964122 128.895376 
L 130.964122 128.684332 
L 131.341119 128.631571 
L 131.41562 128.473288 
L 131.783764 128.420527 
L 131.783764 128.209483 
L 131.929028 128.209483 
L 131.929028 127.629112 
L 132.638982 127.52359 
L 132.638982 126.99598 
L 132.846847 126.99598 
L 132.846847 126.784937 
L 133.323114 126.732176 
L 133.323114 126.362849 
L 133.523594 126.310088 
L 133.523594 125.940761 
L 133.983236 125.940761 
L 133.983236 125.518673 
L 134.368469 125.413151 
L 134.431915 125.307629 
L 134.620977 125.202107 
L 134.683578 124.885541 
L 135.116046 124.885541 
L 135.116046 124.463454 
L 135.952253 124.357932 
L 136.010584 123.988605 
L 136.299553 123.883083 
L 136.299553 123.7248 
L 136.584151 123.619278 
L 136.584151 123.302712 
L 136.97549 123.19719 
L 136.97549 122.880624 
L 137.520791 122.827863 
L 137.520791 122.66958 
L 137.787626 122.564059 
L 137.787626 122.247493 
L 138.050729 122.194732 
L 138.050729 122.08921 
L 139.313723 122.036449 
L 139.411192 121.456078 
L 139.843661 121.350556 
L 139.843661 121.297795 
L 140.032723 121.297795 
L 140.126547 121.03399 
L 140.49723 120.928468 
L 140.49723 120.875707 
L 140.634374 120.875707 
L 140.725251 120.242576 
L 140.905699 120.189815 
L 140.950542 119.92601 
L 141.084433 119.92601 
L 141.084433 119.662205 
L 141.305488 119.662205 
L 141.393187 119.029073 
L 141.739954 118.923551 
L 141.739954 118.87079 
L 142.248405 118.818029 
L 142.248405 118.712507 
L 142.865233 118.606985 
L 142.865233 118.34318 
L 143.265494 118.237659 
L 143.344534 117.710049 
L 143.579681 117.657288 
L 143.579681 117.551766 
L 144.041338 117.499005 
L 144.041338 117.287961 
L 144.380294 117.182439 
L 144.380294 117.129678 
L 144.749884 117.024156 
L 144.749884 116.918634 
L 145.326529 116.813112 
L 145.397382 116.496546 
L 145.678157 116.496546 
L 145.782376 116.285502 
L 146.057504 116.285502 
L 146.057504 116.074459 
L 146.328666 116.021698 
L 146.328666 115.863415 
L 146.859539 115.863415 
L 146.859539 115.705132 
L 147.343984 115.59961 
L 147.439393 115.494088 
L 147.722752 115.388566 
L 147.722752 115.177522 
L 148.307296 115.072 
L 148.337564 114.966478 
L 149.049758 114.913717 
L 149.107908 114.438868 
L 149.42456 114.333346 
L 149.42456 114.227824 
L 149.566749 114.227824 
L 149.65155 113.752976 
L 149.707872 113.752976 
L 149.707872 113.541932 
L 149.875833 113.43641 
L 149.875833 113.383649 
L 150.262008 113.278127 
L 150.289291 112.9088 
L 150.479171 112.9088 
L 150.479171 112.697756 
L 151.477784 112.592234 
L 151.554409 112.328429 
L 152.106991 112.222907 
L 152.106991 112.170146 
L 152.595631 112.064624 
L 152.595631 112.011863 
L 153.095398 111.959102 
L 153.189104 111.642537 
L 153.259079 111.589776 
L 153.328795 111.325971 
L 153.8097 111.220449 
L 153.8097 111.167688 
L 154.079083 111.062166 
L 154.123607 110.7456 
L 154.388563 110.692839 
L 154.432362 110.323512 
L 154.671449 110.270751 
L 154.714595 110.112468 
L 155.203786 110.059707 
L 155.203786 109.848663 
L 155.516105 109.743141 
L 155.516105 109.69038 
L 156.065535 109.63762 
L 156.065535 109.532098 
L 156.363979 109.426576 
L 156.363979 109.321054 
L 157.061501 109.215532 
L 157.061501 109.057249 
L 157.678942 108.951727 
L 157.678942 108.846205 
L 158.0976 108.793444 
L 158.187393 108.5824 
L 158.471883 108.476878 
L 158.577468 108.265834 
L 158.752135 108.265834 
L 158.769513 107.738224 
L 159.198823 107.632702 
L 159.198823 107.579941 
L 159.401463 107.47442 
L 159.451784 107.368898 
L 159.849576 107.263376 
L 159.882349 106.735766 
L 160.4627 106.630244 
L 160.557708 106.366439 
L 160.761927 106.260917 
L 160.761927 105.944351 
L 161.025681 105.944351 
L 161.117894 105.733307 
L 161.163832 105.733307 
L 161.224909 104.941893 
L 161.646981 104.836371 
L 161.676769 104.519805 
L 161.97209 104.414283 
L 161.97209 104.256 
L 162.998429 104.150478 
L 163.012297 104.044956 
L 163.639407 103.939434 
L 163.639407 103.886673 
L 163.971658 103.781151 
L 163.971658 103.72839 
L 164.401432 103.622868 
L 164.504157 103.411824 
L 165.096597 103.306302 
L 165.096597 103.253541 
L 165.634805 103.14802 
L 165.634805 103.095259 
L 166.286609 102.989737 
L 166.286609 102.936976 
L 169.024318 102.831454 
L 169.024318 102.778693 
L 169.842126 102.778693 
L 169.842126 102.462127 
L 170.043526 102.462127 
L 170.100675 102.040039 
L 170.653583 102.040039 
L 170.653583 101.881756 
L 171.878039 101.776234 
L 171.878039 101.56519 
L 172.823033 101.459668 
L 172.823033 101.406907 
L 173.027642 101.301385 
L 173.027642 101.195863 
L 173.374446 101.090341 
L 173.374446 101.03758 
L 174.064855 101.03758 
L 174.064855 100.879298 
L 174.40835 100.773776 
L 174.40835 100.721015 
L 175.244228 100.668254 
L 175.244228 100.562732 
L 175.374013 100.562732 
L 175.467193 100.035122 
L 176.624872 99.9296 
L 176.624872 99.771317 
L 177.155184 99.665795 
L 177.155184 99.613034 
L 177.440606 99.613034 
L 177.524113 99.349229 
L 177.936177 99.243707 
L 178.03 98.979902 
L 178.351679 98.87438 
L 178.351679 98.82162 
L 178.577262 98.768859 
L 178.577262 98.663337 
L 179.407144 98.610576 
L 179.407144 98.505054 
L 180.878939 98.399532 
L 180.959205 98.082966 
L 182.063492 97.977444 
L 182.118798 97.871922 
L 182.178947 97.871922 
L 182.178947 97.713639 
L 184.063102 97.608117 
L 184.063102 97.555356 
L 186.249081 97.449834 
L 186.329524 97.344312 
L 189.283728 97.23879 
L 189.283728 97.186029 
L 189.767969 97.186029 
L 189.784677 96.922224 
L 190.020343 96.922224 
L 190.046713 96.13081 
L 191.863287 96.078049 
L 191.908094 95.919766 
L 192.653928 95.814244 
L 192.736905 95.6032 
L 192.958287 95.497678 
L 192.958287 95.286634 
L 196.24311 95.181112 
L 196.30934 95.022829 
L 197.347418 94.917307 
L 197.347418 94.864546 
L 198.500081 94.759024 
L 198.500081 94.706263 
L 198.754747 94.600741 
L 198.835434 94.336937 
L 200.200891 94.231415 
L 200.200891 94.178654 
L 200.697307 94.073132 
L 200.697307 93.96761 
L 201.948738 93.914849 
L 202.004641 93.598283 
L 202.295441 93.598283 
L 202.295441 93.44 
L 204.01139 93.334478 
L 204.01139 93.281717 
L 204.848551 93.176195 
L 204.848551 93.123434 
L 205.331191 93.070673 
L 205.377906 92.859629 
L 207.263131 92.754107 
L 207.313186 92.490302 
L 208.557652 92.38478 
L 208.557652 92.226498 
L 209.262133 92.120976 
L 209.282285 91.962693 
L 209.608797 91.909932 
L 209.713299 91.171278 
L 209.845991 91.065756 
L 209.890779 90.960234 
L 211.849819 90.854712 
L 211.849819 90.801951 
L 212.994639 90.696429 
L 212.994639 90.643668 
L 213.312882 90.538146 
L 213.312882 90.432624 
L 213.917922 90.379863 
L 213.917922 90.274341 
L 216.404604 90.16882 
L 216.404604 90.116059 
L 217.026247 90.010537 
L 217.131138 89.799493 
L 217.336867 89.693971 
L 217.43467 89.588449 
L 217.85846 89.482927 
L 217.96704 89.166361 
L 219.088763 89.060839 
L 219.088763 88.955317 
L 219.805802 88.849795 
L 219.805802 88.744273 
L 220.043995 88.638751 
L 220.094741 88.427707 
L 221.194858 88.322185 
L 221.194858 88.269424 
L 221.956593 88.163902 
L 222.049377 88.00562 
L 222.16621 87.900098 
L 222.16621 87.847337 
L 223.079619 87.741815 
L 223.183455 86.633834 
L 223.216246 86.633834 
L 223.29966 86.211746 
L 223.3939 86.211746 
L 223.50381 85.84242 
L 223.754686 85.736898 
L 223.805119 85.420332 
L 224.309614 85.31481 
L 224.328791 85.156527 
L 224.870379 85.156527 
L 224.957087 83.890263 
L 225.010051 83.837502 
L 225.105829 83.415415 
L 225.190444 83.309893 
L 225.190444 83.204371 
L 226.282599 83.15161 
L 226.283559 82.835044 
L 226.447916 82.729522 
L 226.477386 82.624 
L 226.708686 82.518478 
L 226.78874 82.254673 
L 227.753483 82.149151 
L 227.789397 81.990868 
L 228.272175 81.885346 
L 228.321759 81.727063 
L 228.72265 81.621541 
L 228.72265 81.56878 
L 229.733614 81.463259 
L 229.771525 81.357737 
L 230.89125 81.252215 
L 230.909271 80.98841 
L 231.056919 80.882888 
L 231.167177 80.619083 
L 231.366738 80.513561 
L 231.40552 80.249756 
L 232.403767 80.144234 
L 232.403767 80.091473 
L 233.180535 79.985951 
L 233.180535 79.93319 
L 233.687483 79.827668 
L 233.687483 79.774907 
L 236.043538 79.669385 
L 236.043538 79.616624 
L 237.270814 79.511102 
L 237.270814 79.458341 
L 237.660639 79.35282 
L 237.738322 79.247298 
L 237.852044 79.141776 
L 237.928168 78.82521 
L 237.969982 78.719688 
L 238.075908 78.508644 
L 238.09948 78.403122 
L 238.2085 78.192078 
L 238.289789 78.086556 
L 238.365428 77.875512 
L 238.529318 77.76999 
L 238.532071 77.664468 
L 238.700723 77.558946 
L 238.700723 77.506185 
L 238.920896 77.400663 
L 238.924082 77.295141 
L 239.25832 77.18962 
L 239.328011 76.714771 
L 239.384057 76.609249 
L 239.468053 76.398205 
L 239.695948 76.292683 
L 239.730964 76.028878 
L 240.047362 75.923356 
L 240.047362 75.870595 
L 240.703464 75.765073 
L 240.703464 75.712312 
L 240.914971 75.60679 
L 240.914971 75.554029 
L 241.227406 75.448507 
L 241.227406 75.395746 
L 241.752549 75.290224 
L 241.806032 75.184702 
L 242.651561 75.07918 
L 242.674865 74.973659 
L 243.926668 74.868137 
L 244.011198 74.657093 
L 244.131618 74.551571 
L 244.174677 74.235005 
L 245.49918 74.129483 
L 245.49918 74.076722 
L 245.744653 73.9712 
L 245.855181 73.549112 
L 245.961356 73.44359 
L 246.049491 73.232546 
L 246.196414 73.127024 
L 246.304658 72.810459 
L 246.515368 72.704937 
L 246.529114 72.546654 
L 246.789197 72.441132 
L 246.897462 72.177327 
L 246.956399 72.071805 
L 247.006542 71.860761 
L 247.162661 71.755239 
L 247.239686 71.596956 
L 247.395608 71.491434 
L 247.471531 71.385912 
L 247.616598 71.28039 
L 247.627248 71.174868 
L 247.987015 71.069346 
L 248.089824 70.75278 
L 248.360225 70.647259 
L 248.360225 70.594498 
L 249.002279 70.488976 
L 249.002279 70.436215 
L 249.381664 70.330693 
L 249.459935 70.17241 
L 250.122683 70.066888 
L 250.159673 69.803083 
L 250.957003 69.697561 
L 250.957003 69.6448 
L 251.214168 69.539278 
L 251.214168 69.486517 
L 251.429327 69.380995 
L 251.521006 69.222712 
L 251.546455 69.11719 
L 251.6433 68.53682 
L 251.711355 68.431298 
L 251.787083 67.850927 
L 251.958477 67.745405 
L 252.024671 67.587122 
L 252.399181 67.4816 
L 252.487098 67.217795 
L 252.547303 67.112273 
L 252.617023 67.006751 
L 252.742413 66.901229 
L 252.82886 66.742946 
L 253.071524 66.637424 
L 253.173834 66.268098 
L 253.227187 66.162576 
L 253.311896 65.951532 
L 253.39668 65.84601 
L 253.482101 65.687727 
L 253.549123 65.582205 
L 253.599065 65.476683 
L 254.447844 65.371161 
L 254.511946 65.265639 
L 255.601673 65.160117 
L 255.701889 65.001834 
L 255.826239 64.896312 
L 255.926162 64.368702 
L 256.148774 64.26318 
L 256.192277 64.157659 
L 256.400943 64.052137 
L 256.429377 63.841093 
L 256.575606 63.735571 
L 256.614881 63.630049 
L 256.757686 63.524527 
L 256.862146 63.313483 
L 256.99081 63.207961 
L 257.094267 62.469307 
L 257.262083 62.363785 
L 257.319964 62.258263 
L 257.461195 62.152741 
L 257.472444 62.04722 
L 257.89053 61.941698 
L 257.89053 61.888937 
L 259.174301 61.783415 
L 259.199007 61.677893 
L 259.332987 61.572371 
L 259.412243 61.361327 
L 259.585865 61.255805 
L 259.688948 61.097522 
L 259.777725 60.992 
L 259.870191 60.728195 
L 259.955154 60.622673 
L 260.028565 60.411629 
L 260.307821 60.306107 
L 260.370625 59.778498 
L 260.561591 59.672976 
L 260.657394 59.514693 
L 260.878775 59.409171 
L 260.920685 59.198127 
L 261.187473 59.092605 
L 261.239557 58.934322 
L 261.465325 58.8288 
L 261.465325 58.776039 
L 262.197854 58.670517 
L 262.298786 58.512234 
L 262.513522 58.406712 
L 262.513522 58.353951 
L 262.705146 58.248429 
L 262.750021 58.037385 
L 262.868572 57.931863 
L 262.883939 57.826341 
L 263.013096 57.72082 
L 263.016365 57.615298 
L 263.304154 57.509776 
L 263.404472 57.298732 
L 263.436595 57.19321 
L 263.54237 56.982166 
L 263.650978 56.876644 
L 263.757064 56.560078 
L 263.81269 56.454556 
L 263.878562 56.349034 
L 264.002705 56.243512 
L 264.090953 56.13799 
L 264.746928 56.032468 
L 264.79822 55.874185 
L 264.991154 55.768663 
L 265.09094 55.61038 
L 265.207298 55.504859 
L 265.309444 55.241054 
L 265.361391 55.135532 
L 265.423563 54.924488 
L 265.678671 54.818966 
L 265.764768 54.607922 
L 265.926574 54.5024 
L 266.030236 54.185834 
L 266.104979 54.080312 
L 266.209963 53.763746 
L 266.249282 53.658224 
L 266.350672 53.341659 
L 266.484504 53.236137 
L 266.583228 52.972332 
L 266.809829 52.86681 
L 266.878495 52.708527 
L 267.213974 52.603005 
L 267.281128 52.391961 
L 267.377552 52.286439 
L 267.479124 52.128156 
L 267.723261 52.022634 
L 267.823569 51.758829 
L 267.960448 51.653307 
L 268.020246 51.442263 
L 268.232957 51.336741 
L 268.337417 50.914654 
L 268.487224 50.809132 
L 268.589627 50.598088 
L 268.652508 50.492566 
L 268.712212 50.334283 
L 268.848441 50.228761 
L 268.945871 50.017717 
L 269.163998 49.912195 
L 269.199569 49.806673 
L 269.382926 49.701151 
L 269.491635 49.226302 
L 269.620724 49.12078 
L 269.620724 49.06802 
L 269.896504 48.962498 
L 270.006426 48.856976 
L 270.147756 48.751454 
L 270.25627 48.593171 
L 270.36195 48.487649 
L 270.471438 48.382127 
L 270.552853 48.276605 
L 270.631919 48.065561 
L 270.891663 47.960039 
L 270.965973 47.748995 
L 271.045458 47.643473 
L 271.155115 47.48519 
L 271.36279 47.379668 
L 271.43322 47.063102 
L 271.616796 46.95758 
L 271.673352 46.746537 
L 271.740405 46.641015 
L 271.752392 46.482732 
L 271.989862 46.37721 
L 272.097653 46.166166 
L 272.200275 46.060644 
L 272.284168 45.691317 
L 272.497791 45.585795 
L 272.557423 45.427512 
L 272.647007 45.32199 
L 272.733161 45.216468 
L 272.864561 45.110946 
L 272.975289 44.79438 
L 273.073006 44.688859 
L 273.155368 44.425054 
L 273.421121 44.319532 
L 273.455983 44.21401 
L 273.681819 44.108488 
L 273.778557 43.633639 
L 273.947106 43.528117 
L 274.047266 43.211551 
L 274.159702 43.106029 
L 274.263308 42.683941 
L 274.329253 42.57842 
L 274.396417 42.209093 
L 274.520021 42.103571 
L 274.554419 41.945288 
L 274.805397 41.839766 
L 274.805397 41.787005 
L 275.025148 41.681483 
L 275.124466 41.575961 
L 275.339693 41.470439 
L 275.428641 41.312156 
L 275.51223 41.206634 
L 275.608562 40.626263 
L 275.819559 40.520741 
L 275.917592 40.204176 
L 276.013924 40.098654 
L 276.054552 39.993132 
L 276.296027 39.88761 
L 276.32461 39.782088 
L 276.627937 39.676566 
L 276.725931 39.36 
L 276.785761 39.254478 
L 276.89206 39.043434 
L 276.941786 38.937912 
L 276.973037 38.779629 
L 277.218988 38.674107 
L 277.32004 38.040976 
L 277.425428 37.935454 
L 277.52834 37.72441 
L 277.901916 37.618888 
L 278.005054 37.513366 
L 278.191058 37.407844 
L 278.301724 37.249561 
L 278.347925 37.144039 
L 278.347925 37.091278 
L 278.578075 36.985756 
L 278.675982 36.66919 
L 278.749765 36.563668 
L 278.806178 36.352624 
L 279.135485 36.247102 
L 279.228067 36.08882 
L 279.346595 35.983298 
L 279.455716 35.666732 
L 279.491571 35.56121 
L 279.538791 35.350166 
L 279.675925 35.244644 
L 279.731144 34.928078 
L 279.983212 34.822556 
L 280.014574 34.717034 
L 280.382323 34.611512 
L 280.482951 34.400468 
L 280.538591 34.294946 
L 280.649566 34.083902 
L 280.727809 33.97838 
L 280.836621 33.767337 
L 280.930178 33.661815 
L 281.023638 33.39801 
L 281.452615 33.292488 
L 281.533931 33.134205 
L 281.592057 33.028683 
L 281.672067 32.8704 
L 281.872253 32.764878 
L 281.96919 32.395551 
L 282.133874 32.290029 
L 282.133874 32.237268 
L 282.495037 32.131746 
L 282.586781 31.920702 
L 282.689114 31.81518 
L 282.786347 31.393093 
L 282.959257 31.287571 
L 283.063225 31.076527 
L 283.39246 30.971005 
L 283.488862 30.759961 
L 283.751434 30.654439 
L 283.850991 30.548917 
L 283.984856 30.443395 
L 284.086388 30.285112 
L 284.247756 30.17959 
L 284.247756 30.126829 
L 284.528116 30.021307 
L 284.62547 29.810263 
L 284.765443 29.704741 
L 284.873642 29.59922 
L 285.02314 29.493698 
L 285.064185 29.335415 
L 285.434138 29.229893 
L 285.434138 29.177132 
L 285.667563 29.07161 
L 285.751179 28.755044 
L 285.971947 28.649522 
L 286.07778 28.544 
L 286.192577 28.438478 
L 286.287972 28.174673 
L 286.485382 28.069151 
L 286.594693 27.910868 
L 286.87737 27.805346 
L 286.982262 27.594302 
L 287.119293 27.48878 
L 287.121618 27.383259 
L 287.376803 27.277737 
L 287.466782 27.172215 
L 287.567856 27.066693 
L 287.567856 27.013932 
L 287.920499 26.90841 
L 287.935568 26.802888 
L 288.162656 26.697366 
L 288.162656 26.644605 
L 288.468942 26.539083 
L 288.539485 26.3808 
L 288.639559 26.275278 
L 288.71421 26.116995 
L 288.827162 26.011473 
L 288.827162 25.958712 
L 289.082641 25.85319 
L 289.192884 25.536624 
L 289.458476 25.431102 
L 289.535192 25.167298 
L 289.669472 25.061776 
L 289.741782 24.903493 
L 290.114945 24.797971 
L 290.222364 24.586927 
L 290.267025 24.481405 
L 290.273118 24.375883 
L 290.528499 24.270361 
L 290.592478 24.059317 
L 290.717196 23.953795 
L 290.813022 23.795512 
L 291.008513 23.68999 
L 291.013294 23.584468 
L 291.314579 23.478946 
L 291.379849 23.373424 
L 291.529736 23.267902 
L 291.529736 23.215141 
L 291.696072 23.10962 
L 291.799513 22.898576 
L 292.321122 22.793054 
L 292.321122 22.740293 
L 292.576226 22.634771 
L 292.645897 22.423727 
L 292.742912 22.318205 
L 292.742912 22.265444 
L 293.121085 22.159922 
L 293.217286 22.0544 
L 293.454753 21.948878 
L 293.494998 21.843356 
L 293.669209 21.737834 
L 293.758204 21.632312 
L 293.890431 21.52679 
L 293.903658 21.421268 
L 294.115483 21.315746 
L 294.206548 21.051941 
L 294.353661 20.94642 
L 294.389268 20.788137 
L 294.679225 20.682615 
L 294.758352 20.41881 
L 294.864236 20.313288 
L 294.97243 20.102244 
L 295.367417 19.996722 
L 295.45449 19.838439 
L 295.597689 19.732917 
L 295.706549 19.574634 
L 295.909094 19.469112 
L 295.984439 19.258068 
L 296.707031 19.152546 
L 296.815253 18.941502 
L 297.050067 18.83598 
L 297.117352 18.677698 
L 297.416896 18.572176 
L 297.460571 18.413893 
L 298.53695 18.308371 
L 298.593347 18.202849 
L 298.809306 18.097327 
L 298.809306 18.044566 
L 299.084392 17.939044 
L 299.176771 17.780761 
L 299.377709 17.675239 
L 299.441595 17.516956 
L 299.816774 17.411434 
L 299.915692 17.253151 
L 300.01676 17.147629 
L 300.103706 17.042107 
L 300.286639 16.936585 
L 300.369265 16.831063 
L 300.957717 16.725541 
L 301.03987 16.567259 
L 301.292481 16.461737 
L 301.401271 16.303454 
L 302.124413 16.197932 
L 302.124413 16.145171 
L 302.942594 16.039649 
L 302.942594 15.986888 
L 303.827772 15.881366 
L 303.827772 15.828605 
L 304.833918 15.723083 
L 304.833918 15.670322 
L 305.567048 15.5648 
L 305.567048 15.512039 
L 305.957987 15.406517 
L 306.014129 15.300995 
L 307.190158 15.195473 
L 307.190158 15.142712 
L 308.520807 15.03719 
L 308.520807 14.984429 
L 320.922444 14.878907 
L 320.922444 14.826146 
L 360.8064 14.826146 
L 360.8064 14.826146 
" style="fill:none;stroke:#ff00ff;stroke-linecap:square;stroke-width:1.5;"/>
   </g>
   <g id="line2d_36">
    <defs>
     <path d="M -0 8.485281 
L 5.091169 0 
L 0 -8.485281 
L -5.091169 -0 
z
" id="m10be3b36a1" style="stroke:#ff00ff;stroke-linejoin:miter;stroke-width:1.5;"/>
    </defs>
    <g>
     <use style="fill-opacity:0;stroke:#ff00ff;stroke-linejoin:miter;stroke-width:1.5;" x="115.227139" xlink:href="#m10be3b36a1" y="166.197385"/>
     <use style="fill-opacity:0;stroke:#ff00ff;stroke-linejoin:miter;stroke-width:1.5;" x="212.050299" xlink:href="#m10be3b36a1" y="90.801951"/>
     <use style="fill-opacity:0;stroke:#ff00ff;stroke-linejoin:miter;stroke-width:1.5;" x="282.786347" xlink:href="#m10be3b36a1" y="31.445854"/>
     <use style="fill-opacity:0;stroke:#ff00ff;stroke-linejoin:miter;stroke-width:1.5;" x="320.922444" xlink:href="#m10be3b36a1" y="14.826146"/>
     <use style="fill-opacity:0;stroke:#ff00ff;stroke-linejoin:miter;stroke-width:1.5;" x="360.8064" xlink:href="#m10be3b36a1" y="14.826146"/>
    </g>
   </g>
   <g id="line2d_37">
    <path style="fill:none;stroke:#ff00ff;stroke-linecap:square;stroke-width:1.5;"/>
    <g/>
   </g>
   <g id="line2d_38">
    <path clip-path="url(#p79ae48d9ee)" d="M 227.503746 82.201912 
" style="fill:none;stroke:#ff00ff;stroke-linecap:square;stroke-width:1.5;"/>
    <defs>
     <path d="M -12 12 
L 12 -12 
M -12 -12 
L 12 12 
" id="m0ea481e531" style="stroke:#ff00ff;"/>
    </defs>
    <g clip-path="url(#p79ae48d9ee)">
     <use style="fill:#ff00ff;stroke:#ff00ff;" x="227.503746" xlink:href="#m0ea481e531" y="82.201912"/>
    </g>
   </g>
   <g id="line2d_39">
    <path d="M 360.8064 33.028683 
L 380.514816 293.10336 
" style="fill:none;stroke:#000080;stroke-linecap:square;stroke-width:1.5;"/>
    <g>
     <use style="fill-opacity:0;stroke:#000080;stroke-width:1.5;" x="360.8064" xlink:href="#mb46442a0b9" y="33.028683"/>
     <use style="fill-opacity:0;stroke:#000080;stroke-width:1.5;" x="380.514816" xlink:href="#mb46442a0b9" y="293.10336"/>
    </g>
   </g>
   <g id="line2d_40">
    <path d="M 360.8064 14.826146 
L 380.514816 12.75264 
" style="fill:none;stroke:#ff00ff;stroke-linecap:square;stroke-width:1.5;"/>
    <g>
     <use style="fill-opacity:0;stroke:#ff00ff;stroke-linejoin:miter;stroke-width:1.5;" x="360.8064" xlink:href="#m10be3b36a1" y="14.826146"/>
     <use style="fill-opacity:0;stroke:#ff00ff;stroke-linejoin:miter;stroke-width:1.5;" x="380.514816" xlink:href="#m10be3b36a1" y="12.75264"/>
    </g>
   </g>
   <g id="line2d_41">
    <path d="M 360.8064 298.944 
L 360.8064 6.912 
" style="fill:none;stroke:#000000;stroke-linecap:square;stroke-width:1.5;"/>
   </g>
   <g id="patch_3">
    <path d="M 57.6 298.944 
L 360.8064 298.944 
" style="fill:none;stroke:#000000;stroke-linecap:square;stroke-linejoin:miter;stroke-width:0.8;"/>
   </g>
   <g id="patch_4">
    <path d="M 57.6 6.912 
L 360.8064 6.912 
" style="fill:none;stroke:#000000;stroke-linecap:square;stroke-linejoin:miter;stroke-width:0.8;"/>
   </g>
   <g id="text_13">
    <!-- cobyla -->
    <g transform="translate(386.578944 296.966485)scale(0.14 -0.14)">
     <defs>
      <path d="M 48.6875 27.296875 
Q 48.6875 37.203125 44.609375 42.84375 
Q 40.53125 48.484375 33.40625 48.484375 
Q 26.265625 48.484375 22.1875 42.84375 
Q 18.109375 37.203125 18.109375 27.296875 
Q 18.109375 17.390625 22.1875 11.75 
Q 26.265625 6.109375 33.40625 6.109375 
Q 40.53125 6.109375 44.609375 11.75 
Q 48.6875 17.390625 48.6875 27.296875 
z
M 18.109375 46.390625 
Q 20.953125 51.265625 25.265625 53.625 
Q 29.59375 56 35.59375 56 
Q 45.5625 56 51.78125 48.09375 
Q 58.015625 40.1875 58.015625 27.296875 
Q 58.015625 14.40625 51.78125 6.484375 
Q 45.5625 -1.421875 35.59375 -1.421875 
Q 29.59375 -1.421875 25.265625 0.953125 
Q 20.953125 3.328125 18.109375 8.203125 
L 18.109375 0 
L 9.078125 0 
L 9.078125 75.984375 
L 18.109375 75.984375 
z
" id="DejaVuSans-98"/>
      <path d="M 32.171875 -5.078125 
Q 28.375 -14.84375 24.75 -17.8125 
Q 21.140625 -20.796875 15.09375 -20.796875 
L 7.90625 -20.796875 
L 7.90625 -13.28125 
L 13.1875 -13.28125 
Q 16.890625 -13.28125 18.9375 -11.515625 
Q 21 -9.765625 23.484375 -3.21875 
L 25.09375 0.875 
L 2.984375 54.6875 
L 12.5 54.6875 
L 29.59375 11.921875 
L 46.6875 54.6875 
L 56.203125 54.6875 
z
" id="DejaVuSans-121"/>
     </defs>
     <use xlink:href="#DejaVuSans-99"/>
     <use x="54.980469" xlink:href="#DejaVuSans-111"/>
     <use x="116.162109" xlink:href="#DejaVuSans-98"/>
     <use x="179.638672" xlink:href="#DejaVuSans-121"/>
     <use x="238.818359" xlink:href="#DejaVuSans-108"/>
     <use x="266.601562" xlink:href="#DejaVuSans-97"/>
    </g>
   </g>
   <g id="text_14">
    <!-- slsqp -->
    <g transform="translate(386.578944 16.615765)scale(0.14 -0.14)">
     <defs>
      <path d="M 14.796875 27.296875 
Q 14.796875 17.390625 18.875 11.75 
Q 22.953125 6.109375 30.078125 6.109375 
Q 37.203125 6.109375 41.296875 11.75 
Q 45.40625 17.390625 45.40625 27.296875 
Q 45.40625 37.203125 41.296875 42.84375 
Q 37.203125 48.484375 30.078125 48.484375 
Q 22.953125 48.484375 18.875 42.84375 
Q 14.796875 37.203125 14.796875 27.296875 
z
M 45.40625 8.203125 
Q 42.578125 3.328125 38.25 0.953125 
Q 33.9375 -1.421875 27.875 -1.421875 
Q 17.96875 -1.421875 11.734375 6.484375 
Q 5.515625 14.40625 5.515625 27.296875 
Q 5.515625 40.1875 11.734375 48.09375 
Q 17.96875 56 27.875 56 
Q 33.9375 56 38.25 53.625 
Q 42.578125 51.265625 45.40625 46.390625 
L 45.40625 54.6875 
L 54.390625 54.6875 
L 54.390625 -20.796875 
L 45.40625 -20.796875 
z
" id="DejaVuSans-113"/>
     </defs>
     <use xlink:href="#DejaVuSans-115"/>
     <use x="52.099609" xlink:href="#DejaVuSans-108"/>
     <use x="79.882812" xlink:href="#DejaVuSans-115"/>
     <use x="131.982422" xlink:href="#DejaVuSans-113"/>
     <use x="195.458984" xlink:href="#DejaVuSans-112"/>
    </g>
   </g>
   <g id="text_15">
    <!-- bbob-constrained f1, f7, f13, f19, f25, f31, f37, f43, f49, 5-D -->
    <g transform="translate(60.632064 17.582726)scale(0.102 -0.102)">
     <defs>
      <path d="M 4.890625 31.390625 
L 31.203125 31.390625 
L 31.203125 23.390625 
L 4.890625 23.390625 
z
" id="DejaVuSans-45"/>
      <path d="M 8.203125 72.90625 
L 55.078125 72.90625 
L 55.078125 68.703125 
L 28.609375 0 
L 18.3125 0 
L 43.21875 64.59375 
L 8.203125 64.59375 
z
" id="DejaVuSans-55"/>
      <path d="M 40.578125 39.3125 
Q 47.65625 37.796875 51.625 33 
Q 55.609375 28.21875 55.609375 21.1875 
Q 55.609375 10.40625 48.1875 4.484375 
Q 40.765625 -1.421875 27.09375 -1.421875 
Q 22.515625 -1.421875 17.65625 -0.515625 
Q 12.796875 0.390625 7.625 2.203125 
L 7.625 11.71875 
Q 11.71875 9.328125 16.59375 8.109375 
Q 21.484375 6.890625 26.8125 6.890625 
Q 36.078125 6.890625 40.9375 10.546875 
Q 45.796875 14.203125 45.796875 21.1875 
Q 45.796875 27.640625 41.28125 31.265625 
Q 36.765625 34.90625 28.71875 34.90625 
L 20.21875 34.90625 
L 20.21875 43.015625 
L 29.109375 43.015625 
Q 36.375 43.015625 40.234375 45.921875 
Q 44.09375 48.828125 44.09375 54.296875 
Q 44.09375 59.90625 40.109375 62.90625 
Q 36.140625 65.921875 28.71875 65.921875 
Q 24.65625 65.921875 20.015625 65.03125 
Q 15.375 64.15625 9.8125 62.3125 
L 9.8125 71.09375 
Q 15.4375 72.65625 20.34375 73.4375 
Q 25.25 74.21875 29.59375 74.21875 
Q 40.828125 74.21875 47.359375 69.109375 
Q 53.90625 64.015625 53.90625 55.328125 
Q 53.90625 49.265625 50.4375 45.09375 
Q 46.96875 40.921875 40.578125 39.3125 
z
" id="DejaVuSans-51"/>
      <path d="M 10.984375 1.515625 
L 10.984375 10.5 
Q 14.703125 8.734375 18.5 7.8125 
Q 22.3125 6.890625 25.984375 6.890625 
Q 35.75 6.890625 40.890625 13.453125 
Q 46.046875 20.015625 46.78125 33.40625 
Q 43.953125 29.203125 39.59375 26.953125 
Q 35.25 24.703125 29.984375 24.703125 
Q 19.046875 24.703125 12.671875 31.3125 
Q 6.296875 37.9375 6.296875 49.421875 
Q 6.296875 60.640625 12.9375 67.421875 
Q 19.578125 74.21875 30.609375 74.21875 
Q 43.265625 74.21875 49.921875 64.515625 
Q 56.59375 54.828125 56.59375 36.375 
Q 56.59375 19.140625 48.40625 8.859375 
Q 40.234375 -1.421875 26.421875 -1.421875 
Q 22.703125 -1.421875 18.890625 -0.6875 
Q 15.09375 0.046875 10.984375 1.515625 
z
M 30.609375 32.421875 
Q 37.25 32.421875 41.125 36.953125 
Q 45.015625 41.5 45.015625 49.421875 
Q 45.015625 57.28125 41.125 61.84375 
Q 37.25 66.40625 30.609375 66.40625 
Q 23.96875 66.40625 20.09375 61.84375 
Q 16.21875 57.28125 16.21875 49.421875 
Q 16.21875 41.5 20.09375 36.953125 
Q 23.96875 32.421875 30.609375 32.421875 
z
" id="DejaVuSans-57"/>
      <path d="M 10.796875 72.90625 
L 49.515625 72.90625 
L 49.515625 64.59375 
L 19.828125 64.59375 
L 19.828125 46.734375 
Q 21.96875 47.46875 24.109375 47.828125 
Q 26.265625 48.1875 28.421875 48.1875 
Q 40.625 48.1875 47.75 41.5 
Q 54.890625 34.8125 54.890625 23.390625 
Q 54.890625 11.625 47.5625 5.09375 
Q 40.234375 -1.421875 26.90625 -1.421875 
Q 22.3125 -1.421875 17.546875 -0.640625 
Q 12.796875 0.140625 7.71875 1.703125 
L 7.71875 11.625 
Q 12.109375 9.234375 16.796875 8.0625 
Q 21.484375 6.890625 26.703125 6.890625 
Q 35.15625 6.890625 40.078125 11.328125 
Q 45.015625 15.765625 45.015625 23.390625 
Q 45.015625 31 40.078125 35.4375 
Q 35.15625 39.890625 26.703125 39.890625 
Q 22.75 39.890625 18.8125 39.015625 
Q 14.890625 38.140625 10.796875 36.28125 
z
" id="DejaVuSans-53"/>
      <path d="M 19.671875 64.796875 
L 19.671875 8.109375 
L 31.59375 8.109375 
Q 46.6875 8.109375 53.6875 14.9375 
Q 60.6875 21.78125 60.6875 36.53125 
Q 60.6875 51.171875 53.6875 57.984375 
Q 46.6875 64.796875 31.59375 64.796875 
z
M 9.8125 72.90625 
L 30.078125 72.90625 
Q 51.265625 72.90625 61.171875 64.09375 
Q 71.09375 55.28125 71.09375 36.53125 
Q 71.09375 17.671875 61.125 8.828125 
Q 51.171875 0 30.078125 0 
L 9.8125 0 
z
" id="DejaVuSans-68"/>
     </defs>
     <use xlink:href="#DejaVuSans-98"/>
     <use x="63.476562" xlink:href="#DejaVuSans-98"/>
     <use x="126.953125" xlink:href="#DejaVuSans-111"/>
     <use x="188.134766" xlink:href="#DejaVuSans-98"/>
     <use x="251.611328" xlink:href="#DejaVuSans-45"/>
     <use x="287.695312" xlink:href="#DejaVuSans-99"/>
     <use x="342.675781" xlink:href="#DejaVuSans-111"/>
     <use x="403.857422" xlink:href="#DejaVuSans-110"/>
     <use x="467.236328" xlink:href="#DejaVuSans-115"/>
     <use x="519.335938" xlink:href="#DejaVuSans-116"/>
     <use x="558.544922" xlink:href="#DejaVuSans-114"/>
     <use x="599.658203" xlink:href="#DejaVuSans-97"/>
     <use x="660.9375" xlink:href="#DejaVuSans-105"/>
     <use x="688.720703" xlink:href="#DejaVuSans-110"/>
     <use x="752.099609" xlink:href="#DejaVuSans-101"/>
     <use x="813.623047" xlink:href="#DejaVuSans-100"/>
     <use x="877.099609" xlink:href="#DejaVuSans-32"/>
     <use x="908.886719" xlink:href="#DejaVuSans-102"/>
     <use x="944.091797" xlink:href="#DejaVuSans-49"/>
     <use x="1007.714844" xlink:href="#DejaVuSans-44"/>
     <use x="1039.501953" xlink:href="#DejaVuSans-32"/>
     <use x="1071.289062" xlink:href="#DejaVuSans-102"/>
     <use x="1106.494141" xlink:href="#DejaVuSans-55"/>
     <use x="1170.117188" xlink:href="#DejaVuSans-44"/>
     <use x="1201.904297" xlink:href="#DejaVuSans-32"/>
     <use x="1233.691406" xlink:href="#DejaVuSans-102"/>
     <use x="1268.896484" xlink:href="#DejaVuSans-49"/>
     <use x="1332.519531" xlink:href="#DejaVuSans-51"/>
     <use x="1396.142578" xlink:href="#DejaVuSans-44"/>
     <use x="1427.929688" xlink:href="#DejaVuSans-32"/>
     <use x="1459.716797" xlink:href="#DejaVuSans-102"/>
     <use x="1494.921875" xlink:href="#DejaVuSans-49"/>
     <use x="1558.544922" xlink:href="#DejaVuSans-57"/>
     <use x="1622.167969" xlink:href="#DejaVuSans-44"/>
     <use x="1653.955078" xlink:href="#DejaVuSans-32"/>
     <use x="1685.742188" xlink:href="#DejaVuSans-102"/>
     <use x="1720.947266" xlink:href="#DejaVuSans-50"/>
     <use x="1784.570312" xlink:href="#DejaVuSans-53"/>
     <use x="1848.193359" xlink:href="#DejaVuSans-44"/>
     <use x="1879.980469" xlink:href="#DejaVuSans-32"/>
     <use x="1911.767578" xlink:href="#DejaVuSans-102"/>
     <use x="1946.972656" xlink:href="#DejaVuSans-51"/>
     <use x="2010.595703" xlink:href="#DejaVuSans-49"/>
     <use x="2074.21875" xlink:href="#DejaVuSans-44"/>
     <use x="2106.005859" xlink:href="#DejaVuSans-32"/>
     <use x="2137.792969" xlink:href="#DejaVuSans-102"/>
     <use x="2172.998047" xlink:href="#DejaVuSans-51"/>
     <use x="2236.621094" xlink:href="#DejaVuSans-55"/>
     <use x="2300.244141" xlink:href="#DejaVuSans-44"/>
     <use x="2332.03125" xlink:href="#DejaVuSans-32"/>
     <use x="2363.818359" xlink:href="#DejaVuSans-102"/>
     <use x="2399.023438" xlink:href="#DejaVuSans-52"/>
     <use x="2462.646484" xlink:href="#DejaVuSans-51"/>
     <use x="2526.269531" xlink:href="#DejaVuSans-44"/>
     <use x="2558.056641" xlink:href="#DejaVuSans-32"/>
     <use x="2589.84375" xlink:href="#DejaVuSans-102"/>
     <use x="2625.048828" xlink:href="#DejaVuSans-52"/>
     <use x="2688.671875" xlink:href="#DejaVuSans-57"/>
     <use x="2752.294922" xlink:href="#DejaVuSans-44"/>
     <use x="2784.082031" xlink:href="#DejaVuSans-32"/>
     <use x="2815.869141" xlink:href="#DejaVuSans-53"/>
     <use x="2879.492188" xlink:href="#DejaVuSans-45"/>
     <use x="2915.576172" xlink:href="#DejaVuSans-68"/>
    </g>
    <!-- 41 targets: 100..1e-06 -->
    <g transform="translate(60.632064 29.004495)scale(0.102 -0.102)">
     <defs>
      <path d="M 11.71875 12.40625 
L 22.015625 12.40625 
L 22.015625 0 
L 11.71875 0 
z
M 11.71875 51.703125 
L 22.015625 51.703125 
L 22.015625 39.3125 
L 11.71875 39.3125 
z
" id="DejaVuSans-58"/>
     </defs>
     <use xlink:href="#DejaVuSans-52"/>
     <use x="63.623047" xlink:href="#DejaVuSans-49"/>
     <use x="127.246094" xlink:href="#DejaVuSans-32"/>
     <use x="159.033203" xlink:href="#DejaVuSans-116"/>
     <use x="198.242188" xlink:href="#DejaVuSans-97"/>
     <use x="259.521484" xlink:href="#DejaVuSans-114"/>
     <use x="298.884766" xlink:href="#DejaVuSans-103"/>
     <use x="362.361328" xlink:href="#DejaVuSans-101"/>
     <use x="423.884766" xlink:href="#DejaVuSans-116"/>
     <use x="463.09375" xlink:href="#DejaVuSans-115"/>
     <use x="515.193359" xlink:href="#DejaVuSans-58"/>
     <use x="548.884766" xlink:href="#DejaVuSans-32"/>
     <use x="580.671875" xlink:href="#DejaVuSans-49"/>
     <use x="644.294922" xlink:href="#DejaVuSans-48"/>
     <use x="707.917969" xlink:href="#DejaVuSans-48"/>
     <use x="771.541016" xlink:href="#DejaVuSans-46"/>
     <use x="803.328125" xlink:href="#DejaVuSans-46"/>
     <use x="835.115234" xlink:href="#DejaVuSans-49"/>
     <use x="898.738281" xlink:href="#DejaVuSans-101"/>
     <use x="960.261719" xlink:href="#DejaVuSans-45"/>
     <use x="996.345703" xlink:href="#DejaVuSans-48"/>
     <use x="1059.96875" xlink:href="#DejaVuSans-54"/>
    </g>
    <!-- evals = f-evals + g-evals -->
    <g transform="translate(60.632064 40.426264)scale(0.102 -0.102)">
     <defs>
      <path d="M 10.59375 45.40625 
L 73.1875 45.40625 
L 73.1875 37.203125 
L 10.59375 37.203125 
z
M 10.59375 25.484375 
L 73.1875 25.484375 
L 73.1875 17.1875 
L 10.59375 17.1875 
z
" id="DejaVuSans-61"/>
      <path d="M 46 62.703125 
L 46 35.5 
L 73.1875 35.5 
L 73.1875 27.203125 
L 46 27.203125 
L 46 0 
L 37.796875 0 
L 37.796875 27.203125 
L 10.59375 27.203125 
L 10.59375 35.5 
L 37.796875 35.5 
L 37.796875 62.703125 
z
" id="DejaVuSans-43"/>
     </defs>
     <use xlink:href="#DejaVuSans-101"/>
     <use x="61.523438" xlink:href="#DejaVuSans-118"/>
     <use x="120.703125" xlink:href="#DejaVuSans-97"/>
     <use x="181.982422" xlink:href="#DejaVuSans-108"/>
     <use x="209.765625" xlink:href="#DejaVuSans-115"/>
     <use x="261.865234" xlink:href="#DejaVuSans-32"/>
     <use x="293.652344" xlink:href="#DejaVuSans-61"/>
     <use x="377.441406" xlink:href="#DejaVuSans-32"/>
     <use x="409.228516" xlink:href="#DejaVuSans-102"/>
     <use x="438.933594" xlink:href="#DejaVuSans-45"/>
     <use x="475.017578" xlink:href="#DejaVuSans-101"/>
     <use x="536.541016" xlink:href="#DejaVuSans-118"/>
     <use x="595.720703" xlink:href="#DejaVuSans-97"/>
     <use x="657" xlink:href="#DejaVuSans-108"/>
     <use x="684.783203" xlink:href="#DejaVuSans-115"/>
     <use x="736.882812" xlink:href="#DejaVuSans-32"/>
     <use x="768.669922" xlink:href="#DejaVuSans-43"/>
     <use x="852.458984" xlink:href="#DejaVuSans-32"/>
     <use x="884.246094" xlink:href="#DejaVuSans-103"/>
     <use x="947.722656" xlink:href="#DejaVuSans-45"/>
     <use x="983.806641" xlink:href="#DejaVuSans-101"/>
     <use x="1045.330078" xlink:href="#DejaVuSans-118"/>
     <use x="1104.509766" xlink:href="#DejaVuSans-97"/>
     <use x="1165.789062" xlink:href="#DejaVuSans-108"/>
     <use x="1193.572266" xlink:href="#DejaVuSans-115"/>
    </g>
    <!-- 15 instances -->
    <g transform="translate(60.632064 51.848032)scale(0.102 -0.102)">
     <use xlink:href="#DejaVuSans-49"/>
     <use x="63.623047" xlink:href="#DejaVuSans-53"/>
     <use x="127.246094" xlink:href="#DejaVuSans-32"/>
     <use x="159.033203" xlink:href="#DejaVuSans-105"/>
     <use x="186.816406" xlink:href="#DejaVuSans-110"/>
     <use x="250.195312" xlink:href="#DejaVuSans-115"/>
     <use x="302.294922" xlink:href="#DejaVuSans-116"/>
     <use x="341.503906" xlink:href="#DejaVuSans-97"/>
     <use x="402.783203" xlink:href="#DejaVuSans-110"/>
     <use x="466.162109" xlink:href="#DejaVuSans-99"/>
     <use x="521.142578" xlink:href="#DejaVuSans-101"/>
     <use x="582.666016" xlink:href="#DejaVuSans-115"/>
    </g>
   </g>
   <g id="text_16">
    <!-- v2.4.159 -->
    <g style="fill:#808080;" transform="translate(187.15945 293.943992)scale(0.1 -0.1)">
     <use xlink:href="#DejaVuSans-118"/>
     <use x="59.179688" xlink:href="#DejaVuSans-50"/>
     <use x="122.802734" xlink:href="#DejaVuSans-46"/>
     <use x="154.589844" xlink:href="#DejaVuSans-52"/>
     <use x="218.212891" xlink:href="#DejaVuSans-46"/>
     <use x="250" xlink:href="#DejaVuSans-49"/>
     <use x="313.623047" xlink:href="#DejaVuSans-53"/>
     <use x="377.246094" xlink:href="#DejaVuSans-57"/>
    </g>
   </g>
  </g>
 </g>
 <defs>
  <clipPath id="p79ae48d9ee">
   <rect height="292.032" width="303.2064" x="57.6" y="6.912"/>
  </clipPath>
 </defs>
</svg>
