<?xml version="1.0" encoding="utf-8" standalone="no"?>
<!DOCTYPE svg PUBLIC "-//W3C//DTD SVG 1.1//EN"
  "http://www.w3.org/Graphics/SVG/1.1/DTD/svg11.dtd">
<!-- Created with matplotlib (https://matplotlib.org/) -->
<svg height="345.6pt" version="1.1" viewBox="0 0 460.8 345.6" width="460.8pt" xmlns="http://www.w3.org/2000/svg" xmlns:xlink="http://www.w3.org/1999/xlink">
 <metadata>
  <rdf:RDF xmlns:cc="http://creativecommons.org/ns#" xmlns:dc="http://purl.org/dc/elements/1.1/" xmlns:rdf="http://www.w3.org/1999/02/22-rdf-syntax-ns#">
   <cc:Work>
    <dc:type rdf:resource="http://purl.org/dc/dcmitype/StillImage"/>
    <dc:date>2022-02-09T10:00:49.720440</dc:date>
    <dc:format>image/svg+xml</dc:format>
    <dc:creator>
     <cc:Agent>
      <dc:title>Matplotlib v3.3.3, https://matplotlib.org/</dc:title>
     </cc:Agent>
    </dc:creator>
   </cc:Work>
  </rdf:RDF>
 </metadata>
 <defs>
  <style type="text/css">*{stroke-linecap:butt;stroke-linejoin:round;}</style>
 </defs>
 <g id="figure_1">
  <g id="patch_1">
   <path d="M 0 345.6 
L 460.8 345.6 
L 460.8 0 
L 0 0 
z
" style="fill:#ffffff;"/>
  </g>
  <g id="axes_1">
   <g id="patch_2">
    <path d="M 57.6 298.944 
L 360.8064 298.944 
L 360.8064 27.648 
L 57.6 27.648 
z
" style="fill:#ffffff;"/>
   </g>
   <g id="matplotlib.axis_1">
    <g id="xtick_1">
     <g id="line2d_1">
      <path clip-path="url(#p2bbd1c8be3)" d="M 57.6 298.944 
L 57.6 27.648 
" style="fill:none;stroke:#b0b0b0;stroke-linecap:square;stroke-width:0.8;"/>
     </g>
     <g id="line2d_2">
      <defs>
       <path d="M 0 0 
L 0 3.5 
" id="m90c0cd5c4d" style="stroke:#000000;stroke-width:0.8;"/>
      </defs>
      <g>
       <use style="stroke:#000000;stroke-width:0.8;" x="57.6" xlink:href="#m90c0cd5c4d" y="298.944"/>
      </g>
     </g>
     <g id="text_1">
      <!-- 0 -->
      <g transform="translate(52.191875 318.861344)scale(0.17 -0.17)">
       <defs>
        <path d="M 31.78125 66.40625 
Q 24.171875 66.40625 20.328125 58.90625 
Q 16.5 51.421875 16.5 36.375 
Q 16.5 21.390625 20.328125 13.890625 
Q 24.171875 6.390625 31.78125 6.390625 
Q 39.453125 6.390625 43.28125 13.890625 
Q 47.125 21.390625 47.125 36.375 
Q 47.125 51.421875 43.28125 58.90625 
Q 39.453125 66.40625 31.78125 66.40625 
z
M 31.78125 74.21875 
Q 44.046875 74.21875 50.515625 64.515625 
Q 56.984375 54.828125 56.984375 36.375 
Q 56.984375 17.96875 50.515625 8.265625 
Q 44.046875 -1.421875 31.78125 -1.421875 
Q 19.53125 -1.421875 13.0625 8.265625 
Q 6.59375 17.96875 6.59375 36.375 
Q 6.59375 54.828125 13.0625 64.515625 
Q 19.53125 74.21875 31.78125 74.21875 
z
" id="DejaVuSans-48"/>
       </defs>
       <use xlink:href="#DejaVuSans-48"/>
      </g>
     </g>
    </g>
    <g id="xtick_2">
     <g id="line2d_3">
      <path clip-path="url(#p2bbd1c8be3)" d="M 144.2304 298.944 
L 144.2304 27.648 
" style="fill:none;stroke:#b0b0b0;stroke-linecap:square;stroke-width:0.8;"/>
     </g>
     <g id="line2d_4">
      <g>
       <use style="stroke:#000000;stroke-width:0.8;" x="144.2304" xlink:href="#m90c0cd5c4d" y="298.944"/>
      </g>
     </g>
     <g id="text_2">
      <!-- 2 -->
      <g transform="translate(138.822275 318.861344)scale(0.17 -0.17)">
       <defs>
        <path d="M 19.1875 8.296875 
L 53.609375 8.296875 
L 53.609375 0 
L 7.328125 0 
L 7.328125 8.296875 
Q 12.9375 14.109375 22.625 23.890625 
Q 32.328125 33.6875 34.8125 36.53125 
Q 39.546875 41.84375 41.421875 45.53125 
Q 43.3125 49.21875 43.3125 52.78125 
Q 43.3125 58.59375 39.234375 62.25 
Q 35.15625 65.921875 28.609375 65.921875 
Q 23.96875 65.921875 18.8125 64.3125 
Q 13.671875 62.703125 7.8125 59.421875 
L 7.8125 69.390625 
Q 13.765625 71.78125 18.9375 73 
Q 24.125 74.21875 28.421875 74.21875 
Q 39.75 74.21875 46.484375 68.546875 
Q 53.21875 62.890625 53.21875 53.421875 
Q 53.21875 48.921875 51.53125 44.890625 
Q 49.859375 40.875 45.40625 35.40625 
Q 44.1875 33.984375 37.640625 27.21875 
Q 31.109375 20.453125 19.1875 8.296875 
z
" id="DejaVuSans-50"/>
       </defs>
       <use xlink:href="#DejaVuSans-50"/>
      </g>
     </g>
    </g>
    <g id="xtick_3">
     <g id="line2d_5">
      <path clip-path="url(#p2bbd1c8be3)" d="M 230.8608 298.944 
L 230.8608 27.648 
" style="fill:none;stroke:#b0b0b0;stroke-linecap:square;stroke-width:0.8;"/>
     </g>
     <g id="line2d_6">
      <g>
       <use style="stroke:#000000;stroke-width:0.8;" x="230.8608" xlink:href="#m90c0cd5c4d" y="298.944"/>
      </g>
     </g>
     <g id="text_3">
      <!-- 4 -->
      <g transform="translate(225.452675 318.861344)scale(0.17 -0.17)">
       <defs>
        <path d="M 37.796875 64.3125 
L 12.890625 25.390625 
L 37.796875 25.390625 
z
M 35.203125 72.90625 
L 47.609375 72.90625 
L 47.609375 25.390625 
L 58.015625 25.390625 
L 58.015625 17.1875 
L 47.609375 17.1875 
L 47.609375 0 
L 37.796875 0 
L 37.796875 17.1875 
L 4.890625 17.1875 
L 4.890625 26.703125 
z
" id="DejaVuSans-52"/>
       </defs>
       <use xlink:href="#DejaVuSans-52"/>
      </g>
     </g>
    </g>
    <g id="xtick_4">
     <g id="line2d_7">
      <path clip-path="url(#p2bbd1c8be3)" d="M 317.4912 298.944 
L 317.4912 27.648 
" style="fill:none;stroke:#b0b0b0;stroke-linecap:square;stroke-width:0.8;"/>
     </g>
     <g id="line2d_8">
      <g>
       <use style="stroke:#000000;stroke-width:0.8;" x="317.4912" xlink:href="#m90c0cd5c4d" y="298.944"/>
      </g>
     </g>
     <g id="text_4">
      <!-- 6 -->
      <g transform="translate(312.083075 318.861344)scale(0.17 -0.17)">
       <defs>
        <path d="M 33.015625 40.375 
Q 26.375 40.375 22.484375 35.828125 
Q 18.609375 31.296875 18.609375 23.390625 
Q 18.609375 15.53125 22.484375 10.953125 
Q 26.375 6.390625 33.015625 6.390625 
Q 39.65625 6.390625 43.53125 10.953125 
Q 47.40625 15.53125 47.40625 23.390625 
Q 47.40625 31.296875 43.53125 35.828125 
Q 39.65625 40.375 33.015625 40.375 
z
M 52.59375 71.296875 
L 52.59375 62.3125 
Q 48.875 64.0625 45.09375 64.984375 
Q 41.3125 65.921875 37.59375 65.921875 
Q 27.828125 65.921875 22.671875 59.328125 
Q 17.53125 52.734375 16.796875 39.40625 
Q 19.671875 43.65625 24.015625 45.921875 
Q 28.375 48.1875 33.59375 48.1875 
Q 44.578125 48.1875 50.953125 41.515625 
Q 57.328125 34.859375 57.328125 23.390625 
Q 57.328125 12.15625 50.6875 5.359375 
Q 44.046875 -1.421875 33.015625 -1.421875 
Q 20.359375 -1.421875 13.671875 8.265625 
Q 6.984375 17.96875 6.984375 36.375 
Q 6.984375 53.65625 15.1875 63.9375 
Q 23.390625 74.21875 37.203125 74.21875 
Q 40.921875 74.21875 44.703125 73.484375 
Q 48.484375 72.75 52.59375 71.296875 
z
" id="DejaVuSans-54"/>
       </defs>
       <use xlink:href="#DejaVuSans-54"/>
      </g>
     </g>
    </g>
    <g id="xtick_5">
     <g id="line2d_9">
      <path clip-path="url(#p2bbd1c8be3)" d="M 100.9152 298.944 
L 100.9152 27.648 
" style="fill:none;stroke:#b0b0b0;stroke-linecap:square;stroke-width:0.8;"/>
     </g>
     <g id="line2d_10">
      <defs>
       <path d="M 0 0 
L 0 2 
" id="m516e544620" style="stroke:#000000;stroke-width:0.6;"/>
      </defs>
      <g>
       <use style="stroke:#000000;stroke-width:0.6;" x="100.9152" xlink:href="#m516e544620" y="298.944"/>
      </g>
     </g>
    </g>
    <g id="xtick_6">
     <g id="line2d_11">
      <path clip-path="url(#p2bbd1c8be3)" d="M 187.5456 298.944 
L 187.5456 27.648 
" style="fill:none;stroke:#b0b0b0;stroke-linecap:square;stroke-width:0.8;"/>
     </g>
     <g id="line2d_12">
      <g>
       <use style="stroke:#000000;stroke-width:0.6;" x="187.5456" xlink:href="#m516e544620" y="298.944"/>
      </g>
     </g>
    </g>
    <g id="xtick_7">
     <g id="line2d_13">
      <path clip-path="url(#p2bbd1c8be3)" d="M 274.176 298.944 
L 274.176 27.648 
" style="fill:none;stroke:#b0b0b0;stroke-linecap:square;stroke-width:0.8;"/>
     </g>
     <g id="line2d_14">
      <g>
       <use style="stroke:#000000;stroke-width:0.6;" x="274.176" xlink:href="#m516e544620" y="298.944"/>
      </g>
     </g>
    </g>
    <g id="xtick_8">
     <g id="line2d_15">
      <path clip-path="url(#p2bbd1c8be3)" d="M 360.8064 298.944 
L 360.8064 27.648 
" style="fill:none;stroke:#b0b0b0;stroke-linecap:square;stroke-width:0.8;"/>
     </g>
     <g id="line2d_16">
      <g>
       <use style="stroke:#000000;stroke-width:0.6;" x="360.8064" xlink:href="#m516e544620" y="298.944"/>
      </g>
     </g>
    </g>
    <g id="text_5">
     <!-- log10(evals / dimension) -->
     <g transform="translate(104.238825 339.314156)scale(0.17 -0.17)">
      <defs>
       <path d="M 9.421875 75.984375 
L 18.40625 75.984375 
L 18.40625 0 
L 9.421875 0 
z
" id="DejaVuSans-108"/>
       <path d="M 30.609375 48.390625 
Q 23.390625 48.390625 19.1875 42.75 
Q 14.984375 37.109375 14.984375 27.296875 
Q 14.984375 17.484375 19.15625 11.84375 
Q 23.34375 6.203125 30.609375 6.203125 
Q 37.796875 6.203125 41.984375 11.859375 
Q 46.1875 17.53125 46.1875 27.296875 
Q 46.1875 37.015625 41.984375 42.703125 
Q 37.796875 48.390625 30.609375 48.390625 
z
M 30.609375 56 
Q 42.328125 56 49.015625 48.375 
Q 55.71875 40.765625 55.71875 27.296875 
Q 55.71875 13.875 49.015625 6.21875 
Q 42.328125 -1.421875 30.609375 -1.421875 
Q 18.84375 -1.421875 12.171875 6.21875 
Q 5.515625 13.875 5.515625 27.296875 
Q 5.515625 40.765625 12.171875 48.375 
Q 18.84375 56 30.609375 56 
z
" id="DejaVuSans-111"/>
       <path d="M 45.40625 27.984375 
Q 45.40625 37.75 41.375 43.109375 
Q 37.359375 48.484375 30.078125 48.484375 
Q 22.859375 48.484375 18.828125 43.109375 
Q 14.796875 37.75 14.796875 27.984375 
Q 14.796875 18.265625 18.828125 12.890625 
Q 22.859375 7.515625 30.078125 7.515625 
Q 37.359375 7.515625 41.375 12.890625 
Q 45.40625 18.265625 45.40625 27.984375 
z
M 54.390625 6.78125 
Q 54.390625 -7.171875 48.1875 -13.984375 
Q 42 -20.796875 29.203125 -20.796875 
Q 24.46875 -20.796875 20.265625 -20.09375 
Q 16.0625 -19.390625 12.109375 -17.921875 
L 12.109375 -9.1875 
Q 16.0625 -11.328125 19.921875 -12.34375 
Q 23.78125 -13.375 27.78125 -13.375 
Q 36.625 -13.375 41.015625 -8.765625 
Q 45.40625 -4.15625 45.40625 5.171875 
L 45.40625 9.625 
Q 42.625 4.78125 38.28125 2.390625 
Q 33.9375 0 27.875 0 
Q 17.828125 0 11.671875 7.65625 
Q 5.515625 15.328125 5.515625 27.984375 
Q 5.515625 40.671875 11.671875 48.328125 
Q 17.828125 56 27.875 56 
Q 33.9375 56 38.28125 53.609375 
Q 42.625 51.21875 45.40625 46.390625 
L 45.40625 54.6875 
L 54.390625 54.6875 
z
" id="DejaVuSans-103"/>
       <path d="M 12.40625 8.296875 
L 28.515625 8.296875 
L 28.515625 63.921875 
L 10.984375 60.40625 
L 10.984375 69.390625 
L 28.421875 72.90625 
L 38.28125 72.90625 
L 38.28125 8.296875 
L 54.390625 8.296875 
L 54.390625 0 
L 12.40625 0 
z
" id="DejaVuSans-49"/>
       <path d="M 31 75.875 
Q 24.46875 64.65625 21.28125 53.65625 
Q 18.109375 42.671875 18.109375 31.390625 
Q 18.109375 20.125 21.3125 9.0625 
Q 24.515625 -2 31 -13.1875 
L 23.1875 -13.1875 
Q 15.875 -1.703125 12.234375 9.375 
Q 8.59375 20.453125 8.59375 31.390625 
Q 8.59375 42.28125 12.203125 53.3125 
Q 15.828125 64.359375 23.1875 75.875 
z
" id="DejaVuSans-40"/>
       <path d="M 56.203125 29.59375 
L 56.203125 25.203125 
L 14.890625 25.203125 
Q 15.484375 15.921875 20.484375 11.0625 
Q 25.484375 6.203125 34.421875 6.203125 
Q 39.59375 6.203125 44.453125 7.46875 
Q 49.3125 8.734375 54.109375 11.28125 
L 54.109375 2.78125 
Q 49.265625 0.734375 44.1875 -0.34375 
Q 39.109375 -1.421875 33.890625 -1.421875 
Q 20.796875 -1.421875 13.15625 6.1875 
Q 5.515625 13.8125 5.515625 26.8125 
Q 5.515625 40.234375 12.765625 48.109375 
Q 20.015625 56 32.328125 56 
Q 43.359375 56 49.78125 48.890625 
Q 56.203125 41.796875 56.203125 29.59375 
z
M 47.21875 32.234375 
Q 47.125 39.59375 43.09375 43.984375 
Q 39.0625 48.390625 32.421875 48.390625 
Q 24.90625 48.390625 20.390625 44.140625 
Q 15.875 39.890625 15.1875 32.171875 
z
" id="DejaVuSans-101"/>
       <path d="M 2.984375 54.6875 
L 12.5 54.6875 
L 29.59375 8.796875 
L 46.6875 54.6875 
L 56.203125 54.6875 
L 35.6875 0 
L 23.484375 0 
z
" id="DejaVuSans-118"/>
       <path d="M 34.28125 27.484375 
Q 23.390625 27.484375 19.1875 25 
Q 14.984375 22.515625 14.984375 16.5 
Q 14.984375 11.71875 18.140625 8.90625 
Q 21.296875 6.109375 26.703125 6.109375 
Q 34.1875 6.109375 38.703125 11.40625 
Q 43.21875 16.703125 43.21875 25.484375 
L 43.21875 27.484375 
z
M 52.203125 31.203125 
L 52.203125 0 
L 43.21875 0 
L 43.21875 8.296875 
Q 40.140625 3.328125 35.546875 0.953125 
Q 30.953125 -1.421875 24.3125 -1.421875 
Q 15.921875 -1.421875 10.953125 3.296875 
Q 6 8.015625 6 15.921875 
Q 6 25.140625 12.171875 29.828125 
Q 18.359375 34.515625 30.609375 34.515625 
L 43.21875 34.515625 
L 43.21875 35.40625 
Q 43.21875 41.609375 39.140625 45 
Q 35.0625 48.390625 27.6875 48.390625 
Q 23 48.390625 18.546875 47.265625 
Q 14.109375 46.140625 10.015625 43.890625 
L 10.015625 52.203125 
Q 14.9375 54.109375 19.578125 55.046875 
Q 24.21875 56 28.609375 56 
Q 40.484375 56 46.34375 49.84375 
Q 52.203125 43.703125 52.203125 31.203125 
z
" id="DejaVuSans-97"/>
       <path d="M 44.28125 53.078125 
L 44.28125 44.578125 
Q 40.484375 46.53125 36.375 47.5 
Q 32.28125 48.484375 27.875 48.484375 
Q 21.1875 48.484375 17.84375 46.4375 
Q 14.5 44.390625 14.5 40.28125 
Q 14.5 37.15625 16.890625 35.375 
Q 19.28125 33.59375 26.515625 31.984375 
L 29.59375 31.296875 
Q 39.15625 29.25 43.1875 25.515625 
Q 47.21875 21.78125 47.21875 15.09375 
Q 47.21875 7.46875 41.1875 3.015625 
Q 35.15625 -1.421875 24.609375 -1.421875 
Q 20.21875 -1.421875 15.453125 -0.5625 
Q 10.6875 0.296875 5.421875 2 
L 5.421875 11.28125 
Q 10.40625 8.6875 15.234375 7.390625 
Q 20.0625 6.109375 24.8125 6.109375 
Q 31.15625 6.109375 34.5625 8.28125 
Q 37.984375 10.453125 37.984375 14.40625 
Q 37.984375 18.0625 35.515625 20.015625 
Q 33.0625 21.96875 24.703125 23.78125 
L 21.578125 24.515625 
Q 13.234375 26.265625 9.515625 29.90625 
Q 5.8125 33.546875 5.8125 39.890625 
Q 5.8125 47.609375 11.28125 51.796875 
Q 16.75 56 26.8125 56 
Q 31.78125 56 36.171875 55.265625 
Q 40.578125 54.546875 44.28125 53.078125 
z
" id="DejaVuSans-115"/>
       <path id="DejaVuSans-32"/>
       <path d="M 25.390625 72.90625 
L 33.6875 72.90625 
L 8.296875 -9.28125 
L 0 -9.28125 
z
" id="DejaVuSans-47"/>
       <path d="M 45.40625 46.390625 
L 45.40625 75.984375 
L 54.390625 75.984375 
L 54.390625 0 
L 45.40625 0 
L 45.40625 8.203125 
Q 42.578125 3.328125 38.25 0.953125 
Q 33.9375 -1.421875 27.875 -1.421875 
Q 17.96875 -1.421875 11.734375 6.484375 
Q 5.515625 14.40625 5.515625 27.296875 
Q 5.515625 40.1875 11.734375 48.09375 
Q 17.96875 56 27.875 56 
Q 33.9375 56 38.25 53.625 
Q 42.578125 51.265625 45.40625 46.390625 
z
M 14.796875 27.296875 
Q 14.796875 17.390625 18.875 11.75 
Q 22.953125 6.109375 30.078125 6.109375 
Q 37.203125 6.109375 41.296875 11.75 
Q 45.40625 17.390625 45.40625 27.296875 
Q 45.40625 37.203125 41.296875 42.84375 
Q 37.203125 48.484375 30.078125 48.484375 
Q 22.953125 48.484375 18.875 42.84375 
Q 14.796875 37.203125 14.796875 27.296875 
z
" id="DejaVuSans-100"/>
       <path d="M 9.421875 54.6875 
L 18.40625 54.6875 
L 18.40625 0 
L 9.421875 0 
z
M 9.421875 75.984375 
L 18.40625 75.984375 
L 18.40625 64.59375 
L 9.421875 64.59375 
z
" id="DejaVuSans-105"/>
       <path d="M 52 44.1875 
Q 55.375 50.25 60.0625 53.125 
Q 64.75 56 71.09375 56 
Q 79.640625 56 84.28125 50.015625 
Q 88.921875 44.046875 88.921875 33.015625 
L 88.921875 0 
L 79.890625 0 
L 79.890625 32.71875 
Q 79.890625 40.578125 77.09375 44.375 
Q 74.3125 48.1875 68.609375 48.1875 
Q 61.625 48.1875 57.5625 43.546875 
Q 53.515625 38.921875 53.515625 30.90625 
L 53.515625 0 
L 44.484375 0 
L 44.484375 32.71875 
Q 44.484375 40.625 41.703125 44.40625 
Q 38.921875 48.1875 33.109375 48.1875 
Q 26.21875 48.1875 22.15625 43.53125 
Q 18.109375 38.875 18.109375 30.90625 
L 18.109375 0 
L 9.078125 0 
L 9.078125 54.6875 
L 18.109375 54.6875 
L 18.109375 46.1875 
Q 21.1875 51.21875 25.484375 53.609375 
Q 29.78125 56 35.6875 56 
Q 41.65625 56 45.828125 52.96875 
Q 50 49.953125 52 44.1875 
z
" id="DejaVuSans-109"/>
       <path d="M 54.890625 33.015625 
L 54.890625 0 
L 45.90625 0 
L 45.90625 32.71875 
Q 45.90625 40.484375 42.875 44.328125 
Q 39.84375 48.1875 33.796875 48.1875 
Q 26.515625 48.1875 22.3125 43.546875 
Q 18.109375 38.921875 18.109375 30.90625 
L 18.109375 0 
L 9.078125 0 
L 9.078125 54.6875 
L 18.109375 54.6875 
L 18.109375 46.1875 
Q 21.34375 51.125 25.703125 53.5625 
Q 30.078125 56 35.796875 56 
Q 45.21875 56 50.046875 50.171875 
Q 54.890625 44.34375 54.890625 33.015625 
z
" id="DejaVuSans-110"/>
       <path d="M 8.015625 75.875 
L 15.828125 75.875 
Q 23.140625 64.359375 26.78125 53.3125 
Q 30.421875 42.28125 30.421875 31.390625 
Q 30.421875 20.453125 26.78125 9.375 
Q 23.140625 -1.703125 15.828125 -13.1875 
L 8.015625 -13.1875 
Q 14.5 -2 17.703125 9.0625 
Q 20.90625 20.125 20.90625 31.390625 
Q 20.90625 42.671875 17.703125 53.65625 
Q 14.5 64.65625 8.015625 75.875 
z
" id="DejaVuSans-41"/>
      </defs>
      <use xlink:href="#DejaVuSans-108"/>
      <use x="27.783203" xlink:href="#DejaVuSans-111"/>
      <use x="88.964844" xlink:href="#DejaVuSans-103"/>
      <use x="152.441406" xlink:href="#DejaVuSans-49"/>
      <use x="216.064453" xlink:href="#DejaVuSans-48"/>
      <use x="279.6875" xlink:href="#DejaVuSans-40"/>
      <use x="318.701172" xlink:href="#DejaVuSans-101"/>
      <use x="380.224609" xlink:href="#DejaVuSans-118"/>
      <use x="439.404297" xlink:href="#DejaVuSans-97"/>
      <use x="500.683594" xlink:href="#DejaVuSans-108"/>
      <use x="528.466797" xlink:href="#DejaVuSans-115"/>
      <use x="580.566406" xlink:href="#DejaVuSans-32"/>
      <use x="612.353516" xlink:href="#DejaVuSans-47"/>
      <use x="646.044922" xlink:href="#DejaVuSans-32"/>
      <use x="677.832031" xlink:href="#DejaVuSans-100"/>
      <use x="741.308594" xlink:href="#DejaVuSans-105"/>
      <use x="769.091797" xlink:href="#DejaVuSans-109"/>
      <use x="866.503906" xlink:href="#DejaVuSans-101"/>
      <use x="928.027344" xlink:href="#DejaVuSans-110"/>
      <use x="991.40625" xlink:href="#DejaVuSans-115"/>
      <use x="1043.505859" xlink:href="#DejaVuSans-105"/>
      <use x="1071.289062" xlink:href="#DejaVuSans-111"/>
      <use x="1132.470703" xlink:href="#DejaVuSans-110"/>
      <use x="1195.849609" xlink:href="#DejaVuSans-41"/>
     </g>
    </g>
   </g>
   <g id="matplotlib.axis_2">
    <g id="ytick_1">
     <g id="line2d_17">
      <path clip-path="url(#p2bbd1c8be3)" d="M 57.6 298.944 
L 360.8064 298.944 
" style="fill:none;stroke:#b0b0b0;stroke-linecap:square;stroke-width:0.8;"/>
     </g>
     <g id="line2d_18">
      <defs>
       <path d="M 0 0 
L -3.5 0 
" id="m10f997060b" style="stroke:#000000;stroke-width:0.8;"/>
      </defs>
      <g>
       <use style="stroke:#000000;stroke-width:0.8;" x="57.6" xlink:href="#m10f997060b" y="298.944"/>
      </g>
     </g>
     <g id="text_6">
      <!-- 0.0 -->
      <g transform="translate(25.155 305.02275)scale(0.16 -0.16)">
       <defs>
        <path d="M 10.6875 12.40625 
L 21 12.40625 
L 21 0 
L 10.6875 0 
z
" id="DejaVuSans-46"/>
       </defs>
       <use xlink:href="#DejaVuSans-48"/>
       <use x="63.623047" xlink:href="#DejaVuSans-46"/>
       <use x="95.410156" xlink:href="#DejaVuSans-48"/>
      </g>
     </g>
    </g>
    <g id="ytick_2">
     <g id="line2d_19">
      <path clip-path="url(#p2bbd1c8be3)" d="M 57.6 244.6848 
L 360.8064 244.6848 
" style="fill:none;stroke:#b0b0b0;stroke-linecap:square;stroke-width:0.8;"/>
     </g>
     <g id="line2d_20">
      <g>
       <use style="stroke:#000000;stroke-width:0.8;" x="57.6" xlink:href="#m10f997060b" y="244.6848"/>
      </g>
     </g>
     <g id="text_7">
      <!-- 0.2 -->
      <g transform="translate(25.155 250.76355)scale(0.16 -0.16)">
       <use xlink:href="#DejaVuSans-48"/>
       <use x="63.623047" xlink:href="#DejaVuSans-46"/>
       <use x="95.410156" xlink:href="#DejaVuSans-50"/>
      </g>
     </g>
    </g>
    <g id="ytick_3">
     <g id="line2d_21">
      <path clip-path="url(#p2bbd1c8be3)" d="M 57.6 190.4256 
L 360.8064 190.4256 
" style="fill:none;stroke:#b0b0b0;stroke-linecap:square;stroke-width:0.8;"/>
     </g>
     <g id="line2d_22">
      <g>
       <use style="stroke:#000000;stroke-width:0.8;" x="57.6" xlink:href="#m10f997060b" y="190.4256"/>
      </g>
     </g>
     <g id="text_8">
      <!-- 0.4 -->
      <g transform="translate(25.155 196.50435)scale(0.16 -0.16)">
       <use xlink:href="#DejaVuSans-48"/>
       <use x="63.623047" xlink:href="#DejaVuSans-46"/>
       <use x="95.410156" xlink:href="#DejaVuSans-52"/>
      </g>
     </g>
    </g>
    <g id="ytick_4">
     <g id="line2d_23">
      <path clip-path="url(#p2bbd1c8be3)" d="M 57.6 136.1664 
L 360.8064 136.1664 
" style="fill:none;stroke:#b0b0b0;stroke-linecap:square;stroke-width:0.8;"/>
     </g>
     <g id="line2d_24">
      <g>
       <use style="stroke:#000000;stroke-width:0.8;" x="57.6" xlink:href="#m10f997060b" y="136.1664"/>
      </g>
     </g>
     <g id="text_9">
      <!-- 0.6 -->
      <g transform="translate(25.155 142.24515)scale(0.16 -0.16)">
       <use xlink:href="#DejaVuSans-48"/>
       <use x="63.623047" xlink:href="#DejaVuSans-46"/>
       <use x="95.410156" xlink:href="#DejaVuSans-54"/>
      </g>
     </g>
    </g>
    <g id="ytick_5">
     <g id="line2d_25">
      <path clip-path="url(#p2bbd1c8be3)" d="M 57.6 81.9072 
L 360.8064 81.9072 
" style="fill:none;stroke:#b0b0b0;stroke-linecap:square;stroke-width:0.8;"/>
     </g>
     <g id="line2d_26">
      <g>
       <use style="stroke:#000000;stroke-width:0.8;" x="57.6" xlink:href="#m10f997060b" y="81.9072"/>
      </g>
     </g>
     <g id="text_10">
      <!-- 0.8 -->
      <g transform="translate(25.155 87.98595)scale(0.16 -0.16)">
       <defs>
        <path d="M 31.78125 34.625 
Q 24.75 34.625 20.71875 30.859375 
Q 16.703125 27.09375 16.703125 20.515625 
Q 16.703125 13.921875 20.71875 10.15625 
Q 24.75 6.390625 31.78125 6.390625 
Q 38.8125 6.390625 42.859375 10.171875 
Q 46.921875 13.96875 46.921875 20.515625 
Q 46.921875 27.09375 42.890625 30.859375 
Q 38.875 34.625 31.78125 34.625 
z
M 21.921875 38.8125 
Q 15.578125 40.375 12.03125 44.71875 
Q 8.5 49.078125 8.5 55.328125 
Q 8.5 64.0625 14.71875 69.140625 
Q 20.953125 74.21875 31.78125 74.21875 
Q 42.671875 74.21875 48.875 69.140625 
Q 55.078125 64.0625 55.078125 55.328125 
Q 55.078125 49.078125 51.53125 44.71875 
Q 48 40.375 41.703125 38.8125 
Q 48.828125 37.15625 52.796875 32.3125 
Q 56.78125 27.484375 56.78125 20.515625 
Q 56.78125 9.90625 50.3125 4.234375 
Q 43.84375 -1.421875 31.78125 -1.421875 
Q 19.734375 -1.421875 13.25 4.234375 
Q 6.78125 9.90625 6.78125 20.515625 
Q 6.78125 27.484375 10.78125 32.3125 
Q 14.796875 37.15625 21.921875 38.8125 
z
M 18.3125 54.390625 
Q 18.3125 48.734375 21.84375 45.5625 
Q 25.390625 42.390625 31.78125 42.390625 
Q 38.140625 42.390625 41.71875 45.5625 
Q 45.3125 48.734375 45.3125 54.390625 
Q 45.3125 60.0625 41.71875 63.234375 
Q 38.140625 66.40625 31.78125 66.40625 
Q 25.390625 66.40625 21.84375 63.234375 
Q 18.3125 60.0625 18.3125 54.390625 
z
" id="DejaVuSans-56"/>
       </defs>
       <use xlink:href="#DejaVuSans-48"/>
       <use x="63.623047" xlink:href="#DejaVuSans-46"/>
       <use x="95.410156" xlink:href="#DejaVuSans-56"/>
      </g>
     </g>
    </g>
    <g id="ytick_6">
     <g id="line2d_27">
      <path clip-path="url(#p2bbd1c8be3)" d="M 57.6 27.648 
L 360.8064 27.648 
" style="fill:none;stroke:#b0b0b0;stroke-linecap:square;stroke-width:0.8;"/>
     </g>
     <g id="line2d_28">
      <g>
       <use style="stroke:#000000;stroke-width:0.8;" x="57.6" xlink:href="#m10f997060b" y="27.648"/>
      </g>
     </g>
     <g id="text_11">
      <!-- 1.0 -->
      <g transform="translate(25.155 33.72675)scale(0.16 -0.16)">
       <use xlink:href="#DejaVuSans-49"/>
       <use x="63.623047" xlink:href="#DejaVuSans-46"/>
       <use x="95.410156" xlink:href="#DejaVuSans-48"/>
      </g>
     </g>
    </g>
    <g id="text_12">
     <!-- Fraction of function,target pairs -->
     <g transform="translate(17.619531 297.681)rotate(-90)scale(0.17 -0.17)">
      <defs>
       <path d="M 9.8125 72.90625 
L 51.703125 72.90625 
L 51.703125 64.59375 
L 19.671875 64.59375 
L 19.671875 43.109375 
L 48.578125 43.109375 
L 48.578125 34.8125 
L 19.671875 34.8125 
L 19.671875 0 
L 9.8125 0 
z
" id="DejaVuSans-70"/>
       <path d="M 41.109375 46.296875 
Q 39.59375 47.171875 37.8125 47.578125 
Q 36.03125 48 33.890625 48 
Q 26.265625 48 22.1875 43.046875 
Q 18.109375 38.09375 18.109375 28.8125 
L 18.109375 0 
L 9.078125 0 
L 9.078125 54.6875 
L 18.109375 54.6875 
L 18.109375 46.1875 
Q 20.953125 51.171875 25.484375 53.578125 
Q 30.03125 56 36.53125 56 
Q 37.453125 56 38.578125 55.875 
Q 39.703125 55.765625 41.0625 55.515625 
z
" id="DejaVuSans-114"/>
       <path d="M 48.78125 52.59375 
L 48.78125 44.1875 
Q 44.96875 46.296875 41.140625 47.34375 
Q 37.3125 48.390625 33.40625 48.390625 
Q 24.65625 48.390625 19.8125 42.84375 
Q 14.984375 37.3125 14.984375 27.296875 
Q 14.984375 17.28125 19.8125 11.734375 
Q 24.65625 6.203125 33.40625 6.203125 
Q 37.3125 6.203125 41.140625 7.25 
Q 44.96875 8.296875 48.78125 10.40625 
L 48.78125 2.09375 
Q 45.015625 0.34375 40.984375 -0.53125 
Q 36.96875 -1.421875 32.421875 -1.421875 
Q 20.0625 -1.421875 12.78125 6.34375 
Q 5.515625 14.109375 5.515625 27.296875 
Q 5.515625 40.671875 12.859375 48.328125 
Q 20.21875 56 33.015625 56 
Q 37.15625 56 41.109375 55.140625 
Q 45.0625 54.296875 48.78125 52.59375 
z
" id="DejaVuSans-99"/>
       <path d="M 18.3125 70.21875 
L 18.3125 54.6875 
L 36.8125 54.6875 
L 36.8125 47.703125 
L 18.3125 47.703125 
L 18.3125 18.015625 
Q 18.3125 11.328125 20.140625 9.421875 
Q 21.96875 7.515625 27.59375 7.515625 
L 36.8125 7.515625 
L 36.8125 0 
L 27.59375 0 
Q 17.1875 0 13.234375 3.875 
Q 9.28125 7.765625 9.28125 18.015625 
L 9.28125 47.703125 
L 2.6875 47.703125 
L 2.6875 54.6875 
L 9.28125 54.6875 
L 9.28125 70.21875 
z
" id="DejaVuSans-116"/>
       <path d="M 37.109375 75.984375 
L 37.109375 68.5 
L 28.515625 68.5 
Q 23.6875 68.5 21.796875 66.546875 
Q 19.921875 64.59375 19.921875 59.515625 
L 19.921875 54.6875 
L 34.71875 54.6875 
L 34.71875 47.703125 
L 19.921875 47.703125 
L 19.921875 0 
L 10.890625 0 
L 10.890625 47.703125 
L 2.296875 47.703125 
L 2.296875 54.6875 
L 10.890625 54.6875 
L 10.890625 58.5 
Q 10.890625 67.625 15.140625 71.796875 
Q 19.390625 75.984375 28.609375 75.984375 
z
" id="DejaVuSans-102"/>
       <path d="M 8.5 21.578125 
L 8.5 54.6875 
L 17.484375 54.6875 
L 17.484375 21.921875 
Q 17.484375 14.15625 20.5 10.265625 
Q 23.53125 6.390625 29.59375 6.390625 
Q 36.859375 6.390625 41.078125 11.03125 
Q 45.3125 15.671875 45.3125 23.6875 
L 45.3125 54.6875 
L 54.296875 54.6875 
L 54.296875 0 
L 45.3125 0 
L 45.3125 8.40625 
Q 42.046875 3.421875 37.71875 1 
Q 33.40625 -1.421875 27.6875 -1.421875 
Q 18.265625 -1.421875 13.375 4.4375 
Q 8.5 10.296875 8.5 21.578125 
z
M 31.109375 56 
z
" id="DejaVuSans-117"/>
       <path d="M 11.71875 12.40625 
L 22.015625 12.40625 
L 22.015625 4 
L 14.015625 -11.625 
L 7.71875 -11.625 
L 11.71875 4 
z
" id="DejaVuSans-44"/>
       <path d="M 18.109375 8.203125 
L 18.109375 -20.796875 
L 9.078125 -20.796875 
L 9.078125 54.6875 
L 18.109375 54.6875 
L 18.109375 46.390625 
Q 20.953125 51.265625 25.265625 53.625 
Q 29.59375 56 35.59375 56 
Q 45.5625 56 51.78125 48.09375 
Q 58.015625 40.1875 58.015625 27.296875 
Q 58.015625 14.40625 51.78125 6.484375 
Q 45.5625 -1.421875 35.59375 -1.421875 
Q 29.59375 -1.421875 25.265625 0.953125 
Q 20.953125 3.328125 18.109375 8.203125 
z
M 48.6875 27.296875 
Q 48.6875 37.203125 44.609375 42.84375 
Q 40.53125 48.484375 33.40625 48.484375 
Q 26.265625 48.484375 22.1875 42.84375 
Q 18.109375 37.203125 18.109375 27.296875 
Q 18.109375 17.390625 22.1875 11.75 
Q 26.265625 6.109375 33.40625 6.109375 
Q 40.53125 6.109375 44.609375 11.75 
Q 48.6875 17.390625 48.6875 27.296875 
z
" id="DejaVuSans-112"/>
      </defs>
      <use xlink:href="#DejaVuSans-70"/>
      <use x="50.269531" xlink:href="#DejaVuSans-114"/>
      <use x="91.382812" xlink:href="#DejaVuSans-97"/>
      <use x="152.662109" xlink:href="#DejaVuSans-99"/>
      <use x="207.642578" xlink:href="#DejaVuSans-116"/>
      <use x="246.851562" xlink:href="#DejaVuSans-105"/>
      <use x="274.634766" xlink:href="#DejaVuSans-111"/>
      <use x="335.816406" xlink:href="#DejaVuSans-110"/>
      <use x="399.195312" xlink:href="#DejaVuSans-32"/>
      <use x="430.982422" xlink:href="#DejaVuSans-111"/>
      <use x="492.164062" xlink:href="#DejaVuSans-102"/>
      <use x="527.369141" xlink:href="#DejaVuSans-32"/>
      <use x="559.15625" xlink:href="#DejaVuSans-102"/>
      <use x="594.361328" xlink:href="#DejaVuSans-117"/>
      <use x="657.740234" xlink:href="#DejaVuSans-110"/>
      <use x="721.119141" xlink:href="#DejaVuSans-99"/>
      <use x="776.099609" xlink:href="#DejaVuSans-116"/>
      <use x="815.308594" xlink:href="#DejaVuSans-105"/>
      <use x="843.091797" xlink:href="#DejaVuSans-111"/>
      <use x="904.273438" xlink:href="#DejaVuSans-110"/>
      <use x="967.652344" xlink:href="#DejaVuSans-44"/>
      <use x="999.439453" xlink:href="#DejaVuSans-116"/>
      <use x="1038.648438" xlink:href="#DejaVuSans-97"/>
      <use x="1099.927734" xlink:href="#DejaVuSans-114"/>
      <use x="1139.291016" xlink:href="#DejaVuSans-103"/>
      <use x="1202.767578" xlink:href="#DejaVuSans-101"/>
      <use x="1264.291016" xlink:href="#DejaVuSans-116"/>
      <use x="1303.5" xlink:href="#DejaVuSans-32"/>
      <use x="1335.287109" xlink:href="#DejaVuSans-112"/>
      <use x="1398.763672" xlink:href="#DejaVuSans-97"/>
      <use x="1460.042969" xlink:href="#DejaVuSans-105"/>
      <use x="1487.826172" xlink:href="#DejaVuSans-114"/>
      <use x="1528.939453" xlink:href="#DejaVuSans-115"/>
     </g>
    </g>
   </g>
   <g id="line2d_29">
    <defs>
     <path d="M 0 1.5 
C 0.397805 1.5 0.77937 1.341951 1.06066 1.06066 
C 1.341951 0.77937 1.5 0.397805 1.5 0 
C 1.5 -0.397805 1.341951 -0.77937 1.06066 -1.06066 
C 0.77937 -1.341951 0.397805 -1.5 0 -1.5 
C -0.397805 -1.5 -0.77937 -1.341951 -1.06066 -1.06066 
C -1.341951 -0.77937 -1.5 -0.397805 -1.5 0 
C -1.5 0.397805 -1.341951 0.77937 -1.06066 1.06066 
C -0.77937 1.341951 -0.397805 1.5 0 1.5 
z
" id="m1d28d02444" style="stroke:#000080;"/>
    </defs>
    <g>
     <use style="fill:#000080;stroke:#000080;" x="317.568994" xlink:href="#m1d28d02444" y="120.285659"/>
     <use style="fill:#000080;stroke:#000080;" x="317.568994" xlink:href="#m1d28d02444" y="120.285659"/>
    </g>
   </g>
   <g id="line2d_30">
    <path d="M 66.441498 298.944 
L 66.441498 297.620605 
L 79.480672 297.620605 
L 79.480672 293.209288 
L 81.696354 293.209288 
L 81.696354 290.121366 
L 83.678349 290.121366 
L 83.678349 288.797971 
L 85.471281 288.797971 
L 85.471281 288.356839 
L 87.1081 288.356839 
L 87.1081 283.063259 
L 88.613828 283.063259 
L 88.613828 281.298732 
L 90.007914 281.298732 
L 90.007914 279.093073 
L 91.305777 279.093073 
L 91.305777 276.446283 
L 92.519847 276.446283 
L 92.519847 275.56402 
L 93.66029 275.56402 
L 93.66029 272.034966 
L 94.735529 272.034966 
L 94.735529 270.711571 
L 95.752617 270.711571 
L 95.752617 269.829307 
L 96.717523 269.829307 
L 96.717523 269.388176 
L 97.635342 269.388176 
L 97.635342 265.41799 
L 98.510456 265.41799 
L 98.510456 264.535727 
L 99.346662 264.535727 
L 99.346662 264.094595 
L 100.147275 264.094595 
L 100.147275 262.7712 
L 100.9152 262.7712 
L 100.9152 261.006673 
L 103.047088 261.006673 
L 103.047088 259.242146 
L 103.707211 259.242146 
L 103.707211 258.801015 
L 104.344952 258.801015 
L 104.344952 256.154224 
L 104.961779 256.154224 
L 104.961779 255.713093 
L 105.559021 255.713093 
L 105.559021 255.271961 
L 106.137884 255.271961 
L 106.137884 253.066302 
L 106.699465 253.066302 
L 106.699465 252.184039 
L 107.244765 252.184039 
L 107.244765 249.97838 
L 107.774703 249.97838 
L 107.774703 247.772722 
L 108.29012 247.772722 
L 108.29012 244.6848 
L 108.791791 244.6848 
L 108.791791 242.920273 
L 109.280431 242.920273 
L 109.280431 241.155746 
L 111.117162 241.155746 
L 111.117162 240.273483 
L 111.54963 240.273483 
L 111.54963 239.39122 
L 112.385837 239.39122 
L 112.385837 238.508956 
L 113.57433 238.508956 
L 113.57433 238.067824 
L 114.326893 238.067824 
L 114.326893 237.626693 
L 115.050503 237.626693 
L 115.050503 237.185561 
L 115.402131 237.185561 
L 115.402131 236.744429 
L 117.695068 236.744429 
L 117.695068 236.303298 
L 118.598196 236.303298 
L 118.598196 235.862166 
L 119.738639 235.862166 
L 119.738639 235.421034 
L 120.28394 235.421034 
L 120.28394 234.979902 
L 121.329295 234.979902 
L 121.329295 234.538771 
L 127.366067 234.538771 
L 127.366067 234.097639 
L 128.441306 234.097639 
L 128.441306 233.656507 
L 129.125437 233.656507 
L 129.125437 233.215376 
L 130.579414 233.215376 
L 130.579414 232.774244 
L 132.073179 232.774244 
L 132.073179 232.333112 
L 134.112526 232.333112 
L 134.112526 231.89198 
L 134.745971 231.89198 
L 134.745971 231.450849 
L 134.87014 231.450849 
L 134.87014 231.009717 
L 137.412988 231.009717 
L 137.412988 230.568585 
L 137.627979 230.568585 
L 137.627979 230.127454 
L 139.93843 230.127454 
L 139.93843 229.686322 
L 141.56737 229.686322 
L 141.56737 229.24519 
L 142.905644 229.24519 
L 142.905644 228.804059 
L 144.454795 228.804059 
L 144.454795 228.362927 
L 145.397382 228.362927 
L 145.397382 227.921795 
L 146.957431 227.921795 
L 146.957431 227.480663 
L 148.094045 227.480663 
L 148.094045 227.039532 
L 149.223672 227.039532 
L 149.223672 226.5984 
L 149.79204 226.5984 
L 149.79204 226.157268 
L 152.106991 226.157268 
L 152.15643 225.275005 
L 152.835271 225.275005 
L 152.835271 224.833873 
L 153.536404 224.833873 
L 153.536404 224.392741 
L 153.8097 224.392741 
L 153.8097 223.95161 
L 153.944874 223.95161 
L 153.944874 223.510478 
L 155.077392 223.510478 
L 155.077392 223.069346 
L 156.185481 223.069346 
L 156.185481 222.628215 
L 157.231914 222.628215 
L 157.231914 222.187083 
L 157.382107 222.187083 
L 157.382107 221.745951 
L 157.971166 221.745951 
L 158.07959 220.863688 
L 159.164837 220.863688 
L 159.164837 220.422556 
L 159.300416 220.422556 
L 159.300416 219.981424 
L 162.320462 219.981424 
L 162.320462 219.540293 
L 162.873158 219.540293 
L 162.873158 219.099161 
L 163.812909 219.099161 
L 163.892451 218.216898 
L 163.945293 218.216898 
L 163.95848 217.334634 
L 165.35539 217.334634 
L 165.35539 216.893502 
L 166.826251 216.893502 
L 166.826251 216.452371 
L 166.939098 216.452371 
L 166.939098 216.011239 
L 167.229371 216.011239 
L 167.229371 215.570107 
L 169.204718 215.570107 
L 169.204718 215.128976 
L 169.967056 215.128976 
L 169.967056 214.687844 
L 170.708911 214.687844 
L 170.708911 214.246712 
L 170.892171 214.246712 
L 170.983137 212.482185 
L 171.037505 212.482185 
L 171.109753 210.717659 
L 171.217608 210.717659 
L 171.271304 209.394263 
L 171.413749 209.394263 
L 171.484569 208.070868 
L 171.852062 208.070868 
L 171.88669 207.188605 
L 172.549496 207.188605 
L 172.549496 206.747473 
L 174.026299 206.747473 
L 174.103333 205.86521 
L 174.241203 205.86521 
L 174.286936 204.982946 
L 175.265921 204.982946 
L 175.265921 204.541815 
L 176.510229 204.541815 
L 176.510229 204.100683 
L 177.083146 204.100683 
L 177.083146 203.659551 
L 177.829275 203.659551 
L 177.829275 203.21842 
L 178.859967 203.21842 
L 178.859967 202.777288 
L 179.540047 202.777288 
L 179.540047 202.336156 
L 180.174141 202.336156 
L 180.174141 201.895024 
L 181.987812 201.895024 
L 182.078592 201.012761 
L 182.506372 201.012761 
L 182.506372 200.571629 
L 184.826137 200.571629 
L 184.826137 200.130498 
L 185.725936 200.130498 
L 185.725936 199.689366 
L 185.91562 199.689366 
L 185.91562 199.248234 
L 187.951286 199.248234 
L 187.951286 198.807102 
L 188.730254 198.807102 
L 188.835937 197.924839 
L 189.767969 197.924839 
L 189.767969 197.483707 
L 190.246576 197.483707 
L 190.259608 196.601444 
L 190.505514 196.601444 
L 190.595307 195.71918 
L 190.678304 195.71918 
L 190.7419 194.395785 
L 190.893658 194.395785 
L 190.893658 193.954654 
L 191.409245 193.954654 
L 191.409245 193.513522 
L 191.561813 193.513522 
L 191.658811 192.631259 
L 191.881223 192.631259 
L 191.881223 192.190127 
L 192.095128 192.190127 
L 192.095128 191.748995 
L 192.335815 191.748995 
L 192.335815 191.307863 
L 194.540476 191.307863 
L 194.540476 190.866732 
L 196.602196 190.866732 
L 196.704206 186.014283 
L 196.718074 186.014283 
L 196.782655 183.367493 
L 197.969363 183.367493 
L 197.969363 182.926361 
L 199.750107 182.926361 
L 199.750107 182.485229 
L 200.822177 182.485229 
L 200.885228 181.602966 
L 201.054786 181.602966 
L 201.054786 181.161834 
L 202.627433 181.161834 
L 202.627433 180.720702 
L 202.932093 180.720702 
L 203.021546 178.515044 
L 203.097413 178.515044 
L 203.20246 177.63278 
L 203.820713 177.63278 
L 203.820713 177.191649 
L 204.434628 177.191649 
L 204.434628 176.750517 
L 205.513017 176.750517 
L 205.513017 176.309385 
L 210.098391 176.309385 
L 210.098391 175.868254 
L 214.096712 175.868254 
L 214.168121 174.103727 
L 214.208283 174.103727 
L 214.31013 172.780332 
L 215.276986 172.780332 
L 215.276986 172.3392 
L 218.76451 172.3392 
L 218.76451 171.898068 
L 223.143237 171.898068 
L 223.200988 171.015805 
L 223.478203 171.015805 
L 223.478203 170.574673 
L 223.79581 170.574673 
L 223.854871 169.69241 
L 223.908304 169.69241 
L 223.908304 169.251278 
L 227.02365 169.251278 
L 227.02365 168.810146 
L 227.765019 168.810146 
L 227.842919 167.486751 
L 227.878222 167.486751 
L 227.945115 165.722224 
L 228.015273 165.722224 
L 228.015273 165.281093 
L 230.578017 165.281093 
L 230.590998 164.398829 
L 231.804758 164.398829 
L 231.804758 163.957698 
L 232.356222 163.957698 
L 232.356222 163.516566 
L 233.199815 163.516566 
L 233.224385 162.634302 
L 233.831641 162.634302 
L 233.831641 162.193171 
L 234.768817 162.193171 
L 234.768817 161.752039 
L 237.328258 161.752039 
L 237.432543 160.869776 
L 237.453225 160.869776 
L 237.494521 159.987512 
L 237.781602 159.987512 
L 237.826601 158.664117 
L 242.532177 158.664117 
L 242.611313 157.781854 
L 243.766694 157.781854 
L 243.766694 157.340722 
L 245.132611 157.340722 
L 245.147053 156.458459 
L 245.514551 156.458459 
L 245.514551 155.576195 
L 246.187921 155.576195 
L 246.187921 155.135063 
L 246.308134 155.135063 
L 246.308134 154.693932 
L 246.626192 154.693932 
L 246.626192 154.2528 
L 247.478531 154.2528 
L 247.556754 151.164878 
L 247.747988 151.164878 
L 247.747988 150.723746 
L 252.634413 150.723746 
L 252.634413 150.282615 
L 254.030821 150.282615 
L 254.080378 149.400351 
L 254.22751 149.400351 
L 254.22751 148.95922 
L 256.383125 148.95922 
L 256.383125 148.518088 
L 257.68075 148.518088 
L 257.68075 148.076956 
L 257.812394 148.076956 
L 257.835277 147.194693 
L 258.263442 147.194693 
L 258.263442 146.753561 
L 258.881042 146.753561 
L 258.909863 144.989034 
L 260.723967 144.989034 
L 260.723967 144.547902 
L 262.706462 144.547902 
L 262.77404 143.665639 
L 263.7477 143.665639 
L 263.7477 143.224507 
L 265.594197 143.224507 
L 265.594197 142.783376 
L 265.931882 142.783376 
L 266.042182 140.577717 
L 266.104228 140.577717 
L 266.19795 138.81319 
L 268.445688 138.81319 
L 268.445688 138.372059 
L 268.686187 138.372059 
L 268.730011 137.489795 
L 268.811849 137.489795 
L 268.811849 137.048663 
L 271.071213 137.048663 
L 271.158958 134.843005 
L 275.072128 134.843005 
L 275.170378 133.51961 
L 275.278623 133.51961 
L 275.278623 133.078478 
L 276.549503 133.078478 
L 276.549503 132.637346 
L 276.792605 132.637346 
L 276.818679 131.313951 
L 278.412704 131.313951 
L 278.412704 130.87282 
L 279.846499 130.87282 
L 279.907074 129.990556 
L 281.203687 129.990556 
L 281.225323 129.108293 
L 282.518909 129.108293 
L 282.523158 128.226029 
L 283.619991 128.226029 
L 283.704427 127.343766 
L 284.849914 127.343766 
L 284.849914 126.902634 
L 285.805758 126.902634 
L 285.805758 126.461502 
L 288.699613 126.461502 
L 288.699613 126.020371 
L 291.142896 126.020371 
L 291.142896 125.579239 
L 292.669814 125.579239 
L 292.669814 125.138107 
L 293.396473 125.138107 
L 293.407453 124.255844 
L 294.750464 124.255844 
L 294.750464 123.814712 
L 295.298408 123.814712 
L 295.298408 123.37358 
L 297.664148 123.37358 
L 297.664148 122.932449 
L 298.676127 122.932449 
L 298.676127 122.491317 
L 302.012987 122.491317 
L 302.012987 122.050185 
L 305.154059 122.050185 
L 305.154059 121.609054 
L 305.542176 121.609054 
L 305.542176 121.167922 
L 308.245779 121.167922 
L 308.245779 120.72679 
L 317.568994 120.72679 
L 317.568994 120.285659 
L 360.8064 120.285659 
L 360.8064 120.285659 
" style="fill:none;stroke:#000080;stroke-linecap:square;stroke-width:1.5;"/>
   </g>
   <g id="line2d_31">
    <defs>
     <path d="M 0 6 
C 1.591219 6 3.117479 5.367802 4.242641 4.242641 
C 5.367802 3.117479 6 1.591219 6 0 
C 6 -1.591219 5.367802 -3.117479 4.242641 -4.242641 
C 3.117479 -5.367802 1.591219 -6 0 -6 
C -1.591219 -6 -3.117479 -5.367802 -4.242641 -4.242641 
C -5.367802 -3.117479 -6 -1.591219 -6 0 
C -6 1.591219 -5.367802 3.117479 -4.242641 4.242641 
C -3.117479 5.367802 -1.591219 6 0 6 
z
" id="ma596513198" style="stroke:#000080;stroke-width:1.5;"/>
    </defs>
    <g>
     <use style="fill-opacity:0;stroke:#000080;stroke-width:1.5;" x="121.329295" xlink:href="#ma596513198" y="234.979902"/>
     <use style="fill-opacity:0;stroke:#000080;stroke-width:1.5;" x="202.932093" xlink:href="#ma596513198" y="180.720702"/>
     <use style="fill-opacity:0;stroke:#000080;stroke-width:1.5;" x="271.129033" xlink:href="#ma596513198" y="135.284137"/>
     <use style="fill-opacity:0;stroke:#000080;stroke-width:1.5;" x="317.568994" xlink:href="#ma596513198" y="120.285659"/>
     <use style="fill-opacity:0;stroke:#000080;stroke-width:1.5;" x="360.8064" xlink:href="#ma596513198" y="120.285659"/>
    </g>
   </g>
   <g id="line2d_32">
    <path style="fill:none;stroke:#000080;stroke-linecap:square;stroke-width:1.5;"/>
    <g/>
   </g>
   <g id="line2d_33">
    <path clip-path="url(#p2bbd1c8be3)" d="M 231.009947 164.398829 
" style="fill:none;stroke:#000080;stroke-linecap:square;stroke-width:1.5;"/>
    <defs>
     <path d="M -12 12 
L 12 -12 
M -12 -12 
L 12 12 
" id="m4c8339c11b" style="stroke:#000080;"/>
    </defs>
    <g clip-path="url(#p2bbd1c8be3)">
     <use style="fill:#000080;stroke:#000080;" x="231.009947" xlink:href="#m4c8339c11b" y="164.398829"/>
    </g>
   </g>
   <g id="line2d_34">
    <defs>
     <path d="M 0 1.5 
C 0.397805 1.5 0.77937 1.341951 1.06066 1.06066 
C 1.341951 0.77937 1.5 0.397805 1.5 0 
C 1.5 -0.397805 1.341951 -0.77937 1.06066 -1.06066 
C 0.77937 -1.341951 0.397805 -1.5 0 -1.5 
C -0.397805 -1.5 -0.77937 -1.341951 -1.06066 -1.06066 
C -1.341951 -0.77937 -1.5 -0.397805 -1.5 0 
C -1.5 0.397805 -1.341951 0.77937 -1.06066 1.06066 
C -0.77937 1.341951 -0.397805 1.5 0 1.5 
z
" id="mc18fee765d" style="stroke:#ff00ff;"/>
    </defs>
    <g>
     <use style="fill:#ff00ff;stroke:#ff00ff;" x="261.164871" xlink:href="#mc18fee765d" y="87.20078"/>
     <use style="fill:#ff00ff;stroke:#ff00ff;" x="261.164871" xlink:href="#mc18fee765d" y="87.20078"/>
    </g>
   </g>
   <g id="line2d_35">
    <path d="M 27.323974 298.944 
L 27.323974 296.738341 
L 76.96874 296.738341 
L 76.96874 294.973815 
L 79.480672 294.973815 
L 79.480672 294.091551 
L 88.613828 294.091551 
L 88.613828 293.209288 
L 91.305777 293.209288 
L 91.305777 291.885893 
L 92.519847 291.885893 
L 92.519847 290.562498 
L 95.752617 290.562498 
L 95.752617 283.945522 
L 96.717523 283.945522 
L 96.717523 282.622127 
L 98.510456 282.622127 
L 98.510456 280.416468 
L 100.9152 280.416468 
L 100.9152 279.975337 
L 101.653002 279.975337 
L 101.653002 276.446283 
L 102.362957 276.446283 
L 102.362957 274.681756 
L 103.047088 274.681756 
L 103.047088 274.240624 
L 104.344952 274.240624 
L 104.344952 273.799493 
L 104.961779 273.799493 
L 104.961779 272.034966 
L 105.559021 272.034966 
L 105.559021 270.270439 
L 106.137884 270.270439 
L 106.137884 264.094595 
L 107.244765 264.094595 
L 107.244765 262.7712 
L 107.774703 262.7712 
L 107.774703 260.565541 
L 108.29012 260.565541 
L 108.29012 258.359883 
L 108.791791 258.359883 
L 108.791791 257.918751 
L 109.280431 257.918751 
L 109.280431 256.154224 
L 109.756698 256.154224 
L 109.756698 253.948566 
L 111.97238 253.948566 
L 111.97238 251.742907 
L 112.790402 251.742907 
L 112.790402 249.537249 
L 113.57433 249.537249 
L 113.57433 246.008195 
L 113.954374 246.008195 
L 113.954374 245.125932 
L 114.326893 245.125932 
L 114.326893 244.243668 
L 114.692177 244.243668 
L 114.692177 242.03801 
L 115.050503 242.03801 
L 115.050503 240.273483 
L 116.419219 240.273483 
L 116.419219 239.832351 
L 117.384126 239.832351 
L 117.384126 239.39122 
L 118.301945 239.39122 
L 118.301945 238.508956 
L 119.177058 238.508956 
L 119.177058 238.067824 
L 119.459944 238.067824 
L 119.459944 236.744429 
L 119.738639 236.744429 
L 119.738639 235.862166 
L 120.013265 235.862166 
L 120.013265 233.215376 
L 121.073351 233.215376 
L 121.073351 232.333112 
L 121.329295 232.333112 
L 121.329295 231.450849 
L 121.581803 231.450849 
L 121.581803 231.009717 
L 122.076872 231.009717 
L 122.076872 227.039532 
L 122.795872 227.039532 
L 122.795872 225.716137 
L 124.373813 225.716137 
L 124.373813 223.510478 
L 124.801367 223.510478 
L 124.801367 223.069346 
L 125.425011 223.069346 
L 125.425011 222.628215 
L 125.628382 222.628215 
L 125.628382 222.187083 
L 125.829577 222.187083 
L 125.829577 220.422556 
L 127.366067 220.422556 
L 127.366067 219.099161 
L 128.266313 219.099161 
L 128.266313 218.658029 
L 128.441306 218.658029 
L 128.441306 217.334634 
L 129.622688 217.334634 
L 129.622688 215.570107 
L 131.341119 215.570107 
L 131.341119 215.128976 
L 131.783764 215.128976 
L 131.783764 214.687844 
L 133.457005 214.687844 
L 133.457005 213.80558 
L 134.495147 213.80558 
L 134.495147 211.15879 
L 134.745971 211.15879 
L 134.745971 210.717659 
L 135.478982 210.717659 
L 135.478982 210.276527 
L 136.413909 210.276527 
L 136.413909 209.394263 
L 137.412988 209.394263 
L 137.412988 208.953132 
L 138.868751 208.953132 
L 138.868751 208.512 
L 139.843661 208.512 
L 139.843661 208.070868 
L 145.7477 208.070868 
L 145.7477 207.629737 
L 147.534321 207.629737 
L 147.534321 207.188605 
L 148.397954 207.188605 
L 148.397954 206.747473 
L 149.223672 206.747473 
L 149.223672 205.86521 
L 150.014665 205.86521 
L 150.014665 205.424078 
L 150.879716 205.424078 
L 150.879716 204.982946 
L 153.8097 204.982946 
L 153.8097 204.541815 
L 154.779128 204.541815 
L 154.779128 204.100683 
L 155.28758 204.100683 
L 155.329337 202.777288 
L 156.145584 202.777288 
L 156.145584 201.895024 
L 157.456756 201.895024 
L 157.456756 201.453893 
L 159.535354 201.453893 
L 159.535354 200.571629 
L 160.223059 200.571629 
L 160.223059 196.601444 
L 161.102557 196.601444 
L 161.102557 195.278049 
L 161.497325 195.278049 
L 161.497325 194.836917 
L 162.030602 194.836917 
L 162.030602 194.395785 
L 164.102932 194.395785 
L 164.102932 193.954654 
L 164.388551 193.954654 
L 164.388551 193.513522 
L 165.898243 193.513522 
L 165.898243 193.07239 
L 166.50663 193.07239 
L 166.50663 191.748995 
L 169.579974 191.748995 
L 169.579974 190.866732 
L 169.890274 190.866732 
L 169.890274 190.4256 
L 173.470098 190.4256 
L 173.470098 189.543337 
L 173.722818 189.543337 
L 173.722818 188.661073 
L 174.626436 188.661073 
L 174.626436 188.219941 
L 174.908429 188.219941 
L 174.908429 187.337678 
L 175.113541 187.337678 
L 175.171736 186.455415 
L 175.968112 186.455415 
L 176.079176 184.690888 
L 176.971271 184.690888 
L 176.971271 184.249756 
L 179.831439 184.249756 
L 179.831439 183.808624 
L 180.684893 183.808624 
L 180.684893 183.367493 
L 183.748085 183.367493 
L 183.839939 182.485229 
L 183.867408 182.485229 
L 183.867408 182.044098 
L 185.488208 182.044098 
L 185.488208 180.720702 
L 185.630372 180.720702 
L 185.630372 180.279571 
L 185.870435 180.279571 
L 185.870435 179.838439 
L 186.066816 179.838439 
L 186.066816 179.397307 
L 186.730587 179.397307 
L 186.730587 178.515044 
L 187.447525 178.515044 
L 187.455087 174.98599 
L 187.907049 174.98599 
L 187.907049 174.103727 
L 188.112602 174.103727 
L 188.149073 172.3392 
L 188.294252 172.3392 
L 188.294252 171.898068 
L 188.631078 171.898068 
L 188.631078 171.015805 
L 188.744379 171.015805 
L 188.744379 170.574673 
L 190.079623 170.574673 
L 190.079623 170.133541 
L 190.789456 170.133541 
L 190.789456 169.69241 
L 191.516173 169.69241 
L 191.546612 166.604488 
L 191.686002 166.604488 
L 191.764334 165.722224 
L 191.872257 165.722224 
L 191.872257 165.281093 
L 194.831336 165.281093 
L 194.831336 164.839961 
L 195.235629 164.839961 
L 195.235629 164.398829 
L 195.394944 164.398829 
L 195.434563 163.075434 
L 195.709584 163.075434 
L 195.709584 162.634302 
L 198.812711 162.634302 
L 198.870498 161.310907 
L 199.582207 161.310907 
L 199.669307 160.428644 
L 200.191289 160.428644 
L 200.191289 159.987512 
L 200.533915 159.987512 
L 200.567836 157.340722 
L 201.173667 157.340722 
L 201.173667 156.89959 
L 202.672943 156.89959 
L 202.720022 156.017327 
L 204.842552 156.017327 
L 204.947269 155.135063 
L 205.081053 155.135063 
L 205.089939 153.811668 
L 207.042893 153.811668 
L 207.042893 153.370537 
L 207.964778 153.370537 
L 207.964778 152.929405 
L 208.184592 152.929405 
L 208.212203 150.723746 
L 209.670407 150.723746 
L 209.672728 149.841483 
L 210.178766 149.841483 
L 210.178766 149.400351 
L 211.016102 149.400351 
L 211.037698 148.518088 
L 211.348092 148.518088 
L 211.348092 148.076956 
L 212.772559 148.076956 
L 212.776495 147.194693 
L 213.611717 147.194693 
L 213.636172 144.106771 
L 213.798088 144.106771 
L 213.798088 143.665639 
L 214.720078 143.665639 
L 214.80507 141.45998 
L 216.059068 141.45998 
L 216.059068 141.018849 
L 217.568609 141.018849 
L 217.675079 140.136585 
L 217.82313 140.136585 
L 217.832157 138.372059 
L 218.707168 138.372059 
L 218.707168 137.930927 
L 219.784122 137.930927 
L 219.789544 137.048663 
L 220.694546 137.048663 
L 220.717784 135.284137 
L 221.136275 135.284137 
L 221.136275 134.843005 
L 221.259527 134.843005 
L 221.279573 130.87282 
L 222.735097 130.87282 
L 222.735097 130.431688 
L 223.689801 130.431688 
L 223.689801 129.990556 
L 224.063918 129.990556 
L 224.166234 127.343766 
L 224.176972 127.343766 
L 224.176972 126.902634 
L 226.491629 126.902634 
L 226.491629 126.461502 
L 226.677697 126.461502 
L 226.681456 125.579239 
L 227.921818 125.579239 
L 227.930613 124.696976 
L 228.891342 124.696976 
L 228.899695 122.491317 
L 230.543994 122.491317 
L 230.550115 121.609054 
L 230.864938 121.609054 
L 230.884488 119.844527 
L 231.334114 119.844527 
L 231.334114 119.403395 
L 231.885095 119.403395 
L 231.885095 118.962263 
L 232.382265 118.962263 
L 232.382265 118.521132 
L 232.67151 118.521132 
L 232.683807 116.315473 
L 234.046621 116.315473 
L 234.046621 115.874341 
L 234.251948 115.874341 
L 234.327198 112.78642 
L 235.760358 112.78642 
L 235.831554 111.021893 
L 236.602691 111.021893 
L 236.602691 110.580761 
L 237.214804 110.580761 
L 237.214804 110.139629 
L 238.501266 110.139629 
L 238.521307 107.933971 
L 239.72932 107.933971 
L 239.72932 107.492839 
L 240.882094 107.492839 
L 240.882094 107.051707 
L 241.948263 107.051707 
L 241.948263 106.610576 
L 242.787164 106.610576 
L 242.787164 106.169444 
L 242.953672 106.169444 
L 242.960397 104.404917 
L 243.897529 104.404917 
L 243.932866 102.199259 
L 244.838922 102.199259 
L 244.851087 101.316995 
L 245.715638 101.316995 
L 245.723152 99.9936 
L 246.552654 99.9936 
L 246.564087 98.229073 
L 247.358705 98.229073 
L 247.359331 96.905678 
L 248.093437 96.905678 
L 248.093437 96.464546 
L 248.861627 96.464546 
L 248.861627 96.023415 
L 249.564627 96.023415 
L 249.573256 95.141151 
L 250.257065 95.141151 
L 250.264577 93.817756 
L 250.920772 93.817756 
L 250.922845 92.935493 
L 251.557101 92.935493 
L 251.561358 92.053229 
L 252.175758 92.053229 
L 252.178424 91.170966 
L 253.344262 91.170966 
L 253.354279 89.406439 
L 254.457505 89.406439 
L 254.457505 88.965307 
L 254.983994 88.965307 
L 254.983994 88.524176 
L 255.503255 88.524176 
L 255.503255 88.083044 
L 260.789769 88.083044 
L 260.789769 87.641912 
L 261.164871 87.641912 
L 261.164871 87.20078 
L 360.8064 87.20078 
L 360.8064 87.20078 
" style="fill:none;stroke:#ff00ff;stroke-linecap:square;stroke-width:1.5;"/>
   </g>
   <g id="line2d_36">
    <defs>
     <path d="M -0 8.485281 
L 5.091169 0 
L 0 -8.485281 
L -5.091169 -0 
z
" id="m00eddf8bb2" style="stroke:#ff00ff;stroke-linejoin:miter;stroke-width:1.5;"/>
    </defs>
    <g>
     <use style="fill-opacity:0;stroke:#ff00ff;stroke-linejoin:miter;stroke-width:1.5;" x="79.480672" xlink:href="#m00eddf8bb2" y="294.973815"/>
     <use style="fill-opacity:0;stroke:#ff00ff;stroke-linejoin:miter;stroke-width:1.5;" x="128.441306" xlink:href="#m00eddf8bb2" y="217.334634"/>
     <use style="fill-opacity:0;stroke:#ff00ff;stroke-linejoin:miter;stroke-width:1.5;" x="210.178766" xlink:href="#m00eddf8bb2" y="149.841483"/>
     <use style="fill-opacity:0;stroke:#ff00ff;stroke-linejoin:miter;stroke-width:1.5;" x="261.164871" xlink:href="#m00eddf8bb2" y="87.641912"/>
     <use style="fill-opacity:0;stroke:#ff00ff;stroke-linejoin:miter;stroke-width:1.5;" x="261.164871" xlink:href="#m00eddf8bb2" y="87.20078"/>
     <use style="fill-opacity:0;stroke:#ff00ff;stroke-linejoin:miter;stroke-width:1.5;" x="360.8064" xlink:href="#m00eddf8bb2" y="87.20078"/>
    </g>
   </g>
   <g id="line2d_37">
    <path style="fill:none;stroke:#ff00ff;stroke-linecap:square;stroke-width:1.5;"/>
    <g/>
   </g>
   <g id="line2d_38">
    <path clip-path="url(#p2bbd1c8be3)" d="M 187.57943 174.98599 
" style="fill:none;stroke:#ff00ff;stroke-linecap:square;stroke-width:1.5;"/>
    <defs>
     <path d="M -12 12 
L 12 -12 
M -12 -12 
L 12 12 
" id="m235cf51c38" style="stroke:#ff00ff;"/>
    </defs>
    <g clip-path="url(#p2bbd1c8be3)">
     <use style="fill:#ff00ff;stroke:#ff00ff;" x="187.57943" xlink:href="#m235cf51c38" y="174.98599"/>
    </g>
   </g>
   <g id="line2d_39">
    <defs>
     <path d="M 0 1.5 
C 0.397805 1.5 0.77937 1.341951 1.06066 1.06066 
C 1.341951 0.77937 1.5 0.397805 1.5 0 
C 1.5 -0.397805 1.341951 -0.77937 1.06066 -1.06066 
C 0.77937 -1.341951 0.397805 -1.5 0 -1.5 
C -0.397805 -1.5 -0.77937 -1.341951 -1.06066 -1.06066 
C -1.341951 -0.77937 -1.5 -0.397805 -1.5 0 
C -1.5 0.397805 -1.341951 0.77937 -1.06066 1.06066 
C -0.77937 1.341951 -0.397805 1.5 0 1.5 
z
" id="m384f2aba37" style="stroke:#ff7500;"/>
    </defs>
    <g>
     <use style="fill:#ff7500;stroke:#ff7500;" x="308.435626" xlink:href="#m384f2aba37" y="60.732878"/>
     <use style="fill:#ff7500;stroke:#ff7500;" x="308.435626" xlink:href="#m384f2aba37" y="60.732878"/>
    </g>
   </g>
   <g id="line2d_40">
    <path d="M 92.519847 298.944 
L 92.519847 293.65042 
L 98.933205 293.65042 
L 98.933205 292.327024 
L 99.751228 292.327024 
L 99.751228 290.121366 
L 100.535156 290.121366 
L 100.535156 287.915707 
L 105.559021 287.915707 
L 105.559021 285.268917 
L 106.137884 285.268917 
L 106.137884 284.827785 
L 108.542628 284.827785 
L 108.542628 283.945522 
L 109.520071 283.945522 
L 109.520071 280.8576 
L 112.385837 280.8576 
L 112.385837 280.416468 
L 112.790402 280.416468 
L 112.790402 279.975337 
L 113.186449 279.975337 
L 113.186449 276.887415 
L 114.872193 276.887415 
L 114.872193 276.005151 
L 115.227139 276.005151 
L 115.227139 275.56402 
L 116.086263 275.56402 
L 116.086263 275.122888 
L 117.384126 275.122888 
L 117.384126 273.799493 
L 118.152051 273.799493 
L 118.152051 271.152702 
L 118.450653 271.152702 
L 118.450653 270.711571 
L 119.177058 270.711571 
L 119.177058 270.270439 
L 119.319033 270.270439 
L 119.319033 269.388176 
L 120.013265 269.388176 
L 120.013265 268.947044 
L 120.41783 268.947044 
L 120.41783 267.623649 
L 121.073351 267.623649 
L 121.073351 267.182517 
L 121.954321 267.182517 
L 121.954321 266.300254 
L 122.19863 266.300254 
L 122.19863 265.859122 
L 122.677931 265.859122 
L 122.677931 265.41799 
L 123.145323 265.41799 
L 123.145323 263.653463 
L 123.374735 263.653463 
L 123.374735 261.006673 
L 123.936316 261.006673 
L 123.936316 259.242146 
L 124.156336 259.242146 
L 124.156336 258.359883 
L 124.373813 258.359883 
L 124.373813 257.918751 
L 124.906754 257.918751 
L 124.906754 256.154224 
L 125.322496 256.154224 
L 125.322496 254.830829 
L 125.526971 254.830829 
L 125.526971 253.507434 
L 126.225624 253.507434 
L 126.225624 251.742907 
L 126.613505 251.742907 
L 126.613505 250.860644 
L 126.804487 250.860644 
L 126.804487 250.419512 
L 127.458055 250.419512 
L 127.458055 249.537249 
L 128.000734 249.537249 
L 128.000734 244.6848 
L 128.528195 244.6848 
L 128.528195 244.243668 
L 129.375706 244.243668 
L 129.458394 238.508956 
L 129.78556 238.508956 
L 129.78556 238.067824 
L 130.186674 238.067824 
L 130.186674 237.626693 
L 130.344755 237.626693 
L 130.4233 232.333112 
L 130.811181 232.333112 
L 130.811181 230.127454 
L 131.341119 230.127454 
L 131.41562 228.804059 
L 131.783764 228.804059 
L 131.783764 227.480663 
L 131.929028 227.480663 
L 131.929028 227.039532 
L 132.499119 227.039532 
L 132.499119 226.5984 
L 132.638982 226.5984 
L 132.638982 223.95161 
L 132.984158 223.95161 
L 132.984158 223.510478 
L 133.323114 223.510478 
L 133.323114 220.422556 
L 133.457005 220.422556 
L 133.457005 219.981424 
L 133.983236 219.981424 
L 133.983236 216.452371 
L 134.304809 216.452371 
L 134.304809 215.570107 
L 134.431915 215.570107 
L 134.495147 214.687844 
L 135.116046 214.687844 
L 135.116046 211.599922 
L 135.237805 211.599922 
L 135.237805 211.15879 
L 136.010584 211.15879 
L 136.010584 210.717659 
L 136.299553 210.717659 
L 136.299553 210.276527 
L 136.92008 210.276527 
L 136.97549 209.394263 
L 137.681345 209.394263 
L 137.787626 207.188605 
L 138.050729 207.188605 
L 138.050729 206.306341 
L 139.313723 206.306341 
L 139.411192 202.336156 
L 139.843661 202.336156 
L 139.843661 201.895024 
L 140.032723 201.895024 
L 140.126547 200.130498 
L 140.725251 200.130498 
L 140.725251 199.248234 
L 140.950542 199.248234 
L 140.950542 198.807102 
L 141.393187 198.807102 
L 141.393187 197.483707 
L 142.206555 197.483707 
L 142.206555 197.042576 
L 142.579895 197.042576 
L 142.579895 196.601444 
L 143.265494 196.601444 
L 143.344534 195.278049 
L 144.749884 195.278049 
L 144.749884 194.395785 
L 144.968202 194.395785 
L 144.968202 193.513522 
L 145.326529 193.513522 
L 145.326529 191.307863 
L 145.678157 191.307863 
L 145.678157 189.984468 
L 146.057504 189.984468 
L 146.057504 188.219941 
L 147.087167 188.219941 
L 147.087167 187.77881 
L 147.439393 187.77881 
L 147.502732 186.896546 
L 148.337564 186.896546 
L 148.337564 186.455415 
L 149.107908 186.455415 
L 149.107908 186.014283 
L 149.42456 186.014283 
L 149.42456 185.13202 
L 149.566749 185.13202 
L 149.566749 183.808624 
L 149.847944 183.808624 
L 149.847944 182.926361 
L 151.246016 182.926361 
L 151.246016 182.044098 
L 151.554409 182.044098 
L 151.554409 181.161834 
L 152.859068 181.161834 
L 152.859068 180.720702 
L 153.212458 180.720702 
L 153.259079 179.397307 
L 153.650761 179.397307 
L 153.650761 178.956176 
L 154.079083 178.956176 
L 154.079083 178.515044 
L 155.140696 178.515044 
L 155.203786 177.63278 
L 155.454055 177.63278 
L 155.454055 177.191649 
L 155.762279 177.191649 
L 155.762279 176.750517 
L 156.065535 176.750517 
L 156.065535 175.868254 
L 156.304668 175.868254 
L 156.363979 174.544859 
L 156.793307 174.544859 
L 156.793307 174.103727 
L 157.971166 174.103727 
L 157.971166 173.662595 
L 158.577468 173.662595 
L 158.577468 173.221463 
L 158.907961 173.221463 
L 158.907961 172.780332 
L 160.541906 172.780332 
L 160.541906 172.3392 
L 161.117894 172.3392 
L 161.17912 171.456937 
L 162.998429 171.456937 
L 162.998429 171.015805 
L 163.342092 171.015805 
L 163.342092 170.574673 
L 163.971658 170.574673 
L 163.971658 170.133541 
L 165.92201 170.133541 
L 165.92201 169.69241 
L 169.842126 169.69241 
L 169.842126 167.04562 
L 170.043526 167.04562 
L 170.043526 165.281093 
L 170.653583 165.281093 
L 170.653583 164.398829 
L 170.828233 164.398829 
L 170.828233 163.957698 
L 171.773916 163.957698 
L 171.878039 162.193171 
L 173.374446 162.193171 
L 173.374446 161.752039 
L 174.064855 161.752039 
L 174.064855 160.428644 
L 174.187707 160.428644 
L 174.187707 159.54638 
L 174.40835 159.54638 
L 174.40835 159.105249 
L 175.460042 159.105249 
L 175.460042 158.222985 
L 176.624872 158.222985 
L 176.624872 156.89959 
L 177.155184 156.89959 
L 177.155184 156.458459 
L 178.553005 156.458459 
L 178.577262 155.135063 
L 178.794182 155.135063 
L 178.794182 154.693932 
L 179.407144 154.693932 
L 179.407144 153.811668 
L 182.594689 153.811668 
L 182.594689 153.370537 
L 184.063102 153.370537 
L 184.063102 152.929405 
L 192.771134 152.929405 
L 192.771134 152.047141 
L 197.496532 152.047141 
L 197.496532 151.60601 
L 198.500081 151.60601 
L 198.500081 151.164878 
L 198.754747 151.164878 
L 198.754747 149.400351 
L 200.200891 149.400351 
L 200.200891 148.95922 
L 200.384308 148.95922 
L 200.384308 148.518088 
L 200.552768 148.518088 
L 200.552768 148.076956 
L 201.439783 148.076956 
L 201.439783 147.635824 
L 203.45608 147.635824 
L 203.45608 147.194693 
L 203.961151 147.194693 
L 204.01139 146.312429 
L 204.249761 146.312429 
L 204.249761 145.871298 
L 205.444856 145.871298 
L 205.444856 145.430166 
L 207.759074 145.430166 
L 207.759074 144.989034 
L 208.557652 144.989034 
L 208.557652 143.665639 
L 209.729503 143.665639 
L 209.729503 143.224507 
L 211.427539 143.224507 
L 211.427539 142.783376 
L 213.241025 142.783376 
L 213.241025 142.342244 
L 216.404604 142.342244 
L 216.404604 141.901112 
L 216.897071 141.901112 
L 216.897071 141.018849 
L 217.095979 141.018849 
L 217.131138 140.136585 
L 217.209814 140.136585 
L 217.302864 139.254322 
L 217.336867 139.254322 
L 217.43467 138.372059 
L 219.743402 138.372059 
L 219.805802 137.048663 
L 219.990429 137.048663 
L 220.094741 134.401873 
L 221.194858 134.401873 
L 221.194858 133.960741 
L 221.916083 133.960741 
L 222.022312 132.196215 
L 222.049377 132.196215 
L 222.076402 131.313951 
L 223.798001 131.313951 
L 223.805119 130.431688 
L 224.309614 130.431688 
L 224.328791 129.108293 
L 226.282599 129.108293 
L 226.283559 126.461502 
L 226.406961 126.461502 
L 226.477386 125.138107 
L 226.616979 125.138107 
L 226.708686 123.814712 
L 227.753483 123.814712 
L 227.789397 122.491317 
L 228.272175 122.491317 
L 228.321759 121.167922 
L 230.498791 121.167922 
L 230.498791 120.72679 
L 231.070318 120.72679 
L 231.081477 119.403395 
L 231.224095 119.403395 
L 231.317229 117.197737 
L 238.026361 117.197737 
L 238.029446 116.315473 
L 238.250459 116.315473 
L 238.329797 114.109815 
L 238.362145 114.109815 
L 238.362145 113.668683 
L 239.267467 113.668683 
L 239.279976 112.345288 
L 239.966152 112.345288 
L 240.014782 111.021893 
L 240.699673 111.021893 
L 240.703464 110.139629 
L 241.749807 110.139629 
L 241.754236 105.728312 
L 242.411827 105.728312 
L 242.428515 104.846049 
L 243.718891 104.846049 
L 243.718891 104.404917 
L 244.006335 104.404917 
L 244.101306 102.199259 
L 244.128458 102.199259 
L 244.13329 101.316995 
L 245.691881 101.316995 
L 245.691881 100.875863 
L 247.96096 100.875863 
L 247.996853 99.552468 
L 248.565974 99.552468 
L 248.565974 99.111337 
L 249.032088 99.111337 
L 249.032088 98.670205 
L 250.121872 98.670205 
L 250.123899 96.905678 
L 250.54863 96.905678 
L 250.54863 96.464546 
L 251.410156 96.464546 
L 251.410156 96.023415 
L 251.665349 96.023415 
L 251.698932 94.258888 
L 254.756053 94.258888 
L 254.767564 93.376624 
L 255.098855 93.376624 
L 255.098855 92.935493 
L 255.895366 92.935493 
L 255.922985 91.170966 
L 256.995124 91.170966 
L 257.070558 89.406439 
L 259.422219 89.406439 
L 259.424939 88.524176 
L 259.663414 88.524176 
L 259.679519 87.641912 
L 260.307192 87.641912 
L 260.328883 86.318517 
L 263.878432 86.318517 
L 263.879147 84.995122 
L 264.603474 84.995122 
L 264.654035 84.112859 
L 266.879105 84.112859 
L 266.895677 82.789463 
L 267.058904 82.789463 
L 267.058904 82.348332 
L 267.540844 82.348332 
L 267.544484 81.466068 
L 269.466425 81.466068 
L 269.478648 80.142673 
L 271.739592 80.142673 
L 271.739592 79.701541 
L 273.76814 79.701541 
L 273.779018 78.819278 
L 274.199688 78.819278 
L 274.229612 77.495883 
L 275.598135 77.495883 
L 275.598728 76.61362 
L 276.0187 76.61362 
L 276.0187 76.172488 
L 277.266421 76.172488 
L 277.267092 74.407961 
L 277.641772 74.407961 
L 277.65169 73.525698 
L 278.806825 73.525698 
L 278.807031 72.643434 
L 280.214296 72.643434 
L 280.21667 71.320039 
L 281.533524 71.320039 
L 281.539274 69.996644 
L 281.819173 69.996644 
L 281.819173 69.555512 
L 282.764601 69.555512 
L 282.765149 68.673249 
L 285.009037 68.673249 
L 285.009037 68.232117 
L 285.248432 68.232117 
L 285.248432 67.790985 
L 286.042615 67.790985 
L 286.042615 67.349854 
L 289.67284 67.349854 
L 289.673154 66.46759 
L 290.477703 66.46759 
L 290.477908 65.585327 
L 291.995938 65.585327 
L 291.995938 65.144195 
L 292.171422 65.144195 
L 292.171422 64.703063 
L 292.711617 64.703063 
L 292.711617 64.261932 
L 293.402349 64.261932 
L 293.402349 63.8208 
L 295.330708 63.8208 
L 295.334227 62.938537 
L 295.477347 62.938537 
L 295.477347 62.497405 
L 302.799417 62.497405 
L 302.799417 62.056273 
L 303.602139 62.056273 
L 303.602139 61.615141 
L 303.991064 61.615141 
L 303.991064 61.17401 
L 308.435626 61.17401 
L 308.435626 60.732878 
L 360.8064 60.732878 
L 360.8064 60.732878 
" style="fill:none;stroke:#ff7500;stroke-linecap:square;stroke-width:1.5;"/>
   </g>
   <g id="line2d_41">
    <defs>
     <path d="M 0 -6 
L -1.347084 -1.854102 
L -5.706339 -1.854102 
L -2.179628 0.708204 
L -3.526712 4.854102 
L -0 2.291796 
L 3.526712 4.854102 
L 2.179628 0.708204 
L 5.706339 -1.854102 
L 1.347084 -1.854102 
z
" id="m7cb01f1908" style="stroke:#ff7500;stroke-linejoin:bevel;stroke-width:1.5;"/>
    </defs>
    <g>
     <use style="fill-opacity:0;stroke:#ff7500;stroke-linejoin:bevel;stroke-width:1.5;" x="170.828233" xlink:href="#m7cb01f1908" y="163.957698"/>
     <use style="fill-opacity:0;stroke:#ff7500;stroke-linejoin:bevel;stroke-width:1.5;" x="250.123899" xlink:href="#m7cb01f1908" y="97.34681"/>
     <use style="fill-opacity:0;stroke:#ff7500;stroke-linejoin:bevel;stroke-width:1.5;" x="308.435626" xlink:href="#m7cb01f1908" y="60.732878"/>
     <use style="fill-opacity:0;stroke:#ff7500;stroke-linejoin:bevel;stroke-width:1.5;" x="308.435626" xlink:href="#m7cb01f1908" y="60.732878"/>
     <use style="fill-opacity:0;stroke:#ff7500;stroke-linejoin:bevel;stroke-width:1.5;" x="360.8064" xlink:href="#m7cb01f1908" y="60.732878"/>
    </g>
   </g>
   <g id="line2d_42">
    <path style="fill:none;stroke:#ff7500;stroke-linecap:square;stroke-width:1.5;"/>
    <g/>
   </g>
   <g id="line2d_43">
    <path clip-path="url(#p2bbd1c8be3)" d="M 230.863433 120.72679 
" style="fill:none;stroke:#ff7500;stroke-linecap:square;stroke-width:1.5;"/>
    <defs>
     <path d="M -12 12 
L 12 -12 
M -12 -12 
L 12 12 
" id="m950c47e0f7" style="stroke:#ff7500;"/>
    </defs>
    <g clip-path="url(#p2bbd1c8be3)">
     <use style="fill:#ff7500;stroke:#ff7500;" x="230.863433" xlink:href="#m950c47e0f7" y="120.72679"/>
    </g>
   </g>
   <g id="line2d_44">
    <path d="M 360.8064 120.285659 
L 380.514816 293.51808 
" style="fill:none;stroke:#000080;stroke-linecap:square;stroke-width:1.5;"/>
    <g>
     <use style="fill-opacity:0;stroke:#000080;stroke-width:1.5;" x="360.8064" xlink:href="#ma596513198" y="120.285659"/>
     <use style="fill-opacity:0;stroke:#000080;stroke-width:1.5;" x="380.514816" xlink:href="#ma596513198" y="293.51808"/>
    </g>
   </g>
   <g id="line2d_45">
    <path d="M 360.8064 87.20078 
L 380.514816 163.296 
" style="fill:none;stroke:#ff00ff;stroke-linecap:square;stroke-width:1.5;"/>
    <g>
     <use style="fill-opacity:0;stroke:#ff00ff;stroke-linejoin:miter;stroke-width:1.5;" x="360.8064" xlink:href="#m00eddf8bb2" y="87.20078"/>
     <use style="fill-opacity:0;stroke:#ff00ff;stroke-linejoin:miter;stroke-width:1.5;" x="380.514816" xlink:href="#m00eddf8bb2" y="163.296"/>
    </g>
   </g>
   <g id="line2d_46">
    <path d="M 360.8064 60.732878 
L 380.514816 33.07392 
" style="fill:none;stroke:#ff7500;stroke-linecap:square;stroke-width:1.5;"/>
    <g>
     <use style="fill-opacity:0;stroke:#ff7500;stroke-linejoin:bevel;stroke-width:1.5;" x="360.8064" xlink:href="#m7cb01f1908" y="60.732878"/>
     <use style="fill-opacity:0;stroke:#ff7500;stroke-linejoin:bevel;stroke-width:1.5;" x="380.514816" xlink:href="#m7cb01f1908" y="33.07392"/>
    </g>
   </g>
   <g id="line2d_47">
    <path d="M 360.8064 298.944 
L 360.8064 27.648 
" style="fill:none;stroke:#000000;stroke-linecap:square;stroke-width:1.5;"/>
   </g>
   <g id="patch_3">
    <path d="M 57.6 298.944 
L 360.8064 298.944 
" style="fill:none;stroke:#000000;stroke-linecap:square;stroke-linejoin:miter;stroke-width:0.8;"/>
   </g>
   <g id="patch_4">
    <path d="M 57.6 27.648 
L 360.8064 27.648 
" style="fill:none;stroke:#000000;stroke-linecap:square;stroke-linejoin:miter;stroke-width:0.8;"/>
   </g>
   <g id="text_13">
    <!-- cobyla -->
    <g transform="translate(386.578944 297.381205)scale(0.14 -0.14)">
     <defs>
      <path d="M 48.6875 27.296875 
Q 48.6875 37.203125 44.609375 42.84375 
Q 40.53125 48.484375 33.40625 48.484375 
Q 26.265625 48.484375 22.1875 42.84375 
Q 18.109375 37.203125 18.109375 27.296875 
Q 18.109375 17.390625 22.1875 11.75 
Q 26.265625 6.109375 33.40625 6.109375 
Q 40.53125 6.109375 44.609375 11.75 
Q 48.6875 17.390625 48.6875 27.296875 
z
M 18.109375 46.390625 
Q 20.953125 51.265625 25.265625 53.625 
Q 29.59375 56 35.59375 56 
Q 45.5625 56 51.78125 48.09375 
Q 58.015625 40.1875 58.015625 27.296875 
Q 58.015625 14.40625 51.78125 6.484375 
Q 45.5625 -1.421875 35.59375 -1.421875 
Q 29.59375 -1.421875 25.265625 0.953125 
Q 20.953125 3.328125 18.109375 8.203125 
L 18.109375 0 
L 9.078125 0 
L 9.078125 75.984375 
L 18.109375 75.984375 
z
" id="DejaVuSans-98"/>
      <path d="M 32.171875 -5.078125 
Q 28.375 -14.84375 24.75 -17.8125 
Q 21.140625 -20.796875 15.09375 -20.796875 
L 7.90625 -20.796875 
L 7.90625 -13.28125 
L 13.1875 -13.28125 
Q 16.890625 -13.28125 18.9375 -11.515625 
Q 21 -9.765625 23.484375 -3.21875 
L 25.09375 0.875 
L 2.984375 54.6875 
L 12.5 54.6875 
L 29.59375 11.921875 
L 46.6875 54.6875 
L 56.203125 54.6875 
z
" id="DejaVuSans-121"/>
     </defs>
     <use xlink:href="#DejaVuSans-99"/>
     <use x="54.980469" xlink:href="#DejaVuSans-111"/>
     <use x="116.162109" xlink:href="#DejaVuSans-98"/>
     <use x="179.638672" xlink:href="#DejaVuSans-121"/>
     <use x="238.818359" xlink:href="#DejaVuSans-108"/>
     <use x="266.601562" xlink:href="#DejaVuSans-97"/>
    </g>
   </g>
   <g id="text_14">
    <!-- fmincon -->
    <g transform="translate(386.578944 167.159125)scale(0.14 -0.14)">
     <use xlink:href="#DejaVuSans-102"/>
     <use x="35.205078" xlink:href="#DejaVuSans-109"/>
     <use x="132.617188" xlink:href="#DejaVuSans-105"/>
     <use x="160.400391" xlink:href="#DejaVuSans-110"/>
     <use x="223.779297" xlink:href="#DejaVuSans-99"/>
     <use x="278.759766" xlink:href="#DejaVuSans-111"/>
     <use x="339.941406" xlink:href="#DejaVuSans-110"/>
    </g>
   </g>
   <g id="text_15">
    <!-- slsqp -->
    <g transform="translate(386.578944 36.937045)scale(0.14 -0.14)">
     <defs>
      <path d="M 14.796875 27.296875 
Q 14.796875 17.390625 18.875 11.75 
Q 22.953125 6.109375 30.078125 6.109375 
Q 37.203125 6.109375 41.296875 11.75 
Q 45.40625 17.390625 45.40625 27.296875 
Q 45.40625 37.203125 41.296875 42.84375 
Q 37.203125 48.484375 30.078125 48.484375 
Q 22.953125 48.484375 18.875 42.84375 
Q 14.796875 37.203125 14.796875 27.296875 
z
M 45.40625 8.203125 
Q 42.578125 3.328125 38.25 0.953125 
Q 33.9375 -1.421875 27.875 -1.421875 
Q 17.96875 -1.421875 11.734375 6.484375 
Q 5.515625 14.40625 5.515625 27.296875 
Q 5.515625 40.1875 11.734375 48.09375 
Q 17.96875 56 27.875 56 
Q 33.9375 56 38.25 53.625 
Q 42.578125 51.265625 45.40625 46.390625 
L 45.40625 54.6875 
L 54.390625 54.6875 
L 54.390625 -20.796875 
L 45.40625 -20.796875 
z
" id="DejaVuSans-113"/>
     </defs>
     <use xlink:href="#DejaVuSans-115"/>
     <use x="52.099609" xlink:href="#DejaVuSans-108"/>
     <use x="79.882812" xlink:href="#DejaVuSans-115"/>
     <use x="131.982422" xlink:href="#DejaVuSans-113"/>
     <use x="195.458984" xlink:href="#DejaVuSans-112"/>
    </g>
   </g>
   <g id="text_16">
    <!-- bbob-constrained f19, 5-D -->
    <g transform="translate(60.632064 38.111366)scale(0.102 -0.102)">
     <defs>
      <path d="M 4.890625 31.390625 
L 31.203125 31.390625 
L 31.203125 23.390625 
L 4.890625 23.390625 
z
" id="DejaVuSans-45"/>
      <path d="M 10.984375 1.515625 
L 10.984375 10.5 
Q 14.703125 8.734375 18.5 7.8125 
Q 22.3125 6.890625 25.984375 6.890625 
Q 35.75 6.890625 40.890625 13.453125 
Q 46.046875 20.015625 46.78125 33.40625 
Q 43.953125 29.203125 39.59375 26.953125 
Q 35.25 24.703125 29.984375 24.703125 
Q 19.046875 24.703125 12.671875 31.3125 
Q 6.296875 37.9375 6.296875 49.421875 
Q 6.296875 60.640625 12.9375 67.421875 
Q 19.578125 74.21875 30.609375 74.21875 
Q 43.265625 74.21875 49.921875 64.515625 
Q 56.59375 54.828125 56.59375 36.375 
Q 56.59375 19.140625 48.40625 8.859375 
Q 40.234375 -1.421875 26.421875 -1.421875 
Q 22.703125 -1.421875 18.890625 -0.6875 
Q 15.09375 0.046875 10.984375 1.515625 
z
M 30.609375 32.421875 
Q 37.25 32.421875 41.125 36.953125 
Q 45.015625 41.5 45.015625 49.421875 
Q 45.015625 57.28125 41.125 61.84375 
Q 37.25 66.40625 30.609375 66.40625 
Q 23.96875 66.40625 20.09375 61.84375 
Q 16.21875 57.28125 16.21875 49.421875 
Q 16.21875 41.5 20.09375 36.953125 
Q 23.96875 32.421875 30.609375 32.421875 
z
" id="DejaVuSans-57"/>
      <path d="M 10.796875 72.90625 
L 49.515625 72.90625 
L 49.515625 64.59375 
L 19.828125 64.59375 
L 19.828125 46.734375 
Q 21.96875 47.46875 24.109375 47.828125 
Q 26.265625 48.1875 28.421875 48.1875 
Q 40.625 48.1875 47.75 41.5 
Q 54.890625 34.8125 54.890625 23.390625 
Q 54.890625 11.625 47.5625 5.09375 
Q 40.234375 -1.421875 26.90625 -1.421875 
Q 22.3125 -1.421875 17.546875 -0.640625 
Q 12.796875 0.140625 7.71875 1.703125 
L 7.71875 11.625 
Q 12.109375 9.234375 16.796875 8.0625 
Q 21.484375 6.890625 26.703125 6.890625 
Q 35.15625 6.890625 40.078125 11.328125 
Q 45.015625 15.765625 45.015625 23.390625 
Q 45.015625 31 40.078125 35.4375 
Q 35.15625 39.890625 26.703125 39.890625 
Q 22.75 39.890625 18.8125 39.015625 
Q 14.890625 38.140625 10.796875 36.28125 
z
" id="DejaVuSans-53"/>
      <path d="M 19.671875 64.796875 
L 19.671875 8.109375 
L 31.59375 8.109375 
Q 46.6875 8.109375 53.6875 14.9375 
Q 60.6875 21.78125 60.6875 36.53125 
Q 60.6875 51.171875 53.6875 57.984375 
Q 46.6875 64.796875 31.59375 64.796875 
z
M 9.8125 72.90625 
L 30.078125 72.90625 
Q 51.265625 72.90625 61.171875 64.09375 
Q 71.09375 55.28125 71.09375 36.53125 
Q 71.09375 17.671875 61.125 8.828125 
Q 51.171875 0 30.078125 0 
L 9.8125 0 
z
" id="DejaVuSans-68"/>
     </defs>
     <use xlink:href="#DejaVuSans-98"/>
     <use x="63.476562" xlink:href="#DejaVuSans-98"/>
     <use x="126.953125" xlink:href="#DejaVuSans-111"/>
     <use x="188.134766" xlink:href="#DejaVuSans-98"/>
     <use x="251.611328" xlink:href="#DejaVuSans-45"/>
     <use x="287.695312" xlink:href="#DejaVuSans-99"/>
     <use x="342.675781" xlink:href="#DejaVuSans-111"/>
     <use x="403.857422" xlink:href="#DejaVuSans-110"/>
     <use x="467.236328" xlink:href="#DejaVuSans-115"/>
     <use x="519.335938" xlink:href="#DejaVuSans-116"/>
     <use x="558.544922" xlink:href="#DejaVuSans-114"/>
     <use x="599.658203" xlink:href="#DejaVuSans-97"/>
     <use x="660.9375" xlink:href="#DejaVuSans-105"/>
     <use x="688.720703" xlink:href="#DejaVuSans-110"/>
     <use x="752.099609" xlink:href="#DejaVuSans-101"/>
     <use x="813.623047" xlink:href="#DejaVuSans-100"/>
     <use x="877.099609" xlink:href="#DejaVuSans-32"/>
     <use x="908.886719" xlink:href="#DejaVuSans-102"/>
     <use x="944.091797" xlink:href="#DejaVuSans-49"/>
     <use x="1007.714844" xlink:href="#DejaVuSans-57"/>
     <use x="1071.337891" xlink:href="#DejaVuSans-44"/>
     <use x="1103.125" xlink:href="#DejaVuSans-32"/>
     <use x="1134.912109" xlink:href="#DejaVuSans-53"/>
     <use x="1198.535156" xlink:href="#DejaVuSans-45"/>
     <use x="1234.619141" xlink:href="#DejaVuSans-68"/>
    </g>
    <!-- 41 targets: 100..1e-06 -->
    <g transform="translate(60.632064 49.533135)scale(0.102 -0.102)">
     <defs>
      <path d="M 11.71875 12.40625 
L 22.015625 12.40625 
L 22.015625 0 
L 11.71875 0 
z
M 11.71875 51.703125 
L 22.015625 51.703125 
L 22.015625 39.3125 
L 11.71875 39.3125 
z
" id="DejaVuSans-58"/>
     </defs>
     <use xlink:href="#DejaVuSans-52"/>
     <use x="63.623047" xlink:href="#DejaVuSans-49"/>
     <use x="127.246094" xlink:href="#DejaVuSans-32"/>
     <use x="159.033203" xlink:href="#DejaVuSans-116"/>
     <use x="198.242188" xlink:href="#DejaVuSans-97"/>
     <use x="259.521484" xlink:href="#DejaVuSans-114"/>
     <use x="298.884766" xlink:href="#DejaVuSans-103"/>
     <use x="362.361328" xlink:href="#DejaVuSans-101"/>
     <use x="423.884766" xlink:href="#DejaVuSans-116"/>
     <use x="463.09375" xlink:href="#DejaVuSans-115"/>
     <use x="515.193359" xlink:href="#DejaVuSans-58"/>
     <use x="548.884766" xlink:href="#DejaVuSans-32"/>
     <use x="580.671875" xlink:href="#DejaVuSans-49"/>
     <use x="644.294922" xlink:href="#DejaVuSans-48"/>
     <use x="707.917969" xlink:href="#DejaVuSans-48"/>
     <use x="771.541016" xlink:href="#DejaVuSans-46"/>
     <use x="803.328125" xlink:href="#DejaVuSans-46"/>
     <use x="835.115234" xlink:href="#DejaVuSans-49"/>
     <use x="898.738281" xlink:href="#DejaVuSans-101"/>
     <use x="960.261719" xlink:href="#DejaVuSans-45"/>
     <use x="996.345703" xlink:href="#DejaVuSans-48"/>
     <use x="1059.96875" xlink:href="#DejaVuSans-54"/>
    </g>
    <!-- evals = f-evals + g-evals -->
    <g transform="translate(60.632064 60.954904)scale(0.102 -0.102)">
     <defs>
      <path d="M 10.59375 45.40625 
L 73.1875 45.40625 
L 73.1875 37.203125 
L 10.59375 37.203125 
z
M 10.59375 25.484375 
L 73.1875 25.484375 
L 73.1875 17.1875 
L 10.59375 17.1875 
z
" id="DejaVuSans-61"/>
      <path d="M 46 62.703125 
L 46 35.5 
L 73.1875 35.5 
L 73.1875 27.203125 
L 46 27.203125 
L 46 0 
L 37.796875 0 
L 37.796875 27.203125 
L 10.59375 27.203125 
L 10.59375 35.5 
L 37.796875 35.5 
L 37.796875 62.703125 
z
" id="DejaVuSans-43"/>
     </defs>
     <use xlink:href="#DejaVuSans-101"/>
     <use x="61.523438" xlink:href="#DejaVuSans-118"/>
     <use x="120.703125" xlink:href="#DejaVuSans-97"/>
     <use x="181.982422" xlink:href="#DejaVuSans-108"/>
     <use x="209.765625" xlink:href="#DejaVuSans-115"/>
     <use x="261.865234" xlink:href="#DejaVuSans-32"/>
     <use x="293.652344" xlink:href="#DejaVuSans-61"/>
     <use x="377.441406" xlink:href="#DejaVuSans-32"/>
     <use x="409.228516" xlink:href="#DejaVuSans-102"/>
     <use x="438.933594" xlink:href="#DejaVuSans-45"/>
     <use x="475.017578" xlink:href="#DejaVuSans-101"/>
     <use x="536.541016" xlink:href="#DejaVuSans-118"/>
     <use x="595.720703" xlink:href="#DejaVuSans-97"/>
     <use x="657" xlink:href="#DejaVuSans-108"/>
     <use x="684.783203" xlink:href="#DejaVuSans-115"/>
     <use x="736.882812" xlink:href="#DejaVuSans-32"/>
     <use x="768.669922" xlink:href="#DejaVuSans-43"/>
     <use x="852.458984" xlink:href="#DejaVuSans-32"/>
     <use x="884.246094" xlink:href="#DejaVuSans-103"/>
     <use x="947.722656" xlink:href="#DejaVuSans-45"/>
     <use x="983.806641" xlink:href="#DejaVuSans-101"/>
     <use x="1045.330078" xlink:href="#DejaVuSans-118"/>
     <use x="1104.509766" xlink:href="#DejaVuSans-97"/>
     <use x="1165.789062" xlink:href="#DejaVuSans-108"/>
     <use x="1193.572266" xlink:href="#DejaVuSans-115"/>
    </g>
    <!-- 15 instances -->
    <g transform="translate(60.632064 72.376672)scale(0.102 -0.102)">
     <use xlink:href="#DejaVuSans-49"/>
     <use x="63.623047" xlink:href="#DejaVuSans-53"/>
     <use x="127.246094" xlink:href="#DejaVuSans-32"/>
     <use x="159.033203" xlink:href="#DejaVuSans-105"/>
     <use x="186.816406" xlink:href="#DejaVuSans-110"/>
     <use x="250.195312" xlink:href="#DejaVuSans-115"/>
     <use x="302.294922" xlink:href="#DejaVuSans-116"/>
     <use x="341.503906" xlink:href="#DejaVuSans-97"/>
     <use x="402.783203" xlink:href="#DejaVuSans-110"/>
     <use x="466.162109" xlink:href="#DejaVuSans-99"/>
     <use x="521.142578" xlink:href="#DejaVuSans-101"/>
     <use x="582.666016" xlink:href="#DejaVuSans-115"/>
    </g>
   </g>
   <g id="text_17">
    <!-- v2.4.159 -->
    <g style="fill:#808080;" transform="translate(187.15945 294.151352)scale(0.1 -0.1)">
     <use xlink:href="#DejaVuSans-118"/>
     <use x="59.179688" xlink:href="#DejaVuSans-50"/>
     <use x="122.802734" xlink:href="#DejaVuSans-46"/>
     <use x="154.589844" xlink:href="#DejaVuSans-52"/>
     <use x="218.212891" xlink:href="#DejaVuSans-46"/>
     <use x="250" xlink:href="#DejaVuSans-49"/>
     <use x="313.623047" xlink:href="#DejaVuSans-53"/>
     <use x="377.246094" xlink:href="#DejaVuSans-57"/>
    </g>
   </g>
   <g id="text_18">
    <!-- 19 Rot. Ellipsoid, m=1 -->
    <g transform="translate(98.111012 21.648)scale(0.2 -0.2)">
     <defs>
      <path d="M 44.390625 34.1875 
Q 47.5625 33.109375 50.5625 29.59375 
Q 53.5625 26.078125 56.59375 19.921875 
L 66.609375 0 
L 56 0 
L 46.6875 18.703125 
Q 43.0625 26.03125 39.671875 28.421875 
Q 36.28125 30.8125 30.421875 30.8125 
L 19.671875 30.8125 
L 19.671875 0 
L 9.8125 0 
L 9.8125 72.90625 
L 32.078125 72.90625 
Q 44.578125 72.90625 50.734375 67.671875 
Q 56.890625 62.453125 56.890625 51.90625 
Q 56.890625 45.015625 53.6875 40.46875 
Q 50.484375 35.9375 44.390625 34.1875 
z
M 19.671875 64.796875 
L 19.671875 38.921875 
L 32.078125 38.921875 
Q 39.203125 38.921875 42.84375 42.21875 
Q 46.484375 45.515625 46.484375 51.90625 
Q 46.484375 58.296875 42.84375 61.546875 
Q 39.203125 64.796875 32.078125 64.796875 
z
" id="DejaVuSans-82"/>
      <path d="M 9.8125 72.90625 
L 55.90625 72.90625 
L 55.90625 64.59375 
L 19.671875 64.59375 
L 19.671875 43.015625 
L 54.390625 43.015625 
L 54.390625 34.71875 
L 19.671875 34.71875 
L 19.671875 8.296875 
L 56.78125 8.296875 
L 56.78125 0 
L 9.8125 0 
z
" id="DejaVuSans-69"/>
     </defs>
     <use xlink:href="#DejaVuSans-49"/>
     <use x="63.623047" xlink:href="#DejaVuSans-57"/>
     <use x="127.246094" xlink:href="#DejaVuSans-32"/>
     <use x="159.033203" xlink:href="#DejaVuSans-82"/>
     <use x="224.015625" xlink:href="#DejaVuSans-111"/>
     <use x="285.197266" xlink:href="#DejaVuSans-116"/>
     <use x="324.40625" xlink:href="#DejaVuSans-46"/>
     <use x="356.193359" xlink:href="#DejaVuSans-32"/>
     <use x="387.980469" xlink:href="#DejaVuSans-69"/>
     <use x="451.164062" xlink:href="#DejaVuSans-108"/>
     <use x="478.947266" xlink:href="#DejaVuSans-108"/>
     <use x="506.730469" xlink:href="#DejaVuSans-105"/>
     <use x="534.513672" xlink:href="#DejaVuSans-112"/>
     <use x="597.990234" xlink:href="#DejaVuSans-115"/>
     <use x="650.089844" xlink:href="#DejaVuSans-111"/>
     <use x="711.271484" xlink:href="#DejaVuSans-105"/>
     <use x="739.054688" xlink:href="#DejaVuSans-100"/>
     <use x="802.53125" xlink:href="#DejaVuSans-44"/>
     <use x="834.318359" xlink:href="#DejaVuSans-32"/>
     <use x="866.105469" xlink:href="#DejaVuSans-109"/>
     <use x="963.517578" xlink:href="#DejaVuSans-61"/>
     <use x="1047.306641" xlink:href="#DejaVuSans-49"/>
    </g>
   </g>
  </g>
 </g>
 <defs>
  <clipPath id="p2bbd1c8be3">
   <rect height="271.296" width="303.2064" x="57.6" y="27.648"/>
  </clipPath>
 </defs>
</svg>
