<?xml version="1.0" encoding="utf-8" standalone="no"?>
<!DOCTYPE svg PUBLIC "-//W3C//DTD SVG 1.1//EN"
  "http://www.w3.org/Graphics/SVG/1.1/DTD/svg11.dtd">
<!-- Created with matplotlib (https://matplotlib.org/) -->
<svg height="345.6pt" version="1.1" viewBox="0 0 460.8 345.6" width="460.8pt" xmlns="http://www.w3.org/2000/svg" xmlns:xlink="http://www.w3.org/1999/xlink">
 <metadata>
  <rdf:RDF xmlns:cc="http://creativecommons.org/ns#" xmlns:dc="http://purl.org/dc/elements/1.1/" xmlns:rdf="http://www.w3.org/1999/02/22-rdf-syntax-ns#">
   <cc:Work>
    <dc:type rdf:resource="http://purl.org/dc/dcmitype/StillImage"/>
    <dc:date>2022-01-12T20:49:31.570973</dc:date>
    <dc:format>image/svg+xml</dc:format>
    <dc:creator>
     <cc:Agent>
      <dc:title>Matplotlib v3.3.3, https://matplotlib.org/</dc:title>
     </cc:Agent>
    </dc:creator>
   </cc:Work>
  </rdf:RDF>
 </metadata>
 <defs>
  <style type="text/css">*{stroke-linecap:butt;stroke-linejoin:round;}</style>
 </defs>
 <g id="figure_1">
  <g id="patch_1">
   <path d="M 0 345.6 
L 460.8 345.6 
L 460.8 0 
L 0 0 
z
" style="fill:#ffffff;"/>
  </g>
  <g id="axes_1">
   <g id="patch_2">
    <path d="M 57.6 298.944 
L 338.688 298.944 
L 338.688 3.456 
L 57.6 3.456 
z
" style="fill:#ffffff;"/>
   </g>
   <g id="matplotlib.axis_1">
    <g id="xtick_1">
     <g id="line2d_1">
      <path clip-path="url(#p31e12497d8)" d="M 57.6 298.944 
L 57.6 3.456 
" style="fill:none;stroke:#b0b0b0;stroke-linecap:square;stroke-width:0.8;"/>
     </g>
     <g id="line2d_2">
      <defs>
       <path d="M 0 0 
L 0 3.5 
" id="md401f5b7f9" style="stroke:#000000;stroke-width:0.8;"/>
      </defs>
      <g>
       <use style="stroke:#000000;stroke-width:0.8;" x="57.6" xlink:href="#md401f5b7f9" y="298.944"/>
      </g>
     </g>
     <g id="text_1">
      <!-- 0 -->
      <g transform="translate(51.2375 321.140875)scale(0.2 -0.2)">
       <defs>
        <path d="M 31.78125 66.40625 
Q 24.171875 66.40625 20.328125 58.90625 
Q 16.5 51.421875 16.5 36.375 
Q 16.5 21.390625 20.328125 13.890625 
Q 24.171875 6.390625 31.78125 6.390625 
Q 39.453125 6.390625 43.28125 13.890625 
Q 47.125 21.390625 47.125 36.375 
Q 47.125 51.421875 43.28125 58.90625 
Q 39.453125 66.40625 31.78125 66.40625 
z
M 31.78125 74.21875 
Q 44.046875 74.21875 50.515625 64.515625 
Q 56.984375 54.828125 56.984375 36.375 
Q 56.984375 17.96875 50.515625 8.265625 
Q 44.046875 -1.421875 31.78125 -1.421875 
Q 19.53125 -1.421875 13.0625 8.265625 
Q 6.59375 17.96875 6.59375 36.375 
Q 6.59375 54.828125 13.0625 64.515625 
Q 19.53125 74.21875 31.78125 74.21875 
z
" id="DejaVuSans-48"/>
       </defs>
       <use xlink:href="#DejaVuSans-48"/>
      </g>
     </g>
    </g>
    <g id="xtick_2">
     <g id="line2d_3">
      <path clip-path="url(#p31e12497d8)" d="M 137.910857 298.944 
L 137.910857 3.456 
" style="fill:none;stroke:#b0b0b0;stroke-linecap:square;stroke-width:0.8;"/>
     </g>
     <g id="line2d_4">
      <g>
       <use style="stroke:#000000;stroke-width:0.8;" x="137.910857" xlink:href="#md401f5b7f9" y="298.944"/>
      </g>
     </g>
     <g id="text_2">
      <!-- 2 -->
      <g transform="translate(131.548357 321.140875)scale(0.2 -0.2)">
       <defs>
        <path d="M 19.1875 8.296875 
L 53.609375 8.296875 
L 53.609375 0 
L 7.328125 0 
L 7.328125 8.296875 
Q 12.9375 14.109375 22.625 23.890625 
Q 32.328125 33.6875 34.8125 36.53125 
Q 39.546875 41.84375 41.421875 45.53125 
Q 43.3125 49.21875 43.3125 52.78125 
Q 43.3125 58.59375 39.234375 62.25 
Q 35.15625 65.921875 28.609375 65.921875 
Q 23.96875 65.921875 18.8125 64.3125 
Q 13.671875 62.703125 7.8125 59.421875 
L 7.8125 69.390625 
Q 13.765625 71.78125 18.9375 73 
Q 24.125 74.21875 28.421875 74.21875 
Q 39.75 74.21875 46.484375 68.546875 
Q 53.21875 62.890625 53.21875 53.421875 
Q 53.21875 48.921875 51.53125 44.890625 
Q 49.859375 40.875 45.40625 35.40625 
Q 44.1875 33.984375 37.640625 27.21875 
Q 31.109375 20.453125 19.1875 8.296875 
z
" id="DejaVuSans-50"/>
       </defs>
       <use xlink:href="#DejaVuSans-50"/>
      </g>
     </g>
    </g>
    <g id="xtick_3">
     <g id="line2d_5">
      <path clip-path="url(#p31e12497d8)" d="M 218.221714 298.944 
L 218.221714 3.456 
" style="fill:none;stroke:#b0b0b0;stroke-linecap:square;stroke-width:0.8;"/>
     </g>
     <g id="line2d_6">
      <g>
       <use style="stroke:#000000;stroke-width:0.8;" x="218.221714" xlink:href="#md401f5b7f9" y="298.944"/>
      </g>
     </g>
     <g id="text_3">
      <!-- 4 -->
      <g transform="translate(211.859214 321.140875)scale(0.2 -0.2)">
       <defs>
        <path d="M 37.796875 64.3125 
L 12.890625 25.390625 
L 37.796875 25.390625 
z
M 35.203125 72.90625 
L 47.609375 72.90625 
L 47.609375 25.390625 
L 58.015625 25.390625 
L 58.015625 17.1875 
L 47.609375 17.1875 
L 47.609375 0 
L 37.796875 0 
L 37.796875 17.1875 
L 4.890625 17.1875 
L 4.890625 26.703125 
z
" id="DejaVuSans-52"/>
       </defs>
       <use xlink:href="#DejaVuSans-52"/>
      </g>
     </g>
    </g>
    <g id="xtick_4">
     <g id="line2d_7">
      <path clip-path="url(#p31e12497d8)" d="M 298.532571 298.944 
L 298.532571 3.456 
" style="fill:none;stroke:#b0b0b0;stroke-linecap:square;stroke-width:0.8;"/>
     </g>
     <g id="line2d_8">
      <g>
       <use style="stroke:#000000;stroke-width:0.8;" x="298.532571" xlink:href="#md401f5b7f9" y="298.944"/>
      </g>
     </g>
     <g id="text_4">
      <!-- 6 -->
      <g transform="translate(292.170071 321.140875)scale(0.2 -0.2)">
       <defs>
        <path d="M 33.015625 40.375 
Q 26.375 40.375 22.484375 35.828125 
Q 18.609375 31.296875 18.609375 23.390625 
Q 18.609375 15.53125 22.484375 10.953125 
Q 26.375 6.390625 33.015625 6.390625 
Q 39.65625 6.390625 43.53125 10.953125 
Q 47.40625 15.53125 47.40625 23.390625 
Q 47.40625 31.296875 43.53125 35.828125 
Q 39.65625 40.375 33.015625 40.375 
z
M 52.59375 71.296875 
L 52.59375 62.3125 
Q 48.875 64.0625 45.09375 64.984375 
Q 41.3125 65.921875 37.59375 65.921875 
Q 27.828125 65.921875 22.671875 59.328125 
Q 17.53125 52.734375 16.796875 39.40625 
Q 19.671875 43.65625 24.015625 45.921875 
Q 28.375 48.1875 33.59375 48.1875 
Q 44.578125 48.1875 50.953125 41.515625 
Q 57.328125 34.859375 57.328125 23.390625 
Q 57.328125 12.15625 50.6875 5.359375 
Q 44.046875 -1.421875 33.015625 -1.421875 
Q 20.359375 -1.421875 13.671875 8.265625 
Q 6.984375 17.96875 6.984375 36.375 
Q 6.984375 53.65625 15.1875 63.9375 
Q 23.390625 74.21875 37.203125 74.21875 
Q 40.921875 74.21875 44.703125 73.484375 
Q 48.484375 72.75 52.59375 71.296875 
z
" id="DejaVuSans-54"/>
       </defs>
       <use xlink:href="#DejaVuSans-54"/>
      </g>
     </g>
    </g>
    <g id="xtick_5">
     <g id="line2d_9">
      <path clip-path="url(#p31e12497d8)" d="M 97.755429 298.944 
L 97.755429 3.456 
" style="fill:none;stroke:#b0b0b0;stroke-linecap:square;stroke-width:0.8;"/>
     </g>
     <g id="line2d_10">
      <defs>
       <path d="M 0 0 
L 0 2 
" id="mc6d379d7e2" style="stroke:#000000;stroke-width:0.6;"/>
      </defs>
      <g>
       <use style="stroke:#000000;stroke-width:0.6;" x="97.755429" xlink:href="#mc6d379d7e2" y="298.944"/>
      </g>
     </g>
    </g>
    <g id="xtick_6">
     <g id="line2d_11">
      <path clip-path="url(#p31e12497d8)" d="M 178.066286 298.944 
L 178.066286 3.456 
" style="fill:none;stroke:#b0b0b0;stroke-linecap:square;stroke-width:0.8;"/>
     </g>
     <g id="line2d_12">
      <g>
       <use style="stroke:#000000;stroke-width:0.6;" x="178.066286" xlink:href="#mc6d379d7e2" y="298.944"/>
      </g>
     </g>
    </g>
    <g id="xtick_7">
     <g id="line2d_13">
      <path clip-path="url(#p31e12497d8)" d="M 258.377143 298.944 
L 258.377143 3.456 
" style="fill:none;stroke:#b0b0b0;stroke-linecap:square;stroke-width:0.8;"/>
     </g>
     <g id="line2d_14">
      <g>
       <use style="stroke:#000000;stroke-width:0.6;" x="258.377143" xlink:href="#mc6d379d7e2" y="298.944"/>
      </g>
     </g>
    </g>
    <g id="xtick_8">
     <g id="line2d_15">
      <path clip-path="url(#p31e12497d8)" d="M 338.688 298.944 
L 338.688 3.456 
" style="fill:none;stroke:#b0b0b0;stroke-linecap:square;stroke-width:0.8;"/>
     </g>
     <g id="line2d_16">
      <g>
       <use style="stroke:#000000;stroke-width:0.6;" x="338.688" xlink:href="#mc6d379d7e2" y="298.944"/>
      </g>
     </g>
    </g>
    <g id="text_5">
     <!-- log10(# (f+g)-evals / dimension) -->
     <g transform="translate(58.145016 342.217594)scale(0.17 -0.17)">
      <defs>
       <path d="M 9.421875 75.984375 
L 18.40625 75.984375 
L 18.40625 0 
L 9.421875 0 
z
" id="DejaVuSans-108"/>
       <path d="M 30.609375 48.390625 
Q 23.390625 48.390625 19.1875 42.75 
Q 14.984375 37.109375 14.984375 27.296875 
Q 14.984375 17.484375 19.15625 11.84375 
Q 23.34375 6.203125 30.609375 6.203125 
Q 37.796875 6.203125 41.984375 11.859375 
Q 46.1875 17.53125 46.1875 27.296875 
Q 46.1875 37.015625 41.984375 42.703125 
Q 37.796875 48.390625 30.609375 48.390625 
z
M 30.609375 56 
Q 42.328125 56 49.015625 48.375 
Q 55.71875 40.765625 55.71875 27.296875 
Q 55.71875 13.875 49.015625 6.21875 
Q 42.328125 -1.421875 30.609375 -1.421875 
Q 18.84375 -1.421875 12.171875 6.21875 
Q 5.515625 13.875 5.515625 27.296875 
Q 5.515625 40.765625 12.171875 48.375 
Q 18.84375 56 30.609375 56 
z
" id="DejaVuSans-111"/>
       <path d="M 45.40625 27.984375 
Q 45.40625 37.75 41.375 43.109375 
Q 37.359375 48.484375 30.078125 48.484375 
Q 22.859375 48.484375 18.828125 43.109375 
Q 14.796875 37.75 14.796875 27.984375 
Q 14.796875 18.265625 18.828125 12.890625 
Q 22.859375 7.515625 30.078125 7.515625 
Q 37.359375 7.515625 41.375 12.890625 
Q 45.40625 18.265625 45.40625 27.984375 
z
M 54.390625 6.78125 
Q 54.390625 -7.171875 48.1875 -13.984375 
Q 42 -20.796875 29.203125 -20.796875 
Q 24.46875 -20.796875 20.265625 -20.09375 
Q 16.0625 -19.390625 12.109375 -17.921875 
L 12.109375 -9.1875 
Q 16.0625 -11.328125 19.921875 -12.34375 
Q 23.78125 -13.375 27.78125 -13.375 
Q 36.625 -13.375 41.015625 -8.765625 
Q 45.40625 -4.15625 45.40625 5.171875 
L 45.40625 9.625 
Q 42.625 4.78125 38.28125 2.390625 
Q 33.9375 0 27.875 0 
Q 17.828125 0 11.671875 7.65625 
Q 5.515625 15.328125 5.515625 27.984375 
Q 5.515625 40.671875 11.671875 48.328125 
Q 17.828125 56 27.875 56 
Q 33.9375 56 38.28125 53.609375 
Q 42.625 51.21875 45.40625 46.390625 
L 45.40625 54.6875 
L 54.390625 54.6875 
z
" id="DejaVuSans-103"/>
       <path d="M 12.40625 8.296875 
L 28.515625 8.296875 
L 28.515625 63.921875 
L 10.984375 60.40625 
L 10.984375 69.390625 
L 28.421875 72.90625 
L 38.28125 72.90625 
L 38.28125 8.296875 
L 54.390625 8.296875 
L 54.390625 0 
L 12.40625 0 
z
" id="DejaVuSans-49"/>
       <path d="M 31 75.875 
Q 24.46875 64.65625 21.28125 53.65625 
Q 18.109375 42.671875 18.109375 31.390625 
Q 18.109375 20.125 21.3125 9.0625 
Q 24.515625 -2 31 -13.1875 
L 23.1875 -13.1875 
Q 15.875 -1.703125 12.234375 9.375 
Q 8.59375 20.453125 8.59375 31.390625 
Q 8.59375 42.28125 12.203125 53.3125 
Q 15.828125 64.359375 23.1875 75.875 
z
" id="DejaVuSans-40"/>
       <path d="M 51.125 44 
L 36.921875 44 
L 32.8125 27.6875 
L 47.125 27.6875 
z
M 43.796875 71.78125 
L 38.71875 51.515625 
L 52.984375 51.515625 
L 58.109375 71.78125 
L 65.921875 71.78125 
L 60.890625 51.515625 
L 76.125 51.515625 
L 76.125 44 
L 58.984375 44 
L 54.984375 27.6875 
L 70.515625 27.6875 
L 70.515625 20.21875 
L 53.078125 20.21875 
L 48 0 
L 40.1875 0 
L 45.21875 20.21875 
L 30.90625 20.21875 
L 25.875 0 
L 18.015625 0 
L 23.09375 20.21875 
L 7.71875 20.21875 
L 7.71875 27.6875 
L 24.90625 27.6875 
L 29 44 
L 13.28125 44 
L 13.28125 51.515625 
L 30.90625 51.515625 
L 35.890625 71.78125 
z
" id="DejaVuSans-35"/>
       <path id="DejaVuSans-32"/>
       <path d="M 37.109375 75.984375 
L 37.109375 68.5 
L 28.515625 68.5 
Q 23.6875 68.5 21.796875 66.546875 
Q 19.921875 64.59375 19.921875 59.515625 
L 19.921875 54.6875 
L 34.71875 54.6875 
L 34.71875 47.703125 
L 19.921875 47.703125 
L 19.921875 0 
L 10.890625 0 
L 10.890625 47.703125 
L 2.296875 47.703125 
L 2.296875 54.6875 
L 10.890625 54.6875 
L 10.890625 58.5 
Q 10.890625 67.625 15.140625 71.796875 
Q 19.390625 75.984375 28.609375 75.984375 
z
" id="DejaVuSans-102"/>
       <path d="M 46 62.703125 
L 46 35.5 
L 73.1875 35.5 
L 73.1875 27.203125 
L 46 27.203125 
L 46 0 
L 37.796875 0 
L 37.796875 27.203125 
L 10.59375 27.203125 
L 10.59375 35.5 
L 37.796875 35.5 
L 37.796875 62.703125 
z
" id="DejaVuSans-43"/>
       <path d="M 8.015625 75.875 
L 15.828125 75.875 
Q 23.140625 64.359375 26.78125 53.3125 
Q 30.421875 42.28125 30.421875 31.390625 
Q 30.421875 20.453125 26.78125 9.375 
Q 23.140625 -1.703125 15.828125 -13.1875 
L 8.015625 -13.1875 
Q 14.5 -2 17.703125 9.0625 
Q 20.90625 20.125 20.90625 31.390625 
Q 20.90625 42.671875 17.703125 53.65625 
Q 14.5 64.65625 8.015625 75.875 
z
" id="DejaVuSans-41"/>
       <path d="M 4.890625 31.390625 
L 31.203125 31.390625 
L 31.203125 23.390625 
L 4.890625 23.390625 
z
" id="DejaVuSans-45"/>
       <path d="M 56.203125 29.59375 
L 56.203125 25.203125 
L 14.890625 25.203125 
Q 15.484375 15.921875 20.484375 11.0625 
Q 25.484375 6.203125 34.421875 6.203125 
Q 39.59375 6.203125 44.453125 7.46875 
Q 49.3125 8.734375 54.109375 11.28125 
L 54.109375 2.78125 
Q 49.265625 0.734375 44.1875 -0.34375 
Q 39.109375 -1.421875 33.890625 -1.421875 
Q 20.796875 -1.421875 13.15625 6.1875 
Q 5.515625 13.8125 5.515625 26.8125 
Q 5.515625 40.234375 12.765625 48.109375 
Q 20.015625 56 32.328125 56 
Q 43.359375 56 49.78125 48.890625 
Q 56.203125 41.796875 56.203125 29.59375 
z
M 47.21875 32.234375 
Q 47.125 39.59375 43.09375 43.984375 
Q 39.0625 48.390625 32.421875 48.390625 
Q 24.90625 48.390625 20.390625 44.140625 
Q 15.875 39.890625 15.1875 32.171875 
z
" id="DejaVuSans-101"/>
       <path d="M 2.984375 54.6875 
L 12.5 54.6875 
L 29.59375 8.796875 
L 46.6875 54.6875 
L 56.203125 54.6875 
L 35.6875 0 
L 23.484375 0 
z
" id="DejaVuSans-118"/>
       <path d="M 34.28125 27.484375 
Q 23.390625 27.484375 19.1875 25 
Q 14.984375 22.515625 14.984375 16.5 
Q 14.984375 11.71875 18.140625 8.90625 
Q 21.296875 6.109375 26.703125 6.109375 
Q 34.1875 6.109375 38.703125 11.40625 
Q 43.21875 16.703125 43.21875 25.484375 
L 43.21875 27.484375 
z
M 52.203125 31.203125 
L 52.203125 0 
L 43.21875 0 
L 43.21875 8.296875 
Q 40.140625 3.328125 35.546875 0.953125 
Q 30.953125 -1.421875 24.3125 -1.421875 
Q 15.921875 -1.421875 10.953125 3.296875 
Q 6 8.015625 6 15.921875 
Q 6 25.140625 12.171875 29.828125 
Q 18.359375 34.515625 30.609375 34.515625 
L 43.21875 34.515625 
L 43.21875 35.40625 
Q 43.21875 41.609375 39.140625 45 
Q 35.0625 48.390625 27.6875 48.390625 
Q 23 48.390625 18.546875 47.265625 
Q 14.109375 46.140625 10.015625 43.890625 
L 10.015625 52.203125 
Q 14.9375 54.109375 19.578125 55.046875 
Q 24.21875 56 28.609375 56 
Q 40.484375 56 46.34375 49.84375 
Q 52.203125 43.703125 52.203125 31.203125 
z
" id="DejaVuSans-97"/>
       <path d="M 44.28125 53.078125 
L 44.28125 44.578125 
Q 40.484375 46.53125 36.375 47.5 
Q 32.28125 48.484375 27.875 48.484375 
Q 21.1875 48.484375 17.84375 46.4375 
Q 14.5 44.390625 14.5 40.28125 
Q 14.5 37.15625 16.890625 35.375 
Q 19.28125 33.59375 26.515625 31.984375 
L 29.59375 31.296875 
Q 39.15625 29.25 43.1875 25.515625 
Q 47.21875 21.78125 47.21875 15.09375 
Q 47.21875 7.46875 41.1875 3.015625 
Q 35.15625 -1.421875 24.609375 -1.421875 
Q 20.21875 -1.421875 15.453125 -0.5625 
Q 10.6875 0.296875 5.421875 2 
L 5.421875 11.28125 
Q 10.40625 8.6875 15.234375 7.390625 
Q 20.0625 6.109375 24.8125 6.109375 
Q 31.15625 6.109375 34.5625 8.28125 
Q 37.984375 10.453125 37.984375 14.40625 
Q 37.984375 18.0625 35.515625 20.015625 
Q 33.0625 21.96875 24.703125 23.78125 
L 21.578125 24.515625 
Q 13.234375 26.265625 9.515625 29.90625 
Q 5.8125 33.546875 5.8125 39.890625 
Q 5.8125 47.609375 11.28125 51.796875 
Q 16.75 56 26.8125 56 
Q 31.78125 56 36.171875 55.265625 
Q 40.578125 54.546875 44.28125 53.078125 
z
" id="DejaVuSans-115"/>
       <path d="M 25.390625 72.90625 
L 33.6875 72.90625 
L 8.296875 -9.28125 
L 0 -9.28125 
z
" id="DejaVuSans-47"/>
       <path d="M 45.40625 46.390625 
L 45.40625 75.984375 
L 54.390625 75.984375 
L 54.390625 0 
L 45.40625 0 
L 45.40625 8.203125 
Q 42.578125 3.328125 38.25 0.953125 
Q 33.9375 -1.421875 27.875 -1.421875 
Q 17.96875 -1.421875 11.734375 6.484375 
Q 5.515625 14.40625 5.515625 27.296875 
Q 5.515625 40.1875 11.734375 48.09375 
Q 17.96875 56 27.875 56 
Q 33.9375 56 38.25 53.625 
Q 42.578125 51.265625 45.40625 46.390625 
z
M 14.796875 27.296875 
Q 14.796875 17.390625 18.875 11.75 
Q 22.953125 6.109375 30.078125 6.109375 
Q 37.203125 6.109375 41.296875 11.75 
Q 45.40625 17.390625 45.40625 27.296875 
Q 45.40625 37.203125 41.296875 42.84375 
Q 37.203125 48.484375 30.078125 48.484375 
Q 22.953125 48.484375 18.875 42.84375 
Q 14.796875 37.203125 14.796875 27.296875 
z
" id="DejaVuSans-100"/>
       <path d="M 9.421875 54.6875 
L 18.40625 54.6875 
L 18.40625 0 
L 9.421875 0 
z
M 9.421875 75.984375 
L 18.40625 75.984375 
L 18.40625 64.59375 
L 9.421875 64.59375 
z
" id="DejaVuSans-105"/>
       <path d="M 52 44.1875 
Q 55.375 50.25 60.0625 53.125 
Q 64.75 56 71.09375 56 
Q 79.640625 56 84.28125 50.015625 
Q 88.921875 44.046875 88.921875 33.015625 
L 88.921875 0 
L 79.890625 0 
L 79.890625 32.71875 
Q 79.890625 40.578125 77.09375 44.375 
Q 74.3125 48.1875 68.609375 48.1875 
Q 61.625 48.1875 57.5625 43.546875 
Q 53.515625 38.921875 53.515625 30.90625 
L 53.515625 0 
L 44.484375 0 
L 44.484375 32.71875 
Q 44.484375 40.625 41.703125 44.40625 
Q 38.921875 48.1875 33.109375 48.1875 
Q 26.21875 48.1875 22.15625 43.53125 
Q 18.109375 38.875 18.109375 30.90625 
L 18.109375 0 
L 9.078125 0 
L 9.078125 54.6875 
L 18.109375 54.6875 
L 18.109375 46.1875 
Q 21.1875 51.21875 25.484375 53.609375 
Q 29.78125 56 35.6875 56 
Q 41.65625 56 45.828125 52.96875 
Q 50 49.953125 52 44.1875 
z
" id="DejaVuSans-109"/>
       <path d="M 54.890625 33.015625 
L 54.890625 0 
L 45.90625 0 
L 45.90625 32.71875 
Q 45.90625 40.484375 42.875 44.328125 
Q 39.84375 48.1875 33.796875 48.1875 
Q 26.515625 48.1875 22.3125 43.546875 
Q 18.109375 38.921875 18.109375 30.90625 
L 18.109375 0 
L 9.078125 0 
L 9.078125 54.6875 
L 18.109375 54.6875 
L 18.109375 46.1875 
Q 21.34375 51.125 25.703125 53.5625 
Q 30.078125 56 35.796875 56 
Q 45.21875 56 50.046875 50.171875 
Q 54.890625 44.34375 54.890625 33.015625 
z
" id="DejaVuSans-110"/>
      </defs>
      <use xlink:href="#DejaVuSans-108"/>
      <use x="27.783203" xlink:href="#DejaVuSans-111"/>
      <use x="88.964844" xlink:href="#DejaVuSans-103"/>
      <use x="152.441406" xlink:href="#DejaVuSans-49"/>
      <use x="216.064453" xlink:href="#DejaVuSans-48"/>
      <use x="279.6875" xlink:href="#DejaVuSans-40"/>
      <use x="318.701172" xlink:href="#DejaVuSans-35"/>
      <use x="402.490234" xlink:href="#DejaVuSans-32"/>
      <use x="434.277344" xlink:href="#DejaVuSans-40"/>
      <use x="473.291016" xlink:href="#DejaVuSans-102"/>
      <use x="508.496094" xlink:href="#DejaVuSans-43"/>
      <use x="592.285156" xlink:href="#DejaVuSans-103"/>
      <use x="655.761719" xlink:href="#DejaVuSans-41"/>
      <use x="694.775391" xlink:href="#DejaVuSans-45"/>
      <use x="730.859375" xlink:href="#DejaVuSans-101"/>
      <use x="792.382812" xlink:href="#DejaVuSans-118"/>
      <use x="851.5625" xlink:href="#DejaVuSans-97"/>
      <use x="912.841797" xlink:href="#DejaVuSans-108"/>
      <use x="940.625" xlink:href="#DejaVuSans-115"/>
      <use x="992.724609" xlink:href="#DejaVuSans-32"/>
      <use x="1024.511719" xlink:href="#DejaVuSans-47"/>
      <use x="1058.203125" xlink:href="#DejaVuSans-32"/>
      <use x="1089.990234" xlink:href="#DejaVuSans-100"/>
      <use x="1153.466797" xlink:href="#DejaVuSans-105"/>
      <use x="1181.25" xlink:href="#DejaVuSans-109"/>
      <use x="1278.662109" xlink:href="#DejaVuSans-101"/>
      <use x="1340.185547" xlink:href="#DejaVuSans-110"/>
      <use x="1403.564453" xlink:href="#DejaVuSans-115"/>
      <use x="1455.664062" xlink:href="#DejaVuSans-105"/>
      <use x="1483.447266" xlink:href="#DejaVuSans-111"/>
      <use x="1544.628906" xlink:href="#DejaVuSans-110"/>
      <use x="1608.007812" xlink:href="#DejaVuSans-41"/>
     </g>
    </g>
   </g>
   <g id="matplotlib.axis_2">
    <g id="ytick_1">
     <g id="line2d_17">
      <path clip-path="url(#p31e12497d8)" d="M 57.6 298.944 
L 338.688 298.944 
" style="fill:none;stroke:#b0b0b0;stroke-linecap:square;stroke-width:0.8;"/>
     </g>
     <g id="line2d_18">
      <defs>
       <path d="M 0 0 
L -3.5 0 
" id="mea963b7376" style="stroke:#000000;stroke-width:0.8;"/>
      </defs>
      <g>
       <use style="stroke:#000000;stroke-width:0.8;" x="57.6" xlink:href="#mea963b7376" y="298.944"/>
      </g>
     </g>
     <g id="text_6">
      <!-- 0.0 -->
      <g transform="translate(25.155 305.02275)scale(0.16 -0.16)">
       <defs>
        <path d="M 10.6875 12.40625 
L 21 12.40625 
L 21 0 
L 10.6875 0 
z
" id="DejaVuSans-46"/>
       </defs>
       <use xlink:href="#DejaVuSans-48"/>
       <use x="63.623047" xlink:href="#DejaVuSans-46"/>
       <use x="95.410156" xlink:href="#DejaVuSans-48"/>
      </g>
     </g>
    </g>
    <g id="ytick_2">
     <g id="line2d_19">
      <path clip-path="url(#p31e12497d8)" d="M 57.6 240.431525 
L 338.688 240.431525 
" style="fill:none;stroke:#b0b0b0;stroke-linecap:square;stroke-width:0.8;"/>
     </g>
     <g id="line2d_20">
      <g>
       <use style="stroke:#000000;stroke-width:0.8;" x="57.6" xlink:href="#mea963b7376" y="240.431525"/>
      </g>
     </g>
     <g id="text_7">
      <!-- 0.2 -->
      <g transform="translate(25.155 246.510275)scale(0.16 -0.16)">
       <use xlink:href="#DejaVuSans-48"/>
       <use x="63.623047" xlink:href="#DejaVuSans-46"/>
       <use x="95.410156" xlink:href="#DejaVuSans-50"/>
      </g>
     </g>
    </g>
    <g id="ytick_3">
     <g id="line2d_21">
      <path clip-path="url(#p31e12497d8)" d="M 57.6 181.91905 
L 338.688 181.91905 
" style="fill:none;stroke:#b0b0b0;stroke-linecap:square;stroke-width:0.8;"/>
     </g>
     <g id="line2d_22">
      <g>
       <use style="stroke:#000000;stroke-width:0.8;" x="57.6" xlink:href="#mea963b7376" y="181.91905"/>
      </g>
     </g>
     <g id="text_8">
      <!-- 0.4 -->
      <g transform="translate(25.155 187.9978)scale(0.16 -0.16)">
       <use xlink:href="#DejaVuSans-48"/>
       <use x="63.623047" xlink:href="#DejaVuSans-46"/>
       <use x="95.410156" xlink:href="#DejaVuSans-52"/>
      </g>
     </g>
    </g>
    <g id="ytick_4">
     <g id="line2d_23">
      <path clip-path="url(#p31e12497d8)" d="M 57.6 123.406574 
L 338.688 123.406574 
" style="fill:none;stroke:#b0b0b0;stroke-linecap:square;stroke-width:0.8;"/>
     </g>
     <g id="line2d_24">
      <g>
       <use style="stroke:#000000;stroke-width:0.8;" x="57.6" xlink:href="#mea963b7376" y="123.406574"/>
      </g>
     </g>
     <g id="text_9">
      <!-- 0.6 -->
      <g transform="translate(25.155 129.485324)scale(0.16 -0.16)">
       <use xlink:href="#DejaVuSans-48"/>
       <use x="63.623047" xlink:href="#DejaVuSans-46"/>
       <use x="95.410156" xlink:href="#DejaVuSans-54"/>
      </g>
     </g>
    </g>
    <g id="ytick_5">
     <g id="line2d_25">
      <path clip-path="url(#p31e12497d8)" d="M 57.6 64.894099 
L 338.688 64.894099 
" style="fill:none;stroke:#b0b0b0;stroke-linecap:square;stroke-width:0.8;"/>
     </g>
     <g id="line2d_26">
      <g>
       <use style="stroke:#000000;stroke-width:0.8;" x="57.6" xlink:href="#mea963b7376" y="64.894099"/>
      </g>
     </g>
     <g id="text_10">
      <!-- 0.8 -->
      <g transform="translate(25.155 70.972849)scale(0.16 -0.16)">
       <defs>
        <path d="M 31.78125 34.625 
Q 24.75 34.625 20.71875 30.859375 
Q 16.703125 27.09375 16.703125 20.515625 
Q 16.703125 13.921875 20.71875 10.15625 
Q 24.75 6.390625 31.78125 6.390625 
Q 38.8125 6.390625 42.859375 10.171875 
Q 46.921875 13.96875 46.921875 20.515625 
Q 46.921875 27.09375 42.890625 30.859375 
Q 38.875 34.625 31.78125 34.625 
z
M 21.921875 38.8125 
Q 15.578125 40.375 12.03125 44.71875 
Q 8.5 49.078125 8.5 55.328125 
Q 8.5 64.0625 14.71875 69.140625 
Q 20.953125 74.21875 31.78125 74.21875 
Q 42.671875 74.21875 48.875 69.140625 
Q 55.078125 64.0625 55.078125 55.328125 
Q 55.078125 49.078125 51.53125 44.71875 
Q 48 40.375 41.703125 38.8125 
Q 48.828125 37.15625 52.796875 32.3125 
Q 56.78125 27.484375 56.78125 20.515625 
Q 56.78125 9.90625 50.3125 4.234375 
Q 43.84375 -1.421875 31.78125 -1.421875 
Q 19.734375 -1.421875 13.25 4.234375 
Q 6.78125 9.90625 6.78125 20.515625 
Q 6.78125 27.484375 10.78125 32.3125 
Q 14.796875 37.15625 21.921875 38.8125 
z
M 18.3125 54.390625 
Q 18.3125 48.734375 21.84375 45.5625 
Q 25.390625 42.390625 31.78125 42.390625 
Q 38.140625 42.390625 41.71875 45.5625 
Q 45.3125 48.734375 45.3125 54.390625 
Q 45.3125 60.0625 41.71875 63.234375 
Q 38.140625 66.40625 31.78125 66.40625 
Q 25.390625 66.40625 21.84375 63.234375 
Q 18.3125 60.0625 18.3125 54.390625 
z
" id="DejaVuSans-56"/>
       </defs>
       <use xlink:href="#DejaVuSans-48"/>
       <use x="63.623047" xlink:href="#DejaVuSans-46"/>
       <use x="95.410156" xlink:href="#DejaVuSans-56"/>
      </g>
     </g>
    </g>
    <g id="ytick_6">
     <g id="line2d_27">
      <path clip-path="url(#p31e12497d8)" d="M 57.6 6.381624 
L 338.688 6.381624 
" style="fill:none;stroke:#b0b0b0;stroke-linecap:square;stroke-width:0.8;"/>
     </g>
     <g id="line2d_28">
      <g>
       <use style="stroke:#000000;stroke-width:0.8;" x="57.6" xlink:href="#mea963b7376" y="6.381624"/>
      </g>
     </g>
     <g id="text_11">
      <!-- 1.0 -->
      <g transform="translate(25.155 12.460374)scale(0.16 -0.16)">
       <use xlink:href="#DejaVuSans-49"/>
       <use x="63.623047" xlink:href="#DejaVuSans-46"/>
       <use x="95.410156" xlink:href="#DejaVuSans-48"/>
      </g>
     </g>
    </g>
    <g id="text_12">
     <!-- Fraction of function,target pairs -->
     <g transform="translate(17.619531 285.585)rotate(-90)scale(0.17 -0.17)">
      <defs>
       <path d="M 9.8125 72.90625 
L 51.703125 72.90625 
L 51.703125 64.59375 
L 19.671875 64.59375 
L 19.671875 43.109375 
L 48.578125 43.109375 
L 48.578125 34.8125 
L 19.671875 34.8125 
L 19.671875 0 
L 9.8125 0 
z
" id="DejaVuSans-70"/>
       <path d="M 41.109375 46.296875 
Q 39.59375 47.171875 37.8125 47.578125 
Q 36.03125 48 33.890625 48 
Q 26.265625 48 22.1875 43.046875 
Q 18.109375 38.09375 18.109375 28.8125 
L 18.109375 0 
L 9.078125 0 
L 9.078125 54.6875 
L 18.109375 54.6875 
L 18.109375 46.1875 
Q 20.953125 51.171875 25.484375 53.578125 
Q 30.03125 56 36.53125 56 
Q 37.453125 56 38.578125 55.875 
Q 39.703125 55.765625 41.0625 55.515625 
z
" id="DejaVuSans-114"/>
       <path d="M 48.78125 52.59375 
L 48.78125 44.1875 
Q 44.96875 46.296875 41.140625 47.34375 
Q 37.3125 48.390625 33.40625 48.390625 
Q 24.65625 48.390625 19.8125 42.84375 
Q 14.984375 37.3125 14.984375 27.296875 
Q 14.984375 17.28125 19.8125 11.734375 
Q 24.65625 6.203125 33.40625 6.203125 
Q 37.3125 6.203125 41.140625 7.25 
Q 44.96875 8.296875 48.78125 10.40625 
L 48.78125 2.09375 
Q 45.015625 0.34375 40.984375 -0.53125 
Q 36.96875 -1.421875 32.421875 -1.421875 
Q 20.0625 -1.421875 12.78125 6.34375 
Q 5.515625 14.109375 5.515625 27.296875 
Q 5.515625 40.671875 12.859375 48.328125 
Q 20.21875 56 33.015625 56 
Q 37.15625 56 41.109375 55.140625 
Q 45.0625 54.296875 48.78125 52.59375 
z
" id="DejaVuSans-99"/>
       <path d="M 18.3125 70.21875 
L 18.3125 54.6875 
L 36.8125 54.6875 
L 36.8125 47.703125 
L 18.3125 47.703125 
L 18.3125 18.015625 
Q 18.3125 11.328125 20.140625 9.421875 
Q 21.96875 7.515625 27.59375 7.515625 
L 36.8125 7.515625 
L 36.8125 0 
L 27.59375 0 
Q 17.1875 0 13.234375 3.875 
Q 9.28125 7.765625 9.28125 18.015625 
L 9.28125 47.703125 
L 2.6875 47.703125 
L 2.6875 54.6875 
L 9.28125 54.6875 
L 9.28125 70.21875 
z
" id="DejaVuSans-116"/>
       <path d="M 8.5 21.578125 
L 8.5 54.6875 
L 17.484375 54.6875 
L 17.484375 21.921875 
Q 17.484375 14.15625 20.5 10.265625 
Q 23.53125 6.390625 29.59375 6.390625 
Q 36.859375 6.390625 41.078125 11.03125 
Q 45.3125 15.671875 45.3125 23.6875 
L 45.3125 54.6875 
L 54.296875 54.6875 
L 54.296875 0 
L 45.3125 0 
L 45.3125 8.40625 
Q 42.046875 3.421875 37.71875 1 
Q 33.40625 -1.421875 27.6875 -1.421875 
Q 18.265625 -1.421875 13.375 4.4375 
Q 8.5 10.296875 8.5 21.578125 
z
M 31.109375 56 
z
" id="DejaVuSans-117"/>
       <path d="M 11.71875 12.40625 
L 22.015625 12.40625 
L 22.015625 4 
L 14.015625 -11.625 
L 7.71875 -11.625 
L 11.71875 4 
z
" id="DejaVuSans-44"/>
       <path d="M 18.109375 8.203125 
L 18.109375 -20.796875 
L 9.078125 -20.796875 
L 9.078125 54.6875 
L 18.109375 54.6875 
L 18.109375 46.390625 
Q 20.953125 51.265625 25.265625 53.625 
Q 29.59375 56 35.59375 56 
Q 45.5625 56 51.78125 48.09375 
Q 58.015625 40.1875 58.015625 27.296875 
Q 58.015625 14.40625 51.78125 6.484375 
Q 45.5625 -1.421875 35.59375 -1.421875 
Q 29.59375 -1.421875 25.265625 0.953125 
Q 20.953125 3.328125 18.109375 8.203125 
z
M 48.6875 27.296875 
Q 48.6875 37.203125 44.609375 42.84375 
Q 40.53125 48.484375 33.40625 48.484375 
Q 26.265625 48.484375 22.1875 42.84375 
Q 18.109375 37.203125 18.109375 27.296875 
Q 18.109375 17.390625 22.1875 11.75 
Q 26.265625 6.109375 33.40625 6.109375 
Q 40.53125 6.109375 44.609375 11.75 
Q 48.6875 17.390625 48.6875 27.296875 
z
" id="DejaVuSans-112"/>
      </defs>
      <use xlink:href="#DejaVuSans-70"/>
      <use x="50.269531" xlink:href="#DejaVuSans-114"/>
      <use x="91.382812" xlink:href="#DejaVuSans-97"/>
      <use x="152.662109" xlink:href="#DejaVuSans-99"/>
      <use x="207.642578" xlink:href="#DejaVuSans-116"/>
      <use x="246.851562" xlink:href="#DejaVuSans-105"/>
      <use x="274.634766" xlink:href="#DejaVuSans-111"/>
      <use x="335.816406" xlink:href="#DejaVuSans-110"/>
      <use x="399.195312" xlink:href="#DejaVuSans-32"/>
      <use x="430.982422" xlink:href="#DejaVuSans-111"/>
      <use x="492.164062" xlink:href="#DejaVuSans-102"/>
      <use x="527.369141" xlink:href="#DejaVuSans-32"/>
      <use x="559.15625" xlink:href="#DejaVuSans-102"/>
      <use x="594.361328" xlink:href="#DejaVuSans-117"/>
      <use x="657.740234" xlink:href="#DejaVuSans-110"/>
      <use x="721.119141" xlink:href="#DejaVuSans-99"/>
      <use x="776.099609" xlink:href="#DejaVuSans-116"/>
      <use x="815.308594" xlink:href="#DejaVuSans-105"/>
      <use x="843.091797" xlink:href="#DejaVuSans-111"/>
      <use x="904.273438" xlink:href="#DejaVuSans-110"/>
      <use x="967.652344" xlink:href="#DejaVuSans-44"/>
      <use x="999.439453" xlink:href="#DejaVuSans-116"/>
      <use x="1038.648438" xlink:href="#DejaVuSans-97"/>
      <use x="1099.927734" xlink:href="#DejaVuSans-114"/>
      <use x="1139.291016" xlink:href="#DejaVuSans-103"/>
      <use x="1202.767578" xlink:href="#DejaVuSans-101"/>
      <use x="1264.291016" xlink:href="#DejaVuSans-116"/>
      <use x="1303.5" xlink:href="#DejaVuSans-32"/>
      <use x="1335.287109" xlink:href="#DejaVuSans-112"/>
      <use x="1398.763672" xlink:href="#DejaVuSans-97"/>
      <use x="1460.042969" xlink:href="#DejaVuSans-105"/>
      <use x="1487.826172" xlink:href="#DejaVuSans-114"/>
      <use x="1528.939453" xlink:href="#DejaVuSans-115"/>
     </g>
    </g>
   </g>
   <g id="line2d_29">
    <defs>
     <path d="M 0 1.5 
C 0.397805 1.5 0.77937 1.341951 1.06066 1.06066 
C 1.341951 0.77937 1.5 0.397805 1.5 0 
C 1.5 -0.397805 1.341951 -0.77937 1.06066 -1.06066 
C 0.77937 -1.341951 0.397805 -1.5 0 -1.5 
C -0.397805 -1.5 -0.77937 -1.341951 -1.06066 -1.06066 
C -1.341951 -0.77937 -1.5 -0.397805 -1.5 0 
C -1.5 0.397805 -1.341951 0.77937 -1.06066 1.06066 
C -0.77937 1.341951 -0.397805 1.5 0 1.5 
z
" id="m0e25271bf4" style="stroke:#000080;"/>
    </defs>
    <g>
     <use style="fill:#000080;stroke:#000080;" x="292.238467" xlink:href="#m0e25271bf4" y="63.466965"/>
     <use style="fill:#000080;stroke:#000080;" x="292.238467" xlink:href="#m0e25271bf4" y="63.466965"/>
    </g>
   </g>
   <g id="line2d_30">
    <path d="M 81.775977 298.944 
L 81.775977 286.099798 
L 84.464254 286.099798 
L 84.464254 279.439842 
L 86.792945 279.439842 
L 86.792945 278.012708 
L 88.846997 278.012708 
L 88.846997 276.109863 
L 90.684409 276.109863 
L 90.684409 269.449907 
L 92.34655 269.449907 
L 92.34655 254.70286 
L 93.863965 254.70286 
L 93.863965 252.800015 
L 95.259853 252.800015 
L 95.259853 251.848593 
L 96.552242 251.848593 
L 96.552242 249.945748 
L 97.755429 249.945748 
L 97.755429 247.567192 
L 98.880934 247.567192 
L 98.880934 242.810081 
L 99.938184 242.810081 
L 99.938184 241.382947 
L 100.934985 241.382947 
L 100.934985 237.101546 
L 101.877879 237.101546 
L 101.877879 236.150124 
L 102.772397 236.150124 
L 102.772397 233.771568 
L 103.623262 233.771568 
L 103.623262 231.393012 
L 104.434538 231.393012 
L 104.434538 230.44159 
L 105.209745 230.44159 
L 105.209745 226.160189 
L 105.951954 226.160189 
L 105.951954 221.878789 
L 106.66386 221.878789 
L 106.66386 220.451655 
L 107.347841 220.451655 
L 107.347841 219.500233 
L 108.006005 219.500233 
L 108.006005 217.121677 
L 108.640231 217.121677 
L 108.640231 212.840276 
L 109.252198 212.840276 
L 109.252198 211.413143 
L 109.843417 211.413143 
L 109.843417 210.46172 
L 110.415248 210.46172 
L 110.415248 206.656031 
L 110.968922 206.656031 
L 110.968922 205.704609 
L 111.505558 205.704609 
L 111.505558 205.228897 
L 112.026172 205.228897 
L 112.026172 204.277475 
L 113.500792 204.277475 
L 113.500792 203.326053 
L 114.860386 203.326053 
L 114.860386 202.850341 
L 115.711251 202.850341 
L 115.711251 201.898919 
L 116.522527 201.898919 
L 116.522527 201.423208 
L 117.297733 201.423208 
L 117.297733 200.947497 
L 119.768017 200.947497 
L 119.768017 200.471786 
L 120.093994 200.471786 
L 120.093994 199.996074 
L 126.948374 199.996074 
L 126.948374 199.520363 
L 127.165014 199.520363 
L 127.165014 199.044652 
L 127.799239 199.044652 
L 127.799239 198.568941 
L 128.807571 198.568941 
L 128.807571 198.09323 
L 130.127931 198.09323 
L 130.127931 197.617518 
L 138.026733 197.617518 
L 138.026733 197.141807 
L 138.141844 197.141807 
L 138.141844 196.666096 
L 142.396639 196.666096 
L 142.396639 196.190385 
L 144.350522 196.190385 
L 144.350522 195.714674 
L 145.365173 195.714674 
L 145.365173 195.238963 
L 148.096724 195.238963 
L 148.096724 194.763251 
L 150.960087 194.763251 
L 150.960087 194.28754 
L 151.124351 194.28754 
L 151.124351 193.811829 
L 151.340991 193.811829 
L 151.340991 193.336118 
L 151.713753 193.336118 
L 151.713753 192.860407 
L 152.786492 192.860407 
L 152.786492 192.384695 
L 156.398281 192.384695 
L 156.398281 191.908984 
L 157.300853 191.908984 
L 157.300853 191.433273 
L 158.907277 191.433273 
L 158.907277 190.957562 
L 160.02188 190.957562 
L 160.02188 190.481851 
L 160.378126 190.481851 
L 160.378126 190.00614 
L 161.222884 190.00614 
L 161.222884 189.530428 
L 162.289115 189.530428 
L 162.289115 189.054717 
L 162.630514 189.054717 
L 162.630514 188.579006 
L 162.770815 188.579006 
L 162.770815 188.103295 
L 163.959089 188.103295 
L 163.959089 187.627584 
L 164.824867 187.627584 
L 164.824867 187.151872 
L 165.022481 187.151872 
L 165.022481 186.676161 
L 165.363008 186.676161 
L 165.363008 186.20045 
L 166.209284 186.20045 
L 166.209284 185.724739 
L 167.576907 185.724739 
L 167.619287 184.773317 
L 167.871425 184.773317 
L 167.871425 184.297605 
L 168.586669 184.297605 
L 168.586669 183.821894 
L 168.923766 183.821894 
L 168.923766 183.346183 
L 169.388841 183.346183 
L 169.388841 182.394761 
L 170.428085 182.394761 
L 170.428085 181.91905 
L 170.642945 181.91905 
L 170.642945 181.443338 
L 171.569909 181.443338 
L 171.654076 175.259093 
L 171.771231 175.259093 
L 171.871027 173.831959 
L 171.937241 173.831959 
L 171.937241 173.356248 
L 173.695995 173.356248 
L 173.695995 172.880537 
L 174.167555 172.880537 
L 174.167555 172.404826 
L 174.31234 172.404826 
L 174.31234 171.929115 
L 174.626698 171.929115 
L 174.626698 171.453404 
L 174.865789 171.453404 
L 174.865789 170.977692 
L 176.299779 170.977692 
L 176.299779 170.501981 
L 177.529105 170.501981 
L 177.529105 170.02627 
L 178.767027 170.02627 
L 178.767027 169.550559 
L 179.13174 169.550559 
L 179.13174 169.074848 
L 181.104791 169.074848 
L 181.104791 168.599136 
L 181.64335 168.599136 
L 181.64335 168.123425 
L 183.398652 168.123425 
L 183.475552 167.172003 
L 184.78103 167.172003 
L 184.78103 166.696292 
L 185.494044 166.696292 
L 185.494044 166.220581 
L 185.891944 166.220581 
L 185.891944 165.744869 
L 190.356555 165.744869 
L 190.46539 160.987758 
L 190.539466 160.987758 
L 190.539466 160.512046 
L 192.239301 160.512046 
L 192.239301 160.036335 
L 192.35241 160.036335 
L 192.35241 159.560624 
L 192.677344 159.560624 
L 192.677344 159.084913 
L 194.299656 159.084913 
L 194.299656 158.609202 
L 194.841152 158.609202 
L 194.841152 158.13349 
L 195.206086 158.13349 
L 195.206086 157.657779 
L 195.353401 157.657779 
L 195.439478 150.997823 
L 195.623119 150.997823 
L 195.623119 150.522112 
L 195.880358 150.522112 
L 195.880358 150.0464 
L 196.322615 150.0464 
L 196.322615 149.094978 
L 198.168188 149.094978 
L 198.168188 148.619267 
L 198.754816 148.619267 
L 198.807985 146.716422 
L 199.237959 146.716422 
L 199.251765 145.765 
L 199.467788 145.765 
L 199.467788 145.289289 
L 200.182215 145.289289 
L 200.182215 144.813577 
L 202.402835 144.813577 
L 202.443107 141.95931 
L 204.752752 141.95931 
L 204.770362 140.532177 
L 206.24036 140.532177 
L 206.24036 140.056466 
L 207.389538 140.056466 
L 207.430599 133.396509 
L 208.060199 133.396509 
L 208.060199 132.920798 
L 210.006577 132.920798 
L 210.006577 132.445087 
L 210.45513 132.445087 
L 210.45513 131.969376 
L 210.683215 131.969376 
L 210.683215 131.493664 
L 211.011498 131.493664 
L 211.107916 129.59082 
L 211.259351 129.59082 
L 211.316449 128.639397 
L 211.440383 128.639397 
L 211.517396 127.212264 
L 211.577062 127.212264 
L 211.577062 126.736553 
L 211.692402 126.736553 
L 211.692402 125.78513 
L 211.934164 125.78513 
L 211.934164 125.309419 
L 212.649571 125.309419 
L 212.649571 124.833708 
L 213.640282 124.833708 
L 213.640282 124.357997 
L 214.008304 124.357997 
L 214.008304 123.882285 
L 214.198231 123.882285 
L 214.198231 123.406574 
L 215.21154 123.406574 
L 215.21154 122.930863 
L 215.458481 122.930863 
L 215.458481 122.455152 
L 215.853782 122.455152 
L 215.865763 120.076596 
L 216.483489 120.076596 
L 216.483489 119.600885 
L 216.665572 119.600885 
L 216.665572 119.125174 
L 216.8313 119.125174 
L 216.913577 118.173751 
L 218.860361 118.173751 
L 218.890597 116.270907 
L 219.263638 116.270907 
L 219.273492 114.843773 
L 220.173154 114.843773 
L 220.173154 114.368062 
L 221.104226 114.368062 
L 221.162273 113.416639 
L 221.319697 113.416639 
L 221.36927 111.989506 
L 221.498851 111.989506 
L 221.513778 111.038084 
L 221.715717 111.038084 
L 221.715717 110.562372 
L 222.2609 110.562372 
L 222.357927 109.135239 
L 222.39137 109.135239 
L 222.487221 108.183816 
L 222.50951 108.183816 
L 222.50951 107.708105 
L 223.316984 107.708105 
L 223.392341 106.280972 
L 225.000812 106.280972 
L 225.000812 105.805261 
L 227.184124 105.805261 
L 227.184124 105.329549 
L 227.359183 105.329549 
L 227.359183 104.853838 
L 228.084013 104.853838 
L 228.084013 104.378127 
L 228.342956 104.378127 
L 228.443848 102.950993 
L 228.807183 102.950993 
L 228.812251 101.999571 
L 229.071291 101.999571 
L 229.119902 101.048149 
L 229.933342 101.048149 
L 229.933342 100.572438 
L 230.651912 100.572438 
L 230.651912 100.096726 
L 230.945267 100.096726 
L 230.97299 99.145304 
L 231.104284 99.145304 
L 231.104284 98.669593 
L 231.292111 98.669593 
L 231.33108 96.766748 
L 231.523814 96.766748 
L 231.523814 96.291037 
L 232.124952 96.291037 
L 232.124952 95.815326 
L 232.313301 95.815326 
L 232.317965 94.863903 
L 232.48271 94.863903 
L 232.589386 93.912481 
L 233.212897 93.912481 
L 233.212897 93.43677 
L 233.464779 93.43677 
L 233.464779 92.961059 
L 235.05646 92.961059 
L 235.05646 92.485348 
L 235.677998 92.485348 
L 235.677998 92.009636 
L 237.501988 92.009636 
L 237.501988 91.533925 
L 238.033561 91.533925 
L 238.033561 91.058214 
L 238.388845 91.058214 
L 238.438155 90.106792 
L 238.732374 90.106792 
L 238.732374 89.63108 
L 239.041278 89.63108 
L 239.041278 89.155369 
L 239.199988 89.155369 
L 239.199988 88.679658 
L 239.83508 88.679658 
L 239.83508 88.203947 
L 240.352684 88.203947 
L 240.352684 87.728236 
L 241.126015 87.728236 
L 241.126015 87.252525 
L 241.400992 87.252525 
L 241.400992 86.776813 
L 241.897191 86.776813 
L 241.897191 86.301102 
L 243.829761 86.301102 
L 243.910698 85.34968 
L 243.998953 85.34968 
L 244.02611 84.398257 
L 245.147396 84.398257 
L 245.147396 83.922546 
L 247.793418 83.922546 
L 247.793418 83.446835 
L 247.908331 83.446835 
L 247.908331 82.971124 
L 248.268016 82.971124 
L 248.268016 82.495413 
L 248.550823 82.495413 
L 248.550823 82.019702 
L 249.984101 82.019702 
L 249.984101 81.54399 
L 250.663292 81.54399 
L 250.663292 81.068279 
L 251.023952 81.068279 
L 251.023952 80.592568 
L 251.317455 80.592568 
L 251.317455 80.116857 
L 251.845295 80.116857 
L 251.845295 79.641146 
L 252.843285 79.641146 
L 252.843285 79.165434 
L 253.579225 79.165434 
L 253.579225 78.689723 
L 253.917823 78.689723 
L 253.917823 78.214012 
L 254.78037 78.214012 
L 254.78037 77.738301 
L 255.201631 77.738301 
L 255.201631 77.26259 
L 255.361441 77.26259 
L 255.361441 76.786879 
L 255.83778 76.786879 
L 255.83778 76.311167 
L 257.229798 76.311167 
L 257.229798 75.835456 
L 257.593455 75.835456 
L 257.593455 75.359745 
L 258.926513 75.359745 
L 258.99566 74.408323 
L 259.600144 74.408323 
L 259.600144 73.932611 
L 260.829194 73.932611 
L 260.829194 73.4569 
L 261.293129 73.4569 
L 261.293129 72.981189 
L 261.480479 72.981189 
L 261.483884 72.029767 
L 261.90418 72.029767 
L 261.90418 71.554056 
L 262.978057 71.554056 
L 262.978057 71.078344 
L 263.401129 71.078344 
L 263.401129 70.602633 
L 263.533676 70.602633 
L 263.533676 70.126922 
L 264.969395 70.126922 
L 265.045468 69.1755 
L 266.762692 69.1755 
L 266.762692 68.699788 
L 267.60128 68.699788 
L 267.60128 68.224077 
L 267.942033 68.224077 
L 267.942033 67.748366 
L 268.352145 67.748366 
L 268.352145 67.272655 
L 268.490769 67.272655 
L 268.490769 66.796944 
L 270.024471 66.796944 
L 270.024471 66.321233 
L 273.689053 66.321233 
L 273.689053 65.845521 
L 274.263102 65.845521 
L 274.263102 65.36981 
L 276.660938 65.36981 
L 276.660938 64.894099 
L 278.353324 64.894099 
L 278.353324 64.418388 
L 279.445491 64.418388 
L 279.445491 63.942677 
L 292.238467 63.942677 
L 292.238467 63.466965 
L 338.688 63.466965 
L 338.688 63.466965 
" style="fill:none;stroke:#000080;stroke-linecap:square;stroke-width:1.5;"/>
   </g>
   <g id="line2d_31">
    <defs>
     <path d="M 0 6 
C 1.591219 6 3.117479 5.367802 4.242641 4.242641 
C 5.367802 3.117479 6 1.591219 6 0 
C 6 -1.591219 5.367802 -3.117479 4.242641 -4.242641 
C 3.117479 -5.367802 1.591219 -6 0 -6 
C -1.591219 -6 -3.117479 -5.367802 -4.242641 -4.242641 
C -5.367802 -3.117479 -6 -1.591219 -6 0 
C -6 1.591219 -5.367802 3.117479 -4.242641 4.242641 
C -3.117479 5.367802 -1.591219 6 0 6 
z
" id="mc5bd4ef6c6" style="stroke:#000080;stroke-width:1.5;"/>
    </defs>
    <g>
     <use style="fill-opacity:0;stroke:#000080;stroke-width:1.5;" x="161.222884" xlink:href="#mc5bd4ef6c6" y="190.00614"/>
     <use style="fill-opacity:0;stroke:#000080;stroke-width:1.5;" x="218.860361" xlink:href="#mc5bd4ef6c6" y="117.69804"/>
     <use style="fill-opacity:0;stroke:#000080;stroke-width:1.5;" x="292.238467" xlink:href="#mc5bd4ef6c6" y="63.466965"/>
     <use style="fill-opacity:0;stroke:#000080;stroke-width:1.5;" x="292.238467" xlink:href="#mc5bd4ef6c6" y="63.466965"/>
     <use style="fill-opacity:0;stroke:#000080;stroke-width:1.5;" x="338.688" xlink:href="#mc5bd4ef6c6" y="63.466965"/>
    </g>
   </g>
   <g id="line2d_32">
    <path style="fill:none;stroke:#000080;stroke-linecap:square;stroke-width:1.5;"/>
    <g/>
   </g>
   <g id="line2d_33">
    <path clip-path="url(#p31e12497d8)" d="M 207.430599 133.396509 
" style="fill:none;stroke:#000080;stroke-linecap:square;stroke-width:1.5;"/>
    <defs>
     <path d="M -12 12 
L 12 -12 
M -12 -12 
L 12 12 
" id="m625e31d96b" style="stroke:#000080;"/>
    </defs>
    <g clip-path="url(#p31e12497d8)">
     <use style="fill:#000080;stroke:#000080;" x="207.430599" xlink:href="#m625e31d96b" y="133.396509"/>
    </g>
   </g>
   <g id="line2d_34">
    <defs>
     <path d="M 0 1.5 
C 0.397805 1.5 0.77937 1.341951 1.06066 1.06066 
C 1.341951 0.77937 1.5 0.397805 1.5 0 
C 1.5 -0.397805 1.341951 -0.77937 1.06066 -1.06066 
C 0.77937 -1.341951 0.397805 -1.5 0 -1.5 
C -0.397805 -1.5 -0.77937 -1.341951 -1.06066 -1.06066 
C -1.341951 -0.77937 -1.5 -0.397805 -1.5 0 
C -1.5 0.397805 -1.341951 0.77937 -1.06066 1.06066 
C -0.77937 1.341951 -0.397805 1.5 0 1.5 
z
" id="m14827cf1a4" style="stroke:#ff00ff;"/>
    </defs>
    <g>
     <use style="fill:#ff00ff;stroke:#ff00ff;" x="288.21611" xlink:href="#m14827cf1a4" y="34.924295"/>
     <use style="fill:#ff00ff;stroke:#ff00ff;" x="288.21611" xlink:href="#m14827cf1a4" y="34.924295"/>
    </g>
   </g>
   <g id="line2d_35">
    <path d="M 74.704957 298.944 
L 74.704957 297.992578 
L 81.775977 297.992578 
L 81.775977 284.196953 
L 84.464254 284.196953 
L 84.464254 268.974196 
L 86.792945 268.974196 
L 86.792945 268.022773 
L 88.846997 268.022773 
L 88.846997 260.887106 
L 90.684409 260.887106 
L 90.684409 255.178571 
L 92.34655 255.178571 
L 92.34655 254.70286 
L 93.863965 254.70286 
L 93.863965 251.848593 
L 95.259853 251.848593 
L 95.259853 244.712925 
L 96.552242 244.712925 
L 96.552242 242.810081 
L 97.755429 242.810081 
L 97.755429 236.625835 
L 98.880934 236.625835 
L 98.880934 236.150124 
L 99.938184 236.150124 
L 99.938184 235.198702 
L 100.934985 235.198702 
L 100.934985 229.965879 
L 101.877879 229.965879 
L 101.877879 220.451655 
L 102.772397 220.451655 
L 102.772397 213.315987 
L 103.623262 213.315987 
L 103.623262 207.607453 
L 104.434538 207.607453 
L 104.434538 205.228897 
L 105.209745 205.228897 
L 105.209745 199.996074 
L 105.951954 199.996074 
L 105.951954 194.28754 
L 106.66386 194.28754 
L 106.66386 187.627584 
L 107.347841 187.627584 
L 107.347841 182.394761 
L 108.006005 182.394761 
L 108.006005 175.259093 
L 108.640231 175.259093 
L 108.640231 168.123425 
L 109.252198 168.123425 
L 109.252198 160.987758 
L 109.843417 160.987758 
L 109.843417 157.657779 
L 110.415248 157.657779 
L 110.415248 155.754935 
L 110.968922 155.754935 
L 110.968922 152.424956 
L 111.505558 152.424956 
L 111.505558 151.949245 
L 112.026172 151.949245 
L 112.026172 149.094978 
L 112.531694 149.094978 
L 112.531694 140.056466 
L 113.022974 140.056466 
L 113.022974 139.105043 
L 113.500792 139.105043 
L 113.500792 136.250776 
L 113.965867 136.250776 
L 113.965867 134.347931 
L 114.418861 134.347931 
L 114.418861 129.115108 
L 114.860386 129.115108 
L 114.860386 128.639397 
L 115.291007 128.639397 
L 115.291007 128.163686 
L 115.711251 128.163686 
L 115.711251 124.833708 
L 116.522527 124.833708 
L 116.522527 123.882285 
L 116.914437 123.882285 
L 116.914437 122.930863 
L 117.297733 122.930863 
L 117.297733 121.028018 
L 117.672786 121.028018 
L 117.672786 120.552307 
L 118.039942 120.552307 
L 118.039942 120.076596 
L 119.097192 120.076596 
L 119.097192 119.600885 
L 119.43583 119.600885 
L 119.43583 119.125174 
L 126.281824 119.125174 
L 126.281824 118.649462 
L 127.799239 118.649462 
L 127.799239 118.173751 
L 170.553741 118.173751 
L 170.553741 117.69804 
L 171.637275 117.69804 
L 171.737838 113.416639 
L 171.754542 113.416639 
L 171.837825 107.232394 
L 171.871027 107.232394 
L 171.970255 104.378127 
L 183.475552 104.378127 
L 183.501111 101.999571 
L 190.436815 101.999571 
L 190.476806 100.096726 
L 195.417998 100.096726 
L 195.482358 97.242459 
L 199.234506 97.242459 
L 199.306882 93.912481 
L 202.428734 93.912481 
L 202.460338 89.63108 
L 208.420804 89.63108 
L 208.449333 87.252525 
L 209.470494 87.252525 
L 209.501192 83.446835 
L 210.356849 83.446835 
L 210.356849 82.971124 
L 212.981652 82.971124 
L 212.995778 81.068279 
L 213.699147 81.068279 
L 213.70668 80.116857 
L 214.099109 80.116857 
L 214.099109 79.641146 
L 214.476418 79.641146 
L 214.476418 79.165434 
L 215.889701 79.165434 
L 215.889701 78.689723 
L 216.480919 78.689723 
L 216.491194 77.26259 
L 217.163047 77.26259 
L 217.205 75.835456 
L 217.368756 75.835456 
L 217.379741 73.932611 
L 218.098039 73.932611 
L 218.098039 73.4569 
L 219.41738 73.4569 
L 219.424978 72.505478 
L 219.537465 72.505478 
L 219.537465 72.029767 
L 219.993431 72.029767 
L 219.994481 70.126922 
L 220.304162 70.126922 
L 220.304162 69.651211 
L 221.321157 69.651211 
L 221.321157 69.1755 
L 221.995122 69.1755 
L 221.995122 68.224077 
L 222.950307 68.224077 
L 222.950307 67.748366 
L 223.779546 67.748366 
L 223.779546 67.272655 
L 224.600194 67.272655 
L 224.600194 66.796944 
L 225.640357 66.796944 
L 225.640357 66.321233 
L 225.977088 66.321233 
L 225.991987 65.36981 
L 226.429862 65.36981 
L 226.429862 64.894099 
L 227.92245 64.894099 
L 227.92245 64.418388 
L 229.38211 64.418388 
L 229.382723 63.466965 
L 229.842224 63.466965 
L 229.842224 62.991254 
L 231.17219 62.991254 
L 231.226326 62.039832 
L 232.845846 62.039832 
L 232.845846 61.564121 
L 233.064123 61.564121 
L 233.064123 61.08841 
L 233.398923 61.08841 
L 233.467204 60.136987 
L 234.078427 60.136987 
L 234.079832 59.185565 
L 234.89945 59.185565 
L 234.89945 58.709854 
L 235.134217 58.709854 
L 235.134217 58.234142 
L 235.998281 58.234142 
L 236.061931 57.28272 
L 236.441069 57.28272 
L 236.478452 56.331298 
L 236.717796 56.331298 
L 236.717796 55.855587 
L 237.655826 55.855587 
L 237.655826 55.379875 
L 239.018361 55.379875 
L 239.018361 54.904164 
L 239.302163 54.904164 
L 239.302163 54.428453 
L 239.752571 54.428453 
L 239.752571 53.952742 
L 240.745953 53.952742 
L 240.745953 53.477031 
L 241.485572 53.477031 
L 241.485572 53.001319 
L 241.73567 53.001319 
L 241.73567 52.525608 
L 242.760978 52.525608 
L 242.84376 50.622764 
L 244.801392 50.622764 
L 244.830742 49.671341 
L 245.230858 49.671341 
L 245.230858 49.19563 
L 245.450109 49.19563 
L 245.450109 48.719919 
L 245.79006 48.719919 
L 245.79006 48.244208 
L 247.015787 48.244208 
L 247.015787 47.768496 
L 247.410299 47.768496 
L 247.410299 47.292785 
L 247.72449 47.292785 
L 247.72449 46.817074 
L 248.224058 46.817074 
L 248.224058 46.341363 
L 248.461032 46.341363 
L 248.461032 45.865652 
L 248.868771 45.865652 
L 248.868771 45.389941 
L 249.091657 45.389941 
L 249.15372 44.438518 
L 251.446466 44.438518 
L 251.446466 43.962807 
L 252.268657 43.962807 
L 252.268657 43.487096 
L 252.485063 43.487096 
L 252.485063 43.011385 
L 252.759251 43.011385 
L 252.759251 42.535674 
L 255.278387 42.535674 
L 255.278387 42.059962 
L 257.841881 42.059962 
L 257.841881 41.584251 
L 258.890821 41.584251 
L 258.890821 41.10854 
L 259.23061 41.10854 
L 259.23061 40.632829 
L 260.363995 40.632829 
L 260.363995 40.157118 
L 262.212151 40.157118 
L 262.212151 39.681406 
L 263.975841 39.681406 
L 263.975841 39.205695 
L 265.90557 39.205695 
L 265.90557 38.729984 
L 267.300879 38.729984 
L 267.300879 38.254273 
L 268.365624 38.254273 
L 268.365624 37.778562 
L 268.682535 37.778562 
L 268.682535 37.302851 
L 269.626513 37.302851 
L 269.626513 36.827139 
L 271.048097 36.827139 
L 271.048097 36.351428 
L 272.250759 36.351428 
L 272.250759 35.875717 
L 272.493509 35.875717 
L 272.493509 35.400006 
L 288.21611 35.400006 
L 288.21611 34.924295 
L 338.688 34.924295 
L 338.688 34.924295 
" style="fill:none;stroke:#ff00ff;stroke-linecap:square;stroke-width:1.5;"/>
   </g>
   <g id="line2d_36">
    <defs>
     <path d="M -0 8.485281 
L 5.091169 0 
L 0 -8.485281 
L -5.091169 -0 
z
" id="m29af5d53cd" style="stroke:#ff00ff;stroke-linejoin:miter;stroke-width:1.5;"/>
    </defs>
    <g>
     <use style="fill-opacity:0;stroke:#ff00ff;stroke-linejoin:miter;stroke-width:1.5;" x="105.209745" xlink:href="#m29af5d53cd" y="199.996074"/>
     <use style="fill-opacity:0;stroke:#ff00ff;stroke-linejoin:miter;stroke-width:1.5;" x="171.970255" xlink:href="#m29af5d53cd" y="104.853838"/>
     <use style="fill-opacity:0;stroke:#ff00ff;stroke-linejoin:miter;stroke-width:1.5;" x="236.717796" xlink:href="#m29af5d53cd" y="55.855587"/>
     <use style="fill-opacity:0;stroke:#ff00ff;stroke-linejoin:miter;stroke-width:1.5;" x="288.21611" xlink:href="#m29af5d53cd" y="34.924295"/>
     <use style="fill-opacity:0;stroke:#ff00ff;stroke-linejoin:miter;stroke-width:1.5;" x="338.688" xlink:href="#m29af5d53cd" y="34.924295"/>
    </g>
   </g>
   <g id="line2d_37">
    <path style="fill:none;stroke:#ff00ff;stroke-linecap:square;stroke-width:1.5;"/>
    <g/>
   </g>
   <g id="line2d_38">
    <path clip-path="url(#p31e12497d8)" d="M 206.151156 89.63108 
" style="fill:none;stroke:#ff00ff;stroke-linecap:square;stroke-width:1.5;"/>
    <defs>
     <path d="M -12 12 
L 12 -12 
M -12 -12 
L 12 12 
" id="m3e604403c3" style="stroke:#ff00ff;"/>
    </defs>
    <g clip-path="url(#p31e12497d8)">
     <use style="fill:#ff00ff;stroke:#ff00ff;" x="206.151156" xlink:href="#m3e604403c3" y="89.63108"/>
    </g>
   </g>
   <g id="line2d_39">
    <defs>
     <path d="M 0 1.5 
C 0.397805 1.5 0.77937 1.341951 1.06066 1.06066 
C 1.341951 0.77937 1.5 0.397805 1.5 0 
C 1.5 -0.397805 1.341951 -0.77937 1.06066 -1.06066 
C 0.77937 -1.341951 0.397805 -1.5 0 -1.5 
C -0.397805 -1.5 -0.77937 -1.341951 -1.06066 -1.06066 
C -1.341951 -0.77937 -1.5 -0.397805 -1.5 0 
C -1.5 0.397805 -1.341951 0.77937 -1.06066 1.06066 
C -0.77937 1.341951 -0.397805 1.5 0 1.5 
z
" id="m3547a1c8e1" style="stroke:#ff7500;"/>
    </defs>
    <g>
     <use style="fill:#ff7500;stroke:#ff7500;" x="249.016054" xlink:href="#m3547a1c8e1" y="6.381624"/>
     <use style="fill:#ff7500;stroke:#ff7500;" x="249.016054" xlink:href="#m3547a1c8e1" y="6.381624"/>
    </g>
   </g>
   <g id="line2d_40">
    <path d="M 81.775977 298.944 
L 81.775977 297.041155 
L 84.464254 297.041155 
L 84.464254 293.235466 
L 86.792945 293.235466 
L 86.792945 292.284043 
L 88.846997 292.284043 
L 88.846997 290.381199 
L 90.684409 290.381199 
L 90.684409 288.954065 
L 92.34655 288.954065 
L 92.34655 282.76982 
L 93.863965 282.76982 
L 93.863965 279.915553 
L 95.259853 279.915553 
L 95.259853 274.207019 
L 96.552242 274.207019 
L 96.552242 272.304174 
L 97.755429 272.304174 
L 97.755429 264.217084 
L 98.880934 264.217084 
L 98.880934 258.50855 
L 99.938184 258.50855 
L 99.938184 252.800015 
L 100.934985 252.800015 
L 100.934985 245.664348 
L 101.877879 245.664348 
L 101.877879 241.382947 
L 102.772397 241.382947 
L 102.772397 232.344435 
L 103.623262 232.344435 
L 103.623262 218.54881 
L 104.434538 218.54881 
L 104.434538 210.937432 
L 105.209745 210.937432 
L 105.209745 199.996074 
L 105.951954 199.996074 
L 105.951954 197.141807 
L 106.66386 197.141807 
L 106.66386 189.530428 
L 107.347841 189.530428 
L 107.347841 184.773317 
L 108.006005 184.773317 
L 108.006005 180.016205 
L 108.640231 180.016205 
L 108.640231 177.161938 
L 109.252198 177.161938 
L 109.252198 170.977692 
L 109.843417 170.977692 
L 109.843417 166.696292 
L 110.415248 166.696292 
L 110.415248 159.084913 
L 110.968922 159.084913 
L 110.968922 148.143556 
L 111.505558 148.143556 
L 111.505558 146.240711 
L 112.026172 146.240711 
L 112.026172 139.105043 
L 112.531694 139.105043 
L 112.531694 129.115108 
L 113.022974 129.115108 
L 113.022974 123.406574 
L 113.500792 123.406574 
L 113.500792 116.746618 
L 113.965867 116.746618 
L 113.965867 116.270907 
L 114.418861 116.270907 
L 114.418861 111.989506 
L 114.860386 111.989506 
L 114.860386 109.135239 
L 115.291007 109.135239 
L 115.291007 100.096726 
L 115.711251 100.096726 
L 115.711251 99.145304 
L 116.522527 99.145304 
L 116.522527 97.71817 
L 116.914437 97.71817 
L 116.914437 96.291037 
L 117.297733 96.291037 
L 117.297733 95.815326 
L 117.672786 95.815326 
L 117.672786 95.339615 
L 118.039942 95.339615 
L 118.039942 92.485348 
L 118.399528 92.485348 
L 118.399528 91.058214 
L 118.751849 91.058214 
L 118.751849 89.63108 
L 119.097192 89.63108 
L 119.097192 89.155369 
L 119.768017 89.155369 
L 119.768017 88.679658 
L 120.41399 88.679658 
L 120.41399 88.203947 
L 120.728219 88.203947 
L 120.728219 87.252525 
L 171.603625 87.252525 
L 171.704381 85.34968 
L 171.771231 85.34968 
L 171.787903 82.495413 
L 171.920711 82.495413 
L 171.953756 81.54399 
L 183.424323 81.54399 
L 183.53513 76.786879 
L 183.552115 76.786879 
L 183.594505 73.4569 
L 184.614108 73.4569 
L 184.614108 72.505478 
L 190.390997 72.505478 
L 190.493918 64.418388 
L 190.505316 64.418388 
L 190.533779 61.564121 
L 195.396492 61.564121 
L 195.422297 58.234142 
L 199.275901 58.234142 
L 199.330941 54.904164 
L 202.434485 54.904164 
L 202.471816 49.671341 
L 205.11393 49.671341 
L 205.138565 45.865652 
L 206.232269 45.865652 
L 206.232269 44.914229 
L 207.426282 44.914229 
L 207.441389 41.10854 
L 209.487769 41.10854 
L 209.57961 40.157118 
L 211.306082 40.157118 
L 211.321631 37.302851 
L 212.114961 37.302851 
L 212.123209 36.351428 
L 213.038085 36.351428 
L 213.069358 34.924295 
L 214.490823 34.924295 
L 214.549044 33.02145 
L 214.74385 33.02145 
L 214.74385 32.545739 
L 215.152027 32.545739 
L 215.152027 32.070028 
L 215.934827 32.070028 
L 215.934827 31.594316 
L 216.488626 31.594316 
L 216.496329 28.740049 
L 217.163047 28.740049 
L 217.232092 26.361493 
L 217.734221 26.361493 
L 217.740198 24.93436 
L 218.892835 24.93436 
L 218.896191 23.982937 
L 219.020461 23.982937 
L 219.020461 23.507226 
L 220.037488 23.507226 
L 220.037488 23.031515 
L 220.239558 23.031515 
L 220.239558 22.555804 
L 221.118509 22.555804 
L 221.121463 21.604382 
L 221.604988 21.604382 
L 221.604988 21.12867 
L 222.406467 21.12867 
L 222.406467 20.652959 
L 222.902815 20.652959 
L 222.968471 19.701537 
L 223.313945 19.701537 
L 223.319154 18.274403 
L 223.572054 18.274403 
L 223.572054 17.798692 
L 223.824291 17.798692 
L 223.824291 17.322981 
L 225.435153 17.322981 
L 225.435153 16.84727 
L 226.188938 16.84727 
L 226.188938 16.371559 
L 226.668935 16.371559 
L 226.668935 15.895847 
L 226.95558 15.895847 
L 226.95558 15.420136 
L 227.689934 15.420136 
L 227.689934 14.944425 
L 228.591054 14.944425 
L 228.591054 14.468714 
L 229.283743 14.468714 
L 229.283743 13.993003 
L 230.449239 13.993003 
L 230.449239 13.517291 
L 231.862373 13.517291 
L 231.862373 13.04158 
L 232.681467 13.04158 
L 232.681467 12.565869 
L 233.424955 12.565869 
L 233.424955 12.090158 
L 233.678128 12.090158 
L 233.678128 11.614447 
L 235.075932 11.614447 
L 235.075932 11.138736 
L 235.887388 11.138736 
L 235.887388 10.663024 
L 236.316084 10.663024 
L 236.316084 10.187313 
L 238.807705 10.187313 
L 238.807705 9.711602 
L 240.411738 9.711602 
L 240.411738 9.235891 
L 242.737192 9.235891 
L 242.737192 8.76018 
L 243.699286 8.76018 
L 243.699286 8.284468 
L 244.840093 8.284468 
L 244.840093 7.808757 
L 245.330513 7.808757 
L 245.330513 7.333046 
L 248.793905 7.333046 
L 248.793905 6.857335 
L 249.016054 6.857335 
L 249.016054 6.381624 
L 338.688 6.381624 
L 338.688 6.381624 
" style="fill:none;stroke:#ff7500;stroke-linecap:square;stroke-width:1.5;"/>
   </g>
   <g id="line2d_41">
    <defs>
     <path d="M 0 -6 
L -1.347084 -1.854102 
L -5.706339 -1.854102 
L -2.179628 0.708204 
L -3.526712 4.854102 
L -0 2.291796 
L 3.526712 4.854102 
L 2.179628 0.708204 
L 5.706339 -1.854102 
L 1.347084 -1.854102 
z
" id="m6172854ec3" style="stroke:#ff7500;stroke-linejoin:bevel;stroke-width:1.5;"/>
    </defs>
    <g>
     <use style="fill-opacity:0;stroke:#ff7500;stroke-linejoin:bevel;stroke-width:1.5;" x="110.968922" xlink:href="#m6172854ec3" y="159.084913"/>
     <use style="fill-opacity:0;stroke:#ff7500;stroke-linejoin:bevel;stroke-width:1.5;" x="184.614108" xlink:href="#m6172854ec3" y="73.4569"/>
     <use style="fill-opacity:0;stroke:#ff7500;stroke-linejoin:bevel;stroke-width:1.5;" x="249.016054" xlink:href="#m6172854ec3" y="6.857335"/>
     <use style="fill-opacity:0;stroke:#ff7500;stroke-linejoin:bevel;stroke-width:1.5;" x="249.016054" xlink:href="#m6172854ec3" y="6.381624"/>
     <use style="fill-opacity:0;stroke:#ff7500;stroke-linejoin:bevel;stroke-width:1.5;" x="338.688" xlink:href="#m6172854ec3" y="6.381624"/>
    </g>
   </g>
   <g id="line2d_42">
    <path style="fill:none;stroke:#ff7500;stroke-linecap:square;stroke-width:1.5;"/>
    <g/>
   </g>
   <g id="line2d_43">
    <path clip-path="url(#p31e12497d8)" d="M 207.471564 41.10854 
" style="fill:none;stroke:#ff7500;stroke-linecap:square;stroke-width:1.5;"/>
    <defs>
     <path d="M -12 12 
L 12 -12 
M -12 -12 
L 12 12 
" id="m61df524680" style="stroke:#ff7500;"/>
    </defs>
    <g clip-path="url(#p31e12497d8)">
     <use style="fill:#ff7500;stroke:#ff7500;" x="207.471564" xlink:href="#m61df524680" y="41.10854"/>
    </g>
   </g>
   <g id="line2d_44">
    <defs>
     <path d="M 0 1.5 
C 0.397805 1.5 0.77937 1.341951 1.06066 1.06066 
C 1.341951 0.77937 1.5 0.397805 1.5 0 
C 1.5 -0.397805 1.341951 -0.77937 1.06066 -1.06066 
C 0.77937 -1.341951 0.397805 -1.5 0 -1.5 
C -0.397805 -1.5 -0.77937 -1.341951 -1.06066 -1.06066 
C -1.341951 -0.77937 -1.5 -0.397805 -1.5 0 
C -1.5 0.397805 -1.341951 0.77937 -1.06066 1.06066 
C -0.77937 1.341951 -0.397805 1.5 0 1.5 
z
" id="m66973e0255" style="stroke:#6495ed;"/>
    </defs>
    <g>
     <use style="fill:#6495ed;stroke:#6495ed;" x="144.669057" xlink:href="#m66973e0255" y="6.381624"/>
     <use style="fill:#6495ed;stroke:#6495ed;" x="144.669057" xlink:href="#m66973e0255" y="6.381624"/>
    </g>
   </g>
   <g id="line2d_45">
    <path d="M 84.464254 298.944 
L 84.464254 297.041155 
L 88.846997 297.041155 
L 88.846997 296.089733 
L 90.684409 296.089733 
L 90.684409 292.759755 
L 92.34655 292.759755 
L 92.34655 289.905488 
L 93.863965 289.905488 
L 93.863965 287.526932 
L 95.259853 287.526932 
L 95.259853 285.624087 
L 96.552242 285.624087 
L 96.552242 278.96413 
L 97.755429 278.96413 
L 97.755429 274.207019 
L 98.880934 274.207019 
L 98.880934 268.974196 
L 99.938184 268.974196 
L 99.938184 261.362817 
L 100.934985 261.362817 
L 100.934985 256.129994 
L 101.877879 256.129994 
L 101.877879 252.324304 
L 102.772397 252.324304 
L 102.772397 241.382947 
L 103.623262 241.382947 
L 103.623262 221.878789 
L 104.434538 221.878789 
L 104.434538 211.413143 
L 105.209745 211.413143 
L 105.209745 205.228897 
L 105.951954 205.228897 
L 105.951954 194.28754 
L 106.66386 194.28754 
L 106.66386 183.821894 
L 107.347841 183.821894 
L 107.347841 171.929115 
L 108.006005 171.929115 
L 108.006005 162.890602 
L 108.640231 162.890602 
L 108.640231 155.754935 
L 109.252198 155.754935 
L 109.252198 143.862155 
L 109.843417 143.862155 
L 109.843417 140.056466 
L 110.415248 140.056466 
L 110.415248 134.347931 
L 110.968922 134.347931 
L 110.968922 125.309419 
L 111.505558 125.309419 
L 111.505558 118.173751 
L 112.026172 118.173751 
L 112.026172 112.940928 
L 112.531694 112.940928 
L 112.531694 107.232394 
L 113.022974 107.232394 
L 113.022974 101.52386 
L 113.500792 101.52386 
L 113.500792 98.193882 
L 113.965867 98.193882 
L 113.965867 89.63108 
L 114.418861 89.63108 
L 114.418861 83.446835 
L 114.860386 83.446835 
L 114.860386 79.165434 
L 115.291007 79.165434 
L 115.291007 76.311167 
L 115.711251 76.311167 
L 115.711251 70.126922 
L 116.121606 70.126922 
L 116.121606 60.612698 
L 116.522527 60.612698 
L 116.522527 54.904164 
L 116.914437 54.904164 
L 116.914437 53.001319 
L 117.297733 53.001319 
L 117.297733 49.19563 
L 117.672786 49.19563 
L 117.672786 42.535674 
L 118.039942 42.535674 
L 118.039942 37.778562 
L 118.399528 37.778562 
L 118.399528 33.972872 
L 118.751849 33.972872 
L 118.751849 28.264338 
L 119.097192 28.264338 
L 119.097192 26.837205 
L 119.43583 26.837205 
L 119.43583 23.031515 
L 119.768017 23.031515 
L 119.768017 22.555804 
L 120.728219 22.555804 
L 120.728219 21.12867 
L 121.036887 21.12867 
L 121.036887 20.177248 
L 121.638301 20.177248 
L 121.638301 19.701537 
L 121.931406 19.701537 
L 121.931406 19.225826 
L 122.503236 19.225826 
L 122.503236 18.750114 
L 123.056911 18.750114 
L 123.056911 18.274403 
L 123.327293 18.274403 
L 123.327293 17.322981 
L 123.593547 17.322981 
L 123.593547 16.84727 
L 123.855796 16.84727 
L 123.855796 16.371559 
L 124.368753 16.371559 
L 124.368753 15.895847 
L 124.619683 15.895847 
L 124.619683 15.420136 
L 125.351508 15.420136 
L 125.351508 13.993003 
L 126.948374 13.993003 
L 126.948374 13.517291 
L 127.378995 13.517291 
L 127.378995 12.565869 
L 128.209594 12.565869 
L 128.209594 12.090158 
L 128.610515 12.090158 
L 128.610515 11.138736 
L 129.195127 11.138736 
L 129.195127 10.663024 
L 131.013364 10.663024 
L 131.013364 10.187313 
L 131.355321 10.187313 
L 131.355321 9.711602 
L 131.856005 9.711602 
L 131.856005 9.235891 
L 135.144899 9.235891 
L 135.144899 8.76018 
L 136.831795 8.76018 
L 136.831795 8.284468 
L 137.910857 8.284468 
L 137.910857 7.808757 
L 141.187031 7.808757 
L 141.283115 6.857335 
L 144.669057 6.857335 
L 144.669057 6.381624 
L 338.688 6.381624 
L 338.688 6.381624 
" style="fill:none;stroke:#6495ed;stroke-linecap:square;stroke-width:1.5;"/>
   </g>
   <g id="line2d_46">
    <defs>
     <path d="M -0 6 
L 6 -6 
L -6 -6 
z
" id="me52d1120e0" style="stroke:#6495ed;stroke-linejoin:miter;stroke-width:1.5;"/>
    </defs>
    <g>
     <use style="fill-opacity:0;stroke:#6495ed;stroke-linejoin:miter;stroke-width:1.5;" x="114.860386" xlink:href="#me52d1120e0" y="79.165434"/>
     <use style="fill-opacity:0;stroke:#6495ed;stroke-linejoin:miter;stroke-width:1.5;" x="144.669057" xlink:href="#me52d1120e0" y="6.857335"/>
     <use style="fill-opacity:0;stroke:#6495ed;stroke-linejoin:miter;stroke-width:1.5;" x="144.669057" xlink:href="#me52d1120e0" y="6.381624"/>
     <use style="fill-opacity:0;stroke:#6495ed;stroke-linejoin:miter;stroke-width:1.5;" x="144.669057" xlink:href="#me52d1120e0" y="6.381624"/>
     <use style="fill-opacity:0;stroke:#6495ed;stroke-linejoin:miter;stroke-width:1.5;" x="338.688" xlink:href="#me52d1120e0" y="6.381624"/>
    </g>
   </g>
   <g id="line2d_47">
    <path style="fill:none;stroke:#6495ed;stroke-linecap:square;stroke-width:1.5;"/>
    <g/>
   </g>
   <g id="line2d_48">
    <path d="M 338.688 63.466965 
L 369.60768 293.092752 
" style="fill:none;stroke:#000080;stroke-linecap:square;stroke-width:1.5;"/>
    <g>
     <use style="fill-opacity:0;stroke:#000080;stroke-width:1.5;" x="338.688" xlink:href="#mc5bd4ef6c6" y="63.466965"/>
     <use style="fill-opacity:0;stroke:#000080;stroke-width:1.5;" x="369.60768" xlink:href="#mc5bd4ef6c6" y="293.092752"/>
    </g>
   </g>
   <g id="line2d_49">
    <path d="M 338.688 34.924295 
L 369.60768 199.472792 
" style="fill:none;stroke:#ff00ff;stroke-linecap:square;stroke-width:1.5;"/>
    <g>
     <use style="fill-opacity:0;stroke:#ff00ff;stroke-linejoin:miter;stroke-width:1.5;" x="338.688" xlink:href="#m29af5d53cd" y="34.924295"/>
     <use style="fill-opacity:0;stroke:#ff00ff;stroke-linejoin:miter;stroke-width:1.5;" x="369.60768" xlink:href="#m29af5d53cd" y="199.472792"/>
    </g>
   </g>
   <g id="line2d_50">
    <path d="M 338.688 6.381624 
L 369.60768 105.852832 
" style="fill:none;stroke:#ff7500;stroke-linecap:square;stroke-width:1.5;"/>
    <g>
     <use style="fill-opacity:0;stroke:#ff7500;stroke-linejoin:bevel;stroke-width:1.5;" x="338.688" xlink:href="#m6172854ec3" y="6.381624"/>
     <use style="fill-opacity:0;stroke:#ff7500;stroke-linejoin:bevel;stroke-width:1.5;" x="369.60768" xlink:href="#m6172854ec3" y="105.852832"/>
    </g>
   </g>
   <g id="line2d_51">
    <path d="M 338.688 6.381624 
L 369.60768 12.232871 
" style="fill:none;stroke:#6495ed;stroke-linecap:square;stroke-width:1.5;"/>
    <g>
     <use style="fill-opacity:0;stroke:#6495ed;stroke-linejoin:miter;stroke-width:1.5;" x="338.688" xlink:href="#me52d1120e0" y="6.381624"/>
     <use style="fill-opacity:0;stroke:#6495ed;stroke-linejoin:miter;stroke-width:1.5;" x="369.60768" xlink:href="#me52d1120e0" y="12.232871"/>
    </g>
   </g>
   <g id="line2d_52">
    <path d="M 338.688 298.944 
L 338.688 6.381624 
" style="fill:none;stroke:#000000;stroke-linecap:square;stroke-width:1.5;"/>
   </g>
   <g id="patch_3">
    <path d="M 57.6 298.944 
L 57.6 3.456 
" style="fill:none;stroke:#000000;stroke-linecap:square;stroke-linejoin:miter;stroke-width:0.8;"/>
   </g>
   <g id="patch_4">
    <path d="M 338.688 298.944 
L 338.688 3.456 
" style="fill:none;stroke:#000000;stroke-linecap:square;stroke-linejoin:miter;stroke-width:0.8;"/>
   </g>
   <g id="patch_5">
    <path d="M 57.6 298.944 
L 338.688 298.944 
" style="fill:none;stroke:#000000;stroke-linecap:square;stroke-linejoin:miter;stroke-width:0.8;"/>
   </g>
   <g id="patch_6">
    <path d="M 57.6 3.456 
L 338.688 3.456 
" style="fill:none;stroke:#000000;stroke-linecap:square;stroke-linejoin:miter;stroke-width:0.8;"/>
   </g>
   <g id="text_13">
    <!-- f19 -->
    <g transform="translate(375.22944 297.78369)scale(0.17 -0.17)">
     <defs>
      <path d="M 10.984375 1.515625 
L 10.984375 10.5 
Q 14.703125 8.734375 18.5 7.8125 
Q 22.3125 6.890625 25.984375 6.890625 
Q 35.75 6.890625 40.890625 13.453125 
Q 46.046875 20.015625 46.78125 33.40625 
Q 43.953125 29.203125 39.59375 26.953125 
Q 35.25 24.703125 29.984375 24.703125 
Q 19.046875 24.703125 12.671875 31.3125 
Q 6.296875 37.9375 6.296875 49.421875 
Q 6.296875 60.640625 12.9375 67.421875 
Q 19.578125 74.21875 30.609375 74.21875 
Q 43.265625 74.21875 49.921875 64.515625 
Q 56.59375 54.828125 56.59375 36.375 
Q 56.59375 19.140625 48.40625 8.859375 
Q 40.234375 -1.421875 26.421875 -1.421875 
Q 22.703125 -1.421875 18.890625 -0.6875 
Q 15.09375 0.046875 10.984375 1.515625 
z
M 30.609375 32.421875 
Q 37.25 32.421875 41.125 36.953125 
Q 45.015625 41.5 45.015625 49.421875 
Q 45.015625 57.28125 41.125 61.84375 
Q 37.25 66.40625 30.609375 66.40625 
Q 23.96875 66.40625 20.09375 61.84375 
Q 16.21875 57.28125 16.21875 49.421875 
Q 16.21875 41.5 20.09375 36.953125 
Q 23.96875 32.421875 30.609375 32.421875 
z
" id="DejaVuSans-57"/>
     </defs>
     <use xlink:href="#DejaVuSans-102"/>
     <use x="35.205078" xlink:href="#DejaVuSans-49"/>
     <use x="98.828125" xlink:href="#DejaVuSans-57"/>
    </g>
   </g>
   <g id="text_14">
    <!-- f25 -->
    <g transform="translate(375.22944 204.16373)scale(0.17 -0.17)">
     <defs>
      <path d="M 10.796875 72.90625 
L 49.515625 72.90625 
L 49.515625 64.59375 
L 19.828125 64.59375 
L 19.828125 46.734375 
Q 21.96875 47.46875 24.109375 47.828125 
Q 26.265625 48.1875 28.421875 48.1875 
Q 40.625 48.1875 47.75 41.5 
Q 54.890625 34.8125 54.890625 23.390625 
Q 54.890625 11.625 47.5625 5.09375 
Q 40.234375 -1.421875 26.90625 -1.421875 
Q 22.3125 -1.421875 17.546875 -0.640625 
Q 12.796875 0.140625 7.71875 1.703125 
L 7.71875 11.625 
Q 12.109375 9.234375 16.796875 8.0625 
Q 21.484375 6.890625 26.703125 6.890625 
Q 35.15625 6.890625 40.078125 11.328125 
Q 45.015625 15.765625 45.015625 23.390625 
Q 45.015625 31 40.078125 35.4375 
Q 35.15625 39.890625 26.703125 39.890625 
Q 22.75 39.890625 18.8125 39.015625 
Q 14.890625 38.140625 10.796875 36.28125 
z
" id="DejaVuSans-53"/>
     </defs>
     <use xlink:href="#DejaVuSans-102"/>
     <use x="35.205078" xlink:href="#DejaVuSans-50"/>
     <use x="98.828125" xlink:href="#DejaVuSans-53"/>
    </g>
   </g>
   <g id="text_15">
    <!-- f31 -->
    <g transform="translate(375.22944 110.543769)scale(0.17 -0.17)">
     <defs>
      <path d="M 40.578125 39.3125 
Q 47.65625 37.796875 51.625 33 
Q 55.609375 28.21875 55.609375 21.1875 
Q 55.609375 10.40625 48.1875 4.484375 
Q 40.765625 -1.421875 27.09375 -1.421875 
Q 22.515625 -1.421875 17.65625 -0.515625 
Q 12.796875 0.390625 7.625 2.203125 
L 7.625 11.71875 
Q 11.71875 9.328125 16.59375 8.109375 
Q 21.484375 6.890625 26.8125 6.890625 
Q 36.078125 6.890625 40.9375 10.546875 
Q 45.796875 14.203125 45.796875 21.1875 
Q 45.796875 27.640625 41.28125 31.265625 
Q 36.765625 34.90625 28.71875 34.90625 
L 20.21875 34.90625 
L 20.21875 43.015625 
L 29.109375 43.015625 
Q 36.375 43.015625 40.234375 45.921875 
Q 44.09375 48.828125 44.09375 54.296875 
Q 44.09375 59.90625 40.109375 62.90625 
Q 36.140625 65.921875 28.71875 65.921875 
Q 24.65625 65.921875 20.015625 65.03125 
Q 15.375 64.15625 9.8125 62.3125 
L 9.8125 71.09375 
Q 15.4375 72.65625 20.34375 73.4375 
Q 25.25 74.21875 29.59375 74.21875 
Q 40.828125 74.21875 47.359375 69.109375 
Q 53.90625 64.015625 53.90625 55.328125 
Q 53.90625 49.265625 50.4375 45.09375 
Q 46.96875 40.921875 40.578125 39.3125 
z
" id="DejaVuSans-51"/>
     </defs>
     <use xlink:href="#DejaVuSans-102"/>
     <use x="35.205078" xlink:href="#DejaVuSans-51"/>
     <use x="98.828125" xlink:href="#DejaVuSans-49"/>
    </g>
   </g>
   <g id="text_16">
    <!-- f37 -->
    <g transform="translate(375.22944 16.923809)scale(0.17 -0.17)">
     <defs>
      <path d="M 8.203125 72.90625 
L 55.078125 72.90625 
L 55.078125 68.703125 
L 28.609375 0 
L 18.3125 0 
L 43.21875 64.59375 
L 8.203125 64.59375 
z
" id="DejaVuSans-55"/>
     </defs>
     <use xlink:href="#DejaVuSans-102"/>
     <use x="35.205078" xlink:href="#DejaVuSans-51"/>
     <use x="98.828125" xlink:href="#DejaVuSans-55"/>
    </g>
   </g>
   <g id="text_17">
    <!-- bbob-constrained -->
    <g transform="translate(60.41088 14.161286)scale(0.102 -0.102)">
     <defs>
      <path d="M 48.6875 27.296875 
Q 48.6875 37.203125 44.609375 42.84375 
Q 40.53125 48.484375 33.40625 48.484375 
Q 26.265625 48.484375 22.1875 42.84375 
Q 18.109375 37.203125 18.109375 27.296875 
Q 18.109375 17.390625 22.1875 11.75 
Q 26.265625 6.109375 33.40625 6.109375 
Q 40.53125 6.109375 44.609375 11.75 
Q 48.6875 17.390625 48.6875 27.296875 
z
M 18.109375 46.390625 
Q 20.953125 51.265625 25.265625 53.625 
Q 29.59375 56 35.59375 56 
Q 45.5625 56 51.78125 48.09375 
Q 58.015625 40.1875 58.015625 27.296875 
Q 58.015625 14.40625 51.78125 6.484375 
Q 45.5625 -1.421875 35.59375 -1.421875 
Q 29.59375 -1.421875 25.265625 0.953125 
Q 20.953125 3.328125 18.109375 8.203125 
L 18.109375 0 
L 9.078125 0 
L 9.078125 75.984375 
L 18.109375 75.984375 
z
" id="DejaVuSans-98"/>
     </defs>
     <use xlink:href="#DejaVuSans-98"/>
     <use x="63.476562" xlink:href="#DejaVuSans-98"/>
     <use x="126.953125" xlink:href="#DejaVuSans-111"/>
     <use x="188.134766" xlink:href="#DejaVuSans-98"/>
     <use x="251.611328" xlink:href="#DejaVuSans-45"/>
     <use x="287.695312" xlink:href="#DejaVuSans-99"/>
     <use x="342.675781" xlink:href="#DejaVuSans-111"/>
     <use x="403.857422" xlink:href="#DejaVuSans-110"/>
     <use x="467.236328" xlink:href="#DejaVuSans-115"/>
     <use x="519.335938" xlink:href="#DejaVuSans-116"/>
     <use x="558.544922" xlink:href="#DejaVuSans-114"/>
     <use x="599.658203" xlink:href="#DejaVuSans-97"/>
     <use x="660.9375" xlink:href="#DejaVuSans-105"/>
     <use x="688.720703" xlink:href="#DejaVuSans-110"/>
     <use x="752.099609" xlink:href="#DejaVuSans-101"/>
     <use x="813.623047" xlink:href="#DejaVuSans-100"/>
    </g>
    <!-- Ill-conditioned functions with0n+1constraints, 3-D -->
    <g transform="translate(60.41088 25.583055)scale(0.102 -0.102)">
     <defs>
      <path d="M 9.8125 72.90625 
L 19.671875 72.90625 
L 19.671875 0 
L 9.8125 0 
z
" id="DejaVuSans-73"/>
      <path d="M 4.203125 54.6875 
L 13.1875 54.6875 
L 24.421875 12.015625 
L 35.59375 54.6875 
L 46.1875 54.6875 
L 57.421875 12.015625 
L 68.609375 54.6875 
L 77.59375 54.6875 
L 63.28125 0 
L 52.6875 0 
L 40.921875 44.828125 
L 29.109375 0 
L 18.5 0 
z
" id="DejaVuSans-119"/>
      <path d="M 54.890625 33.015625 
L 54.890625 0 
L 45.90625 0 
L 45.90625 32.71875 
Q 45.90625 40.484375 42.875 44.328125 
Q 39.84375 48.1875 33.796875 48.1875 
Q 26.515625 48.1875 22.3125 43.546875 
Q 18.109375 38.921875 18.109375 30.90625 
L 18.109375 0 
L 9.078125 0 
L 9.078125 75.984375 
L 18.109375 75.984375 
L 18.109375 46.1875 
Q 21.34375 51.125 25.703125 53.5625 
Q 30.078125 56 35.796875 56 
Q 45.21875 56 50.046875 50.171875 
Q 54.890625 44.34375 54.890625 33.015625 
z
" id="DejaVuSans-104"/>
      <path d="M 19.671875 64.796875 
L 19.671875 8.109375 
L 31.59375 8.109375 
Q 46.6875 8.109375 53.6875 14.9375 
Q 60.6875 21.78125 60.6875 36.53125 
Q 60.6875 51.171875 53.6875 57.984375 
Q 46.6875 64.796875 31.59375 64.796875 
z
M 9.8125 72.90625 
L 30.078125 72.90625 
Q 51.265625 72.90625 61.171875 64.09375 
Q 71.09375 55.28125 71.09375 36.53125 
Q 71.09375 17.671875 61.125 8.828125 
Q 51.171875 0 30.078125 0 
L 9.8125 0 
z
" id="DejaVuSans-68"/>
     </defs>
     <use xlink:href="#DejaVuSans-73"/>
     <use x="29.492188" xlink:href="#DejaVuSans-108"/>
     <use x="57.275391" xlink:href="#DejaVuSans-108"/>
     <use x="85.058594" xlink:href="#DejaVuSans-45"/>
     <use x="121.142578" xlink:href="#DejaVuSans-99"/>
     <use x="176.123047" xlink:href="#DejaVuSans-111"/>
     <use x="237.304688" xlink:href="#DejaVuSans-110"/>
     <use x="300.683594" xlink:href="#DejaVuSans-100"/>
     <use x="364.160156" xlink:href="#DejaVuSans-105"/>
     <use x="391.943359" xlink:href="#DejaVuSans-116"/>
     <use x="431.152344" xlink:href="#DejaVuSans-105"/>
     <use x="458.935547" xlink:href="#DejaVuSans-111"/>
     <use x="520.117188" xlink:href="#DejaVuSans-110"/>
     <use x="583.496094" xlink:href="#DejaVuSans-101"/>
     <use x="645.019531" xlink:href="#DejaVuSans-100"/>
     <use x="708.496094" xlink:href="#DejaVuSans-32"/>
     <use x="740.283203" xlink:href="#DejaVuSans-102"/>
     <use x="775.488281" xlink:href="#DejaVuSans-117"/>
     <use x="838.867188" xlink:href="#DejaVuSans-110"/>
     <use x="902.246094" xlink:href="#DejaVuSans-99"/>
     <use x="957.226562" xlink:href="#DejaVuSans-116"/>
     <use x="996.435547" xlink:href="#DejaVuSans-105"/>
     <use x="1024.21875" xlink:href="#DejaVuSans-111"/>
     <use x="1085.400391" xlink:href="#DejaVuSans-110"/>
     <use x="1148.779297" xlink:href="#DejaVuSans-115"/>
     <use x="1200.878906" xlink:href="#DejaVuSans-32"/>
     <use x="1232.666016" xlink:href="#DejaVuSans-119"/>
     <use x="1314.453125" xlink:href="#DejaVuSans-105"/>
     <use x="1342.236328" xlink:href="#DejaVuSans-116"/>
     <use x="1381.445312" xlink:href="#DejaVuSans-104"/>
     <use x="1444.824219" xlink:href="#DejaVuSans-48"/>
     <use x="1508.447266" xlink:href="#DejaVuSans-110"/>
     <use x="1571.826172" xlink:href="#DejaVuSans-43"/>
     <use x="1655.615234" xlink:href="#DejaVuSans-49"/>
     <use x="1719.238281" xlink:href="#DejaVuSans-99"/>
     <use x="1774.21875" xlink:href="#DejaVuSans-111"/>
     <use x="1835.400391" xlink:href="#DejaVuSans-110"/>
     <use x="1898.779297" xlink:href="#DejaVuSans-115"/>
     <use x="1950.878906" xlink:href="#DejaVuSans-116"/>
     <use x="1990.087891" xlink:href="#DejaVuSans-114"/>
     <use x="2031.201172" xlink:href="#DejaVuSans-97"/>
     <use x="2092.480469" xlink:href="#DejaVuSans-105"/>
     <use x="2120.263672" xlink:href="#DejaVuSans-110"/>
     <use x="2183.642578" xlink:href="#DejaVuSans-116"/>
     <use x="2222.851562" xlink:href="#DejaVuSans-115"/>
     <use x="2274.951172" xlink:href="#DejaVuSans-44"/>
     <use x="2306.738281" xlink:href="#DejaVuSans-32"/>
     <use x="2338.525391" xlink:href="#DejaVuSans-51"/>
     <use x="2402.148438" xlink:href="#DejaVuSans-45"/>
     <use x="2438.232422" xlink:href="#DejaVuSans-68"/>
    </g>
    <!-- 41 targets: 100..1e-06 -->
    <g transform="translate(60.41088 37.004824)scale(0.102 -0.102)">
     <defs>
      <path d="M 11.71875 12.40625 
L 22.015625 12.40625 
L 22.015625 0 
L 11.71875 0 
z
M 11.71875 51.703125 
L 22.015625 51.703125 
L 22.015625 39.3125 
L 11.71875 39.3125 
z
" id="DejaVuSans-58"/>
     </defs>
     <use xlink:href="#DejaVuSans-52"/>
     <use x="63.623047" xlink:href="#DejaVuSans-49"/>
     <use x="127.246094" xlink:href="#DejaVuSans-32"/>
     <use x="159.033203" xlink:href="#DejaVuSans-116"/>
     <use x="198.242188" xlink:href="#DejaVuSans-97"/>
     <use x="259.521484" xlink:href="#DejaVuSans-114"/>
     <use x="298.884766" xlink:href="#DejaVuSans-103"/>
     <use x="362.361328" xlink:href="#DejaVuSans-101"/>
     <use x="423.884766" xlink:href="#DejaVuSans-116"/>
     <use x="463.09375" xlink:href="#DejaVuSans-115"/>
     <use x="515.193359" xlink:href="#DejaVuSans-58"/>
     <use x="548.884766" xlink:href="#DejaVuSans-32"/>
     <use x="580.671875" xlink:href="#DejaVuSans-49"/>
     <use x="644.294922" xlink:href="#DejaVuSans-48"/>
     <use x="707.917969" xlink:href="#DejaVuSans-48"/>
     <use x="771.541016" xlink:href="#DejaVuSans-46"/>
     <use x="803.328125" xlink:href="#DejaVuSans-46"/>
     <use x="835.115234" xlink:href="#DejaVuSans-49"/>
     <use x="898.738281" xlink:href="#DejaVuSans-101"/>
     <use x="960.261719" xlink:href="#DejaVuSans-45"/>
     <use x="996.345703" xlink:href="#DejaVuSans-48"/>
     <use x="1059.96875" xlink:href="#DejaVuSans-54"/>
    </g>
    <!-- 15 instances -->
    <g transform="translate(60.41088 48.426593)scale(0.102 -0.102)">
     <use xlink:href="#DejaVuSans-49"/>
     <use x="63.623047" xlink:href="#DejaVuSans-53"/>
     <use x="127.246094" xlink:href="#DejaVuSans-32"/>
     <use x="159.033203" xlink:href="#DejaVuSans-105"/>
     <use x="186.816406" xlink:href="#DejaVuSans-110"/>
     <use x="250.195312" xlink:href="#DejaVuSans-115"/>
     <use x="302.294922" xlink:href="#DejaVuSans-116"/>
     <use x="341.503906" xlink:href="#DejaVuSans-97"/>
     <use x="402.783203" xlink:href="#DejaVuSans-110"/>
     <use x="466.162109" xlink:href="#DejaVuSans-99"/>
     <use x="521.142578" xlink:href="#DejaVuSans-101"/>
     <use x="582.666016" xlink:href="#DejaVuSans-115"/>
    </g>
   </g>
   <g id="text_18">
    <!-- v2.4.82 -->
    <g style="fill:#808080;" transform="translate(179.2815 293.909432)scale(0.1 -0.1)">
     <use xlink:href="#DejaVuSans-118"/>
     <use x="59.179688" xlink:href="#DejaVuSans-50"/>
     <use x="122.802734" xlink:href="#DejaVuSans-46"/>
     <use x="154.589844" xlink:href="#DejaVuSans-52"/>
     <use x="218.212891" xlink:href="#DejaVuSans-46"/>
     <use x="250" xlink:href="#DejaVuSans-56"/>
     <use x="313.623047" xlink:href="#DejaVuSans-50"/>
    </g>
   </g>
  </g>
 </g>
 <defs>
  <clipPath id="p31e12497d8">
   <rect height="295.488" width="281.088" x="57.6" y="3.456"/>
  </clipPath>
 </defs>
</svg>
