<?xml version="1.0" encoding="utf-8" standalone="no"?>
<!DOCTYPE svg PUBLIC "-//W3C//DTD SVG 1.1//EN"
  "http://www.w3.org/Graphics/SVG/1.1/DTD/svg11.dtd">
<!-- Created with matplotlib (https://matplotlib.org/) -->
<svg height="345.6pt" version="1.1" viewBox="0 0 460.8 345.6" width="460.8pt" xmlns="http://www.w3.org/2000/svg" xmlns:xlink="http://www.w3.org/1999/xlink">
 <metadata>
  <rdf:RDF xmlns:cc="http://creativecommons.org/ns#" xmlns:dc="http://purl.org/dc/elements/1.1/" xmlns:rdf="http://www.w3.org/1999/02/22-rdf-syntax-ns#">
   <cc:Work>
    <dc:type rdf:resource="http://purl.org/dc/dcmitype/StillImage"/>
    <dc:date>2022-01-12T20:49:05.421206</dc:date>
    <dc:format>image/svg+xml</dc:format>
    <dc:creator>
     <cc:Agent>
      <dc:title>Matplotlib v3.3.3, https://matplotlib.org/</dc:title>
     </cc:Agent>
    </dc:creator>
   </cc:Work>
  </rdf:RDF>
 </metadata>
 <defs>
  <style type="text/css">*{stroke-linecap:butt;stroke-linejoin:round;}</style>
 </defs>
 <g id="figure_1">
  <g id="patch_1">
   <path d="M 0 345.6 
L 460.8 345.6 
L 460.8 0 
L 0 0 
z
" style="fill:#ffffff;"/>
  </g>
  <g id="axes_1">
   <g id="patch_2">
    <path d="M 57.6 298.944 
L 338.688 298.944 
L 338.688 3.456 
L 57.6 3.456 
z
" style="fill:#ffffff;"/>
   </g>
   <g id="matplotlib.axis_1">
    <g id="xtick_1">
     <g id="line2d_1">
      <path clip-path="url(#p5f7c896dc6)" d="M 57.6 298.944 
L 57.6 3.456 
" style="fill:none;stroke:#b0b0b0;stroke-linecap:square;stroke-width:0.8;"/>
     </g>
     <g id="line2d_2">
      <defs>
       <path d="M 0 0 
L 0 3.5 
" id="m846ea01cd7" style="stroke:#000000;stroke-width:0.8;"/>
      </defs>
      <g>
       <use style="stroke:#000000;stroke-width:0.8;" x="57.6" xlink:href="#m846ea01cd7" y="298.944"/>
      </g>
     </g>
     <g id="text_1">
      <!-- 0 -->
      <g transform="translate(51.2375 321.140875)scale(0.2 -0.2)">
       <defs>
        <path d="M 31.78125 66.40625 
Q 24.171875 66.40625 20.328125 58.90625 
Q 16.5 51.421875 16.5 36.375 
Q 16.5 21.390625 20.328125 13.890625 
Q 24.171875 6.390625 31.78125 6.390625 
Q 39.453125 6.390625 43.28125 13.890625 
Q 47.125 21.390625 47.125 36.375 
Q 47.125 51.421875 43.28125 58.90625 
Q 39.453125 66.40625 31.78125 66.40625 
z
M 31.78125 74.21875 
Q 44.046875 74.21875 50.515625 64.515625 
Q 56.984375 54.828125 56.984375 36.375 
Q 56.984375 17.96875 50.515625 8.265625 
Q 44.046875 -1.421875 31.78125 -1.421875 
Q 19.53125 -1.421875 13.0625 8.265625 
Q 6.59375 17.96875 6.59375 36.375 
Q 6.59375 54.828125 13.0625 64.515625 
Q 19.53125 74.21875 31.78125 74.21875 
z
" id="DejaVuSans-48"/>
       </defs>
       <use xlink:href="#DejaVuSans-48"/>
      </g>
     </g>
    </g>
    <g id="xtick_2">
     <g id="line2d_3">
      <path clip-path="url(#p5f7c896dc6)" d="M 137.910857 298.944 
L 137.910857 3.456 
" style="fill:none;stroke:#b0b0b0;stroke-linecap:square;stroke-width:0.8;"/>
     </g>
     <g id="line2d_4">
      <g>
       <use style="stroke:#000000;stroke-width:0.8;" x="137.910857" xlink:href="#m846ea01cd7" y="298.944"/>
      </g>
     </g>
     <g id="text_2">
      <!-- 2 -->
      <g transform="translate(131.548357 321.140875)scale(0.2 -0.2)">
       <defs>
        <path d="M 19.1875 8.296875 
L 53.609375 8.296875 
L 53.609375 0 
L 7.328125 0 
L 7.328125 8.296875 
Q 12.9375 14.109375 22.625 23.890625 
Q 32.328125 33.6875 34.8125 36.53125 
Q 39.546875 41.84375 41.421875 45.53125 
Q 43.3125 49.21875 43.3125 52.78125 
Q 43.3125 58.59375 39.234375 62.25 
Q 35.15625 65.921875 28.609375 65.921875 
Q 23.96875 65.921875 18.8125 64.3125 
Q 13.671875 62.703125 7.8125 59.421875 
L 7.8125 69.390625 
Q 13.765625 71.78125 18.9375 73 
Q 24.125 74.21875 28.421875 74.21875 
Q 39.75 74.21875 46.484375 68.546875 
Q 53.21875 62.890625 53.21875 53.421875 
Q 53.21875 48.921875 51.53125 44.890625 
Q 49.859375 40.875 45.40625 35.40625 
Q 44.1875 33.984375 37.640625 27.21875 
Q 31.109375 20.453125 19.1875 8.296875 
z
" id="DejaVuSans-50"/>
       </defs>
       <use xlink:href="#DejaVuSans-50"/>
      </g>
     </g>
    </g>
    <g id="xtick_3">
     <g id="line2d_5">
      <path clip-path="url(#p5f7c896dc6)" d="M 218.221714 298.944 
L 218.221714 3.456 
" style="fill:none;stroke:#b0b0b0;stroke-linecap:square;stroke-width:0.8;"/>
     </g>
     <g id="line2d_6">
      <g>
       <use style="stroke:#000000;stroke-width:0.8;" x="218.221714" xlink:href="#m846ea01cd7" y="298.944"/>
      </g>
     </g>
     <g id="text_3">
      <!-- 4 -->
      <g transform="translate(211.859214 321.140875)scale(0.2 -0.2)">
       <defs>
        <path d="M 37.796875 64.3125 
L 12.890625 25.390625 
L 37.796875 25.390625 
z
M 35.203125 72.90625 
L 47.609375 72.90625 
L 47.609375 25.390625 
L 58.015625 25.390625 
L 58.015625 17.1875 
L 47.609375 17.1875 
L 47.609375 0 
L 37.796875 0 
L 37.796875 17.1875 
L 4.890625 17.1875 
L 4.890625 26.703125 
z
" id="DejaVuSans-52"/>
       </defs>
       <use xlink:href="#DejaVuSans-52"/>
      </g>
     </g>
    </g>
    <g id="xtick_4">
     <g id="line2d_7">
      <path clip-path="url(#p5f7c896dc6)" d="M 298.532571 298.944 
L 298.532571 3.456 
" style="fill:none;stroke:#b0b0b0;stroke-linecap:square;stroke-width:0.8;"/>
     </g>
     <g id="line2d_8">
      <g>
       <use style="stroke:#000000;stroke-width:0.8;" x="298.532571" xlink:href="#m846ea01cd7" y="298.944"/>
      </g>
     </g>
     <g id="text_4">
      <!-- 6 -->
      <g transform="translate(292.170071 321.140875)scale(0.2 -0.2)">
       <defs>
        <path d="M 33.015625 40.375 
Q 26.375 40.375 22.484375 35.828125 
Q 18.609375 31.296875 18.609375 23.390625 
Q 18.609375 15.53125 22.484375 10.953125 
Q 26.375 6.390625 33.015625 6.390625 
Q 39.65625 6.390625 43.53125 10.953125 
Q 47.40625 15.53125 47.40625 23.390625 
Q 47.40625 31.296875 43.53125 35.828125 
Q 39.65625 40.375 33.015625 40.375 
z
M 52.59375 71.296875 
L 52.59375 62.3125 
Q 48.875 64.0625 45.09375 64.984375 
Q 41.3125 65.921875 37.59375 65.921875 
Q 27.828125 65.921875 22.671875 59.328125 
Q 17.53125 52.734375 16.796875 39.40625 
Q 19.671875 43.65625 24.015625 45.921875 
Q 28.375 48.1875 33.59375 48.1875 
Q 44.578125 48.1875 50.953125 41.515625 
Q 57.328125 34.859375 57.328125 23.390625 
Q 57.328125 12.15625 50.6875 5.359375 
Q 44.046875 -1.421875 33.015625 -1.421875 
Q 20.359375 -1.421875 13.671875 8.265625 
Q 6.984375 17.96875 6.984375 36.375 
Q 6.984375 53.65625 15.1875 63.9375 
Q 23.390625 74.21875 37.203125 74.21875 
Q 40.921875 74.21875 44.703125 73.484375 
Q 48.484375 72.75 52.59375 71.296875 
z
" id="DejaVuSans-54"/>
       </defs>
       <use xlink:href="#DejaVuSans-54"/>
      </g>
     </g>
    </g>
    <g id="xtick_5">
     <g id="line2d_9">
      <path clip-path="url(#p5f7c896dc6)" d="M 97.755429 298.944 
L 97.755429 3.456 
" style="fill:none;stroke:#b0b0b0;stroke-linecap:square;stroke-width:0.8;"/>
     </g>
     <g id="line2d_10">
      <defs>
       <path d="M 0 0 
L 0 2 
" id="m723c32cac4" style="stroke:#000000;stroke-width:0.6;"/>
      </defs>
      <g>
       <use style="stroke:#000000;stroke-width:0.6;" x="97.755429" xlink:href="#m723c32cac4" y="298.944"/>
      </g>
     </g>
    </g>
    <g id="xtick_6">
     <g id="line2d_11">
      <path clip-path="url(#p5f7c896dc6)" d="M 178.066286 298.944 
L 178.066286 3.456 
" style="fill:none;stroke:#b0b0b0;stroke-linecap:square;stroke-width:0.8;"/>
     </g>
     <g id="line2d_12">
      <g>
       <use style="stroke:#000000;stroke-width:0.6;" x="178.066286" xlink:href="#m723c32cac4" y="298.944"/>
      </g>
     </g>
    </g>
    <g id="xtick_7">
     <g id="line2d_13">
      <path clip-path="url(#p5f7c896dc6)" d="M 258.377143 298.944 
L 258.377143 3.456 
" style="fill:none;stroke:#b0b0b0;stroke-linecap:square;stroke-width:0.8;"/>
     </g>
     <g id="line2d_14">
      <g>
       <use style="stroke:#000000;stroke-width:0.6;" x="258.377143" xlink:href="#m723c32cac4" y="298.944"/>
      </g>
     </g>
    </g>
    <g id="xtick_8">
     <g id="line2d_15">
      <path clip-path="url(#p5f7c896dc6)" d="M 338.688 298.944 
L 338.688 3.456 
" style="fill:none;stroke:#b0b0b0;stroke-linecap:square;stroke-width:0.8;"/>
     </g>
     <g id="line2d_16">
      <g>
       <use style="stroke:#000000;stroke-width:0.6;" x="338.688" xlink:href="#m723c32cac4" y="298.944"/>
      </g>
     </g>
    </g>
    <g id="text_5">
     <!-- log10(# (f+g)-evals / dimension) -->
     <g transform="translate(58.145016 342.217594)scale(0.17 -0.17)">
      <defs>
       <path d="M 9.421875 75.984375 
L 18.40625 75.984375 
L 18.40625 0 
L 9.421875 0 
z
" id="DejaVuSans-108"/>
       <path d="M 30.609375 48.390625 
Q 23.390625 48.390625 19.1875 42.75 
Q 14.984375 37.109375 14.984375 27.296875 
Q 14.984375 17.484375 19.15625 11.84375 
Q 23.34375 6.203125 30.609375 6.203125 
Q 37.796875 6.203125 41.984375 11.859375 
Q 46.1875 17.53125 46.1875 27.296875 
Q 46.1875 37.015625 41.984375 42.703125 
Q 37.796875 48.390625 30.609375 48.390625 
z
M 30.609375 56 
Q 42.328125 56 49.015625 48.375 
Q 55.71875 40.765625 55.71875 27.296875 
Q 55.71875 13.875 49.015625 6.21875 
Q 42.328125 -1.421875 30.609375 -1.421875 
Q 18.84375 -1.421875 12.171875 6.21875 
Q 5.515625 13.875 5.515625 27.296875 
Q 5.515625 40.765625 12.171875 48.375 
Q 18.84375 56 30.609375 56 
z
" id="DejaVuSans-111"/>
       <path d="M 45.40625 27.984375 
Q 45.40625 37.75 41.375 43.109375 
Q 37.359375 48.484375 30.078125 48.484375 
Q 22.859375 48.484375 18.828125 43.109375 
Q 14.796875 37.75 14.796875 27.984375 
Q 14.796875 18.265625 18.828125 12.890625 
Q 22.859375 7.515625 30.078125 7.515625 
Q 37.359375 7.515625 41.375 12.890625 
Q 45.40625 18.265625 45.40625 27.984375 
z
M 54.390625 6.78125 
Q 54.390625 -7.171875 48.1875 -13.984375 
Q 42 -20.796875 29.203125 -20.796875 
Q 24.46875 -20.796875 20.265625 -20.09375 
Q 16.0625 -19.390625 12.109375 -17.921875 
L 12.109375 -9.1875 
Q 16.0625 -11.328125 19.921875 -12.34375 
Q 23.78125 -13.375 27.78125 -13.375 
Q 36.625 -13.375 41.015625 -8.765625 
Q 45.40625 -4.15625 45.40625 5.171875 
L 45.40625 9.625 
Q 42.625 4.78125 38.28125 2.390625 
Q 33.9375 0 27.875 0 
Q 17.828125 0 11.671875 7.65625 
Q 5.515625 15.328125 5.515625 27.984375 
Q 5.515625 40.671875 11.671875 48.328125 
Q 17.828125 56 27.875 56 
Q 33.9375 56 38.28125 53.609375 
Q 42.625 51.21875 45.40625 46.390625 
L 45.40625 54.6875 
L 54.390625 54.6875 
z
" id="DejaVuSans-103"/>
       <path d="M 12.40625 8.296875 
L 28.515625 8.296875 
L 28.515625 63.921875 
L 10.984375 60.40625 
L 10.984375 69.390625 
L 28.421875 72.90625 
L 38.28125 72.90625 
L 38.28125 8.296875 
L 54.390625 8.296875 
L 54.390625 0 
L 12.40625 0 
z
" id="DejaVuSans-49"/>
       <path d="M 31 75.875 
Q 24.46875 64.65625 21.28125 53.65625 
Q 18.109375 42.671875 18.109375 31.390625 
Q 18.109375 20.125 21.3125 9.0625 
Q 24.515625 -2 31 -13.1875 
L 23.1875 -13.1875 
Q 15.875 -1.703125 12.234375 9.375 
Q 8.59375 20.453125 8.59375 31.390625 
Q 8.59375 42.28125 12.203125 53.3125 
Q 15.828125 64.359375 23.1875 75.875 
z
" id="DejaVuSans-40"/>
       <path d="M 51.125 44 
L 36.921875 44 
L 32.8125 27.6875 
L 47.125 27.6875 
z
M 43.796875 71.78125 
L 38.71875 51.515625 
L 52.984375 51.515625 
L 58.109375 71.78125 
L 65.921875 71.78125 
L 60.890625 51.515625 
L 76.125 51.515625 
L 76.125 44 
L 58.984375 44 
L 54.984375 27.6875 
L 70.515625 27.6875 
L 70.515625 20.21875 
L 53.078125 20.21875 
L 48 0 
L 40.1875 0 
L 45.21875 20.21875 
L 30.90625 20.21875 
L 25.875 0 
L 18.015625 0 
L 23.09375 20.21875 
L 7.71875 20.21875 
L 7.71875 27.6875 
L 24.90625 27.6875 
L 29 44 
L 13.28125 44 
L 13.28125 51.515625 
L 30.90625 51.515625 
L 35.890625 71.78125 
z
" id="DejaVuSans-35"/>
       <path id="DejaVuSans-32"/>
       <path d="M 37.109375 75.984375 
L 37.109375 68.5 
L 28.515625 68.5 
Q 23.6875 68.5 21.796875 66.546875 
Q 19.921875 64.59375 19.921875 59.515625 
L 19.921875 54.6875 
L 34.71875 54.6875 
L 34.71875 47.703125 
L 19.921875 47.703125 
L 19.921875 0 
L 10.890625 0 
L 10.890625 47.703125 
L 2.296875 47.703125 
L 2.296875 54.6875 
L 10.890625 54.6875 
L 10.890625 58.5 
Q 10.890625 67.625 15.140625 71.796875 
Q 19.390625 75.984375 28.609375 75.984375 
z
" id="DejaVuSans-102"/>
       <path d="M 46 62.703125 
L 46 35.5 
L 73.1875 35.5 
L 73.1875 27.203125 
L 46 27.203125 
L 46 0 
L 37.796875 0 
L 37.796875 27.203125 
L 10.59375 27.203125 
L 10.59375 35.5 
L 37.796875 35.5 
L 37.796875 62.703125 
z
" id="DejaVuSans-43"/>
       <path d="M 8.015625 75.875 
L 15.828125 75.875 
Q 23.140625 64.359375 26.78125 53.3125 
Q 30.421875 42.28125 30.421875 31.390625 
Q 30.421875 20.453125 26.78125 9.375 
Q 23.140625 -1.703125 15.828125 -13.1875 
L 8.015625 -13.1875 
Q 14.5 -2 17.703125 9.0625 
Q 20.90625 20.125 20.90625 31.390625 
Q 20.90625 42.671875 17.703125 53.65625 
Q 14.5 64.65625 8.015625 75.875 
z
" id="DejaVuSans-41"/>
       <path d="M 4.890625 31.390625 
L 31.203125 31.390625 
L 31.203125 23.390625 
L 4.890625 23.390625 
z
" id="DejaVuSans-45"/>
       <path d="M 56.203125 29.59375 
L 56.203125 25.203125 
L 14.890625 25.203125 
Q 15.484375 15.921875 20.484375 11.0625 
Q 25.484375 6.203125 34.421875 6.203125 
Q 39.59375 6.203125 44.453125 7.46875 
Q 49.3125 8.734375 54.109375 11.28125 
L 54.109375 2.78125 
Q 49.265625 0.734375 44.1875 -0.34375 
Q 39.109375 -1.421875 33.890625 -1.421875 
Q 20.796875 -1.421875 13.15625 6.1875 
Q 5.515625 13.8125 5.515625 26.8125 
Q 5.515625 40.234375 12.765625 48.109375 
Q 20.015625 56 32.328125 56 
Q 43.359375 56 49.78125 48.890625 
Q 56.203125 41.796875 56.203125 29.59375 
z
M 47.21875 32.234375 
Q 47.125 39.59375 43.09375 43.984375 
Q 39.0625 48.390625 32.421875 48.390625 
Q 24.90625 48.390625 20.390625 44.140625 
Q 15.875 39.890625 15.1875 32.171875 
z
" id="DejaVuSans-101"/>
       <path d="M 2.984375 54.6875 
L 12.5 54.6875 
L 29.59375 8.796875 
L 46.6875 54.6875 
L 56.203125 54.6875 
L 35.6875 0 
L 23.484375 0 
z
" id="DejaVuSans-118"/>
       <path d="M 34.28125 27.484375 
Q 23.390625 27.484375 19.1875 25 
Q 14.984375 22.515625 14.984375 16.5 
Q 14.984375 11.71875 18.140625 8.90625 
Q 21.296875 6.109375 26.703125 6.109375 
Q 34.1875 6.109375 38.703125 11.40625 
Q 43.21875 16.703125 43.21875 25.484375 
L 43.21875 27.484375 
z
M 52.203125 31.203125 
L 52.203125 0 
L 43.21875 0 
L 43.21875 8.296875 
Q 40.140625 3.328125 35.546875 0.953125 
Q 30.953125 -1.421875 24.3125 -1.421875 
Q 15.921875 -1.421875 10.953125 3.296875 
Q 6 8.015625 6 15.921875 
Q 6 25.140625 12.171875 29.828125 
Q 18.359375 34.515625 30.609375 34.515625 
L 43.21875 34.515625 
L 43.21875 35.40625 
Q 43.21875 41.609375 39.140625 45 
Q 35.0625 48.390625 27.6875 48.390625 
Q 23 48.390625 18.546875 47.265625 
Q 14.109375 46.140625 10.015625 43.890625 
L 10.015625 52.203125 
Q 14.9375 54.109375 19.578125 55.046875 
Q 24.21875 56 28.609375 56 
Q 40.484375 56 46.34375 49.84375 
Q 52.203125 43.703125 52.203125 31.203125 
z
" id="DejaVuSans-97"/>
       <path d="M 44.28125 53.078125 
L 44.28125 44.578125 
Q 40.484375 46.53125 36.375 47.5 
Q 32.28125 48.484375 27.875 48.484375 
Q 21.1875 48.484375 17.84375 46.4375 
Q 14.5 44.390625 14.5 40.28125 
Q 14.5 37.15625 16.890625 35.375 
Q 19.28125 33.59375 26.515625 31.984375 
L 29.59375 31.296875 
Q 39.15625 29.25 43.1875 25.515625 
Q 47.21875 21.78125 47.21875 15.09375 
Q 47.21875 7.46875 41.1875 3.015625 
Q 35.15625 -1.421875 24.609375 -1.421875 
Q 20.21875 -1.421875 15.453125 -0.5625 
Q 10.6875 0.296875 5.421875 2 
L 5.421875 11.28125 
Q 10.40625 8.6875 15.234375 7.390625 
Q 20.0625 6.109375 24.8125 6.109375 
Q 31.15625 6.109375 34.5625 8.28125 
Q 37.984375 10.453125 37.984375 14.40625 
Q 37.984375 18.0625 35.515625 20.015625 
Q 33.0625 21.96875 24.703125 23.78125 
L 21.578125 24.515625 
Q 13.234375 26.265625 9.515625 29.90625 
Q 5.8125 33.546875 5.8125 39.890625 
Q 5.8125 47.609375 11.28125 51.796875 
Q 16.75 56 26.8125 56 
Q 31.78125 56 36.171875 55.265625 
Q 40.578125 54.546875 44.28125 53.078125 
z
" id="DejaVuSans-115"/>
       <path d="M 25.390625 72.90625 
L 33.6875 72.90625 
L 8.296875 -9.28125 
L 0 -9.28125 
z
" id="DejaVuSans-47"/>
       <path d="M 45.40625 46.390625 
L 45.40625 75.984375 
L 54.390625 75.984375 
L 54.390625 0 
L 45.40625 0 
L 45.40625 8.203125 
Q 42.578125 3.328125 38.25 0.953125 
Q 33.9375 -1.421875 27.875 -1.421875 
Q 17.96875 -1.421875 11.734375 6.484375 
Q 5.515625 14.40625 5.515625 27.296875 
Q 5.515625 40.1875 11.734375 48.09375 
Q 17.96875 56 27.875 56 
Q 33.9375 56 38.25 53.625 
Q 42.578125 51.265625 45.40625 46.390625 
z
M 14.796875 27.296875 
Q 14.796875 17.390625 18.875 11.75 
Q 22.953125 6.109375 30.078125 6.109375 
Q 37.203125 6.109375 41.296875 11.75 
Q 45.40625 17.390625 45.40625 27.296875 
Q 45.40625 37.203125 41.296875 42.84375 
Q 37.203125 48.484375 30.078125 48.484375 
Q 22.953125 48.484375 18.875 42.84375 
Q 14.796875 37.203125 14.796875 27.296875 
z
" id="DejaVuSans-100"/>
       <path d="M 9.421875 54.6875 
L 18.40625 54.6875 
L 18.40625 0 
L 9.421875 0 
z
M 9.421875 75.984375 
L 18.40625 75.984375 
L 18.40625 64.59375 
L 9.421875 64.59375 
z
" id="DejaVuSans-105"/>
       <path d="M 52 44.1875 
Q 55.375 50.25 60.0625 53.125 
Q 64.75 56 71.09375 56 
Q 79.640625 56 84.28125 50.015625 
Q 88.921875 44.046875 88.921875 33.015625 
L 88.921875 0 
L 79.890625 0 
L 79.890625 32.71875 
Q 79.890625 40.578125 77.09375 44.375 
Q 74.3125 48.1875 68.609375 48.1875 
Q 61.625 48.1875 57.5625 43.546875 
Q 53.515625 38.921875 53.515625 30.90625 
L 53.515625 0 
L 44.484375 0 
L 44.484375 32.71875 
Q 44.484375 40.625 41.703125 44.40625 
Q 38.921875 48.1875 33.109375 48.1875 
Q 26.21875 48.1875 22.15625 43.53125 
Q 18.109375 38.875 18.109375 30.90625 
L 18.109375 0 
L 9.078125 0 
L 9.078125 54.6875 
L 18.109375 54.6875 
L 18.109375 46.1875 
Q 21.1875 51.21875 25.484375 53.609375 
Q 29.78125 56 35.6875 56 
Q 41.65625 56 45.828125 52.96875 
Q 50 49.953125 52 44.1875 
z
" id="DejaVuSans-109"/>
       <path d="M 54.890625 33.015625 
L 54.890625 0 
L 45.90625 0 
L 45.90625 32.71875 
Q 45.90625 40.484375 42.875 44.328125 
Q 39.84375 48.1875 33.796875 48.1875 
Q 26.515625 48.1875 22.3125 43.546875 
Q 18.109375 38.921875 18.109375 30.90625 
L 18.109375 0 
L 9.078125 0 
L 9.078125 54.6875 
L 18.109375 54.6875 
L 18.109375 46.1875 
Q 21.34375 51.125 25.703125 53.5625 
Q 30.078125 56 35.796875 56 
Q 45.21875 56 50.046875 50.171875 
Q 54.890625 44.34375 54.890625 33.015625 
z
" id="DejaVuSans-110"/>
      </defs>
      <use xlink:href="#DejaVuSans-108"/>
      <use x="27.783203" xlink:href="#DejaVuSans-111"/>
      <use x="88.964844" xlink:href="#DejaVuSans-103"/>
      <use x="152.441406" xlink:href="#DejaVuSans-49"/>
      <use x="216.064453" xlink:href="#DejaVuSans-48"/>
      <use x="279.6875" xlink:href="#DejaVuSans-40"/>
      <use x="318.701172" xlink:href="#DejaVuSans-35"/>
      <use x="402.490234" xlink:href="#DejaVuSans-32"/>
      <use x="434.277344" xlink:href="#DejaVuSans-40"/>
      <use x="473.291016" xlink:href="#DejaVuSans-102"/>
      <use x="508.496094" xlink:href="#DejaVuSans-43"/>
      <use x="592.285156" xlink:href="#DejaVuSans-103"/>
      <use x="655.761719" xlink:href="#DejaVuSans-41"/>
      <use x="694.775391" xlink:href="#DejaVuSans-45"/>
      <use x="730.859375" xlink:href="#DejaVuSans-101"/>
      <use x="792.382812" xlink:href="#DejaVuSans-118"/>
      <use x="851.5625" xlink:href="#DejaVuSans-97"/>
      <use x="912.841797" xlink:href="#DejaVuSans-108"/>
      <use x="940.625" xlink:href="#DejaVuSans-115"/>
      <use x="992.724609" xlink:href="#DejaVuSans-32"/>
      <use x="1024.511719" xlink:href="#DejaVuSans-47"/>
      <use x="1058.203125" xlink:href="#DejaVuSans-32"/>
      <use x="1089.990234" xlink:href="#DejaVuSans-100"/>
      <use x="1153.466797" xlink:href="#DejaVuSans-105"/>
      <use x="1181.25" xlink:href="#DejaVuSans-109"/>
      <use x="1278.662109" xlink:href="#DejaVuSans-101"/>
      <use x="1340.185547" xlink:href="#DejaVuSans-110"/>
      <use x="1403.564453" xlink:href="#DejaVuSans-115"/>
      <use x="1455.664062" xlink:href="#DejaVuSans-105"/>
      <use x="1483.447266" xlink:href="#DejaVuSans-111"/>
      <use x="1544.628906" xlink:href="#DejaVuSans-110"/>
      <use x="1608.007812" xlink:href="#DejaVuSans-41"/>
     </g>
    </g>
   </g>
   <g id="matplotlib.axis_2">
    <g id="ytick_1">
     <g id="line2d_17">
      <path clip-path="url(#p5f7c896dc6)" d="M 57.6 298.944 
L 338.688 298.944 
" style="fill:none;stroke:#b0b0b0;stroke-linecap:square;stroke-width:0.8;"/>
     </g>
     <g id="line2d_18">
      <defs>
       <path d="M 0 0 
L -3.5 0 
" id="m1051348bda" style="stroke:#000000;stroke-width:0.8;"/>
      </defs>
      <g>
       <use style="stroke:#000000;stroke-width:0.8;" x="57.6" xlink:href="#m1051348bda" y="298.944"/>
      </g>
     </g>
     <g id="text_6">
      <!-- 0.0 -->
      <g transform="translate(25.155 305.02275)scale(0.16 -0.16)">
       <defs>
        <path d="M 10.6875 12.40625 
L 21 12.40625 
L 21 0 
L 10.6875 0 
z
" id="DejaVuSans-46"/>
       </defs>
       <use xlink:href="#DejaVuSans-48"/>
       <use x="63.623047" xlink:href="#DejaVuSans-46"/>
       <use x="95.410156" xlink:href="#DejaVuSans-48"/>
      </g>
     </g>
    </g>
    <g id="ytick_2">
     <g id="line2d_19">
      <path clip-path="url(#p5f7c896dc6)" d="M 57.6 240.431525 
L 338.688 240.431525 
" style="fill:none;stroke:#b0b0b0;stroke-linecap:square;stroke-width:0.8;"/>
     </g>
     <g id="line2d_20">
      <g>
       <use style="stroke:#000000;stroke-width:0.8;" x="57.6" xlink:href="#m1051348bda" y="240.431525"/>
      </g>
     </g>
     <g id="text_7">
      <!-- 0.2 -->
      <g transform="translate(25.155 246.510275)scale(0.16 -0.16)">
       <use xlink:href="#DejaVuSans-48"/>
       <use x="63.623047" xlink:href="#DejaVuSans-46"/>
       <use x="95.410156" xlink:href="#DejaVuSans-50"/>
      </g>
     </g>
    </g>
    <g id="ytick_3">
     <g id="line2d_21">
      <path clip-path="url(#p5f7c896dc6)" d="M 57.6 181.91905 
L 338.688 181.91905 
" style="fill:none;stroke:#b0b0b0;stroke-linecap:square;stroke-width:0.8;"/>
     </g>
     <g id="line2d_22">
      <g>
       <use style="stroke:#000000;stroke-width:0.8;" x="57.6" xlink:href="#m1051348bda" y="181.91905"/>
      </g>
     </g>
     <g id="text_8">
      <!-- 0.4 -->
      <g transform="translate(25.155 187.9978)scale(0.16 -0.16)">
       <use xlink:href="#DejaVuSans-48"/>
       <use x="63.623047" xlink:href="#DejaVuSans-46"/>
       <use x="95.410156" xlink:href="#DejaVuSans-52"/>
      </g>
     </g>
    </g>
    <g id="ytick_4">
     <g id="line2d_23">
      <path clip-path="url(#p5f7c896dc6)" d="M 57.6 123.406574 
L 338.688 123.406574 
" style="fill:none;stroke:#b0b0b0;stroke-linecap:square;stroke-width:0.8;"/>
     </g>
     <g id="line2d_24">
      <g>
       <use style="stroke:#000000;stroke-width:0.8;" x="57.6" xlink:href="#m1051348bda" y="123.406574"/>
      </g>
     </g>
     <g id="text_9">
      <!-- 0.6 -->
      <g transform="translate(25.155 129.485324)scale(0.16 -0.16)">
       <use xlink:href="#DejaVuSans-48"/>
       <use x="63.623047" xlink:href="#DejaVuSans-46"/>
       <use x="95.410156" xlink:href="#DejaVuSans-54"/>
      </g>
     </g>
    </g>
    <g id="ytick_5">
     <g id="line2d_25">
      <path clip-path="url(#p5f7c896dc6)" d="M 57.6 64.894099 
L 338.688 64.894099 
" style="fill:none;stroke:#b0b0b0;stroke-linecap:square;stroke-width:0.8;"/>
     </g>
     <g id="line2d_26">
      <g>
       <use style="stroke:#000000;stroke-width:0.8;" x="57.6" xlink:href="#m1051348bda" y="64.894099"/>
      </g>
     </g>
     <g id="text_10">
      <!-- 0.8 -->
      <g transform="translate(25.155 70.972849)scale(0.16 -0.16)">
       <defs>
        <path d="M 31.78125 34.625 
Q 24.75 34.625 20.71875 30.859375 
Q 16.703125 27.09375 16.703125 20.515625 
Q 16.703125 13.921875 20.71875 10.15625 
Q 24.75 6.390625 31.78125 6.390625 
Q 38.8125 6.390625 42.859375 10.171875 
Q 46.921875 13.96875 46.921875 20.515625 
Q 46.921875 27.09375 42.890625 30.859375 
Q 38.875 34.625 31.78125 34.625 
z
M 21.921875 38.8125 
Q 15.578125 40.375 12.03125 44.71875 
Q 8.5 49.078125 8.5 55.328125 
Q 8.5 64.0625 14.71875 69.140625 
Q 20.953125 74.21875 31.78125 74.21875 
Q 42.671875 74.21875 48.875 69.140625 
Q 55.078125 64.0625 55.078125 55.328125 
Q 55.078125 49.078125 51.53125 44.71875 
Q 48 40.375 41.703125 38.8125 
Q 48.828125 37.15625 52.796875 32.3125 
Q 56.78125 27.484375 56.78125 20.515625 
Q 56.78125 9.90625 50.3125 4.234375 
Q 43.84375 -1.421875 31.78125 -1.421875 
Q 19.734375 -1.421875 13.25 4.234375 
Q 6.78125 9.90625 6.78125 20.515625 
Q 6.78125 27.484375 10.78125 32.3125 
Q 14.796875 37.15625 21.921875 38.8125 
z
M 18.3125 54.390625 
Q 18.3125 48.734375 21.84375 45.5625 
Q 25.390625 42.390625 31.78125 42.390625 
Q 38.140625 42.390625 41.71875 45.5625 
Q 45.3125 48.734375 45.3125 54.390625 
Q 45.3125 60.0625 41.71875 63.234375 
Q 38.140625 66.40625 31.78125 66.40625 
Q 25.390625 66.40625 21.84375 63.234375 
Q 18.3125 60.0625 18.3125 54.390625 
z
" id="DejaVuSans-56"/>
       </defs>
       <use xlink:href="#DejaVuSans-48"/>
       <use x="63.623047" xlink:href="#DejaVuSans-46"/>
       <use x="95.410156" xlink:href="#DejaVuSans-56"/>
      </g>
     </g>
    </g>
    <g id="ytick_6">
     <g id="line2d_27">
      <path clip-path="url(#p5f7c896dc6)" d="M 57.6 6.381624 
L 338.688 6.381624 
" style="fill:none;stroke:#b0b0b0;stroke-linecap:square;stroke-width:0.8;"/>
     </g>
     <g id="line2d_28">
      <g>
       <use style="stroke:#000000;stroke-width:0.8;" x="57.6" xlink:href="#m1051348bda" y="6.381624"/>
      </g>
     </g>
     <g id="text_11">
      <!-- 1.0 -->
      <g transform="translate(25.155 12.460374)scale(0.16 -0.16)">
       <use xlink:href="#DejaVuSans-49"/>
       <use x="63.623047" xlink:href="#DejaVuSans-46"/>
       <use x="95.410156" xlink:href="#DejaVuSans-48"/>
      </g>
     </g>
    </g>
    <g id="text_12">
     <!-- Fraction of function,target pairs -->
     <g transform="translate(17.619531 285.585)rotate(-90)scale(0.17 -0.17)">
      <defs>
       <path d="M 9.8125 72.90625 
L 51.703125 72.90625 
L 51.703125 64.59375 
L 19.671875 64.59375 
L 19.671875 43.109375 
L 48.578125 43.109375 
L 48.578125 34.8125 
L 19.671875 34.8125 
L 19.671875 0 
L 9.8125 0 
z
" id="DejaVuSans-70"/>
       <path d="M 41.109375 46.296875 
Q 39.59375 47.171875 37.8125 47.578125 
Q 36.03125 48 33.890625 48 
Q 26.265625 48 22.1875 43.046875 
Q 18.109375 38.09375 18.109375 28.8125 
L 18.109375 0 
L 9.078125 0 
L 9.078125 54.6875 
L 18.109375 54.6875 
L 18.109375 46.1875 
Q 20.953125 51.171875 25.484375 53.578125 
Q 30.03125 56 36.53125 56 
Q 37.453125 56 38.578125 55.875 
Q 39.703125 55.765625 41.0625 55.515625 
z
" id="DejaVuSans-114"/>
       <path d="M 48.78125 52.59375 
L 48.78125 44.1875 
Q 44.96875 46.296875 41.140625 47.34375 
Q 37.3125 48.390625 33.40625 48.390625 
Q 24.65625 48.390625 19.8125 42.84375 
Q 14.984375 37.3125 14.984375 27.296875 
Q 14.984375 17.28125 19.8125 11.734375 
Q 24.65625 6.203125 33.40625 6.203125 
Q 37.3125 6.203125 41.140625 7.25 
Q 44.96875 8.296875 48.78125 10.40625 
L 48.78125 2.09375 
Q 45.015625 0.34375 40.984375 -0.53125 
Q 36.96875 -1.421875 32.421875 -1.421875 
Q 20.0625 -1.421875 12.78125 6.34375 
Q 5.515625 14.109375 5.515625 27.296875 
Q 5.515625 40.671875 12.859375 48.328125 
Q 20.21875 56 33.015625 56 
Q 37.15625 56 41.109375 55.140625 
Q 45.0625 54.296875 48.78125 52.59375 
z
" id="DejaVuSans-99"/>
       <path d="M 18.3125 70.21875 
L 18.3125 54.6875 
L 36.8125 54.6875 
L 36.8125 47.703125 
L 18.3125 47.703125 
L 18.3125 18.015625 
Q 18.3125 11.328125 20.140625 9.421875 
Q 21.96875 7.515625 27.59375 7.515625 
L 36.8125 7.515625 
L 36.8125 0 
L 27.59375 0 
Q 17.1875 0 13.234375 3.875 
Q 9.28125 7.765625 9.28125 18.015625 
L 9.28125 47.703125 
L 2.6875 47.703125 
L 2.6875 54.6875 
L 9.28125 54.6875 
L 9.28125 70.21875 
z
" id="DejaVuSans-116"/>
       <path d="M 8.5 21.578125 
L 8.5 54.6875 
L 17.484375 54.6875 
L 17.484375 21.921875 
Q 17.484375 14.15625 20.5 10.265625 
Q 23.53125 6.390625 29.59375 6.390625 
Q 36.859375 6.390625 41.078125 11.03125 
Q 45.3125 15.671875 45.3125 23.6875 
L 45.3125 54.6875 
L 54.296875 54.6875 
L 54.296875 0 
L 45.3125 0 
L 45.3125 8.40625 
Q 42.046875 3.421875 37.71875 1 
Q 33.40625 -1.421875 27.6875 -1.421875 
Q 18.265625 -1.421875 13.375 4.4375 
Q 8.5 10.296875 8.5 21.578125 
z
M 31.109375 56 
z
" id="DejaVuSans-117"/>
       <path d="M 11.71875 12.40625 
L 22.015625 12.40625 
L 22.015625 4 
L 14.015625 -11.625 
L 7.71875 -11.625 
L 11.71875 4 
z
" id="DejaVuSans-44"/>
       <path d="M 18.109375 8.203125 
L 18.109375 -20.796875 
L 9.078125 -20.796875 
L 9.078125 54.6875 
L 18.109375 54.6875 
L 18.109375 46.390625 
Q 20.953125 51.265625 25.265625 53.625 
Q 29.59375 56 35.59375 56 
Q 45.5625 56 51.78125 48.09375 
Q 58.015625 40.1875 58.015625 27.296875 
Q 58.015625 14.40625 51.78125 6.484375 
Q 45.5625 -1.421875 35.59375 -1.421875 
Q 29.59375 -1.421875 25.265625 0.953125 
Q 20.953125 3.328125 18.109375 8.203125 
z
M 48.6875 27.296875 
Q 48.6875 37.203125 44.609375 42.84375 
Q 40.53125 48.484375 33.40625 48.484375 
Q 26.265625 48.484375 22.1875 42.84375 
Q 18.109375 37.203125 18.109375 27.296875 
Q 18.109375 17.390625 22.1875 11.75 
Q 26.265625 6.109375 33.40625 6.109375 
Q 40.53125 6.109375 44.609375 11.75 
Q 48.6875 17.390625 48.6875 27.296875 
z
" id="DejaVuSans-112"/>
      </defs>
      <use xlink:href="#DejaVuSans-70"/>
      <use x="50.269531" xlink:href="#DejaVuSans-114"/>
      <use x="91.382812" xlink:href="#DejaVuSans-97"/>
      <use x="152.662109" xlink:href="#DejaVuSans-99"/>
      <use x="207.642578" xlink:href="#DejaVuSans-116"/>
      <use x="246.851562" xlink:href="#DejaVuSans-105"/>
      <use x="274.634766" xlink:href="#DejaVuSans-111"/>
      <use x="335.816406" xlink:href="#DejaVuSans-110"/>
      <use x="399.195312" xlink:href="#DejaVuSans-32"/>
      <use x="430.982422" xlink:href="#DejaVuSans-111"/>
      <use x="492.164062" xlink:href="#DejaVuSans-102"/>
      <use x="527.369141" xlink:href="#DejaVuSans-32"/>
      <use x="559.15625" xlink:href="#DejaVuSans-102"/>
      <use x="594.361328" xlink:href="#DejaVuSans-117"/>
      <use x="657.740234" xlink:href="#DejaVuSans-110"/>
      <use x="721.119141" xlink:href="#DejaVuSans-99"/>
      <use x="776.099609" xlink:href="#DejaVuSans-116"/>
      <use x="815.308594" xlink:href="#DejaVuSans-105"/>
      <use x="843.091797" xlink:href="#DejaVuSans-111"/>
      <use x="904.273438" xlink:href="#DejaVuSans-110"/>
      <use x="967.652344" xlink:href="#DejaVuSans-44"/>
      <use x="999.439453" xlink:href="#DejaVuSans-116"/>
      <use x="1038.648438" xlink:href="#DejaVuSans-97"/>
      <use x="1099.927734" xlink:href="#DejaVuSans-114"/>
      <use x="1139.291016" xlink:href="#DejaVuSans-103"/>
      <use x="1202.767578" xlink:href="#DejaVuSans-101"/>
      <use x="1264.291016" xlink:href="#DejaVuSans-116"/>
      <use x="1303.5" xlink:href="#DejaVuSans-32"/>
      <use x="1335.287109" xlink:href="#DejaVuSans-112"/>
      <use x="1398.763672" xlink:href="#DejaVuSans-97"/>
      <use x="1460.042969" xlink:href="#DejaVuSans-105"/>
      <use x="1487.826172" xlink:href="#DejaVuSans-114"/>
      <use x="1528.939453" xlink:href="#DejaVuSans-115"/>
     </g>
    </g>
   </g>
   <g id="line2d_29">
    <defs>
     <path d="M 0 1.5 
C 0.397805 1.5 0.77937 1.341951 1.06066 1.06066 
C 1.341951 0.77937 1.5 0.397805 1.5 0 
C 1.5 -0.397805 1.341951 -0.77937 1.06066 -1.06066 
C 0.77937 -1.341951 0.397805 -1.5 0 -1.5 
C -0.397805 -1.5 -0.77937 -1.341951 -1.06066 -1.06066 
C -1.341951 -0.77937 -1.5 -0.397805 -1.5 0 
C -1.5 0.397805 -1.341951 0.77937 -1.06066 1.06066 
C -0.77937 1.341951 -0.397805 1.5 0 1.5 
z
" id="m8cd4cbe6c2" style="stroke:#00bfbf;"/>
    </defs>
    <g>
     <use style="fill:#00bfbf;stroke:#00bfbf;" x="174.690307" xlink:href="#m8cd4cbe6c2" y="6.381624"/>
     <use style="fill:#00bfbf;stroke:#00bfbf;" x="174.690307" xlink:href="#m8cd4cbe6c2" y="6.381624"/>
    </g>
   </g>
   <g id="line2d_30">
    <path d="M 85.66744 298.944 
L 85.66744 297.516866 
L 88.846997 297.516866 
L 88.846997 297.279011 
L 91.535274 297.279011 
L 91.535274 296.8033 
L 95.918017 296.8033 
L 95.918017 291.808332 
L 97.755429 291.808332 
L 97.755429 286.337654 
L 99.41757 286.337654 
L 99.41757 280.866975 
L 100.934985 280.866975 
L 100.934985 275.872008 
L 102.330873 275.872008 
L 102.330873 268.974196 
L 103.623262 268.974196 
L 103.623262 259.935683 
L 104.826449 259.935683 
L 104.826449 253.989293 
L 105.951954 253.989293 
L 105.951954 246.61577 
L 107.009204 246.61577 
L 107.009204 239.717958 
L 108.006005 239.717958 
L 108.006005 235.436557 
L 108.948899 235.436557 
L 108.948899 229.252312 
L 109.843417 229.252312 
L 109.843417 221.403078 
L 110.694282 221.403078 
L 110.694282 212.126709 
L 111.505558 212.126709 
L 111.505558 206.18032 
L 112.280765 206.18032 
L 112.280765 200.23393 
L 113.022974 200.23393 
L 113.022974 194.28754 
L 113.73488 194.28754 
L 113.73488 181.443338 
L 114.418861 181.443338 
L 114.418861 178.11336 
L 115.077025 178.11336 
L 115.077025 173.356248 
L 115.711251 173.356248 
L 115.711251 161.701324 
L 116.323218 161.701324 
L 116.323218 149.808545 
L 116.914437 149.808545 
L 116.914437 143.386444 
L 117.486268 143.386444 
L 117.486268 131.73152 
L 118.039942 131.73152 
L 118.039942 121.265874 
L 118.576578 121.265874 
L 118.576578 116.270907 
L 119.097192 116.270907 
L 119.097192 116.033051 
L 119.602714 116.033051 
L 119.602714 106.043116 
L 120.093994 106.043116 
L 120.093994 105.567405 
L 120.571812 105.567405 
L 120.571812 103.426705 
L 121.036887 103.426705 
L 121.036887 102.237427 
L 121.489881 102.237427 
L 121.489881 101.761716 
L 121.931406 101.761716 
L 121.931406 100.334582 
L 122.782271 100.334582 
L 122.782271 100.096726 
L 133.57787 100.096726 
L 133.57787 99.858871 
L 135.878591 99.858871 
L 135.878591 99.621015 
L 136.266147 99.621015 
L 136.266147 99.38316 
L 137.198951 99.38316 
L 137.198951 99.145304 
L 137.37967 99.145304 
L 137.37967 98.907448 
L 138.084384 98.907448 
L 138.084384 98.669593 
L 138.256201 98.669593 
L 138.256201 98.431737 
L 139.172077 98.431737 
L 139.172077 98.193882 
L 139.493548 98.193882 
L 139.493548 97.956026 
L 140.11924 97.956026 
L 140.11924 97.480315 
L 140.272217 97.480315 
L 140.272217 97.004604 
L 140.423864 97.004604 
L 140.499195 94.150337 
L 140.723258 94.150337 
L 140.723258 93.912481 
L 141.162927 93.912481 
L 141.235139 93.198914 
L 141.521035 93.198914 
L 141.591783 92.247492 
L 141.871938 92.247492 
L 141.871938 91.058214 
L 142.283909 91.058214 
L 142.283909 90.106792 
L 142.553247 90.106792 
L 142.553247 89.155369 
L 142.686372 89.155369 
L 142.686372 87.966091 
L 144.629556 87.966091 
L 144.629556 87.728236 
L 145.039911 87.728236 
L 145.039911 87.49038 
L 145.440832 87.49038 
L 145.440832 87.252525 
L 146.854132 87.252525 
L 146.854132 87.014669 
L 148.064279 87.014669 
L 148.112924 86.063247 
L 148.733265 86.063247 
L 148.780082 85.587535 
L 148.87334 85.587535 
L 148.87334 84.636113 
L 149.012299 84.636113 
L 149.012299 84.398257 
L 149.15016 84.398257 
L 149.15016 83.922546 
L 149.422654 83.922546 
L 149.422654 83.208979 
L 149.557321 83.208979 
L 149.60198 80.354712 
L 149.955193 80.354712 
L 149.998846 79.641146 
L 150.172372 79.641146 
L 150.215485 77.024734 
L 150.301393 77.024734 
L 150.344189 74.170467 
L 150.556607 74.170467 
L 150.640855 72.981189 
L 151.056095 72.981189 
L 151.056095 69.889066 
L 151.178764 69.889066 
L 151.260066 69.413355 
L 151.300575 69.413355 
L 151.300575 67.748366 
L 151.501723 67.748366 
L 151.501723 67.510511 
L 151.700576 67.510511 
L 151.779487 66.321233 
L 152.168773 66.321233 
L 152.168773 65.607666 
L 152.283884 65.607666 
L 152.283884 65.36981 
L 152.959038 65.36981 
L 152.959038 64.656243 
L 153.105587 64.656243 
L 153.105587 63.22911 
L 153.395042 63.22911 
L 153.466662 61.326265 
L 153.609024 61.326265 
L 153.609024 61.08841 
L 153.750233 61.08841 
L 153.750233 60.374843 
L 153.890309 60.374843 
L 153.890309 57.996287 
L 154.167129 57.996287 
L 154.167129 57.28272 
L 154.303908 57.28272 
L 154.303908 56.569153 
L 154.507086 56.569153 
L 154.507086 56.093442 
L 154.707925 56.093442 
L 154.707925 54.666309 
L 155.990803 54.666309 
L 155.990803 54.428453 
L 156.598505 54.428453 
L 156.598505 54.190597 
L 157.528821 54.190597 
L 157.528821 53.952742 
L 157.641697 53.952742 
L 157.697862 53.477031 
L 158.412011 53.477031 
L 158.412011 53.239175 
L 158.889829 53.239175 
L 158.942121 52.763464 
L 159.201253 52.763464 
L 159.201253 52.525608 
L 159.456591 52.525608 
L 159.456591 52.287753 
L 159.758143 52.287753 
L 159.857512 50.147052 
L 160.005512 50.147052 
L 160.103486 46.341363 
L 160.346039 46.341363 
L 160.394148 45.627796 
L 160.585265 45.627796 
L 160.632719 44.200663 
L 160.727241 44.200663 
L 160.774311 39.681406 
L 161.007772 39.681406 
L 161.054091 36.827139 
L 161.146363 36.827139 
L 161.238149 34.924295 
L 161.374928 34.924295 
L 161.420284 33.259305 
L 161.64531 33.259305 
L 161.734513 31.594316 
L 162.043181 31.594316 
L 162.043181 31.356461 
L 162.260361 31.356461 
L 162.260361 31.118605 
L 162.812686 31.118605 
L 162.854457 30.405038 
L 163.020547 30.405038 
L 163.103002 29.453616 
L 163.144084 29.453616 
L 163.144084 28.740049 
L 163.266752 28.740049 
L 163.348054 25.410071 
L 163.428979 25.410071 
L 163.428979 25.172215 
L 163.589711 25.172215 
L 163.629664 22.555804 
L 163.709295 22.555804 
L 163.748975 20.890815 
L 163.906798 20.890815 
L 163.906798 20.652959 
L 164.024234 20.652959 
L 164.063205 20.177248 
L 164.256762 20.177248 
L 164.256762 19.701537 
L 164.448194 19.701537 
L 164.524182 18.750114 
L 165.697012 18.750114 
L 165.697012 18.512259 
L 167.320442 18.512259 
L 167.320442 18.274403 
L 169.75779 18.274403 
L 169.75779 18.036548 
L 170.846398 18.036548 
L 170.951613 17.560837 
L 171.250617 17.560837 
L 171.250617 16.371559 
L 172.613754 16.371559 
L 172.613754 15.895847 
L 174.13117 15.895847 
L 174.240098 13.993003 
L 174.283479 13.993003 
L 174.305129 12.090158 
L 174.434469 12.090158 
L 174.541525 8.76018 
L 174.605444 8.76018 
L 174.690307 6.381624 
L 338.688 6.381624 
L 338.688 6.381624 
" style="fill:none;stroke:#00bfbf;stroke-linecap:square;stroke-width:1.5;"/>
   </g>
   <g id="line2d_31">
    <defs>
     <path d="M -6 0 
L 6 0 
M 0 6 
L 0 -6 
" id="m17164fdc42" style="stroke:#00bfbf;stroke-width:1.5;"/>
    </defs>
    <g>
     <use style="fill-opacity:0;stroke:#00bfbf;stroke-width:1.5;" x="116.914437" xlink:href="#m17164fdc42" y="149.808545"/>
     <use style="fill-opacity:0;stroke:#00bfbf;stroke-width:1.5;" x="163.589711" xlink:href="#m17164fdc42" y="25.172215"/>
     <use style="fill-opacity:0;stroke:#00bfbf;stroke-width:1.5;" x="174.690307" xlink:href="#m17164fdc42" y="6.381624"/>
     <use style="fill-opacity:0;stroke:#00bfbf;stroke-width:1.5;" x="174.690307" xlink:href="#m17164fdc42" y="6.381624"/>
     <use style="fill-opacity:0;stroke:#00bfbf;stroke-width:1.5;" x="338.688" xlink:href="#m17164fdc42" y="6.381624"/>
    </g>
   </g>
   <g id="line2d_32">
    <path style="fill:none;stroke:#00bfbf;stroke-linecap:square;stroke-width:1.5;"/>
    <g/>
   </g>
   <g id="line2d_33">
    <defs>
     <path d="M 0 1.5 
C 0.397805 1.5 0.77937 1.341951 1.06066 1.06066 
C 1.341951 0.77937 1.5 0.397805 1.5 0 
C 1.5 -0.397805 1.341951 -0.77937 1.06066 -1.06066 
C 0.77937 -1.341951 0.397805 -1.5 0 -1.5 
C -0.397805 -1.5 -0.77937 -1.341951 -1.06066 -1.06066 
C -1.341951 -0.77937 -1.5 -0.397805 -1.5 0 
C -1.5 0.397805 -1.341951 0.77937 -1.06066 1.06066 
C -0.77937 1.341951 -0.397805 1.5 0 1.5 
z
" id="mdd6670b8ea" style="stroke:#008000;"/>
    </defs>
    <g>
     <use style="fill:#008000;stroke:#008000;" x="211.691557" xlink:href="#mdd6670b8ea" y="6.381624"/>
     <use style="fill:#008000;stroke:#008000;" x="211.691557" xlink:href="#mdd6670b8ea" y="6.381624"/>
    </g>
   </g>
   <g id="line2d_34">
    <path d="M 95.259853 298.944 
L 95.259853 298.468289 
L 97.755429 298.468289 
L 97.755429 298.230433 
L 98.880934 298.230433 
L 98.880934 296.089733 
L 100.934985 296.089733 
L 100.934985 295.851877 
L 101.877879 295.851877 
L 101.877879 294.900455 
L 102.772397 294.900455 
L 102.772397 292.99761 
L 103.623262 292.99761 
L 103.623262 292.759755 
L 104.434538 292.759755 
L 104.434538 289.905488 
L 105.209745 289.905488 
L 105.209745 289.667632 
L 105.951954 289.667632 
L 105.951954 287.289076 
L 106.66386 287.289076 
L 106.66386 286.813365 
L 107.347841 286.813365 
L 107.347841 285.386231 
L 108.006005 285.386231 
L 108.006005 283.483387 
L 108.640231 283.483387 
L 108.640231 283.245531 
L 109.252198 283.245531 
L 109.252198 282.531964 
L 109.843417 282.531964 
L 109.843417 282.056253 
L 110.415248 282.056253 
L 110.415248 280.866975 
L 110.968922 280.866975 
L 110.968922 279.915553 
L 111.505558 279.915553 
L 111.505558 279.677697 
L 112.026172 279.677697 
L 112.026172 278.012708 
L 112.531694 278.012708 
L 112.531694 274.68273 
L 113.022974 274.68273 
L 113.022974 274.207019 
L 113.500792 274.207019 
L 113.500792 272.779885 
L 113.965867 272.779885 
L 113.965867 272.542029 
L 114.418861 272.542029 
L 114.418861 272.304174 
L 114.860386 272.304174 
L 114.860386 271.828463 
L 115.291007 271.828463 
L 115.291007 270.639185 
L 116.121606 270.639185 
L 116.121606 270.401329 
L 116.522527 270.401329 
L 116.522527 269.925618 
L 116.914437 269.925618 
L 116.914437 268.498484 
L 117.297733 268.498484 
L 117.297733 267.784918 
L 117.672786 267.784918 
L 117.672786 264.454939 
L 118.039942 264.454939 
L 118.039942 262.314239 
L 118.399528 262.314239 
L 118.399528 260.411394 
L 119.097192 260.411394 
L 119.097192 259.935683 
L 119.43583 259.935683 
L 119.43583 258.746405 
L 120.41399 258.746405 
L 120.41399 258.50855 
L 120.728219 258.50855 
L 120.728219 257.557127 
L 121.036887 257.557127 
L 121.036887 256.84356 
L 121.340187 256.84356 
L 121.340187 256.605705 
L 121.638301 256.605705 
L 121.638301 255.892138 
L 122.219665 255.892138 
L 122.219665 254.70286 
L 122.503236 254.70286 
L 122.503236 253.989293 
L 122.782271 253.989293 
L 122.782271 252.800015 
L 123.056911 252.800015 
L 123.056911 251.372882 
L 123.327293 251.372882 
L 123.327293 250.897171 
L 123.855796 250.897171 
L 123.855796 250.183604 
L 124.114161 250.183604 
L 124.114161 247.805048 
L 124.619683 247.805048 
L 124.619683 245.664348 
L 124.867052 245.664348 
L 124.867052 244.237214 
L 125.588781 244.237214 
L 125.588781 243.999359 
L 126.053856 243.999359 
L 126.053856 243.523647 
L 126.50685 243.523647 
L 126.50685 243.285792 
L 126.729009 243.285792 
L 126.729009 242.810081 
L 126.948374 242.810081 
L 126.948374 242.572225 
L 127.165014 242.572225 
L 127.165014 240.66938 
L 128.005624 240.66938 
L 128.005624 239.955814 
L 128.209594 239.955814 
L 128.209594 239.242247 
L 128.610515 239.242247 
L 128.610515 239.004391 
L 128.807571 239.004391 
L 128.807571 238.766536 
L 129.002426 238.766536 
L 129.002426 238.52868 
L 129.195127 238.52868 
L 129.195127 238.290824 
L 129.574256 238.290824 
L 129.574256 236.863691 
L 129.945319 236.863691 
L 129.945319 234.722991 
L 130.127931 234.722991 
L 130.127931 234.009424 
L 130.839837 234.009424 
L 130.839837 233.771568 
L 131.185181 233.771568 
L 131.185181 233.058001 
L 132.342714 233.058001 
L 132.342714 232.58229 
L 135.076644 232.58229 
L 135.076644 232.106579 
L 135.615352 232.106579 
L 135.615352 231.630868 
L 136.008736 231.630868 
L 136.008736 230.679446 
L 136.393441 230.679446 
L 136.393441 229.252312 
L 136.519813 229.252312 
L 136.519813 228.30089 
L 136.645276 228.30089 
L 136.645276 227.825178 
L 136.769843 227.825178 
L 136.769843 227.349467 
L 137.138292 227.349467 
L 137.198951 224.733056 
L 137.259399 224.733056 
L 137.259399 223.068067 
L 137.499118 223.068067 
L 137.499118 220.927366 
L 137.676769 220.927366 
L 137.676769 220.689511 
L 137.968891 220.689511 
L 137.968891 220.451655 
L 138.084384 220.451655 
L 138.084384 220.2138 
L 138.199116 220.2138 
L 138.199116 219.975944 
L 138.313099 219.975944 
L 138.313099 219.024522 
L 138.426341 219.024522 
L 138.426341 217.597388 
L 138.538853 217.597388 
L 138.538853 215.694543 
L 138.650644 215.694543 
L 138.650644 215.218832 
L 138.872098 215.218832 
L 138.981779 213.791699 
L 139.199094 213.791699 
L 139.199094 211.650998 
L 139.520072 211.650998 
L 139.625765 209.034587 
L 139.835248 209.034587 
L 139.939053 208.558876 
L 140.042245 208.558876 
L 140.144829 206.656031 
L 140.246813 206.656031 
L 140.348205 204.515331 
L 140.44901 204.515331 
L 140.44901 204.277475 
L 140.64889 204.277475 
L 140.747977 202.612486 
L 140.846504 202.612486 
L 140.944478 199.996074 
L 141.090414 199.996074 
L 141.138789 197.855374 
L 141.235139 197.855374 
L 141.33096 195.001107 
L 141.426256 195.001107 
L 141.521035 191.433273 
L 141.709062 191.433273 
L 141.80232 190.957562 
L 141.895083 190.957562 
L 141.987354 189.530428 
L 142.07914 189.530428 
L 142.07914 187.865439 
L 142.261275 187.865439 
L 142.261275 187.627584 
L 142.441528 187.627584 
L 142.53096 185.486883 
L 142.619936 185.486883 
L 142.619936 185.249028 
L 142.884173 185.249028 
L 142.971369 182.870472 
L 143.058132 182.870472 
L 143.144465 181.681194 
L 143.273169 181.681194 
L 143.31586 180.967627 
L 143.40093 180.967627 
L 143.485587 177.399793 
L 143.653678 177.399793 
L 143.737119 176.686227 
L 143.902815 176.686227 
L 143.943994 175.734804 
L 144.06695 175.734804 
L 144.06695 175.021237 
L 144.229555 175.021237 
L 144.229555 173.118393 
L 144.470655 173.118393 
L 144.470655 172.16697 
L 144.629556 172.16697 
L 144.629556 170.264126 
L 144.747789 170.264126 
L 144.747789 170.02627 
L 145.327221 170.02627 
L 145.327221 168.361281 
L 145.628555 168.361281 
L 145.703082 164.793447 
L 146.288102 164.793447 
L 146.288102 164.07988 
L 146.992815 164.07988 
L 146.992815 162.890602 
L 147.266916 162.890602 
L 147.334773 160.749902 
L 147.670154 160.749902 
L 147.670154 160.512046 
L 147.802521 160.512046 
L 147.802521 159.560624 
L 147.933891 159.560624 
L 147.999207 157.657779 
L 148.576295 157.657779 
L 148.576295 157.182068 
L 148.701984 157.182068 
L 148.701984 156.944213 
L 148.950676 156.944213 
L 148.950676 156.230646 
L 149.195872 156.230646 
L 149.195872 154.327801 
L 149.497598 154.327801 
L 149.527485 153.614234 
L 149.735275 153.614234 
L 149.794191 152.662812 
L 149.852909 152.662812 
L 149.852909 151.235678 
L 149.969756 151.235678 
L 149.969756 150.997823 
L 150.085825 150.997823 
L 150.085825 150.284256 
L 150.201126 150.284256 
L 150.201126 149.808545 
L 150.429467 149.808545 
L 150.429467 149.094978 
L 150.542526 149.094978 
L 150.542526 148.857122 
L 150.710752 148.857122 
L 150.710752 148.619267 
L 150.822008 148.619267 
L 150.822008 148.381411 
L 151.097081 148.381411 
L 151.097081 148.143556 
L 151.475037 148.143556 
L 151.528368 147.429989 
L 151.818809 147.429989 
L 151.844975 146.954278 
L 152.155936 146.954278 
L 152.25837 146.478567 
L 152.410901 146.478567 
L 152.410901 146.240711 
L 152.811246 146.240711 
L 152.860649 145.765 
L 153.008024 145.765 
L 153.105587 145.289289 
L 153.154164 145.289289 
L 153.250915 144.813577 
L 153.29909 144.813577 
L 153.347132 143.624299 
L 153.585377 143.624299 
L 153.679772 141.95931 
L 153.959927 141.95931 
L 153.959927 141.245744 
L 154.075343 141.245744 
L 154.075343 141.007888 
L 154.371897 141.007888 
L 154.371897 140.056466 
L 154.551917 140.056466 
L 154.596634 139.342899 
L 154.77436 139.342899 
L 154.862549 138.629332 
L 155.12447 138.629332 
L 155.12447 138.391476 
L 155.296925 138.391476 
L 155.296925 138.153621 
L 155.531298 138.153621 
L 155.573575 136.964343 
L 155.699795 136.964343 
L 155.804285 135.537209 
L 155.825108 135.537209 
L 155.825108 135.061498 
L 156.073064 135.061498 
L 156.114049 133.396509 
L 156.216093 133.396509 
L 156.216093 133.158653 
L 156.357959 133.158653 
L 156.43851 131.73152 
L 156.598505 131.73152 
L 156.697761 130.780098 
L 156.875011 130.780098 
L 156.875011 129.828675 
L 157.050478 129.828675 
L 157.050478 129.59082 
L 157.185742 129.59082 
L 157.185742 128.639397 
L 157.319964 128.639397 
L 157.377174 127.92583 
L 157.604152 127.92583 
L 157.604152 127.212264 
L 158.231665 127.212264 
L 158.322071 126.736553 
L 159.574482 126.736553 
L 159.574482 126.260841 
L 159.824452 126.260841 
L 159.857512 125.78513 
L 159.98913 125.78513 
L 159.98913 125.547275 
L 160.103486 125.547275 
L 160.168498 125.071563 
L 160.410154 125.071563 
L 160.410154 124.833708 
L 160.680044 124.833708 
L 160.680044 124.595852 
L 160.961329 124.595852 
L 160.961329 124.357997 
L 161.084903 124.357997 
L 161.084903 124.120141 
L 161.238149 124.120141 
L 161.344625 123.64443 
L 161.64531 123.64443 
L 161.70483 123.168719 
L 161.764147 123.168719 
L 161.852746 122.693007 
L 162.086834 122.693007 
L 162.086834 122.455152 
L 162.559939 122.455152 
L 162.559939 122.217296 
L 162.868358 122.217296 
L 162.868358 121.979441 
L 163.225959 121.979441 
L 163.225959 121.741585 
L 163.841212 121.741585 
L 163.867476 121.028018 
L 163.998206 121.028018 
L 164.102088 120.314452 
L 164.153799 120.314452 
L 164.153799 120.076596 
L 164.282408 120.076596 
L 164.333587 118.411607 
L 164.39735 118.411607 
L 164.486229 116.984473 
L 164.51154 116.984473 
L 164.51154 116.508762 
L 164.712717 116.508762 
L 164.712717 115.55734 
L 164.837283 115.55734 
L 164.837283 114.843773 
L 165.108238 114.843773 
L 165.205733 112.227362 
L 165.278497 112.227362 
L 165.375047 109.135239 
L 165.518877 109.135239 
L 165.614109 106.994539 
L 165.637836 106.994539 
L 165.732422 103.188849 
L 165.873346 103.188849 
L 165.966667 98.907448 
L 165.98992 98.907448 
L 166.036331 97.480315 
L 166.128786 97.480315 
L 166.197807 96.053181 
L 166.335035 96.053181 
L 166.357802 93.43677 
L 166.471192 93.43677 
L 166.561376 92.485348 
L 166.606293 92.485348 
L 166.651096 90.582503 
L 166.718084 90.582503 
L 166.7626 87.966091 
L 166.873397 87.966091 
L 166.939538 87.252525 
L 167.136471 87.252525 
L 167.136471 87.014669 
L 167.363449 87.014669 
L 167.363449 86.776813 
L 167.481174 86.776813 
L 167.566296 85.34968 
L 167.651004 85.34968 
L 167.735303 84.636113 
L 167.7773 84.636113 
L 167.819196 83.208979 
L 167.944284 83.208979 
L 168.047843 82.257557 
L 168.068482 82.257557 
L 168.068482 81.54399 
L 168.191801 81.54399 
L 168.273531 80.116857 
L 168.435853 80.116857 
L 168.435853 79.40329 
L 168.676537 79.40329 
L 168.736192 77.26259 
L 168.845033 77.26259 
L 168.854895 76.549023 
L 168.972794 76.549023 
L 169.021685 75.597601 
L 169.089902 75.597601 
L 169.089902 75.121889 
L 169.493697 75.121889 
L 169.493697 74.884034 
L 169.813865 74.884034 
L 169.86976 74.408323 
L 170.174022 74.408323 
L 170.265184 72.029767 
L 170.301516 72.029767 
L 170.337772 70.602633 
L 170.464079 70.602633 
L 170.464079 69.889066 
L 170.660731 69.889066 
L 170.731695 67.986222 
L 170.784729 67.986222 
L 170.784729 67.272655 
L 170.995266 67.272655 
L 171.099589 65.131955 
L 171.194673 65.131955 
L 171.263501 63.466965 
L 171.400348 63.466965 
L 171.485334 60.612698 
L 171.603625 60.612698 
L 171.67086 58.947709 
L 171.771231 58.947709 
L 171.8212 57.520576 
L 171.986738 57.520576 
L 171.986738 57.044865 
L 172.248373 57.044865 
L 172.345483 56.331298 
L 172.361615 56.331298 
L 172.361615 56.093442 
L 172.823083 56.093442 
L 172.823083 55.855587 
L 173.500721 55.855587 
L 173.500721 55.617731 
L 174.182087 55.617731 
L 174.26903 54.428453 
L 174.297915 54.428453 
L 174.31234 53.001319 
L 174.455933 53.001319 
L 174.555749 48.006352 
L 174.640854 48.006352 
L 174.683251 45.865652 
L 174.753684 45.865652 
L 174.823834 44.914229 
L 174.865789 44.914229 
L 174.963293 43.011385 
L 175.074063 43.011385 
L 175.184134 41.10854 
L 175.252577 41.10854 
L 175.36153 39.919262 
L 176.073165 39.919262 
L 176.15768 39.205695 
L 176.228874 39.205695 
L 176.319066 38.729984 
L 176.357578 38.729984 
L 176.459861 37.540706 
L 177.030459 37.540706 
L 177.030459 37.302851 
L 177.624761 37.302851 
L 177.702098 36.113573 
L 177.855749 36.113573 
L 177.855749 35.637861 
L 178.054656 35.637861 
L 178.054656 35.400006 
L 178.491235 35.400006 
L 178.56483 34.448583 
L 178.83947 34.448583 
L 178.83947 34.210728 
L 181.443334 34.210728 
L 181.443334 33.972872 
L 184.465722 33.972872 
L 184.505951 33.02145 
L 184.681864 33.02145 
L 184.689818 32.307883 
L 185.067409 32.307883 
L 185.067409 32.070028 
L 186.862747 32.070028 
L 186.946792 29.929327 
L 186.995632 29.929327 
L 187.044335 26.123638 
L 187.148244 26.123638 
L 187.230927 23.269371 
L 187.326899 23.269371 
L 187.326899 22.79366 
L 190.162992 22.79366 
L 190.162992 22.555804 
L 191.184147 22.555804 
L 191.189626 22.080093 
L 192.609305 22.080093 
L 192.609305 21.842237 
L 193.943126 21.842237 
L 193.943126 21.366526 
L 196.175067 21.366526 
L 196.175067 21.12867 
L 196.741985 21.12867 
L 196.741985 20.890815 
L 202.560514 20.890815 
L 202.560514 20.652959 
L 204.079238 20.652959 
L 204.079238 20.177248 
L 208.414685 20.177248 
L 208.414685 18.512259 
L 208.54983 18.512259 
L 208.54983 18.274403 
L 209.257971 18.274403 
L 209.358759 9.711602 
L 209.383866 9.711602 
L 209.383866 9.473746 
L 209.61583 9.473746 
L 209.61583 9.235891 
L 211.260217 9.235891 
L 211.260217 8.998035 
L 211.647544 8.998035 
L 211.691557 6.381624 
L 338.688 6.381624 
L 338.688 6.381624 
" style="fill:none;stroke:#008000;stroke-linecap:square;stroke-width:1.5;"/>
   </g>
   <g id="line2d_35">
    <defs>
     <path d="M -0 6 
L 6 -6 
L -6 -6 
z
" id="m695aa11944" style="stroke:#008000;stroke-linejoin:miter;stroke-width:1.5;"/>
    </defs>
    <g>
     <use style="fill-opacity:0;stroke:#008000;stroke-linejoin:miter;stroke-width:1.5;" x="144.470655" xlink:href="#m695aa11944" y="172.16697"/>
     <use style="fill-opacity:0;stroke:#008000;stroke-linejoin:miter;stroke-width:1.5;" x="187.037386" xlink:href="#m695aa11944" y="27.788627"/>
     <use style="fill-opacity:0;stroke:#008000;stroke-linejoin:miter;stroke-width:1.5;" x="211.691557" xlink:href="#m695aa11944" y="6.381624"/>
     <use style="fill-opacity:0;stroke:#008000;stroke-linejoin:miter;stroke-width:1.5;" x="211.691557" xlink:href="#m695aa11944" y="6.381624"/>
     <use style="fill-opacity:0;stroke:#008000;stroke-linejoin:miter;stroke-width:1.5;" x="338.688" xlink:href="#m695aa11944" y="6.381624"/>
    </g>
   </g>
   <g id="line2d_36">
    <path style="fill:none;stroke:#008000;stroke-linecap:square;stroke-width:1.5;"/>
    <g/>
   </g>
   <g id="line2d_37">
    <defs>
     <path d="M 0 1.5 
C 0.397805 1.5 0.77937 1.341951 1.06066 1.06066 
C 1.341951 0.77937 1.5 0.397805 1.5 0 
C 1.5 -0.397805 1.341951 -0.77937 1.06066 -1.06066 
C 0.77937 -1.341951 0.397805 -1.5 0 -1.5 
C -0.397805 -1.5 -0.77937 -1.341951 -1.06066 -1.06066 
C -1.341951 -0.77937 -1.5 -0.397805 -1.5 0 
C -1.5 0.397805 -1.341951 0.77937 -1.06066 1.06066 
C -0.77937 1.341951 -0.397805 1.5 0 1.5 
z
" id="md35c8654a6" style="stroke:#0000ff;"/>
    </defs>
    <g>
     <use style="fill:#0000ff;stroke:#0000ff;" x="288.46126" xlink:href="#md35c8654a6" y="34.924295"/>
     <use style="fill:#0000ff;stroke:#0000ff;" x="288.46126" xlink:href="#md35c8654a6" y="34.924295"/>
    </g>
   </g>
   <g id="line2d_38">
    <path d="M 99.731799 298.944 
L 99.731799 298.706144 
L 136.494612 298.706144 
L 136.494612 298.468289 
L 137.594091 298.468289 
L 137.594091 298.230433 
L 139.220677 298.230433 
L 139.220677 297.992578 
L 143.349938 297.992578 
L 143.349938 297.754722 
L 143.853271 297.754722 
L 143.853271 297.516866 
L 149.735275 297.516866 
L 149.735275 297.279011 
L 156.260804 297.279011 
L 156.285144 296.565444 
L 156.454576 296.565444 
L 156.478647 296.089733 
L 161.026314 296.089733 
L 161.026314 295.851877 
L 162.415072 295.851877 
L 162.415072 295.614022 
L 162.568423 295.614022 
L 162.568423 295.376166 
L 167.216791 295.376166 
L 167.216791 295.138311 
L 167.798261 295.138311 
L 167.798261 294.900455 
L 169.221681 294.900455 
L 169.221681 294.662599 
L 169.371623 294.662599 
L 169.428951 293.473321 
L 169.520287 293.473321 
L 169.599814 292.759755 
L 169.7128 292.759755 
L 169.75779 290.143343 
L 169.836245 290.143343 
L 169.931039 289.429776 
L 170.069512 289.429776 
L 170.069512 289.191921 
L 170.212368 289.191921 
L 170.321466 287.764787 
L 170.364915 287.764787 
L 170.429886 287.289076 
L 171.009212 287.289076 
L 171.103055 286.575509 
L 172.029522 286.575509 
L 172.127854 285.861943 
L 172.293758 285.861943 
L 172.371288 285.386231 
L 172.448474 285.386231 
L 172.448474 285.148376 
L 172.734918 285.148376 
L 172.734918 284.91052 
L 173.376414 284.91052 
L 173.376414 284.672665 
L 174.318106 284.672665 
L 174.344032 284.196953 
L 174.875564 284.196953 
L 174.875564 283.959098 
L 175.133313 283.959098 
L 175.133313 283.721242 
L 175.725632 283.721242 
L 175.821103 280.866975 
L 175.844889 280.866975 
L 175.908161 279.915553 
L 175.994786 279.915553 
L 176.065343 278.012708 
L 176.236623 278.012708 
L 176.29077 276.82343 
L 176.410073 276.82343 
L 176.513321 275.872008 
L 176.539989 275.872008 
L 176.608379 273.255596 
L 176.819447 273.255596 
L 176.879286 271.590607 
L 176.93892 271.590607 
L 176.93892 271.352752 
L 177.05758 271.352752 
L 177.123974 270.639185 
L 177.226752 270.639185 
L 177.226752 270.401329 
L 177.92621 270.401329 
L 177.92621 270.163474 
L 178.263969 270.163474 
L 178.263969 269.925618 
L 178.4901 269.925618 
L 178.585156 268.974196 
L 178.61222 268.974196 
L 178.720057 267.547062 
L 178.773727 267.547062 
L 178.860589 264.454939 
L 178.907183 264.454939 
L 178.907183 263.979228 
L 179.19724 263.979228 
L 179.269007 263.265661 
L 180.16678 263.265661 
L 180.262372 261.124961 
L 180.290026 261.124961 
L 180.400208 258.50855 
L 180.418504 258.50855 
L 180.488462 256.129994 
L 180.533936 256.129994 
L 180.546043 254.465005 
L 180.65763 254.465005 
L 180.765521 253.751438 
L 180.866809 253.751438 
L 180.866809 253.513582 
L 181.178864 253.513582 
L 181.178864 253.275727 
L 181.645244 253.275727 
L 181.645244 253.037871 
L 181.76979 253.037871 
L 181.76979 252.800015 
L 181.910249 252.800015 
L 182.002336 252.086449 
L 182.110543 252.086449 
L 182.157501 251.610738 
L 182.357718 251.610738 
L 182.357718 251.372882 
L 182.585296 251.372882 
L 182.585296 251.135026 
L 182.92119 251.135026 
L 182.92119 250.897171 
L 183.229997 250.897171 
L 183.29731 250.42146 
L 183.449103 250.42146 
L 183.530881 248.994326 
L 183.566539 248.994326 
L 183.566539 248.518615 
L 183.728625 248.518615 
L 183.804087 246.377915 
L 183.889218 246.377915 
L 183.889218 246.140059 
L 184.279463 246.140059 
L 184.342852 245.664348 
L 184.435085 245.664348 
L 184.435085 245.426492 
L 184.718423 245.426492 
L 184.718423 245.188637 
L 185.118694 245.188637 
L 185.118694 244.950781 
L 185.250872 244.950781 
L 185.32924 243.285792 
L 185.388932 243.285792 
L 185.480369 239.242247 
L 185.607581 239.242247 
L 185.607581 238.52868 
L 185.765302 238.52868 
L 185.765302 238.052969 
L 185.983741 238.052969 
L 185.983741 237.815113 
L 186.319397 237.815113 
L 186.319397 237.577258 
L 186.440654 237.577258 
L 186.488061 237.101546 
L 187.130277 237.101546 
L 187.204787 236.150124 
L 187.332367 236.150124 
L 187.332367 235.912269 
L 189.57628 235.912269 
L 189.662596 234.247279 
L 189.702015 234.247279 
L 189.702015 234.009424 
L 190.222155 234.009424 
L 190.222155 233.771568 
L 190.686682 233.771568 
L 190.686682 233.533713 
L 191.576971 233.533713 
L 191.628329 233.058001 
L 191.749701 233.058001 
L 191.749701 232.820146 
L 192.139985 232.820146 
L 192.139985 232.58229 
L 192.987441 232.58229 
L 193.082059 230.917301 
L 193.140936 230.917301 
L 193.164431 230.44159 
L 193.464138 230.44159 
L 193.495843 229.965879 
L 193.726129 229.965879 
L 193.812592 229.490168 
L 194.760545 229.490168 
L 194.856696 227.111612 
L 194.87533 227.111612 
L 194.93907 225.446623 
L 195.183882 225.446623 
L 195.183882 225.208767 
L 195.686304 225.208767 
L 195.782549 221.403078 
L 195.797697 221.403078 
L 195.905875 219.500233 
L 195.91841 219.500233 
L 196.018371 218.786666 
L 196.194401 218.786666 
L 196.194401 218.54881 
L 196.575043 218.54881 
L 196.575043 218.310955 
L 197.503258 218.310955 
L 197.611623 217.359532 
L 197.627536 217.359532 
L 197.693306 214.743121 
L 197.745293 214.743121 
L 197.815118 213.791699 
L 197.886903 213.791699 
L 197.962852 213.315987 
L 198.005151 213.315987 
L 198.005151 213.078132 
L 198.144675 213.078132 
L 198.144675 212.840276 
L 198.296217 212.840276 
L 198.296217 212.602421 
L 198.4291 212.602421 
L 198.4291 212.364565 
L 198.586806 212.364565 
L 198.586806 212.126709 
L 199.582592 212.126709 
L 199.582592 211.888854 
L 200.820342 211.888854 
L 200.820342 211.650998 
L 200.951349 211.650998 
L 201.024434 206.893887 
L 201.214145 206.893887 
L 201.214145 206.656031 
L 201.572994 206.656031 
L 201.607391 205.466753 
L 202.122393 205.466753 
L 202.122393 205.228897 
L 203.341317 205.228897 
L 203.359319 204.753186 
L 203.740339 204.753186 
L 203.840873 199.282508 
L 203.855187 199.282508 
L 203.890129 198.331085 
L 204.3613 198.331085 
L 204.3613 198.09323 
L 204.827594 198.09323 
L 204.827594 197.855374 
L 205.183312 197.855374 
L 205.183312 197.617518 
L 206.277529 197.617518 
L 206.368613 191.195418 
L 206.396121 191.195418 
L 206.497525 189.292573 
L 206.508452 189.292573 
L 206.579313 184.535461 
L 206.633626 184.535461 
L 206.644469 183.821894 
L 206.780777 183.821894 
L 206.780777 183.584039 
L 206.92803 183.584039 
L 206.975288 182.632616 
L 207.056194 182.632616 
L 207.163708 177.399793 
L 207.196555 177.399793 
L 207.277751 176.210515 
L 207.441605 176.210515 
L 207.508781 175.496949 
L 207.74188 175.496949 
L 207.823114 175.021237 
L 207.907123 175.021237 
L 207.91972 174.545526 
L 208.279306 174.545526 
L 208.329197 174.069815 
L 208.423659 174.069815 
L 208.423659 173.831959 
L 208.649752 173.831959 
L 208.745501 172.16697 
L 209.050302 172.16697 
L 209.150925 170.264126 
L 209.371896 170.264126 
L 209.469534 169.550559 
L 209.738232 169.550559 
L 209.832153 168.599136 
L 209.879487 168.599136 
L 209.886801 168.123425 
L 210.003411 168.123425 
L 210.07868 167.409858 
L 210.300361 167.409858 
L 210.390218 166.458436 
L 210.412064 166.458436 
L 210.492114 165.269158 
L 210.705413 165.269158 
L 210.705413 165.031303 
L 211.315067 165.031303 
L 211.338891 163.842025 
L 212.180512 163.842025 
L 212.203184 162.890602 
L 212.628915 162.890602 
L 212.73864 161.463469 
L 212.744371 161.463469 
L 212.831058 155.99279 
L 213.121303 155.99279 
L 213.121303 155.754935 
L 213.39806 155.754935 
L 213.504894 151.235678 
L 213.514034 151.235678 
L 213.621978 150.0464 
L 213.676832 150.0464 
L 213.676832 149.808545 
L 213.815687 149.808545 
L 213.873964 149.332834 
L 213.967695 149.332834 
L 213.967695 149.094978 
L 214.079069 149.094978 
L 214.170827 148.143556 
L 214.191494 148.143556 
L 214.294027 147.429989 
L 214.314112 147.429989 
L 214.314112 147.192133 
L 214.67132 147.192133 
L 214.782127 146.478567 
L 214.795292 146.478567 
L 214.795292 146.240711 
L 215.064047 146.240711 
L 215.16159 144.575722 
L 215.297818 144.575722 
L 215.325018 144.100011 
L 215.632386 144.100011 
L 215.678451 143.386444 
L 216.033168 143.386444 
L 216.033168 143.148588 
L 216.229767 143.148588 
L 216.313238 135.299354 
L 216.347447 135.299354 
L 216.426493 134.823643 
L 216.612613 134.823643 
L 216.627906 134.110076 
L 216.749012 134.110076 
L 216.749012 133.87222 
L 216.909191 133.87222 
L 216.918965 133.396509 
L 217.063439 133.396509 
L 217.063439 133.158653 
L 217.380351 133.158653 
L 217.428599 131.969376 
L 217.809499 131.969376 
L 217.809499 131.73152 
L 217.928374 131.73152 
L 217.966993 131.255809 
L 218.151117 131.255809 
L 218.186801 130.780098 
L 218.26317 130.780098 
L 218.311123 130.066531 
L 218.381422 130.066531 
L 218.482048 129.59082 
L 218.493727 129.59082 
L 218.592344 128.639397 
L 218.655738 128.639397 
L 218.7504 127.687975 
L 218.880524 127.687975 
L 218.976983 126.736553 
L 219.21055 126.736553 
L 219.21055 126.498697 
L 219.367699 126.498697 
L 219.367699 126.260841 
L 219.57645 126.260841 
L 219.671713 125.547275 
L 219.754325 125.547275 
L 219.754325 125.309419 
L 219.94526 125.309419 
L 219.94526 125.071563 
L 220.212093 125.071563 
L 220.212093 124.833708 
L 220.411341 124.833708 
L 220.424257 124.120141 
L 220.529379 124.120141 
L 220.588861 123.406574 
L 220.763988 123.406574 
L 220.763988 123.168719 
L 221.199263 123.168719 
L 221.199263 122.930863 
L 221.653757 122.930863 
L 221.703819 122.455152 
L 221.940161 122.455152 
L 221.940161 122.217296 
L 222.143844 122.217296 
L 222.143844 121.979441 
L 222.355909 121.979441 
L 222.355909 121.741585 
L 222.584449 121.741585 
L 222.644908 120.076596 
L 222.72349 120.076596 
L 222.815125 119.363029 
L 222.883871 119.363029 
L 222.940642 118.887318 
L 223.167998 118.887318 
L 223.220711 118.411607 
L 223.283183 118.411607 
L 223.300656 117.69804 
L 223.400464 117.69804 
L 223.400464 117.460184 
L 223.52211 117.460184 
L 223.628082 116.033051 
L 223.706185 116.033051 
L 223.706185 115.795195 
L 223.828759 115.795195 
L 223.906726 114.605917 
L 224.093783 114.605917 
L 224.171321 113.892351 
L 224.226036 113.892351 
L 224.226036 113.654495 
L 224.501201 113.654495 
L 224.602855 113.178784 
L 224.924984 113.178784 
L 225.034828 112.227362 
L 225.142108 112.227362 
L 225.183338 111.75165 
L 225.302265 111.75165 
L 225.4063 111.275939 
L 225.460274 111.275939 
L 225.501219 110.800228 
L 225.598138 110.800228 
L 225.684066 109.373094 
L 225.915122 109.373094 
L 225.975821 108.421672 
L 226.253095 108.421672 
L 226.326661 107.708105 
L 226.500446 107.708105 
L 226.510424 107.232394 
L 226.873089 107.232394 
L 226.981067 106.280972 
L 227.074321 106.280972 
L 227.181064 105.329549 
L 227.230863 105.329549 
L 227.33438 104.615983 
L 227.377349 104.615983 
L 227.413624 103.902416 
L 227.604065 103.902416 
L 227.617908 103.188849 
L 227.858206 103.188849 
L 227.948294 102.713138 
L 228.04924 102.713138 
L 228.07939 102.237427 
L 228.229953 102.237427 
L 228.324792 101.761716 
L 228.369095 101.761716 
L 228.369095 101.52386 
L 228.498817 101.52386 
L 228.543067 101.048149 
L 228.618938 101.048149 
L 228.665759 100.334582 
L 228.870745 100.334582 
L 228.904236 99.145304 
L 229.074099 99.145304 
L 229.074099 98.907448 
L 229.196284 98.907448 
L 229.213007 98.431737 
L 229.307463 98.431737 
L 229.362972 97.480315 
L 229.45589 97.480315 
L 229.560335 97.004604 
L 229.680618 97.004604 
L 229.754948 96.053181 
L 229.849388 96.053181 
L 229.849388 95.815326 
L 230.090514 95.815326 
L 230.18474 94.863903 
L 230.256607 94.863903 
L 230.353768 94.388192 
L 230.685282 94.388192 
L 230.685282 94.150337 
L 230.92345 94.150337 
L 230.92345 93.912481 
L 231.202704 93.912481 
L 231.202704 93.674625 
L 231.333437 93.674625 
L 231.43232 92.723203 
L 231.471357 92.723203 
L 231.550633 91.533925 
L 231.621141 91.533925 
L 231.721144 90.582503 
L 231.77478 90.582503 
L 231.858597 89.868936 
L 232.035618 89.868936 
L 232.035618 89.63108 
L 232.332879 89.63108 
L 232.332879 89.393225 
L 232.499022 89.393225 
L 232.598871 88.917514 
L 232.676392 88.917514 
L 232.719277 88.441802 
L 232.912167 88.441802 
L 232.920127 87.966091 
L 233.024169 87.966091 
L 233.055782 87.49038 
L 233.23793 87.49038 
L 233.318392 87.014669 
L 233.525844 87.014669 
L 233.525844 86.776813 
L 233.665808 86.776813 
L 233.705756 86.063247 
L 233.797234 86.063247 
L 233.881131 85.587535 
L 234.013913 85.587535 
L 234.115854 84.636113 
L 234.13491 84.636113 
L 234.218318 83.922546 
L 234.26022 83.922546 
L 234.323924 83.446835 
L 234.375936 83.446835 
L 234.486635 82.733268 
L 234.517214 82.733268 
L 234.517214 82.495413 
L 234.643897 82.495413 
L 234.684926 81.54399 
L 234.936718 81.54399 
L 235.005331 80.830424 
L 235.08787 80.830424 
L 235.18453 79.879001 
L 235.202455 79.879001 
L 235.267539 79.165434 
L 235.455896 79.165434 
L 235.521207 78.451868 
L 235.700971 78.451868 
L 235.700971 78.214012 
L 235.98779 78.214012 
L 236.022638 77.738301 
L 236.109391 77.738301 
L 236.109391 77.500445 
L 236.36179 77.500445 
L 236.458034 77.024734 
L 236.475432 77.024734 
L 236.521781 76.549023 
L 236.595636 76.549023 
L 236.678018 76.073312 
L 237.11302 76.073312 
L 237.11302 75.835456 
L 237.2451 75.835456 
L 237.247209 75.359745 
L 237.436903 75.359745 
L 237.523142 74.646178 
L 237.579555 74.646178 
L 237.658687 74.170467 
L 237.840244 74.170467 
L 237.950641 72.981189 
L 238.008046 72.981189 
L 238.09408 72.267622 
L 238.127306 72.267622 
L 238.164137 71.791911 
L 238.435237 71.791911 
L 238.482669 71.078344 
L 238.670364 71.078344 
L 238.724267 70.602633 
L 238.8981 70.602633 
L 238.965855 70.126922 
L 239.189056 70.126922 
L 239.189056 69.889066 
L 239.525583 69.889066 
L 239.607226 69.1755 
L 239.667189 69.1755 
L 239.699994 68.461933 
L 239.936457 68.461933 
L 239.949506 67.986222 
L 240.237296 67.986222 
L 240.237296 67.748366 
L 240.356801 67.748366 
L 240.462053 66.321233 
L 240.955135 66.321233 
L 241.059766 65.131955 
L 241.092029 65.131955 
L 241.092029 64.894099 
L 241.273395 64.894099 
L 241.273395 64.656243 
L 241.426824 64.656243 
L 241.496563 64.180532 
L 241.628286 64.180532 
L 241.649051 63.704821 
L 241.786496 63.704821 
L 241.82186 63.22911 
L 242.034957 63.22911 
L 242.034957 62.991254 
L 242.242051 62.991254 
L 242.242051 62.753399 
L 242.430794 62.753399 
L 242.430794 62.515543 
L 242.582092 62.515543 
L 242.622166 62.039832 
L 242.82091 62.039832 
L 242.82091 61.801976 
L 243.121619 61.801976 
L 243.196827 61.326265 
L 243.325038 61.326265 
L 243.391305 60.612698 
L 244.358562 60.612698 
L 244.441198 60.136987 
L 244.762249 60.136987 
L 244.782795 59.661276 
L 244.884103 59.661276 
L 244.91734 59.185565 
L 245.119842 59.185565 
L 245.212615 58.471998 
L 245.268915 58.471998 
L 245.368476 57.996287 
L 245.653451 57.996287 
L 245.653451 57.758431 
L 245.832742 57.758431 
L 245.832742 57.520576 
L 246.039388 57.520576 
L 246.051343 57.044865 
L 246.674119 57.044865 
L 246.688647 56.569153 
L 246.869197 56.569153 
L 246.940843 56.093442 
L 247.172742 56.093442 
L 247.253256 55.617731 
L 247.429716 55.617731 
L 247.429716 55.379875 
L 247.752051 55.379875 
L 247.752051 55.14202 
L 248.003472 55.14202 
L 248.003472 54.904164 
L 248.146972 54.904164 
L 248.245957 54.428453 
L 248.273558 54.428453 
L 248.362789 53.952742 
L 248.385196 53.952742 
L 248.489976 53.477031 
L 248.589301 53.477031 
L 248.632776 53.001319 
L 248.8477 53.001319 
L 248.8477 52.763464 
L 249.164194 52.763464 
L 249.270878 51.812042 
L 249.345563 51.812042 
L 249.345563 51.574186 
L 249.792042 51.574186 
L 249.792042 51.33633 
L 250.434188 51.33633 
L 250.496337 50.860619 
L 250.597105 50.860619 
L 250.597105 50.622764 
L 250.761321 50.622764 
L 250.761321 50.384908 
L 250.88294 50.384908 
L 250.982891 49.909197 
L 251.093397 49.909197 
L 251.093397 49.671341 
L 251.534746 49.671341 
L 251.534746 49.433486 
L 251.699921 49.433486 
L 251.699921 49.19563 
L 252.450425 49.19563 
L 252.450425 48.957774 
L 253.050463 48.957774 
L 253.050463 48.719919 
L 253.204387 48.719919 
L 253.204387 48.482063 
L 253.583542 48.482063 
L 253.649989 48.006352 
L 253.995122 48.006352 
L 253.995122 47.768496 
L 254.299925 47.768496 
L 254.299925 47.530641 
L 254.776698 47.530641 
L 254.776698 47.292785 
L 255.218389 47.292785 
L 255.279609 46.817074 
L 255.361648 46.817074 
L 255.454525 46.341363 
L 255.543094 46.341363 
L 255.610749 45.865652 
L 255.929901 45.865652 
L 255.936281 45.389941 
L 256.072431 45.389941 
L 256.072431 45.152085 
L 256.640587 45.152085 
L 256.640587 44.914229 
L 257.017173 44.914229 
L 257.068793 44.438518 
L 257.269783 44.438518 
L 257.269783 44.200663 
L 258.044101 44.200663 
L 258.141771 43.724951 
L 258.174759 43.724951 
L 258.174759 43.487096 
L 258.348938 43.487096 
L 258.348938 43.24924 
L 258.660209 43.24924 
L 258.670947 42.773529 
L 258.980112 42.773529 
L 258.980112 42.535674 
L 259.467615 42.535674 
L 259.467615 42.297818 
L 259.75281 42.297818 
L 259.75281 42.059962 
L 259.93781 42.059962 
L 259.93781 41.822107 
L 260.066436 41.822107 
L 260.066436 41.584251 
L 260.390098 41.584251 
L 260.485706 41.10854 
L 260.558677 41.10854 
L 260.558677 40.870684 
L 260.694857 40.870684 
L 260.694857 40.632829 
L 261.01883 40.632829 
L 261.01883 40.394973 
L 261.518932 40.394973 
L 261.518932 40.157118 
L 262.75489 40.157118 
L 262.763164 39.681406 
L 262.900621 39.681406 
L 262.900621 39.443551 
L 263.658199 39.443551 
L 263.658199 39.205695 
L 264.176956 39.205695 
L 264.195179 38.729984 
L 264.683058 38.729984 
L 264.693162 38.254273 
L 264.930587 38.254273 
L 264.930587 38.016417 
L 265.158818 38.016417 
L 265.158818 37.778562 
L 265.949713 37.778562 
L 265.949713 37.540706 
L 266.668693 37.540706 
L 266.668693 37.302851 
L 267.390223 37.302851 
L 267.390223 37.064995 
L 267.565429 37.064995 
L 267.565429 36.827139 
L 269.698915 36.827139 
L 269.698915 36.589284 
L 271.056725 36.589284 
L 271.056725 36.351428 
L 273.275276 36.351428 
L 273.275276 36.113573 
L 275.50894 36.113573 
L 275.50894 35.875717 
L 276.29744 35.875717 
L 276.29744 35.637861 
L 277.453643 35.637861 
L 277.453643 35.400006 
L 280.543618 35.400006 
L 280.543618 35.16215 
L 288.46126 35.16215 
L 288.46126 34.924295 
L 338.688 34.924295 
L 338.688 34.924295 
" style="fill:none;stroke:#0000ff;stroke-linecap:square;stroke-width:1.5;"/>
   </g>
   <g id="line2d_39">
    <defs>
     <path d="M 0 -6 
L -1.347084 -1.854102 
L -5.706339 -1.854102 
L -2.179628 0.708204 
L -3.526712 4.854102 
L -0 2.291796 
L 3.526712 4.854102 
L 2.179628 0.708204 
L 5.706339 -1.854102 
L 1.347084 -1.854102 
z
" id="m03ec28d120" style="stroke:#0000ff;stroke-linejoin:bevel;stroke-width:1.5;"/>
    </defs>
    <g>
     <use style="fill-opacity:0;stroke:#0000ff;stroke-linejoin:bevel;stroke-width:1.5;" x="149.735275" xlink:href="#m03ec28d120" y="297.516866"/>
     <use style="fill-opacity:0;stroke:#0000ff;stroke-linejoin:bevel;stroke-width:1.5;" x="200.99074" xlink:href="#m03ec28d120" y="209.748154"/>
     <use style="fill-opacity:0;stroke:#0000ff;stroke-linejoin:bevel;stroke-width:1.5;" x="264.195179" xlink:href="#m03ec28d120" y="38.96784"/>
     <use style="fill-opacity:0;stroke:#0000ff;stroke-linejoin:bevel;stroke-width:1.5;" x="288.46126" xlink:href="#m03ec28d120" y="34.924295"/>
     <use style="fill-opacity:0;stroke:#0000ff;stroke-linejoin:bevel;stroke-width:1.5;" x="338.688" xlink:href="#m03ec28d120" y="34.924295"/>
    </g>
   </g>
   <g id="line2d_40">
    <path style="fill:none;stroke:#0000ff;stroke-linecap:square;stroke-width:1.5;"/>
    <g/>
   </g>
   <g id="line2d_41">
    <path clip-path="url(#p5f7c896dc6)" d="M 205.838966 197.617518 
" style="fill:none;stroke:#0000ff;stroke-linecap:square;stroke-width:1.5;"/>
    <defs>
     <path d="M -12 12 
L 12 -12 
M -12 -12 
L 12 12 
" id="md05a8e844f" style="stroke:#0000ff;"/>
    </defs>
    <g clip-path="url(#p5f7c896dc6)">
     <use style="fill:#0000ff;stroke:#0000ff;" x="205.838966" xlink:href="#md05a8e844f" y="197.617518"/>
    </g>
   </g>
   <g id="line2d_42">
    <defs>
     <path d="M 0 1.5 
C 0.397805 1.5 0.77937 1.341951 1.06066 1.06066 
C 1.341951 0.77937 1.5 0.397805 1.5 0 
C 1.5 -0.397805 1.341951 -0.77937 1.06066 -1.06066 
C 0.77937 -1.341951 0.397805 -1.5 0 -1.5 
C -0.397805 -1.5 -0.77937 -1.341951 -1.06066 -1.06066 
C -1.341951 -0.77937 -1.5 -0.397805 -1.5 0 
C -1.5 0.397805 -1.341951 0.77937 -1.06066 1.06066 
C -0.77937 1.341951 -0.397805 1.5 0 1.5 
z
" id="md012d4d8aa" style="stroke:#000000;"/>
    </defs>
    <g>
     <use style="stroke:#000000;" x="286.829714" xlink:href="#md012d4d8aa" y="284.672665"/>
     <use style="stroke:#000000;" x="286.829714" xlink:href="#md012d4d8aa" y="284.672665"/>
    </g>
   </g>
   <g id="line2d_43">
    <path d="M 151.668912 298.944 
L 151.668912 298.706144 
L 169.175285 298.706144 
L 169.175285 298.468289 
L 181.292285 298.468289 
L 181.292285 298.230433 
L 181.30967 298.230433 
L 181.30967 297.992578 
L 185.82911 297.992578 
L 185.82911 297.754722 
L 185.91049 297.754722 
L 185.91049 297.516866 
L 185.917162 297.516866 
L 185.917162 297.279011 
L 186.398526 297.279011 
L 186.398526 297.041155 
L 203.496181 297.041155 
L 203.496181 296.8033 
L 208.609549 296.8033 
L 208.609549 296.565444 
L 209.179945 296.565444 
L 209.179945 296.327589 
L 209.247179 296.327589 
L 209.247179 296.089733 
L 209.788084 296.089733 
L 209.788084 295.851877 
L 210.870207 295.851877 
L 210.870207 295.614022 
L 210.877649 295.614022 
L 210.877649 295.376166 
L 212.02546 295.376166 
L 212.02546 295.138311 
L 212.826544 295.138311 
L 212.826544 294.900455 
L 213.279227 294.900455 
L 213.279227 294.662599 
L 214.065574 294.662599 
L 214.065574 294.424744 
L 215.144747 294.424744 
L 215.144747 294.186888 
L 215.973754 294.186888 
L 215.973754 293.949033 
L 216.941689 293.949033 
L 216.941689 293.711177 
L 218.024058 293.711177 
L 218.024058 293.473321 
L 218.027585 293.473321 
L 218.027585 293.235466 
L 218.068273 293.235466 
L 218.068273 292.99761 
L 221.129584 292.99761 
L 221.129584 292.759755 
L 225.913551 292.759755 
L 225.913551 292.521899 
L 226.374041 292.521899 
L 226.374041 292.284043 
L 227.228158 292.284043 
L 227.228158 292.046188 
L 230.050203 292.046188 
L 230.050203 291.808332 
L 230.958686 291.808332 
L 230.958686 291.570477 
L 231.480573 291.570477 
L 231.480573 291.332621 
L 232.419007 291.332621 
L 232.419007 291.094766 
L 234.692795 291.094766 
L 234.692795 290.85691 
L 235.899733 290.85691 
L 235.899733 290.619054 
L 238.466399 290.619054 
L 238.466399 290.381199 
L 238.64935 290.381199 
L 238.64935 290.143343 
L 238.705097 290.143343 
L 238.705097 289.905488 
L 239.774595 289.905488 
L 239.774595 289.667632 
L 240.283425 289.667632 
L 240.283425 289.429776 
L 240.401393 289.429776 
L 240.401393 289.191921 
L 240.881718 289.191921 
L 240.881718 288.954065 
L 243.011312 288.954065 
L 243.011312 288.71621 
L 243.63119 288.71621 
L 243.63119 288.478354 
L 245.556236 288.478354 
L 245.556236 288.240498 
L 245.755379 288.240498 
L 245.755379 288.002643 
L 245.928147 288.002643 
L 245.928147 287.764787 
L 246.823118 287.764787 
L 246.823118 287.526932 
L 247.303183 287.526932 
L 247.303183 287.289076 
L 250.883289 287.289076 
L 250.883289 287.05122 
L 252.349005 287.05122 
L 252.349005 286.813365 
L 253.223497 286.813365 
L 253.223497 286.575509 
L 254.597434 286.575509 
L 254.597434 286.337654 
L 256.929471 286.337654 
L 256.929471 286.099798 
L 257.115912 286.099798 
L 257.115912 285.861943 
L 262.305691 285.861943 
L 262.305691 285.624087 
L 263.59029 285.624087 
L 263.59029 285.386231 
L 275.565135 285.386231 
L 275.565135 285.148376 
L 277.377009 285.148376 
L 277.377009 284.91052 
L 286.829714 284.91052 
L 286.829714 284.672665 
L 338.688 284.672665 
" style="fill:none;stroke:#000000;stroke-linecap:square;stroke-width:1.5;"/>
   </g>
   <g id="line2d_44">
    <defs>
     <path d="M 0 6 
C 1.591219 6 3.117479 5.367802 4.242641 4.242641 
C 5.367802 3.117479 6 1.591219 6 0 
C 6 -1.591219 5.367802 -3.117479 4.242641 -4.242641 
C 3.117479 -5.367802 1.591219 -6 0 -6 
C -1.591219 -6 -3.117479 -5.367802 -4.242641 -4.242641 
C -5.367802 -3.117479 -6 -1.591219 -6 0 
C -6 1.591219 -5.367802 3.117479 -4.242641 4.242641 
C -3.117479 5.367802 -1.591219 6 0 6 
z
" id="m9539f62539" style="stroke:#000000;stroke-width:1.5;"/>
    </defs>
    <g>
     <use style="fill-opacity:0;stroke:#000000;stroke-width:1.5;" x="263.59029" xlink:href="#m9539f62539" y="285.624087"/>
     <use style="fill-opacity:0;stroke:#000000;stroke-width:1.5;" x="286.829714" xlink:href="#m9539f62539" y="284.672665"/>
     <use style="fill-opacity:0;stroke:#000000;stroke-width:1.5;" x="286.829714" xlink:href="#m9539f62539" y="284.672665"/>
     <use style="fill-opacity:0;stroke:#000000;stroke-width:1.5;" x="338.688" xlink:href="#m9539f62539" y="284.672665"/>
    </g>
   </g>
   <g id="line2d_45">
    <path style="fill:none;stroke:#000000;stroke-linecap:square;stroke-width:1.5;"/>
    <g/>
   </g>
   <g id="line2d_46">
    <path clip-path="url(#p5f7c896dc6)" d="M 209.058267 296.565444 
" style="fill:none;stroke:#000000;stroke-linecap:square;stroke-width:1.5;"/>
    <defs>
     <path d="M -12 12 
L 12 -12 
M -12 -12 
L 12 12 
" id="mfa36666b32" style="stroke:#000000;"/>
    </defs>
    <g clip-path="url(#p5f7c896dc6)">
     <use style="stroke:#000000;" x="209.058267" xlink:href="#mfa36666b32" y="296.565444"/>
    </g>
   </g>
   <g id="line2d_47">
    <path clip-path="url(#p5f7c896dc6)" d="M 57.6 298.944 
L 57.6 298.944 
L 57.6 298.944 
L 57.6 298.944 
L 338.688 298.944 
" style="fill:none;stroke:#ff0000;stroke-linecap:square;stroke-width:1.5;"/>
   </g>
   <g id="line2d_48">
    <defs>
     <path d="M -6 6 
L 6 6 
L 6 -6 
L -6 -6 
z
" id="madfaede76c" style="stroke:#ff0000;stroke-linejoin:miter;stroke-width:1.5;"/>
    </defs>
    <g clip-path="url(#p5f7c896dc6)">
     <use style="fill-opacity:0;stroke:#ff0000;stroke-linejoin:miter;stroke-width:1.5;" x="57.6" xlink:href="#madfaede76c" y="298.944"/>
    </g>
   </g>
   <g id="line2d_49">
    <path clip-path="url(#p5f7c896dc6)" style="fill:none;stroke:#ff0000;stroke-linecap:square;stroke-width:1.5;"/>
    <g clip-path="url(#p5f7c896dc6)">
     <use style="fill-opacity:0;stroke:#ff0000;stroke-linejoin:miter;stroke-width:1.5;" x="-1" xlink:href="#madfaede76c" y="591.506376"/>
     <use style="fill-opacity:0;stroke:#ff0000;stroke-linejoin:miter;stroke-width:1.5;" x="338.688" xlink:href="#madfaede76c" y="591.506376"/>
    </g>
   </g>
   <g id="line2d_50">
    <path d="M 338.688 298.944 
L 369.60768 293.092752 
" style="fill:none;stroke:#ff0000;stroke-linecap:square;stroke-width:1.5;"/>
    <g>
     <use style="fill-opacity:0;stroke:#ff0000;stroke-linejoin:miter;stroke-width:1.5;" x="338.688" xlink:href="#madfaede76c" y="298.944"/>
     <use style="fill-opacity:0;stroke:#ff0000;stroke-linejoin:miter;stroke-width:1.5;" x="369.60768" xlink:href="#madfaede76c" y="293.092752"/>
    </g>
   </g>
   <g id="line2d_51">
    <path d="M 338.688 284.672665 
L 369.60768 222.877782 
" style="fill:none;stroke:#000000;stroke-linecap:square;stroke-width:1.5;"/>
    <g>
     <use style="fill-opacity:0;stroke:#000000;stroke-width:1.5;" x="338.688" xlink:href="#m9539f62539" y="284.672665"/>
     <use style="fill-opacity:0;stroke:#000000;stroke-width:1.5;" x="369.60768" xlink:href="#m9539f62539" y="222.877782"/>
    </g>
   </g>
   <g id="line2d_52">
    <path d="M 338.688 34.924295 
L 369.60768 152.662812 
" style="fill:none;stroke:#0000ff;stroke-linecap:square;stroke-width:1.5;"/>
    <g>
     <use style="fill-opacity:0;stroke:#0000ff;stroke-linejoin:bevel;stroke-width:1.5;" x="338.688" xlink:href="#m03ec28d120" y="34.924295"/>
     <use style="fill-opacity:0;stroke:#0000ff;stroke-linejoin:bevel;stroke-width:1.5;" x="369.60768" xlink:href="#m03ec28d120" y="152.662812"/>
    </g>
   </g>
   <g id="line2d_53">
    <path d="M 338.688 6.381624 
L 369.60768 82.447842 
" style="fill:none;stroke:#008000;stroke-linecap:square;stroke-width:1.5;"/>
    <g>
     <use style="fill-opacity:0;stroke:#008000;stroke-linejoin:miter;stroke-width:1.5;" x="338.688" xlink:href="#m695aa11944" y="6.381624"/>
     <use style="fill-opacity:0;stroke:#008000;stroke-linejoin:miter;stroke-width:1.5;" x="369.60768" xlink:href="#m695aa11944" y="82.447842"/>
    </g>
   </g>
   <g id="line2d_54">
    <path d="M 338.688 6.381624 
L 369.60768 12.232871 
" style="fill:none;stroke:#00bfbf;stroke-linecap:square;stroke-width:1.5;"/>
    <g>
     <use style="fill-opacity:0;stroke:#00bfbf;stroke-width:1.5;" x="338.688" xlink:href="#m17164fdc42" y="6.381624"/>
     <use style="fill-opacity:0;stroke:#00bfbf;stroke-width:1.5;" x="369.60768" xlink:href="#m17164fdc42" y="12.232871"/>
    </g>
   </g>
   <g id="line2d_55">
    <path d="M 338.688 298.944 
L 338.688 6.381624 
" style="fill:none;stroke:#000000;stroke-linecap:square;stroke-width:1.5;"/>
   </g>
   <g id="patch_3">
    <path d="M 57.6 298.944 
L 57.6 3.456 
" style="fill:none;stroke:#000000;stroke-linecap:square;stroke-linejoin:miter;stroke-width:0.8;"/>
   </g>
   <g id="patch_4">
    <path d="M 338.688 298.944 
L 338.688 3.456 
" style="fill:none;stroke:#000000;stroke-linecap:square;stroke-linejoin:miter;stroke-width:0.8;"/>
   </g>
   <g id="patch_5">
    <path d="M 57.6 298.944 
L 338.688 298.944 
" style="fill:none;stroke:#000000;stroke-linecap:square;stroke-linejoin:miter;stroke-width:0.8;"/>
   </g>
   <g id="patch_6">
    <path d="M 57.6 3.456 
L 338.688 3.456 
" style="fill:none;stroke:#000000;stroke-linecap:square;stroke-linejoin:miter;stroke-width:0.8;"/>
   </g>
   <g id="text_13">
    <!-- 20-D -->
    <g transform="translate(375.22944 297.78369)scale(0.17 -0.17)">
     <defs>
      <path d="M 19.671875 64.796875 
L 19.671875 8.109375 
L 31.59375 8.109375 
Q 46.6875 8.109375 53.6875 14.9375 
Q 60.6875 21.78125 60.6875 36.53125 
Q 60.6875 51.171875 53.6875 57.984375 
Q 46.6875 64.796875 31.59375 64.796875 
z
M 9.8125 72.90625 
L 30.078125 72.90625 
Q 51.265625 72.90625 61.171875 64.09375 
Q 71.09375 55.28125 71.09375 36.53125 
Q 71.09375 17.671875 61.125 8.828125 
Q 51.171875 0 30.078125 0 
L 9.8125 0 
z
" id="DejaVuSans-68"/>
     </defs>
     <use xlink:href="#DejaVuSans-50"/>
     <use x="63.623047" xlink:href="#DejaVuSans-48"/>
     <use x="127.246094" xlink:href="#DejaVuSans-45"/>
     <use x="163.330078" xlink:href="#DejaVuSans-68"/>
    </g>
   </g>
   <g id="text_14">
    <!-- 10-D -->
    <g transform="translate(375.22944 227.56872)scale(0.17 -0.17)">
     <use xlink:href="#DejaVuSans-49"/>
     <use x="63.623047" xlink:href="#DejaVuSans-48"/>
     <use x="127.246094" xlink:href="#DejaVuSans-45"/>
     <use x="163.330078" xlink:href="#DejaVuSans-68"/>
    </g>
   </g>
   <g id="text_15">
    <!-- 5-D -->
    <g transform="translate(375.22944 157.353749)scale(0.17 -0.17)">
     <defs>
      <path d="M 10.796875 72.90625 
L 49.515625 72.90625 
L 49.515625 64.59375 
L 19.828125 64.59375 
L 19.828125 46.734375 
Q 21.96875 47.46875 24.109375 47.828125 
Q 26.265625 48.1875 28.421875 48.1875 
Q 40.625 48.1875 47.75 41.5 
Q 54.890625 34.8125 54.890625 23.390625 
Q 54.890625 11.625 47.5625 5.09375 
Q 40.234375 -1.421875 26.90625 -1.421875 
Q 22.3125 -1.421875 17.546875 -0.640625 
Q 12.796875 0.140625 7.71875 1.703125 
L 7.71875 11.625 
Q 12.109375 9.234375 16.796875 8.0625 
Q 21.484375 6.890625 26.703125 6.890625 
Q 35.15625 6.890625 40.078125 11.328125 
Q 45.015625 15.765625 45.015625 23.390625 
Q 45.015625 31 40.078125 35.4375 
Q 35.15625 39.890625 26.703125 39.890625 
Q 22.75 39.890625 18.8125 39.015625 
Q 14.890625 38.140625 10.796875 36.28125 
z
" id="DejaVuSans-53"/>
     </defs>
     <use xlink:href="#DejaVuSans-53"/>
     <use x="63.623047" xlink:href="#DejaVuSans-45"/>
     <use x="99.707031" xlink:href="#DejaVuSans-68"/>
    </g>
   </g>
   <g id="text_16">
    <!-- 3-D -->
    <g transform="translate(375.22944 87.138779)scale(0.17 -0.17)">
     <defs>
      <path d="M 40.578125 39.3125 
Q 47.65625 37.796875 51.625 33 
Q 55.609375 28.21875 55.609375 21.1875 
Q 55.609375 10.40625 48.1875 4.484375 
Q 40.765625 -1.421875 27.09375 -1.421875 
Q 22.515625 -1.421875 17.65625 -0.515625 
Q 12.796875 0.390625 7.625 2.203125 
L 7.625 11.71875 
Q 11.71875 9.328125 16.59375 8.109375 
Q 21.484375 6.890625 26.8125 6.890625 
Q 36.078125 6.890625 40.9375 10.546875 
Q 45.796875 14.203125 45.796875 21.1875 
Q 45.796875 27.640625 41.28125 31.265625 
Q 36.765625 34.90625 28.71875 34.90625 
L 20.21875 34.90625 
L 20.21875 43.015625 
L 29.109375 43.015625 
Q 36.375 43.015625 40.234375 45.921875 
Q 44.09375 48.828125 44.09375 54.296875 
Q 44.09375 59.90625 40.109375 62.90625 
Q 36.140625 65.921875 28.71875 65.921875 
Q 24.65625 65.921875 20.015625 65.03125 
Q 15.375 64.15625 9.8125 62.3125 
L 9.8125 71.09375 
Q 15.4375 72.65625 20.34375 73.4375 
Q 25.25 74.21875 29.59375 74.21875 
Q 40.828125 74.21875 47.359375 69.109375 
Q 53.90625 64.015625 53.90625 55.328125 
Q 53.90625 49.265625 50.4375 45.09375 
Q 46.96875 40.921875 40.578125 39.3125 
z
" id="DejaVuSans-51"/>
     </defs>
     <use xlink:href="#DejaVuSans-51"/>
     <use x="63.623047" xlink:href="#DejaVuSans-45"/>
     <use x="99.707031" xlink:href="#DejaVuSans-68"/>
    </g>
   </g>
   <g id="text_17">
    <!-- 2-D -->
    <g transform="translate(375.22944 16.923809)scale(0.17 -0.17)">
     <use xlink:href="#DejaVuSans-50"/>
     <use x="63.623047" xlink:href="#DejaVuSans-45"/>
     <use x="99.707031" xlink:href="#DejaVuSans-68"/>
    </g>
   </g>
   <g id="text_18">
    <!-- bbob-constrained f44, f50 -->
    <g transform="translate(60.41088 14.161286)scale(0.102 -0.102)">
     <defs>
      <path d="M 48.6875 27.296875 
Q 48.6875 37.203125 44.609375 42.84375 
Q 40.53125 48.484375 33.40625 48.484375 
Q 26.265625 48.484375 22.1875 42.84375 
Q 18.109375 37.203125 18.109375 27.296875 
Q 18.109375 17.390625 22.1875 11.75 
Q 26.265625 6.109375 33.40625 6.109375 
Q 40.53125 6.109375 44.609375 11.75 
Q 48.6875 17.390625 48.6875 27.296875 
z
M 18.109375 46.390625 
Q 20.953125 51.265625 25.265625 53.625 
Q 29.59375 56 35.59375 56 
Q 45.5625 56 51.78125 48.09375 
Q 58.015625 40.1875 58.015625 27.296875 
Q 58.015625 14.40625 51.78125 6.484375 
Q 45.5625 -1.421875 35.59375 -1.421875 
Q 29.59375 -1.421875 25.265625 0.953125 
Q 20.953125 3.328125 18.109375 8.203125 
L 18.109375 0 
L 9.078125 0 
L 9.078125 75.984375 
L 18.109375 75.984375 
z
" id="DejaVuSans-98"/>
     </defs>
     <use xlink:href="#DejaVuSans-98"/>
     <use x="63.476562" xlink:href="#DejaVuSans-98"/>
     <use x="126.953125" xlink:href="#DejaVuSans-111"/>
     <use x="188.134766" xlink:href="#DejaVuSans-98"/>
     <use x="251.611328" xlink:href="#DejaVuSans-45"/>
     <use x="287.695312" xlink:href="#DejaVuSans-99"/>
     <use x="342.675781" xlink:href="#DejaVuSans-111"/>
     <use x="403.857422" xlink:href="#DejaVuSans-110"/>
     <use x="467.236328" xlink:href="#DejaVuSans-115"/>
     <use x="519.335938" xlink:href="#DejaVuSans-116"/>
     <use x="558.544922" xlink:href="#DejaVuSans-114"/>
     <use x="599.658203" xlink:href="#DejaVuSans-97"/>
     <use x="660.9375" xlink:href="#DejaVuSans-105"/>
     <use x="688.720703" xlink:href="#DejaVuSans-110"/>
     <use x="752.099609" xlink:href="#DejaVuSans-101"/>
     <use x="813.623047" xlink:href="#DejaVuSans-100"/>
     <use x="877.099609" xlink:href="#DejaVuSans-32"/>
     <use x="908.886719" xlink:href="#DejaVuSans-102"/>
     <use x="944.091797" xlink:href="#DejaVuSans-52"/>
     <use x="1007.714844" xlink:href="#DejaVuSans-52"/>
     <use x="1071.337891" xlink:href="#DejaVuSans-44"/>
     <use x="1103.125" xlink:href="#DejaVuSans-32"/>
     <use x="1134.912109" xlink:href="#DejaVuSans-102"/>
     <use x="1170.117188" xlink:href="#DejaVuSans-53"/>
     <use x="1233.740234" xlink:href="#DejaVuSans-48"/>
    </g>
    <!-- 41 targets: 100..1e-06 -->
    <g transform="translate(60.41088 25.583055)scale(0.102 -0.102)">
     <defs>
      <path d="M 11.71875 12.40625 
L 22.015625 12.40625 
L 22.015625 0 
L 11.71875 0 
z
M 11.71875 51.703125 
L 22.015625 51.703125 
L 22.015625 39.3125 
L 11.71875 39.3125 
z
" id="DejaVuSans-58"/>
     </defs>
     <use xlink:href="#DejaVuSans-52"/>
     <use x="63.623047" xlink:href="#DejaVuSans-49"/>
     <use x="127.246094" xlink:href="#DejaVuSans-32"/>
     <use x="159.033203" xlink:href="#DejaVuSans-116"/>
     <use x="198.242188" xlink:href="#DejaVuSans-97"/>
     <use x="259.521484" xlink:href="#DejaVuSans-114"/>
     <use x="298.884766" xlink:href="#DejaVuSans-103"/>
     <use x="362.361328" xlink:href="#DejaVuSans-101"/>
     <use x="423.884766" xlink:href="#DejaVuSans-116"/>
     <use x="463.09375" xlink:href="#DejaVuSans-115"/>
     <use x="515.193359" xlink:href="#DejaVuSans-58"/>
     <use x="548.884766" xlink:href="#DejaVuSans-32"/>
     <use x="580.671875" xlink:href="#DejaVuSans-49"/>
     <use x="644.294922" xlink:href="#DejaVuSans-48"/>
     <use x="707.917969" xlink:href="#DejaVuSans-48"/>
     <use x="771.541016" xlink:href="#DejaVuSans-46"/>
     <use x="803.328125" xlink:href="#DejaVuSans-46"/>
     <use x="835.115234" xlink:href="#DejaVuSans-49"/>
     <use x="898.738281" xlink:href="#DejaVuSans-101"/>
     <use x="960.261719" xlink:href="#DejaVuSans-45"/>
     <use x="996.345703" xlink:href="#DejaVuSans-48"/>
     <use x="1059.96875" xlink:href="#DejaVuSans-54"/>
    </g>
    <!-- 15 instances -->
    <g transform="translate(60.41088 37.004824)scale(0.102 -0.102)">
     <use xlink:href="#DejaVuSans-49"/>
     <use x="63.623047" xlink:href="#DejaVuSans-53"/>
     <use x="127.246094" xlink:href="#DejaVuSans-32"/>
     <use x="159.033203" xlink:href="#DejaVuSans-105"/>
     <use x="186.816406" xlink:href="#DejaVuSans-110"/>
     <use x="250.195312" xlink:href="#DejaVuSans-115"/>
     <use x="302.294922" xlink:href="#DejaVuSans-116"/>
     <use x="341.503906" xlink:href="#DejaVuSans-97"/>
     <use x="402.783203" xlink:href="#DejaVuSans-110"/>
     <use x="466.162109" xlink:href="#DejaVuSans-99"/>
     <use x="521.142578" xlink:href="#DejaVuSans-101"/>
     <use x="582.666016" xlink:href="#DejaVuSans-115"/>
    </g>
   </g>
   <g id="text_19">
    <!-- v2.4.82 -->
    <g style="fill:#808080;" transform="translate(179.2815 293.909432)scale(0.1 -0.1)">
     <use xlink:href="#DejaVuSans-118"/>
     <use x="59.179688" xlink:href="#DejaVuSans-50"/>
     <use x="122.802734" xlink:href="#DejaVuSans-46"/>
     <use x="154.589844" xlink:href="#DejaVuSans-52"/>
     <use x="218.212891" xlink:href="#DejaVuSans-46"/>
     <use x="250" xlink:href="#DejaVuSans-56"/>
     <use x="313.623047" xlink:href="#DejaVuSans-50"/>
    </g>
   </g>
  </g>
 </g>
 <defs>
  <clipPath id="p5f7c896dc6">
   <rect height="295.488" width="281.088" x="57.6" y="3.456"/>
  </clipPath>
 </defs>
</svg>
