<?xml version="1.0" encoding="utf-8" standalone="no"?>
<!DOCTYPE svg PUBLIC "-//W3C//DTD SVG 1.1//EN"
  "http://www.w3.org/Graphics/SVG/1.1/DTD/svg11.dtd">
<!-- Created with matplotlib (https://matplotlib.org/) -->
<svg height="345.6pt" version="1.1" viewBox="0 0 460.8 345.6" width="460.8pt" xmlns="http://www.w3.org/2000/svg" xmlns:xlink="http://www.w3.org/1999/xlink">
 <metadata>
  <rdf:RDF xmlns:cc="http://creativecommons.org/ns#" xmlns:dc="http://purl.org/dc/elements/1.1/" xmlns:rdf="http://www.w3.org/1999/02/22-rdf-syntax-ns#">
   <cc:Work>
    <dc:type rdf:resource="http://purl.org/dc/dcmitype/StillImage"/>
    <dc:date>2022-01-12T20:49:36.432805</dc:date>
    <dc:format>image/svg+xml</dc:format>
    <dc:creator>
     <cc:Agent>
      <dc:title>Matplotlib v3.3.3, https://matplotlib.org/</dc:title>
     </cc:Agent>
    </dc:creator>
   </cc:Work>
  </rdf:RDF>
 </metadata>
 <defs>
  <style type="text/css">*{stroke-linecap:butt;stroke-linejoin:round;}</style>
 </defs>
 <g id="figure_1">
  <g id="patch_1">
   <path d="M 0 345.6 
L 460.8 345.6 
L 460.8 0 
L 0 0 
z
" style="fill:#ffffff;"/>
  </g>
  <g id="axes_1">
   <g id="patch_2">
    <path d="M 57.6 298.944 
L 338.688 298.944 
L 338.688 3.456 
L 57.6 3.456 
z
" style="fill:#ffffff;"/>
   </g>
   <g id="matplotlib.axis_1">
    <g id="xtick_1">
     <g id="line2d_1">
      <path clip-path="url(#p6f4ec1902b)" d="M 57.6 298.944 
L 57.6 3.456 
" style="fill:none;stroke:#b0b0b0;stroke-linecap:square;stroke-width:0.8;"/>
     </g>
     <g id="line2d_2">
      <defs>
       <path d="M 0 0 
L 0 3.5 
" id="m71fc30cd1c" style="stroke:#000000;stroke-width:0.8;"/>
      </defs>
      <g>
       <use style="stroke:#000000;stroke-width:0.8;" x="57.6" xlink:href="#m71fc30cd1c" y="298.944"/>
      </g>
     </g>
     <g id="text_1">
      <!-- 0 -->
      <g transform="translate(51.2375 321.140875)scale(0.2 -0.2)">
       <defs>
        <path d="M 31.78125 66.40625 
Q 24.171875 66.40625 20.328125 58.90625 
Q 16.5 51.421875 16.5 36.375 
Q 16.5 21.390625 20.328125 13.890625 
Q 24.171875 6.390625 31.78125 6.390625 
Q 39.453125 6.390625 43.28125 13.890625 
Q 47.125 21.390625 47.125 36.375 
Q 47.125 51.421875 43.28125 58.90625 
Q 39.453125 66.40625 31.78125 66.40625 
z
M 31.78125 74.21875 
Q 44.046875 74.21875 50.515625 64.515625 
Q 56.984375 54.828125 56.984375 36.375 
Q 56.984375 17.96875 50.515625 8.265625 
Q 44.046875 -1.421875 31.78125 -1.421875 
Q 19.53125 -1.421875 13.0625 8.265625 
Q 6.59375 17.96875 6.59375 36.375 
Q 6.59375 54.828125 13.0625 64.515625 
Q 19.53125 74.21875 31.78125 74.21875 
z
" id="DejaVuSans-48"/>
       </defs>
       <use xlink:href="#DejaVuSans-48"/>
      </g>
     </g>
    </g>
    <g id="xtick_2">
     <g id="line2d_3">
      <path clip-path="url(#p6f4ec1902b)" d="M 137.910857 298.944 
L 137.910857 3.456 
" style="fill:none;stroke:#b0b0b0;stroke-linecap:square;stroke-width:0.8;"/>
     </g>
     <g id="line2d_4">
      <g>
       <use style="stroke:#000000;stroke-width:0.8;" x="137.910857" xlink:href="#m71fc30cd1c" y="298.944"/>
      </g>
     </g>
     <g id="text_2">
      <!-- 2 -->
      <g transform="translate(131.548357 321.140875)scale(0.2 -0.2)">
       <defs>
        <path d="M 19.1875 8.296875 
L 53.609375 8.296875 
L 53.609375 0 
L 7.328125 0 
L 7.328125 8.296875 
Q 12.9375 14.109375 22.625 23.890625 
Q 32.328125 33.6875 34.8125 36.53125 
Q 39.546875 41.84375 41.421875 45.53125 
Q 43.3125 49.21875 43.3125 52.78125 
Q 43.3125 58.59375 39.234375 62.25 
Q 35.15625 65.921875 28.609375 65.921875 
Q 23.96875 65.921875 18.8125 64.3125 
Q 13.671875 62.703125 7.8125 59.421875 
L 7.8125 69.390625 
Q 13.765625 71.78125 18.9375 73 
Q 24.125 74.21875 28.421875 74.21875 
Q 39.75 74.21875 46.484375 68.546875 
Q 53.21875 62.890625 53.21875 53.421875 
Q 53.21875 48.921875 51.53125 44.890625 
Q 49.859375 40.875 45.40625 35.40625 
Q 44.1875 33.984375 37.640625 27.21875 
Q 31.109375 20.453125 19.1875 8.296875 
z
" id="DejaVuSans-50"/>
       </defs>
       <use xlink:href="#DejaVuSans-50"/>
      </g>
     </g>
    </g>
    <g id="xtick_3">
     <g id="line2d_5">
      <path clip-path="url(#p6f4ec1902b)" d="M 218.221714 298.944 
L 218.221714 3.456 
" style="fill:none;stroke:#b0b0b0;stroke-linecap:square;stroke-width:0.8;"/>
     </g>
     <g id="line2d_6">
      <g>
       <use style="stroke:#000000;stroke-width:0.8;" x="218.221714" xlink:href="#m71fc30cd1c" y="298.944"/>
      </g>
     </g>
     <g id="text_3">
      <!-- 4 -->
      <g transform="translate(211.859214 321.140875)scale(0.2 -0.2)">
       <defs>
        <path d="M 37.796875 64.3125 
L 12.890625 25.390625 
L 37.796875 25.390625 
z
M 35.203125 72.90625 
L 47.609375 72.90625 
L 47.609375 25.390625 
L 58.015625 25.390625 
L 58.015625 17.1875 
L 47.609375 17.1875 
L 47.609375 0 
L 37.796875 0 
L 37.796875 17.1875 
L 4.890625 17.1875 
L 4.890625 26.703125 
z
" id="DejaVuSans-52"/>
       </defs>
       <use xlink:href="#DejaVuSans-52"/>
      </g>
     </g>
    </g>
    <g id="xtick_4">
     <g id="line2d_7">
      <path clip-path="url(#p6f4ec1902b)" d="M 298.532571 298.944 
L 298.532571 3.456 
" style="fill:none;stroke:#b0b0b0;stroke-linecap:square;stroke-width:0.8;"/>
     </g>
     <g id="line2d_8">
      <g>
       <use style="stroke:#000000;stroke-width:0.8;" x="298.532571" xlink:href="#m71fc30cd1c" y="298.944"/>
      </g>
     </g>
     <g id="text_4">
      <!-- 6 -->
      <g transform="translate(292.170071 321.140875)scale(0.2 -0.2)">
       <defs>
        <path d="M 33.015625 40.375 
Q 26.375 40.375 22.484375 35.828125 
Q 18.609375 31.296875 18.609375 23.390625 
Q 18.609375 15.53125 22.484375 10.953125 
Q 26.375 6.390625 33.015625 6.390625 
Q 39.65625 6.390625 43.53125 10.953125 
Q 47.40625 15.53125 47.40625 23.390625 
Q 47.40625 31.296875 43.53125 35.828125 
Q 39.65625 40.375 33.015625 40.375 
z
M 52.59375 71.296875 
L 52.59375 62.3125 
Q 48.875 64.0625 45.09375 64.984375 
Q 41.3125 65.921875 37.59375 65.921875 
Q 27.828125 65.921875 22.671875 59.328125 
Q 17.53125 52.734375 16.796875 39.40625 
Q 19.671875 43.65625 24.015625 45.921875 
Q 28.375 48.1875 33.59375 48.1875 
Q 44.578125 48.1875 50.953125 41.515625 
Q 57.328125 34.859375 57.328125 23.390625 
Q 57.328125 12.15625 50.6875 5.359375 
Q 44.046875 -1.421875 33.015625 -1.421875 
Q 20.359375 -1.421875 13.671875 8.265625 
Q 6.984375 17.96875 6.984375 36.375 
Q 6.984375 53.65625 15.1875 63.9375 
Q 23.390625 74.21875 37.203125 74.21875 
Q 40.921875 74.21875 44.703125 73.484375 
Q 48.484375 72.75 52.59375 71.296875 
z
" id="DejaVuSans-54"/>
       </defs>
       <use xlink:href="#DejaVuSans-54"/>
      </g>
     </g>
    </g>
    <g id="xtick_5">
     <g id="line2d_9">
      <path clip-path="url(#p6f4ec1902b)" d="M 97.755429 298.944 
L 97.755429 3.456 
" style="fill:none;stroke:#b0b0b0;stroke-linecap:square;stroke-width:0.8;"/>
     </g>
     <g id="line2d_10">
      <defs>
       <path d="M 0 0 
L 0 2 
" id="mea4ba63e7c" style="stroke:#000000;stroke-width:0.6;"/>
      </defs>
      <g>
       <use style="stroke:#000000;stroke-width:0.6;" x="97.755429" xlink:href="#mea4ba63e7c" y="298.944"/>
      </g>
     </g>
    </g>
    <g id="xtick_6">
     <g id="line2d_11">
      <path clip-path="url(#p6f4ec1902b)" d="M 178.066286 298.944 
L 178.066286 3.456 
" style="fill:none;stroke:#b0b0b0;stroke-linecap:square;stroke-width:0.8;"/>
     </g>
     <g id="line2d_12">
      <g>
       <use style="stroke:#000000;stroke-width:0.6;" x="178.066286" xlink:href="#mea4ba63e7c" y="298.944"/>
      </g>
     </g>
    </g>
    <g id="xtick_7">
     <g id="line2d_13">
      <path clip-path="url(#p6f4ec1902b)" d="M 258.377143 298.944 
L 258.377143 3.456 
" style="fill:none;stroke:#b0b0b0;stroke-linecap:square;stroke-width:0.8;"/>
     </g>
     <g id="line2d_14">
      <g>
       <use style="stroke:#000000;stroke-width:0.6;" x="258.377143" xlink:href="#mea4ba63e7c" y="298.944"/>
      </g>
     </g>
    </g>
    <g id="xtick_8">
     <g id="line2d_15">
      <path clip-path="url(#p6f4ec1902b)" d="M 338.688 298.944 
L 338.688 3.456 
" style="fill:none;stroke:#b0b0b0;stroke-linecap:square;stroke-width:0.8;"/>
     </g>
     <g id="line2d_16">
      <g>
       <use style="stroke:#000000;stroke-width:0.6;" x="338.688" xlink:href="#mea4ba63e7c" y="298.944"/>
      </g>
     </g>
    </g>
    <g id="text_5">
     <!-- log10(# (f+g)-evals / dimension) -->
     <g transform="translate(58.145016 342.217594)scale(0.17 -0.17)">
      <defs>
       <path d="M 9.421875 75.984375 
L 18.40625 75.984375 
L 18.40625 0 
L 9.421875 0 
z
" id="DejaVuSans-108"/>
       <path d="M 30.609375 48.390625 
Q 23.390625 48.390625 19.1875 42.75 
Q 14.984375 37.109375 14.984375 27.296875 
Q 14.984375 17.484375 19.15625 11.84375 
Q 23.34375 6.203125 30.609375 6.203125 
Q 37.796875 6.203125 41.984375 11.859375 
Q 46.1875 17.53125 46.1875 27.296875 
Q 46.1875 37.015625 41.984375 42.703125 
Q 37.796875 48.390625 30.609375 48.390625 
z
M 30.609375 56 
Q 42.328125 56 49.015625 48.375 
Q 55.71875 40.765625 55.71875 27.296875 
Q 55.71875 13.875 49.015625 6.21875 
Q 42.328125 -1.421875 30.609375 -1.421875 
Q 18.84375 -1.421875 12.171875 6.21875 
Q 5.515625 13.875 5.515625 27.296875 
Q 5.515625 40.765625 12.171875 48.375 
Q 18.84375 56 30.609375 56 
z
" id="DejaVuSans-111"/>
       <path d="M 45.40625 27.984375 
Q 45.40625 37.75 41.375 43.109375 
Q 37.359375 48.484375 30.078125 48.484375 
Q 22.859375 48.484375 18.828125 43.109375 
Q 14.796875 37.75 14.796875 27.984375 
Q 14.796875 18.265625 18.828125 12.890625 
Q 22.859375 7.515625 30.078125 7.515625 
Q 37.359375 7.515625 41.375 12.890625 
Q 45.40625 18.265625 45.40625 27.984375 
z
M 54.390625 6.78125 
Q 54.390625 -7.171875 48.1875 -13.984375 
Q 42 -20.796875 29.203125 -20.796875 
Q 24.46875 -20.796875 20.265625 -20.09375 
Q 16.0625 -19.390625 12.109375 -17.921875 
L 12.109375 -9.1875 
Q 16.0625 -11.328125 19.921875 -12.34375 
Q 23.78125 -13.375 27.78125 -13.375 
Q 36.625 -13.375 41.015625 -8.765625 
Q 45.40625 -4.15625 45.40625 5.171875 
L 45.40625 9.625 
Q 42.625 4.78125 38.28125 2.390625 
Q 33.9375 0 27.875 0 
Q 17.828125 0 11.671875 7.65625 
Q 5.515625 15.328125 5.515625 27.984375 
Q 5.515625 40.671875 11.671875 48.328125 
Q 17.828125 56 27.875 56 
Q 33.9375 56 38.28125 53.609375 
Q 42.625 51.21875 45.40625 46.390625 
L 45.40625 54.6875 
L 54.390625 54.6875 
z
" id="DejaVuSans-103"/>
       <path d="M 12.40625 8.296875 
L 28.515625 8.296875 
L 28.515625 63.921875 
L 10.984375 60.40625 
L 10.984375 69.390625 
L 28.421875 72.90625 
L 38.28125 72.90625 
L 38.28125 8.296875 
L 54.390625 8.296875 
L 54.390625 0 
L 12.40625 0 
z
" id="DejaVuSans-49"/>
       <path d="M 31 75.875 
Q 24.46875 64.65625 21.28125 53.65625 
Q 18.109375 42.671875 18.109375 31.390625 
Q 18.109375 20.125 21.3125 9.0625 
Q 24.515625 -2 31 -13.1875 
L 23.1875 -13.1875 
Q 15.875 -1.703125 12.234375 9.375 
Q 8.59375 20.453125 8.59375 31.390625 
Q 8.59375 42.28125 12.203125 53.3125 
Q 15.828125 64.359375 23.1875 75.875 
z
" id="DejaVuSans-40"/>
       <path d="M 51.125 44 
L 36.921875 44 
L 32.8125 27.6875 
L 47.125 27.6875 
z
M 43.796875 71.78125 
L 38.71875 51.515625 
L 52.984375 51.515625 
L 58.109375 71.78125 
L 65.921875 71.78125 
L 60.890625 51.515625 
L 76.125 51.515625 
L 76.125 44 
L 58.984375 44 
L 54.984375 27.6875 
L 70.515625 27.6875 
L 70.515625 20.21875 
L 53.078125 20.21875 
L 48 0 
L 40.1875 0 
L 45.21875 20.21875 
L 30.90625 20.21875 
L 25.875 0 
L 18.015625 0 
L 23.09375 20.21875 
L 7.71875 20.21875 
L 7.71875 27.6875 
L 24.90625 27.6875 
L 29 44 
L 13.28125 44 
L 13.28125 51.515625 
L 30.90625 51.515625 
L 35.890625 71.78125 
z
" id="DejaVuSans-35"/>
       <path id="DejaVuSans-32"/>
       <path d="M 37.109375 75.984375 
L 37.109375 68.5 
L 28.515625 68.5 
Q 23.6875 68.5 21.796875 66.546875 
Q 19.921875 64.59375 19.921875 59.515625 
L 19.921875 54.6875 
L 34.71875 54.6875 
L 34.71875 47.703125 
L 19.921875 47.703125 
L 19.921875 0 
L 10.890625 0 
L 10.890625 47.703125 
L 2.296875 47.703125 
L 2.296875 54.6875 
L 10.890625 54.6875 
L 10.890625 58.5 
Q 10.890625 67.625 15.140625 71.796875 
Q 19.390625 75.984375 28.609375 75.984375 
z
" id="DejaVuSans-102"/>
       <path d="M 46 62.703125 
L 46 35.5 
L 73.1875 35.5 
L 73.1875 27.203125 
L 46 27.203125 
L 46 0 
L 37.796875 0 
L 37.796875 27.203125 
L 10.59375 27.203125 
L 10.59375 35.5 
L 37.796875 35.5 
L 37.796875 62.703125 
z
" id="DejaVuSans-43"/>
       <path d="M 8.015625 75.875 
L 15.828125 75.875 
Q 23.140625 64.359375 26.78125 53.3125 
Q 30.421875 42.28125 30.421875 31.390625 
Q 30.421875 20.453125 26.78125 9.375 
Q 23.140625 -1.703125 15.828125 -13.1875 
L 8.015625 -13.1875 
Q 14.5 -2 17.703125 9.0625 
Q 20.90625 20.125 20.90625 31.390625 
Q 20.90625 42.671875 17.703125 53.65625 
Q 14.5 64.65625 8.015625 75.875 
z
" id="DejaVuSans-41"/>
       <path d="M 4.890625 31.390625 
L 31.203125 31.390625 
L 31.203125 23.390625 
L 4.890625 23.390625 
z
" id="DejaVuSans-45"/>
       <path d="M 56.203125 29.59375 
L 56.203125 25.203125 
L 14.890625 25.203125 
Q 15.484375 15.921875 20.484375 11.0625 
Q 25.484375 6.203125 34.421875 6.203125 
Q 39.59375 6.203125 44.453125 7.46875 
Q 49.3125 8.734375 54.109375 11.28125 
L 54.109375 2.78125 
Q 49.265625 0.734375 44.1875 -0.34375 
Q 39.109375 -1.421875 33.890625 -1.421875 
Q 20.796875 -1.421875 13.15625 6.1875 
Q 5.515625 13.8125 5.515625 26.8125 
Q 5.515625 40.234375 12.765625 48.109375 
Q 20.015625 56 32.328125 56 
Q 43.359375 56 49.78125 48.890625 
Q 56.203125 41.796875 56.203125 29.59375 
z
M 47.21875 32.234375 
Q 47.125 39.59375 43.09375 43.984375 
Q 39.0625 48.390625 32.421875 48.390625 
Q 24.90625 48.390625 20.390625 44.140625 
Q 15.875 39.890625 15.1875 32.171875 
z
" id="DejaVuSans-101"/>
       <path d="M 2.984375 54.6875 
L 12.5 54.6875 
L 29.59375 8.796875 
L 46.6875 54.6875 
L 56.203125 54.6875 
L 35.6875 0 
L 23.484375 0 
z
" id="DejaVuSans-118"/>
       <path d="M 34.28125 27.484375 
Q 23.390625 27.484375 19.1875 25 
Q 14.984375 22.515625 14.984375 16.5 
Q 14.984375 11.71875 18.140625 8.90625 
Q 21.296875 6.109375 26.703125 6.109375 
Q 34.1875 6.109375 38.703125 11.40625 
Q 43.21875 16.703125 43.21875 25.484375 
L 43.21875 27.484375 
z
M 52.203125 31.203125 
L 52.203125 0 
L 43.21875 0 
L 43.21875 8.296875 
Q 40.140625 3.328125 35.546875 0.953125 
Q 30.953125 -1.421875 24.3125 -1.421875 
Q 15.921875 -1.421875 10.953125 3.296875 
Q 6 8.015625 6 15.921875 
Q 6 25.140625 12.171875 29.828125 
Q 18.359375 34.515625 30.609375 34.515625 
L 43.21875 34.515625 
L 43.21875 35.40625 
Q 43.21875 41.609375 39.140625 45 
Q 35.0625 48.390625 27.6875 48.390625 
Q 23 48.390625 18.546875 47.265625 
Q 14.109375 46.140625 10.015625 43.890625 
L 10.015625 52.203125 
Q 14.9375 54.109375 19.578125 55.046875 
Q 24.21875 56 28.609375 56 
Q 40.484375 56 46.34375 49.84375 
Q 52.203125 43.703125 52.203125 31.203125 
z
" id="DejaVuSans-97"/>
       <path d="M 44.28125 53.078125 
L 44.28125 44.578125 
Q 40.484375 46.53125 36.375 47.5 
Q 32.28125 48.484375 27.875 48.484375 
Q 21.1875 48.484375 17.84375 46.4375 
Q 14.5 44.390625 14.5 40.28125 
Q 14.5 37.15625 16.890625 35.375 
Q 19.28125 33.59375 26.515625 31.984375 
L 29.59375 31.296875 
Q 39.15625 29.25 43.1875 25.515625 
Q 47.21875 21.78125 47.21875 15.09375 
Q 47.21875 7.46875 41.1875 3.015625 
Q 35.15625 -1.421875 24.609375 -1.421875 
Q 20.21875 -1.421875 15.453125 -0.5625 
Q 10.6875 0.296875 5.421875 2 
L 5.421875 11.28125 
Q 10.40625 8.6875 15.234375 7.390625 
Q 20.0625 6.109375 24.8125 6.109375 
Q 31.15625 6.109375 34.5625 8.28125 
Q 37.984375 10.453125 37.984375 14.40625 
Q 37.984375 18.0625 35.515625 20.015625 
Q 33.0625 21.96875 24.703125 23.78125 
L 21.578125 24.515625 
Q 13.234375 26.265625 9.515625 29.90625 
Q 5.8125 33.546875 5.8125 39.890625 
Q 5.8125 47.609375 11.28125 51.796875 
Q 16.75 56 26.8125 56 
Q 31.78125 56 36.171875 55.265625 
Q 40.578125 54.546875 44.28125 53.078125 
z
" id="DejaVuSans-115"/>
       <path d="M 25.390625 72.90625 
L 33.6875 72.90625 
L 8.296875 -9.28125 
L 0 -9.28125 
z
" id="DejaVuSans-47"/>
       <path d="M 45.40625 46.390625 
L 45.40625 75.984375 
L 54.390625 75.984375 
L 54.390625 0 
L 45.40625 0 
L 45.40625 8.203125 
Q 42.578125 3.328125 38.25 0.953125 
Q 33.9375 -1.421875 27.875 -1.421875 
Q 17.96875 -1.421875 11.734375 6.484375 
Q 5.515625 14.40625 5.515625 27.296875 
Q 5.515625 40.1875 11.734375 48.09375 
Q 17.96875 56 27.875 56 
Q 33.9375 56 38.25 53.625 
Q 42.578125 51.265625 45.40625 46.390625 
z
M 14.796875 27.296875 
Q 14.796875 17.390625 18.875 11.75 
Q 22.953125 6.109375 30.078125 6.109375 
Q 37.203125 6.109375 41.296875 11.75 
Q 45.40625 17.390625 45.40625 27.296875 
Q 45.40625 37.203125 41.296875 42.84375 
Q 37.203125 48.484375 30.078125 48.484375 
Q 22.953125 48.484375 18.875 42.84375 
Q 14.796875 37.203125 14.796875 27.296875 
z
" id="DejaVuSans-100"/>
       <path d="M 9.421875 54.6875 
L 18.40625 54.6875 
L 18.40625 0 
L 9.421875 0 
z
M 9.421875 75.984375 
L 18.40625 75.984375 
L 18.40625 64.59375 
L 9.421875 64.59375 
z
" id="DejaVuSans-105"/>
       <path d="M 52 44.1875 
Q 55.375 50.25 60.0625 53.125 
Q 64.75 56 71.09375 56 
Q 79.640625 56 84.28125 50.015625 
Q 88.921875 44.046875 88.921875 33.015625 
L 88.921875 0 
L 79.890625 0 
L 79.890625 32.71875 
Q 79.890625 40.578125 77.09375 44.375 
Q 74.3125 48.1875 68.609375 48.1875 
Q 61.625 48.1875 57.5625 43.546875 
Q 53.515625 38.921875 53.515625 30.90625 
L 53.515625 0 
L 44.484375 0 
L 44.484375 32.71875 
Q 44.484375 40.625 41.703125 44.40625 
Q 38.921875 48.1875 33.109375 48.1875 
Q 26.21875 48.1875 22.15625 43.53125 
Q 18.109375 38.875 18.109375 30.90625 
L 18.109375 0 
L 9.078125 0 
L 9.078125 54.6875 
L 18.109375 54.6875 
L 18.109375 46.1875 
Q 21.1875 51.21875 25.484375 53.609375 
Q 29.78125 56 35.6875 56 
Q 41.65625 56 45.828125 52.96875 
Q 50 49.953125 52 44.1875 
z
" id="DejaVuSans-109"/>
       <path d="M 54.890625 33.015625 
L 54.890625 0 
L 45.90625 0 
L 45.90625 32.71875 
Q 45.90625 40.484375 42.875 44.328125 
Q 39.84375 48.1875 33.796875 48.1875 
Q 26.515625 48.1875 22.3125 43.546875 
Q 18.109375 38.921875 18.109375 30.90625 
L 18.109375 0 
L 9.078125 0 
L 9.078125 54.6875 
L 18.109375 54.6875 
L 18.109375 46.1875 
Q 21.34375 51.125 25.703125 53.5625 
Q 30.078125 56 35.796875 56 
Q 45.21875 56 50.046875 50.171875 
Q 54.890625 44.34375 54.890625 33.015625 
z
" id="DejaVuSans-110"/>
      </defs>
      <use xlink:href="#DejaVuSans-108"/>
      <use x="27.783203" xlink:href="#DejaVuSans-111"/>
      <use x="88.964844" xlink:href="#DejaVuSans-103"/>
      <use x="152.441406" xlink:href="#DejaVuSans-49"/>
      <use x="216.064453" xlink:href="#DejaVuSans-48"/>
      <use x="279.6875" xlink:href="#DejaVuSans-40"/>
      <use x="318.701172" xlink:href="#DejaVuSans-35"/>
      <use x="402.490234" xlink:href="#DejaVuSans-32"/>
      <use x="434.277344" xlink:href="#DejaVuSans-40"/>
      <use x="473.291016" xlink:href="#DejaVuSans-102"/>
      <use x="508.496094" xlink:href="#DejaVuSans-43"/>
      <use x="592.285156" xlink:href="#DejaVuSans-103"/>
      <use x="655.761719" xlink:href="#DejaVuSans-41"/>
      <use x="694.775391" xlink:href="#DejaVuSans-45"/>
      <use x="730.859375" xlink:href="#DejaVuSans-101"/>
      <use x="792.382812" xlink:href="#DejaVuSans-118"/>
      <use x="851.5625" xlink:href="#DejaVuSans-97"/>
      <use x="912.841797" xlink:href="#DejaVuSans-108"/>
      <use x="940.625" xlink:href="#DejaVuSans-115"/>
      <use x="992.724609" xlink:href="#DejaVuSans-32"/>
      <use x="1024.511719" xlink:href="#DejaVuSans-47"/>
      <use x="1058.203125" xlink:href="#DejaVuSans-32"/>
      <use x="1089.990234" xlink:href="#DejaVuSans-100"/>
      <use x="1153.466797" xlink:href="#DejaVuSans-105"/>
      <use x="1181.25" xlink:href="#DejaVuSans-109"/>
      <use x="1278.662109" xlink:href="#DejaVuSans-101"/>
      <use x="1340.185547" xlink:href="#DejaVuSans-110"/>
      <use x="1403.564453" xlink:href="#DejaVuSans-115"/>
      <use x="1455.664062" xlink:href="#DejaVuSans-105"/>
      <use x="1483.447266" xlink:href="#DejaVuSans-111"/>
      <use x="1544.628906" xlink:href="#DejaVuSans-110"/>
      <use x="1608.007812" xlink:href="#DejaVuSans-41"/>
     </g>
    </g>
   </g>
   <g id="matplotlib.axis_2">
    <g id="ytick_1">
     <g id="line2d_17">
      <path clip-path="url(#p6f4ec1902b)" d="M 57.6 298.944 
L 338.688 298.944 
" style="fill:none;stroke:#b0b0b0;stroke-linecap:square;stroke-width:0.8;"/>
     </g>
     <g id="line2d_18">
      <defs>
       <path d="M 0 0 
L -3.5 0 
" id="md367187dc5" style="stroke:#000000;stroke-width:0.8;"/>
      </defs>
      <g>
       <use style="stroke:#000000;stroke-width:0.8;" x="57.6" xlink:href="#md367187dc5" y="298.944"/>
      </g>
     </g>
     <g id="text_6">
      <!-- 0.0 -->
      <g transform="translate(25.155 305.02275)scale(0.16 -0.16)">
       <defs>
        <path d="M 10.6875 12.40625 
L 21 12.40625 
L 21 0 
L 10.6875 0 
z
" id="DejaVuSans-46"/>
       </defs>
       <use xlink:href="#DejaVuSans-48"/>
       <use x="63.623047" xlink:href="#DejaVuSans-46"/>
       <use x="95.410156" xlink:href="#DejaVuSans-48"/>
      </g>
     </g>
    </g>
    <g id="ytick_2">
     <g id="line2d_19">
      <path clip-path="url(#p6f4ec1902b)" d="M 57.6 240.431525 
L 338.688 240.431525 
" style="fill:none;stroke:#b0b0b0;stroke-linecap:square;stroke-width:0.8;"/>
     </g>
     <g id="line2d_20">
      <g>
       <use style="stroke:#000000;stroke-width:0.8;" x="57.6" xlink:href="#md367187dc5" y="240.431525"/>
      </g>
     </g>
     <g id="text_7">
      <!-- 0.2 -->
      <g transform="translate(25.155 246.510275)scale(0.16 -0.16)">
       <use xlink:href="#DejaVuSans-48"/>
       <use x="63.623047" xlink:href="#DejaVuSans-46"/>
       <use x="95.410156" xlink:href="#DejaVuSans-50"/>
      </g>
     </g>
    </g>
    <g id="ytick_3">
     <g id="line2d_21">
      <path clip-path="url(#p6f4ec1902b)" d="M 57.6 181.91905 
L 338.688 181.91905 
" style="fill:none;stroke:#b0b0b0;stroke-linecap:square;stroke-width:0.8;"/>
     </g>
     <g id="line2d_22">
      <g>
       <use style="stroke:#000000;stroke-width:0.8;" x="57.6" xlink:href="#md367187dc5" y="181.91905"/>
      </g>
     </g>
     <g id="text_8">
      <!-- 0.4 -->
      <g transform="translate(25.155 187.9978)scale(0.16 -0.16)">
       <use xlink:href="#DejaVuSans-48"/>
       <use x="63.623047" xlink:href="#DejaVuSans-46"/>
       <use x="95.410156" xlink:href="#DejaVuSans-52"/>
      </g>
     </g>
    </g>
    <g id="ytick_4">
     <g id="line2d_23">
      <path clip-path="url(#p6f4ec1902b)" d="M 57.6 123.406574 
L 338.688 123.406574 
" style="fill:none;stroke:#b0b0b0;stroke-linecap:square;stroke-width:0.8;"/>
     </g>
     <g id="line2d_24">
      <g>
       <use style="stroke:#000000;stroke-width:0.8;" x="57.6" xlink:href="#md367187dc5" y="123.406574"/>
      </g>
     </g>
     <g id="text_9">
      <!-- 0.6 -->
      <g transform="translate(25.155 129.485324)scale(0.16 -0.16)">
       <use xlink:href="#DejaVuSans-48"/>
       <use x="63.623047" xlink:href="#DejaVuSans-46"/>
       <use x="95.410156" xlink:href="#DejaVuSans-54"/>
      </g>
     </g>
    </g>
    <g id="ytick_5">
     <g id="line2d_25">
      <path clip-path="url(#p6f4ec1902b)" d="M 57.6 64.894099 
L 338.688 64.894099 
" style="fill:none;stroke:#b0b0b0;stroke-linecap:square;stroke-width:0.8;"/>
     </g>
     <g id="line2d_26">
      <g>
       <use style="stroke:#000000;stroke-width:0.8;" x="57.6" xlink:href="#md367187dc5" y="64.894099"/>
      </g>
     </g>
     <g id="text_10">
      <!-- 0.8 -->
      <g transform="translate(25.155 70.972849)scale(0.16 -0.16)">
       <defs>
        <path d="M 31.78125 34.625 
Q 24.75 34.625 20.71875 30.859375 
Q 16.703125 27.09375 16.703125 20.515625 
Q 16.703125 13.921875 20.71875 10.15625 
Q 24.75 6.390625 31.78125 6.390625 
Q 38.8125 6.390625 42.859375 10.171875 
Q 46.921875 13.96875 46.921875 20.515625 
Q 46.921875 27.09375 42.890625 30.859375 
Q 38.875 34.625 31.78125 34.625 
z
M 21.921875 38.8125 
Q 15.578125 40.375 12.03125 44.71875 
Q 8.5 49.078125 8.5 55.328125 
Q 8.5 64.0625 14.71875 69.140625 
Q 20.953125 74.21875 31.78125 74.21875 
Q 42.671875 74.21875 48.875 69.140625 
Q 55.078125 64.0625 55.078125 55.328125 
Q 55.078125 49.078125 51.53125 44.71875 
Q 48 40.375 41.703125 38.8125 
Q 48.828125 37.15625 52.796875 32.3125 
Q 56.78125 27.484375 56.78125 20.515625 
Q 56.78125 9.90625 50.3125 4.234375 
Q 43.84375 -1.421875 31.78125 -1.421875 
Q 19.734375 -1.421875 13.25 4.234375 
Q 6.78125 9.90625 6.78125 20.515625 
Q 6.78125 27.484375 10.78125 32.3125 
Q 14.796875 37.15625 21.921875 38.8125 
z
M 18.3125 54.390625 
Q 18.3125 48.734375 21.84375 45.5625 
Q 25.390625 42.390625 31.78125 42.390625 
Q 38.140625 42.390625 41.71875 45.5625 
Q 45.3125 48.734375 45.3125 54.390625 
Q 45.3125 60.0625 41.71875 63.234375 
Q 38.140625 66.40625 31.78125 66.40625 
Q 25.390625 66.40625 21.84375 63.234375 
Q 18.3125 60.0625 18.3125 54.390625 
z
" id="DejaVuSans-56"/>
       </defs>
       <use xlink:href="#DejaVuSans-48"/>
       <use x="63.623047" xlink:href="#DejaVuSans-46"/>
       <use x="95.410156" xlink:href="#DejaVuSans-56"/>
      </g>
     </g>
    </g>
    <g id="ytick_6">
     <g id="line2d_27">
      <path clip-path="url(#p6f4ec1902b)" d="M 57.6 6.381624 
L 338.688 6.381624 
" style="fill:none;stroke:#b0b0b0;stroke-linecap:square;stroke-width:0.8;"/>
     </g>
     <g id="line2d_28">
      <g>
       <use style="stroke:#000000;stroke-width:0.8;" x="57.6" xlink:href="#md367187dc5" y="6.381624"/>
      </g>
     </g>
     <g id="text_11">
      <!-- 1.0 -->
      <g transform="translate(25.155 12.460374)scale(0.16 -0.16)">
       <use xlink:href="#DejaVuSans-49"/>
       <use x="63.623047" xlink:href="#DejaVuSans-46"/>
       <use x="95.410156" xlink:href="#DejaVuSans-48"/>
      </g>
     </g>
    </g>
    <g id="text_12">
     <!-- Fraction of function,target pairs -->
     <g transform="translate(17.619531 285.585)rotate(-90)scale(0.17 -0.17)">
      <defs>
       <path d="M 9.8125 72.90625 
L 51.703125 72.90625 
L 51.703125 64.59375 
L 19.671875 64.59375 
L 19.671875 43.109375 
L 48.578125 43.109375 
L 48.578125 34.8125 
L 19.671875 34.8125 
L 19.671875 0 
L 9.8125 0 
z
" id="DejaVuSans-70"/>
       <path d="M 41.109375 46.296875 
Q 39.59375 47.171875 37.8125 47.578125 
Q 36.03125 48 33.890625 48 
Q 26.265625 48 22.1875 43.046875 
Q 18.109375 38.09375 18.109375 28.8125 
L 18.109375 0 
L 9.078125 0 
L 9.078125 54.6875 
L 18.109375 54.6875 
L 18.109375 46.1875 
Q 20.953125 51.171875 25.484375 53.578125 
Q 30.03125 56 36.53125 56 
Q 37.453125 56 38.578125 55.875 
Q 39.703125 55.765625 41.0625 55.515625 
z
" id="DejaVuSans-114"/>
       <path d="M 48.78125 52.59375 
L 48.78125 44.1875 
Q 44.96875 46.296875 41.140625 47.34375 
Q 37.3125 48.390625 33.40625 48.390625 
Q 24.65625 48.390625 19.8125 42.84375 
Q 14.984375 37.3125 14.984375 27.296875 
Q 14.984375 17.28125 19.8125 11.734375 
Q 24.65625 6.203125 33.40625 6.203125 
Q 37.3125 6.203125 41.140625 7.25 
Q 44.96875 8.296875 48.78125 10.40625 
L 48.78125 2.09375 
Q 45.015625 0.34375 40.984375 -0.53125 
Q 36.96875 -1.421875 32.421875 -1.421875 
Q 20.0625 -1.421875 12.78125 6.34375 
Q 5.515625 14.109375 5.515625 27.296875 
Q 5.515625 40.671875 12.859375 48.328125 
Q 20.21875 56 33.015625 56 
Q 37.15625 56 41.109375 55.140625 
Q 45.0625 54.296875 48.78125 52.59375 
z
" id="DejaVuSans-99"/>
       <path d="M 18.3125 70.21875 
L 18.3125 54.6875 
L 36.8125 54.6875 
L 36.8125 47.703125 
L 18.3125 47.703125 
L 18.3125 18.015625 
Q 18.3125 11.328125 20.140625 9.421875 
Q 21.96875 7.515625 27.59375 7.515625 
L 36.8125 7.515625 
L 36.8125 0 
L 27.59375 0 
Q 17.1875 0 13.234375 3.875 
Q 9.28125 7.765625 9.28125 18.015625 
L 9.28125 47.703125 
L 2.6875 47.703125 
L 2.6875 54.6875 
L 9.28125 54.6875 
L 9.28125 70.21875 
z
" id="DejaVuSans-116"/>
       <path d="M 8.5 21.578125 
L 8.5 54.6875 
L 17.484375 54.6875 
L 17.484375 21.921875 
Q 17.484375 14.15625 20.5 10.265625 
Q 23.53125 6.390625 29.59375 6.390625 
Q 36.859375 6.390625 41.078125 11.03125 
Q 45.3125 15.671875 45.3125 23.6875 
L 45.3125 54.6875 
L 54.296875 54.6875 
L 54.296875 0 
L 45.3125 0 
L 45.3125 8.40625 
Q 42.046875 3.421875 37.71875 1 
Q 33.40625 -1.421875 27.6875 -1.421875 
Q 18.265625 -1.421875 13.375 4.4375 
Q 8.5 10.296875 8.5 21.578125 
z
M 31.109375 56 
z
" id="DejaVuSans-117"/>
       <path d="M 11.71875 12.40625 
L 22.015625 12.40625 
L 22.015625 4 
L 14.015625 -11.625 
L 7.71875 -11.625 
L 11.71875 4 
z
" id="DejaVuSans-44"/>
       <path d="M 18.109375 8.203125 
L 18.109375 -20.796875 
L 9.078125 -20.796875 
L 9.078125 54.6875 
L 18.109375 54.6875 
L 18.109375 46.390625 
Q 20.953125 51.265625 25.265625 53.625 
Q 29.59375 56 35.59375 56 
Q 45.5625 56 51.78125 48.09375 
Q 58.015625 40.1875 58.015625 27.296875 
Q 58.015625 14.40625 51.78125 6.484375 
Q 45.5625 -1.421875 35.59375 -1.421875 
Q 29.59375 -1.421875 25.265625 0.953125 
Q 20.953125 3.328125 18.109375 8.203125 
z
M 48.6875 27.296875 
Q 48.6875 37.203125 44.609375 42.84375 
Q 40.53125 48.484375 33.40625 48.484375 
Q 26.265625 48.484375 22.1875 42.84375 
Q 18.109375 37.203125 18.109375 27.296875 
Q 18.109375 17.390625 22.1875 11.75 
Q 26.265625 6.109375 33.40625 6.109375 
Q 40.53125 6.109375 44.609375 11.75 
Q 48.6875 17.390625 48.6875 27.296875 
z
" id="DejaVuSans-112"/>
      </defs>
      <use xlink:href="#DejaVuSans-70"/>
      <use x="50.269531" xlink:href="#DejaVuSans-114"/>
      <use x="91.382812" xlink:href="#DejaVuSans-97"/>
      <use x="152.662109" xlink:href="#DejaVuSans-99"/>
      <use x="207.642578" xlink:href="#DejaVuSans-116"/>
      <use x="246.851562" xlink:href="#DejaVuSans-105"/>
      <use x="274.634766" xlink:href="#DejaVuSans-111"/>
      <use x="335.816406" xlink:href="#DejaVuSans-110"/>
      <use x="399.195312" xlink:href="#DejaVuSans-32"/>
      <use x="430.982422" xlink:href="#DejaVuSans-111"/>
      <use x="492.164062" xlink:href="#DejaVuSans-102"/>
      <use x="527.369141" xlink:href="#DejaVuSans-32"/>
      <use x="559.15625" xlink:href="#DejaVuSans-102"/>
      <use x="594.361328" xlink:href="#DejaVuSans-117"/>
      <use x="657.740234" xlink:href="#DejaVuSans-110"/>
      <use x="721.119141" xlink:href="#DejaVuSans-99"/>
      <use x="776.099609" xlink:href="#DejaVuSans-116"/>
      <use x="815.308594" xlink:href="#DejaVuSans-105"/>
      <use x="843.091797" xlink:href="#DejaVuSans-111"/>
      <use x="904.273438" xlink:href="#DejaVuSans-110"/>
      <use x="967.652344" xlink:href="#DejaVuSans-44"/>
      <use x="999.439453" xlink:href="#DejaVuSans-116"/>
      <use x="1038.648438" xlink:href="#DejaVuSans-97"/>
      <use x="1099.927734" xlink:href="#DejaVuSans-114"/>
      <use x="1139.291016" xlink:href="#DejaVuSans-103"/>
      <use x="1202.767578" xlink:href="#DejaVuSans-101"/>
      <use x="1264.291016" xlink:href="#DejaVuSans-116"/>
      <use x="1303.5" xlink:href="#DejaVuSans-32"/>
      <use x="1335.287109" xlink:href="#DejaVuSans-112"/>
      <use x="1398.763672" xlink:href="#DejaVuSans-97"/>
      <use x="1460.042969" xlink:href="#DejaVuSans-105"/>
      <use x="1487.826172" xlink:href="#DejaVuSans-114"/>
      <use x="1528.939453" xlink:href="#DejaVuSans-115"/>
     </g>
    </g>
   </g>
   <g id="line2d_29">
    <defs>
     <path d="M 0 1.5 
C 0.397805 1.5 0.77937 1.341951 1.06066 1.06066 
C 1.341951 0.77937 1.5 0.397805 1.5 0 
C 1.5 -0.397805 1.341951 -0.77937 1.06066 -1.06066 
C 0.77937 -1.341951 0.397805 -1.5 0 -1.5 
C -0.397805 -1.5 -0.77937 -1.341951 -1.06066 -1.06066 
C -1.341951 -0.77937 -1.5 -0.397805 -1.5 0 
C -1.5 0.397805 -1.341951 0.77937 -1.06066 1.06066 
C -0.77937 1.341951 -0.397805 1.5 0 1.5 
z
" id="madd3f3e216" style="stroke:#000080;"/>
    </defs>
    <g>
     <use style="fill:#000080;stroke:#000080;" x="92.969447" xlink:href="#madd3f3e216" y="6.381624"/>
     <use style="fill:#000080;stroke:#000080;" x="92.969447" xlink:href="#madd3f3e216" y="6.381624"/>
    </g>
   </g>
   <g id="line2d_30">
    <path d="M 77.884514 298.944 
L 77.884514 210.46172 
L 79.938565 210.46172 
L 79.938565 167.647714 
L 81.775977 167.647714 
L 81.775977 130.066531 
L 83.438118 130.066531 
L 83.438118 110.562372 
L 86.351421 110.562372 
L 86.351421 74.884034 
L 87.643811 74.884034 
L 87.643811 73.4569 
L 88.846997 73.4569 
L 88.846997 54.428453 
L 92.026554 54.428453 
L 92.026554 22.080093 
L 92.969447 22.080093 
L 92.969447 6.381624 
L 338.688 6.381624 
" style="fill:none;stroke:#000080;stroke-linecap:square;stroke-width:1.5;"/>
   </g>
   <g id="line2d_31">
    <defs>
     <path d="M 0 6 
C 1.591219 6 3.117479 5.367802 4.242641 4.242641 
C 5.367802 3.117479 6 1.591219 6 0 
C 6 -1.591219 5.367802 -3.117479 4.242641 -4.242641 
C 3.117479 -5.367802 1.591219 -6 0 -6 
C -1.591219 -6 -3.117479 -5.367802 -4.242641 -4.242641 
C -5.367802 -3.117479 -6 -1.591219 -6 0 
C -6 1.591219 -5.367802 3.117479 -4.242641 4.242641 
C -3.117479 5.367802 -1.591219 6 0 6 
z
" id="m1439bd1354" style="stroke:#000080;stroke-width:1.5;"/>
    </defs>
    <g>
     <use style="fill-opacity:0;stroke:#000080;stroke-width:1.5;" x="77.884514" xlink:href="#m1439bd1354" y="298.944"/>
     <use style="fill-opacity:0;stroke:#000080;stroke-width:1.5;" x="87.643811" xlink:href="#m1439bd1354" y="73.4569"/>
     <use style="fill-opacity:0;stroke:#000080;stroke-width:1.5;" x="92.969447" xlink:href="#m1439bd1354" y="22.080093"/>
     <use style="fill-opacity:0;stroke:#000080;stroke-width:1.5;" x="92.969447" xlink:href="#m1439bd1354" y="6.381624"/>
     <use style="fill-opacity:0;stroke:#000080;stroke-width:1.5;" x="338.688" xlink:href="#m1439bd1354" y="6.381624"/>
    </g>
   </g>
   <g id="line2d_32">
    <path style="fill:none;stroke:#000080;stroke-linecap:square;stroke-width:1.5;"/>
    <g/>
   </g>
   <g id="line2d_33">
    <defs>
     <path d="M 0 1.5 
C 0.397805 1.5 0.77937 1.341951 1.06066 1.06066 
C 1.341951 0.77937 1.5 0.397805 1.5 0 
C 1.5 -0.397805 1.341951 -0.77937 1.06066 -1.06066 
C 0.77937 -1.341951 0.397805 -1.5 0 -1.5 
C -0.397805 -1.5 -0.77937 -1.341951 -1.06066 -1.06066 
C -1.341951 -0.77937 -1.5 -0.397805 -1.5 0 
C -1.5 0.397805 -1.341951 0.77937 -1.06066 1.06066 
C -0.77937 1.341951 -0.397805 1.5 0 1.5 
z
" id="m4d7a6314a2" style="stroke:#ff00ff;"/>
    </defs>
    <g>
     <use style="fill:#ff00ff;stroke:#ff00ff;" x="202.452873" xlink:href="#m4d7a6314a2" y="6.381624"/>
     <use style="fill:#ff00ff;stroke:#ff00ff;" x="202.452873" xlink:href="#m4d7a6314a2" y="6.381624"/>
    </g>
   </g>
   <g id="line2d_34">
    <path d="M 77.884514 298.944 
L 77.884514 294.186888 
L 83.438118 294.186888 
L 83.438118 291.808332 
L 84.955534 291.808332 
L 84.955534 291.332621 
L 89.972502 291.332621 
L 89.972502 283.721242 
L 91.029752 283.721242 
L 91.029752 278.012708 
L 92.026554 278.012708 
L 92.026554 277.536997 
L 92.969447 277.536997 
L 92.969447 276.585574 
L 93.863965 276.585574 
L 93.863965 276.109863 
L 94.714831 276.109863 
L 94.714831 275.634152 
L 95.526106 275.634152 
L 95.526106 269.449907 
L 96.301313 269.449907 
L 96.301313 268.498484 
L 97.043522 268.498484 
L 97.043522 267.547062 
L 97.755429 267.547062 
L 97.755429 262.314239 
L 98.43941 262.314239 
L 98.43941 257.557127 
L 99.097574 257.557127 
L 99.097574 251.848593 
L 99.731799 251.848593 
L 99.731799 248.994326 
L 100.343767 248.994326 
L 100.343767 242.810081 
L 100.934985 242.810081 
L 100.934985 239.480102 
L 101.506816 239.480102 
L 101.506816 239.004391 
L 102.060491 239.004391 
L 102.060491 236.625835 
L 102.597126 236.625835 
L 102.597126 229.014456 
L 103.117741 229.014456 
L 103.117741 224.257345 
L 103.623262 224.257345 
L 103.623262 222.3545 
L 104.114542 222.3545 
L 104.114542 214.743121 
L 104.592361 214.743121 
L 104.592361 206.656031 
L 105.057436 206.656031 
L 105.057436 201.423208 
L 105.51043 201.423208 
L 105.51043 197.141807 
L 105.951954 197.141807 
L 105.951954 195.238963 
L 106.382575 195.238963 
L 106.382575 194.763251 
L 106.802819 194.763251 
L 106.802819 194.28754 
L 107.213174 194.28754 
L 107.213174 190.957562 
L 107.614095 190.957562 
L 107.614095 185.249028 
L 108.006005 185.249028 
L 108.006005 180.967627 
L 108.389302 180.967627 
L 108.389302 179.540494 
L 108.764355 179.540494 
L 108.764355 168.123425 
L 109.131511 168.123425 
L 109.131511 164.793447 
L 109.491096 164.793447 
L 109.491096 162.414891 
L 109.843417 162.414891 
L 109.843417 159.084913 
L 110.188761 159.084913 
L 110.188761 152.424956 
L 110.527398 152.424956 
L 110.527398 146.716422 
L 110.859585 146.716422 
L 110.859585 144.813577 
L 111.185562 144.813577 
L 111.185562 139.580754 
L 111.505558 139.580754 
L 111.505558 134.347931 
L 111.819788 134.347931 
L 111.819788 127.687975 
L 112.128456 127.687975 
L 112.128456 124.357997 
L 112.72987 124.357997 
L 112.72987 117.69804 
L 113.022974 117.69804 
L 113.022974 115.795195 
L 113.311233 115.795195 
L 113.311233 114.843773 
L 113.594805 114.843773 
L 113.594805 105.329549 
L 113.873839 105.329549 
L 113.873839 103.902416 
L 114.148479 103.902416 
L 114.148479 100.572438 
L 114.418861 100.572438 
L 114.418861 100.096726 
L 114.947365 100.096726 
L 114.947365 95.815326 
L 115.460322 95.815326 
L 115.460322 93.43677 
L 115.711251 93.43677 
L 115.711251 86.301102 
L 115.958621 86.301102 
L 115.958621 82.019702 
L 116.443076 82.019702 
L 116.443076 81.54399 
L 116.680349 81.54399 
L 116.680349 77.26259 
L 116.914437 77.26259 
L 116.914437 74.884034 
L 117.145424 74.884034 
L 117.145424 69.651211 
L 117.598418 69.651211 
L 117.598418 68.224077 
L 118.039942 68.224077 
L 118.039942 67.748366 
L 118.470564 67.748366 
L 118.470564 65.845521 
L 118.681952 65.845521 
L 118.681952 64.418388 
L 118.890808 64.418388 
L 118.890808 63.942677 
L 119.702083 63.942677 
L 119.702083 62.991254 
L 119.89914 62.991254 
L 119.89914 61.564121 
L 120.093994 61.564121 
L 120.093994 57.28272 
L 120.286695 57.28272 
L 120.286695 55.379875 
L 121.219499 55.379875 
L 121.219499 54.904164 
L 122.615387 54.904164 
L 122.615387 50.147052 
L 122.947573 50.147052 
L 122.947573 49.19563 
L 124.817858 49.19563 
L 124.817858 47.768496 
L 136.979586 47.768496 
L 136.979586 47.292785 
L 160.764907 47.292785 
L 160.764907 46.817074 
L 162.52596 46.817074 
L 162.627697 44.914229 
L 162.644595 44.914229 
L 162.712026 39.681406 
L 162.846111 39.681406 
L 162.929393 35.875717 
L 163.01228 35.875717 
L 163.02881 33.972872 
L 163.127663 33.972872 
L 163.127663 30.642894 
L 163.2749 30.642894 
L 163.2749 28.740049 
L 164.148635 28.740049 
L 164.148635 28.264338 
L 174.464511 28.264338 
L 174.532984 24.458649 
L 180.564187 24.458649 
L 180.672655 21.604382 
L 180.816238 21.604382 
L 180.863838 19.701537 
L 180.946826 19.701537 
L 180.946826 19.225826 
L 181.528383 19.225826 
L 181.619658 16.84727 
L 181.659442 16.84727 
L 181.721776 14.944425 
L 182.207084 14.944425 
L 182.207084 14.468714 
L 202.378627 14.468714 
L 202.452873 6.381624 
L 338.688 6.381624 
L 338.688 6.381624 
" style="fill:none;stroke:#ff00ff;stroke-linecap:square;stroke-width:1.5;"/>
   </g>
   <g id="line2d_35">
    <defs>
     <path d="M -0 8.485281 
L 5.091169 0 
L 0 -8.485281 
L -5.091169 -0 
z
" id="m3652733bbd" style="stroke:#ff00ff;stroke-linejoin:miter;stroke-width:1.5;"/>
    </defs>
    <g>
     <use style="fill-opacity:0;stroke:#ff00ff;stroke-linejoin:miter;stroke-width:1.5;" x="136.979586" xlink:href="#m3652733bbd" y="47.768496"/>
     <use style="fill-opacity:0;stroke:#ff00ff;stroke-linejoin:miter;stroke-width:1.5;" x="202.452873" xlink:href="#m3652733bbd" y="8.284468"/>
     <use style="fill-opacity:0;stroke:#ff00ff;stroke-linejoin:miter;stroke-width:1.5;" x="202.452873" xlink:href="#m3652733bbd" y="6.381624"/>
     <use style="fill-opacity:0;stroke:#ff00ff;stroke-linejoin:miter;stroke-width:1.5;" x="202.452873" xlink:href="#m3652733bbd" y="6.381624"/>
     <use style="fill-opacity:0;stroke:#ff00ff;stroke-linejoin:miter;stroke-width:1.5;" x="338.688" xlink:href="#m3652733bbd" y="6.381624"/>
    </g>
   </g>
   <g id="line2d_36">
    <path style="fill:none;stroke:#ff00ff;stroke-linecap:square;stroke-width:1.5;"/>
    <g/>
   </g>
   <g id="line2d_37">
    <defs>
     <path d="M 0 1.5 
C 0.397805 1.5 0.77937 1.341951 1.06066 1.06066 
C 1.341951 0.77937 1.5 0.397805 1.5 0 
C 1.5 -0.397805 1.341951 -0.77937 1.06066 -1.06066 
C 0.77937 -1.341951 0.397805 -1.5 0 -1.5 
C -0.397805 -1.5 -0.77937 -1.341951 -1.06066 -1.06066 
C -1.341951 -0.77937 -1.5 -0.397805 -1.5 0 
C -1.5 0.397805 -1.341951 0.77937 -1.06066 1.06066 
C -0.77937 1.341951 -0.397805 1.5 0 1.5 
z
" id="mf76d2449f8" style="stroke:#ff7500;"/>
    </defs>
    <g>
     <use style="fill:#ff7500;stroke:#ff7500;" x="92.969447" xlink:href="#mf76d2449f8" y="6.381624"/>
     <use style="fill:#ff7500;stroke:#ff7500;" x="92.969447" xlink:href="#mf76d2449f8" y="6.381624"/>
    </g>
   </g>
   <g id="line2d_38">
    <path d="M 77.884514 298.944 
L 77.884514 248.042904 
L 79.938565 248.042904 
L 79.938565 129.59082 
L 81.775977 129.59082 
L 81.775977 71.554056 
L 83.438118 71.554056 
L 83.438118 54.904164 
L 86.351421 54.904164 
L 86.351421 36.827139 
L 88.846997 36.827139 
L 88.846997 18.274403 
L 92.969447 18.274403 
L 92.969447 6.381624 
L 338.688 6.381624 
" style="fill:none;stroke:#ff7500;stroke-linecap:square;stroke-width:1.5;"/>
   </g>
   <g id="line2d_39">
    <defs>
     <path d="M 0 -6 
L -1.347084 -1.854102 
L -5.706339 -1.854102 
L -2.179628 0.708204 
L -3.526712 4.854102 
L -0 2.291796 
L 3.526712 4.854102 
L 2.179628 0.708204 
L 5.706339 -1.854102 
L 1.347084 -1.854102 
z
" id="m267cb03aec" style="stroke:#ff7500;stroke-linejoin:bevel;stroke-width:1.5;"/>
    </defs>
    <g>
     <use style="fill-opacity:0;stroke:#ff7500;stroke-linejoin:bevel;stroke-width:1.5;" x="79.938565" xlink:href="#m267cb03aec" y="248.042904"/>
     <use style="fill-opacity:0;stroke:#ff7500;stroke-linejoin:bevel;stroke-width:1.5;" x="92.969447" xlink:href="#m267cb03aec" y="18.274403"/>
     <use style="fill-opacity:0;stroke:#ff7500;stroke-linejoin:bevel;stroke-width:1.5;" x="92.969447" xlink:href="#m267cb03aec" y="6.381624"/>
     <use style="fill-opacity:0;stroke:#ff7500;stroke-linejoin:bevel;stroke-width:1.5;" x="92.969447" xlink:href="#m267cb03aec" y="6.381624"/>
     <use style="fill-opacity:0;stroke:#ff7500;stroke-linejoin:bevel;stroke-width:1.5;" x="338.688" xlink:href="#m267cb03aec" y="6.381624"/>
    </g>
   </g>
   <g id="line2d_40">
    <path style="fill:none;stroke:#ff7500;stroke-linecap:square;stroke-width:1.5;"/>
    <g/>
   </g>
   <g id="line2d_41">
    <defs>
     <path d="M 0 1.5 
C 0.397805 1.5 0.77937 1.341951 1.06066 1.06066 
C 1.341951 0.77937 1.5 0.397805 1.5 0 
C 1.5 -0.397805 1.341951 -0.77937 1.06066 -1.06066 
C 0.77937 -1.341951 0.397805 -1.5 0 -1.5 
C -0.397805 -1.5 -0.77937 -1.341951 -1.06066 -1.06066 
C -1.341951 -0.77937 -1.5 -0.397805 -1.5 0 
C -1.5 0.397805 -1.341951 0.77937 -1.06066 1.06066 
C -0.77937 1.341951 -0.397805 1.5 0 1.5 
z
" id="m4aabdd7464" style="stroke:#6495ed;"/>
    </defs>
    <g>
     <use style="fill:#6495ed;stroke:#6495ed;" x="196.360123" xlink:href="#m4aabdd7464" y="6.381624"/>
     <use style="fill:#6495ed;stroke:#6495ed;" x="196.360123" xlink:href="#m4aabdd7464" y="6.381624"/>
    </g>
   </g>
   <g id="line2d_42">
    <path d="M 83.438118 298.944 
L 83.438118 298.468289 
L 84.955534 298.468289 
L 84.955534 297.992578 
L 87.643811 297.992578 
L 87.643811 292.759755 
L 88.846997 292.759755 
L 88.846997 286.575509 
L 89.972502 286.575509 
L 89.972502 284.196953 
L 91.029752 284.196953 
L 91.029752 278.96413 
L 92.026554 278.96413 
L 92.026554 275.158441 
L 92.969447 275.158441 
L 92.969447 273.731307 
L 93.863965 273.731307 
L 93.863965 273.255596 
L 94.714831 273.255596 
L 94.714831 268.498484 
L 95.526106 268.498484 
L 95.526106 267.071351 
L 96.301313 267.071351 
L 96.301313 263.265661 
L 97.043522 263.265661 
L 97.043522 261.362817 
L 97.755429 261.362817 
L 97.755429 256.605705 
L 98.43941 256.605705 
L 98.43941 253.751438 
L 99.097574 253.751438 
L 99.097574 248.518615 
L 99.731799 248.518615 
L 99.731799 239.004391 
L 100.343767 239.004391 
L 100.343767 235.198702 
L 100.934985 235.198702 
L 100.934985 232.820146 
L 101.506816 232.820146 
L 101.506816 229.490168 
L 102.060491 229.490168 
L 102.060491 228.538745 
L 102.597126 228.538745 
L 102.597126 223.781633 
L 103.117741 223.781633 
L 103.117741 209.510298 
L 103.623262 209.510298 
L 103.623262 205.228897 
L 104.114542 205.228897 
L 104.114542 200.947497 
L 104.592361 200.947497 
L 104.592361 195.714674 
L 105.057436 195.714674 
L 105.057436 194.763251 
L 105.51043 194.763251 
L 105.51043 191.433273 
L 106.382575 191.433273 
L 106.382575 189.530428 
L 106.802819 189.530428 
L 106.802819 186.20045 
L 107.213174 186.20045 
L 107.213174 181.443338 
L 107.614095 181.443338 
L 107.614095 167.172003 
L 108.006005 167.172003 
L 108.006005 164.317736 
L 108.764355 164.317736 
L 108.764355 157.657779 
L 109.131511 157.657779 
L 109.131511 151.949245 
L 109.491096 151.949245 
L 109.491096 146.240711 
L 109.843417 146.240711 
L 109.843417 144.337866 
L 110.188761 144.337866 
L 110.188761 141.95931 
L 110.527398 141.95931 
L 110.527398 139.580754 
L 110.859585 139.580754 
L 110.859585 139.105043 
L 111.185562 139.105043 
L 111.185562 129.59082 
L 111.505558 129.59082 
L 111.505558 127.687975 
L 111.819788 127.687975 
L 111.819788 126.260841 
L 112.128456 126.260841 
L 112.128456 121.50373 
L 112.431755 121.50373 
L 112.431755 114.368062 
L 112.72987 114.368062 
L 112.72987 111.513795 
L 113.022974 111.513795 
L 113.022974 107.232394 
L 113.594805 107.232394 
L 113.594805 103.426705 
L 113.873839 103.426705 
L 113.873839 101.048149 
L 114.148479 101.048149 
L 114.148479 95.339615 
L 114.418861 95.339615 
L 114.418861 94.863903 
L 114.685115 94.863903 
L 114.685115 90.582503 
L 114.947365 90.582503 
L 114.947365 87.728236 
L 115.205729 87.728236 
L 115.205729 77.26259 
L 115.460322 77.26259 
L 115.460322 72.505478 
L 115.711251 72.505478 
L 115.711251 68.224077 
L 115.958621 68.224077 
L 115.958621 63.942677 
L 116.202531 63.942677 
L 116.202531 62.991254 
L 116.443076 62.991254 
L 116.443076 62.515543 
L 116.914437 62.515543 
L 116.914437 61.08841 
L 117.145424 61.08841 
L 117.145424 57.28272 
L 117.373392 57.28272 
L 117.373392 53.477031 
L 117.598418 53.477031 
L 117.598418 51.574186 
L 117.820578 51.574186 
L 117.820578 50.622764 
L 118.039942 50.622764 
L 118.039942 47.768496 
L 118.256582 47.768496 
L 118.256582 47.292785 
L 118.470564 47.292785 
L 118.470564 46.817074 
L 118.681952 46.817074 
L 118.681952 46.341363 
L 118.890808 46.341363 
L 118.890808 45.389941 
L 119.097192 45.389941 
L 119.097192 44.914229 
L 119.301163 44.914229 
L 119.301163 44.438518 
L 119.702083 44.438518 
L 119.702083 43.487096 
L 128.168991 43.487096 
L 128.168991 43.011385 
L 129.79784 43.011385 
L 129.79784 42.535674 
L 131.888878 42.535674 
L 131.888878 42.059962 
L 141.80232 42.059962 
L 141.80232 40.632829 
L 142.351634 40.632829 
L 142.351634 40.157118 
L 142.726112 40.157118 
L 142.726112 39.205695 
L 149.104327 39.205695 
L 149.104327 38.729984 
L 156.693802 38.729984 
L 156.693802 38.254273 
L 159.293606 38.254273 
L 159.293606 37.778562 
L 162.762429 37.778562 
L 162.762429 34.924295 
L 163.16049 34.924295 
L 163.17688 31.118605 
L 163.820172 31.118605 
L 163.820172 27.312916 
L 164.039833 27.312916 
L 164.133133 25.885782 
L 164.272154 25.885782 
L 164.318249 24.93436 
L 164.486229 24.93436 
L 164.486229 24.458649 
L 166.974711 24.458649 
L 166.974711 23.982937 
L 174.421578 23.982937 
L 174.481655 20.177248 
L 190.353682 20.177248 
L 190.443105 9.235891 
L 190.501327 9.235891 
L 190.511582 8.284468 
L 196.34301 8.284468 
L 196.360123 6.381624 
L 338.688 6.381624 
L 338.688 6.381624 
" style="fill:none;stroke:#6495ed;stroke-linecap:square;stroke-width:1.5;"/>
   </g>
   <g id="line2d_43">
    <defs>
     <path d="M -0 6 
L 6 -6 
L -6 -6 
z
" id="mda73bc764b" style="stroke:#6495ed;stroke-linejoin:miter;stroke-width:1.5;"/>
    </defs>
    <g>
     <use style="fill-opacity:0;stroke:#6495ed;stroke-linejoin:miter;stroke-width:1.5;" x="131.888878" xlink:href="#mda73bc764b" y="42.535674"/>
     <use style="fill-opacity:0;stroke:#6495ed;stroke-linejoin:miter;stroke-width:1.5;" x="196.360123" xlink:href="#mda73bc764b" y="7.333046"/>
     <use style="fill-opacity:0;stroke:#6495ed;stroke-linejoin:miter;stroke-width:1.5;" x="196.360123" xlink:href="#mda73bc764b" y="6.381624"/>
     <use style="fill-opacity:0;stroke:#6495ed;stroke-linejoin:miter;stroke-width:1.5;" x="196.360123" xlink:href="#mda73bc764b" y="6.381624"/>
     <use style="fill-opacity:0;stroke:#6495ed;stroke-linejoin:miter;stroke-width:1.5;" x="338.688" xlink:href="#mda73bc764b" y="6.381624"/>
    </g>
   </g>
   <g id="line2d_44">
    <path style="fill:none;stroke:#6495ed;stroke-linecap:square;stroke-width:1.5;"/>
    <g/>
   </g>
   <g id="line2d_45">
    <defs>
     <path d="M 0 1.5 
C 0.397805 1.5 0.77937 1.341951 1.06066 1.06066 
C 1.341951 0.77937 1.5 0.397805 1.5 0 
C 1.5 -0.397805 1.341951 -0.77937 1.06066 -1.06066 
C 0.77937 -1.341951 0.397805 -1.5 0 -1.5 
C -0.397805 -1.5 -0.77937 -1.341951 -1.06066 -1.06066 
C -1.341951 -0.77937 -1.5 -0.397805 -1.5 0 
C -1.5 0.397805 -1.341951 0.77937 -1.06066 1.06066 
C -0.77937 1.341951 -0.397805 1.5 0 1.5 
z
" id="m9235810511" style="stroke:#ff0000;"/>
    </defs>
    <g>
     <use style="fill:#ff0000;stroke:#ff0000;" x="174.762117" xlink:href="#m9235810511" y="6.381624"/>
     <use style="fill:#ff0000;stroke:#ff0000;" x="174.762117" xlink:href="#m9235810511" y="6.381624"/>
    </g>
   </g>
   <g id="line2d_46">
    <path d="M 79.938565 298.944 
L 79.938565 297.516866 
L 81.775977 297.516866 
L 81.775977 296.089733 
L 84.955534 296.089733 
L 84.955534 290.85691 
L 87.643811 290.85691 
L 87.643811 289.905488 
L 88.846997 289.905488 
L 88.846997 289.429776 
L 89.972502 289.429776 
L 89.972502 288.478354 
L 92.026554 288.478354 
L 92.026554 285.624087 
L 92.969447 285.624087 
L 92.969447 283.721242 
L 93.863965 283.721242 
L 93.863965 279.439842 
L 94.714831 279.439842 
L 94.714831 276.109863 
L 95.526106 276.109863 
L 95.526106 274.68273 
L 96.301313 274.68273 
L 96.301313 265.644217 
L 97.043522 265.644217 
L 97.043522 262.78995 
L 97.755429 262.78995 
L 97.755429 255.178571 
L 98.43941 255.178571 
L 98.43941 252.800015 
L 99.731799 252.800015 
L 99.731799 248.994326 
L 100.343767 248.994326 
L 100.343767 243.285792 
L 100.934985 243.285792 
L 100.934985 239.955814 
L 101.506816 239.955814 
L 101.506816 233.295857 
L 102.060491 233.295857 
L 102.060491 230.44159 
L 102.597126 230.44159 
L 102.597126 228.538745 
L 103.623262 228.538745 
L 103.623262 219.024522 
L 104.592361 219.024522 
L 104.592361 218.073099 
L 105.057436 218.073099 
L 105.057436 213.315987 
L 105.51043 213.315987 
L 105.51043 212.840276 
L 105.951954 212.840276 
L 105.951954 209.510298 
L 106.802819 209.510298 
L 106.802819 207.607453 
L 107.213174 207.607453 
L 107.213174 204.277475 
L 107.614095 204.277475 
L 107.614095 198.568941 
L 108.389302 198.568941 
L 108.389302 196.666096 
L 108.764355 196.666096 
L 108.764355 191.433273 
L 109.131511 191.433273 
L 109.131511 187.151872 
L 109.491096 187.151872 
L 109.491096 182.394761 
L 109.843417 182.394761 
L 109.843417 173.831959 
L 110.188761 173.831959 
L 110.188761 170.02627 
L 110.527398 170.02627 
L 110.527398 167.647714 
L 110.859585 167.647714 
L 110.859585 167.172003 
L 111.185562 167.172003 
L 111.185562 162.890602 
L 111.505558 162.890602 
L 111.505558 161.463469 
L 111.819788 161.463469 
L 111.819788 160.512046 
L 112.128456 160.512046 
L 112.128456 159.560624 
L 112.431755 159.560624 
L 112.431755 154.803512 
L 113.022974 154.803512 
L 113.022974 147.192133 
L 113.311233 147.192133 
L 113.311233 141.95931 
L 113.873839 141.95931 
L 113.873839 140.532177 
L 114.148479 140.532177 
L 114.148479 137.202199 
L 114.418861 137.202199 
L 114.418861 135.299354 
L 114.685115 135.299354 
L 114.685115 133.87222 
L 115.205729 133.87222 
L 115.205729 133.396509 
L 115.460322 133.396509 
L 115.460322 132.445087 
L 115.711251 132.445087 
L 115.711251 131.969376 
L 115.958621 131.969376 
L 115.958621 124.833708 
L 116.202531 124.833708 
L 116.202531 121.979441 
L 116.443076 121.979441 
L 116.443076 116.270907 
L 116.680349 116.270907 
L 116.680349 112.465217 
L 116.914437 112.465217 
L 116.914437 109.61095 
L 117.598418 109.61095 
L 117.598418 107.232394 
L 117.820578 107.232394 
L 117.820578 106.280972 
L 118.470564 106.280972 
L 118.470564 102.950993 
L 118.681952 102.950993 
L 118.681952 100.096726 
L 118.890808 100.096726 
L 118.890808 99.621015 
L 119.097192 99.621015 
L 119.097192 95.815326 
L 119.301163 95.815326 
L 119.301163 93.43677 
L 119.502775 93.43677 
L 119.502775 92.009636 
L 119.89914 92.009636 
L 119.89914 91.058214 
L 120.093994 91.058214 
L 120.093994 87.728236 
L 120.47729 87.728236 
L 120.47729 86.776813 
L 120.665825 86.776813 
L 120.665825 85.34968 
L 120.852343 85.34968 
L 120.852343 83.446835 
L 121.036887 83.446835 
L 121.036887 82.019702 
L 121.219499 82.019702 
L 121.219499 77.26259 
L 121.400219 77.26259 
L 121.400219 76.311167 
L 121.756135 76.311167 
L 121.756135 74.884034 
L 122.782271 74.884034 
L 122.782271 74.408323 
L 123.111324 74.408323 
L 123.111324 70.602633 
L 124.062793 70.602633 
L 124.062793 68.224077 
L 124.965026 68.224077 
L 124.965026 66.321233 
L 125.110962 66.321233 
L 125.110962 64.418388 
L 126.236468 64.418388 
L 126.236468 63.942677 
L 126.372183 63.942677 
L 126.372183 63.466965 
L 150.480434 63.466965 
L 150.480434 62.991254 
L 162.644595 62.991254 
L 162.661478 60.136987 
L 162.762429 60.136987 
L 162.812686 55.379875 
L 162.896128 55.379875 
L 162.962595 43.011385 
L 163.01228 43.011385 
L 163.02881 39.681406 
L 163.16049 39.681406 
L 163.258601 31.594316 
L 163.356164 31.594316 
L 163.453184 22.555804 
L 163.501492 22.555804 
L 163.565696 21.12867 
L 174.404376 21.12867 
L 174.481655 19.701537 
L 174.532984 19.701537 
L 174.575644 13.517291 
L 174.703001 13.517291 
L 174.762117 6.381624 
L 338.688 6.381624 
L 338.688 6.381624 
" style="fill:none;stroke:#ff0000;stroke-linecap:square;stroke-width:1.5;"/>
   </g>
   <g id="line2d_47">
    <defs>
     <path d="M 0 -6 
L -5.196152 -3 
L -5.196152 3 
L -0 6 
L 5.196152 3 
L 5.196152 -3 
z
" id="ma9d04b1350" style="stroke:#ff0000;stroke-linejoin:miter;stroke-width:1.5;"/>
    </defs>
    <g>
     <use style="fill-opacity:0;stroke:#ff0000;stroke-linejoin:miter;stroke-width:1.5;" x="109.843417" xlink:href="#ma9d04b1350" y="173.831959"/>
     <use style="fill-opacity:0;stroke:#ff0000;stroke-linejoin:miter;stroke-width:1.5;" x="162.896128" xlink:href="#ma9d04b1350" y="50.147052"/>
     <use style="fill-opacity:0;stroke:#ff0000;stroke-linejoin:miter;stroke-width:1.5;" x="174.762117" xlink:href="#ma9d04b1350" y="9.711602"/>
     <use style="fill-opacity:0;stroke:#ff0000;stroke-linejoin:miter;stroke-width:1.5;" x="174.762117" xlink:href="#ma9d04b1350" y="6.381624"/>
     <use style="fill-opacity:0;stroke:#ff0000;stroke-linejoin:miter;stroke-width:1.5;" x="338.688" xlink:href="#ma9d04b1350" y="6.381624"/>
    </g>
   </g>
   <g id="line2d_48">
    <path style="fill:none;stroke:#ff0000;stroke-linecap:square;stroke-width:1.5;"/>
    <g/>
   </g>
   <g id="line2d_49">
    <defs>
     <path d="M 0 1.5 
C 0.397805 1.5 0.77937 1.341951 1.06066 1.06066 
C 1.341951 0.77937 1.5 0.397805 1.5 0 
C 1.5 -0.397805 1.341951 -0.77937 1.06066 -1.06066 
C 0.77937 -1.341951 0.397805 -1.5 0 -1.5 
C -0.397805 -1.5 -0.77937 -1.341951 -1.06066 -1.06066 
C -1.341951 -0.77937 -1.5 -0.397805 -1.5 0 
C -1.5 0.397805 -1.341951 0.77937 -1.06066 1.06066 
C -0.77937 1.341951 -0.397805 1.5 0 1.5 
z
" id="m903be48793" style="stroke:#9acd32;"/>
    </defs>
    <g>
     <use style="fill:#9acd32;stroke:#9acd32;" x="120.286695" xlink:href="#m903be48793" y="6.381624"/>
     <use style="fill:#9acd32;stroke:#9acd32;" x="120.286695" xlink:href="#m903be48793" y="6.381624"/>
    </g>
   </g>
   <g id="line2d_50">
    <path d="M 84.955534 298.944 
L 84.955534 298.468289 
L 87.643811 298.468289 
L 87.643811 295.138311 
L 88.846997 295.138311 
L 88.846997 292.284043 
L 89.972502 292.284043 
L 89.972502 291.808332 
L 91.029752 291.808332 
L 91.029752 289.905488 
L 92.026554 289.905488 
L 92.026554 287.526932 
L 92.969447 287.526932 
L 92.969447 284.672665 
L 94.714831 284.672665 
L 94.714831 276.585574 
L 95.526106 276.585574 
L 95.526106 271.828463 
L 96.301313 271.828463 
L 96.301313 271.352752 
L 97.043522 271.352752 
L 97.043522 269.925618 
L 97.755429 269.925618 
L 97.755429 264.217084 
L 98.43941 264.217084 
L 98.43941 258.50855 
L 99.097574 258.50855 
L 99.097574 256.605705 
L 99.731799 256.605705 
L 99.731799 255.654283 
L 100.343767 255.654283 
L 100.343767 251.848593 
L 100.934985 251.848593 
L 100.934985 237.101546 
L 101.506816 237.101546 
L 101.506816 229.014456 
L 102.597126 229.014456 
L 102.597126 224.257345 
L 103.117741 224.257345 
L 103.117741 219.975944 
L 103.623262 219.975944 
L 103.623262 213.791699 
L 104.114542 213.791699 
L 104.114542 202.850341 
L 104.592361 202.850341 
L 104.592361 195.714674 
L 105.057436 195.714674 
L 105.057436 193.811829 
L 105.51043 193.811829 
L 105.51043 193.336118 
L 105.951954 193.336118 
L 105.951954 191.433273 
L 106.382575 191.433273 
L 106.382575 185.249028 
L 106.802819 185.249028 
L 106.802819 180.016205 
L 107.213174 180.016205 
L 107.213174 179.540494 
L 108.006005 179.540494 
L 108.006005 179.064782 
L 108.389302 179.064782 
L 108.389302 174.783382 
L 108.764355 174.783382 
L 108.764355 168.123425 
L 109.131511 168.123425 
L 109.131511 152.424956 
L 109.491096 152.424956 
L 109.491096 143.862155 
L 109.843417 143.862155 
L 109.843417 142.435021 
L 110.188761 142.435021 
L 110.188761 136.250776 
L 110.527398 136.250776 
L 110.527398 129.115108 
L 110.859585 129.115108 
L 110.859585 127.687975 
L 111.185562 127.687975 
L 111.185562 122.455152 
L 111.505558 122.455152 
L 111.505558 115.795195 
L 111.819788 115.795195 
L 111.819788 112.940928 
L 112.128456 112.940928 
L 112.128456 99.145304 
L 112.431755 99.145304 
L 112.431755 97.71817 
L 112.72987 97.71817 
L 112.72987 92.961059 
L 113.022974 92.961059 
L 113.022974 87.252525 
L 113.311233 87.252525 
L 113.311233 83.922546 
L 113.594805 83.922546 
L 113.594805 80.116857 
L 113.873839 80.116857 
L 113.873839 77.26259 
L 114.148479 77.26259 
L 114.148479 76.786879 
L 114.418861 76.786879 
L 114.418861 69.1755 
L 114.947365 69.1755 
L 114.947365 54.904164 
L 115.205729 54.904164 
L 115.205729 54.428453 
L 115.460322 54.428453 
L 115.460322 42.535674 
L 115.711251 42.535674 
L 115.711251 41.584251 
L 115.958621 41.584251 
L 115.958621 33.972872 
L 116.202531 33.972872 
L 116.202531 32.070028 
L 116.443076 32.070028 
L 116.443076 31.594316 
L 116.680349 31.594316 
L 116.680349 18.750114 
L 116.914437 18.750114 
L 116.914437 14.468714 
L 119.502775 14.468714 
L 119.502775 8.76018 
L 120.286695 8.76018 
L 120.286695 6.381624 
L 338.688 6.381624 
" style="fill:none;stroke:#9acd32;stroke-linecap:square;stroke-width:1.5;"/>
   </g>
   <g id="line2d_51">
    <defs>
     <path d="M 0 -6 
L -6 6 
L 6 6 
z
" id="mc44683cf5d" style="stroke:#9acd32;stroke-linejoin:miter;stroke-width:1.5;"/>
    </defs>
    <g>
     <use style="fill-opacity:0;stroke:#9acd32;stroke-linejoin:miter;stroke-width:1.5;" x="109.131511" xlink:href="#mc44683cf5d" y="152.424956"/>
     <use style="fill-opacity:0;stroke:#9acd32;stroke-linejoin:miter;stroke-width:1.5;" x="120.286695" xlink:href="#mc44683cf5d" y="8.76018"/>
     <use style="fill-opacity:0;stroke:#9acd32;stroke-linejoin:miter;stroke-width:1.5;" x="120.286695" xlink:href="#mc44683cf5d" y="6.381624"/>
     <use style="fill-opacity:0;stroke:#9acd32;stroke-linejoin:miter;stroke-width:1.5;" x="120.286695" xlink:href="#mc44683cf5d" y="6.381624"/>
     <use style="fill-opacity:0;stroke:#9acd32;stroke-linejoin:miter;stroke-width:1.5;" x="338.688" xlink:href="#mc44683cf5d" y="6.381624"/>
    </g>
   </g>
   <g id="line2d_52">
    <path style="fill:none;stroke:#9acd32;stroke-linecap:square;stroke-width:1.5;"/>
    <g/>
   </g>
   <g id="line2d_53">
    <defs>
     <path d="M 0 1.5 
C 0.397805 1.5 0.77937 1.341951 1.06066 1.06066 
C 1.341951 0.77937 1.5 0.397805 1.5 0 
C 1.5 -0.397805 1.341951 -0.77937 1.06066 -1.06066 
C 0.77937 -1.341951 0.397805 -1.5 0 -1.5 
C -0.397805 -1.5 -0.77937 -1.341951 -1.06066 -1.06066 
C -1.341951 -0.77937 -1.5 -0.397805 -1.5 0 
C -1.5 0.397805 -1.341951 0.77937 -1.06066 1.06066 
C -0.77937 1.341951 -0.397805 1.5 0 1.5 
z
" id="m98747c678d" style="stroke:#00bfbf;"/>
    </defs>
    <g>
     <use style="fill:#00bfbf;stroke:#00bfbf;" x="108.006005" xlink:href="#m98747c678d" y="6.381624"/>
     <use style="fill:#00bfbf;stroke:#00bfbf;" x="108.006005" xlink:href="#m98747c678d" y="6.381624"/>
    </g>
   </g>
   <g id="line2d_54">
    <path d="M 79.938565 298.944 
L 79.938565 297.992578 
L 84.955534 297.992578 
L 84.955534 297.041155 
L 86.351421 297.041155 
L 86.351421 296.565444 
L 87.643811 296.565444 
L 87.643811 293.235466 
L 88.846997 293.235466 
L 88.846997 284.672665 
L 89.972502 284.672665 
L 89.972502 261.362817 
L 91.029752 261.362817 
L 91.029752 232.820146 
L 92.026554 232.820146 
L 92.026554 195.714674 
L 93.863965 195.714674 
L 93.863965 194.28754 
L 94.714831 194.28754 
L 94.714831 174.783382 
L 95.526106 174.783382 
L 95.526106 174.307671 
L 96.301313 174.307671 
L 96.301313 170.977692 
L 97.043522 170.977692 
L 97.043522 167.172003 
L 97.755429 167.172003 
L 97.755429 166.220581 
L 98.43941 166.220581 
L 98.43941 140.056466 
L 99.097574 140.056466 
L 99.097574 137.202199 
L 100.343767 137.202199 
L 100.343767 121.50373 
L 100.934985 121.50373 
L 100.934985 89.155369 
L 101.506816 89.155369 
L 101.506816 84.398257 
L 102.060491 84.398257 
L 102.060491 82.019702 
L 102.597126 82.019702 
L 102.597126 81.068279 
L 104.114542 81.068279 
L 104.114542 63.942677 
L 104.592361 63.942677 
L 104.592361 52.525608 
L 105.951954 52.525608 
L 105.951954 37.778562 
L 106.382575 37.778562 
L 106.382575 24.93436 
L 107.614095 24.93436 
L 107.614095 16.84727 
L 108.006005 16.84727 
L 108.006005 6.381624 
L 338.688 6.381624 
" style="fill:none;stroke:#00bfbf;stroke-linecap:square;stroke-width:1.5;"/>
   </g>
   <g id="line2d_55">
    <defs>
     <path d="M 0 -6 
L -5.706339 -1.854102 
L -3.526712 4.854102 
L 3.526712 4.854102 
L 5.706339 -1.854102 
z
" id="meceb827a66" style="stroke:#00bfbf;stroke-linejoin:miter;stroke-width:1.5;"/>
    </defs>
    <g>
     <use style="fill-opacity:0;stroke:#00bfbf;stroke-linejoin:miter;stroke-width:1.5;" x="97.755429" xlink:href="#meceb827a66" y="166.220581"/>
     <use style="fill-opacity:0;stroke:#00bfbf;stroke-linejoin:miter;stroke-width:1.5;" x="108.006005" xlink:href="#meceb827a66" y="16.84727"/>
     <use style="fill-opacity:0;stroke:#00bfbf;stroke-linejoin:miter;stroke-width:1.5;" x="108.006005" xlink:href="#meceb827a66" y="6.381624"/>
     <use style="fill-opacity:0;stroke:#00bfbf;stroke-linejoin:miter;stroke-width:1.5;" x="108.006005" xlink:href="#meceb827a66" y="6.381624"/>
     <use style="fill-opacity:0;stroke:#00bfbf;stroke-linejoin:miter;stroke-width:1.5;" x="338.688" xlink:href="#meceb827a66" y="6.381624"/>
    </g>
   </g>
   <g id="line2d_56">
    <path style="fill:none;stroke:#00bfbf;stroke-linecap:square;stroke-width:1.5;"/>
    <g/>
   </g>
   <g id="line2d_57">
    <defs>
     <path d="M 0 1.5 
C 0.397805 1.5 0.77937 1.341951 1.06066 1.06066 
C 1.341951 0.77937 1.5 0.397805 1.5 0 
C 1.5 -0.397805 1.341951 -0.77937 1.06066 -1.06066 
C 0.77937 -1.341951 0.397805 -1.5 0 -1.5 
C -0.397805 -1.5 -0.77937 -1.341951 -1.06066 -1.06066 
C -1.341951 -0.77937 -1.5 -0.397805 -1.5 0 
C -1.5 0.397805 -1.341951 0.77937 -1.06066 1.06066 
C -0.77937 1.341951 -0.397805 1.5 0 1.5 
z
" id="m83c8aa9175" style="stroke:#228b22;"/>
    </defs>
    <g>
     <use style="fill:#228b22;stroke:#228b22;" x="203.15199" xlink:href="#m83c8aa9175" y="6.381624"/>
     <use style="fill:#228b22;stroke:#228b22;" x="203.15199" xlink:href="#m83c8aa9175" y="6.381624"/>
    </g>
   </g>
   <g id="line2d_58">
    <path d="M 86.351421 298.944 
L 86.351421 296.089733 
L 93.863965 296.089733 
L 93.863965 295.614022 
L 96.301313 295.614022 
L 96.301313 293.711177 
L 97.043522 293.711177 
L 97.043522 288.954065 
L 97.755429 288.954065 
L 97.755429 285.624087 
L 98.43941 285.624087 
L 98.43941 282.294109 
L 99.097574 282.294109 
L 99.097574 281.818397 
L 99.731799 281.818397 
L 99.731799 279.915553 
L 100.343767 279.915553 
L 100.343767 275.634152 
L 101.506816 275.634152 
L 101.506816 275.158441 
L 102.060491 275.158441 
L 102.060491 272.304174 
L 102.597126 272.304174 
L 102.597126 271.352752 
L 104.114542 271.352752 
L 104.114542 270.87704 
L 104.592361 270.87704 
L 104.592361 268.022773 
L 105.057436 268.022773 
L 105.057436 265.168506 
L 106.382575 265.168506 
L 106.382575 264.217084 
L 106.802819 264.217084 
L 106.802819 261.362817 
L 107.213174 261.362817 
L 107.213174 259.459972 
L 107.614095 259.459972 
L 107.614095 256.605705 
L 108.764355 256.605705 
L 108.764355 254.70286 
L 109.131511 254.70286 
L 109.131511 254.227149 
L 109.491096 254.227149 
L 109.491096 253.275727 
L 109.843417 253.275727 
L 109.843417 249.470037 
L 110.188761 249.470037 
L 110.188761 245.664348 
L 110.527398 245.664348 
L 110.527398 245.188637 
L 110.859585 245.188637 
L 110.859585 244.712925 
L 111.505558 244.712925 
L 111.505558 242.334369 
L 111.819788 242.334369 
L 111.819788 240.431525 
L 112.72987 240.431525 
L 112.72987 236.150124 
L 113.022974 236.150124 
L 113.022974 235.674413 
L 113.311233 235.674413 
L 113.311233 233.771568 
L 114.685115 233.771568 
L 114.685115 229.965879 
L 114.947365 229.965879 
L 114.947365 229.490168 
L 116.680349 229.490168 
L 116.680349 228.538745 
L 116.914437 228.538745 
L 116.914437 226.160189 
L 117.145424 226.160189 
L 117.145424 223.781633 
L 117.820578 223.781633 
L 117.820578 218.073099 
L 118.256582 218.073099 
L 118.256582 216.170255 
L 118.681952 216.170255 
L 118.681952 213.315987 
L 119.702083 213.315987 
L 119.702083 212.840276 
L 120.093994 212.840276 
L 120.093994 210.937432 
L 120.852343 210.937432 
L 120.852343 210.46172 
L 121.036887 210.46172 
L 121.036887 209.986009 
L 121.400219 209.986009 
L 121.400219 209.034587 
L 121.579085 209.034587 
L 121.579085 208.558876 
L 122.276749 208.558876 
L 122.276749 208.083164 
L 126.50685 208.083164 
L 126.50685 207.607453 
L 126.773103 207.607453 
L 126.773103 207.131742 
L 129.46138 207.131742 
L 129.46138 206.656031 
L 132.278599 206.656031 
L 132.278599 206.18032 
L 133.667073 206.18032 
L 133.667073 205.704609 
L 135.681535 205.704609 
L 135.681535 205.228897 
L 138.927025 205.228897 
L 138.927025 204.753186 
L 139.980403 204.753186 
L 139.980403 204.277475 
L 141.435758 204.277475 
L 141.435758 203.801764 
L 142.324576 203.801764 
L 142.324576 203.326053 
L 143.014805 203.326053 
L 143.014805 202.850341 
L 147.48985 202.850341 
L 147.48985 202.37463 
L 150.275665 202.37463 
L 150.275665 201.898919 
L 150.899466 201.898919 
L 150.899466 201.423208 
L 151.0643 201.423208 
L 151.0643 199.996074 
L 151.389366 199.996074 
L 151.389366 198.09323 
L 151.581536 198.09323 
L 151.676833 195.238963 
L 151.928441 195.238963 
L 151.928441 193.811829 
L 152.207228 193.811829 
L 152.237931 191.433273 
L 152.329717 191.433273 
L 152.329717 190.957562 
L 152.572143 190.957562 
L 152.602211 188.103295 
L 152.692105 188.103295 
L 152.692105 187.151872 
L 152.811246 187.151872 
L 152.811246 186.20045 
L 152.929579 186.20045 
L 153.017805 182.870472 
L 153.163864 182.870472 
L 153.163864 182.394761 
L 153.423725 182.394761 
L 153.452361 178.589071 
L 153.59484 178.589071 
L 153.59484 178.11336 
L 153.764292 178.11336 
L 153.764292 177.637649 
L 154.098334 177.637649 
L 154.180855 176.686227 
L 154.262987 176.686227 
L 154.262987 176.210515 
L 154.426099 176.210515 
L 154.426099 171.453404 
L 154.641235 171.453404 
L 154.641235 170.02627 
L 154.985269 170.02627 
L 155.063706 168.599136 
L 155.577798 168.599136 
L 155.577798 168.123425 
L 156.800392 168.123425 
L 156.800392 167.647714 
L 157.069866 167.647714 
L 157.069866 167.172003 
L 159.778062 167.172003 
L 159.778062 166.696292 
L 160.288133 166.696292 
L 160.384537 165.744869 
L 160.442124 165.744869 
L 160.442124 164.793447 
L 160.727241 164.793447 
L 160.727241 164.317736 
L 160.858717 164.317736 
L 160.914762 162.890602 
L 161.026314 162.890602 
L 161.044837 161.463469 
L 161.155563 161.463469 
L 161.155563 160.987758 
L 161.338558 160.987758 
L 161.393084 157.657779 
L 161.6095 157.657779 
L 161.627414 150.997823 
L 161.893939 150.997823 
L 161.981883 150.0464 
L 162.130378 150.0464 
L 162.191157 146.240711 
L 162.260361 146.240711 
L 162.29486 142.910733 
L 162.38081 142.910733 
L 162.432178 138.153621 
L 162.534461 138.153621 
L 162.568423 132.445087 
L 162.653039 132.445087 
L 162.737246 130.066531 
L 162.9377 130.066531 
L 162.9377 127.687975 
L 163.549667 127.687975 
L 163.58171 123.882285 
L 163.788565 123.882285 
L 163.84384 120.552307 
L 163.930348 120.552307 
L 164.00081 117.222329 
L 164.15638 117.222329 
L 164.202782 115.319484 
L 164.371873 115.319484 
L 164.463418 111.038084 
L 164.599841 111.038084 
L 164.705214 103.902416 
L 164.943704 103.902416 
L 164.943704 102.950993 
L 165.200871 102.950993 
L 165.302685 100.572438 
L 165.331666 100.572438 
L 165.375047 98.669593 
L 165.561796 98.669593 
L 165.647318 92.961059 
L 165.675732 92.961059 
L 165.774819 91.058214 
L 165.803027 91.058214 
L 165.873346 84.873969 
L 165.915403 84.873969 
L 165.985272 81.068279 
L 166.068747 81.068279 
L 166.138005 78.214012 
L 166.193215 78.214012 
L 166.275702 72.029767 
L 166.330478 72.029767 
L 166.398707 67.272655 
L 166.46667 67.272655 
L 166.547878 64.418388 
L 166.682389 64.418388 
L 166.682389 63.942677 
L 167.210292 63.942677 
L 167.236273 59.661276 
L 167.365597 59.661276 
L 167.442734 57.28272 
L 167.557803 57.28272 
L 167.557803 56.331298 
L 176.174534 56.331298 
L 176.174534 55.855587 
L 182.66318 55.855587 
L 182.66318 55.379875 
L 183.571627 55.379875 
L 183.571627 54.904164 
L 186.953079 54.904164 
L 187.049198 49.671341 
L 187.074186 49.671341 
L 187.182054 47.292785 
L 187.367186 47.292785 
L 187.367186 46.817074 
L 188.122008 46.817074 
L 188.219708 40.157118 
L 188.239182 40.157118 
L 188.336229 35.400006 
L 188.355574 35.400006 
L 188.355574 34.924295 
L 188.698263 34.924295 
L 188.698263 34.448583 
L 189.780586 34.448583 
L 189.780586 33.972872 
L 190.360577 33.972872 
L 190.360577 33.497161 
L 190.555948 33.497161 
L 190.583194 27.312916 
L 190.87678 27.312916 
L 190.976882 18.274403 
L 191.049926 18.274403 
L 191.049926 17.322981 
L 193.822487 17.322981 
L 193.850726 13.04158 
L 203.118853 13.04158 
L 203.15199 6.381624 
L 338.688 6.381624 
L 338.688 6.381624 
" style="fill:none;stroke:#228b22;stroke-linecap:square;stroke-width:1.5;"/>
   </g>
   <g id="line2d_59">
    <defs>
     <path d="M 0 0 
L 0 6 
M 0 0 
L 4.8 -3 
M 0 0 
L -4.8 -3 
" id="me703ed4223" style="stroke:#228b22;stroke-width:1.5;"/>
    </defs>
    <g>
     <use style="fill-opacity:0;stroke:#228b22;stroke-width:1.5;" x="143.014805" xlink:href="#me703ed4223" y="203.326053"/>
     <use style="fill-opacity:0;stroke:#228b22;stroke-width:1.5;" x="176.174534" xlink:href="#me703ed4223" y="55.855587"/>
     <use style="fill-opacity:0;stroke:#228b22;stroke-width:1.5;" x="203.15199" xlink:href="#me703ed4223" y="6.381624"/>
     <use style="fill-opacity:0;stroke:#228b22;stroke-width:1.5;" x="203.15199" xlink:href="#me703ed4223" y="6.381624"/>
     <use style="fill-opacity:0;stroke:#228b22;stroke-width:1.5;" x="338.688" xlink:href="#me703ed4223" y="6.381624"/>
    </g>
   </g>
   <g id="line2d_60">
    <path style="fill:none;stroke:#228b22;stroke-linecap:square;stroke-width:1.5;"/>
    <g/>
   </g>
   <g id="line2d_61">
    <defs>
     <path d="M 0 1.5 
C 0.397805 1.5 0.77937 1.341951 1.06066 1.06066 
C 1.341951 0.77937 1.5 0.397805 1.5 0 
C 1.5 -0.397805 1.341951 -0.77937 1.06066 -1.06066 
C 0.77937 -1.341951 0.397805 -1.5 0 -1.5 
C -0.397805 -1.5 -0.77937 -1.341951 -1.06066 -1.06066 
C -1.341951 -0.77937 -1.5 -0.397805 -1.5 0 
C -1.5 0.397805 -1.341951 0.77937 -1.06066 1.06066 
C -0.77937 1.341951 -0.397805 1.5 0 1.5 
z
" id="mc07a11c6e3" style="stroke:#ffc0cb;"/>
    </defs>
    <g>
     <use style="fill:#ffc0cb;stroke:#ffc0cb;" x="206.162999" xlink:href="#mc07a11c6e3" y="6.381624"/>
     <use style="fill:#ffc0cb;stroke:#ffc0cb;" x="206.162999" xlink:href="#mc07a11c6e3" y="6.381624"/>
    </g>
   </g>
   <g id="line2d_62">
    <path d="M 92.026554 298.944 
L 92.026554 297.516866 
L 97.755429 297.516866 
L 97.755429 296.089733 
L 99.097574 296.089733 
L 99.097574 290.381199 
L 99.731799 290.381199 
L 99.731799 288.478354 
L 100.343767 288.478354 
L 100.343767 287.526932 
L 100.934985 287.526932 
L 100.934985 284.196953 
L 102.060491 284.196953 
L 102.060491 280.391264 
L 103.623262 280.391264 
L 103.623262 278.012708 
L 104.114542 278.012708 
L 104.114542 276.585574 
L 105.51043 276.585574 
L 105.51043 274.68273 
L 107.614095 274.68273 
L 107.614095 266.59564 
L 109.131511 266.59564 
L 109.131511 264.217084 
L 109.491096 264.217084 
L 109.491096 263.265661 
L 110.188761 263.265661 
L 110.188761 262.78995 
L 110.527398 262.78995 
L 110.527398 261.838528 
L 111.185562 261.838528 
L 111.185562 259.459972 
L 111.819788 259.459972 
L 111.819788 258.984261 
L 112.431755 258.984261 
L 112.431755 257.081416 
L 113.022974 257.081416 
L 113.022974 251.372882 
L 113.311233 251.372882 
L 113.311233 246.140059 
L 114.148479 246.140059 
L 114.148479 243.761503 
L 114.685115 243.761503 
L 114.685115 242.334369 
L 114.947365 242.334369 
L 114.947365 241.858658 
L 115.205729 241.858658 
L 115.205729 237.577258 
L 115.460322 237.577258 
L 115.460322 233.295857 
L 115.711251 233.295857 
L 115.711251 232.820146 
L 116.914437 232.820146 
L 116.914437 231.393012 
L 117.145424 231.393012 
L 117.145424 229.014456 
L 118.039942 229.014456 
L 118.039942 226.635901 
L 118.256582 226.635901 
L 118.256582 225.208767 
L 118.681952 225.208767 
L 118.681952 222.3545 
L 119.301163 222.3545 
L 119.301163 220.927366 
L 149.012299 220.927366 
L 149.085961 219.024522 
L 149.195872 219.024522 
L 149.268764 217.597388 
L 149.377533 217.597388 
L 149.449671 212.840276 
L 149.557321 212.840276 
L 149.664311 207.607453 
L 149.805951 207.607453 
L 149.805951 205.704609 
L 149.981398 205.704609 
L 150.085825 200.471786 
L 150.120495 200.471786 
L 150.224095 194.28754 
L 150.292822 194.28754 
L 150.395406 191.433273 
L 150.49739 191.433273 
L 150.49739 190.481851 
L 150.66605 190.481851 
L 150.73306 186.20045 
L 150.833094 186.20045 
L 150.899466 180.491916 
L 150.965587 180.491916 
L 151.031458 175.734804 
L 151.097081 175.734804 
L 151.1298 173.356248 
L 151.227591 173.356248 
L 151.324836 165.269158 
L 151.485716 165.269158 
L 151.581536 163.366313 
L 151.645126 163.366313 
L 151.645126 162.890602 
L 151.771612 162.890602 
L 151.771612 159.084913 
L 151.928441 159.084913 
L 151.959639 156.230646 
L 152.114793 156.230646 
L 152.145659 152.900667 
L 152.237931 152.900667 
L 152.26858 150.522112 
L 152.632227 150.522112 
L 152.721966 146.716422 
L 153.017805 146.716422 
L 153.017805 144.813577 
L 153.192929 144.813577 
L 153.192929 142.910733 
L 153.366312 142.910733 
L 153.452361 137.202199 
L 154.235652 137.202199 
L 154.235652 135.299354 
L 154.480132 135.299354 
L 154.480132 133.87222 
L 155.399584 133.87222 
L 155.399584 133.396509 
L 157.392398 133.396509 
L 157.483465 131.969376 
L 157.528821 131.969376 
L 157.528821 130.542242 
L 157.664184 130.542242 
L 157.686643 128.163686 
L 157.798506 128.163686 
L 157.798506 127.212264 
L 157.9318 127.212264 
L 157.953917 125.78513 
L 158.107956 125.78513 
L 158.107956 123.882285 
L 158.325678 123.882285 
L 158.433528 119.600885 
L 158.497919 119.600885 
L 158.583406 117.222329 
L 158.625992 117.222329 
L 158.732007 115.319484 
L 158.774233 115.319484 
L 158.774233 113.892351 
L 166.921925 113.892351 
L 166.96153 112.940928 
L 167.066705 112.940928 
L 167.158215 105.329549 
L 167.236273 105.329549 
L 167.339809 102.475282 
L 167.442734 102.475282 
L 167.442734 100.096726 
L 167.570541 100.096726 
L 167.634096 98.669593 
L 167.684773 98.669593 
L 167.773105 94.388192 
L 168.084975 94.388192 
L 168.109685 91.533925 
L 168.269454 91.533925 
L 168.269454 91.058214 
L 168.391365 91.058214 
L 168.439892 89.63108 
L 168.512429 89.63108 
L 168.512429 89.155369 
L 168.668567 89.155369 
L 168.692465 88.203947 
L 168.811464 88.203947 
L 168.811464 87.728236 
L 169.474679 87.728236 
L 169.474679 87.252525 
L 170.234242 87.252525 
L 170.234242 86.776813 
L 171.024887 86.776813 
L 171.024887 86.301102 
L 171.427588 86.301102 
L 171.427588 85.825391 
L 171.811218 85.825391 
L 171.811218 85.34968 
L 172.380955 85.34968 
L 172.380955 84.873969 
L 173.942208 84.873969 
L 173.986335 83.922546 
L 176.279182 83.922546 
L 176.279182 83.446835 
L 179.121894 83.446835 
L 179.180888 79.165434 
L 179.23316 79.165434 
L 179.31777 77.26259 
L 179.401971 77.26259 
L 179.447142 76.311167 
L 179.588351 76.311167 
L 179.588351 75.835456 
L 179.816983 75.835456 
L 179.839052 74.884034 
L 180.061331 74.884034 
L 180.061331 74.408323 
L 180.479353 74.408323 
L 180.479353 73.932611 
L 180.854923 73.932611 
L 180.923155 72.981189 
L 180.997019 72.981189 
L 181.096975 68.224077 
L 181.173027 68.224077 
L 181.208016 63.942677 
L 181.312565 63.942677 
L 181.399213 59.661276 
L 181.433752 59.661276 
L 181.53696 54.904164 
L 181.54839 54.904164 
L 181.645244 48.244208 
L 181.66228 48.244208 
L 181.718947 44.438518 
L 181.940999 44.438518 
L 181.940999 43.962807 
L 182.711348 43.962807 
L 182.711348 43.487096 
L 183.834181 43.487096 
L 183.834181 43.011385 
L 189.436917 43.011385 
L 189.436917 42.535674 
L 190.379524 42.535674 
L 190.487646 31.594316 
L 190.491067 31.594316 
L 190.576387 18.274403 
L 190.644343 18.274403 
L 190.647734 15.895847 
L 196.844478 15.895847 
L 196.844478 15.420136 
L 197.706883 15.420136 
L 197.706883 14.944425 
L 201.881042 14.944425 
L 201.959205 9.711602 
L 202.167112 9.711602 
L 202.167112 9.235891 
L 206.119769 9.235891 
L 206.162999 6.381624 
L 338.688 6.381624 
L 338.688 6.381624 
" style="fill:none;stroke:#ffc0cb;stroke-linecap:square;stroke-width:1.5;"/>
   </g>
   <g id="line2d_63">
    <defs>
     <path d="M -0 8.485281 
L 8.485281 0 
L 0 -8.485281 
L -8.485281 -0 
z
" id="m03f5665690" style="stroke:#ffc0cb;stroke-linejoin:miter;stroke-width:1.5;"/>
    </defs>
    <g>
     <use style="fill-opacity:0;stroke:#ffc0cb;stroke-linejoin:miter;stroke-width:1.5;" x="155.399584" xlink:href="#m03f5665690" y="133.87222"/>
     <use style="fill-opacity:0;stroke:#ffc0cb;stroke-linejoin:miter;stroke-width:1.5;" x="206.162999" xlink:href="#m03f5665690" y="6.857335"/>
     <use style="fill-opacity:0;stroke:#ffc0cb;stroke-linejoin:miter;stroke-width:1.5;" x="206.162999" xlink:href="#m03f5665690" y="6.381624"/>
     <use style="fill-opacity:0;stroke:#ffc0cb;stroke-linejoin:miter;stroke-width:1.5;" x="206.162999" xlink:href="#m03f5665690" y="6.381624"/>
     <use style="fill-opacity:0;stroke:#ffc0cb;stroke-linejoin:miter;stroke-width:1.5;" x="338.688" xlink:href="#m03f5665690" y="6.381624"/>
    </g>
   </g>
   <g id="line2d_64">
    <path style="fill:none;stroke:#ffc0cb;stroke-linecap:square;stroke-width:1.5;"/>
    <g/>
   </g>
   <g id="line2d_65">
    <path d="M 338.688 6.381624 
L 369.60768 293.092752 
" style="fill:none;stroke:#ffc0cb;stroke-linecap:square;stroke-width:1.5;"/>
    <g>
     <use style="fill-opacity:0;stroke:#ffc0cb;stroke-linejoin:miter;stroke-width:1.5;" x="338.688" xlink:href="#m03f5665690" y="6.381624"/>
     <use style="fill-opacity:0;stroke:#ffc0cb;stroke-linejoin:miter;stroke-width:1.5;" x="369.60768" xlink:href="#m03f5665690" y="293.092752"/>
    </g>
   </g>
   <g id="line2d_66">
    <path d="M 338.688 6.381624 
L 369.60768 257.985267 
" style="fill:none;stroke:#228b22;stroke-linecap:square;stroke-width:1.5;"/>
    <g>
     <use style="fill-opacity:0;stroke:#228b22;stroke-width:1.5;" x="338.688" xlink:href="#me703ed4223" y="6.381624"/>
     <use style="fill-opacity:0;stroke:#228b22;stroke-width:1.5;" x="369.60768" xlink:href="#me703ed4223" y="257.985267"/>
    </g>
   </g>
   <g id="line2d_67">
    <path d="M 338.688 6.381624 
L 369.60768 222.877782 
" style="fill:none;stroke:#ff00ff;stroke-linecap:square;stroke-width:1.5;"/>
    <g>
     <use style="fill-opacity:0;stroke:#ff00ff;stroke-linejoin:miter;stroke-width:1.5;" x="338.688" xlink:href="#m3652733bbd" y="6.381624"/>
     <use style="fill-opacity:0;stroke:#ff00ff;stroke-linejoin:miter;stroke-width:1.5;" x="369.60768" xlink:href="#m3652733bbd" y="222.877782"/>
    </g>
   </g>
   <g id="line2d_68">
    <path d="M 338.688 6.381624 
L 369.60768 187.770297 
" style="fill:none;stroke:#6495ed;stroke-linecap:square;stroke-width:1.5;"/>
    <g>
     <use style="fill-opacity:0;stroke:#6495ed;stroke-linejoin:miter;stroke-width:1.5;" x="338.688" xlink:href="#mda73bc764b" y="6.381624"/>
     <use style="fill-opacity:0;stroke:#6495ed;stroke-linejoin:miter;stroke-width:1.5;" x="369.60768" xlink:href="#mda73bc764b" y="187.770297"/>
    </g>
   </g>
   <g id="line2d_69">
    <path d="M 338.688 6.381624 
L 369.60768 152.662812 
" style="fill:none;stroke:#ff0000;stroke-linecap:square;stroke-width:1.5;"/>
    <g>
     <use style="fill-opacity:0;stroke:#ff0000;stroke-linejoin:miter;stroke-width:1.5;" x="338.688" xlink:href="#ma9d04b1350" y="6.381624"/>
     <use style="fill-opacity:0;stroke:#ff0000;stroke-linejoin:miter;stroke-width:1.5;" x="369.60768" xlink:href="#ma9d04b1350" y="152.662812"/>
    </g>
   </g>
   <g id="line2d_70">
    <path d="M 338.688 6.381624 
L 369.60768 117.555327 
" style="fill:none;stroke:#9acd32;stroke-linecap:square;stroke-width:1.5;"/>
    <g>
     <use style="fill-opacity:0;stroke:#9acd32;stroke-linejoin:miter;stroke-width:1.5;" x="338.688" xlink:href="#mc44683cf5d" y="6.381624"/>
     <use style="fill-opacity:0;stroke:#9acd32;stroke-linejoin:miter;stroke-width:1.5;" x="369.60768" xlink:href="#mc44683cf5d" y="117.555327"/>
    </g>
   </g>
   <g id="line2d_71">
    <path d="M 338.688 6.381624 
L 369.60768 82.447842 
" style="fill:none;stroke:#00bfbf;stroke-linecap:square;stroke-width:1.5;"/>
    <g>
     <use style="fill-opacity:0;stroke:#00bfbf;stroke-linejoin:miter;stroke-width:1.5;" x="338.688" xlink:href="#meceb827a66" y="6.381624"/>
     <use style="fill-opacity:0;stroke:#00bfbf;stroke-linejoin:miter;stroke-width:1.5;" x="369.60768" xlink:href="#meceb827a66" y="82.447842"/>
    </g>
   </g>
   <g id="line2d_72">
    <path d="M 338.688 6.381624 
L 369.60768 47.340356 
" style="fill:none;stroke:#ff7500;stroke-linecap:square;stroke-width:1.5;"/>
    <g>
     <use style="fill-opacity:0;stroke:#ff7500;stroke-linejoin:bevel;stroke-width:1.5;" x="338.688" xlink:href="#m267cb03aec" y="6.381624"/>
     <use style="fill-opacity:0;stroke:#ff7500;stroke-linejoin:bevel;stroke-width:1.5;" x="369.60768" xlink:href="#m267cb03aec" y="47.340356"/>
    </g>
   </g>
   <g id="line2d_73">
    <path d="M 338.688 6.381624 
L 369.60768 12.232871 
" style="fill:none;stroke:#000080;stroke-linecap:square;stroke-width:1.5;"/>
    <g>
     <use style="fill-opacity:0;stroke:#000080;stroke-width:1.5;" x="338.688" xlink:href="#m1439bd1354" y="6.381624"/>
     <use style="fill-opacity:0;stroke:#000080;stroke-width:1.5;" x="369.60768" xlink:href="#m1439bd1354" y="12.232871"/>
    </g>
   </g>
   <g id="line2d_74">
    <path d="M 338.688 298.944 
L 338.688 6.381624 
" style="fill:none;stroke:#000000;stroke-linecap:square;stroke-width:1.5;"/>
   </g>
   <g id="patch_3">
    <path d="M 57.6 298.944 
L 57.6 3.456 
" style="fill:none;stroke:#000000;stroke-linecap:square;stroke-linejoin:miter;stroke-width:0.8;"/>
   </g>
   <g id="patch_4">
    <path d="M 338.688 298.944 
L 338.688 3.456 
" style="fill:none;stroke:#000000;stroke-linecap:square;stroke-linejoin:miter;stroke-width:0.8;"/>
   </g>
   <g id="patch_5">
    <path d="M 57.6 298.944 
L 338.688 298.944 
" style="fill:none;stroke:#000000;stroke-linecap:square;stroke-linejoin:miter;stroke-width:0.8;"/>
   </g>
   <g id="patch_6">
    <path d="M 57.6 3.456 
L 338.688 3.456 
" style="fill:none;stroke:#000000;stroke-linecap:square;stroke-linejoin:miter;stroke-width:0.8;"/>
   </g>
   <g id="text_13">
    <!-- f51 -->
    <g transform="translate(375.22944 297.78369)scale(0.17 -0.17)">
     <defs>
      <path d="M 10.796875 72.90625 
L 49.515625 72.90625 
L 49.515625 64.59375 
L 19.828125 64.59375 
L 19.828125 46.734375 
Q 21.96875 47.46875 24.109375 47.828125 
Q 26.265625 48.1875 28.421875 48.1875 
Q 40.625 48.1875 47.75 41.5 
Q 54.890625 34.8125 54.890625 23.390625 
Q 54.890625 11.625 47.5625 5.09375 
Q 40.234375 -1.421875 26.90625 -1.421875 
Q 22.3125 -1.421875 17.546875 -0.640625 
Q 12.796875 0.140625 7.71875 1.703125 
L 7.71875 11.625 
Q 12.109375 9.234375 16.796875 8.0625 
Q 21.484375 6.890625 26.703125 6.890625 
Q 35.15625 6.890625 40.078125 11.328125 
Q 45.015625 15.765625 45.015625 23.390625 
Q 45.015625 31 40.078125 35.4375 
Q 35.15625 39.890625 26.703125 39.890625 
Q 22.75 39.890625 18.8125 39.015625 
Q 14.890625 38.140625 10.796875 36.28125 
z
" id="DejaVuSans-53"/>
     </defs>
     <use xlink:href="#DejaVuSans-102"/>
     <use x="35.205078" xlink:href="#DejaVuSans-53"/>
     <use x="98.828125" xlink:href="#DejaVuSans-49"/>
    </g>
   </g>
   <g id="text_14">
    <!-- f45 -->
    <g transform="translate(375.22944 262.676205)scale(0.17 -0.17)">
     <use xlink:href="#DejaVuSans-102"/>
     <use x="35.205078" xlink:href="#DejaVuSans-52"/>
     <use x="98.828125" xlink:href="#DejaVuSans-53"/>
    </g>
   </g>
   <g id="text_15">
    <!-- f9 -->
    <g transform="translate(375.22944 227.56872)scale(0.17 -0.17)">
     <defs>
      <path d="M 10.984375 1.515625 
L 10.984375 10.5 
Q 14.703125 8.734375 18.5 7.8125 
Q 22.3125 6.890625 25.984375 6.890625 
Q 35.75 6.890625 40.890625 13.453125 
Q 46.046875 20.015625 46.78125 33.40625 
Q 43.953125 29.203125 39.59375 26.953125 
Q 35.25 24.703125 29.984375 24.703125 
Q 19.046875 24.703125 12.671875 31.3125 
Q 6.296875 37.9375 6.296875 49.421875 
Q 6.296875 60.640625 12.9375 67.421875 
Q 19.578125 74.21875 30.609375 74.21875 
Q 43.265625 74.21875 49.921875 64.515625 
Q 56.59375 54.828125 56.59375 36.375 
Q 56.59375 19.140625 48.40625 8.859375 
Q 40.234375 -1.421875 26.421875 -1.421875 
Q 22.703125 -1.421875 18.890625 -0.6875 
Q 15.09375 0.046875 10.984375 1.515625 
z
M 30.609375 32.421875 
Q 37.25 32.421875 41.125 36.953125 
Q 45.015625 41.5 45.015625 49.421875 
Q 45.015625 57.28125 41.125 61.84375 
Q 37.25 66.40625 30.609375 66.40625 
Q 23.96875 66.40625 20.09375 61.84375 
Q 16.21875 57.28125 16.21875 49.421875 
Q 16.21875 41.5 20.09375 36.953125 
Q 23.96875 32.421875 30.609375 32.421875 
z
" id="DejaVuSans-57"/>
     </defs>
     <use xlink:href="#DejaVuSans-102"/>
     <use x="35.205078" xlink:href="#DejaVuSans-57"/>
    </g>
   </g>
   <g id="text_16">
    <!-- f21 -->
    <g transform="translate(375.22944 192.461235)scale(0.17 -0.17)">
     <use xlink:href="#DejaVuSans-102"/>
     <use x="35.205078" xlink:href="#DejaVuSans-50"/>
     <use x="98.828125" xlink:href="#DejaVuSans-49"/>
    </g>
   </g>
   <g id="text_17">
    <!-- f27 -->
    <g transform="translate(375.22944 157.353749)scale(0.17 -0.17)">
     <defs>
      <path d="M 8.203125 72.90625 
L 55.078125 72.90625 
L 55.078125 68.703125 
L 28.609375 0 
L 18.3125 0 
L 43.21875 64.59375 
L 8.203125 64.59375 
z
" id="DejaVuSans-55"/>
     </defs>
     <use xlink:href="#DejaVuSans-102"/>
     <use x="35.205078" xlink:href="#DejaVuSans-50"/>
     <use x="98.828125" xlink:href="#DejaVuSans-55"/>
    </g>
   </g>
   <g id="text_18">
    <!-- f33 -->
    <g transform="translate(375.22944 122.246264)scale(0.17 -0.17)">
     <defs>
      <path d="M 40.578125 39.3125 
Q 47.65625 37.796875 51.625 33 
Q 55.609375 28.21875 55.609375 21.1875 
Q 55.609375 10.40625 48.1875 4.484375 
Q 40.765625 -1.421875 27.09375 -1.421875 
Q 22.515625 -1.421875 17.65625 -0.515625 
Q 12.796875 0.390625 7.625 2.203125 
L 7.625 11.71875 
Q 11.71875 9.328125 16.59375 8.109375 
Q 21.484375 6.890625 26.8125 6.890625 
Q 36.078125 6.890625 40.9375 10.546875 
Q 45.796875 14.203125 45.796875 21.1875 
Q 45.796875 27.640625 41.28125 31.265625 
Q 36.765625 34.90625 28.71875 34.90625 
L 20.21875 34.90625 
L 20.21875 43.015625 
L 29.109375 43.015625 
Q 36.375 43.015625 40.234375 45.921875 
Q 44.09375 48.828125 44.09375 54.296875 
Q 44.09375 59.90625 40.109375 62.90625 
Q 36.140625 65.921875 28.71875 65.921875 
Q 24.65625 65.921875 20.015625 65.03125 
Q 15.375 64.15625 9.8125 62.3125 
L 9.8125 71.09375 
Q 15.4375 72.65625 20.34375 73.4375 
Q 25.25 74.21875 29.59375 74.21875 
Q 40.828125 74.21875 47.359375 69.109375 
Q 53.90625 64.015625 53.90625 55.328125 
Q 53.90625 49.265625 50.4375 45.09375 
Q 46.96875 40.921875 40.578125 39.3125 
z
" id="DejaVuSans-51"/>
     </defs>
     <use xlink:href="#DejaVuSans-102"/>
     <use x="35.205078" xlink:href="#DejaVuSans-51"/>
     <use x="98.828125" xlink:href="#DejaVuSans-51"/>
    </g>
   </g>
   <g id="text_19">
    <!-- f39 -->
    <g transform="translate(375.22944 87.138779)scale(0.17 -0.17)">
     <use xlink:href="#DejaVuSans-102"/>
     <use x="35.205078" xlink:href="#DejaVuSans-51"/>
     <use x="98.828125" xlink:href="#DejaVuSans-57"/>
    </g>
   </g>
   <g id="text_20">
    <!-- f15 -->
    <g transform="translate(375.22944 52.031294)scale(0.17 -0.17)">
     <use xlink:href="#DejaVuSans-102"/>
     <use x="35.205078" xlink:href="#DejaVuSans-49"/>
     <use x="98.828125" xlink:href="#DejaVuSans-53"/>
    </g>
   </g>
   <g id="text_21">
    <!-- f3 -->
    <g transform="translate(375.22944 16.923809)scale(0.17 -0.17)">
     <use xlink:href="#DejaVuSans-102"/>
     <use x="35.205078" xlink:href="#DejaVuSans-51"/>
    </g>
   </g>
   <g id="text_22">
    <!-- bbob-constrained -->
    <g transform="translate(60.41088 14.161286)scale(0.102 -0.102)">
     <defs>
      <path d="M 48.6875 27.296875 
Q 48.6875 37.203125 44.609375 42.84375 
Q 40.53125 48.484375 33.40625 48.484375 
Q 26.265625 48.484375 22.1875 42.84375 
Q 18.109375 37.203125 18.109375 27.296875 
Q 18.109375 17.390625 22.1875 11.75 
Q 26.265625 6.109375 33.40625 6.109375 
Q 40.53125 6.109375 44.609375 11.75 
Q 48.6875 17.390625 48.6875 27.296875 
z
M 18.109375 46.390625 
Q 20.953125 51.265625 25.265625 53.625 
Q 29.59375 56 35.59375 56 
Q 45.5625 56 51.78125 48.09375 
Q 58.015625 40.1875 58.015625 27.296875 
Q 58.015625 14.40625 51.78125 6.484375 
Q 45.5625 -1.421875 35.59375 -1.421875 
Q 29.59375 -1.421875 25.265625 0.953125 
Q 20.953125 3.328125 18.109375 8.203125 
L 18.109375 0 
L 9.078125 0 
L 9.078125 75.984375 
L 18.109375 75.984375 
z
" id="DejaVuSans-98"/>
     </defs>
     <use xlink:href="#DejaVuSans-98"/>
     <use x="63.476562" xlink:href="#DejaVuSans-98"/>
     <use x="126.953125" xlink:href="#DejaVuSans-111"/>
     <use x="188.134766" xlink:href="#DejaVuSans-98"/>
     <use x="251.611328" xlink:href="#DejaVuSans-45"/>
     <use x="287.695312" xlink:href="#DejaVuSans-99"/>
     <use x="342.675781" xlink:href="#DejaVuSans-111"/>
     <use x="403.857422" xlink:href="#DejaVuSans-110"/>
     <use x="467.236328" xlink:href="#DejaVuSans-115"/>
     <use x="519.335938" xlink:href="#DejaVuSans-116"/>
     <use x="558.544922" xlink:href="#DejaVuSans-114"/>
     <use x="599.658203" xlink:href="#DejaVuSans-97"/>
     <use x="660.9375" xlink:href="#DejaVuSans-105"/>
     <use x="688.720703" xlink:href="#DejaVuSans-110"/>
     <use x="752.099609" xlink:href="#DejaVuSans-101"/>
     <use x="813.623047" xlink:href="#DejaVuSans-100"/>
    </g>
    <!-- Multi-modal functions with0n+9constraints, 5-D -->
    <g transform="translate(60.41088 25.583055)scale(0.102 -0.102)">
     <defs>
      <path d="M 9.8125 72.90625 
L 24.515625 72.90625 
L 43.109375 23.296875 
L 61.8125 72.90625 
L 76.515625 72.90625 
L 76.515625 0 
L 66.890625 0 
L 66.890625 64.015625 
L 48.09375 14.015625 
L 38.1875 14.015625 
L 19.390625 64.015625 
L 19.390625 0 
L 9.8125 0 
z
" id="DejaVuSans-77"/>
      <path d="M 4.203125 54.6875 
L 13.1875 54.6875 
L 24.421875 12.015625 
L 35.59375 54.6875 
L 46.1875 54.6875 
L 57.421875 12.015625 
L 68.609375 54.6875 
L 77.59375 54.6875 
L 63.28125 0 
L 52.6875 0 
L 40.921875 44.828125 
L 29.109375 0 
L 18.5 0 
z
" id="DejaVuSans-119"/>
      <path d="M 54.890625 33.015625 
L 54.890625 0 
L 45.90625 0 
L 45.90625 32.71875 
Q 45.90625 40.484375 42.875 44.328125 
Q 39.84375 48.1875 33.796875 48.1875 
Q 26.515625 48.1875 22.3125 43.546875 
Q 18.109375 38.921875 18.109375 30.90625 
L 18.109375 0 
L 9.078125 0 
L 9.078125 75.984375 
L 18.109375 75.984375 
L 18.109375 46.1875 
Q 21.34375 51.125 25.703125 53.5625 
Q 30.078125 56 35.796875 56 
Q 45.21875 56 50.046875 50.171875 
Q 54.890625 44.34375 54.890625 33.015625 
z
" id="DejaVuSans-104"/>
      <path d="M 19.671875 64.796875 
L 19.671875 8.109375 
L 31.59375 8.109375 
Q 46.6875 8.109375 53.6875 14.9375 
Q 60.6875 21.78125 60.6875 36.53125 
Q 60.6875 51.171875 53.6875 57.984375 
Q 46.6875 64.796875 31.59375 64.796875 
z
M 9.8125 72.90625 
L 30.078125 72.90625 
Q 51.265625 72.90625 61.171875 64.09375 
Q 71.09375 55.28125 71.09375 36.53125 
Q 71.09375 17.671875 61.125 8.828125 
Q 51.171875 0 30.078125 0 
L 9.8125 0 
z
" id="DejaVuSans-68"/>
     </defs>
     <use xlink:href="#DejaVuSans-77"/>
     <use x="86.279297" xlink:href="#DejaVuSans-117"/>
     <use x="149.658203" xlink:href="#DejaVuSans-108"/>
     <use x="177.441406" xlink:href="#DejaVuSans-116"/>
     <use x="216.650391" xlink:href="#DejaVuSans-105"/>
     <use x="244.433594" xlink:href="#DejaVuSans-45"/>
     <use x="280.517578" xlink:href="#DejaVuSans-109"/>
     <use x="377.929688" xlink:href="#DejaVuSans-111"/>
     <use x="439.111328" xlink:href="#DejaVuSans-100"/>
     <use x="502.587891" xlink:href="#DejaVuSans-97"/>
     <use x="563.867188" xlink:href="#DejaVuSans-108"/>
     <use x="591.650391" xlink:href="#DejaVuSans-32"/>
     <use x="623.4375" xlink:href="#DejaVuSans-102"/>
     <use x="658.642578" xlink:href="#DejaVuSans-117"/>
     <use x="722.021484" xlink:href="#DejaVuSans-110"/>
     <use x="785.400391" xlink:href="#DejaVuSans-99"/>
     <use x="840.380859" xlink:href="#DejaVuSans-116"/>
     <use x="879.589844" xlink:href="#DejaVuSans-105"/>
     <use x="907.373047" xlink:href="#DejaVuSans-111"/>
     <use x="968.554688" xlink:href="#DejaVuSans-110"/>
     <use x="1031.933594" xlink:href="#DejaVuSans-115"/>
     <use x="1084.033203" xlink:href="#DejaVuSans-32"/>
     <use x="1115.820312" xlink:href="#DejaVuSans-119"/>
     <use x="1197.607422" xlink:href="#DejaVuSans-105"/>
     <use x="1225.390625" xlink:href="#DejaVuSans-116"/>
     <use x="1264.599609" xlink:href="#DejaVuSans-104"/>
     <use x="1327.978516" xlink:href="#DejaVuSans-48"/>
     <use x="1391.601562" xlink:href="#DejaVuSans-110"/>
     <use x="1454.980469" xlink:href="#DejaVuSans-43"/>
     <use x="1538.769531" xlink:href="#DejaVuSans-57"/>
     <use x="1602.392578" xlink:href="#DejaVuSans-99"/>
     <use x="1657.373047" xlink:href="#DejaVuSans-111"/>
     <use x="1718.554688" xlink:href="#DejaVuSans-110"/>
     <use x="1781.933594" xlink:href="#DejaVuSans-115"/>
     <use x="1834.033203" xlink:href="#DejaVuSans-116"/>
     <use x="1873.242188" xlink:href="#DejaVuSans-114"/>
     <use x="1914.355469" xlink:href="#DejaVuSans-97"/>
     <use x="1975.634766" xlink:href="#DejaVuSans-105"/>
     <use x="2003.417969" xlink:href="#DejaVuSans-110"/>
     <use x="2066.796875" xlink:href="#DejaVuSans-116"/>
     <use x="2106.005859" xlink:href="#DejaVuSans-115"/>
     <use x="2158.105469" xlink:href="#DejaVuSans-44"/>
     <use x="2189.892578" xlink:href="#DejaVuSans-32"/>
     <use x="2221.679688" xlink:href="#DejaVuSans-53"/>
     <use x="2285.302734" xlink:href="#DejaVuSans-45"/>
     <use x="2321.386719" xlink:href="#DejaVuSans-68"/>
    </g>
    <!-- 41 targets: 100..1e-06 -->
    <g transform="translate(60.41088 37.004824)scale(0.102 -0.102)">
     <defs>
      <path d="M 11.71875 12.40625 
L 22.015625 12.40625 
L 22.015625 0 
L 11.71875 0 
z
M 11.71875 51.703125 
L 22.015625 51.703125 
L 22.015625 39.3125 
L 11.71875 39.3125 
z
" id="DejaVuSans-58"/>
     </defs>
     <use xlink:href="#DejaVuSans-52"/>
     <use x="63.623047" xlink:href="#DejaVuSans-49"/>
     <use x="127.246094" xlink:href="#DejaVuSans-32"/>
     <use x="159.033203" xlink:href="#DejaVuSans-116"/>
     <use x="198.242188" xlink:href="#DejaVuSans-97"/>
     <use x="259.521484" xlink:href="#DejaVuSans-114"/>
     <use x="298.884766" xlink:href="#DejaVuSans-103"/>
     <use x="362.361328" xlink:href="#DejaVuSans-101"/>
     <use x="423.884766" xlink:href="#DejaVuSans-116"/>
     <use x="463.09375" xlink:href="#DejaVuSans-115"/>
     <use x="515.193359" xlink:href="#DejaVuSans-58"/>
     <use x="548.884766" xlink:href="#DejaVuSans-32"/>
     <use x="580.671875" xlink:href="#DejaVuSans-49"/>
     <use x="644.294922" xlink:href="#DejaVuSans-48"/>
     <use x="707.917969" xlink:href="#DejaVuSans-48"/>
     <use x="771.541016" xlink:href="#DejaVuSans-46"/>
     <use x="803.328125" xlink:href="#DejaVuSans-46"/>
     <use x="835.115234" xlink:href="#DejaVuSans-49"/>
     <use x="898.738281" xlink:href="#DejaVuSans-101"/>
     <use x="960.261719" xlink:href="#DejaVuSans-45"/>
     <use x="996.345703" xlink:href="#DejaVuSans-48"/>
     <use x="1059.96875" xlink:href="#DejaVuSans-54"/>
    </g>
    <!-- 15 instances -->
    <g transform="translate(60.41088 48.426593)scale(0.102 -0.102)">
     <use xlink:href="#DejaVuSans-49"/>
     <use x="63.623047" xlink:href="#DejaVuSans-53"/>
     <use x="127.246094" xlink:href="#DejaVuSans-32"/>
     <use x="159.033203" xlink:href="#DejaVuSans-105"/>
     <use x="186.816406" xlink:href="#DejaVuSans-110"/>
     <use x="250.195312" xlink:href="#DejaVuSans-115"/>
     <use x="302.294922" xlink:href="#DejaVuSans-116"/>
     <use x="341.503906" xlink:href="#DejaVuSans-97"/>
     <use x="402.783203" xlink:href="#DejaVuSans-110"/>
     <use x="466.162109" xlink:href="#DejaVuSans-99"/>
     <use x="521.142578" xlink:href="#DejaVuSans-101"/>
     <use x="582.666016" xlink:href="#DejaVuSans-115"/>
    </g>
   </g>
   <g id="text_23">
    <!-- v2.4.82 -->
    <g style="fill:#808080;" transform="translate(179.2815 293.909432)scale(0.1 -0.1)">
     <use xlink:href="#DejaVuSans-118"/>
     <use x="59.179688" xlink:href="#DejaVuSans-50"/>
     <use x="122.802734" xlink:href="#DejaVuSans-46"/>
     <use x="154.589844" xlink:href="#DejaVuSans-52"/>
     <use x="218.212891" xlink:href="#DejaVuSans-46"/>
     <use x="250" xlink:href="#DejaVuSans-56"/>
     <use x="313.623047" xlink:href="#DejaVuSans-50"/>
    </g>
   </g>
  </g>
 </g>
 <defs>
  <clipPath id="p6f4ec1902b">
   <rect height="295.488" width="281.088" x="57.6" y="3.456"/>
  </clipPath>
 </defs>
</svg>
