<?xml version="1.0" encoding="utf-8" standalone="no"?>
<!DOCTYPE svg PUBLIC "-//W3C//DTD SVG 1.1//EN"
  "http://www.w3.org/Graphics/SVG/1.1/DTD/svg11.dtd">
<!-- Created with matplotlib (https://matplotlib.org/) -->
<svg height="345.6pt" version="1.1" viewBox="0 0 460.8 345.6" width="460.8pt" xmlns="http://www.w3.org/2000/svg" xmlns:xlink="http://www.w3.org/1999/xlink">
 <metadata>
  <rdf:RDF xmlns:cc="http://creativecommons.org/ns#" xmlns:dc="http://purl.org/dc/elements/1.1/" xmlns:rdf="http://www.w3.org/1999/02/22-rdf-syntax-ns#">
   <cc:Work>
    <dc:type rdf:resource="http://purl.org/dc/dcmitype/StillImage"/>
    <dc:date>2022-04-26T20:49:55.734527</dc:date>
    <dc:format>image/svg+xml</dc:format>
    <dc:creator>
     <cc:Agent>
      <dc:title>Matplotlib v3.3.3, https://matplotlib.org/</dc:title>
     </cc:Agent>
    </dc:creator>
   </cc:Work>
  </rdf:RDF>
 </metadata>
 <defs>
  <style type="text/css">*{stroke-linecap:butt;stroke-linejoin:round;}</style>
 </defs>
 <g id="figure_1">
  <g id="patch_1">
   <path d="M 0 345.6 
L 460.8 345.6 
L 460.8 0 
L 0 0 
z
" style="fill:#ffffff;"/>
  </g>
  <g id="axes_1">
   <g id="patch_2">
    <path d="M 34.16 291.28 
L 453.192 291.28 
L 453.192 3 
L 34.16 3 
z
" style="fill:#ffffff;"/>
   </g>
   <g id="matplotlib.axis_1">
    <g id="xtick_1">
     <g id="line2d_1">
      <path clip-path="url(#p3f1c6be943)" d="M 151.520668 291.28 
L 151.520668 3 
" style="fill:none;stroke:#b0b0b0;stroke-linecap:square;stroke-width:0.8;"/>
     </g>
     <g id="line2d_2">
      <defs>
       <path d="M 0 0 
L 0 3.5 
" id="mcc4b16e714" style="stroke:#000000;stroke-width:0.8;"/>
      </defs>
      <g>
       <use style="stroke:#000000;stroke-width:0.8;" x="151.520668" xlink:href="#mcc4b16e714" y="291.28"/>
      </g>
     </g>
     <g id="text_1">
      <!-- -1 -->
      <g transform="translate(141.550356 313.476875)scale(0.2 -0.2)">
       <defs>
        <path d="M 4.890625 31.390625 
L 31.203125 31.390625 
L 31.203125 23.390625 
L 4.890625 23.390625 
z
" id="DejaVuSans-45"/>
        <path d="M 12.40625 8.296875 
L 28.515625 8.296875 
L 28.515625 63.921875 
L 10.984375 60.40625 
L 10.984375 69.390625 
L 28.421875 72.90625 
L 38.28125 72.90625 
L 38.28125 8.296875 
L 54.390625 8.296875 
L 54.390625 0 
L 12.40625 0 
z
" id="DejaVuSans-49"/>
       </defs>
       <use xlink:href="#DejaVuSans-45"/>
       <use x="36.083984" xlink:href="#DejaVuSans-49"/>
      </g>
     </g>
    </g>
    <g id="xtick_2">
     <g id="line2d_3">
      <path clip-path="url(#p3f1c6be943)" d="M 335.831332 291.28 
L 335.831332 3 
" style="fill:none;stroke:#b0b0b0;stroke-linecap:square;stroke-width:0.8;"/>
     </g>
     <g id="line2d_4">
      <g>
       <use style="stroke:#000000;stroke-width:0.8;" x="335.831332" xlink:href="#mcc4b16e714" y="291.28"/>
      </g>
     </g>
     <g id="text_2">
      <!-- 1 -->
      <g transform="translate(329.468832 313.476875)scale(0.2 -0.2)">
       <use xlink:href="#DejaVuSans-49"/>
      </g>
     </g>
    </g>
    <g id="xtick_3">
     <g id="line2d_5">
      <defs>
       <path d="M 0 0 
L 0 2 
" id="m38ae5ee406" style="stroke:#000000;stroke-width:0.6;"/>
      </defs>
      <g>
       <use style="stroke:#000000;stroke-width:0.6;" x="38.920792" xlink:href="#m38ae5ee406" y="291.28"/>
      </g>
     </g>
    </g>
    <g id="xtick_4">
     <g id="line2d_6">
      <g>
       <use style="stroke:#000000;stroke-width:0.6;" x="45.090295" xlink:href="#m38ae5ee406" y="291.28"/>
      </g>
     </g>
    </g>
    <g id="xtick_5">
     <g id="line2d_7">
      <g>
       <use style="stroke:#000000;stroke-width:0.6;" x="50.434562" xlink:href="#m38ae5ee406" y="291.28"/>
      </g>
     </g>
    </g>
    <g id="xtick_6">
     <g id="line2d_8">
      <g>
       <use style="stroke:#000000;stroke-width:0.6;" x="55.14854" xlink:href="#m38ae5ee406" y="291.28"/>
      </g>
     </g>
    </g>
    <g id="xtick_7">
     <g id="line2d_9">
      <g>
       <use style="stroke:#000000;stroke-width:0.6;" x="87.106856" xlink:href="#m38ae5ee406" y="291.28"/>
      </g>
     </g>
    </g>
    <g id="xtick_8">
     <g id="line2d_10">
      <g>
       <use style="stroke:#000000;stroke-width:0.6;" x="103.334604" xlink:href="#m38ae5ee406" y="291.28"/>
      </g>
     </g>
    </g>
    <g id="xtick_9">
     <g id="line2d_11">
      <g>
       <use style="stroke:#000000;stroke-width:0.6;" x="114.848375" xlink:href="#m38ae5ee406" y="291.28"/>
      </g>
     </g>
    </g>
    <g id="xtick_10">
     <g id="line2d_12">
      <g>
       <use style="stroke:#000000;stroke-width:0.6;" x="123.779149" xlink:href="#m38ae5ee406" y="291.28"/>
      </g>
     </g>
    </g>
    <g id="xtick_11">
     <g id="line2d_13">
      <g>
       <use style="stroke:#000000;stroke-width:0.6;" x="131.076123" xlink:href="#m38ae5ee406" y="291.28"/>
      </g>
     </g>
    </g>
    <g id="xtick_12">
     <g id="line2d_14">
      <g>
       <use style="stroke:#000000;stroke-width:0.6;" x="137.245627" xlink:href="#m38ae5ee406" y="291.28"/>
      </g>
     </g>
    </g>
    <g id="xtick_13">
     <g id="line2d_15">
      <g>
       <use style="stroke:#000000;stroke-width:0.6;" x="142.589894" xlink:href="#m38ae5ee406" y="291.28"/>
      </g>
     </g>
    </g>
    <g id="xtick_14">
     <g id="line2d_16">
      <g>
       <use style="stroke:#000000;stroke-width:0.6;" x="147.303872" xlink:href="#m38ae5ee406" y="291.28"/>
      </g>
     </g>
    </g>
    <g id="xtick_15">
     <g id="line2d_17">
      <g>
       <use style="stroke:#000000;stroke-width:0.6;" x="179.262187" xlink:href="#m38ae5ee406" y="291.28"/>
      </g>
     </g>
    </g>
    <g id="xtick_16">
     <g id="line2d_18">
      <g>
       <use style="stroke:#000000;stroke-width:0.6;" x="195.489936" xlink:href="#m38ae5ee406" y="291.28"/>
      </g>
     </g>
    </g>
    <g id="xtick_17">
     <g id="line2d_19">
      <g>
       <use style="stroke:#000000;stroke-width:0.6;" x="207.003707" xlink:href="#m38ae5ee406" y="291.28"/>
      </g>
     </g>
    </g>
    <g id="xtick_18">
     <g id="line2d_20">
      <g>
       <use style="stroke:#000000;stroke-width:0.6;" x="215.934481" xlink:href="#m38ae5ee406" y="291.28"/>
      </g>
     </g>
    </g>
    <g id="xtick_19">
     <g id="line2d_21">
      <g>
       <use style="stroke:#000000;stroke-width:0.6;" x="223.231455" xlink:href="#m38ae5ee406" y="291.28"/>
      </g>
     </g>
    </g>
    <g id="xtick_20">
     <g id="line2d_22">
      <g>
       <use style="stroke:#000000;stroke-width:0.6;" x="229.400959" xlink:href="#m38ae5ee406" y="291.28"/>
      </g>
     </g>
    </g>
    <g id="xtick_21">
     <g id="line2d_23">
      <g>
       <use style="stroke:#000000;stroke-width:0.6;" x="234.745226" xlink:href="#m38ae5ee406" y="291.28"/>
      </g>
     </g>
    </g>
    <g id="xtick_22">
     <g id="line2d_24">
      <g>
       <use style="stroke:#000000;stroke-width:0.6;" x="239.459203" xlink:href="#m38ae5ee406" y="291.28"/>
      </g>
     </g>
    </g>
    <g id="xtick_23">
     <g id="line2d_25">
      <g>
       <use style="stroke:#000000;stroke-width:0.6;" x="271.417519" xlink:href="#m38ae5ee406" y="291.28"/>
      </g>
     </g>
    </g>
    <g id="xtick_24">
     <g id="line2d_26">
      <g>
       <use style="stroke:#000000;stroke-width:0.6;" x="287.645267" xlink:href="#m38ae5ee406" y="291.28"/>
      </g>
     </g>
    </g>
    <g id="xtick_25">
     <g id="line2d_27">
      <g>
       <use style="stroke:#000000;stroke-width:0.6;" x="299.159038" xlink:href="#m38ae5ee406" y="291.28"/>
      </g>
     </g>
    </g>
    <g id="xtick_26">
     <g id="line2d_28">
      <g>
       <use style="stroke:#000000;stroke-width:0.6;" x="308.089813" xlink:href="#m38ae5ee406" y="291.28"/>
      </g>
     </g>
    </g>
    <g id="xtick_27">
     <g id="line2d_29">
      <g>
       <use style="stroke:#000000;stroke-width:0.6;" x="315.386787" xlink:href="#m38ae5ee406" y="291.28"/>
      </g>
     </g>
    </g>
    <g id="xtick_28">
     <g id="line2d_30">
      <g>
       <use style="stroke:#000000;stroke-width:0.6;" x="321.55629" xlink:href="#m38ae5ee406" y="291.28"/>
      </g>
     </g>
    </g>
    <g id="xtick_29">
     <g id="line2d_31">
      <g>
       <use style="stroke:#000000;stroke-width:0.6;" x="326.900557" xlink:href="#m38ae5ee406" y="291.28"/>
      </g>
     </g>
    </g>
    <g id="xtick_30">
     <g id="line2d_32">
      <g>
       <use style="stroke:#000000;stroke-width:0.6;" x="331.614535" xlink:href="#m38ae5ee406" y="291.28"/>
      </g>
     </g>
    </g>
    <g id="xtick_31">
     <g id="line2d_33">
      <g>
       <use style="stroke:#000000;stroke-width:0.6;" x="363.572851" xlink:href="#m38ae5ee406" y="291.28"/>
      </g>
     </g>
    </g>
    <g id="xtick_32">
     <g id="line2d_34">
      <g>
       <use style="stroke:#000000;stroke-width:0.6;" x="379.800599" xlink:href="#m38ae5ee406" y="291.28"/>
      </g>
     </g>
    </g>
    <g id="xtick_33">
     <g id="line2d_35">
      <g>
       <use style="stroke:#000000;stroke-width:0.6;" x="391.31437" xlink:href="#m38ae5ee406" y="291.28"/>
      </g>
     </g>
    </g>
    <g id="xtick_34">
     <g id="line2d_36">
      <g>
       <use style="stroke:#000000;stroke-width:0.6;" x="400.245144" xlink:href="#m38ae5ee406" y="291.28"/>
      </g>
     </g>
    </g>
    <g id="xtick_35">
     <g id="line2d_37">
      <g>
       <use style="stroke:#000000;stroke-width:0.6;" x="407.542118" xlink:href="#m38ae5ee406" y="291.28"/>
      </g>
     </g>
    </g>
    <g id="xtick_36">
     <g id="line2d_38">
      <g>
       <use style="stroke:#000000;stroke-width:0.6;" x="413.711622" xlink:href="#m38ae5ee406" y="291.28"/>
      </g>
     </g>
    </g>
    <g id="xtick_37">
     <g id="line2d_39">
      <g>
       <use style="stroke:#000000;stroke-width:0.6;" x="419.055889" xlink:href="#m38ae5ee406" y="291.28"/>
      </g>
     </g>
    </g>
    <g id="xtick_38">
     <g id="line2d_40">
      <g>
       <use style="stroke:#000000;stroke-width:0.6;" x="423.769867" xlink:href="#m38ae5ee406" y="291.28"/>
      </g>
     </g>
    </g>
    <g id="text_3">
     <!-- log10 of FEvals ratio -->
     <g transform="translate(141.371312 336.833125)scale(0.2 -0.2)">
      <defs>
       <path d="M 9.421875 75.984375 
L 18.40625 75.984375 
L 18.40625 0 
L 9.421875 0 
z
" id="DejaVuSans-108"/>
       <path d="M 30.609375 48.390625 
Q 23.390625 48.390625 19.1875 42.75 
Q 14.984375 37.109375 14.984375 27.296875 
Q 14.984375 17.484375 19.15625 11.84375 
Q 23.34375 6.203125 30.609375 6.203125 
Q 37.796875 6.203125 41.984375 11.859375 
Q 46.1875 17.53125 46.1875 27.296875 
Q 46.1875 37.015625 41.984375 42.703125 
Q 37.796875 48.390625 30.609375 48.390625 
z
M 30.609375 56 
Q 42.328125 56 49.015625 48.375 
Q 55.71875 40.765625 55.71875 27.296875 
Q 55.71875 13.875 49.015625 6.21875 
Q 42.328125 -1.421875 30.609375 -1.421875 
Q 18.84375 -1.421875 12.171875 6.21875 
Q 5.515625 13.875 5.515625 27.296875 
Q 5.515625 40.765625 12.171875 48.375 
Q 18.84375 56 30.609375 56 
z
" id="DejaVuSans-111"/>
       <path d="M 45.40625 27.984375 
Q 45.40625 37.75 41.375 43.109375 
Q 37.359375 48.484375 30.078125 48.484375 
Q 22.859375 48.484375 18.828125 43.109375 
Q 14.796875 37.75 14.796875 27.984375 
Q 14.796875 18.265625 18.828125 12.890625 
Q 22.859375 7.515625 30.078125 7.515625 
Q 37.359375 7.515625 41.375 12.890625 
Q 45.40625 18.265625 45.40625 27.984375 
z
M 54.390625 6.78125 
Q 54.390625 -7.171875 48.1875 -13.984375 
Q 42 -20.796875 29.203125 -20.796875 
Q 24.46875 -20.796875 20.265625 -20.09375 
Q 16.0625 -19.390625 12.109375 -17.921875 
L 12.109375 -9.1875 
Q 16.0625 -11.328125 19.921875 -12.34375 
Q 23.78125 -13.375 27.78125 -13.375 
Q 36.625 -13.375 41.015625 -8.765625 
Q 45.40625 -4.15625 45.40625 5.171875 
L 45.40625 9.625 
Q 42.625 4.78125 38.28125 2.390625 
Q 33.9375 0 27.875 0 
Q 17.828125 0 11.671875 7.65625 
Q 5.515625 15.328125 5.515625 27.984375 
Q 5.515625 40.671875 11.671875 48.328125 
Q 17.828125 56 27.875 56 
Q 33.9375 56 38.28125 53.609375 
Q 42.625 51.21875 45.40625 46.390625 
L 45.40625 54.6875 
L 54.390625 54.6875 
z
" id="DejaVuSans-103"/>
       <path d="M 31.78125 66.40625 
Q 24.171875 66.40625 20.328125 58.90625 
Q 16.5 51.421875 16.5 36.375 
Q 16.5 21.390625 20.328125 13.890625 
Q 24.171875 6.390625 31.78125 6.390625 
Q 39.453125 6.390625 43.28125 13.890625 
Q 47.125 21.390625 47.125 36.375 
Q 47.125 51.421875 43.28125 58.90625 
Q 39.453125 66.40625 31.78125 66.40625 
z
M 31.78125 74.21875 
Q 44.046875 74.21875 50.515625 64.515625 
Q 56.984375 54.828125 56.984375 36.375 
Q 56.984375 17.96875 50.515625 8.265625 
Q 44.046875 -1.421875 31.78125 -1.421875 
Q 19.53125 -1.421875 13.0625 8.265625 
Q 6.59375 17.96875 6.59375 36.375 
Q 6.59375 54.828125 13.0625 64.515625 
Q 19.53125 74.21875 31.78125 74.21875 
z
" id="DejaVuSans-48"/>
       <path id="DejaVuSans-32"/>
       <path d="M 37.109375 75.984375 
L 37.109375 68.5 
L 28.515625 68.5 
Q 23.6875 68.5 21.796875 66.546875 
Q 19.921875 64.59375 19.921875 59.515625 
L 19.921875 54.6875 
L 34.71875 54.6875 
L 34.71875 47.703125 
L 19.921875 47.703125 
L 19.921875 0 
L 10.890625 0 
L 10.890625 47.703125 
L 2.296875 47.703125 
L 2.296875 54.6875 
L 10.890625 54.6875 
L 10.890625 58.5 
Q 10.890625 67.625 15.140625 71.796875 
Q 19.390625 75.984375 28.609375 75.984375 
z
" id="DejaVuSans-102"/>
       <path d="M 9.8125 72.90625 
L 51.703125 72.90625 
L 51.703125 64.59375 
L 19.671875 64.59375 
L 19.671875 43.109375 
L 48.578125 43.109375 
L 48.578125 34.8125 
L 19.671875 34.8125 
L 19.671875 0 
L 9.8125 0 
z
" id="DejaVuSans-70"/>
       <path d="M 9.8125 72.90625 
L 55.90625 72.90625 
L 55.90625 64.59375 
L 19.671875 64.59375 
L 19.671875 43.015625 
L 54.390625 43.015625 
L 54.390625 34.71875 
L 19.671875 34.71875 
L 19.671875 8.296875 
L 56.78125 8.296875 
L 56.78125 0 
L 9.8125 0 
z
" id="DejaVuSans-69"/>
       <path d="M 2.984375 54.6875 
L 12.5 54.6875 
L 29.59375 8.796875 
L 46.6875 54.6875 
L 56.203125 54.6875 
L 35.6875 0 
L 23.484375 0 
z
" id="DejaVuSans-118"/>
       <path d="M 34.28125 27.484375 
Q 23.390625 27.484375 19.1875 25 
Q 14.984375 22.515625 14.984375 16.5 
Q 14.984375 11.71875 18.140625 8.90625 
Q 21.296875 6.109375 26.703125 6.109375 
Q 34.1875 6.109375 38.703125 11.40625 
Q 43.21875 16.703125 43.21875 25.484375 
L 43.21875 27.484375 
z
M 52.203125 31.203125 
L 52.203125 0 
L 43.21875 0 
L 43.21875 8.296875 
Q 40.140625 3.328125 35.546875 0.953125 
Q 30.953125 -1.421875 24.3125 -1.421875 
Q 15.921875 -1.421875 10.953125 3.296875 
Q 6 8.015625 6 15.921875 
Q 6 25.140625 12.171875 29.828125 
Q 18.359375 34.515625 30.609375 34.515625 
L 43.21875 34.515625 
L 43.21875 35.40625 
Q 43.21875 41.609375 39.140625 45 
Q 35.0625 48.390625 27.6875 48.390625 
Q 23 48.390625 18.546875 47.265625 
Q 14.109375 46.140625 10.015625 43.890625 
L 10.015625 52.203125 
Q 14.9375 54.109375 19.578125 55.046875 
Q 24.21875 56 28.609375 56 
Q 40.484375 56 46.34375 49.84375 
Q 52.203125 43.703125 52.203125 31.203125 
z
" id="DejaVuSans-97"/>
       <path d="M 44.28125 53.078125 
L 44.28125 44.578125 
Q 40.484375 46.53125 36.375 47.5 
Q 32.28125 48.484375 27.875 48.484375 
Q 21.1875 48.484375 17.84375 46.4375 
Q 14.5 44.390625 14.5 40.28125 
Q 14.5 37.15625 16.890625 35.375 
Q 19.28125 33.59375 26.515625 31.984375 
L 29.59375 31.296875 
Q 39.15625 29.25 43.1875 25.515625 
Q 47.21875 21.78125 47.21875 15.09375 
Q 47.21875 7.46875 41.1875 3.015625 
Q 35.15625 -1.421875 24.609375 -1.421875 
Q 20.21875 -1.421875 15.453125 -0.5625 
Q 10.6875 0.296875 5.421875 2 
L 5.421875 11.28125 
Q 10.40625 8.6875 15.234375 7.390625 
Q 20.0625 6.109375 24.8125 6.109375 
Q 31.15625 6.109375 34.5625 8.28125 
Q 37.984375 10.453125 37.984375 14.40625 
Q 37.984375 18.0625 35.515625 20.015625 
Q 33.0625 21.96875 24.703125 23.78125 
L 21.578125 24.515625 
Q 13.234375 26.265625 9.515625 29.90625 
Q 5.8125 33.546875 5.8125 39.890625 
Q 5.8125 47.609375 11.28125 51.796875 
Q 16.75 56 26.8125 56 
Q 31.78125 56 36.171875 55.265625 
Q 40.578125 54.546875 44.28125 53.078125 
z
" id="DejaVuSans-115"/>
       <path d="M 41.109375 46.296875 
Q 39.59375 47.171875 37.8125 47.578125 
Q 36.03125 48 33.890625 48 
Q 26.265625 48 22.1875 43.046875 
Q 18.109375 38.09375 18.109375 28.8125 
L 18.109375 0 
L 9.078125 0 
L 9.078125 54.6875 
L 18.109375 54.6875 
L 18.109375 46.1875 
Q 20.953125 51.171875 25.484375 53.578125 
Q 30.03125 56 36.53125 56 
Q 37.453125 56 38.578125 55.875 
Q 39.703125 55.765625 41.0625 55.515625 
z
" id="DejaVuSans-114"/>
       <path d="M 18.3125 70.21875 
L 18.3125 54.6875 
L 36.8125 54.6875 
L 36.8125 47.703125 
L 18.3125 47.703125 
L 18.3125 18.015625 
Q 18.3125 11.328125 20.140625 9.421875 
Q 21.96875 7.515625 27.59375 7.515625 
L 36.8125 7.515625 
L 36.8125 0 
L 27.59375 0 
Q 17.1875 0 13.234375 3.875 
Q 9.28125 7.765625 9.28125 18.015625 
L 9.28125 47.703125 
L 2.6875 47.703125 
L 2.6875 54.6875 
L 9.28125 54.6875 
L 9.28125 70.21875 
z
" id="DejaVuSans-116"/>
       <path d="M 9.421875 54.6875 
L 18.40625 54.6875 
L 18.40625 0 
L 9.421875 0 
z
M 9.421875 75.984375 
L 18.40625 75.984375 
L 18.40625 64.59375 
L 9.421875 64.59375 
z
" id="DejaVuSans-105"/>
      </defs>
      <use xlink:href="#DejaVuSans-108"/>
      <use x="27.783203" xlink:href="#DejaVuSans-111"/>
      <use x="88.964844" xlink:href="#DejaVuSans-103"/>
      <use x="152.441406" xlink:href="#DejaVuSans-49"/>
      <use x="216.064453" xlink:href="#DejaVuSans-48"/>
      <use x="279.6875" xlink:href="#DejaVuSans-32"/>
      <use x="311.474609" xlink:href="#DejaVuSans-111"/>
      <use x="372.65625" xlink:href="#DejaVuSans-102"/>
      <use x="407.861328" xlink:href="#DejaVuSans-32"/>
      <use x="439.648438" xlink:href="#DejaVuSans-70"/>
      <use x="497.167969" xlink:href="#DejaVuSans-69"/>
      <use x="560.351562" xlink:href="#DejaVuSans-118"/>
      <use x="619.53125" xlink:href="#DejaVuSans-97"/>
      <use x="680.810547" xlink:href="#DejaVuSans-108"/>
      <use x="708.59375" xlink:href="#DejaVuSans-115"/>
      <use x="760.693359" xlink:href="#DejaVuSans-32"/>
      <use x="792.480469" xlink:href="#DejaVuSans-114"/>
      <use x="833.59375" xlink:href="#DejaVuSans-97"/>
      <use x="894.873047" xlink:href="#DejaVuSans-116"/>
      <use x="934.082031" xlink:href="#DejaVuSans-105"/>
      <use x="961.865234" xlink:href="#DejaVuSans-111"/>
     </g>
    </g>
   </g>
   <g id="matplotlib.axis_2">
    <g id="ytick_1">
     <g id="line2d_41">
      <path clip-path="url(#p3f1c6be943)" d="M 34.16 288.453725 
L 453.192 288.453725 
" style="fill:none;stroke:#b0b0b0;stroke-linecap:square;stroke-width:0.8;"/>
     </g>
     <g id="line2d_42">
      <defs>
       <path d="M 0 0 
L -3.5 0 
" id="mf1efd8cb82" style="stroke:#000000;stroke-width:0.8;"/>
      </defs>
      <g>
       <use style="stroke:#000000;stroke-width:0.8;" x="34.16" xlink:href="#mf1efd8cb82" y="288.453725"/>
      </g>
     </g>
    </g>
    <g id="ytick_2">
     <g id="line2d_43">
      <path clip-path="url(#p3f1c6be943)" d="M 34.16 217.796863 
L 453.192 217.796863 
" style="fill:none;stroke:#b0b0b0;stroke-linecap:square;stroke-width:0.8;"/>
     </g>
     <g id="line2d_44">
      <g>
       <use style="stroke:#000000;stroke-width:0.8;" x="34.16" xlink:href="#mf1efd8cb82" y="217.796863"/>
      </g>
     </g>
    </g>
    <g id="ytick_3">
     <g id="line2d_45">
      <path clip-path="url(#p3f1c6be943)" d="M 34.16 147.14 
L 453.192 147.14 
" style="fill:none;stroke:#b0b0b0;stroke-linecap:square;stroke-width:0.8;"/>
     </g>
     <g id="line2d_46">
      <g>
       <use style="stroke:#000000;stroke-width:0.8;" x="34.16" xlink:href="#mf1efd8cb82" y="147.14"/>
      </g>
     </g>
    </g>
    <g id="ytick_4">
     <g id="line2d_47">
      <path clip-path="url(#p3f1c6be943)" d="M 34.16 76.483137 
L 453.192 76.483137 
" style="fill:none;stroke:#b0b0b0;stroke-linecap:square;stroke-width:0.8;"/>
     </g>
     <g id="line2d_48">
      <g>
       <use style="stroke:#000000;stroke-width:0.8;" x="34.16" xlink:href="#mf1efd8cb82" y="76.483137"/>
      </g>
     </g>
    </g>
    <g id="ytick_5">
     <g id="line2d_49">
      <path clip-path="url(#p3f1c6be943)" d="M 34.16 5.826275 
L 453.192 5.826275 
" style="fill:none;stroke:#b0b0b0;stroke-linecap:square;stroke-width:0.8;"/>
     </g>
     <g id="line2d_50">
      <g>
       <use style="stroke:#000000;stroke-width:0.8;" x="34.16" xlink:href="#mf1efd8cb82" y="5.826275"/>
      </g>
     </g>
    </g>
    <g id="text_4">
     <!-- proportion of trials -->
     <g transform="translate(19.000625 240.14625)rotate(-90)scale(0.2 -0.2)">
      <defs>
       <path d="M 18.109375 8.203125 
L 18.109375 -20.796875 
L 9.078125 -20.796875 
L 9.078125 54.6875 
L 18.109375 54.6875 
L 18.109375 46.390625 
Q 20.953125 51.265625 25.265625 53.625 
Q 29.59375 56 35.59375 56 
Q 45.5625 56 51.78125 48.09375 
Q 58.015625 40.1875 58.015625 27.296875 
Q 58.015625 14.40625 51.78125 6.484375 
Q 45.5625 -1.421875 35.59375 -1.421875 
Q 29.59375 -1.421875 25.265625 0.953125 
Q 20.953125 3.328125 18.109375 8.203125 
z
M 48.6875 27.296875 
Q 48.6875 37.203125 44.609375 42.84375 
Q 40.53125 48.484375 33.40625 48.484375 
Q 26.265625 48.484375 22.1875 42.84375 
Q 18.109375 37.203125 18.109375 27.296875 
Q 18.109375 17.390625 22.1875 11.75 
Q 26.265625 6.109375 33.40625 6.109375 
Q 40.53125 6.109375 44.609375 11.75 
Q 48.6875 17.390625 48.6875 27.296875 
z
" id="DejaVuSans-112"/>
       <path d="M 54.890625 33.015625 
L 54.890625 0 
L 45.90625 0 
L 45.90625 32.71875 
Q 45.90625 40.484375 42.875 44.328125 
Q 39.84375 48.1875 33.796875 48.1875 
Q 26.515625 48.1875 22.3125 43.546875 
Q 18.109375 38.921875 18.109375 30.90625 
L 18.109375 0 
L 9.078125 0 
L 9.078125 54.6875 
L 18.109375 54.6875 
L 18.109375 46.1875 
Q 21.34375 51.125 25.703125 53.5625 
Q 30.078125 56 35.796875 56 
Q 45.21875 56 50.046875 50.171875 
Q 54.890625 44.34375 54.890625 33.015625 
z
" id="DejaVuSans-110"/>
      </defs>
      <use xlink:href="#DejaVuSans-112"/>
      <use x="63.476562" xlink:href="#DejaVuSans-114"/>
      <use x="102.339844" xlink:href="#DejaVuSans-111"/>
      <use x="163.521484" xlink:href="#DejaVuSans-112"/>
      <use x="226.998047" xlink:href="#DejaVuSans-111"/>
      <use x="288.179688" xlink:href="#DejaVuSans-114"/>
      <use x="329.292969" xlink:href="#DejaVuSans-116"/>
      <use x="368.501953" xlink:href="#DejaVuSans-105"/>
      <use x="396.285156" xlink:href="#DejaVuSans-111"/>
      <use x="457.466797" xlink:href="#DejaVuSans-110"/>
      <use x="520.845703" xlink:href="#DejaVuSans-32"/>
      <use x="552.632812" xlink:href="#DejaVuSans-111"/>
      <use x="613.814453" xlink:href="#DejaVuSans-102"/>
      <use x="649.019531" xlink:href="#DejaVuSans-32"/>
      <use x="680.806641" xlink:href="#DejaVuSans-116"/>
      <use x="720.015625" xlink:href="#DejaVuSans-114"/>
      <use x="761.128906" xlink:href="#DejaVuSans-105"/>
      <use x="788.912109" xlink:href="#DejaVuSans-97"/>
      <use x="850.191406" xlink:href="#DejaVuSans-108"/>
      <use x="877.974609" xlink:href="#DejaVuSans-115"/>
     </g>
    </g>
   </g>
   <g id="line2d_51">
    <path clip-path="url(#p3f1c6be943)" d="M 34.16 288.453725 
L 45.283415 288.453725 
L 45.283415 288.139695 
L 46.486715 288.139695 
L 46.486715 287.825664 
L 48.553639 287.825664 
L 48.553639 287.511634 
L 49.200126 287.511634 
L 49.200126 287.197603 
L 49.374643 287.197603 
L 49.374643 286.883573 
L 49.721411 286.883573 
L 49.721411 286.569542 
L 50.122213 286.569542 
L 50.122213 286.255512 
L 53.033228 286.255512 
L 53.033228 285.941481 
L 57.395441 285.941481 
L 57.395441 285.627451 
L 60.413991 285.627451 
L 60.413991 285.31342 
L 60.633655 285.31342 
L 60.633655 284.99939 
L 66.831313 284.99939 
L 66.831313 284.685359 
L 68.986333 284.685359 
L 68.986333 284.371329 
L 72.71837 284.371329 
L 72.71837 284.057298 
L 78.667453 284.057298 
L 78.667453 283.743268 
L 149.640649 283.743268 
L 149.640649 283.429237 
L 152.665226 283.429237 
L 152.665226 283.115207 
L 153.868526 283.115207 
L 153.868526 282.801176 
L 155.175097 282.801176 
L 155.175097 282.487146 
L 155.93545 282.487146 
L 155.93545 282.173115 
L 156.581937 282.173115 
L 156.581937 281.859085 
L 156.756454 281.859085 
L 156.756454 281.545054 
L 157.103222 281.545054 
L 157.103222 281.231024 
L 157.504024 281.231024 
L 157.504024 280.916993 
L 157.756863 280.916993 
L 157.756863 280.602963 
L 160.415039 280.602963 
L 160.415039 280.288932 
L 163.154205 280.288932 
L 163.154205 279.974902 
L 163.29131 279.974902 
L 163.29131 279.660871 
L 164.777252 279.660871 
L 164.777252 279.346841 
L 166.536024 279.346841 
L 166.536024 279.03281 
L 166.751634 279.03281 
L 166.751634 278.71878 
L 167.019523 278.71878 
L 167.019523 278.404749 
L 167.707759 278.404749 
L 167.795802 277.776688 
L 168.015466 277.776688 
L 168.015466 277.462658 
L 171.270419 277.462658 
L 171.270419 277.148627 
L 172.206376 277.148627 
L 172.206376 276.834597 
L 173.557306 276.834597 
L 173.557306 276.520566 
L 174.213124 276.520566 
L 174.213124 276.206536 
L 174.652237 276.206536 
L 174.652237 275.892505 
L 174.867847 275.892505 
L 174.867847 275.578475 
L 175.135737 275.578475 
L 175.135737 275.264444 
L 175.823972 275.264444 
L 175.823972 274.950414 
L 176.368144 274.950414 
L 176.368144 274.636383 
L 176.8636 274.636383 
L 176.8636 274.322353 
L 177.080494 274.322353 
L 177.080494 274.008322 
L 177.443948 274.008322 
L 177.443948 273.694292 
L 177.740823 273.694292 
L 177.805189 273.066231 
L 177.879934 273.066231 
L 177.975409 272.43817 
L 179.688788 272.43817 
L 179.72357 271.810109 
L 180.100181 271.810109 
L 180.100181 271.496078 
L 180.672778 271.496078 
L 180.672778 271.182048 
L 180.892089 271.182048 
L 180.892089 270.868017 
L 181.24915 270.868017 
L 181.24915 270.553987 
L 181.637777 270.553987 
L 181.67352 269.925926 
L 181.796779 269.925926 
L 181.86415 269.297865 
L 181.990673 269.297865 
L 181.990673 268.983834 
L 182.491265 268.983834 
L 182.577833 268.355773 
L 182.614942 268.355773 
L 182.614942 268.041743 
L 182.959012 268.041743 
L 183.000079 267.413682 
L 183.339637 267.413682 
L 183.339637 267.099651 
L 183.605499 267.099651 
L 183.605499 266.785621 
L 183.780017 266.785621 
L 183.780017 266.47159 
L 183.931708 266.47159 
L 183.931708 266.15756 
L 184.126785 266.15756 
L 184.126785 265.843529 
L 184.527586 265.843529 
L 184.527586 265.529499 
L 184.979814 265.529499 
L 185.067003 264.901438 
L 185.156122 264.901438 
L 185.156122 264.587407 
L 185.506386 264.587407 
L 185.560161 263.959346 
L 185.71349 263.959346 
L 185.719932 263.331285 
L 185.888007 263.331285 
L 185.944491 262.703224 
L 186.049264 262.703224 
L 186.091623 262.075163 
L 186.234775 262.075163 
L 186.234775 261.761133 
L 186.635576 261.761133 
L 186.635576 261.447102 
L 186.785764 261.447102 
L 186.785764 261.133072 
L 186.984882 261.133072 
L 186.984882 260.819041 
L 187.438601 260.819041 
L 187.438601 260.505011 
L 187.634581 260.505011 
L 187.634581 260.19098 
L 187.839784 260.19098 
L 187.839784 259.87695 
L 188.11228 259.87695 
L 188.11228 259.562919 
L 188.390011 259.562919 
L 188.390011 259.248889 
L 188.737335 259.248889 
L 188.737335 258.934858 
L 189.10175 258.934858 
L 189.10175 258.620828 
L 189.226857 258.620828 
L 189.31736 257.992767 
L 189.365364 257.992767 
L 189.374641 257.364706 
L 189.546592 257.364706 
L 189.58525 256.736645 
L 189.702335 256.736645 
L 189.747477 256.108584 
L 189.928707 256.108584 
L 189.969312 255.480523 
L 190.106886 255.480523 
L 190.106886 255.166492 
L 190.273486 255.166492 
L 190.273486 254.852462 
L 190.430158 254.852462 
L 190.430158 254.538431 
L 190.555822 254.538431 
L 190.59405 253.91037 
L 191.318746 253.91037 
L 191.318746 253.59634 
L 191.800815 253.59634 
L 191.800815 253.282309 
L 191.915914 253.282309 
L 191.996266 252.654248 
L 192.181827 252.654248 
L 192.181827 252.340218 
L 192.349114 252.340218 
L 192.349114 252.026187 
L 192.497081 252.026187 
L 192.497081 251.712157 
L 192.809905 251.712157 
L 192.809905 251.398126 
L 193.143568 251.398126 
L 193.22068 250.770065 
L 193.318085 250.770065 
L 193.318085 250.456035 
L 193.651835 250.456035 
L 193.664853 249.827974 
L 193.779804 249.827974 
L 193.779804 249.199913 
L 193.908805 249.199913 
L 193.975869 248.571852 
L 194.065655 248.571852 
L 194.065655 248.257821 
L 194.191479 248.257821 
L 194.191479 247.943791 
L 194.459368 247.943791 
L 194.459368 247.62976 
L 194.595113 247.62976 
L 194.700564 247.001699 
L 194.819365 247.001699 
L 194.916174 245.745577 
L 194.974671 245.745577 
L 195.049439 244.803486 
L 195.110219 244.803486 
L 195.184063 243.861394 
L 195.673592 243.861394 
L 195.750795 243.233333 
L 195.79232 243.233333 
L 195.872299 242.605272 
L 195.939671 242.605272 
L 195.939671 242.291242 
L 196.091389 242.291242 
L 196.166043 241.34915 
L 196.259824 241.34915 
L 196.259824 241.03512 
L 196.454568 241.03512 
L 196.454568 240.721089 
L 196.793158 240.721089 
L 196.876893 240.093028 
L 196.927355 240.093028 
L 196.97667 239.464967 
L 197.147018 239.464967 
L 197.147018 239.150937 
L 197.26883 239.150937 
L 197.26883 238.836906 
L 197.450361 238.836906 
L 197.450361 238.522876 
L 197.812034 238.522876 
L 197.903064 237.894815 
L 198.033869 237.894815 
L 198.033869 237.580784 
L 198.233602 237.580784 
L 198.233602 237.266754 
L 198.868063 237.266754 
L 198.943816 236.638693 
L 198.980209 236.638693 
L 198.980209 236.324662 
L 199.094435 236.324662 
L 199.094435 236.010632 
L 199.429327 236.010632 
L 199.473207 235.06854 
L 199.590303 235.06854 
L 199.688817 234.440479 
L 199.72155 234.440479 
L 199.823271 233.498388 
L 199.943087 233.498388 
L 200.009674 232.556296 
L 200.111588 232.556296 
L 200.111588 232.242266 
L 200.51239 232.242266 
L 200.541136 231.614205 
L 200.644942 231.614205 
L 200.644942 231.300174 
L 200.997151 231.300174 
L 201.087658 230.672113 
L 201.161994 230.672113 
L 201.236687 230.044052 
L 201.286775 230.044052 
L 201.338884 229.415991 
L 201.721846 229.415991 
L 201.794271 228.78793 
L 201.903971 228.78793 
L 201.903971 228.4739 
L 202.112015 228.4739 
L 202.112015 228.159869 
L 202.289297 228.159869 
L 202.386408 227.531808 
L 202.616115 227.531808 
L 202.691904 226.589717 
L 202.831772 226.589717 
L 202.888197 225.961656 
L 203.007464 225.961656 
L 203.007464 225.647625 
L 203.338472 225.647625 
L 203.423405 224.391503 
L 203.581114 224.391503 
L 203.581114 224.077473 
L 203.807487 224.077473 
L 203.856878 223.135381 
L 203.946625 223.135381 
L 204.04937 222.19329 
L 204.111559 222.19329 
L 204.215167 221.565229 
L 204.233581 221.565229 
L 204.303445 220.623137 
L 204.357433 220.623137 
L 204.434602 219.367015 
L 204.541772 219.367015 
L 204.577097 217.796863 
L 204.883793 217.796863 
L 204.916493 217.168802 
L 205.02814 217.168802 
L 205.02814 216.854771 
L 205.199027 216.854771 
L 205.259143 216.22671 
L 205.414279 216.22671 
L 205.499696 214.970588 
L 205.542249 214.970588 
L 205.620297 213.714466 
L 205.822938 213.714466 
L 205.875045 213.086405 
L 206.139949 213.086405 
L 206.139949 212.772375 
L 206.270015 212.772375 
L 206.283729 212.144314 
L 206.485625 212.144314 
L 206.49449 211.516253 
L 206.608695 211.516253 
L 206.608695 211.202222 
L 206.739469 211.202222 
L 206.785815 210.260131 
L 206.977762 210.260131 
L 206.977762 209.9461 
L 207.099459 209.9461 
L 207.199597 208.375948 
L 207.238796 208.375948 
L 207.255182 206.805795 
L 207.4297 206.805795 
L 207.44175 206.177734 
L 207.672927 206.177734 
L 207.776468 205.235643 
L 207.785619 205.235643 
L 207.88811 204.607582 
L 207.930841 204.607582 
L 207.933489 203.979521 
L 208.047651 203.979521 
L 208.088536 203.35146 
L 208.177269 203.35146 
L 208.216506 202.409368 
L 208.516588 202.409368 
L 208.557956 201.781307 
L 208.688995 201.781307 
L 208.730355 200.839216 
L 208.811288 200.839216 
L 208.902866 199.897124 
L 208.928219 199.897124 
L 209.026898 199.269063 
L 209.231734 199.269063 
L 209.294788 198.641002 
L 209.41369 198.641002 
L 209.430518 198.012941 
L 209.77338 198.012941 
L 209.850192 197.07085 
L 209.929405 197.07085 
L 210.03164 195.814728 
L 210.094214 195.814728 
L 210.200308 194.872636 
L 210.310983 194.872636 
L 210.381131 193.930545 
L 210.628406 193.930545 
L 210.628406 193.616514 
L 210.774755 193.616514 
L 210.804169 192.988453 
L 210.912593 192.988453 
L 210.996639 192.360392 
L 211.023832 192.360392 
L 211.088285 191.732331 
L 211.152913 191.732331 
L 211.223011 190.79024 
L 211.280882 190.79024 
L 211.280882 190.162179 
L 211.690814 190.162179 
L 211.778609 189.534118 
L 211.825399 189.534118 
L 211.912648 188.277996 
L 212.041755 188.277996 
L 212.101872 187.649935 
L 212.18799 187.649935 
L 212.18799 187.335904 
L 212.457957 187.335904 
L 212.562663 186.079782 
L 212.660754 186.079782 
L 212.660754 185.765752 
L 212.797789 185.765752 
L 212.852455 185.137691 
L 212.929775 185.137691 
L 213.022606 184.50963 
L 213.051573 184.50963 
L 213.155198 183.567538 
L 213.29057 183.567538 
L 213.370808 181.997386 
L 213.404592 181.997386 
L 213.478105 180.741264 
L 213.532562 180.741264 
L 213.638698 179.485142 
L 213.666415 179.485142 
L 213.666415 179.171111 
L 213.786325 179.171111 
L 213.87446 178.54305 
L 213.89863 178.54305 
L 214.00109 177.914989 
L 214.160416 177.914989 
L 214.264802 176.344837 
L 214.326933 176.344837 
L 214.437313 175.716776 
L 214.456702 175.716776 
L 214.545117 174.774684 
L 214.594217 174.774684 
L 214.594217 174.460654 
L 214.719634 174.460654 
L 214.776217 173.518562 
L 214.927856 173.518562 
L 214.980834 172.890501 
L 215.066402 172.890501 
L 215.074427 172.26244 
L 215.180816 172.26244 
L 215.237008 171.634379 
L 215.359316 171.634379 
L 215.467204 170.378257 
L 215.585839 170.378257 
L 215.662163 169.750196 
L 215.723083 169.750196 
L 215.83257 168.180044 
L 215.945833 168.180044 
L 216.036002 167.237952 
L 216.068013 167.237952 
L 216.172206 165.98183 
L 216.206908 165.98183 
L 216.305596 164.725708 
L 216.338938 164.725708 
L 216.343744 163.783617 
L 216.53845 163.783617 
L 216.597592 162.527495 
L 216.661812 162.527495 
L 216.7145 161.271373 
L 216.790007 161.271373 
L 216.889017 159.70122 
L 216.982961 159.70122 
L 216.982961 159.38719 
L 217.177939 159.38719 
L 217.268474 158.131068 
L 217.544168 158.131068 
L 217.636587 157.503007 
L 217.707405 157.503007 
L 217.770541 155.932854 
L 217.908513 155.932854 
L 218.015717 154.990763 
L 218.050317 154.990763 
L 218.050317 154.676732 
L 218.174333 154.676732 
L 218.239764 154.048671 
L 218.378219 154.048671 
L 218.469048 152.792549 
L 218.515927 152.792549 
L 218.621337 152.164488 
L 218.670282 152.164488 
L 218.695293 151.222397 
L 218.801448 151.222397 
L 218.885637 150.594336 
L 218.932387 150.594336 
L 219.013195 149.966275 
L 219.082128 149.966275 
L 219.138864 149.024183 
L 219.328173 149.024183 
L 219.435372 147.454031 
L 219.457562 147.454031 
L 219.480926 146.511939 
L 219.578874 146.511939 
L 219.619055 145.569847 
L 219.707299 145.569847 
L 219.753391 144.313725 
L 219.838099 144.313725 
L 219.924058 143.685664 
L 220.052028 143.685664 
L 220.136568 142.115512 
L 220.176481 142.115512 
L 220.250673 141.17342 
L 220.320834 141.17342 
L 220.334414 140.231329 
L 220.500961 140.231329 
L 220.597359 138.661176 
L 220.661804 138.661176 
L 220.661804 138.347146 
L 220.781625 138.347146 
L 220.822355 137.719085 
L 220.983141 137.719085 
L 221.09382 136.776993 
L 221.146751 136.776993 
L 221.146751 136.462963 
L 221.290331 136.462963 
L 221.313164 135.520871 
L 221.439288 135.520871 
L 221.505942 134.264749 
L 221.561207 134.264749 
L 221.656728 131.752505 
L 221.724664 131.752505 
L 221.804657 129.554292 
L 221.859011 129.554292 
L 221.864773 128.926231 
L 221.998834 128.926231 
L 222.109628 127.670109 
L 222.155861 127.670109 
L 222.243911 126.728017 
L 222.416422 126.728017 
L 222.524414 125.471895 
L 222.58453 125.471895 
L 222.692155 124.215773 
L 222.698067 124.215773 
L 222.802348 123.273682 
L 222.889279 123.273682 
L 222.999271 121.703529 
L 223.02755 121.703529 
L 223.108547 120.133377 
L 223.295065 120.133377 
L 223.389905 119.191285 
L 223.411976 119.191285 
L 223.482775 118.563224 
L 223.524414 118.563224 
L 223.535766 117.621133 
L 223.710283 117.621133 
L 223.724434 116.993072 
L 223.926222 116.993072 
L 223.986339 116.05098 
L 224.055533 116.05098 
L 224.063122 115.108889 
L 224.265937 115.108889 
L 224.375591 112.596645 
L 224.457853 112.596645 
L 224.539119 111.340523 
L 224.581277 111.340523 
L 224.669251 109.77037 
L 224.700194 109.77037 
L 224.728476 109.142309 
L 224.828031 109.142309 
L 224.914173 107.886187 
L 224.943025 107.886187 
L 225.01962 106.944096 
L 225.122218 106.944096 
L 225.208392 105.373943 
L 225.258876 105.373943 
L 225.258876 105.059913 
L 225.374963 105.059913 
L 225.426525 104.431852 
L 225.549481 104.431852 
L 225.653868 103.48976 
L 225.758982 103.48976 
L 225.841975 102.233638 
L 225.875703 102.233638 
L 225.984619 100.349455 
L 225.994826 100.349455 
L 226.05766 99.407364 
L 226.109229 99.407364 
L 226.210991 98.465272 
L 226.23316 98.465272 
L 226.342745 96.581089 
L 226.63545 96.581089 
L 226.698913 95.324967 
L 226.797464 95.324967 
L 226.838106 94.696906 
L 226.969975 94.696906 
L 227.041389 93.754815 
L 227.243783 93.754815 
L 227.343596 93.126754 
L 227.365568 93.126754 
L 227.425685 91.870632 
L 227.586696 91.870632 
L 227.694061 90.61451 
L 227.736101 90.61451 
L 227.81246 89.672418 
L 227.868325 89.672418 
L 227.928366 88.416296 
L 228.148029 88.416296 
L 228.176194 87.788235 
L 228.27855 87.788235 
L 228.384239 86.846144 
L 228.597117 86.846144 
L 228.7011 85.904052 
L 228.903169 85.904052 
L 228.927473 85.275991 
L 229.05763 85.275991 
L 229.103996 84.64793 
L 229.208066 84.64793 
L 229.208066 84.3339 
L 229.376644 84.3339 
L 229.391316 83.705839 
L 229.491758 83.705839 
L 229.592255 82.135686 
L 229.691424 82.135686 
L 229.702009 81.507625 
L 229.860144 81.507625 
L 229.909846 80.251503 
L 230.083735 80.251503 
L 230.100376 79.309412 
L 230.456757 79.309412 
L 230.54838 77.739259 
L 230.594616 77.739259 
L 230.683129 76.483137 
L 230.773427 76.483137 
L 230.848717 75.227015 
L 230.905296 75.227015 
L 231.012403 73.970893 
L 231.075879 73.970893 
L 231.151716 72.714771 
L 231.188716 72.714771 
L 231.291489 72.08671 
L 231.310244 72.08671 
L 231.359761 71.144619 
L 231.559379 71.144619 
L 231.661494 70.202527 
L 231.698711 70.202527 
L 231.731081 69.574466 
L 231.964307 69.574466 
L 232.021034 68.946405 
L 232.079518 68.946405 
L 232.176304 68.004314 
L 232.198256 68.004314 
L 232.247614 66.748192 
L 232.363947 66.748192 
L 232.464604 65.8061 
L 232.548213 65.8061 
L 232.647011 64.864009 
L 232.66154 64.864009 
L 232.750688 62.665795 
L 232.819523 62.665795 
L 232.888213 61.723704 
L 233.075609 61.723704 
L 233.075609 61.409673 
L 233.198175 61.409673 
L 233.308027 60.781612 
L 233.481327 60.781612 
L 233.570279 59.52549 
L 233.635469 59.52549 
L 233.635469 59.21146 
L 233.752261 59.21146 
L 233.853057 57.641307 
L 233.913173 57.641307 
L 234.016213 56.385185 
L 234.040104 56.385185 
L 234.094318 55.443094 
L 234.164239 55.443094 
L 234.253756 53.558911 
L 234.316153 53.558911 
L 234.367682 52.302789 
L 234.477878 52.302789 
L 234.477878 51.988758 
L 234.749631 51.988758 
L 234.786988 51.360697 
L 234.957338 51.360697 
L 234.969294 50.732636 
L 235.270601 50.732636 
L 235.300251 50.104575 
L 235.453334 50.104575 
L 235.46038 49.476514 
L 235.570982 49.476514 
L 235.644647 48.220392 
L 235.749865 48.220392 
L 235.850949 47.278301 
L 235.953305 47.278301 
L 236.003458 46.65024 
L 236.125817 46.65024 
L 236.125817 46.336209 
L 236.38241 46.336209 
L 236.397927 45.708148 
L 236.500707 45.708148 
L 236.588829 44.452026 
L 236.706164 44.452026 
L 236.8108 42.881874 
L 236.920673 42.881874 
L 236.920673 42.567843 
L 237.032634 42.567843 
L 237.141129 41.625752 
L 237.170618 41.625752 
L 237.237626 40.36963 
L 237.31224 40.36963 
L 237.31224 40.055599 
L 237.637906 40.055599 
L 237.637906 39.741569 
L 238.063361 39.741569 
L 238.130571 38.799477 
L 238.284393 38.799477 
L 238.284393 38.485447 
L 238.396684 38.485447 
L 238.45891 37.857386 
L 238.509447 37.857386 
L 238.566456 37.229325 
L 238.701455 37.229325 
L 238.805678 36.287233 
L 238.813276 36.287233 
L 238.814242 35.659172 
L 238.941955 35.659172 
L 238.985787 35.031111 
L 239.206479 35.031111 
L 239.206479 34.717081 
L 239.365081 34.717081 
L 239.365081 34.40305 
L 239.656151 34.40305 
L 239.704221 33.774989 
L 240.139162 33.774989 
L 240.232744 33.146928 
L 240.284568 33.146928 
L 240.338855 32.204837 
L 240.397674 32.204837 
L 240.433535 31.262745 
L 240.511366 31.262745 
L 240.511366 30.948715 
L 240.703582 30.948715 
L 240.703582 30.634684 
L 240.81603 30.634684 
L 240.81603 30.320654 
L 241.005805 30.320654 
L 241.080378 29.378562 
L 241.166953 29.378562 
L 241.252889 28.750501 
L 241.403456 28.750501 
L 241.503342 28.12244 
L 241.658436 28.12244 
L 241.658436 27.80841 
L 241.947869 27.80841 
L 241.983803 27.180349 
L 242.117495 27.180349 
L 242.132135 26.552288 
L 242.236548 26.552288 
L 242.29224 25.924227 
L 242.388889 25.924227 
L 242.388889 25.610196 
L 242.500285 25.610196 
L 242.588554 24.354074 
L 242.855643 24.354074 
L 242.855643 24.040044 
L 243.006151 24.040044 
L 243.097118 23.411983 
L 243.220042 23.411983 
L 243.321972 22.783922 
L 243.408162 22.783922 
L 243.414093 22.155861 
L 243.740267 22.155861 
L 243.740267 21.84183 
L 244.012444 21.84183 
L 244.089771 21.213769 
L 244.263426 21.213769 
L 244.323366 20.585708 
L 244.521892 20.585708 
L 244.621851 19.643617 
L 244.741555 19.643617 
L 244.831294 19.015556 
L 244.884173 19.015556 
L 244.964763 18.387495 
L 245.16117 18.387495 
L 245.16117 18.073464 
L 245.304763 18.073464 
L 245.304763 17.759434 
L 245.789005 17.759434 
L 245.789005 17.445403 
L 246.041583 17.445403 
L 246.041583 17.131373 
L 246.181827 17.131373 
L 246.181827 16.817342 
L 246.320592 16.817342 
L 246.320592 16.503312 
L 246.479708 16.503312 
L 246.530528 15.875251 
L 246.724287 15.875251 
L 246.724287 15.56122 
L 246.896798 15.56122 
L 246.896798 15.24719 
L 247.05401 15.24719 
L 247.110526 14.619129 
L 247.585387 14.619129 
L 247.585387 14.305098 
L 248.061197 14.305098 
L 248.061197 13.991068 
L 248.740241 13.991068 
L 248.740241 13.677037 
L 248.893208 13.677037 
L 248.893208 13.363007 
L 249.046201 13.363007 
L 249.100618 12.734946 
L 249.284884 12.734946 
L 249.284884 12.420915 
L 249.498258 12.420915 
L 249.498258 12.106885 
L 249.717921 12.106885 
L 249.717921 11.792854 
L 250.475202 11.792854 
L 250.56091 11.164793 
L 250.939214 11.164793 
L 250.939214 10.850763 
L 251.456722 10.850763 
L 251.456722 10.536732 
L 252.036921 10.536732 
L 252.036921 10.222702 
L 252.174437 10.222702 
L 252.269675 9.594641 
L 253.003093 9.594641 
L 253.094233 8.96658 
L 253.212379 8.96658 
L 253.212379 8.652549 
L 254.548685 8.652549 
L 254.548685 8.338519 
L 254.84229 8.338519 
L 254.84229 8.024488 
L 255.91558 8.024488 
L 255.91558 7.710458 
L 256.826271 7.710458 
L 256.826271 7.396427 
L 258.070599 7.396427 
L 258.070599 7.082397 
L 261.701434 7.082397 
L 261.802637 6.454336 
L 262.775353 6.454336 
L 262.775353 6.140305 
L 267.751719 6.140305 
L 267.751719 5.826275 
L 453.192 5.826275 
L 453.192 5.826275 
" style="fill:none;stroke:#000000;stroke-linecap:square;stroke-width:3;"/>
   </g>
   <g id="line2d_52">
    <path clip-path="url(#p3f1c6be943)" style="fill:none;stroke:#000000;stroke-linecap:square;stroke-width:3;"/>
   </g>
   <g id="line2d_53">
    <path clip-path="url(#p3f1c6be943)" d="M 34.16 283.743268 
L 162.899221 283.743268 
L 162.899221 283.429237 
L 163.835008 283.429237 
L 163.835008 283.115207 
L 167.654819 283.115207 
L 167.654819 282.801176 
L 169.536568 282.801176 
L 169.536568 282.487146 
L 169.968709 282.487146 
L 169.968709 282.173115 
L 170.883924 282.173115 
L 170.883924 281.859085 
L 174.995558 281.859085 
L 174.995558 281.545054 
L 175.682658 281.545054 
L 175.682658 281.231024 
L 177.564883 281.231024 
L 177.564883 280.916993 
L 178.525248 280.916993 
L 178.525248 280.602963 
L 179.19923 280.602963 
L 179.251701 279.974902 
L 179.643059 279.974902 
L 179.643059 279.660871 
L 180.152549 279.660871 
L 180.152549 279.346841 
L 181.716262 279.346841 
L 181.716262 279.03281 
L 182.147329 279.03281 
L 182.147329 278.71878 
L 183.524828 278.71878 
L 183.524828 278.404749 
L 183.731627 278.404749 
L 183.736073 277.776688 
L 184.578531 277.776688 
L 184.578531 277.462658 
L 186.578663 277.462658 
L 186.578663 277.148627 
L 188.196506 277.148627 
L 188.205964 276.520566 
L 188.420356 276.520566 
L 188.420356 276.206536 
L 188.73165 276.206536 
L 188.73165 275.892505 
L 189.397552 275.892505 
L 189.452547 275.264444 
L 189.589705 275.264444 
L 189.672446 274.636383 
L 189.769677 274.636383 
L 189.769677 274.322353 
L 190.200744 274.322353 
L 190.200744 274.008322 
L 191.10117 274.008322 
L 191.10117 273.694292 
L 191.290626 273.694292 
L 191.290626 273.380261 
L 191.785042 273.380261 
L 191.785042 273.066231 
L 191.992234 273.066231 
L 191.992234 272.7522 
L 192.161575 272.7522 
L 192.161575 272.43817 
L 192.631946 272.43817 
L 192.631946 272.124139 
L 192.928021 272.124139 
L 192.928021 271.810109 
L 193.596449 271.810109 
L 193.596449 271.496078 
L 194.213821 271.496078 
L 194.264491 270.868017 
L 194.532235 270.868017 
L 194.532235 270.553987 
L 195.246689 270.553987 
L 195.246689 270.239956 
L 196.133902 270.239956 
L 196.149597 269.611895 
L 196.249921 269.611895 
L 196.249921 269.297865 
L 196.582425 269.297865 
L 196.621109 268.669804 
L 196.747833 268.669804 
L 196.785065 267.727712 
L 196.876179 267.727712 
L 196.876179 267.413682 
L 197.41285 267.413682 
L 197.505962 266.47159 
L 197.64312 266.47159 
L 197.64312 266.15756 
L 198.352047 266.15756 
L 198.352047 265.843529 
L 198.629581 265.843529 
L 198.629581 265.529499 
L 198.904751 265.529499 
L 198.904751 265.215468 
L 199.061723 265.215468 
L 199.061723 264.901438 
L 199.544732 264.901438 
L 199.588556 264.273377 
L 199.718769 264.273377 
L 199.745746 263.645316 
L 199.976937 263.645316 
L 199.976937 263.331285 
L 200.21499 263.331285 
L 200.233795 262.703224 
L 200.524342 262.703224 
L 200.524342 262.389194 
L 200.665937 262.389194 
L 200.727943 261.447102 
L 201.34607 261.447102 
L 201.34607 261.133072 
L 201.581151 261.133072 
L 201.630852 260.505011 
L 201.763237 260.505011 
L 201.763237 260.19098 
L 202.102364 260.19098 
L 202.102364 259.87695 
L 202.267236 259.87695 
L 202.267236 259.562919 
L 202.745288 259.562919 
L 202.745288 259.248889 
L 202.863419 259.248889 
L 202.909783 258.306797 
L 203.075179 258.306797 
L 203.145126 257.678736 
L 203.34085 257.678736 
L 203.418556 257.050675 
L 203.517077 257.050675 
L 203.608012 256.422614 
L 204.088571 256.422614 
L 204.088571 256.108584 
L 204.227235 256.108584 
L 204.227235 255.794553 
L 204.344154 255.794553 
L 204.376503 255.166492 
L 204.925148 255.166492 
L 205.025987 254.538431 
L 205.144378 254.538431 
L 205.144378 254.224401 
L 205.692785 254.224401 
L 205.772052 253.282309 
L 205.987715 253.282309 
L 205.987715 252.968279 
L 206.225902 252.968279 
L 206.225902 252.654248 
L 206.581877 252.654248 
L 206.658044 251.398126 
L 206.708091 251.398126 
L 206.799469 250.456035 
L 206.958166 250.456035 
L 206.958166 250.142004 
L 207.069598 250.142004 
L 207.139158 249.199913 
L 207.181206 249.199913 
L 207.244492 248.571852 
L 207.564075 248.571852 
L 207.615016 247.62976 
L 207.698746 247.62976 
L 207.698746 247.31573 
L 208.046152 247.31573 
L 208.046152 247.001699 
L 208.226543 247.001699 
L 208.292243 246.059608 
L 208.344673 246.059608 
L 208.344715 245.431547 
L 208.466983 245.431547 
L 208.556433 244.489455 
L 208.723456 244.489455 
L 208.736073 243.861394 
L 208.938495 243.861394 
L 208.938495 243.547364 
L 209.178729 243.547364 
L 209.178729 243.233333 
L 209.390028 243.233333 
L 209.390028 242.919303 
L 209.57036 242.919303 
L 209.609796 241.663181 
L 209.724304 241.663181 
L 209.773334 240.721089 
L 209.892544 240.721089 
L 209.948929 239.150937 
L 210.158357 239.150937 
L 210.158357 238.836906 
L 210.340287 238.836906 
L 210.447445 238.208845 
L 210.591074 238.208845 
L 210.646069 237.580784 
L 210.755532 237.580784 
L 210.783226 236.952723 
L 211.076479 236.952723 
L 211.076479 236.638693 
L 211.194094 236.638693 
L 211.211964 235.696601 
L 211.658441 235.696601 
L 211.684892 235.06854 
L 211.804024 235.06854 
L 211.865963 233.812418 
L 212.040998 233.812418 
L 212.129952 233.184357 
L 212.252842 233.184357 
L 212.261987 232.556296 
L 212.550852 232.556296 
L 212.66057 231.614205 
L 212.735134 231.614205 
L 212.809838 230.672113 
L 212.887625 230.672113 
L 212.921693 230.044052 
L 213.188335 230.044052 
L 213.201804 229.101961 
L 213.355096 229.101961 
L 213.355096 228.78793 
L 213.556062 228.78793 
L 213.556062 228.4739 
L 213.72348 228.4739 
L 213.747712 227.845839 
L 213.869823 227.845839 
L 213.965952 226.589717 
L 214.080623 226.589717 
L 214.179853 225.647625 
L 214.222056 225.647625 
L 214.254217 225.019564 
L 214.362435 225.019564 
L 214.444376 224.077473 
L 214.581534 224.077473 
L 214.646614 223.449412 
L 214.772731 223.449412 
L 214.786102 222.821351 
L 215.053575 222.821351 
L 215.147794 221.565229 
L 215.180804 221.565229 
L 215.244243 220.937168 
L 215.297063 220.937168 
L 215.407343 219.995076 
L 215.520753 219.995076 
L 215.614541 219.052985 
L 215.633006 219.052985 
L 215.658974 218.424924 
L 215.888565 218.424924 
L 215.941457 217.168802 
L 216.035984 217.168802 
L 216.132081 216.540741 
L 216.194118 216.540741 
L 216.273915 215.91268 
L 216.332394 215.91268 
L 216.357215 215.284619 
L 216.451879 215.284619 
L 216.500265 214.656558 
L 216.601148 214.656558 
L 216.689721 214.028497 
L 216.86002 214.028497 
L 216.915015 213.400436 
L 217.00844 213.400436 
L 217.110083 212.144314 
L 217.129273 212.144314 
L 217.153404 211.516253 
L 217.27208 211.516253 
L 217.27208 211.202222 
L 217.513369 211.202222 
L 217.54115 210.574161 
L 217.837628 210.574161 
L 217.941513 209.9461 
L 218.007173 209.9461 
L 218.111471 208.689978 
L 218.167866 208.689978 
L 218.268695 207.747887 
L 218.372262 207.747887 
L 218.372262 207.433856 
L 218.584022 207.433856 
L 218.619306 205.863704 
L 218.760322 205.863704 
L 218.788416 204.607582 
L 218.88078 204.607582 
L 218.890189 203.979521 
L 219.014379 203.979521 
L 219.125448 202.723399 
L 219.20565 202.723399 
L 219.263124 201.467277 
L 219.318393 201.467277 
L 219.40585 200.211155 
L 219.485891 200.211155 
L 219.485891 199.897124 
L 219.624042 199.897124 
L 219.663586 199.269063 
L 219.786126 199.269063 
L 219.880426 198.326972 
L 219.923391 198.326972 
L 220.022709 197.38488 
L 220.098272 197.38488 
L 220.098272 197.07085 
L 220.214163 197.07085 
L 220.295708 195.500697 
L 220.369673 195.500697 
L 220.452027 194.244575 
L 220.494398 194.244575 
L 220.558932 193.302484 
L 220.64418 193.302484 
L 220.699897 192.046362 
L 220.785202 192.046362 
L 220.871625 190.79024 
L 221.007408 190.79024 
L 221.078916 189.848148 
L 221.239552 189.848148 
L 221.276078 189.220087 
L 221.368005 189.220087 
L 221.425346 188.277996 
L 221.486553 188.277996 
L 221.565025 187.021874 
L 221.676289 187.021874 
L 221.776027 185.765752 
L 221.798483 185.765752 
L 221.876491 185.137691 
L 221.934756 185.137691 
L 222.020204 184.195599 
L 222.067827 184.195599 
L 222.082565 183.253508 
L 222.383001 183.253508 
L 222.409514 182.311416 
L 222.578441 182.311416 
L 222.684484 181.055294 
L 222.782932 181.055294 
L 222.87394 180.113203 
L 222.941536 180.113203 
L 222.978029 179.485142 
L 223.127297 179.485142 
L 223.21605 178.54305 
L 223.363635 178.54305 
L 223.462845 177.600959 
L 223.590327 177.600959 
L 223.662433 176.344837 
L 223.799591 176.344837 
L 223.89658 175.088715 
L 223.954088 175.088715 
L 224.034946 173.204532 
L 224.073992 173.204532 
L 224.131301 171.94841 
L 224.230049 171.94841 
L 224.317873 171.006318 
L 224.349179 171.006318 
L 224.440954 169.750196 
L 224.46046 169.750196 
L 224.542175 168.180044 
L 224.579644 168.180044 
L 224.681193 166.923922 
L 224.747589 166.923922 
L 224.853017 164.725708 
L 224.943827 164.725708 
L 225.044978 162.841525 
L 225.080344 162.841525 
L 225.109691 162.213464 
L 225.198734 162.213464 
L 225.268296 161.271373 
L 225.334067 161.271373 
L 225.37674 160.643312 
L 225.475516 160.643312 
L 225.573914 159.38719 
L 225.61007 159.38719 
L 225.711071 158.445098 
L 225.726973 158.445098 
L 225.780706 157.188976 
L 225.847805 157.188976 
L 225.95574 155.304793 
L 226.016131 155.304793 
L 226.107795 154.048671 
L 226.178756 154.048671 
L 226.246191 152.792549 
L 226.328024 152.792549 
L 226.404647 149.652244 
L 226.441313 149.652244 
L 226.517773 148.710153 
L 226.580928 148.710153 
L 226.645806 147.14 
L 226.748994 147.14 
L 226.83113 145.883878 
L 226.862016 145.883878 
L 226.949914 144.941786 
L 227.073826 144.941786 
L 227.183305 142.429542 
L 227.2072 142.429542 
L 227.303096 141.801481 
L 227.496288 141.801481 
L 227.602812 140.85939 
L 227.629364 140.85939 
L 227.735972 138.975207 
L 227.745398 138.975207 
L 227.817014 138.033115 
L 227.865129 138.033115 
L 227.968359 136.148932 
L 228.044801 136.148932 
L 228.144383 135.520871 
L 228.166101 135.520871 
L 228.263598 134.264749 
L 228.282941 134.264749 
L 228.369703 133.322658 
L 228.399426 133.322658 
L 228.474273 130.810414 
L 228.552851 130.810414 
L 228.605322 129.868322 
L 228.700838 129.868322 
L 228.700838 129.554292 
L 228.875483 129.554292 
L 228.950385 128.29817 
L 228.996164 128.29817 
L 228.99668 127.670109 
L 229.132727 127.670109 
L 229.19824 126.728017 
L 229.261514 126.728017 
L 229.36236 125.157865 
L 229.444315 125.157865 
L 229.554793 124.215773 
L 229.607642 124.215773 
L 229.683036 123.273682 
L 229.73849 123.273682 
L 229.835943 122.33159 
L 229.904572 122.33159 
L 229.983725 120.761438 
L 230.062423 120.761438 
L 230.062423 120.447407 
L 230.281205 120.447407 
L 230.351511 118.877255 
L 230.407374 118.877255 
L 230.502784 117.935163 
L 230.536991 117.935163 
L 230.613167 116.05098 
L 230.713346 116.05098 
L 230.713346 115.73695 
L 230.828078 115.73695 
L 230.830628 115.108889 
L 230.941817 115.108889 
L 231.050258 113.538736 
L 231.056049 113.538736 
L 231.129804 111.654553 
L 231.212293 111.654553 
L 231.239714 111.026492 
L 231.332598 111.026492 
L 231.439899 108.828279 
L 231.480019 108.828279 
L 231.533692 107.258126 
L 231.628561 107.258126 
L 231.717691 106.316035 
L 231.766439 106.316035 
L 231.849197 105.687974 
L 231.911411 105.687974 
L 231.976763 104.745882 
L 232.066496 104.745882 
L 232.167161 102.233638 
L 232.247354 102.233638 
L 232.306856 101.605577 
L 232.398967 101.605577 
L 232.497564 99.721394 
L 232.515743 99.721394 
L 232.5802 98.465272 
L 232.6315 98.465272 
L 232.703152 97.523181 
L 232.79196 97.523181 
L 232.878449 95.638998 
L 232.975967 95.638998 
L 233.065047 94.068845 
L 233.102948 94.068845 
L 233.114637 93.440784 
L 233.224609 93.440784 
L 233.312026 92.498693 
L 233.346551 92.498693 
L 233.441444 91.556601 
L 233.460128 91.556601 
L 233.560486 90.92854 
L 233.669648 90.92854 
L 233.669648 90.61451 
L 233.783538 90.61451 
L 233.883589 88.416296 
L 233.981079 88.416296 
L 234.091023 87.160174 
L 234.100716 87.160174 
L 234.170921 86.218083 
L 234.213508 86.218083 
L 234.298572 84.961961 
L 234.328602 84.961961 
L 234.406528 83.705839 
L 234.446733 83.705839 
L 234.546088 82.135686 
L 234.575278 82.135686 
L 234.658493 81.507625 
L 234.692251 81.507625 
L 234.761387 80.879564 
L 234.834374 80.879564 
L 234.928766 79.623442 
L 234.983748 79.623442 
L 235.026117 78.681351 
L 235.195776 78.681351 
L 235.264502 78.05329 
L 235.424819 78.05329 
L 235.507583 76.797168 
L 235.618402 76.797168 
L 235.704645 74.912985 
L 235.740194 74.912985 
L 235.845523 73.656863 
L 236.062232 73.656863 
L 236.098685 73.028802 
L 236.180435 73.028802 
L 236.232906 71.458649 
L 236.381651 71.458649 
L 236.418672 70.516558 
L 236.531918 70.516558 
L 236.624264 68.946405 
L 236.707161 68.946405 
L 236.786379 68.318344 
L 236.840053 68.318344 
L 236.946247 67.376253 
L 236.958191 67.376253 
L 237.053539 66.434161 
L 237.071552 66.434161 
L 237.181635 65.49207 
L 237.265576 65.49207 
L 237.361937 64.235948 
L 237.472274 64.235948 
L 237.522697 62.979826 
L 237.773977 62.979826 
L 237.773977 62.665795 
L 237.892978 62.665795 
L 237.892978 62.351765 
L 238.023417 62.351765 
L 238.03559 61.723704 
L 238.153721 61.723704 
L 238.238272 60.781612 
L 238.270819 60.781612 
L 238.365481 59.52549 
L 238.413672 59.52549 
L 238.413672 59.21146 
L 238.546741 59.21146 
L 238.652912 58.269368 
L 238.689319 58.269368 
L 238.773503 57.327277 
L 238.804508 57.327277 
L 238.881471 56.385185 
L 238.922882 56.385185 
L 239.026067 55.129063 
L 239.081885 55.129063 
L 239.156787 54.186972 
L 239.236649 54.186972 
L 239.343585 53.558911 
L 239.355516 53.558911 
L 239.367283 52.93085 
L 239.49382 52.93085 
L 239.49382 52.616819 
L 239.746006 52.616819 
L 239.822689 51.360697 
L 239.877684 51.360697 
L 239.944001 49.162484 
L 239.996338 49.162484 
L 240.051131 47.906362 
L 240.149893 47.906362 
L 240.237607 46.65024 
L 240.337714 46.65024 
L 240.444309 44.766057 
L 240.465919 44.766057 
L 240.506033 44.137996 
L 240.685037 44.137996 
L 240.793434 43.195904 
L 240.85188 43.195904 
L 240.932796 42.253813 
L 241.021011 42.253813 
L 241.021011 41.939782 
L 241.184792 41.939782 
L 241.240622 41.311721 
L 241.350939 41.311721 
L 241.453341 39.113508 
L 241.505945 39.113508 
L 241.543092 38.485447 
L 241.712134 38.485447 
L 241.759916 37.543355 
L 241.824183 37.543355 
L 241.824183 37.229325 
L 241.97423 37.229325 
L 242.084597 36.601264 
L 242.139592 36.601264 
L 242.228603 35.973203 
L 242.27675 35.973203 
L 242.3599 35.031111 
L 242.486227 35.031111 
L 242.586711 33.460959 
L 242.633523 33.460959 
L 242.694376 32.832898 
L 242.812506 32.832898 
L 242.904163 31.890806 
L 242.930057 31.890806 
L 243.024266 31.262745 
L 243.076693 31.262745 
L 243.129164 30.320654 
L 243.424838 30.320654 
L 243.520522 29.378562 
L 243.546162 29.378562 
L 243.546162 29.064532 
L 243.758119 29.064532 
L 243.758119 28.750501 
L 244.04845 28.750501 
L 244.114961 28.12244 
L 244.232026 28.12244 
L 244.269465 27.180349 
L 244.448064 27.180349 
L 244.448064 26.866318 
L 244.564056 26.866318 
L 244.638958 25.924227 
L 244.796968 25.924227 
L 244.84862 24.982135 
L 245.066561 24.982135 
L 245.156849 24.354074 
L 245.401561 24.354074 
L 245.487523 23.726013 
L 245.630245 23.726013 
L 245.705952 22.783922 
L 245.742139 22.783922 
L 245.742139 22.469891 
L 245.95024 22.469891 
L 245.95024 22.155861 
L 246.091618 22.155861 
L 246.167208 21.5278 
L 246.653651 21.5278 
L 246.653651 21.213769 
L 246.811826 21.213769 
L 246.900866 19.957647 
L 247.018685 19.957647 
L 247.018685 19.643617 
L 247.402291 19.643617 
L 247.402291 19.329586 
L 247.70683 19.329586 
L 247.70683 19.015556 
L 247.836313 19.015556 
L 247.836313 18.701525 
L 247.954444 18.701525 
L 247.997696 18.073464 
L 248.127534 18.073464 
L 248.196517 17.131373 
L 248.416904 17.131373 
L 248.519641 16.189281 
L 248.910999 16.189281 
L 248.910999 15.875251 
L 249.164993 15.875251 
L 249.254986 14.933159 
L 249.329888 14.933159 
L 249.329888 14.619129 
L 249.448303 14.619129 
L 249.448303 14.305098 
L 249.962089 14.305098 
L 249.962089 13.991068 
L 250.417082 13.991068 
L 250.417082 13.677037 
L 250.601479 13.677037 
L 250.601479 13.363007 
L 250.821734 13.363007 
L 250.858138 12.734946 
L 251.214178 12.734946 
L 251.214178 12.420915 
L 251.591796 12.420915 
L 251.591796 12.106885 
L 251.707353 12.106885 
L 251.707353 11.792854 
L 251.853569 11.792854 
L 251.853569 11.478824 
L 252.160623 11.478824 
L 252.208786 10.850763 
L 252.297819 10.850763 
L 252.297819 10.536732 
L 252.553074 10.536732 
L 252.553074 10.222702 
L 252.792768 10.222702 
L 252.792768 9.908671 
L 252.959443 9.908671 
L 252.959443 9.594641 
L 253.115107 9.594641 
L 253.115107 9.28061 
L 253.549908 9.28061 
L 253.558842 8.652549 
L 256.878539 8.652549 
L 256.878539 8.338519 
L 257.675635 8.338519 
L 257.688296 7.710458 
L 258.232252 7.710458 
L 258.315026 7.082397 
L 258.940385 7.082397 
L 258.940385 6.768366 
L 259.4209 6.768366 
L 259.4209 6.454336 
L 260.011365 6.454336 
L 260.011365 6.140305 
L 265.401842 6.140305 
L 265.401842 5.826275 
L 453.192 5.826275 
L 453.192 5.826275 
" style="fill:none;stroke:#00bfbf;stroke-linecap:square;stroke-width:3;"/>
   </g>
   <g id="line2d_54">
    <path clip-path="url(#p3f1c6be943)" style="fill:none;stroke:#00bfbf;stroke-linecap:square;stroke-width:3;"/>
   </g>
   <g id="line2d_55">
    <path clip-path="url(#p3f1c6be943)" d="M 34.16 283.743268 
L 181.887706 283.743268 
L 181.887706 283.429237 
L 182.147945 283.429237 
L 182.147945 283.115207 
L 185.045168 283.115207 
L 185.045168 282.801176 
L 185.841464 282.801176 
L 185.841464 282.487146 
L 186.968661 282.487146 
L 186.968661 282.173115 
L 187.482754 282.173115 
L 187.482754 281.859085 
L 188.232438 281.859085 
L 188.232438 281.545054 
L 188.895352 281.545054 
L 188.895352 281.231024 
L 191.390935 281.231024 
L 191.390935 280.916993 
L 191.681574 280.916993 
L 191.681574 280.602963 
L 192.290165 280.602963 
L 192.290165 280.288932 
L 193.169996 280.288932 
L 193.169996 279.974902 
L 193.885359 279.974902 
L 193.885359 279.660871 
L 194.112005 279.660871 
L 194.112005 279.346841 
L 195.279517 279.346841 
L 195.279517 279.03281 
L 197.613363 279.03281 
L 197.613363 278.71878 
L 198.551838 278.71878 
L 198.551838 278.404749 
L 200.3356 278.404749 
L 200.3356 278.090719 
L 200.814587 278.090719 
L 200.851196 277.462658 
L 201.135858 277.462658 
L 201.215454 276.834597 
L 201.540475 276.834597 
L 201.540475 276.520566 
L 201.934172 276.520566 
L 202.023111 275.892505 
L 202.077867 275.892505 
L 202.077867 275.578475 
L 202.657703 275.578475 
L 202.657703 275.264444 
L 203.013943 275.264444 
L 203.013943 274.950414 
L 203.144411 274.950414 
L 203.144411 274.636383 
L 203.761606 274.636383 
L 203.761606 274.322353 
L 204.201511 274.322353 
L 204.250789 273.694292 
L 204.803787 273.694292 
L 204.803787 273.380261 
L 205.194158 273.380261 
L 205.194158 273.066231 
L 205.579224 273.066231 
L 205.580759 272.43817 
L 206.418361 272.43817 
L 206.418361 272.124139 
L 207.672867 272.124139 
L 207.672867 271.810109 
L 207.933107 271.810109 
L 208.033656 271.182048 
L 208.295097 271.182048 
L 208.301462 270.553987 
L 208.563922 270.553987 
L 208.563922 270.239956 
L 208.742077 270.239956 
L 208.848094 268.983834 
L 208.940534 268.983834 
L 208.940534 268.669804 
L 209.181315 268.669804 
L 209.254288 267.413682 
L 209.506337 267.413682 
L 209.506337 267.099651 
L 209.625067 267.099651 
L 209.625067 266.785621 
L 209.900034 266.785621 
L 209.988973 266.15756 
L 210.173789 266.15756 
L 210.173789 265.843529 
L 210.462668 265.843529 
L 210.462668 265.529499 
L 210.623565 265.529499 
L 210.623565 265.215468 
L 210.830329 265.215468 
L 210.830329 264.901438 
L 210.983527 264.901438 
L 210.983527 264.587407 
L 211.110273 264.587407 
L 211.110273 264.273377 
L 211.423276 264.273377 
L 211.423276 263.959346 
L 211.626626 263.959346 
L 211.727468 263.331285 
L 211.876598 263.331285 
L 211.925535 262.703224 
L 212.097996 262.703224 
L 212.167373 261.761133 
L 212.269505 261.761133 
L 212.302309 261.133072 
L 212.429595 261.133072 
L 212.429595 260.819041 
L 212.562549 260.819041 
L 212.608229 260.19098 
L 212.753823 260.19098 
L 212.819967 258.934858 
L 212.894293 258.934858 
L 212.894293 258.620828 
L 213.206568 258.620828 
L 213.298596 257.678736 
L 213.528081 257.678736 
L 213.528081 257.364706 
L 213.718188 257.364706 
L 213.810983 256.736645 
L 214.017599 256.736645 
L 214.109173 255.480523 
L 214.21612 255.480523 
L 214.218097 254.852462 
L 214.535582 254.852462 
L 214.535582 254.538431 
L 214.680514 254.538431 
L 214.680514 254.224401 
L 215.051181 254.224401 
L 215.051181 253.91037 
L 215.285266 253.91037 
L 215.285266 253.59634 
L 215.426893 253.59634 
L 215.467584 252.654248 
L 215.929509 252.654248 
L 215.999518 251.712157 
L 216.176112 251.712157 
L 216.256068 250.770065 
L 216.367886 250.770065 
L 216.367886 250.456035 
L 216.482507 250.456035 
L 216.482507 250.142004 
L 216.831062 250.142004 
L 216.880097 249.199913 
L 217.176096 249.199913 
L 217.25948 248.257821 
L 217.288832 248.257821 
L 217.383265 247.62976 
L 217.466736 247.62976 
L 217.572389 247.001699 
L 217.799598 247.001699 
L 217.897358 245.745577 
L 218.075327 245.745577 
L 218.14913 244.803486 
L 218.229346 244.803486 
L 218.260428 244.175425 
L 218.432674 244.175425 
L 218.443763 243.547364 
L 218.552539 243.547364 
L 218.647041 242.291242 
L 218.664726 242.291242 
L 218.734402 241.34915 
L 218.789039 241.34915 
L 218.789039 241.03512 
L 219.028984 241.03512 
L 219.086766 239.778998 
L 219.158301 239.778998 
L 219.158301 239.464967 
L 219.309956 239.464967 
L 219.354005 238.522876 
L 219.623117 238.522876 
L 219.711298 237.580784 
L 219.747702 237.580784 
L 219.836641 236.638693 
L 219.941783 236.638693 
L 220.028774 236.010632 
L 220.10167 236.010632 
L 220.10167 235.696601 
L 220.242642 235.696601 
L 220.242642 235.382571 
L 220.42077 235.382571 
L 220.488271 233.498388 
L 220.804463 233.498388 
L 220.821637 232.870327 
L 220.933008 232.870327 
L 220.957941 231.928235 
L 221.064679 231.928235 
L 221.15389 230.672113 
L 221.274777 230.672113 
L 221.33314 229.730022 
L 221.416695 229.730022 
L 221.436792 229.101961 
L 221.540355 229.101961 
L 221.647622 227.845839 
L 221.753764 227.845839 
L 221.852509 226.275686 
L 222.015042 226.275686 
L 222.096178 225.647625 
L 222.134224 225.647625 
L 222.244064 224.705534 
L 222.263887 224.705534 
L 222.332345 223.763442 
L 222.430758 223.763442 
L 222.479652 223.135381 
L 222.704769 223.135381 
L 222.790903 221.879259 
L 222.873349 221.879259 
L 222.962288 221.251198 
L 223.060449 221.251198 
L 223.158365 219.995076 
L 223.260027 219.995076 
L 223.367789 219.367015 
L 223.413638 219.367015 
L 223.471433 218.424924 
L 223.530132 218.424924 
L 223.602953 217.482832 
L 223.649589 217.482832 
L 223.705525 216.854771 
L 223.807695 216.854771 
L 223.810525 216.22671 
L 223.961925 216.22671 
L 223.995811 215.598649 
L 224.083588 215.598649 
L 224.165249 214.656558 
L 224.299963 214.656558 
L 224.392515 213.086405 
L 224.700782 213.086405 
L 224.772784 211.516253 
L 224.89353 211.516253 
L 224.914641 210.888192 
L 225.004971 210.888192 
L 225.081301 209.9461 
L 225.140688 209.9461 
L 225.206802 208.689978 
L 225.478358 208.689978 
L 225.52823 207.119826 
L 225.604667 207.119826 
L 225.698895 205.863704 
L 225.846712 205.863704 
L 225.894841 204.293551 
L 226.03393 204.293551 
L 226.089267 203.66549 
L 226.209179 203.66549 
L 226.29417 202.409368 
L 226.325699 202.409368 
L 226.399511 200.839216 
L 226.475868 200.839216 
L 226.517165 200.211155 
L 226.606584 200.211155 
L 226.700145 198.641002 
L 226.726565 198.641002 
L 226.767965 197.698911 
L 226.868648 197.698911 
L 226.918918 197.07085 
L 226.992315 197.07085 
L 227.051587 196.128758 
L 227.128888 196.128758 
L 227.206996 194.872636 
L 227.30929 194.872636 
L 227.376536 193.302484 
L 227.445284 193.302484 
L 227.534223 192.360392 
L 227.610967 192.360392 
L 227.695891 191.10427 
L 227.743999 191.10427 
L 227.850941 188.906057 
L 227.857005 188.906057 
L 227.93988 187.649935 
L 228.160197 187.649935 
L 228.203905 186.393813 
L 228.297394 186.393813 
L 228.36417 185.451721 
L 228.435593 185.451721 
L 228.533492 183.881569 
L 228.571368 183.881569 
L 228.655523 182.625447 
L 228.718495 182.625447 
L 228.799104 181.369325 
L 228.861715 181.369325 
L 228.967552 179.799172 
L 228.972833 179.799172 
L 229.061181 178.54305 
L 229.102205 178.54305 
L 229.191392 177.286928 
L 229.219868 177.286928 
L 229.288659 176.030806 
L 229.365814 176.030806 
L 229.45903 175.088715 
L 229.587331 175.088715 
L 229.696861 172.576471 
L 229.712623 172.576471 
L 229.799683 171.94841 
L 229.832339 171.94841 
L 229.880459 171.320349 
L 229.957101 171.320349 
L 230.066771 168.808105 
L 230.085917 168.808105 
L 230.16874 167.551983 
L 230.307692 167.551983 
L 230.417974 166.295861 
L 230.451739 166.295861 
L 230.502764 165.353769 
L 230.579242 165.353769 
L 230.679053 163.783617 
L 230.743053 163.783617 
L 230.85337 162.213464 
L 230.857209 162.213464 
L 230.890271 161.271373 
L 231.004736 161.271373 
L 231.114886 159.073159 
L 231.124703 159.073159 
L 231.234358 157.503007 
L 231.281415 157.503007 
L 231.36942 156.560915 
L 231.395108 156.560915 
L 231.459096 155.304793 
L 231.577948 155.304793 
L 231.667265 153.734641 
L 231.730965 153.734641 
L 231.805662 152.478519 
L 231.879434 152.478519 
L 231.967255 151.222397 
L 232.108784 151.222397 
L 232.196344 149.966275 
L 232.22601 149.966275 
L 232.318385 147.768061 
L 232.378662 147.768061 
L 232.463697 146.197908 
L 232.529864 146.197908 
L 232.638144 144.941786 
L 232.680335 144.941786 
L 232.777681 143.371634 
L 232.802116 143.371634 
L 232.901345 142.115512 
L 232.921845 142.115512 
L 233.026913 140.85939 
L 233.041577 140.85939 
L 233.124747 139.289237 
L 233.166837 139.289237 
L 233.221701 138.033115 
L 233.289066 138.033115 
L 233.388053 136.776993 
L 233.408145 136.776993 
L 233.491898 135.520871 
L 233.5343 135.520871 
L 233.594974 133.322658 
L 233.65062 133.322658 
L 233.752275 131.752505 
L 233.834563 131.752505 
L 233.939408 129.868322 
L 233.950425 129.868322 
L 234.060439 127.984139 
L 234.112816 127.984139 
L 234.197773 126.099956 
L 234.231075 126.099956 
L 234.32978 123.901743 
L 234.350158 123.901743 
L 234.456522 122.33159 
L 234.552053 122.33159 
L 234.651286 121.703529 
L 234.686338 121.703529 
L 234.777816 118.563224 
L 234.803182 118.563224 
L 234.856475 117.307102 
L 234.917478 117.307102 
L 234.983659 116.05098 
L 235.039437 116.05098 
L 235.130925 113.852767 
L 235.155772 113.852767 
L 235.215267 112.910675 
L 235.29191 112.910675 
L 235.385777 111.026492 
L 235.433134 111.026492 
L 235.53716 108.828279 
L 235.553982 108.828279 
L 235.664355 106.944096 
L 235.692187 106.944096 
L 235.799361 105.687974 
L 235.804787 105.687974 
L 235.841396 104.431852 
L 235.926114 104.431852 
L 235.970606 103.17573 
L 236.041593 103.17573 
L 236.128581 102.233638 
L 236.156666 102.233638 
L 236.205654 101.291547 
L 236.292522 101.291547 
L 236.374738 99.407364 
L 236.43639 99.407364 
L 236.532944 96.89512 
L 236.585113 96.89512 
L 236.669376 95.324967 
L 236.704508 95.324967 
L 236.789274 94.696906 
L 236.847495 94.696906 
L 236.940631 93.126754 
L 236.97217 93.126754 
L 237.071716 91.870632 
L 237.088464 91.870632 
L 237.195638 91.242571 
L 237.209195 91.242571 
L 237.308109 89.986449 
L 237.338112 89.986449 
L 237.374721 88.102266 
L 237.468596 88.102266 
L 237.564779 85.904052 
L 237.624226 85.904052 
L 237.732432 83.391808 
L 237.737151 83.391808 
L 237.796387 82.135686 
L 237.872109 82.135686 
L 237.953185 80.251503 
L 238.031584 80.251503 
L 238.134612 77.739259 
L 238.183941 77.739259 
L 238.277298 76.483137 
L 238.332754 76.483137 
L 238.389909 75.541046 
L 238.457697 75.541046 
L 238.546636 73.342832 
L 238.638429 73.342832 
L 238.712949 72.714771 
L 238.751806 72.714771 
L 238.857167 71.77268 
L 238.866301 71.77268 
L 238.894749 70.830588 
L 238.993791 70.830588 
L 239.102741 69.888497 
L 239.123448 69.888497 
L 239.20009 68.004314 
L 239.301754 68.004314 
L 239.403964 66.434161 
L 239.414087 66.434161 
L 239.49073 65.49207 
L 239.530878 65.49207 
L 239.633008 64.549978 
L 239.655067 64.549978 
L 239.765014 62.351765 
L 239.870601 62.351765 
L 239.90721 61.723704 
L 239.998434 61.723704 
L 240.099321 59.21146 
L 240.120988 59.21146 
L 240.147101 58.583399 
L 240.254779 58.583399 
L 240.329993 56.385185 
L 240.367692 56.385185 
L 240.45467 55.129063 
L 240.512527 55.129063 
L 240.596489 54.186972 
L 240.635081 54.186972 
L 240.725037 52.616819 
L 240.763021 52.616819 
L 240.869725 51.046667 
L 240.878156 51.046667 
L 240.970266 49.162484 
L 240.990186 49.162484 
L 241.079125 48.534423 
L 241.163888 48.534423 
L 241.267425 47.278301 
L 241.319628 47.278301 
L 241.384764 46.336209 
L 241.454656 46.336209 
L 241.559699 45.080087 
L 241.593625 45.080087 
L 241.694514 43.823965 
L 241.705525 43.823965 
L 241.713717 43.195904 
L 241.877912 43.195904 
L 241.971545 40.997691 
L 242.028156 40.997691 
L 242.064485 39.427538 
L 242.142181 39.427538 
L 242.200425 38.799477 
L 242.394583 38.799477 
L 242.500417 38.171416 
L 242.521909 38.171416 
L 242.626337 36.601264 
L 242.639088 36.601264 
L 242.721487 35.031111 
L 242.776773 35.031111 
L 242.862116 33.774989 
L 242.946604 33.774989 
L 243.023856 32.518867 
L 243.088673 32.518867 
L 243.166985 31.576776 
L 243.257525 31.576776 
L 243.351741 30.634684 
L 243.403331 30.634684 
L 243.489782 29.064532 
L 243.532781 29.064532 
L 243.532781 28.750501 
L 243.707335 28.750501 
L 243.71004 28.12244 
L 243.880676 28.12244 
L 243.894575 27.494379 
L 244.055282 27.494379 
L 244.149946 26.552288 
L 244.256274 26.552288 
L 244.35499 24.982135 
L 244.4164 24.982135 
L 244.48242 23.726013 
L 244.543261 23.726013 
L 244.557181 23.097952 
L 244.711347 23.097952 
L 244.737266 22.469891 
L 244.833901 22.469891 
L 244.939819 21.5278 
L 244.954512 21.5278 
L 244.987461 20.899739 
L 245.319938 20.899739 
L 245.319938 20.585708 
L 245.442492 20.585708 
L 245.445794 19.957647 
L 245.764454 19.957647 
L 245.764454 19.643617 
L 246.115923 19.643617 
L 246.115923 19.329586 
L 246.284352 19.329586 
L 246.360994 18.701525 
L 246.424453 18.701525 
L 246.424453 18.387495 
L 246.549706 18.387495 
L 246.549706 18.073464 
L 246.668457 18.073464 
L 246.777524 17.131373 
L 246.842071 17.131373 
L 246.915132 16.503312 
L 247.037686 16.503312 
L 247.124973 15.24719 
L 247.160167 15.24719 
L 247.185184 14.305098 
L 247.528596 14.305098 
L 247.53011 13.677037 
L 247.820494 13.677037 
L 247.820494 13.363007 
L 247.943864 13.363007 
L 247.994885 12.420915 
L 248.152726 12.420915 
L 248.152726 12.106885 
L 248.30929 12.106885 
L 248.30929 11.792854 
L 248.429389 11.792854 
L 248.431844 11.164793 
L 248.857527 11.164793 
L 248.857527 10.850763 
L 249.581427 10.850763 
L 249.630201 10.222702 
L 250.602822 10.222702 
L 250.602822 9.908671 
L 250.746456 9.908671 
L 250.823098 9.28061 
L 251.216185 9.28061 
L 251.216185 8.96658 
L 251.391133 8.96658 
L 251.391133 8.652549 
L 251.581611 8.652549 
L 251.629001 8.024488 
L 251.704165 8.024488 
L 251.704165 7.710458 
L 251.9907 7.710458 
L 251.991324 7.082397 
L 253.752257 7.082397 
L 253.752257 6.768366 
L 255.67829 6.768366 
L 255.67829 6.454336 
L 256.043716 6.454336 
L 256.043716 6.140305 
L 256.166269 6.140305 
L 256.166269 5.826275 
L 453.192 5.826275 
L 453.192 5.826275 
" style="fill:none;stroke:#bf00bf;stroke-linecap:square;stroke-width:3;"/>
   </g>
   <g id="line2d_56">
    <path clip-path="url(#p3f1c6be943)" style="fill:none;stroke:#bf00bf;stroke-linecap:square;stroke-width:3;"/>
   </g>
   <g id="line2d_57">
    <path clip-path="url(#p3f1c6be943)" d="M 34.16 286.235797 
L 166.750836 286.235797 
L 166.750836 285.91895 
L 167.574513 285.91895 
L 167.574513 285.602103 
L 167.839838 285.602103 
L 167.839838 285.285256 
L 169.606021 285.285256 
L 169.606021 284.968409 
L 170.400619 284.968409 
L 170.429697 284.334716 
L 170.695023 284.334716 
L 170.695023 284.017869 
L 170.863045 284.017869 
L 170.863045 283.701022 
L 171.08154 283.701022 
L 171.08154 283.384175 
L 172.08428 283.384175 
L 172.08428 283.067328 
L 172.587776 283.067328 
L 172.587776 282.750481 
L 173.255804 282.750481 
L 173.274876 282.116787 
L 173.71823 282.116787 
L 173.825023 281.483093 
L 174.577862 281.483093 
L 174.577862 281.166246 
L 175.44296 281.166246 
L 175.44296 280.849399 
L 177.124224 280.849399 
L 177.124224 280.532553 
L 177.433047 280.532553 
L 177.433047 280.215706 
L 177.642 280.215706 
L 177.642 279.898859 
L 180.497184 279.898859 
L 180.497184 279.582012 
L 180.716862 279.582012 
L 180.716862 279.265165 
L 182.812003 279.265165 
L 182.812003 278.948318 
L 185.361508 278.948318 
L 185.411033 278.314624 
L 186.234709 278.314624 
L 186.234709 277.997777 
L 186.500035 277.997777 
L 186.500035 277.68093 
L 188.20654 277.68093 
L 188.20654 277.364083 
L 189.060816 277.364083 
L 189.060816 277.047236 
L 189.523242 277.047236 
L 189.523242 276.73039 
L 191.195243 276.73039 
L 191.247972 276.096696 
L 193.148293 276.096696 
L 193.238059 275.463002 
L 194.531699 275.463002 
L 194.531699 275.146155 
L 195.154186 275.146155 
L 195.154186 274.829308 
L 195.534439 274.829308 
L 195.534439 274.512461 
L 196.302196 274.512461 
L 196.302196 274.195614 
L 196.725035 274.195614 
L 196.725035 273.878767 
L 197.275182 273.878767 
L 197.275182 273.56192 
L 197.498601 273.56192 
L 197.529692 272.928227 
L 198.322278 272.928227 
L 198.322278 272.61138 
L 198.532433 272.61138 
L 198.587604 271.977686 
L 199.723028 271.977686 
L 199.774726 271.343992 
L 200.273175 271.343992 
L 200.273175 271.027145 
L 200.574383 271.027145 
L 200.598403 270.393451 
L 200.863728 270.393451 
L 200.863728 270.076604 
L 201.148384 270.076604 
L 201.148384 269.759757 
L 201.610811 269.759757 
L 201.610811 269.44291 
L 202.295657 269.44291 
L 202.295657 269.126063 
L 203.298398 269.126063 
L 203.335541 268.49237 
L 203.424509 268.49237 
L 203.424509 268.175523 
L 203.572377 268.175523 
L 203.572377 267.858676 
L 203.886935 267.858676 
L 203.886935 267.541829 
L 204.167021 267.541829 
L 204.167021 267.224982 
L 204.488993 267.224982 
L 204.488993 266.908135 
L 205.03914 266.908135 
L 205.03914 266.591288 
L 205.325627 266.591288 
L 205.325627 266.274441 
L 205.611666 266.274441 
L 205.611666 265.957594 
L 206.262162 265.957594 
L 206.262162 265.640747 
L 206.609925 265.640747 
L 206.609925 265.3239 
L 206.948771 265.3239 
L 206.948771 265.007054 
L 207.165014 265.007054 
L 207.165014 264.690207 
L 207.433602 264.690207 
L 207.433602 264.37336 
L 207.601752 264.37336 
L 207.698928 263.739666 
L 208.338342 263.739666 
L 208.389765 263.105972 
L 209.260155 263.105972 
L 209.260155 262.789125 
L 209.793802 262.789125 
L 209.793802 262.472278 
L 210.259708 262.472278 
L 210.259708 262.155431 
L 210.66589 262.155431 
L 210.722135 261.521737 
L 210.845593 261.521737 
L 210.845593 261.204891 
L 211.930979 261.204891 
L 211.930979 260.888044 
L 212.446865 260.888044 
L 212.446865 260.571197 
L 212.782505 260.571197 
L 212.782505 260.25435 
L 213.315735 260.25435 
L 213.315735 259.937503 
L 213.690625 259.937503 
L 213.690625 259.620656 
L 214.02612 259.620656 
L 214.02612 259.303809 
L 214.318476 259.303809 
L 214.318476 258.986962 
L 214.436951 258.986962 
L 214.436951 258.670115 
L 214.676592 258.670115 
L 214.735555 258.036421 
L 215.509071 258.036421 
L 215.509071 257.719574 
L 215.679333 257.719574 
L 215.679333 257.402728 
L 216.059218 257.402728 
L 216.059218 257.085881 
L 216.679328 257.085881 
L 216.741448 256.452187 
L 216.869928 256.452187 
L 216.944934 255.818493 
L 217.337289 255.818493 
L 217.420075 255.184799 
L 217.501089 255.184799 
L 217.501089 254.867952 
L 217.76861 254.867952 
L 217.76861 254.551105 
L 218.033936 254.551105 
L 218.033936 254.234258 
L 218.507854 254.234258 
L 218.507854 253.917411 
L 218.632377 253.917411 
L 218.632377 253.600564 
L 218.986615 253.600564 
L 218.986615 253.283718 
L 219.331531 253.283718 
L 219.430217 252.333177 
L 219.596856 252.333177 
L 219.596856 252.01633 
L 219.989356 252.01633 
L 219.989356 251.699483 
L 220.182321 251.699483 
L 220.182321 251.382636 
L 220.594717 251.382636 
L 220.63827 250.748942 
L 220.719277 250.748942 
L 220.719277 250.432095 
L 220.870321 250.432095 
L 220.870321 250.115248 
L 221.057143 250.115248 
L 221.150431 249.164708 
L 221.179951 249.164708 
L 221.179951 248.847861 
L 221.350387 248.847861 
L 221.350387 248.531014 
L 221.730098 248.531014 
L 221.730098 248.214167 
L 221.999748 248.214167 
L 221.999748 247.89732 
L 222.157637 247.89732 
L 222.174064 247.263626 
L 222.439389 247.263626 
L 222.439389 246.946779 
L 222.620063 246.946779 
L 222.620063 246.629932 
L 222.736331 246.629932 
L 222.831415 245.679392 
L 222.951057 245.679392 
L 223.018614 245.045698 
L 223.171024 245.045698 
L 223.171024 244.728851 
L 223.46871 244.728851 
L 223.46871 244.412004 
L 223.715353 244.412004 
L 223.715353 244.095157 
L 224.021355 244.095157 
L 224.032026 243.461463 
L 224.18534 243.461463 
L 224.18534 243.144616 
L 224.311914 243.144616 
L 224.344794 242.510922 
L 224.77196 242.510922 
L 224.77196 242.194075 
L 225.00017 242.194075 
L 225.046198 241.243535 
L 225.124074 241.243535 
L 225.21195 240.609841 
L 225.462596 240.609841 
L 225.462596 240.292994 
L 225.762097 240.292994 
L 225.818932 239.6593 
L 226.097585 239.6593 
L 226.136741 239.025606 
L 226.313742 239.025606 
L 226.407055 238.075066 
L 226.528783 238.075066 
L 226.528783 237.758219 
L 226.688658 237.758219 
L 226.711209 236.807678 
L 226.960418 236.807678 
L 226.960418 236.490831 
L 227.129966 236.490831 
L 227.225743 234.906596 
L 227.279156 234.906596 
L 227.382248 234.272902 
L 227.489593 234.272902 
L 227.539146 233.639209 
L 227.836097 233.639209 
L 227.860547 232.688668 
L 228.134791 232.688668 
L 228.134791 232.371821 
L 228.258799 232.371821 
L 228.359319 231.738127 
L 228.38187 231.738127 
L 228.431423 230.470739 
L 228.593205 230.470739 
L 228.657106 229.520199 
L 228.863287 229.520199 
L 228.949817 228.569658 
L 228.99937 228.569658 
L 229.102462 227.30227 
L 229.125046 227.30227 
L 229.22013 226.35173 
L 229.258189 226.35173 
L 229.344992 225.084342 
L 229.373815 225.084342 
L 229.399018 224.450648 
L 229.601271 224.450648 
L 229.694719 223.816954 
L 229.786524 223.816954 
L 229.855006 222.549567 
L 229.951779 222.549567 
L 230.053883 220.648485 
L 230.089857 220.648485 
L 230.112408 220.014791 
L 230.24895 220.014791 
L 230.335109 218.747403 
L 230.420741 218.747403 
L 230.448006 218.11371 
L 230.574055 218.11371 
L 230.680355 216.529475 
L 230.688362 216.529475 
L 230.783447 214.94524 
L 230.929912 214.94524 
L 231.01771 213.9947 
L 231.065206 213.9947 
L 231.162736 213.044159 
L 231.238012 213.044159 
L 231.337849 211.143077 
L 231.440906 211.143077 
L 231.537008 209.558843 
L 231.778127 209.558843 
L 231.881037 208.608302 
L 231.899319 208.608302 
L 231.994403 207.024068 
L 232.034279 207.024068 
L 232.137371 206.390374 
L 232.241551 206.390374 
L 232.241551 206.073527 
L 232.362518 206.073527 
L 232.362518 205.75668 
L 232.4863 205.75668 
L 232.528445 205.122986 
L 232.651106 205.122986 
L 232.74619 203.221905 
L 232.889915 203.221905 
L 232.986003 202.271364 
L 233.008057 202.271364 
L 233.078591 201.003976 
L 233.132454 201.003976 
L 233.195014 200.370282 
L 233.261388 200.370282 
L 233.356026 199.419741 
L 233.378578 199.419741 
L 233.378578 199.102895 
L 233.551698 199.102895 
L 233.601251 197.835507 
L 233.686611 197.835507 
L 233.780376 196.884966 
L 233.903231 196.884966 
L 233.963767 195.617578 
L 234.049616 195.617578 
L 234.100115 194.350191 
L 234.315568 194.350191 
L 234.418908 193.082803 
L 234.450568 193.082803 
L 234.560215 192.132262 
L 234.604052 192.132262 
L 234.684119 191.181722 
L 234.723745 191.181722 
L 234.803115 189.28064 
L 234.852669 189.28064 
L 234.961107 188.013252 
L 235.187151 188.013252 
L 235.282235 187.062712 
L 235.31898 187.062712 
L 235.355254 186.429018 
L 235.458894 186.429018 
L 235.458894 186.112171 
L 235.619519 186.112171 
L 235.701986 184.527936 
L 235.772833 184.527936 
L 235.800104 183.894243 
L 235.989986 183.894243 
L 236.099972 182.310008 
L 236.12229 182.310008 
L 236.171843 181.676314 
L 236.284946 181.676314 
L 236.377793 180.092079 
L 236.438569 180.092079 
L 236.533653 178.507845 
L 236.63616 178.507845 
L 236.71988 177.874151 
L 236.763647 177.874151 
L 236.859713 176.92361 
L 236.882264 176.92361 
L 236.975712 175.339376 
L 237.02116 175.339376 
L 237.027905 174.705682 
L 237.244899 174.705682 
L 237.244899 174.388835 
L 237.357558 174.388835 
L 237.450211 173.121447 
L 237.495869 173.121447 
L 237.553302 171.85406 
L 237.626727 171.85406 
L 237.734264 169.319284 
L 237.757743 169.319284 
L 237.852827 167.73505 
L 237.871074 167.73505 
L 237.892585 166.784509 
L 238.051476 166.784509 
L 238.062462 166.150815 
L 238.181235 166.150815 
L 238.275032 165.200274 
L 238.305846 165.200274 
L 238.399294 164.56658 
L 238.44656 164.56658 
L 238.548405 163.299193 
L 238.669504 163.299193 
L 238.764259 162.031805 
L 238.788807 162.031805 
L 238.857707 161.398111 
L 239.053438 161.398111 
L 239.086951 160.764417 
L 239.167298 160.764417 
L 239.206752 159.813877 
L 239.406087 159.813877 
L 239.516046 157.912795 
L 239.59101 157.912795 
L 239.617315 156.962254 
L 239.720452 156.962254 
L 239.799823 156.328561 
L 239.942587 156.328561 
L 239.990975 155.37802 
L 240.2563 155.37802 
L 240.349642 154.427479 
L 240.401 154.427479 
L 240.498963 153.793785 
L 240.669335 153.793785 
L 240.741857 152.209551 
L 240.855096 152.209551 
L 240.917589 151.575857 
L 241.007341 151.575857 
L 241.020681 150.942163 
L 241.118997 150.942163 
L 241.188764 149.991622 
L 241.282212 149.991622 
L 241.361664 149.041082 
L 241.422142 149.041082 
L 241.501578 148.090541 
L 241.607402 148.090541 
L 241.689559 147.456847 
L 241.743969 147.456847 
L 241.773224 146.823153 
L 242.052091 146.823153 
L 242.145539 145.872612 
L 242.231638 145.872612 
L 242.239705 145.238918 
L 242.613695 145.238918 
L 242.636246 144.605225 
L 242.74775 144.605225 
L 242.825505 143.337837 
L 242.983425 143.337837 
L 242.983425 143.02099 
L 243.194498 143.02099 
L 243.303509 141.436755 
L 243.307285 141.436755 
L 243.396957 140.486215 
L 243.688832 140.486215 
L 243.704809 139.852521 
L 244.059829 139.852521 
L 244.059829 139.535674 
L 244.261972 139.535674 
L 244.261972 139.218827 
L 244.48628 139.218827 
L 244.518242 138.585133 
L 244.622683 138.585133 
L 244.716132 137.317746 
L 244.860879 137.317746 
L 244.954301 136.367205 
L 245.004238 136.367205 
L 245.094216 135.733511 
L 245.184584 135.733511 
L 245.270029 135.099817 
L 245.51947 135.099817 
L 245.538907 134.466123 
L 245.657858 134.466123 
L 245.657858 134.149276 
L 246.259424 134.149276 
L 246.364475 132.881889 
L 246.691517 132.881889 
L 246.770887 132.248195 
L 246.942747 132.248195 
L 247.049443 131.297654 
L 247.189357 131.297654 
L 247.189357 130.980807 
L 247.663751 130.980807 
L 247.663751 130.66396 
L 247.806074 130.66396 
L 247.907768 130.030266 
L 248.090062 130.030266 
L 248.090062 129.71342 
L 248.248722 129.71342 
L 248.248722 129.396573 
L 248.978121 129.396573 
L 249.057492 128.762879 
L 249.131544 128.762879 
L 249.131544 128.446032 
L 249.738405 128.446032 
L 249.738405 128.129185 
L 250.058462 128.129185 
L 250.058462 127.812338 
L 250.376666 127.812338 
L 250.376666 127.495491 
L 251.226686 127.495491 
L 251.226686 127.178644 
L 252.02501 127.178644 
L 252.02501 126.861797 
L 453.192 126.861797 
L 453.192 126.861797 
" style="fill:none;stroke:#ff0000;stroke-linecap:square;stroke-width:3;"/>
   </g>
   <g id="line2d_58">
    <path clip-path="url(#p3f1c6be943)" style="fill:none;stroke:#ff0000;stroke-linecap:square;stroke-width:3;"/>
   </g>
   <g id="line2d_59">
    <path clip-path="url(#p3f1c6be943)" d="M 243.676 291.28 
L 243.676 3 
" style="fill:none;stroke:#000000;stroke-linecap:square;stroke-width:1.5;"/>
   </g>
   <g id="line2d_60">
    <path clip-path="url(#p3f1c6be943)" d="M 34.16 147.14 
L 453.192 147.14 
" style="fill:none;stroke:#000000;stroke-dasharray:2,3.3;stroke-dashoffset:0;stroke-width:2;"/>
   </g>
   <g id="patch_3">
    <path d="M 34.16 291.28 
L 34.16 3 
" style="fill:none;stroke:#000000;stroke-linecap:square;stroke-linejoin:miter;stroke-width:0.8;"/>
   </g>
   <g id="patch_4">
    <path d="M 453.192 291.28 
L 453.192 3 
" style="fill:none;stroke:#000000;stroke-linecap:square;stroke-linejoin:miter;stroke-width:0.8;"/>
   </g>
   <g id="patch_5">
    <path d="M 34.16 291.28 
L 453.192 291.28 
" style="fill:none;stroke:#000000;stroke-linecap:square;stroke-linejoin:miter;stroke-width:0.8;"/>
   </g>
   <g id="patch_6">
    <path d="M 34.16 3 
L 453.192 3 
" style="fill:none;stroke:#000000;stroke-linecap:square;stroke-linejoin:miter;stroke-width:0.8;"/>
   </g>
   <g id="text_5">
    <!-- f24, f30, f36, f42,5-D -->
    <g transform="translate(235.014485 285.5144)scale(0.2 -0.2)">
     <defs>
      <path d="M 19.1875 8.296875 
L 53.609375 8.296875 
L 53.609375 0 
L 7.328125 0 
L 7.328125 8.296875 
Q 12.9375 14.109375 22.625 23.890625 
Q 32.328125 33.6875 34.8125 36.53125 
Q 39.546875 41.84375 41.421875 45.53125 
Q 43.3125 49.21875 43.3125 52.78125 
Q 43.3125 58.59375 39.234375 62.25 
Q 35.15625 65.921875 28.609375 65.921875 
Q 23.96875 65.921875 18.8125 64.3125 
Q 13.671875 62.703125 7.8125 59.421875 
L 7.8125 69.390625 
Q 13.765625 71.78125 18.9375 73 
Q 24.125 74.21875 28.421875 74.21875 
Q 39.75 74.21875 46.484375 68.546875 
Q 53.21875 62.890625 53.21875 53.421875 
Q 53.21875 48.921875 51.53125 44.890625 
Q 49.859375 40.875 45.40625 35.40625 
Q 44.1875 33.984375 37.640625 27.21875 
Q 31.109375 20.453125 19.1875 8.296875 
z
" id="DejaVuSans-50"/>
      <path d="M 37.796875 64.3125 
L 12.890625 25.390625 
L 37.796875 25.390625 
z
M 35.203125 72.90625 
L 47.609375 72.90625 
L 47.609375 25.390625 
L 58.015625 25.390625 
L 58.015625 17.1875 
L 47.609375 17.1875 
L 47.609375 0 
L 37.796875 0 
L 37.796875 17.1875 
L 4.890625 17.1875 
L 4.890625 26.703125 
z
" id="DejaVuSans-52"/>
      <path d="M 11.71875 12.40625 
L 22.015625 12.40625 
L 22.015625 4 
L 14.015625 -11.625 
L 7.71875 -11.625 
L 11.71875 4 
z
" id="DejaVuSans-44"/>
      <path d="M 40.578125 39.3125 
Q 47.65625 37.796875 51.625 33 
Q 55.609375 28.21875 55.609375 21.1875 
Q 55.609375 10.40625 48.1875 4.484375 
Q 40.765625 -1.421875 27.09375 -1.421875 
Q 22.515625 -1.421875 17.65625 -0.515625 
Q 12.796875 0.390625 7.625 2.203125 
L 7.625 11.71875 
Q 11.71875 9.328125 16.59375 8.109375 
Q 21.484375 6.890625 26.8125 6.890625 
Q 36.078125 6.890625 40.9375 10.546875 
Q 45.796875 14.203125 45.796875 21.1875 
Q 45.796875 27.640625 41.28125 31.265625 
Q 36.765625 34.90625 28.71875 34.90625 
L 20.21875 34.90625 
L 20.21875 43.015625 
L 29.109375 43.015625 
Q 36.375 43.015625 40.234375 45.921875 
Q 44.09375 48.828125 44.09375 54.296875 
Q 44.09375 59.90625 40.109375 62.90625 
Q 36.140625 65.921875 28.71875 65.921875 
Q 24.65625 65.921875 20.015625 65.03125 
Q 15.375 64.15625 9.8125 62.3125 
L 9.8125 71.09375 
Q 15.4375 72.65625 20.34375 73.4375 
Q 25.25 74.21875 29.59375 74.21875 
Q 40.828125 74.21875 47.359375 69.109375 
Q 53.90625 64.015625 53.90625 55.328125 
Q 53.90625 49.265625 50.4375 45.09375 
Q 46.96875 40.921875 40.578125 39.3125 
z
" id="DejaVuSans-51"/>
      <path d="M 33.015625 40.375 
Q 26.375 40.375 22.484375 35.828125 
Q 18.609375 31.296875 18.609375 23.390625 
Q 18.609375 15.53125 22.484375 10.953125 
Q 26.375 6.390625 33.015625 6.390625 
Q 39.65625 6.390625 43.53125 10.953125 
Q 47.40625 15.53125 47.40625 23.390625 
Q 47.40625 31.296875 43.53125 35.828125 
Q 39.65625 40.375 33.015625 40.375 
z
M 52.59375 71.296875 
L 52.59375 62.3125 
Q 48.875 64.0625 45.09375 64.984375 
Q 41.3125 65.921875 37.59375 65.921875 
Q 27.828125 65.921875 22.671875 59.328125 
Q 17.53125 52.734375 16.796875 39.40625 
Q 19.671875 43.65625 24.015625 45.921875 
Q 28.375 48.1875 33.59375 48.1875 
Q 44.578125 48.1875 50.953125 41.515625 
Q 57.328125 34.859375 57.328125 23.390625 
Q 57.328125 12.15625 50.6875 5.359375 
Q 44.046875 -1.421875 33.015625 -1.421875 
Q 20.359375 -1.421875 13.671875 8.265625 
Q 6.984375 17.96875 6.984375 36.375 
Q 6.984375 53.65625 15.1875 63.9375 
Q 23.390625 74.21875 37.203125 74.21875 
Q 40.921875 74.21875 44.703125 73.484375 
Q 48.484375 72.75 52.59375 71.296875 
z
" id="DejaVuSans-54"/>
      <path d="M 10.796875 72.90625 
L 49.515625 72.90625 
L 49.515625 64.59375 
L 19.828125 64.59375 
L 19.828125 46.734375 
Q 21.96875 47.46875 24.109375 47.828125 
Q 26.265625 48.1875 28.421875 48.1875 
Q 40.625 48.1875 47.75 41.5 
Q 54.890625 34.8125 54.890625 23.390625 
Q 54.890625 11.625 47.5625 5.09375 
Q 40.234375 -1.421875 26.90625 -1.421875 
Q 22.3125 -1.421875 17.546875 -0.640625 
Q 12.796875 0.140625 7.71875 1.703125 
L 7.71875 11.625 
Q 12.109375 9.234375 16.796875 8.0625 
Q 21.484375 6.890625 26.703125 6.890625 
Q 35.15625 6.890625 40.078125 11.328125 
Q 45.015625 15.765625 45.015625 23.390625 
Q 45.015625 31 40.078125 35.4375 
Q 35.15625 39.890625 26.703125 39.890625 
Q 22.75 39.890625 18.8125 39.015625 
Q 14.890625 38.140625 10.796875 36.28125 
z
" id="DejaVuSans-53"/>
      <path d="M 19.671875 64.796875 
L 19.671875 8.109375 
L 31.59375 8.109375 
Q 46.6875 8.109375 53.6875 14.9375 
Q 60.6875 21.78125 60.6875 36.53125 
Q 60.6875 51.171875 53.6875 57.984375 
Q 46.6875 64.796875 31.59375 64.796875 
z
M 9.8125 72.90625 
L 30.078125 72.90625 
Q 51.265625 72.90625 61.171875 64.09375 
Q 71.09375 55.28125 71.09375 36.53125 
Q 71.09375 17.671875 61.125 8.828125 
Q 51.171875 0 30.078125 0 
L 9.8125 0 
z
" id="DejaVuSans-68"/>
     </defs>
     <use xlink:href="#DejaVuSans-102"/>
     <use x="35.205078" xlink:href="#DejaVuSans-50"/>
     <use x="98.828125" xlink:href="#DejaVuSans-52"/>
     <use x="162.451172" xlink:href="#DejaVuSans-44"/>
     <use x="194.238281" xlink:href="#DejaVuSans-32"/>
     <use x="226.025391" xlink:href="#DejaVuSans-102"/>
     <use x="261.230469" xlink:href="#DejaVuSans-51"/>
     <use x="324.853516" xlink:href="#DejaVuSans-48"/>
     <use x="388.476562" xlink:href="#DejaVuSans-44"/>
     <use x="420.263672" xlink:href="#DejaVuSans-32"/>
     <use x="452.050781" xlink:href="#DejaVuSans-102"/>
     <use x="487.255859" xlink:href="#DejaVuSans-51"/>
     <use x="550.878906" xlink:href="#DejaVuSans-54"/>
     <use x="614.501953" xlink:href="#DejaVuSans-44"/>
     <use x="646.289062" xlink:href="#DejaVuSans-32"/>
     <use x="678.076172" xlink:href="#DejaVuSans-102"/>
     <use x="713.28125" xlink:href="#DejaVuSans-52"/>
     <use x="776.904297" xlink:href="#DejaVuSans-50"/>
     <use x="840.527344" xlink:href="#DejaVuSans-44"/>
     <use x="872.314453" xlink:href="#DejaVuSans-53"/>
     <use x="935.9375" xlink:href="#DejaVuSans-45"/>
     <use x="972.021484" xlink:href="#DejaVuSans-68"/>
    </g>
   </g>
   <g id="text_6">
    <!-- v2.6.1.9 -->
    <g style="fill:#808080;" transform="translate(223.224437 286.317512)scale(0.1 -0.1)">
     <defs>
      <path d="M 10.6875 12.40625 
L 21 12.40625 
L 21 0 
L 10.6875 0 
z
" id="DejaVuSans-46"/>
      <path d="M 10.984375 1.515625 
L 10.984375 10.5 
Q 14.703125 8.734375 18.5 7.8125 
Q 22.3125 6.890625 25.984375 6.890625 
Q 35.75 6.890625 40.890625 13.453125 
Q 46.046875 20.015625 46.78125 33.40625 
Q 43.953125 29.203125 39.59375 26.953125 
Q 35.25 24.703125 29.984375 24.703125 
Q 19.046875 24.703125 12.671875 31.3125 
Q 6.296875 37.9375 6.296875 49.421875 
Q 6.296875 60.640625 12.9375 67.421875 
Q 19.578125 74.21875 30.609375 74.21875 
Q 43.265625 74.21875 49.921875 64.515625 
Q 56.59375 54.828125 56.59375 36.375 
Q 56.59375 19.140625 48.40625 8.859375 
Q 40.234375 -1.421875 26.421875 -1.421875 
Q 22.703125 -1.421875 18.890625 -0.6875 
Q 15.09375 0.046875 10.984375 1.515625 
z
M 30.609375 32.421875 
Q 37.25 32.421875 41.125 36.953125 
Q 45.015625 41.5 45.015625 49.421875 
Q 45.015625 57.28125 41.125 61.84375 
Q 37.25 66.40625 30.609375 66.40625 
Q 23.96875 66.40625 20.09375 61.84375 
Q 16.21875 57.28125 16.21875 49.421875 
Q 16.21875 41.5 20.09375 36.953125 
Q 23.96875 32.421875 30.609375 32.421875 
z
" id="DejaVuSans-57"/>
     </defs>
     <use xlink:href="#DejaVuSans-118"/>
     <use x="59.179688" xlink:href="#DejaVuSans-50"/>
     <use x="122.802734" xlink:href="#DejaVuSans-46"/>
     <use x="154.589844" xlink:href="#DejaVuSans-54"/>
     <use x="218.212891" xlink:href="#DejaVuSans-46"/>
     <use x="250" xlink:href="#DejaVuSans-49"/>
     <use x="313.623047" xlink:href="#DejaVuSans-46"/>
     <use x="345.410156" xlink:href="#DejaVuSans-57"/>
    </g>
   </g>
   <g id="legend_1">
    <g id="patch_7">
     <path d="M 48.16 136.425 
L 177.381875 136.425 
Q 181.381875 136.425 181.381875 132.425 
L 181.381875 17 
Q 181.381875 13 177.381875 13 
L 48.16 13 
Q 44.16 13 44.16 17 
L 44.16 132.425 
Q 44.16 136.425 48.16 136.425 
z
" style="fill:#ffffff;opacity:0.2;stroke:#cccccc;stroke-linejoin:miter;"/>
    </g>
    <g id="line2d_61">
     <path d="M 52.16 29.196875 
L 92.16 29.196875 
" style="fill:none;stroke:#000000;stroke-linecap:square;stroke-width:3;"/>
    </g>
    <g id="line2d_62"/>
    <g id="text_7">
     <!-- 1: 4/4 -->
     <g transform="translate(108.16 36.196875)scale(0.2 -0.2)">
      <defs>
       <path d="M 11.71875 12.40625 
L 22.015625 12.40625 
L 22.015625 0 
L 11.71875 0 
z
M 11.71875 51.703125 
L 22.015625 51.703125 
L 22.015625 39.3125 
L 11.71875 39.3125 
z
" id="DejaVuSans-58"/>
       <path d="M 25.390625 72.90625 
L 33.6875 72.90625 
L 8.296875 -9.28125 
L 0 -9.28125 
z
" id="DejaVuSans-47"/>
      </defs>
      <use xlink:href="#DejaVuSans-49"/>
      <use x="63.623047" xlink:href="#DejaVuSans-58"/>
      <use x="97.314453" xlink:href="#DejaVuSans-32"/>
      <use x="129.101562" xlink:href="#DejaVuSans-52"/>
      <use x="192.724609" xlink:href="#DejaVuSans-47"/>
      <use x="226.416016" xlink:href="#DejaVuSans-52"/>
     </g>
    </g>
    <g id="line2d_63">
     <path d="M 52.16 58.553125 
L 92.16 58.553125 
" style="fill:none;stroke:#00bfbf;stroke-linecap:square;stroke-width:3;"/>
    </g>
    <g id="line2d_64"/>
    <g id="text_8">
     <!-- -1: 4/4 -->
     <g transform="translate(108.16 65.553125)scale(0.2 -0.2)">
      <use xlink:href="#DejaVuSans-45"/>
      <use x="36.083984" xlink:href="#DejaVuSans-49"/>
      <use x="99.707031" xlink:href="#DejaVuSans-58"/>
      <use x="133.398438" xlink:href="#DejaVuSans-32"/>
      <use x="165.185547" xlink:href="#DejaVuSans-52"/>
      <use x="228.808594" xlink:href="#DejaVuSans-47"/>
      <use x="262.5" xlink:href="#DejaVuSans-52"/>
     </g>
    </g>
    <g id="line2d_65">
     <path d="M 52.16 87.909375 
L 92.16 87.909375 
" style="fill:none;stroke:#bf00bf;stroke-linecap:square;stroke-width:3;"/>
    </g>
    <g id="line2d_66"/>
    <g id="text_9">
     <!-- -4: 4/4 -->
     <g transform="translate(108.16 94.909375)scale(0.2 -0.2)">
      <use xlink:href="#DejaVuSans-45"/>
      <use x="36.083984" xlink:href="#DejaVuSans-52"/>
      <use x="99.707031" xlink:href="#DejaVuSans-58"/>
      <use x="133.398438" xlink:href="#DejaVuSans-32"/>
      <use x="165.185547" xlink:href="#DejaVuSans-52"/>
      <use x="228.808594" xlink:href="#DejaVuSans-47"/>
      <use x="262.5" xlink:href="#DejaVuSans-52"/>
     </g>
    </g>
    <g id="line2d_67">
     <path d="M 52.16 117.265625 
L 92.16 117.265625 
" style="fill:none;stroke:#ff0000;stroke-linecap:square;stroke-width:3;"/>
    </g>
    <g id="line2d_68"/>
    <g id="text_10">
     <!-- -6: 4/4 -->
     <g transform="translate(108.16 124.265625)scale(0.2 -0.2)">
      <use xlink:href="#DejaVuSans-45"/>
      <use x="36.083984" xlink:href="#DejaVuSans-54"/>
      <use x="99.707031" xlink:href="#DejaVuSans-58"/>
      <use x="133.398438" xlink:href="#DejaVuSans-32"/>
      <use x="165.185547" xlink:href="#DejaVuSans-52"/>
      <use x="228.808594" xlink:href="#DejaVuSans-47"/>
      <use x="262.5" xlink:href="#DejaVuSans-52"/>
     </g>
    </g>
   </g>
  </g>
 </g>
 <defs>
  <clipPath id="p3f1c6be943">
   <rect height="288.28" width="419.032" x="34.16" y="3"/>
  </clipPath>
 </defs>
</svg>
