<?xml version="1.0" encoding="utf-8" standalone="no"?>
<!DOCTYPE svg PUBLIC "-//W3C//DTD SVG 1.1//EN"
  "http://www.w3.org/Graphics/SVG/1.1/DTD/svg11.dtd">
<!-- Created with matplotlib (https://matplotlib.org/) -->
<svg height="345.6pt" version="1.1" viewBox="0 0 460.8 345.6" width="460.8pt" xmlns="http://www.w3.org/2000/svg" xmlns:xlink="http://www.w3.org/1999/xlink">
 <metadata>
  <rdf:RDF xmlns:cc="http://creativecommons.org/ns#" xmlns:dc="http://purl.org/dc/elements/1.1/" xmlns:rdf="http://www.w3.org/1999/02/22-rdf-syntax-ns#">
   <cc:Work>
    <dc:type rdf:resource="http://purl.org/dc/dcmitype/StillImage"/>
    <dc:date>2022-04-26T20:50:03.730107</dc:date>
    <dc:format>image/svg+xml</dc:format>
    <dc:creator>
     <cc:Agent>
      <dc:title>Matplotlib v3.3.3, https://matplotlib.org/</dc:title>
     </cc:Agent>
    </dc:creator>
   </cc:Work>
  </rdf:RDF>
 </metadata>
 <defs>
  <style type="text/css">*{stroke-linecap:butt;stroke-linejoin:round;}</style>
 </defs>
 <g id="figure_1">
  <g id="patch_1">
   <path d="M 0 345.6 
L 460.8 345.6 
L 460.8 0 
L 0 0 
z
" style="fill:#ffffff;"/>
  </g>
  <g id="axes_1">
   <g id="patch_2">
    <path d="M 88.9824 291.28 
L 453.192 291.28 
L 453.192 3 
L 88.9824 3 
z
" style="fill:#ffffff;"/>
   </g>
   <g id="matplotlib.axis_1">
    <g id="xtick_1">
     <g id="line2d_1">
      <path clip-path="url(#pa1e033174d)" d="M 115.731214 291.28 
L 115.731214 3 
" style="fill:none;stroke:#b0b0b0;stroke-linecap:square;stroke-width:0.8;"/>
     </g>
     <g id="line2d_2">
      <defs>
       <path d="M 0 0 
L 0 3.5 
" id="mee0fc1b5b9" style="stroke:#000000;stroke-width:0.8;"/>
      </defs>
      <g>
       <use style="stroke:#000000;stroke-width:0.8;" x="115.731214" xlink:href="#mee0fc1b5b9" y="291.28"/>
      </g>
     </g>
     <g id="text_1">
      <!-- -1 -->
      <g transform="translate(105.760902 313.476875)scale(0.2 -0.2)">
       <defs>
        <path d="M 4.890625 31.390625 
L 31.203125 31.390625 
L 31.203125 23.390625 
L 4.890625 23.390625 
z
" id="DejaVuSans-45"/>
        <path d="M 12.40625 8.296875 
L 28.515625 8.296875 
L 28.515625 63.921875 
L 10.984375 60.40625 
L 10.984375 69.390625 
L 28.421875 72.90625 
L 38.28125 72.90625 
L 38.28125 8.296875 
L 54.390625 8.296875 
L 54.390625 0 
L 12.40625 0 
z
" id="DejaVuSans-49"/>
       </defs>
       <use xlink:href="#DejaVuSans-45"/>
       <use x="36.083984" xlink:href="#DejaVuSans-49"/>
      </g>
     </g>
    </g>
    <g id="xtick_2">
     <g id="line2d_3">
      <path clip-path="url(#pa1e033174d)" d="M 271.0872 291.28 
L 271.0872 3 
" style="fill:none;stroke:#b0b0b0;stroke-linecap:square;stroke-width:0.8;"/>
     </g>
     <g id="line2d_4">
      <g>
       <use style="stroke:#000000;stroke-width:0.8;" x="271.0872" xlink:href="#mee0fc1b5b9" y="291.28"/>
      </g>
     </g>
     <g id="text_2">
      <!-- 0 -->
      <g transform="translate(264.7247 313.476875)scale(0.2 -0.2)">
       <defs>
        <path d="M 31.78125 66.40625 
Q 24.171875 66.40625 20.328125 58.90625 
Q 16.5 51.421875 16.5 36.375 
Q 16.5 21.390625 20.328125 13.890625 
Q 24.171875 6.390625 31.78125 6.390625 
Q 39.453125 6.390625 43.28125 13.890625 
Q 47.125 21.390625 47.125 36.375 
Q 47.125 51.421875 43.28125 58.90625 
Q 39.453125 66.40625 31.78125 66.40625 
z
M 31.78125 74.21875 
Q 44.046875 74.21875 50.515625 64.515625 
Q 56.984375 54.828125 56.984375 36.375 
Q 56.984375 17.96875 50.515625 8.265625 
Q 44.046875 -1.421875 31.78125 -1.421875 
Q 19.53125 -1.421875 13.0625 8.265625 
Q 6.59375 17.96875 6.59375 36.375 
Q 6.59375 54.828125 13.0625 64.515625 
Q 19.53125 74.21875 31.78125 74.21875 
z
" id="DejaVuSans-48"/>
       </defs>
       <use xlink:href="#DejaVuSans-48"/>
      </g>
     </g>
    </g>
    <g id="xtick_3">
     <g id="line2d_5">
      <path clip-path="url(#pa1e033174d)" d="M 426.443186 291.28 
L 426.443186 3 
" style="fill:none;stroke:#b0b0b0;stroke-linecap:square;stroke-width:0.8;"/>
     </g>
     <g id="line2d_6">
      <g>
       <use style="stroke:#000000;stroke-width:0.8;" x="426.443186" xlink:href="#mee0fc1b5b9" y="291.28"/>
      </g>
     </g>
     <g id="text_3">
      <!-- 1 -->
      <g transform="translate(420.080686 313.476875)scale(0.2 -0.2)">
       <use xlink:href="#DejaVuSans-49"/>
      </g>
     </g>
    </g>
    <g id="xtick_4">
     <g id="line2d_7">
      <defs>
       <path d="M 0 0 
L 0 2 
" id="m683fcf25a4" style="stroke:#000000;stroke-width:0.6;"/>
      </defs>
      <g>
       <use style="stroke:#000000;stroke-width:0.6;" x="91.666268" xlink:href="#m683fcf25a4" y="291.28"/>
      </g>
     </g>
    </g>
    <g id="xtick_5">
     <g id="line2d_8">
      <g>
       <use style="stroke:#000000;stroke-width:0.6;" x="100.675664" xlink:href="#m683fcf25a4" y="291.28"/>
      </g>
     </g>
    </g>
    <g id="xtick_6">
     <g id="line2d_9">
      <g>
       <use style="stroke:#000000;stroke-width:0.6;" x="108.622514" xlink:href="#m683fcf25a4" y="291.28"/>
      </g>
     </g>
    </g>
    <g id="xtick_7">
     <g id="line2d_10">
      <g>
       <use style="stroke:#000000;stroke-width:0.6;" x="162.498026" xlink:href="#m683fcf25a4" y="291.28"/>
      </g>
     </g>
    </g>
    <g id="xtick_8">
     <g id="line2d_11">
      <g>
       <use style="stroke:#000000;stroke-width:0.6;" x="189.854857" xlink:href="#m683fcf25a4" y="291.28"/>
      </g>
     </g>
    </g>
    <g id="xtick_9">
     <g id="line2d_12">
      <g>
       <use style="stroke:#000000;stroke-width:0.6;" x="209.264838" xlink:href="#m683fcf25a4" y="291.28"/>
      </g>
     </g>
    </g>
    <g id="xtick_10">
     <g id="line2d_13">
      <g>
       <use style="stroke:#000000;stroke-width:0.6;" x="224.320388" xlink:href="#m683fcf25a4" y="291.28"/>
      </g>
     </g>
    </g>
    <g id="xtick_11">
     <g id="line2d_14">
      <g>
       <use style="stroke:#000000;stroke-width:0.6;" x="236.621669" xlink:href="#m683fcf25a4" y="291.28"/>
      </g>
     </g>
    </g>
    <g id="xtick_12">
     <g id="line2d_15">
      <g>
       <use style="stroke:#000000;stroke-width:0.6;" x="247.022253" xlink:href="#m683fcf25a4" y="291.28"/>
      </g>
     </g>
    </g>
    <g id="xtick_13">
     <g id="line2d_16">
      <g>
       <use style="stroke:#000000;stroke-width:0.6;" x="256.031649" xlink:href="#m683fcf25a4" y="291.28"/>
      </g>
     </g>
    </g>
    <g id="xtick_14">
     <g id="line2d_17">
      <g>
       <use style="stroke:#000000;stroke-width:0.6;" x="263.9785" xlink:href="#m683fcf25a4" y="291.28"/>
      </g>
     </g>
    </g>
    <g id="xtick_15">
     <g id="line2d_18">
      <g>
       <use style="stroke:#000000;stroke-width:0.6;" x="317.854012" xlink:href="#m683fcf25a4" y="291.28"/>
      </g>
     </g>
    </g>
    <g id="xtick_16">
     <g id="line2d_19">
      <g>
       <use style="stroke:#000000;stroke-width:0.6;" x="345.210843" xlink:href="#m683fcf25a4" y="291.28"/>
      </g>
     </g>
    </g>
    <g id="xtick_17">
     <g id="line2d_20">
      <g>
       <use style="stroke:#000000;stroke-width:0.6;" x="364.620823" xlink:href="#m683fcf25a4" y="291.28"/>
      </g>
     </g>
    </g>
    <g id="xtick_18">
     <g id="line2d_21">
      <g>
       <use style="stroke:#000000;stroke-width:0.6;" x="379.676374" xlink:href="#m683fcf25a4" y="291.28"/>
      </g>
     </g>
    </g>
    <g id="xtick_19">
     <g id="line2d_22">
      <g>
       <use style="stroke:#000000;stroke-width:0.6;" x="391.977654" xlink:href="#m683fcf25a4" y="291.28"/>
      </g>
     </g>
    </g>
    <g id="xtick_20">
     <g id="line2d_23">
      <g>
       <use style="stroke:#000000;stroke-width:0.6;" x="402.378239" xlink:href="#m683fcf25a4" y="291.28"/>
      </g>
     </g>
    </g>
    <g id="xtick_21">
     <g id="line2d_24">
      <g>
       <use style="stroke:#000000;stroke-width:0.6;" x="411.387635" xlink:href="#m683fcf25a4" y="291.28"/>
      </g>
     </g>
    </g>
    <g id="xtick_22">
     <g id="line2d_25">
      <g>
       <use style="stroke:#000000;stroke-width:0.6;" x="419.334486" xlink:href="#m683fcf25a4" y="291.28"/>
      </g>
     </g>
    </g>
    <g id="text_4">
     <!-- log10 of FEvals ratio -->
     <g transform="translate(168.782513 336.833125)scale(0.2 -0.2)">
      <defs>
       <path d="M 9.421875 75.984375 
L 18.40625 75.984375 
L 18.40625 0 
L 9.421875 0 
z
" id="DejaVuSans-108"/>
       <path d="M 30.609375 48.390625 
Q 23.390625 48.390625 19.1875 42.75 
Q 14.984375 37.109375 14.984375 27.296875 
Q 14.984375 17.484375 19.15625 11.84375 
Q 23.34375 6.203125 30.609375 6.203125 
Q 37.796875 6.203125 41.984375 11.859375 
Q 46.1875 17.53125 46.1875 27.296875 
Q 46.1875 37.015625 41.984375 42.703125 
Q 37.796875 48.390625 30.609375 48.390625 
z
M 30.609375 56 
Q 42.328125 56 49.015625 48.375 
Q 55.71875 40.765625 55.71875 27.296875 
Q 55.71875 13.875 49.015625 6.21875 
Q 42.328125 -1.421875 30.609375 -1.421875 
Q 18.84375 -1.421875 12.171875 6.21875 
Q 5.515625 13.875 5.515625 27.296875 
Q 5.515625 40.765625 12.171875 48.375 
Q 18.84375 56 30.609375 56 
z
" id="DejaVuSans-111"/>
       <path d="M 45.40625 27.984375 
Q 45.40625 37.75 41.375 43.109375 
Q 37.359375 48.484375 30.078125 48.484375 
Q 22.859375 48.484375 18.828125 43.109375 
Q 14.796875 37.75 14.796875 27.984375 
Q 14.796875 18.265625 18.828125 12.890625 
Q 22.859375 7.515625 30.078125 7.515625 
Q 37.359375 7.515625 41.375 12.890625 
Q 45.40625 18.265625 45.40625 27.984375 
z
M 54.390625 6.78125 
Q 54.390625 -7.171875 48.1875 -13.984375 
Q 42 -20.796875 29.203125 -20.796875 
Q 24.46875 -20.796875 20.265625 -20.09375 
Q 16.0625 -19.390625 12.109375 -17.921875 
L 12.109375 -9.1875 
Q 16.0625 -11.328125 19.921875 -12.34375 
Q 23.78125 -13.375 27.78125 -13.375 
Q 36.625 -13.375 41.015625 -8.765625 
Q 45.40625 -4.15625 45.40625 5.171875 
L 45.40625 9.625 
Q 42.625 4.78125 38.28125 2.390625 
Q 33.9375 0 27.875 0 
Q 17.828125 0 11.671875 7.65625 
Q 5.515625 15.328125 5.515625 27.984375 
Q 5.515625 40.671875 11.671875 48.328125 
Q 17.828125 56 27.875 56 
Q 33.9375 56 38.28125 53.609375 
Q 42.625 51.21875 45.40625 46.390625 
L 45.40625 54.6875 
L 54.390625 54.6875 
z
" id="DejaVuSans-103"/>
       <path id="DejaVuSans-32"/>
       <path d="M 37.109375 75.984375 
L 37.109375 68.5 
L 28.515625 68.5 
Q 23.6875 68.5 21.796875 66.546875 
Q 19.921875 64.59375 19.921875 59.515625 
L 19.921875 54.6875 
L 34.71875 54.6875 
L 34.71875 47.703125 
L 19.921875 47.703125 
L 19.921875 0 
L 10.890625 0 
L 10.890625 47.703125 
L 2.296875 47.703125 
L 2.296875 54.6875 
L 10.890625 54.6875 
L 10.890625 58.5 
Q 10.890625 67.625 15.140625 71.796875 
Q 19.390625 75.984375 28.609375 75.984375 
z
" id="DejaVuSans-102"/>
       <path d="M 9.8125 72.90625 
L 51.703125 72.90625 
L 51.703125 64.59375 
L 19.671875 64.59375 
L 19.671875 43.109375 
L 48.578125 43.109375 
L 48.578125 34.8125 
L 19.671875 34.8125 
L 19.671875 0 
L 9.8125 0 
z
" id="DejaVuSans-70"/>
       <path d="M 9.8125 72.90625 
L 55.90625 72.90625 
L 55.90625 64.59375 
L 19.671875 64.59375 
L 19.671875 43.015625 
L 54.390625 43.015625 
L 54.390625 34.71875 
L 19.671875 34.71875 
L 19.671875 8.296875 
L 56.78125 8.296875 
L 56.78125 0 
L 9.8125 0 
z
" id="DejaVuSans-69"/>
       <path d="M 2.984375 54.6875 
L 12.5 54.6875 
L 29.59375 8.796875 
L 46.6875 54.6875 
L 56.203125 54.6875 
L 35.6875 0 
L 23.484375 0 
z
" id="DejaVuSans-118"/>
       <path d="M 34.28125 27.484375 
Q 23.390625 27.484375 19.1875 25 
Q 14.984375 22.515625 14.984375 16.5 
Q 14.984375 11.71875 18.140625 8.90625 
Q 21.296875 6.109375 26.703125 6.109375 
Q 34.1875 6.109375 38.703125 11.40625 
Q 43.21875 16.703125 43.21875 25.484375 
L 43.21875 27.484375 
z
M 52.203125 31.203125 
L 52.203125 0 
L 43.21875 0 
L 43.21875 8.296875 
Q 40.140625 3.328125 35.546875 0.953125 
Q 30.953125 -1.421875 24.3125 -1.421875 
Q 15.921875 -1.421875 10.953125 3.296875 
Q 6 8.015625 6 15.921875 
Q 6 25.140625 12.171875 29.828125 
Q 18.359375 34.515625 30.609375 34.515625 
L 43.21875 34.515625 
L 43.21875 35.40625 
Q 43.21875 41.609375 39.140625 45 
Q 35.0625 48.390625 27.6875 48.390625 
Q 23 48.390625 18.546875 47.265625 
Q 14.109375 46.140625 10.015625 43.890625 
L 10.015625 52.203125 
Q 14.9375 54.109375 19.578125 55.046875 
Q 24.21875 56 28.609375 56 
Q 40.484375 56 46.34375 49.84375 
Q 52.203125 43.703125 52.203125 31.203125 
z
" id="DejaVuSans-97"/>
       <path d="M 44.28125 53.078125 
L 44.28125 44.578125 
Q 40.484375 46.53125 36.375 47.5 
Q 32.28125 48.484375 27.875 48.484375 
Q 21.1875 48.484375 17.84375 46.4375 
Q 14.5 44.390625 14.5 40.28125 
Q 14.5 37.15625 16.890625 35.375 
Q 19.28125 33.59375 26.515625 31.984375 
L 29.59375 31.296875 
Q 39.15625 29.25 43.1875 25.515625 
Q 47.21875 21.78125 47.21875 15.09375 
Q 47.21875 7.46875 41.1875 3.015625 
Q 35.15625 -1.421875 24.609375 -1.421875 
Q 20.21875 -1.421875 15.453125 -0.5625 
Q 10.6875 0.296875 5.421875 2 
L 5.421875 11.28125 
Q 10.40625 8.6875 15.234375 7.390625 
Q 20.0625 6.109375 24.8125 6.109375 
Q 31.15625 6.109375 34.5625 8.28125 
Q 37.984375 10.453125 37.984375 14.40625 
Q 37.984375 18.0625 35.515625 20.015625 
Q 33.0625 21.96875 24.703125 23.78125 
L 21.578125 24.515625 
Q 13.234375 26.265625 9.515625 29.90625 
Q 5.8125 33.546875 5.8125 39.890625 
Q 5.8125 47.609375 11.28125 51.796875 
Q 16.75 56 26.8125 56 
Q 31.78125 56 36.171875 55.265625 
Q 40.578125 54.546875 44.28125 53.078125 
z
" id="DejaVuSans-115"/>
       <path d="M 41.109375 46.296875 
Q 39.59375 47.171875 37.8125 47.578125 
Q 36.03125 48 33.890625 48 
Q 26.265625 48 22.1875 43.046875 
Q 18.109375 38.09375 18.109375 28.8125 
L 18.109375 0 
L 9.078125 0 
L 9.078125 54.6875 
L 18.109375 54.6875 
L 18.109375 46.1875 
Q 20.953125 51.171875 25.484375 53.578125 
Q 30.03125 56 36.53125 56 
Q 37.453125 56 38.578125 55.875 
Q 39.703125 55.765625 41.0625 55.515625 
z
" id="DejaVuSans-114"/>
       <path d="M 18.3125 70.21875 
L 18.3125 54.6875 
L 36.8125 54.6875 
L 36.8125 47.703125 
L 18.3125 47.703125 
L 18.3125 18.015625 
Q 18.3125 11.328125 20.140625 9.421875 
Q 21.96875 7.515625 27.59375 7.515625 
L 36.8125 7.515625 
L 36.8125 0 
L 27.59375 0 
Q 17.1875 0 13.234375 3.875 
Q 9.28125 7.765625 9.28125 18.015625 
L 9.28125 47.703125 
L 2.6875 47.703125 
L 2.6875 54.6875 
L 9.28125 54.6875 
L 9.28125 70.21875 
z
" id="DejaVuSans-116"/>
       <path d="M 9.421875 54.6875 
L 18.40625 54.6875 
L 18.40625 0 
L 9.421875 0 
z
M 9.421875 75.984375 
L 18.40625 75.984375 
L 18.40625 64.59375 
L 9.421875 64.59375 
z
" id="DejaVuSans-105"/>
      </defs>
      <use xlink:href="#DejaVuSans-108"/>
      <use x="27.783203" xlink:href="#DejaVuSans-111"/>
      <use x="88.964844" xlink:href="#DejaVuSans-103"/>
      <use x="152.441406" xlink:href="#DejaVuSans-49"/>
      <use x="216.064453" xlink:href="#DejaVuSans-48"/>
      <use x="279.6875" xlink:href="#DejaVuSans-32"/>
      <use x="311.474609" xlink:href="#DejaVuSans-111"/>
      <use x="372.65625" xlink:href="#DejaVuSans-102"/>
      <use x="407.861328" xlink:href="#DejaVuSans-32"/>
      <use x="439.648438" xlink:href="#DejaVuSans-70"/>
      <use x="497.167969" xlink:href="#DejaVuSans-69"/>
      <use x="560.351562" xlink:href="#DejaVuSans-118"/>
      <use x="619.53125" xlink:href="#DejaVuSans-97"/>
      <use x="680.810547" xlink:href="#DejaVuSans-108"/>
      <use x="708.59375" xlink:href="#DejaVuSans-115"/>
      <use x="760.693359" xlink:href="#DejaVuSans-32"/>
      <use x="792.480469" xlink:href="#DejaVuSans-114"/>
      <use x="833.59375" xlink:href="#DejaVuSans-97"/>
      <use x="894.873047" xlink:href="#DejaVuSans-116"/>
      <use x="934.082031" xlink:href="#DejaVuSans-105"/>
      <use x="961.865234" xlink:href="#DejaVuSans-111"/>
     </g>
    </g>
   </g>
   <g id="matplotlib.axis_2">
    <g id="ytick_1">
     <g id="line2d_26">
      <path clip-path="url(#pa1e033174d)" d="M 88.9824 288.453725 
L 453.192 288.453725 
" style="fill:none;stroke:#b0b0b0;stroke-linecap:square;stroke-width:0.8;"/>
     </g>
     <g id="line2d_27">
      <defs>
       <path d="M 0 0 
L -3.5 0 
" id="md19a9ce59e" style="stroke:#000000;stroke-width:0.8;"/>
      </defs>
      <g>
       <use style="stroke:#000000;stroke-width:0.8;" x="88.9824" xlink:href="#md19a9ce59e" y="288.453725"/>
      </g>
     </g>
    </g>
    <g id="ytick_2">
     <g id="line2d_28">
      <path clip-path="url(#pa1e033174d)" d="M 88.9824 217.796863 
L 453.192 217.796863 
" style="fill:none;stroke:#b0b0b0;stroke-linecap:square;stroke-width:0.8;"/>
     </g>
     <g id="line2d_29">
      <g>
       <use style="stroke:#000000;stroke-width:0.8;" x="88.9824" xlink:href="#md19a9ce59e" y="217.796863"/>
      </g>
     </g>
    </g>
    <g id="ytick_3">
     <g id="line2d_30">
      <path clip-path="url(#pa1e033174d)" d="M 88.9824 147.14 
L 453.192 147.14 
" style="fill:none;stroke:#b0b0b0;stroke-linecap:square;stroke-width:0.8;"/>
     </g>
     <g id="line2d_31">
      <g>
       <use style="stroke:#000000;stroke-width:0.8;" x="88.9824" xlink:href="#md19a9ce59e" y="147.14"/>
      </g>
     </g>
    </g>
    <g id="ytick_4">
     <g id="line2d_32">
      <path clip-path="url(#pa1e033174d)" d="M 88.9824 76.483137 
L 453.192 76.483137 
" style="fill:none;stroke:#b0b0b0;stroke-linecap:square;stroke-width:0.8;"/>
     </g>
     <g id="line2d_33">
      <g>
       <use style="stroke:#000000;stroke-width:0.8;" x="88.9824" xlink:href="#md19a9ce59e" y="76.483137"/>
      </g>
     </g>
    </g>
    <g id="ytick_5">
     <g id="line2d_34">
      <path clip-path="url(#pa1e033174d)" d="M 88.9824 5.826275 
L 453.192 5.826275 
" style="fill:none;stroke:#b0b0b0;stroke-linecap:square;stroke-width:0.8;"/>
     </g>
     <g id="line2d_35">
      <g>
       <use style="stroke:#000000;stroke-width:0.8;" x="88.9824" xlink:href="#md19a9ce59e" y="5.826275"/>
      </g>
     </g>
    </g>
    <g id="text_5">
     <!-- proportion of trials -->
     <g transform="translate(73.823025 240.14625)rotate(-90)scale(0.2 -0.2)">
      <defs>
       <path d="M 18.109375 8.203125 
L 18.109375 -20.796875 
L 9.078125 -20.796875 
L 9.078125 54.6875 
L 18.109375 54.6875 
L 18.109375 46.390625 
Q 20.953125 51.265625 25.265625 53.625 
Q 29.59375 56 35.59375 56 
Q 45.5625 56 51.78125 48.09375 
Q 58.015625 40.1875 58.015625 27.296875 
Q 58.015625 14.40625 51.78125 6.484375 
Q 45.5625 -1.421875 35.59375 -1.421875 
Q 29.59375 -1.421875 25.265625 0.953125 
Q 20.953125 3.328125 18.109375 8.203125 
z
M 48.6875 27.296875 
Q 48.6875 37.203125 44.609375 42.84375 
Q 40.53125 48.484375 33.40625 48.484375 
Q 26.265625 48.484375 22.1875 42.84375 
Q 18.109375 37.203125 18.109375 27.296875 
Q 18.109375 17.390625 22.1875 11.75 
Q 26.265625 6.109375 33.40625 6.109375 
Q 40.53125 6.109375 44.609375 11.75 
Q 48.6875 17.390625 48.6875 27.296875 
z
" id="DejaVuSans-112"/>
       <path d="M 54.890625 33.015625 
L 54.890625 0 
L 45.90625 0 
L 45.90625 32.71875 
Q 45.90625 40.484375 42.875 44.328125 
Q 39.84375 48.1875 33.796875 48.1875 
Q 26.515625 48.1875 22.3125 43.546875 
Q 18.109375 38.921875 18.109375 30.90625 
L 18.109375 0 
L 9.078125 0 
L 9.078125 54.6875 
L 18.109375 54.6875 
L 18.109375 46.1875 
Q 21.34375 51.125 25.703125 53.5625 
Q 30.078125 56 35.796875 56 
Q 45.21875 56 50.046875 50.171875 
Q 54.890625 44.34375 54.890625 33.015625 
z
" id="DejaVuSans-110"/>
      </defs>
      <use xlink:href="#DejaVuSans-112"/>
      <use x="63.476562" xlink:href="#DejaVuSans-114"/>
      <use x="102.339844" xlink:href="#DejaVuSans-111"/>
      <use x="163.521484" xlink:href="#DejaVuSans-112"/>
      <use x="226.998047" xlink:href="#DejaVuSans-111"/>
      <use x="288.179688" xlink:href="#DejaVuSans-114"/>
      <use x="329.292969" xlink:href="#DejaVuSans-116"/>
      <use x="368.501953" xlink:href="#DejaVuSans-105"/>
      <use x="396.285156" xlink:href="#DejaVuSans-111"/>
      <use x="457.466797" xlink:href="#DejaVuSans-110"/>
      <use x="520.845703" xlink:href="#DejaVuSans-32"/>
      <use x="552.632812" xlink:href="#DejaVuSans-111"/>
      <use x="613.814453" xlink:href="#DejaVuSans-102"/>
      <use x="649.019531" xlink:href="#DejaVuSans-32"/>
      <use x="680.806641" xlink:href="#DejaVuSans-116"/>
      <use x="720.015625" xlink:href="#DejaVuSans-114"/>
      <use x="761.128906" xlink:href="#DejaVuSans-105"/>
      <use x="788.912109" xlink:href="#DejaVuSans-97"/>
      <use x="850.191406" xlink:href="#DejaVuSans-108"/>
      <use x="877.974609" xlink:href="#DejaVuSans-115"/>
     </g>
    </g>
   </g>
   <g id="line2d_36">
    <path clip-path="url(#pa1e033174d)" d="M 88.9824 288.453725 
L 99.729369 288.453725 
L 99.729369 288.218203 
L 106.214355 288.218203 
L 106.298551 287.747157 
L 112.7811 287.747157 
L 112.783537 287.276111 
L 117.874708 287.276111 
L 117.874708 287.040588 
L 118.362624 287.040588 
L 118.362624 286.805065 
L 119.350282 286.805065 
L 119.350282 286.569542 
L 119.598727 286.569542 
L 119.598727 286.33402 
L 121.174291 286.33402 
L 121.191886 285.862974 
L 122.489933 285.862974 
L 122.489933 285.627451 
L 123.065979 285.627451 
L 123.065979 285.391928 
L 124.09289 285.391928 
L 124.09289 285.156405 
L 124.443889 285.156405 
L 124.443889 284.920882 
L 124.931806 284.920882 
L 125.006257 284.449837 
L 126.167909 284.449837 
L 126.167909 284.214314 
L 127.743473 284.214314 
L 127.761067 283.743268 
L 129.059115 283.743268 
L 129.059115 283.507745 
L 129.550966 283.507745 
L 129.550966 283.272222 
L 130.570715 283.272222 
L 130.662072 282.801176 
L 131.491243 282.801176 
L 131.491243 282.565654 
L 132.050637 282.565654 
L 132.050637 282.330131 
L 135.451825 282.330131 
L 135.451825 282.094608 
L 136.117711 282.094608 
L 136.117711 281.859085 
L 136.670954 281.859085 
L 136.670954 281.623562 
L 137.387071 281.623562 
L 137.387071 281.388039 
L 138.057988 281.388039 
L 138.057988 281.152516 
L 138.535623 281.152516 
L 138.535623 280.916993 
L 138.759963 280.916993 
L 138.759963 280.681471 
L 139.473653 280.681471 
L 139.473653 280.445948 
L 141.211318 280.445948 
L 141.211318 280.210425 
L 141.699235 280.210425 
L 141.699235 279.974902 
L 141.915553 279.974902 
L 141.936811 279.503856 
L 142.935338 279.503856 
L 142.935338 279.268333 
L 143.151596 279.268333 
L 143.240136 278.797288 
L 143.639512 278.797288 
L 143.639512 278.561765 
L 143.872057 278.561765 
L 143.872057 278.326242 
L 144.510902 278.326242 
L 144.528496 277.855196 
L 144.875615 277.855196 
L 144.875615 277.619673 
L 145.102368 277.619673 
L 145.102368 277.38415 
L 145.826544 277.38415 
L 145.826544 277.148627 
L 146.451179 277.148627 
L 146.468774 276.677582 
L 147.138725 276.677582 
L 147.138725 276.442059 
L 147.429501 276.442059 
L 147.429501 276.206536 
L 147.766821 276.206536 
L 147.766821 275.971013 
L 148.142687 275.971013 
L 148.249355 275.499967 
L 148.400539 275.499967 
L 148.503557 274.793399 
L 149.369778 274.793399 
L 149.369778 274.557876 
L 149.773769 274.557876 
L 149.773769 274.322353 
L 150.195976 274.322353 
L 150.195976 274.08683 
L 150.438803 274.08683 
L 150.438803 273.851307 
L 150.683892 273.851307 
L 150.683892 273.615784 
L 151.593395 273.615784 
L 151.593395 273.380261 
L 151.919995 273.380261 
L 151.919995 273.144739 
L 152.868327 273.144739 
L 152.868327 272.909216 
L 153.203194 272.909216 
L 153.206633 272.43817 
L 153.495559 272.43817 
L 153.597164 271.731601 
L 153.623711 271.731601 
L 153.623711 271.496078 
L 154.08508 271.496078 
L 154.08508 271.260556 
L 154.289039 271.260556 
L 154.289039 271.025033 
L 154.677769 271.025033 
L 154.734342 270.553987 
L 154.811201 270.553987 
L 154.9078 269.847418 
L 154.967285 269.847418 
L 154.967285 269.611895 
L 155.24627 269.611895 
L 155.321183 269.14085 
L 155.384186 269.14085 
L 155.384186 268.905327 
L 155.53241 268.905327 
L 155.53241 268.669804 
L 156.020326 268.669804 
L 156.020326 268.434281 
L 156.140556 268.434281 
L 156.140556 268.198758 
L 156.331935 268.198758 
L 156.414158 267.727712 
L 156.896747 267.727712 
L 156.914342 267.256667 
L 157.045624 267.256667 
L 157.045624 267.021144 
L 157.256429 267.021144 
L 157.358269 266.550098 
L 157.475802 266.550098 
L 157.475802 266.314575 
L 158.212389 266.314575 
L 158.212389 266.079052 
L 158.831994 266.079052 
L 158.849588 265.608007 
L 159.772376 265.608007 
L 159.815347 265.136961 
L 160.007565 265.136961 
L 160.060892 264.665915 
L 160.147635 264.665915 
L 160.190456 264.194869 
L 160.548808 264.194869 
L 160.548808 263.959346 
L 160.858221 263.959346 
L 160.858221 263.723824 
L 161.301087 263.723824 
L 161.30281 263.252778 
L 161.750593 263.252778 
L 161.815451 262.546209 
L 161.947842 262.546209 
L 161.953368 262.075163 
L 162.625542 262.075163 
L 162.625542 261.839641 
L 163.097047 261.839641 
L 163.097047 261.604118 
L 163.326814 261.604118 
L 163.37807 260.897549 
L 163.738482 260.897549 
L 163.810737 260.426503 
L 164.676117 260.426503 
L 164.676117 260.19098 
L 165.284064 260.19098 
L 165.284064 259.955458 
L 165.77198 259.955458 
L 165.87733 259.484412 
L 165.995066 259.484412 
L 165.995066 259.248889 
L 166.279075 259.248889 
L 166.279075 259.013366 
L 166.394694 259.013366 
L 166.394694 258.777843 
L 166.756608 258.777843 
L 166.756608 258.54232 
L 166.882611 258.54232 
L 166.882611 258.306797 
L 167.008083 258.306797 
L 167.008083 258.071275 
L 167.34574 258.071275 
L 167.34574 257.835752 
L 167.869555 257.835752 
L 167.869555 257.600229 
L 168.118714 257.600229 
L 168.118714 257.364706 
L 168.473753 257.364706 
L 168.583647 256.89366 
L 168.601242 256.89366 
L 168.601242 256.658137 
L 168.992222 256.658137 
L 169.034026 256.187092 
L 169.165367 256.187092 
L 169.192287 255.716046 
L 169.694278 255.716046 
L 169.711872 255.245 
L 169.899289 255.245 
L 169.899289 255.009477 
L 170.075023 255.009477 
L 170.075023 254.773954 
L 170.440299 254.773954 
L 170.440299 254.538431 
L 170.652429 254.538431 
L 170.652429 254.302908 
L 170.778604 254.302908 
L 170.778604 254.067386 
L 171.00992 254.067386 
L 171.00992 253.831863 
L 171.502246 253.831863 
L 171.502246 253.59634 
L 171.92773 253.59634 
L 171.92773 253.360817 
L 172.249741 253.360817 
L 172.249741 253.125294 
L 172.393411 253.125294 
L 172.393411 252.889771 
L 172.612877 252.889771 
L 172.641419 252.418725 
L 172.760178 252.418725 
L 172.760178 252.183203 
L 172.961218 252.183203 
L 172.963163 251.712157 
L 173.142071 251.712157 
L 173.142071 251.476634 
L 173.451079 251.476634 
L 173.451079 251.241111 
L 174.066578 251.241111 
L 174.110853 250.770065 
L 174.285895 250.770065 
L 174.328657 250.29902 
L 174.687182 250.29902 
L 174.780268 249.356928 
L 174.930241 249.356928 
L 174.958739 248.650359 
L 175.047774 248.650359 
L 175.047774 248.414837 
L 175.659545 248.414837 
L 175.659545 248.179314 
L 175.930479 248.179314 
L 176.009914 247.708268 
L 176.262746 247.708268 
L 176.280341 247.237222 
L 176.539805 247.237222 
L 176.539805 247.001699 
L 177.040811 247.001699 
L 177.040811 246.766176 
L 177.205411 246.766176 
L 177.223274 246.295131 
L 177.543717 246.295131 
L 177.62565 245.117516 
L 177.936963 245.117516 
L 177.936963 244.881993 
L 178.151254 244.881993 
L 178.151254 244.646471 
L 178.480082 244.646471 
L 178.58288 244.175425 
L 178.720797 244.175425 
L 178.720797 243.939902 
L 178.841676 243.939902 
L 178.90112 243.233333 
L 179.014853 243.233333 
L 179.026635 242.762288 
L 179.181345 242.762288 
L 179.181345 242.526765 
L 179.555366 242.526765 
L 179.565927 242.055719 
L 180.504077 242.055719 
L 180.523158 241.584673 
L 180.661074 241.584673 
L 180.661074 241.34915 
L 180.898786 241.34915 
L 180.898786 241.113627 
L 181.150466 241.113627 
L 181.248518 240.642582 
L 181.331319 240.642582 
L 181.331319 240.407059 
L 181.525485 240.407059 
L 181.590861 239.936013 
L 181.695353 239.936013 
L 181.695353 239.70049 
L 181.812886 239.70049 
L 181.864155 239.229444 
L 182.045009 239.229444 
L 182.045009 238.993922 
L 182.941535 238.993922 
L 182.941535 238.758399 
L 183.729709 238.758399 
L 183.729709 238.522876 
L 184.08031 238.522876 
L 184.08031 238.287353 
L 184.608986 238.287353 
L 184.608986 238.05183 
L 184.761162 238.05183 
L 184.761162 237.816307 
L 184.88194 237.816307 
L 184.88194 237.580784 
L 185.080384 237.580784 
L 185.190941 237.109739 
L 185.524462 237.109739 
L 185.524462 236.874216 
L 185.856325 236.874216 
L 185.959661 236.40317 
L 186.036093 236.40317 
L 186.036093 236.167647 
L 186.280736 236.167647 
L 186.374399 235.696601 
L 186.43244 235.696601 
L 186.43244 235.461078 
L 186.610307 235.461078 
L 186.619092 234.990033 
L 186.886405 234.990033 
L 186.90001 234.518987 
L 187.107008 234.518987 
L 187.107008 234.283464 
L 187.277485 234.283464 
L 187.277485 234.047941 
L 187.442284 234.047941 
L 187.446438 233.576895 
L 187.567538 233.576895 
L 187.663898 233.10585 
L 187.705454 233.10585 
L 187.779287 232.634804 
L 187.845535 232.634804 
L 187.845535 232.399281 
L 188.174942 232.399281 
L 188.237079 231.928235 
L 188.343111 231.928235 
L 188.343111 231.692712 
L 188.468749 231.692712 
L 188.513248 230.986144 
L 188.92565 230.986144 
L 188.92565 230.750621 
L 189.054219 230.750621 
L 189.054219 230.515098 
L 189.392525 230.515098 
L 189.392525 230.279575 
L 189.855482 230.279575 
L 189.93627 229.573007 
L 189.984384 229.573007 
L 190.056706 228.866438 
L 190.310857 228.866438 
L 190.310857 228.630915 
L 190.526035 228.630915 
L 190.526035 228.395392 
L 190.643568 228.395392 
L 190.643568 228.159869 
L 190.813597 228.159869 
L 190.889685 227.217778 
L 190.968726 227.217778 
L 190.99445 226.746732 
L 191.106642 226.746732 
L 191.106642 226.511209 
L 191.234317 226.511209 
L 191.331637 226.040163 
L 191.366926 226.040163 
L 191.366926 225.804641 
L 191.669943 225.804641 
L 191.759409 225.098072 
L 191.946742 225.098072 
L 191.962653 224.627026 
L 192.164271 224.627026 
L 192.164271 224.391503 
L 192.345125 224.391503 
L 192.35182 223.920458 
L 192.502744 223.920458 
L 192.502744 223.684935 
L 192.664884 223.684935 
L 192.664884 223.449412 
L 192.782417 223.449412 
L 192.837275 222.978366 
L 192.903972 222.978366 
L 192.95004 222.271797 
L 193.041889 222.271797 
L 193.141079 221.565229 
L 193.288346 221.565229 
L 193.288346 221.329706 
L 193.544161 221.329706 
L 193.544161 221.094183 
L 193.661694 221.094183 
L 193.661694 220.85866 
L 193.983898 220.85866 
L 194.010878 220.387614 
L 194.164751 220.387614 
L 194.164751 220.152092 
L 194.759482 220.152092 
L 194.759482 219.916569 
L 195.25883 219.916569 
L 195.25883 219.681046 
L 195.389378 219.681046 
L 195.481085 218.738954 
L 195.597135 218.738954 
L 195.597135 218.503431 
L 195.777989 218.503431 
L 195.821579 218.032386 
L 195.939112 218.032386 
L 195.939112 217.796863 
L 196.180422 217.796863 
L 196.180422 217.56134 
L 196.475224 217.56134 
L 196.494581 217.090294 
L 197.068272 217.090294 
L 197.068272 216.854771 
L 197.193725 216.854771 
L 197.249125 216.383725 
L 197.432454 216.383725 
L 197.439982 215.91268 
L 197.557515 215.91268 
L 197.57037 215.441634 
L 197.933671 215.441634 
L 197.933671 215.206111 
L 198.633429 215.206111 
L 198.711466 214.735065 
L 198.900781 214.735065 
L 198.92844 214.26402 
L 199.078933 214.26402 
L 199.116932 213.792974 
L 199.468531 213.792974 
L 199.512706 213.321928 
L 199.748772 213.321928 
L 199.792622 212.850882 
L 199.866305 212.850882 
L 199.929625 211.673268 
L 200.038884 211.673268 
L 200.047158 211.202222 
L 200.578974 211.202222 
L 200.66065 210.495654 
L 200.823393 210.495654 
L 200.914265 210.024608 
L 200.965036 210.024608 
L 201.015048 209.553562 
L 201.208314 209.553562 
L 201.208314 209.318039 
L 201.454355 209.318039 
L 201.454355 209.082516 
L 201.698395 209.082516 
L 201.790125 208.375948 
L 201.890429 208.375948 
L 201.890429 208.140425 
L 202.02955 208.140425 
L 202.02955 207.904902 
L 202.446872 207.904902 
L 202.446872 207.669379 
L 202.655626 207.669379 
L 202.655626 207.433856 
L 202.769689 207.433856 
L 202.809026 206.727288 
L 203.027278 206.727288 
L 203.136148 206.256242 
L 203.355004 206.256242 
L 203.408527 205.785196 
L 203.515195 205.785196 
L 203.557316 205.31415 
L 203.676239 205.31415 
L 203.766256 204.843105 
L 203.904173 204.843105 
L 203.904173 204.607582 
L 204.112312 204.607582 
L 204.112312 204.372059 
L 204.40699 204.372059 
L 204.432696 203.901013 
L 204.751298 203.901013 
L 204.751298 203.66549 
L 205.01841 203.66549 
L 205.01841 203.429967 
L 205.129863 203.429967 
L 205.129863 203.194444 
L 205.35191 203.194444 
L 205.415339 202.723399 
L 205.717317 202.723399 
L 205.717317 202.487876 
L 205.89817 202.487876 
L 205.89817 202.252353 
L 206.326862 202.252353 
L 206.371839 201.545784 
L 206.480538 201.545784 
L 206.529281 201.074739 
L 206.65458 201.074739 
L 206.65458 200.839216 
L 206.900714 200.839216 
L 206.900714 200.603693 
L 207.090029 200.603693 
L 207.090029 200.36817 
L 207.614404 200.36817 
L 207.642504 199.897124 
L 207.743955 199.897124 
L 207.803719 199.426078 
L 207.930823 199.426078 
L 207.947615 198.955033 
L 208.091181 198.955033 
L 208.168366 198.483987 
L 208.284046 198.483987 
L 208.32007 197.541895 
L 208.514536 197.541895 
L 208.514536 197.306373 
L 208.649469 197.306373 
L 208.742064 196.364281 
L 208.860161 196.364281 
L 208.860161 196.128758 
L 209.041266 196.128758 
L 209.14453 195.657712 
L 209.245461 195.657712 
L 209.329914 194.951144 
L 209.377494 194.951144 
L 209.377494 194.715621 
L 209.575096 194.715621 
L 209.614381 194.244575 
L 209.735477 194.244575 
L 209.735477 194.009052 
L 209.870004 194.009052 
L 209.916647 193.302484 
L 210.086463 193.302484 
L 210.092738 192.831438 
L 210.306078 192.831438 
L 210.356378 192.124869 
L 210.472641 192.124869 
L 210.472641 191.889346 
L 210.587978 191.889346 
L 210.587978 191.653824 
L 210.700226 191.653824 
L 210.799561 191.182778 
L 210.84592 191.182778 
L 210.896469 190.711732 
L 210.96574 190.711732 
L 210.96574 190.476209 
L 211.262387 190.476209 
L 211.332542 190.005163 
L 211.384538 190.005163 
L 211.384538 189.769641 
L 211.558107 189.769641 
L 211.657457 189.298595 
L 211.686798 189.298595 
L 211.795373 188.356503 
L 211.838502 188.356503 
L 211.912365 187.885458 
L 212.138531 187.885458 
L 212.138531 187.649935 
L 212.848345 187.649935 
L 212.848345 187.414412 
L 213.187296 187.414412 
L 213.243159 186.943366 
L 213.337626 186.943366 
L 213.407459 186.47232 
L 213.525602 186.47232 
L 213.525602 186.236797 
L 213.697206 186.236797 
L 213.697206 186.001275 
L 213.87481 186.001275 
L 213.943184 185.530229 
L 214.065038 185.530229 
L 214.065038 185.294706 
L 214.182571 185.294706 
L 214.182571 185.059183 
L 214.44807 185.059183 
L 214.44807 184.82366 
L 214.861561 184.82366 
L 214.861561 184.588137 
L 214.996738 184.588137 
L 215.081281 184.117092 
L 215.304447 184.117092 
L 215.32345 183.646046 
L 215.851999 183.646046 
L 215.898508 183.175 
L 216.249367 183.175 
L 216.249367 182.939477 
L 216.438599 182.939477 
L 216.438599 182.703954 
L 216.563845 182.703954 
L 216.563845 182.468431 
L 216.746338 182.468431 
L 216.838716 181.52634 
L 216.874672 181.52634 
L 216.874672 181.290817 
L 217.170351 181.290817 
L 217.170749 180.819771 
L 217.322453 180.819771 
L 217.426737 179.87768 
L 217.470845 179.87768 
L 217.567381 178.700065 
L 217.677238 178.700065 
L 217.677238 178.464542 
L 217.794771 178.464542 
L 217.794771 178.22902 
L 217.914519 178.22902 
L 217.914519 177.993497 
L 218.103835 177.993497 
L 218.103835 177.757974 
L 218.332296 177.757974 
L 218.332296 177.522451 
L 218.550991 177.522451 
L 218.550991 177.286928 
L 218.975402 177.286928 
L 218.975402 177.051405 
L 219.127106 177.051405 
L 219.127106 176.815882 
L 219.358761 176.815882 
L 219.41694 176.344837 
L 219.734146 176.344837 
L 219.734146 176.109314 
L 219.923461 176.109314 
L 220.033583 175.638268 
L 220.13695 175.638268 
L 220.179224 174.931699 
L 220.373246 174.931699 
L 220.373246 174.696176 
L 220.614205 174.696176 
L 220.662805 174.225131 
L 220.895693 174.225131 
L 220.937771 173.518562 
L 221.009078 173.518562 
L 221.009078 173.283039 
L 221.163415 173.283039 
L 221.198393 172.811993 
L 221.347383 172.811993 
L 221.347383 172.576471 
L 221.483689 172.576471 
L 221.536699 172.105425 
L 221.795382 172.105425 
L 221.898908 171.398856 
L 221.947578 171.398856 
L 221.947578 171.163333 
L 222.153141 171.163333 
L 222.153141 170.92781 
L 222.311384 170.92781 
L 222.35907 170.221242 
L 222.577552 170.221242 
L 222.577552 169.985719 
L 222.711023 169.985719 
L 222.81852 168.808105 
L 223.007835 168.808105 
L 223.033424 168.337059 
L 223.251114 168.337059 
L 223.251114 168.101536 
L 223.474472 168.101536 
L 223.492066 167.63049 
L 223.63233 167.63049 
L 223.739099 166.688399 
L 223.788001 166.688399 
L 223.788001 166.452876 
L 223.990654 166.452876 
L 223.990654 166.217353 
L 224.12857 166.217353 
L 224.12857 165.98183 
L 224.298621 165.98183 
L 224.387277 165.510784 
L 224.580954 165.510784 
L 224.68411 165.039739 
L 224.765564 165.039739 
L 224.790114 164.568693 
L 224.900891 164.568693 
L 224.900891 164.33317 
L 225.242634 164.33317 
L 225.313814 163.862124 
L 225.409065 163.862124 
L 225.49902 163.391078 
L 225.616553 163.391078 
L 225.688335 162.68451 
L 225.782725 162.68451 
L 225.805868 162.213464 
L 225.909749 162.213464 
L 225.909749 161.977941 
L 226.218798 161.977941 
L 226.284445 161.271373 
L 226.393071 161.271373 
L 226.501847 160.800327 
L 226.705544 160.800327 
L 226.806401 160.093758 
L 227.528151 160.093758 
L 227.528151 159.858235 
L 227.658896 159.858235 
L 227.658896 159.622712 
L 227.852522 159.622712 
L 227.852522 159.38719 
L 227.972723 159.38719 
L 227.972723 159.151667 
L 228.115506 159.151667 
L 228.115506 158.916144 
L 228.429209 158.916144 
L 228.506329 158.209575 
L 228.761066 158.209575 
L 228.761066 157.974052 
L 229.188761 157.974052 
L 229.194251 157.503007 
L 229.613172 157.503007 
L 229.672148 157.031961 
L 229.764876 157.031961 
L 229.836941 156.560915 
L 230.017794 156.560915 
L 230.017794 156.325392 
L 230.192948 156.325392 
L 230.192948 156.089869 
L 230.307694 156.089869 
L 230.307694 155.854346 
L 230.753789 155.854346 
L 230.797765 155.147778 
L 230.94708 155.147778 
L 230.94708 154.912255 
L 231.270144 154.912255 
L 231.285386 154.441209 
L 231.467565 154.441209 
L 231.486617 153.970163 
L 231.65688 153.970163 
L 231.713406 153.499118 
L 231.79315 153.499118 
L 231.90263 152.321503 
L 232.375383 152.321503 
L 232.457597 151.850458 
L 232.602419 151.850458 
L 232.661177 151.379412 
L 232.739613 151.379412 
L 232.756522 150.908366 
L 233.114136 150.908366 
L 233.114136 150.672843 
L 233.518059 150.672843 
L 233.538547 150.201797 
L 233.690251 150.201797 
L 233.791078 149.730752 
L 233.978523 149.730752 
L 233.978523 149.495229 
L 234.105685 149.495229 
L 234.105685 149.259706 
L 234.245017 149.259706 
L 234.245017 149.024183 
L 234.659122 149.024183 
L 234.73707 148.082092 
L 234.938511 148.082092 
L 234.961497 147.611046 
L 235.098818 147.611046 
L 235.098818 147.375523 
L 235.437022 147.375523 
L 235.437022 147.14 
L 235.554555 147.14 
L 235.599402 146.433431 
L 235.726559 146.433431 
L 235.726559 146.197908 
L 236.048954 146.197908 
L 236.129119 145.255817 
L 236.204568 145.255817 
L 236.204568 145.020294 
L 236.407516 145.020294 
L 236.407516 144.784771 
L 236.561 144.784771 
L 236.589995 144.313725 
L 236.924335 144.313725 
L 236.924335 144.078203 
L 237.03856 144.078203 
L 237.120209 143.607157 
L 237.158736 143.607157 
L 237.158736 143.371634 
L 237.343314 143.371634 
L 237.352436 142.900588 
L 237.808872 142.900588 
L 237.844501 142.429542 
L 238.125634 142.429542 
L 238.125634 142.19402 
L 238.269179 142.19402 
L 238.355765 141.722974 
L 238.483409 141.722974 
L 238.529807 141.251928 
L 238.971135 141.251928 
L 239.012963 140.780882 
L 239.103268 140.780882 
L 239.146219 140.074314 
L 239.25825 140.074314 
L 239.25825 139.838791 
L 239.423384 139.838791 
L 239.44161 139.132222 
L 239.569304 139.132222 
L 239.65182 138.661176 
L 239.993715 138.661176 
L 239.993715 138.425654 
L 240.145419 138.425654 
L 240.145419 138.190131 
L 240.39884 138.190131 
L 240.502364 137.719085 
L 240.533828 137.719085 
L 240.6057 137.012516 
L 240.673945 137.012516 
L 240.673945 136.776993 
L 240.988552 136.776993 
L 240.988552 136.541471 
L 241.155262 136.541471 
L 241.177494 135.834902 
L 241.268689 135.834902 
L 241.366444 135.363856 
L 241.405568 135.363856 
L 241.50115 134.657288 
L 241.541989 134.657288 
L 241.541989 134.421765 
L 241.686186 134.421765 
L 241.686186 134.186242 
L 241.96663 134.186242 
L 241.96663 133.950719 
L 242.181727 133.950719 
L 242.181727 133.715196 
L 242.725176 133.715196 
L 242.796629 133.24415 
L 242.920599 133.24415 
L 242.920599 133.008627 
L 243.109914 133.008627 
L 243.109914 132.773105 
L 243.240188 132.773105 
L 243.240188 132.537582 
L 243.382324 132.537582 
L 243.382324 132.302059 
L 243.631092 132.302059 
L 243.696931 131.59549 
L 243.754026 131.59549 
L 243.754026 131.359967 
L 244.14087 131.359967 
L 244.250368 130.182353 
L 244.330141 130.182353 
L 244.330141 129.94683 
L 244.455478 129.94683 
L 244.455478 129.711307 
L 244.587219 129.711307 
L 244.587219 129.475784 
L 245.008501 129.475784 
L 245.008915 129.004739 
L 245.339984 129.004739 
L 245.339984 128.769216 
L 245.893893 128.769216 
L 245.974251 128.29817 
L 246.366449 128.29817 
L 246.471516 127.120556 
L 246.496859 127.120556 
L 246.550366 126.64951 
L 246.68744 126.64951 
L 246.68744 126.413987 
L 247.165563 126.413987 
L 247.165563 126.178464 
L 247.385231 126.178464 
L 247.416436 125.707418 
L 247.560209 125.707418 
L 247.560209 125.471895 
L 247.716881 125.471895 
L 247.765408 124.765327 
L 247.852526 124.765327 
L 247.88721 124.294281 
L 248.081204 124.294281 
L 248.081204 124.058758 
L 248.201817 124.058758 
L 248.238899 123.587712 
L 248.384017 123.587712 
L 248.475427 122.881144 
L 248.586674 122.881144 
L 248.66331 122.174575 
L 248.755254 122.174575 
L 248.83213 121.232484 
L 249.146737 121.232484 
L 249.146737 120.996961 
L 249.532278 120.996961 
L 249.567907 120.525915 
L 249.700174 120.525915 
L 249.700174 120.290392 
L 249.824858 120.290392 
L 249.928418 119.819346 
L 249.994022 119.819346 
L 250.093611 119.112778 
L 250.324108 119.112778 
L 250.324108 118.877255 
L 250.5017 118.877255 
L 250.5017 118.641732 
L 250.612815 118.641732 
L 250.612815 118.406209 
L 250.837858 118.406209 
L 250.926111 117.228595 
L 251.077815 117.228595 
L 251.092397 116.757549 
L 251.608171 116.757549 
L 251.6438 116.286503 
L 251.850943 116.286503 
L 251.908579 115.815458 
L 252.087659 115.815458 
L 252.087659 115.579935 
L 252.221767 115.579935 
L 252.221767 115.344412 
L 252.858601 115.344412 
L 252.9009 114.637843 
L 253.114124 114.637843 
L 253.166687 114.166797 
L 253.274823 114.166797 
L 253.274823 113.931275 
L 253.620731 113.931275 
L 253.620731 113.695752 
L 254.128804 113.695752 
L 254.161967 113.224706 
L 254.344057 113.224706 
L 254.344057 112.989183 
L 254.536372 112.989183 
L 254.598497 112.518137 
L 254.972112 112.518137 
L 254.976793 112.047092 
L 255.503375 112.047092 
L 255.597283 111.105 
L 255.776504 111.105 
L 255.876523 110.633954 
L 255.983203 110.633954 
L 255.983203 110.398431 
L 256.393452 110.398431 
L 256.393452 110.162908 
L 256.542203 110.162908 
L 256.58922 109.691863 
L 256.720787 109.691863 
L 256.741749 109.220817 
L 257.029642 109.220817 
L 257.067983 108.749771 
L 257.54645 108.749771 
L 257.54645 108.514248 
L 257.684367 108.514248 
L 257.719573 108.043203 
L 257.805453 108.043203 
L 257.916525 107.572157 
L 258.656253 107.572157 
L 258.721094 107.101111 
L 258.825965 107.101111 
L 258.825965 106.865588 
L 259.332219 106.865588 
L 259.332219 106.630065 
L 259.596278 106.630065 
L 259.646827 105.923497 
L 260.025678 105.923497 
L 260.116033 105.452451 
L 260.200263 105.452451 
L 260.241659 104.981405 
L 260.488088 104.981405 
L 260.556267 104.510359 
L 260.927079 104.510359 
L 261.011972 103.568268 
L 261.047601 103.568268 
L 261.109704 103.097222 
L 261.252705 103.097222 
L 261.362208 102.390654 
L 261.433008 102.390654 
L 261.433008 102.155131 
L 261.880016 102.155131 
L 261.915645 101.684085 
L 262.191926 101.684085 
L 262.290326 101.213039 
L 262.610379 101.213039 
L 262.610379 100.977516 
L 262.960219 100.977516 
L 262.964899 100.506471 
L 263.205967 100.506471 
L 263.205967 100.270948 
L 263.47293 100.270948 
L 263.47293 100.035425 
L 263.666776 100.035425 
L 263.666776 99.799902 
L 264.375913 99.799902 
L 264.380594 99.328856 
L 264.553127 99.328856 
L 264.576216 98.85781 
L 264.690521 98.85781 
L 264.695201 98.386765 
L 265.243958 98.386765 
L 265.346529 97.680196 
L 265.382158 97.680196 
L 265.468768 97.20915 
L 265.525191 97.20915 
L 265.525191 96.973627 
L 265.737578 96.973627 
L 265.737578 96.738105 
L 266.043506 96.738105 
L 266.043506 96.502582 
L 266.952946 96.502582 
L 267.042292 96.031536 
L 267.410184 96.031536 
L 267.410184 95.796013 
L 267.599929 95.796013 
L 267.599929 95.56049 
L 267.723259 95.56049 
L 267.758888 95.089444 
L 267.951732 95.089444 
L 268.000379 94.618399 
L 268.71047 94.618399 
L 268.757674 93.676307 
L 269.675822 93.676307 
L 269.757762 93.205261 
L 270.180032 93.205261 
L 270.180032 92.969739 
L 271.0872 92.969739 
L 271.09188 92.498693 
L 271.594906 92.498693 
L 271.595726 92.027647 
L 271.89661 92.027647 
L 271.933098 91.321078 
L 272.085986 91.321078 
L 272.090666 90.850033 
L 272.463771 90.850033 
L 272.463771 90.61451 
L 272.775887 90.61451 
L 272.842538 90.143464 
L 273.61285 90.143464 
L 273.648479 89.672418 
L 273.815131 89.672418 
L 273.815131 89.436895 
L 275.053305 89.436895 
L 275.053305 89.201373 
L 275.930283 89.201373 
L 275.930283 88.96585 
L 276.07978 88.96585 
L 276.07978 88.730327 
L 276.671708 88.730327 
L 276.671708 88.494804 
L 276.976792 88.494804 
L 276.981472 88.023758 
L 277.663928 88.023758 
L 277.663928 87.788235 
L 278.307013 87.788235 
L 278.342581 87.31719 
L 278.980498 87.31719 
L 279.079622 86.846144 
L 279.161351 86.846144 
L 279.161351 86.610621 
L 279.305799 86.610621 
L 279.39423 86.139575 
L 279.947667 86.139575 
L 279.947667 85.904052 
L 283.414179 85.904052 
L 283.414179 85.668529 
L 284.196605 85.668529 
L 284.196605 85.433007 
L 285.790909 85.433007 
L 285.790909 85.197484 
L 286.789695 85.197484 
L 286.789695 84.961961 
L 291.680501 84.961961 
L 291.680501 84.726438 
L 293.296764 84.726438 
L 293.296764 84.490915 
L 296.908964 84.490915 
L 296.908964 84.255392 
L 304.730746 84.255392 
L 304.730746 84.019869 
L 304.920061 84.019869 
L 304.920061 83.784346 
L 314.668748 83.784346 
L 314.668748 83.548824 
L 453.192 83.548824 
L 453.192 83.548824 
" style="fill:none;stroke:#000000;stroke-linecap:square;stroke-width:3;"/>
   </g>
   <g id="line2d_37">
    <path clip-path="url(#pa1e033174d)" style="fill:none;stroke:#000000;stroke-linecap:square;stroke-width:3;"/>
   </g>
   <g id="line2d_38">
    <path clip-path="url(#pa1e033174d)" d="M 88.9824 288.453725 
L 142.448067 288.453725 
L 142.448067 288.163851 
L 142.568123 288.163851 
L 142.645117 287.584103 
L 143.72095 287.584103 
L 143.824512 286.71448 
L 146.386827 286.71448 
L 146.46382 286.134731 
L 146.805599 286.134731 
L 146.805599 285.844857 
L 147.643216 285.844857 
L 147.643216 285.554982 
L 148.084537 285.554982 
L 148.084537 285.265108 
L 148.606743 285.265108 
L 148.606743 284.975234 
L 150.244801 284.975234 
L 150.244801 284.685359 
L 150.456017 284.685359 
L 150.456017 284.395485 
L 150.624302 284.395485 
L 150.624302 284.105611 
L 151.903241 284.105611 
L 151.903241 283.815737 
L 152.015699 283.815737 
L 152.015699 283.525862 
L 152.425446 283.525862 
L 152.425446 283.235988 
L 154.063505 283.235988 
L 154.063505 282.946114 
L 154.274721 282.946114 
L 154.274721 282.656239 
L 154.402119 282.656239 
L 154.402119 282.366365 
L 154.799738 282.366365 
L 154.799738 282.076491 
L 155.454029 282.076491 
L 155.454029 281.786616 
L 155.675002 281.786616 
L 155.743979 281.206868 
L 156.179303 281.206868 
L 156.256297 280.627119 
L 157.435692 280.627119 
L 157.435692 280.337245 
L 157.806539 280.337245 
L 157.806539 280.047371 
L 158.417673 280.047371 
L 158.494667 279.467622 
L 158.618441 279.467622 
L 158.618441 279.177748 
L 159.272733 279.177748 
L 159.272733 278.887873 
L 159.674062 278.887873 
L 159.674062 278.597999 
L 160.416779 278.597999 
L 160.416779 278.308125 
L 160.789609 278.308125 
L 160.789609 278.01825 
L 161.625242 278.01825 
L 161.695717 277.438502 
L 162.217923 277.438502 
L 162.217923 277.148627 
L 162.353928 277.148627 
L 162.353928 276.858753 
L 162.583332 276.858753 
L 162.655149 276.279005 
L 163.626811 276.279005 
L 163.695789 275.699256 
L 163.855981 275.699256 
L 163.934087 275.119507 
L 163.969751 275.119507 
L 164.067197 274.539759 
L 164.456293 274.539759 
L 164.456293 274.249884 
L 164.597725 274.249884 
L 164.597725 273.96001 
L 166.021985 273.96001 
L 166.098979 273.090387 
L 166.305567 273.090387 
L 166.305567 272.800513 
L 167.278374 272.800513 
L 167.371549 272.220764 
L 167.448543 272.220764 
L 167.448543 271.93089 
L 168.410917 271.93089 
L 168.410917 271.641016 
L 168.627938 271.641016 
L 168.703763 271.061267 
L 169.065209 271.061267 
L 169.065209 270.771393 
L 169.324757 270.771393 
L 169.324757 270.481518 
L 170.259461 270.481518 
L 170.259461 270.191644 
L 170.409647 270.191644 
L 170.409647 269.90177 
L 170.649287 269.90177 
L 170.649287 269.611895 
L 171.303579 269.611895 
L 171.322088 269.032147 
L 171.417718 269.032147 
L 171.417718 268.742272 
L 171.5384 268.742272 
L 171.609025 268.162524 
L 171.92156 268.162524 
L 171.92156 267.87265 
L 172.060605 267.87265 
L 172.060605 267.582775 
L 172.437962 267.582775 
L 172.437962 267.292901 
L 172.743661 267.292901 
L 172.743661 267.003027 
L 172.887963 267.003027 
L 172.887963 266.713152 
L 173.14588 266.713152 
L 173.222874 266.133404 
L 173.410168 266.133404 
L 173.410168 265.843529 
L 173.592843 265.843529 
L 173.698664 264.684032 
L 173.710846 264.684032 
L 173.779823 264.104284 
L 173.90988 264.104284 
L 173.90988 263.814409 
L 174.402269 263.814409 
L 174.402269 263.524535 
L 174.537384 263.524535 
L 174.537384 263.234661 
L 174.849232 263.234661 
L 174.849232 262.944786 
L 175.048227 262.944786 
L 175.048227 262.654912 
L 175.259443 262.654912 
L 175.259443 262.365038 
L 176.188194 262.365038 
L 176.188194 262.075163 
L 176.551777 262.075163 
L 176.551777 261.785289 
L 177.210005 261.785289 
L 177.286999 261.20554 
L 177.383356 261.20554 
L 177.411642 260.625792 
L 177.830319 260.625792 
L 177.894719 260.046043 
L 178.2536 260.046043 
L 178.2536 259.756169 
L 178.466394 259.756169 
L 178.466394 259.466295 
L 178.662294 259.466295 
L 178.753503 258.596672 
L 178.907892 258.596672 
L 178.907892 258.306797 
L 179.109257 258.306797 
L 179.1845 257.727049 
L 179.603163 257.727049 
L 179.631463 257.1473 
L 179.7298 257.1473 
L 179.806794 256.567552 
L 179.987155 256.567552 
L 179.987155 256.277677 
L 180.257455 256.277677 
L 180.257455 255.987803 
L 180.657815 255.987803 
L 180.695471 255.408054 
L 180.822558 255.408054 
L 180.822558 255.11818 
L 180.986189 255.11818 
L 181.033774 254.538431 
L 181.260039 254.538431 
L 181.329016 253.08906 
L 181.447481 253.08906 
L 181.480737 252.509311 
L 182.005595 252.509311 
L 182.049104 251.929563 
L 182.363699 251.929563 
L 182.363699 251.639688 
L 182.489193 251.639688 
L 182.489193 251.349814 
L 182.609964 251.349814 
L 182.609964 251.05994 
L 182.726419 251.05994 
L 182.726419 250.770065 
L 183.248625 250.770065 
L 183.34552 249.610568 
L 183.390965 249.610568 
L 183.390965 249.320694 
L 183.967276 249.320694 
L 183.967276 249.03082 
L 184.503586 249.03082 
L 184.503586 248.740945 
L 184.618403 248.740945 
L 184.687381 248.161197 
L 184.886684 248.161197 
L 184.886684 247.871322 
L 185.0979 247.871322 
L 185.0979 247.581448 
L 185.246214 247.581448 
L 185.246214 247.291574 
L 185.377494 247.291574 
L 185.377494 247.001699 
L 185.76842 247.001699 
L 185.824457 246.421951 
L 186.031786 246.421951 
L 186.031786 246.132076 
L 186.184351 246.132076 
L 186.261345 245.552328 
L 186.478749 245.552328 
L 186.478749 245.262453 
L 186.979275 245.262453 
L 186.979275 244.972579 
L 187.094426 244.972579 
L 187.094426 244.682705 
L 187.406478 244.682705 
L 187.44074 244.102956 
L 187.545047 244.102956 
L 187.617694 243.523208 
L 187.995378 243.523208 
L 187.995378 243.233333 
L 188.142246 243.233333 
L 188.142246 242.943459 
L 188.384296 242.943459 
L 188.384296 242.653585 
L 188.609624 242.653585 
L 188.609624 242.36371 
L 188.81793 242.36371 
L 188.886908 241.494087 
L 189.230618 241.494087 
L 189.337239 240.624465 
L 189.44162 240.624465 
L 189.473529 240.044716 
L 189.554788 240.044716 
L 189.554788 239.754842 
L 189.848771 239.754842 
L 189.848771 239.464967 
L 190.095912 239.464967 
L 190.095912 239.175093 
L 190.315508 239.175093 
L 190.421827 238.595344 
L 190.746412 238.595344 
L 190.81539 237.725721 
L 191.221585 237.725721 
L 191.227949 237.145973 
L 191.616736 237.145973 
L 191.700765 236.566224 
L 191.961414 236.566224 
L 191.961414 236.27635 
L 192.222971 236.27635 
L 192.222971 235.986476 
L 192.448421 235.986476 
L 192.494468 235.406727 
L 192.563446 235.406727 
L 192.615706 234.537104 
L 192.913153 234.537104 
L 192.913153 234.24723 
L 193.861029 234.24723 
L 193.861029 233.957355 
L 194.072245 233.957355 
L 194.072245 233.667481 
L 194.58762 233.667481 
L 194.58762 233.377607 
L 194.968215 233.377607 
L 194.968215 233.087733 
L 195.753185 233.087733 
L 195.753185 232.797858 
L 196.090214 232.797858 
L 196.167207 231.928235 
L 196.226874 231.928235 
L 196.226874 231.638361 
L 197.112679 231.638361 
L 197.112679 231.348487 
L 197.346603 231.348487 
L 197.346603 231.058612 
L 197.499757 231.058612 
L 197.568735 229.899115 
L 197.800581 229.899115 
L 197.800581 229.609241 
L 198.328698 229.609241 
L 198.415965 229.029492 
L 198.693658 229.029492 
L 198.693658 228.739618 
L 199.041161 228.739618 
L 199.070257 227.869995 
L 199.314653 227.869995 
L 199.314653 227.580121 
L 199.5613 227.580121 
L 199.5613 227.290246 
L 200.122421 227.290246 
L 200.122421 227.000372 
L 200.327689 227.000372 
L 200.399542 226.130749 
L 200.789218 226.130749 
L 200.789218 225.840875 
L 201.311983 225.840875 
L 201.422766 225.261126 
L 201.606628 225.261126 
L 201.687063 224.681378 
L 202.128833 224.681378 
L 202.18437 223.811755 
L 203.480786 223.811755 
L 203.480786 223.52188 
L 203.667338 223.52188 
L 203.766892 222.942132 
L 203.978108 222.942132 
L 203.978108 222.652257 
L 204.198762 222.652257 
L 204.288333 222.072509 
L 205.371614 222.072509 
L 205.448608 221.202886 
L 205.495178 221.202886 
L 205.495178 220.913012 
L 205.794506 220.913012 
L 205.88659 220.333263 
L 206.17809 220.333263 
L 206.285663 219.46364 
L 206.336921 219.46364 
L 206.336921 219.173766 
L 206.628003 219.173766 
L 206.628003 218.883891 
L 206.863846 218.883891 
L 206.863846 218.594017 
L 207.000287 218.594017 
L 207.000287 218.304143 
L 207.680312 218.304143 
L 207.680312 218.014268 
L 207.815072 218.014268 
L 207.884615 217.43452 
L 207.948735 217.43452 
L 207.948735 217.144646 
L 208.130644 217.144646 
L 208.130644 216.854771 
L 208.3048 216.854771 
L 208.321828 216.275023 
L 208.861176 216.275023 
L 208.925795 215.695274 
L 208.97612 215.695274 
L 208.97612 215.4054 
L 209.563128 215.4054 
L 209.60909 214.245902 
L 209.694705 214.245902 
L 209.798363 213.37628 
L 210.010684 213.37628 
L 210.010684 213.086405 
L 210.145036 213.086405 
L 210.222211 212.506657 
L 210.888028 212.506657 
L 210.923125 211.926908 
L 211.15177 211.926908 
L 211.15177 211.637034 
L 211.3071 211.637034 
L 211.410234 210.477536 
L 211.623187 210.477536 
L 211.623187 210.187662 
L 211.762065 210.187662 
L 211.839059 209.607914 
L 211.988428 209.607914 
L 212.053164 208.738291 
L 212.219541 208.738291 
L 212.219541 208.448416 
L 212.858295 208.448416 
L 212.858295 208.158542 
L 213.018454 208.158542 
L 213.048293 207.578793 
L 213.259509 207.578793 
L 213.259509 207.288919 
L 213.371243 207.288919 
L 213.371243 206.999045 
L 213.727283 206.999045 
L 213.800743 206.129422 
L 214.099298 206.129422 
L 214.099298 205.839548 
L 214.243229 205.839548 
L 214.320369 204.969925 
L 214.421737 204.969925 
L 214.421737 204.68005 
L 214.568417 204.68005 
L 214.568417 204.390176 
L 214.81058 204.390176 
L 214.872069 203.810427 
L 215.433808 203.810427 
L 215.506627 203.230679 
L 215.729225 203.230679 
L 215.789232 202.65093 
L 215.956958 202.65093 
L 216.051801 201.781307 
L 216.340301 201.781307 
L 216.419068 200.62181 
L 216.869399 200.62181 
L 216.869399 200.331936 
L 217.084322 200.331936 
L 217.085648 199.752187 
L 217.278479 199.752187 
L 217.278479 199.462313 
L 217.435109 199.462313 
L 217.495757 198.59269 
L 217.603229 198.59269 
L 217.603229 198.302815 
L 217.800684 198.302815 
L 217.800684 198.012941 
L 218.098276 198.012941 
L 218.098276 197.723067 
L 218.257521 197.723067 
L 218.34755 197.143318 
L 218.376532 197.143318 
L 218.450019 196.56357 
L 218.595101 196.56357 
L 218.702334 195.983821 
L 218.72488 195.983821 
L 218.792173 195.114198 
L 219.03245 195.114198 
L 219.03245 194.824324 
L 219.183165 194.824324 
L 219.183165 194.534449 
L 219.438743 194.534449 
L 219.438743 194.244575 
L 219.649959 194.244575 
L 219.649959 193.954701 
L 220.095606 193.954701 
L 220.095606 193.664827 
L 220.61003 193.664827 
L 220.70482 193.085078 
L 220.914944 193.085078 
L 221.011469 192.505329 
L 221.24062 192.505329 
L 221.317614 191.055958 
L 221.735506 191.055958 
L 221.735506 190.766083 
L 222.058002 190.766083 
L 222.058002 190.476209 
L 222.48257 190.476209 
L 222.497009 189.896461 
L 222.723517 189.896461 
L 222.784042 189.026838 
L 222.9917 189.026838 
L 222.9917 188.736963 
L 223.103564 188.736963 
L 223.213656 187.86734 
L 223.442031 187.86734 
L 223.450665 187.287592 
L 223.553706 187.287592 
L 223.553706 186.997717 
L 223.671735 186.997717 
L 223.671735 186.707843 
L 223.993679 186.707843 
L 223.993679 186.417969 
L 224.161947 186.417969 
L 224.188454 185.83822 
L 224.633515 185.83822 
L 224.647971 185.258472 
L 224.920182 185.258472 
L 224.974107 184.388849 
L 225.100895 184.388849 
L 225.100895 184.098974 
L 225.266817 184.098974 
L 225.341039 183.229351 
L 225.478096 183.229351 
L 225.478096 182.939477 
L 226.245505 182.939477 
L 226.245505 182.649603 
L 226.668238 182.649603 
L 226.757034 181.490106 
L 226.78268 181.490106 
L 226.78268 181.200231 
L 226.986691 181.200231 
L 227.009237 180.330608 
L 227.27924 180.330608 
L 227.376535 179.460985 
L 227.531104 179.460985 
L 227.531104 179.171111 
L 227.683185 179.171111 
L 227.683185 178.881237 
L 227.958966 178.881237 
L 228.004784 178.011614 
L 228.225855 178.011614 
L 228.225855 177.72174 
L 228.500305 177.72174 
L 228.500305 177.431865 
L 228.716066 177.431865 
L 228.716066 177.141991 
L 228.917298 177.141991 
L 228.949272 176.562242 
L 229.128514 176.562242 
L 229.199302 175.982494 
L 229.32598 175.982494 
L 229.339676 175.402745 
L 229.630201 175.402745 
L 229.630201 175.112871 
L 229.967001 175.112871 
L 229.967001 174.822996 
L 230.225422 174.822996 
L 230.225422 174.533122 
L 231.00091 174.533122 
L 231.007874 173.953374 
L 231.221981 173.953374 
L 231.221981 173.663499 
L 231.435698 173.663499 
L 231.435698 173.373625 
L 231.673527 173.373625 
L 231.742348 172.504002 
L 231.882976 172.504002 
L 231.882976 172.214128 
L 232.018129 172.214128 
L 232.018129 171.924253 
L 232.191406 171.924253 
L 232.191406 171.634379 
L 232.603831 171.634379 
L 232.641738 171.05463 
L 232.824902 171.05463 
L 232.824902 170.764756 
L 233.23528 170.764756 
L 233.315113 169.605259 
L 233.456351 169.605259 
L 233.551174 168.735636 
L 233.946563 168.735636 
L 233.992695 168.155887 
L 234.119888 168.155887 
L 234.126526 167.576139 
L 234.284585 167.576139 
L 234.299345 166.99639 
L 234.575126 166.99639 
L 234.575126 166.706516 
L 234.898237 166.706516 
L 234.898237 166.416642 
L 235.095629 166.416642 
L 235.172021 165.547019 
L 235.49208 165.547019 
L 235.49208 165.257144 
L 235.609519 165.257144 
L 235.660893 163.807773 
L 235.78087 163.807773 
L 235.867945 163.228024 
L 235.967543 163.228024 
L 236.001941 162.648276 
L 236.243324 162.648276 
L 236.301916 162.068527 
L 236.479036 162.068527 
L 236.492152 161.488778 
L 236.841581 161.488778 
L 236.841581 161.198904 
L 237.050209 161.198904 
L 237.050209 160.90903 
L 237.271279 160.90903 
L 237.300653 160.329281 
L 237.761491 160.329281 
L 237.84378 159.749532 
L 238.159572 159.749532 
L 238.159572 159.459658 
L 238.380643 159.459658 
L 238.466094 158.87991 
L 238.509779 158.87991 
L 238.509779 158.590035 
L 238.687165 158.590035 
L 238.687165 158.300161 
L 238.870854 158.300161 
L 238.870854 158.010287 
L 239.177377 158.010287 
L 239.231184 157.430538 
L 239.652352 157.430538 
L 239.680151 156.850789 
L 239.843953 156.850789 
L 239.843953 156.560915 
L 240.024164 156.560915 
L 240.046709 155.981166 
L 240.361079 155.981166 
L 240.361079 155.691292 
L 240.873233 155.691292 
L 240.873233 155.401418 
L 241.154135 155.401418 
L 241.234584 154.241921 
L 241.698941 154.241921 
L 241.78818 153.372298 
L 241.953671 153.372298 
L 241.953671 153.082423 
L 242.195653 153.082423 
L 242.260321 151.922926 
L 242.536102 151.922926 
L 242.536102 151.633052 
L 242.918076 151.633052 
L 242.918076 151.343177 
L 243.047438 151.343177 
L 243.047438 151.053303 
L 243.366745 151.053303 
L 243.456378 150.18368 
L 243.905345 150.18368 
L 243.911551 149.603932 
L 244.045346 149.603932 
L 244.045346 149.314057 
L 244.305371 149.314057 
L 244.305371 149.024183 
L 244.586274 149.024183 
L 244.612021 148.444434 
L 244.727227 148.444434 
L 244.802558 147.574811 
L 244.887802 147.574811 
L 244.948297 146.995063 
L 245.001379 146.995063 
L 245.001379 146.705189 
L 245.175317 146.705189 
L 245.233221 146.12544 
L 245.438509 146.12544 
L 245.491591 145.545691 
L 245.720123 145.545691 
L 245.720123 145.255817 
L 246.588646 145.255817 
L 246.588646 144.965943 
L 247.154258 144.965943 
L 247.154258 144.676068 
L 247.718617 144.676068 
L 247.776521 144.09632 
L 248.263424 144.09632 
L 248.263424 143.806445 
L 248.698365 143.806445 
L 248.698365 143.516571 
L 249.005015 143.516571 
L 249.005015 143.226697 
L 249.280796 143.226697 
L 249.280796 142.936823 
L 249.401219 142.936823 
L 249.423765 142.357074 
L 249.749157 142.357074 
L 249.828336 141.777325 
L 249.886239 141.777325 
L 249.886239 141.487451 
L 250.134986 141.487451 
L 250.198124 140.617828 
L 250.373142 140.617828 
L 250.46867 139.748205 
L 250.679792 139.748205 
L 250.679792 139.458331 
L 250.879052 139.458331 
L 250.955573 138.878582 
L 251.547252 138.878582 
L 251.61383 138.298834 
L 252.100857 138.298834 
L 252.100857 138.008959 
L 252.549824 138.008959 
L 252.549824 137.719085 
L 252.677223 137.719085 
L 252.735126 137.139336 
L 253.131472 137.139336 
L 253.230752 136.269713 
L 253.422402 136.269713 
L 253.422402 135.979839 
L 253.947189 135.979839 
L 253.947189 135.689965 
L 254.168259 135.689965 
L 254.168259 135.40009 
L 254.658471 135.40009 
L 254.658471 135.110216 
L 255.965702 135.110216 
L 255.965702 134.820342 
L 256.493851 134.820342 
L 256.493851 134.530468 
L 256.942818 134.530468 
L 256.942818 134.240593 
L 257.623746 134.240593 
L 257.681725 133.37097 
L 258.072789 133.37097 
L 258.168628 131.921599 
L 258.382071 131.921599 
L 258.382071 131.631724 
L 258.617595 131.631724 
L 258.657852 131.051976 
L 258.753717 131.051976 
L 258.81162 130.472227 
L 258.963258 130.472227 
L 258.985804 129.892479 
L 259.170823 129.892479 
L 259.193368 129.31273 
L 259.298523 129.31273 
L 259.298523 129.022856 
L 260.680665 129.022856 
L 260.680665 128.732981 
L 260.924307 128.732981 
L 260.924307 128.443107 
L 261.175868 128.443107 
L 261.175868 128.153233 
L 261.383433 128.153233 
L 261.383433 127.863358 
L 262.742614 127.863358 
L 262.742614 127.573484 
L 262.984441 127.573484 
L 262.984441 127.28361 
L 263.192005 127.28361 
L 263.192005 126.993736 
L 264.03903 126.993736 
L 264.03903 126.703861 
L 264.470441 126.703861 
L 264.470441 126.413987 
L 264.691511 126.413987 
L 264.691511 126.124113 
L 265.181723 126.124113 
L 265.181723 125.834238 
L 265.527741 125.834238 
L 265.527741 125.544364 
L 265.735306 125.544364 
L 265.735306 125.25449 
L 265.870906 125.25449 
L 265.870906 124.964615 
L 266.319873 124.964615 
L 266.319873 124.674741 
L 267.000802 124.674741 
L 267.000802 124.384867 
L 267.637459 124.384867 
L 267.637459 124.094992 
L 267.845024 124.094992 
L 267.944109 123.515244 
L 268.151674 123.515244 
L 268.238557 122.645621 
L 268.427455 122.645621 
L 268.427455 122.355747 
L 268.688888 122.355747 
L 268.688888 122.065872 
L 270.167039 122.065872 
L 270.167039 121.775998 
L 270.486346 121.775998 
L 270.486346 121.486124 
L 270.693911 121.486124 
L 270.693911 121.196249 
L 271.915095 121.196249 
L 271.915095 120.906375 
L 275.432945 120.906375 
L 275.432945 120.616501 
L 275.64051 120.616501 
L 275.64051 120.326626 
L 275.881912 120.326626 
L 275.881912 120.036752 
L 276.089477 120.036752 
L 276.089477 119.746878 
L 276.56284 119.746878 
L 276.56284 119.457004 
L 276.770405 119.457004 
L 276.770405 119.167129 
L 276.920384 119.167129 
L 276.920384 118.877255 
L 453.192 118.877255 
L 453.192 118.877255 
" style="fill:none;stroke:#00bfbf;stroke-linecap:square;stroke-width:3;"/>
   </g>
   <g id="line2d_39">
    <path clip-path="url(#pa1e033174d)" style="fill:none;stroke:#00bfbf;stroke-linecap:square;stroke-width:3;"/>
   </g>
   <g id="line2d_40">
    <path clip-path="url(#pa1e033174d)" d="M 88.9824 288.453725 
L 177.240566 288.453725 
L 177.240566 288.154649 
L 177.855323 288.154649 
L 177.855323 287.855572 
L 178.761472 287.855572 
L 178.761472 287.556495 
L 179.376229 287.556495 
L 179.376229 287.257419 
L 179.405342 287.257419 
L 179.405342 286.958342 
L 180.926248 286.958342 
L 180.926248 286.659265 
L 182.392224 286.659265 
L 182.392224 286.360189 
L 183.022281 286.360189 
L 183.022281 286.061112 
L 183.91313 286.061112 
L 183.91313 285.762035 
L 184.543186 285.762035 
L 184.543186 285.462959 
L 190.243512 285.462959 
L 190.243512 285.163882 
L 191.764418 285.163882 
L 191.764418 284.864805 
L 193.659357 284.864805 
L 193.659357 284.565729 
L 194.850902 284.565729 
L 194.850902 284.266652 
L 195.180262 284.266652 
L 195.180262 283.967575 
L 195.541783 283.967575 
L 195.541783 283.668499 
L 196.371807 283.668499 
L 196.371807 283.369422 
L 196.719916 283.369422 
L 196.719916 283.070345 
L 197.062689 283.070345 
L 197.062689 282.771269 
L 198.240821 282.771269 
L 198.240821 282.472192 
L 199.025698 282.472192 
L 199.025698 282.173115 
L 200.279739 282.173115 
L 200.279739 281.874039 
L 200.546604 281.874039 
L 200.546604 281.574962 
L 201.800645 281.574962 
L 201.800645 281.275885 
L 205.401796 281.275885 
L 205.401796 280.976809 
L 206.922701 280.976809 
L 206.922701 280.677732 
L 220.277319 280.677732 
L 220.277319 280.378655 
L 221.798224 280.378655 
L 221.798224 280.079579 
L 231.874199 280.079579 
L 231.874199 279.780502 
L 233.395105 279.780502 
L 233.395105 279.481425 
L 453.192 279.481425 
" style="fill:none;stroke:#bf00bf;stroke-linecap:square;stroke-width:3;"/>
   </g>
   <g id="line2d_41">
    <path clip-path="url(#pa1e033174d)" style="fill:none;stroke:#bf00bf;stroke-linecap:square;stroke-width:3;"/>
   </g>
   <g id="line2d_42">
    <path clip-path="url(#pa1e033174d)" d="M 113.482837 288.453725 
L 88.9824 288.453725 
L 453.192 288.453725 
L 461.8 288.453725 
" style="fill:none;stroke:#ff0000;stroke-linecap:square;stroke-width:3;"/>
   </g>
   <g id="line2d_43">
    <path clip-path="url(#pa1e033174d)" d="M 271.0872 291.28 
L 271.0872 3 
" style="fill:none;stroke:#000000;stroke-linecap:square;stroke-width:1.5;"/>
   </g>
   <g id="line2d_44">
    <path clip-path="url(#pa1e033174d)" d="M 88.9824 147.14 
L 453.192 147.14 
" style="fill:none;stroke:#000000;stroke-dasharray:2,3.3;stroke-dashoffset:0;stroke-width:2;"/>
   </g>
   <g id="patch_3">
    <path d="M 88.9824 291.28 
L 88.9824 3 
" style="fill:none;stroke:#000000;stroke-linecap:square;stroke-linejoin:miter;stroke-width:0.8;"/>
   </g>
   <g id="patch_4">
    <path d="M 453.192 291.28 
L 453.192 3 
" style="fill:none;stroke:#000000;stroke-linecap:square;stroke-linejoin:miter;stroke-width:0.8;"/>
   </g>
   <g id="patch_5">
    <path d="M 88.9824 291.28 
L 453.192 291.28 
" style="fill:none;stroke:#000000;stroke-linecap:square;stroke-linejoin:miter;stroke-width:0.8;"/>
   </g>
   <g id="patch_6">
    <path d="M 88.9824 3 
L 453.192 3 
" style="fill:none;stroke:#000000;stroke-linecap:square;stroke-linejoin:miter;stroke-width:0.8;"/>
   </g>
   <g id="text_6">
    <!-- f5, f11, f17, f23, f29, f35, f41, f47, f53,20-D -->
    <g transform="translate(10.095308 285.5144)scale(0.2 -0.2)">
     <defs>
      <path d="M 10.796875 72.90625 
L 49.515625 72.90625 
L 49.515625 64.59375 
L 19.828125 64.59375 
L 19.828125 46.734375 
Q 21.96875 47.46875 24.109375 47.828125 
Q 26.265625 48.1875 28.421875 48.1875 
Q 40.625 48.1875 47.75 41.5 
Q 54.890625 34.8125 54.890625 23.390625 
Q 54.890625 11.625 47.5625 5.09375 
Q 40.234375 -1.421875 26.90625 -1.421875 
Q 22.3125 -1.421875 17.546875 -0.640625 
Q 12.796875 0.140625 7.71875 1.703125 
L 7.71875 11.625 
Q 12.109375 9.234375 16.796875 8.0625 
Q 21.484375 6.890625 26.703125 6.890625 
Q 35.15625 6.890625 40.078125 11.328125 
Q 45.015625 15.765625 45.015625 23.390625 
Q 45.015625 31 40.078125 35.4375 
Q 35.15625 39.890625 26.703125 39.890625 
Q 22.75 39.890625 18.8125 39.015625 
Q 14.890625 38.140625 10.796875 36.28125 
z
" id="DejaVuSans-53"/>
      <path d="M 11.71875 12.40625 
L 22.015625 12.40625 
L 22.015625 4 
L 14.015625 -11.625 
L 7.71875 -11.625 
L 11.71875 4 
z
" id="DejaVuSans-44"/>
      <path d="M 8.203125 72.90625 
L 55.078125 72.90625 
L 55.078125 68.703125 
L 28.609375 0 
L 18.3125 0 
L 43.21875 64.59375 
L 8.203125 64.59375 
z
" id="DejaVuSans-55"/>
      <path d="M 19.1875 8.296875 
L 53.609375 8.296875 
L 53.609375 0 
L 7.328125 0 
L 7.328125 8.296875 
Q 12.9375 14.109375 22.625 23.890625 
Q 32.328125 33.6875 34.8125 36.53125 
Q 39.546875 41.84375 41.421875 45.53125 
Q 43.3125 49.21875 43.3125 52.78125 
Q 43.3125 58.59375 39.234375 62.25 
Q 35.15625 65.921875 28.609375 65.921875 
Q 23.96875 65.921875 18.8125 64.3125 
Q 13.671875 62.703125 7.8125 59.421875 
L 7.8125 69.390625 
Q 13.765625 71.78125 18.9375 73 
Q 24.125 74.21875 28.421875 74.21875 
Q 39.75 74.21875 46.484375 68.546875 
Q 53.21875 62.890625 53.21875 53.421875 
Q 53.21875 48.921875 51.53125 44.890625 
Q 49.859375 40.875 45.40625 35.40625 
Q 44.1875 33.984375 37.640625 27.21875 
Q 31.109375 20.453125 19.1875 8.296875 
z
" id="DejaVuSans-50"/>
      <path d="M 40.578125 39.3125 
Q 47.65625 37.796875 51.625 33 
Q 55.609375 28.21875 55.609375 21.1875 
Q 55.609375 10.40625 48.1875 4.484375 
Q 40.765625 -1.421875 27.09375 -1.421875 
Q 22.515625 -1.421875 17.65625 -0.515625 
Q 12.796875 0.390625 7.625 2.203125 
L 7.625 11.71875 
Q 11.71875 9.328125 16.59375 8.109375 
Q 21.484375 6.890625 26.8125 6.890625 
Q 36.078125 6.890625 40.9375 10.546875 
Q 45.796875 14.203125 45.796875 21.1875 
Q 45.796875 27.640625 41.28125 31.265625 
Q 36.765625 34.90625 28.71875 34.90625 
L 20.21875 34.90625 
L 20.21875 43.015625 
L 29.109375 43.015625 
Q 36.375 43.015625 40.234375 45.921875 
Q 44.09375 48.828125 44.09375 54.296875 
Q 44.09375 59.90625 40.109375 62.90625 
Q 36.140625 65.921875 28.71875 65.921875 
Q 24.65625 65.921875 20.015625 65.03125 
Q 15.375 64.15625 9.8125 62.3125 
L 9.8125 71.09375 
Q 15.4375 72.65625 20.34375 73.4375 
Q 25.25 74.21875 29.59375 74.21875 
Q 40.828125 74.21875 47.359375 69.109375 
Q 53.90625 64.015625 53.90625 55.328125 
Q 53.90625 49.265625 50.4375 45.09375 
Q 46.96875 40.921875 40.578125 39.3125 
z
" id="DejaVuSans-51"/>
      <path d="M 10.984375 1.515625 
L 10.984375 10.5 
Q 14.703125 8.734375 18.5 7.8125 
Q 22.3125 6.890625 25.984375 6.890625 
Q 35.75 6.890625 40.890625 13.453125 
Q 46.046875 20.015625 46.78125 33.40625 
Q 43.953125 29.203125 39.59375 26.953125 
Q 35.25 24.703125 29.984375 24.703125 
Q 19.046875 24.703125 12.671875 31.3125 
Q 6.296875 37.9375 6.296875 49.421875 
Q 6.296875 60.640625 12.9375 67.421875 
Q 19.578125 74.21875 30.609375 74.21875 
Q 43.265625 74.21875 49.921875 64.515625 
Q 56.59375 54.828125 56.59375 36.375 
Q 56.59375 19.140625 48.40625 8.859375 
Q 40.234375 -1.421875 26.421875 -1.421875 
Q 22.703125 -1.421875 18.890625 -0.6875 
Q 15.09375 0.046875 10.984375 1.515625 
z
M 30.609375 32.421875 
Q 37.25 32.421875 41.125 36.953125 
Q 45.015625 41.5 45.015625 49.421875 
Q 45.015625 57.28125 41.125 61.84375 
Q 37.25 66.40625 30.609375 66.40625 
Q 23.96875 66.40625 20.09375 61.84375 
Q 16.21875 57.28125 16.21875 49.421875 
Q 16.21875 41.5 20.09375 36.953125 
Q 23.96875 32.421875 30.609375 32.421875 
z
" id="DejaVuSans-57"/>
      <path d="M 37.796875 64.3125 
L 12.890625 25.390625 
L 37.796875 25.390625 
z
M 35.203125 72.90625 
L 47.609375 72.90625 
L 47.609375 25.390625 
L 58.015625 25.390625 
L 58.015625 17.1875 
L 47.609375 17.1875 
L 47.609375 0 
L 37.796875 0 
L 37.796875 17.1875 
L 4.890625 17.1875 
L 4.890625 26.703125 
z
" id="DejaVuSans-52"/>
      <path d="M 19.671875 64.796875 
L 19.671875 8.109375 
L 31.59375 8.109375 
Q 46.6875 8.109375 53.6875 14.9375 
Q 60.6875 21.78125 60.6875 36.53125 
Q 60.6875 51.171875 53.6875 57.984375 
Q 46.6875 64.796875 31.59375 64.796875 
z
M 9.8125 72.90625 
L 30.078125 72.90625 
Q 51.265625 72.90625 61.171875 64.09375 
Q 71.09375 55.28125 71.09375 36.53125 
Q 71.09375 17.671875 61.125 8.828125 
Q 51.171875 0 30.078125 0 
L 9.8125 0 
z
" id="DejaVuSans-68"/>
     </defs>
     <use xlink:href="#DejaVuSans-102"/>
     <use x="35.205078" xlink:href="#DejaVuSans-53"/>
     <use x="98.828125" xlink:href="#DejaVuSans-44"/>
     <use x="130.615234" xlink:href="#DejaVuSans-32"/>
     <use x="162.402344" xlink:href="#DejaVuSans-102"/>
     <use x="197.607422" xlink:href="#DejaVuSans-49"/>
     <use x="261.230469" xlink:href="#DejaVuSans-49"/>
     <use x="324.853516" xlink:href="#DejaVuSans-44"/>
     <use x="356.640625" xlink:href="#DejaVuSans-32"/>
     <use x="388.427734" xlink:href="#DejaVuSans-102"/>
     <use x="423.632812" xlink:href="#DejaVuSans-49"/>
     <use x="487.255859" xlink:href="#DejaVuSans-55"/>
     <use x="550.878906" xlink:href="#DejaVuSans-44"/>
     <use x="582.666016" xlink:href="#DejaVuSans-32"/>
     <use x="614.453125" xlink:href="#DejaVuSans-102"/>
     <use x="649.658203" xlink:href="#DejaVuSans-50"/>
     <use x="713.28125" xlink:href="#DejaVuSans-51"/>
     <use x="776.904297" xlink:href="#DejaVuSans-44"/>
     <use x="808.691406" xlink:href="#DejaVuSans-32"/>
     <use x="840.478516" xlink:href="#DejaVuSans-102"/>
     <use x="875.683594" xlink:href="#DejaVuSans-50"/>
     <use x="939.306641" xlink:href="#DejaVuSans-57"/>
     <use x="1002.929688" xlink:href="#DejaVuSans-44"/>
     <use x="1034.716797" xlink:href="#DejaVuSans-32"/>
     <use x="1066.503906" xlink:href="#DejaVuSans-102"/>
     <use x="1101.708984" xlink:href="#DejaVuSans-51"/>
     <use x="1165.332031" xlink:href="#DejaVuSans-53"/>
     <use x="1228.955078" xlink:href="#DejaVuSans-44"/>
     <use x="1260.742188" xlink:href="#DejaVuSans-32"/>
     <use x="1292.529297" xlink:href="#DejaVuSans-102"/>
     <use x="1327.734375" xlink:href="#DejaVuSans-52"/>
     <use x="1391.357422" xlink:href="#DejaVuSans-49"/>
     <use x="1454.980469" xlink:href="#DejaVuSans-44"/>
     <use x="1486.767578" xlink:href="#DejaVuSans-32"/>
     <use x="1518.554688" xlink:href="#DejaVuSans-102"/>
     <use x="1553.759766" xlink:href="#DejaVuSans-52"/>
     <use x="1617.382812" xlink:href="#DejaVuSans-55"/>
     <use x="1681.005859" xlink:href="#DejaVuSans-44"/>
     <use x="1712.792969" xlink:href="#DejaVuSans-32"/>
     <use x="1744.580078" xlink:href="#DejaVuSans-102"/>
     <use x="1779.785156" xlink:href="#DejaVuSans-53"/>
     <use x="1843.408203" xlink:href="#DejaVuSans-51"/>
     <use x="1907.03125" xlink:href="#DejaVuSans-44"/>
     <use x="1938.818359" xlink:href="#DejaVuSans-50"/>
     <use x="2002.441406" xlink:href="#DejaVuSans-48"/>
     <use x="2066.064453" xlink:href="#DejaVuSans-45"/>
     <use x="2102.148438" xlink:href="#DejaVuSans-68"/>
    </g>
   </g>
   <g id="text_7">
    <!-- v2.6.1.9 -->
    <g style="fill:#808080;" transform="translate(250.635638 286.317512)scale(0.1 -0.1)">
     <defs>
      <path d="M 10.6875 12.40625 
L 21 12.40625 
L 21 0 
L 10.6875 0 
z
" id="DejaVuSans-46"/>
      <path d="M 33.015625 40.375 
Q 26.375 40.375 22.484375 35.828125 
Q 18.609375 31.296875 18.609375 23.390625 
Q 18.609375 15.53125 22.484375 10.953125 
Q 26.375 6.390625 33.015625 6.390625 
Q 39.65625 6.390625 43.53125 10.953125 
Q 47.40625 15.53125 47.40625 23.390625 
Q 47.40625 31.296875 43.53125 35.828125 
Q 39.65625 40.375 33.015625 40.375 
z
M 52.59375 71.296875 
L 52.59375 62.3125 
Q 48.875 64.0625 45.09375 64.984375 
Q 41.3125 65.921875 37.59375 65.921875 
Q 27.828125 65.921875 22.671875 59.328125 
Q 17.53125 52.734375 16.796875 39.40625 
Q 19.671875 43.65625 24.015625 45.921875 
Q 28.375 48.1875 33.59375 48.1875 
Q 44.578125 48.1875 50.953125 41.515625 
Q 57.328125 34.859375 57.328125 23.390625 
Q 57.328125 12.15625 50.6875 5.359375 
Q 44.046875 -1.421875 33.015625 -1.421875 
Q 20.359375 -1.421875 13.671875 8.265625 
Q 6.984375 17.96875 6.984375 36.375 
Q 6.984375 53.65625 15.1875 63.9375 
Q 23.390625 74.21875 37.203125 74.21875 
Q 40.921875 74.21875 44.703125 73.484375 
Q 48.484375 72.75 52.59375 71.296875 
z
" id="DejaVuSans-54"/>
     </defs>
     <use xlink:href="#DejaVuSans-118"/>
     <use x="59.179688" xlink:href="#DejaVuSans-50"/>
     <use x="122.802734" xlink:href="#DejaVuSans-46"/>
     <use x="154.589844" xlink:href="#DejaVuSans-54"/>
     <use x="218.212891" xlink:href="#DejaVuSans-46"/>
     <use x="250" xlink:href="#DejaVuSans-49"/>
     <use x="313.623047" xlink:href="#DejaVuSans-46"/>
     <use x="345.410156" xlink:href="#DejaVuSans-57"/>
    </g>
   </g>
   <g id="legend_1">
    <g id="patch_7">
     <path d="M 102.9824 136.425 
L 232.204275 136.425 
Q 236.204275 136.425 236.204275 132.425 
L 236.204275 17 
Q 236.204275 13 232.204275 13 
L 102.9824 13 
Q 98.9824 13 98.9824 17 
L 98.9824 132.425 
Q 98.9824 136.425 102.9824 136.425 
z
" style="fill:#ffffff;opacity:0.2;stroke:#cccccc;stroke-linejoin:miter;"/>
    </g>
    <g id="line2d_45">
     <path d="M 106.9824 29.196875 
L 146.9824 29.196875 
" style="fill:none;stroke:#000000;stroke-linecap:square;stroke-width:3;"/>
    </g>
    <g id="line2d_46"/>
    <g id="text_8">
     <!-- 1: 4/7 -->
     <g transform="translate(162.9824 36.196875)scale(0.2 -0.2)">
      <defs>
       <path d="M 11.71875 12.40625 
L 22.015625 12.40625 
L 22.015625 0 
L 11.71875 0 
z
M 11.71875 51.703125 
L 22.015625 51.703125 
L 22.015625 39.3125 
L 11.71875 39.3125 
z
" id="DejaVuSans-58"/>
       <path d="M 25.390625 72.90625 
L 33.6875 72.90625 
L 8.296875 -9.28125 
L 0 -9.28125 
z
" id="DejaVuSans-47"/>
      </defs>
      <use xlink:href="#DejaVuSans-49"/>
      <use x="63.623047" xlink:href="#DejaVuSans-58"/>
      <use x="97.314453" xlink:href="#DejaVuSans-32"/>
      <use x="129.101562" xlink:href="#DejaVuSans-52"/>
      <use x="192.724609" xlink:href="#DejaVuSans-47"/>
      <use x="226.416016" xlink:href="#DejaVuSans-55"/>
     </g>
    </g>
    <g id="line2d_47">
     <path d="M 106.9824 58.553125 
L 146.9824 58.553125 
" style="fill:none;stroke:#00bfbf;stroke-linecap:square;stroke-width:3;"/>
    </g>
    <g id="line2d_48"/>
    <g id="text_9">
     <!-- -1: 4/7 -->
     <g transform="translate(162.9824 65.553125)scale(0.2 -0.2)">
      <use xlink:href="#DejaVuSans-45"/>
      <use x="36.083984" xlink:href="#DejaVuSans-49"/>
      <use x="99.707031" xlink:href="#DejaVuSans-58"/>
      <use x="133.398438" xlink:href="#DejaVuSans-32"/>
      <use x="165.185547" xlink:href="#DejaVuSans-52"/>
      <use x="228.808594" xlink:href="#DejaVuSans-47"/>
      <use x="262.5" xlink:href="#DejaVuSans-55"/>
     </g>
    </g>
    <g id="line2d_49">
     <path d="M 106.9824 87.909375 
L 146.9824 87.909375 
" style="fill:none;stroke:#bf00bf;stroke-linecap:square;stroke-width:3;"/>
    </g>
    <g id="line2d_50"/>
    <g id="text_10">
     <!-- -4: 1/6 -->
     <g transform="translate(162.9824 94.909375)scale(0.2 -0.2)">
      <use xlink:href="#DejaVuSans-45"/>
      <use x="36.083984" xlink:href="#DejaVuSans-52"/>
      <use x="99.707031" xlink:href="#DejaVuSans-58"/>
      <use x="133.398438" xlink:href="#DejaVuSans-32"/>
      <use x="165.185547" xlink:href="#DejaVuSans-49"/>
      <use x="228.808594" xlink:href="#DejaVuSans-47"/>
      <use x="262.5" xlink:href="#DejaVuSans-54"/>
     </g>
    </g>
    <g id="line2d_51">
     <path d="M 106.9824 117.265625 
L 146.9824 117.265625 
" style="fill:none;stroke:#ff0000;stroke-linecap:square;stroke-width:3;"/>
    </g>
    <g id="line2d_52"/>
    <g id="text_11">
     <!-- -6: 0/2 -->
     <g transform="translate(162.9824 124.265625)scale(0.2 -0.2)">
      <use xlink:href="#DejaVuSans-45"/>
      <use x="36.083984" xlink:href="#DejaVuSans-54"/>
      <use x="99.707031" xlink:href="#DejaVuSans-58"/>
      <use x="133.398438" xlink:href="#DejaVuSans-32"/>
      <use x="165.185547" xlink:href="#DejaVuSans-48"/>
      <use x="228.808594" xlink:href="#DejaVuSans-47"/>
      <use x="262.5" xlink:href="#DejaVuSans-50"/>
     </g>
    </g>
   </g>
  </g>
 </g>
 <defs>
  <clipPath id="pa1e033174d">
   <rect height="288.28" width="364.2096" x="88.9824" y="3"/>
  </clipPath>
 </defs>
</svg>
