<?xml version="1.0" encoding="utf-8" standalone="no"?>
<!DOCTYPE svg PUBLIC "-//W3C//DTD SVG 1.1//EN"
  "http://www.w3.org/Graphics/SVG/1.1/DTD/svg11.dtd">
<!-- Created with matplotlib (https://matplotlib.org/) -->
<svg height="345.6pt" version="1.1" viewBox="0 0 460.8 345.6" width="460.8pt" xmlns="http://www.w3.org/2000/svg" xmlns:xlink="http://www.w3.org/1999/xlink">
 <metadata>
  <rdf:RDF xmlns:cc="http://creativecommons.org/ns#" xmlns:dc="http://purl.org/dc/elements/1.1/" xmlns:rdf="http://www.w3.org/1999/02/22-rdf-syntax-ns#">
   <cc:Work>
    <dc:type rdf:resource="http://purl.org/dc/dcmitype/StillImage"/>
    <dc:date>2022-04-26T20:51:48.415570</dc:date>
    <dc:format>image/svg+xml</dc:format>
    <dc:creator>
     <cc:Agent>
      <dc:title>Matplotlib v3.3.3, https://matplotlib.org/</dc:title>
     </cc:Agent>
    </dc:creator>
   </cc:Work>
  </rdf:RDF>
 </metadata>
 <defs>
  <style type="text/css">*{stroke-linecap:butt;stroke-linejoin:round;}</style>
 </defs>
 <g id="figure_1">
  <g id="patch_1">
   <path d="M 0 345.6 
L 460.8 345.6 
L 460.8 0 
L 0 0 
z
" style="fill:#ffffff;"/>
  </g>
  <g id="axes_1">
   <g id="patch_2">
    <path d="M 57.6 298.944 
L 360.8064 298.944 
L 360.8064 6.912 
L 57.6 6.912 
z
" style="fill:#ffffff;"/>
   </g>
   <g id="matplotlib.axis_1">
    <g id="xtick_1">
     <g id="line2d_1">
      <path clip-path="url(#p0d3a89320d)" d="M 57.6 298.944 
L 57.6 6.912 
" style="fill:none;stroke:#b0b0b0;stroke-linecap:square;stroke-width:0.8;"/>
     </g>
     <g id="line2d_2">
      <defs>
       <path d="M 0 0 
L 0 3.5 
" id="m3d7ab64747" style="stroke:#000000;stroke-width:0.8;"/>
      </defs>
      <g>
       <use style="stroke:#000000;stroke-width:0.8;" x="57.6" xlink:href="#m3d7ab64747" y="298.944"/>
      </g>
     </g>
     <g id="text_1">
      <!-- 0 -->
      <g transform="translate(52.191875 318.861344)scale(0.17 -0.17)">
       <defs>
        <path d="M 31.78125 66.40625 
Q 24.171875 66.40625 20.328125 58.90625 
Q 16.5 51.421875 16.5 36.375 
Q 16.5 21.390625 20.328125 13.890625 
Q 24.171875 6.390625 31.78125 6.390625 
Q 39.453125 6.390625 43.28125 13.890625 
Q 47.125 21.390625 47.125 36.375 
Q 47.125 51.421875 43.28125 58.90625 
Q 39.453125 66.40625 31.78125 66.40625 
z
M 31.78125 74.21875 
Q 44.046875 74.21875 50.515625 64.515625 
Q 56.984375 54.828125 56.984375 36.375 
Q 56.984375 17.96875 50.515625 8.265625 
Q 44.046875 -1.421875 31.78125 -1.421875 
Q 19.53125 -1.421875 13.0625 8.265625 
Q 6.59375 17.96875 6.59375 36.375 
Q 6.59375 54.828125 13.0625 64.515625 
Q 19.53125 74.21875 31.78125 74.21875 
z
" id="DejaVuSans-48"/>
       </defs>
       <use xlink:href="#DejaVuSans-48"/>
      </g>
     </g>
    </g>
    <g id="xtick_2">
     <g id="line2d_3">
      <path clip-path="url(#p0d3a89320d)" d="M 144.2304 298.944 
L 144.2304 6.912 
" style="fill:none;stroke:#b0b0b0;stroke-linecap:square;stroke-width:0.8;"/>
     </g>
     <g id="line2d_4">
      <g>
       <use style="stroke:#000000;stroke-width:0.8;" x="144.2304" xlink:href="#m3d7ab64747" y="298.944"/>
      </g>
     </g>
     <g id="text_2">
      <!-- 2 -->
      <g transform="translate(138.822275 318.861344)scale(0.17 -0.17)">
       <defs>
        <path d="M 19.1875 8.296875 
L 53.609375 8.296875 
L 53.609375 0 
L 7.328125 0 
L 7.328125 8.296875 
Q 12.9375 14.109375 22.625 23.890625 
Q 32.328125 33.6875 34.8125 36.53125 
Q 39.546875 41.84375 41.421875 45.53125 
Q 43.3125 49.21875 43.3125 52.78125 
Q 43.3125 58.59375 39.234375 62.25 
Q 35.15625 65.921875 28.609375 65.921875 
Q 23.96875 65.921875 18.8125 64.3125 
Q 13.671875 62.703125 7.8125 59.421875 
L 7.8125 69.390625 
Q 13.765625 71.78125 18.9375 73 
Q 24.125 74.21875 28.421875 74.21875 
Q 39.75 74.21875 46.484375 68.546875 
Q 53.21875 62.890625 53.21875 53.421875 
Q 53.21875 48.921875 51.53125 44.890625 
Q 49.859375 40.875 45.40625 35.40625 
Q 44.1875 33.984375 37.640625 27.21875 
Q 31.109375 20.453125 19.1875 8.296875 
z
" id="DejaVuSans-50"/>
       </defs>
       <use xlink:href="#DejaVuSans-50"/>
      </g>
     </g>
    </g>
    <g id="xtick_3">
     <g id="line2d_5">
      <path clip-path="url(#p0d3a89320d)" d="M 230.8608 298.944 
L 230.8608 6.912 
" style="fill:none;stroke:#b0b0b0;stroke-linecap:square;stroke-width:0.8;"/>
     </g>
     <g id="line2d_6">
      <g>
       <use style="stroke:#000000;stroke-width:0.8;" x="230.8608" xlink:href="#m3d7ab64747" y="298.944"/>
      </g>
     </g>
     <g id="text_3">
      <!-- 4 -->
      <g transform="translate(225.452675 318.861344)scale(0.17 -0.17)">
       <defs>
        <path d="M 37.796875 64.3125 
L 12.890625 25.390625 
L 37.796875 25.390625 
z
M 35.203125 72.90625 
L 47.609375 72.90625 
L 47.609375 25.390625 
L 58.015625 25.390625 
L 58.015625 17.1875 
L 47.609375 17.1875 
L 47.609375 0 
L 37.796875 0 
L 37.796875 17.1875 
L 4.890625 17.1875 
L 4.890625 26.703125 
z
" id="DejaVuSans-52"/>
       </defs>
       <use xlink:href="#DejaVuSans-52"/>
      </g>
     </g>
    </g>
    <g id="xtick_4">
     <g id="line2d_7">
      <path clip-path="url(#p0d3a89320d)" d="M 317.4912 298.944 
L 317.4912 6.912 
" style="fill:none;stroke:#b0b0b0;stroke-linecap:square;stroke-width:0.8;"/>
     </g>
     <g id="line2d_8">
      <g>
       <use style="stroke:#000000;stroke-width:0.8;" x="317.4912" xlink:href="#m3d7ab64747" y="298.944"/>
      </g>
     </g>
     <g id="text_4">
      <!-- 6 -->
      <g transform="translate(312.083075 318.861344)scale(0.17 -0.17)">
       <defs>
        <path d="M 33.015625 40.375 
Q 26.375 40.375 22.484375 35.828125 
Q 18.609375 31.296875 18.609375 23.390625 
Q 18.609375 15.53125 22.484375 10.953125 
Q 26.375 6.390625 33.015625 6.390625 
Q 39.65625 6.390625 43.53125 10.953125 
Q 47.40625 15.53125 47.40625 23.390625 
Q 47.40625 31.296875 43.53125 35.828125 
Q 39.65625 40.375 33.015625 40.375 
z
M 52.59375 71.296875 
L 52.59375 62.3125 
Q 48.875 64.0625 45.09375 64.984375 
Q 41.3125 65.921875 37.59375 65.921875 
Q 27.828125 65.921875 22.671875 59.328125 
Q 17.53125 52.734375 16.796875 39.40625 
Q 19.671875 43.65625 24.015625 45.921875 
Q 28.375 48.1875 33.59375 48.1875 
Q 44.578125 48.1875 50.953125 41.515625 
Q 57.328125 34.859375 57.328125 23.390625 
Q 57.328125 12.15625 50.6875 5.359375 
Q 44.046875 -1.421875 33.015625 -1.421875 
Q 20.359375 -1.421875 13.671875 8.265625 
Q 6.984375 17.96875 6.984375 36.375 
Q 6.984375 53.65625 15.1875 63.9375 
Q 23.390625 74.21875 37.203125 74.21875 
Q 40.921875 74.21875 44.703125 73.484375 
Q 48.484375 72.75 52.59375 71.296875 
z
" id="DejaVuSans-54"/>
       </defs>
       <use xlink:href="#DejaVuSans-54"/>
      </g>
     </g>
    </g>
    <g id="xtick_5">
     <g id="line2d_9">
      <path clip-path="url(#p0d3a89320d)" d="M 100.9152 298.944 
L 100.9152 6.912 
" style="fill:none;stroke:#b0b0b0;stroke-linecap:square;stroke-width:0.8;"/>
     </g>
     <g id="line2d_10">
      <defs>
       <path d="M 0 0 
L 0 2 
" id="m649e581657" style="stroke:#000000;stroke-width:0.6;"/>
      </defs>
      <g>
       <use style="stroke:#000000;stroke-width:0.6;" x="100.9152" xlink:href="#m649e581657" y="298.944"/>
      </g>
     </g>
    </g>
    <g id="xtick_6">
     <g id="line2d_11">
      <path clip-path="url(#p0d3a89320d)" d="M 187.5456 298.944 
L 187.5456 6.912 
" style="fill:none;stroke:#b0b0b0;stroke-linecap:square;stroke-width:0.8;"/>
     </g>
     <g id="line2d_12">
      <g>
       <use style="stroke:#000000;stroke-width:0.6;" x="187.5456" xlink:href="#m649e581657" y="298.944"/>
      </g>
     </g>
    </g>
    <g id="xtick_7">
     <g id="line2d_13">
      <path clip-path="url(#p0d3a89320d)" d="M 274.176 298.944 
L 274.176 6.912 
" style="fill:none;stroke:#b0b0b0;stroke-linecap:square;stroke-width:0.8;"/>
     </g>
     <g id="line2d_14">
      <g>
       <use style="stroke:#000000;stroke-width:0.6;" x="274.176" xlink:href="#m649e581657" y="298.944"/>
      </g>
     </g>
    </g>
    <g id="xtick_8">
     <g id="line2d_15">
      <path clip-path="url(#p0d3a89320d)" d="M 360.8064 298.944 
L 360.8064 6.912 
" style="fill:none;stroke:#b0b0b0;stroke-linecap:square;stroke-width:0.8;"/>
     </g>
     <g id="line2d_16">
      <g>
       <use style="stroke:#000000;stroke-width:0.6;" x="360.8064" xlink:href="#m649e581657" y="298.944"/>
      </g>
     </g>
    </g>
    <g id="text_5">
     <!-- log10(evals / dimension) -->
     <g transform="translate(104.238825 339.314156)scale(0.17 -0.17)">
      <defs>
       <path d="M 9.421875 75.984375 
L 18.40625 75.984375 
L 18.40625 0 
L 9.421875 0 
z
" id="DejaVuSans-108"/>
       <path d="M 30.609375 48.390625 
Q 23.390625 48.390625 19.1875 42.75 
Q 14.984375 37.109375 14.984375 27.296875 
Q 14.984375 17.484375 19.15625 11.84375 
Q 23.34375 6.203125 30.609375 6.203125 
Q 37.796875 6.203125 41.984375 11.859375 
Q 46.1875 17.53125 46.1875 27.296875 
Q 46.1875 37.015625 41.984375 42.703125 
Q 37.796875 48.390625 30.609375 48.390625 
z
M 30.609375 56 
Q 42.328125 56 49.015625 48.375 
Q 55.71875 40.765625 55.71875 27.296875 
Q 55.71875 13.875 49.015625 6.21875 
Q 42.328125 -1.421875 30.609375 -1.421875 
Q 18.84375 -1.421875 12.171875 6.21875 
Q 5.515625 13.875 5.515625 27.296875 
Q 5.515625 40.765625 12.171875 48.375 
Q 18.84375 56 30.609375 56 
z
" id="DejaVuSans-111"/>
       <path d="M 45.40625 27.984375 
Q 45.40625 37.75 41.375 43.109375 
Q 37.359375 48.484375 30.078125 48.484375 
Q 22.859375 48.484375 18.828125 43.109375 
Q 14.796875 37.75 14.796875 27.984375 
Q 14.796875 18.265625 18.828125 12.890625 
Q 22.859375 7.515625 30.078125 7.515625 
Q 37.359375 7.515625 41.375 12.890625 
Q 45.40625 18.265625 45.40625 27.984375 
z
M 54.390625 6.78125 
Q 54.390625 -7.171875 48.1875 -13.984375 
Q 42 -20.796875 29.203125 -20.796875 
Q 24.46875 -20.796875 20.265625 -20.09375 
Q 16.0625 -19.390625 12.109375 -17.921875 
L 12.109375 -9.1875 
Q 16.0625 -11.328125 19.921875 -12.34375 
Q 23.78125 -13.375 27.78125 -13.375 
Q 36.625 -13.375 41.015625 -8.765625 
Q 45.40625 -4.15625 45.40625 5.171875 
L 45.40625 9.625 
Q 42.625 4.78125 38.28125 2.390625 
Q 33.9375 0 27.875 0 
Q 17.828125 0 11.671875 7.65625 
Q 5.515625 15.328125 5.515625 27.984375 
Q 5.515625 40.671875 11.671875 48.328125 
Q 17.828125 56 27.875 56 
Q 33.9375 56 38.28125 53.609375 
Q 42.625 51.21875 45.40625 46.390625 
L 45.40625 54.6875 
L 54.390625 54.6875 
z
" id="DejaVuSans-103"/>
       <path d="M 12.40625 8.296875 
L 28.515625 8.296875 
L 28.515625 63.921875 
L 10.984375 60.40625 
L 10.984375 69.390625 
L 28.421875 72.90625 
L 38.28125 72.90625 
L 38.28125 8.296875 
L 54.390625 8.296875 
L 54.390625 0 
L 12.40625 0 
z
" id="DejaVuSans-49"/>
       <path d="M 31 75.875 
Q 24.46875 64.65625 21.28125 53.65625 
Q 18.109375 42.671875 18.109375 31.390625 
Q 18.109375 20.125 21.3125 9.0625 
Q 24.515625 -2 31 -13.1875 
L 23.1875 -13.1875 
Q 15.875 -1.703125 12.234375 9.375 
Q 8.59375 20.453125 8.59375 31.390625 
Q 8.59375 42.28125 12.203125 53.3125 
Q 15.828125 64.359375 23.1875 75.875 
z
" id="DejaVuSans-40"/>
       <path d="M 56.203125 29.59375 
L 56.203125 25.203125 
L 14.890625 25.203125 
Q 15.484375 15.921875 20.484375 11.0625 
Q 25.484375 6.203125 34.421875 6.203125 
Q 39.59375 6.203125 44.453125 7.46875 
Q 49.3125 8.734375 54.109375 11.28125 
L 54.109375 2.78125 
Q 49.265625 0.734375 44.1875 -0.34375 
Q 39.109375 -1.421875 33.890625 -1.421875 
Q 20.796875 -1.421875 13.15625 6.1875 
Q 5.515625 13.8125 5.515625 26.8125 
Q 5.515625 40.234375 12.765625 48.109375 
Q 20.015625 56 32.328125 56 
Q 43.359375 56 49.78125 48.890625 
Q 56.203125 41.796875 56.203125 29.59375 
z
M 47.21875 32.234375 
Q 47.125 39.59375 43.09375 43.984375 
Q 39.0625 48.390625 32.421875 48.390625 
Q 24.90625 48.390625 20.390625 44.140625 
Q 15.875 39.890625 15.1875 32.171875 
z
" id="DejaVuSans-101"/>
       <path d="M 2.984375 54.6875 
L 12.5 54.6875 
L 29.59375 8.796875 
L 46.6875 54.6875 
L 56.203125 54.6875 
L 35.6875 0 
L 23.484375 0 
z
" id="DejaVuSans-118"/>
       <path d="M 34.28125 27.484375 
Q 23.390625 27.484375 19.1875 25 
Q 14.984375 22.515625 14.984375 16.5 
Q 14.984375 11.71875 18.140625 8.90625 
Q 21.296875 6.109375 26.703125 6.109375 
Q 34.1875 6.109375 38.703125 11.40625 
Q 43.21875 16.703125 43.21875 25.484375 
L 43.21875 27.484375 
z
M 52.203125 31.203125 
L 52.203125 0 
L 43.21875 0 
L 43.21875 8.296875 
Q 40.140625 3.328125 35.546875 0.953125 
Q 30.953125 -1.421875 24.3125 -1.421875 
Q 15.921875 -1.421875 10.953125 3.296875 
Q 6 8.015625 6 15.921875 
Q 6 25.140625 12.171875 29.828125 
Q 18.359375 34.515625 30.609375 34.515625 
L 43.21875 34.515625 
L 43.21875 35.40625 
Q 43.21875 41.609375 39.140625 45 
Q 35.0625 48.390625 27.6875 48.390625 
Q 23 48.390625 18.546875 47.265625 
Q 14.109375 46.140625 10.015625 43.890625 
L 10.015625 52.203125 
Q 14.9375 54.109375 19.578125 55.046875 
Q 24.21875 56 28.609375 56 
Q 40.484375 56 46.34375 49.84375 
Q 52.203125 43.703125 52.203125 31.203125 
z
" id="DejaVuSans-97"/>
       <path d="M 44.28125 53.078125 
L 44.28125 44.578125 
Q 40.484375 46.53125 36.375 47.5 
Q 32.28125 48.484375 27.875 48.484375 
Q 21.1875 48.484375 17.84375 46.4375 
Q 14.5 44.390625 14.5 40.28125 
Q 14.5 37.15625 16.890625 35.375 
Q 19.28125 33.59375 26.515625 31.984375 
L 29.59375 31.296875 
Q 39.15625 29.25 43.1875 25.515625 
Q 47.21875 21.78125 47.21875 15.09375 
Q 47.21875 7.46875 41.1875 3.015625 
Q 35.15625 -1.421875 24.609375 -1.421875 
Q 20.21875 -1.421875 15.453125 -0.5625 
Q 10.6875 0.296875 5.421875 2 
L 5.421875 11.28125 
Q 10.40625 8.6875 15.234375 7.390625 
Q 20.0625 6.109375 24.8125 6.109375 
Q 31.15625 6.109375 34.5625 8.28125 
Q 37.984375 10.453125 37.984375 14.40625 
Q 37.984375 18.0625 35.515625 20.015625 
Q 33.0625 21.96875 24.703125 23.78125 
L 21.578125 24.515625 
Q 13.234375 26.265625 9.515625 29.90625 
Q 5.8125 33.546875 5.8125 39.890625 
Q 5.8125 47.609375 11.28125 51.796875 
Q 16.75 56 26.8125 56 
Q 31.78125 56 36.171875 55.265625 
Q 40.578125 54.546875 44.28125 53.078125 
z
" id="DejaVuSans-115"/>
       <path id="DejaVuSans-32"/>
       <path d="M 25.390625 72.90625 
L 33.6875 72.90625 
L 8.296875 -9.28125 
L 0 -9.28125 
z
" id="DejaVuSans-47"/>
       <path d="M 45.40625 46.390625 
L 45.40625 75.984375 
L 54.390625 75.984375 
L 54.390625 0 
L 45.40625 0 
L 45.40625 8.203125 
Q 42.578125 3.328125 38.25 0.953125 
Q 33.9375 -1.421875 27.875 -1.421875 
Q 17.96875 -1.421875 11.734375 6.484375 
Q 5.515625 14.40625 5.515625 27.296875 
Q 5.515625 40.1875 11.734375 48.09375 
Q 17.96875 56 27.875 56 
Q 33.9375 56 38.25 53.625 
Q 42.578125 51.265625 45.40625 46.390625 
z
M 14.796875 27.296875 
Q 14.796875 17.390625 18.875 11.75 
Q 22.953125 6.109375 30.078125 6.109375 
Q 37.203125 6.109375 41.296875 11.75 
Q 45.40625 17.390625 45.40625 27.296875 
Q 45.40625 37.203125 41.296875 42.84375 
Q 37.203125 48.484375 30.078125 48.484375 
Q 22.953125 48.484375 18.875 42.84375 
Q 14.796875 37.203125 14.796875 27.296875 
z
" id="DejaVuSans-100"/>
       <path d="M 9.421875 54.6875 
L 18.40625 54.6875 
L 18.40625 0 
L 9.421875 0 
z
M 9.421875 75.984375 
L 18.40625 75.984375 
L 18.40625 64.59375 
L 9.421875 64.59375 
z
" id="DejaVuSans-105"/>
       <path d="M 52 44.1875 
Q 55.375 50.25 60.0625 53.125 
Q 64.75 56 71.09375 56 
Q 79.640625 56 84.28125 50.015625 
Q 88.921875 44.046875 88.921875 33.015625 
L 88.921875 0 
L 79.890625 0 
L 79.890625 32.71875 
Q 79.890625 40.578125 77.09375 44.375 
Q 74.3125 48.1875 68.609375 48.1875 
Q 61.625 48.1875 57.5625 43.546875 
Q 53.515625 38.921875 53.515625 30.90625 
L 53.515625 0 
L 44.484375 0 
L 44.484375 32.71875 
Q 44.484375 40.625 41.703125 44.40625 
Q 38.921875 48.1875 33.109375 48.1875 
Q 26.21875 48.1875 22.15625 43.53125 
Q 18.109375 38.875 18.109375 30.90625 
L 18.109375 0 
L 9.078125 0 
L 9.078125 54.6875 
L 18.109375 54.6875 
L 18.109375 46.1875 
Q 21.1875 51.21875 25.484375 53.609375 
Q 29.78125 56 35.6875 56 
Q 41.65625 56 45.828125 52.96875 
Q 50 49.953125 52 44.1875 
z
" id="DejaVuSans-109"/>
       <path d="M 54.890625 33.015625 
L 54.890625 0 
L 45.90625 0 
L 45.90625 32.71875 
Q 45.90625 40.484375 42.875 44.328125 
Q 39.84375 48.1875 33.796875 48.1875 
Q 26.515625 48.1875 22.3125 43.546875 
Q 18.109375 38.921875 18.109375 30.90625 
L 18.109375 0 
L 9.078125 0 
L 9.078125 54.6875 
L 18.109375 54.6875 
L 18.109375 46.1875 
Q 21.34375 51.125 25.703125 53.5625 
Q 30.078125 56 35.796875 56 
Q 45.21875 56 50.046875 50.171875 
Q 54.890625 44.34375 54.890625 33.015625 
z
" id="DejaVuSans-110"/>
       <path d="M 8.015625 75.875 
L 15.828125 75.875 
Q 23.140625 64.359375 26.78125 53.3125 
Q 30.421875 42.28125 30.421875 31.390625 
Q 30.421875 20.453125 26.78125 9.375 
Q 23.140625 -1.703125 15.828125 -13.1875 
L 8.015625 -13.1875 
Q 14.5 -2 17.703125 9.0625 
Q 20.90625 20.125 20.90625 31.390625 
Q 20.90625 42.671875 17.703125 53.65625 
Q 14.5 64.65625 8.015625 75.875 
z
" id="DejaVuSans-41"/>
      </defs>
      <use xlink:href="#DejaVuSans-108"/>
      <use x="27.783203" xlink:href="#DejaVuSans-111"/>
      <use x="88.964844" xlink:href="#DejaVuSans-103"/>
      <use x="152.441406" xlink:href="#DejaVuSans-49"/>
      <use x="216.064453" xlink:href="#DejaVuSans-48"/>
      <use x="279.6875" xlink:href="#DejaVuSans-40"/>
      <use x="318.701172" xlink:href="#DejaVuSans-101"/>
      <use x="380.224609" xlink:href="#DejaVuSans-118"/>
      <use x="439.404297" xlink:href="#DejaVuSans-97"/>
      <use x="500.683594" xlink:href="#DejaVuSans-108"/>
      <use x="528.466797" xlink:href="#DejaVuSans-115"/>
      <use x="580.566406" xlink:href="#DejaVuSans-32"/>
      <use x="612.353516" xlink:href="#DejaVuSans-47"/>
      <use x="646.044922" xlink:href="#DejaVuSans-32"/>
      <use x="677.832031" xlink:href="#DejaVuSans-100"/>
      <use x="741.308594" xlink:href="#DejaVuSans-105"/>
      <use x="769.091797" xlink:href="#DejaVuSans-109"/>
      <use x="866.503906" xlink:href="#DejaVuSans-101"/>
      <use x="928.027344" xlink:href="#DejaVuSans-110"/>
      <use x="991.40625" xlink:href="#DejaVuSans-115"/>
      <use x="1043.505859" xlink:href="#DejaVuSans-105"/>
      <use x="1071.289062" xlink:href="#DejaVuSans-111"/>
      <use x="1132.470703" xlink:href="#DejaVuSans-110"/>
      <use x="1195.849609" xlink:href="#DejaVuSans-41"/>
     </g>
    </g>
   </g>
   <g id="matplotlib.axis_2">
    <g id="ytick_1">
     <g id="line2d_17">
      <path clip-path="url(#p0d3a89320d)" d="M 57.6 298.944 
L 360.8064 298.944 
" style="fill:none;stroke:#b0b0b0;stroke-linecap:square;stroke-width:0.8;"/>
     </g>
     <g id="line2d_18">
      <defs>
       <path d="M 0 0 
L -3.5 0 
" id="mb3ce5a94ca" style="stroke:#000000;stroke-width:0.8;"/>
      </defs>
      <g>
       <use style="stroke:#000000;stroke-width:0.8;" x="57.6" xlink:href="#mb3ce5a94ca" y="298.944"/>
      </g>
     </g>
     <g id="text_6">
      <!-- 0.0 -->
      <g transform="translate(25.155 305.02275)scale(0.16 -0.16)">
       <defs>
        <path d="M 10.6875 12.40625 
L 21 12.40625 
L 21 0 
L 10.6875 0 
z
" id="DejaVuSans-46"/>
       </defs>
       <use xlink:href="#DejaVuSans-48"/>
       <use x="63.623047" xlink:href="#DejaVuSans-46"/>
       <use x="95.410156" xlink:href="#DejaVuSans-48"/>
      </g>
     </g>
    </g>
    <g id="ytick_2">
     <g id="line2d_19">
      <path clip-path="url(#p0d3a89320d)" d="M 57.6 240.5376 
L 360.8064 240.5376 
" style="fill:none;stroke:#b0b0b0;stroke-linecap:square;stroke-width:0.8;"/>
     </g>
     <g id="line2d_20">
      <g>
       <use style="stroke:#000000;stroke-width:0.8;" x="57.6" xlink:href="#mb3ce5a94ca" y="240.5376"/>
      </g>
     </g>
     <g id="text_7">
      <!-- 0.2 -->
      <g transform="translate(25.155 246.61635)scale(0.16 -0.16)">
       <use xlink:href="#DejaVuSans-48"/>
       <use x="63.623047" xlink:href="#DejaVuSans-46"/>
       <use x="95.410156" xlink:href="#DejaVuSans-50"/>
      </g>
     </g>
    </g>
    <g id="ytick_3">
     <g id="line2d_21">
      <path clip-path="url(#p0d3a89320d)" d="M 57.6 182.1312 
L 360.8064 182.1312 
" style="fill:none;stroke:#b0b0b0;stroke-linecap:square;stroke-width:0.8;"/>
     </g>
     <g id="line2d_22">
      <g>
       <use style="stroke:#000000;stroke-width:0.8;" x="57.6" xlink:href="#mb3ce5a94ca" y="182.1312"/>
      </g>
     </g>
     <g id="text_8">
      <!-- 0.4 -->
      <g transform="translate(25.155 188.20995)scale(0.16 -0.16)">
       <use xlink:href="#DejaVuSans-48"/>
       <use x="63.623047" xlink:href="#DejaVuSans-46"/>
       <use x="95.410156" xlink:href="#DejaVuSans-52"/>
      </g>
     </g>
    </g>
    <g id="ytick_4">
     <g id="line2d_23">
      <path clip-path="url(#p0d3a89320d)" d="M 57.6 123.7248 
L 360.8064 123.7248 
" style="fill:none;stroke:#b0b0b0;stroke-linecap:square;stroke-width:0.8;"/>
     </g>
     <g id="line2d_24">
      <g>
       <use style="stroke:#000000;stroke-width:0.8;" x="57.6" xlink:href="#mb3ce5a94ca" y="123.7248"/>
      </g>
     </g>
     <g id="text_9">
      <!-- 0.6 -->
      <g transform="translate(25.155 129.80355)scale(0.16 -0.16)">
       <use xlink:href="#DejaVuSans-48"/>
       <use x="63.623047" xlink:href="#DejaVuSans-46"/>
       <use x="95.410156" xlink:href="#DejaVuSans-54"/>
      </g>
     </g>
    </g>
    <g id="ytick_5">
     <g id="line2d_25">
      <path clip-path="url(#p0d3a89320d)" d="M 57.6 65.3184 
L 360.8064 65.3184 
" style="fill:none;stroke:#b0b0b0;stroke-linecap:square;stroke-width:0.8;"/>
     </g>
     <g id="line2d_26">
      <g>
       <use style="stroke:#000000;stroke-width:0.8;" x="57.6" xlink:href="#mb3ce5a94ca" y="65.3184"/>
      </g>
     </g>
     <g id="text_10">
      <!-- 0.8 -->
      <g transform="translate(25.155 71.39715)scale(0.16 -0.16)">
       <defs>
        <path d="M 31.78125 34.625 
Q 24.75 34.625 20.71875 30.859375 
Q 16.703125 27.09375 16.703125 20.515625 
Q 16.703125 13.921875 20.71875 10.15625 
Q 24.75 6.390625 31.78125 6.390625 
Q 38.8125 6.390625 42.859375 10.171875 
Q 46.921875 13.96875 46.921875 20.515625 
Q 46.921875 27.09375 42.890625 30.859375 
Q 38.875 34.625 31.78125 34.625 
z
M 21.921875 38.8125 
Q 15.578125 40.375 12.03125 44.71875 
Q 8.5 49.078125 8.5 55.328125 
Q 8.5 64.0625 14.71875 69.140625 
Q 20.953125 74.21875 31.78125 74.21875 
Q 42.671875 74.21875 48.875 69.140625 
Q 55.078125 64.0625 55.078125 55.328125 
Q 55.078125 49.078125 51.53125 44.71875 
Q 48 40.375 41.703125 38.8125 
Q 48.828125 37.15625 52.796875 32.3125 
Q 56.78125 27.484375 56.78125 20.515625 
Q 56.78125 9.90625 50.3125 4.234375 
Q 43.84375 -1.421875 31.78125 -1.421875 
Q 19.734375 -1.421875 13.25 4.234375 
Q 6.78125 9.90625 6.78125 20.515625 
Q 6.78125 27.484375 10.78125 32.3125 
Q 14.796875 37.15625 21.921875 38.8125 
z
M 18.3125 54.390625 
Q 18.3125 48.734375 21.84375 45.5625 
Q 25.390625 42.390625 31.78125 42.390625 
Q 38.140625 42.390625 41.71875 45.5625 
Q 45.3125 48.734375 45.3125 54.390625 
Q 45.3125 60.0625 41.71875 63.234375 
Q 38.140625 66.40625 31.78125 66.40625 
Q 25.390625 66.40625 21.84375 63.234375 
Q 18.3125 60.0625 18.3125 54.390625 
z
" id="DejaVuSans-56"/>
       </defs>
       <use xlink:href="#DejaVuSans-48"/>
       <use x="63.623047" xlink:href="#DejaVuSans-46"/>
       <use x="95.410156" xlink:href="#DejaVuSans-56"/>
      </g>
     </g>
    </g>
    <g id="ytick_6">
     <g id="line2d_27">
      <path clip-path="url(#p0d3a89320d)" d="M 57.6 6.912 
L 360.8064 6.912 
" style="fill:none;stroke:#b0b0b0;stroke-linecap:square;stroke-width:0.8;"/>
     </g>
     <g id="line2d_28">
      <g>
       <use style="stroke:#000000;stroke-width:0.8;" x="57.6" xlink:href="#mb3ce5a94ca" y="6.912"/>
      </g>
     </g>
     <g id="text_11">
      <!-- 1.0 -->
      <g transform="translate(25.155 12.99075)scale(0.16 -0.16)">
       <use xlink:href="#DejaVuSans-49"/>
       <use x="63.623047" xlink:href="#DejaVuSans-46"/>
       <use x="95.410156" xlink:href="#DejaVuSans-48"/>
      </g>
     </g>
    </g>
    <g id="text_12">
     <!-- Fraction of function,target pairs -->
     <g transform="translate(17.619531 287.313)rotate(-90)scale(0.17 -0.17)">
      <defs>
       <path d="M 9.8125 72.90625 
L 51.703125 72.90625 
L 51.703125 64.59375 
L 19.671875 64.59375 
L 19.671875 43.109375 
L 48.578125 43.109375 
L 48.578125 34.8125 
L 19.671875 34.8125 
L 19.671875 0 
L 9.8125 0 
z
" id="DejaVuSans-70"/>
       <path d="M 41.109375 46.296875 
Q 39.59375 47.171875 37.8125 47.578125 
Q 36.03125 48 33.890625 48 
Q 26.265625 48 22.1875 43.046875 
Q 18.109375 38.09375 18.109375 28.8125 
L 18.109375 0 
L 9.078125 0 
L 9.078125 54.6875 
L 18.109375 54.6875 
L 18.109375 46.1875 
Q 20.953125 51.171875 25.484375 53.578125 
Q 30.03125 56 36.53125 56 
Q 37.453125 56 38.578125 55.875 
Q 39.703125 55.765625 41.0625 55.515625 
z
" id="DejaVuSans-114"/>
       <path d="M 48.78125 52.59375 
L 48.78125 44.1875 
Q 44.96875 46.296875 41.140625 47.34375 
Q 37.3125 48.390625 33.40625 48.390625 
Q 24.65625 48.390625 19.8125 42.84375 
Q 14.984375 37.3125 14.984375 27.296875 
Q 14.984375 17.28125 19.8125 11.734375 
Q 24.65625 6.203125 33.40625 6.203125 
Q 37.3125 6.203125 41.140625 7.25 
Q 44.96875 8.296875 48.78125 10.40625 
L 48.78125 2.09375 
Q 45.015625 0.34375 40.984375 -0.53125 
Q 36.96875 -1.421875 32.421875 -1.421875 
Q 20.0625 -1.421875 12.78125 6.34375 
Q 5.515625 14.109375 5.515625 27.296875 
Q 5.515625 40.671875 12.859375 48.328125 
Q 20.21875 56 33.015625 56 
Q 37.15625 56 41.109375 55.140625 
Q 45.0625 54.296875 48.78125 52.59375 
z
" id="DejaVuSans-99"/>
       <path d="M 18.3125 70.21875 
L 18.3125 54.6875 
L 36.8125 54.6875 
L 36.8125 47.703125 
L 18.3125 47.703125 
L 18.3125 18.015625 
Q 18.3125 11.328125 20.140625 9.421875 
Q 21.96875 7.515625 27.59375 7.515625 
L 36.8125 7.515625 
L 36.8125 0 
L 27.59375 0 
Q 17.1875 0 13.234375 3.875 
Q 9.28125 7.765625 9.28125 18.015625 
L 9.28125 47.703125 
L 2.6875 47.703125 
L 2.6875 54.6875 
L 9.28125 54.6875 
L 9.28125 70.21875 
z
" id="DejaVuSans-116"/>
       <path d="M 37.109375 75.984375 
L 37.109375 68.5 
L 28.515625 68.5 
Q 23.6875 68.5 21.796875 66.546875 
Q 19.921875 64.59375 19.921875 59.515625 
L 19.921875 54.6875 
L 34.71875 54.6875 
L 34.71875 47.703125 
L 19.921875 47.703125 
L 19.921875 0 
L 10.890625 0 
L 10.890625 47.703125 
L 2.296875 47.703125 
L 2.296875 54.6875 
L 10.890625 54.6875 
L 10.890625 58.5 
Q 10.890625 67.625 15.140625 71.796875 
Q 19.390625 75.984375 28.609375 75.984375 
z
" id="DejaVuSans-102"/>
       <path d="M 8.5 21.578125 
L 8.5 54.6875 
L 17.484375 54.6875 
L 17.484375 21.921875 
Q 17.484375 14.15625 20.5 10.265625 
Q 23.53125 6.390625 29.59375 6.390625 
Q 36.859375 6.390625 41.078125 11.03125 
Q 45.3125 15.671875 45.3125 23.6875 
L 45.3125 54.6875 
L 54.296875 54.6875 
L 54.296875 0 
L 45.3125 0 
L 45.3125 8.40625 
Q 42.046875 3.421875 37.71875 1 
Q 33.40625 -1.421875 27.6875 -1.421875 
Q 18.265625 -1.421875 13.375 4.4375 
Q 8.5 10.296875 8.5 21.578125 
z
M 31.109375 56 
z
" id="DejaVuSans-117"/>
       <path d="M 11.71875 12.40625 
L 22.015625 12.40625 
L 22.015625 4 
L 14.015625 -11.625 
L 7.71875 -11.625 
L 11.71875 4 
z
" id="DejaVuSans-44"/>
       <path d="M 18.109375 8.203125 
L 18.109375 -20.796875 
L 9.078125 -20.796875 
L 9.078125 54.6875 
L 18.109375 54.6875 
L 18.109375 46.390625 
Q 20.953125 51.265625 25.265625 53.625 
Q 29.59375 56 35.59375 56 
Q 45.5625 56 51.78125 48.09375 
Q 58.015625 40.1875 58.015625 27.296875 
Q 58.015625 14.40625 51.78125 6.484375 
Q 45.5625 -1.421875 35.59375 -1.421875 
Q 29.59375 -1.421875 25.265625 0.953125 
Q 20.953125 3.328125 18.109375 8.203125 
z
M 48.6875 27.296875 
Q 48.6875 37.203125 44.609375 42.84375 
Q 40.53125 48.484375 33.40625 48.484375 
Q 26.265625 48.484375 22.1875 42.84375 
Q 18.109375 37.203125 18.109375 27.296875 
Q 18.109375 17.390625 22.1875 11.75 
Q 26.265625 6.109375 33.40625 6.109375 
Q 40.53125 6.109375 44.609375 11.75 
Q 48.6875 17.390625 48.6875 27.296875 
z
" id="DejaVuSans-112"/>
      </defs>
      <use xlink:href="#DejaVuSans-70"/>
      <use x="50.269531" xlink:href="#DejaVuSans-114"/>
      <use x="91.382812" xlink:href="#DejaVuSans-97"/>
      <use x="152.662109" xlink:href="#DejaVuSans-99"/>
      <use x="207.642578" xlink:href="#DejaVuSans-116"/>
      <use x="246.851562" xlink:href="#DejaVuSans-105"/>
      <use x="274.634766" xlink:href="#DejaVuSans-111"/>
      <use x="335.816406" xlink:href="#DejaVuSans-110"/>
      <use x="399.195312" xlink:href="#DejaVuSans-32"/>
      <use x="430.982422" xlink:href="#DejaVuSans-111"/>
      <use x="492.164062" xlink:href="#DejaVuSans-102"/>
      <use x="527.369141" xlink:href="#DejaVuSans-32"/>
      <use x="559.15625" xlink:href="#DejaVuSans-102"/>
      <use x="594.361328" xlink:href="#DejaVuSans-117"/>
      <use x="657.740234" xlink:href="#DejaVuSans-110"/>
      <use x="721.119141" xlink:href="#DejaVuSans-99"/>
      <use x="776.099609" xlink:href="#DejaVuSans-116"/>
      <use x="815.308594" xlink:href="#DejaVuSans-105"/>
      <use x="843.091797" xlink:href="#DejaVuSans-111"/>
      <use x="904.273438" xlink:href="#DejaVuSans-110"/>
      <use x="967.652344" xlink:href="#DejaVuSans-44"/>
      <use x="999.439453" xlink:href="#DejaVuSans-116"/>
      <use x="1038.648438" xlink:href="#DejaVuSans-97"/>
      <use x="1099.927734" xlink:href="#DejaVuSans-114"/>
      <use x="1139.291016" xlink:href="#DejaVuSans-103"/>
      <use x="1202.767578" xlink:href="#DejaVuSans-101"/>
      <use x="1264.291016" xlink:href="#DejaVuSans-116"/>
      <use x="1303.5" xlink:href="#DejaVuSans-32"/>
      <use x="1335.287109" xlink:href="#DejaVuSans-112"/>
      <use x="1398.763672" xlink:href="#DejaVuSans-97"/>
      <use x="1460.042969" xlink:href="#DejaVuSans-105"/>
      <use x="1487.826172" xlink:href="#DejaVuSans-114"/>
      <use x="1528.939453" xlink:href="#DejaVuSans-115"/>
     </g>
    </g>
   </g>
   <g id="line2d_29">
    <defs>
     <path d="M 0 1.5 
C 0.397805 1.5 0.77937 1.341951 1.06066 1.06066 
C 1.341951 0.77937 1.5 0.397805 1.5 0 
C 1.5 -0.397805 1.341951 -0.77937 1.06066 -1.06066 
C 0.77937 -1.341951 0.397805 -1.5 0 -1.5 
C -0.397805 -1.5 -0.77937 -1.341951 -1.06066 -1.06066 
C -1.341951 -0.77937 -1.5 -0.397805 -1.5 0 
C -1.5 0.397805 -1.341951 0.77937 -1.06066 1.06066 
C -0.77937 1.341951 -0.397805 1.5 0 1.5 
z
" id="m5dc909d611" style="stroke:#000080;"/>
    </defs>
    <g>
     <use style="fill:#000080;stroke:#000080;" x="275.985697" xlink:href="#m5dc909d611" y="222.968195"/>
     <use style="fill:#000080;stroke:#000080;" x="275.985697" xlink:href="#m5dc909d611" y="222.968195"/>
    </g>
   </g>
   <g id="line2d_30">
    <path d="M 170.331074 298.944 
L 170.331074 298.891239 
L 172.679508 298.785717 
L 172.679508 298.732956 
L 173.684536 298.627434 
L 173.684536 298.574673 
L 174.333508 298.469151 
L 174.333508 298.41639 
L 174.742899 298.310868 
L 174.772598 298.205346 
L 175.121736 298.099824 
L 175.221604 297.941541 
L 175.677827 297.83602 
L 175.677827 297.783259 
L 175.927165 297.677737 
L 175.967241 297.519454 
L 176.265981 297.413932 
L 176.368491 297.255649 
L 176.603851 297.150127 
L 176.687797 297.044605 
L 176.962193 296.939083 
L 177.016595 296.7808 
L 177.294382 296.675278 
L 177.294382 296.622517 
L 177.662208 296.516995 
L 177.662208 296.411473 
L 177.828487 296.305951 
L 177.904013 296.147668 
L 178.02454 296.042146 
L 178.02454 295.989385 
L 178.246348 295.883863 
L 178.338641 295.620059 
L 178.489941 295.514537 
L 178.546176 295.409015 
L 178.655128 295.303493 
L 178.725911 295.14521 
L 178.932214 295.039688 
L 178.932214 294.986927 
L 179.196484 294.881405 
L 179.237489 294.723122 
L 179.367234 294.6176 
L 179.367234 294.564839 
L 179.570971 294.459317 
L 179.668444 294.353795 
L 179.736946 294.248273 
L 179.736946 294.195512 
L 179.877448 294.08999 
L 179.898645 293.931707 
L 180.163699 293.826185 
L 180.267853 293.404098 
L 180.348006 293.298576 
L 180.444288 293.140293 
L 180.636746 293.034771 
L 180.695049 292.770966 
L 180.888991 292.665444 
L 180.989217 292.559922 
L 181.021176 292.4544 
L 181.11673 292.296117 
L 181.169607 292.190595 
L 181.255216 291.979551 
L 181.404427 291.874029 
L 181.42918 291.768507 
L 181.538229 291.662985 
L 181.638926 291.240898 
L 181.718585 291.135376 
L 181.815773 290.766049 
L 181.869267 290.660527 
L 181.927682 290.396722 
L 182.022537 290.2912 
L 182.109383 290.132917 
L 182.174568 290.027395 
L 182.235786 289.869112 
L 182.367541 289.76359 
L 182.463906 289.288741 
L 182.52542 289.18322 
L 182.590405 289.024937 
L 182.78645 288.919415 
L 182.860197 288.708371 
L 182.932454 288.602849 
L 183.035541 288.286283 
L 183.109511 288.233522 
L 183.191492 287.916956 
L 183.250675 287.811434 
L 183.349687 287.442107 
L 183.408376 287.336585 
L 183.519383 286.703454 
L 183.613516 286.597932 
L 183.691026 286.386888 
L 183.847382 286.281366 
L 183.944449 285.9648 
L 184.016071 285.859278 
L 184.090812 285.595473 
L 184.167509 285.489951 
L 184.259583 285.278907 
L 184.332249 285.173385 
L 184.392405 284.90958 
L 184.528713 284.85682 
L 184.627828 284.381971 
L 184.666233 284.276449 
L 184.766809 283.8016 
L 184.813634 283.696078 
L 184.92208 283.27399 
L 185.065351 283.168468 
L 185.124282 282.799141 
L 185.228829 282.69362 
L 185.31904 282.271532 
L 185.368736 282.16601 
L 185.440405 282.007727 
L 185.509706 281.902205 
L 185.59754 281.743922 
L 185.714017 281.6384 
L 185.795744 281.321834 
L 185.876089 281.216312 
L 185.986772 280.899746 
L 186.035757 280.794224 
L 186.130303 280.319376 
L 186.29789 280.213854 
L 186.38613 279.739005 
L 186.588118 279.633483 
L 186.675009 279.316917 
L 186.723219 279.211395 
L 186.83002 278.789307 
L 186.87491 278.683785 
L 186.977947 278.208937 
L 187.205344 278.103415 
L 187.313259 277.83961 
L 187.351311 277.734088 
L 187.448943 277.048195 
L 187.523483 276.942673 
L 187.595854 276.626107 
L 187.706221 276.520585 
L 187.773248 276.151259 
L 187.865945 276.045737 
L 187.922267 275.781932 
L 188.037157 275.67641 
L 188.146795 275.1488 
L 188.187745 275.096039 
L 188.298319 274.568429 
L 188.30916 274.462907 
L 188.39027 274.09358 
L 188.470136 273.988059 
L 188.579957 273.565971 
L 188.660797 273.460449 
L 188.758935 273.038361 
L 188.814408 272.932839 
L 188.908251 272.721795 
L 189.034679 272.616273 
L 189.098009 272.352468 
L 189.188728 272.246946 
L 189.297873 271.719337 
L 189.356053 271.613815 
L 189.466782 271.191727 
L 189.532062 271.086205 
L 189.641763 270.769639 
L 189.672869 270.664117 
L 189.738276 270.347551 
L 189.852609 270.242029 
L 189.95798 269.608898 
L 190.014982 269.503376 
L 190.123551 269.028527 
L 190.153052 268.923005 
L 190.258387 268.395395 
L 190.328284 268.289873 
L 190.436678 267.60398 
L 190.476159 267.498459 
L 190.586107 267.076371 
L 190.626075 266.970849 
L 190.721652 266.601522 
L 190.782726 266.496 
L 190.883815 265.810107 
L 190.94201 265.704585 
L 191.003939 265.493541 
L 191.120968 265.38802 
L 191.226448 264.965932 
L 191.303632 264.86041 
L 191.378199 264.596605 
L 191.427236 264.491083 
L 191.53254 263.857951 
L 191.613785 263.752429 
L 191.701469 263.383102 
L 191.74591 263.27758 
L 191.844211 262.69721 
L 191.877861 262.591688 
L 191.9673 262.275122 
L 192.021501 262.1696 
L 192.106571 261.747512 
L 192.241888 261.64199 
L 192.339825 261.378185 
L 192.38424 261.272663 
L 192.477099 261.008859 
L 192.537069 260.903337 
L 192.639225 260.375727 
L 192.668618 260.270205 
L 192.755097 260.0064 
L 192.799255 259.900878 
L 192.890801 259.426029 
L 192.927577 259.320507 
L 193.005841 258.845659 
L 193.061345 258.740137 
L 193.157212 258.265288 
L 193.210183 258.159766 
L 193.319142 257.473873 
L 193.355091 257.368351 
L 193.448102 257.104546 
L 193.484492 256.999024 
L 193.577549 256.629698 
L 193.646361 256.524176 
L 193.726438 256.20761 
L 193.777833 256.102088 
L 193.884904 255.732761 
L 193.943903 255.627239 
L 194.053364 255.099629 
L 194.067335 254.994107 
L 194.174759 254.413737 
L 194.21637 254.308215 
L 194.32623 253.991649 
L 194.350483 253.886127 
L 194.461518 253.411278 
L 194.497302 253.305756 
L 194.604245 252.830907 
L 194.670696 252.725385 
L 194.767693 252.356059 
L 194.806096 252.250537 
L 194.910031 251.617405 
L 194.961467 251.511883 
L 195.058242 250.931512 
L 195.08976 250.82599 
L 195.172088 250.403902 
L 195.258427 250.29838 
L 195.361761 249.612488 
L 195.44909 249.506966 
L 195.555687 248.926595 
L 195.582702 248.821073 
L 195.670235 248.08242 
L 195.7379 247.976898 
L 195.848323 247.396527 
L 195.907514 247.291005 
L 196.018148 246.552351 
L 196.069037 246.446829 
L 196.133498 246.183024 
L 196.216138 246.130263 
L 196.316127 245.760937 
L 196.353854 245.655415 
L 196.393857 245.286088 
L 203.321567 245.180566 
L 203.321567 245.127805 
L 203.939916 245.022283 
L 203.939916 244.969522 
L 204.867662 244.864 
L 204.899844 244.705717 
L 205.648242 244.600195 
L 205.75787 244.389151 
L 205.883903 244.283629 
L 205.961098 244.178107 
L 206.271965 244.072585 
L 206.32819 243.861541 
L 206.459765 243.75602 
L 206.521951 243.650498 
L 206.611604 243.544976 
L 206.690635 243.281171 
L 206.981404 243.22841 
L 207.076893 242.753561 
L 207.190446 242.648039 
L 207.289492 242.384234 
L 207.401446 242.278712 
L 207.48245 242.120429 
L 207.621108 242.014907 
L 207.725642 241.803863 
L 207.875618 241.698341 
L 207.96859 241.381776 
L 208.047826 241.329015 
L 208.127674 240.959688 
L 208.235702 240.854166 
L 208.327539 240.695883 
L 208.374223 240.590361 
L 208.455486 240.273795 
L 208.512656 240.168273 
L 208.590867 240.00999 
L 208.701774 239.904468 
L 208.796841 239.324098 
L 208.869946 239.218576 
L 208.933417 238.849249 
L 209.031826 238.743727 
L 209.134798 238.057834 
L 209.205117 237.952312 
L 209.302711 237.31918 
L 209.389495 237.213659 
L 209.423039 236.897093 
L 214.176685 236.791571 
L 214.176685 236.73881 
L 215.092487 236.633288 
L 215.13333 236.527766 
L 215.396883 236.422244 
L 215.396883 236.369483 
L 215.652996 236.263961 
L 215.730732 236.052917 
L 215.944578 235.947395 
L 216.036639 235.68359 
L 216.139776 235.578068 
L 216.228228 235.261502 
L 216.414439 235.15598 
L 216.524199 234.839415 
L 216.566879 234.733893 
L 216.620895 234.628371 
L 216.702328 234.522849 
L 216.809433 234.100761 
L 216.862164 234.100761 
L 216.965412 233.573151 
L 217.028896 233.467629 
L 217.047135 233.362107 
L 221.286303 233.256585 
L 221.328659 233.151063 
L 221.48847 233.045541 
L 221.599443 232.94002 
L 221.830848 232.834498 
L 221.929848 232.676215 
L 222.011927 232.623454 
L 222.112077 232.306888 
L 222.168599 232.201366 
L 222.274158 231.832039 
L 222.3019 231.779278 
L 222.407158 231.198907 
L 225.843751 231.093385 
L 225.849277 230.935102 
L 226.002483 230.82958 
L 226.052708 230.671298 
L 226.208007 230.565776 
L 226.30556 230.407493 
L 226.361676 230.301971 
L 226.45927 230.090927 
L 226.533762 229.985405 
L 226.596873 229.563317 
L 229.545125 229.457795 
L 229.618617 229.352273 
L 229.859026 229.246751 
L 229.961915 228.771902 
L 230.012067 228.66638 
L 230.056294 228.349815 
L 232.766987 228.244293 
L 232.766987 228.191532 
L 232.919273 228.138771 
L 232.998944 227.663922 
L 235.135971 227.5584 
L 235.135971 227.505639 
L 235.371737 227.400117 
L 235.464457 227.189073 
L 237.29418 227.083551 
L 237.334959 226.978029 
L 237.602986 226.872507 
L 237.69818 226.714224 
L 239.303228 226.661463 
L 239.310433 226.50318 
L 239.614738 226.397659 
L 239.672587 225.975571 
L 241.357246 225.870049 
L 241.42383 225.711766 
L 243.08943 225.606244 
L 243.132343 225.500722 
L 244.58382 225.3952 
L 244.601407 225.236917 
L 245.958953 225.131395 
L 245.996306 224.973112 
L 247.291221 224.86759 
L 247.331313 224.709307 
L 248.513533 224.603785 
L 248.513533 224.551024 
L 250.750429 224.445502 
L 250.750429 224.392741 
L 252.546412 224.28722 
L 252.546412 224.234459 
L 255.201998 224.128937 
L 255.201998 224.076176 
L 256.154634 223.970654 
L 256.154634 223.917893 
L 258.383128 223.812371 
L 258.383128 223.75961 
L 260.360022 223.654088 
L 260.360022 223.601327 
L 262.697409 223.495805 
L 262.697409 223.443044 
L 264.30815 223.337522 
L 264.30815 223.284761 
L 266.691886 223.179239 
L 266.691886 223.126478 
L 275.985697 223.020956 
L 275.985697 222.968195 
L 360.8064 222.968195 
L 360.8064 222.968195 
" style="fill:none;stroke:#000080;stroke-linecap:square;stroke-width:1.5;"/>
   </g>
   <g id="line2d_31">
    <defs>
     <path d="M 0 6 
C 1.591219 6 3.117479 5.367802 4.242641 4.242641 
C 5.367802 3.117479 6 1.591219 6 0 
C 6 -1.591219 5.367802 -3.117479 4.242641 -4.242641 
C 3.117479 -5.367802 1.591219 -6 0 -6 
C -1.591219 -6 -3.117479 -5.367802 -4.242641 -4.242641 
C -5.367802 -3.117479 -6 -1.591219 -6 0 
C -6 1.591219 -5.367802 3.117479 -4.242641 4.242641 
C -3.117479 5.367802 -1.591219 6 0 6 
z
" id="m60bb551474" style="stroke:#000080;stroke-width:1.5;"/>
    </defs>
    <g>
     <use style="fill-opacity:0;stroke:#000080;stroke-width:1.5;" x="191.570548" xlink:href="#m60bb551474" y="263.857951"/>
     <use style="fill-opacity:0;stroke:#000080;stroke-width:1.5;" x="230.012067" xlink:href="#m60bb551474" y="228.66638"/>
     <use style="fill-opacity:0;stroke:#000080;stroke-width:1.5;" x="275.985697" xlink:href="#m60bb551474" y="222.968195"/>
     <use style="fill-opacity:0;stroke:#000080;stroke-width:1.5;" x="360.8064" xlink:href="#m60bb551474" y="222.968195"/>
    </g>
   </g>
   <g id="line2d_32">
    <path style="fill:none;stroke:#000080;stroke-linecap:square;stroke-width:1.5;"/>
    <g/>
   </g>
   <g id="line2d_33">
    <path clip-path="url(#p0d3a89320d)" d="M 196.393857 245.286088 
" style="fill:none;stroke:#000080;stroke-linecap:square;stroke-width:1.5;"/>
    <defs>
     <path d="M -12 12 
L 12 -12 
M -12 -12 
L 12 12 
" id="m9a13782126" style="stroke:#000080;"/>
    </defs>
    <g clip-path="url(#p0d3a89320d)">
     <use style="fill:#000080;stroke:#000080;" x="196.393857" xlink:href="#m9a13782126" y="245.286088"/>
    </g>
   </g>
   <g id="line2d_34">
    <defs>
     <path d="M 0 1.5 
C 0.397805 1.5 0.77937 1.341951 1.06066 1.06066 
C 1.341951 0.77937 1.5 0.397805 1.5 0 
C 1.5 -0.397805 1.341951 -0.77937 1.06066 -1.06066 
C 0.77937 -1.341951 0.397805 -1.5 0 -1.5 
C -0.397805 -1.5 -0.77937 -1.341951 -1.06066 -1.06066 
C -1.341951 -0.77937 -1.5 -0.397805 -1.5 0 
C -1.5 0.397805 -1.341951 0.77937 -1.06066 1.06066 
C -0.77937 1.341951 -0.397805 1.5 0 1.5 
z
" id="ma35edcb0d2" style="stroke:#ff00ff;"/>
    </defs>
    <g>
     <use style="fill:#ff00ff;stroke:#ff00ff;" x="346.050068" xlink:href="#ma35edcb0d2" y="109.795902"/>
     <use style="fill:#ff00ff;stroke:#ff00ff;" x="346.050068" xlink:href="#ma35edcb0d2" y="109.795902"/>
    </g>
   </g>
   <g id="line2d_35">
    <path d="M 187.343707 298.944 
L 187.343707 298.891239 
L 189.914907 298.785717 
L 190.012508 298.680195 
L 190.738328 298.574673 
L 190.738328 298.521912 
L 191.15904 298.41639 
L 191.186187 298.310868 
L 191.53254 298.205346 
L 191.601658 298.047063 
L 191.933065 297.941541 
L 192.006667 297.783259 
L 192.304071 297.677737 
L 192.304071 297.624976 
L 192.678645 297.519454 
L 192.759375 297.361171 
L 192.939585 297.255649 
L 192.99458 297.097366 
L 193.076072 296.991844 
L 193.155816 296.833561 
L 193.303219 296.728039 
L 193.36959 296.569756 
L 193.559111 296.464234 
L 193.659278 296.200429 
L 193.817635 296.094907 
L 193.864749 295.989385 
L 194.220988 295.883863 
L 194.220988 295.831102 
L 194.477141 295.72558 
L 194.532368 295.567298 
L 194.719578 295.461776 
L 194.823352 295.092449 
L 194.900491 294.986927 
L 195.001376 294.775883 
L 195.135681 294.670361 
L 195.225314 294.512078 
L 195.343128 294.406556 
L 195.411359 294.195512 
L 195.594969 294.08999 
L 195.702574 293.826185 
L 195.822293 293.720663 
L 195.822293 293.667902 
L 196.064851 293.56238 
L 196.175755 293.404098 
L 196.219104 293.351337 
L 196.288373 293.034771 
L 196.377984 292.929249 
L 196.470682 292.770966 
L 196.605392 292.665444 
L 196.671519 292.296117 
L 196.803654 292.190595 
L 196.889705 292.032312 
L 197.06744 291.92679 
L 197.149473 291.504702 
L 197.202462 291.39918 
L 197.202462 291.34642 
L 197.345463 291.293659 
L 197.455199 290.924332 
L 197.506228 290.81881 
L 197.506228 290.766049 
L 197.667827 290.660527 
L 197.719378 290.343961 
L 197.890564 290.238439 
L 197.998794 290.027395 
L 198.102648 289.921873 
L 198.203797 289.605307 
L 198.23686 289.499785 
L 198.337822 289.130459 
L 198.419786 289.024937 
L 198.494038 288.761132 
L 198.586312 288.65561 
L 198.670328 288.286283 
L 198.753969 288.180761 
L 198.812453 287.969717 
L 198.889806 287.864195 
L 198.984773 287.653151 
L 199.087412 287.547629 
L 199.190001 287.178302 
L 199.324246 287.07278 
L 199.432556 286.597932 
L 199.547204 286.49241 
L 199.6493 286.123083 
L 199.746911 286.017561 
L 199.8357 285.859278 
L 199.904091 285.753756 
L 200.004273 285.278907 
L 200.070605 285.173385 
L 200.158364 284.698537 
L 200.227511 284.593015 
L 200.332664 284.170927 
L 200.397375 284.065405 
L 200.49875 283.8016 
L 200.561481 283.696078 
L 200.659636 283.115707 
L 200.721833 283.010185 
L 200.832159 282.271532 
L 200.862767 282.16601 
L 200.943686 281.902205 
L 201.015987 281.796683 
L 201.108147 281.427356 
L 201.2176 281.321834 
L 201.316924 281.005268 
L 201.385103 280.899746 
L 201.4831 280.635941 
L 201.538614 280.53042 
L 201.640708 280.161093 
L 201.800093 280.055571 
L 201.910427 279.4752 
L 201.939331 279.369678 
L 202.030571 278.789307 
L 202.11877 278.683785 
L 202.188429 278.525502 
L 202.292649 278.41998 
L 202.3745 277.945132 
L 202.444923 277.83961 
L 202.528661 277.470283 
L 202.609071 277.364761 
L 202.705952 276.837151 
L 202.72401 276.731629 
L 202.830739 276.415063 
L 202.885751 276.309541 
L 202.98743 276.045737 
L 203.046525 275.940215 
L 203.136258 275.465366 
L 203.201846 275.359844 
L 203.304278 274.937756 
L 203.346963 274.832234 
L 203.457493 274.304624 
L 203.470003 274.199102 
L 203.533234 273.882537 
L 203.602662 273.777015 
L 203.69497 273.460449 
L 203.776114 273.354927 
L 203.88179 272.774556 
L 203.904274 272.669034 
L 203.990801 272.088663 
L 204.041744 271.983141 
L 204.133485 271.561054 
L 204.199185 271.455532 
L 204.309078 270.8224 
L 204.338762 270.716878 
L 204.449377 270.400312 
L 204.476165 270.29479 
L 204.542967 269.978224 
L 204.596619 269.872702 
L 204.675108 269.18681 
L 204.716684 269.081288 
L 204.826982 268.711961 
L 204.861107 268.606439 
L 204.965721 268.13159 
L 204.998851 268.078829 
L 205.094195 267.340176 
L 205.155154 267.234654 
L 205.262184 266.759805 
L 205.28784 266.654283 
L 205.38392 265.96839 
L 205.445038 265.862868 
L 205.549714 265.124215 
L 205.609937 265.018693 
L 205.717282 264.385561 
L 205.736961 264.280039 
L 205.838963 263.857951 
L 205.867041 263.752429 
L 205.967635 263.330341 
L 206.023015 263.22482 
L 206.111215 262.749971 
L 206.156734 262.644449 
L 206.254403 262.011317 
L 206.288468 261.905795 
L 206.385457 261.272663 
L 206.448922 261.167141 
L 206.554679 260.375727 
L 206.584445 260.270205 
L 206.693525 259.426029 
L 206.742744 259.320507 
L 206.846192 258.845659 
L 206.873818 258.740137 
L 206.984249 257.948722 
L 206.994621 257.895961 
L 207.098361 257.368351 
L 207.131596 257.262829 
L 207.225997 256.20761 
L 207.271867 256.102088 
L 207.382614 255.468956 
L 207.423201 255.363434 
L 207.524285 254.57202 
L 207.563918 254.466498 
L 207.671673 253.886127 
L 207.691668 253.780605 
L 207.795171 253.094712 
L 207.826239 252.98919 
L 207.901613 252.567102 
L 207.957947 252.46158 
L 208.066319 251.617405 
L 208.105774 251.511883 
L 208.215494 250.456663 
L 208.277147 250.351141 
L 208.387739 249.559727 
L 208.424356 249.454205 
L 208.535322 248.66279 
L 208.550725 248.557268 
L 208.656357 247.660332 
L 208.684813 247.55481 
L 208.790609 246.446829 
L 208.802463 246.341307 
L 208.912133 245.866459 
L 208.932361 245.760937 
L 209.037678 244.864 
L 209.073053 244.758478 
L 209.17997 244.283629 
L 209.195449 244.178107 
L 209.302563 243.439454 
L 209.322967 243.333932 
L 209.413188 242.225951 
L 209.467231 242.120429 
L 209.572812 241.276254 
L 209.594965 241.170732 
L 209.688532 240.379317 
L 209.721547 240.273795 
L 209.821398 239.693424 
L 209.861937 239.587902 
L 209.971615 238.638205 
L 209.983033 238.532683 
L 210.08832 237.84679 
L 210.127722 237.741268 
L 210.222628 237.108137 
L 210.252189 237.002615 
L 210.349829 235.947395 
L 210.397901 235.841873 
L 210.499788 234.892176 
L 210.517825 234.786654 
L 210.601402 234.048 
L 210.635887 233.942478 
L 210.746637 232.728976 
L 210.757594 232.623454 
L 210.851018 231.832039 
L 210.8981 231.726517 
L 211.007051 230.82958 
L 211.054823 230.724059 
L 211.142493 229.774361 
L 211.180553 229.668839 
L 211.287619 228.771902 
L 211.327247 228.66638 
L 211.430314 227.980488 
L 211.4422 227.874966 
L 211.545691 226.819746 
L 211.571409 226.714224 
L 211.666367 225.870049 
L 211.68723 225.764527 
L 211.797679 224.656546 
L 211.811148 224.551024 
L 211.920874 223.75961 
L 211.942485 223.654088 
L 212.051449 222.862673 
L 212.089247 222.757151 
L 212.197874 221.860215 
L 212.220183 221.754693 
L 212.323272 220.488429 
L 212.359271 220.382907 
L 212.468105 219.43321 
L 212.479353 219.327688 
L 212.587 218.483512 
L 212.595446 218.37799 
L 212.706383 217.428293 
L 212.725385 217.322771 
L 212.825258 216.21479 
L 212.870837 216.109268 
L 212.980896 215.581659 
L 212.997678 215.476137 
L 213.107483 214.5792 
L 213.115941 214.473678 
L 213.222177 213.47122 
L 213.246904 213.365698 
L 213.351928 212.627044 
L 213.363853 212.521522 
L 213.474155 211.571824 
L 213.507782 211.466302 
L 213.618893 210.358322 
L 213.629474 210.2528 
L 213.725375 209.777951 
L 213.747113 209.672429 
L 213.850319 208.775493 
L 213.879802 208.669971 
L 213.96428 207.773034 
L 214.005571 207.667512 
L 214.113788 206.665054 
L 214.137828 206.559532 
L 214.248474 205.979161 
L 214.258707 205.873639 
L 214.363221 204.765659 
L 214.403195 204.660137 
L 214.510501 203.921483 
L 214.541432 203.815961 
L 214.636148 202.813502 
L 214.668208 202.70798 
L 214.77645 201.758283 
L 214.798996 201.652761 
L 214.900778 200.861346 
L 214.928003 200.755824 
L 215.019269 200.069932 
L 215.042835 199.96441 
L 215.149165 199.278517 
L 215.166071 199.172995 
L 215.263305 198.276059 
L 215.296897 198.170537 
L 215.389178 197.379122 
L 215.4234 197.2736 
L 215.519317 196.429424 
L 215.560306 196.323902 
L 215.661016 195.321444 
L 215.681895 195.215922 
L 215.771682 194.741073 
L 215.840989 194.635551 
L 215.946656 193.791376 
L 215.976352 193.685854 
L 216.073627 192.630634 
L 216.104979 192.525112 
L 216.211432 191.944741 
L 216.24235 191.83922 
L 216.344572 190.784 
L 216.363892 190.678478 
L 216.468692 189.887063 
L 216.520571 189.781541 
L 216.631118 189.201171 
L 216.667157 189.095649 
L 216.776053 188.198712 
L 216.804271 188.09319 
L 216.912773 186.879688 
L 216.978795 186.774166 
L 217.084733 186.088273 
L 217.116594 185.982751 
L 217.22079 185.033054 
L 217.239815 184.927532 
L 217.346805 184.241639 
L 217.380152 184.188878 
L 217.478305 183.555746 
L 217.51161 183.450224 
L 217.615549 183.028137 
L 217.643296 182.922615 
L 217.739333 182.025678 
L 217.791786 181.920156 
L 217.895316 181.392546 
L 217.951447 181.287024 
L 218.056892 180.812176 
L 218.121431 180.706654 
L 218.228508 180.284566 
L 218.263453 180.179044 
L 218.35748 179.598673 
L 218.392734 179.493151 
L 218.497011 179.018302 
L 218.538344 178.91278 
L 218.624342 178.385171 
L 218.70995 178.279649 
L 218.803384 177.646517 
L 218.893337 177.540995 
L 219.003895 177.013385 
L 219.056993 176.907863 
L 219.146796 176.644059 
L 219.194772 176.538537 
L 219.302882 176.221971 
L 219.320088 176.116449 
L 219.421263 175.588839 
L 219.457339 175.483317 
L 219.547143 174.850185 
L 219.606433 174.744663 
L 219.715102 174.164293 
L 219.750959 174.058771 
L 219.85998 173.636683 
L 219.878539 173.531161 
L 219.966359 173.003551 
L 219.998055 172.898029 
L 220.098325 172.581463 
L 220.155407 172.475941 
L 220.255505 171.895571 
L 220.272852 171.790049 
L 220.38366 171.3152 
L 220.429569 171.209678 
L 220.538158 170.576546 
L 220.573132 170.471024 
L 220.679604 169.996176 
L 220.745744 169.890654 
L 220.853168 169.257522 
L 220.87813 169.152 
L 220.984803 168.571629 
L 220.997678 168.518868 
L 221.094511 168.149541 
L 221.144396 168.04402 
L 221.253807 167.463649 
L 221.29217 167.358127 
L 221.398549 166.936039 
L 221.433668 166.830517 
L 221.531223 166.302907 
L 221.56995 166.197385 
L 221.680904 165.828059 
L 221.727885 165.722537 
L 221.826819 165.247688 
L 221.871769 165.142166 
L 221.969348 164.8256 
L 222.017571 164.720078 
L 222.126373 164.086946 
L 222.171958 163.981424 
L 222.234252 163.559337 
L 222.307755 163.453815 
L 222.410622 162.926205 
L 222.458465 162.820683 
L 222.56256 162.240312 
L 222.631299 162.13479 
L 222.724011 161.765463 
L 222.780315 161.659941 
L 222.878768 161.185093 
L 222.934326 161.079571 
L 223.044808 160.657483 
L 223.067311 160.551961 
L 223.156912 160.024351 
L 223.216881 159.918829 
L 223.310974 159.655024 
L 223.367653 159.549502 
L 223.473816 159.180176 
L 223.530979 159.074654 
L 223.626696 158.758088 
L 223.6681 158.652566 
L 223.734571 158.336 
L 223.798891 158.230478 
L 223.883992 157.80839 
L 223.952829 157.702868 
L 224.06358 157.28078 
L 224.151527 157.175259 
L 224.26045 156.70041 
L 224.286882 156.594888 
L 224.396088 156.278322 
L 224.452768 156.1728 
L 224.557731 155.750712 
L 224.599107 155.64519 
L 224.681978 155.381385 
L 224.782685 155.275863 
L 224.89022 154.906537 
L 224.954577 154.801015 
L 225.05307 154.167883 
L 225.110362 154.062361 
L 225.209061 153.798556 
L 225.249791 153.693034 
L 225.353689 153.112663 
L 225.395867 153.007141 
L 225.484198 152.585054 
L 225.57274 152.479532 
L 225.635179 152.004683 
L 225.762771 151.899161 
L 225.865598 151.31879 
L 225.987377 151.213268 
L 226.084986 150.580137 
L 226.19186 150.474615 
L 226.299928 149.6832 
L 226.37935 149.577678 
L 226.475308 149.15559 
L 226.530328 149.050068 
L 226.626935 148.786263 
L 226.664005 148.680741 
L 226.771623 148.258654 
L 226.826834 148.153132 
L 226.893849 147.783805 
L 226.990807 147.678283 
L 227.098874 147.203434 
L 227.193184 147.097912 
L 227.30328 146.675824 
L 227.359901 146.570302 
L 227.470267 146.148215 
L 227.51066 146.042693 
L 227.530879 145.88441 
L 227.643934 145.778888 
L 227.75254 144.987473 
L 227.824524 144.881951 
L 227.92803 144.618146 
L 227.984557 144.512624 
L 228.082391 144.143298 
L 228.129323 144.037776 
L 228.236145 143.668449 
L 228.316753 143.562927 
L 228.400233 143.088078 
L 228.458567 142.982556 
L 228.540146 142.613229 
L 228.602291 142.507707 
L 228.694123 141.821815 
L 228.774163 141.716293 
L 228.8845 141.135922 
L 228.914357 141.0304 
L 229.017861 140.713834 
L 229.081966 140.608312 
L 229.187228 140.238985 
L 229.249838 140.133463 
L 229.349989 139.605854 
L 229.386238 139.500332 
L 229.464305 138.972722 
L 229.603992 138.8672 
L 229.71498 138.550634 
L 229.768784 138.445112 
L 229.879798 138.075785 
L 229.921272 138.023024 
L 230.018412 137.600937 
L 230.092532 137.495415 
L 230.158844 137.178849 
L 230.29717 137.073327 
L 230.397503 136.862283 
L 230.557811 136.756761 
L 230.646686 136.598478 
L 230.691726 136.492956 
L 230.801592 136.229151 
L 230.897588 136.123629 
L 230.988613 135.807063 
L 231.063946 135.701541 
L 231.157967 135.279454 
L 231.237237 135.173932 
L 231.341587 134.962888 
L 231.381336 134.857366 
L 231.484256 134.488039 
L 231.544759 134.382517 
L 231.613203 133.907668 
L 231.705335 133.802146 
L 231.792185 133.221776 
L 231.835817 133.116254 
L 231.923402 132.799688 
L 231.955021 132.694166 
L 231.985966 132.483122 
L 232.104049 132.3776 
L 232.207653 132.219317 
L 232.273645 132.113795 
L 232.373458 131.902751 
L 232.446307 131.797229 
L 232.544953 131.480663 
L 232.757635 131.375141 
L 232.855343 131.216859 
L 232.981726 131.111337 
L 233.05176 130.900293 
L 233.137874 130.794771 
L 233.239683 130.530966 
L 233.405384 130.425444 
L 233.440514 130.108878 
L 233.577047 130.003356 
L 233.68299 129.897834 
L 233.768284 129.792312 
L 233.834572 129.528507 
L 234.006439 129.422985 
L 234.099708 129.211941 
L 234.155289 129.10642 
L 234.255522 128.737093 
L 234.365374 128.631571 
L 234.466748 128.420527 
L 234.550966 128.315005 
L 234.655268 127.998439 
L 234.771224 127.892917 
L 234.878951 127.787395 
L 235.095274 127.681873 
L 235.14747 127.470829 
L 235.710818 127.365307 
L 235.78821 127.259785 
L 235.935008 127.154263 
L 235.935008 127.101502 
L 236.374826 126.99598 
L 236.431501 126.837698 
L 236.719506 126.732176 
L 236.80247 126.468371 
L 236.940161 126.362849 
L 236.986808 126.257327 
L 237.395199 126.151805 
L 237.395199 126.099044 
L 238.271181 125.993522 
L 238.271181 125.940761 
L 241.140826 125.835239 
L 241.140826 125.782478 
L 241.704965 125.676956 
L 241.786704 125.571434 
L 241.989458 125.465912 
L 242.076295 125.307629 
L 242.183663 125.202107 
L 242.250162 125.096585 
L 242.679307 124.991063 
L 242.679307 124.938302 
L 243.101922 124.83278 
L 243.162471 124.727259 
L 243.58171 124.621737 
L 243.621845 124.516215 
L 243.854419 124.410693 
L 243.947343 124.305171 
L 244.180493 124.199649 
L 244.180493 124.146888 
L 245.300185 124.041366 
L 245.300185 123.988605 
L 246.549121 123.935844 
L 246.549121 123.830322 
L 247.134903 123.7248 
L 247.134903 123.672039 
L 250.396571 123.566517 
L 250.396571 123.513756 
L 251.762158 123.408234 
L 251.762158 123.355473 
L 254.254149 123.302712 
L 254.254149 123.19719 
L 255.575233 123.091668 
L 255.575233 123.038907 
L 262.40231 122.933385 
L 262.411154 122.827863 
L 262.697443 122.722341 
L 262.721339 122.564059 
L 262.873324 122.458537 
L 262.941247 122.247493 
L 263.146817 122.141971 
L 263.223983 121.878166 
L 263.489507 121.772644 
L 263.578191 121.614361 
L 263.817421 121.508839 
L 263.910681 121.139512 
L 264.051038 121.03399 
L 264.093204 120.875707 
L 264.36245 120.770185 
L 264.450718 120.45362 
L 264.792645 120.348098 
L 264.816143 120.242576 
L 264.964974 120.137054 
L 264.964974 120.084293 
L 265.343424 119.978771 
L 265.412131 119.873249 
L 265.693973 119.767727 
L 265.756794 119.556683 
L 267.877323 119.451161 
L 267.878506 119.345639 
L 268.496843 119.240117 
L 268.607125 119.081834 
L 270.054942 118.976312 
L 270.066765 118.818029 
L 274.915878 118.712507 
L 274.986858 118.606985 
L 275.048953 118.501463 
L 275.101722 118.34318 
L 275.236811 118.237659 
L 275.236811 118.184898 
L 275.431514 118.079376 
L 275.431514 118.026615 
L 275.596552 117.921093 
L 275.689539 117.76281 
L 275.905881 117.657288 
L 275.995417 117.551766 
L 276.305054 117.446244 
L 276.381684 117.2352 
L 276.563688 117.129678 
L 276.644314 116.971395 
L 278.188038 116.865873 
L 278.188038 116.813112 
L 280.083425 116.70759 
L 280.083425 116.654829 
L 282.419606 116.549307 
L 282.525916 116.338263 
L 282.841489 116.232741 
L 282.940968 116.021698 
L 283.103581 115.916176 
L 283.107706 115.757893 
L 283.412002 115.652371 
L 283.472774 115.494088 
L 287.627006 115.388566 
L 287.627006 115.335805 
L 287.876651 115.230283 
L 287.948004 115.072 
L 288.080101 114.966478 
L 288.080101 114.913717 
L 288.201492 114.808195 
L 288.201492 114.755434 
L 288.489844 114.649912 
L 288.489844 114.597151 
L 289.808921 114.491629 
L 289.808921 114.438868 
L 291.999107 114.333346 
L 292.071649 114.175063 
L 292.193387 114.069541 
L 292.259431 113.96402 
L 292.421684 113.911259 
L 292.42183 113.752976 
L 295.385286 113.647454 
L 295.495815 113.43641 
L 296.611003 113.330888 
L 296.611003 113.278127 
L 300.513914 113.172605 
L 300.513914 113.119844 
L 300.702049 113.014322 
L 300.754761 112.803278 
L 303.009802 112.697756 
L 303.009802 112.644995 
L 304.846213 112.539473 
L 304.91755 112.38119 
L 306.590631 112.275668 
L 306.687756 112.170146 
L 308.160875 112.064624 
L 308.211824 111.906341 
L 309.64455 111.80082 
L 309.698473 111.695298 
L 312.421858 111.589776 
L 312.421858 111.537015 
L 313.546628 111.431493 
L 313.546628 111.378732 
L 315.722356 111.27321 
L 315.722356 111.220449 
L 317.694485 111.114927 
L 317.694485 111.062166 
L 319.458979 110.956644 
L 319.458979 110.903883 
L 321.081375 110.798361 
L 321.081375 110.7456 
L 322.548845 110.640078 
L 322.548845 110.587317 
L 323.959862 110.481795 
L 323.959862 110.429034 
L 327.587264 110.323512 
L 327.587264 110.270751 
L 331.094886 110.165229 
L 331.094886 110.112468 
L 333.674118 110.006946 
L 333.674118 109.954185 
L 346.050068 109.848663 
L 346.050068 109.795902 
L 360.8064 109.795902 
L 360.8064 109.795902 
" style="fill:none;stroke:#ff00ff;stroke-linecap:square;stroke-width:1.5;"/>
   </g>
   <g id="line2d_36">
    <defs>
     <path d="M -0 8.485281 
L 5.091169 0 
L 0 -8.485281 
L -5.091169 -0 
z
" id="m1d5cff4838" style="stroke:#ff00ff;stroke-linejoin:miter;stroke-width:1.5;"/>
    </defs>
    <g>
     <use style="fill-opacity:0;stroke:#ff00ff;stroke-linejoin:miter;stroke-width:1.5;" x="221.708464" xlink:href="#m1d5cff4838" y="165.775298"/>
     <use style="fill-opacity:0;stroke:#ff00ff;stroke-linejoin:miter;stroke-width:1.5;" x="334.429797" xlink:href="#m1d5cff4838" y="109.954185"/>
     <use style="fill-opacity:0;stroke:#ff00ff;stroke-linejoin:miter;stroke-width:1.5;" x="346.050068" xlink:href="#m1d5cff4838" y="109.795902"/>
     <use style="fill-opacity:0;stroke:#ff00ff;stroke-linejoin:miter;stroke-width:1.5;" x="360.8064" xlink:href="#m1d5cff4838" y="109.795902"/>
    </g>
   </g>
   <g id="line2d_37">
    <path style="fill:none;stroke:#ff00ff;stroke-linecap:square;stroke-width:1.5;"/>
    <g/>
   </g>
   <g id="line2d_38">
    <path clip-path="url(#p0d3a89320d)" d="M 261.136967 122.933385 
" style="fill:none;stroke:#ff00ff;stroke-linecap:square;stroke-width:1.5;"/>
    <defs>
     <path d="M -12 12 
L 12 -12 
M -12 -12 
L 12 12 
" id="m8c0a63c479" style="stroke:#ff00ff;"/>
    </defs>
    <g clip-path="url(#p0d3a89320d)">
     <use style="fill:#ff00ff;stroke:#ff00ff;" x="261.136967" xlink:href="#m8c0a63c479" y="122.933385"/>
    </g>
   </g>
   <g id="line2d_39">
    <path d="M 360.8064 222.968195 
L 380.514816 293.10336 
" style="fill:none;stroke:#000080;stroke-linecap:square;stroke-width:1.5;"/>
    <g>
     <use style="fill-opacity:0;stroke:#000080;stroke-width:1.5;" x="360.8064" xlink:href="#m60bb551474" y="222.968195"/>
     <use style="fill-opacity:0;stroke:#000080;stroke-width:1.5;" x="380.514816" xlink:href="#m60bb551474" y="293.10336"/>
    </g>
   </g>
   <g id="line2d_40">
    <path d="M 360.8064 109.795902 
L 380.514816 12.75264 
" style="fill:none;stroke:#ff00ff;stroke-linecap:square;stroke-width:1.5;"/>
    <g>
     <use style="fill-opacity:0;stroke:#ff00ff;stroke-linejoin:miter;stroke-width:1.5;" x="360.8064" xlink:href="#m1d5cff4838" y="109.795902"/>
     <use style="fill-opacity:0;stroke:#ff00ff;stroke-linejoin:miter;stroke-width:1.5;" x="380.514816" xlink:href="#m1d5cff4838" y="12.75264"/>
    </g>
   </g>
   <g id="line2d_41">
    <path d="M 360.8064 298.944 
L 360.8064 6.912 
" style="fill:none;stroke:#000000;stroke-linecap:square;stroke-width:1.5;"/>
   </g>
   <g id="patch_3">
    <path d="M 57.6 298.944 
L 360.8064 298.944 
" style="fill:none;stroke:#000000;stroke-linecap:square;stroke-linejoin:miter;stroke-width:0.8;"/>
   </g>
   <g id="patch_4">
    <path d="M 57.6 6.912 
L 360.8064 6.912 
" style="fill:none;stroke:#000000;stroke-linecap:square;stroke-linejoin:miter;stroke-width:0.8;"/>
   </g>
   <g id="text_13">
    <!-- al-defaul -->
    <g transform="translate(386.578944 296.966485)scale(0.14 -0.14)">
     <defs>
      <path d="M 4.890625 31.390625 
L 31.203125 31.390625 
L 31.203125 23.390625 
L 4.890625 23.390625 
z
" id="DejaVuSans-45"/>
     </defs>
     <use xlink:href="#DejaVuSans-97"/>
     <use x="61.279297" xlink:href="#DejaVuSans-108"/>
     <use x="89.0625" xlink:href="#DejaVuSans-45"/>
     <use x="125.146484" xlink:href="#DejaVuSans-100"/>
     <use x="188.623047" xlink:href="#DejaVuSans-101"/>
     <use x="250.146484" xlink:href="#DejaVuSans-102"/>
     <use x="285.351562" xlink:href="#DejaVuSans-97"/>
     <use x="346.630859" xlink:href="#DejaVuSans-117"/>
     <use x="410.009766" xlink:href="#DejaVuSans-108"/>
    </g>
   </g>
   <g id="text_14">
    <!-- al3 -->
    <g transform="translate(386.578944 16.615765)scale(0.14 -0.14)">
     <defs>
      <path d="M 40.578125 39.3125 
Q 47.65625 37.796875 51.625 33 
Q 55.609375 28.21875 55.609375 21.1875 
Q 55.609375 10.40625 48.1875 4.484375 
Q 40.765625 -1.421875 27.09375 -1.421875 
Q 22.515625 -1.421875 17.65625 -0.515625 
Q 12.796875 0.390625 7.625 2.203125 
L 7.625 11.71875 
Q 11.71875 9.328125 16.59375 8.109375 
Q 21.484375 6.890625 26.8125 6.890625 
Q 36.078125 6.890625 40.9375 10.546875 
Q 45.796875 14.203125 45.796875 21.1875 
Q 45.796875 27.640625 41.28125 31.265625 
Q 36.765625 34.90625 28.71875 34.90625 
L 20.21875 34.90625 
L 20.21875 43.015625 
L 29.109375 43.015625 
Q 36.375 43.015625 40.234375 45.921875 
Q 44.09375 48.828125 44.09375 54.296875 
Q 44.09375 59.90625 40.109375 62.90625 
Q 36.140625 65.921875 28.71875 65.921875 
Q 24.65625 65.921875 20.015625 65.03125 
Q 15.375 64.15625 9.8125 62.3125 
L 9.8125 71.09375 
Q 15.4375 72.65625 20.34375 73.4375 
Q 25.25 74.21875 29.59375 74.21875 
Q 40.828125 74.21875 47.359375 69.109375 
Q 53.90625 64.015625 53.90625 55.328125 
Q 53.90625 49.265625 50.4375 45.09375 
Q 46.96875 40.921875 40.578125 39.3125 
z
" id="DejaVuSans-51"/>
     </defs>
     <use xlink:href="#DejaVuSans-97"/>
     <use x="61.279297" xlink:href="#DejaVuSans-108"/>
     <use x="89.0625" xlink:href="#DejaVuSans-51"/>
    </g>
   </g>
   <g id="text_15">
    <!-- bbob-constrained f6, f12, f18, f24, f30, f36, f42, f48, f54, 40-D -->
    <g transform="translate(60.632064 17.582726)scale(0.102 -0.102)">
     <defs>
      <path d="M 48.6875 27.296875 
Q 48.6875 37.203125 44.609375 42.84375 
Q 40.53125 48.484375 33.40625 48.484375 
Q 26.265625 48.484375 22.1875 42.84375 
Q 18.109375 37.203125 18.109375 27.296875 
Q 18.109375 17.390625 22.1875 11.75 
Q 26.265625 6.109375 33.40625 6.109375 
Q 40.53125 6.109375 44.609375 11.75 
Q 48.6875 17.390625 48.6875 27.296875 
z
M 18.109375 46.390625 
Q 20.953125 51.265625 25.265625 53.625 
Q 29.59375 56 35.59375 56 
Q 45.5625 56 51.78125 48.09375 
Q 58.015625 40.1875 58.015625 27.296875 
Q 58.015625 14.40625 51.78125 6.484375 
Q 45.5625 -1.421875 35.59375 -1.421875 
Q 29.59375 -1.421875 25.265625 0.953125 
Q 20.953125 3.328125 18.109375 8.203125 
L 18.109375 0 
L 9.078125 0 
L 9.078125 75.984375 
L 18.109375 75.984375 
z
" id="DejaVuSans-98"/>
      <path d="M 10.796875 72.90625 
L 49.515625 72.90625 
L 49.515625 64.59375 
L 19.828125 64.59375 
L 19.828125 46.734375 
Q 21.96875 47.46875 24.109375 47.828125 
Q 26.265625 48.1875 28.421875 48.1875 
Q 40.625 48.1875 47.75 41.5 
Q 54.890625 34.8125 54.890625 23.390625 
Q 54.890625 11.625 47.5625 5.09375 
Q 40.234375 -1.421875 26.90625 -1.421875 
Q 22.3125 -1.421875 17.546875 -0.640625 
Q 12.796875 0.140625 7.71875 1.703125 
L 7.71875 11.625 
Q 12.109375 9.234375 16.796875 8.0625 
Q 21.484375 6.890625 26.703125 6.890625 
Q 35.15625 6.890625 40.078125 11.328125 
Q 45.015625 15.765625 45.015625 23.390625 
Q 45.015625 31 40.078125 35.4375 
Q 35.15625 39.890625 26.703125 39.890625 
Q 22.75 39.890625 18.8125 39.015625 
Q 14.890625 38.140625 10.796875 36.28125 
z
" id="DejaVuSans-53"/>
      <path d="M 19.671875 64.796875 
L 19.671875 8.109375 
L 31.59375 8.109375 
Q 46.6875 8.109375 53.6875 14.9375 
Q 60.6875 21.78125 60.6875 36.53125 
Q 60.6875 51.171875 53.6875 57.984375 
Q 46.6875 64.796875 31.59375 64.796875 
z
M 9.8125 72.90625 
L 30.078125 72.90625 
Q 51.265625 72.90625 61.171875 64.09375 
Q 71.09375 55.28125 71.09375 36.53125 
Q 71.09375 17.671875 61.125 8.828125 
Q 51.171875 0 30.078125 0 
L 9.8125 0 
z
" id="DejaVuSans-68"/>
     </defs>
     <use xlink:href="#DejaVuSans-98"/>
     <use x="63.476562" xlink:href="#DejaVuSans-98"/>
     <use x="126.953125" xlink:href="#DejaVuSans-111"/>
     <use x="188.134766" xlink:href="#DejaVuSans-98"/>
     <use x="251.611328" xlink:href="#DejaVuSans-45"/>
     <use x="287.695312" xlink:href="#DejaVuSans-99"/>
     <use x="342.675781" xlink:href="#DejaVuSans-111"/>
     <use x="403.857422" xlink:href="#DejaVuSans-110"/>
     <use x="467.236328" xlink:href="#DejaVuSans-115"/>
     <use x="519.335938" xlink:href="#DejaVuSans-116"/>
     <use x="558.544922" xlink:href="#DejaVuSans-114"/>
     <use x="599.658203" xlink:href="#DejaVuSans-97"/>
     <use x="660.9375" xlink:href="#DejaVuSans-105"/>
     <use x="688.720703" xlink:href="#DejaVuSans-110"/>
     <use x="752.099609" xlink:href="#DejaVuSans-101"/>
     <use x="813.623047" xlink:href="#DejaVuSans-100"/>
     <use x="877.099609" xlink:href="#DejaVuSans-32"/>
     <use x="908.886719" xlink:href="#DejaVuSans-102"/>
     <use x="944.091797" xlink:href="#DejaVuSans-54"/>
     <use x="1007.714844" xlink:href="#DejaVuSans-44"/>
     <use x="1039.501953" xlink:href="#DejaVuSans-32"/>
     <use x="1071.289062" xlink:href="#DejaVuSans-102"/>
     <use x="1106.494141" xlink:href="#DejaVuSans-49"/>
     <use x="1170.117188" xlink:href="#DejaVuSans-50"/>
     <use x="1233.740234" xlink:href="#DejaVuSans-44"/>
     <use x="1265.527344" xlink:href="#DejaVuSans-32"/>
     <use x="1297.314453" xlink:href="#DejaVuSans-102"/>
     <use x="1332.519531" xlink:href="#DejaVuSans-49"/>
     <use x="1396.142578" xlink:href="#DejaVuSans-56"/>
     <use x="1459.765625" xlink:href="#DejaVuSans-44"/>
     <use x="1491.552734" xlink:href="#DejaVuSans-32"/>
     <use x="1523.339844" xlink:href="#DejaVuSans-102"/>
     <use x="1558.544922" xlink:href="#DejaVuSans-50"/>
     <use x="1622.167969" xlink:href="#DejaVuSans-52"/>
     <use x="1685.791016" xlink:href="#DejaVuSans-44"/>
     <use x="1717.578125" xlink:href="#DejaVuSans-32"/>
     <use x="1749.365234" xlink:href="#DejaVuSans-102"/>
     <use x="1784.570312" xlink:href="#DejaVuSans-51"/>
     <use x="1848.193359" xlink:href="#DejaVuSans-48"/>
     <use x="1911.816406" xlink:href="#DejaVuSans-44"/>
     <use x="1943.603516" xlink:href="#DejaVuSans-32"/>
     <use x="1975.390625" xlink:href="#DejaVuSans-102"/>
     <use x="2010.595703" xlink:href="#DejaVuSans-51"/>
     <use x="2074.21875" xlink:href="#DejaVuSans-54"/>
     <use x="2137.841797" xlink:href="#DejaVuSans-44"/>
     <use x="2169.628906" xlink:href="#DejaVuSans-32"/>
     <use x="2201.416016" xlink:href="#DejaVuSans-102"/>
     <use x="2236.621094" xlink:href="#DejaVuSans-52"/>
     <use x="2300.244141" xlink:href="#DejaVuSans-50"/>
     <use x="2363.867188" xlink:href="#DejaVuSans-44"/>
     <use x="2395.654297" xlink:href="#DejaVuSans-32"/>
     <use x="2427.441406" xlink:href="#DejaVuSans-102"/>
     <use x="2462.646484" xlink:href="#DejaVuSans-52"/>
     <use x="2526.269531" xlink:href="#DejaVuSans-56"/>
     <use x="2589.892578" xlink:href="#DejaVuSans-44"/>
     <use x="2621.679688" xlink:href="#DejaVuSans-32"/>
     <use x="2653.466797" xlink:href="#DejaVuSans-102"/>
     <use x="2688.671875" xlink:href="#DejaVuSans-53"/>
     <use x="2752.294922" xlink:href="#DejaVuSans-52"/>
     <use x="2815.917969" xlink:href="#DejaVuSans-44"/>
     <use x="2847.705078" xlink:href="#DejaVuSans-32"/>
     <use x="2879.492188" xlink:href="#DejaVuSans-52"/>
     <use x="2943.115234" xlink:href="#DejaVuSans-48"/>
     <use x="3006.738281" xlink:href="#DejaVuSans-45"/>
     <use x="3042.822266" xlink:href="#DejaVuSans-68"/>
    </g>
    <!-- 41 targets: 100..1e-06 -->
    <g transform="translate(60.632064 29.004495)scale(0.102 -0.102)">
     <defs>
      <path d="M 11.71875 12.40625 
L 22.015625 12.40625 
L 22.015625 0 
L 11.71875 0 
z
M 11.71875 51.703125 
L 22.015625 51.703125 
L 22.015625 39.3125 
L 11.71875 39.3125 
z
" id="DejaVuSans-58"/>
     </defs>
     <use xlink:href="#DejaVuSans-52"/>
     <use x="63.623047" xlink:href="#DejaVuSans-49"/>
     <use x="127.246094" xlink:href="#DejaVuSans-32"/>
     <use x="159.033203" xlink:href="#DejaVuSans-116"/>
     <use x="198.242188" xlink:href="#DejaVuSans-97"/>
     <use x="259.521484" xlink:href="#DejaVuSans-114"/>
     <use x="298.884766" xlink:href="#DejaVuSans-103"/>
     <use x="362.361328" xlink:href="#DejaVuSans-101"/>
     <use x="423.884766" xlink:href="#DejaVuSans-116"/>
     <use x="463.09375" xlink:href="#DejaVuSans-115"/>
     <use x="515.193359" xlink:href="#DejaVuSans-58"/>
     <use x="548.884766" xlink:href="#DejaVuSans-32"/>
     <use x="580.671875" xlink:href="#DejaVuSans-49"/>
     <use x="644.294922" xlink:href="#DejaVuSans-48"/>
     <use x="707.917969" xlink:href="#DejaVuSans-48"/>
     <use x="771.541016" xlink:href="#DejaVuSans-46"/>
     <use x="803.328125" xlink:href="#DejaVuSans-46"/>
     <use x="835.115234" xlink:href="#DejaVuSans-49"/>
     <use x="898.738281" xlink:href="#DejaVuSans-101"/>
     <use x="960.261719" xlink:href="#DejaVuSans-45"/>
     <use x="996.345703" xlink:href="#DejaVuSans-48"/>
     <use x="1059.96875" xlink:href="#DejaVuSans-54"/>
    </g>
    <!-- evals = f-evals + g-evals -->
    <g transform="translate(60.632064 40.426264)scale(0.102 -0.102)">
     <defs>
      <path d="M 10.59375 45.40625 
L 73.1875 45.40625 
L 73.1875 37.203125 
L 10.59375 37.203125 
z
M 10.59375 25.484375 
L 73.1875 25.484375 
L 73.1875 17.1875 
L 10.59375 17.1875 
z
" id="DejaVuSans-61"/>
      <path d="M 46 62.703125 
L 46 35.5 
L 73.1875 35.5 
L 73.1875 27.203125 
L 46 27.203125 
L 46 0 
L 37.796875 0 
L 37.796875 27.203125 
L 10.59375 27.203125 
L 10.59375 35.5 
L 37.796875 35.5 
L 37.796875 62.703125 
z
" id="DejaVuSans-43"/>
     </defs>
     <use xlink:href="#DejaVuSans-101"/>
     <use x="61.523438" xlink:href="#DejaVuSans-118"/>
     <use x="120.703125" xlink:href="#DejaVuSans-97"/>
     <use x="181.982422" xlink:href="#DejaVuSans-108"/>
     <use x="209.765625" xlink:href="#DejaVuSans-115"/>
     <use x="261.865234" xlink:href="#DejaVuSans-32"/>
     <use x="293.652344" xlink:href="#DejaVuSans-61"/>
     <use x="377.441406" xlink:href="#DejaVuSans-32"/>
     <use x="409.228516" xlink:href="#DejaVuSans-102"/>
     <use x="438.933594" xlink:href="#DejaVuSans-45"/>
     <use x="475.017578" xlink:href="#DejaVuSans-101"/>
     <use x="536.541016" xlink:href="#DejaVuSans-118"/>
     <use x="595.720703" xlink:href="#DejaVuSans-97"/>
     <use x="657" xlink:href="#DejaVuSans-108"/>
     <use x="684.783203" xlink:href="#DejaVuSans-115"/>
     <use x="736.882812" xlink:href="#DejaVuSans-32"/>
     <use x="768.669922" xlink:href="#DejaVuSans-43"/>
     <use x="852.458984" xlink:href="#DejaVuSans-32"/>
     <use x="884.246094" xlink:href="#DejaVuSans-103"/>
     <use x="947.722656" xlink:href="#DejaVuSans-45"/>
     <use x="983.806641" xlink:href="#DejaVuSans-101"/>
     <use x="1045.330078" xlink:href="#DejaVuSans-118"/>
     <use x="1104.509766" xlink:href="#DejaVuSans-97"/>
     <use x="1165.789062" xlink:href="#DejaVuSans-108"/>
     <use x="1193.572266" xlink:href="#DejaVuSans-115"/>
    </g>
    <!-- 15 instances -->
    <g transform="translate(60.632064 51.848032)scale(0.102 -0.102)">
     <use xlink:href="#DejaVuSans-49"/>
     <use x="63.623047" xlink:href="#DejaVuSans-53"/>
     <use x="127.246094" xlink:href="#DejaVuSans-32"/>
     <use x="159.033203" xlink:href="#DejaVuSans-105"/>
     <use x="186.816406" xlink:href="#DejaVuSans-110"/>
     <use x="250.195312" xlink:href="#DejaVuSans-115"/>
     <use x="302.294922" xlink:href="#DejaVuSans-116"/>
     <use x="341.503906" xlink:href="#DejaVuSans-97"/>
     <use x="402.783203" xlink:href="#DejaVuSans-110"/>
     <use x="466.162109" xlink:href="#DejaVuSans-99"/>
     <use x="521.142578" xlink:href="#DejaVuSans-101"/>
     <use x="582.666016" xlink:href="#DejaVuSans-115"/>
    </g>
   </g>
   <g id="text_16">
    <!-- v2.6.1.9 -->
    <g style="fill:#808080;" transform="translate(188.751637 293.943992)scale(0.1 -0.1)">
     <defs>
      <path d="M 10.984375 1.515625 
L 10.984375 10.5 
Q 14.703125 8.734375 18.5 7.8125 
Q 22.3125 6.890625 25.984375 6.890625 
Q 35.75 6.890625 40.890625 13.453125 
Q 46.046875 20.015625 46.78125 33.40625 
Q 43.953125 29.203125 39.59375 26.953125 
Q 35.25 24.703125 29.984375 24.703125 
Q 19.046875 24.703125 12.671875 31.3125 
Q 6.296875 37.9375 6.296875 49.421875 
Q 6.296875 60.640625 12.9375 67.421875 
Q 19.578125 74.21875 30.609375 74.21875 
Q 43.265625 74.21875 49.921875 64.515625 
Q 56.59375 54.828125 56.59375 36.375 
Q 56.59375 19.140625 48.40625 8.859375 
Q 40.234375 -1.421875 26.421875 -1.421875 
Q 22.703125 -1.421875 18.890625 -0.6875 
Q 15.09375 0.046875 10.984375 1.515625 
z
M 30.609375 32.421875 
Q 37.25 32.421875 41.125 36.953125 
Q 45.015625 41.5 45.015625 49.421875 
Q 45.015625 57.28125 41.125 61.84375 
Q 37.25 66.40625 30.609375 66.40625 
Q 23.96875 66.40625 20.09375 61.84375 
Q 16.21875 57.28125 16.21875 49.421875 
Q 16.21875 41.5 20.09375 36.953125 
Q 23.96875 32.421875 30.609375 32.421875 
z
" id="DejaVuSans-57"/>
     </defs>
     <use xlink:href="#DejaVuSans-118"/>
     <use x="59.179688" xlink:href="#DejaVuSans-50"/>
     <use x="122.802734" xlink:href="#DejaVuSans-46"/>
     <use x="154.589844" xlink:href="#DejaVuSans-54"/>
     <use x="218.212891" xlink:href="#DejaVuSans-46"/>
     <use x="250" xlink:href="#DejaVuSans-49"/>
     <use x="313.623047" xlink:href="#DejaVuSans-46"/>
     <use x="345.410156" xlink:href="#DejaVuSans-57"/>
    </g>
   </g>
  </g>
 </g>
 <defs>
  <clipPath id="p0d3a89320d">
   <rect height="292.032" width="303.2064" x="57.6" y="6.912"/>
  </clipPath>
 </defs>
</svg>
