<?xml version="1.0" encoding="utf-8" standalone="no"?>
<!DOCTYPE svg PUBLIC "-//W3C//DTD SVG 1.1//EN"
  "http://www.w3.org/Graphics/SVG/1.1/DTD/svg11.dtd">
<!-- Created with matplotlib (https://matplotlib.org/) -->
<svg height="345.6pt" version="1.1" viewBox="0 0 460.8 345.6" width="460.8pt" xmlns="http://www.w3.org/2000/svg" xmlns:xlink="http://www.w3.org/1999/xlink">
 <metadata>
  <rdf:RDF xmlns:cc="http://creativecommons.org/ns#" xmlns:dc="http://purl.org/dc/elements/1.1/" xmlns:rdf="http://www.w3.org/1999/02/22-rdf-syntax-ns#">
   <cc:Work>
    <dc:type rdf:resource="http://purl.org/dc/dcmitype/StillImage"/>
    <dc:date>2022-04-26T20:52:24.116926</dc:date>
    <dc:format>image/svg+xml</dc:format>
    <dc:creator>
     <cc:Agent>
      <dc:title>Matplotlib v3.3.3, https://matplotlib.org/</dc:title>
     </cc:Agent>
    </dc:creator>
   </cc:Work>
  </rdf:RDF>
 </metadata>
 <defs>
  <style type="text/css">*{stroke-linecap:butt;stroke-linejoin:round;}</style>
 </defs>
 <g id="figure_1">
  <g id="patch_1">
   <path d="M 0 345.6 
L 460.8 345.6 
L 460.8 0 
L 0 0 
z
" style="fill:#ffffff;"/>
  </g>
  <g id="axes_1">
   <g id="patch_2">
    <path d="M 57.6 298.944 
L 360.8064 298.944 
L 360.8064 6.912 
L 57.6 6.912 
z
" style="fill:#ffffff;"/>
   </g>
   <g id="matplotlib.axis_1">
    <g id="xtick_1">
     <g id="line2d_1">
      <path clip-path="url(#p255d7a1307)" d="M 57.6 298.944 
L 57.6 6.912 
" style="fill:none;stroke:#b0b0b0;stroke-linecap:square;stroke-width:0.8;"/>
     </g>
     <g id="line2d_2">
      <defs>
       <path d="M 0 0 
L 0 3.5 
" id="md35e61c40c" style="stroke:#000000;stroke-width:0.8;"/>
      </defs>
      <g>
       <use style="stroke:#000000;stroke-width:0.8;" x="57.6" xlink:href="#md35e61c40c" y="298.944"/>
      </g>
     </g>
     <g id="text_1">
      <!-- 0 -->
      <g transform="translate(52.191875 318.861344)scale(0.17 -0.17)">
       <defs>
        <path d="M 31.78125 66.40625 
Q 24.171875 66.40625 20.328125 58.90625 
Q 16.5 51.421875 16.5 36.375 
Q 16.5 21.390625 20.328125 13.890625 
Q 24.171875 6.390625 31.78125 6.390625 
Q 39.453125 6.390625 43.28125 13.890625 
Q 47.125 21.390625 47.125 36.375 
Q 47.125 51.421875 43.28125 58.90625 
Q 39.453125 66.40625 31.78125 66.40625 
z
M 31.78125 74.21875 
Q 44.046875 74.21875 50.515625 64.515625 
Q 56.984375 54.828125 56.984375 36.375 
Q 56.984375 17.96875 50.515625 8.265625 
Q 44.046875 -1.421875 31.78125 -1.421875 
Q 19.53125 -1.421875 13.0625 8.265625 
Q 6.59375 17.96875 6.59375 36.375 
Q 6.59375 54.828125 13.0625 64.515625 
Q 19.53125 74.21875 31.78125 74.21875 
z
" id="DejaVuSans-48"/>
       </defs>
       <use xlink:href="#DejaVuSans-48"/>
      </g>
     </g>
    </g>
    <g id="xtick_2">
     <g id="line2d_3">
      <path clip-path="url(#p255d7a1307)" d="M 144.2304 298.944 
L 144.2304 6.912 
" style="fill:none;stroke:#b0b0b0;stroke-linecap:square;stroke-width:0.8;"/>
     </g>
     <g id="line2d_4">
      <g>
       <use style="stroke:#000000;stroke-width:0.8;" x="144.2304" xlink:href="#md35e61c40c" y="298.944"/>
      </g>
     </g>
     <g id="text_2">
      <!-- 2 -->
      <g transform="translate(138.822275 318.861344)scale(0.17 -0.17)">
       <defs>
        <path d="M 19.1875 8.296875 
L 53.609375 8.296875 
L 53.609375 0 
L 7.328125 0 
L 7.328125 8.296875 
Q 12.9375 14.109375 22.625 23.890625 
Q 32.328125 33.6875 34.8125 36.53125 
Q 39.546875 41.84375 41.421875 45.53125 
Q 43.3125 49.21875 43.3125 52.78125 
Q 43.3125 58.59375 39.234375 62.25 
Q 35.15625 65.921875 28.609375 65.921875 
Q 23.96875 65.921875 18.8125 64.3125 
Q 13.671875 62.703125 7.8125 59.421875 
L 7.8125 69.390625 
Q 13.765625 71.78125 18.9375 73 
Q 24.125 74.21875 28.421875 74.21875 
Q 39.75 74.21875 46.484375 68.546875 
Q 53.21875 62.890625 53.21875 53.421875 
Q 53.21875 48.921875 51.53125 44.890625 
Q 49.859375 40.875 45.40625 35.40625 
Q 44.1875 33.984375 37.640625 27.21875 
Q 31.109375 20.453125 19.1875 8.296875 
z
" id="DejaVuSans-50"/>
       </defs>
       <use xlink:href="#DejaVuSans-50"/>
      </g>
     </g>
    </g>
    <g id="xtick_3">
     <g id="line2d_5">
      <path clip-path="url(#p255d7a1307)" d="M 230.8608 298.944 
L 230.8608 6.912 
" style="fill:none;stroke:#b0b0b0;stroke-linecap:square;stroke-width:0.8;"/>
     </g>
     <g id="line2d_6">
      <g>
       <use style="stroke:#000000;stroke-width:0.8;" x="230.8608" xlink:href="#md35e61c40c" y="298.944"/>
      </g>
     </g>
     <g id="text_3">
      <!-- 4 -->
      <g transform="translate(225.452675 318.861344)scale(0.17 -0.17)">
       <defs>
        <path d="M 37.796875 64.3125 
L 12.890625 25.390625 
L 37.796875 25.390625 
z
M 35.203125 72.90625 
L 47.609375 72.90625 
L 47.609375 25.390625 
L 58.015625 25.390625 
L 58.015625 17.1875 
L 47.609375 17.1875 
L 47.609375 0 
L 37.796875 0 
L 37.796875 17.1875 
L 4.890625 17.1875 
L 4.890625 26.703125 
z
" id="DejaVuSans-52"/>
       </defs>
       <use xlink:href="#DejaVuSans-52"/>
      </g>
     </g>
    </g>
    <g id="xtick_4">
     <g id="line2d_7">
      <path clip-path="url(#p255d7a1307)" d="M 317.4912 298.944 
L 317.4912 6.912 
" style="fill:none;stroke:#b0b0b0;stroke-linecap:square;stroke-width:0.8;"/>
     </g>
     <g id="line2d_8">
      <g>
       <use style="stroke:#000000;stroke-width:0.8;" x="317.4912" xlink:href="#md35e61c40c" y="298.944"/>
      </g>
     </g>
     <g id="text_4">
      <!-- 6 -->
      <g transform="translate(312.083075 318.861344)scale(0.17 -0.17)">
       <defs>
        <path d="M 33.015625 40.375 
Q 26.375 40.375 22.484375 35.828125 
Q 18.609375 31.296875 18.609375 23.390625 
Q 18.609375 15.53125 22.484375 10.953125 
Q 26.375 6.390625 33.015625 6.390625 
Q 39.65625 6.390625 43.53125 10.953125 
Q 47.40625 15.53125 47.40625 23.390625 
Q 47.40625 31.296875 43.53125 35.828125 
Q 39.65625 40.375 33.015625 40.375 
z
M 52.59375 71.296875 
L 52.59375 62.3125 
Q 48.875 64.0625 45.09375 64.984375 
Q 41.3125 65.921875 37.59375 65.921875 
Q 27.828125 65.921875 22.671875 59.328125 
Q 17.53125 52.734375 16.796875 39.40625 
Q 19.671875 43.65625 24.015625 45.921875 
Q 28.375 48.1875 33.59375 48.1875 
Q 44.578125 48.1875 50.953125 41.515625 
Q 57.328125 34.859375 57.328125 23.390625 
Q 57.328125 12.15625 50.6875 5.359375 
Q 44.046875 -1.421875 33.015625 -1.421875 
Q 20.359375 -1.421875 13.671875 8.265625 
Q 6.984375 17.96875 6.984375 36.375 
Q 6.984375 53.65625 15.1875 63.9375 
Q 23.390625 74.21875 37.203125 74.21875 
Q 40.921875 74.21875 44.703125 73.484375 
Q 48.484375 72.75 52.59375 71.296875 
z
" id="DejaVuSans-54"/>
       </defs>
       <use xlink:href="#DejaVuSans-54"/>
      </g>
     </g>
    </g>
    <g id="xtick_5">
     <g id="line2d_9">
      <path clip-path="url(#p255d7a1307)" d="M 100.9152 298.944 
L 100.9152 6.912 
" style="fill:none;stroke:#b0b0b0;stroke-linecap:square;stroke-width:0.8;"/>
     </g>
     <g id="line2d_10">
      <defs>
       <path d="M 0 0 
L 0 2 
" id="m73ff3dfc6a" style="stroke:#000000;stroke-width:0.6;"/>
      </defs>
      <g>
       <use style="stroke:#000000;stroke-width:0.6;" x="100.9152" xlink:href="#m73ff3dfc6a" y="298.944"/>
      </g>
     </g>
    </g>
    <g id="xtick_6">
     <g id="line2d_11">
      <path clip-path="url(#p255d7a1307)" d="M 187.5456 298.944 
L 187.5456 6.912 
" style="fill:none;stroke:#b0b0b0;stroke-linecap:square;stroke-width:0.8;"/>
     </g>
     <g id="line2d_12">
      <g>
       <use style="stroke:#000000;stroke-width:0.6;" x="187.5456" xlink:href="#m73ff3dfc6a" y="298.944"/>
      </g>
     </g>
    </g>
    <g id="xtick_7">
     <g id="line2d_13">
      <path clip-path="url(#p255d7a1307)" d="M 274.176 298.944 
L 274.176 6.912 
" style="fill:none;stroke:#b0b0b0;stroke-linecap:square;stroke-width:0.8;"/>
     </g>
     <g id="line2d_14">
      <g>
       <use style="stroke:#000000;stroke-width:0.6;" x="274.176" xlink:href="#m73ff3dfc6a" y="298.944"/>
      </g>
     </g>
    </g>
    <g id="xtick_8">
     <g id="line2d_15">
      <path clip-path="url(#p255d7a1307)" d="M 360.8064 298.944 
L 360.8064 6.912 
" style="fill:none;stroke:#b0b0b0;stroke-linecap:square;stroke-width:0.8;"/>
     </g>
     <g id="line2d_16">
      <g>
       <use style="stroke:#000000;stroke-width:0.6;" x="360.8064" xlink:href="#m73ff3dfc6a" y="298.944"/>
      </g>
     </g>
    </g>
    <g id="text_5">
     <!-- log10(evals / dimension) -->
     <g transform="translate(104.238825 339.314156)scale(0.17 -0.17)">
      <defs>
       <path d="M 9.421875 75.984375 
L 18.40625 75.984375 
L 18.40625 0 
L 9.421875 0 
z
" id="DejaVuSans-108"/>
       <path d="M 30.609375 48.390625 
Q 23.390625 48.390625 19.1875 42.75 
Q 14.984375 37.109375 14.984375 27.296875 
Q 14.984375 17.484375 19.15625 11.84375 
Q 23.34375 6.203125 30.609375 6.203125 
Q 37.796875 6.203125 41.984375 11.859375 
Q 46.1875 17.53125 46.1875 27.296875 
Q 46.1875 37.015625 41.984375 42.703125 
Q 37.796875 48.390625 30.609375 48.390625 
z
M 30.609375 56 
Q 42.328125 56 49.015625 48.375 
Q 55.71875 40.765625 55.71875 27.296875 
Q 55.71875 13.875 49.015625 6.21875 
Q 42.328125 -1.421875 30.609375 -1.421875 
Q 18.84375 -1.421875 12.171875 6.21875 
Q 5.515625 13.875 5.515625 27.296875 
Q 5.515625 40.765625 12.171875 48.375 
Q 18.84375 56 30.609375 56 
z
" id="DejaVuSans-111"/>
       <path d="M 45.40625 27.984375 
Q 45.40625 37.75 41.375 43.109375 
Q 37.359375 48.484375 30.078125 48.484375 
Q 22.859375 48.484375 18.828125 43.109375 
Q 14.796875 37.75 14.796875 27.984375 
Q 14.796875 18.265625 18.828125 12.890625 
Q 22.859375 7.515625 30.078125 7.515625 
Q 37.359375 7.515625 41.375 12.890625 
Q 45.40625 18.265625 45.40625 27.984375 
z
M 54.390625 6.78125 
Q 54.390625 -7.171875 48.1875 -13.984375 
Q 42 -20.796875 29.203125 -20.796875 
Q 24.46875 -20.796875 20.265625 -20.09375 
Q 16.0625 -19.390625 12.109375 -17.921875 
L 12.109375 -9.1875 
Q 16.0625 -11.328125 19.921875 -12.34375 
Q 23.78125 -13.375 27.78125 -13.375 
Q 36.625 -13.375 41.015625 -8.765625 
Q 45.40625 -4.15625 45.40625 5.171875 
L 45.40625 9.625 
Q 42.625 4.78125 38.28125 2.390625 
Q 33.9375 0 27.875 0 
Q 17.828125 0 11.671875 7.65625 
Q 5.515625 15.328125 5.515625 27.984375 
Q 5.515625 40.671875 11.671875 48.328125 
Q 17.828125 56 27.875 56 
Q 33.9375 56 38.28125 53.609375 
Q 42.625 51.21875 45.40625 46.390625 
L 45.40625 54.6875 
L 54.390625 54.6875 
z
" id="DejaVuSans-103"/>
       <path d="M 12.40625 8.296875 
L 28.515625 8.296875 
L 28.515625 63.921875 
L 10.984375 60.40625 
L 10.984375 69.390625 
L 28.421875 72.90625 
L 38.28125 72.90625 
L 38.28125 8.296875 
L 54.390625 8.296875 
L 54.390625 0 
L 12.40625 0 
z
" id="DejaVuSans-49"/>
       <path d="M 31 75.875 
Q 24.46875 64.65625 21.28125 53.65625 
Q 18.109375 42.671875 18.109375 31.390625 
Q 18.109375 20.125 21.3125 9.0625 
Q 24.515625 -2 31 -13.1875 
L 23.1875 -13.1875 
Q 15.875 -1.703125 12.234375 9.375 
Q 8.59375 20.453125 8.59375 31.390625 
Q 8.59375 42.28125 12.203125 53.3125 
Q 15.828125 64.359375 23.1875 75.875 
z
" id="DejaVuSans-40"/>
       <path d="M 56.203125 29.59375 
L 56.203125 25.203125 
L 14.890625 25.203125 
Q 15.484375 15.921875 20.484375 11.0625 
Q 25.484375 6.203125 34.421875 6.203125 
Q 39.59375 6.203125 44.453125 7.46875 
Q 49.3125 8.734375 54.109375 11.28125 
L 54.109375 2.78125 
Q 49.265625 0.734375 44.1875 -0.34375 
Q 39.109375 -1.421875 33.890625 -1.421875 
Q 20.796875 -1.421875 13.15625 6.1875 
Q 5.515625 13.8125 5.515625 26.8125 
Q 5.515625 40.234375 12.765625 48.109375 
Q 20.015625 56 32.328125 56 
Q 43.359375 56 49.78125 48.890625 
Q 56.203125 41.796875 56.203125 29.59375 
z
M 47.21875 32.234375 
Q 47.125 39.59375 43.09375 43.984375 
Q 39.0625 48.390625 32.421875 48.390625 
Q 24.90625 48.390625 20.390625 44.140625 
Q 15.875 39.890625 15.1875 32.171875 
z
" id="DejaVuSans-101"/>
       <path d="M 2.984375 54.6875 
L 12.5 54.6875 
L 29.59375 8.796875 
L 46.6875 54.6875 
L 56.203125 54.6875 
L 35.6875 0 
L 23.484375 0 
z
" id="DejaVuSans-118"/>
       <path d="M 34.28125 27.484375 
Q 23.390625 27.484375 19.1875 25 
Q 14.984375 22.515625 14.984375 16.5 
Q 14.984375 11.71875 18.140625 8.90625 
Q 21.296875 6.109375 26.703125 6.109375 
Q 34.1875 6.109375 38.703125 11.40625 
Q 43.21875 16.703125 43.21875 25.484375 
L 43.21875 27.484375 
z
M 52.203125 31.203125 
L 52.203125 0 
L 43.21875 0 
L 43.21875 8.296875 
Q 40.140625 3.328125 35.546875 0.953125 
Q 30.953125 -1.421875 24.3125 -1.421875 
Q 15.921875 -1.421875 10.953125 3.296875 
Q 6 8.015625 6 15.921875 
Q 6 25.140625 12.171875 29.828125 
Q 18.359375 34.515625 30.609375 34.515625 
L 43.21875 34.515625 
L 43.21875 35.40625 
Q 43.21875 41.609375 39.140625 45 
Q 35.0625 48.390625 27.6875 48.390625 
Q 23 48.390625 18.546875 47.265625 
Q 14.109375 46.140625 10.015625 43.890625 
L 10.015625 52.203125 
Q 14.9375 54.109375 19.578125 55.046875 
Q 24.21875 56 28.609375 56 
Q 40.484375 56 46.34375 49.84375 
Q 52.203125 43.703125 52.203125 31.203125 
z
" id="DejaVuSans-97"/>
       <path d="M 44.28125 53.078125 
L 44.28125 44.578125 
Q 40.484375 46.53125 36.375 47.5 
Q 32.28125 48.484375 27.875 48.484375 
Q 21.1875 48.484375 17.84375 46.4375 
Q 14.5 44.390625 14.5 40.28125 
Q 14.5 37.15625 16.890625 35.375 
Q 19.28125 33.59375 26.515625 31.984375 
L 29.59375 31.296875 
Q 39.15625 29.25 43.1875 25.515625 
Q 47.21875 21.78125 47.21875 15.09375 
Q 47.21875 7.46875 41.1875 3.015625 
Q 35.15625 -1.421875 24.609375 -1.421875 
Q 20.21875 -1.421875 15.453125 -0.5625 
Q 10.6875 0.296875 5.421875 2 
L 5.421875 11.28125 
Q 10.40625 8.6875 15.234375 7.390625 
Q 20.0625 6.109375 24.8125 6.109375 
Q 31.15625 6.109375 34.5625 8.28125 
Q 37.984375 10.453125 37.984375 14.40625 
Q 37.984375 18.0625 35.515625 20.015625 
Q 33.0625 21.96875 24.703125 23.78125 
L 21.578125 24.515625 
Q 13.234375 26.265625 9.515625 29.90625 
Q 5.8125 33.546875 5.8125 39.890625 
Q 5.8125 47.609375 11.28125 51.796875 
Q 16.75 56 26.8125 56 
Q 31.78125 56 36.171875 55.265625 
Q 40.578125 54.546875 44.28125 53.078125 
z
" id="DejaVuSans-115"/>
       <path id="DejaVuSans-32"/>
       <path d="M 25.390625 72.90625 
L 33.6875 72.90625 
L 8.296875 -9.28125 
L 0 -9.28125 
z
" id="DejaVuSans-47"/>
       <path d="M 45.40625 46.390625 
L 45.40625 75.984375 
L 54.390625 75.984375 
L 54.390625 0 
L 45.40625 0 
L 45.40625 8.203125 
Q 42.578125 3.328125 38.25 0.953125 
Q 33.9375 -1.421875 27.875 -1.421875 
Q 17.96875 -1.421875 11.734375 6.484375 
Q 5.515625 14.40625 5.515625 27.296875 
Q 5.515625 40.1875 11.734375 48.09375 
Q 17.96875 56 27.875 56 
Q 33.9375 56 38.25 53.625 
Q 42.578125 51.265625 45.40625 46.390625 
z
M 14.796875 27.296875 
Q 14.796875 17.390625 18.875 11.75 
Q 22.953125 6.109375 30.078125 6.109375 
Q 37.203125 6.109375 41.296875 11.75 
Q 45.40625 17.390625 45.40625 27.296875 
Q 45.40625 37.203125 41.296875 42.84375 
Q 37.203125 48.484375 30.078125 48.484375 
Q 22.953125 48.484375 18.875 42.84375 
Q 14.796875 37.203125 14.796875 27.296875 
z
" id="DejaVuSans-100"/>
       <path d="M 9.421875 54.6875 
L 18.40625 54.6875 
L 18.40625 0 
L 9.421875 0 
z
M 9.421875 75.984375 
L 18.40625 75.984375 
L 18.40625 64.59375 
L 9.421875 64.59375 
z
" id="DejaVuSans-105"/>
       <path d="M 52 44.1875 
Q 55.375 50.25 60.0625 53.125 
Q 64.75 56 71.09375 56 
Q 79.640625 56 84.28125 50.015625 
Q 88.921875 44.046875 88.921875 33.015625 
L 88.921875 0 
L 79.890625 0 
L 79.890625 32.71875 
Q 79.890625 40.578125 77.09375 44.375 
Q 74.3125 48.1875 68.609375 48.1875 
Q 61.625 48.1875 57.5625 43.546875 
Q 53.515625 38.921875 53.515625 30.90625 
L 53.515625 0 
L 44.484375 0 
L 44.484375 32.71875 
Q 44.484375 40.625 41.703125 44.40625 
Q 38.921875 48.1875 33.109375 48.1875 
Q 26.21875 48.1875 22.15625 43.53125 
Q 18.109375 38.875 18.109375 30.90625 
L 18.109375 0 
L 9.078125 0 
L 9.078125 54.6875 
L 18.109375 54.6875 
L 18.109375 46.1875 
Q 21.1875 51.21875 25.484375 53.609375 
Q 29.78125 56 35.6875 56 
Q 41.65625 56 45.828125 52.96875 
Q 50 49.953125 52 44.1875 
z
" id="DejaVuSans-109"/>
       <path d="M 54.890625 33.015625 
L 54.890625 0 
L 45.90625 0 
L 45.90625 32.71875 
Q 45.90625 40.484375 42.875 44.328125 
Q 39.84375 48.1875 33.796875 48.1875 
Q 26.515625 48.1875 22.3125 43.546875 
Q 18.109375 38.921875 18.109375 30.90625 
L 18.109375 0 
L 9.078125 0 
L 9.078125 54.6875 
L 18.109375 54.6875 
L 18.109375 46.1875 
Q 21.34375 51.125 25.703125 53.5625 
Q 30.078125 56 35.796875 56 
Q 45.21875 56 50.046875 50.171875 
Q 54.890625 44.34375 54.890625 33.015625 
z
" id="DejaVuSans-110"/>
       <path d="M 8.015625 75.875 
L 15.828125 75.875 
Q 23.140625 64.359375 26.78125 53.3125 
Q 30.421875 42.28125 30.421875 31.390625 
Q 30.421875 20.453125 26.78125 9.375 
Q 23.140625 -1.703125 15.828125 -13.1875 
L 8.015625 -13.1875 
Q 14.5 -2 17.703125 9.0625 
Q 20.90625 20.125 20.90625 31.390625 
Q 20.90625 42.671875 17.703125 53.65625 
Q 14.5 64.65625 8.015625 75.875 
z
" id="DejaVuSans-41"/>
      </defs>
      <use xlink:href="#DejaVuSans-108"/>
      <use x="27.783203" xlink:href="#DejaVuSans-111"/>
      <use x="88.964844" xlink:href="#DejaVuSans-103"/>
      <use x="152.441406" xlink:href="#DejaVuSans-49"/>
      <use x="216.064453" xlink:href="#DejaVuSans-48"/>
      <use x="279.6875" xlink:href="#DejaVuSans-40"/>
      <use x="318.701172" xlink:href="#DejaVuSans-101"/>
      <use x="380.224609" xlink:href="#DejaVuSans-118"/>
      <use x="439.404297" xlink:href="#DejaVuSans-97"/>
      <use x="500.683594" xlink:href="#DejaVuSans-108"/>
      <use x="528.466797" xlink:href="#DejaVuSans-115"/>
      <use x="580.566406" xlink:href="#DejaVuSans-32"/>
      <use x="612.353516" xlink:href="#DejaVuSans-47"/>
      <use x="646.044922" xlink:href="#DejaVuSans-32"/>
      <use x="677.832031" xlink:href="#DejaVuSans-100"/>
      <use x="741.308594" xlink:href="#DejaVuSans-105"/>
      <use x="769.091797" xlink:href="#DejaVuSans-109"/>
      <use x="866.503906" xlink:href="#DejaVuSans-101"/>
      <use x="928.027344" xlink:href="#DejaVuSans-110"/>
      <use x="991.40625" xlink:href="#DejaVuSans-115"/>
      <use x="1043.505859" xlink:href="#DejaVuSans-105"/>
      <use x="1071.289062" xlink:href="#DejaVuSans-111"/>
      <use x="1132.470703" xlink:href="#DejaVuSans-110"/>
      <use x="1195.849609" xlink:href="#DejaVuSans-41"/>
     </g>
    </g>
   </g>
   <g id="matplotlib.axis_2">
    <g id="ytick_1">
     <g id="line2d_17">
      <path clip-path="url(#p255d7a1307)" d="M 57.6 298.944 
L 360.8064 298.944 
" style="fill:none;stroke:#b0b0b0;stroke-linecap:square;stroke-width:0.8;"/>
     </g>
     <g id="line2d_18">
      <defs>
       <path d="M 0 0 
L -3.5 0 
" id="m5139d9dcd6" style="stroke:#000000;stroke-width:0.8;"/>
      </defs>
      <g>
       <use style="stroke:#000000;stroke-width:0.8;" x="57.6" xlink:href="#m5139d9dcd6" y="298.944"/>
      </g>
     </g>
     <g id="text_6">
      <!-- 0.0 -->
      <g transform="translate(25.155 305.02275)scale(0.16 -0.16)">
       <defs>
        <path d="M 10.6875 12.40625 
L 21 12.40625 
L 21 0 
L 10.6875 0 
z
" id="DejaVuSans-46"/>
       </defs>
       <use xlink:href="#DejaVuSans-48"/>
       <use x="63.623047" xlink:href="#DejaVuSans-46"/>
       <use x="95.410156" xlink:href="#DejaVuSans-48"/>
      </g>
     </g>
    </g>
    <g id="ytick_2">
     <g id="line2d_19">
      <path clip-path="url(#p255d7a1307)" d="M 57.6 240.5376 
L 360.8064 240.5376 
" style="fill:none;stroke:#b0b0b0;stroke-linecap:square;stroke-width:0.8;"/>
     </g>
     <g id="line2d_20">
      <g>
       <use style="stroke:#000000;stroke-width:0.8;" x="57.6" xlink:href="#m5139d9dcd6" y="240.5376"/>
      </g>
     </g>
     <g id="text_7">
      <!-- 0.2 -->
      <g transform="translate(25.155 246.61635)scale(0.16 -0.16)">
       <use xlink:href="#DejaVuSans-48"/>
       <use x="63.623047" xlink:href="#DejaVuSans-46"/>
       <use x="95.410156" xlink:href="#DejaVuSans-50"/>
      </g>
     </g>
    </g>
    <g id="ytick_3">
     <g id="line2d_21">
      <path clip-path="url(#p255d7a1307)" d="M 57.6 182.1312 
L 360.8064 182.1312 
" style="fill:none;stroke:#b0b0b0;stroke-linecap:square;stroke-width:0.8;"/>
     </g>
     <g id="line2d_22">
      <g>
       <use style="stroke:#000000;stroke-width:0.8;" x="57.6" xlink:href="#m5139d9dcd6" y="182.1312"/>
      </g>
     </g>
     <g id="text_8">
      <!-- 0.4 -->
      <g transform="translate(25.155 188.20995)scale(0.16 -0.16)">
       <use xlink:href="#DejaVuSans-48"/>
       <use x="63.623047" xlink:href="#DejaVuSans-46"/>
       <use x="95.410156" xlink:href="#DejaVuSans-52"/>
      </g>
     </g>
    </g>
    <g id="ytick_4">
     <g id="line2d_23">
      <path clip-path="url(#p255d7a1307)" d="M 57.6 123.7248 
L 360.8064 123.7248 
" style="fill:none;stroke:#b0b0b0;stroke-linecap:square;stroke-width:0.8;"/>
     </g>
     <g id="line2d_24">
      <g>
       <use style="stroke:#000000;stroke-width:0.8;" x="57.6" xlink:href="#m5139d9dcd6" y="123.7248"/>
      </g>
     </g>
     <g id="text_9">
      <!-- 0.6 -->
      <g transform="translate(25.155 129.80355)scale(0.16 -0.16)">
       <use xlink:href="#DejaVuSans-48"/>
       <use x="63.623047" xlink:href="#DejaVuSans-46"/>
       <use x="95.410156" xlink:href="#DejaVuSans-54"/>
      </g>
     </g>
    </g>
    <g id="ytick_5">
     <g id="line2d_25">
      <path clip-path="url(#p255d7a1307)" d="M 57.6 65.3184 
L 360.8064 65.3184 
" style="fill:none;stroke:#b0b0b0;stroke-linecap:square;stroke-width:0.8;"/>
     </g>
     <g id="line2d_26">
      <g>
       <use style="stroke:#000000;stroke-width:0.8;" x="57.6" xlink:href="#m5139d9dcd6" y="65.3184"/>
      </g>
     </g>
     <g id="text_10">
      <!-- 0.8 -->
      <g transform="translate(25.155 71.39715)scale(0.16 -0.16)">
       <defs>
        <path d="M 31.78125 34.625 
Q 24.75 34.625 20.71875 30.859375 
Q 16.703125 27.09375 16.703125 20.515625 
Q 16.703125 13.921875 20.71875 10.15625 
Q 24.75 6.390625 31.78125 6.390625 
Q 38.8125 6.390625 42.859375 10.171875 
Q 46.921875 13.96875 46.921875 20.515625 
Q 46.921875 27.09375 42.890625 30.859375 
Q 38.875 34.625 31.78125 34.625 
z
M 21.921875 38.8125 
Q 15.578125 40.375 12.03125 44.71875 
Q 8.5 49.078125 8.5 55.328125 
Q 8.5 64.0625 14.71875 69.140625 
Q 20.953125 74.21875 31.78125 74.21875 
Q 42.671875 74.21875 48.875 69.140625 
Q 55.078125 64.0625 55.078125 55.328125 
Q 55.078125 49.078125 51.53125 44.71875 
Q 48 40.375 41.703125 38.8125 
Q 48.828125 37.15625 52.796875 32.3125 
Q 56.78125 27.484375 56.78125 20.515625 
Q 56.78125 9.90625 50.3125 4.234375 
Q 43.84375 -1.421875 31.78125 -1.421875 
Q 19.734375 -1.421875 13.25 4.234375 
Q 6.78125 9.90625 6.78125 20.515625 
Q 6.78125 27.484375 10.78125 32.3125 
Q 14.796875 37.15625 21.921875 38.8125 
z
M 18.3125 54.390625 
Q 18.3125 48.734375 21.84375 45.5625 
Q 25.390625 42.390625 31.78125 42.390625 
Q 38.140625 42.390625 41.71875 45.5625 
Q 45.3125 48.734375 45.3125 54.390625 
Q 45.3125 60.0625 41.71875 63.234375 
Q 38.140625 66.40625 31.78125 66.40625 
Q 25.390625 66.40625 21.84375 63.234375 
Q 18.3125 60.0625 18.3125 54.390625 
z
" id="DejaVuSans-56"/>
       </defs>
       <use xlink:href="#DejaVuSans-48"/>
       <use x="63.623047" xlink:href="#DejaVuSans-46"/>
       <use x="95.410156" xlink:href="#DejaVuSans-56"/>
      </g>
     </g>
    </g>
    <g id="ytick_6">
     <g id="line2d_27">
      <path clip-path="url(#p255d7a1307)" d="M 57.6 6.912 
L 360.8064 6.912 
" style="fill:none;stroke:#b0b0b0;stroke-linecap:square;stroke-width:0.8;"/>
     </g>
     <g id="line2d_28">
      <g>
       <use style="stroke:#000000;stroke-width:0.8;" x="57.6" xlink:href="#m5139d9dcd6" y="6.912"/>
      </g>
     </g>
     <g id="text_11">
      <!-- 1.0 -->
      <g transform="translate(25.155 12.99075)scale(0.16 -0.16)">
       <use xlink:href="#DejaVuSans-49"/>
       <use x="63.623047" xlink:href="#DejaVuSans-46"/>
       <use x="95.410156" xlink:href="#DejaVuSans-48"/>
      </g>
     </g>
    </g>
    <g id="text_12">
     <!-- Fraction of function,target pairs -->
     <g transform="translate(17.619531 287.313)rotate(-90)scale(0.17 -0.17)">
      <defs>
       <path d="M 9.8125 72.90625 
L 51.703125 72.90625 
L 51.703125 64.59375 
L 19.671875 64.59375 
L 19.671875 43.109375 
L 48.578125 43.109375 
L 48.578125 34.8125 
L 19.671875 34.8125 
L 19.671875 0 
L 9.8125 0 
z
" id="DejaVuSans-70"/>
       <path d="M 41.109375 46.296875 
Q 39.59375 47.171875 37.8125 47.578125 
Q 36.03125 48 33.890625 48 
Q 26.265625 48 22.1875 43.046875 
Q 18.109375 38.09375 18.109375 28.8125 
L 18.109375 0 
L 9.078125 0 
L 9.078125 54.6875 
L 18.109375 54.6875 
L 18.109375 46.1875 
Q 20.953125 51.171875 25.484375 53.578125 
Q 30.03125 56 36.53125 56 
Q 37.453125 56 38.578125 55.875 
Q 39.703125 55.765625 41.0625 55.515625 
z
" id="DejaVuSans-114"/>
       <path d="M 48.78125 52.59375 
L 48.78125 44.1875 
Q 44.96875 46.296875 41.140625 47.34375 
Q 37.3125 48.390625 33.40625 48.390625 
Q 24.65625 48.390625 19.8125 42.84375 
Q 14.984375 37.3125 14.984375 27.296875 
Q 14.984375 17.28125 19.8125 11.734375 
Q 24.65625 6.203125 33.40625 6.203125 
Q 37.3125 6.203125 41.140625 7.25 
Q 44.96875 8.296875 48.78125 10.40625 
L 48.78125 2.09375 
Q 45.015625 0.34375 40.984375 -0.53125 
Q 36.96875 -1.421875 32.421875 -1.421875 
Q 20.0625 -1.421875 12.78125 6.34375 
Q 5.515625 14.109375 5.515625 27.296875 
Q 5.515625 40.671875 12.859375 48.328125 
Q 20.21875 56 33.015625 56 
Q 37.15625 56 41.109375 55.140625 
Q 45.0625 54.296875 48.78125 52.59375 
z
" id="DejaVuSans-99"/>
       <path d="M 18.3125 70.21875 
L 18.3125 54.6875 
L 36.8125 54.6875 
L 36.8125 47.703125 
L 18.3125 47.703125 
L 18.3125 18.015625 
Q 18.3125 11.328125 20.140625 9.421875 
Q 21.96875 7.515625 27.59375 7.515625 
L 36.8125 7.515625 
L 36.8125 0 
L 27.59375 0 
Q 17.1875 0 13.234375 3.875 
Q 9.28125 7.765625 9.28125 18.015625 
L 9.28125 47.703125 
L 2.6875 47.703125 
L 2.6875 54.6875 
L 9.28125 54.6875 
L 9.28125 70.21875 
z
" id="DejaVuSans-116"/>
       <path d="M 37.109375 75.984375 
L 37.109375 68.5 
L 28.515625 68.5 
Q 23.6875 68.5 21.796875 66.546875 
Q 19.921875 64.59375 19.921875 59.515625 
L 19.921875 54.6875 
L 34.71875 54.6875 
L 34.71875 47.703125 
L 19.921875 47.703125 
L 19.921875 0 
L 10.890625 0 
L 10.890625 47.703125 
L 2.296875 47.703125 
L 2.296875 54.6875 
L 10.890625 54.6875 
L 10.890625 58.5 
Q 10.890625 67.625 15.140625 71.796875 
Q 19.390625 75.984375 28.609375 75.984375 
z
" id="DejaVuSans-102"/>
       <path d="M 8.5 21.578125 
L 8.5 54.6875 
L 17.484375 54.6875 
L 17.484375 21.921875 
Q 17.484375 14.15625 20.5 10.265625 
Q 23.53125 6.390625 29.59375 6.390625 
Q 36.859375 6.390625 41.078125 11.03125 
Q 45.3125 15.671875 45.3125 23.6875 
L 45.3125 54.6875 
L 54.296875 54.6875 
L 54.296875 0 
L 45.3125 0 
L 45.3125 8.40625 
Q 42.046875 3.421875 37.71875 1 
Q 33.40625 -1.421875 27.6875 -1.421875 
Q 18.265625 -1.421875 13.375 4.4375 
Q 8.5 10.296875 8.5 21.578125 
z
M 31.109375 56 
z
" id="DejaVuSans-117"/>
       <path d="M 11.71875 12.40625 
L 22.015625 12.40625 
L 22.015625 4 
L 14.015625 -11.625 
L 7.71875 -11.625 
L 11.71875 4 
z
" id="DejaVuSans-44"/>
       <path d="M 18.109375 8.203125 
L 18.109375 -20.796875 
L 9.078125 -20.796875 
L 9.078125 54.6875 
L 18.109375 54.6875 
L 18.109375 46.390625 
Q 20.953125 51.265625 25.265625 53.625 
Q 29.59375 56 35.59375 56 
Q 45.5625 56 51.78125 48.09375 
Q 58.015625 40.1875 58.015625 27.296875 
Q 58.015625 14.40625 51.78125 6.484375 
Q 45.5625 -1.421875 35.59375 -1.421875 
Q 29.59375 -1.421875 25.265625 0.953125 
Q 20.953125 3.328125 18.109375 8.203125 
z
M 48.6875 27.296875 
Q 48.6875 37.203125 44.609375 42.84375 
Q 40.53125 48.484375 33.40625 48.484375 
Q 26.265625 48.484375 22.1875 42.84375 
Q 18.109375 37.203125 18.109375 27.296875 
Q 18.109375 17.390625 22.1875 11.75 
Q 26.265625 6.109375 33.40625 6.109375 
Q 40.53125 6.109375 44.609375 11.75 
Q 48.6875 17.390625 48.6875 27.296875 
z
" id="DejaVuSans-112"/>
      </defs>
      <use xlink:href="#DejaVuSans-70"/>
      <use x="50.269531" xlink:href="#DejaVuSans-114"/>
      <use x="91.382812" xlink:href="#DejaVuSans-97"/>
      <use x="152.662109" xlink:href="#DejaVuSans-99"/>
      <use x="207.642578" xlink:href="#DejaVuSans-116"/>
      <use x="246.851562" xlink:href="#DejaVuSans-105"/>
      <use x="274.634766" xlink:href="#DejaVuSans-111"/>
      <use x="335.816406" xlink:href="#DejaVuSans-110"/>
      <use x="399.195312" xlink:href="#DejaVuSans-32"/>
      <use x="430.982422" xlink:href="#DejaVuSans-111"/>
      <use x="492.164062" xlink:href="#DejaVuSans-102"/>
      <use x="527.369141" xlink:href="#DejaVuSans-32"/>
      <use x="559.15625" xlink:href="#DejaVuSans-102"/>
      <use x="594.361328" xlink:href="#DejaVuSans-117"/>
      <use x="657.740234" xlink:href="#DejaVuSans-110"/>
      <use x="721.119141" xlink:href="#DejaVuSans-99"/>
      <use x="776.099609" xlink:href="#DejaVuSans-116"/>
      <use x="815.308594" xlink:href="#DejaVuSans-105"/>
      <use x="843.091797" xlink:href="#DejaVuSans-111"/>
      <use x="904.273438" xlink:href="#DejaVuSans-110"/>
      <use x="967.652344" xlink:href="#DejaVuSans-44"/>
      <use x="999.439453" xlink:href="#DejaVuSans-116"/>
      <use x="1038.648438" xlink:href="#DejaVuSans-97"/>
      <use x="1099.927734" xlink:href="#DejaVuSans-114"/>
      <use x="1139.291016" xlink:href="#DejaVuSans-103"/>
      <use x="1202.767578" xlink:href="#DejaVuSans-101"/>
      <use x="1264.291016" xlink:href="#DejaVuSans-116"/>
      <use x="1303.5" xlink:href="#DejaVuSans-32"/>
      <use x="1335.287109" xlink:href="#DejaVuSans-112"/>
      <use x="1398.763672" xlink:href="#DejaVuSans-97"/>
      <use x="1460.042969" xlink:href="#DejaVuSans-105"/>
      <use x="1487.826172" xlink:href="#DejaVuSans-114"/>
      <use x="1528.939453" xlink:href="#DejaVuSans-115"/>
     </g>
    </g>
   </g>
   <g id="line2d_29">
    <defs>
     <path d="M 0 1.5 
C 0.397805 1.5 0.77937 1.341951 1.06066 1.06066 
C 1.341951 0.77937 1.5 0.397805 1.5 0 
C 1.5 -0.397805 1.341951 -0.77937 1.06066 -1.06066 
C 0.77937 -1.341951 0.397805 -1.5 0 -1.5 
C -0.397805 -1.5 -0.77937 -1.341951 -1.06066 -1.06066 
C -1.341951 -0.77937 -1.5 -0.397805 -1.5 0 
C -1.5 0.397805 -1.341951 0.77937 -1.06066 1.06066 
C -0.77937 1.341951 -0.397805 1.5 0 1.5 
z
" id="m449707b53e" style="stroke:#000080;"/>
    </defs>
    <g>
     <use style="fill:#000080;stroke:#000080;" x="189.278582" xlink:href="#m449707b53e" y="6.912"/>
     <use style="fill:#000080;stroke:#000080;" x="189.278582" xlink:href="#m449707b53e" y="6.912"/>
    </g>
   </g>
   <g id="line2d_30">
    <path d="M 65.227428 298.944 
L 65.227428 298.825288 
L 99.950294 298.825288 
L 99.950294 298.706576 
L 101.833019 298.706576 
L 101.833019 298.350439 
L 103.544339 298.350439 
L 103.544339 297.87559 
L 109.159456 297.87559 
L 109.159456 297.756878 
L 113.478107 297.756878 
L 113.478107 297.638166 
L 114.418881 297.638166 
L 114.418881 297.400741 
L 119.944983 297.400741 
L 119.944983 297.282029 
L 121.265635 297.282029 
L 121.265635 297.163317 
L 122.499621 297.163317 
L 122.499621 296.925893 
L 124.210942 296.925893 
L 124.210942 296.569756 
L 124.748451 296.569756 
L 124.748451 296.451044 
L 126.274549 296.451044 
L 126.274549 296.332332 
L 128.133992 296.332332 
L 128.133992 296.094907 
L 132.109044 296.094907 
L 132.109044 295.976195 
L 133.154399 295.976195 
L 133.154399 295.857483 
L 134.463557 295.857483 
L 134.463557 295.738771 
L 135.388902 295.738771 
L 135.388902 295.501346 
L 137.38594 295.501346 
L 137.38594 295.026498 
L 138.438609 295.026498 
L 138.438609 294.789073 
L 138.692823 294.789073 
L 138.692823 294.551649 
L 139.191172 294.551649 
L 139.191172 294.314224 
L 139.435481 294.314224 
L 139.435481 294.195512 
L 139.914782 294.195512 
L 139.914782 293.958088 
L 140.14993 293.958088 
L 140.14993 293.483239 
L 140.838234 293.483239 
L 140.838234 293.364527 
L 141.062184 293.364527 
L 141.062184 292.770966 
L 141.283499 292.770966 
L 141.283499 292.652254 
L 141.50224 292.652254 
L 141.50224 292.533541 
L 142.352625 292.533541 
L 142.352625 292.414829 
L 142.559347 292.414829 
L 142.559347 291.93998 
L 142.763822 291.93998 
L 142.763822 291.227707 
L 143.754133 291.227707 
L 143.754133 291.108995 
L 143.946089 291.108995 
L 143.946089 290.752859 
L 144.136106 290.752859 
L 144.136106 290.634146 
L 144.324223 290.634146 
L 144.324223 290.515434 
L 144.510478 290.515434 
L 144.510478 290.396722 
L 144.694906 290.396722 
L 144.694906 290.27801 
L 144.877544 290.27801 
L 144.877544 290.159298 
L 146.108646 290.159298 
L 146.108646 289.328312 
L 146.27812 289.328312 
L 146.27812 288.853463 
L 146.612557 288.853463 
L 146.612557 288.734751 
L 146.941151 288.734751 
L 146.941151 288.022478 
L 147.103321 288.022478 
L 147.103321 287.903766 
L 147.264104 287.903766 
L 147.264104 287.191493 
L 147.423525 287.191493 
L 147.423525 287.07278 
L 147.581606 287.07278 
L 147.581606 286.835356 
L 147.73837 286.835356 
L 147.73837 286.716644 
L 147.893838 286.716644 
L 147.893838 286.47922 
L 148.048032 286.47922 
L 148.048032 286.360507 
L 148.200973 286.360507 
L 148.200973 286.123083 
L 148.352679 286.123083 
L 148.352679 286.004371 
L 148.503173 286.004371 
L 148.503173 285.766946 
L 148.652472 285.766946 
L 148.652472 285.41081 
L 148.800595 285.41081 
L 148.800595 285.292098 
L 148.947561 285.292098 
L 148.947561 285.054673 
L 149.093387 285.054673 
L 149.093387 284.935961 
L 149.524205 284.935961 
L 149.524205 283.867551 
L 149.945377 283.867551 
L 149.945377 283.630127 
L 150.083698 283.630127 
L 150.083698 283.27399 
L 150.221009 283.27399 
L 150.221009 283.155278 
L 150.357325 283.155278 
L 150.357325 282.917854 
L 150.492661 282.917854 
L 150.492661 282.799141 
L 150.62703 282.799141 
L 150.62703 282.561717 
L 150.892922 282.561717 
L 150.892922 281.968156 
L 151.024471 281.968156 
L 151.024471 281.730732 
L 151.155108 281.730732 
L 151.155108 281.61202 
L 151.41369 281.61202 
L 151.41369 281.137171 
L 151.54166 281.137171 
L 151.54166 280.54361 
L 151.668766 280.54361 
L 151.668766 280.306185 
L 151.920429 280.306185 
L 151.920429 280.068761 
L 152.16877 280.068761 
L 152.16877 279.831337 
L 152.413875 279.831337 
L 152.413875 279.4752 
L 152.53524 279.4752 
L 152.53524 279.356488 
L 152.775647 279.356488 
L 152.775647 279.119063 
L 152.894708 279.119063 
L 152.894708 278.050654 
L 153.130592 278.050654 
L 153.130592 277.931941 
L 153.247435 277.931941 
L 153.247435 277.457093 
L 153.363556 277.457093 
L 153.363556 277.33838 
L 153.478964 277.33838 
L 153.478964 277.100956 
L 153.593669 277.100956 
L 153.593669 276.151259 
L 153.707679 276.151259 
L 153.707679 275.438985 
L 153.821002 275.438985 
L 153.821002 274.964137 
L 153.933646 274.964137 
L 153.933646 274.251863 
L 154.04562 274.251863 
L 154.04562 273.895727 
L 154.156931 273.895727 
L 154.267588 273.183454 
L 154.377597 273.183454 
L 154.486967 272.708605 
L 154.595705 272.708605 
L 154.595705 272.589893 
L 154.811312 272.589893 
L 154.918196 271.758907 
L 155.024477 271.758907 
L 155.13016 271.402771 
L 155.235253 271.402771 
L 155.339761 270.80921 
L 155.443693 270.80921 
L 155.547053 269.859512 
L 155.752086 269.859512 
L 155.752086 269.7408 
L 155.954908 269.7408 
L 156.055505 269.384663 
L 156.155566 269.384663 
L 156.255099 268.67239 
L 156.354107 268.67239 
L 156.452597 268.078829 
L 156.550574 268.078829 
L 156.648044 266.654283 
L 156.937458 266.654283 
L 156.937458 266.179434 
L 157.127956 266.179434 
L 157.222487 265.229737 
L 157.316545 265.229737 
L 157.410135 264.398751 
L 157.503261 264.398751 
L 157.595929 263.923902 
L 157.688143 263.923902 
L 157.779907 262.618068 
L 157.871225 262.618068 
L 157.962102 261.668371 
L 158.052543 261.668371 
L 158.14255 261.07481 
L 158.321284 261.07481 
L 158.321284 260.956098 
L 158.58624 260.956098 
L 158.673735 260.362537 
L 158.760826 260.362537 
L 158.847515 259.768976 
L 158.933807 259.768976 
L 159.019705 259.056702 
L 159.105212 259.056702 
L 159.190332 258.463141 
L 159.275069 258.463141 
L 159.359426 257.394732 
L 159.443406 257.394732 
L 159.527013 256.801171 
L 159.693121 256.801171 
L 159.775628 256.326322 
L 159.939564 256.326322 
L 160.020999 255.970185 
L 160.102084 255.970185 
L 160.18282 255.495337 
L 160.263211 255.495337 
L 160.343261 254.545639 
L 160.422971 254.545639 
L 160.502345 253.239805 
L 160.581385 253.239805 
L 160.660094 252.40882 
L 160.738476 252.40882 
L 160.816532 251.577834 
L 160.894266 251.577834 
L 160.97168 250.628137 
L 161.048777 250.628137 
L 161.125559 250.272 
L 161.202028 250.272 
L 161.278189 249.559727 
L 161.354042 249.559727 
L 161.42959 248.966166 
L 161.504837 248.966166 
L 161.579783 248.253893 
L 161.654432 248.253893 
L 161.728786 246.47321 
L 161.802848 246.47321 
L 161.876619 245.998361 
L 161.950101 245.998361 
L 162.023298 245.760937 
L 162.096211 245.760937 
L 162.168843 244.33639 
L 162.241195 244.33639 
L 162.31327 243.505405 
L 162.38507 243.505405 
L 162.456597 242.555707 
L 162.527853 242.555707 
L 162.59884 241.843434 
L 162.66956 241.843434 
L 162.740015 241.131161 
L 162.810208 241.131161 
L 162.880139 239.825327 
L 163.019227 239.825327 
L 163.088387 238.756917 
L 163.157294 238.756917 
L 163.22595 238.40078 
L 163.294355 238.40078 
L 163.362513 237.80722 
L 163.430425 237.80722 
L 163.498092 237.213659 
L 163.565517 237.213659 
L 163.632702 235.907824 
L 163.699647 235.907824 
L 163.699647 235.432976 
L 163.832826 235.432976 
L 163.832826 234.839415 
L 164.030845 234.839415 
L 164.09639 233.889717 
L 164.161708 233.889717 
L 164.2268 232.702595 
L 164.291668 232.702595 
L 164.356312 232.465171 
L 164.484939 232.465171 
L 164.548924 231.87161 
L 164.612692 231.87161 
L 164.676244 231.040624 
L 164.739583 231.040624 
L 164.802709 230.447063 
L 164.990826 230.447063 
L 165.053116 229.972215 
L 165.1152 229.972215 
L 165.17708 229.022517 
L 165.238758 229.022517 
L 165.300233 227.835395 
L 165.361509 227.835395 
L 165.422585 227.479259 
L 165.544147 227.479259 
L 165.604634 226.410849 
L 165.664928 226.410849 
L 165.725029 226.054712 
L 165.784938 226.054712 
L 165.844657 225.461151 
L 165.904188 225.461151 
L 165.96353 224.86759 
L 166.022686 224.86759 
L 166.081656 223.086907 
L 166.199045 223.086907 
L 166.257466 222.374634 
L 166.315707 222.374634 
L 166.373767 221.424937 
L 166.431649 221.424937 
L 166.489353 220.950088 
L 166.546881 220.950088 
L 166.604233 220.00039 
L 166.661411 220.00039 
L 166.718416 218.694556 
L 166.775248 218.694556 
L 166.83191 217.863571 
L 166.888401 217.863571 
L 166.944723 216.2016 
L 167.000877 216.2016 
L 167.056864 215.251902 
L 167.16834 215.251902 
L 167.279159 213.827356 
L 167.334325 213.827356 
L 167.444174 212.877659 
L 167.498859 212.877659 
L 167.607754 211.571824 
L 167.661966 211.571824 
L 167.769923 209.078868 
L 167.877265 209.078868 
L 167.983997 207.53561 
L 168.090128 207.53561 
L 168.195663 206.585912 
L 168.300609 206.585912 
L 168.352863 206.229776 
L 168.456938 206.229776 
L 168.560441 204.092956 
L 168.611979 204.092956 
L 168.714635 203.499395 
L 168.765753 203.499395 
L 168.867575 201.362576 
L 168.91828 201.362576 
L 169.019282 200.412878 
L 169.06958 200.412878 
L 169.169775 196.970224 
L 169.219673 196.970224 
L 169.319074 195.308254 
L 169.368578 195.308254 
L 169.467197 193.646283 
L 169.516314 193.646283 
L 169.614163 191.746888 
L 169.662898 191.746888 
L 169.711507 189.847493 
L 169.808349 189.847493 
L 169.904695 189.372644 
L 169.952684 189.372644 
L 170.00055 188.779083 
L 170.09592 188.779083 
L 170.190808 187.829385 
L 170.238073 187.829385 
L 170.332249 187.235824 
L 170.37916 187.235824 
L 170.472634 186.642263 
L 170.519197 186.642263 
L 170.61198 185.336429 
L 170.6582 185.336429 
L 170.7503 183.555746 
L 170.796182 183.555746 
L 170.887612 181.775063 
L 170.93316 181.775063 
L 171.023928 179.638244 
L 171.069148 179.638244 
L 171.11426 179.163395 
L 171.20416 179.163395 
L 171.293632 177.026576 
L 171.338209 177.026576 
L 171.427048 175.602029 
L 171.47131 175.602029 
L 171.559524 175.245893 
L 171.603476 175.245893 
L 171.691074 173.583922 
L 171.73472 173.583922 
L 171.82171 171.684527 
L 171.865055 171.684527 
L 171.951446 170.853541 
L 171.994493 170.853541 
L 172.080292 167.648312 
L 172.123046 167.648312 
L 172.165703 166.698615 
L 172.250727 166.698615 
L 172.335368 165.155356 
L 172.419631 165.155356 
L 172.461621 164.561795 
L 172.545321 164.561795 
L 172.62865 159.338459 
L 172.670177 159.338459 
L 172.752956 158.507473 
L 172.794209 158.507473 
L 172.876446 156.845502 
L 172.91743 156.845502 
L 172.958324 156.489366 
L 173.039848 156.489366 
L 173.080478 155.895805 
L 173.201843 155.895805 
L 173.28232 155.183532 
L 173.32243 155.183532 
L 173.362455 154.471259 
L 173.442249 154.471259 
L 173.521707 153.758985 
L 173.56131 153.758985 
L 173.640268 152.334439 
L 173.679622 152.334439 
L 173.758086 151.622166 
L 173.836223 151.622166 
L 173.914037 149.604059 
L 173.952824 149.604059 
L 174.030158 148.298224 
L 174.068707 148.298224 
L 174.145567 146.99239 
L 174.18388 146.99239 
L 174.18388 146.754966 
L 174.298352 146.754966 
L 174.374282 146.280117 
L 174.412132 146.280117 
L 174.487605 145.092995 
L 174.525228 145.092995 
L 174.600249 144.380722 
L 174.637648 144.380722 
L 174.712223 143.074888 
L 174.7494 143.074888 
L 174.860492 139.869659 
L 174.934191 139.869659 
L 175.0442 137.25799 
L 175.080727 137.25799 
L 175.15357 135.952156 
L 175.226131 135.952156 
L 175.334451 133.103063 
L 175.37042 133.103063 
L 175.477915 130.372683 
L 175.51361 130.372683 
L 175.620293 128.235863 
L 175.655719 128.235863 
L 175.761601 127.167454 
L 175.796762 127.167454 
L 175.831859 125.624195 
L 175.936756 125.624195 
L 176.006364 124.555785 
L 176.075715 124.555785 
L 176.179266 122.775102 
L 176.213656 122.775102 
L 176.316452 121.706693 
L 176.350592 121.706693 
L 176.452644 120.400859 
L 176.486539 120.400859 
L 176.587858 118.382751 
L 176.62151 118.382751 
L 176.722107 116.602068 
L 176.788874 116.602068 
L 176.888582 115.05881 
L 176.921701 115.05881 
L 177.02071 112.92199 
L 177.053597 112.92199 
L 177.151915 109.954185 
L 177.184574 109.954185 
L 177.282212 107.342517 
L 177.314646 107.342517 
L 177.411613 105.205698 
L 177.475981 105.205698 
L 177.572122 103.306302 
L 177.60406 103.306302 
L 177.699551 101.288195 
L 177.731273 101.288195 
L 177.762943 100.575922 
L 177.889089 100.575922 
L 177.983147 99.270088 
L 178.014396 99.270088 
L 178.107831 98.32039 
L 178.138873 98.32039 
L 178.231693 96.65842 
L 178.262532 96.65842 
L 178.354746 93.45319 
L 178.385383 93.45319 
L 178.446509 92.266068 
L 178.507438 92.266068 
L 178.598461 91.316371 
L 178.6589 91.316371 
L 178.749196 90.366673 
L 178.779198 90.366673 
L 178.86892 89.060839 
L 178.898732 89.060839 
L 178.987886 86.805307 
L 179.017511 86.805307 
L 179.106105 84.431063 
L 179.135545 84.431063 
L 179.223586 82.412956 
L 179.252842 82.412956 
L 179.340338 80.98841 
L 179.369413 80.98841 
L 179.456369 79.801288 
L 179.485266 79.801288 
L 179.542926 78.732878 
L 179.60041 78.732878 
L 179.629086 77.308332 
L 179.714853 77.308332 
L 179.800231 76.12121 
L 179.828604 76.12121 
L 179.913468 74.459239 
L 179.941672 74.459239 
L 180.026029 72.559844 
L 180.054064 72.559844 
L 180.137919 71.135298 
L 180.165788 71.135298 
L 180.276853 66.980371 
L 180.304517 66.980371 
L 180.414768 62.944156 
L 180.44223 62.944156 
L 180.524377 61.51961 
L 180.578943 61.51961 
L 180.687602 59.264078 
L 180.714669 59.264078 
L 180.822549 57.72082 
L 180.929814 57.72082 
L 181.036471 57.008546 
L 181.116069 57.008546 
L 181.221678 54.753015 
L 181.247987 54.753015 
L 181.35286 52.497483 
L 181.378988 52.497483 
L 181.483135 50.7168 
L 181.509082 50.7168 
L 181.612513 49.292254 
L 181.638283 49.292254 
L 181.741008 46.324449 
L 181.766602 46.324449 
L 181.868631 44.662478 
L 181.894052 44.662478 
L 181.995394 42.644371 
L 182.020644 42.644371 
L 182.121308 40.388839 
L 182.14639 40.388839 
L 182.246386 39.201717 
L 182.271302 39.201717 
L 182.345852 37.777171 
L 182.395389 37.777171 
L 182.494073 36.233912 
L 182.518663 36.233912 
L 182.616704 34.690654 
L 182.641134 34.690654 
L 182.738541 32.435122 
L 182.762814 32.435122 
L 182.859594 30.535727 
L 182.883711 30.535727 
L 182.979872 29.11118 
L 183.003836 29.11118 
L 183.099387 26.262088 
L 183.123199 26.262088 
L 183.218147 24.956254 
L 183.265442 24.956254 
L 183.312619 23.531707 
L 183.383162 23.531707 
L 183.453442 22.700722 
L 183.50015 22.700722 
L 183.569995 21.751024 
L 183.68583 21.751024 
L 183.777987 19.970341 
L 183.869695 19.970341 
L 183.938184 19.139356 
L 183.983705 19.139356 
L 184.074417 18.427083 
L 184.097028 18.427083 
L 184.142166 18.189659 
L 184.209672 18.189659 
L 184.299304 17.002537 
L 184.343961 17.002537 
L 184.388512 16.290263 
L 184.45514 16.290263 
L 184.565667 14.153444 
L 184.609696 14.153444 
L 184.719321 13.322459 
L 184.806563 13.322459 
L 184.91505 12.610185 
L 184.979843 12.610185 
L 184.979843 12.372761 
L 185.151541 12.372761 
L 185.258062 11.660488 
L 185.279294 11.660488 
L 185.385096 11.185639 
L 185.448293 11.185639 
L 185.511278 10.592078 
L 185.698978 10.592078 
L 185.781803 10.235941 
L 185.987283 10.235941 
L 186.048492 9.761093 
L 186.150067 9.761093 
L 186.150067 9.04882 
L 186.531124 9.04882 
L 186.550968 8.573971 
L 186.748259 8.573971 
L 186.748259 8.217834 
L 186.885142 8.217834 
L 186.885142 8.099122 
L 187.117506 8.099122 
L 187.213483 7.386849 
L 187.816409 7.386849 
L 187.816409 7.268137 
L 189.002064 7.268137 
L 189.002064 7.030712 
L 189.278582 7.030712 
L 189.278582 6.912 
L 360.8064 6.912 
L 360.8064 6.912 
" style="fill:none;stroke:#000080;stroke-linecap:square;stroke-width:1.5;"/>
   </g>
   <g id="line2d_31">
    <defs>
     <path d="M 0 6 
C 1.591219 6 3.117479 5.367802 4.242641 4.242641 
C 5.367802 3.117479 6 1.591219 6 0 
C 6 -1.591219 5.367802 -3.117479 4.242641 -4.242641 
C 3.117479 -5.367802 1.591219 -6 0 -6 
C -1.591219 -6 -3.117479 -5.367802 -4.242641 -4.242641 
C -5.367802 -3.117479 -6 -1.591219 -6 0 
C -6 1.591219 -5.367802 3.117479 -4.242641 4.242641 
C -3.117479 5.367802 -1.591219 6 0 6 
z
" id="m5beda1865e" style="stroke:#000080;stroke-width:1.5;"/>
    </defs>
    <g>
     <use style="fill-opacity:0;stroke:#000080;stroke-width:1.5;" x="156.550574" xlink:href="#m5beda1865e" y="268.078829"/>
     <use style="fill-opacity:0;stroke:#000080;stroke-width:1.5;" x="178.507438" xlink:href="#m5beda1865e" y="92.147356"/>
     <use style="fill-opacity:0;stroke:#000080;stroke-width:1.5;" x="189.278582" xlink:href="#m5beda1865e" y="7.030712"/>
     <use style="fill-opacity:0;stroke:#000080;stroke-width:1.5;" x="189.278582" xlink:href="#m5beda1865e" y="6.912"/>
     <use style="fill-opacity:0;stroke:#000080;stroke-width:1.5;" x="360.8064" xlink:href="#m5beda1865e" y="6.912"/>
    </g>
   </g>
   <g id="line2d_32">
    <path style="fill:none;stroke:#000080;stroke-linecap:square;stroke-width:1.5;"/>
    <g/>
   </g>
   <g id="line2d_33">
    <defs>
     <path d="M 0 1.5 
C 0.397805 1.5 0.77937 1.341951 1.06066 1.06066 
C 1.341951 0.77937 1.5 0.397805 1.5 0 
C 1.5 -0.397805 1.341951 -0.77937 1.06066 -1.06066 
C 0.77937 -1.341951 0.397805 -1.5 0 -1.5 
C -0.397805 -1.5 -0.77937 -1.341951 -1.06066 -1.06066 
C -1.341951 -0.77937 -1.5 -0.397805 -1.5 0 
C -1.5 0.397805 -1.341951 0.77937 -1.06066 1.06066 
C -0.77937 1.341951 -0.397805 1.5 0 1.5 
z
" id="me62a7490ff" style="stroke:#ff00ff;"/>
    </defs>
    <g>
     <use style="fill:#ff00ff;stroke:#ff00ff;" x="190.555274" xlink:href="#me62a7490ff" y="6.912"/>
     <use style="fill:#ff00ff;stroke:#ff00ff;" x="190.555274" xlink:href="#me62a7490ff" y="6.912"/>
    </g>
   </g>
   <g id="line2d_34">
    <path d="M 128.57149 298.944 
L 128.57149 298.706576 
L 140.611586 298.706576 
L 140.611586 298.587863 
L 143.560197 298.587863 
L 143.560197 298.469151 
L 144.510478 298.469151 
L 144.510478 298.350439 
L 144.694906 298.350439 
L 144.694906 298.113015 
L 145.93763 298.113015 
L 145.93763 297.994302 
L 146.108646 297.994302 
L 146.108646 297.638166 
L 147.581606 297.638166 
L 147.581606 297.519454 
L 148.200973 297.519454 
L 148.200973 297.400741 
L 148.947561 297.400741 
L 148.947561 297.163317 
L 149.093387 297.163317 
L 149.093387 297.044605 
L 149.238092 297.044605 
L 149.238092 296.80718 
L 149.665646 296.80718 
L 149.665646 296.688468 
L 150.083698 296.688468 
L 150.083698 296.569756 
L 150.760445 296.569756 
L 150.760445 296.451044 
L 151.155108 296.451044 
L 151.155108 296.094907 
L 151.284843 296.094907 
L 151.284843 295.976195 
L 151.41369 295.976195 
L 151.41369 295.738771 
L 152.045009 295.738771 
L 152.045009 295.620059 
L 152.16877 295.620059 
L 152.16877 295.501346 
L 152.291722 295.501346 
L 152.291722 295.382634 
L 152.413875 295.382634 
L 152.413875 295.263922 
L 153.363556 295.263922 
L 153.363556 295.14521 
L 153.478964 295.14521 
L 153.478964 295.026498 
L 153.593669 295.026498 
L 153.593669 294.789073 
L 153.707679 294.789073 
L 153.707679 294.670361 
L 153.821002 294.670361 
L 153.821002 294.551649 
L 154.04562 294.551649 
L 154.04562 294.314224 
L 154.156931 294.314224 
L 154.267588 293.839376 
L 154.377597 293.839376 
L 154.377597 293.601951 
L 154.595705 293.601951 
L 154.703817 293.245815 
L 154.811312 293.245815 
L 154.918196 292.296117 
L 155.024477 292.296117 
L 155.13016 291.108995 
L 155.235253 291.108995 
L 155.235253 290.634146 
L 155.443693 290.634146 
L 155.547053 289.684449 
L 155.649849 289.684449 
L 155.649849 289.565737 
L 155.954908 289.565737 
L 156.055505 289.090888 
L 156.354107 289.090888 
L 156.354107 288.972176 
L 156.550574 288.972176 
L 156.550574 288.853463 
L 156.84148 288.853463 
L 156.937458 288.616039 
L 157.127956 288.616039 
L 157.222487 288.378615 
L 157.410135 288.378615 
L 157.503261 287.666341 
L 157.595929 287.666341 
L 157.595929 287.310205 
L 157.779907 287.310205 
L 157.779907 286.123083 
L 158.052543 286.123083 
L 158.052543 285.885659 
L 158.232129 285.885659 
L 158.321284 285.054673 
L 158.498335 285.054673 
L 158.58624 284.3424 
L 158.760826 284.3424 
L 158.847515 283.867551 
L 158.933807 283.867551 
L 158.933807 283.748839 
L 159.275069 283.748839 
L 159.359426 283.392702 
L 159.443406 283.392702 
L 159.527013 283.155278 
L 159.775628 283.155278 
L 159.775628 283.036566 
L 160.020999 283.036566 
L 160.102084 282.324293 
L 160.263211 282.324293 
L 160.343261 281.730732 
L 160.422971 281.730732 
L 160.502345 281.018459 
L 160.660094 281.018459 
L 160.660094 280.424898 
L 160.816532 280.424898 
L 160.894266 279.356488 
L 160.97168 279.356488 
L 161.048777 278.881639 
L 161.125559 278.881639 
L 161.202028 277.931941 
L 161.278189 277.931941 
L 161.354042 277.33838 
L 161.42959 277.33838 
L 161.504837 276.151259 
L 161.654432 276.151259 
L 161.728786 275.557698 
L 161.876619 275.557698 
L 161.950101 274.964137 
L 162.096211 274.964137 
L 162.168843 274.251863 
L 162.241195 274.251863 
L 162.241195 273.302166 
L 162.456597 273.302166 
L 162.527853 272.827317 
L 162.59884 272.827317 
L 162.66956 271.996332 
L 162.740015 271.996332 
L 162.810208 271.165346 
L 162.880139 271.165346 
L 162.949812 270.453073 
L 163.019227 270.453073 
L 163.088387 270.215649 
L 163.157294 270.215649 
L 163.22595 269.859512 
L 163.294355 269.859512 
L 163.362513 269.503376 
L 163.430425 269.503376 
L 163.430425 269.147239 
L 163.632702 269.147239 
L 163.699647 268.316254 
L 163.766354 268.316254 
L 163.832826 267.722693 
L 163.899064 267.722693 
L 163.96507 267.247844 
L 164.030845 267.247844 
L 164.09639 266.772995 
L 164.161708 266.772995 
L 164.2268 265.823298 
L 164.291668 265.823298 
L 164.291668 265.467161 
L 164.420735 265.467161 
L 164.484939 265.111024 
L 164.548924 265.111024 
L 164.612692 264.161327 
L 164.802709 264.161327 
L 164.865624 263.80519 
L 164.928329 263.80519 
L 164.990826 262.855493 
L 165.053116 262.855493 
L 165.1152 261.312234 
L 165.17708 261.312234 
L 165.17708 260.718673 
L 165.300233 260.718673 
L 165.361509 260.125112 
L 165.422585 260.125112 
L 165.422585 259.650263 
L 165.544147 259.650263 
L 165.604634 258.93799 
L 165.664928 258.93799 
L 165.725029 258.344429 
L 165.844657 258.344429 
L 165.844657 258.225717 
L 166.022686 258.225717 
L 166.081656 257.27602 
L 166.140442 257.27602 
L 166.199045 256.20761 
L 166.257466 256.20761 
L 166.315707 255.257912 
L 166.373767 255.257912 
L 166.431649 253.952078 
L 166.546881 253.952078 
L 166.604233 253.714654 
L 166.661411 253.714654 
L 166.718416 251.696546 
L 166.775248 251.696546 
L 166.83191 250.153288 
L 166.888401 250.153288 
L 166.944723 249.559727 
L 167.000877 249.559727 
L 167.056864 248.372605 
L 167.112684 248.372605 
L 167.16834 247.54162 
L 167.223831 247.54162 
L 167.334325 246.354498 
L 167.38933 246.354498 
L 167.498859 244.455102 
L 167.553385 244.455102 
L 167.553385 243.980254 
L 167.769923 243.980254 
L 167.877265 243.26798 
L 167.930707 243.26798 
L 168.037137 242.793132 
L 168.090128 242.793132 
L 168.195663 241.60601 
L 168.248209 241.60601 
L 168.352863 240.893737 
L 168.404973 240.893737 
L 168.508761 239.587902 
L 168.560441 239.587902 
L 168.663377 238.994341 
L 168.765753 238.994341 
L 168.867575 236.73881 
L 168.91828 236.73881 
L 169.019282 235.076839 
L 169.06958 235.076839 
L 169.119745 234.60199 
L 169.219673 234.60199 
L 169.319074 234.008429 
L 169.368578 234.008429 
L 169.467197 232.346459 
L 169.516314 232.346459 
L 169.614163 231.396761 
L 169.662898 231.396761 
L 169.75999 229.73479 
L 169.808349 229.73479 
L 169.904695 228.785093 
L 169.952684 228.785093 
L 170.048295 228.07282 
L 170.09592 228.07282 
L 170.190808 226.529561 
L 170.238073 226.529561 
L 170.332249 225.342439 
L 170.37916 225.342439 
L 170.472634 224.511454 
L 170.519197 224.511454 
L 170.61198 222.849483 
L 170.6582 222.849483 
L 170.7503 221.424937 
L 170.796182 221.424937 
L 170.887612 220.237815 
L 170.93316 220.237815 
L 171.023928 219.525541 
L 171.069148 219.525541 
L 171.159263 218.694556 
L 171.20416 218.694556 
L 171.293632 216.676449 
L 171.338209 216.676449 
L 171.427048 215.845463 
L 171.47131 215.845463 
L 171.559524 214.658341 
L 171.603476 214.658341 
L 171.691074 213.352507 
L 171.73472 213.352507 
L 171.82171 212.40281 
L 171.865055 212.40281 
L 171.951446 211.453112 
L 171.994493 211.453112 
L 172.080292 211.096976 
L 172.123046 211.096976 
L 172.208263 210.384702 
L 172.250727 210.384702 
L 172.335368 208.247883 
L 172.377547 208.247883 
L 172.461621 207.060761 
L 172.503517 207.060761 
L 172.587032 205.992351 
L 172.62865 205.992351 
L 172.711612 204.923941 
L 172.794209 204.923941 
L 172.835373 204.092956 
L 172.91743 204.092956 
L 172.99913 202.074849 
L 173.080478 202.074849 
L 173.161475 200.650302 
L 173.201843 200.650302 
L 173.28232 199.700605 
L 173.32243 199.700605 
L 173.402394 197.563785 
L 173.48202 197.563785 
L 173.56131 195.901815 
L 173.60083 195.901815 
L 173.679622 194.59598 
L 173.718895 194.59598 
L 173.758086 193.764995 
L 173.836223 193.764995 
L 173.914037 192.221737 
L 173.952824 192.221737 
L 174.030158 191.390751 
L 174.068707 191.390751 
L 174.145567 189.847493 
L 174.222115 189.847493 
L 174.298352 187.710673 
L 174.336355 187.710673 
L 174.412132 187.117112 
L 174.449906 187.117112 
L 174.525228 185.692566 
L 174.562776 185.692566 
L 174.637648 183.555746 
L 174.674972 183.555746 
L 174.7494 182.249912 
L 174.786503 182.249912 
L 174.897377 181.181502 
L 174.934191 181.181502 
L 175.0442 179.044683 
L 175.080727 179.044683 
L 175.15357 176.314302 
L 175.226131 176.314302 
L 175.262307 174.889756 
L 175.37042 174.889756 
L 175.477915 172.634224 
L 175.51361 172.634224 
L 175.620293 171.684527 
L 175.655719 171.684527 
L 175.761601 170.378693 
L 175.831859 170.378693 
L 175.936756 167.648312 
L 176.006364 167.648312 
L 176.110296 165.511493 
L 176.144812 165.511493 
L 176.247984 164.680507 
L 176.282249 164.680507 
L 176.384671 163.493385 
L 176.418689 163.493385 
L 176.520373 161.831415 
L 176.554146 161.831415 
L 176.655103 159.694595 
L 176.688635 159.694595 
L 176.788874 158.507473 
L 176.822169 158.507473 
L 176.921701 157.320351 
L 176.954762 157.320351 
L 177.053597 155.302244 
L 177.086427 155.302244 
L 177.184574 153.521561 
L 177.217177 153.521561 
L 177.282212 152.928 
L 177.347024 152.928 
L 177.411613 151.85959 
L 177.475981 151.85959 
L 177.572122 148.535649 
L 177.60406 148.535649 
L 177.699551 146.280117 
L 177.731273 146.280117 
L 177.826122 144.499434 
L 177.857632 144.499434 
L 177.951847 143.312312 
L 177.983147 143.312312 
L 178.076737 141.531629 
L 178.107831 141.531629 
L 178.200804 139.39481 
L 178.231693 139.39481 
L 178.324058 137.376702 
L 178.354746 137.376702 
L 178.415971 136.070868 
L 178.476998 136.070868 
L 178.568169 133.696624 
L 178.598461 133.696624 
L 178.689047 132.865639 
L 178.749196 132.865639 
L 178.83906 130.847532 
L 178.86892 130.847532 
L 178.928497 130.491395 
L 178.987886 130.491395 
L 179.07662 129.304273 
L 179.106105 129.304273 
L 179.194285 127.167454 
L 179.223586 127.167454 
L 179.311218 124.911922 
L 179.340338 124.911922 
L 179.427429 121.944117 
L 179.456369 121.944117 
L 179.542926 120.875707 
L 179.57169 120.875707 
L 179.657718 117.195629 
L 179.714853 117.195629 
L 179.800231 115.771083 
L 179.828604 115.771083 
L 179.913468 114.109112 
L 179.969833 114.109112 
L 180.054064 113.040702 
L 180.082057 113.040702 
L 180.165788 112.091005 
L 180.193616 112.091005 
L 180.276853 110.547746 
L 180.33214 110.547746 
L 180.44223 108.173502 
L 180.469652 108.173502 
L 180.578943 106.630244 
L 180.606166 106.630244 
L 180.714669 104.374712 
L 180.741697 104.374712 
L 180.849423 100.575922 
L 180.876258 100.575922 
L 180.983218 98.913951 
L 181.036471 98.913951 
L 181.142526 95.827434 
L 181.195331 95.827434 
L 181.300497 93.809327 
L 181.326697 93.809327 
L 181.431133 90.247961 
L 181.457152 90.247961 
L 181.560869 87.992429 
L 181.586709 87.992429 
L 181.689715 85.262049 
L 181.715379 85.262049 
L 181.817686 83.481366 
L 181.843176 83.481366 
L 181.944791 80.632273 
L 181.97011 80.632273 
L 182.045861 77.427044 
L 182.096193 77.427044 
L 182.196455 75.408937 
L 182.271302 75.408937 
L 182.370637 73.865678 
L 182.420108 73.865678 
L 182.518663 71.372722 
L 182.543221 71.372722 
L 182.641134 69.592039 
L 182.689901 69.592039 
L 182.787055 66.624234 
L 182.811266 66.624234 
L 182.907797 65.199688 
L 182.931853 65.199688 
L 183.003836 62.231883 
L 183.051672 62.231883 
L 183.146981 59.976351 
L 183.170733 59.976351 
L 183.265442 58.31438 
L 183.289045 58.31438 
L 183.383162 56.296273 
L 183.406618 56.296273 
L 183.47681 55.702712 
L 183.546742 55.702712 
L 183.639581 52.497483 
L 183.66272 52.497483 
L 183.75499 51.191649 
L 183.777987 51.191649 
L 183.869695 49.292254 
L 183.915382 49.292254 
L 184.006424 46.91801 
L 184.029116 46.91801 
L 184.11961 43.950205 
L 184.142166 43.950205 
L 184.209672 42.881795 
L 184.254541 42.881795 
L 184.343961 41.575961 
L 184.366249 41.575961 
L 184.477298 38.84558 
L 184.499429 38.84558 
L 184.609696 37.18361 
L 184.631672 37.18361 
L 184.719321 35.640351 
L 184.784791 35.640351 
L 184.893403 33.147395 
L 184.936672 33.147395 
L 185.022915 31.129288 
L 185.065888 31.129288 
L 185.172894 29.467317 
L 185.194222 29.467317 
L 185.279294 28.636332 
L 185.321686 28.636332 
L 185.427251 26.736937 
L 185.448293 26.736937 
L 185.553151 26.262088 
L 185.574053 26.262088 
L 185.657429 24.837541 
L 185.698978 24.837541 
L 185.781803 23.294283 
L 185.843683 23.294283 
L 185.946366 22.463298 
L 185.966836 22.463298 
L 186.068851 20.207766 
L 186.089188 20.207766 
L 186.170316 19.37678 
L 186.210749 19.37678 
L 186.291356 18.070946 
L 186.351585 18.070946 
L 186.451541 16.6464 
L 186.491374 16.6464 
L 186.590592 15.221854 
L 186.610373 15.221854 
L 186.66959 14.034732 
L 186.728623 14.034732 
L 186.8266 13.678595 
L 186.943502 13.678595 
L 187.001683 12.84761 
L 187.059683 12.84761 
L 187.13674 12.491473 
L 187.194327 12.491473 
L 187.289914 11.7792 
L 187.328014 11.7792 
L 187.385018 11.541776 
L 187.498512 11.541776 
L 187.498512 11.066927 
L 187.611325 11.066927 
L 187.611325 10.948215 
L 187.723466 10.948215 
L 187.760698 10.71079 
L 187.890434 10.71079 
L 187.964168 10.235941 
L 188.037615 10.235941 
L 188.110777 9.286244 
L 188.274356 9.286244 
L 188.274356 9.04882 
L 188.400609 9.04882 
L 188.400609 8.692683 
L 188.791974 8.692683 
L 188.791974 8.573971 
L 188.932294 8.573971 
L 188.932294 8.336546 
L 189.088913 8.336546 
L 189.158105 7.861698 
L 189.398292 7.861698 
L 189.449364 7.505561 
L 189.635451 7.505561 
L 189.669089 7.149424 
L 189.752919 7.149424 
L 189.752919 7.030712 
L 190.555274 7.030712 
L 190.555274 6.912 
L 360.8064 6.912 
L 360.8064 6.912 
" style="fill:none;stroke:#ff00ff;stroke-linecap:square;stroke-width:1.5;"/>
   </g>
   <g id="line2d_35">
    <defs>
     <path d="M -0 8.485281 
L 5.091169 0 
L 0 -8.485281 
L -5.091169 -0 
z
" id="m7476e53f0c" style="stroke:#ff00ff;stroke-linejoin:miter;stroke-width:1.5;"/>
    </defs>
    <g>
     <use style="fill-opacity:0;stroke:#ff00ff;stroke-linejoin:miter;stroke-width:1.5;" x="173.836223" xlink:href="#m7476e53f0c" y="193.052722"/>
     <use style="fill-opacity:0;stroke:#ff00ff;stroke-linejoin:miter;stroke-width:1.5;" x="184.321646" xlink:href="#m7476e53f0c" y="41.694673"/>
     <use style="fill-opacity:0;stroke:#ff00ff;stroke-linejoin:miter;stroke-width:1.5;" x="190.555274" xlink:href="#m7476e53f0c" y="7.030712"/>
     <use style="fill-opacity:0;stroke:#ff00ff;stroke-linejoin:miter;stroke-width:1.5;" x="190.555274" xlink:href="#m7476e53f0c" y="6.912"/>
     <use style="fill-opacity:0;stroke:#ff00ff;stroke-linejoin:miter;stroke-width:1.5;" x="360.8064" xlink:href="#m7476e53f0c" y="6.912"/>
    </g>
   </g>
   <g id="line2d_36">
    <path style="fill:none;stroke:#ff00ff;stroke-linecap:square;stroke-width:1.5;"/>
    <g/>
   </g>
   <g id="line2d_37">
    <path d="M 360.8064 6.912 
L 380.514816 293.10336 
" style="fill:none;stroke:#ff00ff;stroke-linecap:square;stroke-width:1.5;"/>
    <g>
     <use style="fill-opacity:0;stroke:#ff00ff;stroke-linejoin:miter;stroke-width:1.5;" x="360.8064" xlink:href="#m7476e53f0c" y="6.912"/>
     <use style="fill-opacity:0;stroke:#ff00ff;stroke-linejoin:miter;stroke-width:1.5;" x="380.514816" xlink:href="#m7476e53f0c" y="293.10336"/>
    </g>
   </g>
   <g id="line2d_38">
    <path d="M 360.8064 6.912 
L 380.514816 12.75264 
" style="fill:none;stroke:#000080;stroke-linecap:square;stroke-width:1.5;"/>
    <g>
     <use style="fill-opacity:0;stroke:#000080;stroke-width:1.5;" x="360.8064" xlink:href="#m5beda1865e" y="6.912"/>
     <use style="fill-opacity:0;stroke:#000080;stroke-width:1.5;" x="380.514816" xlink:href="#m5beda1865e" y="12.75264"/>
    </g>
   </g>
   <g id="line2d_39">
    <path d="M 360.8064 298.944 
L 360.8064 6.912 
" style="fill:none;stroke:#000000;stroke-linecap:square;stroke-width:1.5;"/>
   </g>
   <g id="patch_3">
    <path d="M 57.6 298.944 
L 360.8064 298.944 
" style="fill:none;stroke:#000000;stroke-linecap:square;stroke-linejoin:miter;stroke-width:0.8;"/>
   </g>
   <g id="patch_4">
    <path d="M 57.6 6.912 
L 360.8064 6.912 
" style="fill:none;stroke:#000000;stroke-linecap:square;stroke-linejoin:miter;stroke-width:0.8;"/>
   </g>
   <g id="text_13">
    <!-- al3 -->
    <g transform="translate(386.578944 296.966485)scale(0.14 -0.14)">
     <defs>
      <path d="M 40.578125 39.3125 
Q 47.65625 37.796875 51.625 33 
Q 55.609375 28.21875 55.609375 21.1875 
Q 55.609375 10.40625 48.1875 4.484375 
Q 40.765625 -1.421875 27.09375 -1.421875 
Q 22.515625 -1.421875 17.65625 -0.515625 
Q 12.796875 0.390625 7.625 2.203125 
L 7.625 11.71875 
Q 11.71875 9.328125 16.59375 8.109375 
Q 21.484375 6.890625 26.8125 6.890625 
Q 36.078125 6.890625 40.9375 10.546875 
Q 45.796875 14.203125 45.796875 21.1875 
Q 45.796875 27.640625 41.28125 31.265625 
Q 36.765625 34.90625 28.71875 34.90625 
L 20.21875 34.90625 
L 20.21875 43.015625 
L 29.109375 43.015625 
Q 36.375 43.015625 40.234375 45.921875 
Q 44.09375 48.828125 44.09375 54.296875 
Q 44.09375 59.90625 40.109375 62.90625 
Q 36.140625 65.921875 28.71875 65.921875 
Q 24.65625 65.921875 20.015625 65.03125 
Q 15.375 64.15625 9.8125 62.3125 
L 9.8125 71.09375 
Q 15.4375 72.65625 20.34375 73.4375 
Q 25.25 74.21875 29.59375 74.21875 
Q 40.828125 74.21875 47.359375 69.109375 
Q 53.90625 64.015625 53.90625 55.328125 
Q 53.90625 49.265625 50.4375 45.09375 
Q 46.96875 40.921875 40.578125 39.3125 
z
" id="DejaVuSans-51"/>
     </defs>
     <use xlink:href="#DejaVuSans-97"/>
     <use x="61.279297" xlink:href="#DejaVuSans-108"/>
     <use x="89.0625" xlink:href="#DejaVuSans-51"/>
    </g>
   </g>
   <g id="text_14">
    <!-- al-defaul -->
    <g transform="translate(386.578944 16.615765)scale(0.14 -0.14)">
     <defs>
      <path d="M 4.890625 31.390625 
L 31.203125 31.390625 
L 31.203125 23.390625 
L 4.890625 23.390625 
z
" id="DejaVuSans-45"/>
     </defs>
     <use xlink:href="#DejaVuSans-97"/>
     <use x="61.279297" xlink:href="#DejaVuSans-108"/>
     <use x="89.0625" xlink:href="#DejaVuSans-45"/>
     <use x="125.146484" xlink:href="#DejaVuSans-100"/>
     <use x="188.623047" xlink:href="#DejaVuSans-101"/>
     <use x="250.146484" xlink:href="#DejaVuSans-102"/>
     <use x="285.351562" xlink:href="#DejaVuSans-97"/>
     <use x="346.630859" xlink:href="#DejaVuSans-117"/>
     <use x="410.009766" xlink:href="#DejaVuSans-108"/>
    </g>
   </g>
   <g id="text_15">
    <!-- bbob-constrained f21, f27, f33, f39, 2-D -->
    <g transform="translate(60.632064 17.582726)scale(0.102 -0.102)">
     <defs>
      <path d="M 48.6875 27.296875 
Q 48.6875 37.203125 44.609375 42.84375 
Q 40.53125 48.484375 33.40625 48.484375 
Q 26.265625 48.484375 22.1875 42.84375 
Q 18.109375 37.203125 18.109375 27.296875 
Q 18.109375 17.390625 22.1875 11.75 
Q 26.265625 6.109375 33.40625 6.109375 
Q 40.53125 6.109375 44.609375 11.75 
Q 48.6875 17.390625 48.6875 27.296875 
z
M 18.109375 46.390625 
Q 20.953125 51.265625 25.265625 53.625 
Q 29.59375 56 35.59375 56 
Q 45.5625 56 51.78125 48.09375 
Q 58.015625 40.1875 58.015625 27.296875 
Q 58.015625 14.40625 51.78125 6.484375 
Q 45.5625 -1.421875 35.59375 -1.421875 
Q 29.59375 -1.421875 25.265625 0.953125 
Q 20.953125 3.328125 18.109375 8.203125 
L 18.109375 0 
L 9.078125 0 
L 9.078125 75.984375 
L 18.109375 75.984375 
z
" id="DejaVuSans-98"/>
      <path d="M 8.203125 72.90625 
L 55.078125 72.90625 
L 55.078125 68.703125 
L 28.609375 0 
L 18.3125 0 
L 43.21875 64.59375 
L 8.203125 64.59375 
z
" id="DejaVuSans-55"/>
      <path d="M 10.984375 1.515625 
L 10.984375 10.5 
Q 14.703125 8.734375 18.5 7.8125 
Q 22.3125 6.890625 25.984375 6.890625 
Q 35.75 6.890625 40.890625 13.453125 
Q 46.046875 20.015625 46.78125 33.40625 
Q 43.953125 29.203125 39.59375 26.953125 
Q 35.25 24.703125 29.984375 24.703125 
Q 19.046875 24.703125 12.671875 31.3125 
Q 6.296875 37.9375 6.296875 49.421875 
Q 6.296875 60.640625 12.9375 67.421875 
Q 19.578125 74.21875 30.609375 74.21875 
Q 43.265625 74.21875 49.921875 64.515625 
Q 56.59375 54.828125 56.59375 36.375 
Q 56.59375 19.140625 48.40625 8.859375 
Q 40.234375 -1.421875 26.421875 -1.421875 
Q 22.703125 -1.421875 18.890625 -0.6875 
Q 15.09375 0.046875 10.984375 1.515625 
z
M 30.609375 32.421875 
Q 37.25 32.421875 41.125 36.953125 
Q 45.015625 41.5 45.015625 49.421875 
Q 45.015625 57.28125 41.125 61.84375 
Q 37.25 66.40625 30.609375 66.40625 
Q 23.96875 66.40625 20.09375 61.84375 
Q 16.21875 57.28125 16.21875 49.421875 
Q 16.21875 41.5 20.09375 36.953125 
Q 23.96875 32.421875 30.609375 32.421875 
z
" id="DejaVuSans-57"/>
      <path d="M 19.671875 64.796875 
L 19.671875 8.109375 
L 31.59375 8.109375 
Q 46.6875 8.109375 53.6875 14.9375 
Q 60.6875 21.78125 60.6875 36.53125 
Q 60.6875 51.171875 53.6875 57.984375 
Q 46.6875 64.796875 31.59375 64.796875 
z
M 9.8125 72.90625 
L 30.078125 72.90625 
Q 51.265625 72.90625 61.171875 64.09375 
Q 71.09375 55.28125 71.09375 36.53125 
Q 71.09375 17.671875 61.125 8.828125 
Q 51.171875 0 30.078125 0 
L 9.8125 0 
z
" id="DejaVuSans-68"/>
     </defs>
     <use xlink:href="#DejaVuSans-98"/>
     <use x="63.476562" xlink:href="#DejaVuSans-98"/>
     <use x="126.953125" xlink:href="#DejaVuSans-111"/>
     <use x="188.134766" xlink:href="#DejaVuSans-98"/>
     <use x="251.611328" xlink:href="#DejaVuSans-45"/>
     <use x="287.695312" xlink:href="#DejaVuSans-99"/>
     <use x="342.675781" xlink:href="#DejaVuSans-111"/>
     <use x="403.857422" xlink:href="#DejaVuSans-110"/>
     <use x="467.236328" xlink:href="#DejaVuSans-115"/>
     <use x="519.335938" xlink:href="#DejaVuSans-116"/>
     <use x="558.544922" xlink:href="#DejaVuSans-114"/>
     <use x="599.658203" xlink:href="#DejaVuSans-97"/>
     <use x="660.9375" xlink:href="#DejaVuSans-105"/>
     <use x="688.720703" xlink:href="#DejaVuSans-110"/>
     <use x="752.099609" xlink:href="#DejaVuSans-101"/>
     <use x="813.623047" xlink:href="#DejaVuSans-100"/>
     <use x="877.099609" xlink:href="#DejaVuSans-32"/>
     <use x="908.886719" xlink:href="#DejaVuSans-102"/>
     <use x="944.091797" xlink:href="#DejaVuSans-50"/>
     <use x="1007.714844" xlink:href="#DejaVuSans-49"/>
     <use x="1071.337891" xlink:href="#DejaVuSans-44"/>
     <use x="1103.125" xlink:href="#DejaVuSans-32"/>
     <use x="1134.912109" xlink:href="#DejaVuSans-102"/>
     <use x="1170.117188" xlink:href="#DejaVuSans-50"/>
     <use x="1233.740234" xlink:href="#DejaVuSans-55"/>
     <use x="1297.363281" xlink:href="#DejaVuSans-44"/>
     <use x="1329.150391" xlink:href="#DejaVuSans-32"/>
     <use x="1360.9375" xlink:href="#DejaVuSans-102"/>
     <use x="1396.142578" xlink:href="#DejaVuSans-51"/>
     <use x="1459.765625" xlink:href="#DejaVuSans-51"/>
     <use x="1523.388672" xlink:href="#DejaVuSans-44"/>
     <use x="1555.175781" xlink:href="#DejaVuSans-32"/>
     <use x="1586.962891" xlink:href="#DejaVuSans-102"/>
     <use x="1622.167969" xlink:href="#DejaVuSans-51"/>
     <use x="1685.791016" xlink:href="#DejaVuSans-57"/>
     <use x="1749.414062" xlink:href="#DejaVuSans-44"/>
     <use x="1781.201172" xlink:href="#DejaVuSans-32"/>
     <use x="1812.988281" xlink:href="#DejaVuSans-50"/>
     <use x="1876.611328" xlink:href="#DejaVuSans-45"/>
     <use x="1912.695312" xlink:href="#DejaVuSans-68"/>
    </g>
    <!-- 41 targets: 100..1e-06 -->
    <g transform="translate(60.632064 29.004495)scale(0.102 -0.102)">
     <defs>
      <path d="M 11.71875 12.40625 
L 22.015625 12.40625 
L 22.015625 0 
L 11.71875 0 
z
M 11.71875 51.703125 
L 22.015625 51.703125 
L 22.015625 39.3125 
L 11.71875 39.3125 
z
" id="DejaVuSans-58"/>
     </defs>
     <use xlink:href="#DejaVuSans-52"/>
     <use x="63.623047" xlink:href="#DejaVuSans-49"/>
     <use x="127.246094" xlink:href="#DejaVuSans-32"/>
     <use x="159.033203" xlink:href="#DejaVuSans-116"/>
     <use x="198.242188" xlink:href="#DejaVuSans-97"/>
     <use x="259.521484" xlink:href="#DejaVuSans-114"/>
     <use x="298.884766" xlink:href="#DejaVuSans-103"/>
     <use x="362.361328" xlink:href="#DejaVuSans-101"/>
     <use x="423.884766" xlink:href="#DejaVuSans-116"/>
     <use x="463.09375" xlink:href="#DejaVuSans-115"/>
     <use x="515.193359" xlink:href="#DejaVuSans-58"/>
     <use x="548.884766" xlink:href="#DejaVuSans-32"/>
     <use x="580.671875" xlink:href="#DejaVuSans-49"/>
     <use x="644.294922" xlink:href="#DejaVuSans-48"/>
     <use x="707.917969" xlink:href="#DejaVuSans-48"/>
     <use x="771.541016" xlink:href="#DejaVuSans-46"/>
     <use x="803.328125" xlink:href="#DejaVuSans-46"/>
     <use x="835.115234" xlink:href="#DejaVuSans-49"/>
     <use x="898.738281" xlink:href="#DejaVuSans-101"/>
     <use x="960.261719" xlink:href="#DejaVuSans-45"/>
     <use x="996.345703" xlink:href="#DejaVuSans-48"/>
     <use x="1059.96875" xlink:href="#DejaVuSans-54"/>
    </g>
    <!-- evals = f-evals + g-evals -->
    <g transform="translate(60.632064 40.426264)scale(0.102 -0.102)">
     <defs>
      <path d="M 10.59375 45.40625 
L 73.1875 45.40625 
L 73.1875 37.203125 
L 10.59375 37.203125 
z
M 10.59375 25.484375 
L 73.1875 25.484375 
L 73.1875 17.1875 
L 10.59375 17.1875 
z
" id="DejaVuSans-61"/>
      <path d="M 46 62.703125 
L 46 35.5 
L 73.1875 35.5 
L 73.1875 27.203125 
L 46 27.203125 
L 46 0 
L 37.796875 0 
L 37.796875 27.203125 
L 10.59375 27.203125 
L 10.59375 35.5 
L 37.796875 35.5 
L 37.796875 62.703125 
z
" id="DejaVuSans-43"/>
     </defs>
     <use xlink:href="#DejaVuSans-101"/>
     <use x="61.523438" xlink:href="#DejaVuSans-118"/>
     <use x="120.703125" xlink:href="#DejaVuSans-97"/>
     <use x="181.982422" xlink:href="#DejaVuSans-108"/>
     <use x="209.765625" xlink:href="#DejaVuSans-115"/>
     <use x="261.865234" xlink:href="#DejaVuSans-32"/>
     <use x="293.652344" xlink:href="#DejaVuSans-61"/>
     <use x="377.441406" xlink:href="#DejaVuSans-32"/>
     <use x="409.228516" xlink:href="#DejaVuSans-102"/>
     <use x="438.933594" xlink:href="#DejaVuSans-45"/>
     <use x="475.017578" xlink:href="#DejaVuSans-101"/>
     <use x="536.541016" xlink:href="#DejaVuSans-118"/>
     <use x="595.720703" xlink:href="#DejaVuSans-97"/>
     <use x="657" xlink:href="#DejaVuSans-108"/>
     <use x="684.783203" xlink:href="#DejaVuSans-115"/>
     <use x="736.882812" xlink:href="#DejaVuSans-32"/>
     <use x="768.669922" xlink:href="#DejaVuSans-43"/>
     <use x="852.458984" xlink:href="#DejaVuSans-32"/>
     <use x="884.246094" xlink:href="#DejaVuSans-103"/>
     <use x="947.722656" xlink:href="#DejaVuSans-45"/>
     <use x="983.806641" xlink:href="#DejaVuSans-101"/>
     <use x="1045.330078" xlink:href="#DejaVuSans-118"/>
     <use x="1104.509766" xlink:href="#DejaVuSans-97"/>
     <use x="1165.789062" xlink:href="#DejaVuSans-108"/>
     <use x="1193.572266" xlink:href="#DejaVuSans-115"/>
    </g>
    <!-- 15 instances -->
    <g transform="translate(60.632064 51.848032)scale(0.102 -0.102)">
     <defs>
      <path d="M 10.796875 72.90625 
L 49.515625 72.90625 
L 49.515625 64.59375 
L 19.828125 64.59375 
L 19.828125 46.734375 
Q 21.96875 47.46875 24.109375 47.828125 
Q 26.265625 48.1875 28.421875 48.1875 
Q 40.625 48.1875 47.75 41.5 
Q 54.890625 34.8125 54.890625 23.390625 
Q 54.890625 11.625 47.5625 5.09375 
Q 40.234375 -1.421875 26.90625 -1.421875 
Q 22.3125 -1.421875 17.546875 -0.640625 
Q 12.796875 0.140625 7.71875 1.703125 
L 7.71875 11.625 
Q 12.109375 9.234375 16.796875 8.0625 
Q 21.484375 6.890625 26.703125 6.890625 
Q 35.15625 6.890625 40.078125 11.328125 
Q 45.015625 15.765625 45.015625 23.390625 
Q 45.015625 31 40.078125 35.4375 
Q 35.15625 39.890625 26.703125 39.890625 
Q 22.75 39.890625 18.8125 39.015625 
Q 14.890625 38.140625 10.796875 36.28125 
z
" id="DejaVuSans-53"/>
     </defs>
     <use xlink:href="#DejaVuSans-49"/>
     <use x="63.623047" xlink:href="#DejaVuSans-53"/>
     <use x="127.246094" xlink:href="#DejaVuSans-32"/>
     <use x="159.033203" xlink:href="#DejaVuSans-105"/>
     <use x="186.816406" xlink:href="#DejaVuSans-110"/>
     <use x="250.195312" xlink:href="#DejaVuSans-115"/>
     <use x="302.294922" xlink:href="#DejaVuSans-116"/>
     <use x="341.503906" xlink:href="#DejaVuSans-97"/>
     <use x="402.783203" xlink:href="#DejaVuSans-110"/>
     <use x="466.162109" xlink:href="#DejaVuSans-99"/>
     <use x="521.142578" xlink:href="#DejaVuSans-101"/>
     <use x="582.666016" xlink:href="#DejaVuSans-115"/>
    </g>
   </g>
   <g id="text_16">
    <!-- v2.6.1.9 -->
    <g style="fill:#808080;" transform="translate(188.751637 293.943992)scale(0.1 -0.1)">
     <use xlink:href="#DejaVuSans-118"/>
     <use x="59.179688" xlink:href="#DejaVuSans-50"/>
     <use x="122.802734" xlink:href="#DejaVuSans-46"/>
     <use x="154.589844" xlink:href="#DejaVuSans-54"/>
     <use x="218.212891" xlink:href="#DejaVuSans-46"/>
     <use x="250" xlink:href="#DejaVuSans-49"/>
     <use x="313.623047" xlink:href="#DejaVuSans-46"/>
     <use x="345.410156" xlink:href="#DejaVuSans-57"/>
    </g>
   </g>
  </g>
 </g>
 <defs>
  <clipPath id="p255d7a1307">
   <rect height="292.032" width="303.2064" x="57.6" y="6.912"/>
  </clipPath>
 </defs>
</svg>
