<?xml version="1.0" encoding="utf-8" standalone="no"?>
<!DOCTYPE svg PUBLIC "-//W3C//DTD SVG 1.1//EN"
  "http://www.w3.org/Graphics/SVG/1.1/DTD/svg11.dtd">
<!-- Created with matplotlib (https://matplotlib.org/) -->
<svg height="345.6pt" version="1.1" viewBox="0 0 460.8 345.6" width="460.8pt" xmlns="http://www.w3.org/2000/svg" xmlns:xlink="http://www.w3.org/1999/xlink">
 <metadata>
  <rdf:RDF xmlns:cc="http://creativecommons.org/ns#" xmlns:dc="http://purl.org/dc/elements/1.1/" xmlns:rdf="http://www.w3.org/1999/02/22-rdf-syntax-ns#">
   <cc:Work>
    <dc:type rdf:resource="http://purl.org/dc/dcmitype/StillImage"/>
    <dc:date>2022-04-26T20:52:30.457618</dc:date>
    <dc:format>image/svg+xml</dc:format>
    <dc:creator>
     <cc:Agent>
      <dc:title>Matplotlib v3.3.3, https://matplotlib.org/</dc:title>
     </cc:Agent>
    </dc:creator>
   </cc:Work>
  </rdf:RDF>
 </metadata>
 <defs>
  <style type="text/css">*{stroke-linecap:butt;stroke-linejoin:round;}</style>
 </defs>
 <g id="figure_1">
  <g id="patch_1">
   <path d="M 0 345.6 
L 460.8 345.6 
L 460.8 0 
L 0 0 
z
" style="fill:#ffffff;"/>
  </g>
  <g id="axes_1">
   <g id="patch_2">
    <path d="M 57.6 298.944 
L 360.8064 298.944 
L 360.8064 6.912 
L 57.6 6.912 
z
" style="fill:#ffffff;"/>
   </g>
   <g id="matplotlib.axis_1">
    <g id="xtick_1">
     <g id="line2d_1">
      <path clip-path="url(#pcd5849cabb)" d="M 57.6 298.944 
L 57.6 6.912 
" style="fill:none;stroke:#b0b0b0;stroke-linecap:square;stroke-width:0.8;"/>
     </g>
     <g id="line2d_2">
      <defs>
       <path d="M 0 0 
L 0 3.5 
" id="mad53f3bb42" style="stroke:#000000;stroke-width:0.8;"/>
      </defs>
      <g>
       <use style="stroke:#000000;stroke-width:0.8;" x="57.6" xlink:href="#mad53f3bb42" y="298.944"/>
      </g>
     </g>
     <g id="text_1">
      <!-- 0 -->
      <g transform="translate(52.191875 318.861344)scale(0.17 -0.17)">
       <defs>
        <path d="M 31.78125 66.40625 
Q 24.171875 66.40625 20.328125 58.90625 
Q 16.5 51.421875 16.5 36.375 
Q 16.5 21.390625 20.328125 13.890625 
Q 24.171875 6.390625 31.78125 6.390625 
Q 39.453125 6.390625 43.28125 13.890625 
Q 47.125 21.390625 47.125 36.375 
Q 47.125 51.421875 43.28125 58.90625 
Q 39.453125 66.40625 31.78125 66.40625 
z
M 31.78125 74.21875 
Q 44.046875 74.21875 50.515625 64.515625 
Q 56.984375 54.828125 56.984375 36.375 
Q 56.984375 17.96875 50.515625 8.265625 
Q 44.046875 -1.421875 31.78125 -1.421875 
Q 19.53125 -1.421875 13.0625 8.265625 
Q 6.59375 17.96875 6.59375 36.375 
Q 6.59375 54.828125 13.0625 64.515625 
Q 19.53125 74.21875 31.78125 74.21875 
z
" id="DejaVuSans-48"/>
       </defs>
       <use xlink:href="#DejaVuSans-48"/>
      </g>
     </g>
    </g>
    <g id="xtick_2">
     <g id="line2d_3">
      <path clip-path="url(#pcd5849cabb)" d="M 144.2304 298.944 
L 144.2304 6.912 
" style="fill:none;stroke:#b0b0b0;stroke-linecap:square;stroke-width:0.8;"/>
     </g>
     <g id="line2d_4">
      <g>
       <use style="stroke:#000000;stroke-width:0.8;" x="144.2304" xlink:href="#mad53f3bb42" y="298.944"/>
      </g>
     </g>
     <g id="text_2">
      <!-- 2 -->
      <g transform="translate(138.822275 318.861344)scale(0.17 -0.17)">
       <defs>
        <path d="M 19.1875 8.296875 
L 53.609375 8.296875 
L 53.609375 0 
L 7.328125 0 
L 7.328125 8.296875 
Q 12.9375 14.109375 22.625 23.890625 
Q 32.328125 33.6875 34.8125 36.53125 
Q 39.546875 41.84375 41.421875 45.53125 
Q 43.3125 49.21875 43.3125 52.78125 
Q 43.3125 58.59375 39.234375 62.25 
Q 35.15625 65.921875 28.609375 65.921875 
Q 23.96875 65.921875 18.8125 64.3125 
Q 13.671875 62.703125 7.8125 59.421875 
L 7.8125 69.390625 
Q 13.765625 71.78125 18.9375 73 
Q 24.125 74.21875 28.421875 74.21875 
Q 39.75 74.21875 46.484375 68.546875 
Q 53.21875 62.890625 53.21875 53.421875 
Q 53.21875 48.921875 51.53125 44.890625 
Q 49.859375 40.875 45.40625 35.40625 
Q 44.1875 33.984375 37.640625 27.21875 
Q 31.109375 20.453125 19.1875 8.296875 
z
" id="DejaVuSans-50"/>
       </defs>
       <use xlink:href="#DejaVuSans-50"/>
      </g>
     </g>
    </g>
    <g id="xtick_3">
     <g id="line2d_5">
      <path clip-path="url(#pcd5849cabb)" d="M 230.8608 298.944 
L 230.8608 6.912 
" style="fill:none;stroke:#b0b0b0;stroke-linecap:square;stroke-width:0.8;"/>
     </g>
     <g id="line2d_6">
      <g>
       <use style="stroke:#000000;stroke-width:0.8;" x="230.8608" xlink:href="#mad53f3bb42" y="298.944"/>
      </g>
     </g>
     <g id="text_3">
      <!-- 4 -->
      <g transform="translate(225.452675 318.861344)scale(0.17 -0.17)">
       <defs>
        <path d="M 37.796875 64.3125 
L 12.890625 25.390625 
L 37.796875 25.390625 
z
M 35.203125 72.90625 
L 47.609375 72.90625 
L 47.609375 25.390625 
L 58.015625 25.390625 
L 58.015625 17.1875 
L 47.609375 17.1875 
L 47.609375 0 
L 37.796875 0 
L 37.796875 17.1875 
L 4.890625 17.1875 
L 4.890625 26.703125 
z
" id="DejaVuSans-52"/>
       </defs>
       <use xlink:href="#DejaVuSans-52"/>
      </g>
     </g>
    </g>
    <g id="xtick_4">
     <g id="line2d_7">
      <path clip-path="url(#pcd5849cabb)" d="M 317.4912 298.944 
L 317.4912 6.912 
" style="fill:none;stroke:#b0b0b0;stroke-linecap:square;stroke-width:0.8;"/>
     </g>
     <g id="line2d_8">
      <g>
       <use style="stroke:#000000;stroke-width:0.8;" x="317.4912" xlink:href="#mad53f3bb42" y="298.944"/>
      </g>
     </g>
     <g id="text_4">
      <!-- 6 -->
      <g transform="translate(312.083075 318.861344)scale(0.17 -0.17)">
       <defs>
        <path d="M 33.015625 40.375 
Q 26.375 40.375 22.484375 35.828125 
Q 18.609375 31.296875 18.609375 23.390625 
Q 18.609375 15.53125 22.484375 10.953125 
Q 26.375 6.390625 33.015625 6.390625 
Q 39.65625 6.390625 43.53125 10.953125 
Q 47.40625 15.53125 47.40625 23.390625 
Q 47.40625 31.296875 43.53125 35.828125 
Q 39.65625 40.375 33.015625 40.375 
z
M 52.59375 71.296875 
L 52.59375 62.3125 
Q 48.875 64.0625 45.09375 64.984375 
Q 41.3125 65.921875 37.59375 65.921875 
Q 27.828125 65.921875 22.671875 59.328125 
Q 17.53125 52.734375 16.796875 39.40625 
Q 19.671875 43.65625 24.015625 45.921875 
Q 28.375 48.1875 33.59375 48.1875 
Q 44.578125 48.1875 50.953125 41.515625 
Q 57.328125 34.859375 57.328125 23.390625 
Q 57.328125 12.15625 50.6875 5.359375 
Q 44.046875 -1.421875 33.015625 -1.421875 
Q 20.359375 -1.421875 13.671875 8.265625 
Q 6.984375 17.96875 6.984375 36.375 
Q 6.984375 53.65625 15.1875 63.9375 
Q 23.390625 74.21875 37.203125 74.21875 
Q 40.921875 74.21875 44.703125 73.484375 
Q 48.484375 72.75 52.59375 71.296875 
z
" id="DejaVuSans-54"/>
       </defs>
       <use xlink:href="#DejaVuSans-54"/>
      </g>
     </g>
    </g>
    <g id="xtick_5">
     <g id="line2d_9">
      <path clip-path="url(#pcd5849cabb)" d="M 100.9152 298.944 
L 100.9152 6.912 
" style="fill:none;stroke:#b0b0b0;stroke-linecap:square;stroke-width:0.8;"/>
     </g>
     <g id="line2d_10">
      <defs>
       <path d="M 0 0 
L 0 2 
" id="mce1675e1ef" style="stroke:#000000;stroke-width:0.6;"/>
      </defs>
      <g>
       <use style="stroke:#000000;stroke-width:0.6;" x="100.9152" xlink:href="#mce1675e1ef" y="298.944"/>
      </g>
     </g>
    </g>
    <g id="xtick_6">
     <g id="line2d_11">
      <path clip-path="url(#pcd5849cabb)" d="M 187.5456 298.944 
L 187.5456 6.912 
" style="fill:none;stroke:#b0b0b0;stroke-linecap:square;stroke-width:0.8;"/>
     </g>
     <g id="line2d_12">
      <g>
       <use style="stroke:#000000;stroke-width:0.6;" x="187.5456" xlink:href="#mce1675e1ef" y="298.944"/>
      </g>
     </g>
    </g>
    <g id="xtick_7">
     <g id="line2d_13">
      <path clip-path="url(#pcd5849cabb)" d="M 274.176 298.944 
L 274.176 6.912 
" style="fill:none;stroke:#b0b0b0;stroke-linecap:square;stroke-width:0.8;"/>
     </g>
     <g id="line2d_14">
      <g>
       <use style="stroke:#000000;stroke-width:0.6;" x="274.176" xlink:href="#mce1675e1ef" y="298.944"/>
      </g>
     </g>
    </g>
    <g id="xtick_8">
     <g id="line2d_15">
      <path clip-path="url(#pcd5849cabb)" d="M 360.8064 298.944 
L 360.8064 6.912 
" style="fill:none;stroke:#b0b0b0;stroke-linecap:square;stroke-width:0.8;"/>
     </g>
     <g id="line2d_16">
      <g>
       <use style="stroke:#000000;stroke-width:0.6;" x="360.8064" xlink:href="#mce1675e1ef" y="298.944"/>
      </g>
     </g>
    </g>
    <g id="text_5">
     <!-- log10(evals / dimension) -->
     <g transform="translate(104.238825 339.314156)scale(0.17 -0.17)">
      <defs>
       <path d="M 9.421875 75.984375 
L 18.40625 75.984375 
L 18.40625 0 
L 9.421875 0 
z
" id="DejaVuSans-108"/>
       <path d="M 30.609375 48.390625 
Q 23.390625 48.390625 19.1875 42.75 
Q 14.984375 37.109375 14.984375 27.296875 
Q 14.984375 17.484375 19.15625 11.84375 
Q 23.34375 6.203125 30.609375 6.203125 
Q 37.796875 6.203125 41.984375 11.859375 
Q 46.1875 17.53125 46.1875 27.296875 
Q 46.1875 37.015625 41.984375 42.703125 
Q 37.796875 48.390625 30.609375 48.390625 
z
M 30.609375 56 
Q 42.328125 56 49.015625 48.375 
Q 55.71875 40.765625 55.71875 27.296875 
Q 55.71875 13.875 49.015625 6.21875 
Q 42.328125 -1.421875 30.609375 -1.421875 
Q 18.84375 -1.421875 12.171875 6.21875 
Q 5.515625 13.875 5.515625 27.296875 
Q 5.515625 40.765625 12.171875 48.375 
Q 18.84375 56 30.609375 56 
z
" id="DejaVuSans-111"/>
       <path d="M 45.40625 27.984375 
Q 45.40625 37.75 41.375 43.109375 
Q 37.359375 48.484375 30.078125 48.484375 
Q 22.859375 48.484375 18.828125 43.109375 
Q 14.796875 37.75 14.796875 27.984375 
Q 14.796875 18.265625 18.828125 12.890625 
Q 22.859375 7.515625 30.078125 7.515625 
Q 37.359375 7.515625 41.375 12.890625 
Q 45.40625 18.265625 45.40625 27.984375 
z
M 54.390625 6.78125 
Q 54.390625 -7.171875 48.1875 -13.984375 
Q 42 -20.796875 29.203125 -20.796875 
Q 24.46875 -20.796875 20.265625 -20.09375 
Q 16.0625 -19.390625 12.109375 -17.921875 
L 12.109375 -9.1875 
Q 16.0625 -11.328125 19.921875 -12.34375 
Q 23.78125 -13.375 27.78125 -13.375 
Q 36.625 -13.375 41.015625 -8.765625 
Q 45.40625 -4.15625 45.40625 5.171875 
L 45.40625 9.625 
Q 42.625 4.78125 38.28125 2.390625 
Q 33.9375 0 27.875 0 
Q 17.828125 0 11.671875 7.65625 
Q 5.515625 15.328125 5.515625 27.984375 
Q 5.515625 40.671875 11.671875 48.328125 
Q 17.828125 56 27.875 56 
Q 33.9375 56 38.28125 53.609375 
Q 42.625 51.21875 45.40625 46.390625 
L 45.40625 54.6875 
L 54.390625 54.6875 
z
" id="DejaVuSans-103"/>
       <path d="M 12.40625 8.296875 
L 28.515625 8.296875 
L 28.515625 63.921875 
L 10.984375 60.40625 
L 10.984375 69.390625 
L 28.421875 72.90625 
L 38.28125 72.90625 
L 38.28125 8.296875 
L 54.390625 8.296875 
L 54.390625 0 
L 12.40625 0 
z
" id="DejaVuSans-49"/>
       <path d="M 31 75.875 
Q 24.46875 64.65625 21.28125 53.65625 
Q 18.109375 42.671875 18.109375 31.390625 
Q 18.109375 20.125 21.3125 9.0625 
Q 24.515625 -2 31 -13.1875 
L 23.1875 -13.1875 
Q 15.875 -1.703125 12.234375 9.375 
Q 8.59375 20.453125 8.59375 31.390625 
Q 8.59375 42.28125 12.203125 53.3125 
Q 15.828125 64.359375 23.1875 75.875 
z
" id="DejaVuSans-40"/>
       <path d="M 56.203125 29.59375 
L 56.203125 25.203125 
L 14.890625 25.203125 
Q 15.484375 15.921875 20.484375 11.0625 
Q 25.484375 6.203125 34.421875 6.203125 
Q 39.59375 6.203125 44.453125 7.46875 
Q 49.3125 8.734375 54.109375 11.28125 
L 54.109375 2.78125 
Q 49.265625 0.734375 44.1875 -0.34375 
Q 39.109375 -1.421875 33.890625 -1.421875 
Q 20.796875 -1.421875 13.15625 6.1875 
Q 5.515625 13.8125 5.515625 26.8125 
Q 5.515625 40.234375 12.765625 48.109375 
Q 20.015625 56 32.328125 56 
Q 43.359375 56 49.78125 48.890625 
Q 56.203125 41.796875 56.203125 29.59375 
z
M 47.21875 32.234375 
Q 47.125 39.59375 43.09375 43.984375 
Q 39.0625 48.390625 32.421875 48.390625 
Q 24.90625 48.390625 20.390625 44.140625 
Q 15.875 39.890625 15.1875 32.171875 
z
" id="DejaVuSans-101"/>
       <path d="M 2.984375 54.6875 
L 12.5 54.6875 
L 29.59375 8.796875 
L 46.6875 54.6875 
L 56.203125 54.6875 
L 35.6875 0 
L 23.484375 0 
z
" id="DejaVuSans-118"/>
       <path d="M 34.28125 27.484375 
Q 23.390625 27.484375 19.1875 25 
Q 14.984375 22.515625 14.984375 16.5 
Q 14.984375 11.71875 18.140625 8.90625 
Q 21.296875 6.109375 26.703125 6.109375 
Q 34.1875 6.109375 38.703125 11.40625 
Q 43.21875 16.703125 43.21875 25.484375 
L 43.21875 27.484375 
z
M 52.203125 31.203125 
L 52.203125 0 
L 43.21875 0 
L 43.21875 8.296875 
Q 40.140625 3.328125 35.546875 0.953125 
Q 30.953125 -1.421875 24.3125 -1.421875 
Q 15.921875 -1.421875 10.953125 3.296875 
Q 6 8.015625 6 15.921875 
Q 6 25.140625 12.171875 29.828125 
Q 18.359375 34.515625 30.609375 34.515625 
L 43.21875 34.515625 
L 43.21875 35.40625 
Q 43.21875 41.609375 39.140625 45 
Q 35.0625 48.390625 27.6875 48.390625 
Q 23 48.390625 18.546875 47.265625 
Q 14.109375 46.140625 10.015625 43.890625 
L 10.015625 52.203125 
Q 14.9375 54.109375 19.578125 55.046875 
Q 24.21875 56 28.609375 56 
Q 40.484375 56 46.34375 49.84375 
Q 52.203125 43.703125 52.203125 31.203125 
z
" id="DejaVuSans-97"/>
       <path d="M 44.28125 53.078125 
L 44.28125 44.578125 
Q 40.484375 46.53125 36.375 47.5 
Q 32.28125 48.484375 27.875 48.484375 
Q 21.1875 48.484375 17.84375 46.4375 
Q 14.5 44.390625 14.5 40.28125 
Q 14.5 37.15625 16.890625 35.375 
Q 19.28125 33.59375 26.515625 31.984375 
L 29.59375 31.296875 
Q 39.15625 29.25 43.1875 25.515625 
Q 47.21875 21.78125 47.21875 15.09375 
Q 47.21875 7.46875 41.1875 3.015625 
Q 35.15625 -1.421875 24.609375 -1.421875 
Q 20.21875 -1.421875 15.453125 -0.5625 
Q 10.6875 0.296875 5.421875 2 
L 5.421875 11.28125 
Q 10.40625 8.6875 15.234375 7.390625 
Q 20.0625 6.109375 24.8125 6.109375 
Q 31.15625 6.109375 34.5625 8.28125 
Q 37.984375 10.453125 37.984375 14.40625 
Q 37.984375 18.0625 35.515625 20.015625 
Q 33.0625 21.96875 24.703125 23.78125 
L 21.578125 24.515625 
Q 13.234375 26.265625 9.515625 29.90625 
Q 5.8125 33.546875 5.8125 39.890625 
Q 5.8125 47.609375 11.28125 51.796875 
Q 16.75 56 26.8125 56 
Q 31.78125 56 36.171875 55.265625 
Q 40.578125 54.546875 44.28125 53.078125 
z
" id="DejaVuSans-115"/>
       <path id="DejaVuSans-32"/>
       <path d="M 25.390625 72.90625 
L 33.6875 72.90625 
L 8.296875 -9.28125 
L 0 -9.28125 
z
" id="DejaVuSans-47"/>
       <path d="M 45.40625 46.390625 
L 45.40625 75.984375 
L 54.390625 75.984375 
L 54.390625 0 
L 45.40625 0 
L 45.40625 8.203125 
Q 42.578125 3.328125 38.25 0.953125 
Q 33.9375 -1.421875 27.875 -1.421875 
Q 17.96875 -1.421875 11.734375 6.484375 
Q 5.515625 14.40625 5.515625 27.296875 
Q 5.515625 40.1875 11.734375 48.09375 
Q 17.96875 56 27.875 56 
Q 33.9375 56 38.25 53.625 
Q 42.578125 51.265625 45.40625 46.390625 
z
M 14.796875 27.296875 
Q 14.796875 17.390625 18.875 11.75 
Q 22.953125 6.109375 30.078125 6.109375 
Q 37.203125 6.109375 41.296875 11.75 
Q 45.40625 17.390625 45.40625 27.296875 
Q 45.40625 37.203125 41.296875 42.84375 
Q 37.203125 48.484375 30.078125 48.484375 
Q 22.953125 48.484375 18.875 42.84375 
Q 14.796875 37.203125 14.796875 27.296875 
z
" id="DejaVuSans-100"/>
       <path d="M 9.421875 54.6875 
L 18.40625 54.6875 
L 18.40625 0 
L 9.421875 0 
z
M 9.421875 75.984375 
L 18.40625 75.984375 
L 18.40625 64.59375 
L 9.421875 64.59375 
z
" id="DejaVuSans-105"/>
       <path d="M 52 44.1875 
Q 55.375 50.25 60.0625 53.125 
Q 64.75 56 71.09375 56 
Q 79.640625 56 84.28125 50.015625 
Q 88.921875 44.046875 88.921875 33.015625 
L 88.921875 0 
L 79.890625 0 
L 79.890625 32.71875 
Q 79.890625 40.578125 77.09375 44.375 
Q 74.3125 48.1875 68.609375 48.1875 
Q 61.625 48.1875 57.5625 43.546875 
Q 53.515625 38.921875 53.515625 30.90625 
L 53.515625 0 
L 44.484375 0 
L 44.484375 32.71875 
Q 44.484375 40.625 41.703125 44.40625 
Q 38.921875 48.1875 33.109375 48.1875 
Q 26.21875 48.1875 22.15625 43.53125 
Q 18.109375 38.875 18.109375 30.90625 
L 18.109375 0 
L 9.078125 0 
L 9.078125 54.6875 
L 18.109375 54.6875 
L 18.109375 46.1875 
Q 21.1875 51.21875 25.484375 53.609375 
Q 29.78125 56 35.6875 56 
Q 41.65625 56 45.828125 52.96875 
Q 50 49.953125 52 44.1875 
z
" id="DejaVuSans-109"/>
       <path d="M 54.890625 33.015625 
L 54.890625 0 
L 45.90625 0 
L 45.90625 32.71875 
Q 45.90625 40.484375 42.875 44.328125 
Q 39.84375 48.1875 33.796875 48.1875 
Q 26.515625 48.1875 22.3125 43.546875 
Q 18.109375 38.921875 18.109375 30.90625 
L 18.109375 0 
L 9.078125 0 
L 9.078125 54.6875 
L 18.109375 54.6875 
L 18.109375 46.1875 
Q 21.34375 51.125 25.703125 53.5625 
Q 30.078125 56 35.796875 56 
Q 45.21875 56 50.046875 50.171875 
Q 54.890625 44.34375 54.890625 33.015625 
z
" id="DejaVuSans-110"/>
       <path d="M 8.015625 75.875 
L 15.828125 75.875 
Q 23.140625 64.359375 26.78125 53.3125 
Q 30.421875 42.28125 30.421875 31.390625 
Q 30.421875 20.453125 26.78125 9.375 
Q 23.140625 -1.703125 15.828125 -13.1875 
L 8.015625 -13.1875 
Q 14.5 -2 17.703125 9.0625 
Q 20.90625 20.125 20.90625 31.390625 
Q 20.90625 42.671875 17.703125 53.65625 
Q 14.5 64.65625 8.015625 75.875 
z
" id="DejaVuSans-41"/>
      </defs>
      <use xlink:href="#DejaVuSans-108"/>
      <use x="27.783203" xlink:href="#DejaVuSans-111"/>
      <use x="88.964844" xlink:href="#DejaVuSans-103"/>
      <use x="152.441406" xlink:href="#DejaVuSans-49"/>
      <use x="216.064453" xlink:href="#DejaVuSans-48"/>
      <use x="279.6875" xlink:href="#DejaVuSans-40"/>
      <use x="318.701172" xlink:href="#DejaVuSans-101"/>
      <use x="380.224609" xlink:href="#DejaVuSans-118"/>
      <use x="439.404297" xlink:href="#DejaVuSans-97"/>
      <use x="500.683594" xlink:href="#DejaVuSans-108"/>
      <use x="528.466797" xlink:href="#DejaVuSans-115"/>
      <use x="580.566406" xlink:href="#DejaVuSans-32"/>
      <use x="612.353516" xlink:href="#DejaVuSans-47"/>
      <use x="646.044922" xlink:href="#DejaVuSans-32"/>
      <use x="677.832031" xlink:href="#DejaVuSans-100"/>
      <use x="741.308594" xlink:href="#DejaVuSans-105"/>
      <use x="769.091797" xlink:href="#DejaVuSans-109"/>
      <use x="866.503906" xlink:href="#DejaVuSans-101"/>
      <use x="928.027344" xlink:href="#DejaVuSans-110"/>
      <use x="991.40625" xlink:href="#DejaVuSans-115"/>
      <use x="1043.505859" xlink:href="#DejaVuSans-105"/>
      <use x="1071.289062" xlink:href="#DejaVuSans-111"/>
      <use x="1132.470703" xlink:href="#DejaVuSans-110"/>
      <use x="1195.849609" xlink:href="#DejaVuSans-41"/>
     </g>
    </g>
   </g>
   <g id="matplotlib.axis_2">
    <g id="ytick_1">
     <g id="line2d_17">
      <path clip-path="url(#pcd5849cabb)" d="M 57.6 298.944 
L 360.8064 298.944 
" style="fill:none;stroke:#b0b0b0;stroke-linecap:square;stroke-width:0.8;"/>
     </g>
     <g id="line2d_18">
      <defs>
       <path d="M 0 0 
L -3.5 0 
" id="m9ce4251db2" style="stroke:#000000;stroke-width:0.8;"/>
      </defs>
      <g>
       <use style="stroke:#000000;stroke-width:0.8;" x="57.6" xlink:href="#m9ce4251db2" y="298.944"/>
      </g>
     </g>
     <g id="text_6">
      <!-- 0.0 -->
      <g transform="translate(25.155 305.02275)scale(0.16 -0.16)">
       <defs>
        <path d="M 10.6875 12.40625 
L 21 12.40625 
L 21 0 
L 10.6875 0 
z
" id="DejaVuSans-46"/>
       </defs>
       <use xlink:href="#DejaVuSans-48"/>
       <use x="63.623047" xlink:href="#DejaVuSans-46"/>
       <use x="95.410156" xlink:href="#DejaVuSans-48"/>
      </g>
     </g>
    </g>
    <g id="ytick_2">
     <g id="line2d_19">
      <path clip-path="url(#pcd5849cabb)" d="M 57.6 240.5376 
L 360.8064 240.5376 
" style="fill:none;stroke:#b0b0b0;stroke-linecap:square;stroke-width:0.8;"/>
     </g>
     <g id="line2d_20">
      <g>
       <use style="stroke:#000000;stroke-width:0.8;" x="57.6" xlink:href="#m9ce4251db2" y="240.5376"/>
      </g>
     </g>
     <g id="text_7">
      <!-- 0.2 -->
      <g transform="translate(25.155 246.61635)scale(0.16 -0.16)">
       <use xlink:href="#DejaVuSans-48"/>
       <use x="63.623047" xlink:href="#DejaVuSans-46"/>
       <use x="95.410156" xlink:href="#DejaVuSans-50"/>
      </g>
     </g>
    </g>
    <g id="ytick_3">
     <g id="line2d_21">
      <path clip-path="url(#pcd5849cabb)" d="M 57.6 182.1312 
L 360.8064 182.1312 
" style="fill:none;stroke:#b0b0b0;stroke-linecap:square;stroke-width:0.8;"/>
     </g>
     <g id="line2d_22">
      <g>
       <use style="stroke:#000000;stroke-width:0.8;" x="57.6" xlink:href="#m9ce4251db2" y="182.1312"/>
      </g>
     </g>
     <g id="text_8">
      <!-- 0.4 -->
      <g transform="translate(25.155 188.20995)scale(0.16 -0.16)">
       <use xlink:href="#DejaVuSans-48"/>
       <use x="63.623047" xlink:href="#DejaVuSans-46"/>
       <use x="95.410156" xlink:href="#DejaVuSans-52"/>
      </g>
     </g>
    </g>
    <g id="ytick_4">
     <g id="line2d_23">
      <path clip-path="url(#pcd5849cabb)" d="M 57.6 123.7248 
L 360.8064 123.7248 
" style="fill:none;stroke:#b0b0b0;stroke-linecap:square;stroke-width:0.8;"/>
     </g>
     <g id="line2d_24">
      <g>
       <use style="stroke:#000000;stroke-width:0.8;" x="57.6" xlink:href="#m9ce4251db2" y="123.7248"/>
      </g>
     </g>
     <g id="text_9">
      <!-- 0.6 -->
      <g transform="translate(25.155 129.80355)scale(0.16 -0.16)">
       <use xlink:href="#DejaVuSans-48"/>
       <use x="63.623047" xlink:href="#DejaVuSans-46"/>
       <use x="95.410156" xlink:href="#DejaVuSans-54"/>
      </g>
     </g>
    </g>
    <g id="ytick_5">
     <g id="line2d_25">
      <path clip-path="url(#pcd5849cabb)" d="M 57.6 65.3184 
L 360.8064 65.3184 
" style="fill:none;stroke:#b0b0b0;stroke-linecap:square;stroke-width:0.8;"/>
     </g>
     <g id="line2d_26">
      <g>
       <use style="stroke:#000000;stroke-width:0.8;" x="57.6" xlink:href="#m9ce4251db2" y="65.3184"/>
      </g>
     </g>
     <g id="text_10">
      <!-- 0.8 -->
      <g transform="translate(25.155 71.39715)scale(0.16 -0.16)">
       <defs>
        <path d="M 31.78125 34.625 
Q 24.75 34.625 20.71875 30.859375 
Q 16.703125 27.09375 16.703125 20.515625 
Q 16.703125 13.921875 20.71875 10.15625 
Q 24.75 6.390625 31.78125 6.390625 
Q 38.8125 6.390625 42.859375 10.171875 
Q 46.921875 13.96875 46.921875 20.515625 
Q 46.921875 27.09375 42.890625 30.859375 
Q 38.875 34.625 31.78125 34.625 
z
M 21.921875 38.8125 
Q 15.578125 40.375 12.03125 44.71875 
Q 8.5 49.078125 8.5 55.328125 
Q 8.5 64.0625 14.71875 69.140625 
Q 20.953125 74.21875 31.78125 74.21875 
Q 42.671875 74.21875 48.875 69.140625 
Q 55.078125 64.0625 55.078125 55.328125 
Q 55.078125 49.078125 51.53125 44.71875 
Q 48 40.375 41.703125 38.8125 
Q 48.828125 37.15625 52.796875 32.3125 
Q 56.78125 27.484375 56.78125 20.515625 
Q 56.78125 9.90625 50.3125 4.234375 
Q 43.84375 -1.421875 31.78125 -1.421875 
Q 19.734375 -1.421875 13.25 4.234375 
Q 6.78125 9.90625 6.78125 20.515625 
Q 6.78125 27.484375 10.78125 32.3125 
Q 14.796875 37.15625 21.921875 38.8125 
z
M 18.3125 54.390625 
Q 18.3125 48.734375 21.84375 45.5625 
Q 25.390625 42.390625 31.78125 42.390625 
Q 38.140625 42.390625 41.71875 45.5625 
Q 45.3125 48.734375 45.3125 54.390625 
Q 45.3125 60.0625 41.71875 63.234375 
Q 38.140625 66.40625 31.78125 66.40625 
Q 25.390625 66.40625 21.84375 63.234375 
Q 18.3125 60.0625 18.3125 54.390625 
z
" id="DejaVuSans-56"/>
       </defs>
       <use xlink:href="#DejaVuSans-48"/>
       <use x="63.623047" xlink:href="#DejaVuSans-46"/>
       <use x="95.410156" xlink:href="#DejaVuSans-56"/>
      </g>
     </g>
    </g>
    <g id="ytick_6">
     <g id="line2d_27">
      <path clip-path="url(#pcd5849cabb)" d="M 57.6 6.912 
L 360.8064 6.912 
" style="fill:none;stroke:#b0b0b0;stroke-linecap:square;stroke-width:0.8;"/>
     </g>
     <g id="line2d_28">
      <g>
       <use style="stroke:#000000;stroke-width:0.8;" x="57.6" xlink:href="#m9ce4251db2" y="6.912"/>
      </g>
     </g>
     <g id="text_11">
      <!-- 1.0 -->
      <g transform="translate(25.155 12.99075)scale(0.16 -0.16)">
       <use xlink:href="#DejaVuSans-49"/>
       <use x="63.623047" xlink:href="#DejaVuSans-46"/>
       <use x="95.410156" xlink:href="#DejaVuSans-48"/>
      </g>
     </g>
    </g>
    <g id="text_12">
     <!-- Fraction of function,target pairs -->
     <g transform="translate(17.619531 287.313)rotate(-90)scale(0.17 -0.17)">
      <defs>
       <path d="M 9.8125 72.90625 
L 51.703125 72.90625 
L 51.703125 64.59375 
L 19.671875 64.59375 
L 19.671875 43.109375 
L 48.578125 43.109375 
L 48.578125 34.8125 
L 19.671875 34.8125 
L 19.671875 0 
L 9.8125 0 
z
" id="DejaVuSans-70"/>
       <path d="M 41.109375 46.296875 
Q 39.59375 47.171875 37.8125 47.578125 
Q 36.03125 48 33.890625 48 
Q 26.265625 48 22.1875 43.046875 
Q 18.109375 38.09375 18.109375 28.8125 
L 18.109375 0 
L 9.078125 0 
L 9.078125 54.6875 
L 18.109375 54.6875 
L 18.109375 46.1875 
Q 20.953125 51.171875 25.484375 53.578125 
Q 30.03125 56 36.53125 56 
Q 37.453125 56 38.578125 55.875 
Q 39.703125 55.765625 41.0625 55.515625 
z
" id="DejaVuSans-114"/>
       <path d="M 48.78125 52.59375 
L 48.78125 44.1875 
Q 44.96875 46.296875 41.140625 47.34375 
Q 37.3125 48.390625 33.40625 48.390625 
Q 24.65625 48.390625 19.8125 42.84375 
Q 14.984375 37.3125 14.984375 27.296875 
Q 14.984375 17.28125 19.8125 11.734375 
Q 24.65625 6.203125 33.40625 6.203125 
Q 37.3125 6.203125 41.140625 7.25 
Q 44.96875 8.296875 48.78125 10.40625 
L 48.78125 2.09375 
Q 45.015625 0.34375 40.984375 -0.53125 
Q 36.96875 -1.421875 32.421875 -1.421875 
Q 20.0625 -1.421875 12.78125 6.34375 
Q 5.515625 14.109375 5.515625 27.296875 
Q 5.515625 40.671875 12.859375 48.328125 
Q 20.21875 56 33.015625 56 
Q 37.15625 56 41.109375 55.140625 
Q 45.0625 54.296875 48.78125 52.59375 
z
" id="DejaVuSans-99"/>
       <path d="M 18.3125 70.21875 
L 18.3125 54.6875 
L 36.8125 54.6875 
L 36.8125 47.703125 
L 18.3125 47.703125 
L 18.3125 18.015625 
Q 18.3125 11.328125 20.140625 9.421875 
Q 21.96875 7.515625 27.59375 7.515625 
L 36.8125 7.515625 
L 36.8125 0 
L 27.59375 0 
Q 17.1875 0 13.234375 3.875 
Q 9.28125 7.765625 9.28125 18.015625 
L 9.28125 47.703125 
L 2.6875 47.703125 
L 2.6875 54.6875 
L 9.28125 54.6875 
L 9.28125 70.21875 
z
" id="DejaVuSans-116"/>
       <path d="M 37.109375 75.984375 
L 37.109375 68.5 
L 28.515625 68.5 
Q 23.6875 68.5 21.796875 66.546875 
Q 19.921875 64.59375 19.921875 59.515625 
L 19.921875 54.6875 
L 34.71875 54.6875 
L 34.71875 47.703125 
L 19.921875 47.703125 
L 19.921875 0 
L 10.890625 0 
L 10.890625 47.703125 
L 2.296875 47.703125 
L 2.296875 54.6875 
L 10.890625 54.6875 
L 10.890625 58.5 
Q 10.890625 67.625 15.140625 71.796875 
Q 19.390625 75.984375 28.609375 75.984375 
z
" id="DejaVuSans-102"/>
       <path d="M 8.5 21.578125 
L 8.5 54.6875 
L 17.484375 54.6875 
L 17.484375 21.921875 
Q 17.484375 14.15625 20.5 10.265625 
Q 23.53125 6.390625 29.59375 6.390625 
Q 36.859375 6.390625 41.078125 11.03125 
Q 45.3125 15.671875 45.3125 23.6875 
L 45.3125 54.6875 
L 54.296875 54.6875 
L 54.296875 0 
L 45.3125 0 
L 45.3125 8.40625 
Q 42.046875 3.421875 37.71875 1 
Q 33.40625 -1.421875 27.6875 -1.421875 
Q 18.265625 -1.421875 13.375 4.4375 
Q 8.5 10.296875 8.5 21.578125 
z
M 31.109375 56 
z
" id="DejaVuSans-117"/>
       <path d="M 11.71875 12.40625 
L 22.015625 12.40625 
L 22.015625 4 
L 14.015625 -11.625 
L 7.71875 -11.625 
L 11.71875 4 
z
" id="DejaVuSans-44"/>
       <path d="M 18.109375 8.203125 
L 18.109375 -20.796875 
L 9.078125 -20.796875 
L 9.078125 54.6875 
L 18.109375 54.6875 
L 18.109375 46.390625 
Q 20.953125 51.265625 25.265625 53.625 
Q 29.59375 56 35.59375 56 
Q 45.5625 56 51.78125 48.09375 
Q 58.015625 40.1875 58.015625 27.296875 
Q 58.015625 14.40625 51.78125 6.484375 
Q 45.5625 -1.421875 35.59375 -1.421875 
Q 29.59375 -1.421875 25.265625 0.953125 
Q 20.953125 3.328125 18.109375 8.203125 
z
M 48.6875 27.296875 
Q 48.6875 37.203125 44.609375 42.84375 
Q 40.53125 48.484375 33.40625 48.484375 
Q 26.265625 48.484375 22.1875 42.84375 
Q 18.109375 37.203125 18.109375 27.296875 
Q 18.109375 17.390625 22.1875 11.75 
Q 26.265625 6.109375 33.40625 6.109375 
Q 40.53125 6.109375 44.609375 11.75 
Q 48.6875 17.390625 48.6875 27.296875 
z
" id="DejaVuSans-112"/>
      </defs>
      <use xlink:href="#DejaVuSans-70"/>
      <use x="50.269531" xlink:href="#DejaVuSans-114"/>
      <use x="91.382812" xlink:href="#DejaVuSans-97"/>
      <use x="152.662109" xlink:href="#DejaVuSans-99"/>
      <use x="207.642578" xlink:href="#DejaVuSans-116"/>
      <use x="246.851562" xlink:href="#DejaVuSans-105"/>
      <use x="274.634766" xlink:href="#DejaVuSans-111"/>
      <use x="335.816406" xlink:href="#DejaVuSans-110"/>
      <use x="399.195312" xlink:href="#DejaVuSans-32"/>
      <use x="430.982422" xlink:href="#DejaVuSans-111"/>
      <use x="492.164062" xlink:href="#DejaVuSans-102"/>
      <use x="527.369141" xlink:href="#DejaVuSans-32"/>
      <use x="559.15625" xlink:href="#DejaVuSans-102"/>
      <use x="594.361328" xlink:href="#DejaVuSans-117"/>
      <use x="657.740234" xlink:href="#DejaVuSans-110"/>
      <use x="721.119141" xlink:href="#DejaVuSans-99"/>
      <use x="776.099609" xlink:href="#DejaVuSans-116"/>
      <use x="815.308594" xlink:href="#DejaVuSans-105"/>
      <use x="843.091797" xlink:href="#DejaVuSans-111"/>
      <use x="904.273438" xlink:href="#DejaVuSans-110"/>
      <use x="967.652344" xlink:href="#DejaVuSans-44"/>
      <use x="999.439453" xlink:href="#DejaVuSans-116"/>
      <use x="1038.648438" xlink:href="#DejaVuSans-97"/>
      <use x="1099.927734" xlink:href="#DejaVuSans-114"/>
      <use x="1139.291016" xlink:href="#DejaVuSans-103"/>
      <use x="1202.767578" xlink:href="#DejaVuSans-101"/>
      <use x="1264.291016" xlink:href="#DejaVuSans-116"/>
      <use x="1303.5" xlink:href="#DejaVuSans-32"/>
      <use x="1335.287109" xlink:href="#DejaVuSans-112"/>
      <use x="1398.763672" xlink:href="#DejaVuSans-97"/>
      <use x="1460.042969" xlink:href="#DejaVuSans-105"/>
      <use x="1487.826172" xlink:href="#DejaVuSans-114"/>
      <use x="1528.939453" xlink:href="#DejaVuSans-115"/>
     </g>
    </g>
   </g>
   <g id="line2d_29">
    <defs>
     <path d="M 0 1.5 
C 0.397805 1.5 0.77937 1.341951 1.06066 1.06066 
C 1.341951 0.77937 1.5 0.397805 1.5 0 
C 1.5 -0.397805 1.341951 -0.77937 1.06066 -1.06066 
C 0.77937 -1.341951 0.397805 -1.5 0 -1.5 
C -0.397805 -1.5 -0.77937 -1.341951 -1.06066 -1.06066 
C -1.341951 -0.77937 -1.5 -0.397805 -1.5 0 
C -1.5 0.397805 -1.341951 0.77937 -1.06066 1.06066 
C -0.77937 1.341951 -0.397805 1.5 0 1.5 
z
" id="m209feb6231" style="stroke:#000080;"/>
    </defs>
    <g>
     <use style="fill:#000080;stroke:#000080;" x="194.617274" xlink:href="#m209feb6231" y="6.912"/>
     <use style="fill:#000080;stroke:#000080;" x="194.617274" xlink:href="#m209feb6231" y="6.912"/>
    </g>
   </g>
   <g id="line2d_30">
    <path d="M 92.322865 298.944 
L 92.322865 298.706576 
L 122.598891 298.706576 
L 122.598891 298.587863 
L 124.119844 298.587863 
L 124.119844 298.469151 
L 129.758512 298.469151 
L 129.758512 298.350439 
L 131.808053 298.350439 
L 131.808053 297.756878 
L 132.287354 297.756878 
L 132.287354 297.638166 
L 132.984158 297.638166 
L 132.984158 297.519454 
L 133.210806 297.519454 
L 133.210806 297.400741 
L 133.874812 297.400741 
L 133.874812 297.282029 
L 137.250116 297.282029 
L 137.250116 297.163317 
L 140.110942 297.163317 
L 140.110942 296.925893 
L 140.573544 296.925893 
L 140.573544 296.80718 
L 140.875745 296.80718 
L 140.875745 296.688468 
L 141.173167 296.688468 
L 141.173167 296.451044 
L 142.999601 296.451044 
L 142.999601 296.332332 
L 143.52768 296.332332 
L 143.52768 296.21362 
L 144.041338 296.21362 
L 144.041338 296.094907 
L 144.16759 296.094907 
L 144.16759 295.857483 
L 144.541342 295.857483 
L 144.541342 295.738771 
L 144.664294 295.738771 
L 144.664294 295.501346 
L 145.26728 295.501346 
L 145.26728 295.382634 
L 145.851536 295.382634 
L 145.851536 295.263922 
L 145.966241 295.263922 
L 145.966241 295.026498 
L 146.080251 295.026498 
L 146.080251 294.907785 
L 146.306218 294.907785 
L 146.306218 294.551649 
L 146.529503 294.551649 
L 146.64016 293.958088 
L 147.076389 293.958088 
L 147.076389 293.839376 
L 147.290768 293.839376 
L 147.290768 293.483239 
L 147.607824 293.483239 
L 147.607824 293.364527 
L 147.816265 293.364527 
L 147.816265 293.245815 
L 148.124658 293.245815 
L 148.226342 292.414829 
L 149.020615 292.414829 
L 149.117582 292.058693 
L 149.214052 292.058693 
L 149.31003 291.583844 
L 149.40552 291.583844 
L 149.40552 291.465132 
L 150.060715 291.465132 
L 150.060715 291.34642 
L 150.334674 291.34642 
L 150.425115 290.990283 
L 150.515122 290.990283 
L 150.515122 290.871571 
L 150.78259 290.871571 
L 150.78259 290.515434 
L 150.958812 290.515434 
L 150.958812 290.159298 
L 151.220087 290.159298 
L 151.220087 290.040585 
L 151.477784 290.040585 
L 151.562904 289.803161 
L 151.647641 289.803161 
L 151.731998 289.447024 
L 151.815978 289.447024 
L 151.899585 289.2096 
L 151.982822 289.2096 
L 152.065693 288.734751 
L 152.1482 288.734751 
L 152.230346 288.378615 
L 152.312136 288.378615 
L 152.312136 288.259902 
L 152.474656 288.259902 
L 152.555392 287.785054 
L 152.795543 287.785054 
L 152.795543 287.547629 
L 152.953957 287.547629 
L 152.953957 286.835356 
L 153.266838 286.835356 
L 153.344252 286.597932 
L 153.49813 286.597932 
L 153.5746 286.360507 
L 153.726614 286.360507 
L 153.802162 285.766946 
L 154.101358 285.766946 
L 154.101358 285.41081 
L 154.322673 285.41081 
L 154.39587 285.173385 
L 154.468783 285.173385 
L 154.541415 284.935961 
L 154.613767 284.935961 
L 154.613767 284.579824 
L 154.900425 284.579824 
L 154.900425 284.461112 
L 155.112587 284.461112 
L 155.112587 284.104976 
L 155.460959 284.104976 
L 155.460959 283.867551 
L 155.598521 283.867551 
L 155.666927 283.511415 
L 155.735085 283.511415 
L 155.735085 283.155278 
L 155.870664 283.155278 
L 155.938089 282.799141 
L 156.005274 282.799141 
L 156.005274 282.561717 
L 156.138926 282.561717 
L 156.205398 281.849444 
L 156.337642 281.849444 
L 156.403417 281.374595 
L 156.53428 281.374595 
L 156.599372 280.899746 
L 156.664239 280.899746 
L 156.728884 280.54361 
L 156.793307 280.54361 
L 156.857511 280.187473 
L 156.985263 280.187473 
L 157.048816 279.237776 
L 157.112155 279.237776 
L 157.112155 278.525502 
L 157.238196 278.525502 
L 157.300901 277.931941 
L 157.363398 277.931941 
L 157.425688 277.575805 
L 157.487772 277.575805 
L 157.549652 277.100956 
L 157.61133 277.100956 
L 157.672805 276.626107 
L 157.734081 276.626107 
L 157.734081 276.269971 
L 157.856036 276.269971 
L 157.856036 276.151259 
L 157.977206 276.151259 
L 158.0375 275.320273 
L 158.0976 275.320273 
L 158.15751 274.608 
L 158.336102 274.608 
L 158.395258 273.658302 
L 158.454228 273.658302 
L 158.454228 273.420878 
L 158.630038 273.420878 
L 158.688279 273.064741 
L 158.746339 273.064741 
L 158.804221 272.115044 
L 158.861925 272.115044 
L 158.861925 271.87762 
L 158.976805 271.87762 
L 158.976805 271.165346 
L 159.090988 271.165346 
L 159.090988 270.927922 
L 159.260973 270.927922 
L 159.317295 270.690498 
L 159.373449 270.690498 
L 159.429436 270.334361 
L 159.485256 270.334361 
L 159.540912 269.384663 
L 159.596403 269.384663 
L 159.706897 268.553678 
L 159.761902 268.553678 
L 159.871431 267.722693 
L 159.925957 267.722693 
L 159.980326 267.01042 
L 160.088594 267.01042 
L 160.196243 266.654283 
L 160.249837 266.654283 
L 160.356569 265.467161 
L 160.409709 265.467161 
L 160.515541 264.8736 
L 160.568234 264.8736 
L 160.673181 264.280039 
L 160.725435 264.280039 
L 160.777545 263.686478 
L 160.881333 263.686478 
L 160.881333 263.567766 
L 161.035949 263.567766 
L 161.087207 263.211629 
L 161.189305 263.211629 
L 161.290852 262.73678 
L 161.341421 262.73678 
L 161.442152 261.787083 
L 161.492316 261.787083 
L 161.592245 261.193522 
L 161.642011 261.193522 
L 161.74115 260.362537 
L 161.790524 260.362537 
L 161.839769 259.887688 
L 161.937874 259.887688 
L 162.03547 258.581854 
L 162.132562 258.581854 
L 162.229155 257.988293 
L 162.277267 257.988293 
L 162.373122 257.394732 
L 162.468491 257.394732 
L 162.56338 256.445034 
L 162.610645 256.445034 
L 162.704821 254.901776 
L 162.751732 254.901776 
L 162.845206 253.952078 
L 162.891769 253.952078 
L 162.938218 253.714654 
L 163.030771 253.714654 
L 163.076878 253.477229 
L 163.168754 253.477229 
L 163.260183 253.00238 
L 163.305732 253.00238 
L 163.3965 252.052683 
L 163.44172 252.052683 
L 163.531835 250.746849 
L 163.576732 250.746849 
L 163.621521 250.153288 
L 163.710781 250.153288 
L 163.79962 249.797151 
L 163.843882 249.797151 
L 163.932096 249.084878 
L 163.976048 249.084878 
L 164.063646 247.897756 
L 164.107292 247.897756 
L 164.194282 247.422907 
L 164.324018 247.422907 
L 164.410013 246.948059 
L 164.452864 246.948059 
L 164.495618 246.47321 
L 164.580835 246.47321 
L 164.665667 245.998361 
L 164.70794 245.998361 
L 164.792203 245.286088 
L 164.834193 245.286088 
L 164.917893 244.692527 
L 165.001222 244.692527 
L 165.084184 243.624117 
L 165.125528 243.624117 
L 165.207944 242.199571 
L 165.249018 242.199571 
L 165.330896 241.131161 
L 165.371702 241.131161 
L 165.45305 240.062751 
L 165.493592 240.062751 
L 165.574415 239.231766 
L 165.614697 239.231766 
L 165.695002 238.638205 
L 165.814821 238.638205 
L 165.894279 238.044644 
L 165.933882 238.044644 
L 166.012839 237.332371 
L 166.052194 237.332371 
L 166.130658 236.382673 
L 166.169767 236.382673 
L 166.247742 235.907824 
L 166.286609 235.907824 
L 166.364103 234.839415 
L 166.40273 234.839415 
L 166.479748 234.008429 
L 166.518139 234.008429 
L 166.594686 233.058732 
L 166.746854 233.058732 
L 166.822478 232.702595 
L 166.860176 232.702595 
L 166.935348 232.227746 
L 166.972821 232.227746 
L 167.047544 231.396761 
L 167.084795 231.396761 
L 167.159075 231.040624 
L 167.196106 231.040624 
L 167.306762 230.447063 
L 167.343504 230.447063 
L 167.453299 228.66638 
L 167.489756 228.66638 
L 167.562457 227.716683 
L 167.634879 227.716683 
L 167.742992 226.529561 
L 167.778892 226.529561 
L 167.886182 225.936 
L 167.92181 225.936 
L 167.992864 224.986302 
L 168.063651 224.986302 
L 168.169334 223.917893 
L 168.204431 223.917893 
L 168.274427 223.561756 
L 168.344164 223.561756 
L 168.448287 222.730771 
L 168.482867 222.730771 
L 168.586228 221.899785 
L 168.620556 221.899785 
L 168.723164 220.831376 
L 168.757243 220.831376 
L 168.825216 219.644254 
L 168.892945 219.644254 
L 168.96043 218.457132 
L 169.027674 218.457132 
L 169.061207 217.744859 
L 169.194741 217.744859 
L 169.294273 217.151298 
L 169.327334 217.151298 
L 169.426169 216.2016 
L 169.458999 216.2016 
L 169.524487 215.13319 
L 169.589749 215.13319 
L 169.687218 213.233795 
L 169.719596 213.233795 
L 169.816397 212.40281 
L 169.848553 212.40281 
L 169.880655 211.215688 
L 169.976632 211.215688 
L 170.072123 209.316293 
L 170.167131 209.316293 
L 170.230204 208.366595 
L 170.293066 208.366595 
L 170.386968 207.416898 
L 170.418164 207.416898 
L 170.511445 205.754927 
L 170.542436 205.754927 
L 170.635104 204.211668 
L 170.665892 204.211668 
L 170.727317 203.499395 
L 170.788543 203.499395 
L 170.880009 202.193561 
L 170.9104 202.193561 
L 171.001277 201.837424 
L 171.031472 201.837424 
L 171.091717 200.412878 
L 171.211632 200.412878 
L 171.301069 199.581893 
L 171.330787 199.581893 
L 171.419661 198.513483 
L 171.449192 198.513483 
L 171.537509 197.563785 
L 171.566857 197.563785 
L 171.654625 196.7328 
L 171.68379 196.7328 
L 171.771015 195.308254 
L 171.800001 195.308254 
L 171.88669 194.239844 
L 171.915498 194.239844 
L 171.972982 193.171434 
L 172.058879 193.171434 
L 172.144386 192.340449 
L 172.172803 192.340449 
L 172.257795 190.79719 
L 172.28604 190.79719 
L 172.370523 190.084917 
L 172.3986 190.084917 
L 172.482581 189.016507 
L 172.510491 189.016507 
L 172.566188 188.06681 
L 172.649425 188.06681 
L 172.732295 186.642263 
L 172.842224 186.642263 
L 172.896949 185.217717 
L 173.033068 185.217717 
L 173.141258 184.149307 
L 173.168209 184.149307 
L 173.275627 183.318322 
L 173.302386 183.318322 
L 173.409043 182.012488 
L 173.462145 182.012488 
L 173.541519 178.807259 
L 173.620559 178.807259 
L 173.725432 177.738849 
L 173.751559 177.738849 
L 173.829724 176.076878 
L 173.881654 176.076878 
L 173.985085 174.058771 
L 174.062287 174.058771 
L 174.164733 172.634224 
L 174.190258 172.634224 
L 174.266624 170.972254 
L 174.367966 170.972254 
L 174.443616 169.66642 
L 174.518962 169.66642 
L 174.618958 168.835434 
L 174.668757 168.835434 
L 174.767961 167.648312 
L 174.817367 167.648312 
L 174.915793 167.054751 
L 174.940319 167.054751 
L 175.038105 163.968234 
L 175.062472 163.968234 
L 175.111113 163.374673 
L 175.183838 163.374673 
L 175.280369 162.543688 
L 175.352444 162.543688 
L 175.448117 161.237854 
L 175.519553 161.237854 
L 175.614382 159.694595 
L 175.638014 159.694595 
L 175.732249 158.507473 
L 175.77919 158.507473 
L 175.872722 156.608078 
L 175.896032 156.608078 
L 175.988986 153.99641 
L 176.012153 153.99641 
L 176.081483 153.640273 
L 176.127562 153.640273 
L 176.219382 152.453151 
L 176.265124 152.453151 
L 176.356276 151.028605 
L 176.378996 151.028605 
L 176.469599 149.12921 
L 176.514738 149.12921 
L 176.604692 146.636254 
L 176.627113 146.636254 
L 176.716533 145.092995 
L 176.738821 145.092995 
L 176.84987 143.312312 
L 176.872001 143.312312 
L 176.982268 142.362615 
L 177.026195 142.362615 
L 177.135565 140.225795 
L 177.157362 140.225795 
L 177.265975 138.563824 
L 177.287622 138.563824 
L 177.395487 135.952156 
L 177.416986 135.952156 
L 177.502736 133.340488 
L 177.545466 133.340488 
L 177.545466 133.221776 
L 177.694258 133.221776 
L 177.799823 131.559805 
L 177.820865 131.559805 
L 177.904798 130.372683 
L 177.946625 130.372683 
L 178.03 129.185561 
L 178.07155 129.185561 
L 178.154375 127.761015 
L 178.195651 127.761015 
L 178.298446 126.217756 
L 178.339408 126.217756 
L 178.421064 124.674498 
L 178.46176 124.674498 
L 178.563116 122.062829 
L 178.583321 122.062829 
L 178.684026 118.620176 
L 178.704102 118.620176 
L 178.784194 116.839493 
L 178.824112 116.839493 
L 178.923539 115.05881 
L 178.963164 115.05881 
L 179.022444 113.9904 
L 179.081538 113.9904 
L 179.179617 111.85358 
L 179.218706 111.85358 
L 179.316074 111.141307 
L 179.335488 111.141307 
L 179.432255 109.360624 
L 179.451549 109.360624 
L 179.528527 107.342517 
L 179.566899 107.342517 
L 179.662486 106.39282 
L 179.681545 106.39282 
L 179.75759 104.018576 
L 179.833329 104.018576 
L 179.927575 102.356605 
L 179.946368 102.356605 
L 180.002634 100.45721 
L 180.058732 100.45721 
L 180.151859 98.676527 
L 180.170429 98.676527 
L 180.281466 97.489405 
L 180.33674 97.489405 
L 180.446803 96.895844 
L 180.519823 96.895844 
L 180.628823 95.233873 
L 180.646928 95.233873 
L 180.737195 93.097054 
L 180.791148 93.097054 
L 180.898592 89.535688 
L 180.916439 89.535688 
L 181.023172 87.755005 
L 181.040902 87.755005 
L 181.146932 86.211746 
L 181.164546 86.211746 
L 181.252369 83.600078 
L 181.287383 83.600078 
L 181.392038 81.107122 
L 181.409423 81.107122 
L 181.513403 78.258029 
L 181.530677 78.258029 
L 181.616811 77.070907 
L 181.651154 77.070907 
L 181.753809 74.577951 
L 181.770864 74.577951 
L 181.87287 72.91598 
L 181.940568 72.91598 
L 182.024849 71.491434 
L 182.058457 71.491434 
L 182.158919 69.235902 
L 182.175611 69.235902 
L 182.275451 68.04878 
L 182.29204 68.04878 
L 182.391266 66.030673 
L 182.424225 66.030673 
L 182.522758 63.893854 
L 182.53913 63.893854 
L 182.637065 62.825444 
L 182.653338 62.825444 
L 182.734492 61.163473 
L 182.766856 61.163473 
L 182.847523 60.213776 
L 182.911809 60.213776 
L 182.991858 57.483395 
L 183.023783 57.483395 
L 183.119233 55.584 
L 183.135094 55.584 
L 183.245751 52.85362 
L 183.277247 52.85362 
L 183.387073 50.954224 
L 183.402711 50.954224 
L 183.511809 49.173541 
L 183.542864 49.173541 
L 183.620277 48.105132 
L 183.666573 48.105132 
L 183.774156 47.274146 
L 183.789475 47.274146 
L 183.865883 44.068917 
L 183.972335 44.068917 
L 184.078188 41.575961 
L 184.093261 41.575961 
L 184.183448 40.270127 
L 184.213415 40.270127 
L 184.317924 38.726868 
L 184.332807 38.726868 
L 184.436656 37.064898 
L 184.451445 37.064898 
L 184.554643 35.284215 
L 184.584025 35.284215 
L 184.657279 33.38482 
L 184.715677 33.38482 
L 184.802936 32.197698 
L 184.831933 32.197698 
L 184.93307 30.654439 
L 184.947474 30.654439 
L 185.047994 29.229893 
L 185.062311 29.229893 
L 185.133729 27.924059 
L 185.204877 27.924059 
L 185.304035 27.211785 
L 185.318157 27.211785 
L 185.416721 25.668527 
L 185.43076 25.668527 
L 185.514771 24.481405 
L 185.542692 24.481405 
L 185.640089 23.531707 
L 185.681677 23.531707 
L 185.79213 21.869737 
L 185.805892 21.869737 
L 185.91562 20.207766 
L 185.929291 20.207766 
L 185.997499 19.37678 
L 186.051887 19.37678 
L 186.160194 18.427083 
L 186.200649 18.427083 
L 186.308106 16.765112 
L 186.334874 16.765112 
L 186.334874 16.527688 
L 186.481424 16.527688 
L 186.574092 15.696702 
L 186.600485 15.696702 
L 186.600485 15.57799 
L 186.862397 15.57799 
L 186.901371 15.103141 
L 186.991998 15.103141 
L 187.04359 14.628293 
L 187.107881 14.628293 
L 187.184741 13.91602 
L 187.223054 13.91602 
L 187.299446 13.441171 
L 187.337526 13.441171 
L 187.426081 13.203746 
L 187.539328 13.203746 
L 187.639423 12.966322 
L 187.80095 12.966322 
L 187.80095 12.372761 
L 188.034561 12.372761 
L 188.144214 11.660488 
L 188.216963 11.660488 
L 188.313525 10.829502 
L 188.373626 10.829502 
L 188.373626 10.71079 
L 188.98755 10.71079 
L 188.98755 10.592078 
L 189.160983 10.592078 
L 189.160983 10.473366 
L 189.491819 10.473366 
L 189.491819 10.117229 
L 189.705461 10.117229 
L 189.761282 9.761093 
L 189.828049 9.761093 
L 189.828049 9.167532 
L 189.949843 9.167532 
L 189.949843 9.04882 
L 190.386198 9.04882 
L 190.386198 8.217834 
L 190.653869 8.217834 
L 190.653869 7.98041 
L 192.839405 7.98041 
L 192.839405 7.505561 
L 193.306797 7.505561 
L 193.306797 7.268137 
L 194.617274 7.268137 
L 194.617274 6.912 
L 360.8064 6.912 
L 360.8064 6.912 
" style="fill:none;stroke:#000080;stroke-linecap:square;stroke-width:1.5;"/>
   </g>
   <g id="line2d_31">
    <defs>
     <path d="M 0 6 
C 1.591219 6 3.117479 5.367802 4.242641 4.242641 
C 5.367802 3.117479 6 1.591219 6 0 
C 6 -1.591219 5.367802 -3.117479 4.242641 -4.242641 
C 3.117479 -5.367802 1.591219 -6 0 -6 
C -1.591219 -6 -3.117479 -5.367802 -4.242641 -4.242641 
C -5.367802 -3.117479 -6 -1.591219 -6 0 
C -6 1.591219 -5.367802 3.117479 -4.242641 4.242641 
C -3.117479 5.367802 -1.591219 6 0 6 
z
" id="mb6456d2621" style="stroke:#000080;stroke-width:1.5;"/>
    </defs>
    <g>
     <use style="fill-opacity:0;stroke:#000080;stroke-width:1.5;" x="168.96043" xlink:href="#mb6456d2621" y="219.169405"/>
     <use style="fill-opacity:0;stroke:#000080;stroke-width:1.5;" x="183.480702" xlink:href="#mb6456d2621" y="49.885815"/>
     <use style="fill-opacity:0;stroke:#000080;stroke-width:1.5;" x="194.617274" xlink:href="#mb6456d2621" y="6.912"/>
     <use style="fill-opacity:0;stroke:#000080;stroke-width:1.5;" x="194.617274" xlink:href="#mb6456d2621" y="6.912"/>
     <use style="fill-opacity:0;stroke:#000080;stroke-width:1.5;" x="360.8064" xlink:href="#mb6456d2621" y="6.912"/>
    </g>
   </g>
   <g id="line2d_32">
    <path style="fill:none;stroke:#000080;stroke-linecap:square;stroke-width:1.5;"/>
    <g/>
   </g>
   <g id="line2d_33">
    <defs>
     <path d="M 0 1.5 
C 0.397805 1.5 0.77937 1.341951 1.06066 1.06066 
C 1.341951 0.77937 1.5 0.397805 1.5 0 
C 1.5 -0.397805 1.341951 -0.77937 1.06066 -1.06066 
C 0.77937 -1.341951 0.397805 -1.5 0 -1.5 
C -0.397805 -1.5 -0.77937 -1.341951 -1.06066 -1.06066 
C -1.341951 -0.77937 -1.5 -0.397805 -1.5 0 
C -1.5 0.397805 -1.341951 0.77937 -1.06066 1.06066 
C -0.77937 1.341951 -0.397805 1.5 0 1.5 
z
" id="md5c0a084e6" style="stroke:#ff00ff;"/>
    </defs>
    <g>
     <use style="fill:#ff00ff;stroke:#ff00ff;" x="203.557007" xlink:href="#md5c0a084e6" y="6.912"/>
     <use style="fill:#ff00ff;stroke:#ff00ff;" x="203.557007" xlink:href="#md5c0a084e6" y="6.912"/>
    </g>
   </g>
   <g id="line2d_34">
    <path d="M 145.966241 298.944 
L 145.966241 298.825288 
L 147.290768 298.825288 
L 147.290768 298.706576 
L 148.124658 298.706576 
L 148.124658 298.587863 
L 148.428077 298.587863 
L 148.428077 298.469151 
L 148.825169 298.469151 
L 148.825169 298.350439 
L 149.500528 298.350439 
L 149.500528 298.231727 
L 150.515122 298.231727 
L 150.515122 298.113015 
L 150.870907 298.113015 
L 150.870907 297.756878 
L 151.392277 297.756878 
L 151.392277 297.638166 
L 152.230346 297.638166 
L 152.230346 297.400741 
L 152.393571 297.400741 
L 152.393571 297.282029 
L 152.635783 297.282029 
L 152.715833 297.044605 
L 152.953957 297.044605 
L 152.953957 296.80718 
L 153.111048 296.80718 
L 153.111048 296.688468 
L 153.266838 296.688468 
L 153.266838 296.569756 
L 153.421349 296.569756 
L 153.421349 296.451044 
L 154.027004 296.451044 
L 154.027004 296.21362 
L 154.322673 296.21362 
L 154.322673 296.094907 
L 154.468783 296.094907 
L 154.468783 295.857483 
L 154.613767 295.857483 
L 154.613767 295.501346 
L 155.042132 295.501346 
L 155.042132 295.382634 
L 155.252711 295.382634 
L 155.322384 294.907785 
L 155.735085 294.907785 
L 155.735085 294.789073 
L 156.138926 294.789073 
L 156.138926 294.670361 
L 157.238196 294.670361 
L 157.238196 294.432937 
L 157.487772 294.432937 
L 157.487772 294.314224 
L 157.672805 294.314224 
L 157.672805 294.195512 
L 157.795157 294.195512 
L 157.795157 294.0768 
L 158.0375 294.0768 
L 158.0976 293.720663 
L 158.15751 293.720663 
L 158.217229 293.483239 
L 158.276759 293.483239 
L 158.336102 293.00839 
L 158.395258 293.00839 
L 158.454228 292.770966 
L 158.513014 292.770966 
L 158.571617 292.533541 
L 158.688279 292.533541 
L 158.746339 292.296117 
L 158.919453 292.296117 
L 158.919453 291.93998 
L 159.14782 291.93998 
L 159.204482 291.34642 
L 159.317295 291.34642 
L 159.373449 291.108995 
L 159.485256 291.108995 
L 159.540912 290.752859 
L 159.596403 290.752859 
L 159.706897 289.921873 
L 159.761902 289.921873 
L 159.871431 289.565737 
L 159.925957 289.565737 
L 160.034538 288.972176 
L 160.088594 288.972176 
L 160.196243 288.616039 
L 160.249837 288.616039 
L 160.356569 288.259902 
L 160.515541 288.259902 
L 160.515541 288.022478 
L 160.725435 288.022478 
L 160.777545 287.310205 
L 160.881333 287.310205 
L 160.881333 286.954068 
L 161.035949 286.954068 
L 161.138325 286.360507 
L 161.189305 286.360507 
L 161.189305 286.241795 
L 161.341421 286.241795 
L 161.442152 286.004371 
L 161.492316 286.004371 
L 161.592245 285.41081 
L 161.74115 285.41081 
L 161.839769 284.817249 
L 162.084079 284.817249 
L 162.180921 284.3424 
L 162.325256 284.3424 
L 162.420867 283.511415 
L 162.468491 283.511415 
L 162.56338 283.27399 
L 162.751732 283.27399 
L 162.845206 282.680429 
L 162.891769 282.680429 
L 162.984551 282.086868 
L 163.030771 282.086868 
L 163.030771 281.968156 
L 163.168754 281.968156 
L 163.260183 281.493307 
L 163.305732 281.493307 
L 163.3965 280.899746 
L 163.486831 280.899746 
L 163.531835 280.662322 
L 163.621521 280.662322 
L 163.710781 280.424898 
L 163.79962 280.424898 
L 163.888041 279.4752 
L 163.932096 279.4752 
L 164.019898 278.40679 
L 164.150838 278.40679 
L 164.194282 277.931941 
L 164.280872 277.931941 
L 164.324018 277.100956 
L 164.452864 277.100956 
L 164.538274 276.388683 
L 164.580835 276.388683 
L 164.665667 275.438985 
L 164.750119 275.438985 
L 164.750119 275.201561 
L 164.876089 275.201561 
L 164.959603 274.726712 
L 165.042749 274.726712 
L 165.084184 274.489288 
L 165.249018 274.489288 
L 165.290001 274.133151 
L 165.371702 274.133151 
L 165.45305 273.777015 
L 165.574415 273.777015 
L 165.654892 273.302166 
L 165.695002 273.302166 
L 165.774966 272.352468 
L 165.814821 272.352468 
L 165.894279 271.758907 
L 165.973402 271.758907 
L 166.052194 271.284059 
L 166.130658 271.284059 
L 166.208795 270.453073 
L 166.325396 270.453073 
L 166.364103 269.503376 
L 166.441278 269.503376 
L 166.441278 269.265951 
L 166.556452 269.265951 
L 166.632844 268.197541 
L 166.708927 268.197541 
L 166.784704 267.129132 
L 166.822478 267.129132 
L 166.8978 266.298146 
L 166.972821 266.298146 
L 167.047544 265.704585 
L 167.084795 265.704585 
L 167.121972 265.229737 
L 167.269949 265.229737 
L 167.269949 264.636176 
L 167.416772 264.636176 
L 167.526142 263.80519 
L 167.562457 263.80519 
L 167.634879 262.974205 
L 167.742992 262.974205 
L 167.778892 262.618068 
L 167.886182 262.618068 
L 167.957371 261.905795 
L 168.028291 261.905795 
L 168.098945 261.312234 
L 168.169334 261.312234 
L 168.204431 260.956098 
L 168.344164 260.956098 
L 168.448287 259.887688 
L 168.517384 259.887688 
L 168.620556 259.294127 
L 168.757243 259.294127 
L 168.859111 257.988293 
L 168.892945 257.988293 
L 168.994082 257.513444 
L 169.027674 257.513444 
L 169.128092 256.20761 
L 169.161446 256.20761 
L 169.161446 255.732761 
L 169.294273 255.732761 
L 169.393282 254.189502 
L 169.426169 254.189502 
L 169.524487 252.290107 
L 169.557146 252.290107 
L 169.654784 250.746849 
L 169.687218 250.746849 
L 169.784185 249.559727 
L 169.816397 249.559727 
L 169.880655 248.372605 
L 169.976632 248.372605 
L 170.072123 248.016468 
L 170.135514 248.016468 
L 170.230204 247.304195 
L 170.261661 247.304195 
L 170.324419 246.948059 
L 170.386968 246.948059 
L 170.480403 245.879649 
L 170.511445 245.879649 
L 170.604265 245.048663 
L 170.635104 245.048663 
L 170.727317 243.861541 
L 170.788543 243.861541 
L 170.84957 243.386693 
L 170.9104 243.386693 
L 171.001277 242.436995 
L 171.031472 242.436995 
L 171.121768 241.487298 
L 171.181725 241.487298 
L 171.271304 240.062751 
L 171.301069 240.062751 
L 171.390083 239.113054 
L 171.419661 239.113054 
L 171.508116 237.688507 
L 171.537509 237.688507 
L 171.596158 237.213659 
L 171.654625 237.213659 
L 171.654625 237.094946 
L 171.771015 237.094946 
L 171.857838 236.145249 
L 171.88669 236.145249 
L 171.944262 235.432976 
L 172.058879 235.432976 
L 172.144386 233.889717 
L 172.201176 233.889717 
L 172.28604 233.177444 
L 172.370523 233.177444 
L 172.454629 232.227746 
L 172.482581 232.227746 
L 172.53836 231.278049 
L 172.593974 231.278049 
L 172.704712 229.616078 
L 172.732295 229.616078 
L 172.78734 228.903805 
L 172.869606 228.903805 
L 172.978738 227.479259 
L 173.005923 227.479259 
L 173.114269 225.817288 
L 173.141258 225.817288 
L 173.24883 224.86759 
L 173.275627 224.86759 
L 173.35579 223.79918 
L 173.409043 223.79918 
L 173.515098 222.730771 
L 173.541519 222.730771 
L 173.646832 221.899785 
L 173.673069 221.899785 
L 173.77765 221.0688 
L 173.803705 221.0688 
L 173.881654 220.237815 
L 173.933441 220.237815 
L 174.010854 219.406829 
L 174.062287 219.406829 
L 174.164733 218.575844 
L 174.190258 218.575844 
L 174.266624 217.744859 
L 174.317363 217.744859 
L 174.418433 215.845463 
L 174.468765 215.845463 
L 174.544011 214.420917 
L 174.618958 214.420917 
L 174.718424 213.589932 
L 174.743209 213.589932 
L 174.842022 212.284098 
L 174.866645 212.284098 
L 174.940319 211.690537 
L 175.013706 211.690537 
L 175.111113 209.553717 
L 175.135386 209.553717 
L 175.232165 208.247883 
L 175.256283 208.247883 
L 175.352444 207.298185 
L 175.376408 207.298185 
L 175.424244 206.823337 
L 175.519553 206.823337 
L 175.614382 205.39879 
L 175.638014 205.39879 
L 175.732249 204.092956 
L 175.755734 204.092956 
L 175.849382 202.549698 
L 175.872722 202.549698 
L 175.965791 201.6 
L 176.012153 201.6 
L 176.104537 200.53159 
L 176.127562 200.53159 
L 176.219382 199.700605 
L 176.242267 199.700605 
L 176.265124 199.107044 
L 176.356276 199.107044 
L 176.446989 197.80121 
L 176.469599 197.80121 
L 176.559769 195.426966 
L 176.582244 195.426966 
L 176.649508 194.358556 
L 176.716533 194.358556 
L 176.761083 193.883707 
L 176.827712 193.883707 
L 176.938239 192.459161 
L 176.982268 192.459161 
L 177.091893 191.153327 
L 177.113741 191.153327 
L 177.200883 189.72878 
L 177.265975 189.72878 
L 177.373963 187.591961 
L 177.395487 187.591961 
L 177.502736 186.523551 
L 177.524113 186.523551 
L 177.630634 185.099005 
L 177.651866 185.099005 
L 177.736555 184.030595 
L 177.778757 184.030595 
L 177.862878 182.368624 
L 177.904798 182.368624 
L 178.009191 181.181502 
L 178.03 181.181502 
L 178.133703 178.807259 
L 178.154375 178.807259 
L 178.257396 177.857561 
L 178.298446 177.857561 
L 178.400683 176.19559 
L 178.421064 176.19559 
L 178.522639 175.12718 
L 178.542888 175.12718 
L 178.643809 173.702634 
L 178.663928 173.702634 
L 178.764203 172.871649 
L 178.784194 172.871649 
L 178.883832 171.209678 
L 178.903696 171.209678 
L 179.002704 170.734829 
L 179.022444 170.734829 
L 179.120831 169.785132 
L 179.140447 169.785132 
L 179.23822 168.360585 
L 179.277187 168.360585 
L 179.374254 167.292176 
L 179.432255 167.292176 
L 179.509312 165.630205 
L 179.547723 165.630205 
L 179.643407 163.255961 
L 179.700586 163.255961 
L 179.795498 160.169444 
L 179.852216 160.169444 
L 179.946368 158.270049 
L 179.965142 158.270049 
L 179.965142 158.151337 
L 180.077394 158.151337 
L 180.170429 156.251941 
L 180.188981 156.251941 
L 180.299909 153.640273 
L 180.355129 153.640273 
L 180.465085 151.740878 
L 180.501594 151.740878 
L 180.6107 149.366634 
L 180.628823 149.366634 
L 180.737195 147.229815 
L 180.755196 147.229815 
L 180.862845 145.211707 
L 180.880727 145.211707 
L 180.987662 142.600039 
L 181.023172 142.600039 
L 181.129302 140.225795 
L 181.146932 140.225795 
L 181.252369 137.732839 
L 181.287383 137.732839 
L 181.392038 134.765034 
L 181.409423 134.765034 
L 181.496113 132.984351 
L 181.547935 132.984351 
L 181.651154 131.915941 
L 181.685435 131.915941 
L 181.787904 130.016546 
L 181.804928 130.016546 
L 181.90675 128.710712 
L 181.923667 128.710712 
L 181.991182 126.217756 
L 182.041661 126.217756 
L 182.142212 124.437073 
L 182.158919 124.437073 
L 182.258848 122.65639 
L 182.275451 122.65639 
L 182.358249 121.58798 
L 182.407753 121.58798 
L 182.489971 120.044722 
L 182.522758 120.044722 
L 182.620778 118.382751 
L 182.637065 118.382751 
L 182.734492 114.940098 
L 182.750681 114.940098 
L 182.847523 113.159415 
L 182.863615 113.159415 
L 182.943869 111.141307 
L 182.975876 111.141307 
L 183.071568 109.479337 
L 183.103358 109.479337 
L 183.198406 107.936078 
L 183.229982 107.936078 
L 183.340084 104.849561 
L 183.35576 104.849561 
L 183.46513 103.18759 
L 183.511809 103.18759 
L 183.620277 101.169483 
L 183.635722 101.169483 
L 183.728124 100.219785 
L 183.774156 100.219785 
L 183.865883 97.489405 
L 183.911579 97.489405 
L 184.017773 94.5216 
L 184.032895 94.5216 
L 184.138409 91.909932 
L 184.153434 91.909932 
L 184.258276 90.129249 
L 184.273206 90.129249 
L 184.377384 88.942127 
L 184.392219 88.942127 
L 184.480988 86.211746 
L 184.510485 86.211746 
L 184.613361 84.905912 
L 184.628012 84.905912 
L 184.730249 81.225834 
L 184.744809 81.225834 
L 184.846414 79.207727 
L 184.875344 79.207727 
L 184.961867 77.664468 
L 184.99062 77.664468 
L 185.09091 76.002498 
L 185.105194 76.002498 
L 185.204877 74.103102 
L 185.219074 74.103102 
L 185.318157 71.966283 
L 185.33227 71.966283 
L 185.43076 69.948176 
L 185.444788 69.948176 
L 185.542692 67.336507 
L 185.556637 67.336507 
L 185.653962 65.199688 
L 185.667825 65.199688 
L 185.778359 63.18158 
L 185.805892 63.18158 
L 185.888248 61.638322 
L 185.929291 61.638322 
L 186.038305 59.026654 
L 186.06546 59.026654 
L 186.173689 58.195668 
L 186.187174 58.195668 
L 186.294707 55.940137 
L 186.308106 55.940137 
L 186.414952 54.396878 
L 186.428265 54.396878 
L 186.534433 52.022634 
L 186.547662 52.022634 
L 186.574092 51.547785 
L 186.666305 51.547785 
L 186.731897 49.64839 
L 186.784206 49.64839 
L 186.862397 48.223844 
L 186.927309 48.223844 
L 187.030705 46.324449 
L 187.04359 46.324449 
L 187.14635 45.374751 
L 187.171953 45.374751 
L 187.274017 42.644371 
L 187.286736 42.644371 
L 187.38818 40.270127 
L 187.400822 40.270127 
L 187.463906 39.439141 
L 187.514221 39.439141 
L 187.61445 38.25202 
L 187.626941 38.25202 
L 187.726572 36.1152 
L 187.751397 36.1152 
L 187.850373 35.284215 
L 187.875036 35.284215 
L 187.948831 34.453229 
L 187.997867 34.453229 
L 188.107734 33.503532 
L 188.119902 33.503532 
L 188.216963 31.960273 
L 188.24115 31.960273 
L 188.349609 31.248 
L 188.373626 31.248 
L 188.481326 30.891863 
L 188.528995 30.891863 
L 188.528995 30.773151 
L 188.647643 30.773151 
L 188.75379 29.11118 
L 188.800775 29.11118 
L 188.906064 28.280195 
L 188.929382 28.280195 
L 189.033955 26.855649 
L 189.045539 26.855649 
L 189.14947 25.193678 
L 189.195478 25.193678 
L 189.275723 24.600117 
L 189.310008 24.600117 
L 189.401133 24.125268 
L 189.457863 24.125268 
L 189.503124 23.65042 
L 189.59332 23.65042 
L 189.683086 22.463298 
L 189.705461 22.463298 
L 189.783564 21.751024 
L 189.850252 21.751024 
L 189.916704 21.038751 
L 189.982923 21.038751 
L 190.015945 20.801327 
L 190.212869 20.801327 
L 190.256351 20.563902 
L 190.375412 20.563902 
L 190.472268 19.851629 
L 190.504443 19.851629 
L 190.600639 18.901932 
L 190.621949 18.901932 
L 190.706949 18.664507 
L 190.759879 18.664507 
L 190.802117 18.189659 
L 190.886309 18.189659 
L 190.980576 17.71481 
L 191.167706 17.71481 
L 191.219357 17.358673 
L 191.281153 17.358673 
L 191.322237 17.002537 
L 191.404138 17.002537 
L 191.455146 15.459278 
L 191.526325 15.459278 
L 191.627544 15.103141 
L 191.647722 15.103141 
L 191.698075 14.747005 
L 191.848327 14.747005 
L 191.898146 13.797307 
L 192.204112 13.797307 
L 192.204112 13.559883 
L 192.321227 13.559883 
L 192.321227 13.441171 
L 192.5629 13.441171 
L 192.5629 12.966322 
L 192.706427 12.966322 
L 192.744517 12.610185 
L 192.839405 12.610185 
L 192.896109 12.372761 
L 192.980846 12.372761 
L 192.980846 12.135337 
L 193.251319 12.135337 
L 193.343691 11.7792 
L 193.789872 11.7792 
L 193.789872 11.660488 
L 194.694617 11.660488 
L 194.694617 11.423063 
L 195.769617 11.423063 
L 195.769617 11.304351 
L 197.353376 11.304351 
L 197.353376 11.185639 
L 197.523852 11.185639 
L 197.523852 11.066927 
L 197.663524 11.066927 
L 197.663524 10.948215 
L 197.845738 10.948215 
L 197.932577 10.71079 
L 198.140799 10.71079 
L 198.140799 10.354654 
L 199.040077 10.354654 
L 199.040077 10.235941 
L 199.3037 10.235941 
L 199.3037 10.117229 
L 199.767797 10.117229 
L 199.767797 9.879805 
L 200.085984 9.879805 
L 200.085984 9.761093 
L 200.443156 9.761093 
L 200.443156 9.64238 
L 200.725335 9.64238 
L 200.830843 9.404956 
L 200.978797 9.404956 
L 200.978797 9.167532 
L 201.168197 9.167532 
L 201.168197 9.04882 
L 201.355709 9.04882 
L 201.439783 8.692683 
L 201.842882 8.692683 
L 201.842882 8.455259 
L 202.226035 8.455259 
L 202.32919 8.217834 
L 202.426099 8.217834 
L 202.426099 7.98041 
L 202.607171 7.98041 
L 202.685845 7.742985 
L 202.85889 7.742985 
L 202.897746 7.268137 
L 203.465767 7.268137 
L 203.557007 6.912 
L 360.8064 6.912 
L 360.8064 6.912 
" style="fill:none;stroke:#ff00ff;stroke-linecap:square;stroke-width:1.5;"/>
   </g>
   <g id="line2d_35">
    <defs>
     <path d="M -0 8.485281 
L 5.091169 0 
L 0 -8.485281 
L -5.091169 -0 
z
" id="m4923327770" style="stroke:#ff00ff;stroke-linejoin:miter;stroke-width:1.5;"/>
    </defs>
    <g>
     <use style="fill-opacity:0;stroke:#ff00ff;stroke-linejoin:miter;stroke-width:1.5;" x="184.628012" xlink:href="#m4923327770" y="84.074927"/>
     <use style="fill-opacity:0;stroke:#ff00ff;stroke-linejoin:miter;stroke-width:1.5;" x="203.557007" xlink:href="#m4923327770" y="7.149424"/>
     <use style="fill-opacity:0;stroke:#ff00ff;stroke-linejoin:miter;stroke-width:1.5;" x="203.557007" xlink:href="#m4923327770" y="6.912"/>
     <use style="fill-opacity:0;stroke:#ff00ff;stroke-linejoin:miter;stroke-width:1.5;" x="203.557007" xlink:href="#m4923327770" y="6.912"/>
     <use style="fill-opacity:0;stroke:#ff00ff;stroke-linejoin:miter;stroke-width:1.5;" x="360.8064" xlink:href="#m4923327770" y="6.912"/>
    </g>
   </g>
   <g id="line2d_36">
    <path style="fill:none;stroke:#ff00ff;stroke-linecap:square;stroke-width:1.5;"/>
    <g/>
   </g>
   <g id="line2d_37">
    <path d="M 360.8064 6.912 
L 380.514816 293.10336 
" style="fill:none;stroke:#ff00ff;stroke-linecap:square;stroke-width:1.5;"/>
    <g>
     <use style="fill-opacity:0;stroke:#ff00ff;stroke-linejoin:miter;stroke-width:1.5;" x="360.8064" xlink:href="#m4923327770" y="6.912"/>
     <use style="fill-opacity:0;stroke:#ff00ff;stroke-linejoin:miter;stroke-width:1.5;" x="380.514816" xlink:href="#m4923327770" y="293.10336"/>
    </g>
   </g>
   <g id="line2d_38">
    <path d="M 360.8064 6.912 
L 380.514816 12.75264 
" style="fill:none;stroke:#000080;stroke-linecap:square;stroke-width:1.5;"/>
    <g>
     <use style="fill-opacity:0;stroke:#000080;stroke-width:1.5;" x="360.8064" xlink:href="#mb6456d2621" y="6.912"/>
     <use style="fill-opacity:0;stroke:#000080;stroke-width:1.5;" x="380.514816" xlink:href="#mb6456d2621" y="12.75264"/>
    </g>
   </g>
   <g id="line2d_39">
    <path d="M 360.8064 298.944 
L 360.8064 6.912 
" style="fill:none;stroke:#000000;stroke-linecap:square;stroke-width:1.5;"/>
   </g>
   <g id="patch_3">
    <path d="M 57.6 298.944 
L 360.8064 298.944 
" style="fill:none;stroke:#000000;stroke-linecap:square;stroke-linejoin:miter;stroke-width:0.8;"/>
   </g>
   <g id="patch_4">
    <path d="M 57.6 6.912 
L 360.8064 6.912 
" style="fill:none;stroke:#000000;stroke-linecap:square;stroke-linejoin:miter;stroke-width:0.8;"/>
   </g>
   <g id="text_13">
    <!-- al3 -->
    <g transform="translate(386.578944 296.966485)scale(0.14 -0.14)">
     <defs>
      <path d="M 40.578125 39.3125 
Q 47.65625 37.796875 51.625 33 
Q 55.609375 28.21875 55.609375 21.1875 
Q 55.609375 10.40625 48.1875 4.484375 
Q 40.765625 -1.421875 27.09375 -1.421875 
Q 22.515625 -1.421875 17.65625 -0.515625 
Q 12.796875 0.390625 7.625 2.203125 
L 7.625 11.71875 
Q 11.71875 9.328125 16.59375 8.109375 
Q 21.484375 6.890625 26.8125 6.890625 
Q 36.078125 6.890625 40.9375 10.546875 
Q 45.796875 14.203125 45.796875 21.1875 
Q 45.796875 27.640625 41.28125 31.265625 
Q 36.765625 34.90625 28.71875 34.90625 
L 20.21875 34.90625 
L 20.21875 43.015625 
L 29.109375 43.015625 
Q 36.375 43.015625 40.234375 45.921875 
Q 44.09375 48.828125 44.09375 54.296875 
Q 44.09375 59.90625 40.109375 62.90625 
Q 36.140625 65.921875 28.71875 65.921875 
Q 24.65625 65.921875 20.015625 65.03125 
Q 15.375 64.15625 9.8125 62.3125 
L 9.8125 71.09375 
Q 15.4375 72.65625 20.34375 73.4375 
Q 25.25 74.21875 29.59375 74.21875 
Q 40.828125 74.21875 47.359375 69.109375 
Q 53.90625 64.015625 53.90625 55.328125 
Q 53.90625 49.265625 50.4375 45.09375 
Q 46.96875 40.921875 40.578125 39.3125 
z
" id="DejaVuSans-51"/>
     </defs>
     <use xlink:href="#DejaVuSans-97"/>
     <use x="61.279297" xlink:href="#DejaVuSans-108"/>
     <use x="89.0625" xlink:href="#DejaVuSans-51"/>
    </g>
   </g>
   <g id="text_14">
    <!-- al-defaul -->
    <g transform="translate(386.578944 16.615765)scale(0.14 -0.14)">
     <defs>
      <path d="M 4.890625 31.390625 
L 31.203125 31.390625 
L 31.203125 23.390625 
L 4.890625 23.390625 
z
" id="DejaVuSans-45"/>
     </defs>
     <use xlink:href="#DejaVuSans-97"/>
     <use x="61.279297" xlink:href="#DejaVuSans-108"/>
     <use x="89.0625" xlink:href="#DejaVuSans-45"/>
     <use x="125.146484" xlink:href="#DejaVuSans-100"/>
     <use x="188.623047" xlink:href="#DejaVuSans-101"/>
     <use x="250.146484" xlink:href="#DejaVuSans-102"/>
     <use x="285.351562" xlink:href="#DejaVuSans-97"/>
     <use x="346.630859" xlink:href="#DejaVuSans-117"/>
     <use x="410.009766" xlink:href="#DejaVuSans-108"/>
    </g>
   </g>
   <g id="text_15">
    <!-- bbob-constrained f22, f28, f34, f40, 3-D -->
    <g transform="translate(60.632064 17.582726)scale(0.102 -0.102)">
     <defs>
      <path d="M 48.6875 27.296875 
Q 48.6875 37.203125 44.609375 42.84375 
Q 40.53125 48.484375 33.40625 48.484375 
Q 26.265625 48.484375 22.1875 42.84375 
Q 18.109375 37.203125 18.109375 27.296875 
Q 18.109375 17.390625 22.1875 11.75 
Q 26.265625 6.109375 33.40625 6.109375 
Q 40.53125 6.109375 44.609375 11.75 
Q 48.6875 17.390625 48.6875 27.296875 
z
M 18.109375 46.390625 
Q 20.953125 51.265625 25.265625 53.625 
Q 29.59375 56 35.59375 56 
Q 45.5625 56 51.78125 48.09375 
Q 58.015625 40.1875 58.015625 27.296875 
Q 58.015625 14.40625 51.78125 6.484375 
Q 45.5625 -1.421875 35.59375 -1.421875 
Q 29.59375 -1.421875 25.265625 0.953125 
Q 20.953125 3.328125 18.109375 8.203125 
L 18.109375 0 
L 9.078125 0 
L 9.078125 75.984375 
L 18.109375 75.984375 
z
" id="DejaVuSans-98"/>
      <path d="M 19.671875 64.796875 
L 19.671875 8.109375 
L 31.59375 8.109375 
Q 46.6875 8.109375 53.6875 14.9375 
Q 60.6875 21.78125 60.6875 36.53125 
Q 60.6875 51.171875 53.6875 57.984375 
Q 46.6875 64.796875 31.59375 64.796875 
z
M 9.8125 72.90625 
L 30.078125 72.90625 
Q 51.265625 72.90625 61.171875 64.09375 
Q 71.09375 55.28125 71.09375 36.53125 
Q 71.09375 17.671875 61.125 8.828125 
Q 51.171875 0 30.078125 0 
L 9.8125 0 
z
" id="DejaVuSans-68"/>
     </defs>
     <use xlink:href="#DejaVuSans-98"/>
     <use x="63.476562" xlink:href="#DejaVuSans-98"/>
     <use x="126.953125" xlink:href="#DejaVuSans-111"/>
     <use x="188.134766" xlink:href="#DejaVuSans-98"/>
     <use x="251.611328" xlink:href="#DejaVuSans-45"/>
     <use x="287.695312" xlink:href="#DejaVuSans-99"/>
     <use x="342.675781" xlink:href="#DejaVuSans-111"/>
     <use x="403.857422" xlink:href="#DejaVuSans-110"/>
     <use x="467.236328" xlink:href="#DejaVuSans-115"/>
     <use x="519.335938" xlink:href="#DejaVuSans-116"/>
     <use x="558.544922" xlink:href="#DejaVuSans-114"/>
     <use x="599.658203" xlink:href="#DejaVuSans-97"/>
     <use x="660.9375" xlink:href="#DejaVuSans-105"/>
     <use x="688.720703" xlink:href="#DejaVuSans-110"/>
     <use x="752.099609" xlink:href="#DejaVuSans-101"/>
     <use x="813.623047" xlink:href="#DejaVuSans-100"/>
     <use x="877.099609" xlink:href="#DejaVuSans-32"/>
     <use x="908.886719" xlink:href="#DejaVuSans-102"/>
     <use x="944.091797" xlink:href="#DejaVuSans-50"/>
     <use x="1007.714844" xlink:href="#DejaVuSans-50"/>
     <use x="1071.337891" xlink:href="#DejaVuSans-44"/>
     <use x="1103.125" xlink:href="#DejaVuSans-32"/>
     <use x="1134.912109" xlink:href="#DejaVuSans-102"/>
     <use x="1170.117188" xlink:href="#DejaVuSans-50"/>
     <use x="1233.740234" xlink:href="#DejaVuSans-56"/>
     <use x="1297.363281" xlink:href="#DejaVuSans-44"/>
     <use x="1329.150391" xlink:href="#DejaVuSans-32"/>
     <use x="1360.9375" xlink:href="#DejaVuSans-102"/>
     <use x="1396.142578" xlink:href="#DejaVuSans-51"/>
     <use x="1459.765625" xlink:href="#DejaVuSans-52"/>
     <use x="1523.388672" xlink:href="#DejaVuSans-44"/>
     <use x="1555.175781" xlink:href="#DejaVuSans-32"/>
     <use x="1586.962891" xlink:href="#DejaVuSans-102"/>
     <use x="1622.167969" xlink:href="#DejaVuSans-52"/>
     <use x="1685.791016" xlink:href="#DejaVuSans-48"/>
     <use x="1749.414062" xlink:href="#DejaVuSans-44"/>
     <use x="1781.201172" xlink:href="#DejaVuSans-32"/>
     <use x="1812.988281" xlink:href="#DejaVuSans-51"/>
     <use x="1876.611328" xlink:href="#DejaVuSans-45"/>
     <use x="1912.695312" xlink:href="#DejaVuSans-68"/>
    </g>
    <!-- 41 targets: 100..1e-06 -->
    <g transform="translate(60.632064 29.004495)scale(0.102 -0.102)">
     <defs>
      <path d="M 11.71875 12.40625 
L 22.015625 12.40625 
L 22.015625 0 
L 11.71875 0 
z
M 11.71875 51.703125 
L 22.015625 51.703125 
L 22.015625 39.3125 
L 11.71875 39.3125 
z
" id="DejaVuSans-58"/>
     </defs>
     <use xlink:href="#DejaVuSans-52"/>
     <use x="63.623047" xlink:href="#DejaVuSans-49"/>
     <use x="127.246094" xlink:href="#DejaVuSans-32"/>
     <use x="159.033203" xlink:href="#DejaVuSans-116"/>
     <use x="198.242188" xlink:href="#DejaVuSans-97"/>
     <use x="259.521484" xlink:href="#DejaVuSans-114"/>
     <use x="298.884766" xlink:href="#DejaVuSans-103"/>
     <use x="362.361328" xlink:href="#DejaVuSans-101"/>
     <use x="423.884766" xlink:href="#DejaVuSans-116"/>
     <use x="463.09375" xlink:href="#DejaVuSans-115"/>
     <use x="515.193359" xlink:href="#DejaVuSans-58"/>
     <use x="548.884766" xlink:href="#DejaVuSans-32"/>
     <use x="580.671875" xlink:href="#DejaVuSans-49"/>
     <use x="644.294922" xlink:href="#DejaVuSans-48"/>
     <use x="707.917969" xlink:href="#DejaVuSans-48"/>
     <use x="771.541016" xlink:href="#DejaVuSans-46"/>
     <use x="803.328125" xlink:href="#DejaVuSans-46"/>
     <use x="835.115234" xlink:href="#DejaVuSans-49"/>
     <use x="898.738281" xlink:href="#DejaVuSans-101"/>
     <use x="960.261719" xlink:href="#DejaVuSans-45"/>
     <use x="996.345703" xlink:href="#DejaVuSans-48"/>
     <use x="1059.96875" xlink:href="#DejaVuSans-54"/>
    </g>
    <!-- evals = f-evals + g-evals -->
    <g transform="translate(60.632064 40.426264)scale(0.102 -0.102)">
     <defs>
      <path d="M 10.59375 45.40625 
L 73.1875 45.40625 
L 73.1875 37.203125 
L 10.59375 37.203125 
z
M 10.59375 25.484375 
L 73.1875 25.484375 
L 73.1875 17.1875 
L 10.59375 17.1875 
z
" id="DejaVuSans-61"/>
      <path d="M 46 62.703125 
L 46 35.5 
L 73.1875 35.5 
L 73.1875 27.203125 
L 46 27.203125 
L 46 0 
L 37.796875 0 
L 37.796875 27.203125 
L 10.59375 27.203125 
L 10.59375 35.5 
L 37.796875 35.5 
L 37.796875 62.703125 
z
" id="DejaVuSans-43"/>
     </defs>
     <use xlink:href="#DejaVuSans-101"/>
     <use x="61.523438" xlink:href="#DejaVuSans-118"/>
     <use x="120.703125" xlink:href="#DejaVuSans-97"/>
     <use x="181.982422" xlink:href="#DejaVuSans-108"/>
     <use x="209.765625" xlink:href="#DejaVuSans-115"/>
     <use x="261.865234" xlink:href="#DejaVuSans-32"/>
     <use x="293.652344" xlink:href="#DejaVuSans-61"/>
     <use x="377.441406" xlink:href="#DejaVuSans-32"/>
     <use x="409.228516" xlink:href="#DejaVuSans-102"/>
     <use x="438.933594" xlink:href="#DejaVuSans-45"/>
     <use x="475.017578" xlink:href="#DejaVuSans-101"/>
     <use x="536.541016" xlink:href="#DejaVuSans-118"/>
     <use x="595.720703" xlink:href="#DejaVuSans-97"/>
     <use x="657" xlink:href="#DejaVuSans-108"/>
     <use x="684.783203" xlink:href="#DejaVuSans-115"/>
     <use x="736.882812" xlink:href="#DejaVuSans-32"/>
     <use x="768.669922" xlink:href="#DejaVuSans-43"/>
     <use x="852.458984" xlink:href="#DejaVuSans-32"/>
     <use x="884.246094" xlink:href="#DejaVuSans-103"/>
     <use x="947.722656" xlink:href="#DejaVuSans-45"/>
     <use x="983.806641" xlink:href="#DejaVuSans-101"/>
     <use x="1045.330078" xlink:href="#DejaVuSans-118"/>
     <use x="1104.509766" xlink:href="#DejaVuSans-97"/>
     <use x="1165.789062" xlink:href="#DejaVuSans-108"/>
     <use x="1193.572266" xlink:href="#DejaVuSans-115"/>
    </g>
    <!-- 15 instances -->
    <g transform="translate(60.632064 51.848032)scale(0.102 -0.102)">
     <defs>
      <path d="M 10.796875 72.90625 
L 49.515625 72.90625 
L 49.515625 64.59375 
L 19.828125 64.59375 
L 19.828125 46.734375 
Q 21.96875 47.46875 24.109375 47.828125 
Q 26.265625 48.1875 28.421875 48.1875 
Q 40.625 48.1875 47.75 41.5 
Q 54.890625 34.8125 54.890625 23.390625 
Q 54.890625 11.625 47.5625 5.09375 
Q 40.234375 -1.421875 26.90625 -1.421875 
Q 22.3125 -1.421875 17.546875 -0.640625 
Q 12.796875 0.140625 7.71875 1.703125 
L 7.71875 11.625 
Q 12.109375 9.234375 16.796875 8.0625 
Q 21.484375 6.890625 26.703125 6.890625 
Q 35.15625 6.890625 40.078125 11.328125 
Q 45.015625 15.765625 45.015625 23.390625 
Q 45.015625 31 40.078125 35.4375 
Q 35.15625 39.890625 26.703125 39.890625 
Q 22.75 39.890625 18.8125 39.015625 
Q 14.890625 38.140625 10.796875 36.28125 
z
" id="DejaVuSans-53"/>
     </defs>
     <use xlink:href="#DejaVuSans-49"/>
     <use x="63.623047" xlink:href="#DejaVuSans-53"/>
     <use x="127.246094" xlink:href="#DejaVuSans-32"/>
     <use x="159.033203" xlink:href="#DejaVuSans-105"/>
     <use x="186.816406" xlink:href="#DejaVuSans-110"/>
     <use x="250.195312" xlink:href="#DejaVuSans-115"/>
     <use x="302.294922" xlink:href="#DejaVuSans-116"/>
     <use x="341.503906" xlink:href="#DejaVuSans-97"/>
     <use x="402.783203" xlink:href="#DejaVuSans-110"/>
     <use x="466.162109" xlink:href="#DejaVuSans-99"/>
     <use x="521.142578" xlink:href="#DejaVuSans-101"/>
     <use x="582.666016" xlink:href="#DejaVuSans-115"/>
    </g>
   </g>
   <g id="text_16">
    <!-- v2.6.1.9 -->
    <g style="fill:#808080;" transform="translate(188.751637 293.943992)scale(0.1 -0.1)">
     <defs>
      <path d="M 10.984375 1.515625 
L 10.984375 10.5 
Q 14.703125 8.734375 18.5 7.8125 
Q 22.3125 6.890625 25.984375 6.890625 
Q 35.75 6.890625 40.890625 13.453125 
Q 46.046875 20.015625 46.78125 33.40625 
Q 43.953125 29.203125 39.59375 26.953125 
Q 35.25 24.703125 29.984375 24.703125 
Q 19.046875 24.703125 12.671875 31.3125 
Q 6.296875 37.9375 6.296875 49.421875 
Q 6.296875 60.640625 12.9375 67.421875 
Q 19.578125 74.21875 30.609375 74.21875 
Q 43.265625 74.21875 49.921875 64.515625 
Q 56.59375 54.828125 56.59375 36.375 
Q 56.59375 19.140625 48.40625 8.859375 
Q 40.234375 -1.421875 26.421875 -1.421875 
Q 22.703125 -1.421875 18.890625 -0.6875 
Q 15.09375 0.046875 10.984375 1.515625 
z
M 30.609375 32.421875 
Q 37.25 32.421875 41.125 36.953125 
Q 45.015625 41.5 45.015625 49.421875 
Q 45.015625 57.28125 41.125 61.84375 
Q 37.25 66.40625 30.609375 66.40625 
Q 23.96875 66.40625 20.09375 61.84375 
Q 16.21875 57.28125 16.21875 49.421875 
Q 16.21875 41.5 20.09375 36.953125 
Q 23.96875 32.421875 30.609375 32.421875 
z
" id="DejaVuSans-57"/>
     </defs>
     <use xlink:href="#DejaVuSans-118"/>
     <use x="59.179688" xlink:href="#DejaVuSans-50"/>
     <use x="122.802734" xlink:href="#DejaVuSans-46"/>
     <use x="154.589844" xlink:href="#DejaVuSans-54"/>
     <use x="218.212891" xlink:href="#DejaVuSans-46"/>
     <use x="250" xlink:href="#DejaVuSans-49"/>
     <use x="313.623047" xlink:href="#DejaVuSans-46"/>
     <use x="345.410156" xlink:href="#DejaVuSans-57"/>
    </g>
   </g>
  </g>
 </g>
 <defs>
  <clipPath id="pcd5849cabb">
   <rect height="292.032" width="303.2064" x="57.6" y="6.912"/>
  </clipPath>
 </defs>
</svg>
