<?xml version="1.0" encoding="utf-8" standalone="no"?>
<!DOCTYPE svg PUBLIC "-//W3C//DTD SVG 1.1//EN"
  "http://www.w3.org/Graphics/SVG/1.1/DTD/svg11.dtd">
<!-- Created with matplotlib (https://matplotlib.org/) -->
<svg height="345.6pt" version="1.1" viewBox="0 0 460.8 345.6" width="460.8pt" xmlns="http://www.w3.org/2000/svg" xmlns:xlink="http://www.w3.org/1999/xlink">
 <metadata>
  <rdf:RDF xmlns:cc="http://creativecommons.org/ns#" xmlns:dc="http://purl.org/dc/elements/1.1/" xmlns:rdf="http://www.w3.org/1999/02/22-rdf-syntax-ns#">
   <cc:Work>
    <dc:type rdf:resource="http://purl.org/dc/dcmitype/StillImage"/>
    <dc:date>2022-04-26T20:52:34.218213</dc:date>
    <dc:format>image/svg+xml</dc:format>
    <dc:creator>
     <cc:Agent>
      <dc:title>Matplotlib v3.3.3, https://matplotlib.org/</dc:title>
     </cc:Agent>
    </dc:creator>
   </cc:Work>
  </rdf:RDF>
 </metadata>
 <defs>
  <style type="text/css">*{stroke-linecap:butt;stroke-linejoin:round;}</style>
 </defs>
 <g id="figure_1">
  <g id="patch_1">
   <path d="M 0 345.6 
L 460.8 345.6 
L 460.8 0 
L 0 0 
z
" style="fill:#ffffff;"/>
  </g>
  <g id="axes_1">
   <g id="patch_2">
    <path d="M 57.6 298.944 
L 360.8064 298.944 
L 360.8064 6.912 
L 57.6 6.912 
z
" style="fill:#ffffff;"/>
   </g>
   <g id="matplotlib.axis_1">
    <g id="xtick_1">
     <g id="line2d_1">
      <path clip-path="url(#p87f236629c)" d="M 57.6 298.944 
L 57.6 6.912 
" style="fill:none;stroke:#b0b0b0;stroke-linecap:square;stroke-width:0.8;"/>
     </g>
     <g id="line2d_2">
      <defs>
       <path d="M 0 0 
L 0 3.5 
" id="m8b76c7bdb1" style="stroke:#000000;stroke-width:0.8;"/>
      </defs>
      <g>
       <use style="stroke:#000000;stroke-width:0.8;" x="57.6" xlink:href="#m8b76c7bdb1" y="298.944"/>
      </g>
     </g>
     <g id="text_1">
      <!-- 0 -->
      <g transform="translate(52.191875 318.861344)scale(0.17 -0.17)">
       <defs>
        <path d="M 31.78125 66.40625 
Q 24.171875 66.40625 20.328125 58.90625 
Q 16.5 51.421875 16.5 36.375 
Q 16.5 21.390625 20.328125 13.890625 
Q 24.171875 6.390625 31.78125 6.390625 
Q 39.453125 6.390625 43.28125 13.890625 
Q 47.125 21.390625 47.125 36.375 
Q 47.125 51.421875 43.28125 58.90625 
Q 39.453125 66.40625 31.78125 66.40625 
z
M 31.78125 74.21875 
Q 44.046875 74.21875 50.515625 64.515625 
Q 56.984375 54.828125 56.984375 36.375 
Q 56.984375 17.96875 50.515625 8.265625 
Q 44.046875 -1.421875 31.78125 -1.421875 
Q 19.53125 -1.421875 13.0625 8.265625 
Q 6.59375 17.96875 6.59375 36.375 
Q 6.59375 54.828125 13.0625 64.515625 
Q 19.53125 74.21875 31.78125 74.21875 
z
" id="DejaVuSans-48"/>
       </defs>
       <use xlink:href="#DejaVuSans-48"/>
      </g>
     </g>
    </g>
    <g id="xtick_2">
     <g id="line2d_3">
      <path clip-path="url(#p87f236629c)" d="M 144.2304 298.944 
L 144.2304 6.912 
" style="fill:none;stroke:#b0b0b0;stroke-linecap:square;stroke-width:0.8;"/>
     </g>
     <g id="line2d_4">
      <g>
       <use style="stroke:#000000;stroke-width:0.8;" x="144.2304" xlink:href="#m8b76c7bdb1" y="298.944"/>
      </g>
     </g>
     <g id="text_2">
      <!-- 2 -->
      <g transform="translate(138.822275 318.861344)scale(0.17 -0.17)">
       <defs>
        <path d="M 19.1875 8.296875 
L 53.609375 8.296875 
L 53.609375 0 
L 7.328125 0 
L 7.328125 8.296875 
Q 12.9375 14.109375 22.625 23.890625 
Q 32.328125 33.6875 34.8125 36.53125 
Q 39.546875 41.84375 41.421875 45.53125 
Q 43.3125 49.21875 43.3125 52.78125 
Q 43.3125 58.59375 39.234375 62.25 
Q 35.15625 65.921875 28.609375 65.921875 
Q 23.96875 65.921875 18.8125 64.3125 
Q 13.671875 62.703125 7.8125 59.421875 
L 7.8125 69.390625 
Q 13.765625 71.78125 18.9375 73 
Q 24.125 74.21875 28.421875 74.21875 
Q 39.75 74.21875 46.484375 68.546875 
Q 53.21875 62.890625 53.21875 53.421875 
Q 53.21875 48.921875 51.53125 44.890625 
Q 49.859375 40.875 45.40625 35.40625 
Q 44.1875 33.984375 37.640625 27.21875 
Q 31.109375 20.453125 19.1875 8.296875 
z
" id="DejaVuSans-50"/>
       </defs>
       <use xlink:href="#DejaVuSans-50"/>
      </g>
     </g>
    </g>
    <g id="xtick_3">
     <g id="line2d_5">
      <path clip-path="url(#p87f236629c)" d="M 230.8608 298.944 
L 230.8608 6.912 
" style="fill:none;stroke:#b0b0b0;stroke-linecap:square;stroke-width:0.8;"/>
     </g>
     <g id="line2d_6">
      <g>
       <use style="stroke:#000000;stroke-width:0.8;" x="230.8608" xlink:href="#m8b76c7bdb1" y="298.944"/>
      </g>
     </g>
     <g id="text_3">
      <!-- 4 -->
      <g transform="translate(225.452675 318.861344)scale(0.17 -0.17)">
       <defs>
        <path d="M 37.796875 64.3125 
L 12.890625 25.390625 
L 37.796875 25.390625 
z
M 35.203125 72.90625 
L 47.609375 72.90625 
L 47.609375 25.390625 
L 58.015625 25.390625 
L 58.015625 17.1875 
L 47.609375 17.1875 
L 47.609375 0 
L 37.796875 0 
L 37.796875 17.1875 
L 4.890625 17.1875 
L 4.890625 26.703125 
z
" id="DejaVuSans-52"/>
       </defs>
       <use xlink:href="#DejaVuSans-52"/>
      </g>
     </g>
    </g>
    <g id="xtick_4">
     <g id="line2d_7">
      <path clip-path="url(#p87f236629c)" d="M 317.4912 298.944 
L 317.4912 6.912 
" style="fill:none;stroke:#b0b0b0;stroke-linecap:square;stroke-width:0.8;"/>
     </g>
     <g id="line2d_8">
      <g>
       <use style="stroke:#000000;stroke-width:0.8;" x="317.4912" xlink:href="#m8b76c7bdb1" y="298.944"/>
      </g>
     </g>
     <g id="text_4">
      <!-- 6 -->
      <g transform="translate(312.083075 318.861344)scale(0.17 -0.17)">
       <defs>
        <path d="M 33.015625 40.375 
Q 26.375 40.375 22.484375 35.828125 
Q 18.609375 31.296875 18.609375 23.390625 
Q 18.609375 15.53125 22.484375 10.953125 
Q 26.375 6.390625 33.015625 6.390625 
Q 39.65625 6.390625 43.53125 10.953125 
Q 47.40625 15.53125 47.40625 23.390625 
Q 47.40625 31.296875 43.53125 35.828125 
Q 39.65625 40.375 33.015625 40.375 
z
M 52.59375 71.296875 
L 52.59375 62.3125 
Q 48.875 64.0625 45.09375 64.984375 
Q 41.3125 65.921875 37.59375 65.921875 
Q 27.828125 65.921875 22.671875 59.328125 
Q 17.53125 52.734375 16.796875 39.40625 
Q 19.671875 43.65625 24.015625 45.921875 
Q 28.375 48.1875 33.59375 48.1875 
Q 44.578125 48.1875 50.953125 41.515625 
Q 57.328125 34.859375 57.328125 23.390625 
Q 57.328125 12.15625 50.6875 5.359375 
Q 44.046875 -1.421875 33.015625 -1.421875 
Q 20.359375 -1.421875 13.671875 8.265625 
Q 6.984375 17.96875 6.984375 36.375 
Q 6.984375 53.65625 15.1875 63.9375 
Q 23.390625 74.21875 37.203125 74.21875 
Q 40.921875 74.21875 44.703125 73.484375 
Q 48.484375 72.75 52.59375 71.296875 
z
" id="DejaVuSans-54"/>
       </defs>
       <use xlink:href="#DejaVuSans-54"/>
      </g>
     </g>
    </g>
    <g id="xtick_5">
     <g id="line2d_9">
      <path clip-path="url(#p87f236629c)" d="M 100.9152 298.944 
L 100.9152 6.912 
" style="fill:none;stroke:#b0b0b0;stroke-linecap:square;stroke-width:0.8;"/>
     </g>
     <g id="line2d_10">
      <defs>
       <path d="M 0 0 
L 0 2 
" id="m45c121bd00" style="stroke:#000000;stroke-width:0.6;"/>
      </defs>
      <g>
       <use style="stroke:#000000;stroke-width:0.6;" x="100.9152" xlink:href="#m45c121bd00" y="298.944"/>
      </g>
     </g>
    </g>
    <g id="xtick_6">
     <g id="line2d_11">
      <path clip-path="url(#p87f236629c)" d="M 187.5456 298.944 
L 187.5456 6.912 
" style="fill:none;stroke:#b0b0b0;stroke-linecap:square;stroke-width:0.8;"/>
     </g>
     <g id="line2d_12">
      <g>
       <use style="stroke:#000000;stroke-width:0.6;" x="187.5456" xlink:href="#m45c121bd00" y="298.944"/>
      </g>
     </g>
    </g>
    <g id="xtick_7">
     <g id="line2d_13">
      <path clip-path="url(#p87f236629c)" d="M 274.176 298.944 
L 274.176 6.912 
" style="fill:none;stroke:#b0b0b0;stroke-linecap:square;stroke-width:0.8;"/>
     </g>
     <g id="line2d_14">
      <g>
       <use style="stroke:#000000;stroke-width:0.6;" x="274.176" xlink:href="#m45c121bd00" y="298.944"/>
      </g>
     </g>
    </g>
    <g id="xtick_8">
     <g id="line2d_15">
      <path clip-path="url(#p87f236629c)" d="M 360.8064 298.944 
L 360.8064 6.912 
" style="fill:none;stroke:#b0b0b0;stroke-linecap:square;stroke-width:0.8;"/>
     </g>
     <g id="line2d_16">
      <g>
       <use style="stroke:#000000;stroke-width:0.6;" x="360.8064" xlink:href="#m45c121bd00" y="298.944"/>
      </g>
     </g>
    </g>
    <g id="text_5">
     <!-- log10(evals / dimension) -->
     <g transform="translate(104.238825 339.314156)scale(0.17 -0.17)">
      <defs>
       <path d="M 9.421875 75.984375 
L 18.40625 75.984375 
L 18.40625 0 
L 9.421875 0 
z
" id="DejaVuSans-108"/>
       <path d="M 30.609375 48.390625 
Q 23.390625 48.390625 19.1875 42.75 
Q 14.984375 37.109375 14.984375 27.296875 
Q 14.984375 17.484375 19.15625 11.84375 
Q 23.34375 6.203125 30.609375 6.203125 
Q 37.796875 6.203125 41.984375 11.859375 
Q 46.1875 17.53125 46.1875 27.296875 
Q 46.1875 37.015625 41.984375 42.703125 
Q 37.796875 48.390625 30.609375 48.390625 
z
M 30.609375 56 
Q 42.328125 56 49.015625 48.375 
Q 55.71875 40.765625 55.71875 27.296875 
Q 55.71875 13.875 49.015625 6.21875 
Q 42.328125 -1.421875 30.609375 -1.421875 
Q 18.84375 -1.421875 12.171875 6.21875 
Q 5.515625 13.875 5.515625 27.296875 
Q 5.515625 40.765625 12.171875 48.375 
Q 18.84375 56 30.609375 56 
z
" id="DejaVuSans-111"/>
       <path d="M 45.40625 27.984375 
Q 45.40625 37.75 41.375 43.109375 
Q 37.359375 48.484375 30.078125 48.484375 
Q 22.859375 48.484375 18.828125 43.109375 
Q 14.796875 37.75 14.796875 27.984375 
Q 14.796875 18.265625 18.828125 12.890625 
Q 22.859375 7.515625 30.078125 7.515625 
Q 37.359375 7.515625 41.375 12.890625 
Q 45.40625 18.265625 45.40625 27.984375 
z
M 54.390625 6.78125 
Q 54.390625 -7.171875 48.1875 -13.984375 
Q 42 -20.796875 29.203125 -20.796875 
Q 24.46875 -20.796875 20.265625 -20.09375 
Q 16.0625 -19.390625 12.109375 -17.921875 
L 12.109375 -9.1875 
Q 16.0625 -11.328125 19.921875 -12.34375 
Q 23.78125 -13.375 27.78125 -13.375 
Q 36.625 -13.375 41.015625 -8.765625 
Q 45.40625 -4.15625 45.40625 5.171875 
L 45.40625 9.625 
Q 42.625 4.78125 38.28125 2.390625 
Q 33.9375 0 27.875 0 
Q 17.828125 0 11.671875 7.65625 
Q 5.515625 15.328125 5.515625 27.984375 
Q 5.515625 40.671875 11.671875 48.328125 
Q 17.828125 56 27.875 56 
Q 33.9375 56 38.28125 53.609375 
Q 42.625 51.21875 45.40625 46.390625 
L 45.40625 54.6875 
L 54.390625 54.6875 
z
" id="DejaVuSans-103"/>
       <path d="M 12.40625 8.296875 
L 28.515625 8.296875 
L 28.515625 63.921875 
L 10.984375 60.40625 
L 10.984375 69.390625 
L 28.421875 72.90625 
L 38.28125 72.90625 
L 38.28125 8.296875 
L 54.390625 8.296875 
L 54.390625 0 
L 12.40625 0 
z
" id="DejaVuSans-49"/>
       <path d="M 31 75.875 
Q 24.46875 64.65625 21.28125 53.65625 
Q 18.109375 42.671875 18.109375 31.390625 
Q 18.109375 20.125 21.3125 9.0625 
Q 24.515625 -2 31 -13.1875 
L 23.1875 -13.1875 
Q 15.875 -1.703125 12.234375 9.375 
Q 8.59375 20.453125 8.59375 31.390625 
Q 8.59375 42.28125 12.203125 53.3125 
Q 15.828125 64.359375 23.1875 75.875 
z
" id="DejaVuSans-40"/>
       <path d="M 56.203125 29.59375 
L 56.203125 25.203125 
L 14.890625 25.203125 
Q 15.484375 15.921875 20.484375 11.0625 
Q 25.484375 6.203125 34.421875 6.203125 
Q 39.59375 6.203125 44.453125 7.46875 
Q 49.3125 8.734375 54.109375 11.28125 
L 54.109375 2.78125 
Q 49.265625 0.734375 44.1875 -0.34375 
Q 39.109375 -1.421875 33.890625 -1.421875 
Q 20.796875 -1.421875 13.15625 6.1875 
Q 5.515625 13.8125 5.515625 26.8125 
Q 5.515625 40.234375 12.765625 48.109375 
Q 20.015625 56 32.328125 56 
Q 43.359375 56 49.78125 48.890625 
Q 56.203125 41.796875 56.203125 29.59375 
z
M 47.21875 32.234375 
Q 47.125 39.59375 43.09375 43.984375 
Q 39.0625 48.390625 32.421875 48.390625 
Q 24.90625 48.390625 20.390625 44.140625 
Q 15.875 39.890625 15.1875 32.171875 
z
" id="DejaVuSans-101"/>
       <path d="M 2.984375 54.6875 
L 12.5 54.6875 
L 29.59375 8.796875 
L 46.6875 54.6875 
L 56.203125 54.6875 
L 35.6875 0 
L 23.484375 0 
z
" id="DejaVuSans-118"/>
       <path d="M 34.28125 27.484375 
Q 23.390625 27.484375 19.1875 25 
Q 14.984375 22.515625 14.984375 16.5 
Q 14.984375 11.71875 18.140625 8.90625 
Q 21.296875 6.109375 26.703125 6.109375 
Q 34.1875 6.109375 38.703125 11.40625 
Q 43.21875 16.703125 43.21875 25.484375 
L 43.21875 27.484375 
z
M 52.203125 31.203125 
L 52.203125 0 
L 43.21875 0 
L 43.21875 8.296875 
Q 40.140625 3.328125 35.546875 0.953125 
Q 30.953125 -1.421875 24.3125 -1.421875 
Q 15.921875 -1.421875 10.953125 3.296875 
Q 6 8.015625 6 15.921875 
Q 6 25.140625 12.171875 29.828125 
Q 18.359375 34.515625 30.609375 34.515625 
L 43.21875 34.515625 
L 43.21875 35.40625 
Q 43.21875 41.609375 39.140625 45 
Q 35.0625 48.390625 27.6875 48.390625 
Q 23 48.390625 18.546875 47.265625 
Q 14.109375 46.140625 10.015625 43.890625 
L 10.015625 52.203125 
Q 14.9375 54.109375 19.578125 55.046875 
Q 24.21875 56 28.609375 56 
Q 40.484375 56 46.34375 49.84375 
Q 52.203125 43.703125 52.203125 31.203125 
z
" id="DejaVuSans-97"/>
       <path d="M 44.28125 53.078125 
L 44.28125 44.578125 
Q 40.484375 46.53125 36.375 47.5 
Q 32.28125 48.484375 27.875 48.484375 
Q 21.1875 48.484375 17.84375 46.4375 
Q 14.5 44.390625 14.5 40.28125 
Q 14.5 37.15625 16.890625 35.375 
Q 19.28125 33.59375 26.515625 31.984375 
L 29.59375 31.296875 
Q 39.15625 29.25 43.1875 25.515625 
Q 47.21875 21.78125 47.21875 15.09375 
Q 47.21875 7.46875 41.1875 3.015625 
Q 35.15625 -1.421875 24.609375 -1.421875 
Q 20.21875 -1.421875 15.453125 -0.5625 
Q 10.6875 0.296875 5.421875 2 
L 5.421875 11.28125 
Q 10.40625 8.6875 15.234375 7.390625 
Q 20.0625 6.109375 24.8125 6.109375 
Q 31.15625 6.109375 34.5625 8.28125 
Q 37.984375 10.453125 37.984375 14.40625 
Q 37.984375 18.0625 35.515625 20.015625 
Q 33.0625 21.96875 24.703125 23.78125 
L 21.578125 24.515625 
Q 13.234375 26.265625 9.515625 29.90625 
Q 5.8125 33.546875 5.8125 39.890625 
Q 5.8125 47.609375 11.28125 51.796875 
Q 16.75 56 26.8125 56 
Q 31.78125 56 36.171875 55.265625 
Q 40.578125 54.546875 44.28125 53.078125 
z
" id="DejaVuSans-115"/>
       <path id="DejaVuSans-32"/>
       <path d="M 25.390625 72.90625 
L 33.6875 72.90625 
L 8.296875 -9.28125 
L 0 -9.28125 
z
" id="DejaVuSans-47"/>
       <path d="M 45.40625 46.390625 
L 45.40625 75.984375 
L 54.390625 75.984375 
L 54.390625 0 
L 45.40625 0 
L 45.40625 8.203125 
Q 42.578125 3.328125 38.25 0.953125 
Q 33.9375 -1.421875 27.875 -1.421875 
Q 17.96875 -1.421875 11.734375 6.484375 
Q 5.515625 14.40625 5.515625 27.296875 
Q 5.515625 40.1875 11.734375 48.09375 
Q 17.96875 56 27.875 56 
Q 33.9375 56 38.25 53.625 
Q 42.578125 51.265625 45.40625 46.390625 
z
M 14.796875 27.296875 
Q 14.796875 17.390625 18.875 11.75 
Q 22.953125 6.109375 30.078125 6.109375 
Q 37.203125 6.109375 41.296875 11.75 
Q 45.40625 17.390625 45.40625 27.296875 
Q 45.40625 37.203125 41.296875 42.84375 
Q 37.203125 48.484375 30.078125 48.484375 
Q 22.953125 48.484375 18.875 42.84375 
Q 14.796875 37.203125 14.796875 27.296875 
z
" id="DejaVuSans-100"/>
       <path d="M 9.421875 54.6875 
L 18.40625 54.6875 
L 18.40625 0 
L 9.421875 0 
z
M 9.421875 75.984375 
L 18.40625 75.984375 
L 18.40625 64.59375 
L 9.421875 64.59375 
z
" id="DejaVuSans-105"/>
       <path d="M 52 44.1875 
Q 55.375 50.25 60.0625 53.125 
Q 64.75 56 71.09375 56 
Q 79.640625 56 84.28125 50.015625 
Q 88.921875 44.046875 88.921875 33.015625 
L 88.921875 0 
L 79.890625 0 
L 79.890625 32.71875 
Q 79.890625 40.578125 77.09375 44.375 
Q 74.3125 48.1875 68.609375 48.1875 
Q 61.625 48.1875 57.5625 43.546875 
Q 53.515625 38.921875 53.515625 30.90625 
L 53.515625 0 
L 44.484375 0 
L 44.484375 32.71875 
Q 44.484375 40.625 41.703125 44.40625 
Q 38.921875 48.1875 33.109375 48.1875 
Q 26.21875 48.1875 22.15625 43.53125 
Q 18.109375 38.875 18.109375 30.90625 
L 18.109375 0 
L 9.078125 0 
L 9.078125 54.6875 
L 18.109375 54.6875 
L 18.109375 46.1875 
Q 21.1875 51.21875 25.484375 53.609375 
Q 29.78125 56 35.6875 56 
Q 41.65625 56 45.828125 52.96875 
Q 50 49.953125 52 44.1875 
z
" id="DejaVuSans-109"/>
       <path d="M 54.890625 33.015625 
L 54.890625 0 
L 45.90625 0 
L 45.90625 32.71875 
Q 45.90625 40.484375 42.875 44.328125 
Q 39.84375 48.1875 33.796875 48.1875 
Q 26.515625 48.1875 22.3125 43.546875 
Q 18.109375 38.921875 18.109375 30.90625 
L 18.109375 0 
L 9.078125 0 
L 9.078125 54.6875 
L 18.109375 54.6875 
L 18.109375 46.1875 
Q 21.34375 51.125 25.703125 53.5625 
Q 30.078125 56 35.796875 56 
Q 45.21875 56 50.046875 50.171875 
Q 54.890625 44.34375 54.890625 33.015625 
z
" id="DejaVuSans-110"/>
       <path d="M 8.015625 75.875 
L 15.828125 75.875 
Q 23.140625 64.359375 26.78125 53.3125 
Q 30.421875 42.28125 30.421875 31.390625 
Q 30.421875 20.453125 26.78125 9.375 
Q 23.140625 -1.703125 15.828125 -13.1875 
L 8.015625 -13.1875 
Q 14.5 -2 17.703125 9.0625 
Q 20.90625 20.125 20.90625 31.390625 
Q 20.90625 42.671875 17.703125 53.65625 
Q 14.5 64.65625 8.015625 75.875 
z
" id="DejaVuSans-41"/>
      </defs>
      <use xlink:href="#DejaVuSans-108"/>
      <use x="27.783203" xlink:href="#DejaVuSans-111"/>
      <use x="88.964844" xlink:href="#DejaVuSans-103"/>
      <use x="152.441406" xlink:href="#DejaVuSans-49"/>
      <use x="216.064453" xlink:href="#DejaVuSans-48"/>
      <use x="279.6875" xlink:href="#DejaVuSans-40"/>
      <use x="318.701172" xlink:href="#DejaVuSans-101"/>
      <use x="380.224609" xlink:href="#DejaVuSans-118"/>
      <use x="439.404297" xlink:href="#DejaVuSans-97"/>
      <use x="500.683594" xlink:href="#DejaVuSans-108"/>
      <use x="528.466797" xlink:href="#DejaVuSans-115"/>
      <use x="580.566406" xlink:href="#DejaVuSans-32"/>
      <use x="612.353516" xlink:href="#DejaVuSans-47"/>
      <use x="646.044922" xlink:href="#DejaVuSans-32"/>
      <use x="677.832031" xlink:href="#DejaVuSans-100"/>
      <use x="741.308594" xlink:href="#DejaVuSans-105"/>
      <use x="769.091797" xlink:href="#DejaVuSans-109"/>
      <use x="866.503906" xlink:href="#DejaVuSans-101"/>
      <use x="928.027344" xlink:href="#DejaVuSans-110"/>
      <use x="991.40625" xlink:href="#DejaVuSans-115"/>
      <use x="1043.505859" xlink:href="#DejaVuSans-105"/>
      <use x="1071.289062" xlink:href="#DejaVuSans-111"/>
      <use x="1132.470703" xlink:href="#DejaVuSans-110"/>
      <use x="1195.849609" xlink:href="#DejaVuSans-41"/>
     </g>
    </g>
   </g>
   <g id="matplotlib.axis_2">
    <g id="ytick_1">
     <g id="line2d_17">
      <path clip-path="url(#p87f236629c)" d="M 57.6 298.944 
L 360.8064 298.944 
" style="fill:none;stroke:#b0b0b0;stroke-linecap:square;stroke-width:0.8;"/>
     </g>
     <g id="line2d_18">
      <defs>
       <path d="M 0 0 
L -3.5 0 
" id="me8da38324e" style="stroke:#000000;stroke-width:0.8;"/>
      </defs>
      <g>
       <use style="stroke:#000000;stroke-width:0.8;" x="57.6" xlink:href="#me8da38324e" y="298.944"/>
      </g>
     </g>
     <g id="text_6">
      <!-- 0.0 -->
      <g transform="translate(25.155 305.02275)scale(0.16 -0.16)">
       <defs>
        <path d="M 10.6875 12.40625 
L 21 12.40625 
L 21 0 
L 10.6875 0 
z
" id="DejaVuSans-46"/>
       </defs>
       <use xlink:href="#DejaVuSans-48"/>
       <use x="63.623047" xlink:href="#DejaVuSans-46"/>
       <use x="95.410156" xlink:href="#DejaVuSans-48"/>
      </g>
     </g>
    </g>
    <g id="ytick_2">
     <g id="line2d_19">
      <path clip-path="url(#p87f236629c)" d="M 57.6 240.5376 
L 360.8064 240.5376 
" style="fill:none;stroke:#b0b0b0;stroke-linecap:square;stroke-width:0.8;"/>
     </g>
     <g id="line2d_20">
      <g>
       <use style="stroke:#000000;stroke-width:0.8;" x="57.6" xlink:href="#me8da38324e" y="240.5376"/>
      </g>
     </g>
     <g id="text_7">
      <!-- 0.2 -->
      <g transform="translate(25.155 246.61635)scale(0.16 -0.16)">
       <use xlink:href="#DejaVuSans-48"/>
       <use x="63.623047" xlink:href="#DejaVuSans-46"/>
       <use x="95.410156" xlink:href="#DejaVuSans-50"/>
      </g>
     </g>
    </g>
    <g id="ytick_3">
     <g id="line2d_21">
      <path clip-path="url(#p87f236629c)" d="M 57.6 182.1312 
L 360.8064 182.1312 
" style="fill:none;stroke:#b0b0b0;stroke-linecap:square;stroke-width:0.8;"/>
     </g>
     <g id="line2d_22">
      <g>
       <use style="stroke:#000000;stroke-width:0.8;" x="57.6" xlink:href="#me8da38324e" y="182.1312"/>
      </g>
     </g>
     <g id="text_8">
      <!-- 0.4 -->
      <g transform="translate(25.155 188.20995)scale(0.16 -0.16)">
       <use xlink:href="#DejaVuSans-48"/>
       <use x="63.623047" xlink:href="#DejaVuSans-46"/>
       <use x="95.410156" xlink:href="#DejaVuSans-52"/>
      </g>
     </g>
    </g>
    <g id="ytick_4">
     <g id="line2d_23">
      <path clip-path="url(#p87f236629c)" d="M 57.6 123.7248 
L 360.8064 123.7248 
" style="fill:none;stroke:#b0b0b0;stroke-linecap:square;stroke-width:0.8;"/>
     </g>
     <g id="line2d_24">
      <g>
       <use style="stroke:#000000;stroke-width:0.8;" x="57.6" xlink:href="#me8da38324e" y="123.7248"/>
      </g>
     </g>
     <g id="text_9">
      <!-- 0.6 -->
      <g transform="translate(25.155 129.80355)scale(0.16 -0.16)">
       <use xlink:href="#DejaVuSans-48"/>
       <use x="63.623047" xlink:href="#DejaVuSans-46"/>
       <use x="95.410156" xlink:href="#DejaVuSans-54"/>
      </g>
     </g>
    </g>
    <g id="ytick_5">
     <g id="line2d_25">
      <path clip-path="url(#p87f236629c)" d="M 57.6 65.3184 
L 360.8064 65.3184 
" style="fill:none;stroke:#b0b0b0;stroke-linecap:square;stroke-width:0.8;"/>
     </g>
     <g id="line2d_26">
      <g>
       <use style="stroke:#000000;stroke-width:0.8;" x="57.6" xlink:href="#me8da38324e" y="65.3184"/>
      </g>
     </g>
     <g id="text_10">
      <!-- 0.8 -->
      <g transform="translate(25.155 71.39715)scale(0.16 -0.16)">
       <defs>
        <path d="M 31.78125 34.625 
Q 24.75 34.625 20.71875 30.859375 
Q 16.703125 27.09375 16.703125 20.515625 
Q 16.703125 13.921875 20.71875 10.15625 
Q 24.75 6.390625 31.78125 6.390625 
Q 38.8125 6.390625 42.859375 10.171875 
Q 46.921875 13.96875 46.921875 20.515625 
Q 46.921875 27.09375 42.890625 30.859375 
Q 38.875 34.625 31.78125 34.625 
z
M 21.921875 38.8125 
Q 15.578125 40.375 12.03125 44.71875 
Q 8.5 49.078125 8.5 55.328125 
Q 8.5 64.0625 14.71875 69.140625 
Q 20.953125 74.21875 31.78125 74.21875 
Q 42.671875 74.21875 48.875 69.140625 
Q 55.078125 64.0625 55.078125 55.328125 
Q 55.078125 49.078125 51.53125 44.71875 
Q 48 40.375 41.703125 38.8125 
Q 48.828125 37.15625 52.796875 32.3125 
Q 56.78125 27.484375 56.78125 20.515625 
Q 56.78125 9.90625 50.3125 4.234375 
Q 43.84375 -1.421875 31.78125 -1.421875 
Q 19.734375 -1.421875 13.25 4.234375 
Q 6.78125 9.90625 6.78125 20.515625 
Q 6.78125 27.484375 10.78125 32.3125 
Q 14.796875 37.15625 21.921875 38.8125 
z
M 18.3125 54.390625 
Q 18.3125 48.734375 21.84375 45.5625 
Q 25.390625 42.390625 31.78125 42.390625 
Q 38.140625 42.390625 41.71875 45.5625 
Q 45.3125 48.734375 45.3125 54.390625 
Q 45.3125 60.0625 41.71875 63.234375 
Q 38.140625 66.40625 31.78125 66.40625 
Q 25.390625 66.40625 21.84375 63.234375 
Q 18.3125 60.0625 18.3125 54.390625 
z
" id="DejaVuSans-56"/>
       </defs>
       <use xlink:href="#DejaVuSans-48"/>
       <use x="63.623047" xlink:href="#DejaVuSans-46"/>
       <use x="95.410156" xlink:href="#DejaVuSans-56"/>
      </g>
     </g>
    </g>
    <g id="ytick_6">
     <g id="line2d_27">
      <path clip-path="url(#p87f236629c)" d="M 57.6 6.912 
L 360.8064 6.912 
" style="fill:none;stroke:#b0b0b0;stroke-linecap:square;stroke-width:0.8;"/>
     </g>
     <g id="line2d_28">
      <g>
       <use style="stroke:#000000;stroke-width:0.8;" x="57.6" xlink:href="#me8da38324e" y="6.912"/>
      </g>
     </g>
     <g id="text_11">
      <!-- 1.0 -->
      <g transform="translate(25.155 12.99075)scale(0.16 -0.16)">
       <use xlink:href="#DejaVuSans-49"/>
       <use x="63.623047" xlink:href="#DejaVuSans-46"/>
       <use x="95.410156" xlink:href="#DejaVuSans-48"/>
      </g>
     </g>
    </g>
    <g id="text_12">
     <!-- Fraction of function,target pairs -->
     <g transform="translate(17.619531 287.313)rotate(-90)scale(0.17 -0.17)">
      <defs>
       <path d="M 9.8125 72.90625 
L 51.703125 72.90625 
L 51.703125 64.59375 
L 19.671875 64.59375 
L 19.671875 43.109375 
L 48.578125 43.109375 
L 48.578125 34.8125 
L 19.671875 34.8125 
L 19.671875 0 
L 9.8125 0 
z
" id="DejaVuSans-70"/>
       <path d="M 41.109375 46.296875 
Q 39.59375 47.171875 37.8125 47.578125 
Q 36.03125 48 33.890625 48 
Q 26.265625 48 22.1875 43.046875 
Q 18.109375 38.09375 18.109375 28.8125 
L 18.109375 0 
L 9.078125 0 
L 9.078125 54.6875 
L 18.109375 54.6875 
L 18.109375 46.1875 
Q 20.953125 51.171875 25.484375 53.578125 
Q 30.03125 56 36.53125 56 
Q 37.453125 56 38.578125 55.875 
Q 39.703125 55.765625 41.0625 55.515625 
z
" id="DejaVuSans-114"/>
       <path d="M 48.78125 52.59375 
L 48.78125 44.1875 
Q 44.96875 46.296875 41.140625 47.34375 
Q 37.3125 48.390625 33.40625 48.390625 
Q 24.65625 48.390625 19.8125 42.84375 
Q 14.984375 37.3125 14.984375 27.296875 
Q 14.984375 17.28125 19.8125 11.734375 
Q 24.65625 6.203125 33.40625 6.203125 
Q 37.3125 6.203125 41.140625 7.25 
Q 44.96875 8.296875 48.78125 10.40625 
L 48.78125 2.09375 
Q 45.015625 0.34375 40.984375 -0.53125 
Q 36.96875 -1.421875 32.421875 -1.421875 
Q 20.0625 -1.421875 12.78125 6.34375 
Q 5.515625 14.109375 5.515625 27.296875 
Q 5.515625 40.671875 12.859375 48.328125 
Q 20.21875 56 33.015625 56 
Q 37.15625 56 41.109375 55.140625 
Q 45.0625 54.296875 48.78125 52.59375 
z
" id="DejaVuSans-99"/>
       <path d="M 18.3125 70.21875 
L 18.3125 54.6875 
L 36.8125 54.6875 
L 36.8125 47.703125 
L 18.3125 47.703125 
L 18.3125 18.015625 
Q 18.3125 11.328125 20.140625 9.421875 
Q 21.96875 7.515625 27.59375 7.515625 
L 36.8125 7.515625 
L 36.8125 0 
L 27.59375 0 
Q 17.1875 0 13.234375 3.875 
Q 9.28125 7.765625 9.28125 18.015625 
L 9.28125 47.703125 
L 2.6875 47.703125 
L 2.6875 54.6875 
L 9.28125 54.6875 
L 9.28125 70.21875 
z
" id="DejaVuSans-116"/>
       <path d="M 37.109375 75.984375 
L 37.109375 68.5 
L 28.515625 68.5 
Q 23.6875 68.5 21.796875 66.546875 
Q 19.921875 64.59375 19.921875 59.515625 
L 19.921875 54.6875 
L 34.71875 54.6875 
L 34.71875 47.703125 
L 19.921875 47.703125 
L 19.921875 0 
L 10.890625 0 
L 10.890625 47.703125 
L 2.296875 47.703125 
L 2.296875 54.6875 
L 10.890625 54.6875 
L 10.890625 58.5 
Q 10.890625 67.625 15.140625 71.796875 
Q 19.390625 75.984375 28.609375 75.984375 
z
" id="DejaVuSans-102"/>
       <path d="M 8.5 21.578125 
L 8.5 54.6875 
L 17.484375 54.6875 
L 17.484375 21.921875 
Q 17.484375 14.15625 20.5 10.265625 
Q 23.53125 6.390625 29.59375 6.390625 
Q 36.859375 6.390625 41.078125 11.03125 
Q 45.3125 15.671875 45.3125 23.6875 
L 45.3125 54.6875 
L 54.296875 54.6875 
L 54.296875 0 
L 45.3125 0 
L 45.3125 8.40625 
Q 42.046875 3.421875 37.71875 1 
Q 33.40625 -1.421875 27.6875 -1.421875 
Q 18.265625 -1.421875 13.375 4.4375 
Q 8.5 10.296875 8.5 21.578125 
z
M 31.109375 56 
z
" id="DejaVuSans-117"/>
       <path d="M 11.71875 12.40625 
L 22.015625 12.40625 
L 22.015625 4 
L 14.015625 -11.625 
L 7.71875 -11.625 
L 11.71875 4 
z
" id="DejaVuSans-44"/>
       <path d="M 18.109375 8.203125 
L 18.109375 -20.796875 
L 9.078125 -20.796875 
L 9.078125 54.6875 
L 18.109375 54.6875 
L 18.109375 46.390625 
Q 20.953125 51.265625 25.265625 53.625 
Q 29.59375 56 35.59375 56 
Q 45.5625 56 51.78125 48.09375 
Q 58.015625 40.1875 58.015625 27.296875 
Q 58.015625 14.40625 51.78125 6.484375 
Q 45.5625 -1.421875 35.59375 -1.421875 
Q 29.59375 -1.421875 25.265625 0.953125 
Q 20.953125 3.328125 18.109375 8.203125 
z
M 48.6875 27.296875 
Q 48.6875 37.203125 44.609375 42.84375 
Q 40.53125 48.484375 33.40625 48.484375 
Q 26.265625 48.484375 22.1875 42.84375 
Q 18.109375 37.203125 18.109375 27.296875 
Q 18.109375 17.390625 22.1875 11.75 
Q 26.265625 6.109375 33.40625 6.109375 
Q 40.53125 6.109375 44.609375 11.75 
Q 48.6875 17.390625 48.6875 27.296875 
z
" id="DejaVuSans-112"/>
      </defs>
      <use xlink:href="#DejaVuSans-70"/>
      <use x="50.269531" xlink:href="#DejaVuSans-114"/>
      <use x="91.382812" xlink:href="#DejaVuSans-97"/>
      <use x="152.662109" xlink:href="#DejaVuSans-99"/>
      <use x="207.642578" xlink:href="#DejaVuSans-116"/>
      <use x="246.851562" xlink:href="#DejaVuSans-105"/>
      <use x="274.634766" xlink:href="#DejaVuSans-111"/>
      <use x="335.816406" xlink:href="#DejaVuSans-110"/>
      <use x="399.195312" xlink:href="#DejaVuSans-32"/>
      <use x="430.982422" xlink:href="#DejaVuSans-111"/>
      <use x="492.164062" xlink:href="#DejaVuSans-102"/>
      <use x="527.369141" xlink:href="#DejaVuSans-32"/>
      <use x="559.15625" xlink:href="#DejaVuSans-102"/>
      <use x="594.361328" xlink:href="#DejaVuSans-117"/>
      <use x="657.740234" xlink:href="#DejaVuSans-110"/>
      <use x="721.119141" xlink:href="#DejaVuSans-99"/>
      <use x="776.099609" xlink:href="#DejaVuSans-116"/>
      <use x="815.308594" xlink:href="#DejaVuSans-105"/>
      <use x="843.091797" xlink:href="#DejaVuSans-111"/>
      <use x="904.273438" xlink:href="#DejaVuSans-110"/>
      <use x="967.652344" xlink:href="#DejaVuSans-44"/>
      <use x="999.439453" xlink:href="#DejaVuSans-116"/>
      <use x="1038.648438" xlink:href="#DejaVuSans-97"/>
      <use x="1099.927734" xlink:href="#DejaVuSans-114"/>
      <use x="1139.291016" xlink:href="#DejaVuSans-103"/>
      <use x="1202.767578" xlink:href="#DejaVuSans-101"/>
      <use x="1264.291016" xlink:href="#DejaVuSans-116"/>
      <use x="1303.5" xlink:href="#DejaVuSans-32"/>
      <use x="1335.287109" xlink:href="#DejaVuSans-112"/>
      <use x="1398.763672" xlink:href="#DejaVuSans-97"/>
      <use x="1460.042969" xlink:href="#DejaVuSans-105"/>
      <use x="1487.826172" xlink:href="#DejaVuSans-114"/>
      <use x="1528.939453" xlink:href="#DejaVuSans-115"/>
     </g>
    </g>
   </g>
   <g id="line2d_29">
    <defs>
     <path d="M 0 1.5 
C 0.397805 1.5 0.77937 1.341951 1.06066 1.06066 
C 1.341951 0.77937 1.5 0.397805 1.5 0 
C 1.5 -0.397805 1.341951 -0.77937 1.06066 -1.06066 
C 0.77937 -1.341951 0.397805 -1.5 0 -1.5 
C -0.397805 -1.5 -0.77937 -1.341951 -1.06066 -1.06066 
C -1.341951 -0.77937 -1.5 -0.397805 -1.5 0 
C -1.5 0.397805 -1.341951 0.77937 -1.06066 1.06066 
C -0.77937 1.341951 -0.397805 1.5 0 1.5 
z
" id="m5c0495a67e" style="stroke:#000080;"/>
    </defs>
    <g>
     <use style="fill:#000080;stroke:#000080;" x="275.756362" xlink:href="#m5c0495a67e" y="82.887805"/>
     <use style="fill:#000080;stroke:#000080;" x="275.756362" xlink:href="#m5c0495a67e" y="82.887805"/>
    </g>
   </g>
   <g id="line2d_30">
    <path d="M 128.484801 298.944 
L 128.484801 298.785717 
L 136.44239 298.785717 
L 136.44239 298.627434 
L 143.364242 298.627434 
L 143.364242 298.469151 
L 145.62583 298.469151 
L 145.62583 298.310868 
L 146.843174 298.310868 
L 146.843174 298.152585 
L 147.955668 298.152585 
L 148.017294 297.83602 
L 149.006027 297.83602 
L 149.006027 297.677737 
L 149.151403 297.677737 
L 149.151403 297.519454 
L 149.381693 297.519454 
L 149.381693 297.361171 
L 149.495789 297.361171 
L 149.580909 297.044605 
L 149.778038 297.044605 
L 149.778038 296.886322 
L 150.11124 296.886322 
L 150.11124 296.728039 
L 150.357325 296.728039 
L 150.357325 296.569756 
L 150.866501 296.569756 
L 150.866501 296.411473 
L 151.490576 296.411473 
L 151.490576 296.25319 
L 151.694084 296.25319 
L 151.694084 296.094907 
L 151.97036 296.094907 
L 152.069827 295.778341 
L 152.51103 295.778341 
L 152.51103 295.620059 
L 152.91843 295.620059 
L 152.942122 295.14521 
L 153.107137 295.14521 
L 153.107137 294.670361 
L 153.224124 294.670361 
L 153.224124 294.353795 
L 153.570784 294.353795 
L 153.570784 294.195512 
L 153.843585 294.195512 
L 153.843585 294.037229 
L 153.956095 294.037229 
L 154.000911 293.720663 
L 154.552285 293.720663 
L 154.552285 293.56238 
L 154.682245 293.56238 
L 154.703817 293.245815 
L 154.811312 293.245815 
L 154.811312 292.770966 
L 154.960781 292.770966 
L 154.982037 292.4544 
L 155.298028 292.4544 
L 155.381403 292.137834 
L 155.422953 292.137834 
L 155.422953 291.979551 
L 155.567658 291.979551 
L 155.567658 291.821268 
L 155.690811 291.821268 
L 155.752086 291.188137 
L 155.97507 291.188137 
L 156.015331 289.76359 
L 156.215349 289.76359 
L 156.215349 289.605307 
L 156.354107 289.605307 
L 156.354107 289.447024 
L 156.550574 289.447024 
L 156.648044 289.130459 
L 156.84148 289.130459 
L 156.84148 288.972176 
L 156.956595 288.972176 
L 157.051988 288.497327 
L 157.184731 288.497327 
L 157.222487 288.022478 
L 157.354037 288.022478 
L 157.447441 287.547629 
L 157.669736 287.547629 
L 157.706532 287.231063 
L 157.798206 287.231063 
L 157.889436 286.914498 
L 157.998331 286.914498 
L 158.016419 286.597932 
L 158.1605 286.597932 
L 158.267842 285.9648 
L 158.356828 285.9648 
L 158.392304 285.331668 
L 158.58624 285.331668 
L 158.656269 284.698537 
L 158.79555 284.698537 
L 158.79555 284.540254 
L 158.933807 284.540254 
L 158.951018 283.907122 
L 159.24122 283.907122 
L 159.275069 283.590556 
L 159.460157 283.590556 
L 159.460157 283.432273 
L 159.61025 283.432273 
L 159.660016 283.115707 
L 159.759155 283.115707 
L 159.759155 282.957424 
L 159.874161 282.957424 
L 159.874161 282.799141 
L 160.037244 282.799141 
L 160.13442 282.482576 
L 160.150567 282.482576 
L 160.150567 282.16601 
L 160.407056 282.16601 
L 160.486497 281.691161 
L 160.565603 281.691161 
L 160.660094 281.058029 
L 160.800947 281.058029 
L 160.894266 280.424898 
L 160.97168 280.424898 
L 161.048777 279.950049 
L 161.171478 279.950049 
L 161.278189 278.842068 
L 161.323737 278.842068 
L 161.399407 278.36722 
L 161.654432 278.36722 
L 161.654432 278.208937 
L 161.847145 278.208937 
L 161.861887 277.734088 
L 162.008681 277.734088 
L 162.11076 276.942673 
L 162.154339 276.942673 
L 162.226747 276.626107 
L 162.356383 276.626107 
L 162.399397 275.992976 
L 162.655437 275.992976 
L 162.754075 274.568429 
L 162.866174 274.568429 
L 162.963715 273.777015 
L 163.005365 273.777015 
L 163.088387 273.143883 
L 163.143533 273.143883 
L 163.198517 272.510751 
L 163.498092 272.510751 
L 163.498092 272.352468 
L 163.766354 272.352468 
L 163.85935 271.719337 
L 164.122545 271.719337 
L 164.2268 271.402771 
L 164.382108 271.402771 
L 164.484939 270.611356 
L 164.536144 270.611356 
L 164.638138 270.136507 
L 164.701605 270.136507 
L 164.802709 269.661659 
L 164.8279 269.661659 
L 164.8279 269.503376 
L 165.015767 269.503376 
L 165.028225 269.028527 
L 165.312505 269.028527 
L 165.410386 268.395395 
L 165.471304 268.395395 
L 165.55626 267.129132 
L 165.604634 267.129132 
L 165.676963 266.812566 
L 165.820792 266.812566 
L 165.916071 266.496 
L 165.939815 266.496 
L 165.999046 265.862868 
L 166.069877 265.862868 
L 166.140442 265.38802 
L 166.187339 265.38802 
L 166.292432 264.913171 
L 166.315707 264.913171 
L 166.315707 264.754888 
L 166.454752 264.754888 
L 166.523891 264.280039 
L 166.604233 264.280039 
L 166.695635 263.646907 
L 166.786594 263.646907 
L 166.786594 263.488624 
L 166.944723 263.488624 
L 167.034489 262.69721 
L 167.056864 262.69721 
L 167.134966 262.222361 
L 167.201654 262.222361 
L 167.223831 261.747512 
L 167.345339 261.747512 
L 167.411287 261.11438 
L 167.498859 261.11438 
L 167.498859 260.956098 
L 167.6403 260.956098 
L 167.705223 260.322966 
L 168.026521 260.322966 
L 168.100708 259.848117 
L 168.248209 259.848117 
L 168.269186 259.531551 
L 168.404973 259.531551 
L 168.404973 259.373268 
L 168.519108 259.373268 
L 168.611979 258.740137 
L 168.704395 258.740137 
L 168.786162 258.107005 
L 168.826913 258.107005 
L 168.887874 257.157307 
L 168.938524 257.157307 
L 168.968849 256.524176 
L 169.059531 256.524176 
L 169.15978 255.891044 
L 169.209704 255.891044 
L 169.299236 255.416195 
L 169.328985 255.416195 
L 169.417952 254.941346 
L 169.447515 254.941346 
L 169.467197 254.62478 
L 169.565302 254.62478 
L 169.575085 254.308215 
L 169.682356 254.308215 
L 169.75999 253.833366 
L 169.895083 253.833366 
L 169.923905 253.5168 
L 170.010109 253.5168 
L 170.10543 252.883668 
L 170.162392 252.883668 
L 170.219181 251.933971 
L 170.322852 251.933971 
L 170.369787 251.142556 
L 170.463308 251.142556 
L 170.463308 250.984273 
L 170.621233 250.984273 
L 170.713514 250.034576 
L 170.768667 250.034576 
L 170.796182 249.71801 
L 170.887612 249.71801 
L 170.996743 248.13518 
L 171.023928 248.13518 
L 171.051073 247.818615 
L 171.177235 247.818615 
L 171.20416 247.343766 
L 171.329302 247.343766 
L 171.427048 246.868917 
L 171.462466 246.868917 
L 171.533103 246.077502 
L 171.577117 246.077502 
L 171.621029 245.444371 
L 171.856394 245.444371 
L 171.942824 244.811239 
L 172.037442 244.811239 
L 172.131585 243.386693 
L 172.174222 243.386693 
L 172.267686 242.278712 
L 172.293095 242.278712 
L 172.402808 241.487298 
L 172.436438 241.487298 
L 172.545321 241.012449 
L 172.587032 241.012449 
L 172.661879 240.695883 
L 172.777719 240.695883 
L 172.88465 240.379317 
L 172.958324 240.379317 
L 173.05611 239.746185 
L 173.177632 239.746185 
L 173.177632 239.587902 
L 173.306396 239.587902 
L 173.306396 239.271337 
L 173.442249 239.271337 
L 173.505842 238.479922 
L 173.553396 238.479922 
L 173.656019 237.530224 
L 173.718895 237.530224 
L 173.828424 236.105678 
L 173.836223 236.105678 
L 173.8985 235.472546 
L 174.006991 235.472546 
L 174.006991 235.314263 
L 174.176223 235.314263 
L 174.222115 234.839415 
L 174.321163 234.839415 
L 174.397001 234.206283 
L 174.487605 234.206283 
L 174.562776 232.306888 
L 174.600249 232.306888 
L 174.660051 231.832039 
L 174.719664 231.832039 
L 174.786503 230.565776 
L 174.838326 230.565776 
L 174.948896 229.932644 
L 174.985608 229.932644 
L 175.0442 229.457795 
L 175.109898 229.457795 
L 175.19714 228.349815 
L 175.262307 228.349815 
L 175.276758 227.874966 
L 175.384788 227.874966 
L 175.485059 227.083551 
L 175.556356 227.083551 
L 175.648639 225.975571 
L 175.71932 225.975571 
L 175.782706 225.342439 
L 175.866889 225.342439 
L 175.971592 224.709307 
L 176.006364 224.709307 
L 176.103385 223.284761 
L 176.137914 223.284761 
L 176.227395 221.860215 
L 176.357413 221.860215 
L 176.452644 221.0688 
L 176.50008 221.0688 
L 176.533889 220.593951 
L 176.668523 220.593951 
L 176.748842 219.802537 
L 176.808858 219.802537 
L 176.875318 219.169405 
L 176.954762 219.169405 
L 177.047024 218.219707 
L 177.066736 218.219707 
L 177.132293 217.586576 
L 177.191099 217.586576 
L 177.269223 216.953444 
L 177.308164 216.953444 
L 177.347024 216.162029 
L 177.475981 216.162029 
L 177.533725 215.054049 
L 177.60406 215.054049 
L 177.655049 214.420917 
L 177.743947 214.420917 
L 177.845034 212.521522 
L 177.870221 212.521522 
L 177.933042 211.413541 
L 177.995653 211.413541 
L 178.070512 210.938693 
L 178.107831 210.938693 
L 178.200804 209.830712 
L 178.244035 209.830712 
L 178.354746 208.564449 
L 178.385383 208.564449 
L 178.495268 207.614751 
L 178.54997 207.614751 
L 178.62266 207.298185 
L 178.664933 207.298185 
L 178.74319 206.506771 
L 178.797177 206.506771 
L 178.86892 205.082224 
L 178.946334 205.082224 
L 178.987886 203.499395 
L 179.08842 203.499395 
L 179.194285 203.024546 
L 179.206011 203.024546 
L 179.311218 202.391415 
L 179.41584 202.391415 
L 179.525646 201.441717 
L 179.537168 201.441717 
L 179.606148 200.650302 
L 179.686307 200.650302 
L 179.749051 199.067473 
L 179.811585 199.067473 
L 179.907823 197.80121 
L 179.947307 197.80121 
L 180.054064 196.376663 
L 180.082057 196.376663 
L 180.115594 196.060098 
L 180.204735 196.060098 
L 180.315571 194.477268 
L 180.348695 194.477268 
L 180.44223 192.894439 
L 180.497035 192.894439 
L 180.595282 191.628176 
L 180.627917 191.628176 
L 180.720078 190.678478 
L 180.747098 190.678478 
L 180.849423 188.779083 
L 180.951194 188.779083 
L 181.041788 187.671102 
L 181.08427 187.671102 
L 181.147814 187.037971 
L 181.211143 187.037971 
L 181.28476 185.92999 
L 181.337167 185.92999 
L 181.420716 184.505444 
L 181.451951 184.505444 
L 181.519451 182.764332 
L 181.581544 182.764332 
L 181.67944 182.1312 
L 181.730761 182.1312 
L 181.781942 181.498068 
L 181.863543 181.498068 
L 181.965049 179.756956 
L 182.000447 179.756956 
L 182.106243 178.490693 
L 182.141377 178.490693 
L 182.176445 177.382712 
L 182.256356 177.382712 
L 182.350812 176.591298 
L 182.370637 176.591298 
L 182.46945 175.166751 
L 182.498993 175.166751 
L 182.60203 174.217054 
L 182.621592 174.217054 
L 182.723962 172.159376 
L 182.772514 172.159376 
L 182.86442 170.576546 
L 182.888531 170.576546 
L 182.994254 168.677151 
L 183.003836 168.677151 
L 183.089854 167.569171 
L 183.137472 167.569171 
L 183.222882 167.094322 
L 183.270165 167.094322 
L 183.378467 165.828059 
L 183.387856 165.828059 
L 183.490817 164.403512 
L 183.5188 164.403512 
L 183.611777 162.820683 
L 183.695066 162.820683 
L 183.718136 162.345834 
L 183.84681 162.345834 
L 183.938184 160.604722 
L 183.97006 160.604722 
L 184.065366 159.021893 
L 184.083465 159.021893 
L 184.169198 157.597346 
L 184.218654 157.597346 
L 184.276936 156.647649 
L 184.330575 156.647649 
L 184.415191 154.589971 
L 184.44627 154.589971 
L 184.503852 153.798556 
L 184.565667 153.798556 
L 184.675548 152.690576 
L 184.723693 152.690576 
L 184.802211 151.740878 
L 184.858715 151.740878 
L 184.962587 149.6832 
L 185.001391 149.6832 
L 185.091625 148.733502 
L 185.134442 148.733502 
L 185.228297 146.517541 
L 185.266558 146.517541 
L 185.376654 144.459863 
L 185.385096 144.459863 
L 185.477712 143.668449 
L 185.51966 143.668449 
L 185.553151 143.1936 
L 185.636619 143.1936 
L 185.740436 141.769054 
L 185.765267 141.769054 
L 185.847801 140.819356 
L 185.897148 140.819356 
L 185.983196 139.553093 
L 186.015872 139.553093 
L 186.097317 138.603395 
L 186.129796 138.603395 
L 186.239001 137.337132 
L 186.26721 137.337132 
L 186.339555 135.59602 
L 186.4276 135.59602 
L 186.519208 134.488039 
L 186.554934 134.488039 
L 186.638031 133.854907 
L 186.66959 133.854907 
L 186.748259 132.588644 
L 186.869548 132.588644 
L 186.966796 130.689249 
L 186.986185 130.689249 
L 187.094398 128.948137 
L 187.098251 128.948137 
L 187.178988 126.732176 
L 187.209654 126.732176 
L 187.29754 125.624195 
L 187.350836 125.624195 
L 187.438067 124.83278 
L 187.475868 124.83278 
L 187.539956 123.566517 
L 187.645038 123.566517 
L 187.745814 122.458537 
L 187.801569 122.458537 
L 187.894127 121.192273 
L 187.971526 121.192273 
L 188.019281 120.717424 
L 188.118077 120.717424 
L 188.176379 118.818029 
L 188.241754 118.818029 
L 188.245379 118.34318 
L 188.357418 118.34318 
L 188.46521 116.918634 
L 188.468793 116.918634 
L 188.579512 115.968937 
L 188.636404 115.968937 
L 188.739083 114.860956 
L 188.749673 114.860956 
L 188.837693 113.43641 
L 188.914811 113.43641 
L 189.022944 112.644995 
L 189.109697 112.644995 
L 189.213276 112.011863 
L 189.278582 112.011863 
L 189.377825 111.695298 
L 189.425548 111.695298 
L 189.483336 111.062166 
L 189.547712 111.062166 
L 189.655641 110.270751 
L 189.695955 110.270751 
L 189.756265 109.795902 
L 189.85968 109.795902 
L 189.85968 109.63762 
L 189.985677 109.63762 
L 190.084555 108.846205 
L 190.173103 108.846205 
L 190.277512 108.05479 
L 190.355441 108.05479 
L 190.433048 107.263376 
L 190.49426 107.263376 
L 190.555274 106.471961 
L 190.6544 106.471961 
L 190.759351 105.205698 
L 190.784706 105.205698 
L 190.784706 105.047415 
L 191.076972 105.047415 
L 191.10813 104.414283 
L 191.210587 104.414283 
L 191.210587 104.256 
L 191.475001 104.256 
L 191.475001 104.097717 
L 191.98105 104.097717 
L 192.025578 102.989737 
L 192.196768 102.989737 
L 192.196768 102.831454 
L 192.354763 102.831454 
L 192.407135 102.040039 
L 192.735478 102.040039 
L 192.735478 101.723473 
L 193.035721 101.723473 
L 193.035721 101.56519 
L 193.270293 101.56519 
L 193.270293 101.406907 
L 193.575843 101.406907 
L 193.575843 101.248624 
L 193.68746 101.248624 
L 193.68746 101.090341 
L 193.919454 101.090341 
L 194.007722 100.298927 
L 194.314748 100.298927 
L 194.314748 100.140644 
L 194.709619 100.140644 
L 194.709619 99.982361 
L 195.050985 99.982361 
L 195.050985 99.824078 
L 195.169265 99.824078 
L 195.169265 99.665795 
L 195.993852 99.665795 
L 195.993852 99.507512 
L 197.618061 99.507512 
L 197.620263 99.190946 
L 197.869659 99.190946 
L 197.869659 99.032663 
L 199.012147 99.032663 
L 199.10192 98.716098 
L 199.356653 98.716098 
L 199.356653 98.557815 
L 199.598074 98.557815 
L 199.598074 98.399532 
L 199.941844 98.399532 
L 200.029235 97.924683 
L 200.054407 97.924683 
L 200.060211 97.608117 
L 200.530142 97.608117 
L 200.618605 97.291551 
L 200.710392 97.291551 
L 200.710392 97.133268 
L 200.881525 97.133268 
L 200.935148 96.816702 
L 201.047445 96.816702 
L 201.047445 96.65842 
L 201.52229 96.65842 
L 201.613344 96.341854 
L 201.876868 96.341854 
L 201.876868 96.183571 
L 202.19728 96.183571 
L 202.19728 96.025288 
L 202.581813 96.025288 
L 202.581813 95.867005 
L 202.740163 95.867005 
L 202.798784 95.550439 
L 202.903844 95.550439 
L 202.903844 95.392156 
L 204.347042 95.392156 
L 204.347042 95.233873 
L 204.854549 95.233873 
L 204.854549 95.07559 
L 205.635662 95.07559 
L 205.635662 94.917307 
L 205.901282 94.917307 
L 205.901282 94.759024 
L 207.38671 94.759024 
L 207.38671 94.442459 
L 208.087635 94.442459 
L 208.087635 94.125893 
L 208.288548 94.125893 
L 208.288548 93.651044 
L 208.841163 93.651044 
L 208.88054 93.334478 
L 209.244334 93.334478 
L 209.244334 93.176195 
L 211.114703 93.176195 
L 211.114703 93.017912 
L 211.347561 93.017912 
L 211.387857 92.701346 
L 212.279503 92.701346 
L 212.325918 92.38478 
L 212.566241 92.38478 
L 212.566241 92.226498 
L 213.126929 92.226498 
L 213.126929 91.751649 
L 214.045737 91.751649 
L 214.142976 90.960234 
L 214.623554 90.960234 
L 214.664537 90.643668 
L 214.76572 90.643668 
L 214.76572 90.327102 
L 215.326884 90.327102 
L 215.326884 90.16882 
L 215.573984 90.16882 
L 215.573984 90.010537 
L 215.728524 90.010537 
L 215.728524 89.852254 
L 216.275158 89.852254 
L 216.275158 89.693971 
L 216.406633 89.693971 
L 216.406633 89.535688 
L 216.63723 89.535688 
L 216.63723 89.377405 
L 218.364518 89.377405 
L 218.364518 89.219122 
L 219.607716 89.219122 
L 219.607716 89.060839 
L 220.800175 89.060839 
L 220.800175 88.902556 
L 221.731782 88.902556 
L 221.731782 88.744273 
L 221.919109 88.744273 
L 221.98918 87.952859 
L 223.039463 87.952859 
L 223.039463 87.794576 
L 226.232864 87.794576 
L 226.232864 87.636293 
L 227.470887 87.636293 
L 227.470887 87.47801 
L 227.997758 87.47801 
L 227.997758 87.319727 
L 228.246685 87.319727 
L 228.246685 87.003161 
L 228.663545 87.003161 
L 228.663545 86.844878 
L 229.455945 86.844878 
L 229.455945 86.686595 
L 229.739605 86.686595 
L 229.739605 86.528312 
L 229.899457 86.528312 
L 229.899457 86.370029 
L 231.215789 86.370029 
L 231.215789 86.211746 
L 233.886177 86.211746 
L 233.886177 86.053463 
L 237.452298 86.053463 
L 237.452298 85.736898 
L 239.502069 85.736898 
L 239.502069 85.578615 
L 242.127911 85.578615 
L 242.127911 85.420332 
L 242.938236 85.420332 
L 242.938236 85.262049 
L 245.278803 85.262049 
L 245.278803 84.945483 
L 246.536391 84.945483 
L 246.536391 84.7872 
L 248.429108 84.7872 
L 248.429108 84.628917 
L 250.182586 84.628917 
L 250.182586 84.470634 
L 251.684324 84.470634 
L 251.684324 84.312351 
L 254.068768 84.312351 
L 254.068768 83.995785 
L 254.441293 83.995785 
L 254.441293 83.837502 
L 257.287953 83.837502 
L 257.287953 83.67922 
L 259.385627 83.67922 
L 259.385627 83.520937 
L 260.307899 83.520937 
L 260.307899 83.362654 
L 266.469038 83.362654 
L 266.469038 83.204371 
L 267.549194 83.204371 
L 267.549194 83.046088 
L 275.756362 83.046088 
L 275.756362 82.887805 
L 360.8064 82.887805 
L 360.8064 82.887805 
" style="fill:none;stroke:#000080;stroke-linecap:square;stroke-width:1.5;"/>
   </g>
   <g id="line2d_31">
    <defs>
     <path d="M 0 6 
C 1.591219 6 3.117479 5.367802 4.242641 4.242641 
C 5.367802 3.117479 6 1.591219 6 0 
C 6 -1.591219 5.367802 -3.117479 4.242641 -4.242641 
C 3.117479 -5.367802 1.591219 -6 0 -6 
C -1.591219 -6 -3.117479 -5.367802 -4.242641 -4.242641 
C -5.367802 -3.117479 -6 -1.591219 -6 0 
C -6 1.591219 -5.367802 3.117479 -4.242641 4.242641 
C -3.117479 5.367802 -1.591219 6 0 6 
z
" id="m5ca2a087d3" style="stroke:#000080;stroke-width:1.5;"/>
    </defs>
    <g>
     <use style="fill-opacity:0;stroke:#000080;stroke-width:1.5;" x="165.939815" xlink:href="#m5ca2a087d3" y="266.496"/>
     <use style="fill-opacity:0;stroke:#000080;stroke-width:1.5;" x="181.929584" xlink:href="#m5ca2a087d3" y="180.073522"/>
     <use style="fill-opacity:0;stroke:#000080;stroke-width:1.5;" x="239.502069" xlink:href="#m5ca2a087d3" y="85.578615"/>
     <use style="fill-opacity:0;stroke:#000080;stroke-width:1.5;" x="275.756362" xlink:href="#m5ca2a087d3" y="82.887805"/>
     <use style="fill-opacity:0;stroke:#000080;stroke-width:1.5;" x="360.8064" xlink:href="#m5ca2a087d3" y="82.887805"/>
    </g>
   </g>
   <g id="line2d_32">
    <path style="fill:none;stroke:#000080;stroke-linecap:square;stroke-width:1.5;"/>
    <g/>
   </g>
   <g id="line2d_33">
    <path clip-path="url(#p87f236629c)" d="M 196.41412 99.507512 
" style="fill:none;stroke:#000080;stroke-linecap:square;stroke-width:1.5;"/>
    <defs>
     <path d="M -12 12 
L 12 -12 
M -12 -12 
L 12 12 
" id="me8d136ddd7" style="stroke:#000080;"/>
    </defs>
    <g clip-path="url(#p87f236629c)">
     <use style="fill:#000080;stroke:#000080;" x="196.41412" xlink:href="#me8d136ddd7" y="99.507512"/>
    </g>
   </g>
   <g id="line2d_34">
    <defs>
     <path d="M 0 1.5 
C 0.397805 1.5 0.77937 1.341951 1.06066 1.06066 
C 1.341951 0.77937 1.5 0.397805 1.5 0 
C 1.5 -0.397805 1.341951 -0.77937 1.06066 -1.06066 
C 0.77937 -1.341951 0.397805 -1.5 0 -1.5 
C -0.397805 -1.5 -0.77937 -1.341951 -1.06066 -1.06066 
C -1.341951 -0.77937 -1.5 -0.397805 -1.5 0 
C -1.5 0.397805 -1.341951 0.77937 -1.06066 1.06066 
C -0.77937 1.341951 -0.397805 1.5 0 1.5 
z
" id="mb52ec1ea81" style="stroke:#ff00ff;"/>
    </defs>
    <g>
     <use style="fill:#ff00ff;stroke:#ff00ff;" x="348.676557" xlink:href="#mb52ec1ea81" y="6.912"/>
     <use style="fill:#ff00ff;stroke:#ff00ff;" x="348.676557" xlink:href="#mb52ec1ea81" y="6.912"/>
    </g>
   </g>
   <g id="line2d_35">
    <path d="M 154.811312 298.944 
L 154.811312 298.785717 
L 155.193286 298.785717 
L 155.193286 298.627434 
L 155.422953 298.627434 
L 155.422953 298.469151 
L 155.874041 298.469151 
L 155.874041 298.152585 
L 156.511445 298.152585 
L 156.531019 297.83602 
L 157.372755 297.83602 
L 157.372755 297.677737 
L 157.521831 297.677737 
L 157.521831 297.519454 
L 158.088598 297.519454 
L 158.088598 297.361171 
L 158.356828 297.361171 
L 158.356828 297.202888 
L 158.864805 297.202888 
L 158.951018 296.886322 
L 159.088142 296.886322 
L 159.088142 296.728039 
L 159.325729 296.728039 
L 159.325729 296.569756 
L 159.510322 296.569756 
L 159.510322 296.411473 
L 159.709651 296.411473 
L 159.709651 296.25319 
L 159.939564 296.25319 
L 159.939564 296.094907 
L 160.263211 296.094907 
L 160.263211 295.936624 
L 160.438872 295.936624 
L 160.438872 295.778341 
L 160.660094 295.778341 
L 160.722826 295.461776 
L 161.033383 295.461776 
L 161.033383 295.303493 
L 161.156184 295.303493 
L 161.262981 294.828644 
L 161.308567 294.828644 
L 161.308567 294.670361 
L 161.564818 294.670361 
L 161.609678 294.195512 
L 161.788059 294.195512 
L 161.876619 293.56238 
L 162.06708 293.56238 
L 162.096211 293.087532 
L 162.342023 293.087532 
L 162.442313 292.770966 
L 162.499383 292.770966 
L 162.584664 292.296117 
L 162.66956 292.296117 
L 162.66956 292.137834 
L 162.880139 292.137834 
L 162.880139 291.821268 
L 163.046922 291.821268 
L 163.143533 291.029854 
L 163.184786 291.029854 
L 163.253342 290.713288 
L 163.632702 290.713288 
L 163.632702 290.555005 
L 163.806266 290.555005 
L 163.885835 289.921873 
L 163.925494 289.921873 
L 163.925494 289.76359 
L 164.083299 289.76359 
L 164.174745 289.447024 
L 164.291668 289.447024 
L 164.343401 289.130459 
L 164.446443 289.130459 
L 164.446443 288.972176 
L 164.612692 288.972176 
L 164.612692 288.813893 
L 164.739583 288.813893 
L 164.840483 288.497327 
L 164.865624 288.497327 
L 164.865624 288.339044 
L 165.1028 288.339044 
L 165.164721 287.705912 
L 165.312505 287.705912 
L 165.422585 287.07278 
L 165.459136 287.07278 
L 165.544147 286.756215 
L 165.713024 286.756215 
L 165.713024 286.597932 
L 165.880398 286.597932 
L 165.892297 286.281366 
L 166.01087 286.281366 
L 166.046296 285.9648 
L 166.280784 285.9648 
L 166.338952 285.015102 
L 166.615683 285.015102 
L 166.718416 284.540254 
L 166.91095 284.540254 
L 166.91095 284.381971 
L 167.079212 284.381971 
L 167.146097 283.907122 
L 167.257048 283.907122 
L 167.345339 283.27399 
L 167.400311 283.27399 
L 167.509777 282.482576 
L 167.542492 282.482576 
L 167.651136 281.532878 
L 167.694418 281.532878 
L 167.694418 281.374595 
L 167.823671 281.374595 
L 167.855845 281.058029 
L 167.962699 281.058029 
L 167.962699 280.899746 
L 168.111282 280.899746 
L 168.216699 280.424898 
L 168.279666 280.424898 
L 168.373724 280.108332 
L 168.456938 280.108332 
L 168.560441 279.633483 
L 168.57076 279.633483 
L 168.57076 279.4752 
L 168.714635 279.4752 
L 168.714635 279.158634 
L 168.837086 279.158634 
L 168.90815 278.683785 
L 168.968849 278.683785 
L 169.079624 278.208937 
L 169.18975 278.208937 
L 169.299236 277.417522 
L 169.437666 277.417522 
L 169.545722 276.78439 
L 169.594634 276.78439 
L 169.692078 276.309541 
L 169.78902 276.309541 
L 169.895083 275.67641 
L 169.923905 275.67641 
L 170.029212 275.201561 
L 170.076884 275.201561 
L 170.15291 274.568429 
L 170.238073 274.568429 
L 170.247512 273.935298 
L 170.37916 273.935298 
L 170.453976 273.460449 
L 170.509894 273.460449 
L 170.584193 273.143883 
L 170.621233 273.143883 
L 170.713514 272.669034 
L 170.7503 272.669034 
L 170.860229 271.561054 
L 170.96952 271.561054 
L 170.96952 271.402771 
L 171.159263 271.402771 
L 171.248949 270.927922 
L 171.275772 270.927922 
L 171.382681 270.136507 
L 171.444765 270.136507 
L 171.533103 269.661659 
L 171.559524 269.661659 
L 171.559524 269.503376 
L 171.682333 269.503376 
L 171.717274 268.553678 
L 171.934199 268.553678 
L 171.977286 267.920546 
L 172.131585 267.920546 
L 172.208263 267.60398 
L 172.293095 267.60398 
L 172.293095 267.445698 
L 172.48677 267.445698 
L 172.528611 266.654283 
L 172.620334 266.654283 
L 172.719888 266.337717 
L 172.785966 266.337717 
L 172.802449 266.021151 
L 172.901047 266.021151 
L 172.982818 265.546302 
L 173.023571 265.546302 
L 173.129118 264.280039 
L 173.161475 264.280039 
L 173.201843 263.488624 
L 173.33845 263.488624 
L 173.402394 262.064078 
L 173.545479 262.064078 
L 173.656019 261.272663 
L 173.711047 261.272663 
L 173.797195 260.797815 
L 173.851812 260.797815 
L 173.937319 260.0064 
L 173.999263 260.0064 
L 173.999263 259.848117 
L 174.13022 259.848117 
L 174.237387 259.056702 
L 174.321163 259.056702 
L 174.374282 258.581854 
L 174.449906 258.581854 
L 174.502663 257.948722 
L 174.562776 257.948722 
L 174.59276 257.632156 
L 174.689881 257.632156 
L 174.771671 257.157307 
L 174.808731 257.157307 
L 174.867875 256.840741 
L 174.978272 256.840741 
L 175.051511 255.891044 
L 175.124467 255.891044 
L 175.204392 254.466498 
L 175.24061 254.466498 
L 175.291198 253.833366 
L 175.356041 253.833366 
L 175.44931 252.567102 
L 175.470768 252.567102 
L 175.470768 252.250537 
L 175.591903 252.250537 
L 175.676943 251.300839 
L 175.740472 251.300839 
L 175.761601 250.984273 
L 175.852885 250.984273 
L 175.915823 250.192859 
L 176.068792 250.192859 
L 176.165492 249.243161 
L 176.186149 249.243161 
L 176.282249 248.451746 
L 176.323285 248.451746 
L 176.405089 247.976898 
L 176.560893 247.976898 
L 176.661814 246.868917 
L 176.695334 246.868917 
L 176.788874 246.552351 
L 176.808858 246.552351 
L 176.881951 244.969522 
L 176.948154 244.969522 
L 177.053597 244.019824 
L 177.060168 244.019824 
L 177.158452 243.070127 
L 177.191099 243.070127 
L 177.191099 242.911844 
L 177.308164 242.911844 
L 177.366424 242.595278 
L 177.430947 242.595278 
L 177.533725 241.487298 
L 177.559332 241.487298 
L 177.667774 240.695883 
L 177.699551 240.695883 
L 177.756613 240.221034 
L 177.882802 240.221034 
L 177.970633 239.587902 
L 178.00815 239.587902 
L 178.114043 238.638205 
L 178.126462 238.638205 
L 178.188434 238.005073 
L 178.237865 238.005073 
L 178.330199 237.213659 
L 178.360877 237.213659 
L 178.464809 236.422244 
L 178.495268 236.422244 
L 178.58635 235.15598 
L 178.683021 235.15598 
L 178.761202 234.681132 
L 178.797177 234.681132 
L 178.886813 233.731434 
L 178.922548 233.731434 
L 178.922548 233.256585 
L 179.035263 233.256585 
L 179.12966 232.306888 
L 179.147307 232.306888 
L 179.252842 230.407493 
L 179.293724 230.407493 
L 179.392641 230.090927 
L 179.514118 230.090927 
L 179.617621 229.457795 
L 179.629086 229.457795 
L 179.737658 227.874966 
L 179.749051 227.874966 
L 179.800231 226.608702 
L 179.868255 226.608702 
L 179.947307 225.184156 
L 179.981085 225.184156 
L 180.087651 224.392741 
L 180.104422 224.392741 
L 180.154645 223.601327 
L 180.265776 223.601327 
L 180.376254 222.018498 
L 180.39277 222.018498 
L 180.398272 221.701932 
L 180.507976 221.701932 
L 180.56259 221.0688 
L 180.622482 221.0688 
L 180.649643 220.752234 
L 180.757895 220.752234 
L 180.860161 220.119102 
L 180.870894 220.119102 
L 180.961875 218.852839 
L 180.993881 218.852839 
L 181.06835 218.536273 
L 181.126656 218.536273 
L 181.237468 216.636878 
L 181.253245 216.636878 
L 181.337167 214.420917 
L 181.373765 214.420917 
L 181.462351 213.312937 
L 181.498707 213.312937 
L 181.581544 212.521522 
L 181.643432 212.521522 
L 181.74613 211.571824 
L 181.756369 211.571824 
L 181.863543 211.255259 
L 181.934654 211.255259 
L 182.020644 210.305561 
L 182.071044 210.305561 
L 182.156414 209.672429 
L 182.251372 209.672429 
L 182.335929 208.0896 
L 182.365682 208.0896 
L 182.459592 207.139902 
L 182.479303 207.139902 
L 182.587345 206.506771 
L 182.606923 206.506771 
L 182.704506 204.923941 
L 182.738541 204.923941 
L 182.811266 203.182829 
L 182.86442 203.182829 
L 182.936661 202.391415 
L 182.984668 202.391415 
L 183.094621 200.808585 
L 183.118439 200.808585 
L 183.227616 198.90919 
L 183.232348 198.90919 
L 183.32204 197.959493 
L 183.359677 197.959493 
L 183.387856 197.484644 
L 183.495484 197.484644 
L 183.565346 196.534946 
L 183.695066 196.534946 
L 183.791772 194.793834 
L 183.851389 194.793834 
L 183.960958 194.00242 
L 184.001882 194.00242 
L 184.083465 193.369288 
L 184.115096 193.369288 
L 184.218654 191.469893 
L 184.227633 191.469893 
L 184.326111 189.412215 
L 184.401856 189.412215 
L 184.503852 187.037971 
L 184.517115 187.037971 
L 184.592097 185.92999 
L 184.68869 185.92999 
L 184.776074 183.555746 
L 184.810915 183.555746 
L 184.919376 182.606049 
L 184.97553 182.606049 
L 185.08305 181.02322 
L 185.113046 181.02322 
L 185.189958 179.598673 
L 185.253813 179.598673 
L 185.363983 177.699278 
L 185.372431 177.699278 
L 185.477712 176.274732 
L 185.486109 176.274732 
L 185.590758 174.53362 
L 185.607448 174.53362 
L 185.678215 173.583922 
L 185.732152 173.583922 
L 185.839564 172.634224 
L 185.872491 172.634224 
L 185.970927 171.526244 
L 185.987283 171.526244 
L 186.089188 168.677151 
L 186.109503 168.677151 
L 186.210749 167.569171 
L 186.226898 167.569171 
L 186.335543 165.669776 
L 186.351585 165.669776 
L 186.451541 163.137249 
L 186.515234 163.137249 
L 186.582674 162.345834 
L 186.634082 162.345834 
L 186.705032 161.712702 
L 186.763953 161.712702 
L 186.873448 159.021893 
L 186.885142 159.021893 
L 186.993936 157.913912 
L 187.090544 157.913912 
L 187.194327 156.331083 
L 187.209654 156.331083 
L 187.3204 155.539668 
L 187.354637 155.539668 
L 187.464536 153.798556 
L 187.506054 153.798556 
L 187.573796 152.057444 
L 187.626316 152.057444 
L 187.723466 151.107746 
L 187.745814 151.107746 
L 187.853458 149.366634 
L 187.868257 149.366634 
L 187.942078 146.675824 
L 188.0046 146.675824 
L 188.107125 144.934712 
L 188.143607 144.934712 
L 188.241754 143.510166 
L 188.310515 143.510166 
L 188.407798 141.927337 
L 188.447288 141.927337 
L 188.543867 140.819356 
L 188.575951 140.819356 
L 188.686043 139.078244 
L 188.689584 139.078244 
L 188.799015 137.970263 
L 188.806054 137.970263 
L 188.876292 137.178849 
L 188.925303 137.178849 
L 189.002064 136.387434 
L 189.064636 136.387434 
L 189.099308 135.912585 
L 189.182262 135.912585 
L 189.230484 135.279454 
L 189.326558 135.279454 
L 189.391472 134.329756 
L 189.459562 134.329756 
L 189.551095 133.063493 
L 189.601754 133.063493 
L 189.70602 131.480663 
L 189.722783 131.480663 
L 189.796364 131.164098 
L 189.853025 131.164098 
L 189.949291 130.056117 
L 189.97576 130.056117 
L 190.051653 128.789854 
L 190.091128 128.789854 
L 190.179646 127.365307 
L 190.202527 127.365307 
L 190.238427 126.573893 
L 190.348959 126.573893 
L 190.449176 124.991063 
L 190.516762 124.991063 
L 190.593708 124.357932 
L 190.663966 124.357932 
L 190.765693 122.933385 
L 190.854255 122.933385 
L 190.945543 122.300254 
L 191.011372 122.300254 
L 191.030139 121.825405 
L 191.198197 121.825405 
L 191.284751 121.03399 
L 191.330956 121.03399 
L 191.441387 119.134595 
L 191.450561 119.134595 
L 191.554214 118.501463 
L 191.753808 118.501463 
L 191.753808 118.184898 
L 191.879729 118.184898 
L 191.879729 117.710049 
L 192.058165 117.710049 
L 192.164421 116.285502 
L 192.264225 116.285502 
L 192.343105 115.335805 
L 192.404229 115.335805 
L 192.427462 114.54439 
L 192.56338 114.54439 
L 192.649626 113.911259 
L 192.855016 113.911259 
L 192.897525 113.278127 
L 192.96816 113.278127 
L 193.049766 112.961561 
L 193.17291 112.961561 
L 193.248078 111.378732 
L 193.314643 111.378732 
L 193.380974 110.429034 
L 193.477288 110.429034 
L 193.518415 109.795902 
L 193.736254 109.795902 
L 193.736254 109.479337 
L 193.908727 109.479337 
L 193.956952 109.004488 
L 194.301617 109.004488 
L 194.36718 107.896507 
L 194.427298 107.896507 
L 194.427298 107.738224 
L 195.171774 107.738224 
L 195.171774 107.579941 
L 197.564022 107.579941 
L 197.564022 107.421659 
L 199.250934 107.421659 
L 199.250934 107.263376 
L 202.13242 107.263376 
L 202.13242 107.105093 
L 203.908412 107.105093 
L 203.908412 106.94681 
L 204.301553 106.94681 
L 204.301553 106.788527 
L 204.768149 106.788527 
L 204.768149 106.630244 
L 205.679476 106.630244 
L 205.679476 106.471961 
L 206.515776 106.471961 
L 206.515776 106.313678 
L 206.859842 106.313678 
L 206.859842 106.155395 
L 207.554342 106.155395 
L 207.554342 105.997112 
L 211.71653 105.997112 
L 211.71653 105.838829 
L 212.109009 105.838829 
L 212.109009 105.680546 
L 212.890774 105.680546 
L 212.890774 105.522263 
L 213.233824 105.522263 
L 213.233824 105.36398 
L 213.512159 105.36398 
L 213.512159 105.205698 
L 214.676992 105.205698 
L 214.753323 104.889132 
L 216.264126 104.889132 
L 216.264126 104.730849 
L 216.565773 104.730849 
L 216.565773 104.572566 
L 217.249804 104.572566 
L 217.249804 104.414283 
L 218.565577 104.414283 
L 218.673039 104.097717 
L 218.875469 104.097717 
L 218.875469 103.939434 
L 220.109072 103.939434 
L 220.113736 103.622868 
L 220.959107 103.622868 
L 220.959107 103.464585 
L 222.359038 103.464585 
L 222.359038 103.306302 
L 223.100375 103.306302 
L 223.100375 103.14802 
L 224.180997 103.14802 
L 224.180997 102.989737 
L 225.600689 102.989737 
L 225.600689 102.831454 
L 226.085532 102.831454 
L 226.179378 102.356605 
L 226.213126 102.356605 
L 226.213126 102.198322 
L 226.86357 102.198322 
L 226.86357 102.040039 
L 227.351798 102.040039 
L 227.351798 101.881756 
L 227.756812 101.881756 
L 227.756812 101.723473 
L 228.28577 101.723473 
L 228.28577 101.56519 
L 228.91034 101.56519 
L 228.91034 101.406907 
L 229.733414 101.406907 
L 229.733414 101.248624 
L 229.974342 101.248624 
L 229.974342 101.090341 
L 230.237908 101.090341 
L 230.269382 100.773776 
L 230.878662 100.773776 
L 230.878662 100.615493 
L 231.071992 100.615493 
L 231.071992 100.45721 
L 231.739342 100.45721 
L 231.739342 100.298927 
L 232.05446 100.298927 
L 232.05446 100.140644 
L 232.518316 100.140644 
L 232.518316 99.982361 
L 233.276903 99.982361 
L 233.276903 99.824078 
L 233.702207 99.824078 
L 233.702207 99.665795 
L 234.048368 99.665795 
L 234.048368 99.507512 
L 236.03911 99.507512 
L 236.03911 99.349229 
L 236.643543 99.349229 
L 236.643543 99.190946 
L 236.789331 99.190946 
L 236.789331 99.032663 
L 237.057274 99.032663 
L 237.057274 98.87438 
L 239.076756 98.87438 
L 239.076756 98.716098 
L 240.163478 98.716098 
L 240.163478 98.557815 
L 241.819799 98.557815 
L 241.819799 98.399532 
L 243.102143 98.399532 
L 243.102143 98.241249 
L 243.868627 98.241249 
L 243.868627 98.082966 
L 244.396296 98.082966 
L 244.396296 97.924683 
L 245.307365 97.924683 
L 245.411808 97.449834 
L 245.423261 97.449834 
L 245.423261 97.291551 
L 245.607634 97.291551 
L 245.607634 97.133268 
L 245.880681 97.133268 
L 245.880681 96.974985 
L 246.353182 96.974985 
L 246.377439 96.500137 
L 246.618298 96.500137 
L 246.618298 96.341854 
L 246.839868 96.341854 
L 246.839868 96.183571 
L 247.889045 96.183571 
L 247.889045 96.025288 
L 250.404544 96.025288 
L 250.404544 95.867005 
L 250.55464 95.867005 
L 250.612659 95.550439 
L 250.997357 95.550439 
L 250.997357 95.392156 
L 251.688055 95.392156 
L 251.688055 95.233873 
L 252.416474 95.233873 
L 252.416474 95.07559 
L 253.318568 95.07559 
L 253.318568 94.917307 
L 255.103574 94.917307 
L 255.108966 94.600741 
L 256.556273 94.600741 
L 256.659278 94.284176 
L 256.740726 94.284176 
L 256.740726 94.125893 
L 256.937691 94.125893 
L 256.937691 93.96761 
L 257.077702 93.96761 
L 257.132336 93.334478 
L 257.209355 93.334478 
L 257.290861 92.859629 
L 257.36981 92.859629 
L 257.421403 92.226498 
L 257.524988 92.226498 
L 257.62737 91.2768 
L 257.703748 91.2768 
L 257.805793 90.16882 
L 257.834425 90.16882 
L 257.907646 89.377405 
L 257.966695 89.377405 
L 258.066442 88.744273 
L 258.09583 88.744273 
L 258.191376 87.794576 
L 258.248665 87.794576 
L 258.32711 87.319727 
L 258.375885 87.319727 
L 258.470371 86.686595 
L 258.543321 86.686595 
L 258.632244 86.211746 
L 258.680407 86.211746 
L 258.763052 85.736898 
L 258.802961 85.736898 
L 258.904992 85.103766 
L 258.927007 85.103766 
L 259.027022 83.67922 
L 259.067552 83.67922 
L 259.067552 83.520937 
L 259.230385 83.520937 
L 259.319027 83.046088 
L 259.387609 83.046088 
L 259.490058 82.09639 
L 259.531324 82.09639 
L 259.638292 81.146693 
L 259.661338 81.146693 
L 259.708645 80.196995 
L 259.776553 80.196995 
L 259.873209 79.40558 
L 259.901996 79.40558 
L 260.006803 78.455883 
L 260.014313 78.455883 
L 260.107533 77.664468 
L 260.141757 77.664468 
L 260.223688 77.18962 
L 260.296769 77.18962 
L 260.407151 76.714771 
L 260.468923 76.714771 
L 260.571868 76.081639 
L 260.61261 76.081639 
L 260.708231 75.60679 
L 260.800534 75.60679 
L 260.906256 74.973659 
L 260.996231 74.973659 
L 261.101238 74.49881 
L 261.651112 74.49881 
L 261.715871 74.182244 
L 261.773352 74.182244 
L 261.773352 74.023961 
L 261.941219 74.023961 
L 261.942877 73.707395 
L 262.197427 73.707395 
L 262.197427 73.390829 
L 263.013164 73.390829 
L 263.078159 73.074263 
L 263.154423 73.074263 
L 263.154423 72.91598 
L 263.60959 72.91598 
L 263.60959 72.757698 
L 263.854286 72.757698 
L 263.854286 72.599415 
L 264.42578 72.599415 
L 264.42578 72.441132 
L 264.605977 72.441132 
L 264.605977 72.282849 
L 264.857154 72.282849 
L 264.857154 72.124566 
L 267.916524 72.124566 
L 267.916524 71.966283 
L 271.403031 71.966283 
L 271.403031 71.808 
L 272.071878 71.808 
L 272.071878 71.649717 
L 272.193503 71.649717 
L 272.255856 71.333151 
L 272.457272 71.333151 
L 272.5047 70.383454 
L 272.572793 70.383454 
L 272.657777 69.592039 
L 272.702385 69.592039 
L 272.761007 68.484059 
L 272.816334 68.484059 
L 272.926581 67.217795 
L 272.966103 67.217795 
L 273.007704 66.268098 
L 273.093501 66.268098 
L 273.13164 65.793249 
L 273.283192 65.793249 
L 273.392902 64.526985 
L 273.396628 64.526985 
L 273.477705 62.944156 
L 273.525749 62.944156 
L 273.636187 61.203044 
L 273.637271 61.203044 
L 273.687535 59.461932 
L 273.800524 59.461932 
L 273.896234 59.145366 
L 273.956929 59.145366 
L 274.01132 58.512234 
L 274.107061 58.512234 
L 274.159777 58.037385 
L 274.859369 58.037385 
L 274.859369 57.879102 
L 275.21908 57.879102 
L 275.21908 57.72082 
L 276.130173 57.72082 
L 276.130173 57.562537 
L 279.321384 57.562537 
L 279.321384 57.404254 
L 279.999465 57.404254 
L 279.999465 57.245971 
L 280.584984 57.245971 
L 280.686878 56.612839 
L 280.736 56.612839 
L 280.843999 55.663141 
L 280.874645 55.663141 
L 280.981748 54.871727 
L 281.020539 54.871727 
L 281.120446 53.44718 
L 281.191526 53.44718 
L 281.30259 52.180917 
L 281.303775 52.180917 
L 281.365645 51.072937 
L 281.425751 51.072937 
L 281.52804 50.123239 
L 281.661292 50.123239 
L 281.695252 49.331824 
L 281.791749 49.331824 
L 281.793229 49.015259 
L 282.263382 49.015259 
L 282.263382 48.856976 
L 286.288881 48.856976 
L 286.327474 48.54041 
L 286.479026 48.54041 
L 286.577246 47.748995 
L 286.651748 47.748995 
L 286.706523 46.95758 
L 286.794776 46.95758 
L 286.901659 45.374751 
L 286.933136 45.374751 
L 287.03787 43.317073 
L 287.077574 43.317073 
L 287.159334 42.842224 
L 287.207968 42.842224 
L 287.207968 42.683941 
L 290.353524 42.683941 
L 290.353524 42.525659 
L 290.861768 42.525659 
L 290.940265 41.734244 
L 290.981223 41.734244 
L 291.050604 40.942829 
L 291.097997 40.942829 
L 291.203096 39.043434 
L 291.209715 39.043434 
L 291.302405 38.25202 
L 291.387016 38.25202 
L 291.388659 37.935454 
L 294.41184 37.935454 
L 294.502838 37.302322 
L 294.572851 37.302322 
L 294.67276 35.244644 
L 294.685044 35.244644 
L 294.788737 34.294946 
L 294.829279 34.294946 
L 294.832103 33.97838 
L 297.377607 33.97838 
L 297.455841 33.186966 
L 297.505294 33.186966 
L 297.608502 31.129288 
L 297.6526 31.129288 
L 297.732637 30.812722 
L 299.997462 30.812722 
L 300.106551 29.229893 
L 300.122896 29.229893 
L 300.229426 28.280195 
L 302.166157 28.280195 
L 302.2464 27.805346 
L 302.297644 27.805346 
L 302.353023 26.222517 
L 302.435574 26.222517 
L 302.468555 25.905951 
L 304.285933 25.905951 
L 304.335061 25.27282 
L 304.423335 25.27282 
L 304.423335 25.114537 
L 306.099193 25.114537 
L 306.172847 23.373424 
L 306.235594 23.373424 
L 306.235594 23.215141 
L 307.664933 23.215141 
L 307.769754 22.58201 
L 307.779573 22.58201 
L 307.804516 21.474029 
L 309.281011 21.474029 
L 309.386315 20.049483 
L 310.654144 20.049483 
L 310.716794 18.308371 
L 310.882828 18.308371 
L 310.882828 18.150088 
L 311.89204 18.150088 
L 312.00286 17.20039 
L 312.007902 17.20039 
L 312.012579 16.725541 
L 313.204759 16.725541 
L 313.235466 15.934127 
L 314.345471 15.934127 
L 314.371983 15.142712 
L 315.453357 15.142712 
L 315.453357 14.984429 
L 316.381477 14.984429 
L 316.479311 14.351298 
L 317.415032 14.351298 
L 317.440559 14.034732 
L 318.338422 14.034732 
L 318.407014 13.243317 
L 319.213347 13.243317 
L 319.241121 12.768468 
L 320.068743 12.768468 
L 320.076628 12.135337 
L 320.861624 12.135337 
L 320.883913 11.502205 
L 321.636787 11.502205 
L 321.636787 11.343922 
L 322.389044 11.343922 
L 322.389044 11.185639 
L 323.07997 11.185639 
L 323.096363 10.869073 
L 323.763483 10.869073 
L 323.785258 10.235941 
L 324.445578 10.235941 
L 324.448429 9.919376 
L 325.080334 9.919376 
L 325.086629 9.444527 
L 326.882401 9.444527 
L 326.882401 9.286244 
L 327.443854 9.286244 
L 327.443854 9.127961 
L 328.52196 9.127961 
L 328.52196 8.969678 
L 329.033824 8.969678 
L 329.033824 8.811395 
L 329.543872 8.811395 
L 329.543872 8.653112 
L 330.96997 8.653112 
L 330.970242 8.336546 
L 331.865024 8.336546 
L 331.865024 8.178263 
L 332.724101 8.178263 
L 332.724101 8.01998 
L 333.135036 8.01998 
L 333.135036 7.861698 
L 333.942203 7.861698 
L 333.942203 7.703415 
L 334.329297 7.703415 
L 334.329297 7.545132 
L 334.712365 7.545132 
L 334.712365 7.386849 
L 342.346076 7.386849 
L 342.346076 7.228566 
L 343.082313 7.228566 
L 343.082313 7.070283 
L 348.676557 7.070283 
L 348.676557 6.912 
L 360.8064 6.912 
L 360.8064 6.912 
" style="fill:none;stroke:#ff00ff;stroke-linecap:square;stroke-width:1.5;"/>
   </g>
   <g id="line2d_36">
    <defs>
     <path d="M -0 8.485281 
L 5.091169 0 
L 0 -8.485281 
L -5.091169 -0 
z
" id="m9e5855c458" style="stroke:#ff00ff;stroke-linejoin:miter;stroke-width:1.5;"/>
    </defs>
    <g>
     <use style="fill-opacity:0;stroke:#ff00ff;stroke-linejoin:miter;stroke-width:1.5;" x="187.905204" xlink:href="#m9e5855c458" y="148.57522"/>
     <use style="fill-opacity:0;stroke:#ff00ff;stroke-linejoin:miter;stroke-width:1.5;" x="257.36981" xlink:href="#m9e5855c458" y="92.859629"/>
     <use style="fill-opacity:0;stroke:#ff00ff;stroke-linejoin:miter;stroke-width:1.5;" x="311.89204" xlink:href="#m9e5855c458" y="17.991805"/>
     <use style="fill-opacity:0;stroke:#ff00ff;stroke-linejoin:miter;stroke-width:1.5;" x="348.676557" xlink:href="#m9e5855c458" y="6.912"/>
     <use style="fill-opacity:0;stroke:#ff00ff;stroke-linejoin:miter;stroke-width:1.5;" x="360.8064" xlink:href="#m9e5855c458" y="6.912"/>
    </g>
   </g>
   <g id="line2d_37">
    <path style="fill:none;stroke:#ff00ff;stroke-linecap:square;stroke-width:1.5;"/>
    <g/>
   </g>
   <g id="line2d_38">
    <path clip-path="url(#p87f236629c)" d="M 261.139948 74.49881 
" style="fill:none;stroke:#ff00ff;stroke-linecap:square;stroke-width:1.5;"/>
    <defs>
     <path d="M -12 12 
L 12 -12 
M -12 -12 
L 12 12 
" id="mfe51a97468" style="stroke:#ff00ff;"/>
    </defs>
    <g clip-path="url(#p87f236629c)">
     <use style="fill:#ff00ff;stroke:#ff00ff;" x="261.139948" xlink:href="#mfe51a97468" y="74.49881"/>
    </g>
   </g>
   <g id="line2d_39">
    <path d="M 360.8064 82.887805 
L 380.514816 293.10336 
" style="fill:none;stroke:#000080;stroke-linecap:square;stroke-width:1.5;"/>
    <g>
     <use style="fill-opacity:0;stroke:#000080;stroke-width:1.5;" x="360.8064" xlink:href="#m5ca2a087d3" y="82.887805"/>
     <use style="fill-opacity:0;stroke:#000080;stroke-width:1.5;" x="380.514816" xlink:href="#m5ca2a087d3" y="293.10336"/>
    </g>
   </g>
   <g id="line2d_40">
    <path d="M 360.8064 6.912 
L 380.514816 12.75264 
" style="fill:none;stroke:#ff00ff;stroke-linecap:square;stroke-width:1.5;"/>
    <g>
     <use style="fill-opacity:0;stroke:#ff00ff;stroke-linejoin:miter;stroke-width:1.5;" x="360.8064" xlink:href="#m9e5855c458" y="6.912"/>
     <use style="fill-opacity:0;stroke:#ff00ff;stroke-linejoin:miter;stroke-width:1.5;" x="380.514816" xlink:href="#m9e5855c458" y="12.75264"/>
    </g>
   </g>
   <g id="line2d_41">
    <path d="M 360.8064 298.944 
L 360.8064 6.912 
" style="fill:none;stroke:#000000;stroke-linecap:square;stroke-width:1.5;"/>
   </g>
   <g id="patch_3">
    <path d="M 57.6 298.944 
L 360.8064 298.944 
" style="fill:none;stroke:#000000;stroke-linecap:square;stroke-linejoin:miter;stroke-width:0.8;"/>
   </g>
   <g id="patch_4">
    <path d="M 57.6 6.912 
L 360.8064 6.912 
" style="fill:none;stroke:#000000;stroke-linecap:square;stroke-linejoin:miter;stroke-width:0.8;"/>
   </g>
   <g id="text_13">
    <!-- al-defaul -->
    <g transform="translate(386.578944 296.966485)scale(0.14 -0.14)">
     <defs>
      <path d="M 4.890625 31.390625 
L 31.203125 31.390625 
L 31.203125 23.390625 
L 4.890625 23.390625 
z
" id="DejaVuSans-45"/>
     </defs>
     <use xlink:href="#DejaVuSans-97"/>
     <use x="61.279297" xlink:href="#DejaVuSans-108"/>
     <use x="89.0625" xlink:href="#DejaVuSans-45"/>
     <use x="125.146484" xlink:href="#DejaVuSans-100"/>
     <use x="188.623047" xlink:href="#DejaVuSans-101"/>
     <use x="250.146484" xlink:href="#DejaVuSans-102"/>
     <use x="285.351562" xlink:href="#DejaVuSans-97"/>
     <use x="346.630859" xlink:href="#DejaVuSans-117"/>
     <use x="410.009766" xlink:href="#DejaVuSans-108"/>
    </g>
   </g>
   <g id="text_14">
    <!-- al3 -->
    <g transform="translate(386.578944 16.615765)scale(0.14 -0.14)">
     <defs>
      <path d="M 40.578125 39.3125 
Q 47.65625 37.796875 51.625 33 
Q 55.609375 28.21875 55.609375 21.1875 
Q 55.609375 10.40625 48.1875 4.484375 
Q 40.765625 -1.421875 27.09375 -1.421875 
Q 22.515625 -1.421875 17.65625 -0.515625 
Q 12.796875 0.390625 7.625 2.203125 
L 7.625 11.71875 
Q 11.71875 9.328125 16.59375 8.109375 
Q 21.484375 6.890625 26.8125 6.890625 
Q 36.078125 6.890625 40.9375 10.546875 
Q 45.796875 14.203125 45.796875 21.1875 
Q 45.796875 27.640625 41.28125 31.265625 
Q 36.765625 34.90625 28.71875 34.90625 
L 20.21875 34.90625 
L 20.21875 43.015625 
L 29.109375 43.015625 
Q 36.375 43.015625 40.234375 45.921875 
Q 44.09375 48.828125 44.09375 54.296875 
Q 44.09375 59.90625 40.109375 62.90625 
Q 36.140625 65.921875 28.71875 65.921875 
Q 24.65625 65.921875 20.015625 65.03125 
Q 15.375 64.15625 9.8125 62.3125 
L 9.8125 71.09375 
Q 15.4375 72.65625 20.34375 73.4375 
Q 25.25 74.21875 29.59375 74.21875 
Q 40.828125 74.21875 47.359375 69.109375 
Q 53.90625 64.015625 53.90625 55.328125 
Q 53.90625 49.265625 50.4375 45.09375 
Q 46.96875 40.921875 40.578125 39.3125 
z
" id="DejaVuSans-51"/>
     </defs>
     <use xlink:href="#DejaVuSans-97"/>
     <use x="61.279297" xlink:href="#DejaVuSans-108"/>
     <use x="89.0625" xlink:href="#DejaVuSans-51"/>
    </g>
   </g>
   <g id="text_15">
    <!-- bbob-constrained f3, f9, f15, 10-D -->
    <g transform="translate(60.632064 17.582726)scale(0.102 -0.102)">
     <defs>
      <path d="M 48.6875 27.296875 
Q 48.6875 37.203125 44.609375 42.84375 
Q 40.53125 48.484375 33.40625 48.484375 
Q 26.265625 48.484375 22.1875 42.84375 
Q 18.109375 37.203125 18.109375 27.296875 
Q 18.109375 17.390625 22.1875 11.75 
Q 26.265625 6.109375 33.40625 6.109375 
Q 40.53125 6.109375 44.609375 11.75 
Q 48.6875 17.390625 48.6875 27.296875 
z
M 18.109375 46.390625 
Q 20.953125 51.265625 25.265625 53.625 
Q 29.59375 56 35.59375 56 
Q 45.5625 56 51.78125 48.09375 
Q 58.015625 40.1875 58.015625 27.296875 
Q 58.015625 14.40625 51.78125 6.484375 
Q 45.5625 -1.421875 35.59375 -1.421875 
Q 29.59375 -1.421875 25.265625 0.953125 
Q 20.953125 3.328125 18.109375 8.203125 
L 18.109375 0 
L 9.078125 0 
L 9.078125 75.984375 
L 18.109375 75.984375 
z
" id="DejaVuSans-98"/>
      <path d="M 10.984375 1.515625 
L 10.984375 10.5 
Q 14.703125 8.734375 18.5 7.8125 
Q 22.3125 6.890625 25.984375 6.890625 
Q 35.75 6.890625 40.890625 13.453125 
Q 46.046875 20.015625 46.78125 33.40625 
Q 43.953125 29.203125 39.59375 26.953125 
Q 35.25 24.703125 29.984375 24.703125 
Q 19.046875 24.703125 12.671875 31.3125 
Q 6.296875 37.9375 6.296875 49.421875 
Q 6.296875 60.640625 12.9375 67.421875 
Q 19.578125 74.21875 30.609375 74.21875 
Q 43.265625 74.21875 49.921875 64.515625 
Q 56.59375 54.828125 56.59375 36.375 
Q 56.59375 19.140625 48.40625 8.859375 
Q 40.234375 -1.421875 26.421875 -1.421875 
Q 22.703125 -1.421875 18.890625 -0.6875 
Q 15.09375 0.046875 10.984375 1.515625 
z
M 30.609375 32.421875 
Q 37.25 32.421875 41.125 36.953125 
Q 45.015625 41.5 45.015625 49.421875 
Q 45.015625 57.28125 41.125 61.84375 
Q 37.25 66.40625 30.609375 66.40625 
Q 23.96875 66.40625 20.09375 61.84375 
Q 16.21875 57.28125 16.21875 49.421875 
Q 16.21875 41.5 20.09375 36.953125 
Q 23.96875 32.421875 30.609375 32.421875 
z
" id="DejaVuSans-57"/>
      <path d="M 10.796875 72.90625 
L 49.515625 72.90625 
L 49.515625 64.59375 
L 19.828125 64.59375 
L 19.828125 46.734375 
Q 21.96875 47.46875 24.109375 47.828125 
Q 26.265625 48.1875 28.421875 48.1875 
Q 40.625 48.1875 47.75 41.5 
Q 54.890625 34.8125 54.890625 23.390625 
Q 54.890625 11.625 47.5625 5.09375 
Q 40.234375 -1.421875 26.90625 -1.421875 
Q 22.3125 -1.421875 17.546875 -0.640625 
Q 12.796875 0.140625 7.71875 1.703125 
L 7.71875 11.625 
Q 12.109375 9.234375 16.796875 8.0625 
Q 21.484375 6.890625 26.703125 6.890625 
Q 35.15625 6.890625 40.078125 11.328125 
Q 45.015625 15.765625 45.015625 23.390625 
Q 45.015625 31 40.078125 35.4375 
Q 35.15625 39.890625 26.703125 39.890625 
Q 22.75 39.890625 18.8125 39.015625 
Q 14.890625 38.140625 10.796875 36.28125 
z
" id="DejaVuSans-53"/>
      <path d="M 19.671875 64.796875 
L 19.671875 8.109375 
L 31.59375 8.109375 
Q 46.6875 8.109375 53.6875 14.9375 
Q 60.6875 21.78125 60.6875 36.53125 
Q 60.6875 51.171875 53.6875 57.984375 
Q 46.6875 64.796875 31.59375 64.796875 
z
M 9.8125 72.90625 
L 30.078125 72.90625 
Q 51.265625 72.90625 61.171875 64.09375 
Q 71.09375 55.28125 71.09375 36.53125 
Q 71.09375 17.671875 61.125 8.828125 
Q 51.171875 0 30.078125 0 
L 9.8125 0 
z
" id="DejaVuSans-68"/>
     </defs>
     <use xlink:href="#DejaVuSans-98"/>
     <use x="63.476562" xlink:href="#DejaVuSans-98"/>
     <use x="126.953125" xlink:href="#DejaVuSans-111"/>
     <use x="188.134766" xlink:href="#DejaVuSans-98"/>
     <use x="251.611328" xlink:href="#DejaVuSans-45"/>
     <use x="287.695312" xlink:href="#DejaVuSans-99"/>
     <use x="342.675781" xlink:href="#DejaVuSans-111"/>
     <use x="403.857422" xlink:href="#DejaVuSans-110"/>
     <use x="467.236328" xlink:href="#DejaVuSans-115"/>
     <use x="519.335938" xlink:href="#DejaVuSans-116"/>
     <use x="558.544922" xlink:href="#DejaVuSans-114"/>
     <use x="599.658203" xlink:href="#DejaVuSans-97"/>
     <use x="660.9375" xlink:href="#DejaVuSans-105"/>
     <use x="688.720703" xlink:href="#DejaVuSans-110"/>
     <use x="752.099609" xlink:href="#DejaVuSans-101"/>
     <use x="813.623047" xlink:href="#DejaVuSans-100"/>
     <use x="877.099609" xlink:href="#DejaVuSans-32"/>
     <use x="908.886719" xlink:href="#DejaVuSans-102"/>
     <use x="944.091797" xlink:href="#DejaVuSans-51"/>
     <use x="1007.714844" xlink:href="#DejaVuSans-44"/>
     <use x="1039.501953" xlink:href="#DejaVuSans-32"/>
     <use x="1071.289062" xlink:href="#DejaVuSans-102"/>
     <use x="1106.494141" xlink:href="#DejaVuSans-57"/>
     <use x="1170.117188" xlink:href="#DejaVuSans-44"/>
     <use x="1201.904297" xlink:href="#DejaVuSans-32"/>
     <use x="1233.691406" xlink:href="#DejaVuSans-102"/>
     <use x="1268.896484" xlink:href="#DejaVuSans-49"/>
     <use x="1332.519531" xlink:href="#DejaVuSans-53"/>
     <use x="1396.142578" xlink:href="#DejaVuSans-44"/>
     <use x="1427.929688" xlink:href="#DejaVuSans-32"/>
     <use x="1459.716797" xlink:href="#DejaVuSans-49"/>
     <use x="1523.339844" xlink:href="#DejaVuSans-48"/>
     <use x="1586.962891" xlink:href="#DejaVuSans-45"/>
     <use x="1623.046875" xlink:href="#DejaVuSans-68"/>
    </g>
    <!-- 41 targets: 100..1e-06 -->
    <g transform="translate(60.632064 29.004495)scale(0.102 -0.102)">
     <defs>
      <path d="M 11.71875 12.40625 
L 22.015625 12.40625 
L 22.015625 0 
L 11.71875 0 
z
M 11.71875 51.703125 
L 22.015625 51.703125 
L 22.015625 39.3125 
L 11.71875 39.3125 
z
" id="DejaVuSans-58"/>
     </defs>
     <use xlink:href="#DejaVuSans-52"/>
     <use x="63.623047" xlink:href="#DejaVuSans-49"/>
     <use x="127.246094" xlink:href="#DejaVuSans-32"/>
     <use x="159.033203" xlink:href="#DejaVuSans-116"/>
     <use x="198.242188" xlink:href="#DejaVuSans-97"/>
     <use x="259.521484" xlink:href="#DejaVuSans-114"/>
     <use x="298.884766" xlink:href="#DejaVuSans-103"/>
     <use x="362.361328" xlink:href="#DejaVuSans-101"/>
     <use x="423.884766" xlink:href="#DejaVuSans-116"/>
     <use x="463.09375" xlink:href="#DejaVuSans-115"/>
     <use x="515.193359" xlink:href="#DejaVuSans-58"/>
     <use x="548.884766" xlink:href="#DejaVuSans-32"/>
     <use x="580.671875" xlink:href="#DejaVuSans-49"/>
     <use x="644.294922" xlink:href="#DejaVuSans-48"/>
     <use x="707.917969" xlink:href="#DejaVuSans-48"/>
     <use x="771.541016" xlink:href="#DejaVuSans-46"/>
     <use x="803.328125" xlink:href="#DejaVuSans-46"/>
     <use x="835.115234" xlink:href="#DejaVuSans-49"/>
     <use x="898.738281" xlink:href="#DejaVuSans-101"/>
     <use x="960.261719" xlink:href="#DejaVuSans-45"/>
     <use x="996.345703" xlink:href="#DejaVuSans-48"/>
     <use x="1059.96875" xlink:href="#DejaVuSans-54"/>
    </g>
    <!-- evals = f-evals + g-evals -->
    <g transform="translate(60.632064 40.426264)scale(0.102 -0.102)">
     <defs>
      <path d="M 10.59375 45.40625 
L 73.1875 45.40625 
L 73.1875 37.203125 
L 10.59375 37.203125 
z
M 10.59375 25.484375 
L 73.1875 25.484375 
L 73.1875 17.1875 
L 10.59375 17.1875 
z
" id="DejaVuSans-61"/>
      <path d="M 46 62.703125 
L 46 35.5 
L 73.1875 35.5 
L 73.1875 27.203125 
L 46 27.203125 
L 46 0 
L 37.796875 0 
L 37.796875 27.203125 
L 10.59375 27.203125 
L 10.59375 35.5 
L 37.796875 35.5 
L 37.796875 62.703125 
z
" id="DejaVuSans-43"/>
     </defs>
     <use xlink:href="#DejaVuSans-101"/>
     <use x="61.523438" xlink:href="#DejaVuSans-118"/>
     <use x="120.703125" xlink:href="#DejaVuSans-97"/>
     <use x="181.982422" xlink:href="#DejaVuSans-108"/>
     <use x="209.765625" xlink:href="#DejaVuSans-115"/>
     <use x="261.865234" xlink:href="#DejaVuSans-32"/>
     <use x="293.652344" xlink:href="#DejaVuSans-61"/>
     <use x="377.441406" xlink:href="#DejaVuSans-32"/>
     <use x="409.228516" xlink:href="#DejaVuSans-102"/>
     <use x="438.933594" xlink:href="#DejaVuSans-45"/>
     <use x="475.017578" xlink:href="#DejaVuSans-101"/>
     <use x="536.541016" xlink:href="#DejaVuSans-118"/>
     <use x="595.720703" xlink:href="#DejaVuSans-97"/>
     <use x="657" xlink:href="#DejaVuSans-108"/>
     <use x="684.783203" xlink:href="#DejaVuSans-115"/>
     <use x="736.882812" xlink:href="#DejaVuSans-32"/>
     <use x="768.669922" xlink:href="#DejaVuSans-43"/>
     <use x="852.458984" xlink:href="#DejaVuSans-32"/>
     <use x="884.246094" xlink:href="#DejaVuSans-103"/>
     <use x="947.722656" xlink:href="#DejaVuSans-45"/>
     <use x="983.806641" xlink:href="#DejaVuSans-101"/>
     <use x="1045.330078" xlink:href="#DejaVuSans-118"/>
     <use x="1104.509766" xlink:href="#DejaVuSans-97"/>
     <use x="1165.789062" xlink:href="#DejaVuSans-108"/>
     <use x="1193.572266" xlink:href="#DejaVuSans-115"/>
    </g>
    <!-- 15 instances -->
    <g transform="translate(60.632064 51.848032)scale(0.102 -0.102)">
     <use xlink:href="#DejaVuSans-49"/>
     <use x="63.623047" xlink:href="#DejaVuSans-53"/>
     <use x="127.246094" xlink:href="#DejaVuSans-32"/>
     <use x="159.033203" xlink:href="#DejaVuSans-105"/>
     <use x="186.816406" xlink:href="#DejaVuSans-110"/>
     <use x="250.195312" xlink:href="#DejaVuSans-115"/>
     <use x="302.294922" xlink:href="#DejaVuSans-116"/>
     <use x="341.503906" xlink:href="#DejaVuSans-97"/>
     <use x="402.783203" xlink:href="#DejaVuSans-110"/>
     <use x="466.162109" xlink:href="#DejaVuSans-99"/>
     <use x="521.142578" xlink:href="#DejaVuSans-101"/>
     <use x="582.666016" xlink:href="#DejaVuSans-115"/>
    </g>
   </g>
   <g id="text_16">
    <!-- v2.6.1.9 -->
    <g style="fill:#808080;" transform="translate(188.751637 293.943992)scale(0.1 -0.1)">
     <use xlink:href="#DejaVuSans-118"/>
     <use x="59.179688" xlink:href="#DejaVuSans-50"/>
     <use x="122.802734" xlink:href="#DejaVuSans-46"/>
     <use x="154.589844" xlink:href="#DejaVuSans-54"/>
     <use x="218.212891" xlink:href="#DejaVuSans-46"/>
     <use x="250" xlink:href="#DejaVuSans-49"/>
     <use x="313.623047" xlink:href="#DejaVuSans-46"/>
     <use x="345.410156" xlink:href="#DejaVuSans-57"/>
    </g>
   </g>
  </g>
 </g>
 <defs>
  <clipPath id="p87f236629c">
   <rect height="292.032" width="303.2064" x="57.6" y="6.912"/>
  </clipPath>
 </defs>
</svg>
