<?xml version="1.0" encoding="utf-8" standalone="no"?>
<!DOCTYPE svg PUBLIC "-//W3C//DTD SVG 1.1//EN"
  "http://www.w3.org/Graphics/SVG/1.1/DTD/svg11.dtd">
<!-- Created with matplotlib (https://matplotlib.org/) -->
<svg height="345.6pt" version="1.1" viewBox="0 0 460.8 345.6" width="460.8pt" xmlns="http://www.w3.org/2000/svg" xmlns:xlink="http://www.w3.org/1999/xlink">
 <metadata>
  <rdf:RDF xmlns:cc="http://creativecommons.org/ns#" xmlns:dc="http://purl.org/dc/elements/1.1/" xmlns:rdf="http://www.w3.org/1999/02/22-rdf-syntax-ns#">
   <cc:Work>
    <dc:type rdf:resource="http://purl.org/dc/dcmitype/StillImage"/>
    <dc:date>2022-04-26T20:52:34.667502</dc:date>
    <dc:format>image/svg+xml</dc:format>
    <dc:creator>
     <cc:Agent>
      <dc:title>Matplotlib v3.3.3, https://matplotlib.org/</dc:title>
     </cc:Agent>
    </dc:creator>
   </cc:Work>
  </rdf:RDF>
 </metadata>
 <defs>
  <style type="text/css">*{stroke-linecap:butt;stroke-linejoin:round;}</style>
 </defs>
 <g id="figure_1">
  <g id="patch_1">
   <path d="M 0 345.6 
L 460.8 345.6 
L 460.8 0 
L 0 0 
z
" style="fill:#ffffff;"/>
  </g>
  <g id="axes_1">
   <g id="patch_2">
    <path d="M 57.6 298.944 
L 360.8064 298.944 
L 360.8064 6.912 
L 57.6 6.912 
z
" style="fill:#ffffff;"/>
   </g>
   <g id="matplotlib.axis_1">
    <g id="xtick_1">
     <g id="line2d_1">
      <path clip-path="url(#pc3b28eaa5c)" d="M 57.6 298.944 
L 57.6 6.912 
" style="fill:none;stroke:#b0b0b0;stroke-linecap:square;stroke-width:0.8;"/>
     </g>
     <g id="line2d_2">
      <defs>
       <path d="M 0 0 
L 0 3.5 
" id="mdbbbc87696" style="stroke:#000000;stroke-width:0.8;"/>
      </defs>
      <g>
       <use style="stroke:#000000;stroke-width:0.8;" x="57.6" xlink:href="#mdbbbc87696" y="298.944"/>
      </g>
     </g>
     <g id="text_1">
      <!-- 0 -->
      <g transform="translate(52.191875 318.861344)scale(0.17 -0.17)">
       <defs>
        <path d="M 31.78125 66.40625 
Q 24.171875 66.40625 20.328125 58.90625 
Q 16.5 51.421875 16.5 36.375 
Q 16.5 21.390625 20.328125 13.890625 
Q 24.171875 6.390625 31.78125 6.390625 
Q 39.453125 6.390625 43.28125 13.890625 
Q 47.125 21.390625 47.125 36.375 
Q 47.125 51.421875 43.28125 58.90625 
Q 39.453125 66.40625 31.78125 66.40625 
z
M 31.78125 74.21875 
Q 44.046875 74.21875 50.515625 64.515625 
Q 56.984375 54.828125 56.984375 36.375 
Q 56.984375 17.96875 50.515625 8.265625 
Q 44.046875 -1.421875 31.78125 -1.421875 
Q 19.53125 -1.421875 13.0625 8.265625 
Q 6.59375 17.96875 6.59375 36.375 
Q 6.59375 54.828125 13.0625 64.515625 
Q 19.53125 74.21875 31.78125 74.21875 
z
" id="DejaVuSans-48"/>
       </defs>
       <use xlink:href="#DejaVuSans-48"/>
      </g>
     </g>
    </g>
    <g id="xtick_2">
     <g id="line2d_3">
      <path clip-path="url(#pc3b28eaa5c)" d="M 144.2304 298.944 
L 144.2304 6.912 
" style="fill:none;stroke:#b0b0b0;stroke-linecap:square;stroke-width:0.8;"/>
     </g>
     <g id="line2d_4">
      <g>
       <use style="stroke:#000000;stroke-width:0.8;" x="144.2304" xlink:href="#mdbbbc87696" y="298.944"/>
      </g>
     </g>
     <g id="text_2">
      <!-- 2 -->
      <g transform="translate(138.822275 318.861344)scale(0.17 -0.17)">
       <defs>
        <path d="M 19.1875 8.296875 
L 53.609375 8.296875 
L 53.609375 0 
L 7.328125 0 
L 7.328125 8.296875 
Q 12.9375 14.109375 22.625 23.890625 
Q 32.328125 33.6875 34.8125 36.53125 
Q 39.546875 41.84375 41.421875 45.53125 
Q 43.3125 49.21875 43.3125 52.78125 
Q 43.3125 58.59375 39.234375 62.25 
Q 35.15625 65.921875 28.609375 65.921875 
Q 23.96875 65.921875 18.8125 64.3125 
Q 13.671875 62.703125 7.8125 59.421875 
L 7.8125 69.390625 
Q 13.765625 71.78125 18.9375 73 
Q 24.125 74.21875 28.421875 74.21875 
Q 39.75 74.21875 46.484375 68.546875 
Q 53.21875 62.890625 53.21875 53.421875 
Q 53.21875 48.921875 51.53125 44.890625 
Q 49.859375 40.875 45.40625 35.40625 
Q 44.1875 33.984375 37.640625 27.21875 
Q 31.109375 20.453125 19.1875 8.296875 
z
" id="DejaVuSans-50"/>
       </defs>
       <use xlink:href="#DejaVuSans-50"/>
      </g>
     </g>
    </g>
    <g id="xtick_3">
     <g id="line2d_5">
      <path clip-path="url(#pc3b28eaa5c)" d="M 230.8608 298.944 
L 230.8608 6.912 
" style="fill:none;stroke:#b0b0b0;stroke-linecap:square;stroke-width:0.8;"/>
     </g>
     <g id="line2d_6">
      <g>
       <use style="stroke:#000000;stroke-width:0.8;" x="230.8608" xlink:href="#mdbbbc87696" y="298.944"/>
      </g>
     </g>
     <g id="text_3">
      <!-- 4 -->
      <g transform="translate(225.452675 318.861344)scale(0.17 -0.17)">
       <defs>
        <path d="M 37.796875 64.3125 
L 12.890625 25.390625 
L 37.796875 25.390625 
z
M 35.203125 72.90625 
L 47.609375 72.90625 
L 47.609375 25.390625 
L 58.015625 25.390625 
L 58.015625 17.1875 
L 47.609375 17.1875 
L 47.609375 0 
L 37.796875 0 
L 37.796875 17.1875 
L 4.890625 17.1875 
L 4.890625 26.703125 
z
" id="DejaVuSans-52"/>
       </defs>
       <use xlink:href="#DejaVuSans-52"/>
      </g>
     </g>
    </g>
    <g id="xtick_4">
     <g id="line2d_7">
      <path clip-path="url(#pc3b28eaa5c)" d="M 317.4912 298.944 
L 317.4912 6.912 
" style="fill:none;stroke:#b0b0b0;stroke-linecap:square;stroke-width:0.8;"/>
     </g>
     <g id="line2d_8">
      <g>
       <use style="stroke:#000000;stroke-width:0.8;" x="317.4912" xlink:href="#mdbbbc87696" y="298.944"/>
      </g>
     </g>
     <g id="text_4">
      <!-- 6 -->
      <g transform="translate(312.083075 318.861344)scale(0.17 -0.17)">
       <defs>
        <path d="M 33.015625 40.375 
Q 26.375 40.375 22.484375 35.828125 
Q 18.609375 31.296875 18.609375 23.390625 
Q 18.609375 15.53125 22.484375 10.953125 
Q 26.375 6.390625 33.015625 6.390625 
Q 39.65625 6.390625 43.53125 10.953125 
Q 47.40625 15.53125 47.40625 23.390625 
Q 47.40625 31.296875 43.53125 35.828125 
Q 39.65625 40.375 33.015625 40.375 
z
M 52.59375 71.296875 
L 52.59375 62.3125 
Q 48.875 64.0625 45.09375 64.984375 
Q 41.3125 65.921875 37.59375 65.921875 
Q 27.828125 65.921875 22.671875 59.328125 
Q 17.53125 52.734375 16.796875 39.40625 
Q 19.671875 43.65625 24.015625 45.921875 
Q 28.375 48.1875 33.59375 48.1875 
Q 44.578125 48.1875 50.953125 41.515625 
Q 57.328125 34.859375 57.328125 23.390625 
Q 57.328125 12.15625 50.6875 5.359375 
Q 44.046875 -1.421875 33.015625 -1.421875 
Q 20.359375 -1.421875 13.671875 8.265625 
Q 6.984375 17.96875 6.984375 36.375 
Q 6.984375 53.65625 15.1875 63.9375 
Q 23.390625 74.21875 37.203125 74.21875 
Q 40.921875 74.21875 44.703125 73.484375 
Q 48.484375 72.75 52.59375 71.296875 
z
" id="DejaVuSans-54"/>
       </defs>
       <use xlink:href="#DejaVuSans-54"/>
      </g>
     </g>
    </g>
    <g id="xtick_5">
     <g id="line2d_9">
      <path clip-path="url(#pc3b28eaa5c)" d="M 100.9152 298.944 
L 100.9152 6.912 
" style="fill:none;stroke:#b0b0b0;stroke-linecap:square;stroke-width:0.8;"/>
     </g>
     <g id="line2d_10">
      <defs>
       <path d="M 0 0 
L 0 2 
" id="mda90c745d5" style="stroke:#000000;stroke-width:0.6;"/>
      </defs>
      <g>
       <use style="stroke:#000000;stroke-width:0.6;" x="100.9152" xlink:href="#mda90c745d5" y="298.944"/>
      </g>
     </g>
    </g>
    <g id="xtick_6">
     <g id="line2d_11">
      <path clip-path="url(#pc3b28eaa5c)" d="M 187.5456 298.944 
L 187.5456 6.912 
" style="fill:none;stroke:#b0b0b0;stroke-linecap:square;stroke-width:0.8;"/>
     </g>
     <g id="line2d_12">
      <g>
       <use style="stroke:#000000;stroke-width:0.6;" x="187.5456" xlink:href="#mda90c745d5" y="298.944"/>
      </g>
     </g>
    </g>
    <g id="xtick_7">
     <g id="line2d_13">
      <path clip-path="url(#pc3b28eaa5c)" d="M 274.176 298.944 
L 274.176 6.912 
" style="fill:none;stroke:#b0b0b0;stroke-linecap:square;stroke-width:0.8;"/>
     </g>
     <g id="line2d_14">
      <g>
       <use style="stroke:#000000;stroke-width:0.6;" x="274.176" xlink:href="#mda90c745d5" y="298.944"/>
      </g>
     </g>
    </g>
    <g id="xtick_8">
     <g id="line2d_15">
      <path clip-path="url(#pc3b28eaa5c)" d="M 360.8064 298.944 
L 360.8064 6.912 
" style="fill:none;stroke:#b0b0b0;stroke-linecap:square;stroke-width:0.8;"/>
     </g>
     <g id="line2d_16">
      <g>
       <use style="stroke:#000000;stroke-width:0.6;" x="360.8064" xlink:href="#mda90c745d5" y="298.944"/>
      </g>
     </g>
    </g>
    <g id="text_5">
     <!-- log10(evals / dimension) -->
     <g transform="translate(104.238825 339.314156)scale(0.17 -0.17)">
      <defs>
       <path d="M 9.421875 75.984375 
L 18.40625 75.984375 
L 18.40625 0 
L 9.421875 0 
z
" id="DejaVuSans-108"/>
       <path d="M 30.609375 48.390625 
Q 23.390625 48.390625 19.1875 42.75 
Q 14.984375 37.109375 14.984375 27.296875 
Q 14.984375 17.484375 19.15625 11.84375 
Q 23.34375 6.203125 30.609375 6.203125 
Q 37.796875 6.203125 41.984375 11.859375 
Q 46.1875 17.53125 46.1875 27.296875 
Q 46.1875 37.015625 41.984375 42.703125 
Q 37.796875 48.390625 30.609375 48.390625 
z
M 30.609375 56 
Q 42.328125 56 49.015625 48.375 
Q 55.71875 40.765625 55.71875 27.296875 
Q 55.71875 13.875 49.015625 6.21875 
Q 42.328125 -1.421875 30.609375 -1.421875 
Q 18.84375 -1.421875 12.171875 6.21875 
Q 5.515625 13.875 5.515625 27.296875 
Q 5.515625 40.765625 12.171875 48.375 
Q 18.84375 56 30.609375 56 
z
" id="DejaVuSans-111"/>
       <path d="M 45.40625 27.984375 
Q 45.40625 37.75 41.375 43.109375 
Q 37.359375 48.484375 30.078125 48.484375 
Q 22.859375 48.484375 18.828125 43.109375 
Q 14.796875 37.75 14.796875 27.984375 
Q 14.796875 18.265625 18.828125 12.890625 
Q 22.859375 7.515625 30.078125 7.515625 
Q 37.359375 7.515625 41.375 12.890625 
Q 45.40625 18.265625 45.40625 27.984375 
z
M 54.390625 6.78125 
Q 54.390625 -7.171875 48.1875 -13.984375 
Q 42 -20.796875 29.203125 -20.796875 
Q 24.46875 -20.796875 20.265625 -20.09375 
Q 16.0625 -19.390625 12.109375 -17.921875 
L 12.109375 -9.1875 
Q 16.0625 -11.328125 19.921875 -12.34375 
Q 23.78125 -13.375 27.78125 -13.375 
Q 36.625 -13.375 41.015625 -8.765625 
Q 45.40625 -4.15625 45.40625 5.171875 
L 45.40625 9.625 
Q 42.625 4.78125 38.28125 2.390625 
Q 33.9375 0 27.875 0 
Q 17.828125 0 11.671875 7.65625 
Q 5.515625 15.328125 5.515625 27.984375 
Q 5.515625 40.671875 11.671875 48.328125 
Q 17.828125 56 27.875 56 
Q 33.9375 56 38.28125 53.609375 
Q 42.625 51.21875 45.40625 46.390625 
L 45.40625 54.6875 
L 54.390625 54.6875 
z
" id="DejaVuSans-103"/>
       <path d="M 12.40625 8.296875 
L 28.515625 8.296875 
L 28.515625 63.921875 
L 10.984375 60.40625 
L 10.984375 69.390625 
L 28.421875 72.90625 
L 38.28125 72.90625 
L 38.28125 8.296875 
L 54.390625 8.296875 
L 54.390625 0 
L 12.40625 0 
z
" id="DejaVuSans-49"/>
       <path d="M 31 75.875 
Q 24.46875 64.65625 21.28125 53.65625 
Q 18.109375 42.671875 18.109375 31.390625 
Q 18.109375 20.125 21.3125 9.0625 
Q 24.515625 -2 31 -13.1875 
L 23.1875 -13.1875 
Q 15.875 -1.703125 12.234375 9.375 
Q 8.59375 20.453125 8.59375 31.390625 
Q 8.59375 42.28125 12.203125 53.3125 
Q 15.828125 64.359375 23.1875 75.875 
z
" id="DejaVuSans-40"/>
       <path d="M 56.203125 29.59375 
L 56.203125 25.203125 
L 14.890625 25.203125 
Q 15.484375 15.921875 20.484375 11.0625 
Q 25.484375 6.203125 34.421875 6.203125 
Q 39.59375 6.203125 44.453125 7.46875 
Q 49.3125 8.734375 54.109375 11.28125 
L 54.109375 2.78125 
Q 49.265625 0.734375 44.1875 -0.34375 
Q 39.109375 -1.421875 33.890625 -1.421875 
Q 20.796875 -1.421875 13.15625 6.1875 
Q 5.515625 13.8125 5.515625 26.8125 
Q 5.515625 40.234375 12.765625 48.109375 
Q 20.015625 56 32.328125 56 
Q 43.359375 56 49.78125 48.890625 
Q 56.203125 41.796875 56.203125 29.59375 
z
M 47.21875 32.234375 
Q 47.125 39.59375 43.09375 43.984375 
Q 39.0625 48.390625 32.421875 48.390625 
Q 24.90625 48.390625 20.390625 44.140625 
Q 15.875 39.890625 15.1875 32.171875 
z
" id="DejaVuSans-101"/>
       <path d="M 2.984375 54.6875 
L 12.5 54.6875 
L 29.59375 8.796875 
L 46.6875 54.6875 
L 56.203125 54.6875 
L 35.6875 0 
L 23.484375 0 
z
" id="DejaVuSans-118"/>
       <path d="M 34.28125 27.484375 
Q 23.390625 27.484375 19.1875 25 
Q 14.984375 22.515625 14.984375 16.5 
Q 14.984375 11.71875 18.140625 8.90625 
Q 21.296875 6.109375 26.703125 6.109375 
Q 34.1875 6.109375 38.703125 11.40625 
Q 43.21875 16.703125 43.21875 25.484375 
L 43.21875 27.484375 
z
M 52.203125 31.203125 
L 52.203125 0 
L 43.21875 0 
L 43.21875 8.296875 
Q 40.140625 3.328125 35.546875 0.953125 
Q 30.953125 -1.421875 24.3125 -1.421875 
Q 15.921875 -1.421875 10.953125 3.296875 
Q 6 8.015625 6 15.921875 
Q 6 25.140625 12.171875 29.828125 
Q 18.359375 34.515625 30.609375 34.515625 
L 43.21875 34.515625 
L 43.21875 35.40625 
Q 43.21875 41.609375 39.140625 45 
Q 35.0625 48.390625 27.6875 48.390625 
Q 23 48.390625 18.546875 47.265625 
Q 14.109375 46.140625 10.015625 43.890625 
L 10.015625 52.203125 
Q 14.9375 54.109375 19.578125 55.046875 
Q 24.21875 56 28.609375 56 
Q 40.484375 56 46.34375 49.84375 
Q 52.203125 43.703125 52.203125 31.203125 
z
" id="DejaVuSans-97"/>
       <path d="M 44.28125 53.078125 
L 44.28125 44.578125 
Q 40.484375 46.53125 36.375 47.5 
Q 32.28125 48.484375 27.875 48.484375 
Q 21.1875 48.484375 17.84375 46.4375 
Q 14.5 44.390625 14.5 40.28125 
Q 14.5 37.15625 16.890625 35.375 
Q 19.28125 33.59375 26.515625 31.984375 
L 29.59375 31.296875 
Q 39.15625 29.25 43.1875 25.515625 
Q 47.21875 21.78125 47.21875 15.09375 
Q 47.21875 7.46875 41.1875 3.015625 
Q 35.15625 -1.421875 24.609375 -1.421875 
Q 20.21875 -1.421875 15.453125 -0.5625 
Q 10.6875 0.296875 5.421875 2 
L 5.421875 11.28125 
Q 10.40625 8.6875 15.234375 7.390625 
Q 20.0625 6.109375 24.8125 6.109375 
Q 31.15625 6.109375 34.5625 8.28125 
Q 37.984375 10.453125 37.984375 14.40625 
Q 37.984375 18.0625 35.515625 20.015625 
Q 33.0625 21.96875 24.703125 23.78125 
L 21.578125 24.515625 
Q 13.234375 26.265625 9.515625 29.90625 
Q 5.8125 33.546875 5.8125 39.890625 
Q 5.8125 47.609375 11.28125 51.796875 
Q 16.75 56 26.8125 56 
Q 31.78125 56 36.171875 55.265625 
Q 40.578125 54.546875 44.28125 53.078125 
z
" id="DejaVuSans-115"/>
       <path id="DejaVuSans-32"/>
       <path d="M 25.390625 72.90625 
L 33.6875 72.90625 
L 8.296875 -9.28125 
L 0 -9.28125 
z
" id="DejaVuSans-47"/>
       <path d="M 45.40625 46.390625 
L 45.40625 75.984375 
L 54.390625 75.984375 
L 54.390625 0 
L 45.40625 0 
L 45.40625 8.203125 
Q 42.578125 3.328125 38.25 0.953125 
Q 33.9375 -1.421875 27.875 -1.421875 
Q 17.96875 -1.421875 11.734375 6.484375 
Q 5.515625 14.40625 5.515625 27.296875 
Q 5.515625 40.1875 11.734375 48.09375 
Q 17.96875 56 27.875 56 
Q 33.9375 56 38.25 53.625 
Q 42.578125 51.265625 45.40625 46.390625 
z
M 14.796875 27.296875 
Q 14.796875 17.390625 18.875 11.75 
Q 22.953125 6.109375 30.078125 6.109375 
Q 37.203125 6.109375 41.296875 11.75 
Q 45.40625 17.390625 45.40625 27.296875 
Q 45.40625 37.203125 41.296875 42.84375 
Q 37.203125 48.484375 30.078125 48.484375 
Q 22.953125 48.484375 18.875 42.84375 
Q 14.796875 37.203125 14.796875 27.296875 
z
" id="DejaVuSans-100"/>
       <path d="M 9.421875 54.6875 
L 18.40625 54.6875 
L 18.40625 0 
L 9.421875 0 
z
M 9.421875 75.984375 
L 18.40625 75.984375 
L 18.40625 64.59375 
L 9.421875 64.59375 
z
" id="DejaVuSans-105"/>
       <path d="M 52 44.1875 
Q 55.375 50.25 60.0625 53.125 
Q 64.75 56 71.09375 56 
Q 79.640625 56 84.28125 50.015625 
Q 88.921875 44.046875 88.921875 33.015625 
L 88.921875 0 
L 79.890625 0 
L 79.890625 32.71875 
Q 79.890625 40.578125 77.09375 44.375 
Q 74.3125 48.1875 68.609375 48.1875 
Q 61.625 48.1875 57.5625 43.546875 
Q 53.515625 38.921875 53.515625 30.90625 
L 53.515625 0 
L 44.484375 0 
L 44.484375 32.71875 
Q 44.484375 40.625 41.703125 44.40625 
Q 38.921875 48.1875 33.109375 48.1875 
Q 26.21875 48.1875 22.15625 43.53125 
Q 18.109375 38.875 18.109375 30.90625 
L 18.109375 0 
L 9.078125 0 
L 9.078125 54.6875 
L 18.109375 54.6875 
L 18.109375 46.1875 
Q 21.1875 51.21875 25.484375 53.609375 
Q 29.78125 56 35.6875 56 
Q 41.65625 56 45.828125 52.96875 
Q 50 49.953125 52 44.1875 
z
" id="DejaVuSans-109"/>
       <path d="M 54.890625 33.015625 
L 54.890625 0 
L 45.90625 0 
L 45.90625 32.71875 
Q 45.90625 40.484375 42.875 44.328125 
Q 39.84375 48.1875 33.796875 48.1875 
Q 26.515625 48.1875 22.3125 43.546875 
Q 18.109375 38.921875 18.109375 30.90625 
L 18.109375 0 
L 9.078125 0 
L 9.078125 54.6875 
L 18.109375 54.6875 
L 18.109375 46.1875 
Q 21.34375 51.125 25.703125 53.5625 
Q 30.078125 56 35.796875 56 
Q 45.21875 56 50.046875 50.171875 
Q 54.890625 44.34375 54.890625 33.015625 
z
" id="DejaVuSans-110"/>
       <path d="M 8.015625 75.875 
L 15.828125 75.875 
Q 23.140625 64.359375 26.78125 53.3125 
Q 30.421875 42.28125 30.421875 31.390625 
Q 30.421875 20.453125 26.78125 9.375 
Q 23.140625 -1.703125 15.828125 -13.1875 
L 8.015625 -13.1875 
Q 14.5 -2 17.703125 9.0625 
Q 20.90625 20.125 20.90625 31.390625 
Q 20.90625 42.671875 17.703125 53.65625 
Q 14.5 64.65625 8.015625 75.875 
z
" id="DejaVuSans-41"/>
      </defs>
      <use xlink:href="#DejaVuSans-108"/>
      <use x="27.783203" xlink:href="#DejaVuSans-111"/>
      <use x="88.964844" xlink:href="#DejaVuSans-103"/>
      <use x="152.441406" xlink:href="#DejaVuSans-49"/>
      <use x="216.064453" xlink:href="#DejaVuSans-48"/>
      <use x="279.6875" xlink:href="#DejaVuSans-40"/>
      <use x="318.701172" xlink:href="#DejaVuSans-101"/>
      <use x="380.224609" xlink:href="#DejaVuSans-118"/>
      <use x="439.404297" xlink:href="#DejaVuSans-97"/>
      <use x="500.683594" xlink:href="#DejaVuSans-108"/>
      <use x="528.466797" xlink:href="#DejaVuSans-115"/>
      <use x="580.566406" xlink:href="#DejaVuSans-32"/>
      <use x="612.353516" xlink:href="#DejaVuSans-47"/>
      <use x="646.044922" xlink:href="#DejaVuSans-32"/>
      <use x="677.832031" xlink:href="#DejaVuSans-100"/>
      <use x="741.308594" xlink:href="#DejaVuSans-105"/>
      <use x="769.091797" xlink:href="#DejaVuSans-109"/>
      <use x="866.503906" xlink:href="#DejaVuSans-101"/>
      <use x="928.027344" xlink:href="#DejaVuSans-110"/>
      <use x="991.40625" xlink:href="#DejaVuSans-115"/>
      <use x="1043.505859" xlink:href="#DejaVuSans-105"/>
      <use x="1071.289062" xlink:href="#DejaVuSans-111"/>
      <use x="1132.470703" xlink:href="#DejaVuSans-110"/>
      <use x="1195.849609" xlink:href="#DejaVuSans-41"/>
     </g>
    </g>
   </g>
   <g id="matplotlib.axis_2">
    <g id="ytick_1">
     <g id="line2d_17">
      <path clip-path="url(#pc3b28eaa5c)" d="M 57.6 298.944 
L 360.8064 298.944 
" style="fill:none;stroke:#b0b0b0;stroke-linecap:square;stroke-width:0.8;"/>
     </g>
     <g id="line2d_18">
      <defs>
       <path d="M 0 0 
L -3.5 0 
" id="me22a184186" style="stroke:#000000;stroke-width:0.8;"/>
      </defs>
      <g>
       <use style="stroke:#000000;stroke-width:0.8;" x="57.6" xlink:href="#me22a184186" y="298.944"/>
      </g>
     </g>
     <g id="text_6">
      <!-- 0.0 -->
      <g transform="translate(25.155 305.02275)scale(0.16 -0.16)">
       <defs>
        <path d="M 10.6875 12.40625 
L 21 12.40625 
L 21 0 
L 10.6875 0 
z
" id="DejaVuSans-46"/>
       </defs>
       <use xlink:href="#DejaVuSans-48"/>
       <use x="63.623047" xlink:href="#DejaVuSans-46"/>
       <use x="95.410156" xlink:href="#DejaVuSans-48"/>
      </g>
     </g>
    </g>
    <g id="ytick_2">
     <g id="line2d_19">
      <path clip-path="url(#pc3b28eaa5c)" d="M 57.6 240.5376 
L 360.8064 240.5376 
" style="fill:none;stroke:#b0b0b0;stroke-linecap:square;stroke-width:0.8;"/>
     </g>
     <g id="line2d_20">
      <g>
       <use style="stroke:#000000;stroke-width:0.8;" x="57.6" xlink:href="#me22a184186" y="240.5376"/>
      </g>
     </g>
     <g id="text_7">
      <!-- 0.2 -->
      <g transform="translate(25.155 246.61635)scale(0.16 -0.16)">
       <use xlink:href="#DejaVuSans-48"/>
       <use x="63.623047" xlink:href="#DejaVuSans-46"/>
       <use x="95.410156" xlink:href="#DejaVuSans-50"/>
      </g>
     </g>
    </g>
    <g id="ytick_3">
     <g id="line2d_21">
      <path clip-path="url(#pc3b28eaa5c)" d="M 57.6 182.1312 
L 360.8064 182.1312 
" style="fill:none;stroke:#b0b0b0;stroke-linecap:square;stroke-width:0.8;"/>
     </g>
     <g id="line2d_22">
      <g>
       <use style="stroke:#000000;stroke-width:0.8;" x="57.6" xlink:href="#me22a184186" y="182.1312"/>
      </g>
     </g>
     <g id="text_8">
      <!-- 0.4 -->
      <g transform="translate(25.155 188.20995)scale(0.16 -0.16)">
       <use xlink:href="#DejaVuSans-48"/>
       <use x="63.623047" xlink:href="#DejaVuSans-46"/>
       <use x="95.410156" xlink:href="#DejaVuSans-52"/>
      </g>
     </g>
    </g>
    <g id="ytick_4">
     <g id="line2d_23">
      <path clip-path="url(#pc3b28eaa5c)" d="M 57.6 123.7248 
L 360.8064 123.7248 
" style="fill:none;stroke:#b0b0b0;stroke-linecap:square;stroke-width:0.8;"/>
     </g>
     <g id="line2d_24">
      <g>
       <use style="stroke:#000000;stroke-width:0.8;" x="57.6" xlink:href="#me22a184186" y="123.7248"/>
      </g>
     </g>
     <g id="text_9">
      <!-- 0.6 -->
      <g transform="translate(25.155 129.80355)scale(0.16 -0.16)">
       <use xlink:href="#DejaVuSans-48"/>
       <use x="63.623047" xlink:href="#DejaVuSans-46"/>
       <use x="95.410156" xlink:href="#DejaVuSans-54"/>
      </g>
     </g>
    </g>
    <g id="ytick_5">
     <g id="line2d_25">
      <path clip-path="url(#pc3b28eaa5c)" d="M 57.6 65.3184 
L 360.8064 65.3184 
" style="fill:none;stroke:#b0b0b0;stroke-linecap:square;stroke-width:0.8;"/>
     </g>
     <g id="line2d_26">
      <g>
       <use style="stroke:#000000;stroke-width:0.8;" x="57.6" xlink:href="#me22a184186" y="65.3184"/>
      </g>
     </g>
     <g id="text_10">
      <!-- 0.8 -->
      <g transform="translate(25.155 71.39715)scale(0.16 -0.16)">
       <defs>
        <path d="M 31.78125 34.625 
Q 24.75 34.625 20.71875 30.859375 
Q 16.703125 27.09375 16.703125 20.515625 
Q 16.703125 13.921875 20.71875 10.15625 
Q 24.75 6.390625 31.78125 6.390625 
Q 38.8125 6.390625 42.859375 10.171875 
Q 46.921875 13.96875 46.921875 20.515625 
Q 46.921875 27.09375 42.890625 30.859375 
Q 38.875 34.625 31.78125 34.625 
z
M 21.921875 38.8125 
Q 15.578125 40.375 12.03125 44.71875 
Q 8.5 49.078125 8.5 55.328125 
Q 8.5 64.0625 14.71875 69.140625 
Q 20.953125 74.21875 31.78125 74.21875 
Q 42.671875 74.21875 48.875 69.140625 
Q 55.078125 64.0625 55.078125 55.328125 
Q 55.078125 49.078125 51.53125 44.71875 
Q 48 40.375 41.703125 38.8125 
Q 48.828125 37.15625 52.796875 32.3125 
Q 56.78125 27.484375 56.78125 20.515625 
Q 56.78125 9.90625 50.3125 4.234375 
Q 43.84375 -1.421875 31.78125 -1.421875 
Q 19.734375 -1.421875 13.25 4.234375 
Q 6.78125 9.90625 6.78125 20.515625 
Q 6.78125 27.484375 10.78125 32.3125 
Q 14.796875 37.15625 21.921875 38.8125 
z
M 18.3125 54.390625 
Q 18.3125 48.734375 21.84375 45.5625 
Q 25.390625 42.390625 31.78125 42.390625 
Q 38.140625 42.390625 41.71875 45.5625 
Q 45.3125 48.734375 45.3125 54.390625 
Q 45.3125 60.0625 41.71875 63.234375 
Q 38.140625 66.40625 31.78125 66.40625 
Q 25.390625 66.40625 21.84375 63.234375 
Q 18.3125 60.0625 18.3125 54.390625 
z
" id="DejaVuSans-56"/>
       </defs>
       <use xlink:href="#DejaVuSans-48"/>
       <use x="63.623047" xlink:href="#DejaVuSans-46"/>
       <use x="95.410156" xlink:href="#DejaVuSans-56"/>
      </g>
     </g>
    </g>
    <g id="ytick_6">
     <g id="line2d_27">
      <path clip-path="url(#pc3b28eaa5c)" d="M 57.6 6.912 
L 360.8064 6.912 
" style="fill:none;stroke:#b0b0b0;stroke-linecap:square;stroke-width:0.8;"/>
     </g>
     <g id="line2d_28">
      <g>
       <use style="stroke:#000000;stroke-width:0.8;" x="57.6" xlink:href="#me22a184186" y="6.912"/>
      </g>
     </g>
     <g id="text_11">
      <!-- 1.0 -->
      <g transform="translate(25.155 12.99075)scale(0.16 -0.16)">
       <use xlink:href="#DejaVuSans-49"/>
       <use x="63.623047" xlink:href="#DejaVuSans-46"/>
       <use x="95.410156" xlink:href="#DejaVuSans-48"/>
      </g>
     </g>
    </g>
    <g id="text_12">
     <!-- Fraction of function,target pairs -->
     <g transform="translate(17.619531 287.313)rotate(-90)scale(0.17 -0.17)">
      <defs>
       <path d="M 9.8125 72.90625 
L 51.703125 72.90625 
L 51.703125 64.59375 
L 19.671875 64.59375 
L 19.671875 43.109375 
L 48.578125 43.109375 
L 48.578125 34.8125 
L 19.671875 34.8125 
L 19.671875 0 
L 9.8125 0 
z
" id="DejaVuSans-70"/>
       <path d="M 41.109375 46.296875 
Q 39.59375 47.171875 37.8125 47.578125 
Q 36.03125 48 33.890625 48 
Q 26.265625 48 22.1875 43.046875 
Q 18.109375 38.09375 18.109375 28.8125 
L 18.109375 0 
L 9.078125 0 
L 9.078125 54.6875 
L 18.109375 54.6875 
L 18.109375 46.1875 
Q 20.953125 51.171875 25.484375 53.578125 
Q 30.03125 56 36.53125 56 
Q 37.453125 56 38.578125 55.875 
Q 39.703125 55.765625 41.0625 55.515625 
z
" id="DejaVuSans-114"/>
       <path d="M 48.78125 52.59375 
L 48.78125 44.1875 
Q 44.96875 46.296875 41.140625 47.34375 
Q 37.3125 48.390625 33.40625 48.390625 
Q 24.65625 48.390625 19.8125 42.84375 
Q 14.984375 37.3125 14.984375 27.296875 
Q 14.984375 17.28125 19.8125 11.734375 
Q 24.65625 6.203125 33.40625 6.203125 
Q 37.3125 6.203125 41.140625 7.25 
Q 44.96875 8.296875 48.78125 10.40625 
L 48.78125 2.09375 
Q 45.015625 0.34375 40.984375 -0.53125 
Q 36.96875 -1.421875 32.421875 -1.421875 
Q 20.0625 -1.421875 12.78125 6.34375 
Q 5.515625 14.109375 5.515625 27.296875 
Q 5.515625 40.671875 12.859375 48.328125 
Q 20.21875 56 33.015625 56 
Q 37.15625 56 41.109375 55.140625 
Q 45.0625 54.296875 48.78125 52.59375 
z
" id="DejaVuSans-99"/>
       <path d="M 18.3125 70.21875 
L 18.3125 54.6875 
L 36.8125 54.6875 
L 36.8125 47.703125 
L 18.3125 47.703125 
L 18.3125 18.015625 
Q 18.3125 11.328125 20.140625 9.421875 
Q 21.96875 7.515625 27.59375 7.515625 
L 36.8125 7.515625 
L 36.8125 0 
L 27.59375 0 
Q 17.1875 0 13.234375 3.875 
Q 9.28125 7.765625 9.28125 18.015625 
L 9.28125 47.703125 
L 2.6875 47.703125 
L 2.6875 54.6875 
L 9.28125 54.6875 
L 9.28125 70.21875 
z
" id="DejaVuSans-116"/>
       <path d="M 37.109375 75.984375 
L 37.109375 68.5 
L 28.515625 68.5 
Q 23.6875 68.5 21.796875 66.546875 
Q 19.921875 64.59375 19.921875 59.515625 
L 19.921875 54.6875 
L 34.71875 54.6875 
L 34.71875 47.703125 
L 19.921875 47.703125 
L 19.921875 0 
L 10.890625 0 
L 10.890625 47.703125 
L 2.296875 47.703125 
L 2.296875 54.6875 
L 10.890625 54.6875 
L 10.890625 58.5 
Q 10.890625 67.625 15.140625 71.796875 
Q 19.390625 75.984375 28.609375 75.984375 
z
" id="DejaVuSans-102"/>
       <path d="M 8.5 21.578125 
L 8.5 54.6875 
L 17.484375 54.6875 
L 17.484375 21.921875 
Q 17.484375 14.15625 20.5 10.265625 
Q 23.53125 6.390625 29.59375 6.390625 
Q 36.859375 6.390625 41.078125 11.03125 
Q 45.3125 15.671875 45.3125 23.6875 
L 45.3125 54.6875 
L 54.296875 54.6875 
L 54.296875 0 
L 45.3125 0 
L 45.3125 8.40625 
Q 42.046875 3.421875 37.71875 1 
Q 33.40625 -1.421875 27.6875 -1.421875 
Q 18.265625 -1.421875 13.375 4.4375 
Q 8.5 10.296875 8.5 21.578125 
z
M 31.109375 56 
z
" id="DejaVuSans-117"/>
       <path d="M 11.71875 12.40625 
L 22.015625 12.40625 
L 22.015625 4 
L 14.015625 -11.625 
L 7.71875 -11.625 
L 11.71875 4 
z
" id="DejaVuSans-44"/>
       <path d="M 18.109375 8.203125 
L 18.109375 -20.796875 
L 9.078125 -20.796875 
L 9.078125 54.6875 
L 18.109375 54.6875 
L 18.109375 46.390625 
Q 20.953125 51.265625 25.265625 53.625 
Q 29.59375 56 35.59375 56 
Q 45.5625 56 51.78125 48.09375 
Q 58.015625 40.1875 58.015625 27.296875 
Q 58.015625 14.40625 51.78125 6.484375 
Q 45.5625 -1.421875 35.59375 -1.421875 
Q 29.59375 -1.421875 25.265625 0.953125 
Q 20.953125 3.328125 18.109375 8.203125 
z
M 48.6875 27.296875 
Q 48.6875 37.203125 44.609375 42.84375 
Q 40.53125 48.484375 33.40625 48.484375 
Q 26.265625 48.484375 22.1875 42.84375 
Q 18.109375 37.203125 18.109375 27.296875 
Q 18.109375 17.390625 22.1875 11.75 
Q 26.265625 6.109375 33.40625 6.109375 
Q 40.53125 6.109375 44.609375 11.75 
Q 48.6875 17.390625 48.6875 27.296875 
z
" id="DejaVuSans-112"/>
      </defs>
      <use xlink:href="#DejaVuSans-70"/>
      <use x="50.269531" xlink:href="#DejaVuSans-114"/>
      <use x="91.382812" xlink:href="#DejaVuSans-97"/>
      <use x="152.662109" xlink:href="#DejaVuSans-99"/>
      <use x="207.642578" xlink:href="#DejaVuSans-116"/>
      <use x="246.851562" xlink:href="#DejaVuSans-105"/>
      <use x="274.634766" xlink:href="#DejaVuSans-111"/>
      <use x="335.816406" xlink:href="#DejaVuSans-110"/>
      <use x="399.195312" xlink:href="#DejaVuSans-32"/>
      <use x="430.982422" xlink:href="#DejaVuSans-111"/>
      <use x="492.164062" xlink:href="#DejaVuSans-102"/>
      <use x="527.369141" xlink:href="#DejaVuSans-32"/>
      <use x="559.15625" xlink:href="#DejaVuSans-102"/>
      <use x="594.361328" xlink:href="#DejaVuSans-117"/>
      <use x="657.740234" xlink:href="#DejaVuSans-110"/>
      <use x="721.119141" xlink:href="#DejaVuSans-99"/>
      <use x="776.099609" xlink:href="#DejaVuSans-116"/>
      <use x="815.308594" xlink:href="#DejaVuSans-105"/>
      <use x="843.091797" xlink:href="#DejaVuSans-111"/>
      <use x="904.273438" xlink:href="#DejaVuSans-110"/>
      <use x="967.652344" xlink:href="#DejaVuSans-44"/>
      <use x="999.439453" xlink:href="#DejaVuSans-116"/>
      <use x="1038.648438" xlink:href="#DejaVuSans-97"/>
      <use x="1099.927734" xlink:href="#DejaVuSans-114"/>
      <use x="1139.291016" xlink:href="#DejaVuSans-103"/>
      <use x="1202.767578" xlink:href="#DejaVuSans-101"/>
      <use x="1264.291016" xlink:href="#DejaVuSans-116"/>
      <use x="1303.5" xlink:href="#DejaVuSans-32"/>
      <use x="1335.287109" xlink:href="#DejaVuSans-112"/>
      <use x="1398.763672" xlink:href="#DejaVuSans-97"/>
      <use x="1460.042969" xlink:href="#DejaVuSans-105"/>
      <use x="1487.826172" xlink:href="#DejaVuSans-114"/>
      <use x="1528.939453" xlink:href="#DejaVuSans-115"/>
     </g>
    </g>
   </g>
   <g id="line2d_29">
    <defs>
     <path d="M 0 1.5 
C 0.397805 1.5 0.77937 1.341951 1.06066 1.06066 
C 1.341951 0.77937 1.5 0.397805 1.5 0 
C 1.5 -0.397805 1.341951 -0.77937 1.06066 -1.06066 
C 0.77937 -1.341951 0.397805 -1.5 0 -1.5 
C -0.397805 -1.5 -0.77937 -1.341951 -1.06066 -1.06066 
C -1.341951 -0.77937 -1.5 -0.397805 -1.5 0 
C -1.5 0.397805 -1.341951 0.77937 -1.06066 1.06066 
C -0.77937 1.341951 -0.397805 1.5 0 1.5 
z
" id="m7ac803b6b7" style="stroke:#000080;"/>
    </defs>
    <g>
     <use style="fill:#000080;stroke:#000080;" x="271.335265" xlink:href="#m7ac803b6b7" y="90.010537"/>
     <use style="fill:#000080;stroke:#000080;" x="271.335265" xlink:href="#m7ac803b6b7" y="90.010537"/>
    </g>
   </g>
   <g id="line2d_30">
    <path d="M 143.993774 298.944 
L 143.993774 298.785717 
L 147.667988 298.785717 
L 147.667988 298.627434 
L 149.027905 298.627434 
L 149.027905 298.469151 
L 151.662431 298.469151 
L 151.662431 298.310868 
L 152.137906 298.310868 
L 152.137906 298.152585 
L 152.261059 298.152585 
L 152.322334 297.677737 
L 153.148165 297.677737 
L 153.148165 297.519454 
L 153.610815 297.519454 
L 153.610815 297.361171 
L 155.082676 297.361171 
L 155.177524 297.044605 
L 155.324122 297.044605 
L 155.324122 296.886322 
L 155.797912 296.886322 
L 155.797912 296.728039 
L 155.919572 296.728039 
L 155.919572 296.569756 
L 156.180499 296.569756 
L 156.180499 296.411473 
L 156.428023 296.411473 
L 156.467326 295.778341 
L 156.788483 295.778341 
L 156.788483 295.620059 
L 157.085262 295.620059 
L 157.085262 295.461776 
L 157.507906 295.461776 
L 157.591307 294.828644 
L 157.711126 294.828644 
L 157.711126 294.670361 
L 157.830187 294.670361 
L 157.87578 294.353795 
L 157.966635 294.353795 
L 157.966635 294.195512 
L 158.13806 294.195512 
L 158.227661 293.720663 
L 158.316836 293.720663 
L 158.316836 293.56238 
L 158.449812 293.56238 
L 158.485114 293.245815 
L 158.590624 293.245815 
L 158.590624 293.087532 
L 158.998267 293.087532 
L 159.006845 292.770966 
L 159.270841 292.770966 
L 159.346797 292.4544 
L 159.464343 292.4544 
L 159.464343 292.296117 
L 159.763275 292.296117 
L 159.763275 292.137834 
L 159.959956 292.137834 
L 160.065639 291.821268 
L 160.081845 291.821268 
L 160.081845 291.662985 
L 160.347254 291.662985 
L 160.45079 291.029854 
L 160.474602 291.029854 
L 160.585328 290.713288 
L 160.632583 290.713288 
L 160.632583 290.555005 
L 160.843776 290.555005 
L 160.843776 290.396722 
L 160.9987 290.396722 
L 160.9987 290.238439 
L 161.175299 290.238439 
L 161.251568 289.921873 
L 161.304772 289.921873 
L 161.304772 289.76359 
L 161.561074 289.76359 
L 161.561074 289.605307 
L 161.8287 289.605307 
L 161.858203 289.288741 
L 162.04885 289.288741 
L 162.121664 288.972176 
L 162.165218 288.972176 
L 162.273663 288.65561 
L 162.367145 288.65561 
L 162.474436 288.339044 
L 162.481567 288.339044 
L 162.588209 288.022478 
L 162.708343 288.022478 
L 162.764612 287.547629 
L 162.904554 287.547629 
L 163.001897 286.914498 
L 163.029617 286.914498 
L 163.105638 286.281366 
L 163.181352 286.281366 
L 163.277277 285.331668 
L 163.338686 285.331668 
L 163.338686 285.173385 
L 163.474437 285.173385 
L 163.494715 284.85682 
L 163.609214 284.85682 
L 163.709668 284.381971 
L 163.796296 284.381971 
L 163.856036 283.907122 
L 163.915587 283.907122 
L 164.00785 283.590556 
L 164.040691 283.590556 
L 164.040691 283.432273 
L 164.184516 283.432273 
L 164.184516 283.27399 
L 164.359539 283.27399 
L 164.359539 283.115707 
L 164.654025 283.115707 
L 164.711107 282.799141 
L 164.793253 282.799141 
L 164.887594 282.16601 
L 164.906406 282.16601 
L 164.987706 281.691161 
L 165.018882 281.691161 
L 165.093494 281.216312 
L 165.130689 281.216312 
L 165.14926 280.58318 
L 165.297164 280.58318 
L 165.389018 279.791766 
L 165.43173 279.791766 
L 165.43173 279.633483 
L 165.619726 279.633483 
L 165.679971 278.842068 
L 165.775964 278.842068 
L 165.883373 278.050654 
L 165.889323 278.050654 
L 165.889323 277.892371 
L 166.324427 277.892371 
L 166.359269 277.417522 
L 166.515262 277.417522 
L 166.566974 277.100956 
L 166.635702 277.100956 
L 166.744012 276.626107 
L 166.755376 276.626107 
L 166.778085 276.151259 
L 166.879938 276.151259 
L 166.958777 275.834693 
L 167.160002 275.834693 
L 167.237678 275.043278 
L 167.364598 275.043278 
L 167.386583 274.726712 
L 167.599608 274.726712 
L 167.675494 273.935298 
L 167.734905 273.935298 
L 167.837083 272.827317 
L 167.863881 272.827317 
L 167.901332 272.352468 
L 168.002613 272.352468 
L 168.092773 271.87762 
L 168.166699 271.87762 
L 168.277047 271.244488 
L 168.345034 271.244488 
L 168.449153 270.611356 
L 168.490639 270.611356 
L 168.599108 269.819941 
L 168.645404 269.819941 
L 168.742767 269.503376 
L 168.768306 269.503376 
L 168.824368 269.028527 
L 168.880264 269.028527 
L 168.915748 268.711961 
L 168.996604 268.711961 
L 169.062044 268.395395 
L 169.117239 268.395395 
L 169.227147 267.920546 
L 169.366106 267.920546 
L 169.454898 267.445698 
L 169.489316 267.445698 
L 169.597076 266.970849 
L 169.611723 266.970849 
L 169.626359 266.654283 
L 169.83007 266.654283 
L 169.907097 265.38802 
L 170.00772 265.38802 
L 170.064978 265.071454 
L 170.122062 265.071454 
L 170.183708 264.596605 
L 170.334597 264.596605 
L 170.334597 264.280039 
L 170.554044 264.280039 
L 170.651274 263.646907 
L 170.69279 263.646907 
L 170.803055 262.380644 
L 170.816793 262.380644 
L 170.885331 261.747512 
L 170.939983 261.747512 
L 171.04429 261.11438 
L 171.143524 261.11438 
L 171.188458 260.322966 
L 171.282471 260.322966 
L 171.358235 259.848117 
L 171.45583 259.848117 
L 171.557324 259.214985 
L 171.574919 259.214985 
L 171.667025 257.948722 
L 171.697627 257.948722 
L 171.758683 257.632156 
L 171.810859 257.632156 
L 171.90614 256.682459 
L 171.979437 256.682459 
L 172.082432 256.049327 
L 172.197632 256.049327 
L 172.252847 255.416195 
L 172.316357 255.416195 
L 172.371226 254.941346 
L 172.451132 254.941346 
L 172.55993 253.5168 
L 172.614094 253.5168 
L 172.684689 253.041951 
L 172.788027 253.041951 
L 172.874394 252.40882 
L 172.948109 252.40882 
L 173.045948 250.82599 
L 173.086565 250.82599 
L 173.159454 250.192859 
L 173.203859 250.192859 
L 173.292356 249.243161 
L 173.324433 249.243161 
L 173.352457 248.610029 
L 173.519725 248.610029 
L 173.594908 248.293463 
L 173.673724 248.293463 
L 173.736541 247.660332 
L 173.80696 247.660332 
L 173.904328 246.868917 
L 173.958635 246.868917 
L 174.039803 246.235785 
L 174.070632 246.235785 
L 174.086028 245.91922 
L 174.193446 245.91922 
L 174.277417 244.811239 
L 174.345844 244.811239 
L 174.455566 244.019824 
L 174.474419 244.019824 
L 174.572151 243.070127 
L 174.602121 243.070127 
L 174.710362 242.278712 
L 174.728962 242.278712 
L 174.810582 241.487298 
L 174.866029 241.487298 
L 174.884476 240.854166 
L 174.983774 240.854166 
L 174.994775 240.5376 
L 175.14448 240.5376 
L 175.213453 239.904468 
L 175.267728 239.904468 
L 175.361434 238.796488 
L 175.397351 238.796488 
L 175.50826 237.371941 
L 175.551018 237.371941 
L 175.579469 236.73881 
L 175.70697 236.73881 
L 175.784463 235.15598 
L 175.833612 235.15598 
L 175.833612 234.997698 
L 176.001152 234.997698 
L 176.105113 233.573151 
L 176.149984 233.573151 
L 176.256556 232.781737 
L 176.273688 232.781737 
L 176.277113 232.306888 
L 176.508538 232.306888 
L 176.603009 231.198907 
L 176.636634 231.198907 
L 176.723779 229.616078 
L 176.750512 229.616078 
L 176.767201 229.299512 
L 176.936586 229.299512 
L 177.032227 228.191532 
L 177.048668 228.191532 
L 177.15355 226.925268 
L 177.166619 226.925268 
L 177.25785 226.45042 
L 177.293571 226.45042 
L 177.35511 226.133854 
L 177.484012 226.133854 
L 177.589695 225.500722 
L 177.615226 225.500722 
L 177.643907 224.86759 
L 177.76136 224.86759 
L 177.827698 224.392741 
L 177.890661 224.392741 
L 177.997215 222.968195 
L 178.006588 222.968195 
L 178.081405 221.701932 
L 178.128014 221.701932 
L 178.227063 220.435668 
L 178.248661 220.435668 
L 178.356279 220.119102 
L 178.368539 220.119102 
L 178.438879 219.011122 
L 178.481567 219.011122 
L 178.590893 218.061424 
L 178.606027 218.061424 
L 178.654374 217.428293 
L 178.753699 217.428293 
L 178.819626 216.636878 
L 178.918085 216.636878 
L 178.986404 215.528898 
L 179.036742 215.528898 
L 179.11347 215.054049 
L 179.157594 215.054049 
L 179.227978 214.104351 
L 179.271834 214.104351 
L 179.365055 212.996371 
L 179.423084 212.996371 
L 179.512676 211.730107 
L 179.587491 211.730107 
L 179.662009 209.988995 
L 179.741931 209.988995 
L 179.844191 208.881015 
L 179.872498 208.881015 
L 179.974053 207.139902 
L 180.02182 207.139902 
L 180.108612 205.557073 
L 180.178316 205.557073 
L 180.289307 204.765659 
L 180.294839 204.765659 
L 180.391394 203.341112 
L 180.424384 203.341112 
L 180.512078 202.233132 
L 180.555772 202.233132 
L 180.65914 201.125151 
L 180.667276 201.125151 
L 180.770035 199.858888 
L 180.842708 199.858888 
L 180.952529 198.750907 
L 180.95787 198.750907 
L 181.021841 197.80121 
L 181.143848 197.80121 
L 181.225626 196.693229 
L 181.270322 196.693229 
L 181.375071 195.268683 
L 181.398559 195.268683 
L 181.505192 194.160702 
L 181.541465 194.160702 
L 181.621537 193.685854 
L 181.657586 193.685854 
L 181.757648 192.41959 
L 181.775552 192.41959 
L 181.849543 191.31161 
L 181.902941 191.31161 
L 181.996657 189.887063 
L 182.03956 189.887063 
L 182.137616 188.779083 
L 182.152656 188.779083 
L 182.205202 187.987668 
L 182.275036 187.987668 
L 182.352051 187.196254 
L 182.386729 187.196254 
L 182.495303 185.92999 
L 182.502683 185.92999 
L 182.610591 183.714029 
L 182.642355 183.714029 
L 182.739755 182.1312 
L 182.756748 182.1312 
L 182.82215 181.656351 
L 182.880095 181.656351 
L 182.99066 180.231805 
L 182.995452 180.231805 
L 183.093429 179.282107 
L 183.126768 179.282107 
L 183.20749 178.015844 
L 183.240627 178.015844 
L 183.337339 176.907863 
L 183.358502 176.907863 
L 183.468635 174.691902 
L 183.498983 174.691902 
L 183.580449 172.001093 
L 183.615255 172.001093 
L 183.726204 170.576546 
L 183.728509 170.576546 
L 183.820457 168.993717 
L 183.841084 168.993717 
L 183.950713 166.936039 
L 183.971197 166.936039 
L 184.059706 165.511493 
L 184.084595 165.511493 
L 184.177074 164.245229 
L 184.264622 164.245229 
L 184.362908 162.6624 
L 184.394073 162.6624 
L 184.458466 161.870985 
L 184.51159 161.870985 
L 184.586594 159.496741 
L 184.632771 159.496741 
L 184.740078 158.230478 
L 184.748811 158.230478 
L 184.85546 156.964215 
L 184.874983 156.964215 
L 184.985232 155.539668 
L 184.987388 155.539668 
L 185.073398 154.431688 
L 185.116256 154.431688 
L 185.222977 153.165424 
L 185.239996 153.165424 
L 185.350247 151.582595 
L 185.352361 151.582595 
L 185.45355 150.158049 
L 185.46616 150.158049 
L 185.550014 148.57522 
L 185.579275 148.57522 
L 185.660548 147.150673 
L 185.695865 147.150673 
L 185.793163 146.042693 
L 185.8138 146.042693 
L 185.922799 144.143298 
L 185.943294 144.143298 
L 186.053584 142.560468 
L 186.05562 142.560468 
L 186.165256 140.027941 
L 186.2057 140.027941 
L 186.296383 138.445112 
L 186.344568 138.445112 
L 186.446555 137.020566 
L 186.48839 137.020566 
L 186.589602 136.387434 
L 186.621243 136.387434 
L 186.71978 134.171473 
L 186.735498 134.171473 
L 186.827577 133.380059 
L 186.862722 133.380059 
L 186.971645 131.005815 
L 186.983278 131.005815 
L 187.052926 130.056117 
L 187.106918 130.056117 
L 187.214441 128.156722 
L 187.250782 128.156722 
L 187.342281 126.732176 
L 187.393554 126.732176 
L 187.497569 125.149346 
L 187.542778 125.149346 
L 187.642231 124.199649 
L 187.677756 124.199649 
L 187.720671 123.249951 
L 187.852532 123.249951 
L 187.895051 122.141971 
L 187.977962 122.141971 
L 187.988989 121.825405 
L 188.106212 121.825405 
L 188.208187 121.03399 
L 188.24266 121.03399 
L 188.320446 119.92601 
L 188.358318 119.92601 
L 188.462523 118.34318 
L 188.482221 118.34318 
L 188.546543 117.076917 
L 188.67276 117.076917 
L 188.757612 116.602068 
L 188.792855 116.602068 
L 188.884177 114.54439 
L 189.068973 114.54439 
L 189.093245 114.069541 
L 189.188297 114.069541 
L 189.24166 111.85358 
L 189.342807 111.85358 
L 189.419589 111.220449 
L 189.468905 111.220449 
L 189.468905 111.062166 
L 189.669929 111.062166 
L 189.76379 110.270751 
L 189.858848 110.270751 
L 189.926928 109.321054 
L 190.040948 109.321054 
L 190.142814 108.529639 
L 190.177193 108.529639 
L 190.218038 107.738224 
L 190.411253 107.738224 
L 190.411253 107.579941 
L 190.851888 107.579941 
L 190.941617 107.263376 
L 190.965159 107.263376 
L 191.01059 106.94681 
L 191.150888 106.94681 
L 191.212909 106.630244 
L 191.492548 106.630244 
L 191.492548 106.471961 
L 191.70637 106.471961 
L 191.70637 106.313678 
L 191.825117 106.313678 
L 191.825117 105.997112 
L 192.085524 105.997112 
L 192.085524 105.838829 
L 192.50783 105.838829 
L 192.50783 105.680546 
L 192.75474 105.680546 
L 192.75474 105.522263 
L 193.334705 105.522263 
L 193.334705 105.36398 
L 193.490321 105.36398 
L 193.490321 105.205698 
L 195.01877 105.205698 
L 195.01877 105.047415 
L 195.306118 105.047415 
L 195.306118 104.889132 
L 195.438892 104.889132 
L 195.514168 104.572566 
L 195.570734 104.572566 
L 195.570734 104.414283 
L 199.355649 104.414283 
L 199.355649 104.256 
L 199.606002 104.256 
L 199.606002 104.097717 
L 200.17976 104.097717 
L 200.17976 103.939434 
L 200.370994 103.939434 
L 200.451683 103.464585 
L 201.044692 103.464585 
L 201.065791 103.14802 
L 201.262792 103.14802 
L 201.321673 102.673171 
L 201.563408 102.673171 
L 201.659595 102.356605 
L 201.701301 102.356605 
L 201.802959 101.248624 
L 201.963603 101.248624 
L 202.069943 100.932059 
L 202.424677 100.932059 
L 202.424677 100.773776 
L 202.678834 100.773776 
L 202.678834 100.615493 
L 202.847218 100.615493 
L 202.847218 100.45721 
L 203.049619 100.45721 
L 203.049619 100.298927 
L 205.300471 100.298927 
L 205.300471 100.140644 
L 206.405658 100.140644 
L 206.405658 99.982361 
L 206.681115 99.982361 
L 206.681115 99.824078 
L 206.996126 99.824078 
L 206.996126 99.665795 
L 207.404391 99.665795 
L 207.404391 99.507512 
L 207.529975 99.507512 
L 207.529975 99.349229 
L 208.000642 99.349229 
L 208.000642 99.190946 
L 208.184278 99.190946 
L 208.184278 99.032663 
L 208.473429 99.032663 
L 208.473429 98.87438 
L 208.812335 98.87438 
L 208.898988 98.557815 
L 208.963867 98.557815 
L 209.000584 98.241249 
L 209.123152 98.241249 
L 209.166117 97.7664 
L 209.379479 97.7664 
L 209.379479 97.608117 
L 209.674179 97.608117 
L 209.728057 97.291551 
L 213.423244 97.291551 
L 213.452455 96.974985 
L 214.4103 96.974985 
L 214.4103 96.816702 
L 214.623108 96.816702 
L 214.623108 96.65842 
L 214.777445 96.65842 
L 214.777445 96.500137 
L 215.138863 96.500137 
L 215.138863 96.183571 
L 215.272894 96.183571 
L 215.272894 96.025288 
L 215.7342 96.025288 
L 215.7342 95.867005 
L 218.762184 95.867005 
L 218.762184 95.708722 
L 218.924674 95.708722 
L 218.959767 95.392156 
L 219.154946 95.392156 
L 219.154946 95.233873 
L 219.417375 95.233873 
L 219.417375 95.07559 
L 219.836925 95.07559 
L 219.836925 94.917307 
L 221.05091 94.917307 
L 221.148889 94.600741 
L 221.408734 94.600741 
L 221.408734 94.442459 
L 222.108183 94.442459 
L 222.160236 94.125893 
L 222.632246 94.125893 
L 222.632246 93.96761 
L 223.273492 93.96761 
L 223.273492 93.809327 
L 224.574883 93.809327 
L 224.574883 93.651044 
L 225.887236 93.651044 
L 225.887236 93.492761 
L 228.823544 93.492761 
L 228.823544 93.334478 
L 229.165677 93.334478 
L 229.165677 93.017912 
L 229.63298 93.017912 
L 229.70093 92.701346 
L 229.959547 92.701346 
L 229.959547 92.543063 
L 232.256666 92.543063 
L 232.256666 92.38478 
L 233.079157 92.38478 
L 233.079157 92.226498 
L 233.286579 92.226498 
L 233.286579 92.068215 
L 236.594163 92.068215 
L 236.594163 91.909932 
L 239.351204 91.909932 
L 239.351204 91.751649 
L 242.51386 91.751649 
L 242.51386 91.593366 
L 244.22166 91.593366 
L 244.22166 91.435083 
L 249.369536 91.435083 
L 249.369536 91.2768 
L 250.353421 91.2768 
L 250.463027 90.960234 
L 254.29426 90.960234 
L 254.29426 90.801951 
L 255.141464 90.801951 
L 255.141464 90.643668 
L 258.193554 90.643668 
L 258.193554 90.485385 
L 261.421722 90.485385 
L 261.421722 90.327102 
L 269.106797 90.327102 
L 269.106797 90.16882 
L 271.335265 90.16882 
L 271.335265 90.010537 
L 360.8064 90.010537 
L 360.8064 90.010537 
" style="fill:none;stroke:#000080;stroke-linecap:square;stroke-width:1.5;"/>
   </g>
   <g id="line2d_31">
    <defs>
     <path d="M 0 6 
C 1.591219 6 3.117479 5.367802 4.242641 4.242641 
C 5.367802 3.117479 6 1.591219 6 0 
C 6 -1.591219 5.367802 -3.117479 4.242641 -4.242641 
C 3.117479 -5.367802 1.591219 -6 0 -6 
C -1.591219 -6 -3.117479 -5.367802 -4.242641 -4.242641 
C -5.367802 -3.117479 -6 -1.591219 -6 0 
C -6 1.591219 -5.367802 3.117479 -4.242641 4.242641 
C -3.117479 5.367802 -1.591219 6 0 6 
z
" id="me9466fd02b" style="stroke:#000080;stroke-width:1.5;"/>
    </defs>
    <g>
     <use style="fill-opacity:0;stroke:#000080;stroke-width:1.5;" x="175.361434" xlink:href="#me9466fd02b" y="238.954771"/>
     <use style="fill-opacity:0;stroke:#000080;stroke-width:1.5;" x="186.075972" xlink:href="#me9466fd02b" y="141.294205"/>
     <use style="fill-opacity:0;stroke:#000080;stroke-width:1.5;" x="271.335265" xlink:href="#me9466fd02b" y="90.16882"/>
     <use style="fill-opacity:0;stroke:#000080;stroke-width:1.5;" x="271.335265" xlink:href="#me9466fd02b" y="90.010537"/>
     <use style="fill-opacity:0;stroke:#000080;stroke-width:1.5;" x="360.8064" xlink:href="#me9466fd02b" y="90.010537"/>
    </g>
   </g>
   <g id="line2d_32">
    <path style="fill:none;stroke:#000080;stroke-linecap:square;stroke-width:1.5;"/>
    <g/>
   </g>
   <g id="line2d_33">
    <path clip-path="url(#pc3b28eaa5c)" d="M 196.398264 104.414283 
" style="fill:none;stroke:#000080;stroke-linecap:square;stroke-width:1.5;"/>
    <defs>
     <path d="M -12 12 
L 12 -12 
M -12 -12 
L 12 12 
" id="m47a5a9097a" style="stroke:#000080;"/>
    </defs>
    <g clip-path="url(#pc3b28eaa5c)">
     <use style="fill:#000080;stroke:#000080;" x="196.398264" xlink:href="#m47a5a9097a" y="104.414283"/>
    </g>
   </g>
   <g id="line2d_34">
    <defs>
     <path d="M 0 1.5 
C 0.397805 1.5 0.77937 1.341951 1.06066 1.06066 
C 1.341951 0.77937 1.5 0.397805 1.5 0 
C 1.5 -0.397805 1.341951 -0.77937 1.06066 -1.06066 
C 0.77937 -1.341951 0.397805 -1.5 0 -1.5 
C -0.397805 -1.5 -0.77937 -1.341951 -1.06066 -1.06066 
C -1.341951 -0.77937 -1.5 -0.397805 -1.5 0 
C -1.5 0.397805 -1.341951 0.77937 -1.06066 1.06066 
C -0.77937 1.341951 -0.397805 1.5 0 1.5 
z
" id="m2ffa524279" style="stroke:#ff00ff;"/>
    </defs>
    <g>
     <use style="fill:#ff00ff;stroke:#ff00ff;" x="313.228169" xlink:href="#m2ffa524279" y="94.759024"/>
     <use style="fill:#ff00ff;stroke:#ff00ff;" x="313.228169" xlink:href="#m2ffa524279" y="94.759024"/>
    </g>
   </g>
   <g id="line2d_35">
    <path d="M 159.976253 298.944 
L 159.976253 298.785717 
L 160.75802 298.785717 
L 160.75802 298.627434 
L 162.092572 298.627434 
L 162.092572 298.469151 
L 162.302476 298.469151 
L 162.302476 298.310868 
L 163.133205 298.310868 
L 163.133205 298.152585 
L 163.372716 298.152585 
L 163.372716 297.994302 
L 163.988117 297.994302 
L 163.988117 297.83602 
L 164.256018 297.83602 
L 164.256018 297.677737 
L 165.217194 297.677737 
L 165.217194 297.519454 
L 165.43173 297.519454 
L 165.498653 296.728039 
L 165.817807 296.728039 
L 165.817807 296.569756 
L 166.975628 296.569756 
L 167.065247 296.25319 
L 167.126614 296.25319 
L 167.154441 295.778341 
L 167.772614 295.778341 
L 167.831719 295.461776 
L 168.412777 295.461776 
L 168.516522 294.986927 
L 168.573339 294.986927 
L 168.573339 294.828644 
L 168.732542 294.828644 
L 168.732542 294.670361 
L 168.849796 294.670361 
L 168.89548 294.195512 
L 168.976423 294.195512 
L 169.077114 293.878946 
L 169.13727 293.878946 
L 169.247061 293.245815 
L 169.291791 293.245815 
L 169.306678 292.929249 
L 169.844536 292.929249 
L 169.844536 292.770966 
L 170.026825 292.770966 
L 170.069741 292.4544 
L 170.264018 292.4544 
L 170.264018 292.296117 
L 170.39087 292.296117 
L 170.484286 291.821268 
L 170.655891 291.821268 
L 170.75719 291.504702 
L 170.825946 291.504702 
L 170.825946 291.34642 
L 171.102992 291.34642 
L 171.134525 290.871571 
L 171.219848 290.871571 
L 171.219848 290.713288 
L 171.362682 290.713288 
L 171.362682 290.555005 
L 171.500025 290.555005 
L 171.583711 289.605307 
L 171.618835 289.605307 
L 171.618835 289.447024 
L 171.784789 289.447024 
L 171.784789 289.288741 
L 171.936356 289.288741 
L 172.022421 288.65561 
L 172.069589 288.65561 
L 172.069589 288.497327 
L 172.345922 288.497327 
L 172.345922 288.339044 
L 172.576613 288.339044 
L 172.680544 287.705912 
L 172.69712 287.705912 
L 172.779781 287.231063 
L 172.820976 287.231063 
L 172.8949 286.914498 
L 172.939933 286.914498 
L 172.976698 286.597932 
L 173.082507 286.597932 
L 173.171575 286.123083 
L 173.21998 286.123083 
L 173.284328 285.648234 
L 173.356457 285.648234 
L 173.364454 285.173385 
L 173.503858 285.173385 
L 173.559332 284.698537 
L 173.787425 284.698537 
L 173.787425 284.540254 
L 173.993464 284.540254 
L 174.024369 284.223688 
L 174.105254 284.223688 
L 174.18962 283.432273 
L 174.220205 283.432273 
L 174.29645 283.115707 
L 174.455566 283.115707 
L 174.545888 282.482576 
L 174.617088 282.482576 
L 174.654453 282.007727 
L 174.806879 282.007727 
L 174.902904 281.691161 
L 174.976437 281.691161 
L 175.0862 281.058029 
L 175.256885 281.058029 
L 175.256885 280.899746 
L 175.379401 280.899746 
L 175.458253 280.266615 
L 175.57236 280.266615 
L 175.657489 279.633483 
L 175.756321 279.633483 
L 175.819582 278.842068 
L 175.900108 278.842068 
L 176.008101 278.525502 
L 176.112023 278.525502 
L 176.201626 277.892371 
L 176.242838 277.892371 
L 176.242838 277.734088 
L 176.471294 277.734088 
L 176.518683 277.417522 
L 176.589542 277.417522 
L 176.693659 276.942673 
L 176.71709 276.942673 
L 176.783875 276.151259 
L 176.837132 276.151259 
L 176.913427 274.884995 
L 177.035516 274.884995 
L 177.127384 274.410146 
L 177.19273 274.410146 
L 177.293571 273.302166 
L 177.487223 273.302166 
L 177.535326 272.669034 
L 177.615226 272.669034 
L 177.723348 272.194185 
L 177.745531 272.194185 
L 177.856058 271.244488 
L 177.987838 271.244488 
L 178.075181 270.611356 
L 178.121806 270.611356 
L 178.199258 269.819941 
L 178.248661 269.819941 
L 178.325593 269.028527 
L 178.42361 269.028527 
L 178.527197 268.078829 
L 178.551487 268.078829 
L 178.657392 266.654283 
L 178.681515 266.654283 
L 178.780697 265.704585 
L 178.944848 265.704585 
L 179.02491 264.913171 
L 179.06629 264.913171 
L 179.154655 264.121756 
L 179.184018 264.121756 
L 179.222122 263.488624 
L 179.32724 263.488624 
L 179.396993 262.380644 
L 179.48671 262.380644 
L 179.593234 261.430946 
L 179.630518 261.430946 
L 179.710574 260.164683 
L 179.741931 260.164683 
L 179.841358 259.373268 
L 179.864011 259.373268 
L 179.974053 258.107005 
L 179.985303 258.107005 
L 180.091845 256.999024 
L 180.16718 256.999024 
L 180.258849 256.365893 
L 180.294839 256.365893 
L 180.388642 255.416195 
L 180.410645 255.416195 
L 180.465542 254.466498 
L 180.558499 254.466498 
L 180.653713 253.5168 
L 180.688956 253.5168 
L 180.796983 252.567102 
L 180.86687 252.567102 
L 180.95787 251.300839 
L 180.981885 251.300839 
L 181.085596 250.82599 
L 181.09355 250.82599 
L 181.167627 250.192859 
L 181.236153 250.192859 
L 181.346323 249.084878 
L 181.375071 249.084878 
L 181.474045 248.451746 
L 181.500004 248.451746 
L 181.55699 247.660332 
L 181.626691 247.660332 
L 181.737166 246.868917 
L 181.849543 246.868917 
L 181.958721 245.91922 
L 181.976434 245.91922 
L 182.082365 245.127805 
L 182.094936 245.127805 
L 182.195205 243.544976 
L 182.222685 243.544976 
L 182.332207 242.120429 
L 182.364444 242.120429 
L 182.473146 240.695883 
L 182.48792 240.695883 
L 182.571423 239.746185 
L 182.644796 239.746185 
L 182.739755 238.321639 
L 182.780998 238.321639 
L 182.880095 237.84679 
L 182.942668 237.84679 
L 183.048089 236.105678 
L 183.091046 236.105678 
L 183.181412 235.314263 
L 183.20512 235.314263 
L 183.309085 234.681132 
L 183.320862 234.681132 
L 183.421848 233.889717 
L 183.447595 233.889717 
L 183.554884 232.781737 
L 183.575803 232.781737 
L 183.677744 231.832039 
L 183.733117 231.832039 
L 183.843375 231.198907 
L 183.875412 231.198907 
L 183.968922 229.774361 
L 184.014369 229.774361 
L 184.107193 228.66638 
L 184.138785 228.66638 
L 184.215286 227.5584 
L 184.329459 227.5584 
L 184.431847 226.133854 
L 184.465114 226.133854 
L 184.560156 223.917893 
L 184.593197 223.917893 
L 184.665685 223.126478 
L 184.726971 223.126478 
L 184.807651 222.17678 
L 184.85546 222.17678 
L 184.963666 220.277385 
L 184.974452 220.277385 
L 185.075543 218.694556 
L 185.086266 218.694556 
L 185.193156 217.744859 
L 185.212332 217.744859 
L 185.246374 216.953444 
L 185.371376 216.953444 
L 185.464059 215.845463 
L 185.491356 215.845463 
L 185.579275 214.895766 
L 185.625164 214.895766 
L 185.718682 213.787785 
L 185.762165 213.787785 
L 185.846772 212.521522 
L 185.910491 212.521522 
L 185.990349 211.255259 
L 186.023013 211.255259 
L 186.088172 209.19758 
L 186.134866 209.19758 
L 186.20772 208.722732 
L 186.280293 208.722732 
L 186.348578 207.456468 
L 186.396631 207.456468 
L 186.502314 205.873639 
L 186.508278 205.873639 
L 186.615314 204.765659 
L 186.629145 204.765659 
L 186.711916 203.341112 
L 186.762973 203.341112 
L 186.860771 200.808585 
L 186.884168 200.808585 
L 186.983278 199.225756 
L 187.052926 199.225756 
L 187.162676 197.959493 
L 187.178029 197.959493 
L 187.287054 195.1104 
L 187.321352 195.1104 
L 187.429552 193.369288 
L 187.461702 193.369288 
L 187.518303 192.577873 
L 187.580369 192.577873 
L 187.659067 191.31161 
L 187.720671 191.31161 
L 187.809918 190.361912 
L 187.848831 190.361912 
L 187.942999 188.304234 
L 187.965088 188.304234 
L 188.038532 187.196254 
L 188.078804 187.196254 
L 188.182745 185.138576 
L 188.206371 185.138576 
L 188.309612 183.397463 
L 188.327666 183.397463 
L 188.378126 182.1312 
L 188.439217 182.1312 
L 188.544759 181.181502 
L 188.564371 181.181502 
L 188.655034 179.282107 
L 188.688699 179.282107 
L 188.796375 178.015844 
L 188.81221 178.015844 
L 188.912188 177.066146 
L 188.934915 177.066146 
L 189.035983 174.691902 
L 189.068973 174.691902 
L 189.164147 173.109073 
L 189.193468 173.109073 
L 189.274293 171.84281 
L 189.322279 171.84281 
L 189.411073 169.152 
L 189.434908 169.152 
L 189.538408 167.410888 
L 189.580663 167.410888 
L 189.69176 164.720078 
L 189.715242 164.720078 
L 189.805541 163.137249 
L 189.827216 163.137249 
L 189.908687 162.504117 
L 189.945151 162.504117 
L 190.047536 160.129873 
L 190.080445 160.129873 
L 190.139537 158.86361 
L 190.214773 158.86361 
L 190.30921 157.28078 
L 190.383772 157.28078 
L 190.493456 154.748254 
L 190.49828 154.748254 
L 190.607301 153.007141 
L 190.661575 153.007141 
L 190.755386 151.582595 
L 190.812398 151.582595 
L 190.916473 150.949463 
L 190.930621 150.949463 
L 191.038734 148.100371 
L 191.051228 148.100371 
L 191.160204 146.359259 
L 191.169516 146.359259 
L 191.279353 145.092995 
L 191.291689 145.092995 
L 191.373211 143.035317 
L 191.417669 143.035317 
L 191.465076 141.610771 
L 191.532159 141.610771 
L 191.60507 140.027941 
L 191.673167 140.027941 
L 191.748543 138.286829 
L 191.853565 138.286829 
L 191.962466 136.070868 
L 191.984765 136.070868 
L 192.091435 134.01319 
L 192.09882 134.01319 
L 192.176925 133.063493 
L 192.215123 133.063493 
L 192.294209 132.272078 
L 192.332169 132.272078 
L 192.441243 130.689249 
L 192.461534 130.689249 
L 192.55113 128.789854 
L 192.572743 128.789854 
L 192.650343 127.840156 
L 192.719053 127.840156 
L 192.800322 126.41561 
L 192.844374 126.41561 
L 192.902478 125.465912 
L 192.968865 125.465912 
L 193.079927 124.357932 
L 193.117735 124.357932 
L 193.194517 123.091668 
L 193.248773 123.091668 
L 193.347147 122.458537 
L 193.365103 122.458537 
L 193.435383 121.667122 
L 193.527314 121.667122 
L 193.632415 120.875707 
L 193.656899 120.875707 
L 193.716616 120.084293 
L 193.839524 120.084293 
L 193.901349 119.134595 
L 194.013725 119.134595 
L 194.084285 118.34318 
L 194.185006 118.34318 
L 194.283875 117.393483 
L 194.353431 117.393483 
L 194.424036 116.918634 
L 194.485273 116.918634 
L 194.582581 116.12722 
L 194.675526 116.12722 
L 194.738518 115.810654 
L 194.848568 115.810654 
L 194.918614 114.702673 
L 195.008652 114.702673 
L 195.037727 114.386107 
L 195.237504 114.386107 
L 195.303628 114.069541 
L 195.393085 114.069541 
L 195.393085 113.911259 
L 195.54862 113.911259 
L 195.569507 113.594693 
L 195.771035 113.594693 
L 195.771035 113.43641 
L 196.183185 113.43641 
L 196.234222 112.486712 
L 204.630974 112.486712 
L 204.630974 112.328429 
L 207.673771 112.328429 
L 207.673771 112.170146 
L 207.879767 112.170146 
L 207.879767 111.85358 
L 208.041816 111.85358 
L 208.118224 111.537015 
L 208.944879 111.537015 
L 208.995472 111.220449 
L 216.325536 111.220449 
L 216.325536 111.062166 
L 218.361045 111.062166 
L 218.361045 110.903883 
L 219.301926 110.903883 
L 219.301926 110.7456 
L 228.26127 110.7456 
L 228.369387 110.429034 
L 228.674852 110.429034 
L 228.674852 110.270751 
L 228.926505 110.270751 
L 228.926505 110.112468 
L 229.312801 110.112468 
L 229.312801 109.954185 
L 231.961099 109.954185 
L 231.961099 109.795902 
L 237.53909 109.795902 
L 237.53909 109.63762 
L 238.240613 109.63762 
L 238.240613 109.479337 
L 238.469219 109.479337 
L 238.469219 109.162771 
L 239.411003 109.162771 
L 239.411003 109.004488 
L 239.987182 109.004488 
L 239.987182 108.846205 
L 240.845009 108.846205 
L 240.845009 108.687922 
L 241.955722 108.687922 
L 241.955722 108.529639 
L 242.589292 108.529639 
L 242.589292 108.371356 
L 243.434846 108.371356 
L 243.434846 108.213073 
L 244.239405 108.213073 
L 244.239405 108.05479 
L 244.484354 108.05479 
L 244.484354 107.896507 
L 244.682266 107.896507 
L 244.682266 107.738224 
L 245.197029 107.738224 
L 245.197029 107.579941 
L 246.197871 107.579941 
L 246.197871 107.421659 
L 246.787946 107.421659 
L 246.787946 107.263376 
L 246.931717 107.263376 
L 246.996373 106.630244 
L 247.743196 106.630244 
L 247.743196 106.471961 
L 248.138428 106.471961 
L 248.191212 105.997112 
L 248.329145 105.997112 
L 248.416424 105.680546 
L 248.575697 105.680546 
L 248.575697 105.522263 
L 248.71602 105.522263 
L 248.71602 105.36398 
L 248.909 105.36398 
L 248.909 105.205698 
L 249.440012 105.205698 
L 249.440012 105.047415 
L 250.002878 105.047415 
L 250.002878 104.889132 
L 251.091834 104.889132 
L 251.091834 104.730849 
L 255.009206 104.730849 
L 255.009206 104.572566 
L 255.249661 104.572566 
L 255.249661 104.414283 
L 255.424694 104.414283 
L 255.424694 104.256 
L 255.831602 104.256 
L 255.883357 103.939434 
L 255.998162 103.939434 
L 255.998162 103.781151 
L 256.133293 103.781151 
L 256.21382 103.14802 
L 256.303005 103.14802 
L 256.398934 102.514888 
L 256.542565 102.514888 
L 256.542565 102.356605 
L 256.954404 102.356605 
L 256.954404 102.198322 
L 257.246891 102.198322 
L 257.246891 102.040039 
L 257.373877 102.040039 
L 257.373877 101.881756 
L 258.470089 101.881756 
L 258.470089 101.723473 
L 259.184843 101.723473 
L 259.184843 101.56519 
L 259.912459 101.56519 
L 259.912459 101.406907 
L 260.051836 101.406907 
L 260.051836 101.248624 
L 260.422535 101.248624 
L 260.422535 101.090341 
L 260.574329 101.090341 
L 260.574329 100.932059 
L 260.703438 100.932059 
L 260.703438 100.773776 
L 260.887832 100.773776 
L 260.887832 100.615493 
L 261.660884 100.615493 
L 261.668018 100.298927 
L 267.63571 100.298927 
L 267.63571 99.665795 
L 269.039067 99.665795 
L 269.039067 99.190946 
L 271.71019 99.190946 
L 271.71019 99.032663 
L 271.875478 99.032663 
L 271.960151 98.399532 
L 272.89022 98.399532 
L 272.89022 98.241249 
L 273.225682 98.241249 
L 273.225682 98.082966 
L 273.641684 98.082966 
L 273.641684 97.924683 
L 273.897208 97.924683 
L 273.960906 97.608117 
L 277.295935 97.608117 
L 277.394135 97.133268 
L 277.704995 97.133268 
L 277.704995 96.974985 
L 278.009328 96.974985 
L 278.009328 96.816702 
L 283.512663 96.816702 
L 283.512663 96.65842 
L 284.228253 96.65842 
L 284.228253 96.500137 
L 288.840068 96.500137 
L 288.840068 96.341854 
L 288.966929 96.341854 
L 289.03985 96.025288 
L 291.201365 96.025288 
L 291.302249 95.708722 
L 292.960455 95.708722 
L 292.960455 95.550439 
L 296.02859 95.550439 
L 296.02859 95.392156 
L 297.64262 95.392156 
L 297.64262 95.233873 
L 301.189133 95.233873 
L 301.189133 95.07559 
L 312.72368 95.07559 
L 312.72368 94.917307 
L 313.228169 94.917307 
L 313.228169 94.759024 
L 360.8064 94.759024 
L 360.8064 94.759024 
" style="fill:none;stroke:#ff00ff;stroke-linecap:square;stroke-width:1.5;"/>
   </g>
   <g id="line2d_36">
    <defs>
     <path d="M -0 8.485281 
L 5.091169 0 
L 0 -8.485281 
L -5.091169 -0 
z
" id="m48e1b416c6" style="stroke:#ff00ff;stroke-linejoin:miter;stroke-width:1.5;"/>
    </defs>
    <g>
     <use style="fill-opacity:0;stroke:#ff00ff;stroke-linejoin:miter;stroke-width:1.5;" x="208.118224" xlink:href="#m48e1b416c6" y="111.695298"/>
     <use style="fill-opacity:0;stroke:#ff00ff;stroke-linejoin:miter;stroke-width:1.5;" x="313.228169" xlink:href="#m48e1b416c6" y="94.917307"/>
     <use style="fill-opacity:0;stroke:#ff00ff;stroke-linejoin:miter;stroke-width:1.5;" x="313.228169" xlink:href="#m48e1b416c6" y="94.759024"/>
     <use style="fill-opacity:0;stroke:#ff00ff;stroke-linejoin:miter;stroke-width:1.5;" x="360.8064" xlink:href="#m48e1b416c6" y="94.759024"/>
    </g>
   </g>
   <g id="line2d_37">
    <path style="fill:none;stroke:#ff00ff;stroke-linecap:square;stroke-width:1.5;"/>
    <g/>
   </g>
   <g id="line2d_38">
    <path clip-path="url(#pc3b28eaa5c)" d="M 261.137522 100.615493 
" style="fill:none;stroke:#ff00ff;stroke-linecap:square;stroke-width:1.5;"/>
    <defs>
     <path d="M -12 12 
L 12 -12 
M -12 -12 
L 12 12 
" id="mfae1cb818a" style="stroke:#ff00ff;"/>
    </defs>
    <g clip-path="url(#pc3b28eaa5c)">
     <use style="fill:#ff00ff;stroke:#ff00ff;" x="261.137522" xlink:href="#mfae1cb818a" y="100.615493"/>
    </g>
   </g>
   <g id="line2d_39">
    <path d="M 360.8064 94.759024 
L 380.514816 293.10336 
" style="fill:none;stroke:#ff00ff;stroke-linecap:square;stroke-width:1.5;"/>
    <g>
     <use style="fill-opacity:0;stroke:#ff00ff;stroke-linejoin:miter;stroke-width:1.5;" x="360.8064" xlink:href="#m48e1b416c6" y="94.759024"/>
     <use style="fill-opacity:0;stroke:#ff00ff;stroke-linejoin:miter;stroke-width:1.5;" x="380.514816" xlink:href="#m48e1b416c6" y="293.10336"/>
    </g>
   </g>
   <g id="line2d_40">
    <path d="M 360.8064 90.010537 
L 380.514816 12.75264 
" style="fill:none;stroke:#000080;stroke-linecap:square;stroke-width:1.5;"/>
    <g>
     <use style="fill-opacity:0;stroke:#000080;stroke-width:1.5;" x="360.8064" xlink:href="#me9466fd02b" y="90.010537"/>
     <use style="fill-opacity:0;stroke:#000080;stroke-width:1.5;" x="380.514816" xlink:href="#me9466fd02b" y="12.75264"/>
    </g>
   </g>
   <g id="line2d_41">
    <path d="M 360.8064 298.944 
L 360.8064 6.912 
" style="fill:none;stroke:#000000;stroke-linecap:square;stroke-width:1.5;"/>
   </g>
   <g id="patch_3">
    <path d="M 57.6 298.944 
L 360.8064 298.944 
" style="fill:none;stroke:#000000;stroke-linecap:square;stroke-linejoin:miter;stroke-width:0.8;"/>
   </g>
   <g id="patch_4">
    <path d="M 57.6 6.912 
L 360.8064 6.912 
" style="fill:none;stroke:#000000;stroke-linecap:square;stroke-linejoin:miter;stroke-width:0.8;"/>
   </g>
   <g id="text_13">
    <!-- al3 -->
    <g transform="translate(386.578944 296.966485)scale(0.14 -0.14)">
     <defs>
      <path d="M 40.578125 39.3125 
Q 47.65625 37.796875 51.625 33 
Q 55.609375 28.21875 55.609375 21.1875 
Q 55.609375 10.40625 48.1875 4.484375 
Q 40.765625 -1.421875 27.09375 -1.421875 
Q 22.515625 -1.421875 17.65625 -0.515625 
Q 12.796875 0.390625 7.625 2.203125 
L 7.625 11.71875 
Q 11.71875 9.328125 16.59375 8.109375 
Q 21.484375 6.890625 26.8125 6.890625 
Q 36.078125 6.890625 40.9375 10.546875 
Q 45.796875 14.203125 45.796875 21.1875 
Q 45.796875 27.640625 41.28125 31.265625 
Q 36.765625 34.90625 28.71875 34.90625 
L 20.21875 34.90625 
L 20.21875 43.015625 
L 29.109375 43.015625 
Q 36.375 43.015625 40.234375 45.921875 
Q 44.09375 48.828125 44.09375 54.296875 
Q 44.09375 59.90625 40.109375 62.90625 
Q 36.140625 65.921875 28.71875 65.921875 
Q 24.65625 65.921875 20.015625 65.03125 
Q 15.375 64.15625 9.8125 62.3125 
L 9.8125 71.09375 
Q 15.4375 72.65625 20.34375 73.4375 
Q 25.25 74.21875 29.59375 74.21875 
Q 40.828125 74.21875 47.359375 69.109375 
Q 53.90625 64.015625 53.90625 55.328125 
Q 53.90625 49.265625 50.4375 45.09375 
Q 46.96875 40.921875 40.578125 39.3125 
z
" id="DejaVuSans-51"/>
     </defs>
     <use xlink:href="#DejaVuSans-97"/>
     <use x="61.279297" xlink:href="#DejaVuSans-108"/>
     <use x="89.0625" xlink:href="#DejaVuSans-51"/>
    </g>
   </g>
   <g id="text_14">
    <!-- al-defaul -->
    <g transform="translate(386.578944 16.615765)scale(0.14 -0.14)">
     <defs>
      <path d="M 4.890625 31.390625 
L 31.203125 31.390625 
L 31.203125 23.390625 
L 4.890625 23.390625 
z
" id="DejaVuSans-45"/>
     </defs>
     <use xlink:href="#DejaVuSans-97"/>
     <use x="61.279297" xlink:href="#DejaVuSans-108"/>
     <use x="89.0625" xlink:href="#DejaVuSans-45"/>
     <use x="125.146484" xlink:href="#DejaVuSans-100"/>
     <use x="188.623047" xlink:href="#DejaVuSans-101"/>
     <use x="250.146484" xlink:href="#DejaVuSans-102"/>
     <use x="285.351562" xlink:href="#DejaVuSans-97"/>
     <use x="346.630859" xlink:href="#DejaVuSans-117"/>
     <use x="410.009766" xlink:href="#DejaVuSans-108"/>
    </g>
   </g>
   <g id="text_15">
    <!-- bbob-constrained f3, f9, f15, 20-D -->
    <g transform="translate(60.632064 17.582726)scale(0.102 -0.102)">
     <defs>
      <path d="M 48.6875 27.296875 
Q 48.6875 37.203125 44.609375 42.84375 
Q 40.53125 48.484375 33.40625 48.484375 
Q 26.265625 48.484375 22.1875 42.84375 
Q 18.109375 37.203125 18.109375 27.296875 
Q 18.109375 17.390625 22.1875 11.75 
Q 26.265625 6.109375 33.40625 6.109375 
Q 40.53125 6.109375 44.609375 11.75 
Q 48.6875 17.390625 48.6875 27.296875 
z
M 18.109375 46.390625 
Q 20.953125 51.265625 25.265625 53.625 
Q 29.59375 56 35.59375 56 
Q 45.5625 56 51.78125 48.09375 
Q 58.015625 40.1875 58.015625 27.296875 
Q 58.015625 14.40625 51.78125 6.484375 
Q 45.5625 -1.421875 35.59375 -1.421875 
Q 29.59375 -1.421875 25.265625 0.953125 
Q 20.953125 3.328125 18.109375 8.203125 
L 18.109375 0 
L 9.078125 0 
L 9.078125 75.984375 
L 18.109375 75.984375 
z
" id="DejaVuSans-98"/>
      <path d="M 10.984375 1.515625 
L 10.984375 10.5 
Q 14.703125 8.734375 18.5 7.8125 
Q 22.3125 6.890625 25.984375 6.890625 
Q 35.75 6.890625 40.890625 13.453125 
Q 46.046875 20.015625 46.78125 33.40625 
Q 43.953125 29.203125 39.59375 26.953125 
Q 35.25 24.703125 29.984375 24.703125 
Q 19.046875 24.703125 12.671875 31.3125 
Q 6.296875 37.9375 6.296875 49.421875 
Q 6.296875 60.640625 12.9375 67.421875 
Q 19.578125 74.21875 30.609375 74.21875 
Q 43.265625 74.21875 49.921875 64.515625 
Q 56.59375 54.828125 56.59375 36.375 
Q 56.59375 19.140625 48.40625 8.859375 
Q 40.234375 -1.421875 26.421875 -1.421875 
Q 22.703125 -1.421875 18.890625 -0.6875 
Q 15.09375 0.046875 10.984375 1.515625 
z
M 30.609375 32.421875 
Q 37.25 32.421875 41.125 36.953125 
Q 45.015625 41.5 45.015625 49.421875 
Q 45.015625 57.28125 41.125 61.84375 
Q 37.25 66.40625 30.609375 66.40625 
Q 23.96875 66.40625 20.09375 61.84375 
Q 16.21875 57.28125 16.21875 49.421875 
Q 16.21875 41.5 20.09375 36.953125 
Q 23.96875 32.421875 30.609375 32.421875 
z
" id="DejaVuSans-57"/>
      <path d="M 10.796875 72.90625 
L 49.515625 72.90625 
L 49.515625 64.59375 
L 19.828125 64.59375 
L 19.828125 46.734375 
Q 21.96875 47.46875 24.109375 47.828125 
Q 26.265625 48.1875 28.421875 48.1875 
Q 40.625 48.1875 47.75 41.5 
Q 54.890625 34.8125 54.890625 23.390625 
Q 54.890625 11.625 47.5625 5.09375 
Q 40.234375 -1.421875 26.90625 -1.421875 
Q 22.3125 -1.421875 17.546875 -0.640625 
Q 12.796875 0.140625 7.71875 1.703125 
L 7.71875 11.625 
Q 12.109375 9.234375 16.796875 8.0625 
Q 21.484375 6.890625 26.703125 6.890625 
Q 35.15625 6.890625 40.078125 11.328125 
Q 45.015625 15.765625 45.015625 23.390625 
Q 45.015625 31 40.078125 35.4375 
Q 35.15625 39.890625 26.703125 39.890625 
Q 22.75 39.890625 18.8125 39.015625 
Q 14.890625 38.140625 10.796875 36.28125 
z
" id="DejaVuSans-53"/>
      <path d="M 19.671875 64.796875 
L 19.671875 8.109375 
L 31.59375 8.109375 
Q 46.6875 8.109375 53.6875 14.9375 
Q 60.6875 21.78125 60.6875 36.53125 
Q 60.6875 51.171875 53.6875 57.984375 
Q 46.6875 64.796875 31.59375 64.796875 
z
M 9.8125 72.90625 
L 30.078125 72.90625 
Q 51.265625 72.90625 61.171875 64.09375 
Q 71.09375 55.28125 71.09375 36.53125 
Q 71.09375 17.671875 61.125 8.828125 
Q 51.171875 0 30.078125 0 
L 9.8125 0 
z
" id="DejaVuSans-68"/>
     </defs>
     <use xlink:href="#DejaVuSans-98"/>
     <use x="63.476562" xlink:href="#DejaVuSans-98"/>
     <use x="126.953125" xlink:href="#DejaVuSans-111"/>
     <use x="188.134766" xlink:href="#DejaVuSans-98"/>
     <use x="251.611328" xlink:href="#DejaVuSans-45"/>
     <use x="287.695312" xlink:href="#DejaVuSans-99"/>
     <use x="342.675781" xlink:href="#DejaVuSans-111"/>
     <use x="403.857422" xlink:href="#DejaVuSans-110"/>
     <use x="467.236328" xlink:href="#DejaVuSans-115"/>
     <use x="519.335938" xlink:href="#DejaVuSans-116"/>
     <use x="558.544922" xlink:href="#DejaVuSans-114"/>
     <use x="599.658203" xlink:href="#DejaVuSans-97"/>
     <use x="660.9375" xlink:href="#DejaVuSans-105"/>
     <use x="688.720703" xlink:href="#DejaVuSans-110"/>
     <use x="752.099609" xlink:href="#DejaVuSans-101"/>
     <use x="813.623047" xlink:href="#DejaVuSans-100"/>
     <use x="877.099609" xlink:href="#DejaVuSans-32"/>
     <use x="908.886719" xlink:href="#DejaVuSans-102"/>
     <use x="944.091797" xlink:href="#DejaVuSans-51"/>
     <use x="1007.714844" xlink:href="#DejaVuSans-44"/>
     <use x="1039.501953" xlink:href="#DejaVuSans-32"/>
     <use x="1071.289062" xlink:href="#DejaVuSans-102"/>
     <use x="1106.494141" xlink:href="#DejaVuSans-57"/>
     <use x="1170.117188" xlink:href="#DejaVuSans-44"/>
     <use x="1201.904297" xlink:href="#DejaVuSans-32"/>
     <use x="1233.691406" xlink:href="#DejaVuSans-102"/>
     <use x="1268.896484" xlink:href="#DejaVuSans-49"/>
     <use x="1332.519531" xlink:href="#DejaVuSans-53"/>
     <use x="1396.142578" xlink:href="#DejaVuSans-44"/>
     <use x="1427.929688" xlink:href="#DejaVuSans-32"/>
     <use x="1459.716797" xlink:href="#DejaVuSans-50"/>
     <use x="1523.339844" xlink:href="#DejaVuSans-48"/>
     <use x="1586.962891" xlink:href="#DejaVuSans-45"/>
     <use x="1623.046875" xlink:href="#DejaVuSans-68"/>
    </g>
    <!-- 41 targets: 100..1e-06 -->
    <g transform="translate(60.632064 29.004495)scale(0.102 -0.102)">
     <defs>
      <path d="M 11.71875 12.40625 
L 22.015625 12.40625 
L 22.015625 0 
L 11.71875 0 
z
M 11.71875 51.703125 
L 22.015625 51.703125 
L 22.015625 39.3125 
L 11.71875 39.3125 
z
" id="DejaVuSans-58"/>
     </defs>
     <use xlink:href="#DejaVuSans-52"/>
     <use x="63.623047" xlink:href="#DejaVuSans-49"/>
     <use x="127.246094" xlink:href="#DejaVuSans-32"/>
     <use x="159.033203" xlink:href="#DejaVuSans-116"/>
     <use x="198.242188" xlink:href="#DejaVuSans-97"/>
     <use x="259.521484" xlink:href="#DejaVuSans-114"/>
     <use x="298.884766" xlink:href="#DejaVuSans-103"/>
     <use x="362.361328" xlink:href="#DejaVuSans-101"/>
     <use x="423.884766" xlink:href="#DejaVuSans-116"/>
     <use x="463.09375" xlink:href="#DejaVuSans-115"/>
     <use x="515.193359" xlink:href="#DejaVuSans-58"/>
     <use x="548.884766" xlink:href="#DejaVuSans-32"/>
     <use x="580.671875" xlink:href="#DejaVuSans-49"/>
     <use x="644.294922" xlink:href="#DejaVuSans-48"/>
     <use x="707.917969" xlink:href="#DejaVuSans-48"/>
     <use x="771.541016" xlink:href="#DejaVuSans-46"/>
     <use x="803.328125" xlink:href="#DejaVuSans-46"/>
     <use x="835.115234" xlink:href="#DejaVuSans-49"/>
     <use x="898.738281" xlink:href="#DejaVuSans-101"/>
     <use x="960.261719" xlink:href="#DejaVuSans-45"/>
     <use x="996.345703" xlink:href="#DejaVuSans-48"/>
     <use x="1059.96875" xlink:href="#DejaVuSans-54"/>
    </g>
    <!-- evals = f-evals + g-evals -->
    <g transform="translate(60.632064 40.426264)scale(0.102 -0.102)">
     <defs>
      <path d="M 10.59375 45.40625 
L 73.1875 45.40625 
L 73.1875 37.203125 
L 10.59375 37.203125 
z
M 10.59375 25.484375 
L 73.1875 25.484375 
L 73.1875 17.1875 
L 10.59375 17.1875 
z
" id="DejaVuSans-61"/>
      <path d="M 46 62.703125 
L 46 35.5 
L 73.1875 35.5 
L 73.1875 27.203125 
L 46 27.203125 
L 46 0 
L 37.796875 0 
L 37.796875 27.203125 
L 10.59375 27.203125 
L 10.59375 35.5 
L 37.796875 35.5 
L 37.796875 62.703125 
z
" id="DejaVuSans-43"/>
     </defs>
     <use xlink:href="#DejaVuSans-101"/>
     <use x="61.523438" xlink:href="#DejaVuSans-118"/>
     <use x="120.703125" xlink:href="#DejaVuSans-97"/>
     <use x="181.982422" xlink:href="#DejaVuSans-108"/>
     <use x="209.765625" xlink:href="#DejaVuSans-115"/>
     <use x="261.865234" xlink:href="#DejaVuSans-32"/>
     <use x="293.652344" xlink:href="#DejaVuSans-61"/>
     <use x="377.441406" xlink:href="#DejaVuSans-32"/>
     <use x="409.228516" xlink:href="#DejaVuSans-102"/>
     <use x="438.933594" xlink:href="#DejaVuSans-45"/>
     <use x="475.017578" xlink:href="#DejaVuSans-101"/>
     <use x="536.541016" xlink:href="#DejaVuSans-118"/>
     <use x="595.720703" xlink:href="#DejaVuSans-97"/>
     <use x="657" xlink:href="#DejaVuSans-108"/>
     <use x="684.783203" xlink:href="#DejaVuSans-115"/>
     <use x="736.882812" xlink:href="#DejaVuSans-32"/>
     <use x="768.669922" xlink:href="#DejaVuSans-43"/>
     <use x="852.458984" xlink:href="#DejaVuSans-32"/>
     <use x="884.246094" xlink:href="#DejaVuSans-103"/>
     <use x="947.722656" xlink:href="#DejaVuSans-45"/>
     <use x="983.806641" xlink:href="#DejaVuSans-101"/>
     <use x="1045.330078" xlink:href="#DejaVuSans-118"/>
     <use x="1104.509766" xlink:href="#DejaVuSans-97"/>
     <use x="1165.789062" xlink:href="#DejaVuSans-108"/>
     <use x="1193.572266" xlink:href="#DejaVuSans-115"/>
    </g>
    <!-- 15 instances -->
    <g transform="translate(60.632064 51.848032)scale(0.102 -0.102)">
     <use xlink:href="#DejaVuSans-49"/>
     <use x="63.623047" xlink:href="#DejaVuSans-53"/>
     <use x="127.246094" xlink:href="#DejaVuSans-32"/>
     <use x="159.033203" xlink:href="#DejaVuSans-105"/>
     <use x="186.816406" xlink:href="#DejaVuSans-110"/>
     <use x="250.195312" xlink:href="#DejaVuSans-115"/>
     <use x="302.294922" xlink:href="#DejaVuSans-116"/>
     <use x="341.503906" xlink:href="#DejaVuSans-97"/>
     <use x="402.783203" xlink:href="#DejaVuSans-110"/>
     <use x="466.162109" xlink:href="#DejaVuSans-99"/>
     <use x="521.142578" xlink:href="#DejaVuSans-101"/>
     <use x="582.666016" xlink:href="#DejaVuSans-115"/>
    </g>
   </g>
   <g id="text_16">
    <!-- v2.6.1.9 -->
    <g style="fill:#808080;" transform="translate(188.751637 293.943992)scale(0.1 -0.1)">
     <use xlink:href="#DejaVuSans-118"/>
     <use x="59.179688" xlink:href="#DejaVuSans-50"/>
     <use x="122.802734" xlink:href="#DejaVuSans-46"/>
     <use x="154.589844" xlink:href="#DejaVuSans-54"/>
     <use x="218.212891" xlink:href="#DejaVuSans-46"/>
     <use x="250" xlink:href="#DejaVuSans-49"/>
     <use x="313.623047" xlink:href="#DejaVuSans-46"/>
     <use x="345.410156" xlink:href="#DejaVuSans-57"/>
    </g>
   </g>
  </g>
 </g>
 <defs>
  <clipPath id="pc3b28eaa5c">
   <rect height="292.032" width="303.2064" x="57.6" y="6.912"/>
  </clipPath>
 </defs>
</svg>
