<?xml version="1.0" encoding="utf-8" standalone="no"?>
<!DOCTYPE svg PUBLIC "-//W3C//DTD SVG 1.1//EN"
  "http://www.w3.org/Graphics/SVG/1.1/DTD/svg11.dtd">
<!-- Created with matplotlib (https://matplotlib.org/) -->
<svg height="345.6pt" version="1.1" viewBox="0 0 460.8 345.6" width="460.8pt" xmlns="http://www.w3.org/2000/svg" xmlns:xlink="http://www.w3.org/1999/xlink">
 <metadata>
  <rdf:RDF xmlns:cc="http://creativecommons.org/ns#" xmlns:dc="http://purl.org/dc/elements/1.1/" xmlns:rdf="http://www.w3.org/1999/02/22-rdf-syntax-ns#">
   <cc:Work>
    <dc:type rdf:resource="http://purl.org/dc/dcmitype/StillImage"/>
    <dc:date>2022-04-26T20:52:32.348541</dc:date>
    <dc:format>image/svg+xml</dc:format>
    <dc:creator>
     <cc:Agent>
      <dc:title>Matplotlib v3.3.3, https://matplotlib.org/</dc:title>
     </cc:Agent>
    </dc:creator>
   </cc:Work>
  </rdf:RDF>
 </metadata>
 <defs>
  <style type="text/css">*{stroke-linecap:butt;stroke-linejoin:round;}</style>
 </defs>
 <g id="figure_1">
  <g id="patch_1">
   <path d="M 0 345.6 
L 460.8 345.6 
L 460.8 0 
L 0 0 
z
" style="fill:#ffffff;"/>
  </g>
  <g id="axes_1">
   <g id="patch_2">
    <path d="M 57.6 298.944 
L 360.8064 298.944 
L 360.8064 6.912 
L 57.6 6.912 
z
" style="fill:#ffffff;"/>
   </g>
   <g id="matplotlib.axis_1">
    <g id="xtick_1">
     <g id="line2d_1">
      <path clip-path="url(#paaa74bc7da)" d="M 57.6 298.944 
L 57.6 6.912 
" style="fill:none;stroke:#b0b0b0;stroke-linecap:square;stroke-width:0.8;"/>
     </g>
     <g id="line2d_2">
      <defs>
       <path d="M 0 0 
L 0 3.5 
" id="m3166efa6d5" style="stroke:#000000;stroke-width:0.8;"/>
      </defs>
      <g>
       <use style="stroke:#000000;stroke-width:0.8;" x="57.6" xlink:href="#m3166efa6d5" y="298.944"/>
      </g>
     </g>
     <g id="text_1">
      <!-- 0 -->
      <g transform="translate(52.191875 318.861344)scale(0.17 -0.17)">
       <defs>
        <path d="M 31.78125 66.40625 
Q 24.171875 66.40625 20.328125 58.90625 
Q 16.5 51.421875 16.5 36.375 
Q 16.5 21.390625 20.328125 13.890625 
Q 24.171875 6.390625 31.78125 6.390625 
Q 39.453125 6.390625 43.28125 13.890625 
Q 47.125 21.390625 47.125 36.375 
Q 47.125 51.421875 43.28125 58.90625 
Q 39.453125 66.40625 31.78125 66.40625 
z
M 31.78125 74.21875 
Q 44.046875 74.21875 50.515625 64.515625 
Q 56.984375 54.828125 56.984375 36.375 
Q 56.984375 17.96875 50.515625 8.265625 
Q 44.046875 -1.421875 31.78125 -1.421875 
Q 19.53125 -1.421875 13.0625 8.265625 
Q 6.59375 17.96875 6.59375 36.375 
Q 6.59375 54.828125 13.0625 64.515625 
Q 19.53125 74.21875 31.78125 74.21875 
z
" id="DejaVuSans-48"/>
       </defs>
       <use xlink:href="#DejaVuSans-48"/>
      </g>
     </g>
    </g>
    <g id="xtick_2">
     <g id="line2d_3">
      <path clip-path="url(#paaa74bc7da)" d="M 144.2304 298.944 
L 144.2304 6.912 
" style="fill:none;stroke:#b0b0b0;stroke-linecap:square;stroke-width:0.8;"/>
     </g>
     <g id="line2d_4">
      <g>
       <use style="stroke:#000000;stroke-width:0.8;" x="144.2304" xlink:href="#m3166efa6d5" y="298.944"/>
      </g>
     </g>
     <g id="text_2">
      <!-- 2 -->
      <g transform="translate(138.822275 318.861344)scale(0.17 -0.17)">
       <defs>
        <path d="M 19.1875 8.296875 
L 53.609375 8.296875 
L 53.609375 0 
L 7.328125 0 
L 7.328125 8.296875 
Q 12.9375 14.109375 22.625 23.890625 
Q 32.328125 33.6875 34.8125 36.53125 
Q 39.546875 41.84375 41.421875 45.53125 
Q 43.3125 49.21875 43.3125 52.78125 
Q 43.3125 58.59375 39.234375 62.25 
Q 35.15625 65.921875 28.609375 65.921875 
Q 23.96875 65.921875 18.8125 64.3125 
Q 13.671875 62.703125 7.8125 59.421875 
L 7.8125 69.390625 
Q 13.765625 71.78125 18.9375 73 
Q 24.125 74.21875 28.421875 74.21875 
Q 39.75 74.21875 46.484375 68.546875 
Q 53.21875 62.890625 53.21875 53.421875 
Q 53.21875 48.921875 51.53125 44.890625 
Q 49.859375 40.875 45.40625 35.40625 
Q 44.1875 33.984375 37.640625 27.21875 
Q 31.109375 20.453125 19.1875 8.296875 
z
" id="DejaVuSans-50"/>
       </defs>
       <use xlink:href="#DejaVuSans-50"/>
      </g>
     </g>
    </g>
    <g id="xtick_3">
     <g id="line2d_5">
      <path clip-path="url(#paaa74bc7da)" d="M 230.8608 298.944 
L 230.8608 6.912 
" style="fill:none;stroke:#b0b0b0;stroke-linecap:square;stroke-width:0.8;"/>
     </g>
     <g id="line2d_6">
      <g>
       <use style="stroke:#000000;stroke-width:0.8;" x="230.8608" xlink:href="#m3166efa6d5" y="298.944"/>
      </g>
     </g>
     <g id="text_3">
      <!-- 4 -->
      <g transform="translate(225.452675 318.861344)scale(0.17 -0.17)">
       <defs>
        <path d="M 37.796875 64.3125 
L 12.890625 25.390625 
L 37.796875 25.390625 
z
M 35.203125 72.90625 
L 47.609375 72.90625 
L 47.609375 25.390625 
L 58.015625 25.390625 
L 58.015625 17.1875 
L 47.609375 17.1875 
L 47.609375 0 
L 37.796875 0 
L 37.796875 17.1875 
L 4.890625 17.1875 
L 4.890625 26.703125 
z
" id="DejaVuSans-52"/>
       </defs>
       <use xlink:href="#DejaVuSans-52"/>
      </g>
     </g>
    </g>
    <g id="xtick_4">
     <g id="line2d_7">
      <path clip-path="url(#paaa74bc7da)" d="M 317.4912 298.944 
L 317.4912 6.912 
" style="fill:none;stroke:#b0b0b0;stroke-linecap:square;stroke-width:0.8;"/>
     </g>
     <g id="line2d_8">
      <g>
       <use style="stroke:#000000;stroke-width:0.8;" x="317.4912" xlink:href="#m3166efa6d5" y="298.944"/>
      </g>
     </g>
     <g id="text_4">
      <!-- 6 -->
      <g transform="translate(312.083075 318.861344)scale(0.17 -0.17)">
       <defs>
        <path d="M 33.015625 40.375 
Q 26.375 40.375 22.484375 35.828125 
Q 18.609375 31.296875 18.609375 23.390625 
Q 18.609375 15.53125 22.484375 10.953125 
Q 26.375 6.390625 33.015625 6.390625 
Q 39.65625 6.390625 43.53125 10.953125 
Q 47.40625 15.53125 47.40625 23.390625 
Q 47.40625 31.296875 43.53125 35.828125 
Q 39.65625 40.375 33.015625 40.375 
z
M 52.59375 71.296875 
L 52.59375 62.3125 
Q 48.875 64.0625 45.09375 64.984375 
Q 41.3125 65.921875 37.59375 65.921875 
Q 27.828125 65.921875 22.671875 59.328125 
Q 17.53125 52.734375 16.796875 39.40625 
Q 19.671875 43.65625 24.015625 45.921875 
Q 28.375 48.1875 33.59375 48.1875 
Q 44.578125 48.1875 50.953125 41.515625 
Q 57.328125 34.859375 57.328125 23.390625 
Q 57.328125 12.15625 50.6875 5.359375 
Q 44.046875 -1.421875 33.015625 -1.421875 
Q 20.359375 -1.421875 13.671875 8.265625 
Q 6.984375 17.96875 6.984375 36.375 
Q 6.984375 53.65625 15.1875 63.9375 
Q 23.390625 74.21875 37.203125 74.21875 
Q 40.921875 74.21875 44.703125 73.484375 
Q 48.484375 72.75 52.59375 71.296875 
z
" id="DejaVuSans-54"/>
       </defs>
       <use xlink:href="#DejaVuSans-54"/>
      </g>
     </g>
    </g>
    <g id="xtick_5">
     <g id="line2d_9">
      <path clip-path="url(#paaa74bc7da)" d="M 100.9152 298.944 
L 100.9152 6.912 
" style="fill:none;stroke:#b0b0b0;stroke-linecap:square;stroke-width:0.8;"/>
     </g>
     <g id="line2d_10">
      <defs>
       <path d="M 0 0 
L 0 2 
" id="mc9ef4d4ba6" style="stroke:#000000;stroke-width:0.6;"/>
      </defs>
      <g>
       <use style="stroke:#000000;stroke-width:0.6;" x="100.9152" xlink:href="#mc9ef4d4ba6" y="298.944"/>
      </g>
     </g>
    </g>
    <g id="xtick_6">
     <g id="line2d_11">
      <path clip-path="url(#paaa74bc7da)" d="M 187.5456 298.944 
L 187.5456 6.912 
" style="fill:none;stroke:#b0b0b0;stroke-linecap:square;stroke-width:0.8;"/>
     </g>
     <g id="line2d_12">
      <g>
       <use style="stroke:#000000;stroke-width:0.6;" x="187.5456" xlink:href="#mc9ef4d4ba6" y="298.944"/>
      </g>
     </g>
    </g>
    <g id="xtick_7">
     <g id="line2d_13">
      <path clip-path="url(#paaa74bc7da)" d="M 274.176 298.944 
L 274.176 6.912 
" style="fill:none;stroke:#b0b0b0;stroke-linecap:square;stroke-width:0.8;"/>
     </g>
     <g id="line2d_14">
      <g>
       <use style="stroke:#000000;stroke-width:0.6;" x="274.176" xlink:href="#mc9ef4d4ba6" y="298.944"/>
      </g>
     </g>
    </g>
    <g id="xtick_8">
     <g id="line2d_15">
      <path clip-path="url(#paaa74bc7da)" d="M 360.8064 298.944 
L 360.8064 6.912 
" style="fill:none;stroke:#b0b0b0;stroke-linecap:square;stroke-width:0.8;"/>
     </g>
     <g id="line2d_16">
      <g>
       <use style="stroke:#000000;stroke-width:0.6;" x="360.8064" xlink:href="#mc9ef4d4ba6" y="298.944"/>
      </g>
     </g>
    </g>
    <g id="text_5">
     <!-- log10(evals / dimension) -->
     <g transform="translate(104.238825 339.314156)scale(0.17 -0.17)">
      <defs>
       <path d="M 9.421875 75.984375 
L 18.40625 75.984375 
L 18.40625 0 
L 9.421875 0 
z
" id="DejaVuSans-108"/>
       <path d="M 30.609375 48.390625 
Q 23.390625 48.390625 19.1875 42.75 
Q 14.984375 37.109375 14.984375 27.296875 
Q 14.984375 17.484375 19.15625 11.84375 
Q 23.34375 6.203125 30.609375 6.203125 
Q 37.796875 6.203125 41.984375 11.859375 
Q 46.1875 17.53125 46.1875 27.296875 
Q 46.1875 37.015625 41.984375 42.703125 
Q 37.796875 48.390625 30.609375 48.390625 
z
M 30.609375 56 
Q 42.328125 56 49.015625 48.375 
Q 55.71875 40.765625 55.71875 27.296875 
Q 55.71875 13.875 49.015625 6.21875 
Q 42.328125 -1.421875 30.609375 -1.421875 
Q 18.84375 -1.421875 12.171875 6.21875 
Q 5.515625 13.875 5.515625 27.296875 
Q 5.515625 40.765625 12.171875 48.375 
Q 18.84375 56 30.609375 56 
z
" id="DejaVuSans-111"/>
       <path d="M 45.40625 27.984375 
Q 45.40625 37.75 41.375 43.109375 
Q 37.359375 48.484375 30.078125 48.484375 
Q 22.859375 48.484375 18.828125 43.109375 
Q 14.796875 37.75 14.796875 27.984375 
Q 14.796875 18.265625 18.828125 12.890625 
Q 22.859375 7.515625 30.078125 7.515625 
Q 37.359375 7.515625 41.375 12.890625 
Q 45.40625 18.265625 45.40625 27.984375 
z
M 54.390625 6.78125 
Q 54.390625 -7.171875 48.1875 -13.984375 
Q 42 -20.796875 29.203125 -20.796875 
Q 24.46875 -20.796875 20.265625 -20.09375 
Q 16.0625 -19.390625 12.109375 -17.921875 
L 12.109375 -9.1875 
Q 16.0625 -11.328125 19.921875 -12.34375 
Q 23.78125 -13.375 27.78125 -13.375 
Q 36.625 -13.375 41.015625 -8.765625 
Q 45.40625 -4.15625 45.40625 5.171875 
L 45.40625 9.625 
Q 42.625 4.78125 38.28125 2.390625 
Q 33.9375 0 27.875 0 
Q 17.828125 0 11.671875 7.65625 
Q 5.515625 15.328125 5.515625 27.984375 
Q 5.515625 40.671875 11.671875 48.328125 
Q 17.828125 56 27.875 56 
Q 33.9375 56 38.28125 53.609375 
Q 42.625 51.21875 45.40625 46.390625 
L 45.40625 54.6875 
L 54.390625 54.6875 
z
" id="DejaVuSans-103"/>
       <path d="M 12.40625 8.296875 
L 28.515625 8.296875 
L 28.515625 63.921875 
L 10.984375 60.40625 
L 10.984375 69.390625 
L 28.421875 72.90625 
L 38.28125 72.90625 
L 38.28125 8.296875 
L 54.390625 8.296875 
L 54.390625 0 
L 12.40625 0 
z
" id="DejaVuSans-49"/>
       <path d="M 31 75.875 
Q 24.46875 64.65625 21.28125 53.65625 
Q 18.109375 42.671875 18.109375 31.390625 
Q 18.109375 20.125 21.3125 9.0625 
Q 24.515625 -2 31 -13.1875 
L 23.1875 -13.1875 
Q 15.875 -1.703125 12.234375 9.375 
Q 8.59375 20.453125 8.59375 31.390625 
Q 8.59375 42.28125 12.203125 53.3125 
Q 15.828125 64.359375 23.1875 75.875 
z
" id="DejaVuSans-40"/>
       <path d="M 56.203125 29.59375 
L 56.203125 25.203125 
L 14.890625 25.203125 
Q 15.484375 15.921875 20.484375 11.0625 
Q 25.484375 6.203125 34.421875 6.203125 
Q 39.59375 6.203125 44.453125 7.46875 
Q 49.3125 8.734375 54.109375 11.28125 
L 54.109375 2.78125 
Q 49.265625 0.734375 44.1875 -0.34375 
Q 39.109375 -1.421875 33.890625 -1.421875 
Q 20.796875 -1.421875 13.15625 6.1875 
Q 5.515625 13.8125 5.515625 26.8125 
Q 5.515625 40.234375 12.765625 48.109375 
Q 20.015625 56 32.328125 56 
Q 43.359375 56 49.78125 48.890625 
Q 56.203125 41.796875 56.203125 29.59375 
z
M 47.21875 32.234375 
Q 47.125 39.59375 43.09375 43.984375 
Q 39.0625 48.390625 32.421875 48.390625 
Q 24.90625 48.390625 20.390625 44.140625 
Q 15.875 39.890625 15.1875 32.171875 
z
" id="DejaVuSans-101"/>
       <path d="M 2.984375 54.6875 
L 12.5 54.6875 
L 29.59375 8.796875 
L 46.6875 54.6875 
L 56.203125 54.6875 
L 35.6875 0 
L 23.484375 0 
z
" id="DejaVuSans-118"/>
       <path d="M 34.28125 27.484375 
Q 23.390625 27.484375 19.1875 25 
Q 14.984375 22.515625 14.984375 16.5 
Q 14.984375 11.71875 18.140625 8.90625 
Q 21.296875 6.109375 26.703125 6.109375 
Q 34.1875 6.109375 38.703125 11.40625 
Q 43.21875 16.703125 43.21875 25.484375 
L 43.21875 27.484375 
z
M 52.203125 31.203125 
L 52.203125 0 
L 43.21875 0 
L 43.21875 8.296875 
Q 40.140625 3.328125 35.546875 0.953125 
Q 30.953125 -1.421875 24.3125 -1.421875 
Q 15.921875 -1.421875 10.953125 3.296875 
Q 6 8.015625 6 15.921875 
Q 6 25.140625 12.171875 29.828125 
Q 18.359375 34.515625 30.609375 34.515625 
L 43.21875 34.515625 
L 43.21875 35.40625 
Q 43.21875 41.609375 39.140625 45 
Q 35.0625 48.390625 27.6875 48.390625 
Q 23 48.390625 18.546875 47.265625 
Q 14.109375 46.140625 10.015625 43.890625 
L 10.015625 52.203125 
Q 14.9375 54.109375 19.578125 55.046875 
Q 24.21875 56 28.609375 56 
Q 40.484375 56 46.34375 49.84375 
Q 52.203125 43.703125 52.203125 31.203125 
z
" id="DejaVuSans-97"/>
       <path d="M 44.28125 53.078125 
L 44.28125 44.578125 
Q 40.484375 46.53125 36.375 47.5 
Q 32.28125 48.484375 27.875 48.484375 
Q 21.1875 48.484375 17.84375 46.4375 
Q 14.5 44.390625 14.5 40.28125 
Q 14.5 37.15625 16.890625 35.375 
Q 19.28125 33.59375 26.515625 31.984375 
L 29.59375 31.296875 
Q 39.15625 29.25 43.1875 25.515625 
Q 47.21875 21.78125 47.21875 15.09375 
Q 47.21875 7.46875 41.1875 3.015625 
Q 35.15625 -1.421875 24.609375 -1.421875 
Q 20.21875 -1.421875 15.453125 -0.5625 
Q 10.6875 0.296875 5.421875 2 
L 5.421875 11.28125 
Q 10.40625 8.6875 15.234375 7.390625 
Q 20.0625 6.109375 24.8125 6.109375 
Q 31.15625 6.109375 34.5625 8.28125 
Q 37.984375 10.453125 37.984375 14.40625 
Q 37.984375 18.0625 35.515625 20.015625 
Q 33.0625 21.96875 24.703125 23.78125 
L 21.578125 24.515625 
Q 13.234375 26.265625 9.515625 29.90625 
Q 5.8125 33.546875 5.8125 39.890625 
Q 5.8125 47.609375 11.28125 51.796875 
Q 16.75 56 26.8125 56 
Q 31.78125 56 36.171875 55.265625 
Q 40.578125 54.546875 44.28125 53.078125 
z
" id="DejaVuSans-115"/>
       <path id="DejaVuSans-32"/>
       <path d="M 25.390625 72.90625 
L 33.6875 72.90625 
L 8.296875 -9.28125 
L 0 -9.28125 
z
" id="DejaVuSans-47"/>
       <path d="M 45.40625 46.390625 
L 45.40625 75.984375 
L 54.390625 75.984375 
L 54.390625 0 
L 45.40625 0 
L 45.40625 8.203125 
Q 42.578125 3.328125 38.25 0.953125 
Q 33.9375 -1.421875 27.875 -1.421875 
Q 17.96875 -1.421875 11.734375 6.484375 
Q 5.515625 14.40625 5.515625 27.296875 
Q 5.515625 40.1875 11.734375 48.09375 
Q 17.96875 56 27.875 56 
Q 33.9375 56 38.25 53.625 
Q 42.578125 51.265625 45.40625 46.390625 
z
M 14.796875 27.296875 
Q 14.796875 17.390625 18.875 11.75 
Q 22.953125 6.109375 30.078125 6.109375 
Q 37.203125 6.109375 41.296875 11.75 
Q 45.40625 17.390625 45.40625 27.296875 
Q 45.40625 37.203125 41.296875 42.84375 
Q 37.203125 48.484375 30.078125 48.484375 
Q 22.953125 48.484375 18.875 42.84375 
Q 14.796875 37.203125 14.796875 27.296875 
z
" id="DejaVuSans-100"/>
       <path d="M 9.421875 54.6875 
L 18.40625 54.6875 
L 18.40625 0 
L 9.421875 0 
z
M 9.421875 75.984375 
L 18.40625 75.984375 
L 18.40625 64.59375 
L 9.421875 64.59375 
z
" id="DejaVuSans-105"/>
       <path d="M 52 44.1875 
Q 55.375 50.25 60.0625 53.125 
Q 64.75 56 71.09375 56 
Q 79.640625 56 84.28125 50.015625 
Q 88.921875 44.046875 88.921875 33.015625 
L 88.921875 0 
L 79.890625 0 
L 79.890625 32.71875 
Q 79.890625 40.578125 77.09375 44.375 
Q 74.3125 48.1875 68.609375 48.1875 
Q 61.625 48.1875 57.5625 43.546875 
Q 53.515625 38.921875 53.515625 30.90625 
L 53.515625 0 
L 44.484375 0 
L 44.484375 32.71875 
Q 44.484375 40.625 41.703125 44.40625 
Q 38.921875 48.1875 33.109375 48.1875 
Q 26.21875 48.1875 22.15625 43.53125 
Q 18.109375 38.875 18.109375 30.90625 
L 18.109375 0 
L 9.078125 0 
L 9.078125 54.6875 
L 18.109375 54.6875 
L 18.109375 46.1875 
Q 21.1875 51.21875 25.484375 53.609375 
Q 29.78125 56 35.6875 56 
Q 41.65625 56 45.828125 52.96875 
Q 50 49.953125 52 44.1875 
z
" id="DejaVuSans-109"/>
       <path d="M 54.890625 33.015625 
L 54.890625 0 
L 45.90625 0 
L 45.90625 32.71875 
Q 45.90625 40.484375 42.875 44.328125 
Q 39.84375 48.1875 33.796875 48.1875 
Q 26.515625 48.1875 22.3125 43.546875 
Q 18.109375 38.921875 18.109375 30.90625 
L 18.109375 0 
L 9.078125 0 
L 9.078125 54.6875 
L 18.109375 54.6875 
L 18.109375 46.1875 
Q 21.34375 51.125 25.703125 53.5625 
Q 30.078125 56 35.796875 56 
Q 45.21875 56 50.046875 50.171875 
Q 54.890625 44.34375 54.890625 33.015625 
z
" id="DejaVuSans-110"/>
       <path d="M 8.015625 75.875 
L 15.828125 75.875 
Q 23.140625 64.359375 26.78125 53.3125 
Q 30.421875 42.28125 30.421875 31.390625 
Q 30.421875 20.453125 26.78125 9.375 
Q 23.140625 -1.703125 15.828125 -13.1875 
L 8.015625 -13.1875 
Q 14.5 -2 17.703125 9.0625 
Q 20.90625 20.125 20.90625 31.390625 
Q 20.90625 42.671875 17.703125 53.65625 
Q 14.5 64.65625 8.015625 75.875 
z
" id="DejaVuSans-41"/>
      </defs>
      <use xlink:href="#DejaVuSans-108"/>
      <use x="27.783203" xlink:href="#DejaVuSans-111"/>
      <use x="88.964844" xlink:href="#DejaVuSans-103"/>
      <use x="152.441406" xlink:href="#DejaVuSans-49"/>
      <use x="216.064453" xlink:href="#DejaVuSans-48"/>
      <use x="279.6875" xlink:href="#DejaVuSans-40"/>
      <use x="318.701172" xlink:href="#DejaVuSans-101"/>
      <use x="380.224609" xlink:href="#DejaVuSans-118"/>
      <use x="439.404297" xlink:href="#DejaVuSans-97"/>
      <use x="500.683594" xlink:href="#DejaVuSans-108"/>
      <use x="528.466797" xlink:href="#DejaVuSans-115"/>
      <use x="580.566406" xlink:href="#DejaVuSans-32"/>
      <use x="612.353516" xlink:href="#DejaVuSans-47"/>
      <use x="646.044922" xlink:href="#DejaVuSans-32"/>
      <use x="677.832031" xlink:href="#DejaVuSans-100"/>
      <use x="741.308594" xlink:href="#DejaVuSans-105"/>
      <use x="769.091797" xlink:href="#DejaVuSans-109"/>
      <use x="866.503906" xlink:href="#DejaVuSans-101"/>
      <use x="928.027344" xlink:href="#DejaVuSans-110"/>
      <use x="991.40625" xlink:href="#DejaVuSans-115"/>
      <use x="1043.505859" xlink:href="#DejaVuSans-105"/>
      <use x="1071.289062" xlink:href="#DejaVuSans-111"/>
      <use x="1132.470703" xlink:href="#DejaVuSans-110"/>
      <use x="1195.849609" xlink:href="#DejaVuSans-41"/>
     </g>
    </g>
   </g>
   <g id="matplotlib.axis_2">
    <g id="ytick_1">
     <g id="line2d_17">
      <path clip-path="url(#paaa74bc7da)" d="M 57.6 298.944 
L 360.8064 298.944 
" style="fill:none;stroke:#b0b0b0;stroke-linecap:square;stroke-width:0.8;"/>
     </g>
     <g id="line2d_18">
      <defs>
       <path d="M 0 0 
L -3.5 0 
" id="m44bcb36e07" style="stroke:#000000;stroke-width:0.8;"/>
      </defs>
      <g>
       <use style="stroke:#000000;stroke-width:0.8;" x="57.6" xlink:href="#m44bcb36e07" y="298.944"/>
      </g>
     </g>
     <g id="text_6">
      <!-- 0.0 -->
      <g transform="translate(25.155 305.02275)scale(0.16 -0.16)">
       <defs>
        <path d="M 10.6875 12.40625 
L 21 12.40625 
L 21 0 
L 10.6875 0 
z
" id="DejaVuSans-46"/>
       </defs>
       <use xlink:href="#DejaVuSans-48"/>
       <use x="63.623047" xlink:href="#DejaVuSans-46"/>
       <use x="95.410156" xlink:href="#DejaVuSans-48"/>
      </g>
     </g>
    </g>
    <g id="ytick_2">
     <g id="line2d_19">
      <path clip-path="url(#paaa74bc7da)" d="M 57.6 240.5376 
L 360.8064 240.5376 
" style="fill:none;stroke:#b0b0b0;stroke-linecap:square;stroke-width:0.8;"/>
     </g>
     <g id="line2d_20">
      <g>
       <use style="stroke:#000000;stroke-width:0.8;" x="57.6" xlink:href="#m44bcb36e07" y="240.5376"/>
      </g>
     </g>
     <g id="text_7">
      <!-- 0.2 -->
      <g transform="translate(25.155 246.61635)scale(0.16 -0.16)">
       <use xlink:href="#DejaVuSans-48"/>
       <use x="63.623047" xlink:href="#DejaVuSans-46"/>
       <use x="95.410156" xlink:href="#DejaVuSans-50"/>
      </g>
     </g>
    </g>
    <g id="ytick_3">
     <g id="line2d_21">
      <path clip-path="url(#paaa74bc7da)" d="M 57.6 182.1312 
L 360.8064 182.1312 
" style="fill:none;stroke:#b0b0b0;stroke-linecap:square;stroke-width:0.8;"/>
     </g>
     <g id="line2d_22">
      <g>
       <use style="stroke:#000000;stroke-width:0.8;" x="57.6" xlink:href="#m44bcb36e07" y="182.1312"/>
      </g>
     </g>
     <g id="text_8">
      <!-- 0.4 -->
      <g transform="translate(25.155 188.20995)scale(0.16 -0.16)">
       <use xlink:href="#DejaVuSans-48"/>
       <use x="63.623047" xlink:href="#DejaVuSans-46"/>
       <use x="95.410156" xlink:href="#DejaVuSans-52"/>
      </g>
     </g>
    </g>
    <g id="ytick_4">
     <g id="line2d_23">
      <path clip-path="url(#paaa74bc7da)" d="M 57.6 123.7248 
L 360.8064 123.7248 
" style="fill:none;stroke:#b0b0b0;stroke-linecap:square;stroke-width:0.8;"/>
     </g>
     <g id="line2d_24">
      <g>
       <use style="stroke:#000000;stroke-width:0.8;" x="57.6" xlink:href="#m44bcb36e07" y="123.7248"/>
      </g>
     </g>
     <g id="text_9">
      <!-- 0.6 -->
      <g transform="translate(25.155 129.80355)scale(0.16 -0.16)">
       <use xlink:href="#DejaVuSans-48"/>
       <use x="63.623047" xlink:href="#DejaVuSans-46"/>
       <use x="95.410156" xlink:href="#DejaVuSans-54"/>
      </g>
     </g>
    </g>
    <g id="ytick_5">
     <g id="line2d_25">
      <path clip-path="url(#paaa74bc7da)" d="M 57.6 65.3184 
L 360.8064 65.3184 
" style="fill:none;stroke:#b0b0b0;stroke-linecap:square;stroke-width:0.8;"/>
     </g>
     <g id="line2d_26">
      <g>
       <use style="stroke:#000000;stroke-width:0.8;" x="57.6" xlink:href="#m44bcb36e07" y="65.3184"/>
      </g>
     </g>
     <g id="text_10">
      <!-- 0.8 -->
      <g transform="translate(25.155 71.39715)scale(0.16 -0.16)">
       <defs>
        <path d="M 31.78125 34.625 
Q 24.75 34.625 20.71875 30.859375 
Q 16.703125 27.09375 16.703125 20.515625 
Q 16.703125 13.921875 20.71875 10.15625 
Q 24.75 6.390625 31.78125 6.390625 
Q 38.8125 6.390625 42.859375 10.171875 
Q 46.921875 13.96875 46.921875 20.515625 
Q 46.921875 27.09375 42.890625 30.859375 
Q 38.875 34.625 31.78125 34.625 
z
M 21.921875 38.8125 
Q 15.578125 40.375 12.03125 44.71875 
Q 8.5 49.078125 8.5 55.328125 
Q 8.5 64.0625 14.71875 69.140625 
Q 20.953125 74.21875 31.78125 74.21875 
Q 42.671875 74.21875 48.875 69.140625 
Q 55.078125 64.0625 55.078125 55.328125 
Q 55.078125 49.078125 51.53125 44.71875 
Q 48 40.375 41.703125 38.8125 
Q 48.828125 37.15625 52.796875 32.3125 
Q 56.78125 27.484375 56.78125 20.515625 
Q 56.78125 9.90625 50.3125 4.234375 
Q 43.84375 -1.421875 31.78125 -1.421875 
Q 19.734375 -1.421875 13.25 4.234375 
Q 6.78125 9.90625 6.78125 20.515625 
Q 6.78125 27.484375 10.78125 32.3125 
Q 14.796875 37.15625 21.921875 38.8125 
z
M 18.3125 54.390625 
Q 18.3125 48.734375 21.84375 45.5625 
Q 25.390625 42.390625 31.78125 42.390625 
Q 38.140625 42.390625 41.71875 45.5625 
Q 45.3125 48.734375 45.3125 54.390625 
Q 45.3125 60.0625 41.71875 63.234375 
Q 38.140625 66.40625 31.78125 66.40625 
Q 25.390625 66.40625 21.84375 63.234375 
Q 18.3125 60.0625 18.3125 54.390625 
z
" id="DejaVuSans-56"/>
       </defs>
       <use xlink:href="#DejaVuSans-48"/>
       <use x="63.623047" xlink:href="#DejaVuSans-46"/>
       <use x="95.410156" xlink:href="#DejaVuSans-56"/>
      </g>
     </g>
    </g>
    <g id="ytick_6">
     <g id="line2d_27">
      <path clip-path="url(#paaa74bc7da)" d="M 57.6 6.912 
L 360.8064 6.912 
" style="fill:none;stroke:#b0b0b0;stroke-linecap:square;stroke-width:0.8;"/>
     </g>
     <g id="line2d_28">
      <g>
       <use style="stroke:#000000;stroke-width:0.8;" x="57.6" xlink:href="#m44bcb36e07" y="6.912"/>
      </g>
     </g>
     <g id="text_11">
      <!-- 1.0 -->
      <g transform="translate(25.155 12.99075)scale(0.16 -0.16)">
       <use xlink:href="#DejaVuSans-49"/>
       <use x="63.623047" xlink:href="#DejaVuSans-46"/>
       <use x="95.410156" xlink:href="#DejaVuSans-48"/>
      </g>
     </g>
    </g>
    <g id="text_12">
     <!-- Fraction of function,target pairs -->
     <g transform="translate(17.619531 287.313)rotate(-90)scale(0.17 -0.17)">
      <defs>
       <path d="M 9.8125 72.90625 
L 51.703125 72.90625 
L 51.703125 64.59375 
L 19.671875 64.59375 
L 19.671875 43.109375 
L 48.578125 43.109375 
L 48.578125 34.8125 
L 19.671875 34.8125 
L 19.671875 0 
L 9.8125 0 
z
" id="DejaVuSans-70"/>
       <path d="M 41.109375 46.296875 
Q 39.59375 47.171875 37.8125 47.578125 
Q 36.03125 48 33.890625 48 
Q 26.265625 48 22.1875 43.046875 
Q 18.109375 38.09375 18.109375 28.8125 
L 18.109375 0 
L 9.078125 0 
L 9.078125 54.6875 
L 18.109375 54.6875 
L 18.109375 46.1875 
Q 20.953125 51.171875 25.484375 53.578125 
Q 30.03125 56 36.53125 56 
Q 37.453125 56 38.578125 55.875 
Q 39.703125 55.765625 41.0625 55.515625 
z
" id="DejaVuSans-114"/>
       <path d="M 48.78125 52.59375 
L 48.78125 44.1875 
Q 44.96875 46.296875 41.140625 47.34375 
Q 37.3125 48.390625 33.40625 48.390625 
Q 24.65625 48.390625 19.8125 42.84375 
Q 14.984375 37.3125 14.984375 27.296875 
Q 14.984375 17.28125 19.8125 11.734375 
Q 24.65625 6.203125 33.40625 6.203125 
Q 37.3125 6.203125 41.140625 7.25 
Q 44.96875 8.296875 48.78125 10.40625 
L 48.78125 2.09375 
Q 45.015625 0.34375 40.984375 -0.53125 
Q 36.96875 -1.421875 32.421875 -1.421875 
Q 20.0625 -1.421875 12.78125 6.34375 
Q 5.515625 14.109375 5.515625 27.296875 
Q 5.515625 40.671875 12.859375 48.328125 
Q 20.21875 56 33.015625 56 
Q 37.15625 56 41.109375 55.140625 
Q 45.0625 54.296875 48.78125 52.59375 
z
" id="DejaVuSans-99"/>
       <path d="M 18.3125 70.21875 
L 18.3125 54.6875 
L 36.8125 54.6875 
L 36.8125 47.703125 
L 18.3125 47.703125 
L 18.3125 18.015625 
Q 18.3125 11.328125 20.140625 9.421875 
Q 21.96875 7.515625 27.59375 7.515625 
L 36.8125 7.515625 
L 36.8125 0 
L 27.59375 0 
Q 17.1875 0 13.234375 3.875 
Q 9.28125 7.765625 9.28125 18.015625 
L 9.28125 47.703125 
L 2.6875 47.703125 
L 2.6875 54.6875 
L 9.28125 54.6875 
L 9.28125 70.21875 
z
" id="DejaVuSans-116"/>
       <path d="M 37.109375 75.984375 
L 37.109375 68.5 
L 28.515625 68.5 
Q 23.6875 68.5 21.796875 66.546875 
Q 19.921875 64.59375 19.921875 59.515625 
L 19.921875 54.6875 
L 34.71875 54.6875 
L 34.71875 47.703125 
L 19.921875 47.703125 
L 19.921875 0 
L 10.890625 0 
L 10.890625 47.703125 
L 2.296875 47.703125 
L 2.296875 54.6875 
L 10.890625 54.6875 
L 10.890625 58.5 
Q 10.890625 67.625 15.140625 71.796875 
Q 19.390625 75.984375 28.609375 75.984375 
z
" id="DejaVuSans-102"/>
       <path d="M 8.5 21.578125 
L 8.5 54.6875 
L 17.484375 54.6875 
L 17.484375 21.921875 
Q 17.484375 14.15625 20.5 10.265625 
Q 23.53125 6.390625 29.59375 6.390625 
Q 36.859375 6.390625 41.078125 11.03125 
Q 45.3125 15.671875 45.3125 23.6875 
L 45.3125 54.6875 
L 54.296875 54.6875 
L 54.296875 0 
L 45.3125 0 
L 45.3125 8.40625 
Q 42.046875 3.421875 37.71875 1 
Q 33.40625 -1.421875 27.6875 -1.421875 
Q 18.265625 -1.421875 13.375 4.4375 
Q 8.5 10.296875 8.5 21.578125 
z
M 31.109375 56 
z
" id="DejaVuSans-117"/>
       <path d="M 11.71875 12.40625 
L 22.015625 12.40625 
L 22.015625 4 
L 14.015625 -11.625 
L 7.71875 -11.625 
L 11.71875 4 
z
" id="DejaVuSans-44"/>
       <path d="M 18.109375 8.203125 
L 18.109375 -20.796875 
L 9.078125 -20.796875 
L 9.078125 54.6875 
L 18.109375 54.6875 
L 18.109375 46.390625 
Q 20.953125 51.265625 25.265625 53.625 
Q 29.59375 56 35.59375 56 
Q 45.5625 56 51.78125 48.09375 
Q 58.015625 40.1875 58.015625 27.296875 
Q 58.015625 14.40625 51.78125 6.484375 
Q 45.5625 -1.421875 35.59375 -1.421875 
Q 29.59375 -1.421875 25.265625 0.953125 
Q 20.953125 3.328125 18.109375 8.203125 
z
M 48.6875 27.296875 
Q 48.6875 37.203125 44.609375 42.84375 
Q 40.53125 48.484375 33.40625 48.484375 
Q 26.265625 48.484375 22.1875 42.84375 
Q 18.109375 37.203125 18.109375 27.296875 
Q 18.109375 17.390625 22.1875 11.75 
Q 26.265625 6.109375 33.40625 6.109375 
Q 40.53125 6.109375 44.609375 11.75 
Q 48.6875 17.390625 48.6875 27.296875 
z
" id="DejaVuSans-112"/>
      </defs>
      <use xlink:href="#DejaVuSans-70"/>
      <use x="50.269531" xlink:href="#DejaVuSans-114"/>
      <use x="91.382812" xlink:href="#DejaVuSans-97"/>
      <use x="152.662109" xlink:href="#DejaVuSans-99"/>
      <use x="207.642578" xlink:href="#DejaVuSans-116"/>
      <use x="246.851562" xlink:href="#DejaVuSans-105"/>
      <use x="274.634766" xlink:href="#DejaVuSans-111"/>
      <use x="335.816406" xlink:href="#DejaVuSans-110"/>
      <use x="399.195312" xlink:href="#DejaVuSans-32"/>
      <use x="430.982422" xlink:href="#DejaVuSans-111"/>
      <use x="492.164062" xlink:href="#DejaVuSans-102"/>
      <use x="527.369141" xlink:href="#DejaVuSans-32"/>
      <use x="559.15625" xlink:href="#DejaVuSans-102"/>
      <use x="594.361328" xlink:href="#DejaVuSans-117"/>
      <use x="657.740234" xlink:href="#DejaVuSans-110"/>
      <use x="721.119141" xlink:href="#DejaVuSans-99"/>
      <use x="776.099609" xlink:href="#DejaVuSans-116"/>
      <use x="815.308594" xlink:href="#DejaVuSans-105"/>
      <use x="843.091797" xlink:href="#DejaVuSans-111"/>
      <use x="904.273438" xlink:href="#DejaVuSans-110"/>
      <use x="967.652344" xlink:href="#DejaVuSans-44"/>
      <use x="999.439453" xlink:href="#DejaVuSans-116"/>
      <use x="1038.648438" xlink:href="#DejaVuSans-97"/>
      <use x="1099.927734" xlink:href="#DejaVuSans-114"/>
      <use x="1139.291016" xlink:href="#DejaVuSans-103"/>
      <use x="1202.767578" xlink:href="#DejaVuSans-101"/>
      <use x="1264.291016" xlink:href="#DejaVuSans-116"/>
      <use x="1303.5" xlink:href="#DejaVuSans-32"/>
      <use x="1335.287109" xlink:href="#DejaVuSans-112"/>
      <use x="1398.763672" xlink:href="#DejaVuSans-97"/>
      <use x="1460.042969" xlink:href="#DejaVuSans-105"/>
      <use x="1487.826172" xlink:href="#DejaVuSans-114"/>
      <use x="1528.939453" xlink:href="#DejaVuSans-115"/>
     </g>
    </g>
   </g>
   <g id="line2d_29">
    <defs>
     <path d="M 0 1.5 
C 0.397805 1.5 0.77937 1.341951 1.06066 1.06066 
C 1.341951 0.77937 1.5 0.397805 1.5 0 
C 1.5 -0.397805 1.341951 -0.77937 1.06066 -1.06066 
C 0.77937 -1.341951 0.397805 -1.5 0 -1.5 
C -0.397805 -1.5 -0.77937 -1.341951 -1.06066 -1.06066 
C -1.341951 -0.77937 -1.5 -0.397805 -1.5 0 
C -1.5 0.397805 -1.341951 0.77937 -1.06066 1.06066 
C -0.77937 1.341951 -0.397805 1.5 0 1.5 
z
" id="m5c66ae0a70" style="stroke:#000080;"/>
    </defs>
    <g>
     <use style="fill:#000080;stroke:#000080;" x="281.249139" xlink:href="#m5c66ae0a70" y="225.936"/>
     <use style="fill:#000080;stroke:#000080;" x="281.249139" xlink:href="#m5c66ae0a70" y="225.936"/>
    </g>
   </g>
   <g id="line2d_30">
    <path d="M 159.437121 298.944 
L 159.437121 298.825288 
L 160.257194 298.825288 
L 160.257194 298.706576 
L 160.872921 298.706576 
L 160.872921 298.587863 
L 162.350999 298.587863 
L 162.350999 298.469151 
L 162.486913 298.469151 
L 162.486913 298.350439 
L 163.751366 298.350439 
L 163.751366 298.231727 
L 164.460888 298.231727 
L 164.460888 298.113015 
L 165.169357 298.113015 
L 165.169357 297.994302 
L 165.681475 297.994302 
L 165.681475 297.87559 
L 166.194657 297.87559 
L 166.194657 297.756878 
L 166.654273 297.756878 
L 166.751115 297.519454 
L 167.15027 297.519454 
L 167.239063 297.282029 
L 167.352219 297.282029 
L 167.352219 297.163317 
L 167.606396 297.163317 
L 167.606396 297.044605 
L 168.149564 297.044605 
L 168.149564 296.925893 
L 168.484163 296.925893 
L 168.533327 296.688468 
L 168.63127 296.688468 
L 168.63127 296.569756 
L 169.265711 296.569756 
L 169.369814 296.21362 
L 169.446284 296.21362 
L 169.542049 295.976195 
L 169.766042 295.976195 
L 169.840921 295.738771 
L 170.101864 295.738771 
L 170.101864 295.620059 
L 170.316977 295.620059 
L 170.406082 295.382634 
L 170.450476 295.382634 
L 170.450476 295.263922 
L 170.583034 295.263922 
L 170.583034 295.14521 
L 171.115386 295.14521 
L 171.115386 295.026498 
L 171.279122 295.026498 
L 171.330416 294.789073 
L 171.43923 294.789073 
L 171.532002 294.432937 
L 171.617739 294.432937 
L 171.617739 294.314224 
L 171.742348 294.314224 
L 171.742348 294.195512 
L 172.017053 294.195512 
L 172.072801 293.958088 
L 172.234814 293.958088 
L 172.234814 293.839376 
L 172.498285 293.839376 
L 172.563059 293.601951 
L 172.656691 293.601951 
L 172.656691 293.483239 
L 172.8364 293.483239 
L 172.8364 293.364527 
L 172.96343 293.364527 
L 172.96343 293.245815 
L 173.263238 293.245815 
L 173.297372 292.889678 
L 173.483013 292.889678 
L 173.564277 292.652254 
L 173.751233 292.652254 
L 173.805983 292.414829 
L 173.893642 292.414829 
L 173.893642 292.296117 
L 174.052333 292.296117 
L 174.052333 292.177405 
L 174.284081 292.177405 
L 174.306909 291.93998 
L 174.524288 291.93998 
L 174.632977 291.583844 
L 174.690813 291.583844 
L 174.690813 291.465132 
L 175.017673 291.465132 
L 175.017673 291.34642 
L 175.252366 291.34642 
L 175.252366 291.227707 
L 175.401836 291.227707 
L 175.401836 291.108995 
L 175.670755 291.108995 
L 175.750159 290.871571 
L 175.834488 290.871571 
L 175.918441 290.634146 
L 176.003758 290.634146 
L 176.07485 290.27801 
L 176.228253 290.27801 
L 176.25227 290.040585 
L 176.691147 290.040585 
L 176.768035 289.803161 
L 176.837963 289.803161 
L 176.857895 289.565737 
L 177.07084 289.565737 
L 177.07084 289.447024 
L 177.347833 289.447024 
L 177.347833 289.328312 
L 177.796928 289.328312 
L 177.886732 289.090888 
L 178.091513 289.090888 
L 178.200031 288.734751 
L 178.386149 288.734751 
L 178.471666 288.259902 
L 178.552246 288.259902 
L 178.662671 288.022478 
L 178.682268 288.022478 
L 178.682268 287.903766 
L 178.887558 287.903766 
L 178.98418 287.547629 
L 179.236026 287.547629 
L 179.236026 287.428917 
L 179.788159 287.428917 
L 179.859058 287.07278 
L 179.907117 287.07278 
L 179.907117 286.954068 
L 180.114896 286.954068 
L 180.114896 286.835356 
L 180.299679 286.835356 
L 180.317643 286.597932 
L 180.471707 286.597932 
L 180.580986 285.885659 
L 180.598684 285.885659 
L 180.598684 285.766946 
L 180.821877 285.766946 
L 180.821877 285.648234 
L 181.01186 285.648234 
L 181.088911 285.292098 
L 181.133932 285.292098 
L 181.210485 285.054673 
L 181.306395 285.054673 
L 181.417459 284.698537 
L 181.582189 284.698537 
L 181.635063 284.461112 
L 181.71602 284.461112 
L 181.71602 284.3424 
L 181.862907 284.3424 
L 181.930218 283.986263 
L 182.049011 283.986263 
L 182.143257 283.748839 
L 182.224557 283.748839 
L 182.285613 283.511415 
L 182.619759 283.511415 
L 182.692944 283.27399 
L 182.750074 283.27399 
L 182.831216 282.799141 
L 182.863816 282.799141 
L 182.863816 282.680429 
L 183.051075 282.680429 
L 183.128553 282.324293 
L 183.195048 282.324293 
L 183.291994 282.086868 
L 183.341456 282.086868 
L 183.443502 281.730732 
L 183.490234 281.730732 
L 183.579868 281.493307 
L 183.907965 281.493307 
L 183.907965 281.374595 
L 184.077245 281.374595 
L 184.112274 281.137171 
L 184.336711 281.137171 
L 184.424631 280.662322 
L 184.551887 280.662322 
L 184.649783 280.424898 
L 184.851661 280.424898 
L 184.95773 280.187473 
L 184.992236 280.187473 
L 185.100732 279.831337 
L 185.142459 279.831337 
L 185.20754 279.237776 
L 185.270273 279.237776 
L 185.270273 279.119063 
L 185.520184 279.119063 
L 185.569352 278.762927 
L 185.661068 278.762927 
L 185.661068 278.644215 
L 185.806064 278.644215 
L 185.914082 278.050654 
L 185.962232 278.050654 
L 186.01026 277.813229 
L 186.129289 277.813229 
L 186.195092 277.575805 
L 186.285825 277.575805 
L 186.293869 277.33838 
L 186.405127 277.33838 
L 186.44107 276.982244 
L 186.536583 276.982244 
L 186.536583 276.863532 
L 186.816336 276.863532 
L 186.918721 276.507395 
L 187.389287 276.507395 
L 187.475396 276.269971 
L 187.565812 276.269971 
L 187.676355 275.913834 
L 187.704356 275.913834 
L 187.763023 275.320273 
L 187.829847 275.320273 
L 187.90382 275.082849 
L 187.964628 275.082849 
L 187.98026 274.845424 
L 188.078346 274.845424 
L 188.078346 274.726712 
L 188.303741 274.726712 
L 188.377676 274.370576 
L 188.471927 274.370576 
L 188.554122 274.014439 
L 188.588858 274.014439 
L 188.643947 273.53959 
L 188.710372 273.53959 
L 188.803854 273.064741 
L 188.825835 273.064741 
L 188.825835 272.946029 
L 189.089346 272.946029 
L 189.173207 272.589893 
L 189.235213 272.589893 
L 189.254119 272.352468 
L 189.354345 272.352468 
L 189.409796 271.996332 
L 189.500722 271.996332 
L 189.55828 271.758907 
L 189.645128 271.758907 
L 189.704762 271.402771 
L 189.764208 271.402771 
L 189.854273 270.927922 
L 190.022405 270.927922 
L 190.117809 270.690498 
L 190.137488 270.690498 
L 190.246984 270.453073 
L 190.264086 270.453073 
L 190.368802 269.978224 
L 190.390646 269.978224 
L 190.430224 269.503376 
L 190.599706 269.503376 
L 190.707346 269.028527 
L 190.783518 269.028527 
L 190.783518 268.909815 
L 191.039905 268.909815 
L 191.145063 268.434966 
L 191.169128 268.434966 
L 191.214844 268.078829 
L 191.285908 268.078829 
L 191.285908 267.960117 
L 191.452471 267.960117 
L 191.51503 267.722693 
L 191.582695 267.722693 
L 191.68487 267.485268 
L 191.73161 267.485268 
L 191.770721 267.01042 
L 191.862913 267.01042 
L 191.922634 266.772995 
L 191.992564 266.772995 
L 192.054835 266.535571 
L 192.118377 266.535571 
L 192.167731 266.298146 
L 192.322322 266.298146 
L 192.423471 265.585873 
L 192.456101 265.585873 
L 192.482888 265.348449 
L 192.593971 265.348449 
L 192.64855 265.111024 
L 192.775052 265.111024 
L 192.883012 264.280039 
L 192.904954 264.280039 
L 192.964282 264.042615 
L 193.065554 264.042615 
L 193.082379 263.80519 
L 193.184413 263.80519 
L 193.278963 263.567766 
L 193.401309 263.567766 
L 193.421279 263.330341 
L 193.524919 263.330341 
L 193.552277 263.092917 
L 193.733208 263.092917 
L 193.840533 262.73678 
L 193.899671 262.73678 
L 194.004719 262.024507 
L 194.224945 262.024507 
L 194.246695 261.787083 
L 194.353103 261.787083 
L 194.425667 261.312234 
L 194.555709 261.312234 
L 194.666187 260.956098 
L 194.715724 260.956098 
L 194.715724 260.837385 
L 194.915118 260.837385 
L 194.999477 260.481249 
L 195.06518 260.481249 
L 195.155149 259.768976 
L 195.197154 259.768976 
L 195.27153 259.412839 
L 195.349963 259.412839 
L 195.415693 258.93799 
L 195.462062 258.93799 
L 195.47811 258.700566 
L 195.655573 258.700566 
L 195.748242 258.225717 
L 195.796226 258.225717 
L 195.863441 257.632156 
L 195.980341 257.632156 
L 196.071428 256.801171 
L 196.149578 256.801171 
L 196.221476 256.445034 
L 196.271227 256.445034 
L 196.370925 255.851473 
L 196.390919 255.851473 
L 196.390919 255.732761 
L 198.862253 255.732761 
L 198.862253 255.614049 
L 199.449298 255.614049 
L 199.449298 255.495337 
L 201.551797 255.495337 
L 201.551797 255.376624 
L 204.384739 255.376624 
L 204.384739 255.257912 
L 204.583125 255.257912 
L 204.583125 255.1392 
L 205.634224 255.1392 
L 205.662968 254.901776 
L 205.949079 254.901776 
L 206.009097 254.664351 
L 206.151313 254.664351 
L 206.199876 254.426927 
L 206.324031 254.426927 
L 206.324031 254.308215 
L 206.438417 254.308215 
L 206.438417 254.189502 
L 206.555535 254.189502 
L 206.609555 253.833366 
L 206.769336 253.833366 
L 206.769336 253.714654 
L 206.969015 253.714654 
L 207.051899 253.358517 
L 207.329951 253.358517 
L 207.329951 253.239805 
L 207.524122 253.239805 
L 207.628872 252.646244 
L 207.732719 252.646244 
L 207.732719 252.527532 
L 207.996202 252.527532 
L 208.053202 252.290107 
L 208.227246 252.290107 
L 208.227246 252.171395 
L 208.390069 252.171395 
L 208.462913 251.933971 
L 208.5364 251.933971 
L 208.5364 251.815259 
L 208.708188 251.815259 
L 208.81355 251.102985 
L 208.844195 251.102985 
L 208.937641 250.628137 
L 209.162838 250.628137 
L 209.272508 249.441015 
L 209.347038 249.441015 
L 209.403037 248.847454 
L 210.707688 248.847454 
L 210.707688 248.728741 
L 211.845555 248.728741 
L 211.845555 248.610029 
L 213.185388 248.610029 
L 213.185388 248.491317 
L 213.29913 248.491317 
L 213.29913 248.372605 
L 214.734159 248.372605 
L 214.800542 248.016468 
L 214.848414 248.016468 
L 214.848414 247.897756 
L 215.327206 247.897756 
L 215.327206 247.779044 
L 215.684845 247.779044 
L 215.684845 247.660332 
L 215.892959 247.660332 
L 215.940212 247.304195 
L 216.371615 247.304195 
L 216.419304 246.829346 
L 216.517547 246.829346 
L 216.517547 246.710634 
L 216.65335 246.710634 
L 216.754961 245.642224 
L 216.81757 245.642224 
L 216.863351 245.286088 
L 216.944138 245.286088 
L 217.052819 244.455102 
L 217.05948 244.455102 
L 217.05948 244.33639 
L 218.702681 244.33639 
L 218.702681 244.217678 
L 220.752104 244.217678 
L 220.81077 243.742829 
L 221.297253 243.742829 
L 221.353154 243.505405 
L 221.568023 243.505405 
L 221.653994 243.26798 
L 221.841485 243.26798 
L 221.841485 243.149268 
L 221.957952 243.149268 
L 221.982395 242.911844 
L 222.180091 242.911844 
L 222.290333 241.962146 
L 222.337594 241.962146 
L 222.385032 241.131161 
L 222.466476 241.131161 
L 222.471471 240.893737 
L 223.717116 240.893737 
L 223.717116 240.775024 
L 225.418491 240.775024 
L 225.418491 240.656312 
L 225.649206 240.656312 
L 225.730799 240.418888 
L 225.78003 240.418888 
L 225.856642 240.181463 
L 226.018185 240.181463 
L 226.018185 239.944039 
L 226.130034 239.944039 
L 226.196802 239.46919 
L 226.27906 239.46919 
L 226.27906 239.350478 
L 226.418816 239.350478 
L 226.524526 238.875629 
L 226.587903 238.875629 
L 226.669295 238.282068 
L 229.632779 238.282068 
L 229.650843 237.80722 
L 229.897181 237.80722 
L 230.008032 237.451083 
L 230.01 237.451083 
L 230.099144 236.620098 
L 232.333492 236.620098 
L 232.333492 236.501385 
L 232.615429 236.501385 
L 232.707312 236.263961 
L 232.820457 236.263961 
L 232.922645 235.6704 
L 232.940928 235.6704 
L 232.986599 235.195551 
L 235.420664 235.195551 
L 235.468433 234.364566 
L 237.340825 234.364566 
L 237.340825 234.245854 
L 237.597793 234.245854 
L 237.646447 233.889717 
L 237.71707 233.889717 
L 237.726736 233.53358 
L 238.900847 233.53358 
L 238.900847 233.414868 
L 239.430337 233.414868 
L 239.505039 233.177444 
L 239.583943 233.177444 
L 239.670527 232.465171 
L 241.409448 232.465171 
L 241.46477 232.109034 
L 242.968948 232.109034 
L 242.968948 231.990322 
L 243.104694 231.990322 
L 243.12862 231.752898 
L 244.566261 231.752898 
L 244.637619 231.396761 
L 245.839959 231.396761 
L 245.923596 231.159337 
L 245.965949 231.159337 
L 246.009385 230.8032 
L 246.622713 230.8032 
L 246.622713 230.684488 
L 247.255765 230.684488 
L 247.33049 230.209639 
L 248.376839 230.209639 
L 248.376839 229.972215 
L 249.527546 229.972215 
L 249.527546 229.73479 
L 249.668343 229.73479 
L 249.685709 229.497366 
L 250.709738 229.497366 
L 250.709738 229.378654 
L 251.637145 229.378654 
L 251.637145 229.259941 
L 251.778592 229.259941 
L 251.778592 229.141229 
L 252.609388 229.141229 
L 252.609388 229.022517 
L 253.649477 229.022517 
L 253.649477 228.903805 
L 254.414985 228.903805 
L 254.52366 228.428956 
L 255.256695 228.428956 
L 255.256695 228.310244 
L 256.129611 228.310244 
L 256.163482 227.954107 
L 256.905246 227.954107 
L 256.916926 227.597971 
L 258.37851 227.597971 
L 258.37851 227.479259 
L 258.978727 227.479259 
L 259.063184 227.241834 
L 260.372662 227.241834 
L 260.372662 227.123122 
L 262.14664 227.123122 
L 262.14664 227.00441 
L 264.245905 227.00441 
L 264.245905 226.885698 
L 264.803438 226.885698 
L 264.811733 226.648273 
L 265.300649 226.648273 
L 265.300649 226.529561 
L 266.703084 226.529561 
L 266.703084 226.410849 
L 267.986992 226.410849 
L 267.986992 226.292137 
L 269.208635 226.292137 
L 269.208635 226.173424 
L 270.349579 226.173424 
L 270.349579 226.054712 
L 281.249139 226.054712 
L 281.249139 225.936 
L 360.8064 225.936 
L 360.8064 225.936 
" style="fill:none;stroke:#000080;stroke-linecap:square;stroke-width:1.5;"/>
   </g>
   <g id="line2d_31">
    <defs>
     <path d="M 0 6 
C 1.591219 6 3.117479 5.367802 4.242641 4.242641 
C 5.367802 3.117479 6 1.591219 6 0 
C 6 -1.591219 5.367802 -3.117479 4.242641 -4.242641 
C 3.117479 -5.367802 1.591219 -6 0 -6 
C -1.591219 -6 -3.117479 -5.367802 -4.242641 -4.242641 
C -5.367802 -3.117479 -6 -1.591219 -6 0 
C -6 1.591219 -5.367802 3.117479 -4.242641 4.242641 
C -3.117479 5.367802 -1.591219 6 0 6 
z
" id="m2802ab2d79" style="stroke:#000080;stroke-width:1.5;"/>
    </defs>
    <g>
     <use style="fill-opacity:0;stroke:#000080;stroke-width:1.5;" x="192.482888" xlink:href="#m2802ab2d79" y="265.348449"/>
     <use style="fill-opacity:0;stroke:#000080;stroke-width:1.5;" x="259.063184" xlink:href="#m2802ab2d79" y="227.241834"/>
     <use style="fill-opacity:0;stroke:#000080;stroke-width:1.5;" x="281.249139" xlink:href="#m2802ab2d79" y="225.936"/>
     <use style="fill-opacity:0;stroke:#000080;stroke-width:1.5;" x="360.8064" xlink:href="#m2802ab2d79" y="225.936"/>
    </g>
   </g>
   <g id="line2d_32">
    <path style="fill:none;stroke:#000080;stroke-linecap:square;stroke-width:1.5;"/>
    <g/>
   </g>
   <g id="line2d_33">
    <path clip-path="url(#paaa74bc7da)" d="M 196.393857 255.732761 
" style="fill:none;stroke:#000080;stroke-linecap:square;stroke-width:1.5;"/>
    <defs>
     <path d="M -12 12 
L 12 -12 
M -12 -12 
L 12 12 
" id="mfa1e5ad8fd" style="stroke:#000080;"/>
    </defs>
    <g clip-path="url(#paaa74bc7da)">
     <use style="fill:#000080;stroke:#000080;" x="196.393857" xlink:href="#mfa1e5ad8fd" y="255.732761"/>
    </g>
   </g>
   <g id="line2d_34">
    <defs>
     <path d="M 0 1.5 
C 0.397805 1.5 0.77937 1.341951 1.06066 1.06066 
C 1.341951 0.77937 1.5 0.397805 1.5 0 
C 1.5 -0.397805 1.341951 -0.77937 1.06066 -1.06066 
C 0.77937 -1.341951 0.397805 -1.5 0 -1.5 
C -0.397805 -1.5 -0.77937 -1.341951 -1.06066 -1.06066 
C -1.341951 -0.77937 -1.5 -0.397805 -1.5 0 
C -1.5 0.397805 -1.341951 0.77937 -1.06066 1.06066 
C -0.77937 1.341951 -0.397805 1.5 0 1.5 
z
" id="m34399db0d1" style="stroke:#ff00ff;"/>
    </defs>
    <g>
     <use style="fill:#ff00ff;stroke:#ff00ff;" x="333.024871" xlink:href="#m34399db0d1" y="131.559805"/>
     <use style="fill:#ff00ff;stroke:#ff00ff;" x="333.024871" xlink:href="#m34399db0d1" y="131.559805"/>
    </g>
   </g>
   <g id="line2d_35">
    <path d="M 184.041018 298.944 
L 184.103241 298.587863 
L 185.254344 298.587863 
L 185.317981 298.350439 
L 186.26872 298.350439 
L 186.339053 298.113015 
L 187.726727 298.113015 
L 187.808527 297.87559 
L 188.474613 297.87559 
L 188.562144 297.638166 
L 189.187866 297.638166 
L 189.235213 297.400741 
L 189.817632 297.400741 
L 189.878384 297.044605 
L 190.085788 297.044605 
L 190.085788 296.925893 
L 190.452802 296.925893 
L 190.452802 296.80718 
L 190.669145 296.80718 
L 190.669145 296.688468 
L 190.862536 296.688468 
L 190.887753 296.451044 
L 191.05318 296.451044 
L 191.05318 296.332332 
L 191.370525 296.332332 
L 191.370525 296.21362 
L 191.806002 296.21362 
L 191.806002 296.094907 
L 192.131649 296.094907 
L 192.131649 295.976195 
L 192.282879 295.976195 
L 192.371873 295.738771 
L 192.46262 295.738771 
L 192.46262 295.620059 
L 192.634202 295.620059 
L 192.634202 295.501346 
L 192.777901 295.501346 
L 192.777901 295.382634 
L 193.219925 295.382634 
L 193.268558 295.14521 
L 193.382008 295.14521 
L 193.382008 295.026498 
L 193.692549 295.026498 
L 193.692549 294.907785 
L 194.150278 294.907785 
L 194.150278 294.789073 
L 194.605537 294.789073 
L 194.605537 294.670361 
L 195.21343 294.670361 
L 195.21343 294.551649 
L 195.424976 294.551649 
L 195.529248 294.195512 
L 195.667181 294.195512 
L 195.667181 294.0768 
L 195.850743 294.0768 
L 195.850743 293.958088 
L 196.129922 293.958088 
L 196.129922 293.839376 
L 196.262944 293.839376 
L 196.262944 293.720663 
L 196.40913 293.720663 
L 196.446085 293.364527 
L 197.057799 293.364527 
L 197.1314 293.00839 
L 197.667827 293.00839 
L 197.667827 292.889678 
L 197.801895 292.889678 
L 197.801895 292.770966 
L 198.600428 292.770966 
L 198.625497 292.533541 
L 199.08894 292.533541 
L 199.08894 292.414829 
L 199.39101 292.414829 
L 199.39101 292.296117 
L 199.724279 292.296117 
L 199.817094 291.93998 
L 199.92115 291.93998 
L 199.979035 291.702556 
L 200.399275 291.702556 
L 200.399275 291.583844 
L 200.60616 291.583844 
L 200.649797 291.34642 
L 200.719032 291.34642 
L 200.827981 291.108995 
L 200.905813 291.108995 
L 200.917368 290.871571 
L 201.203043 290.871571 
L 201.305612 290.634146 
L 201.369773 290.634146 
L 201.383751 290.396722 
L 201.504161 290.396722 
L 201.58817 289.921873 
L 202.041456 289.921873 
L 202.138266 289.684449 
L 202.194905 289.684449 
L 202.194905 289.565737 
L 202.321831 289.565737 
L 202.321831 289.447024 
L 202.500648 289.447024 
L 202.546889 289.2096 
L 202.633971 289.2096 
L 202.633971 289.090888 
L 202.79063 289.090888 
L 202.79063 288.972176 
L 203.049001 288.972176 
L 203.072913 288.616039 
L 203.22393 288.616039 
L 203.290843 288.378615 
L 203.68899 288.378615 
L 203.68899 288.259902 
L 204.140104 288.259902 
L 204.140104 288.14119 
L 204.426769 288.14119 
L 204.426769 288.022478 
L 204.553253 288.022478 
L 204.553253 287.903766 
L 204.666024 287.903766 
L 204.702709 287.666341 
L 204.814216 287.666341 
L 204.817596 287.428917 
L 204.938875 287.428917 
L 205.047882 287.191493 
L 205.091234 287.191493 
L 205.194211 286.835356 
L 205.426142 286.835356 
L 205.475523 286.47922 
L 205.703315 286.47922 
L 205.780897 286.241795 
L 205.883016 286.241795 
L 205.990582 285.885659 
L 206.006806 285.885659 
L 206.110514 285.529522 
L 206.339103 285.529522 
L 206.40514 285.292098 
L 206.556391 285.292098 
L 206.622695 285.054673 
L 206.73291 285.054673 
L 206.839111 284.698537 
L 206.873481 284.698537 
L 206.917195 284.3424 
L 207.064067 284.3424 
L 207.144874 283.986263 
L 207.196569 283.986263 
L 207.303811 283.630127 
L 207.398336 283.630127 
L 207.427777 283.27399 
L 207.516478 283.27399 
L 207.566838 282.917854 
L 207.635177 282.917854 
L 207.742848 282.680429 
L 208.07169 282.680429 
L 208.097574 282.324293 
L 208.269334 282.324293 
L 208.288392 281.968156 
L 208.671661 281.968156 
L 208.745558 281.61202 
L 208.80064 281.61202 
L 208.888859 281.255883 
L 209.010953 281.255883 
L 209.113442 280.899746 
L 209.176694 280.899746 
L 209.264653 280.54361 
L 209.350433 280.54361 
L 209.427007 280.068761 
L 209.489801 280.068761 
L 209.561435 279.4752 
L 209.779906 279.4752 
L 209.839234 279.000351 
L 209.973614 279.000351 
L 210.065037 278.169366 
L 210.160259 278.169366 
L 210.160259 278.050654 
L 210.306402 278.050654 
L 210.405715 277.694517 
L 210.512277 277.694517 
L 210.512277 277.575805 
L 210.67526 277.575805 
L 210.778121 276.982244 
L 210.850473 276.982244 
L 210.946148 276.626107 
L 211.020288 276.626107 
L 211.12612 276.269971 
L 211.168232 276.269971 
L 211.266575 275.913834 
L 211.286288 275.913834 
L 211.286288 275.795122 
L 211.466478 275.795122 
L 211.55383 275.438985 
L 211.688012 275.438985 
L 211.705206 275.201561 
L 211.811925 275.201561 
L 211.910574 274.726712 
L 211.935541 274.726712 
L 211.991276 274.370576 
L 212.094094 274.370576 
L 212.188994 274.014439 
L 212.241707 274.014439 
L 212.336622 273.658302 
L 212.354743 273.658302 
L 212.412262 273.302166 
L 212.476105 273.302166 
L 212.579793 272.708605 
L 212.596936 272.708605 
L 212.596936 272.589893 
L 212.763084 272.589893 
L 212.864962 272.233756 
L 212.884049 272.233756 
L 212.884049 272.115044 
L 213.056175 272.115044 
L 213.094186 271.87762 
L 213.193088 271.87762 
L 213.228422 271.640195 
L 213.360038 271.640195 
L 213.454234 271.165346 
L 213.480317 271.165346 
L 213.570849 270.571785 
L 213.741272 270.571785 
L 213.741272 270.453073 
L 213.856823 270.453073 
L 213.965666 269.978224 
L 213.99566 269.978224 
L 214.056655 269.622088 
L 214.125697 269.622088 
L 214.125697 269.503376 
L 214.247109 269.503376 
L 214.331996 269.265951 
L 214.372262 269.265951 
L 214.47907 268.67239 
L 214.529334 268.67239 
L 214.580135 268.197541 
L 214.74834 268.197541 
L 214.830118 267.960117 
L 214.928442 267.960117 
L 214.982116 267.485268 
L 215.042617 267.485268 
L 215.131811 266.891707 
L 215.183394 266.891707 
L 215.263736 266.416859 
L 215.366472 266.416859 
L 215.412499 265.94201 
L 215.514639 265.94201 
L 215.57409 265.585873 
L 215.693695 265.585873 
L 215.702329 265.348449 
L 215.815683 265.348449 
L 215.920035 264.754888 
L 215.941044 264.754888 
L 215.981539 264.398751 
L 216.08539 264.398751 
L 216.106628 264.161327 
L 216.208767 264.161327 
L 216.293632 263.567766 
L 216.350878 263.567766 
L 216.350878 263.449054 
L 216.4792 263.449054 
L 216.557828 262.73678 
L 216.664356 262.73678 
L 216.664356 262.618068 
L 216.788776 262.618068 
L 216.898355 261.905795 
L 216.961081 261.905795 
L 217.049879 261.549659 
L 217.084147 261.549659 
L 217.165161 261.193522 
L 217.214963 261.193522 
L 217.302767 260.481249 
L 217.354713 260.481249 
L 217.444556 259.887688 
L 217.507211 259.887688 
L 217.582046 259.412839 
L 217.644435 259.412839 
L 217.738389 258.344429 
L 217.764634 258.344429 
L 217.816075 257.988293 
L 217.913858 257.988293 
L 218.001076 257.394732 
L 218.185566 257.394732 
L 218.256653 257.157307 
L 218.362416 257.157307 
L 218.469042 256.20761 
L 218.514063 256.20761 
L 218.579947 255.851473 
L 218.646861 255.851473 
L 218.747415 255.257912 
L 218.809454 255.257912 
L 218.900265 254.783063 
L 218.933099 254.783063 
L 219.036371 254.189502 
L 219.102563 254.189502 
L 219.194772 253.714654 
L 219.260061 253.714654 
L 219.37057 253.358517 
L 219.377672 253.358517 
L 219.449233 252.883668 
L 219.616525 252.883668 
L 219.704722 252.290107 
L 219.744337 252.290107 
L 219.790307 252.052683 
L 219.907857 252.052683 
L 219.970722 251.34041 
L 220.080983 251.34041 
L 220.094824 251.102985 
L 220.301728 251.102985 
L 220.368222 250.746849 
L 220.463438 250.746849 
L 220.563866 250.272 
L 220.623283 250.272 
L 220.725765 249.915863 
L 220.743167 249.915863 
L 220.816305 249.20359 
L 220.876691 249.20359 
L 220.967782 248.847454 
L 220.992592 248.847454 
L 221.079329 248.491317 
L 221.14881 248.491317 
L 221.256941 247.54162 
L 221.30593 247.54162 
L 221.401348 247.066771 
L 221.49644 247.066771 
L 221.550211 246.829346 
L 221.613057 246.829346 
L 221.716113 246.235785 
L 221.854166 246.235785 
L 221.854166 246.117073 
L 221.975232 246.117073 
L 222.076177 245.4048 
L 222.119339 245.4048 
L 222.207601 244.811239 
L 222.247637 244.811239 
L 222.330565 244.098966 
L 222.384958 244.098966 
L 222.478155 243.386693 
L 222.497091 243.386693 
L 222.552908 243.030556 
L 222.689769 243.030556 
L 222.788407 242.555707 
L 222.803281 242.555707 
L 222.815402 242.199571 
L 222.918407 242.199571 
L 222.977138 241.724722 
L 223.03925 241.724722 
L 223.102862 240.893737 
L 223.158046 240.893737 
L 223.26793 239.825327 
L 223.312238 239.825327 
L 223.418853 238.875629 
L 223.465596 238.875629 
L 223.575781 237.569795 
L 223.584092 237.569795 
L 223.692073 236.263961 
L 223.702948 236.263961 
L 223.811345 234.008429 
L 223.815313 234.008429 
L 223.925379 233.296156 
L 223.984577 233.296156 
L 224.007067 232.94002 
L 224.141178 232.94002 
L 224.246552 232.109034 
L 224.255907 232.109034 
L 224.314476 231.752898 
L 224.419549 231.752898 
L 224.525619 231.159337 
L 224.54234 231.159337 
L 224.631356 230.684488 
L 224.655049 230.684488 
L 224.751995 230.090927 
L 224.780216 230.090927 
L 224.883889 229.497366 
L 224.914493 229.497366 
L 225.003567 228.785093 
L 225.049996 228.785093 
L 225.153726 228.07282 
L 225.164934 228.07282 
L 225.265248 227.597971 
L 225.294858 227.597971 
L 225.387817 226.648273 
L 225.444852 226.648273 
L 225.536949 225.579863 
L 225.562147 225.579863 
L 225.644118 224.86759 
L 225.704837 224.86759 
L 225.798012 223.79918 
L 225.839453 223.79918 
L 225.946138 222.493346 
L 225.962254 222.493346 
L 226.072494 221.424937 
L 226.075648 221.424937 
L 226.161093 220.712663 
L 226.237615 220.712663 
L 226.343508 220.119102 
L 226.371351 220.119102 
L 226.470082 218.694556 
L 226.521801 218.694556 
L 226.599586 217.982283 
L 226.638358 217.982283 
L 226.708158 217.032585 
L 226.797089 217.032585 
L 226.9072 215.845463 
L 226.916134 215.845463 
L 226.98838 215.014478 
L 227.028667 215.014478 
L 227.12849 214.420917 
L 227.156112 214.420917 
L 227.262895 213.946068 
L 227.287592 213.946068 
L 227.398043 213.115083 
L 227.411719 213.115083 
L 227.469028 212.521522 
L 227.523468 212.521522 
L 227.608747 212.165385 
L 227.656206 212.165385 
L 227.75598 211.096976 
L 227.784026 211.096976 
L 227.891609 210.26599 
L 227.910653 210.26599 
L 228.01117 208.485307 
L 228.03064 208.485307 
L 228.122035 207.53561 
L 228.15356 207.53561 
L 228.25506 206.704624 
L 228.293049 206.704624 
L 228.368797 205.517502 
L 228.408914 205.517502 
L 228.516082 204.449093 
L 228.525456 204.449093 
L 228.608441 203.855532 
L 228.655033 203.855532 
L 228.763651 202.66841 
L 228.777315 202.66841 
L 228.871227 202.074849 
L 228.897242 202.074849 
L 228.967376 201.718712 
L 229.013296 201.718712 
L 229.036629 201.481288 
L 229.135444 201.481288 
L 229.222561 201.006439 
L 229.256394 201.006439 
L 229.343159 200.175454 
L 229.410129 200.175454 
L 229.521051 198.988332 
L 229.522667 198.988332 
L 229.586386 198.276059 
L 229.6532 198.276059 
L 229.719078 197.80121 
L 229.78383 197.80121 
L 229.88277 196.851512 
L 229.943999 196.851512 
L 230.021953 196.020527 
L 230.090082 196.020527 
L 230.200391 195.189541 
L 230.202339 195.189541 
L 230.308409 194.59598 
L 230.338992 194.59598 
L 230.445355 194.121132 
L 230.451508 194.121132 
L 230.541459 193.290146 
L 230.575009 193.290146 
L 230.668935 192.696585 
L 230.686221 192.696585 
L 230.766175 191.746888 
L 230.798478 191.746888 
L 230.895522 190.915902 
L 230.924416 190.915902 
L 231.032469 189.966205 
L 231.046258 189.966205 
L 231.134436 189.253932 
L 231.180267 189.253932 
L 231.27141 188.897795 
L 231.304419 188.897795 
L 231.405474 188.06681 
L 231.420271 188.06681 
L 231.507081 187.591961 
L 231.535959 187.591961 
L 231.600456 186.879688 
L 231.664553 186.879688 
L 231.741721 186.167415 
L 231.782157 186.167415 
L 231.838586 185.573854 
L 231.899297 185.573854 
L 232.008899 184.980293 
L 232.087402 184.980293 
L 232.190659 184.624156 
L 232.206778 184.624156 
L 232.312432 183.318322 
L 232.347489 183.318322 
L 232.445875 182.606049 
L 232.480858 182.606049 
L 232.524817 182.249912 
L 232.614058 182.249912 
L 232.711233 181.893776 
L 232.810114 181.893776 
L 232.909743 181.300215 
L 232.932926 181.300215 
L 233.037104 180.469229 
L 233.071674 180.469229 
L 233.071674 180.350517 
L 233.218121 180.350517 
L 233.307361 179.638244 
L 233.362119 179.638244 
L 233.436578 178.925971 
L 233.475088 178.925971 
L 233.57493 178.213698 
L 233.604463 178.213698 
L 233.705967 177.738849 
L 233.74498 177.738849 
L 233.811189 177.382712 
L 233.862257 177.382712 
L 233.889821 177.145288 
L 233.98542 177.145288 
L 234.096303 176.551727 
L 234.140679 176.551727 
L 234.221488 175.958166 
L 234.298035 175.958166 
L 234.372555 175.364605 
L 234.450124 175.364605 
L 234.473968 174.889756 
L 234.565416 174.889756 
L 234.607467 174.652332 
L 234.683614 174.652332 
L 234.744158 174.058771 
L 234.819221 174.058771 
L 234.893075 173.46521 
L 234.973974 173.46521 
L 235.019044 172.871649 
L 235.12289 172.871649 
L 235.12289 172.752937 
L 235.239734 172.752937 
L 235.328878 172.159376 
L 235.379617 172.159376 
L 235.459191 171.565815 
L 235.500175 171.565815 
L 235.56511 171.090966 
L 235.616094 171.090966 
L 235.694385 170.497405 
L 235.729924 170.497405 
L 235.758872 170.25998 
L 235.853603 170.25998 
L 235.95317 169.191571 
L 235.971816 169.191571 
L 236.024213 168.835434 
L 236.131414 168.835434 
L 236.232211 167.767024 
L 236.306858 167.767024 
L 236.406512 166.936039 
L 236.506129 166.936039 
L 236.584625 166.46119 
L 236.62337 166.46119 
L 236.71241 165.867629 
L 236.750892 165.867629 
L 236.767459 165.274068 
L 236.883703 165.274068 
L 236.991969 164.680507 
L 237.041807 164.680507 
L 237.128959 164.086946 
L 237.233481 164.086946 
L 237.241255 163.849522 
L 237.447958 163.849522 
L 237.529558 163.374673 
L 237.601409 163.374673 
L 237.685751 163.137249 
L 237.788469 163.137249 
L 237.841696 162.781112 
L 238.088626 162.781112 
L 238.194079 161.950127 
L 238.21814 161.950127 
L 238.21814 161.831415 
L 238.412359 161.831415 
L 238.412359 161.712702 
L 238.556609 161.712702 
L 238.556609 161.59399 
L 238.681399 161.59399 
L 238.73637 161.356566 
L 238.84614 161.356566 
L 238.884983 161.000429 
L 239.018109 161.000429 
L 239.107634 160.169444 
L 239.166396 160.169444 
L 239.202109 159.93202 
L 239.35375 159.93202 
L 239.444258 159.694595 
L 239.544592 159.694595 
L 239.568111 159.338459 
L 239.685154 159.338459 
L 239.780878 158.626185 
L 239.813398 158.626185 
L 239.813398 158.507473 
L 239.932123 158.507473 
L 239.986516 157.676488 
L 240.067639 157.676488 
L 240.067639 157.557776 
L 240.191249 157.557776 
L 240.191249 157.439063 
L 240.348164 157.439063 
L 240.428764 156.845502 
L 240.518028 156.845502 
L 240.578893 156.489366 
L 240.678672 156.489366 
L 240.678672 156.370654 
L 240.952331 156.370654 
L 241.048785 155.777093 
L 241.082138 155.777093 
L 241.082138 155.65838 
L 241.33225 155.65838 
L 241.422006 155.302244 
L 241.633907 155.302244 
L 241.633907 155.183532 
L 241.8018 155.183532 
L 241.877622 154.708683 
L 242.016248 154.708683 
L 242.108239 154.352546 
L 242.129074 154.352546 
L 242.238967 153.758985 
L 242.37828 153.758985 
L 242.468065 153.521561 
L 242.502896 153.521561 
L 242.603934 153.284137 
L 242.770866 153.284137 
L 242.8502 152.809288 
L 243.052299 152.809288 
L 243.052299 152.690576 
L 243.179239 152.690576 
L 243.186226 152.453151 
L 243.417894 152.453151 
L 243.489601 152.215727 
L 243.586301 152.215727 
L 243.586301 152.097015 
L 243.764065 152.097015 
L 243.764065 151.978302 
L 244.02384 151.978302 
L 244.02384 151.85959 
L 244.182392 151.85959 
L 244.182392 151.740878 
L 244.381106 151.740878 
L 244.381106 151.622166 
L 244.599731 151.622166 
L 244.693068 151.384741 
L 244.742598 151.384741 
L 244.743453 151.147317 
L 245.019891 151.147317 
L 245.019891 151.028605 
L 245.283501 151.028605 
L 245.383209 150.79118 
L 245.411612 150.79118 
L 245.411612 150.553756 
L 245.857958 150.553756 
L 245.857958 150.435044 
L 246.041581 150.435044 
L 246.041581 150.316332 
L 246.235521 150.316332 
L 246.235521 150.19762 
L 246.433443 150.19762 
L 246.4859 149.960195 
L 246.60704 149.960195 
L 246.60704 149.841483 
L 246.73845 149.841483 
L 246.829547 149.604059 
L 247.65167 149.604059 
L 247.65167 149.485346 
L 247.769382 149.485346 
L 247.769382 149.366634 
L 248.603754 149.366634 
L 248.603754 149.247922 
L 251.058417 149.247922 
L 251.058417 149.12921 
L 251.186141 149.12921 
L 251.233301 148.773073 
L 251.314367 148.773073 
L 251.314367 148.654361 
L 252.501616 148.654361 
L 252.501616 148.535649 
L 253.076564 148.535649 
L 253.076564 148.416937 
L 253.649225 148.416937 
L 253.649225 148.298224 
L 256.380231 148.298224 
L 256.380231 148.179512 
L 256.694699 148.179512 
L 256.694699 148.0608 
L 257.024606 148.0608 
L 257.024606 147.942088 
L 257.601725 147.942088 
L 257.601725 147.823376 
L 258.574529 147.823376 
L 258.574529 147.704663 
L 258.73051 147.704663 
L 258.73051 147.585951 
L 259.061892 147.585951 
L 259.061892 147.467239 
L 259.193949 147.467239 
L 259.193949 147.348527 
L 262.1621 147.348527 
L 262.1621 147.111102 
L 262.303419 147.111102 
L 262.303419 146.99239 
L 262.643277 146.99239 
L 262.711185 146.754966 
L 262.818424 146.754966 
L 262.921274 146.398829 
L 263.756818 146.398829 
L 263.823407 146.161405 
L 263.987256 146.161405 
L 263.987256 146.042693 
L 264.175828 146.042693 
L 264.175828 145.92398 
L 264.510734 145.92398 
L 264.511504 145.686556 
L 264.635739 145.686556 
L 264.635739 145.567844 
L 265.101365 145.567844 
L 265.101365 145.449132 
L 265.4066 145.449132 
L 265.423773 145.211707 
L 266.117153 145.211707 
L 266.216972 144.974283 
L 266.242242 144.974283 
L 266.242242 144.855571 
L 266.949051 144.855571 
L 266.981025 144.499434 
L 267.427747 144.499434 
L 267.427747 144.380722 
L 267.902324 144.380722 
L 267.902324 144.26201 
L 268.616847 144.26201 
L 268.616847 144.024585 
L 268.934553 144.024585 
L 268.934553 143.787161 
L 269.898794 143.787161 
L 269.898794 143.668449 
L 270.802377 143.668449 
L 270.802377 143.549737 
L 271.949662 143.549737 
L 271.949662 143.431024 
L 272.085821 143.431024 
L 272.085821 143.312312 
L 273.011357 143.312312 
L 273.011357 143.1936 
L 273.229698 143.1936 
L 273.229698 143.074888 
L 274.768398 143.074888 
L 274.768398 142.956176 
L 275.943241 142.956176 
L 276.006744 142.718751 
L 276.100201 142.718751 
L 276.100201 142.600039 
L 276.262573 142.600039 
L 276.262573 142.481327 
L 276.431825 142.481327 
L 276.518964 142.12519 
L 277.246631 142.12519 
L 277.324198 141.769054 
L 279.34091 141.769054 
L 279.34091 141.650341 
L 280.436133 141.650341 
L 280.436133 141.531629 
L 281.136978 141.531629 
L 281.136978 141.412917 
L 282.417324 141.412917 
L 282.417324 141.294205 
L 283.336994 141.294205 
L 283.397403 141.05678 
L 283.847628 141.05678 
L 283.847628 140.938068 
L 283.959672 140.938068 
L 283.959672 140.819356 
L 284.142111 140.819356 
L 284.142111 140.581932 
L 284.640279 140.581932 
L 284.640279 140.46322 
L 284.776485 140.46322 
L 284.776485 140.344507 
L 286.391806 140.344507 
L 286.391806 140.225795 
L 286.641928 140.225795 
L 286.641928 139.869659 
L 288.152867 139.869659 
L 288.152867 139.750946 
L 288.376938 139.750946 
L 288.423167 139.513522 
L 288.768798 139.513522 
L 288.855111 139.157385 
L 289.147994 139.157385 
L 289.147994 139.038673 
L 289.381931 139.038673 
L 289.381931 138.919961 
L 290.604506 138.919961 
L 290.604506 138.801249 
L 290.75709 138.801249 
L 290.75709 138.682537 
L 290.955685 138.682537 
L 290.955685 138.563824 
L 292.584684 138.563824 
L 292.624122 138.3264 
L 292.767721 138.3264 
L 292.767721 138.207688 
L 293.717065 138.207688 
L 293.717065 137.732839 
L 294.462427 137.732839 
L 294.462427 137.495415 
L 296.152995 137.495415 
L 296.152995 137.376702 
L 297.459752 137.376702 
L 297.459752 137.25799 
L 298.41509 137.25799 
L 298.41509 137.020566 
L 298.615528 137.020566 
L 298.691081 136.783141 
L 298.871122 136.783141 
L 298.871122 136.664429 
L 299.416604 136.664429 
L 299.416604 136.545717 
L 299.969971 136.545717 
L 299.969971 136.427005 
L 301.770982 136.427005 
L 301.770982 136.308293 
L 302.217477 136.308293 
L 302.217477 136.18958 
L 302.754023 136.18958 
L 302.754023 136.070868 
L 303.152616 136.070868 
L 303.152616 135.952156 
L 303.784866 135.952156 
L 303.784866 135.833444 
L 304.925446 135.833444 
L 304.925446 135.714732 
L 305.089024 135.714732 
L 305.089024 135.59602 
L 305.639448 135.59602 
L 305.67498 135.239883 
L 306.97106 135.239883 
L 306.97106 135.121171 
L 307.359973 135.121171 
L 307.359973 134.883746 
L 308.277137 134.883746 
L 308.277137 134.765034 
L 308.54844 134.765034 
L 308.54844 134.408898 
L 308.906366 134.408898 
L 308.906366 134.290185 
L 310.30751 134.290185 
L 310.30751 134.171473 
L 311.354467 134.171473 
L 311.354467 134.052761 
L 311.637361 134.052761 
L 311.663199 133.815337 
L 312.879376 133.815337 
L 312.879376 133.696624 
L 313.59085 133.696624 
L 313.59085 133.577912 
L 314.044442 133.577912 
L 314.044442 133.4592 
L 316.317007 133.4592 
L 316.317007 133.340488 
L 316.852776 133.340488 
L 316.852776 133.221776 
L 317.894074 133.221776 
L 317.894074 132.865639 
L 318.094338 132.865639 
L 318.094338 132.746927 
L 319.833242 132.746927 
L 319.849959 132.509502 
L 320.471167 132.509502 
L 320.471167 132.39079 
L 324.266793 132.39079 
L 324.266793 132.272078 
L 325.522901 132.272078 
L 325.535256 132.034654 
L 326.585549 132.034654 
L 326.585549 131.915941 
L 327.841244 131.915941 
L 327.841244 131.678517 
L 333.024871 131.678517 
L 333.024871 131.559805 
L 360.8064 131.559805 
L 360.8064 131.559805 
" style="fill:none;stroke:#ff00ff;stroke-linecap:square;stroke-width:1.5;"/>
   </g>
   <g id="line2d_36">
    <defs>
     <path d="M -0 8.485281 
L 5.091169 0 
L 0 -8.485281 
L -5.091169 -0 
z
" id="m8bd8050aee" style="stroke:#ff00ff;stroke-linejoin:miter;stroke-width:1.5;"/>
    </defs>
    <g>
     <use style="fill-opacity:0;stroke:#ff00ff;stroke-linejoin:miter;stroke-width:1.5;" x="222.815402" xlink:href="#m8bd8050aee" y="242.318283"/>
     <use style="fill-opacity:0;stroke:#ff00ff;stroke-linejoin:miter;stroke-width:1.5;" x="301.770982" xlink:href="#m8bd8050aee" y="136.427005"/>
     <use style="fill-opacity:0;stroke:#ff00ff;stroke-linejoin:miter;stroke-width:1.5;" x="333.024871" xlink:href="#m8bd8050aee" y="131.559805"/>
     <use style="fill-opacity:0;stroke:#ff00ff;stroke-linejoin:miter;stroke-width:1.5;" x="360.8064" xlink:href="#m8bd8050aee" y="131.559805"/>
    </g>
   </g>
   <g id="line2d_37">
    <path style="fill:none;stroke:#ff00ff;stroke-linecap:square;stroke-width:1.5;"/>
    <g/>
   </g>
   <g id="line2d_38">
    <path clip-path="url(#paaa74bc7da)" d="M 261.136948 147.348527 
" style="fill:none;stroke:#ff00ff;stroke-linecap:square;stroke-width:1.5;"/>
    <defs>
     <path d="M -12 12 
L 12 -12 
M -12 -12 
L 12 12 
" id="mb335c76b8c" style="stroke:#ff00ff;"/>
    </defs>
    <g clip-path="url(#paaa74bc7da)">
     <use style="fill:#ff00ff;stroke:#ff00ff;" x="261.136948" xlink:href="#mb335c76b8c" y="147.348527"/>
    </g>
   </g>
   <g id="line2d_39">
    <path d="M 360.8064 225.936 
L 380.514816 293.10336 
" style="fill:none;stroke:#000080;stroke-linecap:square;stroke-width:1.5;"/>
    <g>
     <use style="fill-opacity:0;stroke:#000080;stroke-width:1.5;" x="360.8064" xlink:href="#m2802ab2d79" y="225.936"/>
     <use style="fill-opacity:0;stroke:#000080;stroke-width:1.5;" x="380.514816" xlink:href="#m2802ab2d79" y="293.10336"/>
    </g>
   </g>
   <g id="line2d_40">
    <path d="M 360.8064 131.559805 
L 380.514816 12.75264 
" style="fill:none;stroke:#ff00ff;stroke-linecap:square;stroke-width:1.5;"/>
    <g>
     <use style="fill-opacity:0;stroke:#ff00ff;stroke-linejoin:miter;stroke-width:1.5;" x="360.8064" xlink:href="#m8bd8050aee" y="131.559805"/>
     <use style="fill-opacity:0;stroke:#ff00ff;stroke-linejoin:miter;stroke-width:1.5;" x="380.514816" xlink:href="#m8bd8050aee" y="12.75264"/>
    </g>
   </g>
   <g id="line2d_41">
    <path d="M 360.8064 298.944 
L 360.8064 6.912 
" style="fill:none;stroke:#000000;stroke-linecap:square;stroke-width:1.5;"/>
   </g>
   <g id="patch_3">
    <path d="M 57.6 298.944 
L 360.8064 298.944 
" style="fill:none;stroke:#000000;stroke-linecap:square;stroke-linejoin:miter;stroke-width:0.8;"/>
   </g>
   <g id="patch_4">
    <path d="M 57.6 6.912 
L 360.8064 6.912 
" style="fill:none;stroke:#000000;stroke-linecap:square;stroke-linejoin:miter;stroke-width:0.8;"/>
   </g>
   <g id="text_13">
    <!-- al-defaul -->
    <g transform="translate(386.578944 296.966485)scale(0.14 -0.14)">
     <defs>
      <path d="M 4.890625 31.390625 
L 31.203125 31.390625 
L 31.203125 23.390625 
L 4.890625 23.390625 
z
" id="DejaVuSans-45"/>
     </defs>
     <use xlink:href="#DejaVuSans-97"/>
     <use x="61.279297" xlink:href="#DejaVuSans-108"/>
     <use x="89.0625" xlink:href="#DejaVuSans-45"/>
     <use x="125.146484" xlink:href="#DejaVuSans-100"/>
     <use x="188.623047" xlink:href="#DejaVuSans-101"/>
     <use x="250.146484" xlink:href="#DejaVuSans-102"/>
     <use x="285.351562" xlink:href="#DejaVuSans-97"/>
     <use x="346.630859" xlink:href="#DejaVuSans-117"/>
     <use x="410.009766" xlink:href="#DejaVuSans-108"/>
    </g>
   </g>
   <g id="text_14">
    <!-- al3 -->
    <g transform="translate(386.578944 16.615765)scale(0.14 -0.14)">
     <defs>
      <path d="M 40.578125 39.3125 
Q 47.65625 37.796875 51.625 33 
Q 55.609375 28.21875 55.609375 21.1875 
Q 55.609375 10.40625 48.1875 4.484375 
Q 40.765625 -1.421875 27.09375 -1.421875 
Q 22.515625 -1.421875 17.65625 -0.515625 
Q 12.796875 0.390625 7.625 2.203125 
L 7.625 11.71875 
Q 11.71875 9.328125 16.59375 8.109375 
Q 21.484375 6.890625 26.8125 6.890625 
Q 36.078125 6.890625 40.9375 10.546875 
Q 45.796875 14.203125 45.796875 21.1875 
Q 45.796875 27.640625 41.28125 31.265625 
Q 36.765625 34.90625 28.71875 34.90625 
L 20.21875 34.90625 
L 20.21875 43.015625 
L 29.109375 43.015625 
Q 36.375 43.015625 40.234375 45.921875 
Q 44.09375 48.828125 44.09375 54.296875 
Q 44.09375 59.90625 40.109375 62.90625 
Q 36.140625 65.921875 28.71875 65.921875 
Q 24.65625 65.921875 20.015625 65.03125 
Q 15.375 64.15625 9.8125 62.3125 
L 9.8125 71.09375 
Q 15.4375 72.65625 20.34375 73.4375 
Q 25.25 74.21875 29.59375 74.21875 
Q 40.828125 74.21875 47.359375 69.109375 
Q 53.90625 64.015625 53.90625 55.328125 
Q 53.90625 49.265625 50.4375 45.09375 
Q 46.96875 40.921875 40.578125 39.3125 
z
" id="DejaVuSans-51"/>
     </defs>
     <use xlink:href="#DejaVuSans-97"/>
     <use x="61.279297" xlink:href="#DejaVuSans-108"/>
     <use x="89.0625" xlink:href="#DejaVuSans-51"/>
    </g>
   </g>
   <g id="text_15">
    <!-- bbob-constrained f22, f28, f34, f40, 40-D -->
    <g transform="translate(60.632064 17.582726)scale(0.102 -0.102)">
     <defs>
      <path d="M 48.6875 27.296875 
Q 48.6875 37.203125 44.609375 42.84375 
Q 40.53125 48.484375 33.40625 48.484375 
Q 26.265625 48.484375 22.1875 42.84375 
Q 18.109375 37.203125 18.109375 27.296875 
Q 18.109375 17.390625 22.1875 11.75 
Q 26.265625 6.109375 33.40625 6.109375 
Q 40.53125 6.109375 44.609375 11.75 
Q 48.6875 17.390625 48.6875 27.296875 
z
M 18.109375 46.390625 
Q 20.953125 51.265625 25.265625 53.625 
Q 29.59375 56 35.59375 56 
Q 45.5625 56 51.78125 48.09375 
Q 58.015625 40.1875 58.015625 27.296875 
Q 58.015625 14.40625 51.78125 6.484375 
Q 45.5625 -1.421875 35.59375 -1.421875 
Q 29.59375 -1.421875 25.265625 0.953125 
Q 20.953125 3.328125 18.109375 8.203125 
L 18.109375 0 
L 9.078125 0 
L 9.078125 75.984375 
L 18.109375 75.984375 
z
" id="DejaVuSans-98"/>
      <path d="M 19.671875 64.796875 
L 19.671875 8.109375 
L 31.59375 8.109375 
Q 46.6875 8.109375 53.6875 14.9375 
Q 60.6875 21.78125 60.6875 36.53125 
Q 60.6875 51.171875 53.6875 57.984375 
Q 46.6875 64.796875 31.59375 64.796875 
z
M 9.8125 72.90625 
L 30.078125 72.90625 
Q 51.265625 72.90625 61.171875 64.09375 
Q 71.09375 55.28125 71.09375 36.53125 
Q 71.09375 17.671875 61.125 8.828125 
Q 51.171875 0 30.078125 0 
L 9.8125 0 
z
" id="DejaVuSans-68"/>
     </defs>
     <use xlink:href="#DejaVuSans-98"/>
     <use x="63.476562" xlink:href="#DejaVuSans-98"/>
     <use x="126.953125" xlink:href="#DejaVuSans-111"/>
     <use x="188.134766" xlink:href="#DejaVuSans-98"/>
     <use x="251.611328" xlink:href="#DejaVuSans-45"/>
     <use x="287.695312" xlink:href="#DejaVuSans-99"/>
     <use x="342.675781" xlink:href="#DejaVuSans-111"/>
     <use x="403.857422" xlink:href="#DejaVuSans-110"/>
     <use x="467.236328" xlink:href="#DejaVuSans-115"/>
     <use x="519.335938" xlink:href="#DejaVuSans-116"/>
     <use x="558.544922" xlink:href="#DejaVuSans-114"/>
     <use x="599.658203" xlink:href="#DejaVuSans-97"/>
     <use x="660.9375" xlink:href="#DejaVuSans-105"/>
     <use x="688.720703" xlink:href="#DejaVuSans-110"/>
     <use x="752.099609" xlink:href="#DejaVuSans-101"/>
     <use x="813.623047" xlink:href="#DejaVuSans-100"/>
     <use x="877.099609" xlink:href="#DejaVuSans-32"/>
     <use x="908.886719" xlink:href="#DejaVuSans-102"/>
     <use x="944.091797" xlink:href="#DejaVuSans-50"/>
     <use x="1007.714844" xlink:href="#DejaVuSans-50"/>
     <use x="1071.337891" xlink:href="#DejaVuSans-44"/>
     <use x="1103.125" xlink:href="#DejaVuSans-32"/>
     <use x="1134.912109" xlink:href="#DejaVuSans-102"/>
     <use x="1170.117188" xlink:href="#DejaVuSans-50"/>
     <use x="1233.740234" xlink:href="#DejaVuSans-56"/>
     <use x="1297.363281" xlink:href="#DejaVuSans-44"/>
     <use x="1329.150391" xlink:href="#DejaVuSans-32"/>
     <use x="1360.9375" xlink:href="#DejaVuSans-102"/>
     <use x="1396.142578" xlink:href="#DejaVuSans-51"/>
     <use x="1459.765625" xlink:href="#DejaVuSans-52"/>
     <use x="1523.388672" xlink:href="#DejaVuSans-44"/>
     <use x="1555.175781" xlink:href="#DejaVuSans-32"/>
     <use x="1586.962891" xlink:href="#DejaVuSans-102"/>
     <use x="1622.167969" xlink:href="#DejaVuSans-52"/>
     <use x="1685.791016" xlink:href="#DejaVuSans-48"/>
     <use x="1749.414062" xlink:href="#DejaVuSans-44"/>
     <use x="1781.201172" xlink:href="#DejaVuSans-32"/>
     <use x="1812.988281" xlink:href="#DejaVuSans-52"/>
     <use x="1876.611328" xlink:href="#DejaVuSans-48"/>
     <use x="1940.234375" xlink:href="#DejaVuSans-45"/>
     <use x="1976.318359" xlink:href="#DejaVuSans-68"/>
    </g>
    <!-- 41 targets: 100..1e-06 -->
    <g transform="translate(60.632064 29.004495)scale(0.102 -0.102)">
     <defs>
      <path d="M 11.71875 12.40625 
L 22.015625 12.40625 
L 22.015625 0 
L 11.71875 0 
z
M 11.71875 51.703125 
L 22.015625 51.703125 
L 22.015625 39.3125 
L 11.71875 39.3125 
z
" id="DejaVuSans-58"/>
     </defs>
     <use xlink:href="#DejaVuSans-52"/>
     <use x="63.623047" xlink:href="#DejaVuSans-49"/>
     <use x="127.246094" xlink:href="#DejaVuSans-32"/>
     <use x="159.033203" xlink:href="#DejaVuSans-116"/>
     <use x="198.242188" xlink:href="#DejaVuSans-97"/>
     <use x="259.521484" xlink:href="#DejaVuSans-114"/>
     <use x="298.884766" xlink:href="#DejaVuSans-103"/>
     <use x="362.361328" xlink:href="#DejaVuSans-101"/>
     <use x="423.884766" xlink:href="#DejaVuSans-116"/>
     <use x="463.09375" xlink:href="#DejaVuSans-115"/>
     <use x="515.193359" xlink:href="#DejaVuSans-58"/>
     <use x="548.884766" xlink:href="#DejaVuSans-32"/>
     <use x="580.671875" xlink:href="#DejaVuSans-49"/>
     <use x="644.294922" xlink:href="#DejaVuSans-48"/>
     <use x="707.917969" xlink:href="#DejaVuSans-48"/>
     <use x="771.541016" xlink:href="#DejaVuSans-46"/>
     <use x="803.328125" xlink:href="#DejaVuSans-46"/>
     <use x="835.115234" xlink:href="#DejaVuSans-49"/>
     <use x="898.738281" xlink:href="#DejaVuSans-101"/>
     <use x="960.261719" xlink:href="#DejaVuSans-45"/>
     <use x="996.345703" xlink:href="#DejaVuSans-48"/>
     <use x="1059.96875" xlink:href="#DejaVuSans-54"/>
    </g>
    <!-- evals = f-evals + g-evals -->
    <g transform="translate(60.632064 40.426264)scale(0.102 -0.102)">
     <defs>
      <path d="M 10.59375 45.40625 
L 73.1875 45.40625 
L 73.1875 37.203125 
L 10.59375 37.203125 
z
M 10.59375 25.484375 
L 73.1875 25.484375 
L 73.1875 17.1875 
L 10.59375 17.1875 
z
" id="DejaVuSans-61"/>
      <path d="M 46 62.703125 
L 46 35.5 
L 73.1875 35.5 
L 73.1875 27.203125 
L 46 27.203125 
L 46 0 
L 37.796875 0 
L 37.796875 27.203125 
L 10.59375 27.203125 
L 10.59375 35.5 
L 37.796875 35.5 
L 37.796875 62.703125 
z
" id="DejaVuSans-43"/>
     </defs>
     <use xlink:href="#DejaVuSans-101"/>
     <use x="61.523438" xlink:href="#DejaVuSans-118"/>
     <use x="120.703125" xlink:href="#DejaVuSans-97"/>
     <use x="181.982422" xlink:href="#DejaVuSans-108"/>
     <use x="209.765625" xlink:href="#DejaVuSans-115"/>
     <use x="261.865234" xlink:href="#DejaVuSans-32"/>
     <use x="293.652344" xlink:href="#DejaVuSans-61"/>
     <use x="377.441406" xlink:href="#DejaVuSans-32"/>
     <use x="409.228516" xlink:href="#DejaVuSans-102"/>
     <use x="438.933594" xlink:href="#DejaVuSans-45"/>
     <use x="475.017578" xlink:href="#DejaVuSans-101"/>
     <use x="536.541016" xlink:href="#DejaVuSans-118"/>
     <use x="595.720703" xlink:href="#DejaVuSans-97"/>
     <use x="657" xlink:href="#DejaVuSans-108"/>
     <use x="684.783203" xlink:href="#DejaVuSans-115"/>
     <use x="736.882812" xlink:href="#DejaVuSans-32"/>
     <use x="768.669922" xlink:href="#DejaVuSans-43"/>
     <use x="852.458984" xlink:href="#DejaVuSans-32"/>
     <use x="884.246094" xlink:href="#DejaVuSans-103"/>
     <use x="947.722656" xlink:href="#DejaVuSans-45"/>
     <use x="983.806641" xlink:href="#DejaVuSans-101"/>
     <use x="1045.330078" xlink:href="#DejaVuSans-118"/>
     <use x="1104.509766" xlink:href="#DejaVuSans-97"/>
     <use x="1165.789062" xlink:href="#DejaVuSans-108"/>
     <use x="1193.572266" xlink:href="#DejaVuSans-115"/>
    </g>
    <!-- 15 instances -->
    <g transform="translate(60.632064 51.848032)scale(0.102 -0.102)">
     <defs>
      <path d="M 10.796875 72.90625 
L 49.515625 72.90625 
L 49.515625 64.59375 
L 19.828125 64.59375 
L 19.828125 46.734375 
Q 21.96875 47.46875 24.109375 47.828125 
Q 26.265625 48.1875 28.421875 48.1875 
Q 40.625 48.1875 47.75 41.5 
Q 54.890625 34.8125 54.890625 23.390625 
Q 54.890625 11.625 47.5625 5.09375 
Q 40.234375 -1.421875 26.90625 -1.421875 
Q 22.3125 -1.421875 17.546875 -0.640625 
Q 12.796875 0.140625 7.71875 1.703125 
L 7.71875 11.625 
Q 12.109375 9.234375 16.796875 8.0625 
Q 21.484375 6.890625 26.703125 6.890625 
Q 35.15625 6.890625 40.078125 11.328125 
Q 45.015625 15.765625 45.015625 23.390625 
Q 45.015625 31 40.078125 35.4375 
Q 35.15625 39.890625 26.703125 39.890625 
Q 22.75 39.890625 18.8125 39.015625 
Q 14.890625 38.140625 10.796875 36.28125 
z
" id="DejaVuSans-53"/>
     </defs>
     <use xlink:href="#DejaVuSans-49"/>
     <use x="63.623047" xlink:href="#DejaVuSans-53"/>
     <use x="127.246094" xlink:href="#DejaVuSans-32"/>
     <use x="159.033203" xlink:href="#DejaVuSans-105"/>
     <use x="186.816406" xlink:href="#DejaVuSans-110"/>
     <use x="250.195312" xlink:href="#DejaVuSans-115"/>
     <use x="302.294922" xlink:href="#DejaVuSans-116"/>
     <use x="341.503906" xlink:href="#DejaVuSans-97"/>
     <use x="402.783203" xlink:href="#DejaVuSans-110"/>
     <use x="466.162109" xlink:href="#DejaVuSans-99"/>
     <use x="521.142578" xlink:href="#DejaVuSans-101"/>
     <use x="582.666016" xlink:href="#DejaVuSans-115"/>
    </g>
   </g>
   <g id="text_16">
    <!-- v2.6.1.9 -->
    <g style="fill:#808080;" transform="translate(188.751637 293.943992)scale(0.1 -0.1)">
     <defs>
      <path d="M 10.984375 1.515625 
L 10.984375 10.5 
Q 14.703125 8.734375 18.5 7.8125 
Q 22.3125 6.890625 25.984375 6.890625 
Q 35.75 6.890625 40.890625 13.453125 
Q 46.046875 20.015625 46.78125 33.40625 
Q 43.953125 29.203125 39.59375 26.953125 
Q 35.25 24.703125 29.984375 24.703125 
Q 19.046875 24.703125 12.671875 31.3125 
Q 6.296875 37.9375 6.296875 49.421875 
Q 6.296875 60.640625 12.9375 67.421875 
Q 19.578125 74.21875 30.609375 74.21875 
Q 43.265625 74.21875 49.921875 64.515625 
Q 56.59375 54.828125 56.59375 36.375 
Q 56.59375 19.140625 48.40625 8.859375 
Q 40.234375 -1.421875 26.421875 -1.421875 
Q 22.703125 -1.421875 18.890625 -0.6875 
Q 15.09375 0.046875 10.984375 1.515625 
z
M 30.609375 32.421875 
Q 37.25 32.421875 41.125 36.953125 
Q 45.015625 41.5 45.015625 49.421875 
Q 45.015625 57.28125 41.125 61.84375 
Q 37.25 66.40625 30.609375 66.40625 
Q 23.96875 66.40625 20.09375 61.84375 
Q 16.21875 57.28125 16.21875 49.421875 
Q 16.21875 41.5 20.09375 36.953125 
Q 23.96875 32.421875 30.609375 32.421875 
z
" id="DejaVuSans-57"/>
     </defs>
     <use xlink:href="#DejaVuSans-118"/>
     <use x="59.179688" xlink:href="#DejaVuSans-50"/>
     <use x="122.802734" xlink:href="#DejaVuSans-46"/>
     <use x="154.589844" xlink:href="#DejaVuSans-54"/>
     <use x="218.212891" xlink:href="#DejaVuSans-46"/>
     <use x="250" xlink:href="#DejaVuSans-49"/>
     <use x="313.623047" xlink:href="#DejaVuSans-46"/>
     <use x="345.410156" xlink:href="#DejaVuSans-57"/>
    </g>
   </g>
  </g>
 </g>
 <defs>
  <clipPath id="paaa74bc7da">
   <rect height="292.032" width="303.2064" x="57.6" y="6.912"/>
  </clipPath>
 </defs>
</svg>
