<?xml version="1.0" encoding="utf-8" standalone="no"?>
<!DOCTYPE svg PUBLIC "-//W3C//DTD SVG 1.1//EN"
  "http://www.w3.org/Graphics/SVG/1.1/DTD/svg11.dtd">
<!-- Created with matplotlib (https://matplotlib.org/) -->
<svg height="345.6pt" version="1.1" viewBox="0 0 460.8 345.6" width="460.8pt" xmlns="http://www.w3.org/2000/svg" xmlns:xlink="http://www.w3.org/1999/xlink">
 <metadata>
  <rdf:RDF xmlns:cc="http://creativecommons.org/ns#" xmlns:dc="http://purl.org/dc/elements/1.1/" xmlns:rdf="http://www.w3.org/1999/02/22-rdf-syntax-ns#">
   <cc:Work>
    <dc:type rdf:resource="http://purl.org/dc/dcmitype/StillImage"/>
    <dc:date>2022-04-26T20:52:22.261965</dc:date>
    <dc:format>image/svg+xml</dc:format>
    <dc:creator>
     <cc:Agent>
      <dc:title>Matplotlib v3.3.3, https://matplotlib.org/</dc:title>
     </cc:Agent>
    </dc:creator>
   </cc:Work>
  </rdf:RDF>
 </metadata>
 <defs>
  <style type="text/css">*{stroke-linecap:butt;stroke-linejoin:round;}</style>
 </defs>
 <g id="figure_1">
  <g id="patch_1">
   <path d="M 0 345.6 
L 460.8 345.6 
L 460.8 0 
L 0 0 
z
" style="fill:#ffffff;"/>
  </g>
  <g id="axes_1">
   <g id="patch_2">
    <path d="M 57.6 298.944 
L 360.8064 298.944 
L 360.8064 6.912 
L 57.6 6.912 
z
" style="fill:#ffffff;"/>
   </g>
   <g id="matplotlib.axis_1">
    <g id="xtick_1">
     <g id="line2d_1">
      <path clip-path="url(#pbe4d50ace5)" d="M 57.6 298.944 
L 57.6 6.912 
" style="fill:none;stroke:#b0b0b0;stroke-linecap:square;stroke-width:0.8;"/>
     </g>
     <g id="line2d_2">
      <defs>
       <path d="M 0 0 
L 0 3.5 
" id="m6788a24a2e" style="stroke:#000000;stroke-width:0.8;"/>
      </defs>
      <g>
       <use style="stroke:#000000;stroke-width:0.8;" x="57.6" xlink:href="#m6788a24a2e" y="298.944"/>
      </g>
     </g>
     <g id="text_1">
      <!-- 0 -->
      <g transform="translate(52.191875 318.861344)scale(0.17 -0.17)">
       <defs>
        <path d="M 31.78125 66.40625 
Q 24.171875 66.40625 20.328125 58.90625 
Q 16.5 51.421875 16.5 36.375 
Q 16.5 21.390625 20.328125 13.890625 
Q 24.171875 6.390625 31.78125 6.390625 
Q 39.453125 6.390625 43.28125 13.890625 
Q 47.125 21.390625 47.125 36.375 
Q 47.125 51.421875 43.28125 58.90625 
Q 39.453125 66.40625 31.78125 66.40625 
z
M 31.78125 74.21875 
Q 44.046875 74.21875 50.515625 64.515625 
Q 56.984375 54.828125 56.984375 36.375 
Q 56.984375 17.96875 50.515625 8.265625 
Q 44.046875 -1.421875 31.78125 -1.421875 
Q 19.53125 -1.421875 13.0625 8.265625 
Q 6.59375 17.96875 6.59375 36.375 
Q 6.59375 54.828125 13.0625 64.515625 
Q 19.53125 74.21875 31.78125 74.21875 
z
" id="DejaVuSans-48"/>
       </defs>
       <use xlink:href="#DejaVuSans-48"/>
      </g>
     </g>
    </g>
    <g id="xtick_2">
     <g id="line2d_3">
      <path clip-path="url(#pbe4d50ace5)" d="M 144.2304 298.944 
L 144.2304 6.912 
" style="fill:none;stroke:#b0b0b0;stroke-linecap:square;stroke-width:0.8;"/>
     </g>
     <g id="line2d_4">
      <g>
       <use style="stroke:#000000;stroke-width:0.8;" x="144.2304" xlink:href="#m6788a24a2e" y="298.944"/>
      </g>
     </g>
     <g id="text_2">
      <!-- 2 -->
      <g transform="translate(138.822275 318.861344)scale(0.17 -0.17)">
       <defs>
        <path d="M 19.1875 8.296875 
L 53.609375 8.296875 
L 53.609375 0 
L 7.328125 0 
L 7.328125 8.296875 
Q 12.9375 14.109375 22.625 23.890625 
Q 32.328125 33.6875 34.8125 36.53125 
Q 39.546875 41.84375 41.421875 45.53125 
Q 43.3125 49.21875 43.3125 52.78125 
Q 43.3125 58.59375 39.234375 62.25 
Q 35.15625 65.921875 28.609375 65.921875 
Q 23.96875 65.921875 18.8125 64.3125 
Q 13.671875 62.703125 7.8125 59.421875 
L 7.8125 69.390625 
Q 13.765625 71.78125 18.9375 73 
Q 24.125 74.21875 28.421875 74.21875 
Q 39.75 74.21875 46.484375 68.546875 
Q 53.21875 62.890625 53.21875 53.421875 
Q 53.21875 48.921875 51.53125 44.890625 
Q 49.859375 40.875 45.40625 35.40625 
Q 44.1875 33.984375 37.640625 27.21875 
Q 31.109375 20.453125 19.1875 8.296875 
z
" id="DejaVuSans-50"/>
       </defs>
       <use xlink:href="#DejaVuSans-50"/>
      </g>
     </g>
    </g>
    <g id="xtick_3">
     <g id="line2d_5">
      <path clip-path="url(#pbe4d50ace5)" d="M 230.8608 298.944 
L 230.8608 6.912 
" style="fill:none;stroke:#b0b0b0;stroke-linecap:square;stroke-width:0.8;"/>
     </g>
     <g id="line2d_6">
      <g>
       <use style="stroke:#000000;stroke-width:0.8;" x="230.8608" xlink:href="#m6788a24a2e" y="298.944"/>
      </g>
     </g>
     <g id="text_3">
      <!-- 4 -->
      <g transform="translate(225.452675 318.861344)scale(0.17 -0.17)">
       <defs>
        <path d="M 37.796875 64.3125 
L 12.890625 25.390625 
L 37.796875 25.390625 
z
M 35.203125 72.90625 
L 47.609375 72.90625 
L 47.609375 25.390625 
L 58.015625 25.390625 
L 58.015625 17.1875 
L 47.609375 17.1875 
L 47.609375 0 
L 37.796875 0 
L 37.796875 17.1875 
L 4.890625 17.1875 
L 4.890625 26.703125 
z
" id="DejaVuSans-52"/>
       </defs>
       <use xlink:href="#DejaVuSans-52"/>
      </g>
     </g>
    </g>
    <g id="xtick_4">
     <g id="line2d_7">
      <path clip-path="url(#pbe4d50ace5)" d="M 317.4912 298.944 
L 317.4912 6.912 
" style="fill:none;stroke:#b0b0b0;stroke-linecap:square;stroke-width:0.8;"/>
     </g>
     <g id="line2d_8">
      <g>
       <use style="stroke:#000000;stroke-width:0.8;" x="317.4912" xlink:href="#m6788a24a2e" y="298.944"/>
      </g>
     </g>
     <g id="text_4">
      <!-- 6 -->
      <g transform="translate(312.083075 318.861344)scale(0.17 -0.17)">
       <defs>
        <path d="M 33.015625 40.375 
Q 26.375 40.375 22.484375 35.828125 
Q 18.609375 31.296875 18.609375 23.390625 
Q 18.609375 15.53125 22.484375 10.953125 
Q 26.375 6.390625 33.015625 6.390625 
Q 39.65625 6.390625 43.53125 10.953125 
Q 47.40625 15.53125 47.40625 23.390625 
Q 47.40625 31.296875 43.53125 35.828125 
Q 39.65625 40.375 33.015625 40.375 
z
M 52.59375 71.296875 
L 52.59375 62.3125 
Q 48.875 64.0625 45.09375 64.984375 
Q 41.3125 65.921875 37.59375 65.921875 
Q 27.828125 65.921875 22.671875 59.328125 
Q 17.53125 52.734375 16.796875 39.40625 
Q 19.671875 43.65625 24.015625 45.921875 
Q 28.375 48.1875 33.59375 48.1875 
Q 44.578125 48.1875 50.953125 41.515625 
Q 57.328125 34.859375 57.328125 23.390625 
Q 57.328125 12.15625 50.6875 5.359375 
Q 44.046875 -1.421875 33.015625 -1.421875 
Q 20.359375 -1.421875 13.671875 8.265625 
Q 6.984375 17.96875 6.984375 36.375 
Q 6.984375 53.65625 15.1875 63.9375 
Q 23.390625 74.21875 37.203125 74.21875 
Q 40.921875 74.21875 44.703125 73.484375 
Q 48.484375 72.75 52.59375 71.296875 
z
" id="DejaVuSans-54"/>
       </defs>
       <use xlink:href="#DejaVuSans-54"/>
      </g>
     </g>
    </g>
    <g id="xtick_5">
     <g id="line2d_9">
      <path clip-path="url(#pbe4d50ace5)" d="M 100.9152 298.944 
L 100.9152 6.912 
" style="fill:none;stroke:#b0b0b0;stroke-linecap:square;stroke-width:0.8;"/>
     </g>
     <g id="line2d_10">
      <defs>
       <path d="M 0 0 
L 0 2 
" id="md84ec0010b" style="stroke:#000000;stroke-width:0.6;"/>
      </defs>
      <g>
       <use style="stroke:#000000;stroke-width:0.6;" x="100.9152" xlink:href="#md84ec0010b" y="298.944"/>
      </g>
     </g>
    </g>
    <g id="xtick_6">
     <g id="line2d_11">
      <path clip-path="url(#pbe4d50ace5)" d="M 187.5456 298.944 
L 187.5456 6.912 
" style="fill:none;stroke:#b0b0b0;stroke-linecap:square;stroke-width:0.8;"/>
     </g>
     <g id="line2d_12">
      <g>
       <use style="stroke:#000000;stroke-width:0.6;" x="187.5456" xlink:href="#md84ec0010b" y="298.944"/>
      </g>
     </g>
    </g>
    <g id="xtick_7">
     <g id="line2d_13">
      <path clip-path="url(#pbe4d50ace5)" d="M 274.176 298.944 
L 274.176 6.912 
" style="fill:none;stroke:#b0b0b0;stroke-linecap:square;stroke-width:0.8;"/>
     </g>
     <g id="line2d_14">
      <g>
       <use style="stroke:#000000;stroke-width:0.6;" x="274.176" xlink:href="#md84ec0010b" y="298.944"/>
      </g>
     </g>
    </g>
    <g id="xtick_8">
     <g id="line2d_15">
      <path clip-path="url(#pbe4d50ace5)" d="M 360.8064 298.944 
L 360.8064 6.912 
" style="fill:none;stroke:#b0b0b0;stroke-linecap:square;stroke-width:0.8;"/>
     </g>
     <g id="line2d_16">
      <g>
       <use style="stroke:#000000;stroke-width:0.6;" x="360.8064" xlink:href="#md84ec0010b" y="298.944"/>
      </g>
     </g>
    </g>
    <g id="text_5">
     <!-- log10(evals / dimension) -->
     <g transform="translate(104.238825 339.314156)scale(0.17 -0.17)">
      <defs>
       <path d="M 9.421875 75.984375 
L 18.40625 75.984375 
L 18.40625 0 
L 9.421875 0 
z
" id="DejaVuSans-108"/>
       <path d="M 30.609375 48.390625 
Q 23.390625 48.390625 19.1875 42.75 
Q 14.984375 37.109375 14.984375 27.296875 
Q 14.984375 17.484375 19.15625 11.84375 
Q 23.34375 6.203125 30.609375 6.203125 
Q 37.796875 6.203125 41.984375 11.859375 
Q 46.1875 17.53125 46.1875 27.296875 
Q 46.1875 37.015625 41.984375 42.703125 
Q 37.796875 48.390625 30.609375 48.390625 
z
M 30.609375 56 
Q 42.328125 56 49.015625 48.375 
Q 55.71875 40.765625 55.71875 27.296875 
Q 55.71875 13.875 49.015625 6.21875 
Q 42.328125 -1.421875 30.609375 -1.421875 
Q 18.84375 -1.421875 12.171875 6.21875 
Q 5.515625 13.875 5.515625 27.296875 
Q 5.515625 40.765625 12.171875 48.375 
Q 18.84375 56 30.609375 56 
z
" id="DejaVuSans-111"/>
       <path d="M 45.40625 27.984375 
Q 45.40625 37.75 41.375 43.109375 
Q 37.359375 48.484375 30.078125 48.484375 
Q 22.859375 48.484375 18.828125 43.109375 
Q 14.796875 37.75 14.796875 27.984375 
Q 14.796875 18.265625 18.828125 12.890625 
Q 22.859375 7.515625 30.078125 7.515625 
Q 37.359375 7.515625 41.375 12.890625 
Q 45.40625 18.265625 45.40625 27.984375 
z
M 54.390625 6.78125 
Q 54.390625 -7.171875 48.1875 -13.984375 
Q 42 -20.796875 29.203125 -20.796875 
Q 24.46875 -20.796875 20.265625 -20.09375 
Q 16.0625 -19.390625 12.109375 -17.921875 
L 12.109375 -9.1875 
Q 16.0625 -11.328125 19.921875 -12.34375 
Q 23.78125 -13.375 27.78125 -13.375 
Q 36.625 -13.375 41.015625 -8.765625 
Q 45.40625 -4.15625 45.40625 5.171875 
L 45.40625 9.625 
Q 42.625 4.78125 38.28125 2.390625 
Q 33.9375 0 27.875 0 
Q 17.828125 0 11.671875 7.65625 
Q 5.515625 15.328125 5.515625 27.984375 
Q 5.515625 40.671875 11.671875 48.328125 
Q 17.828125 56 27.875 56 
Q 33.9375 56 38.28125 53.609375 
Q 42.625 51.21875 45.40625 46.390625 
L 45.40625 54.6875 
L 54.390625 54.6875 
z
" id="DejaVuSans-103"/>
       <path d="M 12.40625 8.296875 
L 28.515625 8.296875 
L 28.515625 63.921875 
L 10.984375 60.40625 
L 10.984375 69.390625 
L 28.421875 72.90625 
L 38.28125 72.90625 
L 38.28125 8.296875 
L 54.390625 8.296875 
L 54.390625 0 
L 12.40625 0 
z
" id="DejaVuSans-49"/>
       <path d="M 31 75.875 
Q 24.46875 64.65625 21.28125 53.65625 
Q 18.109375 42.671875 18.109375 31.390625 
Q 18.109375 20.125 21.3125 9.0625 
Q 24.515625 -2 31 -13.1875 
L 23.1875 -13.1875 
Q 15.875 -1.703125 12.234375 9.375 
Q 8.59375 20.453125 8.59375 31.390625 
Q 8.59375 42.28125 12.203125 53.3125 
Q 15.828125 64.359375 23.1875 75.875 
z
" id="DejaVuSans-40"/>
       <path d="M 56.203125 29.59375 
L 56.203125 25.203125 
L 14.890625 25.203125 
Q 15.484375 15.921875 20.484375 11.0625 
Q 25.484375 6.203125 34.421875 6.203125 
Q 39.59375 6.203125 44.453125 7.46875 
Q 49.3125 8.734375 54.109375 11.28125 
L 54.109375 2.78125 
Q 49.265625 0.734375 44.1875 -0.34375 
Q 39.109375 -1.421875 33.890625 -1.421875 
Q 20.796875 -1.421875 13.15625 6.1875 
Q 5.515625 13.8125 5.515625 26.8125 
Q 5.515625 40.234375 12.765625 48.109375 
Q 20.015625 56 32.328125 56 
Q 43.359375 56 49.78125 48.890625 
Q 56.203125 41.796875 56.203125 29.59375 
z
M 47.21875 32.234375 
Q 47.125 39.59375 43.09375 43.984375 
Q 39.0625 48.390625 32.421875 48.390625 
Q 24.90625 48.390625 20.390625 44.140625 
Q 15.875 39.890625 15.1875 32.171875 
z
" id="DejaVuSans-101"/>
       <path d="M 2.984375 54.6875 
L 12.5 54.6875 
L 29.59375 8.796875 
L 46.6875 54.6875 
L 56.203125 54.6875 
L 35.6875 0 
L 23.484375 0 
z
" id="DejaVuSans-118"/>
       <path d="M 34.28125 27.484375 
Q 23.390625 27.484375 19.1875 25 
Q 14.984375 22.515625 14.984375 16.5 
Q 14.984375 11.71875 18.140625 8.90625 
Q 21.296875 6.109375 26.703125 6.109375 
Q 34.1875 6.109375 38.703125 11.40625 
Q 43.21875 16.703125 43.21875 25.484375 
L 43.21875 27.484375 
z
M 52.203125 31.203125 
L 52.203125 0 
L 43.21875 0 
L 43.21875 8.296875 
Q 40.140625 3.328125 35.546875 0.953125 
Q 30.953125 -1.421875 24.3125 -1.421875 
Q 15.921875 -1.421875 10.953125 3.296875 
Q 6 8.015625 6 15.921875 
Q 6 25.140625 12.171875 29.828125 
Q 18.359375 34.515625 30.609375 34.515625 
L 43.21875 34.515625 
L 43.21875 35.40625 
Q 43.21875 41.609375 39.140625 45 
Q 35.0625 48.390625 27.6875 48.390625 
Q 23 48.390625 18.546875 47.265625 
Q 14.109375 46.140625 10.015625 43.890625 
L 10.015625 52.203125 
Q 14.9375 54.109375 19.578125 55.046875 
Q 24.21875 56 28.609375 56 
Q 40.484375 56 46.34375 49.84375 
Q 52.203125 43.703125 52.203125 31.203125 
z
" id="DejaVuSans-97"/>
       <path d="M 44.28125 53.078125 
L 44.28125 44.578125 
Q 40.484375 46.53125 36.375 47.5 
Q 32.28125 48.484375 27.875 48.484375 
Q 21.1875 48.484375 17.84375 46.4375 
Q 14.5 44.390625 14.5 40.28125 
Q 14.5 37.15625 16.890625 35.375 
Q 19.28125 33.59375 26.515625 31.984375 
L 29.59375 31.296875 
Q 39.15625 29.25 43.1875 25.515625 
Q 47.21875 21.78125 47.21875 15.09375 
Q 47.21875 7.46875 41.1875 3.015625 
Q 35.15625 -1.421875 24.609375 -1.421875 
Q 20.21875 -1.421875 15.453125 -0.5625 
Q 10.6875 0.296875 5.421875 2 
L 5.421875 11.28125 
Q 10.40625 8.6875 15.234375 7.390625 
Q 20.0625 6.109375 24.8125 6.109375 
Q 31.15625 6.109375 34.5625 8.28125 
Q 37.984375 10.453125 37.984375 14.40625 
Q 37.984375 18.0625 35.515625 20.015625 
Q 33.0625 21.96875 24.703125 23.78125 
L 21.578125 24.515625 
Q 13.234375 26.265625 9.515625 29.90625 
Q 5.8125 33.546875 5.8125 39.890625 
Q 5.8125 47.609375 11.28125 51.796875 
Q 16.75 56 26.8125 56 
Q 31.78125 56 36.171875 55.265625 
Q 40.578125 54.546875 44.28125 53.078125 
z
" id="DejaVuSans-115"/>
       <path id="DejaVuSans-32"/>
       <path d="M 25.390625 72.90625 
L 33.6875 72.90625 
L 8.296875 -9.28125 
L 0 -9.28125 
z
" id="DejaVuSans-47"/>
       <path d="M 45.40625 46.390625 
L 45.40625 75.984375 
L 54.390625 75.984375 
L 54.390625 0 
L 45.40625 0 
L 45.40625 8.203125 
Q 42.578125 3.328125 38.25 0.953125 
Q 33.9375 -1.421875 27.875 -1.421875 
Q 17.96875 -1.421875 11.734375 6.484375 
Q 5.515625 14.40625 5.515625 27.296875 
Q 5.515625 40.1875 11.734375 48.09375 
Q 17.96875 56 27.875 56 
Q 33.9375 56 38.25 53.625 
Q 42.578125 51.265625 45.40625 46.390625 
z
M 14.796875 27.296875 
Q 14.796875 17.390625 18.875 11.75 
Q 22.953125 6.109375 30.078125 6.109375 
Q 37.203125 6.109375 41.296875 11.75 
Q 45.40625 17.390625 45.40625 27.296875 
Q 45.40625 37.203125 41.296875 42.84375 
Q 37.203125 48.484375 30.078125 48.484375 
Q 22.953125 48.484375 18.875 42.84375 
Q 14.796875 37.203125 14.796875 27.296875 
z
" id="DejaVuSans-100"/>
       <path d="M 9.421875 54.6875 
L 18.40625 54.6875 
L 18.40625 0 
L 9.421875 0 
z
M 9.421875 75.984375 
L 18.40625 75.984375 
L 18.40625 64.59375 
L 9.421875 64.59375 
z
" id="DejaVuSans-105"/>
       <path d="M 52 44.1875 
Q 55.375 50.25 60.0625 53.125 
Q 64.75 56 71.09375 56 
Q 79.640625 56 84.28125 50.015625 
Q 88.921875 44.046875 88.921875 33.015625 
L 88.921875 0 
L 79.890625 0 
L 79.890625 32.71875 
Q 79.890625 40.578125 77.09375 44.375 
Q 74.3125 48.1875 68.609375 48.1875 
Q 61.625 48.1875 57.5625 43.546875 
Q 53.515625 38.921875 53.515625 30.90625 
L 53.515625 0 
L 44.484375 0 
L 44.484375 32.71875 
Q 44.484375 40.625 41.703125 44.40625 
Q 38.921875 48.1875 33.109375 48.1875 
Q 26.21875 48.1875 22.15625 43.53125 
Q 18.109375 38.875 18.109375 30.90625 
L 18.109375 0 
L 9.078125 0 
L 9.078125 54.6875 
L 18.109375 54.6875 
L 18.109375 46.1875 
Q 21.1875 51.21875 25.484375 53.609375 
Q 29.78125 56 35.6875 56 
Q 41.65625 56 45.828125 52.96875 
Q 50 49.953125 52 44.1875 
z
" id="DejaVuSans-109"/>
       <path d="M 54.890625 33.015625 
L 54.890625 0 
L 45.90625 0 
L 45.90625 32.71875 
Q 45.90625 40.484375 42.875 44.328125 
Q 39.84375 48.1875 33.796875 48.1875 
Q 26.515625 48.1875 22.3125 43.546875 
Q 18.109375 38.921875 18.109375 30.90625 
L 18.109375 0 
L 9.078125 0 
L 9.078125 54.6875 
L 18.109375 54.6875 
L 18.109375 46.1875 
Q 21.34375 51.125 25.703125 53.5625 
Q 30.078125 56 35.796875 56 
Q 45.21875 56 50.046875 50.171875 
Q 54.890625 44.34375 54.890625 33.015625 
z
" id="DejaVuSans-110"/>
       <path d="M 8.015625 75.875 
L 15.828125 75.875 
Q 23.140625 64.359375 26.78125 53.3125 
Q 30.421875 42.28125 30.421875 31.390625 
Q 30.421875 20.453125 26.78125 9.375 
Q 23.140625 -1.703125 15.828125 -13.1875 
L 8.015625 -13.1875 
Q 14.5 -2 17.703125 9.0625 
Q 20.90625 20.125 20.90625 31.390625 
Q 20.90625 42.671875 17.703125 53.65625 
Q 14.5 64.65625 8.015625 75.875 
z
" id="DejaVuSans-41"/>
      </defs>
      <use xlink:href="#DejaVuSans-108"/>
      <use x="27.783203" xlink:href="#DejaVuSans-111"/>
      <use x="88.964844" xlink:href="#DejaVuSans-103"/>
      <use x="152.441406" xlink:href="#DejaVuSans-49"/>
      <use x="216.064453" xlink:href="#DejaVuSans-48"/>
      <use x="279.6875" xlink:href="#DejaVuSans-40"/>
      <use x="318.701172" xlink:href="#DejaVuSans-101"/>
      <use x="380.224609" xlink:href="#DejaVuSans-118"/>
      <use x="439.404297" xlink:href="#DejaVuSans-97"/>
      <use x="500.683594" xlink:href="#DejaVuSans-108"/>
      <use x="528.466797" xlink:href="#DejaVuSans-115"/>
      <use x="580.566406" xlink:href="#DejaVuSans-32"/>
      <use x="612.353516" xlink:href="#DejaVuSans-47"/>
      <use x="646.044922" xlink:href="#DejaVuSans-32"/>
      <use x="677.832031" xlink:href="#DejaVuSans-100"/>
      <use x="741.308594" xlink:href="#DejaVuSans-105"/>
      <use x="769.091797" xlink:href="#DejaVuSans-109"/>
      <use x="866.503906" xlink:href="#DejaVuSans-101"/>
      <use x="928.027344" xlink:href="#DejaVuSans-110"/>
      <use x="991.40625" xlink:href="#DejaVuSans-115"/>
      <use x="1043.505859" xlink:href="#DejaVuSans-105"/>
      <use x="1071.289062" xlink:href="#DejaVuSans-111"/>
      <use x="1132.470703" xlink:href="#DejaVuSans-110"/>
      <use x="1195.849609" xlink:href="#DejaVuSans-41"/>
     </g>
    </g>
   </g>
   <g id="matplotlib.axis_2">
    <g id="ytick_1">
     <g id="line2d_17">
      <path clip-path="url(#pbe4d50ace5)" d="M 57.6 298.944 
L 360.8064 298.944 
" style="fill:none;stroke:#b0b0b0;stroke-linecap:square;stroke-width:0.8;"/>
     </g>
     <g id="line2d_18">
      <defs>
       <path d="M 0 0 
L -3.5 0 
" id="ma43a1f7347" style="stroke:#000000;stroke-width:0.8;"/>
      </defs>
      <g>
       <use style="stroke:#000000;stroke-width:0.8;" x="57.6" xlink:href="#ma43a1f7347" y="298.944"/>
      </g>
     </g>
     <g id="text_6">
      <!-- 0.0 -->
      <g transform="translate(25.155 305.02275)scale(0.16 -0.16)">
       <defs>
        <path d="M 10.6875 12.40625 
L 21 12.40625 
L 21 0 
L 10.6875 0 
z
" id="DejaVuSans-46"/>
       </defs>
       <use xlink:href="#DejaVuSans-48"/>
       <use x="63.623047" xlink:href="#DejaVuSans-46"/>
       <use x="95.410156" xlink:href="#DejaVuSans-48"/>
      </g>
     </g>
    </g>
    <g id="ytick_2">
     <g id="line2d_19">
      <path clip-path="url(#pbe4d50ace5)" d="M 57.6 240.5376 
L 360.8064 240.5376 
" style="fill:none;stroke:#b0b0b0;stroke-linecap:square;stroke-width:0.8;"/>
     </g>
     <g id="line2d_20">
      <g>
       <use style="stroke:#000000;stroke-width:0.8;" x="57.6" xlink:href="#ma43a1f7347" y="240.5376"/>
      </g>
     </g>
     <g id="text_7">
      <!-- 0.2 -->
      <g transform="translate(25.155 246.61635)scale(0.16 -0.16)">
       <use xlink:href="#DejaVuSans-48"/>
       <use x="63.623047" xlink:href="#DejaVuSans-46"/>
       <use x="95.410156" xlink:href="#DejaVuSans-50"/>
      </g>
     </g>
    </g>
    <g id="ytick_3">
     <g id="line2d_21">
      <path clip-path="url(#pbe4d50ace5)" d="M 57.6 182.1312 
L 360.8064 182.1312 
" style="fill:none;stroke:#b0b0b0;stroke-linecap:square;stroke-width:0.8;"/>
     </g>
     <g id="line2d_22">
      <g>
       <use style="stroke:#000000;stroke-width:0.8;" x="57.6" xlink:href="#ma43a1f7347" y="182.1312"/>
      </g>
     </g>
     <g id="text_8">
      <!-- 0.4 -->
      <g transform="translate(25.155 188.20995)scale(0.16 -0.16)">
       <use xlink:href="#DejaVuSans-48"/>
       <use x="63.623047" xlink:href="#DejaVuSans-46"/>
       <use x="95.410156" xlink:href="#DejaVuSans-52"/>
      </g>
     </g>
    </g>
    <g id="ytick_4">
     <g id="line2d_23">
      <path clip-path="url(#pbe4d50ace5)" d="M 57.6 123.7248 
L 360.8064 123.7248 
" style="fill:none;stroke:#b0b0b0;stroke-linecap:square;stroke-width:0.8;"/>
     </g>
     <g id="line2d_24">
      <g>
       <use style="stroke:#000000;stroke-width:0.8;" x="57.6" xlink:href="#ma43a1f7347" y="123.7248"/>
      </g>
     </g>
     <g id="text_9">
      <!-- 0.6 -->
      <g transform="translate(25.155 129.80355)scale(0.16 -0.16)">
       <use xlink:href="#DejaVuSans-48"/>
       <use x="63.623047" xlink:href="#DejaVuSans-46"/>
       <use x="95.410156" xlink:href="#DejaVuSans-54"/>
      </g>
     </g>
    </g>
    <g id="ytick_5">
     <g id="line2d_25">
      <path clip-path="url(#pbe4d50ace5)" d="M 57.6 65.3184 
L 360.8064 65.3184 
" style="fill:none;stroke:#b0b0b0;stroke-linecap:square;stroke-width:0.8;"/>
     </g>
     <g id="line2d_26">
      <g>
       <use style="stroke:#000000;stroke-width:0.8;" x="57.6" xlink:href="#ma43a1f7347" y="65.3184"/>
      </g>
     </g>
     <g id="text_10">
      <!-- 0.8 -->
      <g transform="translate(25.155 71.39715)scale(0.16 -0.16)">
       <defs>
        <path d="M 31.78125 34.625 
Q 24.75 34.625 20.71875 30.859375 
Q 16.703125 27.09375 16.703125 20.515625 
Q 16.703125 13.921875 20.71875 10.15625 
Q 24.75 6.390625 31.78125 6.390625 
Q 38.8125 6.390625 42.859375 10.171875 
Q 46.921875 13.96875 46.921875 20.515625 
Q 46.921875 27.09375 42.890625 30.859375 
Q 38.875 34.625 31.78125 34.625 
z
M 21.921875 38.8125 
Q 15.578125 40.375 12.03125 44.71875 
Q 8.5 49.078125 8.5 55.328125 
Q 8.5 64.0625 14.71875 69.140625 
Q 20.953125 74.21875 31.78125 74.21875 
Q 42.671875 74.21875 48.875 69.140625 
Q 55.078125 64.0625 55.078125 55.328125 
Q 55.078125 49.078125 51.53125 44.71875 
Q 48 40.375 41.703125 38.8125 
Q 48.828125 37.15625 52.796875 32.3125 
Q 56.78125 27.484375 56.78125 20.515625 
Q 56.78125 9.90625 50.3125 4.234375 
Q 43.84375 -1.421875 31.78125 -1.421875 
Q 19.734375 -1.421875 13.25 4.234375 
Q 6.78125 9.90625 6.78125 20.515625 
Q 6.78125 27.484375 10.78125 32.3125 
Q 14.796875 37.15625 21.921875 38.8125 
z
M 18.3125 54.390625 
Q 18.3125 48.734375 21.84375 45.5625 
Q 25.390625 42.390625 31.78125 42.390625 
Q 38.140625 42.390625 41.71875 45.5625 
Q 45.3125 48.734375 45.3125 54.390625 
Q 45.3125 60.0625 41.71875 63.234375 
Q 38.140625 66.40625 31.78125 66.40625 
Q 25.390625 66.40625 21.84375 63.234375 
Q 18.3125 60.0625 18.3125 54.390625 
z
" id="DejaVuSans-56"/>
       </defs>
       <use xlink:href="#DejaVuSans-48"/>
       <use x="63.623047" xlink:href="#DejaVuSans-46"/>
       <use x="95.410156" xlink:href="#DejaVuSans-56"/>
      </g>
     </g>
    </g>
    <g id="ytick_6">
     <g id="line2d_27">
      <path clip-path="url(#pbe4d50ace5)" d="M 57.6 6.912 
L 360.8064 6.912 
" style="fill:none;stroke:#b0b0b0;stroke-linecap:square;stroke-width:0.8;"/>
     </g>
     <g id="line2d_28">
      <g>
       <use style="stroke:#000000;stroke-width:0.8;" x="57.6" xlink:href="#ma43a1f7347" y="6.912"/>
      </g>
     </g>
     <g id="text_11">
      <!-- 1.0 -->
      <g transform="translate(25.155 12.99075)scale(0.16 -0.16)">
       <use xlink:href="#DejaVuSans-49"/>
       <use x="63.623047" xlink:href="#DejaVuSans-46"/>
       <use x="95.410156" xlink:href="#DejaVuSans-48"/>
      </g>
     </g>
    </g>
    <g id="text_12">
     <!-- Fraction of function,target pairs -->
     <g transform="translate(17.619531 287.313)rotate(-90)scale(0.17 -0.17)">
      <defs>
       <path d="M 9.8125 72.90625 
L 51.703125 72.90625 
L 51.703125 64.59375 
L 19.671875 64.59375 
L 19.671875 43.109375 
L 48.578125 43.109375 
L 48.578125 34.8125 
L 19.671875 34.8125 
L 19.671875 0 
L 9.8125 0 
z
" id="DejaVuSans-70"/>
       <path d="M 41.109375 46.296875 
Q 39.59375 47.171875 37.8125 47.578125 
Q 36.03125 48 33.890625 48 
Q 26.265625 48 22.1875 43.046875 
Q 18.109375 38.09375 18.109375 28.8125 
L 18.109375 0 
L 9.078125 0 
L 9.078125 54.6875 
L 18.109375 54.6875 
L 18.109375 46.1875 
Q 20.953125 51.171875 25.484375 53.578125 
Q 30.03125 56 36.53125 56 
Q 37.453125 56 38.578125 55.875 
Q 39.703125 55.765625 41.0625 55.515625 
z
" id="DejaVuSans-114"/>
       <path d="M 48.78125 52.59375 
L 48.78125 44.1875 
Q 44.96875 46.296875 41.140625 47.34375 
Q 37.3125 48.390625 33.40625 48.390625 
Q 24.65625 48.390625 19.8125 42.84375 
Q 14.984375 37.3125 14.984375 27.296875 
Q 14.984375 17.28125 19.8125 11.734375 
Q 24.65625 6.203125 33.40625 6.203125 
Q 37.3125 6.203125 41.140625 7.25 
Q 44.96875 8.296875 48.78125 10.40625 
L 48.78125 2.09375 
Q 45.015625 0.34375 40.984375 -0.53125 
Q 36.96875 -1.421875 32.421875 -1.421875 
Q 20.0625 -1.421875 12.78125 6.34375 
Q 5.515625 14.109375 5.515625 27.296875 
Q 5.515625 40.671875 12.859375 48.328125 
Q 20.21875 56 33.015625 56 
Q 37.15625 56 41.109375 55.140625 
Q 45.0625 54.296875 48.78125 52.59375 
z
" id="DejaVuSans-99"/>
       <path d="M 18.3125 70.21875 
L 18.3125 54.6875 
L 36.8125 54.6875 
L 36.8125 47.703125 
L 18.3125 47.703125 
L 18.3125 18.015625 
Q 18.3125 11.328125 20.140625 9.421875 
Q 21.96875 7.515625 27.59375 7.515625 
L 36.8125 7.515625 
L 36.8125 0 
L 27.59375 0 
Q 17.1875 0 13.234375 3.875 
Q 9.28125 7.765625 9.28125 18.015625 
L 9.28125 47.703125 
L 2.6875 47.703125 
L 2.6875 54.6875 
L 9.28125 54.6875 
L 9.28125 70.21875 
z
" id="DejaVuSans-116"/>
       <path d="M 37.109375 75.984375 
L 37.109375 68.5 
L 28.515625 68.5 
Q 23.6875 68.5 21.796875 66.546875 
Q 19.921875 64.59375 19.921875 59.515625 
L 19.921875 54.6875 
L 34.71875 54.6875 
L 34.71875 47.703125 
L 19.921875 47.703125 
L 19.921875 0 
L 10.890625 0 
L 10.890625 47.703125 
L 2.296875 47.703125 
L 2.296875 54.6875 
L 10.890625 54.6875 
L 10.890625 58.5 
Q 10.890625 67.625 15.140625 71.796875 
Q 19.390625 75.984375 28.609375 75.984375 
z
" id="DejaVuSans-102"/>
       <path d="M 8.5 21.578125 
L 8.5 54.6875 
L 17.484375 54.6875 
L 17.484375 21.921875 
Q 17.484375 14.15625 20.5 10.265625 
Q 23.53125 6.390625 29.59375 6.390625 
Q 36.859375 6.390625 41.078125 11.03125 
Q 45.3125 15.671875 45.3125 23.6875 
L 45.3125 54.6875 
L 54.296875 54.6875 
L 54.296875 0 
L 45.3125 0 
L 45.3125 8.40625 
Q 42.046875 3.421875 37.71875 1 
Q 33.40625 -1.421875 27.6875 -1.421875 
Q 18.265625 -1.421875 13.375 4.4375 
Q 8.5 10.296875 8.5 21.578125 
z
M 31.109375 56 
z
" id="DejaVuSans-117"/>
       <path d="M 11.71875 12.40625 
L 22.015625 12.40625 
L 22.015625 4 
L 14.015625 -11.625 
L 7.71875 -11.625 
L 11.71875 4 
z
" id="DejaVuSans-44"/>
       <path d="M 18.109375 8.203125 
L 18.109375 -20.796875 
L 9.078125 -20.796875 
L 9.078125 54.6875 
L 18.109375 54.6875 
L 18.109375 46.390625 
Q 20.953125 51.265625 25.265625 53.625 
Q 29.59375 56 35.59375 56 
Q 45.5625 56 51.78125 48.09375 
Q 58.015625 40.1875 58.015625 27.296875 
Q 58.015625 14.40625 51.78125 6.484375 
Q 45.5625 -1.421875 35.59375 -1.421875 
Q 29.59375 -1.421875 25.265625 0.953125 
Q 20.953125 3.328125 18.109375 8.203125 
z
M 48.6875 27.296875 
Q 48.6875 37.203125 44.609375 42.84375 
Q 40.53125 48.484375 33.40625 48.484375 
Q 26.265625 48.484375 22.1875 42.84375 
Q 18.109375 37.203125 18.109375 27.296875 
Q 18.109375 17.390625 22.1875 11.75 
Q 26.265625 6.109375 33.40625 6.109375 
Q 40.53125 6.109375 44.609375 11.75 
Q 48.6875 17.390625 48.6875 27.296875 
z
" id="DejaVuSans-112"/>
      </defs>
      <use xlink:href="#DejaVuSans-70"/>
      <use x="50.269531" xlink:href="#DejaVuSans-114"/>
      <use x="91.382812" xlink:href="#DejaVuSans-97"/>
      <use x="152.662109" xlink:href="#DejaVuSans-99"/>
      <use x="207.642578" xlink:href="#DejaVuSans-116"/>
      <use x="246.851562" xlink:href="#DejaVuSans-105"/>
      <use x="274.634766" xlink:href="#DejaVuSans-111"/>
      <use x="335.816406" xlink:href="#DejaVuSans-110"/>
      <use x="399.195312" xlink:href="#DejaVuSans-32"/>
      <use x="430.982422" xlink:href="#DejaVuSans-111"/>
      <use x="492.164062" xlink:href="#DejaVuSans-102"/>
      <use x="527.369141" xlink:href="#DejaVuSans-32"/>
      <use x="559.15625" xlink:href="#DejaVuSans-102"/>
      <use x="594.361328" xlink:href="#DejaVuSans-117"/>
      <use x="657.740234" xlink:href="#DejaVuSans-110"/>
      <use x="721.119141" xlink:href="#DejaVuSans-99"/>
      <use x="776.099609" xlink:href="#DejaVuSans-116"/>
      <use x="815.308594" xlink:href="#DejaVuSans-105"/>
      <use x="843.091797" xlink:href="#DejaVuSans-111"/>
      <use x="904.273438" xlink:href="#DejaVuSans-110"/>
      <use x="967.652344" xlink:href="#DejaVuSans-44"/>
      <use x="999.439453" xlink:href="#DejaVuSans-116"/>
      <use x="1038.648438" xlink:href="#DejaVuSans-97"/>
      <use x="1099.927734" xlink:href="#DejaVuSans-114"/>
      <use x="1139.291016" xlink:href="#DejaVuSans-103"/>
      <use x="1202.767578" xlink:href="#DejaVuSans-101"/>
      <use x="1264.291016" xlink:href="#DejaVuSans-116"/>
      <use x="1303.5" xlink:href="#DejaVuSans-32"/>
      <use x="1335.287109" xlink:href="#DejaVuSans-112"/>
      <use x="1398.763672" xlink:href="#DejaVuSans-97"/>
      <use x="1460.042969" xlink:href="#DejaVuSans-105"/>
      <use x="1487.826172" xlink:href="#DejaVuSans-114"/>
      <use x="1528.939453" xlink:href="#DejaVuSans-115"/>
     </g>
    </g>
   </g>
   <g id="line2d_29">
    <defs>
     <path d="M 0 1.5 
C 0.397805 1.5 0.77937 1.341951 1.06066 1.06066 
C 1.341951 0.77937 1.5 0.397805 1.5 0 
C 1.5 -0.397805 1.341951 -0.77937 1.06066 -1.06066 
C 0.77937 -1.341951 0.397805 -1.5 0 -1.5 
C -0.397805 -1.5 -0.77937 -1.341951 -1.06066 -1.06066 
C -1.341951 -0.77937 -1.5 -0.397805 -1.5 0 
C -1.5 0.397805 -1.341951 0.77937 -1.06066 1.06066 
C -0.77937 1.341951 -0.397805 1.5 0 1.5 
z
" id="m0db244cb99" style="stroke:#000080;"/>
    </defs>
    <g>
     <use style="fill:#000080;stroke:#000080;" x="263.657165" xlink:href="#m0db244cb99" y="284.698537"/>
     <use style="fill:#000080;stroke:#000080;" x="263.657165" xlink:href="#m0db244cb99" y="284.698537"/>
    </g>
   </g>
   <g id="line2d_30">
    <path d="M 153.095398 298.944 
L 153.095398 298.706576 
L 154.14583 298.706576 
L 154.14583 298.469151 
L 154.928852 298.469151 
L 154.928852 297.994302 
L 155.924624 297.994302 
L 155.924624 297.756878 
L 156.560344 297.756878 
L 156.560344 297.519454 
L 162.506504 297.519454 
L 162.506504 297.282029 
L 163.150415 297.282029 
L 163.150415 297.044605 
L 166.632844 297.044605 
L 166.632844 296.80718 
L 182.677721 296.80718 
L 182.677721 296.569756 
L 184.094768 296.569756 
L 184.094768 296.332332 
L 185.530133 296.332332 
L 185.530133 296.094907 
L 185.638701 296.094907 
L 185.638701 295.857483 
L 185.878658 295.857483 
L 185.878658 295.620059 
L 186.397631 295.620059 
L 186.397631 295.382634 
L 187.895974 295.382634 
L 187.895974 295.14521 
L 188.283402 295.14521 
L 188.283402 294.907785 
L 189.950946 294.907785 
L 189.950946 294.670361 
L 194.692902 294.670361 
L 194.692902 294.432937 
L 195.631416 294.432937 
L 195.631416 294.195512 
L 196.794164 294.195512 
L 196.794164 293.958088 
L 200.137426 293.958088 
L 200.137426 293.720663 
L 200.359574 293.720663 
L 200.359574 293.483239 
L 201.430793 293.483239 
L 201.430793 293.245815 
L 202.329762 293.245815 
L 202.329762 293.00839 
L 203.470609 293.00839 
L 203.470609 292.770966 
L 204.430028 292.770966 
L 204.430028 292.533541 
L 204.740266 292.533541 
L 204.740266 292.296117 
L 205.386652 292.296117 
L 205.386652 292.058693 
L 208.241025 292.058693 
L 208.241025 291.821268 
L 208.440315 291.821268 
L 208.440315 291.583844 
L 212.381766 291.583844 
L 212.381766 291.34642 
L 213.234304 291.34642 
L 213.234304 291.108995 
L 214.435767 291.108995 
L 214.435767 290.871571 
L 215.786884 290.871571 
L 215.786884 290.634146 
L 216.903393 290.634146 
L 216.903393 290.396722 
L 217.603659 290.396722 
L 217.603659 290.159298 
L 218.738011 290.159298 
L 218.738011 289.921873 
L 219.9911 289.921873 
L 219.9911 289.684449 
L 220.306262 289.684449 
L 220.306262 289.447024 
L 222.735097 289.447024 
L 222.735097 289.2096 
L 223.624139 289.2096 
L 223.624139 288.972176 
L 223.675475 288.972176 
L 223.675475 288.734751 
L 224.017964 288.734751 
L 224.017964 288.497327 
L 224.043928 288.497327 
L 224.043928 288.259902 
L 225.612877 288.259902 
L 225.612877 288.022478 
L 225.897158 288.022478 
L 225.897158 287.785054 
L 228.247118 287.785054 
L 228.247118 287.547629 
L 228.583032 287.547629 
L 228.583032 287.310205 
L 229.14405 287.310205 
L 229.14405 287.07278 
L 231.39126 287.07278 
L 231.39126 286.835356 
L 231.714011 286.835356 
L 231.714011 286.597932 
L 232.879479 286.597932 
L 232.879479 286.360507 
L 235.383426 286.360507 
L 235.383426 286.123083 
L 236.450972 286.123083 
L 236.450972 285.885659 
L 236.82019 285.885659 
L 236.82019 285.648234 
L 237.641233 285.648234 
L 237.641233 285.41081 
L 241.367176 285.41081 
L 241.367176 285.173385 
L 242.070154 285.173385 
L 242.070154 284.935961 
L 263.657165 284.935961 
L 263.657165 284.698537 
L 360.8064 284.698537 
" style="fill:none;stroke:#000080;stroke-linecap:square;stroke-width:1.5;"/>
   </g>
   <g id="line2d_31">
    <defs>
     <path d="M 0 6 
C 1.591219 6 3.117479 5.367802 4.242641 4.242641 
C 5.367802 3.117479 6 1.591219 6 0 
C 6 -1.591219 5.367802 -3.117479 4.242641 -4.242641 
C 3.117479 -5.367802 1.591219 -6 0 -6 
C -1.591219 -6 -3.117479 -5.367802 -4.242641 -4.242641 
C -5.367802 -3.117479 -6 -1.591219 -6 0 
C -6 1.591219 -5.367802 3.117479 -4.242641 4.242641 
C -3.117479 5.367802 -1.591219 6 0 6 
z
" id="mb693eb1328" style="stroke:#000080;stroke-width:1.5;"/>
    </defs>
    <g>
     <use style="fill-opacity:0;stroke:#000080;stroke-width:1.5;" x="201.430793" xlink:href="#mb693eb1328" y="293.483239"/>
     <use style="fill-opacity:0;stroke:#000080;stroke-width:1.5;" x="229.14405" xlink:href="#mb693eb1328" y="287.07278"/>
     <use style="fill-opacity:0;stroke:#000080;stroke-width:1.5;" x="263.657165" xlink:href="#mb693eb1328" y="284.698537"/>
     <use style="fill-opacity:0;stroke:#000080;stroke-width:1.5;" x="263.657165" xlink:href="#mb693eb1328" y="284.698537"/>
     <use style="fill-opacity:0;stroke:#000080;stroke-width:1.5;" x="360.8064" xlink:href="#mb693eb1328" y="284.698537"/>
    </g>
   </g>
   <g id="line2d_32">
    <path style="fill:none;stroke:#000080;stroke-linecap:square;stroke-width:1.5;"/>
    <g/>
   </g>
   <g id="line2d_33">
    <path clip-path="url(#pbe4d50ace5)" d="M 180.263006 296.80718 
" style="fill:none;stroke:#000080;stroke-linecap:square;stroke-width:1.5;"/>
    <defs>
     <path d="M -12 12 
L 12 -12 
M -12 -12 
L 12 12 
" id="meadaebcba8" style="stroke:#000080;"/>
    </defs>
    <g clip-path="url(#pbe4d50ace5)">
     <use style="fill:#000080;stroke:#000080;" x="180.263006" xlink:href="#meadaebcba8" y="296.80718"/>
    </g>
   </g>
   <g id="line2d_34">
    <defs>
     <path d="M 0 1.5 
C 0.397805 1.5 0.77937 1.341951 1.06066 1.06066 
C 1.341951 0.77937 1.5 0.397805 1.5 0 
C 1.5 -0.397805 1.341951 -0.77937 1.06066 -1.06066 
C 0.77937 -1.341951 0.397805 -1.5 0 -1.5 
C -0.397805 -1.5 -0.77937 -1.341951 -1.06066 -1.06066 
C -1.341951 -0.77937 -1.5 -0.397805 -1.5 0 
C -1.5 0.397805 -1.341951 0.77937 -1.06066 1.06066 
C -0.77937 1.341951 -0.397805 1.5 0 1.5 
z
" id="m2af02588c2" style="stroke:#ff00ff;"/>
    </defs>
    <g>
     <use style="fill:#ff00ff;stroke:#ff00ff;" x="315.688425" xlink:href="#m2af02588c2" y="6.912"/>
     <use style="fill:#ff00ff;stroke:#ff00ff;" x="315.688425" xlink:href="#m2af02588c2" y="6.912"/>
    </g>
   </g>
   <g id="line2d_35">
    <path d="M 160.963953 298.944 
L 160.963953 298.706576 
L 163.612572 298.706576 
L 163.612572 298.469151 
L 164.733259 298.469151 
L 164.758543 297.994302 
L 165.790918 297.994302 
L 165.790918 297.756878 
L 166.927844 297.756878 
L 166.927844 297.519454 
L 176.671876 297.519454 
L 176.671876 297.282029 
L 188.517089 297.282029 
L 188.602645 296.80718 
L 188.687814 296.80718 
L 188.687814 296.569756 
L 189.225323 296.569756 
L 189.225323 296.332332 
L 189.471453 296.332332 
L 189.471453 295.857483 
L 190.269376 295.857483 
L 190.269376 295.620059 
L 190.482999 295.620059 
L 190.482999 295.382634 
L 190.738725 295.382634 
L 190.738725 295.14521 
L 191.009808 295.14521 
L 191.009808 294.907785 
L 191.221421 294.907785 
L 191.221421 294.432937 
L 191.491786 294.432937 
L 191.528354 293.483239 
L 191.673922 293.483239 
L 191.734245 293.00839 
L 192.127594 293.00839 
L 192.127594 292.770966 
L 192.530214 292.770966 
L 192.530214 292.533541 
L 192.719767 292.533541 
L 192.719767 292.296117 
L 192.918743 292.296117 
L 192.992116 291.34642 
L 193.607217 291.34642 
L 193.667092 290.871571 
L 193.910068 290.871571 
L 193.910068 290.159298 
L 194.589697 290.159298 
L 194.667154 289.684449 
L 194.973829 289.684449 
L 195.044673 288.734751 
L 195.394944 288.734751 
L 195.394944 288.259902 
L 196.2194 288.259902 
L 196.257322 287.310205 
L 197.383135 287.310205 
L 197.383135 286.835356 
L 197.850089 286.835356 
L 197.919577 286.360507 
L 198.057786 286.360507 
L 198.057786 285.885659 
L 198.734002 285.885659 
L 198.734002 285.648234 
L 199.201394 285.648234 
L 199.270108 284.935961 
L 204.73574 284.935961 
L 204.73574 284.698537 
L 204.924878 284.698537 
L 204.924878 284.461112 
L 205.09438 284.461112 
L 205.188873 283.986263 
L 205.353103 283.986263 
L 205.440497 283.511415 
L 205.481143 283.511415 
L 205.481143 283.27399 
L 205.645727 283.27399 
L 205.645727 282.799141 
L 205.786069 282.799141 
L 205.786069 282.561717 
L 206.046775 282.561717 
L 206.046775 282.324293 
L 206.253881 282.324293 
L 206.351049 281.849444 
L 206.378719 281.849444 
L 206.378719 281.61202 
L 206.527439 281.61202 
L 206.634121 281.137171 
L 206.783549 281.137171 
L 206.79437 280.662322 
L 206.972029 280.662322 
L 206.972029 280.424898 
L 207.161293 280.424898 
L 207.214264 279.712624 
L 207.274998 279.712624 
L 207.319762 279.237776 
L 207.648266 279.237776 
L 207.73079 278.525502 
L 207.920251 278.525502 
L 208.019339 277.813229 
L 208.049724 277.813229 
L 208.155683 276.626107 
L 208.18836 276.626107 
L 208.268553 275.913834 
L 208.355874 275.913834 
L 208.398142 275.438985 
L 208.818104 275.438985 
L 208.915002 274.014439 
L 208.936736 274.014439 
L 209.035428 273.302166 
L 209.073801 273.302166 
L 209.167011 272.589893 
L 209.330797 272.589893 
L 209.347334 271.87762 
L 209.500197 271.87762 
L 209.558662 271.402771 
L 209.614618 271.402771 
L 209.69824 270.927922 
L 209.818376 270.927922 
L 209.852888 269.7408 
L 209.942325 269.7408 
L 209.999434 269.265951 
L 210.054095 269.265951 
L 210.133526 268.553678 
L 210.219388 268.553678 
L 210.31832 268.078829 
L 210.356404 268.078829 
L 210.425655 266.654283 
L 210.605405 266.654283 
L 210.605405 266.416859 
L 210.779079 266.416859 
L 210.833706 265.94201 
L 211.01178 265.94201 
L 211.106641 264.517463 
L 211.188183 264.517463 
L 211.188183 264.042615 
L 211.407444 264.042615 
L 211.470829 262.855493 
L 211.630455 262.855493 
L 211.678497 262.14322 
L 211.772138 262.14322 
L 211.857052 261.430946 
L 211.986788 261.430946 
L 212.013448 260.481249 
L 212.354618 260.481249 
L 212.354618 260.0064 
L 212.500957 260.0064 
L 212.500957 259.768976 
L 212.748925 259.768976 
L 212.853084 258.819278 
L 212.884416 258.819278 
L 212.884416 258.581854 
L 213.067441 258.581854 
L 213.127412 258.107005 
L 213.221817 258.107005 
L 213.221817 257.632156 
L 213.458623 257.632156 
L 213.458623 257.157307 
L 213.81951 257.157307 
L 213.86228 256.682459 
L 213.984476 256.682459 
L 213.984476 256.445034 
L 214.131535 256.445034 
L 214.179083 255.732761 
L 214.27927 255.732761 
L 214.378927 255.257912 
L 214.708539 255.257912 
L 214.779435 254.783063 
L 215.018505 254.783063 
L 215.018505 254.545639 
L 215.197565 254.545639 
L 215.249399 253.595941 
L 217.171686 253.595941 
L 217.171686 253.358517 
L 217.804311 253.358517 
L 217.804311 253.121093 
L 217.991664 253.121093 
L 217.991664 252.883668 
L 218.294939 252.883668 
L 218.294939 252.646244 
L 219.476558 252.646244 
L 219.576897 252.171395 
L 220.078731 252.171395 
L 220.078731 251.933971 
L 220.452727 251.933971 
L 220.512822 251.459122 
L 220.633734 251.459122 
L 220.657047 250.984273 
L 220.940947 250.984273 
L 220.940947 250.746849 
L 221.083205 250.746849 
L 221.185421 250.034576 
L 221.19926 250.034576 
L 221.19926 249.797151 
L 221.365779 249.797151 
L 221.420545 249.322302 
L 221.604828 249.322302 
L 221.631885 248.372605 
L 222.138714 248.372605 
L 222.182926 247.660332 
L 222.253212 247.660332 
L 222.253212 247.422907 
L 222.454274 247.422907 
L 222.454274 247.185483 
L 222.620588 247.185483 
L 222.692746 245.760937 
L 222.823551 245.760937 
L 222.90183 245.286088 
L 223.057416 245.286088 
L 223.077912 244.811239 
L 223.183455 244.811239 
L 223.204945 244.098966 
L 223.395019 244.098966 
L 223.493237 242.67442 
L 223.602017 242.67442 
L 223.699163 242.199571 
L 223.948551 242.199571 
L 223.985459 241.249873 
L 224.073095 241.249873 
L 224.114068 240.775024 
L 224.475697 240.775024 
L 224.585259 239.350478 
L 224.72862 239.350478 
L 224.72862 239.113054 
L 224.927713 239.113054 
L 225.016212 238.40078 
L 225.063378 238.40078 
L 225.136966 237.925932 
L 225.331807 237.925932 
L 225.383224 236.976234 
L 225.576539 236.976234 
L 225.576539 236.501385 
L 226.130337 236.501385 
L 226.130337 236.263961 
L 226.258589 236.263961 
L 226.3334 235.314263 
L 226.547548 235.314263 
L 226.547548 234.839415 
L 226.696484 234.839415 
L 226.696484 234.60199 
L 227.034258 234.60199 
L 227.038869 234.127141 
L 227.221453 234.127141 
L 227.221453 233.889717 
L 227.369698 233.889717 
L 227.46548 233.414868 
L 227.560776 233.414868 
L 227.629699 232.94002 
L 227.734834 232.94002 
L 227.734834 232.465171 
L 228.100862 232.465171 
L 228.100862 232.227746 
L 228.32262 232.227746 
L 228.32262 231.990322 
L 228.585155 231.990322 
L 228.653817 231.515473 
L 229.241075 231.515473 
L 229.241075 231.278049 
L 229.394629 231.278049 
L 229.442562 229.853502 
L 230.045394 229.853502 
L 230.045394 229.616078 
L 230.26647 229.616078 
L 230.326175 228.66638 
L 230.421155 228.66638 
L 230.421155 228.428956 
L 230.678957 228.428956 
L 230.763859 227.716683 
L 230.934772 227.716683 
L 230.934772 227.479259 
L 231.185676 227.479259 
L 231.185676 227.241834 
L 231.297022 227.241834 
L 231.396746 226.766985 
L 231.693506 226.766985 
L 231.693506 226.529561 
L 231.85764 226.529561 
L 231.956574 225.105015 
L 232.186584 225.105015 
L 232.294966 224.392741 
L 232.38053 224.392741 
L 232.422128 223.680468 
L 232.518144 223.680468 
L 232.619156 222.968195 
L 232.642442 222.968195 
L 232.715538 222.018498 
L 232.770684 222.018498 
L 232.869676 220.356527 
L 232.888602 220.356527 
L 232.978238 219.644254 
L 233.041334 219.644254 
L 233.10689 218.694556 
L 233.213432 218.694556 
L 233.232015 217.982283 
L 233.399097 217.982283 
L 233.4955 217.032585 
L 233.668048 217.032585 
L 233.76631 215.370615 
L 233.837102 215.370615 
L 233.844166 214.895766 
L 233.949817 214.895766 
L 234.050432 213.708644 
L 234.132816 213.708644 
L 234.196573 213.233795 
L 234.287102 213.233795 
L 234.287102 212.521522 
L 234.412742 212.521522 
L 234.487353 211.809249 
L 234.526406 211.809249 
L 234.574645 211.3344 
L 234.651693 211.3344 
L 234.753528 210.859551 
L 234.792033 210.859551 
L 234.89372 209.672429 
L 234.920421 209.672429 
L 234.995465 208.960156 
L 235.157241 208.960156 
L 235.182374 208.247883 
L 235.342557 208.247883 
L 235.44073 207.53561 
L 235.690929 207.53561 
L 235.758908 206.111063 
L 235.820285 206.111063 
L 235.820285 205.39879 
L 236.082059 205.39879 
L 236.082059 204.923941 
L 236.215555 204.923941 
L 236.215555 203.73682 
L 236.378439 203.73682 
L 236.39022 203.024546 
L 236.807304 203.024546 
L 236.807304 202.787122 
L 238.538075 202.787122 
L 238.538075 202.549698 
L 238.867384 202.549698 
L 238.867384 202.312273 
L 239.168302 202.312273 
L 239.21614 201.837424 
L 239.478764 201.837424 
L 239.54053 201.125151 
L 239.625248 201.125151 
L 239.650259 200.650302 
L 239.776691 200.650302 
L 239.871078 199.938029 
L 239.915304 199.938029 
L 239.915304 199.700605 
L 240.057518 199.700605 
L 240.165657 198.750907 
L 240.217893 198.750907 
L 240.320566 197.80121 
L 240.410005 197.80121 
L 240.438065 197.326361 
L 240.528749 197.326361 
L 240.636458 196.614088 
L 240.661054 196.614088 
L 240.690082 195.901815 
L 240.776452 195.901815 
L 240.856236 194.477268 
L 240.928635 194.477268 
L 241.02532 193.527571 
L 241.053354 193.527571 
L 241.067355 192.577873 
L 241.195939 192.577873 
L 241.291263 191.153327 
L 241.330983 191.153327 
L 241.41232 190.441054 
L 241.448785 190.441054 
L 241.478763 189.491356 
L 241.643215 189.491356 
L 241.753181 187.591961 
L 241.78773 187.591961 
L 241.896439 186.642263 
L 241.965784 186.642263 
L 242.047334 185.455141 
L 242.093775 185.455141 
L 242.20444 184.742868 
L 242.220902 184.742868 
L 242.316914 183.555746 
L 242.356162 183.555746 
L 242.423836 182.368624 
L 242.477476 182.368624 
L 242.553609 180.469229 
L 242.606478 180.469229 
L 242.668841 179.282107 
L 242.766996 179.282107 
L 242.847539 177.620137 
L 242.908317 177.620137 
L 242.970875 176.19559 
L 243.019826 176.19559 
L 243.112248 174.771044 
L 243.189767 174.771044 
L 243.241659 172.871649 
L 243.306615 172.871649 
L 243.416953 170.972254 
L 243.447809 170.972254 
L 243.527415 169.310283 
L 243.559623 169.310283 
L 243.667729 168.123161 
L 243.689428 168.123161 
L 243.796793 165.748917 
L 243.814942 165.748917 
L 243.920844 164.561795 
L 243.984998 164.561795 
L 244.092184 162.6624 
L 244.110051 162.6624 
L 244.218008 161.237854 
L 244.229842 161.237854 
L 244.334542 158.86361 
L 244.349977 158.86361 
L 244.436835 158.151337 
L 244.535665 158.151337 
L 244.614791 156.014517 
L 244.673016 156.014517 
L 244.771693 154.589971 
L 244.798972 154.589971 
L 244.798972 154.352546 
L 244.935489 154.352546 
L 245.033512 152.453151 
L 245.069962 152.453151 
L 245.128911 151.028605 
L 245.199969 151.028605 
L 245.309198 149.604059 
L 245.319667 149.604059 
L 245.429592 148.416937 
L 245.47878 148.416937 
L 245.574019 147.704663 
L 245.646162 147.704663 
L 245.666381 146.99239 
L 245.772261 146.99239 
L 245.867046 144.143298 
L 245.938751 144.143298 
L 245.952924 143.431024 
L 246.118833 143.431024 
L 246.204904 142.718751 
L 246.304493 142.718751 
L 246.331622 141.769054 
L 246.463076 141.769054 
L 246.515532 141.294205 
L 246.630097 141.294205 
L 246.630097 140.819356 
L 246.741382 140.819356 
L 246.823368 139.632234 
L 246.956559 139.632234 
L 246.98021 139.157385 
L 247.280595 139.157385 
L 247.280595 138.919961 
L 247.598526 138.919961 
L 247.665784 138.207688 
L 247.886534 138.207688 
L 247.886534 137.732839 
L 251.583128 137.732839 
L 251.583128 137.495415 
L 254.017643 137.495415 
L 254.017643 137.25799 
L 258.467466 137.25799 
L 258.467466 137.020566 
L 259.297009 137.020566 
L 259.297009 136.545717 
L 259.508077 136.545717 
L 259.508077 136.308293 
L 259.808275 136.308293 
L 259.808275 136.070868 
L 260.119014 136.070868 
L 260.119014 135.833444 
L 260.234941 135.833444 
L 260.276103 135.358595 
L 260.476679 135.358595 
L 260.578806 134.646322 
L 260.743186 134.646322 
L 260.743186 134.408898 
L 260.912844 134.408898 
L 260.912844 133.696624 
L 261.134342 133.696624 
L 261.134342 133.221776 
L 261.616595 133.221776 
L 261.715944 131.559805 
L 261.737966 131.559805 
L 261.828556 130.372683 
L 261.863627 130.372683 
L 261.918422 129.185561 
L 262.153423 129.185561 
L 262.226138 127.52359 
L 262.264729 127.52359 
L 262.37214 124.437073 
L 262.377636 124.437073 
L 262.486787 121.113132 
L 262.489588 121.113132 
L 262.598233 116.364644 
L 262.607838 116.364644 
L 262.621333 115.652371 
L 262.741663 115.652371 
L 262.768866 115.177522 
L 263.236169 115.177522 
L 263.306702 114.465249 
L 263.473182 114.465249 
L 263.576572 113.515551 
L 263.635567 113.515551 
L 263.738856 112.565854 
L 263.769498 112.565854 
L 263.847446 111.616156 
L 263.899883 111.616156 
L 263.899883 111.378732 
L 264.050136 111.378732 
L 264.092496 110.666459 
L 264.184229 110.666459 
L 264.184229 110.429034 
L 264.475938 110.429034 
L 264.564696 109.954185 
L 264.615173 109.954185 
L 264.662147 109.479337 
L 264.780932 109.479337 
L 264.780932 109.241912 
L 264.893671 109.241912 
L 264.977662 107.342517 
L 265.008925 107.342517 
L 265.032185 106.867668 
L 265.123963 106.867668 
L 265.204146 105.680546 
L 265.244836 105.680546 
L 265.352192 104.256 
L 265.405521 104.256 
L 265.433805 103.543727 
L 265.52508 103.543727 
L 265.613779 102.11918 
L 265.660694 102.11918 
L 265.740394 101.406907 
L 266.359167 101.406907 
L 266.440396 100.219785 
L 266.490166 100.219785 
L 266.595505 98.557815 
L 266.60676 98.557815 
L 266.715478 96.420995 
L 266.721071 96.420995 
L 266.824127 93.809327 
L 266.838025 93.809327 
L 266.917327 91.672507 
L 266.95006 91.672507 
L 266.986485 90.485385 
L 267.093146 90.485385 
L 267.188954 88.823415 
L 267.239069 88.823415 
L 267.340633 86.686595 
L 267.351018 86.686595 
L 267.461983 85.262049 
L 267.47026 85.262049 
L 267.514487 83.600078 
L 267.601349 83.600078 
L 267.703421 81.463259 
L 267.774301 81.463259 
L 267.876599 78.376741 
L 267.885537 78.376741 
L 267.977717 77.427044 
L 268.062575 77.427044 
L 268.14363 76.477346 
L 268.188786 76.477346 
L 268.297399 75.0528 
L 268.32217 75.0528 
L 268.392705 74.103102 
L 268.437165 74.103102 
L 268.505339 73.390829 
L 268.633272 73.390829 
L 268.633272 73.153405 
L 268.795029 73.153405 
L 268.795029 72.91598 
L 273.827717 72.91598 
L 273.9316 72.203707 
L 274.056431 72.203707 
L 274.140224 71.491434 
L 274.258514 71.491434 
L 274.258514 71.25401 
L 274.473751 71.25401 
L 274.583858 69.592039 
L 274.585846 69.592039 
L 274.676187 68.167493 
L 274.728357 68.167493 
L 274.829068 66.030673 
L 274.84614 66.030673 
L 274.935893 61.282185 
L 274.975814 61.282185 
L 275.037731 60.332488 
L 275.520393 60.332488 
L 275.613895 59.38279 
L 275.754737 59.38279 
L 275.76034 58.907941 
L 275.925685 58.907941 
L 275.998358 58.433093 
L 276.209172 58.433093 
L 276.274502 57.483395 
L 276.340411 57.483395 
L 276.446882 56.296273 
L 276.491777 56.296273 
L 276.580651 55.346576 
L 276.615911 55.346576 
L 276.64002 54.871727 
L 277.002262 54.871727 
L 277.087731 53.684605 
L 277.13061 53.684605 
L 277.22881 52.972332 
L 277.249143 52.972332 
L 277.348953 51.072937 
L 277.361281 51.072937 
L 277.471239 48.936117 
L 277.497557 48.936117 
L 277.606222 48.223844 
L 277.636483 48.223844 
L 277.724671 47.036722 
L 277.777436 47.036722 
L 277.84919 46.087024 
L 277.95431 46.087024 
L 278.028214 45.374751 
L 278.120996 45.374751 
L 278.191879 44.899902 
L 278.424444 44.899902 
L 278.424444 44.662478 
L 279.187296 44.662478 
L 279.187296 44.425054 
L 281.409993 44.425054 
L 281.409993 44.187629 
L 281.709865 44.187629 
L 281.709865 43.950205 
L 282.021378 43.950205 
L 282.120487 41.101112 
L 282.132519 41.101112 
L 282.229624 39.91399 
L 282.246388 39.91399 
L 282.348124 36.352624 
L 282.363517 36.352624 
L 282.373983 35.877776 
L 282.722489 35.877776 
L 282.782967 35.165502 
L 283.231573 35.165502 
L 283.270776 34.453229 
L 283.350831 34.453229 
L 283.444803 32.791259 
L 283.494755 32.791259 
L 283.533047 32.31641 
L 283.781871 32.31641 
L 283.879067 31.129288 
L 283.991622 31.129288 
L 284.093606 30.417015 
L 284.108745 30.417015 
L 284.209172 29.229893 
L 284.221792 29.229893 
L 284.297381 27.805346 
L 284.342887 27.805346 
L 284.44809 27.093073 
L 284.478096 27.093073 
L 284.542476 26.3808 
L 284.802562 26.3808 
L 284.802562 26.143376 
L 287.284311 26.143376 
L 287.284311 25.905951 
L 287.411647 25.905951 
L 287.453227 25.193678 
L 287.52875 25.193678 
L 287.638691 23.056859 
L 287.676285 23.056859 
L 287.676285 22.819434 
L 288.292678 22.819434 
L 288.387972 20.920039 
L 288.736587 20.920039 
L 288.736587 20.682615 
L 288.856785 20.682615 
L 288.930907 19.732917 
L 288.971971 19.732917 
L 289.067679 18.545795 
L 289.085605 18.545795 
L 289.11831 18.070946 
L 289.354838 18.070946 
L 289.354838 17.833522 
L 291.597737 17.833522 
L 291.668003 16.883824 
L 291.716578 16.883824 
L 291.803538 14.50958 
L 292.402282 14.50958 
L 292.429705 14.034732 
L 292.688625 14.034732 
L 292.766538 13.322459 
L 292.82627 13.322459 
L 292.867852 12.84761 
L 292.964799 12.84761 
L 293.069382 12.372761 
L 295.097 12.372761 
L 295.131019 11.423063 
L 295.587603 11.423063 
L 295.693812 10.473366 
L 296.035038 10.473366 
L 296.107571 9.998517 
L 296.156145 9.998517 
L 296.156145 9.761093 
L 297.966747 9.761093 
L 297.966747 9.523668 
L 298.732884 9.523668 
L 298.843817 8.811395 
L 300.487042 8.811395 
L 300.487042 8.573971 
L 300.928873 8.573971 
L 300.928873 8.336546 
L 303.296616 8.336546 
L 303.296616 8.099122 
L 304.678986 8.099122 
L 304.678986 7.861698 
L 308.493767 7.861698 
L 308.493767 7.624273 
L 309.516956 7.624273 
L 309.516956 7.386849 
L 311.43931 7.386849 
L 311.43931 7.149424 
L 315.688425 7.149424 
L 315.688425 6.912 
L 360.8064 6.912 
L 360.8064 6.912 
" style="fill:none;stroke:#ff00ff;stroke-linecap:square;stroke-width:1.5;"/>
   </g>
   <g id="line2d_36">
    <defs>
     <path d="M -0 8.485281 
L 5.091169 0 
L 0 -8.485281 
L -5.091169 -0 
z
" id="md97e7ab339" style="stroke:#ff00ff;stroke-linejoin:miter;stroke-width:1.5;"/>
    </defs>
    <g>
     <use style="fill-opacity:0;stroke:#ff00ff;stroke-linejoin:miter;stroke-width:1.5;" x="262.550132" xlink:href="#md97e7ab339" y="117.551766"/>
     <use style="fill-opacity:0;stroke:#ff00ff;stroke-linejoin:miter;stroke-width:1.5;" x="315.688425" xlink:href="#md97e7ab339" y="6.912"/>
     <use style="fill-opacity:0;stroke:#ff00ff;stroke-linejoin:miter;stroke-width:1.5;" x="315.688425" xlink:href="#md97e7ab339" y="6.912"/>
     <use style="fill-opacity:0;stroke:#ff00ff;stroke-linejoin:miter;stroke-width:1.5;" x="360.8064" xlink:href="#md97e7ab339" y="6.912"/>
    </g>
   </g>
   <g id="line2d_37">
    <path style="fill:none;stroke:#ff00ff;stroke-linecap:square;stroke-width:1.5;"/>
    <g/>
   </g>
   <g id="line2d_38">
    <path clip-path="url(#pbe4d50ace5)" d="M 261.234317 133.221776 
" style="fill:none;stroke:#ff00ff;stroke-linecap:square;stroke-width:1.5;"/>
    <defs>
     <path d="M -12 12 
L 12 -12 
M -12 -12 
L 12 12 
" id="m3e0ae2fa72" style="stroke:#ff00ff;"/>
    </defs>
    <g clip-path="url(#pbe4d50ace5)">
     <use style="fill:#ff00ff;stroke:#ff00ff;" x="261.234317" xlink:href="#m3e0ae2fa72" y="133.221776"/>
    </g>
   </g>
   <g id="line2d_39">
    <path d="M 360.8064 284.698537 
L 380.514816 293.10336 
" style="fill:none;stroke:#000080;stroke-linecap:square;stroke-width:1.5;"/>
    <g>
     <use style="fill-opacity:0;stroke:#000080;stroke-width:1.5;" x="360.8064" xlink:href="#mb693eb1328" y="284.698537"/>
     <use style="fill-opacity:0;stroke:#000080;stroke-width:1.5;" x="380.514816" xlink:href="#mb693eb1328" y="293.10336"/>
    </g>
   </g>
   <g id="line2d_40">
    <path d="M 360.8064 6.912 
L 380.514816 12.75264 
" style="fill:none;stroke:#ff00ff;stroke-linecap:square;stroke-width:1.5;"/>
    <g>
     <use style="fill-opacity:0;stroke:#ff00ff;stroke-linejoin:miter;stroke-width:1.5;" x="360.8064" xlink:href="#md97e7ab339" y="6.912"/>
     <use style="fill-opacity:0;stroke:#ff00ff;stroke-linejoin:miter;stroke-width:1.5;" x="380.514816" xlink:href="#md97e7ab339" y="12.75264"/>
    </g>
   </g>
   <g id="line2d_41">
    <path d="M 360.8064 298.944 
L 360.8064 6.912 
" style="fill:none;stroke:#000000;stroke-linecap:square;stroke-width:1.5;"/>
   </g>
   <g id="patch_3">
    <path d="M 57.6 298.944 
L 360.8064 298.944 
" style="fill:none;stroke:#000000;stroke-linecap:square;stroke-linejoin:miter;stroke-width:0.8;"/>
   </g>
   <g id="patch_4">
    <path d="M 57.6 6.912 
L 360.8064 6.912 
" style="fill:none;stroke:#000000;stroke-linecap:square;stroke-linejoin:miter;stroke-width:0.8;"/>
   </g>
   <g id="text_13">
    <!-- al-defaul -->
    <g transform="translate(386.578944 296.966485)scale(0.14 -0.14)">
     <defs>
      <path d="M 4.890625 31.390625 
L 31.203125 31.390625 
L 31.203125 23.390625 
L 4.890625 23.390625 
z
" id="DejaVuSans-45"/>
     </defs>
     <use xlink:href="#DejaVuSans-97"/>
     <use x="61.279297" xlink:href="#DejaVuSans-108"/>
     <use x="89.0625" xlink:href="#DejaVuSans-45"/>
     <use x="125.146484" xlink:href="#DejaVuSans-100"/>
     <use x="188.623047" xlink:href="#DejaVuSans-101"/>
     <use x="250.146484" xlink:href="#DejaVuSans-102"/>
     <use x="285.351562" xlink:href="#DejaVuSans-97"/>
     <use x="346.630859" xlink:href="#DejaVuSans-117"/>
     <use x="410.009766" xlink:href="#DejaVuSans-108"/>
    </g>
   </g>
   <g id="text_14">
    <!-- al3 -->
    <g transform="translate(386.578944 16.615765)scale(0.14 -0.14)">
     <defs>
      <path d="M 40.578125 39.3125 
Q 47.65625 37.796875 51.625 33 
Q 55.609375 28.21875 55.609375 21.1875 
Q 55.609375 10.40625 48.1875 4.484375 
Q 40.765625 -1.421875 27.09375 -1.421875 
Q 22.515625 -1.421875 17.65625 -0.515625 
Q 12.796875 0.390625 7.625 2.203125 
L 7.625 11.71875 
Q 11.71875 9.328125 16.59375 8.109375 
Q 21.484375 6.890625 26.8125 6.890625 
Q 36.078125 6.890625 40.9375 10.546875 
Q 45.796875 14.203125 45.796875 21.1875 
Q 45.796875 27.640625 41.28125 31.265625 
Q 36.765625 34.90625 28.71875 34.90625 
L 20.21875 34.90625 
L 20.21875 43.015625 
L 29.109375 43.015625 
Q 36.375 43.015625 40.234375 45.921875 
Q 44.09375 48.828125 44.09375 54.296875 
Q 44.09375 59.90625 40.109375 62.90625 
Q 36.140625 65.921875 28.71875 65.921875 
Q 24.65625 65.921875 20.015625 65.03125 
Q 15.375 64.15625 9.8125 62.3125 
L 9.8125 71.09375 
Q 15.4375 72.65625 20.34375 73.4375 
Q 25.25 74.21875 29.59375 74.21875 
Q 40.828125 74.21875 47.359375 69.109375 
Q 53.90625 64.015625 53.90625 55.328125 
Q 53.90625 49.265625 50.4375 45.09375 
Q 46.96875 40.921875 40.578125 39.3125 
z
" id="DejaVuSans-51"/>
     </defs>
     <use xlink:href="#DejaVuSans-97"/>
     <use x="61.279297" xlink:href="#DejaVuSans-108"/>
     <use x="89.0625" xlink:href="#DejaVuSans-51"/>
    </g>
   </g>
   <g id="text_15">
    <!-- bbob-constrained f44, f50, 5-D -->
    <g transform="translate(60.632064 17.582726)scale(0.102 -0.102)">
     <defs>
      <path d="M 48.6875 27.296875 
Q 48.6875 37.203125 44.609375 42.84375 
Q 40.53125 48.484375 33.40625 48.484375 
Q 26.265625 48.484375 22.1875 42.84375 
Q 18.109375 37.203125 18.109375 27.296875 
Q 18.109375 17.390625 22.1875 11.75 
Q 26.265625 6.109375 33.40625 6.109375 
Q 40.53125 6.109375 44.609375 11.75 
Q 48.6875 17.390625 48.6875 27.296875 
z
M 18.109375 46.390625 
Q 20.953125 51.265625 25.265625 53.625 
Q 29.59375 56 35.59375 56 
Q 45.5625 56 51.78125 48.09375 
Q 58.015625 40.1875 58.015625 27.296875 
Q 58.015625 14.40625 51.78125 6.484375 
Q 45.5625 -1.421875 35.59375 -1.421875 
Q 29.59375 -1.421875 25.265625 0.953125 
Q 20.953125 3.328125 18.109375 8.203125 
L 18.109375 0 
L 9.078125 0 
L 9.078125 75.984375 
L 18.109375 75.984375 
z
" id="DejaVuSans-98"/>
      <path d="M 10.796875 72.90625 
L 49.515625 72.90625 
L 49.515625 64.59375 
L 19.828125 64.59375 
L 19.828125 46.734375 
Q 21.96875 47.46875 24.109375 47.828125 
Q 26.265625 48.1875 28.421875 48.1875 
Q 40.625 48.1875 47.75 41.5 
Q 54.890625 34.8125 54.890625 23.390625 
Q 54.890625 11.625 47.5625 5.09375 
Q 40.234375 -1.421875 26.90625 -1.421875 
Q 22.3125 -1.421875 17.546875 -0.640625 
Q 12.796875 0.140625 7.71875 1.703125 
L 7.71875 11.625 
Q 12.109375 9.234375 16.796875 8.0625 
Q 21.484375 6.890625 26.703125 6.890625 
Q 35.15625 6.890625 40.078125 11.328125 
Q 45.015625 15.765625 45.015625 23.390625 
Q 45.015625 31 40.078125 35.4375 
Q 35.15625 39.890625 26.703125 39.890625 
Q 22.75 39.890625 18.8125 39.015625 
Q 14.890625 38.140625 10.796875 36.28125 
z
" id="DejaVuSans-53"/>
      <path d="M 19.671875 64.796875 
L 19.671875 8.109375 
L 31.59375 8.109375 
Q 46.6875 8.109375 53.6875 14.9375 
Q 60.6875 21.78125 60.6875 36.53125 
Q 60.6875 51.171875 53.6875 57.984375 
Q 46.6875 64.796875 31.59375 64.796875 
z
M 9.8125 72.90625 
L 30.078125 72.90625 
Q 51.265625 72.90625 61.171875 64.09375 
Q 71.09375 55.28125 71.09375 36.53125 
Q 71.09375 17.671875 61.125 8.828125 
Q 51.171875 0 30.078125 0 
L 9.8125 0 
z
" id="DejaVuSans-68"/>
     </defs>
     <use xlink:href="#DejaVuSans-98"/>
     <use x="63.476562" xlink:href="#DejaVuSans-98"/>
     <use x="126.953125" xlink:href="#DejaVuSans-111"/>
     <use x="188.134766" xlink:href="#DejaVuSans-98"/>
     <use x="251.611328" xlink:href="#DejaVuSans-45"/>
     <use x="287.695312" xlink:href="#DejaVuSans-99"/>
     <use x="342.675781" xlink:href="#DejaVuSans-111"/>
     <use x="403.857422" xlink:href="#DejaVuSans-110"/>
     <use x="467.236328" xlink:href="#DejaVuSans-115"/>
     <use x="519.335938" xlink:href="#DejaVuSans-116"/>
     <use x="558.544922" xlink:href="#DejaVuSans-114"/>
     <use x="599.658203" xlink:href="#DejaVuSans-97"/>
     <use x="660.9375" xlink:href="#DejaVuSans-105"/>
     <use x="688.720703" xlink:href="#DejaVuSans-110"/>
     <use x="752.099609" xlink:href="#DejaVuSans-101"/>
     <use x="813.623047" xlink:href="#DejaVuSans-100"/>
     <use x="877.099609" xlink:href="#DejaVuSans-32"/>
     <use x="908.886719" xlink:href="#DejaVuSans-102"/>
     <use x="944.091797" xlink:href="#DejaVuSans-52"/>
     <use x="1007.714844" xlink:href="#DejaVuSans-52"/>
     <use x="1071.337891" xlink:href="#DejaVuSans-44"/>
     <use x="1103.125" xlink:href="#DejaVuSans-32"/>
     <use x="1134.912109" xlink:href="#DejaVuSans-102"/>
     <use x="1170.117188" xlink:href="#DejaVuSans-53"/>
     <use x="1233.740234" xlink:href="#DejaVuSans-48"/>
     <use x="1297.363281" xlink:href="#DejaVuSans-44"/>
     <use x="1329.150391" xlink:href="#DejaVuSans-32"/>
     <use x="1360.9375" xlink:href="#DejaVuSans-53"/>
     <use x="1424.560547" xlink:href="#DejaVuSans-45"/>
     <use x="1460.644531" xlink:href="#DejaVuSans-68"/>
    </g>
    <!-- 41 targets: 100..1e-06 -->
    <g transform="translate(60.632064 29.004495)scale(0.102 -0.102)">
     <defs>
      <path d="M 11.71875 12.40625 
L 22.015625 12.40625 
L 22.015625 0 
L 11.71875 0 
z
M 11.71875 51.703125 
L 22.015625 51.703125 
L 22.015625 39.3125 
L 11.71875 39.3125 
z
" id="DejaVuSans-58"/>
     </defs>
     <use xlink:href="#DejaVuSans-52"/>
     <use x="63.623047" xlink:href="#DejaVuSans-49"/>
     <use x="127.246094" xlink:href="#DejaVuSans-32"/>
     <use x="159.033203" xlink:href="#DejaVuSans-116"/>
     <use x="198.242188" xlink:href="#DejaVuSans-97"/>
     <use x="259.521484" xlink:href="#DejaVuSans-114"/>
     <use x="298.884766" xlink:href="#DejaVuSans-103"/>
     <use x="362.361328" xlink:href="#DejaVuSans-101"/>
     <use x="423.884766" xlink:href="#DejaVuSans-116"/>
     <use x="463.09375" xlink:href="#DejaVuSans-115"/>
     <use x="515.193359" xlink:href="#DejaVuSans-58"/>
     <use x="548.884766" xlink:href="#DejaVuSans-32"/>
     <use x="580.671875" xlink:href="#DejaVuSans-49"/>
     <use x="644.294922" xlink:href="#DejaVuSans-48"/>
     <use x="707.917969" xlink:href="#DejaVuSans-48"/>
     <use x="771.541016" xlink:href="#DejaVuSans-46"/>
     <use x="803.328125" xlink:href="#DejaVuSans-46"/>
     <use x="835.115234" xlink:href="#DejaVuSans-49"/>
     <use x="898.738281" xlink:href="#DejaVuSans-101"/>
     <use x="960.261719" xlink:href="#DejaVuSans-45"/>
     <use x="996.345703" xlink:href="#DejaVuSans-48"/>
     <use x="1059.96875" xlink:href="#DejaVuSans-54"/>
    </g>
    <!-- evals = f-evals + g-evals -->
    <g transform="translate(60.632064 40.426264)scale(0.102 -0.102)">
     <defs>
      <path d="M 10.59375 45.40625 
L 73.1875 45.40625 
L 73.1875 37.203125 
L 10.59375 37.203125 
z
M 10.59375 25.484375 
L 73.1875 25.484375 
L 73.1875 17.1875 
L 10.59375 17.1875 
z
" id="DejaVuSans-61"/>
      <path d="M 46 62.703125 
L 46 35.5 
L 73.1875 35.5 
L 73.1875 27.203125 
L 46 27.203125 
L 46 0 
L 37.796875 0 
L 37.796875 27.203125 
L 10.59375 27.203125 
L 10.59375 35.5 
L 37.796875 35.5 
L 37.796875 62.703125 
z
" id="DejaVuSans-43"/>
     </defs>
     <use xlink:href="#DejaVuSans-101"/>
     <use x="61.523438" xlink:href="#DejaVuSans-118"/>
     <use x="120.703125" xlink:href="#DejaVuSans-97"/>
     <use x="181.982422" xlink:href="#DejaVuSans-108"/>
     <use x="209.765625" xlink:href="#DejaVuSans-115"/>
     <use x="261.865234" xlink:href="#DejaVuSans-32"/>
     <use x="293.652344" xlink:href="#DejaVuSans-61"/>
     <use x="377.441406" xlink:href="#DejaVuSans-32"/>
     <use x="409.228516" xlink:href="#DejaVuSans-102"/>
     <use x="438.933594" xlink:href="#DejaVuSans-45"/>
     <use x="475.017578" xlink:href="#DejaVuSans-101"/>
     <use x="536.541016" xlink:href="#DejaVuSans-118"/>
     <use x="595.720703" xlink:href="#DejaVuSans-97"/>
     <use x="657" xlink:href="#DejaVuSans-108"/>
     <use x="684.783203" xlink:href="#DejaVuSans-115"/>
     <use x="736.882812" xlink:href="#DejaVuSans-32"/>
     <use x="768.669922" xlink:href="#DejaVuSans-43"/>
     <use x="852.458984" xlink:href="#DejaVuSans-32"/>
     <use x="884.246094" xlink:href="#DejaVuSans-103"/>
     <use x="947.722656" xlink:href="#DejaVuSans-45"/>
     <use x="983.806641" xlink:href="#DejaVuSans-101"/>
     <use x="1045.330078" xlink:href="#DejaVuSans-118"/>
     <use x="1104.509766" xlink:href="#DejaVuSans-97"/>
     <use x="1165.789062" xlink:href="#DejaVuSans-108"/>
     <use x="1193.572266" xlink:href="#DejaVuSans-115"/>
    </g>
    <!-- 15 instances -->
    <g transform="translate(60.632064 51.848032)scale(0.102 -0.102)">
     <use xlink:href="#DejaVuSans-49"/>
     <use x="63.623047" xlink:href="#DejaVuSans-53"/>
     <use x="127.246094" xlink:href="#DejaVuSans-32"/>
     <use x="159.033203" xlink:href="#DejaVuSans-105"/>
     <use x="186.816406" xlink:href="#DejaVuSans-110"/>
     <use x="250.195312" xlink:href="#DejaVuSans-115"/>
     <use x="302.294922" xlink:href="#DejaVuSans-116"/>
     <use x="341.503906" xlink:href="#DejaVuSans-97"/>
     <use x="402.783203" xlink:href="#DejaVuSans-110"/>
     <use x="466.162109" xlink:href="#DejaVuSans-99"/>
     <use x="521.142578" xlink:href="#DejaVuSans-101"/>
     <use x="582.666016" xlink:href="#DejaVuSans-115"/>
    </g>
   </g>
   <g id="text_16">
    <!-- v2.6.1.9 -->
    <g style="fill:#808080;" transform="translate(188.751637 293.943992)scale(0.1 -0.1)">
     <defs>
      <path d="M 10.984375 1.515625 
L 10.984375 10.5 
Q 14.703125 8.734375 18.5 7.8125 
Q 22.3125 6.890625 25.984375 6.890625 
Q 35.75 6.890625 40.890625 13.453125 
Q 46.046875 20.015625 46.78125 33.40625 
Q 43.953125 29.203125 39.59375 26.953125 
Q 35.25 24.703125 29.984375 24.703125 
Q 19.046875 24.703125 12.671875 31.3125 
Q 6.296875 37.9375 6.296875 49.421875 
Q 6.296875 60.640625 12.9375 67.421875 
Q 19.578125 74.21875 30.609375 74.21875 
Q 43.265625 74.21875 49.921875 64.515625 
Q 56.59375 54.828125 56.59375 36.375 
Q 56.59375 19.140625 48.40625 8.859375 
Q 40.234375 -1.421875 26.421875 -1.421875 
Q 22.703125 -1.421875 18.890625 -0.6875 
Q 15.09375 0.046875 10.984375 1.515625 
z
M 30.609375 32.421875 
Q 37.25 32.421875 41.125 36.953125 
Q 45.015625 41.5 45.015625 49.421875 
Q 45.015625 57.28125 41.125 61.84375 
Q 37.25 66.40625 30.609375 66.40625 
Q 23.96875 66.40625 20.09375 61.84375 
Q 16.21875 57.28125 16.21875 49.421875 
Q 16.21875 41.5 20.09375 36.953125 
Q 23.96875 32.421875 30.609375 32.421875 
z
" id="DejaVuSans-57"/>
     </defs>
     <use xlink:href="#DejaVuSans-118"/>
     <use x="59.179688" xlink:href="#DejaVuSans-50"/>
     <use x="122.802734" xlink:href="#DejaVuSans-46"/>
     <use x="154.589844" xlink:href="#DejaVuSans-54"/>
     <use x="218.212891" xlink:href="#DejaVuSans-46"/>
     <use x="250" xlink:href="#DejaVuSans-49"/>
     <use x="313.623047" xlink:href="#DejaVuSans-46"/>
     <use x="345.410156" xlink:href="#DejaVuSans-57"/>
    </g>
   </g>
  </g>
 </g>
 <defs>
  <clipPath id="pbe4d50ace5">
   <rect height="292.032" width="303.2064" x="57.6" y="6.912"/>
  </clipPath>
 </defs>
</svg>
