<?xml version="1.0" encoding="utf-8" standalone="no"?>
<!DOCTYPE svg PUBLIC "-//W3C//DTD SVG 1.1//EN"
  "http://www.w3.org/Graphics/SVG/1.1/DTD/svg11.dtd">
<!-- Created with matplotlib (https://matplotlib.org/) -->
<svg height="345.6pt" version="1.1" viewBox="0 0 460.8 345.6" width="460.8pt" xmlns="http://www.w3.org/2000/svg" xmlns:xlink="http://www.w3.org/1999/xlink">
 <metadata>
  <rdf:RDF xmlns:cc="http://creativecommons.org/ns#" xmlns:dc="http://purl.org/dc/elements/1.1/" xmlns:rdf="http://www.w3.org/1999/02/22-rdf-syntax-ns#">
   <cc:Work>
    <dc:type rdf:resource="http://purl.org/dc/dcmitype/StillImage"/>
    <dc:date>2022-04-26T20:52:16.226759</dc:date>
    <dc:format>image/svg+xml</dc:format>
    <dc:creator>
     <cc:Agent>
      <dc:title>Matplotlib v3.3.3, https://matplotlib.org/</dc:title>
     </cc:Agent>
    </dc:creator>
   </cc:Work>
  </rdf:RDF>
 </metadata>
 <defs>
  <style type="text/css">*{stroke-linecap:butt;stroke-linejoin:round;}</style>
 </defs>
 <g id="figure_1">
  <g id="patch_1">
   <path d="M 0 345.6 
L 460.8 345.6 
L 460.8 0 
L 0 0 
z
" style="fill:#ffffff;"/>
  </g>
  <g id="axes_1">
   <g id="patch_2">
    <path d="M 57.6 298.944 
L 360.8064 298.944 
L 360.8064 6.912 
L 57.6 6.912 
z
" style="fill:#ffffff;"/>
   </g>
   <g id="matplotlib.axis_1">
    <g id="xtick_1">
     <g id="line2d_1">
      <path clip-path="url(#p0a062cf736)" d="M 57.6 298.944 
L 57.6 6.912 
" style="fill:none;stroke:#b0b0b0;stroke-linecap:square;stroke-width:0.8;"/>
     </g>
     <g id="line2d_2">
      <defs>
       <path d="M 0 0 
L 0 3.5 
" id="mf688c0d554" style="stroke:#000000;stroke-width:0.8;"/>
      </defs>
      <g>
       <use style="stroke:#000000;stroke-width:0.8;" x="57.6" xlink:href="#mf688c0d554" y="298.944"/>
      </g>
     </g>
     <g id="text_1">
      <!-- 0 -->
      <g transform="translate(52.191875 318.861344)scale(0.17 -0.17)">
       <defs>
        <path d="M 31.78125 66.40625 
Q 24.171875 66.40625 20.328125 58.90625 
Q 16.5 51.421875 16.5 36.375 
Q 16.5 21.390625 20.328125 13.890625 
Q 24.171875 6.390625 31.78125 6.390625 
Q 39.453125 6.390625 43.28125 13.890625 
Q 47.125 21.390625 47.125 36.375 
Q 47.125 51.421875 43.28125 58.90625 
Q 39.453125 66.40625 31.78125 66.40625 
z
M 31.78125 74.21875 
Q 44.046875 74.21875 50.515625 64.515625 
Q 56.984375 54.828125 56.984375 36.375 
Q 56.984375 17.96875 50.515625 8.265625 
Q 44.046875 -1.421875 31.78125 -1.421875 
Q 19.53125 -1.421875 13.0625 8.265625 
Q 6.59375 17.96875 6.59375 36.375 
Q 6.59375 54.828125 13.0625 64.515625 
Q 19.53125 74.21875 31.78125 74.21875 
z
" id="DejaVuSans-48"/>
       </defs>
       <use xlink:href="#DejaVuSans-48"/>
      </g>
     </g>
    </g>
    <g id="xtick_2">
     <g id="line2d_3">
      <path clip-path="url(#p0a062cf736)" d="M 144.2304 298.944 
L 144.2304 6.912 
" style="fill:none;stroke:#b0b0b0;stroke-linecap:square;stroke-width:0.8;"/>
     </g>
     <g id="line2d_4">
      <g>
       <use style="stroke:#000000;stroke-width:0.8;" x="144.2304" xlink:href="#mf688c0d554" y="298.944"/>
      </g>
     </g>
     <g id="text_2">
      <!-- 2 -->
      <g transform="translate(138.822275 318.861344)scale(0.17 -0.17)">
       <defs>
        <path d="M 19.1875 8.296875 
L 53.609375 8.296875 
L 53.609375 0 
L 7.328125 0 
L 7.328125 8.296875 
Q 12.9375 14.109375 22.625 23.890625 
Q 32.328125 33.6875 34.8125 36.53125 
Q 39.546875 41.84375 41.421875 45.53125 
Q 43.3125 49.21875 43.3125 52.78125 
Q 43.3125 58.59375 39.234375 62.25 
Q 35.15625 65.921875 28.609375 65.921875 
Q 23.96875 65.921875 18.8125 64.3125 
Q 13.671875 62.703125 7.8125 59.421875 
L 7.8125 69.390625 
Q 13.765625 71.78125 18.9375 73 
Q 24.125 74.21875 28.421875 74.21875 
Q 39.75 74.21875 46.484375 68.546875 
Q 53.21875 62.890625 53.21875 53.421875 
Q 53.21875 48.921875 51.53125 44.890625 
Q 49.859375 40.875 45.40625 35.40625 
Q 44.1875 33.984375 37.640625 27.21875 
Q 31.109375 20.453125 19.1875 8.296875 
z
" id="DejaVuSans-50"/>
       </defs>
       <use xlink:href="#DejaVuSans-50"/>
      </g>
     </g>
    </g>
    <g id="xtick_3">
     <g id="line2d_5">
      <path clip-path="url(#p0a062cf736)" d="M 230.8608 298.944 
L 230.8608 6.912 
" style="fill:none;stroke:#b0b0b0;stroke-linecap:square;stroke-width:0.8;"/>
     </g>
     <g id="line2d_6">
      <g>
       <use style="stroke:#000000;stroke-width:0.8;" x="230.8608" xlink:href="#mf688c0d554" y="298.944"/>
      </g>
     </g>
     <g id="text_3">
      <!-- 4 -->
      <g transform="translate(225.452675 318.861344)scale(0.17 -0.17)">
       <defs>
        <path d="M 37.796875 64.3125 
L 12.890625 25.390625 
L 37.796875 25.390625 
z
M 35.203125 72.90625 
L 47.609375 72.90625 
L 47.609375 25.390625 
L 58.015625 25.390625 
L 58.015625 17.1875 
L 47.609375 17.1875 
L 47.609375 0 
L 37.796875 0 
L 37.796875 17.1875 
L 4.890625 17.1875 
L 4.890625 26.703125 
z
" id="DejaVuSans-52"/>
       </defs>
       <use xlink:href="#DejaVuSans-52"/>
      </g>
     </g>
    </g>
    <g id="xtick_4">
     <g id="line2d_7">
      <path clip-path="url(#p0a062cf736)" d="M 317.4912 298.944 
L 317.4912 6.912 
" style="fill:none;stroke:#b0b0b0;stroke-linecap:square;stroke-width:0.8;"/>
     </g>
     <g id="line2d_8">
      <g>
       <use style="stroke:#000000;stroke-width:0.8;" x="317.4912" xlink:href="#mf688c0d554" y="298.944"/>
      </g>
     </g>
     <g id="text_4">
      <!-- 6 -->
      <g transform="translate(312.083075 318.861344)scale(0.17 -0.17)">
       <defs>
        <path d="M 33.015625 40.375 
Q 26.375 40.375 22.484375 35.828125 
Q 18.609375 31.296875 18.609375 23.390625 
Q 18.609375 15.53125 22.484375 10.953125 
Q 26.375 6.390625 33.015625 6.390625 
Q 39.65625 6.390625 43.53125 10.953125 
Q 47.40625 15.53125 47.40625 23.390625 
Q 47.40625 31.296875 43.53125 35.828125 
Q 39.65625 40.375 33.015625 40.375 
z
M 52.59375 71.296875 
L 52.59375 62.3125 
Q 48.875 64.0625 45.09375 64.984375 
Q 41.3125 65.921875 37.59375 65.921875 
Q 27.828125 65.921875 22.671875 59.328125 
Q 17.53125 52.734375 16.796875 39.40625 
Q 19.671875 43.65625 24.015625 45.921875 
Q 28.375 48.1875 33.59375 48.1875 
Q 44.578125 48.1875 50.953125 41.515625 
Q 57.328125 34.859375 57.328125 23.390625 
Q 57.328125 12.15625 50.6875 5.359375 
Q 44.046875 -1.421875 33.015625 -1.421875 
Q 20.359375 -1.421875 13.671875 8.265625 
Q 6.984375 17.96875 6.984375 36.375 
Q 6.984375 53.65625 15.1875 63.9375 
Q 23.390625 74.21875 37.203125 74.21875 
Q 40.921875 74.21875 44.703125 73.484375 
Q 48.484375 72.75 52.59375 71.296875 
z
" id="DejaVuSans-54"/>
       </defs>
       <use xlink:href="#DejaVuSans-54"/>
      </g>
     </g>
    </g>
    <g id="xtick_5">
     <g id="line2d_9">
      <path clip-path="url(#p0a062cf736)" d="M 100.9152 298.944 
L 100.9152 6.912 
" style="fill:none;stroke:#b0b0b0;stroke-linecap:square;stroke-width:0.8;"/>
     </g>
     <g id="line2d_10">
      <defs>
       <path d="M 0 0 
L 0 2 
" id="m18a6b676e2" style="stroke:#000000;stroke-width:0.6;"/>
      </defs>
      <g>
       <use style="stroke:#000000;stroke-width:0.6;" x="100.9152" xlink:href="#m18a6b676e2" y="298.944"/>
      </g>
     </g>
    </g>
    <g id="xtick_6">
     <g id="line2d_11">
      <path clip-path="url(#p0a062cf736)" d="M 187.5456 298.944 
L 187.5456 6.912 
" style="fill:none;stroke:#b0b0b0;stroke-linecap:square;stroke-width:0.8;"/>
     </g>
     <g id="line2d_12">
      <g>
       <use style="stroke:#000000;stroke-width:0.6;" x="187.5456" xlink:href="#m18a6b676e2" y="298.944"/>
      </g>
     </g>
    </g>
    <g id="xtick_7">
     <g id="line2d_13">
      <path clip-path="url(#p0a062cf736)" d="M 274.176 298.944 
L 274.176 6.912 
" style="fill:none;stroke:#b0b0b0;stroke-linecap:square;stroke-width:0.8;"/>
     </g>
     <g id="line2d_14">
      <g>
       <use style="stroke:#000000;stroke-width:0.6;" x="274.176" xlink:href="#m18a6b676e2" y="298.944"/>
      </g>
     </g>
    </g>
    <g id="xtick_8">
     <g id="line2d_15">
      <path clip-path="url(#p0a062cf736)" d="M 360.8064 298.944 
L 360.8064 6.912 
" style="fill:none;stroke:#b0b0b0;stroke-linecap:square;stroke-width:0.8;"/>
     </g>
     <g id="line2d_16">
      <g>
       <use style="stroke:#000000;stroke-width:0.6;" x="360.8064" xlink:href="#m18a6b676e2" y="298.944"/>
      </g>
     </g>
    </g>
    <g id="text_5">
     <!-- log10(evals / dimension) -->
     <g transform="translate(104.238825 339.314156)scale(0.17 -0.17)">
      <defs>
       <path d="M 9.421875 75.984375 
L 18.40625 75.984375 
L 18.40625 0 
L 9.421875 0 
z
" id="DejaVuSans-108"/>
       <path d="M 30.609375 48.390625 
Q 23.390625 48.390625 19.1875 42.75 
Q 14.984375 37.109375 14.984375 27.296875 
Q 14.984375 17.484375 19.15625 11.84375 
Q 23.34375 6.203125 30.609375 6.203125 
Q 37.796875 6.203125 41.984375 11.859375 
Q 46.1875 17.53125 46.1875 27.296875 
Q 46.1875 37.015625 41.984375 42.703125 
Q 37.796875 48.390625 30.609375 48.390625 
z
M 30.609375 56 
Q 42.328125 56 49.015625 48.375 
Q 55.71875 40.765625 55.71875 27.296875 
Q 55.71875 13.875 49.015625 6.21875 
Q 42.328125 -1.421875 30.609375 -1.421875 
Q 18.84375 -1.421875 12.171875 6.21875 
Q 5.515625 13.875 5.515625 27.296875 
Q 5.515625 40.765625 12.171875 48.375 
Q 18.84375 56 30.609375 56 
z
" id="DejaVuSans-111"/>
       <path d="M 45.40625 27.984375 
Q 45.40625 37.75 41.375 43.109375 
Q 37.359375 48.484375 30.078125 48.484375 
Q 22.859375 48.484375 18.828125 43.109375 
Q 14.796875 37.75 14.796875 27.984375 
Q 14.796875 18.265625 18.828125 12.890625 
Q 22.859375 7.515625 30.078125 7.515625 
Q 37.359375 7.515625 41.375 12.890625 
Q 45.40625 18.265625 45.40625 27.984375 
z
M 54.390625 6.78125 
Q 54.390625 -7.171875 48.1875 -13.984375 
Q 42 -20.796875 29.203125 -20.796875 
Q 24.46875 -20.796875 20.265625 -20.09375 
Q 16.0625 -19.390625 12.109375 -17.921875 
L 12.109375 -9.1875 
Q 16.0625 -11.328125 19.921875 -12.34375 
Q 23.78125 -13.375 27.78125 -13.375 
Q 36.625 -13.375 41.015625 -8.765625 
Q 45.40625 -4.15625 45.40625 5.171875 
L 45.40625 9.625 
Q 42.625 4.78125 38.28125 2.390625 
Q 33.9375 0 27.875 0 
Q 17.828125 0 11.671875 7.65625 
Q 5.515625 15.328125 5.515625 27.984375 
Q 5.515625 40.671875 11.671875 48.328125 
Q 17.828125 56 27.875 56 
Q 33.9375 56 38.28125 53.609375 
Q 42.625 51.21875 45.40625 46.390625 
L 45.40625 54.6875 
L 54.390625 54.6875 
z
" id="DejaVuSans-103"/>
       <path d="M 12.40625 8.296875 
L 28.515625 8.296875 
L 28.515625 63.921875 
L 10.984375 60.40625 
L 10.984375 69.390625 
L 28.421875 72.90625 
L 38.28125 72.90625 
L 38.28125 8.296875 
L 54.390625 8.296875 
L 54.390625 0 
L 12.40625 0 
z
" id="DejaVuSans-49"/>
       <path d="M 31 75.875 
Q 24.46875 64.65625 21.28125 53.65625 
Q 18.109375 42.671875 18.109375 31.390625 
Q 18.109375 20.125 21.3125 9.0625 
Q 24.515625 -2 31 -13.1875 
L 23.1875 -13.1875 
Q 15.875 -1.703125 12.234375 9.375 
Q 8.59375 20.453125 8.59375 31.390625 
Q 8.59375 42.28125 12.203125 53.3125 
Q 15.828125 64.359375 23.1875 75.875 
z
" id="DejaVuSans-40"/>
       <path d="M 56.203125 29.59375 
L 56.203125 25.203125 
L 14.890625 25.203125 
Q 15.484375 15.921875 20.484375 11.0625 
Q 25.484375 6.203125 34.421875 6.203125 
Q 39.59375 6.203125 44.453125 7.46875 
Q 49.3125 8.734375 54.109375 11.28125 
L 54.109375 2.78125 
Q 49.265625 0.734375 44.1875 -0.34375 
Q 39.109375 -1.421875 33.890625 -1.421875 
Q 20.796875 -1.421875 13.15625 6.1875 
Q 5.515625 13.8125 5.515625 26.8125 
Q 5.515625 40.234375 12.765625 48.109375 
Q 20.015625 56 32.328125 56 
Q 43.359375 56 49.78125 48.890625 
Q 56.203125 41.796875 56.203125 29.59375 
z
M 47.21875 32.234375 
Q 47.125 39.59375 43.09375 43.984375 
Q 39.0625 48.390625 32.421875 48.390625 
Q 24.90625 48.390625 20.390625 44.140625 
Q 15.875 39.890625 15.1875 32.171875 
z
" id="DejaVuSans-101"/>
       <path d="M 2.984375 54.6875 
L 12.5 54.6875 
L 29.59375 8.796875 
L 46.6875 54.6875 
L 56.203125 54.6875 
L 35.6875 0 
L 23.484375 0 
z
" id="DejaVuSans-118"/>
       <path d="M 34.28125 27.484375 
Q 23.390625 27.484375 19.1875 25 
Q 14.984375 22.515625 14.984375 16.5 
Q 14.984375 11.71875 18.140625 8.90625 
Q 21.296875 6.109375 26.703125 6.109375 
Q 34.1875 6.109375 38.703125 11.40625 
Q 43.21875 16.703125 43.21875 25.484375 
L 43.21875 27.484375 
z
M 52.203125 31.203125 
L 52.203125 0 
L 43.21875 0 
L 43.21875 8.296875 
Q 40.140625 3.328125 35.546875 0.953125 
Q 30.953125 -1.421875 24.3125 -1.421875 
Q 15.921875 -1.421875 10.953125 3.296875 
Q 6 8.015625 6 15.921875 
Q 6 25.140625 12.171875 29.828125 
Q 18.359375 34.515625 30.609375 34.515625 
L 43.21875 34.515625 
L 43.21875 35.40625 
Q 43.21875 41.609375 39.140625 45 
Q 35.0625 48.390625 27.6875 48.390625 
Q 23 48.390625 18.546875 47.265625 
Q 14.109375 46.140625 10.015625 43.890625 
L 10.015625 52.203125 
Q 14.9375 54.109375 19.578125 55.046875 
Q 24.21875 56 28.609375 56 
Q 40.484375 56 46.34375 49.84375 
Q 52.203125 43.703125 52.203125 31.203125 
z
" id="DejaVuSans-97"/>
       <path d="M 44.28125 53.078125 
L 44.28125 44.578125 
Q 40.484375 46.53125 36.375 47.5 
Q 32.28125 48.484375 27.875 48.484375 
Q 21.1875 48.484375 17.84375 46.4375 
Q 14.5 44.390625 14.5 40.28125 
Q 14.5 37.15625 16.890625 35.375 
Q 19.28125 33.59375 26.515625 31.984375 
L 29.59375 31.296875 
Q 39.15625 29.25 43.1875 25.515625 
Q 47.21875 21.78125 47.21875 15.09375 
Q 47.21875 7.46875 41.1875 3.015625 
Q 35.15625 -1.421875 24.609375 -1.421875 
Q 20.21875 -1.421875 15.453125 -0.5625 
Q 10.6875 0.296875 5.421875 2 
L 5.421875 11.28125 
Q 10.40625 8.6875 15.234375 7.390625 
Q 20.0625 6.109375 24.8125 6.109375 
Q 31.15625 6.109375 34.5625 8.28125 
Q 37.984375 10.453125 37.984375 14.40625 
Q 37.984375 18.0625 35.515625 20.015625 
Q 33.0625 21.96875 24.703125 23.78125 
L 21.578125 24.515625 
Q 13.234375 26.265625 9.515625 29.90625 
Q 5.8125 33.546875 5.8125 39.890625 
Q 5.8125 47.609375 11.28125 51.796875 
Q 16.75 56 26.8125 56 
Q 31.78125 56 36.171875 55.265625 
Q 40.578125 54.546875 44.28125 53.078125 
z
" id="DejaVuSans-115"/>
       <path id="DejaVuSans-32"/>
       <path d="M 25.390625 72.90625 
L 33.6875 72.90625 
L 8.296875 -9.28125 
L 0 -9.28125 
z
" id="DejaVuSans-47"/>
       <path d="M 45.40625 46.390625 
L 45.40625 75.984375 
L 54.390625 75.984375 
L 54.390625 0 
L 45.40625 0 
L 45.40625 8.203125 
Q 42.578125 3.328125 38.25 0.953125 
Q 33.9375 -1.421875 27.875 -1.421875 
Q 17.96875 -1.421875 11.734375 6.484375 
Q 5.515625 14.40625 5.515625 27.296875 
Q 5.515625 40.1875 11.734375 48.09375 
Q 17.96875 56 27.875 56 
Q 33.9375 56 38.25 53.625 
Q 42.578125 51.265625 45.40625 46.390625 
z
M 14.796875 27.296875 
Q 14.796875 17.390625 18.875 11.75 
Q 22.953125 6.109375 30.078125 6.109375 
Q 37.203125 6.109375 41.296875 11.75 
Q 45.40625 17.390625 45.40625 27.296875 
Q 45.40625 37.203125 41.296875 42.84375 
Q 37.203125 48.484375 30.078125 48.484375 
Q 22.953125 48.484375 18.875 42.84375 
Q 14.796875 37.203125 14.796875 27.296875 
z
" id="DejaVuSans-100"/>
       <path d="M 9.421875 54.6875 
L 18.40625 54.6875 
L 18.40625 0 
L 9.421875 0 
z
M 9.421875 75.984375 
L 18.40625 75.984375 
L 18.40625 64.59375 
L 9.421875 64.59375 
z
" id="DejaVuSans-105"/>
       <path d="M 52 44.1875 
Q 55.375 50.25 60.0625 53.125 
Q 64.75 56 71.09375 56 
Q 79.640625 56 84.28125 50.015625 
Q 88.921875 44.046875 88.921875 33.015625 
L 88.921875 0 
L 79.890625 0 
L 79.890625 32.71875 
Q 79.890625 40.578125 77.09375 44.375 
Q 74.3125 48.1875 68.609375 48.1875 
Q 61.625 48.1875 57.5625 43.546875 
Q 53.515625 38.921875 53.515625 30.90625 
L 53.515625 0 
L 44.484375 0 
L 44.484375 32.71875 
Q 44.484375 40.625 41.703125 44.40625 
Q 38.921875 48.1875 33.109375 48.1875 
Q 26.21875 48.1875 22.15625 43.53125 
Q 18.109375 38.875 18.109375 30.90625 
L 18.109375 0 
L 9.078125 0 
L 9.078125 54.6875 
L 18.109375 54.6875 
L 18.109375 46.1875 
Q 21.1875 51.21875 25.484375 53.609375 
Q 29.78125 56 35.6875 56 
Q 41.65625 56 45.828125 52.96875 
Q 50 49.953125 52 44.1875 
z
" id="DejaVuSans-109"/>
       <path d="M 54.890625 33.015625 
L 54.890625 0 
L 45.90625 0 
L 45.90625 32.71875 
Q 45.90625 40.484375 42.875 44.328125 
Q 39.84375 48.1875 33.796875 48.1875 
Q 26.515625 48.1875 22.3125 43.546875 
Q 18.109375 38.921875 18.109375 30.90625 
L 18.109375 0 
L 9.078125 0 
L 9.078125 54.6875 
L 18.109375 54.6875 
L 18.109375 46.1875 
Q 21.34375 51.125 25.703125 53.5625 
Q 30.078125 56 35.796875 56 
Q 45.21875 56 50.046875 50.171875 
Q 54.890625 44.34375 54.890625 33.015625 
z
" id="DejaVuSans-110"/>
       <path d="M 8.015625 75.875 
L 15.828125 75.875 
Q 23.140625 64.359375 26.78125 53.3125 
Q 30.421875 42.28125 30.421875 31.390625 
Q 30.421875 20.453125 26.78125 9.375 
Q 23.140625 -1.703125 15.828125 -13.1875 
L 8.015625 -13.1875 
Q 14.5 -2 17.703125 9.0625 
Q 20.90625 20.125 20.90625 31.390625 
Q 20.90625 42.671875 17.703125 53.65625 
Q 14.5 64.65625 8.015625 75.875 
z
" id="DejaVuSans-41"/>
      </defs>
      <use xlink:href="#DejaVuSans-108"/>
      <use x="27.783203" xlink:href="#DejaVuSans-111"/>
      <use x="88.964844" xlink:href="#DejaVuSans-103"/>
      <use x="152.441406" xlink:href="#DejaVuSans-49"/>
      <use x="216.064453" xlink:href="#DejaVuSans-48"/>
      <use x="279.6875" xlink:href="#DejaVuSans-40"/>
      <use x="318.701172" xlink:href="#DejaVuSans-101"/>
      <use x="380.224609" xlink:href="#DejaVuSans-118"/>
      <use x="439.404297" xlink:href="#DejaVuSans-97"/>
      <use x="500.683594" xlink:href="#DejaVuSans-108"/>
      <use x="528.466797" xlink:href="#DejaVuSans-115"/>
      <use x="580.566406" xlink:href="#DejaVuSans-32"/>
      <use x="612.353516" xlink:href="#DejaVuSans-47"/>
      <use x="646.044922" xlink:href="#DejaVuSans-32"/>
      <use x="677.832031" xlink:href="#DejaVuSans-100"/>
      <use x="741.308594" xlink:href="#DejaVuSans-105"/>
      <use x="769.091797" xlink:href="#DejaVuSans-109"/>
      <use x="866.503906" xlink:href="#DejaVuSans-101"/>
      <use x="928.027344" xlink:href="#DejaVuSans-110"/>
      <use x="991.40625" xlink:href="#DejaVuSans-115"/>
      <use x="1043.505859" xlink:href="#DejaVuSans-105"/>
      <use x="1071.289062" xlink:href="#DejaVuSans-111"/>
      <use x="1132.470703" xlink:href="#DejaVuSans-110"/>
      <use x="1195.849609" xlink:href="#DejaVuSans-41"/>
     </g>
    </g>
   </g>
   <g id="matplotlib.axis_2">
    <g id="ytick_1">
     <g id="line2d_17">
      <path clip-path="url(#p0a062cf736)" d="M 57.6 298.944 
L 360.8064 298.944 
" style="fill:none;stroke:#b0b0b0;stroke-linecap:square;stroke-width:0.8;"/>
     </g>
     <g id="line2d_18">
      <defs>
       <path d="M 0 0 
L -3.5 0 
" id="m9f4f94bb7e" style="stroke:#000000;stroke-width:0.8;"/>
      </defs>
      <g>
       <use style="stroke:#000000;stroke-width:0.8;" x="57.6" xlink:href="#m9f4f94bb7e" y="298.944"/>
      </g>
     </g>
     <g id="text_6">
      <!-- 0.0 -->
      <g transform="translate(25.155 305.02275)scale(0.16 -0.16)">
       <defs>
        <path d="M 10.6875 12.40625 
L 21 12.40625 
L 21 0 
L 10.6875 0 
z
" id="DejaVuSans-46"/>
       </defs>
       <use xlink:href="#DejaVuSans-48"/>
       <use x="63.623047" xlink:href="#DejaVuSans-46"/>
       <use x="95.410156" xlink:href="#DejaVuSans-48"/>
      </g>
     </g>
    </g>
    <g id="ytick_2">
     <g id="line2d_19">
      <path clip-path="url(#p0a062cf736)" d="M 57.6 240.5376 
L 360.8064 240.5376 
" style="fill:none;stroke:#b0b0b0;stroke-linecap:square;stroke-width:0.8;"/>
     </g>
     <g id="line2d_20">
      <g>
       <use style="stroke:#000000;stroke-width:0.8;" x="57.6" xlink:href="#m9f4f94bb7e" y="240.5376"/>
      </g>
     </g>
     <g id="text_7">
      <!-- 0.2 -->
      <g transform="translate(25.155 246.61635)scale(0.16 -0.16)">
       <use xlink:href="#DejaVuSans-48"/>
       <use x="63.623047" xlink:href="#DejaVuSans-46"/>
       <use x="95.410156" xlink:href="#DejaVuSans-50"/>
      </g>
     </g>
    </g>
    <g id="ytick_3">
     <g id="line2d_21">
      <path clip-path="url(#p0a062cf736)" d="M 57.6 182.1312 
L 360.8064 182.1312 
" style="fill:none;stroke:#b0b0b0;stroke-linecap:square;stroke-width:0.8;"/>
     </g>
     <g id="line2d_22">
      <g>
       <use style="stroke:#000000;stroke-width:0.8;" x="57.6" xlink:href="#m9f4f94bb7e" y="182.1312"/>
      </g>
     </g>
     <g id="text_8">
      <!-- 0.4 -->
      <g transform="translate(25.155 188.20995)scale(0.16 -0.16)">
       <use xlink:href="#DejaVuSans-48"/>
       <use x="63.623047" xlink:href="#DejaVuSans-46"/>
       <use x="95.410156" xlink:href="#DejaVuSans-52"/>
      </g>
     </g>
    </g>
    <g id="ytick_4">
     <g id="line2d_23">
      <path clip-path="url(#p0a062cf736)" d="M 57.6 123.7248 
L 360.8064 123.7248 
" style="fill:none;stroke:#b0b0b0;stroke-linecap:square;stroke-width:0.8;"/>
     </g>
     <g id="line2d_24">
      <g>
       <use style="stroke:#000000;stroke-width:0.8;" x="57.6" xlink:href="#m9f4f94bb7e" y="123.7248"/>
      </g>
     </g>
     <g id="text_9">
      <!-- 0.6 -->
      <g transform="translate(25.155 129.80355)scale(0.16 -0.16)">
       <use xlink:href="#DejaVuSans-48"/>
       <use x="63.623047" xlink:href="#DejaVuSans-46"/>
       <use x="95.410156" xlink:href="#DejaVuSans-54"/>
      </g>
     </g>
    </g>
    <g id="ytick_5">
     <g id="line2d_25">
      <path clip-path="url(#p0a062cf736)" d="M 57.6 65.3184 
L 360.8064 65.3184 
" style="fill:none;stroke:#b0b0b0;stroke-linecap:square;stroke-width:0.8;"/>
     </g>
     <g id="line2d_26">
      <g>
       <use style="stroke:#000000;stroke-width:0.8;" x="57.6" xlink:href="#m9f4f94bb7e" y="65.3184"/>
      </g>
     </g>
     <g id="text_10">
      <!-- 0.8 -->
      <g transform="translate(25.155 71.39715)scale(0.16 -0.16)">
       <defs>
        <path d="M 31.78125 34.625 
Q 24.75 34.625 20.71875 30.859375 
Q 16.703125 27.09375 16.703125 20.515625 
Q 16.703125 13.921875 20.71875 10.15625 
Q 24.75 6.390625 31.78125 6.390625 
Q 38.8125 6.390625 42.859375 10.171875 
Q 46.921875 13.96875 46.921875 20.515625 
Q 46.921875 27.09375 42.890625 30.859375 
Q 38.875 34.625 31.78125 34.625 
z
M 21.921875 38.8125 
Q 15.578125 40.375 12.03125 44.71875 
Q 8.5 49.078125 8.5 55.328125 
Q 8.5 64.0625 14.71875 69.140625 
Q 20.953125 74.21875 31.78125 74.21875 
Q 42.671875 74.21875 48.875 69.140625 
Q 55.078125 64.0625 55.078125 55.328125 
Q 55.078125 49.078125 51.53125 44.71875 
Q 48 40.375 41.703125 38.8125 
Q 48.828125 37.15625 52.796875 32.3125 
Q 56.78125 27.484375 56.78125 20.515625 
Q 56.78125 9.90625 50.3125 4.234375 
Q 43.84375 -1.421875 31.78125 -1.421875 
Q 19.734375 -1.421875 13.25 4.234375 
Q 6.78125 9.90625 6.78125 20.515625 
Q 6.78125 27.484375 10.78125 32.3125 
Q 14.796875 37.15625 21.921875 38.8125 
z
M 18.3125 54.390625 
Q 18.3125 48.734375 21.84375 45.5625 
Q 25.390625 42.390625 31.78125 42.390625 
Q 38.140625 42.390625 41.71875 45.5625 
Q 45.3125 48.734375 45.3125 54.390625 
Q 45.3125 60.0625 41.71875 63.234375 
Q 38.140625 66.40625 31.78125 66.40625 
Q 25.390625 66.40625 21.84375 63.234375 
Q 18.3125 60.0625 18.3125 54.390625 
z
" id="DejaVuSans-56"/>
       </defs>
       <use xlink:href="#DejaVuSans-48"/>
       <use x="63.623047" xlink:href="#DejaVuSans-46"/>
       <use x="95.410156" xlink:href="#DejaVuSans-56"/>
      </g>
     </g>
    </g>
    <g id="ytick_6">
     <g id="line2d_27">
      <path clip-path="url(#p0a062cf736)" d="M 57.6 6.912 
L 360.8064 6.912 
" style="fill:none;stroke:#b0b0b0;stroke-linecap:square;stroke-width:0.8;"/>
     </g>
     <g id="line2d_28">
      <g>
       <use style="stroke:#000000;stroke-width:0.8;" x="57.6" xlink:href="#m9f4f94bb7e" y="6.912"/>
      </g>
     </g>
     <g id="text_11">
      <!-- 1.0 -->
      <g transform="translate(25.155 12.99075)scale(0.16 -0.16)">
       <use xlink:href="#DejaVuSans-49"/>
       <use x="63.623047" xlink:href="#DejaVuSans-46"/>
       <use x="95.410156" xlink:href="#DejaVuSans-48"/>
      </g>
     </g>
    </g>
    <g id="text_12">
     <!-- Fraction of function,target pairs -->
     <g transform="translate(17.619531 287.313)rotate(-90)scale(0.17 -0.17)">
      <defs>
       <path d="M 9.8125 72.90625 
L 51.703125 72.90625 
L 51.703125 64.59375 
L 19.671875 64.59375 
L 19.671875 43.109375 
L 48.578125 43.109375 
L 48.578125 34.8125 
L 19.671875 34.8125 
L 19.671875 0 
L 9.8125 0 
z
" id="DejaVuSans-70"/>
       <path d="M 41.109375 46.296875 
Q 39.59375 47.171875 37.8125 47.578125 
Q 36.03125 48 33.890625 48 
Q 26.265625 48 22.1875 43.046875 
Q 18.109375 38.09375 18.109375 28.8125 
L 18.109375 0 
L 9.078125 0 
L 9.078125 54.6875 
L 18.109375 54.6875 
L 18.109375 46.1875 
Q 20.953125 51.171875 25.484375 53.578125 
Q 30.03125 56 36.53125 56 
Q 37.453125 56 38.578125 55.875 
Q 39.703125 55.765625 41.0625 55.515625 
z
" id="DejaVuSans-114"/>
       <path d="M 48.78125 52.59375 
L 48.78125 44.1875 
Q 44.96875 46.296875 41.140625 47.34375 
Q 37.3125 48.390625 33.40625 48.390625 
Q 24.65625 48.390625 19.8125 42.84375 
Q 14.984375 37.3125 14.984375 27.296875 
Q 14.984375 17.28125 19.8125 11.734375 
Q 24.65625 6.203125 33.40625 6.203125 
Q 37.3125 6.203125 41.140625 7.25 
Q 44.96875 8.296875 48.78125 10.40625 
L 48.78125 2.09375 
Q 45.015625 0.34375 40.984375 -0.53125 
Q 36.96875 -1.421875 32.421875 -1.421875 
Q 20.0625 -1.421875 12.78125 6.34375 
Q 5.515625 14.109375 5.515625 27.296875 
Q 5.515625 40.671875 12.859375 48.328125 
Q 20.21875 56 33.015625 56 
Q 37.15625 56 41.109375 55.140625 
Q 45.0625 54.296875 48.78125 52.59375 
z
" id="DejaVuSans-99"/>
       <path d="M 18.3125 70.21875 
L 18.3125 54.6875 
L 36.8125 54.6875 
L 36.8125 47.703125 
L 18.3125 47.703125 
L 18.3125 18.015625 
Q 18.3125 11.328125 20.140625 9.421875 
Q 21.96875 7.515625 27.59375 7.515625 
L 36.8125 7.515625 
L 36.8125 0 
L 27.59375 0 
Q 17.1875 0 13.234375 3.875 
Q 9.28125 7.765625 9.28125 18.015625 
L 9.28125 47.703125 
L 2.6875 47.703125 
L 2.6875 54.6875 
L 9.28125 54.6875 
L 9.28125 70.21875 
z
" id="DejaVuSans-116"/>
       <path d="M 37.109375 75.984375 
L 37.109375 68.5 
L 28.515625 68.5 
Q 23.6875 68.5 21.796875 66.546875 
Q 19.921875 64.59375 19.921875 59.515625 
L 19.921875 54.6875 
L 34.71875 54.6875 
L 34.71875 47.703125 
L 19.921875 47.703125 
L 19.921875 0 
L 10.890625 0 
L 10.890625 47.703125 
L 2.296875 47.703125 
L 2.296875 54.6875 
L 10.890625 54.6875 
L 10.890625 58.5 
Q 10.890625 67.625 15.140625 71.796875 
Q 19.390625 75.984375 28.609375 75.984375 
z
" id="DejaVuSans-102"/>
       <path d="M 8.5 21.578125 
L 8.5 54.6875 
L 17.484375 54.6875 
L 17.484375 21.921875 
Q 17.484375 14.15625 20.5 10.265625 
Q 23.53125 6.390625 29.59375 6.390625 
Q 36.859375 6.390625 41.078125 11.03125 
Q 45.3125 15.671875 45.3125 23.6875 
L 45.3125 54.6875 
L 54.296875 54.6875 
L 54.296875 0 
L 45.3125 0 
L 45.3125 8.40625 
Q 42.046875 3.421875 37.71875 1 
Q 33.40625 -1.421875 27.6875 -1.421875 
Q 18.265625 -1.421875 13.375 4.4375 
Q 8.5 10.296875 8.5 21.578125 
z
M 31.109375 56 
z
" id="DejaVuSans-117"/>
       <path d="M 11.71875 12.40625 
L 22.015625 12.40625 
L 22.015625 4 
L 14.015625 -11.625 
L 7.71875 -11.625 
L 11.71875 4 
z
" id="DejaVuSans-44"/>
       <path d="M 18.109375 8.203125 
L 18.109375 -20.796875 
L 9.078125 -20.796875 
L 9.078125 54.6875 
L 18.109375 54.6875 
L 18.109375 46.390625 
Q 20.953125 51.265625 25.265625 53.625 
Q 29.59375 56 35.59375 56 
Q 45.5625 56 51.78125 48.09375 
Q 58.015625 40.1875 58.015625 27.296875 
Q 58.015625 14.40625 51.78125 6.484375 
Q 45.5625 -1.421875 35.59375 -1.421875 
Q 29.59375 -1.421875 25.265625 0.953125 
Q 20.953125 3.328125 18.109375 8.203125 
z
M 48.6875 27.296875 
Q 48.6875 37.203125 44.609375 42.84375 
Q 40.53125 48.484375 33.40625 48.484375 
Q 26.265625 48.484375 22.1875 42.84375 
Q 18.109375 37.203125 18.109375 27.296875 
Q 18.109375 17.390625 22.1875 11.75 
Q 26.265625 6.109375 33.40625 6.109375 
Q 40.53125 6.109375 44.609375 11.75 
Q 48.6875 17.390625 48.6875 27.296875 
z
" id="DejaVuSans-112"/>
      </defs>
      <use xlink:href="#DejaVuSans-70"/>
      <use x="50.269531" xlink:href="#DejaVuSans-114"/>
      <use x="91.382812" xlink:href="#DejaVuSans-97"/>
      <use x="152.662109" xlink:href="#DejaVuSans-99"/>
      <use x="207.642578" xlink:href="#DejaVuSans-116"/>
      <use x="246.851562" xlink:href="#DejaVuSans-105"/>
      <use x="274.634766" xlink:href="#DejaVuSans-111"/>
      <use x="335.816406" xlink:href="#DejaVuSans-110"/>
      <use x="399.195312" xlink:href="#DejaVuSans-32"/>
      <use x="430.982422" xlink:href="#DejaVuSans-111"/>
      <use x="492.164062" xlink:href="#DejaVuSans-102"/>
      <use x="527.369141" xlink:href="#DejaVuSans-32"/>
      <use x="559.15625" xlink:href="#DejaVuSans-102"/>
      <use x="594.361328" xlink:href="#DejaVuSans-117"/>
      <use x="657.740234" xlink:href="#DejaVuSans-110"/>
      <use x="721.119141" xlink:href="#DejaVuSans-99"/>
      <use x="776.099609" xlink:href="#DejaVuSans-116"/>
      <use x="815.308594" xlink:href="#DejaVuSans-105"/>
      <use x="843.091797" xlink:href="#DejaVuSans-111"/>
      <use x="904.273438" xlink:href="#DejaVuSans-110"/>
      <use x="967.652344" xlink:href="#DejaVuSans-44"/>
      <use x="999.439453" xlink:href="#DejaVuSans-116"/>
      <use x="1038.648438" xlink:href="#DejaVuSans-97"/>
      <use x="1099.927734" xlink:href="#DejaVuSans-114"/>
      <use x="1139.291016" xlink:href="#DejaVuSans-103"/>
      <use x="1202.767578" xlink:href="#DejaVuSans-101"/>
      <use x="1264.291016" xlink:href="#DejaVuSans-116"/>
      <use x="1303.5" xlink:href="#DejaVuSans-32"/>
      <use x="1335.287109" xlink:href="#DejaVuSans-112"/>
      <use x="1398.763672" xlink:href="#DejaVuSans-97"/>
      <use x="1460.042969" xlink:href="#DejaVuSans-105"/>
      <use x="1487.826172" xlink:href="#DejaVuSans-114"/>
      <use x="1528.939453" xlink:href="#DejaVuSans-115"/>
     </g>
    </g>
   </g>
   <g id="line2d_29">
    <defs>
     <path d="M 0 1.5 
C 0.397805 1.5 0.77937 1.341951 1.06066 1.06066 
C 1.341951 0.77937 1.5 0.397805 1.5 0 
C 1.5 -0.397805 1.341951 -0.77937 1.06066 -1.06066 
C 0.77937 -1.341951 0.397805 -1.5 0 -1.5 
C -0.397805 -1.5 -0.77937 -1.341951 -1.06066 -1.06066 
C -1.341951 -0.77937 -1.5 -0.397805 -1.5 0 
C -1.5 0.397805 -1.341951 0.77937 -1.06066 1.06066 
C -0.77937 1.341951 -0.397805 1.5 0 1.5 
z
" id="m8b33b4ee86" style="stroke:#000080;"/>
    </defs>
    <g>
     <use style="fill:#000080;stroke:#000080;" x="259.606894" xlink:href="#m8b33b4ee86" y="274.014439"/>
     <use style="fill:#000080;stroke:#000080;" x="259.606894" xlink:href="#m8b33b4ee86" y="274.014439"/>
    </g>
   </g>
   <g id="line2d_30">
    <path d="M 44.560826 298.944 
L 44.560826 298.706576 
L 89.668958 298.706576 
L 89.668958 298.469151 
L 130.618241 298.469151 
L 130.618241 298.231727 
L 134.463557 298.231727 
L 134.463557 297.994302 
L 136.555884 297.994302 
L 136.555884 297.756878 
L 138.438609 297.756878 
L 138.438609 297.519454 
L 140.14993 297.519454 
L 140.14993 297.282029 
L 141.718467 297.282029 
L 141.718467 297.044605 
L 141.932237 297.044605 
L 141.932237 296.569756 
L 144.136106 296.569756 
L 144.136106 296.332332 
L 145.415054 296.332332 
L 145.415054 295.857483 
L 146.27812 295.857483 
L 146.27812 295.620059 
L 147.423525 295.620059 
L 147.423525 295.14521 
L 148.048032 295.14521 
L 148.048032 294.907785 
L 148.652472 294.907785 
L 148.652472 294.670361 
L 148.947561 294.670361 
L 148.947561 294.432937 
L 150.492661 294.432937 
L 150.492661 293.958088 
L 150.62703 293.958088 
L 150.62703 293.720663 
L 151.155108 293.720663 
L 151.155108 293.483239 
L 151.920429 293.483239 
L 151.920429 293.245815 
L 152.045009 293.245815 
L 152.045009 293.00839 
L 152.16877 293.00839 
L 152.16877 292.770966 
L 157.962102 292.770966 
L 157.962102 292.533541 
L 159.359426 292.533541 
L 159.359426 292.296117 
L 159.857774 292.296117 
L 159.857774 292.058693 
L 160.660094 292.058693 
L 160.660094 291.583844 
L 177.233457 291.583844 
L 177.233457 291.34642 
L 177.778757 291.34642 
L 177.778757 291.108995 
L 178.794182 291.108995 
L 178.794182 290.871571 
L 179.179617 290.871571 
L 179.179617 290.634146 
L 179.899351 290.634146 
L 179.899351 290.396722 
L 182.033257 290.396722 
L 182.033257 290.159298 
L 182.530946 290.159298 
L 182.555488 289.684449 
L 182.677721 289.684449 
L 182.677721 289.447024 
L 182.895758 289.447024 
L 182.895758 289.2096 
L 183.182598 289.2096 
L 183.277247 288.734751 
L 184.466222 288.734751 
L 184.466222 288.497327 
L 185.956604 288.497327 
L 185.956604 288.259902 
L 190.523186 288.259902 
L 190.523186 288.022478 
L 190.810026 288.022478 
L 190.810026 287.785054 
L 191.278582 287.785054 
L 191.278582 287.547629 
L 193.044149 287.547629 
L 193.044149 287.310205 
L 193.309105 287.310205 
L 193.419559 286.835356 
L 193.908727 286.835356 
L 193.908727 286.597932 
L 194.122118 286.597932 
L 194.148623 286.123083 
L 194.850482 286.123083 
L 194.850482 285.885659 
L 195.3167 285.885659 
L 195.3167 285.648234 
L 196.463365 285.648234 
L 196.463365 285.41081 
L 198.62367 285.41081 
L 198.62367 285.173385 
L 199.097849 285.173385 
L 199.097849 284.935961 
L 199.787433 284.935961 
L 199.787433 284.698537 
L 200.367188 284.698537 
L 200.367188 284.461112 
L 204.104449 284.461112 
L 204.104449 284.223688 
L 204.725932 284.223688 
L 204.725932 283.986263 
L 205.017996 283.986263 
L 205.017996 283.748839 
L 205.761085 283.748839 
L 205.761085 283.511415 
L 206.009449 283.511415 
L 206.009449 283.27399 
L 206.156909 283.27399 
L 206.156909 283.036566 
L 206.681115 283.036566 
L 206.681115 282.799141 
L 207.800139 282.799141 
L 207.800139 282.561717 
L 208.479921 282.561717 
L 208.479921 282.324293 
L 208.822961 282.324293 
L 208.822961 282.086868 
L 209.769952 282.086868 
L 209.769952 281.849444 
L 210.824977 281.849444 
L 210.824977 281.61202 
L 211.539781 281.61202 
L 211.539781 281.374595 
L 212.037511 281.374595 
L 212.037511 281.137171 
L 214.311943 281.137171 
L 214.311943 280.899746 
L 214.577565 280.899746 
L 214.577565 280.662322 
L 215.097815 280.662322 
L 215.097815 280.424898 
L 217.977117 280.424898 
L 217.977117 280.187473 
L 219.404755 280.187473 
L 219.404755 279.950049 
L 219.740685 279.950049 
L 219.740685 279.712624 
L 219.977014 279.712624 
L 219.977014 279.4752 
L 220.486718 279.4752 
L 220.486718 279.237776 
L 220.720364 279.237776 
L 220.720364 279.000351 
L 221.183848 279.000351 
L 221.259214 278.288078 
L 221.869722 278.288078 
L 221.869722 278.050654 
L 222.832201 278.050654 
L 222.832201 277.813229 
L 223.666653 277.813229 
L 223.666653 277.575805 
L 223.993319 277.575805 
L 223.993319 277.33838 
L 225.021601 277.33838 
L 225.021601 277.100956 
L 225.520402 277.100956 
L 225.520402 276.863532 
L 225.711826 276.863532 
L 225.711826 276.626107 
L 226.214571 276.626107 
L 226.214571 276.388683 
L 226.376425 276.388683 
L 226.376425 276.151259 
L 226.496612 276.151259 
L 226.496612 275.913834 
L 229.173293 275.913834 
L 229.173293 275.67641 
L 234.323443 275.67641 
L 234.323443 275.438985 
L 234.982324 275.438985 
L 234.982324 275.201561 
L 235.958371 275.201561 
L 235.958371 274.964137 
L 243.949759 274.964137 
L 243.949759 274.726712 
L 247.111743 274.726712 
L 247.111743 274.489288 
L 256.401766 274.489288 
L 256.401766 274.251863 
L 259.606894 274.251863 
L 259.606894 274.014439 
L 360.8064 274.014439 
L 360.8064 274.014439 
" style="fill:none;stroke:#000080;stroke-linecap:square;stroke-width:1.5;"/>
   </g>
   <g id="line2d_31">
    <defs>
     <path d="M 0 6 
C 1.591219 6 3.117479 5.367802 4.242641 4.242641 
C 5.367802 3.117479 6 1.591219 6 0 
C 6 -1.591219 5.367802 -3.117479 4.242641 -4.242641 
C 3.117479 -5.367802 1.591219 -6 0 -6 
C -1.591219 -6 -3.117479 -5.367802 -4.242641 -4.242641 
C -5.367802 -3.117479 -6 -1.591219 -6 0 
C -6 1.591219 -5.367802 3.117479 -4.242641 4.242641 
C -3.117479 5.367802 -1.591219 6 0 6 
z
" id="md1701903bf" style="stroke:#000080;stroke-width:1.5;"/>
    </defs>
    <g>
     <use style="fill-opacity:0;stroke:#000080;stroke-width:1.5;" x="89.668958" xlink:href="#md1701903bf" y="298.469151"/>
     <use style="fill-opacity:0;stroke:#000080;stroke-width:1.5;" x="178.794182" xlink:href="#md1701903bf" y="291.108995"/>
     <use style="fill-opacity:0;stroke:#000080;stroke-width:1.5;" x="214.577565" xlink:href="#md1701903bf" y="280.899746"/>
     <use style="fill-opacity:0;stroke:#000080;stroke-width:1.5;" x="259.606894" xlink:href="#md1701903bf" y="274.251863"/>
     <use style="fill-opacity:0;stroke:#000080;stroke-width:1.5;" x="259.606894" xlink:href="#md1701903bf" y="274.014439"/>
     <use style="fill-opacity:0;stroke:#000080;stroke-width:1.5;" x="360.8064" xlink:href="#md1701903bf" y="274.014439"/>
    </g>
   </g>
   <g id="line2d_32">
    <path style="fill:none;stroke:#000080;stroke-linecap:square;stroke-width:1.5;"/>
    <g/>
   </g>
   <g id="line2d_33">
    <path clip-path="url(#p0a062cf736)" d="M 177.794559 291.108995 
" style="fill:none;stroke:#000080;stroke-linecap:square;stroke-width:1.5;"/>
    <defs>
     <path d="M -12 12 
L 12 -12 
M -12 -12 
L 12 12 
" id="m94f0cffdda" style="stroke:#000080;"/>
    </defs>
    <g clip-path="url(#p0a062cf736)">
     <use style="fill:#000080;stroke:#000080;" x="177.794559" xlink:href="#m94f0cffdda" y="291.108995"/>
    </g>
   </g>
   <g id="line2d_34">
    <defs>
     <path d="M 0 1.5 
C 0.397805 1.5 0.77937 1.341951 1.06066 1.06066 
C 1.341951 0.77937 1.5 0.397805 1.5 0 
C 1.5 -0.397805 1.341951 -0.77937 1.06066 -1.06066 
C 0.77937 -1.341951 0.397805 -1.5 0 -1.5 
C -0.397805 -1.5 -0.77937 -1.341951 -1.06066 -1.06066 
C -1.341951 -0.77937 -1.5 -0.397805 -1.5 0 
C -1.5 0.397805 -1.341951 0.77937 -1.06066 1.06066 
C -0.77937 1.341951 -0.397805 1.5 0 1.5 
z
" id="me7f1301dde" style="stroke:#ff00ff;"/>
    </defs>
    <g>
     <use style="fill:#ff00ff;stroke:#ff00ff;" x="291.770757" xlink:href="#me7f1301dde" y="6.912"/>
     <use style="fill:#ff00ff;stroke:#ff00ff;" x="291.770757" xlink:href="#me7f1301dde" y="6.912"/>
    </g>
   </g>
   <g id="line2d_35">
    <path d="M 44.560826 298.944 
L 44.560826 298.706576 
L 144.694906 298.706576 
L 144.694906 298.469151 
L 145.415054 298.469151 
L 145.415054 298.231727 
L 146.446082 298.231727 
L 146.446082 297.994302 
L 146.941151 297.994302 
L 146.941151 297.756878 
L 149.381693 297.756878 
L 149.381693 297.282029 
L 151.024471 297.282029 
L 151.024471 297.044605 
L 152.045009 297.044605 
L 152.045009 295.620059 
L 153.707679 295.620059 
L 153.707679 294.670361 
L 154.267588 294.670361 
L 154.267588 294.432937 
L 156.84148 294.432937 
L 156.84148 293.958088 
L 157.222487 293.958088 
L 157.316545 293.245815 
L 157.595929 293.245815 
L 157.595929 293.00839 
L 158.760826 293.00839 
L 158.760826 292.533541 
L 159.939564 292.533541 
L 159.939564 292.296117 
L 160.738476 292.296117 
L 160.816532 291.34642 
L 161.728786 291.34642 
L 161.728786 291.108995 
L 162.096211 291.108995 
L 162.168843 290.634146 
L 162.38507 290.634146 
L 162.38507 289.447024 
L 163.498092 289.447024 
L 163.498092 288.972176 
L 163.632702 288.972176 
L 163.632702 288.259902 
L 164.612692 288.259902 
L 164.612692 288.022478 
L 165.053116 288.022478 
L 165.053116 287.785054 
L 165.238758 287.785054 
L 165.238758 287.547629 
L 165.725029 287.547629 
L 165.725029 287.310205 
L 166.373767 287.310205 
L 166.431649 286.597932 
L 167.000877 286.597932 
L 167.000877 286.360507 
L 167.769923 286.360507 
L 167.769923 286.123083 
L 168.248209 286.123083 
L 168.248209 285.885659 
L 169.614163 285.885659 
L 169.662898 284.935961 
L 170.190808 284.935961 
L 170.28522 283.748839 
L 170.425955 283.748839 
L 170.425955 283.036566 
L 170.61198 283.036566 
L 170.61198 282.561717 
L 171.023928 282.561717 
L 171.023928 282.324293 
L 171.47131 282.324293 
L 171.47131 281.849444 
L 172.165703 281.849444 
L 172.165703 281.374595 
L 172.335368 281.374595 
L 172.335368 281.137171 
L 172.461621 281.137171 
L 172.461621 280.899746 
L 172.587032 280.899746 
L 172.587032 280.424898 
L 172.835373 280.424898 
L 172.835373 279.712624 
L 173.60083 279.712624 
L 173.60083 279.4752 
L 173.758086 279.4752 
L 173.758086 279.237776 
L 174.068707 279.237776 
L 174.068707 279.000351 
L 174.412132 279.000351 
L 174.487605 278.288078 
L 175.761601 278.288078 
L 175.796762 276.151259 
L 176.316452 276.151259 
L 176.316452 275.913834 
L 176.822169 275.913834 
L 176.822169 275.67641 
L 177.1192 275.67641 
L 177.151915 274.964137 
L 177.379346 274.964137 
L 177.379346 274.726712 
L 178.354746 274.726712 
L 178.354746 274.489288 
L 178.476998 274.489288 
L 178.568169 273.53959 
L 178.779198 273.53959 
L 178.779198 273.302166 
L 179.07662 273.302166 
L 179.07662 273.064741 
L 179.456369 273.064741 
L 179.456369 272.352468 
L 180.578943 272.352468 
L 180.578943 271.640195 
L 180.822549 271.640195 
L 180.849423 270.453073 
L 181.036471 270.453073 
L 181.036471 269.503376 
L 181.431133 269.503376 
L 181.431133 269.265951 
L 182.020644 269.265951 
L 182.071044 267.366556 
L 182.321035 267.366556 
L 182.321035 267.129132 
L 183.099387 267.129132 
L 183.099387 266.891707 
L 183.312619 266.891707 
L 183.406618 266.416859 
L 183.616414 266.416859 
L 183.616414 265.229737 
L 184.142166 265.229737 
L 184.142166 264.517463 
L 185.108763 264.517463 
L 185.215526 264.042615 
L 185.300502 264.042615 
L 185.300502 263.80519 
L 185.532226 263.80519 
L 185.532226 263.330341 
L 186.57079 263.330341 
L 186.57079 262.618068 
L 187.059683 262.618068 
L 187.155956 261.430946 
L 188.346604 261.430946 
L 188.346604 260.718673 
L 188.879797 260.718673 
L 188.879797 260.243824 
L 189.019466 260.243824 
L 189.019466 259.768976 
L 189.601754 259.768976 
L 189.601754 259.531551 
L 190.474951 259.531551 
L 190.474951 258.819278 
L 191.645201 258.819278 
L 191.645201 258.344429 
L 191.975105 258.344429 
L 191.975105 257.632156 
L 193.419559 257.632156 
L 193.419559 257.394732 
L 193.733547 257.394732 
L 193.733547 257.157307 
L 194.108852 257.157307 
L 194.108852 256.919883 
L 194.502826 256.919883 
L 194.502826 256.682459 
L 195.600793 256.682459 
L 195.600793 256.445034 
L 197.051274 256.445034 
L 197.051274 255.970185 
L 197.709243 255.970185 
L 197.7202 255.495337 
L 198.131871 255.495337 
L 198.131871 255.257912 
L 198.492724 255.257912 
L 198.492724 255.020488 
L 198.908581 255.020488 
L 198.908581 254.783063 
L 199.20443 254.783063 
L 199.20443 254.545639 
L 199.614917 254.545639 
L 199.614917 254.308215 
L 199.958382 254.308215 
L 200.065046 253.833366 
L 200.219121 253.833366 
L 200.219121 253.595941 
L 200.485754 253.595941 
L 200.485754 253.358517 
L 200.804522 253.358517 
L 200.869485 252.646244 
L 201.172756 252.646244 
L 201.236462 251.696546 
L 201.516025 251.696546 
L 201.516025 251.221698 
L 201.791495 251.221698 
L 201.791495 249.797151 
L 201.98457 249.797151 
L 202.010746 249.322302 
L 202.115086 249.322302 
L 202.201596 247.422907 
L 202.433205 247.422907 
L 202.526752 246.47321 
L 202.796275 246.47321 
L 202.796275 245.523512 
L 203.037239 245.523512 
L 203.037239 244.33639 
L 203.267002 244.33639 
L 203.267002 243.861541 
L 203.388944 243.861541 
L 203.388944 243.624117 
L 203.781868 243.624117 
L 203.892641 241.962146 
L 204.049765 241.962146 
L 204.049765 241.724722 
L 204.275288 241.724722 
L 204.275288 240.775024 
L 204.413921 240.775024 
L 204.421592 240.062751 
L 205.290953 240.062751 
L 205.327537 239.587902 
L 205.451393 239.587902 
L 205.487667 239.113054 
L 205.718177 239.113054 
L 205.718177 238.40078 
L 205.974169 238.40078 
L 206.079812 237.688507 
L 206.177881 237.688507 
L 206.177881 237.451083 
L 206.434627 237.451083 
L 206.434627 237.213659 
L 206.606141 237.213659 
L 206.687916 236.73881 
L 206.742235 236.73881 
L 206.769336 234.364566 
L 206.863884 234.364566 
L 206.97136 233.652293 
L 207.296735 233.652293 
L 207.296735 233.177444 
L 207.4606 233.177444 
L 207.506227 232.227746 
L 207.674739 232.227746 
L 207.726286 230.328351 
L 208.032639 230.328351 
L 208.108453 229.853502 
L 208.183964 229.853502 
L 208.290421 227.954107 
L 208.346538 227.954107 
L 208.371425 227.241834 
L 208.74693 227.241834 
L 208.832064 225.342439 
L 208.910773 225.342439 
L 209.007197 224.392741 
L 209.138977 224.392741 
L 209.222359 222.730771 
L 209.293536 222.730771 
L 209.293536 222.493346 
L 209.435088 222.493346 
L 209.435088 222.255922 
L 209.575583 222.255922 
L 209.575583 222.018498 
L 209.738178 222.018498 
L 209.743959 220.356527 
L 209.968045 220.356527 
L 209.996582 219.169405 
L 210.20078 219.169405 
L 210.268357 218.457132 
L 210.341292 218.457132 
L 210.408366 217.032585 
L 210.469641 217.032585 
L 210.563949 215.845463 
L 210.652279 215.845463 
L 210.652279 215.608039 
L 210.811328 215.608039 
L 210.920239 215.13319 
L 211.028523 215.13319 
L 211.071662 213.946068 
L 211.163007 213.946068 
L 211.20584 210.622127 
L 211.52927 210.622127 
L 211.52927 209.909854 
L 211.727977 209.909854 
L 211.816197 207.53561 
L 211.867898 207.53561 
L 211.976011 206.585912 
L 212.017034 206.585912 
L 212.017034 206.111063 
L 212.164996 206.111063 
L 212.225883 204.923941 
L 212.562261 204.923941 
L 212.606991 203.974244 
L 212.701074 203.974244 
L 212.701074 202.787122 
L 212.833966 202.787122 
L 212.833966 201.362576 
L 213.14527 201.362576 
L 213.217492 199.46318 
L 213.437262 199.46318 
L 213.437262 198.276059 
L 213.734143 198.276059 
L 213.808802 196.614088 
L 213.873886 196.614088 
L 213.873886 196.376663 
L 214.040218 196.376663 
L 214.14572 195.426966 
L 214.713421 195.426966 
L 214.7356 194.477268 
L 214.837284 194.477268 
L 214.894515 193.052722 
L 215.073883 193.052722 
L 215.113028 192.577873 
L 215.303242 192.577873 
L 215.303242 192.340449 
L 215.414744 192.340449 
L 215.414744 191.8656 
L 215.542583 191.8656 
L 215.601946 190.915902 
L 215.900148 190.915902 
L 215.900148 190.678478 
L 216.17728 190.678478 
L 216.17728 190.203629 
L 216.417987 190.203629 
L 216.417987 189.491356 
L 216.80715 189.491356 
L 216.850778 188.304234 
L 218.229152 188.304234 
L 218.306309 187.829385 
L 218.350257 187.829385 
L 218.350257 187.591961 
L 218.477855 187.591961 
L 218.5757 185.92999 
L 218.780605 185.92999 
L 218.891115 183.793171 
L 218.944355 183.793171 
L 218.944355 183.555746 
L 219.271124 183.555746 
L 219.271124 183.318322 
L 219.674318 183.318322 
L 219.674318 183.080898 
L 219.833883 183.080898 
L 219.884524 182.1312 
L 220.162301 182.1312 
L 220.245172 181.181502 
L 220.30791 181.181502 
L 220.406546 179.99438 
L 220.641185 179.99438 
L 220.734871 177.145288 
L 220.767069 177.145288 
L 220.767069 176.907863 
L 220.994102 176.907863 
L 220.994102 176.670439 
L 221.34052 176.670439 
L 221.44011 176.19559 
L 221.486612 176.19559 
L 221.486612 175.720741 
L 221.671479 175.720741 
L 221.671479 174.058771 
L 221.987672 174.058771 
L 222.026825 171.209678 
L 222.191577 171.209678 
L 222.191577 170.734829 
L 222.431614 170.734829 
L 222.431614 170.497405 
L 222.630789 170.497405 
L 222.654083 169.547707 
L 223.054283 169.547707 
L 223.125366 167.648312 
L 223.224434 167.648312 
L 223.325791 166.223766 
L 223.342631 166.223766 
L 223.342631 165.986341 
L 223.510206 165.986341 
L 223.5879 163.137249 
L 223.668031 163.137249 
L 223.668031 162.899824 
L 223.780742 162.899824 
L 223.780742 162.424976 
L 223.971627 162.424976 
L 223.996029 161.950127 
L 224.249025 161.950127 
L 224.297085 161.237854 
L 224.530294 161.237854 
L 224.63535 160.763005 
L 224.747635 160.763005 
L 224.825578 160.050732 
L 225.013902 160.050732 
L 225.013902 159.813307 
L 225.372397 159.813307 
L 225.372397 158.626185 
L 225.577785 158.626185 
L 225.577785 158.388761 
L 225.72666 158.388761 
L 225.795734 156.964215 
L 226.151853 156.964215 
L 226.151853 156.489366 
L 226.619571 156.489366 
L 226.619571 156.251941 
L 226.748756 156.251941 
L 226.748756 156.014517 
L 226.955939 156.014517 
L 227.036794 155.06482 
L 227.080542 155.06482 
L 227.080542 154.589971 
L 228.055278 154.589971 
L 228.055278 154.352546 
L 229.795629 154.352546 
L 229.795629 153.877698 
L 230.082094 153.877698 
L 230.082094 153.402849 
L 230.224681 153.402849 
L 230.224681 153.165424 
L 230.846686 153.165424 
L 230.876783 151.740878 
L 231.684325 151.740878 
L 231.74724 150.316332 
L 232.772213 150.316332 
L 232.818041 149.604059 
L 233.164065 149.604059 
L 233.164065 149.366634 
L 233.572365 149.366634 
L 233.572365 149.12921 
L 234.184438 149.12921 
L 234.247392 146.517541 
L 234.577578 146.517541 
L 234.577578 146.042693 
L 234.991388 146.042693 
L 234.991388 145.567844 
L 235.164276 145.567844 
L 235.164276 144.380722 
L 235.521515 144.380722 
L 235.631319 143.905873 
L 235.676518 143.905873 
L 235.752092 143.431024 
L 235.956936 143.431024 
L 235.956936 143.1936 
L 236.168088 143.1936 
L 236.168088 142.718751 
L 236.562583 142.718751 
L 236.654053 141.05678 
L 236.910828 141.05678 
L 236.992478 140.581932 
L 237.12778 140.581932 
L 237.12778 140.344507 
L 237.323589 140.344507 
L 237.323589 140.107083 
L 237.713117 140.107083 
L 237.713117 139.869659 
L 237.900369 139.869659 
L 237.900369 139.632234 
L 238.219825 139.632234 
L 238.295998 138.919961 
L 238.394565 138.919961 
L 238.394565 138.207688 
L 239.043666 138.207688 
L 239.043666 136.545717 
L 239.666404 136.545717 
L 239.759234 135.59602 
L 240.063862 135.59602 
L 240.063862 135.121171 
L 240.272608 135.121171 
L 240.306795 134.408898 
L 240.518507 134.408898 
L 240.529761 133.221776 
L 240.888607 133.221776 
L 240.888607 132.984351 
L 241.070963 132.984351 
L 241.091722 132.509502 
L 241.391804 132.509502 
L 241.479726 131.559805 
L 241.581076 131.559805 
L 241.61934 130.610107 
L 241.981101 130.610107 
L 242.073575 128.948137 
L 242.129461 128.948137 
L 242.129461 128.235863 
L 242.397264 128.235863 
L 242.397264 127.998439 
L 242.520136 127.998439 
L 242.520136 127.761015 
L 242.739504 127.761015 
L 242.844257 126.573893 
L 242.864144 126.573893 
L 242.957332 125.624195 
L 243.066782 125.624195 
L 243.150166 124.911922 
L 243.273096 124.911922 
L 243.374927 122.775102 
L 243.397159 122.775102 
L 243.505048 121.825405 
L 243.666681 121.825405 
L 243.76262 120.875707 
L 243.793861 120.875707 
L 243.891978 119.92601 
L 244.154551 119.92601 
L 244.265575 117.78919 
L 244.335553 117.78919 
L 244.335553 117.551766 
L 244.563923 117.551766 
L 244.668953 116.839493 
L 244.678882 116.839493 
L 244.741946 116.12722 
L 244.967242 116.12722 
L 245.075353 115.414946 
L 245.092134 115.414946 
L 245.201286 112.565854 
L 245.391661 112.565854 
L 245.391661 112.328429 
L 245.531894 112.328429 
L 245.531894 111.616156 
L 245.662527 111.616156 
L 245.663384 111.141307 
L 245.898281 111.141307 
L 246.007913 109.954185 
L 246.03816 109.954185 
L 246.101019 109.479337 
L 246.184506 109.479337 
L 246.184506 109.004488 
L 246.376779 109.004488 
L 246.425364 108.529639 
L 246.491043 108.529639 
L 246.561393 107.105093 
L 246.842603 107.105093 
L 246.842603 106.867668 
L 246.993221 106.867668 
L 246.994817 105.917971 
L 247.290887 105.917971 
L 247.290887 104.730849 
L 247.476898 104.730849 
L 247.476898 104.493424 
L 247.734875 104.493424 
L 247.839677 103.781151 
L 247.953758 103.781151 
L 247.988605 103.068878 
L 248.246425 103.068878 
L 248.311262 102.356605 
L 248.514012 102.356605 
L 248.622624 100.694634 
L 248.778571 100.694634 
L 248.790179 100.219785 
L 248.928917 100.219785 
L 249.030871 98.795239 
L 249.234553 98.795239 
L 249.234553 98.557815 
L 249.460565 98.557815 
L 249.460565 98.32039 
L 249.588208 98.32039 
L 249.588208 98.082966 
L 249.862174 98.082966 
L 249.862174 97.845541 
L 250.061164 97.845541 
L 250.061164 97.608117 
L 250.298947 97.608117 
L 250.298947 96.895844 
L 250.838672 96.895844 
L 250.900362 96.183571 
L 251.067528 96.183571 
L 251.067528 95.708722 
L 251.34119 95.708722 
L 251.34119 95.471298 
L 251.645232 95.471298 
L 251.750868 94.759024 
L 252.403072 94.759024 
L 252.403072 94.284176 
L 252.669321 94.284176 
L 252.74353 93.809327 
L 252.953955 93.809327 
L 253.053089 93.097054 
L 253.312068 93.097054 
L 253.312068 92.859629 
L 253.968856 92.859629 
L 254.070466 92.38478 
L 254.369349 92.38478 
L 254.369349 92.147356 
L 254.721321 92.147356 
L 254.721321 91.435083 
L 254.918708 91.435083 
L 254.918708 90.960234 
L 255.610103 90.960234 
L 255.610103 90.485385 
L 255.865266 90.485385 
L 255.865266 90.247961 
L 256.348459 90.247961 
L 256.348459 89.535688 
L 258.032393 89.535688 
L 258.032393 89.298263 
L 258.839725 89.298263 
L 258.839725 88.823415 
L 261.24225 88.823415 
L 261.34932 86.211746 
L 261.357502 86.211746 
L 261.467247 83.600078 
L 261.471313 83.600078 
L 261.575988 81.700683 
L 261.58297 81.700683 
L 261.67204 80.513561 
L 261.792329 80.513561 
L 261.894153 79.801288 
L 261.909325 79.801288 
L 262.017343 77.664468 
L 262.029904 77.664468 
L 262.116174 76.477346 
L 262.214133 76.477346 
L 262.324658 72.678556 
L 262.33737 72.678556 
L 262.434187 69.354615 
L 262.448579 69.354615 
L 262.557041 65.555824 
L 262.56611 65.555824 
L 262.670431 61.282185 
L 262.704731 61.282185 
L 262.746568 60.332488 
L 262.823429 60.332488 
L 262.88387 59.38279 
L 263.016093 59.38279 
L 263.088811 58.195668 
L 263.13454 58.195668 
L 263.232736 56.058849 
L 263.310657 56.058849 
L 263.415941 53.44718 
L 263.47285 53.44718 
L 263.577894 51.78521 
L 263.584171 51.78521 
L 263.688597 50.835512 
L 263.736497 50.835512 
L 263.823456 49.410966 
L 263.850182 49.410966 
L 263.850182 49.173541 
L 263.988096 49.173541 
L 263.99036 48.698693 
L 264.147782 48.698693 
L 264.215304 47.98642 
L 264.760276 47.98642 
L 264.773615 47.274146 
L 264.952308 47.274146 
L 264.990357 46.561873 
L 265.187955 46.561873 
L 265.223412 45.612176 
L 265.388602 45.612176 
L 265.398503 45.137327 
L 265.689898 45.137327 
L 265.689898 44.899902 
L 266.035514 44.899902 
L 266.035514 44.662478 
L 266.19289 44.662478 
L 266.226504 43.71278 
L 266.375179 43.71278 
L 266.375179 43.475356 
L 266.552334 43.475356 
L 266.587565 42.763083 
L 266.807046 42.763083 
L 266.83041 42.288234 
L 267.00087 42.288234 
L 267.00087 42.05081 
L 267.135915 42.05081 
L 267.225137 41.575961 
L 267.276242 41.575961 
L 267.373447 40.151415 
L 267.388565 40.151415 
L 267.388565 39.91399 
L 267.561284 39.91399 
L 267.60535 39.201717 
L 267.707773 39.201717 
L 267.707773 38.964293 
L 267.94374 38.964293 
L 267.989273 38.25202 
L 268.075848 38.25202 
L 268.151665 37.064898 
L 268.279495 37.064898 
L 268.370384 36.590049 
L 268.424094 36.590049 
L 268.519879 36.1152 
L 268.624025 36.1152 
L 268.624025 35.877776 
L 268.924347 35.877776 
L 268.924347 35.640351 
L 269.394184 35.640351 
L 269.394184 35.402927 
L 269.547583 35.402927 
L 269.547583 35.165502 
L 269.678489 35.165502 
L 269.76597 34.215805 
L 270.081503 34.215805 
L 270.081503 33.97838 
L 270.991748 33.97838 
L 270.991748 33.740956 
L 271.234378 33.740956 
L 271.341412 33.028683 
L 271.829524 33.028683 
L 271.829524 32.791259 
L 272.787759 32.791259 
L 272.787759 32.553834 
L 274.313666 32.553834 
L 274.421481 31.366712 
L 274.500783 31.366712 
L 274.576806 30.17959 
L 274.623522 30.17959 
L 274.633256 29.704741 
L 274.81269 29.704741 
L 274.915702 27.093073 
L 274.925646 27.093073 
L 275.036491 24.956254 
L 275.159009 24.956254 
L 275.26991 24.006556 
L 275.274524 24.006556 
L 275.345899 22.819434 
L 275.386689 22.819434 
L 275.460452 20.920039 
L 275.530601 20.920039 
L 275.530601 20.682615 
L 275.68384 20.682615 
L 275.773045 19.970341 
L 275.880911 19.970341 
L 275.880911 19.732917 
L 276.055182 19.732917 
L 276.09973 19.258068 
L 276.198481 19.258068 
L 276.292178 18.545795 
L 276.365662 18.545795 
L 276.365662 18.308371 
L 277.11187 18.308371 
L 277.145636 17.596098 
L 277.35793 17.596098 
L 277.380313 17.121249 
L 277.610062 17.121249 
L 277.706359 16.171551 
L 277.738608 16.171551 
L 277.751057 15.696702 
L 277.888841 15.696702 
L 277.927407 15.221854 
L 278.349206 15.221854 
L 278.349206 14.984429 
L 278.489574 14.984429 
L 278.511249 14.50958 
L 278.679017 14.50958 
L 278.679017 14.272156 
L 279.716423 14.272156 
L 279.716423 14.034732 
L 281.899872 14.034732 
L 281.999175 12.372761 
L 282.229722 12.372761 
L 282.296543 11.660488 
L 282.402164 11.660488 
L 282.507678 11.185639 
L 282.531702 11.185639 
L 282.531702 10.948215 
L 283.34443 10.948215 
L 283.388979 10.473366 
L 283.953112 10.473366 
L 283.953112 10.235941 
L 284.227746 10.235941 
L 284.227746 9.998517 
L 285.18892 9.998517 
L 285.18892 9.761093 
L 287.376962 9.761093 
L 287.376962 9.523668 
L 287.592533 9.523668 
L 287.674679 8.099122 
L 287.748149 8.099122 
L 287.808853 7.624273 
L 288.355131 7.624273 
L 288.460625 7.149424 
L 291.770757 7.149424 
L 291.770757 6.912 
L 360.8064 6.912 
L 360.8064 6.912 
" style="fill:none;stroke:#ff00ff;stroke-linecap:square;stroke-width:1.5;"/>
   </g>
   <g id="line2d_36">
    <defs>
     <path d="M -0 8.485281 
L 5.091169 0 
L 0 -8.485281 
L -5.091169 -0 
z
" id="m7712d88086" style="stroke:#ff00ff;stroke-linejoin:miter;stroke-width:1.5;"/>
    </defs>
    <g>
     <use style="fill-opacity:0;stroke:#ff00ff;stroke-linejoin:miter;stroke-width:1.5;" x="157.595929" xlink:href="#m7712d88086" y="293.00839"/>
     <use style="fill-opacity:0;stroke:#ff00ff;stroke-linejoin:miter;stroke-width:1.5;" x="220.641185" xlink:href="#m7712d88086" y="179.99438"/>
     <use style="fill-opacity:0;stroke:#ff00ff;stroke-linejoin:miter;stroke-width:1.5;" x="262.88387" xlink:href="#m7712d88086" y="59.38279"/>
     <use style="fill-opacity:0;stroke:#ff00ff;stroke-linejoin:miter;stroke-width:1.5;" x="291.770757" xlink:href="#m7712d88086" y="6.912"/>
     <use style="fill-opacity:0;stroke:#ff00ff;stroke-linejoin:miter;stroke-width:1.5;" x="291.770757" xlink:href="#m7712d88086" y="6.912"/>
     <use style="fill-opacity:0;stroke:#ff00ff;stroke-linejoin:miter;stroke-width:1.5;" x="360.8064" xlink:href="#m7712d88086" y="6.912"/>
    </g>
   </g>
   <g id="line2d_37">
    <path style="fill:none;stroke:#ff00ff;stroke-linecap:square;stroke-width:1.5;"/>
    <g/>
   </g>
   <g id="line2d_38">
    <path clip-path="url(#p0a062cf736)" d="M 261.191863 88.823415 
" style="fill:none;stroke:#ff00ff;stroke-linecap:square;stroke-width:1.5;"/>
    <defs>
     <path d="M -12 12 
L 12 -12 
M -12 -12 
L 12 12 
" id="mcb95a2907a" style="stroke:#ff00ff;"/>
    </defs>
    <g clip-path="url(#p0a062cf736)">
     <use style="fill:#ff00ff;stroke:#ff00ff;" x="261.191863" xlink:href="#mcb95a2907a" y="88.823415"/>
    </g>
   </g>
   <g id="line2d_39">
    <path d="M 360.8064 274.014439 
L 380.514816 293.10336 
" style="fill:none;stroke:#000080;stroke-linecap:square;stroke-width:1.5;"/>
    <g>
     <use style="fill-opacity:0;stroke:#000080;stroke-width:1.5;" x="360.8064" xlink:href="#md1701903bf" y="274.014439"/>
     <use style="fill-opacity:0;stroke:#000080;stroke-width:1.5;" x="380.514816" xlink:href="#md1701903bf" y="293.10336"/>
    </g>
   </g>
   <g id="line2d_40">
    <path d="M 360.8064 6.912 
L 380.514816 12.75264 
" style="fill:none;stroke:#ff00ff;stroke-linecap:square;stroke-width:1.5;"/>
    <g>
     <use style="fill-opacity:0;stroke:#ff00ff;stroke-linejoin:miter;stroke-width:1.5;" x="360.8064" xlink:href="#m7712d88086" y="6.912"/>
     <use style="fill-opacity:0;stroke:#ff00ff;stroke-linejoin:miter;stroke-width:1.5;" x="380.514816" xlink:href="#m7712d88086" y="12.75264"/>
    </g>
   </g>
   <g id="line2d_41">
    <path d="M 360.8064 298.944 
L 360.8064 6.912 
" style="fill:none;stroke:#000000;stroke-linecap:square;stroke-width:1.5;"/>
   </g>
   <g id="patch_3">
    <path d="M 57.6 298.944 
L 360.8064 298.944 
" style="fill:none;stroke:#000000;stroke-linecap:square;stroke-linejoin:miter;stroke-width:0.8;"/>
   </g>
   <g id="patch_4">
    <path d="M 57.6 6.912 
L 360.8064 6.912 
" style="fill:none;stroke:#000000;stroke-linecap:square;stroke-linejoin:miter;stroke-width:0.8;"/>
   </g>
   <g id="text_13">
    <!-- al-defaul -->
    <g transform="translate(386.578944 296.966485)scale(0.14 -0.14)">
     <defs>
      <path d="M 4.890625 31.390625 
L 31.203125 31.390625 
L 31.203125 23.390625 
L 4.890625 23.390625 
z
" id="DejaVuSans-45"/>
     </defs>
     <use xlink:href="#DejaVuSans-97"/>
     <use x="61.279297" xlink:href="#DejaVuSans-108"/>
     <use x="89.0625" xlink:href="#DejaVuSans-45"/>
     <use x="125.146484" xlink:href="#DejaVuSans-100"/>
     <use x="188.623047" xlink:href="#DejaVuSans-101"/>
     <use x="250.146484" xlink:href="#DejaVuSans-102"/>
     <use x="285.351562" xlink:href="#DejaVuSans-97"/>
     <use x="346.630859" xlink:href="#DejaVuSans-117"/>
     <use x="410.009766" xlink:href="#DejaVuSans-108"/>
    </g>
   </g>
   <g id="text_14">
    <!-- al3 -->
    <g transform="translate(386.578944 16.615765)scale(0.14 -0.14)">
     <defs>
      <path d="M 40.578125 39.3125 
Q 47.65625 37.796875 51.625 33 
Q 55.609375 28.21875 55.609375 21.1875 
Q 55.609375 10.40625 48.1875 4.484375 
Q 40.765625 -1.421875 27.09375 -1.421875 
Q 22.515625 -1.421875 17.65625 -0.515625 
Q 12.796875 0.390625 7.625 2.203125 
L 7.625 11.71875 
Q 11.71875 9.328125 16.59375 8.109375 
Q 21.484375 6.890625 26.8125 6.890625 
Q 36.078125 6.890625 40.9375 10.546875 
Q 45.796875 14.203125 45.796875 21.1875 
Q 45.796875 27.640625 41.28125 31.265625 
Q 36.765625 34.90625 28.71875 34.90625 
L 20.21875 34.90625 
L 20.21875 43.015625 
L 29.109375 43.015625 
Q 36.375 43.015625 40.234375 45.921875 
Q 44.09375 48.828125 44.09375 54.296875 
Q 44.09375 59.90625 40.109375 62.90625 
Q 36.140625 65.921875 28.71875 65.921875 
Q 24.65625 65.921875 20.015625 65.03125 
Q 15.375 64.15625 9.8125 62.3125 
L 9.8125 71.09375 
Q 15.4375 72.65625 20.34375 73.4375 
Q 25.25 74.21875 29.59375 74.21875 
Q 40.828125 74.21875 47.359375 69.109375 
Q 53.90625 64.015625 53.90625 55.328125 
Q 53.90625 49.265625 50.4375 45.09375 
Q 46.96875 40.921875 40.578125 39.3125 
z
" id="DejaVuSans-51"/>
     </defs>
     <use xlink:href="#DejaVuSans-97"/>
     <use x="61.279297" xlink:href="#DejaVuSans-108"/>
     <use x="89.0625" xlink:href="#DejaVuSans-51"/>
    </g>
   </g>
   <g id="text_15">
    <!-- bbob-constrained f47, f53, 2-D -->
    <g transform="translate(60.632064 17.582726)scale(0.102 -0.102)">
     <defs>
      <path d="M 48.6875 27.296875 
Q 48.6875 37.203125 44.609375 42.84375 
Q 40.53125 48.484375 33.40625 48.484375 
Q 26.265625 48.484375 22.1875 42.84375 
Q 18.109375 37.203125 18.109375 27.296875 
Q 18.109375 17.390625 22.1875 11.75 
Q 26.265625 6.109375 33.40625 6.109375 
Q 40.53125 6.109375 44.609375 11.75 
Q 48.6875 17.390625 48.6875 27.296875 
z
M 18.109375 46.390625 
Q 20.953125 51.265625 25.265625 53.625 
Q 29.59375 56 35.59375 56 
Q 45.5625 56 51.78125 48.09375 
Q 58.015625 40.1875 58.015625 27.296875 
Q 58.015625 14.40625 51.78125 6.484375 
Q 45.5625 -1.421875 35.59375 -1.421875 
Q 29.59375 -1.421875 25.265625 0.953125 
Q 20.953125 3.328125 18.109375 8.203125 
L 18.109375 0 
L 9.078125 0 
L 9.078125 75.984375 
L 18.109375 75.984375 
z
" id="DejaVuSans-98"/>
      <path d="M 8.203125 72.90625 
L 55.078125 72.90625 
L 55.078125 68.703125 
L 28.609375 0 
L 18.3125 0 
L 43.21875 64.59375 
L 8.203125 64.59375 
z
" id="DejaVuSans-55"/>
      <path d="M 10.796875 72.90625 
L 49.515625 72.90625 
L 49.515625 64.59375 
L 19.828125 64.59375 
L 19.828125 46.734375 
Q 21.96875 47.46875 24.109375 47.828125 
Q 26.265625 48.1875 28.421875 48.1875 
Q 40.625 48.1875 47.75 41.5 
Q 54.890625 34.8125 54.890625 23.390625 
Q 54.890625 11.625 47.5625 5.09375 
Q 40.234375 -1.421875 26.90625 -1.421875 
Q 22.3125 -1.421875 17.546875 -0.640625 
Q 12.796875 0.140625 7.71875 1.703125 
L 7.71875 11.625 
Q 12.109375 9.234375 16.796875 8.0625 
Q 21.484375 6.890625 26.703125 6.890625 
Q 35.15625 6.890625 40.078125 11.328125 
Q 45.015625 15.765625 45.015625 23.390625 
Q 45.015625 31 40.078125 35.4375 
Q 35.15625 39.890625 26.703125 39.890625 
Q 22.75 39.890625 18.8125 39.015625 
Q 14.890625 38.140625 10.796875 36.28125 
z
" id="DejaVuSans-53"/>
      <path d="M 19.671875 64.796875 
L 19.671875 8.109375 
L 31.59375 8.109375 
Q 46.6875 8.109375 53.6875 14.9375 
Q 60.6875 21.78125 60.6875 36.53125 
Q 60.6875 51.171875 53.6875 57.984375 
Q 46.6875 64.796875 31.59375 64.796875 
z
M 9.8125 72.90625 
L 30.078125 72.90625 
Q 51.265625 72.90625 61.171875 64.09375 
Q 71.09375 55.28125 71.09375 36.53125 
Q 71.09375 17.671875 61.125 8.828125 
Q 51.171875 0 30.078125 0 
L 9.8125 0 
z
" id="DejaVuSans-68"/>
     </defs>
     <use xlink:href="#DejaVuSans-98"/>
     <use x="63.476562" xlink:href="#DejaVuSans-98"/>
     <use x="126.953125" xlink:href="#DejaVuSans-111"/>
     <use x="188.134766" xlink:href="#DejaVuSans-98"/>
     <use x="251.611328" xlink:href="#DejaVuSans-45"/>
     <use x="287.695312" xlink:href="#DejaVuSans-99"/>
     <use x="342.675781" xlink:href="#DejaVuSans-111"/>
     <use x="403.857422" xlink:href="#DejaVuSans-110"/>
     <use x="467.236328" xlink:href="#DejaVuSans-115"/>
     <use x="519.335938" xlink:href="#DejaVuSans-116"/>
     <use x="558.544922" xlink:href="#DejaVuSans-114"/>
     <use x="599.658203" xlink:href="#DejaVuSans-97"/>
     <use x="660.9375" xlink:href="#DejaVuSans-105"/>
     <use x="688.720703" xlink:href="#DejaVuSans-110"/>
     <use x="752.099609" xlink:href="#DejaVuSans-101"/>
     <use x="813.623047" xlink:href="#DejaVuSans-100"/>
     <use x="877.099609" xlink:href="#DejaVuSans-32"/>
     <use x="908.886719" xlink:href="#DejaVuSans-102"/>
     <use x="944.091797" xlink:href="#DejaVuSans-52"/>
     <use x="1007.714844" xlink:href="#DejaVuSans-55"/>
     <use x="1071.337891" xlink:href="#DejaVuSans-44"/>
     <use x="1103.125" xlink:href="#DejaVuSans-32"/>
     <use x="1134.912109" xlink:href="#DejaVuSans-102"/>
     <use x="1170.117188" xlink:href="#DejaVuSans-53"/>
     <use x="1233.740234" xlink:href="#DejaVuSans-51"/>
     <use x="1297.363281" xlink:href="#DejaVuSans-44"/>
     <use x="1329.150391" xlink:href="#DejaVuSans-32"/>
     <use x="1360.9375" xlink:href="#DejaVuSans-50"/>
     <use x="1424.560547" xlink:href="#DejaVuSans-45"/>
     <use x="1460.644531" xlink:href="#DejaVuSans-68"/>
    </g>
    <!-- 41 targets: 100..1e-06 -->
    <g transform="translate(60.632064 29.004495)scale(0.102 -0.102)">
     <defs>
      <path d="M 11.71875 12.40625 
L 22.015625 12.40625 
L 22.015625 0 
L 11.71875 0 
z
M 11.71875 51.703125 
L 22.015625 51.703125 
L 22.015625 39.3125 
L 11.71875 39.3125 
z
" id="DejaVuSans-58"/>
     </defs>
     <use xlink:href="#DejaVuSans-52"/>
     <use x="63.623047" xlink:href="#DejaVuSans-49"/>
     <use x="127.246094" xlink:href="#DejaVuSans-32"/>
     <use x="159.033203" xlink:href="#DejaVuSans-116"/>
     <use x="198.242188" xlink:href="#DejaVuSans-97"/>
     <use x="259.521484" xlink:href="#DejaVuSans-114"/>
     <use x="298.884766" xlink:href="#DejaVuSans-103"/>
     <use x="362.361328" xlink:href="#DejaVuSans-101"/>
     <use x="423.884766" xlink:href="#DejaVuSans-116"/>
     <use x="463.09375" xlink:href="#DejaVuSans-115"/>
     <use x="515.193359" xlink:href="#DejaVuSans-58"/>
     <use x="548.884766" xlink:href="#DejaVuSans-32"/>
     <use x="580.671875" xlink:href="#DejaVuSans-49"/>
     <use x="644.294922" xlink:href="#DejaVuSans-48"/>
     <use x="707.917969" xlink:href="#DejaVuSans-48"/>
     <use x="771.541016" xlink:href="#DejaVuSans-46"/>
     <use x="803.328125" xlink:href="#DejaVuSans-46"/>
     <use x="835.115234" xlink:href="#DejaVuSans-49"/>
     <use x="898.738281" xlink:href="#DejaVuSans-101"/>
     <use x="960.261719" xlink:href="#DejaVuSans-45"/>
     <use x="996.345703" xlink:href="#DejaVuSans-48"/>
     <use x="1059.96875" xlink:href="#DejaVuSans-54"/>
    </g>
    <!-- evals = f-evals + g-evals -->
    <g transform="translate(60.632064 40.426264)scale(0.102 -0.102)">
     <defs>
      <path d="M 10.59375 45.40625 
L 73.1875 45.40625 
L 73.1875 37.203125 
L 10.59375 37.203125 
z
M 10.59375 25.484375 
L 73.1875 25.484375 
L 73.1875 17.1875 
L 10.59375 17.1875 
z
" id="DejaVuSans-61"/>
      <path d="M 46 62.703125 
L 46 35.5 
L 73.1875 35.5 
L 73.1875 27.203125 
L 46 27.203125 
L 46 0 
L 37.796875 0 
L 37.796875 27.203125 
L 10.59375 27.203125 
L 10.59375 35.5 
L 37.796875 35.5 
L 37.796875 62.703125 
z
" id="DejaVuSans-43"/>
     </defs>
     <use xlink:href="#DejaVuSans-101"/>
     <use x="61.523438" xlink:href="#DejaVuSans-118"/>
     <use x="120.703125" xlink:href="#DejaVuSans-97"/>
     <use x="181.982422" xlink:href="#DejaVuSans-108"/>
     <use x="209.765625" xlink:href="#DejaVuSans-115"/>
     <use x="261.865234" xlink:href="#DejaVuSans-32"/>
     <use x="293.652344" xlink:href="#DejaVuSans-61"/>
     <use x="377.441406" xlink:href="#DejaVuSans-32"/>
     <use x="409.228516" xlink:href="#DejaVuSans-102"/>
     <use x="438.933594" xlink:href="#DejaVuSans-45"/>
     <use x="475.017578" xlink:href="#DejaVuSans-101"/>
     <use x="536.541016" xlink:href="#DejaVuSans-118"/>
     <use x="595.720703" xlink:href="#DejaVuSans-97"/>
     <use x="657" xlink:href="#DejaVuSans-108"/>
     <use x="684.783203" xlink:href="#DejaVuSans-115"/>
     <use x="736.882812" xlink:href="#DejaVuSans-32"/>
     <use x="768.669922" xlink:href="#DejaVuSans-43"/>
     <use x="852.458984" xlink:href="#DejaVuSans-32"/>
     <use x="884.246094" xlink:href="#DejaVuSans-103"/>
     <use x="947.722656" xlink:href="#DejaVuSans-45"/>
     <use x="983.806641" xlink:href="#DejaVuSans-101"/>
     <use x="1045.330078" xlink:href="#DejaVuSans-118"/>
     <use x="1104.509766" xlink:href="#DejaVuSans-97"/>
     <use x="1165.789062" xlink:href="#DejaVuSans-108"/>
     <use x="1193.572266" xlink:href="#DejaVuSans-115"/>
    </g>
    <!-- 15 instances -->
    <g transform="translate(60.632064 51.848032)scale(0.102 -0.102)">
     <use xlink:href="#DejaVuSans-49"/>
     <use x="63.623047" xlink:href="#DejaVuSans-53"/>
     <use x="127.246094" xlink:href="#DejaVuSans-32"/>
     <use x="159.033203" xlink:href="#DejaVuSans-105"/>
     <use x="186.816406" xlink:href="#DejaVuSans-110"/>
     <use x="250.195312" xlink:href="#DejaVuSans-115"/>
     <use x="302.294922" xlink:href="#DejaVuSans-116"/>
     <use x="341.503906" xlink:href="#DejaVuSans-97"/>
     <use x="402.783203" xlink:href="#DejaVuSans-110"/>
     <use x="466.162109" xlink:href="#DejaVuSans-99"/>
     <use x="521.142578" xlink:href="#DejaVuSans-101"/>
     <use x="582.666016" xlink:href="#DejaVuSans-115"/>
    </g>
   </g>
   <g id="text_16">
    <!-- v2.6.1.9 -->
    <g style="fill:#808080;" transform="translate(188.751637 293.943992)scale(0.1 -0.1)">
     <defs>
      <path d="M 10.984375 1.515625 
L 10.984375 10.5 
Q 14.703125 8.734375 18.5 7.8125 
Q 22.3125 6.890625 25.984375 6.890625 
Q 35.75 6.890625 40.890625 13.453125 
Q 46.046875 20.015625 46.78125 33.40625 
Q 43.953125 29.203125 39.59375 26.953125 
Q 35.25 24.703125 29.984375 24.703125 
Q 19.046875 24.703125 12.671875 31.3125 
Q 6.296875 37.9375 6.296875 49.421875 
Q 6.296875 60.640625 12.9375 67.421875 
Q 19.578125 74.21875 30.609375 74.21875 
Q 43.265625 74.21875 49.921875 64.515625 
Q 56.59375 54.828125 56.59375 36.375 
Q 56.59375 19.140625 48.40625 8.859375 
Q 40.234375 -1.421875 26.421875 -1.421875 
Q 22.703125 -1.421875 18.890625 -0.6875 
Q 15.09375 0.046875 10.984375 1.515625 
z
M 30.609375 32.421875 
Q 37.25 32.421875 41.125 36.953125 
Q 45.015625 41.5 45.015625 49.421875 
Q 45.015625 57.28125 41.125 61.84375 
Q 37.25 66.40625 30.609375 66.40625 
Q 23.96875 66.40625 20.09375 61.84375 
Q 16.21875 57.28125 16.21875 49.421875 
Q 16.21875 41.5 20.09375 36.953125 
Q 23.96875 32.421875 30.609375 32.421875 
z
" id="DejaVuSans-57"/>
     </defs>
     <use xlink:href="#DejaVuSans-118"/>
     <use x="59.179688" xlink:href="#DejaVuSans-50"/>
     <use x="122.802734" xlink:href="#DejaVuSans-46"/>
     <use x="154.589844" xlink:href="#DejaVuSans-54"/>
     <use x="218.212891" xlink:href="#DejaVuSans-46"/>
     <use x="250" xlink:href="#DejaVuSans-49"/>
     <use x="313.623047" xlink:href="#DejaVuSans-46"/>
     <use x="345.410156" xlink:href="#DejaVuSans-57"/>
    </g>
   </g>
  </g>
 </g>
 <defs>
  <clipPath id="p0a062cf736">
   <rect height="292.032" width="303.2064" x="57.6" y="6.912"/>
  </clipPath>
 </defs>
</svg>
