<?xml version="1.0" encoding="utf-8" standalone="no"?>
<!DOCTYPE svg PUBLIC "-//W3C//DTD SVG 1.1//EN"
  "http://www.w3.org/Graphics/SVG/1.1/DTD/svg11.dtd">
<!-- Created with matplotlib (https://matplotlib.org/) -->
<svg height="352.342812pt" version="1.1" viewBox="0 0 331.029063 352.342812" width="331.029063pt" xmlns="http://www.w3.org/2000/svg" xmlns:xlink="http://www.w3.org/1999/xlink">
 <metadata>
  <rdf:RDF xmlns:cc="http://creativecommons.org/ns#" xmlns:dc="http://purl.org/dc/elements/1.1/" xmlns:rdf="http://www.w3.org/1999/02/22-rdf-syntax-ns#">
   <cc:Work>
    <dc:type rdf:resource="http://purl.org/dc/dcmitype/StillImage"/>
    <dc:date>2022-04-26T20:55:29.470453</dc:date>
    <dc:format>image/svg+xml</dc:format>
    <dc:creator>
     <cc:Agent>
      <dc:title>Matplotlib v3.3.3, https://matplotlib.org/</dc:title>
     </cc:Agent>
    </dc:creator>
   </cc:Work>
  </rdf:RDF>
 </metadata>
 <defs>
  <style type="text/css">*{stroke-linecap:butt;stroke-linejoin:round;}</style>
 </defs>
 <g id="figure_1">
  <g id="patch_1">
   <path d="M 0 352.342812 
L 331.029063 352.342812 
L 331.029063 0 
L 0 0 
z
" style="fill:#ffffff;"/>
  </g>
  <g id="axes_1">
   <g id="patch_2">
    <path d="M 45.469063 301.237187 
L 319.829063 301.237187 
L 319.829063 26.877187 
L 45.469063 26.877187 
z
" style="fill:#ffffff;"/>
   </g>
   <g id="line2d_1">
    <path clip-path="url(#pd36961fef1)" d="M 163.198607 296.563277 
L 163.198607 246.373208 
" style="fill:none;stroke:#00bfbf;stroke-linecap:square;stroke-width:1.5;"/>
   </g>
   <g id="line2d_2">
    <path clip-path="url(#pd36961fef1)" d="M 113.008537 246.373208 
L 163.198607 246.373208 
" style="fill:none;stroke:#00bfbf;stroke-linecap:square;stroke-width:1.5;"/>
   </g>
   <g id="line2d_3">
    <path clip-path="url(#pd36961fef1)" d="M 178.851976 289.457645 
L 178.851976 239.267576 
" style="fill:none;stroke:#008000;stroke-linecap:square;stroke-width:1.5;"/>
   </g>
   <g id="line2d_4">
    <path clip-path="url(#pd36961fef1)" d="M 128.661906 239.267576 
L 178.851976 239.267576 
" style="fill:none;stroke:#008000;stroke-linecap:square;stroke-width:1.5;"/>
   </g>
   <g id="line2d_5">
    <path clip-path="url(#pd36961fef1)" d="M 186.592765 275.585871 
L 186.592765 225.395801 
" style="fill:none;stroke:#0000ff;stroke-linecap:square;stroke-width:1.5;"/>
   </g>
   <g id="line2d_6">
    <path clip-path="url(#pd36961fef1)" d="M 136.402695 225.395801 
L 186.592765 225.395801 
" style="fill:none;stroke:#0000ff;stroke-linecap:square;stroke-width:1.5;"/>
   </g>
   <g id="line2d_7">
    <path clip-path="url(#pd36961fef1)" d="M 215.155794 259.779744 
L 215.155794 209.589674 
" style="fill:none;stroke:#000000;stroke-linecap:square;stroke-width:1.5;"/>
   </g>
   <g id="line2d_8">
    <path clip-path="url(#pd36961fef1)" d="M 164.965725 209.589674 
L 215.155794 209.589674 
" style="fill:none;stroke:#000000;stroke-linecap:square;stroke-width:1.5;"/>
   </g>
   <g id="line2d_9">
    <path clip-path="url(#pd36961fef1)" d="M 231.498217 243.972935 
L 231.498217 193.782866 
" style="fill:none;stroke:#ff0000;stroke-linecap:square;stroke-width:1.5;"/>
   </g>
   <g id="line2d_10">
    <path clip-path="url(#pd36961fef1)" d="M 181.308148 193.782866 
L 231.498217 193.782866 
" style="fill:none;stroke:#ff0000;stroke-linecap:square;stroke-width:1.5;"/>
   </g>
   <g id="line2d_11">
    <path clip-path="url(#pd36961fef1)" d="M 247.083438 228.135806 
L 247.083438 177.945736 
" style="fill:none;stroke:#bf00bf;stroke-linecap:square;stroke-width:1.5;"/>
   </g>
   <g id="line2d_12">
    <path clip-path="url(#pd36961fef1)" d="M 196.893369 177.945736 
L 247.083438 177.945736 
" style="fill:none;stroke:#bf00bf;stroke-linecap:square;stroke-width:1.5;"/>
   </g>
   <g id="matplotlib.axis_1">
    <g id="xtick_1">
     <g id="line2d_13">
      <path clip-path="url(#pd36961fef1)" d="M 126.353416 301.237187 
L 126.353416 26.877187 
" style="fill:none;stroke:#b0b0b0;stroke-linecap:square;stroke-width:0.8;"/>
     </g>
     <g id="line2d_14">
      <defs>
       <path d="M 0 0 
L 0 3.5 
" id="m91e7df51bb" style="stroke:#000000;stroke-width:0.8;"/>
      </defs>
      <g>
       <use style="stroke:#000000;stroke-width:0.8;" x="126.353416" xlink:href="#m91e7df51bb" y="301.237187"/>
      </g>
     </g>
     <g id="text_1">
      <!-- 4 -->
      <g transform="translate(120.945291 321.154531)scale(0.17 -0.17)">
       <defs>
        <path d="M 37.796875 64.3125 
L 12.890625 25.390625 
L 37.796875 25.390625 
z
M 35.203125 72.90625 
L 47.609375 72.90625 
L 47.609375 25.390625 
L 58.015625 25.390625 
L 58.015625 17.1875 
L 47.609375 17.1875 
L 47.609375 0 
L 37.796875 0 
L 37.796875 17.1875 
L 4.890625 17.1875 
L 4.890625 26.703125 
z
" id="DejaVuSans-52"/>
       </defs>
       <use xlink:href="#DejaVuSans-52"/>
      </g>
     </g>
    </g>
    <g id="xtick_2">
     <g id="line2d_15">
      <path clip-path="url(#pd36961fef1)" d="M 231.546947 301.237187 
L 231.546947 26.877187 
" style="fill:none;stroke:#b0b0b0;stroke-linecap:square;stroke-width:0.8;"/>
     </g>
     <g id="line2d_16">
      <g>
       <use style="stroke:#000000;stroke-width:0.8;" x="231.546947" xlink:href="#m91e7df51bb" y="301.237187"/>
      </g>
     </g>
     <g id="text_2">
      <!-- 6 -->
      <g transform="translate(226.138822 321.154531)scale(0.17 -0.17)">
       <defs>
        <path d="M 33.015625 40.375 
Q 26.375 40.375 22.484375 35.828125 
Q 18.609375 31.296875 18.609375 23.390625 
Q 18.609375 15.53125 22.484375 10.953125 
Q 26.375 6.390625 33.015625 6.390625 
Q 39.65625 6.390625 43.53125 10.953125 
Q 47.40625 15.53125 47.40625 23.390625 
Q 47.40625 31.296875 43.53125 35.828125 
Q 39.65625 40.375 33.015625 40.375 
z
M 52.59375 71.296875 
L 52.59375 62.3125 
Q 48.875 64.0625 45.09375 64.984375 
Q 41.3125 65.921875 37.59375 65.921875 
Q 27.828125 65.921875 22.671875 59.328125 
Q 17.53125 52.734375 16.796875 39.40625 
Q 19.671875 43.65625 24.015625 45.921875 
Q 28.375 48.1875 33.59375 48.1875 
Q 44.578125 48.1875 50.953125 41.515625 
Q 57.328125 34.859375 57.328125 23.390625 
Q 57.328125 12.15625 50.6875 5.359375 
Q 44.046875 -1.421875 33.015625 -1.421875 
Q 20.359375 -1.421875 13.671875 8.265625 
Q 6.984375 17.96875 6.984375 36.375 
Q 6.984375 53.65625 15.1875 63.9375 
Q 23.390625 74.21875 37.203125 74.21875 
Q 40.921875 74.21875 44.703125 73.484375 
Q 48.484375 72.75 52.59375 71.296875 
z
" id="DejaVuSans-54"/>
       </defs>
       <use xlink:href="#DejaVuSans-54"/>
      </g>
     </g>
    </g>
    <g id="text_3">
     <!-- log10(ERT of al3) -->
     <g transform="translate(109.814688 341.607344)scale(0.17 -0.17)">
      <defs>
       <path d="M 9.421875 75.984375 
L 18.40625 75.984375 
L 18.40625 0 
L 9.421875 0 
z
" id="DejaVuSans-108"/>
       <path d="M 30.609375 48.390625 
Q 23.390625 48.390625 19.1875 42.75 
Q 14.984375 37.109375 14.984375 27.296875 
Q 14.984375 17.484375 19.15625 11.84375 
Q 23.34375 6.203125 30.609375 6.203125 
Q 37.796875 6.203125 41.984375 11.859375 
Q 46.1875 17.53125 46.1875 27.296875 
Q 46.1875 37.015625 41.984375 42.703125 
Q 37.796875 48.390625 30.609375 48.390625 
z
M 30.609375 56 
Q 42.328125 56 49.015625 48.375 
Q 55.71875 40.765625 55.71875 27.296875 
Q 55.71875 13.875 49.015625 6.21875 
Q 42.328125 -1.421875 30.609375 -1.421875 
Q 18.84375 -1.421875 12.171875 6.21875 
Q 5.515625 13.875 5.515625 27.296875 
Q 5.515625 40.765625 12.171875 48.375 
Q 18.84375 56 30.609375 56 
z
" id="DejaVuSans-111"/>
       <path d="M 45.40625 27.984375 
Q 45.40625 37.75 41.375 43.109375 
Q 37.359375 48.484375 30.078125 48.484375 
Q 22.859375 48.484375 18.828125 43.109375 
Q 14.796875 37.75 14.796875 27.984375 
Q 14.796875 18.265625 18.828125 12.890625 
Q 22.859375 7.515625 30.078125 7.515625 
Q 37.359375 7.515625 41.375 12.890625 
Q 45.40625 18.265625 45.40625 27.984375 
z
M 54.390625 6.78125 
Q 54.390625 -7.171875 48.1875 -13.984375 
Q 42 -20.796875 29.203125 -20.796875 
Q 24.46875 -20.796875 20.265625 -20.09375 
Q 16.0625 -19.390625 12.109375 -17.921875 
L 12.109375 -9.1875 
Q 16.0625 -11.328125 19.921875 -12.34375 
Q 23.78125 -13.375 27.78125 -13.375 
Q 36.625 -13.375 41.015625 -8.765625 
Q 45.40625 -4.15625 45.40625 5.171875 
L 45.40625 9.625 
Q 42.625 4.78125 38.28125 2.390625 
Q 33.9375 0 27.875 0 
Q 17.828125 0 11.671875 7.65625 
Q 5.515625 15.328125 5.515625 27.984375 
Q 5.515625 40.671875 11.671875 48.328125 
Q 17.828125 56 27.875 56 
Q 33.9375 56 38.28125 53.609375 
Q 42.625 51.21875 45.40625 46.390625 
L 45.40625 54.6875 
L 54.390625 54.6875 
z
" id="DejaVuSans-103"/>
       <path d="M 12.40625 8.296875 
L 28.515625 8.296875 
L 28.515625 63.921875 
L 10.984375 60.40625 
L 10.984375 69.390625 
L 28.421875 72.90625 
L 38.28125 72.90625 
L 38.28125 8.296875 
L 54.390625 8.296875 
L 54.390625 0 
L 12.40625 0 
z
" id="DejaVuSans-49"/>
       <path d="M 31.78125 66.40625 
Q 24.171875 66.40625 20.328125 58.90625 
Q 16.5 51.421875 16.5 36.375 
Q 16.5 21.390625 20.328125 13.890625 
Q 24.171875 6.390625 31.78125 6.390625 
Q 39.453125 6.390625 43.28125 13.890625 
Q 47.125 21.390625 47.125 36.375 
Q 47.125 51.421875 43.28125 58.90625 
Q 39.453125 66.40625 31.78125 66.40625 
z
M 31.78125 74.21875 
Q 44.046875 74.21875 50.515625 64.515625 
Q 56.984375 54.828125 56.984375 36.375 
Q 56.984375 17.96875 50.515625 8.265625 
Q 44.046875 -1.421875 31.78125 -1.421875 
Q 19.53125 -1.421875 13.0625 8.265625 
Q 6.59375 17.96875 6.59375 36.375 
Q 6.59375 54.828125 13.0625 64.515625 
Q 19.53125 74.21875 31.78125 74.21875 
z
" id="DejaVuSans-48"/>
       <path d="M 31 75.875 
Q 24.46875 64.65625 21.28125 53.65625 
Q 18.109375 42.671875 18.109375 31.390625 
Q 18.109375 20.125 21.3125 9.0625 
Q 24.515625 -2 31 -13.1875 
L 23.1875 -13.1875 
Q 15.875 -1.703125 12.234375 9.375 
Q 8.59375 20.453125 8.59375 31.390625 
Q 8.59375 42.28125 12.203125 53.3125 
Q 15.828125 64.359375 23.1875 75.875 
z
" id="DejaVuSans-40"/>
       <path d="M 9.8125 72.90625 
L 55.90625 72.90625 
L 55.90625 64.59375 
L 19.671875 64.59375 
L 19.671875 43.015625 
L 54.390625 43.015625 
L 54.390625 34.71875 
L 19.671875 34.71875 
L 19.671875 8.296875 
L 56.78125 8.296875 
L 56.78125 0 
L 9.8125 0 
z
" id="DejaVuSans-69"/>
       <path d="M 44.390625 34.1875 
Q 47.5625 33.109375 50.5625 29.59375 
Q 53.5625 26.078125 56.59375 19.921875 
L 66.609375 0 
L 56 0 
L 46.6875 18.703125 
Q 43.0625 26.03125 39.671875 28.421875 
Q 36.28125 30.8125 30.421875 30.8125 
L 19.671875 30.8125 
L 19.671875 0 
L 9.8125 0 
L 9.8125 72.90625 
L 32.078125 72.90625 
Q 44.578125 72.90625 50.734375 67.671875 
Q 56.890625 62.453125 56.890625 51.90625 
Q 56.890625 45.015625 53.6875 40.46875 
Q 50.484375 35.9375 44.390625 34.1875 
z
M 19.671875 64.796875 
L 19.671875 38.921875 
L 32.078125 38.921875 
Q 39.203125 38.921875 42.84375 42.21875 
Q 46.484375 45.515625 46.484375 51.90625 
Q 46.484375 58.296875 42.84375 61.546875 
Q 39.203125 64.796875 32.078125 64.796875 
z
" id="DejaVuSans-82"/>
       <path d="M -0.296875 72.90625 
L 61.375 72.90625 
L 61.375 64.59375 
L 35.5 64.59375 
L 35.5 0 
L 25.59375 0 
L 25.59375 64.59375 
L -0.296875 64.59375 
z
" id="DejaVuSans-84"/>
       <path id="DejaVuSans-32"/>
       <path d="M 37.109375 75.984375 
L 37.109375 68.5 
L 28.515625 68.5 
Q 23.6875 68.5 21.796875 66.546875 
Q 19.921875 64.59375 19.921875 59.515625 
L 19.921875 54.6875 
L 34.71875 54.6875 
L 34.71875 47.703125 
L 19.921875 47.703125 
L 19.921875 0 
L 10.890625 0 
L 10.890625 47.703125 
L 2.296875 47.703125 
L 2.296875 54.6875 
L 10.890625 54.6875 
L 10.890625 58.5 
Q 10.890625 67.625 15.140625 71.796875 
Q 19.390625 75.984375 28.609375 75.984375 
z
" id="DejaVuSans-102"/>
       <path d="M 34.28125 27.484375 
Q 23.390625 27.484375 19.1875 25 
Q 14.984375 22.515625 14.984375 16.5 
Q 14.984375 11.71875 18.140625 8.90625 
Q 21.296875 6.109375 26.703125 6.109375 
Q 34.1875 6.109375 38.703125 11.40625 
Q 43.21875 16.703125 43.21875 25.484375 
L 43.21875 27.484375 
z
M 52.203125 31.203125 
L 52.203125 0 
L 43.21875 0 
L 43.21875 8.296875 
Q 40.140625 3.328125 35.546875 0.953125 
Q 30.953125 -1.421875 24.3125 -1.421875 
Q 15.921875 -1.421875 10.953125 3.296875 
Q 6 8.015625 6 15.921875 
Q 6 25.140625 12.171875 29.828125 
Q 18.359375 34.515625 30.609375 34.515625 
L 43.21875 34.515625 
L 43.21875 35.40625 
Q 43.21875 41.609375 39.140625 45 
Q 35.0625 48.390625 27.6875 48.390625 
Q 23 48.390625 18.546875 47.265625 
Q 14.109375 46.140625 10.015625 43.890625 
L 10.015625 52.203125 
Q 14.9375 54.109375 19.578125 55.046875 
Q 24.21875 56 28.609375 56 
Q 40.484375 56 46.34375 49.84375 
Q 52.203125 43.703125 52.203125 31.203125 
z
" id="DejaVuSans-97"/>
       <path d="M 40.578125 39.3125 
Q 47.65625 37.796875 51.625 33 
Q 55.609375 28.21875 55.609375 21.1875 
Q 55.609375 10.40625 48.1875 4.484375 
Q 40.765625 -1.421875 27.09375 -1.421875 
Q 22.515625 -1.421875 17.65625 -0.515625 
Q 12.796875 0.390625 7.625 2.203125 
L 7.625 11.71875 
Q 11.71875 9.328125 16.59375 8.109375 
Q 21.484375 6.890625 26.8125 6.890625 
Q 36.078125 6.890625 40.9375 10.546875 
Q 45.796875 14.203125 45.796875 21.1875 
Q 45.796875 27.640625 41.28125 31.265625 
Q 36.765625 34.90625 28.71875 34.90625 
L 20.21875 34.90625 
L 20.21875 43.015625 
L 29.109375 43.015625 
Q 36.375 43.015625 40.234375 45.921875 
Q 44.09375 48.828125 44.09375 54.296875 
Q 44.09375 59.90625 40.109375 62.90625 
Q 36.140625 65.921875 28.71875 65.921875 
Q 24.65625 65.921875 20.015625 65.03125 
Q 15.375 64.15625 9.8125 62.3125 
L 9.8125 71.09375 
Q 15.4375 72.65625 20.34375 73.4375 
Q 25.25 74.21875 29.59375 74.21875 
Q 40.828125 74.21875 47.359375 69.109375 
Q 53.90625 64.015625 53.90625 55.328125 
Q 53.90625 49.265625 50.4375 45.09375 
Q 46.96875 40.921875 40.578125 39.3125 
z
" id="DejaVuSans-51"/>
       <path d="M 8.015625 75.875 
L 15.828125 75.875 
Q 23.140625 64.359375 26.78125 53.3125 
Q 30.421875 42.28125 30.421875 31.390625 
Q 30.421875 20.453125 26.78125 9.375 
Q 23.140625 -1.703125 15.828125 -13.1875 
L 8.015625 -13.1875 
Q 14.5 -2 17.703125 9.0625 
Q 20.90625 20.125 20.90625 31.390625 
Q 20.90625 42.671875 17.703125 53.65625 
Q 14.5 64.65625 8.015625 75.875 
z
" id="DejaVuSans-41"/>
      </defs>
      <use xlink:href="#DejaVuSans-108"/>
      <use x="27.783203" xlink:href="#DejaVuSans-111"/>
      <use x="88.964844" xlink:href="#DejaVuSans-103"/>
      <use x="152.441406" xlink:href="#DejaVuSans-49"/>
      <use x="216.064453" xlink:href="#DejaVuSans-48"/>
      <use x="279.6875" xlink:href="#DejaVuSans-40"/>
      <use x="318.701172" xlink:href="#DejaVuSans-69"/>
      <use x="381.884766" xlink:href="#DejaVuSans-82"/>
      <use x="444.117188" xlink:href="#DejaVuSans-84"/>
      <use x="505.201172" xlink:href="#DejaVuSans-32"/>
      <use x="536.988281" xlink:href="#DejaVuSans-111"/>
      <use x="598.169922" xlink:href="#DejaVuSans-102"/>
      <use x="633.375" xlink:href="#DejaVuSans-32"/>
      <use x="665.162109" xlink:href="#DejaVuSans-97"/>
      <use x="726.441406" xlink:href="#DejaVuSans-108"/>
      <use x="754.224609" xlink:href="#DejaVuSans-51"/>
      <use x="817.847656" xlink:href="#DejaVuSans-41"/>
     </g>
    </g>
   </g>
   <g id="matplotlib.axis_2">
    <g id="ytick_1">
     <g id="line2d_17">
      <path clip-path="url(#pd36961fef1)" d="M 45.469063 220.352834 
L 319.829063 220.352834 
" style="fill:none;stroke:#b0b0b0;stroke-linecap:square;stroke-width:0.8;"/>
     </g>
     <g id="line2d_18">
      <defs>
       <path d="M 0 0 
L -3.5 0 
" id="m509ca0e77e" style="stroke:#000000;stroke-width:0.8;"/>
      </defs>
      <g>
       <use style="stroke:#000000;stroke-width:0.8;" x="45.469063" xlink:href="#m509ca0e77e" y="220.352834"/>
      </g>
     </g>
     <g id="text_4">
      <!-- 4 -->
      <g transform="translate(27.652813 226.811506)scale(0.17 -0.17)">
       <use xlink:href="#DejaVuSans-52"/>
      </g>
     </g>
    </g>
    <g id="ytick_2">
     <g id="line2d_19">
      <path clip-path="url(#pd36961fef1)" d="M 45.469063 115.159303 
L 319.829063 115.159303 
" style="fill:none;stroke:#b0b0b0;stroke-linecap:square;stroke-width:0.8;"/>
     </g>
     <g id="line2d_20">
      <g>
       <use style="stroke:#000000;stroke-width:0.8;" x="45.469063" xlink:href="#m509ca0e77e" y="115.159303"/>
      </g>
     </g>
     <g id="text_5">
      <!-- 6 -->
      <g transform="translate(27.652813 121.617975)scale(0.17 -0.17)">
       <use xlink:href="#DejaVuSans-54"/>
      </g>
     </g>
    </g>
    <g id="ytick_3">
     <g id="line2d_21">
      <defs>
       <path d="M 0 0 
L -2 0 
" id="mf70cf255e0" style="stroke:#000000;stroke-width:0.6;"/>
      </defs>
      <g>
       <use style="stroke:#000000;stroke-width:0.6;" x="45.469063" xlink:href="#mf70cf255e0" y="300.451331"/>
      </g>
     </g>
    </g>
    <g id="ytick_4">
     <g id="line2d_22">
      <g>
       <use style="stroke:#000000;stroke-width:0.6;" x="45.469063" xlink:href="#mf70cf255e0" y="293.879957"/>
      </g>
     </g>
    </g>
    <g id="ytick_5">
     <g id="line2d_23">
      <g>
       <use style="stroke:#000000;stroke-width:0.6;" x="45.469063" xlink:href="#mf70cf255e0" y="288.782804"/>
      </g>
     </g>
    </g>
    <g id="ytick_6">
     <g id="line2d_24">
      <g>
       <use style="stroke:#000000;stroke-width:0.6;" x="45.469063" xlink:href="#mf70cf255e0" y="284.618127"/>
      </g>
     </g>
    </g>
    <g id="ytick_7">
     <g id="line2d_25">
      <g>
       <use style="stroke:#000000;stroke-width:0.6;" x="45.469063" xlink:href="#mf70cf255e0" y="281.096942"/>
      </g>
     </g>
    </g>
    <g id="ytick_8">
     <g id="line2d_26">
      <g>
       <use style="stroke:#000000;stroke-width:0.6;" x="45.469063" xlink:href="#mf70cf255e0" y="278.046753"/>
      </g>
     </g>
    </g>
    <g id="ytick_9">
     <g id="line2d_27">
      <g>
       <use style="stroke:#000000;stroke-width:0.6;" x="45.469063" xlink:href="#mf70cf255e0" y="275.356296"/>
      </g>
     </g>
    </g>
    <g id="ytick_10">
     <g id="line2d_28">
      <g>
       <use style="stroke:#000000;stroke-width:0.6;" x="45.469063" xlink:href="#mf70cf255e0" y="257.116396"/>
      </g>
     </g>
    </g>
    <g id="ytick_11">
     <g id="line2d_29">
      <g>
       <use style="stroke:#000000;stroke-width:0.6;" x="45.469063" xlink:href="#mf70cf255e0" y="247.854565"/>
      </g>
     </g>
    </g>
    <g id="ytick_12">
     <g id="line2d_30">
      <g>
       <use style="stroke:#000000;stroke-width:0.6;" x="45.469063" xlink:href="#mf70cf255e0" y="241.283192"/>
      </g>
     </g>
    </g>
    <g id="ytick_13">
     <g id="line2d_31">
      <g>
       <use style="stroke:#000000;stroke-width:0.6;" x="45.469063" xlink:href="#mf70cf255e0" y="236.186039"/>
      </g>
     </g>
    </g>
    <g id="ytick_14">
     <g id="line2d_32">
      <g>
       <use style="stroke:#000000;stroke-width:0.6;" x="45.469063" xlink:href="#mf70cf255e0" y="232.021361"/>
      </g>
     </g>
    </g>
    <g id="ytick_15">
     <g id="line2d_33">
      <g>
       <use style="stroke:#000000;stroke-width:0.6;" x="45.469063" xlink:href="#mf70cf255e0" y="228.500177"/>
      </g>
     </g>
    </g>
    <g id="ytick_16">
     <g id="line2d_34">
      <g>
       <use style="stroke:#000000;stroke-width:0.6;" x="45.469063" xlink:href="#mf70cf255e0" y="225.449988"/>
      </g>
     </g>
    </g>
    <g id="ytick_17">
     <g id="line2d_35">
      <g>
       <use style="stroke:#000000;stroke-width:0.6;" x="45.469063" xlink:href="#mf70cf255e0" y="222.75953"/>
      </g>
     </g>
    </g>
    <g id="ytick_18">
     <g id="line2d_36">
      <g>
       <use style="stroke:#000000;stroke-width:0.6;" x="45.469063" xlink:href="#mf70cf255e0" y="204.51963"/>
      </g>
     </g>
    </g>
    <g id="ytick_19">
     <g id="line2d_37">
      <g>
       <use style="stroke:#000000;stroke-width:0.6;" x="45.469063" xlink:href="#mf70cf255e0" y="195.2578"/>
      </g>
     </g>
    </g>
    <g id="ytick_20">
     <g id="line2d_38">
      <g>
       <use style="stroke:#000000;stroke-width:0.6;" x="45.469063" xlink:href="#mf70cf255e0" y="188.686426"/>
      </g>
     </g>
    </g>
    <g id="ytick_21">
     <g id="line2d_39">
      <g>
       <use style="stroke:#000000;stroke-width:0.6;" x="45.469063" xlink:href="#mf70cf255e0" y="183.589273"/>
      </g>
     </g>
    </g>
    <g id="ytick_22">
     <g id="line2d_40">
      <g>
       <use style="stroke:#000000;stroke-width:0.6;" x="45.469063" xlink:href="#mf70cf255e0" y="179.424596"/>
      </g>
     </g>
    </g>
    <g id="ytick_23">
     <g id="line2d_41">
      <g>
       <use style="stroke:#000000;stroke-width:0.6;" x="45.469063" xlink:href="#mf70cf255e0" y="175.903411"/>
      </g>
     </g>
    </g>
    <g id="ytick_24">
     <g id="line2d_42">
      <g>
       <use style="stroke:#000000;stroke-width:0.6;" x="45.469063" xlink:href="#mf70cf255e0" y="172.853222"/>
      </g>
     </g>
    </g>
    <g id="ytick_25">
     <g id="line2d_43">
      <g>
       <use style="stroke:#000000;stroke-width:0.6;" x="45.469063" xlink:href="#mf70cf255e0" y="170.162765"/>
      </g>
     </g>
    </g>
    <g id="ytick_26">
     <g id="line2d_44">
      <g>
       <use style="stroke:#000000;stroke-width:0.6;" x="45.469063" xlink:href="#mf70cf255e0" y="151.922865"/>
      </g>
     </g>
    </g>
    <g id="ytick_27">
     <g id="line2d_45">
      <g>
       <use style="stroke:#000000;stroke-width:0.6;" x="45.469063" xlink:href="#mf70cf255e0" y="142.661034"/>
      </g>
     </g>
    </g>
    <g id="ytick_28">
     <g id="line2d_46">
      <g>
       <use style="stroke:#000000;stroke-width:0.6;" x="45.469063" xlink:href="#mf70cf255e0" y="136.089661"/>
      </g>
     </g>
    </g>
    <g id="ytick_29">
     <g id="line2d_47">
      <g>
       <use style="stroke:#000000;stroke-width:0.6;" x="45.469063" xlink:href="#mf70cf255e0" y="130.992507"/>
      </g>
     </g>
    </g>
    <g id="ytick_30">
     <g id="line2d_48">
      <g>
       <use style="stroke:#000000;stroke-width:0.6;" x="45.469063" xlink:href="#mf70cf255e0" y="126.82783"/>
      </g>
     </g>
    </g>
    <g id="ytick_31">
     <g id="line2d_49">
      <g>
       <use style="stroke:#000000;stroke-width:0.6;" x="45.469063" xlink:href="#mf70cf255e0" y="123.306645"/>
      </g>
     </g>
    </g>
    <g id="ytick_32">
     <g id="line2d_50">
      <g>
       <use style="stroke:#000000;stroke-width:0.6;" x="45.469063" xlink:href="#mf70cf255e0" y="120.256457"/>
      </g>
     </g>
    </g>
    <g id="ytick_33">
     <g id="line2d_51">
      <g>
       <use style="stroke:#000000;stroke-width:0.6;" x="45.469063" xlink:href="#mf70cf255e0" y="117.565999"/>
      </g>
     </g>
    </g>
    <g id="ytick_34">
     <g id="line2d_52">
      <g>
       <use style="stroke:#000000;stroke-width:0.6;" x="45.469063" xlink:href="#mf70cf255e0" y="99.326099"/>
      </g>
     </g>
    </g>
    <g id="ytick_35">
     <g id="line2d_53">
      <g>
       <use style="stroke:#000000;stroke-width:0.6;" x="45.469063" xlink:href="#mf70cf255e0" y="90.064269"/>
      </g>
     </g>
    </g>
    <g id="ytick_36">
     <g id="line2d_54">
      <g>
       <use style="stroke:#000000;stroke-width:0.6;" x="45.469063" xlink:href="#mf70cf255e0" y="83.492895"/>
      </g>
     </g>
    </g>
    <g id="ytick_37">
     <g id="line2d_55">
      <g>
       <use style="stroke:#000000;stroke-width:0.6;" x="45.469063" xlink:href="#mf70cf255e0" y="78.395742"/>
      </g>
     </g>
    </g>
    <g id="ytick_38">
     <g id="line2d_56">
      <g>
       <use style="stroke:#000000;stroke-width:0.6;" x="45.469063" xlink:href="#mf70cf255e0" y="74.231064"/>
      </g>
     </g>
    </g>
    <g id="ytick_39">
     <g id="line2d_57">
      <g>
       <use style="stroke:#000000;stroke-width:0.6;" x="45.469063" xlink:href="#mf70cf255e0" y="70.70988"/>
      </g>
     </g>
    </g>
    <g id="ytick_40">
     <g id="line2d_58">
      <g>
       <use style="stroke:#000000;stroke-width:0.6;" x="45.469063" xlink:href="#mf70cf255e0" y="67.659691"/>
      </g>
     </g>
    </g>
    <g id="ytick_41">
     <g id="line2d_59">
      <g>
       <use style="stroke:#000000;stroke-width:0.6;" x="45.469063" xlink:href="#mf70cf255e0" y="64.969234"/>
      </g>
     </g>
    </g>
    <g id="ytick_42">
     <g id="line2d_60">
      <g>
       <use style="stroke:#000000;stroke-width:0.6;" x="45.469063" xlink:href="#mf70cf255e0" y="46.729334"/>
      </g>
     </g>
    </g>
    <g id="ytick_43">
     <g id="line2d_61">
      <g>
       <use style="stroke:#000000;stroke-width:0.6;" x="45.469063" xlink:href="#mf70cf255e0" y="37.467503"/>
      </g>
     </g>
    </g>
    <g id="ytick_44">
     <g id="line2d_62">
      <g>
       <use style="stroke:#000000;stroke-width:0.6;" x="45.469063" xlink:href="#mf70cf255e0" y="30.89613"/>
      </g>
     </g>
    </g>
    <g id="text_6">
     <!-- log10(ERT of al-default-1600D) -->
     <g transform="translate(20.117344 295.702266)rotate(-90)scale(0.17 -0.17)">
      <defs>
       <path d="M 4.890625 31.390625 
L 31.203125 31.390625 
L 31.203125 23.390625 
L 4.890625 23.390625 
z
" id="DejaVuSans-45"/>
       <path d="M 45.40625 46.390625 
L 45.40625 75.984375 
L 54.390625 75.984375 
L 54.390625 0 
L 45.40625 0 
L 45.40625 8.203125 
Q 42.578125 3.328125 38.25 0.953125 
Q 33.9375 -1.421875 27.875 -1.421875 
Q 17.96875 -1.421875 11.734375 6.484375 
Q 5.515625 14.40625 5.515625 27.296875 
Q 5.515625 40.1875 11.734375 48.09375 
Q 17.96875 56 27.875 56 
Q 33.9375 56 38.25 53.625 
Q 42.578125 51.265625 45.40625 46.390625 
z
M 14.796875 27.296875 
Q 14.796875 17.390625 18.875 11.75 
Q 22.953125 6.109375 30.078125 6.109375 
Q 37.203125 6.109375 41.296875 11.75 
Q 45.40625 17.390625 45.40625 27.296875 
Q 45.40625 37.203125 41.296875 42.84375 
Q 37.203125 48.484375 30.078125 48.484375 
Q 22.953125 48.484375 18.875 42.84375 
Q 14.796875 37.203125 14.796875 27.296875 
z
" id="DejaVuSans-100"/>
       <path d="M 56.203125 29.59375 
L 56.203125 25.203125 
L 14.890625 25.203125 
Q 15.484375 15.921875 20.484375 11.0625 
Q 25.484375 6.203125 34.421875 6.203125 
Q 39.59375 6.203125 44.453125 7.46875 
Q 49.3125 8.734375 54.109375 11.28125 
L 54.109375 2.78125 
Q 49.265625 0.734375 44.1875 -0.34375 
Q 39.109375 -1.421875 33.890625 -1.421875 
Q 20.796875 -1.421875 13.15625 6.1875 
Q 5.515625 13.8125 5.515625 26.8125 
Q 5.515625 40.234375 12.765625 48.109375 
Q 20.015625 56 32.328125 56 
Q 43.359375 56 49.78125 48.890625 
Q 56.203125 41.796875 56.203125 29.59375 
z
M 47.21875 32.234375 
Q 47.125 39.59375 43.09375 43.984375 
Q 39.0625 48.390625 32.421875 48.390625 
Q 24.90625 48.390625 20.390625 44.140625 
Q 15.875 39.890625 15.1875 32.171875 
z
" id="DejaVuSans-101"/>
       <path d="M 8.5 21.578125 
L 8.5 54.6875 
L 17.484375 54.6875 
L 17.484375 21.921875 
Q 17.484375 14.15625 20.5 10.265625 
Q 23.53125 6.390625 29.59375 6.390625 
Q 36.859375 6.390625 41.078125 11.03125 
Q 45.3125 15.671875 45.3125 23.6875 
L 45.3125 54.6875 
L 54.296875 54.6875 
L 54.296875 0 
L 45.3125 0 
L 45.3125 8.40625 
Q 42.046875 3.421875 37.71875 1 
Q 33.40625 -1.421875 27.6875 -1.421875 
Q 18.265625 -1.421875 13.375 4.4375 
Q 8.5 10.296875 8.5 21.578125 
z
M 31.109375 56 
z
" id="DejaVuSans-117"/>
       <path d="M 18.3125 70.21875 
L 18.3125 54.6875 
L 36.8125 54.6875 
L 36.8125 47.703125 
L 18.3125 47.703125 
L 18.3125 18.015625 
Q 18.3125 11.328125 20.140625 9.421875 
Q 21.96875 7.515625 27.59375 7.515625 
L 36.8125 7.515625 
L 36.8125 0 
L 27.59375 0 
Q 17.1875 0 13.234375 3.875 
Q 9.28125 7.765625 9.28125 18.015625 
L 9.28125 47.703125 
L 2.6875 47.703125 
L 2.6875 54.6875 
L 9.28125 54.6875 
L 9.28125 70.21875 
z
" id="DejaVuSans-116"/>
       <path d="M 19.671875 64.796875 
L 19.671875 8.109375 
L 31.59375 8.109375 
Q 46.6875 8.109375 53.6875 14.9375 
Q 60.6875 21.78125 60.6875 36.53125 
Q 60.6875 51.171875 53.6875 57.984375 
Q 46.6875 64.796875 31.59375 64.796875 
z
M 9.8125 72.90625 
L 30.078125 72.90625 
Q 51.265625 72.90625 61.171875 64.09375 
Q 71.09375 55.28125 71.09375 36.53125 
Q 71.09375 17.671875 61.125 8.828125 
Q 51.171875 0 30.078125 0 
L 9.8125 0 
z
" id="DejaVuSans-68"/>
      </defs>
      <use xlink:href="#DejaVuSans-108"/>
      <use x="27.783203" xlink:href="#DejaVuSans-111"/>
      <use x="88.964844" xlink:href="#DejaVuSans-103"/>
      <use x="152.441406" xlink:href="#DejaVuSans-49"/>
      <use x="216.064453" xlink:href="#DejaVuSans-48"/>
      <use x="279.6875" xlink:href="#DejaVuSans-40"/>
      <use x="318.701172" xlink:href="#DejaVuSans-69"/>
      <use x="381.884766" xlink:href="#DejaVuSans-82"/>
      <use x="444.117188" xlink:href="#DejaVuSans-84"/>
      <use x="505.201172" xlink:href="#DejaVuSans-32"/>
      <use x="536.988281" xlink:href="#DejaVuSans-111"/>
      <use x="598.169922" xlink:href="#DejaVuSans-102"/>
      <use x="633.375" xlink:href="#DejaVuSans-32"/>
      <use x="665.162109" xlink:href="#DejaVuSans-97"/>
      <use x="726.441406" xlink:href="#DejaVuSans-108"/>
      <use x="754.224609" xlink:href="#DejaVuSans-45"/>
      <use x="790.308594" xlink:href="#DejaVuSans-100"/>
      <use x="853.785156" xlink:href="#DejaVuSans-101"/>
      <use x="915.308594" xlink:href="#DejaVuSans-102"/>
      <use x="950.513672" xlink:href="#DejaVuSans-97"/>
      <use x="1011.792969" xlink:href="#DejaVuSans-117"/>
      <use x="1075.171875" xlink:href="#DejaVuSans-108"/>
      <use x="1102.955078" xlink:href="#DejaVuSans-116"/>
      <use x="1142.164062" xlink:href="#DejaVuSans-45"/>
      <use x="1178.248047" xlink:href="#DejaVuSans-49"/>
      <use x="1241.871094" xlink:href="#DejaVuSans-54"/>
      <use x="1305.494141" xlink:href="#DejaVuSans-48"/>
      <use x="1369.117188" xlink:href="#DejaVuSans-48"/>
      <use x="1432.740234" xlink:href="#DejaVuSans-68"/>
      <use x="1509.742188" xlink:href="#DejaVuSans-41"/>
     </g>
    </g>
   </g>
   <g id="line2d_63">
    <defs>
     <path d="M -7 0 
L 7 0 
M 0 7 
L 0 -7 
" id="m1bff1596fb" style="stroke:#00bfbf;stroke-width:3;"/>
    </defs>
    <g>
     <use style="fill-opacity:0;stroke:#00bfbf;stroke-width:3;" x="109.464945" xlink:href="#m1bff1596fb" y="272.713265"/>
     <use style="fill-opacity:0;stroke:#00bfbf;stroke-width:3;" x="105.688683" xlink:href="#m1bff1596fb" y="293.656437"/>
     <use style="fill-opacity:0;stroke:#00bfbf;stroke-width:3;" x="106.272236" xlink:href="#m1bff1596fb" y="287.883977"/>
     <use style="fill-opacity:0;stroke:#00bfbf;stroke-width:3;" x="106.545703" xlink:href="#m1bff1596fb" y="285.691156"/>
     <use style="fill-opacity:0;stroke:#00bfbf;stroke-width:3;" x="106.749062" xlink:href="#m1bff1596fb" y="283.093993"/>
     <use style="fill-opacity:0;stroke:#00bfbf;stroke-width:3;" x="107.237999" xlink:href="#m1bff1596fb" y="280.379542"/>
     <use style="fill-opacity:0;stroke:#00bfbf;stroke-width:3;" x="107.610931" xlink:href="#m1bff1596fb" y="277.284861"/>
     <use style="fill-opacity:0;stroke:#00bfbf;stroke-width:3;" x="108.02815" xlink:href="#m1bff1596fb" y="275.44615"/>
     <use style="fill-opacity:0;stroke:#00bfbf;stroke-width:3;" x="108.262772" xlink:href="#m1bff1596fb" y="274.367849"/>
     <use style="fill-opacity:0;stroke:#00bfbf;stroke-width:3;" x="108.659862" xlink:href="#m1bff1596fb" y="273.082472"/>
     <use style="fill-opacity:0;stroke:#00bfbf;stroke-width:3;" x="108.993022" xlink:href="#m1bff1596fb" y="271.35151"/>
     <use style="fill-opacity:0;stroke:#00bfbf;stroke-width:3;" x="109.276641" xlink:href="#m1bff1596fb" y="270.2402"/>
     <use style="fill-opacity:0;stroke:#00bfbf;stroke-width:3;" x="109.783031" xlink:href="#m1bff1596fb" y="268.974795"/>
     <use style="fill-opacity:0;stroke:#00bfbf;stroke-width:3;" x="110.031744" xlink:href="#m1bff1596fb" y="268.051892"/>
     <use style="fill-opacity:0;stroke:#00bfbf;stroke-width:3;" x="110.323246" xlink:href="#m1bff1596fb" y="266.493873"/>
     <use style="fill-opacity:0;stroke:#00bfbf;stroke-width:3;" x="110.67469" xlink:href="#m1bff1596fb" y="264.829533"/>
     <use style="fill-opacity:0;stroke:#00bfbf;stroke-width:3;" x="110.849049" xlink:href="#m1bff1596fb" y="263.864081"/>
     <use style="fill-opacity:0;stroke:#00bfbf;stroke-width:3;" x="111.144978" xlink:href="#m1bff1596fb" y="262.81238"/>
     <use style="fill-opacity:0;stroke:#00bfbf;stroke-width:3;" x="111.318318" xlink:href="#m1bff1596fb" y="260.475405"/>
     <use style="fill-opacity:0;stroke:#00bfbf;stroke-width:3;" x="111.620711" xlink:href="#m1bff1596fb" y="259.489578"/>
     <use style="fill-opacity:0;stroke:#00bfbf;stroke-width:3;" x="112.01227" xlink:href="#m1bff1596fb" y="258.492496"/>
     <use style="fill-opacity:0;stroke:#00bfbf;stroke-width:3;" x="112.292993" xlink:href="#m1bff1596fb" y="257.834879"/>
    </g>
   </g>
   <g id="line2d_64">
    <defs>
     <path d="M -0 7 
L 7 -7 
L -7 -7 
z
" id="m447ff05938" style="stroke:#008000;stroke-linejoin:miter;stroke-width:3;"/>
    </defs>
    <g>
     <use style="fill-opacity:0;stroke:#008000;stroke-linejoin:miter;stroke-width:3;" x="147.111041" xlink:href="#m447ff05938" y="263.948129"/>
     <use style="fill-opacity:0;stroke:#008000;stroke-linejoin:miter;stroke-width:3;" x="72.819415" xlink:href="#m447ff05938" y="284.039234"/>
     <use style="fill-opacity:0;stroke:#008000;stroke-linejoin:miter;stroke-width:3;" x="78.021361" xlink:href="#m447ff05938" y="280.599856"/>
     <use style="fill-opacity:0;stroke:#008000;stroke-linejoin:miter;stroke-width:3;" x="81.795461" xlink:href="#m447ff05938" y="277.62616"/>
     <use style="fill-opacity:0;stroke:#008000;stroke-linejoin:miter;stroke-width:3;" x="83.25783" xlink:href="#m447ff05938" y="274.965415"/>
     <use style="fill-opacity:0;stroke:#008000;stroke-linejoin:miter;stroke-width:3;" x="85.085509" xlink:href="#m447ff05938" y="272.403395"/>
     <use style="fill-opacity:0;stroke:#008000;stroke-linejoin:miter;stroke-width:3;" x="86.786333" xlink:href="#m447ff05938" y="270.779402"/>
     <use style="fill-opacity:0;stroke:#008000;stroke-linejoin:miter;stroke-width:3;" x="88.28717" xlink:href="#m447ff05938" y="267.560716"/>
     <use style="fill-opacity:0;stroke:#008000;stroke-linejoin:miter;stroke-width:3;" x="89.699993" xlink:href="#m447ff05938" y="265.476838"/>
     <use style="fill-opacity:0;stroke:#008000;stroke-linejoin:miter;stroke-width:3;" x="90.787584" xlink:href="#m447ff05938" y="263.978956"/>
     <use style="fill-opacity:0;stroke:#008000;stroke-linejoin:miter;stroke-width:3;" x="91.480696" xlink:href="#m447ff05938" y="262.00417"/>
     <use style="fill-opacity:0;stroke:#008000;stroke-linejoin:miter;stroke-width:3;" x="93.362225" xlink:href="#m447ff05938" y="260.661832"/>
     <use style="fill-opacity:0;stroke:#008000;stroke-linejoin:miter;stroke-width:3;" x="94.19754" xlink:href="#m447ff05938" y="259.064945"/>
     <use style="fill-opacity:0;stroke:#008000;stroke-linejoin:miter;stroke-width:3;" x="95.078953" xlink:href="#m447ff05938" y="257.915222"/>
     <use style="fill-opacity:0;stroke:#008000;stroke-linejoin:miter;stroke-width:3;" x="95.866378" xlink:href="#m447ff05938" y="256.8778"/>
     <use style="fill-opacity:0;stroke:#008000;stroke-linejoin:miter;stroke-width:3;" x="96.896777" xlink:href="#m447ff05938" y="255.776053"/>
     <use style="fill-opacity:0;stroke:#008000;stroke-linejoin:miter;stroke-width:3;" x="97.81268" xlink:href="#m447ff05938" y="254.505264"/>
     <use style="fill-opacity:0;stroke:#008000;stroke-linejoin:miter;stroke-width:3;" x="98.503359" xlink:href="#m447ff05938" y="253.367275"/>
     <use style="fill-opacity:0;stroke:#008000;stroke-linejoin:miter;stroke-width:3;" x="99.395908" xlink:href="#m447ff05938" y="252.414312"/>
     <use style="fill-opacity:0;stroke:#008000;stroke-linejoin:miter;stroke-width:3;" x="100.045802" xlink:href="#m447ff05938" y="251.537658"/>
     <use style="fill-opacity:0;stroke:#008000;stroke-linejoin:miter;stroke-width:3;" x="100.696453" xlink:href="#m447ff05938" y="250.347718"/>
     <use style="fill-opacity:0;stroke:#008000;stroke-linejoin:miter;stroke-width:3;" x="101.382761" xlink:href="#m447ff05938" y="249.557608"/>
    </g>
   </g>
   <g id="line2d_65">
    <defs>
     <path d="M 0 -7 
L -1.571598 -2.163119 
L -6.657396 -2.163119 
L -2.542899 0.826238 
L -4.114497 5.663119 
L -0 2.673762 
L 4.114497 5.663119 
L 2.542899 0.826238 
L 6.657396 -2.163119 
L 1.571598 -2.163119 
z
" id="mbb75911927" style="stroke:#0000ff;stroke-linejoin:bevel;stroke-width:3;"/>
    </defs>
    <g>
     <use style="fill-opacity:0;stroke:#0000ff;stroke-linejoin:bevel;stroke-width:3;" x="157.091948" xlink:href="#mbb75911927" y="245.939671"/>
     <use style="fill-opacity:0;stroke:#0000ff;stroke-linejoin:bevel;stroke-width:3;" x="116.127917" xlink:href="#mbb75911927" y="273.316488"/>
     <use style="fill-opacity:0;stroke:#0000ff;stroke-linejoin:bevel;stroke-width:3;" x="121.984806" xlink:href="#mbb75911927" y="263.735535"/>
     <use style="fill-opacity:0;stroke:#0000ff;stroke-linejoin:bevel;stroke-width:3;" x="128.222378" xlink:href="#mbb75911927" y="249.175797"/>
     <use style="fill-opacity:0;stroke:#0000ff;stroke-linejoin:bevel;stroke-width:3;" x="142.592204" xlink:href="#mbb75911927" y="239.446473"/>
     <use style="fill-opacity:0;stroke:#0000ff;stroke-linejoin:bevel;stroke-width:3;" x="143.956986" xlink:href="#mbb75911927" y="232.645414"/>
     <use style="fill-opacity:0;stroke:#0000ff;stroke-linejoin:bevel;stroke-width:3;" x="145.277033" xlink:href="#mbb75911927" y="231.238122"/>
    </g>
   </g>
   <g id="line2d_66">
    <defs>
     <path d="M 0 -4 
L -0.898056 -1.236068 
L -3.804226 -1.236068 
L -1.453085 0.472136 
L -2.351141 3.236068 
L -0 1.527864 
L 2.351141 3.236068 
L 1.453085 0.472136 
L 3.804226 -1.236068 
L 0.898056 -1.236068 
z
" id="me5aeaa1882" style="stroke:#0000ff;stroke-linejoin:bevel;"/>
    </defs>
    <g>
     <use style="fill-opacity:0;stroke:#0000ff;stroke-linejoin:bevel;" x="147.230848" xlink:href="#me5aeaa1882" y="224.937075"/>
     <use style="fill-opacity:0;stroke:#0000ff;stroke-linejoin:bevel;" x="148.163601" xlink:href="#me5aeaa1882" y="224.185222"/>
     <use style="fill-opacity:0;stroke:#0000ff;stroke-linejoin:bevel;" x="149.678901" xlink:href="#me5aeaa1882" y="223.734052"/>
     <use style="fill-opacity:0;stroke:#0000ff;stroke-linejoin:bevel;" x="149.860824" xlink:href="#me5aeaa1882" y="220.552722"/>
     <use style="fill-opacity:0;stroke:#0000ff;stroke-linejoin:bevel;" x="150.135745" xlink:href="#me5aeaa1882" y="220.198882"/>
     <use style="fill-opacity:0;stroke:#0000ff;stroke-linejoin:bevel;" x="150.258571" xlink:href="#me5aeaa1882" y="219.761789"/>
     <use style="fill-opacity:0;stroke:#0000ff;stroke-linejoin:bevel;" x="150.513482" xlink:href="#me5aeaa1882" y="219.129018"/>
     <use style="fill-opacity:0;stroke:#0000ff;stroke-linejoin:bevel;" x="150.660322" xlink:href="#me5aeaa1882" y="218.690494"/>
     <use style="fill-opacity:0;stroke:#0000ff;stroke-linejoin:bevel;" x="150.808798" xlink:href="#me5aeaa1882" y="218.225346"/>
     <use style="fill-opacity:0;stroke:#0000ff;stroke-linejoin:bevel;" x="151.003502" xlink:href="#me5aeaa1882" y="217.80674"/>
     <use style="fill-opacity:0;stroke:#0000ff;stroke-linejoin:bevel;" x="151.18633" xlink:href="#me5aeaa1882" y="217.335541"/>
     <use style="fill-opacity:0;stroke:#0000ff;stroke-linejoin:bevel;" x="151.386365" xlink:href="#me5aeaa1882" y="217.040221"/>
     <use style="fill-opacity:0;stroke:#0000ff;stroke-linejoin:bevel;" x="151.566707" xlink:href="#me5aeaa1882" y="216.531699"/>
     <use style="fill-opacity:0;stroke:#0000ff;stroke-linejoin:bevel;" x="151.750253" xlink:href="#me5aeaa1882" y="216.147505"/>
     <use style="fill-opacity:0;stroke:#0000ff;stroke-linejoin:bevel;" x="151.912519" xlink:href="#me5aeaa1882" y="209.34313"/>
    </g>
   </g>
   <g id="line2d_67">
    <defs>
     <path d="M 0 7 
C 1.856422 7 3.637059 6.262436 4.949747 4.949747 
C 6.262436 3.637059 7 1.856422 7 0 
C 7 -1.856422 6.262436 -3.637059 4.949747 -4.949747 
C 3.637059 -6.262436 1.856422 -7 0 -7 
C -1.856422 -7 -3.637059 -6.262436 -4.949747 -4.949747 
C -6.262436 -3.637059 -7 -1.856422 -7 0 
C -7 1.856422 -6.262436 3.637059 -4.949747 4.949747 
C -3.637059 6.262436 -1.856422 7 0 7 
z
" id="m76058d2a5d" style="stroke:#000000;stroke-width:3;"/>
    </defs>
    <g>
     <use style="fill-opacity:0;stroke:#000000;stroke-width:3;" x="179.21545" xlink:href="#m76058d2a5d" y="227.717726"/>
     <use style="fill-opacity:0;stroke:#000000;stroke-width:3;" x="191.948324" xlink:href="#m76058d2a5d" y="224.765784"/>
     <use style="fill-opacity:0;stroke:#000000;stroke-width:3;" x="198.798632" xlink:href="#m76058d2a5d" y="213.812579"/>
    </g>
   </g>
   <g id="line2d_68">
    <defs>
     <path d="M 0 4 
C 1.060812 4 2.078319 3.578535 2.828427 2.828427 
C 3.578535 2.078319 4 1.060812 4 0 
C 4 -1.060812 3.578535 -2.078319 2.828427 -2.828427 
C 2.078319 -3.578535 1.060812 -4 0 -4 
C -1.060812 -4 -2.078319 -3.578535 -2.828427 -2.828427 
C -3.578535 -2.078319 -4 -1.060812 -4 0 
C -4 1.060812 -3.578535 2.078319 -2.828427 2.828427 
C -2.078319 3.578535 -1.060812 4 0 4 
z
" id="mf756fe55bb" style="stroke:#000000;"/>
    </defs>
    <g>
     <use style="fill-opacity:0;stroke:#000000;" x="221.072009" xlink:href="#mf756fe55bb" y="176.316438"/>
     <use style="fill-opacity:0;stroke:#000000;" x="237.557013" xlink:href="#mf756fe55bb" y="166.648216"/>
     <use style="fill-opacity:0;stroke:#000000;" x="247.93697" xlink:href="#mf756fe55bb" y="149.099093"/>
    </g>
   </g>
   <g id="line2d_69">
    <g>
     <use style="fill-opacity:0;stroke:#000000;" x="248.431572" xlink:href="#mf756fe55bb" y="26.877187"/>
     <use style="fill-opacity:0;stroke:#000000;" x="248.661367" xlink:href="#mf756fe55bb" y="26.877187"/>
     <use style="fill-opacity:0;stroke:#000000;" x="249.286296" xlink:href="#mf756fe55bb" y="26.877187"/>
    </g>
   </g>
   <g id="line2d_70">
    <g>
     <use style="fill-opacity:0;stroke:#000000;" x="319.829063" xlink:href="#mf756fe55bb" y="26.877187"/>
     <use style="fill-opacity:0;stroke:#000000;" x="319.829063" xlink:href="#mf756fe55bb" y="26.877187"/>
     <use style="fill-opacity:0;stroke:#000000;" x="319.829063" xlink:href="#mf756fe55bb" y="26.877187"/>
     <use style="fill-opacity:0;stroke:#000000;" x="319.829063" xlink:href="#mf756fe55bb" y="26.877187"/>
     <use style="fill-opacity:0;stroke:#000000;" x="319.829063" xlink:href="#mf756fe55bb" y="26.877187"/>
     <use style="fill-opacity:0;stroke:#000000;" x="319.829063" xlink:href="#mf756fe55bb" y="26.877187"/>
     <use style="fill-opacity:0;stroke:#000000;" x="319.829063" xlink:href="#mf756fe55bb" y="26.877187"/>
     <use style="fill-opacity:0;stroke:#000000;" x="319.829063" xlink:href="#mf756fe55bb" y="26.877187"/>
     <use style="fill-opacity:0;stroke:#000000;" x="319.829063" xlink:href="#mf756fe55bb" y="26.877187"/>
     <use style="fill-opacity:0;stroke:#000000;" x="319.829063" xlink:href="#mf756fe55bb" y="26.877187"/>
     <use style="fill-opacity:0;stroke:#000000;" x="319.829063" xlink:href="#mf756fe55bb" y="26.877187"/>
     <use style="fill-opacity:0;stroke:#000000;" x="319.829063" xlink:href="#mf756fe55bb" y="26.877187"/>
     <use style="fill-opacity:0;stroke:#000000;" x="319.829063" xlink:href="#mf756fe55bb" y="26.877187"/>
    </g>
   </g>
   <g id="line2d_71">
    <defs>
     <path d="M -7 7 
L 7 7 
L 7 -7 
L -7 -7 
z
" id="mf9a4e38e2f" style="stroke:#ff0000;stroke-linejoin:miter;stroke-width:3;"/>
    </defs>
    <g>
     <use style="fill-opacity:0;stroke:#ff0000;stroke-linejoin:miter;stroke-width:3;" x="201.695763" xlink:href="#mf9a4e38e2f" y="212.695598"/>
     <use style="fill-opacity:0;stroke:#ff0000;stroke-linejoin:miter;stroke-width:3;" x="214.10203" xlink:href="#mf9a4e38e2f" y="205.318427"/>
    </g>
   </g>
   <g id="line2d_72">
    <defs>
     <path d="M -4 4 
L 4 4 
L 4 -4 
L -4 -4 
z
" id="mb3c5d4a5fb" style="stroke:#ff0000;stroke-linejoin:miter;"/>
    </defs>
    <g>
     <use style="fill-opacity:0;stroke:#ff0000;stroke-linejoin:miter;" x="228.261562" xlink:href="#mb3c5d4a5fb" y="180.532175"/>
     <use style="fill-opacity:0;stroke:#ff0000;stroke-linejoin:miter;" x="241.219053" xlink:href="#mb3c5d4a5fb" y="159.881666"/>
    </g>
   </g>
   <g id="line2d_73">
    <g>
     <use style="fill-opacity:0;stroke:#ff0000;stroke-linejoin:miter;" x="247.262211" xlink:href="#mb3c5d4a5fb" y="26.877187"/>
     <use style="fill-opacity:0;stroke:#ff0000;stroke-linejoin:miter;" x="254.48843" xlink:href="#mb3c5d4a5fb" y="26.877187"/>
     <use style="fill-opacity:0;stroke:#ff0000;stroke-linejoin:miter;" x="264.526795" xlink:href="#mb3c5d4a5fb" y="26.877187"/>
     <use style="fill-opacity:0;stroke:#ff0000;stroke-linejoin:miter;" x="280.528106" xlink:href="#mb3c5d4a5fb" y="26.877187"/>
    </g>
   </g>
   <g id="line2d_74">
    <g>
     <use style="fill-opacity:0;stroke:#ff0000;stroke-linejoin:miter;" x="319.829063" xlink:href="#mb3c5d4a5fb" y="26.877187"/>
     <use style="fill-opacity:0;stroke:#ff0000;stroke-linejoin:miter;" x="319.829063" xlink:href="#mb3c5d4a5fb" y="26.877187"/>
     <use style="fill-opacity:0;stroke:#ff0000;stroke-linejoin:miter;" x="319.829063" xlink:href="#mb3c5d4a5fb" y="26.877187"/>
     <use style="fill-opacity:0;stroke:#ff0000;stroke-linejoin:miter;" x="319.829063" xlink:href="#mb3c5d4a5fb" y="26.877187"/>
     <use style="fill-opacity:0;stroke:#ff0000;stroke-linejoin:miter;" x="319.829063" xlink:href="#mb3c5d4a5fb" y="26.877187"/>
     <use style="fill-opacity:0;stroke:#ff0000;stroke-linejoin:miter;" x="319.829063" xlink:href="#mb3c5d4a5fb" y="26.877187"/>
     <use style="fill-opacity:0;stroke:#ff0000;stroke-linejoin:miter;" x="319.829063" xlink:href="#mb3c5d4a5fb" y="26.877187"/>
     <use style="fill-opacity:0;stroke:#ff0000;stroke-linejoin:miter;" x="319.829063" xlink:href="#mb3c5d4a5fb" y="26.877187"/>
     <use style="fill-opacity:0;stroke:#ff0000;stroke-linejoin:miter;" x="319.829063" xlink:href="#mb3c5d4a5fb" y="26.877187"/>
     <use style="fill-opacity:0;stroke:#ff0000;stroke-linejoin:miter;" x="319.829063" xlink:href="#mb3c5d4a5fb" y="26.877187"/>
     <use style="fill-opacity:0;stroke:#ff0000;stroke-linejoin:miter;" x="319.829063" xlink:href="#mb3c5d4a5fb" y="26.877187"/>
     <use style="fill-opacity:0;stroke:#ff0000;stroke-linejoin:miter;" x="319.829063" xlink:href="#mb3c5d4a5fb" y="26.877187"/>
     <use style="fill-opacity:0;stroke:#ff0000;stroke-linejoin:miter;" x="319.829063" xlink:href="#mb3c5d4a5fb" y="26.877187"/>
     <use style="fill-opacity:0;stroke:#ff0000;stroke-linejoin:miter;" x="319.829063" xlink:href="#mb3c5d4a5fb" y="26.877187"/>
    </g>
   </g>
   <g id="line2d_75">
    <defs>
     <path d="M -0 9.899495 
L 9.899495 0 
L 0 -9.899495 
L -9.899495 -0 
z
" id="mf52e260c6e" style="stroke:#bf00bf;stroke-linejoin:miter;stroke-width:3;"/>
    </defs>
    <g>
     <use style="fill-opacity:0;stroke:#bf00bf;stroke-linejoin:miter;stroke-width:3;" x="228.270565" xlink:href="#mf52e260c6e" y="195.863106"/>
    </g>
   </g>
   <g id="line2d_76">
    <defs>
     <path d="M -0 5.656854 
L 5.656854 0 
L 0 -5.656854 
L -5.656854 -0 
z
" id="ma6c662e859" style="stroke:#bf00bf;stroke-linejoin:miter;"/>
    </defs>
    <g>
     <use style="fill-opacity:0;stroke:#bf00bf;stroke-linejoin:miter;" x="241.175184" xlink:href="#ma6c662e859" y="171.425481"/>
     <use style="fill-opacity:0;stroke:#bf00bf;stroke-linejoin:miter;" x="254.571428" xlink:href="#ma6c662e859" y="155.93146"/>
     <use style="fill-opacity:0;stroke:#bf00bf;stroke-linejoin:miter;" x="265.681615" xlink:href="#ma6c662e859" y="142.041422"/>
    </g>
   </g>
   <g id="line2d_77">
    <g>
     <use style="fill-opacity:0;stroke:#bf00bf;stroke-linejoin:miter;" x="273.806035" xlink:href="#ma6c662e859" y="26.877187"/>
     <use style="fill-opacity:0;stroke:#bf00bf;stroke-linejoin:miter;" x="308.066698" xlink:href="#ma6c662e859" y="26.877187"/>
    </g>
   </g>
   <g id="line2d_78">
    <g>
     <use style="fill-opacity:0;stroke:#bf00bf;stroke-linejoin:miter;" x="319.829063" xlink:href="#ma6c662e859" y="26.877187"/>
     <use style="fill-opacity:0;stroke:#bf00bf;stroke-linejoin:miter;" x="319.829063" xlink:href="#ma6c662e859" y="26.877187"/>
     <use style="fill-opacity:0;stroke:#bf00bf;stroke-linejoin:miter;" x="319.829063" xlink:href="#ma6c662e859" y="26.877187"/>
     <use style="fill-opacity:0;stroke:#bf00bf;stroke-linejoin:miter;" x="319.829063" xlink:href="#ma6c662e859" y="26.877187"/>
     <use style="fill-opacity:0;stroke:#bf00bf;stroke-linejoin:miter;" x="319.829063" xlink:href="#ma6c662e859" y="26.877187"/>
     <use style="fill-opacity:0;stroke:#bf00bf;stroke-linejoin:miter;" x="319.829063" xlink:href="#ma6c662e859" y="26.877187"/>
     <use style="fill-opacity:0;stroke:#bf00bf;stroke-linejoin:miter;" x="319.829063" xlink:href="#ma6c662e859" y="26.877187"/>
     <use style="fill-opacity:0;stroke:#bf00bf;stroke-linejoin:miter;" x="319.829063" xlink:href="#ma6c662e859" y="26.877187"/>
     <use style="fill-opacity:0;stroke:#bf00bf;stroke-linejoin:miter;" x="319.829063" xlink:href="#ma6c662e859" y="26.877187"/>
     <use style="fill-opacity:0;stroke:#bf00bf;stroke-linejoin:miter;" x="319.829063" xlink:href="#ma6c662e859" y="26.877187"/>
     <use style="fill-opacity:0;stroke:#bf00bf;stroke-linejoin:miter;" x="319.829063" xlink:href="#ma6c662e859" y="26.877187"/>
     <use style="fill-opacity:0;stroke:#bf00bf;stroke-linejoin:miter;" x="319.829063" xlink:href="#ma6c662e859" y="26.877187"/>
     <use style="fill-opacity:0;stroke:#bf00bf;stroke-linejoin:miter;" x="319.829063" xlink:href="#ma6c662e859" y="26.877187"/>
     <use style="fill-opacity:0;stroke:#bf00bf;stroke-linejoin:miter;" x="319.829063" xlink:href="#ma6c662e859" y="26.877187"/>
     <use style="fill-opacity:0;stroke:#bf00bf;stroke-linejoin:miter;" x="319.829063" xlink:href="#ma6c662e859" y="26.877187"/>
     <use style="fill-opacity:0;stroke:#bf00bf;stroke-linejoin:miter;" x="319.829063" xlink:href="#ma6c662e859" y="26.877187"/>
    </g>
   </g>
   <g id="line2d_79">
    <path clip-path="url(#pd36961fef1)" d="M 45.469063 301.237187 
L 319.829062 26.877187 
" style="fill:none;stroke:#000000;stroke-linecap:square;stroke-width:1.5;"/>
   </g>
   <g id="line2d_80">
    <path clip-path="url(#pd36961fef1)" d="M 98.065828 301.237187 
L 332.029063 67.273953 
" style="fill:none;stroke:#d3d3d3;stroke-linecap:square;"/>
   </g>
   <g id="line2d_81">
    <path clip-path="url(#pd36961fef1)" d="M 150.662594 301.237187 
L 332.029063 119.870719 
" style="fill:none;stroke:#d3d3d3;stroke-linecap:square;"/>
   </g>
   <g id="line2d_82">
    <path clip-path="url(#pd36961fef1)" d="M 45.469063 248.640422 
L 295.109484 -1 
" style="fill:none;stroke:#d3d3d3;stroke-linecap:square;"/>
   </g>
   <g id="line2d_83">
    <path clip-path="url(#pd36961fef1)" d="M 45.469063 196.043656 
L 242.512719 -1 
" style="fill:none;stroke:#d3d3d3;stroke-linecap:square;"/>
   </g>
   <g id="patch_3">
    <path d="M 45.469063 301.237187 
L 45.469063 26.877187 
" style="fill:none;stroke:#000000;stroke-linecap:square;stroke-linejoin:miter;stroke-width:0.8;"/>
   </g>
   <g id="patch_4">
    <path d="M 319.829063 301.237187 
L 319.829063 26.877187 
" style="fill:none;stroke:#000000;stroke-linecap:square;stroke-linejoin:miter;stroke-width:0.8;"/>
   </g>
   <g id="patch_5">
    <path d="M 45.469063 301.237187 
L 319.829062 301.237187 
" style="fill:none;stroke:#000000;stroke-linecap:square;stroke-linejoin:miter;stroke-width:0.8;"/>
   </g>
   <g id="patch_6">
    <path d="M 45.469063 26.877187 
L 319.829062 26.877187 
" style="fill:none;stroke:#000000;stroke-linecap:square;stroke-linejoin:miter;stroke-width:0.8;"/>
   </g>
   <g id="text_7">
    <!-- 22 targets: 3e21..1e-6 -->
    <g transform="translate(48.212663 40.114794)scale(0.102 -0.102)">
     <defs>
      <path d="M 19.1875 8.296875 
L 53.609375 8.296875 
L 53.609375 0 
L 7.328125 0 
L 7.328125 8.296875 
Q 12.9375 14.109375 22.625 23.890625 
Q 32.328125 33.6875 34.8125 36.53125 
Q 39.546875 41.84375 41.421875 45.53125 
Q 43.3125 49.21875 43.3125 52.78125 
Q 43.3125 58.59375 39.234375 62.25 
Q 35.15625 65.921875 28.609375 65.921875 
Q 23.96875 65.921875 18.8125 64.3125 
Q 13.671875 62.703125 7.8125 59.421875 
L 7.8125 69.390625 
Q 13.765625 71.78125 18.9375 73 
Q 24.125 74.21875 28.421875 74.21875 
Q 39.75 74.21875 46.484375 68.546875 
Q 53.21875 62.890625 53.21875 53.421875 
Q 53.21875 48.921875 51.53125 44.890625 
Q 49.859375 40.875 45.40625 35.40625 
Q 44.1875 33.984375 37.640625 27.21875 
Q 31.109375 20.453125 19.1875 8.296875 
z
" id="DejaVuSans-50"/>
      <path d="M 41.109375 46.296875 
Q 39.59375 47.171875 37.8125 47.578125 
Q 36.03125 48 33.890625 48 
Q 26.265625 48 22.1875 43.046875 
Q 18.109375 38.09375 18.109375 28.8125 
L 18.109375 0 
L 9.078125 0 
L 9.078125 54.6875 
L 18.109375 54.6875 
L 18.109375 46.1875 
Q 20.953125 51.171875 25.484375 53.578125 
Q 30.03125 56 36.53125 56 
Q 37.453125 56 38.578125 55.875 
Q 39.703125 55.765625 41.0625 55.515625 
z
" id="DejaVuSans-114"/>
      <path d="M 44.28125 53.078125 
L 44.28125 44.578125 
Q 40.484375 46.53125 36.375 47.5 
Q 32.28125 48.484375 27.875 48.484375 
Q 21.1875 48.484375 17.84375 46.4375 
Q 14.5 44.390625 14.5 40.28125 
Q 14.5 37.15625 16.890625 35.375 
Q 19.28125 33.59375 26.515625 31.984375 
L 29.59375 31.296875 
Q 39.15625 29.25 43.1875 25.515625 
Q 47.21875 21.78125 47.21875 15.09375 
Q 47.21875 7.46875 41.1875 3.015625 
Q 35.15625 -1.421875 24.609375 -1.421875 
Q 20.21875 -1.421875 15.453125 -0.5625 
Q 10.6875 0.296875 5.421875 2 
L 5.421875 11.28125 
Q 10.40625 8.6875 15.234375 7.390625 
Q 20.0625 6.109375 24.8125 6.109375 
Q 31.15625 6.109375 34.5625 8.28125 
Q 37.984375 10.453125 37.984375 14.40625 
Q 37.984375 18.0625 35.515625 20.015625 
Q 33.0625 21.96875 24.703125 23.78125 
L 21.578125 24.515625 
Q 13.234375 26.265625 9.515625 29.90625 
Q 5.8125 33.546875 5.8125 39.890625 
Q 5.8125 47.609375 11.28125 51.796875 
Q 16.75 56 26.8125 56 
Q 31.78125 56 36.171875 55.265625 
Q 40.578125 54.546875 44.28125 53.078125 
z
" id="DejaVuSans-115"/>
      <path d="M 11.71875 12.40625 
L 22.015625 12.40625 
L 22.015625 0 
L 11.71875 0 
z
M 11.71875 51.703125 
L 22.015625 51.703125 
L 22.015625 39.3125 
L 11.71875 39.3125 
z
" id="DejaVuSans-58"/>
      <path d="M 10.6875 12.40625 
L 21 12.40625 
L 21 0 
L 10.6875 0 
z
" id="DejaVuSans-46"/>
     </defs>
     <use xlink:href="#DejaVuSans-50"/>
     <use x="63.623047" xlink:href="#DejaVuSans-50"/>
     <use x="127.246094" xlink:href="#DejaVuSans-32"/>
     <use x="159.033203" xlink:href="#DejaVuSans-116"/>
     <use x="198.242188" xlink:href="#DejaVuSans-97"/>
     <use x="259.521484" xlink:href="#DejaVuSans-114"/>
     <use x="298.884766" xlink:href="#DejaVuSans-103"/>
     <use x="362.361328" xlink:href="#DejaVuSans-101"/>
     <use x="423.884766" xlink:href="#DejaVuSans-116"/>
     <use x="463.09375" xlink:href="#DejaVuSans-115"/>
     <use x="515.193359" xlink:href="#DejaVuSans-58"/>
     <use x="548.884766" xlink:href="#DejaVuSans-32"/>
     <use x="580.671875" xlink:href="#DejaVuSans-51"/>
     <use x="644.294922" xlink:href="#DejaVuSans-101"/>
     <use x="705.818359" xlink:href="#DejaVuSans-50"/>
     <use x="769.441406" xlink:href="#DejaVuSans-49"/>
     <use x="833.064453" xlink:href="#DejaVuSans-46"/>
     <use x="864.851562" xlink:href="#DejaVuSans-46"/>
     <use x="896.638672" xlink:href="#DejaVuSans-49"/>
     <use x="960.261719" xlink:href="#DejaVuSans-101"/>
     <use x="1021.785156" xlink:href="#DejaVuSans-45"/>
     <use x="1057.869141" xlink:href="#DejaVuSans-54"/>
    </g>
    <!-- 15 and 15 instances -->
    <g transform="translate(48.212663 51.536562)scale(0.102 -0.102)">
     <defs>
      <path d="M 10.796875 72.90625 
L 49.515625 72.90625 
L 49.515625 64.59375 
L 19.828125 64.59375 
L 19.828125 46.734375 
Q 21.96875 47.46875 24.109375 47.828125 
Q 26.265625 48.1875 28.421875 48.1875 
Q 40.625 48.1875 47.75 41.5 
Q 54.890625 34.8125 54.890625 23.390625 
Q 54.890625 11.625 47.5625 5.09375 
Q 40.234375 -1.421875 26.90625 -1.421875 
Q 22.3125 -1.421875 17.546875 -0.640625 
Q 12.796875 0.140625 7.71875 1.703125 
L 7.71875 11.625 
Q 12.109375 9.234375 16.796875 8.0625 
Q 21.484375 6.890625 26.703125 6.890625 
Q 35.15625 6.890625 40.078125 11.328125 
Q 45.015625 15.765625 45.015625 23.390625 
Q 45.015625 31 40.078125 35.4375 
Q 35.15625 39.890625 26.703125 39.890625 
Q 22.75 39.890625 18.8125 39.015625 
Q 14.890625 38.140625 10.796875 36.28125 
z
" id="DejaVuSans-53"/>
      <path d="M 54.890625 33.015625 
L 54.890625 0 
L 45.90625 0 
L 45.90625 32.71875 
Q 45.90625 40.484375 42.875 44.328125 
Q 39.84375 48.1875 33.796875 48.1875 
Q 26.515625 48.1875 22.3125 43.546875 
Q 18.109375 38.921875 18.109375 30.90625 
L 18.109375 0 
L 9.078125 0 
L 9.078125 54.6875 
L 18.109375 54.6875 
L 18.109375 46.1875 
Q 21.34375 51.125 25.703125 53.5625 
Q 30.078125 56 35.796875 56 
Q 45.21875 56 50.046875 50.171875 
Q 54.890625 44.34375 54.890625 33.015625 
z
" id="DejaVuSans-110"/>
      <path d="M 9.421875 54.6875 
L 18.40625 54.6875 
L 18.40625 0 
L 9.421875 0 
z
M 9.421875 75.984375 
L 18.40625 75.984375 
L 18.40625 64.59375 
L 9.421875 64.59375 
z
" id="DejaVuSans-105"/>
      <path d="M 48.78125 52.59375 
L 48.78125 44.1875 
Q 44.96875 46.296875 41.140625 47.34375 
Q 37.3125 48.390625 33.40625 48.390625 
Q 24.65625 48.390625 19.8125 42.84375 
Q 14.984375 37.3125 14.984375 27.296875 
Q 14.984375 17.28125 19.8125 11.734375 
Q 24.65625 6.203125 33.40625 6.203125 
Q 37.3125 6.203125 41.140625 7.25 
Q 44.96875 8.296875 48.78125 10.40625 
L 48.78125 2.09375 
Q 45.015625 0.34375 40.984375 -0.53125 
Q 36.96875 -1.421875 32.421875 -1.421875 
Q 20.0625 -1.421875 12.78125 6.34375 
Q 5.515625 14.109375 5.515625 27.296875 
Q 5.515625 40.671875 12.859375 48.328125 
Q 20.21875 56 33.015625 56 
Q 37.15625 56 41.109375 55.140625 
Q 45.0625 54.296875 48.78125 52.59375 
z
" id="DejaVuSans-99"/>
     </defs>
     <use xlink:href="#DejaVuSans-49"/>
     <use x="63.623047" xlink:href="#DejaVuSans-53"/>
     <use x="127.246094" xlink:href="#DejaVuSans-32"/>
     <use x="159.033203" xlink:href="#DejaVuSans-97"/>
     <use x="220.3125" xlink:href="#DejaVuSans-110"/>
     <use x="283.691406" xlink:href="#DejaVuSans-100"/>
     <use x="347.167969" xlink:href="#DejaVuSans-32"/>
     <use x="378.955078" xlink:href="#DejaVuSans-49"/>
     <use x="442.578125" xlink:href="#DejaVuSans-53"/>
     <use x="506.201172" xlink:href="#DejaVuSans-32"/>
     <use x="537.988281" xlink:href="#DejaVuSans-105"/>
     <use x="565.771484" xlink:href="#DejaVuSans-110"/>
     <use x="629.150391" xlink:href="#DejaVuSans-115"/>
     <use x="681.25" xlink:href="#DejaVuSans-116"/>
     <use x="720.458984" xlink:href="#DejaVuSans-97"/>
     <use x="781.738281" xlink:href="#DejaVuSans-110"/>
     <use x="845.117188" xlink:href="#DejaVuSans-99"/>
     <use x="900.097656" xlink:href="#DejaVuSans-101"/>
     <use x="961.621094" xlink:href="#DejaVuSans-115"/>
    </g>
   </g>
   <g id="text_8">
    <!-- v2.6.1.9 -->
    <g style="fill:#808080;" transform="translate(162.1975 296.4139)scale(0.1 -0.1)">
     <defs>
      <path d="M 2.984375 54.6875 
L 12.5 54.6875 
L 29.59375 8.796875 
L 46.6875 54.6875 
L 56.203125 54.6875 
L 35.6875 0 
L 23.484375 0 
z
" id="DejaVuSans-118"/>
      <path d="M 10.984375 1.515625 
L 10.984375 10.5 
Q 14.703125 8.734375 18.5 7.8125 
Q 22.3125 6.890625 25.984375 6.890625 
Q 35.75 6.890625 40.890625 13.453125 
Q 46.046875 20.015625 46.78125 33.40625 
Q 43.953125 29.203125 39.59375 26.953125 
Q 35.25 24.703125 29.984375 24.703125 
Q 19.046875 24.703125 12.671875 31.3125 
Q 6.296875 37.9375 6.296875 49.421875 
Q 6.296875 60.640625 12.9375 67.421875 
Q 19.578125 74.21875 30.609375 74.21875 
Q 43.265625 74.21875 49.921875 64.515625 
Q 56.59375 54.828125 56.59375 36.375 
Q 56.59375 19.140625 48.40625 8.859375 
Q 40.234375 -1.421875 26.421875 -1.421875 
Q 22.703125 -1.421875 18.890625 -0.6875 
Q 15.09375 0.046875 10.984375 1.515625 
z
M 30.609375 32.421875 
Q 37.25 32.421875 41.125 36.953125 
Q 45.015625 41.5 45.015625 49.421875 
Q 45.015625 57.28125 41.125 61.84375 
Q 37.25 66.40625 30.609375 66.40625 
Q 23.96875 66.40625 20.09375 61.84375 
Q 16.21875 57.28125 16.21875 49.421875 
Q 16.21875 41.5 20.09375 36.953125 
Q 23.96875 32.421875 30.609375 32.421875 
z
" id="DejaVuSans-57"/>
     </defs>
     <use xlink:href="#DejaVuSans-118"/>
     <use x="59.179688" xlink:href="#DejaVuSans-50"/>
     <use x="122.802734" xlink:href="#DejaVuSans-46"/>
     <use x="154.589844" xlink:href="#DejaVuSans-54"/>
     <use x="218.212891" xlink:href="#DejaVuSans-46"/>
     <use x="250" xlink:href="#DejaVuSans-49"/>
     <use x="313.623047" xlink:href="#DejaVuSans-46"/>
     <use x="345.410156" xlink:href="#DejaVuSans-57"/>
    </g>
   </g>
   <g id="text_9">
    <!-- 28 Discus, m=9+int(3n/4) -->
    <g transform="translate(64.636563 20.877187)scale(0.18 -0.18)">
     <defs>
      <path d="M 31.78125 34.625 
Q 24.75 34.625 20.71875 30.859375 
Q 16.703125 27.09375 16.703125 20.515625 
Q 16.703125 13.921875 20.71875 10.15625 
Q 24.75 6.390625 31.78125 6.390625 
Q 38.8125 6.390625 42.859375 10.171875 
Q 46.921875 13.96875 46.921875 20.515625 
Q 46.921875 27.09375 42.890625 30.859375 
Q 38.875 34.625 31.78125 34.625 
z
M 21.921875 38.8125 
Q 15.578125 40.375 12.03125 44.71875 
Q 8.5 49.078125 8.5 55.328125 
Q 8.5 64.0625 14.71875 69.140625 
Q 20.953125 74.21875 31.78125 74.21875 
Q 42.671875 74.21875 48.875 69.140625 
Q 55.078125 64.0625 55.078125 55.328125 
Q 55.078125 49.078125 51.53125 44.71875 
Q 48 40.375 41.703125 38.8125 
Q 48.828125 37.15625 52.796875 32.3125 
Q 56.78125 27.484375 56.78125 20.515625 
Q 56.78125 9.90625 50.3125 4.234375 
Q 43.84375 -1.421875 31.78125 -1.421875 
Q 19.734375 -1.421875 13.25 4.234375 
Q 6.78125 9.90625 6.78125 20.515625 
Q 6.78125 27.484375 10.78125 32.3125 
Q 14.796875 37.15625 21.921875 38.8125 
z
M 18.3125 54.390625 
Q 18.3125 48.734375 21.84375 45.5625 
Q 25.390625 42.390625 31.78125 42.390625 
Q 38.140625 42.390625 41.71875 45.5625 
Q 45.3125 48.734375 45.3125 54.390625 
Q 45.3125 60.0625 41.71875 63.234375 
Q 38.140625 66.40625 31.78125 66.40625 
Q 25.390625 66.40625 21.84375 63.234375 
Q 18.3125 60.0625 18.3125 54.390625 
z
" id="DejaVuSans-56"/>
      <path d="M 11.71875 12.40625 
L 22.015625 12.40625 
L 22.015625 4 
L 14.015625 -11.625 
L 7.71875 -11.625 
L 11.71875 4 
z
" id="DejaVuSans-44"/>
      <path d="M 52 44.1875 
Q 55.375 50.25 60.0625 53.125 
Q 64.75 56 71.09375 56 
Q 79.640625 56 84.28125 50.015625 
Q 88.921875 44.046875 88.921875 33.015625 
L 88.921875 0 
L 79.890625 0 
L 79.890625 32.71875 
Q 79.890625 40.578125 77.09375 44.375 
Q 74.3125 48.1875 68.609375 48.1875 
Q 61.625 48.1875 57.5625 43.546875 
Q 53.515625 38.921875 53.515625 30.90625 
L 53.515625 0 
L 44.484375 0 
L 44.484375 32.71875 
Q 44.484375 40.625 41.703125 44.40625 
Q 38.921875 48.1875 33.109375 48.1875 
Q 26.21875 48.1875 22.15625 43.53125 
Q 18.109375 38.875 18.109375 30.90625 
L 18.109375 0 
L 9.078125 0 
L 9.078125 54.6875 
L 18.109375 54.6875 
L 18.109375 46.1875 
Q 21.1875 51.21875 25.484375 53.609375 
Q 29.78125 56 35.6875 56 
Q 41.65625 56 45.828125 52.96875 
Q 50 49.953125 52 44.1875 
z
" id="DejaVuSans-109"/>
      <path d="M 10.59375 45.40625 
L 73.1875 45.40625 
L 73.1875 37.203125 
L 10.59375 37.203125 
z
M 10.59375 25.484375 
L 73.1875 25.484375 
L 73.1875 17.1875 
L 10.59375 17.1875 
z
" id="DejaVuSans-61"/>
      <path d="M 46 62.703125 
L 46 35.5 
L 73.1875 35.5 
L 73.1875 27.203125 
L 46 27.203125 
L 46 0 
L 37.796875 0 
L 37.796875 27.203125 
L 10.59375 27.203125 
L 10.59375 35.5 
L 37.796875 35.5 
L 37.796875 62.703125 
z
" id="DejaVuSans-43"/>
      <path d="M 25.390625 72.90625 
L 33.6875 72.90625 
L 8.296875 -9.28125 
L 0 -9.28125 
z
" id="DejaVuSans-47"/>
     </defs>
     <use xlink:href="#DejaVuSans-50"/>
     <use x="63.623047" xlink:href="#DejaVuSans-56"/>
     <use x="127.246094" xlink:href="#DejaVuSans-32"/>
     <use x="159.033203" xlink:href="#DejaVuSans-68"/>
     <use x="236.035156" xlink:href="#DejaVuSans-105"/>
     <use x="263.818359" xlink:href="#DejaVuSans-115"/>
     <use x="315.917969" xlink:href="#DejaVuSans-99"/>
     <use x="370.898438" xlink:href="#DejaVuSans-117"/>
     <use x="434.277344" xlink:href="#DejaVuSans-115"/>
     <use x="486.376953" xlink:href="#DejaVuSans-44"/>
     <use x="518.164062" xlink:href="#DejaVuSans-32"/>
     <use x="549.951172" xlink:href="#DejaVuSans-109"/>
     <use x="647.363281" xlink:href="#DejaVuSans-61"/>
     <use x="731.152344" xlink:href="#DejaVuSans-57"/>
     <use x="794.775391" xlink:href="#DejaVuSans-43"/>
     <use x="878.564453" xlink:href="#DejaVuSans-105"/>
     <use x="906.347656" xlink:href="#DejaVuSans-110"/>
     <use x="969.726562" xlink:href="#DejaVuSans-116"/>
     <use x="1008.935547" xlink:href="#DejaVuSans-40"/>
     <use x="1047.949219" xlink:href="#DejaVuSans-51"/>
     <use x="1111.572266" xlink:href="#DejaVuSans-110"/>
     <use x="1174.951172" xlink:href="#DejaVuSans-47"/>
     <use x="1208.642578" xlink:href="#DejaVuSans-52"/>
     <use x="1272.265625" xlink:href="#DejaVuSans-41"/>
    </g>
   </g>
  </g>
 </g>
 <defs>
  <clipPath id="pd36961fef1">
   <rect height="274.36" width="274.36" x="45.469063" y="26.877187"/>
  </clipPath>
 </defs>
</svg>
