<?xml version="1.0" encoding="utf-8" standalone="no"?>
<!DOCTYPE svg PUBLIC "-//W3C//DTD SVG 1.1//EN"
  "http://www.w3.org/Graphics/SVG/1.1/DTD/svg11.dtd">
<!-- Created with matplotlib (https://matplotlib.org/) -->
<svg height="345.6pt" version="1.1" viewBox="0 0 460.8 345.6" width="460.8pt" xmlns="http://www.w3.org/2000/svg" xmlns:xlink="http://www.w3.org/1999/xlink">
 <metadata>
  <rdf:RDF xmlns:cc="http://creativecommons.org/ns#" xmlns:dc="http://purl.org/dc/elements/1.1/" xmlns:rdf="http://www.w3.org/1999/02/22-rdf-syntax-ns#">
   <cc:Work>
    <dc:type rdf:resource="http://purl.org/dc/dcmitype/StillImage"/>
    <dc:date>2022-04-06T11:31:51.801600</dc:date>
    <dc:format>image/svg+xml</dc:format>
    <dc:creator>
     <cc:Agent>
      <dc:title>Matplotlib v3.3.3, https://matplotlib.org/</dc:title>
     </cc:Agent>
    </dc:creator>
   </cc:Work>
  </rdf:RDF>
 </metadata>
 <defs>
  <style type="text/css">*{stroke-linecap:butt;stroke-linejoin:round;}</style>
 </defs>
 <g id="figure_1">
  <g id="patch_1">
   <path d="M 0 345.6 
L 460.8 345.6 
L 460.8 0 
L 0 0 
z
" style="fill:#ffffff;"/>
  </g>
  <g id="axes_1">
   <g id="patch_2">
    <path d="M 57.6 298.944 
L 360.8064 298.944 
L 360.8064 27.648 
L 57.6 27.648 
z
" style="fill:#ffffff;"/>
   </g>
   <g id="matplotlib.axis_1">
    <g id="xtick_1">
     <g id="line2d_1">
      <path clip-path="url(#p669457d1eb)" d="M 57.6 298.944 
L 57.6 27.648 
" style="fill:none;stroke:#b0b0b0;stroke-linecap:square;stroke-width:0.8;"/>
     </g>
     <g id="line2d_2">
      <defs>
       <path d="M 0 0 
L 0 3.5 
" id="m7aa8be2442" style="stroke:#000000;stroke-width:0.8;"/>
      </defs>
      <g>
       <use style="stroke:#000000;stroke-width:0.8;" x="57.6" xlink:href="#m7aa8be2442" y="298.944"/>
      </g>
     </g>
     <g id="text_1">
      <!-- 0 -->
      <g transform="translate(52.191875 318.861344)scale(0.17 -0.17)">
       <defs>
        <path d="M 31.78125 66.40625 
Q 24.171875 66.40625 20.328125 58.90625 
Q 16.5 51.421875 16.5 36.375 
Q 16.5 21.390625 20.328125 13.890625 
Q 24.171875 6.390625 31.78125 6.390625 
Q 39.453125 6.390625 43.28125 13.890625 
Q 47.125 21.390625 47.125 36.375 
Q 47.125 51.421875 43.28125 58.90625 
Q 39.453125 66.40625 31.78125 66.40625 
z
M 31.78125 74.21875 
Q 44.046875 74.21875 50.515625 64.515625 
Q 56.984375 54.828125 56.984375 36.375 
Q 56.984375 17.96875 50.515625 8.265625 
Q 44.046875 -1.421875 31.78125 -1.421875 
Q 19.53125 -1.421875 13.0625 8.265625 
Q 6.59375 17.96875 6.59375 36.375 
Q 6.59375 54.828125 13.0625 64.515625 
Q 19.53125 74.21875 31.78125 74.21875 
z
" id="DejaVuSans-48"/>
       </defs>
       <use xlink:href="#DejaVuSans-48"/>
      </g>
     </g>
    </g>
    <g id="xtick_2">
     <g id="line2d_3">
      <path clip-path="url(#p669457d1eb)" d="M 144.2304 298.944 
L 144.2304 27.648 
" style="fill:none;stroke:#b0b0b0;stroke-linecap:square;stroke-width:0.8;"/>
     </g>
     <g id="line2d_4">
      <g>
       <use style="stroke:#000000;stroke-width:0.8;" x="144.2304" xlink:href="#m7aa8be2442" y="298.944"/>
      </g>
     </g>
     <g id="text_2">
      <!-- 2 -->
      <g transform="translate(138.822275 318.861344)scale(0.17 -0.17)">
       <defs>
        <path d="M 19.1875 8.296875 
L 53.609375 8.296875 
L 53.609375 0 
L 7.328125 0 
L 7.328125 8.296875 
Q 12.9375 14.109375 22.625 23.890625 
Q 32.328125 33.6875 34.8125 36.53125 
Q 39.546875 41.84375 41.421875 45.53125 
Q 43.3125 49.21875 43.3125 52.78125 
Q 43.3125 58.59375 39.234375 62.25 
Q 35.15625 65.921875 28.609375 65.921875 
Q 23.96875 65.921875 18.8125 64.3125 
Q 13.671875 62.703125 7.8125 59.421875 
L 7.8125 69.390625 
Q 13.765625 71.78125 18.9375 73 
Q 24.125 74.21875 28.421875 74.21875 
Q 39.75 74.21875 46.484375 68.546875 
Q 53.21875 62.890625 53.21875 53.421875 
Q 53.21875 48.921875 51.53125 44.890625 
Q 49.859375 40.875 45.40625 35.40625 
Q 44.1875 33.984375 37.640625 27.21875 
Q 31.109375 20.453125 19.1875 8.296875 
z
" id="DejaVuSans-50"/>
       </defs>
       <use xlink:href="#DejaVuSans-50"/>
      </g>
     </g>
    </g>
    <g id="xtick_3">
     <g id="line2d_5">
      <path clip-path="url(#p669457d1eb)" d="M 230.8608 298.944 
L 230.8608 27.648 
" style="fill:none;stroke:#b0b0b0;stroke-linecap:square;stroke-width:0.8;"/>
     </g>
     <g id="line2d_6">
      <g>
       <use style="stroke:#000000;stroke-width:0.8;" x="230.8608" xlink:href="#m7aa8be2442" y="298.944"/>
      </g>
     </g>
     <g id="text_3">
      <!-- 4 -->
      <g transform="translate(225.452675 318.861344)scale(0.17 -0.17)">
       <defs>
        <path d="M 37.796875 64.3125 
L 12.890625 25.390625 
L 37.796875 25.390625 
z
M 35.203125 72.90625 
L 47.609375 72.90625 
L 47.609375 25.390625 
L 58.015625 25.390625 
L 58.015625 17.1875 
L 47.609375 17.1875 
L 47.609375 0 
L 37.796875 0 
L 37.796875 17.1875 
L 4.890625 17.1875 
L 4.890625 26.703125 
z
" id="DejaVuSans-52"/>
       </defs>
       <use xlink:href="#DejaVuSans-52"/>
      </g>
     </g>
    </g>
    <g id="xtick_4">
     <g id="line2d_7">
      <path clip-path="url(#p669457d1eb)" d="M 317.4912 298.944 
L 317.4912 27.648 
" style="fill:none;stroke:#b0b0b0;stroke-linecap:square;stroke-width:0.8;"/>
     </g>
     <g id="line2d_8">
      <g>
       <use style="stroke:#000000;stroke-width:0.8;" x="317.4912" xlink:href="#m7aa8be2442" y="298.944"/>
      </g>
     </g>
     <g id="text_4">
      <!-- 6 -->
      <g transform="translate(312.083075 318.861344)scale(0.17 -0.17)">
       <defs>
        <path d="M 33.015625 40.375 
Q 26.375 40.375 22.484375 35.828125 
Q 18.609375 31.296875 18.609375 23.390625 
Q 18.609375 15.53125 22.484375 10.953125 
Q 26.375 6.390625 33.015625 6.390625 
Q 39.65625 6.390625 43.53125 10.953125 
Q 47.40625 15.53125 47.40625 23.390625 
Q 47.40625 31.296875 43.53125 35.828125 
Q 39.65625 40.375 33.015625 40.375 
z
M 52.59375 71.296875 
L 52.59375 62.3125 
Q 48.875 64.0625 45.09375 64.984375 
Q 41.3125 65.921875 37.59375 65.921875 
Q 27.828125 65.921875 22.671875 59.328125 
Q 17.53125 52.734375 16.796875 39.40625 
Q 19.671875 43.65625 24.015625 45.921875 
Q 28.375 48.1875 33.59375 48.1875 
Q 44.578125 48.1875 50.953125 41.515625 
Q 57.328125 34.859375 57.328125 23.390625 
Q 57.328125 12.15625 50.6875 5.359375 
Q 44.046875 -1.421875 33.015625 -1.421875 
Q 20.359375 -1.421875 13.671875 8.265625 
Q 6.984375 17.96875 6.984375 36.375 
Q 6.984375 53.65625 15.1875 63.9375 
Q 23.390625 74.21875 37.203125 74.21875 
Q 40.921875 74.21875 44.703125 73.484375 
Q 48.484375 72.75 52.59375 71.296875 
z
" id="DejaVuSans-54"/>
       </defs>
       <use xlink:href="#DejaVuSans-54"/>
      </g>
     </g>
    </g>
    <g id="xtick_5">
     <g id="line2d_9">
      <path clip-path="url(#p669457d1eb)" d="M 100.9152 298.944 
L 100.9152 27.648 
" style="fill:none;stroke:#b0b0b0;stroke-linecap:square;stroke-width:0.8;"/>
     </g>
     <g id="line2d_10">
      <defs>
       <path d="M 0 0 
L 0 2 
" id="m9f20742573" style="stroke:#000000;stroke-width:0.6;"/>
      </defs>
      <g>
       <use style="stroke:#000000;stroke-width:0.6;" x="100.9152" xlink:href="#m9f20742573" y="298.944"/>
      </g>
     </g>
    </g>
    <g id="xtick_6">
     <g id="line2d_11">
      <path clip-path="url(#p669457d1eb)" d="M 187.5456 298.944 
L 187.5456 27.648 
" style="fill:none;stroke:#b0b0b0;stroke-linecap:square;stroke-width:0.8;"/>
     </g>
     <g id="line2d_12">
      <g>
       <use style="stroke:#000000;stroke-width:0.6;" x="187.5456" xlink:href="#m9f20742573" y="298.944"/>
      </g>
     </g>
    </g>
    <g id="xtick_7">
     <g id="line2d_13">
      <path clip-path="url(#p669457d1eb)" d="M 274.176 298.944 
L 274.176 27.648 
" style="fill:none;stroke:#b0b0b0;stroke-linecap:square;stroke-width:0.8;"/>
     </g>
     <g id="line2d_14">
      <g>
       <use style="stroke:#000000;stroke-width:0.6;" x="274.176" xlink:href="#m9f20742573" y="298.944"/>
      </g>
     </g>
    </g>
    <g id="xtick_8">
     <g id="line2d_15">
      <path clip-path="url(#p669457d1eb)" d="M 360.8064 298.944 
L 360.8064 27.648 
" style="fill:none;stroke:#b0b0b0;stroke-linecap:square;stroke-width:0.8;"/>
     </g>
     <g id="line2d_16">
      <g>
       <use style="stroke:#000000;stroke-width:0.6;" x="360.8064" xlink:href="#m9f20742573" y="298.944"/>
      </g>
     </g>
    </g>
    <g id="text_5">
     <!-- log10(evals / dimension) -->
     <g transform="translate(104.238825 339.314156)scale(0.17 -0.17)">
      <defs>
       <path d="M 9.421875 75.984375 
L 18.40625 75.984375 
L 18.40625 0 
L 9.421875 0 
z
" id="DejaVuSans-108"/>
       <path d="M 30.609375 48.390625 
Q 23.390625 48.390625 19.1875 42.75 
Q 14.984375 37.109375 14.984375 27.296875 
Q 14.984375 17.484375 19.15625 11.84375 
Q 23.34375 6.203125 30.609375 6.203125 
Q 37.796875 6.203125 41.984375 11.859375 
Q 46.1875 17.53125 46.1875 27.296875 
Q 46.1875 37.015625 41.984375 42.703125 
Q 37.796875 48.390625 30.609375 48.390625 
z
M 30.609375 56 
Q 42.328125 56 49.015625 48.375 
Q 55.71875 40.765625 55.71875 27.296875 
Q 55.71875 13.875 49.015625 6.21875 
Q 42.328125 -1.421875 30.609375 -1.421875 
Q 18.84375 -1.421875 12.171875 6.21875 
Q 5.515625 13.875 5.515625 27.296875 
Q 5.515625 40.765625 12.171875 48.375 
Q 18.84375 56 30.609375 56 
z
" id="DejaVuSans-111"/>
       <path d="M 45.40625 27.984375 
Q 45.40625 37.75 41.375 43.109375 
Q 37.359375 48.484375 30.078125 48.484375 
Q 22.859375 48.484375 18.828125 43.109375 
Q 14.796875 37.75 14.796875 27.984375 
Q 14.796875 18.265625 18.828125 12.890625 
Q 22.859375 7.515625 30.078125 7.515625 
Q 37.359375 7.515625 41.375 12.890625 
Q 45.40625 18.265625 45.40625 27.984375 
z
M 54.390625 6.78125 
Q 54.390625 -7.171875 48.1875 -13.984375 
Q 42 -20.796875 29.203125 -20.796875 
Q 24.46875 -20.796875 20.265625 -20.09375 
Q 16.0625 -19.390625 12.109375 -17.921875 
L 12.109375 -9.1875 
Q 16.0625 -11.328125 19.921875 -12.34375 
Q 23.78125 -13.375 27.78125 -13.375 
Q 36.625 -13.375 41.015625 -8.765625 
Q 45.40625 -4.15625 45.40625 5.171875 
L 45.40625 9.625 
Q 42.625 4.78125 38.28125 2.390625 
Q 33.9375 0 27.875 0 
Q 17.828125 0 11.671875 7.65625 
Q 5.515625 15.328125 5.515625 27.984375 
Q 5.515625 40.671875 11.671875 48.328125 
Q 17.828125 56 27.875 56 
Q 33.9375 56 38.28125 53.609375 
Q 42.625 51.21875 45.40625 46.390625 
L 45.40625 54.6875 
L 54.390625 54.6875 
z
" id="DejaVuSans-103"/>
       <path d="M 12.40625 8.296875 
L 28.515625 8.296875 
L 28.515625 63.921875 
L 10.984375 60.40625 
L 10.984375 69.390625 
L 28.421875 72.90625 
L 38.28125 72.90625 
L 38.28125 8.296875 
L 54.390625 8.296875 
L 54.390625 0 
L 12.40625 0 
z
" id="DejaVuSans-49"/>
       <path d="M 31 75.875 
Q 24.46875 64.65625 21.28125 53.65625 
Q 18.109375 42.671875 18.109375 31.390625 
Q 18.109375 20.125 21.3125 9.0625 
Q 24.515625 -2 31 -13.1875 
L 23.1875 -13.1875 
Q 15.875 -1.703125 12.234375 9.375 
Q 8.59375 20.453125 8.59375 31.390625 
Q 8.59375 42.28125 12.203125 53.3125 
Q 15.828125 64.359375 23.1875 75.875 
z
" id="DejaVuSans-40"/>
       <path d="M 56.203125 29.59375 
L 56.203125 25.203125 
L 14.890625 25.203125 
Q 15.484375 15.921875 20.484375 11.0625 
Q 25.484375 6.203125 34.421875 6.203125 
Q 39.59375 6.203125 44.453125 7.46875 
Q 49.3125 8.734375 54.109375 11.28125 
L 54.109375 2.78125 
Q 49.265625 0.734375 44.1875 -0.34375 
Q 39.109375 -1.421875 33.890625 -1.421875 
Q 20.796875 -1.421875 13.15625 6.1875 
Q 5.515625 13.8125 5.515625 26.8125 
Q 5.515625 40.234375 12.765625 48.109375 
Q 20.015625 56 32.328125 56 
Q 43.359375 56 49.78125 48.890625 
Q 56.203125 41.796875 56.203125 29.59375 
z
M 47.21875 32.234375 
Q 47.125 39.59375 43.09375 43.984375 
Q 39.0625 48.390625 32.421875 48.390625 
Q 24.90625 48.390625 20.390625 44.140625 
Q 15.875 39.890625 15.1875 32.171875 
z
" id="DejaVuSans-101"/>
       <path d="M 2.984375 54.6875 
L 12.5 54.6875 
L 29.59375 8.796875 
L 46.6875 54.6875 
L 56.203125 54.6875 
L 35.6875 0 
L 23.484375 0 
z
" id="DejaVuSans-118"/>
       <path d="M 34.28125 27.484375 
Q 23.390625 27.484375 19.1875 25 
Q 14.984375 22.515625 14.984375 16.5 
Q 14.984375 11.71875 18.140625 8.90625 
Q 21.296875 6.109375 26.703125 6.109375 
Q 34.1875 6.109375 38.703125 11.40625 
Q 43.21875 16.703125 43.21875 25.484375 
L 43.21875 27.484375 
z
M 52.203125 31.203125 
L 52.203125 0 
L 43.21875 0 
L 43.21875 8.296875 
Q 40.140625 3.328125 35.546875 0.953125 
Q 30.953125 -1.421875 24.3125 -1.421875 
Q 15.921875 -1.421875 10.953125 3.296875 
Q 6 8.015625 6 15.921875 
Q 6 25.140625 12.171875 29.828125 
Q 18.359375 34.515625 30.609375 34.515625 
L 43.21875 34.515625 
L 43.21875 35.40625 
Q 43.21875 41.609375 39.140625 45 
Q 35.0625 48.390625 27.6875 48.390625 
Q 23 48.390625 18.546875 47.265625 
Q 14.109375 46.140625 10.015625 43.890625 
L 10.015625 52.203125 
Q 14.9375 54.109375 19.578125 55.046875 
Q 24.21875 56 28.609375 56 
Q 40.484375 56 46.34375 49.84375 
Q 52.203125 43.703125 52.203125 31.203125 
z
" id="DejaVuSans-97"/>
       <path d="M 44.28125 53.078125 
L 44.28125 44.578125 
Q 40.484375 46.53125 36.375 47.5 
Q 32.28125 48.484375 27.875 48.484375 
Q 21.1875 48.484375 17.84375 46.4375 
Q 14.5 44.390625 14.5 40.28125 
Q 14.5 37.15625 16.890625 35.375 
Q 19.28125 33.59375 26.515625 31.984375 
L 29.59375 31.296875 
Q 39.15625 29.25 43.1875 25.515625 
Q 47.21875 21.78125 47.21875 15.09375 
Q 47.21875 7.46875 41.1875 3.015625 
Q 35.15625 -1.421875 24.609375 -1.421875 
Q 20.21875 -1.421875 15.453125 -0.5625 
Q 10.6875 0.296875 5.421875 2 
L 5.421875 11.28125 
Q 10.40625 8.6875 15.234375 7.390625 
Q 20.0625 6.109375 24.8125 6.109375 
Q 31.15625 6.109375 34.5625 8.28125 
Q 37.984375 10.453125 37.984375 14.40625 
Q 37.984375 18.0625 35.515625 20.015625 
Q 33.0625 21.96875 24.703125 23.78125 
L 21.578125 24.515625 
Q 13.234375 26.265625 9.515625 29.90625 
Q 5.8125 33.546875 5.8125 39.890625 
Q 5.8125 47.609375 11.28125 51.796875 
Q 16.75 56 26.8125 56 
Q 31.78125 56 36.171875 55.265625 
Q 40.578125 54.546875 44.28125 53.078125 
z
" id="DejaVuSans-115"/>
       <path id="DejaVuSans-32"/>
       <path d="M 25.390625 72.90625 
L 33.6875 72.90625 
L 8.296875 -9.28125 
L 0 -9.28125 
z
" id="DejaVuSans-47"/>
       <path d="M 45.40625 46.390625 
L 45.40625 75.984375 
L 54.390625 75.984375 
L 54.390625 0 
L 45.40625 0 
L 45.40625 8.203125 
Q 42.578125 3.328125 38.25 0.953125 
Q 33.9375 -1.421875 27.875 -1.421875 
Q 17.96875 -1.421875 11.734375 6.484375 
Q 5.515625 14.40625 5.515625 27.296875 
Q 5.515625 40.1875 11.734375 48.09375 
Q 17.96875 56 27.875 56 
Q 33.9375 56 38.25 53.625 
Q 42.578125 51.265625 45.40625 46.390625 
z
M 14.796875 27.296875 
Q 14.796875 17.390625 18.875 11.75 
Q 22.953125 6.109375 30.078125 6.109375 
Q 37.203125 6.109375 41.296875 11.75 
Q 45.40625 17.390625 45.40625 27.296875 
Q 45.40625 37.203125 41.296875 42.84375 
Q 37.203125 48.484375 30.078125 48.484375 
Q 22.953125 48.484375 18.875 42.84375 
Q 14.796875 37.203125 14.796875 27.296875 
z
" id="DejaVuSans-100"/>
       <path d="M 9.421875 54.6875 
L 18.40625 54.6875 
L 18.40625 0 
L 9.421875 0 
z
M 9.421875 75.984375 
L 18.40625 75.984375 
L 18.40625 64.59375 
L 9.421875 64.59375 
z
" id="DejaVuSans-105"/>
       <path d="M 52 44.1875 
Q 55.375 50.25 60.0625 53.125 
Q 64.75 56 71.09375 56 
Q 79.640625 56 84.28125 50.015625 
Q 88.921875 44.046875 88.921875 33.015625 
L 88.921875 0 
L 79.890625 0 
L 79.890625 32.71875 
Q 79.890625 40.578125 77.09375 44.375 
Q 74.3125 48.1875 68.609375 48.1875 
Q 61.625 48.1875 57.5625 43.546875 
Q 53.515625 38.921875 53.515625 30.90625 
L 53.515625 0 
L 44.484375 0 
L 44.484375 32.71875 
Q 44.484375 40.625 41.703125 44.40625 
Q 38.921875 48.1875 33.109375 48.1875 
Q 26.21875 48.1875 22.15625 43.53125 
Q 18.109375 38.875 18.109375 30.90625 
L 18.109375 0 
L 9.078125 0 
L 9.078125 54.6875 
L 18.109375 54.6875 
L 18.109375 46.1875 
Q 21.1875 51.21875 25.484375 53.609375 
Q 29.78125 56 35.6875 56 
Q 41.65625 56 45.828125 52.96875 
Q 50 49.953125 52 44.1875 
z
" id="DejaVuSans-109"/>
       <path d="M 54.890625 33.015625 
L 54.890625 0 
L 45.90625 0 
L 45.90625 32.71875 
Q 45.90625 40.484375 42.875 44.328125 
Q 39.84375 48.1875 33.796875 48.1875 
Q 26.515625 48.1875 22.3125 43.546875 
Q 18.109375 38.921875 18.109375 30.90625 
L 18.109375 0 
L 9.078125 0 
L 9.078125 54.6875 
L 18.109375 54.6875 
L 18.109375 46.1875 
Q 21.34375 51.125 25.703125 53.5625 
Q 30.078125 56 35.796875 56 
Q 45.21875 56 50.046875 50.171875 
Q 54.890625 44.34375 54.890625 33.015625 
z
" id="DejaVuSans-110"/>
       <path d="M 8.015625 75.875 
L 15.828125 75.875 
Q 23.140625 64.359375 26.78125 53.3125 
Q 30.421875 42.28125 30.421875 31.390625 
Q 30.421875 20.453125 26.78125 9.375 
Q 23.140625 -1.703125 15.828125 -13.1875 
L 8.015625 -13.1875 
Q 14.5 -2 17.703125 9.0625 
Q 20.90625 20.125 20.90625 31.390625 
Q 20.90625 42.671875 17.703125 53.65625 
Q 14.5 64.65625 8.015625 75.875 
z
" id="DejaVuSans-41"/>
      </defs>
      <use xlink:href="#DejaVuSans-108"/>
      <use x="27.783203" xlink:href="#DejaVuSans-111"/>
      <use x="88.964844" xlink:href="#DejaVuSans-103"/>
      <use x="152.441406" xlink:href="#DejaVuSans-49"/>
      <use x="216.064453" xlink:href="#DejaVuSans-48"/>
      <use x="279.6875" xlink:href="#DejaVuSans-40"/>
      <use x="318.701172" xlink:href="#DejaVuSans-101"/>
      <use x="380.224609" xlink:href="#DejaVuSans-118"/>
      <use x="439.404297" xlink:href="#DejaVuSans-97"/>
      <use x="500.683594" xlink:href="#DejaVuSans-108"/>
      <use x="528.466797" xlink:href="#DejaVuSans-115"/>
      <use x="580.566406" xlink:href="#DejaVuSans-32"/>
      <use x="612.353516" xlink:href="#DejaVuSans-47"/>
      <use x="646.044922" xlink:href="#DejaVuSans-32"/>
      <use x="677.832031" xlink:href="#DejaVuSans-100"/>
      <use x="741.308594" xlink:href="#DejaVuSans-105"/>
      <use x="769.091797" xlink:href="#DejaVuSans-109"/>
      <use x="866.503906" xlink:href="#DejaVuSans-101"/>
      <use x="928.027344" xlink:href="#DejaVuSans-110"/>
      <use x="991.40625" xlink:href="#DejaVuSans-115"/>
      <use x="1043.505859" xlink:href="#DejaVuSans-105"/>
      <use x="1071.289062" xlink:href="#DejaVuSans-111"/>
      <use x="1132.470703" xlink:href="#DejaVuSans-110"/>
      <use x="1195.849609" xlink:href="#DejaVuSans-41"/>
     </g>
    </g>
   </g>
   <g id="matplotlib.axis_2">
    <g id="ytick_1">
     <g id="line2d_17">
      <path clip-path="url(#p669457d1eb)" d="M 57.6 298.944 
L 360.8064 298.944 
" style="fill:none;stroke:#b0b0b0;stroke-linecap:square;stroke-width:0.8;"/>
     </g>
     <g id="line2d_18">
      <defs>
       <path d="M 0 0 
L -3.5 0 
" id="m2151d1b149" style="stroke:#000000;stroke-width:0.8;"/>
      </defs>
      <g>
       <use style="stroke:#000000;stroke-width:0.8;" x="57.6" xlink:href="#m2151d1b149" y="298.944"/>
      </g>
     </g>
     <g id="text_6">
      <!-- 0.0 -->
      <g transform="translate(25.155 305.02275)scale(0.16 -0.16)">
       <defs>
        <path d="M 10.6875 12.40625 
L 21 12.40625 
L 21 0 
L 10.6875 0 
z
" id="DejaVuSans-46"/>
       </defs>
       <use xlink:href="#DejaVuSans-48"/>
       <use x="63.623047" xlink:href="#DejaVuSans-46"/>
       <use x="95.410156" xlink:href="#DejaVuSans-48"/>
      </g>
     </g>
    </g>
    <g id="ytick_2">
     <g id="line2d_19">
      <path clip-path="url(#p669457d1eb)" d="M 57.6 244.6848 
L 360.8064 244.6848 
" style="fill:none;stroke:#b0b0b0;stroke-linecap:square;stroke-width:0.8;"/>
     </g>
     <g id="line2d_20">
      <g>
       <use style="stroke:#000000;stroke-width:0.8;" x="57.6" xlink:href="#m2151d1b149" y="244.6848"/>
      </g>
     </g>
     <g id="text_7">
      <!-- 0.2 -->
      <g transform="translate(25.155 250.76355)scale(0.16 -0.16)">
       <use xlink:href="#DejaVuSans-48"/>
       <use x="63.623047" xlink:href="#DejaVuSans-46"/>
       <use x="95.410156" xlink:href="#DejaVuSans-50"/>
      </g>
     </g>
    </g>
    <g id="ytick_3">
     <g id="line2d_21">
      <path clip-path="url(#p669457d1eb)" d="M 57.6 190.4256 
L 360.8064 190.4256 
" style="fill:none;stroke:#b0b0b0;stroke-linecap:square;stroke-width:0.8;"/>
     </g>
     <g id="line2d_22">
      <g>
       <use style="stroke:#000000;stroke-width:0.8;" x="57.6" xlink:href="#m2151d1b149" y="190.4256"/>
      </g>
     </g>
     <g id="text_8">
      <!-- 0.4 -->
      <g transform="translate(25.155 196.50435)scale(0.16 -0.16)">
       <use xlink:href="#DejaVuSans-48"/>
       <use x="63.623047" xlink:href="#DejaVuSans-46"/>
       <use x="95.410156" xlink:href="#DejaVuSans-52"/>
      </g>
     </g>
    </g>
    <g id="ytick_4">
     <g id="line2d_23">
      <path clip-path="url(#p669457d1eb)" d="M 57.6 136.1664 
L 360.8064 136.1664 
" style="fill:none;stroke:#b0b0b0;stroke-linecap:square;stroke-width:0.8;"/>
     </g>
     <g id="line2d_24">
      <g>
       <use style="stroke:#000000;stroke-width:0.8;" x="57.6" xlink:href="#m2151d1b149" y="136.1664"/>
      </g>
     </g>
     <g id="text_9">
      <!-- 0.6 -->
      <g transform="translate(25.155 142.24515)scale(0.16 -0.16)">
       <use xlink:href="#DejaVuSans-48"/>
       <use x="63.623047" xlink:href="#DejaVuSans-46"/>
       <use x="95.410156" xlink:href="#DejaVuSans-54"/>
      </g>
     </g>
    </g>
    <g id="ytick_5">
     <g id="line2d_25">
      <path clip-path="url(#p669457d1eb)" d="M 57.6 81.9072 
L 360.8064 81.9072 
" style="fill:none;stroke:#b0b0b0;stroke-linecap:square;stroke-width:0.8;"/>
     </g>
     <g id="line2d_26">
      <g>
       <use style="stroke:#000000;stroke-width:0.8;" x="57.6" xlink:href="#m2151d1b149" y="81.9072"/>
      </g>
     </g>
     <g id="text_10">
      <!-- 0.8 -->
      <g transform="translate(25.155 87.98595)scale(0.16 -0.16)">
       <defs>
        <path d="M 31.78125 34.625 
Q 24.75 34.625 20.71875 30.859375 
Q 16.703125 27.09375 16.703125 20.515625 
Q 16.703125 13.921875 20.71875 10.15625 
Q 24.75 6.390625 31.78125 6.390625 
Q 38.8125 6.390625 42.859375 10.171875 
Q 46.921875 13.96875 46.921875 20.515625 
Q 46.921875 27.09375 42.890625 30.859375 
Q 38.875 34.625 31.78125 34.625 
z
M 21.921875 38.8125 
Q 15.578125 40.375 12.03125 44.71875 
Q 8.5 49.078125 8.5 55.328125 
Q 8.5 64.0625 14.71875 69.140625 
Q 20.953125 74.21875 31.78125 74.21875 
Q 42.671875 74.21875 48.875 69.140625 
Q 55.078125 64.0625 55.078125 55.328125 
Q 55.078125 49.078125 51.53125 44.71875 
Q 48 40.375 41.703125 38.8125 
Q 48.828125 37.15625 52.796875 32.3125 
Q 56.78125 27.484375 56.78125 20.515625 
Q 56.78125 9.90625 50.3125 4.234375 
Q 43.84375 -1.421875 31.78125 -1.421875 
Q 19.734375 -1.421875 13.25 4.234375 
Q 6.78125 9.90625 6.78125 20.515625 
Q 6.78125 27.484375 10.78125 32.3125 
Q 14.796875 37.15625 21.921875 38.8125 
z
M 18.3125 54.390625 
Q 18.3125 48.734375 21.84375 45.5625 
Q 25.390625 42.390625 31.78125 42.390625 
Q 38.140625 42.390625 41.71875 45.5625 
Q 45.3125 48.734375 45.3125 54.390625 
Q 45.3125 60.0625 41.71875 63.234375 
Q 38.140625 66.40625 31.78125 66.40625 
Q 25.390625 66.40625 21.84375 63.234375 
Q 18.3125 60.0625 18.3125 54.390625 
z
" id="DejaVuSans-56"/>
       </defs>
       <use xlink:href="#DejaVuSans-48"/>
       <use x="63.623047" xlink:href="#DejaVuSans-46"/>
       <use x="95.410156" xlink:href="#DejaVuSans-56"/>
      </g>
     </g>
    </g>
    <g id="ytick_6">
     <g id="line2d_27">
      <path clip-path="url(#p669457d1eb)" d="M 57.6 27.648 
L 360.8064 27.648 
" style="fill:none;stroke:#b0b0b0;stroke-linecap:square;stroke-width:0.8;"/>
     </g>
     <g id="line2d_28">
      <g>
       <use style="stroke:#000000;stroke-width:0.8;" x="57.6" xlink:href="#m2151d1b149" y="27.648"/>
      </g>
     </g>
     <g id="text_11">
      <!-- 1.0 -->
      <g transform="translate(25.155 33.72675)scale(0.16 -0.16)">
       <use xlink:href="#DejaVuSans-49"/>
       <use x="63.623047" xlink:href="#DejaVuSans-46"/>
       <use x="95.410156" xlink:href="#DejaVuSans-48"/>
      </g>
     </g>
    </g>
    <g id="text_12">
     <!-- Fraction of function,target pairs -->
     <g transform="translate(17.619531 297.681)rotate(-90)scale(0.17 -0.17)">
      <defs>
       <path d="M 9.8125 72.90625 
L 51.703125 72.90625 
L 51.703125 64.59375 
L 19.671875 64.59375 
L 19.671875 43.109375 
L 48.578125 43.109375 
L 48.578125 34.8125 
L 19.671875 34.8125 
L 19.671875 0 
L 9.8125 0 
z
" id="DejaVuSans-70"/>
       <path d="M 41.109375 46.296875 
Q 39.59375 47.171875 37.8125 47.578125 
Q 36.03125 48 33.890625 48 
Q 26.265625 48 22.1875 43.046875 
Q 18.109375 38.09375 18.109375 28.8125 
L 18.109375 0 
L 9.078125 0 
L 9.078125 54.6875 
L 18.109375 54.6875 
L 18.109375 46.1875 
Q 20.953125 51.171875 25.484375 53.578125 
Q 30.03125 56 36.53125 56 
Q 37.453125 56 38.578125 55.875 
Q 39.703125 55.765625 41.0625 55.515625 
z
" id="DejaVuSans-114"/>
       <path d="M 48.78125 52.59375 
L 48.78125 44.1875 
Q 44.96875 46.296875 41.140625 47.34375 
Q 37.3125 48.390625 33.40625 48.390625 
Q 24.65625 48.390625 19.8125 42.84375 
Q 14.984375 37.3125 14.984375 27.296875 
Q 14.984375 17.28125 19.8125 11.734375 
Q 24.65625 6.203125 33.40625 6.203125 
Q 37.3125 6.203125 41.140625 7.25 
Q 44.96875 8.296875 48.78125 10.40625 
L 48.78125 2.09375 
Q 45.015625 0.34375 40.984375 -0.53125 
Q 36.96875 -1.421875 32.421875 -1.421875 
Q 20.0625 -1.421875 12.78125 6.34375 
Q 5.515625 14.109375 5.515625 27.296875 
Q 5.515625 40.671875 12.859375 48.328125 
Q 20.21875 56 33.015625 56 
Q 37.15625 56 41.109375 55.140625 
Q 45.0625 54.296875 48.78125 52.59375 
z
" id="DejaVuSans-99"/>
       <path d="M 18.3125 70.21875 
L 18.3125 54.6875 
L 36.8125 54.6875 
L 36.8125 47.703125 
L 18.3125 47.703125 
L 18.3125 18.015625 
Q 18.3125 11.328125 20.140625 9.421875 
Q 21.96875 7.515625 27.59375 7.515625 
L 36.8125 7.515625 
L 36.8125 0 
L 27.59375 0 
Q 17.1875 0 13.234375 3.875 
Q 9.28125 7.765625 9.28125 18.015625 
L 9.28125 47.703125 
L 2.6875 47.703125 
L 2.6875 54.6875 
L 9.28125 54.6875 
L 9.28125 70.21875 
z
" id="DejaVuSans-116"/>
       <path d="M 37.109375 75.984375 
L 37.109375 68.5 
L 28.515625 68.5 
Q 23.6875 68.5 21.796875 66.546875 
Q 19.921875 64.59375 19.921875 59.515625 
L 19.921875 54.6875 
L 34.71875 54.6875 
L 34.71875 47.703125 
L 19.921875 47.703125 
L 19.921875 0 
L 10.890625 0 
L 10.890625 47.703125 
L 2.296875 47.703125 
L 2.296875 54.6875 
L 10.890625 54.6875 
L 10.890625 58.5 
Q 10.890625 67.625 15.140625 71.796875 
Q 19.390625 75.984375 28.609375 75.984375 
z
" id="DejaVuSans-102"/>
       <path d="M 8.5 21.578125 
L 8.5 54.6875 
L 17.484375 54.6875 
L 17.484375 21.921875 
Q 17.484375 14.15625 20.5 10.265625 
Q 23.53125 6.390625 29.59375 6.390625 
Q 36.859375 6.390625 41.078125 11.03125 
Q 45.3125 15.671875 45.3125 23.6875 
L 45.3125 54.6875 
L 54.296875 54.6875 
L 54.296875 0 
L 45.3125 0 
L 45.3125 8.40625 
Q 42.046875 3.421875 37.71875 1 
Q 33.40625 -1.421875 27.6875 -1.421875 
Q 18.265625 -1.421875 13.375 4.4375 
Q 8.5 10.296875 8.5 21.578125 
z
M 31.109375 56 
z
" id="DejaVuSans-117"/>
       <path d="M 11.71875 12.40625 
L 22.015625 12.40625 
L 22.015625 4 
L 14.015625 -11.625 
L 7.71875 -11.625 
L 11.71875 4 
z
" id="DejaVuSans-44"/>
       <path d="M 18.109375 8.203125 
L 18.109375 -20.796875 
L 9.078125 -20.796875 
L 9.078125 54.6875 
L 18.109375 54.6875 
L 18.109375 46.390625 
Q 20.953125 51.265625 25.265625 53.625 
Q 29.59375 56 35.59375 56 
Q 45.5625 56 51.78125 48.09375 
Q 58.015625 40.1875 58.015625 27.296875 
Q 58.015625 14.40625 51.78125 6.484375 
Q 45.5625 -1.421875 35.59375 -1.421875 
Q 29.59375 -1.421875 25.265625 0.953125 
Q 20.953125 3.328125 18.109375 8.203125 
z
M 48.6875 27.296875 
Q 48.6875 37.203125 44.609375 42.84375 
Q 40.53125 48.484375 33.40625 48.484375 
Q 26.265625 48.484375 22.1875 42.84375 
Q 18.109375 37.203125 18.109375 27.296875 
Q 18.109375 17.390625 22.1875 11.75 
Q 26.265625 6.109375 33.40625 6.109375 
Q 40.53125 6.109375 44.609375 11.75 
Q 48.6875 17.390625 48.6875 27.296875 
z
" id="DejaVuSans-112"/>
      </defs>
      <use xlink:href="#DejaVuSans-70"/>
      <use x="50.269531" xlink:href="#DejaVuSans-114"/>
      <use x="91.382812" xlink:href="#DejaVuSans-97"/>
      <use x="152.662109" xlink:href="#DejaVuSans-99"/>
      <use x="207.642578" xlink:href="#DejaVuSans-116"/>
      <use x="246.851562" xlink:href="#DejaVuSans-105"/>
      <use x="274.634766" xlink:href="#DejaVuSans-111"/>
      <use x="335.816406" xlink:href="#DejaVuSans-110"/>
      <use x="399.195312" xlink:href="#DejaVuSans-32"/>
      <use x="430.982422" xlink:href="#DejaVuSans-111"/>
      <use x="492.164062" xlink:href="#DejaVuSans-102"/>
      <use x="527.369141" xlink:href="#DejaVuSans-32"/>
      <use x="559.15625" xlink:href="#DejaVuSans-102"/>
      <use x="594.361328" xlink:href="#DejaVuSans-117"/>
      <use x="657.740234" xlink:href="#DejaVuSans-110"/>
      <use x="721.119141" xlink:href="#DejaVuSans-99"/>
      <use x="776.099609" xlink:href="#DejaVuSans-116"/>
      <use x="815.308594" xlink:href="#DejaVuSans-105"/>
      <use x="843.091797" xlink:href="#DejaVuSans-111"/>
      <use x="904.273438" xlink:href="#DejaVuSans-110"/>
      <use x="967.652344" xlink:href="#DejaVuSans-44"/>
      <use x="999.439453" xlink:href="#DejaVuSans-116"/>
      <use x="1038.648438" xlink:href="#DejaVuSans-97"/>
      <use x="1099.927734" xlink:href="#DejaVuSans-114"/>
      <use x="1139.291016" xlink:href="#DejaVuSans-103"/>
      <use x="1202.767578" xlink:href="#DejaVuSans-101"/>
      <use x="1264.291016" xlink:href="#DejaVuSans-116"/>
      <use x="1303.5" xlink:href="#DejaVuSans-32"/>
      <use x="1335.287109" xlink:href="#DejaVuSans-112"/>
      <use x="1398.763672" xlink:href="#DejaVuSans-97"/>
      <use x="1460.042969" xlink:href="#DejaVuSans-105"/>
      <use x="1487.826172" xlink:href="#DejaVuSans-114"/>
      <use x="1528.939453" xlink:href="#DejaVuSans-115"/>
     </g>
    </g>
   </g>
   <g id="line2d_29">
    <defs>
     <path d="M 0 1.5 
C 0.397805 1.5 0.77937 1.341951 1.06066 1.06066 
C 1.341951 0.77937 1.5 0.397805 1.5 0 
C 1.5 -0.397805 1.341951 -0.77937 1.06066 -1.06066 
C 0.77937 -1.341951 0.397805 -1.5 0 -1.5 
C -0.397805 -1.5 -0.77937 -1.341951 -1.06066 -1.06066 
C -1.341951 -0.77937 -1.5 -0.397805 -1.5 0 
C -1.5 0.397805 -1.341951 0.77937 -1.06066 1.06066 
C -0.77937 1.341951 -0.397805 1.5 0 1.5 
z
" id="mc4df068475" style="stroke:#000080;"/>
    </defs>
    <g>
     <use style="fill:#000080;stroke:#000080;" x="326.179599" xlink:href="#mc4df068475" y="226.157268"/>
     <use style="fill:#000080;stroke:#000080;" x="326.179599" xlink:href="#mc4df068475" y="226.157268"/>
    </g>
   </g>
   <g id="line2d_30">
    <path d="M 164.215425 298.944 
L 164.215425 298.502868 
L 168.497113 298.502868 
L 168.497113 298.061737 
L 168.914482 298.061737 
L 168.914482 297.620605 
L 169.758779 297.620605 
L 169.758779 297.179473 
L 170.276978 297.179473 
L 170.276978 296.738341 
L 170.852235 296.738341 
L 170.852235 296.29721 
L 171.571621 296.29721 
L 171.571621 295.856078 
L 171.748884 295.856078 
L 171.829303 294.973815 
L 172.629689 294.973815 
L 172.629689 294.532683 
L 173.109879 294.532683 
L 173.109879 294.091551 
L 173.381437 294.091551 
L 173.443245 293.209288 
L 174.21925 293.209288 
L 174.21925 292.768156 
L 174.437638 292.768156 
L 174.437638 292.327024 
L 174.866952 292.327024 
L 174.866952 291.885893 
L 175.017673 291.885893 
L 175.034143 291.003629 
L 175.818705 291.003629 
L 175.897488 289.239102 
L 176.617307 289.239102 
L 176.654263 287.915707 
L 176.748008 287.915707 
L 176.748008 287.474576 
L 177.255412 287.474576 
L 177.362384 286.15118 
L 177.612834 286.15118 
L 177.612834 285.710049 
L 178.1055 285.710049 
L 178.156699 284.827785 
L 178.332502 284.827785 
L 178.332502 284.386654 
L 178.524918 284.386654 
L 178.524918 283.945522 
L 178.668703 283.945522 
L 178.668703 283.50439 
L 178.805411 283.50439 
L 178.805411 283.063259 
L 179.335245 283.063259 
L 179.335245 282.622127 
L 179.493205 282.622127 
L 179.493205 282.180995 
L 179.611168 282.180995 
L 179.611168 281.739863 
L 179.763992 281.739863 
L 179.763992 281.298732 
L 180.183185 281.298732 
L 180.258157 280.416468 
L 180.356278 280.416468 
L 180.462115 279.093073 
L 181.088911 279.093073 
L 181.088911 278.651941 
L 181.759567 278.651941 
L 181.759567 278.21081 
L 181.914999 278.21081 
L 181.914999 277.769678 
L 182.399717 277.769678 
L 182.399717 277.328546 
L 182.863816 277.328546 
L 182.863816 276.887415 
L 183.651732 276.887415 
L 183.651732 276.446283 
L 186.094777 276.446283 
L 186.094777 276.005151 
L 186.820247 276.005151 
L 186.820247 275.56402 
L 188.159545 275.56402 
L 188.159545 275.122888 
L 188.336236 275.122888 
L 188.336236 274.681756 
L 190.534824 274.681756 
L 190.534824 274.240624 
L 191.151277 274.240624 
L 191.151277 273.799493 
L 191.408096 273.799493 
L 191.408096 273.358361 
L 192.430727 273.358361 
L 192.523358 272.476098 
L 192.88372 272.476098 
L 192.972742 271.152702 
L 193.572088 271.152702 
L 193.572088 270.711571 
L 193.831781 270.711571 
L 193.831781 270.270439 
L 195.85679 270.270439 
L 195.85679 269.829307 
L 196.15196 269.829307 
L 196.15196 269.388176 
L 199.473012 269.388176 
L 199.473012 268.947044 
L 204.146332 268.947044 
L 204.146332 268.505912 
L 204.303675 268.505912 
L 204.303675 268.06478 
L 204.730271 268.06478 
L 204.730271 267.623649 
L 206.655759 267.623649 
L 206.655759 267.182517 
L 207.78491 267.182517 
L 207.78491 266.741385 
L 210.334431 266.741385 
L 210.334431 266.300254 
L 211.071258 266.300254 
L 211.071258 265.859122 
L 211.545954 265.859122 
L 211.545954 265.41799 
L 216.203233 265.41799 
L 216.288531 264.535727 
L 219.526193 264.535727 
L 219.526193 264.094595 
L 222.941922 264.094595 
L 222.941922 263.653463 
L 228.502866 263.653463 
L 228.502866 263.212332 
L 232.353311 263.212332 
L 232.353311 262.7712 
L 232.772086 262.7712 
L 232.772086 262.330068 
L 234.894593 262.330068 
L 234.894593 261.888937 
L 236.253196 261.888937 
L 236.253196 261.447805 
L 239.076604 261.447805 
L 239.076604 261.006673 
L 239.808722 261.006673 
L 239.808722 260.565541 
L 241.153239 260.565541 
L 241.153239 260.12441 
L 241.518276 260.12441 
L 241.518276 259.683278 
L 244.137261 259.683278 
L 244.137261 259.242146 
L 247.041893 259.242146 
L 247.075967 258.359883 
L 249.092903 258.359883 
L 249.092903 257.918751 
L 249.255101 257.918751 
L 249.255101 257.47762 
L 250.80578 257.47762 
L 250.80578 257.036488 
L 251.869481 257.036488 
L 251.869481 256.595356 
L 252.775347 256.595356 
L 252.80692 255.713093 
L 253.454317 255.713093 
L 253.454317 255.271961 
L 253.571734 255.271961 
L 253.571734 254.389698 
L 254.00892 254.389698 
L 254.00892 253.948566 
L 254.988415 253.948566 
L 254.988415 253.507434 
L 255.483283 253.507434 
L 255.543527 252.184039 
L 257.107824 252.184039 
L 257.107824 251.742907 
L 257.53138 251.742907 
L 257.53138 251.301776 
L 259.370229 251.301776 
L 259.370229 250.860644 
L 260.840164 250.860644 
L 260.840164 250.419512 
L 261.384089 250.419512 
L 261.384089 249.97838 
L 261.655248 249.97838 
L 261.655248 249.537249 
L 264.823798 249.537249 
L 264.823798 249.096117 
L 266.20982 249.096117 
L 266.20982 248.654985 
L 266.385457 248.654985 
L 266.385457 248.213854 
L 266.721756 248.213854 
L 266.721756 247.772722 
L 267.53458 247.772722 
L 267.53458 246.449327 
L 268.429903 246.449327 
L 268.429903 246.008195 
L 270.468472 246.008195 
L 270.468472 245.567063 
L 270.947725 245.567063 
L 270.947725 245.125932 
L 271.351951 245.125932 
L 271.351951 244.6848 
L 271.560891 244.6848 
L 271.586544 243.361405 
L 274.028315 243.361405 
L 274.028315 242.920273 
L 274.289977 242.920273 
L 274.291042 242.03801 
L 276.109726 242.03801 
L 276.109726 241.596878 
L 276.982831 241.596878 
L 276.982831 241.155746 
L 278.947486 241.155746 
L 278.947486 240.714615 
L 280.101062 240.714615 
L 280.117358 239.39122 
L 280.676772 239.39122 
L 280.676772 238.950088 
L 283.403912 238.950088 
L 283.403912 238.508956 
L 283.72042 238.508956 
L 283.72042 238.067824 
L 284.186121 238.067824 
L 284.186121 237.626693 
L 285.568453 237.626693 
L 285.568453 237.185561 
L 285.953092 237.185561 
L 285.965032 235.421034 
L 290.016331 235.421034 
L 290.016331 234.979902 
L 294.010734 234.979902 
L 294.010734 234.538771 
L 295.509588 234.538771 
L 295.509588 234.097639 
L 297.03168 234.097639 
L 297.03168 233.215376 
L 298.80079 233.215376 
L 298.80079 232.774244 
L 301.183652 232.774244 
L 301.183652 231.89198 
L 301.919601 231.89198 
L 301.919601 231.009717 
L 303.957381 231.009717 
L 303.957381 230.568585 
L 306.78753 230.568585 
L 306.78753 230.127454 
L 307.470503 230.127454 
L 307.470503 229.686322 
L 309.008198 229.686322 
L 309.008198 229.24519 
L 310.429641 229.24519 
L 310.429641 228.804059 
L 314.877072 228.804059 
L 314.877072 227.921795 
L 322.238043 227.921795 
L 322.238043 227.039532 
L 324.311866 227.039532 
L 324.311866 226.5984 
L 326.179599 226.5984 
L 326.179599 226.157268 
L 360.8064 226.157268 
L 360.8064 226.157268 
" style="fill:none;stroke:#000080;stroke-linecap:square;stroke-width:1.5;"/>
   </g>
   <g id="line2d_31">
    <defs>
     <path d="M 0 6 
C 1.591219 6 3.117479 5.367802 4.242641 4.242641 
C 5.367802 3.117479 6 1.591219 6 0 
C 6 -1.591219 5.367802 -3.117479 4.242641 -4.242641 
C 3.117479 -5.367802 1.591219 -6 0 -6 
C -1.591219 -6 -3.117479 -5.367802 -4.242641 -4.242641 
C -5.367802 -3.117479 -6 -1.591219 -6 0 
C -6 1.591219 -5.367802 3.117479 -4.242641 4.242641 
C -3.117479 5.367802 -1.591219 6 0 6 
z
" id="mc33f1dca25" style="stroke:#000080;stroke-width:1.5;"/>
    </defs>
    <g>
     <use style="fill-opacity:0;stroke:#000080;stroke-width:1.5;" x="247.041893" xlink:href="#mc33f1dca25" y="259.242146"/>
     <use style="fill-opacity:0;stroke:#000080;stroke-width:1.5;" x="326.179599" xlink:href="#mc33f1dca25" y="226.5984"/>
     <use style="fill-opacity:0;stroke:#000080;stroke-width:1.5;" x="326.179599" xlink:href="#mc33f1dca25" y="226.157268"/>
     <use style="fill-opacity:0;stroke:#000080;stroke-width:1.5;" x="360.8064" xlink:href="#mc33f1dca25" y="226.157268"/>
    </g>
   </g>
   <g id="line2d_32">
    <path style="fill:none;stroke:#000080;stroke-linecap:square;stroke-width:1.5;"/>
    <g/>
   </g>
   <g id="line2d_33">
    <path clip-path="url(#p669457d1eb)" d="M 261.136948 250.419512 
" style="fill:none;stroke:#000080;stroke-linecap:square;stroke-width:1.5;"/>
    <defs>
     <path d="M -12 12 
L 12 -12 
M -12 -12 
L 12 12 
" id="ma517ec24b4" style="stroke:#000080;"/>
    </defs>
    <g clip-path="url(#p669457d1eb)">
     <use style="fill:#000080;stroke:#000080;" x="261.136948" xlink:href="#ma517ec24b4" y="250.419512"/>
    </g>
   </g>
   <g id="line2d_34">
    <defs>
     <path d="M 0 1.5 
C 0.397805 1.5 0.77937 1.341951 1.06066 1.06066 
C 1.341951 0.77937 1.5 0.397805 1.5 0 
C 1.5 -0.397805 1.341951 -0.77937 1.06066 -1.06066 
C 0.77937 -1.341951 0.397805 -1.5 0 -1.5 
C -0.397805 -1.5 -0.77937 -1.341951 -1.06066 -1.06066 
C -1.341951 -0.77937 -1.5 -0.397805 -1.5 0 
C -1.5 0.397805 -1.341951 0.77937 -1.06066 1.06066 
C -0.77937 1.341951 -0.397805 1.5 0 1.5 
z
" id="m5540fbceb9" style="stroke:#ff00ff;"/>
    </defs>
    <g>
     <use style="fill:#ff00ff;stroke:#ff00ff;" x="329.147265" xlink:href="#m5540fbceb9" y="239.39122"/>
     <use style="fill:#ff00ff;stroke:#ff00ff;" x="329.147265" xlink:href="#m5540fbceb9" y="239.39122"/>
    </g>
   </g>
   <g id="line2d_35">
    <path d="M 185.891501 298.944 
L 185.891501 298.502868 
L 186.255629 298.502868 
L 186.255629 298.061737 
L 186.463998 298.061737 
L 186.463998 297.620605 
L 187.062096 297.620605 
L 187.062096 297.179473 
L 205.811199 297.179473 
L 205.811199 296.738341 
L 215.7404 296.738341 
L 215.7404 296.29721 
L 225.115724 296.29721 
L 225.115724 295.856078 
L 227.161494 295.856078 
L 227.161494 295.414946 
L 229.777853 295.414946 
L 229.863044 294.532683 
L 230.934631 294.532683 
L 230.934631 294.091551 
L 239.106421 294.091551 
L 239.152843 293.209288 
L 240.400746 293.209288 
L 240.502035 291.444761 
L 246.113921 291.444761 
L 246.159561 290.121366 
L 246.933539 290.121366 
L 246.933539 289.680234 
L 247.451274 289.680234 
L 247.451274 289.239102 
L 251.552734 289.239102 
L 251.552734 288.797971 
L 255.815021 288.797971 
L 255.815021 288.356839 
L 256.678159 288.356839 
L 256.685287 287.474576 
L 257.216759 287.474576 
L 257.217153 286.592312 
L 257.774565 286.592312 
L 257.774565 286.15118 
L 258.052517 286.15118 
L 258.094934 284.386654 
L 261.500102 284.386654 
L 261.500102 283.945522 
L 262.105045 283.945522 
L 262.105045 283.50439 
L 263.998472 283.50439 
L 263.998472 283.063259 
L 264.404019 283.063259 
L 264.404019 282.180995 
L 264.579004 282.180995 
L 264.579004 281.739863 
L 266.535103 281.739863 
L 266.556622 279.534205 
L 268.126059 279.534205 
L 268.126059 279.093073 
L 268.551335 279.093073 
L 268.551335 278.651941 
L 272.078525 278.651941 
L 272.078525 278.21081 
L 272.317961 278.21081 
L 272.318138 277.328546 
L 272.569955 277.328546 
L 272.569955 276.446283 
L 272.697054 276.446283 
L 272.716539 275.56402 
L 274.666398 275.56402 
L 274.666398 275.122888 
L 274.999881 275.122888 
L 274.999881 274.681756 
L 275.513513 274.681756 
L 275.513513 274.240624 
L 275.975767 274.240624 
L 275.975767 273.799493 
L 277.993413 273.799493 
L 277.993413 273.358361 
L 278.146645 273.358361 
L 278.146645 272.917229 
L 279.117422 272.917229 
L 279.117422 272.476098 
L 280.431453 272.476098 
L 280.431453 272.034966 
L 280.748151 272.034966 
L 280.843184 269.829307 
L 281.925382 269.829307 
L 281.925382 269.388176 
L 282.356711 269.388176 
L 282.356711 268.947044 
L 282.806541 268.947044 
L 282.806541 268.505912 
L 283.022235 268.505912 
L 283.022235 267.623649 
L 283.786031 267.623649 
L 283.788717 266.741385 
L 286.494747 266.741385 
L 286.494747 265.859122 
L 287.30389 265.859122 
L 287.30389 265.41799 
L 287.631685 265.41799 
L 287.631685 264.535727 
L 287.972509 264.535727 
L 287.972509 263.653463 
L 288.716843 263.653463 
L 288.723464 262.330068 
L 289.360233 262.330068 
L 289.360233 261.888937 
L 290.838759 261.888937 
L 290.838759 261.447805 
L 291.61062 261.447805 
L 291.61062 260.565541 
L 292.622701 260.565541 
L 292.622701 260.12441 
L 293.148043 260.12441 
L 293.148043 259.683278 
L 294.366911 259.683278 
L 294.366911 259.242146 
L 295.007574 259.242146 
L 295.007574 258.801015 
L 296.205547 258.801015 
L 296.206247 257.918751 
L 297.335439 257.918751 
L 297.335439 257.47762 
L 298.13445 257.47762 
L 298.13445 257.036488 
L 298.274528 257.036488 
L 298.274528 256.154224 
L 299.897646 256.154224 
L 299.900055 254.830829 
L 300.463817 254.830829 
L 300.463817 254.389698 
L 300.636887 254.389698 
L 300.720779 253.066302 
L 303.108786 253.066302 
L 303.108786 252.625171 
L 304.169151 252.625171 
L 304.169151 252.184039 
L 304.727341 252.184039 
L 304.826114 250.860644 
L 305.987038 250.860644 
L 305.987038 250.419512 
L 306.523969 250.419512 
L 306.523969 249.97838 
L 309.170316 249.97838 
L 309.170316 249.537249 
L 309.415812 249.537249 
L 309.415812 249.096117 
L 309.59967 249.096117 
L 309.623878 248.213854 
L 310.580007 248.213854 
L 310.580007 247.772722 
L 311.049588 247.772722 
L 311.049588 247.33159 
L 311.890112 247.33159 
L 311.890112 246.890459 
L 312.191517 246.890459 
L 312.191517 246.449327 
L 312.329711 246.449327 
L 312.329711 246.008195 
L 313.466112 246.008195 
L 313.485825 244.6848 
L 314.267525 244.6848 
L 314.267525 244.243668 
L 315.718004 244.243668 
L 315.718004 243.802537 
L 316.376998 243.802537 
L 316.376998 243.361405 
L 316.724166 243.361405 
L 316.724166 242.920273 
L 317.349403 242.920273 
L 317.349403 242.479141 
L 317.679235 242.479141 
L 317.679235 242.03801 
L 318.555741 242.03801 
L 318.555741 241.596878 
L 319.424216 241.596878 
L 319.424216 241.155746 
L 320.254359 241.155746 
L 320.254359 240.714615 
L 321.049411 240.714615 
L 321.077797 239.832351 
L 329.147265 239.832351 
L 329.147265 239.39122 
L 360.8064 239.39122 
L 360.8064 239.39122 
" style="fill:none;stroke:#ff00ff;stroke-linecap:square;stroke-width:1.5;"/>
   </g>
   <g id="line2d_36">
    <defs>
     <path d="M -0 8.485281 
L 5.091169 0 
L 0 -8.485281 
L -5.091169 -0 
z
" id="mda10b628e5" style="stroke:#ff00ff;stroke-linejoin:miter;stroke-width:1.5;"/>
    </defs>
    <g>
     <use style="fill-opacity:0;stroke:#ff00ff;stroke-linejoin:miter;stroke-width:1.5;" x="289.360233" xlink:href="#mda10b628e5" y="262.330068"/>
     <use style="fill-opacity:0;stroke:#ff00ff;stroke-linejoin:miter;stroke-width:1.5;" x="329.147265" xlink:href="#mda10b628e5" y="239.39122"/>
     <use style="fill-opacity:0;stroke:#ff00ff;stroke-linejoin:miter;stroke-width:1.5;" x="329.147265" xlink:href="#mda10b628e5" y="239.39122"/>
     <use style="fill-opacity:0;stroke:#ff00ff;stroke-linejoin:miter;stroke-width:1.5;" x="360.8064" xlink:href="#mda10b628e5" y="239.39122"/>
    </g>
   </g>
   <g id="line2d_37">
    <path style="fill:none;stroke:#ff00ff;stroke-linecap:square;stroke-width:1.5;"/>
    <g/>
   </g>
   <g id="line2d_38">
    <path clip-path="url(#p669457d1eb)" d="M 261.136948 284.386654 
" style="fill:none;stroke:#ff00ff;stroke-linecap:square;stroke-width:1.5;"/>
    <defs>
     <path d="M -12 12 
L 12 -12 
M -12 -12 
L 12 12 
" id="m44b835b5cb" style="stroke:#ff00ff;"/>
    </defs>
    <g clip-path="url(#p669457d1eb)">
     <use style="fill:#ff00ff;stroke:#ff00ff;" x="261.136948" xlink:href="#m44b835b5cb" y="284.386654"/>
    </g>
   </g>
   <g id="line2d_39">
    <defs>
     <path d="M 0 1.5 
C 0.397805 1.5 0.77937 1.341951 1.06066 1.06066 
C 1.341951 0.77937 1.5 0.397805 1.5 0 
C 1.5 -0.397805 1.341951 -0.77937 1.06066 -1.06066 
C 0.77937 -1.341951 0.397805 -1.5 0 -1.5 
C -0.397805 -1.5 -0.77937 -1.341951 -1.06066 -1.06066 
C -1.341951 -0.77937 -1.5 -0.397805 -1.5 0 
C -1.5 0.397805 -1.341951 0.77937 -1.06066 1.06066 
C -0.77937 1.341951 -0.397805 1.5 0 1.5 
z
" id="ma14bf838d4" style="stroke:#ff7500;"/>
    </defs>
    <g>
     <use style="fill:#ff7500;stroke:#ff7500;" x="316.437464" xlink:href="#ma14bf838d4" y="232.774244"/>
     <use style="fill:#ff7500;stroke:#ff7500;" x="316.437464" xlink:href="#ma14bf838d4" y="232.774244"/>
    </g>
   </g>
   <g id="line2d_40">
    <path d="M 166.628555 298.944 
L 166.628555 298.502868 
L 168.189084 298.502868 
L 168.189084 298.061737 
L 169.573862 298.061737 
L 169.573862 297.620605 
L 171.608963 297.620605 
L 171.608963 297.179473 
L 173.833299 297.179473 
L 173.833299 296.738341 
L 174.071594 296.738341 
L 174.071594 296.29721 
L 174.524288 296.29721 
L 174.524288 295.856078 
L 174.944302 295.856078 
L 174.944302 295.414946 
L 175.205299 295.414946 
L 175.205299 294.973815 
L 175.676059 294.973815 
L 175.676059 294.532683 
L 175.955053 294.532683 
L 175.955053 294.091551 
L 176.265981 294.091551 
L 176.265981 293.65042 
L 176.504309 293.65042 
L 176.56005 292.768156 
L 177.100362 292.768156 
L 177.149464 291.885893 
L 177.608049 291.885893 
L 177.608049 291.444761 
L 177.833216 291.444761 
L 177.833216 291.003629 
L 178.353979 291.003629 
L 178.353979 290.562498 
L 178.75595 290.562498 
L 178.75595 290.121366 
L 179.817969 290.121366 
L 179.842067 288.797971 
L 179.987412 288.797971 
L 179.987412 288.356839 
L 180.341109 288.356839 
L 180.341109 287.915707 
L 181.026497 287.915707 
L 181.026497 287.474576 
L 181.360049 287.474576 
L 181.360049 287.033444 
L 182.804611 287.033444 
L 182.804611 286.592312 
L 183.225841 286.592312 
L 183.225841 286.15118 
L 183.436482 286.15118 
L 183.436482 285.710049 
L 183.716407 285.710049 
L 183.716407 285.268917 
L 183.850817 285.268917 
L 183.850817 284.827785 
L 183.962665 284.827785 
L 183.962665 284.386654 
L 184.132583 284.386654 
L 184.132583 283.945522 
L 185.251157 283.945522 
L 185.251157 283.50439 
L 186.75856 283.50439 
L 186.81438 282.622127 
L 189.735764 282.622127 
L 189.735764 282.180995 
L 189.980306 282.180995 
L 189.980306 281.739863 
L 190.599706 281.739863 
L 190.599706 281.298732 
L 191.106184 281.298732 
L 191.106184 280.8576 
L 191.394303 280.8576 
L 191.394303 280.416468 
L 191.663724 280.416468 
L 191.663724 279.975337 
L 192.715838 279.975337 
L 192.715838 279.534205 
L 193.072566 279.534205 
L 193.072566 279.093073 
L 193.557744 279.093073 
L 193.557744 278.651941 
L 196.178133 278.651941 
L 196.178133 278.21081 
L 196.701027 278.21081 
L 196.701027 277.769678 
L 199.912866 277.769678 
L 199.912866 277.328546 
L 200.738167 277.328546 
L 200.738167 276.887415 
L 202.600623 276.887415 
L 202.600623 276.446283 
L 204.154114 276.446283 
L 204.154114 276.005151 
L 205.847853 276.005151 
L 205.847853 275.56402 
L 206.930625 275.56402 
L 206.930625 275.122888 
L 207.098361 275.122888 
L 207.098361 274.681756 
L 207.263625 274.681756 
L 207.263625 273.799493 
L 207.632267 273.799493 
L 207.684253 272.476098 
L 208.068531 272.476098 
L 208.068531 272.034966 
L 208.223956 272.034966 
L 208.223956 271.593834 
L 208.705898 271.593834 
L 208.705898 271.152702 
L 209.253681 271.152702 
L 209.253681 270.711571 
L 210.031481 270.711571 
L 210.031481 270.270439 
L 212.560395 270.270439 
L 212.560395 269.829307 
L 212.832372 269.829307 
L 212.832372 269.388176 
L 214.404774 269.388176 
L 214.404774 268.947044 
L 215.726737 268.947044 
L 215.726737 268.505912 
L 216.46849 268.505912 
L 216.46849 268.06478 
L 219.58983 268.06478 
L 219.58983 267.623649 
L 219.821624 267.623649 
L 219.821624 267.182517 
L 222.308052 267.182517 
L 222.308052 266.741385 
L 225.442343 266.741385 
L 225.442343 266.300254 
L 227.99628 266.300254 
L 227.99628 265.859122 
L 229.051339 265.859122 
L 229.051339 265.41799 
L 229.72927 265.41799 
L 229.72927 264.976859 
L 230.885098 264.976859 
L 230.885098 264.535727 
L 232.799002 264.535727 
L 232.799002 264.094595 
L 233.753128 264.094595 
L 233.753128 263.653463 
L 236.256161 263.653463 
L 236.256161 263.212332 
L 237.879752 263.212332 
L 237.879752 262.7712 
L 238.381358 262.7712 
L 238.381358 262.330068 
L 238.912652 262.330068 
L 238.912652 261.888937 
L 240.042947 261.888937 
L 240.042947 261.447805 
L 240.289111 261.447805 
L 240.290934 260.565541 
L 241.607576 260.565541 
L 241.607576 260.12441 
L 243.442726 260.12441 
L 243.442726 259.683278 
L 245.655653 259.683278 
L 245.701178 258.801015 
L 246.466379 258.801015 
L 246.466379 258.359883 
L 247.624914 258.359883 
L 247.624914 257.918751 
L 248.46779 257.918751 
L 248.46779 257.47762 
L 248.693416 257.47762 
L 248.693416 257.036488 
L 249.077017 257.036488 
L 249.162964 256.154224 
L 249.973326 256.154224 
L 249.977889 255.271961 
L 250.088344 255.271961 
L 250.088344 254.830829 
L 251.141711 254.830829 
L 251.141711 254.389698 
L 252.358714 254.389698 
L 252.358714 253.948566 
L 254.089396 253.948566 
L 254.089396 253.507434 
L 254.52755 253.507434 
L 254.624492 252.625171 
L 254.739845 252.625171 
L 254.739845 252.184039 
L 255.025184 252.184039 
L 255.025184 251.742907 
L 256.375071 251.742907 
L 256.447138 250.860644 
L 256.762208 250.860644 
L 256.762208 250.419512 
L 256.894854 250.419512 
L 256.894854 249.97838 
L 257.570031 249.97838 
L 257.570031 249.537249 
L 258.971943 249.537249 
L 258.971943 249.096117 
L 259.116007 249.096117 
L 259.116007 248.654985 
L 259.370456 248.654985 
L 259.370456 248.213854 
L 259.495878 248.213854 
L 259.495878 247.772722 
L 259.78277 247.772722 
L 259.78277 247.33159 
L 262.200716 247.33159 
L 262.200716 246.890459 
L 262.340881 246.890459 
L 262.340881 246.449327 
L 264.382755 246.449327 
L 264.382755 246.008195 
L 265.080677 246.008195 
L 265.080677 245.567063 
L 266.04779 245.567063 
L 266.04779 245.125932 
L 268.888525 245.125932 
L 268.888525 244.6848 
L 270.294461 244.6848 
L 270.294461 243.361405 
L 271.160217 243.361405 
L 271.20032 242.479141 
L 271.945458 242.479141 
L 271.945458 242.03801 
L 273.192778 242.03801 
L 273.192778 241.596878 
L 273.313604 241.596878 
L 273.313604 240.273483 
L 274.74673 240.273483 
L 274.763329 239.39122 
L 275.971254 239.39122 
L 275.971254 238.950088 
L 276.79134 238.950088 
L 276.79134 238.508956 
L 279.903076 238.508956 
L 279.903076 237.626693 
L 281.272277 237.626693 
L 281.272277 237.185561 
L 290.295875 237.185561 
L 290.295875 236.744429 
L 291.072697 236.744429 
L 291.072697 236.303298 
L 297.516684 236.303298 
L 297.516684 235.862166 
L 300.042521 235.862166 
L 300.042521 235.421034 
L 302.281871 235.421034 
L 302.294724 234.538771 
L 304.294335 234.538771 
L 304.294335 233.656507 
L 306.101669 233.656507 
L 306.101669 233.215376 
L 316.437464 233.215376 
L 316.437464 232.774244 
L 360.8064 232.774244 
L 360.8064 232.774244 
" style="fill:none;stroke:#ff7500;stroke-linecap:square;stroke-width:1.5;"/>
   </g>
   <g id="line2d_41">
    <defs>
     <path d="M 0 -6 
L -1.347084 -1.854102 
L -5.706339 -1.854102 
L -2.179628 0.708204 
L -3.526712 4.854102 
L -0 2.291796 
L 3.526712 4.854102 
L 2.179628 0.708204 
L 5.706339 -1.854102 
L 1.347084 -1.854102 
z
" id="mdd83535a1d" style="stroke:#ff7500;stroke-linejoin:bevel;stroke-width:1.5;"/>
    </defs>
    <g>
     <use style="fill-opacity:0;stroke:#ff7500;stroke-linejoin:bevel;stroke-width:1.5;" x="275.971254" xlink:href="#mdd83535a1d" y="238.950088"/>
     <use style="fill-opacity:0;stroke:#ff7500;stroke-linejoin:bevel;stroke-width:1.5;" x="316.437464" xlink:href="#mdd83535a1d" y="232.774244"/>
     <use style="fill-opacity:0;stroke:#ff7500;stroke-linejoin:bevel;stroke-width:1.5;" x="316.437464" xlink:href="#mdd83535a1d" y="232.774244"/>
     <use style="fill-opacity:0;stroke:#ff7500;stroke-linejoin:bevel;stroke-width:1.5;" x="360.8064" xlink:href="#mdd83535a1d" y="232.774244"/>
    </g>
   </g>
   <g id="line2d_42">
    <path style="fill:none;stroke:#ff7500;stroke-linecap:square;stroke-width:1.5;"/>
    <g/>
   </g>
   <g id="line2d_43">
    <path clip-path="url(#p669457d1eb)" d="M 261.136948 247.33159 
" style="fill:none;stroke:#ff7500;stroke-linecap:square;stroke-width:1.5;"/>
    <defs>
     <path d="M -12 12 
L 12 -12 
M -12 -12 
L 12 12 
" id="m3e57779320" style="stroke:#ff7500;"/>
    </defs>
    <g clip-path="url(#p669457d1eb)">
     <use style="fill:#ff7500;stroke:#ff7500;" x="261.136948" xlink:href="#m3e57779320" y="247.33159"/>
    </g>
   </g>
   <g id="line2d_44">
    <defs>
     <path d="M 0 1.5 
C 0.397805 1.5 0.77937 1.341951 1.06066 1.06066 
C 1.341951 0.77937 1.5 0.397805 1.5 0 
C 1.5 -0.397805 1.341951 -0.77937 1.06066 -1.06066 
C 0.77937 -1.341951 0.397805 -1.5 0 -1.5 
C -0.397805 -1.5 -0.77937 -1.341951 -1.06066 -1.06066 
C -1.341951 -0.77937 -1.5 -0.397805 -1.5 0 
C -1.5 0.397805 -1.341951 0.77937 -1.06066 1.06066 
C -0.77937 1.341951 -0.397805 1.5 0 1.5 
z
" id="m1bf3554091" style="stroke:#6495ed;"/>
    </defs>
    <g>
     <use style="fill:#6495ed;stroke:#6495ed;" x="327.432968" xlink:href="#m1bf3554091" y="226.157268"/>
     <use style="fill:#6495ed;stroke:#6495ed;" x="327.432968" xlink:href="#m1bf3554091" y="226.157268"/>
    </g>
   </g>
   <g id="line2d_45">
    <path d="M 168.382844 298.944 
L 168.382844 298.502868 
L 168.703114 298.502868 
L 168.703114 298.061737 
L 170.884191 298.061737 
L 170.884191 297.179473 
L 172.714716 297.179473 
L 172.714716 296.738341 
L 172.983838 296.738341 
L 172.983838 296.29721 
L 173.91889 296.29721 
L 173.91889 295.856078 
L 174.071594 295.856078 
L 174.071594 295.414946 
L 174.431973 295.414946 
L 174.431973 294.973815 
L 174.772598 294.973815 
L 174.822609 294.091551 
L 175.246941 294.091551 
L 175.246941 293.65042 
L 175.453782 293.65042 
L 175.455571 292.768156 
L 176.128425 292.768156 
L 176.128425 292.327024 
L 176.405939 292.327024 
L 176.468752 291.444761 
L 176.69952 291.444761 
L 176.709562 290.562498 
L 177.195176 290.562498 
L 177.195176 290.121366 
L 177.321936 290.121366 
L 177.321936 289.680234 
L 177.695582 289.680234 
L 177.695582 289.239102 
L 177.807979 289.239102 
L 177.807979 288.797971 
L 178.425902 288.797971 
L 178.425902 288.356839 
L 178.547694 288.356839 
L 178.547694 287.915707 
L 178.679254 287.915707 
L 178.761953 287.033444 
L 179.478768 287.033444 
L 179.478768 286.592312 
L 179.763992 286.592312 
L 179.763992 286.15118 
L 180.133038 286.15118 
L 180.133038 285.710049 
L 180.436055 285.710049 
L 180.52506 284.827785 
L 181.059722 284.827785 
L 181.059722 284.386654 
L 182.315446 284.386654 
L 182.315446 283.945522 
L 182.493457 283.945522 
L 182.561006 283.063259 
L 183.409548 283.063259 
L 183.409548 282.622127 
L 183.696797 282.622127 
L 183.696797 282.180995 
L 184.429072 282.180995 
L 184.429072 281.739863 
L 184.641005 281.739863 
L 184.641005 281.298732 
L 184.997622 281.298732 
L 184.997622 280.8576 
L 185.697422 280.8576 
L 185.697422 280.416468 
L 185.924337 280.416468 
L 185.924337 279.975337 
L 187.531957 279.975337 
L 187.531957 279.534205 
L 189.766715 279.534205 
L 189.766715 279.093073 
L 190.517967 279.093073 
L 190.517967 278.651941 
L 192.954407 278.651941 
L 192.954407 278.21081 
L 193.75959 278.21081 
L 193.75959 277.769678 
L 195.538475 277.769678 
L 195.538475 277.328546 
L 196.311406 277.328546 
L 196.398558 276.446283 
L 196.635584 276.446283 
L 196.655299 275.56402 
L 196.875963 275.56402 
L 196.875963 275.122888 
L 197.070274 275.122888 
L 197.147215 273.358361 
L 197.33261 273.358361 
L 197.383972 272.476098 
L 198.47616 272.476098 
L 198.47616 272.034966 
L 202.996948 272.034966 
L 202.996948 271.593834 
L 205.928028 271.593834 
L 205.928028 271.152702 
L 206.696583 271.152702 
L 206.696583 270.711571 
L 206.907788 270.711571 
L 206.907788 270.270439 
L 207.097696 270.270439 
L 207.097696 269.829307 
L 209.561726 269.829307 
L 209.633669 268.947044 
L 213.383631 268.947044 
L 213.383631 268.505912 
L 214.519248 268.505912 
L 214.519248 268.06478 
L 216.147797 268.06478 
L 216.147797 267.623649 
L 219.291925 267.623649 
L 219.291925 267.182517 
L 221.09862 267.182517 
L 221.09862 266.741385 
L 221.296236 266.741385 
L 221.296236 266.300254 
L 224.970278 266.300254 
L 224.970278 265.859122 
L 226.504143 265.859122 
L 226.504143 265.41799 
L 226.902441 265.41799 
L 226.902441 264.976859 
L 227.150499 264.976859 
L 227.150499 264.535727 
L 228.203674 264.535727 
L 228.203674 264.094595 
L 228.324504 264.094595 
L 228.324504 263.653463 
L 230.861599 263.653463 
L 230.861599 263.212332 
L 231.277299 263.212332 
L 231.277299 262.7712 
L 231.568869 262.7712 
L 231.568869 262.330068 
L 232.417842 262.330068 
L 232.417842 261.888937 
L 232.94539 261.888937 
L 232.94539 261.447805 
L 235.35282 261.447805 
L 235.35282 261.006673 
L 236.626347 261.006673 
L 236.626347 260.565541 
L 236.962615 260.565541 
L 236.962615 260.12441 
L 237.198795 260.12441 
L 237.198795 259.683278 
L 238.912959 259.683278 
L 238.912959 259.242146 
L 239.778419 259.242146 
L 239.778419 258.801015 
L 239.969021 258.801015 
L 239.969021 258.359883 
L 240.515382 258.359883 
L 240.515382 257.918751 
L 241.667193 257.918751 
L 241.667193 257.47762 
L 241.998618 257.47762 
L 241.998618 257.036488 
L 243.473107 257.036488 
L 243.539619 256.154224 
L 245.133691 256.154224 
L 245.133691 255.713093 
L 246.226588 255.713093 
L 246.226588 255.271961 
L 246.469907 255.271961 
L 246.469907 254.830829 
L 247.793181 254.830829 
L 247.793181 254.389698 
L 248.100115 254.389698 
L 248.138409 253.507434 
L 248.469413 253.507434 
L 248.469413 253.066302 
L 249.514814 253.066302 
L 249.514814 252.625171 
L 249.762314 252.625171 
L 249.762314 252.184039 
L 249.947394 252.184039 
L 249.947394 251.742907 
L 250.354539 251.742907 
L 250.354539 251.301776 
L 250.552741 251.301776 
L 250.579798 250.419512 
L 251.041727 250.419512 
L 251.041727 249.97838 
L 251.331641 249.97838 
L 251.331641 249.537249 
L 251.891082 249.537249 
L 251.891082 249.096117 
L 252.802877 249.096117 
L 252.802877 248.654985 
L 253.556035 248.654985 
L 253.623664 247.772722 
L 253.678639 247.772722 
L 253.678639 247.33159 
L 254.148893 247.33159 
L 254.256888 246.449327 
L 254.615581 246.449327 
L 254.615581 246.008195 
L 255.30295 246.008195 
L 255.30295 245.567063 
L 255.638712 245.567063 
L 255.638712 245.125932 
L 255.818216 245.125932 
L 255.818216 244.6848 
L 256.358878 244.6848 
L 256.358878 244.243668 
L 256.995464 244.243668 
L 256.995464 243.802537 
L 257.168574 243.802537 
L 257.233596 242.920273 
L 257.902743 242.920273 
L 257.902743 242.479141 
L 258.27662 242.479141 
L 258.27662 242.03801 
L 258.64173 242.03801 
L 258.722898 241.155746 
L 258.912181 241.155746 
L 258.912181 240.714615 
L 259.716041 240.714615 
L 259.716041 240.273483 
L 260.302286 240.273483 
L 260.302286 239.832351 
L 260.459555 239.832351 
L 260.459555 239.39122 
L 260.607841 239.39122 
L 260.607841 238.950088 
L 260.780444 238.950088 
L 260.820202 238.067824 
L 269.618795 238.067824 
L 269.628619 237.185561 
L 272.219123 237.185561 
L 272.219123 236.744429 
L 272.62844 236.744429 
L 272.62844 236.303298 
L 272.800271 236.303298 
L 272.800271 235.862166 
L 273.007795 235.862166 
L 273.007795 235.421034 
L 273.479082 235.421034 
L 273.479082 234.979902 
L 274.018416 234.979902 
L 274.018416 234.538771 
L 278.897095 234.538771 
L 278.897095 234.097639 
L 281.341738 234.097639 
L 281.341738 233.215376 
L 285.074305 233.215376 
L 285.074305 232.774244 
L 285.917531 232.774244 
L 285.917531 232.333112 
L 286.298897 232.333112 
L 286.298897 231.89198 
L 287.136609 231.89198 
L 287.136609 231.009717 
L 290.382022 231.009717 
L 290.382022 230.568585 
L 291.137249 230.568585 
L 291.137249 229.686322 
L 293.987571 229.686322 
L 293.987571 229.24519 
L 297.011955 229.24519 
L 297.011955 228.362927 
L 297.440375 228.362927 
L 297.440375 227.921795 
L 300.082617 227.921795 
L 300.082617 227.480663 
L 303.624756 227.480663 
L 303.624756 227.039532 
L 310.419968 227.039532 
L 310.419968 226.5984 
L 327.432968 226.5984 
L 327.432968 226.157268 
L 360.8064 226.157268 
L 360.8064 226.157268 
" style="fill:none;stroke:#6495ed;stroke-linecap:square;stroke-width:1.5;"/>
   </g>
   <g id="line2d_46">
    <defs>
     <path d="M -0 6 
L 6 -6 
L -6 -6 
z
" id="mfa32b33aea" style="stroke:#6495ed;stroke-linejoin:miter;stroke-width:1.5;"/>
    </defs>
    <g>
     <use style="fill-opacity:0;stroke:#6495ed;stroke-linejoin:miter;stroke-width:1.5;" x="260.820202" xlink:href="#mfa32b33aea" y="238.508956"/>
     <use style="fill-opacity:0;stroke:#6495ed;stroke-linejoin:miter;stroke-width:1.5;" x="310.419968" xlink:href="#mfa32b33aea" y="226.5984"/>
     <use style="fill-opacity:0;stroke:#6495ed;stroke-linejoin:miter;stroke-width:1.5;" x="327.432968" xlink:href="#mfa32b33aea" y="226.157268"/>
     <use style="fill-opacity:0;stroke:#6495ed;stroke-linejoin:miter;stroke-width:1.5;" x="360.8064" xlink:href="#mfa32b33aea" y="226.157268"/>
    </g>
   </g>
   <g id="line2d_47">
    <path style="fill:none;stroke:#6495ed;stroke-linecap:square;stroke-width:1.5;"/>
    <g/>
   </g>
   <g id="line2d_48">
    <path clip-path="url(#p669457d1eb)" d="M 261.136948 238.067824 
" style="fill:none;stroke:#6495ed;stroke-linecap:square;stroke-width:1.5;"/>
    <defs>
     <path d="M -12 12 
L 12 -12 
M -12 -12 
L 12 12 
" id="m5595bde1bc" style="stroke:#6495ed;"/>
    </defs>
    <g clip-path="url(#p669457d1eb)">
     <use style="fill:#6495ed;stroke:#6495ed;" x="261.136948" xlink:href="#m5595bde1bc" y="238.067824"/>
    </g>
   </g>
   <g id="line2d_49">
    <defs>
     <path d="M 0 1.5 
C 0.397805 1.5 0.77937 1.341951 1.06066 1.06066 
C 1.341951 0.77937 1.5 0.397805 1.5 0 
C 1.5 -0.397805 1.341951 -0.77937 1.06066 -1.06066 
C 0.77937 -1.341951 0.397805 -1.5 0 -1.5 
C -0.397805 -1.5 -0.77937 -1.341951 -1.06066 -1.06066 
C -1.341951 -0.77937 -1.5 -0.397805 -1.5 0 
C -1.5 0.397805 -1.341951 0.77937 -1.06066 1.06066 
C -0.77937 1.341951 -0.397805 1.5 0 1.5 
z
" id="m485e65078e" style="stroke:#ff0000;"/>
    </defs>
    <g>
     <use style="fill:#ff0000;stroke:#ff0000;" x="367.413498" xlink:href="#m485e65078e" y="285.710049"/>
     <use style="fill:#ff0000;stroke:#ff0000;" x="367.413498" xlink:href="#m485e65078e" y="285.710049"/>
    </g>
   </g>
   <g id="line2d_50">
    <path d="M 226.844017 298.944 
L 226.844017 298.061737 
L 254.684139 298.061737 
L 254.684139 297.620605 
L 287.959967 297.620605 
L 287.959967 297.179473 
L 290.287367 297.179473 
L 290.287367 296.738341 
L 301.853092 296.738341 
L 301.853092 296.29721 
L 313.482504 296.29721 
L 313.482504 294.532683 
L 314.109874 294.532683 
L 314.109874 294.091551 
L 317.642536 294.091551 
L 317.642536 293.209288 
L 321.469102 293.209288 
L 321.469102 292.768156 
L 326.427426 292.768156 
L 326.427426 292.327024 
L 326.745301 292.327024 
L 326.745301 291.885893 
L 328.632606 291.885893 
L 328.632606 291.444761 
L 330.606195 291.444761 
L 330.606195 291.003629 
L 334.023331 291.003629 
L 334.023331 290.562498 
L 336.914128 290.562498 
L 336.914128 290.121366 
L 338.208383 290.121366 
L 338.208383 289.239102 
L 338.378983 289.239102 
L 338.378983 288.797971 
L 339.419296 288.797971 
L 339.419296 288.356839 
L 342.644586 288.356839 
L 342.644586 287.915707 
L 343.607497 287.915707 
L 343.607497 287.474576 
L 345.396983 287.474576 
L 345.396983 287.033444 
L 347.79759 287.033444 
L 347.79759 286.592312 
L 355.162668 286.592312 
L 355.162668 286.15118 
L 360.8064 286.15118 
" style="fill:none;stroke:#ff0000;stroke-linecap:square;stroke-width:1.5;"/>
   </g>
   <g id="line2d_51">
    <defs>
     <path d="M 0 -6 
L -5.196152 -3 
L -5.196152 3 
L -0 6 
L 5.196152 3 
L 5.196152 -3 
z
" id="m45a800d339" style="stroke:#ff0000;stroke-linejoin:miter;stroke-width:1.5;"/>
    </defs>
    <g>
     <use style="fill-opacity:0;stroke:#ff0000;stroke-linejoin:miter;stroke-width:1.5;" x="254.684139" xlink:href="#m45a800d339" y="298.061737"/>
     <use style="fill-opacity:0;stroke:#ff0000;stroke-linejoin:miter;stroke-width:1.5;" x="330.606195" xlink:href="#m45a800d339" y="291.003629"/>
     <use style="fill-opacity:0;stroke:#ff0000;stroke-linejoin:miter;stroke-width:1.5;" x="355.162668" xlink:href="#m45a800d339" y="286.15118"/>
     <use style="fill-opacity:0;stroke:#ff0000;stroke-linejoin:miter;stroke-width:1.5;" x="360.8064" xlink:href="#m45a800d339" y="286.15118"/>
    </g>
   </g>
   <g id="line2d_52">
    <path style="fill:none;stroke:#ff0000;stroke-linecap:square;stroke-width:1.5;"/>
    <g/>
   </g>
   <g id="line2d_53">
    <path clip-path="url(#p669457d1eb)" d="M 287.215174 297.620605 
" style="fill:none;stroke:#ff0000;stroke-linecap:square;stroke-width:1.5;"/>
    <defs>
     <path d="M -12 12 
L 12 -12 
M -12 -12 
L 12 12 
" id="mde12d862d8" style="stroke:#ff0000;"/>
    </defs>
    <g clip-path="url(#p669457d1eb)">
     <use style="fill:#ff0000;stroke:#ff0000;" x="287.215174" xlink:href="#mde12d862d8" y="297.620605"/>
    </g>
   </g>
   <g id="line2d_54">
    <defs>
     <path d="M 0 1.5 
C 0.397805 1.5 0.77937 1.341951 1.06066 1.06066 
C 1.341951 0.77937 1.5 0.397805 1.5 0 
C 1.5 -0.397805 1.341951 -0.77937 1.06066 -1.06066 
C 0.77937 -1.341951 0.397805 -1.5 0 -1.5 
C -0.397805 -1.5 -0.77937 -1.341951 -1.06066 -1.06066 
C -1.341951 -0.77937 -1.5 -0.397805 -1.5 0 
C -1.5 0.397805 -1.341951 0.77937 -1.06066 1.06066 
C -0.77937 1.341951 -0.397805 1.5 0 1.5 
z
" id="m9a4c8fa7a6" style="stroke:#9acd32;"/>
    </defs>
    <g>
     <use style="fill:#9acd32;stroke:#9acd32;" x="265.45286" xlink:href="#m9a4c8fa7a6" y="153.370537"/>
     <use style="fill:#9acd32;stroke:#9acd32;" x="265.45286" xlink:href="#m9a4c8fa7a6" y="153.370537"/>
    </g>
   </g>
   <g id="line2d_55">
    <path d="M 71.999638 298.944 
L 71.999638 298.502868 
L 75.209369 298.502868 
L 75.209369 298.061737 
L 76.629783 298.061737 
L 76.629783 297.620605 
L 78.577544 297.620605 
L 78.577544 296.738341 
L 82.464279 296.738341 
L 82.464279 295.856078 
L 82.713442 295.856078 
L 82.713442 294.973815 
L 85.471281 294.973815 
L 85.471281 294.532683 
L 85.894031 294.532683 
L 85.894031 293.65042 
L 91.46189 293.65042 
L 91.46189 292.768156 
L 92.073702 292.768156 
L 92.073702 292.327024 
L 92.372304 292.327024 
L 92.372304 291.885893 
L 92.666241 291.885893 
L 92.666241 290.562498 
L 94.205591 290.562498 
L 94.205591 290.121366 
L 94.472426 290.121366 
L 94.472426 289.680234 
L 94.995002 289.680234 
L 94.995002 289.239102 
L 95.123409 289.239102 
L 95.123409 287.915707 
L 95.628448 287.915707 
L 95.628448 286.592312 
L 96.480897 286.592312 
L 96.480897 285.710049 
L 96.599582 285.710049 
L 96.599582 285.268917 
L 96.717523 285.268917 
L 96.717523 284.827785 
L 97.296386 284.827785 
L 97.296386 284.386654 
L 97.635342 284.386654 
L 97.635342 283.945522 
L 97.968299 283.945522 
L 98.077987 280.8576 
L 98.295464 280.8576 
L 98.403267 279.975337 
L 98.617037 279.975337 
L 98.617037 279.093073 
L 99.037425 279.093073 
L 99.037425 278.651941 
L 99.346662 278.651941 
L 99.346662 278.21081 
L 99.650899 278.21081 
L 99.650899 277.769678 
L 100.147275 277.769678 
L 100.147275 277.328546 
L 100.438933 277.328546 
L 100.535156 276.446283 
L 101.471247 276.446283 
L 101.471247 275.56402 
L 101.653002 275.56402 
L 101.653002 274.681756 
L 102.011329 274.681756 
L 102.011329 274.240624 
L 102.362957 274.240624 
L 102.362957 273.799493 
L 102.708132 273.799493 
L 102.708132 272.917229 
L 102.878374 272.917229 
L 102.878374 272.476098 
L 103.047088 272.476098 
L 103.047088 272.034966 
L 103.214303 272.034966 
L 103.297357 269.388176 
L 103.544339 269.388176 
L 103.544339 268.505912 
L 103.788121 268.505912 
L 103.868684 266.741385 
L 103.948904 266.741385 
L 103.948904 265.859122 
L 104.108325 265.859122 
L 104.108325 265.41799 
L 104.266406 265.41799 
L 104.266406 264.976859 
L 104.655893 264.976859 
L 104.655893 264.535727 
L 105.037479 264.535727 
L 105.112877 263.212332 
L 105.26277 263.212332 
L 105.337272 262.330068 
L 105.411479 262.330068 
L 105.411479 261.447805 
L 105.850679 261.447805 
L 105.850679 260.565541 
L 105.99483 260.565541 
L 105.99483 258.359883 
L 106.137884 258.359883 
L 106.209005 256.595356 
L 106.350446 256.595356 
L 106.350446 256.154224 
L 106.905809 256.154224 
L 106.905809 255.713093 
L 107.109915 255.713093 
L 107.109915 254.389698 
L 107.31183 254.389698 
L 107.31183 253.948566 
L 107.5116 253.948566 
L 107.5116 253.507434 
L 107.643612 253.507434 
L 107.643612 253.066302 
L 107.904887 253.066302 
L 107.904887 252.625171 
L 108.034177 252.625171 
L 108.09849 250.860644 
L 108.22646 250.860644 
L 108.22646 250.419512 
L 108.353566 250.419512 
L 108.353566 249.537249 
L 108.479818 249.537249 
L 108.542628 246.449327 
L 108.791791 246.449327 
L 108.791791 244.6848 
L 108.976522 244.6848 
L 108.976522 244.243668 
L 109.990385 244.243668 
L 110.048356 241.155746 
L 110.106149 241.155746 
L 110.106149 240.273483 
L 110.278469 240.273483 
L 110.278469 238.508956 
L 110.897141 238.508956 
L 110.897141 238.067824 
L 111.171767 238.067824 
L 111.171767 236.303298 
L 111.602996 236.303298 
L 111.709277 234.979902 
L 111.762192 234.979902 
L 111.762192 233.656507 
L 111.920053 233.656507 
L 111.920053 233.215376 
L 112.180244 233.215376 
L 112.231853 232.333112 
L 112.436886 232.333112 
L 112.436886 229.686322 
L 112.890198 229.686322 
L 112.989468 224.833873 
L 113.284172 224.833873 
L 113.284172 223.95161 
L 113.670063 223.95161 
L 113.765312 222.187083 
L 113.812756 222.187083 
L 113.812756 221.745951 
L 113.954374 221.745951 
L 113.954374 219.540293 
L 114.188061 219.540293 
L 114.280729 218.658029 
L 114.646902 218.658029 
L 114.737343 217.775766 
L 114.872193 217.775766 
L 114.961559 216.452371 
L 115.050503 216.452371 
L 115.050503 214.687844 
L 115.358535 214.687844 
L 115.358535 213.80558 
L 115.489021 213.80558 
L 115.532315 212.923317 
L 115.618607 212.923317 
L 115.618607 212.041054 
L 115.875132 212.041054 
L 115.959869 211.15879 
L 116.044226 211.15879 
L 116.044226 210.717659 
L 116.624364 210.717659 
L 116.624364 209.835395 
L 116.746385 209.835395 
L 116.746385 208.512 
L 117.226706 208.512 
L 117.226706 208.070868 
L 117.733577 208.070868 
L 117.733577 207.629737 
L 118.11439 207.629737 
L 118.11439 207.188605 
L 118.227147 207.188605 
L 118.227147 206.306341 
L 119.212653 206.306341 
L 119.212653 205.86521 
L 119.424815 205.86521 
L 119.495008 204.982946 
L 119.773187 204.982946 
L 119.773187 204.541815 
L 120.047313 204.541815 
L 120.047313 203.659551 
L 120.944062 203.659551 
L 120.944062 203.21842 
L 127.549596 203.21842 
L 127.549596 202.777288 
L 135.694909 202.777288 
L 135.694909 202.336156 
L 135.812989 202.336156 
L 135.812989 201.895024 
L 136.046948 201.895024 
L 136.07599 198.807102 
L 136.206124 198.807102 
L 136.220528 197.924839 
L 136.591211 197.924839 
L 136.591211 197.483707 
L 136.731859 197.483707 
L 136.815745 196.601444 
L 136.871463 196.601444 
L 136.885366 194.836917 
L 137.202345 194.836917 
L 137.202345 193.954654 
L 137.527508 193.954654 
L 137.527508 193.513522 
L 137.860347 193.513522 
L 137.926213 190.866732 
L 138.031123 190.866732 
L 138.031123 190.4256 
L 138.457795 190.4256 
L 138.457795 189.543337 
L 138.999625 189.543337 
L 138.999625 189.102205 
L 142.001193 189.102205 
L 142.06462 188.219941 
L 146.855449 188.219941 
L 146.855449 187.337678 
L 147.147673 187.337678 
L 147.228048 185.573151 
L 147.427493 185.573151 
L 147.427493 185.13202 
L 147.804601 185.13202 
L 147.812378 183.808624 
L 147.951809 183.808624 
L 147.951809 183.367493 
L 148.120834 183.367493 
L 148.181923 182.044098 
L 148.819028 182.044098 
L 148.819028 181.602966 
L 149.619794 181.602966 
L 149.619794 181.161834 
L 150.823488 181.161834 
L 150.823488 180.720702 
L 155.198537 180.720702 
L 155.198537 180.279571 
L 155.726579 180.279571 
L 155.726579 179.838439 
L 157.023421 179.838439 
L 157.023421 179.397307 
L 159.401463 179.397307 
L 159.401463 178.956176 
L 160.683643 178.956176 
L 160.683643 178.515044 
L 163.330169 178.515044 
L 163.330169 178.073912 
L 163.956832 178.073912 
L 163.956832 177.63278 
L 164.693684 177.63278 
L 164.693684 177.191649 
L 166.651417 177.191649 
L 166.651417 176.750517 
L 167.379716 176.750517 
L 167.379716 176.309385 
L 167.725466 176.309385 
L 167.725466 175.868254 
L 169.447515 175.868254 
L 169.447515 175.427122 
L 171.73036 175.427122 
L 171.73036 174.98599 
L 175.371318 174.98599 
L 175.371318 174.103727 
L 175.509152 174.103727 
L 175.61586 172.780332 
L 175.633585 172.780332 
L 175.633585 171.456937 
L 175.845003 171.456937 
L 175.948085 168.810146 
L 176.043672 168.810146 
L 176.078311 167.927883 
L 177.629572 167.927883 
L 177.629572 167.486751 
L 185.183028 167.486751 
L 185.183028 167.04562 
L 192.336909 167.04562 
L 192.336909 166.604488 
L 198.038143 166.604488 
L 198.038143 166.163356 
L 202.362737 166.163356 
L 202.362737 165.722224 
L 204.474444 165.722224 
L 204.474444 165.281093 
L 205.183902 165.281093 
L 205.281246 161.310907 
L 205.302118 161.310907 
L 205.302118 160.869776 
L 209.702875 160.869776 
L 209.702875 160.428644 
L 210.52143 160.428644 
L 210.52143 159.987512 
L 218.407419 159.987512 
L 218.407419 159.54638 
L 219.668521 159.54638 
L 219.668521 159.105249 
L 219.835911 159.105249 
L 219.835911 158.664117 
L 221.300458 158.664117 
L 221.300458 158.222985 
L 223.827209 158.222985 
L 223.827209 157.781854 
L 227.538568 157.781854 
L 227.538568 157.340722 
L 233.583722 157.340722 
L 233.583722 156.89959 
L 240.497865 156.89959 
L 240.497865 156.458459 
L 241.005666 156.458459 
L 241.005666 156.017327 
L 249.516524 156.017327 
L 249.516524 155.576195 
L 250.928752 155.576195 
L 250.928752 155.135063 
L 255.587112 155.135063 
L 255.587112 154.693932 
L 256.551089 154.693932 
L 256.551089 154.2528 
L 262.100122 154.2528 
L 262.100122 153.811668 
L 265.45286 153.811668 
L 265.45286 153.370537 
L 360.8064 153.370537 
L 360.8064 153.370537 
" style="fill:none;stroke:#9acd32;stroke-linecap:square;stroke-width:1.5;"/>
   </g>
   <g id="line2d_56">
    <defs>
     <path d="M 0 -6 
L -6 6 
L 6 6 
z
" id="m74ac60317c" style="stroke:#9acd32;stroke-linejoin:miter;stroke-width:1.5;"/>
    </defs>
    <g>
     <use style="fill-opacity:0;stroke:#9acd32;stroke-linejoin:miter;stroke-width:1.5;" x="108.542628" xlink:href="#m74ac60317c" y="248.654985"/>
     <use style="fill-opacity:0;stroke:#9acd32;stroke-linejoin:miter;stroke-width:1.5;" x="163.956832" xlink:href="#m74ac60317c" y="177.63278"/>
     <use style="fill-opacity:0;stroke:#9acd32;stroke-linejoin:miter;stroke-width:1.5;" x="250.928752" xlink:href="#m74ac60317c" y="155.576195"/>
     <use style="fill-opacity:0;stroke:#9acd32;stroke-linejoin:miter;stroke-width:1.5;" x="265.45286" xlink:href="#m74ac60317c" y="153.370537"/>
     <use style="fill-opacity:0;stroke:#9acd32;stroke-linejoin:miter;stroke-width:1.5;" x="360.8064" xlink:href="#m74ac60317c" y="153.370537"/>
    </g>
   </g>
   <g id="line2d_57">
    <path style="fill:none;stroke:#9acd32;stroke-linecap:square;stroke-width:1.5;"/>
    <g/>
   </g>
   <g id="line2d_58">
    <path clip-path="url(#p669457d1eb)" d="M 218.318039 159.987512 
" style="fill:none;stroke:#9acd32;stroke-linecap:square;stroke-width:1.5;"/>
    <defs>
     <path d="M -12 12 
L 12 -12 
M -12 -12 
L 12 12 
" id="m1724b93682" style="stroke:#9acd32;"/>
    </defs>
    <g clip-path="url(#p669457d1eb)">
     <use style="fill:#9acd32;stroke:#9acd32;" x="218.318039" xlink:href="#m1724b93682" y="159.987512"/>
    </g>
   </g>
   <g id="line2d_59">
    <path d="M 360.8064 286.15118 
L 380.514816 293.51808 
" style="fill:none;stroke:#ff0000;stroke-linecap:square;stroke-width:1.5;"/>
    <g>
     <use style="fill-opacity:0;stroke:#ff0000;stroke-linejoin:miter;stroke-width:1.5;" x="360.8064" xlink:href="#m45a800d339" y="286.15118"/>
     <use style="fill-opacity:0;stroke:#ff0000;stroke-linejoin:miter;stroke-width:1.5;" x="380.514816" xlink:href="#m45a800d339" y="293.51808"/>
    </g>
   </g>
   <g id="line2d_60">
    <path d="M 360.8064 239.39122 
L 380.514816 241.429248 
" style="fill:none;stroke:#ff00ff;stroke-linecap:square;stroke-width:1.5;"/>
    <g>
     <use style="fill-opacity:0;stroke:#ff00ff;stroke-linejoin:miter;stroke-width:1.5;" x="360.8064" xlink:href="#mda10b628e5" y="239.39122"/>
     <use style="fill-opacity:0;stroke:#ff00ff;stroke-linejoin:miter;stroke-width:1.5;" x="380.514816" xlink:href="#mda10b628e5" y="241.429248"/>
    </g>
   </g>
   <g id="line2d_61">
    <path d="M 360.8064 232.774244 
L 380.514816 189.340416 
" style="fill:none;stroke:#ff7500;stroke-linecap:square;stroke-width:1.5;"/>
    <g>
     <use style="fill-opacity:0;stroke:#ff7500;stroke-linejoin:bevel;stroke-width:1.5;" x="360.8064" xlink:href="#mdd83535a1d" y="232.774244"/>
     <use style="fill-opacity:0;stroke:#ff7500;stroke-linejoin:bevel;stroke-width:1.5;" x="380.514816" xlink:href="#mdd83535a1d" y="189.340416"/>
    </g>
   </g>
   <g id="line2d_62">
    <path d="M 360.8064 226.157268 
L 380.514816 137.251584 
" style="fill:none;stroke:#6495ed;stroke-linecap:square;stroke-width:1.5;"/>
    <g>
     <use style="fill-opacity:0;stroke:#6495ed;stroke-linejoin:miter;stroke-width:1.5;" x="360.8064" xlink:href="#mfa32b33aea" y="226.157268"/>
     <use style="fill-opacity:0;stroke:#6495ed;stroke-linejoin:miter;stroke-width:1.5;" x="380.514816" xlink:href="#mfa32b33aea" y="137.251584"/>
    </g>
   </g>
   <g id="line2d_63">
    <path d="M 360.8064 226.157268 
L 380.514816 85.162752 
" style="fill:none;stroke:#000080;stroke-linecap:square;stroke-width:1.5;"/>
    <g>
     <use style="fill-opacity:0;stroke:#000080;stroke-width:1.5;" x="360.8064" xlink:href="#mc33f1dca25" y="226.157268"/>
     <use style="fill-opacity:0;stroke:#000080;stroke-width:1.5;" x="380.514816" xlink:href="#mc33f1dca25" y="85.162752"/>
    </g>
   </g>
   <g id="line2d_64">
    <path d="M 360.8064 153.370537 
L 380.514816 33.07392 
" style="fill:none;stroke:#9acd32;stroke-linecap:square;stroke-width:1.5;"/>
    <g>
     <use style="fill-opacity:0;stroke:#9acd32;stroke-linejoin:miter;stroke-width:1.5;" x="360.8064" xlink:href="#m74ac60317c" y="153.370537"/>
     <use style="fill-opacity:0;stroke:#9acd32;stroke-linejoin:miter;stroke-width:1.5;" x="380.514816" xlink:href="#m74ac60317c" y="33.07392"/>
    </g>
   </g>
   <g id="line2d_65">
    <path d="M 360.8064 298.944 
L 360.8064 27.648 
" style="fill:none;stroke:#000000;stroke-linecap:square;stroke-width:1.5;"/>
   </g>
   <g id="patch_3">
    <path d="M 57.6 298.944 
L 360.8064 298.944 
" style="fill:none;stroke:#000000;stroke-linecap:square;stroke-linejoin:miter;stroke-width:0.8;"/>
   </g>
   <g id="patch_4">
    <path d="M 57.6 27.648 
L 360.8064 27.648 
" style="fill:none;stroke:#000000;stroke-linecap:square;stroke-linejoin:miter;stroke-width:0.8;"/>
   </g>
   <g id="text_13">
    <!-- rs -->
    <g transform="translate(386.578944 297.381205)scale(0.14 -0.14)">
     <use xlink:href="#DejaVuSans-114"/>
     <use x="41.113281" xlink:href="#DejaVuSans-115"/>
    </g>
   </g>
   <g id="text_14">
    <!-- al2 -->
    <g transform="translate(386.578944 245.292373)scale(0.14 -0.14)">
     <use xlink:href="#DejaVuSans-97"/>
     <use x="61.279297" xlink:href="#DejaVuSans-108"/>
     <use x="89.0625" xlink:href="#DejaVuSans-50"/>
    </g>
   </g>
   <g id="text_15">
    <!-- al3 -->
    <g transform="translate(386.578944 193.203541)scale(0.14 -0.14)">
     <defs>
      <path d="M 40.578125 39.3125 
Q 47.65625 37.796875 51.625 33 
Q 55.609375 28.21875 55.609375 21.1875 
Q 55.609375 10.40625 48.1875 4.484375 
Q 40.765625 -1.421875 27.09375 -1.421875 
Q 22.515625 -1.421875 17.65625 -0.515625 
Q 12.796875 0.390625 7.625 2.203125 
L 7.625 11.71875 
Q 11.71875 9.328125 16.59375 8.109375 
Q 21.484375 6.890625 26.8125 6.890625 
Q 36.078125 6.890625 40.9375 10.546875 
Q 45.796875 14.203125 45.796875 21.1875 
Q 45.796875 27.640625 41.28125 31.265625 
Q 36.765625 34.90625 28.71875 34.90625 
L 20.21875 34.90625 
L 20.21875 43.015625 
L 29.109375 43.015625 
Q 36.375 43.015625 40.234375 45.921875 
Q 44.09375 48.828125 44.09375 54.296875 
Q 44.09375 59.90625 40.109375 62.90625 
Q 36.140625 65.921875 28.71875 65.921875 
Q 24.65625 65.921875 20.015625 65.03125 
Q 15.375 64.15625 9.8125 62.3125 
L 9.8125 71.09375 
Q 15.4375 72.65625 20.34375 73.4375 
Q 25.25 74.21875 29.59375 74.21875 
Q 40.828125 74.21875 47.359375 69.109375 
Q 53.90625 64.015625 53.90625 55.328125 
Q 53.90625 49.265625 50.4375 45.09375 
Q 46.96875 40.921875 40.578125 39.3125 
z
" id="DejaVuSans-51"/>
     </defs>
     <use xlink:href="#DejaVuSans-97"/>
     <use x="61.279297" xlink:href="#DejaVuSans-108"/>
     <use x="89.0625" xlink:href="#DejaVuSans-51"/>
    </g>
   </g>
   <g id="text_16">
    <!-- al4 -->
    <g transform="translate(386.578944 141.114709)scale(0.14 -0.14)">
     <use xlink:href="#DejaVuSans-97"/>
     <use x="61.279297" xlink:href="#DejaVuSans-108"/>
     <use x="89.0625" xlink:href="#DejaVuSans-52"/>
    </g>
   </g>
   <g id="text_17">
    <!-- al1 -->
    <g transform="translate(386.578944 89.025877)scale(0.14 -0.14)">
     <use xlink:href="#DejaVuSans-97"/>
     <use x="61.279297" xlink:href="#DejaVuSans-108"/>
     <use x="89.0625" xlink:href="#DejaVuSans-49"/>
    </g>
   </g>
   <g id="text_18">
    <!-- cobyla -->
    <g transform="translate(386.578944 36.937045)scale(0.14 -0.14)">
     <defs>
      <path d="M 48.6875 27.296875 
Q 48.6875 37.203125 44.609375 42.84375 
Q 40.53125 48.484375 33.40625 48.484375 
Q 26.265625 48.484375 22.1875 42.84375 
Q 18.109375 37.203125 18.109375 27.296875 
Q 18.109375 17.390625 22.1875 11.75 
Q 26.265625 6.109375 33.40625 6.109375 
Q 40.53125 6.109375 44.609375 11.75 
Q 48.6875 17.390625 48.6875 27.296875 
z
M 18.109375 46.390625 
Q 20.953125 51.265625 25.265625 53.625 
Q 29.59375 56 35.59375 56 
Q 45.5625 56 51.78125 48.09375 
Q 58.015625 40.1875 58.015625 27.296875 
Q 58.015625 14.40625 51.78125 6.484375 
Q 45.5625 -1.421875 35.59375 -1.421875 
Q 29.59375 -1.421875 25.265625 0.953125 
Q 20.953125 3.328125 18.109375 8.203125 
L 18.109375 0 
L 9.078125 0 
L 9.078125 75.984375 
L 18.109375 75.984375 
z
" id="DejaVuSans-98"/>
      <path d="M 32.171875 -5.078125 
Q 28.375 -14.84375 24.75 -17.8125 
Q 21.140625 -20.796875 15.09375 -20.796875 
L 7.90625 -20.796875 
L 7.90625 -13.28125 
L 13.1875 -13.28125 
Q 16.890625 -13.28125 18.9375 -11.515625 
Q 21 -9.765625 23.484375 -3.21875 
L 25.09375 0.875 
L 2.984375 54.6875 
L 12.5 54.6875 
L 29.59375 11.921875 
L 46.6875 54.6875 
L 56.203125 54.6875 
z
" id="DejaVuSans-121"/>
     </defs>
     <use xlink:href="#DejaVuSans-99"/>
     <use x="54.980469" xlink:href="#DejaVuSans-111"/>
     <use x="116.162109" xlink:href="#DejaVuSans-98"/>
     <use x="179.638672" xlink:href="#DejaVuSans-121"/>
     <use x="238.818359" xlink:href="#DejaVuSans-108"/>
     <use x="266.601562" xlink:href="#DejaVuSans-97"/>
    </g>
   </g>
   <g id="text_19">
    <!-- bbob-constrained f27, 40-D -->
    <g transform="translate(60.632064 38.111366)scale(0.102 -0.102)">
     <defs>
      <path d="M 4.890625 31.390625 
L 31.203125 31.390625 
L 31.203125 23.390625 
L 4.890625 23.390625 
z
" id="DejaVuSans-45"/>
      <path d="M 8.203125 72.90625 
L 55.078125 72.90625 
L 55.078125 68.703125 
L 28.609375 0 
L 18.3125 0 
L 43.21875 64.59375 
L 8.203125 64.59375 
z
" id="DejaVuSans-55"/>
      <path d="M 19.671875 64.796875 
L 19.671875 8.109375 
L 31.59375 8.109375 
Q 46.6875 8.109375 53.6875 14.9375 
Q 60.6875 21.78125 60.6875 36.53125 
Q 60.6875 51.171875 53.6875 57.984375 
Q 46.6875 64.796875 31.59375 64.796875 
z
M 9.8125 72.90625 
L 30.078125 72.90625 
Q 51.265625 72.90625 61.171875 64.09375 
Q 71.09375 55.28125 71.09375 36.53125 
Q 71.09375 17.671875 61.125 8.828125 
Q 51.171875 0 30.078125 0 
L 9.8125 0 
z
" id="DejaVuSans-68"/>
     </defs>
     <use xlink:href="#DejaVuSans-98"/>
     <use x="63.476562" xlink:href="#DejaVuSans-98"/>
     <use x="126.953125" xlink:href="#DejaVuSans-111"/>
     <use x="188.134766" xlink:href="#DejaVuSans-98"/>
     <use x="251.611328" xlink:href="#DejaVuSans-45"/>
     <use x="287.695312" xlink:href="#DejaVuSans-99"/>
     <use x="342.675781" xlink:href="#DejaVuSans-111"/>
     <use x="403.857422" xlink:href="#DejaVuSans-110"/>
     <use x="467.236328" xlink:href="#DejaVuSans-115"/>
     <use x="519.335938" xlink:href="#DejaVuSans-116"/>
     <use x="558.544922" xlink:href="#DejaVuSans-114"/>
     <use x="599.658203" xlink:href="#DejaVuSans-97"/>
     <use x="660.9375" xlink:href="#DejaVuSans-105"/>
     <use x="688.720703" xlink:href="#DejaVuSans-110"/>
     <use x="752.099609" xlink:href="#DejaVuSans-101"/>
     <use x="813.623047" xlink:href="#DejaVuSans-100"/>
     <use x="877.099609" xlink:href="#DejaVuSans-32"/>
     <use x="908.886719" xlink:href="#DejaVuSans-102"/>
     <use x="944.091797" xlink:href="#DejaVuSans-50"/>
     <use x="1007.714844" xlink:href="#DejaVuSans-55"/>
     <use x="1071.337891" xlink:href="#DejaVuSans-44"/>
     <use x="1103.125" xlink:href="#DejaVuSans-32"/>
     <use x="1134.912109" xlink:href="#DejaVuSans-52"/>
     <use x="1198.535156" xlink:href="#DejaVuSans-48"/>
     <use x="1262.158203" xlink:href="#DejaVuSans-45"/>
     <use x="1298.242188" xlink:href="#DejaVuSans-68"/>
    </g>
    <!-- 41 targets: 100..1e-06 -->
    <g transform="translate(60.632064 49.533135)scale(0.102 -0.102)">
     <defs>
      <path d="M 11.71875 12.40625 
L 22.015625 12.40625 
L 22.015625 0 
L 11.71875 0 
z
M 11.71875 51.703125 
L 22.015625 51.703125 
L 22.015625 39.3125 
L 11.71875 39.3125 
z
" id="DejaVuSans-58"/>
     </defs>
     <use xlink:href="#DejaVuSans-52"/>
     <use x="63.623047" xlink:href="#DejaVuSans-49"/>
     <use x="127.246094" xlink:href="#DejaVuSans-32"/>
     <use x="159.033203" xlink:href="#DejaVuSans-116"/>
     <use x="198.242188" xlink:href="#DejaVuSans-97"/>
     <use x="259.521484" xlink:href="#DejaVuSans-114"/>
     <use x="298.884766" xlink:href="#DejaVuSans-103"/>
     <use x="362.361328" xlink:href="#DejaVuSans-101"/>
     <use x="423.884766" xlink:href="#DejaVuSans-116"/>
     <use x="463.09375" xlink:href="#DejaVuSans-115"/>
     <use x="515.193359" xlink:href="#DejaVuSans-58"/>
     <use x="548.884766" xlink:href="#DejaVuSans-32"/>
     <use x="580.671875" xlink:href="#DejaVuSans-49"/>
     <use x="644.294922" xlink:href="#DejaVuSans-48"/>
     <use x="707.917969" xlink:href="#DejaVuSans-48"/>
     <use x="771.541016" xlink:href="#DejaVuSans-46"/>
     <use x="803.328125" xlink:href="#DejaVuSans-46"/>
     <use x="835.115234" xlink:href="#DejaVuSans-49"/>
     <use x="898.738281" xlink:href="#DejaVuSans-101"/>
     <use x="960.261719" xlink:href="#DejaVuSans-45"/>
     <use x="996.345703" xlink:href="#DejaVuSans-48"/>
     <use x="1059.96875" xlink:href="#DejaVuSans-54"/>
    </g>
    <!-- evals = f-evals + g-evals -->
    <g transform="translate(60.632064 60.954904)scale(0.102 -0.102)">
     <defs>
      <path d="M 10.59375 45.40625 
L 73.1875 45.40625 
L 73.1875 37.203125 
L 10.59375 37.203125 
z
M 10.59375 25.484375 
L 73.1875 25.484375 
L 73.1875 17.1875 
L 10.59375 17.1875 
z
" id="DejaVuSans-61"/>
      <path d="M 46 62.703125 
L 46 35.5 
L 73.1875 35.5 
L 73.1875 27.203125 
L 46 27.203125 
L 46 0 
L 37.796875 0 
L 37.796875 27.203125 
L 10.59375 27.203125 
L 10.59375 35.5 
L 37.796875 35.5 
L 37.796875 62.703125 
z
" id="DejaVuSans-43"/>
     </defs>
     <use xlink:href="#DejaVuSans-101"/>
     <use x="61.523438" xlink:href="#DejaVuSans-118"/>
     <use x="120.703125" xlink:href="#DejaVuSans-97"/>
     <use x="181.982422" xlink:href="#DejaVuSans-108"/>
     <use x="209.765625" xlink:href="#DejaVuSans-115"/>
     <use x="261.865234" xlink:href="#DejaVuSans-32"/>
     <use x="293.652344" xlink:href="#DejaVuSans-61"/>
     <use x="377.441406" xlink:href="#DejaVuSans-32"/>
     <use x="409.228516" xlink:href="#DejaVuSans-102"/>
     <use x="438.933594" xlink:href="#DejaVuSans-45"/>
     <use x="475.017578" xlink:href="#DejaVuSans-101"/>
     <use x="536.541016" xlink:href="#DejaVuSans-118"/>
     <use x="595.720703" xlink:href="#DejaVuSans-97"/>
     <use x="657" xlink:href="#DejaVuSans-108"/>
     <use x="684.783203" xlink:href="#DejaVuSans-115"/>
     <use x="736.882812" xlink:href="#DejaVuSans-32"/>
     <use x="768.669922" xlink:href="#DejaVuSans-43"/>
     <use x="852.458984" xlink:href="#DejaVuSans-32"/>
     <use x="884.246094" xlink:href="#DejaVuSans-103"/>
     <use x="947.722656" xlink:href="#DejaVuSans-45"/>
     <use x="983.806641" xlink:href="#DejaVuSans-101"/>
     <use x="1045.330078" xlink:href="#DejaVuSans-118"/>
     <use x="1104.509766" xlink:href="#DejaVuSans-97"/>
     <use x="1165.789062" xlink:href="#DejaVuSans-108"/>
     <use x="1193.572266" xlink:href="#DejaVuSans-115"/>
    </g>
    <!-- 15 instances -->
    <g transform="translate(60.632064 72.376672)scale(0.102 -0.102)">
     <defs>
      <path d="M 10.796875 72.90625 
L 49.515625 72.90625 
L 49.515625 64.59375 
L 19.828125 64.59375 
L 19.828125 46.734375 
Q 21.96875 47.46875 24.109375 47.828125 
Q 26.265625 48.1875 28.421875 48.1875 
Q 40.625 48.1875 47.75 41.5 
Q 54.890625 34.8125 54.890625 23.390625 
Q 54.890625 11.625 47.5625 5.09375 
Q 40.234375 -1.421875 26.90625 -1.421875 
Q 22.3125 -1.421875 17.546875 -0.640625 
Q 12.796875 0.140625 7.71875 1.703125 
L 7.71875 11.625 
Q 12.109375 9.234375 16.796875 8.0625 
Q 21.484375 6.890625 26.703125 6.890625 
Q 35.15625 6.890625 40.078125 11.328125 
Q 45.015625 15.765625 45.015625 23.390625 
Q 45.015625 31 40.078125 35.4375 
Q 35.15625 39.890625 26.703125 39.890625 
Q 22.75 39.890625 18.8125 39.015625 
Q 14.890625 38.140625 10.796875 36.28125 
z
" id="DejaVuSans-53"/>
     </defs>
     <use xlink:href="#DejaVuSans-49"/>
     <use x="63.623047" xlink:href="#DejaVuSans-53"/>
     <use x="127.246094" xlink:href="#DejaVuSans-32"/>
     <use x="159.033203" xlink:href="#DejaVuSans-105"/>
     <use x="186.816406" xlink:href="#DejaVuSans-110"/>
     <use x="250.195312" xlink:href="#DejaVuSans-115"/>
     <use x="302.294922" xlink:href="#DejaVuSans-116"/>
     <use x="341.503906" xlink:href="#DejaVuSans-97"/>
     <use x="402.783203" xlink:href="#DejaVuSans-110"/>
     <use x="466.162109" xlink:href="#DejaVuSans-99"/>
     <use x="521.142578" xlink:href="#DejaVuSans-101"/>
     <use x="582.666016" xlink:href="#DejaVuSans-115"/>
    </g>
   </g>
   <g id="text_20">
    <!-- v2.6.1.8 -->
    <g style="fill:#808080;" transform="translate(188.751637 294.151352)scale(0.1 -0.1)">
     <use xlink:href="#DejaVuSans-118"/>
     <use x="59.179688" xlink:href="#DejaVuSans-50"/>
     <use x="122.802734" xlink:href="#DejaVuSans-46"/>
     <use x="154.589844" xlink:href="#DejaVuSans-54"/>
     <use x="218.212891" xlink:href="#DejaVuSans-46"/>
     <use x="250" xlink:href="#DejaVuSans-49"/>
     <use x="313.623047" xlink:href="#DejaVuSans-46"/>
     <use x="345.410156" xlink:href="#DejaVuSans-56"/>
    </g>
   </g>
   <g id="text_21">
    <!-- 27 Discus, m=9 -->
    <g transform="translate(129.7282 21.648)scale(0.2 -0.2)">
     <defs>
      <path d="M 10.984375 1.515625 
L 10.984375 10.5 
Q 14.703125 8.734375 18.5 7.8125 
Q 22.3125 6.890625 25.984375 6.890625 
Q 35.75 6.890625 40.890625 13.453125 
Q 46.046875 20.015625 46.78125 33.40625 
Q 43.953125 29.203125 39.59375 26.953125 
Q 35.25 24.703125 29.984375 24.703125 
Q 19.046875 24.703125 12.671875 31.3125 
Q 6.296875 37.9375 6.296875 49.421875 
Q 6.296875 60.640625 12.9375 67.421875 
Q 19.578125 74.21875 30.609375 74.21875 
Q 43.265625 74.21875 49.921875 64.515625 
Q 56.59375 54.828125 56.59375 36.375 
Q 56.59375 19.140625 48.40625 8.859375 
Q 40.234375 -1.421875 26.421875 -1.421875 
Q 22.703125 -1.421875 18.890625 -0.6875 
Q 15.09375 0.046875 10.984375 1.515625 
z
M 30.609375 32.421875 
Q 37.25 32.421875 41.125 36.953125 
Q 45.015625 41.5 45.015625 49.421875 
Q 45.015625 57.28125 41.125 61.84375 
Q 37.25 66.40625 30.609375 66.40625 
Q 23.96875 66.40625 20.09375 61.84375 
Q 16.21875 57.28125 16.21875 49.421875 
Q 16.21875 41.5 20.09375 36.953125 
Q 23.96875 32.421875 30.609375 32.421875 
z
" id="DejaVuSans-57"/>
     </defs>
     <use xlink:href="#DejaVuSans-50"/>
     <use x="63.623047" xlink:href="#DejaVuSans-55"/>
     <use x="127.246094" xlink:href="#DejaVuSans-32"/>
     <use x="159.033203" xlink:href="#DejaVuSans-68"/>
     <use x="236.035156" xlink:href="#DejaVuSans-105"/>
     <use x="263.818359" xlink:href="#DejaVuSans-115"/>
     <use x="315.917969" xlink:href="#DejaVuSans-99"/>
     <use x="370.898438" xlink:href="#DejaVuSans-117"/>
     <use x="434.277344" xlink:href="#DejaVuSans-115"/>
     <use x="486.376953" xlink:href="#DejaVuSans-44"/>
     <use x="518.164062" xlink:href="#DejaVuSans-32"/>
     <use x="549.951172" xlink:href="#DejaVuSans-109"/>
     <use x="647.363281" xlink:href="#DejaVuSans-61"/>
     <use x="731.152344" xlink:href="#DejaVuSans-57"/>
    </g>
   </g>
  </g>
 </g>
 <defs>
  <clipPath id="p669457d1eb">
   <rect height="271.296" width="303.2064" x="57.6" y="27.648"/>
  </clipPath>
 </defs>
</svg>
