<?xml version="1.0" encoding="utf-8" standalone="no"?>
<!DOCTYPE svg PUBLIC "-//W3C//DTD SVG 1.1//EN"
  "http://www.w3.org/Graphics/SVG/1.1/DTD/svg11.dtd">
<!-- Created with matplotlib (https://matplotlib.org/) -->
<svg height="345.6pt" version="1.1" viewBox="0 0 460.8 345.6" width="460.8pt" xmlns="http://www.w3.org/2000/svg" xmlns:xlink="http://www.w3.org/1999/xlink">
 <metadata>
  <rdf:RDF xmlns:cc="http://creativecommons.org/ns#" xmlns:dc="http://purl.org/dc/elements/1.1/" xmlns:rdf="http://www.w3.org/1999/02/22-rdf-syntax-ns#">
   <cc:Work>
    <dc:type rdf:resource="http://purl.org/dc/dcmitype/StillImage"/>
    <dc:date>2022-04-06T11:31:30.256408</dc:date>
    <dc:format>image/svg+xml</dc:format>
    <dc:creator>
     <cc:Agent>
      <dc:title>Matplotlib v3.3.3, https://matplotlib.org/</dc:title>
     </cc:Agent>
    </dc:creator>
   </cc:Work>
  </rdf:RDF>
 </metadata>
 <defs>
  <style type="text/css">*{stroke-linecap:butt;stroke-linejoin:round;}</style>
 </defs>
 <g id="figure_1">
  <g id="patch_1">
   <path d="M 0 345.6 
L 460.8 345.6 
L 460.8 0 
L 0 0 
z
" style="fill:#ffffff;"/>
  </g>
  <g id="axes_1">
   <g id="patch_2">
    <path d="M 57.6 298.944 
L 360.8064 298.944 
L 360.8064 27.648 
L 57.6 27.648 
z
" style="fill:#ffffff;"/>
   </g>
   <g id="matplotlib.axis_1">
    <g id="xtick_1">
     <g id="line2d_1">
      <path clip-path="url(#p194c01b18e)" d="M 57.6 298.944 
L 57.6 27.648 
" style="fill:none;stroke:#b0b0b0;stroke-linecap:square;stroke-width:0.8;"/>
     </g>
     <g id="line2d_2">
      <defs>
       <path d="M 0 0 
L 0 3.5 
" id="maf31f25bdf" style="stroke:#000000;stroke-width:0.8;"/>
      </defs>
      <g>
       <use style="stroke:#000000;stroke-width:0.8;" x="57.6" xlink:href="#maf31f25bdf" y="298.944"/>
      </g>
     </g>
     <g id="text_1">
      <!-- 0 -->
      <g transform="translate(52.191875 318.861344)scale(0.17 -0.17)">
       <defs>
        <path d="M 31.78125 66.40625 
Q 24.171875 66.40625 20.328125 58.90625 
Q 16.5 51.421875 16.5 36.375 
Q 16.5 21.390625 20.328125 13.890625 
Q 24.171875 6.390625 31.78125 6.390625 
Q 39.453125 6.390625 43.28125 13.890625 
Q 47.125 21.390625 47.125 36.375 
Q 47.125 51.421875 43.28125 58.90625 
Q 39.453125 66.40625 31.78125 66.40625 
z
M 31.78125 74.21875 
Q 44.046875 74.21875 50.515625 64.515625 
Q 56.984375 54.828125 56.984375 36.375 
Q 56.984375 17.96875 50.515625 8.265625 
Q 44.046875 -1.421875 31.78125 -1.421875 
Q 19.53125 -1.421875 13.0625 8.265625 
Q 6.59375 17.96875 6.59375 36.375 
Q 6.59375 54.828125 13.0625 64.515625 
Q 19.53125 74.21875 31.78125 74.21875 
z
" id="DejaVuSans-48"/>
       </defs>
       <use xlink:href="#DejaVuSans-48"/>
      </g>
     </g>
    </g>
    <g id="xtick_2">
     <g id="line2d_3">
      <path clip-path="url(#p194c01b18e)" d="M 144.2304 298.944 
L 144.2304 27.648 
" style="fill:none;stroke:#b0b0b0;stroke-linecap:square;stroke-width:0.8;"/>
     </g>
     <g id="line2d_4">
      <g>
       <use style="stroke:#000000;stroke-width:0.8;" x="144.2304" xlink:href="#maf31f25bdf" y="298.944"/>
      </g>
     </g>
     <g id="text_2">
      <!-- 2 -->
      <g transform="translate(138.822275 318.861344)scale(0.17 -0.17)">
       <defs>
        <path d="M 19.1875 8.296875 
L 53.609375 8.296875 
L 53.609375 0 
L 7.328125 0 
L 7.328125 8.296875 
Q 12.9375 14.109375 22.625 23.890625 
Q 32.328125 33.6875 34.8125 36.53125 
Q 39.546875 41.84375 41.421875 45.53125 
Q 43.3125 49.21875 43.3125 52.78125 
Q 43.3125 58.59375 39.234375 62.25 
Q 35.15625 65.921875 28.609375 65.921875 
Q 23.96875 65.921875 18.8125 64.3125 
Q 13.671875 62.703125 7.8125 59.421875 
L 7.8125 69.390625 
Q 13.765625 71.78125 18.9375 73 
Q 24.125 74.21875 28.421875 74.21875 
Q 39.75 74.21875 46.484375 68.546875 
Q 53.21875 62.890625 53.21875 53.421875 
Q 53.21875 48.921875 51.53125 44.890625 
Q 49.859375 40.875 45.40625 35.40625 
Q 44.1875 33.984375 37.640625 27.21875 
Q 31.109375 20.453125 19.1875 8.296875 
z
" id="DejaVuSans-50"/>
       </defs>
       <use xlink:href="#DejaVuSans-50"/>
      </g>
     </g>
    </g>
    <g id="xtick_3">
     <g id="line2d_5">
      <path clip-path="url(#p194c01b18e)" d="M 230.8608 298.944 
L 230.8608 27.648 
" style="fill:none;stroke:#b0b0b0;stroke-linecap:square;stroke-width:0.8;"/>
     </g>
     <g id="line2d_6">
      <g>
       <use style="stroke:#000000;stroke-width:0.8;" x="230.8608" xlink:href="#maf31f25bdf" y="298.944"/>
      </g>
     </g>
     <g id="text_3">
      <!-- 4 -->
      <g transform="translate(225.452675 318.861344)scale(0.17 -0.17)">
       <defs>
        <path d="M 37.796875 64.3125 
L 12.890625 25.390625 
L 37.796875 25.390625 
z
M 35.203125 72.90625 
L 47.609375 72.90625 
L 47.609375 25.390625 
L 58.015625 25.390625 
L 58.015625 17.1875 
L 47.609375 17.1875 
L 47.609375 0 
L 37.796875 0 
L 37.796875 17.1875 
L 4.890625 17.1875 
L 4.890625 26.703125 
z
" id="DejaVuSans-52"/>
       </defs>
       <use xlink:href="#DejaVuSans-52"/>
      </g>
     </g>
    </g>
    <g id="xtick_4">
     <g id="line2d_7">
      <path clip-path="url(#p194c01b18e)" d="M 317.4912 298.944 
L 317.4912 27.648 
" style="fill:none;stroke:#b0b0b0;stroke-linecap:square;stroke-width:0.8;"/>
     </g>
     <g id="line2d_8">
      <g>
       <use style="stroke:#000000;stroke-width:0.8;" x="317.4912" xlink:href="#maf31f25bdf" y="298.944"/>
      </g>
     </g>
     <g id="text_4">
      <!-- 6 -->
      <g transform="translate(312.083075 318.861344)scale(0.17 -0.17)">
       <defs>
        <path d="M 33.015625 40.375 
Q 26.375 40.375 22.484375 35.828125 
Q 18.609375 31.296875 18.609375 23.390625 
Q 18.609375 15.53125 22.484375 10.953125 
Q 26.375 6.390625 33.015625 6.390625 
Q 39.65625 6.390625 43.53125 10.953125 
Q 47.40625 15.53125 47.40625 23.390625 
Q 47.40625 31.296875 43.53125 35.828125 
Q 39.65625 40.375 33.015625 40.375 
z
M 52.59375 71.296875 
L 52.59375 62.3125 
Q 48.875 64.0625 45.09375 64.984375 
Q 41.3125 65.921875 37.59375 65.921875 
Q 27.828125 65.921875 22.671875 59.328125 
Q 17.53125 52.734375 16.796875 39.40625 
Q 19.671875 43.65625 24.015625 45.921875 
Q 28.375 48.1875 33.59375 48.1875 
Q 44.578125 48.1875 50.953125 41.515625 
Q 57.328125 34.859375 57.328125 23.390625 
Q 57.328125 12.15625 50.6875 5.359375 
Q 44.046875 -1.421875 33.015625 -1.421875 
Q 20.359375 -1.421875 13.671875 8.265625 
Q 6.984375 17.96875 6.984375 36.375 
Q 6.984375 53.65625 15.1875 63.9375 
Q 23.390625 74.21875 37.203125 74.21875 
Q 40.921875 74.21875 44.703125 73.484375 
Q 48.484375 72.75 52.59375 71.296875 
z
" id="DejaVuSans-54"/>
       </defs>
       <use xlink:href="#DejaVuSans-54"/>
      </g>
     </g>
    </g>
    <g id="xtick_5">
     <g id="line2d_9">
      <path clip-path="url(#p194c01b18e)" d="M 100.9152 298.944 
L 100.9152 27.648 
" style="fill:none;stroke:#b0b0b0;stroke-linecap:square;stroke-width:0.8;"/>
     </g>
     <g id="line2d_10">
      <defs>
       <path d="M 0 0 
L 0 2 
" id="mbe258bf8e8" style="stroke:#000000;stroke-width:0.6;"/>
      </defs>
      <g>
       <use style="stroke:#000000;stroke-width:0.6;" x="100.9152" xlink:href="#mbe258bf8e8" y="298.944"/>
      </g>
     </g>
    </g>
    <g id="xtick_6">
     <g id="line2d_11">
      <path clip-path="url(#p194c01b18e)" d="M 187.5456 298.944 
L 187.5456 27.648 
" style="fill:none;stroke:#b0b0b0;stroke-linecap:square;stroke-width:0.8;"/>
     </g>
     <g id="line2d_12">
      <g>
       <use style="stroke:#000000;stroke-width:0.6;" x="187.5456" xlink:href="#mbe258bf8e8" y="298.944"/>
      </g>
     </g>
    </g>
    <g id="xtick_7">
     <g id="line2d_13">
      <path clip-path="url(#p194c01b18e)" d="M 274.176 298.944 
L 274.176 27.648 
" style="fill:none;stroke:#b0b0b0;stroke-linecap:square;stroke-width:0.8;"/>
     </g>
     <g id="line2d_14">
      <g>
       <use style="stroke:#000000;stroke-width:0.6;" x="274.176" xlink:href="#mbe258bf8e8" y="298.944"/>
      </g>
     </g>
    </g>
    <g id="xtick_8">
     <g id="line2d_15">
      <path clip-path="url(#p194c01b18e)" d="M 360.8064 298.944 
L 360.8064 27.648 
" style="fill:none;stroke:#b0b0b0;stroke-linecap:square;stroke-width:0.8;"/>
     </g>
     <g id="line2d_16">
      <g>
       <use style="stroke:#000000;stroke-width:0.6;" x="360.8064" xlink:href="#mbe258bf8e8" y="298.944"/>
      </g>
     </g>
    </g>
    <g id="text_5">
     <!-- log10(evals / dimension) -->
     <g transform="translate(104.238825 339.314156)scale(0.17 -0.17)">
      <defs>
       <path d="M 9.421875 75.984375 
L 18.40625 75.984375 
L 18.40625 0 
L 9.421875 0 
z
" id="DejaVuSans-108"/>
       <path d="M 30.609375 48.390625 
Q 23.390625 48.390625 19.1875 42.75 
Q 14.984375 37.109375 14.984375 27.296875 
Q 14.984375 17.484375 19.15625 11.84375 
Q 23.34375 6.203125 30.609375 6.203125 
Q 37.796875 6.203125 41.984375 11.859375 
Q 46.1875 17.53125 46.1875 27.296875 
Q 46.1875 37.015625 41.984375 42.703125 
Q 37.796875 48.390625 30.609375 48.390625 
z
M 30.609375 56 
Q 42.328125 56 49.015625 48.375 
Q 55.71875 40.765625 55.71875 27.296875 
Q 55.71875 13.875 49.015625 6.21875 
Q 42.328125 -1.421875 30.609375 -1.421875 
Q 18.84375 -1.421875 12.171875 6.21875 
Q 5.515625 13.875 5.515625 27.296875 
Q 5.515625 40.765625 12.171875 48.375 
Q 18.84375 56 30.609375 56 
z
" id="DejaVuSans-111"/>
       <path d="M 45.40625 27.984375 
Q 45.40625 37.75 41.375 43.109375 
Q 37.359375 48.484375 30.078125 48.484375 
Q 22.859375 48.484375 18.828125 43.109375 
Q 14.796875 37.75 14.796875 27.984375 
Q 14.796875 18.265625 18.828125 12.890625 
Q 22.859375 7.515625 30.078125 7.515625 
Q 37.359375 7.515625 41.375 12.890625 
Q 45.40625 18.265625 45.40625 27.984375 
z
M 54.390625 6.78125 
Q 54.390625 -7.171875 48.1875 -13.984375 
Q 42 -20.796875 29.203125 -20.796875 
Q 24.46875 -20.796875 20.265625 -20.09375 
Q 16.0625 -19.390625 12.109375 -17.921875 
L 12.109375 -9.1875 
Q 16.0625 -11.328125 19.921875 -12.34375 
Q 23.78125 -13.375 27.78125 -13.375 
Q 36.625 -13.375 41.015625 -8.765625 
Q 45.40625 -4.15625 45.40625 5.171875 
L 45.40625 9.625 
Q 42.625 4.78125 38.28125 2.390625 
Q 33.9375 0 27.875 0 
Q 17.828125 0 11.671875 7.65625 
Q 5.515625 15.328125 5.515625 27.984375 
Q 5.515625 40.671875 11.671875 48.328125 
Q 17.828125 56 27.875 56 
Q 33.9375 56 38.28125 53.609375 
Q 42.625 51.21875 45.40625 46.390625 
L 45.40625 54.6875 
L 54.390625 54.6875 
z
" id="DejaVuSans-103"/>
       <path d="M 12.40625 8.296875 
L 28.515625 8.296875 
L 28.515625 63.921875 
L 10.984375 60.40625 
L 10.984375 69.390625 
L 28.421875 72.90625 
L 38.28125 72.90625 
L 38.28125 8.296875 
L 54.390625 8.296875 
L 54.390625 0 
L 12.40625 0 
z
" id="DejaVuSans-49"/>
       <path d="M 31 75.875 
Q 24.46875 64.65625 21.28125 53.65625 
Q 18.109375 42.671875 18.109375 31.390625 
Q 18.109375 20.125 21.3125 9.0625 
Q 24.515625 -2 31 -13.1875 
L 23.1875 -13.1875 
Q 15.875 -1.703125 12.234375 9.375 
Q 8.59375 20.453125 8.59375 31.390625 
Q 8.59375 42.28125 12.203125 53.3125 
Q 15.828125 64.359375 23.1875 75.875 
z
" id="DejaVuSans-40"/>
       <path d="M 56.203125 29.59375 
L 56.203125 25.203125 
L 14.890625 25.203125 
Q 15.484375 15.921875 20.484375 11.0625 
Q 25.484375 6.203125 34.421875 6.203125 
Q 39.59375 6.203125 44.453125 7.46875 
Q 49.3125 8.734375 54.109375 11.28125 
L 54.109375 2.78125 
Q 49.265625 0.734375 44.1875 -0.34375 
Q 39.109375 -1.421875 33.890625 -1.421875 
Q 20.796875 -1.421875 13.15625 6.1875 
Q 5.515625 13.8125 5.515625 26.8125 
Q 5.515625 40.234375 12.765625 48.109375 
Q 20.015625 56 32.328125 56 
Q 43.359375 56 49.78125 48.890625 
Q 56.203125 41.796875 56.203125 29.59375 
z
M 47.21875 32.234375 
Q 47.125 39.59375 43.09375 43.984375 
Q 39.0625 48.390625 32.421875 48.390625 
Q 24.90625 48.390625 20.390625 44.140625 
Q 15.875 39.890625 15.1875 32.171875 
z
" id="DejaVuSans-101"/>
       <path d="M 2.984375 54.6875 
L 12.5 54.6875 
L 29.59375 8.796875 
L 46.6875 54.6875 
L 56.203125 54.6875 
L 35.6875 0 
L 23.484375 0 
z
" id="DejaVuSans-118"/>
       <path d="M 34.28125 27.484375 
Q 23.390625 27.484375 19.1875 25 
Q 14.984375 22.515625 14.984375 16.5 
Q 14.984375 11.71875 18.140625 8.90625 
Q 21.296875 6.109375 26.703125 6.109375 
Q 34.1875 6.109375 38.703125 11.40625 
Q 43.21875 16.703125 43.21875 25.484375 
L 43.21875 27.484375 
z
M 52.203125 31.203125 
L 52.203125 0 
L 43.21875 0 
L 43.21875 8.296875 
Q 40.140625 3.328125 35.546875 0.953125 
Q 30.953125 -1.421875 24.3125 -1.421875 
Q 15.921875 -1.421875 10.953125 3.296875 
Q 6 8.015625 6 15.921875 
Q 6 25.140625 12.171875 29.828125 
Q 18.359375 34.515625 30.609375 34.515625 
L 43.21875 34.515625 
L 43.21875 35.40625 
Q 43.21875 41.609375 39.140625 45 
Q 35.0625 48.390625 27.6875 48.390625 
Q 23 48.390625 18.546875 47.265625 
Q 14.109375 46.140625 10.015625 43.890625 
L 10.015625 52.203125 
Q 14.9375 54.109375 19.578125 55.046875 
Q 24.21875 56 28.609375 56 
Q 40.484375 56 46.34375 49.84375 
Q 52.203125 43.703125 52.203125 31.203125 
z
" id="DejaVuSans-97"/>
       <path d="M 44.28125 53.078125 
L 44.28125 44.578125 
Q 40.484375 46.53125 36.375 47.5 
Q 32.28125 48.484375 27.875 48.484375 
Q 21.1875 48.484375 17.84375 46.4375 
Q 14.5 44.390625 14.5 40.28125 
Q 14.5 37.15625 16.890625 35.375 
Q 19.28125 33.59375 26.515625 31.984375 
L 29.59375 31.296875 
Q 39.15625 29.25 43.1875 25.515625 
Q 47.21875 21.78125 47.21875 15.09375 
Q 47.21875 7.46875 41.1875 3.015625 
Q 35.15625 -1.421875 24.609375 -1.421875 
Q 20.21875 -1.421875 15.453125 -0.5625 
Q 10.6875 0.296875 5.421875 2 
L 5.421875 11.28125 
Q 10.40625 8.6875 15.234375 7.390625 
Q 20.0625 6.109375 24.8125 6.109375 
Q 31.15625 6.109375 34.5625 8.28125 
Q 37.984375 10.453125 37.984375 14.40625 
Q 37.984375 18.0625 35.515625 20.015625 
Q 33.0625 21.96875 24.703125 23.78125 
L 21.578125 24.515625 
Q 13.234375 26.265625 9.515625 29.90625 
Q 5.8125 33.546875 5.8125 39.890625 
Q 5.8125 47.609375 11.28125 51.796875 
Q 16.75 56 26.8125 56 
Q 31.78125 56 36.171875 55.265625 
Q 40.578125 54.546875 44.28125 53.078125 
z
" id="DejaVuSans-115"/>
       <path id="DejaVuSans-32"/>
       <path d="M 25.390625 72.90625 
L 33.6875 72.90625 
L 8.296875 -9.28125 
L 0 -9.28125 
z
" id="DejaVuSans-47"/>
       <path d="M 45.40625 46.390625 
L 45.40625 75.984375 
L 54.390625 75.984375 
L 54.390625 0 
L 45.40625 0 
L 45.40625 8.203125 
Q 42.578125 3.328125 38.25 0.953125 
Q 33.9375 -1.421875 27.875 -1.421875 
Q 17.96875 -1.421875 11.734375 6.484375 
Q 5.515625 14.40625 5.515625 27.296875 
Q 5.515625 40.1875 11.734375 48.09375 
Q 17.96875 56 27.875 56 
Q 33.9375 56 38.25 53.625 
Q 42.578125 51.265625 45.40625 46.390625 
z
M 14.796875 27.296875 
Q 14.796875 17.390625 18.875 11.75 
Q 22.953125 6.109375 30.078125 6.109375 
Q 37.203125 6.109375 41.296875 11.75 
Q 45.40625 17.390625 45.40625 27.296875 
Q 45.40625 37.203125 41.296875 42.84375 
Q 37.203125 48.484375 30.078125 48.484375 
Q 22.953125 48.484375 18.875 42.84375 
Q 14.796875 37.203125 14.796875 27.296875 
z
" id="DejaVuSans-100"/>
       <path d="M 9.421875 54.6875 
L 18.40625 54.6875 
L 18.40625 0 
L 9.421875 0 
z
M 9.421875 75.984375 
L 18.40625 75.984375 
L 18.40625 64.59375 
L 9.421875 64.59375 
z
" id="DejaVuSans-105"/>
       <path d="M 52 44.1875 
Q 55.375 50.25 60.0625 53.125 
Q 64.75 56 71.09375 56 
Q 79.640625 56 84.28125 50.015625 
Q 88.921875 44.046875 88.921875 33.015625 
L 88.921875 0 
L 79.890625 0 
L 79.890625 32.71875 
Q 79.890625 40.578125 77.09375 44.375 
Q 74.3125 48.1875 68.609375 48.1875 
Q 61.625 48.1875 57.5625 43.546875 
Q 53.515625 38.921875 53.515625 30.90625 
L 53.515625 0 
L 44.484375 0 
L 44.484375 32.71875 
Q 44.484375 40.625 41.703125 44.40625 
Q 38.921875 48.1875 33.109375 48.1875 
Q 26.21875 48.1875 22.15625 43.53125 
Q 18.109375 38.875 18.109375 30.90625 
L 18.109375 0 
L 9.078125 0 
L 9.078125 54.6875 
L 18.109375 54.6875 
L 18.109375 46.1875 
Q 21.1875 51.21875 25.484375 53.609375 
Q 29.78125 56 35.6875 56 
Q 41.65625 56 45.828125 52.96875 
Q 50 49.953125 52 44.1875 
z
" id="DejaVuSans-109"/>
       <path d="M 54.890625 33.015625 
L 54.890625 0 
L 45.90625 0 
L 45.90625 32.71875 
Q 45.90625 40.484375 42.875 44.328125 
Q 39.84375 48.1875 33.796875 48.1875 
Q 26.515625 48.1875 22.3125 43.546875 
Q 18.109375 38.921875 18.109375 30.90625 
L 18.109375 0 
L 9.078125 0 
L 9.078125 54.6875 
L 18.109375 54.6875 
L 18.109375 46.1875 
Q 21.34375 51.125 25.703125 53.5625 
Q 30.078125 56 35.796875 56 
Q 45.21875 56 50.046875 50.171875 
Q 54.890625 44.34375 54.890625 33.015625 
z
" id="DejaVuSans-110"/>
       <path d="M 8.015625 75.875 
L 15.828125 75.875 
Q 23.140625 64.359375 26.78125 53.3125 
Q 30.421875 42.28125 30.421875 31.390625 
Q 30.421875 20.453125 26.78125 9.375 
Q 23.140625 -1.703125 15.828125 -13.1875 
L 8.015625 -13.1875 
Q 14.5 -2 17.703125 9.0625 
Q 20.90625 20.125 20.90625 31.390625 
Q 20.90625 42.671875 17.703125 53.65625 
Q 14.5 64.65625 8.015625 75.875 
z
" id="DejaVuSans-41"/>
      </defs>
      <use xlink:href="#DejaVuSans-108"/>
      <use x="27.783203" xlink:href="#DejaVuSans-111"/>
      <use x="88.964844" xlink:href="#DejaVuSans-103"/>
      <use x="152.441406" xlink:href="#DejaVuSans-49"/>
      <use x="216.064453" xlink:href="#DejaVuSans-48"/>
      <use x="279.6875" xlink:href="#DejaVuSans-40"/>
      <use x="318.701172" xlink:href="#DejaVuSans-101"/>
      <use x="380.224609" xlink:href="#DejaVuSans-118"/>
      <use x="439.404297" xlink:href="#DejaVuSans-97"/>
      <use x="500.683594" xlink:href="#DejaVuSans-108"/>
      <use x="528.466797" xlink:href="#DejaVuSans-115"/>
      <use x="580.566406" xlink:href="#DejaVuSans-32"/>
      <use x="612.353516" xlink:href="#DejaVuSans-47"/>
      <use x="646.044922" xlink:href="#DejaVuSans-32"/>
      <use x="677.832031" xlink:href="#DejaVuSans-100"/>
      <use x="741.308594" xlink:href="#DejaVuSans-105"/>
      <use x="769.091797" xlink:href="#DejaVuSans-109"/>
      <use x="866.503906" xlink:href="#DejaVuSans-101"/>
      <use x="928.027344" xlink:href="#DejaVuSans-110"/>
      <use x="991.40625" xlink:href="#DejaVuSans-115"/>
      <use x="1043.505859" xlink:href="#DejaVuSans-105"/>
      <use x="1071.289062" xlink:href="#DejaVuSans-111"/>
      <use x="1132.470703" xlink:href="#DejaVuSans-110"/>
      <use x="1195.849609" xlink:href="#DejaVuSans-41"/>
     </g>
    </g>
   </g>
   <g id="matplotlib.axis_2">
    <g id="ytick_1">
     <g id="line2d_17">
      <path clip-path="url(#p194c01b18e)" d="M 57.6 298.944 
L 360.8064 298.944 
" style="fill:none;stroke:#b0b0b0;stroke-linecap:square;stroke-width:0.8;"/>
     </g>
     <g id="line2d_18">
      <defs>
       <path d="M 0 0 
L -3.5 0 
" id="m3944bb589f" style="stroke:#000000;stroke-width:0.8;"/>
      </defs>
      <g>
       <use style="stroke:#000000;stroke-width:0.8;" x="57.6" xlink:href="#m3944bb589f" y="298.944"/>
      </g>
     </g>
     <g id="text_6">
      <!-- 0.0 -->
      <g transform="translate(25.155 305.02275)scale(0.16 -0.16)">
       <defs>
        <path d="M 10.6875 12.40625 
L 21 12.40625 
L 21 0 
L 10.6875 0 
z
" id="DejaVuSans-46"/>
       </defs>
       <use xlink:href="#DejaVuSans-48"/>
       <use x="63.623047" xlink:href="#DejaVuSans-46"/>
       <use x="95.410156" xlink:href="#DejaVuSans-48"/>
      </g>
     </g>
    </g>
    <g id="ytick_2">
     <g id="line2d_19">
      <path clip-path="url(#p194c01b18e)" d="M 57.6 244.6848 
L 360.8064 244.6848 
" style="fill:none;stroke:#b0b0b0;stroke-linecap:square;stroke-width:0.8;"/>
     </g>
     <g id="line2d_20">
      <g>
       <use style="stroke:#000000;stroke-width:0.8;" x="57.6" xlink:href="#m3944bb589f" y="244.6848"/>
      </g>
     </g>
     <g id="text_7">
      <!-- 0.2 -->
      <g transform="translate(25.155 250.76355)scale(0.16 -0.16)">
       <use xlink:href="#DejaVuSans-48"/>
       <use x="63.623047" xlink:href="#DejaVuSans-46"/>
       <use x="95.410156" xlink:href="#DejaVuSans-50"/>
      </g>
     </g>
    </g>
    <g id="ytick_3">
     <g id="line2d_21">
      <path clip-path="url(#p194c01b18e)" d="M 57.6 190.4256 
L 360.8064 190.4256 
" style="fill:none;stroke:#b0b0b0;stroke-linecap:square;stroke-width:0.8;"/>
     </g>
     <g id="line2d_22">
      <g>
       <use style="stroke:#000000;stroke-width:0.8;" x="57.6" xlink:href="#m3944bb589f" y="190.4256"/>
      </g>
     </g>
     <g id="text_8">
      <!-- 0.4 -->
      <g transform="translate(25.155 196.50435)scale(0.16 -0.16)">
       <use xlink:href="#DejaVuSans-48"/>
       <use x="63.623047" xlink:href="#DejaVuSans-46"/>
       <use x="95.410156" xlink:href="#DejaVuSans-52"/>
      </g>
     </g>
    </g>
    <g id="ytick_4">
     <g id="line2d_23">
      <path clip-path="url(#p194c01b18e)" d="M 57.6 136.1664 
L 360.8064 136.1664 
" style="fill:none;stroke:#b0b0b0;stroke-linecap:square;stroke-width:0.8;"/>
     </g>
     <g id="line2d_24">
      <g>
       <use style="stroke:#000000;stroke-width:0.8;" x="57.6" xlink:href="#m3944bb589f" y="136.1664"/>
      </g>
     </g>
     <g id="text_9">
      <!-- 0.6 -->
      <g transform="translate(25.155 142.24515)scale(0.16 -0.16)">
       <use xlink:href="#DejaVuSans-48"/>
       <use x="63.623047" xlink:href="#DejaVuSans-46"/>
       <use x="95.410156" xlink:href="#DejaVuSans-54"/>
      </g>
     </g>
    </g>
    <g id="ytick_5">
     <g id="line2d_25">
      <path clip-path="url(#p194c01b18e)" d="M 57.6 81.9072 
L 360.8064 81.9072 
" style="fill:none;stroke:#b0b0b0;stroke-linecap:square;stroke-width:0.8;"/>
     </g>
     <g id="line2d_26">
      <g>
       <use style="stroke:#000000;stroke-width:0.8;" x="57.6" xlink:href="#m3944bb589f" y="81.9072"/>
      </g>
     </g>
     <g id="text_10">
      <!-- 0.8 -->
      <g transform="translate(25.155 87.98595)scale(0.16 -0.16)">
       <defs>
        <path d="M 31.78125 34.625 
Q 24.75 34.625 20.71875 30.859375 
Q 16.703125 27.09375 16.703125 20.515625 
Q 16.703125 13.921875 20.71875 10.15625 
Q 24.75 6.390625 31.78125 6.390625 
Q 38.8125 6.390625 42.859375 10.171875 
Q 46.921875 13.96875 46.921875 20.515625 
Q 46.921875 27.09375 42.890625 30.859375 
Q 38.875 34.625 31.78125 34.625 
z
M 21.921875 38.8125 
Q 15.578125 40.375 12.03125 44.71875 
Q 8.5 49.078125 8.5 55.328125 
Q 8.5 64.0625 14.71875 69.140625 
Q 20.953125 74.21875 31.78125 74.21875 
Q 42.671875 74.21875 48.875 69.140625 
Q 55.078125 64.0625 55.078125 55.328125 
Q 55.078125 49.078125 51.53125 44.71875 
Q 48 40.375 41.703125 38.8125 
Q 48.828125 37.15625 52.796875 32.3125 
Q 56.78125 27.484375 56.78125 20.515625 
Q 56.78125 9.90625 50.3125 4.234375 
Q 43.84375 -1.421875 31.78125 -1.421875 
Q 19.734375 -1.421875 13.25 4.234375 
Q 6.78125 9.90625 6.78125 20.515625 
Q 6.78125 27.484375 10.78125 32.3125 
Q 14.796875 37.15625 21.921875 38.8125 
z
M 18.3125 54.390625 
Q 18.3125 48.734375 21.84375 45.5625 
Q 25.390625 42.390625 31.78125 42.390625 
Q 38.140625 42.390625 41.71875 45.5625 
Q 45.3125 48.734375 45.3125 54.390625 
Q 45.3125 60.0625 41.71875 63.234375 
Q 38.140625 66.40625 31.78125 66.40625 
Q 25.390625 66.40625 21.84375 63.234375 
Q 18.3125 60.0625 18.3125 54.390625 
z
" id="DejaVuSans-56"/>
       </defs>
       <use xlink:href="#DejaVuSans-48"/>
       <use x="63.623047" xlink:href="#DejaVuSans-46"/>
       <use x="95.410156" xlink:href="#DejaVuSans-56"/>
      </g>
     </g>
    </g>
    <g id="ytick_6">
     <g id="line2d_27">
      <path clip-path="url(#p194c01b18e)" d="M 57.6 27.648 
L 360.8064 27.648 
" style="fill:none;stroke:#b0b0b0;stroke-linecap:square;stroke-width:0.8;"/>
     </g>
     <g id="line2d_28">
      <g>
       <use style="stroke:#000000;stroke-width:0.8;" x="57.6" xlink:href="#m3944bb589f" y="27.648"/>
      </g>
     </g>
     <g id="text_11">
      <!-- 1.0 -->
      <g transform="translate(25.155 33.72675)scale(0.16 -0.16)">
       <use xlink:href="#DejaVuSans-49"/>
       <use x="63.623047" xlink:href="#DejaVuSans-46"/>
       <use x="95.410156" xlink:href="#DejaVuSans-48"/>
      </g>
     </g>
    </g>
    <g id="text_12">
     <!-- Fraction of function,target pairs -->
     <g transform="translate(17.619531 297.681)rotate(-90)scale(0.17 -0.17)">
      <defs>
       <path d="M 9.8125 72.90625 
L 51.703125 72.90625 
L 51.703125 64.59375 
L 19.671875 64.59375 
L 19.671875 43.109375 
L 48.578125 43.109375 
L 48.578125 34.8125 
L 19.671875 34.8125 
L 19.671875 0 
L 9.8125 0 
z
" id="DejaVuSans-70"/>
       <path d="M 41.109375 46.296875 
Q 39.59375 47.171875 37.8125 47.578125 
Q 36.03125 48 33.890625 48 
Q 26.265625 48 22.1875 43.046875 
Q 18.109375 38.09375 18.109375 28.8125 
L 18.109375 0 
L 9.078125 0 
L 9.078125 54.6875 
L 18.109375 54.6875 
L 18.109375 46.1875 
Q 20.953125 51.171875 25.484375 53.578125 
Q 30.03125 56 36.53125 56 
Q 37.453125 56 38.578125 55.875 
Q 39.703125 55.765625 41.0625 55.515625 
z
" id="DejaVuSans-114"/>
       <path d="M 48.78125 52.59375 
L 48.78125 44.1875 
Q 44.96875 46.296875 41.140625 47.34375 
Q 37.3125 48.390625 33.40625 48.390625 
Q 24.65625 48.390625 19.8125 42.84375 
Q 14.984375 37.3125 14.984375 27.296875 
Q 14.984375 17.28125 19.8125 11.734375 
Q 24.65625 6.203125 33.40625 6.203125 
Q 37.3125 6.203125 41.140625 7.25 
Q 44.96875 8.296875 48.78125 10.40625 
L 48.78125 2.09375 
Q 45.015625 0.34375 40.984375 -0.53125 
Q 36.96875 -1.421875 32.421875 -1.421875 
Q 20.0625 -1.421875 12.78125 6.34375 
Q 5.515625 14.109375 5.515625 27.296875 
Q 5.515625 40.671875 12.859375 48.328125 
Q 20.21875 56 33.015625 56 
Q 37.15625 56 41.109375 55.140625 
Q 45.0625 54.296875 48.78125 52.59375 
z
" id="DejaVuSans-99"/>
       <path d="M 18.3125 70.21875 
L 18.3125 54.6875 
L 36.8125 54.6875 
L 36.8125 47.703125 
L 18.3125 47.703125 
L 18.3125 18.015625 
Q 18.3125 11.328125 20.140625 9.421875 
Q 21.96875 7.515625 27.59375 7.515625 
L 36.8125 7.515625 
L 36.8125 0 
L 27.59375 0 
Q 17.1875 0 13.234375 3.875 
Q 9.28125 7.765625 9.28125 18.015625 
L 9.28125 47.703125 
L 2.6875 47.703125 
L 2.6875 54.6875 
L 9.28125 54.6875 
L 9.28125 70.21875 
z
" id="DejaVuSans-116"/>
       <path d="M 37.109375 75.984375 
L 37.109375 68.5 
L 28.515625 68.5 
Q 23.6875 68.5 21.796875 66.546875 
Q 19.921875 64.59375 19.921875 59.515625 
L 19.921875 54.6875 
L 34.71875 54.6875 
L 34.71875 47.703125 
L 19.921875 47.703125 
L 19.921875 0 
L 10.890625 0 
L 10.890625 47.703125 
L 2.296875 47.703125 
L 2.296875 54.6875 
L 10.890625 54.6875 
L 10.890625 58.5 
Q 10.890625 67.625 15.140625 71.796875 
Q 19.390625 75.984375 28.609375 75.984375 
z
" id="DejaVuSans-102"/>
       <path d="M 8.5 21.578125 
L 8.5 54.6875 
L 17.484375 54.6875 
L 17.484375 21.921875 
Q 17.484375 14.15625 20.5 10.265625 
Q 23.53125 6.390625 29.59375 6.390625 
Q 36.859375 6.390625 41.078125 11.03125 
Q 45.3125 15.671875 45.3125 23.6875 
L 45.3125 54.6875 
L 54.296875 54.6875 
L 54.296875 0 
L 45.3125 0 
L 45.3125 8.40625 
Q 42.046875 3.421875 37.71875 1 
Q 33.40625 -1.421875 27.6875 -1.421875 
Q 18.265625 -1.421875 13.375 4.4375 
Q 8.5 10.296875 8.5 21.578125 
z
M 31.109375 56 
z
" id="DejaVuSans-117"/>
       <path d="M 11.71875 12.40625 
L 22.015625 12.40625 
L 22.015625 4 
L 14.015625 -11.625 
L 7.71875 -11.625 
L 11.71875 4 
z
" id="DejaVuSans-44"/>
       <path d="M 18.109375 8.203125 
L 18.109375 -20.796875 
L 9.078125 -20.796875 
L 9.078125 54.6875 
L 18.109375 54.6875 
L 18.109375 46.390625 
Q 20.953125 51.265625 25.265625 53.625 
Q 29.59375 56 35.59375 56 
Q 45.5625 56 51.78125 48.09375 
Q 58.015625 40.1875 58.015625 27.296875 
Q 58.015625 14.40625 51.78125 6.484375 
Q 45.5625 -1.421875 35.59375 -1.421875 
Q 29.59375 -1.421875 25.265625 0.953125 
Q 20.953125 3.328125 18.109375 8.203125 
z
M 48.6875 27.296875 
Q 48.6875 37.203125 44.609375 42.84375 
Q 40.53125 48.484375 33.40625 48.484375 
Q 26.265625 48.484375 22.1875 42.84375 
Q 18.109375 37.203125 18.109375 27.296875 
Q 18.109375 17.390625 22.1875 11.75 
Q 26.265625 6.109375 33.40625 6.109375 
Q 40.53125 6.109375 44.609375 11.75 
Q 48.6875 17.390625 48.6875 27.296875 
z
" id="DejaVuSans-112"/>
      </defs>
      <use xlink:href="#DejaVuSans-70"/>
      <use x="50.269531" xlink:href="#DejaVuSans-114"/>
      <use x="91.382812" xlink:href="#DejaVuSans-97"/>
      <use x="152.662109" xlink:href="#DejaVuSans-99"/>
      <use x="207.642578" xlink:href="#DejaVuSans-116"/>
      <use x="246.851562" xlink:href="#DejaVuSans-105"/>
      <use x="274.634766" xlink:href="#DejaVuSans-111"/>
      <use x="335.816406" xlink:href="#DejaVuSans-110"/>
      <use x="399.195312" xlink:href="#DejaVuSans-32"/>
      <use x="430.982422" xlink:href="#DejaVuSans-111"/>
      <use x="492.164062" xlink:href="#DejaVuSans-102"/>
      <use x="527.369141" xlink:href="#DejaVuSans-32"/>
      <use x="559.15625" xlink:href="#DejaVuSans-102"/>
      <use x="594.361328" xlink:href="#DejaVuSans-117"/>
      <use x="657.740234" xlink:href="#DejaVuSans-110"/>
      <use x="721.119141" xlink:href="#DejaVuSans-99"/>
      <use x="776.099609" xlink:href="#DejaVuSans-116"/>
      <use x="815.308594" xlink:href="#DejaVuSans-105"/>
      <use x="843.091797" xlink:href="#DejaVuSans-111"/>
      <use x="904.273438" xlink:href="#DejaVuSans-110"/>
      <use x="967.652344" xlink:href="#DejaVuSans-44"/>
      <use x="999.439453" xlink:href="#DejaVuSans-116"/>
      <use x="1038.648438" xlink:href="#DejaVuSans-97"/>
      <use x="1099.927734" xlink:href="#DejaVuSans-114"/>
      <use x="1139.291016" xlink:href="#DejaVuSans-103"/>
      <use x="1202.767578" xlink:href="#DejaVuSans-101"/>
      <use x="1264.291016" xlink:href="#DejaVuSans-116"/>
      <use x="1303.5" xlink:href="#DejaVuSans-32"/>
      <use x="1335.287109" xlink:href="#DejaVuSans-112"/>
      <use x="1398.763672" xlink:href="#DejaVuSans-97"/>
      <use x="1460.042969" xlink:href="#DejaVuSans-105"/>
      <use x="1487.826172" xlink:href="#DejaVuSans-114"/>
      <use x="1528.939453" xlink:href="#DejaVuSans-115"/>
     </g>
    </g>
   </g>
   <g id="line2d_29">
    <defs>
     <path d="M 0 1.5 
C 0.397805 1.5 0.77937 1.341951 1.06066 1.06066 
C 1.341951 0.77937 1.5 0.397805 1.5 0 
C 1.5 -0.397805 1.341951 -0.77937 1.06066 -1.06066 
C 0.77937 -1.341951 0.397805 -1.5 0 -1.5 
C -0.397805 -1.5 -0.77937 -1.341951 -1.06066 -1.06066 
C -1.341951 -0.77937 -1.5 -0.397805 -1.5 0 
C -1.5 0.397805 -1.341951 0.77937 -1.06066 1.06066 
C -0.77937 1.341951 -0.397805 1.5 0 1.5 
z
" id="m0f57321c5b" style="stroke:#000080;"/>
    </defs>
    <g>
     <use style="fill:#000080;stroke:#000080;" x="338.318094" xlink:href="#m0f57321c5b" y="40.881951"/>
     <use style="fill:#000080;stroke:#000080;" x="338.318094" xlink:href="#m0f57321c5b" y="40.881951"/>
    </g>
   </g>
   <g id="line2d_30">
    <path d="M 166.292432 298.944 
L 166.292432 298.502868 
L 172.233753 298.502868 
L 172.233753 298.061737 
L 172.545321 298.061737 
L 172.545321 297.620605 
L 173.145303 297.620605 
L 173.145303 297.179473 
L 173.434285 297.179473 
L 173.434285 296.738341 
L 173.671758 296.738341 
L 173.687483 295.856078 
L 174.122542 295.856078 
L 174.122542 295.414946 
L 174.419693 295.414946 
L 174.517709 294.091551 
L 174.712223 294.091551 
L 174.712223 293.65042 
L 175.014927 293.65042 
L 175.0442 292.768156 
L 176.41189 292.768156 
L 176.41189 292.327024 
L 176.594594 292.327024 
L 176.594594 291.885893 
L 176.981169 291.885893 
L 176.981169 291.444761 
L 177.39226 291.444761 
L 177.475981 289.680234 
L 177.635944 289.680234 
L 177.635944 289.239102 
L 177.857632 289.239102 
L 177.857632 288.797971 
L 178.03312 288.797971 
L 178.101616 287.474576 
L 178.169864 287.474576 
L 178.169864 287.033444 
L 178.391505 287.033444 
L 178.391505 286.592312 
L 178.58635 286.592312 
L 178.652865 283.945522 
L 178.779198 283.945522 
L 178.779198 283.50439 
L 178.934444 283.50439 
L 178.94039 282.622127 
L 179.052999 282.622127 
L 179.052999 282.180995 
L 179.276214 282.180995 
L 179.276214 281.739863 
L 179.743355 281.739863 
L 179.805909 280.416468 
L 180.014803 280.416468 
L 180.014803 279.975337 
L 180.359723 279.975337 
L 180.359723 279.534205 
L 180.546222 279.534205 
L 180.546222 279.093073 
L 180.768686 279.093073 
L 180.806406 278.21081 
L 180.88162 278.21081 
L 180.940507 277.328546 
L 181.031152 277.328546 
L 181.031152 276.887415 
L 181.211143 276.887415 
L 181.211143 276.005151 
L 181.446749 276.005151 
L 181.446749 275.56402 
L 181.581544 275.56402 
L 181.581544 275.122888 
L 181.705118 275.122888 
L 181.802375 274.240624 
L 181.894052 274.240624 
L 181.929584 272.476098 
L 182.06601 272.476098 
L 182.136362 271.593834 
L 182.241399 271.593834 
L 182.241399 271.152702 
L 182.390441 271.152702 
L 182.390441 270.270439 
L 182.636251 270.270439 
L 182.733682 268.947044 
L 182.772514 268.947044 
L 182.806426 266.741385 
L 182.907797 266.741385 
L 182.994254 265.41799 
L 183.132716 265.41799 
L 183.156486 263.653463 
L 183.246539 263.653463 
L 183.246539 263.212332 
L 183.62105 263.212332 
L 183.62105 262.7712 
L 184.02458 262.7712 
L 184.106064 261.447805 
L 184.312712 261.447805 
L 184.31718 260.12441 
L 184.499429 260.12441 
L 184.570075 257.918751 
L 184.767354 257.918751 
L 184.863054 256.595356 
L 184.884737 256.595356 
L 184.949634 255.713093 
L 185.168625 255.713093 
L 185.241059 253.948566 
L 185.363983 253.948566 
L 185.452499 251.742907 
L 185.494503 251.742907 
L 185.574053 250.860644 
L 185.917672 250.860644 
L 186.015872 247.772722 
L 186.036267 247.772722 
L 186.036267 247.33159 
L 186.162219 247.33159 
L 186.198629 246.008195 
L 186.283311 246.008195 
L 186.283311 244.6848 
L 186.431592 244.6848 
L 186.535095 243.802537 
L 186.554934 243.802537 
L 186.554934 242.920273 
L 186.740407 242.920273 
L 186.740407 242.479141 
L 186.881245 242.479141 
L 186.974554 241.155746 
L 187.001683 241.155746 
L 187.036504 240.273483 
L 187.144429 240.273483 
L 187.175151 238.508956 
L 187.41535 238.508956 
L 187.434283 237.626693 
L 187.566281 237.626693 
L 187.674954 234.979902 
L 187.842351 234.979902 
L 187.942078 234.097639 
L 188.015611 234.097639 
L 188.125375 229.24519 
L 188.342998 229.24519 
L 188.440114 227.039532 
L 188.454459 227.039532 
L 188.565262 221.745951 
L 188.66833 221.745951 
L 188.746144 219.981424 
L 188.844717 219.981424 
L 188.939283 218.658029 
L 188.98813 218.658029 
L 189.012507 216.452371 
L 189.133917 216.452371 
L 189.244239 215.128976 
L 189.268286 215.128976 
L 189.377825 211.599922 
L 189.435759 211.599922 
L 189.493515 208.512 
L 189.581507 208.512 
L 189.581507 207.629737 
L 189.949291 207.629737 
L 190.028588 206.306341 
L 190.143633 206.306341 
L 190.179646 205.424078 
L 190.345717 205.424078 
L 190.371635 202.777288 
L 190.507122 202.777288 
L 190.606501 201.453893 
L 190.628869 201.453893 
L 190.657589 198.365971 
L 190.77837 198.365971 
L 190.819512 197.042576 
L 190.895232 197.042576 
L 191.001982 194.836917 
L 191.014501 194.836917 
L 191.086325 191.748995 
L 191.154771 191.748995 
L 191.210587 190.4256 
L 191.303247 190.4256 
L 191.383185 189.543337 
L 191.435269 189.543337 
L 191.493311 188.661073 
L 191.581557 188.661073 
L 191.687512 186.455415 
L 191.801877 186.455415 
L 191.906602 182.926361 
L 192.016681 182.926361 
L 192.084785 180.720702 
L 192.190891 180.720702 
L 192.226127 179.838439 
L 192.316848 179.838439 
L 192.41004 177.63278 
L 192.462258 177.63278 
L 192.525884 176.750517 
L 192.592173 176.750517 
L 192.678287 174.98599 
L 192.704044 174.98599 
L 192.801033 173.221463 
L 192.837985 173.221463 
L 192.914501 171.456937 
L 192.954054 171.456937 
L 193.04134 166.163356 
L 193.094639 166.163356 
L 193.16733 165.281093 
L 193.209139 165.281093 
L 193.303565 163.075434 
L 193.358889 163.075434 
L 193.411297 160.869776 
L 193.49375 160.869776 
L 193.573112 158.664117 
L 193.692888 158.664117 
L 193.787622 156.89959 
L 193.846927 156.89959 
L 193.956952 153.811668 
L 194.055693 153.811668 
L 194.140675 152.047141 
L 194.169799 152.047141 
L 194.235823 148.076956 
L 194.338361 148.076956 
L 194.437734 145.430166 
L 194.482021 145.430166 
L 194.523608 143.665639 
L 194.622009 143.665639 
L 194.71476 142.342244 
L 194.745575 142.342244 
L 194.771216 141.45998 
L 194.863236 141.45998 
L 194.914164 139.695454 
L 194.977631 139.695454 
L 195.086295 137.048663 
L 195.101408 137.048663 
L 195.194336 136.1664 
L 195.477801 136.1664 
L 195.571348 134.401873 
L 195.605696 134.401873 
L 195.71324 132.637346 
L 195.764352 132.637346 
L 195.858907 130.431688 
L 195.955395 130.431688 
L 196.037023 128.667161 
L 196.082484 128.667161 
L 196.139753 127.784898 
L 196.206347 127.784898 
L 196.230073 125.579239 
L 196.437586 125.579239 
L 196.470389 124.255844 
L 196.55681 124.255844 
L 196.631233 122.050185 
L 196.772291 122.050185 
L 196.841278 119.844527 
L 196.898574 119.844527 
L 196.97166 118.08 
L 197.017195 118.08 
L 197.017195 117.638868 
L 197.207247 117.638868 
L 197.229744 116.756605 
L 197.415445 116.756605 
L 197.426574 115.874341 
L 197.559604 115.874341 
L 197.559604 115.43321 
L 197.6917 115.43321 
L 197.6917 114.992078 
L 197.851177 114.992078 
L 197.851177 114.109815 
L 197.970444 114.109815 
L 198.065316 112.345288 
L 198.131871 112.345288 
L 198.19392 111.463024 
L 198.260023 111.463024 
L 198.347094 110.580761 
L 198.399989 110.580761 
L 198.433764 109.257366 
L 198.522135 109.257366 
L 198.549405 107.492839 
L 198.75371 107.492839 
L 198.811678 105.728312 
L 198.871528 105.728312 
L 198.871528 105.28718 
L 199.559376 105.28718 
L 199.644604 103.081522 
L 199.678192 103.081522 
L 199.721571 102.199259 
L 200.099823 102.199259 
L 200.099823 101.758127 
L 200.400462 101.758127 
L 200.489535 100.434732 
L 200.694501 100.434732 
L 200.694501 99.552468 
L 200.815674 99.552468 
L 200.815674 99.111337 
L 200.934225 99.111337 
L 200.934225 98.670205 
L 201.057538 98.670205 
L 201.057538 98.229073 
L 201.363231 98.229073 
L 201.388483 97.34681 
L 201.546436 97.34681 
L 201.546436 96.905678 
L 201.660483 96.905678 
L 201.692435 95.582283 
L 201.824986 95.582283 
L 201.824986 94.70002 
L 202.417852 94.70002 
L 202.417852 94.258888 
L 205.327537 94.258888 
L 205.327537 93.817756 
L 205.803895 93.817756 
L 205.803895 92.935493 
L 207.084884 92.935493 
L 207.084884 92.494361 
L 207.201697 92.494361 
L 207.201697 92.053229 
L 207.412244 92.053229 
L 207.461905 91.170966 
L 207.862207 91.170966 
L 207.867317 90.288702 
L 208.312888 90.288702 
L 208.375155 88.965307 
L 208.499075 88.965307 
L 208.499075 88.524176 
L 208.878119 88.524176 
L 208.878119 88.083044 
L 209.020416 88.083044 
L 209.0744 87.20078 
L 209.363266 87.20078 
L 209.363266 86.759649 
L 209.581414 86.759649 
L 209.674469 85.436254 
L 209.74049 85.436254 
L 209.74049 84.995122 
L 209.934888 84.995122 
L 210.005705 84.112859 
L 210.20078 84.112859 
L 210.20078 83.230595 
L 210.337932 83.230595 
L 210.416176 82.348332 
L 210.478538 82.348332 
L 210.548448 80.583805 
L 210.712767 80.583805 
L 210.712767 79.701541 
L 211.007997 79.701541 
L 211.007997 79.26041 
L 212.501456 79.26041 
L 212.501456 78.819278 
L 213.595239 78.819278 
L 213.595239 78.378146 
L 221.596519 78.378146 
L 221.596519 77.937015 
L 221.811381 77.937015 
L 221.811381 77.495883 
L 223.633258 77.495883 
L 223.633258 76.172488 
L 225.674192 76.172488 
L 225.674192 75.731356 
L 226.023842 75.731356 
L 226.023842 74.849093 
L 235.071565 74.849093 
L 235.071565 74.407961 
L 238.087569 74.407961 
L 238.087569 73.966829 
L 241.104167 73.966829 
L 241.104167 73.525698 
L 243.680961 73.525698 
L 243.680961 73.084566 
L 243.81447 73.084566 
L 243.833735 71.320039 
L 243.951729 71.320039 
L 243.951729 70.437776 
L 244.234555 70.437776 
L 244.234555 69.996644 
L 244.72755 69.996644 
L 244.72755 69.555512 
L 246.592231 69.555512 
L 246.592231 69.11438 
L 253.56134 69.11438 
L 253.56134 68.673249 
L 261.678402 68.673249 
L 261.678402 68.232117 
L 261.792547 68.232117 
L 261.792547 67.790985 
L 262.3901 67.790985 
L 262.393408 66.908722 
L 263.361267 66.908722 
L 263.377172 66.026459 
L 263.869844 66.026459 
L 263.869844 65.585327 
L 265.352071 65.585327 
L 265.386741 64.703063 
L 267.453057 64.703063 
L 267.525474 61.615141 
L 274.46625 61.615141 
L 274.46625 61.17401 
L 275.331044 61.17401 
L 275.331044 60.732878 
L 275.610044 60.732878 
L 275.63168 59.850615 
L 277.608213 59.850615 
L 277.668868 58.086088 
L 283.351385 58.086088 
L 283.351385 57.644956 
L 284.205066 57.644956 
L 284.205066 57.203824 
L 287.823811 57.203824 
L 287.823811 56.762693 
L 289.024047 56.762693 
L 289.038105 55.439298 
L 291.891315 55.439298 
L 291.90988 54.557034 
L 292.918958 54.557034 
L 292.918958 54.115902 
L 295.349743 54.115902 
L 295.349743 53.674771 
L 296.075657 53.674771 
L 296.091131 51.910244 
L 297.961329 51.910244 
L 297.961329 51.469112 
L 298.111509 51.469112 
L 298.111509 51.02798 
L 298.820089 51.02798 
L 298.820089 50.586849 
L 301.227388 50.586849 
L 301.227388 50.145717 
L 303.330727 50.145717 
L 303.347524 49.263454 
L 306.963301 49.263454 
L 306.964084 48.38119 
L 308.112426 48.38119 
L 308.112426 47.940059 
L 308.525804 47.940059 
L 308.54749 46.616663 
L 309.993802 46.616663 
L 309.994878 45.7344 
L 311.359169 45.7344 
L 311.359169 45.293268 
L 312.627443 45.293268 
L 312.627443 44.852137 
L 313.790383 44.852137 
L 313.790383 44.411005 
L 316.964578 44.411005 
L 316.964578 43.969873 
L 319.66562 43.969873 
L 319.66562 43.528741 
L 328.797319 43.528741 
L 328.797783 42.646478 
L 332.536225 42.646478 
L 332.536225 42.205346 
L 334.545693 42.205346 
L 334.545693 41.764215 
L 334.921305 41.764215 
L 334.921305 41.323083 
L 338.318094 41.323083 
L 338.318094 40.881951 
L 360.8064 40.881951 
L 360.8064 40.881951 
" style="fill:none;stroke:#000080;stroke-linecap:square;stroke-width:1.5;"/>
   </g>
   <g id="line2d_31">
    <defs>
     <path d="M 0 6 
C 1.591219 6 3.117479 5.367802 4.242641 4.242641 
C 5.367802 3.117479 6 1.591219 6 0 
C 6 -1.591219 5.367802 -3.117479 4.242641 -4.242641 
C 3.117479 -5.367802 1.591219 -6 0 -6 
C -1.591219 -6 -3.117479 -5.367802 -4.242641 -4.242641 
C -5.367802 -3.117479 -6 -1.591219 -6 0 
C -6 1.591219 -5.367802 3.117479 -4.242641 4.242641 
C -3.117479 5.367802 -1.591219 6 0 6 
z
" id="m160ff4ea57" style="stroke:#000080;stroke-width:1.5;"/>
    </defs>
    <g>
     <use style="fill-opacity:0;stroke:#000080;stroke-width:1.5;" x="191.303247" xlink:href="#m160ff4ea57" y="189.984468"/>
     <use style="fill-opacity:0;stroke:#000080;stroke-width:1.5;" x="238.087569" xlink:href="#m160ff4ea57" y="73.966829"/>
     <use style="fill-opacity:0;stroke:#000080;stroke-width:1.5;" x="338.318094" xlink:href="#m160ff4ea57" y="40.881951"/>
     <use style="fill-opacity:0;stroke:#000080;stroke-width:1.5;" x="360.8064" xlink:href="#m160ff4ea57" y="40.881951"/>
    </g>
   </g>
   <g id="line2d_32">
    <path style="fill:none;stroke:#000080;stroke-linecap:square;stroke-width:1.5;"/>
    <g/>
   </g>
   <g id="line2d_33">
    <path clip-path="url(#p194c01b18e)" d="M 261.172571 68.673249 
" style="fill:none;stroke:#000080;stroke-linecap:square;stroke-width:1.5;"/>
    <defs>
     <path d="M -12 12 
L 12 -12 
M -12 -12 
L 12 12 
" id="m4895073f24" style="stroke:#000080;"/>
    </defs>
    <g clip-path="url(#p194c01b18e)">
     <use style="fill:#000080;stroke:#000080;" x="261.172571" xlink:href="#m4895073f24" y="68.673249"/>
    </g>
   </g>
   <g id="line2d_34">
    <defs>
     <path d="M 0 1.5 
C 0.397805 1.5 0.77937 1.341951 1.06066 1.06066 
C 1.341951 0.77937 1.5 0.397805 1.5 0 
C 1.5 -0.397805 1.341951 -0.77937 1.06066 -1.06066 
C 0.77937 -1.341951 0.397805 -1.5 0 -1.5 
C -0.397805 -1.5 -0.77937 -1.341951 -1.06066 -1.06066 
C -1.341951 -0.77937 -1.5 -0.397805 -1.5 0 
C -1.5 0.397805 -1.341951 0.77937 -1.06066 1.06066 
C -0.77937 1.341951 -0.397805 1.5 0 1.5 
z
" id="mfa9a01c4ad" style="stroke:#ff00ff;"/>
    </defs>
    <g>
     <use style="fill:#ff00ff;stroke:#ff00ff;" x="301.483801" xlink:href="#mfa9a01c4ad" y="27.648"/>
     <use style="fill:#ff00ff;stroke:#ff00ff;" x="301.483801" xlink:href="#mfa9a01c4ad" y="27.648"/>
    </g>
   </g>
   <g id="line2d_35">
    <path d="M 171.105246 298.944 
L 171.105246 298.502868 
L 171.364905 298.502868 
L 171.364905 298.061737 
L 172.054594 298.061737 
L 172.123046 297.179473 
L 173.418347 297.179473 
L 173.513776 296.29721 
L 173.968316 296.29721 
L 173.968316 295.856078 
L 174.176223 295.856078 
L 174.176223 295.414946 
L 174.600249 295.414946 
L 174.667513 294.532683 
L 175.0442 294.532683 
L 175.0442 294.091551 
L 175.348847 294.091551 
L 175.348847 293.65042 
L 175.584799 293.65042 
L 175.584799 293.209288 
L 175.789735 293.209288 
L 175.789735 292.768156 
L 176.096471 292.768156 
L 176.206783 291.885893 
L 176.309616 291.885893 
L 176.309616 291.444761 
L 176.96797 291.444761 
L 176.96797 290.562498 
L 177.079865 290.562498 
L 177.145377 289.239102 
L 177.623197 289.239102 
L 177.623197 288.797971 
L 177.781919 288.797971 
L 177.794559 287.915707 
L 178.03312 287.915707 
L 178.03312 287.474576 
L 178.151275 287.474576 
L 178.151275 287.033444 
L 178.562105 287.033444 
L 178.562105 286.592312 
L 179.135545 286.592312 
L 179.200149 285.710049 
L 179.594669 285.710049 
L 179.69202 284.386654 
L 179.783186 284.386654 
L 179.783186 283.945522 
L 179.907823 283.945522 
L 179.907823 283.50439 
L 180.188054 283.50439 
L 180.215848 282.622127 
L 180.326619 282.622127 
L 180.425758 281.739863 
L 180.529841 281.739863 
L 180.535303 280.8576 
L 180.671343 280.8576 
L 180.752497 279.975337 
L 181.142526 279.975337 
L 181.247987 277.769678 
L 181.274261 277.769678 
L 181.274261 277.328546 
L 181.446749 277.328546 
L 181.503895 275.56402 
L 181.873718 275.56402 
L 181.873718 275.122888 
L 182.010548 275.122888 
L 182.096193 273.358361 
L 182.345852 273.358361 
L 182.454661 270.711571 
L 182.631366 270.711571 
L 182.728823 269.388176 
L 182.762814 269.388176 
L 182.762814 268.947044 
L 182.994254 268.947044 
L 182.994254 268.06478 
L 183.113678 268.06478 
L 183.208674 267.182517 
L 183.298478 267.182517 
L 183.298478 266.300254 
L 183.495484 266.300254 
L 183.593219 264.535727 
L 183.68121 264.535727 
L 183.750387 261.888937 
L 183.814724 261.888937 
L 183.828482 261.006673 
L 183.960958 261.006673 
L 184.02458 260.12441 
L 184.133147 260.12441 
L 184.187197 258.801015 
L 184.370704 258.801015 
L 184.37961 257.47762 
L 184.512695 257.47762 
L 184.570075 256.595356 
L 184.644846 256.595356 
L 184.714948 254.830829 
L 184.802211 254.830829 
L 184.906394 253.507434 
L 185.053006 253.507434 
L 185.160085 251.742907 
L 185.313216 251.742907 
L 185.368208 249.97838 
L 185.469311 249.97838 
L 185.528039 249.096117 
L 185.624123 249.096117 
L 185.694827 246.449327 
L 185.77767 246.449327 
L 185.781803 245.125932 
L 185.888933 245.125932 
L 185.975018 243.802537 
L 186.089188 243.802537 
L 186.194587 242.479141 
L 186.299398 242.479141 
L 186.327517 241.596878 
L 186.423607 241.596878 
L 186.455528 238.508956 
L 186.566827 238.508956 
L 186.614326 236.744429 
L 186.73648 236.744429 
L 186.846134 234.097639 
L 186.850038 234.097639 
L 186.850038 233.656507 
L 186.990061 233.656507 
L 187.090544 231.450849 
L 187.350836 231.450849 
L 187.438067 228.362927 
L 187.483419 228.362927 
L 187.502284 227.480663 
L 187.615074 227.480663 
L 187.693627 226.157268 
L 187.727193 226.157268 
L 187.779287 224.833873 
L 187.838647 224.833873 
L 187.92365 221.745951 
L 188.030284 221.745951 
L 188.125375 219.099161 
L 188.194562 219.099161 
L 188.281594 216.452371 
L 188.350209 216.452371 
L 188.443701 213.80558 
L 188.472374 213.80558 
L 188.515303 212.923317 
L 188.66833 212.923317 
L 188.696663 210.717659 
L 188.823638 210.717659 
L 188.823638 209.835395 
L 188.949761 209.835395 
L 189.050749 207.188605 
L 189.106235 207.188605 
L 189.189159 204.541815 
L 189.408518 204.541815 
L 189.503689 201.895024 
L 189.598381 201.895024 
L 189.682527 199.248234 
L 189.752919 199.248234 
L 189.826382 193.513522 
L 189.886276 193.513522 
L 189.969146 191.748995 
L 190.028588 191.748995 
L 190.117399 188.219941 
L 190.153462 188.219941 
L 190.173103 186.896546 
L 190.545653 186.896546 
L 190.545653 186.014283 
L 190.660778 186.014283 
L 190.762522 183.367493 
L 190.775202 183.367493 
L 190.85741 180.279571 
L 190.986322 180.279571 
L 191.064495 178.956176 
L 191.142344 178.956176 
L 191.247706 173.662595 
L 191.260062 173.662595 
L 191.260062 173.221463 
L 191.386253 173.221463 
L 191.450561 170.574673 
L 191.49941 170.574673 
L 191.560294 168.369015 
L 191.696566 168.369015 
L 191.744781 166.604488 
L 191.915552 166.604488 
L 192.022613 165.281093 
L 192.179131 165.281093 
L 192.208517 163.957698 
L 192.343105 163.957698 
L 192.441968 159.54638 
L 192.459361 159.54638 
L 192.569142 155.135063 
L 192.577782 155.135063 
L 192.586418 153.811668 
L 192.735478 153.811668 
L 192.786801 151.60601 
L 192.852179 151.60601 
L 192.852179 151.164878 
L 193.018854 151.164878 
L 193.083431 148.95922 
L 193.139405 148.95922 
L 193.239741 144.547902 
L 193.256412 144.547902 
L 193.314643 142.783376 
L 193.507457 142.783376 
L 193.603127 139.254322 
L 193.673883 139.254322 
L 193.760604 137.489795 
L 193.811906 137.489795 
L 193.88994 135.284137 
L 193.943568 135.284137 
L 194.053031 132.196215 
L 194.066337 132.196215 
L 194.169799 127.784898 
L 194.180379 127.784898 
L 194.280588 124.255844 
L 194.312122 124.255844 
L 194.401184 119.403395 
L 194.440342 119.403395 
L 194.521011 116.315473 
L 194.554737 116.315473 
L 194.622009 114.992078 
L 194.750706 114.992078 
L 194.750706 114.109815 
L 194.893809 114.109815 
L 194.970026 111.904156 
L 195.010549 111.904156 
L 195.09889 109.257366 
L 195.129083 109.257366 
L 195.239378 105.28718 
L 195.396184 105.28718 
L 195.472865 103.081522 
L 195.51232 103.081522 
L 195.571348 99.111337 
L 195.664433 99.111337 
L 195.761921 95.141151 
L 195.786214 95.141151 
L 195.827441 92.053229 
L 196.013051 92.053229 
L 196.060964 91.170966 
L 196.180213 91.170966 
L 196.25377 89.406439 
L 196.293986 89.406439 
L 196.293986 88.083044 
L 196.416468 88.083044 
L 196.510145 85.436254 
L 196.538158 85.436254 
L 196.617301 83.671727 
L 196.772291 83.671727 
L 196.871094 80.583805 
L 196.900863 80.583805 
L 196.969381 78.378146 
L 197.076226 78.378146 
L 197.153142 74.849093 
L 197.211748 74.849093 
L 197.234241 73.966829 
L 197.377559 73.966829 
L 197.464361 69.996644 
L 197.557395 69.996644 
L 197.660961 67.790985 
L 197.892464 67.790985 
L 197.998524 65.585327 
L 198.022251 65.585327 
L 198.101843 64.261932 
L 198.138299 64.261932 
L 198.236594 62.056273 
L 198.347094 62.056273 
L 198.370386 60.291746 
L 198.467478 60.291746 
L 198.547308 58.086088 
L 198.612183 58.086088 
L 198.645579 55.880429 
L 198.795134 55.880429 
L 198.900353 53.674771 
L 198.970174 53.674771 
L 198.986565 52.792507 
L 199.135475 52.792507 
L 199.135475 51.910244 
L 199.291278 51.910244 
L 199.291278 51.469112 
L 199.509647 51.469112 
L 199.591134 50.586849 
L 199.642626 50.586849 
L 199.642626 50.145717 
L 199.768779 50.145717 
L 199.81195 48.822322 
L 199.962271 48.822322 
L 200.045697 46.175532 
L 200.094031 46.175532 
L 200.094031 45.7344 
L 200.485754 45.7344 
L 200.534858 44.411005 
L 200.662681 44.411005 
L 200.662681 43.528741 
L 209.191432 43.528741 
L 209.199763 42.646478 
L 213.461944 42.646478 
L 213.503641 41.764215 
L 215.411323 41.764215 
L 215.411323 40.881951 
L 215.565503 40.881951 
L 215.661122 39.999688 
L 215.999889 39.999688 
L 215.999889 39.558556 
L 217.0439 39.558556 
L 217.0439 39.117424 
L 217.490275 39.117424 
L 217.524706 38.235161 
L 225.526398 38.235161 
L 225.553356 37.352898 
L 226.674642 37.352898 
L 226.674642 36.911766 
L 226.917932 36.911766 
L 226.917932 36.470634 
L 238.978289 36.470634 
L 238.978289 36.029502 
L 248.811345 36.029502 
L 248.811345 35.588371 
L 249.202651 35.588371 
L 249.202651 35.147239 
L 250.290243 35.147239 
L 250.290243 34.706107 
L 261.648696 34.706107 
L 261.707113 32.94158 
L 261.829136 32.94158 
L 261.835082 32.059317 
L 262.805466 32.059317 
L 262.805466 31.618185 
L 269.145868 31.618185 
L 269.145868 31.177054 
L 274.504407 31.177054 
L 274.553995 30.29479 
L 275.647204 30.29479 
L 275.647204 29.853659 
L 284.834933 29.853659 
L 284.834933 29.412527 
L 287.410986 29.412527 
L 287.410986 28.971395 
L 291.77247 28.971395 
L 291.804908 28.089132 
L 301.483801 28.089132 
L 301.483801 27.648 
L 360.8064 27.648 
L 360.8064 27.648 
" style="fill:none;stroke:#ff00ff;stroke-linecap:square;stroke-width:1.5;"/>
   </g>
   <g id="line2d_36">
    <defs>
     <path d="M -0 8.485281 
L 5.091169 0 
L 0 -8.485281 
L -5.091169 -0 
z
" id="m4e863adc9f" style="stroke:#ff00ff;stroke-linejoin:miter;stroke-width:1.5;"/>
    </defs>
    <g>
     <use style="fill-opacity:0;stroke:#ff00ff;stroke-linejoin:miter;stroke-width:1.5;" x="217.524706" xlink:href="#m4e863adc9f" y="38.235161"/>
     <use style="fill-opacity:0;stroke:#ff00ff;stroke-linejoin:miter;stroke-width:1.5;" x="301.483801" xlink:href="#m4e863adc9f" y="28.089132"/>
     <use style="fill-opacity:0;stroke:#ff00ff;stroke-linejoin:miter;stroke-width:1.5;" x="301.483801" xlink:href="#m4e863adc9f" y="27.648"/>
     <use style="fill-opacity:0;stroke:#ff00ff;stroke-linejoin:miter;stroke-width:1.5;" x="360.8064" xlink:href="#m4e863adc9f" y="27.648"/>
    </g>
   </g>
   <g id="line2d_37">
    <path style="fill:none;stroke:#ff00ff;stroke-linecap:square;stroke-width:1.5;"/>
    <g/>
   </g>
   <g id="line2d_38">
    <path clip-path="url(#p194c01b18e)" d="M 261.15762 34.706107 
" style="fill:none;stroke:#ff00ff;stroke-linecap:square;stroke-width:1.5;"/>
    <defs>
     <path d="M -12 12 
L 12 -12 
M -12 -12 
L 12 12 
" id="m23606aa1de" style="stroke:#ff00ff;"/>
    </defs>
    <g clip-path="url(#p194c01b18e)">
     <use style="fill:#ff00ff;stroke:#ff00ff;" x="261.15762" xlink:href="#m23606aa1de" y="34.706107"/>
    </g>
   </g>
   <g id="line2d_39">
    <defs>
     <path d="M 0 1.5 
C 0.397805 1.5 0.77937 1.341951 1.06066 1.06066 
C 1.341951 0.77937 1.5 0.397805 1.5 0 
C 1.5 -0.397805 1.341951 -0.77937 1.06066 -1.06066 
C 0.77937 -1.341951 0.397805 -1.5 0 -1.5 
C -0.397805 -1.5 -0.77937 -1.341951 -1.06066 -1.06066 
C -1.341951 -0.77937 -1.5 -0.397805 -1.5 0 
C -1.5 0.397805 -1.341951 0.77937 -1.06066 1.06066 
C -0.77937 1.341951 -0.397805 1.5 0 1.5 
z
" id="m1417698693" style="stroke:#ff7500;"/>
    </defs>
    <g>
     <use style="fill:#ff7500;stroke:#ff7500;" x="308.039591" xlink:href="#m1417698693" y="54.115902"/>
     <use style="fill:#ff7500;stroke:#ff7500;" x="308.039591" xlink:href="#m1417698693" y="54.115902"/>
    </g>
   </g>
   <g id="line2d_40">
    <path d="M 170.162392 298.944 
L 170.162392 298.502868 
L 171.248949 298.502868 
L 171.302556 297.620605 
L 171.373795 297.620605 
L 171.373795 297.179473 
L 171.568323 297.179473 
L 171.673587 296.29721 
L 171.743437 296.29721 
L 171.743437 295.856078 
L 172.578697 295.856078 
L 172.612014 294.973815 
L 172.843594 294.973815 
L 172.843594 294.532683 
L 173.096705 294.532683 
L 173.096705 294.091551 
L 173.217966 294.091551 
L 173.28232 293.209288 
L 173.90627 293.209288 
L 173.90627 292.768156 
L 174.275513 292.768156 
L 174.328761 291.444761 
L 174.487605 291.444761 
L 174.487605 291.003629 
L 174.704779 291.003629 
L 174.704779 290.562498 
L 174.956244 290.562498 
L 175.0442 289.680234 
L 175.095318 289.680234 
L 175.131747 288.797971 
L 175.291198 288.797971 
L 175.291198 288.356839 
L 175.880884 288.356839 
L 175.880884 287.915707 
L 176.096471 287.915707 
L 176.110296 286.592312 
L 176.241123 286.592312 
L 176.309616 285.710049 
L 176.513611 285.710049 
L 176.513611 284.827785 
L 176.788874 284.827785 
L 176.788874 284.386654 
L 176.974571 284.386654 
L 176.981169 283.50439 
L 177.145377 283.50439 
L 177.191099 282.622127 
L 177.308164 282.622127 
L 177.308164 282.180995 
L 177.437387 282.180995 
L 177.443825 281.298732 
L 177.718591 281.298732 
L 177.826122 280.416468 
L 177.851334 280.416468 
L 177.901658 279.093073 
L 178.458711 279.093073 
L 178.51352 278.21081 
L 178.683021 278.21081 
L 178.725159 276.446283 
L 178.934444 276.446283 
L 178.934444 275.56402 
L 179.12966 275.56402 
L 179.170811 274.681756 
L 179.287889 274.681756 
L 179.357788 272.917229 
L 179.629086 272.917229 
L 179.629086 272.476098 
L 179.879569 272.476098 
L 179.919112 271.593834 
L 180.087651 271.593834 
L 180.149072 270.711571 
L 180.425758 270.711571 
L 180.458688 269.829307 
L 180.56259 269.829307 
L 180.611606 268.06478 
L 181.290007 268.06478 
L 181.290007 267.623649 
L 181.472746 267.623649 
L 181.472746 266.741385 
L 181.586709 266.741385 
L 181.602196 265.859122 
L 181.822786 265.859122 
L 181.822786 265.41799 
L 181.985284 265.41799 
L 182.0509 264.094595 
L 182.116288 264.094595 
L 182.116288 263.653463 
L 182.246386 263.653463 
L 182.246386 263.212332 
L 182.459592 263.212332 
L 182.562845 260.565541 
L 182.816104 260.565541 
L 182.816104 258.801015 
L 183.037334 258.801015 
L 183.094621 257.47762 
L 183.156486 257.47762 
L 183.156486 257.036488 
L 183.415992 257.036488 
L 183.472139 255.271961 
L 183.77339 255.271961 
L 183.814724 253.948566 
L 183.933625 253.948566 
L 183.933625 253.507434 
L 184.05178 253.507434 
L 184.05178 251.742907 
L 184.23212 251.742907 
L 184.31718 250.860644 
L 184.44627 250.860644 
L 184.543614 249.537249 
L 184.662396 249.537249 
L 184.67993 248.654985 
L 184.971217 248.654985 
L 184.971217 248.213854 
L 185.151541 248.213854 
L 185.228297 246.449327 
L 185.279294 246.449327 
L 185.385096 245.125932 
L 185.532226 245.125932 
L 185.636619 242.920273 
L 185.682369 242.920273 
L 185.752856 240.714615 
L 185.909465 240.714615 
L 185.909465 240.273483 
L 186.048492 240.273483 
L 186.121681 238.950088 
L 186.218826 238.950088 
L 186.247065 238.067824 
L 186.439574 238.067824 
L 186.535095 235.862166 
L 186.681412 235.862166 
L 186.740407 233.215376 
L 186.807045 233.215376 
L 186.912399 231.89198 
L 186.955153 231.89198 
L 186.955153 231.450849 
L 187.129049 231.450849 
L 187.129049 231.009717 
L 187.251738 231.009717 
L 187.2861 229.686322 
L 187.517361 229.686322 
L 187.626316 228.362927 
L 187.67869 228.362927 
L 187.749536 227.480663 
L 187.790431 227.480663 
L 187.864558 225.716137 
L 188.008271 225.716137 
L 188.085202 223.510478 
L 188.169101 223.510478 
L 188.263495 220.422556 
L 188.299675 220.422556 
L 188.332177 219.099161 
L 188.440114 219.099161 
L 188.543867 214.687844 
L 188.62575 214.687844 
L 188.686043 212.482185 
L 188.928799 212.482185 
L 189.033376 210.276527 
L 189.08198 210.276527 
L 189.185711 206.306341 
L 189.425548 206.306341 
L 189.513857 203.659551 
L 189.547712 203.659551 
L 189.625349 199.248234 
L 189.806375 199.248234 
L 189.876307 195.71918 
L 189.926099 195.71918 
L 189.992285 192.631259 
L 190.150186 192.631259 
L 190.222117 190.866732 
L 190.410445 190.866732 
L 190.516762 188.661073 
L 190.632063 188.661073 
L 190.689449 186.455415 
L 190.746661 186.455415 
L 190.835313 185.573151 
L 190.866873 185.573151 
L 190.961238 184.249756 
L 190.99572 184.249756 
L 191.092558 182.926361 
L 191.1268 182.926361 
L 191.222968 180.720702 
L 191.306328 180.720702 
L 191.306328 180.279571 
L 191.468894 180.279571 
L 191.548133 178.073912 
L 191.59673 178.073912 
L 191.6573 175.427122 
L 191.774853 175.427122 
L 191.879729 172.780332 
L 192.031508 172.780332 
L 192.129069 171.015805 
L 192.155589 171.015805 
L 192.155589 170.574673 
L 192.287631 170.574673 
L 192.380967 167.04562 
L 192.41004 167.04562 
L 192.49699 164.839961 
L 192.669693 164.839961 
L 192.746895 163.516566 
L 192.835146 163.516566 
L 192.945585 161.752039 
L 192.948409 161.752039 
L 193.035721 156.89959 
L 193.0638 156.89959 
L 193.117035 155.576195 
L 193.375455 155.576195 
L 193.414051 154.2528 
L 193.491007 154.2528 
L 193.597674 152.488273 
L 193.605854 152.488273 
L 193.692888 150.723746 
L 193.733547 150.723746 
L 193.844235 148.076956 
L 193.908727 148.076956 
L 194.005053 144.106771 
L 194.026392 144.106771 
L 194.050369 141.901112 
L 194.225275 141.901112 
L 194.298989 137.489795 
L 194.354086 137.489795 
L 194.461193 133.960741 
L 194.497627 133.960741 
L 194.590991 130.87282 
L 194.665865 130.87282 
L 194.771216 127.343766 
L 194.794263 127.343766 
L 194.842826 122.932449 
L 194.906533 122.932449 
L 194.96749 118.962263 
L 195.018137 118.962263 
L 195.086295 117.638868 
L 195.388746 117.638868 
L 195.497534 115.874341 
L 195.583623 115.874341 
L 195.674204 113.668683 
L 195.77893 113.668683 
L 195.77893 113.227551 
L 195.960206 113.227551 
L 196.051391 112.345288 
L 196.123068 112.345288 
L 196.144517 111.021893 
L 196.25377 111.021893 
L 196.286895 108.816234 
L 196.390625 108.816234 
L 196.496123 105.28718 
L 196.510145 105.28718 
L 196.512481 104.404917 
L 196.726159 104.404917 
L 196.726159 103.522654 
L 196.877968 103.522654 
L 196.930584 102.64039 
L 197.021742 102.64039 
L 197.044463 101.316995 
L 197.209498 101.316995 
L 197.285871 100.434732 
L 197.335125 100.434732 
L 197.375328 98.229073 
L 197.864225 98.229073 
L 197.877263 96.464546 
L 198.076066 96.464546 
L 198.101843 95.141151 
L 198.266408 95.141151 
L 198.266408 94.70002 
L 198.387308 94.70002 
L 198.387308 94.258888 
L 198.526333 94.258888 
L 198.56826 92.935493 
L 198.668505 92.935493 
L 198.73504 90.729834 
L 198.869467 90.729834 
L 198.89418 89.847571 
L 199.017259 89.847571 
L 199.066266 88.083044 
L 199.145632 88.083044 
L 199.226685 86.318517 
L 199.365688 86.318517 
L 199.365688 85.877385 
L 199.63867 85.877385 
L 199.703837 84.55399 
L 200.101753 84.55399 
L 200.101753 84.112859 
L 200.40616 84.112859 
L 200.40616 83.671727 
L 200.527312 83.671727 
L 200.585715 81.466068 
L 200.960059 81.466068 
L 200.960059 81.024937 
L 201.125291 81.024937 
L 201.220101 79.701541 
L 201.305385 79.701541 
L 201.305385 78.819278 
L 201.438884 78.819278 
L 201.541073 77.054751 
L 201.810892 77.054751 
L 201.810892 76.61362 
L 201.977584 76.61362 
L 202.062988 74.849093 
L 202.325475 74.849093 
L 202.325475 73.966829 
L 208.999982 73.966829 
L 208.999982 73.525698 
L 209.158068 73.525698 
L 209.158068 73.084566 
L 210.071713 73.084566 
L 210.181589 70.437776 
L 211.845167 70.437776 
L 211.845167 69.996644 
L 211.98217 69.996644 
L 211.98217 69.555512 
L 215.448919 69.555512 
L 215.448919 68.232117 
L 223.869881 68.232117 
L 223.869881 67.790985 
L 234.185699 67.790985 
L 234.185699 66.908722 
L 235.482711 66.908722 
L 235.482711 66.46759 
L 243.793104 66.46759 
L 243.806721 65.585327 
L 252.924288 65.585327 
L 252.989959 64.703063 
L 253.673115 64.703063 
L 253.673115 64.261932 
L 253.816681 64.261932 
L 253.816681 63.8208 
L 261.735124 63.8208 
L 261.780334 62.056273 
L 262.355221 62.056273 
L 262.39559 60.732878 
L 262.754441 60.732878 
L 262.754441 60.291746 
L 267.458811 60.291746 
L 267.458811 59.850615 
L 270.569632 59.850615 
L 270.569632 59.409483 
L 274.514276 59.409483 
L 274.549864 58.52722 
L 274.862235 58.52722 
L 274.862235 58.086088 
L 275.467654 58.086088 
L 275.467654 57.644956 
L 276.332177 57.644956 
L 276.332177 57.203824 
L 282.222806 57.203824 
L 282.265487 56.321561 
L 283.287333 56.321561 
L 283.287333 55.880429 
L 288.33366 55.880429 
L 288.33366 55.439298 
L 291.711809 55.439298 
L 291.711809 54.998166 
L 306.416006 54.998166 
L 306.416006 54.557034 
L 308.039591 54.557034 
L 308.039591 54.115902 
L 360.8064 54.115902 
L 360.8064 54.115902 
" style="fill:none;stroke:#ff7500;stroke-linecap:square;stroke-width:1.5;"/>
   </g>
   <g id="line2d_41">
    <defs>
     <path d="M 0 -6 
L -1.347084 -1.854102 
L -5.706339 -1.854102 
L -2.179628 0.708204 
L -3.526712 4.854102 
L -0 2.291796 
L 3.526712 4.854102 
L 2.179628 0.708204 
L 5.706339 -1.854102 
L 1.347084 -1.854102 
z
" id="m60045609fb" style="stroke:#ff7500;stroke-linejoin:bevel;stroke-width:1.5;"/>
    </defs>
    <g>
     <use style="fill-opacity:0;stroke:#ff7500;stroke-linejoin:bevel;stroke-width:1.5;" x="195.583623" xlink:href="#m60045609fb" y="114.992078"/>
     <use style="fill-opacity:0;stroke:#ff7500;stroke-linejoin:bevel;stroke-width:1.5;" x="308.039591" xlink:href="#m60045609fb" y="54.557034"/>
     <use style="fill-opacity:0;stroke:#ff7500;stroke-linejoin:bevel;stroke-width:1.5;" x="308.039591" xlink:href="#m60045609fb" y="54.115902"/>
     <use style="fill-opacity:0;stroke:#ff7500;stroke-linejoin:bevel;stroke-width:1.5;" x="360.8064" xlink:href="#m60045609fb" y="54.115902"/>
    </g>
   </g>
   <g id="line2d_42">
    <path style="fill:none;stroke:#ff7500;stroke-linecap:square;stroke-width:1.5;"/>
    <g/>
   </g>
   <g id="line2d_43">
    <path clip-path="url(#p194c01b18e)" d="M 261.185334 63.8208 
" style="fill:none;stroke:#ff7500;stroke-linecap:square;stroke-width:1.5;"/>
    <defs>
     <path d="M -12 12 
L 12 -12 
M -12 -12 
L 12 12 
" id="meb906def0e" style="stroke:#ff7500;"/>
    </defs>
    <g clip-path="url(#p194c01b18e)">
     <use style="fill:#ff7500;stroke:#ff7500;" x="261.185334" xlink:href="#meb906def0e" y="63.8208"/>
    </g>
   </g>
   <g id="line2d_44">
    <defs>
     <path d="M 0 1.5 
C 0.397805 1.5 0.77937 1.341951 1.06066 1.06066 
C 1.341951 0.77937 1.5 0.397805 1.5 0 
C 1.5 -0.397805 1.341951 -0.77937 1.06066 -1.06066 
C 0.77937 -1.341951 0.397805 -1.5 0 -1.5 
C -0.397805 -1.5 -0.77937 -1.341951 -1.06066 -1.06066 
C -1.341951 -0.77937 -1.5 -0.397805 -1.5 0 
C -1.5 0.397805 -1.341951 0.77937 -1.06066 1.06066 
C -0.77937 1.341951 -0.397805 1.5 0 1.5 
z
" id="md88a4dd1dc" style="stroke:#6495ed;"/>
    </defs>
    <g>
     <use style="fill:#6495ed;stroke:#6495ed;" x="334.156629" xlink:href="#md88a4dd1dc" y="40.881951"/>
     <use style="fill:#6495ed;stroke:#6495ed;" x="334.156629" xlink:href="#md88a4dd1dc" y="40.881951"/>
    </g>
   </g>
   <g id="line2d_45">
    <path d="M 170.219181 298.944 
L 170.219181 298.502868 
L 173.047981 298.502868 
L 173.12102 297.620605 
L 173.346455 297.620605 
L 173.346455 297.179473 
L 173.48202 297.179473 
L 173.48202 296.738341 
L 174.13022 296.738341 
L 174.13022 296.29721 
L 174.290742 296.29721 
L 174.290742 295.856078 
L 174.412132 295.856078 
L 174.412132 295.414946 
L 174.547765 295.414946 
L 174.547765 294.973815 
L 174.882632 294.973815 
L 174.882632 294.532683 
L 175.131747 294.532683 
L 175.15357 293.65042 
L 175.49934 293.65042 
L 175.49934 292.768156 
L 175.705205 292.768156 
L 175.705205 292.327024 
L 176.013311 292.327024 
L 176.013311 291.885893 
L 176.199907 291.885893 
L 176.302778 291.003629 
L 176.459428 291.003629 
L 176.479765 290.121366 
L 176.921701 290.121366 
L 176.974571 289.239102 
L 177.572122 289.239102 
L 177.642315 287.474576 
L 178.08296 287.474576 
L 178.08296 287.033444 
L 178.385383 287.033444 
L 178.440406 286.15118 
L 178.531754 286.15118 
L 178.531754 285.710049 
L 178.676994 285.710049 
L 178.676994 285.268917 
L 178.791186 285.268917 
L 178.803166 284.386654 
L 178.928497 284.386654 
L 178.993815 283.50439 
L 179.135545 283.50439 
L 179.135545 282.622127 
L 179.43322 282.622127 
L 179.450585 281.739863 
L 179.623354 281.739863 
L 179.634816 280.8576 
L 180.065266 280.8576 
L 180.065266 280.416468 
L 180.447718 280.416468 
L 180.491561 278.651941 
L 180.56259 278.651941 
L 180.56259 278.21081 
L 180.897699 278.21081 
L 180.99921 276.887415 
L 181.137238 276.887415 
L 181.137238 276.446283 
L 181.263756 276.446283 
L 181.358089 274.240624 
L 181.462351 274.240624 
L 181.462351 273.799493 
L 181.684578 273.799493 
L 181.77683 271.593834 
L 182.06601 271.593834 
L 182.131345 270.711571 
L 182.405281 270.711571 
L 182.405281 270.270439 
L 182.587345 270.270439 
L 182.68503 268.947044 
L 182.704506 268.947044 
L 182.7919 267.182517 
L 182.960679 267.182517 
L 183.066 265.859122 
L 183.080316 265.859122 
L 183.170733 263.212332 
L 183.203936 263.212332 
L 183.203936 262.7712 
L 183.411305 262.7712 
L 183.411305 262.330068 
L 183.528119 262.330068 
L 183.593219 261.006673 
L 183.713524 261.006673 
L 183.805546 260.12441 
L 183.837648 260.12441 
L 183.86512 258.801015 
L 183.956405 258.801015 
L 184.04725 257.47762 
L 184.223144 257.47762 
L 184.29036 256.595356 
L 184.357337 256.595356 
L 184.357337 256.154224 
L 184.472868 256.154224 
L 184.472868 255.713093 
L 184.67993 255.713093 
L 184.745536 252.625171 
L 184.858715 252.625171 
L 184.949634 250.419512 
L 184.971217 250.419512 
L 185.014308 246.890459 
L 185.117327 246.890459 
L 185.172894 244.6848 
L 185.232552 244.6848 
L 185.317451 242.479141 
L 185.372431 242.479141 
L 185.418828 240.273483 
L 185.640783 240.273483 
L 185.640783 239.832351 
L 185.752856 239.832351 
L 185.827202 238.067824 
L 185.946366 238.067824 
L 186.036267 237.185561 
L 186.068851 237.185561 
L 186.068851 236.744429 
L 186.190544 236.744429 
L 186.295377 234.979902 
L 186.343566 234.979902 
L 186.391631 231.450849 
L 186.610373 231.450849 
L 186.66959 230.568585 
L 186.740407 230.568585 
L 186.783553 229.686322 
L 186.857845 229.686322 
L 186.91629 227.921795 
L 187.059683 227.921795 
L 187.109806 226.5984 
L 187.224968 226.5984 
L 187.312783 224.392741 
L 187.40019 224.392741 
L 187.490967 221.745951 
L 187.555003 221.745951 
L 187.607576 219.981424 
L 187.768136 219.981424 
L 187.871955 215.128976 
L 188.136316 215.128976 
L 188.147251 213.364449 
L 188.252628 213.364449 
L 188.310515 212.482185 
L 188.364623 212.482185 
L 188.397013 211.599922 
L 188.50458 211.599922 
L 188.518876 208.070868 
L 188.647052 208.070868 
L 188.71435 206.306341 
L 188.841205 206.306341 
L 188.932294 203.659551 
L 189.019466 203.659551 
L 189.019466 203.21842 
L 189.271718 203.21842 
L 189.32998 201.012761 
L 189.473151 201.012761 
L 189.54433 198.365971 
L 189.813047 198.365971 
L 189.829715 197.483707 
L 189.939355 197.483707 
L 190.04836 194.395785 
L 190.081267 194.395785 
L 190.179646 192.190127 
L 190.267749 192.190127 
L 190.365159 188.661073 
L 190.500692 188.661073 
L 190.590508 187.337678 
L 190.679897 187.337678 
L 190.743487 184.690888 
L 190.822674 184.690888 
L 190.854255 181.602966 
L 191.020758 181.602966 
L 191.055131 180.279571 
L 191.170292 180.279571 
L 191.275497 178.073912 
L 191.380117 178.073912 
L 191.468894 175.427122 
L 191.493311 175.427122 
L 191.569409 172.780332 
L 191.642175 172.780332 
L 191.699583 169.69241 
L 191.76283 169.69241 
L 191.840843 167.04562 
L 191.978078 167.04562 
L 192.067043 164.398829 
L 192.102511 164.398829 
L 192.155589 161.310907 
L 192.234925 161.310907 
L 192.325605 157.781854 
L 192.433266 157.781854 
L 192.540314 156.458459 
L 192.643888 156.458459 
L 192.712622 154.693932 
L 192.792495 154.693932 
L 192.792495 154.2528 
L 192.908844 154.2528 
L 193.004786 150.723746 
L 193.07502 150.723746 
L 193.184065 148.076956 
L 193.18964 148.076956 
L 193.267517 144.547902 
L 193.367174 144.547902 
L 193.447071 143.224507 
L 193.504716 143.224507 
L 193.581303 141.018849 
L 193.698314 141.018849 
L 193.803815 139.254322 
L 193.844235 139.254322 
L 193.932855 137.048663 
L 194.018392 137.048663 
L 194.063677 135.284137 
L 194.130073 135.284137 
L 194.20152 133.51961 
L 194.319998 133.51961 
L 194.36718 130.87282 
L 194.466402 130.87282 
L 194.523608 128.667161 
L 194.585816 128.667161 
L 194.686468 126.461502 
L 194.732742 126.461502 
L 194.778902 121.609054 
L 194.888717 121.609054 
L 194.982699 120.72679 
L 195.013079 120.72679 
L 195.101408 118.962263 
L 195.196841 118.962263 
L 195.284313 116.315473 
L 195.324166 116.315473 
L 195.408573 113.668683 
L 195.48767 113.668683 
L 195.509857 111.463024 
L 195.622847 111.463024 
L 195.639981 110.580761 
L 195.788642 110.580761 
L 195.89032 107.492839 
L 195.945768 107.492839 
L 196.029834 104.846049 
L 196.084874 104.846049 
L 196.084874 104.404917 
L 196.256138 104.404917 
L 196.343546 101.758127 
L 196.451652 101.758127 
L 196.535825 99.552468 
L 196.605683 99.552468 
L 196.712297 97.787941 
L 196.767683 97.787941 
L 196.859632 95.582283 
L 196.880259 95.582283 
L 196.880259 94.258888 
L 197.00127 94.258888 
L 197.00127 93.817756 
L 197.216249 93.817756 
L 197.321705 91.170966 
L 197.341832 91.170966 
L 197.451033 88.965307 
L 197.550765 88.965307 
L 197.59933 87.641912 
L 197.687312 87.641912 
L 197.687312 86.759649 
L 197.842473 86.759649 
L 197.935826 84.55399 
L 198.01147 84.55399 
L 198.045949 82.348332 
L 198.31104 82.348332 
L 198.359802 79.26041 
L 198.633063 79.26041 
L 198.693483 77.937015 
L 198.834402 77.937015 
L 198.844722 77.054751 
L 198.964024 77.054751 
L 198.964024 76.61362 
L 199.303364 76.61362 
L 199.40779 74.849093 
L 199.612936 74.849093 
L 199.618878 73.525698 
L 210.767587 73.525698 
L 210.767587 73.084566 
L 211.195141 73.084566 
L 211.195141 72.643434 
L 211.457641 72.643434 
L 211.463973 71.761171 
L 211.721734 71.761171 
L 211.721734 71.320039 
L 212.625845 71.320039 
L 212.625845 70.878907 
L 214.518911 70.878907 
L 214.518911 70.437776 
L 222.899819 70.437776 
L 222.899819 69.996644 
L 232.64056 69.996644 
L 232.64056 69.555512 
L 234.71755 69.555512 
L 234.71755 67.790985 
L 235.959519 67.790985 
L 235.959519 67.349854 
L 242.395634 67.349854 
L 242.395634 66.908722 
L 242.65749 66.908722 
L 242.753305 65.585327 
L 242.802226 65.585327 
L 242.802226 65.144195 
L 243.004542 65.144195 
L 243.004542 64.703063 
L 243.612894 64.703063 
L 243.612894 63.8208 
L 251.647475 63.8208 
L 251.647475 63.379668 
L 253.802907 63.379668 
L 253.802907 62.497405 
L 254.064221 62.497405 
L 254.064221 62.056273 
L 261.842766 62.056273 
L 261.853924 61.17401 
L 263.466668 61.17401 
L 263.466668 60.732878 
L 267.152154 60.732878 
L 267.199424 59.409483 
L 267.395634 59.409483 
L 267.395634 58.968351 
L 277.426836 58.968351 
L 277.512356 55.439298 
L 279.682454 55.439298 
L 279.682454 54.998166 
L 284.049986 54.998166 
L 284.049986 54.557034 
L 288.954803 54.557034 
L 289.026918 52.792507 
L 292.79612 52.792507 
L 292.848829 51.02798 
L 298.787598 51.02798 
L 298.831962 50.145717 
L 299.346434 50.145717 
L 299.346434 49.704585 
L 301.177868 49.704585 
L 301.177868 49.263454 
L 303.301145 49.263454 
L 303.301145 48.822322 
L 308.526683 48.822322 
L 308.526683 48.38119 
L 309.972279 48.38119 
L 309.972279 47.940059 
L 312.57999 47.940059 
L 312.62161 46.616663 
L 314.894495 46.616663 
L 314.897147 45.7344 
L 316.95251 45.7344 
L 316.95251 45.293268 
L 322.744717 45.293268 
L 322.744717 44.852137 
L 322.912444 44.852137 
L 322.912444 44.411005 
L 325.409671 44.411005 
L 325.409671 43.969873 
L 326.02087 43.969873 
L 326.02087 43.528741 
L 327.167217 43.528741 
L 327.167217 43.08761 
L 327.728325 43.08761 
L 327.728325 42.646478 
L 328.259444 42.646478 
L 328.259444 42.205346 
L 332.102296 42.205346 
L 332.102296 41.764215 
L 333.765833 41.764215 
L 333.765833 41.323083 
L 334.156629 41.323083 
L 334.156629 40.881951 
L 360.8064 40.881951 
L 360.8064 40.881951 
" style="fill:none;stroke:#6495ed;stroke-linecap:square;stroke-width:1.5;"/>
   </g>
   <g id="line2d_46">
    <defs>
     <path d="M -0 6 
L 6 -6 
L -6 -6 
z
" id="m39fee79fb5" style="stroke:#6495ed;stroke-linejoin:miter;stroke-width:1.5;"/>
    </defs>
    <g>
     <use style="fill-opacity:0;stroke:#6495ed;stroke-linejoin:miter;stroke-width:1.5;" x="197.321705" xlink:href="#m39fee79fb5" y="91.170966"/>
     <use style="fill-opacity:0;stroke:#6495ed;stroke-linejoin:miter;stroke-width:1.5;" x="316.95251" xlink:href="#m39fee79fb5" y="45.7344"/>
     <use style="fill-opacity:0;stroke:#6495ed;stroke-linejoin:miter;stroke-width:1.5;" x="334.156629" xlink:href="#m39fee79fb5" y="40.881951"/>
     <use style="fill-opacity:0;stroke:#6495ed;stroke-linejoin:miter;stroke-width:1.5;" x="360.8064" xlink:href="#m39fee79fb5" y="40.881951"/>
    </g>
   </g>
   <g id="line2d_47">
    <path style="fill:none;stroke:#6495ed;stroke-linecap:square;stroke-width:1.5;"/>
    <g/>
   </g>
   <g id="line2d_48">
    <path clip-path="url(#p194c01b18e)" d="M 261.189499 62.056273 
" style="fill:none;stroke:#6495ed;stroke-linecap:square;stroke-width:1.5;"/>
    <defs>
     <path d="M -12 12 
L 12 -12 
M -12 -12 
L 12 12 
" id="m649f97297b" style="stroke:#6495ed;"/>
    </defs>
    <g clip-path="url(#p194c01b18e)">
     <use style="fill:#6495ed;stroke:#6495ed;" x="261.189499" xlink:href="#m649f97297b" y="62.056273"/>
    </g>
   </g>
   <g id="line2d_49">
    <path clip-path="url(#p194c01b18e)" d="M 57.6 298.944 
L 57.6 298.944 
L 57.6 298.944 
L 57.6 298.944 
L 360.8064 298.944 
" style="fill:none;stroke:#ff0000;stroke-linecap:square;stroke-width:1.5;"/>
   </g>
   <g id="line2d_50">
    <defs>
     <path d="M 0 -6 
L -5.196152 -3 
L -5.196152 3 
L -0 6 
L 5.196152 3 
L 5.196152 -3 
z
" id="mbeb1a0a3d7" style="stroke:#ff0000;stroke-linejoin:miter;stroke-width:1.5;"/>
    </defs>
    <g clip-path="url(#p194c01b18e)">
     <use style="fill-opacity:0;stroke:#ff0000;stroke-linejoin:miter;stroke-width:1.5;" x="57.6" xlink:href="#mbeb1a0a3d7" y="298.944"/>
    </g>
   </g>
   <g id="line2d_51">
    <path clip-path="url(#p194c01b18e)" style="fill:none;stroke:#ff0000;stroke-linecap:square;stroke-width:1.5;"/>
    <g clip-path="url(#p194c01b18e)">
     <use style="fill-opacity:0;stroke:#ff0000;stroke-linejoin:miter;stroke-width:1.5;" x="-1" xlink:href="#mbeb1a0a3d7" y="570.24"/>
     <use style="fill-opacity:0;stroke:#ff0000;stroke-linejoin:miter;stroke-width:1.5;" x="360.8064" xlink:href="#mbeb1a0a3d7" y="570.24"/>
    </g>
   </g>
   <g id="line2d_52">
    <path clip-path="url(#p194c01b18e)" d="M 287.215174 298.944 
" style="fill:none;stroke:#ff0000;stroke-linecap:square;stroke-width:1.5;"/>
    <defs>
     <path d="M -12 12 
L 12 -12 
M -12 -12 
L 12 12 
" id="m3a231591dd" style="stroke:#ff0000;"/>
    </defs>
    <g clip-path="url(#p194c01b18e)">
     <use style="fill:#ff0000;stroke:#ff0000;" x="287.215174" xlink:href="#m3a231591dd" y="298.944"/>
    </g>
   </g>
   <g id="line2d_53">
    <defs>
     <path d="M 0 1.5 
C 0.397805 1.5 0.77937 1.341951 1.06066 1.06066 
C 1.341951 0.77937 1.5 0.397805 1.5 0 
C 1.5 -0.397805 1.341951 -0.77937 1.06066 -1.06066 
C 0.77937 -1.341951 0.397805 -1.5 0 -1.5 
C -0.397805 -1.5 -0.77937 -1.341951 -1.06066 -1.06066 
C -1.341951 -0.77937 -1.5 -0.397805 -1.5 0 
C -1.5 0.397805 -1.341951 0.77937 -1.06066 1.06066 
C -0.77937 1.341951 -0.397805 1.5 0 1.5 
z
" id="m6c9cc64b34" style="stroke:#9acd32;"/>
    </defs>
    <g>
     <use style="fill:#9acd32;stroke:#9acd32;" x="114.510421" xlink:href="#m6c9cc64b34" y="27.648"/>
     <use style="fill:#9acd32;stroke:#9acd32;" x="114.510421" xlink:href="#m6c9cc64b34" y="27.648"/>
    </g>
   </g>
   <g id="line2d_54">
    <path d="M 75.574654 298.944 
L 75.574654 280.8576 
L 76.96874 280.8576 
L 76.96874 255.713093 
L 78.266603 255.713093 
L 78.266603 233.215376 
L 79.480672 233.215376 
L 79.480672 215.128976 
L 80.621116 215.128976 
L 80.621116 196.160312 
L 81.696354 196.160312 
L 81.696354 193.513522 
L 82.713442 193.513522 
L 82.713442 175.427122 
L 85.471281 175.427122 
L 85.471281 171.015805 
L 87.1081 171.015805 
L 87.1081 153.811668 
L 87.876026 153.811668 
L 87.876026 120.285659 
L 89.323782 120.285659 
L 89.323782 105.28718 
L 94.205591 105.28718 
L 94.205591 90.729834 
L 97.18203 90.729834 
L 97.18203 86.759649 
L 99.346662 86.759649 
L 99.346662 73.084566 
L 99.751228 73.084566 
L 99.751228 58.968351 
L 103.380045 58.968351 
L 103.380045 54.557034 
L 104.655893 54.557034 
L 104.655893 43.969873 
L 106.42077 43.969873 
L 106.42077 41.764215 
L 109.280431 41.764215 
L 109.280431 30.29479 
L 114.510421 30.29479 
L 114.510421 27.648 
L 360.8064 27.648 
" style="fill:none;stroke:#9acd32;stroke-linecap:square;stroke-width:1.5;"/>
   </g>
   <g id="line2d_55">
    <defs>
     <path d="M 0 -6 
L -6 6 
L 6 6 
z
" id="m0e4cb21602" style="stroke:#9acd32;stroke-linejoin:miter;stroke-width:1.5;"/>
    </defs>
    <g>
     <use style="fill-opacity:0;stroke:#9acd32;stroke-linejoin:miter;stroke-width:1.5;" x="81.696354" xlink:href="#m0e4cb21602" y="193.513522"/>
     <use style="fill-opacity:0;stroke:#9acd32;stroke-linejoin:miter;stroke-width:1.5;" x="114.510421" xlink:href="#m0e4cb21602" y="30.29479"/>
     <use style="fill-opacity:0;stroke:#9acd32;stroke-linejoin:miter;stroke-width:1.5;" x="114.510421" xlink:href="#m0e4cb21602" y="27.648"/>
     <use style="fill-opacity:0;stroke:#9acd32;stroke-linejoin:miter;stroke-width:1.5;" x="114.510421" xlink:href="#m0e4cb21602" y="27.648"/>
     <use style="fill-opacity:0;stroke:#9acd32;stroke-linejoin:miter;stroke-width:1.5;" x="360.8064" xlink:href="#m0e4cb21602" y="27.648"/>
    </g>
   </g>
   <g id="line2d_56">
    <path style="fill:none;stroke:#9acd32;stroke-linecap:square;stroke-width:1.5;"/>
    <g/>
   </g>
   <g id="line2d_57">
    <path d="M 360.8064 298.944 
L 380.514816 293.51808 
" style="fill:none;stroke:#ff0000;stroke-linecap:square;stroke-width:1.5;"/>
    <g>
     <use style="fill-opacity:0;stroke:#ff0000;stroke-linejoin:miter;stroke-width:1.5;" x="360.8064" xlink:href="#mbeb1a0a3d7" y="298.944"/>
     <use style="fill-opacity:0;stroke:#ff0000;stroke-linejoin:miter;stroke-width:1.5;" x="380.514816" xlink:href="#mbeb1a0a3d7" y="293.51808"/>
    </g>
   </g>
   <g id="line2d_58">
    <path d="M 360.8064 54.115902 
L 380.514816 241.429248 
" style="fill:none;stroke:#ff7500;stroke-linecap:square;stroke-width:1.5;"/>
    <g>
     <use style="fill-opacity:0;stroke:#ff7500;stroke-linejoin:bevel;stroke-width:1.5;" x="360.8064" xlink:href="#m60045609fb" y="54.115902"/>
     <use style="fill-opacity:0;stroke:#ff7500;stroke-linejoin:bevel;stroke-width:1.5;" x="380.514816" xlink:href="#m60045609fb" y="241.429248"/>
    </g>
   </g>
   <g id="line2d_59">
    <path d="M 360.8064 40.881951 
L 380.514816 189.340416 
" style="fill:none;stroke:#000080;stroke-linecap:square;stroke-width:1.5;"/>
    <g>
     <use style="fill-opacity:0;stroke:#000080;stroke-width:1.5;" x="360.8064" xlink:href="#m160ff4ea57" y="40.881951"/>
     <use style="fill-opacity:0;stroke:#000080;stroke-width:1.5;" x="380.514816" xlink:href="#m160ff4ea57" y="189.340416"/>
    </g>
   </g>
   <g id="line2d_60">
    <path d="M 360.8064 40.881951 
L 380.514816 137.251584 
" style="fill:none;stroke:#6495ed;stroke-linecap:square;stroke-width:1.5;"/>
    <g>
     <use style="fill-opacity:0;stroke:#6495ed;stroke-linejoin:miter;stroke-width:1.5;" x="360.8064" xlink:href="#m39fee79fb5" y="40.881951"/>
     <use style="fill-opacity:0;stroke:#6495ed;stroke-linejoin:miter;stroke-width:1.5;" x="380.514816" xlink:href="#m39fee79fb5" y="137.251584"/>
    </g>
   </g>
   <g id="line2d_61">
    <path d="M 360.8064 27.648 
L 380.514816 85.162752 
" style="fill:none;stroke:#ff00ff;stroke-linecap:square;stroke-width:1.5;"/>
    <g>
     <use style="fill-opacity:0;stroke:#ff00ff;stroke-linejoin:miter;stroke-width:1.5;" x="360.8064" xlink:href="#m4e863adc9f" y="27.648"/>
     <use style="fill-opacity:0;stroke:#ff00ff;stroke-linejoin:miter;stroke-width:1.5;" x="380.514816" xlink:href="#m4e863adc9f" y="85.162752"/>
    </g>
   </g>
   <g id="line2d_62">
    <path d="M 360.8064 27.648 
L 380.514816 33.07392 
" style="fill:none;stroke:#9acd32;stroke-linecap:square;stroke-width:1.5;"/>
    <g>
     <use style="fill-opacity:0;stroke:#9acd32;stroke-linejoin:miter;stroke-width:1.5;" x="360.8064" xlink:href="#m0e4cb21602" y="27.648"/>
     <use style="fill-opacity:0;stroke:#9acd32;stroke-linejoin:miter;stroke-width:1.5;" x="380.514816" xlink:href="#m0e4cb21602" y="33.07392"/>
    </g>
   </g>
   <g id="line2d_63">
    <path d="M 360.8064 298.944 
L 360.8064 27.648 
" style="fill:none;stroke:#000000;stroke-linecap:square;stroke-width:1.5;"/>
   </g>
   <g id="patch_3">
    <path d="M 57.6 298.944 
L 360.8064 298.944 
" style="fill:none;stroke:#000000;stroke-linecap:square;stroke-linejoin:miter;stroke-width:0.8;"/>
   </g>
   <g id="patch_4">
    <path d="M 57.6 27.648 
L 360.8064 27.648 
" style="fill:none;stroke:#000000;stroke-linecap:square;stroke-linejoin:miter;stroke-width:0.8;"/>
   </g>
   <g id="text_13">
    <!-- rs -->
    <g transform="translate(386.578944 297.381205)scale(0.14 -0.14)">
     <use xlink:href="#DejaVuSans-114"/>
     <use x="41.113281" xlink:href="#DejaVuSans-115"/>
    </g>
   </g>
   <g id="text_14">
    <!-- al3 -->
    <g transform="translate(386.578944 245.292373)scale(0.14 -0.14)">
     <defs>
      <path d="M 40.578125 39.3125 
Q 47.65625 37.796875 51.625 33 
Q 55.609375 28.21875 55.609375 21.1875 
Q 55.609375 10.40625 48.1875 4.484375 
Q 40.765625 -1.421875 27.09375 -1.421875 
Q 22.515625 -1.421875 17.65625 -0.515625 
Q 12.796875 0.390625 7.625 2.203125 
L 7.625 11.71875 
Q 11.71875 9.328125 16.59375 8.109375 
Q 21.484375 6.890625 26.8125 6.890625 
Q 36.078125 6.890625 40.9375 10.546875 
Q 45.796875 14.203125 45.796875 21.1875 
Q 45.796875 27.640625 41.28125 31.265625 
Q 36.765625 34.90625 28.71875 34.90625 
L 20.21875 34.90625 
L 20.21875 43.015625 
L 29.109375 43.015625 
Q 36.375 43.015625 40.234375 45.921875 
Q 44.09375 48.828125 44.09375 54.296875 
Q 44.09375 59.90625 40.109375 62.90625 
Q 36.140625 65.921875 28.71875 65.921875 
Q 24.65625 65.921875 20.015625 65.03125 
Q 15.375 64.15625 9.8125 62.3125 
L 9.8125 71.09375 
Q 15.4375 72.65625 20.34375 73.4375 
Q 25.25 74.21875 29.59375 74.21875 
Q 40.828125 74.21875 47.359375 69.109375 
Q 53.90625 64.015625 53.90625 55.328125 
Q 53.90625 49.265625 50.4375 45.09375 
Q 46.96875 40.921875 40.578125 39.3125 
z
" id="DejaVuSans-51"/>
     </defs>
     <use xlink:href="#DejaVuSans-97"/>
     <use x="61.279297" xlink:href="#DejaVuSans-108"/>
     <use x="89.0625" xlink:href="#DejaVuSans-51"/>
    </g>
   </g>
   <g id="text_15">
    <!-- al1 -->
    <g transform="translate(386.578944 193.203541)scale(0.14 -0.14)">
     <use xlink:href="#DejaVuSans-97"/>
     <use x="61.279297" xlink:href="#DejaVuSans-108"/>
     <use x="89.0625" xlink:href="#DejaVuSans-49"/>
    </g>
   </g>
   <g id="text_16">
    <!-- al4 -->
    <g transform="translate(386.578944 141.114709)scale(0.14 -0.14)">
     <use xlink:href="#DejaVuSans-97"/>
     <use x="61.279297" xlink:href="#DejaVuSans-108"/>
     <use x="89.0625" xlink:href="#DejaVuSans-52"/>
    </g>
   </g>
   <g id="text_17">
    <!-- al2 -->
    <g transform="translate(386.578944 89.025877)scale(0.14 -0.14)">
     <use xlink:href="#DejaVuSans-97"/>
     <use x="61.279297" xlink:href="#DejaVuSans-108"/>
     <use x="89.0625" xlink:href="#DejaVuSans-50"/>
    </g>
   </g>
   <g id="text_18">
    <!-- cobyla -->
    <g transform="translate(386.578944 36.937045)scale(0.14 -0.14)">
     <defs>
      <path d="M 48.6875 27.296875 
Q 48.6875 37.203125 44.609375 42.84375 
Q 40.53125 48.484375 33.40625 48.484375 
Q 26.265625 48.484375 22.1875 42.84375 
Q 18.109375 37.203125 18.109375 27.296875 
Q 18.109375 17.390625 22.1875 11.75 
Q 26.265625 6.109375 33.40625 6.109375 
Q 40.53125 6.109375 44.609375 11.75 
Q 48.6875 17.390625 48.6875 27.296875 
z
M 18.109375 46.390625 
Q 20.953125 51.265625 25.265625 53.625 
Q 29.59375 56 35.59375 56 
Q 45.5625 56 51.78125 48.09375 
Q 58.015625 40.1875 58.015625 27.296875 
Q 58.015625 14.40625 51.78125 6.484375 
Q 45.5625 -1.421875 35.59375 -1.421875 
Q 29.59375 -1.421875 25.265625 0.953125 
Q 20.953125 3.328125 18.109375 8.203125 
L 18.109375 0 
L 9.078125 0 
L 9.078125 75.984375 
L 18.109375 75.984375 
z
" id="DejaVuSans-98"/>
      <path d="M 32.171875 -5.078125 
Q 28.375 -14.84375 24.75 -17.8125 
Q 21.140625 -20.796875 15.09375 -20.796875 
L 7.90625 -20.796875 
L 7.90625 -13.28125 
L 13.1875 -13.28125 
Q 16.890625 -13.28125 18.9375 -11.515625 
Q 21 -9.765625 23.484375 -3.21875 
L 25.09375 0.875 
L 2.984375 54.6875 
L 12.5 54.6875 
L 29.59375 11.921875 
L 46.6875 54.6875 
L 56.203125 54.6875 
z
" id="DejaVuSans-121"/>
     </defs>
     <use xlink:href="#DejaVuSans-99"/>
     <use x="54.980469" xlink:href="#DejaVuSans-111"/>
     <use x="116.162109" xlink:href="#DejaVuSans-98"/>
     <use x="179.638672" xlink:href="#DejaVuSans-121"/>
     <use x="238.818359" xlink:href="#DejaVuSans-108"/>
     <use x="266.601562" xlink:href="#DejaVuSans-97"/>
    </g>
   </g>
   <g id="text_19">
    <!-- bbob-constrained f18, 10-D -->
    <g transform="translate(60.632064 38.111366)scale(0.102 -0.102)">
     <defs>
      <path d="M 4.890625 31.390625 
L 31.203125 31.390625 
L 31.203125 23.390625 
L 4.890625 23.390625 
z
" id="DejaVuSans-45"/>
      <path d="M 19.671875 64.796875 
L 19.671875 8.109375 
L 31.59375 8.109375 
Q 46.6875 8.109375 53.6875 14.9375 
Q 60.6875 21.78125 60.6875 36.53125 
Q 60.6875 51.171875 53.6875 57.984375 
Q 46.6875 64.796875 31.59375 64.796875 
z
M 9.8125 72.90625 
L 30.078125 72.90625 
Q 51.265625 72.90625 61.171875 64.09375 
Q 71.09375 55.28125 71.09375 36.53125 
Q 71.09375 17.671875 61.125 8.828125 
Q 51.171875 0 30.078125 0 
L 9.8125 0 
z
" id="DejaVuSans-68"/>
     </defs>
     <use xlink:href="#DejaVuSans-98"/>
     <use x="63.476562" xlink:href="#DejaVuSans-98"/>
     <use x="126.953125" xlink:href="#DejaVuSans-111"/>
     <use x="188.134766" xlink:href="#DejaVuSans-98"/>
     <use x="251.611328" xlink:href="#DejaVuSans-45"/>
     <use x="287.695312" xlink:href="#DejaVuSans-99"/>
     <use x="342.675781" xlink:href="#DejaVuSans-111"/>
     <use x="403.857422" xlink:href="#DejaVuSans-110"/>
     <use x="467.236328" xlink:href="#DejaVuSans-115"/>
     <use x="519.335938" xlink:href="#DejaVuSans-116"/>
     <use x="558.544922" xlink:href="#DejaVuSans-114"/>
     <use x="599.658203" xlink:href="#DejaVuSans-97"/>
     <use x="660.9375" xlink:href="#DejaVuSans-105"/>
     <use x="688.720703" xlink:href="#DejaVuSans-110"/>
     <use x="752.099609" xlink:href="#DejaVuSans-101"/>
     <use x="813.623047" xlink:href="#DejaVuSans-100"/>
     <use x="877.099609" xlink:href="#DejaVuSans-32"/>
     <use x="908.886719" xlink:href="#DejaVuSans-102"/>
     <use x="944.091797" xlink:href="#DejaVuSans-49"/>
     <use x="1007.714844" xlink:href="#DejaVuSans-56"/>
     <use x="1071.337891" xlink:href="#DejaVuSans-44"/>
     <use x="1103.125" xlink:href="#DejaVuSans-32"/>
     <use x="1134.912109" xlink:href="#DejaVuSans-49"/>
     <use x="1198.535156" xlink:href="#DejaVuSans-48"/>
     <use x="1262.158203" xlink:href="#DejaVuSans-45"/>
     <use x="1298.242188" xlink:href="#DejaVuSans-68"/>
    </g>
    <!-- 41 targets: 100..1e-06 -->
    <g transform="translate(60.632064 49.533135)scale(0.102 -0.102)">
     <defs>
      <path d="M 11.71875 12.40625 
L 22.015625 12.40625 
L 22.015625 0 
L 11.71875 0 
z
M 11.71875 51.703125 
L 22.015625 51.703125 
L 22.015625 39.3125 
L 11.71875 39.3125 
z
" id="DejaVuSans-58"/>
     </defs>
     <use xlink:href="#DejaVuSans-52"/>
     <use x="63.623047" xlink:href="#DejaVuSans-49"/>
     <use x="127.246094" xlink:href="#DejaVuSans-32"/>
     <use x="159.033203" xlink:href="#DejaVuSans-116"/>
     <use x="198.242188" xlink:href="#DejaVuSans-97"/>
     <use x="259.521484" xlink:href="#DejaVuSans-114"/>
     <use x="298.884766" xlink:href="#DejaVuSans-103"/>
     <use x="362.361328" xlink:href="#DejaVuSans-101"/>
     <use x="423.884766" xlink:href="#DejaVuSans-116"/>
     <use x="463.09375" xlink:href="#DejaVuSans-115"/>
     <use x="515.193359" xlink:href="#DejaVuSans-58"/>
     <use x="548.884766" xlink:href="#DejaVuSans-32"/>
     <use x="580.671875" xlink:href="#DejaVuSans-49"/>
     <use x="644.294922" xlink:href="#DejaVuSans-48"/>
     <use x="707.917969" xlink:href="#DejaVuSans-48"/>
     <use x="771.541016" xlink:href="#DejaVuSans-46"/>
     <use x="803.328125" xlink:href="#DejaVuSans-46"/>
     <use x="835.115234" xlink:href="#DejaVuSans-49"/>
     <use x="898.738281" xlink:href="#DejaVuSans-101"/>
     <use x="960.261719" xlink:href="#DejaVuSans-45"/>
     <use x="996.345703" xlink:href="#DejaVuSans-48"/>
     <use x="1059.96875" xlink:href="#DejaVuSans-54"/>
    </g>
    <!-- evals = f-evals + g-evals -->
    <g transform="translate(60.632064 60.954904)scale(0.102 -0.102)">
     <defs>
      <path d="M 10.59375 45.40625 
L 73.1875 45.40625 
L 73.1875 37.203125 
L 10.59375 37.203125 
z
M 10.59375 25.484375 
L 73.1875 25.484375 
L 73.1875 17.1875 
L 10.59375 17.1875 
z
" id="DejaVuSans-61"/>
      <path d="M 46 62.703125 
L 46 35.5 
L 73.1875 35.5 
L 73.1875 27.203125 
L 46 27.203125 
L 46 0 
L 37.796875 0 
L 37.796875 27.203125 
L 10.59375 27.203125 
L 10.59375 35.5 
L 37.796875 35.5 
L 37.796875 62.703125 
z
" id="DejaVuSans-43"/>
     </defs>
     <use xlink:href="#DejaVuSans-101"/>
     <use x="61.523438" xlink:href="#DejaVuSans-118"/>
     <use x="120.703125" xlink:href="#DejaVuSans-97"/>
     <use x="181.982422" xlink:href="#DejaVuSans-108"/>
     <use x="209.765625" xlink:href="#DejaVuSans-115"/>
     <use x="261.865234" xlink:href="#DejaVuSans-32"/>
     <use x="293.652344" xlink:href="#DejaVuSans-61"/>
     <use x="377.441406" xlink:href="#DejaVuSans-32"/>
     <use x="409.228516" xlink:href="#DejaVuSans-102"/>
     <use x="438.933594" xlink:href="#DejaVuSans-45"/>
     <use x="475.017578" xlink:href="#DejaVuSans-101"/>
     <use x="536.541016" xlink:href="#DejaVuSans-118"/>
     <use x="595.720703" xlink:href="#DejaVuSans-97"/>
     <use x="657" xlink:href="#DejaVuSans-108"/>
     <use x="684.783203" xlink:href="#DejaVuSans-115"/>
     <use x="736.882812" xlink:href="#DejaVuSans-32"/>
     <use x="768.669922" xlink:href="#DejaVuSans-43"/>
     <use x="852.458984" xlink:href="#DejaVuSans-32"/>
     <use x="884.246094" xlink:href="#DejaVuSans-103"/>
     <use x="947.722656" xlink:href="#DejaVuSans-45"/>
     <use x="983.806641" xlink:href="#DejaVuSans-101"/>
     <use x="1045.330078" xlink:href="#DejaVuSans-118"/>
     <use x="1104.509766" xlink:href="#DejaVuSans-97"/>
     <use x="1165.789062" xlink:href="#DejaVuSans-108"/>
     <use x="1193.572266" xlink:href="#DejaVuSans-115"/>
    </g>
    <!-- 15 instances -->
    <g transform="translate(60.632064 72.376672)scale(0.102 -0.102)">
     <defs>
      <path d="M 10.796875 72.90625 
L 49.515625 72.90625 
L 49.515625 64.59375 
L 19.828125 64.59375 
L 19.828125 46.734375 
Q 21.96875 47.46875 24.109375 47.828125 
Q 26.265625 48.1875 28.421875 48.1875 
Q 40.625 48.1875 47.75 41.5 
Q 54.890625 34.8125 54.890625 23.390625 
Q 54.890625 11.625 47.5625 5.09375 
Q 40.234375 -1.421875 26.90625 -1.421875 
Q 22.3125 -1.421875 17.546875 -0.640625 
Q 12.796875 0.140625 7.71875 1.703125 
L 7.71875 11.625 
Q 12.109375 9.234375 16.796875 8.0625 
Q 21.484375 6.890625 26.703125 6.890625 
Q 35.15625 6.890625 40.078125 11.328125 
Q 45.015625 15.765625 45.015625 23.390625 
Q 45.015625 31 40.078125 35.4375 
Q 35.15625 39.890625 26.703125 39.890625 
Q 22.75 39.890625 18.8125 39.015625 
Q 14.890625 38.140625 10.796875 36.28125 
z
" id="DejaVuSans-53"/>
     </defs>
     <use xlink:href="#DejaVuSans-49"/>
     <use x="63.623047" xlink:href="#DejaVuSans-53"/>
     <use x="127.246094" xlink:href="#DejaVuSans-32"/>
     <use x="159.033203" xlink:href="#DejaVuSans-105"/>
     <use x="186.816406" xlink:href="#DejaVuSans-110"/>
     <use x="250.195312" xlink:href="#DejaVuSans-115"/>
     <use x="302.294922" xlink:href="#DejaVuSans-116"/>
     <use x="341.503906" xlink:href="#DejaVuSans-97"/>
     <use x="402.783203" xlink:href="#DejaVuSans-110"/>
     <use x="466.162109" xlink:href="#DejaVuSans-99"/>
     <use x="521.142578" xlink:href="#DejaVuSans-101"/>
     <use x="582.666016" xlink:href="#DejaVuSans-115"/>
    </g>
   </g>
   <g id="text_20">
    <!-- v2.6.1.8 -->
    <g style="fill:#808080;" transform="translate(188.751637 294.151352)scale(0.1 -0.1)">
     <use xlink:href="#DejaVuSans-118"/>
     <use x="59.179688" xlink:href="#DejaVuSans-50"/>
     <use x="122.802734" xlink:href="#DejaVuSans-46"/>
     <use x="154.589844" xlink:href="#DejaVuSans-54"/>
     <use x="218.212891" xlink:href="#DejaVuSans-46"/>
     <use x="250" xlink:href="#DejaVuSans-49"/>
     <use x="313.623047" xlink:href="#DejaVuSans-46"/>
     <use x="345.410156" xlink:href="#DejaVuSans-56"/>
    </g>
   </g>
   <g id="text_21">
    <!-- 18 Linear Slope, m=9+int(9n/2) -->
    <g transform="translate(48.806325 21.648)scale(0.2 -0.2)">
     <defs>
      <path d="M 9.8125 72.90625 
L 19.671875 72.90625 
L 19.671875 8.296875 
L 55.171875 8.296875 
L 55.171875 0 
L 9.8125 0 
z
" id="DejaVuSans-76"/>
      <path d="M 53.515625 70.515625 
L 53.515625 60.890625 
Q 47.90625 63.578125 42.921875 64.890625 
Q 37.9375 66.21875 33.296875 66.21875 
Q 25.25 66.21875 20.875 63.09375 
Q 16.5 59.96875 16.5 54.203125 
Q 16.5 49.359375 19.40625 46.890625 
Q 22.3125 44.4375 30.421875 42.921875 
L 36.375 41.703125 
Q 47.40625 39.59375 52.65625 34.296875 
Q 57.90625 29 57.90625 20.125 
Q 57.90625 9.515625 50.796875 4.046875 
Q 43.703125 -1.421875 29.984375 -1.421875 
Q 24.8125 -1.421875 18.96875 -0.25 
Q 13.140625 0.921875 6.890625 3.21875 
L 6.890625 13.375 
Q 12.890625 10.015625 18.65625 8.296875 
Q 24.421875 6.59375 29.984375 6.59375 
Q 38.421875 6.59375 43.015625 9.90625 
Q 47.609375 13.234375 47.609375 19.390625 
Q 47.609375 24.75 44.3125 27.78125 
Q 41.015625 30.8125 33.5 32.328125 
L 27.484375 33.5 
Q 16.453125 35.6875 11.515625 40.375 
Q 6.59375 45.0625 6.59375 53.421875 
Q 6.59375 63.09375 13.40625 68.65625 
Q 20.21875 74.21875 32.171875 74.21875 
Q 37.3125 74.21875 42.625 73.28125 
Q 47.953125 72.359375 53.515625 70.515625 
z
" id="DejaVuSans-83"/>
      <path d="M 10.984375 1.515625 
L 10.984375 10.5 
Q 14.703125 8.734375 18.5 7.8125 
Q 22.3125 6.890625 25.984375 6.890625 
Q 35.75 6.890625 40.890625 13.453125 
Q 46.046875 20.015625 46.78125 33.40625 
Q 43.953125 29.203125 39.59375 26.953125 
Q 35.25 24.703125 29.984375 24.703125 
Q 19.046875 24.703125 12.671875 31.3125 
Q 6.296875 37.9375 6.296875 49.421875 
Q 6.296875 60.640625 12.9375 67.421875 
Q 19.578125 74.21875 30.609375 74.21875 
Q 43.265625 74.21875 49.921875 64.515625 
Q 56.59375 54.828125 56.59375 36.375 
Q 56.59375 19.140625 48.40625 8.859375 
Q 40.234375 -1.421875 26.421875 -1.421875 
Q 22.703125 -1.421875 18.890625 -0.6875 
Q 15.09375 0.046875 10.984375 1.515625 
z
M 30.609375 32.421875 
Q 37.25 32.421875 41.125 36.953125 
Q 45.015625 41.5 45.015625 49.421875 
Q 45.015625 57.28125 41.125 61.84375 
Q 37.25 66.40625 30.609375 66.40625 
Q 23.96875 66.40625 20.09375 61.84375 
Q 16.21875 57.28125 16.21875 49.421875 
Q 16.21875 41.5 20.09375 36.953125 
Q 23.96875 32.421875 30.609375 32.421875 
z
" id="DejaVuSans-57"/>
     </defs>
     <use xlink:href="#DejaVuSans-49"/>
     <use x="63.623047" xlink:href="#DejaVuSans-56"/>
     <use x="127.246094" xlink:href="#DejaVuSans-32"/>
     <use x="159.033203" xlink:href="#DejaVuSans-76"/>
     <use x="214.746094" xlink:href="#DejaVuSans-105"/>
     <use x="242.529297" xlink:href="#DejaVuSans-110"/>
     <use x="305.908203" xlink:href="#DejaVuSans-101"/>
     <use x="367.431641" xlink:href="#DejaVuSans-97"/>
     <use x="428.710938" xlink:href="#DejaVuSans-114"/>
     <use x="469.824219" xlink:href="#DejaVuSans-32"/>
     <use x="501.611328" xlink:href="#DejaVuSans-83"/>
     <use x="565.087891" xlink:href="#DejaVuSans-108"/>
     <use x="592.871094" xlink:href="#DejaVuSans-111"/>
     <use x="654.052734" xlink:href="#DejaVuSans-112"/>
     <use x="717.529297" xlink:href="#DejaVuSans-101"/>
     <use x="779.052734" xlink:href="#DejaVuSans-44"/>
     <use x="810.839844" xlink:href="#DejaVuSans-32"/>
     <use x="842.626953" xlink:href="#DejaVuSans-109"/>
     <use x="940.039062" xlink:href="#DejaVuSans-61"/>
     <use x="1023.828125" xlink:href="#DejaVuSans-57"/>
     <use x="1087.451172" xlink:href="#DejaVuSans-43"/>
     <use x="1171.240234" xlink:href="#DejaVuSans-105"/>
     <use x="1199.023438" xlink:href="#DejaVuSans-110"/>
     <use x="1262.402344" xlink:href="#DejaVuSans-116"/>
     <use x="1301.611328" xlink:href="#DejaVuSans-40"/>
     <use x="1340.625" xlink:href="#DejaVuSans-57"/>
     <use x="1404.248047" xlink:href="#DejaVuSans-110"/>
     <use x="1467.626953" xlink:href="#DejaVuSans-47"/>
     <use x="1501.318359" xlink:href="#DejaVuSans-50"/>
     <use x="1564.941406" xlink:href="#DejaVuSans-41"/>
    </g>
   </g>
  </g>
 </g>
 <defs>
  <clipPath id="p194c01b18e">
   <rect height="271.296" width="303.2064" x="57.6" y="27.648"/>
  </clipPath>
 </defs>
</svg>
