<?xml version="1.0" encoding="utf-8" standalone="no"?>
<!DOCTYPE svg PUBLIC "-//W3C//DTD SVG 1.1//EN"
  "http://www.w3.org/Graphics/SVG/1.1/DTD/svg11.dtd">
<!-- Created with matplotlib (https://matplotlib.org/) -->
<svg height="345.6pt" version="1.1" viewBox="0 0 460.8 345.6" width="460.8pt" xmlns="http://www.w3.org/2000/svg" xmlns:xlink="http://www.w3.org/1999/xlink">
 <metadata>
  <rdf:RDF xmlns:cc="http://creativecommons.org/ns#" xmlns:dc="http://purl.org/dc/elements/1.1/" xmlns:rdf="http://www.w3.org/1999/02/22-rdf-syntax-ns#">
   <cc:Work>
    <dc:type rdf:resource="http://purl.org/dc/dcmitype/StillImage"/>
    <dc:date>2022-04-06T11:32:22.720844</dc:date>
    <dc:format>image/svg+xml</dc:format>
    <dc:creator>
     <cc:Agent>
      <dc:title>Matplotlib v3.3.3, https://matplotlib.org/</dc:title>
     </cc:Agent>
    </dc:creator>
   </cc:Work>
  </rdf:RDF>
 </metadata>
 <defs>
  <style type="text/css">*{stroke-linecap:butt;stroke-linejoin:round;}</style>
 </defs>
 <g id="figure_1">
  <g id="patch_1">
   <path d="M 0 345.6 
L 460.8 345.6 
L 460.8 0 
L 0 0 
z
" style="fill:#ffffff;"/>
  </g>
  <g id="axes_1">
   <g id="patch_2">
    <path d="M 57.6 298.944 
L 360.8064 298.944 
L 360.8064 27.648 
L 57.6 27.648 
z
" style="fill:#ffffff;"/>
   </g>
   <g id="matplotlib.axis_1">
    <g id="xtick_1">
     <g id="line2d_1">
      <path clip-path="url(#pb431c3168d)" d="M 57.6 298.944 
L 57.6 27.648 
" style="fill:none;stroke:#b0b0b0;stroke-linecap:square;stroke-width:0.8;"/>
     </g>
     <g id="line2d_2">
      <defs>
       <path d="M 0 0 
L 0 3.5 
" id="m8fc033c8bc" style="stroke:#000000;stroke-width:0.8;"/>
      </defs>
      <g>
       <use style="stroke:#000000;stroke-width:0.8;" x="57.6" xlink:href="#m8fc033c8bc" y="298.944"/>
      </g>
     </g>
     <g id="text_1">
      <!-- 0 -->
      <g transform="translate(52.191875 318.861344)scale(0.17 -0.17)">
       <defs>
        <path d="M 31.78125 66.40625 
Q 24.171875 66.40625 20.328125 58.90625 
Q 16.5 51.421875 16.5 36.375 
Q 16.5 21.390625 20.328125 13.890625 
Q 24.171875 6.390625 31.78125 6.390625 
Q 39.453125 6.390625 43.28125 13.890625 
Q 47.125 21.390625 47.125 36.375 
Q 47.125 51.421875 43.28125 58.90625 
Q 39.453125 66.40625 31.78125 66.40625 
z
M 31.78125 74.21875 
Q 44.046875 74.21875 50.515625 64.515625 
Q 56.984375 54.828125 56.984375 36.375 
Q 56.984375 17.96875 50.515625 8.265625 
Q 44.046875 -1.421875 31.78125 -1.421875 
Q 19.53125 -1.421875 13.0625 8.265625 
Q 6.59375 17.96875 6.59375 36.375 
Q 6.59375 54.828125 13.0625 64.515625 
Q 19.53125 74.21875 31.78125 74.21875 
z
" id="DejaVuSans-48"/>
       </defs>
       <use xlink:href="#DejaVuSans-48"/>
      </g>
     </g>
    </g>
    <g id="xtick_2">
     <g id="line2d_3">
      <path clip-path="url(#pb431c3168d)" d="M 144.2304 298.944 
L 144.2304 27.648 
" style="fill:none;stroke:#b0b0b0;stroke-linecap:square;stroke-width:0.8;"/>
     </g>
     <g id="line2d_4">
      <g>
       <use style="stroke:#000000;stroke-width:0.8;" x="144.2304" xlink:href="#m8fc033c8bc" y="298.944"/>
      </g>
     </g>
     <g id="text_2">
      <!-- 2 -->
      <g transform="translate(138.822275 318.861344)scale(0.17 -0.17)">
       <defs>
        <path d="M 19.1875 8.296875 
L 53.609375 8.296875 
L 53.609375 0 
L 7.328125 0 
L 7.328125 8.296875 
Q 12.9375 14.109375 22.625 23.890625 
Q 32.328125 33.6875 34.8125 36.53125 
Q 39.546875 41.84375 41.421875 45.53125 
Q 43.3125 49.21875 43.3125 52.78125 
Q 43.3125 58.59375 39.234375 62.25 
Q 35.15625 65.921875 28.609375 65.921875 
Q 23.96875 65.921875 18.8125 64.3125 
Q 13.671875 62.703125 7.8125 59.421875 
L 7.8125 69.390625 
Q 13.765625 71.78125 18.9375 73 
Q 24.125 74.21875 28.421875 74.21875 
Q 39.75 74.21875 46.484375 68.546875 
Q 53.21875 62.890625 53.21875 53.421875 
Q 53.21875 48.921875 51.53125 44.890625 
Q 49.859375 40.875 45.40625 35.40625 
Q 44.1875 33.984375 37.640625 27.21875 
Q 31.109375 20.453125 19.1875 8.296875 
z
" id="DejaVuSans-50"/>
       </defs>
       <use xlink:href="#DejaVuSans-50"/>
      </g>
     </g>
    </g>
    <g id="xtick_3">
     <g id="line2d_5">
      <path clip-path="url(#pb431c3168d)" d="M 230.8608 298.944 
L 230.8608 27.648 
" style="fill:none;stroke:#b0b0b0;stroke-linecap:square;stroke-width:0.8;"/>
     </g>
     <g id="line2d_6">
      <g>
       <use style="stroke:#000000;stroke-width:0.8;" x="230.8608" xlink:href="#m8fc033c8bc" y="298.944"/>
      </g>
     </g>
     <g id="text_3">
      <!-- 4 -->
      <g transform="translate(225.452675 318.861344)scale(0.17 -0.17)">
       <defs>
        <path d="M 37.796875 64.3125 
L 12.890625 25.390625 
L 37.796875 25.390625 
z
M 35.203125 72.90625 
L 47.609375 72.90625 
L 47.609375 25.390625 
L 58.015625 25.390625 
L 58.015625 17.1875 
L 47.609375 17.1875 
L 47.609375 0 
L 37.796875 0 
L 37.796875 17.1875 
L 4.890625 17.1875 
L 4.890625 26.703125 
z
" id="DejaVuSans-52"/>
       </defs>
       <use xlink:href="#DejaVuSans-52"/>
      </g>
     </g>
    </g>
    <g id="xtick_4">
     <g id="line2d_7">
      <path clip-path="url(#pb431c3168d)" d="M 317.4912 298.944 
L 317.4912 27.648 
" style="fill:none;stroke:#b0b0b0;stroke-linecap:square;stroke-width:0.8;"/>
     </g>
     <g id="line2d_8">
      <g>
       <use style="stroke:#000000;stroke-width:0.8;" x="317.4912" xlink:href="#m8fc033c8bc" y="298.944"/>
      </g>
     </g>
     <g id="text_4">
      <!-- 6 -->
      <g transform="translate(312.083075 318.861344)scale(0.17 -0.17)">
       <defs>
        <path d="M 33.015625 40.375 
Q 26.375 40.375 22.484375 35.828125 
Q 18.609375 31.296875 18.609375 23.390625 
Q 18.609375 15.53125 22.484375 10.953125 
Q 26.375 6.390625 33.015625 6.390625 
Q 39.65625 6.390625 43.53125 10.953125 
Q 47.40625 15.53125 47.40625 23.390625 
Q 47.40625 31.296875 43.53125 35.828125 
Q 39.65625 40.375 33.015625 40.375 
z
M 52.59375 71.296875 
L 52.59375 62.3125 
Q 48.875 64.0625 45.09375 64.984375 
Q 41.3125 65.921875 37.59375 65.921875 
Q 27.828125 65.921875 22.671875 59.328125 
Q 17.53125 52.734375 16.796875 39.40625 
Q 19.671875 43.65625 24.015625 45.921875 
Q 28.375 48.1875 33.59375 48.1875 
Q 44.578125 48.1875 50.953125 41.515625 
Q 57.328125 34.859375 57.328125 23.390625 
Q 57.328125 12.15625 50.6875 5.359375 
Q 44.046875 -1.421875 33.015625 -1.421875 
Q 20.359375 -1.421875 13.671875 8.265625 
Q 6.984375 17.96875 6.984375 36.375 
Q 6.984375 53.65625 15.1875 63.9375 
Q 23.390625 74.21875 37.203125 74.21875 
Q 40.921875 74.21875 44.703125 73.484375 
Q 48.484375 72.75 52.59375 71.296875 
z
" id="DejaVuSans-54"/>
       </defs>
       <use xlink:href="#DejaVuSans-54"/>
      </g>
     </g>
    </g>
    <g id="xtick_5">
     <g id="line2d_9">
      <path clip-path="url(#pb431c3168d)" d="M 100.9152 298.944 
L 100.9152 27.648 
" style="fill:none;stroke:#b0b0b0;stroke-linecap:square;stroke-width:0.8;"/>
     </g>
     <g id="line2d_10">
      <defs>
       <path d="M 0 0 
L 0 2 
" id="mef3ed6ff41" style="stroke:#000000;stroke-width:0.6;"/>
      </defs>
      <g>
       <use style="stroke:#000000;stroke-width:0.6;" x="100.9152" xlink:href="#mef3ed6ff41" y="298.944"/>
      </g>
     </g>
    </g>
    <g id="xtick_6">
     <g id="line2d_11">
      <path clip-path="url(#pb431c3168d)" d="M 187.5456 298.944 
L 187.5456 27.648 
" style="fill:none;stroke:#b0b0b0;stroke-linecap:square;stroke-width:0.8;"/>
     </g>
     <g id="line2d_12">
      <g>
       <use style="stroke:#000000;stroke-width:0.6;" x="187.5456" xlink:href="#mef3ed6ff41" y="298.944"/>
      </g>
     </g>
    </g>
    <g id="xtick_7">
     <g id="line2d_13">
      <path clip-path="url(#pb431c3168d)" d="M 274.176 298.944 
L 274.176 27.648 
" style="fill:none;stroke:#b0b0b0;stroke-linecap:square;stroke-width:0.8;"/>
     </g>
     <g id="line2d_14">
      <g>
       <use style="stroke:#000000;stroke-width:0.6;" x="274.176" xlink:href="#mef3ed6ff41" y="298.944"/>
      </g>
     </g>
    </g>
    <g id="xtick_8">
     <g id="line2d_15">
      <path clip-path="url(#pb431c3168d)" d="M 360.8064 298.944 
L 360.8064 27.648 
" style="fill:none;stroke:#b0b0b0;stroke-linecap:square;stroke-width:0.8;"/>
     </g>
     <g id="line2d_16">
      <g>
       <use style="stroke:#000000;stroke-width:0.6;" x="360.8064" xlink:href="#mef3ed6ff41" y="298.944"/>
      </g>
     </g>
    </g>
    <g id="text_5">
     <!-- log10(evals / dimension) -->
     <g transform="translate(104.238825 339.314156)scale(0.17 -0.17)">
      <defs>
       <path d="M 9.421875 75.984375 
L 18.40625 75.984375 
L 18.40625 0 
L 9.421875 0 
z
" id="DejaVuSans-108"/>
       <path d="M 30.609375 48.390625 
Q 23.390625 48.390625 19.1875 42.75 
Q 14.984375 37.109375 14.984375 27.296875 
Q 14.984375 17.484375 19.15625 11.84375 
Q 23.34375 6.203125 30.609375 6.203125 
Q 37.796875 6.203125 41.984375 11.859375 
Q 46.1875 17.53125 46.1875 27.296875 
Q 46.1875 37.015625 41.984375 42.703125 
Q 37.796875 48.390625 30.609375 48.390625 
z
M 30.609375 56 
Q 42.328125 56 49.015625 48.375 
Q 55.71875 40.765625 55.71875 27.296875 
Q 55.71875 13.875 49.015625 6.21875 
Q 42.328125 -1.421875 30.609375 -1.421875 
Q 18.84375 -1.421875 12.171875 6.21875 
Q 5.515625 13.875 5.515625 27.296875 
Q 5.515625 40.765625 12.171875 48.375 
Q 18.84375 56 30.609375 56 
z
" id="DejaVuSans-111"/>
       <path d="M 45.40625 27.984375 
Q 45.40625 37.75 41.375 43.109375 
Q 37.359375 48.484375 30.078125 48.484375 
Q 22.859375 48.484375 18.828125 43.109375 
Q 14.796875 37.75 14.796875 27.984375 
Q 14.796875 18.265625 18.828125 12.890625 
Q 22.859375 7.515625 30.078125 7.515625 
Q 37.359375 7.515625 41.375 12.890625 
Q 45.40625 18.265625 45.40625 27.984375 
z
M 54.390625 6.78125 
Q 54.390625 -7.171875 48.1875 -13.984375 
Q 42 -20.796875 29.203125 -20.796875 
Q 24.46875 -20.796875 20.265625 -20.09375 
Q 16.0625 -19.390625 12.109375 -17.921875 
L 12.109375 -9.1875 
Q 16.0625 -11.328125 19.921875 -12.34375 
Q 23.78125 -13.375 27.78125 -13.375 
Q 36.625 -13.375 41.015625 -8.765625 
Q 45.40625 -4.15625 45.40625 5.171875 
L 45.40625 9.625 
Q 42.625 4.78125 38.28125 2.390625 
Q 33.9375 0 27.875 0 
Q 17.828125 0 11.671875 7.65625 
Q 5.515625 15.328125 5.515625 27.984375 
Q 5.515625 40.671875 11.671875 48.328125 
Q 17.828125 56 27.875 56 
Q 33.9375 56 38.28125 53.609375 
Q 42.625 51.21875 45.40625 46.390625 
L 45.40625 54.6875 
L 54.390625 54.6875 
z
" id="DejaVuSans-103"/>
       <path d="M 12.40625 8.296875 
L 28.515625 8.296875 
L 28.515625 63.921875 
L 10.984375 60.40625 
L 10.984375 69.390625 
L 28.421875 72.90625 
L 38.28125 72.90625 
L 38.28125 8.296875 
L 54.390625 8.296875 
L 54.390625 0 
L 12.40625 0 
z
" id="DejaVuSans-49"/>
       <path d="M 31 75.875 
Q 24.46875 64.65625 21.28125 53.65625 
Q 18.109375 42.671875 18.109375 31.390625 
Q 18.109375 20.125 21.3125 9.0625 
Q 24.515625 -2 31 -13.1875 
L 23.1875 -13.1875 
Q 15.875 -1.703125 12.234375 9.375 
Q 8.59375 20.453125 8.59375 31.390625 
Q 8.59375 42.28125 12.203125 53.3125 
Q 15.828125 64.359375 23.1875 75.875 
z
" id="DejaVuSans-40"/>
       <path d="M 56.203125 29.59375 
L 56.203125 25.203125 
L 14.890625 25.203125 
Q 15.484375 15.921875 20.484375 11.0625 
Q 25.484375 6.203125 34.421875 6.203125 
Q 39.59375 6.203125 44.453125 7.46875 
Q 49.3125 8.734375 54.109375 11.28125 
L 54.109375 2.78125 
Q 49.265625 0.734375 44.1875 -0.34375 
Q 39.109375 -1.421875 33.890625 -1.421875 
Q 20.796875 -1.421875 13.15625 6.1875 
Q 5.515625 13.8125 5.515625 26.8125 
Q 5.515625 40.234375 12.765625 48.109375 
Q 20.015625 56 32.328125 56 
Q 43.359375 56 49.78125 48.890625 
Q 56.203125 41.796875 56.203125 29.59375 
z
M 47.21875 32.234375 
Q 47.125 39.59375 43.09375 43.984375 
Q 39.0625 48.390625 32.421875 48.390625 
Q 24.90625 48.390625 20.390625 44.140625 
Q 15.875 39.890625 15.1875 32.171875 
z
" id="DejaVuSans-101"/>
       <path d="M 2.984375 54.6875 
L 12.5 54.6875 
L 29.59375 8.796875 
L 46.6875 54.6875 
L 56.203125 54.6875 
L 35.6875 0 
L 23.484375 0 
z
" id="DejaVuSans-118"/>
       <path d="M 34.28125 27.484375 
Q 23.390625 27.484375 19.1875 25 
Q 14.984375 22.515625 14.984375 16.5 
Q 14.984375 11.71875 18.140625 8.90625 
Q 21.296875 6.109375 26.703125 6.109375 
Q 34.1875 6.109375 38.703125 11.40625 
Q 43.21875 16.703125 43.21875 25.484375 
L 43.21875 27.484375 
z
M 52.203125 31.203125 
L 52.203125 0 
L 43.21875 0 
L 43.21875 8.296875 
Q 40.140625 3.328125 35.546875 0.953125 
Q 30.953125 -1.421875 24.3125 -1.421875 
Q 15.921875 -1.421875 10.953125 3.296875 
Q 6 8.015625 6 15.921875 
Q 6 25.140625 12.171875 29.828125 
Q 18.359375 34.515625 30.609375 34.515625 
L 43.21875 34.515625 
L 43.21875 35.40625 
Q 43.21875 41.609375 39.140625 45 
Q 35.0625 48.390625 27.6875 48.390625 
Q 23 48.390625 18.546875 47.265625 
Q 14.109375 46.140625 10.015625 43.890625 
L 10.015625 52.203125 
Q 14.9375 54.109375 19.578125 55.046875 
Q 24.21875 56 28.609375 56 
Q 40.484375 56 46.34375 49.84375 
Q 52.203125 43.703125 52.203125 31.203125 
z
" id="DejaVuSans-97"/>
       <path d="M 44.28125 53.078125 
L 44.28125 44.578125 
Q 40.484375 46.53125 36.375 47.5 
Q 32.28125 48.484375 27.875 48.484375 
Q 21.1875 48.484375 17.84375 46.4375 
Q 14.5 44.390625 14.5 40.28125 
Q 14.5 37.15625 16.890625 35.375 
Q 19.28125 33.59375 26.515625 31.984375 
L 29.59375 31.296875 
Q 39.15625 29.25 43.1875 25.515625 
Q 47.21875 21.78125 47.21875 15.09375 
Q 47.21875 7.46875 41.1875 3.015625 
Q 35.15625 -1.421875 24.609375 -1.421875 
Q 20.21875 -1.421875 15.453125 -0.5625 
Q 10.6875 0.296875 5.421875 2 
L 5.421875 11.28125 
Q 10.40625 8.6875 15.234375 7.390625 
Q 20.0625 6.109375 24.8125 6.109375 
Q 31.15625 6.109375 34.5625 8.28125 
Q 37.984375 10.453125 37.984375 14.40625 
Q 37.984375 18.0625 35.515625 20.015625 
Q 33.0625 21.96875 24.703125 23.78125 
L 21.578125 24.515625 
Q 13.234375 26.265625 9.515625 29.90625 
Q 5.8125 33.546875 5.8125 39.890625 
Q 5.8125 47.609375 11.28125 51.796875 
Q 16.75 56 26.8125 56 
Q 31.78125 56 36.171875 55.265625 
Q 40.578125 54.546875 44.28125 53.078125 
z
" id="DejaVuSans-115"/>
       <path id="DejaVuSans-32"/>
       <path d="M 25.390625 72.90625 
L 33.6875 72.90625 
L 8.296875 -9.28125 
L 0 -9.28125 
z
" id="DejaVuSans-47"/>
       <path d="M 45.40625 46.390625 
L 45.40625 75.984375 
L 54.390625 75.984375 
L 54.390625 0 
L 45.40625 0 
L 45.40625 8.203125 
Q 42.578125 3.328125 38.25 0.953125 
Q 33.9375 -1.421875 27.875 -1.421875 
Q 17.96875 -1.421875 11.734375 6.484375 
Q 5.515625 14.40625 5.515625 27.296875 
Q 5.515625 40.1875 11.734375 48.09375 
Q 17.96875 56 27.875 56 
Q 33.9375 56 38.25 53.625 
Q 42.578125 51.265625 45.40625 46.390625 
z
M 14.796875 27.296875 
Q 14.796875 17.390625 18.875 11.75 
Q 22.953125 6.109375 30.078125 6.109375 
Q 37.203125 6.109375 41.296875 11.75 
Q 45.40625 17.390625 45.40625 27.296875 
Q 45.40625 37.203125 41.296875 42.84375 
Q 37.203125 48.484375 30.078125 48.484375 
Q 22.953125 48.484375 18.875 42.84375 
Q 14.796875 37.203125 14.796875 27.296875 
z
" id="DejaVuSans-100"/>
       <path d="M 9.421875 54.6875 
L 18.40625 54.6875 
L 18.40625 0 
L 9.421875 0 
z
M 9.421875 75.984375 
L 18.40625 75.984375 
L 18.40625 64.59375 
L 9.421875 64.59375 
z
" id="DejaVuSans-105"/>
       <path d="M 52 44.1875 
Q 55.375 50.25 60.0625 53.125 
Q 64.75 56 71.09375 56 
Q 79.640625 56 84.28125 50.015625 
Q 88.921875 44.046875 88.921875 33.015625 
L 88.921875 0 
L 79.890625 0 
L 79.890625 32.71875 
Q 79.890625 40.578125 77.09375 44.375 
Q 74.3125 48.1875 68.609375 48.1875 
Q 61.625 48.1875 57.5625 43.546875 
Q 53.515625 38.921875 53.515625 30.90625 
L 53.515625 0 
L 44.484375 0 
L 44.484375 32.71875 
Q 44.484375 40.625 41.703125 44.40625 
Q 38.921875 48.1875 33.109375 48.1875 
Q 26.21875 48.1875 22.15625 43.53125 
Q 18.109375 38.875 18.109375 30.90625 
L 18.109375 0 
L 9.078125 0 
L 9.078125 54.6875 
L 18.109375 54.6875 
L 18.109375 46.1875 
Q 21.1875 51.21875 25.484375 53.609375 
Q 29.78125 56 35.6875 56 
Q 41.65625 56 45.828125 52.96875 
Q 50 49.953125 52 44.1875 
z
" id="DejaVuSans-109"/>
       <path d="M 54.890625 33.015625 
L 54.890625 0 
L 45.90625 0 
L 45.90625 32.71875 
Q 45.90625 40.484375 42.875 44.328125 
Q 39.84375 48.1875 33.796875 48.1875 
Q 26.515625 48.1875 22.3125 43.546875 
Q 18.109375 38.921875 18.109375 30.90625 
L 18.109375 0 
L 9.078125 0 
L 9.078125 54.6875 
L 18.109375 54.6875 
L 18.109375 46.1875 
Q 21.34375 51.125 25.703125 53.5625 
Q 30.078125 56 35.796875 56 
Q 45.21875 56 50.046875 50.171875 
Q 54.890625 44.34375 54.890625 33.015625 
z
" id="DejaVuSans-110"/>
       <path d="M 8.015625 75.875 
L 15.828125 75.875 
Q 23.140625 64.359375 26.78125 53.3125 
Q 30.421875 42.28125 30.421875 31.390625 
Q 30.421875 20.453125 26.78125 9.375 
Q 23.140625 -1.703125 15.828125 -13.1875 
L 8.015625 -13.1875 
Q 14.5 -2 17.703125 9.0625 
Q 20.90625 20.125 20.90625 31.390625 
Q 20.90625 42.671875 17.703125 53.65625 
Q 14.5 64.65625 8.015625 75.875 
z
" id="DejaVuSans-41"/>
      </defs>
      <use xlink:href="#DejaVuSans-108"/>
      <use x="27.783203" xlink:href="#DejaVuSans-111"/>
      <use x="88.964844" xlink:href="#DejaVuSans-103"/>
      <use x="152.441406" xlink:href="#DejaVuSans-49"/>
      <use x="216.064453" xlink:href="#DejaVuSans-48"/>
      <use x="279.6875" xlink:href="#DejaVuSans-40"/>
      <use x="318.701172" xlink:href="#DejaVuSans-101"/>
      <use x="380.224609" xlink:href="#DejaVuSans-118"/>
      <use x="439.404297" xlink:href="#DejaVuSans-97"/>
      <use x="500.683594" xlink:href="#DejaVuSans-108"/>
      <use x="528.466797" xlink:href="#DejaVuSans-115"/>
      <use x="580.566406" xlink:href="#DejaVuSans-32"/>
      <use x="612.353516" xlink:href="#DejaVuSans-47"/>
      <use x="646.044922" xlink:href="#DejaVuSans-32"/>
      <use x="677.832031" xlink:href="#DejaVuSans-100"/>
      <use x="741.308594" xlink:href="#DejaVuSans-105"/>
      <use x="769.091797" xlink:href="#DejaVuSans-109"/>
      <use x="866.503906" xlink:href="#DejaVuSans-101"/>
      <use x="928.027344" xlink:href="#DejaVuSans-110"/>
      <use x="991.40625" xlink:href="#DejaVuSans-115"/>
      <use x="1043.505859" xlink:href="#DejaVuSans-105"/>
      <use x="1071.289062" xlink:href="#DejaVuSans-111"/>
      <use x="1132.470703" xlink:href="#DejaVuSans-110"/>
      <use x="1195.849609" xlink:href="#DejaVuSans-41"/>
     </g>
    </g>
   </g>
   <g id="matplotlib.axis_2">
    <g id="ytick_1">
     <g id="line2d_17">
      <path clip-path="url(#pb431c3168d)" d="M 57.6 298.944 
L 360.8064 298.944 
" style="fill:none;stroke:#b0b0b0;stroke-linecap:square;stroke-width:0.8;"/>
     </g>
     <g id="line2d_18">
      <defs>
       <path d="M 0 0 
L -3.5 0 
" id="m350d896dc8" style="stroke:#000000;stroke-width:0.8;"/>
      </defs>
      <g>
       <use style="stroke:#000000;stroke-width:0.8;" x="57.6" xlink:href="#m350d896dc8" y="298.944"/>
      </g>
     </g>
     <g id="text_6">
      <!-- 0.0 -->
      <g transform="translate(25.155 305.02275)scale(0.16 -0.16)">
       <defs>
        <path d="M 10.6875 12.40625 
L 21 12.40625 
L 21 0 
L 10.6875 0 
z
" id="DejaVuSans-46"/>
       </defs>
       <use xlink:href="#DejaVuSans-48"/>
       <use x="63.623047" xlink:href="#DejaVuSans-46"/>
       <use x="95.410156" xlink:href="#DejaVuSans-48"/>
      </g>
     </g>
    </g>
    <g id="ytick_2">
     <g id="line2d_19">
      <path clip-path="url(#pb431c3168d)" d="M 57.6 244.6848 
L 360.8064 244.6848 
" style="fill:none;stroke:#b0b0b0;stroke-linecap:square;stroke-width:0.8;"/>
     </g>
     <g id="line2d_20">
      <g>
       <use style="stroke:#000000;stroke-width:0.8;" x="57.6" xlink:href="#m350d896dc8" y="244.6848"/>
      </g>
     </g>
     <g id="text_7">
      <!-- 0.2 -->
      <g transform="translate(25.155 250.76355)scale(0.16 -0.16)">
       <use xlink:href="#DejaVuSans-48"/>
       <use x="63.623047" xlink:href="#DejaVuSans-46"/>
       <use x="95.410156" xlink:href="#DejaVuSans-50"/>
      </g>
     </g>
    </g>
    <g id="ytick_3">
     <g id="line2d_21">
      <path clip-path="url(#pb431c3168d)" d="M 57.6 190.4256 
L 360.8064 190.4256 
" style="fill:none;stroke:#b0b0b0;stroke-linecap:square;stroke-width:0.8;"/>
     </g>
     <g id="line2d_22">
      <g>
       <use style="stroke:#000000;stroke-width:0.8;" x="57.6" xlink:href="#m350d896dc8" y="190.4256"/>
      </g>
     </g>
     <g id="text_8">
      <!-- 0.4 -->
      <g transform="translate(25.155 196.50435)scale(0.16 -0.16)">
       <use xlink:href="#DejaVuSans-48"/>
       <use x="63.623047" xlink:href="#DejaVuSans-46"/>
       <use x="95.410156" xlink:href="#DejaVuSans-52"/>
      </g>
     </g>
    </g>
    <g id="ytick_4">
     <g id="line2d_23">
      <path clip-path="url(#pb431c3168d)" d="M 57.6 136.1664 
L 360.8064 136.1664 
" style="fill:none;stroke:#b0b0b0;stroke-linecap:square;stroke-width:0.8;"/>
     </g>
     <g id="line2d_24">
      <g>
       <use style="stroke:#000000;stroke-width:0.8;" x="57.6" xlink:href="#m350d896dc8" y="136.1664"/>
      </g>
     </g>
     <g id="text_9">
      <!-- 0.6 -->
      <g transform="translate(25.155 142.24515)scale(0.16 -0.16)">
       <use xlink:href="#DejaVuSans-48"/>
       <use x="63.623047" xlink:href="#DejaVuSans-46"/>
       <use x="95.410156" xlink:href="#DejaVuSans-54"/>
      </g>
     </g>
    </g>
    <g id="ytick_5">
     <g id="line2d_25">
      <path clip-path="url(#pb431c3168d)" d="M 57.6 81.9072 
L 360.8064 81.9072 
" style="fill:none;stroke:#b0b0b0;stroke-linecap:square;stroke-width:0.8;"/>
     </g>
     <g id="line2d_26">
      <g>
       <use style="stroke:#000000;stroke-width:0.8;" x="57.6" xlink:href="#m350d896dc8" y="81.9072"/>
      </g>
     </g>
     <g id="text_10">
      <!-- 0.8 -->
      <g transform="translate(25.155 87.98595)scale(0.16 -0.16)">
       <defs>
        <path d="M 31.78125 34.625 
Q 24.75 34.625 20.71875 30.859375 
Q 16.703125 27.09375 16.703125 20.515625 
Q 16.703125 13.921875 20.71875 10.15625 
Q 24.75 6.390625 31.78125 6.390625 
Q 38.8125 6.390625 42.859375 10.171875 
Q 46.921875 13.96875 46.921875 20.515625 
Q 46.921875 27.09375 42.890625 30.859375 
Q 38.875 34.625 31.78125 34.625 
z
M 21.921875 38.8125 
Q 15.578125 40.375 12.03125 44.71875 
Q 8.5 49.078125 8.5 55.328125 
Q 8.5 64.0625 14.71875 69.140625 
Q 20.953125 74.21875 31.78125 74.21875 
Q 42.671875 74.21875 48.875 69.140625 
Q 55.078125 64.0625 55.078125 55.328125 
Q 55.078125 49.078125 51.53125 44.71875 
Q 48 40.375 41.703125 38.8125 
Q 48.828125 37.15625 52.796875 32.3125 
Q 56.78125 27.484375 56.78125 20.515625 
Q 56.78125 9.90625 50.3125 4.234375 
Q 43.84375 -1.421875 31.78125 -1.421875 
Q 19.734375 -1.421875 13.25 4.234375 
Q 6.78125 9.90625 6.78125 20.515625 
Q 6.78125 27.484375 10.78125 32.3125 
Q 14.796875 37.15625 21.921875 38.8125 
z
M 18.3125 54.390625 
Q 18.3125 48.734375 21.84375 45.5625 
Q 25.390625 42.390625 31.78125 42.390625 
Q 38.140625 42.390625 41.71875 45.5625 
Q 45.3125 48.734375 45.3125 54.390625 
Q 45.3125 60.0625 41.71875 63.234375 
Q 38.140625 66.40625 31.78125 66.40625 
Q 25.390625 66.40625 21.84375 63.234375 
Q 18.3125 60.0625 18.3125 54.390625 
z
" id="DejaVuSans-56"/>
       </defs>
       <use xlink:href="#DejaVuSans-48"/>
       <use x="63.623047" xlink:href="#DejaVuSans-46"/>
       <use x="95.410156" xlink:href="#DejaVuSans-56"/>
      </g>
     </g>
    </g>
    <g id="ytick_6">
     <g id="line2d_27">
      <path clip-path="url(#pb431c3168d)" d="M 57.6 27.648 
L 360.8064 27.648 
" style="fill:none;stroke:#b0b0b0;stroke-linecap:square;stroke-width:0.8;"/>
     </g>
     <g id="line2d_28">
      <g>
       <use style="stroke:#000000;stroke-width:0.8;" x="57.6" xlink:href="#m350d896dc8" y="27.648"/>
      </g>
     </g>
     <g id="text_11">
      <!-- 1.0 -->
      <g transform="translate(25.155 33.72675)scale(0.16 -0.16)">
       <use xlink:href="#DejaVuSans-49"/>
       <use x="63.623047" xlink:href="#DejaVuSans-46"/>
       <use x="95.410156" xlink:href="#DejaVuSans-48"/>
      </g>
     </g>
    </g>
    <g id="text_12">
     <!-- Fraction of function,target pairs -->
     <g transform="translate(17.619531 297.681)rotate(-90)scale(0.17 -0.17)">
      <defs>
       <path d="M 9.8125 72.90625 
L 51.703125 72.90625 
L 51.703125 64.59375 
L 19.671875 64.59375 
L 19.671875 43.109375 
L 48.578125 43.109375 
L 48.578125 34.8125 
L 19.671875 34.8125 
L 19.671875 0 
L 9.8125 0 
z
" id="DejaVuSans-70"/>
       <path d="M 41.109375 46.296875 
Q 39.59375 47.171875 37.8125 47.578125 
Q 36.03125 48 33.890625 48 
Q 26.265625 48 22.1875 43.046875 
Q 18.109375 38.09375 18.109375 28.8125 
L 18.109375 0 
L 9.078125 0 
L 9.078125 54.6875 
L 18.109375 54.6875 
L 18.109375 46.1875 
Q 20.953125 51.171875 25.484375 53.578125 
Q 30.03125 56 36.53125 56 
Q 37.453125 56 38.578125 55.875 
Q 39.703125 55.765625 41.0625 55.515625 
z
" id="DejaVuSans-114"/>
       <path d="M 48.78125 52.59375 
L 48.78125 44.1875 
Q 44.96875 46.296875 41.140625 47.34375 
Q 37.3125 48.390625 33.40625 48.390625 
Q 24.65625 48.390625 19.8125 42.84375 
Q 14.984375 37.3125 14.984375 27.296875 
Q 14.984375 17.28125 19.8125 11.734375 
Q 24.65625 6.203125 33.40625 6.203125 
Q 37.3125 6.203125 41.140625 7.25 
Q 44.96875 8.296875 48.78125 10.40625 
L 48.78125 2.09375 
Q 45.015625 0.34375 40.984375 -0.53125 
Q 36.96875 -1.421875 32.421875 -1.421875 
Q 20.0625 -1.421875 12.78125 6.34375 
Q 5.515625 14.109375 5.515625 27.296875 
Q 5.515625 40.671875 12.859375 48.328125 
Q 20.21875 56 33.015625 56 
Q 37.15625 56 41.109375 55.140625 
Q 45.0625 54.296875 48.78125 52.59375 
z
" id="DejaVuSans-99"/>
       <path d="M 18.3125 70.21875 
L 18.3125 54.6875 
L 36.8125 54.6875 
L 36.8125 47.703125 
L 18.3125 47.703125 
L 18.3125 18.015625 
Q 18.3125 11.328125 20.140625 9.421875 
Q 21.96875 7.515625 27.59375 7.515625 
L 36.8125 7.515625 
L 36.8125 0 
L 27.59375 0 
Q 17.1875 0 13.234375 3.875 
Q 9.28125 7.765625 9.28125 18.015625 
L 9.28125 47.703125 
L 2.6875 47.703125 
L 2.6875 54.6875 
L 9.28125 54.6875 
L 9.28125 70.21875 
z
" id="DejaVuSans-116"/>
       <path d="M 37.109375 75.984375 
L 37.109375 68.5 
L 28.515625 68.5 
Q 23.6875 68.5 21.796875 66.546875 
Q 19.921875 64.59375 19.921875 59.515625 
L 19.921875 54.6875 
L 34.71875 54.6875 
L 34.71875 47.703125 
L 19.921875 47.703125 
L 19.921875 0 
L 10.890625 0 
L 10.890625 47.703125 
L 2.296875 47.703125 
L 2.296875 54.6875 
L 10.890625 54.6875 
L 10.890625 58.5 
Q 10.890625 67.625 15.140625 71.796875 
Q 19.390625 75.984375 28.609375 75.984375 
z
" id="DejaVuSans-102"/>
       <path d="M 8.5 21.578125 
L 8.5 54.6875 
L 17.484375 54.6875 
L 17.484375 21.921875 
Q 17.484375 14.15625 20.5 10.265625 
Q 23.53125 6.390625 29.59375 6.390625 
Q 36.859375 6.390625 41.078125 11.03125 
Q 45.3125 15.671875 45.3125 23.6875 
L 45.3125 54.6875 
L 54.296875 54.6875 
L 54.296875 0 
L 45.3125 0 
L 45.3125 8.40625 
Q 42.046875 3.421875 37.71875 1 
Q 33.40625 -1.421875 27.6875 -1.421875 
Q 18.265625 -1.421875 13.375 4.4375 
Q 8.5 10.296875 8.5 21.578125 
z
M 31.109375 56 
z
" id="DejaVuSans-117"/>
       <path d="M 11.71875 12.40625 
L 22.015625 12.40625 
L 22.015625 4 
L 14.015625 -11.625 
L 7.71875 -11.625 
L 11.71875 4 
z
" id="DejaVuSans-44"/>
       <path d="M 18.109375 8.203125 
L 18.109375 -20.796875 
L 9.078125 -20.796875 
L 9.078125 54.6875 
L 18.109375 54.6875 
L 18.109375 46.390625 
Q 20.953125 51.265625 25.265625 53.625 
Q 29.59375 56 35.59375 56 
Q 45.5625 56 51.78125 48.09375 
Q 58.015625 40.1875 58.015625 27.296875 
Q 58.015625 14.40625 51.78125 6.484375 
Q 45.5625 -1.421875 35.59375 -1.421875 
Q 29.59375 -1.421875 25.265625 0.953125 
Q 20.953125 3.328125 18.109375 8.203125 
z
M 48.6875 27.296875 
Q 48.6875 37.203125 44.609375 42.84375 
Q 40.53125 48.484375 33.40625 48.484375 
Q 26.265625 48.484375 22.1875 42.84375 
Q 18.109375 37.203125 18.109375 27.296875 
Q 18.109375 17.390625 22.1875 11.75 
Q 26.265625 6.109375 33.40625 6.109375 
Q 40.53125 6.109375 44.609375 11.75 
Q 48.6875 17.390625 48.6875 27.296875 
z
" id="DejaVuSans-112"/>
      </defs>
      <use xlink:href="#DejaVuSans-70"/>
      <use x="50.269531" xlink:href="#DejaVuSans-114"/>
      <use x="91.382812" xlink:href="#DejaVuSans-97"/>
      <use x="152.662109" xlink:href="#DejaVuSans-99"/>
      <use x="207.642578" xlink:href="#DejaVuSans-116"/>
      <use x="246.851562" xlink:href="#DejaVuSans-105"/>
      <use x="274.634766" xlink:href="#DejaVuSans-111"/>
      <use x="335.816406" xlink:href="#DejaVuSans-110"/>
      <use x="399.195312" xlink:href="#DejaVuSans-32"/>
      <use x="430.982422" xlink:href="#DejaVuSans-111"/>
      <use x="492.164062" xlink:href="#DejaVuSans-102"/>
      <use x="527.369141" xlink:href="#DejaVuSans-32"/>
      <use x="559.15625" xlink:href="#DejaVuSans-102"/>
      <use x="594.361328" xlink:href="#DejaVuSans-117"/>
      <use x="657.740234" xlink:href="#DejaVuSans-110"/>
      <use x="721.119141" xlink:href="#DejaVuSans-99"/>
      <use x="776.099609" xlink:href="#DejaVuSans-116"/>
      <use x="815.308594" xlink:href="#DejaVuSans-105"/>
      <use x="843.091797" xlink:href="#DejaVuSans-111"/>
      <use x="904.273438" xlink:href="#DejaVuSans-110"/>
      <use x="967.652344" xlink:href="#DejaVuSans-44"/>
      <use x="999.439453" xlink:href="#DejaVuSans-116"/>
      <use x="1038.648438" xlink:href="#DejaVuSans-97"/>
      <use x="1099.927734" xlink:href="#DejaVuSans-114"/>
      <use x="1139.291016" xlink:href="#DejaVuSans-103"/>
      <use x="1202.767578" xlink:href="#DejaVuSans-101"/>
      <use x="1264.291016" xlink:href="#DejaVuSans-116"/>
      <use x="1303.5" xlink:href="#DejaVuSans-32"/>
      <use x="1335.287109" xlink:href="#DejaVuSans-112"/>
      <use x="1398.763672" xlink:href="#DejaVuSans-97"/>
      <use x="1460.042969" xlink:href="#DejaVuSans-105"/>
      <use x="1487.826172" xlink:href="#DejaVuSans-114"/>
      <use x="1528.939453" xlink:href="#DejaVuSans-115"/>
     </g>
    </g>
   </g>
   <g id="line2d_29">
    <defs>
     <path d="M 0 1.5 
C 0.397805 1.5 0.77937 1.341951 1.06066 1.06066 
C 1.341951 0.77937 1.5 0.397805 1.5 0 
C 1.5 -0.397805 1.341951 -0.77937 1.06066 -1.06066 
C 0.77937 -1.341951 0.397805 -1.5 0 -1.5 
C -0.397805 -1.5 -0.77937 -1.341951 -1.06066 -1.06066 
C -1.341951 -0.77937 -1.5 -0.397805 -1.5 0 
C -1.5 0.397805 -1.341951 0.77937 -1.06066 1.06066 
C -0.77937 1.341951 -0.397805 1.5 0 1.5 
z
" id="m9f11aaf1d1" style="stroke:#000080;"/>
    </defs>
    <g>
     <use style="fill:#000080;stroke:#000080;" x="193.690626" xlink:href="#m9f11aaf1d1" y="27.648"/>
     <use style="fill:#000080;stroke:#000080;" x="193.690626" xlink:href="#m9f11aaf1d1" y="27.648"/>
    </g>
   </g>
   <g id="line2d_30">
    <path d="M 148.124658 298.944 
L 148.124658 298.502868 
L 150.78259 298.502868 
L 150.78259 298.061737 
L 151.046307 298.061737 
L 151.046307 297.620605 
L 151.392277 297.620605 
L 151.392277 296.29721 
L 151.562904 296.29721 
L 151.562904 295.856078 
L 155.938089 295.856078 
L 155.938089 294.973815 
L 157.363398 294.973815 
L 157.363398 294.532683 
L 159.651731 294.532683 
L 159.651731 294.091551 
L 159.816746 294.091551 
L 159.816746 293.209288 
L 160.409709 293.209288 
L 160.4627 292.327024 
L 160.777545 292.327024 
L 160.777545 291.885893 
L 161.391854 291.885893 
L 161.442152 290.562498 
L 161.691646 290.562498 
L 161.790524 288.797971 
L 162.084079 288.797971 
L 162.084079 288.356839 
L 162.229155 288.356839 
L 162.229155 286.592312 
L 162.515995 286.592312 
L 162.56338 285.710049 
L 163.030771 285.710049 
L 163.030771 284.827785 
L 163.932096 284.827785 
L 163.932096 284.386654 
L 164.107292 284.386654 
L 164.194282 283.50439 
L 164.237627 283.50439 
L 164.237627 283.063259 
L 164.367065 283.063259 
L 164.367065 281.739863 
L 164.580835 281.739863 
L 164.580835 281.298732 
L 164.959603 281.298732 
L 164.959603 280.8576 
L 165.166781 280.8576 
L 165.166781 280.416468 
L 165.45305 280.416468 
L 165.45305 279.534205 
L 166.169767 279.534205 
L 166.169767 279.093073 
L 166.286609 279.093073 
L 166.286609 278.651941 
L 166.40273 278.651941 
L 166.40273 277.769678 
L 166.556452 277.769678 
L 166.632844 276.446283 
L 166.670924 276.446283 
L 166.670924 276.005151 
L 166.822478 276.005151 
L 166.8978 274.240624 
L 166.972821 274.240624 
L 166.972821 273.799493 
L 167.233064 273.799493 
L 167.306762 272.917229 
L 167.598703 272.917229 
L 167.598703 272.034966 
L 167.92181 272.034966 
L 167.992864 271.152702 
L 168.378936 271.152702 
L 168.378936 270.711571 
L 168.551837 270.711571 
L 168.620556 268.947044 
L 168.723164 268.947044 
L 168.79126 268.06478 
L 168.892945 268.06478 
L 168.892945 267.623649 
L 169.491772 267.623649 
L 169.491772 266.741385 
L 169.622295 266.741385 
L 169.654784 265.859122 
L 169.816397 265.859122 
L 169.816397 265.41799 
L 169.944694 265.41799 
L 169.944694 264.976859 
L 170.135514 264.976859 
L 170.135514 264.535727 
L 170.542436 264.535727 
L 170.635104 263.212332 
L 170.788543 263.212332 
L 170.880009 261.447805 
L 170.9104 261.447805 
L 170.940741 260.565541 
L 171.181725 260.565541 
L 171.241492 259.683278 
L 171.360458 259.683278 
L 171.419661 257.47762 
L 171.478677 257.47762 
L 171.508116 256.154224 
L 171.625414 256.154224 
L 171.71291 254.830829 
L 171.88669 254.830829 
L 171.88669 254.389698 
L 172.03029 254.389698 
L 172.087425 253.066302 
L 172.172803 253.066302 
L 172.229507 250.860644 
L 172.314244 250.860644 
L 172.3986 249.096117 
L 172.482581 249.096117 
L 172.566188 247.772722 
L 172.593974 247.772722 
L 172.62172 246.008195 
L 172.842224 246.008195 
L 172.896949 244.6848 
L 172.978738 244.6848 
L 172.978738 243.802537 
L 173.221995 243.802537 
L 173.221995 242.920273 
L 173.382435 242.920273 
L 173.435613 241.596878 
L 173.515098 241.596878 
L 173.620559 240.714615 
L 173.646832 240.714615 
L 173.751559 238.067824 
L 173.803705 238.067824 
L 173.881654 236.303298 
L 174.062287 236.303298 
L 174.087951 234.979902 
L 174.190258 234.979902 
L 174.190258 234.538771 
L 174.317363 234.538771 
L 174.342681 233.215376 
L 174.443616 233.215376 
L 174.544011 232.333112 
L 174.618958 232.333112 
L 174.718424 230.568585 
L 174.767961 230.568585 
L 174.842022 228.804059 
L 174.915793 228.804059 
L 174.940319 227.480663 
L 175.111113 227.480663 
L 175.135386 226.157268 
L 175.352444 226.157268 
L 175.424244 225.275005 
L 175.543305 225.275005 
L 175.638014 223.95161 
L 175.661617 223.95161 
L 175.755734 223.069346 
L 175.896032 223.069346 
L 175.988986 221.30482 
L 176.012153 221.30482 
L 176.012153 220.863688 
L 176.196469 220.863688 
L 176.265124 218.658029 
L 176.537267 218.658029 
L 176.582244 217.775766 
L 176.649508 217.775766 
L 176.738821 216.011239 
L 176.827712 216.011239 
L 176.916185 213.364449 
L 177.135565 213.364449 
L 177.244302 211.599922 
L 177.265975 211.599922 
L 177.352415 209.835395 
L 177.416986 209.835395 
L 177.45991 208.953132 
L 177.673074 208.953132 
L 177.757668 206.306341 
L 177.799823 206.306341 
L 177.904798 201.895024 
L 177.925723 201.895024 
L 177.988359 200.130498 
L 178.050787 200.130498 
L 178.133703 197.924839 
L 178.277932 197.924839 
L 178.277932 197.483707 
L 178.421064 197.483707 
L 178.522639 195.71918 
L 178.563116 195.71918 
L 178.663928 193.513522 
L 178.724157 193.513522 
L 178.824112 190.866732 
L 178.903696 190.866732 
L 178.982944 189.102205 
L 179.042162 189.102205 
L 179.081538 188.219941 
L 179.160042 188.219941 
L 179.179617 186.896546 
L 179.296641 186.896546 
L 179.393608 185.13202 
L 179.509312 185.13202 
L 179.605192 183.808624 
L 179.662486 183.808624 
L 179.719606 181.602966 
L 179.776554 181.602966 
L 179.871084 178.515044 
L 179.965142 178.515044 
L 180.021352 176.750517 
L 180.077394 176.750517 
L 180.13327 173.662595 
L 180.244527 173.662595 
L 180.33674 172.3392 
L 180.391852 172.3392 
L 180.465085 168.810146 
L 180.519823 168.810146 
L 180.538033 167.927883 
L 180.70114 167.927883 
L 180.737195 165.722224 
L 180.827031 165.722224 
L 180.880727 163.075434 
L 180.952084 163.075434 
L 180.987662 162.193171 
L 181.076312 162.193171 
L 181.076312 161.752039 
L 181.339783 161.752039 
L 181.392038 160.869776 
L 181.496113 160.869776 
L 181.599615 159.54638 
L 181.702552 159.54638 
L 181.787904 156.458459 
L 181.821936 156.458459 
L 181.90675 154.2528 
L 181.974326 154.2528 
L 182.075238 152.929405 
L 182.108755 152.929405 
L 182.175611 150.282615 
L 182.24223 150.282615 
L 182.325173 148.076956 
L 182.473556 148.076956 
L 182.53913 147.194693 
L 182.702072 147.194693 
L 182.734492 145.430166 
L 182.863615 145.430166 
L 182.911809 142.342244 
L 182.975876 142.342244 
L 183.055653 138.81319 
L 183.166777 138.81319 
L 183.277247 136.1664 
L 183.324394 136.1664 
L 183.418335 134.843005 
L 183.449544 134.843005 
L 183.558372 130.87282 
L 183.58935 130.87282 
L 183.68198 129.549424 
L 183.743481 129.549424 
L 183.820075 128.667161 
L 183.911579 128.667161 
L 183.957164 125.138107 
L 184.032895 125.138107 
L 184.093261 123.814712 
L 184.168447 123.814712 
L 184.273206 119.844527 
L 184.436656 119.844527 
L 184.539935 116.315473 
L 184.642651 116.315473 
L 184.642651 114.992078 
L 184.860885 114.992078 
L 184.961867 111.904156 
L 184.976249 111.904156 
L 185.00498 110.139629 
L 185.09091 110.139629 
L 185.119467 108.375102 
L 185.204877 108.375102 
L 185.275757 106.169444 
L 185.360462 106.169444 
L 185.402672 101.316995 
L 185.528737 101.316995 
L 185.570571 98.670205 
L 185.640089 98.670205 
L 185.653962 97.34681 
L 185.847115 97.34681 
L 185.91562 96.023415 
L 185.997499 96.023415 
L 185.997499 95.582283 
L 186.133176 95.582283 
L 186.160194 94.70002 
L 186.267881 94.70002 
L 186.348244 93.817756 
L 186.428265 93.817756 
L 186.534433 90.288702 
L 186.547662 90.288702 
L 186.640005 85.436254 
L 186.679442 85.436254 
L 186.744988 83.671727 
L 186.862397 83.671727 
L 186.940265 78.378146 
L 186.979078 78.378146 
L 187.04359 76.61362 
L 187.09504 76.61362 
L 187.159156 72.643434 
L 187.299446 72.643434 
L 187.400822 69.555512 
L 187.413456 69.555512 
L 187.489081 65.585327 
L 187.551869 65.585327 
L 187.551869 65.144195 
L 187.751397 65.144195 
L 187.751397 64.703063 
L 187.91197 64.703063 
L 188.022338 59.850615 
L 188.083374 59.850615 
L 188.119902 57.644956 
L 188.216963 57.644956 
L 188.313525 54.115902 
L 188.337588 54.115902 
L 188.337588 53.233639 
L 188.481326 53.233639 
L 188.576544 49.704585 
L 188.671283 49.704585 
L 188.75379 47.057795 
L 188.929382 47.057795 
L 188.964304 45.293268 
L 189.057115 45.293268 
L 189.14947 43.528741 
L 189.172488 43.528741 
L 189.195478 42.205346 
L 189.367013 42.205346 
L 189.367013 41.764215 
L 189.548276 41.764215 
L 189.570812 39.117424 
L 189.805819 39.117424 
L 189.805819 38.235161 
L 190.059884 38.235161 
L 190.092771 36.470634 
L 190.212869 36.470634 
L 190.212869 35.588371 
L 190.375412 35.588371 
L 190.440038 33.382712 
L 190.621949 33.382712 
L 190.621949 32.500449 
L 190.812662 32.500449 
L 190.886309 31.177054 
L 191.157358 31.177054 
L 191.157358 30.735922 
L 192.017176 30.735922 
L 192.017176 30.29479 
L 192.962049 30.29479 
L 192.962049 28.530263 
L 193.663468 28.530263 
L 193.690626 27.648 
L 360.8064 27.648 
L 360.8064 27.648 
" style="fill:none;stroke:#000080;stroke-linecap:square;stroke-width:1.5;"/>
   </g>
   <g id="line2d_31">
    <defs>
     <path d="M 0 6 
C 1.591219 6 3.117479 5.367802 4.242641 4.242641 
C 5.367802 3.117479 6 1.591219 6 0 
C 6 -1.591219 5.367802 -3.117479 4.242641 -4.242641 
C 3.117479 -5.367802 1.591219 -6 0 -6 
C -1.591219 -6 -3.117479 -5.367802 -4.242641 -4.242641 
C -5.367802 -3.117479 -6 -1.591219 -6 0 
C -6 1.591219 -5.367802 3.117479 -4.242641 4.242641 
C -3.117479 5.367802 -1.591219 6 0 6 
z
" id="mfa4fd99a0a" style="stroke:#000080;stroke-width:1.5;"/>
    </defs>
    <g>
     <use style="fill-opacity:0;stroke:#000080;stroke-width:1.5;" x="174.79268" xlink:href="#mfa4fd99a0a" y="229.686322"/>
     <use style="fill-opacity:0;stroke:#000080;stroke-width:1.5;" x="187.489081" xlink:href="#mfa4fd99a0a" y="65.585327"/>
     <use style="fill-opacity:0;stroke:#000080;stroke-width:1.5;" x="193.690626" xlink:href="#mfa4fd99a0a" y="28.089132"/>
     <use style="fill-opacity:0;stroke:#000080;stroke-width:1.5;" x="193.690626" xlink:href="#mfa4fd99a0a" y="27.648"/>
     <use style="fill-opacity:0;stroke:#000080;stroke-width:1.5;" x="360.8064" xlink:href="#mfa4fd99a0a" y="27.648"/>
    </g>
   </g>
   <g id="line2d_32">
    <path style="fill:none;stroke:#000080;stroke-linecap:square;stroke-width:1.5;"/>
    <g/>
   </g>
   <g id="line2d_33">
    <defs>
     <path d="M 0 1.5 
C 0.397805 1.5 0.77937 1.341951 1.06066 1.06066 
C 1.341951 0.77937 1.5 0.397805 1.5 0 
C 1.5 -0.397805 1.341951 -0.77937 1.06066 -1.06066 
C 0.77937 -1.341951 0.397805 -1.5 0 -1.5 
C -0.397805 -1.5 -0.77937 -1.341951 -1.06066 -1.06066 
C -1.341951 -0.77937 -1.5 -0.397805 -1.5 0 
C -1.5 0.397805 -1.341951 0.77937 -1.06066 1.06066 
C -0.77937 1.341951 -0.397805 1.5 0 1.5 
z
" id="me1fd40ec38" style="stroke:#ff00ff;"/>
    </defs>
    <g>
     <use style="fill:#ff00ff;stroke:#ff00ff;" x="193.083898" xlink:href="#me1fd40ec38" y="27.648"/>
     <use style="fill:#ff00ff;stroke:#ff00ff;" x="193.083898" xlink:href="#me1fd40ec38" y="27.648"/>
    </g>
   </g>
   <g id="line2d_34">
    <path d="M 153.650761 298.944 
L 153.650761 298.502868 
L 154.468783 298.502868 
L 154.468783 298.061737 
L 155.252711 298.061737 
L 155.252711 297.620605 
L 156.271636 297.620605 
L 156.271636 296.29721 
L 156.468962 296.29721 
L 156.468962 295.414946 
L 156.728884 295.414946 
L 156.728884 294.532683 
L 157.61133 294.532683 
L 157.61133 294.091551 
L 158.630038 294.091551 
L 158.630038 293.65042 
L 159.651731 293.65042 
L 159.651731 293.209288 
L 160.196243 293.209288 
L 160.196243 292.327024 
L 161.492316 292.327024 
L 161.492316 291.885893 
L 161.790524 291.885893 
L 161.790524 291.444761 
L 162.420867 291.444761 
L 162.420867 291.003629 
L 162.845206 291.003629 
L 162.891769 290.121366 
L 163.305732 290.121366 
L 163.305732 289.680234 
L 163.79962 289.680234 
L 163.79962 288.797971 
L 163.932096 288.797971 
L 163.932096 288.356839 
L 164.063646 288.356839 
L 164.150838 287.474576 
L 164.580835 287.474576 
L 164.623299 286.592312 
L 164.750119 286.592312 
L 164.792203 285.268917 
L 165.249018 285.268917 
L 165.249018 284.827785 
L 165.41242 284.827785 
L 165.493592 283.945522 
L 165.654892 283.945522 
L 165.654892 283.50439 
L 165.774966 283.50439 
L 165.774966 283.063259 
L 165.894279 283.063259 
L 165.894279 282.622127 
L 166.286609 282.622127 
L 166.364103 281.739863 
L 166.708927 281.739863 
L 166.708927 281.298732 
L 166.822478 281.298732 
L 166.822478 280.8576 
L 167.01022 280.8576 
L 167.084795 279.975337 
L 167.121972 279.975337 
L 167.121972 279.534205 
L 167.306762 279.534205 
L 167.416772 277.769678 
L 167.453299 277.769678 
L 167.453299 277.328546 
L 167.634879 277.328546 
L 167.634879 276.887415 
L 167.814723 276.887415 
L 167.886182 274.681756 
L 168.098945 274.681756 
L 168.098945 274.240624 
L 168.309328 274.240624 
L 168.344164 273.358361 
L 168.620556 273.358361 
L 168.620556 272.917229 
L 168.859111 272.917229 
L 168.859111 272.476098 
L 169.094679 272.476098 
L 169.094679 272.034966 
L 169.360337 272.034966 
L 169.360337 271.593834 
L 169.524487 271.593834 
L 169.557146 270.711571 
L 169.654784 270.711571 
L 169.687218 269.388176 
L 169.784185 269.388176 
L 169.880655 268.505912 
L 169.976632 268.505912 
L 170.072123 267.623649 
L 170.198694 267.623649 
L 170.293066 266.741385 
L 170.386968 266.741385 
L 170.449309 265.859122 
L 170.542436 265.859122 
L 170.635104 264.535727 
L 170.69663 264.535727 
L 170.69663 264.094595 
L 170.819081 264.094595 
L 170.9104 261.888937 
L 171.181725 261.888937 
L 171.181725 261.447805 
L 171.301069 261.447805 
L 171.330787 259.683278 
L 171.741985 259.683278 
L 171.741985 259.242146 
L 171.857838 259.242146 
L 171.857838 258.801015 
L 172.087425 258.801015 
L 172.087425 258.359883 
L 172.201176 258.359883 
L 172.28604 256.595356 
L 172.314244 256.595356 
L 172.3986 255.271961 
L 172.53836 255.271961 
L 172.62172 253.948566 
L 172.759838 253.948566 
L 172.814802 252.184039 
L 173.168209 252.184039 
L 173.275627 250.419512 
L 173.35579 250.419512 
L 173.462145 249.537249 
L 173.541519 249.537249 
L 173.620559 247.33159 
L 173.725432 247.33159 
L 173.829724 246.008195 
L 174.010854 246.008195 
L 174.036588 245.125932 
L 174.139174 245.125932 
L 174.241203 242.920273 
L 174.367966 242.920273 
L 174.418433 242.03801 
L 174.693607 242.03801 
L 174.693607 241.155746 
L 174.866645 241.155746 
L 174.915793 240.273483 
L 175.086808 240.273483 
L 175.135386 238.508956 
L 175.208017 238.508956 
L 175.232165 237.626693 
L 175.448117 237.626693 
L 175.543305 236.303298 
L 175.567027 236.303298 
L 175.567027 235.862166 
L 175.685191 235.862166 
L 175.77919 232.333112 
L 175.802616 232.333112 
L 175.802616 231.89198 
L 175.988986 231.89198 
L 176.035292 231.009717 
L 176.173528 231.009717 
L 176.242267 228.804059 
L 176.401688 228.804059 
L 176.446989 227.039532 
L 176.537267 227.039532 
L 176.627113 225.275005 
L 176.738821 225.275005 
L 176.761083 223.95161 
L 176.872001 223.95161 
L 176.894106 222.628215 
L 177.157362 222.628215 
L 177.244302 220.422556 
L 177.395487 220.422556 
L 177.502736 219.099161 
L 177.609378 219.099161 
L 177.715419 216.452371 
L 177.778757 216.452371 
L 177.88385 215.570107 
L 177.967504 215.570107 
L 177.967504 214.246712 
L 178.09229 214.246712 
L 178.09229 213.80558 
L 178.216255 213.80558 
L 178.318938 212.041054 
L 178.359855 212.041054 
L 178.441423 209.394263 
L 178.542888 209.394263 
L 178.603505 205.86521 
L 178.764203 205.86521 
L 178.764203 205.424078 
L 178.903696 205.424078 
L 178.982944 203.21842 
L 179.140447 203.21842 
L 179.199172 202.336156 
L 179.296641 202.336156 
L 179.296641 201.453893 
L 179.509312 201.453893 
L 179.586055 198.807102 
L 179.681545 198.807102 
L 179.681545 198.365971 
L 179.871084 198.365971 
L 179.965142 197.042576 
L 180.096038 197.042576 
L 180.13327 195.71918 
L 180.22603 195.71918 
L 180.244527 193.954654 
L 180.391852 193.954654 
L 180.501594 191.307863 
L 180.556226 191.307863 
L 180.556226 190.866732 
L 180.70114 190.866732 
L 180.773181 188.219941 
L 180.952084 188.219941 
L 181.058615 185.13202 
L 181.111655 185.13202 
L 181.111655 183.808624 
L 181.252369 183.808624 
L 181.357217 182.485229 
L 181.374636 182.485229 
L 181.478807 178.956176 
L 181.496113 178.956176 
L 181.582404 177.191649 
L 181.651154 177.191649 
L 181.736739 176.309385 
L 181.804928 176.309385 
L 181.83893 174.98599 
L 181.974326 174.98599 
L 182.008023 173.662595 
L 182.092004 173.662595 
L 182.142212 172.3392 
L 182.225597 172.3392 
L 182.275451 171.456937 
L 182.374764 171.456937 
L 182.440683 169.69241 
L 182.489971 169.69241 
L 182.571832 167.486751 
L 182.685842 167.486751 
L 182.718289 165.722224 
L 182.847523 165.722224 
L 182.911809 163.516566 
L 182.975876 163.516566 
L 183.055653 161.752039 
L 183.229982 161.752039 
L 183.340084 157.781854 
L 183.433946 157.781854 
L 183.542864 154.693932 
L 183.60482 154.693932 
L 183.697374 152.488273 
L 183.820075 152.488273 
L 183.865883 147.635824 
L 183.957164 147.635824 
L 184.048005 143.224507 
L 184.078188 143.224507 
L 184.168447 139.695454 
L 184.30303 139.695454 
L 184.407043 138.372059 
L 184.421855 138.372059 
L 184.510485 134.843005 
L 184.539935 134.843005 
L 184.642651 130.87282 
L 184.686501 130.87282 
L 184.686501 130.431688 
L 184.81744 130.431688 
L 184.918655 128.226029 
L 185.019329 128.226029 
L 185.09091 126.020371 
L 185.16222 126.020371 
L 185.261602 122.491317 
L 185.275757 122.491317 
L 185.275757 121.609054 
L 185.402672 121.609054 
L 185.416721 118.08 
L 185.542692 118.08 
L 185.612313 114.992078 
L 185.79213 114.992078 
L 185.847115 113.668683 
L 185.91562 113.668683 
L 185.929291 112.345288 
L 186.051887 112.345288 
L 186.160194 109.257366 
L 186.173689 109.257366 
L 186.281299 104.846049 
L 186.348244 104.846049 
L 186.374956 102.199259 
L 186.547662 102.199259 
L 186.65316 97.787941 
L 186.679442 97.787941 
L 186.771142 95.141151 
L 186.810306 95.141151 
L 186.849388 92.935493 
L 186.927309 92.935493 
L 186.940265 91.612098 
L 187.082191 91.612098 
L 187.184741 86.759649 
L 187.324842 86.759649 
L 187.350203 84.112859 
L 187.489081 84.112859 
L 187.489081 83.671727 
L 187.60195 83.671727 
L 187.626941 81.466068 
L 187.726572 81.466068 
L 187.825678 77.937015 
L 187.83803 77.937015 
L 187.936552 76.61362 
L 187.997867 76.61362 
L 188.095558 73.525698 
L 188.180623 73.525698 
L 188.289431 71.761171 
L 188.313525 71.761171 
L 188.421569 69.11438 
L 188.433535 69.11438 
L 188.517089 66.908722 
L 188.588413 66.908722 
L 188.683092 64.261932 
L 188.706688 64.261932 
L 188.765547 62.497405 
L 188.824224 62.497405 
L 188.824224 62.056273 
L 189.022364 62.056273 
L 189.080246 57.203824 
L 189.14947 57.203824 
L 189.22991 54.998166 
L 189.298587 54.998166 
L 189.344232 53.233639 
L 189.570812 53.233639 
L 189.615802 51.910244 
L 189.716638 51.910244 
L 189.772426 50.145717 
L 189.905645 50.145717 
L 189.938803 47.940059 
L 190.092771 47.940059 
L 190.180191 44.411005 
L 190.223749 44.411005 
L 190.256351 43.08761 
L 190.418521 43.08761 
L 190.525862 39.999688 
L 190.600639 39.999688 
L 190.600639 39.117424 
L 190.84426 39.117424 
L 190.917784 38.235161 
L 190.980576 38.235161 
L 191.084767 36.029502 
L 191.209038 36.029502 
L 191.209038 35.588371 
L 191.556748 35.588371 
L 191.627544 34.264976 
L 191.708129 34.264976 
L 191.718178 32.059317 
L 192.056685 32.059317 
L 192.056685 31.618185 
L 192.330954 31.618185 
L 192.427946 29.412527 
L 192.735002 29.412527 
L 192.735002 28.971395 
L 193.083898 28.971395 
L 193.083898 27.648 
L 360.8064 27.648 
L 360.8064 27.648 
" style="fill:none;stroke:#ff00ff;stroke-linecap:square;stroke-width:1.5;"/>
   </g>
   <g id="line2d_35">
    <defs>
     <path d="M -0 8.485281 
L 5.091169 0 
L 0 -8.485281 
L -5.091169 -0 
z
" id="m5e1dd464c2" style="stroke:#ff00ff;stroke-linejoin:miter;stroke-width:1.5;"/>
    </defs>
    <g>
     <use style="fill-opacity:0;stroke:#ff00ff;stroke-linejoin:miter;stroke-width:1.5;" x="181.582404" xlink:href="#m5e1dd464c2" y="177.63278"/>
     <use style="fill-opacity:0;stroke:#ff00ff;stroke-linejoin:miter;stroke-width:1.5;" x="193.083898" xlink:href="#m5e1dd464c2" y="28.971395"/>
     <use style="fill-opacity:0;stroke:#ff00ff;stroke-linejoin:miter;stroke-width:1.5;" x="193.083898" xlink:href="#m5e1dd464c2" y="27.648"/>
     <use style="fill-opacity:0;stroke:#ff00ff;stroke-linejoin:miter;stroke-width:1.5;" x="193.083898" xlink:href="#m5e1dd464c2" y="27.648"/>
     <use style="fill-opacity:0;stroke:#ff00ff;stroke-linejoin:miter;stroke-width:1.5;" x="360.8064" xlink:href="#m5e1dd464c2" y="27.648"/>
    </g>
   </g>
   <g id="line2d_36">
    <path style="fill:none;stroke:#ff00ff;stroke-linecap:square;stroke-width:1.5;"/>
    <g/>
   </g>
   <g id="line2d_37">
    <defs>
     <path d="M 0 1.5 
C 0.397805 1.5 0.77937 1.341951 1.06066 1.06066 
C 1.341951 0.77937 1.5 0.397805 1.5 0 
C 1.5 -0.397805 1.341951 -0.77937 1.06066 -1.06066 
C 0.77937 -1.341951 0.397805 -1.5 0 -1.5 
C -0.397805 -1.5 -0.77937 -1.341951 -1.06066 -1.06066 
C -1.341951 -0.77937 -1.5 -0.397805 -1.5 0 
C -1.5 0.397805 -1.341951 0.77937 -1.06066 1.06066 
C -0.77937 1.341951 -0.397805 1.5 0 1.5 
z
" id="m6476119d5e" style="stroke:#ff7500;"/>
    </defs>
    <g>
     <use style="fill:#ff7500;stroke:#ff7500;" x="193.42644" xlink:href="#m6476119d5e" y="27.648"/>
     <use style="fill:#ff7500;stroke:#ff7500;" x="193.42644" xlink:href="#m6476119d5e" y="27.648"/>
    </g>
   </g>
   <g id="line2d_38">
    <path d="M 151.306379 298.944 
L 151.306379 298.502868 
L 153.266838 298.502868 
L 153.266838 297.179473 
L 153.877408 297.179473 
L 153.877408 296.738341 
L 154.39587 296.738341 
L 154.468783 295.414946 
L 154.829169 295.414946 
L 154.829169 294.532683 
L 155.666927 294.532683 
L 155.666927 293.209288 
L 156.072219 293.209288 
L 156.072219 292.768156 
L 157.048816 292.768156 
L 157.048816 292.327024 
L 157.238196 292.327024 
L 157.238196 291.444761 
L 158.630038 291.444761 
L 158.630038 290.562498 
L 158.804221 290.562498 
L 158.804221 289.680234 
L 159.14782 289.680234 
L 159.14782 289.239102 
L 159.429436 289.239102 
L 159.429436 288.797971 
L 159.761902 288.797971 
L 159.761902 288.356839 
L 160.196243 288.356839 
L 160.303279 287.033444 
L 160.4627 287.033444 
L 160.515541 285.710049 
L 160.933013 285.710049 
L 160.984551 284.827785 
L 161.087207 284.827785 
L 161.087207 284.386654 
L 161.592245 284.386654 
L 161.592245 283.945522 
L 161.839769 283.945522 
L 161.839769 283.50439 
L 162.084079 283.50439 
L 162.084079 282.622127 
L 162.277267 282.622127 
L 162.277267 282.180995 
L 162.610645 282.180995 
L 162.610645 281.298732 
L 162.891769 281.298732 
L 162.984551 279.975337 
L 163.030771 279.975337 
L 163.030771 279.534205 
L 163.168754 279.534205 
L 163.168754 279.093073 
L 163.305732 279.093073 
L 163.305732 278.651941 
L 163.755253 278.651941 
L 163.79962 277.769678 
L 163.932096 277.769678 
L 164.019898 276.005151 
L 164.107292 276.005151 
L 164.107292 275.56402 
L 164.367065 275.56402 
L 164.410013 274.240624 
L 164.580835 274.240624 
L 164.580835 273.799493 
L 164.834193 273.799493 
L 164.917893 272.476098 
L 164.959603 272.476098 
L 165.042749 271.152702 
L 165.166781 271.152702 
L 165.166781 270.270439 
L 165.290001 270.270439 
L 165.290001 269.388176 
L 165.774966 269.388176 
L 165.854592 267.623649 
L 166.012839 267.623649 
L 166.012839 267.182517 
L 166.169767 267.182517 
L 166.208795 265.859122 
L 166.286609 265.859122 
L 166.286609 264.976859 
L 166.40273 264.976859 
L 166.40273 264.535727 
L 166.594686 264.535727 
L 166.632844 263.653463 
L 166.972821 263.653463 
L 166.972821 263.212332 
L 167.159075 263.212332 
L 167.196106 261.888937 
L 167.306762 261.888937 
L 167.380174 261.006673 
L 167.453299 261.006673 
L 167.453299 260.565541 
L 167.634879 260.565541 
L 167.634879 259.683278 
L 167.778892 259.683278 
L 167.778892 259.242146 
L 168.309328 259.242146 
L 168.378936 258.359883 
L 168.448287 258.359883 
L 168.551837 256.154224 
L 168.586228 256.154224 
L 168.689024 254.830829 
L 168.859111 254.830829 
L 168.859111 254.389698 
L 169.161446 254.389698 
L 169.161446 253.507434 
L 169.327334 253.507434 
L 169.327334 253.066302 
L 169.976632 253.066302 
L 170.072123 250.860644 
L 170.198694 250.860644 
L 170.293066 249.537249 
L 170.511445 249.537249 
L 170.511445 249.096117 
L 170.69663 249.096117 
L 170.69663 248.213854 
L 170.819081 248.213854 
L 170.9104 246.890459 
L 171.061619 246.890459 
L 171.091717 246.008195 
L 171.449192 246.008195 
L 171.449192 245.567063 
L 171.71291 245.567063 
L 171.71291 245.125932 
L 172.001658 245.125932 
L 172.058879 243.802537 
L 172.229507 243.802537 
L 172.229507 243.361405 
L 172.342405 243.361405 
L 172.426636 242.03801 
L 172.593974 242.03801 
L 172.704712 240.714615 
L 172.759838 240.714615 
L 172.869606 239.832351 
L 172.978738 239.832351 
L 172.978738 239.39122 
L 173.114269 239.39122 
L 173.195121 236.744429 
L 173.275627 236.744429 
L 173.35579 235.421034 
L 173.462145 235.421034 
L 173.462145 233.656507 
L 173.594249 233.656507 
L 173.673069 232.774244 
L 173.725432 232.774244 
L 173.77765 230.568585 
L 173.881654 230.568585 
L 173.881654 230.127454 
L 174.036588 230.127454 
L 174.087951 229.24519 
L 174.164733 229.24519 
L 174.164733 228.804059 
L 174.367966 228.804059 
L 174.393216 226.157268 
L 174.544011 226.157268 
L 174.544011 225.275005 
L 174.718424 225.275005 
L 174.79268 223.95161 
L 174.940319 223.95161 
L 175.038105 222.628215 
L 175.086808 222.628215 
L 175.159627 221.745951 
L 175.280369 221.745951 
L 175.32845 220.422556 
L 175.400341 220.422556 
L 175.448117 219.540293 
L 175.519553 219.540293 
L 175.519553 219.099161 
L 175.755734 219.099161 
L 175.849382 216.452371 
L 176.012153 216.452371 
L 176.035292 215.570107 
L 176.127562 215.570107 
L 176.127562 214.246712 
L 176.287954 214.246712 
L 176.310755 213.364449 
L 176.401688 213.364449 
L 176.401688 212.482185 
L 176.582244 212.482185 
L 176.671876 209.394263 
L 176.916185 209.394263 
L 177.026195 206.747473 
L 177.070019 206.747473 
L 177.157362 205.424078 
L 177.287622 205.424078 
L 177.352415 204.541815 
L 177.45991 204.541815 
L 177.566794 201.895024 
L 177.778757 201.895024 
L 177.88385 200.130498 
L 177.925723 200.130498 
L 178.03 198.807102 
L 178.07155 198.807102 
L 178.154375 197.483707 
L 178.216255 197.483707 
L 178.236837 196.601444 
L 178.441423 196.601444 
L 178.441423 195.278049 
L 178.563116 195.278049 
L 178.563116 194.836917 
L 178.804164 194.836917 
L 178.903696 193.954654 
L 178.943362 193.954654 
L 178.982944 192.631259 
L 179.081538 192.631259 
L 179.160042 191.307863 
L 179.199172 191.307863 
L 179.296641 189.543337 
L 179.335488 189.543337 
L 179.335488 187.77881 
L 179.509312 187.77881 
L 179.586055 183.808624 
L 179.624309 183.808624 
L 179.624309 183.367493 
L 179.965142 183.367493 
L 180.058732 180.279571 
L 180.096038 180.279571 
L 180.188981 178.956176 
L 180.207514 178.956176 
L 180.318334 175.868254 
L 180.391852 175.868254 
L 180.483348 174.103727 
L 180.59256 174.103727 
L 180.70114 171.456937 
L 180.809098 171.456937 
L 180.862845 169.69241 
L 180.952084 169.69241 
L 181.023172 166.604488 
L 181.129302 166.604488 
L 181.234837 165.281093 
L 181.322333 165.281093 
L 181.409423 163.957698 
L 181.444147 163.957698 
L 181.444147 163.075434 
L 181.565178 163.075434 
L 181.616811 161.752039 
L 181.736739 161.752039 
L 181.83893 159.54638 
L 181.90675 159.54638 
L 181.974326 157.781854 
L 182.142212 157.781854 
L 182.24223 156.89959 
L 182.29204 156.89959 
L 182.391266 154.2528 
L 182.555488 154.2528 
L 182.604477 152.488273 
L 182.702072 152.488273 
L 182.783017 149.841483 
L 182.815298 149.841483 
L 182.815298 149.400351 
L 182.943869 149.400351 
L 182.943869 148.95922 
L 183.055653 148.95922 
L 183.119233 146.312429 
L 183.214201 146.312429 
L 183.308692 144.106771 
L 183.35576 144.106771 
L 183.46513 142.342244 
L 183.496262 142.342244 
L 183.58935 138.372059 
L 183.697374 138.372059 
L 183.804781 135.725268 
L 183.987493 135.725268 
L 184.048005 133.078478 
L 184.123372 133.078478 
L 184.228381 126.902634 
L 184.273206 126.902634 
L 184.332807 123.814712 
L 184.407043 123.814712 
L 184.495742 122.050185 
L 184.701095 122.050185 
L 184.802936 118.962263 
L 184.81744 118.962263 
L 184.860885 118.08 
L 185.00498 118.08 
L 185.076616 116.315473 
L 185.204877 116.315473 
L 185.289901 112.78642 
L 185.374543 112.78642 
L 185.458805 110.139629 
L 185.486809 110.139629 
L 185.556637 107.492839 
L 185.598409 107.492839 
L 185.681677 102.64039 
L 185.764578 102.64039 
L 185.860836 100.875863 
L 185.929291 100.875863 
L 186.024713 98.670205 
L 186.051887 98.670205 
L 186.051887 98.229073 
L 186.173689 98.229073 
L 186.200649 96.023415 
L 186.294707 96.023415 
L 186.348244 94.70002 
L 186.414952 94.70002 
L 186.507947 92.935493 
L 186.626841 92.935493 
L 186.679442 90.729834 
L 186.771142 90.729834 
L 186.849388 88.524176 
L 187.017812 88.524176 
L 187.09504 85.877385 
L 187.223054 85.877385 
L 187.248553 84.55399 
L 187.337526 84.55399 
L 187.426081 79.26041 
L 187.451306 79.26041 
L 187.489081 77.937015 
L 187.564402 77.937015 
L 187.651898 77.054751 
L 187.701713 77.054751 
L 187.80095 69.996644 
L 187.825678 69.996644 
L 187.936552 69.11438 
L 187.961102 69.11438 
L 188.058983 66.46759 
L 188.083374 66.46759 
L 188.144214 64.703063 
L 188.24115 64.703063 
L 188.24115 64.261932 
L 188.505176 64.261932 
L 188.576544 62.056273 
L 188.683092 62.056273 
L 188.742026 60.291746 
L 188.835937 60.291746 
L 188.882717 58.968351 
L 189.033955 58.968351 
L 189.033955 58.086088 
L 189.195478 58.086088 
L 189.298587 54.998166 
L 189.389767 54.998166 
L 189.457863 53.674771 
L 189.536998 53.674771 
L 189.536998 52.792507 
L 189.660685 52.792507 
L 189.716638 50.145717 
L 189.828049 50.145717 
L 189.894579 46.175532 
L 190.321387 46.175532 
L 190.364619 44.852137 
L 190.515156 44.852137 
L 190.611297 43.969873 
L 190.854781 43.969873 
L 190.907298 40.881951 
L 191.001461 40.881951 
L 191.095154 39.999688 
L 191.301706 39.999688 
L 191.352992 38.235161 
L 191.485684 38.235161 
L 191.485684 36.470634 
L 191.637636 36.470634 
L 191.637636 36.029502 
L 191.838348 36.029502 
L 191.838348 34.706107 
L 192.046816 34.706107 
L 192.086263 31.177054 
L 192.272518 31.177054 
L 192.272518 30.735922 
L 192.476255 30.735922 
L 192.476255 30.29479 
L 192.735002 30.29479 
L 192.735002 28.971395 
L 193.42644 28.971395 
L 193.42644 27.648 
L 360.8064 27.648 
L 360.8064 27.648 
" style="fill:none;stroke:#ff7500;stroke-linecap:square;stroke-width:1.5;"/>
   </g>
   <g id="line2d_39">
    <defs>
     <path d="M 0 -6 
L -1.347084 -1.854102 
L -5.706339 -1.854102 
L -2.179628 0.708204 
L -3.526712 4.854102 
L -0 2.291796 
L 3.526712 4.854102 
L 2.179628 0.708204 
L 5.706339 -1.854102 
L 1.347084 -1.854102 
z
" id="m4f85c93060" style="stroke:#ff7500;stroke-linejoin:bevel;stroke-width:1.5;"/>
    </defs>
    <g>
     <use style="fill-opacity:0;stroke:#ff7500;stroke-linejoin:bevel;stroke-width:1.5;" x="185.860836" xlink:href="#m4f85c93060" y="100.875863"/>
     <use style="fill-opacity:0;stroke:#ff7500;stroke-linejoin:bevel;stroke-width:1.5;" x="193.42644" xlink:href="#m4f85c93060" y="28.971395"/>
     <use style="fill-opacity:0;stroke:#ff7500;stroke-linejoin:bevel;stroke-width:1.5;" x="193.42644" xlink:href="#m4f85c93060" y="27.648"/>
     <use style="fill-opacity:0;stroke:#ff7500;stroke-linejoin:bevel;stroke-width:1.5;" x="193.42644" xlink:href="#m4f85c93060" y="27.648"/>
     <use style="fill-opacity:0;stroke:#ff7500;stroke-linejoin:bevel;stroke-width:1.5;" x="360.8064" xlink:href="#m4f85c93060" y="27.648"/>
    </g>
   </g>
   <g id="line2d_40">
    <path style="fill:none;stroke:#ff7500;stroke-linecap:square;stroke-width:1.5;"/>
    <g/>
   </g>
   <g id="line2d_41">
    <defs>
     <path d="M 0 1.5 
C 0.397805 1.5 0.77937 1.341951 1.06066 1.06066 
C 1.341951 0.77937 1.5 0.397805 1.5 0 
C 1.5 -0.397805 1.341951 -0.77937 1.06066 -1.06066 
C 0.77937 -1.341951 0.397805 -1.5 0 -1.5 
C -0.397805 -1.5 -0.77937 -1.341951 -1.06066 -1.06066 
C -1.341951 -0.77937 -1.5 -0.397805 -1.5 0 
C -1.5 0.397805 -1.341951 0.77937 -1.06066 1.06066 
C -0.77937 1.341951 -0.397805 1.5 0 1.5 
z
" id="m3e53452c85" style="stroke:#6495ed;"/>
    </defs>
    <g>
     <use style="fill:#6495ed;stroke:#6495ed;" x="192.744517" xlink:href="#m3e53452c85" y="27.648"/>
     <use style="fill:#6495ed;stroke:#6495ed;" x="192.744517" xlink:href="#m3e53452c85" y="27.648"/>
    </g>
   </g>
   <g id="line2d_42">
    <path d="M 148.32748 298.944 
L 148.32748 298.502868 
L 150.425115 298.502868 
L 150.425115 298.061737 
L 153.952355 298.061737 
L 153.952355 297.179473 
L 156.921495 297.179473 
L 156.921495 295.414946 
L 158.454228 295.414946 
L 158.454228 294.973815 
L 158.861925 294.973815 
L 158.861925 294.532683 
L 159.033983 294.532683 
L 159.090988 293.65042 
L 160.673181 293.65042 
L 160.673181 293.209288 
L 160.933013 293.209288 
L 160.933013 292.768156 
L 161.087207 292.768156 
L 161.087207 292.327024 
L 161.290852 292.327024 
L 161.290852 291.885893 
L 161.442152 291.885893 
L 161.442152 291.444761 
L 161.642011 291.444761 
L 161.691646 290.121366 
L 162.03547 290.121366 
L 162.03547 289.680234 
L 162.325256 289.680234 
L 162.420867 288.356839 
L 162.798527 288.356839 
L 162.798527 287.915707 
L 163.214524 287.915707 
L 163.214524 287.474576 
L 163.351171 287.474576 
L 163.44172 286.592312 
L 163.486831 286.592312 
L 163.576732 285.710049 
L 163.888041 285.710049 
L 163.932096 284.386654 
L 164.019898 284.386654 
L 164.019898 283.945522 
L 164.367065 283.945522 
L 164.410013 283.063259 
L 164.750119 283.063259 
L 164.750119 282.622127 
L 165.001222 282.622127 
L 165.084184 279.975337 
L 165.330896 279.975337 
L 165.330896 279.534205 
L 165.614697 279.534205 
L 165.614697 279.093073 
L 165.814821 279.093073 
L 165.814821 278.651941 
L 165.973402 278.651941 
L 166.052194 276.887415 
L 166.130658 276.887415 
L 166.130658 275.56402 
L 166.746854 275.56402 
L 166.746854 275.122888 
L 166.972821 275.122888 
L 167.01022 273.799493 
L 167.196106 273.799493 
L 167.233064 272.917229 
L 167.380174 272.917229 
L 167.453299 271.152702 
L 167.670986 271.152702 
L 167.670986 270.711571 
L 167.850487 270.711571 
L 167.850487 270.270439 
L 168.063651 270.270439 
L 168.134173 268.947044 
L 168.274427 268.947044 
L 168.344164 267.623649 
L 168.620556 267.623649 
L 168.689024 266.300254 
L 168.79126 266.300254 
L 168.892945 264.535727 
L 168.994082 264.535727 
L 168.994082 263.653463 
L 169.128092 263.653463 
L 169.128092 263.212332 
L 169.261154 263.212332 
L 169.360337 261.888937 
L 169.426169 261.888937 
L 169.426169 261.447805 
L 169.557146 261.447805 
L 169.557146 260.565541 
L 170.198694 260.565541 
L 170.261661 259.683278 
L 170.573376 259.683278 
L 170.665892 258.359883 
L 170.69663 258.359883 
L 170.727317 257.47762 
L 170.880009 257.47762 
L 170.880009 257.036488 
L 171.121768 257.036488 
L 171.121768 256.595356 
L 171.271304 256.595356 
L 171.360458 255.713093 
L 171.537509 255.713093 
L 171.566857 254.830829 
L 171.828941 254.830829 
L 171.915498 253.066302 
L 171.944262 253.066302 
L 171.944262 250.860644 
L 172.087425 250.860644 
L 172.087425 249.537249 
L 172.314244 249.537249 
L 172.314244 248.213854 
L 172.510491 248.213854 
L 172.593974 247.33159 
L 172.677089 247.33159 
L 172.78734 244.6848 
L 173.060174 244.6848 
L 173.141258 243.802537 
L 173.24883 243.802537 
L 173.275627 242.920273 
L 173.409043 242.920273 
L 173.435613 242.03801 
L 173.567903 242.03801 
L 173.567903 241.596878 
L 173.725432 241.596878 
L 173.725432 241.155746 
L 173.855707 241.155746 
L 173.855707 239.832351 
L 174.010854 239.832351 
L 174.036588 238.950088 
L 174.139174 238.950088 
L 174.241203 237.626693 
L 174.342681 237.626693 
L 174.342681 237.185561 
L 174.544011 237.185561 
L 174.544011 236.303298 
L 174.693607 236.303298 
L 174.718424 234.979902 
L 174.866645 234.979902 
L 174.866645 234.097639 
L 174.989276 234.097639 
L 175.086808 232.774244 
L 175.32845 232.774244 
L 175.424244 231.009717 
L 175.448117 231.009717 
L 175.448117 230.127454 
L 175.708734 230.127454 
L 175.802616 228.362927 
L 175.965791 228.362927 
L 176.058402 227.039532 
L 176.104537 227.039532 
L 176.150559 226.157268 
L 176.287954 226.157268 
L 176.378996 223.95161 
L 176.424352 223.95161 
L 176.492182 223.069346 
L 176.559769 223.069346 
L 176.559769 222.628215 
L 176.694218 222.628215 
L 176.694218 222.187083 
L 176.894106 222.187083 
L 176.982268 219.099161 
L 177.04812 219.099161 
L 177.157362 217.775766 
L 177.179135 217.775766 
L 177.265975 216.893502 
L 177.309244 216.893502 
L 177.395487 214.246712 
L 177.43846 214.246712 
L 177.481335 212.923317 
L 177.609378 212.923317 
L 177.694258 212.041054 
L 177.820865 212.041054 
L 177.862878 210.276527 
L 177.988359 210.276527 
L 177.988359 209.835395 
L 178.175024 209.835395 
L 178.277932 206.306341 
L 178.421064 206.306341 
L 178.482075 204.541815 
L 178.603505 204.541815 
L 178.684026 201.453893 
L 178.824112 201.453893 
L 178.903696 200.130498 
L 178.943362 200.130498 
L 178.982944 198.807102 
L 179.101194 198.807102 
L 179.179617 197.483707 
L 179.296641 197.483707 
L 179.354881 196.160312 
L 179.528527 196.160312 
L 179.586055 193.954654 
L 179.643407 193.954654 
L 179.719606 193.07239 
L 179.776554 193.07239 
L 179.871084 189.543337 
L 179.946368 189.543337 
L 180.040051 185.573151 
L 180.188981 185.573151 
L 180.263006 182.926361 
L 180.483348 182.926361 
L 180.59256 180.279571 
L 180.665016 180.279571 
L 180.755196 178.073912 
L 180.809098 178.073912 
L 180.862845 176.750517 
L 180.93427 176.750517 
L 181.023172 174.103727 
L 181.076312 174.103727 
L 181.182144 171.898068 
L 181.287383 171.898068 
L 181.339783 168.810146 
L 181.513403 168.810146 
L 181.616811 167.927883 
L 181.63399 167.927883 
L 181.702552 166.604488 
L 181.753809 166.604488 
L 181.753809 166.163356 
L 181.889818 166.163356 
L 181.957455 163.957698 
L 182.058457 163.957698 
L 182.108755 162.193171 
L 182.192288 162.193171 
L 182.275451 159.987512 
L 182.308614 159.987512 
L 182.374764 156.89959 
L 182.506372 156.89959 
L 182.604477 154.2528 
L 182.620778 154.2528 
L 182.620778 153.811668 
L 182.799165 153.811668 
L 182.863615 151.164878 
L 183.007827 151.164878 
L 183.103358 148.076956 
L 183.135094 148.076956 
L 183.229982 146.312429 
L 183.324394 146.312429 
L 183.433946 141.018849 
L 183.46513 141.018849 
L 183.558372 137.048663 
L 183.58935 137.048663 
L 183.666573 135.725268 
L 183.712756 135.725268 
L 183.743481 133.51961 
L 183.896359 133.51961 
L 183.987493 131.313951 
L 184.063102 131.313951 
L 184.138409 129.549424 
L 184.198438 129.549424 
L 184.288124 128.226029 
L 184.317924 128.226029 
L 184.362536 126.020371 
L 184.436656 126.020371 
L 184.525216 122.050185 
L 184.598699 122.050185 
L 184.701095 121.167922 
L 184.715677 121.167922 
L 184.744809 118.962263 
L 184.889792 118.962263 
L 184.976249 116.315473 
L 185.033667 116.315473 
L 185.133729 113.668683 
L 185.219074 113.668683 
L 185.261602 111.463024 
L 185.346371 111.463024 
L 185.416721 109.698498 
L 185.681677 109.698498 
L 185.764578 107.051707 
L 185.860836 107.051707 
L 185.970245 103.081522 
L 186.038305 103.081522 
L 186.133176 101.758127 
L 186.160194 101.758127 
L 186.227571 99.552468 
L 186.294707 99.552468 
L 186.374956 96.023415 
L 186.414952 96.023415 
L 186.521195 92.935493 
L 186.547662 92.935493 
L 186.626841 90.729834 
L 186.810306 90.729834 
L 186.875397 87.641912 
L 186.953212 87.641912 
L 187.017812 85.877385 
L 187.082191 85.877385 
L 187.171953 84.55399 
L 187.197521 84.55399 
L 187.274017 82.789463 
L 187.426081 82.789463 
L 187.501655 79.26041 
L 187.589442 79.26041 
L 187.689272 75.731356 
L 187.763798 75.731356 
L 187.813318 73.966829 
L 187.875036 73.966829 
L 187.91197 71.761171 
L 188.022338 71.761171 
L 188.022338 71.320039 
L 188.180623 71.320039 
L 188.265306 64.703063 
L 188.301482 64.703063 
L 188.409595 61.615141 
L 188.46939 61.615141 
L 188.552785 58.086088 
L 188.765547 58.086088 
L 188.78904 56.321561 
L 188.917726 56.321561 
L 188.917726 55.880429 
L 189.057115 55.880429 
L 189.13795 54.557034 
L 189.22991 54.557034 
L 189.275723 52.792507 
L 189.367013 52.792507 
L 189.412493 51.910244 
L 189.548276 51.910244 
L 189.638257 50.586849 
L 189.772426 50.586849 
L 189.839153 47.940059 
L 189.894579 47.940059 
L 189.927757 46.616663 
L 190.070853 46.616663 
L 190.169286 44.411005 
L 190.19109 44.411005 
L 190.299733 39.558556 
L 190.321387 39.558556 
L 190.321387 38.676293 
L 190.515156 38.676293 
L 190.621949 35.588371 
L 190.949206 35.588371 
L 190.949206 35.147239 
L 191.301706 35.147239 
L 191.301706 34.264976 
L 191.526325 34.264976 
L 191.607343 32.059317 
L 191.957755 32.059317 
L 192.06655 29.853659 
L 192.135457 29.853659 
L 192.194319 28.530263 
L 192.744517 28.530263 
L 192.744517 27.648 
L 360.8064 27.648 
L 360.8064 27.648 
" style="fill:none;stroke:#6495ed;stroke-linecap:square;stroke-width:1.5;"/>
   </g>
   <g id="line2d_43">
    <defs>
     <path d="M -0 6 
L 6 -6 
L -6 -6 
z
" id="mec1757471b" style="stroke:#6495ed;stroke-linejoin:miter;stroke-width:1.5;"/>
    </defs>
    <g>
     <use style="fill-opacity:0;stroke:#6495ed;stroke-linejoin:miter;stroke-width:1.5;" x="183.135094" xlink:href="#mec1757471b" y="147.194693"/>
     <use style="fill-opacity:0;stroke:#6495ed;stroke-linejoin:miter;stroke-width:1.5;" x="192.744517" xlink:href="#mec1757471b" y="28.530263"/>
     <use style="fill-opacity:0;stroke:#6495ed;stroke-linejoin:miter;stroke-width:1.5;" x="192.744517" xlink:href="#mec1757471b" y="27.648"/>
     <use style="fill-opacity:0;stroke:#6495ed;stroke-linejoin:miter;stroke-width:1.5;" x="192.744517" xlink:href="#mec1757471b" y="27.648"/>
     <use style="fill-opacity:0;stroke:#6495ed;stroke-linejoin:miter;stroke-width:1.5;" x="360.8064" xlink:href="#mec1757471b" y="27.648"/>
    </g>
   </g>
   <g id="line2d_44">
    <path style="fill:none;stroke:#6495ed;stroke-linecap:square;stroke-width:1.5;"/>
    <g/>
   </g>
   <g id="line2d_45">
    <defs>
     <path d="M 0 1.5 
C 0.397805 1.5 0.77937 1.341951 1.06066 1.06066 
C 1.341951 0.77937 1.5 0.397805 1.5 0 
C 1.5 -0.397805 1.341951 -0.77937 1.06066 -1.06066 
C 0.77937 -1.341951 0.397805 -1.5 0 -1.5 
C -0.397805 -1.5 -0.77937 -1.341951 -1.06066 -1.06066 
C -1.341951 -0.77937 -1.5 -0.397805 -1.5 0 
C -1.5 0.397805 -1.341951 0.77937 -1.06066 1.06066 
C -0.77937 1.341951 -0.397805 1.5 0 1.5 
z
" id="m2f3e7a424f" style="stroke:#ff0000;"/>
    </defs>
    <g>
     <use style="fill:#ff0000;stroke:#ff0000;" x="332.193046" xlink:href="#m2f3e7a424f" y="265.859122"/>
     <use style="fill:#ff0000;stroke:#ff0000;" x="332.193046" xlink:href="#m2f3e7a424f" y="265.859122"/>
    </g>
   </g>
   <g id="line2d_46">
    <path d="M 191.048366 298.944 
L 191.048366 297.620605 
L 192.002338 297.620605 
L 192.002338 297.179473 
L 193.228155 297.179473 
L 193.228155 296.738341 
L 196.473121 296.738341 
L 196.473121 296.29721 
L 200.734668 296.29721 
L 200.734668 295.856078 
L 207.531167 295.856078 
L 207.531167 295.414946 
L 213.655275 295.414946 
L 213.655275 294.973815 
L 220.600658 294.973815 
L 220.600658 294.532683 
L 223.635375 294.532683 
L 223.635375 294.091551 
L 223.927713 294.091551 
L 223.927713 293.209288 
L 224.364961 293.209288 
L 224.364961 292.768156 
L 226.031868 292.768156 
L 226.031868 291.885893 
L 231.965209 291.885893 
L 231.965209 291.444761 
L 234.144721 291.444761 
L 234.144721 291.003629 
L 235.57308 291.003629 
L 235.57308 290.121366 
L 236.045442 290.121366 
L 236.045442 289.680234 
L 236.937857 289.680234 
L 236.937857 289.239102 
L 237.725528 289.239102 
L 237.725528 288.356839 
L 242.901375 288.356839 
L 242.901375 287.033444 
L 246.300906 287.033444 
L 246.300906 286.592312 
L 248.966197 286.592312 
L 248.966197 286.15118 
L 249.878266 286.15118 
L 249.878266 285.710049 
L 251.149491 285.710049 
L 251.149491 284.386654 
L 251.478429 284.386654 
L 251.478429 283.945522 
L 254.940774 283.945522 
L 254.940774 283.50439 
L 259.369309 283.50439 
L 259.369309 282.622127 
L 266.106616 282.622127 
L 266.106616 282.180995 
L 267.161697 282.180995 
L 267.161697 281.298732 
L 268.785478 281.298732 
L 268.785478 280.8576 
L 274.958006 280.8576 
L 274.958006 280.416468 
L 276.283014 280.416468 
L 276.283014 279.975337 
L 276.560808 279.975337 
L 276.560808 279.534205 
L 277.876869 279.534205 
L 277.876869 278.21081 
L 281.475949 278.21081 
L 281.475949 277.769678 
L 281.536425 277.769678 
L 281.536425 277.328546 
L 284.597385 277.328546 
L 284.597385 276.887415 
L 285.706317 276.887415 
L 285.706317 276.446283 
L 285.730149 276.446283 
L 285.730149 275.56402 
L 289.795449 275.56402 
L 289.795449 275.122888 
L 296.1588 275.122888 
L 296.1588 274.681756 
L 297.602765 274.681756 
L 297.602765 274.240624 
L 297.62845 274.240624 
L 297.62845 273.799493 
L 298.990953 273.799493 
L 298.990953 272.917229 
L 300.919841 272.917229 
L 300.919841 272.476098 
L 305.252741 272.476098 
L 305.252741 272.034966 
L 307.04901 272.034966 
L 307.04901 271.593834 
L 308.467206 271.593834 
L 308.467206 271.152702 
L 311.356987 271.152702 
L 311.356987 270.711571 
L 312.67243 270.711571 
L 312.67243 270.270439 
L 312.933112 270.270439 
L 312.933112 269.388176 
L 316.484386 269.388176 
L 316.484386 268.947044 
L 317.203426 268.947044 
L 317.203426 268.505912 
L 325.389338 268.505912 
L 325.389338 268.06478 
L 326.024714 268.06478 
L 326.024714 267.623649 
L 327.995704 267.623649 
L 327.995704 267.182517 
L 328.389049 267.182517 
L 328.389049 266.300254 
L 332.193046 266.300254 
L 332.193046 265.859122 
L 360.8064 265.859122 
" style="fill:none;stroke:#ff0000;stroke-linecap:square;stroke-width:1.5;"/>
   </g>
   <g id="line2d_47">
    <defs>
     <path d="M 0 -6 
L -5.196152 -3 
L -5.196152 3 
L -0 6 
L 5.196152 3 
L 5.196152 -3 
z
" id="m0e131a75d4" style="stroke:#ff0000;stroke-linejoin:miter;stroke-width:1.5;"/>
    </defs>
    <g>
     <use style="fill-opacity:0;stroke:#ff0000;stroke-linejoin:miter;stroke-width:1.5;" x="281.536425" xlink:href="#m0e131a75d4" y="277.328546"/>
     <use style="fill-opacity:0;stroke:#ff0000;stroke-linejoin:miter;stroke-width:1.5;" x="332.193046" xlink:href="#m0e131a75d4" y="265.859122"/>
     <use style="fill-opacity:0;stroke:#ff0000;stroke-linejoin:miter;stroke-width:1.5;" x="332.193046" xlink:href="#m0e131a75d4" y="265.859122"/>
     <use style="fill-opacity:0;stroke:#ff0000;stroke-linejoin:miter;stroke-width:1.5;" x="360.8064" xlink:href="#m0e131a75d4" y="265.859122"/>
    </g>
   </g>
   <g id="line2d_48">
    <path style="fill:none;stroke:#ff0000;stroke-linecap:square;stroke-width:1.5;"/>
    <g/>
   </g>
   <g id="line2d_49">
    <path clip-path="url(#pb431c3168d)" d="M 287.215174 275.56402 
" style="fill:none;stroke:#ff0000;stroke-linecap:square;stroke-width:1.5;"/>
    <defs>
     <path d="M -12 12 
L 12 -12 
M -12 -12 
L 12 12 
" id="mc9da6fdafd" style="stroke:#ff0000;"/>
    </defs>
    <g clip-path="url(#pb431c3168d)">
     <use style="fill:#ff0000;stroke:#ff0000;" x="287.215174" xlink:href="#mc9da6fdafd" y="275.56402"/>
    </g>
   </g>
   <g id="line2d_50">
    <defs>
     <path d="M 0 1.5 
C 0.397805 1.5 0.77937 1.341951 1.06066 1.06066 
C 1.341951 0.77937 1.5 0.397805 1.5 0 
C 1.5 -0.397805 1.341951 -0.77937 1.06066 -1.06066 
C 0.77937 -1.341951 0.397805 -1.5 0 -1.5 
C -0.397805 -1.5 -0.77937 -1.341951 -1.06066 -1.06066 
C -1.341951 -0.77937 -1.5 -0.397805 -1.5 0 
C -1.5 0.397805 -1.341951 0.77937 -1.06066 1.06066 
C -0.77937 1.341951 -0.397805 1.5 0 1.5 
z
" id="m4b4f842db3" style="stroke:#9acd32;"/>
    </defs>
    <g>
     <use style="fill:#9acd32;stroke:#9acd32;" x="125.695686" xlink:href="#m4b4f842db3" y="27.648"/>
     <use style="fill:#9acd32;stroke:#9acd32;" x="125.695686" xlink:href="#m4b4f842db3" y="27.648"/>
    </g>
   </g>
   <g id="line2d_51">
    <path d="M 83.678349 298.944 
L 83.678349 244.6848 
L 86.578163 244.6848 
L 86.578163 224.392741 
L 89.090095 224.392741 
L 89.090095 223.95161 
L 91.305777 223.95161 
L 91.305777 219.540293 
L 93.287772 219.540293 
L 93.287772 184.690888 
L 95.080704 184.690888 
L 95.080704 167.04562 
L 96.717523 167.04562 
L 96.717523 163.075434 
L 98.223251 163.075434 
L 98.223251 143.224507 
L 99.617337 143.224507 
L 99.617337 123.37358 
L 100.9152 123.37358 
L 100.9152 107.933971 
L 102.12927 107.933971 
L 102.12927 106.169444 
L 103.269713 106.169444 
L 103.269713 92.494361 
L 104.344952 92.494361 
L 104.344952 74.849093 
L 107.244765 74.849093 
L 107.244765 73.084566 
L 108.956085 73.084566 
L 108.956085 66.026459 
L 109.756698 66.026459 
L 109.756698 45.293268 
L 115.747307 45.293268 
L 115.747307 41.323083 
L 117.899543 41.323083 
L 117.899543 40.881951 
L 119.830627 40.881951 
L 119.830627 32.94158 
L 120.28394 32.94158 
L 120.28394 28.089132 
L 125.695686 28.089132 
L 125.695686 27.648 
L 360.8064 27.648 
" style="fill:none;stroke:#9acd32;stroke-linecap:square;stroke-width:1.5;"/>
   </g>
   <g id="line2d_52">
    <defs>
     <path d="M 0 -6 
L -6 6 
L 6 6 
z
" id="ma4bb194e44" style="stroke:#9acd32;stroke-linejoin:miter;stroke-width:1.5;"/>
    </defs>
    <g>
     <use style="fill-opacity:0;stroke:#9acd32;stroke-linejoin:miter;stroke-width:1.5;" x="91.305777" xlink:href="#ma4bb194e44" y="219.540293"/>
     <use style="fill-opacity:0;stroke:#9acd32;stroke-linejoin:miter;stroke-width:1.5;" x="125.695686" xlink:href="#ma4bb194e44" y="28.089132"/>
     <use style="fill-opacity:0;stroke:#9acd32;stroke-linejoin:miter;stroke-width:1.5;" x="125.695686" xlink:href="#ma4bb194e44" y="27.648"/>
     <use style="fill-opacity:0;stroke:#9acd32;stroke-linejoin:miter;stroke-width:1.5;" x="125.695686" xlink:href="#ma4bb194e44" y="27.648"/>
     <use style="fill-opacity:0;stroke:#9acd32;stroke-linejoin:miter;stroke-width:1.5;" x="360.8064" xlink:href="#ma4bb194e44" y="27.648"/>
    </g>
   </g>
   <g id="line2d_53">
    <path style="fill:none;stroke:#9acd32;stroke-linecap:square;stroke-width:1.5;"/>
    <g/>
   </g>
   <g id="line2d_54">
    <path d="M 360.8064 265.859122 
L 380.514816 293.51808 
" style="fill:none;stroke:#ff0000;stroke-linecap:square;stroke-width:1.5;"/>
    <g>
     <use style="fill-opacity:0;stroke:#ff0000;stroke-linejoin:miter;stroke-width:1.5;" x="360.8064" xlink:href="#m0e131a75d4" y="265.859122"/>
     <use style="fill-opacity:0;stroke:#ff0000;stroke-linejoin:miter;stroke-width:1.5;" x="380.514816" xlink:href="#m0e131a75d4" y="293.51808"/>
    </g>
   </g>
   <g id="line2d_55">
    <path d="M 360.8064 27.648 
L 380.514816 241.429248 
" style="fill:none;stroke:#000080;stroke-linecap:square;stroke-width:1.5;"/>
    <g>
     <use style="fill-opacity:0;stroke:#000080;stroke-width:1.5;" x="360.8064" xlink:href="#mfa4fd99a0a" y="27.648"/>
     <use style="fill-opacity:0;stroke:#000080;stroke-width:1.5;" x="380.514816" xlink:href="#mfa4fd99a0a" y="241.429248"/>
    </g>
   </g>
   <g id="line2d_56">
    <path d="M 360.8064 27.648 
L 380.514816 189.340416 
" style="fill:none;stroke:#ff7500;stroke-linecap:square;stroke-width:1.5;"/>
    <g>
     <use style="fill-opacity:0;stroke:#ff7500;stroke-linejoin:bevel;stroke-width:1.5;" x="360.8064" xlink:href="#m4f85c93060" y="27.648"/>
     <use style="fill-opacity:0;stroke:#ff7500;stroke-linejoin:bevel;stroke-width:1.5;" x="380.514816" xlink:href="#m4f85c93060" y="189.340416"/>
    </g>
   </g>
   <g id="line2d_57">
    <path d="M 360.8064 27.648 
L 380.514816 137.251584 
" style="fill:none;stroke:#ff00ff;stroke-linecap:square;stroke-width:1.5;"/>
    <g>
     <use style="fill-opacity:0;stroke:#ff00ff;stroke-linejoin:miter;stroke-width:1.5;" x="360.8064" xlink:href="#m5e1dd464c2" y="27.648"/>
     <use style="fill-opacity:0;stroke:#ff00ff;stroke-linejoin:miter;stroke-width:1.5;" x="380.514816" xlink:href="#m5e1dd464c2" y="137.251584"/>
    </g>
   </g>
   <g id="line2d_58">
    <path d="M 360.8064 27.648 
L 380.514816 85.162752 
" style="fill:none;stroke:#6495ed;stroke-linecap:square;stroke-width:1.5;"/>
    <g>
     <use style="fill-opacity:0;stroke:#6495ed;stroke-linejoin:miter;stroke-width:1.5;" x="360.8064" xlink:href="#mec1757471b" y="27.648"/>
     <use style="fill-opacity:0;stroke:#6495ed;stroke-linejoin:miter;stroke-width:1.5;" x="380.514816" xlink:href="#mec1757471b" y="85.162752"/>
    </g>
   </g>
   <g id="line2d_59">
    <path d="M 360.8064 27.648 
L 380.514816 33.07392 
" style="fill:none;stroke:#9acd32;stroke-linecap:square;stroke-width:1.5;"/>
    <g>
     <use style="fill-opacity:0;stroke:#9acd32;stroke-linejoin:miter;stroke-width:1.5;" x="360.8064" xlink:href="#ma4bb194e44" y="27.648"/>
     <use style="fill-opacity:0;stroke:#9acd32;stroke-linejoin:miter;stroke-width:1.5;" x="380.514816" xlink:href="#ma4bb194e44" y="33.07392"/>
    </g>
   </g>
   <g id="line2d_60">
    <path d="M 360.8064 298.944 
L 360.8064 27.648 
" style="fill:none;stroke:#000000;stroke-linecap:square;stroke-width:1.5;"/>
   </g>
   <g id="patch_3">
    <path d="M 57.6 298.944 
L 360.8064 298.944 
" style="fill:none;stroke:#000000;stroke-linecap:square;stroke-linejoin:miter;stroke-width:0.8;"/>
   </g>
   <g id="patch_4">
    <path d="M 57.6 27.648 
L 360.8064 27.648 
" style="fill:none;stroke:#000000;stroke-linecap:square;stroke-linejoin:miter;stroke-width:0.8;"/>
   </g>
   <g id="text_13">
    <!-- rs -->
    <g transform="translate(386.578944 297.381205)scale(0.14 -0.14)">
     <use xlink:href="#DejaVuSans-114"/>
     <use x="41.113281" xlink:href="#DejaVuSans-115"/>
    </g>
   </g>
   <g id="text_14">
    <!-- al1 -->
    <g transform="translate(386.578944 245.292373)scale(0.14 -0.14)">
     <use xlink:href="#DejaVuSans-97"/>
     <use x="61.279297" xlink:href="#DejaVuSans-108"/>
     <use x="89.0625" xlink:href="#DejaVuSans-49"/>
    </g>
   </g>
   <g id="text_15">
    <!-- al3 -->
    <g transform="translate(386.578944 193.203541)scale(0.14 -0.14)">
     <defs>
      <path d="M 40.578125 39.3125 
Q 47.65625 37.796875 51.625 33 
Q 55.609375 28.21875 55.609375 21.1875 
Q 55.609375 10.40625 48.1875 4.484375 
Q 40.765625 -1.421875 27.09375 -1.421875 
Q 22.515625 -1.421875 17.65625 -0.515625 
Q 12.796875 0.390625 7.625 2.203125 
L 7.625 11.71875 
Q 11.71875 9.328125 16.59375 8.109375 
Q 21.484375 6.890625 26.8125 6.890625 
Q 36.078125 6.890625 40.9375 10.546875 
Q 45.796875 14.203125 45.796875 21.1875 
Q 45.796875 27.640625 41.28125 31.265625 
Q 36.765625 34.90625 28.71875 34.90625 
L 20.21875 34.90625 
L 20.21875 43.015625 
L 29.109375 43.015625 
Q 36.375 43.015625 40.234375 45.921875 
Q 44.09375 48.828125 44.09375 54.296875 
Q 44.09375 59.90625 40.109375 62.90625 
Q 36.140625 65.921875 28.71875 65.921875 
Q 24.65625 65.921875 20.015625 65.03125 
Q 15.375 64.15625 9.8125 62.3125 
L 9.8125 71.09375 
Q 15.4375 72.65625 20.34375 73.4375 
Q 25.25 74.21875 29.59375 74.21875 
Q 40.828125 74.21875 47.359375 69.109375 
Q 53.90625 64.015625 53.90625 55.328125 
Q 53.90625 49.265625 50.4375 45.09375 
Q 46.96875 40.921875 40.578125 39.3125 
z
" id="DejaVuSans-51"/>
     </defs>
     <use xlink:href="#DejaVuSans-97"/>
     <use x="61.279297" xlink:href="#DejaVuSans-108"/>
     <use x="89.0625" xlink:href="#DejaVuSans-51"/>
    </g>
   </g>
   <g id="text_16">
    <!-- al2 -->
    <g transform="translate(386.578944 141.114709)scale(0.14 -0.14)">
     <use xlink:href="#DejaVuSans-97"/>
     <use x="61.279297" xlink:href="#DejaVuSans-108"/>
     <use x="89.0625" xlink:href="#DejaVuSans-50"/>
    </g>
   </g>
   <g id="text_17">
    <!-- al4 -->
    <g transform="translate(386.578944 89.025877)scale(0.14 -0.14)">
     <use xlink:href="#DejaVuSans-97"/>
     <use x="61.279297" xlink:href="#DejaVuSans-108"/>
     <use x="89.0625" xlink:href="#DejaVuSans-52"/>
    </g>
   </g>
   <g id="text_18">
    <!-- cobyla -->
    <g transform="translate(386.578944 36.937045)scale(0.14 -0.14)">
     <defs>
      <path d="M 48.6875 27.296875 
Q 48.6875 37.203125 44.609375 42.84375 
Q 40.53125 48.484375 33.40625 48.484375 
Q 26.265625 48.484375 22.1875 42.84375 
Q 18.109375 37.203125 18.109375 27.296875 
Q 18.109375 17.390625 22.1875 11.75 
Q 26.265625 6.109375 33.40625 6.109375 
Q 40.53125 6.109375 44.609375 11.75 
Q 48.6875 17.390625 48.6875 27.296875 
z
M 18.109375 46.390625 
Q 20.953125 51.265625 25.265625 53.625 
Q 29.59375 56 35.59375 56 
Q 45.5625 56 51.78125 48.09375 
Q 58.015625 40.1875 58.015625 27.296875 
Q 58.015625 14.40625 51.78125 6.484375 
Q 45.5625 -1.421875 35.59375 -1.421875 
Q 29.59375 -1.421875 25.265625 0.953125 
Q 20.953125 3.328125 18.109375 8.203125 
L 18.109375 0 
L 9.078125 0 
L 9.078125 75.984375 
L 18.109375 75.984375 
z
" id="DejaVuSans-98"/>
      <path d="M 32.171875 -5.078125 
Q 28.375 -14.84375 24.75 -17.8125 
Q 21.140625 -20.796875 15.09375 -20.796875 
L 7.90625 -20.796875 
L 7.90625 -13.28125 
L 13.1875 -13.28125 
Q 16.890625 -13.28125 18.9375 -11.515625 
Q 21 -9.765625 23.484375 -3.21875 
L 25.09375 0.875 
L 2.984375 54.6875 
L 12.5 54.6875 
L 29.59375 11.921875 
L 46.6875 54.6875 
L 56.203125 54.6875 
z
" id="DejaVuSans-121"/>
     </defs>
     <use xlink:href="#DejaVuSans-99"/>
     <use x="54.980469" xlink:href="#DejaVuSans-111"/>
     <use x="116.162109" xlink:href="#DejaVuSans-98"/>
     <use x="179.638672" xlink:href="#DejaVuSans-121"/>
     <use x="238.818359" xlink:href="#DejaVuSans-108"/>
     <use x="266.601562" xlink:href="#DejaVuSans-97"/>
    </g>
   </g>
   <g id="text_19">
    <!-- bbob-constrained f42, 3-D -->
    <g transform="translate(60.632064 38.111366)scale(0.102 -0.102)">
     <defs>
      <path d="M 4.890625 31.390625 
L 31.203125 31.390625 
L 31.203125 23.390625 
L 4.890625 23.390625 
z
" id="DejaVuSans-45"/>
      <path d="M 19.671875 64.796875 
L 19.671875 8.109375 
L 31.59375 8.109375 
Q 46.6875 8.109375 53.6875 14.9375 
Q 60.6875 21.78125 60.6875 36.53125 
Q 60.6875 51.171875 53.6875 57.984375 
Q 46.6875 64.796875 31.59375 64.796875 
z
M 9.8125 72.90625 
L 30.078125 72.90625 
Q 51.265625 72.90625 61.171875 64.09375 
Q 71.09375 55.28125 71.09375 36.53125 
Q 71.09375 17.671875 61.125 8.828125 
Q 51.171875 0 30.078125 0 
L 9.8125 0 
z
" id="DejaVuSans-68"/>
     </defs>
     <use xlink:href="#DejaVuSans-98"/>
     <use x="63.476562" xlink:href="#DejaVuSans-98"/>
     <use x="126.953125" xlink:href="#DejaVuSans-111"/>
     <use x="188.134766" xlink:href="#DejaVuSans-98"/>
     <use x="251.611328" xlink:href="#DejaVuSans-45"/>
     <use x="287.695312" xlink:href="#DejaVuSans-99"/>
     <use x="342.675781" xlink:href="#DejaVuSans-111"/>
     <use x="403.857422" xlink:href="#DejaVuSans-110"/>
     <use x="467.236328" xlink:href="#DejaVuSans-115"/>
     <use x="519.335938" xlink:href="#DejaVuSans-116"/>
     <use x="558.544922" xlink:href="#DejaVuSans-114"/>
     <use x="599.658203" xlink:href="#DejaVuSans-97"/>
     <use x="660.9375" xlink:href="#DejaVuSans-105"/>
     <use x="688.720703" xlink:href="#DejaVuSans-110"/>
     <use x="752.099609" xlink:href="#DejaVuSans-101"/>
     <use x="813.623047" xlink:href="#DejaVuSans-100"/>
     <use x="877.099609" xlink:href="#DejaVuSans-32"/>
     <use x="908.886719" xlink:href="#DejaVuSans-102"/>
     <use x="944.091797" xlink:href="#DejaVuSans-52"/>
     <use x="1007.714844" xlink:href="#DejaVuSans-50"/>
     <use x="1071.337891" xlink:href="#DejaVuSans-44"/>
     <use x="1103.125" xlink:href="#DejaVuSans-32"/>
     <use x="1134.912109" xlink:href="#DejaVuSans-51"/>
     <use x="1198.535156" xlink:href="#DejaVuSans-45"/>
     <use x="1234.619141" xlink:href="#DejaVuSans-68"/>
    </g>
    <!-- 41 targets: 100..1e-06 -->
    <g transform="translate(60.632064 49.533135)scale(0.102 -0.102)">
     <defs>
      <path d="M 11.71875 12.40625 
L 22.015625 12.40625 
L 22.015625 0 
L 11.71875 0 
z
M 11.71875 51.703125 
L 22.015625 51.703125 
L 22.015625 39.3125 
L 11.71875 39.3125 
z
" id="DejaVuSans-58"/>
     </defs>
     <use xlink:href="#DejaVuSans-52"/>
     <use x="63.623047" xlink:href="#DejaVuSans-49"/>
     <use x="127.246094" xlink:href="#DejaVuSans-32"/>
     <use x="159.033203" xlink:href="#DejaVuSans-116"/>
     <use x="198.242188" xlink:href="#DejaVuSans-97"/>
     <use x="259.521484" xlink:href="#DejaVuSans-114"/>
     <use x="298.884766" xlink:href="#DejaVuSans-103"/>
     <use x="362.361328" xlink:href="#DejaVuSans-101"/>
     <use x="423.884766" xlink:href="#DejaVuSans-116"/>
     <use x="463.09375" xlink:href="#DejaVuSans-115"/>
     <use x="515.193359" xlink:href="#DejaVuSans-58"/>
     <use x="548.884766" xlink:href="#DejaVuSans-32"/>
     <use x="580.671875" xlink:href="#DejaVuSans-49"/>
     <use x="644.294922" xlink:href="#DejaVuSans-48"/>
     <use x="707.917969" xlink:href="#DejaVuSans-48"/>
     <use x="771.541016" xlink:href="#DejaVuSans-46"/>
     <use x="803.328125" xlink:href="#DejaVuSans-46"/>
     <use x="835.115234" xlink:href="#DejaVuSans-49"/>
     <use x="898.738281" xlink:href="#DejaVuSans-101"/>
     <use x="960.261719" xlink:href="#DejaVuSans-45"/>
     <use x="996.345703" xlink:href="#DejaVuSans-48"/>
     <use x="1059.96875" xlink:href="#DejaVuSans-54"/>
    </g>
    <!-- evals = f-evals + g-evals -->
    <g transform="translate(60.632064 60.954904)scale(0.102 -0.102)">
     <defs>
      <path d="M 10.59375 45.40625 
L 73.1875 45.40625 
L 73.1875 37.203125 
L 10.59375 37.203125 
z
M 10.59375 25.484375 
L 73.1875 25.484375 
L 73.1875 17.1875 
L 10.59375 17.1875 
z
" id="DejaVuSans-61"/>
      <path d="M 46 62.703125 
L 46 35.5 
L 73.1875 35.5 
L 73.1875 27.203125 
L 46 27.203125 
L 46 0 
L 37.796875 0 
L 37.796875 27.203125 
L 10.59375 27.203125 
L 10.59375 35.5 
L 37.796875 35.5 
L 37.796875 62.703125 
z
" id="DejaVuSans-43"/>
     </defs>
     <use xlink:href="#DejaVuSans-101"/>
     <use x="61.523438" xlink:href="#DejaVuSans-118"/>
     <use x="120.703125" xlink:href="#DejaVuSans-97"/>
     <use x="181.982422" xlink:href="#DejaVuSans-108"/>
     <use x="209.765625" xlink:href="#DejaVuSans-115"/>
     <use x="261.865234" xlink:href="#DejaVuSans-32"/>
     <use x="293.652344" xlink:href="#DejaVuSans-61"/>
     <use x="377.441406" xlink:href="#DejaVuSans-32"/>
     <use x="409.228516" xlink:href="#DejaVuSans-102"/>
     <use x="438.933594" xlink:href="#DejaVuSans-45"/>
     <use x="475.017578" xlink:href="#DejaVuSans-101"/>
     <use x="536.541016" xlink:href="#DejaVuSans-118"/>
     <use x="595.720703" xlink:href="#DejaVuSans-97"/>
     <use x="657" xlink:href="#DejaVuSans-108"/>
     <use x="684.783203" xlink:href="#DejaVuSans-115"/>
     <use x="736.882812" xlink:href="#DejaVuSans-32"/>
     <use x="768.669922" xlink:href="#DejaVuSans-43"/>
     <use x="852.458984" xlink:href="#DejaVuSans-32"/>
     <use x="884.246094" xlink:href="#DejaVuSans-103"/>
     <use x="947.722656" xlink:href="#DejaVuSans-45"/>
     <use x="983.806641" xlink:href="#DejaVuSans-101"/>
     <use x="1045.330078" xlink:href="#DejaVuSans-118"/>
     <use x="1104.509766" xlink:href="#DejaVuSans-97"/>
     <use x="1165.789062" xlink:href="#DejaVuSans-108"/>
     <use x="1193.572266" xlink:href="#DejaVuSans-115"/>
    </g>
    <!-- 15 instances -->
    <g transform="translate(60.632064 72.376672)scale(0.102 -0.102)">
     <defs>
      <path d="M 10.796875 72.90625 
L 49.515625 72.90625 
L 49.515625 64.59375 
L 19.828125 64.59375 
L 19.828125 46.734375 
Q 21.96875 47.46875 24.109375 47.828125 
Q 26.265625 48.1875 28.421875 48.1875 
Q 40.625 48.1875 47.75 41.5 
Q 54.890625 34.8125 54.890625 23.390625 
Q 54.890625 11.625 47.5625 5.09375 
Q 40.234375 -1.421875 26.90625 -1.421875 
Q 22.3125 -1.421875 17.546875 -0.640625 
Q 12.796875 0.140625 7.71875 1.703125 
L 7.71875 11.625 
Q 12.109375 9.234375 16.796875 8.0625 
Q 21.484375 6.890625 26.703125 6.890625 
Q 35.15625 6.890625 40.078125 11.328125 
Q 45.015625 15.765625 45.015625 23.390625 
Q 45.015625 31 40.078125 35.4375 
Q 35.15625 39.890625 26.703125 39.890625 
Q 22.75 39.890625 18.8125 39.015625 
Q 14.890625 38.140625 10.796875 36.28125 
z
" id="DejaVuSans-53"/>
     </defs>
     <use xlink:href="#DejaVuSans-49"/>
     <use x="63.623047" xlink:href="#DejaVuSans-53"/>
     <use x="127.246094" xlink:href="#DejaVuSans-32"/>
     <use x="159.033203" xlink:href="#DejaVuSans-105"/>
     <use x="186.816406" xlink:href="#DejaVuSans-110"/>
     <use x="250.195312" xlink:href="#DejaVuSans-115"/>
     <use x="302.294922" xlink:href="#DejaVuSans-116"/>
     <use x="341.503906" xlink:href="#DejaVuSans-97"/>
     <use x="402.783203" xlink:href="#DejaVuSans-110"/>
     <use x="466.162109" xlink:href="#DejaVuSans-99"/>
     <use x="521.142578" xlink:href="#DejaVuSans-101"/>
     <use x="582.666016" xlink:href="#DejaVuSans-115"/>
    </g>
   </g>
   <g id="text_20">
    <!-- v2.6.1.8 -->
    <g style="fill:#808080;" transform="translate(188.751637 294.151352)scale(0.1 -0.1)">
     <use xlink:href="#DejaVuSans-118"/>
     <use x="59.179688" xlink:href="#DejaVuSans-50"/>
     <use x="122.802734" xlink:href="#DejaVuSans-46"/>
     <use x="154.589844" xlink:href="#DejaVuSans-54"/>
     <use x="218.212891" xlink:href="#DejaVuSans-46"/>
     <use x="250" xlink:href="#DejaVuSans-49"/>
     <use x="313.623047" xlink:href="#DejaVuSans-46"/>
     <use x="345.410156" xlink:href="#DejaVuSans-56"/>
    </g>
   </g>
   <g id="text_21">
    <!-- 42 Diff. Powers, m=9+int(9n/2) -->
    <g transform="translate(52.223512 21.648)scale(0.2 -0.2)">
     <defs>
      <path d="M 19.671875 64.796875 
L 19.671875 37.40625 
L 32.078125 37.40625 
Q 38.96875 37.40625 42.71875 40.96875 
Q 46.484375 44.53125 46.484375 51.125 
Q 46.484375 57.671875 42.71875 61.234375 
Q 38.96875 64.796875 32.078125 64.796875 
z
M 9.8125 72.90625 
L 32.078125 72.90625 
Q 44.34375 72.90625 50.609375 67.359375 
Q 56.890625 61.8125 56.890625 51.125 
Q 56.890625 40.328125 50.609375 34.8125 
Q 44.34375 29.296875 32.078125 29.296875 
L 19.671875 29.296875 
L 19.671875 0 
L 9.8125 0 
z
" id="DejaVuSans-80"/>
      <path d="M 4.203125 54.6875 
L 13.1875 54.6875 
L 24.421875 12.015625 
L 35.59375 54.6875 
L 46.1875 54.6875 
L 57.421875 12.015625 
L 68.609375 54.6875 
L 77.59375 54.6875 
L 63.28125 0 
L 52.6875 0 
L 40.921875 44.828125 
L 29.109375 0 
L 18.5 0 
z
" id="DejaVuSans-119"/>
      <path d="M 10.984375 1.515625 
L 10.984375 10.5 
Q 14.703125 8.734375 18.5 7.8125 
Q 22.3125 6.890625 25.984375 6.890625 
Q 35.75 6.890625 40.890625 13.453125 
Q 46.046875 20.015625 46.78125 33.40625 
Q 43.953125 29.203125 39.59375 26.953125 
Q 35.25 24.703125 29.984375 24.703125 
Q 19.046875 24.703125 12.671875 31.3125 
Q 6.296875 37.9375 6.296875 49.421875 
Q 6.296875 60.640625 12.9375 67.421875 
Q 19.578125 74.21875 30.609375 74.21875 
Q 43.265625 74.21875 49.921875 64.515625 
Q 56.59375 54.828125 56.59375 36.375 
Q 56.59375 19.140625 48.40625 8.859375 
Q 40.234375 -1.421875 26.421875 -1.421875 
Q 22.703125 -1.421875 18.890625 -0.6875 
Q 15.09375 0.046875 10.984375 1.515625 
z
M 30.609375 32.421875 
Q 37.25 32.421875 41.125 36.953125 
Q 45.015625 41.5 45.015625 49.421875 
Q 45.015625 57.28125 41.125 61.84375 
Q 37.25 66.40625 30.609375 66.40625 
Q 23.96875 66.40625 20.09375 61.84375 
Q 16.21875 57.28125 16.21875 49.421875 
Q 16.21875 41.5 20.09375 36.953125 
Q 23.96875 32.421875 30.609375 32.421875 
z
" id="DejaVuSans-57"/>
     </defs>
     <use xlink:href="#DejaVuSans-52"/>
     <use x="63.623047" xlink:href="#DejaVuSans-50"/>
     <use x="127.246094" xlink:href="#DejaVuSans-32"/>
     <use x="159.033203" xlink:href="#DejaVuSans-68"/>
     <use x="236.035156" xlink:href="#DejaVuSans-105"/>
     <use x="263.818359" xlink:href="#DejaVuSans-102"/>
     <use x="299.023438" xlink:href="#DejaVuSans-102"/>
     <use x="326.978516" xlink:href="#DejaVuSans-46"/>
     <use x="358.765625" xlink:href="#DejaVuSans-32"/>
     <use x="390.552734" xlink:href="#DejaVuSans-80"/>
     <use x="447.230469" xlink:href="#DejaVuSans-111"/>
     <use x="508.412109" xlink:href="#DejaVuSans-119"/>
     <use x="590.199219" xlink:href="#DejaVuSans-101"/>
     <use x="651.722656" xlink:href="#DejaVuSans-114"/>
     <use x="692.835938" xlink:href="#DejaVuSans-115"/>
     <use x="744.935547" xlink:href="#DejaVuSans-44"/>
     <use x="776.722656" xlink:href="#DejaVuSans-32"/>
     <use x="808.509766" xlink:href="#DejaVuSans-109"/>
     <use x="905.921875" xlink:href="#DejaVuSans-61"/>
     <use x="989.710938" xlink:href="#DejaVuSans-57"/>
     <use x="1053.333984" xlink:href="#DejaVuSans-43"/>
     <use x="1137.123047" xlink:href="#DejaVuSans-105"/>
     <use x="1164.90625" xlink:href="#DejaVuSans-110"/>
     <use x="1228.285156" xlink:href="#DejaVuSans-116"/>
     <use x="1267.494141" xlink:href="#DejaVuSans-40"/>
     <use x="1306.507812" xlink:href="#DejaVuSans-57"/>
     <use x="1370.130859" xlink:href="#DejaVuSans-110"/>
     <use x="1433.509766" xlink:href="#DejaVuSans-47"/>
     <use x="1467.201172" xlink:href="#DejaVuSans-50"/>
     <use x="1530.824219" xlink:href="#DejaVuSans-41"/>
    </g>
   </g>
  </g>
 </g>
 <defs>
  <clipPath id="pb431c3168d">
   <rect height="271.296" width="303.2064" x="57.6" y="27.648"/>
  </clipPath>
 </defs>
</svg>
