<?xml version="1.0" encoding="utf-8" standalone="no"?>
<!DOCTYPE svg PUBLIC "-//W3C//DTD SVG 1.1//EN"
  "http://www.w3.org/Graphics/SVG/1.1/DTD/svg11.dtd">
<!-- Created with matplotlib (https://matplotlib.org/) -->
<svg height="345.6pt" version="1.1" viewBox="0 0 460.8 345.6" width="460.8pt" xmlns="http://www.w3.org/2000/svg" xmlns:xlink="http://www.w3.org/1999/xlink">
 <metadata>
  <rdf:RDF xmlns:cc="http://creativecommons.org/ns#" xmlns:dc="http://purl.org/dc/elements/1.1/" xmlns:rdf="http://www.w3.org/1999/02/22-rdf-syntax-ns#">
   <cc:Work>
    <dc:type rdf:resource="http://purl.org/dc/dcmitype/StillImage"/>
    <dc:date>2022-04-06T11:31:29.153326</dc:date>
    <dc:format>image/svg+xml</dc:format>
    <dc:creator>
     <cc:Agent>
      <dc:title>Matplotlib v3.3.3, https://matplotlib.org/</dc:title>
     </cc:Agent>
    </dc:creator>
   </cc:Work>
  </rdf:RDF>
 </metadata>
 <defs>
  <style type="text/css">*{stroke-linecap:butt;stroke-linejoin:round;}</style>
 </defs>
 <g id="figure_1">
  <g id="patch_1">
   <path d="M 0 345.6 
L 460.8 345.6 
L 460.8 0 
L 0 0 
z
" style="fill:#ffffff;"/>
  </g>
  <g id="axes_1">
   <g id="patch_2">
    <path d="M 57.6 298.944 
L 360.8064 298.944 
L 360.8064 27.648 
L 57.6 27.648 
z
" style="fill:#ffffff;"/>
   </g>
   <g id="matplotlib.axis_1">
    <g id="xtick_1">
     <g id="line2d_1">
      <path clip-path="url(#p781721d253)" d="M 57.6 298.944 
L 57.6 27.648 
" style="fill:none;stroke:#b0b0b0;stroke-linecap:square;stroke-width:0.8;"/>
     </g>
     <g id="line2d_2">
      <defs>
       <path d="M 0 0 
L 0 3.5 
" id="m4f414c7217" style="stroke:#000000;stroke-width:0.8;"/>
      </defs>
      <g>
       <use style="stroke:#000000;stroke-width:0.8;" x="57.6" xlink:href="#m4f414c7217" y="298.944"/>
      </g>
     </g>
     <g id="text_1">
      <!-- 0 -->
      <g transform="translate(52.191875 318.861344)scale(0.17 -0.17)">
       <defs>
        <path d="M 31.78125 66.40625 
Q 24.171875 66.40625 20.328125 58.90625 
Q 16.5 51.421875 16.5 36.375 
Q 16.5 21.390625 20.328125 13.890625 
Q 24.171875 6.390625 31.78125 6.390625 
Q 39.453125 6.390625 43.28125 13.890625 
Q 47.125 21.390625 47.125 36.375 
Q 47.125 51.421875 43.28125 58.90625 
Q 39.453125 66.40625 31.78125 66.40625 
z
M 31.78125 74.21875 
Q 44.046875 74.21875 50.515625 64.515625 
Q 56.984375 54.828125 56.984375 36.375 
Q 56.984375 17.96875 50.515625 8.265625 
Q 44.046875 -1.421875 31.78125 -1.421875 
Q 19.53125 -1.421875 13.0625 8.265625 
Q 6.59375 17.96875 6.59375 36.375 
Q 6.59375 54.828125 13.0625 64.515625 
Q 19.53125 74.21875 31.78125 74.21875 
z
" id="DejaVuSans-48"/>
       </defs>
       <use xlink:href="#DejaVuSans-48"/>
      </g>
     </g>
    </g>
    <g id="xtick_2">
     <g id="line2d_3">
      <path clip-path="url(#p781721d253)" d="M 144.2304 298.944 
L 144.2304 27.648 
" style="fill:none;stroke:#b0b0b0;stroke-linecap:square;stroke-width:0.8;"/>
     </g>
     <g id="line2d_4">
      <g>
       <use style="stroke:#000000;stroke-width:0.8;" x="144.2304" xlink:href="#m4f414c7217" y="298.944"/>
      </g>
     </g>
     <g id="text_2">
      <!-- 2 -->
      <g transform="translate(138.822275 318.861344)scale(0.17 -0.17)">
       <defs>
        <path d="M 19.1875 8.296875 
L 53.609375 8.296875 
L 53.609375 0 
L 7.328125 0 
L 7.328125 8.296875 
Q 12.9375 14.109375 22.625 23.890625 
Q 32.328125 33.6875 34.8125 36.53125 
Q 39.546875 41.84375 41.421875 45.53125 
Q 43.3125 49.21875 43.3125 52.78125 
Q 43.3125 58.59375 39.234375 62.25 
Q 35.15625 65.921875 28.609375 65.921875 
Q 23.96875 65.921875 18.8125 64.3125 
Q 13.671875 62.703125 7.8125 59.421875 
L 7.8125 69.390625 
Q 13.765625 71.78125 18.9375 73 
Q 24.125 74.21875 28.421875 74.21875 
Q 39.75 74.21875 46.484375 68.546875 
Q 53.21875 62.890625 53.21875 53.421875 
Q 53.21875 48.921875 51.53125 44.890625 
Q 49.859375 40.875 45.40625 35.40625 
Q 44.1875 33.984375 37.640625 27.21875 
Q 31.109375 20.453125 19.1875 8.296875 
z
" id="DejaVuSans-50"/>
       </defs>
       <use xlink:href="#DejaVuSans-50"/>
      </g>
     </g>
    </g>
    <g id="xtick_3">
     <g id="line2d_5">
      <path clip-path="url(#p781721d253)" d="M 230.8608 298.944 
L 230.8608 27.648 
" style="fill:none;stroke:#b0b0b0;stroke-linecap:square;stroke-width:0.8;"/>
     </g>
     <g id="line2d_6">
      <g>
       <use style="stroke:#000000;stroke-width:0.8;" x="230.8608" xlink:href="#m4f414c7217" y="298.944"/>
      </g>
     </g>
     <g id="text_3">
      <!-- 4 -->
      <g transform="translate(225.452675 318.861344)scale(0.17 -0.17)">
       <defs>
        <path d="M 37.796875 64.3125 
L 12.890625 25.390625 
L 37.796875 25.390625 
z
M 35.203125 72.90625 
L 47.609375 72.90625 
L 47.609375 25.390625 
L 58.015625 25.390625 
L 58.015625 17.1875 
L 47.609375 17.1875 
L 47.609375 0 
L 37.796875 0 
L 37.796875 17.1875 
L 4.890625 17.1875 
L 4.890625 26.703125 
z
" id="DejaVuSans-52"/>
       </defs>
       <use xlink:href="#DejaVuSans-52"/>
      </g>
     </g>
    </g>
    <g id="xtick_4">
     <g id="line2d_7">
      <path clip-path="url(#p781721d253)" d="M 317.4912 298.944 
L 317.4912 27.648 
" style="fill:none;stroke:#b0b0b0;stroke-linecap:square;stroke-width:0.8;"/>
     </g>
     <g id="line2d_8">
      <g>
       <use style="stroke:#000000;stroke-width:0.8;" x="317.4912" xlink:href="#m4f414c7217" y="298.944"/>
      </g>
     </g>
     <g id="text_4">
      <!-- 6 -->
      <g transform="translate(312.083075 318.861344)scale(0.17 -0.17)">
       <defs>
        <path d="M 33.015625 40.375 
Q 26.375 40.375 22.484375 35.828125 
Q 18.609375 31.296875 18.609375 23.390625 
Q 18.609375 15.53125 22.484375 10.953125 
Q 26.375 6.390625 33.015625 6.390625 
Q 39.65625 6.390625 43.53125 10.953125 
Q 47.40625 15.53125 47.40625 23.390625 
Q 47.40625 31.296875 43.53125 35.828125 
Q 39.65625 40.375 33.015625 40.375 
z
M 52.59375 71.296875 
L 52.59375 62.3125 
Q 48.875 64.0625 45.09375 64.984375 
Q 41.3125 65.921875 37.59375 65.921875 
Q 27.828125 65.921875 22.671875 59.328125 
Q 17.53125 52.734375 16.796875 39.40625 
Q 19.671875 43.65625 24.015625 45.921875 
Q 28.375 48.1875 33.59375 48.1875 
Q 44.578125 48.1875 50.953125 41.515625 
Q 57.328125 34.859375 57.328125 23.390625 
Q 57.328125 12.15625 50.6875 5.359375 
Q 44.046875 -1.421875 33.015625 -1.421875 
Q 20.359375 -1.421875 13.671875 8.265625 
Q 6.984375 17.96875 6.984375 36.375 
Q 6.984375 53.65625 15.1875 63.9375 
Q 23.390625 74.21875 37.203125 74.21875 
Q 40.921875 74.21875 44.703125 73.484375 
Q 48.484375 72.75 52.59375 71.296875 
z
" id="DejaVuSans-54"/>
       </defs>
       <use xlink:href="#DejaVuSans-54"/>
      </g>
     </g>
    </g>
    <g id="xtick_5">
     <g id="line2d_9">
      <path clip-path="url(#p781721d253)" d="M 100.9152 298.944 
L 100.9152 27.648 
" style="fill:none;stroke:#b0b0b0;stroke-linecap:square;stroke-width:0.8;"/>
     </g>
     <g id="line2d_10">
      <defs>
       <path d="M 0 0 
L 0 2 
" id="m34e10e8513" style="stroke:#000000;stroke-width:0.6;"/>
      </defs>
      <g>
       <use style="stroke:#000000;stroke-width:0.6;" x="100.9152" xlink:href="#m34e10e8513" y="298.944"/>
      </g>
     </g>
    </g>
    <g id="xtick_6">
     <g id="line2d_11">
      <path clip-path="url(#p781721d253)" d="M 187.5456 298.944 
L 187.5456 27.648 
" style="fill:none;stroke:#b0b0b0;stroke-linecap:square;stroke-width:0.8;"/>
     </g>
     <g id="line2d_12">
      <g>
       <use style="stroke:#000000;stroke-width:0.6;" x="187.5456" xlink:href="#m34e10e8513" y="298.944"/>
      </g>
     </g>
    </g>
    <g id="xtick_7">
     <g id="line2d_13">
      <path clip-path="url(#p781721d253)" d="M 274.176 298.944 
L 274.176 27.648 
" style="fill:none;stroke:#b0b0b0;stroke-linecap:square;stroke-width:0.8;"/>
     </g>
     <g id="line2d_14">
      <g>
       <use style="stroke:#000000;stroke-width:0.6;" x="274.176" xlink:href="#m34e10e8513" y="298.944"/>
      </g>
     </g>
    </g>
    <g id="xtick_8">
     <g id="line2d_15">
      <path clip-path="url(#p781721d253)" d="M 360.8064 298.944 
L 360.8064 27.648 
" style="fill:none;stroke:#b0b0b0;stroke-linecap:square;stroke-width:0.8;"/>
     </g>
     <g id="line2d_16">
      <g>
       <use style="stroke:#000000;stroke-width:0.6;" x="360.8064" xlink:href="#m34e10e8513" y="298.944"/>
      </g>
     </g>
    </g>
    <g id="text_5">
     <!-- log10(evals / dimension) -->
     <g transform="translate(104.238825 339.314156)scale(0.17 -0.17)">
      <defs>
       <path d="M 9.421875 75.984375 
L 18.40625 75.984375 
L 18.40625 0 
L 9.421875 0 
z
" id="DejaVuSans-108"/>
       <path d="M 30.609375 48.390625 
Q 23.390625 48.390625 19.1875 42.75 
Q 14.984375 37.109375 14.984375 27.296875 
Q 14.984375 17.484375 19.15625 11.84375 
Q 23.34375 6.203125 30.609375 6.203125 
Q 37.796875 6.203125 41.984375 11.859375 
Q 46.1875 17.53125 46.1875 27.296875 
Q 46.1875 37.015625 41.984375 42.703125 
Q 37.796875 48.390625 30.609375 48.390625 
z
M 30.609375 56 
Q 42.328125 56 49.015625 48.375 
Q 55.71875 40.765625 55.71875 27.296875 
Q 55.71875 13.875 49.015625 6.21875 
Q 42.328125 -1.421875 30.609375 -1.421875 
Q 18.84375 -1.421875 12.171875 6.21875 
Q 5.515625 13.875 5.515625 27.296875 
Q 5.515625 40.765625 12.171875 48.375 
Q 18.84375 56 30.609375 56 
z
" id="DejaVuSans-111"/>
       <path d="M 45.40625 27.984375 
Q 45.40625 37.75 41.375 43.109375 
Q 37.359375 48.484375 30.078125 48.484375 
Q 22.859375 48.484375 18.828125 43.109375 
Q 14.796875 37.75 14.796875 27.984375 
Q 14.796875 18.265625 18.828125 12.890625 
Q 22.859375 7.515625 30.078125 7.515625 
Q 37.359375 7.515625 41.375 12.890625 
Q 45.40625 18.265625 45.40625 27.984375 
z
M 54.390625 6.78125 
Q 54.390625 -7.171875 48.1875 -13.984375 
Q 42 -20.796875 29.203125 -20.796875 
Q 24.46875 -20.796875 20.265625 -20.09375 
Q 16.0625 -19.390625 12.109375 -17.921875 
L 12.109375 -9.1875 
Q 16.0625 -11.328125 19.921875 -12.34375 
Q 23.78125 -13.375 27.78125 -13.375 
Q 36.625 -13.375 41.015625 -8.765625 
Q 45.40625 -4.15625 45.40625 5.171875 
L 45.40625 9.625 
Q 42.625 4.78125 38.28125 2.390625 
Q 33.9375 0 27.875 0 
Q 17.828125 0 11.671875 7.65625 
Q 5.515625 15.328125 5.515625 27.984375 
Q 5.515625 40.671875 11.671875 48.328125 
Q 17.828125 56 27.875 56 
Q 33.9375 56 38.28125 53.609375 
Q 42.625 51.21875 45.40625 46.390625 
L 45.40625 54.6875 
L 54.390625 54.6875 
z
" id="DejaVuSans-103"/>
       <path d="M 12.40625 8.296875 
L 28.515625 8.296875 
L 28.515625 63.921875 
L 10.984375 60.40625 
L 10.984375 69.390625 
L 28.421875 72.90625 
L 38.28125 72.90625 
L 38.28125 8.296875 
L 54.390625 8.296875 
L 54.390625 0 
L 12.40625 0 
z
" id="DejaVuSans-49"/>
       <path d="M 31 75.875 
Q 24.46875 64.65625 21.28125 53.65625 
Q 18.109375 42.671875 18.109375 31.390625 
Q 18.109375 20.125 21.3125 9.0625 
Q 24.515625 -2 31 -13.1875 
L 23.1875 -13.1875 
Q 15.875 -1.703125 12.234375 9.375 
Q 8.59375 20.453125 8.59375 31.390625 
Q 8.59375 42.28125 12.203125 53.3125 
Q 15.828125 64.359375 23.1875 75.875 
z
" id="DejaVuSans-40"/>
       <path d="M 56.203125 29.59375 
L 56.203125 25.203125 
L 14.890625 25.203125 
Q 15.484375 15.921875 20.484375 11.0625 
Q 25.484375 6.203125 34.421875 6.203125 
Q 39.59375 6.203125 44.453125 7.46875 
Q 49.3125 8.734375 54.109375 11.28125 
L 54.109375 2.78125 
Q 49.265625 0.734375 44.1875 -0.34375 
Q 39.109375 -1.421875 33.890625 -1.421875 
Q 20.796875 -1.421875 13.15625 6.1875 
Q 5.515625 13.8125 5.515625 26.8125 
Q 5.515625 40.234375 12.765625 48.109375 
Q 20.015625 56 32.328125 56 
Q 43.359375 56 49.78125 48.890625 
Q 56.203125 41.796875 56.203125 29.59375 
z
M 47.21875 32.234375 
Q 47.125 39.59375 43.09375 43.984375 
Q 39.0625 48.390625 32.421875 48.390625 
Q 24.90625 48.390625 20.390625 44.140625 
Q 15.875 39.890625 15.1875 32.171875 
z
" id="DejaVuSans-101"/>
       <path d="M 2.984375 54.6875 
L 12.5 54.6875 
L 29.59375 8.796875 
L 46.6875 54.6875 
L 56.203125 54.6875 
L 35.6875 0 
L 23.484375 0 
z
" id="DejaVuSans-118"/>
       <path d="M 34.28125 27.484375 
Q 23.390625 27.484375 19.1875 25 
Q 14.984375 22.515625 14.984375 16.5 
Q 14.984375 11.71875 18.140625 8.90625 
Q 21.296875 6.109375 26.703125 6.109375 
Q 34.1875 6.109375 38.703125 11.40625 
Q 43.21875 16.703125 43.21875 25.484375 
L 43.21875 27.484375 
z
M 52.203125 31.203125 
L 52.203125 0 
L 43.21875 0 
L 43.21875 8.296875 
Q 40.140625 3.328125 35.546875 0.953125 
Q 30.953125 -1.421875 24.3125 -1.421875 
Q 15.921875 -1.421875 10.953125 3.296875 
Q 6 8.015625 6 15.921875 
Q 6 25.140625 12.171875 29.828125 
Q 18.359375 34.515625 30.609375 34.515625 
L 43.21875 34.515625 
L 43.21875 35.40625 
Q 43.21875 41.609375 39.140625 45 
Q 35.0625 48.390625 27.6875 48.390625 
Q 23 48.390625 18.546875 47.265625 
Q 14.109375 46.140625 10.015625 43.890625 
L 10.015625 52.203125 
Q 14.9375 54.109375 19.578125 55.046875 
Q 24.21875 56 28.609375 56 
Q 40.484375 56 46.34375 49.84375 
Q 52.203125 43.703125 52.203125 31.203125 
z
" id="DejaVuSans-97"/>
       <path d="M 44.28125 53.078125 
L 44.28125 44.578125 
Q 40.484375 46.53125 36.375 47.5 
Q 32.28125 48.484375 27.875 48.484375 
Q 21.1875 48.484375 17.84375 46.4375 
Q 14.5 44.390625 14.5 40.28125 
Q 14.5 37.15625 16.890625 35.375 
Q 19.28125 33.59375 26.515625 31.984375 
L 29.59375 31.296875 
Q 39.15625 29.25 43.1875 25.515625 
Q 47.21875 21.78125 47.21875 15.09375 
Q 47.21875 7.46875 41.1875 3.015625 
Q 35.15625 -1.421875 24.609375 -1.421875 
Q 20.21875 -1.421875 15.453125 -0.5625 
Q 10.6875 0.296875 5.421875 2 
L 5.421875 11.28125 
Q 10.40625 8.6875 15.234375 7.390625 
Q 20.0625 6.109375 24.8125 6.109375 
Q 31.15625 6.109375 34.5625 8.28125 
Q 37.984375 10.453125 37.984375 14.40625 
Q 37.984375 18.0625 35.515625 20.015625 
Q 33.0625 21.96875 24.703125 23.78125 
L 21.578125 24.515625 
Q 13.234375 26.265625 9.515625 29.90625 
Q 5.8125 33.546875 5.8125 39.890625 
Q 5.8125 47.609375 11.28125 51.796875 
Q 16.75 56 26.8125 56 
Q 31.78125 56 36.171875 55.265625 
Q 40.578125 54.546875 44.28125 53.078125 
z
" id="DejaVuSans-115"/>
       <path id="DejaVuSans-32"/>
       <path d="M 25.390625 72.90625 
L 33.6875 72.90625 
L 8.296875 -9.28125 
L 0 -9.28125 
z
" id="DejaVuSans-47"/>
       <path d="M 45.40625 46.390625 
L 45.40625 75.984375 
L 54.390625 75.984375 
L 54.390625 0 
L 45.40625 0 
L 45.40625 8.203125 
Q 42.578125 3.328125 38.25 0.953125 
Q 33.9375 -1.421875 27.875 -1.421875 
Q 17.96875 -1.421875 11.734375 6.484375 
Q 5.515625 14.40625 5.515625 27.296875 
Q 5.515625 40.1875 11.734375 48.09375 
Q 17.96875 56 27.875 56 
Q 33.9375 56 38.25 53.625 
Q 42.578125 51.265625 45.40625 46.390625 
z
M 14.796875 27.296875 
Q 14.796875 17.390625 18.875 11.75 
Q 22.953125 6.109375 30.078125 6.109375 
Q 37.203125 6.109375 41.296875 11.75 
Q 45.40625 17.390625 45.40625 27.296875 
Q 45.40625 37.203125 41.296875 42.84375 
Q 37.203125 48.484375 30.078125 48.484375 
Q 22.953125 48.484375 18.875 42.84375 
Q 14.796875 37.203125 14.796875 27.296875 
z
" id="DejaVuSans-100"/>
       <path d="M 9.421875 54.6875 
L 18.40625 54.6875 
L 18.40625 0 
L 9.421875 0 
z
M 9.421875 75.984375 
L 18.40625 75.984375 
L 18.40625 64.59375 
L 9.421875 64.59375 
z
" id="DejaVuSans-105"/>
       <path d="M 52 44.1875 
Q 55.375 50.25 60.0625 53.125 
Q 64.75 56 71.09375 56 
Q 79.640625 56 84.28125 50.015625 
Q 88.921875 44.046875 88.921875 33.015625 
L 88.921875 0 
L 79.890625 0 
L 79.890625 32.71875 
Q 79.890625 40.578125 77.09375 44.375 
Q 74.3125 48.1875 68.609375 48.1875 
Q 61.625 48.1875 57.5625 43.546875 
Q 53.515625 38.921875 53.515625 30.90625 
L 53.515625 0 
L 44.484375 0 
L 44.484375 32.71875 
Q 44.484375 40.625 41.703125 44.40625 
Q 38.921875 48.1875 33.109375 48.1875 
Q 26.21875 48.1875 22.15625 43.53125 
Q 18.109375 38.875 18.109375 30.90625 
L 18.109375 0 
L 9.078125 0 
L 9.078125 54.6875 
L 18.109375 54.6875 
L 18.109375 46.1875 
Q 21.1875 51.21875 25.484375 53.609375 
Q 29.78125 56 35.6875 56 
Q 41.65625 56 45.828125 52.96875 
Q 50 49.953125 52 44.1875 
z
" id="DejaVuSans-109"/>
       <path d="M 54.890625 33.015625 
L 54.890625 0 
L 45.90625 0 
L 45.90625 32.71875 
Q 45.90625 40.484375 42.875 44.328125 
Q 39.84375 48.1875 33.796875 48.1875 
Q 26.515625 48.1875 22.3125 43.546875 
Q 18.109375 38.921875 18.109375 30.90625 
L 18.109375 0 
L 9.078125 0 
L 9.078125 54.6875 
L 18.109375 54.6875 
L 18.109375 46.1875 
Q 21.34375 51.125 25.703125 53.5625 
Q 30.078125 56 35.796875 56 
Q 45.21875 56 50.046875 50.171875 
Q 54.890625 44.34375 54.890625 33.015625 
z
" id="DejaVuSans-110"/>
       <path d="M 8.015625 75.875 
L 15.828125 75.875 
Q 23.140625 64.359375 26.78125 53.3125 
Q 30.421875 42.28125 30.421875 31.390625 
Q 30.421875 20.453125 26.78125 9.375 
Q 23.140625 -1.703125 15.828125 -13.1875 
L 8.015625 -13.1875 
Q 14.5 -2 17.703125 9.0625 
Q 20.90625 20.125 20.90625 31.390625 
Q 20.90625 42.671875 17.703125 53.65625 
Q 14.5 64.65625 8.015625 75.875 
z
" id="DejaVuSans-41"/>
      </defs>
      <use xlink:href="#DejaVuSans-108"/>
      <use x="27.783203" xlink:href="#DejaVuSans-111"/>
      <use x="88.964844" xlink:href="#DejaVuSans-103"/>
      <use x="152.441406" xlink:href="#DejaVuSans-49"/>
      <use x="216.064453" xlink:href="#DejaVuSans-48"/>
      <use x="279.6875" xlink:href="#DejaVuSans-40"/>
      <use x="318.701172" xlink:href="#DejaVuSans-101"/>
      <use x="380.224609" xlink:href="#DejaVuSans-118"/>
      <use x="439.404297" xlink:href="#DejaVuSans-97"/>
      <use x="500.683594" xlink:href="#DejaVuSans-108"/>
      <use x="528.466797" xlink:href="#DejaVuSans-115"/>
      <use x="580.566406" xlink:href="#DejaVuSans-32"/>
      <use x="612.353516" xlink:href="#DejaVuSans-47"/>
      <use x="646.044922" xlink:href="#DejaVuSans-32"/>
      <use x="677.832031" xlink:href="#DejaVuSans-100"/>
      <use x="741.308594" xlink:href="#DejaVuSans-105"/>
      <use x="769.091797" xlink:href="#DejaVuSans-109"/>
      <use x="866.503906" xlink:href="#DejaVuSans-101"/>
      <use x="928.027344" xlink:href="#DejaVuSans-110"/>
      <use x="991.40625" xlink:href="#DejaVuSans-115"/>
      <use x="1043.505859" xlink:href="#DejaVuSans-105"/>
      <use x="1071.289062" xlink:href="#DejaVuSans-111"/>
      <use x="1132.470703" xlink:href="#DejaVuSans-110"/>
      <use x="1195.849609" xlink:href="#DejaVuSans-41"/>
     </g>
    </g>
   </g>
   <g id="matplotlib.axis_2">
    <g id="ytick_1">
     <g id="line2d_17">
      <path clip-path="url(#p781721d253)" d="M 57.6 298.944 
L 360.8064 298.944 
" style="fill:none;stroke:#b0b0b0;stroke-linecap:square;stroke-width:0.8;"/>
     </g>
     <g id="line2d_18">
      <defs>
       <path d="M 0 0 
L -3.5 0 
" id="m925ac61ae5" style="stroke:#000000;stroke-width:0.8;"/>
      </defs>
      <g>
       <use style="stroke:#000000;stroke-width:0.8;" x="57.6" xlink:href="#m925ac61ae5" y="298.944"/>
      </g>
     </g>
     <g id="text_6">
      <!-- 0.0 -->
      <g transform="translate(25.155 305.02275)scale(0.16 -0.16)">
       <defs>
        <path d="M 10.6875 12.40625 
L 21 12.40625 
L 21 0 
L 10.6875 0 
z
" id="DejaVuSans-46"/>
       </defs>
       <use xlink:href="#DejaVuSans-48"/>
       <use x="63.623047" xlink:href="#DejaVuSans-46"/>
       <use x="95.410156" xlink:href="#DejaVuSans-48"/>
      </g>
     </g>
    </g>
    <g id="ytick_2">
     <g id="line2d_19">
      <path clip-path="url(#p781721d253)" d="M 57.6 244.6848 
L 360.8064 244.6848 
" style="fill:none;stroke:#b0b0b0;stroke-linecap:square;stroke-width:0.8;"/>
     </g>
     <g id="line2d_20">
      <g>
       <use style="stroke:#000000;stroke-width:0.8;" x="57.6" xlink:href="#m925ac61ae5" y="244.6848"/>
      </g>
     </g>
     <g id="text_7">
      <!-- 0.2 -->
      <g transform="translate(25.155 250.76355)scale(0.16 -0.16)">
       <use xlink:href="#DejaVuSans-48"/>
       <use x="63.623047" xlink:href="#DejaVuSans-46"/>
       <use x="95.410156" xlink:href="#DejaVuSans-50"/>
      </g>
     </g>
    </g>
    <g id="ytick_3">
     <g id="line2d_21">
      <path clip-path="url(#p781721d253)" d="M 57.6 190.4256 
L 360.8064 190.4256 
" style="fill:none;stroke:#b0b0b0;stroke-linecap:square;stroke-width:0.8;"/>
     </g>
     <g id="line2d_22">
      <g>
       <use style="stroke:#000000;stroke-width:0.8;" x="57.6" xlink:href="#m925ac61ae5" y="190.4256"/>
      </g>
     </g>
     <g id="text_8">
      <!-- 0.4 -->
      <g transform="translate(25.155 196.50435)scale(0.16 -0.16)">
       <use xlink:href="#DejaVuSans-48"/>
       <use x="63.623047" xlink:href="#DejaVuSans-46"/>
       <use x="95.410156" xlink:href="#DejaVuSans-52"/>
      </g>
     </g>
    </g>
    <g id="ytick_4">
     <g id="line2d_23">
      <path clip-path="url(#p781721d253)" d="M 57.6 136.1664 
L 360.8064 136.1664 
" style="fill:none;stroke:#b0b0b0;stroke-linecap:square;stroke-width:0.8;"/>
     </g>
     <g id="line2d_24">
      <g>
       <use style="stroke:#000000;stroke-width:0.8;" x="57.6" xlink:href="#m925ac61ae5" y="136.1664"/>
      </g>
     </g>
     <g id="text_9">
      <!-- 0.6 -->
      <g transform="translate(25.155 142.24515)scale(0.16 -0.16)">
       <use xlink:href="#DejaVuSans-48"/>
       <use x="63.623047" xlink:href="#DejaVuSans-46"/>
       <use x="95.410156" xlink:href="#DejaVuSans-54"/>
      </g>
     </g>
    </g>
    <g id="ytick_5">
     <g id="line2d_25">
      <path clip-path="url(#p781721d253)" d="M 57.6 81.9072 
L 360.8064 81.9072 
" style="fill:none;stroke:#b0b0b0;stroke-linecap:square;stroke-width:0.8;"/>
     </g>
     <g id="line2d_26">
      <g>
       <use style="stroke:#000000;stroke-width:0.8;" x="57.6" xlink:href="#m925ac61ae5" y="81.9072"/>
      </g>
     </g>
     <g id="text_10">
      <!-- 0.8 -->
      <g transform="translate(25.155 87.98595)scale(0.16 -0.16)">
       <defs>
        <path d="M 31.78125 34.625 
Q 24.75 34.625 20.71875 30.859375 
Q 16.703125 27.09375 16.703125 20.515625 
Q 16.703125 13.921875 20.71875 10.15625 
Q 24.75 6.390625 31.78125 6.390625 
Q 38.8125 6.390625 42.859375 10.171875 
Q 46.921875 13.96875 46.921875 20.515625 
Q 46.921875 27.09375 42.890625 30.859375 
Q 38.875 34.625 31.78125 34.625 
z
M 21.921875 38.8125 
Q 15.578125 40.375 12.03125 44.71875 
Q 8.5 49.078125 8.5 55.328125 
Q 8.5 64.0625 14.71875 69.140625 
Q 20.953125 74.21875 31.78125 74.21875 
Q 42.671875 74.21875 48.875 69.140625 
Q 55.078125 64.0625 55.078125 55.328125 
Q 55.078125 49.078125 51.53125 44.71875 
Q 48 40.375 41.703125 38.8125 
Q 48.828125 37.15625 52.796875 32.3125 
Q 56.78125 27.484375 56.78125 20.515625 
Q 56.78125 9.90625 50.3125 4.234375 
Q 43.84375 -1.421875 31.78125 -1.421875 
Q 19.734375 -1.421875 13.25 4.234375 
Q 6.78125 9.90625 6.78125 20.515625 
Q 6.78125 27.484375 10.78125 32.3125 
Q 14.796875 37.15625 21.921875 38.8125 
z
M 18.3125 54.390625 
Q 18.3125 48.734375 21.84375 45.5625 
Q 25.390625 42.390625 31.78125 42.390625 
Q 38.140625 42.390625 41.71875 45.5625 
Q 45.3125 48.734375 45.3125 54.390625 
Q 45.3125 60.0625 41.71875 63.234375 
Q 38.140625 66.40625 31.78125 66.40625 
Q 25.390625 66.40625 21.84375 63.234375 
Q 18.3125 60.0625 18.3125 54.390625 
z
" id="DejaVuSans-56"/>
       </defs>
       <use xlink:href="#DejaVuSans-48"/>
       <use x="63.623047" xlink:href="#DejaVuSans-46"/>
       <use x="95.410156" xlink:href="#DejaVuSans-56"/>
      </g>
     </g>
    </g>
    <g id="ytick_6">
     <g id="line2d_27">
      <path clip-path="url(#p781721d253)" d="M 57.6 27.648 
L 360.8064 27.648 
" style="fill:none;stroke:#b0b0b0;stroke-linecap:square;stroke-width:0.8;"/>
     </g>
     <g id="line2d_28">
      <g>
       <use style="stroke:#000000;stroke-width:0.8;" x="57.6" xlink:href="#m925ac61ae5" y="27.648"/>
      </g>
     </g>
     <g id="text_11">
      <!-- 1.0 -->
      <g transform="translate(25.155 33.72675)scale(0.16 -0.16)">
       <use xlink:href="#DejaVuSans-49"/>
       <use x="63.623047" xlink:href="#DejaVuSans-46"/>
       <use x="95.410156" xlink:href="#DejaVuSans-48"/>
      </g>
     </g>
    </g>
    <g id="text_12">
     <!-- Fraction of function,target pairs -->
     <g transform="translate(17.619531 297.681)rotate(-90)scale(0.17 -0.17)">
      <defs>
       <path d="M 9.8125 72.90625 
L 51.703125 72.90625 
L 51.703125 64.59375 
L 19.671875 64.59375 
L 19.671875 43.109375 
L 48.578125 43.109375 
L 48.578125 34.8125 
L 19.671875 34.8125 
L 19.671875 0 
L 9.8125 0 
z
" id="DejaVuSans-70"/>
       <path d="M 41.109375 46.296875 
Q 39.59375 47.171875 37.8125 47.578125 
Q 36.03125 48 33.890625 48 
Q 26.265625 48 22.1875 43.046875 
Q 18.109375 38.09375 18.109375 28.8125 
L 18.109375 0 
L 9.078125 0 
L 9.078125 54.6875 
L 18.109375 54.6875 
L 18.109375 46.1875 
Q 20.953125 51.171875 25.484375 53.578125 
Q 30.03125 56 36.53125 56 
Q 37.453125 56 38.578125 55.875 
Q 39.703125 55.765625 41.0625 55.515625 
z
" id="DejaVuSans-114"/>
       <path d="M 48.78125 52.59375 
L 48.78125 44.1875 
Q 44.96875 46.296875 41.140625 47.34375 
Q 37.3125 48.390625 33.40625 48.390625 
Q 24.65625 48.390625 19.8125 42.84375 
Q 14.984375 37.3125 14.984375 27.296875 
Q 14.984375 17.28125 19.8125 11.734375 
Q 24.65625 6.203125 33.40625 6.203125 
Q 37.3125 6.203125 41.140625 7.25 
Q 44.96875 8.296875 48.78125 10.40625 
L 48.78125 2.09375 
Q 45.015625 0.34375 40.984375 -0.53125 
Q 36.96875 -1.421875 32.421875 -1.421875 
Q 20.0625 -1.421875 12.78125 6.34375 
Q 5.515625 14.109375 5.515625 27.296875 
Q 5.515625 40.671875 12.859375 48.328125 
Q 20.21875 56 33.015625 56 
Q 37.15625 56 41.109375 55.140625 
Q 45.0625 54.296875 48.78125 52.59375 
z
" id="DejaVuSans-99"/>
       <path d="M 18.3125 70.21875 
L 18.3125 54.6875 
L 36.8125 54.6875 
L 36.8125 47.703125 
L 18.3125 47.703125 
L 18.3125 18.015625 
Q 18.3125 11.328125 20.140625 9.421875 
Q 21.96875 7.515625 27.59375 7.515625 
L 36.8125 7.515625 
L 36.8125 0 
L 27.59375 0 
Q 17.1875 0 13.234375 3.875 
Q 9.28125 7.765625 9.28125 18.015625 
L 9.28125 47.703125 
L 2.6875 47.703125 
L 2.6875 54.6875 
L 9.28125 54.6875 
L 9.28125 70.21875 
z
" id="DejaVuSans-116"/>
       <path d="M 37.109375 75.984375 
L 37.109375 68.5 
L 28.515625 68.5 
Q 23.6875 68.5 21.796875 66.546875 
Q 19.921875 64.59375 19.921875 59.515625 
L 19.921875 54.6875 
L 34.71875 54.6875 
L 34.71875 47.703125 
L 19.921875 47.703125 
L 19.921875 0 
L 10.890625 0 
L 10.890625 47.703125 
L 2.296875 47.703125 
L 2.296875 54.6875 
L 10.890625 54.6875 
L 10.890625 58.5 
Q 10.890625 67.625 15.140625 71.796875 
Q 19.390625 75.984375 28.609375 75.984375 
z
" id="DejaVuSans-102"/>
       <path d="M 8.5 21.578125 
L 8.5 54.6875 
L 17.484375 54.6875 
L 17.484375 21.921875 
Q 17.484375 14.15625 20.5 10.265625 
Q 23.53125 6.390625 29.59375 6.390625 
Q 36.859375 6.390625 41.078125 11.03125 
Q 45.3125 15.671875 45.3125 23.6875 
L 45.3125 54.6875 
L 54.296875 54.6875 
L 54.296875 0 
L 45.3125 0 
L 45.3125 8.40625 
Q 42.046875 3.421875 37.71875 1 
Q 33.40625 -1.421875 27.6875 -1.421875 
Q 18.265625 -1.421875 13.375 4.4375 
Q 8.5 10.296875 8.5 21.578125 
z
M 31.109375 56 
z
" id="DejaVuSans-117"/>
       <path d="M 11.71875 12.40625 
L 22.015625 12.40625 
L 22.015625 4 
L 14.015625 -11.625 
L 7.71875 -11.625 
L 11.71875 4 
z
" id="DejaVuSans-44"/>
       <path d="M 18.109375 8.203125 
L 18.109375 -20.796875 
L 9.078125 -20.796875 
L 9.078125 54.6875 
L 18.109375 54.6875 
L 18.109375 46.390625 
Q 20.953125 51.265625 25.265625 53.625 
Q 29.59375 56 35.59375 56 
Q 45.5625 56 51.78125 48.09375 
Q 58.015625 40.1875 58.015625 27.296875 
Q 58.015625 14.40625 51.78125 6.484375 
Q 45.5625 -1.421875 35.59375 -1.421875 
Q 29.59375 -1.421875 25.265625 0.953125 
Q 20.953125 3.328125 18.109375 8.203125 
z
M 48.6875 27.296875 
Q 48.6875 37.203125 44.609375 42.84375 
Q 40.53125 48.484375 33.40625 48.484375 
Q 26.265625 48.484375 22.1875 42.84375 
Q 18.109375 37.203125 18.109375 27.296875 
Q 18.109375 17.390625 22.1875 11.75 
Q 26.265625 6.109375 33.40625 6.109375 
Q 40.53125 6.109375 44.609375 11.75 
Q 48.6875 17.390625 48.6875 27.296875 
z
" id="DejaVuSans-112"/>
      </defs>
      <use xlink:href="#DejaVuSans-70"/>
      <use x="50.269531" xlink:href="#DejaVuSans-114"/>
      <use x="91.382812" xlink:href="#DejaVuSans-97"/>
      <use x="152.662109" xlink:href="#DejaVuSans-99"/>
      <use x="207.642578" xlink:href="#DejaVuSans-116"/>
      <use x="246.851562" xlink:href="#DejaVuSans-105"/>
      <use x="274.634766" xlink:href="#DejaVuSans-111"/>
      <use x="335.816406" xlink:href="#DejaVuSans-110"/>
      <use x="399.195312" xlink:href="#DejaVuSans-32"/>
      <use x="430.982422" xlink:href="#DejaVuSans-111"/>
      <use x="492.164062" xlink:href="#DejaVuSans-102"/>
      <use x="527.369141" xlink:href="#DejaVuSans-32"/>
      <use x="559.15625" xlink:href="#DejaVuSans-102"/>
      <use x="594.361328" xlink:href="#DejaVuSans-117"/>
      <use x="657.740234" xlink:href="#DejaVuSans-110"/>
      <use x="721.119141" xlink:href="#DejaVuSans-99"/>
      <use x="776.099609" xlink:href="#DejaVuSans-116"/>
      <use x="815.308594" xlink:href="#DejaVuSans-105"/>
      <use x="843.091797" xlink:href="#DejaVuSans-111"/>
      <use x="904.273438" xlink:href="#DejaVuSans-110"/>
      <use x="967.652344" xlink:href="#DejaVuSans-44"/>
      <use x="999.439453" xlink:href="#DejaVuSans-116"/>
      <use x="1038.648438" xlink:href="#DejaVuSans-97"/>
      <use x="1099.927734" xlink:href="#DejaVuSans-114"/>
      <use x="1139.291016" xlink:href="#DejaVuSans-103"/>
      <use x="1202.767578" xlink:href="#DejaVuSans-101"/>
      <use x="1264.291016" xlink:href="#DejaVuSans-116"/>
      <use x="1303.5" xlink:href="#DejaVuSans-32"/>
      <use x="1335.287109" xlink:href="#DejaVuSans-112"/>
      <use x="1398.763672" xlink:href="#DejaVuSans-97"/>
      <use x="1460.042969" xlink:href="#DejaVuSans-105"/>
      <use x="1487.826172" xlink:href="#DejaVuSans-114"/>
      <use x="1528.939453" xlink:href="#DejaVuSans-115"/>
     </g>
    </g>
   </g>
   <g id="line2d_29">
    <defs>
     <path d="M 0 1.5 
C 0.397805 1.5 0.77937 1.341951 1.06066 1.06066 
C 1.341951 0.77937 1.5 0.397805 1.5 0 
C 1.5 -0.397805 1.341951 -0.77937 1.06066 -1.06066 
C 0.77937 -1.341951 0.397805 -1.5 0 -1.5 
C -0.397805 -1.5 -0.77937 -1.341951 -1.06066 -1.06066 
C -1.341951 -0.77937 -1.5 -0.397805 -1.5 0 
C -1.5 0.397805 -1.341951 0.77937 -1.06066 1.06066 
C -0.77937 1.341951 -0.397805 1.5 0 1.5 
z
" id="m222220df35" style="stroke:#000080;"/>
    </defs>
    <g>
     <use style="fill:#000080;stroke:#000080;" x="191.855809" xlink:href="#m222220df35" y="27.648"/>
     <use style="fill:#000080;stroke:#000080;" x="191.855809" xlink:href="#m222220df35" y="27.648"/>
    </g>
   </g>
   <g id="line2d_30">
    <path d="M 147.581606 298.944 
L 147.581606 297.620605 
L 150.221009 297.620605 
L 150.221009 297.179473 
L 150.760445 297.179473 
L 150.760445 296.738341 
L 152.045009 296.738341 
L 152.045009 294.973815 
L 152.16877 294.973815 
L 152.16877 294.532683 
L 152.413875 294.532683 
L 152.413875 293.65042 
L 152.53524 293.65042 
L 152.53524 293.209288 
L 152.655828 293.209288 
L 152.655828 292.768156 
L 152.894708 292.768156 
L 152.894708 292.327024 
L 153.478964 292.327024 
L 153.478964 291.885893 
L 153.933646 291.885893 
L 153.933646 290.121366 
L 154.377597 290.121366 
L 154.486967 287.915707 
L 154.703817 287.915707 
L 154.703817 287.033444 
L 155.024477 287.033444 
L 155.024477 286.15118 
L 155.443693 286.15118 
L 155.443693 285.710049 
L 155.954908 285.710049 
L 156.055505 284.386654 
L 156.354107 284.386654 
L 156.354107 283.945522 
L 156.648044 283.945522 
L 156.648044 282.622127 
L 156.84148 282.622127 
L 156.937458 281.298732 
L 157.871225 281.298732 
L 157.871225 280.8576 
L 158.052543 280.8576 
L 158.052543 279.975337 
L 158.232129 279.975337 
L 158.232129 279.534205 
L 158.760826 279.534205 
L 158.847515 278.21081 
L 158.933807 278.21081 
L 158.933807 277.769678 
L 159.105212 277.769678 
L 159.105212 276.887415 
L 159.275069 276.887415 
L 159.359426 275.122888 
L 159.527013 275.122888 
L 159.527013 274.240624 
L 159.857774 274.240624 
L 159.939564 273.358361 
L 160.102084 273.358361 
L 160.18282 270.270439 
L 160.422971 270.270439 
L 160.422971 269.829307 
L 160.581385 269.829307 
L 160.660094 268.505912 
L 160.894266 268.505912 
L 160.97168 267.182517 
L 161.278189 267.182517 
L 161.278189 266.741385 
L 161.579783 266.741385 
L 161.579783 266.300254 
L 161.802848 266.300254 
L 161.802848 264.976859 
L 162.023298 264.976859 
L 162.023298 264.535727 
L 162.31327 264.535727 
L 162.31327 264.094595 
L 162.59884 264.094595 
L 162.66956 261.888937 
L 162.880139 261.888937 
L 162.880139 261.447805 
L 163.088387 261.447805 
L 163.088387 261.006673 
L 163.294355 261.006673 
L 163.294355 260.12441 
L 163.565517 260.12441 
L 163.632702 258.359883 
L 163.766354 258.359883 
L 163.832826 254.389698 
L 163.899064 254.389698 
L 163.96507 253.507434 
L 164.030845 253.507434 
L 164.030845 252.184039 
L 164.484939 252.184039 
L 164.484939 251.742907 
L 165.053116 251.742907 
L 165.053116 251.301776 
L 165.361509 251.301776 
L 165.361509 250.860644 
L 165.483464 250.860644 
L 165.483464 249.537249 
L 165.725029 249.537249 
L 165.784938 248.654985 
L 165.96353 248.654985 
L 165.96353 248.213854 
L 166.140442 248.213854 
L 166.140442 247.772722 
L 166.257466 247.772722 
L 166.315707 245.567063 
L 166.373767 245.567063 
L 166.373767 244.243668 
L 166.489353 244.243668 
L 166.546881 242.03801 
L 166.604233 242.03801 
L 166.604233 241.155746 
L 166.775248 241.155746 
L 166.83191 239.832351 
L 167.000877 239.832351 
L 167.056864 237.626693 
L 167.279159 237.626693 
L 167.279159 236.744429 
L 167.553385 236.744429 
L 167.607754 235.421034 
L 167.769923 235.421034 
L 167.877265 233.215376 
L 167.930707 233.215376 
L 167.983997 232.333112 
L 168.090128 232.333112 
L 168.142969 231.450849 
L 168.352863 231.450849 
L 168.352863 230.568585 
L 168.560441 230.568585 
L 168.611979 229.24519 
L 168.714635 229.24519 
L 168.765753 226.157268 
L 168.867575 226.157268 
L 168.867575 225.716137 
L 169.019282 225.716137 
L 169.019282 225.275005 
L 169.319074 225.275005 
L 169.319074 224.833873 
L 169.516314 224.833873 
L 169.614163 222.187083 
L 170.00055 222.187083 
L 170.09592 219.981424 
L 170.143423 219.981424 
L 170.143423 216.452371 
L 170.37916 216.452371 
L 170.37916 214.246712 
L 170.565646 214.246712 
L 170.61198 212.482185 
L 170.704306 212.482185 
L 170.704306 212.041054 
L 171.11426 212.041054 
L 171.11426 211.15879 
L 171.293632 211.15879 
L 171.338209 208.070868 
L 171.82171 208.070868 
L 171.9083 207.188605 
L 172.080292 207.188605 
L 172.080292 206.747473 
L 172.208263 206.747473 
L 172.208263 205.86521 
L 172.545321 205.86521 
L 172.545321 204.100683 
L 172.752956 204.100683 
L 172.752956 203.659551 
L 172.91743 203.659551 
L 172.99913 200.571629 
L 173.12102 200.571629 
L 173.12102 200.130498 
L 173.32243 200.130498 
L 173.32243 199.689366 
L 173.521707 199.689366 
L 173.56131 197.042576 
L 173.797195 197.042576 
L 173.797195 194.395785 
L 173.952824 194.395785 
L 173.991531 192.190127 
L 174.298352 192.190127 
L 174.298352 191.307863 
L 174.449906 191.307863 
L 174.487605 189.543337 
L 174.637648 189.543337 
L 174.637648 186.896546 
L 174.7494 186.896546 
L 174.7494 186.455415 
L 174.897377 186.455415 
L 174.897377 185.13202 
L 175.117184 185.13202 
L 175.226131 178.515044 
L 175.298414 178.515044 
L 175.40632 173.662595 
L 175.442151 173.662595 
L 175.442151 171.898068 
L 175.620293 171.898068 
L 175.620293 171.456937 
L 175.901855 171.456937 
L 176.006364 169.251278 
L 176.075715 169.251278 
L 176.110296 168.369015 
L 176.282249 168.369015 
L 176.350592 167.486751 
L 176.554146 167.486751 
L 176.587858 166.604488 
L 176.788874 166.604488 
L 176.855405 163.516566 
L 176.921701 163.516566 
L 176.954762 161.752039 
L 177.053597 161.752039 
L 177.151915 159.987512 
L 177.314646 159.987512 
L 177.411613 156.89959 
L 177.731273 156.89959 
L 177.731273 156.017327 
L 178.014396 156.017327 
L 178.045592 155.135063 
L 178.138873 155.135063 
L 178.138873 153.811668 
L 178.385383 153.811668 
L 178.385383 152.929405 
L 178.537828 152.929405 
L 178.628705 149.841483 
L 178.6589 149.841483 
L 178.749196 147.194693 
L 178.809153 147.194693 
L 178.809153 143.665639 
L 178.987886 143.665639 
L 179.047089 140.136585 
L 179.106105 140.136585 
L 179.164938 136.1664 
L 179.282053 136.1664 
L 179.369413 133.960741 
L 179.427429 133.960741 
L 179.427429 132.196215 
L 179.743355 132.196215 
L 179.743355 130.431688 
L 179.913468 130.431688 
L 179.997952 125.138107 
L 180.026029 125.138107 
L 180.110009 124.255844 
L 180.137919 124.255844 
L 180.221402 122.491317 
L 180.276853 122.491317 
L 180.359723 121.609054 
L 180.44223 121.609054 
L 180.524377 120.285659 
L 180.578943 120.285659 
L 180.633351 118.521132 
L 180.741697 118.521132 
L 180.768686 115.874341 
L 180.876258 115.874341 
L 180.929814 114.992078 
L 181.35286 114.992078 
L 181.35286 114.550946 
L 181.534993 114.550946 
L 181.560869 112.345288 
L 181.689715 112.345288 
L 181.715379 107.492839 
L 181.868631 107.492839 
L 181.919439 103.963785 
L 181.995394 103.963785 
L 182.096193 102.64039 
L 182.121308 102.64039 
L 182.171439 98.229073 
L 182.246386 98.229073 
L 182.246386 96.905678 
L 182.370637 96.905678 
L 182.370637 96.023415 
L 182.738541 96.023415 
L 182.835445 95.141151 
L 182.859594 95.141151 
L 182.955878 93.376624 
L 182.979872 93.376624 
L 183.075545 89.406439 
L 183.146981 89.406439 
L 183.218147 88.083044 
L 183.312619 88.083044 
L 183.312619 85.436254 
L 183.453442 85.436254 
L 183.52346 81.9072 
L 183.569995 81.9072 
L 183.66272 80.142673 
L 183.731965 80.142673 
L 183.823897 73.525698 
L 183.892552 73.525698 
L 183.983705 72.202302 
L 184.006424 72.202302 
L 184.029116 67.790985 
L 184.254541 67.790985 
L 184.343961 65.585327 
L 184.388512 65.585327 
L 184.388512 65.144195 
L 184.521534 65.144195 
L 184.587695 62.497405 
L 184.653623 62.497405 
L 184.653623 61.615141 
L 184.828311 61.615141 
L 184.828311 60.291746 
L 184.95827 60.291746 
L 185.044414 55.880429 
L 185.215526 55.880429 
L 185.236806 54.998166 
L 185.342847 54.998166 
L 185.427251 53.674771 
L 185.490306 53.674771 
L 185.490306 51.469112 
L 185.740436 51.469112 
L 185.823079 49.704585 
L 185.966836 49.704585 
L 186.028112 48.822322 
L 186.109503 48.822322 
L 186.190544 47.498927 
L 186.251096 47.498927 
L 186.251096 46.616663 
L 186.391631 46.616663 
L 186.491374 43.969873 
L 186.748259 43.969873 
L 186.748259 43.528741 
L 186.924069 43.528741 
L 187.001683 41.764215 
L 187.194327 41.764215 
L 187.194327 40.881951 
L 187.308974 40.881951 
L 187.308974 40.44082 
L 187.64878 40.44082 
L 187.742092 38.676293 
L 187.890434 38.676293 
L 187.890434 37.794029 
L 188.310515 37.794029 
L 188.418576 34.706107 
L 188.75673 34.706107 
L 188.75673 32.94158 
L 190.084555 32.94158 
L 190.100984 30.29479 
L 190.683081 30.29479 
L 190.698996 29.412527 
L 190.951822 29.412527 
L 190.951822 28.971395 
L 191.795875 28.971395 
L 191.855809 27.648 
L 360.8064 27.648 
L 360.8064 27.648 
" style="fill:none;stroke:#000080;stroke-linecap:square;stroke-width:1.5;"/>
   </g>
   <g id="line2d_31">
    <defs>
     <path d="M 0 6 
C 1.591219 6 3.117479 5.367802 4.242641 4.242641 
C 5.367802 3.117479 6 1.591219 6 0 
C 6 -1.591219 5.367802 -3.117479 4.242641 -4.242641 
C 3.117479 -5.367802 1.591219 -6 0 -6 
C -1.591219 -6 -3.117479 -5.367802 -4.242641 -4.242641 
C -5.367802 -3.117479 -6 -1.591219 -6 0 
C -6 1.591219 -5.367802 3.117479 -4.242641 4.242641 
C -3.117479 5.367802 -1.591219 6 0 6 
z
" id="m4bbf7499c0" style="stroke:#000080;stroke-width:1.5;"/>
    </defs>
    <g>
     <use style="fill-opacity:0;stroke:#000080;stroke-width:1.5;" x="178.537828" xlink:href="#m4bbf7499c0" y="152.929405"/>
     <use style="fill-opacity:0;stroke:#000080;stroke-width:1.5;" x="191.855809" xlink:href="#m4bbf7499c0" y="28.530263"/>
     <use style="fill-opacity:0;stroke:#000080;stroke-width:1.5;" x="191.855809" xlink:href="#m4bbf7499c0" y="27.648"/>
     <use style="fill-opacity:0;stroke:#000080;stroke-width:1.5;" x="191.855809" xlink:href="#m4bbf7499c0" y="27.648"/>
     <use style="fill-opacity:0;stroke:#000080;stroke-width:1.5;" x="360.8064" xlink:href="#m4bbf7499c0" y="27.648"/>
    </g>
   </g>
   <g id="line2d_32">
    <path style="fill:none;stroke:#000080;stroke-linecap:square;stroke-width:1.5;"/>
    <g/>
   </g>
   <g id="line2d_33">
    <defs>
     <path d="M 0 1.5 
C 0.397805 1.5 0.77937 1.341951 1.06066 1.06066 
C 1.341951 0.77937 1.5 0.397805 1.5 0 
C 1.5 -0.397805 1.341951 -0.77937 1.06066 -1.06066 
C 0.77937 -1.341951 0.397805 -1.5 0 -1.5 
C -0.397805 -1.5 -0.77937 -1.341951 -1.06066 -1.06066 
C -1.341951 -0.77937 -1.5 -0.397805 -1.5 0 
C -1.5 0.397805 -1.341951 0.77937 -1.06066 1.06066 
C -0.77937 1.341951 -0.397805 1.5 0 1.5 
z
" id="me5e29e8ea2" style="stroke:#ff00ff;"/>
    </defs>
    <g>
     <use style="fill:#ff00ff;stroke:#ff00ff;" x="186.210749" xlink:href="#me5e29e8ea2" y="27.648"/>
     <use style="fill:#ff00ff;stroke:#ff00ff;" x="186.210749" xlink:href="#me5e29e8ea2" y="27.648"/>
    </g>
   </g>
   <g id="line2d_34">
    <path d="M 138.943648 298.944 
L 138.943648 298.502868 
L 145.237585 298.502868 
L 145.237585 297.620605 
L 146.446082 297.620605 
L 146.446082 295.856078 
L 146.941151 295.856078 
L 146.941151 295.414946 
L 147.264104 295.414946 
L 147.264104 294.532683 
L 147.581606 294.532683 
L 147.581606 293.209288 
L 149.381693 293.209288 
L 149.381693 292.768156 
L 149.945377 292.768156 
L 149.945377 291.003629 
L 150.357325 291.003629 
L 150.357325 290.562498 
L 150.62703 290.562498 
L 150.62703 289.680234 
L 151.668766 289.680234 
L 151.668766 289.239102 
L 152.16877 289.239102 
L 152.16877 288.797971 
L 152.775647 288.797971 
L 152.775647 287.915707 
L 153.478964 287.915707 
L 153.478964 287.033444 
L 154.04562 287.033444 
L 154.04562 286.592312 
L 156.155566 286.592312 
L 156.155566 285.710049 
L 156.354107 285.710049 
L 156.354107 284.827785 
L 156.937458 284.827785 
L 156.937458 283.945522 
L 157.127956 283.945522 
L 157.127956 283.50439 
L 157.410135 283.50439 
L 157.410135 283.063259 
L 157.688143 283.063259 
L 157.779907 281.739863 
L 157.871225 281.739863 
L 157.871225 281.298732 
L 158.321284 281.298732 
L 158.321284 280.8576 
L 158.58624 280.8576 
L 158.58624 280.416468 
L 158.933807 280.416468 
L 158.933807 277.769678 
L 159.190332 277.769678 
L 159.275069 276.446283 
L 159.359426 276.446283 
L 159.443406 274.681756 
L 159.527013 274.681756 
L 159.61025 273.358361 
L 159.693121 273.358361 
L 159.775628 272.034966 
L 159.857774 272.034966 
L 159.857774 270.711571 
L 160.263211 270.711571 
L 160.343261 269.829307 
L 160.894266 269.829307 
L 160.97168 268.505912 
L 161.278189 268.505912 
L 161.354042 266.300254 
L 161.504837 266.300254 
L 161.504837 265.859122 
L 161.654432 265.859122 
L 161.654432 265.41799 
L 162.096211 265.41799 
L 162.096211 264.535727 
L 162.241195 264.535727 
L 162.31327 263.653463 
L 162.38507 263.653463 
L 162.456597 261.447805 
L 162.740015 261.447805 
L 162.810208 260.565541 
L 162.949812 260.565541 
L 162.949812 260.12441 
L 163.294355 260.12441 
L 163.362513 257.918751 
L 163.832826 257.918751 
L 163.899064 256.595356 
L 163.96507 256.595356 
L 163.96507 256.154224 
L 164.09639 256.154224 
L 164.09639 255.713093 
L 164.2268 255.713093 
L 164.291668 253.066302 
L 164.356312 253.066302 
L 164.356312 252.625171 
L 164.739583 252.625171 
L 164.739583 252.184039 
L 164.865624 252.184039 
L 164.865624 250.860644 
L 164.990826 250.860644 
L 164.990826 250.419512 
L 165.1152 250.419512 
L 165.17708 249.537249 
L 165.238758 249.537249 
L 165.238758 248.654985 
L 165.361509 248.654985 
L 165.361509 248.213854 
L 165.544147 248.213854 
L 165.544147 247.772722 
L 165.784938 247.772722 
L 165.784938 247.33159 
L 165.96353 247.33159 
L 166.022686 245.567063 
L 166.315707 245.567063 
L 166.315707 245.125932 
L 166.431649 245.125932 
L 166.489353 242.479141 
L 166.718416 242.479141 
L 166.775248 239.832351 
L 166.83191 239.832351 
L 166.888401 234.979902 
L 167.16834 234.979902 
L 167.279159 233.656507 
L 167.444174 233.656507 
L 167.498859 232.774244 
L 167.769923 232.774244 
L 167.877265 231.450849 
L 168.037137 231.450849 
L 168.090128 230.127454 
L 168.195663 230.127454 
L 168.248209 228.804059 
L 168.352863 228.804059 
L 168.456938 227.921795 
L 168.560441 227.921795 
L 168.560441 227.039532 
L 168.816733 227.039532 
L 168.867575 224.392741 
L 168.968849 224.392741 
L 169.019282 223.510478 
L 169.119745 223.510478 
L 169.119745 223.069346 
L 169.368578 223.069346 
L 169.467197 221.745951 
L 169.614163 221.745951 
L 169.662898 217.775766 
L 169.856584 217.775766 
L 169.952684 214.246712 
L 170.00055 214.246712 
L 170.048295 209.835395 
L 170.238073 209.835395 
L 170.238073 207.188605 
L 170.61198 207.188605 
L 170.704306 204.100683 
L 170.887612 204.100683 
L 170.978599 202.777288 
L 171.023928 202.777288 
L 171.11426 201.895024 
L 171.338209 201.895024 
L 171.382681 200.130498 
L 171.515469 200.130498 
L 171.559524 197.042576 
L 171.647326 197.042576 
L 171.73472 194.836917 
L 171.82171 194.836917 
L 171.82171 193.07239 
L 172.037442 193.07239 
L 172.037442 191.748995 
L 172.250727 191.748995 
L 172.335368 190.4256 
L 172.377547 190.4256 
L 172.377547 189.543337 
L 172.503517 189.543337 
L 172.587032 188.219941 
L 172.62865 188.219941 
L 172.62865 187.337678 
L 172.91743 187.337678 
L 172.91743 186.455415 
L 173.039848 186.455415 
L 173.12102 184.690888 
L 173.201843 184.690888 
L 173.242125 182.485229 
L 173.362455 182.485229 
L 173.362455 181.161834 
L 173.48202 181.161834 
L 173.48202 179.838439 
L 173.60083 179.838439 
L 173.640268 177.191649 
L 173.718895 177.191649 
L 173.797195 176.309385 
L 173.914037 176.309385 
L 173.952824 174.544859 
L 174.030158 174.544859 
L 174.030158 174.103727 
L 174.18388 174.103727 
L 174.18388 173.662595 
L 174.298352 173.662595 
L 174.374282 171.456937 
L 174.412132 171.456937 
L 174.412132 170.574673 
L 174.525228 170.574673 
L 174.562776 168.369015 
L 174.637648 168.369015 
L 174.637648 167.927883 
L 174.860492 167.927883 
L 174.860492 167.04562 
L 175.0442 167.04562 
L 175.15357 161.752039 
L 175.189886 161.752039 
L 175.262307 159.987512 
L 175.796762 159.987512 
L 175.831859 159.105249 
L 175.936756 159.105249 
L 175.971592 157.340722 
L 176.075715 157.340722 
L 176.179266 152.488273 
L 176.316452 152.488273 
L 176.418689 149.841483 
L 176.486539 149.841483 
L 176.587858 142.783376 
L 176.688635 142.783376 
L 176.75552 141.018849 
L 176.855405 141.018849 
L 176.888582 139.254322 
L 177.02071 139.254322 
L 177.1192 137.048663 
L 177.184574 137.048663 
L 177.249723 132.637346 
L 177.411613 132.637346 
L 177.443825 127.343766 
L 177.54013 127.343766 
L 177.572122 126.020371 
L 177.983147 126.020371 
L 178.076737 120.72679 
L 178.107831 120.72679 
L 178.138873 115.43321 
L 178.29332 115.43321 
L 178.385383 112.78642 
L 178.415971 112.78642 
L 178.415971 110.580761 
L 178.568169 110.580761 
L 178.598461 108.375102 
L 178.689047 108.375102 
L 178.779198 106.610576 
L 178.958215 106.610576 
L 178.987886 102.64039 
L 179.106105 102.64039 
L 179.164938 100.434732 
L 179.252842 100.434732 
L 179.311218 98.670205 
L 179.485266 98.670205 
L 179.485266 97.787941 
L 179.686307 97.787941 
L 179.743355 95.582283 
L 179.856935 95.582283 
L 179.941672 93.376624 
L 179.969833 93.376624 
L 180.054064 91.170966 
L 180.110009 91.170966 
L 180.193616 88.083044 
L 180.249148 88.083044 
L 180.304517 86.318517 
L 180.414768 86.318517 
L 180.497035 81.9072 
L 180.55168 81.9072 
L 180.55168 81.024937 
L 180.687602 81.024937 
L 180.795637 75.290224 
L 180.849423 75.290224 
L 180.903055 72.202302 
L 181.036471 72.202302 
L 181.036471 71.761171 
L 181.195331 71.761171 
L 181.195331 70.878907 
L 181.405079 70.878907 
L 181.483135 69.11438 
L 181.560869 69.11438 
L 181.664017 66.026459 
L 181.689715 66.026459 
L 181.792161 62.938537 
L 181.843176 62.938537 
L 181.944791 60.732878 
L 182.045861 60.732878 
L 182.14639 59.409483 
L 182.196455 59.409483 
L 182.246386 58.086088 
L 182.345852 58.086088 
L 182.444795 52.351376 
L 182.518663 52.351376 
L 182.592241 49.263454 
L 182.641134 49.263454 
L 182.641134 48.822322 
L 182.907797 48.822322 
L 182.955878 47.057795 
L 183.123199 47.057795 
L 183.194455 45.293268 
L 183.24181 45.293268 
L 183.336163 43.08761 
L 183.383162 43.08761 
L 183.47681 40.44082 
L 183.50015 40.44082 
L 183.546742 35.588371 
L 183.639581 35.588371 
L 183.66272 34.264976 
L 183.823897 34.264976 
L 183.823897 32.059317 
L 184.006424 32.059317 
L 184.006424 31.618185 
L 185.258062 31.618185 
L 185.321686 29.412527 
L 185.615787 29.412527 
L 185.678215 28.089132 
L 186.210749 28.089132 
L 186.210749 27.648 
L 360.8064 27.648 
L 360.8064 27.648 
" style="fill:none;stroke:#ff00ff;stroke-linecap:square;stroke-width:1.5;"/>
   </g>
   <g id="line2d_35">
    <defs>
     <path d="M -0 8.485281 
L 5.091169 0 
L 0 -8.485281 
L -5.091169 -0 
z
" id="m9abb93786c" style="stroke:#ff00ff;stroke-linejoin:miter;stroke-width:1.5;"/>
    </defs>
    <g>
     <use style="fill-opacity:0;stroke:#ff00ff;stroke-linejoin:miter;stroke-width:1.5;" x="175.262307" xlink:href="#m9abb93786c" y="159.987512"/>
     <use style="fill-opacity:0;stroke:#ff00ff;stroke-linejoin:miter;stroke-width:1.5;" x="186.210749" xlink:href="#m9abb93786c" y="28.089132"/>
     <use style="fill-opacity:0;stroke:#ff00ff;stroke-linejoin:miter;stroke-width:1.5;" x="186.210749" xlink:href="#m9abb93786c" y="27.648"/>
     <use style="fill-opacity:0;stroke:#ff00ff;stroke-linejoin:miter;stroke-width:1.5;" x="186.210749" xlink:href="#m9abb93786c" y="27.648"/>
     <use style="fill-opacity:0;stroke:#ff00ff;stroke-linejoin:miter;stroke-width:1.5;" x="360.8064" xlink:href="#m9abb93786c" y="27.648"/>
    </g>
   </g>
   <g id="line2d_36">
    <path style="fill:none;stroke:#ff00ff;stroke-linecap:square;stroke-width:1.5;"/>
    <g/>
   </g>
   <g id="line2d_37">
    <defs>
     <path d="M 0 1.5 
C 0.397805 1.5 0.77937 1.341951 1.06066 1.06066 
C 1.341951 0.77937 1.5 0.397805 1.5 0 
C 1.5 -0.397805 1.341951 -0.77937 1.06066 -1.06066 
C 0.77937 -1.341951 0.397805 -1.5 0 -1.5 
C -0.397805 -1.5 -0.77937 -1.341951 -1.06066 -1.06066 
C -1.341951 -0.77937 -1.5 -0.397805 -1.5 0 
C -1.5 0.397805 -1.341951 0.77937 -1.06066 1.06066 
C -0.77937 1.341951 -0.397805 1.5 0 1.5 
z
" id="m2a735e5259" style="stroke:#ff7500;"/>
    </defs>
    <g>
     <use style="fill:#ff7500;stroke:#ff7500;" x="190.1338" xlink:href="#m2a735e5259" y="27.648"/>
     <use style="fill:#ff7500;stroke:#ff7500;" x="190.1338" xlink:href="#m2a735e5259" y="27.648"/>
    </g>
   </g>
   <g id="line2d_38">
    <path d="M 127.227236 298.944 
L 127.227236 298.061737 
L 141.062184 298.061737 
L 141.062184 297.620605 
L 145.415054 297.620605 
L 145.415054 297.179473 
L 149.806031 297.179473 
L 149.806031 295.856078 
L 151.024471 295.856078 
L 151.024471 295.414946 
L 151.155108 295.414946 
L 151.155108 294.973815 
L 151.284843 294.973815 
L 151.284843 294.532683 
L 151.54166 294.532683 
L 151.54166 294.091551 
L 151.795018 294.091551 
L 151.795018 293.209288 
L 153.478964 293.209288 
L 153.478964 292.768156 
L 153.593669 292.768156 
L 153.593669 292.327024 
L 153.821002 292.327024 
L 153.821002 291.885893 
L 154.377597 291.885893 
L 154.377597 291.003629 
L 154.811312 291.003629 
L 154.811312 289.680234 
L 155.13016 289.680234 
L 155.235253 288.797971 
L 155.649849 288.797971 
L 155.752086 287.474576 
L 156.055505 287.474576 
L 156.055505 286.15118 
L 156.255099 286.15118 
L 156.255099 285.268917 
L 156.550574 285.268917 
L 156.550574 284.827785 
L 156.937458 284.827785 
L 156.937458 282.622127 
L 157.127956 282.622127 
L 157.127956 281.739863 
L 157.503261 281.739863 
L 157.595929 280.8576 
L 157.688143 280.8576 
L 157.779907 279.093073 
L 157.871225 279.093073 
L 157.871225 277.328546 
L 158.052543 277.328546 
L 158.14255 274.681756 
L 158.410018 274.681756 
L 158.410018 274.240624 
L 158.760826 274.240624 
L 158.760826 273.799493 
L 158.933807 273.799493 
L 159.019705 271.593834 
L 160.502345 271.593834 
L 160.502345 270.711571 
L 161.048777 270.711571 
L 161.125559 268.947044 
L 161.202028 268.947044 
L 161.202028 268.505912 
L 161.728786 268.505912 
L 161.728786 268.06478 
L 161.950101 268.06478 
L 161.950101 267.623649 
L 162.168843 267.623649 
L 162.241195 266.300254 
L 162.38507 266.300254 
L 162.456597 264.094595 
L 162.527853 264.094595 
L 162.527853 263.653463 
L 162.880139 263.653463 
L 162.880139 261.447805 
L 163.019227 261.447805 
L 163.019227 260.565541 
L 163.294355 260.565541 
L 163.362513 257.918751 
L 163.832826 257.918751 
L 163.832826 257.47762 
L 163.96507 257.47762 
L 164.030845 255.713093 
L 164.09639 255.713093 
L 164.09639 255.271961 
L 164.291668 255.271961 
L 164.291668 253.507434 
L 164.484939 253.507434 
L 164.548924 252.625171 
L 164.739583 252.625171 
L 164.739583 250.419512 
L 164.865624 250.419512 
L 164.865624 249.537249 
L 164.990826 249.537249 
L 165.053116 248.654985 
L 165.17708 248.654985 
L 165.238758 245.125932 
L 165.361509 245.125932 
L 165.422585 244.243668 
L 165.544147 244.243668 
L 165.604634 243.361405 
L 165.725029 243.361405 
L 165.725029 242.479141 
L 166.140442 242.479141 
L 166.140442 242.03801 
L 166.315707 242.03801 
L 166.373767 241.155746 
L 166.489353 241.155746 
L 166.489353 240.273483 
L 166.604233 240.273483 
L 166.604233 239.39122 
L 166.718416 239.39122 
L 166.718416 238.950088 
L 166.83191 238.950088 
L 166.888401 236.744429 
L 167.000877 236.744429 
L 167.000877 236.303298 
L 167.279159 236.303298 
L 167.279159 235.862166 
L 167.498859 235.862166 
L 167.553385 234.097639 
L 167.983997 234.097639 
L 168.090128 231.450849 
L 168.352863 231.450849 
L 168.456938 230.127454 
L 168.560441 230.127454 
L 168.611979 228.362927 
L 168.714635 228.362927 
L 168.714635 227.039532 
L 168.91828 227.039532 
L 169.019282 224.833873 
L 169.119745 224.833873 
L 169.119745 224.392741 
L 169.319074 224.392741 
L 169.417952 220.863688 
L 169.614163 220.863688 
L 169.614163 220.422556 
L 170.00055 220.422556 
L 170.048295 218.216898 
L 170.425955 218.216898 
L 170.519197 217.334634 
L 170.7503 217.334634 
L 170.796182 216.011239 
L 170.887612 216.011239 
L 170.887612 215.570107 
L 171.069148 215.570107 
L 171.069148 214.687844 
L 171.248949 214.687844 
L 171.293632 213.364449 
L 171.427048 213.364449 
L 171.427048 210.717659 
L 171.647326 210.717659 
L 171.73472 209.835395 
L 171.82171 209.835395 
L 171.82171 208.953132 
L 171.951446 208.953132 
L 171.951446 208.070868 
L 172.080292 208.070868 
L 172.080292 207.188605 
L 172.208263 207.188605 
L 172.250727 205.86521 
L 172.335368 205.86521 
L 172.419631 203.21842 
L 172.461621 203.21842 
L 172.461621 202.336156 
L 172.835373 202.336156 
L 172.835373 201.012761 
L 172.958324 201.012761 
L 173.039848 198.365971 
L 173.080478 198.365971 
L 173.080478 196.601444 
L 173.201843 196.601444 
L 173.242125 193.954654 
L 173.402394 193.954654 
L 173.402394 193.07239 
L 173.56131 193.07239 
L 173.640268 190.4256 
L 173.679622 190.4256 
L 173.679622 188.661073 
L 173.836223 188.661073 
L 173.914037 187.337678 
L 173.991531 187.337678 
L 174.068707 185.13202 
L 174.412132 185.13202 
L 174.449906 183.808624 
L 174.525228 183.808624 
L 174.525228 183.367493 
L 174.674972 183.367493 
L 174.7494 182.485229 
L 174.786503 182.485229 
L 174.786503 181.161834 
L 174.970932 181.161834 
L 175.007602 178.956176 
L 175.117184 178.956176 
L 175.226131 174.98599 
L 175.262307 174.98599 
L 175.262307 174.544859 
L 175.40632 174.544859 
L 175.477915 171.456937 
L 175.549238 171.456937 
L 175.549238 171.015805 
L 175.691079 171.015805 
L 175.691079 170.574673 
L 175.866889 170.574673 
L 175.866889 168.810146 
L 176.041072 168.810146 
L 176.110296 165.722224 
L 176.282249 165.722224 
L 176.282249 164.839961 
L 176.418689 164.839961 
L 176.486539 162.193171 
L 176.554146 162.193171 
L 176.587858 160.428644 
L 176.688635 160.428644 
L 176.788874 156.458459 
L 176.888582 156.458459 
L 176.888582 153.370537 
L 177.249723 153.370537 
L 177.249723 152.929405 
L 177.699551 152.929405 
L 177.762943 149.841483 
L 177.983147 149.841483 
L 177.983147 149.400351 
L 178.169864 149.400351 
L 178.169864 148.518088 
L 178.29332 148.518088 
L 178.29332 146.753561 
L 178.415971 146.753561 
L 178.415971 145.430166 
L 178.537828 145.430166 
L 178.628705 140.577717 
L 178.6589 140.577717 
L 178.6589 137.048663 
L 178.928497 137.048663 
L 178.958215 133.960741 
L 179.047089 133.960741 
L 179.047089 133.51961 
L 179.194285 133.51961 
L 179.252842 132.196215 
L 179.398443 132.196215 
L 179.485266 126.902634 
L 179.57169 126.902634 
L 179.629086 125.579239 
L 179.771814 125.579239 
L 179.771814 124.255844 
L 179.941672 124.255844 
L 179.969833 119.403395 
L 180.110009 119.403395 
L 180.110009 118.962263 
L 180.249148 118.962263 
L 180.304517 115.874341 
L 180.44223 115.874341 
L 180.44223 114.109815 
L 180.633351 114.109815 
L 180.660496 109.698498 
L 180.795637 109.698498 
L 180.795637 109.257366 
L 180.929814 109.257366 
L 180.929814 108.375102 
L 181.063041 108.375102 
L 181.063041 107.933971 
L 181.195331 107.933971 
L 181.300497 103.963785 
L 181.378988 103.963785 
L 181.483135 101.758127 
L 181.560869 101.758127 
L 181.560869 100.875863 
L 181.715379 100.875863 
L 181.792161 99.9936 
L 181.894052 99.9936 
L 181.944791 96.905678 
L 182.045861 96.905678 
L 182.045861 96.464546 
L 182.246386 96.464546 
L 182.321035 90.288702 
L 182.420108 90.288702 
L 182.444795 87.20078 
L 182.567747 87.20078 
L 182.641134 77.495883 
L 182.811266 77.495883 
L 182.883711 76.172488 
L 182.955878 76.172488 
L 183.027769 74.849093 
L 183.170733 74.849093 
L 183.194455 73.084566 
L 183.312619 73.084566 
L 183.359677 69.11438 
L 183.453442 69.11438 
L 183.50015 68.232117 
L 183.731965 68.232117 
L 183.75499 66.026459 
L 183.915382 66.026459 
L 183.915382 64.261932 
L 184.029116 64.261932 
L 184.097028 61.17401 
L 184.164695 61.17401 
L 184.254541 58.52722 
L 184.366249 58.52722 
L 184.45514 54.998166 
L 184.499429 54.998166 
L 184.499429 54.115902 
L 184.719321 54.115902 
L 184.719321 53.233639 
L 185.108763 53.233639 
L 185.151541 51.02798 
L 185.300502 51.02798 
L 185.385096 47.498927 
L 185.469311 47.498927 
L 185.469311 46.616663 
L 185.698978 46.616663 
L 185.698978 45.7344 
L 185.843683 45.7344 
L 185.843683 44.852137 
L 186.007709 44.852137 
L 186.089188 41.764215 
L 186.150067 41.764215 
L 186.150067 40.881951 
L 186.271237 40.881951 
L 186.371619 38.235161 
L 186.491374 38.235161 
L 186.491374 37.352898 
L 186.649872 37.352898 
L 186.66959 36.029502 
L 186.865648 36.029502 
L 186.924069 35.147239 
L 187.117506 35.147239 
L 187.117506 34.706107 
L 187.289914 34.706107 
L 187.289914 33.382712 
L 187.890434 33.382712 
L 187.890434 32.500449 
L 188.20183 32.500449 
L 188.20183 31.618185 
L 188.61509 31.618185 
L 188.61509 30.735922 
L 188.774361 30.735922 
L 188.774361 30.29479 
L 189.036852 30.29479 
L 189.036852 29.853659 
L 189.803039 29.853659 
L 189.803039 28.971395 
L 190.1338 28.971395 
L 190.1338 27.648 
L 360.8064 27.648 
L 360.8064 27.648 
" style="fill:none;stroke:#ff7500;stroke-linecap:square;stroke-width:1.5;"/>
   </g>
   <g id="line2d_39">
    <defs>
     <path d="M 0 -6 
L -1.347084 -1.854102 
L -5.706339 -1.854102 
L -2.179628 0.708204 
L -3.526712 4.854102 
L -0 2.291796 
L 3.526712 4.854102 
L 2.179628 0.708204 
L 5.706339 -1.854102 
L 1.347084 -1.854102 
z
" id="mc09db4ae53" style="stroke:#ff7500;stroke-linejoin:bevel;stroke-width:1.5;"/>
    </defs>
    <g>
     <use style="fill-opacity:0;stroke:#ff7500;stroke-linejoin:bevel;stroke-width:1.5;" x="178.628705" xlink:href="#mc09db4ae53" y="140.577717"/>
     <use style="fill-opacity:0;stroke:#ff7500;stroke-linejoin:bevel;stroke-width:1.5;" x="190.1338" xlink:href="#mc09db4ae53" y="28.971395"/>
     <use style="fill-opacity:0;stroke:#ff7500;stroke-linejoin:bevel;stroke-width:1.5;" x="190.1338" xlink:href="#mc09db4ae53" y="27.648"/>
     <use style="fill-opacity:0;stroke:#ff7500;stroke-linejoin:bevel;stroke-width:1.5;" x="190.1338" xlink:href="#mc09db4ae53" y="27.648"/>
     <use style="fill-opacity:0;stroke:#ff7500;stroke-linejoin:bevel;stroke-width:1.5;" x="360.8064" xlink:href="#mc09db4ae53" y="27.648"/>
    </g>
   </g>
   <g id="line2d_40">
    <path style="fill:none;stroke:#ff7500;stroke-linecap:square;stroke-width:1.5;"/>
    <g/>
   </g>
   <g id="line2d_41">
    <defs>
     <path d="M 0 1.5 
C 0.397805 1.5 0.77937 1.341951 1.06066 1.06066 
C 1.341951 0.77937 1.5 0.397805 1.5 0 
C 1.5 -0.397805 1.341951 -0.77937 1.06066 -1.06066 
C 0.77937 -1.341951 0.397805 -1.5 0 -1.5 
C -0.397805 -1.5 -0.77937 -1.341951 -1.06066 -1.06066 
C -1.341951 -0.77937 -1.5 -0.397805 -1.5 0 
C -1.5 0.397805 -1.341951 0.77937 -1.06066 1.06066 
C -0.77937 1.341951 -0.397805 1.5 0 1.5 
z
" id="mc259b09831" style="stroke:#6495ed;"/>
    </defs>
    <g>
     <use style="fill:#6495ed;stroke:#6495ed;" x="190.967512" xlink:href="#mc259b09831" y="27.648"/>
     <use style="fill:#6495ed;stroke:#6495ed;" x="190.967512" xlink:href="#mc259b09831" y="27.648"/>
    </g>
   </g>
   <g id="line2d_42">
    <path d="M 137.919637 298.944 
L 137.919637 298.502868 
L 147.423525 298.502868 
L 147.423525 298.061737 
L 149.806031 298.061737 
L 149.806031 297.620605 
L 150.62703 297.620605 
L 150.62703 296.29721 
L 151.920429 296.29721 
L 151.920429 294.532683 
L 152.894708 294.532683 
L 152.894708 294.091551 
L 153.363556 294.091551 
L 153.363556 291.885893 
L 153.478964 291.885893 
L 153.478964 291.003629 
L 153.593669 291.003629 
L 153.593669 290.121366 
L 154.486967 290.121366 
L 154.595705 288.797971 
L 154.703817 288.797971 
L 154.703817 288.356839 
L 155.235253 288.356839 
L 155.235253 287.915707 
L 155.443693 287.915707 
L 155.547053 287.033444 
L 156.648044 287.033444 
L 156.745011 285.710049 
L 157.316545 285.710049 
L 157.316545 285.268917 
L 157.962102 285.268917 
L 157.962102 284.827785 
L 158.321284 284.827785 
L 158.410018 282.180995 
L 158.498335 282.180995 
L 158.58624 280.8576 
L 158.933807 280.8576 
L 158.933807 279.534205 
L 159.359426 279.534205 
L 159.359426 279.093073 
L 159.693121 279.093073 
L 159.693121 278.651941 
L 159.939564 278.651941 
L 159.939564 278.21081 
L 160.18282 278.21081 
L 160.18282 276.887415 
L 160.502345 276.887415 
L 160.581385 275.122888 
L 160.660094 275.122888 
L 160.738476 272.476098 
L 160.894266 272.476098 
L 160.97168 270.711571 
L 161.278189 270.711571 
L 161.278189 270.270439 
L 161.728786 270.270439 
L 161.802848 268.947044 
L 162.168843 268.947044 
L 162.241195 265.41799 
L 162.31327 265.41799 
L 162.31327 264.976859 
L 162.66956 264.976859 
L 162.66956 264.535727 
L 162.880139 264.535727 
L 162.880139 263.653463 
L 163.019227 263.653463 
L 163.019227 261.006673 
L 163.294355 261.006673 
L 163.362513 260.12441 
L 163.430425 260.12441 
L 163.498092 259.242146 
L 163.565517 259.242146 
L 163.565517 258.359883 
L 163.766354 258.359883 
L 163.766354 257.918751 
L 164.030845 257.918751 
L 164.030845 255.713093 
L 164.2268 255.713093 
L 164.291668 254.830829 
L 164.548924 254.830829 
L 164.612692 252.625171 
L 165.053116 252.625171 
L 165.053116 252.184039 
L 165.361509 252.184039 
L 165.422585 251.301776 
L 165.784938 251.301776 
L 165.784938 249.97838 
L 166.081656 249.97838 
L 166.140442 246.008195 
L 166.431649 246.008195 
L 166.431649 245.567063 
L 166.944723 245.567063 
L 166.944723 242.920273 
L 167.056864 242.920273 
L 167.056864 242.479141 
L 167.16834 242.479141 
L 167.223831 241.596878 
L 167.334325 241.596878 
L 167.444174 240.273483 
L 167.607754 240.273483 
L 167.607754 238.950088 
L 167.930707 238.950088 
L 167.930707 238.508956 
L 168.195663 238.508956 
L 168.248209 235.421034 
L 168.404973 235.421034 
L 168.508761 233.656507 
L 168.663377 233.656507 
L 168.663377 232.333112 
L 168.91828 232.333112 
L 168.91828 231.89198 
L 169.269439 231.89198 
L 169.368578 230.127454 
L 169.614163 230.127454 
L 169.614163 229.24519 
L 169.75999 229.24519 
L 169.856584 227.480663 
L 170.472634 227.480663 
L 170.472634 225.716137 
L 170.704306 225.716137 
L 170.704306 224.392741 
L 171.023928 224.392741 
L 171.023928 223.069346 
L 171.159263 223.069346 
L 171.159263 222.628215 
L 171.338209 222.628215 
L 171.338209 221.745951 
L 171.47131 221.745951 
L 171.559524 220.863688 
L 171.603476 220.863688 
L 171.647326 218.216898 
L 171.73472 218.216898 
L 171.82171 213.80558 
L 171.9083 213.80558 
L 171.994493 212.041054 
L 172.165703 212.041054 
L 172.165703 210.717659 
L 172.62865 210.717659 
L 172.711612 208.512 
L 172.91743 208.512 
L 172.958324 205.424078 
L 173.039848 205.424078 
L 173.080478 202.777288 
L 173.201843 202.777288 
L 173.201843 202.336156 
L 173.362455 202.336156 
L 173.362455 201.453893 
L 173.679622 201.453893 
L 173.679622 201.012761 
L 173.797195 201.012761 
L 173.836223 199.689366 
L 173.952824 199.689366 
L 173.991531 195.278049 
L 174.145567 195.278049 
L 174.18388 193.954654 
L 174.336355 193.954654 
L 174.412132 192.631259 
L 174.487605 192.631259 
L 174.525228 190.4256 
L 174.637648 190.4256 
L 174.637648 189.984468 
L 174.7494 189.984468 
L 174.7494 189.543337 
L 174.897377 189.543337 
L 175.007602 188.219941 
L 175.080727 188.219941 
L 175.080727 186.014283 
L 175.226131 186.014283 
L 175.226131 185.573151 
L 175.40632 185.573151 
L 175.477915 184.690888 
L 175.549238 184.690888 
L 175.655719 182.926361 
L 175.691079 182.926361 
L 175.761601 182.044098 
L 175.866889 182.044098 
L 175.901855 178.956176 
L 176.110296 178.956176 
L 176.179266 177.63278 
L 176.247984 177.63278 
L 176.350592 176.309385 
L 176.688635 176.309385 
L 176.788874 175.427122 
L 176.888582 175.427122 
L 176.921701 173.662595 
L 177.02071 173.662595 
L 177.1192 169.251278 
L 177.249723 169.251278 
L 177.347024 164.839961 
L 177.379346 164.839961 
L 177.443825 163.957698 
L 177.54013 163.957698 
L 177.54013 163.516566 
L 177.699551 163.516566 
L 177.731273 162.193171 
L 177.826122 162.193171 
L 177.826122 161.310907 
L 177.983147 161.310907 
L 178.076737 158.222985 
L 178.107831 158.222985 
L 178.169864 152.929405 
L 178.262532 152.929405 
L 178.354746 150.282615 
L 178.415971 150.282615 
L 178.507438 147.635824 
L 178.537828 147.635824 
L 178.628705 145.871298 
L 178.749196 145.871298 
L 178.83906 144.106771 
L 178.958215 144.106771 
L 178.987886 141.018849 
L 179.223586 141.018849 
L 179.311218 138.81319 
L 179.456369 138.81319 
L 179.456369 138.372059 
L 179.57169 138.372059 
L 179.657718 136.607532 
L 179.743355 136.607532 
L 179.828604 133.078478 
L 179.941672 133.078478 
L 179.969833 130.431688 
L 180.054064 130.431688 
L 180.110009 126.461502 
L 180.165788 126.461502 
L 180.249148 124.255844 
L 180.304517 124.255844 
L 180.414768 123.37358 
L 180.44223 123.37358 
L 180.497035 120.72679 
L 180.741697 120.72679 
L 180.849423 115.43321 
L 180.903055 115.43321 
L 180.956535 112.345288 
L 181.036471 112.345288 
L 181.116069 108.816234 
L 181.300497 108.816234 
L 181.378988 105.28718 
L 181.483135 105.28718 
L 181.483135 104.846049 
L 181.612513 104.846049 
L 181.715379 103.081522 
L 181.944791 103.081522 
L 182.045861 99.9936 
L 182.071044 99.9936 
L 182.14639 97.34681 
L 182.321035 97.34681 
L 182.420108 90.729834 
L 182.592241 90.729834 
L 182.641134 88.524176 
L 182.738541 88.524176 
L 182.835445 85.436254 
L 182.907797 85.436254 
L 182.955878 84.112859 
L 183.051672 84.112859 
L 183.123199 80.142673 
L 183.218147 80.142673 
L 183.218147 79.701541 
L 183.430044 79.701541 
L 183.52346 74.849093 
L 183.593219 74.849093 
L 183.593219 73.966829 
L 183.800956 73.966829 
L 183.869695 72.643434 
L 183.938184 72.643434 
L 183.938184 71.320039 
L 184.142166 71.320039 
L 184.23212 69.555512 
L 184.276936 69.555512 
L 184.366249 65.144195 
L 184.432957 65.144195 
L 184.432957 63.8208 
L 184.631672 63.8208 
L 184.631672 62.497405 
L 184.784791 62.497405 
L 184.784791 62.056273 
L 184.95827 62.056273 
L 185.065888 57.203824 
L 185.151541 57.203824 
L 185.215526 54.557034 
L 185.300502 54.557034 
L 185.385096 53.233639 
L 185.511278 53.233639 
L 185.615787 49.263454 
L 185.698978 49.263454 
L 185.698978 48.38119 
L 185.843683 48.38119 
L 185.946366 44.411005 
L 186.007709 44.411005 
L 186.068851 43.528741 
L 186.190544 43.528741 
L 186.271237 41.323083 
L 186.471468 41.323083 
L 186.57079 40.44082 
L 186.610373 40.44082 
L 186.610373 39.558556 
L 186.78747 39.558556 
L 186.78747 38.676293 
L 187.001683 38.676293 
L 187.001683 38.235161 
L 187.403982 38.235161 
L 187.441851 36.029502 
L 187.64878 36.029502 
L 187.64878 35.588371 
L 187.760698 35.588371 
L 187.760698 33.382712 
L 187.871955 33.382712 
L 187.945762 32.500449 
L 188.055932 32.500449 
L 188.055932 32.059317 
L 188.274356 32.059317 
L 188.274356 31.618185 
L 188.543867 31.618185 
L 188.543867 30.735922 
L 188.739083 30.735922 
L 188.739083 30.29479 
L 189.803039 30.29479 
L 189.803039 29.412527 
L 190.018694 29.412527 
L 190.018694 28.971395 
L 190.967512 28.971395 
L 190.967512 27.648 
L 360.8064 27.648 
L 360.8064 27.648 
" style="fill:none;stroke:#6495ed;stroke-linecap:square;stroke-width:1.5;"/>
   </g>
   <g id="line2d_43">
    <defs>
     <path d="M -0 6 
L 6 -6 
L -6 -6 
z
" id="m38ee3cdb93" style="stroke:#6495ed;stroke-linejoin:miter;stroke-width:1.5;"/>
    </defs>
    <g>
     <use style="fill-opacity:0;stroke:#6495ed;stroke-linejoin:miter;stroke-width:1.5;" x="173.952824" xlink:href="#m38ee3cdb93" y="199.689366"/>
     <use style="fill-opacity:0;stroke:#6495ed;stroke-linejoin:miter;stroke-width:1.5;" x="190.967512" xlink:href="#m38ee3cdb93" y="28.971395"/>
     <use style="fill-opacity:0;stroke:#6495ed;stroke-linejoin:miter;stroke-width:1.5;" x="190.967512" xlink:href="#m38ee3cdb93" y="27.648"/>
     <use style="fill-opacity:0;stroke:#6495ed;stroke-linejoin:miter;stroke-width:1.5;" x="190.967512" xlink:href="#m38ee3cdb93" y="27.648"/>
     <use style="fill-opacity:0;stroke:#6495ed;stroke-linejoin:miter;stroke-width:1.5;" x="360.8064" xlink:href="#m38ee3cdb93" y="27.648"/>
    </g>
   </g>
   <g id="line2d_44">
    <path style="fill:none;stroke:#6495ed;stroke-linecap:square;stroke-width:1.5;"/>
    <g/>
   </g>
   <g id="line2d_45">
    <defs>
     <path d="M 0 1.5 
C 0.397805 1.5 0.77937 1.341951 1.06066 1.06066 
C 1.341951 0.77937 1.5 0.397805 1.5 0 
C 1.5 -0.397805 1.341951 -0.77937 1.06066 -1.06066 
C 0.77937 -1.341951 0.397805 -1.5 0 -1.5 
C -0.397805 -1.5 -0.77937 -1.341951 -1.06066 -1.06066 
C -1.341951 -0.77937 -1.5 -0.397805 -1.5 0 
C -1.5 0.397805 -1.341951 0.77937 -1.06066 1.06066 
C -0.77937 1.341951 -0.397805 1.5 0 1.5 
z
" id="m12409f95c5" style="stroke:#ff0000;"/>
    </defs>
    <g>
     <use style="fill:#ff0000;stroke:#ff0000;" x="361.774981" xlink:href="#m12409f95c5" y="219.540293"/>
     <use style="fill:#ff0000;stroke:#ff0000;" x="361.774981" xlink:href="#m12409f95c5" y="219.540293"/>
    </g>
   </g>
   <g id="line2d_46">
    <path d="M 109.756698 298.944 
L 109.756698 297.620605 
L 118.152051 297.620605 
L 118.152051 297.179473 
L 148.57797 297.179473 
L 148.57797 296.29721 
L 158.542339 296.29721 
L 158.542339 295.856078 
L 162.56338 295.856078 
L 162.634233 294.973815 
L 163.464289 294.973815 
L 163.464289 294.532683 
L 164.129077 294.532683 
L 164.129077 294.091551 
L 166.111072 294.091551 
L 166.111072 293.65042 
L 169.393282 293.65042 
L 169.393282 293.209288 
L 170.308749 293.209288 
L 170.308749 292.768156 
L 170.819081 292.768156 
L 170.819081 292.327024 
L 174.010854 292.327024 
L 174.010854 291.885893 
L 175.988986 291.885893 
L 175.988986 291.444761 
L 177.651866 291.444761 
L 177.651866 291.003629 
L 178.734177 291.003629 
L 178.734177 290.562498 
L 179.614753 290.562498 
L 179.614753 289.239102 
L 179.871084 289.239102 
L 179.871084 288.797971 
L 181.753809 288.797971 
L 181.753809 288.356839 
L 186.580694 288.356839 
L 186.580694 287.915707 
L 186.836369 287.915707 
L 186.836369 286.15118 
L 188.853493 286.15118 
L 188.853493 284.827785 
L 193.508827 284.827785 
L 193.508827 284.386654 
L 195.777715 284.386654 
L 195.777715 283.50439 
L 196.422337 283.50439 
L 196.422337 283.063259 
L 196.655589 283.063259 
L 196.655589 281.739863 
L 197.226371 281.739863 
L 197.226371 279.975337 
L 199.826645 279.975337 
L 199.826645 279.534205 
L 200.223916 279.534205 
L 200.223916 278.651941 
L 201.90144 278.651941 
L 201.90144 277.769678 
L 203.94385 277.769678 
L 203.94385 276.446283 
L 204.932345 276.446283 
L 204.977081 275.56402 
L 207.619814 275.56402 
L 207.619814 274.240624 
L 211.5056 274.240624 
L 211.5056 273.799493 
L 212.802059 273.799493 
L 212.802059 273.358361 
L 216.37131 273.358361 
L 216.37131 272.476098 
L 218.800259 272.476098 
L 218.800259 272.034966 
L 219.335455 272.034966 
L 219.335455 271.152702 
L 221.32335 271.152702 
L 221.373256 269.829307 
L 222.397721 269.829307 
L 222.465447 268.505912 
L 225.237176 268.505912 
L 225.237176 267.623649 
L 229.024551 267.623649 
L 229.024551 266.300254 
L 231.800105 266.300254 
L 231.800105 265.859122 
L 235.285845 265.859122 
L 235.285845 264.976859 
L 235.640805 264.976859 
L 235.640805 264.535727 
L 237.18499 264.535727 
L 237.18499 264.094595 
L 238.266201 264.094595 
L 238.266201 262.7712 
L 242.533796 262.7712 
L 242.533796 261.888937 
L 242.669845 261.888937 
L 242.669845 261.006673 
L 249.205844 261.006673 
L 249.205844 260.565541 
L 252.595115 260.565541 
L 252.595115 260.12441 
L 253.940472 260.12441 
L 253.940472 259.683278 
L 254.545624 259.683278 
L 254.545624 259.242146 
L 255.229508 259.242146 
L 255.229508 258.801015 
L 256.120698 258.801015 
L 256.120698 258.359883 
L 257.220617 258.359883 
L 257.220617 257.036488 
L 257.965938 257.036488 
L 257.965938 256.595356 
L 258.897662 256.595356 
L 258.897662 256.154224 
L 259.998052 256.154224 
L 259.998052 254.830829 
L 261.321399 254.830829 
L 261.422463 253.507434 
L 263.901247 253.507434 
L 263.901247 253.066302 
L 264.149705 253.066302 
L 264.149705 252.625171 
L 266.524949 252.625171 
L 266.524949 251.301776 
L 274.723278 251.301776 
L 274.723278 250.860644 
L 278.874413 250.860644 
L 278.874413 248.213854 
L 280.639589 248.213854 
L 280.639589 247.772722 
L 284.54976 247.772722 
L 284.54976 246.890459 
L 285.448691 246.890459 
L 285.448691 246.449327 
L 285.6781 246.449327 
L 285.6781 246.008195 
L 286.469673 246.008195 
L 286.469673 245.125932 
L 288.560233 245.125932 
L 288.560233 244.6848 
L 290.370559 244.6848 
L 290.370559 244.243668 
L 290.692131 244.243668 
L 290.692131 243.361405 
L 291.190545 243.361405 
L 291.190545 242.920273 
L 291.470327 242.920273 
L 291.470327 242.479141 
L 296.542502 242.479141 
L 296.542502 241.596878 
L 298.96881 241.596878 
L 298.96881 240.714615 
L 299.391835 240.714615 
L 299.501506 239.39122 
L 299.885291 239.39122 
L 299.885291 238.508956 
L 300.536234 238.508956 
L 300.536234 238.067824 
L 302.073044 238.067824 
L 302.142976 237.185561 
L 302.346852 237.185561 
L 302.346852 236.744429 
L 305.490282 236.744429 
L 305.490282 235.862166 
L 307.034585 235.862166 
L 307.034585 235.421034 
L 307.311184 235.421034 
L 307.383244 234.538771 
L 311.529003 234.538771 
L 311.529003 233.656507 
L 312.661733 233.656507 
L 312.661733 233.215376 
L 312.867209 233.215376 
L 312.867209 232.333112 
L 314.224841 232.333112 
L 314.261529 231.450849 
L 316.093073 231.450849 
L 316.093073 230.568585 
L 318.422719 230.568585 
L 318.422719 230.127454 
L 319.763182 230.127454 
L 319.763182 229.24519 
L 322.832818 229.24519 
L 322.832818 228.804059 
L 325.471119 228.804059 
L 325.471119 226.5984 
L 327.784504 226.5984 
L 327.784504 226.157268 
L 329.844297 226.157268 
L 329.844297 224.833873 
L 331.700645 224.833873 
L 331.700645 224.392741 
L 333.390147 224.392741 
L 333.390147 223.95161 
L 334.940337 223.95161 
L 334.940337 223.510478 
L 338.946015 223.510478 
L 338.946015 223.069346 
L 343.229638 223.069346 
L 343.229638 222.628215 
L 344.163783 222.628215 
L 344.163783 222.187083 
L 345.903463 222.187083 
L 345.903463 221.745951 
L 346.716469 221.745951 
L 346.716469 221.30482 
L 347.49579 221.30482 
L 347.49579 220.863688 
L 348.963788 220.863688 
L 348.963788 220.422556 
L 352.199323 220.422556 
L 352.199323 219.981424 
L 360.8064 219.981424 
L 360.8064 219.981424 
" style="fill:none;stroke:#ff0000;stroke-linecap:square;stroke-width:1.5;"/>
   </g>
   <g id="line2d_47">
    <defs>
     <path d="M 0 -6 
L -5.196152 -3 
L -5.196152 3 
L -0 6 
L 5.196152 3 
L 5.196152 -3 
z
" id="m52134e0304" style="stroke:#ff0000;stroke-linejoin:miter;stroke-width:1.5;"/>
    </defs>
    <g>
     <use style="fill-opacity:0;stroke:#ff0000;stroke-linejoin:miter;stroke-width:1.5;" x="221.373256" xlink:href="#m52134e0304" y="269.829307"/>
     <use style="fill-opacity:0;stroke:#ff0000;stroke-linejoin:miter;stroke-width:1.5;" x="280.639589" xlink:href="#m52134e0304" y="248.213854"/>
     <use style="fill-opacity:0;stroke:#ff0000;stroke-linejoin:miter;stroke-width:1.5;" x="352.199323" xlink:href="#m52134e0304" y="219.981424"/>
     <use style="fill-opacity:0;stroke:#ff0000;stroke-linejoin:miter;stroke-width:1.5;" x="352.199323" xlink:href="#m52134e0304" y="219.981424"/>
     <use style="fill-opacity:0;stroke:#ff0000;stroke-linejoin:miter;stroke-width:1.5;" x="360.8064" xlink:href="#m52134e0304" y="219.981424"/>
    </g>
   </g>
   <g id="line2d_48">
    <path style="fill:none;stroke:#ff0000;stroke-linecap:square;stroke-width:1.5;"/>
    <g/>
   </g>
   <g id="line2d_49">
    <path clip-path="url(#p781721d253)" d="M 287.215174 245.125932 
" style="fill:none;stroke:#ff0000;stroke-linecap:square;stroke-width:1.5;"/>
    <defs>
     <path d="M -12 12 
L 12 -12 
M -12 -12 
L 12 12 
" id="m22af8b0076" style="stroke:#ff0000;"/>
    </defs>
    <g clip-path="url(#p781721d253)">
     <use style="fill:#ff0000;stroke:#ff0000;" x="287.215174" xlink:href="#m22af8b0076" y="245.125932"/>
    </g>
   </g>
   <g id="line2d_50">
    <defs>
     <path d="M 0 1.5 
C 0.397805 1.5 0.77937 1.341951 1.06066 1.06066 
C 1.341951 0.77937 1.5 0.397805 1.5 0 
C 1.5 -0.397805 1.341951 -0.77937 1.06066 -1.06066 
C 0.77937 -1.341951 0.397805 -1.5 0 -1.5 
C -0.397805 -1.5 -0.77937 -1.341951 -1.06066 -1.06066 
C -1.341951 -0.77937 -1.5 -0.397805 -1.5 0 
C -1.5 0.397805 -1.341951 0.77937 -1.06066 1.06066 
C -0.77937 1.341951 -0.397805 1.5 0 1.5 
z
" id="m4cfa4816e7" style="stroke:#9acd32;"/>
    </defs>
    <g>
     <use style="fill:#9acd32;stroke:#9acd32;" x="113.954374" xlink:href="#m4cfa4816e7" y="27.648"/>
     <use style="fill:#9acd32;stroke:#9acd32;" x="113.954374" xlink:href="#m4cfa4816e7" y="27.648"/>
    </g>
   </g>
   <g id="line2d_51">
    <path d="M 44.560826 298.944 
L 44.560826 298.502868 
L 87.876026 298.502868 
L 87.876026 200.571629 
L 91.305777 200.571629 
L 91.305777 124.255844 
L 94.205591 124.255844 
L 94.205591 104.846049 
L 96.717523 104.846049 
L 96.717523 87.641912 
L 98.933205 87.641912 
L 98.933205 71.761171 
L 102.708132 71.761171 
L 102.708132 56.762693 
L 104.344952 56.762693 
L 104.344952 41.323083 
L 108.542628 41.323083 
L 108.542628 39.558556 
L 113.954374 39.558556 
L 113.954374 27.648 
L 360.8064 27.648 
" style="fill:none;stroke:#9acd32;stroke-linecap:square;stroke-width:1.5;"/>
   </g>
   <g id="line2d_52">
    <defs>
     <path d="M 0 -6 
L -6 6 
L 6 6 
z
" id="m7c27864f08" style="stroke:#9acd32;stroke-linejoin:miter;stroke-width:1.5;"/>
    </defs>
    <g>
     <use style="fill-opacity:0;stroke:#9acd32;stroke-linejoin:miter;stroke-width:1.5;" x="87.876026" xlink:href="#m7c27864f08" y="298.502868"/>
     <use style="fill-opacity:0;stroke:#9acd32;stroke-linejoin:miter;stroke-width:1.5;" x="113.954374" xlink:href="#m7c27864f08" y="39.558556"/>
     <use style="fill-opacity:0;stroke:#9acd32;stroke-linejoin:miter;stroke-width:1.5;" x="113.954374" xlink:href="#m7c27864f08" y="39.558556"/>
     <use style="fill-opacity:0;stroke:#9acd32;stroke-linejoin:miter;stroke-width:1.5;" x="113.954374" xlink:href="#m7c27864f08" y="27.648"/>
     <use style="fill-opacity:0;stroke:#9acd32;stroke-linejoin:miter;stroke-width:1.5;" x="113.954374" xlink:href="#m7c27864f08" y="27.648"/>
     <use style="fill-opacity:0;stroke:#9acd32;stroke-linejoin:miter;stroke-width:1.5;" x="360.8064" xlink:href="#m7c27864f08" y="27.648"/>
    </g>
   </g>
   <g id="line2d_53">
    <path style="fill:none;stroke:#9acd32;stroke-linecap:square;stroke-width:1.5;"/>
    <g/>
   </g>
   <g id="line2d_54">
    <path d="M 360.8064 219.981424 
L 380.514816 293.51808 
" style="fill:none;stroke:#ff0000;stroke-linecap:square;stroke-width:1.5;"/>
    <g>
     <use style="fill-opacity:0;stroke:#ff0000;stroke-linejoin:miter;stroke-width:1.5;" x="360.8064" xlink:href="#m52134e0304" y="219.981424"/>
     <use style="fill-opacity:0;stroke:#ff0000;stroke-linejoin:miter;stroke-width:1.5;" x="380.514816" xlink:href="#m52134e0304" y="293.51808"/>
    </g>
   </g>
   <g id="line2d_55">
    <path d="M 360.8064 27.648 
L 380.514816 241.429248 
" style="fill:none;stroke:#000080;stroke-linecap:square;stroke-width:1.5;"/>
    <g>
     <use style="fill-opacity:0;stroke:#000080;stroke-width:1.5;" x="360.8064" xlink:href="#m4bbf7499c0" y="27.648"/>
     <use style="fill-opacity:0;stroke:#000080;stroke-width:1.5;" x="380.514816" xlink:href="#m4bbf7499c0" y="241.429248"/>
    </g>
   </g>
   <g id="line2d_56">
    <path d="M 360.8064 27.648 
L 380.514816 189.340416 
" style="fill:none;stroke:#6495ed;stroke-linecap:square;stroke-width:1.5;"/>
    <g>
     <use style="fill-opacity:0;stroke:#6495ed;stroke-linejoin:miter;stroke-width:1.5;" x="360.8064" xlink:href="#m38ee3cdb93" y="27.648"/>
     <use style="fill-opacity:0;stroke:#6495ed;stroke-linejoin:miter;stroke-width:1.5;" x="380.514816" xlink:href="#m38ee3cdb93" y="189.340416"/>
    </g>
   </g>
   <g id="line2d_57">
    <path d="M 360.8064 27.648 
L 380.514816 137.251584 
" style="fill:none;stroke:#ff7500;stroke-linecap:square;stroke-width:1.5;"/>
    <g>
     <use style="fill-opacity:0;stroke:#ff7500;stroke-linejoin:bevel;stroke-width:1.5;" x="360.8064" xlink:href="#mc09db4ae53" y="27.648"/>
     <use style="fill-opacity:0;stroke:#ff7500;stroke-linejoin:bevel;stroke-width:1.5;" x="380.514816" xlink:href="#mc09db4ae53" y="137.251584"/>
    </g>
   </g>
   <g id="line2d_58">
    <path d="M 360.8064 27.648 
L 380.514816 85.162752 
" style="fill:none;stroke:#ff00ff;stroke-linecap:square;stroke-width:1.5;"/>
    <g>
     <use style="fill-opacity:0;stroke:#ff00ff;stroke-linejoin:miter;stroke-width:1.5;" x="360.8064" xlink:href="#m9abb93786c" y="27.648"/>
     <use style="fill-opacity:0;stroke:#ff00ff;stroke-linejoin:miter;stroke-width:1.5;" x="380.514816" xlink:href="#m9abb93786c" y="85.162752"/>
    </g>
   </g>
   <g id="line2d_59">
    <path d="M 360.8064 27.648 
L 380.514816 33.07392 
" style="fill:none;stroke:#9acd32;stroke-linecap:square;stroke-width:1.5;"/>
    <g>
     <use style="fill-opacity:0;stroke:#9acd32;stroke-linejoin:miter;stroke-width:1.5;" x="360.8064" xlink:href="#m7c27864f08" y="27.648"/>
     <use style="fill-opacity:0;stroke:#9acd32;stroke-linejoin:miter;stroke-width:1.5;" x="380.514816" xlink:href="#m7c27864f08" y="33.07392"/>
    </g>
   </g>
   <g id="line2d_60">
    <path d="M 360.8064 298.944 
L 360.8064 27.648 
" style="fill:none;stroke:#000000;stroke-linecap:square;stroke-width:1.5;"/>
   </g>
   <g id="patch_3">
    <path d="M 57.6 298.944 
L 360.8064 298.944 
" style="fill:none;stroke:#000000;stroke-linecap:square;stroke-linejoin:miter;stroke-width:0.8;"/>
   </g>
   <g id="patch_4">
    <path d="M 57.6 27.648 
L 360.8064 27.648 
" style="fill:none;stroke:#000000;stroke-linecap:square;stroke-linejoin:miter;stroke-width:0.8;"/>
   </g>
   <g id="text_13">
    <!-- rs -->
    <g transform="translate(386.578944 297.381205)scale(0.14 -0.14)">
     <use xlink:href="#DejaVuSans-114"/>
     <use x="41.113281" xlink:href="#DejaVuSans-115"/>
    </g>
   </g>
   <g id="text_14">
    <!-- al1 -->
    <g transform="translate(386.578944 245.292373)scale(0.14 -0.14)">
     <use xlink:href="#DejaVuSans-97"/>
     <use x="61.279297" xlink:href="#DejaVuSans-108"/>
     <use x="89.0625" xlink:href="#DejaVuSans-49"/>
    </g>
   </g>
   <g id="text_15">
    <!-- al4 -->
    <g transform="translate(386.578944 193.203541)scale(0.14 -0.14)">
     <use xlink:href="#DejaVuSans-97"/>
     <use x="61.279297" xlink:href="#DejaVuSans-108"/>
     <use x="89.0625" xlink:href="#DejaVuSans-52"/>
    </g>
   </g>
   <g id="text_16">
    <!-- al3 -->
    <g transform="translate(386.578944 141.114709)scale(0.14 -0.14)">
     <defs>
      <path d="M 40.578125 39.3125 
Q 47.65625 37.796875 51.625 33 
Q 55.609375 28.21875 55.609375 21.1875 
Q 55.609375 10.40625 48.1875 4.484375 
Q 40.765625 -1.421875 27.09375 -1.421875 
Q 22.515625 -1.421875 17.65625 -0.515625 
Q 12.796875 0.390625 7.625 2.203125 
L 7.625 11.71875 
Q 11.71875 9.328125 16.59375 8.109375 
Q 21.484375 6.890625 26.8125 6.890625 
Q 36.078125 6.890625 40.9375 10.546875 
Q 45.796875 14.203125 45.796875 21.1875 
Q 45.796875 27.640625 41.28125 31.265625 
Q 36.765625 34.90625 28.71875 34.90625 
L 20.21875 34.90625 
L 20.21875 43.015625 
L 29.109375 43.015625 
Q 36.375 43.015625 40.234375 45.921875 
Q 44.09375 48.828125 44.09375 54.296875 
Q 44.09375 59.90625 40.109375 62.90625 
Q 36.140625 65.921875 28.71875 65.921875 
Q 24.65625 65.921875 20.015625 65.03125 
Q 15.375 64.15625 9.8125 62.3125 
L 9.8125 71.09375 
Q 15.4375 72.65625 20.34375 73.4375 
Q 25.25 74.21875 29.59375 74.21875 
Q 40.828125 74.21875 47.359375 69.109375 
Q 53.90625 64.015625 53.90625 55.328125 
Q 53.90625 49.265625 50.4375 45.09375 
Q 46.96875 40.921875 40.578125 39.3125 
z
" id="DejaVuSans-51"/>
     </defs>
     <use xlink:href="#DejaVuSans-97"/>
     <use x="61.279297" xlink:href="#DejaVuSans-108"/>
     <use x="89.0625" xlink:href="#DejaVuSans-51"/>
    </g>
   </g>
   <g id="text_17">
    <!-- al2 -->
    <g transform="translate(386.578944 89.025877)scale(0.14 -0.14)">
     <use xlink:href="#DejaVuSans-97"/>
     <use x="61.279297" xlink:href="#DejaVuSans-108"/>
     <use x="89.0625" xlink:href="#DejaVuSans-50"/>
    </g>
   </g>
   <g id="text_18">
    <!-- cobyla -->
    <g transform="translate(386.578944 36.937045)scale(0.14 -0.14)">
     <defs>
      <path d="M 48.6875 27.296875 
Q 48.6875 37.203125 44.609375 42.84375 
Q 40.53125 48.484375 33.40625 48.484375 
Q 26.265625 48.484375 22.1875 42.84375 
Q 18.109375 37.203125 18.109375 27.296875 
Q 18.109375 17.390625 22.1875 11.75 
Q 26.265625 6.109375 33.40625 6.109375 
Q 40.53125 6.109375 44.609375 11.75 
Q 48.6875 17.390625 48.6875 27.296875 
z
M 18.109375 46.390625 
Q 20.953125 51.265625 25.265625 53.625 
Q 29.59375 56 35.59375 56 
Q 45.5625 56 51.78125 48.09375 
Q 58.015625 40.1875 58.015625 27.296875 
Q 58.015625 14.40625 51.78125 6.484375 
Q 45.5625 -1.421875 35.59375 -1.421875 
Q 29.59375 -1.421875 25.265625 0.953125 
Q 20.953125 3.328125 18.109375 8.203125 
L 18.109375 0 
L 9.078125 0 
L 9.078125 75.984375 
L 18.109375 75.984375 
z
" id="DejaVuSans-98"/>
      <path d="M 32.171875 -5.078125 
Q 28.375 -14.84375 24.75 -17.8125 
Q 21.140625 -20.796875 15.09375 -20.796875 
L 7.90625 -20.796875 
L 7.90625 -13.28125 
L 13.1875 -13.28125 
Q 16.890625 -13.28125 18.9375 -11.515625 
Q 21 -9.765625 23.484375 -3.21875 
L 25.09375 0.875 
L 2.984375 54.6875 
L 12.5 54.6875 
L 29.59375 11.921875 
L 46.6875 54.6875 
L 56.203125 54.6875 
z
" id="DejaVuSans-121"/>
     </defs>
     <use xlink:href="#DejaVuSans-99"/>
     <use x="54.980469" xlink:href="#DejaVuSans-111"/>
     <use x="116.162109" xlink:href="#DejaVuSans-98"/>
     <use x="179.638672" xlink:href="#DejaVuSans-121"/>
     <use x="238.818359" xlink:href="#DejaVuSans-108"/>
     <use x="266.601562" xlink:href="#DejaVuSans-97"/>
    </g>
   </g>
   <g id="text_19">
    <!-- bbob-constrained f18, 2-D -->
    <g transform="translate(60.632064 38.111366)scale(0.102 -0.102)">
     <defs>
      <path d="M 4.890625 31.390625 
L 31.203125 31.390625 
L 31.203125 23.390625 
L 4.890625 23.390625 
z
" id="DejaVuSans-45"/>
      <path d="M 19.671875 64.796875 
L 19.671875 8.109375 
L 31.59375 8.109375 
Q 46.6875 8.109375 53.6875 14.9375 
Q 60.6875 21.78125 60.6875 36.53125 
Q 60.6875 51.171875 53.6875 57.984375 
Q 46.6875 64.796875 31.59375 64.796875 
z
M 9.8125 72.90625 
L 30.078125 72.90625 
Q 51.265625 72.90625 61.171875 64.09375 
Q 71.09375 55.28125 71.09375 36.53125 
Q 71.09375 17.671875 61.125 8.828125 
Q 51.171875 0 30.078125 0 
L 9.8125 0 
z
" id="DejaVuSans-68"/>
     </defs>
     <use xlink:href="#DejaVuSans-98"/>
     <use x="63.476562" xlink:href="#DejaVuSans-98"/>
     <use x="126.953125" xlink:href="#DejaVuSans-111"/>
     <use x="188.134766" xlink:href="#DejaVuSans-98"/>
     <use x="251.611328" xlink:href="#DejaVuSans-45"/>
     <use x="287.695312" xlink:href="#DejaVuSans-99"/>
     <use x="342.675781" xlink:href="#DejaVuSans-111"/>
     <use x="403.857422" xlink:href="#DejaVuSans-110"/>
     <use x="467.236328" xlink:href="#DejaVuSans-115"/>
     <use x="519.335938" xlink:href="#DejaVuSans-116"/>
     <use x="558.544922" xlink:href="#DejaVuSans-114"/>
     <use x="599.658203" xlink:href="#DejaVuSans-97"/>
     <use x="660.9375" xlink:href="#DejaVuSans-105"/>
     <use x="688.720703" xlink:href="#DejaVuSans-110"/>
     <use x="752.099609" xlink:href="#DejaVuSans-101"/>
     <use x="813.623047" xlink:href="#DejaVuSans-100"/>
     <use x="877.099609" xlink:href="#DejaVuSans-32"/>
     <use x="908.886719" xlink:href="#DejaVuSans-102"/>
     <use x="944.091797" xlink:href="#DejaVuSans-49"/>
     <use x="1007.714844" xlink:href="#DejaVuSans-56"/>
     <use x="1071.337891" xlink:href="#DejaVuSans-44"/>
     <use x="1103.125" xlink:href="#DejaVuSans-32"/>
     <use x="1134.912109" xlink:href="#DejaVuSans-50"/>
     <use x="1198.535156" xlink:href="#DejaVuSans-45"/>
     <use x="1234.619141" xlink:href="#DejaVuSans-68"/>
    </g>
    <!-- 41 targets: 100..1e-06 -->
    <g transform="translate(60.632064 49.533135)scale(0.102 -0.102)">
     <defs>
      <path d="M 11.71875 12.40625 
L 22.015625 12.40625 
L 22.015625 0 
L 11.71875 0 
z
M 11.71875 51.703125 
L 22.015625 51.703125 
L 22.015625 39.3125 
L 11.71875 39.3125 
z
" id="DejaVuSans-58"/>
     </defs>
     <use xlink:href="#DejaVuSans-52"/>
     <use x="63.623047" xlink:href="#DejaVuSans-49"/>
     <use x="127.246094" xlink:href="#DejaVuSans-32"/>
     <use x="159.033203" xlink:href="#DejaVuSans-116"/>
     <use x="198.242188" xlink:href="#DejaVuSans-97"/>
     <use x="259.521484" xlink:href="#DejaVuSans-114"/>
     <use x="298.884766" xlink:href="#DejaVuSans-103"/>
     <use x="362.361328" xlink:href="#DejaVuSans-101"/>
     <use x="423.884766" xlink:href="#DejaVuSans-116"/>
     <use x="463.09375" xlink:href="#DejaVuSans-115"/>
     <use x="515.193359" xlink:href="#DejaVuSans-58"/>
     <use x="548.884766" xlink:href="#DejaVuSans-32"/>
     <use x="580.671875" xlink:href="#DejaVuSans-49"/>
     <use x="644.294922" xlink:href="#DejaVuSans-48"/>
     <use x="707.917969" xlink:href="#DejaVuSans-48"/>
     <use x="771.541016" xlink:href="#DejaVuSans-46"/>
     <use x="803.328125" xlink:href="#DejaVuSans-46"/>
     <use x="835.115234" xlink:href="#DejaVuSans-49"/>
     <use x="898.738281" xlink:href="#DejaVuSans-101"/>
     <use x="960.261719" xlink:href="#DejaVuSans-45"/>
     <use x="996.345703" xlink:href="#DejaVuSans-48"/>
     <use x="1059.96875" xlink:href="#DejaVuSans-54"/>
    </g>
    <!-- evals = f-evals + g-evals -->
    <g transform="translate(60.632064 60.954904)scale(0.102 -0.102)">
     <defs>
      <path d="M 10.59375 45.40625 
L 73.1875 45.40625 
L 73.1875 37.203125 
L 10.59375 37.203125 
z
M 10.59375 25.484375 
L 73.1875 25.484375 
L 73.1875 17.1875 
L 10.59375 17.1875 
z
" id="DejaVuSans-61"/>
      <path d="M 46 62.703125 
L 46 35.5 
L 73.1875 35.5 
L 73.1875 27.203125 
L 46 27.203125 
L 46 0 
L 37.796875 0 
L 37.796875 27.203125 
L 10.59375 27.203125 
L 10.59375 35.5 
L 37.796875 35.5 
L 37.796875 62.703125 
z
" id="DejaVuSans-43"/>
     </defs>
     <use xlink:href="#DejaVuSans-101"/>
     <use x="61.523438" xlink:href="#DejaVuSans-118"/>
     <use x="120.703125" xlink:href="#DejaVuSans-97"/>
     <use x="181.982422" xlink:href="#DejaVuSans-108"/>
     <use x="209.765625" xlink:href="#DejaVuSans-115"/>
     <use x="261.865234" xlink:href="#DejaVuSans-32"/>
     <use x="293.652344" xlink:href="#DejaVuSans-61"/>
     <use x="377.441406" xlink:href="#DejaVuSans-32"/>
     <use x="409.228516" xlink:href="#DejaVuSans-102"/>
     <use x="438.933594" xlink:href="#DejaVuSans-45"/>
     <use x="475.017578" xlink:href="#DejaVuSans-101"/>
     <use x="536.541016" xlink:href="#DejaVuSans-118"/>
     <use x="595.720703" xlink:href="#DejaVuSans-97"/>
     <use x="657" xlink:href="#DejaVuSans-108"/>
     <use x="684.783203" xlink:href="#DejaVuSans-115"/>
     <use x="736.882812" xlink:href="#DejaVuSans-32"/>
     <use x="768.669922" xlink:href="#DejaVuSans-43"/>
     <use x="852.458984" xlink:href="#DejaVuSans-32"/>
     <use x="884.246094" xlink:href="#DejaVuSans-103"/>
     <use x="947.722656" xlink:href="#DejaVuSans-45"/>
     <use x="983.806641" xlink:href="#DejaVuSans-101"/>
     <use x="1045.330078" xlink:href="#DejaVuSans-118"/>
     <use x="1104.509766" xlink:href="#DejaVuSans-97"/>
     <use x="1165.789062" xlink:href="#DejaVuSans-108"/>
     <use x="1193.572266" xlink:href="#DejaVuSans-115"/>
    </g>
    <!-- 15 instances -->
    <g transform="translate(60.632064 72.376672)scale(0.102 -0.102)">
     <defs>
      <path d="M 10.796875 72.90625 
L 49.515625 72.90625 
L 49.515625 64.59375 
L 19.828125 64.59375 
L 19.828125 46.734375 
Q 21.96875 47.46875 24.109375 47.828125 
Q 26.265625 48.1875 28.421875 48.1875 
Q 40.625 48.1875 47.75 41.5 
Q 54.890625 34.8125 54.890625 23.390625 
Q 54.890625 11.625 47.5625 5.09375 
Q 40.234375 -1.421875 26.90625 -1.421875 
Q 22.3125 -1.421875 17.546875 -0.640625 
Q 12.796875 0.140625 7.71875 1.703125 
L 7.71875 11.625 
Q 12.109375 9.234375 16.796875 8.0625 
Q 21.484375 6.890625 26.703125 6.890625 
Q 35.15625 6.890625 40.078125 11.328125 
Q 45.015625 15.765625 45.015625 23.390625 
Q 45.015625 31 40.078125 35.4375 
Q 35.15625 39.890625 26.703125 39.890625 
Q 22.75 39.890625 18.8125 39.015625 
Q 14.890625 38.140625 10.796875 36.28125 
z
" id="DejaVuSans-53"/>
     </defs>
     <use xlink:href="#DejaVuSans-49"/>
     <use x="63.623047" xlink:href="#DejaVuSans-53"/>
     <use x="127.246094" xlink:href="#DejaVuSans-32"/>
     <use x="159.033203" xlink:href="#DejaVuSans-105"/>
     <use x="186.816406" xlink:href="#DejaVuSans-110"/>
     <use x="250.195312" xlink:href="#DejaVuSans-115"/>
     <use x="302.294922" xlink:href="#DejaVuSans-116"/>
     <use x="341.503906" xlink:href="#DejaVuSans-97"/>
     <use x="402.783203" xlink:href="#DejaVuSans-110"/>
     <use x="466.162109" xlink:href="#DejaVuSans-99"/>
     <use x="521.142578" xlink:href="#DejaVuSans-101"/>
     <use x="582.666016" xlink:href="#DejaVuSans-115"/>
    </g>
   </g>
   <g id="text_20">
    <!-- v2.6.1.8 -->
    <g style="fill:#808080;" transform="translate(188.751637 294.151352)scale(0.1 -0.1)">
     <use xlink:href="#DejaVuSans-118"/>
     <use x="59.179688" xlink:href="#DejaVuSans-50"/>
     <use x="122.802734" xlink:href="#DejaVuSans-46"/>
     <use x="154.589844" xlink:href="#DejaVuSans-54"/>
     <use x="218.212891" xlink:href="#DejaVuSans-46"/>
     <use x="250" xlink:href="#DejaVuSans-49"/>
     <use x="313.623047" xlink:href="#DejaVuSans-46"/>
     <use x="345.410156" xlink:href="#DejaVuSans-56"/>
    </g>
   </g>
   <g id="text_21">
    <!-- 18 Linear Slope, m=9+int(9n/2) -->
    <g transform="translate(48.806325 21.648)scale(0.2 -0.2)">
     <defs>
      <path d="M 9.8125 72.90625 
L 19.671875 72.90625 
L 19.671875 8.296875 
L 55.171875 8.296875 
L 55.171875 0 
L 9.8125 0 
z
" id="DejaVuSans-76"/>
      <path d="M 53.515625 70.515625 
L 53.515625 60.890625 
Q 47.90625 63.578125 42.921875 64.890625 
Q 37.9375 66.21875 33.296875 66.21875 
Q 25.25 66.21875 20.875 63.09375 
Q 16.5 59.96875 16.5 54.203125 
Q 16.5 49.359375 19.40625 46.890625 
Q 22.3125 44.4375 30.421875 42.921875 
L 36.375 41.703125 
Q 47.40625 39.59375 52.65625 34.296875 
Q 57.90625 29 57.90625 20.125 
Q 57.90625 9.515625 50.796875 4.046875 
Q 43.703125 -1.421875 29.984375 -1.421875 
Q 24.8125 -1.421875 18.96875 -0.25 
Q 13.140625 0.921875 6.890625 3.21875 
L 6.890625 13.375 
Q 12.890625 10.015625 18.65625 8.296875 
Q 24.421875 6.59375 29.984375 6.59375 
Q 38.421875 6.59375 43.015625 9.90625 
Q 47.609375 13.234375 47.609375 19.390625 
Q 47.609375 24.75 44.3125 27.78125 
Q 41.015625 30.8125 33.5 32.328125 
L 27.484375 33.5 
Q 16.453125 35.6875 11.515625 40.375 
Q 6.59375 45.0625 6.59375 53.421875 
Q 6.59375 63.09375 13.40625 68.65625 
Q 20.21875 74.21875 32.171875 74.21875 
Q 37.3125 74.21875 42.625 73.28125 
Q 47.953125 72.359375 53.515625 70.515625 
z
" id="DejaVuSans-83"/>
      <path d="M 10.984375 1.515625 
L 10.984375 10.5 
Q 14.703125 8.734375 18.5 7.8125 
Q 22.3125 6.890625 25.984375 6.890625 
Q 35.75 6.890625 40.890625 13.453125 
Q 46.046875 20.015625 46.78125 33.40625 
Q 43.953125 29.203125 39.59375 26.953125 
Q 35.25 24.703125 29.984375 24.703125 
Q 19.046875 24.703125 12.671875 31.3125 
Q 6.296875 37.9375 6.296875 49.421875 
Q 6.296875 60.640625 12.9375 67.421875 
Q 19.578125 74.21875 30.609375 74.21875 
Q 43.265625 74.21875 49.921875 64.515625 
Q 56.59375 54.828125 56.59375 36.375 
Q 56.59375 19.140625 48.40625 8.859375 
Q 40.234375 -1.421875 26.421875 -1.421875 
Q 22.703125 -1.421875 18.890625 -0.6875 
Q 15.09375 0.046875 10.984375 1.515625 
z
M 30.609375 32.421875 
Q 37.25 32.421875 41.125 36.953125 
Q 45.015625 41.5 45.015625 49.421875 
Q 45.015625 57.28125 41.125 61.84375 
Q 37.25 66.40625 30.609375 66.40625 
Q 23.96875 66.40625 20.09375 61.84375 
Q 16.21875 57.28125 16.21875 49.421875 
Q 16.21875 41.5 20.09375 36.953125 
Q 23.96875 32.421875 30.609375 32.421875 
z
" id="DejaVuSans-57"/>
     </defs>
     <use xlink:href="#DejaVuSans-49"/>
     <use x="63.623047" xlink:href="#DejaVuSans-56"/>
     <use x="127.246094" xlink:href="#DejaVuSans-32"/>
     <use x="159.033203" xlink:href="#DejaVuSans-76"/>
     <use x="214.746094" xlink:href="#DejaVuSans-105"/>
     <use x="242.529297" xlink:href="#DejaVuSans-110"/>
     <use x="305.908203" xlink:href="#DejaVuSans-101"/>
     <use x="367.431641" xlink:href="#DejaVuSans-97"/>
     <use x="428.710938" xlink:href="#DejaVuSans-114"/>
     <use x="469.824219" xlink:href="#DejaVuSans-32"/>
     <use x="501.611328" xlink:href="#DejaVuSans-83"/>
     <use x="565.087891" xlink:href="#DejaVuSans-108"/>
     <use x="592.871094" xlink:href="#DejaVuSans-111"/>
     <use x="654.052734" xlink:href="#DejaVuSans-112"/>
     <use x="717.529297" xlink:href="#DejaVuSans-101"/>
     <use x="779.052734" xlink:href="#DejaVuSans-44"/>
     <use x="810.839844" xlink:href="#DejaVuSans-32"/>
     <use x="842.626953" xlink:href="#DejaVuSans-109"/>
     <use x="940.039062" xlink:href="#DejaVuSans-61"/>
     <use x="1023.828125" xlink:href="#DejaVuSans-57"/>
     <use x="1087.451172" xlink:href="#DejaVuSans-43"/>
     <use x="1171.240234" xlink:href="#DejaVuSans-105"/>
     <use x="1199.023438" xlink:href="#DejaVuSans-110"/>
     <use x="1262.402344" xlink:href="#DejaVuSans-116"/>
     <use x="1301.611328" xlink:href="#DejaVuSans-40"/>
     <use x="1340.625" xlink:href="#DejaVuSans-57"/>
     <use x="1404.248047" xlink:href="#DejaVuSans-110"/>
     <use x="1467.626953" xlink:href="#DejaVuSans-47"/>
     <use x="1501.318359" xlink:href="#DejaVuSans-50"/>
     <use x="1564.941406" xlink:href="#DejaVuSans-41"/>
    </g>
   </g>
  </g>
 </g>
 <defs>
  <clipPath id="p781721d253">
   <rect height="271.296" width="303.2064" x="57.6" y="27.648"/>
  </clipPath>
 </defs>
</svg>
