<?xml version="1.0" encoding="utf-8" standalone="no"?>
<!DOCTYPE svg PUBLIC "-//W3C//DTD SVG 1.1//EN"
  "http://www.w3.org/Graphics/SVG/1.1/DTD/svg11.dtd">
<!-- Created with matplotlib (https://matplotlib.org/) -->
<svg height="345.6pt" version="1.1" viewBox="0 0 460.8 345.6" width="460.8pt" xmlns="http://www.w3.org/2000/svg" xmlns:xlink="http://www.w3.org/1999/xlink">
 <metadata>
  <rdf:RDF xmlns:cc="http://creativecommons.org/ns#" xmlns:dc="http://purl.org/dc/elements/1.1/" xmlns:rdf="http://www.w3.org/1999/02/22-rdf-syntax-ns#">
   <cc:Work>
    <dc:type rdf:resource="http://purl.org/dc/dcmitype/StillImage"/>
    <dc:date>2022-04-06T11:31:30.590522</dc:date>
    <dc:format>image/svg+xml</dc:format>
    <dc:creator>
     <cc:Agent>
      <dc:title>Matplotlib v3.3.3, https://matplotlib.org/</dc:title>
     </cc:Agent>
    </dc:creator>
   </cc:Work>
  </rdf:RDF>
 </metadata>
 <defs>
  <style type="text/css">*{stroke-linecap:butt;stroke-linejoin:round;}</style>
 </defs>
 <g id="figure_1">
  <g id="patch_1">
   <path d="M 0 345.6 
L 460.8 345.6 
L 460.8 0 
L 0 0 
z
" style="fill:#ffffff;"/>
  </g>
  <g id="axes_1">
   <g id="patch_2">
    <path d="M 57.6 298.944 
L 360.8064 298.944 
L 360.8064 27.648 
L 57.6 27.648 
z
" style="fill:#ffffff;"/>
   </g>
   <g id="matplotlib.axis_1">
    <g id="xtick_1">
     <g id="line2d_1">
      <path clip-path="url(#p38b9011e38)" d="M 57.6 298.944 
L 57.6 27.648 
" style="fill:none;stroke:#b0b0b0;stroke-linecap:square;stroke-width:0.8;"/>
     </g>
     <g id="line2d_2">
      <defs>
       <path d="M 0 0 
L 0 3.5 
" id="me2b1015f03" style="stroke:#000000;stroke-width:0.8;"/>
      </defs>
      <g>
       <use style="stroke:#000000;stroke-width:0.8;" x="57.6" xlink:href="#me2b1015f03" y="298.944"/>
      </g>
     </g>
     <g id="text_1">
      <!-- 0 -->
      <g transform="translate(52.191875 318.861344)scale(0.17 -0.17)">
       <defs>
        <path d="M 31.78125 66.40625 
Q 24.171875 66.40625 20.328125 58.90625 
Q 16.5 51.421875 16.5 36.375 
Q 16.5 21.390625 20.328125 13.890625 
Q 24.171875 6.390625 31.78125 6.390625 
Q 39.453125 6.390625 43.28125 13.890625 
Q 47.125 21.390625 47.125 36.375 
Q 47.125 51.421875 43.28125 58.90625 
Q 39.453125 66.40625 31.78125 66.40625 
z
M 31.78125 74.21875 
Q 44.046875 74.21875 50.515625 64.515625 
Q 56.984375 54.828125 56.984375 36.375 
Q 56.984375 17.96875 50.515625 8.265625 
Q 44.046875 -1.421875 31.78125 -1.421875 
Q 19.53125 -1.421875 13.0625 8.265625 
Q 6.59375 17.96875 6.59375 36.375 
Q 6.59375 54.828125 13.0625 64.515625 
Q 19.53125 74.21875 31.78125 74.21875 
z
" id="DejaVuSans-48"/>
       </defs>
       <use xlink:href="#DejaVuSans-48"/>
      </g>
     </g>
    </g>
    <g id="xtick_2">
     <g id="line2d_3">
      <path clip-path="url(#p38b9011e38)" d="M 144.2304 298.944 
L 144.2304 27.648 
" style="fill:none;stroke:#b0b0b0;stroke-linecap:square;stroke-width:0.8;"/>
     </g>
     <g id="line2d_4">
      <g>
       <use style="stroke:#000000;stroke-width:0.8;" x="144.2304" xlink:href="#me2b1015f03" y="298.944"/>
      </g>
     </g>
     <g id="text_2">
      <!-- 2 -->
      <g transform="translate(138.822275 318.861344)scale(0.17 -0.17)">
       <defs>
        <path d="M 19.1875 8.296875 
L 53.609375 8.296875 
L 53.609375 0 
L 7.328125 0 
L 7.328125 8.296875 
Q 12.9375 14.109375 22.625 23.890625 
Q 32.328125 33.6875 34.8125 36.53125 
Q 39.546875 41.84375 41.421875 45.53125 
Q 43.3125 49.21875 43.3125 52.78125 
Q 43.3125 58.59375 39.234375 62.25 
Q 35.15625 65.921875 28.609375 65.921875 
Q 23.96875 65.921875 18.8125 64.3125 
Q 13.671875 62.703125 7.8125 59.421875 
L 7.8125 69.390625 
Q 13.765625 71.78125 18.9375 73 
Q 24.125 74.21875 28.421875 74.21875 
Q 39.75 74.21875 46.484375 68.546875 
Q 53.21875 62.890625 53.21875 53.421875 
Q 53.21875 48.921875 51.53125 44.890625 
Q 49.859375 40.875 45.40625 35.40625 
Q 44.1875 33.984375 37.640625 27.21875 
Q 31.109375 20.453125 19.1875 8.296875 
z
" id="DejaVuSans-50"/>
       </defs>
       <use xlink:href="#DejaVuSans-50"/>
      </g>
     </g>
    </g>
    <g id="xtick_3">
     <g id="line2d_5">
      <path clip-path="url(#p38b9011e38)" d="M 230.8608 298.944 
L 230.8608 27.648 
" style="fill:none;stroke:#b0b0b0;stroke-linecap:square;stroke-width:0.8;"/>
     </g>
     <g id="line2d_6">
      <g>
       <use style="stroke:#000000;stroke-width:0.8;" x="230.8608" xlink:href="#me2b1015f03" y="298.944"/>
      </g>
     </g>
     <g id="text_3">
      <!-- 4 -->
      <g transform="translate(225.452675 318.861344)scale(0.17 -0.17)">
       <defs>
        <path d="M 37.796875 64.3125 
L 12.890625 25.390625 
L 37.796875 25.390625 
z
M 35.203125 72.90625 
L 47.609375 72.90625 
L 47.609375 25.390625 
L 58.015625 25.390625 
L 58.015625 17.1875 
L 47.609375 17.1875 
L 47.609375 0 
L 37.796875 0 
L 37.796875 17.1875 
L 4.890625 17.1875 
L 4.890625 26.703125 
z
" id="DejaVuSans-52"/>
       </defs>
       <use xlink:href="#DejaVuSans-52"/>
      </g>
     </g>
    </g>
    <g id="xtick_4">
     <g id="line2d_7">
      <path clip-path="url(#p38b9011e38)" d="M 317.4912 298.944 
L 317.4912 27.648 
" style="fill:none;stroke:#b0b0b0;stroke-linecap:square;stroke-width:0.8;"/>
     </g>
     <g id="line2d_8">
      <g>
       <use style="stroke:#000000;stroke-width:0.8;" x="317.4912" xlink:href="#me2b1015f03" y="298.944"/>
      </g>
     </g>
     <g id="text_4">
      <!-- 6 -->
      <g transform="translate(312.083075 318.861344)scale(0.17 -0.17)">
       <defs>
        <path d="M 33.015625 40.375 
Q 26.375 40.375 22.484375 35.828125 
Q 18.609375 31.296875 18.609375 23.390625 
Q 18.609375 15.53125 22.484375 10.953125 
Q 26.375 6.390625 33.015625 6.390625 
Q 39.65625 6.390625 43.53125 10.953125 
Q 47.40625 15.53125 47.40625 23.390625 
Q 47.40625 31.296875 43.53125 35.828125 
Q 39.65625 40.375 33.015625 40.375 
z
M 52.59375 71.296875 
L 52.59375 62.3125 
Q 48.875 64.0625 45.09375 64.984375 
Q 41.3125 65.921875 37.59375 65.921875 
Q 27.828125 65.921875 22.671875 59.328125 
Q 17.53125 52.734375 16.796875 39.40625 
Q 19.671875 43.65625 24.015625 45.921875 
Q 28.375 48.1875 33.59375 48.1875 
Q 44.578125 48.1875 50.953125 41.515625 
Q 57.328125 34.859375 57.328125 23.390625 
Q 57.328125 12.15625 50.6875 5.359375 
Q 44.046875 -1.421875 33.015625 -1.421875 
Q 20.359375 -1.421875 13.671875 8.265625 
Q 6.984375 17.96875 6.984375 36.375 
Q 6.984375 53.65625 15.1875 63.9375 
Q 23.390625 74.21875 37.203125 74.21875 
Q 40.921875 74.21875 44.703125 73.484375 
Q 48.484375 72.75 52.59375 71.296875 
z
" id="DejaVuSans-54"/>
       </defs>
       <use xlink:href="#DejaVuSans-54"/>
      </g>
     </g>
    </g>
    <g id="xtick_5">
     <g id="line2d_9">
      <path clip-path="url(#p38b9011e38)" d="M 100.9152 298.944 
L 100.9152 27.648 
" style="fill:none;stroke:#b0b0b0;stroke-linecap:square;stroke-width:0.8;"/>
     </g>
     <g id="line2d_10">
      <defs>
       <path d="M 0 0 
L 0 2 
" id="m4cfb850b32" style="stroke:#000000;stroke-width:0.6;"/>
      </defs>
      <g>
       <use style="stroke:#000000;stroke-width:0.6;" x="100.9152" xlink:href="#m4cfb850b32" y="298.944"/>
      </g>
     </g>
    </g>
    <g id="xtick_6">
     <g id="line2d_11">
      <path clip-path="url(#p38b9011e38)" d="M 187.5456 298.944 
L 187.5456 27.648 
" style="fill:none;stroke:#b0b0b0;stroke-linecap:square;stroke-width:0.8;"/>
     </g>
     <g id="line2d_12">
      <g>
       <use style="stroke:#000000;stroke-width:0.6;" x="187.5456" xlink:href="#m4cfb850b32" y="298.944"/>
      </g>
     </g>
    </g>
    <g id="xtick_7">
     <g id="line2d_13">
      <path clip-path="url(#p38b9011e38)" d="M 274.176 298.944 
L 274.176 27.648 
" style="fill:none;stroke:#b0b0b0;stroke-linecap:square;stroke-width:0.8;"/>
     </g>
     <g id="line2d_14">
      <g>
       <use style="stroke:#000000;stroke-width:0.6;" x="274.176" xlink:href="#m4cfb850b32" y="298.944"/>
      </g>
     </g>
    </g>
    <g id="xtick_8">
     <g id="line2d_15">
      <path clip-path="url(#p38b9011e38)" d="M 360.8064 298.944 
L 360.8064 27.648 
" style="fill:none;stroke:#b0b0b0;stroke-linecap:square;stroke-width:0.8;"/>
     </g>
     <g id="line2d_16">
      <g>
       <use style="stroke:#000000;stroke-width:0.6;" x="360.8064" xlink:href="#m4cfb850b32" y="298.944"/>
      </g>
     </g>
    </g>
    <g id="text_5">
     <!-- log10(evals / dimension) -->
     <g transform="translate(104.238825 339.314156)scale(0.17 -0.17)">
      <defs>
       <path d="M 9.421875 75.984375 
L 18.40625 75.984375 
L 18.40625 0 
L 9.421875 0 
z
" id="DejaVuSans-108"/>
       <path d="M 30.609375 48.390625 
Q 23.390625 48.390625 19.1875 42.75 
Q 14.984375 37.109375 14.984375 27.296875 
Q 14.984375 17.484375 19.15625 11.84375 
Q 23.34375 6.203125 30.609375 6.203125 
Q 37.796875 6.203125 41.984375 11.859375 
Q 46.1875 17.53125 46.1875 27.296875 
Q 46.1875 37.015625 41.984375 42.703125 
Q 37.796875 48.390625 30.609375 48.390625 
z
M 30.609375 56 
Q 42.328125 56 49.015625 48.375 
Q 55.71875 40.765625 55.71875 27.296875 
Q 55.71875 13.875 49.015625 6.21875 
Q 42.328125 -1.421875 30.609375 -1.421875 
Q 18.84375 -1.421875 12.171875 6.21875 
Q 5.515625 13.875 5.515625 27.296875 
Q 5.515625 40.765625 12.171875 48.375 
Q 18.84375 56 30.609375 56 
z
" id="DejaVuSans-111"/>
       <path d="M 45.40625 27.984375 
Q 45.40625 37.75 41.375 43.109375 
Q 37.359375 48.484375 30.078125 48.484375 
Q 22.859375 48.484375 18.828125 43.109375 
Q 14.796875 37.75 14.796875 27.984375 
Q 14.796875 18.265625 18.828125 12.890625 
Q 22.859375 7.515625 30.078125 7.515625 
Q 37.359375 7.515625 41.375 12.890625 
Q 45.40625 18.265625 45.40625 27.984375 
z
M 54.390625 6.78125 
Q 54.390625 -7.171875 48.1875 -13.984375 
Q 42 -20.796875 29.203125 -20.796875 
Q 24.46875 -20.796875 20.265625 -20.09375 
Q 16.0625 -19.390625 12.109375 -17.921875 
L 12.109375 -9.1875 
Q 16.0625 -11.328125 19.921875 -12.34375 
Q 23.78125 -13.375 27.78125 -13.375 
Q 36.625 -13.375 41.015625 -8.765625 
Q 45.40625 -4.15625 45.40625 5.171875 
L 45.40625 9.625 
Q 42.625 4.78125 38.28125 2.390625 
Q 33.9375 0 27.875 0 
Q 17.828125 0 11.671875 7.65625 
Q 5.515625 15.328125 5.515625 27.984375 
Q 5.515625 40.671875 11.671875 48.328125 
Q 17.828125 56 27.875 56 
Q 33.9375 56 38.28125 53.609375 
Q 42.625 51.21875 45.40625 46.390625 
L 45.40625 54.6875 
L 54.390625 54.6875 
z
" id="DejaVuSans-103"/>
       <path d="M 12.40625 8.296875 
L 28.515625 8.296875 
L 28.515625 63.921875 
L 10.984375 60.40625 
L 10.984375 69.390625 
L 28.421875 72.90625 
L 38.28125 72.90625 
L 38.28125 8.296875 
L 54.390625 8.296875 
L 54.390625 0 
L 12.40625 0 
z
" id="DejaVuSans-49"/>
       <path d="M 31 75.875 
Q 24.46875 64.65625 21.28125 53.65625 
Q 18.109375 42.671875 18.109375 31.390625 
Q 18.109375 20.125 21.3125 9.0625 
Q 24.515625 -2 31 -13.1875 
L 23.1875 -13.1875 
Q 15.875 -1.703125 12.234375 9.375 
Q 8.59375 20.453125 8.59375 31.390625 
Q 8.59375 42.28125 12.203125 53.3125 
Q 15.828125 64.359375 23.1875 75.875 
z
" id="DejaVuSans-40"/>
       <path d="M 56.203125 29.59375 
L 56.203125 25.203125 
L 14.890625 25.203125 
Q 15.484375 15.921875 20.484375 11.0625 
Q 25.484375 6.203125 34.421875 6.203125 
Q 39.59375 6.203125 44.453125 7.46875 
Q 49.3125 8.734375 54.109375 11.28125 
L 54.109375 2.78125 
Q 49.265625 0.734375 44.1875 -0.34375 
Q 39.109375 -1.421875 33.890625 -1.421875 
Q 20.796875 -1.421875 13.15625 6.1875 
Q 5.515625 13.8125 5.515625 26.8125 
Q 5.515625 40.234375 12.765625 48.109375 
Q 20.015625 56 32.328125 56 
Q 43.359375 56 49.78125 48.890625 
Q 56.203125 41.796875 56.203125 29.59375 
z
M 47.21875 32.234375 
Q 47.125 39.59375 43.09375 43.984375 
Q 39.0625 48.390625 32.421875 48.390625 
Q 24.90625 48.390625 20.390625 44.140625 
Q 15.875 39.890625 15.1875 32.171875 
z
" id="DejaVuSans-101"/>
       <path d="M 2.984375 54.6875 
L 12.5 54.6875 
L 29.59375 8.796875 
L 46.6875 54.6875 
L 56.203125 54.6875 
L 35.6875 0 
L 23.484375 0 
z
" id="DejaVuSans-118"/>
       <path d="M 34.28125 27.484375 
Q 23.390625 27.484375 19.1875 25 
Q 14.984375 22.515625 14.984375 16.5 
Q 14.984375 11.71875 18.140625 8.90625 
Q 21.296875 6.109375 26.703125 6.109375 
Q 34.1875 6.109375 38.703125 11.40625 
Q 43.21875 16.703125 43.21875 25.484375 
L 43.21875 27.484375 
z
M 52.203125 31.203125 
L 52.203125 0 
L 43.21875 0 
L 43.21875 8.296875 
Q 40.140625 3.328125 35.546875 0.953125 
Q 30.953125 -1.421875 24.3125 -1.421875 
Q 15.921875 -1.421875 10.953125 3.296875 
Q 6 8.015625 6 15.921875 
Q 6 25.140625 12.171875 29.828125 
Q 18.359375 34.515625 30.609375 34.515625 
L 43.21875 34.515625 
L 43.21875 35.40625 
Q 43.21875 41.609375 39.140625 45 
Q 35.0625 48.390625 27.6875 48.390625 
Q 23 48.390625 18.546875 47.265625 
Q 14.109375 46.140625 10.015625 43.890625 
L 10.015625 52.203125 
Q 14.9375 54.109375 19.578125 55.046875 
Q 24.21875 56 28.609375 56 
Q 40.484375 56 46.34375 49.84375 
Q 52.203125 43.703125 52.203125 31.203125 
z
" id="DejaVuSans-97"/>
       <path d="M 44.28125 53.078125 
L 44.28125 44.578125 
Q 40.484375 46.53125 36.375 47.5 
Q 32.28125 48.484375 27.875 48.484375 
Q 21.1875 48.484375 17.84375 46.4375 
Q 14.5 44.390625 14.5 40.28125 
Q 14.5 37.15625 16.890625 35.375 
Q 19.28125 33.59375 26.515625 31.984375 
L 29.59375 31.296875 
Q 39.15625 29.25 43.1875 25.515625 
Q 47.21875 21.78125 47.21875 15.09375 
Q 47.21875 7.46875 41.1875 3.015625 
Q 35.15625 -1.421875 24.609375 -1.421875 
Q 20.21875 -1.421875 15.453125 -0.5625 
Q 10.6875 0.296875 5.421875 2 
L 5.421875 11.28125 
Q 10.40625 8.6875 15.234375 7.390625 
Q 20.0625 6.109375 24.8125 6.109375 
Q 31.15625 6.109375 34.5625 8.28125 
Q 37.984375 10.453125 37.984375 14.40625 
Q 37.984375 18.0625 35.515625 20.015625 
Q 33.0625 21.96875 24.703125 23.78125 
L 21.578125 24.515625 
Q 13.234375 26.265625 9.515625 29.90625 
Q 5.8125 33.546875 5.8125 39.890625 
Q 5.8125 47.609375 11.28125 51.796875 
Q 16.75 56 26.8125 56 
Q 31.78125 56 36.171875 55.265625 
Q 40.578125 54.546875 44.28125 53.078125 
z
" id="DejaVuSans-115"/>
       <path id="DejaVuSans-32"/>
       <path d="M 25.390625 72.90625 
L 33.6875 72.90625 
L 8.296875 -9.28125 
L 0 -9.28125 
z
" id="DejaVuSans-47"/>
       <path d="M 45.40625 46.390625 
L 45.40625 75.984375 
L 54.390625 75.984375 
L 54.390625 0 
L 45.40625 0 
L 45.40625 8.203125 
Q 42.578125 3.328125 38.25 0.953125 
Q 33.9375 -1.421875 27.875 -1.421875 
Q 17.96875 -1.421875 11.734375 6.484375 
Q 5.515625 14.40625 5.515625 27.296875 
Q 5.515625 40.1875 11.734375 48.09375 
Q 17.96875 56 27.875 56 
Q 33.9375 56 38.25 53.625 
Q 42.578125 51.265625 45.40625 46.390625 
z
M 14.796875 27.296875 
Q 14.796875 17.390625 18.875 11.75 
Q 22.953125 6.109375 30.078125 6.109375 
Q 37.203125 6.109375 41.296875 11.75 
Q 45.40625 17.390625 45.40625 27.296875 
Q 45.40625 37.203125 41.296875 42.84375 
Q 37.203125 48.484375 30.078125 48.484375 
Q 22.953125 48.484375 18.875 42.84375 
Q 14.796875 37.203125 14.796875 27.296875 
z
" id="DejaVuSans-100"/>
       <path d="M 9.421875 54.6875 
L 18.40625 54.6875 
L 18.40625 0 
L 9.421875 0 
z
M 9.421875 75.984375 
L 18.40625 75.984375 
L 18.40625 64.59375 
L 9.421875 64.59375 
z
" id="DejaVuSans-105"/>
       <path d="M 52 44.1875 
Q 55.375 50.25 60.0625 53.125 
Q 64.75 56 71.09375 56 
Q 79.640625 56 84.28125 50.015625 
Q 88.921875 44.046875 88.921875 33.015625 
L 88.921875 0 
L 79.890625 0 
L 79.890625 32.71875 
Q 79.890625 40.578125 77.09375 44.375 
Q 74.3125 48.1875 68.609375 48.1875 
Q 61.625 48.1875 57.5625 43.546875 
Q 53.515625 38.921875 53.515625 30.90625 
L 53.515625 0 
L 44.484375 0 
L 44.484375 32.71875 
Q 44.484375 40.625 41.703125 44.40625 
Q 38.921875 48.1875 33.109375 48.1875 
Q 26.21875 48.1875 22.15625 43.53125 
Q 18.109375 38.875 18.109375 30.90625 
L 18.109375 0 
L 9.078125 0 
L 9.078125 54.6875 
L 18.109375 54.6875 
L 18.109375 46.1875 
Q 21.1875 51.21875 25.484375 53.609375 
Q 29.78125 56 35.6875 56 
Q 41.65625 56 45.828125 52.96875 
Q 50 49.953125 52 44.1875 
z
" id="DejaVuSans-109"/>
       <path d="M 54.890625 33.015625 
L 54.890625 0 
L 45.90625 0 
L 45.90625 32.71875 
Q 45.90625 40.484375 42.875 44.328125 
Q 39.84375 48.1875 33.796875 48.1875 
Q 26.515625 48.1875 22.3125 43.546875 
Q 18.109375 38.921875 18.109375 30.90625 
L 18.109375 0 
L 9.078125 0 
L 9.078125 54.6875 
L 18.109375 54.6875 
L 18.109375 46.1875 
Q 21.34375 51.125 25.703125 53.5625 
Q 30.078125 56 35.796875 56 
Q 45.21875 56 50.046875 50.171875 
Q 54.890625 44.34375 54.890625 33.015625 
z
" id="DejaVuSans-110"/>
       <path d="M 8.015625 75.875 
L 15.828125 75.875 
Q 23.140625 64.359375 26.78125 53.3125 
Q 30.421875 42.28125 30.421875 31.390625 
Q 30.421875 20.453125 26.78125 9.375 
Q 23.140625 -1.703125 15.828125 -13.1875 
L 8.015625 -13.1875 
Q 14.5 -2 17.703125 9.0625 
Q 20.90625 20.125 20.90625 31.390625 
Q 20.90625 42.671875 17.703125 53.65625 
Q 14.5 64.65625 8.015625 75.875 
z
" id="DejaVuSans-41"/>
      </defs>
      <use xlink:href="#DejaVuSans-108"/>
      <use x="27.783203" xlink:href="#DejaVuSans-111"/>
      <use x="88.964844" xlink:href="#DejaVuSans-103"/>
      <use x="152.441406" xlink:href="#DejaVuSans-49"/>
      <use x="216.064453" xlink:href="#DejaVuSans-48"/>
      <use x="279.6875" xlink:href="#DejaVuSans-40"/>
      <use x="318.701172" xlink:href="#DejaVuSans-101"/>
      <use x="380.224609" xlink:href="#DejaVuSans-118"/>
      <use x="439.404297" xlink:href="#DejaVuSans-97"/>
      <use x="500.683594" xlink:href="#DejaVuSans-108"/>
      <use x="528.466797" xlink:href="#DejaVuSans-115"/>
      <use x="580.566406" xlink:href="#DejaVuSans-32"/>
      <use x="612.353516" xlink:href="#DejaVuSans-47"/>
      <use x="646.044922" xlink:href="#DejaVuSans-32"/>
      <use x="677.832031" xlink:href="#DejaVuSans-100"/>
      <use x="741.308594" xlink:href="#DejaVuSans-105"/>
      <use x="769.091797" xlink:href="#DejaVuSans-109"/>
      <use x="866.503906" xlink:href="#DejaVuSans-101"/>
      <use x="928.027344" xlink:href="#DejaVuSans-110"/>
      <use x="991.40625" xlink:href="#DejaVuSans-115"/>
      <use x="1043.505859" xlink:href="#DejaVuSans-105"/>
      <use x="1071.289062" xlink:href="#DejaVuSans-111"/>
      <use x="1132.470703" xlink:href="#DejaVuSans-110"/>
      <use x="1195.849609" xlink:href="#DejaVuSans-41"/>
     </g>
    </g>
   </g>
   <g id="matplotlib.axis_2">
    <g id="ytick_1">
     <g id="line2d_17">
      <path clip-path="url(#p38b9011e38)" d="M 57.6 298.944 
L 360.8064 298.944 
" style="fill:none;stroke:#b0b0b0;stroke-linecap:square;stroke-width:0.8;"/>
     </g>
     <g id="line2d_18">
      <defs>
       <path d="M 0 0 
L -3.5 0 
" id="mfe34587790" style="stroke:#000000;stroke-width:0.8;"/>
      </defs>
      <g>
       <use style="stroke:#000000;stroke-width:0.8;" x="57.6" xlink:href="#mfe34587790" y="298.944"/>
      </g>
     </g>
     <g id="text_6">
      <!-- 0.0 -->
      <g transform="translate(25.155 305.02275)scale(0.16 -0.16)">
       <defs>
        <path d="M 10.6875 12.40625 
L 21 12.40625 
L 21 0 
L 10.6875 0 
z
" id="DejaVuSans-46"/>
       </defs>
       <use xlink:href="#DejaVuSans-48"/>
       <use x="63.623047" xlink:href="#DejaVuSans-46"/>
       <use x="95.410156" xlink:href="#DejaVuSans-48"/>
      </g>
     </g>
    </g>
    <g id="ytick_2">
     <g id="line2d_19">
      <path clip-path="url(#p38b9011e38)" d="M 57.6 244.6848 
L 360.8064 244.6848 
" style="fill:none;stroke:#b0b0b0;stroke-linecap:square;stroke-width:0.8;"/>
     </g>
     <g id="line2d_20">
      <g>
       <use style="stroke:#000000;stroke-width:0.8;" x="57.6" xlink:href="#mfe34587790" y="244.6848"/>
      </g>
     </g>
     <g id="text_7">
      <!-- 0.2 -->
      <g transform="translate(25.155 250.76355)scale(0.16 -0.16)">
       <use xlink:href="#DejaVuSans-48"/>
       <use x="63.623047" xlink:href="#DejaVuSans-46"/>
       <use x="95.410156" xlink:href="#DejaVuSans-50"/>
      </g>
     </g>
    </g>
    <g id="ytick_3">
     <g id="line2d_21">
      <path clip-path="url(#p38b9011e38)" d="M 57.6 190.4256 
L 360.8064 190.4256 
" style="fill:none;stroke:#b0b0b0;stroke-linecap:square;stroke-width:0.8;"/>
     </g>
     <g id="line2d_22">
      <g>
       <use style="stroke:#000000;stroke-width:0.8;" x="57.6" xlink:href="#mfe34587790" y="190.4256"/>
      </g>
     </g>
     <g id="text_8">
      <!-- 0.4 -->
      <g transform="translate(25.155 196.50435)scale(0.16 -0.16)">
       <use xlink:href="#DejaVuSans-48"/>
       <use x="63.623047" xlink:href="#DejaVuSans-46"/>
       <use x="95.410156" xlink:href="#DejaVuSans-52"/>
      </g>
     </g>
    </g>
    <g id="ytick_4">
     <g id="line2d_23">
      <path clip-path="url(#p38b9011e38)" d="M 57.6 136.1664 
L 360.8064 136.1664 
" style="fill:none;stroke:#b0b0b0;stroke-linecap:square;stroke-width:0.8;"/>
     </g>
     <g id="line2d_24">
      <g>
       <use style="stroke:#000000;stroke-width:0.8;" x="57.6" xlink:href="#mfe34587790" y="136.1664"/>
      </g>
     </g>
     <g id="text_9">
      <!-- 0.6 -->
      <g transform="translate(25.155 142.24515)scale(0.16 -0.16)">
       <use xlink:href="#DejaVuSans-48"/>
       <use x="63.623047" xlink:href="#DejaVuSans-46"/>
       <use x="95.410156" xlink:href="#DejaVuSans-54"/>
      </g>
     </g>
    </g>
    <g id="ytick_5">
     <g id="line2d_25">
      <path clip-path="url(#p38b9011e38)" d="M 57.6 81.9072 
L 360.8064 81.9072 
" style="fill:none;stroke:#b0b0b0;stroke-linecap:square;stroke-width:0.8;"/>
     </g>
     <g id="line2d_26">
      <g>
       <use style="stroke:#000000;stroke-width:0.8;" x="57.6" xlink:href="#mfe34587790" y="81.9072"/>
      </g>
     </g>
     <g id="text_10">
      <!-- 0.8 -->
      <g transform="translate(25.155 87.98595)scale(0.16 -0.16)">
       <defs>
        <path d="M 31.78125 34.625 
Q 24.75 34.625 20.71875 30.859375 
Q 16.703125 27.09375 16.703125 20.515625 
Q 16.703125 13.921875 20.71875 10.15625 
Q 24.75 6.390625 31.78125 6.390625 
Q 38.8125 6.390625 42.859375 10.171875 
Q 46.921875 13.96875 46.921875 20.515625 
Q 46.921875 27.09375 42.890625 30.859375 
Q 38.875 34.625 31.78125 34.625 
z
M 21.921875 38.8125 
Q 15.578125 40.375 12.03125 44.71875 
Q 8.5 49.078125 8.5 55.328125 
Q 8.5 64.0625 14.71875 69.140625 
Q 20.953125 74.21875 31.78125 74.21875 
Q 42.671875 74.21875 48.875 69.140625 
Q 55.078125 64.0625 55.078125 55.328125 
Q 55.078125 49.078125 51.53125 44.71875 
Q 48 40.375 41.703125 38.8125 
Q 48.828125 37.15625 52.796875 32.3125 
Q 56.78125 27.484375 56.78125 20.515625 
Q 56.78125 9.90625 50.3125 4.234375 
Q 43.84375 -1.421875 31.78125 -1.421875 
Q 19.734375 -1.421875 13.25 4.234375 
Q 6.78125 9.90625 6.78125 20.515625 
Q 6.78125 27.484375 10.78125 32.3125 
Q 14.796875 37.15625 21.921875 38.8125 
z
M 18.3125 54.390625 
Q 18.3125 48.734375 21.84375 45.5625 
Q 25.390625 42.390625 31.78125 42.390625 
Q 38.140625 42.390625 41.71875 45.5625 
Q 45.3125 48.734375 45.3125 54.390625 
Q 45.3125 60.0625 41.71875 63.234375 
Q 38.140625 66.40625 31.78125 66.40625 
Q 25.390625 66.40625 21.84375 63.234375 
Q 18.3125 60.0625 18.3125 54.390625 
z
" id="DejaVuSans-56"/>
       </defs>
       <use xlink:href="#DejaVuSans-48"/>
       <use x="63.623047" xlink:href="#DejaVuSans-46"/>
       <use x="95.410156" xlink:href="#DejaVuSans-56"/>
      </g>
     </g>
    </g>
    <g id="ytick_6">
     <g id="line2d_27">
      <path clip-path="url(#p38b9011e38)" d="M 57.6 27.648 
L 360.8064 27.648 
" style="fill:none;stroke:#b0b0b0;stroke-linecap:square;stroke-width:0.8;"/>
     </g>
     <g id="line2d_28">
      <g>
       <use style="stroke:#000000;stroke-width:0.8;" x="57.6" xlink:href="#mfe34587790" y="27.648"/>
      </g>
     </g>
     <g id="text_11">
      <!-- 1.0 -->
      <g transform="translate(25.155 33.72675)scale(0.16 -0.16)">
       <use xlink:href="#DejaVuSans-49"/>
       <use x="63.623047" xlink:href="#DejaVuSans-46"/>
       <use x="95.410156" xlink:href="#DejaVuSans-48"/>
      </g>
     </g>
    </g>
    <g id="text_12">
     <!-- Fraction of function,target pairs -->
     <g transform="translate(17.619531 297.681)rotate(-90)scale(0.17 -0.17)">
      <defs>
       <path d="M 9.8125 72.90625 
L 51.703125 72.90625 
L 51.703125 64.59375 
L 19.671875 64.59375 
L 19.671875 43.109375 
L 48.578125 43.109375 
L 48.578125 34.8125 
L 19.671875 34.8125 
L 19.671875 0 
L 9.8125 0 
z
" id="DejaVuSans-70"/>
       <path d="M 41.109375 46.296875 
Q 39.59375 47.171875 37.8125 47.578125 
Q 36.03125 48 33.890625 48 
Q 26.265625 48 22.1875 43.046875 
Q 18.109375 38.09375 18.109375 28.8125 
L 18.109375 0 
L 9.078125 0 
L 9.078125 54.6875 
L 18.109375 54.6875 
L 18.109375 46.1875 
Q 20.953125 51.171875 25.484375 53.578125 
Q 30.03125 56 36.53125 56 
Q 37.453125 56 38.578125 55.875 
Q 39.703125 55.765625 41.0625 55.515625 
z
" id="DejaVuSans-114"/>
       <path d="M 48.78125 52.59375 
L 48.78125 44.1875 
Q 44.96875 46.296875 41.140625 47.34375 
Q 37.3125 48.390625 33.40625 48.390625 
Q 24.65625 48.390625 19.8125 42.84375 
Q 14.984375 37.3125 14.984375 27.296875 
Q 14.984375 17.28125 19.8125 11.734375 
Q 24.65625 6.203125 33.40625 6.203125 
Q 37.3125 6.203125 41.140625 7.25 
Q 44.96875 8.296875 48.78125 10.40625 
L 48.78125 2.09375 
Q 45.015625 0.34375 40.984375 -0.53125 
Q 36.96875 -1.421875 32.421875 -1.421875 
Q 20.0625 -1.421875 12.78125 6.34375 
Q 5.515625 14.109375 5.515625 27.296875 
Q 5.515625 40.671875 12.859375 48.328125 
Q 20.21875 56 33.015625 56 
Q 37.15625 56 41.109375 55.140625 
Q 45.0625 54.296875 48.78125 52.59375 
z
" id="DejaVuSans-99"/>
       <path d="M 18.3125 70.21875 
L 18.3125 54.6875 
L 36.8125 54.6875 
L 36.8125 47.703125 
L 18.3125 47.703125 
L 18.3125 18.015625 
Q 18.3125 11.328125 20.140625 9.421875 
Q 21.96875 7.515625 27.59375 7.515625 
L 36.8125 7.515625 
L 36.8125 0 
L 27.59375 0 
Q 17.1875 0 13.234375 3.875 
Q 9.28125 7.765625 9.28125 18.015625 
L 9.28125 47.703125 
L 2.6875 47.703125 
L 2.6875 54.6875 
L 9.28125 54.6875 
L 9.28125 70.21875 
z
" id="DejaVuSans-116"/>
       <path d="M 37.109375 75.984375 
L 37.109375 68.5 
L 28.515625 68.5 
Q 23.6875 68.5 21.796875 66.546875 
Q 19.921875 64.59375 19.921875 59.515625 
L 19.921875 54.6875 
L 34.71875 54.6875 
L 34.71875 47.703125 
L 19.921875 47.703125 
L 19.921875 0 
L 10.890625 0 
L 10.890625 47.703125 
L 2.296875 47.703125 
L 2.296875 54.6875 
L 10.890625 54.6875 
L 10.890625 58.5 
Q 10.890625 67.625 15.140625 71.796875 
Q 19.390625 75.984375 28.609375 75.984375 
z
" id="DejaVuSans-102"/>
       <path d="M 8.5 21.578125 
L 8.5 54.6875 
L 17.484375 54.6875 
L 17.484375 21.921875 
Q 17.484375 14.15625 20.5 10.265625 
Q 23.53125 6.390625 29.59375 6.390625 
Q 36.859375 6.390625 41.078125 11.03125 
Q 45.3125 15.671875 45.3125 23.6875 
L 45.3125 54.6875 
L 54.296875 54.6875 
L 54.296875 0 
L 45.3125 0 
L 45.3125 8.40625 
Q 42.046875 3.421875 37.71875 1 
Q 33.40625 -1.421875 27.6875 -1.421875 
Q 18.265625 -1.421875 13.375 4.4375 
Q 8.5 10.296875 8.5 21.578125 
z
M 31.109375 56 
z
" id="DejaVuSans-117"/>
       <path d="M 11.71875 12.40625 
L 22.015625 12.40625 
L 22.015625 4 
L 14.015625 -11.625 
L 7.71875 -11.625 
L 11.71875 4 
z
" id="DejaVuSans-44"/>
       <path d="M 18.109375 8.203125 
L 18.109375 -20.796875 
L 9.078125 -20.796875 
L 9.078125 54.6875 
L 18.109375 54.6875 
L 18.109375 46.390625 
Q 20.953125 51.265625 25.265625 53.625 
Q 29.59375 56 35.59375 56 
Q 45.5625 56 51.78125 48.09375 
Q 58.015625 40.1875 58.015625 27.296875 
Q 58.015625 14.40625 51.78125 6.484375 
Q 45.5625 -1.421875 35.59375 -1.421875 
Q 29.59375 -1.421875 25.265625 0.953125 
Q 20.953125 3.328125 18.109375 8.203125 
z
M 48.6875 27.296875 
Q 48.6875 37.203125 44.609375 42.84375 
Q 40.53125 48.484375 33.40625 48.484375 
Q 26.265625 48.484375 22.1875 42.84375 
Q 18.109375 37.203125 18.109375 27.296875 
Q 18.109375 17.390625 22.1875 11.75 
Q 26.265625 6.109375 33.40625 6.109375 
Q 40.53125 6.109375 44.609375 11.75 
Q 48.6875 17.390625 48.6875 27.296875 
z
" id="DejaVuSans-112"/>
      </defs>
      <use xlink:href="#DejaVuSans-70"/>
      <use x="50.269531" xlink:href="#DejaVuSans-114"/>
      <use x="91.382812" xlink:href="#DejaVuSans-97"/>
      <use x="152.662109" xlink:href="#DejaVuSans-99"/>
      <use x="207.642578" xlink:href="#DejaVuSans-116"/>
      <use x="246.851562" xlink:href="#DejaVuSans-105"/>
      <use x="274.634766" xlink:href="#DejaVuSans-111"/>
      <use x="335.816406" xlink:href="#DejaVuSans-110"/>
      <use x="399.195312" xlink:href="#DejaVuSans-32"/>
      <use x="430.982422" xlink:href="#DejaVuSans-111"/>
      <use x="492.164062" xlink:href="#DejaVuSans-102"/>
      <use x="527.369141" xlink:href="#DejaVuSans-32"/>
      <use x="559.15625" xlink:href="#DejaVuSans-102"/>
      <use x="594.361328" xlink:href="#DejaVuSans-117"/>
      <use x="657.740234" xlink:href="#DejaVuSans-110"/>
      <use x="721.119141" xlink:href="#DejaVuSans-99"/>
      <use x="776.099609" xlink:href="#DejaVuSans-116"/>
      <use x="815.308594" xlink:href="#DejaVuSans-105"/>
      <use x="843.091797" xlink:href="#DejaVuSans-111"/>
      <use x="904.273438" xlink:href="#DejaVuSans-110"/>
      <use x="967.652344" xlink:href="#DejaVuSans-44"/>
      <use x="999.439453" xlink:href="#DejaVuSans-116"/>
      <use x="1038.648438" xlink:href="#DejaVuSans-97"/>
      <use x="1099.927734" xlink:href="#DejaVuSans-114"/>
      <use x="1139.291016" xlink:href="#DejaVuSans-103"/>
      <use x="1202.767578" xlink:href="#DejaVuSans-101"/>
      <use x="1264.291016" xlink:href="#DejaVuSans-116"/>
      <use x="1303.5" xlink:href="#DejaVuSans-32"/>
      <use x="1335.287109" xlink:href="#DejaVuSans-112"/>
      <use x="1398.763672" xlink:href="#DejaVuSans-97"/>
      <use x="1460.042969" xlink:href="#DejaVuSans-105"/>
      <use x="1487.826172" xlink:href="#DejaVuSans-114"/>
      <use x="1528.939453" xlink:href="#DejaVuSans-115"/>
     </g>
    </g>
   </g>
   <g id="line2d_29">
    <defs>
     <path d="M 0 1.5 
C 0.397805 1.5 0.77937 1.341951 1.06066 1.06066 
C 1.341951 0.77937 1.5 0.397805 1.5 0 
C 1.5 -0.397805 1.341951 -0.77937 1.06066 -1.06066 
C 0.77937 -1.341951 0.397805 -1.5 0 -1.5 
C -0.397805 -1.5 -0.77937 -1.341951 -1.06066 -1.06066 
C -1.341951 -0.77937 -1.5 -0.397805 -1.5 0 
C -1.5 0.397805 -1.341951 0.77937 -1.06066 1.06066 
C -0.77937 1.341951 -0.397805 1.5 0 1.5 
z
" id="m2af1606af0" style="stroke:#000080;"/>
    </defs>
    <g>
     <use style="fill:#000080;stroke:#000080;" x="338.493255" xlink:href="#m2af1606af0" y="67.349854"/>
     <use style="fill:#000080;stroke:#000080;" x="338.493255" xlink:href="#m2af1606af0" y="67.349854"/>
    </g>
   </g>
   <g id="line2d_30">
    <path d="M 177.313026 298.944 
L 177.313026 298.502868 
L 177.884374 298.502868 
L 177.884374 298.061737 
L 178.654374 298.061737 
L 178.654374 297.620605 
L 179.254304 297.620605 
L 179.254304 296.738341 
L 181.236153 296.738341 
L 181.236153 296.29721 
L 181.920707 296.29721 
L 181.920707 295.856078 
L 182.46329 295.856078 
L 182.46329 295.414946 
L 183.449934 295.414946 
L 183.449934 294.973815 
L 183.60134 294.973815 
L 183.60134 294.532683 
L 184.27134 294.532683 
L 184.27134 294.091551 
L 184.409636 294.091551 
L 184.409636 293.65042 
L 184.571176 293.65042 
L 184.571176 293.209288 
L 184.720414 293.209288 
L 184.720414 292.768156 
L 184.987388 292.768156 
L 184.987388 292.327024 
L 185.239996 292.327024 
L 185.239996 291.444761 
L 185.413561 291.444761 
L 185.413561 291.003629 
L 185.855006 291.003629 
L 185.961721 290.121366 
L 185.99852 290.121366 
L 185.99852 289.680234 
L 186.15108 289.680234 
L 186.15108 289.239102 
L 186.662691 289.239102 
L 186.662691 288.356839 
L 186.792366 288.356839 
L 186.815847 287.474576 
L 187.141546 287.474576 
L 187.154995 286.592312 
L 187.440905 286.592312 
L 187.440905 286.15118 
L 187.593508 286.15118 
L 187.593508 285.710049 
L 187.728124 285.710049 
L 187.824751 284.386654 
L 187.876576 284.386654 
L 187.948524 283.50439 
L 188.131758 283.50439 
L 188.206371 282.180995 
L 188.414086 282.180995 
L 188.455355 280.8576 
L 188.743497 280.8576 
L 188.743497 279.534205 
L 188.905189 279.534205 
L 188.95238 278.651941 
L 189.020335 278.651941 
L 189.119216 277.328546 
L 189.157242 277.328546 
L 189.174501 276.446283 
L 189.567152 276.446283 
L 189.64639 275.56402 
L 189.696794 275.56402 
L 189.696794 275.122888 
L 189.855521 275.122888 
L 189.855521 274.681756 
L 189.981545 274.681756 
L 190.068934 273.358361 
L 190.200077 273.358361 
L 190.200077 272.917229 
L 190.391859 272.917229 
L 190.482194 271.593834 
L 190.677508 271.593834 
L 190.739519 270.711571 
L 190.837681 270.711571 
L 190.837681 270.270439 
L 191.029357 270.270439 
L 191.029357 269.829307 
L 191.333264 269.829307 
L 191.364 268.06478 
L 191.686757 268.06478 
L 191.686757 267.623649 
L 191.977335 267.623649 
L 191.996647 266.300254 
L 192.134228 266.300254 
L 192.134228 265.859122 
L 192.326334 265.859122 
L 192.327793 264.976859 
L 192.45429 264.976859 
L 192.515054 264.094595 
L 192.630255 264.094595 
L 192.720482 262.7712 
L 192.764721 262.7712 
L 192.864234 261.447805 
L 192.896817 261.447805 
L 193.004082 258.801015 
L 193.291788 258.801015 
L 193.35958 257.036488 
L 193.409231 257.036488 
L 193.480719 254.830829 
L 193.671846 254.830829 
L 193.747757 253.948566 
L 193.834138 253.948566 
L 193.886583 252.184039 
L 194.108188 252.184039 
L 194.166492 250.860644 
L 194.319341 250.860644 
L 194.319341 250.419512 
L 194.587757 250.419512 
L 194.693545 247.772722 
L 194.759041 247.772722 
L 194.825588 246.449327 
L 194.954173 246.449327 
L 194.960516 245.567063 
L 195.068018 245.567063 
L 195.143534 243.802537 
L 195.208736 243.802537 
L 195.253744 242.479141 
L 195.428997 242.479141 
L 195.521555 239.39122 
L 195.570734 239.39122 
L 195.657712 238.508956 
L 195.752803 238.508956 
L 195.796529 237.626693 
L 195.904197 237.626693 
L 195.904197 237.185561 
L 196.022044 237.185561 
L 196.115316 235.862166 
L 196.1332 235.862166 
L 196.242518 231.450849 
L 196.269748 231.450849 
L 196.371219 228.362927 
L 196.400614 228.362927 
L 196.419402 227.480663 
L 196.572533 227.480663 
L 196.665438 225.716137 
L 196.740587 225.716137 
L 196.841852 222.187083 
L 196.877395 222.187083 
L 196.96197 220.863688 
L 196.998425 220.863688 
L 196.998425 220.422556 
L 197.115289 220.422556 
L 197.115289 219.981424 
L 197.256145 219.981424 
L 197.308835 217.334634 
L 197.459364 217.334634 
L 197.566783 215.128976 
L 197.613105 215.128976 
L 197.713079 212.923317 
L 197.764506 212.923317 
L 197.843017 209.835395 
L 197.877806 209.835395 
L 197.935284 206.747473 
L 198.095939 206.747473 
L 198.188045 204.982946 
L 198.2286 204.982946 
L 198.285017 202.777288 
L 198.358214 202.777288 
L 198.401573 201.012761 
L 198.550977 201.012761 
L 198.650271 199.689366 
L 198.691923 199.689366 
L 198.718947 198.365971 
L 198.917319 198.365971 
L 199.00243 196.601444 
L 199.053516 196.601444 
L 199.146139 193.513522 
L 199.214044 193.513522 
L 199.29984 190.4256 
L 199.379231 190.4256 
L 199.476254 189.102205 
L 199.49221 189.102205 
L 199.569802 187.337678 
L 199.619373 187.337678 
L 199.690526 185.13202 
L 199.786943 185.13202 
L 199.890677 182.485229 
L 199.898483 182.485229 
L 199.995783 179.397307 
L 200.038436 179.397307 
L 200.104166 178.515044 
L 200.191769 178.515044 
L 200.29139 176.750517 
L 200.308578 176.750517 
L 200.404736 173.662595 
L 200.423719 173.662595 
L 200.507961 171.456937 
L 200.550412 171.456937 
L 200.550412 171.015805 
L 200.687487 171.015805 
L 200.687487 170.574673 
L 200.827284 170.574673 
L 200.937456 168.810146 
L 200.965129 168.810146 
L 201.067166 166.604488 
L 201.090071 166.604488 
L 201.126662 165.281093 
L 201.22692 165.281093 
L 201.303122 162.634302 
L 201.368194 162.634302 
L 201.395241 161.310907 
L 201.55671 161.310907 
L 201.666256 158.664117 
L 201.691105 158.664117 
L 201.773402 156.458459 
L 201.861494 156.458459 
L 201.96841 155.576195 
L 201.989372 155.576195 
L 202.068639 152.929405 
L 202.118987 152.929405 
L 202.186485 151.60601 
L 202.326761 151.60601 
L 202.431073 148.076956 
L 202.549219 148.076956 
L 202.616882 147.194693 
L 202.745614 147.194693 
L 202.827609 146.312429 
L 202.863474 146.312429 
L 202.925866 144.547902 
L 202.978944 144.547902 
L 202.978944 144.106771 
L 203.100293 144.106771 
L 203.182398 141.901112 
L 203.366647 141.901112 
L 203.473432 137.930927 
L 203.491977 137.930927 
L 203.580417 135.284137 
L 203.605266 135.284137 
L 203.698757 131.755083 
L 203.744931 131.755083 
L 203.766387 129.990556 
L 203.870143 129.990556 
L 203.888301 129.108293 
L 204.106399 129.108293 
L 204.126668 128.226029 
L 204.504632 128.226029 
L 204.615038 126.461502 
L 204.627181 126.461502 
L 204.627181 126.020371 
L 204.866913 126.020371 
L 204.897601 124.696976 
L 205.014652 124.696976 
L 205.014652 124.255844 
L 205.253196 124.255844 
L 205.267135 123.37358 
L 205.507588 123.37358 
L 205.615877 122.491317 
L 205.728555 122.491317 
L 205.837006 120.285659 
L 206.10543 120.285659 
L 206.10543 119.844527 
L 206.254925 119.844527 
L 206.254925 118.962263 
L 206.432904 118.962263 
L 206.432904 118.521132 
L 206.610579 118.521132 
L 206.610579 118.08 
L 206.935491 118.08 
L 206.935491 117.638868 
L 207.250266 117.638868 
L 207.303646 116.315473 
L 208.197461 116.315473 
L 208.197461 115.874341 
L 208.457343 115.874341 
L 208.545027 114.992078 
L 208.705745 114.992078 
L 208.714294 114.109815 
L 209.053125 114.109815 
L 209.157174 112.345288 
L 209.787549 112.345288 
L 209.895653 110.139629 
L 210.562012 110.139629 
L 210.562012 109.698498 
L 210.836706 109.698498 
L 210.836706 109.257366 
L 211.188986 109.257366 
L 211.188986 108.375102 
L 211.873835 108.375102 
L 211.873835 107.933971 
L 212.065888 107.933971 
L 212.065888 107.492839 
L 212.281271 107.492839 
L 212.307013 106.610576 
L 212.571962 106.610576 
L 212.579917 105.28718 
L 213.303556 105.28718 
L 213.309295 104.404917 
L 213.464079 104.404917 
L 213.559173 103.522654 
L 213.579925 103.522654 
L 213.59312 102.199259 
L 214.030325 102.199259 
L 214.104736 100.875863 
L 214.464347 100.875863 
L 214.488168 99.9936 
L 214.895614 99.9936 
L 214.895614 99.552468 
L 215.151876 99.552468 
L 215.151876 99.111337 
L 215.496448 99.111337 
L 215.496448 98.670205 
L 216.943842 98.670205 
L 216.943842 98.229073 
L 217.268218 98.229073 
L 217.296868 97.34681 
L 226.817799 97.34681 
L 226.817799 96.905678 
L 227.831984 96.905678 
L 227.831984 96.464546 
L 229.186149 96.464546 
L 229.186149 96.023415 
L 240.104129 96.023415 
L 240.104129 95.582283 
L 261.787314 95.582283 
L 261.891804 94.258888 
L 261.904125 94.258888 
L 262.014434 90.729834 
L 262.016517 90.729834 
L 262.017271 89.847571 
L 262.590294 89.847571 
L 262.590294 89.406439 
L 263.95713 89.406439 
L 263.95713 88.965307 
L 264.096386 88.965307 
L 264.096386 88.524176 
L 274.616844 88.524176 
L 274.62715 87.20078 
L 274.918333 87.20078 
L 274.976851 85.877385 
L 275.082555 85.877385 
L 275.082555 85.436254 
L 275.64208 85.436254 
L 275.64208 84.995122 
L 282.09545 84.995122 
L 282.1073 81.466068 
L 287.438031 81.466068 
L 287.44501 79.701541 
L 287.592934 79.701541 
L 287.592934 79.26041 
L 291.591887 79.26041 
L 291.591887 78.819278 
L 294.994446 78.819278 
L 294.998035 77.937015 
L 297.879236 77.937015 
L 297.882646 76.61362 
L 300.450564 76.61362 
L 300.450564 76.172488 
L 304.546502 76.172488 
L 304.547868 75.290224 
L 307.963204 75.290224 
L 307.964209 74.407961 
L 309.461773 74.407961 
L 309.466668 72.202302 
L 310.854485 72.202302 
L 310.854485 71.761171 
L 312.148408 71.761171 
L 312.148408 71.320039 
L 314.497584 71.320039 
L 314.497584 70.878907 
L 315.567969 70.878907 
L 315.567969 70.437776 
L 317.546458 70.437776 
L 317.546458 69.996644 
L 318.460965 69.996644 
L 318.460965 69.555512 
L 319.33428 69.555512 
L 319.33428 69.11438 
L 320.167503 69.11438 
L 320.167503 68.673249 
L 323.862096 68.673249 
L 323.862096 68.232117 
L 333.987616 68.232117 
L 333.987616 67.790985 
L 338.493255 67.790985 
L 338.493255 67.349854 
L 360.8064 67.349854 
L 360.8064 67.349854 
" style="fill:none;stroke:#000080;stroke-linecap:square;stroke-width:1.5;"/>
   </g>
   <g id="line2d_31">
    <defs>
     <path d="M 0 6 
C 1.591219 6 3.117479 5.367802 4.242641 4.242641 
C 5.367802 3.117479 6 1.591219 6 0 
C 6 -1.591219 5.367802 -3.117479 4.242641 -4.242641 
C 3.117479 -5.367802 1.591219 -6 0 -6 
C -1.591219 -6 -3.117479 -5.367802 -4.242641 -4.242641 
C -5.367802 -3.117479 -6 -1.591219 -6 0 
C -6 1.591219 -5.367802 3.117479 -4.242641 4.242641 
C -3.117479 5.367802 -1.591219 6 0 6 
z
" id="mf516b47b62" style="stroke:#000080;stroke-width:1.5;"/>
    </defs>
    <g>
     <use style="fill-opacity:0;stroke:#000080;stroke-width:1.5;" x="199.232245" xlink:href="#mf516b47b62" y="192.631259"/>
     <use style="fill-opacity:0;stroke:#000080;stroke-width:1.5;" x="217.296868" xlink:href="#mf516b47b62" y="97.34681"/>
     <use style="fill-opacity:0;stroke:#000080;stroke-width:1.5;" x="338.493255" xlink:href="#mf516b47b62" y="67.349854"/>
     <use style="fill-opacity:0;stroke:#000080;stroke-width:1.5;" x="360.8064" xlink:href="#mf516b47b62" y="67.349854"/>
    </g>
   </g>
   <g id="line2d_32">
    <path style="fill:none;stroke:#000080;stroke-linecap:square;stroke-width:1.5;"/>
    <g/>
   </g>
   <g id="line2d_33">
    <path clip-path="url(#p38b9011e38)" d="M 261.146436 95.582283 
" style="fill:none;stroke:#000080;stroke-linecap:square;stroke-width:1.5;"/>
    <defs>
     <path d="M -12 12 
L 12 -12 
M -12 -12 
L 12 12 
" id="m58cabe3e20" style="stroke:#000080;"/>
    </defs>
    <g clip-path="url(#p38b9011e38)">
     <use style="fill:#000080;stroke:#000080;" x="261.146436" xlink:href="#m58cabe3e20" y="95.582283"/>
    </g>
   </g>
   <g id="line2d_34">
    <defs>
     <path d="M 0 1.5 
C 0.397805 1.5 0.77937 1.341951 1.06066 1.06066 
C 1.341951 0.77937 1.5 0.397805 1.5 0 
C 1.5 -0.397805 1.341951 -0.77937 1.06066 -1.06066 
C 0.77937 -1.341951 0.397805 -1.5 0 -1.5 
C -0.397805 -1.5 -0.77937 -1.341951 -1.06066 -1.06066 
C -1.341951 -0.77937 -1.5 -0.397805 -1.5 0 
C -1.5 0.397805 -1.341951 0.77937 -1.06066 1.06066 
C -0.77937 1.341951 -0.397805 1.5 0 1.5 
z
" id="m9d007024aa" style="stroke:#ff00ff;"/>
    </defs>
    <g>
     <use style="fill:#ff00ff;stroke:#ff00ff;" x="275.496883" xlink:href="#m9d007024aa" y="27.648"/>
     <use style="fill:#ff00ff;stroke:#ff00ff;" x="275.496883" xlink:href="#m9d007024aa" y="27.648"/>
    </g>
   </g>
   <g id="line2d_35">
    <path d="M 178.657392 298.944 
L 178.657392 298.502868 
L 179.521324 298.502868 
L 179.521324 298.061737 
L 180.683538 298.061737 
L 180.683538 297.620605 
L 181.016519 297.620605 
L 181.09355 296.738341 
L 181.647293 296.738341 
L 181.647293 296.29721 
L 181.801099 296.29721 
L 181.902941 295.414946 
L 182.329725 295.414946 
L 182.379304 294.532683 
L 183.005034 294.532683 
L 183.005034 294.091551 
L 183.40779 294.091551 
L 183.515305 292.327024 
L 183.714677 292.327024 
L 183.714677 291.885893 
L 183.898262 291.885893 
L 183.95982 291.003629 
L 184.129764 291.003629 
L 184.177074 288.797971 
L 184.496111 288.797971 
L 184.496111 288.356839 
L 184.774985 288.356839 
L 184.774985 287.474576 
L 185.013232 287.474576 
L 185.118397 286.15118 
L 185.21872 286.15118 
L 185.25275 284.827785 
L 185.778704 284.827785 
L 185.778704 284.386654 
L 186.098332 284.386654 
L 186.098332 283.945522 
L 186.272243 283.945522 
L 186.344568 281.739863 
L 186.502314 281.739863 
L 186.502314 281.298732 
L 186.623219 281.298732 
L 186.662691 280.416468 
L 186.860771 280.416468 
L 186.860771 279.975337 
L 187.141546 279.975337 
L 187.235489 278.21081 
L 187.306116 278.21081 
L 187.38407 277.328546 
L 187.608513 277.328546 
L 187.668414 274.681756 
L 187.787646 274.681756 
L 187.787646 274.240624 
L 187.937473 274.240624 
L 187.937473 273.799493 
L 188.193653 273.799493 
L 188.275261 271.593834 
L 188.514409 271.593834 
L 188.514409 271.152702 
L 188.679845 271.152702 
L 188.729371 270.270439 
L 188.835059 270.270439 
L 188.891184 268.947044 
L 188.980289 268.947044 
L 188.980289 268.505912 
L 189.115755 268.505912 
L 189.217579 267.182517 
L 189.251971 267.182517 
L 189.315431 265.859122 
L 189.39744 265.859122 
L 189.497755 263.653463 
L 189.509621 263.653463 
L 189.616083 261.006673 
L 189.681687 261.006673 
L 189.681687 260.565541 
L 189.820549 260.565541 
L 189.930243 258.801015 
L 189.981545 258.801015 
L 190.047536 256.595356 
L 190.208243 256.595356 
L 190.208243 256.154224 
L 190.343286 256.154224 
L 190.395093 254.389698 
L 190.583306 254.389698 
L 190.656792 253.066302 
L 190.766485 253.066302 
L 190.772825 251.742907 
L 190.883421 251.742907 
L 190.987105 249.096117 
L 191.082429 249.096117 
L 191.110465 248.213854 
L 191.28398 248.213854 
L 191.390087 246.008195 
L 191.406947 246.008195 
L 191.491023 244.243668 
L 191.51998 244.243668 
L 191.618709 243.361405 
L 191.632338 243.361405 
L 191.728974 240.714615 
L 191.775605 240.714615 
L 191.840095 238.508956 
L 191.89541 238.508956 
L 191.965441 236.744429 
L 192.045582 236.744429 
L 192.11063 235.421034 
L 192.193095 235.421034 
L 192.288362 232.774244 
L 192.317578 232.774244 
L 192.418027 229.24519 
L 192.439793 229.24519 
L 192.549688 227.039532 
L 192.605834 227.039532 
L 192.666111 223.510478 
L 192.833015 223.510478 
L 192.852888 222.628215 
L 193.011118 222.628215 
L 193.119133 219.981424 
L 193.152674 219.981424 
L 193.262659 218.658029 
L 193.290402 218.658029 
L 193.384422 215.128976 
L 193.438134 215.128976 
L 193.528683 212.041054 
L 193.557403 212.041054 
L 193.594264 210.276527 
L 193.707128 210.276527 
L 193.789647 208.070868 
L 193.831445 208.070868 
L 193.932185 206.306341 
L 193.953607 206.306341 
L 194.048372 202.777288 
L 194.175751 202.777288 
L 194.269407 201.012761 
L 194.287819 201.012761 
L 194.370453 197.483707 
L 194.468355 197.483707 
L 194.503475 195.278049 
L 194.689685 195.278049 
L 194.798742 193.07239 
L 194.815365 193.07239 
L 194.910985 189.984468 
L 194.92751 189.984468 
L 194.979531 186.455415 
L 195.03899 186.455415 
L 195.148557 182.926361 
L 195.177417 182.926361 
L 195.276208 180.720702 
L 195.362072 180.720702 
L 195.367037 179.838439 
L 195.521555 179.838439 
L 195.589143 177.63278 
L 195.645486 177.63278 
L 195.740638 175.427122 
L 195.757666 175.427122 
L 195.783179 174.544859 
L 195.875224 174.544859 
L 195.96201 173.221463 
L 196.011252 173.221463 
L 196.111737 166.163356 
L 196.142731 166.163356 
L 196.229481 163.957698 
L 196.287486 163.957698 
L 196.35356 162.634302 
L 196.404138 162.634302 
L 196.435827 161.310907 
L 196.515401 161.310907 
L 196.607426 159.987512 
L 196.660804 159.987512 
L 196.723272 158.664117 
L 196.772867 158.664117 
L 196.869375 156.017327 
L 196.932298 156.017327 
L 197.040489 152.488273 
L 197.043895 152.488273 
L 197.083592 149.841483 
L 197.161606 149.841483 
L 197.259513 146.753561 
L 197.28419 146.753561 
L 197.391497 143.224507 
L 197.397069 143.224507 
L 197.436028 141.901112 
L 197.521454 141.901112 
L 197.627419 140.136585 
L 197.641723 140.136585 
L 197.713079 137.930927 
L 197.859333 137.930927 
L 197.95801 135.725268 
L 197.978548 135.725268 
L 198.080902 131.755083 
L 198.100233 131.755083 
L 198.170943 129.549424 
L 198.211535 129.549424 
L 198.305201 126.020371 
L 198.324303 126.020371 
L 198.386779 124.696976 
L 198.450102 124.696976 
L 198.549929 121.609054 
L 198.567737 121.609054 
L 198.676314 117.197737 
L 198.697123 117.197737 
L 198.787374 115.43321 
L 198.83595 115.43321 
L 198.931702 111.904156 
L 198.948126 111.904156 
L 199.039226 109.257366 
L 199.071874 109.257366 
L 199.181642 106.610576 
L 199.196837 106.610576 
L 199.28372 102.64039 
L 199.33807 102.64039 
L 199.4473 100.434732 
L 199.452295 100.434732 
L 199.550931 96.905678 
L 199.580719 96.905678 
L 199.691512 94.258888 
L 199.709258 94.258888 
L 199.818319 90.729834 
L 199.844752 90.729834 
L 199.938437 87.641912 
L 199.959841 87.641912 
L 200.033594 84.55399 
L 200.074229 84.55399 
L 200.179279 81.9072 
L 200.213846 81.9072 
L 200.321936 79.26041 
L 200.347672 79.26041 
L 200.42941 77.054751 
L 200.46068 77.054751 
L 200.559833 73.525698 
L 200.589947 73.525698 
L 200.700579 70.437776 
L 200.794758 70.437776 
L 200.794758 69.996644 
L 200.921757 69.996644 
L 200.995522 67.349854 
L 201.033215 67.349854 
L 201.141278 65.585327 
L 201.159532 65.585327 
L 201.270502 62.056273 
L 201.311269 62.056273 
L 201.389835 59.850615 
L 201.466279 59.850615 
L 201.55939 58.086088 
L 201.629812 58.086088 
L 201.697312 56.321561 
L 201.75043 56.321561 
L 201.820142 53.674771 
L 201.870281 53.674771 
L 201.930796 51.02798 
L 202.001589 51.02798 
L 202.001589 50.586849 
L 202.112918 50.586849 
L 202.223592 49.263454 
L 202.232211 49.263454 
L 202.304456 47.057795 
L 202.414012 47.057795 
L 202.504258 46.175532 
L 202.598299 46.175532 
L 202.661575 44.411005 
L 202.783309 44.411005 
L 202.783309 43.969873 
L 202.991362 43.969873 
L 202.991362 43.528741 
L 203.172565 43.528741 
L 203.278824 41.764215 
L 203.32116 41.764215 
L 203.32116 41.323083 
L 203.516943 41.323083 
L 203.613275 40.44082 
L 203.762415 40.44082 
L 203.85513 39.117424 
L 204.00002 39.117424 
L 204.010215 38.235161 
L 204.207527 38.235161 
L 204.251696 37.352898 
L 204.338955 37.352898 
L 204.398183 35.588371 
L 208.153482 35.588371 
L 208.153482 35.147239 
L 221.382443 35.147239 
L 221.382443 34.706107 
L 222.577833 34.706107 
L 222.577833 34.264976 
L 222.754644 34.264976 
L 222.754644 33.823844 
L 224.472659 33.823844 
L 224.472659 33.382712 
L 224.613993 33.382712 
L 224.613993 32.94158 
L 224.772222 32.94158 
L 224.772222 32.500449 
L 261.830006 32.500449 
L 261.880054 30.735922 
L 261.949112 30.735922 
L 262.045505 29.853659 
L 262.242499 29.853659 
L 262.242499 29.412527 
L 274.581474 29.412527 
L 274.583996 28.530263 
L 274.742171 28.530263 
L 274.742171 28.089132 
L 275.496883 28.089132 
L 275.496883 27.648 
L 360.8064 27.648 
L 360.8064 27.648 
" style="fill:none;stroke:#ff00ff;stroke-linecap:square;stroke-width:1.5;"/>
   </g>
   <g id="line2d_36">
    <defs>
     <path d="M -0 8.485281 
L 5.091169 0 
L 0 -8.485281 
L -5.091169 -0 
z
" id="m24f10ff340" style="stroke:#ff00ff;stroke-linejoin:miter;stroke-width:1.5;"/>
    </defs>
    <g>
     <use style="fill-opacity:0;stroke:#ff00ff;stroke-linejoin:miter;stroke-width:1.5;" x="201.886964" xlink:href="#m24f10ff340" y="52.351376"/>
     <use style="fill-opacity:0;stroke:#ff00ff;stroke-linejoin:miter;stroke-width:1.5;" x="275.496883" xlink:href="#m24f10ff340" y="28.089132"/>
     <use style="fill-opacity:0;stroke:#ff00ff;stroke-linejoin:miter;stroke-width:1.5;" x="275.496883" xlink:href="#m24f10ff340" y="27.648"/>
     <use style="fill-opacity:0;stroke:#ff00ff;stroke-linejoin:miter;stroke-width:1.5;" x="360.8064" xlink:href="#m24f10ff340" y="27.648"/>
    </g>
   </g>
   <g id="line2d_37">
    <path style="fill:none;stroke:#ff00ff;stroke-linecap:square;stroke-width:1.5;"/>
    <g/>
   </g>
   <g id="line2d_38">
    <path clip-path="url(#p38b9011e38)" d="M 261.147564 32.500449 
" style="fill:none;stroke:#ff00ff;stroke-linecap:square;stroke-width:1.5;"/>
    <defs>
     <path d="M -12 12 
L 12 -12 
M -12 -12 
L 12 12 
" id="m6bbd902b6b" style="stroke:#ff00ff;"/>
    </defs>
    <g clip-path="url(#p38b9011e38)">
     <use style="fill:#ff00ff;stroke:#ff00ff;" x="261.147564" xlink:href="#m6bbd902b6b" y="32.500449"/>
    </g>
   </g>
   <g id="line2d_39">
    <defs>
     <path d="M 0 1.5 
C 0.397805 1.5 0.77937 1.341951 1.06066 1.06066 
C 1.341951 0.77937 1.5 0.397805 1.5 0 
C 1.5 -0.397805 1.341951 -0.77937 1.06066 -1.06066 
C 0.77937 -1.341951 0.397805 -1.5 0 -1.5 
C -0.397805 -1.5 -0.77937 -1.341951 -1.06066 -1.06066 
C -1.341951 -0.77937 -1.5 -0.397805 -1.5 0 
C -1.5 0.397805 -1.341951 0.77937 -1.06066 1.06066 
C -0.77937 1.341951 -0.397805 1.5 0 1.5 
z
" id="m8f26841c23" style="stroke:#ff7500;"/>
    </defs>
    <g>
     <use style="fill:#ff7500;stroke:#ff7500;" x="338.300527" xlink:href="#m8f26841c23" y="67.349854"/>
     <use style="fill:#ff7500;stroke:#ff7500;" x="338.300527" xlink:href="#m8f26841c23" y="67.349854"/>
    </g>
   </g>
   <g id="line2d_40">
    <path d="M 175.064299 298.944 
L 175.064299 298.502868 
L 176.194749 298.502868 
L 176.194749 298.061737 
L 176.79054 298.061737 
L 176.79054 297.620605 
L 178.115596 297.620605 
L 178.115596 297.179473 
L 178.432773 297.179473 
L 178.432773 296.738341 
L 179.895114 296.738341 
L 179.895114 296.29721 
L 180.995213 296.29721 
L 180.995213 295.414946 
L 181.588 295.414946 
L 181.590582 294.532683 
L 182.299914 294.532683 
L 182.299914 294.091551 
L 182.541994 294.091551 
L 182.541994 293.65042 
L 182.676502 293.65042 
L 182.77615 292.327024 
L 183.162423 292.327024 
L 183.202751 291.444761 
L 183.344396 291.444761 
L 183.344396 291.003629 
L 184.336154 291.003629 
L 184.429627 290.121366 
L 184.998161 290.121366 
L 185.026141 289.239102 
L 185.129095 289.239102 
L 185.129095 288.797971 
L 185.250625 288.797971 
L 185.303681 287.915707 
L 185.501844 287.915707 
L 185.501844 287.474576 
L 185.743542 287.474576 
L 185.743542 287.033444 
L 186.16728 287.033444 
L 186.16728 286.592312 
L 186.555925 286.592312 
L 186.62717 285.710049 
L 186.733534 285.710049 
L 186.821713 284.827785 
L 186.911427 284.827785 
L 186.911427 284.386654 
L 187.078013 284.386654 
L 187.08187 283.50439 
L 187.552183 283.50439 
L 187.586001 282.622127 
L 187.787646 282.622127 
L 187.787646 282.180995 
L 188.087944 282.180995 
L 188.087944 281.739863 
L 188.2644 281.739863 
L 188.2644 281.298732 
L 188.464314 281.298732 
L 188.55011 278.651941 
L 188.81221 278.651941 
L 188.824517 277.769678 
L 189.058561 277.769678 
L 189.120946 276.005151 
L 189.222742 276.005151 
L 189.332546 273.799493 
L 189.443413 273.799493 
L 189.443413 273.358361 
L 189.607656 273.358361 
L 189.715242 271.593834 
L 189.752083 271.593834 
L 189.835545 270.711571 
L 190.006319 270.711571 
L 190.110014 268.947044 
L 190.229458 268.947044 
L 190.229458 268.505912 
L 190.699792 268.505912 
L 190.7538 266.741385 
L 190.92119 266.741385 
L 190.92119 266.300254 
L 191.177272 266.300254 
L 191.274725 264.976859 
L 191.311718 264.976859 
L 191.311718 264.535727 
L 191.426854 264.535727 
L 191.460493 262.7712 
L 191.635366 262.7712 
L 191.701846 259.683278 
L 191.756064 259.683278 
L 191.778609 258.359883 
L 191.889437 258.359883 
L 191.963953 257.036488 
L 192.005554 257.036488 
L 192.052985 255.713093 
L 192.13865 255.713093 
L 192.241522 254.389698 
L 192.338003 254.389698 
L 192.412219 253.507434 
L 192.48759 253.507434 
L 192.50494 252.625171 
L 192.627383 252.625171 
L 192.680434 251.742907 
L 192.848631 251.742907 
L 192.932169 249.096117 
L 192.981551 249.096117 
L 193.074319 247.772722 
L 193.137309 247.772722 
L 193.162446 246.890459 
L 193.265435 246.890459 
L 193.320872 246.008195 
L 193.416117 246.008195 
L 193.499919 244.6848 
L 193.549202 244.6848 
L 193.611986 243.802537 
L 193.73287 243.802537 
L 193.73287 243.361405 
L 193.891954 243.361405 
L 193.95093 241.596878 
L 194.013725 241.596878 
L 194.102879 240.273483 
L 194.134713 240.273483 
L 194.134713 239.832351 
L 194.269407 239.832351 
L 194.37307 237.626693 
L 194.422731 237.626693 
L 194.422731 237.185561 
L 194.534639 237.185561 
L 194.625238 236.303298 
L 194.645885 236.303298 
L 194.75263 234.538771 
L 194.802579 234.538771 
L 194.907169 232.774244 
L 194.924968 232.774244 
L 194.982065 231.450849 
L 195.263732 231.450849 
L 195.370761 229.686322 
L 195.402999 229.686322 
L 195.48212 227.480663 
L 195.5781 227.480663 
L 195.617336 226.157268 
L 195.708974 226.157268 
L 195.80502 224.392741 
L 195.882471 224.392741 
L 195.99085 221.30482 
L 196.051989 221.30482 
L 196.126048 219.981424 
L 196.183185 219.981424 
L 196.237778 218.658029 
L 196.300483 218.658029 
L 196.404138 216.452371 
L 196.434654 216.452371 
L 196.509561 215.570107 
L 196.553897 215.570107 
L 196.587661 214.687844 
L 196.707096 214.687844 
L 196.817736 211.15879 
L 196.881976 211.15879 
L 196.96425 208.953132 
L 197.055246 208.953132 
L 197.093786 207.629737 
L 197.184158 207.629737 
L 197.26849 206.747473 
L 197.299877 206.747473 
L 197.384808 204.982946 
L 197.412662 204.982946 
L 197.474906 202.336156 
L 197.529201 202.336156 
L 197.58003 201.012761 
L 197.640623 201.012761 
L 197.739357 197.924839 
L 197.800531 197.924839 
L 197.858246 196.601444 
L 197.935284 196.601444 
L 198.045411 194.395785 
L 198.076604 194.395785 
L 198.180565 192.190127 
L 198.261619 192.190127 
L 198.371973 189.984468 
L 198.376205 189.984468 
L 198.450102 187.77881 
L 198.537348 187.77881 
L 198.648186 185.13202 
L 198.653398 185.13202 
L 198.750081 181.602966 
L 198.782199 181.602966 
L 198.839047 179.397307 
L 198.893666 179.397307 
L 198.937863 177.63278 
L 199.054537 177.63278 
L 199.121755 175.427122 
L 199.174547 175.427122 
L 199.196837 174.544859 
L 199.29984 174.544859 
L 199.381236 171.898068 
L 199.441303 171.898068 
L 199.530052 170.133541 
L 199.585679 170.133541 
L 199.656959 167.486751 
L 199.708272 167.486751 
L 199.802637 165.281093 
L 199.833009 165.281093 
L 199.940384 162.634302 
L 199.96859 162.634302 
L 200.051988 159.105249 
L 200.136944 159.105249 
L 200.190808 157.340722 
L 200.249307 157.340722 
L 200.348624 155.135063 
L 200.402836 155.135063 
L 200.500404 152.047141 
L 200.589007 152.047141 
L 200.692163 149.841483 
L 200.717398 149.841483 
L 200.824499 148.518088 
L 200.845846 148.518088 
L 200.93561 145.430166 
L 201.012999 145.430166 
L 201.089156 144.106771 
L 201.15862 144.106771 
L 201.267781 141.45998 
L 201.283194 141.45998 
L 201.342012 140.136585 
L 201.50931 140.136585 
L 201.612008 138.372059 
L 201.656485 138.372059 
L 201.761036 136.607532 
L 201.772519 136.607532 
L 201.863252 133.960741 
L 201.909769 133.960741 
L 201.984134 131.755083 
L 202.0669 131.755083 
L 202.144111 129.990556 
L 202.195985 129.990556 
L 202.293293 126.461502 
L 202.351609 126.461502 
L 202.364449 125.579239 
L 202.530569 125.579239 
L 202.64135 123.37358 
L 202.675047 123.37358 
L 202.714563 122.491317 
L 202.869306 122.491317 
L 202.953253 120.72679 
L 203.009561 120.72679 
L 203.069823 118.962263 
L 203.170105 118.962263 
L 203.278009 116.756605 
L 203.312212 116.756605 
L 203.407167 115.43321 
L 203.431438 115.43321 
L 203.454869 113.668683 
L 203.548305 113.668683 
L 203.548305 112.78642 
L 203.709912 112.78642 
L 203.785439 111.021893 
L 203.826651 111.021893 
L 203.893824 109.698498 
L 204.204423 109.698498 
L 204.292673 108.375102 
L 204.368977 108.375102 
L 204.393575 107.492839 
L 204.503105 107.492839 
L 204.602887 105.728312 
L 204.76024 105.728312 
L 204.804636 104.846049 
L 204.994574 104.846049 
L 205.06957 103.522654 
L 205.211319 103.522654 
L 205.211319 103.081522 
L 205.753583 103.081522 
L 205.753583 102.64039 
L 206.021077 102.64039 
L 206.021077 102.199259 
L 206.573673 102.199259 
L 206.573673 101.316995 
L 206.932806 101.316995 
L 206.932806 100.434732 
L 207.307594 100.434732 
L 207.322063 99.552468 
L 213.881078 99.552468 
L 213.881078 99.111337 
L 214.055621 99.111337 
L 214.055621 98.670205 
L 214.218538 98.670205 
L 214.218538 98.229073 
L 214.466595 98.229073 
L 214.466595 97.787941 
L 214.994254 97.787941 
L 214.994254 97.34681 
L 215.17874 97.34681 
L 215.17874 96.905678 
L 215.653313 96.905678 
L 215.653313 96.464546 
L 215.82604 96.464546 
L 215.82604 96.023415 
L 215.995537 96.023415 
L 215.995537 95.582283 
L 216.477685 95.582283 
L 216.477685 95.141151 
L 216.652249 95.141151 
L 216.652249 94.258888 
L 225.567444 94.258888 
L 225.567444 93.817756 
L 226.644656 93.817756 
L 226.644656 93.376624 
L 227.689133 93.376624 
L 227.689133 92.935493 
L 238.206782 92.935493 
L 238.206782 92.494361 
L 242.153163 92.494361 
L 242.153163 92.053229 
L 244.780626 92.053229 
L 244.820615 91.170966 
L 244.938649 91.170966 
L 245.02204 90.288702 
L 254.206122 90.288702 
L 254.289415 88.965307 
L 255.993267 88.965307 
L 255.993267 88.524176 
L 256.559848 88.524176 
L 256.559848 87.641912 
L 262.022871 87.641912 
L 262.096521 86.318517 
L 263.934414 86.318517 
L 263.934414 85.877385 
L 267.727952 85.877385 
L 267.801301 84.112859 
L 271.780916 84.112859 
L 271.780916 83.671727 
L 274.939642 83.671727 
L 274.939642 83.230595 
L 277.760365 83.230595 
L 277.793328 81.024937 
L 280.40516 81.024937 
L 280.40516 80.583805 
L 282.369079 80.583805 
L 282.369079 80.142673 
L 283.579753 80.142673 
L 283.579753 79.701541 
L 284.289943 79.701541 
L 284.291833 78.819278 
L 288.56781 78.819278 
L 288.577393 77.937015 
L 290.58981 77.937015 
L 290.58981 77.495883 
L 292.956573 77.495883 
L 292.960094 76.172488 
L 296.13522 76.172488 
L 296.13522 75.731356 
L 299.754012 75.731356 
L 299.754012 75.290224 
L 301.231275 75.290224 
L 301.232726 74.407961 
L 303.346283 74.407961 
L 303.346283 73.966829 
L 305.241592 73.966829 
L 305.241592 73.525698 
L 306.969683 73.525698 
L 306.969683 73.084566 
L 308.540397 73.084566 
L 308.550763 72.202302 
L 310.000997 72.202302 
L 310.000997 71.761171 
L 311.35252 71.761171 
L 311.35252 71.320039 
L 313.796757 71.320039 
L 313.796757 70.878907 
L 314.909503 70.878907 
L 314.909503 70.437776 
L 315.957816 70.437776 
L 315.957816 69.996644 
L 319.655344 69.996644 
L 319.655344 69.555512 
L 322.746335 69.555512 
L 322.746335 69.11438 
L 323.441032 69.11438 
L 323.441032 68.673249 
L 326.591411 68.673249 
L 326.591411 68.232117 
L 327.162501 68.232117 
L 327.162501 67.790985 
L 338.300527 67.790985 
L 338.300527 67.349854 
L 360.8064 67.349854 
L 360.8064 67.349854 
" style="fill:none;stroke:#ff7500;stroke-linecap:square;stroke-width:1.5;"/>
   </g>
   <g id="line2d_41">
    <defs>
     <path d="M 0 -6 
L -1.347084 -1.854102 
L -5.706339 -1.854102 
L -2.179628 0.708204 
L -3.526712 4.854102 
L -0 2.291796 
L 3.526712 4.854102 
L 2.179628 0.708204 
L 5.706339 -1.854102 
L 1.347084 -1.854102 
z
" id="mababf95f74" style="stroke:#ff7500;stroke-linejoin:bevel;stroke-width:1.5;"/>
    </defs>
    <g>
     <use style="fill-opacity:0;stroke:#ff7500;stroke-linejoin:bevel;stroke-width:1.5;" x="216.652249" xlink:href="#mababf95f74" y="94.258888"/>
     <use style="fill-opacity:0;stroke:#ff7500;stroke-linejoin:bevel;stroke-width:1.5;" x="323.441032" xlink:href="#mababf95f74" y="68.673249"/>
     <use style="fill-opacity:0;stroke:#ff7500;stroke-linejoin:bevel;stroke-width:1.5;" x="338.300527" xlink:href="#mababf95f74" y="67.349854"/>
     <use style="fill-opacity:0;stroke:#ff7500;stroke-linejoin:bevel;stroke-width:1.5;" x="360.8064" xlink:href="#mababf95f74" y="67.349854"/>
    </g>
   </g>
   <g id="line2d_42">
    <path style="fill:none;stroke:#ff7500;stroke-linecap:square;stroke-width:1.5;"/>
    <g/>
   </g>
   <g id="line2d_43">
    <path clip-path="url(#p38b9011e38)" d="M 261.146248 87.641912 
" style="fill:none;stroke:#ff7500;stroke-linecap:square;stroke-width:1.5;"/>
    <defs>
     <path d="M -12 12 
L 12 -12 
M -12 -12 
L 12 12 
" id="m0a7e505874" style="stroke:#ff7500;"/>
    </defs>
    <g clip-path="url(#p38b9011e38)">
     <use style="fill:#ff7500;stroke:#ff7500;" x="261.146248" xlink:href="#m0a7e505874" y="87.641912"/>
    </g>
   </g>
   <g id="line2d_44">
    <defs>
     <path d="M 0 1.5 
C 0.397805 1.5 0.77937 1.341951 1.06066 1.06066 
C 1.341951 0.77937 1.5 0.397805 1.5 0 
C 1.5 -0.397805 1.341951 -0.77937 1.06066 -1.06066 
C 0.77937 -1.341951 0.397805 -1.5 0 -1.5 
C -0.397805 -1.5 -0.77937 -1.341951 -1.06066 -1.06066 
C -1.341951 -0.77937 -1.5 -0.397805 -1.5 0 
C -1.5 0.397805 -1.341951 0.77937 -1.06066 1.06066 
C -0.77937 1.341951 -0.397805 1.5 0 1.5 
z
" id="mbe85fb725c" style="stroke:#6495ed;"/>
    </defs>
    <g>
     <use style="fill:#6495ed;stroke:#6495ed;" x="294.987479" xlink:href="#mbe85fb725c" y="87.20078"/>
     <use style="fill:#6495ed;stroke:#6495ed;" x="294.987479" xlink:href="#mbe85fb725c" y="87.20078"/>
    </g>
   </g>
   <g id="line2d_45">
    <path d="M 177.127384 298.944 
L 177.127384 298.502868 
L 178.331734 298.502868 
L 178.331734 298.061737 
L 179.379579 298.061737 
L 179.379579 297.620605 
L 180.826582 297.620605 
L 180.826582 296.738341 
L 181.064368 296.738341 
L 181.064368 296.29721 
L 181.734604 296.29721 
L 181.734604 295.856078 
L 181.872446 295.856078 
L 181.880075 294.973815 
L 182.047121 294.973815 
L 182.104987 293.65042 
L 182.556714 293.65042 
L 182.627701 292.327024 
L 182.730038 292.327024 
L 182.730038 291.885893 
L 183.252448 291.885893 
L 183.35145 291.003629 
L 183.737724 291.003629 
L 183.737724 290.562498 
L 184.018908 290.562498 
L 184.018908 290.121366 
L 184.262383 290.121366 
L 184.336154 289.239102 
L 184.86197 289.239102 
L 184.948554 288.356839 
L 185.08841 288.356839 
L 185.08841 287.915707 
L 185.210202 287.915707 
L 185.210202 287.474576 
L 185.386151 287.474576 
L 185.482961 286.592312 
L 186.016893 286.592312 
L 186.100364 285.710049 
L 186.2057 285.710049 
L 186.302413 283.945522 
L 186.416617 283.945522 
L 186.416617 283.50439 
L 186.573762 283.50439 
L 186.573762 283.063259 
L 186.735498 283.063259 
L 186.75905 282.180995 
L 186.965826 282.180995 
L 186.965826 281.739863 
L 187.141546 281.739863 
L 187.141546 281.298732 
L 187.535251 281.298732 
L 187.632871 279.975337 
L 187.679624 279.975337 
L 187.769065 278.651941 
L 187.859934 278.651941 
L 187.859934 278.21081 
L 187.972446 278.21081 
L 188.073317 276.446283 
L 188.237221 276.446283 
L 188.309612 275.56402 
L 188.585743 275.56402 
L 188.679845 274.681756 
L 188.745262 274.681756 
L 188.826274 273.799493 
L 188.927925 273.799493 
L 189.020335 272.034966 
L 189.160695 272.034966 
L 189.248535 270.711571 
L 189.276008 270.711571 
L 189.361605 268.06478 
L 189.450215 268.06478 
L 189.492667 266.741385 
L 189.658163 266.741385 
L 189.725296 265.859122 
L 190.006319 265.859122 
L 190.077157 264.976859 
L 190.419328 264.976859 
L 190.419328 264.535727 
L 190.62328 264.535727 
L 190.62328 264.094595 
L 190.737931 264.094595 
L 190.737931 263.653463 
L 190.955746 263.653463 
L 191.041858 262.330068 
L 191.119801 262.330068 
L 191.225288 260.565541 
L 191.408479 260.565541 
L 191.497123 259.242146 
L 191.539767 259.242146 
L 191.633852 258.359883 
L 191.652008 258.359883 
L 191.728974 257.036488 
L 191.844586 257.036488 
L 191.952051 255.713093 
L 191.990707 255.713093 
L 192.023355 254.389698 
L 192.222459 254.389698 
L 192.317578 252.184039 
L 192.378785 252.184039 
L 192.486143 249.97838 
L 192.515054 249.97838 
L 192.601521 247.33159 
L 192.63169 247.33159 
L 192.650343 246.449327 
L 192.783242 246.449327 
L 192.89257 244.243668 
L 193.004082 244.243668 
L 193.079927 242.920273 
L 193.198696 242.920273 
L 193.302873 239.832351 
L 193.355436 239.832351 
L 193.400965 238.508956 
L 193.58335 238.508956 
L 193.677278 236.744429 
L 193.749109 236.744429 
L 193.857017 234.979902 
L 193.887926 234.979902 
L 193.985694 233.215376 
L 194.003051 233.215376 
L 194.089599 231.450849 
L 194.204821 231.450849 
L 194.303587 227.480663 
L 194.319341 227.480663 
L 194.363908 224.833873 
L 194.460541 224.833873 
L 194.460541 224.392741 
L 194.601982 224.392741 
L 194.688398 221.745951 
L 194.935132 221.745951 
L 195.014976 219.099161 
L 195.094483 219.099161 
L 195.192457 217.775766 
L 195.238754 217.775766 
L 195.343439 214.246712 
L 195.352137 214.246712 
L 195.447545 212.923317 
L 195.508009 212.923317 
L 195.519093 212.041054 
L 195.623459 212.041054 
L 195.733336 208.953132 
L 195.757666 208.953132 
L 195.798956 207.629737 
L 195.87764 207.629737 
L 195.949981 205.86521 
L 195.98965 205.86521 
L 196.099803 203.21842 
L 196.157019 203.21842 
L 196.267382 200.571629 
L 196.268565 200.571629 
L 196.372396 198.807102 
L 196.459266 198.807102 
L 196.459266 198.365971 
L 196.584171 198.365971 
L 196.693221 195.71918 
L 196.71403 195.71918 
L 196.769411 193.954654 
L 196.87625 193.954654 
L 196.96425 192.631259 
L 197.033674 192.631259 
L 197.143544 189.984468 
L 197.153706 189.984468 
L 197.260635 186.896546 
L 197.266246 186.896546 
L 197.347977 184.690888 
L 197.515919 184.690888 
L 197.60429 182.485229 
L 197.647222 182.485229 
L 197.647222 182.044098 
L 197.768877 182.044098 
L 197.877806 181.161834 
L 197.912531 181.161834 
L 198.002301 177.191649 
L 198.086274 177.191649 
L 198.185908 176.309385 
L 198.247779 176.309385 
L 198.356097 173.221463 
L 198.368799 173.221463 
L 198.470109 169.69241 
L 198.567737 169.69241 
L 198.676314 167.927883 
L 198.773915 167.927883 
L 198.861738 163.957698 
L 198.902925 163.957698 
L 198.978884 160.428644 
L 199.029012 160.428644 
L 199.101411 159.105249 
L 199.161363 159.105249 
L 199.235277 157.340722 
L 199.279688 157.340722 
L 199.382239 153.811668 
L 199.4183 153.811668 
L 199.486228 152.929405 
L 199.530052 152.929405 
L 199.612441 149.400351 
L 199.735844 149.400351 
L 199.736828 148.518088 
L 199.864308 148.518088 
L 199.949142 146.312429 
L 200.081959 146.312429 
L 200.131164 144.989034 
L 200.209049 144.989034 
L 200.283745 140.577717 
L 200.330519 140.577717 
L 200.380029 138.372059 
L 200.446473 138.372059 
L 200.504183 134.843005 
L 200.601227 134.843005 
L 200.687487 130.431688 
L 200.742598 130.431688 
L 200.841207 129.108293 
L 200.942994 129.108293 
L 200.942994 128.226029 
L 201.060748 128.226029 
L 201.165005 126.020371 
L 201.176858 126.020371 
L 201.259616 123.37358 
L 201.293161 123.37358 
L 201.397943 121.609054 
L 201.550457 121.609054 
L 201.658262 119.844527 
L 201.744241 119.844527 
L 201.851824 117.197737 
L 201.912399 117.197737 
L 201.981514 115.43321 
L 202.103376 115.43321 
L 202.103376 114.992078 
L 202.270948 114.992078 
L 202.348184 112.78642 
L 202.412305 112.78642 
L 202.483013 110.580761 
L 202.594919 110.580761 
L 202.678413 109.698498 
L 202.764052 109.698498 
L 202.844299 107.051707 
L 203.028568 107.051707 
L 203.058281 106.169444 
L 203.175843 106.169444 
L 203.260068 104.846049 
L 203.287788 104.846049 
L 203.29919 103.963785 
L 203.491977 103.963785 
L 203.491977 103.522654 
L 203.606067 103.522654 
L 203.697959 102.64039 
L 203.724246 102.64039 
L 203.724246 101.758127 
L 203.975687 101.758127 
L 203.975687 100.875863 
L 204.659777 100.875863 
L 204.659777 100.434732 
L 205.226759 100.434732 
L 205.226759 99.9936 
L 213.148405 99.9936 
L 213.148405 99.552468 
L 213.402794 99.552468 
L 213.402794 99.111337 
L 213.646274 99.111337 
L 213.71473 98.229073 
L 213.888499 98.229073 
L 213.888499 97.787941 
L 214.791152 97.787941 
L 214.791152 97.34681 
L 215.060163 97.34681 
L 215.060163 96.905678 
L 215.297865 96.905678 
L 215.297865 96.464546 
L 218.004895 96.464546 
L 218.004895 96.023415 
L 240.385701 96.023415 
L 240.385701 95.582283 
L 241.668808 95.582283 
L 241.668808 95.141151 
L 255.345931 95.141151 
L 255.345931 94.70002 
L 259.653829 94.70002 
L 259.653829 94.258888 
L 259.956216 94.258888 
L 259.956216 93.817756 
L 261.889671 93.817756 
L 261.927263 91.170966 
L 271.51778 91.170966 
L 271.51778 90.729834 
L 273.45139 90.729834 
L 273.462178 89.847571 
L 274.91316 89.847571 
L 274.91316 89.406439 
L 281.420613 89.406439 
L 281.427728 88.524176 
L 282.339959 88.524176 
L 282.339959 88.083044 
L 287.629838 88.083044 
L 287.629838 87.641912 
L 294.987479 87.641912 
L 294.987479 87.20078 
L 360.8064 87.20078 
L 360.8064 87.20078 
" style="fill:none;stroke:#6495ed;stroke-linecap:square;stroke-width:1.5;"/>
   </g>
   <g id="line2d_46">
    <defs>
     <path d="M -0 6 
L 6 -6 
L -6 -6 
z
" id="m653fe5d1dd" style="stroke:#6495ed;stroke-linejoin:miter;stroke-width:1.5;"/>
    </defs>
    <g>
     <use style="fill-opacity:0;stroke:#6495ed;stroke-linejoin:miter;stroke-width:1.5;" x="202.282124" xlink:href="#m653fe5d1dd" y="114.109815"/>
     <use style="fill-opacity:0;stroke:#6495ed;stroke-linejoin:miter;stroke-width:1.5;" x="294.987479" xlink:href="#m653fe5d1dd" y="87.641912"/>
     <use style="fill-opacity:0;stroke:#6495ed;stroke-linejoin:miter;stroke-width:1.5;" x="294.987479" xlink:href="#m653fe5d1dd" y="87.20078"/>
     <use style="fill-opacity:0;stroke:#6495ed;stroke-linejoin:miter;stroke-width:1.5;" x="360.8064" xlink:href="#m653fe5d1dd" y="87.20078"/>
    </g>
   </g>
   <g id="line2d_47">
    <path style="fill:none;stroke:#6495ed;stroke-linecap:square;stroke-width:1.5;"/>
    <g/>
   </g>
   <g id="line2d_48">
    <path clip-path="url(#p38b9011e38)" d="M 261.152715 93.817756 
" style="fill:none;stroke:#6495ed;stroke-linecap:square;stroke-width:1.5;"/>
    <defs>
     <path d="M -12 12 
L 12 -12 
M -12 -12 
L 12 12 
" id="m664e70464c" style="stroke:#6495ed;"/>
    </defs>
    <g clip-path="url(#p38b9011e38)">
     <use style="fill:#6495ed;stroke:#6495ed;" x="261.152715" xlink:href="#m664e70464c" y="93.817756"/>
    </g>
   </g>
   <g id="line2d_49">
    <path clip-path="url(#p38b9011e38)" d="M 57.6 298.944 
L 57.6 298.944 
L 57.6 298.944 
L 57.6 298.944 
L 360.8064 298.944 
" style="fill:none;stroke:#ff0000;stroke-linecap:square;stroke-width:1.5;"/>
   </g>
   <g id="line2d_50">
    <defs>
     <path d="M 0 -6 
L -5.196152 -3 
L -5.196152 3 
L -0 6 
L 5.196152 3 
L 5.196152 -3 
z
" id="m95c4becf3e" style="stroke:#ff0000;stroke-linejoin:miter;stroke-width:1.5;"/>
    </defs>
    <g clip-path="url(#p38b9011e38)">
     <use style="fill-opacity:0;stroke:#ff0000;stroke-linejoin:miter;stroke-width:1.5;" x="57.6" xlink:href="#m95c4becf3e" y="298.944"/>
    </g>
   </g>
   <g id="line2d_51">
    <path clip-path="url(#p38b9011e38)" style="fill:none;stroke:#ff0000;stroke-linecap:square;stroke-width:1.5;"/>
    <g clip-path="url(#p38b9011e38)">
     <use style="fill-opacity:0;stroke:#ff0000;stroke-linejoin:miter;stroke-width:1.5;" x="-1" xlink:href="#m95c4becf3e" y="570.24"/>
     <use style="fill-opacity:0;stroke:#ff0000;stroke-linejoin:miter;stroke-width:1.5;" x="360.8064" xlink:href="#m95c4becf3e" y="570.24"/>
    </g>
   </g>
   <g id="line2d_52">
    <path clip-path="url(#p38b9011e38)" d="M 287.215174 298.944 
" style="fill:none;stroke:#ff0000;stroke-linecap:square;stroke-width:1.5;"/>
    <defs>
     <path d="M -12 12 
L 12 -12 
M -12 -12 
L 12 12 
" id="m15eb82c4d3" style="stroke:#ff0000;"/>
    </defs>
    <g clip-path="url(#p38b9011e38)">
     <use style="fill:#ff0000;stroke:#ff0000;" x="287.215174" xlink:href="#m15eb82c4d3" y="298.944"/>
    </g>
   </g>
   <g id="line2d_53">
    <defs>
     <path d="M 0 1.5 
C 0.397805 1.5 0.77937 1.341951 1.06066 1.06066 
C 1.341951 0.77937 1.5 0.397805 1.5 0 
C 1.5 -0.397805 1.341951 -0.77937 1.06066 -1.06066 
C 0.77937 -1.341951 0.397805 -1.5 0 -1.5 
C -0.397805 -1.5 -0.77937 -1.341951 -1.06066 -1.06066 
C -1.341951 -0.77937 -1.5 -0.397805 -1.5 0 
C -1.5 0.397805 -1.341951 0.77937 -1.06066 1.06066 
C -0.77937 1.341951 -0.397805 1.5 0 1.5 
z
" id="m3c3dfab20c" style="stroke:#9acd32;"/>
    </defs>
    <g>
     <use style="fill:#9acd32;stroke:#9acd32;" x="137.23648" xlink:href="#m3c3dfab20c" y="27.648"/>
     <use style="fill:#9acd32;stroke:#9acd32;" x="137.23648" xlink:href="#m3c3dfab20c" y="27.648"/>
    </g>
   </g>
   <g id="line2d_54">
    <path d="M 74.068926 298.944 
L 74.068926 262.7712 
L 74.836851 262.7712 
L 74.836851 262.330068 
L 75.574654 262.330068 
L 75.574654 232.774244 
L 76.284608 232.774244 
L 76.284608 228.804059 
L 80.059535 228.804059 
L 80.059535 224.392741 
L 81.166416 224.392741 
L 81.166416 206.306341 
L 82.713442 206.306341 
L 82.713442 188.219941 
L 84.142855 188.219941 
L 84.142855 184.249756 
L 84.596168 184.249756 
L 84.596168 179.397307 
L 86.307488 179.397307 
L 86.307488 171.456937 
L 86.712053 171.456937 
L 86.712053 169.69241 
L 90.668036 169.69241 
L 90.668036 164.398829 
L 93.098709 164.398829 
L 93.098709 158.222985 
L 93.381595 158.222985 
L 93.381595 133.960741 
L 97.635342 133.960741 
L 97.635342 119.844527 
L 97.857967 119.844527 
L 97.857967 111.021893 
L 98.295464 111.021893 
L 98.295464 107.492839 
L 104.028784 107.492839 
L 104.028784 102.199259 
L 105.26277 102.199259 
L 105.26277 96.905678 
L 105.411479 96.905678 
L 105.411479 92.935493 
L 107.643612 92.935493 
L 107.643612 87.641912 
L 110.335561 87.641912 
L 110.335561 82.348332 
L 111.86758 82.348332 
L 111.86758 77.937015 
L 112.589207 77.937015 
L 112.589207 71.761171 
L 112.690074 71.761171 
L 112.690074 66.908722 
L 112.790402 66.908722 
L 112.790402 63.8208 
L 115.83262 63.8208 
L 115.83262 62.938537 
L 121.737916 62.938537 
L 121.737916 49.263454 
L 122.228947 49.263454 
L 122.228947 36.029502 
L 122.588988 36.029502 
L 122.588988 33.823844 
L 136.083243 33.823844 
L 136.083243 30.735922 
L 137.23648 30.735922 
L 137.23648 27.648 
L 360.8064 27.648 
" style="fill:none;stroke:#9acd32;stroke-linecap:square;stroke-width:1.5;"/>
   </g>
   <g id="line2d_55">
    <defs>
     <path d="M 0 -6 
L -6 6 
L 6 6 
z
" id="mafb665a53e" style="stroke:#9acd32;stroke-linejoin:miter;stroke-width:1.5;"/>
    </defs>
    <g>
     <use style="fill-opacity:0;stroke:#9acd32;stroke-linejoin:miter;stroke-width:1.5;" x="90.668036" xlink:href="#mafb665a53e" y="164.398829"/>
     <use style="fill-opacity:0;stroke:#9acd32;stroke-linejoin:miter;stroke-width:1.5;" x="122.588988" xlink:href="#mafb665a53e" y="33.823844"/>
     <use style="fill-opacity:0;stroke:#9acd32;stroke-linejoin:miter;stroke-width:1.5;" x="137.23648" xlink:href="#mafb665a53e" y="27.648"/>
     <use style="fill-opacity:0;stroke:#9acd32;stroke-linejoin:miter;stroke-width:1.5;" x="137.23648" xlink:href="#mafb665a53e" y="27.648"/>
     <use style="fill-opacity:0;stroke:#9acd32;stroke-linejoin:miter;stroke-width:1.5;" x="360.8064" xlink:href="#mafb665a53e" y="27.648"/>
    </g>
   </g>
   <g id="line2d_56">
    <path style="fill:none;stroke:#9acd32;stroke-linecap:square;stroke-width:1.5;"/>
    <g/>
   </g>
   <g id="line2d_57">
    <path d="M 360.8064 298.944 
L 380.514816 293.51808 
" style="fill:none;stroke:#ff0000;stroke-linecap:square;stroke-width:1.5;"/>
    <g>
     <use style="fill-opacity:0;stroke:#ff0000;stroke-linejoin:miter;stroke-width:1.5;" x="360.8064" xlink:href="#m95c4becf3e" y="298.944"/>
     <use style="fill-opacity:0;stroke:#ff0000;stroke-linejoin:miter;stroke-width:1.5;" x="380.514816" xlink:href="#m95c4becf3e" y="293.51808"/>
    </g>
   </g>
   <g id="line2d_58">
    <path d="M 360.8064 87.20078 
L 380.514816 241.429248 
" style="fill:none;stroke:#6495ed;stroke-linecap:square;stroke-width:1.5;"/>
    <g>
     <use style="fill-opacity:0;stroke:#6495ed;stroke-linejoin:miter;stroke-width:1.5;" x="360.8064" xlink:href="#m653fe5d1dd" y="87.20078"/>
     <use style="fill-opacity:0;stroke:#6495ed;stroke-linejoin:miter;stroke-width:1.5;" x="380.514816" xlink:href="#m653fe5d1dd" y="241.429248"/>
    </g>
   </g>
   <g id="line2d_59">
    <path d="M 360.8064 67.349854 
L 380.514816 189.340416 
" style="fill:none;stroke:#000080;stroke-linecap:square;stroke-width:1.5;"/>
    <g>
     <use style="fill-opacity:0;stroke:#000080;stroke-width:1.5;" x="360.8064" xlink:href="#mf516b47b62" y="67.349854"/>
     <use style="fill-opacity:0;stroke:#000080;stroke-width:1.5;" x="380.514816" xlink:href="#mf516b47b62" y="189.340416"/>
    </g>
   </g>
   <g id="line2d_60">
    <path d="M 360.8064 67.349854 
L 380.514816 137.251584 
" style="fill:none;stroke:#ff7500;stroke-linecap:square;stroke-width:1.5;"/>
    <g>
     <use style="fill-opacity:0;stroke:#ff7500;stroke-linejoin:bevel;stroke-width:1.5;" x="360.8064" xlink:href="#mababf95f74" y="67.349854"/>
     <use style="fill-opacity:0;stroke:#ff7500;stroke-linejoin:bevel;stroke-width:1.5;" x="380.514816" xlink:href="#mababf95f74" y="137.251584"/>
    </g>
   </g>
   <g id="line2d_61">
    <path d="M 360.8064 27.648 
L 380.514816 85.162752 
" style="fill:none;stroke:#ff00ff;stroke-linecap:square;stroke-width:1.5;"/>
    <g>
     <use style="fill-opacity:0;stroke:#ff00ff;stroke-linejoin:miter;stroke-width:1.5;" x="360.8064" xlink:href="#m24f10ff340" y="27.648"/>
     <use style="fill-opacity:0;stroke:#ff00ff;stroke-linejoin:miter;stroke-width:1.5;" x="380.514816" xlink:href="#m24f10ff340" y="85.162752"/>
    </g>
   </g>
   <g id="line2d_62">
    <path d="M 360.8064 27.648 
L 380.514816 33.07392 
" style="fill:none;stroke:#9acd32;stroke-linecap:square;stroke-width:1.5;"/>
    <g>
     <use style="fill-opacity:0;stroke:#9acd32;stroke-linejoin:miter;stroke-width:1.5;" x="360.8064" xlink:href="#mafb665a53e" y="27.648"/>
     <use style="fill-opacity:0;stroke:#9acd32;stroke-linejoin:miter;stroke-width:1.5;" x="380.514816" xlink:href="#mafb665a53e" y="33.07392"/>
    </g>
   </g>
   <g id="line2d_63">
    <path d="M 360.8064 298.944 
L 360.8064 27.648 
" style="fill:none;stroke:#000000;stroke-linecap:square;stroke-width:1.5;"/>
   </g>
   <g id="patch_3">
    <path d="M 57.6 298.944 
L 360.8064 298.944 
" style="fill:none;stroke:#000000;stroke-linecap:square;stroke-linejoin:miter;stroke-width:0.8;"/>
   </g>
   <g id="patch_4">
    <path d="M 57.6 27.648 
L 360.8064 27.648 
" style="fill:none;stroke:#000000;stroke-linecap:square;stroke-linejoin:miter;stroke-width:0.8;"/>
   </g>
   <g id="text_13">
    <!-- rs -->
    <g transform="translate(386.578944 297.381205)scale(0.14 -0.14)">
     <use xlink:href="#DejaVuSans-114"/>
     <use x="41.113281" xlink:href="#DejaVuSans-115"/>
    </g>
   </g>
   <g id="text_14">
    <!-- al4 -->
    <g transform="translate(386.578944 245.292373)scale(0.14 -0.14)">
     <use xlink:href="#DejaVuSans-97"/>
     <use x="61.279297" xlink:href="#DejaVuSans-108"/>
     <use x="89.0625" xlink:href="#DejaVuSans-52"/>
    </g>
   </g>
   <g id="text_15">
    <!-- al1 -->
    <g transform="translate(386.578944 193.203541)scale(0.14 -0.14)">
     <use xlink:href="#DejaVuSans-97"/>
     <use x="61.279297" xlink:href="#DejaVuSans-108"/>
     <use x="89.0625" xlink:href="#DejaVuSans-49"/>
    </g>
   </g>
   <g id="text_16">
    <!-- al3 -->
    <g transform="translate(386.578944 141.114709)scale(0.14 -0.14)">
     <defs>
      <path d="M 40.578125 39.3125 
Q 47.65625 37.796875 51.625 33 
Q 55.609375 28.21875 55.609375 21.1875 
Q 55.609375 10.40625 48.1875 4.484375 
Q 40.765625 -1.421875 27.09375 -1.421875 
Q 22.515625 -1.421875 17.65625 -0.515625 
Q 12.796875 0.390625 7.625 2.203125 
L 7.625 11.71875 
Q 11.71875 9.328125 16.59375 8.109375 
Q 21.484375 6.890625 26.8125 6.890625 
Q 36.078125 6.890625 40.9375 10.546875 
Q 45.796875 14.203125 45.796875 21.1875 
Q 45.796875 27.640625 41.28125 31.265625 
Q 36.765625 34.90625 28.71875 34.90625 
L 20.21875 34.90625 
L 20.21875 43.015625 
L 29.109375 43.015625 
Q 36.375 43.015625 40.234375 45.921875 
Q 44.09375 48.828125 44.09375 54.296875 
Q 44.09375 59.90625 40.109375 62.90625 
Q 36.140625 65.921875 28.71875 65.921875 
Q 24.65625 65.921875 20.015625 65.03125 
Q 15.375 64.15625 9.8125 62.3125 
L 9.8125 71.09375 
Q 15.4375 72.65625 20.34375 73.4375 
Q 25.25 74.21875 29.59375 74.21875 
Q 40.828125 74.21875 47.359375 69.109375 
Q 53.90625 64.015625 53.90625 55.328125 
Q 53.90625 49.265625 50.4375 45.09375 
Q 46.96875 40.921875 40.578125 39.3125 
z
" id="DejaVuSans-51"/>
     </defs>
     <use xlink:href="#DejaVuSans-97"/>
     <use x="61.279297" xlink:href="#DejaVuSans-108"/>
     <use x="89.0625" xlink:href="#DejaVuSans-51"/>
    </g>
   </g>
   <g id="text_17">
    <!-- al2 -->
    <g transform="translate(386.578944 89.025877)scale(0.14 -0.14)">
     <use xlink:href="#DejaVuSans-97"/>
     <use x="61.279297" xlink:href="#DejaVuSans-108"/>
     <use x="89.0625" xlink:href="#DejaVuSans-50"/>
    </g>
   </g>
   <g id="text_18">
    <!-- cobyla -->
    <g transform="translate(386.578944 36.937045)scale(0.14 -0.14)">
     <defs>
      <path d="M 48.6875 27.296875 
Q 48.6875 37.203125 44.609375 42.84375 
Q 40.53125 48.484375 33.40625 48.484375 
Q 26.265625 48.484375 22.1875 42.84375 
Q 18.109375 37.203125 18.109375 27.296875 
Q 18.109375 17.390625 22.1875 11.75 
Q 26.265625 6.109375 33.40625 6.109375 
Q 40.53125 6.109375 44.609375 11.75 
Q 48.6875 17.390625 48.6875 27.296875 
z
M 18.109375 46.390625 
Q 20.953125 51.265625 25.265625 53.625 
Q 29.59375 56 35.59375 56 
Q 45.5625 56 51.78125 48.09375 
Q 58.015625 40.1875 58.015625 27.296875 
Q 58.015625 14.40625 51.78125 6.484375 
Q 45.5625 -1.421875 35.59375 -1.421875 
Q 29.59375 -1.421875 25.265625 0.953125 
Q 20.953125 3.328125 18.109375 8.203125 
L 18.109375 0 
L 9.078125 0 
L 9.078125 75.984375 
L 18.109375 75.984375 
z
" id="DejaVuSans-98"/>
      <path d="M 32.171875 -5.078125 
Q 28.375 -14.84375 24.75 -17.8125 
Q 21.140625 -20.796875 15.09375 -20.796875 
L 7.90625 -20.796875 
L 7.90625 -13.28125 
L 13.1875 -13.28125 
Q 16.890625 -13.28125 18.9375 -11.515625 
Q 21 -9.765625 23.484375 -3.21875 
L 25.09375 0.875 
L 2.984375 54.6875 
L 12.5 54.6875 
L 29.59375 11.921875 
L 46.6875 54.6875 
L 56.203125 54.6875 
z
" id="DejaVuSans-121"/>
     </defs>
     <use xlink:href="#DejaVuSans-99"/>
     <use x="54.980469" xlink:href="#DejaVuSans-111"/>
     <use x="116.162109" xlink:href="#DejaVuSans-98"/>
     <use x="179.638672" xlink:href="#DejaVuSans-121"/>
     <use x="238.818359" xlink:href="#DejaVuSans-108"/>
     <use x="266.601562" xlink:href="#DejaVuSans-97"/>
    </g>
   </g>
   <g id="text_19">
    <!-- bbob-constrained f18, 20-D -->
    <g transform="translate(60.632064 38.111366)scale(0.102 -0.102)">
     <defs>
      <path d="M 4.890625 31.390625 
L 31.203125 31.390625 
L 31.203125 23.390625 
L 4.890625 23.390625 
z
" id="DejaVuSans-45"/>
      <path d="M 19.671875 64.796875 
L 19.671875 8.109375 
L 31.59375 8.109375 
Q 46.6875 8.109375 53.6875 14.9375 
Q 60.6875 21.78125 60.6875 36.53125 
Q 60.6875 51.171875 53.6875 57.984375 
Q 46.6875 64.796875 31.59375 64.796875 
z
M 9.8125 72.90625 
L 30.078125 72.90625 
Q 51.265625 72.90625 61.171875 64.09375 
Q 71.09375 55.28125 71.09375 36.53125 
Q 71.09375 17.671875 61.125 8.828125 
Q 51.171875 0 30.078125 0 
L 9.8125 0 
z
" id="DejaVuSans-68"/>
     </defs>
     <use xlink:href="#DejaVuSans-98"/>
     <use x="63.476562" xlink:href="#DejaVuSans-98"/>
     <use x="126.953125" xlink:href="#DejaVuSans-111"/>
     <use x="188.134766" xlink:href="#DejaVuSans-98"/>
     <use x="251.611328" xlink:href="#DejaVuSans-45"/>
     <use x="287.695312" xlink:href="#DejaVuSans-99"/>
     <use x="342.675781" xlink:href="#DejaVuSans-111"/>
     <use x="403.857422" xlink:href="#DejaVuSans-110"/>
     <use x="467.236328" xlink:href="#DejaVuSans-115"/>
     <use x="519.335938" xlink:href="#DejaVuSans-116"/>
     <use x="558.544922" xlink:href="#DejaVuSans-114"/>
     <use x="599.658203" xlink:href="#DejaVuSans-97"/>
     <use x="660.9375" xlink:href="#DejaVuSans-105"/>
     <use x="688.720703" xlink:href="#DejaVuSans-110"/>
     <use x="752.099609" xlink:href="#DejaVuSans-101"/>
     <use x="813.623047" xlink:href="#DejaVuSans-100"/>
     <use x="877.099609" xlink:href="#DejaVuSans-32"/>
     <use x="908.886719" xlink:href="#DejaVuSans-102"/>
     <use x="944.091797" xlink:href="#DejaVuSans-49"/>
     <use x="1007.714844" xlink:href="#DejaVuSans-56"/>
     <use x="1071.337891" xlink:href="#DejaVuSans-44"/>
     <use x="1103.125" xlink:href="#DejaVuSans-32"/>
     <use x="1134.912109" xlink:href="#DejaVuSans-50"/>
     <use x="1198.535156" xlink:href="#DejaVuSans-48"/>
     <use x="1262.158203" xlink:href="#DejaVuSans-45"/>
     <use x="1298.242188" xlink:href="#DejaVuSans-68"/>
    </g>
    <!-- 41 targets: 100..1e-06 -->
    <g transform="translate(60.632064 49.533135)scale(0.102 -0.102)">
     <defs>
      <path d="M 11.71875 12.40625 
L 22.015625 12.40625 
L 22.015625 0 
L 11.71875 0 
z
M 11.71875 51.703125 
L 22.015625 51.703125 
L 22.015625 39.3125 
L 11.71875 39.3125 
z
" id="DejaVuSans-58"/>
     </defs>
     <use xlink:href="#DejaVuSans-52"/>
     <use x="63.623047" xlink:href="#DejaVuSans-49"/>
     <use x="127.246094" xlink:href="#DejaVuSans-32"/>
     <use x="159.033203" xlink:href="#DejaVuSans-116"/>
     <use x="198.242188" xlink:href="#DejaVuSans-97"/>
     <use x="259.521484" xlink:href="#DejaVuSans-114"/>
     <use x="298.884766" xlink:href="#DejaVuSans-103"/>
     <use x="362.361328" xlink:href="#DejaVuSans-101"/>
     <use x="423.884766" xlink:href="#DejaVuSans-116"/>
     <use x="463.09375" xlink:href="#DejaVuSans-115"/>
     <use x="515.193359" xlink:href="#DejaVuSans-58"/>
     <use x="548.884766" xlink:href="#DejaVuSans-32"/>
     <use x="580.671875" xlink:href="#DejaVuSans-49"/>
     <use x="644.294922" xlink:href="#DejaVuSans-48"/>
     <use x="707.917969" xlink:href="#DejaVuSans-48"/>
     <use x="771.541016" xlink:href="#DejaVuSans-46"/>
     <use x="803.328125" xlink:href="#DejaVuSans-46"/>
     <use x="835.115234" xlink:href="#DejaVuSans-49"/>
     <use x="898.738281" xlink:href="#DejaVuSans-101"/>
     <use x="960.261719" xlink:href="#DejaVuSans-45"/>
     <use x="996.345703" xlink:href="#DejaVuSans-48"/>
     <use x="1059.96875" xlink:href="#DejaVuSans-54"/>
    </g>
    <!-- evals = f-evals + g-evals -->
    <g transform="translate(60.632064 60.954904)scale(0.102 -0.102)">
     <defs>
      <path d="M 10.59375 45.40625 
L 73.1875 45.40625 
L 73.1875 37.203125 
L 10.59375 37.203125 
z
M 10.59375 25.484375 
L 73.1875 25.484375 
L 73.1875 17.1875 
L 10.59375 17.1875 
z
" id="DejaVuSans-61"/>
      <path d="M 46 62.703125 
L 46 35.5 
L 73.1875 35.5 
L 73.1875 27.203125 
L 46 27.203125 
L 46 0 
L 37.796875 0 
L 37.796875 27.203125 
L 10.59375 27.203125 
L 10.59375 35.5 
L 37.796875 35.5 
L 37.796875 62.703125 
z
" id="DejaVuSans-43"/>
     </defs>
     <use xlink:href="#DejaVuSans-101"/>
     <use x="61.523438" xlink:href="#DejaVuSans-118"/>
     <use x="120.703125" xlink:href="#DejaVuSans-97"/>
     <use x="181.982422" xlink:href="#DejaVuSans-108"/>
     <use x="209.765625" xlink:href="#DejaVuSans-115"/>
     <use x="261.865234" xlink:href="#DejaVuSans-32"/>
     <use x="293.652344" xlink:href="#DejaVuSans-61"/>
     <use x="377.441406" xlink:href="#DejaVuSans-32"/>
     <use x="409.228516" xlink:href="#DejaVuSans-102"/>
     <use x="438.933594" xlink:href="#DejaVuSans-45"/>
     <use x="475.017578" xlink:href="#DejaVuSans-101"/>
     <use x="536.541016" xlink:href="#DejaVuSans-118"/>
     <use x="595.720703" xlink:href="#DejaVuSans-97"/>
     <use x="657" xlink:href="#DejaVuSans-108"/>
     <use x="684.783203" xlink:href="#DejaVuSans-115"/>
     <use x="736.882812" xlink:href="#DejaVuSans-32"/>
     <use x="768.669922" xlink:href="#DejaVuSans-43"/>
     <use x="852.458984" xlink:href="#DejaVuSans-32"/>
     <use x="884.246094" xlink:href="#DejaVuSans-103"/>
     <use x="947.722656" xlink:href="#DejaVuSans-45"/>
     <use x="983.806641" xlink:href="#DejaVuSans-101"/>
     <use x="1045.330078" xlink:href="#DejaVuSans-118"/>
     <use x="1104.509766" xlink:href="#DejaVuSans-97"/>
     <use x="1165.789062" xlink:href="#DejaVuSans-108"/>
     <use x="1193.572266" xlink:href="#DejaVuSans-115"/>
    </g>
    <!-- 15 instances -->
    <g transform="translate(60.632064 72.376672)scale(0.102 -0.102)">
     <defs>
      <path d="M 10.796875 72.90625 
L 49.515625 72.90625 
L 49.515625 64.59375 
L 19.828125 64.59375 
L 19.828125 46.734375 
Q 21.96875 47.46875 24.109375 47.828125 
Q 26.265625 48.1875 28.421875 48.1875 
Q 40.625 48.1875 47.75 41.5 
Q 54.890625 34.8125 54.890625 23.390625 
Q 54.890625 11.625 47.5625 5.09375 
Q 40.234375 -1.421875 26.90625 -1.421875 
Q 22.3125 -1.421875 17.546875 -0.640625 
Q 12.796875 0.140625 7.71875 1.703125 
L 7.71875 11.625 
Q 12.109375 9.234375 16.796875 8.0625 
Q 21.484375 6.890625 26.703125 6.890625 
Q 35.15625 6.890625 40.078125 11.328125 
Q 45.015625 15.765625 45.015625 23.390625 
Q 45.015625 31 40.078125 35.4375 
Q 35.15625 39.890625 26.703125 39.890625 
Q 22.75 39.890625 18.8125 39.015625 
Q 14.890625 38.140625 10.796875 36.28125 
z
" id="DejaVuSans-53"/>
     </defs>
     <use xlink:href="#DejaVuSans-49"/>
     <use x="63.623047" xlink:href="#DejaVuSans-53"/>
     <use x="127.246094" xlink:href="#DejaVuSans-32"/>
     <use x="159.033203" xlink:href="#DejaVuSans-105"/>
     <use x="186.816406" xlink:href="#DejaVuSans-110"/>
     <use x="250.195312" xlink:href="#DejaVuSans-115"/>
     <use x="302.294922" xlink:href="#DejaVuSans-116"/>
     <use x="341.503906" xlink:href="#DejaVuSans-97"/>
     <use x="402.783203" xlink:href="#DejaVuSans-110"/>
     <use x="466.162109" xlink:href="#DejaVuSans-99"/>
     <use x="521.142578" xlink:href="#DejaVuSans-101"/>
     <use x="582.666016" xlink:href="#DejaVuSans-115"/>
    </g>
   </g>
   <g id="text_20">
    <!-- v2.6.1.8 -->
    <g style="fill:#808080;" transform="translate(188.751637 294.151352)scale(0.1 -0.1)">
     <use xlink:href="#DejaVuSans-118"/>
     <use x="59.179688" xlink:href="#DejaVuSans-50"/>
     <use x="122.802734" xlink:href="#DejaVuSans-46"/>
     <use x="154.589844" xlink:href="#DejaVuSans-54"/>
     <use x="218.212891" xlink:href="#DejaVuSans-46"/>
     <use x="250" xlink:href="#DejaVuSans-49"/>
     <use x="313.623047" xlink:href="#DejaVuSans-46"/>
     <use x="345.410156" xlink:href="#DejaVuSans-56"/>
    </g>
   </g>
   <g id="text_21">
    <!-- 18 Linear Slope, m=9+int(9n/2) -->
    <g transform="translate(48.806325 21.648)scale(0.2 -0.2)">
     <defs>
      <path d="M 9.8125 72.90625 
L 19.671875 72.90625 
L 19.671875 8.296875 
L 55.171875 8.296875 
L 55.171875 0 
L 9.8125 0 
z
" id="DejaVuSans-76"/>
      <path d="M 53.515625 70.515625 
L 53.515625 60.890625 
Q 47.90625 63.578125 42.921875 64.890625 
Q 37.9375 66.21875 33.296875 66.21875 
Q 25.25 66.21875 20.875 63.09375 
Q 16.5 59.96875 16.5 54.203125 
Q 16.5 49.359375 19.40625 46.890625 
Q 22.3125 44.4375 30.421875 42.921875 
L 36.375 41.703125 
Q 47.40625 39.59375 52.65625 34.296875 
Q 57.90625 29 57.90625 20.125 
Q 57.90625 9.515625 50.796875 4.046875 
Q 43.703125 -1.421875 29.984375 -1.421875 
Q 24.8125 -1.421875 18.96875 -0.25 
Q 13.140625 0.921875 6.890625 3.21875 
L 6.890625 13.375 
Q 12.890625 10.015625 18.65625 8.296875 
Q 24.421875 6.59375 29.984375 6.59375 
Q 38.421875 6.59375 43.015625 9.90625 
Q 47.609375 13.234375 47.609375 19.390625 
Q 47.609375 24.75 44.3125 27.78125 
Q 41.015625 30.8125 33.5 32.328125 
L 27.484375 33.5 
Q 16.453125 35.6875 11.515625 40.375 
Q 6.59375 45.0625 6.59375 53.421875 
Q 6.59375 63.09375 13.40625 68.65625 
Q 20.21875 74.21875 32.171875 74.21875 
Q 37.3125 74.21875 42.625 73.28125 
Q 47.953125 72.359375 53.515625 70.515625 
z
" id="DejaVuSans-83"/>
      <path d="M 10.984375 1.515625 
L 10.984375 10.5 
Q 14.703125 8.734375 18.5 7.8125 
Q 22.3125 6.890625 25.984375 6.890625 
Q 35.75 6.890625 40.890625 13.453125 
Q 46.046875 20.015625 46.78125 33.40625 
Q 43.953125 29.203125 39.59375 26.953125 
Q 35.25 24.703125 29.984375 24.703125 
Q 19.046875 24.703125 12.671875 31.3125 
Q 6.296875 37.9375 6.296875 49.421875 
Q 6.296875 60.640625 12.9375 67.421875 
Q 19.578125 74.21875 30.609375 74.21875 
Q 43.265625 74.21875 49.921875 64.515625 
Q 56.59375 54.828125 56.59375 36.375 
Q 56.59375 19.140625 48.40625 8.859375 
Q 40.234375 -1.421875 26.421875 -1.421875 
Q 22.703125 -1.421875 18.890625 -0.6875 
Q 15.09375 0.046875 10.984375 1.515625 
z
M 30.609375 32.421875 
Q 37.25 32.421875 41.125 36.953125 
Q 45.015625 41.5 45.015625 49.421875 
Q 45.015625 57.28125 41.125 61.84375 
Q 37.25 66.40625 30.609375 66.40625 
Q 23.96875 66.40625 20.09375 61.84375 
Q 16.21875 57.28125 16.21875 49.421875 
Q 16.21875 41.5 20.09375 36.953125 
Q 23.96875 32.421875 30.609375 32.421875 
z
" id="DejaVuSans-57"/>
     </defs>
     <use xlink:href="#DejaVuSans-49"/>
     <use x="63.623047" xlink:href="#DejaVuSans-56"/>
     <use x="127.246094" xlink:href="#DejaVuSans-32"/>
     <use x="159.033203" xlink:href="#DejaVuSans-76"/>
     <use x="214.746094" xlink:href="#DejaVuSans-105"/>
     <use x="242.529297" xlink:href="#DejaVuSans-110"/>
     <use x="305.908203" xlink:href="#DejaVuSans-101"/>
     <use x="367.431641" xlink:href="#DejaVuSans-97"/>
     <use x="428.710938" xlink:href="#DejaVuSans-114"/>
     <use x="469.824219" xlink:href="#DejaVuSans-32"/>
     <use x="501.611328" xlink:href="#DejaVuSans-83"/>
     <use x="565.087891" xlink:href="#DejaVuSans-108"/>
     <use x="592.871094" xlink:href="#DejaVuSans-111"/>
     <use x="654.052734" xlink:href="#DejaVuSans-112"/>
     <use x="717.529297" xlink:href="#DejaVuSans-101"/>
     <use x="779.052734" xlink:href="#DejaVuSans-44"/>
     <use x="810.839844" xlink:href="#DejaVuSans-32"/>
     <use x="842.626953" xlink:href="#DejaVuSans-109"/>
     <use x="940.039062" xlink:href="#DejaVuSans-61"/>
     <use x="1023.828125" xlink:href="#DejaVuSans-57"/>
     <use x="1087.451172" xlink:href="#DejaVuSans-43"/>
     <use x="1171.240234" xlink:href="#DejaVuSans-105"/>
     <use x="1199.023438" xlink:href="#DejaVuSans-110"/>
     <use x="1262.402344" xlink:href="#DejaVuSans-116"/>
     <use x="1301.611328" xlink:href="#DejaVuSans-40"/>
     <use x="1340.625" xlink:href="#DejaVuSans-57"/>
     <use x="1404.248047" xlink:href="#DejaVuSans-110"/>
     <use x="1467.626953" xlink:href="#DejaVuSans-47"/>
     <use x="1501.318359" xlink:href="#DejaVuSans-50"/>
     <use x="1564.941406" xlink:href="#DejaVuSans-41"/>
    </g>
   </g>
  </g>
 </g>
 <defs>
  <clipPath id="p38b9011e38">
   <rect height="271.296" width="303.2064" x="57.6" y="27.648"/>
  </clipPath>
 </defs>
</svg>
