<?xml version="1.0" encoding="utf-8" standalone="no"?>
<!DOCTYPE svg PUBLIC "-//W3C//DTD SVG 1.1//EN"
  "http://www.w3.org/Graphics/SVG/1.1/DTD/svg11.dtd">
<!-- Created with matplotlib (https://matplotlib.org/) -->
<svg height="345.6pt" version="1.1" viewBox="0 0 460.8 345.6" width="460.8pt" xmlns="http://www.w3.org/2000/svg" xmlns:xlink="http://www.w3.org/1999/xlink">
 <metadata>
  <rdf:RDF xmlns:cc="http://creativecommons.org/ns#" xmlns:dc="http://purl.org/dc/elements/1.1/" xmlns:rdf="http://www.w3.org/1999/02/22-rdf-syntax-ns#">
   <cc:Work>
    <dc:type rdf:resource="http://purl.org/dc/dcmitype/StillImage"/>
    <dc:date>2022-02-09T09:59:42.073585</dc:date>
    <dc:format>image/svg+xml</dc:format>
    <dc:creator>
     <cc:Agent>
      <dc:title>Matplotlib v3.3.3, https://matplotlib.org/</dc:title>
     </cc:Agent>
    </dc:creator>
   </cc:Work>
  </rdf:RDF>
 </metadata>
 <defs>
  <style type="text/css">*{stroke-linecap:butt;stroke-linejoin:round;}</style>
 </defs>
 <g id="figure_1">
  <g id="patch_1">
   <path d="M 0 345.6 
L 460.8 345.6 
L 460.8 0 
L 0 0 
z
" style="fill:#ffffff;"/>
  </g>
  <g id="axes_1">
   <g id="patch_2">
    <path d="M 57.6 298.944 
L 360.8064 298.944 
L 360.8064 6.912 
L 57.6 6.912 
z
" style="fill:#ffffff;"/>
   </g>
   <g id="matplotlib.axis_1">
    <g id="xtick_1">
     <g id="line2d_1">
      <path clip-path="url(#p670fdcbb79)" d="M 57.6 298.944 
L 57.6 6.912 
" style="fill:none;stroke:#b0b0b0;stroke-linecap:square;stroke-width:0.8;"/>
     </g>
     <g id="line2d_2">
      <defs>
       <path d="M 0 0 
L 0 3.5 
" id="m915b899659" style="stroke:#000000;stroke-width:0.8;"/>
      </defs>
      <g>
       <use style="stroke:#000000;stroke-width:0.8;" x="57.6" xlink:href="#m915b899659" y="298.944"/>
      </g>
     </g>
     <g id="text_1">
      <!-- 0 -->
      <g transform="translate(52.191875 318.861344)scale(0.17 -0.17)">
       <defs>
        <path d="M 31.78125 66.40625 
Q 24.171875 66.40625 20.328125 58.90625 
Q 16.5 51.421875 16.5 36.375 
Q 16.5 21.390625 20.328125 13.890625 
Q 24.171875 6.390625 31.78125 6.390625 
Q 39.453125 6.390625 43.28125 13.890625 
Q 47.125 21.390625 47.125 36.375 
Q 47.125 51.421875 43.28125 58.90625 
Q 39.453125 66.40625 31.78125 66.40625 
z
M 31.78125 74.21875 
Q 44.046875 74.21875 50.515625 64.515625 
Q 56.984375 54.828125 56.984375 36.375 
Q 56.984375 17.96875 50.515625 8.265625 
Q 44.046875 -1.421875 31.78125 -1.421875 
Q 19.53125 -1.421875 13.0625 8.265625 
Q 6.59375 17.96875 6.59375 36.375 
Q 6.59375 54.828125 13.0625 64.515625 
Q 19.53125 74.21875 31.78125 74.21875 
z
" id="DejaVuSans-48"/>
       </defs>
       <use xlink:href="#DejaVuSans-48"/>
      </g>
     </g>
    </g>
    <g id="xtick_2">
     <g id="line2d_3">
      <path clip-path="url(#p670fdcbb79)" d="M 144.2304 298.944 
L 144.2304 6.912 
" style="fill:none;stroke:#b0b0b0;stroke-linecap:square;stroke-width:0.8;"/>
     </g>
     <g id="line2d_4">
      <g>
       <use style="stroke:#000000;stroke-width:0.8;" x="144.2304" xlink:href="#m915b899659" y="298.944"/>
      </g>
     </g>
     <g id="text_2">
      <!-- 2 -->
      <g transform="translate(138.822275 318.861344)scale(0.17 -0.17)">
       <defs>
        <path d="M 19.1875 8.296875 
L 53.609375 8.296875 
L 53.609375 0 
L 7.328125 0 
L 7.328125 8.296875 
Q 12.9375 14.109375 22.625 23.890625 
Q 32.328125 33.6875 34.8125 36.53125 
Q 39.546875 41.84375 41.421875 45.53125 
Q 43.3125 49.21875 43.3125 52.78125 
Q 43.3125 58.59375 39.234375 62.25 
Q 35.15625 65.921875 28.609375 65.921875 
Q 23.96875 65.921875 18.8125 64.3125 
Q 13.671875 62.703125 7.8125 59.421875 
L 7.8125 69.390625 
Q 13.765625 71.78125 18.9375 73 
Q 24.125 74.21875 28.421875 74.21875 
Q 39.75 74.21875 46.484375 68.546875 
Q 53.21875 62.890625 53.21875 53.421875 
Q 53.21875 48.921875 51.53125 44.890625 
Q 49.859375 40.875 45.40625 35.40625 
Q 44.1875 33.984375 37.640625 27.21875 
Q 31.109375 20.453125 19.1875 8.296875 
z
" id="DejaVuSans-50"/>
       </defs>
       <use xlink:href="#DejaVuSans-50"/>
      </g>
     </g>
    </g>
    <g id="xtick_3">
     <g id="line2d_5">
      <path clip-path="url(#p670fdcbb79)" d="M 230.8608 298.944 
L 230.8608 6.912 
" style="fill:none;stroke:#b0b0b0;stroke-linecap:square;stroke-width:0.8;"/>
     </g>
     <g id="line2d_6">
      <g>
       <use style="stroke:#000000;stroke-width:0.8;" x="230.8608" xlink:href="#m915b899659" y="298.944"/>
      </g>
     </g>
     <g id="text_3">
      <!-- 4 -->
      <g transform="translate(225.452675 318.861344)scale(0.17 -0.17)">
       <defs>
        <path d="M 37.796875 64.3125 
L 12.890625 25.390625 
L 37.796875 25.390625 
z
M 35.203125 72.90625 
L 47.609375 72.90625 
L 47.609375 25.390625 
L 58.015625 25.390625 
L 58.015625 17.1875 
L 47.609375 17.1875 
L 47.609375 0 
L 37.796875 0 
L 37.796875 17.1875 
L 4.890625 17.1875 
L 4.890625 26.703125 
z
" id="DejaVuSans-52"/>
       </defs>
       <use xlink:href="#DejaVuSans-52"/>
      </g>
     </g>
    </g>
    <g id="xtick_4">
     <g id="line2d_7">
      <path clip-path="url(#p670fdcbb79)" d="M 317.4912 298.944 
L 317.4912 6.912 
" style="fill:none;stroke:#b0b0b0;stroke-linecap:square;stroke-width:0.8;"/>
     </g>
     <g id="line2d_8">
      <g>
       <use style="stroke:#000000;stroke-width:0.8;" x="317.4912" xlink:href="#m915b899659" y="298.944"/>
      </g>
     </g>
     <g id="text_4">
      <!-- 6 -->
      <g transform="translate(312.083075 318.861344)scale(0.17 -0.17)">
       <defs>
        <path d="M 33.015625 40.375 
Q 26.375 40.375 22.484375 35.828125 
Q 18.609375 31.296875 18.609375 23.390625 
Q 18.609375 15.53125 22.484375 10.953125 
Q 26.375 6.390625 33.015625 6.390625 
Q 39.65625 6.390625 43.53125 10.953125 
Q 47.40625 15.53125 47.40625 23.390625 
Q 47.40625 31.296875 43.53125 35.828125 
Q 39.65625 40.375 33.015625 40.375 
z
M 52.59375 71.296875 
L 52.59375 62.3125 
Q 48.875 64.0625 45.09375 64.984375 
Q 41.3125 65.921875 37.59375 65.921875 
Q 27.828125 65.921875 22.671875 59.328125 
Q 17.53125 52.734375 16.796875 39.40625 
Q 19.671875 43.65625 24.015625 45.921875 
Q 28.375 48.1875 33.59375 48.1875 
Q 44.578125 48.1875 50.953125 41.515625 
Q 57.328125 34.859375 57.328125 23.390625 
Q 57.328125 12.15625 50.6875 5.359375 
Q 44.046875 -1.421875 33.015625 -1.421875 
Q 20.359375 -1.421875 13.671875 8.265625 
Q 6.984375 17.96875 6.984375 36.375 
Q 6.984375 53.65625 15.1875 63.9375 
Q 23.390625 74.21875 37.203125 74.21875 
Q 40.921875 74.21875 44.703125 73.484375 
Q 48.484375 72.75 52.59375 71.296875 
z
" id="DejaVuSans-54"/>
       </defs>
       <use xlink:href="#DejaVuSans-54"/>
      </g>
     </g>
    </g>
    <g id="xtick_5">
     <g id="line2d_9">
      <path clip-path="url(#p670fdcbb79)" d="M 100.9152 298.944 
L 100.9152 6.912 
" style="fill:none;stroke:#b0b0b0;stroke-linecap:square;stroke-width:0.8;"/>
     </g>
     <g id="line2d_10">
      <defs>
       <path d="M 0 0 
L 0 2 
" id="m7a1aaa62b0" style="stroke:#000000;stroke-width:0.6;"/>
      </defs>
      <g>
       <use style="stroke:#000000;stroke-width:0.6;" x="100.9152" xlink:href="#m7a1aaa62b0" y="298.944"/>
      </g>
     </g>
    </g>
    <g id="xtick_6">
     <g id="line2d_11">
      <path clip-path="url(#p670fdcbb79)" d="M 187.5456 298.944 
L 187.5456 6.912 
" style="fill:none;stroke:#b0b0b0;stroke-linecap:square;stroke-width:0.8;"/>
     </g>
     <g id="line2d_12">
      <g>
       <use style="stroke:#000000;stroke-width:0.6;" x="187.5456" xlink:href="#m7a1aaa62b0" y="298.944"/>
      </g>
     </g>
    </g>
    <g id="xtick_7">
     <g id="line2d_13">
      <path clip-path="url(#p670fdcbb79)" d="M 274.176 298.944 
L 274.176 6.912 
" style="fill:none;stroke:#b0b0b0;stroke-linecap:square;stroke-width:0.8;"/>
     </g>
     <g id="line2d_14">
      <g>
       <use style="stroke:#000000;stroke-width:0.6;" x="274.176" xlink:href="#m7a1aaa62b0" y="298.944"/>
      </g>
     </g>
    </g>
    <g id="xtick_8">
     <g id="line2d_15">
      <path clip-path="url(#p670fdcbb79)" d="M 360.8064 298.944 
L 360.8064 6.912 
" style="fill:none;stroke:#b0b0b0;stroke-linecap:square;stroke-width:0.8;"/>
     </g>
     <g id="line2d_16">
      <g>
       <use style="stroke:#000000;stroke-width:0.6;" x="360.8064" xlink:href="#m7a1aaa62b0" y="298.944"/>
      </g>
     </g>
    </g>
    <g id="text_5">
     <!-- log10(evals / dimension) -->
     <g transform="translate(104.238825 339.314156)scale(0.17 -0.17)">
      <defs>
       <path d="M 9.421875 75.984375 
L 18.40625 75.984375 
L 18.40625 0 
L 9.421875 0 
z
" id="DejaVuSans-108"/>
       <path d="M 30.609375 48.390625 
Q 23.390625 48.390625 19.1875 42.75 
Q 14.984375 37.109375 14.984375 27.296875 
Q 14.984375 17.484375 19.15625 11.84375 
Q 23.34375 6.203125 30.609375 6.203125 
Q 37.796875 6.203125 41.984375 11.859375 
Q 46.1875 17.53125 46.1875 27.296875 
Q 46.1875 37.015625 41.984375 42.703125 
Q 37.796875 48.390625 30.609375 48.390625 
z
M 30.609375 56 
Q 42.328125 56 49.015625 48.375 
Q 55.71875 40.765625 55.71875 27.296875 
Q 55.71875 13.875 49.015625 6.21875 
Q 42.328125 -1.421875 30.609375 -1.421875 
Q 18.84375 -1.421875 12.171875 6.21875 
Q 5.515625 13.875 5.515625 27.296875 
Q 5.515625 40.765625 12.171875 48.375 
Q 18.84375 56 30.609375 56 
z
" id="DejaVuSans-111"/>
       <path d="M 45.40625 27.984375 
Q 45.40625 37.75 41.375 43.109375 
Q 37.359375 48.484375 30.078125 48.484375 
Q 22.859375 48.484375 18.828125 43.109375 
Q 14.796875 37.75 14.796875 27.984375 
Q 14.796875 18.265625 18.828125 12.890625 
Q 22.859375 7.515625 30.078125 7.515625 
Q 37.359375 7.515625 41.375 12.890625 
Q 45.40625 18.265625 45.40625 27.984375 
z
M 54.390625 6.78125 
Q 54.390625 -7.171875 48.1875 -13.984375 
Q 42 -20.796875 29.203125 -20.796875 
Q 24.46875 -20.796875 20.265625 -20.09375 
Q 16.0625 -19.390625 12.109375 -17.921875 
L 12.109375 -9.1875 
Q 16.0625 -11.328125 19.921875 -12.34375 
Q 23.78125 -13.375 27.78125 -13.375 
Q 36.625 -13.375 41.015625 -8.765625 
Q 45.40625 -4.15625 45.40625 5.171875 
L 45.40625 9.625 
Q 42.625 4.78125 38.28125 2.390625 
Q 33.9375 0 27.875 0 
Q 17.828125 0 11.671875 7.65625 
Q 5.515625 15.328125 5.515625 27.984375 
Q 5.515625 40.671875 11.671875 48.328125 
Q 17.828125 56 27.875 56 
Q 33.9375 56 38.28125 53.609375 
Q 42.625 51.21875 45.40625 46.390625 
L 45.40625 54.6875 
L 54.390625 54.6875 
z
" id="DejaVuSans-103"/>
       <path d="M 12.40625 8.296875 
L 28.515625 8.296875 
L 28.515625 63.921875 
L 10.984375 60.40625 
L 10.984375 69.390625 
L 28.421875 72.90625 
L 38.28125 72.90625 
L 38.28125 8.296875 
L 54.390625 8.296875 
L 54.390625 0 
L 12.40625 0 
z
" id="DejaVuSans-49"/>
       <path d="M 31 75.875 
Q 24.46875 64.65625 21.28125 53.65625 
Q 18.109375 42.671875 18.109375 31.390625 
Q 18.109375 20.125 21.3125 9.0625 
Q 24.515625 -2 31 -13.1875 
L 23.1875 -13.1875 
Q 15.875 -1.703125 12.234375 9.375 
Q 8.59375 20.453125 8.59375 31.390625 
Q 8.59375 42.28125 12.203125 53.3125 
Q 15.828125 64.359375 23.1875 75.875 
z
" id="DejaVuSans-40"/>
       <path d="M 56.203125 29.59375 
L 56.203125 25.203125 
L 14.890625 25.203125 
Q 15.484375 15.921875 20.484375 11.0625 
Q 25.484375 6.203125 34.421875 6.203125 
Q 39.59375 6.203125 44.453125 7.46875 
Q 49.3125 8.734375 54.109375 11.28125 
L 54.109375 2.78125 
Q 49.265625 0.734375 44.1875 -0.34375 
Q 39.109375 -1.421875 33.890625 -1.421875 
Q 20.796875 -1.421875 13.15625 6.1875 
Q 5.515625 13.8125 5.515625 26.8125 
Q 5.515625 40.234375 12.765625 48.109375 
Q 20.015625 56 32.328125 56 
Q 43.359375 56 49.78125 48.890625 
Q 56.203125 41.796875 56.203125 29.59375 
z
M 47.21875 32.234375 
Q 47.125 39.59375 43.09375 43.984375 
Q 39.0625 48.390625 32.421875 48.390625 
Q 24.90625 48.390625 20.390625 44.140625 
Q 15.875 39.890625 15.1875 32.171875 
z
" id="DejaVuSans-101"/>
       <path d="M 2.984375 54.6875 
L 12.5 54.6875 
L 29.59375 8.796875 
L 46.6875 54.6875 
L 56.203125 54.6875 
L 35.6875 0 
L 23.484375 0 
z
" id="DejaVuSans-118"/>
       <path d="M 34.28125 27.484375 
Q 23.390625 27.484375 19.1875 25 
Q 14.984375 22.515625 14.984375 16.5 
Q 14.984375 11.71875 18.140625 8.90625 
Q 21.296875 6.109375 26.703125 6.109375 
Q 34.1875 6.109375 38.703125 11.40625 
Q 43.21875 16.703125 43.21875 25.484375 
L 43.21875 27.484375 
z
M 52.203125 31.203125 
L 52.203125 0 
L 43.21875 0 
L 43.21875 8.296875 
Q 40.140625 3.328125 35.546875 0.953125 
Q 30.953125 -1.421875 24.3125 -1.421875 
Q 15.921875 -1.421875 10.953125 3.296875 
Q 6 8.015625 6 15.921875 
Q 6 25.140625 12.171875 29.828125 
Q 18.359375 34.515625 30.609375 34.515625 
L 43.21875 34.515625 
L 43.21875 35.40625 
Q 43.21875 41.609375 39.140625 45 
Q 35.0625 48.390625 27.6875 48.390625 
Q 23 48.390625 18.546875 47.265625 
Q 14.109375 46.140625 10.015625 43.890625 
L 10.015625 52.203125 
Q 14.9375 54.109375 19.578125 55.046875 
Q 24.21875 56 28.609375 56 
Q 40.484375 56 46.34375 49.84375 
Q 52.203125 43.703125 52.203125 31.203125 
z
" id="DejaVuSans-97"/>
       <path d="M 44.28125 53.078125 
L 44.28125 44.578125 
Q 40.484375 46.53125 36.375 47.5 
Q 32.28125 48.484375 27.875 48.484375 
Q 21.1875 48.484375 17.84375 46.4375 
Q 14.5 44.390625 14.5 40.28125 
Q 14.5 37.15625 16.890625 35.375 
Q 19.28125 33.59375 26.515625 31.984375 
L 29.59375 31.296875 
Q 39.15625 29.25 43.1875 25.515625 
Q 47.21875 21.78125 47.21875 15.09375 
Q 47.21875 7.46875 41.1875 3.015625 
Q 35.15625 -1.421875 24.609375 -1.421875 
Q 20.21875 -1.421875 15.453125 -0.5625 
Q 10.6875 0.296875 5.421875 2 
L 5.421875 11.28125 
Q 10.40625 8.6875 15.234375 7.390625 
Q 20.0625 6.109375 24.8125 6.109375 
Q 31.15625 6.109375 34.5625 8.28125 
Q 37.984375 10.453125 37.984375 14.40625 
Q 37.984375 18.0625 35.515625 20.015625 
Q 33.0625 21.96875 24.703125 23.78125 
L 21.578125 24.515625 
Q 13.234375 26.265625 9.515625 29.90625 
Q 5.8125 33.546875 5.8125 39.890625 
Q 5.8125 47.609375 11.28125 51.796875 
Q 16.75 56 26.8125 56 
Q 31.78125 56 36.171875 55.265625 
Q 40.578125 54.546875 44.28125 53.078125 
z
" id="DejaVuSans-115"/>
       <path id="DejaVuSans-32"/>
       <path d="M 25.390625 72.90625 
L 33.6875 72.90625 
L 8.296875 -9.28125 
L 0 -9.28125 
z
" id="DejaVuSans-47"/>
       <path d="M 45.40625 46.390625 
L 45.40625 75.984375 
L 54.390625 75.984375 
L 54.390625 0 
L 45.40625 0 
L 45.40625 8.203125 
Q 42.578125 3.328125 38.25 0.953125 
Q 33.9375 -1.421875 27.875 -1.421875 
Q 17.96875 -1.421875 11.734375 6.484375 
Q 5.515625 14.40625 5.515625 27.296875 
Q 5.515625 40.1875 11.734375 48.09375 
Q 17.96875 56 27.875 56 
Q 33.9375 56 38.25 53.625 
Q 42.578125 51.265625 45.40625 46.390625 
z
M 14.796875 27.296875 
Q 14.796875 17.390625 18.875 11.75 
Q 22.953125 6.109375 30.078125 6.109375 
Q 37.203125 6.109375 41.296875 11.75 
Q 45.40625 17.390625 45.40625 27.296875 
Q 45.40625 37.203125 41.296875 42.84375 
Q 37.203125 48.484375 30.078125 48.484375 
Q 22.953125 48.484375 18.875 42.84375 
Q 14.796875 37.203125 14.796875 27.296875 
z
" id="DejaVuSans-100"/>
       <path d="M 9.421875 54.6875 
L 18.40625 54.6875 
L 18.40625 0 
L 9.421875 0 
z
M 9.421875 75.984375 
L 18.40625 75.984375 
L 18.40625 64.59375 
L 9.421875 64.59375 
z
" id="DejaVuSans-105"/>
       <path d="M 52 44.1875 
Q 55.375 50.25 60.0625 53.125 
Q 64.75 56 71.09375 56 
Q 79.640625 56 84.28125 50.015625 
Q 88.921875 44.046875 88.921875 33.015625 
L 88.921875 0 
L 79.890625 0 
L 79.890625 32.71875 
Q 79.890625 40.578125 77.09375 44.375 
Q 74.3125 48.1875 68.609375 48.1875 
Q 61.625 48.1875 57.5625 43.546875 
Q 53.515625 38.921875 53.515625 30.90625 
L 53.515625 0 
L 44.484375 0 
L 44.484375 32.71875 
Q 44.484375 40.625 41.703125 44.40625 
Q 38.921875 48.1875 33.109375 48.1875 
Q 26.21875 48.1875 22.15625 43.53125 
Q 18.109375 38.875 18.109375 30.90625 
L 18.109375 0 
L 9.078125 0 
L 9.078125 54.6875 
L 18.109375 54.6875 
L 18.109375 46.1875 
Q 21.1875 51.21875 25.484375 53.609375 
Q 29.78125 56 35.6875 56 
Q 41.65625 56 45.828125 52.96875 
Q 50 49.953125 52 44.1875 
z
" id="DejaVuSans-109"/>
       <path d="M 54.890625 33.015625 
L 54.890625 0 
L 45.90625 0 
L 45.90625 32.71875 
Q 45.90625 40.484375 42.875 44.328125 
Q 39.84375 48.1875 33.796875 48.1875 
Q 26.515625 48.1875 22.3125 43.546875 
Q 18.109375 38.921875 18.109375 30.90625 
L 18.109375 0 
L 9.078125 0 
L 9.078125 54.6875 
L 18.109375 54.6875 
L 18.109375 46.1875 
Q 21.34375 51.125 25.703125 53.5625 
Q 30.078125 56 35.796875 56 
Q 45.21875 56 50.046875 50.171875 
Q 54.890625 44.34375 54.890625 33.015625 
z
" id="DejaVuSans-110"/>
       <path d="M 8.015625 75.875 
L 15.828125 75.875 
Q 23.140625 64.359375 26.78125 53.3125 
Q 30.421875 42.28125 30.421875 31.390625 
Q 30.421875 20.453125 26.78125 9.375 
Q 23.140625 -1.703125 15.828125 -13.1875 
L 8.015625 -13.1875 
Q 14.5 -2 17.703125 9.0625 
Q 20.90625 20.125 20.90625 31.390625 
Q 20.90625 42.671875 17.703125 53.65625 
Q 14.5 64.65625 8.015625 75.875 
z
" id="DejaVuSans-41"/>
      </defs>
      <use xlink:href="#DejaVuSans-108"/>
      <use x="27.783203" xlink:href="#DejaVuSans-111"/>
      <use x="88.964844" xlink:href="#DejaVuSans-103"/>
      <use x="152.441406" xlink:href="#DejaVuSans-49"/>
      <use x="216.064453" xlink:href="#DejaVuSans-48"/>
      <use x="279.6875" xlink:href="#DejaVuSans-40"/>
      <use x="318.701172" xlink:href="#DejaVuSans-101"/>
      <use x="380.224609" xlink:href="#DejaVuSans-118"/>
      <use x="439.404297" xlink:href="#DejaVuSans-97"/>
      <use x="500.683594" xlink:href="#DejaVuSans-108"/>
      <use x="528.466797" xlink:href="#DejaVuSans-115"/>
      <use x="580.566406" xlink:href="#DejaVuSans-32"/>
      <use x="612.353516" xlink:href="#DejaVuSans-47"/>
      <use x="646.044922" xlink:href="#DejaVuSans-32"/>
      <use x="677.832031" xlink:href="#DejaVuSans-100"/>
      <use x="741.308594" xlink:href="#DejaVuSans-105"/>
      <use x="769.091797" xlink:href="#DejaVuSans-109"/>
      <use x="866.503906" xlink:href="#DejaVuSans-101"/>
      <use x="928.027344" xlink:href="#DejaVuSans-110"/>
      <use x="991.40625" xlink:href="#DejaVuSans-115"/>
      <use x="1043.505859" xlink:href="#DejaVuSans-105"/>
      <use x="1071.289062" xlink:href="#DejaVuSans-111"/>
      <use x="1132.470703" xlink:href="#DejaVuSans-110"/>
      <use x="1195.849609" xlink:href="#DejaVuSans-41"/>
     </g>
    </g>
   </g>
   <g id="matplotlib.axis_2">
    <g id="ytick_1">
     <g id="line2d_17">
      <path clip-path="url(#p670fdcbb79)" d="M 57.6 298.944 
L 360.8064 298.944 
" style="fill:none;stroke:#b0b0b0;stroke-linecap:square;stroke-width:0.8;"/>
     </g>
     <g id="line2d_18">
      <defs>
       <path d="M 0 0 
L -3.5 0 
" id="m15dcf0454b" style="stroke:#000000;stroke-width:0.8;"/>
      </defs>
      <g>
       <use style="stroke:#000000;stroke-width:0.8;" x="57.6" xlink:href="#m15dcf0454b" y="298.944"/>
      </g>
     </g>
     <g id="text_6">
      <!-- 0.0 -->
      <g transform="translate(25.155 305.02275)scale(0.16 -0.16)">
       <defs>
        <path d="M 10.6875 12.40625 
L 21 12.40625 
L 21 0 
L 10.6875 0 
z
" id="DejaVuSans-46"/>
       </defs>
       <use xlink:href="#DejaVuSans-48"/>
       <use x="63.623047" xlink:href="#DejaVuSans-46"/>
       <use x="95.410156" xlink:href="#DejaVuSans-48"/>
      </g>
     </g>
    </g>
    <g id="ytick_2">
     <g id="line2d_19">
      <path clip-path="url(#p670fdcbb79)" d="M 57.6 240.5376 
L 360.8064 240.5376 
" style="fill:none;stroke:#b0b0b0;stroke-linecap:square;stroke-width:0.8;"/>
     </g>
     <g id="line2d_20">
      <g>
       <use style="stroke:#000000;stroke-width:0.8;" x="57.6" xlink:href="#m15dcf0454b" y="240.5376"/>
      </g>
     </g>
     <g id="text_7">
      <!-- 0.2 -->
      <g transform="translate(25.155 246.61635)scale(0.16 -0.16)">
       <use xlink:href="#DejaVuSans-48"/>
       <use x="63.623047" xlink:href="#DejaVuSans-46"/>
       <use x="95.410156" xlink:href="#DejaVuSans-50"/>
      </g>
     </g>
    </g>
    <g id="ytick_3">
     <g id="line2d_21">
      <path clip-path="url(#p670fdcbb79)" d="M 57.6 182.1312 
L 360.8064 182.1312 
" style="fill:none;stroke:#b0b0b0;stroke-linecap:square;stroke-width:0.8;"/>
     </g>
     <g id="line2d_22">
      <g>
       <use style="stroke:#000000;stroke-width:0.8;" x="57.6" xlink:href="#m15dcf0454b" y="182.1312"/>
      </g>
     </g>
     <g id="text_8">
      <!-- 0.4 -->
      <g transform="translate(25.155 188.20995)scale(0.16 -0.16)">
       <use xlink:href="#DejaVuSans-48"/>
       <use x="63.623047" xlink:href="#DejaVuSans-46"/>
       <use x="95.410156" xlink:href="#DejaVuSans-52"/>
      </g>
     </g>
    </g>
    <g id="ytick_4">
     <g id="line2d_23">
      <path clip-path="url(#p670fdcbb79)" d="M 57.6 123.7248 
L 360.8064 123.7248 
" style="fill:none;stroke:#b0b0b0;stroke-linecap:square;stroke-width:0.8;"/>
     </g>
     <g id="line2d_24">
      <g>
       <use style="stroke:#000000;stroke-width:0.8;" x="57.6" xlink:href="#m15dcf0454b" y="123.7248"/>
      </g>
     </g>
     <g id="text_9">
      <!-- 0.6 -->
      <g transform="translate(25.155 129.80355)scale(0.16 -0.16)">
       <use xlink:href="#DejaVuSans-48"/>
       <use x="63.623047" xlink:href="#DejaVuSans-46"/>
       <use x="95.410156" xlink:href="#DejaVuSans-54"/>
      </g>
     </g>
    </g>
    <g id="ytick_5">
     <g id="line2d_25">
      <path clip-path="url(#p670fdcbb79)" d="M 57.6 65.3184 
L 360.8064 65.3184 
" style="fill:none;stroke:#b0b0b0;stroke-linecap:square;stroke-width:0.8;"/>
     </g>
     <g id="line2d_26">
      <g>
       <use style="stroke:#000000;stroke-width:0.8;" x="57.6" xlink:href="#m15dcf0454b" y="65.3184"/>
      </g>
     </g>
     <g id="text_10">
      <!-- 0.8 -->
      <g transform="translate(25.155 71.39715)scale(0.16 -0.16)">
       <defs>
        <path d="M 31.78125 34.625 
Q 24.75 34.625 20.71875 30.859375 
Q 16.703125 27.09375 16.703125 20.515625 
Q 16.703125 13.921875 20.71875 10.15625 
Q 24.75 6.390625 31.78125 6.390625 
Q 38.8125 6.390625 42.859375 10.171875 
Q 46.921875 13.96875 46.921875 20.515625 
Q 46.921875 27.09375 42.890625 30.859375 
Q 38.875 34.625 31.78125 34.625 
z
M 21.921875 38.8125 
Q 15.578125 40.375 12.03125 44.71875 
Q 8.5 49.078125 8.5 55.328125 
Q 8.5 64.0625 14.71875 69.140625 
Q 20.953125 74.21875 31.78125 74.21875 
Q 42.671875 74.21875 48.875 69.140625 
Q 55.078125 64.0625 55.078125 55.328125 
Q 55.078125 49.078125 51.53125 44.71875 
Q 48 40.375 41.703125 38.8125 
Q 48.828125 37.15625 52.796875 32.3125 
Q 56.78125 27.484375 56.78125 20.515625 
Q 56.78125 9.90625 50.3125 4.234375 
Q 43.84375 -1.421875 31.78125 -1.421875 
Q 19.734375 -1.421875 13.25 4.234375 
Q 6.78125 9.90625 6.78125 20.515625 
Q 6.78125 27.484375 10.78125 32.3125 
Q 14.796875 37.15625 21.921875 38.8125 
z
M 18.3125 54.390625 
Q 18.3125 48.734375 21.84375 45.5625 
Q 25.390625 42.390625 31.78125 42.390625 
Q 38.140625 42.390625 41.71875 45.5625 
Q 45.3125 48.734375 45.3125 54.390625 
Q 45.3125 60.0625 41.71875 63.234375 
Q 38.140625 66.40625 31.78125 66.40625 
Q 25.390625 66.40625 21.84375 63.234375 
Q 18.3125 60.0625 18.3125 54.390625 
z
" id="DejaVuSans-56"/>
       </defs>
       <use xlink:href="#DejaVuSans-48"/>
       <use x="63.623047" xlink:href="#DejaVuSans-46"/>
       <use x="95.410156" xlink:href="#DejaVuSans-56"/>
      </g>
     </g>
    </g>
    <g id="ytick_6">
     <g id="line2d_27">
      <path clip-path="url(#p670fdcbb79)" d="M 57.6 6.912 
L 360.8064 6.912 
" style="fill:none;stroke:#b0b0b0;stroke-linecap:square;stroke-width:0.8;"/>
     </g>
     <g id="line2d_28">
      <g>
       <use style="stroke:#000000;stroke-width:0.8;" x="57.6" xlink:href="#m15dcf0454b" y="6.912"/>
      </g>
     </g>
     <g id="text_11">
      <!-- 1.0 -->
      <g transform="translate(25.155 12.99075)scale(0.16 -0.16)">
       <use xlink:href="#DejaVuSans-49"/>
       <use x="63.623047" xlink:href="#DejaVuSans-46"/>
       <use x="95.410156" xlink:href="#DejaVuSans-48"/>
      </g>
     </g>
    </g>
    <g id="text_12">
     <!-- Fraction of function,target pairs -->
     <g transform="translate(17.619531 287.313)rotate(-90)scale(0.17 -0.17)">
      <defs>
       <path d="M 9.8125 72.90625 
L 51.703125 72.90625 
L 51.703125 64.59375 
L 19.671875 64.59375 
L 19.671875 43.109375 
L 48.578125 43.109375 
L 48.578125 34.8125 
L 19.671875 34.8125 
L 19.671875 0 
L 9.8125 0 
z
" id="DejaVuSans-70"/>
       <path d="M 41.109375 46.296875 
Q 39.59375 47.171875 37.8125 47.578125 
Q 36.03125 48 33.890625 48 
Q 26.265625 48 22.1875 43.046875 
Q 18.109375 38.09375 18.109375 28.8125 
L 18.109375 0 
L 9.078125 0 
L 9.078125 54.6875 
L 18.109375 54.6875 
L 18.109375 46.1875 
Q 20.953125 51.171875 25.484375 53.578125 
Q 30.03125 56 36.53125 56 
Q 37.453125 56 38.578125 55.875 
Q 39.703125 55.765625 41.0625 55.515625 
z
" id="DejaVuSans-114"/>
       <path d="M 48.78125 52.59375 
L 48.78125 44.1875 
Q 44.96875 46.296875 41.140625 47.34375 
Q 37.3125 48.390625 33.40625 48.390625 
Q 24.65625 48.390625 19.8125 42.84375 
Q 14.984375 37.3125 14.984375 27.296875 
Q 14.984375 17.28125 19.8125 11.734375 
Q 24.65625 6.203125 33.40625 6.203125 
Q 37.3125 6.203125 41.140625 7.25 
Q 44.96875 8.296875 48.78125 10.40625 
L 48.78125 2.09375 
Q 45.015625 0.34375 40.984375 -0.53125 
Q 36.96875 -1.421875 32.421875 -1.421875 
Q 20.0625 -1.421875 12.78125 6.34375 
Q 5.515625 14.109375 5.515625 27.296875 
Q 5.515625 40.671875 12.859375 48.328125 
Q 20.21875 56 33.015625 56 
Q 37.15625 56 41.109375 55.140625 
Q 45.0625 54.296875 48.78125 52.59375 
z
" id="DejaVuSans-99"/>
       <path d="M 18.3125 70.21875 
L 18.3125 54.6875 
L 36.8125 54.6875 
L 36.8125 47.703125 
L 18.3125 47.703125 
L 18.3125 18.015625 
Q 18.3125 11.328125 20.140625 9.421875 
Q 21.96875 7.515625 27.59375 7.515625 
L 36.8125 7.515625 
L 36.8125 0 
L 27.59375 0 
Q 17.1875 0 13.234375 3.875 
Q 9.28125 7.765625 9.28125 18.015625 
L 9.28125 47.703125 
L 2.6875 47.703125 
L 2.6875 54.6875 
L 9.28125 54.6875 
L 9.28125 70.21875 
z
" id="DejaVuSans-116"/>
       <path d="M 37.109375 75.984375 
L 37.109375 68.5 
L 28.515625 68.5 
Q 23.6875 68.5 21.796875 66.546875 
Q 19.921875 64.59375 19.921875 59.515625 
L 19.921875 54.6875 
L 34.71875 54.6875 
L 34.71875 47.703125 
L 19.921875 47.703125 
L 19.921875 0 
L 10.890625 0 
L 10.890625 47.703125 
L 2.296875 47.703125 
L 2.296875 54.6875 
L 10.890625 54.6875 
L 10.890625 58.5 
Q 10.890625 67.625 15.140625 71.796875 
Q 19.390625 75.984375 28.609375 75.984375 
z
" id="DejaVuSans-102"/>
       <path d="M 8.5 21.578125 
L 8.5 54.6875 
L 17.484375 54.6875 
L 17.484375 21.921875 
Q 17.484375 14.15625 20.5 10.265625 
Q 23.53125 6.390625 29.59375 6.390625 
Q 36.859375 6.390625 41.078125 11.03125 
Q 45.3125 15.671875 45.3125 23.6875 
L 45.3125 54.6875 
L 54.296875 54.6875 
L 54.296875 0 
L 45.3125 0 
L 45.3125 8.40625 
Q 42.046875 3.421875 37.71875 1 
Q 33.40625 -1.421875 27.6875 -1.421875 
Q 18.265625 -1.421875 13.375 4.4375 
Q 8.5 10.296875 8.5 21.578125 
z
M 31.109375 56 
z
" id="DejaVuSans-117"/>
       <path d="M 11.71875 12.40625 
L 22.015625 12.40625 
L 22.015625 4 
L 14.015625 -11.625 
L 7.71875 -11.625 
L 11.71875 4 
z
" id="DejaVuSans-44"/>
       <path d="M 18.109375 8.203125 
L 18.109375 -20.796875 
L 9.078125 -20.796875 
L 9.078125 54.6875 
L 18.109375 54.6875 
L 18.109375 46.390625 
Q 20.953125 51.265625 25.265625 53.625 
Q 29.59375 56 35.59375 56 
Q 45.5625 56 51.78125 48.09375 
Q 58.015625 40.1875 58.015625 27.296875 
Q 58.015625 14.40625 51.78125 6.484375 
Q 45.5625 -1.421875 35.59375 -1.421875 
Q 29.59375 -1.421875 25.265625 0.953125 
Q 20.953125 3.328125 18.109375 8.203125 
z
M 48.6875 27.296875 
Q 48.6875 37.203125 44.609375 42.84375 
Q 40.53125 48.484375 33.40625 48.484375 
Q 26.265625 48.484375 22.1875 42.84375 
Q 18.109375 37.203125 18.109375 27.296875 
Q 18.109375 17.390625 22.1875 11.75 
Q 26.265625 6.109375 33.40625 6.109375 
Q 40.53125 6.109375 44.609375 11.75 
Q 48.6875 17.390625 48.6875 27.296875 
z
" id="DejaVuSans-112"/>
      </defs>
      <use xlink:href="#DejaVuSans-70"/>
      <use x="50.269531" xlink:href="#DejaVuSans-114"/>
      <use x="91.382812" xlink:href="#DejaVuSans-97"/>
      <use x="152.662109" xlink:href="#DejaVuSans-99"/>
      <use x="207.642578" xlink:href="#DejaVuSans-116"/>
      <use x="246.851562" xlink:href="#DejaVuSans-105"/>
      <use x="274.634766" xlink:href="#DejaVuSans-111"/>
      <use x="335.816406" xlink:href="#DejaVuSans-110"/>
      <use x="399.195312" xlink:href="#DejaVuSans-32"/>
      <use x="430.982422" xlink:href="#DejaVuSans-111"/>
      <use x="492.164062" xlink:href="#DejaVuSans-102"/>
      <use x="527.369141" xlink:href="#DejaVuSans-32"/>
      <use x="559.15625" xlink:href="#DejaVuSans-102"/>
      <use x="594.361328" xlink:href="#DejaVuSans-117"/>
      <use x="657.740234" xlink:href="#DejaVuSans-110"/>
      <use x="721.119141" xlink:href="#DejaVuSans-99"/>
      <use x="776.099609" xlink:href="#DejaVuSans-116"/>
      <use x="815.308594" xlink:href="#DejaVuSans-105"/>
      <use x="843.091797" xlink:href="#DejaVuSans-111"/>
      <use x="904.273438" xlink:href="#DejaVuSans-110"/>
      <use x="967.652344" xlink:href="#DejaVuSans-44"/>
      <use x="999.439453" xlink:href="#DejaVuSans-116"/>
      <use x="1038.648438" xlink:href="#DejaVuSans-97"/>
      <use x="1099.927734" xlink:href="#DejaVuSans-114"/>
      <use x="1139.291016" xlink:href="#DejaVuSans-103"/>
      <use x="1202.767578" xlink:href="#DejaVuSans-101"/>
      <use x="1264.291016" xlink:href="#DejaVuSans-116"/>
      <use x="1303.5" xlink:href="#DejaVuSans-32"/>
      <use x="1335.287109" xlink:href="#DejaVuSans-112"/>
      <use x="1398.763672" xlink:href="#DejaVuSans-97"/>
      <use x="1460.042969" xlink:href="#DejaVuSans-105"/>
      <use x="1487.826172" xlink:href="#DejaVuSans-114"/>
      <use x="1528.939453" xlink:href="#DejaVuSans-115"/>
     </g>
    </g>
   </g>
   <g id="line2d_29">
    <defs>
     <path d="M 0 1.5 
C 0.397805 1.5 0.77937 1.341951 1.06066 1.06066 
C 1.341951 0.77937 1.5 0.397805 1.5 0 
C 1.5 -0.397805 1.341951 -0.77937 1.06066 -1.06066 
C 0.77937 -1.341951 0.397805 -1.5 0 -1.5 
C -0.397805 -1.5 -0.77937 -1.341951 -1.06066 -1.06066 
C -1.341951 -0.77937 -1.5 -0.397805 -1.5 0 
C -1.5 0.397805 -1.341951 0.77937 -1.06066 1.06066 
C -0.77937 1.341951 -0.397805 1.5 0 1.5 
z
" id="m71d9f5861c" style="stroke:#000080;"/>
    </defs>
    <g>
     <use style="fill:#000080;stroke:#000080;" x="174.355328" xlink:href="#m71d9f5861c" y="6.912"/>
     <use style="fill:#000080;stroke:#000080;" x="174.355328" xlink:href="#m71d9f5861c" y="6.912"/>
    </g>
   </g>
   <g id="line2d_30">
    <path d="M 36.933397 298.944 
L 36.933397 298.838478 
L 83.678349 298.838478 
L 83.678349 267.920546 
L 86.578163 267.920546 
L 86.578163 257.104546 
L 89.090095 257.104546 
L 89.090095 245.497132 
L 91.305777 245.497132 
L 91.305777 239.218576 
L 93.287772 239.218576 
L 93.287772 228.138771 
L 95.080704 228.138771 
L 95.080704 223.073717 
L 96.717523 223.073717 
L 96.717523 220.277385 
L 98.223251 220.277385 
L 98.223251 211.677346 
L 99.617337 211.677346 
L 99.617337 204.87118 
L 100.9152 204.87118 
L 100.9152 195.532488 
L 102.12927 195.532488 
L 102.12927 190.995044 
L 103.269713 190.995044 
L 103.269713 186.141034 
L 104.344952 186.141034 
L 104.344952 179.229346 
L 105.36204 179.229346 
L 105.36204 175.166751 
L 106.326946 175.166751 
L 106.326946 168.255063 
L 107.244765 168.255063 
L 107.244765 163.453815 
L 108.119879 163.453815 
L 108.119879 157.80839 
L 108.956085 157.80839 
L 108.956085 150.949463 
L 109.756698 150.949463 
L 109.756698 142.454946 
L 110.524623 142.454946 
L 110.524623 137.653698 
L 111.262425 137.653698 
L 111.262425 133.802146 
L 111.97238 133.802146 
L 111.97238 129.317463 
L 112.656511 129.317463 
L 112.656511 124.146888 
L 113.316634 124.146888 
L 113.316634 119.714966 
L 113.954374 119.714966 
L 113.954374 114.755434 
L 114.571202 114.755434 
L 114.571202 110.376273 
L 115.168444 110.376273 
L 115.168444 105.047415 
L 115.747307 105.047415 
L 115.747307 102.831454 
L 116.308887 102.831454 
L 116.308887 99.718556 
L 116.854188 99.718556 
L 116.854188 95.128351 
L 117.384126 95.128351 
L 117.384126 92.754107 
L 117.899543 92.754107 
L 117.899543 89.588449 
L 118.401214 89.588449 
L 118.401214 84.576156 
L 118.889854 84.576156 
L 118.889854 80.98841 
L 119.366121 80.98841 
L 119.366121 78.086556 
L 119.830627 78.086556 
L 119.830627 72.230088 
L 120.28394 72.230088 
L 120.28394 68.695102 
L 120.726585 68.695102 
L 120.726585 65.212878 
L 121.159053 65.212878 
L 121.159053 60.675434 
L 121.581803 60.675434 
L 121.581803 56.612839 
L 121.99526 56.612839 
L 121.99526 53.236137 
L 122.399825 53.236137 
L 122.399825 49.490107 
L 122.795872 49.490107 
L 122.795872 46.37721 
L 123.183753 46.37721 
L 123.183753 43.6864 
L 123.563797 43.6864 
L 123.563797 41.945288 
L 123.936316 41.945288 
L 123.936316 39.201717 
L 124.3016 39.201717 
L 124.3016 36.405385 
L 124.659926 36.405385 
L 124.659926 35.086361 
L 125.011554 35.086361 
L 125.011554 33.92562 
L 125.35673 33.92562 
L 125.35673 33.503532 
L 125.695686 33.503532 
L 125.695686 32.712117 
L 126.028642 32.712117 
L 126.028642 32.34279 
L 126.355808 32.34279 
L 126.355808 30.074068 
L 126.677381 30.074068 
L 126.677381 29.59922 
L 126.993549 29.59922 
L 126.993549 29.018849 
L 127.304491 29.018849 
L 127.304491 28.385717 
L 127.610376 28.385717 
L 127.610376 27.48878 
L 127.911368 27.48878 
L 127.911368 27.013932 
L 128.207619 27.013932 
L 128.207619 26.591844 
L 128.499277 26.591844 
L 128.499277 26.116995 
L 128.786481 26.116995 
L 128.786481 25.800429 
L 129.069367 25.800429 
L 129.069367 25.536624 
L 129.348062 25.536624 
L 129.348062 25.27282 
L 129.622688 25.27282 
L 129.622688 25.009015 
L 129.893363 25.009015 
L 129.893363 24.74521 
L 130.4233 24.692449 
L 130.4233 24.323122 
L 130.682774 24.323122 
L 130.682774 23.742751 
L 131.191226 23.68999 
L 131.191226 23.478946 
L 131.929028 23.373424 
L 131.929028 23.10962 
L 132.405295 23.056859 
L 132.405295 22.845815 
L 132.638982 22.845815 
L 132.638982 22.529249 
L 133.765759 22.423727 
L 133.765759 22.370966 
L 136.413909 22.265444 
L 136.413909 22.212683 
L 136.97549 22.159922 
L 136.97549 22.0544 
L 138.73486 21.948878 
L 138.73486 21.790595 
L 139.716555 21.737834 
L 139.716555 21.632312 
L 141.099251 21.579551 
L 141.099251 21.474029 
L 141.246793 21.474029 
L 141.246793 21.262985 
L 142.108542 21.262985 
L 142.108542 21.104702 
L 143.52768 21.051941 
L 143.52768 20.94642 
L 143.657415 20.94642 
L 143.657415 20.682615 
L 144.293001 20.629854 
L 144.293001 20.41881 
L 144.541342 20.41881 
L 144.541342 20.102244 
L 144.664294 20.102244 
L 144.664294 19.8912 
L 144.786447 19.8912 
L 144.847227 19.047024 
L 145.26728 18.994263 
L 145.26728 18.413893 
L 145.503164 18.413893 
L 145.503164 18.044566 
L 145.620007 18.044566 
L 145.620007 17.886283 
L 146.193574 17.780761 
L 146.24998 17.305912 
L 146.64016 17.20039 
L 146.64016 15.881366 
L 147.076389 15.881366 
L 147.183884 15.406517 
L 147.397049 15.300995 
L 147.397049 15.142712 
L 147.607824 15.142712 
L 147.607824 14.931668 
L 147.816265 14.931668 
L 147.816265 14.773385 
L 148.124658 14.720624 
L 148.226342 14.140254 
L 149.020615 14.034732 
L 149.020615 13.876449 
L 149.214052 13.876449 
L 149.214052 13.718166 
L 150.604701 13.612644 
L 150.604701 13.559883 
L 151.647641 13.507122 
L 151.731998 12.821229 
L 151.815978 12.821229 
L 151.815978 12.610185 
L 154.685842 12.504663 
L 154.685842 12.451902 
L 156.271636 12.34638 
L 156.271636 12.29362 
L 157.363398 12.188098 
L 157.363398 11.924293 
L 157.672805 11.871532 
L 157.734081 11.607727 
L 158.007377 11.502205 
L 158.0976 11.396683 
L 158.630038 11.291161 
L 158.630038 11.2384 
L 158.919453 11.185639 
L 158.919453 10.921834 
L 159.540912 10.816312 
L 159.596403 10.235941 
L 159.980326 10.235941 
L 159.980326 10.077659 
L 160.855439 9.972137 
L 160.855439 9.919376 
L 163.997986 9.813854 
L 163.997986 9.761093 
L 166.111072 9.655571 
L 166.111072 9.60281 
L 169.508137 9.497288 
L 169.508137 9.444527 
L 170.940741 9.444527 
L 171.031472 8.705873 
L 171.566857 8.600351 
L 171.566857 8.54759 
L 171.857838 8.442068 
L 171.857838 8.231024 
L 172.04459 8.125502 
L 172.087425 7.861698 
L 172.257795 7.756176 
L 172.257795 7.386849 
L 172.593974 7.334088 
L 172.607852 7.123044 
L 174.075124 7.017522 
L 174.075124 6.964761 
L 360.8064 6.912 
L 360.8064 6.912 
" style="fill:none;stroke:#000080;stroke-linecap:square;stroke-width:1.5;"/>
   </g>
   <g id="line2d_31">
    <defs>
     <path d="M 0 6 
C 1.591219 6 3.117479 5.367802 4.242641 4.242641 
C 5.367802 3.117479 6 1.591219 6 0 
C 6 -1.591219 5.367802 -3.117479 4.242641 -4.242641 
C 3.117479 -5.367802 1.591219 -6 0 -6 
C -1.591219 -6 -3.117479 -5.367802 -4.242641 -4.242641 
C -5.367802 -3.117479 -6 -1.591219 -6 0 
C -6 1.591219 -5.367802 3.117479 -4.242641 4.242641 
C -3.117479 5.367802 -1.591219 6 0 6 
z
" id="maa98d43095" style="stroke:#000080;stroke-width:1.5;"/>
    </defs>
    <g>
     <use style="fill-opacity:0;stroke:#000080;stroke-width:1.5;" x="105.36204" xlink:href="#maa98d43095" y="175.166751"/>
     <use style="fill-opacity:0;stroke:#000080;stroke-width:1.5;" x="122.795872" xlink:href="#maa98d43095" y="46.37721"/>
     <use style="fill-opacity:0;stroke:#000080;stroke-width:1.5;" x="174.355328" xlink:href="#maa98d43095" y="6.964761"/>
     <use style="fill-opacity:0;stroke:#000080;stroke-width:1.5;" x="174.355328" xlink:href="#maa98d43095" y="6.912"/>
     <use style="fill-opacity:0;stroke:#000080;stroke-width:1.5;" x="174.355328" xlink:href="#maa98d43095" y="6.912"/>
     <use style="fill-opacity:0;stroke:#000080;stroke-width:1.5;" x="360.8064" xlink:href="#maa98d43095" y="6.912"/>
    </g>
   </g>
   <g id="line2d_32">
    <path style="fill:none;stroke:#000080;stroke-linecap:square;stroke-width:1.5;"/>
    <g/>
   </g>
   <g id="line2d_33">
    <defs>
     <path d="M 0 1.5 
C 0.397805 1.5 0.77937 1.341951 1.06066 1.06066 
C 1.341951 0.77937 1.5 0.397805 1.5 0 
C 1.5 -0.397805 1.341951 -0.77937 1.06066 -1.06066 
C 0.77937 -1.341951 0.397805 -1.5 0 -1.5 
C -0.397805 -1.5 -0.77937 -1.341951 -1.06066 -1.06066 
C -1.341951 -0.77937 -1.5 -0.397805 -1.5 0 
C -1.5 0.397805 -1.341951 0.77937 -1.06066 1.06066 
C -0.77937 1.341951 -0.397805 1.5 0 1.5 
z
" id="m4996221d77" style="stroke:#ff00ff;"/>
    </defs>
    <g>
     <use style="fill:#ff00ff;stroke:#ff00ff;" x="210.656868" xlink:href="#m4996221d77" y="39.36"/>
     <use style="fill:#ff00ff;stroke:#ff00ff;" x="210.656868" xlink:href="#m4996221d77" y="39.36"/>
    </g>
   </g>
   <g id="line2d_34">
    <path d="M 80.248597 298.944 
L 80.248597 295.883863 
L 91.305777 295.883863 
L 91.305777 286.650693 
L 95.080704 286.597932 
L 95.080704 286.386888 
L 98.223251 286.386888 
L 98.223251 262.538927 
L 100.9152 262.486166 
L 100.9152 262.380644 
L 103.269713 262.380644 
L 103.269713 250.667707 
L 105.36204 250.562185 
L 105.36204 250.456663 
L 107.244765 250.456663 
L 107.244765 243.439454 
L 108.119879 243.439454 
L 108.119879 243.017366 
L 110.524623 242.911844 
L 110.524623 234.57561 
L 111.262425 234.57561 
L 111.262425 233.836956 
L 111.97238 233.836956 
L 111.97238 233.309346 
L 112.656511 233.309346 
L 112.656511 233.098302 
L 113.316634 233.098302 
L 113.316634 230.882341 
L 113.954374 230.882341 
L 113.954374 229.668839 
L 114.571202 229.668839 
L 114.571202 229.405034 
L 115.168444 229.405034 
L 115.168444 229.088468 
L 115.747307 229.088468 
L 115.747307 223.232 
L 116.308887 223.232 
L 116.308887 222.757151 
L 116.854188 222.757151 
L 116.854188 221.965737 
L 117.384126 221.965737 
L 117.384126 221.543649 
L 117.899543 221.543649 
L 117.899543 217.006205 
L 118.401214 216.953444 
L 118.401214 215.68718 
L 118.889854 215.68718 
L 118.889854 215.423376 
L 119.366121 215.423376 
L 119.366121 215.001288 
L 119.830627 215.001288 
L 119.830627 208.933776 
L 120.28394 208.933776 
L 120.28394 208.036839 
L 120.726585 208.036839 
L 120.726585 207.139902 
L 121.159053 207.139902 
L 121.159053 206.98162 
L 121.581803 206.98162 
L 121.581803 202.12761 
L 121.99526 202.12761 
L 121.99526 199.96441 
L 122.399825 199.96441 
L 122.399825 199.014712 
L 122.795872 199.014712 
L 122.795872 198.223298 
L 123.183753 198.223298 
L 123.183753 194.318985 
L 123.563797 194.318985 
L 123.563797 193.316527 
L 123.936316 193.316527 
L 123.936316 192.366829 
L 124.3016 192.366829 
L 124.3016 189.992585 
L 124.659926 189.992585 
L 124.659926 185.40238 
L 125.011554 185.40238 
L 125.011554 184.82201 
L 125.35673 184.82201 
L 125.35673 183.925073 
L 125.695686 183.925073 
L 125.695686 182.395005 
L 126.028642 182.342244 
L 126.028642 178.226888 
L 126.355808 178.226888 
L 126.355808 176.907863 
L 126.677381 176.907863 
L 126.677381 175.799883 
L 126.993549 175.799883 
L 126.993549 174.744663 
L 127.304491 174.744663 
L 127.304491 168.729912 
L 127.610376 168.729912 
L 127.610376 167.780215 
L 127.911368 167.780215 
L 127.911368 166.9888 
L 128.060076 166.9888 
L 128.060076 166.777756 
L 128.207619 166.777756 
L 128.207619 165.511493 
L 128.499277 165.511493 
L 128.499277 160.815766 
L 128.786481 160.815766 
L 128.786481 159.285698 
L 129.069367 159.285698 
L 129.069367 158.86361 
L 129.348062 158.86361 
L 129.348062 157.913912 
L 129.622688 157.913912 
L 129.622688 151.424312 
L 129.893363 151.424312 
L 129.893363 151.002224 
L 130.160198 151.002224 
L 130.160198 150.263571 
L 130.4233 150.263571 
L 130.4233 149.999766 
L 130.682774 149.999766 
L 130.682774 146.834107 
L 130.938718 146.834107 
L 130.938718 146.46478 
L 131.191226 146.46478 
L 131.191226 146.306498 
L 131.440389 146.306498 
L 131.440389 145.778888 
L 131.686295 145.778888 
L 131.686295 143.879493 
L 131.929028 143.879493 
L 131.929028 143.351883 
L 132.168669 143.351883 
L 132.168669 142.560468 
L 132.405295 142.560468 
L 132.405295 142.191141 
L 132.638982 142.191141 
L 132.638982 141.241444 
L 132.869802 141.241444 
L 132.869802 140.977639 
L 133.097823 140.977639 
L 133.097823 140.608312 
L 133.323114 140.608312 
L 133.323114 140.450029 
L 133.545739 140.450029 
L 133.545739 137.917502 
L 133.765759 137.917502 
L 133.765759 137.706459 
L 133.983236 137.706459 
L 133.983236 137.389893 
L 134.198228 137.389893 
L 134.198228 137.126088 
L 134.41079 137.126088 
L 134.41079 135.226693 
L 134.620977 135.226693 
L 134.620977 134.804605 
L 134.931919 134.699083 
L 135.034434 134.488039 
L 135.237805 134.488039 
L 135.237805 132.166556 
L 135.438999 132.166556 
L 135.438999 131.902751 
L 135.638065 131.902751 
L 135.638065 131.480663 
L 135.835047 131.480663 
L 135.835047 131.111337 
L 136.029987 131.111337 
L 136.029987 129.950595 
L 136.222928 129.950595 
L 136.318661 129.264702 
L 136.413909 129.264702 
L 136.413909 129.10642 
L 136.602972 129.10642 
L 136.602972 128.948137 
L 136.790153 128.948137 
L 136.790153 127.312546 
L 136.97549 127.312546 
L 136.97549 126.890459 
L 137.159019 126.890459 
L 137.159019 125.624195 
L 137.340774 125.624195 
L 137.340774 125.413151 
L 137.520791 125.413151 
L 137.520791 125.096585 
L 137.699101 125.096585 
L 137.699101 124.674498 
L 137.875736 124.674498 
L 137.963436 123.7248 
L 138.224108 123.7248 
L 138.224108 123.513756 
L 138.395904 123.513756 
L 138.395904 123.091668 
L 138.566146 123.091668 
L 138.566146 122.933385 
L 138.73486 122.933385 
L 138.818654 122.61682 
L 138.902075 122.61682 
L 138.902075 122.247493 
L 139.067817 122.247493 
L 139.067817 121.5616 
L 139.232111 121.5616 
L 139.232111 120.770185 
L 139.394983 120.770185 
L 139.475893 120.348098 
L 139.636676 120.295337 
L 139.716555 119.714966 
L 139.875304 119.714966 
L 139.875304 119.187356 
L 140.032723 119.187356 
L 140.032723 118.501463 
L 140.188837 118.501463 
L 140.188837 117.76281 
L 140.343665 117.76281 
L 140.343665 117.024156 
L 140.49723 117.024156 
L 140.49723 116.496546 
L 140.649551 116.496546 
L 140.649551 116.12722 
L 140.800648 116.12722 
L 140.800648 115.59961 
L 140.950542 115.59961 
L 140.950542 115.177522 
L 141.099251 115.177522 
L 141.099251 114.755434 
L 141.246793 114.755434 
L 141.246793 114.122302 
L 141.393187 114.122302 
L 141.393187 113.96402 
L 141.538451 113.96402 
L 141.538451 113.647454 
L 141.825656 113.594693 
L 141.825656 113.383649 
L 141.96763 113.383649 
L 141.96763 113.014322 
L 142.108542 113.014322 
L 142.108542 112.697756 
L 142.525051 112.592234 
L 142.525051 111.80082 
L 142.661862 111.80082 
L 142.661862 111.431493 
L 142.797687 111.431493 
L 142.797687 111.167688 
L 142.932537 111.167688 
L 142.932537 110.534556 
L 143.066428 110.534556 
L 143.066428 110.059707 
L 143.199372 110.059707 
L 143.199372 109.479337 
L 143.331383 109.479337 
L 143.331383 109.004488 
L 143.592659 108.951727 
L 143.657415 108.635161 
L 143.721949 108.635161 
L 143.721949 107.790985 
L 143.850356 107.790985 
L 143.850356 107.52718 
L 143.977892 107.52718 
L 143.977892 107.368898 
L 144.10457 107.368898 
L 144.10457 106.841288 
L 144.2304 106.841288 
L 144.2304 106.630244 
L 144.355394 106.630244 
L 144.355394 106.049873 
L 144.479563 106.049873 
L 144.479563 105.89159 
L 144.602918 105.89159 
L 144.602918 105.416741 
L 144.847227 105.31122 
L 144.847227 104.889132 
L 144.968202 104.889132 
L 144.968202 104.256 
L 145.207843 104.203239 
L 145.207843 103.781151 
L 145.326529 103.781151 
L 145.326529 103.306302 
L 145.44447 103.306302 
L 145.44447 102.884215 
L 145.561676 102.884215 
L 145.561676 102.673171 
L 145.678157 102.673171 
L 145.678157 102.514888 
L 145.79392 102.514888 
L 145.79392 101.828995 
L 145.908976 101.828995 
L 145.908976 101.406907 
L 146.023332 101.406907 
L 146.080251 101.03758 
L 146.24998 101.03758 
L 146.24998 100.721015 
L 146.362288 100.721015 
L 146.418192 100.404449 
L 146.47393 100.404449 
L 146.584913 100.087883 
L 146.695245 100.087883 
L 146.804934 99.718556 
L 146.913986 99.718556 
L 147.022411 99.40199 
L 147.130214 99.40199 
L 147.237402 99.190946 
L 147.343984 99.190946 
L 147.449964 98.505054 
L 147.555352 98.505054 
L 147.660152 97.7664 
L 147.764371 97.713639 
L 147.868016 95.444917 
L 147.971093 95.444917 
L 148.073609 94.653502 
L 148.175569 94.653502 
L 148.276979 93.070673 
L 148.377845 93.070673 
L 148.478174 92.543063 
L 148.57797 92.543063 
L 148.67724 91.857171 
L 148.775988 91.857171 
L 148.775988 91.698888 
L 148.971944 91.698888 
L 148.971944 91.435083 
L 149.262102 91.435083 
L 149.357835 91.118517 
L 149.453084 91.118517 
L 149.453084 90.907473 
L 149.642146 90.907473 
L 149.642146 90.643668 
L 149.829328 90.643668 
L 149.829328 89.852254 
L 150.014665 89.852254 
L 150.014665 89.377405 
L 150.198193 89.377405 
L 150.289291 89.008078 
L 150.559965 88.902556 
L 150.649331 88.374946 
L 150.738275 88.374946 
L 150.8268 87.583532 
L 151.00261 87.530771 
L 151.089903 86.897639 
L 151.176793 86.844878 
L 151.263283 86.370029 
L 151.435079 86.370029 
L 151.435079 85.947941 
L 151.774035 85.84242 
L 151.857828 85.103766 
L 151.94125 85.103766 
L 151.94125 84.839961 
L 152.106991 84.839961 
L 152.106991 84.048546 
L 152.312136 83.943024 
L 152.393571 83.67922 
L 152.434157 83.67922 
L 152.515067 82.782283 
L 152.595631 82.782283 
L 152.675851 82.307434 
L 152.75573 82.307434 
L 152.75573 82.09639 
L 152.914478 82.09639 
L 152.914478 81.727063 
L 153.150116 81.674302 
L 153.228011 81.252215 
L 153.305585 81.252215 
L 153.38284 81.041171 
L 153.459779 80.98841 
L 153.536404 80.724605 
L 153.612719 80.724605 
L 153.688725 80.196995 
L 153.989717 80.091473 
L 154.064218 79.300059 
L 154.17542 79.247298 
L 154.285968 78.614166 
L 154.359307 78.614166 
L 154.432362 77.875512 
L 154.505134 77.875512 
L 154.577625 77.24238 
L 154.721776 77.18962 
L 154.793439 76.398205 
L 154.86483 76.398205 
L 154.935952 75.923356 
L 155.147716 75.817834 
L 155.217778 75.448507 
L 155.28758 75.448507 
L 155.357123 74.920898 
L 155.495444 74.920898 
L 155.564225 74.551571 
L 155.632755 74.551571 
L 155.701037 74.340527 
L 155.836861 74.287766 
L 155.836861 74.182244 
L 156.038776 74.129483 
L 156.038776 73.865678 
L 156.370558 73.760156 
L 156.436218 73.127024 
L 156.566854 73.127024 
L 156.566854 72.493893 
L 156.825436 72.388371 
L 156.88953 72.282849 
L 156.953406 72.282849 
L 156.953406 72.124566 
L 157.143744 72.019044 
L 157.206765 71.808 
L 157.394569 71.702478 
L 157.394569 71.333151 
L 157.518738 71.333151 
L 157.580516 70.963824 
L 157.642093 70.963824 
L 157.703468 70.383454 
L 157.886402 70.330693 
L 157.946987 69.908605 
L 158.187393 69.803083 
L 158.247018 69.486517 
L 158.483644 69.486517 
L 158.542339 68.958907 
L 158.600851 68.958907 
L 158.659181 68.747863 
L 158.775302 68.642341 
L 158.833095 68.114732 
L 158.890711 68.114732 
L 158.890711 67.956449 
L 159.289155 67.850927 
L 159.289155 67.798166 
L 159.568678 67.745405 
L 159.679334 67.4816 
L 159.789344 67.428839 
L 159.789344 66.901229 
L 160.223059 66.795707 
L 160.329943 66.42638 
L 160.777545 66.320859 
L 160.82951 66.162576 
L 161.061595 66.057054 
L 161.112783 65.740488 
L 161.214743 65.740488 
L 161.316153 65.371161 
L 162.05979 65.265639 
L 162.108336 65.001834 
L 162.868502 64.949073 
L 162.961399 64.632507 
L 163.053839 64.632507 
L 163.145827 64.104898 
L 163.237368 64.104898 
L 163.328465 63.68281 
L 163.419123 63.630049 
L 163.419123 63.366244 
L 163.910081 63.260722 
L 163.910081 63.049678 
L 164.085482 63.049678 
L 164.085482 62.891395 
L 164.644495 62.785873 
L 164.644495 62.416546 
L 164.897003 62.416546 
L 164.897003 62.04722 
L 165.228492 61.941698 
L 165.31046 61.414088 
L 165.45305 61.308566 
L 165.51383 60.886478 
L 165.634805 60.886478 
L 165.674958 60.358868 
L 165.834717 60.306107 
L 165.854592 59.989541 
L 166.111072 59.93678 
L 166.150222 59.725737 
L 166.344759 59.672976 
L 166.40273 59.303649 
L 166.537305 59.250888 
L 166.594686 58.617756 
L 166.651893 58.617756 
L 166.689935 58.090146 
L 166.8036 58.090146 
L 166.8036 57.931863 
L 166.916583 57.931863 
L 166.916583 57.77358 
L 167.251516 57.77358 
L 167.251516 57.615298 
L 167.6168 57.562537 
L 167.6168 57.457015 
L 168.116567 57.351493 
L 168.116567 57.298732 
L 168.291886 57.245971 
L 168.291886 57.140449 
L 168.977264 57.034927 
L 169.07795 56.6656 
L 169.277721 56.6656 
L 169.277721 56.401795 
L 169.735764 56.296273 
L 169.800298 55.768663 
L 169.896685 55.715902 
L 169.896685 55.61038 
L 170.024438 55.61038 
L 170.119687 54.660683 
L 170.245939 54.607922 
L 170.308749 53.97479 
L 170.464862 53.869268 
L 170.49593 53.710985 
L 170.619691 53.710985 
L 170.650504 53.44718 
L 170.773255 53.44718 
L 170.864796 53.236137 
L 171.136775 53.130615 
L 171.166753 53.025093 
L 171.315934 52.919571 
L 171.315934 52.86681 
L 172.101681 52.761288 
L 172.101681 52.550244 
L 172.300147 52.444722 
L 172.356469 52.3392 
L 172.46861 52.233678 
L 172.46861 52.128156 
L 172.607852 52.128156 
L 172.718509 51.600546 
L 172.85592 51.547785 
L 172.965131 51.23122 
L 173.342453 51.178459 
L 173.342453 50.967415 
L 173.501874 50.967415 
L 173.501874 50.439805 
L 175.220095 50.439805 
L 175.316441 50.176 
L 175.814319 50.123239 
L 175.907676 49.964956 
L 176.322146 49.912195 
L 176.322146 49.806673 
L 176.593471 49.753912 
L 176.68305 49.384585 
L 177.577449 49.279063 
L 177.620009 49.173541 
L 178.144042 49.06802 
L 178.247119 48.856976 
L 178.553005 48.751454 
L 178.633741 48.487649 
L 178.973057 48.382127 
L 179.052014 48.276605 
L 179.111015 48.276605 
L 179.130641 47.960039 
L 179.480453 47.854517 
L 179.480453 47.643473 
L 180.327539 47.537951 
L 180.419348 47.326907 
L 182.016438 47.221385 
L 182.016438 47.168624 
L 182.448907 47.063102 
L 182.448907 47.010341 
L 182.903785 46.95758 
L 182.967879 46.693776 
L 183.14302 46.588254 
L 183.222093 46.166166 
L 183.689679 46.060644 
L 183.751154 45.585795 
L 185.812768 45.480273 
L 185.812768 45.427512 
L 188.119902 45.32199 
L 188.119902 45.216468 
L 188.349609 45.163707 
L 188.433535 44.899902 
L 188.600274 44.79438 
L 188.671283 44.583337 
L 188.847643 44.477815 
L 188.917726 44.266771 
L 189.010767 44.161249 
L 189.068684 43.844683 
L 189.26428 43.791922 
L 189.287158 43.580878 
L 189.694277 43.475356 
L 189.783564 43.053268 
L 189.861343 43.000507 
L 189.861343 42.894985 
L 190.332204 42.789463 
L 190.332204 42.736702 
L 190.579304 42.63118 
L 190.621949 42.472898 
L 190.938738 42.367376 
L 191.017109 42.261854 
L 191.239978 42.209093 
L 191.250281 42.05081 
L 191.768342 41.945288 
L 191.768342 41.892527 
L 192.620442 41.787005 
L 192.66826 41.628722 
L 192.943232 41.5232 
L 192.943232 41.470439 
L 193.726776 41.364917 
L 193.798869 41.153873 
L 193.924369 41.048351 
L 194.013502 40.837307 
L 195.459283 40.731785 
L 195.459283 40.679024 
L 195.930918 40.626263 
L 195.930918 40.520741 
L 198.557438 40.41522 
L 198.557438 40.362459 
L 201.4128 40.256937 
L 201.4128 40.204176 
L 202.159832 40.098654 
L 202.165598 39.993132 
L 202.525338 39.88761 
L 202.525338 39.834849 
L 204.157679 39.729327 
L 204.157679 39.676566 
L 209.322129 39.571044 
L 209.322129 39.518283 
L 210.656868 39.412761 
L 210.656868 39.36 
L 360.8064 39.36 
L 360.8064 39.36 
" style="fill:none;stroke:#ff00ff;stroke-linecap:square;stroke-width:1.5;"/>
   </g>
   <g id="line2d_35">
    <defs>
     <path d="M -0 8.485281 
L 5.091169 0 
L 0 -8.485281 
L -5.091169 -0 
z
" id="m4acf9d9f66" style="stroke:#ff00ff;stroke-linejoin:miter;stroke-width:1.5;"/>
    </defs>
    <g>
     <use style="fill-opacity:0;stroke:#ff00ff;stroke-linejoin:miter;stroke-width:1.5;" x="127.304491" xlink:href="#m4acf9d9f66" y="168.729912"/>
     <use style="fill-opacity:0;stroke:#ff00ff;stroke-linejoin:miter;stroke-width:1.5;" x="194.574168" xlink:href="#m4acf9d9f66" y="40.784546"/>
     <use style="fill-opacity:0;stroke:#ff00ff;stroke-linejoin:miter;stroke-width:1.5;" x="210.656868" xlink:href="#m4acf9d9f66" y="39.36"/>
     <use style="fill-opacity:0;stroke:#ff00ff;stroke-linejoin:miter;stroke-width:1.5;" x="210.656868" xlink:href="#m4acf9d9f66" y="39.36"/>
     <use style="fill-opacity:0;stroke:#ff00ff;stroke-linejoin:miter;stroke-width:1.5;" x="360.8064" xlink:href="#m4acf9d9f66" y="39.36"/>
    </g>
   </g>
   <g id="line2d_36">
    <path style="fill:none;stroke:#ff00ff;stroke-linecap:square;stroke-width:1.5;"/>
    <g/>
   </g>
   <g id="line2d_37">
    <path clip-path="url(#p670fdcbb79)" d="M 187.61445 45.427512 
" style="fill:none;stroke:#ff00ff;stroke-linecap:square;stroke-width:1.5;"/>
    <defs>
     <path d="M -12 12 
L 12 -12 
M -12 -12 
L 12 12 
" id="me1ba8a9e79" style="stroke:#ff00ff;"/>
    </defs>
    <g clip-path="url(#p670fdcbb79)">
     <use style="fill:#ff00ff;stroke:#ff00ff;" x="187.61445" xlink:href="#me1ba8a9e79" y="45.427512"/>
    </g>
   </g>
   <g id="line2d_38">
    <defs>
     <path d="M 0 1.5 
C 0.397805 1.5 0.77937 1.341951 1.06066 1.06066 
C 1.341951 0.77937 1.5 0.397805 1.5 0 
C 1.5 -0.397805 1.341951 -0.77937 1.06066 -1.06066 
C 0.77937 -1.341951 0.397805 -1.5 0 -1.5 
C -0.397805 -1.5 -0.77937 -1.341951 -1.06066 -1.06066 
C -1.341951 -0.77937 -1.5 -0.397805 -1.5 0 
C -1.5 0.397805 -1.341951 0.77937 -1.06066 1.06066 
C -0.77937 1.341951 -0.397805 1.5 0 1.5 
z
" id="m377a98dfc4" style="stroke:#ff7500;"/>
    </defs>
    <g>
     <use style="fill:#ff7500;stroke:#ff7500;" x="228.05637" xlink:href="#m377a98dfc4" y="6.912"/>
     <use style="fill:#ff7500;stroke:#ff7500;" x="228.05637" xlink:href="#m377a98dfc4" y="6.912"/>
    </g>
   </g>
   <g id="line2d_39">
    <path d="M 36.933397 298.944 
L 36.933397 298.838478 
L 85.184077 298.838478 
L 85.184077 214.315395 
L 87.876026 214.315395 
L 87.876026 212.679805 
L 90.230539 212.574283 
L 90.230539 212.204956 
L 95.080704 212.204956 
L 95.080704 195.479727 
L 96.717523 195.479727 
L 96.717523 194.846595 
L 98.223251 194.793834 
L 98.223251 194.424507 
L 101.532027 194.371746 
L 101.532027 182.869854 
L 102.708132 182.869854 
L 102.708132 182.183961 
L 103.815014 182.1312 
L 103.815014 181.867395 
L 105.850679 181.761873 
L 105.850679 181.656351 
L 106.326946 181.656351 
L 106.326946 165.722537 
L 107.244765 165.722537 
L 107.244765 164.086946 
L 108.119879 164.086946 
L 108.119879 163.823141 
L 110.144579 163.823141 
L 110.144579 157.28078 
L 110.897141 157.28078 
L 110.897141 153.640273 
L 111.262425 153.640273 
L 111.262425 153.48199 
L 111.620752 153.48199 
L 111.620752 152.90162 
L 111.97238 152.90162 
L 111.97238 152.057444 
L 112.989468 152.057444 
L 112.989468 151.740878 
L 113.316634 151.740878 
L 113.316634 147.994849 
L 113.954374 147.994849 
L 113.954374 146.200976 
L 114.571202 146.200976 
L 114.571202 145.462322 
L 114.872193 145.462322 
L 114.872193 145.198517 
L 115.168444 145.198517 
L 115.168444 144.987473 
L 115.460102 144.987473 
L 115.460102 144.776429 
L 116.030193 144.776429 
L 116.030193 141.980098 
L 116.583514 141.980098 
L 116.583514 138.919961 
L 117.121023 138.919961 
L 117.121023 137.23161 
L 118.401214 137.126088 
L 118.401214 135.59602 
L 118.889854 135.59602 
L 118.889854 131.902751 
L 119.366121 131.902751 
L 119.366121 130.267161 
L 119.830627 130.161639 
L 119.830627 129.897834 
L 120.28394 129.897834 
L 120.28394 129.422985 
L 120.506564 129.422985 
L 120.506564 126.626654 
L 120.944062 126.626654 
L 120.944062 123.513756 
L 121.159053 123.513756 
L 121.159053 123.144429 
L 121.371615 123.144429 
L 121.371615 121.508839 
L 121.789667 121.508839 
L 121.789667 121.139512 
L 122.399825 121.03399 
L 122.399825 119.820488 
L 122.795872 119.820488 
L 122.795872 115.072 
L 123.183753 115.072 
L 123.183753 113.172605 
L 123.563797 113.067083 
L 123.563797 111.325971 
L 123.936316 111.325971 
L 123.936316 109.954185 
L 124.119844 109.954185 
L 124.119844 108.160312 
L 124.3016 108.160312 
L 124.3016 107.790985 
L 124.481616 107.790985 
L 124.481616 106.788527 
L 124.659926 106.788527 
L 124.659926 106.4192 
L 124.836562 106.4192 
L 124.836562 102.884215 
L 125.184934 102.884215 
L 125.184934 101.723473 
L 125.526971 101.723473 
L 125.526971 101.512429 
L 125.695686 101.512429 
L 125.695686 100.615493 
L 126.028642 100.615493 
L 126.028642 99.032663 
L 126.355808 99.032663 
L 126.355808 97.291551 
L 126.517282 97.291551 
L 126.517282 97.027746 
L 126.677381 97.027746 
L 126.677381 96.13081 
L 126.993549 96.078049 
L 126.993549 95.181112 
L 127.149662 95.181112 
L 127.149662 94.811785 
L 127.304491 94.811785 
L 127.304491 94.600741 
L 127.458055 94.600741 
L 127.458055 94.178654 
L 127.610376 94.178654 
L 127.610376 93.96761 
L 128.060076 93.914849 
L 128.060076 93.228956 
L 128.354013 93.228956 
L 128.354013 91.909932 
L 128.499277 91.909932 
L 128.499277 91.751649 
L 128.643427 91.751649 
L 128.643427 91.593366 
L 128.786481 91.593366 
L 128.786481 90.590907 
L 129.069367 90.590907 
L 129.069367 90.327102 
L 129.348062 90.327102 
L 129.348062 89.1136 
L 129.758512 89.1136 
L 129.758512 88.797034 
L 129.893363 88.797034 
L 129.893363 88.533229 
L 130.160198 88.533229 
L 130.160198 87.847337 
L 130.292209 87.847337 
L 130.292209 87.47801 
L 130.4233 87.47801 
L 130.4233 87.266966 
L 130.553485 87.266966 
L 130.553485 86.528312 
L 130.682774 86.528312 
L 130.682774 86.370029 
L 130.938718 86.370029 
L 130.938718 85.89518 
L 131.065395 85.89518 
L 131.065395 84.998244 
L 131.191226 84.998244 
L 131.191226 84.576156 
L 131.440389 84.576156 
L 131.440389 84.417873 
L 131.563744 84.417873 
L 131.563744 84.101307 
L 131.808053 84.101307 
L 131.808053 83.890263 
L 131.929028 83.890263 
L 131.929028 83.468176 
L 132.04923 83.468176 
L 132.04923 83.204371 
L 132.168669 83.204371 
L 132.168669 82.571239 
L 132.638982 82.465717 
L 132.638982 81.990868 
L 132.869802 81.990868 
L 132.869802 81.727063 
L 133.097823 81.727063 
L 133.097823 81.56878 
L 133.210806 81.56878 
L 133.210806 81.041171 
L 133.323114 81.041171 
L 133.323114 80.4608 
L 133.656071 80.408039 
L 133.656071 80.302517 
L 133.983236 80.249756 
L 134.091039 79.774907 
L 134.304809 79.774907 
L 134.41079 79.35282 
L 134.620977 79.35282 
L 134.725196 78.930732 
L 134.828842 78.930732 
L 134.931919 78.192078 
L 135.034434 78.192078 
L 135.136394 77.717229 
L 135.438999 77.664468 
L 135.538796 77.136859 
L 135.736814 77.084098 
L 135.736814 76.925815 
L 135.932769 76.925815 
L 135.932769 76.66201 
L 136.126705 76.66201 
L 136.222928 75.976117 
L 136.318661 75.976117 
L 136.413909 75.501268 
L 136.790153 75.395746 
L 136.790153 74.762615 
L 137.067478 74.762615 
L 137.159019 74.393288 
L 137.340774 74.393288 
L 137.430998 73.390829 
L 137.787626 73.390829 
L 137.875736 72.91598 
L 138.137618 72.91598 
L 138.137618 72.599415 
L 138.566146 72.493893 
L 138.566146 72.124566 
L 138.902075 72.071805 
L 138.902075 71.755239 
L 139.394983 71.755239 
L 139.394983 71.438673 
L 139.636676 71.385912 
L 139.636676 70.436215 
L 139.875304 70.330693 
L 139.875304 70.277932 
L 140.110942 70.225171 
L 140.110942 70.014127 
L 140.26641 70.014127 
L 140.343665 69.433756 
L 140.725251 69.328234 
L 140.725251 68.853385 
L 140.950542 68.747863 
L 140.950542 68.53682 
L 141.393187 68.484059 
L 141.465959 68.273015 
L 141.538451 68.273015 
L 141.538451 67.745405 
L 141.825656 67.692644 
L 141.825656 67.376078 
L 142.593581 67.376078 
L 142.661862 67.112273 
L 142.932537 67.059512 
L 142.999601 66.531902 
L 143.199372 66.531902 
L 143.265494 65.476683 
L 143.331383 65.476683 
L 143.397043 65.001834 
L 143.52768 65.001834 
L 143.52768 64.579746 
L 143.850356 64.579746 
L 143.850356 64.21042 
L 143.977892 64.21042 
L 143.977892 64.052137 
L 144.664294 63.999376 
L 144.725469 63.841093 
L 145.207843 63.841093 
L 145.26728 63.524527 
L 145.620007 63.524527 
L 145.620007 63.366244 
L 145.851536 63.366244 
L 145.851536 63.1552 
L 146.023332 63.1552 
L 146.023332 62.363785 
L 146.136998 62.363785 
L 146.193574 61.572371 
L 146.362288 61.51961 
L 146.362288 61.255805 
L 147.237402 61.150283 
L 147.237402 61.097522 
L 147.712333 61.044761 
L 147.764371 60.46439 
L 148.022421 60.411629 
L 148.124658 59.514693 
L 148.175569 59.514693 
L 148.276979 58.459473 
L 148.428077 58.406712 
L 148.528138 57.351493 
L 148.57797 57.351493 
L 148.627671 56.6656 
L 148.923146 56.6656 
L 149.020615 55.979707 
L 149.069161 55.979707 
L 149.117582 55.188293 
L 149.214052 55.188293 
L 149.214052 55.03001 
L 149.595059 54.924488 
L 149.595059 54.660683 
L 149.875833 54.660683 
L 149.875833 54.396878 
L 150.8268 54.344117 
L 150.8268 54.027551 
L 151.176793 53.922029 
L 151.176793 53.816507 
L 151.306379 53.816507 
L 151.392277 53.605463 
L 151.562904 53.605463 
L 151.562904 53.077854 
L 151.689867 53.077854 
L 151.689867 52.655766 
L 151.94125 52.655766 
L 152.024303 51.706068 
L 152.065693 51.706068 
L 152.1482 50.914654 
L 152.312136 50.914654 
L 152.393571 49.859434 
L 152.75573 49.859434 
L 152.75573 49.06802 
L 152.874916 49.06802 
L 152.874916 48.856976 
L 153.032666 48.856976 
L 153.111048 48.223844 
L 153.228011 48.223844 
L 153.228011 47.537951 
L 153.49813 47.432429 
L 153.49813 47.379668 
L 153.726614 47.379668 
L 153.802162 46.95758 
L 153.839823 46.95758 
L 153.839823 46.799298 
L 154.101358 46.746537 
L 154.212341 45.955122 
L 154.468783 45.955122 
L 154.468783 45.796839 
L 154.649839 45.796839 
L 154.721776 44.74162 
L 155.18278 44.636098 
L 155.18278 44.425054 
L 155.391799 44.319532 
L 155.495444 43.739161 
L 155.701037 43.6864 
L 155.802997 42.736702 
L 155.938089 42.736702 
L 156.005274 41.945288 
L 156.105602 41.945288 
L 156.172192 41.681483 
L 156.403417 41.575961 
L 156.403417 41.5232 
L 156.631834 41.417678 
L 156.631834 41.259395 
L 156.88953 41.259395 
L 156.88953 41.048351 
L 157.175281 40.99559 
L 157.175281 40.890068 
L 157.642093 40.784546 
L 157.734081 39.571044 
L 157.856036 39.518283 
L 157.856036 39.307239 
L 158.0375 39.201717 
L 158.0375 38.621346 
L 158.276759 38.621346 
L 158.276759 38.093737 
L 158.717331 38.040976 
L 158.804221 37.513366 
L 159.062507 37.407844 
L 159.062507 37.144039 
L 159.317295 37.144039 
L 159.317295 36.932995 
L 160.329943 36.827473 
L 160.329943 36.66919 
L 160.568234 36.66919 
L 160.568234 36.405385 
L 160.751508 36.352624 
L 160.803545 36.14158 
L 161.617145 36.08882 
L 161.617145 35.825015 
L 162.301277 35.772254 
L 162.301277 35.666732 
L 162.515995 35.613971 
L 162.515995 35.455688 
L 164.194282 35.350166 
L 164.194282 35.191883 
L 164.876089 35.086361 
L 164.917893 34.875317 
L 165.249018 34.822556 
L 165.249018 34.50599 
L 165.794904 34.453229 
L 165.874446 33.97838 
L 165.973402 33.97838 
L 165.973402 33.503532 
L 166.150222 33.450771 
L 166.150222 33.239727 
L 166.325396 33.186966 
L 166.325396 32.975922 
L 166.441278 32.975922 
L 166.537305 31.498615 
L 166.670924 31.498615 
L 166.670924 31.287571 
L 167.084795 31.182049 
L 167.121972 30.390634 
L 167.288365 30.337873 
L 167.343504 29.757502 
L 167.507957 29.757502 
L 167.544308 29.493698 
L 167.742992 29.493698 
L 167.742992 29.335415 
L 168.169334 29.229893 
L 168.221954 28.544 
L 168.378936 28.544 
L 168.378936 28.280195 
L 168.534619 28.280195 
L 168.534619 28.121912 
L 168.689024 28.121912 
L 168.689024 27.805346 
L 168.842171 27.805346 
L 168.876036 27.43602 
L 169.027674 27.43602 
L 169.094679 26.855649 
L 169.327334 26.855649 
L 169.327334 26.644605 
L 169.606029 26.591844 
L 169.606029 26.433561 
L 170.167131 26.3808 
L 170.198694 25.958712 
L 170.650504 25.85319 
L 170.757955 25.536624 
L 171.15177 25.431102 
L 171.15177 25.378341 
L 173.369117 25.27282 
L 173.369117 24.956254 
L 175.376408 24.956254 
L 175.424244 24.375883 
L 175.77919 24.270361 
L 175.802616 23.742751 
L 176.012153 23.637229 
L 176.012153 23.373424 
L 176.242267 23.320663 
L 176.344907 23.10962 
L 176.446989 23.10962 
L 176.503464 22.634771 
L 176.593471 22.634771 
L 176.649508 21.896117 
L 176.894106 21.896117 
L 176.971271 21.579551 
L 177.080959 21.579551 
L 177.157362 21.157463 
L 177.395487 21.157463 
L 177.395487 20.99918 
L 177.651866 20.99918 
L 177.651866 20.735376 
L 177.998778 20.682615 
L 178.07155 20.207766 
L 178.164702 20.207766 
L 178.267667 19.943961 
L 178.370071 19.8912 
L 178.46176 19.152546 
L 178.684026 19.152546 
L 178.684026 18.994263 
L 179.101194 18.941502 
L 179.101194 18.730459 
L 180.364317 18.624937 
L 180.364317 18.572176 
L 180.692116 18.572176 
L 180.692116 18.202849 
L 180.889661 18.202849 
L 180.889661 17.991805 
L 181.093992 17.939044 
L 181.190936 17.411434 
L 181.287383 17.305912 
L 181.304866 16.62002 
L 181.461485 16.62002 
L 181.461485 16.039649 
L 181.63399 16.039649 
L 181.65973 15.775844 
L 181.855908 15.723083 
L 181.932119 15.089951 
L 182.158919 15.03719 
L 182.158919 14.720624 
L 182.308614 14.720624 
L 182.383017 14.45682 
L 182.432456 14.45682 
L 182.522758 13.454361 
L 182.547311 13.454361 
L 182.645203 12.504663 
L 183.158861 12.399141 
L 183.158861 12.188098 
L 183.995068 12.082576 
L 183.995068 11.977054 
L 184.340243 11.871532 
L 184.340243 11.76601 
L 185.268681 11.660488 
L 185.268681 11.554966 
L 185.395644 11.449444 
L 185.451798 11.2384 
L 187.40714 11.132878 
L 187.40714 11.080117 
L 187.589442 10.974595 
L 187.589442 10.921834 
L 188.052881 10.869073 
L 188.052881 10.446985 
L 188.210911 10.446985 
L 188.22906 9.391766 
L 188.349609 9.391766 
L 188.457446 8.653112 
L 189.126424 8.600351 
L 189.235643 8.389307 
L 189.406814 8.389307 
L 189.406814 7.96722 
L 190.196537 7.861698 
L 190.196537 7.756176 
L 198.083588 7.650654 
L 198.083588 7.43961 
L 205.98476 7.334088 
L 205.98476 7.281327 
L 206.295123 7.175805 
L 206.295123 7.123044 
L 228.05637 7.123044 
L 228.05637 6.912 
L 360.8064 6.912 
L 360.8064 6.912 
" style="fill:none;stroke:#ff7500;stroke-linecap:square;stroke-width:1.5;"/>
   </g>
   <g id="line2d_40">
    <defs>
     <path d="M 0 -6 
L -1.347084 -1.854102 
L -5.706339 -1.854102 
L -2.179628 0.708204 
L -3.526712 4.854102 
L -0 2.291796 
L 3.526712 4.854102 
L 2.179628 0.708204 
L 5.706339 -1.854102 
L 1.347084 -1.854102 
z
" id="m4b8ad4fa62" style="stroke:#ff7500;stroke-linejoin:bevel;stroke-width:1.5;"/>
    </defs>
    <g>
     <use style="fill-opacity:0;stroke:#ff7500;stroke-linejoin:bevel;stroke-width:1.5;" x="90.230539" xlink:href="#m4b8ad4fa62" y="212.204956"/>
     <use style="fill-opacity:0;stroke:#ff7500;stroke-linejoin:bevel;stroke-width:1.5;" x="125.526971" xlink:href="#m4b8ad4fa62" y="101.512429"/>
     <use style="fill-opacity:0;stroke:#ff7500;stroke-linejoin:bevel;stroke-width:1.5;" x="200.360844" xlink:href="#m4b8ad4fa62" y="7.43961"/>
     <use style="fill-opacity:0;stroke:#ff7500;stroke-linejoin:bevel;stroke-width:1.5;" x="228.05637" xlink:href="#m4b8ad4fa62" y="6.912"/>
     <use style="fill-opacity:0;stroke:#ff7500;stroke-linejoin:bevel;stroke-width:1.5;" x="228.05637" xlink:href="#m4b8ad4fa62" y="6.912"/>
     <use style="fill-opacity:0;stroke:#ff7500;stroke-linejoin:bevel;stroke-width:1.5;" x="360.8064" xlink:href="#m4b8ad4fa62" y="6.912"/>
    </g>
   </g>
   <g id="line2d_41">
    <path style="fill:none;stroke:#ff7500;stroke-linecap:square;stroke-width:1.5;"/>
    <g/>
   </g>
   <g id="line2d_42">
    <path d="M 360.8064 39.36 
L 380.514816 293.10336 
" style="fill:none;stroke:#ff00ff;stroke-linecap:square;stroke-width:1.5;"/>
    <g>
     <use style="fill-opacity:0;stroke:#ff00ff;stroke-linejoin:miter;stroke-width:1.5;" x="360.8064" xlink:href="#m4acf9d9f66" y="39.36"/>
     <use style="fill-opacity:0;stroke:#ff00ff;stroke-linejoin:miter;stroke-width:1.5;" x="380.514816" xlink:href="#m4acf9d9f66" y="293.10336"/>
    </g>
   </g>
   <g id="line2d_43">
    <path d="M 360.8064 6.912 
L 380.514816 152.928 
" style="fill:none;stroke:#ff7500;stroke-linecap:square;stroke-width:1.5;"/>
    <g>
     <use style="fill-opacity:0;stroke:#ff7500;stroke-linejoin:bevel;stroke-width:1.5;" x="360.8064" xlink:href="#m4b8ad4fa62" y="6.912"/>
     <use style="fill-opacity:0;stroke:#ff7500;stroke-linejoin:bevel;stroke-width:1.5;" x="380.514816" xlink:href="#m4b8ad4fa62" y="152.928"/>
    </g>
   </g>
   <g id="line2d_44">
    <path d="M 360.8064 6.912 
L 380.514816 12.75264 
" style="fill:none;stroke:#000080;stroke-linecap:square;stroke-width:1.5;"/>
    <g>
     <use style="fill-opacity:0;stroke:#000080;stroke-width:1.5;" x="360.8064" xlink:href="#maa98d43095" y="6.912"/>
     <use style="fill-opacity:0;stroke:#000080;stroke-width:1.5;" x="380.514816" xlink:href="#maa98d43095" y="12.75264"/>
    </g>
   </g>
   <g id="line2d_45">
    <path d="M 360.8064 298.944 
L 360.8064 6.912 
" style="fill:none;stroke:#000000;stroke-linecap:square;stroke-width:1.5;"/>
   </g>
   <g id="patch_3">
    <path d="M 57.6 298.944 
L 360.8064 298.944 
" style="fill:none;stroke:#000000;stroke-linecap:square;stroke-linejoin:miter;stroke-width:0.8;"/>
   </g>
   <g id="patch_4">
    <path d="M 57.6 6.912 
L 360.8064 6.912 
" style="fill:none;stroke:#000000;stroke-linecap:square;stroke-linejoin:miter;stroke-width:0.8;"/>
   </g>
   <g id="text_13">
    <!-- fmincon -->
    <g transform="translate(386.578944 296.966485)scale(0.14 -0.14)">
     <use xlink:href="#DejaVuSans-102"/>
     <use x="35.205078" xlink:href="#DejaVuSans-109"/>
     <use x="132.617188" xlink:href="#DejaVuSans-105"/>
     <use x="160.400391" xlink:href="#DejaVuSans-110"/>
     <use x="223.779297" xlink:href="#DejaVuSans-99"/>
     <use x="278.759766" xlink:href="#DejaVuSans-111"/>
     <use x="339.941406" xlink:href="#DejaVuSans-110"/>
    </g>
   </g>
   <g id="text_14">
    <!-- slsqp -->
    <g transform="translate(386.578944 156.791125)scale(0.14 -0.14)">
     <defs>
      <path d="M 14.796875 27.296875 
Q 14.796875 17.390625 18.875 11.75 
Q 22.953125 6.109375 30.078125 6.109375 
Q 37.203125 6.109375 41.296875 11.75 
Q 45.40625 17.390625 45.40625 27.296875 
Q 45.40625 37.203125 41.296875 42.84375 
Q 37.203125 48.484375 30.078125 48.484375 
Q 22.953125 48.484375 18.875 42.84375 
Q 14.796875 37.203125 14.796875 27.296875 
z
M 45.40625 8.203125 
Q 42.578125 3.328125 38.25 0.953125 
Q 33.9375 -1.421875 27.875 -1.421875 
Q 17.96875 -1.421875 11.734375 6.484375 
Q 5.515625 14.40625 5.515625 27.296875 
Q 5.515625 40.1875 11.734375 48.09375 
Q 17.96875 56 27.875 56 
Q 33.9375 56 38.25 53.625 
Q 42.578125 51.265625 45.40625 46.390625 
L 45.40625 54.6875 
L 54.390625 54.6875 
L 54.390625 -20.796875 
L 45.40625 -20.796875 
z
" id="DejaVuSans-113"/>
     </defs>
     <use xlink:href="#DejaVuSans-115"/>
     <use x="52.099609" xlink:href="#DejaVuSans-108"/>
     <use x="79.882812" xlink:href="#DejaVuSans-115"/>
     <use x="131.982422" xlink:href="#DejaVuSans-113"/>
     <use x="195.458984" xlink:href="#DejaVuSans-112"/>
    </g>
   </g>
   <g id="text_15">
    <!-- cobyla -->
    <g transform="translate(386.578944 16.615765)scale(0.14 -0.14)">
     <defs>
      <path d="M 48.6875 27.296875 
Q 48.6875 37.203125 44.609375 42.84375 
Q 40.53125 48.484375 33.40625 48.484375 
Q 26.265625 48.484375 22.1875 42.84375 
Q 18.109375 37.203125 18.109375 27.296875 
Q 18.109375 17.390625 22.1875 11.75 
Q 26.265625 6.109375 33.40625 6.109375 
Q 40.53125 6.109375 44.609375 11.75 
Q 48.6875 17.390625 48.6875 27.296875 
z
M 18.109375 46.390625 
Q 20.953125 51.265625 25.265625 53.625 
Q 29.59375 56 35.59375 56 
Q 45.5625 56 51.78125 48.09375 
Q 58.015625 40.1875 58.015625 27.296875 
Q 58.015625 14.40625 51.78125 6.484375 
Q 45.5625 -1.421875 35.59375 -1.421875 
Q 29.59375 -1.421875 25.265625 0.953125 
Q 20.953125 3.328125 18.109375 8.203125 
L 18.109375 0 
L 9.078125 0 
L 9.078125 75.984375 
L 18.109375 75.984375 
z
" id="DejaVuSans-98"/>
      <path d="M 32.171875 -5.078125 
Q 28.375 -14.84375 24.75 -17.8125 
Q 21.140625 -20.796875 15.09375 -20.796875 
L 7.90625 -20.796875 
L 7.90625 -13.28125 
L 13.1875 -13.28125 
Q 16.890625 -13.28125 18.9375 -11.515625 
Q 21 -9.765625 23.484375 -3.21875 
L 25.09375 0.875 
L 2.984375 54.6875 
L 12.5 54.6875 
L 29.59375 11.921875 
L 46.6875 54.6875 
L 56.203125 54.6875 
z
" id="DejaVuSans-121"/>
     </defs>
     <use xlink:href="#DejaVuSans-99"/>
     <use x="54.980469" xlink:href="#DejaVuSans-111"/>
     <use x="116.162109" xlink:href="#DejaVuSans-98"/>
     <use x="179.638672" xlink:href="#DejaVuSans-121"/>
     <use x="238.818359" xlink:href="#DejaVuSans-108"/>
     <use x="266.601562" xlink:href="#DejaVuSans-97"/>
    </g>
   </g>
   <g id="text_16">
    <!-- bbob-constrained f6, f12, f18, f24, f30, f36, f42, f48, f54, 3-D -->
    <g transform="translate(60.632064 17.582726)scale(0.102 -0.102)">
     <defs>
      <path d="M 4.890625 31.390625 
L 31.203125 31.390625 
L 31.203125 23.390625 
L 4.890625 23.390625 
z
" id="DejaVuSans-45"/>
      <path d="M 40.578125 39.3125 
Q 47.65625 37.796875 51.625 33 
Q 55.609375 28.21875 55.609375 21.1875 
Q 55.609375 10.40625 48.1875 4.484375 
Q 40.765625 -1.421875 27.09375 -1.421875 
Q 22.515625 -1.421875 17.65625 -0.515625 
Q 12.796875 0.390625 7.625 2.203125 
L 7.625 11.71875 
Q 11.71875 9.328125 16.59375 8.109375 
Q 21.484375 6.890625 26.8125 6.890625 
Q 36.078125 6.890625 40.9375 10.546875 
Q 45.796875 14.203125 45.796875 21.1875 
Q 45.796875 27.640625 41.28125 31.265625 
Q 36.765625 34.90625 28.71875 34.90625 
L 20.21875 34.90625 
L 20.21875 43.015625 
L 29.109375 43.015625 
Q 36.375 43.015625 40.234375 45.921875 
Q 44.09375 48.828125 44.09375 54.296875 
Q 44.09375 59.90625 40.109375 62.90625 
Q 36.140625 65.921875 28.71875 65.921875 
Q 24.65625 65.921875 20.015625 65.03125 
Q 15.375 64.15625 9.8125 62.3125 
L 9.8125 71.09375 
Q 15.4375 72.65625 20.34375 73.4375 
Q 25.25 74.21875 29.59375 74.21875 
Q 40.828125 74.21875 47.359375 69.109375 
Q 53.90625 64.015625 53.90625 55.328125 
Q 53.90625 49.265625 50.4375 45.09375 
Q 46.96875 40.921875 40.578125 39.3125 
z
" id="DejaVuSans-51"/>
      <path d="M 10.796875 72.90625 
L 49.515625 72.90625 
L 49.515625 64.59375 
L 19.828125 64.59375 
L 19.828125 46.734375 
Q 21.96875 47.46875 24.109375 47.828125 
Q 26.265625 48.1875 28.421875 48.1875 
Q 40.625 48.1875 47.75 41.5 
Q 54.890625 34.8125 54.890625 23.390625 
Q 54.890625 11.625 47.5625 5.09375 
Q 40.234375 -1.421875 26.90625 -1.421875 
Q 22.3125 -1.421875 17.546875 -0.640625 
Q 12.796875 0.140625 7.71875 1.703125 
L 7.71875 11.625 
Q 12.109375 9.234375 16.796875 8.0625 
Q 21.484375 6.890625 26.703125 6.890625 
Q 35.15625 6.890625 40.078125 11.328125 
Q 45.015625 15.765625 45.015625 23.390625 
Q 45.015625 31 40.078125 35.4375 
Q 35.15625 39.890625 26.703125 39.890625 
Q 22.75 39.890625 18.8125 39.015625 
Q 14.890625 38.140625 10.796875 36.28125 
z
" id="DejaVuSans-53"/>
      <path d="M 19.671875 64.796875 
L 19.671875 8.109375 
L 31.59375 8.109375 
Q 46.6875 8.109375 53.6875 14.9375 
Q 60.6875 21.78125 60.6875 36.53125 
Q 60.6875 51.171875 53.6875 57.984375 
Q 46.6875 64.796875 31.59375 64.796875 
z
M 9.8125 72.90625 
L 30.078125 72.90625 
Q 51.265625 72.90625 61.171875 64.09375 
Q 71.09375 55.28125 71.09375 36.53125 
Q 71.09375 17.671875 61.125 8.828125 
Q 51.171875 0 30.078125 0 
L 9.8125 0 
z
" id="DejaVuSans-68"/>
     </defs>
     <use xlink:href="#DejaVuSans-98"/>
     <use x="63.476562" xlink:href="#DejaVuSans-98"/>
     <use x="126.953125" xlink:href="#DejaVuSans-111"/>
     <use x="188.134766" xlink:href="#DejaVuSans-98"/>
     <use x="251.611328" xlink:href="#DejaVuSans-45"/>
     <use x="287.695312" xlink:href="#DejaVuSans-99"/>
     <use x="342.675781" xlink:href="#DejaVuSans-111"/>
     <use x="403.857422" xlink:href="#DejaVuSans-110"/>
     <use x="467.236328" xlink:href="#DejaVuSans-115"/>
     <use x="519.335938" xlink:href="#DejaVuSans-116"/>
     <use x="558.544922" xlink:href="#DejaVuSans-114"/>
     <use x="599.658203" xlink:href="#DejaVuSans-97"/>
     <use x="660.9375" xlink:href="#DejaVuSans-105"/>
     <use x="688.720703" xlink:href="#DejaVuSans-110"/>
     <use x="752.099609" xlink:href="#DejaVuSans-101"/>
     <use x="813.623047" xlink:href="#DejaVuSans-100"/>
     <use x="877.099609" xlink:href="#DejaVuSans-32"/>
     <use x="908.886719" xlink:href="#DejaVuSans-102"/>
     <use x="944.091797" xlink:href="#DejaVuSans-54"/>
     <use x="1007.714844" xlink:href="#DejaVuSans-44"/>
     <use x="1039.501953" xlink:href="#DejaVuSans-32"/>
     <use x="1071.289062" xlink:href="#DejaVuSans-102"/>
     <use x="1106.494141" xlink:href="#DejaVuSans-49"/>
     <use x="1170.117188" xlink:href="#DejaVuSans-50"/>
     <use x="1233.740234" xlink:href="#DejaVuSans-44"/>
     <use x="1265.527344" xlink:href="#DejaVuSans-32"/>
     <use x="1297.314453" xlink:href="#DejaVuSans-102"/>
     <use x="1332.519531" xlink:href="#DejaVuSans-49"/>
     <use x="1396.142578" xlink:href="#DejaVuSans-56"/>
     <use x="1459.765625" xlink:href="#DejaVuSans-44"/>
     <use x="1491.552734" xlink:href="#DejaVuSans-32"/>
     <use x="1523.339844" xlink:href="#DejaVuSans-102"/>
     <use x="1558.544922" xlink:href="#DejaVuSans-50"/>
     <use x="1622.167969" xlink:href="#DejaVuSans-52"/>
     <use x="1685.791016" xlink:href="#DejaVuSans-44"/>
     <use x="1717.578125" xlink:href="#DejaVuSans-32"/>
     <use x="1749.365234" xlink:href="#DejaVuSans-102"/>
     <use x="1784.570312" xlink:href="#DejaVuSans-51"/>
     <use x="1848.193359" xlink:href="#DejaVuSans-48"/>
     <use x="1911.816406" xlink:href="#DejaVuSans-44"/>
     <use x="1943.603516" xlink:href="#DejaVuSans-32"/>
     <use x="1975.390625" xlink:href="#DejaVuSans-102"/>
     <use x="2010.595703" xlink:href="#DejaVuSans-51"/>
     <use x="2074.21875" xlink:href="#DejaVuSans-54"/>
     <use x="2137.841797" xlink:href="#DejaVuSans-44"/>
     <use x="2169.628906" xlink:href="#DejaVuSans-32"/>
     <use x="2201.416016" xlink:href="#DejaVuSans-102"/>
     <use x="2236.621094" xlink:href="#DejaVuSans-52"/>
     <use x="2300.244141" xlink:href="#DejaVuSans-50"/>
     <use x="2363.867188" xlink:href="#DejaVuSans-44"/>
     <use x="2395.654297" xlink:href="#DejaVuSans-32"/>
     <use x="2427.441406" xlink:href="#DejaVuSans-102"/>
     <use x="2462.646484" xlink:href="#DejaVuSans-52"/>
     <use x="2526.269531" xlink:href="#DejaVuSans-56"/>
     <use x="2589.892578" xlink:href="#DejaVuSans-44"/>
     <use x="2621.679688" xlink:href="#DejaVuSans-32"/>
     <use x="2653.466797" xlink:href="#DejaVuSans-102"/>
     <use x="2688.671875" xlink:href="#DejaVuSans-53"/>
     <use x="2752.294922" xlink:href="#DejaVuSans-52"/>
     <use x="2815.917969" xlink:href="#DejaVuSans-44"/>
     <use x="2847.705078" xlink:href="#DejaVuSans-32"/>
     <use x="2879.492188" xlink:href="#DejaVuSans-51"/>
     <use x="2943.115234" xlink:href="#DejaVuSans-45"/>
     <use x="2979.199219" xlink:href="#DejaVuSans-68"/>
    </g>
    <!-- 41 targets: 100..1e-06 -->
    <g transform="translate(60.632064 29.004495)scale(0.102 -0.102)">
     <defs>
      <path d="M 11.71875 12.40625 
L 22.015625 12.40625 
L 22.015625 0 
L 11.71875 0 
z
M 11.71875 51.703125 
L 22.015625 51.703125 
L 22.015625 39.3125 
L 11.71875 39.3125 
z
" id="DejaVuSans-58"/>
     </defs>
     <use xlink:href="#DejaVuSans-52"/>
     <use x="63.623047" xlink:href="#DejaVuSans-49"/>
     <use x="127.246094" xlink:href="#DejaVuSans-32"/>
     <use x="159.033203" xlink:href="#DejaVuSans-116"/>
     <use x="198.242188" xlink:href="#DejaVuSans-97"/>
     <use x="259.521484" xlink:href="#DejaVuSans-114"/>
     <use x="298.884766" xlink:href="#DejaVuSans-103"/>
     <use x="362.361328" xlink:href="#DejaVuSans-101"/>
     <use x="423.884766" xlink:href="#DejaVuSans-116"/>
     <use x="463.09375" xlink:href="#DejaVuSans-115"/>
     <use x="515.193359" xlink:href="#DejaVuSans-58"/>
     <use x="548.884766" xlink:href="#DejaVuSans-32"/>
     <use x="580.671875" xlink:href="#DejaVuSans-49"/>
     <use x="644.294922" xlink:href="#DejaVuSans-48"/>
     <use x="707.917969" xlink:href="#DejaVuSans-48"/>
     <use x="771.541016" xlink:href="#DejaVuSans-46"/>
     <use x="803.328125" xlink:href="#DejaVuSans-46"/>
     <use x="835.115234" xlink:href="#DejaVuSans-49"/>
     <use x="898.738281" xlink:href="#DejaVuSans-101"/>
     <use x="960.261719" xlink:href="#DejaVuSans-45"/>
     <use x="996.345703" xlink:href="#DejaVuSans-48"/>
     <use x="1059.96875" xlink:href="#DejaVuSans-54"/>
    </g>
    <!-- evals = f-evals + g-evals -->
    <g transform="translate(60.632064 40.426264)scale(0.102 -0.102)">
     <defs>
      <path d="M 10.59375 45.40625 
L 73.1875 45.40625 
L 73.1875 37.203125 
L 10.59375 37.203125 
z
M 10.59375 25.484375 
L 73.1875 25.484375 
L 73.1875 17.1875 
L 10.59375 17.1875 
z
" id="DejaVuSans-61"/>
      <path d="M 46 62.703125 
L 46 35.5 
L 73.1875 35.5 
L 73.1875 27.203125 
L 46 27.203125 
L 46 0 
L 37.796875 0 
L 37.796875 27.203125 
L 10.59375 27.203125 
L 10.59375 35.5 
L 37.796875 35.5 
L 37.796875 62.703125 
z
" id="DejaVuSans-43"/>
     </defs>
     <use xlink:href="#DejaVuSans-101"/>
     <use x="61.523438" xlink:href="#DejaVuSans-118"/>
     <use x="120.703125" xlink:href="#DejaVuSans-97"/>
     <use x="181.982422" xlink:href="#DejaVuSans-108"/>
     <use x="209.765625" xlink:href="#DejaVuSans-115"/>
     <use x="261.865234" xlink:href="#DejaVuSans-32"/>
     <use x="293.652344" xlink:href="#DejaVuSans-61"/>
     <use x="377.441406" xlink:href="#DejaVuSans-32"/>
     <use x="409.228516" xlink:href="#DejaVuSans-102"/>
     <use x="438.933594" xlink:href="#DejaVuSans-45"/>
     <use x="475.017578" xlink:href="#DejaVuSans-101"/>
     <use x="536.541016" xlink:href="#DejaVuSans-118"/>
     <use x="595.720703" xlink:href="#DejaVuSans-97"/>
     <use x="657" xlink:href="#DejaVuSans-108"/>
     <use x="684.783203" xlink:href="#DejaVuSans-115"/>
     <use x="736.882812" xlink:href="#DejaVuSans-32"/>
     <use x="768.669922" xlink:href="#DejaVuSans-43"/>
     <use x="852.458984" xlink:href="#DejaVuSans-32"/>
     <use x="884.246094" xlink:href="#DejaVuSans-103"/>
     <use x="947.722656" xlink:href="#DejaVuSans-45"/>
     <use x="983.806641" xlink:href="#DejaVuSans-101"/>
     <use x="1045.330078" xlink:href="#DejaVuSans-118"/>
     <use x="1104.509766" xlink:href="#DejaVuSans-97"/>
     <use x="1165.789062" xlink:href="#DejaVuSans-108"/>
     <use x="1193.572266" xlink:href="#DejaVuSans-115"/>
    </g>
    <!-- 15 instances -->
    <g transform="translate(60.632064 51.848032)scale(0.102 -0.102)">
     <use xlink:href="#DejaVuSans-49"/>
     <use x="63.623047" xlink:href="#DejaVuSans-53"/>
     <use x="127.246094" xlink:href="#DejaVuSans-32"/>
     <use x="159.033203" xlink:href="#DejaVuSans-105"/>
     <use x="186.816406" xlink:href="#DejaVuSans-110"/>
     <use x="250.195312" xlink:href="#DejaVuSans-115"/>
     <use x="302.294922" xlink:href="#DejaVuSans-116"/>
     <use x="341.503906" xlink:href="#DejaVuSans-97"/>
     <use x="402.783203" xlink:href="#DejaVuSans-110"/>
     <use x="466.162109" xlink:href="#DejaVuSans-99"/>
     <use x="521.142578" xlink:href="#DejaVuSans-101"/>
     <use x="582.666016" xlink:href="#DejaVuSans-115"/>
    </g>
   </g>
   <g id="text_17">
    <!-- v2.4.159 -->
    <g style="fill:#808080;" transform="translate(187.15945 293.943992)scale(0.1 -0.1)">
     <defs>
      <path d="M 10.984375 1.515625 
L 10.984375 10.5 
Q 14.703125 8.734375 18.5 7.8125 
Q 22.3125 6.890625 25.984375 6.890625 
Q 35.75 6.890625 40.890625 13.453125 
Q 46.046875 20.015625 46.78125 33.40625 
Q 43.953125 29.203125 39.59375 26.953125 
Q 35.25 24.703125 29.984375 24.703125 
Q 19.046875 24.703125 12.671875 31.3125 
Q 6.296875 37.9375 6.296875 49.421875 
Q 6.296875 60.640625 12.9375 67.421875 
Q 19.578125 74.21875 30.609375 74.21875 
Q 43.265625 74.21875 49.921875 64.515625 
Q 56.59375 54.828125 56.59375 36.375 
Q 56.59375 19.140625 48.40625 8.859375 
Q 40.234375 -1.421875 26.421875 -1.421875 
Q 22.703125 -1.421875 18.890625 -0.6875 
Q 15.09375 0.046875 10.984375 1.515625 
z
M 30.609375 32.421875 
Q 37.25 32.421875 41.125 36.953125 
Q 45.015625 41.5 45.015625 49.421875 
Q 45.015625 57.28125 41.125 61.84375 
Q 37.25 66.40625 30.609375 66.40625 
Q 23.96875 66.40625 20.09375 61.84375 
Q 16.21875 57.28125 16.21875 49.421875 
Q 16.21875 41.5 20.09375 36.953125 
Q 23.96875 32.421875 30.609375 32.421875 
z
" id="DejaVuSans-57"/>
     </defs>
     <use xlink:href="#DejaVuSans-118"/>
     <use x="59.179688" xlink:href="#DejaVuSans-50"/>
     <use x="122.802734" xlink:href="#DejaVuSans-46"/>
     <use x="154.589844" xlink:href="#DejaVuSans-52"/>
     <use x="218.212891" xlink:href="#DejaVuSans-46"/>
     <use x="250" xlink:href="#DejaVuSans-49"/>
     <use x="313.623047" xlink:href="#DejaVuSans-53"/>
     <use x="377.246094" xlink:href="#DejaVuSans-57"/>
    </g>
   </g>
  </g>
 </g>
 <defs>
  <clipPath id="p670fdcbb79">
   <rect height="292.032" width="303.2064" x="57.6" y="6.912"/>
  </clipPath>
 </defs>
</svg>
