<?xml version="1.0" encoding="utf-8" standalone="no"?>
<!DOCTYPE svg PUBLIC "-//W3C//DTD SVG 1.1//EN"
  "http://www.w3.org/Graphics/SVG/1.1/DTD/svg11.dtd">
<!-- Created with matplotlib (https://matplotlib.org/) -->
<svg height="345.6pt" version="1.1" viewBox="0 0 460.8 345.6" width="460.8pt" xmlns="http://www.w3.org/2000/svg" xmlns:xlink="http://www.w3.org/1999/xlink">
 <metadata>
  <rdf:RDF xmlns:cc="http://creativecommons.org/ns#" xmlns:dc="http://purl.org/dc/elements/1.1/" xmlns:rdf="http://www.w3.org/1999/02/22-rdf-syntax-ns#">
   <cc:Work>
    <dc:type rdf:resource="http://purl.org/dc/dcmitype/StillImage"/>
    <dc:date>2022-02-09T09:59:40.559462</dc:date>
    <dc:format>image/svg+xml</dc:format>
    <dc:creator>
     <cc:Agent>
      <dc:title>Matplotlib v3.3.3, https://matplotlib.org/</dc:title>
     </cc:Agent>
    </dc:creator>
   </cc:Work>
  </rdf:RDF>
 </metadata>
 <defs>
  <style type="text/css">*{stroke-linecap:butt;stroke-linejoin:round;}</style>
 </defs>
 <g id="figure_1">
  <g id="patch_1">
   <path d="M 0 345.6 
L 460.8 345.6 
L 460.8 0 
L 0 0 
z
" style="fill:#ffffff;"/>
  </g>
  <g id="axes_1">
   <g id="patch_2">
    <path d="M 57.6 298.944 
L 360.8064 298.944 
L 360.8064 6.912 
L 57.6 6.912 
z
" style="fill:#ffffff;"/>
   </g>
   <g id="matplotlib.axis_1">
    <g id="xtick_1">
     <g id="line2d_1">
      <path clip-path="url(#pf1ab37557d)" d="M 57.6 298.944 
L 57.6 6.912 
" style="fill:none;stroke:#b0b0b0;stroke-linecap:square;stroke-width:0.8;"/>
     </g>
     <g id="line2d_2">
      <defs>
       <path d="M 0 0 
L 0 3.5 
" id="m9c10631793" style="stroke:#000000;stroke-width:0.8;"/>
      </defs>
      <g>
       <use style="stroke:#000000;stroke-width:0.8;" x="57.6" xlink:href="#m9c10631793" y="298.944"/>
      </g>
     </g>
     <g id="text_1">
      <!-- 0 -->
      <g transform="translate(52.191875 318.861344)scale(0.17 -0.17)">
       <defs>
        <path d="M 31.78125 66.40625 
Q 24.171875 66.40625 20.328125 58.90625 
Q 16.5 51.421875 16.5 36.375 
Q 16.5 21.390625 20.328125 13.890625 
Q 24.171875 6.390625 31.78125 6.390625 
Q 39.453125 6.390625 43.28125 13.890625 
Q 47.125 21.390625 47.125 36.375 
Q 47.125 51.421875 43.28125 58.90625 
Q 39.453125 66.40625 31.78125 66.40625 
z
M 31.78125 74.21875 
Q 44.046875 74.21875 50.515625 64.515625 
Q 56.984375 54.828125 56.984375 36.375 
Q 56.984375 17.96875 50.515625 8.265625 
Q 44.046875 -1.421875 31.78125 -1.421875 
Q 19.53125 -1.421875 13.0625 8.265625 
Q 6.59375 17.96875 6.59375 36.375 
Q 6.59375 54.828125 13.0625 64.515625 
Q 19.53125 74.21875 31.78125 74.21875 
z
" id="DejaVuSans-48"/>
       </defs>
       <use xlink:href="#DejaVuSans-48"/>
      </g>
     </g>
    </g>
    <g id="xtick_2">
     <g id="line2d_3">
      <path clip-path="url(#pf1ab37557d)" d="M 144.2304 298.944 
L 144.2304 6.912 
" style="fill:none;stroke:#b0b0b0;stroke-linecap:square;stroke-width:0.8;"/>
     </g>
     <g id="line2d_4">
      <g>
       <use style="stroke:#000000;stroke-width:0.8;" x="144.2304" xlink:href="#m9c10631793" y="298.944"/>
      </g>
     </g>
     <g id="text_2">
      <!-- 2 -->
      <g transform="translate(138.822275 318.861344)scale(0.17 -0.17)">
       <defs>
        <path d="M 19.1875 8.296875 
L 53.609375 8.296875 
L 53.609375 0 
L 7.328125 0 
L 7.328125 8.296875 
Q 12.9375 14.109375 22.625 23.890625 
Q 32.328125 33.6875 34.8125 36.53125 
Q 39.546875 41.84375 41.421875 45.53125 
Q 43.3125 49.21875 43.3125 52.78125 
Q 43.3125 58.59375 39.234375 62.25 
Q 35.15625 65.921875 28.609375 65.921875 
Q 23.96875 65.921875 18.8125 64.3125 
Q 13.671875 62.703125 7.8125 59.421875 
L 7.8125 69.390625 
Q 13.765625 71.78125 18.9375 73 
Q 24.125 74.21875 28.421875 74.21875 
Q 39.75 74.21875 46.484375 68.546875 
Q 53.21875 62.890625 53.21875 53.421875 
Q 53.21875 48.921875 51.53125 44.890625 
Q 49.859375 40.875 45.40625 35.40625 
Q 44.1875 33.984375 37.640625 27.21875 
Q 31.109375 20.453125 19.1875 8.296875 
z
" id="DejaVuSans-50"/>
       </defs>
       <use xlink:href="#DejaVuSans-50"/>
      </g>
     </g>
    </g>
    <g id="xtick_3">
     <g id="line2d_5">
      <path clip-path="url(#pf1ab37557d)" d="M 230.8608 298.944 
L 230.8608 6.912 
" style="fill:none;stroke:#b0b0b0;stroke-linecap:square;stroke-width:0.8;"/>
     </g>
     <g id="line2d_6">
      <g>
       <use style="stroke:#000000;stroke-width:0.8;" x="230.8608" xlink:href="#m9c10631793" y="298.944"/>
      </g>
     </g>
     <g id="text_3">
      <!-- 4 -->
      <g transform="translate(225.452675 318.861344)scale(0.17 -0.17)">
       <defs>
        <path d="M 37.796875 64.3125 
L 12.890625 25.390625 
L 37.796875 25.390625 
z
M 35.203125 72.90625 
L 47.609375 72.90625 
L 47.609375 25.390625 
L 58.015625 25.390625 
L 58.015625 17.1875 
L 47.609375 17.1875 
L 47.609375 0 
L 37.796875 0 
L 37.796875 17.1875 
L 4.890625 17.1875 
L 4.890625 26.703125 
z
" id="DejaVuSans-52"/>
       </defs>
       <use xlink:href="#DejaVuSans-52"/>
      </g>
     </g>
    </g>
    <g id="xtick_4">
     <g id="line2d_7">
      <path clip-path="url(#pf1ab37557d)" d="M 317.4912 298.944 
L 317.4912 6.912 
" style="fill:none;stroke:#b0b0b0;stroke-linecap:square;stroke-width:0.8;"/>
     </g>
     <g id="line2d_8">
      <g>
       <use style="stroke:#000000;stroke-width:0.8;" x="317.4912" xlink:href="#m9c10631793" y="298.944"/>
      </g>
     </g>
     <g id="text_4">
      <!-- 6 -->
      <g transform="translate(312.083075 318.861344)scale(0.17 -0.17)">
       <defs>
        <path d="M 33.015625 40.375 
Q 26.375 40.375 22.484375 35.828125 
Q 18.609375 31.296875 18.609375 23.390625 
Q 18.609375 15.53125 22.484375 10.953125 
Q 26.375 6.390625 33.015625 6.390625 
Q 39.65625 6.390625 43.53125 10.953125 
Q 47.40625 15.53125 47.40625 23.390625 
Q 47.40625 31.296875 43.53125 35.828125 
Q 39.65625 40.375 33.015625 40.375 
z
M 52.59375 71.296875 
L 52.59375 62.3125 
Q 48.875 64.0625 45.09375 64.984375 
Q 41.3125 65.921875 37.59375 65.921875 
Q 27.828125 65.921875 22.671875 59.328125 
Q 17.53125 52.734375 16.796875 39.40625 
Q 19.671875 43.65625 24.015625 45.921875 
Q 28.375 48.1875 33.59375 48.1875 
Q 44.578125 48.1875 50.953125 41.515625 
Q 57.328125 34.859375 57.328125 23.390625 
Q 57.328125 12.15625 50.6875 5.359375 
Q 44.046875 -1.421875 33.015625 -1.421875 
Q 20.359375 -1.421875 13.671875 8.265625 
Q 6.984375 17.96875 6.984375 36.375 
Q 6.984375 53.65625 15.1875 63.9375 
Q 23.390625 74.21875 37.203125 74.21875 
Q 40.921875 74.21875 44.703125 73.484375 
Q 48.484375 72.75 52.59375 71.296875 
z
" id="DejaVuSans-54"/>
       </defs>
       <use xlink:href="#DejaVuSans-54"/>
      </g>
     </g>
    </g>
    <g id="xtick_5">
     <g id="line2d_9">
      <path clip-path="url(#pf1ab37557d)" d="M 100.9152 298.944 
L 100.9152 6.912 
" style="fill:none;stroke:#b0b0b0;stroke-linecap:square;stroke-width:0.8;"/>
     </g>
     <g id="line2d_10">
      <defs>
       <path d="M 0 0 
L 0 2 
" id="mf60b77a40e" style="stroke:#000000;stroke-width:0.6;"/>
      </defs>
      <g>
       <use style="stroke:#000000;stroke-width:0.6;" x="100.9152" xlink:href="#mf60b77a40e" y="298.944"/>
      </g>
     </g>
    </g>
    <g id="xtick_6">
     <g id="line2d_11">
      <path clip-path="url(#pf1ab37557d)" d="M 187.5456 298.944 
L 187.5456 6.912 
" style="fill:none;stroke:#b0b0b0;stroke-linecap:square;stroke-width:0.8;"/>
     </g>
     <g id="line2d_12">
      <g>
       <use style="stroke:#000000;stroke-width:0.6;" x="187.5456" xlink:href="#mf60b77a40e" y="298.944"/>
      </g>
     </g>
    </g>
    <g id="xtick_7">
     <g id="line2d_13">
      <path clip-path="url(#pf1ab37557d)" d="M 274.176 298.944 
L 274.176 6.912 
" style="fill:none;stroke:#b0b0b0;stroke-linecap:square;stroke-width:0.8;"/>
     </g>
     <g id="line2d_14">
      <g>
       <use style="stroke:#000000;stroke-width:0.6;" x="274.176" xlink:href="#mf60b77a40e" y="298.944"/>
      </g>
     </g>
    </g>
    <g id="xtick_8">
     <g id="line2d_15">
      <path clip-path="url(#pf1ab37557d)" d="M 360.8064 298.944 
L 360.8064 6.912 
" style="fill:none;stroke:#b0b0b0;stroke-linecap:square;stroke-width:0.8;"/>
     </g>
     <g id="line2d_16">
      <g>
       <use style="stroke:#000000;stroke-width:0.6;" x="360.8064" xlink:href="#mf60b77a40e" y="298.944"/>
      </g>
     </g>
    </g>
    <g id="text_5">
     <!-- log10(evals / dimension) -->
     <g transform="translate(104.238825 339.314156)scale(0.17 -0.17)">
      <defs>
       <path d="M 9.421875 75.984375 
L 18.40625 75.984375 
L 18.40625 0 
L 9.421875 0 
z
" id="DejaVuSans-108"/>
       <path d="M 30.609375 48.390625 
Q 23.390625 48.390625 19.1875 42.75 
Q 14.984375 37.109375 14.984375 27.296875 
Q 14.984375 17.484375 19.15625 11.84375 
Q 23.34375 6.203125 30.609375 6.203125 
Q 37.796875 6.203125 41.984375 11.859375 
Q 46.1875 17.53125 46.1875 27.296875 
Q 46.1875 37.015625 41.984375 42.703125 
Q 37.796875 48.390625 30.609375 48.390625 
z
M 30.609375 56 
Q 42.328125 56 49.015625 48.375 
Q 55.71875 40.765625 55.71875 27.296875 
Q 55.71875 13.875 49.015625 6.21875 
Q 42.328125 -1.421875 30.609375 -1.421875 
Q 18.84375 -1.421875 12.171875 6.21875 
Q 5.515625 13.875 5.515625 27.296875 
Q 5.515625 40.765625 12.171875 48.375 
Q 18.84375 56 30.609375 56 
z
" id="DejaVuSans-111"/>
       <path d="M 45.40625 27.984375 
Q 45.40625 37.75 41.375 43.109375 
Q 37.359375 48.484375 30.078125 48.484375 
Q 22.859375 48.484375 18.828125 43.109375 
Q 14.796875 37.75 14.796875 27.984375 
Q 14.796875 18.265625 18.828125 12.890625 
Q 22.859375 7.515625 30.078125 7.515625 
Q 37.359375 7.515625 41.375 12.890625 
Q 45.40625 18.265625 45.40625 27.984375 
z
M 54.390625 6.78125 
Q 54.390625 -7.171875 48.1875 -13.984375 
Q 42 -20.796875 29.203125 -20.796875 
Q 24.46875 -20.796875 20.265625 -20.09375 
Q 16.0625 -19.390625 12.109375 -17.921875 
L 12.109375 -9.1875 
Q 16.0625 -11.328125 19.921875 -12.34375 
Q 23.78125 -13.375 27.78125 -13.375 
Q 36.625 -13.375 41.015625 -8.765625 
Q 45.40625 -4.15625 45.40625 5.171875 
L 45.40625 9.625 
Q 42.625 4.78125 38.28125 2.390625 
Q 33.9375 0 27.875 0 
Q 17.828125 0 11.671875 7.65625 
Q 5.515625 15.328125 5.515625 27.984375 
Q 5.515625 40.671875 11.671875 48.328125 
Q 17.828125 56 27.875 56 
Q 33.9375 56 38.28125 53.609375 
Q 42.625 51.21875 45.40625 46.390625 
L 45.40625 54.6875 
L 54.390625 54.6875 
z
" id="DejaVuSans-103"/>
       <path d="M 12.40625 8.296875 
L 28.515625 8.296875 
L 28.515625 63.921875 
L 10.984375 60.40625 
L 10.984375 69.390625 
L 28.421875 72.90625 
L 38.28125 72.90625 
L 38.28125 8.296875 
L 54.390625 8.296875 
L 54.390625 0 
L 12.40625 0 
z
" id="DejaVuSans-49"/>
       <path d="M 31 75.875 
Q 24.46875 64.65625 21.28125 53.65625 
Q 18.109375 42.671875 18.109375 31.390625 
Q 18.109375 20.125 21.3125 9.0625 
Q 24.515625 -2 31 -13.1875 
L 23.1875 -13.1875 
Q 15.875 -1.703125 12.234375 9.375 
Q 8.59375 20.453125 8.59375 31.390625 
Q 8.59375 42.28125 12.203125 53.3125 
Q 15.828125 64.359375 23.1875 75.875 
z
" id="DejaVuSans-40"/>
       <path d="M 56.203125 29.59375 
L 56.203125 25.203125 
L 14.890625 25.203125 
Q 15.484375 15.921875 20.484375 11.0625 
Q 25.484375 6.203125 34.421875 6.203125 
Q 39.59375 6.203125 44.453125 7.46875 
Q 49.3125 8.734375 54.109375 11.28125 
L 54.109375 2.78125 
Q 49.265625 0.734375 44.1875 -0.34375 
Q 39.109375 -1.421875 33.890625 -1.421875 
Q 20.796875 -1.421875 13.15625 6.1875 
Q 5.515625 13.8125 5.515625 26.8125 
Q 5.515625 40.234375 12.765625 48.109375 
Q 20.015625 56 32.328125 56 
Q 43.359375 56 49.78125 48.890625 
Q 56.203125 41.796875 56.203125 29.59375 
z
M 47.21875 32.234375 
Q 47.125 39.59375 43.09375 43.984375 
Q 39.0625 48.390625 32.421875 48.390625 
Q 24.90625 48.390625 20.390625 44.140625 
Q 15.875 39.890625 15.1875 32.171875 
z
" id="DejaVuSans-101"/>
       <path d="M 2.984375 54.6875 
L 12.5 54.6875 
L 29.59375 8.796875 
L 46.6875 54.6875 
L 56.203125 54.6875 
L 35.6875 0 
L 23.484375 0 
z
" id="DejaVuSans-118"/>
       <path d="M 34.28125 27.484375 
Q 23.390625 27.484375 19.1875 25 
Q 14.984375 22.515625 14.984375 16.5 
Q 14.984375 11.71875 18.140625 8.90625 
Q 21.296875 6.109375 26.703125 6.109375 
Q 34.1875 6.109375 38.703125 11.40625 
Q 43.21875 16.703125 43.21875 25.484375 
L 43.21875 27.484375 
z
M 52.203125 31.203125 
L 52.203125 0 
L 43.21875 0 
L 43.21875 8.296875 
Q 40.140625 3.328125 35.546875 0.953125 
Q 30.953125 -1.421875 24.3125 -1.421875 
Q 15.921875 -1.421875 10.953125 3.296875 
Q 6 8.015625 6 15.921875 
Q 6 25.140625 12.171875 29.828125 
Q 18.359375 34.515625 30.609375 34.515625 
L 43.21875 34.515625 
L 43.21875 35.40625 
Q 43.21875 41.609375 39.140625 45 
Q 35.0625 48.390625 27.6875 48.390625 
Q 23 48.390625 18.546875 47.265625 
Q 14.109375 46.140625 10.015625 43.890625 
L 10.015625 52.203125 
Q 14.9375 54.109375 19.578125 55.046875 
Q 24.21875 56 28.609375 56 
Q 40.484375 56 46.34375 49.84375 
Q 52.203125 43.703125 52.203125 31.203125 
z
" id="DejaVuSans-97"/>
       <path d="M 44.28125 53.078125 
L 44.28125 44.578125 
Q 40.484375 46.53125 36.375 47.5 
Q 32.28125 48.484375 27.875 48.484375 
Q 21.1875 48.484375 17.84375 46.4375 
Q 14.5 44.390625 14.5 40.28125 
Q 14.5 37.15625 16.890625 35.375 
Q 19.28125 33.59375 26.515625 31.984375 
L 29.59375 31.296875 
Q 39.15625 29.25 43.1875 25.515625 
Q 47.21875 21.78125 47.21875 15.09375 
Q 47.21875 7.46875 41.1875 3.015625 
Q 35.15625 -1.421875 24.609375 -1.421875 
Q 20.21875 -1.421875 15.453125 -0.5625 
Q 10.6875 0.296875 5.421875 2 
L 5.421875 11.28125 
Q 10.40625 8.6875 15.234375 7.390625 
Q 20.0625 6.109375 24.8125 6.109375 
Q 31.15625 6.109375 34.5625 8.28125 
Q 37.984375 10.453125 37.984375 14.40625 
Q 37.984375 18.0625 35.515625 20.015625 
Q 33.0625 21.96875 24.703125 23.78125 
L 21.578125 24.515625 
Q 13.234375 26.265625 9.515625 29.90625 
Q 5.8125 33.546875 5.8125 39.890625 
Q 5.8125 47.609375 11.28125 51.796875 
Q 16.75 56 26.8125 56 
Q 31.78125 56 36.171875 55.265625 
Q 40.578125 54.546875 44.28125 53.078125 
z
" id="DejaVuSans-115"/>
       <path id="DejaVuSans-32"/>
       <path d="M 25.390625 72.90625 
L 33.6875 72.90625 
L 8.296875 -9.28125 
L 0 -9.28125 
z
" id="DejaVuSans-47"/>
       <path d="M 45.40625 46.390625 
L 45.40625 75.984375 
L 54.390625 75.984375 
L 54.390625 0 
L 45.40625 0 
L 45.40625 8.203125 
Q 42.578125 3.328125 38.25 0.953125 
Q 33.9375 -1.421875 27.875 -1.421875 
Q 17.96875 -1.421875 11.734375 6.484375 
Q 5.515625 14.40625 5.515625 27.296875 
Q 5.515625 40.1875 11.734375 48.09375 
Q 17.96875 56 27.875 56 
Q 33.9375 56 38.25 53.625 
Q 42.578125 51.265625 45.40625 46.390625 
z
M 14.796875 27.296875 
Q 14.796875 17.390625 18.875 11.75 
Q 22.953125 6.109375 30.078125 6.109375 
Q 37.203125 6.109375 41.296875 11.75 
Q 45.40625 17.390625 45.40625 27.296875 
Q 45.40625 37.203125 41.296875 42.84375 
Q 37.203125 48.484375 30.078125 48.484375 
Q 22.953125 48.484375 18.875 42.84375 
Q 14.796875 37.203125 14.796875 27.296875 
z
" id="DejaVuSans-100"/>
       <path d="M 9.421875 54.6875 
L 18.40625 54.6875 
L 18.40625 0 
L 9.421875 0 
z
M 9.421875 75.984375 
L 18.40625 75.984375 
L 18.40625 64.59375 
L 9.421875 64.59375 
z
" id="DejaVuSans-105"/>
       <path d="M 52 44.1875 
Q 55.375 50.25 60.0625 53.125 
Q 64.75 56 71.09375 56 
Q 79.640625 56 84.28125 50.015625 
Q 88.921875 44.046875 88.921875 33.015625 
L 88.921875 0 
L 79.890625 0 
L 79.890625 32.71875 
Q 79.890625 40.578125 77.09375 44.375 
Q 74.3125 48.1875 68.609375 48.1875 
Q 61.625 48.1875 57.5625 43.546875 
Q 53.515625 38.921875 53.515625 30.90625 
L 53.515625 0 
L 44.484375 0 
L 44.484375 32.71875 
Q 44.484375 40.625 41.703125 44.40625 
Q 38.921875 48.1875 33.109375 48.1875 
Q 26.21875 48.1875 22.15625 43.53125 
Q 18.109375 38.875 18.109375 30.90625 
L 18.109375 0 
L 9.078125 0 
L 9.078125 54.6875 
L 18.109375 54.6875 
L 18.109375 46.1875 
Q 21.1875 51.21875 25.484375 53.609375 
Q 29.78125 56 35.6875 56 
Q 41.65625 56 45.828125 52.96875 
Q 50 49.953125 52 44.1875 
z
" id="DejaVuSans-109"/>
       <path d="M 54.890625 33.015625 
L 54.890625 0 
L 45.90625 0 
L 45.90625 32.71875 
Q 45.90625 40.484375 42.875 44.328125 
Q 39.84375 48.1875 33.796875 48.1875 
Q 26.515625 48.1875 22.3125 43.546875 
Q 18.109375 38.921875 18.109375 30.90625 
L 18.109375 0 
L 9.078125 0 
L 9.078125 54.6875 
L 18.109375 54.6875 
L 18.109375 46.1875 
Q 21.34375 51.125 25.703125 53.5625 
Q 30.078125 56 35.796875 56 
Q 45.21875 56 50.046875 50.171875 
Q 54.890625 44.34375 54.890625 33.015625 
z
" id="DejaVuSans-110"/>
       <path d="M 8.015625 75.875 
L 15.828125 75.875 
Q 23.140625 64.359375 26.78125 53.3125 
Q 30.421875 42.28125 30.421875 31.390625 
Q 30.421875 20.453125 26.78125 9.375 
Q 23.140625 -1.703125 15.828125 -13.1875 
L 8.015625 -13.1875 
Q 14.5 -2 17.703125 9.0625 
Q 20.90625 20.125 20.90625 31.390625 
Q 20.90625 42.671875 17.703125 53.65625 
Q 14.5 64.65625 8.015625 75.875 
z
" id="DejaVuSans-41"/>
      </defs>
      <use xlink:href="#DejaVuSans-108"/>
      <use x="27.783203" xlink:href="#DejaVuSans-111"/>
      <use x="88.964844" xlink:href="#DejaVuSans-103"/>
      <use x="152.441406" xlink:href="#DejaVuSans-49"/>
      <use x="216.064453" xlink:href="#DejaVuSans-48"/>
      <use x="279.6875" xlink:href="#DejaVuSans-40"/>
      <use x="318.701172" xlink:href="#DejaVuSans-101"/>
      <use x="380.224609" xlink:href="#DejaVuSans-118"/>
      <use x="439.404297" xlink:href="#DejaVuSans-97"/>
      <use x="500.683594" xlink:href="#DejaVuSans-108"/>
      <use x="528.466797" xlink:href="#DejaVuSans-115"/>
      <use x="580.566406" xlink:href="#DejaVuSans-32"/>
      <use x="612.353516" xlink:href="#DejaVuSans-47"/>
      <use x="646.044922" xlink:href="#DejaVuSans-32"/>
      <use x="677.832031" xlink:href="#DejaVuSans-100"/>
      <use x="741.308594" xlink:href="#DejaVuSans-105"/>
      <use x="769.091797" xlink:href="#DejaVuSans-109"/>
      <use x="866.503906" xlink:href="#DejaVuSans-101"/>
      <use x="928.027344" xlink:href="#DejaVuSans-110"/>
      <use x="991.40625" xlink:href="#DejaVuSans-115"/>
      <use x="1043.505859" xlink:href="#DejaVuSans-105"/>
      <use x="1071.289062" xlink:href="#DejaVuSans-111"/>
      <use x="1132.470703" xlink:href="#DejaVuSans-110"/>
      <use x="1195.849609" xlink:href="#DejaVuSans-41"/>
     </g>
    </g>
   </g>
   <g id="matplotlib.axis_2">
    <g id="ytick_1">
     <g id="line2d_17">
      <path clip-path="url(#pf1ab37557d)" d="M 57.6 298.944 
L 360.8064 298.944 
" style="fill:none;stroke:#b0b0b0;stroke-linecap:square;stroke-width:0.8;"/>
     </g>
     <g id="line2d_18">
      <defs>
       <path d="M 0 0 
L -3.5 0 
" id="md9a790c407" style="stroke:#000000;stroke-width:0.8;"/>
      </defs>
      <g>
       <use style="stroke:#000000;stroke-width:0.8;" x="57.6" xlink:href="#md9a790c407" y="298.944"/>
      </g>
     </g>
     <g id="text_6">
      <!-- 0.0 -->
      <g transform="translate(25.155 305.02275)scale(0.16 -0.16)">
       <defs>
        <path d="M 10.6875 12.40625 
L 21 12.40625 
L 21 0 
L 10.6875 0 
z
" id="DejaVuSans-46"/>
       </defs>
       <use xlink:href="#DejaVuSans-48"/>
       <use x="63.623047" xlink:href="#DejaVuSans-46"/>
       <use x="95.410156" xlink:href="#DejaVuSans-48"/>
      </g>
     </g>
    </g>
    <g id="ytick_2">
     <g id="line2d_19">
      <path clip-path="url(#pf1ab37557d)" d="M 57.6 240.5376 
L 360.8064 240.5376 
" style="fill:none;stroke:#b0b0b0;stroke-linecap:square;stroke-width:0.8;"/>
     </g>
     <g id="line2d_20">
      <g>
       <use style="stroke:#000000;stroke-width:0.8;" x="57.6" xlink:href="#md9a790c407" y="240.5376"/>
      </g>
     </g>
     <g id="text_7">
      <!-- 0.2 -->
      <g transform="translate(25.155 246.61635)scale(0.16 -0.16)">
       <use xlink:href="#DejaVuSans-48"/>
       <use x="63.623047" xlink:href="#DejaVuSans-46"/>
       <use x="95.410156" xlink:href="#DejaVuSans-50"/>
      </g>
     </g>
    </g>
    <g id="ytick_3">
     <g id="line2d_21">
      <path clip-path="url(#pf1ab37557d)" d="M 57.6 182.1312 
L 360.8064 182.1312 
" style="fill:none;stroke:#b0b0b0;stroke-linecap:square;stroke-width:0.8;"/>
     </g>
     <g id="line2d_22">
      <g>
       <use style="stroke:#000000;stroke-width:0.8;" x="57.6" xlink:href="#md9a790c407" y="182.1312"/>
      </g>
     </g>
     <g id="text_8">
      <!-- 0.4 -->
      <g transform="translate(25.155 188.20995)scale(0.16 -0.16)">
       <use xlink:href="#DejaVuSans-48"/>
       <use x="63.623047" xlink:href="#DejaVuSans-46"/>
       <use x="95.410156" xlink:href="#DejaVuSans-52"/>
      </g>
     </g>
    </g>
    <g id="ytick_4">
     <g id="line2d_23">
      <path clip-path="url(#pf1ab37557d)" d="M 57.6 123.7248 
L 360.8064 123.7248 
" style="fill:none;stroke:#b0b0b0;stroke-linecap:square;stroke-width:0.8;"/>
     </g>
     <g id="line2d_24">
      <g>
       <use style="stroke:#000000;stroke-width:0.8;" x="57.6" xlink:href="#md9a790c407" y="123.7248"/>
      </g>
     </g>
     <g id="text_9">
      <!-- 0.6 -->
      <g transform="translate(25.155 129.80355)scale(0.16 -0.16)">
       <use xlink:href="#DejaVuSans-48"/>
       <use x="63.623047" xlink:href="#DejaVuSans-46"/>
       <use x="95.410156" xlink:href="#DejaVuSans-54"/>
      </g>
     </g>
    </g>
    <g id="ytick_5">
     <g id="line2d_25">
      <path clip-path="url(#pf1ab37557d)" d="M 57.6 65.3184 
L 360.8064 65.3184 
" style="fill:none;stroke:#b0b0b0;stroke-linecap:square;stroke-width:0.8;"/>
     </g>
     <g id="line2d_26">
      <g>
       <use style="stroke:#000000;stroke-width:0.8;" x="57.6" xlink:href="#md9a790c407" y="65.3184"/>
      </g>
     </g>
     <g id="text_10">
      <!-- 0.8 -->
      <g transform="translate(25.155 71.39715)scale(0.16 -0.16)">
       <defs>
        <path d="M 31.78125 34.625 
Q 24.75 34.625 20.71875 30.859375 
Q 16.703125 27.09375 16.703125 20.515625 
Q 16.703125 13.921875 20.71875 10.15625 
Q 24.75 6.390625 31.78125 6.390625 
Q 38.8125 6.390625 42.859375 10.171875 
Q 46.921875 13.96875 46.921875 20.515625 
Q 46.921875 27.09375 42.890625 30.859375 
Q 38.875 34.625 31.78125 34.625 
z
M 21.921875 38.8125 
Q 15.578125 40.375 12.03125 44.71875 
Q 8.5 49.078125 8.5 55.328125 
Q 8.5 64.0625 14.71875 69.140625 
Q 20.953125 74.21875 31.78125 74.21875 
Q 42.671875 74.21875 48.875 69.140625 
Q 55.078125 64.0625 55.078125 55.328125 
Q 55.078125 49.078125 51.53125 44.71875 
Q 48 40.375 41.703125 38.8125 
Q 48.828125 37.15625 52.796875 32.3125 
Q 56.78125 27.484375 56.78125 20.515625 
Q 56.78125 9.90625 50.3125 4.234375 
Q 43.84375 -1.421875 31.78125 -1.421875 
Q 19.734375 -1.421875 13.25 4.234375 
Q 6.78125 9.90625 6.78125 20.515625 
Q 6.78125 27.484375 10.78125 32.3125 
Q 14.796875 37.15625 21.921875 38.8125 
z
M 18.3125 54.390625 
Q 18.3125 48.734375 21.84375 45.5625 
Q 25.390625 42.390625 31.78125 42.390625 
Q 38.140625 42.390625 41.71875 45.5625 
Q 45.3125 48.734375 45.3125 54.390625 
Q 45.3125 60.0625 41.71875 63.234375 
Q 38.140625 66.40625 31.78125 66.40625 
Q 25.390625 66.40625 21.84375 63.234375 
Q 18.3125 60.0625 18.3125 54.390625 
z
" id="DejaVuSans-56"/>
       </defs>
       <use xlink:href="#DejaVuSans-48"/>
       <use x="63.623047" xlink:href="#DejaVuSans-46"/>
       <use x="95.410156" xlink:href="#DejaVuSans-56"/>
      </g>
     </g>
    </g>
    <g id="ytick_6">
     <g id="line2d_27">
      <path clip-path="url(#pf1ab37557d)" d="M 57.6 6.912 
L 360.8064 6.912 
" style="fill:none;stroke:#b0b0b0;stroke-linecap:square;stroke-width:0.8;"/>
     </g>
     <g id="line2d_28">
      <g>
       <use style="stroke:#000000;stroke-width:0.8;" x="57.6" xlink:href="#md9a790c407" y="6.912"/>
      </g>
     </g>
     <g id="text_11">
      <!-- 1.0 -->
      <g transform="translate(25.155 12.99075)scale(0.16 -0.16)">
       <use xlink:href="#DejaVuSans-49"/>
       <use x="63.623047" xlink:href="#DejaVuSans-46"/>
       <use x="95.410156" xlink:href="#DejaVuSans-48"/>
      </g>
     </g>
    </g>
    <g id="text_12">
     <!-- Fraction of function,target pairs -->
     <g transform="translate(17.619531 287.313)rotate(-90)scale(0.17 -0.17)">
      <defs>
       <path d="M 9.8125 72.90625 
L 51.703125 72.90625 
L 51.703125 64.59375 
L 19.671875 64.59375 
L 19.671875 43.109375 
L 48.578125 43.109375 
L 48.578125 34.8125 
L 19.671875 34.8125 
L 19.671875 0 
L 9.8125 0 
z
" id="DejaVuSans-70"/>
       <path d="M 41.109375 46.296875 
Q 39.59375 47.171875 37.8125 47.578125 
Q 36.03125 48 33.890625 48 
Q 26.265625 48 22.1875 43.046875 
Q 18.109375 38.09375 18.109375 28.8125 
L 18.109375 0 
L 9.078125 0 
L 9.078125 54.6875 
L 18.109375 54.6875 
L 18.109375 46.1875 
Q 20.953125 51.171875 25.484375 53.578125 
Q 30.03125 56 36.53125 56 
Q 37.453125 56 38.578125 55.875 
Q 39.703125 55.765625 41.0625 55.515625 
z
" id="DejaVuSans-114"/>
       <path d="M 48.78125 52.59375 
L 48.78125 44.1875 
Q 44.96875 46.296875 41.140625 47.34375 
Q 37.3125 48.390625 33.40625 48.390625 
Q 24.65625 48.390625 19.8125 42.84375 
Q 14.984375 37.3125 14.984375 27.296875 
Q 14.984375 17.28125 19.8125 11.734375 
Q 24.65625 6.203125 33.40625 6.203125 
Q 37.3125 6.203125 41.140625 7.25 
Q 44.96875 8.296875 48.78125 10.40625 
L 48.78125 2.09375 
Q 45.015625 0.34375 40.984375 -0.53125 
Q 36.96875 -1.421875 32.421875 -1.421875 
Q 20.0625 -1.421875 12.78125 6.34375 
Q 5.515625 14.109375 5.515625 27.296875 
Q 5.515625 40.671875 12.859375 48.328125 
Q 20.21875 56 33.015625 56 
Q 37.15625 56 41.109375 55.140625 
Q 45.0625 54.296875 48.78125 52.59375 
z
" id="DejaVuSans-99"/>
       <path d="M 18.3125 70.21875 
L 18.3125 54.6875 
L 36.8125 54.6875 
L 36.8125 47.703125 
L 18.3125 47.703125 
L 18.3125 18.015625 
Q 18.3125 11.328125 20.140625 9.421875 
Q 21.96875 7.515625 27.59375 7.515625 
L 36.8125 7.515625 
L 36.8125 0 
L 27.59375 0 
Q 17.1875 0 13.234375 3.875 
Q 9.28125 7.765625 9.28125 18.015625 
L 9.28125 47.703125 
L 2.6875 47.703125 
L 2.6875 54.6875 
L 9.28125 54.6875 
L 9.28125 70.21875 
z
" id="DejaVuSans-116"/>
       <path d="M 37.109375 75.984375 
L 37.109375 68.5 
L 28.515625 68.5 
Q 23.6875 68.5 21.796875 66.546875 
Q 19.921875 64.59375 19.921875 59.515625 
L 19.921875 54.6875 
L 34.71875 54.6875 
L 34.71875 47.703125 
L 19.921875 47.703125 
L 19.921875 0 
L 10.890625 0 
L 10.890625 47.703125 
L 2.296875 47.703125 
L 2.296875 54.6875 
L 10.890625 54.6875 
L 10.890625 58.5 
Q 10.890625 67.625 15.140625 71.796875 
Q 19.390625 75.984375 28.609375 75.984375 
z
" id="DejaVuSans-102"/>
       <path d="M 8.5 21.578125 
L 8.5 54.6875 
L 17.484375 54.6875 
L 17.484375 21.921875 
Q 17.484375 14.15625 20.5 10.265625 
Q 23.53125 6.390625 29.59375 6.390625 
Q 36.859375 6.390625 41.078125 11.03125 
Q 45.3125 15.671875 45.3125 23.6875 
L 45.3125 54.6875 
L 54.296875 54.6875 
L 54.296875 0 
L 45.3125 0 
L 45.3125 8.40625 
Q 42.046875 3.421875 37.71875 1 
Q 33.40625 -1.421875 27.6875 -1.421875 
Q 18.265625 -1.421875 13.375 4.4375 
Q 8.5 10.296875 8.5 21.578125 
z
M 31.109375 56 
z
" id="DejaVuSans-117"/>
       <path d="M 11.71875 12.40625 
L 22.015625 12.40625 
L 22.015625 4 
L 14.015625 -11.625 
L 7.71875 -11.625 
L 11.71875 4 
z
" id="DejaVuSans-44"/>
       <path d="M 18.109375 8.203125 
L 18.109375 -20.796875 
L 9.078125 -20.796875 
L 9.078125 54.6875 
L 18.109375 54.6875 
L 18.109375 46.390625 
Q 20.953125 51.265625 25.265625 53.625 
Q 29.59375 56 35.59375 56 
Q 45.5625 56 51.78125 48.09375 
Q 58.015625 40.1875 58.015625 27.296875 
Q 58.015625 14.40625 51.78125 6.484375 
Q 45.5625 -1.421875 35.59375 -1.421875 
Q 29.59375 -1.421875 25.265625 0.953125 
Q 20.953125 3.328125 18.109375 8.203125 
z
M 48.6875 27.296875 
Q 48.6875 37.203125 44.609375 42.84375 
Q 40.53125 48.484375 33.40625 48.484375 
Q 26.265625 48.484375 22.1875 42.84375 
Q 18.109375 37.203125 18.109375 27.296875 
Q 18.109375 17.390625 22.1875 11.75 
Q 26.265625 6.109375 33.40625 6.109375 
Q 40.53125 6.109375 44.609375 11.75 
Q 48.6875 17.390625 48.6875 27.296875 
z
" id="DejaVuSans-112"/>
      </defs>
      <use xlink:href="#DejaVuSans-70"/>
      <use x="50.269531" xlink:href="#DejaVuSans-114"/>
      <use x="91.382812" xlink:href="#DejaVuSans-97"/>
      <use x="152.662109" xlink:href="#DejaVuSans-99"/>
      <use x="207.642578" xlink:href="#DejaVuSans-116"/>
      <use x="246.851562" xlink:href="#DejaVuSans-105"/>
      <use x="274.634766" xlink:href="#DejaVuSans-111"/>
      <use x="335.816406" xlink:href="#DejaVuSans-110"/>
      <use x="399.195312" xlink:href="#DejaVuSans-32"/>
      <use x="430.982422" xlink:href="#DejaVuSans-111"/>
      <use x="492.164062" xlink:href="#DejaVuSans-102"/>
      <use x="527.369141" xlink:href="#DejaVuSans-32"/>
      <use x="559.15625" xlink:href="#DejaVuSans-102"/>
      <use x="594.361328" xlink:href="#DejaVuSans-117"/>
      <use x="657.740234" xlink:href="#DejaVuSans-110"/>
      <use x="721.119141" xlink:href="#DejaVuSans-99"/>
      <use x="776.099609" xlink:href="#DejaVuSans-116"/>
      <use x="815.308594" xlink:href="#DejaVuSans-105"/>
      <use x="843.091797" xlink:href="#DejaVuSans-111"/>
      <use x="904.273438" xlink:href="#DejaVuSans-110"/>
      <use x="967.652344" xlink:href="#DejaVuSans-44"/>
      <use x="999.439453" xlink:href="#DejaVuSans-116"/>
      <use x="1038.648438" xlink:href="#DejaVuSans-97"/>
      <use x="1099.927734" xlink:href="#DejaVuSans-114"/>
      <use x="1139.291016" xlink:href="#DejaVuSans-103"/>
      <use x="1202.767578" xlink:href="#DejaVuSans-101"/>
      <use x="1264.291016" xlink:href="#DejaVuSans-116"/>
      <use x="1303.5" xlink:href="#DejaVuSans-32"/>
      <use x="1335.287109" xlink:href="#DejaVuSans-112"/>
      <use x="1398.763672" xlink:href="#DejaVuSans-97"/>
      <use x="1460.042969" xlink:href="#DejaVuSans-105"/>
      <use x="1487.826172" xlink:href="#DejaVuSans-114"/>
      <use x="1528.939453" xlink:href="#DejaVuSans-115"/>
     </g>
    </g>
   </g>
   <g id="line2d_29">
    <defs>
     <path d="M 0 1.5 
C 0.397805 1.5 0.77937 1.341951 1.06066 1.06066 
C 1.341951 0.77937 1.5 0.397805 1.5 0 
C 1.5 -0.397805 1.341951 -0.77937 1.06066 -1.06066 
C 0.77937 -1.341951 0.397805 -1.5 0 -1.5 
C -0.397805 -1.5 -0.77937 -1.341951 -1.06066 -1.06066 
C -1.341951 -0.77937 -1.5 -0.397805 -1.5 0 
C -1.5 0.397805 -1.341951 0.77937 -1.06066 1.06066 
C -0.77937 1.341951 -0.397805 1.5 0 1.5 
z
" id="m9a219d2798" style="stroke:#000080;"/>
    </defs>
    <g>
     <use style="fill:#000080;stroke:#000080;" x="222.179942" xlink:href="#m9a219d2798" y="6.912"/>
     <use style="fill:#000080;stroke:#000080;" x="222.179942" xlink:href="#m9a219d2798" y="6.912"/>
    </g>
   </g>
   <g id="line2d_30">
    <path d="M 88.613828 298.944 
L 88.613828 297.994302 
L 91.305777 297.994302 
L 91.305777 297.044605 
L 93.66029 297.044605 
L 93.66029 296.569756 
L 95.752617 296.569756 
L 95.752617 296.332332 
L 96.717523 296.332332 
L 96.717523 295.14521 
L 97.635342 295.14521 
L 97.635342 292.533541 
L 98.510456 292.533541 
L 98.510456 288.497327 
L 99.346662 288.497327 
L 99.346662 287.07278 
L 100.147275 287.07278 
L 100.147275 286.360507 
L 100.9152 286.360507 
L 100.9152 285.173385 
L 101.653002 285.173385 
L 101.653002 281.137171 
L 102.362957 281.137171 
L 102.362957 277.33838 
L 103.047088 277.33838 
L 103.047088 272.352468 
L 103.707211 272.352468 
L 103.707211 266.179434 
L 104.344952 266.179434 
L 104.344952 264.992312 
L 104.961779 264.992312 
L 104.961779 263.092917 
L 105.559021 263.092917 
L 105.559021 261.668371 
L 106.137884 261.668371 
L 106.137884 257.394732 
L 106.699465 257.394732 
L 106.699465 252.646244 
L 107.244765 252.646244 
L 107.244765 250.746849 
L 107.774703 250.746849 
L 107.774703 245.998361 
L 108.29012 245.998361 
L 108.29012 240.5376 
L 108.791791 240.5376 
L 108.791791 239.587902 
L 109.280431 239.587902 
L 109.280431 238.40078 
L 109.756698 238.40078 
L 109.756698 236.263961 
L 110.221204 236.263961 
L 110.221204 232.227746 
L 110.674517 232.227746 
L 110.674517 229.378654 
L 111.117162 229.378654 
L 111.117162 223.680468 
L 111.54963 223.680468 
L 111.54963 222.968195 
L 111.97238 222.968195 
L 111.97238 217.982283 
L 112.385837 217.982283 
L 112.385837 215.845463 
L 112.790402 215.845463 
L 112.790402 213.946068 
L 113.186449 213.946068 
L 113.186449 212.996371 
L 113.57433 212.996371 
L 113.57433 210.622127 
L 113.954374 210.622127 
L 113.954374 206.823337 
L 114.326893 206.823337 
L 114.326893 203.499395 
L 114.692177 203.499395 
L 114.692177 198.276059 
L 115.402131 198.276059 
L 115.402131 196.851512 
L 115.747307 196.851512 
L 115.747307 194.714693 
L 116.419219 194.714693 
L 116.419219 190.678478 
L 116.746385 190.678478 
L 116.746385 185.692566 
L 117.067958 185.692566 
L 117.067958 183.318322 
L 117.384126 183.318322 
L 117.384126 177.857561 
L 117.695068 177.857561 
L 117.695068 176.433015 
L 118.000953 176.433015 
L 118.000953 173.346498 
L 118.301945 173.346498 
L 118.301945 173.109073 
L 118.598196 173.109073 
L 118.598196 170.972254 
L 118.889854 170.972254 
L 118.889854 170.022556 
L 119.177058 170.022556 
L 119.177058 166.223766 
L 119.459944 166.223766 
L 119.459944 165.036644 
L 119.738639 165.036644 
L 119.738639 161.712702 
L 120.013265 161.712702 
L 120.013265 158.86361 
L 120.28394 158.86361 
L 120.28394 157.913912 
L 120.550775 157.913912 
L 120.550775 154.827395 
L 120.813877 154.827395 
L 120.813877 151.740878 
L 121.073351 151.740878 
L 121.073351 150.79118 
L 121.329295 150.79118 
L 121.329295 146.99239 
L 121.581803 146.99239 
L 121.581803 144.855571 
L 121.830966 144.855571 
L 121.830966 143.1936 
L 122.319605 143.1936 
L 122.319605 140.344507 
L 122.559246 140.344507 
L 122.559246 138.919961 
L 122.795872 138.919961 
L 122.795872 137.495415 
L 123.029559 137.495415 
L 123.029559 134.646322 
L 123.4884 134.646322 
L 123.4884 133.221776 
L 123.713691 133.221776 
L 123.713691 132.746927 
L 124.156336 132.746927 
L 124.156336 131.32238 
L 124.373813 131.32238 
L 124.373813 131.084956 
L 124.588805 131.084956 
L 124.588805 130.610107 
L 125.011554 130.610107 
L 125.011554 129.66041 
L 125.628382 129.66041 
L 125.628382 128.710712 
L 125.829577 128.710712 
L 125.829577 127.048741 
L 126.028642 127.048741 
L 126.028642 126.811317 
L 126.804487 126.811317 
L 126.804487 125.386771 
L 126.993549 125.386771 
L 126.993549 124.674498 
L 127.911368 124.674498 
L 127.911368 123.7248 
L 128.266313 123.7248 
L 128.266313 123.012527 
L 129.125437 123.012527 
L 129.125437 122.062829 
L 130.265881 122.062829 
L 130.265881 121.350556 
L 130.887807 121.350556 
L 130.887807 121.113132 
L 132.073179 121.113132 
L 132.073179 120.875707 
L 134.112526 120.875707 
L 134.112526 120.638283 
L 139.652679 120.638283 
L 139.652679 120.400859 
L 142.865233 120.400859 
L 142.865233 120.163434 
L 143.18612 120.163434 
L 143.18612 119.92601 
L 143.423243 119.92601 
L 143.423243 118.976312 
L 143.657415 118.976312 
L 143.657415 118.501463 
L 143.888708 118.501463 
L 143.888708 118.026615 
L 144.71325 118.026615 
L 144.71325 116.602068 
L 144.931992 116.602068 
L 145.004344 114.940098 
L 145.361989 114.940098 
L 145.361989 114.227824 
L 145.573357 114.227824 
L 145.573357 113.9904 
L 145.782376 113.9904 
L 145.851536 111.616156 
L 145.920443 111.616156 
L 145.989098 110.19161 
L 146.193574 110.19161 
L 146.193574 109.004488 
L 146.328666 109.004488 
L 146.328666 107.342517 
L 146.595975 107.342517 
L 146.595975 106.39282 
L 146.728219 106.39282 
L 146.728219 105.443122 
L 146.924857 105.443122 
L 146.924857 102.594029 
L 147.248088 102.594029 
L 147.312072 100.219785 
L 147.375841 100.219785 
L 147.375841 98.557815 
L 147.502732 98.557815 
L 147.502732 98.082966 
L 147.878349 98.082966 
L 147.878349 97.370693 
L 148.001907 97.370693 
L 148.001907 96.420995 
L 148.185734 96.420995 
L 148.185734 96.183571 
L 148.367783 96.183571 
L 148.428077 95.233873 
L 148.488177 95.233873 
L 148.488177 92.147356 
L 148.726679 92.147356 
L 148.726679 91.435083 
L 149.42456 91.435083 
L 149.510002 90.960234 
L 149.875833 90.960234 
L 149.875833 90.010537 
L 150.042308 90.010537 
L 150.042308 89.773112 
L 150.316534 89.773112 
L 150.316534 88.823415 
L 150.640414 88.823415 
L 150.640414 88.348566 
L 150.800286 88.348566 
L 150.800286 87.161444 
L 151.220087 87.161444 
L 151.220087 86.211746 
L 151.681429 86.211746 
L 151.782431 85.024624 
L 151.982822 85.024624 
L 152.032588 83.362654 
L 152.619733 83.362654 
L 152.619733 81.700683 
L 152.859068 81.700683 
L 152.859068 81.225834 
L 156.165543 81.225834 
L 156.245169 80.276137 
L 156.284856 80.276137 
L 156.324459 78.614166 
L 156.482044 78.614166 
L 156.560344 77.427044 
L 156.715973 77.427044 
L 156.793307 76.477346 
L 156.947029 76.477346 
L 157.023421 72.441132 
L 157.175281 72.441132 
L 157.213055 71.25401 
L 157.400797 71.25401 
L 157.400797 69.592039 
L 157.660526 69.592039 
L 157.660526 69.11719 
L 157.807349 69.11719 
L 157.916719 66.742946 
L 157.953034 66.742946 
L 157.953034 65.555824 
L 158.2053 65.555824 
L 158.2053 64.606127 
L 158.383441 64.606127 
L 158.454228 63.18158 
L 158.734741 63.18158 
L 158.804221 61.994459 
L 171.073664 61.994459 
L 171.073664 60.569912 
L 171.253422 60.569912 
L 171.253422 59.857639 
L 171.431479 59.857639 
L 171.449192 57.245971 
L 171.546318 57.245971 
L 171.546318 57.008546 
L 171.756506 57.008546 
L 171.773916 54.396878 
L 171.912619 54.396878 
L 171.981589 52.734907 
L 172.084572 52.734907 
L 172.084572 52.260059 
L 172.221012 52.260059 
L 172.221012 50.598088 
L 172.33959 50.598088 
L 172.407015 49.885815 
L 172.624492 49.885815 
L 172.724025 47.511571 
L 172.905144 47.511571 
L 173.003206 45.8496 
L 175.609652 45.8496 
L 175.609652 44.899902 
L 175.736948 44.899902 
L 175.76512 43.475356 
L 175.891372 43.475356 
L 175.988986 42.05081 
L 176.016783 42.05081 
L 176.086096 40.626263 
L 176.168936 40.626263 
L 176.265124 37.777171 
L 176.360823 37.777171 
L 176.442464 36.827473 
L 176.523753 36.827473 
L 176.523753 36.1152 
L 177.829275 36.1152 
L 177.929905 33.740956 
L 178.141974 33.740956 
L 178.141974 33.503532 
L 178.327129 33.503532 
L 178.376197 31.366712 
L 178.740186 31.366712 
L 178.740186 31.129288 
L 179.331607 31.129288 
L 179.331607 30.891863 
L 179.574564 30.891863 
L 179.574564 30.654439 
L 179.723408 30.654439 
L 179.723408 30.417015 
L 179.904999 30.417015 
L 179.904999 30.17959 
L 180.096038 30.17959 
L 180.096038 29.942166 
L 182.083622 29.942166 
L 182.173942 27.805346 
L 182.213946 27.805346 
L 182.323518 25.905951 
L 182.392915 25.905951 
L 182.491612 22.819434 
L 182.530946 22.819434 
L 182.599583 20.207766 
L 183.437067 20.207766 
L 183.437067 19.970341 
L 186.47346 19.970341 
L 186.47346 19.732917 
L 187.884892 19.732917 
L 187.995418 16.883824 
L 188.002764 16.883824 
L 188.002764 16.6464 
L 222.122557 16.6464 
L 222.179942 6.912 
L 360.8064 6.912 
L 360.8064 6.912 
" style="fill:none;stroke:#000080;stroke-linecap:square;stroke-width:1.5;"/>
   </g>
   <g id="line2d_31">
    <defs>
     <path d="M 0 6 
C 1.591219 6 3.117479 5.367802 4.242641 4.242641 
C 5.367802 3.117479 6 1.591219 6 0 
C 6 -1.591219 5.367802 -3.117479 4.242641 -4.242641 
C 3.117479 -5.367802 1.591219 -6 0 -6 
C -1.591219 -6 -3.117479 -5.367802 -4.242641 -4.242641 
C -5.367802 -3.117479 -6 -1.591219 -6 0 
C -6 1.591219 -5.367802 3.117479 -4.242641 4.242641 
C -3.117479 5.367802 -1.591219 6 0 6 
z
" id="m48ddb40262" style="stroke:#000080;stroke-width:1.5;"/>
    </defs>
    <g>
     <use style="fill-opacity:0;stroke:#000080;stroke-width:1.5;" x="121.329295" xlink:href="#m48ddb40262" y="150.79118"/>
     <use style="fill-opacity:0;stroke:#000080;stroke-width:1.5;" x="176.265124" xlink:href="#m48ddb40262" y="38.726868"/>
     <use style="fill-opacity:0;stroke:#000080;stroke-width:1.5;" x="222.179942" xlink:href="#m48ddb40262" y="9.04882"/>
     <use style="fill-opacity:0;stroke:#000080;stroke-width:1.5;" x="222.179942" xlink:href="#m48ddb40262" y="6.912"/>
     <use style="fill-opacity:0;stroke:#000080;stroke-width:1.5;" x="360.8064" xlink:href="#m48ddb40262" y="6.912"/>
    </g>
   </g>
   <g id="line2d_32">
    <path style="fill:none;stroke:#000080;stroke-linecap:square;stroke-width:1.5;"/>
    <g/>
   </g>
   <g id="line2d_33">
    <defs>
     <path d="M 0 1.5 
C 0.397805 1.5 0.77937 1.341951 1.06066 1.06066 
C 1.341951 0.77937 1.5 0.397805 1.5 0 
C 1.5 -0.397805 1.341951 -0.77937 1.06066 -1.06066 
C 0.77937 -1.341951 0.397805 -1.5 0 -1.5 
C -0.397805 -1.5 -0.77937 -1.341951 -1.06066 -1.06066 
C -1.341951 -0.77937 -1.5 -0.397805 -1.5 0 
C -1.5 0.397805 -1.341951 0.77937 -1.06066 1.06066 
C -0.77937 1.341951 -0.397805 1.5 0 1.5 
z
" id="me6046463d0" style="stroke:#ff00ff;"/>
    </defs>
    <g>
     <use style="fill:#ff00ff;stroke:#ff00ff;" x="233.098875" xlink:href="#me6046463d0" y="152.928"/>
     <use style="fill:#ff00ff;stroke:#ff00ff;" x="233.098875" xlink:href="#me6046463d0" y="152.928"/>
    </g>
   </g>
   <g id="line2d_34">
    <path d="M 95.752617 298.944 
L 95.752617 298.706576 
L 100.9152 298.706576 
L 100.9152 298.231727 
L 105.559021 298.231727 
L 105.559021 297.994302 
L 108.29012 297.994302 
L 108.29012 297.519454 
L 108.791791 297.519454 
L 108.791791 297.282029 
L 109.280431 297.282029 
L 109.280431 297.044605 
L 109.756698 297.044605 
L 109.756698 296.569756 
L 111.117162 296.569756 
L 111.117162 296.094907 
L 111.97238 296.094907 
L 111.97238 295.857483 
L 113.57433 295.857483 
L 113.57433 294.907785 
L 115.747307 294.907785 
L 115.747307 294.432937 
L 116.086263 294.432937 
L 116.086263 294.195512 
L 116.746385 294.195512 
L 116.746385 293.958088 
L 117.067958 293.958088 
L 117.067958 293.720663 
L 118.000953 293.720663 
L 118.000953 293.245815 
L 118.301945 293.245815 
L 118.301945 292.770966 
L 119.177058 292.770966 
L 119.177058 292.296117 
L 119.459944 292.296117 
L 119.459944 292.058693 
L 122.795872 292.058693 
L 122.795872 291.821268 
L 123.713691 291.821268 
L 123.713691 291.583844 
L 124.373813 291.583844 
L 124.373813 291.34642 
L 124.801367 291.34642 
L 124.801367 291.108995 
L 125.628382 291.108995 
L 125.628382 290.634146 
L 125.829577 290.634146 
L 125.829577 290.396722 
L 126.225624 290.396722 
L 126.225624 289.921873 
L 126.804487 289.921873 
L 126.804487 289.447024 
L 127.18073 289.447024 
L 127.18073 289.2096 
L 128.089678 289.2096 
L 128.089678 288.259902 
L 128.786481 288.259902 
L 128.786481 288.022478 
L 129.622688 288.022478 
L 129.622688 287.785054 
L 130.107132 287.785054 
L 130.107132 287.547629 
L 130.4233 287.547629 
L 130.4233 287.07278 
L 131.341119 287.07278 
L 131.341119 286.835356 
L 131.489828 286.835356 
L 131.489828 286.597932 
L 132.073179 286.597932 
L 132.073179 286.360507 
L 134.112526 286.360507 
L 134.112526 286.123083 
L 135.717106 286.123083 
L 135.717106 285.885659 
L 139.93843 285.885659 
L 140.032723 284.935961 
L 141.910969 284.935961 
L 141.910969 284.698537 
L 142.080444 284.698537 
L 142.080444 284.223688 
L 142.579895 284.223688 
L 142.579895 283.986263 
L 142.905644 283.986263 
L 142.905644 283.511415 
L 143.066428 283.511415 
L 143.066428 282.086868 
L 143.38393 282.086868 
L 143.462475 281.61202 
L 144.003296 281.61202 
L 144.003296 280.899746 
L 144.454795 280.899746 
L 144.454795 280.662322 
L 145.46797 280.662322 
L 145.46797 280.424898 
L 145.816988 280.424898 
L 145.816988 280.187473 
L 146.957431 280.187473 
L 146.957431 279.950049 
L 148.03267 279.950049 
L 148.03267 279.712624 
L 149.223672 279.712624 
L 149.223672 279.000351 
L 149.79204 279.000351 
L 149.79204 278.762927 
L 150.289291 278.762927 
L 150.343738 278.050654 
L 150.667154 278.050654 
L 150.667154 277.33838 
L 151.50336 277.33838 
L 151.60532 276.626107 
L 151.857828 276.626107 
L 151.907925 274.251863 
L 152.25492 274.251863 
L 152.25492 274.014439 
L 152.401695 274.014439 
L 152.498913 273.53959 
L 152.835271 273.53959 
L 152.882835 272.352468 
L 153.071898 272.352468 
L 153.071898 272.115044 
L 153.490466 272.115044 
L 153.490466 271.87762 
L 153.989717 271.87762 
L 153.989717 271.402771 
L 154.992656 271.402771 
L 154.992656 271.165346 
L 155.24573 271.165346 
L 155.24573 270.690498 
L 155.536743 270.690498 
L 155.536743 269.978224 
L 155.985143 269.978224 
L 155.985143 269.7408 
L 156.145584 269.7408 
L 156.145584 269.265951 
L 156.304668 269.265951 
L 156.304668 268.553678 
L 156.579868 268.553678 
L 156.618856 268.078829 
L 157.382107 268.078829 
L 157.382107 267.841405 
L 157.752425 267.841405 
L 157.752425 267.366556 
L 157.934885 267.366556 
L 157.934885 267.129132 
L 158.151527 267.129132 
L 158.151527 266.416859 
L 158.436556 266.416859 
L 158.436556 266.179434 
L 158.682463 266.179434 
L 158.786875 265.229737 
L 159.401463 265.229737 
L 159.50197 264.280039 
L 159.701388 264.280039 
L 159.701388 264.042615 
L 160.636516 264.042615 
L 160.636516 263.567766 
L 161.071844 263.567766 
L 161.071844 261.193522 
L 162.6625 261.193522 
L 162.6625 260.956098 
L 163.971658 260.956098 
L 163.971658 259.294127 
L 164.362764 259.294127 
L 164.362764 259.056702 
L 164.821605 259.056702 
L 164.821605 258.819278 
L 165.021997 258.819278 
L 165.121398 257.632156 
L 165.220276 257.632156 
L 165.269521 257.157307 
L 165.586508 257.157307 
L 165.586508 256.919883 
L 165.755007 256.919883 
L 165.862536 255.970185 
L 165.898243 255.970185 
L 165.933882 254.07079 
L 166.483591 254.07079 
L 166.483591 253.358517 
L 166.667119 253.358517 
L 166.735484 252.646244 
L 166.826251 252.646244 
L 166.826251 252.40882 
L 166.939098 252.40882 
L 166.939098 251.933971 
L 167.051272 251.933971 
L 167.095955 251.459122 
L 167.251516 251.459122 
L 167.251516 250.984273 
L 167.4058 250.984273 
L 167.4058 250.746849 
L 167.537044 250.746849 
L 167.537044 250.272 
L 168.493229 250.272 
L 168.596533 249.084878 
L 168.719753 249.084878 
L 168.719753 248.610029 
L 168.903083 248.610029 
L 168.903083 248.372605 
L 169.224656 248.372605 
L 169.224656 248.13518 
L 169.442591 248.13518 
L 169.491772 245.286088 
L 170.119687 245.286088 
L 170.119687 245.048663 
L 170.383845 245.048663 
L 170.383845 244.811239 
L 170.681267 244.811239 
L 170.681267 244.573815 
L 170.992209 244.573815 
L 170.992209 244.098966 
L 171.190702 244.098966 
L 171.208643 243.624117 
L 171.315934 243.624117 
L 171.315934 243.386693 
L 171.669213 243.386693 
L 171.773916 242.67442 
L 171.981589 242.67442 
L 172.015979 241.962146 
L 172.101681 241.962146 
L 172.118775 241.012449 
L 173.19781 241.012449 
L 173.294362 240.5376 
L 173.501874 240.5376 
L 173.501874 239.587902 
L 173.628445 239.587902 
L 173.628445 239.113054 
L 174.003127 239.113054 
L 174.003127 238.875629 
L 174.461224 238.875629 
L 174.551519 236.976234 
L 174.701055 236.976234 
L 174.708501 236.263961 
L 174.878944 236.263961 
L 174.98194 235.076839 
L 174.996608 235.076839 
L 174.996608 234.60199 
L 175.229752 234.60199 
L 175.229752 234.364566 
L 175.687546 234.364566 
L 175.772156 232.702595 
L 176.313034 232.702595 
L 176.313034 232.465171 
L 176.503464 232.465171 
L 176.611421 231.990322 
L 176.825495 231.990322 
L 176.891897 231.515473 
L 177.050311 231.515473 
L 177.142107 231.040624 
L 177.772433 231.040624 
L 177.772433 230.565776 
L 178.901711 230.565776 
L 179.008628 230.090927 
L 179.091369 230.090927 
L 179.091369 229.853502 
L 179.255765 229.853502 
L 179.255765 229.378654 
L 180.224179 229.378654 
L 180.224179 229.141229 
L 181.060386 229.141229 
L 181.060386 228.903805 
L 181.271635 228.903805 
L 181.271635 228.66638 
L 181.438943 228.66638 
L 181.522042 227.954107 
L 181.666588 227.954107 
L 181.738447 227.00441 
L 181.962518 227.00441 
L 182.033257 226.054712 
L 182.123818 226.054712 
L 182.123818 225.817288 
L 182.243892 225.817288 
L 182.243892 225.579863 
L 182.363205 225.579863 
L 182.363205 225.342439 
L 182.862007 225.342439 
L 182.881301 224.630166 
L 183.034944 224.630166 
L 183.034944 224.392741 
L 183.234714 224.392741 
L 183.234714 224.155317 
L 183.394894 224.155317 
L 183.394894 223.917893 
L 183.572318 223.917893 
L 183.646526 223.443044 
L 183.738875 223.443044 
L 183.849099 222.730771 
L 184.022311 222.730771 
L 184.085726 222.018498 
L 184.30154 222.018498 
L 184.390736 221.306224 
L 184.63826 221.306224 
L 184.63826 220.593951 
L 184.778254 220.593951 
L 184.778254 220.356527 
L 184.899899 220.356527 
L 184.960429 219.406829 
L 185.123747 219.406829 
L 185.19209 217.744859 
L 185.251688 217.744859 
L 185.311097 217.032585 
L 185.378765 217.032585 
L 185.378765 216.795161 
L 185.521755 216.795161 
L 185.555243 215.608039 
L 185.688599 215.608039 
L 185.688599 215.370615 
L 186.156144 215.370615 
L 186.220844 214.658341 
L 186.42161 214.658341 
L 186.525167 214.183493 
L 186.572771 214.183493 
L 186.572771 213.946068 
L 186.746296 213.946068 
L 186.848086 212.758946 
L 186.902669 212.758946 
L 186.902669 212.521522 
L 187.042302 212.521522 
L 187.042302 212.284098 
L 187.157876 212.284098 
L 187.196243 211.809249 
L 187.477756 211.809249 
L 187.560643 211.096976 
L 188.039448 211.096976 
L 188.039448 210.859551 
L 188.344801 210.859551 
L 188.423963 209.909854 
L 188.481326 209.909854 
L 188.538515 209.19758 
L 189.232204 209.19758 
L 189.266569 208.485307 
L 190.013745 208.485307 
L 190.013745 208.247883 
L 190.125601 208.247883 
L 190.171467 207.53561 
L 190.321387 207.53561 
L 190.392667 207.060761 
L 190.662372 207.060761 
L 190.726021 206.348488 
L 190.808445 206.348488 
L 190.890508 205.636215 
L 191.022322 205.636215 
L 191.084767 204.923941 
L 191.153218 204.923941 
L 191.24616 204.211668 
L 191.344796 204.211668 
L 191.412309 202.787122 
L 191.673922 202.787122 
L 191.710139 201.6 
L 192.268616 201.6 
L 192.292017 200.650302 
L 192.547526 200.650302 
L 192.547526 200.412878 
L 192.66826 200.412878 
L 192.745468 198.988332 
L 192.997748 198.988332 
L 193.093238 197.80121 
L 193.398898 197.80121 
L 193.459438 196.851512 
L 193.579938 196.851512 
L 193.661656 195.901815 
L 194.281903 195.901815 
L 194.386805 194.714693 
L 194.40249 194.714693 
L 194.418162 193.764995 
L 194.86706 193.764995 
L 194.88235 193.290146 
L 195.165502 193.290146 
L 195.275585 191.628176 
L 195.305496 191.628176 
L 195.335359 190.915902 
L 195.62652 190.915902 
L 195.62652 190.441054 
L 195.816537 190.441054 
L 195.913242 189.72878 
L 196.090847 189.72878 
L 196.114719 189.253932 
L 196.361214 189.253932 
L 196.361214 189.016507 
L 196.84013 189.016507 
L 196.927157 188.304234 
L 197.631271 188.304234 
L 197.719104 187.829385 
L 197.775976 187.829385 
L 197.775976 187.591961 
L 197.889208 187.591961 
L 197.897889 187.117112 
L 198.014705 187.117112 
L 198.031949 186.404839 
L 198.403158 186.404839 
L 198.474845 185.692566 
L 198.709078 185.692566 
L 198.767183 184.980293 
L 198.825109 184.980293 
L 198.825109 184.742868 
L 199.185189 184.742868 
L 199.185189 184.505444 
L 199.322485 184.505444 
L 199.430806 183.318322 
L 199.434805 183.318322 
L 199.514625 182.1312 
L 199.550434 182.1312 
L 199.629766 180.944078 
L 199.951574 180.944078 
L 199.951574 180.706654 
L 200.237334 180.706654 
L 200.237334 180.469229 
L 200.409008 180.469229 
L 200.409008 180.231805 
L 200.864852 180.231805 
L 200.916675 179.756956 
L 201.329811 179.756956 
L 201.347883 179.282107 
L 201.473906 179.282107 
L 201.531237 178.569834 
L 201.648932 178.569834 
L 201.648932 178.33241 
L 201.850505 178.33241 
L 201.889158 177.620137 
L 202.292005 177.620137 
L 202.305744 177.145288 
L 202.544559 177.145288 
L 202.618993 176.433015 
L 202.733451 176.433015 
L 202.78038 175.008468 
L 203.38165 175.008468 
L 203.467381 174.53362 
L 203.493186 174.53362 
L 203.589639 173.346498 
L 203.742943 173.346498 
L 203.742943 173.109073 
L 203.885539 173.109073 
L 203.885539 172.634224 
L 204.356281 172.634224 
L 204.356281 172.3968 
L 204.622249 172.3968 
L 204.697986 171.447102 
L 204.824542 171.447102 
L 204.902461 170.497405 
L 205.310717 170.497405 
L 205.337037 170.022556 
L 205.793202 170.022556 
L 205.867218 169.310283 
L 206.093152 169.310283 
L 206.093152 169.072859 
L 206.432559 169.072859 
L 206.432559 168.835434 
L 206.887447 168.835434 
L 206.887447 168.59801 
L 207.249936 168.59801 
L 207.302659 168.123161 
L 207.407664 168.123161 
L 207.491248 166.936039 
L 207.56408 166.936039 
L 207.574462 166.46119 
L 207.867956 166.46119 
L 207.959695 165.986341 
L 208.101516 165.986341 
L 208.101516 165.748917 
L 208.479921 165.748917 
L 208.479921 165.511493 
L 208.820533 165.511493 
L 208.820533 165.274068 
L 209.316611 165.274068 
L 209.316611 165.036644 
L 209.483795 165.036644 
L 209.556327 164.561795 
L 209.700558 164.561795 
L 209.712141 164.086946 
L 210.132394 164.086946 
L 210.132394 163.849522 
L 210.257673 163.849522 
L 210.257673 163.612098 
L 210.389944 163.612098 
L 210.389944 163.374673 
L 210.509086 163.374673 
L 210.509086 163.137249 
L 211.125985 163.137249 
L 211.14531 162.6624 
L 211.642999 162.6624 
L 211.642999 162.424976 
L 212.390807 162.424976 
L 212.390807 162.187551 
L 212.638239 162.187551 
L 212.638239 161.950127 
L 212.835437 161.950127 
L 212.903971 161.475278 
L 212.964465 161.475278 
L 213.02088 160.763005 
L 213.081 160.763005 
L 213.187193 160.050732 
L 214.25109 160.050732 
L 214.25109 159.813307 
L 215.07606 159.813307 
L 215.07606 159.575883 
L 215.846318 159.575883 
L 215.879719 159.101034 
L 216.464547 159.101034 
L 216.464547 158.86361 
L 217.383136 158.86361 
L 217.450793 158.151337 
L 218.6165 158.151337 
L 218.6165 157.913912 
L 218.997092 157.913912 
L 219.10353 157.439063 
L 219.161079 157.439063 
L 219.233816 156.72679 
L 219.649413 156.72679 
L 219.649413 156.489366 
L 220.09074 156.489366 
L 220.09074 156.251941 
L 220.956241 156.251941 
L 220.956241 156.014517 
L 221.85242 156.014517 
L 221.85242 155.777093 
L 222.019302 155.777093 
L 222.031338 155.06482 
L 222.426608 155.06482 
L 222.433675 154.589971 
L 223.909937 154.589971 
L 223.909937 154.352546 
L 224.542142 154.352546 
L 224.542142 154.115122 
L 226.443158 154.115122 
L 226.443158 153.877698 
L 227.562121 153.877698 
L 227.562121 153.640273 
L 227.947312 153.640273 
L 227.947312 153.402849 
L 231.815131 153.402849 
L 231.815131 153.165424 
L 233.098875 153.165424 
L 233.098875 152.928 
L 360.8064 152.928 
L 360.8064 152.928 
" style="fill:none;stroke:#ff00ff;stroke-linecap:square;stroke-width:1.5;"/>
   </g>
   <g id="line2d_35">
    <defs>
     <path d="M -0 8.485281 
L 5.091169 0 
L 0 -8.485281 
L -5.091169 -0 
z
" id="m82d73df9d9" style="stroke:#ff00ff;stroke-linejoin:miter;stroke-width:1.5;"/>
    </defs>
    <g>
     <use style="fill-opacity:0;stroke:#ff00ff;stroke-linejoin:miter;stroke-width:1.5;" x="167.251516" xlink:href="#m82d73df9d9" y="251.459122"/>
     <use style="fill-opacity:0;stroke:#ff00ff;stroke-linejoin:miter;stroke-width:1.5;" x="215.879719" xlink:href="#m82d73df9d9" y="159.338459"/>
     <use style="fill-opacity:0;stroke:#ff00ff;stroke-linejoin:miter;stroke-width:1.5;" x="233.098875" xlink:href="#m82d73df9d9" y="152.928"/>
     <use style="fill-opacity:0;stroke:#ff00ff;stroke-linejoin:miter;stroke-width:1.5;" x="233.098875" xlink:href="#m82d73df9d9" y="152.928"/>
     <use style="fill-opacity:0;stroke:#ff00ff;stroke-linejoin:miter;stroke-width:1.5;" x="360.8064" xlink:href="#m82d73df9d9" y="152.928"/>
    </g>
   </g>
   <g id="line2d_36">
    <path style="fill:none;stroke:#ff00ff;stroke-linecap:square;stroke-width:1.5;"/>
    <g/>
   </g>
   <g id="line2d_37">
    <path clip-path="url(#pf1ab37557d)" d="M 187.571918 211.096976 
" style="fill:none;stroke:#ff00ff;stroke-linecap:square;stroke-width:1.5;"/>
    <defs>
     <path d="M -12 12 
L 12 -12 
M -12 -12 
L 12 12 
" id="m6a1b459f78" style="stroke:#ff00ff;"/>
    </defs>
    <g clip-path="url(#pf1ab37557d)">
     <use style="fill:#ff00ff;stroke:#ff00ff;" x="187.571918" xlink:href="#m6a1b459f78" y="211.096976"/>
    </g>
   </g>
   <g id="line2d_38">
    <defs>
     <path d="M 0 1.5 
C 0.397805 1.5 0.77937 1.341951 1.06066 1.06066 
C 1.341951 0.77937 1.5 0.397805 1.5 0 
C 1.5 -0.397805 1.341951 -0.77937 1.06066 -1.06066 
C 0.77937 -1.341951 0.397805 -1.5 0 -1.5 
C -0.397805 -1.5 -0.77937 -1.341951 -1.06066 -1.06066 
C -1.341951 -0.77937 -1.5 -0.397805 -1.5 0 
C -1.5 0.397805 -1.341951 0.77937 -1.06066 1.06066 
C -0.77937 1.341951 -0.397805 1.5 0 1.5 
z
" id="m31448995aa" style="stroke:#ff7500;"/>
    </defs>
    <g>
     <use style="fill:#ff7500;stroke:#ff7500;" x="251.803403" xlink:href="#m31448995aa" y="6.912"/>
     <use style="fill:#ff7500;stroke:#ff7500;" x="251.803403" xlink:href="#m31448995aa" y="6.912"/>
    </g>
   </g>
   <g id="line2d_39">
    <path d="M 103.707211 298.944 
L 103.707211 298.706576 
L 110.674517 298.706576 
L 110.674517 297.756878 
L 113.381389 297.756878 
L 113.381389 296.80718 
L 116.086263 296.80718 
L 116.086263 296.332332 
L 118.152051 296.332332 
L 118.152051 295.14521 
L 120.013265 295.14521 
L 120.013265 294.670361 
L 121.954321 294.670361 
L 121.954321 293.958088 
L 124.906754 293.958088 
L 124.906754 293.00839 
L 125.219419 293.00839 
L 125.219419 292.770966 
L 126.517282 292.770966 
L 126.517282 292.296117 
L 127.458055 292.296117 
L 127.458055 291.583844 
L 128.614685 291.583844 
L 128.614685 290.871571 
L 129.7043 290.871571 
L 129.7043 289.2096 
L 140.451292 289.2096 
L 140.451292 288.972176 
L 141.217377 288.972176 
L 141.217377 288.734751 
L 141.782854 288.734751 
L 141.782854 288.259902 
L 142.41488 288.259902 
L 142.41488 287.547629 
L 145.920443 287.547629 
L 145.920443 286.835356 
L 146.429353 286.835356 
L 146.429353 286.597932 
L 146.924857 286.597932 
L 146.924857 285.885659 
L 148.063382 285.885659 
L 148.063382 285.648234 
L 149.959255 285.648234 
L 149.959255 285.173385 
L 150.72052 285.173385 
L 150.72052 283.036566 
L 151.063758 283.036566 
L 151.063758 282.086868 
L 151.400845 282.086868 
L 151.50336 280.899746 
L 151.731998 280.899746 
L 151.731998 279.4752 
L 152.057422 279.4752 
L 152.106991 278.050654 
L 152.377312 278.050654 
L 152.426047 276.388683 
L 152.691854 276.388683 
L 152.787587 274.726712 
L 153.001222 274.726712 
L 153.001222 272.827317 
L 153.305585 272.827317 
L 153.398253 270.927922 
L 153.605101 270.927922 
L 153.696309 266.891707 
L 153.764426 266.891707 
L 153.764426 266.654283 
L 153.899924 266.654283 
L 153.989717 264.042615 
L 154.034453 264.042615 
L 154.056781 263.567766 
L 154.190197 263.567766 
L 154.190197 261.668371 
L 154.563149 261.668371 
L 154.563149 260.0064 
L 161.13322 260.0064 
L 161.13322 259.294127 
L 161.913396 259.294127 
L 161.913396 259.056702 
L 162.291676 259.056702 
L 162.291676 258.581854 
L 162.690724 258.581854 
L 162.690724 257.86958 
L 162.873158 257.86958 
L 162.873158 256.20761 
L 163.232801 256.20761 
L 163.232801 255.970185 
L 163.410077 255.970185 
L 163.450751 253.121093 
L 163.639407 253.121093 
L 163.639407 251.696546 
L 163.932096 251.696546 
L 163.932096 251.221698 
L 166.927844 251.221698 
L 166.927844 250.746849 
L 167.218289 250.746849 
L 167.240447 249.797151 
L 167.807563 249.797151 
L 167.807563 249.084878 
L 167.94671 249.084878 
L 167.94671 247.422907 
L 168.084835 247.422907 
L 168.084835 246.47321 
L 168.284904 246.47321 
L 168.284904 245.523512 
L 168.441364 245.523512 
L 168.441364 245.286088 
L 168.575917 245.286088 
L 168.617126 244.573815 
L 168.689024 244.573815 
L 168.729985 241.962146 
L 168.811641 241.962146 
L 168.882801 239.825327 
L 169.014245 239.825327 
L 169.104709 237.688507 
L 169.144777 237.688507 
L 169.254523 232.465171 
L 169.353741 232.465171 
L 169.353741 231.752898 
L 169.481946 231.752898 
L 169.531024 229.853502 
L 169.609283 229.853502 
L 169.687218 227.479259 
L 169.8614 227.479259 
L 169.909499 225.817288 
L 169.986203 225.817288 
L 170.033985 222.018498 
L 170.110183 222.018498 
L 170.110183 220.831376 
L 170.252229 220.831376 
L 170.252229 220.593951 
L 170.514546 220.593951 
L 170.514546 219.881678 
L 170.635104 219.881678 
L 170.718116 217.507434 
L 171.046551 217.507434 
L 171.046551 216.557737 
L 171.226568 216.557737 
L 171.315934 214.183493 
L 171.449192 214.183493 
L 171.449192 213.233795 
L 171.79131 213.233795 
L 171.79131 212.758946 
L 172.050307 212.758946 
L 172.050307 212.046673 
L 172.161441 212.046673 
L 172.271923 208.722732 
L 172.83126 208.722732 
L 172.839484 206.823337 
L 172.946065 206.823337 
L 172.954239 206.348488 
L 173.076419 206.348488 
L 173.076419 204.211668 
L 173.525671 204.211668 
L 173.525671 203.73682 
L 173.683553 203.73682 
L 173.785471 198.988332 
L 174.118701 198.988332 
L 174.218295 197.088937 
L 174.294547 197.088937 
L 174.294547 196.376663 
L 174.603992 196.376663 
L 174.641383 194.00242 
L 174.79762 194.00242 
L 174.79762 192.340449 
L 175.786221 192.340449 
L 175.786221 192.103024 
L 176.265124 192.103024 
L 176.265124 190.441054 
L 176.631594 190.441054 
L 176.631594 190.203629 
L 176.805529 190.203629 
L 176.838794 187.591961 
L 176.97787 187.591961 
L 177.063452 185.217717 
L 177.109374 185.217717 
L 177.161719 183.318322 
L 177.259475 183.318322 
L 177.369655 179.756956 
L 177.376117 179.756956 
L 177.485617 177.620137 
L 177.588098 177.620137 
L 177.626385 175.958166 
L 177.721762 175.958166 
L 177.829275 173.346498 
L 177.848184 173.346498 
L 177.911078 172.634224 
L 177.992527 172.634224 
L 178.073625 169.547707 
L 178.154375 169.547707 
L 178.234779 166.936039 
L 178.314842 166.936039 
L 178.394565 164.561795 
L 179.014551 164.561795 
L 179.044133 163.374673 
L 179.132603 163.374673 
L 179.150247 162.899824 
L 179.24407 162.899824 
L 179.319959 161.237854 
L 179.395542 161.237854 
L 179.470823 160.050732 
L 179.545804 160.050732 
L 179.631951 157.201639 
L 179.660579 157.201639 
L 179.734809 155.06482 
L 179.780344 155.06482 
L 179.865426 151.740878 
L 179.893701 151.740878 
L 180.000761 147.229815 
L 180.051262 147.229815 
L 180.123969 143.905873 
L 180.196396 143.905873 
L 180.301752 139.157385 
L 180.34042 139.157385 
L 180.444974 136.308293 
L 180.477871 136.308293 
L 180.587114 131.559805 
L 180.636067 131.559805 
L 180.711964 128.710712 
L 180.782166 128.710712 
L 180.868211 127.286166 
L 180.89502 127.286166 
L 180.991216 124.674498 
L 181.0072 124.674498 
L 181.071005 122.537678 
L 181.139882 122.537678 
L 181.208509 121.58798 
L 181.303119 121.58798 
L 181.355475 120.875707 
L 181.423321 120.875707 
L 181.423321 119.688585 
L 181.568624 119.688585 
L 181.635707 117.076917 
L 181.702552 117.076917 
L 181.702552 116.602068 
L 182.002973 116.602068 
L 182.002973 116.12722 
L 184.554643 116.12722 
L 184.620688 114.940098 
L 184.743353 114.940098 
L 184.800034 112.803278 
L 184.856545 112.803278 
L 184.912886 111.378732 
L 184.96906 111.378732 
L 185.025066 108.767063 
L 185.080905 108.767063 
L 185.13658 107.342517 
L 185.19209 107.342517 
L 185.19209 106.155395 
L 185.33227 106.155395 
L 185.395644 104.730849 
L 185.559424 104.730849 
L 185.667825 98.32039 
L 185.767335 98.32039 
L 185.829263 93.571902 
L 185.989327 93.571902 
L 186.050529 90.960234 
L 186.103411 90.960234 
L 186.20873 87.161444 
L 193.974336 87.161444 
L 194.014392 85.974322 
L 194.123444 85.974322 
L 194.123444 84.7872 
L 194.339671 84.7872 
L 194.441646 81.700683 
L 194.475514 81.700683 
L 194.576757 77.664468 
L 194.72889 77.664468 
L 194.72889 77.427044 
L 195.365175 77.427044 
L 195.454342 75.527649 
L 195.518478 75.527649 
L 195.594663 71.491434 
L 195.650988 71.491434 
L 195.758274 67.692644 
L 195.772857 67.692644 
L 195.85286 62.944156 
L 195.884283 62.944156 
L 195.951786 60.569912 
L 196.071727 60.569912 
L 196.121875 58.433093 
L 196.30934 58.433093 
L 196.356504 57.72082 
L 197.179086 57.72082 
L 197.271295 56.058849 
L 197.300437 56.058849 
L 197.334007 54.159454 
L 197.558499 54.159454 
L 197.65107 50.360663 
L 197.730055 50.360663 
L 197.730055 48.223844 
L 202.257615 48.223844 
L 202.30231 47.036722 
L 209.426272 47.036722 
L 209.426272 46.561873 
L 210.431228 46.561873 
L 210.536815 44.425054 
L 210.588834 44.425054 
L 210.672647 38.014595 
L 212.493967 38.014595 
L 212.493967 37.777171 
L 214.210107 37.777171 
L 214.210107 37.302322 
L 214.51936 37.302322 
L 214.51936 36.827473 
L 228.319606 36.827473 
L 228.377224 36.1152 
L 228.596616 36.1152 
L 228.624179 35.402927 
L 229.059777 35.402927 
L 229.136217 34.690654 
L 229.252143 34.690654 
L 229.311473 34.215805 
L 229.528373 34.215805 
L 229.632679 32.791259 
L 229.643118 32.791259 
L 229.696828 30.891863 
L 230.125766 30.891863 
L 230.130852 30.417015 
L 230.954623 30.417015 
L 231.065109 29.704741 
L 231.079246 29.704741 
L 231.169028 28.280195 
L 231.292978 28.280195 
L 231.375892 25.668527 
L 231.450422 25.668527 
L 231.558767 23.769132 
L 231.564566 23.769132 
L 231.657477 20.920039 
L 231.677662 20.920039 
L 231.739881 20.207766 
L 231.838362 20.207766 
L 231.919979 19.732917 
L 232.02955 19.732917 
L 232.138838 17.121249 
L 232.148678 17.121249 
L 232.212512 15.934127 
L 232.344751 15.934127 
L 232.451883 14.747005 
L 232.45845 14.747005 
L 232.53123 13.559883 
L 233.526872 13.559883 
L 233.593038 12.372761 
L 236.3014 12.372761 
L 236.393024 11.423063 
L 237.305301 11.423063 
L 237.359444 10.948215 
L 242.043804 10.948215 
L 242.043804 10.71079 
L 242.777382 10.71079 
L 242.777382 10.473366 
L 244.235386 10.473366 
L 244.307501 9.523668 
L 244.505633 9.523668 
L 244.537847 9.04882 
L 244.719718 9.04882 
L 244.719718 8.811395 
L 245.290163 8.811395 
L 245.325946 8.336546 
L 245.851281 8.336546 
L 245.851281 8.099122 
L 246.783388 8.099122 
L 246.783388 7.861698 
L 247.450048 7.861698 
L 247.450048 7.624273 
L 249.302501 7.624273 
L 249.302501 7.386849 
L 251.772605 7.386849 
L 251.803403 6.912 
L 360.8064 6.912 
L 360.8064 6.912 
" style="fill:none;stroke:#ff7500;stroke-linecap:square;stroke-width:1.5;"/>
   </g>
   <g id="line2d_40">
    <defs>
     <path d="M 0 -6 
L -1.347084 -1.854102 
L -5.706339 -1.854102 
L -2.179628 0.708204 
L -3.526712 4.854102 
L -0 2.291796 
L 3.526712 4.854102 
L 2.179628 0.708204 
L 5.706339 -1.854102 
L 1.347084 -1.854102 
z
" id="m6cc5a004fa" style="stroke:#ff7500;stroke-linejoin:bevel;stroke-width:1.5;"/>
    </defs>
    <g>
     <use style="fill-opacity:0;stroke:#ff7500;stroke-linejoin:bevel;stroke-width:1.5;" x="154.563149" xlink:href="#m6cc5a004fa" y="261.668371"/>
     <use style="fill-opacity:0;stroke:#ff7500;stroke-linejoin:bevel;stroke-width:1.5;" x="184.96906" xlink:href="#m6cc5a004fa" y="111.378732"/>
     <use style="fill-opacity:0;stroke:#ff7500;stroke-linejoin:bevel;stroke-width:1.5;" x="233.593038" xlink:href="#m6cc5a004fa" y="12.372761"/>
     <use style="fill-opacity:0;stroke:#ff7500;stroke-linejoin:bevel;stroke-width:1.5;" x="251.803403" xlink:href="#m6cc5a004fa" y="6.912"/>
     <use style="fill-opacity:0;stroke:#ff7500;stroke-linejoin:bevel;stroke-width:1.5;" x="360.8064" xlink:href="#m6cc5a004fa" y="6.912"/>
    </g>
   </g>
   <g id="line2d_41">
    <path style="fill:none;stroke:#ff7500;stroke-linecap:square;stroke-width:1.5;"/>
    <g/>
   </g>
   <g id="line2d_42">
    <path clip-path="url(#pf1ab37557d)" d="M 230.783892 30.417015 
" style="fill:none;stroke:#ff7500;stroke-linecap:square;stroke-width:1.5;"/>
    <defs>
     <path d="M -12 12 
L 12 -12 
M -12 -12 
L 12 12 
" id="m905a8b7794" style="stroke:#ff7500;"/>
    </defs>
    <g clip-path="url(#pf1ab37557d)">
     <use style="fill:#ff7500;stroke:#ff7500;" x="230.783892" xlink:href="#m905a8b7794" y="30.417015"/>
    </g>
   </g>
   <g id="line2d_43">
    <path d="M 360.8064 152.928 
L 380.514816 293.10336 
" style="fill:none;stroke:#ff00ff;stroke-linecap:square;stroke-width:1.5;"/>
    <g>
     <use style="fill-opacity:0;stroke:#ff00ff;stroke-linejoin:miter;stroke-width:1.5;" x="360.8064" xlink:href="#m82d73df9d9" y="152.928"/>
     <use style="fill-opacity:0;stroke:#ff00ff;stroke-linejoin:miter;stroke-width:1.5;" x="380.514816" xlink:href="#m82d73df9d9" y="293.10336"/>
    </g>
   </g>
   <g id="line2d_44">
    <path d="M 360.8064 6.912 
L 380.514816 152.928 
" style="fill:none;stroke:#ff7500;stroke-linecap:square;stroke-width:1.5;"/>
    <g>
     <use style="fill-opacity:0;stroke:#ff7500;stroke-linejoin:bevel;stroke-width:1.5;" x="360.8064" xlink:href="#m6cc5a004fa" y="6.912"/>
     <use style="fill-opacity:0;stroke:#ff7500;stroke-linejoin:bevel;stroke-width:1.5;" x="380.514816" xlink:href="#m6cc5a004fa" y="152.928"/>
    </g>
   </g>
   <g id="line2d_45">
    <path d="M 360.8064 6.912 
L 380.514816 12.75264 
" style="fill:none;stroke:#000080;stroke-linecap:square;stroke-width:1.5;"/>
    <g>
     <use style="fill-opacity:0;stroke:#000080;stroke-width:1.5;" x="360.8064" xlink:href="#m48ddb40262" y="6.912"/>
     <use style="fill-opacity:0;stroke:#000080;stroke-width:1.5;" x="380.514816" xlink:href="#m48ddb40262" y="12.75264"/>
    </g>
   </g>
   <g id="line2d_46">
    <path d="M 360.8064 298.944 
L 360.8064 6.912 
" style="fill:none;stroke:#000000;stroke-linecap:square;stroke-width:1.5;"/>
   </g>
   <g id="patch_3">
    <path d="M 57.6 298.944 
L 360.8064 298.944 
" style="fill:none;stroke:#000000;stroke-linecap:square;stroke-linejoin:miter;stroke-width:0.8;"/>
   </g>
   <g id="patch_4">
    <path d="M 57.6 6.912 
L 360.8064 6.912 
" style="fill:none;stroke:#000000;stroke-linecap:square;stroke-linejoin:miter;stroke-width:0.8;"/>
   </g>
   <g id="text_13">
    <!-- fmincon -->
    <g transform="translate(386.578944 296.966485)scale(0.14 -0.14)">
     <use xlink:href="#DejaVuSans-102"/>
     <use x="35.205078" xlink:href="#DejaVuSans-109"/>
     <use x="132.617188" xlink:href="#DejaVuSans-105"/>
     <use x="160.400391" xlink:href="#DejaVuSans-110"/>
     <use x="223.779297" xlink:href="#DejaVuSans-99"/>
     <use x="278.759766" xlink:href="#DejaVuSans-111"/>
     <use x="339.941406" xlink:href="#DejaVuSans-110"/>
    </g>
   </g>
   <g id="text_14">
    <!-- slsqp -->
    <g transform="translate(386.578944 156.791125)scale(0.14 -0.14)">
     <defs>
      <path d="M 14.796875 27.296875 
Q 14.796875 17.390625 18.875 11.75 
Q 22.953125 6.109375 30.078125 6.109375 
Q 37.203125 6.109375 41.296875 11.75 
Q 45.40625 17.390625 45.40625 27.296875 
Q 45.40625 37.203125 41.296875 42.84375 
Q 37.203125 48.484375 30.078125 48.484375 
Q 22.953125 48.484375 18.875 42.84375 
Q 14.796875 37.203125 14.796875 27.296875 
z
M 45.40625 8.203125 
Q 42.578125 3.328125 38.25 0.953125 
Q 33.9375 -1.421875 27.875 -1.421875 
Q 17.96875 -1.421875 11.734375 6.484375 
Q 5.515625 14.40625 5.515625 27.296875 
Q 5.515625 40.1875 11.734375 48.09375 
Q 17.96875 56 27.875 56 
Q 33.9375 56 38.25 53.625 
Q 42.578125 51.265625 45.40625 46.390625 
L 45.40625 54.6875 
L 54.390625 54.6875 
L 54.390625 -20.796875 
L 45.40625 -20.796875 
z
" id="DejaVuSans-113"/>
     </defs>
     <use xlink:href="#DejaVuSans-115"/>
     <use x="52.099609" xlink:href="#DejaVuSans-108"/>
     <use x="79.882812" xlink:href="#DejaVuSans-115"/>
     <use x="131.982422" xlink:href="#DejaVuSans-113"/>
     <use x="195.458984" xlink:href="#DejaVuSans-112"/>
    </g>
   </g>
   <g id="text_15">
    <!-- cobyla -->
    <g transform="translate(386.578944 16.615765)scale(0.14 -0.14)">
     <defs>
      <path d="M 48.6875 27.296875 
Q 48.6875 37.203125 44.609375 42.84375 
Q 40.53125 48.484375 33.40625 48.484375 
Q 26.265625 48.484375 22.1875 42.84375 
Q 18.109375 37.203125 18.109375 27.296875 
Q 18.109375 17.390625 22.1875 11.75 
Q 26.265625 6.109375 33.40625 6.109375 
Q 40.53125 6.109375 44.609375 11.75 
Q 48.6875 17.390625 48.6875 27.296875 
z
M 18.109375 46.390625 
Q 20.953125 51.265625 25.265625 53.625 
Q 29.59375 56 35.59375 56 
Q 45.5625 56 51.78125 48.09375 
Q 58.015625 40.1875 58.015625 27.296875 
Q 58.015625 14.40625 51.78125 6.484375 
Q 45.5625 -1.421875 35.59375 -1.421875 
Q 29.59375 -1.421875 25.265625 0.953125 
Q 20.953125 3.328125 18.109375 8.203125 
L 18.109375 0 
L 9.078125 0 
L 9.078125 75.984375 
L 18.109375 75.984375 
z
" id="DejaVuSans-98"/>
      <path d="M 32.171875 -5.078125 
Q 28.375 -14.84375 24.75 -17.8125 
Q 21.140625 -20.796875 15.09375 -20.796875 
L 7.90625 -20.796875 
L 7.90625 -13.28125 
L 13.1875 -13.28125 
Q 16.890625 -13.28125 18.9375 -11.515625 
Q 21 -9.765625 23.484375 -3.21875 
L 25.09375 0.875 
L 2.984375 54.6875 
L 12.5 54.6875 
L 29.59375 11.921875 
L 46.6875 54.6875 
L 56.203125 54.6875 
z
" id="DejaVuSans-121"/>
     </defs>
     <use xlink:href="#DejaVuSans-99"/>
     <use x="54.980469" xlink:href="#DejaVuSans-111"/>
     <use x="116.162109" xlink:href="#DejaVuSans-98"/>
     <use x="179.638672" xlink:href="#DejaVuSans-121"/>
     <use x="238.818359" xlink:href="#DejaVuSans-108"/>
     <use x="266.601562" xlink:href="#DejaVuSans-97"/>
    </g>
   </g>
   <g id="text_16">
    <!-- bbob-constrained f47, f53, 5-D -->
    <g transform="translate(60.632064 17.582726)scale(0.102 -0.102)">
     <defs>
      <path d="M 4.890625 31.390625 
L 31.203125 31.390625 
L 31.203125 23.390625 
L 4.890625 23.390625 
z
" id="DejaVuSans-45"/>
      <path d="M 8.203125 72.90625 
L 55.078125 72.90625 
L 55.078125 68.703125 
L 28.609375 0 
L 18.3125 0 
L 43.21875 64.59375 
L 8.203125 64.59375 
z
" id="DejaVuSans-55"/>
      <path d="M 10.796875 72.90625 
L 49.515625 72.90625 
L 49.515625 64.59375 
L 19.828125 64.59375 
L 19.828125 46.734375 
Q 21.96875 47.46875 24.109375 47.828125 
Q 26.265625 48.1875 28.421875 48.1875 
Q 40.625 48.1875 47.75 41.5 
Q 54.890625 34.8125 54.890625 23.390625 
Q 54.890625 11.625 47.5625 5.09375 
Q 40.234375 -1.421875 26.90625 -1.421875 
Q 22.3125 -1.421875 17.546875 -0.640625 
Q 12.796875 0.140625 7.71875 1.703125 
L 7.71875 11.625 
Q 12.109375 9.234375 16.796875 8.0625 
Q 21.484375 6.890625 26.703125 6.890625 
Q 35.15625 6.890625 40.078125 11.328125 
Q 45.015625 15.765625 45.015625 23.390625 
Q 45.015625 31 40.078125 35.4375 
Q 35.15625 39.890625 26.703125 39.890625 
Q 22.75 39.890625 18.8125 39.015625 
Q 14.890625 38.140625 10.796875 36.28125 
z
" id="DejaVuSans-53"/>
      <path d="M 40.578125 39.3125 
Q 47.65625 37.796875 51.625 33 
Q 55.609375 28.21875 55.609375 21.1875 
Q 55.609375 10.40625 48.1875 4.484375 
Q 40.765625 -1.421875 27.09375 -1.421875 
Q 22.515625 -1.421875 17.65625 -0.515625 
Q 12.796875 0.390625 7.625 2.203125 
L 7.625 11.71875 
Q 11.71875 9.328125 16.59375 8.109375 
Q 21.484375 6.890625 26.8125 6.890625 
Q 36.078125 6.890625 40.9375 10.546875 
Q 45.796875 14.203125 45.796875 21.1875 
Q 45.796875 27.640625 41.28125 31.265625 
Q 36.765625 34.90625 28.71875 34.90625 
L 20.21875 34.90625 
L 20.21875 43.015625 
L 29.109375 43.015625 
Q 36.375 43.015625 40.234375 45.921875 
Q 44.09375 48.828125 44.09375 54.296875 
Q 44.09375 59.90625 40.109375 62.90625 
Q 36.140625 65.921875 28.71875 65.921875 
Q 24.65625 65.921875 20.015625 65.03125 
Q 15.375 64.15625 9.8125 62.3125 
L 9.8125 71.09375 
Q 15.4375 72.65625 20.34375 73.4375 
Q 25.25 74.21875 29.59375 74.21875 
Q 40.828125 74.21875 47.359375 69.109375 
Q 53.90625 64.015625 53.90625 55.328125 
Q 53.90625 49.265625 50.4375 45.09375 
Q 46.96875 40.921875 40.578125 39.3125 
z
" id="DejaVuSans-51"/>
      <path d="M 19.671875 64.796875 
L 19.671875 8.109375 
L 31.59375 8.109375 
Q 46.6875 8.109375 53.6875 14.9375 
Q 60.6875 21.78125 60.6875 36.53125 
Q 60.6875 51.171875 53.6875 57.984375 
Q 46.6875 64.796875 31.59375 64.796875 
z
M 9.8125 72.90625 
L 30.078125 72.90625 
Q 51.265625 72.90625 61.171875 64.09375 
Q 71.09375 55.28125 71.09375 36.53125 
Q 71.09375 17.671875 61.125 8.828125 
Q 51.171875 0 30.078125 0 
L 9.8125 0 
z
" id="DejaVuSans-68"/>
     </defs>
     <use xlink:href="#DejaVuSans-98"/>
     <use x="63.476562" xlink:href="#DejaVuSans-98"/>
     <use x="126.953125" xlink:href="#DejaVuSans-111"/>
     <use x="188.134766" xlink:href="#DejaVuSans-98"/>
     <use x="251.611328" xlink:href="#DejaVuSans-45"/>
     <use x="287.695312" xlink:href="#DejaVuSans-99"/>
     <use x="342.675781" xlink:href="#DejaVuSans-111"/>
     <use x="403.857422" xlink:href="#DejaVuSans-110"/>
     <use x="467.236328" xlink:href="#DejaVuSans-115"/>
     <use x="519.335938" xlink:href="#DejaVuSans-116"/>
     <use x="558.544922" xlink:href="#DejaVuSans-114"/>
     <use x="599.658203" xlink:href="#DejaVuSans-97"/>
     <use x="660.9375" xlink:href="#DejaVuSans-105"/>
     <use x="688.720703" xlink:href="#DejaVuSans-110"/>
     <use x="752.099609" xlink:href="#DejaVuSans-101"/>
     <use x="813.623047" xlink:href="#DejaVuSans-100"/>
     <use x="877.099609" xlink:href="#DejaVuSans-32"/>
     <use x="908.886719" xlink:href="#DejaVuSans-102"/>
     <use x="944.091797" xlink:href="#DejaVuSans-52"/>
     <use x="1007.714844" xlink:href="#DejaVuSans-55"/>
     <use x="1071.337891" xlink:href="#DejaVuSans-44"/>
     <use x="1103.125" xlink:href="#DejaVuSans-32"/>
     <use x="1134.912109" xlink:href="#DejaVuSans-102"/>
     <use x="1170.117188" xlink:href="#DejaVuSans-53"/>
     <use x="1233.740234" xlink:href="#DejaVuSans-51"/>
     <use x="1297.363281" xlink:href="#DejaVuSans-44"/>
     <use x="1329.150391" xlink:href="#DejaVuSans-32"/>
     <use x="1360.9375" xlink:href="#DejaVuSans-53"/>
     <use x="1424.560547" xlink:href="#DejaVuSans-45"/>
     <use x="1460.644531" xlink:href="#DejaVuSans-68"/>
    </g>
    <!-- 41 targets: 100..1e-06 -->
    <g transform="translate(60.632064 29.004495)scale(0.102 -0.102)">
     <defs>
      <path d="M 11.71875 12.40625 
L 22.015625 12.40625 
L 22.015625 0 
L 11.71875 0 
z
M 11.71875 51.703125 
L 22.015625 51.703125 
L 22.015625 39.3125 
L 11.71875 39.3125 
z
" id="DejaVuSans-58"/>
     </defs>
     <use xlink:href="#DejaVuSans-52"/>
     <use x="63.623047" xlink:href="#DejaVuSans-49"/>
     <use x="127.246094" xlink:href="#DejaVuSans-32"/>
     <use x="159.033203" xlink:href="#DejaVuSans-116"/>
     <use x="198.242188" xlink:href="#DejaVuSans-97"/>
     <use x="259.521484" xlink:href="#DejaVuSans-114"/>
     <use x="298.884766" xlink:href="#DejaVuSans-103"/>
     <use x="362.361328" xlink:href="#DejaVuSans-101"/>
     <use x="423.884766" xlink:href="#DejaVuSans-116"/>
     <use x="463.09375" xlink:href="#DejaVuSans-115"/>
     <use x="515.193359" xlink:href="#DejaVuSans-58"/>
     <use x="548.884766" xlink:href="#DejaVuSans-32"/>
     <use x="580.671875" xlink:href="#DejaVuSans-49"/>
     <use x="644.294922" xlink:href="#DejaVuSans-48"/>
     <use x="707.917969" xlink:href="#DejaVuSans-48"/>
     <use x="771.541016" xlink:href="#DejaVuSans-46"/>
     <use x="803.328125" xlink:href="#DejaVuSans-46"/>
     <use x="835.115234" xlink:href="#DejaVuSans-49"/>
     <use x="898.738281" xlink:href="#DejaVuSans-101"/>
     <use x="960.261719" xlink:href="#DejaVuSans-45"/>
     <use x="996.345703" xlink:href="#DejaVuSans-48"/>
     <use x="1059.96875" xlink:href="#DejaVuSans-54"/>
    </g>
    <!-- evals = f-evals + g-evals -->
    <g transform="translate(60.632064 40.426264)scale(0.102 -0.102)">
     <defs>
      <path d="M 10.59375 45.40625 
L 73.1875 45.40625 
L 73.1875 37.203125 
L 10.59375 37.203125 
z
M 10.59375 25.484375 
L 73.1875 25.484375 
L 73.1875 17.1875 
L 10.59375 17.1875 
z
" id="DejaVuSans-61"/>
      <path d="M 46 62.703125 
L 46 35.5 
L 73.1875 35.5 
L 73.1875 27.203125 
L 46 27.203125 
L 46 0 
L 37.796875 0 
L 37.796875 27.203125 
L 10.59375 27.203125 
L 10.59375 35.5 
L 37.796875 35.5 
L 37.796875 62.703125 
z
" id="DejaVuSans-43"/>
     </defs>
     <use xlink:href="#DejaVuSans-101"/>
     <use x="61.523438" xlink:href="#DejaVuSans-118"/>
     <use x="120.703125" xlink:href="#DejaVuSans-97"/>
     <use x="181.982422" xlink:href="#DejaVuSans-108"/>
     <use x="209.765625" xlink:href="#DejaVuSans-115"/>
     <use x="261.865234" xlink:href="#DejaVuSans-32"/>
     <use x="293.652344" xlink:href="#DejaVuSans-61"/>
     <use x="377.441406" xlink:href="#DejaVuSans-32"/>
     <use x="409.228516" xlink:href="#DejaVuSans-102"/>
     <use x="438.933594" xlink:href="#DejaVuSans-45"/>
     <use x="475.017578" xlink:href="#DejaVuSans-101"/>
     <use x="536.541016" xlink:href="#DejaVuSans-118"/>
     <use x="595.720703" xlink:href="#DejaVuSans-97"/>
     <use x="657" xlink:href="#DejaVuSans-108"/>
     <use x="684.783203" xlink:href="#DejaVuSans-115"/>
     <use x="736.882812" xlink:href="#DejaVuSans-32"/>
     <use x="768.669922" xlink:href="#DejaVuSans-43"/>
     <use x="852.458984" xlink:href="#DejaVuSans-32"/>
     <use x="884.246094" xlink:href="#DejaVuSans-103"/>
     <use x="947.722656" xlink:href="#DejaVuSans-45"/>
     <use x="983.806641" xlink:href="#DejaVuSans-101"/>
     <use x="1045.330078" xlink:href="#DejaVuSans-118"/>
     <use x="1104.509766" xlink:href="#DejaVuSans-97"/>
     <use x="1165.789062" xlink:href="#DejaVuSans-108"/>
     <use x="1193.572266" xlink:href="#DejaVuSans-115"/>
    </g>
    <!-- 15 instances -->
    <g transform="translate(60.632064 51.848032)scale(0.102 -0.102)">
     <use xlink:href="#DejaVuSans-49"/>
     <use x="63.623047" xlink:href="#DejaVuSans-53"/>
     <use x="127.246094" xlink:href="#DejaVuSans-32"/>
     <use x="159.033203" xlink:href="#DejaVuSans-105"/>
     <use x="186.816406" xlink:href="#DejaVuSans-110"/>
     <use x="250.195312" xlink:href="#DejaVuSans-115"/>
     <use x="302.294922" xlink:href="#DejaVuSans-116"/>
     <use x="341.503906" xlink:href="#DejaVuSans-97"/>
     <use x="402.783203" xlink:href="#DejaVuSans-110"/>
     <use x="466.162109" xlink:href="#DejaVuSans-99"/>
     <use x="521.142578" xlink:href="#DejaVuSans-101"/>
     <use x="582.666016" xlink:href="#DejaVuSans-115"/>
    </g>
   </g>
   <g id="text_17">
    <!-- v2.4.159 -->
    <g style="fill:#808080;" transform="translate(187.15945 293.943992)scale(0.1 -0.1)">
     <defs>
      <path d="M 10.984375 1.515625 
L 10.984375 10.5 
Q 14.703125 8.734375 18.5 7.8125 
Q 22.3125 6.890625 25.984375 6.890625 
Q 35.75 6.890625 40.890625 13.453125 
Q 46.046875 20.015625 46.78125 33.40625 
Q 43.953125 29.203125 39.59375 26.953125 
Q 35.25 24.703125 29.984375 24.703125 
Q 19.046875 24.703125 12.671875 31.3125 
Q 6.296875 37.9375 6.296875 49.421875 
Q 6.296875 60.640625 12.9375 67.421875 
Q 19.578125 74.21875 30.609375 74.21875 
Q 43.265625 74.21875 49.921875 64.515625 
Q 56.59375 54.828125 56.59375 36.375 
Q 56.59375 19.140625 48.40625 8.859375 
Q 40.234375 -1.421875 26.421875 -1.421875 
Q 22.703125 -1.421875 18.890625 -0.6875 
Q 15.09375 0.046875 10.984375 1.515625 
z
M 30.609375 32.421875 
Q 37.25 32.421875 41.125 36.953125 
Q 45.015625 41.5 45.015625 49.421875 
Q 45.015625 57.28125 41.125 61.84375 
Q 37.25 66.40625 30.609375 66.40625 
Q 23.96875 66.40625 20.09375 61.84375 
Q 16.21875 57.28125 16.21875 49.421875 
Q 16.21875 41.5 20.09375 36.953125 
Q 23.96875 32.421875 30.609375 32.421875 
z
" id="DejaVuSans-57"/>
     </defs>
     <use xlink:href="#DejaVuSans-118"/>
     <use x="59.179688" xlink:href="#DejaVuSans-50"/>
     <use x="122.802734" xlink:href="#DejaVuSans-46"/>
     <use x="154.589844" xlink:href="#DejaVuSans-52"/>
     <use x="218.212891" xlink:href="#DejaVuSans-46"/>
     <use x="250" xlink:href="#DejaVuSans-49"/>
     <use x="313.623047" xlink:href="#DejaVuSans-53"/>
     <use x="377.246094" xlink:href="#DejaVuSans-57"/>
    </g>
   </g>
  </g>
 </g>
 <defs>
  <clipPath id="pf1ab37557d">
   <rect height="292.032" width="303.2064" x="57.6" y="6.912"/>
  </clipPath>
 </defs>
</svg>
