<?xml version="1.0" encoding="utf-8" standalone="no"?>
<!DOCTYPE svg PUBLIC "-//W3C//DTD SVG 1.1//EN"
  "http://www.w3.org/Graphics/SVG/1.1/DTD/svg11.dtd">
<!-- Created with matplotlib (https://matplotlib.org/) -->
<svg height="345.6pt" version="1.1" viewBox="0 0 460.8 345.6" width="460.8pt" xmlns="http://www.w3.org/2000/svg" xmlns:xlink="http://www.w3.org/1999/xlink">
 <metadata>
  <rdf:RDF xmlns:cc="http://creativecommons.org/ns#" xmlns:dc="http://purl.org/dc/elements/1.1/" xmlns:rdf="http://www.w3.org/1999/02/22-rdf-syntax-ns#">
   <cc:Work>
    <dc:type rdf:resource="http://purl.org/dc/dcmitype/StillImage"/>
    <dc:date>2022-02-09T09:59:54.683263</dc:date>
    <dc:format>image/svg+xml</dc:format>
    <dc:creator>
     <cc:Agent>
      <dc:title>Matplotlib v3.3.3, https://matplotlib.org/</dc:title>
     </cc:Agent>
    </dc:creator>
   </cc:Work>
  </rdf:RDF>
 </metadata>
 <defs>
  <style type="text/css">*{stroke-linecap:butt;stroke-linejoin:round;}</style>
 </defs>
 <g id="figure_1">
  <g id="patch_1">
   <path d="M 0 345.6 
L 460.8 345.6 
L 460.8 0 
L 0 0 
z
" style="fill:#ffffff;"/>
  </g>
  <g id="axes_1">
   <g id="patch_2">
    <path d="M 57.6 298.944 
L 360.8064 298.944 
L 360.8064 6.912 
L 57.6 6.912 
z
" style="fill:#ffffff;"/>
   </g>
   <g id="matplotlib.axis_1">
    <g id="xtick_1">
     <g id="line2d_1">
      <path clip-path="url(#pc943f2aad8)" d="M 57.6 298.944 
L 57.6 6.912 
" style="fill:none;stroke:#b0b0b0;stroke-linecap:square;stroke-width:0.8;"/>
     </g>
     <g id="line2d_2">
      <defs>
       <path d="M 0 0 
L 0 3.5 
" id="m99b0a49235" style="stroke:#000000;stroke-width:0.8;"/>
      </defs>
      <g>
       <use style="stroke:#000000;stroke-width:0.8;" x="57.6" xlink:href="#m99b0a49235" y="298.944"/>
      </g>
     </g>
     <g id="text_1">
      <!-- 0 -->
      <g transform="translate(52.191875 318.861344)scale(0.17 -0.17)">
       <defs>
        <path d="M 31.78125 66.40625 
Q 24.171875 66.40625 20.328125 58.90625 
Q 16.5 51.421875 16.5 36.375 
Q 16.5 21.390625 20.328125 13.890625 
Q 24.171875 6.390625 31.78125 6.390625 
Q 39.453125 6.390625 43.28125 13.890625 
Q 47.125 21.390625 47.125 36.375 
Q 47.125 51.421875 43.28125 58.90625 
Q 39.453125 66.40625 31.78125 66.40625 
z
M 31.78125 74.21875 
Q 44.046875 74.21875 50.515625 64.515625 
Q 56.984375 54.828125 56.984375 36.375 
Q 56.984375 17.96875 50.515625 8.265625 
Q 44.046875 -1.421875 31.78125 -1.421875 
Q 19.53125 -1.421875 13.0625 8.265625 
Q 6.59375 17.96875 6.59375 36.375 
Q 6.59375 54.828125 13.0625 64.515625 
Q 19.53125 74.21875 31.78125 74.21875 
z
" id="DejaVuSans-48"/>
       </defs>
       <use xlink:href="#DejaVuSans-48"/>
      </g>
     </g>
    </g>
    <g id="xtick_2">
     <g id="line2d_3">
      <path clip-path="url(#pc943f2aad8)" d="M 144.2304 298.944 
L 144.2304 6.912 
" style="fill:none;stroke:#b0b0b0;stroke-linecap:square;stroke-width:0.8;"/>
     </g>
     <g id="line2d_4">
      <g>
       <use style="stroke:#000000;stroke-width:0.8;" x="144.2304" xlink:href="#m99b0a49235" y="298.944"/>
      </g>
     </g>
     <g id="text_2">
      <!-- 2 -->
      <g transform="translate(138.822275 318.861344)scale(0.17 -0.17)">
       <defs>
        <path d="M 19.1875 8.296875 
L 53.609375 8.296875 
L 53.609375 0 
L 7.328125 0 
L 7.328125 8.296875 
Q 12.9375 14.109375 22.625 23.890625 
Q 32.328125 33.6875 34.8125 36.53125 
Q 39.546875 41.84375 41.421875 45.53125 
Q 43.3125 49.21875 43.3125 52.78125 
Q 43.3125 58.59375 39.234375 62.25 
Q 35.15625 65.921875 28.609375 65.921875 
Q 23.96875 65.921875 18.8125 64.3125 
Q 13.671875 62.703125 7.8125 59.421875 
L 7.8125 69.390625 
Q 13.765625 71.78125 18.9375 73 
Q 24.125 74.21875 28.421875 74.21875 
Q 39.75 74.21875 46.484375 68.546875 
Q 53.21875 62.890625 53.21875 53.421875 
Q 53.21875 48.921875 51.53125 44.890625 
Q 49.859375 40.875 45.40625 35.40625 
Q 44.1875 33.984375 37.640625 27.21875 
Q 31.109375 20.453125 19.1875 8.296875 
z
" id="DejaVuSans-50"/>
       </defs>
       <use xlink:href="#DejaVuSans-50"/>
      </g>
     </g>
    </g>
    <g id="xtick_3">
     <g id="line2d_5">
      <path clip-path="url(#pc943f2aad8)" d="M 230.8608 298.944 
L 230.8608 6.912 
" style="fill:none;stroke:#b0b0b0;stroke-linecap:square;stroke-width:0.8;"/>
     </g>
     <g id="line2d_6">
      <g>
       <use style="stroke:#000000;stroke-width:0.8;" x="230.8608" xlink:href="#m99b0a49235" y="298.944"/>
      </g>
     </g>
     <g id="text_3">
      <!-- 4 -->
      <g transform="translate(225.452675 318.861344)scale(0.17 -0.17)">
       <defs>
        <path d="M 37.796875 64.3125 
L 12.890625 25.390625 
L 37.796875 25.390625 
z
M 35.203125 72.90625 
L 47.609375 72.90625 
L 47.609375 25.390625 
L 58.015625 25.390625 
L 58.015625 17.1875 
L 47.609375 17.1875 
L 47.609375 0 
L 37.796875 0 
L 37.796875 17.1875 
L 4.890625 17.1875 
L 4.890625 26.703125 
z
" id="DejaVuSans-52"/>
       </defs>
       <use xlink:href="#DejaVuSans-52"/>
      </g>
     </g>
    </g>
    <g id="xtick_4">
     <g id="line2d_7">
      <path clip-path="url(#pc943f2aad8)" d="M 317.4912 298.944 
L 317.4912 6.912 
" style="fill:none;stroke:#b0b0b0;stroke-linecap:square;stroke-width:0.8;"/>
     </g>
     <g id="line2d_8">
      <g>
       <use style="stroke:#000000;stroke-width:0.8;" x="317.4912" xlink:href="#m99b0a49235" y="298.944"/>
      </g>
     </g>
     <g id="text_4">
      <!-- 6 -->
      <g transform="translate(312.083075 318.861344)scale(0.17 -0.17)">
       <defs>
        <path d="M 33.015625 40.375 
Q 26.375 40.375 22.484375 35.828125 
Q 18.609375 31.296875 18.609375 23.390625 
Q 18.609375 15.53125 22.484375 10.953125 
Q 26.375 6.390625 33.015625 6.390625 
Q 39.65625 6.390625 43.53125 10.953125 
Q 47.40625 15.53125 47.40625 23.390625 
Q 47.40625 31.296875 43.53125 35.828125 
Q 39.65625 40.375 33.015625 40.375 
z
M 52.59375 71.296875 
L 52.59375 62.3125 
Q 48.875 64.0625 45.09375 64.984375 
Q 41.3125 65.921875 37.59375 65.921875 
Q 27.828125 65.921875 22.671875 59.328125 
Q 17.53125 52.734375 16.796875 39.40625 
Q 19.671875 43.65625 24.015625 45.921875 
Q 28.375 48.1875 33.59375 48.1875 
Q 44.578125 48.1875 50.953125 41.515625 
Q 57.328125 34.859375 57.328125 23.390625 
Q 57.328125 12.15625 50.6875 5.359375 
Q 44.046875 -1.421875 33.015625 -1.421875 
Q 20.359375 -1.421875 13.671875 8.265625 
Q 6.984375 17.96875 6.984375 36.375 
Q 6.984375 53.65625 15.1875 63.9375 
Q 23.390625 74.21875 37.203125 74.21875 
Q 40.921875 74.21875 44.703125 73.484375 
Q 48.484375 72.75 52.59375 71.296875 
z
" id="DejaVuSans-54"/>
       </defs>
       <use xlink:href="#DejaVuSans-54"/>
      </g>
     </g>
    </g>
    <g id="xtick_5">
     <g id="line2d_9">
      <path clip-path="url(#pc943f2aad8)" d="M 100.9152 298.944 
L 100.9152 6.912 
" style="fill:none;stroke:#b0b0b0;stroke-linecap:square;stroke-width:0.8;"/>
     </g>
     <g id="line2d_10">
      <defs>
       <path d="M 0 0 
L 0 2 
" id="m5aa987992a" style="stroke:#000000;stroke-width:0.6;"/>
      </defs>
      <g>
       <use style="stroke:#000000;stroke-width:0.6;" x="100.9152" xlink:href="#m5aa987992a" y="298.944"/>
      </g>
     </g>
    </g>
    <g id="xtick_6">
     <g id="line2d_11">
      <path clip-path="url(#pc943f2aad8)" d="M 187.5456 298.944 
L 187.5456 6.912 
" style="fill:none;stroke:#b0b0b0;stroke-linecap:square;stroke-width:0.8;"/>
     </g>
     <g id="line2d_12">
      <g>
       <use style="stroke:#000000;stroke-width:0.6;" x="187.5456" xlink:href="#m5aa987992a" y="298.944"/>
      </g>
     </g>
    </g>
    <g id="xtick_7">
     <g id="line2d_13">
      <path clip-path="url(#pc943f2aad8)" d="M 274.176 298.944 
L 274.176 6.912 
" style="fill:none;stroke:#b0b0b0;stroke-linecap:square;stroke-width:0.8;"/>
     </g>
     <g id="line2d_14">
      <g>
       <use style="stroke:#000000;stroke-width:0.6;" x="274.176" xlink:href="#m5aa987992a" y="298.944"/>
      </g>
     </g>
    </g>
    <g id="xtick_8">
     <g id="line2d_15">
      <path clip-path="url(#pc943f2aad8)" d="M 360.8064 298.944 
L 360.8064 6.912 
" style="fill:none;stroke:#b0b0b0;stroke-linecap:square;stroke-width:0.8;"/>
     </g>
     <g id="line2d_16">
      <g>
       <use style="stroke:#000000;stroke-width:0.6;" x="360.8064" xlink:href="#m5aa987992a" y="298.944"/>
      </g>
     </g>
    </g>
    <g id="text_5">
     <!-- log10(evals / dimension) -->
     <g transform="translate(104.238825 339.314156)scale(0.17 -0.17)">
      <defs>
       <path d="M 9.421875 75.984375 
L 18.40625 75.984375 
L 18.40625 0 
L 9.421875 0 
z
" id="DejaVuSans-108"/>
       <path d="M 30.609375 48.390625 
Q 23.390625 48.390625 19.1875 42.75 
Q 14.984375 37.109375 14.984375 27.296875 
Q 14.984375 17.484375 19.15625 11.84375 
Q 23.34375 6.203125 30.609375 6.203125 
Q 37.796875 6.203125 41.984375 11.859375 
Q 46.1875 17.53125 46.1875 27.296875 
Q 46.1875 37.015625 41.984375 42.703125 
Q 37.796875 48.390625 30.609375 48.390625 
z
M 30.609375 56 
Q 42.328125 56 49.015625 48.375 
Q 55.71875 40.765625 55.71875 27.296875 
Q 55.71875 13.875 49.015625 6.21875 
Q 42.328125 -1.421875 30.609375 -1.421875 
Q 18.84375 -1.421875 12.171875 6.21875 
Q 5.515625 13.875 5.515625 27.296875 
Q 5.515625 40.765625 12.171875 48.375 
Q 18.84375 56 30.609375 56 
z
" id="DejaVuSans-111"/>
       <path d="M 45.40625 27.984375 
Q 45.40625 37.75 41.375 43.109375 
Q 37.359375 48.484375 30.078125 48.484375 
Q 22.859375 48.484375 18.828125 43.109375 
Q 14.796875 37.75 14.796875 27.984375 
Q 14.796875 18.265625 18.828125 12.890625 
Q 22.859375 7.515625 30.078125 7.515625 
Q 37.359375 7.515625 41.375 12.890625 
Q 45.40625 18.265625 45.40625 27.984375 
z
M 54.390625 6.78125 
Q 54.390625 -7.171875 48.1875 -13.984375 
Q 42 -20.796875 29.203125 -20.796875 
Q 24.46875 -20.796875 20.265625 -20.09375 
Q 16.0625 -19.390625 12.109375 -17.921875 
L 12.109375 -9.1875 
Q 16.0625 -11.328125 19.921875 -12.34375 
Q 23.78125 -13.375 27.78125 -13.375 
Q 36.625 -13.375 41.015625 -8.765625 
Q 45.40625 -4.15625 45.40625 5.171875 
L 45.40625 9.625 
Q 42.625 4.78125 38.28125 2.390625 
Q 33.9375 0 27.875 0 
Q 17.828125 0 11.671875 7.65625 
Q 5.515625 15.328125 5.515625 27.984375 
Q 5.515625 40.671875 11.671875 48.328125 
Q 17.828125 56 27.875 56 
Q 33.9375 56 38.28125 53.609375 
Q 42.625 51.21875 45.40625 46.390625 
L 45.40625 54.6875 
L 54.390625 54.6875 
z
" id="DejaVuSans-103"/>
       <path d="M 12.40625 8.296875 
L 28.515625 8.296875 
L 28.515625 63.921875 
L 10.984375 60.40625 
L 10.984375 69.390625 
L 28.421875 72.90625 
L 38.28125 72.90625 
L 38.28125 8.296875 
L 54.390625 8.296875 
L 54.390625 0 
L 12.40625 0 
z
" id="DejaVuSans-49"/>
       <path d="M 31 75.875 
Q 24.46875 64.65625 21.28125 53.65625 
Q 18.109375 42.671875 18.109375 31.390625 
Q 18.109375 20.125 21.3125 9.0625 
Q 24.515625 -2 31 -13.1875 
L 23.1875 -13.1875 
Q 15.875 -1.703125 12.234375 9.375 
Q 8.59375 20.453125 8.59375 31.390625 
Q 8.59375 42.28125 12.203125 53.3125 
Q 15.828125 64.359375 23.1875 75.875 
z
" id="DejaVuSans-40"/>
       <path d="M 56.203125 29.59375 
L 56.203125 25.203125 
L 14.890625 25.203125 
Q 15.484375 15.921875 20.484375 11.0625 
Q 25.484375 6.203125 34.421875 6.203125 
Q 39.59375 6.203125 44.453125 7.46875 
Q 49.3125 8.734375 54.109375 11.28125 
L 54.109375 2.78125 
Q 49.265625 0.734375 44.1875 -0.34375 
Q 39.109375 -1.421875 33.890625 -1.421875 
Q 20.796875 -1.421875 13.15625 6.1875 
Q 5.515625 13.8125 5.515625 26.8125 
Q 5.515625 40.234375 12.765625 48.109375 
Q 20.015625 56 32.328125 56 
Q 43.359375 56 49.78125 48.890625 
Q 56.203125 41.796875 56.203125 29.59375 
z
M 47.21875 32.234375 
Q 47.125 39.59375 43.09375 43.984375 
Q 39.0625 48.390625 32.421875 48.390625 
Q 24.90625 48.390625 20.390625 44.140625 
Q 15.875 39.890625 15.1875 32.171875 
z
" id="DejaVuSans-101"/>
       <path d="M 2.984375 54.6875 
L 12.5 54.6875 
L 29.59375 8.796875 
L 46.6875 54.6875 
L 56.203125 54.6875 
L 35.6875 0 
L 23.484375 0 
z
" id="DejaVuSans-118"/>
       <path d="M 34.28125 27.484375 
Q 23.390625 27.484375 19.1875 25 
Q 14.984375 22.515625 14.984375 16.5 
Q 14.984375 11.71875 18.140625 8.90625 
Q 21.296875 6.109375 26.703125 6.109375 
Q 34.1875 6.109375 38.703125 11.40625 
Q 43.21875 16.703125 43.21875 25.484375 
L 43.21875 27.484375 
z
M 52.203125 31.203125 
L 52.203125 0 
L 43.21875 0 
L 43.21875 8.296875 
Q 40.140625 3.328125 35.546875 0.953125 
Q 30.953125 -1.421875 24.3125 -1.421875 
Q 15.921875 -1.421875 10.953125 3.296875 
Q 6 8.015625 6 15.921875 
Q 6 25.140625 12.171875 29.828125 
Q 18.359375 34.515625 30.609375 34.515625 
L 43.21875 34.515625 
L 43.21875 35.40625 
Q 43.21875 41.609375 39.140625 45 
Q 35.0625 48.390625 27.6875 48.390625 
Q 23 48.390625 18.546875 47.265625 
Q 14.109375 46.140625 10.015625 43.890625 
L 10.015625 52.203125 
Q 14.9375 54.109375 19.578125 55.046875 
Q 24.21875 56 28.609375 56 
Q 40.484375 56 46.34375 49.84375 
Q 52.203125 43.703125 52.203125 31.203125 
z
" id="DejaVuSans-97"/>
       <path d="M 44.28125 53.078125 
L 44.28125 44.578125 
Q 40.484375 46.53125 36.375 47.5 
Q 32.28125 48.484375 27.875 48.484375 
Q 21.1875 48.484375 17.84375 46.4375 
Q 14.5 44.390625 14.5 40.28125 
Q 14.5 37.15625 16.890625 35.375 
Q 19.28125 33.59375 26.515625 31.984375 
L 29.59375 31.296875 
Q 39.15625 29.25 43.1875 25.515625 
Q 47.21875 21.78125 47.21875 15.09375 
Q 47.21875 7.46875 41.1875 3.015625 
Q 35.15625 -1.421875 24.609375 -1.421875 
Q 20.21875 -1.421875 15.453125 -0.5625 
Q 10.6875 0.296875 5.421875 2 
L 5.421875 11.28125 
Q 10.40625 8.6875 15.234375 7.390625 
Q 20.0625 6.109375 24.8125 6.109375 
Q 31.15625 6.109375 34.5625 8.28125 
Q 37.984375 10.453125 37.984375 14.40625 
Q 37.984375 18.0625 35.515625 20.015625 
Q 33.0625 21.96875 24.703125 23.78125 
L 21.578125 24.515625 
Q 13.234375 26.265625 9.515625 29.90625 
Q 5.8125 33.546875 5.8125 39.890625 
Q 5.8125 47.609375 11.28125 51.796875 
Q 16.75 56 26.8125 56 
Q 31.78125 56 36.171875 55.265625 
Q 40.578125 54.546875 44.28125 53.078125 
z
" id="DejaVuSans-115"/>
       <path id="DejaVuSans-32"/>
       <path d="M 25.390625 72.90625 
L 33.6875 72.90625 
L 8.296875 -9.28125 
L 0 -9.28125 
z
" id="DejaVuSans-47"/>
       <path d="M 45.40625 46.390625 
L 45.40625 75.984375 
L 54.390625 75.984375 
L 54.390625 0 
L 45.40625 0 
L 45.40625 8.203125 
Q 42.578125 3.328125 38.25 0.953125 
Q 33.9375 -1.421875 27.875 -1.421875 
Q 17.96875 -1.421875 11.734375 6.484375 
Q 5.515625 14.40625 5.515625 27.296875 
Q 5.515625 40.1875 11.734375 48.09375 
Q 17.96875 56 27.875 56 
Q 33.9375 56 38.25 53.625 
Q 42.578125 51.265625 45.40625 46.390625 
z
M 14.796875 27.296875 
Q 14.796875 17.390625 18.875 11.75 
Q 22.953125 6.109375 30.078125 6.109375 
Q 37.203125 6.109375 41.296875 11.75 
Q 45.40625 17.390625 45.40625 27.296875 
Q 45.40625 37.203125 41.296875 42.84375 
Q 37.203125 48.484375 30.078125 48.484375 
Q 22.953125 48.484375 18.875 42.84375 
Q 14.796875 37.203125 14.796875 27.296875 
z
" id="DejaVuSans-100"/>
       <path d="M 9.421875 54.6875 
L 18.40625 54.6875 
L 18.40625 0 
L 9.421875 0 
z
M 9.421875 75.984375 
L 18.40625 75.984375 
L 18.40625 64.59375 
L 9.421875 64.59375 
z
" id="DejaVuSans-105"/>
       <path d="M 52 44.1875 
Q 55.375 50.25 60.0625 53.125 
Q 64.75 56 71.09375 56 
Q 79.640625 56 84.28125 50.015625 
Q 88.921875 44.046875 88.921875 33.015625 
L 88.921875 0 
L 79.890625 0 
L 79.890625 32.71875 
Q 79.890625 40.578125 77.09375 44.375 
Q 74.3125 48.1875 68.609375 48.1875 
Q 61.625 48.1875 57.5625 43.546875 
Q 53.515625 38.921875 53.515625 30.90625 
L 53.515625 0 
L 44.484375 0 
L 44.484375 32.71875 
Q 44.484375 40.625 41.703125 44.40625 
Q 38.921875 48.1875 33.109375 48.1875 
Q 26.21875 48.1875 22.15625 43.53125 
Q 18.109375 38.875 18.109375 30.90625 
L 18.109375 0 
L 9.078125 0 
L 9.078125 54.6875 
L 18.109375 54.6875 
L 18.109375 46.1875 
Q 21.1875 51.21875 25.484375 53.609375 
Q 29.78125 56 35.6875 56 
Q 41.65625 56 45.828125 52.96875 
Q 50 49.953125 52 44.1875 
z
" id="DejaVuSans-109"/>
       <path d="M 54.890625 33.015625 
L 54.890625 0 
L 45.90625 0 
L 45.90625 32.71875 
Q 45.90625 40.484375 42.875 44.328125 
Q 39.84375 48.1875 33.796875 48.1875 
Q 26.515625 48.1875 22.3125 43.546875 
Q 18.109375 38.921875 18.109375 30.90625 
L 18.109375 0 
L 9.078125 0 
L 9.078125 54.6875 
L 18.109375 54.6875 
L 18.109375 46.1875 
Q 21.34375 51.125 25.703125 53.5625 
Q 30.078125 56 35.796875 56 
Q 45.21875 56 50.046875 50.171875 
Q 54.890625 44.34375 54.890625 33.015625 
z
" id="DejaVuSans-110"/>
       <path d="M 8.015625 75.875 
L 15.828125 75.875 
Q 23.140625 64.359375 26.78125 53.3125 
Q 30.421875 42.28125 30.421875 31.390625 
Q 30.421875 20.453125 26.78125 9.375 
Q 23.140625 -1.703125 15.828125 -13.1875 
L 8.015625 -13.1875 
Q 14.5 -2 17.703125 9.0625 
Q 20.90625 20.125 20.90625 31.390625 
Q 20.90625 42.671875 17.703125 53.65625 
Q 14.5 64.65625 8.015625 75.875 
z
" id="DejaVuSans-41"/>
      </defs>
      <use xlink:href="#DejaVuSans-108"/>
      <use x="27.783203" xlink:href="#DejaVuSans-111"/>
      <use x="88.964844" xlink:href="#DejaVuSans-103"/>
      <use x="152.441406" xlink:href="#DejaVuSans-49"/>
      <use x="216.064453" xlink:href="#DejaVuSans-48"/>
      <use x="279.6875" xlink:href="#DejaVuSans-40"/>
      <use x="318.701172" xlink:href="#DejaVuSans-101"/>
      <use x="380.224609" xlink:href="#DejaVuSans-118"/>
      <use x="439.404297" xlink:href="#DejaVuSans-97"/>
      <use x="500.683594" xlink:href="#DejaVuSans-108"/>
      <use x="528.466797" xlink:href="#DejaVuSans-115"/>
      <use x="580.566406" xlink:href="#DejaVuSans-32"/>
      <use x="612.353516" xlink:href="#DejaVuSans-47"/>
      <use x="646.044922" xlink:href="#DejaVuSans-32"/>
      <use x="677.832031" xlink:href="#DejaVuSans-100"/>
      <use x="741.308594" xlink:href="#DejaVuSans-105"/>
      <use x="769.091797" xlink:href="#DejaVuSans-109"/>
      <use x="866.503906" xlink:href="#DejaVuSans-101"/>
      <use x="928.027344" xlink:href="#DejaVuSans-110"/>
      <use x="991.40625" xlink:href="#DejaVuSans-115"/>
      <use x="1043.505859" xlink:href="#DejaVuSans-105"/>
      <use x="1071.289062" xlink:href="#DejaVuSans-111"/>
      <use x="1132.470703" xlink:href="#DejaVuSans-110"/>
      <use x="1195.849609" xlink:href="#DejaVuSans-41"/>
     </g>
    </g>
   </g>
   <g id="matplotlib.axis_2">
    <g id="ytick_1">
     <g id="line2d_17">
      <path clip-path="url(#pc943f2aad8)" d="M 57.6 298.944 
L 360.8064 298.944 
" style="fill:none;stroke:#b0b0b0;stroke-linecap:square;stroke-width:0.8;"/>
     </g>
     <g id="line2d_18">
      <defs>
       <path d="M 0 0 
L -3.5 0 
" id="ma947fb9f47" style="stroke:#000000;stroke-width:0.8;"/>
      </defs>
      <g>
       <use style="stroke:#000000;stroke-width:0.8;" x="57.6" xlink:href="#ma947fb9f47" y="298.944"/>
      </g>
     </g>
     <g id="text_6">
      <!-- 0.0 -->
      <g transform="translate(25.155 305.02275)scale(0.16 -0.16)">
       <defs>
        <path d="M 10.6875 12.40625 
L 21 12.40625 
L 21 0 
L 10.6875 0 
z
" id="DejaVuSans-46"/>
       </defs>
       <use xlink:href="#DejaVuSans-48"/>
       <use x="63.623047" xlink:href="#DejaVuSans-46"/>
       <use x="95.410156" xlink:href="#DejaVuSans-48"/>
      </g>
     </g>
    </g>
    <g id="ytick_2">
     <g id="line2d_19">
      <path clip-path="url(#pc943f2aad8)" d="M 57.6 240.5376 
L 360.8064 240.5376 
" style="fill:none;stroke:#b0b0b0;stroke-linecap:square;stroke-width:0.8;"/>
     </g>
     <g id="line2d_20">
      <g>
       <use style="stroke:#000000;stroke-width:0.8;" x="57.6" xlink:href="#ma947fb9f47" y="240.5376"/>
      </g>
     </g>
     <g id="text_7">
      <!-- 0.2 -->
      <g transform="translate(25.155 246.61635)scale(0.16 -0.16)">
       <use xlink:href="#DejaVuSans-48"/>
       <use x="63.623047" xlink:href="#DejaVuSans-46"/>
       <use x="95.410156" xlink:href="#DejaVuSans-50"/>
      </g>
     </g>
    </g>
    <g id="ytick_3">
     <g id="line2d_21">
      <path clip-path="url(#pc943f2aad8)" d="M 57.6 182.1312 
L 360.8064 182.1312 
" style="fill:none;stroke:#b0b0b0;stroke-linecap:square;stroke-width:0.8;"/>
     </g>
     <g id="line2d_22">
      <g>
       <use style="stroke:#000000;stroke-width:0.8;" x="57.6" xlink:href="#ma947fb9f47" y="182.1312"/>
      </g>
     </g>
     <g id="text_8">
      <!-- 0.4 -->
      <g transform="translate(25.155 188.20995)scale(0.16 -0.16)">
       <use xlink:href="#DejaVuSans-48"/>
       <use x="63.623047" xlink:href="#DejaVuSans-46"/>
       <use x="95.410156" xlink:href="#DejaVuSans-52"/>
      </g>
     </g>
    </g>
    <g id="ytick_4">
     <g id="line2d_23">
      <path clip-path="url(#pc943f2aad8)" d="M 57.6 123.7248 
L 360.8064 123.7248 
" style="fill:none;stroke:#b0b0b0;stroke-linecap:square;stroke-width:0.8;"/>
     </g>
     <g id="line2d_24">
      <g>
       <use style="stroke:#000000;stroke-width:0.8;" x="57.6" xlink:href="#ma947fb9f47" y="123.7248"/>
      </g>
     </g>
     <g id="text_9">
      <!-- 0.6 -->
      <g transform="translate(25.155 129.80355)scale(0.16 -0.16)">
       <use xlink:href="#DejaVuSans-48"/>
       <use x="63.623047" xlink:href="#DejaVuSans-46"/>
       <use x="95.410156" xlink:href="#DejaVuSans-54"/>
      </g>
     </g>
    </g>
    <g id="ytick_5">
     <g id="line2d_25">
      <path clip-path="url(#pc943f2aad8)" d="M 57.6 65.3184 
L 360.8064 65.3184 
" style="fill:none;stroke:#b0b0b0;stroke-linecap:square;stroke-width:0.8;"/>
     </g>
     <g id="line2d_26">
      <g>
       <use style="stroke:#000000;stroke-width:0.8;" x="57.6" xlink:href="#ma947fb9f47" y="65.3184"/>
      </g>
     </g>
     <g id="text_10">
      <!-- 0.8 -->
      <g transform="translate(25.155 71.39715)scale(0.16 -0.16)">
       <defs>
        <path d="M 31.78125 34.625 
Q 24.75 34.625 20.71875 30.859375 
Q 16.703125 27.09375 16.703125 20.515625 
Q 16.703125 13.921875 20.71875 10.15625 
Q 24.75 6.390625 31.78125 6.390625 
Q 38.8125 6.390625 42.859375 10.171875 
Q 46.921875 13.96875 46.921875 20.515625 
Q 46.921875 27.09375 42.890625 30.859375 
Q 38.875 34.625 31.78125 34.625 
z
M 21.921875 38.8125 
Q 15.578125 40.375 12.03125 44.71875 
Q 8.5 49.078125 8.5 55.328125 
Q 8.5 64.0625 14.71875 69.140625 
Q 20.953125 74.21875 31.78125 74.21875 
Q 42.671875 74.21875 48.875 69.140625 
Q 55.078125 64.0625 55.078125 55.328125 
Q 55.078125 49.078125 51.53125 44.71875 
Q 48 40.375 41.703125 38.8125 
Q 48.828125 37.15625 52.796875 32.3125 
Q 56.78125 27.484375 56.78125 20.515625 
Q 56.78125 9.90625 50.3125 4.234375 
Q 43.84375 -1.421875 31.78125 -1.421875 
Q 19.734375 -1.421875 13.25 4.234375 
Q 6.78125 9.90625 6.78125 20.515625 
Q 6.78125 27.484375 10.78125 32.3125 
Q 14.796875 37.15625 21.921875 38.8125 
z
M 18.3125 54.390625 
Q 18.3125 48.734375 21.84375 45.5625 
Q 25.390625 42.390625 31.78125 42.390625 
Q 38.140625 42.390625 41.71875 45.5625 
Q 45.3125 48.734375 45.3125 54.390625 
Q 45.3125 60.0625 41.71875 63.234375 
Q 38.140625 66.40625 31.78125 66.40625 
Q 25.390625 66.40625 21.84375 63.234375 
Q 18.3125 60.0625 18.3125 54.390625 
z
" id="DejaVuSans-56"/>
       </defs>
       <use xlink:href="#DejaVuSans-48"/>
       <use x="63.623047" xlink:href="#DejaVuSans-46"/>
       <use x="95.410156" xlink:href="#DejaVuSans-56"/>
      </g>
     </g>
    </g>
    <g id="ytick_6">
     <g id="line2d_27">
      <path clip-path="url(#pc943f2aad8)" d="M 57.6 6.912 
L 360.8064 6.912 
" style="fill:none;stroke:#b0b0b0;stroke-linecap:square;stroke-width:0.8;"/>
     </g>
     <g id="line2d_28">
      <g>
       <use style="stroke:#000000;stroke-width:0.8;" x="57.6" xlink:href="#ma947fb9f47" y="6.912"/>
      </g>
     </g>
     <g id="text_11">
      <!-- 1.0 -->
      <g transform="translate(25.155 12.99075)scale(0.16 -0.16)">
       <use xlink:href="#DejaVuSans-49"/>
       <use x="63.623047" xlink:href="#DejaVuSans-46"/>
       <use x="95.410156" xlink:href="#DejaVuSans-48"/>
      </g>
     </g>
    </g>
    <g id="text_12">
     <!-- Fraction of function,target pairs -->
     <g transform="translate(17.619531 287.313)rotate(-90)scale(0.17 -0.17)">
      <defs>
       <path d="M 9.8125 72.90625 
L 51.703125 72.90625 
L 51.703125 64.59375 
L 19.671875 64.59375 
L 19.671875 43.109375 
L 48.578125 43.109375 
L 48.578125 34.8125 
L 19.671875 34.8125 
L 19.671875 0 
L 9.8125 0 
z
" id="DejaVuSans-70"/>
       <path d="M 41.109375 46.296875 
Q 39.59375 47.171875 37.8125 47.578125 
Q 36.03125 48 33.890625 48 
Q 26.265625 48 22.1875 43.046875 
Q 18.109375 38.09375 18.109375 28.8125 
L 18.109375 0 
L 9.078125 0 
L 9.078125 54.6875 
L 18.109375 54.6875 
L 18.109375 46.1875 
Q 20.953125 51.171875 25.484375 53.578125 
Q 30.03125 56 36.53125 56 
Q 37.453125 56 38.578125 55.875 
Q 39.703125 55.765625 41.0625 55.515625 
z
" id="DejaVuSans-114"/>
       <path d="M 48.78125 52.59375 
L 48.78125 44.1875 
Q 44.96875 46.296875 41.140625 47.34375 
Q 37.3125 48.390625 33.40625 48.390625 
Q 24.65625 48.390625 19.8125 42.84375 
Q 14.984375 37.3125 14.984375 27.296875 
Q 14.984375 17.28125 19.8125 11.734375 
Q 24.65625 6.203125 33.40625 6.203125 
Q 37.3125 6.203125 41.140625 7.25 
Q 44.96875 8.296875 48.78125 10.40625 
L 48.78125 2.09375 
Q 45.015625 0.34375 40.984375 -0.53125 
Q 36.96875 -1.421875 32.421875 -1.421875 
Q 20.0625 -1.421875 12.78125 6.34375 
Q 5.515625 14.109375 5.515625 27.296875 
Q 5.515625 40.671875 12.859375 48.328125 
Q 20.21875 56 33.015625 56 
Q 37.15625 56 41.109375 55.140625 
Q 45.0625 54.296875 48.78125 52.59375 
z
" id="DejaVuSans-99"/>
       <path d="M 18.3125 70.21875 
L 18.3125 54.6875 
L 36.8125 54.6875 
L 36.8125 47.703125 
L 18.3125 47.703125 
L 18.3125 18.015625 
Q 18.3125 11.328125 20.140625 9.421875 
Q 21.96875 7.515625 27.59375 7.515625 
L 36.8125 7.515625 
L 36.8125 0 
L 27.59375 0 
Q 17.1875 0 13.234375 3.875 
Q 9.28125 7.765625 9.28125 18.015625 
L 9.28125 47.703125 
L 2.6875 47.703125 
L 2.6875 54.6875 
L 9.28125 54.6875 
L 9.28125 70.21875 
z
" id="DejaVuSans-116"/>
       <path d="M 37.109375 75.984375 
L 37.109375 68.5 
L 28.515625 68.5 
Q 23.6875 68.5 21.796875 66.546875 
Q 19.921875 64.59375 19.921875 59.515625 
L 19.921875 54.6875 
L 34.71875 54.6875 
L 34.71875 47.703125 
L 19.921875 47.703125 
L 19.921875 0 
L 10.890625 0 
L 10.890625 47.703125 
L 2.296875 47.703125 
L 2.296875 54.6875 
L 10.890625 54.6875 
L 10.890625 58.5 
Q 10.890625 67.625 15.140625 71.796875 
Q 19.390625 75.984375 28.609375 75.984375 
z
" id="DejaVuSans-102"/>
       <path d="M 8.5 21.578125 
L 8.5 54.6875 
L 17.484375 54.6875 
L 17.484375 21.921875 
Q 17.484375 14.15625 20.5 10.265625 
Q 23.53125 6.390625 29.59375 6.390625 
Q 36.859375 6.390625 41.078125 11.03125 
Q 45.3125 15.671875 45.3125 23.6875 
L 45.3125 54.6875 
L 54.296875 54.6875 
L 54.296875 0 
L 45.3125 0 
L 45.3125 8.40625 
Q 42.046875 3.421875 37.71875 1 
Q 33.40625 -1.421875 27.6875 -1.421875 
Q 18.265625 -1.421875 13.375 4.4375 
Q 8.5 10.296875 8.5 21.578125 
z
M 31.109375 56 
z
" id="DejaVuSans-117"/>
       <path d="M 11.71875 12.40625 
L 22.015625 12.40625 
L 22.015625 4 
L 14.015625 -11.625 
L 7.71875 -11.625 
L 11.71875 4 
z
" id="DejaVuSans-44"/>
       <path d="M 18.109375 8.203125 
L 18.109375 -20.796875 
L 9.078125 -20.796875 
L 9.078125 54.6875 
L 18.109375 54.6875 
L 18.109375 46.390625 
Q 20.953125 51.265625 25.265625 53.625 
Q 29.59375 56 35.59375 56 
Q 45.5625 56 51.78125 48.09375 
Q 58.015625 40.1875 58.015625 27.296875 
Q 58.015625 14.40625 51.78125 6.484375 
Q 45.5625 -1.421875 35.59375 -1.421875 
Q 29.59375 -1.421875 25.265625 0.953125 
Q 20.953125 3.328125 18.109375 8.203125 
z
M 48.6875 27.296875 
Q 48.6875 37.203125 44.609375 42.84375 
Q 40.53125 48.484375 33.40625 48.484375 
Q 26.265625 48.484375 22.1875 42.84375 
Q 18.109375 37.203125 18.109375 27.296875 
Q 18.109375 17.390625 22.1875 11.75 
Q 26.265625 6.109375 33.40625 6.109375 
Q 40.53125 6.109375 44.609375 11.75 
Q 48.6875 17.390625 48.6875 27.296875 
z
" id="DejaVuSans-112"/>
      </defs>
      <use xlink:href="#DejaVuSans-70"/>
      <use x="50.269531" xlink:href="#DejaVuSans-114"/>
      <use x="91.382812" xlink:href="#DejaVuSans-97"/>
      <use x="152.662109" xlink:href="#DejaVuSans-99"/>
      <use x="207.642578" xlink:href="#DejaVuSans-116"/>
      <use x="246.851562" xlink:href="#DejaVuSans-105"/>
      <use x="274.634766" xlink:href="#DejaVuSans-111"/>
      <use x="335.816406" xlink:href="#DejaVuSans-110"/>
      <use x="399.195312" xlink:href="#DejaVuSans-32"/>
      <use x="430.982422" xlink:href="#DejaVuSans-111"/>
      <use x="492.164062" xlink:href="#DejaVuSans-102"/>
      <use x="527.369141" xlink:href="#DejaVuSans-32"/>
      <use x="559.15625" xlink:href="#DejaVuSans-102"/>
      <use x="594.361328" xlink:href="#DejaVuSans-117"/>
      <use x="657.740234" xlink:href="#DejaVuSans-110"/>
      <use x="721.119141" xlink:href="#DejaVuSans-99"/>
      <use x="776.099609" xlink:href="#DejaVuSans-116"/>
      <use x="815.308594" xlink:href="#DejaVuSans-105"/>
      <use x="843.091797" xlink:href="#DejaVuSans-111"/>
      <use x="904.273438" xlink:href="#DejaVuSans-110"/>
      <use x="967.652344" xlink:href="#DejaVuSans-44"/>
      <use x="999.439453" xlink:href="#DejaVuSans-116"/>
      <use x="1038.648438" xlink:href="#DejaVuSans-97"/>
      <use x="1099.927734" xlink:href="#DejaVuSans-114"/>
      <use x="1139.291016" xlink:href="#DejaVuSans-103"/>
      <use x="1202.767578" xlink:href="#DejaVuSans-101"/>
      <use x="1264.291016" xlink:href="#DejaVuSans-116"/>
      <use x="1303.5" xlink:href="#DejaVuSans-32"/>
      <use x="1335.287109" xlink:href="#DejaVuSans-112"/>
      <use x="1398.763672" xlink:href="#DejaVuSans-97"/>
      <use x="1460.042969" xlink:href="#DejaVuSans-105"/>
      <use x="1487.826172" xlink:href="#DejaVuSans-114"/>
      <use x="1528.939453" xlink:href="#DejaVuSans-115"/>
     </g>
    </g>
   </g>
   <g id="line2d_29">
    <defs>
     <path d="M 0 1.5 
C 0.397805 1.5 0.77937 1.341951 1.06066 1.06066 
C 1.341951 0.77937 1.5 0.397805 1.5 0 
C 1.5 -0.397805 1.341951 -0.77937 1.06066 -1.06066 
C 0.77937 -1.341951 0.397805 -1.5 0 -1.5 
C -0.397805 -1.5 -0.77937 -1.341951 -1.06066 -1.06066 
C -1.341951 -0.77937 -1.5 -0.397805 -1.5 0 
C -1.5 0.397805 -1.341951 0.77937 -1.06066 1.06066 
C -0.77937 1.341951 -0.397805 1.5 0 1.5 
z
" id="maeb7b67662" style="stroke:#000080;"/>
    </defs>
    <g>
     <use style="fill:#000080;stroke:#000080;" x="211.896273" xlink:href="#maeb7b67662" y="6.912"/>
     <use style="fill:#000080;stroke:#000080;" x="211.896273" xlink:href="#maeb7b67662" y="6.912"/>
    </g>
   </g>
   <g id="line2d_30">
    <path d="M 79.480672 298.944 
L 79.480672 263.80519 
L 81.696354 263.80519 
L 81.696354 223.75961 
L 83.678349 223.75961 
L 83.678349 181.656351 
L 85.471281 181.656351 
L 85.471281 180.548371 
L 87.1081 180.548371 
L 87.1081 165.35321 
L 88.613828 165.35321 
L 88.613828 151.582595 
L 90.007914 151.582595 
L 90.007914 143.351883 
L 91.305777 143.351883 
L 91.305777 124.674498 
L 92.519847 124.674498 
L 92.519847 123.091668 
L 94.735529 123.091668 
L 94.735529 121.350556 
L 95.752617 121.350556 
L 95.752617 120.242576 
L 96.717523 120.242576 
L 96.717523 113.594693 
L 97.635342 113.594693 
L 97.635342 111.85358 
L 98.510456 111.85358 
L 98.510456 110.429034 
L 99.346662 110.429034 
L 99.346662 109.004488 
L 100.147275 109.004488 
L 100.147275 108.371356 
L 100.9152 108.371356 
L 100.9152 107.738224 
L 101.653002 107.738224 
L 101.653002 102.040039 
L 102.362957 102.040039 
L 102.362957 101.406907 
L 103.047088 101.406907 
L 103.047088 99.665795 
L 103.707211 99.665795 
L 103.707211 97.7664 
L 104.344952 97.7664 
L 104.344952 94.442459 
L 104.961779 94.442459 
L 104.961779 93.96761 
L 105.559021 93.96761 
L 105.559021 89.377405 
L 106.137884 89.377405 
L 106.137884 87.319727 
L 106.699465 87.319727 
L 106.699465 82.254673 
L 107.244765 82.254673 
L 107.244765 80.830127 
L 108.29012 80.830127 
L 108.29012 79.880429 
L 108.791791 79.880429 
L 108.791791 74.657093 
L 109.280431 74.657093 
L 109.280431 73.074263 
L 109.756698 73.074263 
L 109.756698 71.016585 
L 110.221204 71.016585 
L 110.221204 68.958907 
L 110.674517 68.958907 
L 110.674517 68.642341 
L 111.117162 68.642341 
L 111.117162 68.325776 
L 111.54963 68.325776 
L 111.54963 67.850927 
L 112.790402 67.850927 
L 112.790402 66.42638 
L 113.186449 66.42638 
L 113.186449 65.634966 
L 113.954374 65.634966 
L 113.954374 64.21042 
L 114.326893 64.21042 
L 114.326893 62.62759 
L 114.692177 62.62759 
L 114.692177 60.886478 
L 115.050503 60.886478 
L 115.050503 60.253346 
L 115.402131 60.253346 
L 115.402131 57.404254 
L 115.747307 57.404254 
L 115.747307 54.713444 
L 116.086263 54.713444 
L 116.086263 53.130615 
L 116.746385 53.130615 
L 116.746385 51.706068 
L 117.067958 51.706068 
L 117.067958 49.173541 
L 117.384126 49.173541 
L 117.384126 47.907278 
L 117.695068 47.907278 
L 117.695068 47.432429 
L 118.000953 47.432429 
L 118.000953 45.216468 
L 118.301945 45.216468 
L 118.301945 44.74162 
L 118.598196 44.74162 
L 118.598196 43.950205 
L 118.889854 43.950205 
L 118.889854 43.791922 
L 119.177058 43.791922 
L 119.177058 43.475356 
L 119.459944 43.475356 
L 119.459944 42.367376 
L 120.013265 42.367376 
L 120.013265 40.626263 
L 120.28394 40.626263 
L 120.28394 39.36 
L 120.550775 39.36 
L 120.550775 38.885151 
L 120.813877 38.885151 
L 120.813877 38.726868 
L 121.073351 38.726868 
L 121.073351 37.935454 
L 121.329295 37.935454 
L 121.329295 37.618888 
L 121.581803 37.618888 
L 121.581803 36.827473 
L 121.830966 36.827473 
L 121.830966 35.719493 
L 122.076872 35.719493 
L 122.076872 34.611512 
L 122.319605 34.611512 
L 122.319605 32.237268 
L 122.559246 32.237268 
L 122.559246 31.287571 
L 122.795872 31.287571 
L 122.795872 30.337873 
L 123.4884 30.337873 
L 123.4884 29.546459 
L 123.713691 29.546459 
L 123.713691 29.388176 
L 123.936316 29.388176 
L 123.936316 29.229893 
L 124.156336 29.229893 
L 124.156336 29.07161 
L 124.373813 29.07161 
L 124.373813 28.280195 
L 124.588805 28.280195 
L 124.588805 28.121912 
L 124.801367 28.121912 
L 124.801367 26.855649 
L 125.011554 26.855649 
L 125.011554 25.747668 
L 125.219419 25.747668 
L 125.219419 24.797971 
L 125.628382 24.797971 
L 125.628382 24.006556 
L 126.613505 24.006556 
L 126.613505 23.373424 
L 126.804487 23.373424 
L 126.804487 22.898576 
L 127.731351 22.898576 
L 127.731351 22.740293 
L 128.089678 22.740293 
L 128.089678 21.948878 
L 128.614685 21.948878 
L 128.614685 20.99918 
L 129.125437 20.99918 
L 129.125437 20.840898 
L 129.292652 20.840898 
L 129.292652 20.682615 
L 129.458394 20.682615 
L 129.458394 19.732917 
L 132.216233 19.732917 
L 132.216233 19.416351 
L 136.299553 19.416351 
L 136.299553 19.258068 
L 137.195511 19.258068 
L 137.195511 18.941502 
L 139.362521 18.941502 
L 139.362521 18.78322 
L 142.080444 18.78322 
L 142.080444 18.624937 
L 142.497568 18.624937 
L 142.497568 18.466654 
L 145.46797 18.466654 
L 145.46797 18.308371 
L 149.453084 18.308371 
L 149.453084 18.150088 
L 152.498913 18.150088 
L 152.498913 17.991805 
L 155.412574 17.991805 
L 155.412574 17.833522 
L 156.462418 17.833522 
L 156.462418 17.675239 
L 157.53111 17.675239 
L 157.53111 17.516956 
L 159.164837 17.516956 
L 159.164837 17.358673 
L 159.535354 17.358673 
L 159.535354 17.20039 
L 161.55733 17.20039 
L 161.55733 17.042107 
L 167.162782 17.042107 
L 167.162782 16.883824 
L 167.624034 16.883824 
L 167.624034 16.725541 
L 170.855662 16.725541 
L 170.855662 16.09241 
L 171.073664 16.09241 
L 171.073664 15.934127 
L 171.217608 15.934127 
L 171.324847 14.667863 
L 171.782615 14.667863 
L 171.852062 14.351298 
L 171.938512 14.351298 
L 172.041731 13.718166 
L 172.144386 13.718166 
L 172.229507 13.243317 
L 173.011355 13.243317 
L 173.011355 13.085034 
L 177.200883 13.085034 
L 177.200883 12.926751 
L 181.297875 12.926751 
L 181.297875 12.768468 
L 181.454552 12.768468 
L 181.537582 12.451902 
L 182.038299 12.451902 
L 182.038299 12.29362 
L 182.258848 12.29362 
L 182.258848 12.135337 
L 182.624036 12.135337 
L 182.624036 11.977054 
L 182.818523 11.977054 
L 182.818523 11.660488 
L 183.058837 11.660488 
L 183.07793 10.552507 
L 196.755005 10.552507 
L 196.755005 10.394224 
L 200.42609 10.394224 
L 200.42609 10.235941 
L 200.903733 10.235941 
L 200.911129 8.653112 
L 204.363977 8.653112 
L 204.394727 8.01998 
L 204.829046 8.01998 
L 204.829046 7.861698 
L 205.100299 7.861698 
L 205.100299 7.703415 
L 211.892149 7.703415 
L 211.896273 6.912 
L 360.8064 6.912 
L 360.8064 6.912 
" style="fill:none;stroke:#000080;stroke-linecap:square;stroke-width:1.5;"/>
   </g>
   <g id="line2d_31">
    <defs>
     <path d="M 0 6 
C 1.591219 6 3.117479 5.367802 4.242641 4.242641 
C 5.367802 3.117479 6 1.591219 6 0 
C 6 -1.591219 5.367802 -3.117479 4.242641 -4.242641 
C 3.117479 -5.367802 1.591219 -6 0 -6 
C -1.591219 -6 -3.117479 -5.367802 -4.242641 -4.242641 
C -5.367802 -3.117479 -6 -1.591219 -6 0 
C -6 1.591219 -5.367802 3.117479 -4.242641 4.242641 
C -3.117479 5.367802 -1.591219 6 0 6 
z
" id="m1d83d4c563" style="stroke:#000080;stroke-width:1.5;"/>
    </defs>
    <g>
     <use style="fill-opacity:0;stroke:#000080;stroke-width:1.5;" x="105.559021" xlink:href="#m1d83d4c563" y="89.377405"/>
     <use style="fill-opacity:0;stroke:#000080;stroke-width:1.5;" x="173.011355" xlink:href="#m1d83d4c563" y="13.243317"/>
     <use style="fill-opacity:0;stroke:#000080;stroke-width:1.5;" x="211.896273" xlink:href="#m1d83d4c563" y="6.912"/>
     <use style="fill-opacity:0;stroke:#000080;stroke-width:1.5;" x="211.896273" xlink:href="#m1d83d4c563" y="6.912"/>
     <use style="fill-opacity:0;stroke:#000080;stroke-width:1.5;" x="360.8064" xlink:href="#m1d83d4c563" y="6.912"/>
    </g>
   </g>
   <g id="line2d_32">
    <path style="fill:none;stroke:#000080;stroke-linecap:square;stroke-width:1.5;"/>
    <g/>
   </g>
   <g id="line2d_33">
    <defs>
     <path d="M 0 1.5 
C 0.397805 1.5 0.77937 1.341951 1.06066 1.06066 
C 1.341951 0.77937 1.5 0.397805 1.5 0 
C 1.5 -0.397805 1.341951 -0.77937 1.06066 -1.06066 
C 0.77937 -1.341951 0.397805 -1.5 0 -1.5 
C -0.397805 -1.5 -0.77937 -1.341951 -1.06066 -1.06066 
C -1.341951 -0.77937 -1.5 -0.397805 -1.5 0 
C -1.5 0.397805 -1.341951 0.77937 -1.06066 1.06066 
C -0.77937 1.341951 -0.397805 1.5 0 1.5 
z
" id="m1ddb6d3193" style="stroke:#ff00ff;"/>
    </defs>
    <g>
     <use style="fill:#ff00ff;stroke:#ff00ff;" x="268.595651" xlink:href="#m1ddb6d3193" y="6.912"/>
     <use style="fill:#ff00ff;stroke:#ff00ff;" x="268.595651" xlink:href="#m1ddb6d3193" y="6.912"/>
    </g>
   </g>
   <g id="line2d_34">
    <path d="M 76.96874 298.944 
L 76.96874 297.519454 
L 88.613828 297.519454 
L 88.613828 278.683785 
L 95.752617 278.683785 
L 95.752617 245.127805 
L 96.717523 245.127805 
L 96.717523 244.652956 
L 97.635342 244.652956 
L 97.635342 243.861541 
L 100.9152 243.861541 
L 100.9152 234.522849 
L 101.653002 234.522849 
L 101.653002 234.206283 
L 103.047088 234.206283 
L 103.047088 233.889717 
L 103.707211 233.889717 
L 103.707211 233.731434 
L 104.961779 233.731434 
L 104.961779 222.968195 
L 105.559021 222.968195 
L 105.559021 222.651629 
L 106.137884 222.651629 
L 106.137884 221.0688 
L 106.699465 221.0688 
L 106.699465 220.752234 
L 107.774703 220.752234 
L 107.774703 220.435668 
L 108.29012 220.435668 
L 108.29012 211.255259 
L 108.791791 211.255259 
L 108.791791 211.096976 
L 109.280431 211.096976 
L 109.280431 210.78041 
L 109.756698 210.78041 
L 109.756698 210.622127 
L 110.221204 210.622127 
L 110.221204 210.305561 
L 111.117162 210.305561 
L 111.117162 203.341112 
L 111.97238 203.341112 
L 111.97238 203.182829 
L 112.385837 203.182829 
L 112.385837 202.866263 
L 112.790402 202.866263 
L 112.790402 202.549698 
L 112.989468 202.549698 
L 112.989468 202.391415 
L 113.57433 202.391415 
L 113.57433 194.00242 
L 113.954374 194.00242 
L 113.954374 193.685854 
L 114.326893 193.685854 
L 114.326893 191.786459 
L 114.692177 191.786459 
L 114.692177 191.153327 
L 115.747307 191.153327 
L 115.747307 185.296859 
L 116.086263 185.296859 
L 116.086263 185.138576 
L 116.746385 185.138576 
L 116.746385 183.23918 
L 117.695068 183.23918 
L 117.695068 171.209678 
L 118.000953 171.209678 
L 118.000953 170.576546 
L 118.598196 170.576546 
L 118.598196 169.785132 
L 119.459944 169.785132 
L 119.459944 158.388761 
L 119.738639 158.388761 
L 119.738639 158.072195 
L 120.28394 158.072195 
L 120.28394 157.755629 
L 121.073351 157.755629 
L 121.073351 145.251278 
L 121.201758 145.251278 
L 121.201758 145.092995 
L 121.329295 145.092995 
L 121.329295 143.668449 
L 122.076872 143.668449 
L 122.076872 143.351883 
L 122.559246 143.351883 
L 122.559246 136.229151 
L 122.795872 136.229151 
L 122.795872 134.171473 
L 123.145323 134.171473 
L 123.145323 134.01319 
L 123.825333 134.01319 
L 123.936316 124.991063 
L 124.156336 124.991063 
L 124.156336 123.249951 
L 124.801367 123.249951 
L 124.906754 122.61682 
L 125.219419 122.61682 
L 125.219419 118.34318 
L 125.425011 118.34318 
L 125.425011 115.810654 
L 126.028642 115.810654 
L 126.028642 115.335805 
L 126.420564 115.335805 
L 126.420564 110.429034 
L 126.613505 110.429034 
L 126.613505 109.479337 
L 127.18073 109.479337 
L 127.273627 108.846205 
L 127.366067 108.846205 
L 127.366067 108.687922 
L 127.549596 108.687922 
L 127.549596 106.630244 
L 127.731351 106.630244 
L 127.731351 104.572566 
L 128.089678 104.572566 
L 128.089678 104.097717 
L 128.614685 104.097717 
L 128.700779 99.982361 
L 128.786481 99.982361 
L 128.786481 97.924683 
L 129.125437 97.924683 
L 129.125437 97.608117 
L 129.292652 97.608117 
L 129.292652 97.449834 
L 129.622688 97.449834 
L 129.7043 95.550439 
L 129.78556 95.550439 
L 129.78556 94.284176 
L 130.265881 94.284176 
L 130.265881 94.125893 
L 130.4233 94.125893 
L 130.4233 93.017912 
L 130.579414 93.017912 
L 130.579414 91.593366 
L 130.734242 91.593366 
L 130.734242 89.852254 
L 131.040128 89.852254 
L 131.040128 89.535688 
L 131.341119 89.535688 
L 131.341119 89.219122 
L 131.489828 89.219122 
L 131.489828 88.269424 
L 131.63737 88.269424 
L 131.63737 86.844878 
L 132.358208 86.844878 
L 132.358208 86.211746 
L 132.499119 86.211746 
L 132.499119 85.262049 
L 132.915628 85.262049 
L 132.915628 84.945483 
L 133.188264 84.945483 
L 133.188264 84.312351 
L 133.323114 84.312351 
L 133.323114 83.995785 
L 133.457005 83.995785 
L 133.457005 83.837502 
L 133.589949 83.837502 
L 133.589949 83.67922 
L 133.983236 83.67922 
L 133.983236 81.779824 
L 134.240933 81.779824 
L 134.240933 81.463259 
L 134.368469 81.463259 
L 134.368469 81.304976 
L 134.745971 81.304976 
L 134.745971 80.830127 
L 134.87014 80.830127 
L 134.87014 80.671844 
L 135.478982 80.671844 
L 135.478982 80.196995 
L 135.59842 80.196995 
L 135.59842 79.880429 
L 136.184497 79.880429 
L 136.184497 79.40558 
L 136.299553 79.40558 
L 136.299553 78.930732 
L 136.640557 78.930732 
L 136.640557 78.614166 
L 137.195511 78.614166 
L 137.195511 78.455883 
L 137.627979 78.455883 
L 137.734561 77.981034 
L 138.968547 77.981034 
L 138.968547 77.031337 
L 139.264798 77.031337 
L 139.362521 76.714771 
L 140.126547 76.714771 
L 140.219905 76.239922 
L 140.405242 76.239922 
L 140.405242 75.765073 
L 141.128852 75.765073 
L 141.128852 75.60679 
L 141.65386 75.60679 
L 141.65386 75.448507 
L 141.825656 75.448507 
L 141.825656 75.290224 
L 142.164612 75.290224 
L 142.248405 74.815376 
L 142.331827 74.815376 
L 142.331827 74.49881 
L 142.743475 74.49881 
L 142.824734 73.865678 
L 142.905644 73.865678 
L 142.905644 73.707395 
L 143.225848 73.707395 
L 143.225848 73.549112 
L 143.462475 73.549112 
L 143.540694 73.074263 
L 144.305496 73.074263 
L 144.305496 72.91598 
L 145.112353 72.91598 
L 145.112353 72.599415 
L 145.886021 72.599415 
L 145.886021 72.441132 
L 146.362288 72.441132 
L 146.362288 71.808 
L 146.761135 71.808 
L 146.761135 71.333151 
L 147.1517 71.333151 
L 147.216013 71.016585 
L 147.407644 71.016585 
L 147.407644 70.541737 
L 148.874221 70.541737 
L 148.874221 70.066888 
L 149.049758 70.066888 
L 149.049758 69.908605 
L 149.223672 69.908605 
L 149.223672 69.592039 
L 149.453084 69.592039 
L 149.453084 69.433756 
L 150.179921 69.433756 
L 150.289291 68.958907 
L 150.343738 68.958907 
L 150.343738 67.850927 
L 150.8268 67.850927 
L 150.8268 67.534361 
L 151.194122 67.534361 
L 151.297768 67.217795 
L 152.352898 67.217795 
L 152.352898 67.059512 
L 152.643804 67.059512 
L 152.643804 66.901229 
L 152.977604 66.901229 
L 153.071898 66.109815 
L 153.165721 66.109815 
L 153.165721 65.951532 
L 153.536404 65.951532 
L 153.536404 65.793249 
L 153.8097 65.793249 
L 153.8097 65.634966 
L 154.992656 65.634966 
L 154.992656 65.476683 
L 155.495444 65.476683 
L 155.495444 65.3184 
L 156.105602 65.3184 
L 156.105602 65.001834 
L 156.774003 65.001834 
L 156.774003 64.526985 
L 157.080512 64.526985 
L 157.080512 64.368702 
L 157.250754 64.368702 
L 157.250754 64.21042 
L 157.382107 64.21042 
L 157.382107 63.893854 
L 157.623641 63.893854 
L 157.678942 62.785873 
L 158.330176 62.785873 
L 158.330176 62.469307 
L 158.542339 62.469307 
L 158.542339 62.311024 
L 159.964032 62.311024 
L 159.964032 62.152741 
L 160.667947 62.152741 
L 160.667947 61.836176 
L 160.917524 61.836176 
L 160.917524 61.677893 
L 161.071844 61.677893 
L 161.071844 61.361327 
L 162.11803 61.361327 
L 162.11803 61.203044 
L 162.634233 61.203044 
L 162.634233 61.044761 
L 164.644495 61.044761 
L 164.644495 60.886478 
L 164.922068 60.886478 
L 164.922068 60.728195 
L 165.343147 60.728195 
L 165.343147 60.569912 
L 165.969454 60.569912 
L 165.969454 60.253346 
L 166.111072 60.253346 
L 166.111072 60.095063 
L 167.667378 60.095063 
L 167.775305 59.620215 
L 167.861203 59.620215 
L 167.861203 59.461932 
L 168.03183 59.461932 
L 168.03183 59.303649 
L 168.200924 59.303649 
L 168.200924 58.8288 
L 168.493229 58.8288 
L 168.493229 58.353951 
L 169.363634 58.353951 
L 169.462279 58.037385 
L 169.599518 58.037385 
L 169.619042 57.087688 
L 169.909499 57.087688 
L 169.909499 56.929405 
L 170.024438 56.929405 
L 170.024438 56.771122 
L 170.570284 56.771122 
L 170.588827 56.454556 
L 171.064631 56.454556 
L 171.064631 56.296273 
L 171.929885 56.296273 
L 171.929885 56.13799 
L 172.152916 56.13799 
L 172.152916 55.979707 
L 172.591198 55.979707 
L 172.591198 55.821424 
L 172.724025 55.821424 
L 172.724025 55.663141 
L 174.018578 55.663141 
L 174.018578 55.346576 
L 174.264083 55.346576 
L 174.264083 55.188293 
L 175.701674 55.188293 
L 175.758081 54.871727 
L 176.59796 54.871727 
L 176.665168 54.238595 
L 176.878635 54.238595 
L 176.891897 53.922029 
L 177.194361 53.922029 
L 177.194361 53.763746 
L 177.46634 53.763746 
L 177.46634 53.605463 
L 177.873367 53.605463 
L 177.873367 53.44718 
L 178.073625 53.44718 
L 178.073625 53.288898 
L 178.18534 53.288898 
L 178.18534 52.972332 
L 178.333269 52.972332 
L 178.394565 52.655766 
L 178.528716 52.655766 
L 178.528716 52.3392 
L 178.722153 52.3392 
L 178.722153 52.022634 
L 178.925523 52.022634 
L 178.925523 51.864351 
L 180.090447 51.864351 
L 180.123969 51.547785 
L 182.736112 51.547785 
L 182.736112 51.389502 
L 184.532577 51.389502 
L 184.532577 51.23122 
L 184.908558 51.23122 
L 184.908558 51.072937 
L 185.4966 51.072937 
L 185.4966 50.914654 
L 185.853977 50.914654 
L 185.853977 50.756371 
L 186.301408 50.756371 
L 186.301408 50.598088 
L 186.445558 50.598088 
L 186.525167 50.281522 
L 186.556917 50.281522 
L 186.556917 50.123239 
L 186.675502 50.123239 
L 186.746296 49.490107 
L 186.894881 49.490107 
L 186.894881 49.331824 
L 187.929181 49.331824 
L 187.929181 49.173541 
L 188.141784 49.173541 
L 188.207279 48.856976 
L 188.395215 48.856976 
L 188.43832 48.54041 
L 188.616867 48.54041 
L 188.616867 48.382127 
L 189.024683 48.382127 
L 189.024683 48.223844 
L 189.848033 48.223844 
L 189.881292 47.590712 
L 190.086199 47.590712 
L 190.112476 47.274146 
L 190.347338 47.274146 
L 190.444339 46.641015 
L 190.636851 46.641015 
L 190.636851 46.482732 
L 191.019194 46.482732 
L 191.109687 45.216468 
L 191.19045 45.216468 
L 191.19045 45.058185 
L 191.631581 45.058185 
L 191.698075 44.583337 
L 193.677957 44.583337 
L 193.677957 44.425054 
L 194.610383 44.425054 
L 194.625883 43.950205 
L 195.606922 43.950205 
L 195.606922 43.791922 
L 195.918064 43.791922 
L 195.995053 43.15879 
L 196.506641 43.15879 
L 196.506641 43.000507 
L 196.660224 43.000507 
L 196.711142 42.525659 
L 198.335437 42.525659 
L 198.377791 42.209093 
L 199.136491 42.209093 
L 199.136491 42.05081 
L 199.637681 42.05081 
L 199.637681 41.892527 
L 200.021484 41.892527 
L 200.094997 41.417678 
L 200.15668 41.417678 
L 200.210488 40.784546 
L 200.938841 40.784546 
L 200.938841 40.626263 
L 201.184603 40.626263 
L 201.184603 40.46798 
L 201.300859 40.46798 
L 201.300859 40.309698 
L 201.477494 40.309698 
L 201.477494 40.151415 
L 201.695095 40.151415 
L 201.695095 39.993132 
L 201.896177 39.993132 
L 201.910208 39.676566 
L 202.09166 39.676566 
L 202.185189 39.36 
L 202.219712 39.36 
L 202.219712 39.201717 
L 202.379417 39.201717 
L 202.46302 37.935454 
L 202.524207 37.935454 
L 202.524207 37.777171 
L 203.624882 37.777171 
L 203.624882 37.618888 
L 205.240349 37.618888 
L 205.328268 36.985756 
L 205.667276 36.985756 
L 205.675889 36.66919 
L 207.941892 36.66919 
L 207.990175 36.194341 
L 209.100138 36.194341 
L 209.100138 36.036059 
L 209.302415 36.036059 
L 209.33316 35.719493 
L 209.462684 35.719493 
L 209.530622 33.97838 
L 211.778365 33.97838 
L 211.794958 33.661815 
L 213.332952 33.661815 
L 213.332952 33.503532 
L 213.454828 33.503532 
L 213.454828 33.345249 
L 214.271093 33.345249 
L 214.309223 33.028683 
L 214.466371 33.028683 
L 214.471766 32.712117 
L 214.597225 32.712117 
L 214.656081 31.445854 
L 216.328184 31.445854 
L 216.362368 31.129288 
L 216.978303 31.129288 
L 216.981451 30.812722 
L 217.446188 30.812722 
L 217.446188 30.654439 
L 218.411977 30.654439 
L 218.513791 30.021307 
L 218.583289 30.021307 
L 218.632362 28.755044 
L 221.076877 28.755044 
L 221.076877 28.596761 
L 221.900339 28.596761 
L 221.916083 27.963629 
L 222.461919 27.963629 
L 222.461919 27.805346 
L 223.105774 27.805346 
L 223.122812 27.48878 
L 224.00876 27.48878 
L 224.073635 27.172215 
L 224.656553 27.172215 
L 224.753622 25.747668 
L 225.679891 25.747668 
L 225.679891 25.589385 
L 227.028263 25.589385 
L 227.032875 25.114537 
L 227.157887 25.114537 
L 227.187182 24.797971 
L 228.003453 24.797971 
L 228.084735 24.481405 
L 229.27467 24.481405 
L 229.349836 23.373424 
L 230.815975 23.373424 
L 230.815975 23.215141 
L 231.266854 23.215141 
L 231.294448 22.265444 
L 232.503324 22.265444 
L 232.606473 21.948878 
L 232.925047 21.948878 
L 233.023568 21.474029 
L 233.039994 21.474029 
L 233.063435 20.682615 
L 234.217358 20.682615 
L 234.217358 20.524332 
L 234.56754 20.524332 
L 234.656921 19.8912 
L 235.259063 19.8912 
L 235.259063 19.732917 
L 236.105987 19.732917 
L 236.124767 18.941502 
L 236.696174 18.941502 
L 236.696174 18.78322 
L 237.480237 18.78322 
L 237.50536 17.675239 
L 238.775718 17.675239 
L 238.775718 17.516956 
L 239.895066 17.516956 
L 239.988167 16.883824 
L 241.03058 16.883824 
L 241.114532 16.09241 
L 242.157652 16.09241 
L 242.160541 15.617561 
L 243.13969 15.617561 
L 243.190939 14.984429 
L 243.568815 14.984429 
L 243.568815 14.826146 
L 244.118978 14.826146 
L 244.12344 14.50958 
L 245.030146 14.50958 
L 245.044843 14.034732 
L 245.86891 14.034732 
L 245.916288 13.718166 
L 246.247626 13.718166 
L 246.247626 13.559883 
L 246.724229 13.559883 
L 246.730704 13.085034 
L 247.518614 13.085034 
L 247.52994 12.135337 
L 248.276784 12.135337 
L 248.280958 11.660488 
L 249.009593 11.660488 
L 249.009593 11.502205 
L 249.715197 11.502205 
L 249.719478 11.185639 
L 250.873048 11.185639 
L 250.873048 11.027356 
L 251.048048 11.027356 
L 251.060523 10.235941 
L 251.688739 10.235941 
L 251.688739 10.077659 
L 252.30604 10.077659 
L 252.30604 9.919376 
L 252.89743 9.919376 
L 252.89743 9.761093 
L 253.471925 9.761093 
L 253.472151 9.444527 
L 254.021268 9.444527 
L 254.033127 8.969678 
L 254.565696 8.969678 
L 254.565696 8.811395 
L 255.093357 8.811395 
L 255.093357 8.653112 
L 257.536518 8.653112 
L 257.536518 8.494829 
L 258.845548 8.494829 
L 258.845548 8.336546 
L 259.268609 8.336546 
L 259.277084 8.01998 
L 259.685129 8.01998 
L 259.685129 7.861698 
L 263.031611 7.861698 
L 263.035285 7.545132 
L 264.031307 7.545132 
L 264.031307 7.386849 
L 265.278556 7.386849 
L 265.278556 7.228566 
L 265.870843 7.228566 
L 265.870843 7.070283 
L 268.595651 7.070283 
L 268.595651 6.912 
L 360.8064 6.912 
L 360.8064 6.912 
" style="fill:none;stroke:#ff00ff;stroke-linecap:square;stroke-width:1.5;"/>
   </g>
   <g id="line2d_35">
    <defs>
     <path d="M -0 8.485281 
L 5.091169 0 
L 0 -8.485281 
L -5.091169 -0 
z
" id="m43aa2dbd69" style="stroke:#ff00ff;stroke-linejoin:miter;stroke-width:1.5;"/>
    </defs>
    <g>
     <use style="fill-opacity:0;stroke:#ff00ff;stroke-linejoin:miter;stroke-width:1.5;" x="122.559246" xlink:href="#m43aa2dbd69" y="143.351883"/>
     <use style="fill-opacity:0;stroke:#ff00ff;stroke-linejoin:miter;stroke-width:1.5;" x="196.506641" xlink:href="#m43aa2dbd69" y="43.15879"/>
     <use style="fill-opacity:0;stroke:#ff00ff;stroke-linejoin:miter;stroke-width:1.5;" x="268.595651" xlink:href="#m43aa2dbd69" y="6.912"/>
     <use style="fill-opacity:0;stroke:#ff00ff;stroke-linejoin:miter;stroke-width:1.5;" x="268.595651" xlink:href="#m43aa2dbd69" y="6.912"/>
     <use style="fill-opacity:0;stroke:#ff00ff;stroke-linejoin:miter;stroke-width:1.5;" x="360.8064" xlink:href="#m43aa2dbd69" y="6.912"/>
    </g>
   </g>
   <g id="line2d_36">
    <path style="fill:none;stroke:#ff00ff;stroke-linecap:square;stroke-width:1.5;"/>
    <g/>
   </g>
   <g id="line2d_37">
    <path clip-path="url(#pc943f2aad8)" d="M 187.57943 49.331824 
" style="fill:none;stroke:#ff00ff;stroke-linecap:square;stroke-width:1.5;"/>
    <defs>
     <path d="M -12 12 
L 12 -12 
M -12 -12 
L 12 12 
" id="m97a5beb63b" style="stroke:#ff00ff;"/>
    </defs>
    <g clip-path="url(#pc943f2aad8)">
     <use style="fill:#ff00ff;stroke:#ff00ff;" x="187.57943" xlink:href="#m97a5beb63b" y="49.331824"/>
    </g>
   </g>
   <g id="line2d_38">
    <defs>
     <path d="M 0 1.5 
C 0.397805 1.5 0.77937 1.341951 1.06066 1.06066 
C 1.341951 0.77937 1.5 0.397805 1.5 0 
C 1.5 -0.397805 1.341951 -0.77937 1.06066 -1.06066 
C 0.77937 -1.341951 0.397805 -1.5 0 -1.5 
C -0.397805 -1.5 -0.77937 -1.341951 -1.06066 -1.06066 
C -1.341951 -0.77937 -1.5 -0.397805 -1.5 0 
C -1.5 0.397805 -1.341951 0.77937 -1.06066 1.06066 
C -0.77937 1.341951 -0.397805 1.5 0 1.5 
z
" id="m7235ce1265" style="stroke:#ff7500;"/>
    </defs>
    <g>
     <use style="fill:#ff7500;stroke:#ff7500;" x="214.582929" xlink:href="#m7235ce1265" y="6.912"/>
     <use style="fill:#ff7500;stroke:#ff7500;" x="214.582929" xlink:href="#m7235ce1265" y="6.912"/>
    </g>
   </g>
   <g id="line2d_39">
    <path d="M 80.621116 298.944 
L 80.621116 159.655024 
L 82.713442 159.655024 
L 82.713442 158.388761 
L 83.678349 158.388761 
L 83.678349 157.122498 
L 84.596168 157.122498 
L 84.596168 156.964215 
L 85.471281 156.964215 
L 85.471281 156.014517 
L 86.307488 156.014517 
L 86.307488 154.748254 
L 91.305777 154.748254 
L 91.305777 103.14802 
L 92.519847 103.14802 
L 92.519847 102.673171 
L 94.735529 102.673171 
L 94.735529 102.356605 
L 98.077987 102.356605 
L 98.077987 97.291551 
L 103.047088 97.291551 
L 103.047088 92.701346 
L 103.707211 92.701346 
L 103.707211 91.909932 
L 104.655893 91.909932 
L 104.655893 91.751649 
L 106.974091 91.751649 
L 106.974091 88.111141 
L 108.29012 88.111141 
L 108.29012 87.794576 
L 110.221204 87.794576 
L 110.221204 81.146693 
L 110.674517 81.146693 
L 110.674517 77.822751 
L 112.989468 77.822751 
L 112.989468 71.491434 
L 113.381389 71.491434 
L 113.381389 67.217795 
L 115.402131 67.217795 
L 115.402131 66.268098 
L 115.747307 66.268098 
L 115.747307 62.469307 
L 116.086263 62.469307 
L 116.086263 62.152741 
L 117.540239 62.152741 
L 117.540239 59.93678 
L 117.695068 59.93678 
L 117.695068 59.461932 
L 117.848632 59.461932 
L 117.848632 56.13799 
L 118.152051 56.13799 
L 118.152051 54.080312 
L 119.459944 54.080312 
L 119.459944 52.972332 
L 119.738639 52.972332 
L 119.738639 51.706068 
L 120.013265 51.706068 
L 120.013265 49.173541 
L 121.201758 49.173541 
L 121.201758 46.799298 
L 121.455972 46.799298 
L 121.455972 46.324449 
L 121.706797 46.324449 
L 121.706797 45.058185 
L 121.830966 45.058185 
L 121.830966 44.899902 
L 121.954321 44.899902 
L 121.954321 43.000507 
L 122.19863 43.000507 
L 122.19863 42.842224 
L 122.439807 42.842224 
L 122.439807 42.683941 
L 122.795872 42.683941 
L 122.795872 42.05081 
L 123.029559 42.05081 
L 123.029559 39.993132 
L 123.260379 39.993132 
L 123.260379 38.885151 
L 123.4884 38.885151 
L 123.4884 36.510907 
L 123.713691 36.510907 
L 123.713691 35.56121 
L 124.046648 35.56121 
L 124.156336 33.345249 
L 124.373813 33.345249 
L 124.373813 32.8704 
L 124.695386 32.8704 
L 124.695386 31.920702 
L 125.115773 31.920702 
L 125.115773 31.604137 
L 125.322496 31.604137 
L 125.322496 30.496156 
L 125.526971 30.496156 
L 125.526971 29.863024 
L 126.613505 29.863024 
L 126.613505 29.704741 
L 126.804487 29.704741 
L 126.804487 29.388176 
L 127.458055 29.388176 
L 127.458055 28.596761 
L 129.125437 28.596761 
L 129.125437 28.438478 
L 129.7043 28.438478 
L 129.7043 28.121912 
L 129.86647 28.121912 
L 129.86647 27.805346 
L 131.040128 27.805346 
L 131.040128 27.647063 
L 131.191226 27.647063 
L 131.191226 26.855649 
L 131.783764 26.855649 
L 131.783764 26.539083 
L 132.144842 26.539083 
L 132.144842 25.905951 
L 132.428795 25.905951 
L 132.428795 25.747668 
L 133.120474 25.747668 
L 133.120474 25.589385 
L 138.050729 25.589385 
L 138.050729 25.431102 
L 138.258593 25.431102 
L 138.258593 25.114537 
L 138.566146 25.114537 
L 138.616919 23.848273 
L 139.018248 23.848273 
L 139.018248 23.68999 
L 139.215746 23.68999 
L 139.215746 23.215141 
L 139.652679 23.215141 
L 139.652679 23.056859 
L 140.032723 23.056859 
L 140.032723 22.740293 
L 140.26641 22.740293 
L 140.359078 21.157463 
L 140.815692 21.157463 
L 140.860749 20.524332 
L 141.084433 20.524332 
L 141.128852 20.049483 
L 141.305488 20.049483 
L 141.349389 19.416351 
L 141.825656 19.416351 
L 141.910969 18.466654 
L 142.538777 18.466654 
L 142.538777 18.150088 
L 142.743475 18.150088 
L 142.743475 17.991805 
L 142.865233 17.991805 
L 142.865233 17.516956 
L 143.066428 17.516956 
L 143.066428 16.567259 
L 146.924857 16.567259 
L 146.924857 16.408976 
L 149.679732 16.408976 
L 149.679732 16.250693 
L 150.533072 16.250693 
L 150.533072 15.617561 
L 157.004352 15.617561 
L 157.004352 15.300995 
L 158.717331 15.300995 
L 158.717331 15.142712 
L 159.783859 15.142712 
L 159.783859 14.826146 
L 161.316153 14.826146 
L 161.316153 13.876449 
L 161.482294 13.876449 
L 161.482294 13.4016 
L 161.602209 13.4016 
L 161.602209 13.085034 
L 161.795455 13.085034 
L 161.795455 12.29362 
L 162.534963 12.29362 
L 162.534963 11.818771 
L 164.606324 11.818771 
L 164.606324 11.660488 
L 167.786064 11.660488 
L 167.786064 11.502205 
L 167.94671 11.502205 
L 167.94671 11.343922 
L 170.937709 11.343922 
L 170.937709 10.71079 
L 173.879061 10.71079 
L 173.879061 10.394224 
L 174.080256 10.394224 
L 174.080256 10.077659 
L 179.6663 10.077659 
L 179.6663 9.919376 
L 180.000761 9.919376 
L 180.000761 9.60281 
L 183.52113 9.60281 
L 183.52113 9.444527 
L 184.699636 9.444527 
L 184.699636 9.127961 
L 185.025066 9.127961 
L 185.025066 8.969678 
L 185.923824 8.969678 
L 185.923824 8.811395 
L 189.881292 8.811395 
L 189.881292 8.336546 
L 196.611493 8.336546 
L 196.611493 8.178263 
L 197.834855 8.178263 
L 197.834855 8.01998 
L 199.757971 8.01998 
L 199.757971 7.703415 
L 204.900966 7.703415 
L 204.900966 7.545132 
L 208.912586 7.545132 
L 208.912586 7.228566 
L 211.306646 7.228566 
L 211.306646 7.070283 
L 214.582929 7.070283 
L 214.582929 6.912 
L 360.8064 6.912 
L 360.8064 6.912 
" style="fill:none;stroke:#ff7500;stroke-linecap:square;stroke-width:1.5;"/>
   </g>
   <g id="line2d_40">
    <defs>
     <path d="M 0 -6 
L -1.347084 -1.854102 
L -5.706339 -1.854102 
L -2.179628 0.708204 
L -3.526712 4.854102 
L -0 2.291796 
L 3.526712 4.854102 
L 2.179628 0.708204 
L 5.706339 -1.854102 
L 1.347084 -1.854102 
z
" id="m2ff8cbafb5" style="stroke:#ff7500;stroke-linejoin:bevel;stroke-width:1.5;"/>
    </defs>
    <g>
     <use style="fill-opacity:0;stroke:#ff7500;stroke-linejoin:bevel;stroke-width:1.5;" x="133.120474" xlink:href="#m2ff8cbafb5" y="25.589385"/>
     <use style="fill-opacity:0;stroke:#ff7500;stroke-linejoin:bevel;stroke-width:1.5;" x="214.582929" xlink:href="#m2ff8cbafb5" y="7.070283"/>
     <use style="fill-opacity:0;stroke:#ff7500;stroke-linejoin:bevel;stroke-width:1.5;" x="214.582929" xlink:href="#m2ff8cbafb5" y="6.912"/>
     <use style="fill-opacity:0;stroke:#ff7500;stroke-linejoin:bevel;stroke-width:1.5;" x="214.582929" xlink:href="#m2ff8cbafb5" y="6.912"/>
     <use style="fill-opacity:0;stroke:#ff7500;stroke-linejoin:bevel;stroke-width:1.5;" x="360.8064" xlink:href="#m2ff8cbafb5" y="6.912"/>
    </g>
   </g>
   <g id="line2d_41">
    <path style="fill:none;stroke:#ff7500;stroke-linecap:square;stroke-width:1.5;"/>
    <g/>
   </g>
   <g id="line2d_42">
    <path d="M 360.8064 6.912 
L 380.514816 293.10336 
" style="fill:none;stroke:#ff00ff;stroke-linecap:square;stroke-width:1.5;"/>
    <g>
     <use style="fill-opacity:0;stroke:#ff00ff;stroke-linejoin:miter;stroke-width:1.5;" x="360.8064" xlink:href="#m43aa2dbd69" y="6.912"/>
     <use style="fill-opacity:0;stroke:#ff00ff;stroke-linejoin:miter;stroke-width:1.5;" x="380.514816" xlink:href="#m43aa2dbd69" y="293.10336"/>
    </g>
   </g>
   <g id="line2d_43">
    <path d="M 360.8064 6.912 
L 380.514816 152.928 
" style="fill:none;stroke:#ff7500;stroke-linecap:square;stroke-width:1.5;"/>
    <g>
     <use style="fill-opacity:0;stroke:#ff7500;stroke-linejoin:bevel;stroke-width:1.5;" x="360.8064" xlink:href="#m2ff8cbafb5" y="6.912"/>
     <use style="fill-opacity:0;stroke:#ff7500;stroke-linejoin:bevel;stroke-width:1.5;" x="380.514816" xlink:href="#m2ff8cbafb5" y="152.928"/>
    </g>
   </g>
   <g id="line2d_44">
    <path d="M 360.8064 6.912 
L 380.514816 12.75264 
" style="fill:none;stroke:#000080;stroke-linecap:square;stroke-width:1.5;"/>
    <g>
     <use style="fill-opacity:0;stroke:#000080;stroke-width:1.5;" x="360.8064" xlink:href="#m1d83d4c563" y="6.912"/>
     <use style="fill-opacity:0;stroke:#000080;stroke-width:1.5;" x="380.514816" xlink:href="#m1d83d4c563" y="12.75264"/>
    </g>
   </g>
   <g id="line2d_45">
    <path d="M 360.8064 298.944 
L 360.8064 6.912 
" style="fill:none;stroke:#000000;stroke-linecap:square;stroke-width:1.5;"/>
   </g>
   <g id="patch_3">
    <path d="M 57.6 298.944 
L 360.8064 298.944 
" style="fill:none;stroke:#000000;stroke-linecap:square;stroke-linejoin:miter;stroke-width:0.8;"/>
   </g>
   <g id="patch_4">
    <path d="M 57.6 6.912 
L 360.8064 6.912 
" style="fill:none;stroke:#000000;stroke-linecap:square;stroke-linejoin:miter;stroke-width:0.8;"/>
   </g>
   <g id="text_13">
    <!-- fmincon -->
    <g transform="translate(386.578944 296.966485)scale(0.14 -0.14)">
     <use xlink:href="#DejaVuSans-102"/>
     <use x="35.205078" xlink:href="#DejaVuSans-109"/>
     <use x="132.617188" xlink:href="#DejaVuSans-105"/>
     <use x="160.400391" xlink:href="#DejaVuSans-110"/>
     <use x="223.779297" xlink:href="#DejaVuSans-99"/>
     <use x="278.759766" xlink:href="#DejaVuSans-111"/>
     <use x="339.941406" xlink:href="#DejaVuSans-110"/>
    </g>
   </g>
   <g id="text_14">
    <!-- slsqp -->
    <g transform="translate(386.578944 156.791125)scale(0.14 -0.14)">
     <defs>
      <path d="M 14.796875 27.296875 
Q 14.796875 17.390625 18.875 11.75 
Q 22.953125 6.109375 30.078125 6.109375 
Q 37.203125 6.109375 41.296875 11.75 
Q 45.40625 17.390625 45.40625 27.296875 
Q 45.40625 37.203125 41.296875 42.84375 
Q 37.203125 48.484375 30.078125 48.484375 
Q 22.953125 48.484375 18.875 42.84375 
Q 14.796875 37.203125 14.796875 27.296875 
z
M 45.40625 8.203125 
Q 42.578125 3.328125 38.25 0.953125 
Q 33.9375 -1.421875 27.875 -1.421875 
Q 17.96875 -1.421875 11.734375 6.484375 
Q 5.515625 14.40625 5.515625 27.296875 
Q 5.515625 40.1875 11.734375 48.09375 
Q 17.96875 56 27.875 56 
Q 33.9375 56 38.25 53.625 
Q 42.578125 51.265625 45.40625 46.390625 
L 45.40625 54.6875 
L 54.390625 54.6875 
L 54.390625 -20.796875 
L 45.40625 -20.796875 
z
" id="DejaVuSans-113"/>
     </defs>
     <use xlink:href="#DejaVuSans-115"/>
     <use x="52.099609" xlink:href="#DejaVuSans-108"/>
     <use x="79.882812" xlink:href="#DejaVuSans-115"/>
     <use x="131.982422" xlink:href="#DejaVuSans-113"/>
     <use x="195.458984" xlink:href="#DejaVuSans-112"/>
    </g>
   </g>
   <g id="text_15">
    <!-- cobyla -->
    <g transform="translate(386.578944 16.615765)scale(0.14 -0.14)">
     <defs>
      <path d="M 48.6875 27.296875 
Q 48.6875 37.203125 44.609375 42.84375 
Q 40.53125 48.484375 33.40625 48.484375 
Q 26.265625 48.484375 22.1875 42.84375 
Q 18.109375 37.203125 18.109375 27.296875 
Q 18.109375 17.390625 22.1875 11.75 
Q 26.265625 6.109375 33.40625 6.109375 
Q 40.53125 6.109375 44.609375 11.75 
Q 48.6875 17.390625 48.6875 27.296875 
z
M 18.109375 46.390625 
Q 20.953125 51.265625 25.265625 53.625 
Q 29.59375 56 35.59375 56 
Q 45.5625 56 51.78125 48.09375 
Q 58.015625 40.1875 58.015625 27.296875 
Q 58.015625 14.40625 51.78125 6.484375 
Q 45.5625 -1.421875 35.59375 -1.421875 
Q 29.59375 -1.421875 25.265625 0.953125 
Q 20.953125 3.328125 18.109375 8.203125 
L 18.109375 0 
L 9.078125 0 
L 9.078125 75.984375 
L 18.109375 75.984375 
z
" id="DejaVuSans-98"/>
      <path d="M 32.171875 -5.078125 
Q 28.375 -14.84375 24.75 -17.8125 
Q 21.140625 -20.796875 15.09375 -20.796875 
L 7.90625 -20.796875 
L 7.90625 -13.28125 
L 13.1875 -13.28125 
Q 16.890625 -13.28125 18.9375 -11.515625 
Q 21 -9.765625 23.484375 -3.21875 
L 25.09375 0.875 
L 2.984375 54.6875 
L 12.5 54.6875 
L 29.59375 11.921875 
L 46.6875 54.6875 
L 56.203125 54.6875 
z
" id="DejaVuSans-121"/>
     </defs>
     <use xlink:href="#DejaVuSans-99"/>
     <use x="54.980469" xlink:href="#DejaVuSans-111"/>
     <use x="116.162109" xlink:href="#DejaVuSans-98"/>
     <use x="179.638672" xlink:href="#DejaVuSans-121"/>
     <use x="238.818359" xlink:href="#DejaVuSans-108"/>
     <use x="266.601562" xlink:href="#DejaVuSans-97"/>
    </g>
   </g>
   <g id="text_16">
    <!-- bbob-constrained f4, f10, f16, 5-D -->
    <g transform="translate(60.632064 17.582726)scale(0.102 -0.102)">
     <defs>
      <path d="M 4.890625 31.390625 
L 31.203125 31.390625 
L 31.203125 23.390625 
L 4.890625 23.390625 
z
" id="DejaVuSans-45"/>
      <path d="M 10.796875 72.90625 
L 49.515625 72.90625 
L 49.515625 64.59375 
L 19.828125 64.59375 
L 19.828125 46.734375 
Q 21.96875 47.46875 24.109375 47.828125 
Q 26.265625 48.1875 28.421875 48.1875 
Q 40.625 48.1875 47.75 41.5 
Q 54.890625 34.8125 54.890625 23.390625 
Q 54.890625 11.625 47.5625 5.09375 
Q 40.234375 -1.421875 26.90625 -1.421875 
Q 22.3125 -1.421875 17.546875 -0.640625 
Q 12.796875 0.140625 7.71875 1.703125 
L 7.71875 11.625 
Q 12.109375 9.234375 16.796875 8.0625 
Q 21.484375 6.890625 26.703125 6.890625 
Q 35.15625 6.890625 40.078125 11.328125 
Q 45.015625 15.765625 45.015625 23.390625 
Q 45.015625 31 40.078125 35.4375 
Q 35.15625 39.890625 26.703125 39.890625 
Q 22.75 39.890625 18.8125 39.015625 
Q 14.890625 38.140625 10.796875 36.28125 
z
" id="DejaVuSans-53"/>
      <path d="M 19.671875 64.796875 
L 19.671875 8.109375 
L 31.59375 8.109375 
Q 46.6875 8.109375 53.6875 14.9375 
Q 60.6875 21.78125 60.6875 36.53125 
Q 60.6875 51.171875 53.6875 57.984375 
Q 46.6875 64.796875 31.59375 64.796875 
z
M 9.8125 72.90625 
L 30.078125 72.90625 
Q 51.265625 72.90625 61.171875 64.09375 
Q 71.09375 55.28125 71.09375 36.53125 
Q 71.09375 17.671875 61.125 8.828125 
Q 51.171875 0 30.078125 0 
L 9.8125 0 
z
" id="DejaVuSans-68"/>
     </defs>
     <use xlink:href="#DejaVuSans-98"/>
     <use x="63.476562" xlink:href="#DejaVuSans-98"/>
     <use x="126.953125" xlink:href="#DejaVuSans-111"/>
     <use x="188.134766" xlink:href="#DejaVuSans-98"/>
     <use x="251.611328" xlink:href="#DejaVuSans-45"/>
     <use x="287.695312" xlink:href="#DejaVuSans-99"/>
     <use x="342.675781" xlink:href="#DejaVuSans-111"/>
     <use x="403.857422" xlink:href="#DejaVuSans-110"/>
     <use x="467.236328" xlink:href="#DejaVuSans-115"/>
     <use x="519.335938" xlink:href="#DejaVuSans-116"/>
     <use x="558.544922" xlink:href="#DejaVuSans-114"/>
     <use x="599.658203" xlink:href="#DejaVuSans-97"/>
     <use x="660.9375" xlink:href="#DejaVuSans-105"/>
     <use x="688.720703" xlink:href="#DejaVuSans-110"/>
     <use x="752.099609" xlink:href="#DejaVuSans-101"/>
     <use x="813.623047" xlink:href="#DejaVuSans-100"/>
     <use x="877.099609" xlink:href="#DejaVuSans-32"/>
     <use x="908.886719" xlink:href="#DejaVuSans-102"/>
     <use x="944.091797" xlink:href="#DejaVuSans-52"/>
     <use x="1007.714844" xlink:href="#DejaVuSans-44"/>
     <use x="1039.501953" xlink:href="#DejaVuSans-32"/>
     <use x="1071.289062" xlink:href="#DejaVuSans-102"/>
     <use x="1106.494141" xlink:href="#DejaVuSans-49"/>
     <use x="1170.117188" xlink:href="#DejaVuSans-48"/>
     <use x="1233.740234" xlink:href="#DejaVuSans-44"/>
     <use x="1265.527344" xlink:href="#DejaVuSans-32"/>
     <use x="1297.314453" xlink:href="#DejaVuSans-102"/>
     <use x="1332.519531" xlink:href="#DejaVuSans-49"/>
     <use x="1396.142578" xlink:href="#DejaVuSans-54"/>
     <use x="1459.765625" xlink:href="#DejaVuSans-44"/>
     <use x="1491.552734" xlink:href="#DejaVuSans-32"/>
     <use x="1523.339844" xlink:href="#DejaVuSans-53"/>
     <use x="1586.962891" xlink:href="#DejaVuSans-45"/>
     <use x="1623.046875" xlink:href="#DejaVuSans-68"/>
    </g>
    <!-- 41 targets: 100..1e-06 -->
    <g transform="translate(60.632064 29.004495)scale(0.102 -0.102)">
     <defs>
      <path d="M 11.71875 12.40625 
L 22.015625 12.40625 
L 22.015625 0 
L 11.71875 0 
z
M 11.71875 51.703125 
L 22.015625 51.703125 
L 22.015625 39.3125 
L 11.71875 39.3125 
z
" id="DejaVuSans-58"/>
     </defs>
     <use xlink:href="#DejaVuSans-52"/>
     <use x="63.623047" xlink:href="#DejaVuSans-49"/>
     <use x="127.246094" xlink:href="#DejaVuSans-32"/>
     <use x="159.033203" xlink:href="#DejaVuSans-116"/>
     <use x="198.242188" xlink:href="#DejaVuSans-97"/>
     <use x="259.521484" xlink:href="#DejaVuSans-114"/>
     <use x="298.884766" xlink:href="#DejaVuSans-103"/>
     <use x="362.361328" xlink:href="#DejaVuSans-101"/>
     <use x="423.884766" xlink:href="#DejaVuSans-116"/>
     <use x="463.09375" xlink:href="#DejaVuSans-115"/>
     <use x="515.193359" xlink:href="#DejaVuSans-58"/>
     <use x="548.884766" xlink:href="#DejaVuSans-32"/>
     <use x="580.671875" xlink:href="#DejaVuSans-49"/>
     <use x="644.294922" xlink:href="#DejaVuSans-48"/>
     <use x="707.917969" xlink:href="#DejaVuSans-48"/>
     <use x="771.541016" xlink:href="#DejaVuSans-46"/>
     <use x="803.328125" xlink:href="#DejaVuSans-46"/>
     <use x="835.115234" xlink:href="#DejaVuSans-49"/>
     <use x="898.738281" xlink:href="#DejaVuSans-101"/>
     <use x="960.261719" xlink:href="#DejaVuSans-45"/>
     <use x="996.345703" xlink:href="#DejaVuSans-48"/>
     <use x="1059.96875" xlink:href="#DejaVuSans-54"/>
    </g>
    <!-- evals = f-evals + g-evals -->
    <g transform="translate(60.632064 40.426264)scale(0.102 -0.102)">
     <defs>
      <path d="M 10.59375 45.40625 
L 73.1875 45.40625 
L 73.1875 37.203125 
L 10.59375 37.203125 
z
M 10.59375 25.484375 
L 73.1875 25.484375 
L 73.1875 17.1875 
L 10.59375 17.1875 
z
" id="DejaVuSans-61"/>
      <path d="M 46 62.703125 
L 46 35.5 
L 73.1875 35.5 
L 73.1875 27.203125 
L 46 27.203125 
L 46 0 
L 37.796875 0 
L 37.796875 27.203125 
L 10.59375 27.203125 
L 10.59375 35.5 
L 37.796875 35.5 
L 37.796875 62.703125 
z
" id="DejaVuSans-43"/>
     </defs>
     <use xlink:href="#DejaVuSans-101"/>
     <use x="61.523438" xlink:href="#DejaVuSans-118"/>
     <use x="120.703125" xlink:href="#DejaVuSans-97"/>
     <use x="181.982422" xlink:href="#DejaVuSans-108"/>
     <use x="209.765625" xlink:href="#DejaVuSans-115"/>
     <use x="261.865234" xlink:href="#DejaVuSans-32"/>
     <use x="293.652344" xlink:href="#DejaVuSans-61"/>
     <use x="377.441406" xlink:href="#DejaVuSans-32"/>
     <use x="409.228516" xlink:href="#DejaVuSans-102"/>
     <use x="438.933594" xlink:href="#DejaVuSans-45"/>
     <use x="475.017578" xlink:href="#DejaVuSans-101"/>
     <use x="536.541016" xlink:href="#DejaVuSans-118"/>
     <use x="595.720703" xlink:href="#DejaVuSans-97"/>
     <use x="657" xlink:href="#DejaVuSans-108"/>
     <use x="684.783203" xlink:href="#DejaVuSans-115"/>
     <use x="736.882812" xlink:href="#DejaVuSans-32"/>
     <use x="768.669922" xlink:href="#DejaVuSans-43"/>
     <use x="852.458984" xlink:href="#DejaVuSans-32"/>
     <use x="884.246094" xlink:href="#DejaVuSans-103"/>
     <use x="947.722656" xlink:href="#DejaVuSans-45"/>
     <use x="983.806641" xlink:href="#DejaVuSans-101"/>
     <use x="1045.330078" xlink:href="#DejaVuSans-118"/>
     <use x="1104.509766" xlink:href="#DejaVuSans-97"/>
     <use x="1165.789062" xlink:href="#DejaVuSans-108"/>
     <use x="1193.572266" xlink:href="#DejaVuSans-115"/>
    </g>
    <!-- 15 instances -->
    <g transform="translate(60.632064 51.848032)scale(0.102 -0.102)">
     <use xlink:href="#DejaVuSans-49"/>
     <use x="63.623047" xlink:href="#DejaVuSans-53"/>
     <use x="127.246094" xlink:href="#DejaVuSans-32"/>
     <use x="159.033203" xlink:href="#DejaVuSans-105"/>
     <use x="186.816406" xlink:href="#DejaVuSans-110"/>
     <use x="250.195312" xlink:href="#DejaVuSans-115"/>
     <use x="302.294922" xlink:href="#DejaVuSans-116"/>
     <use x="341.503906" xlink:href="#DejaVuSans-97"/>
     <use x="402.783203" xlink:href="#DejaVuSans-110"/>
     <use x="466.162109" xlink:href="#DejaVuSans-99"/>
     <use x="521.142578" xlink:href="#DejaVuSans-101"/>
     <use x="582.666016" xlink:href="#DejaVuSans-115"/>
    </g>
   </g>
   <g id="text_17">
    <!-- v2.4.159 -->
    <g style="fill:#808080;" transform="translate(187.15945 293.943992)scale(0.1 -0.1)">
     <defs>
      <path d="M 10.984375 1.515625 
L 10.984375 10.5 
Q 14.703125 8.734375 18.5 7.8125 
Q 22.3125 6.890625 25.984375 6.890625 
Q 35.75 6.890625 40.890625 13.453125 
Q 46.046875 20.015625 46.78125 33.40625 
Q 43.953125 29.203125 39.59375 26.953125 
Q 35.25 24.703125 29.984375 24.703125 
Q 19.046875 24.703125 12.671875 31.3125 
Q 6.296875 37.9375 6.296875 49.421875 
Q 6.296875 60.640625 12.9375 67.421875 
Q 19.578125 74.21875 30.609375 74.21875 
Q 43.265625 74.21875 49.921875 64.515625 
Q 56.59375 54.828125 56.59375 36.375 
Q 56.59375 19.140625 48.40625 8.859375 
Q 40.234375 -1.421875 26.421875 -1.421875 
Q 22.703125 -1.421875 18.890625 -0.6875 
Q 15.09375 0.046875 10.984375 1.515625 
z
M 30.609375 32.421875 
Q 37.25 32.421875 41.125 36.953125 
Q 45.015625 41.5 45.015625 49.421875 
Q 45.015625 57.28125 41.125 61.84375 
Q 37.25 66.40625 30.609375 66.40625 
Q 23.96875 66.40625 20.09375 61.84375 
Q 16.21875 57.28125 16.21875 49.421875 
Q 16.21875 41.5 20.09375 36.953125 
Q 23.96875 32.421875 30.609375 32.421875 
z
" id="DejaVuSans-57"/>
     </defs>
     <use xlink:href="#DejaVuSans-118"/>
     <use x="59.179688" xlink:href="#DejaVuSans-50"/>
     <use x="122.802734" xlink:href="#DejaVuSans-46"/>
     <use x="154.589844" xlink:href="#DejaVuSans-52"/>
     <use x="218.212891" xlink:href="#DejaVuSans-46"/>
     <use x="250" xlink:href="#DejaVuSans-49"/>
     <use x="313.623047" xlink:href="#DejaVuSans-53"/>
     <use x="377.246094" xlink:href="#DejaVuSans-57"/>
    </g>
   </g>
  </g>
 </g>
 <defs>
  <clipPath id="pc943f2aad8">
   <rect height="292.032" width="303.2064" x="57.6" y="6.912"/>
  </clipPath>
 </defs>
</svg>
