<?xml version="1.0" encoding="utf-8" standalone="no"?>
<!DOCTYPE svg PUBLIC "-//W3C//DTD SVG 1.1//EN"
  "http://www.w3.org/Graphics/SVG/1.1/DTD/svg11.dtd">
<!-- Created with matplotlib (https://matplotlib.org/) -->
<svg height="345.6pt" version="1.1" viewBox="0 0 460.8 345.6" width="460.8pt" xmlns="http://www.w3.org/2000/svg" xmlns:xlink="http://www.w3.org/1999/xlink">
 <metadata>
  <rdf:RDF xmlns:cc="http://creativecommons.org/ns#" xmlns:dc="http://purl.org/dc/elements/1.1/" xmlns:rdf="http://www.w3.org/1999/02/22-rdf-syntax-ns#">
   <cc:Work>
    <dc:type rdf:resource="http://purl.org/dc/dcmitype/StillImage"/>
    <dc:date>2022-02-09T09:59:57.589032</dc:date>
    <dc:format>image/svg+xml</dc:format>
    <dc:creator>
     <cc:Agent>
      <dc:title>Matplotlib v3.3.3, https://matplotlib.org/</dc:title>
     </cc:Agent>
    </dc:creator>
   </cc:Work>
  </rdf:RDF>
 </metadata>
 <defs>
  <style type="text/css">*{stroke-linecap:butt;stroke-linejoin:round;}</style>
 </defs>
 <g id="figure_1">
  <g id="patch_1">
   <path d="M 0 345.6 
L 460.8 345.6 
L 460.8 0 
L 0 0 
z
" style="fill:#ffffff;"/>
  </g>
  <g id="axes_1">
   <g id="patch_2">
    <path d="M 57.6 298.944 
L 360.8064 298.944 
L 360.8064 6.912 
L 57.6 6.912 
z
" style="fill:#ffffff;"/>
   </g>
   <g id="matplotlib.axis_1">
    <g id="xtick_1">
     <g id="line2d_1">
      <path clip-path="url(#p96b9e53fc3)" d="M 57.6 298.944 
L 57.6 6.912 
" style="fill:none;stroke:#b0b0b0;stroke-linecap:square;stroke-width:0.8;"/>
     </g>
     <g id="line2d_2">
      <defs>
       <path d="M 0 0 
L 0 3.5 
" id="mc9b9390197" style="stroke:#000000;stroke-width:0.8;"/>
      </defs>
      <g>
       <use style="stroke:#000000;stroke-width:0.8;" x="57.6" xlink:href="#mc9b9390197" y="298.944"/>
      </g>
     </g>
     <g id="text_1">
      <!-- 0 -->
      <g transform="translate(52.191875 318.861344)scale(0.17 -0.17)">
       <defs>
        <path d="M 31.78125 66.40625 
Q 24.171875 66.40625 20.328125 58.90625 
Q 16.5 51.421875 16.5 36.375 
Q 16.5 21.390625 20.328125 13.890625 
Q 24.171875 6.390625 31.78125 6.390625 
Q 39.453125 6.390625 43.28125 13.890625 
Q 47.125 21.390625 47.125 36.375 
Q 47.125 51.421875 43.28125 58.90625 
Q 39.453125 66.40625 31.78125 66.40625 
z
M 31.78125 74.21875 
Q 44.046875 74.21875 50.515625 64.515625 
Q 56.984375 54.828125 56.984375 36.375 
Q 56.984375 17.96875 50.515625 8.265625 
Q 44.046875 -1.421875 31.78125 -1.421875 
Q 19.53125 -1.421875 13.0625 8.265625 
Q 6.59375 17.96875 6.59375 36.375 
Q 6.59375 54.828125 13.0625 64.515625 
Q 19.53125 74.21875 31.78125 74.21875 
z
" id="DejaVuSans-48"/>
       </defs>
       <use xlink:href="#DejaVuSans-48"/>
      </g>
     </g>
    </g>
    <g id="xtick_2">
     <g id="line2d_3">
      <path clip-path="url(#p96b9e53fc3)" d="M 144.2304 298.944 
L 144.2304 6.912 
" style="fill:none;stroke:#b0b0b0;stroke-linecap:square;stroke-width:0.8;"/>
     </g>
     <g id="line2d_4">
      <g>
       <use style="stroke:#000000;stroke-width:0.8;" x="144.2304" xlink:href="#mc9b9390197" y="298.944"/>
      </g>
     </g>
     <g id="text_2">
      <!-- 2 -->
      <g transform="translate(138.822275 318.861344)scale(0.17 -0.17)">
       <defs>
        <path d="M 19.1875 8.296875 
L 53.609375 8.296875 
L 53.609375 0 
L 7.328125 0 
L 7.328125 8.296875 
Q 12.9375 14.109375 22.625 23.890625 
Q 32.328125 33.6875 34.8125 36.53125 
Q 39.546875 41.84375 41.421875 45.53125 
Q 43.3125 49.21875 43.3125 52.78125 
Q 43.3125 58.59375 39.234375 62.25 
Q 35.15625 65.921875 28.609375 65.921875 
Q 23.96875 65.921875 18.8125 64.3125 
Q 13.671875 62.703125 7.8125 59.421875 
L 7.8125 69.390625 
Q 13.765625 71.78125 18.9375 73 
Q 24.125 74.21875 28.421875 74.21875 
Q 39.75 74.21875 46.484375 68.546875 
Q 53.21875 62.890625 53.21875 53.421875 
Q 53.21875 48.921875 51.53125 44.890625 
Q 49.859375 40.875 45.40625 35.40625 
Q 44.1875 33.984375 37.640625 27.21875 
Q 31.109375 20.453125 19.1875 8.296875 
z
" id="DejaVuSans-50"/>
       </defs>
       <use xlink:href="#DejaVuSans-50"/>
      </g>
     </g>
    </g>
    <g id="xtick_3">
     <g id="line2d_5">
      <path clip-path="url(#p96b9e53fc3)" d="M 230.8608 298.944 
L 230.8608 6.912 
" style="fill:none;stroke:#b0b0b0;stroke-linecap:square;stroke-width:0.8;"/>
     </g>
     <g id="line2d_6">
      <g>
       <use style="stroke:#000000;stroke-width:0.8;" x="230.8608" xlink:href="#mc9b9390197" y="298.944"/>
      </g>
     </g>
     <g id="text_3">
      <!-- 4 -->
      <g transform="translate(225.452675 318.861344)scale(0.17 -0.17)">
       <defs>
        <path d="M 37.796875 64.3125 
L 12.890625 25.390625 
L 37.796875 25.390625 
z
M 35.203125 72.90625 
L 47.609375 72.90625 
L 47.609375 25.390625 
L 58.015625 25.390625 
L 58.015625 17.1875 
L 47.609375 17.1875 
L 47.609375 0 
L 37.796875 0 
L 37.796875 17.1875 
L 4.890625 17.1875 
L 4.890625 26.703125 
z
" id="DejaVuSans-52"/>
       </defs>
       <use xlink:href="#DejaVuSans-52"/>
      </g>
     </g>
    </g>
    <g id="xtick_4">
     <g id="line2d_7">
      <path clip-path="url(#p96b9e53fc3)" d="M 317.4912 298.944 
L 317.4912 6.912 
" style="fill:none;stroke:#b0b0b0;stroke-linecap:square;stroke-width:0.8;"/>
     </g>
     <g id="line2d_8">
      <g>
       <use style="stroke:#000000;stroke-width:0.8;" x="317.4912" xlink:href="#mc9b9390197" y="298.944"/>
      </g>
     </g>
     <g id="text_4">
      <!-- 6 -->
      <g transform="translate(312.083075 318.861344)scale(0.17 -0.17)">
       <defs>
        <path d="M 33.015625 40.375 
Q 26.375 40.375 22.484375 35.828125 
Q 18.609375 31.296875 18.609375 23.390625 
Q 18.609375 15.53125 22.484375 10.953125 
Q 26.375 6.390625 33.015625 6.390625 
Q 39.65625 6.390625 43.53125 10.953125 
Q 47.40625 15.53125 47.40625 23.390625 
Q 47.40625 31.296875 43.53125 35.828125 
Q 39.65625 40.375 33.015625 40.375 
z
M 52.59375 71.296875 
L 52.59375 62.3125 
Q 48.875 64.0625 45.09375 64.984375 
Q 41.3125 65.921875 37.59375 65.921875 
Q 27.828125 65.921875 22.671875 59.328125 
Q 17.53125 52.734375 16.796875 39.40625 
Q 19.671875 43.65625 24.015625 45.921875 
Q 28.375 48.1875 33.59375 48.1875 
Q 44.578125 48.1875 50.953125 41.515625 
Q 57.328125 34.859375 57.328125 23.390625 
Q 57.328125 12.15625 50.6875 5.359375 
Q 44.046875 -1.421875 33.015625 -1.421875 
Q 20.359375 -1.421875 13.671875 8.265625 
Q 6.984375 17.96875 6.984375 36.375 
Q 6.984375 53.65625 15.1875 63.9375 
Q 23.390625 74.21875 37.203125 74.21875 
Q 40.921875 74.21875 44.703125 73.484375 
Q 48.484375 72.75 52.59375 71.296875 
z
" id="DejaVuSans-54"/>
       </defs>
       <use xlink:href="#DejaVuSans-54"/>
      </g>
     </g>
    </g>
    <g id="xtick_5">
     <g id="line2d_9">
      <path clip-path="url(#p96b9e53fc3)" d="M 100.9152 298.944 
L 100.9152 6.912 
" style="fill:none;stroke:#b0b0b0;stroke-linecap:square;stroke-width:0.8;"/>
     </g>
     <g id="line2d_10">
      <defs>
       <path d="M 0 0 
L 0 2 
" id="m8bebd3592e" style="stroke:#000000;stroke-width:0.6;"/>
      </defs>
      <g>
       <use style="stroke:#000000;stroke-width:0.6;" x="100.9152" xlink:href="#m8bebd3592e" y="298.944"/>
      </g>
     </g>
    </g>
    <g id="xtick_6">
     <g id="line2d_11">
      <path clip-path="url(#p96b9e53fc3)" d="M 187.5456 298.944 
L 187.5456 6.912 
" style="fill:none;stroke:#b0b0b0;stroke-linecap:square;stroke-width:0.8;"/>
     </g>
     <g id="line2d_12">
      <g>
       <use style="stroke:#000000;stroke-width:0.6;" x="187.5456" xlink:href="#m8bebd3592e" y="298.944"/>
      </g>
     </g>
    </g>
    <g id="xtick_7">
     <g id="line2d_13">
      <path clip-path="url(#p96b9e53fc3)" d="M 274.176 298.944 
L 274.176 6.912 
" style="fill:none;stroke:#b0b0b0;stroke-linecap:square;stroke-width:0.8;"/>
     </g>
     <g id="line2d_14">
      <g>
       <use style="stroke:#000000;stroke-width:0.6;" x="274.176" xlink:href="#m8bebd3592e" y="298.944"/>
      </g>
     </g>
    </g>
    <g id="xtick_8">
     <g id="line2d_15">
      <path clip-path="url(#p96b9e53fc3)" d="M 360.8064 298.944 
L 360.8064 6.912 
" style="fill:none;stroke:#b0b0b0;stroke-linecap:square;stroke-width:0.8;"/>
     </g>
     <g id="line2d_16">
      <g>
       <use style="stroke:#000000;stroke-width:0.6;" x="360.8064" xlink:href="#m8bebd3592e" y="298.944"/>
      </g>
     </g>
    </g>
    <g id="text_5">
     <!-- log10(evals / dimension) -->
     <g transform="translate(104.238825 339.314156)scale(0.17 -0.17)">
      <defs>
       <path d="M 9.421875 75.984375 
L 18.40625 75.984375 
L 18.40625 0 
L 9.421875 0 
z
" id="DejaVuSans-108"/>
       <path d="M 30.609375 48.390625 
Q 23.390625 48.390625 19.1875 42.75 
Q 14.984375 37.109375 14.984375 27.296875 
Q 14.984375 17.484375 19.15625 11.84375 
Q 23.34375 6.203125 30.609375 6.203125 
Q 37.796875 6.203125 41.984375 11.859375 
Q 46.1875 17.53125 46.1875 27.296875 
Q 46.1875 37.015625 41.984375 42.703125 
Q 37.796875 48.390625 30.609375 48.390625 
z
M 30.609375 56 
Q 42.328125 56 49.015625 48.375 
Q 55.71875 40.765625 55.71875 27.296875 
Q 55.71875 13.875 49.015625 6.21875 
Q 42.328125 -1.421875 30.609375 -1.421875 
Q 18.84375 -1.421875 12.171875 6.21875 
Q 5.515625 13.875 5.515625 27.296875 
Q 5.515625 40.765625 12.171875 48.375 
Q 18.84375 56 30.609375 56 
z
" id="DejaVuSans-111"/>
       <path d="M 45.40625 27.984375 
Q 45.40625 37.75 41.375 43.109375 
Q 37.359375 48.484375 30.078125 48.484375 
Q 22.859375 48.484375 18.828125 43.109375 
Q 14.796875 37.75 14.796875 27.984375 
Q 14.796875 18.265625 18.828125 12.890625 
Q 22.859375 7.515625 30.078125 7.515625 
Q 37.359375 7.515625 41.375 12.890625 
Q 45.40625 18.265625 45.40625 27.984375 
z
M 54.390625 6.78125 
Q 54.390625 -7.171875 48.1875 -13.984375 
Q 42 -20.796875 29.203125 -20.796875 
Q 24.46875 -20.796875 20.265625 -20.09375 
Q 16.0625 -19.390625 12.109375 -17.921875 
L 12.109375 -9.1875 
Q 16.0625 -11.328125 19.921875 -12.34375 
Q 23.78125 -13.375 27.78125 -13.375 
Q 36.625 -13.375 41.015625 -8.765625 
Q 45.40625 -4.15625 45.40625 5.171875 
L 45.40625 9.625 
Q 42.625 4.78125 38.28125 2.390625 
Q 33.9375 0 27.875 0 
Q 17.828125 0 11.671875 7.65625 
Q 5.515625 15.328125 5.515625 27.984375 
Q 5.515625 40.671875 11.671875 48.328125 
Q 17.828125 56 27.875 56 
Q 33.9375 56 38.28125 53.609375 
Q 42.625 51.21875 45.40625 46.390625 
L 45.40625 54.6875 
L 54.390625 54.6875 
z
" id="DejaVuSans-103"/>
       <path d="M 12.40625 8.296875 
L 28.515625 8.296875 
L 28.515625 63.921875 
L 10.984375 60.40625 
L 10.984375 69.390625 
L 28.421875 72.90625 
L 38.28125 72.90625 
L 38.28125 8.296875 
L 54.390625 8.296875 
L 54.390625 0 
L 12.40625 0 
z
" id="DejaVuSans-49"/>
       <path d="M 31 75.875 
Q 24.46875 64.65625 21.28125 53.65625 
Q 18.109375 42.671875 18.109375 31.390625 
Q 18.109375 20.125 21.3125 9.0625 
Q 24.515625 -2 31 -13.1875 
L 23.1875 -13.1875 
Q 15.875 -1.703125 12.234375 9.375 
Q 8.59375 20.453125 8.59375 31.390625 
Q 8.59375 42.28125 12.203125 53.3125 
Q 15.828125 64.359375 23.1875 75.875 
z
" id="DejaVuSans-40"/>
       <path d="M 56.203125 29.59375 
L 56.203125 25.203125 
L 14.890625 25.203125 
Q 15.484375 15.921875 20.484375 11.0625 
Q 25.484375 6.203125 34.421875 6.203125 
Q 39.59375 6.203125 44.453125 7.46875 
Q 49.3125 8.734375 54.109375 11.28125 
L 54.109375 2.78125 
Q 49.265625 0.734375 44.1875 -0.34375 
Q 39.109375 -1.421875 33.890625 -1.421875 
Q 20.796875 -1.421875 13.15625 6.1875 
Q 5.515625 13.8125 5.515625 26.8125 
Q 5.515625 40.234375 12.765625 48.109375 
Q 20.015625 56 32.328125 56 
Q 43.359375 56 49.78125 48.890625 
Q 56.203125 41.796875 56.203125 29.59375 
z
M 47.21875 32.234375 
Q 47.125 39.59375 43.09375 43.984375 
Q 39.0625 48.390625 32.421875 48.390625 
Q 24.90625 48.390625 20.390625 44.140625 
Q 15.875 39.890625 15.1875 32.171875 
z
" id="DejaVuSans-101"/>
       <path d="M 2.984375 54.6875 
L 12.5 54.6875 
L 29.59375 8.796875 
L 46.6875 54.6875 
L 56.203125 54.6875 
L 35.6875 0 
L 23.484375 0 
z
" id="DejaVuSans-118"/>
       <path d="M 34.28125 27.484375 
Q 23.390625 27.484375 19.1875 25 
Q 14.984375 22.515625 14.984375 16.5 
Q 14.984375 11.71875 18.140625 8.90625 
Q 21.296875 6.109375 26.703125 6.109375 
Q 34.1875 6.109375 38.703125 11.40625 
Q 43.21875 16.703125 43.21875 25.484375 
L 43.21875 27.484375 
z
M 52.203125 31.203125 
L 52.203125 0 
L 43.21875 0 
L 43.21875 8.296875 
Q 40.140625 3.328125 35.546875 0.953125 
Q 30.953125 -1.421875 24.3125 -1.421875 
Q 15.921875 -1.421875 10.953125 3.296875 
Q 6 8.015625 6 15.921875 
Q 6 25.140625 12.171875 29.828125 
Q 18.359375 34.515625 30.609375 34.515625 
L 43.21875 34.515625 
L 43.21875 35.40625 
Q 43.21875 41.609375 39.140625 45 
Q 35.0625 48.390625 27.6875 48.390625 
Q 23 48.390625 18.546875 47.265625 
Q 14.109375 46.140625 10.015625 43.890625 
L 10.015625 52.203125 
Q 14.9375 54.109375 19.578125 55.046875 
Q 24.21875 56 28.609375 56 
Q 40.484375 56 46.34375 49.84375 
Q 52.203125 43.703125 52.203125 31.203125 
z
" id="DejaVuSans-97"/>
       <path d="M 44.28125 53.078125 
L 44.28125 44.578125 
Q 40.484375 46.53125 36.375 47.5 
Q 32.28125 48.484375 27.875 48.484375 
Q 21.1875 48.484375 17.84375 46.4375 
Q 14.5 44.390625 14.5 40.28125 
Q 14.5 37.15625 16.890625 35.375 
Q 19.28125 33.59375 26.515625 31.984375 
L 29.59375 31.296875 
Q 39.15625 29.25 43.1875 25.515625 
Q 47.21875 21.78125 47.21875 15.09375 
Q 47.21875 7.46875 41.1875 3.015625 
Q 35.15625 -1.421875 24.609375 -1.421875 
Q 20.21875 -1.421875 15.453125 -0.5625 
Q 10.6875 0.296875 5.421875 2 
L 5.421875 11.28125 
Q 10.40625 8.6875 15.234375 7.390625 
Q 20.0625 6.109375 24.8125 6.109375 
Q 31.15625 6.109375 34.5625 8.28125 
Q 37.984375 10.453125 37.984375 14.40625 
Q 37.984375 18.0625 35.515625 20.015625 
Q 33.0625 21.96875 24.703125 23.78125 
L 21.578125 24.515625 
Q 13.234375 26.265625 9.515625 29.90625 
Q 5.8125 33.546875 5.8125 39.890625 
Q 5.8125 47.609375 11.28125 51.796875 
Q 16.75 56 26.8125 56 
Q 31.78125 56 36.171875 55.265625 
Q 40.578125 54.546875 44.28125 53.078125 
z
" id="DejaVuSans-115"/>
       <path id="DejaVuSans-32"/>
       <path d="M 25.390625 72.90625 
L 33.6875 72.90625 
L 8.296875 -9.28125 
L 0 -9.28125 
z
" id="DejaVuSans-47"/>
       <path d="M 45.40625 46.390625 
L 45.40625 75.984375 
L 54.390625 75.984375 
L 54.390625 0 
L 45.40625 0 
L 45.40625 8.203125 
Q 42.578125 3.328125 38.25 0.953125 
Q 33.9375 -1.421875 27.875 -1.421875 
Q 17.96875 -1.421875 11.734375 6.484375 
Q 5.515625 14.40625 5.515625 27.296875 
Q 5.515625 40.1875 11.734375 48.09375 
Q 17.96875 56 27.875 56 
Q 33.9375 56 38.25 53.625 
Q 42.578125 51.265625 45.40625 46.390625 
z
M 14.796875 27.296875 
Q 14.796875 17.390625 18.875 11.75 
Q 22.953125 6.109375 30.078125 6.109375 
Q 37.203125 6.109375 41.296875 11.75 
Q 45.40625 17.390625 45.40625 27.296875 
Q 45.40625 37.203125 41.296875 42.84375 
Q 37.203125 48.484375 30.078125 48.484375 
Q 22.953125 48.484375 18.875 42.84375 
Q 14.796875 37.203125 14.796875 27.296875 
z
" id="DejaVuSans-100"/>
       <path d="M 9.421875 54.6875 
L 18.40625 54.6875 
L 18.40625 0 
L 9.421875 0 
z
M 9.421875 75.984375 
L 18.40625 75.984375 
L 18.40625 64.59375 
L 9.421875 64.59375 
z
" id="DejaVuSans-105"/>
       <path d="M 52 44.1875 
Q 55.375 50.25 60.0625 53.125 
Q 64.75 56 71.09375 56 
Q 79.640625 56 84.28125 50.015625 
Q 88.921875 44.046875 88.921875 33.015625 
L 88.921875 0 
L 79.890625 0 
L 79.890625 32.71875 
Q 79.890625 40.578125 77.09375 44.375 
Q 74.3125 48.1875 68.609375 48.1875 
Q 61.625 48.1875 57.5625 43.546875 
Q 53.515625 38.921875 53.515625 30.90625 
L 53.515625 0 
L 44.484375 0 
L 44.484375 32.71875 
Q 44.484375 40.625 41.703125 44.40625 
Q 38.921875 48.1875 33.109375 48.1875 
Q 26.21875 48.1875 22.15625 43.53125 
Q 18.109375 38.875 18.109375 30.90625 
L 18.109375 0 
L 9.078125 0 
L 9.078125 54.6875 
L 18.109375 54.6875 
L 18.109375 46.1875 
Q 21.1875 51.21875 25.484375 53.609375 
Q 29.78125 56 35.6875 56 
Q 41.65625 56 45.828125 52.96875 
Q 50 49.953125 52 44.1875 
z
" id="DejaVuSans-109"/>
       <path d="M 54.890625 33.015625 
L 54.890625 0 
L 45.90625 0 
L 45.90625 32.71875 
Q 45.90625 40.484375 42.875 44.328125 
Q 39.84375 48.1875 33.796875 48.1875 
Q 26.515625 48.1875 22.3125 43.546875 
Q 18.109375 38.921875 18.109375 30.90625 
L 18.109375 0 
L 9.078125 0 
L 9.078125 54.6875 
L 18.109375 54.6875 
L 18.109375 46.1875 
Q 21.34375 51.125 25.703125 53.5625 
Q 30.078125 56 35.796875 56 
Q 45.21875 56 50.046875 50.171875 
Q 54.890625 44.34375 54.890625 33.015625 
z
" id="DejaVuSans-110"/>
       <path d="M 8.015625 75.875 
L 15.828125 75.875 
Q 23.140625 64.359375 26.78125 53.3125 
Q 30.421875 42.28125 30.421875 31.390625 
Q 30.421875 20.453125 26.78125 9.375 
Q 23.140625 -1.703125 15.828125 -13.1875 
L 8.015625 -13.1875 
Q 14.5 -2 17.703125 9.0625 
Q 20.90625 20.125 20.90625 31.390625 
Q 20.90625 42.671875 17.703125 53.65625 
Q 14.5 64.65625 8.015625 75.875 
z
" id="DejaVuSans-41"/>
      </defs>
      <use xlink:href="#DejaVuSans-108"/>
      <use x="27.783203" xlink:href="#DejaVuSans-111"/>
      <use x="88.964844" xlink:href="#DejaVuSans-103"/>
      <use x="152.441406" xlink:href="#DejaVuSans-49"/>
      <use x="216.064453" xlink:href="#DejaVuSans-48"/>
      <use x="279.6875" xlink:href="#DejaVuSans-40"/>
      <use x="318.701172" xlink:href="#DejaVuSans-101"/>
      <use x="380.224609" xlink:href="#DejaVuSans-118"/>
      <use x="439.404297" xlink:href="#DejaVuSans-97"/>
      <use x="500.683594" xlink:href="#DejaVuSans-108"/>
      <use x="528.466797" xlink:href="#DejaVuSans-115"/>
      <use x="580.566406" xlink:href="#DejaVuSans-32"/>
      <use x="612.353516" xlink:href="#DejaVuSans-47"/>
      <use x="646.044922" xlink:href="#DejaVuSans-32"/>
      <use x="677.832031" xlink:href="#DejaVuSans-100"/>
      <use x="741.308594" xlink:href="#DejaVuSans-105"/>
      <use x="769.091797" xlink:href="#DejaVuSans-109"/>
      <use x="866.503906" xlink:href="#DejaVuSans-101"/>
      <use x="928.027344" xlink:href="#DejaVuSans-110"/>
      <use x="991.40625" xlink:href="#DejaVuSans-115"/>
      <use x="1043.505859" xlink:href="#DejaVuSans-105"/>
      <use x="1071.289062" xlink:href="#DejaVuSans-111"/>
      <use x="1132.470703" xlink:href="#DejaVuSans-110"/>
      <use x="1195.849609" xlink:href="#DejaVuSans-41"/>
     </g>
    </g>
   </g>
   <g id="matplotlib.axis_2">
    <g id="ytick_1">
     <g id="line2d_17">
      <path clip-path="url(#p96b9e53fc3)" d="M 57.6 298.944 
L 360.8064 298.944 
" style="fill:none;stroke:#b0b0b0;stroke-linecap:square;stroke-width:0.8;"/>
     </g>
     <g id="line2d_18">
      <defs>
       <path d="M 0 0 
L -3.5 0 
" id="m56d8e3ab05" style="stroke:#000000;stroke-width:0.8;"/>
      </defs>
      <g>
       <use style="stroke:#000000;stroke-width:0.8;" x="57.6" xlink:href="#m56d8e3ab05" y="298.944"/>
      </g>
     </g>
     <g id="text_6">
      <!-- 0.0 -->
      <g transform="translate(25.155 305.02275)scale(0.16 -0.16)">
       <defs>
        <path d="M 10.6875 12.40625 
L 21 12.40625 
L 21 0 
L 10.6875 0 
z
" id="DejaVuSans-46"/>
       </defs>
       <use xlink:href="#DejaVuSans-48"/>
       <use x="63.623047" xlink:href="#DejaVuSans-46"/>
       <use x="95.410156" xlink:href="#DejaVuSans-48"/>
      </g>
     </g>
    </g>
    <g id="ytick_2">
     <g id="line2d_19">
      <path clip-path="url(#p96b9e53fc3)" d="M 57.6 240.5376 
L 360.8064 240.5376 
" style="fill:none;stroke:#b0b0b0;stroke-linecap:square;stroke-width:0.8;"/>
     </g>
     <g id="line2d_20">
      <g>
       <use style="stroke:#000000;stroke-width:0.8;" x="57.6" xlink:href="#m56d8e3ab05" y="240.5376"/>
      </g>
     </g>
     <g id="text_7">
      <!-- 0.2 -->
      <g transform="translate(25.155 246.61635)scale(0.16 -0.16)">
       <use xlink:href="#DejaVuSans-48"/>
       <use x="63.623047" xlink:href="#DejaVuSans-46"/>
       <use x="95.410156" xlink:href="#DejaVuSans-50"/>
      </g>
     </g>
    </g>
    <g id="ytick_3">
     <g id="line2d_21">
      <path clip-path="url(#p96b9e53fc3)" d="M 57.6 182.1312 
L 360.8064 182.1312 
" style="fill:none;stroke:#b0b0b0;stroke-linecap:square;stroke-width:0.8;"/>
     </g>
     <g id="line2d_22">
      <g>
       <use style="stroke:#000000;stroke-width:0.8;" x="57.6" xlink:href="#m56d8e3ab05" y="182.1312"/>
      </g>
     </g>
     <g id="text_8">
      <!-- 0.4 -->
      <g transform="translate(25.155 188.20995)scale(0.16 -0.16)">
       <use xlink:href="#DejaVuSans-48"/>
       <use x="63.623047" xlink:href="#DejaVuSans-46"/>
       <use x="95.410156" xlink:href="#DejaVuSans-52"/>
      </g>
     </g>
    </g>
    <g id="ytick_4">
     <g id="line2d_23">
      <path clip-path="url(#p96b9e53fc3)" d="M 57.6 123.7248 
L 360.8064 123.7248 
" style="fill:none;stroke:#b0b0b0;stroke-linecap:square;stroke-width:0.8;"/>
     </g>
     <g id="line2d_24">
      <g>
       <use style="stroke:#000000;stroke-width:0.8;" x="57.6" xlink:href="#m56d8e3ab05" y="123.7248"/>
      </g>
     </g>
     <g id="text_9">
      <!-- 0.6 -->
      <g transform="translate(25.155 129.80355)scale(0.16 -0.16)">
       <use xlink:href="#DejaVuSans-48"/>
       <use x="63.623047" xlink:href="#DejaVuSans-46"/>
       <use x="95.410156" xlink:href="#DejaVuSans-54"/>
      </g>
     </g>
    </g>
    <g id="ytick_5">
     <g id="line2d_25">
      <path clip-path="url(#p96b9e53fc3)" d="M 57.6 65.3184 
L 360.8064 65.3184 
" style="fill:none;stroke:#b0b0b0;stroke-linecap:square;stroke-width:0.8;"/>
     </g>
     <g id="line2d_26">
      <g>
       <use style="stroke:#000000;stroke-width:0.8;" x="57.6" xlink:href="#m56d8e3ab05" y="65.3184"/>
      </g>
     </g>
     <g id="text_10">
      <!-- 0.8 -->
      <g transform="translate(25.155 71.39715)scale(0.16 -0.16)">
       <defs>
        <path d="M 31.78125 34.625 
Q 24.75 34.625 20.71875 30.859375 
Q 16.703125 27.09375 16.703125 20.515625 
Q 16.703125 13.921875 20.71875 10.15625 
Q 24.75 6.390625 31.78125 6.390625 
Q 38.8125 6.390625 42.859375 10.171875 
Q 46.921875 13.96875 46.921875 20.515625 
Q 46.921875 27.09375 42.890625 30.859375 
Q 38.875 34.625 31.78125 34.625 
z
M 21.921875 38.8125 
Q 15.578125 40.375 12.03125 44.71875 
Q 8.5 49.078125 8.5 55.328125 
Q 8.5 64.0625 14.71875 69.140625 
Q 20.953125 74.21875 31.78125 74.21875 
Q 42.671875 74.21875 48.875 69.140625 
Q 55.078125 64.0625 55.078125 55.328125 
Q 55.078125 49.078125 51.53125 44.71875 
Q 48 40.375 41.703125 38.8125 
Q 48.828125 37.15625 52.796875 32.3125 
Q 56.78125 27.484375 56.78125 20.515625 
Q 56.78125 9.90625 50.3125 4.234375 
Q 43.84375 -1.421875 31.78125 -1.421875 
Q 19.734375 -1.421875 13.25 4.234375 
Q 6.78125 9.90625 6.78125 20.515625 
Q 6.78125 27.484375 10.78125 32.3125 
Q 14.796875 37.15625 21.921875 38.8125 
z
M 18.3125 54.390625 
Q 18.3125 48.734375 21.84375 45.5625 
Q 25.390625 42.390625 31.78125 42.390625 
Q 38.140625 42.390625 41.71875 45.5625 
Q 45.3125 48.734375 45.3125 54.390625 
Q 45.3125 60.0625 41.71875 63.234375 
Q 38.140625 66.40625 31.78125 66.40625 
Q 25.390625 66.40625 21.84375 63.234375 
Q 18.3125 60.0625 18.3125 54.390625 
z
" id="DejaVuSans-56"/>
       </defs>
       <use xlink:href="#DejaVuSans-48"/>
       <use x="63.623047" xlink:href="#DejaVuSans-46"/>
       <use x="95.410156" xlink:href="#DejaVuSans-56"/>
      </g>
     </g>
    </g>
    <g id="ytick_6">
     <g id="line2d_27">
      <path clip-path="url(#p96b9e53fc3)" d="M 57.6 6.912 
L 360.8064 6.912 
" style="fill:none;stroke:#b0b0b0;stroke-linecap:square;stroke-width:0.8;"/>
     </g>
     <g id="line2d_28">
      <g>
       <use style="stroke:#000000;stroke-width:0.8;" x="57.6" xlink:href="#m56d8e3ab05" y="6.912"/>
      </g>
     </g>
     <g id="text_11">
      <!-- 1.0 -->
      <g transform="translate(25.155 12.99075)scale(0.16 -0.16)">
       <use xlink:href="#DejaVuSans-49"/>
       <use x="63.623047" xlink:href="#DejaVuSans-46"/>
       <use x="95.410156" xlink:href="#DejaVuSans-48"/>
      </g>
     </g>
    </g>
    <g id="text_12">
     <!-- Fraction of function,target pairs -->
     <g transform="translate(17.619531 287.313)rotate(-90)scale(0.17 -0.17)">
      <defs>
       <path d="M 9.8125 72.90625 
L 51.703125 72.90625 
L 51.703125 64.59375 
L 19.671875 64.59375 
L 19.671875 43.109375 
L 48.578125 43.109375 
L 48.578125 34.8125 
L 19.671875 34.8125 
L 19.671875 0 
L 9.8125 0 
z
" id="DejaVuSans-70"/>
       <path d="M 41.109375 46.296875 
Q 39.59375 47.171875 37.8125 47.578125 
Q 36.03125 48 33.890625 48 
Q 26.265625 48 22.1875 43.046875 
Q 18.109375 38.09375 18.109375 28.8125 
L 18.109375 0 
L 9.078125 0 
L 9.078125 54.6875 
L 18.109375 54.6875 
L 18.109375 46.1875 
Q 20.953125 51.171875 25.484375 53.578125 
Q 30.03125 56 36.53125 56 
Q 37.453125 56 38.578125 55.875 
Q 39.703125 55.765625 41.0625 55.515625 
z
" id="DejaVuSans-114"/>
       <path d="M 48.78125 52.59375 
L 48.78125 44.1875 
Q 44.96875 46.296875 41.140625 47.34375 
Q 37.3125 48.390625 33.40625 48.390625 
Q 24.65625 48.390625 19.8125 42.84375 
Q 14.984375 37.3125 14.984375 27.296875 
Q 14.984375 17.28125 19.8125 11.734375 
Q 24.65625 6.203125 33.40625 6.203125 
Q 37.3125 6.203125 41.140625 7.25 
Q 44.96875 8.296875 48.78125 10.40625 
L 48.78125 2.09375 
Q 45.015625 0.34375 40.984375 -0.53125 
Q 36.96875 -1.421875 32.421875 -1.421875 
Q 20.0625 -1.421875 12.78125 6.34375 
Q 5.515625 14.109375 5.515625 27.296875 
Q 5.515625 40.671875 12.859375 48.328125 
Q 20.21875 56 33.015625 56 
Q 37.15625 56 41.109375 55.140625 
Q 45.0625 54.296875 48.78125 52.59375 
z
" id="DejaVuSans-99"/>
       <path d="M 18.3125 70.21875 
L 18.3125 54.6875 
L 36.8125 54.6875 
L 36.8125 47.703125 
L 18.3125 47.703125 
L 18.3125 18.015625 
Q 18.3125 11.328125 20.140625 9.421875 
Q 21.96875 7.515625 27.59375 7.515625 
L 36.8125 7.515625 
L 36.8125 0 
L 27.59375 0 
Q 17.1875 0 13.234375 3.875 
Q 9.28125 7.765625 9.28125 18.015625 
L 9.28125 47.703125 
L 2.6875 47.703125 
L 2.6875 54.6875 
L 9.28125 54.6875 
L 9.28125 70.21875 
z
" id="DejaVuSans-116"/>
       <path d="M 37.109375 75.984375 
L 37.109375 68.5 
L 28.515625 68.5 
Q 23.6875 68.5 21.796875 66.546875 
Q 19.921875 64.59375 19.921875 59.515625 
L 19.921875 54.6875 
L 34.71875 54.6875 
L 34.71875 47.703125 
L 19.921875 47.703125 
L 19.921875 0 
L 10.890625 0 
L 10.890625 47.703125 
L 2.296875 47.703125 
L 2.296875 54.6875 
L 10.890625 54.6875 
L 10.890625 58.5 
Q 10.890625 67.625 15.140625 71.796875 
Q 19.390625 75.984375 28.609375 75.984375 
z
" id="DejaVuSans-102"/>
       <path d="M 8.5 21.578125 
L 8.5 54.6875 
L 17.484375 54.6875 
L 17.484375 21.921875 
Q 17.484375 14.15625 20.5 10.265625 
Q 23.53125 6.390625 29.59375 6.390625 
Q 36.859375 6.390625 41.078125 11.03125 
Q 45.3125 15.671875 45.3125 23.6875 
L 45.3125 54.6875 
L 54.296875 54.6875 
L 54.296875 0 
L 45.3125 0 
L 45.3125 8.40625 
Q 42.046875 3.421875 37.71875 1 
Q 33.40625 -1.421875 27.6875 -1.421875 
Q 18.265625 -1.421875 13.375 4.4375 
Q 8.5 10.296875 8.5 21.578125 
z
M 31.109375 56 
z
" id="DejaVuSans-117"/>
       <path d="M 11.71875 12.40625 
L 22.015625 12.40625 
L 22.015625 4 
L 14.015625 -11.625 
L 7.71875 -11.625 
L 11.71875 4 
z
" id="DejaVuSans-44"/>
       <path d="M 18.109375 8.203125 
L 18.109375 -20.796875 
L 9.078125 -20.796875 
L 9.078125 54.6875 
L 18.109375 54.6875 
L 18.109375 46.390625 
Q 20.953125 51.265625 25.265625 53.625 
Q 29.59375 56 35.59375 56 
Q 45.5625 56 51.78125 48.09375 
Q 58.015625 40.1875 58.015625 27.296875 
Q 58.015625 14.40625 51.78125 6.484375 
Q 45.5625 -1.421875 35.59375 -1.421875 
Q 29.59375 -1.421875 25.265625 0.953125 
Q 20.953125 3.328125 18.109375 8.203125 
z
M 48.6875 27.296875 
Q 48.6875 37.203125 44.609375 42.84375 
Q 40.53125 48.484375 33.40625 48.484375 
Q 26.265625 48.484375 22.1875 42.84375 
Q 18.109375 37.203125 18.109375 27.296875 
Q 18.109375 17.390625 22.1875 11.75 
Q 26.265625 6.109375 33.40625 6.109375 
Q 40.53125 6.109375 44.609375 11.75 
Q 48.6875 17.390625 48.6875 27.296875 
z
" id="DejaVuSans-112"/>
      </defs>
      <use xlink:href="#DejaVuSans-70"/>
      <use x="50.269531" xlink:href="#DejaVuSans-114"/>
      <use x="91.382812" xlink:href="#DejaVuSans-97"/>
      <use x="152.662109" xlink:href="#DejaVuSans-99"/>
      <use x="207.642578" xlink:href="#DejaVuSans-116"/>
      <use x="246.851562" xlink:href="#DejaVuSans-105"/>
      <use x="274.634766" xlink:href="#DejaVuSans-111"/>
      <use x="335.816406" xlink:href="#DejaVuSans-110"/>
      <use x="399.195312" xlink:href="#DejaVuSans-32"/>
      <use x="430.982422" xlink:href="#DejaVuSans-111"/>
      <use x="492.164062" xlink:href="#DejaVuSans-102"/>
      <use x="527.369141" xlink:href="#DejaVuSans-32"/>
      <use x="559.15625" xlink:href="#DejaVuSans-102"/>
      <use x="594.361328" xlink:href="#DejaVuSans-117"/>
      <use x="657.740234" xlink:href="#DejaVuSans-110"/>
      <use x="721.119141" xlink:href="#DejaVuSans-99"/>
      <use x="776.099609" xlink:href="#DejaVuSans-116"/>
      <use x="815.308594" xlink:href="#DejaVuSans-105"/>
      <use x="843.091797" xlink:href="#DejaVuSans-111"/>
      <use x="904.273438" xlink:href="#DejaVuSans-110"/>
      <use x="967.652344" xlink:href="#DejaVuSans-44"/>
      <use x="999.439453" xlink:href="#DejaVuSans-116"/>
      <use x="1038.648438" xlink:href="#DejaVuSans-97"/>
      <use x="1099.927734" xlink:href="#DejaVuSans-114"/>
      <use x="1139.291016" xlink:href="#DejaVuSans-103"/>
      <use x="1202.767578" xlink:href="#DejaVuSans-101"/>
      <use x="1264.291016" xlink:href="#DejaVuSans-116"/>
      <use x="1303.5" xlink:href="#DejaVuSans-32"/>
      <use x="1335.287109" xlink:href="#DejaVuSans-112"/>
      <use x="1398.763672" xlink:href="#DejaVuSans-97"/>
      <use x="1460.042969" xlink:href="#DejaVuSans-105"/>
      <use x="1487.826172" xlink:href="#DejaVuSans-114"/>
      <use x="1528.939453" xlink:href="#DejaVuSans-115"/>
     </g>
    </g>
   </g>
   <g id="line2d_29">
    <defs>
     <path d="M 0 1.5 
C 0.397805 1.5 0.77937 1.341951 1.06066 1.06066 
C 1.341951 0.77937 1.5 0.397805 1.5 0 
C 1.5 -0.397805 1.341951 -0.77937 1.06066 -1.06066 
C 0.77937 -1.341951 0.397805 -1.5 0 -1.5 
C -0.397805 -1.5 -0.77937 -1.341951 -1.06066 -1.06066 
C -1.341951 -0.77937 -1.5 -0.397805 -1.5 0 
C -1.5 0.397805 -1.341951 0.77937 -1.06066 1.06066 
C -0.77937 1.341951 -0.397805 1.5 0 1.5 
z
" id="m62834c1638" style="stroke:#000080;"/>
    </defs>
    <g>
     <use style="fill:#000080;stroke:#000080;" x="297.199697" xlink:href="#m62834c1638" y="6.912"/>
     <use style="fill:#000080;stroke:#000080;" x="297.199697" xlink:href="#m62834c1638" y="6.912"/>
    </g>
   </g>
   <g id="line2d_30">
    <path d="M 36.933397 298.944 
L 36.933397 298.785717 
L 76.050921 298.785717 
L 76.050921 297.83602 
L 83.678349 297.83602 
L 83.678349 257.790439 
L 86.578163 257.790439 
L 86.578163 218.536273 
L 89.090095 218.536273 
L 89.090095 203.815961 
L 91.305777 203.815961 
L 91.305777 182.922615 
L 93.287772 182.922615 
L 93.287772 175.325034 
L 95.080704 175.325034 
L 95.080704 172.475941 
L 96.717523 172.475941 
L 96.717523 162.504117 
L 98.223251 162.504117 
L 98.223251 158.072195 
L 99.617337 158.072195 
L 99.617337 153.007141 
L 100.9152 153.007141 
L 100.9152 147.942088 
L 102.12927 147.942088 
L 102.12927 145.409561 
L 103.269713 145.409561 
L 103.269713 140.344507 
L 104.344952 140.344507 
L 104.344952 134.171473 
L 105.36204 134.171473 
L 105.36204 129.739551 
L 106.326946 129.739551 
L 106.326946 125.465912 
L 107.244765 125.465912 
L 107.244765 121.350556 
L 108.119879 121.350556 
L 108.119879 117.076917 
L 108.956085 117.076917 
L 108.956085 114.860956 
L 109.756698 114.860956 
L 109.756698 112.644995 
L 110.524623 112.644995 
L 110.524623 109.321054 
L 111.262425 109.321054 
L 111.262425 105.997112 
L 111.97238 105.997112 
L 111.97238 105.047415 
L 112.656511 105.047415 
L 112.656511 99.982361 
L 113.316634 99.982361 
L 113.316634 97.7664 
L 113.954374 97.7664 
L 113.954374 95.07559 
L 114.571202 95.07559 
L 114.571202 92.38478 
L 115.168444 92.38478 
L 115.168444 88.111141 
L 115.747307 88.111141 
L 115.747307 84.945483 
L 116.308887 84.945483 
L 116.308887 83.046088 
L 116.854188 83.046088 
L 116.854188 80.513561 
L 117.384126 80.513561 
L 117.384126 77.347902 
L 117.899543 77.347902 
L 117.899543 75.448507 
L 118.401214 75.448507 
L 118.401214 70.066888 
L 118.889854 70.066888 
L 118.889854 65.160117 
L 119.366121 65.160117 
L 119.366121 62.152741 
L 119.830627 62.152741 
L 119.830627 60.569912 
L 120.28394 60.569912 
L 120.28394 59.93678 
L 120.726585 59.93678 
L 120.726585 56.13799 
L 121.159053 56.13799 
L 121.159053 53.922029 
L 121.581803 53.922029 
L 121.581803 49.490107 
L 121.99526 49.490107 
L 121.99526 47.590712 
L 122.399825 47.590712 
L 122.399825 45.691317 
L 122.795872 45.691317 
L 122.795872 44.74162 
L 123.183753 44.74162 
L 123.183753 42.842224 
L 123.563797 42.842224 
L 123.563797 42.683941 
L 123.936316 42.683941 
L 123.936316 41.734244 
L 124.3016 41.734244 
L 124.3016 40.626263 
L 124.659926 40.626263 
L 124.659926 39.676566 
L 125.011554 39.676566 
L 125.011554 39.36 
L 125.35673 39.36 
L 125.35673 38.410302 
L 126.028642 38.410302 
L 126.028642 37.777171 
L 126.677381 37.777171 
L 126.677381 37.144039 
L 127.610376 37.144039 
L 127.610376 36.985756 
L 128.207619 36.985756 
L 128.207619 36.66919 
L 128.786481 36.66919 
L 128.786481 36.510907 
L 129.622688 36.510907 
L 129.622688 36.352624 
L 130.4233 36.352624 
L 130.4233 36.194341 
L 131.929028 36.194341 
L 131.929028 36.036059 
L 140.649551 36.036059 
L 140.649551 35.877776 
L 141.099251 35.877776 
L 141.099251 35.719493 
L 147.397049 35.719493 
L 147.397049 35.244644 
L 147.919625 35.244644 
L 147.919625 35.086361 
L 148.124658 35.086361 
L 148.226342 34.611512 
L 180.483348 34.611512 
L 180.59256 33.503532 
L 180.646928 33.503532 
L 180.737195 32.8704 
L 180.844946 32.8704 
L 180.844946 32.712117 
L 183.214201 32.712117 
L 183.214201 32.395551 
L 183.340084 32.395551 
L 183.340084 32.237268 
L 188.265306 32.237268 
L 188.337588 31.920702 
L 188.385623 31.920702 
L 188.385623 31.76242 
L 193.288323 31.76242 
L 193.362112 30.812722 
L 193.408083 30.812722 
L 193.508827 29.546459 
L 193.581758 29.546459 
L 193.663468 29.229893 
L 193.762857 29.229893 
L 193.807861 28.913327 
L 194.093363 28.913327 
L 194.093363 28.755044 
L 194.810039 28.755044 
L 194.861111 28.280195 
L 202.102075 28.280195 
L 202.102075 27.805346 
L 206.174387 27.805346 
L 206.248778 26.697366 
L 206.290494 26.697366 
L 206.309005 26.3808 
L 207.178967 26.3808 
L 207.178967 26.064234 
L 210.455733 26.064234 
L 210.481687 25.589385 
L 212.270577 25.589385 
L 212.270577 25.431102 
L 219.21822 25.431102 
L 219.257767 24.481405 
L 221.79626 24.481405 
L 221.79626 24.164839 
L 222.737801 24.164839 
L 222.770606 23.531707 
L 222.855247 23.531707 
L 222.920392 22.58201 
L 225.514154 22.58201 
L 225.555767 21.315746 
L 226.403465 21.315746 
L 226.419352 20.99918 
L 231.013804 20.99918 
L 231.044877 20.366049 
L 231.262803 20.366049 
L 231.266486 20.049483 
L 231.626317 20.049483 
L 231.626317 19.8912 
L 231.776827 19.8912 
L 231.782799 19.574634 
L 233.364109 19.574634 
L 233.364109 19.416351 
L 233.999873 19.416351 
L 233.999873 19.258068 
L 234.268069 19.258068 
L 234.295776 18.941502 
L 234.419698 18.941502 
L 234.437853 18.466654 
L 240.348306 18.466654 
L 240.395959 18.150088 
L 241.477051 18.150088 
L 241.477051 17.991805 
L 241.729973 17.991805 
L 241.729973 17.833522 
L 241.89323 17.833522 
L 241.89323 17.675239 
L 242.056811 17.675239 
L 242.056811 17.516956 
L 242.442885 17.516956 
L 242.442885 17.358673 
L 244.02964 17.358673 
L 244.116623 17.042107 
L 244.352548 17.042107 
L 244.421288 16.725541 
L 244.505572 16.725541 
L 244.505572 16.567259 
L 244.658868 16.567259 
L 244.658868 16.408976 
L 244.792395 16.408976 
L 244.814508 16.09241 
L 244.997582 16.09241 
L 244.997582 15.934127 
L 245.2823 15.934127 
L 245.2823 15.775844 
L 245.551001 15.775844 
L 245.551001 15.617561 
L 250.248342 15.617561 
L 250.248342 15.459278 
L 250.418494 15.459278 
L 250.418494 15.300995 
L 250.625316 15.300995 
L 250.633209 14.984429 
L 250.8585 14.984429 
L 250.8585 14.826146 
L 251.728858 14.826146 
L 251.808922 14.50958 
L 252.043633 14.50958 
L 252.145848 14.034732 
L 252.402374 14.034732 
L 252.402374 13.876449 
L 252.541719 13.876449 
L 252.541719 13.718166 
L 252.840365 13.718166 
L 252.840365 13.559883 
L 255.498314 13.559883 
L 255.608337 13.243317 
L 256.100712 13.243317 
L 256.100712 13.085034 
L 256.222591 13.085034 
L 256.222591 12.926751 
L 256.40862 12.926751 
L 256.433758 12.610185 
L 257.171597 12.610185 
L 257.171597 12.451902 
L 257.337009 12.451902 
L 257.369366 12.135337 
L 257.548693 12.135337 
L 257.635152 11.660488 
L 257.6875 11.660488 
L 257.6875 11.502205 
L 260.375431 11.502205 
L 260.375431 11.343922 
L 260.68922 11.343922 
L 260.68922 11.185639 
L 260.838504 11.185639 
L 260.838504 11.027356 
L 261.319412 11.027356 
L 261.319412 10.869073 
L 261.553799 10.869073 
L 261.618087 10.552507 
L 261.765543 10.552507 
L 261.765543 10.394224 
L 264.195808 10.394224 
L 264.195808 10.235941 
L 264.851288 10.235941 
L 264.851288 10.077659 
L 265.254672 10.077659 
L 265.254672 9.919376 
L 265.450026 9.919376 
L 265.450026 9.761093 
L 270.538403 9.761093 
L 270.538403 9.60281 
L 272.741324 9.60281 
L 272.741324 9.444527 
L 272.871753 9.444527 
L 272.871753 9.286244 
L 274.577205 9.286244 
L 274.577205 9.127961 
L 274.979348 9.127961 
L 274.979348 8.969678 
L 277.765907 8.969678 
L 277.765907 8.811395 
L 278.546846 8.811395 
L 278.546846 8.653112 
L 279.53151 8.653112 
L 279.542922 8.336546 
L 279.790055 8.336546 
L 279.790055 8.178263 
L 282.610601 8.178263 
L 282.610601 8.01998 
L 283.779478 8.01998 
L 283.779478 7.861698 
L 284.813779 7.861698 
L 284.813779 7.703415 
L 285.901819 7.703415 
L 285.901819 7.545132 
L 287.146733 7.545132 
L 287.146733 7.386849 
L 289.711593 7.386849 
L 289.711593 7.228566 
L 290.506361 7.228566 
L 290.506361 7.070283 
L 297.199697 7.070283 
L 297.199697 6.912 
L 360.8064 6.912 
L 360.8064 6.912 
" style="fill:none;stroke:#000080;stroke-linecap:square;stroke-width:1.5;"/>
   </g>
   <g id="line2d_31">
    <defs>
     <path d="M 0 6 
C 1.591219 6 3.117479 5.367802 4.242641 4.242641 
C 5.367802 3.117479 6 1.591219 6 0 
C 6 -1.591219 5.367802 -3.117479 4.242641 -4.242641 
C 3.117479 -5.367802 1.591219 -6 0 -6 
C -1.591219 -6 -3.117479 -5.367802 -4.242641 -4.242641 
C -5.367802 -3.117479 -6 -1.591219 -6 0 
C -6 1.591219 -5.367802 3.117479 -4.242641 4.242641 
C -3.117479 5.367802 -1.591219 6 0 6 
z
" id="mdfa3451a96" style="stroke:#000080;stroke-width:1.5;"/>
    </defs>
    <g>
     <use style="fill-opacity:0;stroke:#000080;stroke-width:1.5;" x="86.578163" xlink:href="#mdfa3451a96" y="257.790439"/>
     <use style="fill-opacity:0;stroke:#000080;stroke-width:1.5;" x="114.571202" xlink:href="#mdfa3451a96" y="92.38478"/>
     <use style="fill-opacity:0;stroke:#000080;stroke-width:1.5;" x="194.861111" xlink:href="#mdfa3451a96" y="28.438478"/>
     <use style="fill-opacity:0;stroke:#000080;stroke-width:1.5;" x="265.450026" xlink:href="#mdfa3451a96" y="9.761093"/>
     <use style="fill-opacity:0;stroke:#000080;stroke-width:1.5;" x="297.199697" xlink:href="#mdfa3451a96" y="6.912"/>
     <use style="fill-opacity:0;stroke:#000080;stroke-width:1.5;" x="360.8064" xlink:href="#mdfa3451a96" y="6.912"/>
    </g>
   </g>
   <g id="line2d_32">
    <path style="fill:none;stroke:#000080;stroke-linecap:square;stroke-width:1.5;"/>
    <g/>
   </g>
   <g id="line2d_33">
    <path clip-path="url(#p96b9e53fc3)" d="M 231.205018 20.366049 
" style="fill:none;stroke:#000080;stroke-linecap:square;stroke-width:1.5;"/>
    <defs>
     <path d="M -12 12 
L 12 -12 
M -12 -12 
L 12 12 
" id="m7aab2862a6" style="stroke:#000080;"/>
    </defs>
    <g clip-path="url(#p96b9e53fc3)">
     <use style="fill:#000080;stroke:#000080;" x="231.205018" xlink:href="#m7aab2862a6" y="20.366049"/>
    </g>
   </g>
   <g id="line2d_34">
    <defs>
     <path d="M 0 1.5 
C 0.397805 1.5 0.77937 1.341951 1.06066 1.06066 
C 1.341951 0.77937 1.5 0.397805 1.5 0 
C 1.5 -0.397805 1.341951 -0.77937 1.06066 -1.06066 
C 0.77937 -1.341951 0.397805 -1.5 0 -1.5 
C -0.397805 -1.5 -0.77937 -1.341951 -1.06066 -1.06066 
C -1.341951 -0.77937 -1.5 -0.397805 -1.5 0 
C -1.5 0.397805 -1.341951 0.77937 -1.06066 1.06066 
C -0.77937 1.341951 -0.397805 1.5 0 1.5 
z
" id="m83ce4d3f3c" style="stroke:#ff00ff;"/>
    </defs>
    <g>
     <use style="fill:#ff00ff;stroke:#ff00ff;" x="219.932227" xlink:href="#m83ce4d3f3c" y="6.912"/>
     <use style="fill:#ff00ff;stroke:#ff00ff;" x="219.932227" xlink:href="#m83ce4d3f3c" y="6.912"/>
    </g>
   </g>
   <g id="line2d_35">
    <path d="M 36.933397 298.944 
L 36.933397 290.396722 
L 80.248597 290.396722 
L 80.248597 260.639532 
L 83.678349 260.639532 
L 83.678349 260.322966 
L 91.305777 260.322966 
L 91.305777 242.753561 
L 93.287772 242.753561 
L 93.287772 241.329015 
L 98.223251 241.329015 
L 98.223251 210.622127 
L 99.617337 210.622127 
L 99.617337 209.19758 
L 100.9152 209.19758 
L 100.9152 208.0896 
L 103.269713 208.0896 
L 103.269713 170.893112 
L 103.815014 170.893112 
L 103.815014 170.734829 
L 104.344952 170.734829 
L 104.344952 169.152 
L 105.36204 169.152 
L 105.36204 168.202302 
L 106.326946 168.202302 
L 106.326946 167.410888 
L 107.244765 167.410888 
L 107.244765 139.711376 
L 108.119879 139.711376 
L 108.119879 137.970263 
L 108.956085 137.970263 
L 108.956085 137.337132 
L 109.360651 137.337132 
L 109.360651 137.178849 
L 109.756698 137.178849 
L 109.756698 136.704 
L 110.524623 136.704 
L 110.524623 112.644995 
L 111.262425 112.644995 
L 111.262425 111.85358 
L 111.97238 111.85358 
L 111.97238 109.63762 
L 112.656511 109.63762 
L 112.656511 108.846205 
L 113.316634 108.846205 
L 113.316634 91.118517 
L 113.954374 91.118517 
L 113.954374 90.327102 
L 114.571202 90.327102 
L 114.571202 88.902556 
L 114.872193 88.902556 
L 114.872193 88.744273 
L 115.168444 88.744273 
L 115.168444 88.58599 
L 115.747307 88.58599 
L 115.747307 77.18962 
L 116.308887 77.18962 
L 116.308887 75.765073 
L 116.583514 75.765073 
L 116.583514 75.60679 
L 116.854188 75.60679 
L 116.854188 75.131941 
L 117.384126 75.131941 
L 117.384126 74.182244 
L 117.899543 74.182244 
L 117.899543 63.260722 
L 118.401214 63.260722 
L 118.401214 62.311024 
L 119.366121 62.311024 
L 119.366121 61.677893 
L 119.830627 61.677893 
L 119.830627 56.296273 
L 120.28394 56.296273 
L 120.28394 56.13799 
L 120.726585 56.13799 
L 120.726585 55.821424 
L 121.159053 55.821424 
L 121.159053 55.504859 
L 121.581803 55.504859 
L 121.581803 54.080312 
L 121.99526 54.080312 
L 121.99526 53.763746 
L 122.399825 53.763746 
L 122.399825 53.605463 
L 122.795872 53.605463 
L 122.795872 52.972332 
L 123.183753 52.972332 
L 123.183753 52.022634 
L 123.936316 52.022634 
L 123.936316 51.23122 
L 125.35673 51.23122 
L 125.35673 51.072937 
L 125.695686 51.072937 
L 125.695686 50.756371 
L 126.028642 50.756371 
L 126.028642 49.964956 
L 126.355808 49.964956 
L 126.355808 49.806673 
L 126.677381 49.806673 
L 126.677381 49.64839 
L 126.993549 49.64839 
L 126.993549 48.065561 
L 127.610376 48.065561 
L 127.610376 47.115863 
L 128.207619 47.115863 
L 128.207619 45.533034 
L 128.499277 45.533034 
L 128.499277 45.374751 
L 129.069367 45.374751 
L 129.069367 44.583337 
L 129.348062 44.583337 
L 129.348062 44.266771 
L 129.622688 44.266771 
L 129.622688 43.000507 
L 129.893363 43.000507 
L 129.893363 42.683941 
L 130.160198 42.683941 
L 130.160198 42.367376 
L 130.4233 42.367376 
L 130.4233 41.575961 
L 130.682774 41.575961 
L 130.682774 40.942829 
L 131.065395 40.942829 
L 131.065395 40.784546 
L 131.191226 40.784546 
L 131.191226 40.626263 
L 131.440389 40.626263 
L 131.440389 40.309698 
L 131.686295 40.309698 
L 131.686295 40.151415 
L 131.929028 40.151415 
L 131.929028 39.834849 
L 132.168669 39.834849 
L 132.168669 39.518283 
L 132.405295 39.518283 
L 132.405295 38.726868 
L 133.545739 38.726868 
L 133.545739 38.25202 
L 133.983236 38.25202 
L 133.983236 37.777171 
L 135.034434 37.777171 
L 135.034434 37.144039 
L 135.237805 37.144039 
L 135.237805 36.66919 
L 136.029987 36.66919 
L 136.029987 36.510907 
L 136.222928 36.510907 
L 136.222928 36.352624 
L 136.602972 36.352624 
L 136.602972 36.194341 
L 137.159019 36.194341 
L 137.159019 36.036059 
L 139.067817 36.036059 
L 139.067817 35.719493 
L 139.232111 35.719493 
L 139.232111 35.56121 
L 139.636676 35.56121 
L 139.636676 35.086361 
L 141.099251 35.086361 
L 141.099251 34.928078 
L 143.462475 34.928078 
L 143.462475 34.769795 
L 144.10457 34.769795 
L 144.10457 34.611512 
L 144.602918 34.611512 
L 144.602918 34.136663 
L 146.24998 34.136663 
L 146.24998 33.820098 
L 146.362288 33.820098 
L 146.362288 33.503532 
L 146.913986 33.503532 
L 147.022411 32.712117 
L 147.343984 32.712117 
L 147.343984 32.237268 
L 148.073609 32.237268 
L 148.073609 32.078985 
L 148.57797 32.078985 
L 148.57797 31.76242 
L 148.971944 31.76242 
L 148.971944 31.445854 
L 149.547853 31.445854 
L 149.547853 30.971005 
L 149.829328 30.971005 
L 149.829328 30.17959 
L 150.8268 30.17959 
L 150.8268 30.021307 
L 151.647641 30.021307 
L 151.647641 29.229893 
L 155.971711 29.229893 
L 155.971711 29.07161 
L 157.456756 29.07161 
L 157.456756 28.913327 
L 160.276577 28.913327 
L 160.276577 28.755044 
L 160.855439 28.755044 
L 160.855439 28.596761 
L 161.112783 28.596761 
L 161.112783 28.438478 
L 162.961399 28.438478 
L 162.961399 27.963629 
L 163.145827 27.963629 
L 163.145827 27.48878 
L 163.373849 27.48878 
L 163.464289 27.013932 
L 163.486831 27.013932 
L 163.486831 26.855649 
L 163.932096 26.855649 
L 163.997986 26.064234 
L 164.686815 26.064234 
L 164.686815 25.905951 
L 164.813209 25.905951 
L 164.813209 25.747668 
L 165.269521 25.747668 
L 165.269521 25.589385 
L 168.045979 25.589385 
L 168.045979 25.431102 
L 168.186891 25.431102 
L 168.186891 24.164839 
L 168.430973 24.164839 
L 168.430973 24.006556 
L 168.943582 24.006556 
L 168.943582 23.68999 
L 169.475392 23.68999 
L 169.475392 23.531707 
L 169.606029 23.531707 
L 169.606029 23.373424 
L 173.262233 23.373424 
L 173.262233 23.215141 
L 174.203007 23.215141 
L 174.203007 22.898576 
L 174.380595 22.898576 
L 174.380595 22.740293 
L 174.556523 22.740293 
L 174.581522 22.265444 
L 174.681186 22.265444 
L 174.780325 20.524332 
L 174.92806 20.524332 
L 174.92806 20.366049 
L 175.292401 20.366049 
L 175.292401 20.207766 
L 177.704841 20.207766 
L 177.704841 20.049483 
L 178.164702 20.049483 
L 178.247119 19.732917 
L 178.329176 19.732917 
L 178.329176 19.099785 
L 179.130641 19.099785 
L 179.179617 18.150088 
L 179.586055 18.150088 
L 179.586055 17.991805 
L 182.133854 17.991805 
L 182.133854 17.833522 
L 183.14302 17.833522 
L 183.14302 17.675239 
L 184.085726 17.675239 
L 184.085726 17.516956 
L 184.93307 17.516956 
L 184.93307 17.358673 
L 185.226169 17.358673 
L 185.226169 17.042107 
L 185.977062 17.042107 
L 186.0858 16.567259 
L 186.261169 16.567259 
L 186.354926 16.09241 
L 186.527815 16.09241 
L 186.527815 15.300995 
L 186.692569 15.300995 
L 186.692569 15.142712 
L 186.894881 15.142712 
L 186.894881 14.826146 
L 188.517089 14.826146 
L 188.564668 14.50958 
L 188.671283 14.50958 
L 188.777297 13.4016 
L 188.958488 13.4016 
L 188.958488 13.243317 
L 190.174739 13.243317 
L 190.240057 12.926751 
L 190.759879 12.926751 
L 190.802117 12.610185 
L 192.311495 12.610185 
L 192.360104 12.29362 
L 192.649148 12.29362 
L 192.649148 12.135337 
L 193.288323 12.135337 
L 193.288323 11.818771 
L 195.260611 11.818771 
L 195.302174 11.027356 
L 196.870712 11.027356 
L 196.870712 10.869073 
L 199.51728 10.869073 
L 199.51728 10.71079 
L 200.159887 10.71079 
L 200.259039 10.077659 
L 201.073735 10.077659 
L 201.165157 9.761093 
L 201.207669 9.761093 
L 201.207669 9.60281 
L 201.751756 9.60281 
L 201.751756 9.444527 
L 201.892668 9.444527 
L 201.948155 9.127961 
L 202.292005 9.127961 
L 202.292005 8.969678 
L 203.05237 8.969678 
L 203.05237 8.811395 
L 204.842552 8.811395 
L 204.842552 8.653112 
L 205.809833 8.653112 
L 205.809833 8.494829 
L 208.010468 8.494829 
L 208.010468 8.336546 
L 208.500516 8.336546 
L 208.500516 8.178263 
L 210.948272 8.178263 
L 210.948272 8.01998 
L 213.471271 8.01998 
L 213.52808 7.703415 
L 214.342146 7.703415 
L 214.342146 7.545132 
L 215.898065 7.545132 
L 215.898065 7.386849 
L 217.566575 7.386849 
L 217.566575 7.228566 
L 219.528856 7.228566 
L 219.528856 7.070283 
L 219.932227 7.070283 
L 219.932227 6.912 
L 360.8064 6.912 
L 360.8064 6.912 
" style="fill:none;stroke:#ff00ff;stroke-linecap:square;stroke-width:1.5;"/>
   </g>
   <g id="line2d_36">
    <defs>
     <path d="M -0 8.485281 
L 5.091169 0 
L 0 -8.485281 
L -5.091169 -0 
z
" id="m2c90e380f5" style="stroke:#ff00ff;stroke-linejoin:miter;stroke-width:1.5;"/>
    </defs>
    <g>
     <use style="fill-opacity:0;stroke:#ff00ff;stroke-linejoin:miter;stroke-width:1.5;" x="91.305777" xlink:href="#m2c90e380f5" y="260.322966"/>
     <use style="fill-opacity:0;stroke:#ff00ff;stroke-linejoin:miter;stroke-width:1.5;" x="117.899543" xlink:href="#m2c90e380f5" y="74.182244"/>
     <use style="fill-opacity:0;stroke:#ff00ff;stroke-linejoin:miter;stroke-width:1.5;" x="205.809833" xlink:href="#m2c90e380f5" y="8.653112"/>
     <use style="fill-opacity:0;stroke:#ff00ff;stroke-linejoin:miter;stroke-width:1.5;" x="219.932227" xlink:href="#m2c90e380f5" y="7.070283"/>
     <use style="fill-opacity:0;stroke:#ff00ff;stroke-linejoin:miter;stroke-width:1.5;" x="219.932227" xlink:href="#m2c90e380f5" y="6.912"/>
     <use style="fill-opacity:0;stroke:#ff00ff;stroke-linejoin:miter;stroke-width:1.5;" x="360.8064" xlink:href="#m2c90e380f5" y="6.912"/>
    </g>
   </g>
   <g id="line2d_37">
    <path style="fill:none;stroke:#ff00ff;stroke-linecap:square;stroke-width:1.5;"/>
    <g/>
   </g>
   <g id="line2d_38">
    <path clip-path="url(#p96b9e53fc3)" d="M 187.570665 14.826146 
" style="fill:none;stroke:#ff00ff;stroke-linecap:square;stroke-width:1.5;"/>
    <defs>
     <path d="M -12 12 
L 12 -12 
M -12 -12 
L 12 12 
" id="m553d2f58ef" style="stroke:#ff00ff;"/>
    </defs>
    <g clip-path="url(#p96b9e53fc3)">
     <use style="fill:#ff00ff;stroke:#ff00ff;" x="187.570665" xlink:href="#m553d2f58ef" y="14.826146"/>
    </g>
   </g>
   <g id="line2d_39">
    <defs>
     <path d="M 0 1.5 
C 0.397805 1.5 0.77937 1.341951 1.06066 1.06066 
C 1.341951 0.77937 1.5 0.397805 1.5 0 
C 1.5 -0.397805 1.341951 -0.77937 1.06066 -1.06066 
C 0.77937 -1.341951 0.397805 -1.5 0 -1.5 
C -0.397805 -1.5 -0.77937 -1.341951 -1.06066 -1.06066 
C -1.341951 -0.77937 -1.5 -0.397805 -1.5 0 
C -1.5 0.397805 -1.341951 0.77937 -1.06066 1.06066 
C -0.77937 1.341951 -0.397805 1.5 0 1.5 
z
" id="m518ecd4809" style="stroke:#ff7500;"/>
    </defs>
    <g>
     <use style="fill:#ff7500;stroke:#ff7500;" x="190.250921" xlink:href="#m518ecd4809" y="6.912"/>
     <use style="fill:#ff7500;stroke:#ff7500;" x="190.250921" xlink:href="#m518ecd4809" y="6.912"/>
    </g>
   </g>
   <g id="line2d_40">
    <path d="M 36.933397 298.944 
L 36.933397 298.785717 
L 85.184077 298.785717 
L 85.184077 136.229151 
L 87.876026 136.229151 
L 87.876026 135.912585 
L 89.090095 135.912585 
L 89.090095 134.962888 
L 90.230539 134.962888 
L 90.230539 133.380059 
L 95.080704 133.380059 
L 95.080704 104.097717 
L 97.485448 104.097717 
L 97.485448 103.464585 
L 101.532027 103.464585 
L 101.532027 96.816702 
L 102.708132 96.816702 
L 102.708132 93.176195 
L 106.326946 93.176195 
L 106.326946 86.528312 
L 107.244765 86.528312 
L 107.244765 84.945483 
L 108.119879 84.945483 
L 108.119879 84.628917 
L 110.144579 84.628917 
L 110.144579 80.038712 
L 110.897141 80.038712 
L 110.897141 75.923356 
L 111.620752 75.923356 
L 111.620752 75.448507 
L 112.317555 75.448507 
L 112.317555 74.340527 
L 113.316634 74.340527 
L 113.316634 68.484059 
L 113.954374 68.484059 
L 113.954374 67.217795 
L 114.571202 67.217795 
L 114.571202 66.742946 
L 115.168444 66.742946 
L 115.168444 65.951532 
L 115.460102 65.951532 
L 115.460102 65.160117 
L 116.030193 65.160117 
L 116.030193 63.419005 
L 116.583514 63.419005 
L 116.583514 61.677893 
L 117.121023 61.677893 
L 117.121023 61.51961 
L 117.6436 61.51961 
L 117.6436 61.203044 
L 118.401214 61.203044 
L 118.401214 60.728195 
L 118.889854 60.728195 
L 118.889854 57.562537 
L 119.366121 57.562537 
L 119.366121 55.821424 
L 120.28394 55.821424 
L 120.28394 55.346576 
L 120.944062 55.346576 
L 120.944062 51.864351 
L 121.371615 51.864351 
L 121.371615 50.756371 
L 121.789667 50.756371 
L 121.789667 50.281522 
L 122.399825 50.281522 
L 122.399825 49.64839 
L 122.795872 49.64839 
L 122.795872 48.698693 
L 123.183753 48.698693 
L 123.183753 48.54041 
L 123.563797 48.54041 
L 123.563797 47.115863 
L 123.936316 47.115863 
L 123.936316 45.8496 
L 124.481616 45.8496 
L 124.481616 45.374751 
L 125.184934 45.374751 
L 125.184934 44.266771 
L 125.695686 44.266771 
L 125.695686 43.15879 
L 125.862901 43.15879 
L 125.862901 42.209093 
L 126.355808 42.209093 
L 126.355808 42.05081 
L 126.677381 42.05081 
L 126.677381 41.417678 
L 126.836129 41.417678 
L 126.836129 41.259395 
L 128.207619 41.259395 
L 128.207619 41.101112 
L 128.354013 41.101112 
L 128.354013 39.36 
L 128.643427 39.36 
L 128.643427 37.460605 
L 128.786481 37.460605 
L 128.786481 37.302322 
L 128.928456 37.302322 
L 128.928456 35.719493 
L 129.622688 35.719493 
L 129.622688 34.453229 
L 129.758512 34.453229 
L 129.758512 33.661815 
L 129.893363 33.661815 
L 129.893363 31.920702 
L 130.160198 31.920702 
L 130.160198 30.971005 
L 130.4233 30.971005 
L 130.4233 30.812722 
L 130.682774 30.812722 
L 130.682774 30.337873 
L 130.811181 30.337873 
L 130.811181 30.17959 
L 131.191226 30.17959 
L 131.191226 29.863024 
L 131.31622 29.863024 
L 131.31622 29.388176 
L 131.563744 29.388176 
L 131.563744 29.229893 
L 131.929028 29.229893 
L 131.929028 28.596761 
L 132.168669 28.596761 
L 132.168669 28.438478 
L 132.287354 28.438478 
L 132.287354 28.280195 
L 132.638982 28.280195 
L 132.638982 27.805346 
L 132.869802 27.805346 
L 132.869802 27.647063 
L 133.097823 27.647063 
L 133.097823 27.48878 
L 133.210806 27.48878 
L 133.210806 27.330498 
L 133.323114 27.330498 
L 133.323114 26.855649 
L 133.545739 26.855649 
L 133.545739 26.697366 
L 133.765759 26.697366 
L 133.874812 26.222517 
L 134.091039 26.222517 
L 134.091039 25.589385 
L 134.304809 25.589385 
L 134.41079 24.164839 
L 134.725196 24.164839 
L 134.725196 23.215141 
L 135.034434 23.215141 
L 135.034434 23.056859 
L 135.237805 23.056859 
L 135.237805 22.58201 
L 136.126705 22.58201 
L 136.126705 21.315746 
L 136.318661 21.315746 
L 136.318661 20.840898 
L 136.602972 20.840898 
L 136.602972 19.574634 
L 137.159019 19.574634 
L 137.159019 18.624937 
L 137.340774 18.624937 
L 137.340774 17.516956 
L 137.520791 17.516956 
L 137.520791 17.358673 
L 138.395904 17.358673 
L 138.481218 15.934127 
L 139.067817 15.934127 
L 139.067817 15.617561 
L 139.954178 15.617561 
L 139.954178 15.142712 
L 140.343665 15.142712 
L 140.343665 14.50958 
L 140.49723 14.50958 
L 140.49723 14.351298 
L 141.173167 14.351298 
L 141.173167 14.034732 
L 141.610664 14.034732 
L 141.610664 13.876449 
L 143.462475 13.876449 
L 143.462475 13.718166 
L 145.561676 13.718166 
L 145.561676 13.559883 
L 145.736128 13.559883 
L 145.736128 13.4016 
L 146.136998 13.4016 
L 146.136998 13.243317 
L 146.750169 13.243317 
L 146.750169 13.085034 
L 148.627671 13.085034 
L 148.627671 11.818771 
L 149.069161 11.818771 
L 149.069161 11.502205 
L 149.453084 11.502205 
L 149.453084 11.343922 
L 149.875833 11.343922 
L 149.875833 11.027356 
L 150.289291 11.027356 
L 150.289291 10.235941 
L 151.774035 10.235941 
L 151.774035 9.761093 
L 156.105602 9.761093 
L 156.105602 9.60281 
L 172.130162 9.60281 
L 172.130162 9.444527 
L 172.992335 9.444527 
L 172.992335 9.127961 
L 176.150559 9.127961 
L 176.150559 8.969678 
L 179.130641 8.969678 
L 179.130641 8.494829 
L 180.058732 8.494829 
L 180.058732 8.01998 
L 184.503115 8.01998 
L 184.503115 7.703415 
L 184.693799 7.703415 
L 184.752084 7.228566 
L 188.558728 7.228566 
L 188.558728 7.070283 
L 190.250921 7.070283 
L 190.250921 6.912 
L 360.8064 6.912 
L 360.8064 6.912 
" style="fill:none;stroke:#ff7500;stroke-linecap:square;stroke-width:1.5;"/>
   </g>
   <g id="line2d_41">
    <defs>
     <path d="M 0 -6 
L -1.347084 -1.854102 
L -5.706339 -1.854102 
L -2.179628 0.708204 
L -3.526712 4.854102 
L -0 2.291796 
L 3.526712 4.854102 
L 2.179628 0.708204 
L 5.706339 -1.854102 
L 1.347084 -1.854102 
z
" id="mfc7227a098" style="stroke:#ff7500;stroke-linejoin:bevel;stroke-width:1.5;"/>
    </defs>
    <g>
     <use style="fill-opacity:0;stroke:#ff7500;stroke-linejoin:bevel;stroke-width:1.5;" x="95.080704" xlink:href="#mfc7227a098" y="133.380059"/>
     <use style="fill-opacity:0;stroke:#ff7500;stroke-linejoin:bevel;stroke-width:1.5;" x="145.561676" xlink:href="#mfc7227a098" y="13.559883"/>
     <use style="fill-opacity:0;stroke:#ff7500;stroke-linejoin:bevel;stroke-width:1.5;" x="190.250921" xlink:href="#mfc7227a098" y="7.070283"/>
     <use style="fill-opacity:0;stroke:#ff7500;stroke-linejoin:bevel;stroke-width:1.5;" x="190.250921" xlink:href="#mfc7227a098" y="6.912"/>
     <use style="fill-opacity:0;stroke:#ff7500;stroke-linejoin:bevel;stroke-width:1.5;" x="190.250921" xlink:href="#mfc7227a098" y="6.912"/>
     <use style="fill-opacity:0;stroke:#ff7500;stroke-linejoin:bevel;stroke-width:1.5;" x="360.8064" xlink:href="#mfc7227a098" y="6.912"/>
    </g>
   </g>
   <g id="line2d_42">
    <path style="fill:none;stroke:#ff7500;stroke-linecap:square;stroke-width:1.5;"/>
    <g/>
   </g>
   <g id="line2d_43">
    <path d="M 360.8064 6.912 
L 380.514816 293.10336 
" style="fill:none;stroke:#000080;stroke-linecap:square;stroke-width:1.5;"/>
    <g>
     <use style="fill-opacity:0;stroke:#000080;stroke-width:1.5;" x="360.8064" xlink:href="#mdfa3451a96" y="6.912"/>
     <use style="fill-opacity:0;stroke:#000080;stroke-width:1.5;" x="380.514816" xlink:href="#mdfa3451a96" y="293.10336"/>
    </g>
   </g>
   <g id="line2d_44">
    <path d="M 360.8064 6.912 
L 380.514816 152.928 
" style="fill:none;stroke:#ff00ff;stroke-linecap:square;stroke-width:1.5;"/>
    <g>
     <use style="fill-opacity:0;stroke:#ff00ff;stroke-linejoin:miter;stroke-width:1.5;" x="360.8064" xlink:href="#m2c90e380f5" y="6.912"/>
     <use style="fill-opacity:0;stroke:#ff00ff;stroke-linejoin:miter;stroke-width:1.5;" x="380.514816" xlink:href="#m2c90e380f5" y="152.928"/>
    </g>
   </g>
   <g id="line2d_45">
    <path d="M 360.8064 6.912 
L 380.514816 12.75264 
" style="fill:none;stroke:#ff7500;stroke-linecap:square;stroke-width:1.5;"/>
    <g>
     <use style="fill-opacity:0;stroke:#ff7500;stroke-linejoin:bevel;stroke-width:1.5;" x="360.8064" xlink:href="#mfc7227a098" y="6.912"/>
     <use style="fill-opacity:0;stroke:#ff7500;stroke-linejoin:bevel;stroke-width:1.5;" x="380.514816" xlink:href="#mfc7227a098" y="12.75264"/>
    </g>
   </g>
   <g id="line2d_46">
    <path d="M 360.8064 298.944 
L 360.8064 6.912 
" style="fill:none;stroke:#000000;stroke-linecap:square;stroke-width:1.5;"/>
   </g>
   <g id="patch_3">
    <path d="M 57.6 298.944 
L 360.8064 298.944 
" style="fill:none;stroke:#000000;stroke-linecap:square;stroke-linejoin:miter;stroke-width:0.8;"/>
   </g>
   <g id="patch_4">
    <path d="M 57.6 6.912 
L 360.8064 6.912 
" style="fill:none;stroke:#000000;stroke-linecap:square;stroke-linejoin:miter;stroke-width:0.8;"/>
   </g>
   <g id="text_13">
    <!-- cobyla -->
    <g transform="translate(386.578944 296.966485)scale(0.14 -0.14)">
     <defs>
      <path d="M 48.6875 27.296875 
Q 48.6875 37.203125 44.609375 42.84375 
Q 40.53125 48.484375 33.40625 48.484375 
Q 26.265625 48.484375 22.1875 42.84375 
Q 18.109375 37.203125 18.109375 27.296875 
Q 18.109375 17.390625 22.1875 11.75 
Q 26.265625 6.109375 33.40625 6.109375 
Q 40.53125 6.109375 44.609375 11.75 
Q 48.6875 17.390625 48.6875 27.296875 
z
M 18.109375 46.390625 
Q 20.953125 51.265625 25.265625 53.625 
Q 29.59375 56 35.59375 56 
Q 45.5625 56 51.78125 48.09375 
Q 58.015625 40.1875 58.015625 27.296875 
Q 58.015625 14.40625 51.78125 6.484375 
Q 45.5625 -1.421875 35.59375 -1.421875 
Q 29.59375 -1.421875 25.265625 0.953125 
Q 20.953125 3.328125 18.109375 8.203125 
L 18.109375 0 
L 9.078125 0 
L 9.078125 75.984375 
L 18.109375 75.984375 
z
" id="DejaVuSans-98"/>
      <path d="M 32.171875 -5.078125 
Q 28.375 -14.84375 24.75 -17.8125 
Q 21.140625 -20.796875 15.09375 -20.796875 
L 7.90625 -20.796875 
L 7.90625 -13.28125 
L 13.1875 -13.28125 
Q 16.890625 -13.28125 18.9375 -11.515625 
Q 21 -9.765625 23.484375 -3.21875 
L 25.09375 0.875 
L 2.984375 54.6875 
L 12.5 54.6875 
L 29.59375 11.921875 
L 46.6875 54.6875 
L 56.203125 54.6875 
z
" id="DejaVuSans-121"/>
     </defs>
     <use xlink:href="#DejaVuSans-99"/>
     <use x="54.980469" xlink:href="#DejaVuSans-111"/>
     <use x="116.162109" xlink:href="#DejaVuSans-98"/>
     <use x="179.638672" xlink:href="#DejaVuSans-121"/>
     <use x="238.818359" xlink:href="#DejaVuSans-108"/>
     <use x="266.601562" xlink:href="#DejaVuSans-97"/>
    </g>
   </g>
   <g id="text_14">
    <!-- fmincon -->
    <g transform="translate(386.578944 156.791125)scale(0.14 -0.14)">
     <use xlink:href="#DejaVuSans-102"/>
     <use x="35.205078" xlink:href="#DejaVuSans-109"/>
     <use x="132.617188" xlink:href="#DejaVuSans-105"/>
     <use x="160.400391" xlink:href="#DejaVuSans-110"/>
     <use x="223.779297" xlink:href="#DejaVuSans-99"/>
     <use x="278.759766" xlink:href="#DejaVuSans-111"/>
     <use x="339.941406" xlink:href="#DejaVuSans-110"/>
    </g>
   </g>
   <g id="text_15">
    <!-- slsqp -->
    <g transform="translate(386.578944 16.615765)scale(0.14 -0.14)">
     <defs>
      <path d="M 14.796875 27.296875 
Q 14.796875 17.390625 18.875 11.75 
Q 22.953125 6.109375 30.078125 6.109375 
Q 37.203125 6.109375 41.296875 11.75 
Q 45.40625 17.390625 45.40625 27.296875 
Q 45.40625 37.203125 41.296875 42.84375 
Q 37.203125 48.484375 30.078125 48.484375 
Q 22.953125 48.484375 18.875 42.84375 
Q 14.796875 37.203125 14.796875 27.296875 
z
M 45.40625 8.203125 
Q 42.578125 3.328125 38.25 0.953125 
Q 33.9375 -1.421875 27.875 -1.421875 
Q 17.96875 -1.421875 11.734375 6.484375 
Q 5.515625 14.40625 5.515625 27.296875 
Q 5.515625 40.1875 11.734375 48.09375 
Q 17.96875 56 27.875 56 
Q 33.9375 56 38.25 53.625 
Q 42.578125 51.265625 45.40625 46.390625 
L 45.40625 54.6875 
L 54.390625 54.6875 
L 54.390625 -20.796875 
L 45.40625 -20.796875 
z
" id="DejaVuSans-113"/>
     </defs>
     <use xlink:href="#DejaVuSans-115"/>
     <use x="52.099609" xlink:href="#DejaVuSans-108"/>
     <use x="79.882812" xlink:href="#DejaVuSans-115"/>
     <use x="131.982422" xlink:href="#DejaVuSans-113"/>
     <use x="195.458984" xlink:href="#DejaVuSans-112"/>
    </g>
   </g>
   <g id="text_16">
    <!-- bbob-constrained f1, f7, f13, 3-D -->
    <g transform="translate(60.632064 17.582726)scale(0.102 -0.102)">
     <defs>
      <path d="M 4.890625 31.390625 
L 31.203125 31.390625 
L 31.203125 23.390625 
L 4.890625 23.390625 
z
" id="DejaVuSans-45"/>
      <path d="M 8.203125 72.90625 
L 55.078125 72.90625 
L 55.078125 68.703125 
L 28.609375 0 
L 18.3125 0 
L 43.21875 64.59375 
L 8.203125 64.59375 
z
" id="DejaVuSans-55"/>
      <path d="M 40.578125 39.3125 
Q 47.65625 37.796875 51.625 33 
Q 55.609375 28.21875 55.609375 21.1875 
Q 55.609375 10.40625 48.1875 4.484375 
Q 40.765625 -1.421875 27.09375 -1.421875 
Q 22.515625 -1.421875 17.65625 -0.515625 
Q 12.796875 0.390625 7.625 2.203125 
L 7.625 11.71875 
Q 11.71875 9.328125 16.59375 8.109375 
Q 21.484375 6.890625 26.8125 6.890625 
Q 36.078125 6.890625 40.9375 10.546875 
Q 45.796875 14.203125 45.796875 21.1875 
Q 45.796875 27.640625 41.28125 31.265625 
Q 36.765625 34.90625 28.71875 34.90625 
L 20.21875 34.90625 
L 20.21875 43.015625 
L 29.109375 43.015625 
Q 36.375 43.015625 40.234375 45.921875 
Q 44.09375 48.828125 44.09375 54.296875 
Q 44.09375 59.90625 40.109375 62.90625 
Q 36.140625 65.921875 28.71875 65.921875 
Q 24.65625 65.921875 20.015625 65.03125 
Q 15.375 64.15625 9.8125 62.3125 
L 9.8125 71.09375 
Q 15.4375 72.65625 20.34375 73.4375 
Q 25.25 74.21875 29.59375 74.21875 
Q 40.828125 74.21875 47.359375 69.109375 
Q 53.90625 64.015625 53.90625 55.328125 
Q 53.90625 49.265625 50.4375 45.09375 
Q 46.96875 40.921875 40.578125 39.3125 
z
" id="DejaVuSans-51"/>
      <path d="M 19.671875 64.796875 
L 19.671875 8.109375 
L 31.59375 8.109375 
Q 46.6875 8.109375 53.6875 14.9375 
Q 60.6875 21.78125 60.6875 36.53125 
Q 60.6875 51.171875 53.6875 57.984375 
Q 46.6875 64.796875 31.59375 64.796875 
z
M 9.8125 72.90625 
L 30.078125 72.90625 
Q 51.265625 72.90625 61.171875 64.09375 
Q 71.09375 55.28125 71.09375 36.53125 
Q 71.09375 17.671875 61.125 8.828125 
Q 51.171875 0 30.078125 0 
L 9.8125 0 
z
" id="DejaVuSans-68"/>
     </defs>
     <use xlink:href="#DejaVuSans-98"/>
     <use x="63.476562" xlink:href="#DejaVuSans-98"/>
     <use x="126.953125" xlink:href="#DejaVuSans-111"/>
     <use x="188.134766" xlink:href="#DejaVuSans-98"/>
     <use x="251.611328" xlink:href="#DejaVuSans-45"/>
     <use x="287.695312" xlink:href="#DejaVuSans-99"/>
     <use x="342.675781" xlink:href="#DejaVuSans-111"/>
     <use x="403.857422" xlink:href="#DejaVuSans-110"/>
     <use x="467.236328" xlink:href="#DejaVuSans-115"/>
     <use x="519.335938" xlink:href="#DejaVuSans-116"/>
     <use x="558.544922" xlink:href="#DejaVuSans-114"/>
     <use x="599.658203" xlink:href="#DejaVuSans-97"/>
     <use x="660.9375" xlink:href="#DejaVuSans-105"/>
     <use x="688.720703" xlink:href="#DejaVuSans-110"/>
     <use x="752.099609" xlink:href="#DejaVuSans-101"/>
     <use x="813.623047" xlink:href="#DejaVuSans-100"/>
     <use x="877.099609" xlink:href="#DejaVuSans-32"/>
     <use x="908.886719" xlink:href="#DejaVuSans-102"/>
     <use x="944.091797" xlink:href="#DejaVuSans-49"/>
     <use x="1007.714844" xlink:href="#DejaVuSans-44"/>
     <use x="1039.501953" xlink:href="#DejaVuSans-32"/>
     <use x="1071.289062" xlink:href="#DejaVuSans-102"/>
     <use x="1106.494141" xlink:href="#DejaVuSans-55"/>
     <use x="1170.117188" xlink:href="#DejaVuSans-44"/>
     <use x="1201.904297" xlink:href="#DejaVuSans-32"/>
     <use x="1233.691406" xlink:href="#DejaVuSans-102"/>
     <use x="1268.896484" xlink:href="#DejaVuSans-49"/>
     <use x="1332.519531" xlink:href="#DejaVuSans-51"/>
     <use x="1396.142578" xlink:href="#DejaVuSans-44"/>
     <use x="1427.929688" xlink:href="#DejaVuSans-32"/>
     <use x="1459.716797" xlink:href="#DejaVuSans-51"/>
     <use x="1523.339844" xlink:href="#DejaVuSans-45"/>
     <use x="1559.423828" xlink:href="#DejaVuSans-68"/>
    </g>
    <!-- 41 targets: 100..1e-06 -->
    <g transform="translate(60.632064 29.004495)scale(0.102 -0.102)">
     <defs>
      <path d="M 11.71875 12.40625 
L 22.015625 12.40625 
L 22.015625 0 
L 11.71875 0 
z
M 11.71875 51.703125 
L 22.015625 51.703125 
L 22.015625 39.3125 
L 11.71875 39.3125 
z
" id="DejaVuSans-58"/>
     </defs>
     <use xlink:href="#DejaVuSans-52"/>
     <use x="63.623047" xlink:href="#DejaVuSans-49"/>
     <use x="127.246094" xlink:href="#DejaVuSans-32"/>
     <use x="159.033203" xlink:href="#DejaVuSans-116"/>
     <use x="198.242188" xlink:href="#DejaVuSans-97"/>
     <use x="259.521484" xlink:href="#DejaVuSans-114"/>
     <use x="298.884766" xlink:href="#DejaVuSans-103"/>
     <use x="362.361328" xlink:href="#DejaVuSans-101"/>
     <use x="423.884766" xlink:href="#DejaVuSans-116"/>
     <use x="463.09375" xlink:href="#DejaVuSans-115"/>
     <use x="515.193359" xlink:href="#DejaVuSans-58"/>
     <use x="548.884766" xlink:href="#DejaVuSans-32"/>
     <use x="580.671875" xlink:href="#DejaVuSans-49"/>
     <use x="644.294922" xlink:href="#DejaVuSans-48"/>
     <use x="707.917969" xlink:href="#DejaVuSans-48"/>
     <use x="771.541016" xlink:href="#DejaVuSans-46"/>
     <use x="803.328125" xlink:href="#DejaVuSans-46"/>
     <use x="835.115234" xlink:href="#DejaVuSans-49"/>
     <use x="898.738281" xlink:href="#DejaVuSans-101"/>
     <use x="960.261719" xlink:href="#DejaVuSans-45"/>
     <use x="996.345703" xlink:href="#DejaVuSans-48"/>
     <use x="1059.96875" xlink:href="#DejaVuSans-54"/>
    </g>
    <!-- evals = f-evals + g-evals -->
    <g transform="translate(60.632064 40.426264)scale(0.102 -0.102)">
     <defs>
      <path d="M 10.59375 45.40625 
L 73.1875 45.40625 
L 73.1875 37.203125 
L 10.59375 37.203125 
z
M 10.59375 25.484375 
L 73.1875 25.484375 
L 73.1875 17.1875 
L 10.59375 17.1875 
z
" id="DejaVuSans-61"/>
      <path d="M 46 62.703125 
L 46 35.5 
L 73.1875 35.5 
L 73.1875 27.203125 
L 46 27.203125 
L 46 0 
L 37.796875 0 
L 37.796875 27.203125 
L 10.59375 27.203125 
L 10.59375 35.5 
L 37.796875 35.5 
L 37.796875 62.703125 
z
" id="DejaVuSans-43"/>
     </defs>
     <use xlink:href="#DejaVuSans-101"/>
     <use x="61.523438" xlink:href="#DejaVuSans-118"/>
     <use x="120.703125" xlink:href="#DejaVuSans-97"/>
     <use x="181.982422" xlink:href="#DejaVuSans-108"/>
     <use x="209.765625" xlink:href="#DejaVuSans-115"/>
     <use x="261.865234" xlink:href="#DejaVuSans-32"/>
     <use x="293.652344" xlink:href="#DejaVuSans-61"/>
     <use x="377.441406" xlink:href="#DejaVuSans-32"/>
     <use x="409.228516" xlink:href="#DejaVuSans-102"/>
     <use x="438.933594" xlink:href="#DejaVuSans-45"/>
     <use x="475.017578" xlink:href="#DejaVuSans-101"/>
     <use x="536.541016" xlink:href="#DejaVuSans-118"/>
     <use x="595.720703" xlink:href="#DejaVuSans-97"/>
     <use x="657" xlink:href="#DejaVuSans-108"/>
     <use x="684.783203" xlink:href="#DejaVuSans-115"/>
     <use x="736.882812" xlink:href="#DejaVuSans-32"/>
     <use x="768.669922" xlink:href="#DejaVuSans-43"/>
     <use x="852.458984" xlink:href="#DejaVuSans-32"/>
     <use x="884.246094" xlink:href="#DejaVuSans-103"/>
     <use x="947.722656" xlink:href="#DejaVuSans-45"/>
     <use x="983.806641" xlink:href="#DejaVuSans-101"/>
     <use x="1045.330078" xlink:href="#DejaVuSans-118"/>
     <use x="1104.509766" xlink:href="#DejaVuSans-97"/>
     <use x="1165.789062" xlink:href="#DejaVuSans-108"/>
     <use x="1193.572266" xlink:href="#DejaVuSans-115"/>
    </g>
    <!-- 15 instances -->
    <g transform="translate(60.632064 51.848032)scale(0.102 -0.102)">
     <defs>
      <path d="M 10.796875 72.90625 
L 49.515625 72.90625 
L 49.515625 64.59375 
L 19.828125 64.59375 
L 19.828125 46.734375 
Q 21.96875 47.46875 24.109375 47.828125 
Q 26.265625 48.1875 28.421875 48.1875 
Q 40.625 48.1875 47.75 41.5 
Q 54.890625 34.8125 54.890625 23.390625 
Q 54.890625 11.625 47.5625 5.09375 
Q 40.234375 -1.421875 26.90625 -1.421875 
Q 22.3125 -1.421875 17.546875 -0.640625 
Q 12.796875 0.140625 7.71875 1.703125 
L 7.71875 11.625 
Q 12.109375 9.234375 16.796875 8.0625 
Q 21.484375 6.890625 26.703125 6.890625 
Q 35.15625 6.890625 40.078125 11.328125 
Q 45.015625 15.765625 45.015625 23.390625 
Q 45.015625 31 40.078125 35.4375 
Q 35.15625 39.890625 26.703125 39.890625 
Q 22.75 39.890625 18.8125 39.015625 
Q 14.890625 38.140625 10.796875 36.28125 
z
" id="DejaVuSans-53"/>
     </defs>
     <use xlink:href="#DejaVuSans-49"/>
     <use x="63.623047" xlink:href="#DejaVuSans-53"/>
     <use x="127.246094" xlink:href="#DejaVuSans-32"/>
     <use x="159.033203" xlink:href="#DejaVuSans-105"/>
     <use x="186.816406" xlink:href="#DejaVuSans-110"/>
     <use x="250.195312" xlink:href="#DejaVuSans-115"/>
     <use x="302.294922" xlink:href="#DejaVuSans-116"/>
     <use x="341.503906" xlink:href="#DejaVuSans-97"/>
     <use x="402.783203" xlink:href="#DejaVuSans-110"/>
     <use x="466.162109" xlink:href="#DejaVuSans-99"/>
     <use x="521.142578" xlink:href="#DejaVuSans-101"/>
     <use x="582.666016" xlink:href="#DejaVuSans-115"/>
    </g>
   </g>
   <g id="text_17">
    <!-- v2.4.159 -->
    <g style="fill:#808080;" transform="translate(187.15945 293.943992)scale(0.1 -0.1)">
     <defs>
      <path d="M 10.984375 1.515625 
L 10.984375 10.5 
Q 14.703125 8.734375 18.5 7.8125 
Q 22.3125 6.890625 25.984375 6.890625 
Q 35.75 6.890625 40.890625 13.453125 
Q 46.046875 20.015625 46.78125 33.40625 
Q 43.953125 29.203125 39.59375 26.953125 
Q 35.25 24.703125 29.984375 24.703125 
Q 19.046875 24.703125 12.671875 31.3125 
Q 6.296875 37.9375 6.296875 49.421875 
Q 6.296875 60.640625 12.9375 67.421875 
Q 19.578125 74.21875 30.609375 74.21875 
Q 43.265625 74.21875 49.921875 64.515625 
Q 56.59375 54.828125 56.59375 36.375 
Q 56.59375 19.140625 48.40625 8.859375 
Q 40.234375 -1.421875 26.421875 -1.421875 
Q 22.703125 -1.421875 18.890625 -0.6875 
Q 15.09375 0.046875 10.984375 1.515625 
z
M 30.609375 32.421875 
Q 37.25 32.421875 41.125 36.953125 
Q 45.015625 41.5 45.015625 49.421875 
Q 45.015625 57.28125 41.125 61.84375 
Q 37.25 66.40625 30.609375 66.40625 
Q 23.96875 66.40625 20.09375 61.84375 
Q 16.21875 57.28125 16.21875 49.421875 
Q 16.21875 41.5 20.09375 36.953125 
Q 23.96875 32.421875 30.609375 32.421875 
z
" id="DejaVuSans-57"/>
     </defs>
     <use xlink:href="#DejaVuSans-118"/>
     <use x="59.179688" xlink:href="#DejaVuSans-50"/>
     <use x="122.802734" xlink:href="#DejaVuSans-46"/>
     <use x="154.589844" xlink:href="#DejaVuSans-52"/>
     <use x="218.212891" xlink:href="#DejaVuSans-46"/>
     <use x="250" xlink:href="#DejaVuSans-49"/>
     <use x="313.623047" xlink:href="#DejaVuSans-53"/>
     <use x="377.246094" xlink:href="#DejaVuSans-57"/>
    </g>
   </g>
  </g>
 </g>
 <defs>
  <clipPath id="p96b9e53fc3">
   <rect height="292.032" width="303.2064" x="57.6" y="6.912"/>
  </clipPath>
 </defs>
</svg>
