<?xml version="1.0" encoding="utf-8" standalone="no"?>
<!DOCTYPE svg PUBLIC "-//W3C//DTD SVG 1.1//EN"
  "http://www.w3.org/Graphics/SVG/1.1/DTD/svg11.dtd">
<!-- Created with matplotlib (https://matplotlib.org/) -->
<svg height="345.6pt" version="1.1" viewBox="0 0 460.8 345.6" width="460.8pt" xmlns="http://www.w3.org/2000/svg" xmlns:xlink="http://www.w3.org/1999/xlink">
 <metadata>
  <rdf:RDF xmlns:cc="http://creativecommons.org/ns#" xmlns:dc="http://purl.org/dc/elements/1.1/" xmlns:rdf="http://www.w3.org/1999/02/22-rdf-syntax-ns#">
   <cc:Work>
    <dc:type rdf:resource="http://purl.org/dc/dcmitype/StillImage"/>
    <dc:date>2022-02-09T10:01:32.453872</dc:date>
    <dc:format>image/svg+xml</dc:format>
    <dc:creator>
     <cc:Agent>
      <dc:title>Matplotlib v3.3.3, https://matplotlib.org/</dc:title>
     </cc:Agent>
    </dc:creator>
   </cc:Work>
  </rdf:RDF>
 </metadata>
 <defs>
  <style type="text/css">*{stroke-linecap:butt;stroke-linejoin:round;}</style>
 </defs>
 <g id="figure_1">
  <g id="patch_1">
   <path d="M 0 345.6 
L 460.8 345.6 
L 460.8 0 
L 0 0 
z
" style="fill:#ffffff;"/>
  </g>
  <g id="axes_1">
   <g id="patch_2">
    <path d="M 57.6 298.944 
L 360.8064 298.944 
L 360.8064 27.648 
L 57.6 27.648 
z
" style="fill:#ffffff;"/>
   </g>
   <g id="matplotlib.axis_1">
    <g id="xtick_1">
     <g id="line2d_1">
      <path clip-path="url(#p47f9077f7f)" d="M 57.6 298.944 
L 57.6 27.648 
" style="fill:none;stroke:#b0b0b0;stroke-linecap:square;stroke-width:0.8;"/>
     </g>
     <g id="line2d_2">
      <defs>
       <path d="M 0 0 
L 0 3.5 
" id="m5981c8d9af" style="stroke:#000000;stroke-width:0.8;"/>
      </defs>
      <g>
       <use style="stroke:#000000;stroke-width:0.8;" x="57.6" xlink:href="#m5981c8d9af" y="298.944"/>
      </g>
     </g>
     <g id="text_1">
      <!-- 0 -->
      <g transform="translate(52.191875 318.861344)scale(0.17 -0.17)">
       <defs>
        <path d="M 31.78125 66.40625 
Q 24.171875 66.40625 20.328125 58.90625 
Q 16.5 51.421875 16.5 36.375 
Q 16.5 21.390625 20.328125 13.890625 
Q 24.171875 6.390625 31.78125 6.390625 
Q 39.453125 6.390625 43.28125 13.890625 
Q 47.125 21.390625 47.125 36.375 
Q 47.125 51.421875 43.28125 58.90625 
Q 39.453125 66.40625 31.78125 66.40625 
z
M 31.78125 74.21875 
Q 44.046875 74.21875 50.515625 64.515625 
Q 56.984375 54.828125 56.984375 36.375 
Q 56.984375 17.96875 50.515625 8.265625 
Q 44.046875 -1.421875 31.78125 -1.421875 
Q 19.53125 -1.421875 13.0625 8.265625 
Q 6.59375 17.96875 6.59375 36.375 
Q 6.59375 54.828125 13.0625 64.515625 
Q 19.53125 74.21875 31.78125 74.21875 
z
" id="DejaVuSans-48"/>
       </defs>
       <use xlink:href="#DejaVuSans-48"/>
      </g>
     </g>
    </g>
    <g id="xtick_2">
     <g id="line2d_3">
      <path clip-path="url(#p47f9077f7f)" d="M 144.2304 298.944 
L 144.2304 27.648 
" style="fill:none;stroke:#b0b0b0;stroke-linecap:square;stroke-width:0.8;"/>
     </g>
     <g id="line2d_4">
      <g>
       <use style="stroke:#000000;stroke-width:0.8;" x="144.2304" xlink:href="#m5981c8d9af" y="298.944"/>
      </g>
     </g>
     <g id="text_2">
      <!-- 2 -->
      <g transform="translate(138.822275 318.861344)scale(0.17 -0.17)">
       <defs>
        <path d="M 19.1875 8.296875 
L 53.609375 8.296875 
L 53.609375 0 
L 7.328125 0 
L 7.328125 8.296875 
Q 12.9375 14.109375 22.625 23.890625 
Q 32.328125 33.6875 34.8125 36.53125 
Q 39.546875 41.84375 41.421875 45.53125 
Q 43.3125 49.21875 43.3125 52.78125 
Q 43.3125 58.59375 39.234375 62.25 
Q 35.15625 65.921875 28.609375 65.921875 
Q 23.96875 65.921875 18.8125 64.3125 
Q 13.671875 62.703125 7.8125 59.421875 
L 7.8125 69.390625 
Q 13.765625 71.78125 18.9375 73 
Q 24.125 74.21875 28.421875 74.21875 
Q 39.75 74.21875 46.484375 68.546875 
Q 53.21875 62.890625 53.21875 53.421875 
Q 53.21875 48.921875 51.53125 44.890625 
Q 49.859375 40.875 45.40625 35.40625 
Q 44.1875 33.984375 37.640625 27.21875 
Q 31.109375 20.453125 19.1875 8.296875 
z
" id="DejaVuSans-50"/>
       </defs>
       <use xlink:href="#DejaVuSans-50"/>
      </g>
     </g>
    </g>
    <g id="xtick_3">
     <g id="line2d_5">
      <path clip-path="url(#p47f9077f7f)" d="M 230.8608 298.944 
L 230.8608 27.648 
" style="fill:none;stroke:#b0b0b0;stroke-linecap:square;stroke-width:0.8;"/>
     </g>
     <g id="line2d_6">
      <g>
       <use style="stroke:#000000;stroke-width:0.8;" x="230.8608" xlink:href="#m5981c8d9af" y="298.944"/>
      </g>
     </g>
     <g id="text_3">
      <!-- 4 -->
      <g transform="translate(225.452675 318.861344)scale(0.17 -0.17)">
       <defs>
        <path d="M 37.796875 64.3125 
L 12.890625 25.390625 
L 37.796875 25.390625 
z
M 35.203125 72.90625 
L 47.609375 72.90625 
L 47.609375 25.390625 
L 58.015625 25.390625 
L 58.015625 17.1875 
L 47.609375 17.1875 
L 47.609375 0 
L 37.796875 0 
L 37.796875 17.1875 
L 4.890625 17.1875 
L 4.890625 26.703125 
z
" id="DejaVuSans-52"/>
       </defs>
       <use xlink:href="#DejaVuSans-52"/>
      </g>
     </g>
    </g>
    <g id="xtick_4">
     <g id="line2d_7">
      <path clip-path="url(#p47f9077f7f)" d="M 317.4912 298.944 
L 317.4912 27.648 
" style="fill:none;stroke:#b0b0b0;stroke-linecap:square;stroke-width:0.8;"/>
     </g>
     <g id="line2d_8">
      <g>
       <use style="stroke:#000000;stroke-width:0.8;" x="317.4912" xlink:href="#m5981c8d9af" y="298.944"/>
      </g>
     </g>
     <g id="text_4">
      <!-- 6 -->
      <g transform="translate(312.083075 318.861344)scale(0.17 -0.17)">
       <defs>
        <path d="M 33.015625 40.375 
Q 26.375 40.375 22.484375 35.828125 
Q 18.609375 31.296875 18.609375 23.390625 
Q 18.609375 15.53125 22.484375 10.953125 
Q 26.375 6.390625 33.015625 6.390625 
Q 39.65625 6.390625 43.53125 10.953125 
Q 47.40625 15.53125 47.40625 23.390625 
Q 47.40625 31.296875 43.53125 35.828125 
Q 39.65625 40.375 33.015625 40.375 
z
M 52.59375 71.296875 
L 52.59375 62.3125 
Q 48.875 64.0625 45.09375 64.984375 
Q 41.3125 65.921875 37.59375 65.921875 
Q 27.828125 65.921875 22.671875 59.328125 
Q 17.53125 52.734375 16.796875 39.40625 
Q 19.671875 43.65625 24.015625 45.921875 
Q 28.375 48.1875 33.59375 48.1875 
Q 44.578125 48.1875 50.953125 41.515625 
Q 57.328125 34.859375 57.328125 23.390625 
Q 57.328125 12.15625 50.6875 5.359375 
Q 44.046875 -1.421875 33.015625 -1.421875 
Q 20.359375 -1.421875 13.671875 8.265625 
Q 6.984375 17.96875 6.984375 36.375 
Q 6.984375 53.65625 15.1875 63.9375 
Q 23.390625 74.21875 37.203125 74.21875 
Q 40.921875 74.21875 44.703125 73.484375 
Q 48.484375 72.75 52.59375 71.296875 
z
" id="DejaVuSans-54"/>
       </defs>
       <use xlink:href="#DejaVuSans-54"/>
      </g>
     </g>
    </g>
    <g id="xtick_5">
     <g id="line2d_9">
      <path clip-path="url(#p47f9077f7f)" d="M 100.9152 298.944 
L 100.9152 27.648 
" style="fill:none;stroke:#b0b0b0;stroke-linecap:square;stroke-width:0.8;"/>
     </g>
     <g id="line2d_10">
      <defs>
       <path d="M 0 0 
L 0 2 
" id="m24bf034aed" style="stroke:#000000;stroke-width:0.6;"/>
      </defs>
      <g>
       <use style="stroke:#000000;stroke-width:0.6;" x="100.9152" xlink:href="#m24bf034aed" y="298.944"/>
      </g>
     </g>
    </g>
    <g id="xtick_6">
     <g id="line2d_11">
      <path clip-path="url(#p47f9077f7f)" d="M 187.5456 298.944 
L 187.5456 27.648 
" style="fill:none;stroke:#b0b0b0;stroke-linecap:square;stroke-width:0.8;"/>
     </g>
     <g id="line2d_12">
      <g>
       <use style="stroke:#000000;stroke-width:0.6;" x="187.5456" xlink:href="#m24bf034aed" y="298.944"/>
      </g>
     </g>
    </g>
    <g id="xtick_7">
     <g id="line2d_13">
      <path clip-path="url(#p47f9077f7f)" d="M 274.176 298.944 
L 274.176 27.648 
" style="fill:none;stroke:#b0b0b0;stroke-linecap:square;stroke-width:0.8;"/>
     </g>
     <g id="line2d_14">
      <g>
       <use style="stroke:#000000;stroke-width:0.6;" x="274.176" xlink:href="#m24bf034aed" y="298.944"/>
      </g>
     </g>
    </g>
    <g id="xtick_8">
     <g id="line2d_15">
      <path clip-path="url(#p47f9077f7f)" d="M 360.8064 298.944 
L 360.8064 27.648 
" style="fill:none;stroke:#b0b0b0;stroke-linecap:square;stroke-width:0.8;"/>
     </g>
     <g id="line2d_16">
      <g>
       <use style="stroke:#000000;stroke-width:0.6;" x="360.8064" xlink:href="#m24bf034aed" y="298.944"/>
      </g>
     </g>
    </g>
    <g id="text_5">
     <!-- log10(evals / dimension) -->
     <g transform="translate(104.238825 339.314156)scale(0.17 -0.17)">
      <defs>
       <path d="M 9.421875 75.984375 
L 18.40625 75.984375 
L 18.40625 0 
L 9.421875 0 
z
" id="DejaVuSans-108"/>
       <path d="M 30.609375 48.390625 
Q 23.390625 48.390625 19.1875 42.75 
Q 14.984375 37.109375 14.984375 27.296875 
Q 14.984375 17.484375 19.15625 11.84375 
Q 23.34375 6.203125 30.609375 6.203125 
Q 37.796875 6.203125 41.984375 11.859375 
Q 46.1875 17.53125 46.1875 27.296875 
Q 46.1875 37.015625 41.984375 42.703125 
Q 37.796875 48.390625 30.609375 48.390625 
z
M 30.609375 56 
Q 42.328125 56 49.015625 48.375 
Q 55.71875 40.765625 55.71875 27.296875 
Q 55.71875 13.875 49.015625 6.21875 
Q 42.328125 -1.421875 30.609375 -1.421875 
Q 18.84375 -1.421875 12.171875 6.21875 
Q 5.515625 13.875 5.515625 27.296875 
Q 5.515625 40.765625 12.171875 48.375 
Q 18.84375 56 30.609375 56 
z
" id="DejaVuSans-111"/>
       <path d="M 45.40625 27.984375 
Q 45.40625 37.75 41.375 43.109375 
Q 37.359375 48.484375 30.078125 48.484375 
Q 22.859375 48.484375 18.828125 43.109375 
Q 14.796875 37.75 14.796875 27.984375 
Q 14.796875 18.265625 18.828125 12.890625 
Q 22.859375 7.515625 30.078125 7.515625 
Q 37.359375 7.515625 41.375 12.890625 
Q 45.40625 18.265625 45.40625 27.984375 
z
M 54.390625 6.78125 
Q 54.390625 -7.171875 48.1875 -13.984375 
Q 42 -20.796875 29.203125 -20.796875 
Q 24.46875 -20.796875 20.265625 -20.09375 
Q 16.0625 -19.390625 12.109375 -17.921875 
L 12.109375 -9.1875 
Q 16.0625 -11.328125 19.921875 -12.34375 
Q 23.78125 -13.375 27.78125 -13.375 
Q 36.625 -13.375 41.015625 -8.765625 
Q 45.40625 -4.15625 45.40625 5.171875 
L 45.40625 9.625 
Q 42.625 4.78125 38.28125 2.390625 
Q 33.9375 0 27.875 0 
Q 17.828125 0 11.671875 7.65625 
Q 5.515625 15.328125 5.515625 27.984375 
Q 5.515625 40.671875 11.671875 48.328125 
Q 17.828125 56 27.875 56 
Q 33.9375 56 38.28125 53.609375 
Q 42.625 51.21875 45.40625 46.390625 
L 45.40625 54.6875 
L 54.390625 54.6875 
z
" id="DejaVuSans-103"/>
       <path d="M 12.40625 8.296875 
L 28.515625 8.296875 
L 28.515625 63.921875 
L 10.984375 60.40625 
L 10.984375 69.390625 
L 28.421875 72.90625 
L 38.28125 72.90625 
L 38.28125 8.296875 
L 54.390625 8.296875 
L 54.390625 0 
L 12.40625 0 
z
" id="DejaVuSans-49"/>
       <path d="M 31 75.875 
Q 24.46875 64.65625 21.28125 53.65625 
Q 18.109375 42.671875 18.109375 31.390625 
Q 18.109375 20.125 21.3125 9.0625 
Q 24.515625 -2 31 -13.1875 
L 23.1875 -13.1875 
Q 15.875 -1.703125 12.234375 9.375 
Q 8.59375 20.453125 8.59375 31.390625 
Q 8.59375 42.28125 12.203125 53.3125 
Q 15.828125 64.359375 23.1875 75.875 
z
" id="DejaVuSans-40"/>
       <path d="M 56.203125 29.59375 
L 56.203125 25.203125 
L 14.890625 25.203125 
Q 15.484375 15.921875 20.484375 11.0625 
Q 25.484375 6.203125 34.421875 6.203125 
Q 39.59375 6.203125 44.453125 7.46875 
Q 49.3125 8.734375 54.109375 11.28125 
L 54.109375 2.78125 
Q 49.265625 0.734375 44.1875 -0.34375 
Q 39.109375 -1.421875 33.890625 -1.421875 
Q 20.796875 -1.421875 13.15625 6.1875 
Q 5.515625 13.8125 5.515625 26.8125 
Q 5.515625 40.234375 12.765625 48.109375 
Q 20.015625 56 32.328125 56 
Q 43.359375 56 49.78125 48.890625 
Q 56.203125 41.796875 56.203125 29.59375 
z
M 47.21875 32.234375 
Q 47.125 39.59375 43.09375 43.984375 
Q 39.0625 48.390625 32.421875 48.390625 
Q 24.90625 48.390625 20.390625 44.140625 
Q 15.875 39.890625 15.1875 32.171875 
z
" id="DejaVuSans-101"/>
       <path d="M 2.984375 54.6875 
L 12.5 54.6875 
L 29.59375 8.796875 
L 46.6875 54.6875 
L 56.203125 54.6875 
L 35.6875 0 
L 23.484375 0 
z
" id="DejaVuSans-118"/>
       <path d="M 34.28125 27.484375 
Q 23.390625 27.484375 19.1875 25 
Q 14.984375 22.515625 14.984375 16.5 
Q 14.984375 11.71875 18.140625 8.90625 
Q 21.296875 6.109375 26.703125 6.109375 
Q 34.1875 6.109375 38.703125 11.40625 
Q 43.21875 16.703125 43.21875 25.484375 
L 43.21875 27.484375 
z
M 52.203125 31.203125 
L 52.203125 0 
L 43.21875 0 
L 43.21875 8.296875 
Q 40.140625 3.328125 35.546875 0.953125 
Q 30.953125 -1.421875 24.3125 -1.421875 
Q 15.921875 -1.421875 10.953125 3.296875 
Q 6 8.015625 6 15.921875 
Q 6 25.140625 12.171875 29.828125 
Q 18.359375 34.515625 30.609375 34.515625 
L 43.21875 34.515625 
L 43.21875 35.40625 
Q 43.21875 41.609375 39.140625 45 
Q 35.0625 48.390625 27.6875 48.390625 
Q 23 48.390625 18.546875 47.265625 
Q 14.109375 46.140625 10.015625 43.890625 
L 10.015625 52.203125 
Q 14.9375 54.109375 19.578125 55.046875 
Q 24.21875 56 28.609375 56 
Q 40.484375 56 46.34375 49.84375 
Q 52.203125 43.703125 52.203125 31.203125 
z
" id="DejaVuSans-97"/>
       <path d="M 44.28125 53.078125 
L 44.28125 44.578125 
Q 40.484375 46.53125 36.375 47.5 
Q 32.28125 48.484375 27.875 48.484375 
Q 21.1875 48.484375 17.84375 46.4375 
Q 14.5 44.390625 14.5 40.28125 
Q 14.5 37.15625 16.890625 35.375 
Q 19.28125 33.59375 26.515625 31.984375 
L 29.59375 31.296875 
Q 39.15625 29.25 43.1875 25.515625 
Q 47.21875 21.78125 47.21875 15.09375 
Q 47.21875 7.46875 41.1875 3.015625 
Q 35.15625 -1.421875 24.609375 -1.421875 
Q 20.21875 -1.421875 15.453125 -0.5625 
Q 10.6875 0.296875 5.421875 2 
L 5.421875 11.28125 
Q 10.40625 8.6875 15.234375 7.390625 
Q 20.0625 6.109375 24.8125 6.109375 
Q 31.15625 6.109375 34.5625 8.28125 
Q 37.984375 10.453125 37.984375 14.40625 
Q 37.984375 18.0625 35.515625 20.015625 
Q 33.0625 21.96875 24.703125 23.78125 
L 21.578125 24.515625 
Q 13.234375 26.265625 9.515625 29.90625 
Q 5.8125 33.546875 5.8125 39.890625 
Q 5.8125 47.609375 11.28125 51.796875 
Q 16.75 56 26.8125 56 
Q 31.78125 56 36.171875 55.265625 
Q 40.578125 54.546875 44.28125 53.078125 
z
" id="DejaVuSans-115"/>
       <path id="DejaVuSans-32"/>
       <path d="M 25.390625 72.90625 
L 33.6875 72.90625 
L 8.296875 -9.28125 
L 0 -9.28125 
z
" id="DejaVuSans-47"/>
       <path d="M 45.40625 46.390625 
L 45.40625 75.984375 
L 54.390625 75.984375 
L 54.390625 0 
L 45.40625 0 
L 45.40625 8.203125 
Q 42.578125 3.328125 38.25 0.953125 
Q 33.9375 -1.421875 27.875 -1.421875 
Q 17.96875 -1.421875 11.734375 6.484375 
Q 5.515625 14.40625 5.515625 27.296875 
Q 5.515625 40.1875 11.734375 48.09375 
Q 17.96875 56 27.875 56 
Q 33.9375 56 38.25 53.625 
Q 42.578125 51.265625 45.40625 46.390625 
z
M 14.796875 27.296875 
Q 14.796875 17.390625 18.875 11.75 
Q 22.953125 6.109375 30.078125 6.109375 
Q 37.203125 6.109375 41.296875 11.75 
Q 45.40625 17.390625 45.40625 27.296875 
Q 45.40625 37.203125 41.296875 42.84375 
Q 37.203125 48.484375 30.078125 48.484375 
Q 22.953125 48.484375 18.875 42.84375 
Q 14.796875 37.203125 14.796875 27.296875 
z
" id="DejaVuSans-100"/>
       <path d="M 9.421875 54.6875 
L 18.40625 54.6875 
L 18.40625 0 
L 9.421875 0 
z
M 9.421875 75.984375 
L 18.40625 75.984375 
L 18.40625 64.59375 
L 9.421875 64.59375 
z
" id="DejaVuSans-105"/>
       <path d="M 52 44.1875 
Q 55.375 50.25 60.0625 53.125 
Q 64.75 56 71.09375 56 
Q 79.640625 56 84.28125 50.015625 
Q 88.921875 44.046875 88.921875 33.015625 
L 88.921875 0 
L 79.890625 0 
L 79.890625 32.71875 
Q 79.890625 40.578125 77.09375 44.375 
Q 74.3125 48.1875 68.609375 48.1875 
Q 61.625 48.1875 57.5625 43.546875 
Q 53.515625 38.921875 53.515625 30.90625 
L 53.515625 0 
L 44.484375 0 
L 44.484375 32.71875 
Q 44.484375 40.625 41.703125 44.40625 
Q 38.921875 48.1875 33.109375 48.1875 
Q 26.21875 48.1875 22.15625 43.53125 
Q 18.109375 38.875 18.109375 30.90625 
L 18.109375 0 
L 9.078125 0 
L 9.078125 54.6875 
L 18.109375 54.6875 
L 18.109375 46.1875 
Q 21.1875 51.21875 25.484375 53.609375 
Q 29.78125 56 35.6875 56 
Q 41.65625 56 45.828125 52.96875 
Q 50 49.953125 52 44.1875 
z
" id="DejaVuSans-109"/>
       <path d="M 54.890625 33.015625 
L 54.890625 0 
L 45.90625 0 
L 45.90625 32.71875 
Q 45.90625 40.484375 42.875 44.328125 
Q 39.84375 48.1875 33.796875 48.1875 
Q 26.515625 48.1875 22.3125 43.546875 
Q 18.109375 38.921875 18.109375 30.90625 
L 18.109375 0 
L 9.078125 0 
L 9.078125 54.6875 
L 18.109375 54.6875 
L 18.109375 46.1875 
Q 21.34375 51.125 25.703125 53.5625 
Q 30.078125 56 35.796875 56 
Q 45.21875 56 50.046875 50.171875 
Q 54.890625 44.34375 54.890625 33.015625 
z
" id="DejaVuSans-110"/>
       <path d="M 8.015625 75.875 
L 15.828125 75.875 
Q 23.140625 64.359375 26.78125 53.3125 
Q 30.421875 42.28125 30.421875 31.390625 
Q 30.421875 20.453125 26.78125 9.375 
Q 23.140625 -1.703125 15.828125 -13.1875 
L 8.015625 -13.1875 
Q 14.5 -2 17.703125 9.0625 
Q 20.90625 20.125 20.90625 31.390625 
Q 20.90625 42.671875 17.703125 53.65625 
Q 14.5 64.65625 8.015625 75.875 
z
" id="DejaVuSans-41"/>
      </defs>
      <use xlink:href="#DejaVuSans-108"/>
      <use x="27.783203" xlink:href="#DejaVuSans-111"/>
      <use x="88.964844" xlink:href="#DejaVuSans-103"/>
      <use x="152.441406" xlink:href="#DejaVuSans-49"/>
      <use x="216.064453" xlink:href="#DejaVuSans-48"/>
      <use x="279.6875" xlink:href="#DejaVuSans-40"/>
      <use x="318.701172" xlink:href="#DejaVuSans-101"/>
      <use x="380.224609" xlink:href="#DejaVuSans-118"/>
      <use x="439.404297" xlink:href="#DejaVuSans-97"/>
      <use x="500.683594" xlink:href="#DejaVuSans-108"/>
      <use x="528.466797" xlink:href="#DejaVuSans-115"/>
      <use x="580.566406" xlink:href="#DejaVuSans-32"/>
      <use x="612.353516" xlink:href="#DejaVuSans-47"/>
      <use x="646.044922" xlink:href="#DejaVuSans-32"/>
      <use x="677.832031" xlink:href="#DejaVuSans-100"/>
      <use x="741.308594" xlink:href="#DejaVuSans-105"/>
      <use x="769.091797" xlink:href="#DejaVuSans-109"/>
      <use x="866.503906" xlink:href="#DejaVuSans-101"/>
      <use x="928.027344" xlink:href="#DejaVuSans-110"/>
      <use x="991.40625" xlink:href="#DejaVuSans-115"/>
      <use x="1043.505859" xlink:href="#DejaVuSans-105"/>
      <use x="1071.289062" xlink:href="#DejaVuSans-111"/>
      <use x="1132.470703" xlink:href="#DejaVuSans-110"/>
      <use x="1195.849609" xlink:href="#DejaVuSans-41"/>
     </g>
    </g>
   </g>
   <g id="matplotlib.axis_2">
    <g id="ytick_1">
     <g id="line2d_17">
      <path clip-path="url(#p47f9077f7f)" d="M 57.6 298.944 
L 360.8064 298.944 
" style="fill:none;stroke:#b0b0b0;stroke-linecap:square;stroke-width:0.8;"/>
     </g>
     <g id="line2d_18">
      <defs>
       <path d="M 0 0 
L -3.5 0 
" id="me03efa10fb" style="stroke:#000000;stroke-width:0.8;"/>
      </defs>
      <g>
       <use style="stroke:#000000;stroke-width:0.8;" x="57.6" xlink:href="#me03efa10fb" y="298.944"/>
      </g>
     </g>
     <g id="text_6">
      <!-- 0.0 -->
      <g transform="translate(25.155 305.02275)scale(0.16 -0.16)">
       <defs>
        <path d="M 10.6875 12.40625 
L 21 12.40625 
L 21 0 
L 10.6875 0 
z
" id="DejaVuSans-46"/>
       </defs>
       <use xlink:href="#DejaVuSans-48"/>
       <use x="63.623047" xlink:href="#DejaVuSans-46"/>
       <use x="95.410156" xlink:href="#DejaVuSans-48"/>
      </g>
     </g>
    </g>
    <g id="ytick_2">
     <g id="line2d_19">
      <path clip-path="url(#p47f9077f7f)" d="M 57.6 244.6848 
L 360.8064 244.6848 
" style="fill:none;stroke:#b0b0b0;stroke-linecap:square;stroke-width:0.8;"/>
     </g>
     <g id="line2d_20">
      <g>
       <use style="stroke:#000000;stroke-width:0.8;" x="57.6" xlink:href="#me03efa10fb" y="244.6848"/>
      </g>
     </g>
     <g id="text_7">
      <!-- 0.2 -->
      <g transform="translate(25.155 250.76355)scale(0.16 -0.16)">
       <use xlink:href="#DejaVuSans-48"/>
       <use x="63.623047" xlink:href="#DejaVuSans-46"/>
       <use x="95.410156" xlink:href="#DejaVuSans-50"/>
      </g>
     </g>
    </g>
    <g id="ytick_3">
     <g id="line2d_21">
      <path clip-path="url(#p47f9077f7f)" d="M 57.6 190.4256 
L 360.8064 190.4256 
" style="fill:none;stroke:#b0b0b0;stroke-linecap:square;stroke-width:0.8;"/>
     </g>
     <g id="line2d_22">
      <g>
       <use style="stroke:#000000;stroke-width:0.8;" x="57.6" xlink:href="#me03efa10fb" y="190.4256"/>
      </g>
     </g>
     <g id="text_8">
      <!-- 0.4 -->
      <g transform="translate(25.155 196.50435)scale(0.16 -0.16)">
       <use xlink:href="#DejaVuSans-48"/>
       <use x="63.623047" xlink:href="#DejaVuSans-46"/>
       <use x="95.410156" xlink:href="#DejaVuSans-52"/>
      </g>
     </g>
    </g>
    <g id="ytick_4">
     <g id="line2d_23">
      <path clip-path="url(#p47f9077f7f)" d="M 57.6 136.1664 
L 360.8064 136.1664 
" style="fill:none;stroke:#b0b0b0;stroke-linecap:square;stroke-width:0.8;"/>
     </g>
     <g id="line2d_24">
      <g>
       <use style="stroke:#000000;stroke-width:0.8;" x="57.6" xlink:href="#me03efa10fb" y="136.1664"/>
      </g>
     </g>
     <g id="text_9">
      <!-- 0.6 -->
      <g transform="translate(25.155 142.24515)scale(0.16 -0.16)">
       <use xlink:href="#DejaVuSans-48"/>
       <use x="63.623047" xlink:href="#DejaVuSans-46"/>
       <use x="95.410156" xlink:href="#DejaVuSans-54"/>
      </g>
     </g>
    </g>
    <g id="ytick_5">
     <g id="line2d_25">
      <path clip-path="url(#p47f9077f7f)" d="M 57.6 81.9072 
L 360.8064 81.9072 
" style="fill:none;stroke:#b0b0b0;stroke-linecap:square;stroke-width:0.8;"/>
     </g>
     <g id="line2d_26">
      <g>
       <use style="stroke:#000000;stroke-width:0.8;" x="57.6" xlink:href="#me03efa10fb" y="81.9072"/>
      </g>
     </g>
     <g id="text_10">
      <!-- 0.8 -->
      <g transform="translate(25.155 87.98595)scale(0.16 -0.16)">
       <defs>
        <path d="M 31.78125 34.625 
Q 24.75 34.625 20.71875 30.859375 
Q 16.703125 27.09375 16.703125 20.515625 
Q 16.703125 13.921875 20.71875 10.15625 
Q 24.75 6.390625 31.78125 6.390625 
Q 38.8125 6.390625 42.859375 10.171875 
Q 46.921875 13.96875 46.921875 20.515625 
Q 46.921875 27.09375 42.890625 30.859375 
Q 38.875 34.625 31.78125 34.625 
z
M 21.921875 38.8125 
Q 15.578125 40.375 12.03125 44.71875 
Q 8.5 49.078125 8.5 55.328125 
Q 8.5 64.0625 14.71875 69.140625 
Q 20.953125 74.21875 31.78125 74.21875 
Q 42.671875 74.21875 48.875 69.140625 
Q 55.078125 64.0625 55.078125 55.328125 
Q 55.078125 49.078125 51.53125 44.71875 
Q 48 40.375 41.703125 38.8125 
Q 48.828125 37.15625 52.796875 32.3125 
Q 56.78125 27.484375 56.78125 20.515625 
Q 56.78125 9.90625 50.3125 4.234375 
Q 43.84375 -1.421875 31.78125 -1.421875 
Q 19.734375 -1.421875 13.25 4.234375 
Q 6.78125 9.90625 6.78125 20.515625 
Q 6.78125 27.484375 10.78125 32.3125 
Q 14.796875 37.15625 21.921875 38.8125 
z
M 18.3125 54.390625 
Q 18.3125 48.734375 21.84375 45.5625 
Q 25.390625 42.390625 31.78125 42.390625 
Q 38.140625 42.390625 41.71875 45.5625 
Q 45.3125 48.734375 45.3125 54.390625 
Q 45.3125 60.0625 41.71875 63.234375 
Q 38.140625 66.40625 31.78125 66.40625 
Q 25.390625 66.40625 21.84375 63.234375 
Q 18.3125 60.0625 18.3125 54.390625 
z
" id="DejaVuSans-56"/>
       </defs>
       <use xlink:href="#DejaVuSans-48"/>
       <use x="63.623047" xlink:href="#DejaVuSans-46"/>
       <use x="95.410156" xlink:href="#DejaVuSans-56"/>
      </g>
     </g>
    </g>
    <g id="ytick_6">
     <g id="line2d_27">
      <path clip-path="url(#p47f9077f7f)" d="M 57.6 27.648 
L 360.8064 27.648 
" style="fill:none;stroke:#b0b0b0;stroke-linecap:square;stroke-width:0.8;"/>
     </g>
     <g id="line2d_28">
      <g>
       <use style="stroke:#000000;stroke-width:0.8;" x="57.6" xlink:href="#me03efa10fb" y="27.648"/>
      </g>
     </g>
     <g id="text_11">
      <!-- 1.0 -->
      <g transform="translate(25.155 33.72675)scale(0.16 -0.16)">
       <use xlink:href="#DejaVuSans-49"/>
       <use x="63.623047" xlink:href="#DejaVuSans-46"/>
       <use x="95.410156" xlink:href="#DejaVuSans-48"/>
      </g>
     </g>
    </g>
    <g id="text_12">
     <!-- Fraction of function,target pairs -->
     <g transform="translate(17.619531 297.681)rotate(-90)scale(0.17 -0.17)">
      <defs>
       <path d="M 9.8125 72.90625 
L 51.703125 72.90625 
L 51.703125 64.59375 
L 19.671875 64.59375 
L 19.671875 43.109375 
L 48.578125 43.109375 
L 48.578125 34.8125 
L 19.671875 34.8125 
L 19.671875 0 
L 9.8125 0 
z
" id="DejaVuSans-70"/>
       <path d="M 41.109375 46.296875 
Q 39.59375 47.171875 37.8125 47.578125 
Q 36.03125 48 33.890625 48 
Q 26.265625 48 22.1875 43.046875 
Q 18.109375 38.09375 18.109375 28.8125 
L 18.109375 0 
L 9.078125 0 
L 9.078125 54.6875 
L 18.109375 54.6875 
L 18.109375 46.1875 
Q 20.953125 51.171875 25.484375 53.578125 
Q 30.03125 56 36.53125 56 
Q 37.453125 56 38.578125 55.875 
Q 39.703125 55.765625 41.0625 55.515625 
z
" id="DejaVuSans-114"/>
       <path d="M 48.78125 52.59375 
L 48.78125 44.1875 
Q 44.96875 46.296875 41.140625 47.34375 
Q 37.3125 48.390625 33.40625 48.390625 
Q 24.65625 48.390625 19.8125 42.84375 
Q 14.984375 37.3125 14.984375 27.296875 
Q 14.984375 17.28125 19.8125 11.734375 
Q 24.65625 6.203125 33.40625 6.203125 
Q 37.3125 6.203125 41.140625 7.25 
Q 44.96875 8.296875 48.78125 10.40625 
L 48.78125 2.09375 
Q 45.015625 0.34375 40.984375 -0.53125 
Q 36.96875 -1.421875 32.421875 -1.421875 
Q 20.0625 -1.421875 12.78125 6.34375 
Q 5.515625 14.109375 5.515625 27.296875 
Q 5.515625 40.671875 12.859375 48.328125 
Q 20.21875 56 33.015625 56 
Q 37.15625 56 41.109375 55.140625 
Q 45.0625 54.296875 48.78125 52.59375 
z
" id="DejaVuSans-99"/>
       <path d="M 18.3125 70.21875 
L 18.3125 54.6875 
L 36.8125 54.6875 
L 36.8125 47.703125 
L 18.3125 47.703125 
L 18.3125 18.015625 
Q 18.3125 11.328125 20.140625 9.421875 
Q 21.96875 7.515625 27.59375 7.515625 
L 36.8125 7.515625 
L 36.8125 0 
L 27.59375 0 
Q 17.1875 0 13.234375 3.875 
Q 9.28125 7.765625 9.28125 18.015625 
L 9.28125 47.703125 
L 2.6875 47.703125 
L 2.6875 54.6875 
L 9.28125 54.6875 
L 9.28125 70.21875 
z
" id="DejaVuSans-116"/>
       <path d="M 37.109375 75.984375 
L 37.109375 68.5 
L 28.515625 68.5 
Q 23.6875 68.5 21.796875 66.546875 
Q 19.921875 64.59375 19.921875 59.515625 
L 19.921875 54.6875 
L 34.71875 54.6875 
L 34.71875 47.703125 
L 19.921875 47.703125 
L 19.921875 0 
L 10.890625 0 
L 10.890625 47.703125 
L 2.296875 47.703125 
L 2.296875 54.6875 
L 10.890625 54.6875 
L 10.890625 58.5 
Q 10.890625 67.625 15.140625 71.796875 
Q 19.390625 75.984375 28.609375 75.984375 
z
" id="DejaVuSans-102"/>
       <path d="M 8.5 21.578125 
L 8.5 54.6875 
L 17.484375 54.6875 
L 17.484375 21.921875 
Q 17.484375 14.15625 20.5 10.265625 
Q 23.53125 6.390625 29.59375 6.390625 
Q 36.859375 6.390625 41.078125 11.03125 
Q 45.3125 15.671875 45.3125 23.6875 
L 45.3125 54.6875 
L 54.296875 54.6875 
L 54.296875 0 
L 45.3125 0 
L 45.3125 8.40625 
Q 42.046875 3.421875 37.71875 1 
Q 33.40625 -1.421875 27.6875 -1.421875 
Q 18.265625 -1.421875 13.375 4.4375 
Q 8.5 10.296875 8.5 21.578125 
z
M 31.109375 56 
z
" id="DejaVuSans-117"/>
       <path d="M 11.71875 12.40625 
L 22.015625 12.40625 
L 22.015625 4 
L 14.015625 -11.625 
L 7.71875 -11.625 
L 11.71875 4 
z
" id="DejaVuSans-44"/>
       <path d="M 18.109375 8.203125 
L 18.109375 -20.796875 
L 9.078125 -20.796875 
L 9.078125 54.6875 
L 18.109375 54.6875 
L 18.109375 46.390625 
Q 20.953125 51.265625 25.265625 53.625 
Q 29.59375 56 35.59375 56 
Q 45.5625 56 51.78125 48.09375 
Q 58.015625 40.1875 58.015625 27.296875 
Q 58.015625 14.40625 51.78125 6.484375 
Q 45.5625 -1.421875 35.59375 -1.421875 
Q 29.59375 -1.421875 25.265625 0.953125 
Q 20.953125 3.328125 18.109375 8.203125 
z
M 48.6875 27.296875 
Q 48.6875 37.203125 44.609375 42.84375 
Q 40.53125 48.484375 33.40625 48.484375 
Q 26.265625 48.484375 22.1875 42.84375 
Q 18.109375 37.203125 18.109375 27.296875 
Q 18.109375 17.390625 22.1875 11.75 
Q 26.265625 6.109375 33.40625 6.109375 
Q 40.53125 6.109375 44.609375 11.75 
Q 48.6875 17.390625 48.6875 27.296875 
z
" id="DejaVuSans-112"/>
      </defs>
      <use xlink:href="#DejaVuSans-70"/>
      <use x="50.269531" xlink:href="#DejaVuSans-114"/>
      <use x="91.382812" xlink:href="#DejaVuSans-97"/>
      <use x="152.662109" xlink:href="#DejaVuSans-99"/>
      <use x="207.642578" xlink:href="#DejaVuSans-116"/>
      <use x="246.851562" xlink:href="#DejaVuSans-105"/>
      <use x="274.634766" xlink:href="#DejaVuSans-111"/>
      <use x="335.816406" xlink:href="#DejaVuSans-110"/>
      <use x="399.195312" xlink:href="#DejaVuSans-32"/>
      <use x="430.982422" xlink:href="#DejaVuSans-111"/>
      <use x="492.164062" xlink:href="#DejaVuSans-102"/>
      <use x="527.369141" xlink:href="#DejaVuSans-32"/>
      <use x="559.15625" xlink:href="#DejaVuSans-102"/>
      <use x="594.361328" xlink:href="#DejaVuSans-117"/>
      <use x="657.740234" xlink:href="#DejaVuSans-110"/>
      <use x="721.119141" xlink:href="#DejaVuSans-99"/>
      <use x="776.099609" xlink:href="#DejaVuSans-116"/>
      <use x="815.308594" xlink:href="#DejaVuSans-105"/>
      <use x="843.091797" xlink:href="#DejaVuSans-111"/>
      <use x="904.273438" xlink:href="#DejaVuSans-110"/>
      <use x="967.652344" xlink:href="#DejaVuSans-44"/>
      <use x="999.439453" xlink:href="#DejaVuSans-116"/>
      <use x="1038.648438" xlink:href="#DejaVuSans-97"/>
      <use x="1099.927734" xlink:href="#DejaVuSans-114"/>
      <use x="1139.291016" xlink:href="#DejaVuSans-103"/>
      <use x="1202.767578" xlink:href="#DejaVuSans-101"/>
      <use x="1264.291016" xlink:href="#DejaVuSans-116"/>
      <use x="1303.5" xlink:href="#DejaVuSans-32"/>
      <use x="1335.287109" xlink:href="#DejaVuSans-112"/>
      <use x="1398.763672" xlink:href="#DejaVuSans-97"/>
      <use x="1460.042969" xlink:href="#DejaVuSans-105"/>
      <use x="1487.826172" xlink:href="#DejaVuSans-114"/>
      <use x="1528.939453" xlink:href="#DejaVuSans-115"/>
     </g>
    </g>
   </g>
   <g id="line2d_29">
    <defs>
     <path d="M 0 1.5 
C 0.397805 1.5 0.77937 1.341951 1.06066 1.06066 
C 1.341951 0.77937 1.5 0.397805 1.5 0 
C 1.5 -0.397805 1.341951 -0.77937 1.06066 -1.06066 
C 0.77937 -1.341951 0.397805 -1.5 0 -1.5 
C -0.397805 -1.5 -0.77937 -1.341951 -1.06066 -1.06066 
C -1.341951 -0.77937 -1.5 -0.397805 -1.5 0 
C -1.5 0.397805 -1.341951 0.77937 -1.06066 1.06066 
C -0.77937 1.341951 -0.397805 1.5 0 1.5 
z
" id="m073d5c13dd" style="stroke:#000080;"/>
    </defs>
    <g>
     <use style="fill:#000080;stroke:#000080;" x="174.355328" xlink:href="#m073d5c13dd" y="27.648"/>
     <use style="fill:#000080;stroke:#000080;" x="174.355328" xlink:href="#m073d5c13dd" y="27.648"/>
    </g>
   </g>
   <g id="line2d_30">
    <path d="M 83.678349 298.944 
L 83.678349 297.620605 
L 86.578163 297.620605 
L 86.578163 291.003629 
L 93.287772 291.003629 
L 93.287772 283.50439 
L 96.717523 283.50439 
L 96.717523 281.739863 
L 98.223251 281.739863 
L 98.223251 269.388176 
L 100.9152 269.388176 
L 100.9152 266.300254 
L 102.12927 266.300254 
L 102.12927 261.888937 
L 103.269713 261.888937 
L 103.269713 260.565541 
L 104.344952 260.565541 
L 104.344952 255.713093 
L 105.36204 255.713093 
L 105.36204 255.271961 
L 106.326946 255.271961 
L 106.326946 250.860644 
L 107.244765 250.860644 
L 107.244765 244.243668 
L 108.956085 244.243668 
L 108.956085 236.303298 
L 109.756698 236.303298 
L 109.756698 231.89198 
L 110.524623 231.89198 
L 110.524623 226.5984 
L 111.262425 226.5984 
L 111.262425 223.510478 
L 111.97238 223.510478 
L 111.97238 219.981424 
L 112.656511 219.981424 
L 112.656511 214.687844 
L 113.316634 214.687844 
L 113.316634 214.246712 
L 113.954374 214.246712 
L 113.954374 211.599922 
L 114.571202 211.599922 
L 114.571202 200.571629 
L 115.168444 200.571629 
L 115.168444 194.836917 
L 115.747307 194.836917 
L 115.747307 193.07239 
L 116.308887 193.07239 
L 116.308887 191.307863 
L 116.854188 191.307863 
L 116.854188 188.661073 
L 117.384126 188.661073 
L 117.384126 188.219941 
L 117.899543 188.219941 
L 117.899543 181.602966 
L 118.401214 181.602966 
L 118.401214 177.63278 
L 118.889854 177.63278 
L 118.889854 170.574673 
L 119.366121 170.574673 
L 119.366121 163.957698 
L 119.830627 163.957698 
L 119.830627 163.075434 
L 120.28394 163.075434 
L 120.28394 160.869776 
L 120.726585 160.869776 
L 120.726585 152.047141 
L 121.159053 152.047141 
L 121.159053 148.95922 
L 121.581803 148.95922 
L 121.581803 144.106771 
L 121.99526 144.106771 
L 121.99526 142.342244 
L 122.399825 142.342244 
L 122.399825 140.577717 
L 122.795872 140.577717 
L 122.795872 140.136585 
L 123.183753 140.136585 
L 123.183753 137.048663 
L 123.563797 137.048663 
L 123.563797 136.1664 
L 123.936316 136.1664 
L 123.936316 130.431688 
L 124.3016 130.431688 
L 124.3016 125.138107 
L 125.011554 125.138107 
L 125.011554 124.255844 
L 125.35673 124.255844 
L 125.35673 122.491317 
L 125.695686 122.491317 
L 125.695686 119.844527 
L 126.028642 119.844527 
L 126.028642 119.403395 
L 126.677381 119.403395 
L 126.677381 118.521132 
L 127.304491 118.521132 
L 127.304491 115.874341 
L 127.610376 115.874341 
L 127.610376 112.78642 
L 128.207619 112.78642 
L 128.207619 109.257366 
L 128.499277 109.257366 
L 128.499277 108.816234 
L 129.069367 108.816234 
L 129.069367 107.933971 
L 129.622688 107.933971 
L 129.622688 107.051707 
L 129.893363 107.051707 
L 129.893363 104.846049 
L 130.160198 104.846049 
L 130.160198 104.404917 
L 132.168669 104.404917 
L 132.168669 103.963785 
L 133.765759 103.963785 
L 133.765759 103.522654 
L 133.983236 103.522654 
L 133.983236 103.081522 
L 135.638065 103.081522 
L 135.638065 102.64039 
L 136.413909 102.64039 
L 136.413909 102.199259 
L 136.790153 102.199259 
L 136.790153 101.758127 
L 136.97549 101.758127 
L 136.97549 100.875863 
L 138.395904 100.875863 
L 138.395904 100.434732 
L 138.566146 100.434732 
L 138.566146 99.9936 
L 138.73486 99.9936 
L 138.73486 98.670205 
L 139.232111 98.670205 
L 139.232111 98.229073 
L 139.716555 98.229073 
L 139.716555 97.34681 
L 140.950542 97.34681 
L 140.950542 96.905678 
L 141.099251 96.905678 
L 141.099251 96.023415 
L 141.246793 96.023415 
L 141.246793 94.258888 
L 142.108542 94.258888 
L 142.108542 92.935493 
L 142.525051 92.935493 
L 142.525051 92.494361 
L 143.52768 92.494361 
L 143.52768 91.612098 
L 143.657415 91.612098 
L 143.657415 89.406439 
L 144.16759 89.406439 
L 144.16759 88.965307 
L 144.293001 88.965307 
L 144.293001 87.20078 
L 144.541342 87.20078 
L 144.541342 86.318517 
L 144.664294 86.318517 
L 144.664294 84.55399 
L 144.786447 84.55399 
L 144.847227 77.495883 
L 145.503164 77.495883 
L 145.503164 74.407961 
L 145.620007 74.407961 
L 145.620007 73.084566 
L 146.193574 73.084566 
L 146.24998 71.761171 
L 146.64016 71.761171 
L 146.64016 62.056273 
L 147.183884 62.056273 
L 147.290768 60.732878 
L 147.397049 60.732878 
L 147.397049 59.409483 
L 147.607824 59.409483 
L 147.607824 58.968351 
L 147.816265 58.968351 
L 147.816265 57.644956 
L 148.124658 57.644956 
L 148.226342 52.792507 
L 148.377845 52.792507 
L 148.377845 52.351376 
L 148.825169 52.351376 
L 148.825169 51.910244 
L 149.020615 51.910244 
L 149.020615 50.586849 
L 149.214052 50.586849 
L 149.214052 49.263454 
L 149.689117 49.263454 
L 149.689117 48.822322 
L 150.243797 48.822322 
L 150.243797 48.38119 
L 150.604701 48.38119 
L 150.604701 47.940059 
L 150.914911 47.940059 
L 150.914911 47.498927 
L 151.647641 47.498927 
L 151.731998 41.764215 
L 151.815978 41.764215 
L 151.815978 39.999688 
L 153.344252 39.999688 
L 153.344252 39.558556 
L 153.650761 39.558556 
L 153.650761 39.117424 
L 154.685842 39.117424 
L 154.685842 38.676293 
L 155.391799 38.676293 
L 155.391799 38.235161 
L 155.836861 38.235161 
L 155.836861 37.794029 
L 156.271636 37.794029 
L 156.271636 37.352898 
L 157.487772 37.352898 
L 157.487772 36.911766 
L 158.007377 36.911766 
L 158.007377 36.470634 
L 158.217229 36.470634 
L 158.217229 36.029502 
L 159.568678 36.029502 
L 159.568678 35.588371 
L 160.276577 35.588371 
L 160.276577 35.147239 
L 160.855439 35.147239 
L 160.855439 34.706107 
L 161.467251 34.706107 
L 161.467251 34.264976 
L 162.108336 34.264976 
L 162.108336 33.823844 
L 163.997986 33.823844 
L 163.997986 33.382712 
L 165.146166 33.382712 
L 165.146166 32.94158 
L 165.674958 32.94158 
L 165.674958 32.500449 
L 166.111072 32.500449 
L 166.111072 32.059317 
L 166.537305 32.059317 
L 166.537305 31.618185 
L 168.045979 31.618185 
L 168.045979 31.177054 
L 169.508137 31.177054 
L 169.508137 30.735922 
L 171.166753 30.735922 
L 171.166753 30.29479 
L 172.04459 30.29479 
L 172.04459 29.853659 
L 172.607852 29.853659 
L 172.607852 29.412527 
L 173.046626 29.412527 
L 173.046626 28.971395 
L 173.475398 28.971395 
L 173.475398 28.530263 
L 174.075124 28.530263 
L 174.075124 28.089132 
L 174.355328 28.089132 
L 174.355328 27.648 
L 360.8064 27.648 
L 360.8064 27.648 
" style="fill:none;stroke:#000080;stroke-linecap:square;stroke-width:1.5;"/>
   </g>
   <g id="line2d_31">
    <defs>
     <path d="M 0 6 
C 1.591219 6 3.117479 5.367802 4.242641 4.242641 
C 5.367802 3.117479 6 1.591219 6 0 
C 6 -1.591219 5.367802 -3.117479 4.242641 -4.242641 
C 3.117479 -5.367802 1.591219 -6 0 -6 
C -1.591219 -6 -3.117479 -5.367802 -4.242641 -4.242641 
C -5.367802 -3.117479 -6 -1.591219 -6 0 
C -6 1.591219 -5.367802 3.117479 -4.242641 4.242641 
C -3.117479 5.367802 -1.591219 6 0 6 
z
" id="mf4963a7f6e" style="stroke:#000080;stroke-width:1.5;"/>
    </defs>
    <g>
     <use style="fill-opacity:0;stroke:#000080;stroke-width:1.5;" x="121.159053" xlink:href="#mf4963a7f6e" y="152.047141"/>
     <use style="fill-opacity:0;stroke:#000080;stroke-width:1.5;" x="173.475398" xlink:href="#mf4963a7f6e" y="28.971395"/>
     <use style="fill-opacity:0;stroke:#000080;stroke-width:1.5;" x="174.355328" xlink:href="#mf4963a7f6e" y="27.648"/>
     <use style="fill-opacity:0;stroke:#000080;stroke-width:1.5;" x="174.355328" xlink:href="#mf4963a7f6e" y="27.648"/>
     <use style="fill-opacity:0;stroke:#000080;stroke-width:1.5;" x="360.8064" xlink:href="#mf4963a7f6e" y="27.648"/>
    </g>
   </g>
   <g id="line2d_32">
    <path style="fill:none;stroke:#000080;stroke-linecap:square;stroke-width:1.5;"/>
    <g/>
   </g>
   <g id="line2d_33">
    <defs>
     <path d="M 0 1.5 
C 0.397805 1.5 0.77937 1.341951 1.06066 1.06066 
C 1.341951 0.77937 1.5 0.397805 1.5 0 
C 1.5 -0.397805 1.341951 -0.77937 1.06066 -1.06066 
C 0.77937 -1.341951 0.397805 -1.5 0 -1.5 
C -0.397805 -1.5 -0.77937 -1.341951 -1.06066 -1.06066 
C -1.341951 -0.77937 -1.5 -0.397805 -1.5 0 
C -1.5 0.397805 -1.341951 0.77937 -1.06066 1.06066 
C -0.77937 1.341951 -0.397805 1.5 0 1.5 
z
" id="m7d09f846fd" style="stroke:#ff00ff;"/>
    </defs>
    <g>
     <use style="fill:#ff00ff;stroke:#ff00ff;" x="221.938868" xlink:href="#m7d09f846fd" y="27.648"/>
     <use style="fill:#ff00ff;stroke:#ff00ff;" x="221.938868" xlink:href="#m7d09f846fd" y="27.648"/>
    </g>
   </g>
   <g id="line2d_34">
    <path d="M 103.269713 298.944 
L 103.269713 297.179473 
L 108.119879 297.179473 
L 108.119879 296.738341 
L 110.524623 296.738341 
L 110.524623 290.121366 
L 111.262425 290.121366 
L 111.262425 289.680234 
L 111.97238 289.680234 
L 111.97238 288.356839 
L 115.747307 288.356839 
L 115.747307 273.799493 
L 116.854188 273.799493 
L 116.854188 273.358361 
L 117.384126 273.358361 
L 117.384126 272.917229 
L 117.899543 272.917229 
L 117.899543 266.300254 
L 119.366121 266.300254 
L 119.366121 265.41799 
L 119.830627 265.41799 
L 119.830627 253.948566 
L 121.581803 253.948566 
L 121.581803 253.066302 
L 121.99526 253.066302 
L 121.99526 248.213854 
L 122.795872 248.213854 
L 122.795872 246.890459 
L 125.011554 246.890459 
L 125.011554 246.008195 
L 125.35673 246.008195 
L 125.35673 245.125932 
L 126.028642 245.125932 
L 126.028642 243.361405 
L 126.355808 243.361405 
L 126.355808 242.03801 
L 126.677381 242.03801 
L 126.677381 238.508956 
L 127.304491 238.508956 
L 127.304491 236.303298 
L 127.911368 236.303298 
L 127.911368 235.421034 
L 128.499277 235.421034 
L 128.499277 230.568585 
L 129.348062 230.568585 
L 129.348062 229.24519 
L 129.622688 229.24519 
L 129.622688 228.804059 
L 129.893363 228.804059 
L 129.893363 228.362927 
L 130.160198 228.362927 
L 130.160198 227.480663 
L 130.4233 227.480663 
L 130.4233 227.039532 
L 133.097823 227.039532 
L 133.097823 226.5984 
L 133.545739 226.5984 
L 133.545739 223.95161 
L 133.983236 223.95161 
L 133.983236 223.069346 
L 134.198228 223.069346 
L 134.198228 222.187083 
L 134.620977 222.187083 
L 134.620977 221.30482 
L 134.828842 221.30482 
L 134.828842 220.863688 
L 135.835047 220.863688 
L 135.835047 219.981424 
L 136.602972 219.981424 
L 136.602972 219.540293 
L 136.790153 219.540293 
L 136.790153 219.099161 
L 137.159019 219.099161 
L 137.159019 218.658029 
L 137.520791 218.658029 
L 137.520791 217.334634 
L 138.902075 217.334634 
L 138.902075 216.452371 
L 139.067817 216.452371 
L 139.067817 215.128976 
L 139.232111 215.128976 
L 139.232111 214.246712 
L 140.032723 214.246712 
L 140.032723 213.80558 
L 140.343665 213.80558 
L 140.343665 212.041054 
L 140.49723 212.041054 
L 140.49723 211.15879 
L 140.649551 211.15879 
L 140.649551 210.276527 
L 140.800648 210.276527 
L 140.800648 209.835395 
L 141.099251 209.835395 
L 141.099251 209.394263 
L 141.538451 209.394263 
L 141.538451 208.953132 
L 141.825656 208.953132 
L 141.825656 208.512 
L 141.96763 208.512 
L 141.96763 208.070868 
L 142.108542 208.070868 
L 142.108542 207.629737 
L 142.387236 207.629737 
L 142.387236 207.188605 
L 142.525051 207.188605 
L 142.525051 206.306341 
L 142.932537 206.306341 
L 142.932537 204.982946 
L 143.066428 204.982946 
L 143.066428 202.777288 
L 143.592659 202.777288 
L 143.592659 201.895024 
L 144.10457 201.895024 
L 144.10457 197.483707 
L 144.2304 197.483707 
L 144.2304 197.042576 
L 144.355394 197.042576 
L 144.355394 196.601444 
L 144.602918 196.601444 
L 144.602918 196.160312 
L 144.725469 196.160312 
L 144.725469 195.278049 
L 145.326529 195.278049 
L 145.326529 193.954654 
L 145.561676 193.954654 
L 145.561676 192.631259 
L 146.584913 192.631259 
L 146.695245 191.307863 
L 147.343984 191.307863 
L 147.343984 189.543337 
L 147.660152 189.543337 
L 147.764371 181.161834 
L 148.073609 181.161834 
L 148.175569 179.397307 
L 148.276979 179.397307 
L 148.377845 178.515044 
L 148.57797 178.515044 
L 148.67724 174.544859 
L 148.775988 174.544859 
L 148.775988 173.221463 
L 149.262102 173.221463 
L 149.262102 172.3392 
L 149.642146 172.3392 
L 149.642146 171.898068 
L 150.198193 171.898068 
L 150.198193 171.015805 
L 150.649331 171.015805 
L 150.738275 168.810146 
L 151.176793 168.810146 
L 151.263283 167.486751 
L 151.60532 167.486751 
L 151.60532 167.04562 
L 151.774035 167.04562 
L 151.857828 164.398829 
L 152.515067 164.398829 
L 152.595631 162.634302 
L 152.914478 162.634302 
L 152.914478 162.193171 
L 153.228011 162.193171 
L 153.228011 160.869776 
L 154.432362 160.869776 
L 154.505134 159.105249 
L 154.577625 159.105249 
L 154.577625 158.664117 
L 154.721776 158.664117 
L 154.793439 152.929405 
L 155.006805 152.929405 
L 155.006805 152.047141 
L 155.28758 152.047141 
L 155.28758 151.60601 
L 155.564225 151.60601 
L 155.632755 150.723746 
L 156.038776 150.723746 
L 156.038776 150.282615 
L 156.304668 150.282615 
L 156.370558 148.076956 
L 156.566854 148.076956 
L 156.566854 146.753561 
L 156.88953 146.753561 
L 156.953406 144.989034 
L 157.206765 144.989034 
L 157.300901 143.665639 
L 157.394569 143.665639 
L 157.394569 142.783376 
L 157.580516 142.783376 
L 157.580516 141.901112 
L 157.703468 141.901112 
L 157.703468 141.018849 
L 157.825621 141.018849 
L 157.886402 138.81319 
L 157.946987 138.81319 
L 157.946987 137.048663 
L 158.187393 137.048663 
L 158.247018 135.284137 
L 158.542339 135.284137 
L 158.600851 132.196215 
L 158.659181 132.196215 
L 158.717331 131.313951 
L 158.775302 131.313951 
L 158.833095 129.549424 
L 159.176172 129.549424 
L 159.176172 128.667161 
L 159.289155 128.667161 
L 159.289155 128.226029 
L 159.679334 128.226029 
L 159.789344 127.343766 
L 159.953161 127.343766 
L 159.953161 126.902634 
L 160.489139 126.902634 
L 160.489139 126.461502 
L 160.907191 126.461502 
L 160.907191 125.579239 
L 161.061595 125.579239 
L 161.112783 123.37358 
L 161.316153 123.37358 
L 161.316153 122.932449 
L 161.517348 122.932449 
L 161.517348 122.491317 
L 161.96232 122.491317 
L 161.96232 122.050185 
L 162.492258 122.050185 
L 162.492258 121.609054 
L 162.868502 121.609054 
L 162.868502 120.72679 
L 163.053839 120.72679 
L 163.053839 119.403395 
L 163.373849 119.403395 
L 163.373849 118.962263 
L 163.554297 118.962263 
L 163.554297 118.521132 
L 164.474253 118.521132 
L 164.474253 117.638868 
L 164.644495 117.638868 
L 164.644495 116.315473 
L 165.473332 116.315473 
L 165.51383 113.227551 
L 165.634805 113.227551 
L 165.674958 111.021893 
L 165.755007 111.021893 
L 165.834717 110.139629 
L 166.071841 110.139629 
L 166.150222 108.375102 
L 166.306012 108.375102 
L 166.344759 106.610576 
L 166.460523 106.610576 
L 166.537305 105.728312 
L 166.575579 105.728312 
L 166.651893 103.522654 
L 167.251516 103.522654 
L 167.251516 102.199259 
L 167.398482 102.199259 
L 167.398482 101.758127 
L 167.6168 101.758127 
L 167.6168 100.875863 
L 167.904005 100.875863 
L 167.904005 99.9936 
L 168.116567 99.9936 
L 168.116567 99.552468 
L 168.256952 99.552468 
L 168.291886 98.229073 
L 168.430973 98.229073 
L 168.430973 97.787941 
L 168.808246 97.787941 
L 168.808246 97.34681 
L 169.606029 97.34681 
L 169.606029 96.905678 
L 169.800298 96.905678 
L 169.896685 91.612098 
L 170.024438 91.612098 
L 170.119687 85.877385 
L 170.402572 85.877385 
L 170.449309 84.995122 
L 170.650504 84.995122 
L 170.650504 84.112859 
L 170.773255 84.112859 
L 170.773255 82.789463 
L 170.940741 82.789463 
L 170.940741 82.348332 
L 171.136775 82.348332 
L 171.136775 81.9072 
L 171.286192 81.9072 
L 171.286192 81.024937 
L 172.46861 81.024937 
L 172.46861 80.583805 
L 172.635578 80.583805 
L 172.635578 79.701541 
L 172.85592 79.701541 
L 172.85592 79.26041 
L 173.342453 79.26041 
L 173.342453 78.378146 
L 175.220095 78.378146 
L 175.316441 76.172488 
L 175.743995 76.172488 
L 175.814319 74.849093 
L 175.907676 74.849093 
L 175.977392 73.966829 
L 176.322146 73.966829 
L 176.322146 73.084566 
L 176.458298 73.084566 
L 176.458298 72.643434 
L 176.660695 72.643434 
L 176.68305 70.437776 
L 177.577449 70.437776 
L 177.577449 69.996644 
L 177.72599 69.996644 
L 177.72599 69.555512 
L 178.144042 69.555512 
L 178.144042 69.11438 
L 178.532766 69.11438 
L 178.613589 67.349854 
L 178.893767 67.349854 
L 178.973057 66.46759 
L 179.052014 66.46759 
L 179.130641 65.585327 
L 181.032039 65.585327 
L 181.032039 65.144195 
L 182.448907 65.144195 
L 182.448907 64.703063 
L 182.903785 64.703063 
L 182.903785 63.8208 
L 183.095416 63.8208 
L 183.095416 63.379668 
L 185.674752 63.379668 
L 185.73008 62.497405 
L 185.812768 62.497405 
L 185.812768 62.056273 
L 187.961102 62.056273 
L 188.010106 60.291746 
L 188.265306 60.291746 
L 188.349609 58.968351 
L 188.409595 58.968351 
L 188.409595 58.52722 
L 188.588413 58.52722 
L 188.588413 57.644956 
L 189.11489 57.644956 
L 189.11489 57.203824 
L 189.287158 57.203824 
L 189.389767 54.115902 
L 189.446531 54.115902 
L 189.446531 53.674771 
L 189.694277 53.674771 
L 189.783564 51.02798 
L 189.805819 51.02798 
L 189.839153 48.822322 
L 189.971902 48.822322 
L 190.081815 47.940059 
L 190.103721 47.940059 
L 190.103721 47.498927 
L 190.278055 47.498927 
L 190.278055 47.057795 
L 190.418521 47.057795 
L 190.418521 46.616663 
L 190.547257 46.616663 
L 190.632595 44.852137 
L 190.865296 44.852137 
L 190.928264 43.08761 
L 191.250281 43.08761 
L 191.342746 42.205346 
L 191.667879 42.205346 
L 191.667879 41.764215 
L 192.829938 41.764215 
L 192.829938 41.323083 
L 192.952643 41.323083 
L 192.952643 40.881951 
L 193.139871 40.881951 
L 193.195678 39.999688 
L 193.316027 39.999688 
L 193.316027 39.558556 
L 193.735803 39.558556 
L 193.843786 38.235161 
L 195.680309 38.235161 
L 195.680309 37.794029 
L 195.922885 37.794029 
L 195.930918 36.029502 
L 196.616914 36.029502 
L 196.616914 35.588371 
L 196.778817 35.588371 
L 196.817161 34.706107 
L 199.702194 34.706107 
L 199.774345 33.382712 
L 201.586015 33.382712 
L 201.692731 32.500449 
L 201.739966 32.500449 
L 201.769428 31.618185 
L 202.177125 31.618185 
L 202.200157 30.735922 
L 203.457695 30.735922 
L 203.457695 30.29479 
L 203.972676 30.29479 
L 203.988381 29.412527 
L 205.090926 29.412527 
L 205.090926 28.971395 
L 209.4439 28.971395 
L 209.4439 28.530263 
L 209.599868 28.530263 
L 209.599868 28.089132 
L 221.938868 28.089132 
L 221.938868 27.648 
L 360.8064 27.648 
L 360.8064 27.648 
" style="fill:none;stroke:#ff00ff;stroke-linecap:square;stroke-width:1.5;"/>
   </g>
   <g id="line2d_35">
    <defs>
     <path d="M -0 8.485281 
L 5.091169 0 
L 0 -8.485281 
L -5.091169 -0 
z
" id="m94d56c2313" style="stroke:#ff00ff;stroke-linejoin:miter;stroke-width:1.5;"/>
    </defs>
    <g>
     <use style="fill-opacity:0;stroke:#ff00ff;stroke-linejoin:miter;stroke-width:1.5;" x="125.35673" xlink:href="#m94d56c2313" y="246.008195"/>
     <use style="fill-opacity:0;stroke:#ff00ff;stroke-linejoin:miter;stroke-width:1.5;" x="167.398482" xlink:href="#m94d56c2313" y="101.758127"/>
     <use style="fill-opacity:0;stroke:#ff00ff;stroke-linejoin:miter;stroke-width:1.5;" x="221.938868" xlink:href="#m94d56c2313" y="28.089132"/>
     <use style="fill-opacity:0;stroke:#ff00ff;stroke-linejoin:miter;stroke-width:1.5;" x="221.938868" xlink:href="#m94d56c2313" y="27.648"/>
     <use style="fill-opacity:0;stroke:#ff00ff;stroke-linejoin:miter;stroke-width:1.5;" x="360.8064" xlink:href="#m94d56c2313" y="27.648"/>
    </g>
   </g>
   <g id="line2d_36">
    <path style="fill:none;stroke:#ff00ff;stroke-linecap:square;stroke-width:1.5;"/>
    <g/>
   </g>
   <g id="line2d_37">
    <path clip-path="url(#p47f9077f7f)" d="M 187.551869 62.056273 
" style="fill:none;stroke:#ff00ff;stroke-linecap:square;stroke-width:1.5;"/>
    <defs>
     <path d="M -12 12 
L 12 -12 
M -12 -12 
L 12 12 
" id="m9321dcef64" style="stroke:#ff00ff;"/>
    </defs>
    <g clip-path="url(#p47f9077f7f)">
     <use style="fill:#ff00ff;stroke:#ff00ff;" x="187.551869" xlink:href="#m9321dcef64" y="62.056273"/>
    </g>
   </g>
   <g id="line2d_38">
    <defs>
     <path d="M 0 1.5 
C 0.397805 1.5 0.77937 1.341951 1.06066 1.06066 
C 1.341951 0.77937 1.5 0.397805 1.5 0 
C 1.5 -0.397805 1.341951 -0.77937 1.06066 -1.06066 
C 0.77937 -1.341951 0.397805 -1.5 0 -1.5 
C -0.397805 -1.5 -0.77937 -1.341951 -1.06066 -1.06066 
C -1.341951 -0.77937 -1.5 -0.397805 -1.5 0 
C -1.5 0.397805 -1.341951 0.77937 -1.06066 1.06066 
C -0.77937 1.341951 -0.397805 1.5 0 1.5 
z
" id="mfdf99f0a55" style="stroke:#ff7500;"/>
    </defs>
    <g>
     <use style="fill:#ff7500;stroke:#ff7500;" x="206.295123" xlink:href="#mfdf99f0a55" y="27.648"/>
     <use style="fill:#ff7500;stroke:#ff7500;" x="206.295123" xlink:href="#mfdf99f0a55" y="27.648"/>
    </g>
   </g>
   <g id="line2d_39">
    <path d="M 87.876026 298.944 
L 87.876026 298.502868 
L 96.717523 298.502868 
L 96.717523 297.179473 
L 99.617337 297.179473 
L 99.617337 296.738341 
L 101.532027 296.738341 
L 101.532027 294.532683 
L 103.815014 294.532683 
L 103.815014 293.209288 
L 108.119879 293.209288 
L 108.119879 291.885893 
L 110.897141 291.885893 
L 110.897141 291.444761 
L 111.620752 291.444761 
L 111.620752 289.239102 
L 113.316634 289.239102 
L 113.316634 287.915707 
L 113.954374 287.915707 
L 113.954374 287.033444 
L 114.571202 287.033444 
L 114.571202 285.710049 
L 116.583514 285.710049 
L 116.583514 281.298732 
L 117.121023 281.298732 
L 117.121023 279.093073 
L 118.889854 279.093073 
L 118.889854 276.446283 
L 119.366121 276.446283 
L 119.366121 275.56402 
L 120.944062 275.56402 
L 120.944062 272.034966 
L 122.795872 272.034966 
L 122.795872 270.711571 
L 123.183753 270.711571 
L 123.183753 268.947044 
L 123.563797 268.947044 
L 123.563797 266.741385 
L 124.836562 266.741385 
L 124.836562 252.625171 
L 125.184934 252.625171 
L 125.184934 251.301776 
L 126.355808 251.301776 
L 126.355808 246.008195 
L 126.993549 246.008195 
L 126.993549 245.567063 
L 129.758512 245.567063 
L 129.758512 243.361405 
L 130.938718 243.361405 
L 130.938718 241.155746 
L 131.563744 241.155746 
L 131.563744 239.832351 
L 132.287354 239.832351 
L 132.287354 238.950088 
L 132.869802 238.950088 
L 132.869802 238.508956 
L 134.091039 238.508956 
L 134.091039 237.626693 
L 134.304809 237.626693 
L 134.304809 237.185561 
L 134.725196 237.185561 
L 134.725196 235.421034 
L 135.034434 235.421034 
L 135.034434 234.538771 
L 135.932769 234.538771 
L 135.932769 233.215376 
L 136.126705 233.215376 
L 136.126705 232.333112 
L 136.508678 232.333112 
L 136.508678 231.450849 
L 137.159019 231.450849 
L 137.159019 230.568585 
L 137.340774 230.568585 
L 137.340774 225.716137 
L 137.787626 225.716137 
L 137.787626 223.069346 
L 138.137618 223.069346 
L 138.137618 220.422556 
L 138.566146 220.422556 
L 138.566146 217.334634 
L 138.902075 217.334634 
L 138.902075 214.687844 
L 139.636676 214.687844 
L 139.636676 206.747473 
L 139.796097 206.747473 
L 139.796097 205.86521 
L 140.032723 205.86521 
L 140.032723 205.424078 
L 140.343665 205.424078 
L 140.343665 204.982946 
L 140.649551 204.982946 
L 140.725251 200.130498 
L 141.393187 200.130498 
L 141.393187 198.807102 
L 143.977892 198.807102 
L 143.977892 197.483707 
L 144.664294 197.483707 
L 144.664294 196.601444 
L 145.207843 196.601444 
L 145.207843 194.395785 
L 145.620007 194.395785 
L 145.620007 193.513522 
L 145.851536 193.513522 
L 145.851536 191.748995 
L 146.023332 191.748995 
L 146.023332 185.13202 
L 146.24998 185.13202 
L 146.24998 184.690888 
L 146.362288 184.690888 
L 146.362288 182.485229 
L 146.64016 182.485229 
L 146.64016 182.044098 
L 147.712333 182.044098 
L 147.712333 181.602966 
L 147.919625 181.602966 
L 147.919625 181.161834 
L 148.124658 181.161834 
L 148.175569 174.103727 
L 148.478174 174.103727 
L 148.57797 171.015805 
L 148.627671 171.015805 
L 148.627671 168.810146 
L 149.020615 168.810146 
L 149.117582 163.957698 
L 149.214052 163.957698 
L 149.214052 162.634302 
L 149.875833 162.634302 
L 149.875833 160.428644 
L 150.014665 160.428644 
L 150.014665 159.987512 
L 151.306379 159.987512 
L 151.306379 158.664117 
L 151.562904 158.664117 
L 151.562904 157.781854 
L 151.689867 157.781854 
L 151.689867 156.458459 
L 151.94125 156.458459 
L 151.982822 148.95922 
L 152.065693 148.95922 
L 152.065693 144.547902 
L 152.312136 144.547902 
L 152.352898 142.342244 
L 152.874916 142.342244 
L 152.874916 141.45998 
L 153.111048 141.45998 
L 153.111048 141.018849 
L 153.764426 141.018849 
L 153.764426 140.577717 
L 154.101358 140.577717 
L 154.101358 134.401873 
L 154.468783 134.401873 
L 154.468783 133.078478 
L 154.721776 133.078478 
L 154.721776 131.313951 
L 154.935952 131.313951 
L 154.935952 130.87282 
L 155.18278 130.87282 
L 155.18278 130.431688 
L 155.322384 130.431688 
L 155.391799 127.784898 
L 155.495444 127.784898 
L 155.495444 126.020371 
L 155.632755 126.020371 
L 155.701037 120.285659 
L 155.938089 120.285659 
L 155.938089 117.638868 
L 156.304668 117.638868 
L 156.304668 116.756605 
L 157.642093 116.756605 
L 157.642093 113.668683 
L 157.764644 113.668683 
L 157.764644 113.227551 
L 158.0375 113.227551 
L 158.0375 108.375102 
L 161.937874 108.375102 
L 161.937874 107.933971 
L 162.420867 107.933971 
L 162.420867 107.492839 
L 162.634233 107.492839 
L 162.634233 107.051707 
L 163.145827 107.051707 
L 163.145827 106.610576 
L 164.194282 106.610576 
L 164.194282 105.28718 
L 165.146166 105.28718 
L 165.146166 104.846049 
L 166.091467 104.846049 
L 166.091467 104.404917 
L 166.267186 104.404917 
L 166.267186 103.963785 
L 166.441278 103.963785 
L 166.441278 95.141151 
L 167.01022 95.141151 
L 167.01022 94.258888 
L 167.121972 94.258888 
L 167.121972 91.170966 
L 167.288365 91.170966 
L 167.343504 86.759649 
L 167.507957 86.759649 
L 167.544308 84.55399 
L 168.221954 84.55399 
L 168.221954 83.230595 
L 168.534619 83.230595 
L 168.534619 82.789463 
L 168.689024 82.789463 
L 168.689024 82.348332 
L 168.842171 82.348332 
L 168.842171 80.142673 
L 169.606029 80.142673 
L 169.606029 78.819278 
L 170.788543 78.819278 
L 170.788543 78.378146 
L 171.463941 78.378146 
L 171.463941 77.937015 
L 172.510491 77.937015 
L 172.510491 77.495883 
L 173.369117 77.495883 
L 173.369117 75.731356 
L 175.376408 75.731356 
L 175.424244 70.878907 
L 175.673408 70.878907 
L 175.77919 66.908722 
L 175.802616 66.908722 
L 175.907676 64.703063 
L 176.012153 64.703063 
L 176.012153 62.497405 
L 176.139064 62.497405 
L 176.242267 60.732878 
L 176.344907 60.732878 
L 176.446989 58.52722 
L 176.503464 58.52722 
L 176.593471 54.115902 
L 176.649508 54.115902 
L 176.649508 50.145717 
L 176.971271 50.145717 
L 176.971271 49.704585 
L 180.692116 49.704585 
L 180.692116 46.616663 
L 181.014301 46.616663 
L 181.093992 42.646478 
L 181.190936 42.646478 
L 181.287383 38.676293 
L 182.465343 38.676293 
L 182.555488 36.911766 
L 182.645203 36.911766 
L 182.645203 34.264976 
L 182.983869 34.264976 
L 182.983869 33.382712 
L 183.158861 33.382712 
L 183.158861 31.618185 
L 185.268681 31.618185 
L 185.268681 30.735922 
L 185.388613 30.735922 
L 185.451798 28.089132 
L 206.295123 28.089132 
L 206.295123 27.648 
L 360.8064 27.648 
L 360.8064 27.648 
" style="fill:none;stroke:#ff7500;stroke-linecap:square;stroke-width:1.5;"/>
   </g>
   <g id="line2d_40">
    <defs>
     <path d="M 0 -6 
L -1.347084 -1.854102 
L -5.706339 -1.854102 
L -2.179628 0.708204 
L -3.526712 4.854102 
L -0 2.291796 
L 3.526712 4.854102 
L 2.179628 0.708204 
L 5.706339 -1.854102 
L 1.347084 -1.854102 
z
" id="m5e29d99dd1" style="stroke:#ff7500;stroke-linejoin:bevel;stroke-width:1.5;"/>
    </defs>
    <g>
     <use style="fill-opacity:0;stroke:#ff7500;stroke-linejoin:bevel;stroke-width:1.5;" x="126.993549" xlink:href="#m5e29d99dd1" y="246.008195"/>
     <use style="fill-opacity:0;stroke:#ff7500;stroke-linejoin:bevel;stroke-width:1.5;" x="167.01022" xlink:href="#m5e29d99dd1" y="94.258888"/>
     <use style="fill-opacity:0;stroke:#ff7500;stroke-linejoin:bevel;stroke-width:1.5;" x="206.295123" xlink:href="#m5e29d99dd1" y="28.089132"/>
     <use style="fill-opacity:0;stroke:#ff7500;stroke-linejoin:bevel;stroke-width:1.5;" x="206.295123" xlink:href="#m5e29d99dd1" y="27.648"/>
     <use style="fill-opacity:0;stroke:#ff7500;stroke-linejoin:bevel;stroke-width:1.5;" x="360.8064" xlink:href="#m5e29d99dd1" y="27.648"/>
    </g>
   </g>
   <g id="line2d_41">
    <path style="fill:none;stroke:#ff7500;stroke-linecap:square;stroke-width:1.5;"/>
    <g/>
   </g>
   <g id="line2d_42">
    <path d="M 360.8064 27.648 
L 380.514816 293.51808 
" style="fill:none;stroke:#ff00ff;stroke-linecap:square;stroke-width:1.5;"/>
    <g>
     <use style="fill-opacity:0;stroke:#ff00ff;stroke-linejoin:miter;stroke-width:1.5;" x="360.8064" xlink:href="#m94d56c2313" y="27.648"/>
     <use style="fill-opacity:0;stroke:#ff00ff;stroke-linejoin:miter;stroke-width:1.5;" x="380.514816" xlink:href="#m94d56c2313" y="293.51808"/>
    </g>
   </g>
   <g id="line2d_43">
    <path d="M 360.8064 27.648 
L 380.514816 163.296 
" style="fill:none;stroke:#ff7500;stroke-linecap:square;stroke-width:1.5;"/>
    <g>
     <use style="fill-opacity:0;stroke:#ff7500;stroke-linejoin:bevel;stroke-width:1.5;" x="360.8064" xlink:href="#m5e29d99dd1" y="27.648"/>
     <use style="fill-opacity:0;stroke:#ff7500;stroke-linejoin:bevel;stroke-width:1.5;" x="380.514816" xlink:href="#m5e29d99dd1" y="163.296"/>
    </g>
   </g>
   <g id="line2d_44">
    <path d="M 360.8064 27.648 
L 380.514816 33.07392 
" style="fill:none;stroke:#000080;stroke-linecap:square;stroke-width:1.5;"/>
    <g>
     <use style="fill-opacity:0;stroke:#000080;stroke-width:1.5;" x="360.8064" xlink:href="#mf4963a7f6e" y="27.648"/>
     <use style="fill-opacity:0;stroke:#000080;stroke-width:1.5;" x="380.514816" xlink:href="#mf4963a7f6e" y="33.07392"/>
    </g>
   </g>
   <g id="line2d_45">
    <path d="M 360.8064 298.944 
L 360.8064 27.648 
" style="fill:none;stroke:#000000;stroke-linecap:square;stroke-width:1.5;"/>
   </g>
   <g id="patch_3">
    <path d="M 57.6 298.944 
L 360.8064 298.944 
" style="fill:none;stroke:#000000;stroke-linecap:square;stroke-linejoin:miter;stroke-width:0.8;"/>
   </g>
   <g id="patch_4">
    <path d="M 57.6 27.648 
L 360.8064 27.648 
" style="fill:none;stroke:#000000;stroke-linecap:square;stroke-linejoin:miter;stroke-width:0.8;"/>
   </g>
   <g id="text_13">
    <!-- fmincon -->
    <g transform="translate(386.578944 297.381205)scale(0.14 -0.14)">
     <use xlink:href="#DejaVuSans-102"/>
     <use x="35.205078" xlink:href="#DejaVuSans-109"/>
     <use x="132.617188" xlink:href="#DejaVuSans-105"/>
     <use x="160.400391" xlink:href="#DejaVuSans-110"/>
     <use x="223.779297" xlink:href="#DejaVuSans-99"/>
     <use x="278.759766" xlink:href="#DejaVuSans-111"/>
     <use x="339.941406" xlink:href="#DejaVuSans-110"/>
    </g>
   </g>
   <g id="text_14">
    <!-- slsqp -->
    <g transform="translate(386.578944 167.159125)scale(0.14 -0.14)">
     <defs>
      <path d="M 14.796875 27.296875 
Q 14.796875 17.390625 18.875 11.75 
Q 22.953125 6.109375 30.078125 6.109375 
Q 37.203125 6.109375 41.296875 11.75 
Q 45.40625 17.390625 45.40625 27.296875 
Q 45.40625 37.203125 41.296875 42.84375 
Q 37.203125 48.484375 30.078125 48.484375 
Q 22.953125 48.484375 18.875 42.84375 
Q 14.796875 37.203125 14.796875 27.296875 
z
M 45.40625 8.203125 
Q 42.578125 3.328125 38.25 0.953125 
Q 33.9375 -1.421875 27.875 -1.421875 
Q 17.96875 -1.421875 11.734375 6.484375 
Q 5.515625 14.40625 5.515625 27.296875 
Q 5.515625 40.1875 11.734375 48.09375 
Q 17.96875 56 27.875 56 
Q 33.9375 56 38.25 53.625 
Q 42.578125 51.265625 45.40625 46.390625 
L 45.40625 54.6875 
L 54.390625 54.6875 
L 54.390625 -20.796875 
L 45.40625 -20.796875 
z
" id="DejaVuSans-113"/>
     </defs>
     <use xlink:href="#DejaVuSans-115"/>
     <use x="52.099609" xlink:href="#DejaVuSans-108"/>
     <use x="79.882812" xlink:href="#DejaVuSans-115"/>
     <use x="131.982422" xlink:href="#DejaVuSans-113"/>
     <use x="195.458984" xlink:href="#DejaVuSans-112"/>
    </g>
   </g>
   <g id="text_15">
    <!-- cobyla -->
    <g transform="translate(386.578944 36.937045)scale(0.14 -0.14)">
     <defs>
      <path d="M 48.6875 27.296875 
Q 48.6875 37.203125 44.609375 42.84375 
Q 40.53125 48.484375 33.40625 48.484375 
Q 26.265625 48.484375 22.1875 42.84375 
Q 18.109375 37.203125 18.109375 27.296875 
Q 18.109375 17.390625 22.1875 11.75 
Q 26.265625 6.109375 33.40625 6.109375 
Q 40.53125 6.109375 44.609375 11.75 
Q 48.6875 17.390625 48.6875 27.296875 
z
M 18.109375 46.390625 
Q 20.953125 51.265625 25.265625 53.625 
Q 29.59375 56 35.59375 56 
Q 45.5625 56 51.78125 48.09375 
Q 58.015625 40.1875 58.015625 27.296875 
Q 58.015625 14.40625 51.78125 6.484375 
Q 45.5625 -1.421875 35.59375 -1.421875 
Q 29.59375 -1.421875 25.265625 0.953125 
Q 20.953125 3.328125 18.109375 8.203125 
L 18.109375 0 
L 9.078125 0 
L 9.078125 75.984375 
L 18.109375 75.984375 
z
" id="DejaVuSans-98"/>
      <path d="M 32.171875 -5.078125 
Q 28.375 -14.84375 24.75 -17.8125 
Q 21.140625 -20.796875 15.09375 -20.796875 
L 7.90625 -20.796875 
L 7.90625 -13.28125 
L 13.1875 -13.28125 
Q 16.890625 -13.28125 18.9375 -11.515625 
Q 21 -9.765625 23.484375 -3.21875 
L 25.09375 0.875 
L 2.984375 54.6875 
L 12.5 54.6875 
L 29.59375 11.921875 
L 46.6875 54.6875 
L 56.203125 54.6875 
z
" id="DejaVuSans-121"/>
     </defs>
     <use xlink:href="#DejaVuSans-99"/>
     <use x="54.980469" xlink:href="#DejaVuSans-111"/>
     <use x="116.162109" xlink:href="#DejaVuSans-98"/>
     <use x="179.638672" xlink:href="#DejaVuSans-121"/>
     <use x="238.818359" xlink:href="#DejaVuSans-108"/>
     <use x="266.601562" xlink:href="#DejaVuSans-97"/>
    </g>
   </g>
   <g id="text_16">
    <!-- bbob-constrained f48, 3-D -->
    <g transform="translate(60.632064 38.111366)scale(0.102 -0.102)">
     <defs>
      <path d="M 4.890625 31.390625 
L 31.203125 31.390625 
L 31.203125 23.390625 
L 4.890625 23.390625 
z
" id="DejaVuSans-45"/>
      <path d="M 40.578125 39.3125 
Q 47.65625 37.796875 51.625 33 
Q 55.609375 28.21875 55.609375 21.1875 
Q 55.609375 10.40625 48.1875 4.484375 
Q 40.765625 -1.421875 27.09375 -1.421875 
Q 22.515625 -1.421875 17.65625 -0.515625 
Q 12.796875 0.390625 7.625 2.203125 
L 7.625 11.71875 
Q 11.71875 9.328125 16.59375 8.109375 
Q 21.484375 6.890625 26.8125 6.890625 
Q 36.078125 6.890625 40.9375 10.546875 
Q 45.796875 14.203125 45.796875 21.1875 
Q 45.796875 27.640625 41.28125 31.265625 
Q 36.765625 34.90625 28.71875 34.90625 
L 20.21875 34.90625 
L 20.21875 43.015625 
L 29.109375 43.015625 
Q 36.375 43.015625 40.234375 45.921875 
Q 44.09375 48.828125 44.09375 54.296875 
Q 44.09375 59.90625 40.109375 62.90625 
Q 36.140625 65.921875 28.71875 65.921875 
Q 24.65625 65.921875 20.015625 65.03125 
Q 15.375 64.15625 9.8125 62.3125 
L 9.8125 71.09375 
Q 15.4375 72.65625 20.34375 73.4375 
Q 25.25 74.21875 29.59375 74.21875 
Q 40.828125 74.21875 47.359375 69.109375 
Q 53.90625 64.015625 53.90625 55.328125 
Q 53.90625 49.265625 50.4375 45.09375 
Q 46.96875 40.921875 40.578125 39.3125 
z
" id="DejaVuSans-51"/>
      <path d="M 19.671875 64.796875 
L 19.671875 8.109375 
L 31.59375 8.109375 
Q 46.6875 8.109375 53.6875 14.9375 
Q 60.6875 21.78125 60.6875 36.53125 
Q 60.6875 51.171875 53.6875 57.984375 
Q 46.6875 64.796875 31.59375 64.796875 
z
M 9.8125 72.90625 
L 30.078125 72.90625 
Q 51.265625 72.90625 61.171875 64.09375 
Q 71.09375 55.28125 71.09375 36.53125 
Q 71.09375 17.671875 61.125 8.828125 
Q 51.171875 0 30.078125 0 
L 9.8125 0 
z
" id="DejaVuSans-68"/>
     </defs>
     <use xlink:href="#DejaVuSans-98"/>
     <use x="63.476562" xlink:href="#DejaVuSans-98"/>
     <use x="126.953125" xlink:href="#DejaVuSans-111"/>
     <use x="188.134766" xlink:href="#DejaVuSans-98"/>
     <use x="251.611328" xlink:href="#DejaVuSans-45"/>
     <use x="287.695312" xlink:href="#DejaVuSans-99"/>
     <use x="342.675781" xlink:href="#DejaVuSans-111"/>
     <use x="403.857422" xlink:href="#DejaVuSans-110"/>
     <use x="467.236328" xlink:href="#DejaVuSans-115"/>
     <use x="519.335938" xlink:href="#DejaVuSans-116"/>
     <use x="558.544922" xlink:href="#DejaVuSans-114"/>
     <use x="599.658203" xlink:href="#DejaVuSans-97"/>
     <use x="660.9375" xlink:href="#DejaVuSans-105"/>
     <use x="688.720703" xlink:href="#DejaVuSans-110"/>
     <use x="752.099609" xlink:href="#DejaVuSans-101"/>
     <use x="813.623047" xlink:href="#DejaVuSans-100"/>
     <use x="877.099609" xlink:href="#DejaVuSans-32"/>
     <use x="908.886719" xlink:href="#DejaVuSans-102"/>
     <use x="944.091797" xlink:href="#DejaVuSans-52"/>
     <use x="1007.714844" xlink:href="#DejaVuSans-56"/>
     <use x="1071.337891" xlink:href="#DejaVuSans-44"/>
     <use x="1103.125" xlink:href="#DejaVuSans-32"/>
     <use x="1134.912109" xlink:href="#DejaVuSans-51"/>
     <use x="1198.535156" xlink:href="#DejaVuSans-45"/>
     <use x="1234.619141" xlink:href="#DejaVuSans-68"/>
    </g>
    <!-- 41 targets: 100..1e-06 -->
    <g transform="translate(60.632064 49.533135)scale(0.102 -0.102)">
     <defs>
      <path d="M 11.71875 12.40625 
L 22.015625 12.40625 
L 22.015625 0 
L 11.71875 0 
z
M 11.71875 51.703125 
L 22.015625 51.703125 
L 22.015625 39.3125 
L 11.71875 39.3125 
z
" id="DejaVuSans-58"/>
     </defs>
     <use xlink:href="#DejaVuSans-52"/>
     <use x="63.623047" xlink:href="#DejaVuSans-49"/>
     <use x="127.246094" xlink:href="#DejaVuSans-32"/>
     <use x="159.033203" xlink:href="#DejaVuSans-116"/>
     <use x="198.242188" xlink:href="#DejaVuSans-97"/>
     <use x="259.521484" xlink:href="#DejaVuSans-114"/>
     <use x="298.884766" xlink:href="#DejaVuSans-103"/>
     <use x="362.361328" xlink:href="#DejaVuSans-101"/>
     <use x="423.884766" xlink:href="#DejaVuSans-116"/>
     <use x="463.09375" xlink:href="#DejaVuSans-115"/>
     <use x="515.193359" xlink:href="#DejaVuSans-58"/>
     <use x="548.884766" xlink:href="#DejaVuSans-32"/>
     <use x="580.671875" xlink:href="#DejaVuSans-49"/>
     <use x="644.294922" xlink:href="#DejaVuSans-48"/>
     <use x="707.917969" xlink:href="#DejaVuSans-48"/>
     <use x="771.541016" xlink:href="#DejaVuSans-46"/>
     <use x="803.328125" xlink:href="#DejaVuSans-46"/>
     <use x="835.115234" xlink:href="#DejaVuSans-49"/>
     <use x="898.738281" xlink:href="#DejaVuSans-101"/>
     <use x="960.261719" xlink:href="#DejaVuSans-45"/>
     <use x="996.345703" xlink:href="#DejaVuSans-48"/>
     <use x="1059.96875" xlink:href="#DejaVuSans-54"/>
    </g>
    <!-- evals = f-evals + g-evals -->
    <g transform="translate(60.632064 60.954904)scale(0.102 -0.102)">
     <defs>
      <path d="M 10.59375 45.40625 
L 73.1875 45.40625 
L 73.1875 37.203125 
L 10.59375 37.203125 
z
M 10.59375 25.484375 
L 73.1875 25.484375 
L 73.1875 17.1875 
L 10.59375 17.1875 
z
" id="DejaVuSans-61"/>
      <path d="M 46 62.703125 
L 46 35.5 
L 73.1875 35.5 
L 73.1875 27.203125 
L 46 27.203125 
L 46 0 
L 37.796875 0 
L 37.796875 27.203125 
L 10.59375 27.203125 
L 10.59375 35.5 
L 37.796875 35.5 
L 37.796875 62.703125 
z
" id="DejaVuSans-43"/>
     </defs>
     <use xlink:href="#DejaVuSans-101"/>
     <use x="61.523438" xlink:href="#DejaVuSans-118"/>
     <use x="120.703125" xlink:href="#DejaVuSans-97"/>
     <use x="181.982422" xlink:href="#DejaVuSans-108"/>
     <use x="209.765625" xlink:href="#DejaVuSans-115"/>
     <use x="261.865234" xlink:href="#DejaVuSans-32"/>
     <use x="293.652344" xlink:href="#DejaVuSans-61"/>
     <use x="377.441406" xlink:href="#DejaVuSans-32"/>
     <use x="409.228516" xlink:href="#DejaVuSans-102"/>
     <use x="438.933594" xlink:href="#DejaVuSans-45"/>
     <use x="475.017578" xlink:href="#DejaVuSans-101"/>
     <use x="536.541016" xlink:href="#DejaVuSans-118"/>
     <use x="595.720703" xlink:href="#DejaVuSans-97"/>
     <use x="657" xlink:href="#DejaVuSans-108"/>
     <use x="684.783203" xlink:href="#DejaVuSans-115"/>
     <use x="736.882812" xlink:href="#DejaVuSans-32"/>
     <use x="768.669922" xlink:href="#DejaVuSans-43"/>
     <use x="852.458984" xlink:href="#DejaVuSans-32"/>
     <use x="884.246094" xlink:href="#DejaVuSans-103"/>
     <use x="947.722656" xlink:href="#DejaVuSans-45"/>
     <use x="983.806641" xlink:href="#DejaVuSans-101"/>
     <use x="1045.330078" xlink:href="#DejaVuSans-118"/>
     <use x="1104.509766" xlink:href="#DejaVuSans-97"/>
     <use x="1165.789062" xlink:href="#DejaVuSans-108"/>
     <use x="1193.572266" xlink:href="#DejaVuSans-115"/>
    </g>
    <!-- 15 instances -->
    <g transform="translate(60.632064 72.376672)scale(0.102 -0.102)">
     <defs>
      <path d="M 10.796875 72.90625 
L 49.515625 72.90625 
L 49.515625 64.59375 
L 19.828125 64.59375 
L 19.828125 46.734375 
Q 21.96875 47.46875 24.109375 47.828125 
Q 26.265625 48.1875 28.421875 48.1875 
Q 40.625 48.1875 47.75 41.5 
Q 54.890625 34.8125 54.890625 23.390625 
Q 54.890625 11.625 47.5625 5.09375 
Q 40.234375 -1.421875 26.90625 -1.421875 
Q 22.3125 -1.421875 17.546875 -0.640625 
Q 12.796875 0.140625 7.71875 1.703125 
L 7.71875 11.625 
Q 12.109375 9.234375 16.796875 8.0625 
Q 21.484375 6.890625 26.703125 6.890625 
Q 35.15625 6.890625 40.078125 11.328125 
Q 45.015625 15.765625 45.015625 23.390625 
Q 45.015625 31 40.078125 35.4375 
Q 35.15625 39.890625 26.703125 39.890625 
Q 22.75 39.890625 18.8125 39.015625 
Q 14.890625 38.140625 10.796875 36.28125 
z
" id="DejaVuSans-53"/>
     </defs>
     <use xlink:href="#DejaVuSans-49"/>
     <use x="63.623047" xlink:href="#DejaVuSans-53"/>
     <use x="127.246094" xlink:href="#DejaVuSans-32"/>
     <use x="159.033203" xlink:href="#DejaVuSans-105"/>
     <use x="186.816406" xlink:href="#DejaVuSans-110"/>
     <use x="250.195312" xlink:href="#DejaVuSans-115"/>
     <use x="302.294922" xlink:href="#DejaVuSans-116"/>
     <use x="341.503906" xlink:href="#DejaVuSans-97"/>
     <use x="402.783203" xlink:href="#DejaVuSans-110"/>
     <use x="466.162109" xlink:href="#DejaVuSans-99"/>
     <use x="521.142578" xlink:href="#DejaVuSans-101"/>
     <use x="582.666016" xlink:href="#DejaVuSans-115"/>
    </g>
   </g>
   <g id="text_17">
    <!-- v2.4.159 -->
    <g style="fill:#808080;" transform="translate(187.15945 294.151352)scale(0.1 -0.1)">
     <defs>
      <path d="M 10.984375 1.515625 
L 10.984375 10.5 
Q 14.703125 8.734375 18.5 7.8125 
Q 22.3125 6.890625 25.984375 6.890625 
Q 35.75 6.890625 40.890625 13.453125 
Q 46.046875 20.015625 46.78125 33.40625 
Q 43.953125 29.203125 39.59375 26.953125 
Q 35.25 24.703125 29.984375 24.703125 
Q 19.046875 24.703125 12.671875 31.3125 
Q 6.296875 37.9375 6.296875 49.421875 
Q 6.296875 60.640625 12.9375 67.421875 
Q 19.578125 74.21875 30.609375 74.21875 
Q 43.265625 74.21875 49.921875 64.515625 
Q 56.59375 54.828125 56.59375 36.375 
Q 56.59375 19.140625 48.40625 8.859375 
Q 40.234375 -1.421875 26.421875 -1.421875 
Q 22.703125 -1.421875 18.890625 -0.6875 
Q 15.09375 0.046875 10.984375 1.515625 
z
M 30.609375 32.421875 
Q 37.25 32.421875 41.125 36.953125 
Q 45.015625 41.5 45.015625 49.421875 
Q 45.015625 57.28125 41.125 61.84375 
Q 37.25 66.40625 30.609375 66.40625 
Q 23.96875 66.40625 20.09375 61.84375 
Q 16.21875 57.28125 16.21875 49.421875 
Q 16.21875 41.5 20.09375 36.953125 
Q 23.96875 32.421875 30.609375 32.421875 
z
" id="DejaVuSans-57"/>
     </defs>
     <use xlink:href="#DejaVuSans-118"/>
     <use x="59.179688" xlink:href="#DejaVuSans-50"/>
     <use x="122.802734" xlink:href="#DejaVuSans-46"/>
     <use x="154.589844" xlink:href="#DejaVuSans-52"/>
     <use x="218.212891" xlink:href="#DejaVuSans-46"/>
     <use x="250" xlink:href="#DejaVuSans-49"/>
     <use x="313.623047" xlink:href="#DejaVuSans-53"/>
     <use x="377.246094" xlink:href="#DejaVuSans-57"/>
    </g>
   </g>
   <g id="text_18">
    <!-- 48 Sep. Rastrigin, m=9+int(9n/2) -->
    <g transform="translate(41.270387 21.648)scale(0.2 -0.2)">
     <defs>
      <path d="M 53.515625 70.515625 
L 53.515625 60.890625 
Q 47.90625 63.578125 42.921875 64.890625 
Q 37.9375 66.21875 33.296875 66.21875 
Q 25.25 66.21875 20.875 63.09375 
Q 16.5 59.96875 16.5 54.203125 
Q 16.5 49.359375 19.40625 46.890625 
Q 22.3125 44.4375 30.421875 42.921875 
L 36.375 41.703125 
Q 47.40625 39.59375 52.65625 34.296875 
Q 57.90625 29 57.90625 20.125 
Q 57.90625 9.515625 50.796875 4.046875 
Q 43.703125 -1.421875 29.984375 -1.421875 
Q 24.8125 -1.421875 18.96875 -0.25 
Q 13.140625 0.921875 6.890625 3.21875 
L 6.890625 13.375 
Q 12.890625 10.015625 18.65625 8.296875 
Q 24.421875 6.59375 29.984375 6.59375 
Q 38.421875 6.59375 43.015625 9.90625 
Q 47.609375 13.234375 47.609375 19.390625 
Q 47.609375 24.75 44.3125 27.78125 
Q 41.015625 30.8125 33.5 32.328125 
L 27.484375 33.5 
Q 16.453125 35.6875 11.515625 40.375 
Q 6.59375 45.0625 6.59375 53.421875 
Q 6.59375 63.09375 13.40625 68.65625 
Q 20.21875 74.21875 32.171875 74.21875 
Q 37.3125 74.21875 42.625 73.28125 
Q 47.953125 72.359375 53.515625 70.515625 
z
" id="DejaVuSans-83"/>
      <path d="M 44.390625 34.1875 
Q 47.5625 33.109375 50.5625 29.59375 
Q 53.5625 26.078125 56.59375 19.921875 
L 66.609375 0 
L 56 0 
L 46.6875 18.703125 
Q 43.0625 26.03125 39.671875 28.421875 
Q 36.28125 30.8125 30.421875 30.8125 
L 19.671875 30.8125 
L 19.671875 0 
L 9.8125 0 
L 9.8125 72.90625 
L 32.078125 72.90625 
Q 44.578125 72.90625 50.734375 67.671875 
Q 56.890625 62.453125 56.890625 51.90625 
Q 56.890625 45.015625 53.6875 40.46875 
Q 50.484375 35.9375 44.390625 34.1875 
z
M 19.671875 64.796875 
L 19.671875 38.921875 
L 32.078125 38.921875 
Q 39.203125 38.921875 42.84375 42.21875 
Q 46.484375 45.515625 46.484375 51.90625 
Q 46.484375 58.296875 42.84375 61.546875 
Q 39.203125 64.796875 32.078125 64.796875 
z
" id="DejaVuSans-82"/>
     </defs>
     <use xlink:href="#DejaVuSans-52"/>
     <use x="63.623047" xlink:href="#DejaVuSans-56"/>
     <use x="127.246094" xlink:href="#DejaVuSans-32"/>
     <use x="159.033203" xlink:href="#DejaVuSans-83"/>
     <use x="222.509766" xlink:href="#DejaVuSans-101"/>
     <use x="284.033203" xlink:href="#DejaVuSans-112"/>
     <use x="347.509766" xlink:href="#DejaVuSans-46"/>
     <use x="379.296875" xlink:href="#DejaVuSans-32"/>
     <use x="411.083984" xlink:href="#DejaVuSans-82"/>
     <use x="478.316406" xlink:href="#DejaVuSans-97"/>
     <use x="539.595703" xlink:href="#DejaVuSans-115"/>
     <use x="591.695312" xlink:href="#DejaVuSans-116"/>
     <use x="630.904297" xlink:href="#DejaVuSans-114"/>
     <use x="672.017578" xlink:href="#DejaVuSans-105"/>
     <use x="699.800781" xlink:href="#DejaVuSans-103"/>
     <use x="763.277344" xlink:href="#DejaVuSans-105"/>
     <use x="791.060547" xlink:href="#DejaVuSans-110"/>
     <use x="854.439453" xlink:href="#DejaVuSans-44"/>
     <use x="886.226562" xlink:href="#DejaVuSans-32"/>
     <use x="918.013672" xlink:href="#DejaVuSans-109"/>
     <use x="1015.425781" xlink:href="#DejaVuSans-61"/>
     <use x="1099.214844" xlink:href="#DejaVuSans-57"/>
     <use x="1162.837891" xlink:href="#DejaVuSans-43"/>
     <use x="1246.626953" xlink:href="#DejaVuSans-105"/>
     <use x="1274.410156" xlink:href="#DejaVuSans-110"/>
     <use x="1337.789062" xlink:href="#DejaVuSans-116"/>
     <use x="1376.998047" xlink:href="#DejaVuSans-40"/>
     <use x="1416.011719" xlink:href="#DejaVuSans-57"/>
     <use x="1479.634766" xlink:href="#DejaVuSans-110"/>
     <use x="1543.013672" xlink:href="#DejaVuSans-47"/>
     <use x="1576.705078" xlink:href="#DejaVuSans-50"/>
     <use x="1640.328125" xlink:href="#DejaVuSans-41"/>
    </g>
   </g>
  </g>
 </g>
 <defs>
  <clipPath id="p47f9077f7f">
   <rect height="271.296" width="303.2064" x="57.6" y="27.648"/>
  </clipPath>
 </defs>
</svg>
