<?xml version="1.0" encoding="utf-8" standalone="no"?>
<!DOCTYPE svg PUBLIC "-//W3C//DTD SVG 1.1//EN"
  "http://www.w3.org/Graphics/SVG/1.1/DTD/svg11.dtd">
<!-- Created with matplotlib (https://matplotlib.org/) -->
<svg height="345.6pt" version="1.1" viewBox="0 0 460.8 345.6" width="460.8pt" xmlns="http://www.w3.org/2000/svg" xmlns:xlink="http://www.w3.org/1999/xlink">
 <metadata>
  <rdf:RDF xmlns:cc="http://creativecommons.org/ns#" xmlns:dc="http://purl.org/dc/elements/1.1/" xmlns:rdf="http://www.w3.org/1999/02/22-rdf-syntax-ns#">
   <cc:Work>
    <dc:type rdf:resource="http://purl.org/dc/dcmitype/StillImage"/>
    <dc:date>2022-02-09T10:00:54.515836</dc:date>
    <dc:format>image/svg+xml</dc:format>
    <dc:creator>
     <cc:Agent>
      <dc:title>Matplotlib v3.3.3, https://matplotlib.org/</dc:title>
     </cc:Agent>
    </dc:creator>
   </cc:Work>
  </rdf:RDF>
 </metadata>
 <defs>
  <style type="text/css">*{stroke-linecap:butt;stroke-linejoin:round;}</style>
 </defs>
 <g id="figure_1">
  <g id="patch_1">
   <path d="M 0 345.6 
L 460.8 345.6 
L 460.8 0 
L 0 0 
z
" style="fill:#ffffff;"/>
  </g>
  <g id="axes_1">
   <g id="patch_2">
    <path d="M 57.6 298.944 
L 360.8064 298.944 
L 360.8064 27.648 
L 57.6 27.648 
z
" style="fill:#ffffff;"/>
   </g>
   <g id="matplotlib.axis_1">
    <g id="xtick_1">
     <g id="line2d_1">
      <path clip-path="url(#p00b1a67f03)" d="M 57.6 298.944 
L 57.6 27.648 
" style="fill:none;stroke:#b0b0b0;stroke-linecap:square;stroke-width:0.8;"/>
     </g>
     <g id="line2d_2">
      <defs>
       <path d="M 0 0 
L 0 3.5 
" id="mc1f1821b69" style="stroke:#000000;stroke-width:0.8;"/>
      </defs>
      <g>
       <use style="stroke:#000000;stroke-width:0.8;" x="57.6" xlink:href="#mc1f1821b69" y="298.944"/>
      </g>
     </g>
     <g id="text_1">
      <!-- 0 -->
      <g transform="translate(52.191875 318.861344)scale(0.17 -0.17)">
       <defs>
        <path d="M 31.78125 66.40625 
Q 24.171875 66.40625 20.328125 58.90625 
Q 16.5 51.421875 16.5 36.375 
Q 16.5 21.390625 20.328125 13.890625 
Q 24.171875 6.390625 31.78125 6.390625 
Q 39.453125 6.390625 43.28125 13.890625 
Q 47.125 21.390625 47.125 36.375 
Q 47.125 51.421875 43.28125 58.90625 
Q 39.453125 66.40625 31.78125 66.40625 
z
M 31.78125 74.21875 
Q 44.046875 74.21875 50.515625 64.515625 
Q 56.984375 54.828125 56.984375 36.375 
Q 56.984375 17.96875 50.515625 8.265625 
Q 44.046875 -1.421875 31.78125 -1.421875 
Q 19.53125 -1.421875 13.0625 8.265625 
Q 6.59375 17.96875 6.59375 36.375 
Q 6.59375 54.828125 13.0625 64.515625 
Q 19.53125 74.21875 31.78125 74.21875 
z
" id="DejaVuSans-48"/>
       </defs>
       <use xlink:href="#DejaVuSans-48"/>
      </g>
     </g>
    </g>
    <g id="xtick_2">
     <g id="line2d_3">
      <path clip-path="url(#p00b1a67f03)" d="M 144.2304 298.944 
L 144.2304 27.648 
" style="fill:none;stroke:#b0b0b0;stroke-linecap:square;stroke-width:0.8;"/>
     </g>
     <g id="line2d_4">
      <g>
       <use style="stroke:#000000;stroke-width:0.8;" x="144.2304" xlink:href="#mc1f1821b69" y="298.944"/>
      </g>
     </g>
     <g id="text_2">
      <!-- 2 -->
      <g transform="translate(138.822275 318.861344)scale(0.17 -0.17)">
       <defs>
        <path d="M 19.1875 8.296875 
L 53.609375 8.296875 
L 53.609375 0 
L 7.328125 0 
L 7.328125 8.296875 
Q 12.9375 14.109375 22.625 23.890625 
Q 32.328125 33.6875 34.8125 36.53125 
Q 39.546875 41.84375 41.421875 45.53125 
Q 43.3125 49.21875 43.3125 52.78125 
Q 43.3125 58.59375 39.234375 62.25 
Q 35.15625 65.921875 28.609375 65.921875 
Q 23.96875 65.921875 18.8125 64.3125 
Q 13.671875 62.703125 7.8125 59.421875 
L 7.8125 69.390625 
Q 13.765625 71.78125 18.9375 73 
Q 24.125 74.21875 28.421875 74.21875 
Q 39.75 74.21875 46.484375 68.546875 
Q 53.21875 62.890625 53.21875 53.421875 
Q 53.21875 48.921875 51.53125 44.890625 
Q 49.859375 40.875 45.40625 35.40625 
Q 44.1875 33.984375 37.640625 27.21875 
Q 31.109375 20.453125 19.1875 8.296875 
z
" id="DejaVuSans-50"/>
       </defs>
       <use xlink:href="#DejaVuSans-50"/>
      </g>
     </g>
    </g>
    <g id="xtick_3">
     <g id="line2d_5">
      <path clip-path="url(#p00b1a67f03)" d="M 230.8608 298.944 
L 230.8608 27.648 
" style="fill:none;stroke:#b0b0b0;stroke-linecap:square;stroke-width:0.8;"/>
     </g>
     <g id="line2d_6">
      <g>
       <use style="stroke:#000000;stroke-width:0.8;" x="230.8608" xlink:href="#mc1f1821b69" y="298.944"/>
      </g>
     </g>
     <g id="text_3">
      <!-- 4 -->
      <g transform="translate(225.452675 318.861344)scale(0.17 -0.17)">
       <defs>
        <path d="M 37.796875 64.3125 
L 12.890625 25.390625 
L 37.796875 25.390625 
z
M 35.203125 72.90625 
L 47.609375 72.90625 
L 47.609375 25.390625 
L 58.015625 25.390625 
L 58.015625 17.1875 
L 47.609375 17.1875 
L 47.609375 0 
L 37.796875 0 
L 37.796875 17.1875 
L 4.890625 17.1875 
L 4.890625 26.703125 
z
" id="DejaVuSans-52"/>
       </defs>
       <use xlink:href="#DejaVuSans-52"/>
      </g>
     </g>
    </g>
    <g id="xtick_4">
     <g id="line2d_7">
      <path clip-path="url(#p00b1a67f03)" d="M 317.4912 298.944 
L 317.4912 27.648 
" style="fill:none;stroke:#b0b0b0;stroke-linecap:square;stroke-width:0.8;"/>
     </g>
     <g id="line2d_8">
      <g>
       <use style="stroke:#000000;stroke-width:0.8;" x="317.4912" xlink:href="#mc1f1821b69" y="298.944"/>
      </g>
     </g>
     <g id="text_4">
      <!-- 6 -->
      <g transform="translate(312.083075 318.861344)scale(0.17 -0.17)">
       <defs>
        <path d="M 33.015625 40.375 
Q 26.375 40.375 22.484375 35.828125 
Q 18.609375 31.296875 18.609375 23.390625 
Q 18.609375 15.53125 22.484375 10.953125 
Q 26.375 6.390625 33.015625 6.390625 
Q 39.65625 6.390625 43.53125 10.953125 
Q 47.40625 15.53125 47.40625 23.390625 
Q 47.40625 31.296875 43.53125 35.828125 
Q 39.65625 40.375 33.015625 40.375 
z
M 52.59375 71.296875 
L 52.59375 62.3125 
Q 48.875 64.0625 45.09375 64.984375 
Q 41.3125 65.921875 37.59375 65.921875 
Q 27.828125 65.921875 22.671875 59.328125 
Q 17.53125 52.734375 16.796875 39.40625 
Q 19.671875 43.65625 24.015625 45.921875 
Q 28.375 48.1875 33.59375 48.1875 
Q 44.578125 48.1875 50.953125 41.515625 
Q 57.328125 34.859375 57.328125 23.390625 
Q 57.328125 12.15625 50.6875 5.359375 
Q 44.046875 -1.421875 33.015625 -1.421875 
Q 20.359375 -1.421875 13.671875 8.265625 
Q 6.984375 17.96875 6.984375 36.375 
Q 6.984375 53.65625 15.1875 63.9375 
Q 23.390625 74.21875 37.203125 74.21875 
Q 40.921875 74.21875 44.703125 73.484375 
Q 48.484375 72.75 52.59375 71.296875 
z
" id="DejaVuSans-54"/>
       </defs>
       <use xlink:href="#DejaVuSans-54"/>
      </g>
     </g>
    </g>
    <g id="xtick_5">
     <g id="line2d_9">
      <path clip-path="url(#p00b1a67f03)" d="M 100.9152 298.944 
L 100.9152 27.648 
" style="fill:none;stroke:#b0b0b0;stroke-linecap:square;stroke-width:0.8;"/>
     </g>
     <g id="line2d_10">
      <defs>
       <path d="M 0 0 
L 0 2 
" id="mc4695f2cd4" style="stroke:#000000;stroke-width:0.6;"/>
      </defs>
      <g>
       <use style="stroke:#000000;stroke-width:0.6;" x="100.9152" xlink:href="#mc4695f2cd4" y="298.944"/>
      </g>
     </g>
    </g>
    <g id="xtick_6">
     <g id="line2d_11">
      <path clip-path="url(#p00b1a67f03)" d="M 187.5456 298.944 
L 187.5456 27.648 
" style="fill:none;stroke:#b0b0b0;stroke-linecap:square;stroke-width:0.8;"/>
     </g>
     <g id="line2d_12">
      <g>
       <use style="stroke:#000000;stroke-width:0.6;" x="187.5456" xlink:href="#mc4695f2cd4" y="298.944"/>
      </g>
     </g>
    </g>
    <g id="xtick_7">
     <g id="line2d_13">
      <path clip-path="url(#p00b1a67f03)" d="M 274.176 298.944 
L 274.176 27.648 
" style="fill:none;stroke:#b0b0b0;stroke-linecap:square;stroke-width:0.8;"/>
     </g>
     <g id="line2d_14">
      <g>
       <use style="stroke:#000000;stroke-width:0.6;" x="274.176" xlink:href="#mc4695f2cd4" y="298.944"/>
      </g>
     </g>
    </g>
    <g id="xtick_8">
     <g id="line2d_15">
      <path clip-path="url(#p00b1a67f03)" d="M 360.8064 298.944 
L 360.8064 27.648 
" style="fill:none;stroke:#b0b0b0;stroke-linecap:square;stroke-width:0.8;"/>
     </g>
     <g id="line2d_16">
      <g>
       <use style="stroke:#000000;stroke-width:0.6;" x="360.8064" xlink:href="#mc4695f2cd4" y="298.944"/>
      </g>
     </g>
    </g>
    <g id="text_5">
     <!-- log10(evals / dimension) -->
     <g transform="translate(104.238825 339.314156)scale(0.17 -0.17)">
      <defs>
       <path d="M 9.421875 75.984375 
L 18.40625 75.984375 
L 18.40625 0 
L 9.421875 0 
z
" id="DejaVuSans-108"/>
       <path d="M 30.609375 48.390625 
Q 23.390625 48.390625 19.1875 42.75 
Q 14.984375 37.109375 14.984375 27.296875 
Q 14.984375 17.484375 19.15625 11.84375 
Q 23.34375 6.203125 30.609375 6.203125 
Q 37.796875 6.203125 41.984375 11.859375 
Q 46.1875 17.53125 46.1875 27.296875 
Q 46.1875 37.015625 41.984375 42.703125 
Q 37.796875 48.390625 30.609375 48.390625 
z
M 30.609375 56 
Q 42.328125 56 49.015625 48.375 
Q 55.71875 40.765625 55.71875 27.296875 
Q 55.71875 13.875 49.015625 6.21875 
Q 42.328125 -1.421875 30.609375 -1.421875 
Q 18.84375 -1.421875 12.171875 6.21875 
Q 5.515625 13.875 5.515625 27.296875 
Q 5.515625 40.765625 12.171875 48.375 
Q 18.84375 56 30.609375 56 
z
" id="DejaVuSans-111"/>
       <path d="M 45.40625 27.984375 
Q 45.40625 37.75 41.375 43.109375 
Q 37.359375 48.484375 30.078125 48.484375 
Q 22.859375 48.484375 18.828125 43.109375 
Q 14.796875 37.75 14.796875 27.984375 
Q 14.796875 18.265625 18.828125 12.890625 
Q 22.859375 7.515625 30.078125 7.515625 
Q 37.359375 7.515625 41.375 12.890625 
Q 45.40625 18.265625 45.40625 27.984375 
z
M 54.390625 6.78125 
Q 54.390625 -7.171875 48.1875 -13.984375 
Q 42 -20.796875 29.203125 -20.796875 
Q 24.46875 -20.796875 20.265625 -20.09375 
Q 16.0625 -19.390625 12.109375 -17.921875 
L 12.109375 -9.1875 
Q 16.0625 -11.328125 19.921875 -12.34375 
Q 23.78125 -13.375 27.78125 -13.375 
Q 36.625 -13.375 41.015625 -8.765625 
Q 45.40625 -4.15625 45.40625 5.171875 
L 45.40625 9.625 
Q 42.625 4.78125 38.28125 2.390625 
Q 33.9375 0 27.875 0 
Q 17.828125 0 11.671875 7.65625 
Q 5.515625 15.328125 5.515625 27.984375 
Q 5.515625 40.671875 11.671875 48.328125 
Q 17.828125 56 27.875 56 
Q 33.9375 56 38.28125 53.609375 
Q 42.625 51.21875 45.40625 46.390625 
L 45.40625 54.6875 
L 54.390625 54.6875 
z
" id="DejaVuSans-103"/>
       <path d="M 12.40625 8.296875 
L 28.515625 8.296875 
L 28.515625 63.921875 
L 10.984375 60.40625 
L 10.984375 69.390625 
L 28.421875 72.90625 
L 38.28125 72.90625 
L 38.28125 8.296875 
L 54.390625 8.296875 
L 54.390625 0 
L 12.40625 0 
z
" id="DejaVuSans-49"/>
       <path d="M 31 75.875 
Q 24.46875 64.65625 21.28125 53.65625 
Q 18.109375 42.671875 18.109375 31.390625 
Q 18.109375 20.125 21.3125 9.0625 
Q 24.515625 -2 31 -13.1875 
L 23.1875 -13.1875 
Q 15.875 -1.703125 12.234375 9.375 
Q 8.59375 20.453125 8.59375 31.390625 
Q 8.59375 42.28125 12.203125 53.3125 
Q 15.828125 64.359375 23.1875 75.875 
z
" id="DejaVuSans-40"/>
       <path d="M 56.203125 29.59375 
L 56.203125 25.203125 
L 14.890625 25.203125 
Q 15.484375 15.921875 20.484375 11.0625 
Q 25.484375 6.203125 34.421875 6.203125 
Q 39.59375 6.203125 44.453125 7.46875 
Q 49.3125 8.734375 54.109375 11.28125 
L 54.109375 2.78125 
Q 49.265625 0.734375 44.1875 -0.34375 
Q 39.109375 -1.421875 33.890625 -1.421875 
Q 20.796875 -1.421875 13.15625 6.1875 
Q 5.515625 13.8125 5.515625 26.8125 
Q 5.515625 40.234375 12.765625 48.109375 
Q 20.015625 56 32.328125 56 
Q 43.359375 56 49.78125 48.890625 
Q 56.203125 41.796875 56.203125 29.59375 
z
M 47.21875 32.234375 
Q 47.125 39.59375 43.09375 43.984375 
Q 39.0625 48.390625 32.421875 48.390625 
Q 24.90625 48.390625 20.390625 44.140625 
Q 15.875 39.890625 15.1875 32.171875 
z
" id="DejaVuSans-101"/>
       <path d="M 2.984375 54.6875 
L 12.5 54.6875 
L 29.59375 8.796875 
L 46.6875 54.6875 
L 56.203125 54.6875 
L 35.6875 0 
L 23.484375 0 
z
" id="DejaVuSans-118"/>
       <path d="M 34.28125 27.484375 
Q 23.390625 27.484375 19.1875 25 
Q 14.984375 22.515625 14.984375 16.5 
Q 14.984375 11.71875 18.140625 8.90625 
Q 21.296875 6.109375 26.703125 6.109375 
Q 34.1875 6.109375 38.703125 11.40625 
Q 43.21875 16.703125 43.21875 25.484375 
L 43.21875 27.484375 
z
M 52.203125 31.203125 
L 52.203125 0 
L 43.21875 0 
L 43.21875 8.296875 
Q 40.140625 3.328125 35.546875 0.953125 
Q 30.953125 -1.421875 24.3125 -1.421875 
Q 15.921875 -1.421875 10.953125 3.296875 
Q 6 8.015625 6 15.921875 
Q 6 25.140625 12.171875 29.828125 
Q 18.359375 34.515625 30.609375 34.515625 
L 43.21875 34.515625 
L 43.21875 35.40625 
Q 43.21875 41.609375 39.140625 45 
Q 35.0625 48.390625 27.6875 48.390625 
Q 23 48.390625 18.546875 47.265625 
Q 14.109375 46.140625 10.015625 43.890625 
L 10.015625 52.203125 
Q 14.9375 54.109375 19.578125 55.046875 
Q 24.21875 56 28.609375 56 
Q 40.484375 56 46.34375 49.84375 
Q 52.203125 43.703125 52.203125 31.203125 
z
" id="DejaVuSans-97"/>
       <path d="M 44.28125 53.078125 
L 44.28125 44.578125 
Q 40.484375 46.53125 36.375 47.5 
Q 32.28125 48.484375 27.875 48.484375 
Q 21.1875 48.484375 17.84375 46.4375 
Q 14.5 44.390625 14.5 40.28125 
Q 14.5 37.15625 16.890625 35.375 
Q 19.28125 33.59375 26.515625 31.984375 
L 29.59375 31.296875 
Q 39.15625 29.25 43.1875 25.515625 
Q 47.21875 21.78125 47.21875 15.09375 
Q 47.21875 7.46875 41.1875 3.015625 
Q 35.15625 -1.421875 24.609375 -1.421875 
Q 20.21875 -1.421875 15.453125 -0.5625 
Q 10.6875 0.296875 5.421875 2 
L 5.421875 11.28125 
Q 10.40625 8.6875 15.234375 7.390625 
Q 20.0625 6.109375 24.8125 6.109375 
Q 31.15625 6.109375 34.5625 8.28125 
Q 37.984375 10.453125 37.984375 14.40625 
Q 37.984375 18.0625 35.515625 20.015625 
Q 33.0625 21.96875 24.703125 23.78125 
L 21.578125 24.515625 
Q 13.234375 26.265625 9.515625 29.90625 
Q 5.8125 33.546875 5.8125 39.890625 
Q 5.8125 47.609375 11.28125 51.796875 
Q 16.75 56 26.8125 56 
Q 31.78125 56 36.171875 55.265625 
Q 40.578125 54.546875 44.28125 53.078125 
z
" id="DejaVuSans-115"/>
       <path id="DejaVuSans-32"/>
       <path d="M 25.390625 72.90625 
L 33.6875 72.90625 
L 8.296875 -9.28125 
L 0 -9.28125 
z
" id="DejaVuSans-47"/>
       <path d="M 45.40625 46.390625 
L 45.40625 75.984375 
L 54.390625 75.984375 
L 54.390625 0 
L 45.40625 0 
L 45.40625 8.203125 
Q 42.578125 3.328125 38.25 0.953125 
Q 33.9375 -1.421875 27.875 -1.421875 
Q 17.96875 -1.421875 11.734375 6.484375 
Q 5.515625 14.40625 5.515625 27.296875 
Q 5.515625 40.1875 11.734375 48.09375 
Q 17.96875 56 27.875 56 
Q 33.9375 56 38.25 53.625 
Q 42.578125 51.265625 45.40625 46.390625 
z
M 14.796875 27.296875 
Q 14.796875 17.390625 18.875 11.75 
Q 22.953125 6.109375 30.078125 6.109375 
Q 37.203125 6.109375 41.296875 11.75 
Q 45.40625 17.390625 45.40625 27.296875 
Q 45.40625 37.203125 41.296875 42.84375 
Q 37.203125 48.484375 30.078125 48.484375 
Q 22.953125 48.484375 18.875 42.84375 
Q 14.796875 37.203125 14.796875 27.296875 
z
" id="DejaVuSans-100"/>
       <path d="M 9.421875 54.6875 
L 18.40625 54.6875 
L 18.40625 0 
L 9.421875 0 
z
M 9.421875 75.984375 
L 18.40625 75.984375 
L 18.40625 64.59375 
L 9.421875 64.59375 
z
" id="DejaVuSans-105"/>
       <path d="M 52 44.1875 
Q 55.375 50.25 60.0625 53.125 
Q 64.75 56 71.09375 56 
Q 79.640625 56 84.28125 50.015625 
Q 88.921875 44.046875 88.921875 33.015625 
L 88.921875 0 
L 79.890625 0 
L 79.890625 32.71875 
Q 79.890625 40.578125 77.09375 44.375 
Q 74.3125 48.1875 68.609375 48.1875 
Q 61.625 48.1875 57.5625 43.546875 
Q 53.515625 38.921875 53.515625 30.90625 
L 53.515625 0 
L 44.484375 0 
L 44.484375 32.71875 
Q 44.484375 40.625 41.703125 44.40625 
Q 38.921875 48.1875 33.109375 48.1875 
Q 26.21875 48.1875 22.15625 43.53125 
Q 18.109375 38.875 18.109375 30.90625 
L 18.109375 0 
L 9.078125 0 
L 9.078125 54.6875 
L 18.109375 54.6875 
L 18.109375 46.1875 
Q 21.1875 51.21875 25.484375 53.609375 
Q 29.78125 56 35.6875 56 
Q 41.65625 56 45.828125 52.96875 
Q 50 49.953125 52 44.1875 
z
" id="DejaVuSans-109"/>
       <path d="M 54.890625 33.015625 
L 54.890625 0 
L 45.90625 0 
L 45.90625 32.71875 
Q 45.90625 40.484375 42.875 44.328125 
Q 39.84375 48.1875 33.796875 48.1875 
Q 26.515625 48.1875 22.3125 43.546875 
Q 18.109375 38.921875 18.109375 30.90625 
L 18.109375 0 
L 9.078125 0 
L 9.078125 54.6875 
L 18.109375 54.6875 
L 18.109375 46.1875 
Q 21.34375 51.125 25.703125 53.5625 
Q 30.078125 56 35.796875 56 
Q 45.21875 56 50.046875 50.171875 
Q 54.890625 44.34375 54.890625 33.015625 
z
" id="DejaVuSans-110"/>
       <path d="M 8.015625 75.875 
L 15.828125 75.875 
Q 23.140625 64.359375 26.78125 53.3125 
Q 30.421875 42.28125 30.421875 31.390625 
Q 30.421875 20.453125 26.78125 9.375 
Q 23.140625 -1.703125 15.828125 -13.1875 
L 8.015625 -13.1875 
Q 14.5 -2 17.703125 9.0625 
Q 20.90625 20.125 20.90625 31.390625 
Q 20.90625 42.671875 17.703125 53.65625 
Q 14.5 64.65625 8.015625 75.875 
z
" id="DejaVuSans-41"/>
      </defs>
      <use xlink:href="#DejaVuSans-108"/>
      <use x="27.783203" xlink:href="#DejaVuSans-111"/>
      <use x="88.964844" xlink:href="#DejaVuSans-103"/>
      <use x="152.441406" xlink:href="#DejaVuSans-49"/>
      <use x="216.064453" xlink:href="#DejaVuSans-48"/>
      <use x="279.6875" xlink:href="#DejaVuSans-40"/>
      <use x="318.701172" xlink:href="#DejaVuSans-101"/>
      <use x="380.224609" xlink:href="#DejaVuSans-118"/>
      <use x="439.404297" xlink:href="#DejaVuSans-97"/>
      <use x="500.683594" xlink:href="#DejaVuSans-108"/>
      <use x="528.466797" xlink:href="#DejaVuSans-115"/>
      <use x="580.566406" xlink:href="#DejaVuSans-32"/>
      <use x="612.353516" xlink:href="#DejaVuSans-47"/>
      <use x="646.044922" xlink:href="#DejaVuSans-32"/>
      <use x="677.832031" xlink:href="#DejaVuSans-100"/>
      <use x="741.308594" xlink:href="#DejaVuSans-105"/>
      <use x="769.091797" xlink:href="#DejaVuSans-109"/>
      <use x="866.503906" xlink:href="#DejaVuSans-101"/>
      <use x="928.027344" xlink:href="#DejaVuSans-110"/>
      <use x="991.40625" xlink:href="#DejaVuSans-115"/>
      <use x="1043.505859" xlink:href="#DejaVuSans-105"/>
      <use x="1071.289062" xlink:href="#DejaVuSans-111"/>
      <use x="1132.470703" xlink:href="#DejaVuSans-110"/>
      <use x="1195.849609" xlink:href="#DejaVuSans-41"/>
     </g>
    </g>
   </g>
   <g id="matplotlib.axis_2">
    <g id="ytick_1">
     <g id="line2d_17">
      <path clip-path="url(#p00b1a67f03)" d="M 57.6 298.944 
L 360.8064 298.944 
" style="fill:none;stroke:#b0b0b0;stroke-linecap:square;stroke-width:0.8;"/>
     </g>
     <g id="line2d_18">
      <defs>
       <path d="M 0 0 
L -3.5 0 
" id="m344500881e" style="stroke:#000000;stroke-width:0.8;"/>
      </defs>
      <g>
       <use style="stroke:#000000;stroke-width:0.8;" x="57.6" xlink:href="#m344500881e" y="298.944"/>
      </g>
     </g>
     <g id="text_6">
      <!-- 0.0 -->
      <g transform="translate(25.155 305.02275)scale(0.16 -0.16)">
       <defs>
        <path d="M 10.6875 12.40625 
L 21 12.40625 
L 21 0 
L 10.6875 0 
z
" id="DejaVuSans-46"/>
       </defs>
       <use xlink:href="#DejaVuSans-48"/>
       <use x="63.623047" xlink:href="#DejaVuSans-46"/>
       <use x="95.410156" xlink:href="#DejaVuSans-48"/>
      </g>
     </g>
    </g>
    <g id="ytick_2">
     <g id="line2d_19">
      <path clip-path="url(#p00b1a67f03)" d="M 57.6 244.6848 
L 360.8064 244.6848 
" style="fill:none;stroke:#b0b0b0;stroke-linecap:square;stroke-width:0.8;"/>
     </g>
     <g id="line2d_20">
      <g>
       <use style="stroke:#000000;stroke-width:0.8;" x="57.6" xlink:href="#m344500881e" y="244.6848"/>
      </g>
     </g>
     <g id="text_7">
      <!-- 0.2 -->
      <g transform="translate(25.155 250.76355)scale(0.16 -0.16)">
       <use xlink:href="#DejaVuSans-48"/>
       <use x="63.623047" xlink:href="#DejaVuSans-46"/>
       <use x="95.410156" xlink:href="#DejaVuSans-50"/>
      </g>
     </g>
    </g>
    <g id="ytick_3">
     <g id="line2d_21">
      <path clip-path="url(#p00b1a67f03)" d="M 57.6 190.4256 
L 360.8064 190.4256 
" style="fill:none;stroke:#b0b0b0;stroke-linecap:square;stroke-width:0.8;"/>
     </g>
     <g id="line2d_22">
      <g>
       <use style="stroke:#000000;stroke-width:0.8;" x="57.6" xlink:href="#m344500881e" y="190.4256"/>
      </g>
     </g>
     <g id="text_8">
      <!-- 0.4 -->
      <g transform="translate(25.155 196.50435)scale(0.16 -0.16)">
       <use xlink:href="#DejaVuSans-48"/>
       <use x="63.623047" xlink:href="#DejaVuSans-46"/>
       <use x="95.410156" xlink:href="#DejaVuSans-52"/>
      </g>
     </g>
    </g>
    <g id="ytick_4">
     <g id="line2d_23">
      <path clip-path="url(#p00b1a67f03)" d="M 57.6 136.1664 
L 360.8064 136.1664 
" style="fill:none;stroke:#b0b0b0;stroke-linecap:square;stroke-width:0.8;"/>
     </g>
     <g id="line2d_24">
      <g>
       <use style="stroke:#000000;stroke-width:0.8;" x="57.6" xlink:href="#m344500881e" y="136.1664"/>
      </g>
     </g>
     <g id="text_9">
      <!-- 0.6 -->
      <g transform="translate(25.155 142.24515)scale(0.16 -0.16)">
       <use xlink:href="#DejaVuSans-48"/>
       <use x="63.623047" xlink:href="#DejaVuSans-46"/>
       <use x="95.410156" xlink:href="#DejaVuSans-54"/>
      </g>
     </g>
    </g>
    <g id="ytick_5">
     <g id="line2d_25">
      <path clip-path="url(#p00b1a67f03)" d="M 57.6 81.9072 
L 360.8064 81.9072 
" style="fill:none;stroke:#b0b0b0;stroke-linecap:square;stroke-width:0.8;"/>
     </g>
     <g id="line2d_26">
      <g>
       <use style="stroke:#000000;stroke-width:0.8;" x="57.6" xlink:href="#m344500881e" y="81.9072"/>
      </g>
     </g>
     <g id="text_10">
      <!-- 0.8 -->
      <g transform="translate(25.155 87.98595)scale(0.16 -0.16)">
       <defs>
        <path d="M 31.78125 34.625 
Q 24.75 34.625 20.71875 30.859375 
Q 16.703125 27.09375 16.703125 20.515625 
Q 16.703125 13.921875 20.71875 10.15625 
Q 24.75 6.390625 31.78125 6.390625 
Q 38.8125 6.390625 42.859375 10.171875 
Q 46.921875 13.96875 46.921875 20.515625 
Q 46.921875 27.09375 42.890625 30.859375 
Q 38.875 34.625 31.78125 34.625 
z
M 21.921875 38.8125 
Q 15.578125 40.375 12.03125 44.71875 
Q 8.5 49.078125 8.5 55.328125 
Q 8.5 64.0625 14.71875 69.140625 
Q 20.953125 74.21875 31.78125 74.21875 
Q 42.671875 74.21875 48.875 69.140625 
Q 55.078125 64.0625 55.078125 55.328125 
Q 55.078125 49.078125 51.53125 44.71875 
Q 48 40.375 41.703125 38.8125 
Q 48.828125 37.15625 52.796875 32.3125 
Q 56.78125 27.484375 56.78125 20.515625 
Q 56.78125 9.90625 50.3125 4.234375 
Q 43.84375 -1.421875 31.78125 -1.421875 
Q 19.734375 -1.421875 13.25 4.234375 
Q 6.78125 9.90625 6.78125 20.515625 
Q 6.78125 27.484375 10.78125 32.3125 
Q 14.796875 37.15625 21.921875 38.8125 
z
M 18.3125 54.390625 
Q 18.3125 48.734375 21.84375 45.5625 
Q 25.390625 42.390625 31.78125 42.390625 
Q 38.140625 42.390625 41.71875 45.5625 
Q 45.3125 48.734375 45.3125 54.390625 
Q 45.3125 60.0625 41.71875 63.234375 
Q 38.140625 66.40625 31.78125 66.40625 
Q 25.390625 66.40625 21.84375 63.234375 
Q 18.3125 60.0625 18.3125 54.390625 
z
" id="DejaVuSans-56"/>
       </defs>
       <use xlink:href="#DejaVuSans-48"/>
       <use x="63.623047" xlink:href="#DejaVuSans-46"/>
       <use x="95.410156" xlink:href="#DejaVuSans-56"/>
      </g>
     </g>
    </g>
    <g id="ytick_6">
     <g id="line2d_27">
      <path clip-path="url(#p00b1a67f03)" d="M 57.6 27.648 
L 360.8064 27.648 
" style="fill:none;stroke:#b0b0b0;stroke-linecap:square;stroke-width:0.8;"/>
     </g>
     <g id="line2d_28">
      <g>
       <use style="stroke:#000000;stroke-width:0.8;" x="57.6" xlink:href="#m344500881e" y="27.648"/>
      </g>
     </g>
     <g id="text_11">
      <!-- 1.0 -->
      <g transform="translate(25.155 33.72675)scale(0.16 -0.16)">
       <use xlink:href="#DejaVuSans-49"/>
       <use x="63.623047" xlink:href="#DejaVuSans-46"/>
       <use x="95.410156" xlink:href="#DejaVuSans-48"/>
      </g>
     </g>
    </g>
    <g id="text_12">
     <!-- Fraction of function,target pairs -->
     <g transform="translate(17.619531 297.681)rotate(-90)scale(0.17 -0.17)">
      <defs>
       <path d="M 9.8125 72.90625 
L 51.703125 72.90625 
L 51.703125 64.59375 
L 19.671875 64.59375 
L 19.671875 43.109375 
L 48.578125 43.109375 
L 48.578125 34.8125 
L 19.671875 34.8125 
L 19.671875 0 
L 9.8125 0 
z
" id="DejaVuSans-70"/>
       <path d="M 41.109375 46.296875 
Q 39.59375 47.171875 37.8125 47.578125 
Q 36.03125 48 33.890625 48 
Q 26.265625 48 22.1875 43.046875 
Q 18.109375 38.09375 18.109375 28.8125 
L 18.109375 0 
L 9.078125 0 
L 9.078125 54.6875 
L 18.109375 54.6875 
L 18.109375 46.1875 
Q 20.953125 51.171875 25.484375 53.578125 
Q 30.03125 56 36.53125 56 
Q 37.453125 56 38.578125 55.875 
Q 39.703125 55.765625 41.0625 55.515625 
z
" id="DejaVuSans-114"/>
       <path d="M 48.78125 52.59375 
L 48.78125 44.1875 
Q 44.96875 46.296875 41.140625 47.34375 
Q 37.3125 48.390625 33.40625 48.390625 
Q 24.65625 48.390625 19.8125 42.84375 
Q 14.984375 37.3125 14.984375 27.296875 
Q 14.984375 17.28125 19.8125 11.734375 
Q 24.65625 6.203125 33.40625 6.203125 
Q 37.3125 6.203125 41.140625 7.25 
Q 44.96875 8.296875 48.78125 10.40625 
L 48.78125 2.09375 
Q 45.015625 0.34375 40.984375 -0.53125 
Q 36.96875 -1.421875 32.421875 -1.421875 
Q 20.0625 -1.421875 12.78125 6.34375 
Q 5.515625 14.109375 5.515625 27.296875 
Q 5.515625 40.671875 12.859375 48.328125 
Q 20.21875 56 33.015625 56 
Q 37.15625 56 41.109375 55.140625 
Q 45.0625 54.296875 48.78125 52.59375 
z
" id="DejaVuSans-99"/>
       <path d="M 18.3125 70.21875 
L 18.3125 54.6875 
L 36.8125 54.6875 
L 36.8125 47.703125 
L 18.3125 47.703125 
L 18.3125 18.015625 
Q 18.3125 11.328125 20.140625 9.421875 
Q 21.96875 7.515625 27.59375 7.515625 
L 36.8125 7.515625 
L 36.8125 0 
L 27.59375 0 
Q 17.1875 0 13.234375 3.875 
Q 9.28125 7.765625 9.28125 18.015625 
L 9.28125 47.703125 
L 2.6875 47.703125 
L 2.6875 54.6875 
L 9.28125 54.6875 
L 9.28125 70.21875 
z
" id="DejaVuSans-116"/>
       <path d="M 37.109375 75.984375 
L 37.109375 68.5 
L 28.515625 68.5 
Q 23.6875 68.5 21.796875 66.546875 
Q 19.921875 64.59375 19.921875 59.515625 
L 19.921875 54.6875 
L 34.71875 54.6875 
L 34.71875 47.703125 
L 19.921875 47.703125 
L 19.921875 0 
L 10.890625 0 
L 10.890625 47.703125 
L 2.296875 47.703125 
L 2.296875 54.6875 
L 10.890625 54.6875 
L 10.890625 58.5 
Q 10.890625 67.625 15.140625 71.796875 
Q 19.390625 75.984375 28.609375 75.984375 
z
" id="DejaVuSans-102"/>
       <path d="M 8.5 21.578125 
L 8.5 54.6875 
L 17.484375 54.6875 
L 17.484375 21.921875 
Q 17.484375 14.15625 20.5 10.265625 
Q 23.53125 6.390625 29.59375 6.390625 
Q 36.859375 6.390625 41.078125 11.03125 
Q 45.3125 15.671875 45.3125 23.6875 
L 45.3125 54.6875 
L 54.296875 54.6875 
L 54.296875 0 
L 45.3125 0 
L 45.3125 8.40625 
Q 42.046875 3.421875 37.71875 1 
Q 33.40625 -1.421875 27.6875 -1.421875 
Q 18.265625 -1.421875 13.375 4.4375 
Q 8.5 10.296875 8.5 21.578125 
z
M 31.109375 56 
z
" id="DejaVuSans-117"/>
       <path d="M 11.71875 12.40625 
L 22.015625 12.40625 
L 22.015625 4 
L 14.015625 -11.625 
L 7.71875 -11.625 
L 11.71875 4 
z
" id="DejaVuSans-44"/>
       <path d="M 18.109375 8.203125 
L 18.109375 -20.796875 
L 9.078125 -20.796875 
L 9.078125 54.6875 
L 18.109375 54.6875 
L 18.109375 46.390625 
Q 20.953125 51.265625 25.265625 53.625 
Q 29.59375 56 35.59375 56 
Q 45.5625 56 51.78125 48.09375 
Q 58.015625 40.1875 58.015625 27.296875 
Q 58.015625 14.40625 51.78125 6.484375 
Q 45.5625 -1.421875 35.59375 -1.421875 
Q 29.59375 -1.421875 25.265625 0.953125 
Q 20.953125 3.328125 18.109375 8.203125 
z
M 48.6875 27.296875 
Q 48.6875 37.203125 44.609375 42.84375 
Q 40.53125 48.484375 33.40625 48.484375 
Q 26.265625 48.484375 22.1875 42.84375 
Q 18.109375 37.203125 18.109375 27.296875 
Q 18.109375 17.390625 22.1875 11.75 
Q 26.265625 6.109375 33.40625 6.109375 
Q 40.53125 6.109375 44.609375 11.75 
Q 48.6875 17.390625 48.6875 27.296875 
z
" id="DejaVuSans-112"/>
      </defs>
      <use xlink:href="#DejaVuSans-70"/>
      <use x="50.269531" xlink:href="#DejaVuSans-114"/>
      <use x="91.382812" xlink:href="#DejaVuSans-97"/>
      <use x="152.662109" xlink:href="#DejaVuSans-99"/>
      <use x="207.642578" xlink:href="#DejaVuSans-116"/>
      <use x="246.851562" xlink:href="#DejaVuSans-105"/>
      <use x="274.634766" xlink:href="#DejaVuSans-111"/>
      <use x="335.816406" xlink:href="#DejaVuSans-110"/>
      <use x="399.195312" xlink:href="#DejaVuSans-32"/>
      <use x="430.982422" xlink:href="#DejaVuSans-111"/>
      <use x="492.164062" xlink:href="#DejaVuSans-102"/>
      <use x="527.369141" xlink:href="#DejaVuSans-32"/>
      <use x="559.15625" xlink:href="#DejaVuSans-102"/>
      <use x="594.361328" xlink:href="#DejaVuSans-117"/>
      <use x="657.740234" xlink:href="#DejaVuSans-110"/>
      <use x="721.119141" xlink:href="#DejaVuSans-99"/>
      <use x="776.099609" xlink:href="#DejaVuSans-116"/>
      <use x="815.308594" xlink:href="#DejaVuSans-105"/>
      <use x="843.091797" xlink:href="#DejaVuSans-111"/>
      <use x="904.273438" xlink:href="#DejaVuSans-110"/>
      <use x="967.652344" xlink:href="#DejaVuSans-44"/>
      <use x="999.439453" xlink:href="#DejaVuSans-116"/>
      <use x="1038.648438" xlink:href="#DejaVuSans-97"/>
      <use x="1099.927734" xlink:href="#DejaVuSans-114"/>
      <use x="1139.291016" xlink:href="#DejaVuSans-103"/>
      <use x="1202.767578" xlink:href="#DejaVuSans-101"/>
      <use x="1264.291016" xlink:href="#DejaVuSans-116"/>
      <use x="1303.5" xlink:href="#DejaVuSans-32"/>
      <use x="1335.287109" xlink:href="#DejaVuSans-112"/>
      <use x="1398.763672" xlink:href="#DejaVuSans-97"/>
      <use x="1460.042969" xlink:href="#DejaVuSans-105"/>
      <use x="1487.826172" xlink:href="#DejaVuSans-114"/>
      <use x="1528.939453" xlink:href="#DejaVuSans-115"/>
     </g>
    </g>
   </g>
   <g id="line2d_29">
    <defs>
     <path d="M 0 1.5 
C 0.397805 1.5 0.77937 1.341951 1.06066 1.06066 
C 1.341951 0.77937 1.5 0.397805 1.5 0 
C 1.5 -0.397805 1.341951 -0.77937 1.06066 -1.06066 
C 0.77937 -1.341951 0.397805 -1.5 0 -1.5 
C -0.397805 -1.5 -0.77937 -1.341951 -1.06066 -1.06066 
C -1.341951 -0.77937 -1.5 -0.397805 -1.5 0 
C -1.5 0.397805 -1.341951 0.77937 -1.06066 1.06066 
C -0.77937 1.341951 -0.397805 1.5 0 1.5 
z
" id="md4a4b4531a" style="stroke:#000080;"/>
    </defs>
    <g>
     <use style="fill:#000080;stroke:#000080;" x="304.080945" xlink:href="#md4a4b4531a" y="186.455415"/>
     <use style="fill:#000080;stroke:#000080;" x="304.080945" xlink:href="#md4a4b4531a" y="186.455415"/>
    </g>
   </g>
   <g id="line2d_30">
    <path d="M 92.223596 298.944 
L 92.223596 298.502868 
L 100.342215 298.502868 
L 100.342215 298.061737 
L 103.047088 298.061737 
L 103.047088 297.620605 
L 103.707211 297.620605 
L 103.707211 296.738341 
L 104.187532 296.738341 
L 104.187532 296.29721 
L 105.411479 296.29721 
L 105.411479 295.856078 
L 105.705415 295.856078 
L 105.705415 295.414946 
L 106.974091 295.414946 
L 106.974091 294.973815 
L 107.109915 294.973815 
L 107.109915 294.532683 
L 107.5116 294.532683 
L 107.5116 293.65042 
L 107.643612 293.65042 
L 107.643612 291.885893 
L 107.904887 291.885893 
L 107.904887 291.444761 
L 108.667622 291.444761 
L 108.667622 291.003629 
L 108.915146 291.003629 
L 108.915146 290.562498 
L 109.037698 290.562498 
L 109.037698 288.356839 
L 109.280431 288.356839 
L 109.280431 287.915707 
L 109.873904 287.915707 
L 109.873904 287.474576 
L 110.449226 287.474576 
L 110.449226 287.033444 
L 111.117162 287.033444 
L 111.117162 286.15118 
L 111.762192 286.15118 
L 111.86758 285.268917 
L 112.385837 285.268917 
L 112.385837 284.827785 
L 112.790402 284.827785 
L 112.790402 284.386654 
L 114.141556 284.386654 
L 114.141556 283.945522 
L 114.510421 283.945522 
L 114.510421 283.50439 
L 115.227139 283.50439 
L 115.227139 283.063259 
L 115.489021 283.063259 
L 115.489021 282.622127 
L 115.661605 282.622127 
L 115.661605 281.739863 
L 115.83262 281.739863 
L 115.83262 281.298732 
L 116.086263 281.298732 
L 116.086263 280.8576 
L 117.462345 280.8576 
L 117.462345 280.416468 
L 118.227147 280.416468 
L 118.227147 279.975337 
L 118.376446 279.975337 
L 118.376446 279.534205 
L 118.524569 279.534205 
L 118.598196 277.769678 
L 118.962067 277.769678 
L 118.962067 277.328546 
L 119.177058 277.328546 
L 119.177058 276.887415 
L 119.389621 276.887415 
L 119.389621 276.446283 
L 120.748446 276.446283 
L 120.748446 276.005151 
L 121.581803 276.005151 
L 121.581803 275.56402 
L 122.259215 275.56402 
L 122.259215 275.122888 
L 122.736994 275.122888 
L 122.736994 274.681756 
L 123.202939 274.681756 
L 123.202939 274.240624 
L 124.101572 274.240624 
L 124.101572 273.799493 
L 126.661432 273.799493 
L 126.661432 273.358361 
L 127.319904 273.358361 
L 127.319904 272.917229 
L 128.441306 272.917229 
L 128.441306 272.476098 
L 137.681345 272.476098 
L 137.681345 272.034966 
L 140.972924 272.034966 
L 140.972924 271.593834 
L 141.349389 271.593834 
L 141.349389 271.152702 
L 142.206555 271.152702 
L 142.206555 270.711571 
L 146.487839 270.711571 
L 146.487839 270.270439 
L 146.900389 270.270439 
L 146.900389 269.829307 
L 147.062909 269.829307 
L 147.062909 269.388176 
L 147.256098 269.388176 
L 147.256098 268.947044 
L 147.431461 268.947044 
L 147.431461 268.505912 
L 148.360233 268.505912 
L 148.360233 268.06478 
L 148.630152 268.06478 
L 148.630152 267.623649 
L 153.860504 267.623649 
L 153.860504 267.182517 
L 155.603661 267.182517 
L 155.603661 266.741385 
L 158.485114 266.741385 
L 158.485114 266.300254 
L 158.90365 266.300254 
L 158.90365 265.859122 
L 159.032556 265.859122 
L 159.032556 265.41799 
L 159.194578 265.41799 
L 159.194578 264.976859 
L 160.219039 264.976859 
L 160.219039 264.535727 
L 160.434898 264.535727 
L 160.530046 263.653463 
L 160.593212 263.653463 
L 160.593212 263.212332 
L 164.53934 263.212332 
L 164.53934 262.7712 
L 165.826761 262.7712 
L 165.826761 261.888937 
L 166.1287 261.888937 
L 166.152178 261.006673 
L 166.356368 261.006673 
L 166.356368 260.12441 
L 166.483591 260.12441 
L 166.483591 259.683278 
L 166.955967 259.683278 
L 166.955967 259.242146 
L 168.953693 259.242146 
L 168.953693 258.801015 
L 175.097141 258.801015 
L 175.148116 257.918751 
L 175.721083 257.918751 
L 175.721083 257.47762 
L 177.225318 257.47762 
L 177.225318 257.036488 
L 177.380961 257.036488 
L 177.380961 256.595356 
L 177.519305 256.595356 
L 177.519305 256.154224 
L 181.363316 256.154224 
L 181.363316 255.713093 
L 182.794322 255.713093 
L 182.794322 255.271961 
L 189.786347 255.271961 
L 189.889598 254.389698 
L 193.326406 254.389698 
L 193.326406 253.948566 
L 196.723849 253.948566 
L 196.771139 252.625171 
L 197.566231 252.625171 
L 197.566231 252.184039 
L 198.078753 252.184039 
L 198.078753 251.742907 
L 199.997239 251.742907 
L 199.997239 250.860644 
L 200.394762 250.860644 
L 200.394762 250.419512 
L 202.718762 250.419512 
L 202.718762 249.97838 
L 202.925035 249.97838 
L 202.925035 249.537249 
L 205.8988 249.537249 
L 205.8988 249.096117 
L 206.847035 249.096117 
L 206.847035 248.654985 
L 208.716736 248.654985 
L 208.716736 248.213854 
L 210.920511 248.213854 
L 210.942217 247.33159 
L 211.051453 247.33159 
L 211.051453 246.890459 
L 211.973957 246.890459 
L 212.021131 246.008195 
L 212.248159 246.008195 
L 212.248159 245.567063 
L 214.995128 245.567063 
L 214.995128 245.125932 
L 215.34878 245.125932 
L 215.373651 243.802537 
L 217.419301 243.802537 
L 217.482998 239.832351 
L 218.959236 239.832351 
L 218.959236 239.39122 
L 220.778164 239.39122 
L 220.778164 238.950088 
L 223.759626 238.950088 
L 223.759626 238.508956 
L 224.62605 238.508956 
L 224.637315 236.744429 
L 225.385615 236.744429 
L 225.424834 232.774244 
L 227.143682 232.774244 
L 227.143682 232.333112 
L 227.254979 232.333112 
L 227.254979 231.89198 
L 229.183681 231.89198 
L 229.23523 230.568585 
L 230.033112 230.568585 
L 230.033112 230.127454 
L 230.151081 230.127454 
L 230.151081 229.686322 
L 231.016758 229.686322 
L 231.026084 228.804059 
L 231.409175 228.804059 
L 231.409175 228.362927 
L 231.564838 228.362927 
L 231.564838 227.921795 
L 232.975633 227.921795 
L 232.975633 227.480663 
L 233.79844 227.480663 
L 233.79844 227.039532 
L 235.573788 227.039532 
L 235.573788 226.5984 
L 235.995921 226.5984 
L 235.995921 225.716137 
L 236.824643 225.716137 
L 236.824643 225.275005 
L 237.774113 225.275005 
L 237.781667 224.392741 
L 238.428249 224.392741 
L 238.447991 223.069346 
L 239.593938 223.069346 
L 239.593938 222.628215 
L 240.746167 222.628215 
L 240.746167 222.187083 
L 241.102203 222.187083 
L 241.106895 219.981424 
L 241.430454 219.981424 
L 241.439032 218.216898 
L 242.192033 218.216898 
L 242.242126 216.893502 
L 243.136164 216.893502 
L 243.136164 216.452371 
L 243.545539 216.452371 
L 243.60315 215.128976 
L 246.999883 215.128976 
L 246.999883 214.246712 
L 248.110589 214.246712 
L 248.110589 213.364449 
L 248.415499 213.364449 
L 248.415499 212.482185 
L 248.810294 212.482185 
L 248.810294 212.041054 
L 249.748621 212.041054 
L 249.748621 211.599922 
L 249.956582 211.599922 
L 249.959308 208.070868 
L 250.476493 208.070868 
L 250.476493 207.629737 
L 253.679436 207.629737 
L 253.679436 207.188605 
L 253.790708 207.188605 
L 253.790708 206.747473 
L 254.462951 206.747473 
L 254.471371 205.424078 
L 254.68512 205.424078 
L 254.68512 204.982946 
L 255.652049 204.982946 
L 255.652049 204.541815 
L 255.802074 204.541815 
L 255.804072 203.21842 
L 259.209722 203.21842 
L 259.209722 202.777288 
L 260.255277 202.777288 
L 260.258431 201.012761 
L 263.853472 201.012761 
L 263.856077 198.807102 
L 264.395842 198.807102 
L 264.395842 198.365971 
L 264.540065 198.365971 
L 264.540065 197.924839 
L 266.872685 197.924839 
L 266.872685 197.483707 
L 269.474639 197.483707 
L 269.474639 197.042576 
L 271.758329 197.042576 
L 271.76004 195.71918 
L 273.796858 195.71918 
L 273.796858 195.278049 
L 275.17862 195.278049 
L 275.17862 194.836917 
L 279.911215 194.836917 
L 279.911215 194.395785 
L 281.25769 194.395785 
L 281.25769 193.954654 
L 281.587802 193.954654 
L 281.587802 193.07239 
L 283.980137 193.07239 
L 283.980137 192.631259 
L 285.071323 192.631259 
L 285.071323 192.190127 
L 286.834809 192.190127 
L 286.834809 191.748995 
L 287.080397 191.748995 
L 287.080397 191.307863 
L 288.01017 191.307863 
L 288.01017 190.866732 
L 288.895457 190.866732 
L 288.895457 190.4256 
L 289.741605 190.4256 
L 289.741605 189.984468 
L 290.550695 189.984468 
L 290.550695 189.543337 
L 292.072285 189.543337 
L 292.072285 189.102205 
L 293.479417 189.102205 
L 293.479417 188.661073 
L 294.145515 188.661073 
L 294.145515 188.219941 
L 295.411116 188.219941 
L 295.411116 187.77881 
L 298.76456 187.77881 
L 298.76456 187.337678 
L 300.708407 187.337678 
L 300.708407 186.896546 
L 304.080945 186.896546 
L 304.080945 186.455415 
L 360.8064 186.455415 
L 360.8064 186.455415 
" style="fill:none;stroke:#000080;stroke-linecap:square;stroke-width:1.5;"/>
   </g>
   <g id="line2d_31">
    <defs>
     <path d="M 0 6 
C 1.591219 6 3.117479 5.367802 4.242641 4.242641 
C 5.367802 3.117479 6 1.591219 6 0 
C 6 -1.591219 5.367802 -3.117479 4.242641 -4.242641 
C 3.117479 -5.367802 1.591219 -6 0 -6 
C -1.591219 -6 -3.117479 -5.367802 -4.242641 -4.242641 
C -5.367802 -3.117479 -6 -1.591219 -6 0 
C -6 1.591219 -5.367802 3.117479 -4.242641 4.242641 
C -3.117479 5.367802 -1.591219 6 0 6 
z
" id="m2f1709e21f" style="stroke:#000080;stroke-width:1.5;"/>
    </defs>
    <g>
     <use style="fill-opacity:0;stroke:#000080;stroke-width:1.5;" x="196.771139" xlink:href="#m2f1709e21f" y="253.507434"/>
     <use style="fill-opacity:0;stroke:#000080;stroke-width:1.5;" x="259.209722" xlink:href="#m2f1709e21f" y="203.21842"/>
     <use style="fill-opacity:0;stroke:#000080;stroke-width:1.5;" x="304.080945" xlink:href="#m2f1709e21f" y="186.455415"/>
     <use style="fill-opacity:0;stroke:#000080;stroke-width:1.5;" x="304.080945" xlink:href="#m2f1709e21f" y="186.455415"/>
     <use style="fill-opacity:0;stroke:#000080;stroke-width:1.5;" x="360.8064" xlink:href="#m2f1709e21f" y="186.455415"/>
    </g>
   </g>
   <g id="line2d_32">
    <path style="fill:none;stroke:#000080;stroke-linecap:square;stroke-width:1.5;"/>
    <g/>
   </g>
   <g id="line2d_33">
    <path clip-path="url(#p00b1a67f03)" d="M 230.968002 229.686322 
" style="fill:none;stroke:#000080;stroke-linecap:square;stroke-width:1.5;"/>
    <defs>
     <path d="M -12 12 
L 12 -12 
M -12 -12 
L 12 12 
" id="m1bd35a299e" style="stroke:#000080;"/>
    </defs>
    <g clip-path="url(#p00b1a67f03)">
     <use style="fill:#000080;stroke:#000080;" x="230.968002" xlink:href="#m1bd35a299e" y="229.686322"/>
    </g>
   </g>
   <g id="line2d_34">
    <defs>
     <path d="M 0 1.5 
C 0.397805 1.5 0.77937 1.341951 1.06066 1.06066 
C 1.341951 0.77937 1.5 0.397805 1.5 0 
C 1.5 -0.397805 1.341951 -0.77937 1.06066 -1.06066 
C 0.77937 -1.341951 0.397805 -1.5 0 -1.5 
C -0.397805 -1.5 -0.77937 -1.341951 -1.06066 -1.06066 
C -1.341951 -0.77937 -1.5 -0.397805 -1.5 0 
C -1.5 0.397805 -1.341951 0.77937 -1.06066 1.06066 
C -0.77937 1.341951 -0.397805 1.5 0 1.5 
z
" id="m87e114a491" style="stroke:#ff00ff;"/>
    </defs>
    <g>
     <use style="fill:#ff00ff;stroke:#ff00ff;" x="266.864862" xlink:href="#m87e114a491" y="212.923317"/>
     <use style="fill:#ff00ff;stroke:#ff00ff;" x="266.864862" xlink:href="#m87e114a491" y="212.923317"/>
    </g>
   </g>
   <g id="line2d_35">
    <path d="M 102.187964 298.944 
L 102.187964 298.061737 
L 102.362957 298.061737 
L 102.362957 297.620605 
L 106.560633 297.620605 
L 106.560633 297.179473 
L 107.643612 297.179473 
L 107.643612 296.738341 
L 110.786158 296.738341 
L 110.786158 294.091551 
L 111.007473 294.091551 
L 111.007473 292.768156 
L 112.690074 292.768156 
L 112.690074 292.327024 
L 113.381389 292.327024 
L 113.381389 291.885893 
L 113.57433 291.885893 
L 113.57433 290.121366 
L 113.765312 290.121366 
L 113.860081 289.239102 
L 113.954374 289.239102 
L 113.954374 288.797971 
L 115.917548 288.797971 
L 115.917548 288.356839 
L 116.988079 288.356839 
L 116.988079 287.915707 
L 117.924947 287.915707 
L 117.924947 287.474576 
L 118.889854 287.474576 
L 118.889854 286.592312 
L 119.24818 286.592312 
L 119.24818 286.15118 
L 119.944983 286.15118 
L 119.944983 285.710049 
L 120.216635 285.710049 
L 120.216635 285.268917 
L 120.550775 285.268917 
L 120.550775 284.827785 
L 120.748446 284.827785 
L 120.748446 284.386654 
L 121.644403 284.386654 
L 121.706797 283.063259 
L 122.439807 283.063259 
L 122.439807 282.622127 
L 122.559246 282.622127 
L 122.559246 282.180995 
L 123.769595 282.180995 
L 123.769595 281.739863 
L 123.880906 281.739863 
L 123.880906 281.298732 
L 124.210942 281.298732 
L 124.210942 280.8576 
L 124.535287 280.8576 
L 124.535287 280.416468 
L 124.906754 280.416468 
L 125.011554 277.769678 
L 125.322496 277.769678 
L 125.322496 276.887415 
L 125.526971 276.887415 
L 125.526971 276.005151 
L 127.821575 276.005151 
L 127.821575 275.56402 
L 128.222309 275.56402 
L 128.266313 274.681756 
L 129.041269 274.681756 
L 129.041269 274.240624 
L 129.167381 274.240624 
L 129.167381 273.799493 
L 129.334225 273.799493 
L 129.334225 273.358361 
L 129.581749 273.358361 
L 129.581749 272.917229 
L 129.826058 272.917229 
L 129.826058 272.476098 
L 129.947033 272.476098 
L 130.027253 271.593834 
L 130.265881 271.593834 
L 130.265881 271.152702 
L 130.811181 271.152702 
L 130.811181 270.711571 
L 131.040128 270.711571 
L 131.040128 270.270439 
L 131.228811 270.270439 
L 131.228811 269.829307 
L 133.72196 269.829307 
L 133.72196 269.388176 
L 134.047992 269.388176 
L 134.047992 268.947044 
L 134.652304 268.947044 
L 134.652304 268.505912 
L 135.568632 268.505912 
L 135.568632 268.06478 
L 135.717106 268.06478 
L 135.717106 267.623649 
L 136.010584 267.623649 
L 136.010584 266.741385 
L 136.356818 266.741385 
L 136.356818 266.300254 
L 136.947806 266.300254 
L 136.947806 265.859122 
L 138.10291 265.859122 
L 138.154948 264.976859 
L 138.335954 264.976859 
L 138.335954 264.094595 
L 138.718057 264.094595 
L 138.718057 263.653463 
L 140.243172 263.653463 
L 140.243172 263.212332 
L 140.702573 263.212332 
L 140.702573 262.7712 
L 141.039908 262.7712 
L 141.039908 262.330068 
L 141.173167 262.330068 
L 141.173167 261.888937 
L 144.342932 261.888937 
L 144.417581 261.006673 
L 145.954802 261.006673 
L 145.954802 260.565541 
L 147.070998 260.565541 
L 147.070998 260.12441 
L 147.343984 260.12441 
L 147.343984 259.683278 
L 147.816265 259.683278 
L 147.816265 259.242146 
L 149.820013 259.242146 
L 149.820013 258.801015 
L 150.056115 258.801015 
L 150.056115 258.359883 
L 150.600232 258.359883 
L 150.613636 257.47762 
L 150.985103 257.47762 
L 151.011358 256.595356 
L 152.727811 256.595356 
L 152.727811 256.154224 
L 154.190197 256.154224 
L 154.190197 255.713093 
L 154.552285 255.713093 
L 154.552285 255.271961 
L 154.854139 255.271961 
L 154.854139 254.830829 
L 156.085579 254.830829 
L 156.085579 254.389698 
L 156.383708 254.389698 
L 156.383708 253.948566 
L 156.822226 253.948566 
L 156.822226 253.507434 
L 156.966156 253.507434 
L 156.966156 253.066302 
L 157.943962 253.066302 
L 157.943962 252.625171 
L 158.169469 252.625171 
L 158.169469 252.184039 
L 161.285788 252.184039 
L 161.316153 251.301776 
L 162.866174 251.301776 
L 162.866174 250.860644 
L 164.233297 250.860644 
L 164.233297 250.419512 
L 164.796406 250.419512 
L 164.796406 249.537249 
L 165.695002 249.537249 
L 165.695002 249.096117 
L 166.140442 249.096117 
L 166.140442 248.654985 
L 166.373767 248.654985 
L 166.466293 247.772722 
L 167.356346 247.772722 
L 167.356346 247.33159 
L 167.531594 247.33159 
L 167.531594 246.890459 
L 169.745458 246.890459 
L 169.745458 246.449327 
L 170.978599 246.449327 
L 170.978599 246.008195 
L 171.159263 246.008195 
L 171.195189 245.125932 
L 171.329302 245.125932 
L 171.329302 244.6848 
L 172.343812 244.6848 
L 172.343812 244.243668 
L 174.026299 244.243668 
L 174.026299 243.802537 
L 174.5365 243.802537 
L 174.5365 243.361405 
L 174.864184 243.361405 
L 174.864184 242.920273 
L 175.334451 242.920273 
L 175.334451 242.479141 
L 175.445731 242.479141 
L 175.445731 242.03801 
L 175.722847 242.03801 
L 175.722847 241.596878 
L 176.023726 241.596878 
L 176.023726 241.155746 
L 176.496696 241.155746 
L 176.496696 240.714615 
L 178.452611 240.714615 
L 178.452611 240.273483 
L 178.604514 240.273483 
L 178.604514 239.832351 
L 179.697731 239.832351 
L 179.697731 239.39122 
L 181.363316 239.39122 
L 181.363316 238.950088 
L 181.741008 238.950088 
L 181.741008 238.508956 
L 181.987812 238.508956 
L 181.987812 238.067824 
L 182.85718 238.067824 
L 182.85718 237.626693 
L 183.051672 237.626693 
L 183.051672 237.185561 
L 183.48615 237.185561 
L 183.48615 236.744429 
L 184.234363 236.744429 
L 184.234363 236.303298 
L 189.928585 236.303298 
L 189.928585 235.862166 
L 190.556076 235.862166 
L 190.556076 235.421034 
L 191.101124 235.421034 
L 191.141568 234.097639 
L 195.471013 234.097639 
L 195.477184 233.215376 
L 195.612436 233.215376 
L 195.691902 232.333112 
L 196.621365 232.333112 
L 196.621365 231.89198 
L 197.105106 231.89198 
L 197.105106 231.450849 
L 201.031838 231.450849 
L 201.031838 231.009717 
L 202.460466 231.009717 
L 202.460466 230.568585 
L 203.407572 230.568585 
L 203.453658 229.24519 
L 204.146526 229.24519 
L 204.146526 228.804059 
L 204.692694 228.804059 
L 204.692694 228.362927 
L 204.96069 228.362927 
L 204.96069 227.921795 
L 205.109915 227.921795 
L 205.109915 227.480663 
L 206.383557 227.480663 
L 206.383557 227.039532 
L 209.495805 227.039532 
L 209.501076 226.157268 
L 210.132677 226.157268 
L 210.15927 224.833873 
L 211.174528 224.833873 
L 211.174528 224.392741 
L 211.743835 224.392741 
L 211.743835 223.95161 
L 212.275209 223.95161 
L 212.275209 223.510478 
L 212.873896 223.510478 
L 212.875364 222.628215 
L 216.352201 222.628215 
L 216.352201 222.187083 
L 216.755857 222.187083 
L 216.759838 221.30482 
L 219.778528 221.30482 
L 219.778528 220.863688 
L 220.772698 220.863688 
L 220.772698 220.422556 
L 225.020446 220.422556 
L 225.020446 219.981424 
L 227.907297 219.981424 
L 227.907297 219.540293 
L 231.472287 219.540293 
L 231.472287 219.099161 
L 232.182902 219.099161 
L 232.182902 218.658029 
L 236.587504 218.658029 
L 236.587504 218.216898 
L 238.1496 218.216898 
L 238.1496 217.775766 
L 239.185168 217.775766 
L 239.185168 217.334634 
L 240.105682 217.334634 
L 240.105682 216.893502 
L 241.404964 216.893502 
L 241.404964 216.452371 
L 241.64242 216.452371 
L 241.64242 216.011239 
L 242.675769 216.011239 
L 242.675769 215.570107 
L 244.583434 215.570107 
L 244.583434 215.128976 
L 245.476661 215.128976 
L 245.476661 214.687844 
L 254.83519 214.687844 
L 254.83519 214.246712 
L 260.281164 214.246712 
L 260.281164 213.80558 
L 262.509762 213.80558 
L 262.509762 213.364449 
L 266.864862 213.364449 
L 266.864862 212.923317 
L 360.8064 212.923317 
L 360.8064 212.923317 
" style="fill:none;stroke:#ff00ff;stroke-linecap:square;stroke-width:1.5;"/>
   </g>
   <g id="line2d_36">
    <defs>
     <path d="M -0 8.485281 
L 5.091169 0 
L 0 -8.485281 
L -5.091169 -0 
z
" id="m48e871ff42" style="stroke:#ff00ff;stroke-linejoin:miter;stroke-width:1.5;"/>
    </defs>
    <g>
     <use style="fill-opacity:0;stroke:#ff00ff;stroke-linejoin:miter;stroke-width:1.5;" x="151.011358" xlink:href="#m48e871ff42" y="257.036488"/>
     <use style="fill-opacity:0;stroke:#ff00ff;stroke-linejoin:miter;stroke-width:1.5;" x="210.15927" xlink:href="#m48e871ff42" y="224.833873"/>
     <use style="fill-opacity:0;stroke:#ff00ff;stroke-linejoin:miter;stroke-width:1.5;" x="266.864862" xlink:href="#m48e871ff42" y="213.364449"/>
     <use style="fill-opacity:0;stroke:#ff00ff;stroke-linejoin:miter;stroke-width:1.5;" x="266.864862" xlink:href="#m48e871ff42" y="212.923317"/>
     <use style="fill-opacity:0;stroke:#ff00ff;stroke-linejoin:miter;stroke-width:1.5;" x="360.8064" xlink:href="#m48e871ff42" y="212.923317"/>
    </g>
   </g>
   <g id="line2d_37">
    <path style="fill:none;stroke:#ff00ff;stroke-linecap:square;stroke-width:1.5;"/>
    <g/>
   </g>
   <g id="line2d_38">
    <path clip-path="url(#p00b1a67f03)" d="M 187.5691 236.303298 
" style="fill:none;stroke:#ff00ff;stroke-linecap:square;stroke-width:1.5;"/>
    <defs>
     <path d="M -12 12 
L 12 -12 
M -12 -12 
L 12 12 
" id="m1535fa29b7" style="stroke:#ff00ff;"/>
    </defs>
    <g clip-path="url(#p00b1a67f03)">
     <use style="fill:#ff00ff;stroke:#ff00ff;" x="187.5691" xlink:href="#m1535fa29b7" y="236.303298"/>
    </g>
   </g>
   <g id="line2d_39">
    <defs>
     <path d="M 0 1.5 
C 0.397805 1.5 0.77937 1.341951 1.06066 1.06066 
C 1.341951 0.77937 1.5 0.397805 1.5 0 
C 1.5 -0.397805 1.341951 -0.77937 1.06066 -1.06066 
C 0.77937 -1.341951 0.397805 -1.5 0 -1.5 
C -0.397805 -1.5 -0.77937 -1.341951 -1.06066 -1.06066 
C -1.341951 -0.77937 -1.5 -0.397805 -1.5 0 
C -1.5 0.397805 -1.341951 0.77937 -1.06066 1.06066 
C -0.77937 1.341951 -0.397805 1.5 0 1.5 
z
" id="m8f9055c4e8" style="stroke:#ff7500;"/>
    </defs>
    <g>
     <use style="fill:#ff7500;stroke:#ff7500;" x="311.616958" xlink:href="#m8f9055c4e8" y="173.221463"/>
     <use style="fill:#ff7500;stroke:#ff7500;" x="311.616958" xlink:href="#m8f9055c4e8" y="173.221463"/>
    </g>
   </g>
   <g id="line2d_40">
    <path d="M 126.250102 298.944 
L 126.250102 298.502868 
L 129.375706 298.502868 
L 129.375706 298.061737 
L 129.826058 298.061737 
L 129.826058 297.620605 
L 130.24611 297.620605 
L 130.24611 297.179473 
L 132.305093 297.179473 
L 132.305093 295.856078 
L 133.771227 295.856078 
L 133.771227 295.414946 
L 136.766857 295.414946 
L 136.766857 294.973815 
L 137.304564 294.973815 
L 137.304564 294.532683 
L 140.860749 294.532683 
L 140.860749 293.65042 
L 141.84702 293.65042 
L 141.84702 292.768156 
L 143.715505 292.768156 
L 143.715505 292.327024 
L 143.91742 292.327024 
L 143.91742 291.885893 
L 144.069818 291.885893 
L 144.069818 291.444761 
L 144.667357 291.444761 
L 144.667357 291.003629 
L 145.013368 291.003629 
L 145.013368 290.562498 
L 145.432709 290.562498 
L 145.432709 290.121366 
L 147.955668 290.121366 
L 147.955668 289.680234 
L 149.903682 289.680234 
L 149.903682 289.239102 
L 150.056115 289.239102 
L 150.083698 287.033444 
L 150.978534 287.033444 
L 150.978534 286.592312 
L 151.668766 286.592312 
L 151.668766 286.15118 
L 151.895414 286.15118 
L 151.895414 285.268917 
L 153.31139 285.268917 
L 153.31139 284.827785 
L 153.871775 284.827785 
L 153.871775 284.386654 
L 155.608798 284.386654 
L 155.608798 283.945522 
L 156.120605 283.945522 
L 156.120605 283.063259 
L 156.609116 283.063259 
L 156.609116 282.180995 
L 157.480023 282.180995 
L 157.480023 281.739863 
L 162.595297 281.739863 
L 162.595297 281.298732 
L 162.911524 281.298732 
L 162.911524 280.8576 
L 163.809588 280.8576 
L 163.809588 280.416468 
L 163.922193 280.416468 
L 163.928796 279.093073 
L 164.07675 279.093073 
L 164.07675 278.21081 
L 164.223551 278.21081 
L 164.223551 277.769678 
L 164.369214 277.769678 
L 164.369214 276.887415 
L 164.513759 276.887415 
L 164.513759 276.446283 
L 165.544147 276.446283 
L 165.544147 276.005151 
L 167.048476 276.005151 
L 167.048476 275.122888 
L 167.807563 275.122888 
L 167.807563 274.681756 
L 168.047747 274.681756 
L 168.047747 274.240624 
L 168.490639 274.240624 
L 168.490639 273.358361 
L 168.691586 273.358361 
L 168.691586 272.476098 
L 169.204718 272.476098 
L 169.304197 270.270439 
L 177.169885 270.270439 
L 177.169885 269.829307 
L 177.602465 269.829307 
L 177.602465 269.388176 
L 177.737611 269.388176 
L 177.737611 268.505912 
L 178.342476 268.505912 
L 178.342476 268.06478 
L 178.496789 268.06478 
L 178.496789 267.182517 
L 179.173747 267.182517 
L 179.173747 266.741385 
L 179.529968 266.741385 
L 179.529968 264.976859 
L 180.257464 264.976859 
L 180.257464 264.535727 
L 182.190204 264.535727 
L 182.200204 263.212332 
L 182.906594 263.212332 
L 182.906594 262.7712 
L 183.0182 262.7712 
L 183.06958 261.888937 
L 183.142227 261.888937 
L 183.19327 261.006673 
L 183.431215 261.006673 
L 183.431215 260.12441 
L 183.876555 260.12441 
L 183.955267 259.242146 
L 184.163569 259.242146 
L 184.163569 258.801015 
L 184.48726 258.801015 
L 184.48726 258.359883 
L 185.08841 258.359883 
L 185.13658 257.47762 
L 185.67302 257.47762 
L 185.67302 257.036488 
L 185.859121 257.036488 
L 185.859121 256.595356 
L 187.840499 256.595356 
L 187.840499 256.154224 
L 188.217265 256.154224 
L 188.217265 254.389698 
L 188.877168 254.389698 
L 188.877168 253.948566 
L 190.138717 253.948566 
L 190.138717 253.066302 
L 193.767362 253.066302 
L 193.767362 252.184039 
L 195.785607 252.184039 
L 195.785607 251.742907 
L 196.234815 251.742907 
L 196.234815 251.301776 
L 196.524157 251.301776 
L 196.524157 250.419512 
L 196.799916 250.419512 
L 196.799916 248.654985 
L 197.051274 248.654985 
L 197.071125 246.008195 
L 197.498194 246.008195 
L 197.498194 245.567063 
L 197.704859 245.567063 
L 197.704859 245.125932 
L 200.036016 245.125932 
L 200.104166 244.243668 
L 200.288046 244.243668 
L 200.288046 243.802537 
L 200.851874 243.802537 
L 200.851874 243.361405 
L 201.728758 243.361405 
L 201.728758 242.920273 
L 204.315443 242.920273 
L 204.315443 242.479141 
L 205.245489 242.479141 
L 205.245489 241.155746 
L 208.094892 241.155746 
L 208.109084 240.273483 
L 208.546259 240.273483 
L 208.546259 239.832351 
L 209.251456 239.832351 
L 209.278137 238.508956 
L 209.441257 238.508956 
L 209.441257 238.067824 
L 210.348849 238.067824 
L 210.348849 237.626693 
L 210.741567 237.626693 
L 210.741567 237.185561 
L 211.470565 237.185561 
L 211.470565 236.303298 
L 213.077611 236.303298 
L 213.077611 235.862166 
L 213.617599 235.862166 
L 213.617599 235.421034 
L 213.913291 235.421034 
L 213.913291 234.538771 
L 214.066878 234.538771 
L 214.066878 234.097639 
L 214.367177 234.097639 
L 214.462323 232.774244 
L 218.769876 232.774244 
L 218.769876 232.333112 
L 220.799854 232.333112 
L 220.852288 230.568585 
L 223.619855 230.568585 
L 223.619855 230.127454 
L 224.662046 230.127454 
L 224.662046 228.362927 
L 225.212681 228.362927 
L 225.212681 227.921795 
L 225.387502 227.921795 
L 225.387502 227.480663 
L 225.565824 227.480663 
L 225.565824 226.157268 
L 225.700692 226.157268 
L 225.700692 224.392741 
L 226.07207 224.392741 
L 226.175518 223.510478 
L 226.968089 223.510478 
L 226.968089 223.069346 
L 227.089164 223.069346 
L 227.089164 222.628215 
L 229.866168 222.628215 
L 229.866168 222.187083 
L 232.05084 222.187083 
L 232.053489 219.540293 
L 232.348836 219.540293 
L 232.447042 218.658029 
L 233.710293 218.658029 
L 233.812274 216.452371 
L 235.154396 216.452371 
L 235.154396 216.011239 
L 236.043395 216.011239 
L 236.088756 212.923317 
L 237.27563 212.923317 
L 237.27563 212.482185 
L 237.435992 212.482185 
L 237.43639 211.599922 
L 238.812118 211.599922 
L 238.812118 211.15879 
L 241.055159 211.15879 
L 241.056964 208.953132 
L 241.439086 208.953132 
L 241.498597 205.86521 
L 242.108523 205.86521 
L 242.108885 204.982946 
L 244.507773 204.982946 
L 244.507773 204.541815 
L 244.625202 204.541815 
L 244.625202 204.100683 
L 245.381753 204.100683 
L 245.450738 202.777288 
L 246.695188 202.777288 
L 246.695188 202.336156 
L 246.988872 202.336156 
L 246.988872 201.895024 
L 249.411545 201.895024 
L 249.411545 201.453893 
L 249.925028 201.453893 
L 249.961591 200.571629 
L 250.354923 200.571629 
L 250.354923 200.130498 
L 252.542075 200.130498 
L 252.574308 198.807102 
L 253.418667 198.807102 
L 253.418667 198.365971 
L 255.776852 198.365971 
L 255.778478 196.160312 
L 256.067105 196.160312 
L 256.067105 195.71918 
L 257.731453 195.71918 
L 257.732422 194.836917 
L 258.378216 194.836917 
L 258.390998 193.954654 
L 260.050979 193.954654 
L 260.052274 193.07239 
L 260.213437 193.07239 
L 260.214919 191.307863 
L 261.753483 191.307863 
L 261.773007 189.984468 
L 262.650186 189.984468 
L 262.650186 189.543337 
L 263.66738 189.543337 
L 263.66738 189.102205 
L 265.093379 189.102205 
L 265.09908 188.219941 
L 265.546268 188.219941 
L 265.546268 187.77881 
L 266.812542 187.77881 
L 266.812709 186.896546 
L 269.408187 186.896546 
L 269.408187 186.455415 
L 270.365624 186.455415 
L 270.379728 185.13202 
L 270.712983 185.13202 
L 270.712983 184.690888 
L 272.53967 184.690888 
L 272.54046 183.367493 
L 274.487707 183.367493 
L 274.495199 182.044098 
L 276.252312 182.044098 
L 276.259715 181.161834 
L 279.352361 181.161834 
L 279.352361 180.720702 
L 282.012233 180.720702 
L 282.020473 179.397307 
L 284.349208 179.397307 
L 284.349208 178.956176 
L 285.408219 178.956176 
L 285.408219 178.515044 
L 286.416577 178.515044 
L 286.419742 177.63278 
L 287.376355 177.63278 
L 287.378533 176.309385 
L 292.978326 176.309385 
L 292.980525 175.427122 
L 294.317539 175.427122 
L 294.317539 174.98599 
L 294.952273 174.98599 
L 294.952273 174.544859 
L 303.358758 174.544859 
L 303.358758 174.103727 
L 305.610111 174.103727 
L 305.610111 173.662595 
L 311.616958 173.662595 
L 311.616958 173.221463 
L 360.8064 173.221463 
L 360.8064 173.221463 
" style="fill:none;stroke:#ff7500;stroke-linecap:square;stroke-width:1.5;"/>
   </g>
   <g id="line2d_41">
    <defs>
     <path d="M 0 -6 
L -1.347084 -1.854102 
L -5.706339 -1.854102 
L -2.179628 0.708204 
L -3.526712 4.854102 
L -0 2.291796 
L 3.526712 4.854102 
L 2.179628 0.708204 
L 5.706339 -1.854102 
L 1.347084 -1.854102 
z
" id="mb0cae9ae5a" style="stroke:#ff7500;stroke-linejoin:bevel;stroke-width:1.5;"/>
    </defs>
    <g>
     <use style="fill-opacity:0;stroke:#ff7500;stroke-linejoin:bevel;stroke-width:1.5;" x="196.234815" xlink:href="#mb0cae9ae5a" y="251.742907"/>
     <use style="fill-opacity:0;stroke:#ff7500;stroke-linejoin:bevel;stroke-width:1.5;" x="250.354923" xlink:href="#mb0cae9ae5a" y="200.571629"/>
     <use style="fill-opacity:0;stroke:#ff7500;stroke-linejoin:bevel;stroke-width:1.5;" x="311.616958" xlink:href="#mb0cae9ae5a" y="173.662595"/>
     <use style="fill-opacity:0;stroke:#ff7500;stroke-linejoin:bevel;stroke-width:1.5;" x="311.616958" xlink:href="#mb0cae9ae5a" y="173.221463"/>
     <use style="fill-opacity:0;stroke:#ff7500;stroke-linejoin:bevel;stroke-width:1.5;" x="360.8064" xlink:href="#mb0cae9ae5a" y="173.221463"/>
    </g>
   </g>
   <g id="line2d_42">
    <path style="fill:none;stroke:#ff7500;stroke-linecap:square;stroke-width:1.5;"/>
    <g/>
   </g>
   <g id="line2d_43">
    <path clip-path="url(#p00b1a67f03)" d="M 230.863433 222.187083 
" style="fill:none;stroke:#ff7500;stroke-linecap:square;stroke-width:1.5;"/>
    <defs>
     <path d="M -12 12 
L 12 -12 
M -12 -12 
L 12 12 
" id="m9e9b773074" style="stroke:#ff7500;"/>
    </defs>
    <g clip-path="url(#p00b1a67f03)">
     <use style="fill:#ff7500;stroke:#ff7500;" x="230.863433" xlink:href="#m9e9b773074" y="222.187083"/>
    </g>
   </g>
   <g id="line2d_44">
    <path d="M 360.8064 212.923317 
L 380.514816 293.51808 
" style="fill:none;stroke:#ff00ff;stroke-linecap:square;stroke-width:1.5;"/>
    <g>
     <use style="fill-opacity:0;stroke:#ff00ff;stroke-linejoin:miter;stroke-width:1.5;" x="360.8064" xlink:href="#m48e871ff42" y="212.923317"/>
     <use style="fill-opacity:0;stroke:#ff00ff;stroke-linejoin:miter;stroke-width:1.5;" x="380.514816" xlink:href="#m48e871ff42" y="293.51808"/>
    </g>
   </g>
   <g id="line2d_45">
    <path d="M 360.8064 186.455415 
L 380.514816 163.296 
" style="fill:none;stroke:#000080;stroke-linecap:square;stroke-width:1.5;"/>
    <g>
     <use style="fill-opacity:0;stroke:#000080;stroke-width:1.5;" x="360.8064" xlink:href="#m2f1709e21f" y="186.455415"/>
     <use style="fill-opacity:0;stroke:#000080;stroke-width:1.5;" x="380.514816" xlink:href="#m2f1709e21f" y="163.296"/>
    </g>
   </g>
   <g id="line2d_46">
    <path d="M 360.8064 173.221463 
L 380.514816 33.07392 
" style="fill:none;stroke:#ff7500;stroke-linecap:square;stroke-width:1.5;"/>
    <g>
     <use style="fill-opacity:0;stroke:#ff7500;stroke-linejoin:bevel;stroke-width:1.5;" x="360.8064" xlink:href="#mb0cae9ae5a" y="173.221463"/>
     <use style="fill-opacity:0;stroke:#ff7500;stroke-linejoin:bevel;stroke-width:1.5;" x="380.514816" xlink:href="#mb0cae9ae5a" y="33.07392"/>
    </g>
   </g>
   <g id="line2d_47">
    <path d="M 360.8064 298.944 
L 360.8064 27.648 
" style="fill:none;stroke:#000000;stroke-linecap:square;stroke-width:1.5;"/>
   </g>
   <g id="patch_3">
    <path d="M 57.6 298.944 
L 360.8064 298.944 
" style="fill:none;stroke:#000000;stroke-linecap:square;stroke-linejoin:miter;stroke-width:0.8;"/>
   </g>
   <g id="patch_4">
    <path d="M 57.6 27.648 
L 360.8064 27.648 
" style="fill:none;stroke:#000000;stroke-linecap:square;stroke-linejoin:miter;stroke-width:0.8;"/>
   </g>
   <g id="text_13">
    <!-- fmincon -->
    <g transform="translate(386.578944 297.381205)scale(0.14 -0.14)">
     <use xlink:href="#DejaVuSans-102"/>
     <use x="35.205078" xlink:href="#DejaVuSans-109"/>
     <use x="132.617188" xlink:href="#DejaVuSans-105"/>
     <use x="160.400391" xlink:href="#DejaVuSans-110"/>
     <use x="223.779297" xlink:href="#DejaVuSans-99"/>
     <use x="278.759766" xlink:href="#DejaVuSans-111"/>
     <use x="339.941406" xlink:href="#DejaVuSans-110"/>
    </g>
   </g>
   <g id="text_14">
    <!-- cobyla -->
    <g transform="translate(386.578944 167.159125)scale(0.14 -0.14)">
     <defs>
      <path d="M 48.6875 27.296875 
Q 48.6875 37.203125 44.609375 42.84375 
Q 40.53125 48.484375 33.40625 48.484375 
Q 26.265625 48.484375 22.1875 42.84375 
Q 18.109375 37.203125 18.109375 27.296875 
Q 18.109375 17.390625 22.1875 11.75 
Q 26.265625 6.109375 33.40625 6.109375 
Q 40.53125 6.109375 44.609375 11.75 
Q 48.6875 17.390625 48.6875 27.296875 
z
M 18.109375 46.390625 
Q 20.953125 51.265625 25.265625 53.625 
Q 29.59375 56 35.59375 56 
Q 45.5625 56 51.78125 48.09375 
Q 58.015625 40.1875 58.015625 27.296875 
Q 58.015625 14.40625 51.78125 6.484375 
Q 45.5625 -1.421875 35.59375 -1.421875 
Q 29.59375 -1.421875 25.265625 0.953125 
Q 20.953125 3.328125 18.109375 8.203125 
L 18.109375 0 
L 9.078125 0 
L 9.078125 75.984375 
L 18.109375 75.984375 
z
" id="DejaVuSans-98"/>
      <path d="M 32.171875 -5.078125 
Q 28.375 -14.84375 24.75 -17.8125 
Q 21.140625 -20.796875 15.09375 -20.796875 
L 7.90625 -20.796875 
L 7.90625 -13.28125 
L 13.1875 -13.28125 
Q 16.890625 -13.28125 18.9375 -11.515625 
Q 21 -9.765625 23.484375 -3.21875 
L 25.09375 0.875 
L 2.984375 54.6875 
L 12.5 54.6875 
L 29.59375 11.921875 
L 46.6875 54.6875 
L 56.203125 54.6875 
z
" id="DejaVuSans-121"/>
     </defs>
     <use xlink:href="#DejaVuSans-99"/>
     <use x="54.980469" xlink:href="#DejaVuSans-111"/>
     <use x="116.162109" xlink:href="#DejaVuSans-98"/>
     <use x="179.638672" xlink:href="#DejaVuSans-121"/>
     <use x="238.818359" xlink:href="#DejaVuSans-108"/>
     <use x="266.601562" xlink:href="#DejaVuSans-97"/>
    </g>
   </g>
   <g id="text_15">
    <!-- slsqp -->
    <g transform="translate(386.578944 36.937045)scale(0.14 -0.14)">
     <defs>
      <path d="M 14.796875 27.296875 
Q 14.796875 17.390625 18.875 11.75 
Q 22.953125 6.109375 30.078125 6.109375 
Q 37.203125 6.109375 41.296875 11.75 
Q 45.40625 17.390625 45.40625 27.296875 
Q 45.40625 37.203125 41.296875 42.84375 
Q 37.203125 48.484375 30.078125 48.484375 
Q 22.953125 48.484375 18.875 42.84375 
Q 14.796875 37.203125 14.796875 27.296875 
z
M 45.40625 8.203125 
Q 42.578125 3.328125 38.25 0.953125 
Q 33.9375 -1.421875 27.875 -1.421875 
Q 17.96875 -1.421875 11.734375 6.484375 
Q 5.515625 14.40625 5.515625 27.296875 
Q 5.515625 40.1875 11.734375 48.09375 
Q 17.96875 56 27.875 56 
Q 33.9375 56 38.25 53.625 
Q 42.578125 51.265625 45.40625 46.390625 
L 45.40625 54.6875 
L 54.390625 54.6875 
L 54.390625 -20.796875 
L 45.40625 -20.796875 
z
" id="DejaVuSans-113"/>
     </defs>
     <use xlink:href="#DejaVuSans-115"/>
     <use x="52.099609" xlink:href="#DejaVuSans-108"/>
     <use x="79.882812" xlink:href="#DejaVuSans-115"/>
     <use x="131.982422" xlink:href="#DejaVuSans-113"/>
     <use x="195.458984" xlink:href="#DejaVuSans-112"/>
    </g>
   </g>
   <g id="text_16">
    <!-- bbob-constrained f22, 20-D -->
    <g transform="translate(60.632064 38.111366)scale(0.102 -0.102)">
     <defs>
      <path d="M 4.890625 31.390625 
L 31.203125 31.390625 
L 31.203125 23.390625 
L 4.890625 23.390625 
z
" id="DejaVuSans-45"/>
      <path d="M 19.671875 64.796875 
L 19.671875 8.109375 
L 31.59375 8.109375 
Q 46.6875 8.109375 53.6875 14.9375 
Q 60.6875 21.78125 60.6875 36.53125 
Q 60.6875 51.171875 53.6875 57.984375 
Q 46.6875 64.796875 31.59375 64.796875 
z
M 9.8125 72.90625 
L 30.078125 72.90625 
Q 51.265625 72.90625 61.171875 64.09375 
Q 71.09375 55.28125 71.09375 36.53125 
Q 71.09375 17.671875 61.125 8.828125 
Q 51.171875 0 30.078125 0 
L 9.8125 0 
z
" id="DejaVuSans-68"/>
     </defs>
     <use xlink:href="#DejaVuSans-98"/>
     <use x="63.476562" xlink:href="#DejaVuSans-98"/>
     <use x="126.953125" xlink:href="#DejaVuSans-111"/>
     <use x="188.134766" xlink:href="#DejaVuSans-98"/>
     <use x="251.611328" xlink:href="#DejaVuSans-45"/>
     <use x="287.695312" xlink:href="#DejaVuSans-99"/>
     <use x="342.675781" xlink:href="#DejaVuSans-111"/>
     <use x="403.857422" xlink:href="#DejaVuSans-110"/>
     <use x="467.236328" xlink:href="#DejaVuSans-115"/>
     <use x="519.335938" xlink:href="#DejaVuSans-116"/>
     <use x="558.544922" xlink:href="#DejaVuSans-114"/>
     <use x="599.658203" xlink:href="#DejaVuSans-97"/>
     <use x="660.9375" xlink:href="#DejaVuSans-105"/>
     <use x="688.720703" xlink:href="#DejaVuSans-110"/>
     <use x="752.099609" xlink:href="#DejaVuSans-101"/>
     <use x="813.623047" xlink:href="#DejaVuSans-100"/>
     <use x="877.099609" xlink:href="#DejaVuSans-32"/>
     <use x="908.886719" xlink:href="#DejaVuSans-102"/>
     <use x="944.091797" xlink:href="#DejaVuSans-50"/>
     <use x="1007.714844" xlink:href="#DejaVuSans-50"/>
     <use x="1071.337891" xlink:href="#DejaVuSans-44"/>
     <use x="1103.125" xlink:href="#DejaVuSans-32"/>
     <use x="1134.912109" xlink:href="#DejaVuSans-50"/>
     <use x="1198.535156" xlink:href="#DejaVuSans-48"/>
     <use x="1262.158203" xlink:href="#DejaVuSans-45"/>
     <use x="1298.242188" xlink:href="#DejaVuSans-68"/>
    </g>
    <!-- 41 targets: 100..1e-06 -->
    <g transform="translate(60.632064 49.533135)scale(0.102 -0.102)">
     <defs>
      <path d="M 11.71875 12.40625 
L 22.015625 12.40625 
L 22.015625 0 
L 11.71875 0 
z
M 11.71875 51.703125 
L 22.015625 51.703125 
L 22.015625 39.3125 
L 11.71875 39.3125 
z
" id="DejaVuSans-58"/>
     </defs>
     <use xlink:href="#DejaVuSans-52"/>
     <use x="63.623047" xlink:href="#DejaVuSans-49"/>
     <use x="127.246094" xlink:href="#DejaVuSans-32"/>
     <use x="159.033203" xlink:href="#DejaVuSans-116"/>
     <use x="198.242188" xlink:href="#DejaVuSans-97"/>
     <use x="259.521484" xlink:href="#DejaVuSans-114"/>
     <use x="298.884766" xlink:href="#DejaVuSans-103"/>
     <use x="362.361328" xlink:href="#DejaVuSans-101"/>
     <use x="423.884766" xlink:href="#DejaVuSans-116"/>
     <use x="463.09375" xlink:href="#DejaVuSans-115"/>
     <use x="515.193359" xlink:href="#DejaVuSans-58"/>
     <use x="548.884766" xlink:href="#DejaVuSans-32"/>
     <use x="580.671875" xlink:href="#DejaVuSans-49"/>
     <use x="644.294922" xlink:href="#DejaVuSans-48"/>
     <use x="707.917969" xlink:href="#DejaVuSans-48"/>
     <use x="771.541016" xlink:href="#DejaVuSans-46"/>
     <use x="803.328125" xlink:href="#DejaVuSans-46"/>
     <use x="835.115234" xlink:href="#DejaVuSans-49"/>
     <use x="898.738281" xlink:href="#DejaVuSans-101"/>
     <use x="960.261719" xlink:href="#DejaVuSans-45"/>
     <use x="996.345703" xlink:href="#DejaVuSans-48"/>
     <use x="1059.96875" xlink:href="#DejaVuSans-54"/>
    </g>
    <!-- evals = f-evals + g-evals -->
    <g transform="translate(60.632064 60.954904)scale(0.102 -0.102)">
     <defs>
      <path d="M 10.59375 45.40625 
L 73.1875 45.40625 
L 73.1875 37.203125 
L 10.59375 37.203125 
z
M 10.59375 25.484375 
L 73.1875 25.484375 
L 73.1875 17.1875 
L 10.59375 17.1875 
z
" id="DejaVuSans-61"/>
      <path d="M 46 62.703125 
L 46 35.5 
L 73.1875 35.5 
L 73.1875 27.203125 
L 46 27.203125 
L 46 0 
L 37.796875 0 
L 37.796875 27.203125 
L 10.59375 27.203125 
L 10.59375 35.5 
L 37.796875 35.5 
L 37.796875 62.703125 
z
" id="DejaVuSans-43"/>
     </defs>
     <use xlink:href="#DejaVuSans-101"/>
     <use x="61.523438" xlink:href="#DejaVuSans-118"/>
     <use x="120.703125" xlink:href="#DejaVuSans-97"/>
     <use x="181.982422" xlink:href="#DejaVuSans-108"/>
     <use x="209.765625" xlink:href="#DejaVuSans-115"/>
     <use x="261.865234" xlink:href="#DejaVuSans-32"/>
     <use x="293.652344" xlink:href="#DejaVuSans-61"/>
     <use x="377.441406" xlink:href="#DejaVuSans-32"/>
     <use x="409.228516" xlink:href="#DejaVuSans-102"/>
     <use x="438.933594" xlink:href="#DejaVuSans-45"/>
     <use x="475.017578" xlink:href="#DejaVuSans-101"/>
     <use x="536.541016" xlink:href="#DejaVuSans-118"/>
     <use x="595.720703" xlink:href="#DejaVuSans-97"/>
     <use x="657" xlink:href="#DejaVuSans-108"/>
     <use x="684.783203" xlink:href="#DejaVuSans-115"/>
     <use x="736.882812" xlink:href="#DejaVuSans-32"/>
     <use x="768.669922" xlink:href="#DejaVuSans-43"/>
     <use x="852.458984" xlink:href="#DejaVuSans-32"/>
     <use x="884.246094" xlink:href="#DejaVuSans-103"/>
     <use x="947.722656" xlink:href="#DejaVuSans-45"/>
     <use x="983.806641" xlink:href="#DejaVuSans-101"/>
     <use x="1045.330078" xlink:href="#DejaVuSans-118"/>
     <use x="1104.509766" xlink:href="#DejaVuSans-97"/>
     <use x="1165.789062" xlink:href="#DejaVuSans-108"/>
     <use x="1193.572266" xlink:href="#DejaVuSans-115"/>
    </g>
    <!-- 15 instances -->
    <g transform="translate(60.632064 72.376672)scale(0.102 -0.102)">
     <defs>
      <path d="M 10.796875 72.90625 
L 49.515625 72.90625 
L 49.515625 64.59375 
L 19.828125 64.59375 
L 19.828125 46.734375 
Q 21.96875 47.46875 24.109375 47.828125 
Q 26.265625 48.1875 28.421875 48.1875 
Q 40.625 48.1875 47.75 41.5 
Q 54.890625 34.8125 54.890625 23.390625 
Q 54.890625 11.625 47.5625 5.09375 
Q 40.234375 -1.421875 26.90625 -1.421875 
Q 22.3125 -1.421875 17.546875 -0.640625 
Q 12.796875 0.140625 7.71875 1.703125 
L 7.71875 11.625 
Q 12.109375 9.234375 16.796875 8.0625 
Q 21.484375 6.890625 26.703125 6.890625 
Q 35.15625 6.890625 40.078125 11.328125 
Q 45.015625 15.765625 45.015625 23.390625 
Q 45.015625 31 40.078125 35.4375 
Q 35.15625 39.890625 26.703125 39.890625 
Q 22.75 39.890625 18.8125 39.015625 
Q 14.890625 38.140625 10.796875 36.28125 
z
" id="DejaVuSans-53"/>
     </defs>
     <use xlink:href="#DejaVuSans-49"/>
     <use x="63.623047" xlink:href="#DejaVuSans-53"/>
     <use x="127.246094" xlink:href="#DejaVuSans-32"/>
     <use x="159.033203" xlink:href="#DejaVuSans-105"/>
     <use x="186.816406" xlink:href="#DejaVuSans-110"/>
     <use x="250.195312" xlink:href="#DejaVuSans-115"/>
     <use x="302.294922" xlink:href="#DejaVuSans-116"/>
     <use x="341.503906" xlink:href="#DejaVuSans-97"/>
     <use x="402.783203" xlink:href="#DejaVuSans-110"/>
     <use x="466.162109" xlink:href="#DejaVuSans-99"/>
     <use x="521.142578" xlink:href="#DejaVuSans-101"/>
     <use x="582.666016" xlink:href="#DejaVuSans-115"/>
    </g>
   </g>
   <g id="text_17">
    <!-- v2.4.159 -->
    <g style="fill:#808080;" transform="translate(187.15945 294.151352)scale(0.1 -0.1)">
     <defs>
      <path d="M 10.984375 1.515625 
L 10.984375 10.5 
Q 14.703125 8.734375 18.5 7.8125 
Q 22.3125 6.890625 25.984375 6.890625 
Q 35.75 6.890625 40.890625 13.453125 
Q 46.046875 20.015625 46.78125 33.40625 
Q 43.953125 29.203125 39.59375 26.953125 
Q 35.25 24.703125 29.984375 24.703125 
Q 19.046875 24.703125 12.671875 31.3125 
Q 6.296875 37.9375 6.296875 49.421875 
Q 6.296875 60.640625 12.9375 67.421875 
Q 19.578125 74.21875 30.609375 74.21875 
Q 43.265625 74.21875 49.921875 64.515625 
Q 56.59375 54.828125 56.59375 36.375 
Q 56.59375 19.140625 48.40625 8.859375 
Q 40.234375 -1.421875 26.421875 -1.421875 
Q 22.703125 -1.421875 18.890625 -0.6875 
Q 15.09375 0.046875 10.984375 1.515625 
z
M 30.609375 32.421875 
Q 37.25 32.421875 41.125 36.953125 
Q 45.015625 41.5 45.015625 49.421875 
Q 45.015625 57.28125 41.125 61.84375 
Q 37.25 66.40625 30.609375 66.40625 
Q 23.96875 66.40625 20.09375 61.84375 
Q 16.21875 57.28125 16.21875 49.421875 
Q 16.21875 41.5 20.09375 36.953125 
Q 23.96875 32.421875 30.609375 32.421875 
z
" id="DejaVuSans-57"/>
     </defs>
     <use xlink:href="#DejaVuSans-118"/>
     <use x="59.179688" xlink:href="#DejaVuSans-50"/>
     <use x="122.802734" xlink:href="#DejaVuSans-46"/>
     <use x="154.589844" xlink:href="#DejaVuSans-52"/>
     <use x="218.212891" xlink:href="#DejaVuSans-46"/>
     <use x="250" xlink:href="#DejaVuSans-49"/>
     <use x="313.623047" xlink:href="#DejaVuSans-53"/>
     <use x="377.246094" xlink:href="#DejaVuSans-57"/>
    </g>
   </g>
   <g id="text_18">
    <!-- 22 Rot. Ellipsoid, m=9+int(3n/4) -->
    <g transform="translate(46.461012 21.648)scale(0.2 -0.2)">
     <defs>
      <path d="M 44.390625 34.1875 
Q 47.5625 33.109375 50.5625 29.59375 
Q 53.5625 26.078125 56.59375 19.921875 
L 66.609375 0 
L 56 0 
L 46.6875 18.703125 
Q 43.0625 26.03125 39.671875 28.421875 
Q 36.28125 30.8125 30.421875 30.8125 
L 19.671875 30.8125 
L 19.671875 0 
L 9.8125 0 
L 9.8125 72.90625 
L 32.078125 72.90625 
Q 44.578125 72.90625 50.734375 67.671875 
Q 56.890625 62.453125 56.890625 51.90625 
Q 56.890625 45.015625 53.6875 40.46875 
Q 50.484375 35.9375 44.390625 34.1875 
z
M 19.671875 64.796875 
L 19.671875 38.921875 
L 32.078125 38.921875 
Q 39.203125 38.921875 42.84375 42.21875 
Q 46.484375 45.515625 46.484375 51.90625 
Q 46.484375 58.296875 42.84375 61.546875 
Q 39.203125 64.796875 32.078125 64.796875 
z
" id="DejaVuSans-82"/>
      <path d="M 9.8125 72.90625 
L 55.90625 72.90625 
L 55.90625 64.59375 
L 19.671875 64.59375 
L 19.671875 43.015625 
L 54.390625 43.015625 
L 54.390625 34.71875 
L 19.671875 34.71875 
L 19.671875 8.296875 
L 56.78125 8.296875 
L 56.78125 0 
L 9.8125 0 
z
" id="DejaVuSans-69"/>
      <path d="M 40.578125 39.3125 
Q 47.65625 37.796875 51.625 33 
Q 55.609375 28.21875 55.609375 21.1875 
Q 55.609375 10.40625 48.1875 4.484375 
Q 40.765625 -1.421875 27.09375 -1.421875 
Q 22.515625 -1.421875 17.65625 -0.515625 
Q 12.796875 0.390625 7.625 2.203125 
L 7.625 11.71875 
Q 11.71875 9.328125 16.59375 8.109375 
Q 21.484375 6.890625 26.8125 6.890625 
Q 36.078125 6.890625 40.9375 10.546875 
Q 45.796875 14.203125 45.796875 21.1875 
Q 45.796875 27.640625 41.28125 31.265625 
Q 36.765625 34.90625 28.71875 34.90625 
L 20.21875 34.90625 
L 20.21875 43.015625 
L 29.109375 43.015625 
Q 36.375 43.015625 40.234375 45.921875 
Q 44.09375 48.828125 44.09375 54.296875 
Q 44.09375 59.90625 40.109375 62.90625 
Q 36.140625 65.921875 28.71875 65.921875 
Q 24.65625 65.921875 20.015625 65.03125 
Q 15.375 64.15625 9.8125 62.3125 
L 9.8125 71.09375 
Q 15.4375 72.65625 20.34375 73.4375 
Q 25.25 74.21875 29.59375 74.21875 
Q 40.828125 74.21875 47.359375 69.109375 
Q 53.90625 64.015625 53.90625 55.328125 
Q 53.90625 49.265625 50.4375 45.09375 
Q 46.96875 40.921875 40.578125 39.3125 
z
" id="DejaVuSans-51"/>
     </defs>
     <use xlink:href="#DejaVuSans-50"/>
     <use x="63.623047" xlink:href="#DejaVuSans-50"/>
     <use x="127.246094" xlink:href="#DejaVuSans-32"/>
     <use x="159.033203" xlink:href="#DejaVuSans-82"/>
     <use x="224.015625" xlink:href="#DejaVuSans-111"/>
     <use x="285.197266" xlink:href="#DejaVuSans-116"/>
     <use x="324.40625" xlink:href="#DejaVuSans-46"/>
     <use x="356.193359" xlink:href="#DejaVuSans-32"/>
     <use x="387.980469" xlink:href="#DejaVuSans-69"/>
     <use x="451.164062" xlink:href="#DejaVuSans-108"/>
     <use x="478.947266" xlink:href="#DejaVuSans-108"/>
     <use x="506.730469" xlink:href="#DejaVuSans-105"/>
     <use x="534.513672" xlink:href="#DejaVuSans-112"/>
     <use x="597.990234" xlink:href="#DejaVuSans-115"/>
     <use x="650.089844" xlink:href="#DejaVuSans-111"/>
     <use x="711.271484" xlink:href="#DejaVuSans-105"/>
     <use x="739.054688" xlink:href="#DejaVuSans-100"/>
     <use x="802.53125" xlink:href="#DejaVuSans-44"/>
     <use x="834.318359" xlink:href="#DejaVuSans-32"/>
     <use x="866.105469" xlink:href="#DejaVuSans-109"/>
     <use x="963.517578" xlink:href="#DejaVuSans-61"/>
     <use x="1047.306641" xlink:href="#DejaVuSans-57"/>
     <use x="1110.929688" xlink:href="#DejaVuSans-43"/>
     <use x="1194.71875" xlink:href="#DejaVuSans-105"/>
     <use x="1222.501953" xlink:href="#DejaVuSans-110"/>
     <use x="1285.880859" xlink:href="#DejaVuSans-116"/>
     <use x="1325.089844" xlink:href="#DejaVuSans-40"/>
     <use x="1364.103516" xlink:href="#DejaVuSans-51"/>
     <use x="1427.726562" xlink:href="#DejaVuSans-110"/>
     <use x="1491.105469" xlink:href="#DejaVuSans-47"/>
     <use x="1524.796875" xlink:href="#DejaVuSans-52"/>
     <use x="1588.419922" xlink:href="#DejaVuSans-41"/>
    </g>
   </g>
  </g>
 </g>
 <defs>
  <clipPath id="p00b1a67f03">
   <rect height="271.296" width="303.2064" x="57.6" y="27.648"/>
  </clipPath>
 </defs>
</svg>
