<?xml version="1.0" encoding="utf-8" standalone="no"?>
<!DOCTYPE svg PUBLIC "-//W3C//DTD SVG 1.1//EN"
  "http://www.w3.org/Graphics/SVG/1.1/DTD/svg11.dtd">
<!-- Created with matplotlib (https://matplotlib.org/) -->
<svg height="345.6pt" version="1.1" viewBox="0 0 460.8 345.6" width="460.8pt" xmlns="http://www.w3.org/2000/svg" xmlns:xlink="http://www.w3.org/1999/xlink">
 <metadata>
  <rdf:RDF xmlns:cc="http://creativecommons.org/ns#" xmlns:dc="http://purl.org/dc/elements/1.1/" xmlns:rdf="http://www.w3.org/1999/02/22-rdf-syntax-ns#">
   <cc:Work>
    <dc:type rdf:resource="http://purl.org/dc/dcmitype/StillImage"/>
    <dc:date>2022-01-14T09:47:56.784922</dc:date>
    <dc:format>image/svg+xml</dc:format>
    <dc:creator>
     <cc:Agent>
      <dc:title>Matplotlib v3.3.3, https://matplotlib.org/</dc:title>
     </cc:Agent>
    </dc:creator>
   </cc:Work>
  </rdf:RDF>
 </metadata>
 <defs>
  <style type="text/css">*{stroke-linecap:butt;stroke-linejoin:round;}</style>
 </defs>
 <g id="figure_1">
  <g id="patch_1">
   <path d="M 0 345.6 
L 460.8 345.6 
L 460.8 0 
L 0 0 
z
" style="fill:#ffffff;"/>
  </g>
  <g id="axes_1">
   <g id="patch_2">
    <path d="M 57.6 298.944 
L 338.688 298.944 
L 338.688 3.456 
L 57.6 3.456 
z
" style="fill:#ffffff;"/>
   </g>
   <g id="matplotlib.axis_1">
    <g id="xtick_1">
     <g id="line2d_1">
      <path clip-path="url(#pa148d71f6a)" d="M 57.6 298.944 
L 57.6 3.456 
" style="fill:none;stroke:#b0b0b0;stroke-linecap:square;stroke-width:0.8;"/>
     </g>
     <g id="line2d_2">
      <defs>
       <path d="M 0 0 
L 0 3.5 
" id="m973d7056f2" style="stroke:#000000;stroke-width:0.8;"/>
      </defs>
      <g>
       <use style="stroke:#000000;stroke-width:0.8;" x="57.6" xlink:href="#m973d7056f2" y="298.944"/>
      </g>
     </g>
     <g id="text_1">
      <!-- 0 -->
      <g transform="translate(51.2375 321.140875)scale(0.2 -0.2)">
       <defs>
        <path d="M 31.78125 66.40625 
Q 24.171875 66.40625 20.328125 58.90625 
Q 16.5 51.421875 16.5 36.375 
Q 16.5 21.390625 20.328125 13.890625 
Q 24.171875 6.390625 31.78125 6.390625 
Q 39.453125 6.390625 43.28125 13.890625 
Q 47.125 21.390625 47.125 36.375 
Q 47.125 51.421875 43.28125 58.90625 
Q 39.453125 66.40625 31.78125 66.40625 
z
M 31.78125 74.21875 
Q 44.046875 74.21875 50.515625 64.515625 
Q 56.984375 54.828125 56.984375 36.375 
Q 56.984375 17.96875 50.515625 8.265625 
Q 44.046875 -1.421875 31.78125 -1.421875 
Q 19.53125 -1.421875 13.0625 8.265625 
Q 6.59375 17.96875 6.59375 36.375 
Q 6.59375 54.828125 13.0625 64.515625 
Q 19.53125 74.21875 31.78125 74.21875 
z
" id="DejaVuSans-48"/>
       </defs>
       <use xlink:href="#DejaVuSans-48"/>
      </g>
     </g>
    </g>
    <g id="xtick_2">
     <g id="line2d_3">
      <path clip-path="url(#pa148d71f6a)" d="M 137.910857 298.944 
L 137.910857 3.456 
" style="fill:none;stroke:#b0b0b0;stroke-linecap:square;stroke-width:0.8;"/>
     </g>
     <g id="line2d_4">
      <g>
       <use style="stroke:#000000;stroke-width:0.8;" x="137.910857" xlink:href="#m973d7056f2" y="298.944"/>
      </g>
     </g>
     <g id="text_2">
      <!-- 2 -->
      <g transform="translate(131.548357 321.140875)scale(0.2 -0.2)">
       <defs>
        <path d="M 19.1875 8.296875 
L 53.609375 8.296875 
L 53.609375 0 
L 7.328125 0 
L 7.328125 8.296875 
Q 12.9375 14.109375 22.625 23.890625 
Q 32.328125 33.6875 34.8125 36.53125 
Q 39.546875 41.84375 41.421875 45.53125 
Q 43.3125 49.21875 43.3125 52.78125 
Q 43.3125 58.59375 39.234375 62.25 
Q 35.15625 65.921875 28.609375 65.921875 
Q 23.96875 65.921875 18.8125 64.3125 
Q 13.671875 62.703125 7.8125 59.421875 
L 7.8125 69.390625 
Q 13.765625 71.78125 18.9375 73 
Q 24.125 74.21875 28.421875 74.21875 
Q 39.75 74.21875 46.484375 68.546875 
Q 53.21875 62.890625 53.21875 53.421875 
Q 53.21875 48.921875 51.53125 44.890625 
Q 49.859375 40.875 45.40625 35.40625 
Q 44.1875 33.984375 37.640625 27.21875 
Q 31.109375 20.453125 19.1875 8.296875 
z
" id="DejaVuSans-50"/>
       </defs>
       <use xlink:href="#DejaVuSans-50"/>
      </g>
     </g>
    </g>
    <g id="xtick_3">
     <g id="line2d_5">
      <path clip-path="url(#pa148d71f6a)" d="M 218.221714 298.944 
L 218.221714 3.456 
" style="fill:none;stroke:#b0b0b0;stroke-linecap:square;stroke-width:0.8;"/>
     </g>
     <g id="line2d_6">
      <g>
       <use style="stroke:#000000;stroke-width:0.8;" x="218.221714" xlink:href="#m973d7056f2" y="298.944"/>
      </g>
     </g>
     <g id="text_3">
      <!-- 4 -->
      <g transform="translate(211.859214 321.140875)scale(0.2 -0.2)">
       <defs>
        <path d="M 37.796875 64.3125 
L 12.890625 25.390625 
L 37.796875 25.390625 
z
M 35.203125 72.90625 
L 47.609375 72.90625 
L 47.609375 25.390625 
L 58.015625 25.390625 
L 58.015625 17.1875 
L 47.609375 17.1875 
L 47.609375 0 
L 37.796875 0 
L 37.796875 17.1875 
L 4.890625 17.1875 
L 4.890625 26.703125 
z
" id="DejaVuSans-52"/>
       </defs>
       <use xlink:href="#DejaVuSans-52"/>
      </g>
     </g>
    </g>
    <g id="xtick_4">
     <g id="line2d_7">
      <path clip-path="url(#pa148d71f6a)" d="M 298.532571 298.944 
L 298.532571 3.456 
" style="fill:none;stroke:#b0b0b0;stroke-linecap:square;stroke-width:0.8;"/>
     </g>
     <g id="line2d_8">
      <g>
       <use style="stroke:#000000;stroke-width:0.8;" x="298.532571" xlink:href="#m973d7056f2" y="298.944"/>
      </g>
     </g>
     <g id="text_4">
      <!-- 6 -->
      <g transform="translate(292.170071 321.140875)scale(0.2 -0.2)">
       <defs>
        <path d="M 33.015625 40.375 
Q 26.375 40.375 22.484375 35.828125 
Q 18.609375 31.296875 18.609375 23.390625 
Q 18.609375 15.53125 22.484375 10.953125 
Q 26.375 6.390625 33.015625 6.390625 
Q 39.65625 6.390625 43.53125 10.953125 
Q 47.40625 15.53125 47.40625 23.390625 
Q 47.40625 31.296875 43.53125 35.828125 
Q 39.65625 40.375 33.015625 40.375 
z
M 52.59375 71.296875 
L 52.59375 62.3125 
Q 48.875 64.0625 45.09375 64.984375 
Q 41.3125 65.921875 37.59375 65.921875 
Q 27.828125 65.921875 22.671875 59.328125 
Q 17.53125 52.734375 16.796875 39.40625 
Q 19.671875 43.65625 24.015625 45.921875 
Q 28.375 48.1875 33.59375 48.1875 
Q 44.578125 48.1875 50.953125 41.515625 
Q 57.328125 34.859375 57.328125 23.390625 
Q 57.328125 12.15625 50.6875 5.359375 
Q 44.046875 -1.421875 33.015625 -1.421875 
Q 20.359375 -1.421875 13.671875 8.265625 
Q 6.984375 17.96875 6.984375 36.375 
Q 6.984375 53.65625 15.1875 63.9375 
Q 23.390625 74.21875 37.203125 74.21875 
Q 40.921875 74.21875 44.703125 73.484375 
Q 48.484375 72.75 52.59375 71.296875 
z
" id="DejaVuSans-54"/>
       </defs>
       <use xlink:href="#DejaVuSans-54"/>
      </g>
     </g>
    </g>
    <g id="xtick_5">
     <g id="line2d_9">
      <path clip-path="url(#pa148d71f6a)" d="M 97.755429 298.944 
L 97.755429 3.456 
" style="fill:none;stroke:#b0b0b0;stroke-linecap:square;stroke-width:0.8;"/>
     </g>
     <g id="line2d_10">
      <defs>
       <path d="M 0 0 
L 0 2 
" id="mce3f139824" style="stroke:#000000;stroke-width:0.6;"/>
      </defs>
      <g>
       <use style="stroke:#000000;stroke-width:0.6;" x="97.755429" xlink:href="#mce3f139824" y="298.944"/>
      </g>
     </g>
    </g>
    <g id="xtick_6">
     <g id="line2d_11">
      <path clip-path="url(#pa148d71f6a)" d="M 178.066286 298.944 
L 178.066286 3.456 
" style="fill:none;stroke:#b0b0b0;stroke-linecap:square;stroke-width:0.8;"/>
     </g>
     <g id="line2d_12">
      <g>
       <use style="stroke:#000000;stroke-width:0.6;" x="178.066286" xlink:href="#mce3f139824" y="298.944"/>
      </g>
     </g>
    </g>
    <g id="xtick_7">
     <g id="line2d_13">
      <path clip-path="url(#pa148d71f6a)" d="M 258.377143 298.944 
L 258.377143 3.456 
" style="fill:none;stroke:#b0b0b0;stroke-linecap:square;stroke-width:0.8;"/>
     </g>
     <g id="line2d_14">
      <g>
       <use style="stroke:#000000;stroke-width:0.6;" x="258.377143" xlink:href="#mce3f139824" y="298.944"/>
      </g>
     </g>
    </g>
    <g id="xtick_8">
     <g id="line2d_15">
      <path clip-path="url(#pa148d71f6a)" d="M 338.688 298.944 
L 338.688 3.456 
" style="fill:none;stroke:#b0b0b0;stroke-linecap:square;stroke-width:0.8;"/>
     </g>
     <g id="line2d_16">
      <g>
       <use style="stroke:#000000;stroke-width:0.6;" x="338.688" xlink:href="#mce3f139824" y="298.944"/>
      </g>
     </g>
    </g>
    <g id="text_5">
     <!-- log10(# (f+g)-evals / dimension) -->
     <g transform="translate(58.145016 342.217594)scale(0.17 -0.17)">
      <defs>
       <path d="M 9.421875 75.984375 
L 18.40625 75.984375 
L 18.40625 0 
L 9.421875 0 
z
" id="DejaVuSans-108"/>
       <path d="M 30.609375 48.390625 
Q 23.390625 48.390625 19.1875 42.75 
Q 14.984375 37.109375 14.984375 27.296875 
Q 14.984375 17.484375 19.15625 11.84375 
Q 23.34375 6.203125 30.609375 6.203125 
Q 37.796875 6.203125 41.984375 11.859375 
Q 46.1875 17.53125 46.1875 27.296875 
Q 46.1875 37.015625 41.984375 42.703125 
Q 37.796875 48.390625 30.609375 48.390625 
z
M 30.609375 56 
Q 42.328125 56 49.015625 48.375 
Q 55.71875 40.765625 55.71875 27.296875 
Q 55.71875 13.875 49.015625 6.21875 
Q 42.328125 -1.421875 30.609375 -1.421875 
Q 18.84375 -1.421875 12.171875 6.21875 
Q 5.515625 13.875 5.515625 27.296875 
Q 5.515625 40.765625 12.171875 48.375 
Q 18.84375 56 30.609375 56 
z
" id="DejaVuSans-111"/>
       <path d="M 45.40625 27.984375 
Q 45.40625 37.75 41.375 43.109375 
Q 37.359375 48.484375 30.078125 48.484375 
Q 22.859375 48.484375 18.828125 43.109375 
Q 14.796875 37.75 14.796875 27.984375 
Q 14.796875 18.265625 18.828125 12.890625 
Q 22.859375 7.515625 30.078125 7.515625 
Q 37.359375 7.515625 41.375 12.890625 
Q 45.40625 18.265625 45.40625 27.984375 
z
M 54.390625 6.78125 
Q 54.390625 -7.171875 48.1875 -13.984375 
Q 42 -20.796875 29.203125 -20.796875 
Q 24.46875 -20.796875 20.265625 -20.09375 
Q 16.0625 -19.390625 12.109375 -17.921875 
L 12.109375 -9.1875 
Q 16.0625 -11.328125 19.921875 -12.34375 
Q 23.78125 -13.375 27.78125 -13.375 
Q 36.625 -13.375 41.015625 -8.765625 
Q 45.40625 -4.15625 45.40625 5.171875 
L 45.40625 9.625 
Q 42.625 4.78125 38.28125 2.390625 
Q 33.9375 0 27.875 0 
Q 17.828125 0 11.671875 7.65625 
Q 5.515625 15.328125 5.515625 27.984375 
Q 5.515625 40.671875 11.671875 48.328125 
Q 17.828125 56 27.875 56 
Q 33.9375 56 38.28125 53.609375 
Q 42.625 51.21875 45.40625 46.390625 
L 45.40625 54.6875 
L 54.390625 54.6875 
z
" id="DejaVuSans-103"/>
       <path d="M 12.40625 8.296875 
L 28.515625 8.296875 
L 28.515625 63.921875 
L 10.984375 60.40625 
L 10.984375 69.390625 
L 28.421875 72.90625 
L 38.28125 72.90625 
L 38.28125 8.296875 
L 54.390625 8.296875 
L 54.390625 0 
L 12.40625 0 
z
" id="DejaVuSans-49"/>
       <path d="M 31 75.875 
Q 24.46875 64.65625 21.28125 53.65625 
Q 18.109375 42.671875 18.109375 31.390625 
Q 18.109375 20.125 21.3125 9.0625 
Q 24.515625 -2 31 -13.1875 
L 23.1875 -13.1875 
Q 15.875 -1.703125 12.234375 9.375 
Q 8.59375 20.453125 8.59375 31.390625 
Q 8.59375 42.28125 12.203125 53.3125 
Q 15.828125 64.359375 23.1875 75.875 
z
" id="DejaVuSans-40"/>
       <path d="M 51.125 44 
L 36.921875 44 
L 32.8125 27.6875 
L 47.125 27.6875 
z
M 43.796875 71.78125 
L 38.71875 51.515625 
L 52.984375 51.515625 
L 58.109375 71.78125 
L 65.921875 71.78125 
L 60.890625 51.515625 
L 76.125 51.515625 
L 76.125 44 
L 58.984375 44 
L 54.984375 27.6875 
L 70.515625 27.6875 
L 70.515625 20.21875 
L 53.078125 20.21875 
L 48 0 
L 40.1875 0 
L 45.21875 20.21875 
L 30.90625 20.21875 
L 25.875 0 
L 18.015625 0 
L 23.09375 20.21875 
L 7.71875 20.21875 
L 7.71875 27.6875 
L 24.90625 27.6875 
L 29 44 
L 13.28125 44 
L 13.28125 51.515625 
L 30.90625 51.515625 
L 35.890625 71.78125 
z
" id="DejaVuSans-35"/>
       <path id="DejaVuSans-32"/>
       <path d="M 37.109375 75.984375 
L 37.109375 68.5 
L 28.515625 68.5 
Q 23.6875 68.5 21.796875 66.546875 
Q 19.921875 64.59375 19.921875 59.515625 
L 19.921875 54.6875 
L 34.71875 54.6875 
L 34.71875 47.703125 
L 19.921875 47.703125 
L 19.921875 0 
L 10.890625 0 
L 10.890625 47.703125 
L 2.296875 47.703125 
L 2.296875 54.6875 
L 10.890625 54.6875 
L 10.890625 58.5 
Q 10.890625 67.625 15.140625 71.796875 
Q 19.390625 75.984375 28.609375 75.984375 
z
" id="DejaVuSans-102"/>
       <path d="M 46 62.703125 
L 46 35.5 
L 73.1875 35.5 
L 73.1875 27.203125 
L 46 27.203125 
L 46 0 
L 37.796875 0 
L 37.796875 27.203125 
L 10.59375 27.203125 
L 10.59375 35.5 
L 37.796875 35.5 
L 37.796875 62.703125 
z
" id="DejaVuSans-43"/>
       <path d="M 8.015625 75.875 
L 15.828125 75.875 
Q 23.140625 64.359375 26.78125 53.3125 
Q 30.421875 42.28125 30.421875 31.390625 
Q 30.421875 20.453125 26.78125 9.375 
Q 23.140625 -1.703125 15.828125 -13.1875 
L 8.015625 -13.1875 
Q 14.5 -2 17.703125 9.0625 
Q 20.90625 20.125 20.90625 31.390625 
Q 20.90625 42.671875 17.703125 53.65625 
Q 14.5 64.65625 8.015625 75.875 
z
" id="DejaVuSans-41"/>
       <path d="M 4.890625 31.390625 
L 31.203125 31.390625 
L 31.203125 23.390625 
L 4.890625 23.390625 
z
" id="DejaVuSans-45"/>
       <path d="M 56.203125 29.59375 
L 56.203125 25.203125 
L 14.890625 25.203125 
Q 15.484375 15.921875 20.484375 11.0625 
Q 25.484375 6.203125 34.421875 6.203125 
Q 39.59375 6.203125 44.453125 7.46875 
Q 49.3125 8.734375 54.109375 11.28125 
L 54.109375 2.78125 
Q 49.265625 0.734375 44.1875 -0.34375 
Q 39.109375 -1.421875 33.890625 -1.421875 
Q 20.796875 -1.421875 13.15625 6.1875 
Q 5.515625 13.8125 5.515625 26.8125 
Q 5.515625 40.234375 12.765625 48.109375 
Q 20.015625 56 32.328125 56 
Q 43.359375 56 49.78125 48.890625 
Q 56.203125 41.796875 56.203125 29.59375 
z
M 47.21875 32.234375 
Q 47.125 39.59375 43.09375 43.984375 
Q 39.0625 48.390625 32.421875 48.390625 
Q 24.90625 48.390625 20.390625 44.140625 
Q 15.875 39.890625 15.1875 32.171875 
z
" id="DejaVuSans-101"/>
       <path d="M 2.984375 54.6875 
L 12.5 54.6875 
L 29.59375 8.796875 
L 46.6875 54.6875 
L 56.203125 54.6875 
L 35.6875 0 
L 23.484375 0 
z
" id="DejaVuSans-118"/>
       <path d="M 34.28125 27.484375 
Q 23.390625 27.484375 19.1875 25 
Q 14.984375 22.515625 14.984375 16.5 
Q 14.984375 11.71875 18.140625 8.90625 
Q 21.296875 6.109375 26.703125 6.109375 
Q 34.1875 6.109375 38.703125 11.40625 
Q 43.21875 16.703125 43.21875 25.484375 
L 43.21875 27.484375 
z
M 52.203125 31.203125 
L 52.203125 0 
L 43.21875 0 
L 43.21875 8.296875 
Q 40.140625 3.328125 35.546875 0.953125 
Q 30.953125 -1.421875 24.3125 -1.421875 
Q 15.921875 -1.421875 10.953125 3.296875 
Q 6 8.015625 6 15.921875 
Q 6 25.140625 12.171875 29.828125 
Q 18.359375 34.515625 30.609375 34.515625 
L 43.21875 34.515625 
L 43.21875 35.40625 
Q 43.21875 41.609375 39.140625 45 
Q 35.0625 48.390625 27.6875 48.390625 
Q 23 48.390625 18.546875 47.265625 
Q 14.109375 46.140625 10.015625 43.890625 
L 10.015625 52.203125 
Q 14.9375 54.109375 19.578125 55.046875 
Q 24.21875 56 28.609375 56 
Q 40.484375 56 46.34375 49.84375 
Q 52.203125 43.703125 52.203125 31.203125 
z
" id="DejaVuSans-97"/>
       <path d="M 44.28125 53.078125 
L 44.28125 44.578125 
Q 40.484375 46.53125 36.375 47.5 
Q 32.28125 48.484375 27.875 48.484375 
Q 21.1875 48.484375 17.84375 46.4375 
Q 14.5 44.390625 14.5 40.28125 
Q 14.5 37.15625 16.890625 35.375 
Q 19.28125 33.59375 26.515625 31.984375 
L 29.59375 31.296875 
Q 39.15625 29.25 43.1875 25.515625 
Q 47.21875 21.78125 47.21875 15.09375 
Q 47.21875 7.46875 41.1875 3.015625 
Q 35.15625 -1.421875 24.609375 -1.421875 
Q 20.21875 -1.421875 15.453125 -0.5625 
Q 10.6875 0.296875 5.421875 2 
L 5.421875 11.28125 
Q 10.40625 8.6875 15.234375 7.390625 
Q 20.0625 6.109375 24.8125 6.109375 
Q 31.15625 6.109375 34.5625 8.28125 
Q 37.984375 10.453125 37.984375 14.40625 
Q 37.984375 18.0625 35.515625 20.015625 
Q 33.0625 21.96875 24.703125 23.78125 
L 21.578125 24.515625 
Q 13.234375 26.265625 9.515625 29.90625 
Q 5.8125 33.546875 5.8125 39.890625 
Q 5.8125 47.609375 11.28125 51.796875 
Q 16.75 56 26.8125 56 
Q 31.78125 56 36.171875 55.265625 
Q 40.578125 54.546875 44.28125 53.078125 
z
" id="DejaVuSans-115"/>
       <path d="M 25.390625 72.90625 
L 33.6875 72.90625 
L 8.296875 -9.28125 
L 0 -9.28125 
z
" id="DejaVuSans-47"/>
       <path d="M 45.40625 46.390625 
L 45.40625 75.984375 
L 54.390625 75.984375 
L 54.390625 0 
L 45.40625 0 
L 45.40625 8.203125 
Q 42.578125 3.328125 38.25 0.953125 
Q 33.9375 -1.421875 27.875 -1.421875 
Q 17.96875 -1.421875 11.734375 6.484375 
Q 5.515625 14.40625 5.515625 27.296875 
Q 5.515625 40.1875 11.734375 48.09375 
Q 17.96875 56 27.875 56 
Q 33.9375 56 38.25 53.625 
Q 42.578125 51.265625 45.40625 46.390625 
z
M 14.796875 27.296875 
Q 14.796875 17.390625 18.875 11.75 
Q 22.953125 6.109375 30.078125 6.109375 
Q 37.203125 6.109375 41.296875 11.75 
Q 45.40625 17.390625 45.40625 27.296875 
Q 45.40625 37.203125 41.296875 42.84375 
Q 37.203125 48.484375 30.078125 48.484375 
Q 22.953125 48.484375 18.875 42.84375 
Q 14.796875 37.203125 14.796875 27.296875 
z
" id="DejaVuSans-100"/>
       <path d="M 9.421875 54.6875 
L 18.40625 54.6875 
L 18.40625 0 
L 9.421875 0 
z
M 9.421875 75.984375 
L 18.40625 75.984375 
L 18.40625 64.59375 
L 9.421875 64.59375 
z
" id="DejaVuSans-105"/>
       <path d="M 52 44.1875 
Q 55.375 50.25 60.0625 53.125 
Q 64.75 56 71.09375 56 
Q 79.640625 56 84.28125 50.015625 
Q 88.921875 44.046875 88.921875 33.015625 
L 88.921875 0 
L 79.890625 0 
L 79.890625 32.71875 
Q 79.890625 40.578125 77.09375 44.375 
Q 74.3125 48.1875 68.609375 48.1875 
Q 61.625 48.1875 57.5625 43.546875 
Q 53.515625 38.921875 53.515625 30.90625 
L 53.515625 0 
L 44.484375 0 
L 44.484375 32.71875 
Q 44.484375 40.625 41.703125 44.40625 
Q 38.921875 48.1875 33.109375 48.1875 
Q 26.21875 48.1875 22.15625 43.53125 
Q 18.109375 38.875 18.109375 30.90625 
L 18.109375 0 
L 9.078125 0 
L 9.078125 54.6875 
L 18.109375 54.6875 
L 18.109375 46.1875 
Q 21.1875 51.21875 25.484375 53.609375 
Q 29.78125 56 35.6875 56 
Q 41.65625 56 45.828125 52.96875 
Q 50 49.953125 52 44.1875 
z
" id="DejaVuSans-109"/>
       <path d="M 54.890625 33.015625 
L 54.890625 0 
L 45.90625 0 
L 45.90625 32.71875 
Q 45.90625 40.484375 42.875 44.328125 
Q 39.84375 48.1875 33.796875 48.1875 
Q 26.515625 48.1875 22.3125 43.546875 
Q 18.109375 38.921875 18.109375 30.90625 
L 18.109375 0 
L 9.078125 0 
L 9.078125 54.6875 
L 18.109375 54.6875 
L 18.109375 46.1875 
Q 21.34375 51.125 25.703125 53.5625 
Q 30.078125 56 35.796875 56 
Q 45.21875 56 50.046875 50.171875 
Q 54.890625 44.34375 54.890625 33.015625 
z
" id="DejaVuSans-110"/>
      </defs>
      <use xlink:href="#DejaVuSans-108"/>
      <use x="27.783203" xlink:href="#DejaVuSans-111"/>
      <use x="88.964844" xlink:href="#DejaVuSans-103"/>
      <use x="152.441406" xlink:href="#DejaVuSans-49"/>
      <use x="216.064453" xlink:href="#DejaVuSans-48"/>
      <use x="279.6875" xlink:href="#DejaVuSans-40"/>
      <use x="318.701172" xlink:href="#DejaVuSans-35"/>
      <use x="402.490234" xlink:href="#DejaVuSans-32"/>
      <use x="434.277344" xlink:href="#DejaVuSans-40"/>
      <use x="473.291016" xlink:href="#DejaVuSans-102"/>
      <use x="508.496094" xlink:href="#DejaVuSans-43"/>
      <use x="592.285156" xlink:href="#DejaVuSans-103"/>
      <use x="655.761719" xlink:href="#DejaVuSans-41"/>
      <use x="694.775391" xlink:href="#DejaVuSans-45"/>
      <use x="730.859375" xlink:href="#DejaVuSans-101"/>
      <use x="792.382812" xlink:href="#DejaVuSans-118"/>
      <use x="851.5625" xlink:href="#DejaVuSans-97"/>
      <use x="912.841797" xlink:href="#DejaVuSans-108"/>
      <use x="940.625" xlink:href="#DejaVuSans-115"/>
      <use x="992.724609" xlink:href="#DejaVuSans-32"/>
      <use x="1024.511719" xlink:href="#DejaVuSans-47"/>
      <use x="1058.203125" xlink:href="#DejaVuSans-32"/>
      <use x="1089.990234" xlink:href="#DejaVuSans-100"/>
      <use x="1153.466797" xlink:href="#DejaVuSans-105"/>
      <use x="1181.25" xlink:href="#DejaVuSans-109"/>
      <use x="1278.662109" xlink:href="#DejaVuSans-101"/>
      <use x="1340.185547" xlink:href="#DejaVuSans-110"/>
      <use x="1403.564453" xlink:href="#DejaVuSans-115"/>
      <use x="1455.664062" xlink:href="#DejaVuSans-105"/>
      <use x="1483.447266" xlink:href="#DejaVuSans-111"/>
      <use x="1544.628906" xlink:href="#DejaVuSans-110"/>
      <use x="1608.007812" xlink:href="#DejaVuSans-41"/>
     </g>
    </g>
   </g>
   <g id="matplotlib.axis_2">
    <g id="ytick_1">
     <g id="line2d_17">
      <path clip-path="url(#pa148d71f6a)" d="M 57.6 298.944 
L 338.688 298.944 
" style="fill:none;stroke:#b0b0b0;stroke-linecap:square;stroke-width:0.8;"/>
     </g>
     <g id="line2d_18">
      <defs>
       <path d="M 0 0 
L -3.5 0 
" id="m7cb6a3fa89" style="stroke:#000000;stroke-width:0.8;"/>
      </defs>
      <g>
       <use style="stroke:#000000;stroke-width:0.8;" x="57.6" xlink:href="#m7cb6a3fa89" y="298.944"/>
      </g>
     </g>
     <g id="text_6">
      <!-- 0.0 -->
      <g transform="translate(25.155 305.02275)scale(0.16 -0.16)">
       <defs>
        <path d="M 10.6875 12.40625 
L 21 12.40625 
L 21 0 
L 10.6875 0 
z
" id="DejaVuSans-46"/>
       </defs>
       <use xlink:href="#DejaVuSans-48"/>
       <use x="63.623047" xlink:href="#DejaVuSans-46"/>
       <use x="95.410156" xlink:href="#DejaVuSans-48"/>
      </g>
     </g>
    </g>
    <g id="ytick_2">
     <g id="line2d_19">
      <path clip-path="url(#pa148d71f6a)" d="M 57.6 240.431525 
L 338.688 240.431525 
" style="fill:none;stroke:#b0b0b0;stroke-linecap:square;stroke-width:0.8;"/>
     </g>
     <g id="line2d_20">
      <g>
       <use style="stroke:#000000;stroke-width:0.8;" x="57.6" xlink:href="#m7cb6a3fa89" y="240.431525"/>
      </g>
     </g>
     <g id="text_7">
      <!-- 0.2 -->
      <g transform="translate(25.155 246.510275)scale(0.16 -0.16)">
       <use xlink:href="#DejaVuSans-48"/>
       <use x="63.623047" xlink:href="#DejaVuSans-46"/>
       <use x="95.410156" xlink:href="#DejaVuSans-50"/>
      </g>
     </g>
    </g>
    <g id="ytick_3">
     <g id="line2d_21">
      <path clip-path="url(#pa148d71f6a)" d="M 57.6 181.91905 
L 338.688 181.91905 
" style="fill:none;stroke:#b0b0b0;stroke-linecap:square;stroke-width:0.8;"/>
     </g>
     <g id="line2d_22">
      <g>
       <use style="stroke:#000000;stroke-width:0.8;" x="57.6" xlink:href="#m7cb6a3fa89" y="181.91905"/>
      </g>
     </g>
     <g id="text_8">
      <!-- 0.4 -->
      <g transform="translate(25.155 187.9978)scale(0.16 -0.16)">
       <use xlink:href="#DejaVuSans-48"/>
       <use x="63.623047" xlink:href="#DejaVuSans-46"/>
       <use x="95.410156" xlink:href="#DejaVuSans-52"/>
      </g>
     </g>
    </g>
    <g id="ytick_4">
     <g id="line2d_23">
      <path clip-path="url(#pa148d71f6a)" d="M 57.6 123.406574 
L 338.688 123.406574 
" style="fill:none;stroke:#b0b0b0;stroke-linecap:square;stroke-width:0.8;"/>
     </g>
     <g id="line2d_24">
      <g>
       <use style="stroke:#000000;stroke-width:0.8;" x="57.6" xlink:href="#m7cb6a3fa89" y="123.406574"/>
      </g>
     </g>
     <g id="text_9">
      <!-- 0.6 -->
      <g transform="translate(25.155 129.485324)scale(0.16 -0.16)">
       <use xlink:href="#DejaVuSans-48"/>
       <use x="63.623047" xlink:href="#DejaVuSans-46"/>
       <use x="95.410156" xlink:href="#DejaVuSans-54"/>
      </g>
     </g>
    </g>
    <g id="ytick_5">
     <g id="line2d_25">
      <path clip-path="url(#pa148d71f6a)" d="M 57.6 64.894099 
L 338.688 64.894099 
" style="fill:none;stroke:#b0b0b0;stroke-linecap:square;stroke-width:0.8;"/>
     </g>
     <g id="line2d_26">
      <g>
       <use style="stroke:#000000;stroke-width:0.8;" x="57.6" xlink:href="#m7cb6a3fa89" y="64.894099"/>
      </g>
     </g>
     <g id="text_10">
      <!-- 0.8 -->
      <g transform="translate(25.155 70.972849)scale(0.16 -0.16)">
       <defs>
        <path d="M 31.78125 34.625 
Q 24.75 34.625 20.71875 30.859375 
Q 16.703125 27.09375 16.703125 20.515625 
Q 16.703125 13.921875 20.71875 10.15625 
Q 24.75 6.390625 31.78125 6.390625 
Q 38.8125 6.390625 42.859375 10.171875 
Q 46.921875 13.96875 46.921875 20.515625 
Q 46.921875 27.09375 42.890625 30.859375 
Q 38.875 34.625 31.78125 34.625 
z
M 21.921875 38.8125 
Q 15.578125 40.375 12.03125 44.71875 
Q 8.5 49.078125 8.5 55.328125 
Q 8.5 64.0625 14.71875 69.140625 
Q 20.953125 74.21875 31.78125 74.21875 
Q 42.671875 74.21875 48.875 69.140625 
Q 55.078125 64.0625 55.078125 55.328125 
Q 55.078125 49.078125 51.53125 44.71875 
Q 48 40.375 41.703125 38.8125 
Q 48.828125 37.15625 52.796875 32.3125 
Q 56.78125 27.484375 56.78125 20.515625 
Q 56.78125 9.90625 50.3125 4.234375 
Q 43.84375 -1.421875 31.78125 -1.421875 
Q 19.734375 -1.421875 13.25 4.234375 
Q 6.78125 9.90625 6.78125 20.515625 
Q 6.78125 27.484375 10.78125 32.3125 
Q 14.796875 37.15625 21.921875 38.8125 
z
M 18.3125 54.390625 
Q 18.3125 48.734375 21.84375 45.5625 
Q 25.390625 42.390625 31.78125 42.390625 
Q 38.140625 42.390625 41.71875 45.5625 
Q 45.3125 48.734375 45.3125 54.390625 
Q 45.3125 60.0625 41.71875 63.234375 
Q 38.140625 66.40625 31.78125 66.40625 
Q 25.390625 66.40625 21.84375 63.234375 
Q 18.3125 60.0625 18.3125 54.390625 
z
" id="DejaVuSans-56"/>
       </defs>
       <use xlink:href="#DejaVuSans-48"/>
       <use x="63.623047" xlink:href="#DejaVuSans-46"/>
       <use x="95.410156" xlink:href="#DejaVuSans-56"/>
      </g>
     </g>
    </g>
    <g id="ytick_6">
     <g id="line2d_27">
      <path clip-path="url(#pa148d71f6a)" d="M 57.6 6.381624 
L 338.688 6.381624 
" style="fill:none;stroke:#b0b0b0;stroke-linecap:square;stroke-width:0.8;"/>
     </g>
     <g id="line2d_28">
      <g>
       <use style="stroke:#000000;stroke-width:0.8;" x="57.6" xlink:href="#m7cb6a3fa89" y="6.381624"/>
      </g>
     </g>
     <g id="text_11">
      <!-- 1.0 -->
      <g transform="translate(25.155 12.460374)scale(0.16 -0.16)">
       <use xlink:href="#DejaVuSans-49"/>
       <use x="63.623047" xlink:href="#DejaVuSans-46"/>
       <use x="95.410156" xlink:href="#DejaVuSans-48"/>
      </g>
     </g>
    </g>
    <g id="text_12">
     <!-- Fraction of function,target pairs -->
     <g transform="translate(17.619531 285.585)rotate(-90)scale(0.17 -0.17)">
      <defs>
       <path d="M 9.8125 72.90625 
L 51.703125 72.90625 
L 51.703125 64.59375 
L 19.671875 64.59375 
L 19.671875 43.109375 
L 48.578125 43.109375 
L 48.578125 34.8125 
L 19.671875 34.8125 
L 19.671875 0 
L 9.8125 0 
z
" id="DejaVuSans-70"/>
       <path d="M 41.109375 46.296875 
Q 39.59375 47.171875 37.8125 47.578125 
Q 36.03125 48 33.890625 48 
Q 26.265625 48 22.1875 43.046875 
Q 18.109375 38.09375 18.109375 28.8125 
L 18.109375 0 
L 9.078125 0 
L 9.078125 54.6875 
L 18.109375 54.6875 
L 18.109375 46.1875 
Q 20.953125 51.171875 25.484375 53.578125 
Q 30.03125 56 36.53125 56 
Q 37.453125 56 38.578125 55.875 
Q 39.703125 55.765625 41.0625 55.515625 
z
" id="DejaVuSans-114"/>
       <path d="M 48.78125 52.59375 
L 48.78125 44.1875 
Q 44.96875 46.296875 41.140625 47.34375 
Q 37.3125 48.390625 33.40625 48.390625 
Q 24.65625 48.390625 19.8125 42.84375 
Q 14.984375 37.3125 14.984375 27.296875 
Q 14.984375 17.28125 19.8125 11.734375 
Q 24.65625 6.203125 33.40625 6.203125 
Q 37.3125 6.203125 41.140625 7.25 
Q 44.96875 8.296875 48.78125 10.40625 
L 48.78125 2.09375 
Q 45.015625 0.34375 40.984375 -0.53125 
Q 36.96875 -1.421875 32.421875 -1.421875 
Q 20.0625 -1.421875 12.78125 6.34375 
Q 5.515625 14.109375 5.515625 27.296875 
Q 5.515625 40.671875 12.859375 48.328125 
Q 20.21875 56 33.015625 56 
Q 37.15625 56 41.109375 55.140625 
Q 45.0625 54.296875 48.78125 52.59375 
z
" id="DejaVuSans-99"/>
       <path d="M 18.3125 70.21875 
L 18.3125 54.6875 
L 36.8125 54.6875 
L 36.8125 47.703125 
L 18.3125 47.703125 
L 18.3125 18.015625 
Q 18.3125 11.328125 20.140625 9.421875 
Q 21.96875 7.515625 27.59375 7.515625 
L 36.8125 7.515625 
L 36.8125 0 
L 27.59375 0 
Q 17.1875 0 13.234375 3.875 
Q 9.28125 7.765625 9.28125 18.015625 
L 9.28125 47.703125 
L 2.6875 47.703125 
L 2.6875 54.6875 
L 9.28125 54.6875 
L 9.28125 70.21875 
z
" id="DejaVuSans-116"/>
       <path d="M 8.5 21.578125 
L 8.5 54.6875 
L 17.484375 54.6875 
L 17.484375 21.921875 
Q 17.484375 14.15625 20.5 10.265625 
Q 23.53125 6.390625 29.59375 6.390625 
Q 36.859375 6.390625 41.078125 11.03125 
Q 45.3125 15.671875 45.3125 23.6875 
L 45.3125 54.6875 
L 54.296875 54.6875 
L 54.296875 0 
L 45.3125 0 
L 45.3125 8.40625 
Q 42.046875 3.421875 37.71875 1 
Q 33.40625 -1.421875 27.6875 -1.421875 
Q 18.265625 -1.421875 13.375 4.4375 
Q 8.5 10.296875 8.5 21.578125 
z
M 31.109375 56 
z
" id="DejaVuSans-117"/>
       <path d="M 11.71875 12.40625 
L 22.015625 12.40625 
L 22.015625 4 
L 14.015625 -11.625 
L 7.71875 -11.625 
L 11.71875 4 
z
" id="DejaVuSans-44"/>
       <path d="M 18.109375 8.203125 
L 18.109375 -20.796875 
L 9.078125 -20.796875 
L 9.078125 54.6875 
L 18.109375 54.6875 
L 18.109375 46.390625 
Q 20.953125 51.265625 25.265625 53.625 
Q 29.59375 56 35.59375 56 
Q 45.5625 56 51.78125 48.09375 
Q 58.015625 40.1875 58.015625 27.296875 
Q 58.015625 14.40625 51.78125 6.484375 
Q 45.5625 -1.421875 35.59375 -1.421875 
Q 29.59375 -1.421875 25.265625 0.953125 
Q 20.953125 3.328125 18.109375 8.203125 
z
M 48.6875 27.296875 
Q 48.6875 37.203125 44.609375 42.84375 
Q 40.53125 48.484375 33.40625 48.484375 
Q 26.265625 48.484375 22.1875 42.84375 
Q 18.109375 37.203125 18.109375 27.296875 
Q 18.109375 17.390625 22.1875 11.75 
Q 26.265625 6.109375 33.40625 6.109375 
Q 40.53125 6.109375 44.609375 11.75 
Q 48.6875 17.390625 48.6875 27.296875 
z
" id="DejaVuSans-112"/>
      </defs>
      <use xlink:href="#DejaVuSans-70"/>
      <use x="50.269531" xlink:href="#DejaVuSans-114"/>
      <use x="91.382812" xlink:href="#DejaVuSans-97"/>
      <use x="152.662109" xlink:href="#DejaVuSans-99"/>
      <use x="207.642578" xlink:href="#DejaVuSans-116"/>
      <use x="246.851562" xlink:href="#DejaVuSans-105"/>
      <use x="274.634766" xlink:href="#DejaVuSans-111"/>
      <use x="335.816406" xlink:href="#DejaVuSans-110"/>
      <use x="399.195312" xlink:href="#DejaVuSans-32"/>
      <use x="430.982422" xlink:href="#DejaVuSans-111"/>
      <use x="492.164062" xlink:href="#DejaVuSans-102"/>
      <use x="527.369141" xlink:href="#DejaVuSans-32"/>
      <use x="559.15625" xlink:href="#DejaVuSans-102"/>
      <use x="594.361328" xlink:href="#DejaVuSans-117"/>
      <use x="657.740234" xlink:href="#DejaVuSans-110"/>
      <use x="721.119141" xlink:href="#DejaVuSans-99"/>
      <use x="776.099609" xlink:href="#DejaVuSans-116"/>
      <use x="815.308594" xlink:href="#DejaVuSans-105"/>
      <use x="843.091797" xlink:href="#DejaVuSans-111"/>
      <use x="904.273438" xlink:href="#DejaVuSans-110"/>
      <use x="967.652344" xlink:href="#DejaVuSans-44"/>
      <use x="999.439453" xlink:href="#DejaVuSans-116"/>
      <use x="1038.648438" xlink:href="#DejaVuSans-97"/>
      <use x="1099.927734" xlink:href="#DejaVuSans-114"/>
      <use x="1139.291016" xlink:href="#DejaVuSans-103"/>
      <use x="1202.767578" xlink:href="#DejaVuSans-101"/>
      <use x="1264.291016" xlink:href="#DejaVuSans-116"/>
      <use x="1303.5" xlink:href="#DejaVuSans-32"/>
      <use x="1335.287109" xlink:href="#DejaVuSans-112"/>
      <use x="1398.763672" xlink:href="#DejaVuSans-97"/>
      <use x="1460.042969" xlink:href="#DejaVuSans-105"/>
      <use x="1487.826172" xlink:href="#DejaVuSans-114"/>
      <use x="1528.939453" xlink:href="#DejaVuSans-115"/>
     </g>
    </g>
   </g>
   <g id="line2d_29">
    <defs>
     <path d="M 0 1.5 
C 0.397805 1.5 0.77937 1.341951 1.06066 1.06066 
C 1.341951 0.77937 1.5 0.397805 1.5 0 
C 1.5 -0.397805 1.341951 -0.77937 1.06066 -1.06066 
C 0.77937 -1.341951 0.397805 -1.5 0 -1.5 
C -0.397805 -1.5 -0.77937 -1.341951 -1.06066 -1.06066 
C -1.341951 -0.77937 -1.5 -0.397805 -1.5 0 
C -1.5 0.397805 -1.341951 0.77937 -1.06066 1.06066 
C -0.77937 1.341951 -0.397805 1.5 0 1.5 
z
" id="m2f84d234a6" style="stroke:#000080;"/>
    </defs>
    <g>
     <use style="fill:#000080;stroke:#000080;" x="215.193569" xlink:href="#m2f84d234a6" y="6.381624"/>
     <use style="fill:#000080;stroke:#000080;" x="215.193569" xlink:href="#m2f84d234a6" y="6.381624"/>
    </g>
   </g>
   <g id="line2d_30">
    <path d="M 144.747789 298.944 
L 144.747789 297.516866 
L 145.074639 297.516866 
L 145.074639 296.089733 
L 145.350002 296.089733 
L 145.440832 294.186888 
L 145.710517 294.186888 
L 145.710517 293.711177 
L 146.019967 293.711177 
L 146.019967 293.235466 
L 146.324022 293.235466 
L 146.324022 291.808332 
L 146.833235 291.808332 
L 146.833235 291.332621 
L 147.769524 291.332621 
L 147.848613 289.905488 
L 148.083753 289.905488 
L 148.083753 288.478354 
L 148.315765 288.478354 
L 148.354135 286.099798 
L 149.752971 286.099798 
L 149.752971 284.672665 
L 150.172372 284.672665 
L 150.172372 281.342686 
L 150.849711 281.342686 
L 150.882897 280.391264 
L 151.047887 280.391264 
L 151.080698 278.012708 
L 151.437608 278.012708 
L 151.437608 277.536997 
L 151.787359 277.536997 
L 151.787359 277.061286 
L 152.09934 277.061286 
L 152.191856 276.109863 
L 152.222586 276.109863 
L 152.222586 275.634152 
L 152.405838 275.634152 
L 152.466496 273.731307 
L 152.587184 273.731307 
L 152.587184 273.255596 
L 153.090987 273.255596 
L 153.149313 272.304174 
L 153.265382 272.304174 
L 153.294279 270.401329 
L 153.40939 270.401329 
L 153.438049 269.449907 
L 154.167129 269.449907 
L 154.167129 268.974196 
L 154.493614 268.974196 
L 154.601099 268.022773 
L 154.840544 268.022773 
L 154.840544 267.547062 
L 155.076745 267.547062 
L 155.076745 266.119929 
L 155.361158 266.119929 
L 155.361158 265.644217 
L 155.514359 265.644217 
L 155.514359 265.168506 
L 155.86668 265.168506 
L 155.86668 264.692795 
L 156.212023 264.692795 
L 156.212023 264.217084 
L 156.526689 264.217084 
L 156.610446 262.78995 
L 156.717545 262.78995 
L 156.764934 259.459972 
L 156.882847 259.459972 
L 156.906335 258.50855 
L 157.437991 258.50855 
L 157.437991 258.032838 
L 157.887482 258.032838 
L 157.887482 257.557127 
L 158.497919 257.557127 
L 158.497919 257.081416 
L 159.004665 257.081416 
L 159.004665 256.129994 
L 159.293606 256.129994 
L 159.293606 254.227149 
L 159.436301 254.227149 
L 159.436301 253.275727 
L 159.577838 253.275727 
L 159.577838 252.324304 
L 159.758143 252.324304 
L 159.758143 251.848593 
L 159.956318 251.848593 
L 160.034962 250.42146 
L 160.171742 250.42146 
L 160.171742 248.994326 
L 160.461277 248.994326 
L 160.461277 248.518615 
L 160.746084 248.518615 
L 160.830627 247.091481 
L 160.8961 247.091481 
L 160.914762 241.382947 
L 161.026314 241.382947 
L 161.026314 240.431525 
L 161.302112 240.431525 
L 161.302112 239.955814 
L 161.627414 239.955814 
L 161.627414 239.004391 
L 161.840959 239.004391 
L 161.893939 238.052969 
L 161.990653 238.052969 
L 162.051921 236.625835 
L 162.104265 236.625835 
L 162.156452 235.198702 
L 162.260361 235.198702 
L 162.260361 234.247279 
L 162.68677 234.247279 
L 162.68677 233.771568 
L 162.921083 233.771568 
L 162.921083 233.295857 
L 163.086542 233.295857 
L 163.185069 231.868723 
L 163.84384 231.868723 
L 163.84384 229.965879 
L 164.032036 229.965879 
L 164.032036 225.684478 
L 164.75018 225.684478 
L 164.75018 225.208767 
L 164.899235 225.208767 
L 164.98806 223.781633 
L 165.468672 223.781633 
L 165.568939 220.451655 
L 165.654426 220.451655 
L 165.654426 219.975944 
L 165.978297 219.975944 
L 166.034014 218.54881 
L 166.117256 218.54881 
L 166.213873 216.645966 
L 166.296264 216.645966 
L 166.296264 215.218832 
L 166.473452 215.218832 
L 166.568121 212.364565 
L 166.635428 212.364565 
L 166.715855 210.937432 
L 166.809221 210.937432 
L 166.822518 209.034587 
L 166.928532 209.034587 
L 167.020769 208.083164 
L 167.086355 208.083164 
L 167.164734 204.753186 
L 167.229781 204.753186 
L 167.320442 203.801764 
L 167.397779 203.801764 
L 167.397779 202.850341 
L 167.55143 202.850341 
L 167.627751 201.423208 
L 167.728995 201.423208 
L 167.728995 200.947497 
L 167.842196 200.947497 
L 167.942207 197.617518 
L 167.96712 197.617518 
L 167.96712 196.666096 
L 168.152844 196.666096 
L 168.226583 194.763251 
L 168.33661 194.763251 
L 168.373132 192.860407 
L 168.482242 192.860407 
L 168.530517 191.908984 
L 168.614678 191.908984 
L 168.710367 189.054717 
L 168.758015 189.054717 
L 168.78179 185.249028 
L 168.923766 185.249028 
L 168.994323 180.491916 
L 169.07628 180.491916 
L 169.134586 176.686227 
L 169.204297 176.686227 
L 169.285276 175.734804 
L 169.342888 175.734804 
L 169.371623 171.453404 
L 169.548731 171.453404 
L 169.548731 170.501981 
L 169.78585 170.501981 
L 169.830653 169.074848 
L 169.942157 169.074848 
L 170.041906 167.172003 
L 170.108089 167.172003 
L 170.152072 166.220581 
L 170.239707 166.220581 
L 170.239707 165.744869 
L 170.446091 165.744869 
L 170.532264 163.842025 
L 170.607318 163.842025 
L 170.607318 160.987758 
L 170.819995 160.987758 
L 170.819995 160.512046 
L 170.935871 160.512046 
L 171.009212 158.609202 
L 171.103055 158.609202 
L 171.165339 157.657779 
L 171.258348 157.657779 
L 171.258348 157.182068 
L 171.371357 157.182068 
L 171.453088 156.230646 
L 171.706056 156.230646 
L 171.786237 154.803512 
L 171.846131 154.803512 
L 171.846131 154.327801 
L 172.279183 154.327801 
L 172.356777 152.424956 
L 172.42439 152.424956 
L 172.434028 151.473534 
L 172.69225 151.473534 
L 172.796366 144.813577 
L 172.852895 144.813577 
L 172.918615 142.435021 
L 173.00275 142.435021 
L 173.091121 140.532177 
L 173.831397 140.532177 
L 173.937789 139.580754 
L 174.209666 139.580754 
L 174.209666 139.105043 
L 174.443058 139.105043 
L 174.443058 138.153621 
L 174.69877 138.153621 
L 174.783181 137.202199 
L 174.992439 137.202199 
L 174.992439 136.726487 
L 175.516968 136.726487 
L 175.565343 135.299354 
L 175.693692 135.299354 
L 175.789337 133.396509 
L 176.135616 133.396509 
L 176.182307 127.687975 
L 176.275317 127.687975 
L 176.275317 126.736553 
L 176.448384 126.736553 
L 176.448384 125.78513 
L 176.566617 125.78513 
L 176.657605 120.552307 
L 177.361644 120.552307 
L 177.361644 119.125174 
L 179.200509 119.125174 
L 179.27877 116.270907 
L 179.401971 116.270907 
L 179.401971 115.795195 
L 179.690336 115.795195 
L 179.690336 115.319484 
L 179.873676 115.319484 
L 179.97401 113.892351 
L 180.030195 113.892351 
L 180.129636 108.183816 
L 180.216183 108.183816 
L 180.216183 107.708105 
L 181.407854 107.708105 
L 181.407854 107.232394 
L 181.596884 107.232394 
L 181.596884 105.805261 
L 182.647095 105.805261 
L 182.647095 105.329549 
L 183.408069 105.329549 
L 183.469583 102.950993 
L 183.586883 102.950993 
L 183.622426 101.048149 
L 183.703398 101.048149 
L 183.773941 99.621015 
L 183.849208 99.621015 
L 183.849208 98.669593 
L 184.068135 98.669593 
L 184.137221 95.815326 
L 184.181489 95.815326 
L 184.181489 95.339615 
L 185.267035 95.339615 
L 185.363703 91.058214 
L 185.379762 91.058214 
L 185.455272 88.679658 
L 185.500877 88.679658 
L 185.500877 88.203947 
L 185.727129 88.203947 
L 185.807867 83.922546 
L 185.950484 83.922546 
L 185.950484 83.446835 
L 186.188536 83.446835 
L 186.214787 77.738301 
L 186.358464 77.738301 
L 186.358464 76.311167 
L 186.496666 76.311167 
L 186.498817 74.408323 
L 186.680667 74.408323 
L 186.757118 71.554056 
L 190.262064 71.554056 
L 190.327801 69.651211 
L 190.831547 69.651211 
L 190.868413 67.272655 
L 190.961903 67.272655 
L 190.961903 66.796944 
L 191.167151 66.796944 
L 191.213165 65.845521 
L 191.379768 65.845521 
L 191.425225 63.466965 
L 191.502877 63.466965 
L 191.502877 62.039832 
L 191.759248 62.039832 
L 191.79738 60.136987 
L 191.886033 60.136987 
L 191.983662 55.855587 
L 192.008768 55.855587 
L 192.008768 54.904164 
L 198.764399 54.904164 
L 198.802675 53.952742 
L 199.323727 53.952742 
L 199.348449 52.525608 
L 199.485839 52.525608 
L 199.565318 47.768496 
L 200.117658 47.768496 
L 200.200197 45.389941 
L 205.885021 45.389941 
L 205.930248 43.962807 
L 206.044207 43.962807 
L 206.119769 39.681406 
L 206.200564 39.681406 
L 206.239436 37.778562 
L 206.41741 37.778562 
L 206.4229 36.351428 
L 206.578633 36.351428 
L 206.670869 30.642894 
L 206.690474 30.642894 
L 206.727595 25.885782 
L 214.838962 25.885782 
L 214.936084 23.982937 
L 214.950395 23.982937 
L 215.052757 19.701537 
L 215.071988 19.701537 
L 215.180286 7.808757 
L 215.193569 7.808757 
L 215.193569 6.381624 
L 338.688 6.381624 
L 338.688 6.381624 
" style="fill:none;stroke:#000080;stroke-linecap:square;stroke-width:1.5;"/>
   </g>
   <g id="line2d_31">
    <defs>
     <path d="M 0 6 
C 1.591219 6 3.117479 5.367802 4.242641 4.242641 
C 5.367802 3.117479 6 1.591219 6 0 
C 6 -1.591219 5.367802 -3.117479 4.242641 -4.242641 
C 3.117479 -5.367802 1.591219 -6 0 -6 
C -1.591219 -6 -3.117479 -5.367802 -4.242641 -4.242641 
C -5.367802 -3.117479 -6 -1.591219 -6 0 
C -6 1.591219 -5.367802 3.117479 -4.242641 4.242641 
C -3.117479 5.367802 -1.591219 6 0 6 
z
" id="mb0a04fe63f" style="stroke:#000080;stroke-width:1.5;"/>
    </defs>
    <g>
     <use style="fill-opacity:0;stroke:#000080;stroke-width:1.5;" x="167.164734" xlink:href="#mb0a04fe63f" y="206.18032"/>
     <use style="fill-opacity:0;stroke:#000080;stroke-width:1.5;" x="186.757118" xlink:href="#mb0a04fe63f" y="72.981189"/>
     <use style="fill-opacity:0;stroke:#000080;stroke-width:1.5;" x="215.193569" xlink:href="#mb0a04fe63f" y="7.808757"/>
     <use style="fill-opacity:0;stroke:#000080;stroke-width:1.5;" x="215.193569" xlink:href="#mb0a04fe63f" y="6.381624"/>
     <use style="fill-opacity:0;stroke:#000080;stroke-width:1.5;" x="338.688" xlink:href="#mb0a04fe63f" y="6.381624"/>
    </g>
   </g>
   <g id="line2d_32">
    <path style="fill:none;stroke:#000080;stroke-linecap:square;stroke-width:1.5;"/>
    <g/>
   </g>
   <g id="line2d_33">
    <defs>
     <path d="M 0 1.5 
C 0.397805 1.5 0.77937 1.341951 1.06066 1.06066 
C 1.341951 0.77937 1.5 0.397805 1.5 0 
C 1.5 -0.397805 1.341951 -0.77937 1.06066 -1.06066 
C 0.77937 -1.341951 0.397805 -1.5 0 -1.5 
C -0.397805 -1.5 -0.77937 -1.341951 -1.06066 -1.06066 
C -1.341951 -0.77937 -1.5 -0.397805 -1.5 0 
C -1.5 0.397805 -1.341951 0.77937 -1.06066 1.06066 
C -0.77937 1.341951 -0.397805 1.5 0 1.5 
z
" id="m6677d3c04d" style="stroke:#ff00ff;"/>
    </defs>
    <g>
     <use style="fill:#ff00ff;stroke:#ff00ff;" x="223.626291" xlink:href="#m6677d3c04d" y="6.381624"/>
     <use style="fill:#ff00ff;stroke:#ff00ff;" x="223.626291" xlink:href="#m6677d3c04d" y="6.381624"/>
    </g>
   </g>
   <g id="line2d_34">
    <path d="M 147.729844 298.944 
L 147.729844 298.468289 
L 148.005725 298.468289 
L 148.005725 297.992578 
L 148.161434 297.992578 
L 148.161434 295.614022 
L 148.27731 295.614022 
L 148.27731 294.662599 
L 148.392421 294.662599 
L 148.392421 294.186888 
L 148.54473 294.186888 
L 148.54473 293.711177 
L 149.030744 293.711177 
L 149.030744 293.235466 
L 149.467659 293.235466 
L 149.467659 292.284043 
L 149.998846 292.284043 
L 150.103169 291.332621 
L 150.344189 291.332621 
L 150.344189 289.905488 
L 150.615623 289.905488 
L 150.615623 288.954065 
L 150.849711 288.954065 
L 150.849711 288.002643 
L 151.21133 288.002643 
L 151.21133 287.05122 
L 151.405461 287.05122 
L 151.405461 286.099798 
L 151.755852 286.099798 
L 151.755852 285.624087 
L 152.253262 285.624087 
L 152.253262 285.148376 
L 152.466496 285.148376 
L 152.55709 283.721242 
L 152.766663 283.721242 
L 152.766663 282.294109 
L 153.149313 282.294109 
L 153.149313 281.818397 
L 153.294279 281.818397 
L 153.294279 281.342686 
L 153.637357 281.342686 
L 153.637357 280.866975 
L 153.806399 280.866975 
L 153.806399 279.439842 
L 153.918189 279.439842 
L 154.029268 278.488419 
L 154.084543 278.488419 
L 154.084543 277.061286 
L 154.303908 277.061286 
L 154.385464 274.207019 
L 154.627867 274.207019 
L 154.654594 272.304174 
L 154.787617 272.304174 
L 154.840544 270.401329 
L 155.024532 270.401329 
L 155.024532 269.925618 
L 155.206599 269.925618 
L 155.206599 268.974196 
L 155.386785 268.974196 
L 155.386785 268.498484 
L 155.666226 268.498484 
L 155.666226 265.644217 
L 155.86668 265.644217 
L 155.86668 264.692795 
L 156.015522 264.692795 
L 156.015522 261.838528 
L 156.32159 261.838528 
L 156.32159 260.411394 
L 156.598505 260.411394 
L 156.598505 257.557127 
L 156.92979 257.557127 
L 156.92979 257.081416 
L 157.483465 257.081416 
L 157.483465 256.605705 
L 157.887482 256.605705 
L 157.887482 255.654283 
L 158.151718 255.654283 
L 158.151718 254.70286 
L 158.28235 254.70286 
L 158.28235 254.227149 
L 158.433528 254.227149 
L 158.476481 253.275727 
L 158.710855 253.275727 
L 158.710855 252.324304 
L 158.83738 252.324304 
L 158.83738 251.848593 
L 158.962994 251.848593 
L 158.962994 250.897171 
L 159.232092 250.897171 
L 159.232092 249.945748 
L 159.39565 249.945748 
L 159.39565 249.470037 
L 160.132771 249.470037 
L 160.132771 248.994326 
L 160.307457 248.994326 
L 160.307457 248.518615 
L 160.689494 248.518615 
L 160.689494 248.042904 
L 160.821253 248.042904 
L 160.821253 247.567192 
L 160.970627 247.567192 
L 160.970627 247.091481 
L 161.081824 247.091481 
L 161.155563 245.188637 
L 161.228992 245.188637 
L 161.26559 244.237214 
L 161.393084 244.237214 
L 161.483584 242.810081 
L 161.7523 242.810081 
L 161.7523 242.334369 
L 161.893939 242.334369 
L 161.893939 241.382947 
L 162.051921 241.382947 
L 162.051921 240.907236 
L 162.191157 240.907236 
L 162.191157 240.431525 
L 162.397949 240.431525 
L 162.397949 239.955814 
L 162.821048 239.955814 
L 162.821048 239.004391 
L 162.9543 239.004391 
L 162.9543 238.52868 
L 163.445119 238.52868 
L 163.445119 238.052969 
L 163.669525 238.052969 
L 163.669525 237.577258 
L 163.780654 237.577258 
L 163.780654 236.625835 
L 164.078769 236.625835 
L 164.187328 233.295857 
L 164.279845 233.295857 
L 164.279845 232.344435 
L 164.53934 232.344435 
L 164.53934 231.393012 
L 164.705214 231.393012 
L 164.720216 230.44159 
L 164.899235 230.44159 
L 164.899235 229.965879 
L 165.142423 229.965879 
L 165.222738 227.587323 
L 165.324425 227.587323 
L 165.324425 226.160189 
L 165.922402 226.160189 
L 165.922402 225.684478 
L 166.089553 225.684478 
L 166.089553 225.208767 
L 166.268843 225.208767 
L 166.364626 222.830211 
L 166.487008 222.830211 
L 166.487008 222.3545 
L 166.702476 222.3545 
L 166.702476 221.878789 
L 166.822518 221.878789 
L 166.915315 220.451655 
L 167.564173 220.451655 
L 167.602347 219.024522 
L 167.754214 219.024522 
L 167.754214 218.54881 
L 168.165155 218.54881 
L 168.238843 217.121677 
L 168.385289 217.121677 
L 168.494323 215.694543 
L 169.087957 215.694543 
L 169.157854 213.315987 
L 169.250616 213.315987 
L 169.250616 212.840276 
L 169.468969 212.840276 
L 169.468969 212.364565 
L 169.673338 212.364565 
L 169.673338 211.888854 
L 169.830653 211.888854 
L 169.830653 210.937432 
L 170.184987 210.937432 
L 170.272457 208.558876 
L 170.424481 208.558876 
L 170.424481 208.083164 
L 170.596616 208.083164 
L 170.676723 206.656031 
L 170.724611 206.656031 
L 170.788258 204.277475 
L 170.946367 204.277475 
L 171.009212 199.044652 
L 171.07183 199.044652 
L 171.07183 198.568941 
L 171.422484 198.568941 
L 171.483639 197.141807 
L 171.585089 197.141807 
L 171.645677 192.384695 
L 171.726136 192.384695 
L 171.826189 190.481851 
L 171.885947 190.481851 
L 171.945501 188.103295 
L 172.004852 188.103295 
L 172.093501 186.676161 
L 172.132757 186.676161 
L 172.230511 184.297605 
L 172.288901 184.297605 
L 172.361615 182.394761 
L 172.414747 182.394761 
L 172.491742 179.064782 
L 172.577957 179.064782 
L 172.663747 177.161938 
L 172.777482 177.161938 
L 172.777482 176.686227 
L 172.918615 176.686227 
L 172.918615 175.259093 
L 173.105034 175.259093 
L 173.105034 174.783382 
L 173.243551 174.783382 
L 173.353579 173.831959 
L 173.598631 173.831959 
L 173.598631 173.356248 
L 173.813602 173.356248 
L 173.813602 172.880537 
L 173.928948 172.880537 
L 173.928948 171.929115 
L 174.061097 171.929115 
L 174.166101 170.02627 
L 174.200962 170.02627 
L 174.253123 169.074848 
L 174.313782 169.074848 
L 174.313782 166.696292 
L 174.639439 166.696292 
L 174.741027 164.793447 
L 175.009071 164.793447 
L 175.009071 163.366313 
L 175.158055 163.366313 
L 175.207435 161.463469 
L 175.305777 161.463469 
L 175.305777 160.512046 
L 175.581438 160.512046 
L 175.637655 158.609202 
L 175.733608 158.609202 
L 175.733608 158.13349 
L 176.665166 158.13349 
L 176.665166 157.657779 
L 176.838169 157.657779 
L 176.890483 156.706357 
L 177.002059 156.706357 
L 177.053884 154.327801 
L 177.186447 154.327801 
L 177.281564 150.522112 
L 177.31801 150.522112 
L 177.40517 142.435021 
L 177.491897 142.435021 
L 177.491897 141.483599 
L 177.799173 141.483599 
L 177.820411 134.347931 
L 178.709976 134.347931 
L 178.709976 133.87222 
L 178.910506 133.87222 
L 178.910506 132.920798 
L 180.179144 132.920798 
L 180.179144 131.969376 
L 180.296166 131.969376 
L 180.296166 131.017953 
L 180.52788 131.017953 
L 180.52788 130.542242 
L 181.135043 130.542242 
L 181.210929 129.115108 
L 181.292285 129.115108 
L 181.292285 128.639397 
L 181.448123 128.639397 
L 181.448123 128.163686 
L 181.968906 128.163686 
L 181.974482 127.212264 
L 182.711348 127.212264 
L 182.743386 126.260841 
L 182.823224 126.260841 
L 182.913267 124.357997 
L 183.170233 124.357997 
L 183.170233 122.930863 
L 183.372085 122.930863 
L 183.372085 122.455152 
L 183.789021 122.455152 
L 183.894213 120.076596 
L 184.713659 120.076596 
L 184.713659 119.600885 
L 185.267035 119.600885 
L 185.267035 119.125174 
L 185.668585 119.125174 
L 185.668585 118.649462 
L 185.906041 118.649462 
L 185.906041 118.173751 
L 187.088745 118.173751 
L 187.088745 117.69804 
L 187.721634 117.69804 
L 187.721634 117.222329 
L 188.274181 117.222329 
L 188.274181 116.746618 
L 188.486552 116.746618 
L 188.490389 115.795195 
L 188.719104 115.795195 
L 188.719104 115.319484 
L 188.869931 115.319484 
L 188.869931 113.416639 
L 189.3184 113.416639 
L 189.398715 111.038084 
L 189.449633 111.038084 
L 189.525732 108.183816 
L 189.612297 108.183816 
L 189.716327 101.52386 
L 189.727053 101.52386 
L 189.801954 99.145304 
L 190.05634 99.145304 
L 190.140317 97.71817 
L 190.206514 97.71817 
L 190.227366 96.291037 
L 190.327801 96.291037 
L 190.355406 94.863903 
L 190.598501 94.863903 
L 190.686682 93.43677 
L 190.961903 93.43677 
L 191.044955 91.533925 
L 191.35374 91.533925 
L 191.35374 90.582503 
L 191.92389 90.582503 
L 191.92389 90.106792 
L 192.058872 90.106792 
L 192.124416 88.203947 
L 192.220723 88.203947 
L 192.24549 87.252525 
L 192.521725 87.252525 
L 192.564304 85.34968 
L 192.664261 85.34968 
L 192.706494 83.922546 
L 192.877395 83.922546 
L 192.984476 81.54399 
L 193.022983 81.54399 
L 193.114466 78.689723 
L 193.223031 78.689723 
L 193.223031 76.311167 
L 193.357068 76.311167 
L 193.412132 73.4569 
L 193.478556 73.4569 
L 193.530365 66.796944 
L 193.604928 66.796944 
L 193.687721 65.845521 
L 193.961827 65.845521 
L 194.070832 64.418388 
L 197.898093 64.418388 
L 197.898093 63.942677 
L 198.239268 63.942677 
L 198.239268 63.466965 
L 199.759426 63.466965 
L 199.759426 62.039832 
L 203.250203 62.039832 
L 203.250203 61.564121 
L 204.914588 61.564121 
L 204.920572 60.612698 
L 205.346085 60.612698 
L 205.346085 60.136987 
L 206.089024 60.136987 
L 206.107198 59.185565 
L 208.291638 59.185565 
L 208.299033 58.234142 
L 208.560759 58.234142 
L 208.560759 57.758431 
L 209.211256 57.758431 
L 209.211256 57.28272 
L 210.529021 57.28272 
L 210.631729 49.19563 
L 210.68232 49.19563 
L 210.713462 48.244208 
L 210.943158 48.244208 
L 211.046094 44.438518 
L 211.054514 44.438518 
L 211.100747 42.535674 
L 211.179271 42.535674 
L 211.218923 41.10854 
L 211.317658 41.10854 
L 211.359065 39.205695 
L 211.473455 39.205695 
L 211.574849 35.875717 
L 211.676673 35.875717 
L 211.778915 34.924295 
L 211.795057 34.924295 
L 211.846409 28.740049 
L 215.068645 28.740049 
L 215.121222 27.312916 
L 215.573618 27.312916 
L 215.658666 13.04158 
L 217.937594 13.04158 
L 218.016825 12.090158 
L 218.080233 12.090158 
L 218.121675 7.333046 
L 223.623221 7.333046 
L 223.626291 6.381624 
L 338.688 6.381624 
L 338.688 6.381624 
" style="fill:none;stroke:#ff00ff;stroke-linecap:square;stroke-width:1.5;"/>
   </g>
   <g id="line2d_35">
    <defs>
     <path d="M -0 8.485281 
L 5.091169 0 
L 0 -8.485281 
L -5.091169 -0 
z
" id="m0b2c9ff22f" style="stroke:#ff00ff;stroke-linejoin:miter;stroke-width:1.5;"/>
    </defs>
    <g>
     <use style="fill-opacity:0;stroke:#ff00ff;stroke-linejoin:miter;stroke-width:1.5;" x="185.906041" xlink:href="#m0b2c9ff22f" y="118.173751"/>
     <use style="fill-opacity:0;stroke:#ff00ff;stroke-linejoin:miter;stroke-width:1.5;" x="215.610118" xlink:href="#m0b2c9ff22f" y="23.982937"/>
     <use style="fill-opacity:0;stroke:#ff00ff;stroke-linejoin:miter;stroke-width:1.5;" x="223.626291" xlink:href="#m0b2c9ff22f" y="6.381624"/>
     <use style="fill-opacity:0;stroke:#ff00ff;stroke-linejoin:miter;stroke-width:1.5;" x="223.626291" xlink:href="#m0b2c9ff22f" y="6.381624"/>
     <use style="fill-opacity:0;stroke:#ff00ff;stroke-linejoin:miter;stroke-width:1.5;" x="338.688" xlink:href="#m0b2c9ff22f" y="6.381624"/>
    </g>
   </g>
   <g id="line2d_36">
    <path style="fill:none;stroke:#ff00ff;stroke-linecap:square;stroke-width:1.5;"/>
    <g/>
   </g>
   <g id="line2d_37">
    <path clip-path="url(#pa148d71f6a)" d="M 206.141397 59.185565 
" style="fill:none;stroke:#ff00ff;stroke-linecap:square;stroke-width:1.5;"/>
    <defs>
     <path d="M -12 12 
L 12 -12 
M -12 -12 
L 12 12 
" id="m9f60531c3f" style="stroke:#ff00ff;"/>
    </defs>
    <g clip-path="url(#pa148d71f6a)">
     <use style="fill:#ff00ff;stroke:#ff00ff;" x="206.141397" xlink:href="#m9f60531c3f" y="59.185565"/>
    </g>
   </g>
   <g id="line2d_38">
    <path d="M 338.688 6.381624 
L 369.60768 293.092752 
" style="fill:none;stroke:#ff00ff;stroke-linecap:square;stroke-width:1.5;"/>
    <g>
     <use style="fill-opacity:0;stroke:#ff00ff;stroke-linejoin:miter;stroke-width:1.5;" x="338.688" xlink:href="#m0b2c9ff22f" y="6.381624"/>
     <use style="fill-opacity:0;stroke:#ff00ff;stroke-linejoin:miter;stroke-width:1.5;" x="369.60768" xlink:href="#m0b2c9ff22f" y="293.092752"/>
    </g>
   </g>
   <g id="line2d_39">
    <path d="M 338.688 6.381624 
L 369.60768 12.232871 
" style="fill:none;stroke:#000080;stroke-linecap:square;stroke-width:1.5;"/>
    <g>
     <use style="fill-opacity:0;stroke:#000080;stroke-width:1.5;" x="338.688" xlink:href="#mb0a04fe63f" y="6.381624"/>
     <use style="fill-opacity:0;stroke:#000080;stroke-width:1.5;" x="369.60768" xlink:href="#mb0a04fe63f" y="12.232871"/>
    </g>
   </g>
   <g id="line2d_40">
    <path d="M 338.688 298.944 
L 338.688 6.381624 
" style="fill:none;stroke:#000000;stroke-linecap:square;stroke-width:1.5;"/>
   </g>
   <g id="patch_3">
    <path d="M 57.6 298.944 
L 57.6 3.456 
" style="fill:none;stroke:#000000;stroke-linecap:square;stroke-linejoin:miter;stroke-width:0.8;"/>
   </g>
   <g id="patch_4">
    <path d="M 338.688 298.944 
L 338.688 3.456 
" style="fill:none;stroke:#000000;stroke-linecap:square;stroke-linejoin:miter;stroke-width:0.8;"/>
   </g>
   <g id="patch_5">
    <path d="M 57.6 298.944 
L 338.688 298.944 
" style="fill:none;stroke:#000000;stroke-linecap:square;stroke-linejoin:miter;stroke-width:0.8;"/>
   </g>
   <g id="patch_6">
    <path d="M 57.6 3.456 
L 338.688 3.456 
" style="fill:none;stroke:#000000;stroke-linecap:square;stroke-linejoin:miter;stroke-width:0.8;"/>
   </g>
   <g id="text_13">
    <!-- f52 -->
    <g transform="translate(375.22944 297.78369)scale(0.17 -0.17)">
     <defs>
      <path d="M 10.796875 72.90625 
L 49.515625 72.90625 
L 49.515625 64.59375 
L 19.828125 64.59375 
L 19.828125 46.734375 
Q 21.96875 47.46875 24.109375 47.828125 
Q 26.265625 48.1875 28.421875 48.1875 
Q 40.625 48.1875 47.75 41.5 
Q 54.890625 34.8125 54.890625 23.390625 
Q 54.890625 11.625 47.5625 5.09375 
Q 40.234375 -1.421875 26.90625 -1.421875 
Q 22.3125 -1.421875 17.546875 -0.640625 
Q 12.796875 0.140625 7.71875 1.703125 
L 7.71875 11.625 
Q 12.109375 9.234375 16.796875 8.0625 
Q 21.484375 6.890625 26.703125 6.890625 
Q 35.15625 6.890625 40.078125 11.328125 
Q 45.015625 15.765625 45.015625 23.390625 
Q 45.015625 31 40.078125 35.4375 
Q 35.15625 39.890625 26.703125 39.890625 
Q 22.75 39.890625 18.8125 39.015625 
Q 14.890625 38.140625 10.796875 36.28125 
z
" id="DejaVuSans-53"/>
     </defs>
     <use xlink:href="#DejaVuSans-102"/>
     <use x="35.205078" xlink:href="#DejaVuSans-53"/>
     <use x="98.828125" xlink:href="#DejaVuSans-50"/>
    </g>
   </g>
   <g id="text_14">
    <!-- f46 -->
    <g transform="translate(375.22944 16.923809)scale(0.17 -0.17)">
     <use xlink:href="#DejaVuSans-102"/>
     <use x="35.205078" xlink:href="#DejaVuSans-52"/>
     <use x="98.828125" xlink:href="#DejaVuSans-54"/>
    </g>
   </g>
   <g id="text_15">
    <!-- bbob-constrained -->
    <g transform="translate(60.41088 14.161286)scale(0.102 -0.102)">
     <defs>
      <path d="M 48.6875 27.296875 
Q 48.6875 37.203125 44.609375 42.84375 
Q 40.53125 48.484375 33.40625 48.484375 
Q 26.265625 48.484375 22.1875 42.84375 
Q 18.109375 37.203125 18.109375 27.296875 
Q 18.109375 17.390625 22.1875 11.75 
Q 26.265625 6.109375 33.40625 6.109375 
Q 40.53125 6.109375 44.609375 11.75 
Q 48.6875 17.390625 48.6875 27.296875 
z
M 18.109375 46.390625 
Q 20.953125 51.265625 25.265625 53.625 
Q 29.59375 56 35.59375 56 
Q 45.5625 56 51.78125 48.09375 
Q 58.015625 40.1875 58.015625 27.296875 
Q 58.015625 14.40625 51.78125 6.484375 
Q 45.5625 -1.421875 35.59375 -1.421875 
Q 29.59375 -1.421875 25.265625 0.953125 
Q 20.953125 3.328125 18.109375 8.203125 
L 18.109375 0 
L 9.078125 0 
L 9.078125 75.984375 
L 18.109375 75.984375 
z
" id="DejaVuSans-98"/>
     </defs>
     <use xlink:href="#DejaVuSans-98"/>
     <use x="63.476562" xlink:href="#DejaVuSans-98"/>
     <use x="126.953125" xlink:href="#DejaVuSans-111"/>
     <use x="188.134766" xlink:href="#DejaVuSans-98"/>
     <use x="251.611328" xlink:href="#DejaVuSans-45"/>
     <use x="287.695312" xlink:href="#DejaVuSans-99"/>
     <use x="342.675781" xlink:href="#DejaVuSans-111"/>
     <use x="403.857422" xlink:href="#DejaVuSans-110"/>
     <use x="467.236328" xlink:href="#DejaVuSans-115"/>
     <use x="519.335938" xlink:href="#DejaVuSans-116"/>
     <use x="558.544922" xlink:href="#DejaVuSans-114"/>
     <use x="599.658203" xlink:href="#DejaVuSans-97"/>
     <use x="660.9375" xlink:href="#DejaVuSans-105"/>
     <use x="688.720703" xlink:href="#DejaVuSans-110"/>
     <use x="752.099609" xlink:href="#DejaVuSans-101"/>
     <use x="813.623047" xlink:href="#DejaVuSans-100"/>
    </g>
    <!-- Multi-modal functions with3ndiv4+9constraints, 5-D -->
    <g transform="translate(60.41088 25.583055)scale(0.102 -0.102)">
     <defs>
      <path d="M 9.8125 72.90625 
L 24.515625 72.90625 
L 43.109375 23.296875 
L 61.8125 72.90625 
L 76.515625 72.90625 
L 76.515625 0 
L 66.890625 0 
L 66.890625 64.015625 
L 48.09375 14.015625 
L 38.1875 14.015625 
L 19.390625 64.015625 
L 19.390625 0 
L 9.8125 0 
z
" id="DejaVuSans-77"/>
      <path d="M 4.203125 54.6875 
L 13.1875 54.6875 
L 24.421875 12.015625 
L 35.59375 54.6875 
L 46.1875 54.6875 
L 57.421875 12.015625 
L 68.609375 54.6875 
L 77.59375 54.6875 
L 63.28125 0 
L 52.6875 0 
L 40.921875 44.828125 
L 29.109375 0 
L 18.5 0 
z
" id="DejaVuSans-119"/>
      <path d="M 54.890625 33.015625 
L 54.890625 0 
L 45.90625 0 
L 45.90625 32.71875 
Q 45.90625 40.484375 42.875 44.328125 
Q 39.84375 48.1875 33.796875 48.1875 
Q 26.515625 48.1875 22.3125 43.546875 
Q 18.109375 38.921875 18.109375 30.90625 
L 18.109375 0 
L 9.078125 0 
L 9.078125 75.984375 
L 18.109375 75.984375 
L 18.109375 46.1875 
Q 21.34375 51.125 25.703125 53.5625 
Q 30.078125 56 35.796875 56 
Q 45.21875 56 50.046875 50.171875 
Q 54.890625 44.34375 54.890625 33.015625 
z
" id="DejaVuSans-104"/>
      <path d="M 40.578125 39.3125 
Q 47.65625 37.796875 51.625 33 
Q 55.609375 28.21875 55.609375 21.1875 
Q 55.609375 10.40625 48.1875 4.484375 
Q 40.765625 -1.421875 27.09375 -1.421875 
Q 22.515625 -1.421875 17.65625 -0.515625 
Q 12.796875 0.390625 7.625 2.203125 
L 7.625 11.71875 
Q 11.71875 9.328125 16.59375 8.109375 
Q 21.484375 6.890625 26.8125 6.890625 
Q 36.078125 6.890625 40.9375 10.546875 
Q 45.796875 14.203125 45.796875 21.1875 
Q 45.796875 27.640625 41.28125 31.265625 
Q 36.765625 34.90625 28.71875 34.90625 
L 20.21875 34.90625 
L 20.21875 43.015625 
L 29.109375 43.015625 
Q 36.375 43.015625 40.234375 45.921875 
Q 44.09375 48.828125 44.09375 54.296875 
Q 44.09375 59.90625 40.109375 62.90625 
Q 36.140625 65.921875 28.71875 65.921875 
Q 24.65625 65.921875 20.015625 65.03125 
Q 15.375 64.15625 9.8125 62.3125 
L 9.8125 71.09375 
Q 15.4375 72.65625 20.34375 73.4375 
Q 25.25 74.21875 29.59375 74.21875 
Q 40.828125 74.21875 47.359375 69.109375 
Q 53.90625 64.015625 53.90625 55.328125 
Q 53.90625 49.265625 50.4375 45.09375 
Q 46.96875 40.921875 40.578125 39.3125 
z
" id="DejaVuSans-51"/>
      <path d="M 10.984375 1.515625 
L 10.984375 10.5 
Q 14.703125 8.734375 18.5 7.8125 
Q 22.3125 6.890625 25.984375 6.890625 
Q 35.75 6.890625 40.890625 13.453125 
Q 46.046875 20.015625 46.78125 33.40625 
Q 43.953125 29.203125 39.59375 26.953125 
Q 35.25 24.703125 29.984375 24.703125 
Q 19.046875 24.703125 12.671875 31.3125 
Q 6.296875 37.9375 6.296875 49.421875 
Q 6.296875 60.640625 12.9375 67.421875 
Q 19.578125 74.21875 30.609375 74.21875 
Q 43.265625 74.21875 49.921875 64.515625 
Q 56.59375 54.828125 56.59375 36.375 
Q 56.59375 19.140625 48.40625 8.859375 
Q 40.234375 -1.421875 26.421875 -1.421875 
Q 22.703125 -1.421875 18.890625 -0.6875 
Q 15.09375 0.046875 10.984375 1.515625 
z
M 30.609375 32.421875 
Q 37.25 32.421875 41.125 36.953125 
Q 45.015625 41.5 45.015625 49.421875 
Q 45.015625 57.28125 41.125 61.84375 
Q 37.25 66.40625 30.609375 66.40625 
Q 23.96875 66.40625 20.09375 61.84375 
Q 16.21875 57.28125 16.21875 49.421875 
Q 16.21875 41.5 20.09375 36.953125 
Q 23.96875 32.421875 30.609375 32.421875 
z
" id="DejaVuSans-57"/>
      <path d="M 19.671875 64.796875 
L 19.671875 8.109375 
L 31.59375 8.109375 
Q 46.6875 8.109375 53.6875 14.9375 
Q 60.6875 21.78125 60.6875 36.53125 
Q 60.6875 51.171875 53.6875 57.984375 
Q 46.6875 64.796875 31.59375 64.796875 
z
M 9.8125 72.90625 
L 30.078125 72.90625 
Q 51.265625 72.90625 61.171875 64.09375 
Q 71.09375 55.28125 71.09375 36.53125 
Q 71.09375 17.671875 61.125 8.828125 
Q 51.171875 0 30.078125 0 
L 9.8125 0 
z
" id="DejaVuSans-68"/>
     </defs>
     <use xlink:href="#DejaVuSans-77"/>
     <use x="86.279297" xlink:href="#DejaVuSans-117"/>
     <use x="149.658203" xlink:href="#DejaVuSans-108"/>
     <use x="177.441406" xlink:href="#DejaVuSans-116"/>
     <use x="216.650391" xlink:href="#DejaVuSans-105"/>
     <use x="244.433594" xlink:href="#DejaVuSans-45"/>
     <use x="280.517578" xlink:href="#DejaVuSans-109"/>
     <use x="377.929688" xlink:href="#DejaVuSans-111"/>
     <use x="439.111328" xlink:href="#DejaVuSans-100"/>
     <use x="502.587891" xlink:href="#DejaVuSans-97"/>
     <use x="563.867188" xlink:href="#DejaVuSans-108"/>
     <use x="591.650391" xlink:href="#DejaVuSans-32"/>
     <use x="623.4375" xlink:href="#DejaVuSans-102"/>
     <use x="658.642578" xlink:href="#DejaVuSans-117"/>
     <use x="722.021484" xlink:href="#DejaVuSans-110"/>
     <use x="785.400391" xlink:href="#DejaVuSans-99"/>
     <use x="840.380859" xlink:href="#DejaVuSans-116"/>
     <use x="879.589844" xlink:href="#DejaVuSans-105"/>
     <use x="907.373047" xlink:href="#DejaVuSans-111"/>
     <use x="968.554688" xlink:href="#DejaVuSans-110"/>
     <use x="1031.933594" xlink:href="#DejaVuSans-115"/>
     <use x="1084.033203" xlink:href="#DejaVuSans-32"/>
     <use x="1115.820312" xlink:href="#DejaVuSans-119"/>
     <use x="1197.607422" xlink:href="#DejaVuSans-105"/>
     <use x="1225.390625" xlink:href="#DejaVuSans-116"/>
     <use x="1264.599609" xlink:href="#DejaVuSans-104"/>
     <use x="1327.978516" xlink:href="#DejaVuSans-51"/>
     <use x="1391.601562" xlink:href="#DejaVuSans-110"/>
     <use x="1454.980469" xlink:href="#DejaVuSans-100"/>
     <use x="1518.457031" xlink:href="#DejaVuSans-105"/>
     <use x="1546.240234" xlink:href="#DejaVuSans-118"/>
     <use x="1605.419922" xlink:href="#DejaVuSans-52"/>
     <use x="1669.042969" xlink:href="#DejaVuSans-43"/>
     <use x="1752.832031" xlink:href="#DejaVuSans-57"/>
     <use x="1816.455078" xlink:href="#DejaVuSans-99"/>
     <use x="1871.435547" xlink:href="#DejaVuSans-111"/>
     <use x="1932.617188" xlink:href="#DejaVuSans-110"/>
     <use x="1995.996094" xlink:href="#DejaVuSans-115"/>
     <use x="2048.095703" xlink:href="#DejaVuSans-116"/>
     <use x="2087.304688" xlink:href="#DejaVuSans-114"/>
     <use x="2128.417969" xlink:href="#DejaVuSans-97"/>
     <use x="2189.697266" xlink:href="#DejaVuSans-105"/>
     <use x="2217.480469" xlink:href="#DejaVuSans-110"/>
     <use x="2280.859375" xlink:href="#DejaVuSans-116"/>
     <use x="2320.068359" xlink:href="#DejaVuSans-115"/>
     <use x="2372.167969" xlink:href="#DejaVuSans-44"/>
     <use x="2403.955078" xlink:href="#DejaVuSans-32"/>
     <use x="2435.742188" xlink:href="#DejaVuSans-53"/>
     <use x="2499.365234" xlink:href="#DejaVuSans-45"/>
     <use x="2535.449219" xlink:href="#DejaVuSans-68"/>
    </g>
    <!-- 41 targets: 100..1e-06 -->
    <g transform="translate(60.41088 37.004824)scale(0.102 -0.102)">
     <defs>
      <path d="M 11.71875 12.40625 
L 22.015625 12.40625 
L 22.015625 0 
L 11.71875 0 
z
M 11.71875 51.703125 
L 22.015625 51.703125 
L 22.015625 39.3125 
L 11.71875 39.3125 
z
" id="DejaVuSans-58"/>
     </defs>
     <use xlink:href="#DejaVuSans-52"/>
     <use x="63.623047" xlink:href="#DejaVuSans-49"/>
     <use x="127.246094" xlink:href="#DejaVuSans-32"/>
     <use x="159.033203" xlink:href="#DejaVuSans-116"/>
     <use x="198.242188" xlink:href="#DejaVuSans-97"/>
     <use x="259.521484" xlink:href="#DejaVuSans-114"/>
     <use x="298.884766" xlink:href="#DejaVuSans-103"/>
     <use x="362.361328" xlink:href="#DejaVuSans-101"/>
     <use x="423.884766" xlink:href="#DejaVuSans-116"/>
     <use x="463.09375" xlink:href="#DejaVuSans-115"/>
     <use x="515.193359" xlink:href="#DejaVuSans-58"/>
     <use x="548.884766" xlink:href="#DejaVuSans-32"/>
     <use x="580.671875" xlink:href="#DejaVuSans-49"/>
     <use x="644.294922" xlink:href="#DejaVuSans-48"/>
     <use x="707.917969" xlink:href="#DejaVuSans-48"/>
     <use x="771.541016" xlink:href="#DejaVuSans-46"/>
     <use x="803.328125" xlink:href="#DejaVuSans-46"/>
     <use x="835.115234" xlink:href="#DejaVuSans-49"/>
     <use x="898.738281" xlink:href="#DejaVuSans-101"/>
     <use x="960.261719" xlink:href="#DejaVuSans-45"/>
     <use x="996.345703" xlink:href="#DejaVuSans-48"/>
     <use x="1059.96875" xlink:href="#DejaVuSans-54"/>
    </g>
    <!-- 15 instances -->
    <g transform="translate(60.41088 48.426593)scale(0.102 -0.102)">
     <use xlink:href="#DejaVuSans-49"/>
     <use x="63.623047" xlink:href="#DejaVuSans-53"/>
     <use x="127.246094" xlink:href="#DejaVuSans-32"/>
     <use x="159.033203" xlink:href="#DejaVuSans-105"/>
     <use x="186.816406" xlink:href="#DejaVuSans-110"/>
     <use x="250.195312" xlink:href="#DejaVuSans-115"/>
     <use x="302.294922" xlink:href="#DejaVuSans-116"/>
     <use x="341.503906" xlink:href="#DejaVuSans-97"/>
     <use x="402.783203" xlink:href="#DejaVuSans-110"/>
     <use x="466.162109" xlink:href="#DejaVuSans-99"/>
     <use x="521.142578" xlink:href="#DejaVuSans-101"/>
     <use x="582.666016" xlink:href="#DejaVuSans-115"/>
    </g>
   </g>
   <g id="text_16">
    <!-- v2.4.82 -->
    <g style="fill:#808080;" transform="translate(179.2815 293.909432)scale(0.1 -0.1)">
     <use xlink:href="#DejaVuSans-118"/>
     <use x="59.179688" xlink:href="#DejaVuSans-50"/>
     <use x="122.802734" xlink:href="#DejaVuSans-46"/>
     <use x="154.589844" xlink:href="#DejaVuSans-52"/>
     <use x="218.212891" xlink:href="#DejaVuSans-46"/>
     <use x="250" xlink:href="#DejaVuSans-56"/>
     <use x="313.623047" xlink:href="#DejaVuSans-50"/>
    </g>
   </g>
  </g>
 </g>
 <defs>
  <clipPath id="pa148d71f6a">
   <rect height="295.488" width="281.088" x="57.6" y="3.456"/>
  </clipPath>
 </defs>
</svg>
