<?xml version="1.0" encoding="utf-8" standalone="no"?>
<!DOCTYPE svg PUBLIC "-//W3C//DTD SVG 1.1//EN"
  "http://www.w3.org/Graphics/SVG/1.1/DTD/svg11.dtd">
<!-- Created with matplotlib (https://matplotlib.org/) -->
<svg height="345.6pt" version="1.1" viewBox="0 0 460.8 345.6" width="460.8pt" xmlns="http://www.w3.org/2000/svg" xmlns:xlink="http://www.w3.org/1999/xlink">
 <metadata>
  <rdf:RDF xmlns:cc="http://creativecommons.org/ns#" xmlns:dc="http://purl.org/dc/elements/1.1/" xmlns:rdf="http://www.w3.org/1999/02/22-rdf-syntax-ns#">
   <cc:Work>
    <dc:type rdf:resource="http://purl.org/dc/dcmitype/StillImage"/>
    <dc:date>2022-01-14T09:47:37.555659</dc:date>
    <dc:format>image/svg+xml</dc:format>
    <dc:creator>
     <cc:Agent>
      <dc:title>Matplotlib v3.3.3, https://matplotlib.org/</dc:title>
     </cc:Agent>
    </dc:creator>
   </cc:Work>
  </rdf:RDF>
 </metadata>
 <defs>
  <style type="text/css">*{stroke-linecap:butt;stroke-linejoin:round;}</style>
 </defs>
 <g id="figure_1">
  <g id="patch_1">
   <path d="M 0 345.6 
L 460.8 345.6 
L 460.8 0 
L 0 0 
z
" style="fill:#ffffff;"/>
  </g>
  <g id="axes_1">
   <g id="patch_2">
    <path d="M 57.6 298.944 
L 338.688 298.944 
L 338.688 27.648 
L 57.6 27.648 
z
" style="fill:#ffffff;"/>
   </g>
   <g id="matplotlib.axis_1">
    <g id="xtick_1">
     <g id="line2d_1">
      <path clip-path="url(#p4787f0fbaa)" d="M 57.6 298.944 
L 57.6 27.648 
" style="fill:none;stroke:#b0b0b0;stroke-linecap:square;stroke-width:0.8;"/>
     </g>
     <g id="line2d_2">
      <defs>
       <path d="M 0 0 
L 0 3.5 
" id="m0edf521c1b" style="stroke:#000000;stroke-width:0.8;"/>
      </defs>
      <g>
       <use style="stroke:#000000;stroke-width:0.8;" x="57.6" xlink:href="#m0edf521c1b" y="298.944"/>
      </g>
     </g>
     <g id="text_1">
      <!-- 0 -->
      <g transform="translate(51.2375 321.140875)scale(0.2 -0.2)">
       <defs>
        <path d="M 31.78125 66.40625 
Q 24.171875 66.40625 20.328125 58.90625 
Q 16.5 51.421875 16.5 36.375 
Q 16.5 21.390625 20.328125 13.890625 
Q 24.171875 6.390625 31.78125 6.390625 
Q 39.453125 6.390625 43.28125 13.890625 
Q 47.125 21.390625 47.125 36.375 
Q 47.125 51.421875 43.28125 58.90625 
Q 39.453125 66.40625 31.78125 66.40625 
z
M 31.78125 74.21875 
Q 44.046875 74.21875 50.515625 64.515625 
Q 56.984375 54.828125 56.984375 36.375 
Q 56.984375 17.96875 50.515625 8.265625 
Q 44.046875 -1.421875 31.78125 -1.421875 
Q 19.53125 -1.421875 13.0625 8.265625 
Q 6.59375 17.96875 6.59375 36.375 
Q 6.59375 54.828125 13.0625 64.515625 
Q 19.53125 74.21875 31.78125 74.21875 
z
" id="DejaVuSans-48"/>
       </defs>
       <use xlink:href="#DejaVuSans-48"/>
      </g>
     </g>
    </g>
    <g id="xtick_2">
     <g id="line2d_3">
      <path clip-path="url(#p4787f0fbaa)" d="M 137.910857 298.944 
L 137.910857 27.648 
" style="fill:none;stroke:#b0b0b0;stroke-linecap:square;stroke-width:0.8;"/>
     </g>
     <g id="line2d_4">
      <g>
       <use style="stroke:#000000;stroke-width:0.8;" x="137.910857" xlink:href="#m0edf521c1b" y="298.944"/>
      </g>
     </g>
     <g id="text_2">
      <!-- 2 -->
      <g transform="translate(131.548357 321.140875)scale(0.2 -0.2)">
       <defs>
        <path d="M 19.1875 8.296875 
L 53.609375 8.296875 
L 53.609375 0 
L 7.328125 0 
L 7.328125 8.296875 
Q 12.9375 14.109375 22.625 23.890625 
Q 32.328125 33.6875 34.8125 36.53125 
Q 39.546875 41.84375 41.421875 45.53125 
Q 43.3125 49.21875 43.3125 52.78125 
Q 43.3125 58.59375 39.234375 62.25 
Q 35.15625 65.921875 28.609375 65.921875 
Q 23.96875 65.921875 18.8125 64.3125 
Q 13.671875 62.703125 7.8125 59.421875 
L 7.8125 69.390625 
Q 13.765625 71.78125 18.9375 73 
Q 24.125 74.21875 28.421875 74.21875 
Q 39.75 74.21875 46.484375 68.546875 
Q 53.21875 62.890625 53.21875 53.421875 
Q 53.21875 48.921875 51.53125 44.890625 
Q 49.859375 40.875 45.40625 35.40625 
Q 44.1875 33.984375 37.640625 27.21875 
Q 31.109375 20.453125 19.1875 8.296875 
z
" id="DejaVuSans-50"/>
       </defs>
       <use xlink:href="#DejaVuSans-50"/>
      </g>
     </g>
    </g>
    <g id="xtick_3">
     <g id="line2d_5">
      <path clip-path="url(#p4787f0fbaa)" d="M 218.221714 298.944 
L 218.221714 27.648 
" style="fill:none;stroke:#b0b0b0;stroke-linecap:square;stroke-width:0.8;"/>
     </g>
     <g id="line2d_6">
      <g>
       <use style="stroke:#000000;stroke-width:0.8;" x="218.221714" xlink:href="#m0edf521c1b" y="298.944"/>
      </g>
     </g>
     <g id="text_3">
      <!-- 4 -->
      <g transform="translate(211.859214 321.140875)scale(0.2 -0.2)">
       <defs>
        <path d="M 37.796875 64.3125 
L 12.890625 25.390625 
L 37.796875 25.390625 
z
M 35.203125 72.90625 
L 47.609375 72.90625 
L 47.609375 25.390625 
L 58.015625 25.390625 
L 58.015625 17.1875 
L 47.609375 17.1875 
L 47.609375 0 
L 37.796875 0 
L 37.796875 17.1875 
L 4.890625 17.1875 
L 4.890625 26.703125 
z
" id="DejaVuSans-52"/>
       </defs>
       <use xlink:href="#DejaVuSans-52"/>
      </g>
     </g>
    </g>
    <g id="xtick_4">
     <g id="line2d_7">
      <path clip-path="url(#p4787f0fbaa)" d="M 298.532571 298.944 
L 298.532571 27.648 
" style="fill:none;stroke:#b0b0b0;stroke-linecap:square;stroke-width:0.8;"/>
     </g>
     <g id="line2d_8">
      <g>
       <use style="stroke:#000000;stroke-width:0.8;" x="298.532571" xlink:href="#m0edf521c1b" y="298.944"/>
      </g>
     </g>
     <g id="text_4">
      <!-- 6 -->
      <g transform="translate(292.170071 321.140875)scale(0.2 -0.2)">
       <defs>
        <path d="M 33.015625 40.375 
Q 26.375 40.375 22.484375 35.828125 
Q 18.609375 31.296875 18.609375 23.390625 
Q 18.609375 15.53125 22.484375 10.953125 
Q 26.375 6.390625 33.015625 6.390625 
Q 39.65625 6.390625 43.53125 10.953125 
Q 47.40625 15.53125 47.40625 23.390625 
Q 47.40625 31.296875 43.53125 35.828125 
Q 39.65625 40.375 33.015625 40.375 
z
M 52.59375 71.296875 
L 52.59375 62.3125 
Q 48.875 64.0625 45.09375 64.984375 
Q 41.3125 65.921875 37.59375 65.921875 
Q 27.828125 65.921875 22.671875 59.328125 
Q 17.53125 52.734375 16.796875 39.40625 
Q 19.671875 43.65625 24.015625 45.921875 
Q 28.375 48.1875 33.59375 48.1875 
Q 44.578125 48.1875 50.953125 41.515625 
Q 57.328125 34.859375 57.328125 23.390625 
Q 57.328125 12.15625 50.6875 5.359375 
Q 44.046875 -1.421875 33.015625 -1.421875 
Q 20.359375 -1.421875 13.671875 8.265625 
Q 6.984375 17.96875 6.984375 36.375 
Q 6.984375 53.65625 15.1875 63.9375 
Q 23.390625 74.21875 37.203125 74.21875 
Q 40.921875 74.21875 44.703125 73.484375 
Q 48.484375 72.75 52.59375 71.296875 
z
" id="DejaVuSans-54"/>
       </defs>
       <use xlink:href="#DejaVuSans-54"/>
      </g>
     </g>
    </g>
    <g id="xtick_5">
     <g id="line2d_9">
      <path clip-path="url(#p4787f0fbaa)" d="M 97.755429 298.944 
L 97.755429 27.648 
" style="fill:none;stroke:#b0b0b0;stroke-linecap:square;stroke-width:0.8;"/>
     </g>
     <g id="line2d_10">
      <defs>
       <path d="M 0 0 
L 0 2 
" id="mdd37056db5" style="stroke:#000000;stroke-width:0.6;"/>
      </defs>
      <g>
       <use style="stroke:#000000;stroke-width:0.6;" x="97.755429" xlink:href="#mdd37056db5" y="298.944"/>
      </g>
     </g>
    </g>
    <g id="xtick_6">
     <g id="line2d_11">
      <path clip-path="url(#p4787f0fbaa)" d="M 178.066286 298.944 
L 178.066286 27.648 
" style="fill:none;stroke:#b0b0b0;stroke-linecap:square;stroke-width:0.8;"/>
     </g>
     <g id="line2d_12">
      <g>
       <use style="stroke:#000000;stroke-width:0.6;" x="178.066286" xlink:href="#mdd37056db5" y="298.944"/>
      </g>
     </g>
    </g>
    <g id="xtick_7">
     <g id="line2d_13">
      <path clip-path="url(#p4787f0fbaa)" d="M 258.377143 298.944 
L 258.377143 27.648 
" style="fill:none;stroke:#b0b0b0;stroke-linecap:square;stroke-width:0.8;"/>
     </g>
     <g id="line2d_14">
      <g>
       <use style="stroke:#000000;stroke-width:0.6;" x="258.377143" xlink:href="#mdd37056db5" y="298.944"/>
      </g>
     </g>
    </g>
    <g id="xtick_8">
     <g id="line2d_15">
      <path clip-path="url(#p4787f0fbaa)" d="M 338.688 298.944 
L 338.688 27.648 
" style="fill:none;stroke:#b0b0b0;stroke-linecap:square;stroke-width:0.8;"/>
     </g>
     <g id="line2d_16">
      <g>
       <use style="stroke:#000000;stroke-width:0.6;" x="338.688" xlink:href="#mdd37056db5" y="298.944"/>
      </g>
     </g>
    </g>
    <g id="text_5">
     <!-- log10(# (f+g)-evals / dimension) -->
     <g transform="translate(58.145016 342.217594)scale(0.17 -0.17)">
      <defs>
       <path d="M 9.421875 75.984375 
L 18.40625 75.984375 
L 18.40625 0 
L 9.421875 0 
z
" id="DejaVuSans-108"/>
       <path d="M 30.609375 48.390625 
Q 23.390625 48.390625 19.1875 42.75 
Q 14.984375 37.109375 14.984375 27.296875 
Q 14.984375 17.484375 19.15625 11.84375 
Q 23.34375 6.203125 30.609375 6.203125 
Q 37.796875 6.203125 41.984375 11.859375 
Q 46.1875 17.53125 46.1875 27.296875 
Q 46.1875 37.015625 41.984375 42.703125 
Q 37.796875 48.390625 30.609375 48.390625 
z
M 30.609375 56 
Q 42.328125 56 49.015625 48.375 
Q 55.71875 40.765625 55.71875 27.296875 
Q 55.71875 13.875 49.015625 6.21875 
Q 42.328125 -1.421875 30.609375 -1.421875 
Q 18.84375 -1.421875 12.171875 6.21875 
Q 5.515625 13.875 5.515625 27.296875 
Q 5.515625 40.765625 12.171875 48.375 
Q 18.84375 56 30.609375 56 
z
" id="DejaVuSans-111"/>
       <path d="M 45.40625 27.984375 
Q 45.40625 37.75 41.375 43.109375 
Q 37.359375 48.484375 30.078125 48.484375 
Q 22.859375 48.484375 18.828125 43.109375 
Q 14.796875 37.75 14.796875 27.984375 
Q 14.796875 18.265625 18.828125 12.890625 
Q 22.859375 7.515625 30.078125 7.515625 
Q 37.359375 7.515625 41.375 12.890625 
Q 45.40625 18.265625 45.40625 27.984375 
z
M 54.390625 6.78125 
Q 54.390625 -7.171875 48.1875 -13.984375 
Q 42 -20.796875 29.203125 -20.796875 
Q 24.46875 -20.796875 20.265625 -20.09375 
Q 16.0625 -19.390625 12.109375 -17.921875 
L 12.109375 -9.1875 
Q 16.0625 -11.328125 19.921875 -12.34375 
Q 23.78125 -13.375 27.78125 -13.375 
Q 36.625 -13.375 41.015625 -8.765625 
Q 45.40625 -4.15625 45.40625 5.171875 
L 45.40625 9.625 
Q 42.625 4.78125 38.28125 2.390625 
Q 33.9375 0 27.875 0 
Q 17.828125 0 11.671875 7.65625 
Q 5.515625 15.328125 5.515625 27.984375 
Q 5.515625 40.671875 11.671875 48.328125 
Q 17.828125 56 27.875 56 
Q 33.9375 56 38.28125 53.609375 
Q 42.625 51.21875 45.40625 46.390625 
L 45.40625 54.6875 
L 54.390625 54.6875 
z
" id="DejaVuSans-103"/>
       <path d="M 12.40625 8.296875 
L 28.515625 8.296875 
L 28.515625 63.921875 
L 10.984375 60.40625 
L 10.984375 69.390625 
L 28.421875 72.90625 
L 38.28125 72.90625 
L 38.28125 8.296875 
L 54.390625 8.296875 
L 54.390625 0 
L 12.40625 0 
z
" id="DejaVuSans-49"/>
       <path d="M 31 75.875 
Q 24.46875 64.65625 21.28125 53.65625 
Q 18.109375 42.671875 18.109375 31.390625 
Q 18.109375 20.125 21.3125 9.0625 
Q 24.515625 -2 31 -13.1875 
L 23.1875 -13.1875 
Q 15.875 -1.703125 12.234375 9.375 
Q 8.59375 20.453125 8.59375 31.390625 
Q 8.59375 42.28125 12.203125 53.3125 
Q 15.828125 64.359375 23.1875 75.875 
z
" id="DejaVuSans-40"/>
       <path d="M 51.125 44 
L 36.921875 44 
L 32.8125 27.6875 
L 47.125 27.6875 
z
M 43.796875 71.78125 
L 38.71875 51.515625 
L 52.984375 51.515625 
L 58.109375 71.78125 
L 65.921875 71.78125 
L 60.890625 51.515625 
L 76.125 51.515625 
L 76.125 44 
L 58.984375 44 
L 54.984375 27.6875 
L 70.515625 27.6875 
L 70.515625 20.21875 
L 53.078125 20.21875 
L 48 0 
L 40.1875 0 
L 45.21875 20.21875 
L 30.90625 20.21875 
L 25.875 0 
L 18.015625 0 
L 23.09375 20.21875 
L 7.71875 20.21875 
L 7.71875 27.6875 
L 24.90625 27.6875 
L 29 44 
L 13.28125 44 
L 13.28125 51.515625 
L 30.90625 51.515625 
L 35.890625 71.78125 
z
" id="DejaVuSans-35"/>
       <path id="DejaVuSans-32"/>
       <path d="M 37.109375 75.984375 
L 37.109375 68.5 
L 28.515625 68.5 
Q 23.6875 68.5 21.796875 66.546875 
Q 19.921875 64.59375 19.921875 59.515625 
L 19.921875 54.6875 
L 34.71875 54.6875 
L 34.71875 47.703125 
L 19.921875 47.703125 
L 19.921875 0 
L 10.890625 0 
L 10.890625 47.703125 
L 2.296875 47.703125 
L 2.296875 54.6875 
L 10.890625 54.6875 
L 10.890625 58.5 
Q 10.890625 67.625 15.140625 71.796875 
Q 19.390625 75.984375 28.609375 75.984375 
z
" id="DejaVuSans-102"/>
       <path d="M 46 62.703125 
L 46 35.5 
L 73.1875 35.5 
L 73.1875 27.203125 
L 46 27.203125 
L 46 0 
L 37.796875 0 
L 37.796875 27.203125 
L 10.59375 27.203125 
L 10.59375 35.5 
L 37.796875 35.5 
L 37.796875 62.703125 
z
" id="DejaVuSans-43"/>
       <path d="M 8.015625 75.875 
L 15.828125 75.875 
Q 23.140625 64.359375 26.78125 53.3125 
Q 30.421875 42.28125 30.421875 31.390625 
Q 30.421875 20.453125 26.78125 9.375 
Q 23.140625 -1.703125 15.828125 -13.1875 
L 8.015625 -13.1875 
Q 14.5 -2 17.703125 9.0625 
Q 20.90625 20.125 20.90625 31.390625 
Q 20.90625 42.671875 17.703125 53.65625 
Q 14.5 64.65625 8.015625 75.875 
z
" id="DejaVuSans-41"/>
       <path d="M 4.890625 31.390625 
L 31.203125 31.390625 
L 31.203125 23.390625 
L 4.890625 23.390625 
z
" id="DejaVuSans-45"/>
       <path d="M 56.203125 29.59375 
L 56.203125 25.203125 
L 14.890625 25.203125 
Q 15.484375 15.921875 20.484375 11.0625 
Q 25.484375 6.203125 34.421875 6.203125 
Q 39.59375 6.203125 44.453125 7.46875 
Q 49.3125 8.734375 54.109375 11.28125 
L 54.109375 2.78125 
Q 49.265625 0.734375 44.1875 -0.34375 
Q 39.109375 -1.421875 33.890625 -1.421875 
Q 20.796875 -1.421875 13.15625 6.1875 
Q 5.515625 13.8125 5.515625 26.8125 
Q 5.515625 40.234375 12.765625 48.109375 
Q 20.015625 56 32.328125 56 
Q 43.359375 56 49.78125 48.890625 
Q 56.203125 41.796875 56.203125 29.59375 
z
M 47.21875 32.234375 
Q 47.125 39.59375 43.09375 43.984375 
Q 39.0625 48.390625 32.421875 48.390625 
Q 24.90625 48.390625 20.390625 44.140625 
Q 15.875 39.890625 15.1875 32.171875 
z
" id="DejaVuSans-101"/>
       <path d="M 2.984375 54.6875 
L 12.5 54.6875 
L 29.59375 8.796875 
L 46.6875 54.6875 
L 56.203125 54.6875 
L 35.6875 0 
L 23.484375 0 
z
" id="DejaVuSans-118"/>
       <path d="M 34.28125 27.484375 
Q 23.390625 27.484375 19.1875 25 
Q 14.984375 22.515625 14.984375 16.5 
Q 14.984375 11.71875 18.140625 8.90625 
Q 21.296875 6.109375 26.703125 6.109375 
Q 34.1875 6.109375 38.703125 11.40625 
Q 43.21875 16.703125 43.21875 25.484375 
L 43.21875 27.484375 
z
M 52.203125 31.203125 
L 52.203125 0 
L 43.21875 0 
L 43.21875 8.296875 
Q 40.140625 3.328125 35.546875 0.953125 
Q 30.953125 -1.421875 24.3125 -1.421875 
Q 15.921875 -1.421875 10.953125 3.296875 
Q 6 8.015625 6 15.921875 
Q 6 25.140625 12.171875 29.828125 
Q 18.359375 34.515625 30.609375 34.515625 
L 43.21875 34.515625 
L 43.21875 35.40625 
Q 43.21875 41.609375 39.140625 45 
Q 35.0625 48.390625 27.6875 48.390625 
Q 23 48.390625 18.546875 47.265625 
Q 14.109375 46.140625 10.015625 43.890625 
L 10.015625 52.203125 
Q 14.9375 54.109375 19.578125 55.046875 
Q 24.21875 56 28.609375 56 
Q 40.484375 56 46.34375 49.84375 
Q 52.203125 43.703125 52.203125 31.203125 
z
" id="DejaVuSans-97"/>
       <path d="M 44.28125 53.078125 
L 44.28125 44.578125 
Q 40.484375 46.53125 36.375 47.5 
Q 32.28125 48.484375 27.875 48.484375 
Q 21.1875 48.484375 17.84375 46.4375 
Q 14.5 44.390625 14.5 40.28125 
Q 14.5 37.15625 16.890625 35.375 
Q 19.28125 33.59375 26.515625 31.984375 
L 29.59375 31.296875 
Q 39.15625 29.25 43.1875 25.515625 
Q 47.21875 21.78125 47.21875 15.09375 
Q 47.21875 7.46875 41.1875 3.015625 
Q 35.15625 -1.421875 24.609375 -1.421875 
Q 20.21875 -1.421875 15.453125 -0.5625 
Q 10.6875 0.296875 5.421875 2 
L 5.421875 11.28125 
Q 10.40625 8.6875 15.234375 7.390625 
Q 20.0625 6.109375 24.8125 6.109375 
Q 31.15625 6.109375 34.5625 8.28125 
Q 37.984375 10.453125 37.984375 14.40625 
Q 37.984375 18.0625 35.515625 20.015625 
Q 33.0625 21.96875 24.703125 23.78125 
L 21.578125 24.515625 
Q 13.234375 26.265625 9.515625 29.90625 
Q 5.8125 33.546875 5.8125 39.890625 
Q 5.8125 47.609375 11.28125 51.796875 
Q 16.75 56 26.8125 56 
Q 31.78125 56 36.171875 55.265625 
Q 40.578125 54.546875 44.28125 53.078125 
z
" id="DejaVuSans-115"/>
       <path d="M 25.390625 72.90625 
L 33.6875 72.90625 
L 8.296875 -9.28125 
L 0 -9.28125 
z
" id="DejaVuSans-47"/>
       <path d="M 45.40625 46.390625 
L 45.40625 75.984375 
L 54.390625 75.984375 
L 54.390625 0 
L 45.40625 0 
L 45.40625 8.203125 
Q 42.578125 3.328125 38.25 0.953125 
Q 33.9375 -1.421875 27.875 -1.421875 
Q 17.96875 -1.421875 11.734375 6.484375 
Q 5.515625 14.40625 5.515625 27.296875 
Q 5.515625 40.1875 11.734375 48.09375 
Q 17.96875 56 27.875 56 
Q 33.9375 56 38.25 53.625 
Q 42.578125 51.265625 45.40625 46.390625 
z
M 14.796875 27.296875 
Q 14.796875 17.390625 18.875 11.75 
Q 22.953125 6.109375 30.078125 6.109375 
Q 37.203125 6.109375 41.296875 11.75 
Q 45.40625 17.390625 45.40625 27.296875 
Q 45.40625 37.203125 41.296875 42.84375 
Q 37.203125 48.484375 30.078125 48.484375 
Q 22.953125 48.484375 18.875 42.84375 
Q 14.796875 37.203125 14.796875 27.296875 
z
" id="DejaVuSans-100"/>
       <path d="M 9.421875 54.6875 
L 18.40625 54.6875 
L 18.40625 0 
L 9.421875 0 
z
M 9.421875 75.984375 
L 18.40625 75.984375 
L 18.40625 64.59375 
L 9.421875 64.59375 
z
" id="DejaVuSans-105"/>
       <path d="M 52 44.1875 
Q 55.375 50.25 60.0625 53.125 
Q 64.75 56 71.09375 56 
Q 79.640625 56 84.28125 50.015625 
Q 88.921875 44.046875 88.921875 33.015625 
L 88.921875 0 
L 79.890625 0 
L 79.890625 32.71875 
Q 79.890625 40.578125 77.09375 44.375 
Q 74.3125 48.1875 68.609375 48.1875 
Q 61.625 48.1875 57.5625 43.546875 
Q 53.515625 38.921875 53.515625 30.90625 
L 53.515625 0 
L 44.484375 0 
L 44.484375 32.71875 
Q 44.484375 40.625 41.703125 44.40625 
Q 38.921875 48.1875 33.109375 48.1875 
Q 26.21875 48.1875 22.15625 43.53125 
Q 18.109375 38.875 18.109375 30.90625 
L 18.109375 0 
L 9.078125 0 
L 9.078125 54.6875 
L 18.109375 54.6875 
L 18.109375 46.1875 
Q 21.1875 51.21875 25.484375 53.609375 
Q 29.78125 56 35.6875 56 
Q 41.65625 56 45.828125 52.96875 
Q 50 49.953125 52 44.1875 
z
" id="DejaVuSans-109"/>
       <path d="M 54.890625 33.015625 
L 54.890625 0 
L 45.90625 0 
L 45.90625 32.71875 
Q 45.90625 40.484375 42.875 44.328125 
Q 39.84375 48.1875 33.796875 48.1875 
Q 26.515625 48.1875 22.3125 43.546875 
Q 18.109375 38.921875 18.109375 30.90625 
L 18.109375 0 
L 9.078125 0 
L 9.078125 54.6875 
L 18.109375 54.6875 
L 18.109375 46.1875 
Q 21.34375 51.125 25.703125 53.5625 
Q 30.078125 56 35.796875 56 
Q 45.21875 56 50.046875 50.171875 
Q 54.890625 44.34375 54.890625 33.015625 
z
" id="DejaVuSans-110"/>
      </defs>
      <use xlink:href="#DejaVuSans-108"/>
      <use x="27.783203" xlink:href="#DejaVuSans-111"/>
      <use x="88.964844" xlink:href="#DejaVuSans-103"/>
      <use x="152.441406" xlink:href="#DejaVuSans-49"/>
      <use x="216.064453" xlink:href="#DejaVuSans-48"/>
      <use x="279.6875" xlink:href="#DejaVuSans-40"/>
      <use x="318.701172" xlink:href="#DejaVuSans-35"/>
      <use x="402.490234" xlink:href="#DejaVuSans-32"/>
      <use x="434.277344" xlink:href="#DejaVuSans-40"/>
      <use x="473.291016" xlink:href="#DejaVuSans-102"/>
      <use x="508.496094" xlink:href="#DejaVuSans-43"/>
      <use x="592.285156" xlink:href="#DejaVuSans-103"/>
      <use x="655.761719" xlink:href="#DejaVuSans-41"/>
      <use x="694.775391" xlink:href="#DejaVuSans-45"/>
      <use x="730.859375" xlink:href="#DejaVuSans-101"/>
      <use x="792.382812" xlink:href="#DejaVuSans-118"/>
      <use x="851.5625" xlink:href="#DejaVuSans-97"/>
      <use x="912.841797" xlink:href="#DejaVuSans-108"/>
      <use x="940.625" xlink:href="#DejaVuSans-115"/>
      <use x="992.724609" xlink:href="#DejaVuSans-32"/>
      <use x="1024.511719" xlink:href="#DejaVuSans-47"/>
      <use x="1058.203125" xlink:href="#DejaVuSans-32"/>
      <use x="1089.990234" xlink:href="#DejaVuSans-100"/>
      <use x="1153.466797" xlink:href="#DejaVuSans-105"/>
      <use x="1181.25" xlink:href="#DejaVuSans-109"/>
      <use x="1278.662109" xlink:href="#DejaVuSans-101"/>
      <use x="1340.185547" xlink:href="#DejaVuSans-110"/>
      <use x="1403.564453" xlink:href="#DejaVuSans-115"/>
      <use x="1455.664062" xlink:href="#DejaVuSans-105"/>
      <use x="1483.447266" xlink:href="#DejaVuSans-111"/>
      <use x="1544.628906" xlink:href="#DejaVuSans-110"/>
      <use x="1608.007812" xlink:href="#DejaVuSans-41"/>
     </g>
    </g>
   </g>
   <g id="matplotlib.axis_2">
    <g id="ytick_1">
     <g id="line2d_17">
      <path clip-path="url(#p4787f0fbaa)" d="M 57.6 298.944 
L 338.688 298.944 
" style="fill:none;stroke:#b0b0b0;stroke-linecap:square;stroke-width:0.8;"/>
     </g>
     <g id="line2d_18">
      <defs>
       <path d="M 0 0 
L -3.5 0 
" id="m48b8933f59" style="stroke:#000000;stroke-width:0.8;"/>
      </defs>
      <g>
       <use style="stroke:#000000;stroke-width:0.8;" x="57.6" xlink:href="#m48b8933f59" y="298.944"/>
      </g>
     </g>
     <g id="text_6">
      <!-- 0.0 -->
      <g transform="translate(25.155 305.02275)scale(0.16 -0.16)">
       <defs>
        <path d="M 10.6875 12.40625 
L 21 12.40625 
L 21 0 
L 10.6875 0 
z
" id="DejaVuSans-46"/>
       </defs>
       <use xlink:href="#DejaVuSans-48"/>
       <use x="63.623047" xlink:href="#DejaVuSans-46"/>
       <use x="95.410156" xlink:href="#DejaVuSans-48"/>
      </g>
     </g>
    </g>
    <g id="ytick_2">
     <g id="line2d_19">
      <path clip-path="url(#p4787f0fbaa)" d="M 57.6 245.22202 
L 338.688 245.22202 
" style="fill:none;stroke:#b0b0b0;stroke-linecap:square;stroke-width:0.8;"/>
     </g>
     <g id="line2d_20">
      <g>
       <use style="stroke:#000000;stroke-width:0.8;" x="57.6" xlink:href="#m48b8933f59" y="245.22202"/>
      </g>
     </g>
     <g id="text_7">
      <!-- 0.2 -->
      <g transform="translate(25.155 251.30077)scale(0.16 -0.16)">
       <use xlink:href="#DejaVuSans-48"/>
       <use x="63.623047" xlink:href="#DejaVuSans-46"/>
       <use x="95.410156" xlink:href="#DejaVuSans-50"/>
      </g>
     </g>
    </g>
    <g id="ytick_3">
     <g id="line2d_21">
      <path clip-path="url(#p4787f0fbaa)" d="M 57.6 191.50004 
L 338.688 191.50004 
" style="fill:none;stroke:#b0b0b0;stroke-linecap:square;stroke-width:0.8;"/>
     </g>
     <g id="line2d_22">
      <g>
       <use style="stroke:#000000;stroke-width:0.8;" x="57.6" xlink:href="#m48b8933f59" y="191.50004"/>
      </g>
     </g>
     <g id="text_8">
      <!-- 0.4 -->
      <g transform="translate(25.155 197.57879)scale(0.16 -0.16)">
       <use xlink:href="#DejaVuSans-48"/>
       <use x="63.623047" xlink:href="#DejaVuSans-46"/>
       <use x="95.410156" xlink:href="#DejaVuSans-52"/>
      </g>
     </g>
    </g>
    <g id="ytick_4">
     <g id="line2d_23">
      <path clip-path="url(#p4787f0fbaa)" d="M 57.6 137.778059 
L 338.688 137.778059 
" style="fill:none;stroke:#b0b0b0;stroke-linecap:square;stroke-width:0.8;"/>
     </g>
     <g id="line2d_24">
      <g>
       <use style="stroke:#000000;stroke-width:0.8;" x="57.6" xlink:href="#m48b8933f59" y="137.778059"/>
      </g>
     </g>
     <g id="text_9">
      <!-- 0.6 -->
      <g transform="translate(25.155 143.856809)scale(0.16 -0.16)">
       <use xlink:href="#DejaVuSans-48"/>
       <use x="63.623047" xlink:href="#DejaVuSans-46"/>
       <use x="95.410156" xlink:href="#DejaVuSans-54"/>
      </g>
     </g>
    </g>
    <g id="ytick_5">
     <g id="line2d_25">
      <path clip-path="url(#p4787f0fbaa)" d="M 57.6 84.056079 
L 338.688 84.056079 
" style="fill:none;stroke:#b0b0b0;stroke-linecap:square;stroke-width:0.8;"/>
     </g>
     <g id="line2d_26">
      <g>
       <use style="stroke:#000000;stroke-width:0.8;" x="57.6" xlink:href="#m48b8933f59" y="84.056079"/>
      </g>
     </g>
     <g id="text_10">
      <!-- 0.8 -->
      <g transform="translate(25.155 90.134829)scale(0.16 -0.16)">
       <defs>
        <path d="M 31.78125 34.625 
Q 24.75 34.625 20.71875 30.859375 
Q 16.703125 27.09375 16.703125 20.515625 
Q 16.703125 13.921875 20.71875 10.15625 
Q 24.75 6.390625 31.78125 6.390625 
Q 38.8125 6.390625 42.859375 10.171875 
Q 46.921875 13.96875 46.921875 20.515625 
Q 46.921875 27.09375 42.890625 30.859375 
Q 38.875 34.625 31.78125 34.625 
z
M 21.921875 38.8125 
Q 15.578125 40.375 12.03125 44.71875 
Q 8.5 49.078125 8.5 55.328125 
Q 8.5 64.0625 14.71875 69.140625 
Q 20.953125 74.21875 31.78125 74.21875 
Q 42.671875 74.21875 48.875 69.140625 
Q 55.078125 64.0625 55.078125 55.328125 
Q 55.078125 49.078125 51.53125 44.71875 
Q 48 40.375 41.703125 38.8125 
Q 48.828125 37.15625 52.796875 32.3125 
Q 56.78125 27.484375 56.78125 20.515625 
Q 56.78125 9.90625 50.3125 4.234375 
Q 43.84375 -1.421875 31.78125 -1.421875 
Q 19.734375 -1.421875 13.25 4.234375 
Q 6.78125 9.90625 6.78125 20.515625 
Q 6.78125 27.484375 10.78125 32.3125 
Q 14.796875 37.15625 21.921875 38.8125 
z
M 18.3125 54.390625 
Q 18.3125 48.734375 21.84375 45.5625 
Q 25.390625 42.390625 31.78125 42.390625 
Q 38.140625 42.390625 41.71875 45.5625 
Q 45.3125 48.734375 45.3125 54.390625 
Q 45.3125 60.0625 41.71875 63.234375 
Q 38.140625 66.40625 31.78125 66.40625 
Q 25.390625 66.40625 21.84375 63.234375 
Q 18.3125 60.0625 18.3125 54.390625 
z
" id="DejaVuSans-56"/>
       </defs>
       <use xlink:href="#DejaVuSans-48"/>
       <use x="63.623047" xlink:href="#DejaVuSans-46"/>
       <use x="95.410156" xlink:href="#DejaVuSans-56"/>
      </g>
     </g>
    </g>
    <g id="ytick_6">
     <g id="line2d_27">
      <path clip-path="url(#p4787f0fbaa)" d="M 57.6 30.334099 
L 338.688 30.334099 
" style="fill:none;stroke:#b0b0b0;stroke-linecap:square;stroke-width:0.8;"/>
     </g>
     <g id="line2d_28">
      <g>
       <use style="stroke:#000000;stroke-width:0.8;" x="57.6" xlink:href="#m48b8933f59" y="30.334099"/>
      </g>
     </g>
     <g id="text_11">
      <!-- 1.0 -->
      <g transform="translate(25.155 36.412849)scale(0.16 -0.16)">
       <use xlink:href="#DejaVuSans-49"/>
       <use x="63.623047" xlink:href="#DejaVuSans-46"/>
       <use x="95.410156" xlink:href="#DejaVuSans-48"/>
      </g>
     </g>
    </g>
    <g id="text_12">
     <!-- Fraction of function,target pairs -->
     <g transform="translate(17.619531 297.681)rotate(-90)scale(0.17 -0.17)">
      <defs>
       <path d="M 9.8125 72.90625 
L 51.703125 72.90625 
L 51.703125 64.59375 
L 19.671875 64.59375 
L 19.671875 43.109375 
L 48.578125 43.109375 
L 48.578125 34.8125 
L 19.671875 34.8125 
L 19.671875 0 
L 9.8125 0 
z
" id="DejaVuSans-70"/>
       <path d="M 41.109375 46.296875 
Q 39.59375 47.171875 37.8125 47.578125 
Q 36.03125 48 33.890625 48 
Q 26.265625 48 22.1875 43.046875 
Q 18.109375 38.09375 18.109375 28.8125 
L 18.109375 0 
L 9.078125 0 
L 9.078125 54.6875 
L 18.109375 54.6875 
L 18.109375 46.1875 
Q 20.953125 51.171875 25.484375 53.578125 
Q 30.03125 56 36.53125 56 
Q 37.453125 56 38.578125 55.875 
Q 39.703125 55.765625 41.0625 55.515625 
z
" id="DejaVuSans-114"/>
       <path d="M 48.78125 52.59375 
L 48.78125 44.1875 
Q 44.96875 46.296875 41.140625 47.34375 
Q 37.3125 48.390625 33.40625 48.390625 
Q 24.65625 48.390625 19.8125 42.84375 
Q 14.984375 37.3125 14.984375 27.296875 
Q 14.984375 17.28125 19.8125 11.734375 
Q 24.65625 6.203125 33.40625 6.203125 
Q 37.3125 6.203125 41.140625 7.25 
Q 44.96875 8.296875 48.78125 10.40625 
L 48.78125 2.09375 
Q 45.015625 0.34375 40.984375 -0.53125 
Q 36.96875 -1.421875 32.421875 -1.421875 
Q 20.0625 -1.421875 12.78125 6.34375 
Q 5.515625 14.109375 5.515625 27.296875 
Q 5.515625 40.671875 12.859375 48.328125 
Q 20.21875 56 33.015625 56 
Q 37.15625 56 41.109375 55.140625 
Q 45.0625 54.296875 48.78125 52.59375 
z
" id="DejaVuSans-99"/>
       <path d="M 18.3125 70.21875 
L 18.3125 54.6875 
L 36.8125 54.6875 
L 36.8125 47.703125 
L 18.3125 47.703125 
L 18.3125 18.015625 
Q 18.3125 11.328125 20.140625 9.421875 
Q 21.96875 7.515625 27.59375 7.515625 
L 36.8125 7.515625 
L 36.8125 0 
L 27.59375 0 
Q 17.1875 0 13.234375 3.875 
Q 9.28125 7.765625 9.28125 18.015625 
L 9.28125 47.703125 
L 2.6875 47.703125 
L 2.6875 54.6875 
L 9.28125 54.6875 
L 9.28125 70.21875 
z
" id="DejaVuSans-116"/>
       <path d="M 8.5 21.578125 
L 8.5 54.6875 
L 17.484375 54.6875 
L 17.484375 21.921875 
Q 17.484375 14.15625 20.5 10.265625 
Q 23.53125 6.390625 29.59375 6.390625 
Q 36.859375 6.390625 41.078125 11.03125 
Q 45.3125 15.671875 45.3125 23.6875 
L 45.3125 54.6875 
L 54.296875 54.6875 
L 54.296875 0 
L 45.3125 0 
L 45.3125 8.40625 
Q 42.046875 3.421875 37.71875 1 
Q 33.40625 -1.421875 27.6875 -1.421875 
Q 18.265625 -1.421875 13.375 4.4375 
Q 8.5 10.296875 8.5 21.578125 
z
M 31.109375 56 
z
" id="DejaVuSans-117"/>
       <path d="M 11.71875 12.40625 
L 22.015625 12.40625 
L 22.015625 4 
L 14.015625 -11.625 
L 7.71875 -11.625 
L 11.71875 4 
z
" id="DejaVuSans-44"/>
       <path d="M 18.109375 8.203125 
L 18.109375 -20.796875 
L 9.078125 -20.796875 
L 9.078125 54.6875 
L 18.109375 54.6875 
L 18.109375 46.390625 
Q 20.953125 51.265625 25.265625 53.625 
Q 29.59375 56 35.59375 56 
Q 45.5625 56 51.78125 48.09375 
Q 58.015625 40.1875 58.015625 27.296875 
Q 58.015625 14.40625 51.78125 6.484375 
Q 45.5625 -1.421875 35.59375 -1.421875 
Q 29.59375 -1.421875 25.265625 0.953125 
Q 20.953125 3.328125 18.109375 8.203125 
z
M 48.6875 27.296875 
Q 48.6875 37.203125 44.609375 42.84375 
Q 40.53125 48.484375 33.40625 48.484375 
Q 26.265625 48.484375 22.1875 42.84375 
Q 18.109375 37.203125 18.109375 27.296875 
Q 18.109375 17.390625 22.1875 11.75 
Q 26.265625 6.109375 33.40625 6.109375 
Q 40.53125 6.109375 44.609375 11.75 
Q 48.6875 17.390625 48.6875 27.296875 
z
" id="DejaVuSans-112"/>
      </defs>
      <use xlink:href="#DejaVuSans-70"/>
      <use x="50.269531" xlink:href="#DejaVuSans-114"/>
      <use x="91.382812" xlink:href="#DejaVuSans-97"/>
      <use x="152.662109" xlink:href="#DejaVuSans-99"/>
      <use x="207.642578" xlink:href="#DejaVuSans-116"/>
      <use x="246.851562" xlink:href="#DejaVuSans-105"/>
      <use x="274.634766" xlink:href="#DejaVuSans-111"/>
      <use x="335.816406" xlink:href="#DejaVuSans-110"/>
      <use x="399.195312" xlink:href="#DejaVuSans-32"/>
      <use x="430.982422" xlink:href="#DejaVuSans-111"/>
      <use x="492.164062" xlink:href="#DejaVuSans-102"/>
      <use x="527.369141" xlink:href="#DejaVuSans-32"/>
      <use x="559.15625" xlink:href="#DejaVuSans-102"/>
      <use x="594.361328" xlink:href="#DejaVuSans-117"/>
      <use x="657.740234" xlink:href="#DejaVuSans-110"/>
      <use x="721.119141" xlink:href="#DejaVuSans-99"/>
      <use x="776.099609" xlink:href="#DejaVuSans-116"/>
      <use x="815.308594" xlink:href="#DejaVuSans-105"/>
      <use x="843.091797" xlink:href="#DejaVuSans-111"/>
      <use x="904.273438" xlink:href="#DejaVuSans-110"/>
      <use x="967.652344" xlink:href="#DejaVuSans-44"/>
      <use x="999.439453" xlink:href="#DejaVuSans-116"/>
      <use x="1038.648438" xlink:href="#DejaVuSans-97"/>
      <use x="1099.927734" xlink:href="#DejaVuSans-114"/>
      <use x="1139.291016" xlink:href="#DejaVuSans-103"/>
      <use x="1202.767578" xlink:href="#DejaVuSans-101"/>
      <use x="1264.291016" xlink:href="#DejaVuSans-116"/>
      <use x="1303.5" xlink:href="#DejaVuSans-32"/>
      <use x="1335.287109" xlink:href="#DejaVuSans-112"/>
      <use x="1398.763672" xlink:href="#DejaVuSans-97"/>
      <use x="1460.042969" xlink:href="#DejaVuSans-105"/>
      <use x="1487.826172" xlink:href="#DejaVuSans-114"/>
      <use x="1528.939453" xlink:href="#DejaVuSans-115"/>
     </g>
    </g>
   </g>
   <g id="line2d_29">
    <defs>
     <path d="M 0 1.5 
C 0.397805 1.5 0.77937 1.341951 1.06066 1.06066 
C 1.341951 0.77937 1.5 0.397805 1.5 0 
C 1.5 -0.397805 1.341951 -0.77937 1.06066 -1.06066 
C 0.77937 -1.341951 0.397805 -1.5 0 -1.5 
C -0.397805 -1.5 -0.77937 -1.341951 -1.06066 -1.06066 
C -1.341951 -0.77937 -1.5 -0.397805 -1.5 0 
C -1.5 0.397805 -1.341951 0.77937 -1.06066 1.06066 
C -0.77937 1.341951 -0.397805 1.5 0 1.5 
z
" id="m7917cce0d1" style="stroke:#00bfbf;"/>
    </defs>
    <g>
     <use style="fill:#00bfbf;stroke:#00bfbf;" x="182.907984" xlink:href="#m7917cce0d1" y="30.334099"/>
     <use style="fill:#00bfbf;stroke:#00bfbf;" x="182.907984" xlink:href="#m7917cce0d1" y="30.334099"/>
    </g>
   </g>
   <g id="line2d_30">
    <path d="M 123.192626 298.944 
L 123.192626 298.070472 
L 125.470548 298.070472 
L 125.470548 296.76018 
L 128.107907 296.76018 
L 128.107907 295.886652 
L 129.002426 295.886652 
L 129.002426 295.013123 
L 130.127931 295.013123 
L 130.127931 293.702831 
L 130.664567 293.702831 
L 130.664567 290.208719 
L 131.439773 290.208719 
L 131.439773 289.771955 
L 132.181982 289.771955 
L 132.181982 288.024898 
L 132.422528 288.024898 
L 132.422528 287.588134 
L 132.893889 287.588134 
L 132.893889 285.841078 
L 133.124876 285.841078 
L 133.124876 281.036673 
L 133.800029 281.036673 
L 133.800029 276.669033 
L 134.236034 276.669033 
L 134.236034 275.795504 
L 135.076644 275.795504 
L 135.076644 275.35874 
L 135.280614 275.35874 
L 135.280614 274.485212 
L 135.482227 274.485212 
L 135.482227 274.048448 
L 136.073445 274.048448 
L 136.073445 273.611684 
L 136.831795 273.611684 
L 136.831795 273.17492 
L 137.198951 273.17492 
L 137.198951 272.738156 
L 137.735587 272.738156 
L 137.735587 272.301392 
L 137.910857 272.301392 
L 137.910857 270.9911 
L 138.256201 270.9911 
L 138.256201 270.117572 
L 139.413734 270.117572 
L 139.413734 268.370515 
L 139.572998 268.370515 
L 139.572998 267.933751 
L 140.499195 267.933751 
L 140.499195 265.749931 
L 140.64889 265.749931 
L 140.64889 264.876403 
L 141.090414 264.876403 
L 141.090414 263.129347 
L 141.235139 263.129347 
L 141.235139 262.692582 
L 141.378673 262.692582 
L 141.378673 262.255818 
L 141.521035 262.255818 
L 141.521035 260.945526 
L 141.80232 260.945526 
L 141.80232 258.761706 
L 141.941279 258.761706 
L 141.941279 258.324942 
L 142.07914 258.324942 
L 142.07914 257.451414 
L 142.215919 257.451414 
L 142.215919 256.577886 
L 142.486301 256.577886 
L 142.486301 254.394065 
L 142.619936 254.394065 
L 142.619936 250.899953 
L 142.884173 250.899953 
L 142.884173 250.026425 
L 143.273169 250.026425 
L 143.273169 247.842604 
L 143.653678 247.842604 
L 143.653678 247.40584 
L 143.778691 247.40584 
L 143.778691 245.22202 
L 144.269971 245.22202 
L 144.269971 243.038199 
L 144.510517 243.038199 
L 144.510517 239.980851 
L 144.865226 239.980851 
L 144.865226 239.107323 
L 144.981877 239.107323 
L 144.981877 230.808806 
L 145.327221 230.808806 
L 145.327221 225.567637 
L 145.440832 225.567637 
L 145.440832 224.694109 
L 145.665858 224.694109 
L 145.665858 223.820581 
L 145.777292 223.820581 
L 145.777292 222.510288 
L 146.216039 222.510288 
L 146.324022 219.45294 
L 146.644018 219.45294 
L 146.644018 218.142648 
L 146.958248 218.142648 
L 147.061745 216.395591 
L 147.266916 216.395591 
L 147.266916 214.648535 
L 147.4697 214.648535 
L 147.4697 209.407366 
L 147.769524 209.407366 
L 147.86833 205.039726 
L 148.064279 205.039726 
L 148.161434 201.982377 
L 148.449693 201.982377 
L 148.449693 199.798557 
L 148.919783 199.798557 
L 148.919783 199.361793 
L 149.286939 199.361793 
L 149.286939 198.925029 
L 149.646525 198.925029 
L 149.646525 197.614737 
L 149.998846 197.614737 
L 150.085825 194.120624 
L 150.258492 194.120624 
L 150.258492 191.50004 
L 150.429467 191.50004 
L 150.51433 189.752983 
L 150.598782 189.752983 
L 150.598782 189.316219 
L 150.766468 189.316219 
L 150.849711 185.822107 
L 151.015013 185.822107 
L 151.015013 184.511815 
L 151.260066 184.511815 
L 151.340991 182.764758 
L 151.501723 182.764758 
L 151.581536 179.70741 
L 151.818809 179.70741 
L 151.818809 179.270646 
L 152.283884 179.270646 
L 152.360205 177.960354 
L 152.436193 177.960354 
L 152.436193 177.086825 
L 152.587184 177.086825 
L 152.662192 174.029477 
L 152.885298 174.029477 
L 152.922207 169.225072 
L 153.032466 169.225072 
L 153.032466 167.91478 
L 153.395042 167.91478 
L 153.466662 166.604488 
L 153.679772 166.604488 
L 153.750233 163.983903 
L 153.820412 163.983903 
L 153.890309 161.800083 
L 154.235652 161.800083 
L 154.235652 161.363319 
L 154.439623 161.363319 
L 154.439623 157.432442 
L 154.57429 157.432442 
L 154.57429 156.995678 
L 154.972161 156.995678 
L 155.0376 152.191274 
L 155.232454 152.191274 
L 155.232454 151.75451 
L 155.425155 151.75451 
L 155.425155 150.880981 
L 155.61575 150.880981 
L 155.61575 150.444217 
L 155.86668 150.444217 
L 155.86668 150.007453 
L 156.175347 150.007453 
L 156.175347 149.570689 
L 156.357959 149.570689 
L 156.357959 148.697161 
L 156.717545 148.697161 
L 156.717545 148.260397 
L 157.243392 148.260397 
L 157.243392 147.823633 
L 157.58535 147.823633 
L 157.58535 146.950105 
L 157.809652 146.950105 
L 157.920731 145.639813 
L 158.249784 145.639813 
L 158.249784 145.203049 
L 158.83738 145.203049 
L 158.83738 140.835408 
L 158.994256 140.835408 
L 158.994256 140.398644 
L 159.608019 140.398644 
L 159.608019 139.525116 
L 159.807898 139.525116 
L 159.807898 138.651588 
L 160.005512 138.651588 
L 160.005512 137.778059 
L 160.152267 137.778059 
L 160.152267 136.904531 
L 160.346039 136.904531 
L 160.346039 135.594239 
L 160.632719 135.594239 
L 160.632719 135.157475 
L 161.510643 135.157475 
L 161.600536 132.100127 
L 161.689969 132.100127 
L 161.778945 130.35307 
L 161.911563 130.35307 
L 161.955547 128.16925 
L 162.086834 128.16925 
L 162.173813 125.548666 
L 162.303474 125.548666 
L 162.303474 124.238373 
L 162.474869 124.238373 
L 162.474869 122.928081 
L 162.602318 122.928081 
L 162.68677 119.870733 
L 163.061823 119.870733 
L 163.061823 116.813384 
L 163.185069 116.813384 
L 163.185069 115.066328 
L 163.307451 115.066328 
L 163.388564 112.445744 
L 163.428979 112.445744 
L 163.428979 112.008979 
L 163.549667 112.008979 
L 163.549667 110.261923 
L 164.024234 110.261923 
L 164.024234 108.951631 
L 164.333587 108.951631 
L 164.333587 105.894283 
L 164.448194 105.894283 
L 164.486229 105.020754 
L 164.787563 105.020754 
L 164.824867 99.779586 
L 164.9363 99.779586 
L 165.047026 95.411945 
L 165.120455 95.411945 
L 165.193576 91.481068 
L 165.302685 91.481068 
L 165.302685 87.986956 
L 165.447111 87.986956 
L 165.447111 86.2399 
L 165.661531 86.2399 
L 165.76776 84.056079 
L 165.803027 84.056079 
L 165.9084 80.998731 
L 166.08262 80.998731 
L 166.186323 74.884034 
L 166.255117 74.884034 
L 166.289413 71.389921 
L 166.561376 71.389921 
L 166.662278 68.769337 
L 166.712511 68.769337 
L 166.795913 66.148752 
L 171.595202 66.148752 
L 171.67086 63.964932 
L 171.746192 63.964932 
L 171.8212 62.217876 
L 171.895887 62.217876 
L 171.994974 60.034056 
L 172.093501 60.034056 
L 172.093501 59.597291 
L 172.458099 59.597291 
L 172.554051 57.850235 
L 172.649478 57.850235 
L 172.720707 53.482595 
L 173.00275 53.482595 
L 173.09576 52.172302 
L 173.188276 52.172302 
L 173.188276 48.241426 
L 177.553068 48.241426 
L 177.660498 42.563493 
L 178.6156 42.563493 
L 178.699888 41.689965 
L 178.900534 41.689965 
L 178.950337 37.322324 
L 179.115327 37.322324 
L 179.115327 36.88556 
L 182.303092 36.88556 
L 182.303092 36.448796 
L 182.547572 36.448796 
L 182.61488 32.954683 
L 182.907984 32.954683 
L 182.907984 30.334099 
L 338.688 30.334099 
L 338.688 30.334099 
" style="fill:none;stroke:#00bfbf;stroke-linecap:square;stroke-width:1.5;"/>
   </g>
   <g id="line2d_31">
    <defs>
     <path d="M -6 0 
L 6 0 
M 0 6 
L 0 -6 
" id="mf3b99e0667" style="stroke:#00bfbf;stroke-width:1.5;"/>
    </defs>
    <g>
     <use style="fill-opacity:0;stroke:#00bfbf;stroke-width:1.5;" x="150.598782" xlink:href="#mf3b99e0667" y="189.316219"/>
     <use style="fill-opacity:0;stroke:#00bfbf;stroke-width:1.5;" x="171.67086" xlink:href="#mf3b99e0667" y="64.83846"/>
     <use style="fill-opacity:0;stroke:#00bfbf;stroke-width:1.5;" x="182.907984" xlink:href="#mf3b99e0667" y="30.334099"/>
     <use style="fill-opacity:0;stroke:#00bfbf;stroke-width:1.5;" x="182.907984" xlink:href="#mf3b99e0667" y="30.334099"/>
     <use style="fill-opacity:0;stroke:#00bfbf;stroke-width:1.5;" x="338.688" xlink:href="#mf3b99e0667" y="30.334099"/>
    </g>
   </g>
   <g id="line2d_32">
    <path style="fill:none;stroke:#00bfbf;stroke-linecap:square;stroke-width:1.5;"/>
    <g/>
   </g>
   <g id="line2d_33">
    <defs>
     <path d="M 0 1.5 
C 0.397805 1.5 0.77937 1.341951 1.06066 1.06066 
C 1.341951 0.77937 1.5 0.397805 1.5 0 
C 1.5 -0.397805 1.341951 -0.77937 1.06066 -1.06066 
C 0.77937 -1.341951 0.397805 -1.5 0 -1.5 
C -0.397805 -1.5 -0.77937 -1.341951 -1.06066 -1.06066 
C -1.341951 -0.77937 -1.5 -0.397805 -1.5 0 
C -1.5 0.397805 -1.341951 0.77937 -1.06066 1.06066 
C -0.77937 1.341951 -0.397805 1.5 0 1.5 
z
" id="mc5c1b24022" style="stroke:#008000;"/>
    </defs>
    <g>
     <use style="fill:#008000;stroke:#008000;" x="183.90087" xlink:href="#mc5c1b24022" y="30.334099"/>
     <use style="fill:#008000;stroke:#008000;" x="183.90087" xlink:href="#mc5c1b24022" y="30.334099"/>
    </g>
   </g>
   <g id="line2d_34">
    <path d="M 136.831795 298.944 
L 136.831795 297.633708 
L 136.955041 297.633708 
L 136.955041 295.449887 
L 137.319638 295.449887 
L 137.319638 292.829303 
L 137.794206 292.829303 
L 137.794206 290.645483 
L 138.026733 290.645483 
L 138.026733 289.771955 
L 138.256201 289.771955 
L 138.256201 288.461662 
L 138.482688 288.461662 
L 138.482688 287.588134 
L 138.706272 287.588134 
L 138.706272 286.277842 
L 138.927025 286.277842 
L 138.927025 285.841078 
L 139.145019 285.841078 
L 139.145019 283.220494 
L 139.360321 283.220494 
L 139.466984 280.163145 
L 139.678372 280.163145 
L 139.783113 278.852853 
L 139.887228 278.852853 
L 139.887228 276.669033 
L 140.297583 276.669033 
L 140.297583 275.35874 
L 140.79731 275.35874 
L 140.79731 274.485212 
L 141.090414 274.485212 
L 141.187031 270.554336 
L 141.568232 270.554336 
L 141.568232 269.244043 
L 141.755753 269.244043 
L 141.755753 268.807279 
L 142.033307 268.807279 
L 142.124852 265.749931 
L 142.215919 265.749931 
L 142.215919 264.876403 
L 142.486301 264.876403 
L 142.486301 260.508762 
L 142.664255 260.508762 
L 142.664255 259.635234 
L 142.840411 259.635234 
L 142.927826 258.324942 
L 143.101352 258.324942 
L 143.101352 257.01465 
L 143.943994 257.01465 
L 144.026061 254.830829 
L 144.148442 254.830829 
L 144.148442 254.394065 
L 144.269971 254.394065 
L 144.269971 249.58966 
L 144.430703 249.58966 
L 144.430703 248.716132 
L 144.589967 248.716132 
L 144.589967 247.40584 
L 144.747789 247.40584 
L 144.747789 245.22202 
L 145.136208 245.22202 
L 145.212864 241.291143 
L 145.440832 241.291143 
L 145.440832 240.417615 
L 145.591172 240.417615 
L 145.591172 239.980851 
L 145.814278 239.980851 
L 145.814278 238.670559 
L 145.961446 238.670559 
L 145.961446 238.233795 
L 146.107383 238.233795 
L 146.179895 237.360267 
L 146.252108 237.360267 
L 146.324022 233.42939 
L 146.466968 233.42939 
L 146.538004 232.555862 
L 146.819289 232.555862 
L 146.819289 232.119098 
L 146.958248 232.119098 
L 146.958248 231.24557 
L 147.096109 231.24557 
L 147.164632 229.498513 
L 147.436066 229.498513 
L 147.436066 229.061749 
L 147.636905 229.061749 
L 147.636905 228.624985 
L 147.769524 228.624985 
L 147.835457 226.441165 
L 147.901141 226.441165 
L 147.96658 222.947052 
L 148.225905 222.947052 
L 148.290138 220.763232 
L 148.417899 220.763232 
L 148.48143 219.45294 
L 148.54473 219.45294 
L 148.607802 217.26912 
L 148.79566 217.26912 
L 148.857832 215.958827 
L 148.919783 215.958827 
L 148.919783 215.085299 
L 149.043029 215.085299 
L 149.043029 211.154423 
L 149.286939 211.154423 
L 149.347388 207.223546 
L 149.587107 207.223546 
L 149.587107 204.602962 
L 150.114722 204.602962 
L 150.172372 201.982377 
L 150.344189 201.982377 
L 150.401087 199.361793 
L 150.457801 199.361793 
L 150.457801 198.488265 
L 150.626842 198.488265 
L 150.682827 194.994152 
L 150.904986 194.994152 
L 150.904986 192.810332 
L 151.069768 192.810332 
L 151.178764 189.316219 
L 151.394733 189.316219 
L 151.394733 188.879455 
L 151.60806 188.879455 
L 151.660987 184.948579 
L 151.76636 184.948579 
L 151.76636 184.07505 
L 151.923236 184.07505 
L 152.027042 180.580938 
L 152.078714 180.580938 
L 152.181601 177.523589 
L 152.283884 177.523589 
L 152.334802 174.903005 
L 152.687123 174.903005 
L 152.687123 174.466241 
L 152.934492 174.466241 
L 152.983548 173.155949 
L 153.081247 173.155949 
L 153.178403 172.282421 
L 153.226778 172.282421 
L 153.323128 170.972128 
L 153.79705 170.972128 
L 153.79705 170.535364 
L 154.303908 170.535364 
L 154.303908 170.0986 
L 154.484627 170.0986 
L 154.57429 167.478016 
L 154.707925 167.478016 
L 154.77436 162.673611 
L 154.928399 162.673611 
L 154.950294 161.363319 
L 155.146121 161.363319 
L 155.167744 160.489791 
L 155.361158 160.489791 
L 155.361158 160.053027 
L 155.488919 160.053027 
L 155.488919 159.179499 
L 155.657823 159.179499 
L 155.657823 157.869206 
L 155.825108 157.869206 
L 155.887428 156.995678 
L 155.990803 156.995678 
L 155.990803 153.501566 
L 156.154939 153.501566 
L 156.154939 152.191274 
L 156.677955 152.191274 
L 156.757045 150.007453 
L 156.875011 150.007453 
L 156.875011 148.697161 
L 157.224197 148.697161 
L 157.224197 147.823633 
L 157.491032 147.823633 
L 157.528821 141.708936 
L 157.67916 141.708936 
L 157.67916 140.835408 
L 158.012759 140.835408 
L 158.012759 138.214823 
L 158.304027 138.214823 
L 158.304027 136.467767 
L 158.537152 136.467767 
L 158.537152 136.031003 
L 158.732007 136.031003 
L 158.784773 135.157475 
L 158.872364 135.157475 
L 158.872364 134.720711 
L 159.0116 134.720711 
L 159.0116 133.847183 
L 159.857512 133.847183 
L 159.923445 129.042778 
L 159.98913 129.042778 
L 160.087195 124.238373 
L 160.442124 124.238373 
L 160.442124 123.364845 
L 160.632719 123.364845 
L 160.632719 122.928081 
L 160.852479 122.928081 
L 160.852479 122.491317 
L 161.64531 122.491317 
L 161.64531 119.870733 
L 163.801742 119.870733 
L 163.801742 116.37662 
L 164.011225 116.37662 
L 164.011225 115.939856 
L 164.218222 115.939856 
L 164.218222 114.1928 
L 166.323641 114.1928 
L 166.323641 113.756036 
L 166.550128 113.756036 
L 166.550128 113.319272 
L 166.662278 113.319272 
L 166.662278 112.882508 
L 167.871425 112.882508 
L 167.871425 112.008979 
L 167.996141 112.008979 
L 167.996141 111.135451 
L 168.11997 111.135451 
L 168.202038 105.894283 
L 168.304082 105.894283 
L 168.385289 104.58399 
L 168.48627 104.58399 
L 168.566635 103.273698 
L 168.666574 103.273698 
L 168.70639 101.089878 
L 168.854895 101.089878 
L 168.923766 98.906057 
L 169.099626 98.906057 
L 169.196565 96.722237 
L 169.292968 96.722237 
L 169.292968 95.848709 
L 169.860457 95.848709 
L 169.860457 91.044304 
L 170.137423 91.044304 
L 170.137423 90.60754 
L 170.301516 90.60754 
L 170.41006 88.860484 
L 170.482048 88.860484 
L 170.553741 84.929607 
L 170.678499 84.929607 
L 170.678499 84.492843 
L 170.995266 84.492843 
L 170.995266 84.056079 
L 171.151517 84.056079 
L 171.220515 80.998731 
L 171.289242 80.998731 
L 171.357698 80.125203 
L 171.51075 80.125203 
L 171.595202 77.067854 
L 171.679247 77.067854 
L 171.746192 74.884034 
L 172.077118 74.884034 
L 172.077118 74.010506 
L 172.641546 74.010506 
L 172.720707 73.136978 
L 172.830933 73.136978 
L 172.830933 72.700213 
L 173.310873 72.700213 
L 173.371849 66.585517 
L 175.025688 66.585517 
L 175.080963 65.275224 
L 175.149812 65.275224 
L 175.245745 63.528168 
L 175.354741 63.528168 
L 175.422519 62.217876 
L 175.490035 62.217876 
L 175.490035 61.344348 
L 175.637655 61.344348 
L 175.691027 60.47082 
L 175.863367 60.47082 
L 175.863367 55.666415 
L 176.03402 55.666415 
L 176.138213 49.988482 
L 177.832198 49.988482 
L 177.832198 49.114954 
L 179.246204 49.114954 
L 179.246204 47.804662 
L 181.050988 47.804662 
L 181.129191 46.057605 
L 181.245843 46.057605 
L 181.245843 45.184077 
L 181.600682 45.184077 
L 181.695358 44.310549 
L 181.742504 44.310549 
L 181.742504 43.873785 
L 181.855137 43.873785 
L 181.920505 42.126729 
L 182.757606 42.126729 
L 182.863889 40.816437 
L 183.488336 40.816437 
L 183.590271 37.322324 
L 183.758849 37.322324 
L 183.834181 31.644391 
L 183.90087 31.644391 
L 183.90087 30.334099 
L 338.688 30.334099 
L 338.688 30.334099 
" style="fill:none;stroke:#008000;stroke-linecap:square;stroke-width:1.5;"/>
   </g>
   <g id="line2d_35">
    <defs>
     <path d="M -0 6 
L 6 -6 
L -6 -6 
z
" id="m69292bc680" style="stroke:#008000;stroke-linejoin:miter;stroke-width:1.5;"/>
    </defs>
    <g>
     <use style="fill-opacity:0;stroke:#008000;stroke-linejoin:miter;stroke-width:1.5;" x="171.595202" xlink:href="#m69292bc680" y="79.688439"/>
     <use style="fill-opacity:0;stroke:#008000;stroke-linejoin:miter;stroke-width:1.5;" x="183.90087" xlink:href="#m69292bc680" y="31.644391"/>
     <use style="fill-opacity:0;stroke:#008000;stroke-linejoin:miter;stroke-width:1.5;" x="183.90087" xlink:href="#m69292bc680" y="30.334099"/>
     <use style="fill-opacity:0;stroke:#008000;stroke-linejoin:miter;stroke-width:1.5;" x="183.90087" xlink:href="#m69292bc680" y="30.334099"/>
     <use style="fill-opacity:0;stroke:#008000;stroke-linejoin:miter;stroke-width:1.5;" x="338.688" xlink:href="#m69292bc680" y="30.334099"/>
    </g>
   </g>
   <g id="line2d_36">
    <path style="fill:none;stroke:#008000;stroke-linecap:square;stroke-width:1.5;"/>
    <g/>
   </g>
   <g id="line2d_37">
    <defs>
     <path d="M 0 1.5 
C 0.397805 1.5 0.77937 1.341951 1.06066 1.06066 
C 1.341951 0.77937 1.5 0.397805 1.5 0 
C 1.5 -0.397805 1.341951 -0.77937 1.06066 -1.06066 
C 0.77937 -1.341951 0.397805 -1.5 0 -1.5 
C -0.397805 -1.5 -0.77937 -1.341951 -1.06066 -1.06066 
C -1.341951 -0.77937 -1.5 -0.397805 -1.5 0 
C -1.5 0.397805 -1.341951 0.77937 -1.06066 1.06066 
C -0.77937 1.341951 -0.397805 1.5 0 1.5 
z
" id="m60c6b1d208" style="stroke:#0000ff;"/>
    </defs>
    <g>
     <use style="fill:#0000ff;stroke:#0000ff;" x="215.193569" xlink:href="#m60c6b1d208" y="30.334099"/>
     <use style="fill:#0000ff;stroke:#0000ff;" x="215.193569" xlink:href="#m60c6b1d208" y="30.334099"/>
    </g>
   </g>
   <g id="line2d_38">
    <path d="M 144.747789 298.944 
L 144.747789 297.633708 
L 145.074639 297.633708 
L 145.074639 296.323416 
L 145.350002 296.323416 
L 145.440832 294.576359 
L 145.710517 294.576359 
L 145.710517 294.139595 
L 146.019967 294.139595 
L 146.019967 293.702831 
L 146.324022 293.702831 
L 146.324022 292.392539 
L 146.833235 292.392539 
L 146.833235 291.955775 
L 147.769524 291.955775 
L 147.848613 290.645483 
L 148.083753 290.645483 
L 148.083753 289.335191 
L 148.315765 289.335191 
L 148.354135 287.15137 
L 149.752971 287.15137 
L 149.752971 285.841078 
L 150.172372 285.841078 
L 150.172372 282.78373 
L 150.849711 282.78373 
L 150.882897 281.910201 
L 151.047887 281.910201 
L 151.080698 279.726381 
L 151.437608 279.726381 
L 151.437608 279.289617 
L 151.787359 279.289617 
L 151.787359 278.852853 
L 152.09934 278.852853 
L 152.191856 277.979325 
L 152.222586 277.979325 
L 152.222586 277.542561 
L 152.405838 277.542561 
L 152.466496 275.795504 
L 152.587184 275.795504 
L 152.587184 275.35874 
L 153.090987 275.35874 
L 153.149313 274.485212 
L 153.265382 274.485212 
L 153.294279 272.738156 
L 153.40939 272.738156 
L 153.438049 271.864628 
L 154.167129 271.864628 
L 154.167129 271.427864 
L 154.493614 271.427864 
L 154.601099 270.554336 
L 154.840544 270.554336 
L 154.840544 270.117572 
L 155.076745 270.117572 
L 155.076745 268.807279 
L 155.361158 268.807279 
L 155.361158 268.370515 
L 155.514359 268.370515 
L 155.514359 267.933751 
L 155.86668 267.933751 
L 155.86668 267.496987 
L 156.212023 267.496987 
L 156.212023 267.060223 
L 156.526689 267.060223 
L 156.610446 265.749931 
L 156.717545 265.749931 
L 156.764934 262.692582 
L 156.882847 262.692582 
L 156.906335 261.819054 
L 157.437991 261.819054 
L 157.437991 261.38229 
L 157.887482 261.38229 
L 157.887482 260.945526 
L 158.497919 260.945526 
L 158.497919 260.508762 
L 159.004665 260.508762 
L 159.004665 259.635234 
L 159.293606 259.635234 
L 159.293606 257.888178 
L 159.436301 257.888178 
L 159.436301 257.01465 
L 159.577838 257.01465 
L 159.577838 256.141121 
L 159.758143 256.141121 
L 159.758143 255.704357 
L 159.956318 255.704357 
L 160.034962 254.394065 
L 160.171742 254.394065 
L 160.171742 253.083773 
L 160.461277 253.083773 
L 160.461277 252.647009 
L 160.746084 252.647009 
L 160.830627 251.336717 
L 160.8961 251.336717 
L 160.914762 246.095548 
L 161.026314 246.095548 
L 161.026314 245.22202 
L 161.302112 245.22202 
L 161.302112 244.785256 
L 161.627414 244.785256 
L 161.627414 243.911728 
L 161.840959 243.911728 
L 161.893939 243.038199 
L 161.990653 243.038199 
L 162.051921 241.727907 
L 162.104265 241.727907 
L 162.156452 240.417615 
L 162.260361 240.417615 
L 162.260361 239.544087 
L 162.68677 239.544087 
L 162.68677 239.107323 
L 162.921083 239.107323 
L 162.921083 238.670559 
L 163.086542 238.670559 
L 163.185069 237.360267 
L 163.84384 237.360267 
L 163.84384 235.61321 
L 164.032036 235.61321 
L 164.032036 231.682334 
L 164.75018 231.682334 
L 164.75018 231.24557 
L 164.899235 231.24557 
L 164.98806 229.935277 
L 165.468672 229.935277 
L 165.568939 226.877929 
L 165.654426 226.877929 
L 165.654426 226.441165 
L 165.978297 226.441165 
L 166.034014 225.130873 
L 166.117256 225.130873 
L 166.213873 223.383816 
L 166.296264 223.383816 
L 166.296264 222.073524 
L 166.473452 222.073524 
L 166.568121 219.45294 
L 166.635428 219.45294 
L 166.715855 218.142648 
L 166.809221 218.142648 
L 166.822518 216.395591 
L 166.928532 216.395591 
L 167.020769 215.522063 
L 167.086355 215.522063 
L 167.164734 212.464715 
L 167.229781 212.464715 
L 167.320442 211.591187 
L 167.397779 211.591187 
L 167.397779 210.717659 
L 167.55143 210.717659 
L 167.627751 209.407366 
L 167.728995 209.407366 
L 167.728995 208.970602 
L 167.842196 208.970602 
L 167.942207 205.913254 
L 167.96712 205.913254 
L 167.96712 205.039726 
L 168.152844 205.039726 
L 168.226583 203.292669 
L 168.33661 203.292669 
L 168.373132 201.545613 
L 168.482242 201.545613 
L 168.530517 200.672085 
L 168.614678 200.672085 
L 168.710367 198.051501 
L 168.758015 198.051501 
L 168.78179 194.557388 
L 168.923766 194.557388 
L 168.994323 190.189747 
L 169.07628 190.189747 
L 169.134586 186.695635 
L 169.204297 186.695635 
L 169.285276 185.822107 
L 169.342888 185.822107 
L 169.371623 181.89123 
L 169.548731 181.89123 
L 169.548731 181.017702 
L 169.78585 181.017702 
L 169.830653 179.70741 
L 169.942157 179.70741 
L 170.041906 177.960354 
L 170.108089 177.960354 
L 170.152072 177.086825 
L 170.239707 177.086825 
L 170.239707 176.650061 
L 170.446091 176.650061 
L 170.532264 174.903005 
L 170.607318 174.903005 
L 170.607318 172.282421 
L 170.819995 172.282421 
L 170.819995 171.845657 
L 170.935871 171.845657 
L 171.009212 170.0986 
L 171.103055 170.0986 
L 171.165339 169.225072 
L 171.258348 169.225072 
L 171.258348 168.788308 
L 171.371357 168.788308 
L 171.453088 167.91478 
L 171.706056 167.91478 
L 171.786237 166.604488 
L 171.846131 166.604488 
L 171.846131 166.167724 
L 172.279183 166.167724 
L 172.356777 164.420667 
L 172.42439 164.420667 
L 172.434028 163.547139 
L 172.69225 163.547139 
L 172.796366 157.432442 
L 172.852895 157.432442 
L 172.918615 155.248622 
L 173.00275 155.248622 
L 173.091121 153.501566 
L 173.831397 153.501566 
L 173.937789 152.628038 
L 174.209666 152.628038 
L 174.209666 152.191274 
L 174.443058 152.191274 
L 174.443058 151.317745 
L 174.69877 151.317745 
L 174.783181 150.444217 
L 174.992439 150.444217 
L 174.992439 150.007453 
L 175.516968 150.007453 
L 175.565343 148.697161 
L 175.693692 148.697161 
L 175.789337 146.950105 
L 176.135616 146.950105 
L 176.182307 141.708936 
L 176.275317 141.708936 
L 176.275317 140.835408 
L 176.448384 140.835408 
L 176.448384 139.96188 
L 176.566617 139.96188 
L 176.657605 135.157475 
L 177.361644 135.157475 
L 177.361644 133.847183 
L 179.200509 133.847183 
L 179.27877 131.226598 
L 179.401971 131.226598 
L 179.401971 130.789834 
L 179.690336 130.789834 
L 179.690336 130.35307 
L 179.873676 130.35307 
L 179.97401 129.042778 
L 180.030195 129.042778 
L 180.129636 123.801609 
L 180.216183 123.801609 
L 180.216183 123.364845 
L 181.407854 123.364845 
L 181.407854 122.928081 
L 181.596884 122.928081 
L 181.596884 121.617789 
L 182.647095 121.617789 
L 182.647095 121.181025 
L 183.408069 121.181025 
L 183.469583 118.997205 
L 183.586883 118.997205 
L 183.622426 117.250148 
L 183.703398 117.250148 
L 183.773941 115.939856 
L 183.849208 115.939856 
L 183.849208 115.066328 
L 184.068135 115.066328 
L 184.137221 112.445744 
L 184.181489 112.445744 
L 184.181489 112.008979 
L 185.267035 112.008979 
L 185.363703 108.078103 
L 185.379762 108.078103 
L 185.455272 105.894283 
L 185.500877 105.894283 
L 185.500877 105.457518 
L 185.727129 105.457518 
L 185.807867 101.526642 
L 185.950484 101.526642 
L 185.950484 101.089878 
L 186.188536 101.089878 
L 186.214787 95.848709 
L 186.358464 95.848709 
L 186.358464 94.538417 
L 186.496666 94.538417 
L 186.498817 92.791361 
L 186.680667 92.791361 
L 186.757118 90.170776 
L 190.262064 90.170776 
L 190.327801 88.42372 
L 190.831547 88.42372 
L 190.868413 86.2399 
L 190.961903 86.2399 
L 190.961903 85.803135 
L 191.167151 85.803135 
L 191.213165 84.929607 
L 191.379768 84.929607 
L 191.425225 82.745787 
L 191.502877 82.745787 
L 191.502877 81.435495 
L 191.759248 81.435495 
L 191.79738 79.688439 
L 191.886033 79.688439 
L 191.983662 75.757562 
L 192.008768 75.757562 
L 192.008768 74.884034 
L 198.764399 74.884034 
L 198.802675 74.010506 
L 199.323727 74.010506 
L 199.348449 72.700213 
L 199.485839 72.700213 
L 199.565318 68.332573 
L 200.117658 68.332573 
L 200.200197 66.148752 
L 205.885021 66.148752 
L 205.930248 64.83846 
L 206.044207 64.83846 
L 206.119769 60.907584 
L 206.200564 60.907584 
L 206.239436 59.160527 
L 206.41741 59.160527 
L 206.4229 57.850235 
L 206.578633 57.850235 
L 206.670869 52.609066 
L 206.690474 52.609066 
L 206.727595 48.241426 
L 214.838962 48.241426 
L 214.936084 46.494369 
L 214.950395 46.494369 
L 215.052757 42.563493 
L 215.071988 42.563493 
L 215.180286 31.644391 
L 215.193569 31.644391 
L 215.193569 30.334099 
L 338.688 30.334099 
L 338.688 30.334099 
" style="fill:none;stroke:#0000ff;stroke-linecap:square;stroke-width:1.5;"/>
   </g>
   <g id="line2d_39">
    <defs>
     <path d="M 0 -6 
L -1.347084 -1.854102 
L -5.706339 -1.854102 
L -2.179628 0.708204 
L -3.526712 4.854102 
L -0 2.291796 
L 3.526712 4.854102 
L 2.179628 0.708204 
L 5.706339 -1.854102 
L 1.347084 -1.854102 
z
" id="ma0c00b9730" style="stroke:#0000ff;stroke-linejoin:bevel;stroke-width:1.5;"/>
    </defs>
    <g>
     <use style="fill-opacity:0;stroke:#0000ff;stroke-linejoin:bevel;stroke-width:1.5;" x="183.469583" xlink:href="#ma0c00b9730" y="118.997205"/>
     <use style="fill-opacity:0;stroke:#0000ff;stroke-linejoin:bevel;stroke-width:1.5;" x="215.193569" xlink:href="#ma0c00b9730" y="31.644391"/>
     <use style="fill-opacity:0;stroke:#0000ff;stroke-linejoin:bevel;stroke-width:1.5;" x="215.193569" xlink:href="#ma0c00b9730" y="30.334099"/>
     <use style="fill-opacity:0;stroke:#0000ff;stroke-linejoin:bevel;stroke-width:1.5;" x="215.193569" xlink:href="#ma0c00b9730" y="30.334099"/>
     <use style="fill-opacity:0;stroke:#0000ff;stroke-linejoin:bevel;stroke-width:1.5;" x="338.688" xlink:href="#ma0c00b9730" y="30.334099"/>
    </g>
   </g>
   <g id="line2d_40">
    <path style="fill:none;stroke:#0000ff;stroke-linecap:square;stroke-width:1.5;"/>
    <g/>
   </g>
   <g id="line2d_41">
    <defs>
     <path d="M 0 1.5 
C 0.397805 1.5 0.77937 1.341951 1.06066 1.06066 
C 1.341951 0.77937 1.5 0.397805 1.5 0 
C 1.5 -0.397805 1.341951 -0.77937 1.06066 -1.06066 
C 0.77937 -1.341951 0.397805 -1.5 0 -1.5 
C -0.397805 -1.5 -0.77937 -1.341951 -1.06066 -1.06066 
C -1.341951 -0.77937 -1.5 -0.397805 -1.5 0 
C -1.5 0.397805 -1.341951 0.77937 -1.06066 1.06066 
C -0.77937 1.341951 -0.397805 1.5 0 1.5 
z
" id="mb141809b26" style="stroke:#000000;"/>
    </defs>
    <g>
     <use style="stroke:#000000;" x="282.06493" xlink:href="#mb141809b26" y="30.334099"/>
     <use style="stroke:#000000;" x="282.06493" xlink:href="#mb141809b26" y="30.334099"/>
    </g>
   </g>
   <g id="line2d_42">
    <path d="M 208.202652 298.944 
L 208.311967 297.196944 
L 208.559545 297.196944 
L 208.575926 296.323416 
L 208.824594 296.323416 
L 208.824594 295.886652 
L 209.235213 295.886652 
L 209.326648 294.139595 
L 209.476446 294.139595 
L 209.476446 293.702831 
L 210.093695 293.702831 
L 210.093695 293.266067 
L 211.006575 293.266067 
L 211.032931 290.208719 
L 211.153136 290.208719 
L 211.188149 289.335191 
L 211.265762 289.335191 
L 211.356997 288.461662 
L 211.441583 288.461662 
L 211.52781 287.15137 
L 211.556458 287.15137 
L 211.556458 286.714606 
L 211.683271 286.714606 
L 211.742035 285.841078 
L 212.072418 285.841078 
L 212.072418 285.404314 
L 212.199735 285.404314 
L 212.199735 284.96755 
L 212.367164 284.96755 
L 212.407372 281.036673 
L 213.364454 281.036673 
L 213.465538 279.289617 
L 213.537775 279.289617 
L 213.633779 278.416089 
L 213.952554 278.416089 
L 213.971256 277.542561 
L 214.322402 277.542561 
L 214.365095 276.669033 
L 214.568408 276.669033 
L 214.590327 275.795504 
L 215.486113 275.795504 
L 215.58417 273.611684 
L 215.719564 273.611684 
L 215.741693 272.738156 
L 215.998733 272.738156 
L 215.998733 272.301392 
L 216.793738 272.301392 
L 216.793738 271.864628 
L 217.405223 271.864628 
L 217.405223 271.427864 
L 217.607268 271.427864 
L 217.716039 268.807279 
L 217.766591 268.807279 
L 217.847492 260.071998 
L 217.899619 260.071998 
L 217.899619 259.635234 
L 219.478392 259.635234 
L 219.478392 259.19847 
L 219.621733 259.19847 
L 219.621733 258.761706 
L 219.857359 258.761706 
L 219.890037 257.01465 
L 220.467854 257.01465 
L 220.467854 256.577886 
L 220.59982 256.577886 
L 220.59982 256.141121 
L 220.842946 256.141121 
L 220.948713 255.267593 
L 220.977326 255.267593 
L 221.028326 254.394065 
L 221.126631 254.394065 
L 221.126631 253.957301 
L 221.641435 253.957301 
L 221.641435 253.520537 
L 222.096707 253.520537 
L 222.126008 252.647009 
L 222.222076 252.647009 
L 222.315964 251.336717 
L 222.565971 251.336717 
L 222.565971 250.899953 
L 222.74234 250.899953 
L 222.755792 250.026425 
L 222.888675 250.026425 
L 222.888675 249.58966 
L 223.205779 249.58966 
L 223.275876 248.716132 
L 223.471075 248.716132 
L 223.579666 246.095548 
L 223.598638 246.095548 
L 223.598638 244.785256 
L 223.843926 244.785256 
L 223.902698 243.911728 
L 224.245306 243.911728 
L 224.355698 242.601435 
L 224.573318 242.601435 
L 224.573318 242.164671 
L 224.95737 242.164671 
L 225.066893 238.670559 
L 225.079843 238.670559 
L 225.166483 237.360267 
L 225.23054 237.360267 
L 225.299476 236.486738 
L 225.466952 236.486738 
L 225.466952 236.049974 
L 225.739228 236.049974 
L 225.844865 235.176446 
L 226.019144 235.176446 
L 226.041433 234.302918 
L 226.142935 234.302918 
L 226.142935 233.866154 
L 226.430879 233.866154 
L 226.529062 232.119098 
L 226.545625 232.119098 
L 226.596514 230.372042 
L 226.671764 230.372042 
L 226.671764 229.935277 
L 227.086388 229.935277 
L 227.125472 229.061749 
L 227.231487 229.061749 
L 227.272219 227.751457 
L 227.349886 227.751457 
L 227.455166 226.441165 
L 227.46841 226.441165 
L 227.578487 225.567637 
L 227.644039 225.567637 
L 227.646375 224.257345 
L 228.064817 224.257345 
L 228.064817 223.820581 
L 228.33993 223.820581 
L 228.443396 222.510288 
L 228.484301 222.510288 
L 228.580947 221.63676 
L 228.609136 221.63676 
L 228.609136 221.199996 
L 228.903102 221.199996 
L 228.996521 219.45294 
L 229.032961 219.45294 
L 229.106454 218.579412 
L 229.168658 218.579412 
L 229.168658 218.142648 
L 229.338375 218.142648 
L 229.33985 217.26912 
L 229.666872 217.26912 
L 229.774381 215.085299 
L 229.90793 215.085299 
L 229.938331 214.211771 
L 230.059848 214.211771 
L 230.160396 211.154423 
L 230.237442 211.154423 
L 230.348549 210.280894 
L 230.429794 210.280894 
L 230.5235 209.407366 
L 230.724749 209.407366 
L 230.835512 207.66031 
L 230.87253 207.66031 
L 230.906437 206.786782 
L 231.127818 206.786782 
L 231.127818 206.350018 
L 231.260928 206.350018 
L 231.318054 205.039726 
L 231.81402 205.039726 
L 231.921196 203.292669 
L 232.011592 203.292669 
L 232.105769 201.545613 
L 232.263949 201.545613 
L 232.371503 199.361793 
L 232.420089 199.361793 
L 232.420089 198.925029 
L 232.651556 198.925029 
L 232.760618 197.614737 
L 232.813345 197.614737 
L 232.838254 196.304444 
L 232.942559 196.304444 
L 232.951629 195.430916 
L 233.083248 195.430916 
L 233.187951 194.120624 
L 233.247953 194.120624 
L 233.247953 193.68386 
L 233.363389 193.68386 
L 233.363389 193.247096 
L 233.613795 193.247096 
L 233.713505 191.936804 
L 233.886672 191.936804 
L 233.920803 191.063276 
L 234.064677 191.063276 
L 234.166113 189.752983 
L 234.447887 189.752983 
L 234.541653 188.005927 
L 234.747844 188.005927 
L 234.845259 186.258871 
L 234.888567 186.258871 
L 234.96692 184.511815 
L 235.112648 184.511815 
L 235.14704 183.638286 
L 235.26557 183.638286 
L 235.359361 181.89123 
L 235.530518 181.89123 
L 235.594005 181.017702 
L 235.698922 181.017702 
L 235.698922 180.144174 
L 235.837859 180.144174 
L 235.914661 177.960354 
L 235.982941 177.960354 
L 236.068638 176.213297 
L 236.159465 176.213297 
L 236.221826 174.903005 
L 236.511641 174.903005 
L 236.511641 174.466241 
L 236.777954 174.466241 
L 236.866667 172.719185 
L 237.026682 172.719185 
L 237.026682 172.282421 
L 237.230741 172.282421 
L 237.323603 170.535364 
L 237.352565 170.535364 
L 237.441306 169.661836 
L 237.728574 169.661836 
L 237.796536 168.351544 
L 237.864347 168.351544 
L 237.864347 167.91478 
L 238.076829 167.91478 
L 238.173249 167.041252 
L 238.312121 167.041252 
L 238.343394 166.167724 
L 238.458259 166.167724 
L 238.458259 165.73096 
L 238.655187 165.73096 
L 238.723299 164.857432 
L 238.766734 164.857432 
L 238.841845 163.110375 
L 238.911097 163.110375 
L 239.007262 161.800083 
L 239.0921 161.800083 
L 239.095525 160.926555 
L 239.222406 160.926555 
L 239.222406 160.489791 
L 239.356263 160.489791 
L 239.356263 160.053027 
L 239.475393 160.053027 
L 239.565478 158.305971 
L 239.59141 158.305971 
L 239.670146 157.432442 
L 239.799611 157.432442 
L 239.827369 156.558914 
L 240.081701 156.558914 
L 240.081701 156.12215 
L 240.250566 156.12215 
L 240.346457 155.248622 
L 240.538612 155.248622 
L 240.61194 153.501566 
L 240.654969 153.501566 
L 240.751064 152.628038 
L 240.835383 152.628038 
L 240.856828 150.880981 
L 240.985796 150.880981 
L 241.072565 150.007453 
L 241.197012 150.007453 
L 241.305498 148.260397 
L 241.436179 148.260397 
L 241.521475 147.386869 
L 241.585768 147.386869 
L 241.662608 146.513341 
L 241.699767 146.513341 
L 241.716866 145.639813 
L 241.82979 145.639813 
L 241.82979 145.203049 
L 241.96627 145.203049 
L 242.073642 143.455992 
L 242.15416 143.455992 
L 242.15416 143.019228 
L 242.269566 143.019228 
L 242.269566 142.582464 
L 242.476122 142.582464 
L 242.519341 141.708936 
L 242.626298 141.708936 
L 242.707051 140.835408 
L 242.769174 140.835408 
L 242.769174 140.398644 
L 243.06884 140.398644 
L 243.127265 138.651588 
L 243.303818 138.651588 
L 243.303818 138.214823 
L 243.415916 138.214823 
L 243.503375 136.467767 
L 243.543676 136.467767 
L 243.543676 136.031003 
L 243.812309 136.031003 
L 243.921874 135.157475 
L 244.203981 135.157475 
L 244.278625 133.847183 
L 244.391026 133.847183 
L 244.391143 132.973655 
L 244.624655 132.973655 
L 244.642987 132.100127 
L 244.737829 132.100127 
L 244.832802 129.916306 
L 244.877032 129.916306 
L 244.896877 129.042778 
L 245.116075 129.042778 
L 245.165397 127.295722 
L 245.239788 127.295722 
L 245.289722 125.98543 
L 245.396876 125.98543 
L 245.396876 125.548666 
L 245.601791 125.548666 
L 245.665348 124.238373 
L 245.857715 124.238373 
L 245.901742 123.364845 
L 246.006842 123.364845 
L 246.065515 122.491317 
L 246.280258 122.491317 
L 246.280258 122.054553 
L 246.406682 122.054553 
L 246.406682 121.617789 
L 246.545055 121.617789 
L 246.605648 120.307497 
L 246.990365 120.307497 
L 247.085957 118.997205 
L 247.103009 118.997205 
L 247.103009 118.56044 
L 247.223693 118.56044 
L 247.231659 117.686912 
L 247.337309 117.686912 
L 247.337309 117.250148 
L 247.581332 117.250148 
L 247.581332 116.813384 
L 247.805498 116.813384 
L 247.888337 115.939856 
L 247.941368 115.939856 
L 248.040357 115.066328 
L 248.08736 115.066328 
L 248.109935 114.1928 
L 248.388968 114.1928 
L 248.388968 113.756036 
L 248.513325 113.756036 
L 248.513325 113.319272 
L 248.755866 113.319272 
L 248.859202 112.008979 
L 248.945224 112.008979 
L 249.011678 110.261923 
L 249.153632 110.261923 
L 249.223219 108.951631 
L 249.295173 108.951631 
L 249.4057 108.078103 
L 249.420221 108.078103 
L 249.420221 107.641339 
L 249.550657 107.641339 
L 249.550657 107.204575 
L 249.667055 107.204575 
L 249.667055 106.767811 
L 249.896667 106.767811 
L 249.958469 105.457518 
L 250.019659 105.457518 
L 250.032665 104.58399 
L 250.179055 104.58399 
L 250.217939 103.710462 
L 250.309608 103.710462 
L 250.368725 102.836934 
L 250.552039 102.836934 
L 250.632758 101.963406 
L 250.685208 101.963406 
L 250.747092 100.653114 
L 250.802969 100.653114 
L 250.873048 99.779586 
L 250.926438 99.779586 
L 250.926438 99.342822 
L 251.08508 99.342822 
L 251.08508 98.906057 
L 251.223063 98.906057 
L 251.260267 97.159001 
L 251.358215 97.159001 
L 251.448378 94.975181 
L 251.489092 94.975181 
L 251.561319 94.101653 
L 251.648927 94.101653 
L 251.693475 93.228125 
L 251.838471 93.228125 
L 251.893873 91.917832 
L 252.023467 91.917832 
L 252.109139 90.60754 
L 252.309042 90.60754 
L 252.398954 89.297248 
L 252.464408 89.297248 
L 252.573823 87.986956 
L 252.604761 87.986956 
L 252.635038 87.113428 
L 252.737031 87.113428 
L 252.781243 86.2399 
L 252.858639 86.2399 
L 252.952077 84.492843 
L 252.995155 84.492843 
L 252.995155 84.056079 
L 253.231557 84.056079 
L 253.327148 83.182551 
L 253.419738 83.182551 
L 253.488011 81.872259 
L 253.561375 81.872259 
L 253.602883 80.998731 
L 253.920638 80.998731 
L 253.920638 80.561967 
L 254.152323 80.561967 
L 254.237373 79.688439 
L 254.359202 79.688439 
L 254.359202 79.251674 
L 254.570056 79.251674 
L 254.66486 78.378146 
L 254.840638 78.378146 
L 254.840638 77.941382 
L 254.969304 77.941382 
L 254.969304 77.504618 
L 255.182254 77.504618 
L 255.287543 76.63109 
L 255.349329 76.63109 
L 255.349329 76.194326 
L 255.499709 76.194326 
L 255.499709 75.757562 
L 255.767389 75.757562 
L 255.767389 75.320798 
L 255.878877 75.320798 
L 255.968586 74.44727 
L 256.067156 74.44727 
L 256.153587 73.136978 
L 256.339213 73.136978 
L 256.392427 71.826685 
L 256.472713 71.826685 
L 256.552322 70.953157 
L 256.596162 70.953157 
L 256.596162 70.516393 
L 256.716845 70.516393 
L 256.813003 69.642865 
L 256.843783 69.642865 
L 256.950719 68.769337 
L 256.979349 68.769337 
L 256.979349 68.332573 
L 257.10708 68.332573 
L 257.13772 67.459045 
L 257.242576 67.459045 
L 257.26497 66.585517 
L 257.532466 66.585517 
L 257.532942 65.711988 
L 257.742 65.711988 
L 257.811781 64.83846 
L 257.880638 64.83846 
L 257.96207 63.964932 
L 258.137652 63.964932 
L 258.137652 63.528168 
L 258.285416 63.528168 
L 258.363709 62.217876 
L 258.416946 62.217876 
L 258.525269 60.907584 
L 258.658768 60.907584 
L 258.658768 60.47082 
L 258.840197 60.47082 
L 258.873874 59.597291 
L 258.958214 59.597291 
L 259.063438 57.850235 
L 259.08229 57.850235 
L 259.105387 56.976707 
L 259.284884 56.976707 
L 259.3356 56.103179 
L 259.476361 56.103179 
L 259.56094 55.229651 
L 259.709985 55.229651 
L 259.763412 54.356123 
L 260.584511 54.356123 
L 260.612501 53.482595 
L 261.029393 53.482595 
L 261.116591 52.609066 
L 261.374572 52.609066 
L 261.388547 51.735538 
L 261.603302 51.735538 
L 261.672966 50.425246 
L 261.848475 50.425246 
L 261.935479 49.114954 
L 261.978784 49.114954 
L 262.009949 48.241426 
L 262.125479 48.241426 
L 262.125479 47.804662 
L 262.585504 47.804662 
L 262.634413 46.931134 
L 262.731741 46.931134 
L 262.731741 46.494369 
L 263.005041 46.494369 
L 263.107668 44.310549 
L 263.218259 44.310549 
L 263.218259 43.873785 
L 263.334927 43.873785 
L 263.425835 43.000257 
L 263.590199 43.000257 
L 263.590199 42.563493 
L 263.724933 42.563493 
L 263.737608 41.689965 
L 263.970868 41.689965 
L 264.047232 40.816437 
L 264.209689 40.816437 
L 264.209689 40.379673 
L 265.497122 40.379673 
L 265.525017 39.506144 
L 265.935247 39.506144 
L 265.950933 38.632616 
L 266.543112 38.632616 
L 266.543112 38.195852 
L 267.055321 38.195852 
L 267.055321 37.759088 
L 267.289114 37.759088 
L 267.367233 36.88556 
L 267.468574 36.88556 
L 267.468574 36.448796 
L 268.828822 36.448796 
L 268.882708 35.138504 
L 269.044271 35.138504 
L 269.044271 34.70174 
L 269.305971 34.70174 
L 269.305971 34.264976 
L 269.698824 34.264976 
L 269.753307 33.391447 
L 270.471748 33.391447 
L 270.471748 32.954683 
L 270.707923 32.954683 
L 270.707923 32.517919 
L 273.763588 32.517919 
L 273.763588 32.081155 
L 275.666939 32.081155 
L 275.666939 31.644391 
L 277.170242 31.644391 
L 277.170242 31.207627 
L 279.532633 31.207627 
L 279.532633 30.770863 
L 282.06493 30.770863 
L 282.06493 30.334099 
L 338.688 30.334099 
L 338.688 30.334099 
" style="fill:none;stroke:#000000;stroke-linecap:square;stroke-width:1.5;"/>
   </g>
   <g id="line2d_43">
    <defs>
     <path d="M 0 6 
C 1.591219 6 3.117479 5.367802 4.242641 4.242641 
C 5.367802 3.117479 6 1.591219 6 0 
C 6 -1.591219 5.367802 -3.117479 4.242641 -4.242641 
C 3.117479 -5.367802 1.591219 -6 0 -6 
C -1.591219 -6 -3.117479 -5.367802 -4.242641 -4.242641 
C -5.367802 -3.117479 -6 -1.591219 -6 0 
C -6 1.591219 -5.367802 3.117479 -4.242641 4.242641 
C -3.117479 5.367802 -1.591219 6 0 6 
z
" id="md125619f71" style="stroke:#000000;stroke-width:1.5;"/>
    </defs>
    <g>
     <use style="fill-opacity:0;stroke:#000000;stroke-width:1.5;" x="250.685208" xlink:href="#md125619f71" y="101.526642"/>
     <use style="fill-opacity:0;stroke:#000000;stroke-width:1.5;" x="282.06493" xlink:href="#md125619f71" y="30.334099"/>
     <use style="fill-opacity:0;stroke:#000000;stroke-width:1.5;" x="282.06493" xlink:href="#md125619f71" y="30.334099"/>
     <use style="fill-opacity:0;stroke:#000000;stroke-width:1.5;" x="338.688" xlink:href="#md125619f71" y="30.334099"/>
    </g>
   </g>
   <g id="line2d_44">
    <path style="fill:none;stroke:#000000;stroke-linecap:square;stroke-width:1.5;"/>
    <g/>
   </g>
   <g id="line2d_45">
    <path clip-path="url(#p4787f0fbaa)" d="M 208.4475 297.196944 
" style="fill:none;stroke:#000000;stroke-linecap:square;stroke-width:1.5;"/>
    <defs>
     <path d="M -12 12 
L 12 -12 
M -12 -12 
L 12 12 
" id="m11470fa332" style="stroke:#000000;"/>
    </defs>
    <g clip-path="url(#p4787f0fbaa)">
     <use style="stroke:#000000;" x="208.4475" xlink:href="#m11470fa332" y="297.196944"/>
    </g>
   </g>
   <g id="line2d_46">
    <path clip-path="url(#p4787f0fbaa)" d="M 57.6 298.944 
L 57.6 298.944 
L 57.6 298.944 
L 57.6 298.944 
L 338.688 298.944 
" style="fill:none;stroke:#ff0000;stroke-linecap:square;stroke-width:1.5;"/>
   </g>
   <g id="line2d_47">
    <defs>
     <path d="M -6 6 
L 6 6 
L 6 -6 
L -6 -6 
z
" id="mea9b931302" style="stroke:#ff0000;stroke-linejoin:miter;stroke-width:1.5;"/>
    </defs>
    <g clip-path="url(#p4787f0fbaa)">
     <use style="fill-opacity:0;stroke:#ff0000;stroke-linejoin:miter;stroke-width:1.5;" x="57.6" xlink:href="#mea9b931302" y="298.944"/>
    </g>
   </g>
   <g id="line2d_48">
    <path clip-path="url(#p4787f0fbaa)" style="fill:none;stroke:#ff0000;stroke-linecap:square;stroke-width:1.5;"/>
    <g clip-path="url(#p4787f0fbaa)">
     <use style="fill-opacity:0;stroke:#ff0000;stroke-linejoin:miter;stroke-width:1.5;" x="-1" xlink:href="#mea9b931302" y="567.553901"/>
     <use style="fill-opacity:0;stroke:#ff0000;stroke-linejoin:miter;stroke-width:1.5;" x="338.688" xlink:href="#mea9b931302" y="567.553901"/>
    </g>
   </g>
   <g id="line2d_49">
    <path clip-path="url(#p4787f0fbaa)" d="M 57.6 298.944 
L 57.6 298.944 
L 57.6 298.944 
L 57.6 298.944 
L 338.688 298.944 
" style="fill:none;stroke:#bf00bf;stroke-linecap:square;stroke-width:1.5;"/>
   </g>
   <g id="line2d_50">
    <defs>
     <path d="M -0 8.485281 
L 8.485281 0 
L 0 -8.485281 
L -8.485281 -0 
z
" id="md2c0a0b8d3" style="stroke:#bf00bf;stroke-linejoin:miter;stroke-width:1.5;"/>
    </defs>
    <g clip-path="url(#p4787f0fbaa)">
     <use style="fill-opacity:0;stroke:#bf00bf;stroke-linejoin:miter;stroke-width:1.5;" x="57.6" xlink:href="#md2c0a0b8d3" y="298.944"/>
    </g>
   </g>
   <g id="line2d_51">
    <path clip-path="url(#p4787f0fbaa)" style="fill:none;stroke:#bf00bf;stroke-linecap:square;stroke-width:1.5;"/>
    <g clip-path="url(#p4787f0fbaa)">
     <use style="fill-opacity:0;stroke:#bf00bf;stroke-linejoin:miter;stroke-width:1.5;" x="-1" xlink:href="#md2c0a0b8d3" y="567.553901"/>
     <use style="fill-opacity:0;stroke:#bf00bf;stroke-linejoin:miter;stroke-width:1.5;" x="338.688" xlink:href="#md2c0a0b8d3" y="567.553901"/>
    </g>
   </g>
   <g id="line2d_52">
    <path d="M 338.688 298.944 
L 369.60768 293.571802 
" style="fill:none;stroke:#bf00bf;stroke-linecap:square;stroke-width:1.5;"/>
    <g>
     <use style="fill-opacity:0;stroke:#bf00bf;stroke-linejoin:miter;stroke-width:1.5;" x="338.688" xlink:href="#md2c0a0b8d3" y="298.944"/>
     <use style="fill-opacity:0;stroke:#bf00bf;stroke-linejoin:miter;stroke-width:1.5;" x="369.60768" xlink:href="#md2c0a0b8d3" y="293.571802"/>
    </g>
   </g>
   <g id="line2d_53">
    <path d="M 338.688 298.944 
L 369.60768 241.998701 
" style="fill:none;stroke:#ff0000;stroke-linecap:square;stroke-width:1.5;"/>
    <g>
     <use style="fill-opacity:0;stroke:#ff0000;stroke-linejoin:miter;stroke-width:1.5;" x="338.688" xlink:href="#mea9b931302" y="298.944"/>
     <use style="fill-opacity:0;stroke:#ff0000;stroke-linejoin:miter;stroke-width:1.5;" x="369.60768" xlink:href="#mea9b931302" y="241.998701"/>
    </g>
   </g>
   <g id="line2d_54">
    <path d="M 338.688 30.334099 
L 369.60768 190.4256 
" style="fill:none;stroke:#000000;stroke-linecap:square;stroke-width:1.5;"/>
    <g>
     <use style="fill-opacity:0;stroke:#000000;stroke-width:1.5;" x="338.688" xlink:href="#md125619f71" y="30.334099"/>
     <use style="fill-opacity:0;stroke:#000000;stroke-width:1.5;" x="369.60768" xlink:href="#md125619f71" y="190.4256"/>
    </g>
   </g>
   <g id="line2d_55">
    <path d="M 338.688 30.334099 
L 369.60768 138.852499 
" style="fill:none;stroke:#0000ff;stroke-linecap:square;stroke-width:1.5;"/>
    <g>
     <use style="fill-opacity:0;stroke:#0000ff;stroke-linejoin:bevel;stroke-width:1.5;" x="338.688" xlink:href="#ma0c00b9730" y="30.334099"/>
     <use style="fill-opacity:0;stroke:#0000ff;stroke-linejoin:bevel;stroke-width:1.5;" x="369.60768" xlink:href="#ma0c00b9730" y="138.852499"/>
    </g>
   </g>
   <g id="line2d_56">
    <path d="M 338.688 30.334099 
L 369.60768 87.279398 
" style="fill:none;stroke:#008000;stroke-linecap:square;stroke-width:1.5;"/>
    <g>
     <use style="fill-opacity:0;stroke:#008000;stroke-linejoin:miter;stroke-width:1.5;" x="338.688" xlink:href="#m69292bc680" y="30.334099"/>
     <use style="fill-opacity:0;stroke:#008000;stroke-linejoin:miter;stroke-width:1.5;" x="369.60768" xlink:href="#m69292bc680" y="87.279398"/>
    </g>
   </g>
   <g id="line2d_57">
    <path d="M 338.688 30.334099 
L 369.60768 35.706297 
" style="fill:none;stroke:#00bfbf;stroke-linecap:square;stroke-width:1.5;"/>
    <g>
     <use style="fill-opacity:0;stroke:#00bfbf;stroke-width:1.5;" x="338.688" xlink:href="#mf3b99e0667" y="30.334099"/>
     <use style="fill-opacity:0;stroke:#00bfbf;stroke-width:1.5;" x="369.60768" xlink:href="#mf3b99e0667" y="35.706297"/>
    </g>
   </g>
   <g id="line2d_58">
    <path d="M 338.688 298.944 
L 338.688 30.334099 
" style="fill:none;stroke:#000000;stroke-linecap:square;stroke-width:1.5;"/>
   </g>
   <g id="patch_3">
    <path d="M 57.6 298.944 
L 57.6 27.648 
" style="fill:none;stroke:#000000;stroke-linecap:square;stroke-linejoin:miter;stroke-width:0.8;"/>
   </g>
   <g id="patch_4">
    <path d="M 338.688 298.944 
L 338.688 27.648 
" style="fill:none;stroke:#000000;stroke-linecap:square;stroke-linejoin:miter;stroke-width:0.8;"/>
   </g>
   <g id="patch_5">
    <path d="M 57.6 298.944 
L 338.688 298.944 
" style="fill:none;stroke:#000000;stroke-linecap:square;stroke-linejoin:miter;stroke-width:0.8;"/>
   </g>
   <g id="patch_6">
    <path d="M 57.6 27.648 
L 338.688 27.648 
" style="fill:none;stroke:#000000;stroke-linecap:square;stroke-linejoin:miter;stroke-width:0.8;"/>
   </g>
   <g id="text_13">
    <!-- 40-D -->
    <g transform="translate(375.22944 298.262739)scale(0.17 -0.17)">
     <defs>
      <path d="M 19.671875 64.796875 
L 19.671875 8.109375 
L 31.59375 8.109375 
Q 46.6875 8.109375 53.6875 14.9375 
Q 60.6875 21.78125 60.6875 36.53125 
Q 60.6875 51.171875 53.6875 57.984375 
Q 46.6875 64.796875 31.59375 64.796875 
z
M 9.8125 72.90625 
L 30.078125 72.90625 
Q 51.265625 72.90625 61.171875 64.09375 
Q 71.09375 55.28125 71.09375 36.53125 
Q 71.09375 17.671875 61.125 8.828125 
Q 51.171875 0 30.078125 0 
L 9.8125 0 
z
" id="DejaVuSans-68"/>
     </defs>
     <use xlink:href="#DejaVuSans-52"/>
     <use x="63.623047" xlink:href="#DejaVuSans-48"/>
     <use x="127.246094" xlink:href="#DejaVuSans-45"/>
     <use x="163.330078" xlink:href="#DejaVuSans-68"/>
    </g>
   </g>
   <g id="text_14">
    <!-- 20-D -->
    <g transform="translate(375.22944 246.689638)scale(0.17 -0.17)">
     <use xlink:href="#DejaVuSans-50"/>
     <use x="63.623047" xlink:href="#DejaVuSans-48"/>
     <use x="127.246094" xlink:href="#DejaVuSans-45"/>
     <use x="163.330078" xlink:href="#DejaVuSans-68"/>
    </g>
   </g>
   <g id="text_15">
    <!-- 10-D -->
    <g transform="translate(375.22944 195.116537)scale(0.17 -0.17)">
     <use xlink:href="#DejaVuSans-49"/>
     <use x="63.623047" xlink:href="#DejaVuSans-48"/>
     <use x="127.246094" xlink:href="#DejaVuSans-45"/>
     <use x="163.330078" xlink:href="#DejaVuSans-68"/>
    </g>
   </g>
   <g id="text_16">
    <!-- 5-D -->
    <g transform="translate(375.22944 143.543437)scale(0.17 -0.17)">
     <defs>
      <path d="M 10.796875 72.90625 
L 49.515625 72.90625 
L 49.515625 64.59375 
L 19.828125 64.59375 
L 19.828125 46.734375 
Q 21.96875 47.46875 24.109375 47.828125 
Q 26.265625 48.1875 28.421875 48.1875 
Q 40.625 48.1875 47.75 41.5 
Q 54.890625 34.8125 54.890625 23.390625 
Q 54.890625 11.625 47.5625 5.09375 
Q 40.234375 -1.421875 26.90625 -1.421875 
Q 22.3125 -1.421875 17.546875 -0.640625 
Q 12.796875 0.140625 7.71875 1.703125 
L 7.71875 11.625 
Q 12.109375 9.234375 16.796875 8.0625 
Q 21.484375 6.890625 26.703125 6.890625 
Q 35.15625 6.890625 40.078125 11.328125 
Q 45.015625 15.765625 45.015625 23.390625 
Q 45.015625 31 40.078125 35.4375 
Q 35.15625 39.890625 26.703125 39.890625 
Q 22.75 39.890625 18.8125 39.015625 
Q 14.890625 38.140625 10.796875 36.28125 
z
" id="DejaVuSans-53"/>
     </defs>
     <use xlink:href="#DejaVuSans-53"/>
     <use x="63.623047" xlink:href="#DejaVuSans-45"/>
     <use x="99.707031" xlink:href="#DejaVuSans-68"/>
    </g>
   </g>
   <g id="text_17">
    <!-- 3-D -->
    <g transform="translate(375.22944 91.970336)scale(0.17 -0.17)">
     <defs>
      <path d="M 40.578125 39.3125 
Q 47.65625 37.796875 51.625 33 
Q 55.609375 28.21875 55.609375 21.1875 
Q 55.609375 10.40625 48.1875 4.484375 
Q 40.765625 -1.421875 27.09375 -1.421875 
Q 22.515625 -1.421875 17.65625 -0.515625 
Q 12.796875 0.390625 7.625 2.203125 
L 7.625 11.71875 
Q 11.71875 9.328125 16.59375 8.109375 
Q 21.484375 6.890625 26.8125 6.890625 
Q 36.078125 6.890625 40.9375 10.546875 
Q 45.796875 14.203125 45.796875 21.1875 
Q 45.796875 27.640625 41.28125 31.265625 
Q 36.765625 34.90625 28.71875 34.90625 
L 20.21875 34.90625 
L 20.21875 43.015625 
L 29.109375 43.015625 
Q 36.375 43.015625 40.234375 45.921875 
Q 44.09375 48.828125 44.09375 54.296875 
Q 44.09375 59.90625 40.109375 62.90625 
Q 36.140625 65.921875 28.71875 65.921875 
Q 24.65625 65.921875 20.015625 65.03125 
Q 15.375 64.15625 9.8125 62.3125 
L 9.8125 71.09375 
Q 15.4375 72.65625 20.34375 73.4375 
Q 25.25 74.21875 29.59375 74.21875 
Q 40.828125 74.21875 47.359375 69.109375 
Q 53.90625 64.015625 53.90625 55.328125 
Q 53.90625 49.265625 50.4375 45.09375 
Q 46.96875 40.921875 40.578125 39.3125 
z
" id="DejaVuSans-51"/>
     </defs>
     <use xlink:href="#DejaVuSans-51"/>
     <use x="63.623047" xlink:href="#DejaVuSans-45"/>
     <use x="99.707031" xlink:href="#DejaVuSans-68"/>
    </g>
   </g>
   <g id="text_18">
    <!-- 2-D -->
    <g transform="translate(375.22944 40.397235)scale(0.17 -0.17)">
     <use xlink:href="#DejaVuSans-50"/>
     <use x="63.623047" xlink:href="#DejaVuSans-45"/>
     <use x="99.707031" xlink:href="#DejaVuSans-68"/>
    </g>
   </g>
   <g id="text_19">
    <!-- bbob-constrained f46 -->
    <g transform="translate(60.41088 38.111366)scale(0.102 -0.102)">
     <defs>
      <path d="M 48.6875 27.296875 
Q 48.6875 37.203125 44.609375 42.84375 
Q 40.53125 48.484375 33.40625 48.484375 
Q 26.265625 48.484375 22.1875 42.84375 
Q 18.109375 37.203125 18.109375 27.296875 
Q 18.109375 17.390625 22.1875 11.75 
Q 26.265625 6.109375 33.40625 6.109375 
Q 40.53125 6.109375 44.609375 11.75 
Q 48.6875 17.390625 48.6875 27.296875 
z
M 18.109375 46.390625 
Q 20.953125 51.265625 25.265625 53.625 
Q 29.59375 56 35.59375 56 
Q 45.5625 56 51.78125 48.09375 
Q 58.015625 40.1875 58.015625 27.296875 
Q 58.015625 14.40625 51.78125 6.484375 
Q 45.5625 -1.421875 35.59375 -1.421875 
Q 29.59375 -1.421875 25.265625 0.953125 
Q 20.953125 3.328125 18.109375 8.203125 
L 18.109375 0 
L 9.078125 0 
L 9.078125 75.984375 
L 18.109375 75.984375 
z
" id="DejaVuSans-98"/>
     </defs>
     <use xlink:href="#DejaVuSans-98"/>
     <use x="63.476562" xlink:href="#DejaVuSans-98"/>
     <use x="126.953125" xlink:href="#DejaVuSans-111"/>
     <use x="188.134766" xlink:href="#DejaVuSans-98"/>
     <use x="251.611328" xlink:href="#DejaVuSans-45"/>
     <use x="287.695312" xlink:href="#DejaVuSans-99"/>
     <use x="342.675781" xlink:href="#DejaVuSans-111"/>
     <use x="403.857422" xlink:href="#DejaVuSans-110"/>
     <use x="467.236328" xlink:href="#DejaVuSans-115"/>
     <use x="519.335938" xlink:href="#DejaVuSans-116"/>
     <use x="558.544922" xlink:href="#DejaVuSans-114"/>
     <use x="599.658203" xlink:href="#DejaVuSans-97"/>
     <use x="660.9375" xlink:href="#DejaVuSans-105"/>
     <use x="688.720703" xlink:href="#DejaVuSans-110"/>
     <use x="752.099609" xlink:href="#DejaVuSans-101"/>
     <use x="813.623047" xlink:href="#DejaVuSans-100"/>
     <use x="877.099609" xlink:href="#DejaVuSans-32"/>
     <use x="908.886719" xlink:href="#DejaVuSans-102"/>
     <use x="944.091797" xlink:href="#DejaVuSans-52"/>
     <use x="1007.714844" xlink:href="#DejaVuSans-54"/>
    </g>
    <!-- 41 targets: 100..1e-06 -->
    <g transform="translate(60.41088 49.533135)scale(0.102 -0.102)">
     <defs>
      <path d="M 11.71875 12.40625 
L 22.015625 12.40625 
L 22.015625 0 
L 11.71875 0 
z
M 11.71875 51.703125 
L 22.015625 51.703125 
L 22.015625 39.3125 
L 11.71875 39.3125 
z
" id="DejaVuSans-58"/>
     </defs>
     <use xlink:href="#DejaVuSans-52"/>
     <use x="63.623047" xlink:href="#DejaVuSans-49"/>
     <use x="127.246094" xlink:href="#DejaVuSans-32"/>
     <use x="159.033203" xlink:href="#DejaVuSans-116"/>
     <use x="198.242188" xlink:href="#DejaVuSans-97"/>
     <use x="259.521484" xlink:href="#DejaVuSans-114"/>
     <use x="298.884766" xlink:href="#DejaVuSans-103"/>
     <use x="362.361328" xlink:href="#DejaVuSans-101"/>
     <use x="423.884766" xlink:href="#DejaVuSans-116"/>
     <use x="463.09375" xlink:href="#DejaVuSans-115"/>
     <use x="515.193359" xlink:href="#DejaVuSans-58"/>
     <use x="548.884766" xlink:href="#DejaVuSans-32"/>
     <use x="580.671875" xlink:href="#DejaVuSans-49"/>
     <use x="644.294922" xlink:href="#DejaVuSans-48"/>
     <use x="707.917969" xlink:href="#DejaVuSans-48"/>
     <use x="771.541016" xlink:href="#DejaVuSans-46"/>
     <use x="803.328125" xlink:href="#DejaVuSans-46"/>
     <use x="835.115234" xlink:href="#DejaVuSans-49"/>
     <use x="898.738281" xlink:href="#DejaVuSans-101"/>
     <use x="960.261719" xlink:href="#DejaVuSans-45"/>
     <use x="996.345703" xlink:href="#DejaVuSans-48"/>
     <use x="1059.96875" xlink:href="#DejaVuSans-54"/>
    </g>
    <!-- 15 instances -->
    <g transform="translate(60.41088 60.954904)scale(0.102 -0.102)">
     <use xlink:href="#DejaVuSans-49"/>
     <use x="63.623047" xlink:href="#DejaVuSans-53"/>
     <use x="127.246094" xlink:href="#DejaVuSans-32"/>
     <use x="159.033203" xlink:href="#DejaVuSans-105"/>
     <use x="186.816406" xlink:href="#DejaVuSans-110"/>
     <use x="250.195312" xlink:href="#DejaVuSans-115"/>
     <use x="302.294922" xlink:href="#DejaVuSans-116"/>
     <use x="341.503906" xlink:href="#DejaVuSans-97"/>
     <use x="402.783203" xlink:href="#DejaVuSans-110"/>
     <use x="466.162109" xlink:href="#DejaVuSans-99"/>
     <use x="521.142578" xlink:href="#DejaVuSans-101"/>
     <use x="582.666016" xlink:href="#DejaVuSans-115"/>
    </g>
   </g>
   <g id="text_20">
    <!-- v2.4.82 -->
    <g style="fill:#808080;" transform="translate(179.2815 294.151352)scale(0.1 -0.1)">
     <use xlink:href="#DejaVuSans-118"/>
     <use x="59.179688" xlink:href="#DejaVuSans-50"/>
     <use x="122.802734" xlink:href="#DejaVuSans-46"/>
     <use x="154.589844" xlink:href="#DejaVuSans-52"/>
     <use x="218.212891" xlink:href="#DejaVuSans-46"/>
     <use x="250" xlink:href="#DejaVuSans-56"/>
     <use x="313.623047" xlink:href="#DejaVuSans-50"/>
    </g>
   </g>
   <g id="text_21">
    <!-- 46 Separable Rastrigin, m=9+int(3n/4) -->
    <g transform="translate(1.742437 21.648)scale(0.2 -0.2)">
     <defs>
      <path d="M 53.515625 70.515625 
L 53.515625 60.890625 
Q 47.90625 63.578125 42.921875 64.890625 
Q 37.9375 66.21875 33.296875 66.21875 
Q 25.25 66.21875 20.875 63.09375 
Q 16.5 59.96875 16.5 54.203125 
Q 16.5 49.359375 19.40625 46.890625 
Q 22.3125 44.4375 30.421875 42.921875 
L 36.375 41.703125 
Q 47.40625 39.59375 52.65625 34.296875 
Q 57.90625 29 57.90625 20.125 
Q 57.90625 9.515625 50.796875 4.046875 
Q 43.703125 -1.421875 29.984375 -1.421875 
Q 24.8125 -1.421875 18.96875 -0.25 
Q 13.140625 0.921875 6.890625 3.21875 
L 6.890625 13.375 
Q 12.890625 10.015625 18.65625 8.296875 
Q 24.421875 6.59375 29.984375 6.59375 
Q 38.421875 6.59375 43.015625 9.90625 
Q 47.609375 13.234375 47.609375 19.390625 
Q 47.609375 24.75 44.3125 27.78125 
Q 41.015625 30.8125 33.5 32.328125 
L 27.484375 33.5 
Q 16.453125 35.6875 11.515625 40.375 
Q 6.59375 45.0625 6.59375 53.421875 
Q 6.59375 63.09375 13.40625 68.65625 
Q 20.21875 74.21875 32.171875 74.21875 
Q 37.3125 74.21875 42.625 73.28125 
Q 47.953125 72.359375 53.515625 70.515625 
z
" id="DejaVuSans-83"/>
      <path d="M 44.390625 34.1875 
Q 47.5625 33.109375 50.5625 29.59375 
Q 53.5625 26.078125 56.59375 19.921875 
L 66.609375 0 
L 56 0 
L 46.6875 18.703125 
Q 43.0625 26.03125 39.671875 28.421875 
Q 36.28125 30.8125 30.421875 30.8125 
L 19.671875 30.8125 
L 19.671875 0 
L 9.8125 0 
L 9.8125 72.90625 
L 32.078125 72.90625 
Q 44.578125 72.90625 50.734375 67.671875 
Q 56.890625 62.453125 56.890625 51.90625 
Q 56.890625 45.015625 53.6875 40.46875 
Q 50.484375 35.9375 44.390625 34.1875 
z
M 19.671875 64.796875 
L 19.671875 38.921875 
L 32.078125 38.921875 
Q 39.203125 38.921875 42.84375 42.21875 
Q 46.484375 45.515625 46.484375 51.90625 
Q 46.484375 58.296875 42.84375 61.546875 
Q 39.203125 64.796875 32.078125 64.796875 
z
" id="DejaVuSans-82"/>
      <path d="M 10.59375 45.40625 
L 73.1875 45.40625 
L 73.1875 37.203125 
L 10.59375 37.203125 
z
M 10.59375 25.484375 
L 73.1875 25.484375 
L 73.1875 17.1875 
L 10.59375 17.1875 
z
" id="DejaVuSans-61"/>
      <path d="M 10.984375 1.515625 
L 10.984375 10.5 
Q 14.703125 8.734375 18.5 7.8125 
Q 22.3125 6.890625 25.984375 6.890625 
Q 35.75 6.890625 40.890625 13.453125 
Q 46.046875 20.015625 46.78125 33.40625 
Q 43.953125 29.203125 39.59375 26.953125 
Q 35.25 24.703125 29.984375 24.703125 
Q 19.046875 24.703125 12.671875 31.3125 
Q 6.296875 37.9375 6.296875 49.421875 
Q 6.296875 60.640625 12.9375 67.421875 
Q 19.578125 74.21875 30.609375 74.21875 
Q 43.265625 74.21875 49.921875 64.515625 
Q 56.59375 54.828125 56.59375 36.375 
Q 56.59375 19.140625 48.40625 8.859375 
Q 40.234375 -1.421875 26.421875 -1.421875 
Q 22.703125 -1.421875 18.890625 -0.6875 
Q 15.09375 0.046875 10.984375 1.515625 
z
M 30.609375 32.421875 
Q 37.25 32.421875 41.125 36.953125 
Q 45.015625 41.5 45.015625 49.421875 
Q 45.015625 57.28125 41.125 61.84375 
Q 37.25 66.40625 30.609375 66.40625 
Q 23.96875 66.40625 20.09375 61.84375 
Q 16.21875 57.28125 16.21875 49.421875 
Q 16.21875 41.5 20.09375 36.953125 
Q 23.96875 32.421875 30.609375 32.421875 
z
" id="DejaVuSans-57"/>
     </defs>
     <use xlink:href="#DejaVuSans-52"/>
     <use x="63.623047" xlink:href="#DejaVuSans-54"/>
     <use x="127.246094" xlink:href="#DejaVuSans-32"/>
     <use x="159.033203" xlink:href="#DejaVuSans-83"/>
     <use x="222.509766" xlink:href="#DejaVuSans-101"/>
     <use x="284.033203" xlink:href="#DejaVuSans-112"/>
     <use x="347.509766" xlink:href="#DejaVuSans-97"/>
     <use x="408.789062" xlink:href="#DejaVuSans-114"/>
     <use x="449.902344" xlink:href="#DejaVuSans-97"/>
     <use x="511.181641" xlink:href="#DejaVuSans-98"/>
     <use x="574.658203" xlink:href="#DejaVuSans-108"/>
     <use x="602.441406" xlink:href="#DejaVuSans-101"/>
     <use x="663.964844" xlink:href="#DejaVuSans-32"/>
     <use x="695.751953" xlink:href="#DejaVuSans-82"/>
     <use x="762.984375" xlink:href="#DejaVuSans-97"/>
     <use x="824.263672" xlink:href="#DejaVuSans-115"/>
     <use x="876.363281" xlink:href="#DejaVuSans-116"/>
     <use x="915.572266" xlink:href="#DejaVuSans-114"/>
     <use x="956.685547" xlink:href="#DejaVuSans-105"/>
     <use x="984.46875" xlink:href="#DejaVuSans-103"/>
     <use x="1047.945312" xlink:href="#DejaVuSans-105"/>
     <use x="1075.728516" xlink:href="#DejaVuSans-110"/>
     <use x="1139.107422" xlink:href="#DejaVuSans-44"/>
     <use x="1170.894531" xlink:href="#DejaVuSans-32"/>
     <use x="1202.681641" xlink:href="#DejaVuSans-109"/>
     <use x="1300.09375" xlink:href="#DejaVuSans-61"/>
     <use x="1383.882812" xlink:href="#DejaVuSans-57"/>
     <use x="1447.505859" xlink:href="#DejaVuSans-43"/>
     <use x="1531.294922" xlink:href="#DejaVuSans-105"/>
     <use x="1559.078125" xlink:href="#DejaVuSans-110"/>
     <use x="1622.457031" xlink:href="#DejaVuSans-116"/>
     <use x="1661.666016" xlink:href="#DejaVuSans-40"/>
     <use x="1700.679688" xlink:href="#DejaVuSans-51"/>
     <use x="1764.302734" xlink:href="#DejaVuSans-110"/>
     <use x="1827.681641" xlink:href="#DejaVuSans-47"/>
     <use x="1861.373047" xlink:href="#DejaVuSans-52"/>
     <use x="1924.996094" xlink:href="#DejaVuSans-41"/>
    </g>
   </g>
  </g>
 </g>
 <defs>
  <clipPath id="p4787f0fbaa">
   <rect height="271.296" width="281.088" x="57.6" y="27.648"/>
  </clipPath>
 </defs>
</svg>
